<?xml version="1.0" encoding="utf-8"?>
<!-- Generator: Adobe Illustrator 19.1.0, SVG Export Plug-In . SVG Version: 6.00 Build 0)  -->
<svg version="1.2" baseProfile="tiny" id="Layer_2" xmlns="http://www.w3.org/2000/svg" xmlns:xlink="http://www.w3.org/1999/xlink"
	 x="0px" y="0px" width="900px" height="600px" viewBox="144 97 900 600" xml:space="preserve">
<g>
	<path d="M870.8,364.4c2.5-0.5,1.4-2.2,1-3.5c-1.3-4.7-3.8-8.9-6.6-12.8c-2.9-4-6.3-7.7-9.7-11.3c-0.9-1-2-1.8-2.4-3.2
		c8.8,7.3,16.3,15.6,20.1,26.7c3-1.6,3.5-3.2,2-6.2c-1.7-3.6-3.9-6.9-6.1-10.3c3.5,2.4,5.3,6.2,7.4,10.1c1.9-1.9,4.1-2.3,6.6-2.3
		c0.1-1.2,0.2-2.3,0.4-3.4c1.7-1.2,4.3-1.1,5.2-3.4l-0.1,0.1c5.6-2,11.2-4,15.6-8.2c1.5-1.4,3.2-1.8,5-2.2c3.6-0.9,7.4-1.1,10.4-3.7
		c0.4-1.3,0-2.6,0-4.2c-4.8-0.4-7.9-2.8-9.4-7.3c-0.2-0.8-0.9-1.5-1.4-2.1c-8.5-10.5-10.5-28.1-1.5-40.3c1.8-2.5,3.3-5.2,4.9-7.9
		c3.4-5.8,9.4-8.7,14.3-12.9c0.3-0.2,0.6-0.5,1.3-1.1c-2.3-0.4-4.2-0.3-6.1-0.1c-3.8,0.4-7.5,1-11.4,0.6c-8.1-0.8-15.7,1.9-23.5,3.5
		c-5.6,1.1-10.7,1.2-16.1-0.7c-1.5-0.6-2.9-1.4-4.9-0.8c-1.9,0.6-2.9-1.5-2.1-3.8c5.8-0.8,11.5-0.4,16.4-0.1
		c2.9-2.6,5.1-4.7,7.5-6.7c3.1-2.7,1.7-5.9,0.9-8.8c-0.9-3.4-0.4-6.1,1.9-8.5c0.8-0.8,0.9-2,1.3-3c1.3-3.5,2.7-7.1,6.8-7.8
		c0.6-0.9,0.4-1.7,0.2-2.4c-1-4.5-0.8-5,3.2-6.9c1.7-0.8,1.9-2.1,2.1-3.7c1.8-0.5,3.6-0.9,5.4-1.3c1.5,5.5,1.1,6-7.2,8.8
		c-1.3,2.4,0.2,5.4-1.5,7.7c1.1,1,2.2,1.5,3.3,2.1c1.2,0.7,1.9,1.7,1.3,3.1c-0.6,1.4-1.9,1.4-3.2,1.2c-2.2-0.4-4.8-3.2-6.4-0.7
		c-1.9,3-4.5,6.2-3.5,10.2c0.6,2.5-0.8,5.2,0.8,7.6c0.3,0.4,0,1-0.2,1.4c-1.9,5.4-9.1,10.5-14.9,10.6c-1.5,0-3,0-4.2,0
		c4.1,0.2,8.3-0.5,12.6-1.7c7.1-2,14.6-3.5,22-3.5c5.5,0,11.1,0,16.7,0.1c2.5,0.1,4.3-0.8,5.2-3.3c0.7-2.1,0.5-3.7-1.9-4.4
		c-1.1-0.3-2.1-0.8-2.9-1.6c-2.3-2.3-2-5.2,0.8-6.8c1.8-1.1,3.7-1.9,5.7-2.8c-0.8-1-1.5-2-1.6-3.3c-0.3-6.8-0.2-13.6,1.1-20.4
		c1.1-5.2-2.2-8.5-7.6-7.6c-3.8,0.7-6.9,3.1-10.5,4.3c-1.6,0.6-2.8,0.9-3.8-0.7c0.2-3.3,3.9-2.6,5.2-4.8c-0.1-1.7-2.5-1.6-2.9-3.2
		c0.3-1.3,1.4-0.1,1.9-0.7c0.5-1.6-0.5-3.6,0.5-5.2c1.8-0.6,3,0.6,4.6,1.5c0-2-2.5-2.3-2.1-4.3c2.5-0.9,4.5,1.4,6.9,1.1
		c0.3,0.2,0.5,0.5,0.6,0.8c-0.1-0.3-0.3-0.6-0.4-0.9c0.2-1-1.3-1.2-1-2.4c2.1-0.3,2.7,1.7,4.1,2.7c1-0.4-0.2-1.7,0.9-2.1
		c1.4-0.1,1.4,1.4,2,2.2c1.2,1.6,2.4,3.1,4.8,2.6c2.1-0.4,3.5,1.4,4.8,2.4c3.2,2.5,7.2,3.8,9.4,7.9c0.4-2-1.7-3.2-0.8-5
		c2.2,0.3,1.8,2.5,2.8,3.5c0.7,0.6,1.2-0.6,2.3-0.1c2.2,2-1.3,5.1,0.8,7.4c1.6-0.3,1.6-2.3,3.5-2.4c3.1,1.5-0.1,3.3-0.1,5
		c0.2,1,1.7,0.9,1.9,2.4c-2.4,2.1,1.7,5.1-1,7.4c1.5,1,2.9,1.3,4.4,1.6c5.9,0.9,11.8,1.9,17.6,3c3,0.6,5.6,2,6.6,5.3
		c0.5,1.7,1.3,3.2,2,4.8c1.7,4.4,1.5,8.5-0.9,12.8c-4.2,7.3-8.8,14.3-14.3,20.8c-3.9,4.5-7.1,9.6-10.7,14.3
		c-0.7,0.9-1.1,2.2-2.4,2.6c-1.1-1.6,0.8-2.5,0.8-4c-0.7-1.6-1.5-3.4-2.6-5.8c1.5,0.7,1.7,1.7,2.1,2.4c0.4,0.8,0.5,1.7,1.3,2.3
		c1.2-0.3,1.6-1.5,2.2-2.4c4.2-5.9,8.4-11.7,13-17.3c3.6-4.4,6.2-9.6,9.7-14.1c2.8-3.6,1.3-7.1,0.5-10.6c-0.4-1.9-1.5-3.6-2.5-6.1
		c-1.1,2.6-1.5,4.9-3.5,6.8c-0.2-2.2,1.3-3.6,1.6-5.3c0.4-2.3-0.1-4-2.5-4.7c-6.4-1.9-13.1-2.4-19.8-3.3c-0.8,2.4-1.2,4.7-2.2,6.8
		c-1.2,2.7-1.9,5.3-5.2,7c-3,1.6-5.5,5-7.8,7.8c-3.1,3.8-6.5,6.8-11.3,8.2c-1.2,0.3-2.2,1.5-3.8,2.6c4.8,1.1,9.2,2.6,13.2,4.8
		c1.8,1,3.3,2.1,4.5,3.8c1.7,2.2,4.6,3.1,5.7,6.2c3.9-3.8,7.1-7.8,10.3-12.2c0.9,2.2-0.8,3-0.9,4.3c-0.2,1.2,1.1,1.9,1.2,2.9
		c-1.2,1-2.3,0.9-3.2-0.4c-2.2,2.3-4.2,4.5-6.3,6.8c5.6,10.8,5.9,21.8,1.9,33.4c0.3,0.8,1.2,1.8,1.2,3.1c0.1,10.4,0.1,20.9-2.9,31
		c-1.1,3.9-2.1,7.9-3,11.9c-0.2,0.8-0.4,1.8-0.2,2.6c1.1,4.5,0.3,8.9,0,13.3c-0.2,2.9,0.2,6,0.9,8.7c1.2,4.9,1,9.6,0.7,14.4
		s-0.8,9.7-1.3,14.5c-0.1,1.1-0.3,2.3,0.1,3.3c3.2,7,6.4,14,9.6,20.9c0.4,0.9,1.3,1.4,2.1,2c4.1,3,7.3,6.7,10,10.9
		c1.6,2.4,2.2,5.3,2.7,8c0.7,4.1,2.4,7.8,3.1,12c6.5,1.7,13.1,2.8,19.7,3.8c8.2,1.2,16.5,2.2,24.5,4.5c1.4,0.4,2.6,0.7,3.3,2.1
		c2.7,5.8,6,11.3,9,17.1c-6.1-3.6-8-10.3-11.6-16.1c-14.4-3.7-29.5-4.7-44.2-8.4c-0.3,2.1-0.5,3.8-0.8,6.1
		c14.9,1.2,29.2,7.1,44.6,3.6c-2.4,2.4-5.4,3.2-8.6,4.5c2,4.9,4.3,9.6,6.8,14.5c4.4-1.1,8.4-3.2,12.9-3.5c0.4,2.1-1,2.4-2.1,2.7
		c-5.4,1.5-10.7,2.4-16.4,0.8c-7.9-2.2-16-3.4-24.1-4.6c-5.9-0.9-11.8-1.9-17.6-2.9c-2-0.3-3.9-0.4-5.6,1.1c-1.2,1-2.7,1.2-4.2,1
		c-1.4-0.2-2.8-0.2-4.1,0.3c-4.7,1.7-8.5,0.1-12.1-2.8c-1.2-0.9-2.5-1.8-3.4-2.9c-1.7-2-3.8-2.6-6.5-2c-1,1.8-1,4-1.1,6
		c-0.4,5-2.5,9.3-5.2,13.3c-3.2,4.7-8.2,5.4-13,4.5c-8.1-1.6-15.7-4.5-20.8-11.9c-2.2-3.2-6-5.3-6.2-10.3c-24,3.7-48,4.4-71.1,10.8
		c-0.9,1.8-0.7,3.5-0.8,5c-0.6,12.5-3.6,24.8-2.2,37.4c0.1,1.2,0.2,2.5,0.3,3.6c0.9,0.9,2-0.4,2.7,0.5c1.2,1.1-0.1,2.5,0.6,3.8
		c2.6-0.1,3.3,1.9,3.9,4c1.4,4.7,0.9,9.6,2,14.4c0.1,0.7-0.2,1.4,0.2,2.1c2.6,4.6,1.6,9.5,1,14.3c-0.3,3.3-2.7,4.9-5.7,5.3
		c-2.9,0.4-5,1.4-6.8,3.9c-6.2,9-15.5,12.2-25.8,13.8c-6.3,1-12.5,1.8-18.9,1.6c-3.4-0.1-6.6-0.7-9.8-2.1c-1-0.4-1.9-0.7-3.1-0.7
		c-3.8,0.2-6.2-3.4-5.2-7.2c1.2-4.4,4.8-6.9,9.2-6.9c6.8-7.3,14.2-13.8,17.7-23.1c0.4-1-0.9-0.3-1.1-1.1c-0.1-1.6,1.7-2.8,1.6-4.6
		c0.5-2,0.5-4,1.4-6c1.2-2.6-0.5-5.1-3.4-6c-3-0.9-6.1-1-9.1-1.8c-1.7-0.4-3.5-0.7-4.1-2.8c0.5-2.4,2.3-2.3,4-2.1
		c3.1,0.3,6.2,0.6,9.2,1.4c3,0.7,5.7,0.5,8.1-1.4c1.1-0.9,2.6-0.7,3.6-1.2c1.1-0.9,1.2-2.1,0.9-3c-1.8-6.3-0.6-12.7-0.4-19.1
		c0-1.8-0.2-3.6-1.1-5.4c-3.3-6.7-4.4-14.2-8-20.8c-0.6-1.1-0.6-2.4-1.9-3.3c-1.6,0.4-1.6,2-2.1,3.1c-4.7,11.1-8.6,22.5-12.5,33.9
		c-1.3,3.7-2.1,4.3-5,3.2c-0.5,0.8-0.8,1.8-1.5,2.5c-1,1.2-2.4,1.5-3.7,0.6c-1.4-1-1.7-2.5-0.8-3.9c1.1-1.7,2.3-3.2,3.3-4.3
		c-1.6,2.4-4,4.7-6.6,6.9c-1.8,1.5-3.6,2-5.8,0.6c-2.5-1.7-5.5-1.4-8.3-1.7c-7.3-0.8-14.5-2.3-21.5-4.3c-5.8-1.7-10.7,1.1-15.8,2.7
		c-2.4,0.7-3.4,3.9-3.8,6.5c-0.4,2.3,1.5,2.9,3.2,3.3c6.1,1.7,12.3,2.9,18.6,4c0.7,0.1,1.5,0.2,2.2,0.4c18.7,5.9,38,9.6,57.1,14
		c1.9,0.4,4.9,0.4,3.9,4c-4.1,0.5-7.9-0.7-11.8-1.6c-13.1-2.9-26.4-5.2-39.1-9.2c-11.8-3.7-24.1-5-36-8.7
		c-1.2,9.3-8.5,11.4-15.6,13.4c-5.1,1.4-10.2,1.9-15.4,0.2c-1.5-0.5-3.2-0.6-4.8-0.3c-8.8,1.6-17.6,2.8-26,5.9
		c-7,2.6-14.3,4.2-21.7,5.2c-4,0.6-7.8-1-10.6-4.3c-1.7-2-3.8-3.7-6.1-4.8c-3.2-1.6-3.9-4.3-3.8-7.4c0.1-2.5,1-4.8,2.3-7
		c1-1.7,2.6-2.2,4.4-2.2c5.2,0,9.5-2.1,13.7-5.1c3.1-2.3,6.5-4,9.9-6c6.1-3.5,11.1-8.3,15.4-14.2c-2.2-1.9-0.9-3.5,0.4-5.1
		c0.8-1.1,1.6-2.2,2.5-3.3c2.8-3.4,3.7-3.6,7.6-1.5c-0.3-4.6-1.2-9-0.9-13.4c0.4-5.3-0.6-10.4-0.7-15.5c-0.1-5.3-1.5-10.3-2.8-15.4
		c-3.7-14.5-6.4-29.1-5.9-44.1c0-1.5-0.5-2.9-0.7-4.4c-0.8-5.6-0.9-11.1,0.9-16.6c0.8-2.5,0.4-5.1-0.1-7.7c-0.6-3-0.9-6,2.6-7.7
		c0.5-0.3,1.1-0.8,1.2-1.4c1.8-5.8,7.1-7.4,11.8-9.4c10.5-4.6,20.6-9.8,30.4-15.7c6.3-3.9,13.3-6.1,20-9.1
		c5.7-2.6,11.8-3.4,17.8-4.8c2.4-0.5,3.9-2.5,6.7-2.4c6.3,0.2,10.3,4.2,14.8,7.7c-5-2.4-10.1-4.1-15.6-4.3
		c-5.5-0.2-10.5,2.6-16.1,3.3c6.1,4.7,9.5,10.9,11.8,18c1.5,4.6,3.4,9,5.2,13.5c2,4.8,5,8.9,8.9,12.2c3.6,3,5.9,7,8.8,10.1
		c-1.9,2.8,0.3,6.2-2.3,9.1c2.6-0.4,4.5-1,5.3-2.6c1.1-2.3,3.1-3.4,5.6-4.5c-7.4-10-11.4-21.7-18-31.9c-2-3-0.8-6.5-2.3-10
		c-4.1-2.6-8.5-5.4-13-8.2c4.9,1.3,8.8,4.3,13.5,6.7c-0.2-3,3.2-4.7,2.5-8c1.4-0.4,3.2,0,4.8-1.2c8.5-6.3,17.6-6.4,27.2-3.1
		c4,1.4,7.7,3.4,11.1,5.9c3.1,2.2,4.5,4.8,7.3,11.9c-2.8,2.1-0.8,5.3-2.1,7.8c1.5,0.3,1.5-0.9,2-1.4c1.9-2.4,3.8-4.9,5.6-7.5
		c4.3-6.3,10.4-8.8,17.8-9.1c6-0.3,11.9,0,17.7,1.7c1.5,0.4,3.1,0.7,3.6,2.8c-2.7,0.9-5.1,0.1-7.4-0.6c-6.1-1.7-12.3-1.5-18.5-1.2
		c-3.8,0.2-6.9,1.4-9.2,4.8s-4.9,6.6-7.3,9.9c-0.1,0.1-0.2,0.2-0.2,0.2c-0.1,0.1,0,0,0.1-0.3c7.5-1.7,15.1-2.4,23-2.2
		c1.6,4,5.6,5.1,8.7,7c7.1,4.3,10.7,10.4,11.1,18.6c0.5,10.7-1.6,20.7-7.4,29.9c-1.2,1.9-2.8,3.5-4.6,5.4c4.2,1.4,7.9-2.1,11.9-0.5
		c-3.8,2.4-8.3,2.8-12.4,3.8c-0.6-1.2-1-2.1-1.4-2.9c-0.3,0.1-0.5,0.2-0.8,0.3c0.4,3.3,2,6.2,2.8,9.1c1.4,0.6,2.2,0,3.1-0.5
		c4.8-2.8,8.5-6.8,10.7-11.8c3.7-8.4,7.2-16.9,10.8-25.3c0.2-0.5,0.6-1.1,1.1-1.5c-0.6,6.5-3.9,12.1-6,18.2c5-3,10-5.9,15-8.9
		c0.2-1.6,0.5-3.2,0.7-5c-1.8,0.9-1.2,3.8-3.9,3.7c-1-1.6,0-3.1,0.5-4.5c3-8.1,3.7-16.4,3.7-24.9c0-5.4-2.8-9.5-6.1-13.3
		c1.4-2.4,2.6-0.2,4.6,0c-5.8-6.1-10.4-12.5-16.6-17.4c-5.1-4-11.3-4.1-16.9-3c-4.5,0.8-9,2.8-13.2,5.2c-0.8,0.5-1.3,1-0.4,2.3
		c-2-1.1-3.4,0.1-5,0.1c4-4.4,9.5-6.3,14.9-8.2c-5.2-0.2-10-1.6-14.8-3c-1.7-0.5-3.3-0.8-4.6-2.1c-1-1.1-2.5-1.1-3.8-1.2
		c-5.3-0.4-10.7-0.9-16-0.8c-2.1,0.1-4,0-4.8-2.2c-4.1-0.4-8,0.1-12.3,0.3c2.1,2,4.9,0.5,6.6,2.2c-3.4-1-6.9,0-10.3-0.9
		c-1.9-0.5-3.3,0.4-4.5,1.9c9.4,3.7,19.7,4.7,28.9,8.7c-0.1,0.3-0.2,0.7-0.3,1c-5.1-1.3-10.2-2.7-15.4-3.9
		c-6.5-1.5-12.9-3.6-19.4-5.1c-3.5-0.8-6.1-0.7-8.9,0.9c-0.7,0.4-1.4,0.5-2.1-0.1c1.4-3.5,9.7-5.8,15.7-4.2c1.5-2.2,4.1-2.2,6.5-2.5
		c3.4-0.4,6.7-1.4,10.1-0.1c1.3,0.5,2.7-0.4,3.9-0.9c2.4-1,4.9-1.9,7.2-3c2.2-1,4.4-2.3,6.8-3.5c1.2-3.7-0.5-7.1-1.8-10.3
		c-1.6-3.9-2.3-7.8-2.8-11.9c-1-7.4-1.6-14.8-2.5-22.2c-0.2-1.9-0.3-4-2.1-5.5c-4.8,1.7-9.7,2.2-14.6,1.9c-2.6-0.1-4.9-1-6.9-2.5
		c-6.3-4.6-11.3-10.3-13.8-17.6c-1.9-5.7-1.6-11.7-0.5-17.7c0.6-3,1.3-6.1,2-9.1c1.4-6.1,12.9-17.1,21.5-16.8
		c4.5,0.2,9.2,0.4,13.3,3.4c2.8-3.1,6-5.3,9.5-7.2c10.3-5.4,27,1.4,30.4,11.6c1.4,4.2,3.5,8.2,4.7,12.5c3.3,11.5-0.3,21.7-6.9,30.8
		c-3.1,4.3-8,7-13.6,7.5c-1.7,0.2-3.4,0.4-5.2,0.6c1.5,5.1,5.1,9,6.8,13.7c1.7,4.6,3.7,9.2,5.7,14.1c4.3-4.6,8.8-8.4,13.2-12.4
		c1.5-1.3,2.9-2.8,4.7-3.6c1.1-0.5,1.8-1.3,2-2.5c1-8.7,6.2-14.9,12.4-20.4c0.4-0.3,0.7-0.7,1.1-1c6.1-4.4,13.4-4.6,20.3-6.1
		c0.4,2-0.7,1.9-1.5,2.1c-2.3,0.6-4.5,1.4-6.8,1.8c-12.4,2.2-17.9,11.1-21.5,21.8c-0.8,2.5-1.8,4.5-4,6
		c-6.4,4.5-11.4,10.3-16.7,15.9c-1.9,2.1-2.7,5.1-2.6,8c0.2,5.4-1.8,9.1-7.1,11.3c9.4,1.6,18.9,1,28,3.9c-10.6-1-21.1-2.2-31.7-2
		c-0.1,0-0.3-0.8-0.4-1.2c-4.2,1.1-4.4,1.3-6.8,4.2c11.9,1.6,23.7,2.4,35.1,5.7c-3.3,0.7-6.6-0.2-9.8-0.6
		c-10.5-1.5-20.9-2.6-31.5-3.1c-2.9-0.1-4.3,2.6-7,2.8c0.1,0.3,0.1,0.6,0.2,0.9c2.4-0.2,4.7-0.4,7.1-0.7c3.8-0.5,7.6-1.1,11.5-0.6
		c4,0.5,6.7,2.3,8,6.3c6.1-1.3,12.2,0.3,18.3,0.7c7.1,0.5,13.7,4,18.7,9.5c4,4.4,7.9,9,11.6,13.6c1.4,1.7,2.8,3.5,2.5,5.3
		c3.7,3,3.6,8.5,7.6,10.1c0.5,4.3-2.5,8.4,0.6,12.3c-1,0.9-1.3-0.6-2.4-0.2c-1,6.6-4.5,13-4.2,20.7c10.2-9.2,16.4-21,25.1-30.9
		c-3.7-3-8.1-4.7-11.3-8.3c-2.9,1-5.2,3.7-8.7,4.2c-0.5-2.1,1.7-2.1,2-3.6c-2.9-7.5-7.4-14-13.2-19.8c7.4,4.4,11.1,11.8,14.7,19.5
		C868.5,366.4,869.9,365.7,870.8,364.4L870.8,364.4z"/>
	<path d="M470.3,207.9c0.2-3.3,3.9-2.6,5.2-4.8c-0.1-1.7-2.6-1.6-2.9-3.2c0.3-1.3,1.4-0.1,1.9-0.8c0.5-1.6-0.5-3.5,0.4-5.2
		c1.8-0.5,3.1,0.3,4.9,2c-0.4-2.5-2.5-2.9-2.5-4.8c2.6-0.9,4.6,1.4,7,1.1c0.3,0.2,0.5,0.5,0.6,0.8c-0.1-0.3-0.3-0.6-0.4-0.9
		c0-0.9-1-1.3-1.3-2.4c2.5-0.3,3.1,1.7,4.4,2.7c1-0.4-0.2-1.7,0.9-2.1c1.4-0.1,1.4,1.4,2,2.2c1.2,1.6,2.4,3.2,4.8,2.5
		c0.8-0.2,1.4,0.2,2,0.6c4,3.1,9,5,12.2,9.7c0.2-2-1.6-3.2-0.9-5c2.2,0.4,2,2.4,3,3.7c0.6,0.5,1.3-1.1,2.2-0.2c2,2.2-1.3,5,0.8,7.3
		c1.6-0.2,1.5-2.4,3.8-2.2c2.8,1.3-0.4,3.1-0.4,4.8c0.1,1.1,1.8,0.9,1.8,2.5c-2.2,2,1.9,4.9-0.8,7.3c1.4,0.9,2.6,1.4,4,1.5
		c6.1,0.5,12,2.1,18,3.1c3,0.5,5.6,1.9,6.6,5.2c0.4,1.5,1.3,3,1.9,4.5c1.9,4.6,1.7,9-1,13.5c-4.2,7.2-8.9,14-14.1,20.5
		c-5.9,7.3-11.7,14.8-16.2,23.2c-2.2,4.2-5.6,7.6-8.7,11.1c-5.8,6.6-10.5,14.1-16.1,21c-0.7,0.9-0.7,1.8-0.8,2.8
		c-0.7,6.2-2.2,12.2-5.5,17.7c-2.1,3.4-0.8,6.6,0.6,9.5c4.4,9.2,8.1,18.6,13.2,27.5c2.9,5.1,4.5,10.7,7,16
		c4.6,9.9,9.3,19.8,13.5,29.8c2.7,6.3,5.5,12.5,7.7,18.9c1.4,4,2.5,8.1,3.9,12.1c0.4,1.2,0.9,2.3,1.3,3.5c10.3,2,20.5,4.1,30.8,5.5
		c6.6,0.9,13.3,1.8,19.7,3.7c1.3,0.4,2.6,0.7,3.3,2.1c2.7,5.8,6.1,11.3,9,17.1c-6.1-3.6-8-10.3-11.6-16.1
		c-17.9-4-36.5-5.7-54.8-10.8c-2.2,1.4-4.8,2.9-7.8,3.4c-1.8,0.3-3,0-2.7-2.2c0.8-3.6,5-2.8,7-4.8c-10-36.4-28-69.1-43.9-102.8
		c-4.1,2.5-4.6,3.9-2.8,7.9c3.5,8.1,7.7,15.9,11.7,23.7c5.5,10.6,10.2,21.5,14.3,32.8c3.4,9.2,7.8,18,13.3,26.2
		c1.2,1.9,2.5,3.8,2.9,6c0.4,2.3-0.2,3.7-3,3.1c-0.5-0.2-1-0.4-1.5-0.7c-4.8-6.5-8.8-13.5-12.3-20.7c-5.9-12-9.3-24.9-15.1-36.9
		c-4.7-10-10.5-19.5-14.9-29.6c-0.2-0.6-0.7-1-1.5-1c-1.4,1.2-0.7,2.7-0.2,4c4.5,11.6,8.3,23.4,13.6,34.7c2.7,5.9,6.3,11.3,9.5,16.9
		c0.7,1.2,1.7,2.2,2,3.5c2.4,9.5,8.2,17.5,11,26.8c0.5,1.7,1.9,3.8-0.5,4.9s-3.7-1.2-5.2-2.5c-0.4-0.3,0,0.1-0.2-0.3
		c-1.9-8.2-7.6-14.8-9.5-23c-1-4.2-3.7-7.6-5.9-11.2c-7.3-12-11.9-25.1-16.9-38.1c-1.2-3-2.3-6.1-3.3-9.1c-0.9-2.7-2.5-4.2-5.6-3.6
		c-0.4,0.1-0.8,0.1-1.1,0.1c-6.8-1.5-10.7,2-14.6,7.2c-9.3,12.1-18.3,24.5-28.2,36.1c-2.8,3.3-5.8,5.9-10,7.8
		c-6.2,2.8-12.6,5.9-17.1,11.6c-1,1.3-2.2,2.4-3.4,3.4c-1.8,1.4-3.5,2.8-2.6,5.6c0.9,3,2.2,5.5,5.7,6.1c14.1,2.4,28.2,4.7,42.2,7.5
		c1.6,0.3,3.2,0.3,4.7-0.5c9.8-5.5,20.2-5.3,30.8-3.6c10.7,1.7,21.3,3.7,32.1,4.2c2.5,0.1,4.4,1.6,6.5,3.1c3.9-1.8,7.4-0.5,10.7,1.7
		c1.3,0.9,2.5,1.8,1.1,3.5c-13.6-0.3-27.2-0.5-40.7-0.9c-13.2-0.5-26.4-0.7-39.4-2.1c-10.6-1.1-21-3.6-31.6-5.4
		c-6.4-1.1-12.7-2.2-19.1-3.3c-0.7-0.1-1.5-0.3-2.4,0.4c0.7,12.7-3,25.1-4.5,37.8c0.4,0.8,1.2,0.7,1.7,0.4c4.5-2.7,9.6-3,14.6-3.6
		c5.9-0.7,11.6-2.6,17.6-3c17-0.9,33.8-3.6,50.8-4.8c17.3-1.3,34.6-3,51.9-5.3c2.3-0.3,4.7-1.2,7,0.5c-7.6,1.9-15.5,2.6-23.2,3.8
		c25.5,5.3,51.5,7.9,77,14.1c-2-4.2-3.9-8.5-6-12.9c-17.8-3.3-36.1-4.9-54.2-11c2.3-2,3.8-1,5.2-0.7c13.3,3.3,26.8,5.1,40.3,7.2
		c5.7,0.9,11.2,1.9,16.9,0.1c1-0.3,2.1,0,3.6,0c-2.8,2.3-6,3.1-9.1,4.5c2.2,4.7,4.2,9.5,6.9,14.3c4.4-0.6,8.4-3.4,13-3
		c0.1,2.2-1.6,2.3-2.8,2.6c-5.4,1.5-10.7,1.9-16.4,0.5c-14.6-3.6-29.5-5.5-44.4-7.8c-8.2-1.2-16.4-2.4-24.5-4.4
		c-1.9-0.5-3.9-0.5-5.9-0.7c-2.3-0.2-4.7-0.6-6.3-1.9c-15,1.4-29.7,2.7-44.4,4.1c-14.1,1.4-28.2,3-42.2,5c-9,1.3-18.3,1.9-26.9,5.8
		c-0.7,1.4-0.5,3.1-0.6,4.6c-0.6,12.4-3.7,24.6-2.2,37c0.2,1.3,0.2,2.7,0.3,4c0.9,1,2.1-0.3,2.7,0.5c1.2,1.1-0.1,2.5,0.6,3.8
		c2.4-0.1,3.1,1.7,3.8,3.7c1.6,4.8,1,9.9,2.1,14.7c0.1,0.7-0.2,1.4,0.2,2.1c2.6,4.6,1.6,9.5,1,14.3c-0.4,3.3-2.7,4.9-5.7,5.3
		c-2.9,0.4-5,1.4-6.8,3.9c-6.2,9-15.5,12.2-25.8,13.8c-6.3,1-12.5,1.8-18.9,1.6c-3.4-0.1-6.6-0.7-9.8-2.1c-1-0.4-1.9-0.7-3.1-0.7
		c-3.8,0.2-6.2-3.4-5.2-7.2c1.2-4.4,4.8-6.9,9.2-6.9c7.1-7.3,14.3-14,17.8-23.5c-0.3-0.1-0.7-0.3-1.1-0.6c-0.1-1.8,1.7-3,1.6-4.9
		c0.5-2,0.5-4,1.4-6c1.2-2.6-0.5-5.1-3.4-6c-2.6-0.8-5.4-1-8-1.6c-1.1-0.2-2.2-0.4-3.2-0.9s-2.1-1.1-1.9-2.5
		c0.3-1.5,1.5-1.9,2.8-1.8c3.2,0.2,6.5,0.6,9.6,1.3c3.3,0.8,6.4,0.8,9.1-1.5c1-0.8,2.4-0.5,3.3-1c0.7-0.6,1-1.2,0.9-1.8
		c-1.5-4.9-1.1-9.9-0.6-14.7c0.7-6.7-1.9-12.3-3.8-18.3c-1.6-5.3-4-10.2-5.9-15.3c-0.2-0.6-0.5-1.1-1.9-1.3c-2,4.5-4,9.3-5.8,14.1
		c-2.8,7.7-5.6,15.4-8.2,23.2c-0.8,2.4-1.8,4.5-5,3.4c-0.6,0.6-0.9,1.3-1.3,1.9c-1.1,1.4-2.5,1.7-3.9,0.6c-1.3-1.1-1.5-2.6-0.5-4
		c1.2-1.8,2.6-3.4,3.7-4.8c-1.9,2.7-4.3,5.4-7.2,7.6c-1.3,1-2.9,2.1-4.4,1.1c-3.5-2.2-7.4-2.1-11.2-2.5c-5.1-0.6-10.1-1.5-15-2.9
		c-5.9-1.7-11.5-1.9-17.5,0.1c-3.5,1.2-5.4,2.9-6.7,6c-1.2,2.9-0.7,4,2.4,5c5.8,1.9,11.8,3,17.8,4c2.6,0.4,5.1,1.2,7.6,1.9
		c17.1,4.9,34.5,8.5,51.8,12.4c1.2,0.3,2.4,0.5,3.6,1c1.5,0.6,2.1,1.7,1.4,3.2c-4.1,0.5-7.9-0.7-11.8-1.6c-13.2-3-26.6-5.3-39.5-9.3
		c-11.7-3.7-23.8-4.8-35.7-8.6c-1.2,9.3-8.4,11.5-15.6,13.4c-5.1,1.4-10.2,1.9-15.4,0.2c-1.5-0.5-3.2-0.6-4.8-0.3
		c-8.8,1.6-17.6,2.8-26,5.9c-7,2.6-14.3,4.2-21.7,5.2c-4,0.6-7.8-1-10.6-4.3c-1.7-2-3.8-3.7-6.1-4.9c-2.9-1.4-3.7-3.7-3.8-6.6
		c-0.1-3,1-5.6,2.5-8.1c1-1.5,2.5-1.9,4.2-1.9c5.2,0,9.5-2.1,13.7-5.1c3.1-2.3,6.5-4,9.9-6c6.1-3.5,11.1-8.3,15.4-14.2
		c-2.2-2-0.9-3.6,0.3-5.2c0.8-1.1,1.6-2.2,2.5-3.3c2.8-3.4,3.7-3.6,7.5-1.6c-0.1-1.9-0.2-3.8-0.3-5.6c-0.7-8.1-0.3-16.3-1.2-24.4
		c-0.5-4.9-1.5-9.5-2.8-14.2c-3.7-14.5-6.4-29.1-5.9-44.1c0-1.5-0.5-2.9-0.7-4.4c-0.8-5.6-0.9-11.1,0.9-16.6
		c0.8-2.5,0.4-5.1-0.1-7.7c-0.6-3-0.9-6,2.6-7.7c0.5-0.3,1.1-0.8,1.2-1.4c1.8-5.8,7.1-7.4,11.8-9.4c10.5-4.6,20.6-9.8,30.4-15.7
		c6.3-3.8,13.3-6.1,20-9.1c5.7-2.6,11.8-3.4,17.8-4.8c2.4-0.5,3.9-2.5,6.7-2.4c6.3,0.2,10.3,4.1,14.8,7.7c-5-2.4-10.1-4.1-15.6-4.3
		c-5.5-0.2-10.5,2.6-16.1,3.3c6.1,4.7,9.5,10.9,11.8,18c1.5,4.6,3.4,9.1,5.2,13.5c1.8,4.3,4.2,8.2,7.8,11.2
		c3.9,3.3,6.8,7.5,9.9,11.2c-2,2.7,0.5,6.1-2.6,8.9c2.9-0.3,4.7-0.8,5.4-2.3c1.2-2.4,3.1-3.7,5.8-4.8c-7.5-10-11.4-21.8-18-31.9
		c-1.9-3-0.8-6.5-2.2-10c-4.1-2.6-8.6-5.4-13-8.2c4.8,1.3,8.8,4.3,13.5,6.7c-0.2-3.1,3.3-4.8,2.5-8.1c1.4-0.3,3.3,0,4.9-1.2
		c8.6-6.3,17.9-6.4,27.6-2.9c4.8,1.8,9.3,4,13,7.8c2.6,2.7,3.3,6.4,5.4,9.6c-3.1,2.1-1,5.4-2.3,8c1.5,0.3,1.5-0.9,2-1.4
		c2.2-2.8,4.4-5.7,6.5-8.6c3.4-4.6,7.9-7,13.5-7.6c7.2-0.8,14.4-0.7,21.4,1.4c1.4,0.4,2.9,0.8,3.2,2.8c-2.6,0.9-5,0-7.3-0.6
		c-6.1-1.7-12.3-1.5-18.5-1.2c-3.8,0.2-6.9,1.4-9.2,4.8c-2.3,3.4-4.9,6.6-7.3,9.9c-0.1,0.1-0.2,0.2-0.2,0.2c-0.1,0.1,0,0,0.1-0.3
		c7.5-1.7,15.1-2.4,23-2.2c1.6,4,5.5,5.1,8.7,7c7.1,4.3,10.7,10.4,11.1,18.6c0.5,10.7-1.6,20.7-7.4,29.9c-1.2,1.9-2.7,3.5-4.8,5.4
		c4.4,1.4,8.1-2,12-0.5c-3.8,2.5-8.3,2.8-12.4,3.9c-0.6-1.3-1-2.1-1.4-3c-0.3,0.1-0.5,0.2-0.8,0.3c0.4,3.3,2,6.2,2.7,9.1
		c1.3,0.6,2.2,0,3-0.4c4.8-2.8,8.5-6.7,10.7-11.8c3.7-8.4,7.2-16.9,10.8-25.3c0.2-0.6,0.6-1.1,1.1-1.5c-0.5,6.6-4,12.1-5.8,18.1
		c4.9-2.9,9.9-5.8,14.9-8.8c0.2-1.6,0.5-3.2,0.8-5c-1.8,1-1.3,3.8-3.9,3.8c-1-1.6,0-3.1,0.5-4.5c3-8.1,3.7-16.4,3.7-24.9
		c0-5.4-2.7-9.6-6.2-13.4c1.4-2.3,2.6-0.3,4.8,0.2c-4.3-4.8-8.1-8.8-11.7-13.1c-3.2-3.7-7-6.2-11.7-7.5c-2.7-0.7-8.5,0.3-11.8,1
		c-3.9,0.8-7.3,2.4-10.8,3.9c-1,0.4-2,0.8-1.4,2.6c-1.7-1-3.1-0.1-4.7,0c4-4.4,9.4-6.3,14.9-8.2c-5.4-0.1-10.4-1.8-15.5-3.1
		c-1.2-0.3-2.5-0.5-3.3-1.5c-1.3-1.5-3-1.7-4.7-1.8c-5.3-0.4-10.7-0.9-16-0.8c-2,0-3.8-0.1-4.5-2.3c-4.1-0.2-8,0.2-12.3,0.5
		c2.2,1.9,4.8,0.5,6.6,1.9c-4.9,0.9-10-2.4-15.2,1.1c9.8,3.8,20,4.9,29.2,9.1c-1.4,0.7-2.6,0.1-3.8-0.2c-8.3-2.2-16.5-4.4-24.8-6.8
		c-2.9-0.8-6-0.6-8.8-2.3c-1.3-0.8-3.3,0.3-5,1c-1.1,0.4-2,1.6-3.4,0.8c0.8-3.6,9.5-6,15.3-4.3c2.8-2.8,6.7-2.6,10.3-2.9
		c2.4-0.2,4.2-0.8,5.8-2.6c2.6-2.9,4.7-3.1,8.6-1.2c4.9-3.2,10.8-4.8,15.8-8.4c0.7-0.5,1.5-1.1,1.8-1.8c2.2-4.9,5.8-8.9,9.2-13
		c4.8-5.7,6.6-12.7,9.5-19.2c1.5-3.3,3.6-5.6,6-7.8c3-2.7,6.4-5,10-7c2.1-1.2,3.6-3,4.9-5c2.9-4.2,5.9-8.3,9.5-11.9
		c1.8-1.8,3.8-3.3,6.1-4.3c3.3-1.4,5.3-4,6.6-7.2c1.1-2.6,2.3-5.2,3.6-7.8c1.3-2.7,3.1-5.1,5.7-6.7c0.8-0.5,1.8-1.1,2.2-2
		c2.2-4.1,6-4,9.8-4c2.1,0,3.9,0.9,5.1,2.6c2.4,3.2,4.1,6.9,4.6,10.9c0.4,3.4,0.5,6.9,0.7,10.5c0.8,0.8,1.2-0.6,2.4,0.2
		c-1-2.6-0.7-4.6-1.3-6.6c-0.6-1.7-0.1-3.6,1-4.9c1.6-1.9,2.4-4,3.2-6.2c1.8-4.5,1.9-4.4,6.4-6.6c0.5-0.7,0.2-1.4,0.1-2.2
		c-1-4.5-0.8-4.9,3.2-7c1.6-0.8,1.6-0.8,2.4-3.6C466.8,208.7,468.6,208.2,470.3,207.9c1.6,5.2,1.5,5.3-7.3,8.9
		c-1,2.4,0.4,5.2-1.3,7.4c1.1,1.1,2.4,1.5,3.5,2.3c1.1,0.7,1.6,1.7,1.1,2.9s-1.6,1.5-2.8,1.3c-0.5-0.1,0.1,0-0.4-0.1
		c-2.2-0.4-4.9-3.2-6.4-0.8c-1.9,3.1-4.6,6.3-3.6,10.6c0.6,2.6-1.3,5.5,1.3,8c5.7-0.7,11.5-2.2,17.8-0.6c-0.8,2.3-2.1,2.9-3.9,2.8
		c2.9-0.3,3.2-0.5,3.9-3.2c1.3-5.5,4.7-9.8,8.5-13.7c1.8-1.8,4.1-2.7,6.7-2.9c2.4-0.1,3.5-1.4,3.5-3.9c-0.2-5.6,0.6-11.1,1.6-16.6
		c0.7-3.7-3.2-6.7-7.6-6.1c-4,0.6-7.1,3.1-10.8,4.4C472.5,209.1,471.3,209.5,470.3,207.9z"/>
	<path d="M824.2,344.3c8.4,2.5,13.4,8.7,17,16.2c4.4,9.3,6,19.1,5,29.4C844,372.2,840.6,355.3,824.2,344.3z"/>
	<path d="M384.8,347.5c8.9,2.6,14,9.3,17.5,17.2c4,9,5.6,18.4,4.4,28.3c-1.2-8.6-2.3-17.2-5.7-25.3
		C397.6,359.5,392.7,352.3,384.8,347.5z"/>
	<path d="M841.1,378.5c-3.3-6.6-6.2-13.4-10.7-19c1.2-1.4,2-1.2,2.5-0.3C836.4,365.3,839.5,371.6,841.1,378.5z"/>
	<path d="M401.8,381.7c-3.4-6.6-6.3-13.5-10.7-19.3c1-1,1.7-1.1,2.1-0.6C397,368,400.1,374.5,401.8,381.7z"/>
	<path d="M838,330c6.8,4.1,12.7,9.2,18.8,14.2c-0.2,0.3-0.4,0.5-0.6,0.8c-6.3-4.7-12.6-9.4-18.9-14C837.6,330.6,837.8,330.3,838,330
		z"/>
	<path d="M879.4,323.8c8.9,1.9,18,2.9,26.2,7.4C896.8,328.7,888.1,326.3,879.4,323.8z"/>
	<path d="M812.5,311.6c2.1-2.2,7.1-1.6,16.7,1.8C823.6,313.6,818.4,310.9,812.5,311.6z"/>
	<path d="M975.7,251.9c-1.9-0.6-1.4-3.4-3.9-3.8c1.3-3.7,4.5-6.2,6.4-9.4c-0.3,3.3-3.1,5.3-4.4,8C973.8,248.7,975.7,250,975.7,251.9
		z"/>
	<path d="M825.8,332.3c4.3,1.2,8.6,2.2,11.9,5.3C833.5,336.2,829.4,334.7,825.8,332.3z"/>
	<path d="M787.6,351.9c2.1-2,4.7-2.6,7.4-2.8C792.6,350.4,790.7,353,787.6,351.9z"/>
	<path d="M347.5,354.9c2.7-1.8,5.3-2.4,8.1-3.2C353.2,354.7,350.4,355.9,347.5,354.9z"/>
	<path d="M730,366.3c2.2,0.8,4.5,1.5,6.7,2.3c-2.7,0.5-4.7-0.9-7-1.5C729.8,366.8,729.9,366.5,730,366.3z"/>
	<path d="M297.2,372.2c-2.4-0.4-4.7-1.2-6.8-2.6C292.7,370.3,295.2,370.5,297.2,372.2z"/>
	<path d="M825.7,300c-2.1,0.6-4.4,0-6.6,1.9C820.7,298.9,821.2,298.8,825.7,300z"/>
	<path d="M888.9,344.9c-2.5-0.4-3.3-2.9-4.9-4.4C885.9,341.6,887.5,343.1,888.9,344.9L888.9,344.9z"/>
	<path d="M984,246.7c-1.7-1.2-2.4-3-3.1-4.8C982.8,243,983.4,244.8,984,246.7z"/>
	<path d="M792.8,340.3c-0.9,0.5-1.7,0.3-3.1,0C791.1,340,791.9,339.9,792.8,340.3z"/>
	<path d="M353.3,343.3c-0.7,0.5-1.6,0.5-2.4,0.2C351.6,342.8,352.4,343.4,353.3,343.3z"/>
	<path d="M870.9,364.4c-0.8-0.4-1.2-1-1.2-1.9C870.6,362.8,870.7,363.7,870.9,364.4L870.9,364.4z"/>
	<path d="M852,325.3c-1.4,0.3-1.9-0.2-2.5-0.6c0.3-0.7,0.7-0.5,1.1-0.4C851.1,324.6,851.4,324.9,852,325.3z"/>
	<path fill="#FFFFFF" d="M679.6,406.5c2-0.6,3.8-1.3,5.8-1.7c2.2-0.5,4.5-1.7,6.6,0.5c0.3,0.3,1,0.2,1.4,0.2
		c5.9-0.4,11.9,0.5,17.8-0.3c4-0.5,7.9,0.8,11.9,0.2c0.5-0.1,1.4,0.3,1.6,0.7c0.9,2.1,2.9,1.6,4.4,2.3c6.2,3,11-0.7,16.2-2.6
		c2.3-0.8,4.5-1.8,6.2-3.8c0.8-1,2.4-1.3,3.8-1.3c0.3,0.2,0.7,0.4,0.8,0.7c6.7,11.1,14.2,21.8,19.9,33.5c1.9,3.8,2.5,7.3,1.9,11.3
		c-1.4,9.8-2,19.5,1,29.2c0.6,2-0.5,3.9-1.2,5.7c-3.6,9.4-7.5,18.6-10.6,28.2c-0.6,1.8-1.9,3.2-3.3,4.4c-4.8,4.2-9.6,8.2-14.6,12.4
		c-3.8-2.2-8.1-2-12.3-2.6c-7.8-1-15.4-2.7-22.9-5c-1.3-0.4-2.4-0.2-3.6,0.2c-4.6,1.5-9.2,2.9-14,4.4c-1.3,2.4-2,5.2-4,7.6
		c-3.3-1.6-4.1-4.7-4.3-7.9c-0.3-3.9-0.7-7.7-2.8-11.1c-1.6-2.6-2.8-2.7-5.5-0.8c-2.1-7.1-2.3-14.5-3.1-21.7
		c-0.4-3.1-0.3-6.2-0.6-9.3c-0.4-5.9,0.6-11.5,2.9-17c4.7-11.5,6.7-23.3,3.1-35.6c-1.4-5-1.8-10.2-3.6-15.2
		C678.1,410.3,678.3,408.4,679.6,406.5z"/>
	<path fill="#FFFFFF" d="M720.2,394.1c-15.3,0.7-29.1,7.9-44.4,9.3c-0.3,2.7-2.9,3.8-3.4,6c1,1.3,1.8-0.6,2.7-0.1
		c3.5,10,6.2,20.2,6.5,30.8c0.1,3.4,0.1,6.9-1.8,10.3c-1.5,2.8-1.2,6.6-2.9,9.5c-3.9,6.9-3.4,14.3-3.2,21.7
		c0.2,6.3,0.6,12.7,1.4,18.9c0.6,4.7,1.1,9.3,3.8,14.1c-3.1-0.5-4.8,2.1-7.3,2c-2.2-2.6-0.7-5.7-2.4-9c-1.1,3.3-0.4,6-1.1,8.8
		c-6.4,0.2-11.9-3.3-17.6-4c-1.2-1.2-1.1-2.4-1.1-3.5c0.1-11.2-1.1-22.3-0.9-33.5c0.1-5.7-0.4-11.4-2-17c-2.9-9.6-4-19.4-5-29.3
		c-0.8-7.5-1.7-14.9-2.8-22.3c-0.7-5,0.1-9.9,1.1-14.8c0.5-2.4,0.7-4.6-0.1-6.9c-1-2.8,0.3-4.8,1.8-7.1c4.5-7.3,12.5-8.5,19.3-11.8
		c4-2,8.2-3.8,12.3-5.6c3.6-1.6,6.9-4.7,10.4-7.1c7-4.7,15-7,22.8-10c2.5-0.9,4.5,0.8,5.8,2.5c3.9,5.3,7.6,10.7,9.3,17.2
		c3,11.4,8.7,21,18.1,28.3c1,0.8,1.9,1.6,2.9,2.5c0,1.1,0,2.1,0,3.2c-3.6,4.3-39.1,7.2-48,3.7C702.9,398,711.7,396.8,720.2,394.1z"
		/>
	<path fill="#FFFFFF" d="M815,413.7c-2.5,0.1-2.2,2.2-2,3.6c0.5,4.3,1.8,8.5,2.5,12.7c1.1,6.4,4.4,11.8,6.4,17.7
		c0.9,2.5,1.3,5,1.1,7.7c-0.5,6.8-1.1,13.6-2.5,20.3c-1.3,6.1-1.5,12.3-2,18.5c-0.5,6.4-1.5,12.8-2.3,19.2
		c-1.2,9.5-0.6,18.8,1.6,28.3c-1.8,1.3-3.6,2.6-5.4,3.9c-2.1,0-4-0.2-5.1-2.3c-2-3.9-5.3-4.5-9.2-4c-0.7,0.1-1.5,0.1-2.4,0.2
		c-0.5-2.8,0.8-5.2,1.2-7.6c1-7,0.8-13.9-2.1-20.5c-3.6-8.1-4.4-17-8.1-25.1c-1.5-3.4-2.7-6.9-4-10.4c-3.7-9.2-2.7-18.8-1.8-28.3
		c0.5-5.7,0.2-11.4,0.5-17.1c0-0.9-0.6-1.3-1-1.9c-2.7-4.5-4.2-9.3-3.5-14.5c0.4-3.2,0-6.2-1.2-9.1c-0.9-2.2-1.5-4.5-1.9-6.8
		c-1.1-7,2.3-12.6,6.4-17.5c3.6-4.4,8.1-8,11.8-12.1c6.3-1.4,12.6-0.9,18.6-1.9c2.7,2.9,5.7,5.1,8.8,7c4.8,3.1,7.7,7.2,9.5,12.8
		c1.9,5.8,1,11.2-0.2,15.9c-4.1,5-7.7,9.4-11.4,13.9c1.5,0.7,2-0.7,2.9-0.3c0.6,0.3,0.6,0.1,0.4-0.4c1.2-2.4,3.6-3.6,5.5-5.4
		c-1.1,4.1-3.5,7.5-5.2,11.3c-0.6,1.4-2,2.6-4,1.8C814.6,420.3,813.5,417.2,815,413.7c0.3-0.4-0.3,0,0.1-0.2
		C815.2,413.4,815.2,413.5,815,413.7z"/>
	<path fill="#FFFFFF" d="M923.4,285.6c-1.4,0.7-1.2,2.2-2.3,2.7c-0.4-0.4-0.9-0.8-1.3-1.2c-1.1,1.3-0.6,2.6-0.2,3.6
		c-5,3.6-8.3,9.2-14.8,10.6c-0.9-3.4-1-6.9-0.4-10.6c0.4-2.5,1.7-4.6,2.8-6.8c2.5-5.1,5-10.2,8.3-15c2.3-3.4,5.4-5.8,9-7.7
		c1.5-0.8,2.9-1.7,3.5-3.2c5.4,1.4,10.2,3.8,15.4,5c3.2,0.8,6.4,7.8,5.3,11c-0.1,0.3-0.2,0.7-0.2,1.1c0.2,3.7-0.2,7.3-1,11
		c0.4,0.1,0.8,0.1,1.2,0.2c0.9-5.1,1.7-10.3,2.6-15.2c7.2,6.9,7.7,24.8,3.2,30.9c3.3,16,0.2,31.7-4.6,47.5c-1.1-0.6-0.1-2.9-2.1-3.3
		c-0.1,3.5,1.8,6.4,2.4,9.7c0.5,2.9,0.6,5.6,0.2,8.5c-0.8,5.4-2.2,10.6-2.6,16.1c0,0.6-0.2,1.2,0.5,2c1.8-3.3,0.6-7.2,3.1-10.8
		c0.1,6.8,0.4,12.9-0.1,19.1c-0.7,10-1.7,20-2.4,30.1c-0.8,10.8,0.4,21.6,3.5,32.1c1,3.3,1.9,6.7,2.8,10c-1.5,3.1-3.4,5.6-7.4,4.3
		c-0.6,1.1-1.1,2-1.7,3.1c-1.7,0.1-3.6-0.5-5.3,0.7c-1.1,1.1-0.3,2.7-0.9,4.2c-3.3-9.7-4.9-20.3-13.9-26.7c1.2-3.9,2.1-7.4,3.4-10.7
		c1.5-4,2.1-8.2,2.7-12.3c0.2-1.6,0-3.2-1.4-4.7c-1.9-2.1-1.9-5.2-1.9-7.7c-0.3-10.1-2.1-20-1.7-30.1c0.1-2.7,0-5.4,0.3-7
		c5.8-7,8.8-13.9,8.3-22.2c-0.6,7.2-5,12.5-8.4,18.2c-0.9,0-1.3-0.3-1.4-0.8c-0.1-0.7-0.2-1.5-0.2-2.2c0.8-10.9-1.2-21.6-2.6-32.3
		c-2-15.5-1.3-31,1.5-46.4C924.5,288.7,924.5,288.7,923.4,285.6z"/>
	<path fill="#FFFFFF" d="M825.6,449.3c-0.8-3.8-2.1-7.2-3.9-10.6c4.1-2.4,7.9-4.9,10.7-9c1.5-2.3,4.6-3.7,7.2-5.1
		c3.9-2.2,7.7-4.4,11.4-7.1c0.1,0.7,0.2,1.1,0.3,1.5c0.6,0.1,0.9-0.3,1.2-0.7c8.5-9.2,16.1-19.2,23.6-29.2
		c7.8-10.3,15.7-20.5,25.9-28.7c0.6-0.5,1-1.2,1.8-1.2c4.8,10.7,8.7,21.8,12.8,32.8c2.5,6.8,5.6,13.5,8.6,20.1
		c1.1,2.5,2.3,5,2.2,7.8c0,0.5,0,1,0.1,1.5c3.6,8.8-1.7,16.3-3.6,24.2c-0.1,0.3-0.4,0.6-0.6,0.9c-16-9.9-23.3-4.3-31.6,6.4
		c-4.6,1.2-9.7,1.5-13.6,5.1c-0.7,0.7-1.6,0.5-2.5,0.4C859.1,454.7,842.4,452.1,825.6,449.3z"/>
	<path fill="#FFFFFF" d="M782.1,558.4c0-1.6-1.3-1.6-2.4-1.8c-14.8-2.5-29.4-6.3-43.9-10c-13.8-3.5-27.8-6.3-41.5-10.1
		c-0.6-5.2,2.9-11,7.5-12.5c3.1-1,6.2-1.9,9.2-3.1c1.3-0.5,2.3-0.3,3.6,0c9.2,2.8,18.5,4.7,28.1,5.4c2.3,0.2,4.6,0.5,6.4,2.7
		c5.2-3.7,9.6-8.1,14.1-13.4c-1.6,5.5-5.9,8.9-6.8,14.6c3.7-2,4.4-5.5,6.6-7.9c0.8,1.6-0.8,3.1,0.3,5.3c5.6-15.9,11-31.4,17.5-47
		c3,7,6.8,13.3,8.7,20.4c0.4,1.7,0.5,3.5,1.3,5c3.7,7.1,3.1,14.7,2.8,22.2c-0.1,3.6,0.9,7.2,0.2,11c-2.9,0.8-5.9,1.6-7.6,4.7
		c-6-1.2-11.9-2.4-17.9-2.8c5.3,2.7,11.4,2.3,17,4.5c-0.2,1.9-0.1,3.9,1.7,5.3C785.2,553.7,783.6,556,782.1,558.4L782.1,558.4z"/>
	<path fill="#FFFFFF" d="M691.9,541c-2.8,5.2-7.4,7.1-12.3,8.2c-6,1.3-12,1.4-18.1,0.4c-1.2-0.2-2.5-0.2-3.7-0.1
		c-8.6,1-17.1,2.7-25.4,5.4c-6.8,2.2-14,3.2-21.1,4.6c-1.1,0.2-2.2,0-3.2-0.6c0.1-0.6,0.9-1,0.4-1.8c-5.9,0.1-11.4-1.1-13.5-7.7
		c-1-3-0.3-4.5,2.1-7.5c9.9-1.3,17.7-7.2,26.8-11c2.5,2.2,5.3,4.8,9,6c3,1,3.9,0.7,5.1-2.1c-0.8-2-3.5-1.2-4.6-3.1
		c3.8,0.1,8.1,2,10.4-2.8c2-0.4,4.3,0.6,5.7-2.3c-4.2-3.8-10-3.5-14.9-5.3c0-0.9,0.6-1.4,1.6-1.7c6.4,2.9,13.2,4.6,20.7,6.4
		c-1.1-3.6-3.5-3.9-5.4-4.7s-4-1.2-6-1.8c0.6-2.4,2-1.9,3.4-1.2c1.3-0.6,0.8-2.1,2.1-3.1c7.1,2.3,14.4,5.4,22.2,4.2
		c1.2,1.2,2,2.3,1,3.5c-1.3,1.5-2.9,2.9-5.1,2.6c-2.2-0.2-4.4-0.6-6.4,0.2c-3.7-2.3-4-7.7-8.8-8.4c-0.9-0.1-1.9-0.9-2.8,0
		c-0.4,1,0.1,1.6,0.8,1.8c3,0.8,4.7,2.7,6.2,5.4c1.2,2.2,3,4.2,5.3,5c1.5,0.1,1.2-1.4,2-1.6c7.5,2,12.3-0.1,16.8-14.2
		c1.5,1.6,1.7,3.6,1.9,5.5c0.7,5,1.9,9.6,5.2,13.7C691.4,535.3,690.4,538.7,691.9,541z"/>
	<path fill="#FFFFFF" d="M778.4,221.2c-0.7,4-1.6,8-2.1,12c-1.3,8.9,1.6,16.6,6.8,23.6c0.6,0.9,1.4,1.8,2.8,1.5
		c1.5,1.3,3.2,2.2,4.4,3.1c-1.3-0.8-2.9-1.9-4.5-3.1c-2.3-3.3-4.6-6.7-6.1-10.6c-1.2-3.3-1.6-6.5-1.4-9.8c0.5-7.7,1.4-15.2,5-22.3
		c3.3-6.4,5.4-8.4,12.5-8.5c5.5-0.1,10.2,1.6,14.6,4.7c1,0.7,1.8,1.6,2.5,2.8c3.6,6.4,6.4,13.1,8.1,20.3c0.9,3.9,0.6,7.7-0.7,11.4
		c-1.9,5.8-4.5,11.3-8.7,15.8c-3.7,4-8.6,4.6-13.3,4.3c-14.2-1.1-23.7-11.6-24.3-26C773.7,233.6,774.9,227.2,778.4,221.2
		L778.4,221.2z"/>
	<path fill="#FFFFFF" d="M892.5,480.5c-23.8,3.8-47.6,3.8-70.7,10.6c1.3-12.9,5.3-25.4,4.4-38.6c22,2.2,43,8.8,65.2,9.4
		C891.7,468.3,892.1,474.3,892.5,480.5z"/>
	<path fill="#FFFFFF" d="M909.6,204.8c2.2,0.5,3.9-0.8,5.5-1.9c2.7-1.8,5.5-3.3,8.8-3.7c0.8-0.1,1.4-0.4,1.7-1.5
		c1.8,1.6,3.8,2.7,6,3.3c3,0.8,3.4,2.3,2.6,5.4c-1.7,6-2.7,12.1-1.9,18.3c0.1,1,0.1,2-0.1,3c-0.5,1.9,0,3,2.1,3.8
		c1.4,0.5,1.9,2.5,4,3c-2.4,2.4-3.6-1.1-5.4-0.5c-2.5,1.3-5,2.7-7.4,3.9c0.5,5.7,6,3,8.6,5.6c-1.4,3.1-2,6.6-4,10
		c-6-1.2-12,0.8-18,0.1c-9.3-1.1-18,2.1-27,3.3c-3.6,0.5-7.1,0.8-10.7,0.9c-2.2,0.1-3.4-2-5.4-2c1.9-0.8,3.9-0.5,5.7-0.2
		c7.8,1.5,11.9-3.4,15.6-8.9c0.4-0.6,0.7-1.3,0.9-1.4c0.3-5.4-3.2-10.7,1.3-15.7c0.5-0.6,0.9-1.5,1-2.3c0.7-3.3,1.9-4.1,5-2.9
		c2.1,0.9,4.2,1.6,6.6,1.2c-3-0.6-5-3.8-8.6-3.5c3.6-1.4,4.7-4,4-7.6c-0.5-2.5,1.2-3.3,3.2-3.6c1.9-0.3,4-0.3,5.5-2
		c-1.2-1.1-2.3,0.1-3.5,0.1C906.5,206.9,909.3,206.9,909.6,204.8L909.6,204.8z"/>
	<path fill="#FFFFFF" d="M789,550.2c1.3-3.2,1-6.6,4.3-7.7c3.5-1.2,9.4-0.5,11.3,1c0,0.7-1.2,0.5-1.1,1.4c1,0.6,2,1.2,2.9,1.7
		c0.7,1.5,1,3,0.6,4.4c2.6,2.6,6.2,2.7,9.1,4.8c3.2-1.9,3.8-6.2,7.3-7.8c0.6,0.6,0.7,1.7,0.4,2.6c-1.9,5.1-0.3,10,1.9,14.2
		c2.1,4.1,1.7,7.5-0.1,11.2c-0.3,0.6-0.9,1.2-0.8,2c0,0.1,0.1,0.2,0.2,0.3c1.3,0.2,1.1-1.6,2.2-1.7c0.1,0.2,0.3,0.3,0.3,0.5
		c0,3.3-2.2,4.8-5,4.7c-4.6-0.2-6.8,2.5-9,6c-2.2,3.6-5.3,6.5-9.5,8c-10.2,3.6-20.6,5.3-31.4,4.8c-4.2-0.2-8-1.7-11.7-3.5
		c-2-1-1.8-2.7-1.7-4.4c0.6-1.1,1.8-1,2.6-1.4c1.2-0.7,2.8-1,3.5-2c2.9-3.8,6-7.4,11-8.9c1.8,0.7,3.9,2.3,6.5,1.9
		c0.9-0.1,1.7-0.5,2-1.8c-2.3-1.3-5.1-0.9-7.6-2.1c1.3-2.7,2.8-5,4.7-7.8c6.7,4.3,13.9,6.2,22,3.4c-1.3-3.2-5.7-1.2-5.6-4.9
		c2.4-1.4,5.6,2.4,7.8-0.6c0.4-1.7-1-2-1.6-3.1c2-0.5,3.5,1.8,5.4,1.1c0.9-1.6-0.9-2.8,0.1-4.2c0.5-1.1,1.9,0.5,2.6-1.4
		c-2.8-3.1-7.7-3.3-11.1-6.1C798.1,552,793.2,552.3,789,550.2z"/>
	<path fill="#FFFFFF" d="M928.3,501c0,0.8,1,0.5,0.7,1.3c-3.9,1.6-7.6,2-11.7,0.1c-6.4-3-12.4-6.2-16.7-12
		c-3.3-4.4-5.6-9.2-5.8-14.6c-0.3-6.2-0.5-12.4-0.1-18.6c0.1-2.1,0.6-3.8,2.1-5.3c1.1-1.1,2.1-2.4,3.2-3.6c3.7-4.5,7.9-5.4,13.4-3.5
		c6.8,2.3,12.7,5.9,16.5,12s6.3,12.8,6.6,20.2c0.1,2.7-0.2,5.5-0.2,8.2C936.1,491.6,933.9,497.3,928.3,501z"/>
	<path fill="#FFFFFF" d="M737.2,358.8c19-1.3,28.1,1.8,44.9,15.3c-1.4,1.4-2.8,2.8-4.2,4c-1.5,1.2-2.5,2.7-3.1,4.5
		c-3.1,8.3-4.9,16.6-1,25.1c1,2.2,1,4.7,0.9,7c-0.4,4.5,0.4,8.6,2.5,12.5c0.5,0.9,0.5,1.9,0.1,3.7c-5.8-12.3-13.4-22.6-20-34.4
		c1,0.5,1.5,0.8,2,1.1C752.1,384.7,741.2,373.9,737.2,358.8z"/>
	<path fill="#FFFFFF" d="M752.6,220.5c1.8-1.5,2.6-3.9,4.8-5.1c3.5-2,7.1-3,11-2c2.6,0.7,5.4,0.6,8.2,1.9c-2.4,5.1-3.3,10.6-5.4,16
		c-1.8-0.2-3.1,1-4.4,2.3c-1.6,1.6-3,3.5-4.8,4.9c-2.1,1.7-2.7,4-1.2,6.6c2.4,4.2,5.1,8.2,8,12.1c2.7,3.7,5.9,7.3,7.3,11.8
		c-11.4,5-22.1,1.5-28.9-9.6c-7.1-11.5-6.5-25.2,1.1-35.7c0.5-0.7,0.9-1.5,1.8-1.8c0.7,0.7,0.4,1.3,0,2c-4.9,9.4-4.6,19.2-1.8,29.1
		c0.4,1.6,1.1,3,1.4,4.5c0-0.1,0-0.1,0-0.1c-2.4-6.5-3.8-13.2-3.3-20.1C746.8,231.2,748.1,225.2,752.6,220.5z"/>
	<path fill="#FFFFFF" d="M969.4,447.8c-2.8-8.9-8.8-14.4-17.9-16.6c-0.2-0.5-0.4-1-0.5-1.5s0-1,0-1.3c0.3-0.6,0.7-0.6,1-0.5
		c9.4,3.4,16.9,8.7,20.2,18.8c1.7,5.1,3.5,10.1,4.8,15.3c2.4,9.3-1,16.8-7.2,23.4c-1.1,1.2-2.6,1.9-4.3,1.8c-4.3-0.3-8.9,0-12.9-1.5
		c-4.5-1.8-7.4-5.7-9.6-9.9c-0.6-1.1,0.2-2.1,1.4-2.2c1.1,0.2,0.1,1.2,0.9,1.6c0.3-0.1,0.6-0.2,0.9-0.4c2.4-1.9,4.8-4,7.2-5.9
		c2.1-1.7,3.5-3.6,3.8-6.5s1.8-5.7,0.1-8.6c-0.3-0.5-0.3-1.3-0.7-1.7c-5.1-5.4-3.7-12.4-5.7-19.3c5.6,1.8,10.1,3.5,13,8.1
		c1.5,2.5,2.9,5.2,5.1,7.3c3.5,4.2,4.2,9.3,4.6,14.4c0.3,3.8,0.5,7.6-0.2,10.6C974.5,464.9,974,456.1,969.4,447.8z"/>
	<path fill="#FFFFFF" d="M794.4,269c0.2,0.8,0.3,1.2,0.4,1.7c1.6,7.7,6.2,14,9.3,21.1c1.2,2.7,2.6,5.3,3.9,8.1
		c-0.8,2.4-1.5,4.9-1.5,7.5c0.1,4.5-2.2,7.1-6.3,7.7c-4.4,0.7-8.7,2-11.6,5.9c0.4-1.3-0.2-2.3-0.5-3.3c-3.1-11.9-5.3-23.9-6.2-36.2
		c-0.5-7.9-1.9-15.7-4.9-23.2C781.7,263.7,786.4,268.8,794.4,269z"/>
	<path fill="#FFFFFF" d="M782.1,366.6c-0.5,0.1-1,0.1-1.4,0.3c-0.7,0.3-1.3,0.7-2.2,1.2c-5.8-4.3-12.3-7.6-19.3-10
		c-6.8-2.3-13.9-2.8-21.5-2.3c2.8-5.8,5.3-11.1,12.4-13c9.2-2.3,17.1-0.6,24.5,4.9c2.7,2.1,6.1,3.5,7.4,7.3
		c-0.9,2.6-2.6,5.3-3.2,9.1c3.3-1.5,2.5-4.4,4-7.1C782.8,360.8,783.8,363.8,782.1,366.6L782.1,366.6z"/>
	<path fill="#FFFFFF" d="M881.3,357.5c-1.4-1.3-2.4,0.2-3.3-0.5c0.4-2.4,2.1-2.8,4.2-2.6c3.8,0.3,3.9,0.2,4.5-3.7c0.9,0,1.9,0,2.8,0
		c2.2,2.5,3.2,6.1,6.7,7.4c-2.2-3.2-4.4-6.4-6.8-9.8c4-1.9,7.8-3.7,11.6-5.5c2.3,2.2,4.8,4.1,6.4,7.2c-7.9,7.7-16.9,14.5-23,24.5
		c-3.6-2.8-7.5-4.7-10.5-7.4C874.6,362.3,878.1,360,881.3,357.5z"/>
	<path fill="#FFFFFF" d="M974.1,484.3c2.6-3.1,4.1-6.3,5.3-9.9c11.2,1.6,22.2,4,33.3,5.3c2.5,4.4,3.9,9,6.8,13.6
		C1004.4,488.7,989.4,487.5,974.1,484.3z"/>
	<path fill="#FFFFFF" d="M926.2,408c-8.2-16.4-12.6-34.3-21.2-50.5c2.3-1.6,3.3-3.6,4.4-5.7c2.1,4.3,4,8.4,6,12.5
		c2.5,5,4.6,10.2,7.1,15.1c1.4,2.7,2.2,5.4,2.4,8.5C925.3,394.5,925.2,401.3,926.2,408z"/>
	<path fill="#FFFFFF" d="M924.6,377.5c-5.2-8.8-9-18-12.9-27.3c1.7-2.8,3.7-5.3,6.2-7.7c2.7,4.2,5.1,8,5.2,13.5
		c0.2,5.8-1.2,11.9,1.5,17.6C925.2,374.5,924.6,376.1,924.6,377.5z"/>
	<path fill="#FFFFFF" d="M919.4,324.8c-3.3-1.6-6-2.9-7-6.5c-0.5-1.7-2-3.1-3-4.7c-2-3-3.6-6.2-4.1-9.8c4.2-2.9,9.5,1.7,13.6-2.7
		C918.5,309.4,918.5,316.9,919.4,324.8z"/>
	<path fill="#FFFFFF" d="M770.9,253.2c-0.6,0.1-1.2,0.2-1.9,0.3c-7.9-8.1-9.2-14,1.9-19.9c-0.2,7.9,0.8,15.4,4.7,22.4
		c-3.5-3-5.3-7.4-8.5-10.7C767.2,248.5,770.1,250.4,770.9,253.2L770.9,253.2z"/>
	<path fill="#FFFFFF" d="M912.7,344.3c-2.5-1.5-4.7-2.8-6.6-4.5c2.5-3.2,4.9-3.4,10-1.1c0.6-1.1-0.8-1.4-0.8-2.3
		c1.5-0.7,3-1.4,5.4-2.5C919,338.5,915.5,340.9,912.7,344.3z"/>
	<path fill="#FFFFFF" d="M642.4,515.4c-2.3,0.1-2.1,3.4-4.8,2.9c1.8-4.8,4.6-9,5.7-14.3c3,3.5,1.3,7.4,2.3,11.2
		c-1.1,1.2-1.3,4.2-4.6,3.6C641,517.5,642.6,517,642.4,515.4z"/>
	<path d="M750.8,260.6c-3-3.8-3.7-8.5-4.6-13c-1.9-9-0.6-17.6,3.8-25.8c0.9-0.5,1.8-1,2.6-1.5c-6.2,10.4-6.8,21.3-3.7,32.7
		C749.6,255.7,750.8,258,750.8,260.6L750.8,260.6z"/>
	<path fill="#FFFFFF" d="M950.9,426.1c-0.1-4-0.5-7.5,1.1-11.6c1.5,5,4.7,8.6,6.2,13.6C955.5,427.4,953.5,425.6,950.9,426.1z"/>
	<path fill="#FFFFFF" d="M904.9,340.9c2.4,1.6,4.5,3.1,6.6,4.6c-0.2,1.9-2.4,1.9-3.2,3.9c-1.5-3.1-3.8-5-6.1-6.7
		C903,341.6,903.9,341.3,904.9,340.9z"/>
	<path fill="#FFFFFF" d="M727.6,404.8c5-0.4,9.8-0.5,13.7-3.9C738.8,407.2,733.4,408.7,727.6,404.8z"/>
	<path fill="#FFFFFF" d="M815.5,552.5c-5.3-0.9-5.6-1.1-6-4.5c3,0.2,5.9,0.3,9-1.4C818.2,549.3,816.4,550.7,815.5,552.5z"/>
	<path fill="#FFFFFF" d="M802.7,332.8c-5-2.1-10.5-1.7-15.7-3C792.4,329.9,798.1,328.3,802.7,332.8z"/>
	<path fill="#FFFFFF" d="M836.1,423.5c1.5-4.8,4.6-7.7,8-10.4C841.9,416.8,840.7,421.1,836.1,423.5z"/>
	<path fill="#FFFFFF" d="M786.8,557.8c6.5,0.7,13.2,0.6,19.3,3.8C799.8,559.7,793.3,559.1,786.8,557.8z"/>
	<path fill="#FFFFFF" d="M890.8,459c-2.3,0.1-4.5,0-7.4-0.6c2.8-1.9,5.4-1.7,7.7-2.5C891.7,457.3,891.7,458.2,890.8,459z"/>
	<path fill="#FFFFFF" d="M770.9,253.3c2.8,2.8,5.8,5.4,5.8,9.6c-0.3,0.2-0.7,0.4-1,0.5C774,260,772.5,256.6,770.9,253.3L770.9,253.3
		z"/>
	<path fill="#FFFFFF" d="M927.8,237.8c1.4,0.1,1.8,1.2,2.9,1c1.1-0.1,0.3-1.6,1.3-1.8c0.7,0.4,0.1,1.5,1.4,1.9
		c1.6-0.6,3.5-1.2,5.6-1.9C936.9,240.4,931.2,240.9,927.8,237.8z"/>
	<path fill="#FFFFFF" d="M855.3,408.8c-2.3,3-5.4,5-8.6,6.8C848.7,412.2,851.8,410.3,855.3,408.8z"/>
	<path fill="#FFFFFF" d="M858.2,371.4c3.7,3.6,2.1,7.1,0.8,10.6C859,378.6,858.8,375.2,858.2,371.4z"/>
	<path fill="#FFFFFF" d="M782,366.7c2.3,1.6,0.9,3.9,0.9,6.1c-0.9-1.1-1.8-2.1-2.8-3.3C780.5,368.3,781.9,367.9,782,366.7L782,366.7
		z"/>
	<path fill="#FFFFFF" d="M795,555c-2.3,0.1-4.5,0.3-7.2-0.7C790.8,553,793,554,795,555z"/>
	<path fill="#FFFFFF" d="M778.4,221.3c0.3-2.6,1.7-4.7,3.5-6.7C780.7,216.8,779.5,219,778.4,221.3L778.4,221.3z"/>
	<path fill="#FFFFFF" d="M787.4,562.6c-1.5,0.8-1.5,2.5-2.5,3.7C784.8,564.5,784.8,562.8,787.4,562.6z"/>
	<path fill="#FFFFFF" d="M938,231.6c3.2,0.2,4.2,1.3,3.2,3.7C940.5,234.1,939.8,232.9,938,231.6z"/>
	<path fill="#FFFFFF" d="M678.2,517.6c-0.2,1.3-1.2,2-1.9,3.2C675.9,518.8,675.9,518.8,678.2,517.6z"/>
	<path fill="#FFFFFF" d="M923.4,195.4c-1.3-0.7-3.2-0.7-3.3-3.1C922.3,192.4,922.5,194.3,923.4,195.4z"/>
	<path d="M820.8,415.4c0.7-0.1,1.3,0.1,0.9,0.9c-0.7,1-1.4,2.1-2.9,2.4c-0.1-1.4,1.3-1.8,1.6-2.8
		C820.5,415.7,820.6,415.5,820.8,415.4z"/>
	<path fill="#FFFFFF" d="M923.9,189c1.7,0.9,1.5,2.5,2.1,4.5c-2.2-1.2-1.9-2.9-2.3-4.3L923.9,189z"/>
	<path fill="#FFFFFF" d="M942,479c-1,0.3-1.6,0.4-2.3,0c-0.2-0.9,0.4-1.3,1.1-1.6C941.7,477.4,941.7,478.2,942,479z"/>
	<path fill="#FFFFFF" d="M950.4,229.2c1.2,1.2,0.8,2.1,0.5,3C949.4,231.2,950.4,230.4,950.4,229.2z"/>
	<path fill="#FFFFFF" d="M633.6,526.7c-1.5,0.3-2.5,0.1-3.5-0.8C631.5,525.1,632.3,526,633.6,526.7z"/>
	<path fill="#FFFFFF" d="M628.6,529.7c-1-0.3-1.6-0.5-2.3-0.7C627.3,527.8,628,527.6,628.6,529.7z"/>
	<path fill="#FFFFFF" d="M937,243.9c0.5,1.4-0.5,2.1-1,3.4C935.4,245.7,936.3,244.9,937,243.9z"/>
	<path fill="#FFFFFF" d="M916.1,196.4c1.1-0.8,1.5-1.1,1.9-1.4c0.6,0.4,0.7,1,0.2,1.3C917.9,196.6,917.4,196.4,916.1,196.4z"/>
	<path fill="#FFFFFF" d="M810.6,336.3c0.4,0.1,1,0,1.2,0.2c0.3,0.3,0.3-0.2-0.1,0c-0.3,0.2-0.8,0-1.2,0
		C810.6,336.4,810.6,336.4,810.6,336.3z"/>
	<path fill="#FFFFFF" d="M755.7,394.2c0.5,0.1,0.9,0.4,0.9,1C755.8,395.3,755.9,394.6,755.7,394.2z"/>
	<path fill="#FFFFFF" d="M789.4,366.5c0.4,1-0.2,1.5-1.1,2C788.4,367.5,788.9,367,789.4,366.5L789.4,366.5z"/>
	<path fill="#FFFFFF" d="M919.9,339.1c1.2,0.3,0.8,1,0.9,1.7C919.8,340.4,919.8,339.9,919.9,339.1z"/>
	<path fill="#FFFFFF" d="M944.5,228.3c-0.6-0.1-1.2-0.6-0.9-1.1s0.8-0.1,1,0.4C944.7,227.8,944.5,228,944.5,228.3z"/>
	<path fill="#FFFFFF" d="M948,231.8c-0.5-0.2-0.6-0.6-0.4-1.1C948.4,230.8,948.3,231.3,948,231.8z"/>
	<path fill="#FFFFFF" d="M257.2,526.3c-1.2,2.5-2,5.3-4,7.6c-3-1.8-4-4.7-4.2-7.8c-0.2-3.7-0.6-7.4-2.5-10.8c-1.7-2.9-3-3.2-5.8-1.4
		c-1.9-7.2-2.2-14.5-3.1-21.8c-0.3-3-0.3-5.9-0.5-8.9c-0.4-5.9,0.5-11.5,2.8-17.1c4.8-11.6,6.8-23.5,3.2-36
		c-1.4-4.8-1.8-10-3.5-14.8c-0.7-1.9-0.5-3.9,0.8-5.8c2-0.6,4.1-1.4,6.3-1.9c1.9-0.4,4-1.4,5.9,0.5c0.5,0.5,1.7,0.3,2.5,0.3
		c4.1,0.2,8.2,0,12.2-0.1c5.1-0.1,10.1,0,15.2,0c1.5,0,3-0.2,3.6,1.7c0.1,0.3,0.5,0.7,0.7,0.7c4.1,0.1,7.9,3.3,12.2,0.9
		c1.8-1,3.8-1.8,6.3-1.8c-1,5.1-0.7,10-0.6,14.9c0.3,10.9,7.1,19.8,17.7,22c5.3,1.1,10.7,2.6,16.3,0.4c0.5,3.1-0.4,6-0.6,8.9
		c-0.6,7.4-0.5,14.7,1.7,21.8c0.6,2-0.3,3.7-0.9,5.4c-3.7,9.7-7.8,19.3-10.9,29.3c-0.6,1.8-2,3.2-3.4,4.4c-4.7,4.1-9.4,8-14.3,12.2
		c-3.5-1.8-7.3-1.9-11.1-2.4c-8.3-1-16.4-2.8-24.4-5.2c-1-0.3-1.9-0.3-2.9,0C267,523.3,262.1,524.8,257.2,526.3z"/>
	<path fill="#FFFFFF" d="M520.6,458.7c0.3,0.2,0.5,0.4,1.3,1c-0.8-3.4-2-6-3.7-8.4c-7.1-10.4-12-22-16.3-33.8
		c-3.9-10.8-9-20.9-14.4-31c-4-7.5-7.7-15.3-11.1-23.2c2.3-2.6,4.6-5.2,7-7.9c3.9,8,6.8,16.4,11.2,24c7.7,13.2,12.3,27.8,19.2,41.4
		c3.4,6.7,6.1,13.5,8.7,20.5c1.2,3.2,1.4,6.5,2.5,9.7c1.7,4.7,3.7,9.2,6,14c-4.1-0.1-7.6,1.1-11,2.5l-0.2-0.1
		c-1.7-3-4.8-3.6-7.7-4.4c-8.4-2.4-17.1-2.6-25.7-3.6c-7.8-0.9-15.4-2.7-23.2-3.6c-6.9-0.8-13.6,0-20.1,2.4
		c-0.5,0.2-1.1,0.2-1.4,0.6c-3.6,3.7-7.6,2.3-11.8,1.4c-14.5-3-29.1-5.1-43.8-7.7c-0.9-3.7-2.2-7.2-4-10.7c4.2-2.3,7.8-4.8,10.5-8.8
		c1.7-2.5,5-4,7.8-5.6c3.7-2,7.3-4.1,10.5-6.6c1.1,0.2,0,1.2,1.3,1.4c14.4-16.1,26.9-34,40.9-51.4c4.4,2.4,9.5,2.3,14.7-0.5
		c2,5.2,3.9,10,5.6,14.8c5.2,15.2,11.2,29.9,19.9,43.5c1.7,2.7,3.1,5.6,3.8,8.8c0.6,2.7,1.8,5.1,3.1,7.6c2,3.8,4,7.7,5.1,11.9
		c0.5,2,1,4.4,3.8,4.8c0.2-0.5,0.6-0.9,0.5-1.1c-2.5-5.7-4.1-11.7-7.5-17c-0.7-1.1-1.5-2.4-1.7-3.7c-1.7-8.1-6.3-14.8-10.5-21.6
		c-2-3.3-3.6-6.8-5.2-10.3c-5.5-12.2-9.4-25.1-14.7-37.6c1.7-1.4,3.5-2.6,4.8-4.9c1.9,4.3,3.6,8.2,5.4,12.1
		c4.3,9.2,10,17.8,13.7,27.3c2.6,6.7,5.2,13.4,7.8,20.1c4.5,11.6,9.9,22.7,17.2,32.8C519.1,458.7,519.5,459,520.6,458.7z"/>
	<path fill="#FFFFFF" d="M302.9,397.4c0,1.3,0,2.3,0,3.2c-4.7,4.5-39.1,7.2-48,3.7c8.6-3.3,17.5-4.4,26.8-7.1
		c-2.9-1.1-4.8-0.1-6.8,0.3c-0.8,0.2-1.6,0.9-2.4,0.9c-9.9,0.2-18.5,5.3-28,6.9c-0.7,0.1-1.5,0.7-2.2,0.5c-5.8-1.4-7,3.4-9.4,6.5
		c1.1,1.4,1.9-0.3,2.8,0c3.6,10.1,6.3,20.4,6.6,31.2c0.1,3.3-0.1,6.6-1.7,10c-1.6,3.3-1.5,7.6-3.5,10.9c-3.4,5.7-2.9,12-2.8,18.1
		c0.1,7.4,0.5,14.9,1.7,22.3c0.7,4.3,1.2,8.6,3.6,13c-3.2-0.9-4.6,2.8-7.5,1.7c-1.8-2.4-0.5-5.4-1.9-8.5c-1.5,2.9-0.5,5.7-1.3,8.5
		c-6.3,0.4-11.8-3.3-17.6-3.9c-1.6-1.7-1.1-3.5-1.1-5.2c-0.5-12.9-0.9-25.8-1.3-38.7c-0.1-4.4-1.2-8.6-2.4-12.8
		c-2.7-9.4-3.4-19-4.5-28.7c-0.8-6.7-1.5-13.4-2.5-20.1c-0.8-5,0.1-9.9,1-14.8c0.5-2.5,0.7-4.9-0.1-7.3c-0.9-2.8,0.5-4.7,1.9-7
		c4.6-7.4,12.9-8.4,19.6-11.9c3.8-2,8-3.6,11.9-5.4c3.6-1.7,6.9-4.7,10.4-7.1c7-4.7,15-7,22.8-9.9c2.3-0.9,4.3,0.7,5.5,2.3
		c4,5.2,7.7,10.7,9.4,17.2c3,11.5,8.8,21.3,18.3,28.6C301,395.8,301.9,396.6,302.9,397.4z"/>
	<path fill="#FFFFFF" d="M478.6,357c-3.6,5.7-8.3,10.1-14.9,12.3c-5.2,1.7-12.3-2.5-13.5-8c-0.3-1.4-0.7-2.7-1.4-3.8
		c-6-8.8-7.1-19.1-8.2-29.2c-0.6-5.3-1-10.6-0.6-16.2c1.3,1.5,1,3.3,1.7,4.9c-0.4-6.5-0.7-13-2.8-19.3c-1.2-3.6-1.6-7.5-0.7-11.3
		c0.5-2.2,0.7-4.5,0.1-6.7c-1.2-5-1.5-10-1.5-15.1c0-2.8,0.4-5.1,2.1-7.3c1.3-1.7,2.4-3.5,3.4-5.3s2.4-2.4,4.6-1.5
		c-0.8,3.1-2.1,6.2,0.5,9.7c1.1-2.3,0.5-4,0.8-5.6c0.4-1.7,0.9-3.2,3-3.1c2.4,0.1,2.7,1.7,2.6,3.7c-0.1,1.5-0.4,3.2,0.6,5
		c2.2-2.5,0.9-5.1,1.1-7.4c4.2-1.7,4.2-1.7,7.2,0.4c-0.3,3.1-2.1,6.3-0.3,9.5c1.4-0.1,1.3-0.9,1.3-1.6c0-0.6-0.2-1.2-0.1-1.9
		c0.1-1.8,0-3.9,2-4.9c1.9-0.9,3.1,0.9,4.8,1.6c-3.1,7.3-4.4,14.8-4.9,22.7c-5.3,2.6-5.9,7-5.3,12.4c0.7,7.1,3.6,13.4,6,19.9
		c1,2.7,0.2,5.6,1.9,8c0.3,0.5,0.4,1.2,1.1,1.3c0.8-0.3,0.1-1,0.6-2c2.4,5.1,7.1,7.8,10.3,11.9c2,2.5,3.4,5.1,3.1,8.5
		c-0.2,1.8,0.1,3.7,0.2,5.8c2.9-6.5,1.6-13.5-3.3-18.5c-1.7-1.7-3.5-3.1-5.3-4.7c-4-3.7-5.8-8.6-7.3-13.6
		c-2.1-7.2-5.5-14.1-5.4-22.2c0.6-0.7,1.5-1.8,2.7-3.3c0.8,5.5,1.5,10.5,4,15c1.6,3,5.1,5.3,7.9,4.4c3.9-1.2,8.1-2.2,10.8-6
		c2-2.7,3.8-5.5,5.5-8.4c1.7-2.8,2.4-5.9,3.5-9.1c1.6,0.1,3.2,0.3,5.5,0.5c-3-3.1-1.3-6.2-2-9c1.3-1.2,2.5-1.7,3.8-0.6
		c1.6,1.3,1.1,5.4-0.9,8.9c3-1.6,4.8-4.4,4.3-7.2c-0.8-4.3-3.7-6.1-8-5.6c-0.1-0.7-0.2-1-0.2-1.4c0.2-3.4,0.5-6.9,0.7-10.2
		c1-0.8,1.8,0.5,3.1-0.4c2.8-4,6.4-8.6,10.8-11.3c5.6-3.5,5.3-9.2,8.1-14.3c4.9,0.4,10.3,1.1,15.6,2.1c0.5,0.1,1.1,0.4,1.7,0.5
		c5.1,1.1,5.8,2.7,3.8,7.6c-0.3,0.7-1.1,1.4-0.6,2.8c1.8-1.8,2.4-4,3.2-6.4c2.8,3.6,3.3,7.7,4,11.8c0.3,1.8-0.9,3.1-1.8,4.4
		c-3.6,5.6-7.2,11.3-11.4,16.5c-3.8,4.7-7.3,9.8-10.9,14.6c-0.7,1-1.2,2.1-2.4,2.8c-1.3-1.3-1.3-3.4-3.1-4.8c0.3,2.4,1.7,4,2.3,6.3
		c-3.5,4.4-5.6,9.9-9.5,14.3c-6.8,7.6-13,15.6-19.2,24.2c-0.6-8.4,1.9-15.6,5.3-22.6c1.7,1.1,1.8,3,3.4,4c-0.1-2.9-3.4-4.7-2.4-7.9
		c0.8-2.6,0.6-5.5,3.7-7c1,0.6,1.3,2.2,3,2.6c-0.4-1.5-1.7-2.5-1.8-4.1c1.4-2.3,3.6-3.9,5.6-6.2c2,2.9,3.9,5.7,5.8,8.5
		c0.2-0.1,0.5-0.3,0.7-0.4c-1.7-3.2-2.7-6.9-5.7-9.8c-4.4,1.9-6.7,6-10.2,9c-1.1-3.8,0.5-8.5-4.3-11c-0.4,2.3-0.3,4.4,0.4,6.4
		c1.8,4.5,1.4,8.9-0.4,13.3c-4.5,11.1-6.6,22.9-7.4,34.8c-0.3,5-2.7,9.2-4.1,13.8C483.7,351.1,481.7,354.4,478.6,357
		c-0.9-0.7-1.9,0.2-2.5-0.1C476.7,357.1,477.7,356.4,478.6,357z"/>
	<path fill="#FFFFFF" d="M381.4,418.5c1.2-2.4,3.6-3.6,5.5-5.4c-1.1,4.1-3.4,7.6-5.3,11.2c-1.5,3-3.4,2.4-5.4-0.3
		c-1.9-2.5-1.1-4.8-0.7-7.3c0.1-0.1,0.2-0.2,0.2-0.2c0.1,0,0,0-0.1,0.2c-2.5,0.1-2.2,2.2-2,3.6c0.5,4.2,1.7,8.3,2.4,12.4
		c1.3,6.8,4.8,12.7,6.9,19.1c0.8,2.4,0.8,4.9,0.7,7.4c-0.5,7.6-1.7,15-3,22.5c-1.6,9.5-1.6,19.3-3.1,28.9
		c-1.6,10.1-1.9,20.3,0.1,30.4c0.2,1.2,0.5,2.4,0.8,3.8c-1.8,1.3-3.5,2.5-5.4,3.9c-2.1,0-4-0.2-5.1-2.3c-2-3.9-5.3-4.5-9.2-4
		c-0.7,0.1-1.5,0.2-2.4,0.2c-0.5-2.8,0.8-5.2,1.2-7.6c1-7,0.8-13.9-2.1-20.5c-3.6-8.2-4.5-17.3-8.2-25.5c-1.5-3.3-2.6-6.7-3.9-10.1
		c-3.7-9.2-2.7-18.8-1.8-28.3c0.5-5.7,0.2-11.4,0.5-17.1c0-0.9-0.6-1.3-1-1.9c-2.7-4.5-4.2-9.3-3.5-14.5c0.4-3.2,0-6.2-1.2-9.1
		c-0.9-2.2-1.5-4.4-1.9-6.8c-1.1-7,2.3-12.6,6.4-17.5c3.6-4.4,8.1-8,11.8-12.1c6.3-1.3,12.5-1,18.6-1.8c2.6,2.8,5.6,5,8.8,7
		c4.6,3,7.6,7,9.4,12.4c1.9,5.9,1.3,11.4-0.1,16.2c-4.1,5-7.6,9.4-11.3,13.9c1.5,0.7,2-0.7,2.9-0.4
		C381.5,419.2,381.6,419,381.4,418.5z"/>
	<path fill="#FFFFFF" d="M427.6,289.3c3.7-0.4,5.9-3.3,9.3-6.2c-1.9,9.9,1.5,18.8,0.8,28.1c-1.2,1.7-3.6,2.3-4.8,4.4
		c2.1,0.4,3-1.8,5.1-1.8c0.3,9.9-0.2,19.9,2.6,29.6c-3.1,1.9-6.3,3.6-9,6.5c-2.3-3.1-4.5-5.9-8.1-7c1.9,2.9,3.9,5.9,6,9
		c-1.2,1.2-3.2,1.2-4.3,2.6c-1.3,1.6-0.3,3.3-0.1,4.9c-1.8,0-1.5-1.9-2.7-2.1c-1,0.7,1,1.7-0.4,2.7c-2.4-3.1-4.7-6.5-8.2-8.6
		c1.9,3.6,5.6,6.1,6.9,10.3c-2.9,0.4-1.2,3.7-3,5.5c-0.1-2.7-1.3-4.8-2.8-6.7c-5.2-6.6-10.3-13.7-17.4-18.2
		c-4.3-2.8-9.5-5.3-15.3-4.9c-3.5,0.3-7,0.2-10.3-0.9c-1.8-0.6-3.3,0.8-5.4,0.4c-1.7-6-6.9-6.4-12-6.5c-4.6-0.2-9.1,0-14,0
		c1.3-1.3,2.8-1.5,4.3-1.7c8.3-1,16.3-3.1,24.1-6c1-0.4,2.1-0.7,3.5-2.3c-8.5,2.4-16.1,4.6-24.8,6.2c6-2.9,9.7-6.9,12.6-11.8
		c1.9-3.3,4.7-5.5,8.1-7.3c6.5-3.4,11.7-8.3,14.2-15.6c-4.1,6.4-8.7,12.1-16,14.9c-0.8-0.8,0.1-1.3,0.5-1.8
		c3.6-5.6,7.5-10.9,9.4-17.6c1.2-4.1,4.8-7.3,8.5-9.6c6.2-3.9,11.6-8.3,15.2-14.9c1.6-2.9,4.2-5.2,6.1-8c1.2-1.8,2.7-2.5,4.8-2
		c1.8,1.2,1.4,3,1.1,4.7c-1.3,7.9-0.2,15.6,2.4,23.1c1,2.9,2.4,5.4,4.5,7.6C421.7,291.2,423.8,291.5,427.6,289.3L427.6,289.3z"/>
	<path fill="#FFFFFF" d="M342.8,561.6c0-1.6-1.3-1.6-2.4-1.8c-14.8-2.5-29.1-7.5-44-9.7c-1.3-0.2-2.7-0.6-3.9-1.1
		c-10.8-4.3-22.5-5.1-33.6-8.3c-1.3-0.4-2.6-0.6-3.9-1c-0.6-5.3,2.9-11,7.5-12.5c3.1-1,6.2-1.9,9.2-3.1c1.3-0.5,2.3-0.3,3.6,0
		c9.2,2.8,18.5,4.7,28.1,5.4c2.3,0.2,4.6,0.5,6.4,2.7c5.3-3.7,9.6-8.1,14.1-13.4c-1.6,5.4-5.9,8.9-6.4,14c3.1-1.6,4-4.8,6.1-7.4
		c0.8,1.8-0.8,3.2,0.2,5.5c5.6-16,11-31.5,17.6-47.1c3,6.9,6.6,13.1,8.6,20.1c0.8,3,1.3,6.1,2.7,8.9c1.9,3.7,1.5,7.7,1.6,11.7
		c0,5.9,0,11.9,0,18.2c-2.9,0.8-6,1.6-7.6,4.7c-6.1-1.4-12-2.4-17.9-2.8c5.3,2.7,11.3,2.3,17,4.5c-0.3,2,0,3.9,1.6,5.4
		C345.9,556.8,344.3,559.2,342.8,561.6L342.8,561.6z"/>
	<path fill="#FFFFFF" d="M234,522.5c1.8,3.4-0.3,6.3-4.2,6.1c-2.1-0.1-4.2-0.5-6.4,0.3c-3.8-2.7-4.7-9.7-11.6-8.5
		c0.1,0.6,0.1,1.2,0.2,1.2c4,1.3,6.1,4.6,8.4,7.9c1,1.4,2.2,2.7,4,3.2c1.4,0.4,1.1-1.4,2.5-1.8c6,2.7,9.7-0.7,12.9-5.6
		c1.3-2.1,3-4,2.5-6.8c-0.1-0.7,0.3-1.2,1.1-1.6c1.3,1.8,1.5,4,1.9,6.2c0.8,4.5,1.8,9,4.9,12.7c2,2.3,1.1,5.7,2.6,8.2
		c-2.5,5-6.8,7-11.6,8.1c-6.1,1.5-12.3,1.6-18.5,0.6c-1.3-0.2-2.7-0.3-4.1-0.1c-8.6,1-17.1,2.7-25.4,5.4c-6.8,2.2-14,3.1-21.1,4.6
		c-1,0.2-2-0.1-2.9-0.5c-0.6-0.7,1-1.2,0.1-2c-5.3,0.5-10.1-1-12.8-5.9c-1.8-3.3-1.2-6.7,1.4-9.1c10.1-1.4,17.9-7.2,27-11.1
		c2.6,2.4,5.6,5,9.5,6.2c2.8,0.9,3.6,0.5,4.7-2.3c-0.9-1.9-3.5-1.1-4.5-3.1c3.7,0.1,7.9,2,10.3-2.6c1.8-0.7,4.3,0.7,5.8-2.5
		c-4.3-3.7-10-3.5-14.9-5.2c0-1,0.8-1.4,1.5-1.8c8.2,3.6,18,6.2,20.9,5.3c-3-4-7.8-3.6-11.6-5.5c0.8-1.7,1.9-2.3,3.4-1
		c1.4-0.6,0.7-2.2,2.3-3.1C218.9,520.7,226.2,523.8,234,522.5z"/>
	<path fill="#FFFFFF" d="M385.6,581.5c1.3,0.2,1.1-1.6,2.2-1.7c0.1,0.2,0.3,0.3,0.3,0.5c0,3.1-2,4.8-4.7,4.6
		c-5.1-0.2-7.3,2.9-9.7,6.6c-2.2,3.4-5.3,6.1-9.4,7.5c-10,3.3-20.2,5.1-30.7,4.7c-4.3-0.2-8.2-1.6-12-3.5c-2-1-1.9-2.7-1.7-4.4
		c0.6-1.1,1.8-1,2.6-1.4c1.3-0.7,3.1-0.9,3.8-2.2c2.6-4.3,6.5-6.8,11-8.9c4.9,2.8,6.2,2.9,8.1,0.2c-1.1-1.1-2.6-0.4-3.8-1
		c-1.1-0.5-2.5-0.1-3.7-1.2c1.4-2.4,2.9-4.8,4.6-7.7c6.9,4.3,14,6.3,22.1,3.5c-1.2-3.2-5.7-1.1-5.6-5c2.4-1.4,5.6,2.4,7.8-0.6
		c0.4-1.7-1-2-1.6-3.1c2-0.6,3.5,1.8,5.5,0.9c0.5-1.4-0.8-2.7,0.2-4.6c0.3-0.4,1.6,0.9,2.4-0.7c-2.9-3.2-7.8-3.4-11.2-6.1
		c-3.4-2.8-8.2-2.8-12.1-4.3c-0.1-2.3,0.7-3.8,1.2-5.3c0.7-1.9,1.9-3,4.2-2.9c2.2,0.1,4.5-0.2,6.7-0.4c1.3-0.1,2.5,0.1,3.1,1.4
		c0,0.8-1.2,0.5-1.1,1.5c1,0.6,2,1.2,2.9,1.7c0.9,1.5,0.8,3,0.8,4.5c2.5,2.5,6.1,2.6,9,4.6c3.2-1.9,3.8-6.2,7.2-7.7
		c0.6,0.6,0.7,1.7,0.4,2.6c-1.9,5.1-0.3,10,1.9,14.2c2.1,4.1,1.7,7.5-0.1,11.2C385.8,579.9,385,580.5,385.6,581.5z"/>
	<path fill="#FFFFFF" d="M297.9,362c17.8-3,31.8,4.3,44.9,15.2c-1.5,1.4-2.9,2.8-4.3,4.1c-1.5,1.2-2.4,2.7-3.1,4.5
		c-3.2,8.3-4.8,16.6-1,25.1c1,2.3,1.1,4.9,0.9,7.4c-0.4,4.2,0.4,8.1,2.4,11.8c0.5,1,0.9,2,0.1,3.7c-5.7-11.9-13.2-22.3-19.8-34
		c1,0.5,1.5,0.8,2.9,1.5C312.8,387.9,301.9,377,297.9,362z"/>
	<path fill="#FFFFFF" d="M470.3,207.9c2.2,0.5,3.9-0.8,5.5-1.9c2.7-1.8,5.5-3.3,8.8-3.7c0.8-0.1,1.4-0.4,1.7-1.5
		c1.8,1.6,3.8,2.7,6,3.3c3,0.8,3.4,2.3,2.6,5.4c-1.7,6-2.7,12.1-1.9,18.3c0.2,1.5,0,3-0.6,4.4c-1.1,0.7-2.2,0.1-3.3,0.1
		c-3.7,0.1-6.7,1.4-9,4.4c-3.8,4.9-7.1,10.2-9.2,16.5c-2.6-1.7-6-0.4-8.3-3.4c2.8-0.4,5.3-0.8,8-1.2c-4.4-1.3-10.5-0.5-15,2
		c-1.7-1.1-3.8-1.2-5.9-1.8c0.6-1.4,1.9-0.1,2.7-1c-0.2-0.8-1.2-1.4-1-2.6c0.2-2.1,0.3-4.3-0.5-6.5c-0.4-1.1-0.2-2.4,0.6-3.6
		c1.3-1.9,2.8-3.6,2.8-6.3c0-1.8,2.4-2.5,5-1.4c2.1,0.9,4.2,1.8,6.9,1.5c-3.1-2.2-6.4-3.6-9.4-3.7c4.2-1.5,5.2-4.1,4.5-7.7
		c-0.5-2.5,1.2-3.3,3.3-3.6c1.9-0.3,3.9-0.5,5.6-1.9c-1.3-1.2-2.4,0-3.6,0.1C467.2,210,470,210,470.3,207.9L470.3,207.9z"/>
	<path fill="#FFFFFF" d="M439.1,251.7c-1.3,2.6-0.9,6.1-4.1,7.8c-0.4,0.2-0.7,1.4-0.5,2c1.5,5.3-1,10.8,1.2,16.1
		c0.7,1.7-0.4,3.3-1.4,4.8c-1.7,2.8-4.5,4.6-6.8,6.8l0.1-0.1c-7.2,0.4-10.2-3.9-11.9-10.1c-1.6-5.8-2.1-11.5-1.3-17.6
		c1.1-8.3,2.7-16.3,6.5-23.9c2.5-5.2,7.1-8.6,10.4-13c0.9-1.2,2.6-0.3,3.8-1c0.5,0.8,0.9,1.4,1.3,2.1c-2,2.2-3.8,4.3-5.8,6.4
		c-1.5,1.6-3,3.3-4,5.3c-5.6,10.8-8.7,22.3-9.2,34.5c-0.1,2.1,0.5,4.2,1.4,6.1c0.7,1.4,1.3,2.8,1.5,4.5c0.3,2.3,2,3.6,4.5,3.6
		c-5.1-6.2-6.9-13.2-5.4-20.9c0.9-4.5,2-9,3.1-13.4c2.6-9.9,8.3-17.9,15.4-25.2c8.9,4.3,6.7,12.7,7.8,20.3
		C442.2,246.8,441.1,249.9,439.1,251.7c-4.4-0.7-5.2-0.2-6.4,4.4C433.9,251.6,434.6,251.1,439.1,251.7z"/>
	<path fill="#FFFFFF" d="M496.1,263.3c-2.7,0.3-5.1-2.5-7.9-0.5c-1.3,0.9-2.4,1.8-2.9,3.2c-1,2.7-0.1,5.2,1.5,7.4
		c1.6,2.2,4.6,2.1,7.1,3.9c-2.5,8.1-6,15.6-13.4,20.6c-4.1,2.7-8.9,1.7-10.7-3.7c-2.7-8.1-3.1-16.3-1-24.5c1.2-4.9,2.7-9.8,4-14.7
		c1.9-7.2,6.1-13,10.7-18.5c2.5-2.9,6.7-2.8,9.6,0c1.4,1.4,2.8,2.9,3.3,4.9c1.3,5.2,2.8,10.5,0.9,15.9
		C496.6,259.1,496.5,261.2,496.1,263.3z"/>
	<path fill="#FFFFFF" d="M316.3,403.7c1.8,2.2,3.1,4.5,3.7,7c-2.9,3.2-3.6,7.3-1.9,10.4c2,3.4,4.3,4.1,10.8,2.9
		c1.2,1.9,2.5,3.9,3.6,5.9c1.8,3.4,3.4,6.8,5,10.2c-5.4,5.3-11.2,6.3-17.5,2.9c-12-6.6-13.9-15.8-12.3-27.7c0.3-1.9,0.6-3.9,1.3-5.8
		C310.3,406.2,312.4,404.2,316.3,403.7z"/>
	<path fill="#FFFFFF" d="M342.8,369.7c-1.3,0.1-2.4,0.7-3.6,1.6c-5.9-4.4-12.4-7.7-19.3-10c-6.8-2.3-13.9-2.8-21.7-2.4
		c3.1-5.3,4.9-10.9,11.8-12.8c9.4-2.6,17.6-1.1,25.2,4.7c2.7,2.1,6.1,3.5,7.4,7.4c-0.9,2.6-2.6,5.3-3.2,9c3.3-1.4,2.4-4.4,4-6.8
		C343.5,363.9,344.4,366.9,342.8,369.7L342.8,369.7z"/>
	<path fill="#FFFFFF" d="M430.5,368c0-0.2-0.1-0.6-0.1-0.6c-0.6,0-0.9,0.4-1.1,0.8c-1.6,2.4-3.2,4.7-5.4,6.9
		c-1.5-1.9-2.9-3.7-4.5-5.6c1.8-3.1,2.6-6.6,6.7-7.8c2.8-0.9,1.3-3.5,1-5.3c0.8-0.9,1.8-1.2,2.7-1.5c1.5-0.5,2.6-1.2,3.5-2.9
		c1.4-2.9,4.1-4.9,7.9-5.6c0.3,2.9,2.4,5.4,1.9,9.1c5,2.3,4.7,8.4,7.6,12.6c-1.5,3.4-3,6.6-5.8,9.1
		C439.9,374.3,435.5,370.7,430.5,368L430.5,368z"/>
	<path fill="#FFFFFF" d="M430.5,368c0.5,2,2.4,2.8,3.9,3.8c3.2,2.2,6.4,4.3,9.7,6.5c-8.7,9.9-14.9,21.8-25,30.4
		c0.5-3.7-0.5-7.5,2.2-10.8c1.2-1.4,0-3.9,0.8-5.8c0.5-1.2,0.9-2.5,1.4-3.9c0.6,0.3,1.1,0.5,1.7,0.8c0.1-0.2,0.3-0.5,0.3-0.6
		c-2.3-4.2-1.1-8.3,0.8-12.2C427.6,373.5,429.1,370.8,430.5,368L430.5,368z"/>
	<path fill="#FFFFFF" d="M505.8,464.9c-20.6-0.6-40.8-1.4-61.4-3.1c3.6-2.6,12.3-4.2,18.1-3.5c6.9,0.8,13.8,1.8,20.6,3.1
		c6.3,1.2,12.9,0.9,19.3,1.6C503.4,463.1,504.9,462.3,505.8,464.9z"/>
	<path fill="#FFFFFF" d="M499.1,266.7c-0.6,2.8-1.5,5.4-1.2,8.2c-2.8-0.3-5.2-1.1-7.7-2c-2.7-1-4.1-3.6-3.3-6
		c0.7-2.4,2.5-3.1,5.6-2.2c1.9,0.5,3.8,1,5.7,1.6C498.5,266.2,498.7,266.4,499.1,266.7z"/>
	<path fill="#FFFFFF" d="M206.1,518.7c-1.1,0.9-1.2,3.8-4.3,3.2c-0.4-1.3,1.7-1.8,1-3.3c-2.1-0.3-1.9,3.5-4.7,2.7
		c2-4.7,4.6-9,5.9-14.2C206.7,510.7,205.7,514.5,206.1,518.7z"/>
	<path fill="#FFFFFF" d="M302.5,403.6c-3,6.5-7.6,7.9-13.9,4.6C293.3,407.7,297.9,407.1,302.5,403.6z"/>
	<path fill="#FFFFFF" d="M321.8,413.1c1.7,2.9,5.3,4.2,4.2,8.1c-1.8,0.7-3.1,0-4.6-0.1C319.7,418.4,320.2,416,321.8,413.1z"/>
	<path fill="#FFFFFF" d="M376.1,555.9c-2.6-1.1-6-0.5-6.3-4.8c3.1,0,6.1,0.2,9.2-1.5C378.9,552.4,377,553.7,376.1,555.9z"/>
	<path fill="#FFFFFF" d="M363.3,335.9c-5-2.1-10.5-1.7-15.7-3C353,333,358.7,331.5,363.3,335.9z"/>
	<path fill="#FFFFFF" d="M404.8,416.3c-2.5,3.4-3.3,8.2-8,10.1C398.2,421.9,401.3,418.9,404.8,416.3z"/>
	<path fill="#FFFFFF" d="M366.8,564.8c-6.3-2.2-13-2.4-19.4-4.1C354,561.6,360.8,561.3,366.8,564.8z"/>
	<path fill="#FFFFFF" d="M499.2,240.8c-1.1-1.1-1.4-2.2-1.8-3.2c0.5-0.9,2.9-0.6,1.5-2.6c1.7-0.4,3,0,3.3,1.5
		C502.7,238.8,500.9,239.7,499.2,240.8z"/>
	<path fill="#FFFFFF" d="M407.4,418.7c2-3.4,5.1-5.4,9.2-7.4C413.8,415.1,410.4,416.6,407.4,418.7z"/>
	<path fill="#FFFFFF" d="M418.8,374.4c3.7,3.7,2.2,7.2,0.9,10.7C419.5,381.7,419.5,378.3,418.8,374.4z"/>
	<path fill="#FFFFFF" d="M342.7,369.7c2.1,1.7,1,3.9,1.4,6.8c-1.5-1.8-2.4-2.8-3.4-3.9C341.1,371.4,342.6,371,342.7,369.7
		L342.7,369.7z"/>
	<path fill="#FFFFFF" d="M338.2,442.4c0,3.7-2.8,3.2-5.2,3.5C334.8,444.7,336.5,443.5,338.2,442.4z"/>
	<path fill="#FFFFFF" d="M355.8,558.1c-2.3,0.3-4.5,0.3-7.5-0.7C351.6,556,353.6,557.3,355.8,558.1z"/>
	<path d="M520.6,458.7c-0.5,1.4,1.2,2.3,0.5,4.6c-1.4-2-2.9-3.3-1.6-5.7C519.8,457.9,520.2,458.3,520.6,458.7z"/>
	<path fill="#FFFFFF" d="M348.8,565.4c-1.8,1.4-2.7,2.5-2.9,4.1C345.4,566.8,345.6,566.4,348.8,565.4z"/>
	<path fill="#FFFFFF" d="M480.5,195.3c2.4,0.3,2.7,2,3.6,3.2C482.6,198.1,481.1,197.7,480.5,195.3z"/>
	<path fill="#FFFFFF" d="M236.7,524.1c-1-2.5,1.1-2.7,2.1-4.5C238.8,522,237.7,522.8,236.7,524.1z"/>
	<path d="M381.4,418.5c0.7-0.1,1.3,0.1,0.9,0.9c-0.6,1.1-1.4,2.1-2.9,2.4c-0.1-1.4,1.3-1.8,1.6-2.8
		C381.1,418.8,381.3,418.6,381.4,418.5z"/>
	<path fill="#FFFFFF" d="M484.5,192.1c1.6,0.9,1.7,2.5,2,4.4c-2.1-1-1.7-2.8-2.1-4.2L484.5,192.1z"/>
	<path fill="#FFFFFF" d="M511.1,235.6c-0.4-1.3-0.4-2.2,0.3-3.1C512.1,233.5,512.2,234.4,511.1,235.6z"/>
	<path fill="#FFFFFF" d="M413.9,248.7c0.6,1.1,0.1,1.9-0.3,2.7C413.7,250.5,412.5,249.8,413.9,248.7z"/>
	<path fill="#FFFFFF" d="M189,532.7c-0.8-0.2-1.3-0.4-1.9-0.5c0.2-0.7,0.5-1.1,1.2-1C188.8,531.3,188.9,531.8,189,532.7z"/>
	<path fill="#FFFFFF" d="M193.6,530c-0.9-0.1-2.1,0.1-2.7-1.1c1.2-0.8,2,0.1,2.9,0.6C194.1,529.7,194,529.9,193.6,530z"/>
	<path fill="#FFFFFF" d="M478.6,197.6c0.9,1.9,0.4,2.2-0.9,1.9C477.4,198.4,478.6,198.7,478.6,197.6z"/>
	<path fill="#FFFFFF" d="M373,339.6c-0.9,0-1.3,0-1.8,0c0-0.1,0-0.1,0-0.2C371.7,339.4,372.1,339.5,373,339.6z"/>
	<path fill="#FFFFFF" d="M505.3,231.9c-0.6-0.7-0.9-1-1.3-1.4C505.3,230,505.2,230.7,505.3,231.9z"/>
	<path fill="#FFFFFF" d="M508.4,233.7c0.6,0.2,0.5,0.6,0.3,1.1C508.1,234.6,507.9,234.3,508.4,233.7z"/>
	<path fill="#FFFFFF" d="M317.3,398.9c-0.6-0.8-0.8-1.1-1.2-1.6C316.8,397.3,317.2,397.6,317.3,398.9z"/>
	<path fill="#FFFFFF" d="M350,369.6c0.4,1-0.2,1.5-1.1,2C349,370.6,349.6,370.1,350,369.6L350,369.6z"/>
	<path d="M664.6,459.1c-3.1-5.7-7.3-10.7-7.6-17c-0.2-3.1-0.3-6.3-0.7-9.4c-0.1-0.7-0.2-1.5,0.6-2.4c2,2.8,2.7,5.9,2.4,9.1
		c-0.4,3.9,0.7,7.2,3.3,10c1.6,1.7,3.3,3.4,3.9,5.8C667,456.9,667.1,456.9,664.6,459.1z"/>
	<path d="M668.8,392c2-3.4,9.9-5.9,15.3-5C681.4,392.9,672.6,395.9,668.8,392z"/>
	<path d="M691.2,387.9c0.1-2.7,2-3.8,4-4.1c4-0.7,7.6-1.6,10.8-4.3c2.1-1.7,5.1-1.1,7.8-1.4c0.1,0.2,0.1,0.5,0.2,0.7
		c-4.3,1.6-8.4,3.5-12.8,4.9C697.7,384.8,693.9,384.7,691.2,387.9z"/>
	<path d="M653.7,457.4c-2.1-8.7-2.3-17.6-2.7-26.5C652.6,439.6,653.8,448.4,653.7,457.4z"/>
	<path d="M665,390c-4.3-0.6-7.6-2.5-10-5.8c0.2-0.4,0.5-0.7,0.7-1.1C658.9,385.5,662,387.8,665,390z"/>
	<path d="M652,388.7c-3.8,1-1.5,5.5-4,7.3c-1.2-2.6-0.7-6.4,0.9-7.8C649.9,387.4,651,387.1,652,388.7z"/>
	<path d="M646.7,405.4c-0.8-3.1,0.5-5,1.9-7.3C649.6,401.3,649.3,402.9,646.7,405.4z"/>
	<path d="M651,380.9c-1.5-4.1-1.2-5.2,1.4-6.9C653,376.6,651.1,378.6,651,380.9z"/>
	<path d="M658,418.8c-0.2,2.7-0.3,5.3-0.5,7.9C655.2,424.2,655.4,421.8,658,418.8z"/>
	<path d="M653.2,417.3c1,1.8,0,3.2-0.5,5.1C651.8,419.9,651.9,419.4,653.2,417.3z"/>
	<path d="M661.3,484.8c1.1,1.7,2.1,3.4,1,6C661.2,488.6,661.4,486.6,661.3,484.8z"/>
	<path d="M658.4,396.6c0.6-1.5,1.9-1.8,3.1-2.3C661.3,397,661.3,397,658.4,396.6z"/>
	<path d="M723.6,392.6c2-0.8,3.2-1,5.4-0.6C727,393,725.8,393.7,723.6,392.6z"/>
	<path d="M656.9,466.5c-1-1.1-1.4-1.9-1.4-2.8c0.2-0.3,0.4-0.4,0.6-0.2C656.9,464.2,657.6,465,656.9,466.5z"/>
	<path d="M657,414.1c0.8,0.3,1.1,0.6,1,1.2C657.4,415.4,657.1,415.1,657,414.1z"/>
	<path d="M783.2,394.1c-1.5,2.5-2.8,4.3-3.7,6.2c-1.2,2.4-1.8,4.9,0.2,7.3c0.9,1.1,0.9,2.6,0.9,3.9c0.2,2.4,2,4.2,2.8,6.3
		c-0.9,0.5-1.3-0.2-1.6-0.6c-1.5-1.6-2.5-3.4-2.8-5.5c-0.8-5.1-3.9-10.3,0.6-15.3C780.4,395.5,780.9,394.3,783.2,394.1z"/>
	<path d="M798.9,396c2.8,1.6,2.7,3.6,2.2,5.2c-1.6,4.5-3.5,8.9-6.4,13.5c0-3.1,0.6-7,1.6-8.6C798,403.2,799.8,400.3,798.9,396z"/>
	<path d="M793.3,504c-1.2-7.4-2.5-14.7-3.7-22.4C792.3,485.8,794.8,499,793.3,504z"/>
	<path d="M811.1,523.3c-0.7,5.9,3.1,10.7,4,16.8C810.8,536.7,808.9,528.1,811.1,523.3z"/>
	<path d="M788,453.4c0,6.4,2.4,12.8,0.6,19.1C788.7,466.1,787.3,459.7,788,453.4z"/>
	<path d="M795.6,416.6c-1.1,1.7-1.4,3.6-0.5,5.3c2.2,3.9,1,7.3-1.4,10.6c-0.2-0.2-0.5-0.4-0.4-0.5c1.5-3.8,1.3-7.5-0.3-11.3
		C792.3,418.9,793.4,417.3,795.6,416.6z"/>
	<path d="M813.1,413c-2.4-2.9-1.5-5.6,2.5-7.8C814,407.8,814.2,410.4,813.1,413z"/>
	<path d="M812.4,511.7c-1.6-2.6-1.8-5.2-0.8-7.9c0.3,0,0.5,0,0.8,0C812.4,506.4,812.4,509,812.4,511.7z"/>
	<path d="M817.3,404.3c0.2-2.8,2.4-3.3,4.5-4C821.5,402.8,819,403.2,817.3,404.3z"/>
	<path d="M787.8,448.2c-1-2.4-1.6-4.8-1.2-8.1C788.2,443.2,788.3,445.6,787.8,448.2z"/>
	<path d="M815,413.7c-0.5-1.9,1.1-1.9,2-2.6C817.1,412.6,816.6,413.6,815,413.7L815,413.7z"/>
	<path d="M930.4,388.4c3.2,6.1,3.9,13,5.2,19.6c1.3,6.2,0.7,12.6,1,18.9c0.1,1.7,0.3,3.4,0.4,5.4c-1.5-1.5-1.2-3-1.2-4.4
		c0-3.5-0.4-6.9-0.5-10.4c-0.1-8.9-1.9-17.4-4.5-25.9C930.6,390.6,930.6,389.5,930.4,388.4L930.4,388.4z"/>
	<path d="M946.8,442.9c-0.6,7.6,3.9,14,5,21.3c0,0.1-0.4,0.3-0.6,0.4C948.9,462.5,945.9,449.1,946.8,442.9z"/>
	<path d="M942.7,416.9c1.1,6.2-1.4,12.1-1.3,18.2C938.4,428.8,943.3,423,942.7,416.9z"/>
	<path d="M945.1,397.4c0.6-3.4,0.4-7,2.3-10.1C946.5,390.6,947.2,394.3,945.1,397.4z"/>
	<path d="M944.6,405.2c0.1-1.2,0.2-2.3,1.5-3.1C946.2,403.6,945.5,404.5,944.6,405.2z"/>
	<path d="M939.6,467.3c-1.2-1.1-1-2-0.5-2.9C940.2,465.1,940.5,465.9,939.6,467.3z"/>
	<path d="M947.6,288.4c0.5,1.8,0,2.4-1,2.9C946,290.2,946.8,289.7,947.6,288.4z"/>
	<path d="M938.3,459.8c0.8,0.3,1.2,0.7,0.8,1.4c-0.1,0.1-0.5,0.2-0.6,0.2C937.8,460.9,938.1,460.4,938.3,459.8z"/>
	<path d="M930.5,388.4c-0.3-0.6-0.7-1.1-0.1-2.2C930.4,387.2,930.4,387.8,930.5,388.4L930.5,388.4z"/>
	<path d="M929.4,382.6c0.1,0.3,0.2,0.7-0.1,0.9C929.2,383.2,929.1,382.9,929.4,382.6z"/>
	<path d="M936.2,344.3c0,0.4,0,0.7,0,1.1C935.8,345,935.7,344.7,936.2,344.3z"/>
	<path d="M790.7,513.1c0.6,4.1-1.9,7.2-3.3,10.6c-1.4,3.4-2.6,6.9-4.8,10.2c3.4,1.1,7.1-0.4,9.4,3.1c-4.1-0.6-8.3-1.3-12.3-1.9
		C783,527.4,785.3,519.5,790.7,513.1z"/>
	<path d="M790.5,509.2c-8.2,8.1-17.6,14.7-26.1,22.9C764.9,528.5,784.2,511.6,790.5,509.2z"/>
	<path d="M721,531.4c11.1,0.4,21.7,3.2,32.3,6.2c-1.5,0.6-3-0.1-4.3-0.4c-8.5-2.4-17.3-3.4-25.9-5.2
		C722.5,531.9,721.8,531.6,721,531.4L721,531.4z"/>
	<path d="M721.1,531.3c-4.9,0.6-9.4-1.9-14.2-2.4c-1.5-0.2-3.4-0.1-4.7-1.7C708.8,527.3,714.9,529.5,721.1,531.3L721.1,531.3z"/>
	<path d="M611.1,538.3c2.2,0.4,3.6,0.7,4.9,1c1.4-0.4,1.5-1.8,2.7-2.5c3.2,0.2,6.4,1.4,9.8,2.1c-2,3.8-2.3,3.8-10.1-0.4
		c-0.5,1.5-0.1,3.9-2.5,3.9C613.7,542.5,612.1,541.1,611.1,538.3z"/>
	<path d="M670.8,540.8c-3,0.7-5.9,2.1-8.2-1.2c-1.1-1.6-0.9-3.3,0.3-4.8c1.4-1.7,3.3-2.1,5.4-1.4C670.6,534.4,671,535.6,670.8,540.8
		z"/>
	<path d="M656.6,542.5c-2.5,0-4.6-2-4.5-4.4c0-2.4,2.1-4.3,4.6-4.3c2.4,0,4.3,1.8,4.3,4.2C661.2,540.5,659.2,542.5,656.6,542.5z"/>
	<path d="M645.2,543.3c-1.7-2.5-1.1-5.1-1.2-7.7c1.4-0.9,2.7-0.7,4.1-0.7c2.6,0.1,3.8,1.6,2.5,3.9c-0.9,1.6,0.2,2.5,0.3,3.7
		c-2.2,1.2-2.3-2-4-1.8C645.8,541.1,646.9,542.7,645.2,543.3z"/>
	<path d="M800.3,228.7c6.1-0.2,10,4.4,8,9.2c-1,2.4-2.7,3.8-5.5,3.1c-1.1-0.2-2.2-0.2-3.3-0.3c-3-0.2-6.1-3.7-6-6.9
		c0-2.7,2.2-4.6,5.8-4.9C799.7,228.8,800.1,228.7,800.3,228.7z"/>
	<path d="M785.8,258.5c2.7,0.6,4.5,2.7,6.8,4.1C789.5,262.4,787.5,260.7,785.8,258.5L785.8,258.5z"/>
	<path d="M795.9,263.4c1.4,0.6,2.8,1.2,4.2,1.8C798.3,265.5,796.7,265.3,795.9,263.4z"/>
	<path d="M891.4,241.3c7.5-0.3,14.1,0.9,20.7,1.2C905.3,245,898.6,244.9,891.4,241.3z"/>
	<path d="M913.6,206.9c6.5-1.8,10.5,2.7,15.2,5.7c-0.1,0.2-0.2,0.5-0.3,0.7c-5-1.8-10.1-3.7-15.1-5.5
		C913.4,207.5,913.5,207.2,913.6,206.9z"/>
	<path d="M922.6,215.9c-2.7-0.7-6.4,0.8-8-3.2C918.3,212.3,920,212.9,922.6,215.9z"/>
	<path d="M909.2,245.5c-4-0.1-7.7,2.4-11.7,1.1C900.9,245,904.3,244.7,909.2,245.5z"/>
	<path d="M906.6,217.8c-3.9-0.3-4-0.3-4.2-3C904.1,215.3,905.2,216.5,906.6,217.8z"/>
	<path d="M895,227c1.4-1.3,2.9-1.5,4.7,0C898,227.8,896.5,227.5,895,227z"/>
	<path d="M782.6,576.5c3.5-1.4,6.6-0.2,9.8-0.4C791.6,579.4,787.8,579.6,782.6,576.5z"/>
	<path d="M899.4,472.7c2.1-2.7,4.9-3.7,7.6-5c1.2-0.6,2.2,0,3.2,0.3c3.5,1.3,5.1,4.5,7,7.4c0.5,0.8,0.2,2,0,2.9
		c-0.7,2.7-6.1,6.9-8.8,7.1c-2,0.1-3.3-0.6-4.3-2.2c-1.1-1.7-2-3.4-2.8-5.2C900.3,476.3,901,474.2,899.4,472.7z"/>
	<path d="M933.1,494.7c-0.8-3.2,1-6.5,0.2-9.8c-1.9-7.8-2.4-16.1-8.5-22.4c-2.2-2.3-3.7-5.2-5.5-8c-2.8-4.4-6.6-7.2-11.8-8.3
		c-0.3-0.1-0.5-0.4-0.9-0.7c3-0.6,6.7,0.7,9.3,3c2.3,2.1,4.1,4.6,6,7.1c4.2,5.4,8.5,10.7,11,17.1c2,5,1.5,10.2,1.1,15.4
		C933.8,490.4,933.4,492.6,933.1,494.7z"/>
	<path d="M761.2,269.3c-3.1-1.3-5.9-3-6.9-6.5C756.6,265,758.9,267.1,761.2,269.3z"/>
	<path d="M750.7,260.7c0.8,0.6,0.9,1.4,1.2,2.4C750.6,262.5,750.8,261.5,750.7,260.7L750.7,260.7z"/>
	<path d="M969.4,447.8c3.7,3.6,4.4,8.5,4.8,13.2c0.6,6.1,0.3,12.3-1.9,18.2c1.7-10.7,1.4-21.2-3.3-31.1
		C969.2,448,969.3,447.9,969.4,447.8z"/>
	<path d="M784.3,281.8c1.2,4.3,0.5,8.8,1.5,13.1C783.5,290.7,783.2,286.3,784.3,281.8z"/>
	<path d="M786.7,306.9c-1.4-3.1-0.8-6.3-1.4-9.3C787.4,300.1,788.1,304.6,786.7,306.9z"/>
	<path d="M796.6,290.6c-0.7-0.5-0.8-1.2-0.9-1.9c-0.1-0.6-0.3-1.2,0.2-1.7C796.6,288.7,796.6,288.7,796.6,290.6z"/>
	<path d="M758.2,347.5c-1.3,2.4-0.8,5.3-2.6,7.5C754.3,352.4,755.1,349.8,758.2,347.5z"/>
	<path d="M742.4,353.2c1.2-2.6,1.2-2.6,3.5-4C745.1,350.8,744,352.2,742.4,353.2z"/>
	<path d="M760.7,355.7c-0.2-1.8,0.9-3,2.6-4.8C762.9,353.3,762.2,354.7,760.7,355.7z"/>
	<path d="M759.4,343.3c0.8,1.2,0.5,2.1-0.1,3C758.1,345.4,758.4,344.5,759.4,343.3z"/>
	<path d="M882.6,364c-1-1.1-1.6-1.8-1-3.1C882.6,361.6,882.9,362.5,882.6,364z"/>
	<path d="M226,461.6c-1-0.1-1.8-0.6-2.1-1.4c-1.8-4.4-5.2-8.2-5.9-12.8c-0.7-4.4-0.4-9.1-1.2-14.4c2.6,3.4,3.6,7,3.2,9.8
		c-0.6,3.8,0.6,6.9,3.1,9.7c1.6,1.8,3.4,3.6,4.2,6C227.8,460,227.7,461.1,226,461.6z"/>
	<path d="M229.6,394.9c1.8-3.2,9.6-5.7,15.2-4.9C242.1,396.1,232.7,399.2,229.6,394.9z"/>
	<path d="M251.9,391c0.2-2.6,2-3.7,4-4.1c4-0.7,7.6-1.6,10.8-4.3c2.1-1.7,5.1-1.3,8-0.7c-4.2,1.6-8.4,3.5-12.8,4.9
		C258.4,387.9,254.5,387.7,251.9,391z"/>
	<path d="M214.4,460.5c-2.1-8.7-2.3-17.6-2.7-26.5C213.3,442.7,214.4,451.6,214.4,460.5z"/>
	<path d="M216.5,386.3c3,2.3,6.1,4.5,9.1,6.8c-4.2-0.6-7.5-2.4-9.9-5.8C216,387,216.3,386.6,216.5,386.3z"/>
	<path d="M213,391.6c-4,1.3-2.1,5.4-4.8,8c-0.7-3.1-0.5-5.4,0.8-7.7C209.8,390.7,210.9,390.1,213,391.6z"/>
	<path d="M209.8,401c0.4,3.1-0.1,5.3-1.8,7.5C206.7,405.7,206.9,404.7,209.8,401z"/>
	<path d="M212.8,376.6c1,3.1-1.2,5-0.6,8C210.1,381.6,210.3,379.6,212.8,376.6z"/>
	<path d="M218.5,422c0.6,1.4-0.3,2.6-0.2,4c0.1,1.2,0,2.4,0,3.9C215.9,427.4,216,425,218.5,422z"/>
	<path d="M213.4,420.5c0.8,2.2,0.8,2.2-0.3,5C211.9,423.5,213.2,422,213.4,420.5z"/>
	<path d="M223,493.9c-1.2-2.2-1.1-4.2-1.1-6.1C223.2,489.5,223.9,491.2,223,493.9z"/>
	<path d="M222.8,397.2c-0.7,2.6-1.6,3.4-4,2.8C219.7,398.3,220.9,397.9,222.8,397.2z"/>
	<path d="M288.8,395.3c-1.2,0.7-2.4,1.4-3.7,0.5C286.2,395,287.4,394.8,288.8,395.3z"/>
	<path d="M216.1,466.1c1.5,0.9,1.9,1.8,1.8,3.4C216.5,468.7,216.2,467.7,216.1,466.1z"/>
	<path d="M217.7,417.5c0.7,0,1,0.3,0.9,0.9C217.7,418.6,218,417.9,217.7,417.5z"/>
	<path d="M524.9,262.1c1.1,2.2-0.9,3-0.9,4.8c0.3,0.6,0.8,1.5,1.3,2.3c-1.2,0.7-2.2,0.9-3.3-0.5c-3.4,4.1-7.3,7.5-10.8,11.2
		c-0.9-0.4-0.8-1.1-0.4-1.5C515.7,273.3,520.6,268.1,524.9,262.1z"/>
	<path d="M445.6,307.3c-1.6-5.1-2.5-10.3-2.6-15.6c0.4-0.1,0.8-0.1,1.3-0.2c0.8,5.2,1.5,10.5,2.3,15.7
		C446.2,307.2,445.9,307.2,445.6,307.3z"/>
	<path d="M536.3,255.1c-1.8-0.9-1.5-3.5-3.9-4c1.6-3.5,4.5-6,6.4-9.2c-0.2,3.3-3.2,5.3-4.3,7.9C534.5,251.9,536.4,253.1,536.3,255.1
		z"/>
	<path d="M447.4,313.6c1,4.5,1.6,9.1,3.3,14.3C447.8,324.6,446.5,318.9,447.4,313.6z"/>
	<path d="M450.6,330.8c1.8,3.8,4,7.4,5.4,11.4C453.9,338.5,450.5,335.5,450.6,330.8z"/>
	<path d="M446.6,265.2c1.4,2.7,3.9,2.2,6.4,3.1c-2.2,1.3-4,1.7-5.8,0.5C446.2,268.2,445.2,267.3,446.6,265.2z"/>
	<path d="M443.1,335c-1.5-3.3-0.8-6.8-0.9-10.3C444.2,327.9,443.1,331.5,443.1,335z"/>
	<path d="M478.6,357c-4.7,1.2-5.9,0.8-8.3-2.9C473.5,355,476.1,355.7,478.6,357L478.6,357z"/>
	<path d="M461.8,273c0.9,3.3-1.9,4.2-3.8,5.7C458.2,276.2,460,274.6,461.8,273z"/>
	<path d="M464.9,312.8c-1.4-2.1-2.9-4.2-2.5-7.5C464.3,308,464.6,308.8,464.9,312.8z"/>
	<path d="M481.1,312.8c2.2,2,3.8,4.4,3.9,7.5C483,318.1,482,315.5,481.1,312.8z"/>
	<path d="M470.4,364c-0.8-1.7-1.8-3.4-1.1-6C471.6,360.1,471.3,362,470.4,364z"/>
	<path d="M454.4,265.6c-2.2-1.9-2.5-3.1-1-4.7C455.9,262,454.5,263.5,454.4,265.6z"/>
	<path d="M445.8,260.1c1.1,1.4,1,2.5,0.3,3.8C444.3,262.8,443.4,261.8,445.8,260.1z"/>
	<path d="M544.7,249.8c-1.7-1.2-2.3-3-3.1-4.8C543.5,246.1,544.1,247.9,544.7,249.8z"/>
	<path d="M454.5,284.2c0,1.8-0.4,2.8-1.9,3.4C452.4,286,453.2,285.2,454.5,284.2z"/>
	<path d="M448.9,278.9c1.1,1.8-0.2,2.8-0.1,4.7C447.5,281.5,448.3,280.4,448.9,278.9z"/>
	<path d="M460.3,269.8c-1.7,0.7-2.6,0.4-3.7-0.9C458.3,268.1,459.1,268.9,460.3,269.8z"/>
	<path d="M439.6,262c1.2,0.4,1.8,1.3,2.4,2.7C440.1,264.4,439.3,263.6,439.6,262z"/>
	<path d="M477.8,307.5c1.1,0.7,1.3,1.4,1.1,2.7C477.5,309.7,477.6,308.7,477.8,307.5z"/>
	<path d="M455.7,362.7c1.3,0.4,1.7,1.1,1.7,2.3C456.3,364.6,455.5,364.1,455.7,362.7z"/>
	<path d="M455.3,280.4c0.3,1.1,0.1,1.7-1,2.1C454.1,281.5,454.4,280.8,455.3,280.4z"/>
	<path d="M453.1,291.8c-0.8-0.5-1.2-1-0.5-1.7C453.5,290.4,453.2,291.2,453.1,291.8z"/>
	<path d="M461.5,347.2c0.5-0.1,0.8,0.2,0.8,0.7c0,0.1-0.2,0.2-0.3,0.2C461.5,348.1,461.3,347.8,461.5,347.2z"/>
	<path d="M343.5,397.7c-1,1.8-2.2,3.5-3.1,5.3c-1.4,2.6-1.6,5.1-0.1,8c1.6,3.1,1.2,7.1,3.5,10c-2.6-1.5-4.1-3.7-4.2-6.8
		c0-1.4-0.2-2.5-1-3.8C336.2,406.4,338.6,399.6,343.5,397.7z"/>
	<path d="M359.7,399c2.4,1.7,2.6,3.4,2.1,4.8c-1.5,4.8-3.5,9.4-6.6,13.5c0.4-3.7,0.9-7.2,3.1-10.4C359.7,404.8,360,402.3,359.7,399z
		"/>
	<path d="M350.9,484.9c2.2,7.2,4,14.5,4,22.1c-0.3,0.1-0.6,0.1-0.9,0.2c-1.3-7.4-2.5-14.7-3.8-22.1C350.5,485,350.7,485,350.9,484.9
		z"/>
	<path d="M375.3,542.7c-4.1-3.6-5.9-11.9-3.6-16.3C371.2,532.2,374.6,537.1,375.3,542.7z"/>
	<path d="M349.3,455.7c-0.4,7.1,1.6,13.5,0.5,20.6C348.4,472.8,348,458.2,349.3,455.7z"/>
	<path d="M354.1,435.7c-0.1-0.7-0.2-1-0.2-1.2c1.7-3.3,1.5-6.5,0-9.9c-1-2.1-0.1-4,2.4-5c-0.9,2-1.1,3.8-0.3,5.9
		C357.8,430.3,357.6,430.8,354.1,435.7z"/>
	<path d="M373.7,416.3c-2.3-3.3-1.4-6,2.4-7.7C374.6,410.9,374.9,413.5,373.7,416.3z"/>
	<path d="M372.7,506.9c-0.1,2.6,0.6,5.2,0.1,7.7C371.5,512.1,371.2,509.6,372.7,506.9z"/>
	<path d="M383.1,402.8c-1,3.2-3.4,3.6-5.4,5.3C378.1,404.7,380.3,404,383.1,402.8z"/>
	<path d="M347.3,444c1.6,2.2,1.5,4.8,1.2,7.3C347.2,449,347,446.5,347.3,444z"/>
	<path d="M375.6,416.8c-0.5-1.8,1-2,2.4-3.2C377.7,415.7,377.2,416.7,375.6,416.8L375.6,416.8z"/>
	<path d="M410,342.7c4.3,1.4,7.3,4.6,10.4,7.6c-2.6-4.8-6.8-8-11.1-12.1c6.7,2.7,13.7,10.6,14.8,17C418.5,351.4,415,346.1,410,342.7
		z"/>
	<path d="M407.1,292.8c2.4,11.1,8.4,20.7,12.7,31C414.3,313.9,408.2,304.3,407.1,292.8z"/>
	<path d="M406.5,346.4c-5.9-5.1-13.4-7.2-20-10.9C394,337.5,401.2,340.1,406.5,346.4z"/>
	<path d="M430.1,317.7c0.1-0.1,0.3-0.4,0.5-0.4S430.6,317.6,430.1,317.7z"/>
	<path d="M343.8,537.1c2.9,1,6.6-0.6,8.8,2.9c-4.1-0.6-8.3-1.3-12.3-1.9c3.3-7.7,5.6-15.6,10.6-22.3c1.7,1.4,0.8,2.7,0.3,3.8
		c-2.1,5-4.4,10-6.6,14.9C344.3,535.3,343.5,535.9,343.8,537.1z"/>
	<path d="M324.8,534.5c7.7-8.7,16.5-16.1,26.2-22.5C342.9,520.4,333.5,527,324.8,534.5z"/>
	<path d="M281.7,534.5c3.9,0.3,8,0.3,11.8,1.1c6.9,1.5,13.8,2.8,20.4,5.5c-1.9-0.4-3.8-0.7-5.7-1.2c-8-2.2-16.3-3.1-24.4-4.8
		C283.1,535,282.4,534.7,281.7,534.5L281.7,534.5z"/>
	<path d="M281.7,534.5c-4.9,0.6-9.4-1.9-14.2-2.4c-1.5-0.2-3.4,0-4.6-1.7C269.5,530.5,275.5,532.6,281.7,534.5L281.7,534.5z"/>
	<path d="M177.4,542c0.5-0.6,1.1-1.3,1.7-2.2c3.4,0.2,6.6,1.4,10,2.1c-1.9,3.8-2.4,3.8-10.1-0.4c-0.5,1.6-0.2,4.1-2.8,4
		c-2.1-0.1-3.5-1.4-4.3-3.6C173.8,541.1,175.2,542.6,177.4,542z"/>
	<path d="M230.7,544.7c-3.1,0.7-6,2.1-8.2-1.2c-1.1-1.7-0.9-3.3,0.4-4.8c1.4-1.7,3.3-2.1,5.4-1.3
		C231.7,538.8,230.8,541.7,230.7,544.7z"/>
	<path d="M216.5,546.4c-2.5,0-4.6-2-4.5-4.4c0-2.4,2.1-4.3,4.6-4.3c2.4,0,4.3,1.9,4.3,4.2C221,544.3,219,546.3,216.5,546.4z"/>
	<path d="M210.7,546.4c-2.1,0.8-2.2-1.8-3.8-1.9c-1.4,0.1,0,2.2-1.8,2.4c-1.8-2.2-1-4.9-1.2-7.4c1.1-1.1,2.4-0.8,3.6-0.8
		c3.1,0,4.4,1.4,3,4C209.5,544.5,211.1,545.3,210.7,546.4z"/>
	<path d="M353.5,579.5c-2.2,2.9-4.9,2.9-9.9,0.4C346.4,578.7,346.4,578.7,353.5,579.5z"/>
	<path d="M452.4,244.4c7.1-0.3,13.8,0.9,20.6,0.9C469.6,248.3,458.8,247.9,452.4,244.4z"/>
	<path d="M489.1,216.3c-4.9-2.3-10.2-3.2-15.1-5.6C477.5,208.2,484.2,210.6,489.1,216.3z"/>
	<path d="M475.5,215.6c3.3-0.2,5.9,0.8,8.3,3.2C479.1,219.4,476.8,218.5,475.5,215.6z"/>
	<path d="M463,218c0.4,0,0.8,0,1,0.2c1,0.8,2,1.6,3.2,2.6C463.5,220.7,463.4,220.6,463,218z"/>
	<path d="M460.2,230.1c-1.6,0.8-3.1,0.3-5.1,0.4C457.7,228.7,457.7,228.7,460.2,230.1z"/>
	<path d="M439.1,251.7c-1.1,0.5-2.3,0.8-3.3,0.4c-2.9,3.8-3.4,5.9-2.3,9.2c-0.8,0.6-1.7,0.2-1.8-0.5c-0.3-3.1-0.3-6.2,1.7-8.8
		C434.9,250.1,436.8,250.1,439.1,251.7L439.1,251.7z"/>
	<path d="M475.8,296c-3.5-2.1-4.2-5.7-4.6-9.3c-0.7-7.6,0.7-14.8,3.6-22.1c2.3-5.7,4.2-11.6,6.6-17.3c1.9-4.5,5.8-7,8.4-10.7
		c0.7-1,1.8-0.5,2.4,0.5c-3,2.5-6.8,4.7-7.9,8.3c-1.1,3.7-2.9,7-4.1,10.6c-2,6.3-5,12.2-5.8,18.8c-0.5,4.3-1.2,8.6-0.8,12.9
		C474,290.6,474.4,293.3,475.8,296z"/>
	<path d="M319.3,350.1c-1.5,2.9-1.3,5.8-3.2,8.2C315,355.1,315.9,352.6,319.3,350.1z"/>
	<path d="M306.4,351.9c0.3,0.9-0.1,1.3-0.4,1.6c-0.9,0.9-1.5,2.3-3.5,3.3C303.5,354.3,304.7,353.1,306.4,351.9z"/>
	<path d="M323.7,354.9c-0.3,1.6-0.7,3.1-2.1,4.1C321.4,357,321.4,357,323.7,354.9z"/>
	<path d="M319.8,349.5c-0.9-1.2-0.8-2,0.4-3.1C320.8,347.6,320.7,348.5,319.8,349.5z"/>
	<path d="M437,358.5c-0.6,1.9-1.1,3.7-3.1,5.2C433.5,360.8,435,359.4,437,358.5z"/>
	<path d="M443.1,366.7c-0.8-1.5-2.6-2.7-1.6-4.8C443.5,363.2,442.7,365.2,443.1,366.7z"/>
	<path fill="#FFFFFF" d="M669.1,537.4c-1.2,0.5-3.7-0.2-1.8,2.7c-2.3-0.2-3.3-1-3.2-2.8c0-1,0.7-1.9,1.7-2.2
		C667.5,534.6,668.5,535.4,669.1,537.4z"/>
	<path fill="#FFFFFF" d="M656.5,535.6c1.7,0.3,2.6,1.1,2.5,2.8c-0.1,1.5-0.9,2.3-2.3,2.3c-1.5,0-2.6-0.9-2.6-2.5
		S655.2,535.9,656.5,535.6z"/>
	<path fill="#FFFFFF" d="M645.6,538.3c1.1-2.1,2.2-1.8,3.6-1C648.4,539,647.3,538.9,645.6,538.3z"/>
	<path fill="#FFFFFF" d="M802.9,239.8c-2.3-2.9-1.5-5.4,0.3-8c2.3,0.4,2.9,1.9,2.8,3.7C805.9,237.4,805.6,239.3,802.9,239.8z"/>
	<path fill="#FFFFFF" d="M795.8,235.4c0.7-1.8,1.4-3.3,3.6-4.3c-0.7,2.9-0.8,5.5,1.7,8.2C797.7,239.1,796.8,237.1,795.8,235.4z"/>
	<path fill="#FFFFFF" d="M915.4,476.7c-0.5,2.1-2,2.9-3.6,4c-1.1-3.9-2.6-7.4-7.1-8.6c1.2-1.3,2.6-1.6,3.9-2.2
		C911.9,471,913.7,473.8,915.4,476.7z"/>
	<path fill="#FFFFFF" d="M902.5,475c4.7,0.1,6.9,3.3,5.8,8.3C905.4,481.2,903.6,478.6,902.5,475z"/>
	<path fill="#FFFFFF" d="M229.2,541.8c-2.6-0.9-2.9,0.2-2.3,2c-2.1-0.1-3-1.1-2.9-2.8c0.1-1,0.7-1.8,1.8-2.1
		C227.5,538.4,228.4,539.4,229.2,541.8z"/>
	<path fill="#FFFFFF" d="M218.9,542c0,1.7-0.9,2.6-2.5,2.6c-1.3,0-2.4-0.9-2.5-2.3c-0.1-1.6,0.9-2.6,2.4-2.7
		C217.9,539.4,218.9,540.4,218.9,542z"/>
	<path fill="#FFFFFF" d="M209.2,541c-0.9,1.8-2,1.7-3.3,1.4C206.1,539.9,207.5,540.5,209.2,541z"/>
</g>
</svg>
