<?xml version="1.0" encoding="utf-8"?>
<!-- Generator: Adobe Illustrator 19.1.0, SVG Export Plug-In . SVG Version: 6.00 Build 0)  -->
<svg version="1.2" baseProfile="tiny" id="Layer_2" xmlns="http://www.w3.org/2000/svg" xmlns:xlink="http://www.w3.org/1999/xlink"
	 x="0px" y="0px" width="900px" height="600px" viewBox="144 97 900 600" xml:space="preserve">
<g>
	<path d="M853.4,346.7c4.8,1.3,9.8,1.2,14.6,0.7c4.1-0.4,8.3-0.4,12.6-1.5c-1.7-5.5-1.5-11.1,0-16.7c0.2-0.9,0.1-1.9,0.1-2.9
		c-0.4-5.1-0.5-10.3,0.5-15.4c0.1-0.7,0.1-1.4-0.2-2.1c-1.4-3.1-1-6.3-0.4-9.5c1-4.8,1.5-9.7,2.3-14.5c1-5.8-1.5-11.4-0.7-17.1
		c0.1-0.9-1.1-0.9-1.3-2.4c4-9.6,7.2-20,8.1-31.6c-9.8-14.9-17.3-31.6-22.7-49.3c-2,3.4-0.7,8-4.8,10.3c-3.5,1.1-7.6,0.1-11.3,2.1
		c-2.1-0.7-4.1-1.9-6.6-3.4c2.2-0.1,3.3,1,4.3,1.3c4.4-1.7,8.9-1.2,14-2.1c1.6-5.2,4-10.9,3.6-17s1.9-12.1,0.4-18.2
		c2.1,2.6,3.5,5.8,2.6,8.7c-1.5,5-0.7,10-1.3,14.9c0.7,1,1.8,0.7,2.6,0.8c6,0.5,11.7,2.4,17.3,4.4s9.8,6.2,11.6,11.6
		c2.7,8.2,6,16.5,5,25.5c-0.4,3.6-0.4,7.3-1.5,11c1,1.6,2,3.3,3,5.1c2.7,4.9,2.2,10.2,2.3,15.5c0.1,6.5,1.4,12.6,4.8,18.3
		c2.1,3.6,3.4,7.7,3.7,11.9c0.5,5.9,1.9,11.5,3.9,17.1c0.8,2.3,1.4,4.5,1,7c-0.3,1.7,0.1,3.3,0.4,5c0.7,3.8,1.3,7.6,0.9,11.4
		c-0.4,3.1,0.6,6.2,0.9,9.3c0.9,9.3,2.8,18.4,5.9,27.2c0.6,1.5,0.8,3.5,2.8,4.5c1.3-1.4,0.9-3.2,1.1-4.8
		c1.2-11.3,4.5-21.7,11.5-30.9c7.5-9.8,17.7-14.7,29.7-15.1c11.8-0.4,22,3.9,29.9,13.1c7,8.2,11.1,17.8,13.2,28.3
		c0.2,0.8,0.3,1.6,0.5,2.5c0.1,0.2,0.2,0.4,0.5,0.9c4-0.3,8.2-0.3,12.3-0.9c2.7-0.5,4,0.8,5.5,2.5s1.1,3.5,0.1,5.3
		c-0.6,1-1.1,2.1-1.8,3.3c-5.1,0.4-10.2,0.8-15.4,1.2c-0.6,4.5-0.7,9-1.6,13.3c-2.4,12-7.3,22.7-16.7,31c-4.5,4-9.8,6.1-15.8,7
		c-4.6,0.7-9.3,0.6-13.9,0.4c-9.9-0.4-17.7-5.4-24.1-12.7c-7.2-8.3-11.1-18.1-13.1-28.7c-0.2-1.3-0.5-2.6-0.7-3.9
		c-1.8-0.7-3.4-0.3-5.1,0c-1.3,2.2-1.6,5.8-5.5,4c-1.2,1-2,2.7-4.5,1.7c2.9-1.5,3.3-4.5,5.2-6.5c1.8,1.2-0.4,2.4,0.3,3.5
		c2.8-1.6,6.2-8.3,5.4-11.2c-1.3-4.6-3.2-9-4.4-13.5c-1.6-5.8-3.8-11.5-4.1-17.6c-0.5-8.7-0.9-17.3-1.6-26c-0.8-11.1-5-21.3-7-32.1
		c-1-5.8-4.9-10.6-6.2-16.4c-0.4-1.8-0.9-3.5-0.7-5.3c0.8-8.5-0.4-16.5-5.7-23.5c-2.5-3.3-1-6.6-0.1-9.5c1.8-5.6,0.7-10.9-0.6-16.2
		c-1-4.2-2.8-8.1-4.7-12c-0.9-1.9-1.9-3.4-4.1-4.2c-1.3-0.4-2.2-1.8-3.3-2.7c-2.1-1.9-4.6-3-7.4-3.7c-2,1.5-4.7,1.6-6.6,3.7
		c1.3,4.3,3.6,8.4,4,12.9c0.4,4.4,2.1,8,5,11.2c0.7,0.8,1.4,1.7,0.9,2.9c-0.3,0.6,0,1.2,0.4,1.6c3.1,2.9,4.2,7.1,6.5,11.5
		c1.5-8-0.6-14.9-1.8-21.8c5,10,7,18.4,3.9,29.9c-1.1,4-0.9,8.1-1.9,12c-0.8,3.1-1.7,6-3.5,8.6c-2,3.1-2.4,6-0.7,9.3
		c0.9,1.7,0.7,3.7,0.6,5.8c-0.4,7.5-1.2,15.1,0.8,22.5c0.6,2.5,2,4.6,3.4,6.7c2.1,3.1,3,6.7,5.4,9.7c7.1,8.5,10.1,18.8,12.9,29.2
		c1.3,5-1.5,9.3-4.3,12.9c-2.8,3.7-4.4,7.8-6.3,12.6c4.8-0.3,9.4-0.3,9.6,5.8c0.1,3.5-1.1,5-4.5,6.4c0.3,0.2,0.7,0.4,0.9,0.6
		c4.3,3.4,4.3,3.3,7.3-1c0.9-1.3,1.8-2.8,3.9-3.1c0.1,2.9-3.2,3.8-3.1,6.3c0.9,0.6,2,0.5,3.1,0.3c1.5-1.5,1.4-4.5,4.2-5.3
		c-0.5,5.2-3.3,7.5-7.9,6.6c-0.3-0.1-0.7-0.1-1-0.1c-4.7,0.7-6.9-0.1-10.4-4.1c-1.1,0-2.3,0-3.5,0s-2.4-0.3-3.5,0.5
		c-0.1,0.2-0.3,0.5-0.3,0.6c1.7,7.3,1.3,14.9,2.9,22.2c1.2,5.2,2.7,10.5,2.7,15.9c0,5,1.1,9.7,1.8,14.5c0.3,1.9,0,4.1,1.9,5.5
		c0.2,0.2,0.4,0.7,0.3,1c-1.8,5.9,1.2,11.4,1.6,17.1c0.7,8.9-0.5,17.7-0.4,26.6c0,2-1.2,2.7-3.1,2.5c-2-0.2-4-0.6-6.4,0.3
		c-0.6,4.5-3.4,8.5-3,13.5c0.3,3.7,1.6,7.9-1.5,11.3c-0.4,0.5-0.3,1.7,0,2.4c3.1,7.5,2.7,15.5,3.9,23.2c1.3,8.4,0.2,16.6-1.3,24.9
		c-1.5,8.4-1.1,16.9-1.9,25.4c-0.6,5.8-0.6,11.7-1.4,17.5c-0.5,3.8,1,7.5,0.5,11.2c1.5,1.1,3.2,0.2,4.7,1.5c0,5.6,2,10.9,6.2,15
		c6,5.7,10.3,12.8,16.4,18.4c2.4,2.2,3,5.3,3.5,8.3c-0.1,0.3-0.1,0.7-0.3,0.8c-4.1,1.7-6.3,6.3-11.2,6.7c-4.4,0.4-8.6,2.1-13.1,0.9
		c-1.4-0.4-2.9-0.2-4.3-0.4c-4.7-0.4-8.4-2.1-8.9-7.3c-1.6-1-3-1.4-4.6-1.3c-3.8,0.3-7.4-0.9-10.8-2.4c-3.1-1.4-5.1-4.4-7.1-7.1
		c-0.4-0.6-0.6-1.5-0.2-2.1c2.9-4.3,1.3-10,4.3-14.4c1.4-2,1.6-4.4,0.9-6.9c-0.6-2.1,0.3-3.9,1.8-5.1c1.4-1.2,1.9-2.6,1.6-4.2
		c1-1.5,2.7-1.4,4.3-2.7c0-2.9,0-6.2,0-9.6l-0.1,0.1c1.8,0.2,1.5,1.7,1.5,2.7c0.1,2.1,0,4.3,0,6.4c4.2,0.1,8-0.8,10.1-2.1
		c0.8,0,0.6,1.8,1.9,1c0-14.7,2.4-29.2,2.7-43.9c0.1-4.6,0.6-9.3,1.5-13.9c1.7-9.1,0.8-18.1-0.6-27.1c-0.5-3.6-0.7-7.4-2.2-11.2
		c-0.7,2.3-1.4,4.4-2,6.5c-0.5-3.3-0.9-6.6,1.5-9.2c0.4-1.3-0.9-1.6-1.1-2.3c1-3.3,3.1-6.2,3-9.3c-0.2-4.9,0.7-9.7,1.1-14.5
		c0.1-0.6-0.3-1.1-1.3-1.6c-10.6,2-21.3-0.1-32.6-2.1c0.5-0.3,0.3-0.2,0.1-0.1c-0.5,0.3-0.9,0.7-1.3,1.1c-0.2,3.4,0.3,6.6,1.8,9.7
		c2,4.4,2.4,9.2,3.1,13.9c1.2,7.8-0.7,15.4-1.7,23.1c-1.3,10.4-0.2,20.5,2.9,30.4c0.7,2.3,1.1,4.7,1.6,7c2.6,12.6,6,25.1,6.8,38.1
		c0.2,3,0.5,6-1.6,8.5c-1.2-0.2-1.3-1.2-1.3-1.9c0.6-12-2.9-23.4-4.8-35.1c-1.8-10.9-4.3-21.5-6.4-32.3c-1-4.9,0-9.8,0.8-14.6
		c1.3-8.1,2.2-16.1,1.1-24.3c-0.4-2.7-2-4.8-2.5-7.5c-0.9-5.5-2.5-10.9-2.3-16.5c-0.4-0.3-0.6-0.5-0.8-0.5c-5.8-0.7-6-0.9-6.1-6.8
		c-0.1-3.7,0.3-7.5-0.4-11.9c-1.8,3-2.2,5.6-2.4,8.3c-0.2,3.1-0.8,6-3.3,8.2c-0.8,0.7-1.5,1.6-2.7,1.5c-2-0.3-3.4,0.7-4.8,1.9
		c-1.3,4.3-2.5,8.7-5,12.5c-1,1.4-1.4,3.2-1.4,4.8c0.1,7.6-2.9,14.1-7.2,20.1c-1.1,1.4-1.4,4.8-4.1,3.1c-2.6-1.6-0.4-3.9,0.9-5.1
		c6.3-5.8,6-13.9,7.8-21.3c0.4-1.7,0.9-3.4,1.5-5.1c0.8-2.1,1.7-4.2,1-6.4c-1.6-1.5-3.4-1-5-0.8c-7,0.9-14.1,0.6-21.2,0.7
		c-5.2,0.1-6.4,1.6-5.3,6.7c1.9,9.3,1.1,18.3-2.4,27.1c-2.5,6.3-4.6,12.7-5,19.6c-0.5,8.3,0.6,16.4,1.4,24.6
		c1.6,15.6,4.6,31,5.7,46.6c0.2,2.4,0.4,4.7,1.1,7.4c1.8-1.6,0.3-4.8,3.3-5.3c1.7,0.3,2.1,1.7,2.5,3.1c0.4,1.3,1,2.6,2.7,2.2
		c1.4-0.3,1.9-1.5,1.8-2.7c-0.7-11.2,2.1-22.4,0.2-33.7c-0.7-4-0.2-8.1,0.7-12.1c0.3-1.6,0.8-3,2.5-3.5c2,0.4,2.2,1.9,2.3,3.3
		c0.1,5.6,0.6,11.3-0.9,16.8c1.4-8.8,4.7-17.1,6.4-25.8c1.5-7.9,1.2-15.7,0.8-23.6c-0.2-5.3-1.5-10.7,1.4-15.7
		c1.2-0.1,1.6,0.4,1.6,1.7c0.2,9.6,1.6,19.1,1.2,28.7c-0.2,5.8-0.5,11.5-2.8,16.9c-0.4,1-0.6,2.1-0.8,3.1
		c-1.2,5.5-2.4,10.9-4.5,16.2c-2.4,6.3-2.5,13.1-3.5,19.7c-0.6,4-1.2,8-0.2,12.1c4.6,0.2,6,2.5,6,7.1c0,3.4-1.7,6.3-2,9.3
		c0.8,1.7,2.8,2.1,2.9,4c-0.2,1-1-0.1-1.4,0.5c4.8,10.8,9.7,21.6,14.4,32.1c-0.7,1.4-1.6,2.1-2.6,2.3c-8.2,1.6-16.5,3.1-24.9,1.3
		c-2.2-0.5-4.3-1.4-6.4-2.3c-1.9-0.7-3.5-2.3-3.6-4.1c-0.1-2.3-1.4-3.5-2.8-4.7c-4-3.1-4.5-8.4-1.8-12.5c1.4-2.2,2-4.2,1.2-7
		s0.2-5.9,1.8-8.5c2.6,0.2,2.6,2.2,2.5,4c-0.4,4.4,0.6,8.9-2.2,13.2c-1.6,2.4-1.1,5.6,1.6,7.8c0.9,0.7,1.5,1.6,1.9,2.6
		c2.2,5.4,6.7,7.1,11.9,7.8c5.5,0.7,10.7-1,16-1.7c0.5-0.1,0.8-0.5,1-1.1c0-1.4-1.2-2.4-1.5-3.8c-1.3-5.4-4.1-8.1-10.3-7.9
		c-6.7,0.2-10.3-4.7-8.8-10.4c2.7-1.1,5.6,0,8-0.1c-2.6-0.1-5.6-0.7-8.6-0.1c-0.6,0.1-1.2-0.2-1.7-0.5c-1.7-1.1-2.6-5.4-1.8-8.4
		c0.6-2.2,2.3-2.8,4.3-3.1c0.5-0.1-0.1,0,0.4,0c6.5-0.6,6.9-1.1,7.6-7.8c-1.5-2.7-3.8-1.6-6-1.2c-1.9,0.4-3.3,1.1-3.8,3.2
		c-2,8.4-2.5,8.8-10.7,7.7c-1-2.3-1.1-4.7,0.2-6.9c0.9-1.5,0.8-3,0.6-4.5c-1.3-7.2-1.1-14.5-1.9-21.7c-0.5-4.2-0.9-8.3-1.6-12.4
		c-2.4-13.3-3.8-26.8-5.6-40.1c-0.8-5.9,0.7-11.9,1.6-17.8c1.2-7.5,3.7-14.5,7-21.4c1.8-3.9,1.5-8.2,0.3-12.3
		c-1.4-4.9-1.7-9.8-2-14.7c-2.1-1.4-4.2-0.2-6.4,0.2c-0.8-4-0.7-7.9,0.8-11.3c0.9-2.1,1-3.8,0.7-5.7c-1.2-6-2.3-12.2-0.8-18.2
		c2.2-8.8,2.3-17.7,2.7-26.5c0.5-11.1,1.2-22.2,3.1-32.6c-5.1-4.8-10.9-3.6-16.6-3.1c-5,0.4-10,0.7-15.2,1.1
		c-0.7,6.2-1,12.3-2.3,18.3c-2,9.6-5.4,18.6-10.9,26.7c-10,14.6-24.1,19.9-41.5,16.8c-14.2-2.5-23.2-11.2-29.7-23.1
		c-5.2-9.3-7.8-19.5-9.2-30c-0.1-0.6-0.2-1.1-0.3-1.9c-11.9,0.2-23.7,2.1-35.4,1.8c-4.2-4.6-4.3-7.4-0.4-10.7c1-0.9,2.1-1.1,3.5-1.2
		c10.5-0.5,21-1.2,31.6-1.9c0.7-6.3,1-12.4,2.2-18.4c2.2-10.3,6.1-19.8,12.1-28.6c13.9-20.6,50-23.1,65.9,0.5
		c7.6,11.3,11.7,23.7,13.5,37.1c0.1,0.8-0.1,1.7,0.8,2.8c8.8-0.6,17.8-1.2,26.9-1.8c-1.6-5.1-3-9.8-0.5-14.9c1.1-2.3,0-5.1-0.7-7.7
		c-4.2-14.5-8.1-29-10.9-43.8c-0.9-4.7-0.8-9.5-0.6-14.3c0.2-4.2,0.1-8.4-1-12.5c-0.4-1.7-0.3-3.3-0.2-5c0.1-1.6,0.3-3.2,2.7-2.8
		c-0.6-1.7-1-3.1-0.8-4.5c0.4-2.5-0.2-4.7-0.9-7.1c-1.6-5.7-2.5-11.5-0.3-17.3c0.3-0.8,0.3-1.6,0.3-2.5c-0.1-4.9,1.3-9.4,3.4-13.8
		c1.4-2.9,2.5-5.9,3.8-8.9c0.9-2.1,0.2-4.2,0.1-6.2c-0.4-7.7,3.2-13.3,9-17.8c2.4-1.8,4.9-3.4,7-5.6c1.1-1.1,2.5-1.9,4-2.4
		c7.8-2.4,14.6-7.4,23-8c0.3-4.8-1.5-8.6-3.4-12.3c-0.7-1.4-1.7-2.5-1-4.3c0.5-1.3-0.4-2.5-1.1-3.6c-2.7-4.1-2.8-8.5-1.9-13.4
		c0.7-4,3.1-7.6,2.3-11.9c2.1-1.5,1.4-4.5,3.1-6.3c-0.4-1.1-1.9-1.4-2.1-2.9c2.4-1.9,4,0.5,5.9,1.4c3.7-0.5,6.4-2.6,8.4-5.4
		c1.9-0.1,0.9,1.8,1.8,2.2c1.7-0.2,1.5-2.2,3.1-2.9c4,0,8.2-1.5,12.7-0.9c1.2,0.1,3.3-0.9,4.9-1.7c1.7-0.9,3.6-1.4,5.3,0.1
		c1.5-0.5,1.9-2.4,3.4-3.2c1.4,1.9,0.7,4,1.4,5.8c1.7-0.2,3.1-2.9,5.2-0.7c-0.3,1.9-2.1,2-3.1,3.2c1.6,0.6,3.2-0.9,4.9,0.2
		c-0.3,1.1-0.2,2.3,0.1,3.4c-2.1,2.4-5.1,3.5-6.8,6.6c1.2,3.7,1.3,8,3.2,12c1.3,2.7-0.6,5.8-0.8,8.7c-2.1,1-4,2.1-6.3,1.6
		c-0.1,1.3-0.2,2.4-0.4,3.9c-2.8-5-1.5-7.7,6.2-11.5c-1-4.4-3.4-8.7-3.6-13.9c-6.2,3.5-12.8-0.3-18.6,2.9c-0.1,0.6,0.5,1.4-0.8,1.9
		c-1-2.5-3.3-3.2-5.6-4c-0.9,0.4-1.4,1.1-1.7,2c1.2-0.1,2.3-0.1,3.6-0.2c0.7,1.1,1.4,2.1,2.3,3.4c-1.8,1.3-2.3,4-4.9,3.2
		c-4.1,7.2-6.1,14.7-8.6,22.2c-1.2-1.7-1.1-3.8-2.8-4.8c0,0-0.1-0.2,0.1-0.1c0.1,1.8-0.6,3.5-0.1,4.9c-0.8,1-1.7,1-2.5,1
		c-0.1,1.2,0.6,1.6,1.3,2.3c0.8-0.2,1.7-0.5,2.5-0.7c1.4,1.1,1.4,4.7,0,7.7c-0.8-1.8-0.1-3.6-0.7-5.3c-2.4,3.9-2,3.8-0.1,7.7
		c2.9,6,7.9,9.2,13.7,11.6c0.7,0.3,1.6,0.4,1.8,2c-4.1-0.9-7.5-2.4-10.5-5c-1.9-1.7-3.3-4-5.8-5.2v-0.2v0.1c0.8,2.4,2.1,4.5,3.9,6.3
		c1.6,1.6,3.5,3,4.8,5.2c2.9,5.2,8.3,7.2,13.5,9.1c2.3,0.8,4.4,1.8,6.5,3c0.9,0.5,1.9,1,1.9,3c-4.4-2.6-8.8-4.4-13.9-6.2
		c2.7,3.4,5.4,5.7,6.9,9.3c1.2,2.9,4.7,4.6,7.7,6.2c1.7,0.9,3.3,0.1,4.8-0.5c1.1-0.4,2.2-1.4,2.8,0.6l0.1-0.1
		c-1.5-0.1-1.9,1.3-2.7,2.1c-2.3,2.2-4.1,2.8-6.8,1.3c-4.2-2.4-7.7-5.6-9.8-10.1c-2-4.2-5.7-7-8.8-10.2c-4.4-4.7-9.5-8.8-13.2-14.1
		c0.3-1.7,1.2-3.4-0.2-5.2c-1.9,0.7-3.9,1.5-6.2,2.4c1.5,2.5,2.6,4.9,4.4,7.1c2.2,2.7,3.4,6.3,5,9.5c2.9,5.9,4.1,12,3.7,18.7
		c-0.4,6.6-2.2,12.6-5.6,18.2c-3.7,6.3-6.9,12.8-11.8,18.3c-2.7,3.1-4.2,7.2-5.4,11.2c-1,3.3-2.8,5.9-6,8.2
		c0.6-4.9,2.3-9.1,4.8-12.9c3.3-5.1,4.2-10.8,4.7-16.6c0.2-3.2,1.3-6.2,1.8-9.4c0.3-1.8,0.1-3.2-1.1-4.7c1.3-2.5,2.3-5.3,5.7-6
		c-3.3,6-0.8,12.3-1.6,18.4c5.9-8.1,9.5-17.1,11.2-26.8c0.5-3.1-1.4-6-1.9-8.8c-0.8-1-1.3,0.7-2.2-0.3c1.8-1.6,1.2-3.5,0.5-5.4
		c-1.1-2.9-1.4-6.1-3-8.8c-2-3.4-4.3-4.3-8-3.3c-0.7,0.2-1.2,0.9-2,0.3c0.2-2.8,0.6-3,6.2-2.8c0.2-1.2-0.5-2.2-1.1-3.6
		c-2.7,1.1-5.5,1.7-7.8,3.6c-0.6,0.5-1.1,0.8-1.9,1c-7.2,1.6-11.9,6.6-16.7,11.7c-1.6,1.7-3.4,3.2-4.5,5.4c-1.4,2.7-2.2,5.4-2.1,8.6
		c0.2,4.7-0.9,9.2-3.5,13.3c-4,6.4-3.9,13.9-5.2,21.1c-0.9,5.3,0.4,10,1.9,14.9c0.7,2.2,0.6,4.5-0.2,6.7c-0.7,1.6-1.3,3.3-0.9,4.9
		c-0.7,0.5-1.5,0.1-2,0.9c1.1,8.7,1.8,17.4,1.5,25.6c1,1.5,1.8,0.1,2.3,0.9c0,0.2,0.2,0.4,0.2,0.6c-0.7,4.5,0.7,8.8,1.4,13.1
		c0.9,5.8,1.2,11.8,2.6,17.5c1.4,5.5,1.1,11.6,5.1,16.5c1.6,1.9,1.1,4.8,2,7.5c-3.8,4.2-3.5,9.2-2.1,14.3c0.1,0.5,0,1.1,0.3,1.4
		c3.5,2.8,3.6,6.5,2.8,10.4c-0.1,0.8,0.2,1.6,0.4,2.3c1,0.7,1.9,0.7,3.2,0.2c0.8-4,6.1-6.7,3.8-12.1c2.6,1.1,2.9,1.3,3.7,4.1
		c-0.6,0.9-1.3,0-2,0.2c-0.5,2.5-1.3,5-2.3,7.3c-0.5,1.1-1.1,2.2-2.3,2.6c-2.9,0.9-3.8,3.4-3.2,5.6c1.4,4.8,0.2,9.4-0.2,14.1
		c-0.8,8-0.7,16.1-1.3,24.2c-0.4,4.8-0.7,9.5-1,14.3c-0.1,1.5-0.3,3.1,0.4,4.5c-0.6,0.4-1-0.9-1.7-0.1c-0.4,3.9-0.4,7.8,0.5,11.7
		c1.4,6.1,1.3,12.1-0.5,18.5c17.5-0.9,34.5-0.8,51.6-2.9c1.4-3.9,3.2-7.5,3.3-11.7c0.1-7.1,0.8-14.2,3-20.9c2.2-6.7,3-13.8,7.6-20.5
		c1.4,9.3,6.1,16.9,8.3,25.3c-0.2,0.1-0.4,0.2-0.7,0.3c-2.5-6-4.9-12-7.3-17.9c-1.4,0.3-1.3,1.4-1.4,2.3c-0.6,4.3-1.2,8.5-1.9,12.8
		c-0.3,1.6,0.4,2.8,1,4.1c2.6,5,4.9,10,6.4,15.5c-3-4.7-4.6-10.2-7.6-15c-0.7,0.2-1.4,0.3-2.5,0.6c2.1,6.9,4.7,13.6,5.3,21.2
		c-1.6-2.1-1.7-4.1-2.2-6.1c-0.6-2.5-0.7-5.2-2.2-7.5c-0.1-0.1-0.2-0.2-0.2-0.2c0-0.1,0,0,0.2,0.1c0.7,5.4,1.4,10.9,2.2,16.4
		c11.3,3.1,22.5,6.3,34.5,4.7c5.7-0.8,11.7-0.1,17.7-0.1c0.5-8.4,1.8-16.3,0.8-24.3c-0.2-1.6-0.7-3.3-1.4-4.8
		c-1.8-3.8-1.8-7.8-1.4-11.9c0.5-4.7-1.1-9.2-1.8-13.8c-1.4-9.3-3-18.6-4.5-27.9c-0.8-4.7,0.4-9.6-1.4-14.2
		c-0.7-1.8-1.1-3.6-1.6-5.3c-1.1-0.8-2-0.4-2.9-0.2c-0.5,1.7,1.1,2.9,1,5c-1.1-1.8-1.9-3.1-3-4.9c-24,1.7-48.3,3.4-72.5,5.1
		c-2.1,1.8-2.7,4.5-4.9,6.2c-1.2,0.9-2.2,1.6-3-0.4l-0.1,0.1c2.6-0.8,3.9-3,5-5.3c2.5-5.1,3.3-9.7-0.9-14.7
		c-3.5-4.3-5.1-9.9-7.2-15.1c-1.2-3-0.3-6.2-0.4-9.3c-0.1-3.5-0.5-6.9-1.4-10.3c-1.2-5-1-9.9,0.2-15.1c1-4.6,0.7-9.5,1.2-14.3
		c0.8-7.8-0.6-15.5-1.8-23.2c-0.5-3.1-1.1-6.1-1-9.3c0-1.1-0.2-2.4,1.8-3.8c-0.6,4.9-0.1,9.1,1.1,13.1c0.1,0.5,0,1,0.2,1.4
		c4.9,10.1,2.3,20.5,1.6,30.9c-0.1,1.9-0.6,3.8-1.1,5.6c-1.1,4.7-0.8,9.2,0.7,13.7c1.1,3.2,1.9,6.4,2.9,9.8c1.7,1.3,3.9,0.9,6,0.9
		c11,0.3,22,0.4,33,0.1C847.1,347.3,850.3,347,853.4,346.7L853.4,346.7z"/>
	<path d="M355.3,130.7c0.3-2,0.7-4.1,2.3-5.6c-0.2-1.2-2-1.8-1.8-3.4c2.7-1.2,4.1,1,5.7,2.2c4.3-0.7,4.3-0.7,9.4-4.6
		c1.4,0.3,0.3,1.7,0.9,2.3c1.8,0.2,1.8-1.8,3.3-2.5c3.9,0.1,8.1-0.5,12.4,0.2c1.8,0.3,3.9-0.7,5.8-1.2c1.9-0.6,3.7-0.7,5.2,0.7
		c1.5-0.5,2.1-2.1,3.4-2.9c1.6,1.9,0.8,4,0.7,6.2c1.9-0.4,3.5-2.4,5.5-0.6c-0.1,2.1-2.1,1.8-3.1,3.2c1.4,0.5,3-0.5,4.4,0.5
		c0.2,1.2-0.7,2.4,0.1,3.5c-2.3,2.4-5.6,3.1-7.5,6.1c0.8,3.8,0.5,8,2,12.2c1,2.7-1.2,5.7-1.7,8.7c-2.1,0.7-4,1.8-6.3,0.9
		c-0.3,1.2-0.5,2.2-0.8,3.3c-1.8-3.4-1.1-6.2,2.1-8c0.9-0.5,2-0.9,2.9-1.3c2.7-1.3,2.9-1.9,1.6-4.6c-1.5-3.2-1.1-6.8-2-10.4
		c-4.4,2.1-8.7,0.3-13,0.1c-2.6-0.1-4.7,0.2-6.2,2.6c-2.2-3.5-4.4-4.7-6.6-3.5c0.6,1.5,2.2,0.5,3.2,1.3c0.5,0.9,1,2,1.6,3.2
		c-1.7,1.3-2.8,3.4-5.7,2.8c-1.2,3.9-4,6.9-5.6,10.4s-2.1,7.4-4.6,10.9c-1.8-3.5-1-7.7-4.7-10.4c-0.4,2.7,1.3,3.4,2.5,4.8
		c-0.2,1.7-0.4,3.6-0.6,5.2c-0.7,1-1.6,0.7-2.4,0.7c-0.2,2.3,1.6,2.3,3.2,2.7c-1.8,2.5-1.5,5.1-1.2,7.6c0.6,5.4-1.1,10.6-1.2,16
		c0,1.7-1.3,2.7-2.5,3.7c-2.3,1.7-4.9,3-6.9,5.8c3.1,4,4.2,9.3,8.1,13.5c-0.6,1,0,2.3,0.5,3.7c3.1,7.6,7.4,14.5,12,21.2
		c0.4,0.6,0.9,1.2,1.5,1.6c7.6,4.4,15.6,5.8,23.9,2.2c3.4-1.5,5.9-4.2,6.7-8.3c0.9-4.9,1.1-9.8-0.4-14.6c-1.1-3.8-2.4-7.5-3.8-11.2
		c-1.2-3-3.2-5.5-6.7-7.5c0.1,4.7,0.8,8.9-0.3,13.3c-3-4.4-3.2-8.5-1.3-19.1c-2.6-0.8-5.7,0.7-8-1.8c1.7-0.7,9-1,12.8-0.4
		c2.2-5.4,5.1-10.8,5.4-17c0.2-6.1,2.8-11.8,2.4-18c1.6,3.2,2.7,6.6,1.3,10c-0.9,2.4-1.6,4.7-1.6,7.3c0.1,6-3.2,11-5,16.3
		c-0.6,1.9-2.2,4-4.4,5.2c-0.1,1.8,0.8,3,2.2,3.9c3.7,2.3,7.6,3.9,11.9,4.8c9,1.9,17.4,5.1,23.4,12.6c0.8,1,1.6,2.1,1.6,3.5
		c0,0.1,0,0.2,0,0.4c2.5,8.4,2,17,0.6,25.5c-1.1,6.8-0.2,13.4,1.5,19.9c1.3,5,1.3,9.9,0.3,14.9c-1.1,5.6,1.2,10.7,3.4,15.6
		c2.6,5.7,5.8,11.3,7.5,17.4c0.9,3.1,0.6,6.2-0.8,9.4c-1,2.2-0.5,5-0.2,7.5c0.8,8.4,1.8,16.9,2.8,25.3c0,0.2,0,0.5,0.1,0.7
		c5.1,11.1,4.4,23.6,9.2,34.8c0.6,1.4,0.7,3.3,2.9,3.9c1.3-1.4,0.9-3.2,1-4.8c1.2-11.4,4.6-22,11.7-31.2
		c7.5-9.7,17.6-14.4,29.5-14.8c12-0.4,22.2,4,30.1,13.4c6.9,8.2,10.9,17.6,13,28c0.2,1,0.1,2.2,1.1,3.3c4-0.3,8.2-0.3,12.3-0.9
		c2.5-0.4,3.9,0.7,5.2,2.2c1.5,1.6,1.5,3.4,0.4,5.3c-0.6,1.1-1.2,2.3-1.9,3.5c-5.1,0.4-10.2,0.8-15.5,1.3c-0.6,4.6-0.7,9-1.6,13.3
		c-2.4,11.9-7.2,22.5-16.4,30.8c-4.6,4.1-10,6.3-16.1,7.2c-4.7,0.7-9.3,0.6-13.9,0.4c-9.9-0.4-17.7-5.4-24-12.8
		c-7.2-8.3-11.1-18.1-13.1-28.7c-0.2-0.9-0.3-1.9-0.5-2.8c-0.1-0.3-0.2-0.7-0.3-1c-1.5-0.6-3.1-0.2-4.6,0c-1.5,1.3-1.1,3.8-2.8,4.5
		c-1.3,0.7-2.2,0-3.1,0.1c-1.3,0.7-2,3-4.5,1.3c3.2-1.1,3.2-4.6,5.3-6.4c1.5,1.3-0.5,2.4,0.3,3.5c3.4-2.2,6.1-8.8,5-12.4
		c-1.3-4.3-2.3-8.7-4.5-12.8c-0.5-0.9-0.8-2.1-0.7-3.1c0.1-4.3-2.5-8.1-2.1-12.6c0.2-2.2-1.1-4.6-2.1-6.8c-2-4.3-1.7-9.1-2.6-13.7
		c-0.9-4.8-0.3-9.8-1.6-14.6c-0.3-1.3-0.1-2.8-1.4-3.9c-0.9-0.9-0.4-2.4,0-3.4c2.1-7.1,2-13.8-1.4-20.6c-2.3-4.4-3.7-9.3-5.7-13.9
		c-2.2-4.8-3.1-9.7-2.1-15c1.2-5.9-0.4-11.7-1.3-17.4c-0.8-4.8-0.5-9.5-0.3-14.2c0.2-4.8,0.6-9.6,0.4-14.4
		c-0.4-10.4-5.3-17.6-15.1-21.3c-3.1-1.2-6.1-2.6-9.6-3c5.1,10.8,9.6,21.7,15.1,32.4c2.7-2.3,0.9-6,3.5-8.4c0.2,0.4,0.5,0.7,0.5,1
		c-0.7,6.4-0.8,12.9-1,19.3c-0.3,7.5-3.6,13.9-4.8,21.1c1.8,2,2,4.6,2,7.2c0,6.5-0.1,12.9-0.8,19.2c4.1,2.7,4.2,2.8,3.7,5.2
		c-1.5,0.5-2-1-2.9-1.6l0.1-0.1c0,5.1-0.1,10.1-1.2,15.3c-1.1,4.8-0.9,9.9,0.5,14.9c2.6,9.7,7.2,18.5,10.8,27.7
		c1.3,3.5,2.6,7,3.4,10.6c1.2,5.2,0.3,9.8-3.5,13.9c-1.7,1.9-2.6,4.5-3.6,6.9c-0.7,1.5-1.1,3.1-2,4.6c1.8,1.8,4,0.5,5.9,1.1
		c5.1,4.8,4.8,10-0.8,12c0.7,0.7,1.4,1.3,2.1,1.9c2.5,2.1,3.9,1.8,5.3-1c1-1.9,2.1-3.5,4.7-4.5c-0.2,2.9-3,3.9-3.3,6.3
		c0.7,0.7,1.7,0.7,2.8,0.7c1.8-1.5,1.7-4.7,4.6-5.2c-0.9,2.8-1.9,6.8-4.7,6.6c-3.9-0.2-8.5,2.3-12-2.7c0.3,5.4,1.3,9.8,2,14.3
		c0.5,3.3,0.8,6.7,1.9,9.8c1,2.6,1.8,4.9,0.7,7.6c-0.6,1.6,1.1,2.7,1.4,4.3c2,11.9,1.1,23.9,0.6,35.8c0,0.4-0.3,0.9-0.5,1.3
		c-2.8,1.1-5.7-0.3-8.5,0.6c-2.7,6-3.9,12.2-3.2,18.7c0.2,2.1,0.5,4.3-1.5,6c-0.8,0.7-0.6,2.2-0.1,3.1c2.1,3.7,2,7.9,2.5,11.8
		c0.8,5.9,1.2,11.9,1.9,17.8c0.5,4.4-0.1,8.7-1,12.8c-1.6,7-1.5,14-2.1,21c-0.8,9.1-0.8,18.2-2,27.2c-0.5,3.8,0.9,7.6,0.6,11.3
		c1.5,1.2,3.4,0.1,4.6,1.7c0.1,6.8,3.3,12.2,8.3,17.1c4.4,4.2,7.7,9.5,11.9,13.8c3.1,3.1,5.5,6.3,5.9,10.9c0,0.1-0.1,0.6-0.4,0.7
		c-3.4,1.2-5.2,5-8.6,5.8c-4.7,1.2-9.5,2.5-14.5,1.8c-1.8-0.2-3.6-0.5-5.4-0.6c-4.7-0.4-8.4-2-8.9-7.2c-1.5-1-2.9-1.6-4.6-1.4
		c-3.6,0.3-6.9-0.8-10.1-2c-3.6-1.3-5.6-4.6-7.8-7.4c-0.9-1.1-0.3-2.5,0.6-3.6c1.1-1.4,1.6-2.9,0.9-4.7c-0.5-1.3,0.3-2.3,0.7-3.4
		c1.7-4,4-7.9,2.7-12.7c-0.4-1.6,0.7-3.1,1.9-4.1c1.4-1.2,2.1-2.5,1.6-4.1c1-1.5,2.6-1.5,3.9-2.4c0.5-3-0.2-6.3,0.8-9.9
		c2.1,3.1,0.5,6.4,1.6,9.6c3.2-0.8,6.7-0.5,9.8-2.4c0.5,0.3,0.5,1.4,1.6,1c0.1-0.2,0.4-0.4,0.3-0.6c-0.9-5.7,0.4-11.2,0.8-16.8
		c0.7-10.6,1.4-21.3,2.2-31.9c0.3-3.7,0.6-7.4,1.3-11.1c1.6-8.4,0.1-16.7-1-25c-0.5-3.4-0.6-6.9-2.1-10.6c-0.7,2.2-1.4,4.1-2.3,6.8
		c-0.4-4.1-0.4-7.3,1.8-9.9c0.3-1.2-0.8-1.5-1.2-2.1c0.9-3.5,3.4-6.6,3.1-10.3c-0.5-5,1.3-9.9,1-15.4c-11.7,2.4-22.4-0.2-33.7-1.8
		c-1.6,1.2-2.2,4.7-0.8,8c4.2,9.6,5.5,19.6,3.9,30c-0.9,5.9-1.7,11.9-2,17.8c-0.3,7.1,1.1,14.1,3,20.9c0.8,2.8,1.5,5.5,2.1,8.3
		c2.6,12.7,5.9,25.2,6.9,38.1c0.3,4.5,0.1,5.7-1.8,8.4c-0.8-0.2-1.1-1-1-1.7c0.5-11.1-2.5-21.8-4.3-32.6c-2-11.8-4.6-23.5-6.9-35.2
		c-0.9-4.8,0-9.6,0.8-14.3c1.3-8.1,2.3-16.1,1.1-24.3c-0.4-2.7-2-4.8-2.4-7.5c-0.9-5.5-2.6-11-2.3-16.7c-0.7-0.2-1.3-0.5-1.8-0.6
		c-4.7-0.7-4.9-0.9-5.1-5.5c-0.2-4,0.3-8.1-0.4-12.8c-3,4.5-2,9.4-3.5,13.9c-0.4,0.7-1.7,0.7-2.1,1.9c-0.6,1.7-2.1,2.1-3.8,2.1
		c-2.5,0-3.8,1.3-4.5,3.7c-1,3.6-2.1,7.1-4.3,10.2c-1.3,1.9-1.7,4.2-1.7,6.5c-0.3,8.5-3.7,15.4-10,21c-0.2,0.2-0.6,0.2-1.7,0.6
		c1.4-2.9,3.2-4.7,5-6.5c1.7-1.6,2.9-3.5,3.2-5.8c1.5-9.8,4.1-19.3,7-28.6c-0.9-0.7-1.8-0.6-2.5-0.4c-10.2,2.1-20.5,1.7-30.8,2
		c-1.9,0.1-3.5,0.4-4.6,2.2c0.3,2.5,0.4,5.1,1.4,7.6c0.5,1.3,0.5,2.8,0.5,4.2c0,7.8-0.6,15.5-4.1,22.7c-3.4,6.9-3.2,14.5-4.2,21.9
		c-0.9,6.7,0.2,13.3,1.3,19.9c1.5,9.4,1.8,19.1,3.5,28.5c1.3,7.2,1.8,14.4,2.7,21.7c0.3,3-0.1,6,0.4,8.9c1.6,0.5,2.9,0,4.2-0.7
		c1.1-2.4,0.2-5,0.8-7.5c1.2,1.9,1.2,1.9,1.3,6.9c3,0,5.8-0.7,9-1.2c-2.5-9.9-0.4-19.4,0-28.9c0.1-3-0.6-5.9-0.8-8.9
		c-0.3-4.9-0.2-9.7,1.5-14.4c1,8-0.5,16,0.7,24c3.6-11.7,7.7-23.3,9.4-35.4c0.9-6.2,0.2-12.7,0.1-19c-0.1-4.2-0.5-8.4-0.6-12.5
		c-0.1-1.3-0.4-2.9,1.6-4c0.2,2.4,0.4,4.4,0.5,6.5c0.6,10.9,2.4,21.8,0.2,32.6c-1.8,8.9-3.5,17.8-6.8,26.3c-1.4,3.6-2,7.4-2.5,11.2
		c-0.9,7.3-3,14.6-1.7,22c4.7,0.2,6.3,2.4,6,7.1c-0.2,3.2-1.1,6.2-1.9,8.9c0.4,1.9,2.3,2.2,2.8,4c-1,1.6-0.3,3.2,0.7,5.1
		c2.2,4.2,4,8.7,5.6,13.2c0.7,1.8,1.3,3.5,2.6,5c2.4,2.8,2.4,6.7,4.1,9.8c-0.8,1.7-2.4,2.2-4.1,2.5c-6.1,1.1-12.3,2-18.6,1.7
		c-4.2-0.2-8.2-1.7-11.9-3.5c-1.5-0.7-2.8-2.1-2.9-3.5c0-2.4-1.3-3.7-2.8-4.9c-4-3.2-4.5-8.4-1.8-12.5c1.5-2.2,2.5-4.4,1-7
		c-0.2-0.3-0.2-0.8-0.1-1c1.9-4.9,0.3-10.5,2.7-15.3c0.6-1.2,0.2-2.4,0-3.5c-1.3-6.6-1.1-13.3-1.8-19.9c-0.5-4.8-1.1-9.5-1.8-14.2
		c-2.2-13.3-3.6-26.8-5.7-40.1c-0.5-3.4,0.3-6.9,0.7-10.4c1-10.1,3.5-19.7,8-28.9c1.9-3.8,1.5-8.2,0.3-12.3c-1.4-4.9-1.6-9.8-2-14.8
		c-2.1-0.5-4-0.8-6.1,0.9c-1.3-4.4-0.9-8.4,0.5-11.9c0.9-2.2,1-4,0.6-6.1c-1.1-5.9-2.3-12-0.8-17.8c2.4-9.5,1.9-19.1,3-28.7
		c0.1-1.3,0.5-2.6-0.2-4.4c-11.4,0.8-22.9,1.6-34.5,2.4c-0.6,7.4-1.2,14.6-3,21.5c-2.2,8.5-5.4,16.6-10.4,23.9
		c-10,14.5-23.8,19.3-41,16.4c-14.4-2.4-23.4-11.2-30-23.2c-5.1-9.2-7.7-19.3-9.2-29.7c-0.1-0.6-0.2-1.2-0.3-1.8
		c0-0.1-0.2-0.2-0.4-0.4c-11.6,0.2-23.2,2.1-34.8,1.8c-4.5-4.4-4.6-7.8-0.2-11c0.8-0.6,1.6-1,2.6-1c10.7,0.1,21.2-1.4,32.1-1.8
		c0.6-5,0.9-9.8,1.7-14.6c1.9-11.7,6-22.5,12.8-32.4c13.8-20.3,49.5-22.9,65.5,0.2c7.9,11.5,12.1,24.1,13.8,37.7
		c0.1,0.7,0.2,1.4,0.3,2.6c12.9-0.9,25.7-1.8,38.9-2.7c-3.9-6.5-4.7-12.7,0-18.7c-1-5.1-2.3-10-4-14.9c-4.1-11.3-9.2-22.3-10.6-34.5
		c-0.4-4-0.7-7.9,0.5-11.8c0.8-2.6-0.2-5.5,1.9-8.2c1.2,2.3,1.1,4.6,0.8,6.6c-1.3,7.6-0.5,15,1.7,22.3c1.9,6.4,3.6,13,6.3,19
		c2.5,5.4,3.9,11,5.4,16.6c0.8,3.1,0.6,6-0.9,8.7c-1.3,2.4-1.7,4.7-0.9,7.2c0.6,1.6,0.2,3.3,0.1,5.1c4.6,3.1,3.6,7.7,2.7,11.8
		c1,1.6,2.2,1.6,3.6,1.3c1.6-2.9,3.3-6,5.3-9.6c0.5,4.8-1.3,8.2-3.3,11.7c0.9,0.5,1.8,1.1,2.9,1.8c2.5-3.1,3.4-6.9,5.6-9.9
		c0.9-0.3,1.5,0.1,2.1,0.8c-1.5,2.7-3,5.5-4.5,8.5c3.5,1.1,2.9-2.1,4.1-3.4c1.4-1.5,1.1-3.9,2.8-5.2c1.4,0.6,0.6,1.5,0.4,2.1
		c-0.7,2.3-2.1,4.3-2.6,6.6c-0.3,1.7-2,2.4-3.3,2.3c-1.7-0.2-3.7,0.3-5.1-0.5c-3.4-1.8-7.1-2.5-10.9-3.6c-1.2,1.7-1,3.8-1,5.8
		c-0.1,8.6-0.4,17.4-1.8,25.8c-1.3,7.4-0.3,14.3,0.7,21.4c0.5,3.8-0.9,7.5-1.2,11.7c17.2-0.8,34.4-0.8,51.2-2.9
		c2.1-4.9,3.6-9.4,3.5-14.3c0-6.5,0.9-13,2.9-19.1c1.9-5.9,2.8-12.2,6-17.7c0.3-0.5,0.3-1.2,1.5-1.3c1.6,9,6.3,17,8.5,25.9
		c-3.2-6.2-5.7-12.7-8.2-19.1c-1.4,0.3-1.3,1.2-1.4,2c-0.6,4.4-1.2,8.8-1.9,13.1c-0.2,1.4,0.3,2.6,0.9,3.7c2.3,4.3,4.3,8.8,6.1,13.4
		c0.3,0.7,1,1.4,0.2,2.7c-2.7-5.1-4.4-10.4-7.3-15.3c-0.8-0.1-1.5,0.2-2.6,0.7c2.1,6.7,4.6,13.4,5.3,21.3c-2.3-3.6-2-7.2-3.4-10.3
		c-0.3,4.3,0.9,8.5,1.2,12.8c10.8,3.1,21.5,6.1,33,4.9c6.3-0.7,12.6-0.9,19.2-0.4c0.4-8.1,1.8-16,0.8-24c-0.2-1.6-0.7-3.3-1.4-4.8
		c-1.8-3.8-1.9-7.8-1.5-11.9c0.5-4.8-1.1-9.2-1.8-13.8c-0.9-5.9-2.1-11.7-2.4-17.8c-3.9-0.6-7.8,0.2-11.7,0.4
		c-21.2,1.3-42.3,2.9-63.4,4.3c-2.7,0.2-5.1,0.4-6.4,3.5c-0.5,1.3-1.9,2.7-4.3,1.9c4.1-2.7,5-7,6.6-11c0.8-1.9,0.8-3.5-0.4-5.4
		c-3.8-6-6.9-12.5-9.6-19.1c-0.5-1.1-0.6-2.3-0.6-3.5c0-7.9-0.5-15.7-2.2-23.5c-1.1-5,0.3-10,0.8-15c0.2-1.8,0.2-3.5-0.1-5.3
		c-0.6-3.8-1-7.6-0.8-11.4c0.3-5.2-0.5-10.3-1.2-15.4c-0.2-1.3-0.7-2.5-0.3-4.2c1.8,1.2,2.2,3,3,4.7c4.6,1.5,9.2,3,13.8,4.5
		c-4.5,0.3-8.6-1.6-13.3-2.8c0.9,6.7,2,13.1,0.9,19.1c0.8,1.6,2,0,2.7,0.9c-2.9,4.3-0.1,9.1-1.9,13.4c25.3,1.5,50-1,75.1,1.2
		c-0.8-7.1,1.9-13.4,0.3-20.3c0.8-0.6,1.5-1.6,1.3-3c-0.7-5.9,1.4-11.6,1.7-17.4c0.4-8.8-0.3-17.7,1-26.5c0.3-1.9-0.5-3.6-1.5-5.4
		c-1.5-2.6-1.9-5.8-0.7-8.5c2.9-6.5,3.5-13.5,3.6-20.4c0-4.5-2.1-9.1-4.6-13c-4.2-6.5-7.8-13.3-10.3-20.7c-1-2.8-2.5-5.1-5.3-6.6
		c1.2,3.5,1.6,7.1,3.3,10.4c3.8,7.4,2.6,18.6-2.3,24.5c-4.3,5.1-9.9,5.9-15.9,5.2c-2.4-0.2-4.7-0.9-7-1.5c-7-1.6-10.2-7.5-14.1-12.5
		c-5.8-7.3-7.9-16.6-12.3-24.6c-1.3-2.3-2.4-4.7-3.5-6.9c-1.3-0.4-1.8,0.6-3,0.9c2.3,6.1,3.8,12.2,5.1,18.3
		c2.7,12.7,3.4,25.6-1.3,38.2c0,0.1,0,0.2,0,0.5c1.1,1.6,3,2.5,4.8,4.3c-2.4,0-3.8-1.4-5.4-2c-0.9,0.2-1.2,1-1.5,1.8
		c2.5,2.8,5.3,5.1,9.5,6.4c-5.3,2.4-8.7-0.1-12.3-3.9c-0.7,4.5,0.5,8.2-0.3,12.2c3.2,0.8,4,4.2,6.7,5.6c2.5,1.3,5.6,1.5,7.7,3.8
		c-4.9-1.8-11.1-0.7-14.3-6.7c-0.7,3.3-2.4,6.1-0.1,9.1c1.9,2.6,5.3,2.5,8.1,5.2c-3.9,0.1-6.8-0.8-9.8-2.9
		c-1.1,5.5-3.5,10.1-5.5,15.6c-1-3.1-0.3-5.6,0.2-8c1.2-4.8,2.3-9.5,2.8-14.4c0.4-3.8-0.3-7.6-0.6-11.5c-0.1-1.6-3-2.7-1.7-4.8
		c1.2-1.9,0.3-3.4-0.4-5.1c0.5-1.6,2.1-3.2,1.3-5c-0.7-1.6-1.4-3-0.9-5.1c4-0.4,5.5,3.1,8.3,5.5c6-16.2,4.2-31.8-1.5-47.3
		c-1.8-0.8-3.4-1.5-5-2.2c-0.3-0.1-0.5-0.5-1-0.9c1.9-0.1,3.3,1.2,5.2,0.8c-0.5-2.1-1.2-4-2.1-5.8c-9.5,2-18.8,4.1-26.3,9.5
		c-1.8,4.9-6.1,7.9-7.7,12.6c-1.6,4.4-1.1,9.4-4.4,13.2c-0.6-4.9-0.3-9.8,1.9-14.3c2.7-5.6,4.9-11.8,10.8-15.2
		c0.3-0.2,0.6-0.5,0.9-0.6c6.1-1.9,11.4-5.5,18-6.4c7.1-1,13.7-4,19.1-9c3.7-3.4,5.2-11.9,3-16.3c-0.5-1-0.8-2-0.8-3.1
		c0-3.2-1.2-6-2.3-8.9c-0.3-0.8-1.1-1.7-0.9-2.3c1.2-3.5-1-6.1-1.8-9.1c-0.9-3.5-0.2-6.7,0.7-10.2c1.1-4,3.7-7.6,3.7-11.9
		C354.1,130.3,354.9,130.3,355.3,130.7c0.7,0.2,1.3,0.2,2,0.2C356.6,130.8,356,130.8,355.3,130.7z"/>
	<path d="M304.1,238.9c1.3,0.6,1,1.7,0.9,2.8c-0.3,3.3-0.4,6.7-1.1,10c-1.9,9.2,0.2,18,2.3,26.9c1.8,7.7,3.9,15.3,3,23.3
		c-0.3,2.8,0.7,5.7,0.9,8.5c0.1,1.5,1.1,1.8,2.4,2.2c-0.5,1.2-1.9,1.9-0.8,3.7c-3.3-1-4.4-2.8-4.4-5.3c0-8.2-1.2-16.2-2.4-24.3
		c-0.9-6.3-3.1-12.2-4.7-18.3c-1.7-6.4-0.1-12.6,1-18.8c0.6-3.2,1.2-6.3,1.9-9.5C303.1,239.5,303.4,239,304.1,238.9z"/>
	<path d="M864.3,219.1c1.8-5.2,3.7-10.2,1.8-16c-0.9-2.9-0.6-6.3-0.8-10.2c2.1,1.6,2.9,2.9,3,4.9c0.1,2.7,0.5,5.4,1,8.1
		c1,5.2-0.8,10.2-3.2,14.8c-0.4,0.7-0.9,1.5-2.1,1C863.2,220.7,864.4,219.9,864.3,219.1L864.3,219.1z"/>
	<path d="M406.4,529.5c3.9,5.9,4.3,12.5,3.5,19.2c-0.4,3.6-0.6,7.2-0.9,10.7c-0.1,1,0.2,2.2-1.6,3.1
		C408.7,551.3,406.7,540.4,406.4,529.5L406.4,529.5z"/>
	<path d="M874.3,530.2c4.1,7.6,4.5,15.6,2.7,23.9c-0.5,2,0.2,4.3-0.2,6.5c-0.1,0.9,0,1.9-1.3,2.6
		C876.6,552.1,874.4,541.2,874.3,530.2L874.3,530.2z"/>
	<path d="M804,392c-2.8,3-7.3,3.1-10.5,0.1c1-0.7,2.1,0.3,3.3-0.6c1.9-2.7,2.4-6.5,5-9.2c0.9-0.3,1.5,0.1,2.1,1
		c-0.4,1.4-2.1,2.3-2,4c0.5,0.2,1.8-0.9,5.1-4.9C806.6,386.4,804.6,389.1,804,392L804,392z"/>
	<path d="M389.8,153.9c-1.6,0.2-3.3,0.4-3.7,2.2c-3.4,0.5-6.4,0.2-10.2-0.2c2.8-2.6,5.9-1.7,8.5-2.9c-1.7-0.9-3.7-0.3-4.9-1.5
		c-1.8,0.2-2.7,1.9-4.8,1.3c3.5-3.8,7.7-3,11.8-2.6C388.5,150.5,389.9,151.5,389.8,153.9z"/>
	<path d="M839,155.6c3.9-4.8,12.4-5.3,14.8-0.9c-3.6,3.7-8,4.5-13.5,3.6c2.8-2.3,5.8-2.2,8.3-3C846.8,154.1,845.9,154.1,839,155.6z"
		/>
	<path d="M788,302.1c-0.1-3.3-2-6.2-1.7-9.7c0.3-2.5-1.9-4.9-4.2-6.7c-3.6-2.8-5.2-7.4-4.3-11.7c1.6,0,1.6,1.2,1.7,2.2
		c0.5,4,1.9,7.2,5.1,9.9c2.4,2.1,4.5,4.8,3.5,8.5c-0.3,1.2,0.5,2.3,0.7,3.5C789,299.4,789.2,300.8,788,302.1z"/>
	<path d="M328.5,519.8c-1.6,0.8-2.1,2.2-2.8,3.4c-0.7,1.2-1.3,2.5-2,4.1c-0.1-3.9,0.8-5.5,4.9-9.8c1,0,1.1,1.1,1.9,1.2
		c-0.8,2.8-1.5,5.3-3,7.5c-2.1,3.2-1.7,6.9-1.1,10.4c0.6,3.6,0.5,7-1.5,10.4c-1-0.8-0.6-1.6-0.4-2.3c1-2.7,0.8-5.4,0.3-8.1
		c-0.8-4.2-0.4-8,1.9-11.7C327.8,523.4,328.3,521.7,328.5,519.8z"/>
	<path d="M329.3,497.7c2.6,0.6,5.2,1.3,7.5,1.9c6-1.8,10.4-5.5,14-11c-0.4,5.4-4.4,9.7-9.8,11.7
		C336.5,501.9,332.6,501.8,329.3,497.7z"/>
	<path d="M779.4,251c-3.8-3-4.8-6.2-3-11.3c0.7,4.8,4,7.4,4.9,11.3c0.5,2.4-0.6,4.5-0.6,6.9c0,1.8,0.9,4.2-1.4,6.5
		C779.4,259.6,778.4,255.5,779.4,251z"/>
	<path d="M856.1,315.6c-2.8-5.5-2-16.3,1.7-19.6C858.3,302.9,857.2,309.2,856.1,315.6z"/>
	<path d="M858.6,268.8c1.8,8,1.6,15.9-1.2,23.9c-0.1-7.9,0.3-15.9-0.3-23.8C857.6,268.8,858.1,268.8,858.6,268.8z"/>
	<path d="M830.5,276.6c0.1,4.5-3,11.3-7.5,16.8c0.8-4.3,2.8-7.7,4.5-11.1c0.5-1,1.2-1.9,1.4-2.9c0.3-1.6,0.2-3.4,2-4.3
		c3.4-1.6,6.4-4.2,10.4-4.2c0.3,0,0.5,0.4,1.2,0.9C838,272.7,834.2,274.4,830.5,276.6z"/>
	<path d="M374.1,188.3c-4.2-3-8.4-5.9-12.6-8.9c0.7-3.6-2.9-7.2,0.4-10.7c0.1,3.9,1.4,7.5,2.7,11c3.5,2.4,7.3,4.3,10.2,7.6
		C374.6,187.7,374.3,188,374.1,188.3z"/>
	<path d="M326.9,462.6c-0.1,1.2-0.4,2.4,0,3.7c1.6,1.1,3.8-0.2,5.4,1c2.2,1.7,1,3.3-0.2,4.8c0.4,0.9,0.8,1.6,1.1,2.4
		c-2.2,1-2.3-1.8-3.8-2c-1.6-0.1-0.5,2-2,2.3c-1.7-1.6-0.2-4-1.3-6.4c0,2.4,0,4.2,0,6C325.2,470.3,325.3,466.4,326.9,462.6
		L326.9,462.6z"/>
	<path d="M792.2,239.4c1.1,0.1,1.6,0.3,1.7,0.8c0.9,4,2.9,7.9,2.3,12.1c-0.2,1.5,0.4,2.5,0.8,3.7c1,3,0,5.8-3.3,7.8
		C796.3,255.3,794.4,247.5,792.2,239.4z"/>
	<path d="M320.1,316.1c-4.4-0.4-7.4-2.7-8.3-7.1c-0.5-2.1-1.4-4.7,1.3-6.2c1.1,0.5,0.9,1.3,0.9,1.9c0.5,3.8,1.8,7.1,5.1,9.4
		c0.6,0.4,1.2,0.9,1.3,1.6L320.1,316.1z"/>
	<path d="M818.2,255.5c0-1.2,0.3-2.2,1.4-3.3c5.7,4.9,12.9,7.4,19,11.9C831.4,262.3,825.8,256.8,818.2,255.5z"/>
	<path d="M351.1,474.2c-4.4,1.1-6.6,0.7-7.6-1.4c-0.8-1.6-0.8-3.3,0.5-4.7c1.5-1.6,3.3-1.9,5.2-1C351.3,468,351.6,469.3,351.1,474.2
		z"/>
	<path d="M818.9,475.6c-4.4,1.1-6.6,0.7-7.6-1.4c-0.8-1.6-0.8-3.3,0.5-4.7c1.5-1.6,3.3-1.9,5.2-1
		C819.2,469.5,819.5,470.8,818.9,475.6z"/>
	<path d="M794.5,232.3c-3-5.1-7.4-8.1-10.2-12.5c-1.5-2.4-1.9-6.9-0.1-9.9c0.9,3.3,0,6.6,1.1,9.7c0.5,0.8,1.3-0.8,1.5-0.3
		c1.2,1.4,1.2,2.8,1.8,4C791.8,225.1,794.2,227.4,794.5,232.3z"/>
	<path d="M395,319.5c-0.2,6.3,0.8,12.6,0.1,18.9c-0.2,1.7-0.2,3.6-2.7,4.7c1.4-7,1.8-13.6,0.2-20.5
		C394.8,322.7,393.1,319.9,395,319.5L395,319.5z"/>
	<path d="M305.9,269c1.5,0.1,1.7,1.5,2.3,2.4c1.2,1.6,2.1,3.4,4.3,4.1c0.6,0.2,1.2,0.8,1.6,1.4c1.6,2.4,0.7,5.6,2.5,8
		c-1.5-1.8-3.6-2.9-3.7-5.6c0-1.7-1.4-2.5-3-3.2C306.5,274.6,305.1,271.9,305.9,269z"/>
	<path d="M800.9,476.1c-2.2,0.3-2.2-2-3.5-2.2c-1.8-0.1-0.5,2.5-2.8,2.1c-0.4-2.4-0.2-4.9-0.1-7.4c1.6-0.7,3-0.5,4.4-0.3
		c1.6,0.2,3,1.6,2.2,3C800.2,473,800.1,474.5,800.9,476.1z"/>
	<path d="M338.2,474.9c-2.4,0.1-4.4-1.7-4.4-4.1c0-2.2,1.7-4,4-4.1c2.4-0.1,4.6,1.7,4.7,3.9C342.7,472.7,340.5,474.8,338.2,474.9z"
		/>
	<path d="M805.9,468.1c2.4,0,4.6,2,4.5,4.1c0,2.1-2.3,4.1-4.6,4.1s-4.1-1.7-4.2-4C801.5,470,803.4,468.1,805.9,468.1z"/>
	<path d="M315.9,352.3c-0.5-6.5-6-11.8-4.5-18.8c0.3-0.1,0.7-0.2,1-0.2c1.5,6.3,3.1,12.5,4.6,18.8
		C316.6,352.2,316.2,352.2,315.9,352.3z"/>
	<path d="M853.5,346.8c0.2-0.6,0.2-1.2,0.9-1.4c7.4-1.8,14.9-2.8,22.6-3.2C869.3,344.2,861.4,345.6,853.5,346.8L853.5,346.8z"/>
	<path d="M338.7,506c-2.8,5.1-1.5,10.2,0.2,15.5c-2.8-1.9-4.8-5.1-3.8-7.2C336.4,511.6,334.9,507.7,338.7,506z"/>
	<path d="M855.5,317.9c2.2,2.4,1.9,4.4,1.1,6.4c-0.8,2.1-1.1,4.1-0.3,6.2c0.7,1.9,0.5,3.8-1.3,4.9
		C853.1,329.8,855.3,324.2,855.5,317.9z"/>
	<path d="M423.7,307.3c1.4,2,0.4,3.9,0.2,5.8c2.9,4.7,3,7.1-0.2,10.2C424,317.7,421.8,312.6,423.7,307.3z"/>
	<path d="M415.5,496c0.7,2.1,0,4-1.8,4.5c-3.5,0.9-6.8,4-11.3,2.2c1.9-2,4-1.7,5.9-2.2C411.1,499.7,414.3,499.7,415.5,496z"/>
	<path d="M809.6,267.7c1.5,5.8,5.2,10,10.3,13c-3.6-1.7-7.4-2.8-9.1-6.8c-0.4-1-1.5-1.8-2.1-2.8
		C807.8,269.9,807.2,268.8,809.6,267.7z"/>
	<path d="M861.5,251c5.4,1,7.8,7,13.4,6.5C869.8,258.9,864.5,256.4,861.5,251z"/>
	<path d="M412.2,541.3c-0.3-3.9-0.3-7.6,2.6-10.7c1.4-1.6,1.4-4,3-6.5c0.7,2.6,0.3,4.5-0.7,5.8c-2.2,2.8-3.2,6-3.9,9.4
		C413,540,413,540.8,412.2,541.3z"/>
	<path d="M870.7,503.2c4-2.7,10.4-0.3,12.7-6.9c0.9,2.5,0.3,4.2-1.1,4.8c-3.2,1.5-6.4,3.2-10,3.3C871.7,504.4,871,504.4,870.7,503.2
		z"/>
	<path d="M393.2,283.6c-1.1-4.7-2.5-9.4-0.9-14.2C393.9,272.5,394.3,280.2,393.2,283.6z"/>
	<path d="M895.5,290.1c-0.3,1.7-1.2,2.9-1.4,4.4c-0.1-4-3.5-7.2-2.5-11.3c0.3-1.1,0.2-2.4,2-3C895.4,283.3,890.3,288,895.5,290.1z"
		/>
	<path d="M880.1,541.3c-0.3-3.6-0.1-6.7,2.3-9.2c1.7-1.7,1.2-4.5,3.3-6.4c0.6,2.4,0.1,4.4-1.1,6c-1.9,2.4-3.1,5-3.3,8
		C881.2,540.1,881.1,540.8,880.1,541.3z"/>
	<path d="M388.5,220.6c-3.3,2.3-5.9,2.5-8.7,0.6c-1.7-1.2-3.7-1.8-6.2-2.8c2.6-1.3,4.8-0.5,6,0.5c2.2,1.9,4.3,2,6.9,1.3
		C387.1,220.1,387.9,220,388.5,220.6z"/>
	<path d="M322.6,268.8c-2.2-3.4-3.4-7-3-11C322.5,260.9,322.6,264.9,322.6,268.8z"/>
	<path d="M395.9,182.6c-2.7,1.4-5.2,1.6-7.7,0.7C389.3,179.4,392.3,179,395.9,182.6z"/>
	<path d="M904.2,264.3c0.4,5.2-2.9,10.8-7.1,12.1C899.8,272.4,902.1,268.7,904.2,264.3z"/>
	<path d="M863.7,178.6c-4.3,0.3-8.3,2.5-12.8,1c4.2-0.9,8.3-2.3,12.6-2.5C863.6,177.6,863.6,178.1,863.7,178.6z"/>
	<path d="M384.5,178c4.3-0.7,8.5-2,12.9-0.8C393.2,178.5,388.9,179.2,384.5,178z"/>
	<path d="M854.9,184.2c0.2-1.8,1.1-2.8,2.9-2.9c1.7-0.1,3.6-0.2,4.6,1.7C859.7,185.1,857.6,185.4,854.9,184.2z"/>
	<path d="M359.7,213.8c4,1.2,8,2.5,11.9,3.7C368.9,219.2,363.2,217.3,359.7,213.8z"/>
	<path d="M819,335.1c4.8,2.2,6.6,6.8,3.8,10C822.4,341.4,820.4,338.7,819,335.1z"/>
	<path d="M860.9,246.6c-0.4,4.1-2.5,6.9-5,10.1C855.1,253.6,856.8,250.3,860.9,246.6z"/>
	<path d="M818.2,334.1c-2.4-3-4.6-6-5.1-9.9C815.2,327.4,817.6,330.3,818.2,334.1z"/>
	<path d="M393.9,301.1c0.7-3.7,0.4-7.6,0.5-11.8C396.9,292.3,396.7,296.2,393.9,301.1z"/>
	<path d="M372.5,448.1c0.5,4.9-1.9,9.2-3.4,13.7c0.8-4.6,1.6-9.2,2.4-13.7C371.8,448,372.1,448.1,372.5,448.1z"/>
	<path d="M856.9,198c-0.5,1-1,1.7-2,2.3c-4.4-0.1-8.1-2.7-12.1-4.2c4-0.2,7.2,2.2,10.9,3.2C854.8,199.2,855.3,197.4,856.9,198z"/>
	<path d="M391.4,306.9c-3.5,1.8-7.4,1.5-11.1,1.7c-0.1-0.3-0.1-0.6-0.2-1c3.7-0.6,7.4-1.1,11.1-1.7
		C391.3,306.2,391.4,306.5,391.4,306.9z"/>
	<path d="M368.1,270c-5.9,1-5.9,1-7.9-2.1C363.4,267,365.7,268.8,368.1,270z"/>
	<path d="M312,241.9c1.7,0.5,1.9,2,3.1,3c1.5-0.8,2.9-0.9,3.1,2c-2.1-1.2-4.7,0.8-6.2-2C311.5,244,310.7,243.1,312,241.9z"/>
	<path d="M395.1,319.5c0.7-4.1-1.4-7.8-1.1-11.9c2.3,3.5,2.2,7.6,2.3,11.5C396.3,319.7,395.5,319.4,395.1,319.5L395.1,319.5z"/>
	<path d="M863.8,269.4c3.8,2.8,7.2,5.9,9.2,10.4C870.2,276.1,866,273.6,863.8,269.4z"/>
	<path d="M859.6,217.3c-1.9-2.4-2.5-5.5-2.4-11.9C858.3,206.6,859.6,213,859.6,217.3z"/>
	<path d="M874.4,530.1c-1.9-3.1-2.9-6.6-3-10.3C873.7,522.9,874.1,526.5,874.4,530.1L874.4,530.1z"/>
	<path d="M320.4,315.8c3.8,1,4.4,4.1,4.6,7.5c-1.7-2.4-3.9-4.4-4.8-7.3L320.4,315.8z"/>
	<path d="M406.5,529.5c-1.5-3.4-3-6.8-3-10.7C405.9,522,406.6,525.6,406.5,529.5L406.5,529.5z"/>
	<path d="M309.8,243.1c-2.9-1.6-4.3-4.1-4.3-7.4C308.6,237.2,307.9,240.9,309.8,243.1z"/>
	<path d="M861.6,241.6c-1.4-3-0.9-6.1-0.1-9.1C862.4,235.5,862.5,238.5,861.6,241.6z"/>
	<path d="M435.7,365.1c-0.6-1.3-0.7-2.3-0.4-3.5c1.1,1.9,1.9,3.8,4.1,4.6c2.1,0.7,4.1,1.8,5.4,3.8
		C441.7,368.4,438.5,366.7,435.7,365.1z"/>
	<path d="M837.7,460.3c-0.2-3.9,1.1-7.5,1.7-11.3C840.9,450.8,840,456.2,837.7,460.3L837.7,460.3z"/>
	<path d="M311.3,329c-0.3-3.6-1.2-7.4,1.3-10.7C313.1,321.9,311.8,325.4,311.3,329z"/>
	<path d="M324.6,326.6c0.5,3.1,1,6.2,1.6,9.3c-2.4-2.8-3-5.9-2.4-9.2C324,326.6,324.3,326.6,324.6,326.6z"/>
	<path d="M364.9,184.7c3,2.5,4.3,6,6.1,9.3C367.9,191.6,366.5,188,364.9,184.7z"/>
	<path d="M841,187.4c-3.4-1.8-6.1-4.4-7.7-8C835.8,182.1,838.7,184.5,841,187.4z"/>
	<path d="M396.9,169.2c-1.7,2.6-4.3,0.9-6.1,2.4C391.2,168.6,392.6,168.1,396.9,169.2z"/>
	<path d="M405.1,494c-3.4,0.3-6.8,0.2-10-1.3C398.5,492,401.7,493.8,405.1,494z"/>
	<path d="M386.9,267c-1.8,1.3-3.6,3.1-6.5,2C382.3,266.7,384.4,266.2,386.9,267z"/>
	<path d="M329.6,450.2c0.4-1.9-0.2-3.7-0.8-5.5c-0.8-2.6-0.8-5.1,0.5-7.5c-0.7,3-0.1,5.8,0.8,8.6
		C330.6,447.3,330.6,448.8,329.6,450.2L329.6,450.2z"/>
	<path d="M856.5,173c0.3-3.3,1.9-4,5.8-3.1C861.2,172.9,858,170.7,856.5,173z"/>
	<path d="M876.5,512.2c2.2-0.8,3.7-1.9,5.6-2.2C881.8,513.3,880,514.1,876.5,512.2z"/>
	<path d="M326.1,338.5c1.8,2.6,2.9,5.6,3.5,8.7C328,345.7,325.8,340.6,326.1,338.5z"/>
	<path d="M894.2,275.3c-2.1-1.2-4.3-2.3-4.5-5.7C892.3,271.1,893.4,273.1,894.2,275.3z"/>
	<path d="M442.7,399.8c0.8-2.8-2.1-5.5-0.2-8.3C441.8,394.3,445.3,397,442.7,399.8z"/>
	<path d="M408.7,511.2c2.1-0.9,3.7-1.6,5.4-2.4C414.3,512.1,412.5,513,408.7,511.2z"/>
	<path d="M863,493.7c3.3-0.4,6.4,0.8,9.6,1.5C869.3,495.5,866.1,495.1,863,493.7z"/>
	<path d="M434.4,355.3c-0.4-3.3-2.4-6-3-9.2C433,349,435,351.7,434.4,355.3z"/>
	<path d="M323.1,371.4c-1.8-2.3-2.3-5-2.1-7.8C321.2,366.4,323.1,368.6,323.1,371.4z"/>
	<path d="M805,276.4c0.5,2.1,1,4.2,1.4,6.3C803.7,281,803.2,279.7,805,276.4z"/>
	<path d="M314.8,249c2,1.5,2.9,3,3.4,5C315.5,253.6,314.6,252.4,314.8,249z"/>
	<path d="M424.7,300.3c-0.3-2.5,1.4-3.7,3.5-5.2C427.8,297.8,426.4,299.1,424.7,300.3z"/>
	<path d="M797.4,450.9c0.5-1.7-0.2-3.3-0.7-4.8c-0.5-1.7-0.8-3.4-0.2-5.2C796.3,444.2,799.7,447.2,797.4,450.9L797.4,450.9z"/>
	<path d="M344.5,301.5c-2.2,1.1-3.9,0.9-5-1.7C341.8,298.7,343,300.7,344.5,301.5z"/>
	<path d="M342.7,555.4c0,2.8,0,5.6,0,8.8C341,561.1,340.9,559.9,342.7,555.4z"/>
	<path d="M836.6,343.8c2.6-0.7,5.3-1.5,7.5,1.2C841.5,344.5,839.1,344.2,836.6,343.8z"/>
	<path d="M375.4,204.2c-2-0.8-3.2-2.3-3.9-4.2C374,200.4,374.5,202.4,375.4,204.2z"/>
	<path d="M821,298.6c-1.5,1.6-2.7,3.4-4.4,4.7C816.9,300.7,818.4,299.1,821,298.6z"/>
	<path d="M834.4,184c-2.4-0.6-4.4-1.9-5.2-4.4C831.4,180.6,833,182.2,834.4,184z"/>
	<path d="M385.7,231.8c2.7,2.5,2.8,2.8,2.5,5.9C386.7,235.8,386.6,233.7,385.7,231.8L385.7,231.8z"/>
	<path d="M351.9,494.1c1.9,1.3,1.3,3,1.7,4.4C352.2,497.5,350.8,496.5,351.9,494.1z"/>
	<path d="M332.5,305.4c-2-2.5-2-2.5-2.1-5.3C332.4,301.3,333.2,302.8,332.5,305.4z"/>
	<path d="M403.5,588.5c1.1,1.4,0.9,2.8,0.6,4.6C402.4,591.5,403,590,403.5,588.5z"/>
	<path d="M389.5,253.3c0.5,1.5,0.8,2.9,0.3,4.9C388.2,256.3,388.7,254.8,389.5,253.3z"/>
	<path d="M320.1,536.8c0,2.2,0,4.5,0,6.7C319.5,541.2,319.9,539,320.1,536.8z"/>
	<path d="M851.6,392.5c0.2-2,0.4-4.1,0.6-6.1c0.3,0,0.5,0,0.8,0.1C853.1,388.5,853,390.5,851.6,392.5z"/>
	<path d="M794,467.6c0,2.7,0,5.4,0,8.1C793.2,473,792.7,470.3,794,467.6L794,467.6z"/>
	<path d="M438.8,403c1.7-1.2,2.7-0.2,3.9,0.4C441.5,404.7,440.3,404.6,438.8,403z"/>
	<path d="M916,365.5c1.9,2.3,1.9,2.3,0.1,5.1C916.1,368.6,916.1,367,916,365.5L916,365.5z"/>
	<path d="M871.2,589.2c1.3,1.7,0.9,3.1,0.6,4.9C870.3,592.6,870.7,591.2,871.2,589.2z"/>
	<path d="M913,337.3c2.3,0,4,1.1,5.3,3C916.6,339.3,914.8,338.3,913,337.3z"/>
	<path d="M345.8,342.9c-2,0.4-3.9,0.7-5.8-1C342.3,341.4,344,342.4,345.8,342.9z"/>
	<path d="M330.2,248.2c-0.9,1.4-1.9,2.7-4.3,3.3C326.6,249,328.6,248.8,330.2,248.2z"/>
	<path d="M405.3,317c-2.3,0.4-4,0-5.9-0.8C401.5,315.8,403.1,316.4,405.3,317z"/>
	<path d="M872.9,604.9c-1.4-2.1-1-4.4-0.4-6.7C873.2,600.5,872.9,602.8,872.9,604.9L872.9,604.9z"/>
	<path d="M337.7,307.2c2.1-1.9,3.6-0.3,5.1-0.5C341.3,307.2,339.8,307.5,337.7,307.2z"/>
	<path d="M912.7,372.9c1.4-0.8,2.5,0.1,3.8,0.5C914.2,374.8,914.2,374.8,912.7,372.9z"/>
	<path d="M355.8,294c-2.1,0.8-3-0.1-4.5-0.8C353.2,292.2,354.2,292.9,355.8,294z"/>
	<path d="M429.4,289.9c0,1.7-0.2,2.8-1.1,3.6C427.1,291.7,427.1,291.7,429.4,289.9z"/>
	<path d="M844.6,423.2c0.7-1.3,1.5-2.4,3.3-3.1C847.6,422.5,845.9,422.7,844.6,423.2z"/>
	<path d="M377.3,421.9c0.3-1.3,1.1-2.2,2.7-2.7C380,421.2,378.4,421.4,377.3,421.9z"/>
	<path d="M319,358.7c-1.3-0.8-1.9-1.9-2.3-3.9C318.4,356.1,318.6,357.5,319,358.7z"/>
	<path d="M404.7,602.5c-0.6-1.8-0.8-3.6,0-6.1C405.4,598.9,405.1,600.7,404.7,602.5z"/>
	<path d="M809.7,287.2c1.4,0.2,2.6,0.8,2.9,2.8C810.9,289.4,809.8,288.8,809.7,287.2L809.7,287.2z"/>
	<path d="M847.3,261c-1.4,1.4-2.4,1.3-3.7,0.3C844.7,260.1,845.8,260.5,847.3,261z"/>
	<path d="M916.1,365.5c-1.6-1.2-0.9-2.5-0.6-4.3C917.5,362.8,916.2,364.2,916.1,365.5L916.1,365.5z"/>
	<path d="M425.4,328c-1.2-1.2-1.7-2-0.6-3.4C425.7,325.5,426.3,326.3,425.4,328z"/>
	<path d="M342.6,550.7c-0.1-1.2,0.1-2.3,1.1-3.5c0.7,1.5-0.4,2.5-0.6,3.6C343.1,551.2,342.7,551.1,342.6,550.7z"/>
	<path d="M876.5,414.9c0.7,2.2-0.1,2.6-1.7,2.8C874.4,416.2,875.4,415.8,876.5,414.9z"/>
	<path d="M380.3,226.5c1.5,0.1,2.2,1.1,2.7,2.5C380.8,229.1,380.9,227.5,380.3,226.5z"/>
	<path d="M809.7,287.2c-2,0.2-2.3-1.3-3.3-3.1C808.7,284.7,809.3,285.8,809.7,287.2L809.7,287.2z"/>
	<path d="M340.6,401.5c1.8,1.1,2.3,2.1,2.3,3.8C341.2,404.6,341.1,403.4,340.6,401.5z"/>
	<path d="M803.1,373.5c-0.9-1-1.4-1.9-1.2-3.2C803.4,371.3,803.4,371.3,803.1,373.5z"/>
	<path d="M804.2,374.8c1.2,0.6,2,1.4,1.7,3.1C804.3,377.3,804.3,376.1,804.2,374.8z"/>
	<path d="M795.2,460.2c0.6-1.8,0.6-3.7,1.7-5.4v-0.1C796.4,456.6,796.7,458.7,795.2,460.2L795.2,460.2z"/>
	<path d="M321.1,249c-1.6-0.2-2.1-1-1.9-2.7C320.8,246.8,320.7,248.1,321.1,249L321.1,249z"/>
	<path d="M321,249.1c2.2,0.1,1.4,1.3,1.1,2.8C320.6,251,321.1,250,321,249.1L321,249.1z"/>
	<path d="M860.1,227.1c1.5,1.2,2.3,1.9,1.6,3.4C860.4,229.8,860.2,228.9,860.1,227.1z"/>
	<path d="M808.3,210.3c-1.6,0.1-2.3-0.5-3.7-1.7C806.4,208.7,807.3,209.1,808.3,210.3z"/>
	<path d="M376.5,206.3c1.7,0.3,1.4,1.4,1.9,2.5C377,208.4,376.4,207.8,376.5,206.3z"/>
	<path d="M842.2,190.3c-1.4,0.9-2-0.4-2.8-0.9C840.3,189.4,841.4,188.9,842.2,190.3z"/>
	<path d="M427.8,333c-1-0.3-2-0.7-1.6-2.2C427.9,330.8,427.3,332.3,427.8,333z"/>
	<path d="M810.9,323.1c-1.5,0-2.2-0.8-2.9-1.8C809.7,321.3,809.7,321.3,810.9,323.1z"/>
	<path d="M340.1,400.6c-1.4-0.8-1.3-1.9-1.3-3.6C340.1,398.3,340.9,399.1,340.1,400.6z"/>
	<path d="M447.3,395.5c1,1,1.3,1.8,0.6,2.8C446.7,397.6,446.5,396.8,447.3,395.5z"/>
	<path d="M373.7,269.9c-1.1,0.4-2.1,0.6-3.4-0.3C371.7,268.5,372.7,269,373.7,269.9z"/>
	<path d="M317.3,286.8c0.6,1.1,0.4,1.8-0.8,2.3C315.5,287.9,316.2,287.4,317.3,286.8z"/>
	<path d="M890.5,291.4c1.5,1.3,1.4,2.1,0.9,3C889.6,293.9,890.6,292.9,890.5,291.4z"/>
	<path d="M809.9,379.1c-0.1,1.9-1.1,2-2.4,2.2C807.8,379.9,808.6,379.6,809.9,379.1z"/>
	<path d="M801.4,380.5c1-0.8,1.7-1,2.6-0.4C803.5,381.6,802.7,381.4,801.4,380.5z"/>
	<path d="M442.5,389.9c-0.8-1.2-0.5-1.9,0.4-2.6C443.5,388.2,443.4,388.9,442.5,389.9z"/>
	<path d="M344,275.1c1.5-0.6,2,0.2,2.8,1C345.5,276.7,344.9,276,344,275.1z"/>
	<path d="M391.3,218.6c0.5-1.5,1.2-1.9,2.2-1.7C393.6,218.4,392.5,218.2,391.3,218.6z"/>
	<path d="M330,607.9c-0.2,0.9-0.3,1.8-0.5,2.7c-0.2,0.1-0.4,0.2-0.4,0.1C328.4,609.5,328.7,608.5,330,607.9z"/>
	<path d="M850.6,258.4c0.5-1.4,1.5-1.5,2.3-1.8C853.6,257.3,853.2,257.7,850.6,258.4z"/>
	<path d="M338.5,407.8c0.7-1.1,1.4-0.6,2.1-0.7c0.4,1-0.2,1.2-0.7,1.3C339.4,408.6,339,408.4,338.5,407.8z"/>
	<path d="M346.9,406.1c-0.3,2.1-1.2,2.3-2.3,2.4C344.4,407,345.6,407,346.9,406.1z"/>
	<path d="M406.9,565c0.5,0.6,0.2,1,0,1.5c-1,0.1-0.8-0.4-0.7-0.9C406.3,565.3,406.5,565,406.9,565z"/>
	<path d="M329.3,600.4c0.4,1.1,0.3,1.8,0.1,2.8C328.9,602.2,328.8,601.4,329.3,600.4z"/>
	<path d="M921.8,368.6c-1.6-0.9-1.6-1.7-1.1-2.7C922.2,366.4,921.9,367.3,921.8,368.6z"/>
	<path d="M910.9,340.8c0,0.7-0.1,1.3-0.1,2c-0.1,0-0.2,0-0.3,0c0-0.7,0-1.3,0-2C910.7,340.8,910.8,340.8,910.9,340.8z"/>
	<path d="M437.3,371.1c-0.1,0.6,0.2,1.3-0.3,1.9c-0.5-0.6-0.2-1.3-0.1-1.9C437.1,370.8,437.2,370.8,437.3,371.1z"/>
	<path d="M329.1,293.8c1.1,0.4,1.3,1.1,1,2.2C328.7,295.6,328.9,294.8,329.1,293.8z"/>
	<path d="M356.2,263.4c1.2-0.3,1.8,0,2,1C357.2,264.9,356.6,264.6,356.2,263.4z"/>
	<path d="M896.3,260.1c-0.3-1.4,0.1-2,0.9-2.5C897.7,258.6,897.6,259.4,896.3,260.1z"/>
	<path d="M886.8,203.7c1.2,0.1,1.3,0.7,1.4,1.8C887.1,205.2,886.7,204.9,886.8,203.7z"/>
	<path d="M837.7,460.3c0.1,1,0.1,2-0.6,2.8C837,462.1,837,461.1,837.7,460.3L837.7,460.3z"/>
	<path d="M373,307.9c0.8-0.6,1.3-0.6,1.7-0.3C374.4,309,373.9,308.4,373,307.9z"/>
	<path d="M874.3,567.5c-0.4-0.6-0.3-1,0.4-1.3C875.2,566.8,875.2,567.3,874.3,567.5z"/>
	<path d="M409.7,277.4c-0.8,0.6-1.4,0.3-2.5,0.1C408.3,277.3,408.8,276.7,409.7,277.4z"/>
	<path d="M362.6,265.8c0.7-0.1,1.2,0.2,1.6,0.8c-0.8,0.5-1.4,0.4-1.8-0.3C362.5,266.2,362.6,266,362.6,265.8z"/>
	<path d="M385.8,231.8c-1,0.4-1.4-0.3-1.7-1.1C385.3,230,385.5,230.9,385.8,231.8L385.8,231.8z"/>
	<path d="M384,201c0,1.1-0.5,1.6-1.7,1.6C382.4,201.5,382.8,200.9,384,201z"/>
	<path d="M371.2,196.2c1.1-0.6,1.5-0.2,1.7,0.7C372.1,197.6,371.6,197.5,371.2,196.2z"/>
	<path d="M333.6,399.5c-0.7-0.1-1-0.4-0.8-1.1c0.1-0.2,0.6-0.3,0.8-0.2C334.2,398.6,334.1,399,333.6,399.5z"/>
	<path d="M452,400.8c0.2-1.1,0.8-0.7,1.3-1C453.4,401.1,452.9,401.2,452,400.8z"/>
	<path d="M798,375.6c-0.8-0.3-1.2-0.7-0.8-1.4C798,374.2,798.3,374.6,798,375.6z"/>
	<path d="M797.3,450.8c-0.1,1.3-0.3,2.6-0.4,4v0.1C797.1,453.5,797.2,452.2,797.3,450.8L797.3,450.8z"/>
	<path d="M916.5,357.6c0.6,0.8,0.3,1.4-0.3,2.4C915.4,358.8,915.6,358.1,916.5,357.6z"/>
	<path d="M795.2,460.1c0,1.3,0.3,2.6-0.7,3.7l0.1,0.1C794.8,462.6,795,461.4,795.2,460.1L795.2,460.1z"/>
	<path d="M794.5,463.8c0,1.3,0.1,2.6-0.5,3.8l0.1,0.1C794,466.4,793.9,465.1,794.5,463.8L794.5,463.8z"/>
	<path d="M329.5,450.1c0,0.5-0.1,1.1-0.1,1.8C329,451.1,329.5,450.7,329.5,450.1L329.5,450.1z"/>
	<path d="M328.2,456.7c0.1-0.5,0.2-1.1,0.4-1.7C328.9,455.8,328.6,456.2,328.2,456.7L328.2,456.7z"/>
	<path d="M446.6,403c-0.4,0.7-0.8,0.8-1.2,0.4C445.6,401.7,446.2,403.2,446.6,403z"/>
	<path d="M450,402.5c-0.2-0.1-0.4-0.2-0.5-0.4c-0.2-0.4,0.2-0.7,0.5-0.7c0.2,0,0.5,0.2,0.5,0.3C450.6,402.1,450.4,402.3,450,402.5z"
		/>
	<path d="M380.6,212.4c-0.2,0-0.4,0.1-0.6,0.1c-0.2-0.1-0.3-0.4-0.3-0.5c0.1-0.4,0.5-0.4,0.8-0.2
		C380.6,211.9,380.6,212.2,380.6,212.4z"/>
	<path d="M377,224c-1.1,0-1.5-0.4-1.5-1.2C376.8,222.5,376.8,223.2,377,224z"/>
	<path d="M388.6,225.8c0,0.6-0.2,1.1-0.9,0.9C387.5,225.9,388.2,225.9,388.6,225.8z"/>
	<path d="M327.4,459.5c0.2-1,0.5-1.9,0.7-2.9l-0.1-0.1C328.2,457.6,328.2,458.7,327.4,459.5L327.4,459.5z"/>
	<path d="M327.4,459.5c0,1.1,0,2.2-0.5,3.1l0.1,0.1C326.9,461.6,326.9,460.5,327.4,459.5L327.4,459.5z"/>
	<path d="M801.4,368.2c-0.4,0-0.7-0.2-0.7-0.6c0-0.1,0.3-0.4,0.4-0.3C801.7,367.5,801.8,367.8,801.4,368.2z"/>
	<path d="M925.5,371c0.3-0.9,0.6-1.2,1.4-0.9C927.2,371.3,926.6,371.3,925.5,371z"/>
	<path d="M790,310.8c-0.5-0.5-0.4-0.9,0-1.4C790.4,309.8,790.5,310.3,790,310.8z"/>
	<path d="M796.3,370.7c0.7,0.2,1,0.5,0.8,1.1c-0.1,0.3-0.5,0.5-0.8,0.3C795.8,371.7,795.9,371.3,796.3,370.7z"/>
	<path d="M923.9,371.5c0.3,0.7,0.2,1.1-0.3,1.2c-0.1,0-0.5-0.2-0.5-0.3C923,371.9,923.2,371.5,923.9,371.5z"/>
	<path d="M402.5,581.7c-0.1-0.4-0.1-0.7-0.2-1.2C403,580.8,402.8,581.2,402.5,581.7z"/>
	<path d="M806.3,295.4c-0.9,0.4-1.3,0-1.4-0.6C806.4,293.7,806,295.1,806.3,295.4z"/>
	<path d="M920.1,373c0,0.5-0.2,0.9-0.8,0.8c-0.2,0-0.5-0.7-0.4-0.8C919.2,372.6,919.7,372.6,920.1,373z"/>
	<path fill="#FFFFFF" d="M665,396.9c1.1-0.7,2.2-0.5,3.4-0.4c0.7,3.6,1.4,7.2,2.3,10.8c3,12.6,9,23.6,18.4,32.7
		c3.9,3.7,14.2,7.1,19.1,3.6c-0.9-0.7-1.8-0.1-2.7,0.1c-7.6,1.1-13.1-2.5-17.9-7.9c-9.9-11.2-15.3-24.3-17-39.7
		c9.1-0.7,18.1-1.3,27-1.9c0.2,0.2,0.3,0.5,0.5,0.7c-4.7,3.5-6.7,8.8-10.1,13.2c-0.6,0.7-0.7,1.5-0.7,2.3c0,5.8,3.8,10.3,9.7,11.8
		c1.7-0.6,1.6-2.2,1.9-3.5c1.1-5.8,2-11.6,3.6-17.2c0.3-0.9,0.6-1.8,1.2-2.6c-1.4,6.2,0.8,12.3-0.1,18.4c-0.4,2.7,2.5,5.7,5.5,6.2
		c2.5,0.4,4.5-1.1,5.4-4.2c1-3.2,0.7-6.4,0.1-9.6c-0.7-4.1-2.3-8-4.7-11.6c1.9-1.1,3.5-2.4,4.9-4.1c4.5-5.6,2.7-13.4-4.8-17.4
		c-2.1-1.1-6.5,0.6-8.2,2.9c-0.6,0.8-1,1.6-1.7,2.6c-9.8,0.7-19.7,1.4-29.8,2.1c-0.7-4,0-7.6,0.6-11.2c1.8-11.5,5.8-22.2,13.1-31.5
		c2.9-3.7,6.4-6.8,10.6-9c3.3-1.8,6.8-2.8,10.7-1.7c2.1,0.6,4.4,0.7,6.7,1c0.1-0.8-0.2-1.2-0.7-1.4c-5.6-2-11.1-3.3-16.9,0
		c-7.9,4.5-13.5,11-17.7,18.8c-5.4,9.9-7.8,20.5-8.6,31.6c-0.1,1-0.1,1.9-0.2,2.6c-0.5,0.8-1.1,0.9-1.7,1c-0.5,0.1-0.9,0-1.4,0
		c-0.2-0.2-0.4-0.4-0.4-0.6c0.3-18.1,4.6-34.9,16.8-48.8c7.1-8.1,16.2-12.3,27.3-9.7c6.4,1.5,11.6,5.1,15.9,9.9
		c7.8,8.7,12.3,19.1,14.9,30.3c4.5,19.2,3.4,38-3.8,56.4c-2.4,6.1-5.6,11.6-9.9,16.5c-12.8,14.6-31.1,14.6-44.1,0.2
		c-7.8-8.7-12.1-19.2-14.8-30.3C665.9,404.7,665.1,400.8,665,396.9z"/>
	<path fill="#FFFFFF" d="M956.1,364.6c-7.1,0.5-14,0.9-21,1.4c-0.8-3.1,0-5.9,0.5-8.6c1.9-10.8,5.6-20.8,13.3-28.9
		c12.2-13,29.8-13.6,42.7-1.2c8.2,7.9,12.8,17.8,15.2,28.7c3.2,14.4,2.1,28.5-3.8,42.2c-2.1,4.9-4.9,9.3-8.5,13.3
		c-11.1,12.2-26.6,13.9-40,4.2c-10-7.3-19-25-19.1-38.1c7.1-0.5,14.2-1,21.2-1.4c0.7,1.3,1.2,2.4,1.8,3.4c2.8,4.7,6.8,6.8,12.3,6.3
		c5.1-0.4,8.1-3.3,9.9-7.6c2.5-6.1,2.3-12.1-0.6-18.1c-2.4-4.9-6.3-7.5-11.8-7.2c-5.3,0.3-8.8,3.2-10.8,8.1
		C957.1,362.1,956.7,363.2,956.1,364.6z"/>
	<path fill="#FFFFFF" d="M818.3,522.1c-0.7,4.4,0.2,8.8,0.4,13.2c0.1,4.8,0.2,9.6,0.3,14.3c0.1,9.9-2.4,19.3-5.4,28.7
		c-1.5,4.7-2.8,9.4-4.3,14.5c-1.1-8.3,0.2-16.3-0.6-24.3c-2,4.4-2.2,9.2-1.6,13.8c1.1,7.8,0.5,15.5-0.3,23.2c-0.5,5-0.1,10,1,15
		c-3,1.1-5.9,1-8.8,1.7c-0.6-2.4,0.4-5-1.2-7.6c-1,2.8,0.2,5.7-1.1,8c-1.2,0.7-2.6,0.7-4.2,0.7c0-5.1-0.6-10.2-0.9-15.3
		c-0.4-7.9-2.4-15.6-3.3-23.4c-0.8-7.4-1-14.9-2.5-22.1c-1.6-7.5-1.3-14.9-0.7-22.4c0.7-7.9,2.5-15.4,5.5-22.7
		c1.7-4.1,1.8-8.5,2.3-12.9c0.7-5.9-1.6-11.3-1.8-17c1.2-1.2,2.4-2,4.2-2.1c10.8-0.2,21.6,0.1,32.2-2.1c0.4-0.1,0.9,0.1,1.6,0.1
		c-1.6,4.1-2.2,8.4-3.7,12.4c-1.6,4.3-2.2,8.9-2.8,13.5c-0.6,4.1-1.9,7.6-5.1,10.3c-1.4,1.2-2.6,2.7-3.5,4.8
		C816.3,524.7,816.7,522.5,818.3,522.1L818.3,522.1z"/>
	<path fill="#FFFFFF" d="M711,450.9c12.1-4.4,19.8-13.2,24.7-24.3c11.7-26.4,11.3-53-0.7-79.2c-2.9-6.4-7.1-11.9-12.4-16.5
		c-3.8-3.3-8.1-5.8-13-7.4c11-0.7,19.9,3.7,27.2,11.5c8.5,9.1,13,20.3,15.5,32.3c4.3,20.4,2.8,40.2-6,59.3
		c-2.8,6.1-6.6,11.7-11.8,16.1C727.8,448.4,719.8,451,711,450.9z"/>
	<path fill="#FFFFFF" d="M877.1,352.5c-0.1,1.2,0.1,2-0.4,2.6c-2,1.2-2.2-1.1-3.1-1.7c-1,0.2-0.6,1.7-1.7,1.6
		c-1.7,0.1-1.2-1.9-2.3-2.3c-0.6,1-0.4,1.9-0.2,2.8c0.9,1,2.3,1.1,3.5,1.7c-0.2,4.4,0.3,8.5,3.1,12.8c-13.4,0.9-26.3,1.8-39.5,2.7
		c-0.4-6.3,1.2-12.2-0.1-18.2c-1.9,1.9-1.8,1.9-1.7,8.7c0.1,3.1,0.6,6.2-0.2,9.6c-6.4,0.5-12.8,0.9-18.9,1.4
		c-1.2-0.6-1.2-1.6-1.8-2.2c-1.2,0.3-0.1,1.8-1.5,2.4c-3.2-3.3-4.4-7.8-6.8-11.4c0.7-4,3-6.4,6.3-8c0.3,0.3-0.2,1.4,1.1,1.9
		c1-0.4,0.2-2,1.2-2.5c1.2-0.7,2.3-0.2,3.2,1c0.9-2.2,2.8-1.2,4.5-1.1c-0.7-3.4-4.7,0-5-3.1c-2.6,1.7-4.7,1.2-6.9-1.5
		c-1.6,1.3-0.7,3.7-2.4,5.2c-0.4-2-0.5-3.7-0.1-6C830.7,351,854,349.5,877.1,352.5z"/>
	<path fill="#FFFFFF" d="M917.2,658.6c-2.6,4.2-6.3,5-10.3,5.9c-4.9,1.1-9.7,1.2-14.6,0.6c-3.3-0.4-6.6-0.4-7.4-5
		c-0.4-2.4-3.2-3.3-5.7-3.5c-2-0.1-4-0.2-6.1-0.5c-4.9-0.7-8.3-3.4-11-7.8c1.6-2.1,2.4-4.6,1.7-7.5c-0.3-1.2,0.5-2.4,1.2-3.3
		c2.3-2.6,2.6-5.8,2.9-9.6c2.2,3.6,5.2,3.7,8.3,2.7c2.7-0.9,2.9-3.5,3.4-5.8c-0.4-1.4-2-2.2-2.2-4c4.5,0,8.8,0,13.2,0
		c1.5,1.6,0.6,3.9,1.8,5.9c-3.2,0.9-7.7-2.4-8.8,3.2c-1.3,0.7-3.1-0.6-4.3,1c0.4,2.6,2.7,1.8,4.2,2.3c-0.1,1.2-2.1,0.9-1.7,2.8
		c1.6,1.8,4,0.3,6.1,1c-0.1,3.3,0,3.3,5.1,3.2c0.3,1.3-1.8,1.3-1.3,2.6c0.3,1.1,0.7,1.1,4,0.3c3,3.3,6.7,1.9,10.5,1.5
		C908.9,649.9,915.4,652.5,917.2,658.6z"/>
	<path fill="#FFFFFF" d="M884,298.8c5,6.6,7.9,14.5,13.3,21c2.8,3.4,3.6,8,4.4,12.4c0.6,3.1,1.3,6.1,3.1,9c2,3.3,0.8,7.2-1,10.5
		c-1.2,2.2-2.5,4.4-4.3,6.1c-1.5,1.4-2.1,2.7-2.1,4.6c0.1,2.1-1.3,3.8-1.7,5.8c-2.1,0.2-4.1,0.5-6.4,0.7c-1.5-4.6-5.2-8.3-4.2-13.7
		c0.5-2.6-2.2-4.4-2.3-7.1c-0.3-5.5-1.4-11.1-0.4-16.6c0.4-2.5,0.7-4.9,0.4-7.4c-0.6-4.9-0.1-9.8,0.4-14.6c0.2-2.2-0.1-4.5-0.1-6.7
		C883.1,301.4,883,299.9,884,298.8z"/>
	<path fill="#FFFFFF" d="M790.1,638.2c0.9-0.6,0.8-1.7,1.2-2.5c3.3,2.5,7.5,0.9,7.7-2.9c0.1-1.9,0-3.8,0-6c3.7-1.2,7.4-1.8,10.8-2.5
		c1.2,0.4,0.4,1.2,1.4,2.1c0.6,0.4,0.7-1.6,1.9-1.1c-0.1,4.1-2.1,7.9-2.2,12.2c-3.6,0.8-7.4,0.2-10.5,1.4c-1.4,1.3-0.4,2.5-0.6,3.6
		c-0.7,3,1.1,4.9,4.3,4.9c3.5,0,6.8,1.4,10.3,0.5c0.9-0.2,1.1,0.6,1.7,1.5c-4.7-0.4-9-1.4-13.3-0.4c-0.3,2.1,1.9,1.8,2.4,3
		c0.6,1.1-0.9,1.9-0.4,3.4c4.3,2.5,9.2,2.4,14.2,1.7c1.1,0.9,1.1,2.4,1.8,3.4c1.7,2.5,1.1,6.1,4.3,8c0.8,0.5,1.3,2.7,0.9,4.7
		c-10.3,1-20.8,4.6-31.1-1.5c-0.9-2.9-2.4-5.9-5.2-8.1c-2.6-2.1-2.8-8.1-0.3-11c1.5-1.7,2.2-3.4,1.2-5.5c-0.6-1.3-0.2-2.6,0-3.9
		C790.9,641.4,791.8,639.6,790.1,638.2L790.1,638.2z"/>
	<path fill="#FFFFFF" d="M979.3,317.6c10.3,0.9,18.5,5.6,24.7,13.6c9.5,12.1,13.1,26.2,12.9,41.3c-0.2,12.9-3.4,24.8-11,35.4
		c-5.7,8-11.6,11.6-21.1,13.2c21.3-13.2,26.7-33.7,25-57.3c-0.5-7.3-2.4-14.4-5.4-21.1C998.8,330.4,992.5,324.1,979.3,317.6z"/>
	<path fill="#FFFFFF" d="M812.7,383.7c0.5-2.8,1.6-4.7,1.6-7c3.4-0.7,6.7-0.7,10-0.9c22.2-1.4,44.4-3,66.6-4.5
		c3.3-0.2,6.6-0.7,9.9-1.2c2-0.3,3.5,0,4.8,1.9c0.3,1.7,0.2,3.6-0.8,5.5C874.3,379.6,843.7,381.6,812.7,383.7z"/>
	<path fill="#FFFFFF" d="M708.2,385.9c0.1,1.5,0.1,2.8-0.7,4.1c-1.5,1-3.3,1.5-5.2,1.6c-16,1.1-32,2.2-47.9,3.4
		c-6.1,0.4-12.2,0.9-18.2,1.3c-1.2,0.1-2.4,0.4-3.7-0.2c1.4-2.2,0.3-4.3-0.3-6.6c5.1-1.1,10.2-1,15.3-1.4
		c18.4-1.4,36.7-2.6,55.1-3.8C704.4,384.2,706.6,383.6,708.2,385.9z"/>
	<path fill="#FFFFFF" d="M958.8,375.9c3.3-0.6,6.4-0.2,9.2-1.3c3-1.2,4.8-3.8,4.3-6.6c-0.4-2.6-2.9-4.3-6.2-4.1
		c-2.6,0.1-5.2,0.3-8.1,0.4c0.8-3.4,2.2-6,4.7-8c3.4-2.6,7.4-2.3,10.7,0.8c6,5.7,6.5,17.8,1,24c-3.5,4-8.5,4.2-12.3,0.5
		C960.7,380.2,959.5,378.4,958.8,375.9z"/>
	<path fill="#FFFFFF" d="M931.4,368.6c11.6-0.8,22.8-1.6,34-2.3c3-0.2,4.8,1.4,4.6,3.7c-0.2,2.7-2.3,3.2-4.4,3.3
		c-7.5,0.2-15,1-22.5,1.5c-4.3,0.2-8.6,0.5-13,0.8C929.8,373,931.6,371.2,931.4,368.6z"/>
	<path fill="#FFFFFF" d="M756.7,387.8c0-2.6,0-4.6,0-7.2c9.3-0.7,18.8-1.3,28.1-2c2.2,2.1,2.5,4.2,0.7,7.1
		C776.3,386.4,766.7,387.1,756.7,387.8z"/>
	<path fill="#FFFFFF" d="M696,419.1c-5.6-3.3-6.4-5.8-4.1-11.1c2-4.8,5.2-8.8,8.2-12.9c0.8-1.2,2-1.6,3.6-1
		C699.1,401.8,698,410.5,696,419.1z"/>
	<path fill="#FFFFFF" d="M1018.9,369.1c-0.2-2.3-0.4-4.1-0.7-6.2c4.5-0.9,8.9-1,13.3-1.2c1.8-0.1,3.2,0.8,3.3,2.6
		c0.2,1.9-0.7,3.7-2.8,4C1027.8,368.8,1023.6,369.2,1018.9,369.1z"/>
	<path fill="#FFFFFF" d="M705.9,393.5c2.8,6.6,6.4,12.7,5.9,20c-0.1,2.1-0.1,4.3-1.7,6c-1.9,0.2-2.2-0.9-2.4-2.4
		c-0.8-6.1-1.8-12.3-1.8-18.5C705.9,397,704,395.4,705.9,393.5z"/>
	<path fill="#FFFFFF" d="M709.2,396.4c-1-0.9-1.4-1.9-1.6-2.9c4.4-4.9,4.4-11.7-4.3-11.9c3-3.7,7-3.5,9.9,0.6
		C716.2,386.4,714.3,393.9,709.2,396.4z"/>
	<path fill="#FFFFFF" d="M886.7,616.7c-3.4,2.5-7.9,0.3-11.1,2.7c-0.2,2.5,1.3,3.7,2.3,5.3c-0.3,1-0.7,2.1-1.2,3.5
		c-1.7-1-3.6,0.5-5.3-0.6c-1.8-1.1,0-3.7-2.2-4.6c0.9-1.6,1.8-2.9,1.9-4.8C876.3,617.4,881.4,615.8,886.7,616.7z"/>
	<path fill="#FFFFFF" d="M877.4,369.8c-1.9-3.5-2.2-7.1-2.3-10.7c-0.1-1.6,0.7-2.2,2.5-1.8c0.3,5.7,7.2,6.6,9,11.7
		C883.6,370,880.6,369.7,877.4,369.8z"/>
	<path fill="#FFFFFF" d="M791.6,631.1c2.4-0.7,1-2.6,2-4.2c0.5-0.7,1.7-1,3.1-1c1.5,5.6,1,6.9-3,8.9
		C792.1,634.1,792.6,632.4,791.6,631.1z"/>
	<path fill="#FFFFFF" d="M630.6,394.8c-1.2,0.7-2.2,1.2-3.6,0.7c-1.8-2.4-0.6-4.2,1.4-6C630.4,390.8,631.2,392.4,630.6,394.8z"/>
	<path fill="#FFFFFF" d="M977.9,359.8c3.9,5.4,4.1,14.8,0.3,20.1c-0.3,0.4-0.6,0.8-1.1,0.7l0.1,0.1
		C980.9,373.7,980.3,366.8,977.9,359.8L977.9,359.8z"/>
	<path fill="#FFFFFF" d="M871.9,188.6c-1-1.3-1.7-2.6-2.2-4c2.6-0.4,4.6,0.8,7.2,1.5C875.1,187,873.6,187.7,871.9,188.6z"/>
	<path fill="#FFFFFF" d="M819.3,134.6c1.8,1.1,3.2,2.5,5.4,1.4c-1.8,2.3-5.5-0.1-7,2.9C818.2,137.4,819.1,136.3,819.3,134.6z"/>
	<path fill="#FFFFFF" d="M820.7,165.8c-1.1-1.3-3-2.3-1.5-4.3c1.3-0.4,1.8,0.5,2.5,1.2C821.5,163.8,820.5,164.6,820.7,165.8z"/>
	<path fill="#FFFFFF" d="M805.4,358.1c-0.6-2.3-1.2-4.7-0.6-7.1C806.1,354.8,806.2,355.3,805.4,358.1z"/>
	<path fill="#FFFFFF" d="M825.4,162.3c-0.9-0.9-1.9-1.7-2.7-2.6c-0.3-0.3-0.4-0.8-0.6-1.2C824.8,158.1,825.1,158.5,825.4,162.3
		L825.4,162.3z"/>
	<path fill="#FFFFFF" d="M901,642.1c1.9-1.6,2.8-0.8,3.8,1C903.4,642.9,902.3,642.9,901,642.1z"/>
	<path fill="#FFFFFF" d="M832.5,134.6c-0.4,1.8-1.5,3-3.3,4.4C829.6,136.5,831.1,135.6,832.5,134.6z"/>
	<path fill="#FFFFFF" d="M882.3,361c-1.4-1.6-2.3-2.5-1.5-4.3C882,357.9,882.1,359.1,882.3,361z"/>
	<path fill="#FFFFFF" d="M844.4,128.1c-0.5-1.7,0.2-2.5,1.8-2.4C846.6,127.1,844.8,127.1,844.4,128.1z"/>
	<path fill="#FFFFFF" d="M866.6,129.4c-1-0.7-0.9-1.4-1.1-2c0.5-0.7,1.2-0.8,2.1-0.8C867.8,127.7,866.9,128.3,866.6,129.4z"/>
	<path fill="#FFFFFF" d="M879.3,352c0.9,2,0.5,2.8-0.5,3.8C877.9,354.3,878.8,353.6,879.3,352z"/>
	<path fill="#FFFFFF" d="M821.6,152.3c-0.4-1.1-1.1-2.2,0-3.6C822.2,150.1,821.5,151.2,821.6,152.3z"/>
	<path fill="#FFFFFF" d="M846.4,462.5c-1.8-0.3-1.7-1.4-1.1-2.8C846.2,460.5,846.4,461.5,846.4,462.5L846.4,462.5z"/>
	<path fill="#FFFFFF" d="M812.3,641.1c-1.3,0.3-2.1,0.2-3.1-0.1C810.2,640.4,811,640.3,812.3,641.1z"/>
	<path fill="#FFFFFF" d="M825.3,183.1c-0.4-1-1.4-1.7-1.1-2.9C825.7,181.5,825.7,181.5,825.3,183.1L825.3,183.1z"/>
	<path fill="#FFFFFF" d="M834.4,143.3c0.7,1.3,0.1,1.7-0.7,2.3C833.4,144.7,833.2,144,834.4,143.3z"/>
	<path fill="#FFFFFF" d="M859.2,124.1c0.5-1.4,0.8-2,1.1-2.9C861.1,122.5,860.6,123,859.2,124.1z"/>
	<path fill="#FFFFFF" d="M817.3,652.6c-0.6,0.5-1,0-1.4-0.4c0.1-0.8,0.6-0.6,1-0.5C817.2,651.8,817.4,652.1,817.3,652.6z"/>
	<path fill="#FFFFFF" d="M849.2,133.8c1.1,0.1,1.8,0.2,2.3,0.8C850.7,134.9,850.1,134.8,849.2,133.8z"/>
	<path fill="#FFFFFF" d="M825.1,150.9c-0.2-1,0.1-1.5,1.4-1.4C826.4,150.4,825.8,150.7,825.1,150.9z"/>
	<path fill="#FFFFFF" d="M829.2,149.8c0.2,1.2-0.2,1.6-0.9,1.9C828.1,150.7,828.1,150.7,829.2,149.8z"/>
	<path fill="#FFFFFF" d="M977,380.5c0.4,0.9-0.4,1.2-0.9,1.8C976,381.3,976.6,380.9,977,380.5L977,380.5z"/>
	<path fill="#FFFFFF" d="M829.2,147.1c0.1,0.1,0.2,0.2,0.2,0.2c-0.1,0.1-0.3,0.2-0.5,0.4c0-0.1-0.2-0.2-0.1-0.2
		C828.9,147.3,829,147.2,829.2,147.1z"/>
	<path fill="#FFFFFF" d="M825.9,188.1c-0.3-0.2-0.5-0.4-0.7-0.6c0.1-0.1,0.2-0.2,0.2-0.2C825.8,187.5,826.1,187.6,825.9,188.1z"/>
	<path fill="#FFFFFF" d="M851.2,128.8c0.2,0.8-0.1,0.9-0.6,0.9C850.4,129,850.8,129,851.2,128.8z"/>
	<path fill="#FFFFFF" d="M803.7,355.8c0.6,0.7,0.6,1.2,0.1,1.7C803,357,803.1,356.5,803.7,355.8z"/>
	<path fill="#FFFFFF" d="M830.3,128.5c0.2,0.8-0.1,1.2-0.8,1.2C829,128.8,830,128.9,830.3,128.5z"/>
	<path fill="#FFFFFF" d="M977.9,359.7c-0.8-0.1-1-0.8-1.3-1.5C977.6,358.3,977.8,359,977.9,359.7L977.9,359.7z"/>
	<path fill="#FFFFFF" d="M190.9,414c0.1-12,2.3-23.1,7-33.8c2.4-5.6,5.6-10.8,9.7-15.5c12.1-13.6,29.5-14.1,42.3-1.2
		c7.9,8,12.4,17.8,15.3,28.5c5.4,20.2,4.6,40.1-3.1,59.5c-2.4,6.1-5.6,11.6-9.9,16.5c-12.8,14.5-31.1,14.6-44.1,0.2
		c-7.8-8.7-12-19.2-14.8-30.3c-0.9-3.8-1.7-7.7-1.9-11.5c1.2-0.7,2.3-0.6,3.5-0.4c0.7,3.6,1.4,7.2,2.3,10.8
		c3,12.6,9.1,23.6,18.4,32.7c3.9,3.7,14.3,7.1,19.1,3.5c-0.4-0.1-0.7-0.2-1-0.2c-7.9,1.8-14-1.4-19.1-7
		c-10.2-11.3-15.8-24.6-17.5-40.2c9.1-0.7,18.1-1.3,27-1.9c0.2,0.2,0.3,0.5,0.5,0.7c-4.7,3.5-6.7,8.8-10.1,13.2
		c-0.6,0.7-0.6,1.5-0.6,2.3c0.1,5.8,3.8,10.4,9.7,11.7c1.7-0.6,1.6-2.2,1.9-3.6c1.1-5.8,2-11.6,3.6-17.2c0.3-0.9,0.3-1.9,1.8-3.1
		c-1.9,6.7,0.3,12.8-0.6,19c-0.4,2.7,2.5,5.7,5.5,6.2c2.5,0.4,4.5-1.2,5.4-4.2c1-3.2,0.7-6.4,0.1-9.6c-0.7-4.1-2.3-8-4.7-11.6
		c2.3-1,4-2.7,5.3-4.7c4.5-6.6,0.8-13.8-5.6-16.9c-1.9-0.9-6.3,0.9-7.9,3.1c-0.6,0.8-1,1.6-1.7,2.6c-9.8,0.7-19.7,1.4-29.8,2.1
		c-0.6-5.4,0.4-10.3,1.3-15.1c2.1-10.4,6.1-19.9,12.8-28.1c3.3-4,7.3-7.2,12.1-9.4c2.7-1.2,5.4-1.6,8.4-0.8c2.3,0.6,4.7,0.7,7.4,1.1
		c-0.4-0.7-0.5-1.1-0.7-1.2c-5.1-1.8-10.2-3.6-15.6-1c-8.8,4.3-14.8,11.2-19.3,19.6c-5.4,9.9-7.8,20.5-8.5,31.6
		c-0.1,1-0.1,1.9-0.2,2.6c-0.5,0.8-1.1,0.9-1.7,0.9C192.4,414,191.9,414,190.9,414z"/>
	<path fill="#FFFFFF" d="M461.4,395.5c-0.4-4.5,0.5-8.5,1.3-12.4c2.1-9.4,5.8-18,12.4-25.1c12.2-13.1,29.8-13.7,42.7-1.4
		c8.3,7.9,13,17.9,15.4,29.1c3.2,15,1.9,29.5-4.5,43.5c-2,4.4-4.7,8.3-7.9,11.9c-11.4,12.6-28.5,13.7-41.4,2.8
		c-9.3-7.9-17-23.8-17.6-36.8c7.1-0.5,14.1-1,21.2-1.5c0.4,0.7,0.8,1.2,1,1.7c3.5,6.8,7.4,8.9,14.5,7.8c4.8-0.7,8.5-4.8,9.8-11.1
		c1-5,0.6-10-1.9-14.7c-2.5-4.6-6.3-7.2-11.6-7c-5.3,0.2-8.8,3.2-11,8c-0.5,1.2-0.6,2.6-1.7,3.8C475.6,394.5,468.6,395,461.4,395.5z
		"/>
	<path fill="#FFFFFF" d="M409.6,369.7c-1.4-4.2-2.7-8.4-2.2-12.8c0.7-1,1.6-0.4,2.5-0.6c0,4.6,4,5.8,6.4,8.3c1.9,1.9,3,3.8,3.3,6.5
		c0.6,4.4,1.7,8.7,3,12.9c1.5,4.7,1.8,9.3-0.7,13.9c-11.3,1.8-22.7,2-34,2.9c-11.5,0.9-22.9,1.4-34.4,2.4c-3.2,0.3-5-0.9-6.4-3.4
		c-4.1-7.3-8.1-14.6-8-23.4c0.1-4.6-0.8-9.1-0.7-13.6c0.1-3.1,0-6.1,3.9-7.2c0.5-0.1,0.7-1.1,1.1-1.8c0.7,0.8,0.3,1.8,1.4,2.3
		c1.1-0.3,0.3-1.7,1.1-2.3c1.6-0.9,2.6,0.1,3.6,1.2c1.6,1.3,0.1,2.7,0,4c-0.2,2-0.9,3.9-1,5.4c0.4-2.1,0.9-4.8,1.6-7.4
		c0.2-0.7,0.1-1.4-0.7-1.8c1.4-1.9,1.4-1.9,4.3-1.6c-0.3-3.7-4.9,0.7-4.7-3c-2.7,1.7-4.8,1.2-7.1-1.3c-1.9,1.1-0.5,3.7-2.5,4.9
		c-0.3-1.8-0.5-3.5,0-5.7c23.2,1.5,46.4,0.8,69.6,3.1c0.1,1.3-0.1,2.3-0.4,3.2c-1.9,0.5-2.4-0.8-2.9-1.9c-1.3-0.4-0.8,2-2.4,1.5
		c-1.2-0.4-0.7-1.7-1.8-2.3c-0.7,0.9-0.4,1.9-0.2,2.8c0.8,1.2,2.2,0.9,3.3,1.8c0.1,4.9,0.3,9.9,4.3,13.8c0.1,0.2,0.3,0.3,0.4,0.1
		C409.8,370,409.8,369.8,409.6,369.7z"/>
	<path fill="#FFFFFF" d="M236.1,352.8c13.5-0.3,23.7,5.9,31.4,16.7c7.8,11.1,11.6,23.8,13,37.2c1.6,15.2,0,30.1-5.6,44.4
		c-2.6,6.7-6.2,13-11.2,18.3c-6.9,7.4-15.6,10.8-25.6,11.3c-0.3,0-0.6-0.2-1.2-0.4c12.7-4.3,20.5-13.5,25.5-25
		c11.1-25.8,10.6-51.6-0.5-77.3c-1.7-4-4.1-7.6-6.7-11C250.2,360.5,244.1,355.4,236.1,352.8z"/>
	<path fill="#FFFFFF" d="M425.1,626.1c-7.6-1.1-8.7-0.7-8.8,2.7c-1.4,0.7-3.1-0.5-4.6,0.6c-0.1,2.9,2.6,2,4,2.8
		c-0.4,0.8-1.8,0.8-1.7,2.4c1.4,2.2,4,0.4,6.1,1.2c0.6,0.6-0.5,1.5-0.3,1.8c2.1,2.4,4.2,1,6.3,1.1c-0.6,1.3-2.3,1.5-2.2,3.1
		c1.2,2,2.8-0.1,4.2,0.3c2.9,3,6.3,2.1,10.2,1.3c2.8,5.3,9,8.1,11.2,14.1c-2.1,3.6-5.1,5-8.9,5.8c-6.2,1.3-12.3,1.6-18.5,0.6
		c-2.3-0.4-4.3-0.9-4.6-4c-0.2-2.4-3-4-6-4.1c-1.8-0.1-3.5-0.1-5.3-0.4c-5.1-0.7-8.9-3.2-11.7-7.8c1.3-2.3,2.3-4.9,1.6-7.9
		c-0.2-0.8,0.5-2.1,1.2-2.9c2.3-2.7,2.7-6,3-9.9c1.9,3.7,4.8,4,7.9,3.1c3-0.8,3.2-3.5,3.8-5.9c-0.3-1.5-2.1-2.1-1.9-4.1
		c4.2,0.3,8.5-0.4,12.7-0.4C424.5,621.3,423.3,624,425.1,626.1z"/>
	<path fill="#FFFFFF" d="M323.4,634.2c1.4,1.4,2.5,2.8,4.5,1.7c1.9-1.1,3.6-2.3,3.3-5c-0.2-1.7-0.3-3.6,0.4-5.6
		c3.5-0.7,7.1-1.5,10.4-2.2c1.1,0.4,0.7,1.1,0.8,1.6c1.1,0.7,1.5-1.1,2.6-0.7c-0.2,4-2,7.8-2.2,12c-3.7,0.5-7.4,1-11.1,1.5
		c0,3-0.6,5.5,1.3,8.1c4.6,0.9,9.5,1.2,14.5,1.6c-4.3,1.2-8.8-1.1-13,0.5c0,2.1,2.1,1.8,2.8,3.5c0.3,0.6-1.3,1.4-0.5,3
		c4.3,2.3,9.2,2.5,14,1.6c1.3,1.3,1.4,2.8,2.1,4c1.5,2.5,1.3,5.8,4.2,7.8c0.8,0.5,1.3,2.5,0.8,4.5c-10.4,1-20.9,4.3-31.3-1.6
		c-0.4-2.8-2-5.4-4.3-7.5c-3-2.8-4.2-7.7-1.7-10.8c2.2-2.6,1.9-4.8,1.7-7.8C322.6,641.3,322.9,637.7,323.4,634.2z"/>
	<path fill="#FFFFFF" d="M505.5,347.1c8.1,0.4,15.1,3.6,20.8,9.1c8.5,8.2,13.2,18.4,15.5,29.8c2.8,14.2,1.9,28.1-3.8,41.5
		c-2,4.6-4.7,8.9-7.9,12.8c-5,6.1-11.6,9.4-19,10.5c21.1-13,26.6-33.2,25.3-56.4c-0.4-7.8-2.4-15.4-5.7-22.5
		C525.3,360.5,517.7,351.5,505.5,347.1z"/>
	<path fill="#FFFFFF" d="M349.2,412.5c0.6-3.6,0.6-3.6,2.5-4.2c0.7-0.9-0.7-1.8-0.1-2.8c0.3-0.1,0.6-0.3,0.9-0.3
		c18.4-1.3,36.8-2.6,55.2-3.7c6.1-0.4,12.1-1.2,18.2-1.7c2.3-0.2,4.6-0.2,6.1,2.1c0.2,1.6,0.1,3.3-0.6,5
		C404.1,408.8,376.7,410.6,349.2,412.5z"/>
	<path fill="#FFFFFF" d="M234.6,415.4c0.1,1.4,0.1,2.7-0.6,3.9c-1.9,1.5-4.2,1.7-6.4,1.8c-22.1,1.6-44.1,3.1-66.2,4.6
		c-0.8,0.1-1.7,0.2-2.6-0.3c1.3-2.2,0.3-4.3-0.3-6.6c5.1-1.1,10.3-1,15.3-1.4c18.4-1.4,36.7-2.6,55.1-3.8
		C230.9,413.6,233,413.1,234.6,415.4z"/>
	<path fill="#FFFFFF" d="M485.2,405.5c3.2-0.7,6.1-0.2,8.9-1.3c3.3-1.3,5.2-3.8,4.7-6.7c-0.4-2.7-3-4.3-6.5-4.1
		c-2.5,0.1-5,0.3-7.7,0.4c0.7-3.5,2.3-6.2,5-8.2c3.3-2.4,7-2.1,10.2,0.7c6.3,5.6,6.9,18.3,1.1,24.5c-3.4,3.6-8.1,3.9-11.8,0.5
		C487.3,409.8,486.1,408,485.2,405.5z"/>
	<path fill="#FFFFFF" d="M417.3,335.4c2.2,8.9,6.1,17,10.2,25.2c2.3,4.5,3.6,9.5,4.2,14.4c0.5,4.5-1.5,8.5-5.4,11.6
		c-1.4-5.2-2.6-10.2-4-15.2c-0.9-3.4-2-6.9-3.9-9.9c-1.7-2.6-1.1-5.5-1.2-8.4c-0.2-4.8-1.3-9.6-0.4-14.5
		C417,337.5,417.1,336.4,417.3,335.4z"/>
	<path fill="#FFFFFF" d="M283.2,417.2c-0.3-2.6-0.4-4.6-0.1-7.2c12.9-0.9,25.8-1.8,38.6-2.7c3.5,1.9,0.7,4.4,1.5,7
		C309.5,415.3,296.5,416.3,283.2,417.2z"/>
	<path fill="#FFFFFF" d="M456.4,404.7c0.5-2.3,1.4-4.2,1.4-6.6c6.7-0.5,13.3-0.9,19.8-1.4c4.5-0.3,9.1-0.6,13.6-0.9
		c1.5-0.1,2.9,0,4.1,1c1.9,1.5,1.7,4.2-0.5,5.3c-0.6,0.3-1.4,0.6-2,0.6c-11.9,0.8-23.9,1.5-35.8,2.2
		C456.8,404.9,456.7,404.8,456.4,404.7z"/>
	<path fill="#FFFFFF" d="M230.3,423.5c-4.8,7.8-5.9,16.5-7.8,24.9c-5.3-2.7-6.4-5.5-4.4-10.4s5.2-9.1,8.3-13.3
		C227.3,423.6,228.4,423.1,230.3,423.5z"/>
	<path fill="#FFFFFF" d="M545.4,398.6c-0.2-2.2-0.4-4-0.7-6.2c4.7-0.8,9.3-1,13.9-1.1c1.6,0,2.8,1.2,2.8,2.7c0,1.9-0.8,3.6-3,3.8
		C554.2,398.2,550,398.7,545.4,398.6z"/>
	<path fill="#FFFFFF" d="M236.4,449.1c-1.9-0.1-2-1.3-2.2-2.7c-0.8-6-1.7-12-1.8-18.1c0-1.7-1.8-3.2-0.1-5.3
		c3,6.6,6.4,12.9,5.9,20.3C238.1,445.3,238.2,447.6,236.4,449.1z"/>
	<path fill="#FFFFFF" d="M229.1,411.1c2.1-2,4-3.4,6.4-2.5c2.9,1.1,4.7,3.1,5.3,6.2c0.8,4.5-1.4,9.4-5.3,10.9c-1-0.6-1-1.8-1.6-2.6
		C238.9,415.7,237.5,411.7,229.1,411.1z"/>
	<path fill="#FFFFFF" d="M418.9,615.5c-1.4,1.9-3.5,1.4-5.4,1.6c-1.9,0.2-4.1-0.3-5.6,1.3c-0.6,2.4,1.3,3.6,2.2,5.5
		c-0.3,1-0.7,2-1.1,3.1c-6.2-0.1-6.2-0.1-6.6-4c-0.4,0-0.9,0-1.4,0.1c0.3-2.1,2.5-3.3,2.1-5.7C408.5,616.3,413.5,614.8,418.9,615.5z
		"/>
	<path fill="#FFFFFF" d="M325.6,633.5c-2.8-2.6,0.3-5-0.3-7.3c1.2-1.3,2.4-1.5,3.7-1.2C330,630.3,329.6,632.6,325.6,633.5z"/>
	<path fill="#FFFFFF" d="M157,424.3c-1.2,0.7-2.2,1.1-3.4,0.7c-2-2.4-0.7-4.2,1.3-6C156.8,420.3,157.6,421.9,157,424.3z"/>
	<path fill="#FFFFFF" d="M503.5,410c3.8-6.8,3.2-13.8,0.8-20.8l0,0c4,5.5,4,15.2,0.1,20.3C504.2,409.8,503.8,409.8,503.5,410
		L503.5,410z"/>
	<path fill="#FFFFFF" d="M355.3,130.7c0.9-0.2,1.8-0.4,2.9-0.7c0.6,0.6,1.2,1.3,1.9,2c0.9-0.2,1.6-0.3,2.3-0.5
		c0.1,0.4,0.3,0.6,0.2,0.8c-0.1,0.6-0.7,1.3-1.2,0.9c-2.2-1.3-4-0.4-6,0.5c0.5-0.7,1-1.4,1.5-2.1
		C356.5,130.9,355.9,130.8,355.3,130.7L355.3,130.7z"/>
	<path fill="#FFFFFF" d="M412.6,352.7c-0.9,0-0.4,2.1-2,1.8c-0.7-1.1,0.4-1.9,0.5-2.9c1.1-0.3,2.1-0.2,3.1,0.4
		c0.3,0.8,0.2,1.6-0.4,2.4C412.7,354.2,414.1,353,412.6,352.7z"/>
	<path fill="#FFFFFF" d="M355.9,161.3c-1.4-1.5-2.7-2.7-1.1-4.6c1.3-0.2,1.6,0.7,2.1,1.5C356.7,159.2,355.9,159.9,355.9,161.3z"/>
	<path fill="#FFFFFF" d="M367.6,134.6c0-1.9,1.7-2.4,3.1-3.9C370.3,133,368.8,133.7,367.6,134.6z"/>
	<path fill="#FFFFFF" d="M437,642.1c-1.5-0.3-2.6-0.6-4-0.9C435.2,640,435.2,640,437,642.1z"/>
	<path fill="#FFFFFF" d="M404.5,129.1c-0.2-0.7-0.3-1.2-0.4-1.7c0.6-0.8,1.3-0.8,2.2-0.5C405.9,127.8,405.8,128.9,404.5,129.1z"/>
	<path fill="#FFFFFF" d="M414.4,359.6c-1.4-1-1.9-1.9-1.6-3.6C414.3,356.9,414.2,358.1,414.4,359.6z"/>
	<path fill="#FFFFFF" d="M385.5,123.5c-0.6,1.4-1.5,1.9-2.6,2.5C382.5,123.9,383.8,123.6,385.5,123.5z"/>
	<path fill="#FFFFFF" d="M364.5,147.9c-0.4-1.3,0.3-1.7,1.5-2C366,147.1,365.5,147.6,364.5,147.9z"/>
	<path fill="#FFFFFF" d="M344.8,640c-1.8,0.5-2.8-0.1-4.4-0.2C342,639.4,343.1,639.2,344.8,640z"/>
	<path fill="#FFFFFF" d="M370.3,142.8c0.2-1.1,0.4-1.9,0.6-2.8C371.7,141.3,371.7,141.3,370.3,142.8z"/>
	<path fill="#FFFFFF" d="M358.7,144.5c-0.2,0.9-0.4,1.9-0.7,3c-0.6-1.2-0.5-2.2-0.1-3.2C358.2,144.4,358.5,144.5,358.7,144.5z"/>
	<path fill="#FFFFFF" d="M398.9,153.9c0.7-0.4,1.4-1,2.2-0.3C400.5,154.5,399.7,154,398.9,153.9z"/>
	<path fill="#FFFFFF" d="M399.7,120.9c0.6,1.1,0,1.7-0.9,2.1C398.7,122.1,398.9,121.4,399.7,120.9z"/>
	<path fill="#FFFFFF" d="M377.9,461.1c-1.2-0.7-0.8-1.5-0.5-2.4C378.2,459.4,378.7,460.1,377.9,461.1z"/>
	<path fill="#FFFFFF" d="M337.9,356.4c-0.3-0.9-0.4-1.4,0-1.9C338.3,354.9,338.3,355.4,337.9,356.4z"/>
	<path fill="#FFFFFF" d="M388,132.1c0.5,0.3,1,0.6,1.7,0.9c-1,0.6-1.5,0-1.9-0.4C387.5,132.4,387.5,132.3,388,132.1z"/>
	<path fill="#FFFFFF" d="M361.7,146.8c-0.3-1.1,0.4-1.2,1-1.5C363.3,146.9,361.8,146.1,361.7,146.8z"/>
	<path fill="#FFFFFF" d="M347.7,651.1c1.2-0.8,1.7-0.7,1.9,0.4C348.9,651.9,348.5,651.4,347.7,651.1z"/>
	<path fill="#FFFFFF" d="M369.5,124.9c-0.3,1-0.7,1.5-1.7,1.2C367.9,125.2,368.4,125,369.5,124.9z"/>
	<path fill="#FFFFFF" d="M503.5,409.9c0.4,0.9-0.4,1.2-0.9,1.7C502.5,410.8,503,410.4,503.5,409.9L503.5,409.9z"/>
	<path fill="#FFFFFF" d="M419.5,628.8c0.6,0,0.8,0,1,0v0.1C420.3,628.9,420.1,628.9,419.5,628.8z"/>
	<path fill="#FFFFFF" d="M424.1,485.7c0.5,0.8-0.1,0.9-0.5,1.3C423.4,486.2,423.8,486,424.1,485.7z"/>
	<path fill="#FFFFFF" d="M420.4,302.8c-0.7,0.2-1.1,0.2-0.9-0.7C420.2,301.9,420.1,302.6,420.4,302.8L420.4,302.8z"/>
	<path fill="#FFFFFF" d="M504.3,389.2c-0.8-0.1-1-0.8-1.3-1.5C504.1,387.7,504.2,388.4,504.3,389.2L504.3,389.2z"/>
	<path fill="#FFFFFF" d="M802.2,390.4c-0.6,1.8-1.7,1.7-2.8,1.5c-0.2-1.3,0.8-1.9,1.2-2.8C801.4,389.4,801.9,389.9,802.2,390.4z"/>
	<path fill="#FFFFFF" d="M331.6,469.3c-1,1.5-2,1.4-3.3,0.6C329.1,468.1,330.1,468.2,331.6,469.3z"/>
	<path fill="#FFFFFF" d="M347.3,473.2c-2-0.5-2.7-1.5-2.3-3.2c0.2-1,1-1.6,2-1.6c1.6-0.1,2.4,0.7,2.7,2.2
		C347.8,471.3,347.8,471.3,347.3,473.2z"/>
	<path fill="#FFFFFF" d="M815.1,474.6c-1.9-0.4-2.6-1.4-2.3-3.1c0.2-1,0.9-1.6,2-1.7c1.6-0.1,2.4,0.7,2.7,2
		c-0.3,1.4-1.3,0.1-1.6,0.6C814.9,473,815.7,473.9,815.1,474.6z"/>
	<path fill="#FFFFFF" d="M799.4,471c-1.1,1.2-2,1.2-3,0.4C797.4,469.9,797.4,469.9,799.4,471z"/>
	<path fill="#FFFFFF" d="M340.5,471.1c-0.3,1.4-1.1,2.2-2.6,2s-2.4-1.2-2.2-2.7c0.2-1.4,1.1-2.1,2.5-2
		C339.9,468.6,340.5,469.6,340.5,471.1z"/>
	<path fill="#FFFFFF" d="M805.9,474.6c-1.5-0.2-2.4-1.1-2.3-2.6c0.1-1.4,0.9-2.2,2.4-2.1c1.6,0.1,2.4,1,2.3,2.6
		C808.2,473.8,807.3,474.5,805.9,474.6z"/>
	<path d="M716.1,332.5c-1.2,0.5-2,0.2-2.8-0.6C714.6,330.9,715.2,331.7,716.1,332.5z"/>
	<path d="M711.6,442.7c0.6-0.9,1.1-1.2,2-0.8C713.2,442.8,712.8,443.3,711.6,442.7z"/>
	<path d="M796.8,499.4c1.2-0.6,1.9-0.4,2.6-0.1c6.4,2.9,10.9-0.6,15.2-4.6c1.5-1.4,2.6-3,4-4.7c-0.1,4.4-3.6,8.8-8.8,11
		C805.2,502.9,800.9,503.2,796.8,499.4z"/>
	<path d="M797.5,519.3c0.7,0.2,0.9,0.7,0.7,1.4c-0.6,1.8-1,3.8-2,5.3c-2.5,3.8-2.6,7.8-1.8,12c0.7,3.6,0.3,7-1.5,10.3
		c-0.8-0.9-0.6-1.8-0.3-2.5c1-2.8,0.8-5.6,0.2-8.5c-0.7-3.9-0.4-7.6,1.8-11c1.2-1.8,1.6-3.9,2.1-6
		C796.4,519.5,796.7,519.2,797.5,519.3z"/>
	<path d="M806.1,522.6c-4.5-4.7-4.2-13.3,0.5-15.6c-0.4,2.8-2,5.1-1.8,7.9C805,517.4,806.6,519.7,806.1,522.6z"/>
	<path d="M797.5,519.3c-0.3,0.3-0.6,0.7-0.8,1c-2.7,2-3.6,5.2-5.2,7.9c0-4,2.1-7,4.9-9.5C796.7,518.4,797.2,518.9,797.5,519.3z"/>
	<path d="M810.4,565.6c-2-3.5-0.8-6.3,0-9C810.4,559.3,810.4,562.1,810.4,565.6z"/>
	<path d="M787.9,537.5c0,2.3,0,4.7,0,7C787.3,542.2,787.8,539.8,787.9,537.5z"/>
	<path d="M821.3,499.5c-1-1.1-2.7-2-1.8-4.1C821.8,496.1,820.9,498.1,821.3,499.5z"/>
	<path d="M811.5,547.9c0.7,1.7-0.2,2.8-0.7,4.3C810.1,550.6,810.8,549.5,811.5,547.9z"/>
	<path d="M797.4,608.9c0.3,1.1,0.4,2.1-0.4,3.2C796.3,610.8,796.6,609.8,797.4,608.9z"/>
	<path d="M797.5,604.2c-1.1-1.2-0.6-2.1-0.9-3.4C797.9,602,797.1,602.9,797.5,604.2z"/>
	<path d="M813.7,539.5c0.4,0.2,0.4,0.6,0.2,0.8c-0.4,0.6-0.4,0-0.4-0.2C813.5,539.9,813.6,539.7,813.7,539.5z"/>
	<path d="M814.9,370.1c1.6-4.8,1-10.2,3.7-14.7c0.4,0.1,0.7,0.2,1.1,0.3c-1.3,4.9-2.6,9.8-3.9,14.6
		C815.4,370.2,815.1,370.2,814.9,370.1z"/>
	<path d="M841,356.4c0.7,4.7,1.4,9.4,2,14c-0.3,0.1-0.7,0.1-1,0.2c-0.5-4.7-2.7-9.2-2.2-14.1C840.2,356.4,840.6,356.4,841,356.4z"/>
	<path d="M847.5,354.8c-1.8,1.4-3.6,1.3-5.9,0C844,354.8,845.8,354.8,847.5,354.8z"/>
	<path d="M833.4,354.2c-1.8,0.1-3.5,2-5.4,0.4C829.8,354.1,831.6,352.9,833.4,354.2z"/>
	<path d="M852.6,363.4c0.9,1.6,0.5,3.3,0.7,5.6C852.3,366.8,852.2,365.2,852.6,363.4z"/>
	<path d="M859.9,355.8c0,2.2,0,4,0,6.1C858.9,359.4,858.9,359.4,859.9,355.8z"/>
	<path d="M865.3,352.5c0.7,1.1,0.6,1.7-0.3,2.2C863.9,354,864.4,353.4,865.3,352.5z"/>
	<path d="M861.5,352.4c0.9,0.9,0.7,1.5,0.1,2.2C860.4,354,860.7,353.4,861.5,352.4z"/>
	<path d="M857.7,353.5c0.7-0.4,1.3-0.3,1.4,0.1c0.2,0.8-0.4,0.6-0.8,0.4C858.1,354,857.9,353.8,857.7,353.5z"/>
	<path d="M238.1,472.2c0.5-1,1.1-1,2-0.9C239.6,472.3,239.2,472.7,238.1,472.2z"/>
	<path d="M242.6,362.2c-1.3,0.1-2.2-0.1-2.9-1C241,360.7,241.7,361,242.6,362.2z"/>
	<path d="M367.5,372.9c0.2-6.4-1.6-12.9,0.5-19.3C369.6,360.1,368.7,366.5,367.5,372.9z"/>
	<path d="M349.7,354.8c0.5-0.1,1-0.8,2-0.2c-1.3,4.8-2.6,9.7-3.9,14.6c-0.2,0-0.5-0.1-0.7-0.1C348,364.4,348.9,359.6,349.7,354.8
		L349.7,354.8z"/>
	<path d="M374.2,369.4c-0.4-4.7-2.9-9.1-2.2-14c0.4-0.1,0.7-0.1,1.1-0.2c0.7,4.7,1.4,9.4,2.1,14
		C374.9,369.3,374.5,369.4,374.2,369.4z"/>
	<path d="M416,374.7c1.2,3.1,2.5,6.2,3.8,9.6C417.1,381.7,415.7,378.4,416,374.7z"/>
	<path d="M345.8,378.6c0.1-2.4,0.1-4.8-0.4-7.6C347.5,373.5,347.6,375.6,345.8,378.6z"/>
	<path d="M379.7,354.2c-1.8,0.4-3.7,1.2-5.6-0.8C376.2,353.5,378,353.3,379.7,354.2z"/>
	<path d="M385.3,366.9c-1-1.4-0.8-2.9-0.9-5.1C386,363.8,385.1,365.5,385.3,366.9z"/>
	<path d="M360.3,353.6c1.7-1,3.6-1.4,6.4-0.8C364.1,353.6,362.3,354.6,360.3,353.6z"/>
	<path d="M384.2,391.3c-0.1-2.1-0.2-4.2,0.7-6.2C385.3,387.2,385.3,389.3,384.2,391.3z"/>
	<path d="M392.9,354.1c-1.4,2-0.4,4.4-1.3,6.5C391.6,358.3,390.2,355.9,392.9,354.1L392.9,354.1z"/>
	<path d="M393,354.1c0-0.7,0-1.4,0.1-2.1c0-0.1,0.3-0.3,0.6-0.5C395.3,353,393.7,353.4,393,354.1L393,354.1z"/>
	<path d="M397.7,351.5c0.4,1.2,0.3,1.8-0.8,2.1C396.3,352.7,396.5,352.1,397.7,351.5z"/>
	<path d="M390.1,352.1c0.7-0.2,1,0.1,1.2,0.5s-0.2,0.6-0.5,0.5C390.3,353.1,389.9,352.9,390.1,352.1z"/>
	<path d="M409.6,369.7c0.5,0.6,1.2,1,1,2.1c-1-0.2-1.2-1-1.4-1.7C409.3,369.9,409.5,369.8,409.6,369.7z"/>
</g>
</svg>
