<?xml version="1.0" encoding="utf-8"?>
<!-- Generator: Adobe Illustrator 19.1.0, SVG Export Plug-In . SVG Version: 6.00 Build 0)  -->
<svg version="1.2" baseProfile="tiny" id="Layer_2" xmlns="http://www.w3.org/2000/svg" xmlns:xlink="http://www.w3.org/1999/xlink"
	 x="0px" y="0px" width="900px" height="600px" viewBox="144 97 900 600" xml:space="preserve">
<g>
	<path d="M401.6,364.5c-3.8,1-6.4,4.6-10.8,4.5c2.8,7.1,3.7,14.2,4,21.2c0.2,5.5,2.5,10.1,5.9,14.1c2.3,2.7,6.1,3.4,9.1,5.3
		c1.8-1.9,1.3-4.4,3.1-5.8c0.9,1.9,0,3.6-0.4,6c5.3-0.6,10.5,0.1,14.9-3.4c0.4-0.4,0.9-0.7,1.2-1.2c2.1-4.6,4.2-9.2,6.4-14.2
		c-5.8,0.3-11.1,2.5-16.6,1.3c5.5-0.9,11-1.4,16.6-3c1.7-4.6-0.7-9.1,0.3-13.8c-4.5,1.6-8.6,1.6-12.5,0.3c0-0.3,0-0.6,0-0.9
		c3.7,0,7.4,0,11.2,0c5-9.8,5.6-20.3,6.7-30.7c1.6,1.7,2.5,6.1,1.2,8.8c-0.8,1.8-1.3,3.6-1.3,5.6c0.1,4.9-2.4,9.1-4.1,14
		c5.6,1.7,9.2,5.9,13.3,9.6c2.6,2.3,5.7,3.7,8.9,4.8c2.6,0.8,4.4,2.3,5.5,4.6c2.9,6,5.2,12.3,4.5,19.2c-0.4,4.2,0.4,8,2.6,11.7
		c3.6,6.1,4.8,12.9,3.8,19.8c-1.2,8.8-0.9,17.5,0,26.3c0.1,0.7,0.1,1.5,0.5,1.9c2.5,2.4,2,5.4,1.4,8.2c-0.4,2,0,3.9,0.7,5.6
		c2.2,6.1,2,12.2,0.9,18.4c-0.6,3.5-1.7,6.9-0.6,10.6c0.6,2-0.3,4.2-0.8,6.3c-0.5,2-0.8,4-0.5,6c0.4,3.5-0.2,7-0.7,10.4
		c-0.8,4.7-0.8,9.1,1.7,13.7c1.6,3,3.2,6.4,2.9,10.3c13-1.4,26.1-1.8,39.1-2.1c1.1-1.4,0.9-3,0.8-4.4c-0.3-11.4,4.6-20.6,12.1-28.5
		c4-4.2,9.1-6.2,15.2-5.7c6.6,0.6,12.7,1.9,17.6,6.6c5.7,5.5,9.5,12,11.2,19.7c0.6,3,1.2,5.9,1.9,8.9c2.9,0.3,5.6,0,8.3-0.1
		c9.2-0.5,18.5-1.1,27.7-1.6c2.6-0.2,4.3,1.7,3.6,4.2c-0.2,0.7-0.6,1.4-1.2,2.6c-12.6,0.8-25.4,1.6-38.4,2.4
		c-0.5,3.8-0.9,7.2-1.5,10.7c-1.2,6.8-3.5,13.3-7.4,19.1c-2.8,4.3-6.5,7.4-11.4,9c-4,1.3-8.1,2.4-12.2,2.4c-7.3,0-12.8-3.9-17.1-9.5
		c-4.4-5.8-6-12.8-7.6-19.7c-0.6-2.7-1-5.5-1.5-8.5c-14,0.8-27.8,2-41.8,2.4c-3.4,5.4-8.5,6.8-14.7,6.5c-0.5,0.2-0.7,1.4-1.9,1.6
		c-3.5-1-6.8-2.6-8.8-6.2c-5.7,0.3-11.3,0.7-17.4,1.1c3,4.2,4,9,6.1,13.3c1.8,3.9,5.1,6.7,8.5,9c3.3,2.3,6.7,4.6,10.4,6.3
		c2.6,1.1,5.4,7.8,4.2,10.3c-1.2,2.3-3.4,3.7-6,3.7c-7.7-0.1-15.6,1.5-23-1.9c-6.4-2.9-13.1-4.1-20.1-3.8c-3.5,0.1-6.5-1.2-9.5-2.4
		c-0.1-5,2.6-9.2,3.3-13.9c0.4-2.5,0.6-5.1-0.3-7.7c-0.7-1.8,0-3.6,1-5.2c0.6-1.1,1.5-1.8,3-0.4c-1.2-3.5,2.1-2,3.1-3.2
		c0.4-0.7,0.3-1.6-0.1-2.9c-17.8,1.1-35.7,2.1-53.7,3.2c-1.1,2.4-0.4,5-1.3,7.1c0.5,1.2,1.6,1.4,2.3,2.1c1.2,1.3,1.7,2.6,1,4.3
		c-1.5,3.9-0.5,7.4,1.6,10.8c1.4,2.1,2.6,4.1,5.1,5.1c1.1,0.4,1.6,1.7,1.9,2.7c1,3.6,1.6,7.2,1.7,10.7c-0.4,0.4-0.5,0.7-0.7,0.7
		c-7.3,1.7-14.4,4.5-22.1,2.7c-0.5-0.1-1.1-0.3-1.7-0.3c-5.4,0.4-9.9-2.3-12.7-6.2c-2.4-3.3-5.2-5.7-8.9-7.9c2.2-3,1.3-6.7,3.7-9.7
		c1.9-2.3,1.6-5.8,2.3-8.7c0.6-2.6,0.4-5.5,3.1-7.6c0.7-0.7,1.6,1.1,2.5,0.3c-1.5-2.3-4.3-0.5-6.8-2c2.3-0.6,2.7-2.1,3.4-3.6
		c0.9-2.1,1.2-4.8,4.5-5.8c-0.7,3.1-2.7,5.2-3.3,7.9c0.9,1,2,1,3.1,0.8c2-2.6,3.2-5.7,5.9-8.7c1,2.8-1,4.1-1.8,5.7
		c-0.8,1.7-2.3,3-2.3,5.2c1.1-0.2,2-0.4,3.3-0.7c1.7-4,4.1-7.9,4.8-12.4c0.2-1.3,0.2-2.4-0.8-3.5c-4.1-4.3-5.7-9.7-6-15.3
		c-0.5-8.6-0.5-17.2,0.1-25.7c0.4-5,1.4-10.1,3.4-14.8c3.4-8.4,5.2-17.1,6.4-26c0-0.3,0.2-0.7,0.1-1c-1.6-7.4,2.2-13.5,4.8-19.9
		c3.3-8,6.1-16,6.8-24.6c0.2-2.9,2.3-4.7,4.3-6.2c3.2-2.3,5.8-5.5,9.1-7.6c7.5-4.9,9.6-12.6,9.4-20.5c-0.3-10.8,0.9-22-5.1-32.4
		c-3.8,0.5-7.1,2.3-10.1,4.9c-0.8,0.7-1.4,1.7-2.1,2.6c-1.5,1.7-2.9,3.1-5.6,3.7c-3.8,0.8-7,3.6-9.9,6.2c-0.6,0.5-1,1.2-1.7,1.7
		c-2.5,2-4.1,4.3-3.3,7.7c1.1,0.1,0.8-1.9,2.6-1.5c-0.9,4.3-5.2,6.6-6.1,11c-0.9,4-3.6,7.6-4.9,12.1c-1.2-2-0.9-3.7-0.5-5.3
		c0.6-2.2,1.7-4.2,2.8-6.1c1.5-2.7,2.6-5.5,3.2-8.7c1.8-8.3,5.2-15.9,14.5-18.6c3.2-0.9,5.7-2.7,8-5.4c4.7-5.3,11-7.6,18.2-7.6
		c4.5,0,8.6-1.3,12.4-4.4c-2.2-2.7-1.4-6.2-2.5-9.3c-1-2.6-2.7-5.3-1.5-8.3c0.1-0.2,0-0.5-0.1-0.6c-4.4-7-1-13.2,1.3-19.8
		c1.1-3,2.2-5.9,3.8-8.9c-0.1-0.9-1.6-1.2-1.5-2.6c2.2-1.3,3.4,0.6,4.9,1.6c3.4,0.2,5.9-1.6,7.9-3.9c1.6-0.1,0.8,1.5,1.6,1.9
		c1.4,0.1,1.3-1.5,2.2-2.2c1.6,0,3.1,0,4.7,0c4.3,0,8.5,0.7,12.7-1.1c1.2-0.5,2.6-0.3,3.5,1.1c1.1-1,2-1.8,3-2.7
		c1.6,1.6,0.4,3.5,1,5.1c1.4-0.1,2.8-1.8,4.4-0.4c0.3,1.9-1.8,1.7-2.6,2.9c1.3,0.3,2.7-0.6,3.8,0.4c0,1,0,2.1,0,3.2
		c-1.8,2-4.8,2.6-6.5,5.3c0.8,3.3,0.4,7,1.8,10.6c1,2.6-1.2,5.1-1.3,7.8c-1.9,0.6-3.6,1.5-5.4,0.9c-1.1,0.6-0.3,2-1.2,2.6
		c-2.1-0.4-0.4-5.7,2.3-7.1c1.3-0.7,2.7-1.2,4.5-2c-0.8-4-2.4-7.8-2.1-12.3c-4.2,2-8.1,0.2-12.1,0.2c-2,0-4.1-0.2-5.2,2.3
		c-1.1-0.8-1-3.1-3-2.6c-0.4-0.4-0.9-0.5-1.5-0.5c0.6,0,1.1,0.2,1.6,0.5c0,1.3,1,2.2,1.3,3.6c-1.4,1.2-2.3,3.1-4.5,2.4
		c-4.1,5.9-6.5,12.3-9.3,19.2c-1.4-1.7-0.2-3.6-2.1-4.2c-0.8,1.1-0.3,2.4-0.7,3.5c-0.5,0.8-1.4,0.6-2.1,0.8
		c-0.1,1.8,1.5,1.6,2.5,2.1c-1.8,3.7-0.3,7.6-1.2,11.2C403,364,401.8,363.6,401.6,364.5L401.6,364.5z"/>
	<path d="M757.4,429c1.3-0.3,2.7-0.3,4.1-1.1c1.3-4.3,3.3-8.6,3.2-13.4c0-1.8-0.5-3.5-2-4.8c-5.2-4.3-7-9.9-7.1-16.5
		c-0.1-6.9-1-13.7-1.9-20.6c-0.2-2-0.3-3.8,0.7-5.6c0.3-0.6,0.5-1.2,0.5-1.9c1-9.8,2.7-19.5,1.9-29.3c-0.3-4.4,0.9-8.4,2.7-12.4
		c4.2-9.5,6.9-19.5,8.1-29.9c0.8-6.7,1.7-13.4,1.4-20.2c0-0.8-0.2-1.9,1.3-2.4c1.6,4.2,0.9,8.5,0.8,13.2c3.3,0.2,5.8-1.3,7.9-3.2
		c3.3-3.1,6.1-6.6,7.5-11.1c1.2-3.7,3.7-7,4-11.1c0.1-1,0.2-2-0.1-3c-2.6-9.1-7.1-17.2-13-24.8c-3.8,3-8.2,4.8-11.7,8.2
		c-0.9,0.9-2.1,1.4-3.3,1.7c-4.6,1.3-8.2,4.2-11.9,7c-1,0.7-1.5,1.7-2,2.8c2.3,3.8-0.9,7.6,0.5,11.9c-1.8-1.8-1.8-1.8-1.7-9.7
		c-2.5,3.9-3.4,7.6-4,11.4c-1.1,7.4-3,14.5-6.5,21.5c-0.7-1.4-0.3-2.5-0.1-3.6c0.5-2.6,1.7-4.9,2.8-7.2c1.1-2.5,1.6-4.9,1.6-7.5
		c0-7.2,2.5-13.6,6.5-19.3c2.8-4,7.3-6.3,11.7-8.4c6-2.9,11.2-7.1,16.4-11.1c1.8-1.4,3.5-2.8,5.1-4.3c4.7-4.7,7.9-10.1,6.7-17.2
		c-0.2-1.1,0.1-2.2,0.1-3.4c0-0.8,0.3-1.8-0.1-2.3c-3.1-4.1-1.8-9.7-4.6-13.9c-0.1-0.1-0.1-0.2-0.1-0.3c0.9-3.5-1.3-6.4-1.9-9.6
		c-0.5-2.7-0.2-5.3,0.9-8c1.3-3.2,2-6.6,3.2-9.9c0.7-2,2.1-3.6,2.9-5.6c0-1-1.6-1.4-1.3-2.8c2.2-1.2,3.4,0.7,4.9,1.7
		c3.4,0.1,5.9-1.7,7.8-3.9c1.6,0,0.8,1.6,1.6,1.9c1.4,0.1,1.2-1.6,2.3-2c3.8,0.2,7.7-0.6,11.6,0.2c1.2,0.2,3.2-0.6,4.8-1.2
		c1.6-0.6,3.3-1,4.5,0.9c1.1-1,2-1.8,3-2.7c1.4,1.6,0.6,3.3,0.9,5.1c1.5,0,2.9-1.8,4.5-0.4c0.3,2-1.9,1.7-2.6,2.9
		c1.3,0.4,2.7-0.6,3.8,0.5c0.3,1-0.7,2.1,0.2,3c-2,2.2-5,2.8-6.7,5.5c0.9,3.3,0.4,7,1.8,10.6c1,2.6-1.2,5.1-1.3,7.8
		c-1.9,0.7-3.6,1.4-5.4,1c-1.1,0.6-0.3,2-1.2,2.6c-2.1-0.4-0.4-5.7,2.3-7.1c1.3-0.7,2.7-1.2,4.4-2c-0.9-4-2.4-7.9-2.1-12.3
		c-4.2,2-8.1,0.2-12.1,0.2c-2,0-4.2-0.5-5,2.5c-1.3-1-1.2-3.2-3.2-2.8c-0.4-0.4-0.9-0.5-1.5-0.5c0.6,0,1.1,0.2,1.6,0.5
		c0.1,1.3,0.8,2.3,1.5,3.5c-1.5,1.3-2.4,3.2-4.6,2.5c-4.1,5.9-6.5,12.3-9.5,18.6c-1-1.2-0.3-2.8-1.7-3.7c-1.2,1-0.2,2.5-0.9,3.6
		c-0.5,0.8-1.4,0.5-2,0.8c-0.2,1.9,1.6,1.5,2.7,2.2c-0.9,1.3-1.4,2.6-1,4.2c1-0.5,0.6-2.2,2.2-2.2c-0.2,3.4,0.9,6.5,2.2,9.7
		c2.9,2.1,6.5,3.6,8.8,6.7c-0.2,0.3-0.4,0.5-0.5,0.8c-3.7-2.6-7.3-5.1-11.7-8.2c0.6,9.5,0.1,18.1-8.6,24c3.4,3.4,6.5,6.7,9.3,10.9
		c0.8-2.1-0.2-3.9,0.8-6c0.8,2.9,2,5.2,0.3,7.6c2,3.4,3.9,6.7,5.7,10.1c3.5,6.7,11.4,11.2,18.8,10.2c6.9-1,8.9-4,9-11
		c0.1-3.4-0.9-6.9-1.5-10.4c-0.3-1.8-0.8-3.5-2.4-4.7c-3.7-2.9-4.9-6.9-4.8-11.4c0-1.9,0.5-3.8-0.1-5.8c-2.8-0.6-6,0.8-9.1-1.9
		c4.2,0,7.8,0,11.8,0c5.3-9.6,5.6-20.4,7-31.7c1.6,3.5,2.3,6.6,1.2,9.4c-1.2,2.9-1.1,6-1.7,8.9c-1.2,5.4-2.7,10.8-6.8,15.4
		c-0.1,1.2-0.4,2.8-0.3,4.3c0.2,4.7,0.9,9.1,5.9,11.6c2.9,1.5,5.5,3.5,8.5,5c1.7,0.8,3.5,1.7,4.2,3.6l0-0.1
		c-2.8,0.4-4.2-2.5-6.9-2.7c-0.6,0.8,0,1.7,0.3,2.4c2.5,6.2,2.2,13.2,5.8,19c2.9,4.7,7,7.6,12.7,8.5c0.4-4-1-7.7-1.1-11.6
		c2.1,0,2.2,1.4,2.4,2.5c0.5,3.1,1.1,6.2,0.6,9.4c-0.8,5.3-1.4,10.7-2.2,16.1c-0.2,1.1-0.3,2.4-0.9,3.2c-2.3,2.9-2,6.3-1.9,9.6
		c0.1,4.2,0.1,8.4-0.6,12.5c-0.6,3.1,1.7,5.5,1.8,7.7c0.2,1.6-1,1-1,2c1.1,4,2,8.3,4.1,12.4c2.1,4.2,3.8,8.8,3.3,13.8
		c-0.1,1.3,0.7,2.4,1,3.5c1.9,7.2,4.6,14.2,8,20.8c1.6,3.1,2.4,6.6,2.6,10.1c0.1,1-0.1,2,0.5,2.9c1.5-2.8,1.5-2.8,0.4-5.3
		c-0.7-1.6-0.7-3.2-0.5-5.3c1.9,1.5,2.2,3.3,2.2,5c0.2,4.5-0.5,8.9-0.8,13.3c-0.5,7.1-3,13.5-6.3,20c1.7-1.2,3.4-0.8,5.2-0.3
		c2.5,3.6,2,7.5,0.6,11.4c0.8,1,1.9,1.1,3.2,1.2c1-3.9,2.7-7.3,6.1-9.8c-2,3.9-3.1,8.2-4.8,12.1c-3.5-0.2-6.1-2.4-9.5-2.5
		c-1.4,0-3-1.1-3-3c-1.9-0.1-3.6-0.3-5.3,0.2c1.1,5.6,1.2,11.4,3.5,16.5c3.5,7.9,2.4,16.2,3.3,24.3c0.3,2.5,1.4,5.1,0.3,7.8
		c-1.9,0.4-4.1-0.2-5.8,1.4c-0.1,2.8-0.6,5.7-1.8,8.4c-1.6,3.5,0,6.8,1,9.8c1.7,5,1.5,9.7-0.5,14.2c-1.9,4.6-1.6,9-0.3,13.5
		c1.8,6.4,1.9,12.8,1,19.4c-0.8,6.1-1.1,12.4-2.2,18.5c-0.5,2.8-1.2,5.5-2.2,8.2c-1.3,3.6-2.1,7.4-2.3,11.2c-0.1,2-0.3,4.1-0.8,6
		c-1.2,4.5-1.7,9.1-1.6,13.7c0,1,0.2,2.3-0.9,3.1c-1.2-0.3-0.8-1.1-0.8-1.9c-0.4-10.6,2.4-20.8,4-31.1c1.6-10.1,3.4-20.2,4.8-30.4
		c0.6-4.6,0.4-9-0.4-13.4c-0.7-3.7-1.1-7.4-1.4-11c-0.3-2.9,1.1-5.9,1.9-8.8c1.5-5.4,0.3-10.5-1.3-15.6c-0.3-1-1-1.3-1.8-1.8
		c0.7-0.6,1.4-1.1,2.1-1.7c-0.3-3.2,1.1-6.2,0.9-10c-11.6,2.8-22.9,6.6-35,4.8c-0.2,2.6,1.1,4.1,2.3,5.6c2.4,3,3.8,6.2,2.9,10.3
		c-0.8,3.4,0.5,6.7,1.8,9.9c0.3,0.7,0.6,1.4,1,2.2c1.7,3.5,2.1,7.1,1.5,11.1c-0.8,5.7-1.7,11.4-3.3,16.9c-2,6.9-1.8,13.6,0.8,20.2
		c2.3,5.8,2.9,11.8,2.9,17.9c0.1,9.3,0,18.5,0,27.8c0,0.8,0,1.6,0.5,2.3c0.7,0.3,1.3,0.3,2-0.2c0.8-1.7,0.1-3.7,1.1-5.6
		c0.1,1.8,0.3,3.6,0.4,5.7c4.1-0.2,8-0.2,11.9-0.6c3.9-0.4,6.3,1.4,8,4.9c4.1,8.6,8,17.4,18.2,21c3.5,1.2,6.5,3.8,5.8,8.5
		c-0.2,1.3,0.7,2.4,0.7,3.8c-1.4,2.5-3.5,3.7-6.5,3.8c-7.6,0.3-15.1-0.4-22.6-1.2c-3.3-0.3-6.4-2.6-9.5-4.1
		c-4.7-2.3-9.5-3.2-14.7-3.2c-1.7,0-3.7,0.3-5.1-1.3c0.5-9.1,0.5-9.1,4-10.9c0.7,3.4-2.4,5.9-1.3,9.3c0.5,0.1,1.7,0.6,2.7,0.5
		c7.7-0.8,14,2.6,20.3,6.1c2.7,1.5,5.9,1.8,8.9,1.9c5.9,0.1,11.7,0.9,17.5,1c1.7,0,3.2-0.1,4.2-1.7c-0.4-1.3-1.1-2.6-0.9-4.2
		c0.4-3-1.1-4.6-3.7-5.6c-5.1-2-9.7-4.9-13.3-9.3c-3.4,1.5-7.1,1.4-10.7,1.7c-0.5-1.3,1-1.2,1.2-2.1c-1.9-0.4-3.9-0.1-6-1.2
		c4.1-2.8,8.9-1.2,12.7-3.3c-4.1-1-8.2,0.3-12.2-0.7c-0.2-1-0.1-2.2-1.8-2.2c3.7-1.7,7.4-2,11.6-1.9c-1.7-2.8-1.5-6.4-4.7-7.5
		c-2.8,0.3-2.9,3.9-5.8,3.7c0,1.6,0.3,3.1-1.4,3.9c-1.4,0.6-2.9,0.4-3.7-0.7c-2.1-2.5-4.7-2.3-7.4-1.8c-0.9,0.2-1.5-0.3-2.4-0.1
		c-1.3,2.9-1.3,5.9-1.1,9.1c0.1,1.7,0.4,3.7-2.2,4.2c-1-5.3-0.6-10.2,0.7-15.2c0.1-0.5,0.5-1,0.9-1.4c3.4-3.7,2.9-8.2,2.6-12.7
		c-0.5-9-1.6-18-0.5-27c0.2-1.8-0.1-3.7-0.8-5.3c-1.7-3.6-2.4-7.5-3.6-11.3c-1.3-3.9-1.2-7.8-0.2-11.7c1.9-7.7,3.2-15.4,4.1-23.3
		c0.4-3.5-0.5-6-1.5-9c-1.5-4-3.1-7.9-2.1-12.4c0.4-1.7-0.4-3.6-1.4-5.1c-1.9-2.8-3.8-5.6-4.7-8.9c-2.6-0.4-5-0.7-7.9-1.2
		c2-2.8,0.6-5.3,0-8c-1.3-5.4-2.8-10.6-5.3-15.7c-0.9,0.4-0.6,1.4-0.7,2.2c-0.5,6.1-1.4,12.1-2.7,18.1c-0.3,1.4-0.1,3.3-2.3,3.5
		c-0.2-0.1-0.3-0.2-0.5-0.3c-1.4-1.8-1.1-3.8-0.8-5.8c0.8-5.1,2-10.2,1.9-15.4c0-2.8,1.1-5.2,3.3-7.2c1.5-1.4,2.9-1.2,3.3,0.7
		c1.3,6,6,10.6,6.7,16.8c0.2,1.5,1.1,3,1.6,4.4c1,2.7,2.9,3.8,5.8,3.8c9.3,0.1,18.5,0.3,27.3-3.6c2.7-1.2,5.7-1.2,8.5-2.3
		c2.7-1.1,3.9-3,3.4-5.8c-0.2-1-0.4-2-0.3-3c1.1-11.2-3.9-21.2-5.9-31.8c-0.5-2.8-2.7-3.7-5.4-3.6c-24.5,1-48.9,1.6-73.4,1.9
		c-3.8,0-5.9,1.9-7.1,5.1c-0.8,2.2-2.1,3.7-4.5,4c-1.7,0.2-2.9-0.2-3.3-2C757.4,429.4,757.4,429.2,757.4,429z"/>
	<path d="M328.4,473.7c0.4,3.3-0.4,6.6-1.1,9.7c-0.8,4-1.5,7.9-2.3,11.9c-0.9,4.5-1.9,9.1,0.9,13.4c0.4,0.6,0.3,1.5,0.4,2.3
		c1,11.9,1.8,23.9,3,35.8c0.5,4.8-0.2,9.4-0.7,14.1c-0.5,4.4-0.7,8.8-0.1,13.2c0.2,1.5,0.8,2.8,2.8,3.3c0.7-2.8-0.5-6.1,2-8.5
		c1.2,3.4,0.1,8.8-2,10.6c-0.1,0-0.3,0.1-0.3,0c-4.7-2.8-9.8-2.3-15-2c-13.3,0.9-26.6,1.6-39.9,2.4c-1.2,0.1-2.5,0.1-4.1,0.8
		c0.4,4.2-0.2,8.6-0.5,12.9c-0.8,11.7-5.3,21.8-12.9,30.7c-3.3,3.8-8.1,5.2-12.6,4.7c-3.5-0.4-7.2-2.2-10-4.9
		c-1.1-1.1-2.3-2.2-3.3-3.4c-2.3-2.8-4.3-5.7-8.2-6.6c-1.4-0.3-2.5-1.5-3-3c-0.1-0.8,0.3-1.5,0.6-2.2c1.1-2.4,1-4.6,0.1-7.1
		c-2.1-5.7-3.2-11.7-4.3-17.8c-2.5-0.6-4.8-0.2-7.2-0.1c-16.2,0.9-32.5,2-48.7,3c-0.3,0-0.7,0.1-1,0.1c-4.1,0-6.6-2-6.6-5.2
		c0-3.1,2.5-4.9,6.6-5.1c14-0.6,28-1.4,42-2.2c4.6-0.3,9.2-0.1,13.9-0.9c0.3-5,1.1-9.7,2-14.5c1.5-7.9,5-14.9,9.9-21.3
		c1.4-1.9,2.9-3.7,5.5-4.3c1.3-0.3,1.9-1.4,2.4-2.7c6.1,0,11.9,0.2,17.2,3.3c0.8,0.5,1.5,1,2.1,1.7c3.8,4.3,7.1,8.9,9.8,14.1
		c3.3,6.5,4.7,13.4,5.7,20.8c18.1-0.3,35.9-2.9,53.8-2.6c1.6-1.7,1.2-3.7,1.2-5.4c0-4,0.4-7.9,0.9-11.8c0.3-1.9,0.4-3.9,0.1-5.7
		c-1.1-7.4-1.7-14.8-2.8-22.2c-1-6.9-2.2-13.8-2.6-20.8c-0.2-3.8,1-7.6,1-11.6c-5.6-3.9-9-9.2-9.8-16.2c-0.1-1.2-0.9-2.3-1.5-3.4
		c-0.6-1.2-0.8-2.5-0.2-3.6c3.1-5.2,2-11,2.5-16.5c0.3-3.9,1.8-6.9,5.7-7.6c4.8-0.9,7.9-3.5,10.4-7.3c0.4-0.6,1-0.8,1.7-1.1
		c1.3-6.3,5.2-11.2,7.6-16.9c2,0.7,1.5,1.5,1.1,2.3c-1.1,2-2.4,3.8-3.3,5.9c-1.8,4.1-2.5,8.3-2.2,13.1c0.5,6.8-0.6,13.7-1.8,20.5
		c-0.7,4.1-1.9,8.1-3.5,11.9C329.4,472.4,329.3,473.4,328.4,473.7c-2.6-3.2-2.5-5.4-0.8-9c1.4-2.8,2.7-5.8,2.5-9.1
		c-0.1-1.5,0.2-3,0.8-4.3c1.3-2.7,1.4-5.3-0.6-8.1c-2.9,2.9-7.2,2.6-10.1,3.9c0.6-0.7,2.1-0.7,3.6-0.8c1.5-0.1,2.9,0,4.4-0.5
		c1.4-0.5,3.1-1.3,3.6,0.7c0.5,1.8,0.1,3.8-1.8,5c-1.2,0.8-2.6,0.7-3.9,0.7c-3.8,0.1-6.7,2.5-6.8,6.4c-0.1,3.6-0.6,6.9-2.6,10
		c-1.3,2.1,0.1,4.2,0.6,6.2c0.8,3.5,2.2,6.8,5,9.3c2.7-4.2,2.2-6.5-1.7-8.5c-1-0.5-2.2-1-1.9-2.4c0.2-1.4,1.4-1.6,2.6-1.7
		C323.8,471.4,326.4,471.7,328.4,473.7z"/>
	<path d="M749.2,415.1c0.6,3-0.1,6.9-1.7,9.2c0.9,1.4,2.2,1.2,3.7,0.9c1.4-2.7,1.7-5.8,3.8-8.6c0.7-0.6,2.1-0.4,3.2-1.6
		c0.2,3.3-3,3.6-3.5,5.9c-0.5,2.1-0.9,4.5-2.7,6.1c-2.1,0.2-4.3,0.8-5.8-1.5c-0.3-0.5-0.9-0.5-1.5-0.6c-2.4,0-4.4-1-5.6-3.4
		c-17.4,0.5-34.7,0.9-52.6,1.4c0.4,4.7-0.3,9.2-0.8,13.6c-1.2,11.5-6.1,21.4-13.8,29.9c-3.3,3.7-8.2,5-12.7,4.3
		c-3.3-0.5-7-2.2-9.6-4.9c-1.3-1.3-2.6-2.6-3.6-4c-2.1-2.8-4.1-5.4-7.7-6.7c-3.1-1.2-3.4-2.7-2.1-5.9c0.9-2.2,0.9-4.1,0.1-6.4
		c-2-5.9-2.9-12-3.8-18.4c-2.3,0-4.6,0-6.8,0c-16,0.4-32.1,0.9-48.1,1.3c-1.1,0-2.3,0.1-3.4-0.1c-3.3-0.4-5.4-2.7-5.1-5.6
		c0.2-2.6,2.8-4.6,5.8-4.6c9.5-0.1,19-0.2,28.5-0.3c8.9-0.1,17.8-0.4,26.8-0.5c0.6,0,1.1,0.1,1.8-0.5c0.4-4,1.2-8,2-12.1
		c1.6-8.6,5.5-16.2,11-23c1.5-1.8,3-3.6,5.6-4.1c1.2-0.2,2-1.3,2.4-2.4c6.2-0.2,11.9,0.6,17.2,3.7c0.8,0.5,1.4,1.1,2,1.8
		c7.2,8.4,12.1,17.9,13.6,29c0.3,2,0.5,4,0.8,6.4c17.9,0.4,35.7-1.6,53.9-0.7c-1.3-2.7-2.6-5-0.1-7.1c-0.7-3-2.1-5.8,0-8.8
		c0.3-0.4,0.1-1.3,0-2c-1.5-8-2.4-16-4.3-23.9c-1.6-6.7-2.4-13.5-2.8-20.4c-0.1-1.1,0-2.3,0.2-3.4c0.6-3.7,1.5-7.3,0.6-11
		c-0.7-3,1.7-5.1,2.3-7.8c1.5-6.5,1.4-12.7,0.7-19.3c-0.6-5.2-1.2-10.5,0.4-15.8c0.6-1.9-0.8-4.1,0.2-6.2c0,2.9,2.3,5.5,0.5,8.6
		c-0.8,1.4,0.7,2.8,0.5,4.2c-0.5,5,0,9.9,1,14.8c0,0.2,0.1,0.5,0.1,0.7c-2.1,4.4,1.3,7.8,2.4,11.5c0.8,2.6,3.3,3.9,4.6,6.2
		c0.8,1.4,1.9,2.7,1.2,4.7c-3.3-4.1-7.2-7.8-8.7-13.8c-1.8,6-4,11.1-3.2,16.9c0.5,3.7-1.2,7.3-0.8,11.1c0.8,7.5,2.4,14.9,3.8,22.3
		c0.6,3.2,1.7,6.3,1.6,9.6c0,1.8,2.1,2.5,2,4.4c-0.2,3.5,0.2,7.1-0.4,10.6c-0.5,2.7,0.4,5.7-1.1,7.9c2,4.7,0.1,9.8,2.5,13.8
		c-0.6,1.2-1.8,0.5-2.2,1.3c0.4,1.6,2.1,1.8,5,0.7C747.3,420.2,746.1,416.8,749.2,415.1L749.2,415.1z"/>
	<path d="M838.1,239.8c0.5-0.2,1.1-0.3,1.6,0c3.5,2.2,7.2,3.5,11.2,4.6c3.2,0.9,4.5,4.1,5.3,7c1.7,5.8,3.4,11.7,3.7,17.9
		c0,0.8,0.3,1.7,0.1,2.4c-1.5,4.3,0,7.8,2.6,11.2c1.5,2,2.1,4.4,2.7,6.9c1.9,7.9,4.1,15.7,3.4,24c-0.1,1.2,0.4,2.2,0.9,3.2
		c2.8,5.1,4.5,10.5,5.2,16.3c0.5,4,2,7.8,3.1,11.7c0.6,2.1,1,4.2,0.9,6.3c0,12.4,1.5,24.7,2.9,37c0.7,6.2,2.9,12.3,5.3,18.1
		c0.5,1.2,1.6,2.1,2.4,3.2c15.3-0.5,30.5-1.2,45.9-0.9c0.7-4.3,0.9-8.4,1.7-12.3c0.8-4.3,2.4-8.2,5-11.7c2.2-2.9,4.3-5.8,6.9-8.3
		c3.6-3.5,8-5.4,13.3-5.4c19.5,0,28,15.7,30.3,29c0.4,2.4,0.8,4.9,1.2,7.2c1.6,0.8,3.1,0.5,4.5,0.5c10.6-0.2,21.2-0.5,31.8-0.9
		c1.9-0.1,3.1,0.9,3.4,2.6c0.3,1.9-0.3,3.7-2.4,4.3c-0.9,0.3-2,0.2-3,0.2c-10.4,0.3-20.8,0.5-31.2,0.8c-1,0-2,0.1-3.2,0.2
		c-0.6,3.4-1,6.7-1.7,10c-1.7,8.2-4.8,15.7-10.3,22.1c-3.6,4.3-8.5,5.8-13.6,6.9c-1.5,0.3-3.1,0.4-4.7,0.7c-4.4,1-8.5-0.1-12.3-2.4
		c-6.2-3.7-10-9.2-12.2-16.1c-2-6.4-3.3-12.9-3.8-19.8c-15.8,0.3-31.3,1.2-46.9,1c-1.8,1.6-2.8,3.9-5.2,4.9c-1.1-0.2-2-1.5-4-0.7
		c2.6-2.5,2-6.4,5.9-7.9c-0.6,2.7-2.7,4.4-2.6,6.8c1.1,0.6,1.5-0.3,2-0.8c1.6-1.6,2.8-9.7,1.8-11.7c-3-6.3-4.6-13.1-6.3-19.9
		c-2-8-1.9-16.1-2.8-24.1c-0.4-3.3-1.5-6.5-1.7-9.9c0.8-0.1,0.6,0.7,1.4,0.7c0.1-2.8,0.2-5.6-0.4-8.3c-1.5-6.4-3.2-12.7-4.3-19.1
		c-0.3-1.8-0.8-3.6-1.7-5.1c-3.4-5.8-4.2-12.1-4-18.6c0.1-2.5-0.6-4.7-1.2-6.9c-1.5-5.4-2.3-11-5.7-15.8c-1.2-1.7-1.7-3.9-1.6-6.1
		c0.3-6.7-1.1-13.2-2.5-19.7c-1.4-6.4-5.6-9.4-11.2-11.3C841.7,243.1,839.4,242.2,838.1,239.8L838.1,239.8z"/>
	<path d="M796.8,473.7c1.6,1.2,0.1,2.5,0.1,3.7c0.2,5.8-0.3,11.4-3.1,16.8c-1,2-1.1,4.7-0.9,7c0.5,4.9-1.3,9-4,12.6
		c-4.1,5.3-5.9,10.8-5.6,17.5c0.4,7.5-1.1,15-3.2,22.3c-0.3,1.1-0.7,2.1-1.3,3.1c-3.8,6.9-6,14.3-7,22.1c-1.1,8.3,0.1,16.4,0.8,24.6
		c0.2,2.3,2.2,2.4,3.6,3.3c-0.4,3.5-1.2,6.9-0.7,10.5c0.3,2.4,1.1,4.3,3,5.9c4.5,3.7,6.8,8.8,8.5,14.2c0.4,1.3,1,2.5,1.4,3.8
		c0.9,2.3,0.2,4.3-2.1,4.8c-5.1,1.2-10.2,2.7-15.7,1.8c-5.1-0.9-10.2-1.9-15.2-3.3c-3.4-0.9-5.2-3.7-7.4-6.4c-2.8,0-5.4-0.7-6.7-3.8
		c0.2-1.2,0.8-2.2,1.4-3.3c0.5-0.9,1.1-1.9,0.9-2.8c-1.1-6,2.2-11.4,2-17.3c-0.1-2.4,1.3-4.2,3.5-5.3c1.5-0.7,2.5-2.2,4.4-2.8
		c5.3,2.9,11.3,0.4,17,2.6c0.8-3.7-0.3-6.8-0.5-9.9c-0.6-6.4-1.3-13-0.1-19.2c1.3-7.1,3.1-14.3,6.6-20.8c2.6-4.8,3.1-10.4,3.7-15.7
		c0.4-3.7,0.9-7.4,0.5-11.1c-0.3-2.6,0.8-5.2,2-7.4c1.9-3.5,3-7.3,5.2-10.6c2.9-4.1,2.8-8.9,3.2-13.6c0.1-0.9,0.1-1.8,0.2-2.7
		c0.5-4.3,1.6-8.5,1.7-12.8c0-3.4-1.5-4.3-5.3-3.1c-0.6,2.5,0.2,4.7,1.8,6.8c2.1,2.7,3,5.8,1.9,9.2c-1.6-1-1.5-2.9-2.3-4.4
		c-1.9-3.6-4.8-6.5-6.2-10.4c-0.5-1.5-1.6-2.8-0.4-4.8c-6.2,0.1-12-0.8-18.2-1.3c0,5.2,1.5,10.3,0.6,15.4c-0.8,4.9-2.5,9.8-1.1,15.6
		c-4.7,8.4-11.7,16.6-12.4,27.7c-0.4,6.9-0.4,13.7,0.9,20.5c0.4-1.9,0.9-3.7,1.3-5.6c-2,18.3-0.2,36.6-0.1,54.9
		c-1.7-2.1-1.4-4.4-1.4-6.6c0.1-7.3-1.4-14.6-1.5-21.9c0-3.4-0.3-6.8,0.3-10.1c0.2-0.8,0.1-1.6,0-2.3c-0.7-6-1.6-12.1-2-18.1
		c-0.8-11.6,1.6-22.6,8.2-32.5c1.6-2.3,3.5-4.4,4-7.3c0.1-0.8,0.5-1.5,0.2-2.3c-0.9-3.2-0.5-6.3,0.2-9.4c1.3-6,0.9-11.8-0.3-17.9
		c-3.5-1.1-7.2-0.6-10.5-1.4c0-4.5-0.8-9.1,0.2-13.1c0.8-3.4,1.5-6.7,2-10.1c0.1-0.9,0.3-1.9,0-2.7c-2-4.7-1.1-9.8-1.7-14.7
		c-0.2-1.4,0.6-2.5,1-3.6c1.5-0.5,2.6,0.6,4.3,0.2c2.1-3.2,2.8-7.5,5.4-10.8c0.7,1.8,0.2,3.2-4.5,12l0.1-0.1c-5,4-2.5,9.1-1.5,13.7
		c1,4.9,0.4,9.6-0.8,14.3c-0.7,2.7-0.9,5.3-0.8,8c0.1,2.7,1.4,4.1,4.2,4.3c11.5,0.7,22.9,1.9,34.3,2.8
		C794.5,472.2,795.9,472.4,796.8,473.7L796.8,473.7z"/>
	<path d="M343.2,468.9c-0.8,2.2-1.3,4.5-2.4,6.6c-1.3,2.5-0.7,4.5,0.6,6.7c1.4,2.4,2.7,4.9,4.1,7.3c0.3,0.5,0.5,1-0.1,1.9
		c-2.2-2.5-2.4-6.6-6.2-8c-1.7,6.6,1.7,13.8-2.5,19.9c-0.2,1.4,0.9,2.9-0.7,4.4c-0.3-2.2-0.3-3.9,0.2-6c0.8-3.3,1-6.9,1-10.3
		c0-3.1-0.1-6.2,0.7-9.3c0.6-2.4-0.3-5.2,0.5-7.9c0.5-1.6,0.7-3.3,1.6-4.8C340.7,468.4,341.7,467.6,343.2,468.9z"/>
	<path d="M761.3,544.9c-1-1.3-1.2-2.4-0.9-3.3c2.4-8.3,2.4-16.9,3.2-26c2.1,1.5,1.8,3.1,1.7,4.6
		C765.1,528.5,763.1,536.5,761.3,544.9z"/>
	<path d="M344.8,450.6c-0.8-2.5-1.6-4.9-3.7-6.5c-1.1-0.9-1.4-2.3-2-3.5c-1.4-3-1.2-6.3-1.3-9.4c0-1.1,0.2-2.3,1.6-2.5
		c0.8,0.3,1,0.9,0.9,1.6c-0.5,4.4,0.6,8.4,3,12.1c1.2,1.9,0.8,4.5,2.6,6.3C346.2,449.1,345.6,450.2,344.8,450.6z"/>
	<path d="M831.2,519c3.3,2.6,4.9,13.9,3.2,21.9c-2.1-3.8-0.6-7.6-1.3-11.1C832.4,526.4,829.3,523.3,831.2,519z"/>
	<path d="M430.2,340.2c-3.6,3.4-7.4,3.3-11.3,2.4c1.1-1.2,2.5-1.7,7.1-2.3c-1.6-1.3-3.7-0.3-4.9-1.5c-1.5,0.1-2.3,1.6-3.9,1
		c2.5-3.4,6.1-2.5,9.3-2.4C428.2,337.7,430.2,338.1,430.2,340.2z"/>
	<path d="M807.6,177.5c-1.7,0.3-2.5,1.6-4,1.2c4.1-4.1,11.7-3.6,12.9,0.5c-3.4,3-7.3,3-12.1,1.9c2.8-1.5,5.3-1.5,7.9-2
		C811,177.6,808.7,178.9,807.6,177.5z"/>
	<path d="M848,485.6c1.5,0.4,1.7,1.1,1.4,2.2c-0.3,1-0.8,1.9-1.4,2.7c-2.2,2.6-4.8,4.9-4.1,8.9c0.1,0.7,0,1.6-0.6,2.2
		c-2.7-2.7-2.7-5.8,0.1-7.9c1.4-1,1.1-2.6,2-3.7C846.4,488.6,846.6,486.8,848,485.6z"/>
	<path d="M405.6,354.1c0,3.4,1.3,6.3,2.4,9.6c2.9,2.1,6.5,3.7,8.9,6.8c-0.2,0.3-0.4,0.6-0.6,0.8c-3.7-2.6-7.3-5.2-11.1-7.9
		C405.9,360.3,402.6,357.2,405.6,354.1z"/>
	<path d="M376.6,375.9c1.2,1.5,1.2,1.5-2.8,5.3c1.2,1.8,2.5,3.5,3.7,5.3c-0.1,0.2-0.2,0.4-0.4,0.6c-4-1.9-7-6.8-12.6-4
		c2.4-1.9,4.9-1.6,7.2-1.6C374.2,380.2,374.3,377.1,376.6,375.9z"/>
	<path d="M335.5,529.7c-0.9-3.8-0.1-7.8-1.4-11.6c-1.8,1.9-1,4.8-2.5,6.8c-0.7-3.9,0.3-6.6,3.8-11.2
		C335.2,519.1,337.3,524.3,335.5,529.7z"/>
	<path d="M333.2,475.1c-1.7,9.3-2.8,18.3-2.5,27.5C329.4,491.4,330.7,477.3,333.2,475.1z"/>
	<path d="M356.2,432.2c-4.2-2.7-8.5-10.2-8.5-14.8c0-0.7-0.1-1.3,1-2.4C350.3,421.4,352.7,427.1,356.2,432.2L356.2,432.2z"/>
	<path d="M742.2,310.8c-1.7,0.6-2.1-0.6-2.1-1.7c0.1-4.5,0.1-8.9-1.2-13.3c1.7,2.2,2.6,4.6,2.9,7.3C742,305.7,742,308.3,742.2,310.8
		L742.2,310.8z"/>
	<path d="M843.9,624.3c-1.8,0.4-3.4,0.8-4.5-0.9c-0.9-1.4-1-2.9-0.4-4.5c0.4-1.1,1.2-1.9,2.5-1.9c1.3,0,2,0.9,2.5,1.9
		C844.8,620.7,843.9,622.4,843.9,624.3z"/>
	<path d="M773.3,494.5c1.6,1.1,2.3,3.1,3.3,4.9c-0.6,1.7-1.2,3.4-1.7,5.2c-0.3,0.1-0.6,0.1-0.9,0.2c1.9-4.5-0.8-7-4.1-9.2
		c1.5-0.7,1.5,0.5,2.2,0.4C772.2,495.4,772.1,494.5,773.3,494.5z"/>
	<path d="M766.2,507c0.3,0.2,0.6,0.4,0.7,0.7c2.2,4.3,3.5,8.9,5.4,13.3C768.6,517.1,766.4,512.4,766.2,507L766.2,507z"/>
	<path d="M838.4,620.3c-0.1,1.9-0.7,3.4-2.7,3.7c-1.6,0.3-3.1-1.9-3-4.2c0.1-1.8,0.9-3.3,2.9-3.5C837.2,616.2,838.4,618,838.4,620.3
		z"/>
	<path d="M799,228.4c2.5,3.6,3.9,6.7,4.4,10.3c0.5,1.2,2.4,0.6,2.8,2.2c-1.8,0.2-3.2-1-4.8-1.1C801.7,235.9,798.8,232.9,799,228.4z"
		/>
	<path d="M832.2,623.1c-1.8-0.1-1.5-1.8-2.6-2c-0.8,0.2-0.4,1.5-1.7,1.5c-0.1-2.3-0.2-4.6,0.3-6.7c1.4-0.7,2.4,0,3.3,0.2
		C833.7,618.6,830.5,620.8,832.2,623.1z"/>
	<path d="M857.2,619.3c1.2,0.8,1.9,1.5,2.1,2.8c-2.7,2.7-5,0.2-7.9-0.3C853.2,619.6,855.4,619.9,857.2,619.3z"/>
	<path d="M782.3,252.4c-3.4,2.2-1.5,6.8-4.5,9.5C776.3,257.5,778.3,253.1,782.3,252.4z"/>
	<path d="M330.7,552.3c0.1-6.7-0.5-13.4,0.5-20.1C330.5,538.9,332.8,545.7,330.7,552.3z"/>
	<path d="M776.8,514.2c-2.2,1.5-0.8,3.7-1.2,5.7c-1.7-2.1-1.7-2.6-0.8-6c-2.3-5.4-2.3-5.8,0.2-7.6
		C774.7,509,775.4,511.4,776.8,514.2z"/>
	<path d="M425.5,362c3.7-0.5,7.4-1.4,11.9-0.9C434.8,362.8,428,363.4,425.5,362z"/>
	<path d="M435.3,366.2c-2.5,1.4-3.8,1.5-6.6,0.4c0.1-1.6,1-2.5,2.5-2.5C432.8,364.2,434.6,364.1,435.3,366.2z"/>
	<path d="M874.1,423.6c3.8-2.3,3.9-7.1,7.1-10.2C881.6,417.3,877.9,422.6,874.1,423.6z"/>
	<path d="M811.9,200.6c3.7-0.5,7.5-1.1,11.9-0.9C821.3,201.6,814,202.1,811.9,200.6z"/>
	<path d="M821.9,204.9c-2.2,1.5-4.3,1.4-6.7,0.7c0.1-1.5,0.7-2.5,2.1-2.7C818.9,202.8,820.8,202.7,821.9,204.9z"/>
	<path d="M741.1,362.5c-0.6-3.8-1.2-7.5-1.9-11.8C741.3,352.3,742.1,356.7,741.1,362.5z"/>
	<path d="M741,330.5c1.2,3-0.6,5.7-1.4,8.4c-0.3,0-0.6,0-0.9-0.1c0.2-2.8,0.5-5.6,0.7-8.4C740,330.4,740.5,330.4,741,330.5z"/>
	<path d="M860.6,324.5c0.1-3,2.8-6.8,5.4-7.7C864.9,319.9,863.9,322.6,860.6,324.5z"/>
	<path d="M336,465.9c-1.2,2.3-0.2,5.4-2,7.9C332.2,470.2,332.7,468.3,336,465.9z"/>
	<path d="M740.5,340.8c0.9,2.7-0.3,5.3,0.3,8.2C737.8,346,737.8,342.6,740.5,340.8z"/>
	<path d="M837.9,493.7c-3.3-0.9-5.8-2.6-6.4-6.2C834.5,488.7,835.6,491.8,837.9,493.7z"/>
	<path d="M780.9,476.2c0,3.5-2.4,5.5-4.7,7.6C777.1,480.9,778.4,478.2,780.9,476.2z"/>
	<path d="M859.3,329.4c-2.5,2.3-2.6,5.7-4,8.8c-1.6-3.6,0-7.2,3.8-9L859.3,329.4z"/>
	<path d="M763.4,264.4c0.4,3,0.8,5.8,1.3,8.9C762,271.6,761.5,267.3,763.4,264.4z"/>
	<path d="M814.6,241.5c-0.1-2.2,1.6-2.1,3-2.3c1.9-0.2,3.7,0.4,5.5,1C820.3,240.6,817.4,241,814.6,241.5L814.6,241.5z"/>
	<path d="M814.6,241.4c-4,2-4.4,2-7.3-0.7c2.1-0.1,4.1,0.6,5.6-1.1C813.6,240.3,814.1,240.9,814.6,241.4L814.6,241.4z"/>
	<path d="M776.8,262.9c-1,4.8-3,6.8-6.1,5.8C773.2,267.3,774.7,265,776.8,262.9z"/>
	<path d="M352.2,399.9c-0.5,3.3-1.9,6.2-3.3,9.1C349.4,405.8,349.5,402.4,352.2,399.9z"/>
	<path d="M794.9,206.7c2.3,2.3,3.5,5.4,5.4,8.2C798.2,214,795.7,210.3,794.9,206.7z"/>
	<path d="M353.2,448.8c0.7,4,0.3,5.5-2.8,8.3C351.4,454,352.2,451.7,353.2,448.8z"/>
	<path d="M744.7,275.9c2.2,1.9,4.4,3.8,7.1,6.2c-3.7-1.5-5.2-2.7-7.5-5.7C744.5,276.2,744.6,276.1,744.7,275.9z"/>
	<path d="M823,194.1c-2.2,0.3-3.8,0.6-5.6,0.8C818.4,192.3,820.7,191.8,823,194.1z"/>
	<path d="M430.9,356.1c1.8-2.5,3.3-2.7,5.3-1.1C434.7,356.7,432.6,355.3,430.9,356.1z"/>
	<path d="M776.8,533.4c-1.7-1.9-1.9-4.3-2.2-6.6C776.7,528.6,776.8,531,776.8,533.4z"/>
	<path d="M424.6,380.2c-0.8,3.2-1.9,3.5-4.9,1.2C421.5,381.1,423.1,381.1,424.6,380.2z"/>
	<path d="M786.6,259.8c-1.9,1.1-3.7,2.5-6.2,2.7C781.8,260.6,783.4,259.9,786.6,259.8z"/>
	<path d="M416.7,392.7c-1.2,1.6-1.7,3.5-4,3.7C413,393.9,413.2,393.7,416.7,392.7z"/>
	<path d="M743.3,315.2c1.2-1.8,2.4-3.5,4-5.9c-0.2,3.3-1.4,5-3.3,6.4C743.8,315.5,743.6,315.4,743.3,315.2z"/>
	<path d="M354.6,446.9c-0.6-3,1.2-4.3,3.5-5.2C357,443.4,355.8,445.2,354.6,446.9z"/>
	<path d="M803.7,243.5c4.1-0.5,4.1-0.5,6.7,1.6C808.1,245,806.2,244.5,803.7,243.5z"/>
	<path d="M408.2,372.1c2.5,2,1,4.2,1.5,6C408.1,376.5,408.4,374.5,408.2,372.1z"/>
	<path d="M815.1,251.8c-1.9-1.5-1.3-3.4-2.7-5.2C815.2,248,815.2,248,815.1,251.8z"/>
	<path d="M765.9,255.2c-0.1,1.9-0.5,3.8-1.8,6.2C763.8,258.5,764.5,256.7,765.9,255.2z"/>
	<path d="M851,323.9c-2-0.8-2-2.6-2.1-4.4C850.9,320.3,850.8,322.2,851,323.9L851,323.9z"/>
	<path d="M773.8,485.2c-0.3,2.1-2.2,3.1-0.9,5.5C770.4,488.2,770.4,488,773.8,485.2z"/>
	<path d="M741.1,379.2c-0.5-1.9-1.2-3.7-1-5.7C740.6,375.4,741.4,377.2,741.1,379.2z"/>
	<path d="M767.4,247.9c0.8,1.8-0.6,3.1-0.5,5.3C765.8,250.4,765.9,250,767.4,247.9z"/>
	<path d="M817.8,258.5c-2.5-1.2-2.3-2.6-2.1-4.4C817.5,255.1,817.7,256.4,817.8,258.5z"/>
	<path d="M763.7,277.9c-0.6,2-2,3.1-4,3.6C760.6,279.8,761.9,278.5,763.7,277.9L763.7,277.9z"/>
	<path d="M859.1,329.2c0-1.4-0.3-2.9,1.7-4c-0.3,1.8,0.3,3.4-1.5,4.2L859.1,329.2z"/>
	<path d="M755.6,330.7c-2-1.1-1.4-2.6-1.6-3.9C755,327.8,755.8,328.8,755.6,330.7z"/>
	<path d="M357.1,405.8c0.6,2.2,0.6,4.3,0.2,7.1C356.3,410.2,356.5,408,357.1,405.8z"/>
	<path d="M406.4,390.8c1.6,0.4,3.3,0.8,4.9,1.2c-0.1,0.3-0.2,0.5-0.3,0.8C409.2,393.1,407.5,392.8,406.4,390.8L406.4,390.8z"/>
	<path d="M330,513.1c-1.5-2,0.1-3.4,0-4.9C330,509.7,330,511.2,330,513.1z"/>
	<path d="M820.2,243.4c-1.5,0.4-2.9,1.6-4.5,0.5C817.1,242.9,818.7,243,820.2,243.4z"/>
	<path d="M802.9,221.3c1.1,1.2,1.4,2.6,1.7,4.6C802.4,224.5,803.2,222.7,802.9,221.3z"/>
	<path d="M815.5,216.9c-0.4,1.7-1.4,2.7-3.2,3.9C813,218.5,814,217.5,815.5,216.9z"/>
	<path d="M356.1,432.3c2,0.5,1.6,3,3.2,3.9C357.7,435.3,356,434.5,356.1,432.3L356.1,432.3z"/>
	<path d="M339.7,568.4c-1.2-1.4-0.2-2.2,0.5-3.2C341.4,566.5,341.1,567.4,339.7,568.4z"/>
	<path d="M760.8,259.6c-1.4-0.9-2.1-2.1-2.6-4.1C759.9,256.7,760.3,258.2,760.8,259.6z"/>
	<path d="M401.5,364.5c1.9,1.4,1.9,1.4,0.1,3.5C400.9,366.8,401.7,365.6,401.5,364.5L401.5,364.5z"/>
	<path d="M380.1,385c1-1.3,2.2-1.1,4.1-1C382.6,385.2,381.5,385.6,380.1,385z"/>
	<path d="M833.9,543.9c0.7,1.1,0.8,2.2-0.2,3.4C832.9,545.9,833.1,544.9,833.9,543.9z"/>
	<path d="M851.1,323.8c1.5,0,1.9,0.9,1.9,2.5C851.2,326.1,850.8,325.3,851.1,323.8L851.1,323.8z"/>
	<path d="M411.2,385.2c1.4,1.2,1.2,2.3,1,3.7C410.6,387.9,411,386.7,411.2,385.2z"/>
	<path d="M760,548.6c0.4,1.1,0.2,2,0,2.9c-1.2,0-0.9-0.9-0.9-1.4C759,549.5,759.2,549,760,548.6z"/>
	<path d="M884.4,410.8c-0.3,1-0.8,1.8-2,1.7C882.2,410.7,882.2,410.7,884.4,410.8z"/>
	<path d="M756.5,524.4c0,1.5-0.4,2.8-1.7,4.5C755.2,526.8,755.4,525.4,756.5,524.4z"/>
	<path d="M763.8,277.9c-1-1.3-0.7-2.3,0.7-3.3C765.1,276.1,764.2,276.9,763.8,277.9L763.8,277.9z"/>
	<path d="M861.9,350.2c1.1,1.3,0.7,2.4,0.5,3.5C861.8,352.7,860.9,351.8,861.9,350.2z"/>
	<path d="M346.5,495.1c-1.2-0.7-1.5-1.6-0.9-2.9C347,492.8,346.8,493.8,346.5,495.1z"/>
	<path d="M798.4,242.7c1.4-0.2,2.4-0.4,3.3,0.7C800.5,243.8,799.7,243.7,798.4,242.7z"/>
	<path d="M833.8,551.4c0.9,0.8,0.9,1.7,0.2,2.6C833.4,552.8,833.4,552.8,833.8,551.4z"/>
	<path d="M833.8,558.9c0.5,1.5,0.1,2.2-0.8,2.9C832.5,560.7,832.6,559.9,833.8,558.9z"/>
	<path d="M758.5,286.5c0.6,1.4,0.7,2.4,0.1,3.5C757.9,288.8,758.1,287.9,758.5,286.5z"/>
	<path d="M749,265.8c-1-0.9-1.2-1.6-0.1-2.4C749.6,264.2,749.5,264.9,749,265.8z"/>
	<path d="M757.6,248.3c0.9,1.1,1.3,2,1.1,3.4C757.5,250.7,757.3,249.8,757.6,248.3z"/>
	<path d="M345.6,568.8c-0.1-1.2,0.1-1.9,1-2.6C347.5,567.6,347.1,568.2,345.6,568.8z"/>
	<path d="M343.6,456.3c0.6,1.4,0.1,2-0.8,2.6C342.1,457.8,342.5,457.1,343.6,456.3z"/>
	<path d="M358.7,396.2c0.1,1.4,0.1,2.3-1,2.7C356.9,397.7,357.6,397.1,358.7,396.2z"/>
	<path d="M746.2,394.6c1.3,0.6,1.6,1.4,1.1,2.5C746.2,396.6,745.7,395.9,746.2,394.6z"/>
	<path d="M344.1,562.8c1.3,0.2,1.4,0.9,1.6,1.9C344.3,564.6,344.1,563.9,344.1,562.8z"/>
	<path d="M832.3,578.8c0.6,1.2,0.5,2.1,0.2,3.2C831.6,580.9,831.9,580,832.3,578.8z"/>
	<path d="M755.6,577.1c0.9,1.1,0.6,1.8,0.4,2.9C755.2,579,755.5,578.2,755.6,577.1z"/>
	<path d="M821.1,250.4c-0.2,0.7-0.7,0.9-1.3,0.7C819.7,249.9,820.3,249.9,821.1,250.4z"/>
	<path d="M863,330.6c-0.8-0.6-1.5-1-0.9-2.2C863.1,328.8,863.4,329.3,863,330.6z"/>
	<path d="M863.4,359.3c1.2,0.7,1.4,1.3,1,2.2C863.3,361.2,863.4,360.5,863.4,359.3z"/>
	<path d="M865.6,367.3c1.2,1.2,1.5,1.7,1.1,2.7C865.5,369.6,865.7,368.7,865.6,367.3z"/>
	<path d="M872.4,396.8c-1.2-0.2-0.9-0.9-0.8-1.8C872.5,395.5,872.7,396,872.4,396.8z"/>
	<path d="M413.3,401c-1-0.5-0.8-1-0.3-1.6C413.9,399.9,413.8,400.4,413.3,401z"/>
	<path d="M749.2,415.2c0.7-0.3,1.1-1.2,2.1-0.8C750.6,415.7,750.6,415.7,749.2,415.2L749.2,415.2z"/>
	<path d="M363.3,433.1c-0.1,1-0.7,1.5-1.5,1.6c-0.7-0.4-0.5-0.9,0-1.3C362.2,433.2,362.5,432.9,363.3,433.1z"/>
	<path d="M344.9,454.5c-1.5-0.8-0.8-1.3-0.5-2.1C345.6,453,345.2,453.7,344.9,454.5z"/>
	<path d="M766.3,507c-1.3-1.1-0.2-1.8,0.3-3C767.8,505.5,766.8,506.2,766.3,507L766.3,507z"/>
	<path d="M795.5,220.5c-0.9-0.4-1.3-0.7-1.3-1.3C795.1,218.9,795.1,219.7,795.5,220.5z"/>
	<path d="M798.5,225.5c0.4,0.3,0.5,0.7,0.4,1.2C798.2,226.4,798.1,226.1,798.5,225.5z"/>
	<path d="M845.1,255.6c1.2-0.1,1.7,0.3,2.1,0.8C846.2,257,845.8,256.2,845.1,255.6z"/>
	<path d="M856,275.5c0.7,0.4,1.2,0.7,0.8,1.7C855.8,277.1,855.6,276.6,856,275.5z"/>
	<path d="M748.8,306.8c-0.1-1.2,0.3-1.6,1-1.9C749.8,306,749.8,306,748.8,306.8z"/>
	<path d="M742.1,310.8c0.4,0.8,0.3,1.5-0.4,2.1C740.9,312,741.8,311.4,742.1,310.8L742.1,310.8z"/>
	<path d="M401.6,388.7c-1.1,0.4-1.5,0-1.8-0.8C400.5,387.7,401,387.9,401.6,388.7z"/>
	<path d="M358.5,389.9c-0.2,0.7-0.6,1.1-1.4,1c-0.5-0.5-0.1-0.8,0.2-1C357.7,389.6,358.2,389.6,358.5,389.9z"/>
	<path d="M832.4,568.7c-0.4-0.6-0.2-1,0.4-1.4C833.5,568,832.8,568.3,832.4,568.7z"/>
	<path d="M770,491.7c1.4,0.3,1.5,0.7,1.5,1.2C770.7,493.2,770.8,492.4,770,491.7z"/>
	<path d="M330.7,516.5c0.4,0.6,0.6,1.1,0,1.7C330.3,517.6,330.1,517.1,330.7,516.5z"/>
	<path d="M783.5,513.4c0-0.9,0.3-1.2,0.7-1.4C784.8,512.7,784.2,513,783.5,513.4z"/>
	<path d="M845.4,511.8c-1,0-1.1-0.4-0.9-1.1C845.2,510.6,845.3,511,845.4,511.8z"/>
	<path d="M825.6,496.3c0.5,0.6,0.8,1,0.2,1.5C825.1,497.5,825.3,497,825.6,496.3z"/>
	<path d="M737.5,349.9C737.5,349.6,737.5,349.7,737.5,349.9C737.5,349.7,737.5,349.6,737.5,349.9z"/>
	<path d="M843.4,504.3c-0.5-0.2-0.9-0.5-0.7-1.2C843.7,503,843.7,503.5,843.4,504.3z"/>
	<path d="M406.5,390.8c-0.5,0-1,0-1.7,0C405.5,390.1,405.9,390.9,406.5,390.8L406.5,390.8z"/>
	<path d="M828.4,503.2c0.8,0.1,1,0.4,0.8,1.1C828.6,504.3,828.3,504.1,828.4,503.2z"/>
	<path fill="#FFFFFF" d="M425.4,535.7c0-2.8,0-5.6-0.6-8.4c-0.5-2.4,0.1-4.7,1-6.9c3.1-7.6,6.2-15.2,11.3-21.8
		c0.7-1,1.2-2.2,1.7-3.3c0.1-0.3,0-0.6,0-0.9c-0.8-0.7-1.3,0-1.8,0.2c-0.4-0.1-0.7-0.3-1.1,0c0.3,0,0.6,0.1,0.8,0.4
		c-0.3,1.4-1,2-2.4,2.7c-6.6,2.8-13.5,4.4-20.1,7c-2.9,1.2-6,0.2-9.1,0.2c-1.7-2-2.3-4.4-2.8-6.9c1.5-0.7,3-0.1,4.6-0.6
		c-1.7-0.8-3.4-0.9-4.9-2.1c-0.3-2.9,0.1-5.5,2.4-7.9c4.1-4.3,8.3-8.6,12-13.3c2.3-2.9,3.5-6.6,6.7-8.8c1.9-1.3,3.6-2.7,5.3-4.2
		c3.9-3.6,8-3.3,12.4-1.2c1.2,0.6,2.5,1.1,3.8,1.4c5.6,1.2,10.4,4.3,15.1,7.3c4.6,2.9,7.4,6.6,6.5,12.9c-1.3,8.9-1.6,18-3.6,26.8
		c-1.6,7.1-4.5,13.5-8.6,19.6c-4.1,6-7.3,12.7-10.1,19.5c-2,4.8-4,9.5-6.1,14.3c-5.7,0.5-11.3,1-17.1,0.9c1.2-4.5,2.3-8.9,3.6-13.2
		c1.2-3.8,0.6-7.8,2-11.6C426.8,536.8,426.4,536,425.4,535.7L425.4,535.7z"/>
	<path fill="#FFFFFF" d="M447.7,426.7c-2.1-6.3-2.3-6.6-5.1-6.4c-0.4,1.1,0.9,1.4,1.2,2.3c-1.3,2.2-3.1,3.9-5.7,4.7
		c-4.4-7.6-3.3-15.2-0.5-23c1.5-4.1,3-8.3,3.3-12.6c1.6-1.1,3.2,0,5-0.3c-1.1-2.1-3.1-2-4.8-3c0-3.4,0-7,0-10.9c2.7,1.1,5,3,6.9,5
		c3.5,3.6,8,5.4,12.2,7.8c1.4,0.8,2.5,1.8,2.9,3.1c1.9,6.1,3.4,12.3,3.5,18.8c0.1,4,0.3,8-1.4,12.5c2.5-1.5,1.8-3.6,2.9-5.1
		c1.6,1.3,1.3,3.4,2.1,4.8c3,5.9,4,12.2,3,18.7c-0.4,2.6-0.5,5.2,0,7.8c0.4,2.3-1,4.4-0.8,6.7c0.6,5.6,0.9,11.2,2.8,16.6
		c0.2,0.7,0.3,1.6,0.1,2.3c-0.6,2.8-0.1,5.5,0.8,8c2,5.9,1.5,11.8,0.4,17.7c-0.7,3.9-1,7.7-0.7,11.8c0.2,3,0.1,6.2-1.1,9.2
		c-0.8,1.9-0.5,4-0.7,6c-0.1,1.8,0.4,4-0.5,5.3c-2.5,4-0.8,8.3-1.9,12.4c1.7,0,1.4-1.5,2.2-2.1c0.1,0.1,0.3,0.3,0.3,0.4
		c-0.7,3.4,2.2,5.5,3.3,8.3c0.7,1.8,1.3,3.6,0.9,5.5c-0.8,3.3,0,7.1-3,9.7c-0.2,0.2-0.5,0.3-0.8,0.5c-0.5-1.3,1.2-2,0.5-3.5
		c-3.6,0.5-2.5,5.7-6.1,6.2c-0.3-1.8,1.4-3.2,0.9-5.2c-3.1,1-1.9,5-4.5,6c-0.5-2.5,2.4-4.2,1.2-6.9c-3,1.8-2.6,5.6-5,7.6
		c-1.1,0.3-2-0.6-3.1-1.2c-0.7-4.1,4.3-8.7-0.6-12.8c-1.2,0.6-1.9,2.8-4.2,1.1c2.3-5.5,7.3-9.8,7.8-16.8c1.2,1.7,0.7,3.4,2.5,4.2
		c1.2-2.3-0.1-4.5-0.9-6.2c-0.4-1-0.8-1.9-0.8-2.9c0.2-5.2,0.3-10.4-0.7-15.5c-0.3-1.3,0.2-2.4,0.7-3.6c1.5-3.8,2-7.8,3-11.6
		c2.3-8.7,1.4-17.8,3.3-26.5c1-4.8-0.6-8.8-4.2-12.1c-2.4-2.3-5.1-4.2-8.3-5.2c-6.8-2.1-8.7-7.4-9.2-13.5c-0.6-7.3-0.8-14.6-0.5-22
		C446.2,427.5,446.7,427,447.7,426.7z"/>
	<path fill="#FFFFFF" d="M437,429c-6,4-12.5,6.4-18.8,9.1c-2.4,1-5.1-0.4-7.6-0.8c-1.1-0.2-2.1-0.7-3.3,0c0.8,1.6,2.1,1.6,3.2,1.8
		c4.5,0.5,8.8,0.3,13.2-1c8.1-2.4,15.2-6.3,20.9-12.8c-1.9,11.4-0.6,22.4,2,33.7c-1.7-0.6-3.6-0.2-4.5-2.3c-0.2-0.6-0.9-0.7-1.4-0.7
		c-3.7-0.3-7.3-1.5-11-0.7c-0.8,0.2-1.7,0.2-2.3-0.2c-2.2-1.7-4.4-1.2-6.9-0.3c-2.4-3.5-5-1.3-7.6-0.3c-2-1.2-2.1-4.4-5.3-4.2
		c4.2-2.4,5.7-6.2,7.6-10.5c-1.8,0.6-9.4,9.1-10.1,11c-4.4-1.3-9-0.6-14.1-1c4.7-0.9,9-1.3,13-2.8c-7.5,0.1-14.7,2.7-22.1,0.9
		c-0.3,1.5,1,1.1,1.2,2c-5.2-0.3-9.7-3.2-14.9-3c3.2,1.6,6.7,2,10.1,3.7c-4.2,1.2-8,0.9-12.1-0.7c1.1-4,1.6-7.9,1.4-11.8
		c-0.1-1.3,0.5-2.4,1.7-3.3c2.6,1.2,5.5,1.6,9.1,2.5c-2.9-2.2-5.8-3.3-6.7-6.7c5.7-2.2,9.5-6.7,13.3-11.1c2.6-2.9,4.4-6.3,3.9-10.4
		c0-0.2-0.1-0.5,0-0.7c3-8.1,0.8-16.3,0.9-24.5c0-4.5-0.8-9-3.5-12.8c-0.2-0.3-0.2-0.8-0.3-1.2c0.9-0.6,1.8-0.5,2.7-0.4
		c1,0.8,1.5,2,1.7,3.2c0.9,5.3,2.3,10.6,2.4,16c0.1,6.2,2.5,11.6,6.2,16.5c1.6,2.1,4.1,2.8,6.3,3.9c6.3,3.1,12.9,2.8,19.5,0.9
		c3.7-1,5.9-4.2,7.1-7.3c1.1-2.8,2.6-5.5,3.7-8.3c1.4-3.5,2.7-7.2,2-10.8c-0.5-2.8-0.5-5.5-0.7-8.5c2,0.1,2.3,1.2,2.4,2.8
		c0.6,8.1-0.3,15.8-3.3,23.5c-3,7.5-3.7,15.5-1.3,23.5C435.2,426.3,435.9,427.5,437,429z"/>
	<path fill="#FFFFFF" d="M425.4,535.6c-1.5,2.3-1.8,5.1-2.2,7.7c-0.9,6.6-2.7,13-5,19.6c-18.6,1-37.2,2.1-56,3.1
		c0.4-5,2.2-9.4,3.7-13.8c2-5.8,5.4-10.9,8.4-16.1c2.9-5,4.9-10.4,6-16.1c0.3-1.6,0.6-3.3-0.2-4.7c-1.8-3.3-0.3-5.6,1.9-8
		c4.8,0.4,9.7,0.7,14.7,1.2c2.1,0.2,4.1,0.8,6.1,1.9c3.2,1.8,7,1.4,10.5,2c0.6,0.1,1.5-0.1,1.9-0.5c4.2-3.8,10-5.3,14-9.4
		c1.2-1.2,2.9-1.5,4.9-2.6c-4.4,6.1-7.1,12.3-9.6,18.7C422.2,524.5,423.6,530.1,425.4,535.6L425.4,535.6z"/>
	<path fill="#FFFFFF" d="M522.4,565.4c2.7-0.6,5.3-0.6,8-0.8c0.2,0.2,0.6,0.4,0.7,0.6c3.1,5.3,7.8,6.6,13.6,6.2
		c4.1-0.3,6.7-2.5,8.5-5.8c3.4-6.2-1.8-14.6-8.9-14.5c-1.2,0-2.5,0.2-3.7,0.2c-4.1-0.1-7.4,1-8.4,5.6c-3.3,0.2-6.5,0.4-10.1,0.6
		c0.1-6.7,0.6-13.2,3.5-19.1c2.6-5.2,6.1-9.8,10.3-13.7c6.1-5.8,16.7-4.9,22.4,1.3c3.9,4.3,6.6,9.4,9.5,14.3
		c1.9,3.4,2.5,7.3,2.6,11.4c0.1,5.9,0.5,11.7-0.1,17.6c-0.9,8.3-2.5,16.2-7.3,23.3c-4.2,6.1-16,10.6-22.6,7.6
		c-5-2.3-9.2-6.2-11.6-11.4C525.4,581.5,523.1,573.9,522.4,565.4z"/>
	<path fill="#FFFFFF" d="M350.2,508.3c0,1.3-0.7,2.4,0.3,4c1.1-7.2,6.7-11.7,8.6-18c-0.8-2.2-2.9-2.7-4.2-4.4
		c1.2-5.1,1.8-10.3,0.9-15.6c-0.3-1.5,0.1-3.2,1-4.5c2.3-3.2,4-6.8,5.6-10.4c3.1-0.5,5.8-0.3,8.8,1.3c4.4,2.4,8.7,4.8,12.4,8.1
		c2.2,2,4.3,4.2,5.9,6.7c1.6,2.5,0.8,5.5-0.5,7.8c-2.1,3.6-2.8,7.6-3.5,11.6c-0.4,2.3-1.1,4.5-2.6,6.1c-2.2,2.4-2.5,5.9-5.3,8
		c-1.1,0.8-1.1,2.9-0.9,4.5c0.2,2.5-0.9,5,0.7,7.4c0.3,0.5-0.3,1.7-0.5,2.6c-1.4,5.9-4.4,11-7.4,16.2c-4.8,8.1-8,16.9-9.4,26.2
		c-2,0.8-4.1,0.7-6.1,0.7c-0.7-0.9-0.8-2-1.6-2.9c-4.5-4.8-5.7-10.9-6.8-17c-0.5-2.5,0.5-4.9,0.5-7.4c0.1-4.4,0.1-8.8,0.1-13.2
		c-0.1-5.5,1.4-10.7,3-15.9C349.1,509.5,349.3,508.7,350.2,508.3z"/>
	<path fill="#FFFFFF" d="M373.7,456.8c4,1.1,8,2.3,11.9,3.4c-0.3,1.5-2.3,1.2-2.4,2.8c2.9,0.8,4.5-3.8,7.4-1.6
		c0.9-0.9-0.3-1.3-0.2-2.1c3.3-0.6,6.7-1.3,10.4-2c-1.4,1.8-3.6,1-5.2,2.6c6.2-0.9,11.9-2.4,17.8-3.4c-2.1,1.9-4.8,2.6-6.6,4.8
		c3.3-1.8,7.4-1.9,9.6-5.6c1.4,0,1,2,3.1,2.2c2.5-1.3,5.9-0.9,9.4,0c0.3,0.9-0.8,1-1.3,1.4c-2.9,2.3-5.9,4.5-8.2,7.5
		c-1.3,1.7-3.1,3.2-5.1,4.4c-5.9,3.6-11.7,7.3-17.4,11.1c-2.9,1.9-5.5,4.1-7.2,7.3c7.1-6.4,15.3-11,23.6-15.8
		c-1.3,1.5-2.6,2.9-3.9,4.4c-2.9,3.2-5.3,6.7-7.5,10.4c-3,5-2.2,10.2-0.2,15.3c0.5,1.3,1.3,2.6,2.1,4.3c-6.8-1.5-13.4-2.4-20.1-3.4
		c1.6-2.5,3.1-5.1,4.4-7.8c2.1,1.3,4.4,0.3,5.8,0.6c-1.4-0.1-3.7,0.6-5.8-0.5c1.4-3.5,0.2-7.4,1.9-10.9c1.1-2.4,2.3-4.6,4.3-6.4
		c6.3-5.8,13.7-10.3,20.8-15c0.9-0.6,2.1-0.8,2.6-2.8c-9,5.2-17.1,10.7-24.7,17.4c-0.3-3.5-1.1-6.3-3.7-8.3c0.4-1.7,2.3-2.2,2.8-4.1
		c-1.9,0.1-2.8,1.8-4.4,2c-2.3-1.6-4.7-3.2-7.3-5c0.5-2.1-0.9-3.3-2.6-4.4C376.3,458.5,374.5,458.3,373.7,456.8L373.7,456.8z"/>
	<path fill="#FFFFFF" d="M437.3,593.8c1.8,3.6,4.8,3.9,9.9,1c4.4,1.8,8,5.1,12.5,6.7c1.1,0.4,1.4,1.3,1.7,2.4
		c0.4,1.7,0.6,3.6,1.6,5.3c-2.7,1.3-5.1,2.5-8.1,2.2c-1.6-0.2-3.2-0.1-4.7,0c-5.9,0.5-11.4-0.8-16.8-3.1c-5-2.2-10.2-3.5-15.8-3.1
		c-3,0.2-6.1,0.1-9.1-2c1.7-7.5,4.8-15,2.3-23.2c1.1,3.2,3.4,3.4,5.6,2.7c3.4-1,6.8-1.5,10.3-1.8c2.6-2.4,2.3-7.8,7.9-7.1
		c1.5,1.6,1.6,4,2.3,6.4c-3.5,1.7-7.6,1.1-10.8,3.8c2.1-0.1,4.1-0.2,6.5-0.3c-2.1,1.7-4.9,0.9-6.8,3c4.7,1.2,8.5-1,12.6-1.6
		c-3,2.1-7,2-10,4.3c2.4,1.7,5.6,1.1,11.4-2.2c-0.8,1.8-2.1,2.3-3.5,2.8c-1.4,0.5-2.9,0.5-4,2c-1.5-0.7-3.1-1.5-4.3,0.3
		c-1.1,1.6-1.2,3.4-0.2,5.1c1,1.9,2.7,1.6,4.5,1.1c0.2-1.5,0.5-3,0.8-4.6C434.5,594.4,435.9,593.8,437.3,593.8z"/>
	<path fill="#FFFFFF" d="M357.5,587.6c-4.4-0.6-8.7-0.5-12.9,0.4c-0.2,1.1,0.7,0.8,1.1,1.3c-0.5,0.6-1.5,0.1-1.9,0.9
		c0.1,1.3,1.4,0.6,2.2,1.3c-0.9,0.8-2.6-0.2-3,1.4c0.7,1.4,2.3,1.2,3.4,1.8c-0.2,0.7-1.4,0.3-1.2,1.5c1.5,1,3.5,0.8,5.4,1.2
		c-0.6,1.2-2.3,0.9-2.5,2.6c0.8,1.2,3.2,1.5,2.7,4.2c4.3-0.9,9.3,2,11.6-3.9c5,4.1,11.1,7.5,9.1,15.4c-4,3.2-8.9,3.6-13.6,3.7
		c-6.6,0-13.3-0.3-18.5-5.6c-1.1-1.1-0.9-2.8-1.9-3.7c-1.6-1.5-3.3-3.1-5.4-3.6c-0.3-3.9,1.6-6.7,3-9.9c1.7-4,2.6-8.3,3.3-12.8
		c2.5-0.1,4.9-0.2,7.2,0.6c0.3-2,1.8-3,3-4.4c2.6,0.7,5.5,0.4,8.1,2C355.9,583.9,355.5,586,357.5,587.6L357.5,587.6z"/>
	<path fill="#FFFFFF" d="M459.1,525.5c-0.8,6.2,1.6,12.4-0.2,18.6c-1.8,6.1-5.6,11.1-8.7,17.1c-3.1,0-6.5,0-10.3,0
		C445.1,548.7,450.8,536.5,459.1,525.5z"/>
	<path fill="#FFFFFF" d="M351.5,572.6c0.2-0.7,0.3-1,0.4-1.3c0.3-0.6,0.6-1.2,1.2-2.1c34.6-1.6,69.4-3.3,104.3-5.4
		c0.3,2.1-0.5,2.6-2.1,2.7c-8.4,0.5-16.9,1-25.3,1.5c-21.5,1.3-43,2.5-64.5,3.8C360.8,572,356.3,572.3,351.5,572.6z"/>
	<path fill="#FFFFFF" d="M560.8,524.8c5.7,3.9,9.5,9.4,12,15.5c4.4,11.2,3.9,22.9,1.8,34.7c-1.4,7.8-5.1,14.2-10.3,20
		c2.7-5.2,5.2-10.4,6.7-16c1.8-6.5,1.5-13.2,2.1-19.8c1-10-2.2-18.9-7.2-27.3C564.3,529.4,562.2,527.3,560.8,524.8z"/>
	<path fill="#FFFFFF" d="M536.7,560c-0.4,2.1-2.1,1.7-3.5,1.8c-9.6,0.5-19.2,0.9-28.7,1.5c-7.5,0.4-15.1,1-22.6,1.5
		c-0.6,0-1.3,0-2,0c-0.4-2.2,1-2.2,2.4-2.3c7-0.4,14-0.8,21-1.1c10-0.5,20.1-1.1,30.1-1.5C534.4,559.7,535.5,559.4,536.7,560z"/>
	<path fill="#FFFFFF" d="M542,569.9c2.9-6,4-11.6-1.6-16.8c3.9-0.5,7.4,0,9.6,3c2.2,3,2,6.6,0.5,9.9
		C548.9,569.6,545.9,570.2,542,569.9z"/>
	<path fill="#FFFFFF" d="M539,569.7c-2.4-0.9-4.4-2.1-5.5-4.7c1.1-0.8,2.4-0.9,3.5-1.6c2.7-1.5,3.5-2.6,2.8-4.9
		c-0.5-1.7-1.3-2-4.4-1.9c0.7-1.7,0.7-1.7,2.2-2.9C543.5,556.7,544.4,565.1,539,569.7z"/>
	<path fill="#FFFFFF" d="M616.1,556.8c-12.4,0.7-24.9,1.5-37.3,2.2c0-0.4-0.1-0.8-0.1-1.3c2.3-1,4.8-0.5,7.2-0.7
		c2.6-0.2,5.2-0.4,7.8-0.5c2.5-0.1,5-0.3,7.4-0.4c2.6-0.1,5.2-0.4,7.8-0.4c2.4,0,4.9-0.5,7.3-0.1C616.1,556,616.1,556.4,616.1,556.8
		z"/>
	<path fill="#FFFFFF" d="M417.4,574.7c0.3-1.2,0.8-2.1,1.7-3c4.7-0.3,9.4-0.6,14.2-0.9C428.7,574.3,423.4,575.3,417.4,574.7z"/>
	<path fill="#FFFFFF" d="M381.3,453.3c5,0.3,9.3,3,14.3,2.4c-2.4,1.3-5.3,1.1-7.4,3.2c-2.5-0.8-4.9-1.6-7.2-2.4
		C380.5,455.3,381.1,454.5,381.3,453.3z"/>
	<path fill="#FFFFFF" d="M405.7,507.8c4.5-0.1,9-0.1,13.4-1.3c-1.5,1.7-4,2.2-4.7,4.6C411,510.7,408.2,509.6,405.7,507.8z"/>
	<path fill="#FFFFFF" d="M416,580.4c-0.4-0.8-0.1-1.7,0.1-2.6c3.2-1.2,6.6-0.7,10.1-1c0,1.8-0.9,2.7-2.3,3.1
		C421.1,577.4,418.8,581.2,416,580.4z"/>
	<path fill="#FFFFFF" d="M358.7,574.7c0.2,1.7,0.2,2.9-0.1,4.3c-2.9-0.1-5.6-1.2-8.9-2.2C352.6,574.4,355.7,575.5,358.7,574.7z"/>
	<path fill="#FFFFFF" d="M373.8,456.7c-3.3-1.3-7.2-3.9-8.2-5.4c6.2,2.5,6.2,2.5,12.7,2.3c0.6,0.5,0.7,1.1,0.5,1.8
		c-0.9,0.7-1.6-0.1-2.5-0.2C375.1,455.2,373.6,454.4,373.8,456.7L373.8,456.7z"/>
	<path fill="#FFFFFF" d="M404.1,456.8c-1.1-1.5-2.6-1.8-4.3-1.5c2.1-3.4,5.4-1.4,8-2.2c0.7-0.2,1.2,0.8,1.2,1.9
		C407.7,456,405.9,455.9,404.1,456.8z"/>
	<path fill="#FFFFFF" d="M357.4,587.7c1-0.4,1.3-1.5,1.9-2.2c2.4,0.1,3.3,0.9,2.1,3.3c-0.5,0.9-0.6,2.1-1.1,3.7
		C359.8,590.1,357.9,589.4,357.4,587.7L357.4,587.7z"/>
	<path fill="#FFFFFF" d="M360.8,599.7c-0.8-1.7-0.8-3.6-2.9-3.4c0.6-1.1,1-2.1,2.4-2.5C360.6,595.6,362.1,597.1,360.8,599.7z"/>
	<path fill="#FFFFFF" d="M429.8,592.7c3.6,2-0.4,2.9-0.1,4.7C428,595.5,427.9,594.1,429.8,592.7z"/>
	<path fill="#FFFFFF" d="M399.2,343.5c1.2-0.2,1.6,0.5,2.2,1.2c-0.5,0.8-0.9,1.5-1.4,2.4C399,346,398.1,345,399.2,343.5z"/>
	<path fill="#FFFFFF" d="M403.5,321.9c-1.2,0.1-2.3,0.6-3.4,1.4c0.3-1.3,1.6-2,1.2-3.5C402.9,320.2,403.5,320.8,403.5,321.9
		L403.5,321.9z"/>
	<path fill="#FFFFFF" d="M356.7,494.1c-0.8,1.3-1.6,1.8-3,1.2c-0.4-0.9,0.1-1.6,0.5-2.4C355.3,492.8,355.9,493.5,356.7,494.1z"/>
	<path fill="#FFFFFF" d="M402.3,340.7c2.3-0.1,1.9,1.6,2.7,2.8C402.9,342.9,402.9,342.9,402.3,340.7z"/>
	<path fill="#FFFFFF" d="M419.2,324.5c-1,0.3-2.1,0.7-3-0.7C417.7,322.8,418.5,323.3,419.2,324.5L419.2,324.5z"/>
	<path fill="#FFFFFF" d="M401.8,335.5c-0.1-1.3-0.7-2.3,0.6-3C403.2,333.7,402.1,334.3,401.8,335.5z"/>
	<path fill="#FFFFFF" d="M412.5,322c-0.4,0.8-0.9,1.5-2.1,1.8c0.3-1.2,0.8-1.8,1.9-2L412.5,322z"/>
	<path fill="#FFFFFF" d="M430.6,322.8c-0.9,0.4-1.4-0.5-2.1-0.6c0.4-1,0.9-0.2,1.4-0.1C430.1,322.3,430.3,322.6,430.6,322.8z"/>
	<path fill="#FFFFFF" d="M403.4,322c0.9-0.1,1.5-1,2.5-0.6C405.4,322.8,405.4,322.8,403.4,322L403.4,322z"/>
	<path fill="#FFFFFF" d="M443.3,319.1c-0.5-1.3-0.6-2.1,1.3-1.9C444.4,317.9,444.3,318.5,443.3,319.1z"/>
	<path fill="#FFFFFF" d="M424.1,316.2c-0.2-1.6,0.6-1.9,2-1.7C425.7,315.3,425.1,315.8,424.1,316.2z"/>
	<path fill="#FFFFFF" d="M438.3,313.6c-0.3-0.8,0-1.3,0.4-2C439.6,312.5,439.2,313,438.3,313.6z"/>
	<path fill="#FFFFFF" d="M414.2,329.2c0.2,0.8-0.2,1.1-0.9,1.4c-0.3-0.7-0.3-1.2,0.3-1.7C413.8,329.1,414,329.1,414.2,329.2z"/>
	<path fill="#FFFFFF" d="M473.7,538.5c-0.1,0.6,0.2,1.3-0.6,1.8c-0.7-0.7-0.6-1.3-0.1-2C473.3,538.3,473.5,538.4,473.7,538.5z"/>
	<path fill="#FFFFFF" d="M407.7,335.7c0.1-1.1,0.3-1.7,1.2-1.4C409.2,335.2,408.6,335.4,407.7,335.7z"/>
	<path fill="#FFFFFF" d="M364.8,457.2c-0.7,0.6-1.1,0.6-1.8,0.6C363.2,456.1,363.9,456.5,364.8,457.2z"/>
	<path fill="#FFFFFF" d="M412.3,321.8c0.1-0.5,0.2-1,0.9-0.9c0.3,0.7-0.3,0.9-0.7,1.1L412.3,321.8z"/>
	<path fill="#FFFFFF" d="M405.2,334.6c0.3-0.8,0.5-1.3,1.3-1C406.5,334.3,406,334.4,405.2,334.6z"/>
	<path fill="#FFFFFF" d="M439.3,340.7c0.1-0.1,0.3-0.3,0.4-0.3c0.4,0,0.5,0.3,0.3,0.6c-0.1,0.1-0.3,0.2-0.5,0.2
		C439.4,341.1,439.3,340.8,439.3,340.7z"/>
	<path fill="#FFFFFF" d="M352.2,499.6c0.8,0.3,0.5,0.7,0.3,1.2C351.9,500.5,351.8,500.1,352.2,499.6z"/>
	<path fill="#FFFFFF" d="M766.2,358.6c1-2.2,1.9-4.4,3-6.8c4.4-0.3,8.2,2.6,13,3c-4-2.6-8.5-3.2-12.1-5.4c-0.1-0.7,0.1-1.2,0.8-1.7
		c7.4,4.7,15.5,7.2,24.4,6.4c-8.3-1.2-16.5-2.6-24-7.7c-0.5-0.6-0.2-1.6,0-2.5c1.2-0.5,2.1,0.9,3.5,0c-1.1-1.1-3.6-1.5-2.7-4.2
		c5.3,2,10.7,4,16.5,4c-3.1-0.8-6.3-1.5-9.4-2.5c-3.2-1-6.4-2-9.3-3.8c2.1-3.9,1.3-7.7,0.6-11.4c-0.8-3.9-2.1-7.6-3.8-11.2
		c-0.7-1.4-1-2.7-0.5-4.2c1.7-5,2.6-10.3,3.4-15.5c1.6,0.1,2.5,1.7,4.4,1.5c-1.2-1.7-3-2.3-4.3-3.6c-0.2-2.2,0.7-4.3,1.1-6.5
		c1.2-0.9,2.7-0.4,3.8-1.1c3.2,3.2,4.6,3.5,10.8,1.9c-3.3-1.5-6.9,0.1-9.4-2.6c6-3.3,9.6-8.8,12.5-14.8c4.3-8.8,5.1-17.3-0.7-26.1
		c-2.3-3.5-4-7.5-6.3-11.1c-1-1.5-2.7-3.6-0.3-5.8c2.4,1.8,4.5,3.9,6,6.4c3.1,5.1,6.4,10.1,9.3,15.3c4.5,8,11.4,12.2,20.8,12
		c6.4-0.1,11.4-5.9,10.8-13c-0.4-4.1-0.7-8.3-2.1-12.3c2.3,0,2.5,0,2.9,1.5c1.1,4.4,3.1,8.4,3.9,12.9c1.1,6.9,4.7,12.3,10.1,16.6
		c0.8,0.7,1.8,0.9,2.8,1.2c1.6,0.4,3.3,0.6,4.6,1.9c-1.1,5-1.4,10.3-3.4,14.8c-2.5,5.5-1.6,11-1.9,16.5c-0.3,4.5-1.2,8.9-2,13.3
		c-0.9,5.2-1.8,10.4-0.5,15.7c0.2,0.8-0.1,1.7-0.2,3c1.7-1,2-2.1,1.6-3.5c-1.3-4,0-7.7,0.7-12c2.8,8,5.5,15.5,8.2,23
		c0.1,0.4,0.2,0.9,0.2,1.3c-0.3,7.1,2.6,13.3,5.3,19.7c3.3,7.9,6.1,15.8,7.2,24.5c0.9,7.3-0.7,13.5-3.9,19.8c-0.7,1.3-1,2.7-1.5,4.2
		c-2.4,0.3-4.8,0.3-7.3,0c-0.8-4.1-1.6-8.1-4.2-11.4c-0.8-1-1-2.4-0.8-3.6c0.8-4.5-0.9-9.1,0.4-13.6c0.6-2-0.8-3.6-2.1-5.1
		c-4.4-5-5.4-10.9-3.6-17.2c1.1-3.8,0.7-7.5,0.2-11.3c0-0.3-0.7-0.5-1-0.8c-0.1-2.9,0.1-5.8,0.3-8.7c-0.2,2.9-0.5,5.7-0.2,8.6
		c-0.9,2.2-1.6,4.5-1.4,6.9c0.4,4.5-1.5,8.9,0,13.7c-4.9,2.7-10.3,4.4-15.4,6.6c-6,2.6-12.2,2-18.5,1.3c-3.4-0.4-6.9-0.5-10.2-1.5
		c-8.3-2.7-16.6-5.1-24-9.8C769.7,362.7,767.6,361,766.2,358.6L766.2,358.6z"/>
	<path fill="#FFFFFF" d="M796.8,473.7c-1.9,0.4-3.8,0.4-5.7,0.1c-12-1.5-24-2.4-36-3.1c-0.9-0.1-1.8,0-2.6-0.8
		c0.4-5.8,0.4-11.8,2-17.6c0.8-2.9,0.6-5.8-0.1-9c-1-4.6-1-9.4-1.4-14.3c1.7,0.3,3.2,0.8,4.6-0.2c1.2,2.6,3.1,0.5,4.7,0.9
		c1.9-2.7,2.6-5.6,3.5-8.9c28.8,0,57.4-1.4,86.4-1.9c0.7,5.9,2.4,11.4,3.6,17c0.2,1.1,0.3,2.3,0.9,3.3c2.2,3.9,2.1,8.2,2.1,12.5
		c-0.1,4.5,0.5,9,1.1,13.7c-1.7-0.5-3.1,0.3-4.6,0.7c-7.5,2-14.7,5.4-22.4,6c-7,0.6-14.2,0.6-21.2,0.1c-1.6-9.7-5.6-18.4-9.1-27.7
		c-1.9,1.9-3.1,3.8-3.1,6c-0.1,7.1-1.9,14.1-2.6,21.1C796.7,472.4,796.8,473.1,796.8,473.7z"/>
	<path fill="#FFFFFF" d="M783.8,372.6c5.7,1.9,11.2,4.1,17.1,5.3c3.5,0.7,7-0.2,10.6,0.6c0.4,1.1-1.3,2.2-0.1,3.3
		c1.5-0.6,1-3,2.6-3.4c1.6,0,0.9,1.4,1.5,2c2-0.2,3.8-1.9,6.4-1.4c1.3-2.6,4.4-3,7.3-3.8c-1.3,1.5-4.2,1.6-3.5,4.7
		c1.5,0,1.4-1.4,1.9-2.1c0.9-1.1,1.7-0.4,2.9-0.3c0.1-2.9,4.1-1.9,4.1-4.9c1.7,1.2,0,2.1,0.4,3c2,1.5,3.9,3.1,5.9,4.5
		c4.2,3.2,5.3,7.6,5.2,12.5c0,3.2,0.2,6.2,2.2,9c1.6,2.3,2,5.2,2.7,8.6c-28.4,0.6-56.7,1.2-85.2,1.9c0.1-2.9-1.7-4.5-3.5-6
		c-3.9-3.3-5.5-7.6-5.2-12.6c0.3-4.4-0.3-8.8-0.8-13.2c-0.8-6.8,2.1-11.6,7-15.8c0.9,0.9,1.3,2,2.5,2.5c0.9,0.2,1.5-0.5,2.2-0.9
		c0.7,0.5,0,1.4,0.8,1.8c1.1,0,0.9-1.6,2-1.7c0.2,1-1,1.8-0.4,3c1.2,0.2,1.1-1.4,1.9-1.7c1.8,0.9,3.6,1.8,5.5,2.8
		c-0.5,2.4-0.3,4.5,2.7,5.6c-0.2-1.9-1.2-3.2-1.1-5C781.1,371.3,782.7,371.6,783.8,372.6c-0.1,0.2-0.2,0.3-0.2,0.3
		C783.6,372.9,783.6,372.8,783.8,372.6z"/>
	<path fill="#FFFFFF" d="M766.2,358.5c-0.8-0.7-1.5-1.7-3-1.5c-1.5,1-1.8,2.7-1.7,4.4c0.1,1.3-0.2,2.7-1.2,3.4
		c-2,1.3-3.4,3.1-4.5,5.8c-0.6-4,0.8-7,1.4-10.2c1.5-8.2,2.6-16.5,1.7-24.9c-0.4-3.9,0.3-7.6,2.3-11c1.3-2.1,2.1-4.5,3.5-7.3
		c2,6.7,6.5,12.4,3.2,19.4c0.8,5.9,1.4,11.9-2,17.2C764.8,355.7,766.1,357,766.2,358.5L766.2,358.5z"/>
	<path fill="#FFFFFF" d="M766.7,418.1c-0.3-0.9-0.6-1.7-1-3.2c33.8-0.6,67.4-1.2,100.9-1.8c0.9,2.3-0.6,2.3-2,2.3
		c-6.3,0.2-12.6,0.5-19,0.7c-23.2,0.6-46.5,1.4-69.7,1.7C772.9,417.7,769.9,417.9,766.7,418.1z"/>
	<path fill="#FFFFFF" d="M837.7,605.4c-2.7-3.8-6.5-2.6-9.6-4c3.8-1.4,7.7-1.7,12-1.6C838.9,601.5,838,602.8,837.7,605.4z"/>
	<path fill="#FFFFFF" d="M845.4,382.6c-1.6-3.2-4-4.9-6.5-6.8c1.7-1.6,0.4-3.8,0.7-5.9c1.5,0.8,1.1,1.7,1.3,2.4
		c0.4,2.3,0.1,4.8,3.4,5.6C845.8,378.2,846.1,380.2,845.4,382.6z"/>
	<path fill="#FFFFFF" d="M786.5,185.8c-1.1-1.2-2-2.2-0.8-3.6c1.1-0.3,1.5,0.5,2,1C787.8,184.3,786.5,184.7,786.5,185.8z"/>
	<path fill="#FFFFFF" d="M789.9,160.6c-1.3,0.1-2.3,0.8-3.8,1.7c0.7-1.6,1.8-2.4,1.7-3.8C789.4,158.8,789.9,159.5,789.9,160.6
		L789.9,160.6z"/>
	<path fill="#FFFFFF" d="M791.1,182c-1.8-0.1-2.2-1.2-2.5-2.6C791,179.1,790.6,181,791.1,182z"/>
	<path fill="#FFFFFF" d="M805.7,163.1c-1,0.3-2.1,0.7-3-0.6C804.1,161.4,805,161.9,805.7,163.1L805.7,163.1z"/>
	<path fill="#FFFFFF" d="M799,160.6c-0.5,0.9-1.1,1.8-2.6,2.3c0.5-1.4,1.1-2.2,2.4-2.5L799,160.6z"/>
	<path fill="#FFFFFF" d="M788.3,174.2c-0.1-1.3-0.7-2.3,0.6-3.1C789.6,172.3,788.5,173,788.3,174.2z"/>
	<path fill="#FFFFFF" d="M814.7,160.8c1-0.6,1.6,0.1,2.4,0.6C816,161.9,815.6,160.7,814.7,160.8z"/>
	<path fill="#FFFFFF" d="M789.9,160.6c0.9-0.1,1.6-0.9,2.5-0.7C791.8,161.4,791.8,161.4,789.9,160.6L789.9,160.6z"/>
	<path fill="#FFFFFF" d="M766.5,364.8c-0.5-0.6-0.2-1.2-0.2-1.9c0.9-0.2,1.2,0.5,1.7,1.1C767.7,364.7,767,364.6,766.5,364.8z"/>
	<path fill="#FFFFFF" d="M831.3,155.7c-0.5,0.9-0.5,1.6-1.3,1.8C829.6,156.3,829.6,156.3,831.3,155.7z"/>
	<path fill="#FFFFFF" d="M810.6,154.8c-0.2-1.6,0.6-1.9,2-1.7C812.1,153.9,811.6,154.4,810.6,154.8z"/>
	<path fill="#FFFFFF" d="M825.3,150.3c0.9,1.1,0.2,1.5-0.5,1.8C824.5,151.5,824.6,150.9,825.3,150.3z"/>
	<path fill="#FFFFFF" d="M800.1,167.6c1.1,0.7,0.5,1.1,0,1.6C799,168.6,800,168.1,800.1,167.6z"/>
	<path fill="#FFFFFF" d="M862.1,419.3c0.7-0.8,1.2-0.6,1.8-0.2C863.3,420.5,862.8,419.7,862.1,419.3z"/>
	<path fill="#FFFFFF" d="M794.3,174.3c-0.1-1.1,0.2-1.5,1.1-1.5C795.7,173.7,795.1,174,794.3,174.3z"/>
	<path fill="#FFFFFF" d="M791.8,173c0.1-0.7,0.4-1,1.1-0.8C793,173.1,792.5,173.1,791.8,173z"/>
	<path fill="#FFFFFF" d="M826,179.8c-0.1-0.1-0.3-0.3-0.3-0.4c0-0.3,0.3-0.5,0.6-0.3c0.1,0,0.2,0.4,0.1,0.5
		C826.4,179.7,826.2,179.7,826,179.8z"/>
	<path fill="#FFFFFF" d="M798.8,160.4c0.1-0.6,0.3-0.9,0.9-1c0.3,0.8-0.2,1-0.7,1.2L798.8,160.4z"/>
	<path fill="#FFFFFF" d="M243.1,582.5c3.1-2.4,4.4-6.9,3-10.2c-1.4-3.2-5.4-5.4-8.9-4.9c-1.3,0.2-2.2,1.2-3,2.1
		c-0.8,0.9-1.5,2-2.3,3.1c-4.2,0.6-8.6,0.8-13.2,0.7c0.8-9.4,2.4-18.3,6.9-26.5c1.5-2.7,2.9-5.4,4.8-7.8c5.5-7.2,11.1-6.8,17-0.6
		c4.9,5.2,7.7,11.9,10.5,18.5c5.9,13.6,6.6,27.8,4.5,42.2c-1.2,8.4-3.8,16.5-8.8,23.5c-1.8,2.6-4.4,4.2-7.4,4.8
		c-6.2-1.9-10.4-6.2-14.5-11.4c5.4,0.4,5.5-3.3,5.7-6.8c0.2-3,0-6,0-9c0.3,0,0.5-0.1,0.8-0.1c0.9,2.7,1.7,5.5,2.7,8.2
		c1.3,3.8,3.3,4.5,6.7,2.4c0.9-0.5,1.7-1.2,2.4-1.9c2-1.8,2.9-3.6,2-6.7c-1.4-5.1-3.7-9.4-7.5-13c-1.7-1.7-2.5-3.4-1.5-5.7
		C242.5,583,242.6,582.7,243.1,582.5z"/>
	<path fill="#FFFFFF" d="M328.4,473.7c-3.1,0.5-6.1-1.5-9.7-0.4c2.6,1.4,5.4,0.9,7.6,2.6c-0.4,2.1-0.8,4.2-1,6.3
		c-0.2,2-0.3,4-1.4,5.9c-6.5-3.8-7.3-11.1-10.5-17.9c3.8-3.8,4.7-9.2,3.9-14.9c2.1-1.6,4.3-2.8,4.2-5.9c3.2,1.5,6.1,2.5,8.8,0.1
		c0.9-0.7,1.7-1.6,0.5-3c-1.6,0.3-2.8,2-4.8,1.8c-1.6-0.2-3.3-0.7-5.1-0.1c-0.4,2.2-0.9,4.4-3.7,5.1c-0.7-1.6,0.4-3.5-1.5-4.8
		c3-1.9,5.6-3.8,9-4.2c3-0.4,5.3-2.4,7.4-5.3c0.3,6.8,0.6,13.1-0.8,19.2c-0.4,1.8-0.9,3.5-1.1,5.3c-0.2,2.1-1.3,3.5-3.1,4.2
		c0.2,1.3,1.2,0.5,1.8,1.1C328.9,470.2,327.9,471.9,328.4,473.7L328.4,473.7z"/>
	<path fill="#FFFFFF" d="M255.5,623.9c15.7-22.4,13.9-66.5-9.6-90.4c2.5,0,4.1,1.1,5.7,2.5c11.8,10.2,17.4,23.1,17.8,38.7
		c0.2,6.3,1,12.6-0.2,18.9c-1,5.5-1.8,11.1-4.1,16.3c-1.8,4.1-4.4,7.8-6.7,11.6C257.8,622.6,256.9,623.6,255.5,623.9z"/>
	<path fill="#FFFFFF" d="M238.6,577.8c-0.6,1.8-2,1.6-3.4,1.7c-15.3,0.9-30.6,1.8-46,2.8c-8.6,0.5-17.1,1-26.1,1.6
		c0.3-1.5,0.8-2.9-0.1-4.1c0.6-0.9,1.3-0.7,1.9-0.7c22.9-1.2,45.8-2.4,68.6-3.6C235.6,575.4,238.1,574.6,238.6,577.8z"/>
	<path fill="#FFFFFF" d="M243.1,582.5c-0.1,0.3-0.1,0.6-0.2,0.8c-2.3,1-3.1,2.8-1.8,4.9c0.6,0.9,1.4,1.7,2.2,2.5
		c2.7,2.8,4.8,6,6.1,9.6c1.6,4.4,1.2,5.6-2.6,8.2c-0.7,0.5-1.4,1.1-2.4,1.2c-1.1-0.2-1.3-1.1-1.6-2c-2.2-6.5-4.4-13-4.7-20
		c-0.1-2.3-2.1-3.3-3.3-5.4c2.1-0.3,3.8-0.9,4.7-2.7c0.5-1.1,0.8-2.1,0.7-3.2c-0.3-2.6-2-3.8-5.5-4.2c0.4-1.3,1.4-2,2.4-2.7
		c6.1,0.3,7.8,2.3,7.1,8.3C244.1,579.5,243.7,581.1,243.1,582.5z"/>
	<path fill="#FFFFFF" d="M271.8,577.4c-0.7-1.4-0.6-2.4-0.4-3.8c18-0.9,36.1-1.9,54.2-2.8c0.7,1.1,0.7,2.1,0.5,3.4
		C308.1,575.2,290,576.3,271.8,577.4z"/>
	<path fill="#FFFFFF" d="M236.7,587.1c-1.6,8.6-1.3,17.4-2.2,26.2c-4.2,0.3-7.8-0.1-10.9-2.5C226.3,602,231.4,594.6,236.7,587.1z"/>
	<path fill="#FFFFFF" d="M220.1,583.2c4.7-0.3,8.9-0.6,13.2-0.8c0.9,0.7,1,1.8,1.5,2.8c-3.5,5.4-7.3,10.6-10.4,17
		C222.2,595.7,221.5,589.6,220.1,583.2z"/>
	<path fill="#FFFFFF" d="M158.4,584.5c-2.7-1.6-1.7-3.6-0.8-5.6c1.8-0.4,2.8,0.6,3.1,2C161.1,582.6,160.3,583.9,158.4,584.5z"/>
	<path fill="#FFFFFF" d="M657.7,425.1c2.8-2.5,4.1-5.7,3.6-9.4c-0.4-3-2.2-5-5.2-5.9c-3-0.9-5.6-0.8-7.5,2c-0.6,0.8-1.2,1.6-1.8,2.6
		c-4.2,0-8.5,0-13.2,0c0.8-5.7,1.6-11.2,3.4-16.5c2.1-6.4,5.4-12.2,9.6-17.4c5.5-6.9,11.2-6.6,16.9,0.1c4.9,5.7,7.5,12.8,10.1,19.8
		c3.5,9.3,4.6,18.8,4.2,28.6c-0.5,12.3-3.1,24.1-10.1,34.6c-2.1,3.2-4.8,5.3-8.5,5.9c-6.2-2-10.2-6.5-14-11.7
		c1.6-0.5,3.6,0.1,4.5-1.7c0.7-1.4,1-3,1.2-4.6c0.3-3.2,0.6-6.5,0.9-10.5c1,3.6,1.8,6.5,2.7,9.4c1.1,3.6,3.2,4.4,6.4,2.6
		c2.5-1.4,4.6-3.2,5.6-6.3c-1.3-2-1.1-4.6-2.1-6.9c-1.4-3.1-3.1-6.1-5.6-8.4c-1.8-1.7-2.4-3.5-1.5-5.8
		C657.6,425.3,657.7,425.2,657.7,425.1z"/>
	<path fill="#FFFFFF" d="M667.5,467.3c7.4-9.3,10.8-19.6,12-30.8c0.8-7.6,1.3-15.3,0.1-22.9c-1.1-6.9-3.1-13.7-5.8-20.1
		c-2.7-6.5-6.8-12.3-11.6-18c2.4,0.2,4.1,1.2,5.6,2.7c6.7,6.7,12.5,13.9,14.7,23.5c0.6,2.6,1.3,5.3,1.4,8c0.7,9.6,1.5,19.2-0.6,28.7
		c-1,4.6-2.2,9.2-4,13.5c-1.9,4.5-4.9,8.6-7.8,12.6C670.6,465.5,669.4,466.4,667.5,467.3z"/>
	<path fill="#FFFFFF" d="M653.1,421c-25.1,0.7-50,1.3-75,2c0-1.7,0.5-3-0.5-4.8c2.4,0,4.3,0,6.2,0c21.7-0.4,43.3-0.9,65-1.3
		C652.7,416.9,652.9,417,653.1,421z"/>
	<path fill="#FFFFFF" d="M657.7,425.1c-0.1,0.1-0.2,0.3-0.3,0.4c-2.4,0.8-3.1,2.3-2,4.5c0.5,1,1.3,1.8,2.1,2.6
		c3.8,4.1,6.1,8.8,6.9,14.4c-1.6,2.3-3.7,4-6.2,4.9c-1.2-0.3-1.4-1.3-1.7-2.1c-1.6-5.5-3.3-11-3.8-16.8c-0.3-3.1,0.1-6.4-3.6-8.3
		c4.4-1.6,6.1-3.5,5.9-6.1c-0.2-2.6-1.8-4.1-5.2-4.7c0.9-2.3,2.6-2.8,4.9-2.3c2.5,0.6,4,2,4.3,4.5
		C659.6,419.2,658.5,422.1,657.7,425.1z"/>
	<path fill="#FFFFFF" d="M740.1,415.3c0.7,1.1,1,2,0.9,3.4c-18.1,0.5-36.2,1-54.1,1.5c-1.1-1.2-0.9-2.3-0.4-3.9
		C704.3,416,722.2,415.7,740.1,415.3z"/>
	<path fill="#FFFFFF" d="M648.1,455c-4.2-0.1-7.7-0.5-10.8-2.9c2.9-8.7,8.2-15.9,13.7-23.2C649.4,437.4,649.2,446.1,648.1,455z"/>
	<path fill="#FFFFFF" d="M638.4,443.4c-2-6.6-2.6-12.7-3.7-19.1c4.6,0,8.9,0,13.5,0c0.6,0.6,0.7,1.6,1.1,2.5
		C645.7,432,641.8,437.1,638.4,443.4z"/>
	<path fill="#FFFFFF" d="M572.8,417.6c3.6,2.1,3.6,3.5,0.5,5.9C570.8,421.7,570.7,421.2,572.8,417.6z"/>
	<path fill="#FFFFFF" d="M937.5,416.3c2.9,0,5.5,0,8.2,0c0.9,1.1,1.9,2.4,2.9,3.5c5,5.5,15.1,4.7,19.3-1.3c2.5-3.6,0.9-7.2-0.2-10.6
		c-1-3.3-4-4.4-7.2-4.8c-1.3-0.2-2.7,0-4.1,0c-4.1-0.2-7.7,0.5-8.9,5.4c-3.5,0-6.7,0-10,0c-0.4-13.8,5.5-24.6,16-33.1
		c2.2-1.8,4.9-2.7,7.9-2.4c1.7,0.2,3.4,0.3,5.1,0.4c2.4,0.1,4.5,1,6,2.7c6.2,7,11.6,14.6,13.1,24c0.8,4.9,0.5,10.1,0.2,15.2
		c-0.5,8-1.8,15.9-4.9,23.4c-3.5,8.5-10.3,12.6-18.7,14.3c-3.8,0.8-7.4-0.3-10.8-2.7c-8.4-6.1-10.9-15.2-12.9-24.5
		C938,422.8,937.5,419.8,937.5,416.3z"/>
	<path fill="#FFFFFF" d="M978.8,446.7c3.8-6.8,7.2-13.7,8.2-21.4c0.9-7.5,2.2-15,1.4-22.5c-0.9-8.6-4.5-16.2-9.7-23.1
		c-0.4-0.6-1.2-1-1.1-1.9C995.6,389.5,996,430.6,978.8,446.7z"/>
	<path fill="#FFFFFF" d="M889.1,415.1c-0.4-0.9-0.1-1.6,0.1-2.6c20.8-0.4,41.8-0.8,62.9-1.1c-0.7,2.5-2.5,2-4,2
		c-14.5,0.4-29.1,0.6-43.7,1C899.3,414.5,894.1,414.8,889.1,415.1z"/>
	<path fill="#FFFFFF" d="M955.8,404.8c8.6,0.1,11,3.2,10.9,8.7c-0.1,6.1-3.6,8.9-10,8.3C960.2,415.9,961.2,410.2,955.8,404.8z"/>
	<path fill="#FFFFFF" d="M953.9,421.5c-2.4-1-4.2-2.4-5.4-4.7c1-1,2.4-1.2,3.4-1.5c2.5-0.8,3.5-2.1,3.2-4.6
		c-0.3-2.9-2.6-2.1-4.5-2.3c0.2-1.4,1.3-2.1,2.2-2.8C958.8,408.1,959.5,417,953.9,421.5z"/>
	<path fill="#FFFFFF" d="M1031.2,411.1c-12.3,0.3-24.6,0.7-37.3,1c1.1-2.3,2.7-1.7,4-1.8c5.6-0.2,11.3-0.2,16.9-0.3
		c4.7-0.1,9.5-0.1,14.2-0.2C1029.7,409.8,1030.5,409.5,1031.2,411.1z"/>
	<path fill="#FFFFFF" d="M750.2,607.9c2.9,1.2,5.5,2.3,7.4,4.7c5.1,0.3,10.3,0.3,15.5,0.8c-5.7,0.6-11.6-1-17.8,1.4
		c6.3,2.2,12.4,1,18.3,2.6c-5,0.6-10.3-0.8-15.2,2c1.3,1.4,2.9,0.4,3.8,1.6c-0.9,0.8-2.2,0-3.4,1c2.4,1.8,5.1,1.4,7.6,1.7
		c0.2,1.1-1.6,0.8-1.3,2.1c1.1,1.1,2.7,1,4.2,1.4c0.7,0.7-0.6,1.1-0.3,1.7c2.4,1.7,3.5,1.6,6.6-0.7c-0.2-1.2-0.8-2.6,0-3.7
		c-1-1.8-2.6-0.9-4.1-1.4c0.4-1,0.1-2.5,1.9-2.4c6.7,5.9,10.9,13.2,12.6,21.9c-1.2,1.3-2.9,1-4.4,1.3c-9.6,2.3-18.8,0.2-27.8-3
		c-1.5-0.5-2.8-1.3-3.4-3c-0.6-1.8-2.1-2.6-4-2.4c-1.2,0.1-2.2-0.1-2.7-1.4c-0.1-1.1,0.6-1.9,1-2.8c0.6-1.1,1.4-2.4,1-3.5
		c-1.2-3.1,0.2-5.7,1.1-8.5c0.7-2.1,1-4.1,1.1-6.3C748.2,611.3,748.2,609.3,750.2,607.9z"/>
	<path fill="#FFFFFF" d="M791.4,494.1c-0.8-3.3-1.4-6.7-4.1-9.3c-1-0.9-1.2-2.4-1.3-3.7c-0.2-1.9-0.7-3.8-1.6-6
		c3.6,0.2,6.9,1.1,10.4,0.9c0.6,6.3-0.6,12-2.6,17.5C792,493.7,791.6,493.8,791.4,494.1L791.4,494.1z"/>
	<path fill="#FFFFFF" d="M758.6,610.8c-0.7-3.3,0-4.5,2.8-4.8c2.1-0.2,4.3-0.4,6.5,0.3c0.3,1.2,0.7,2.4,1.1,3.9
		C765.5,610.5,762.2,610.7,758.6,610.8z"/>
	<path fill="#FFFFFF" d="M752.8,606.5c0.9-2.4,2.1-1.9,3.4-0.8C755.6,608,754.4,607.5,752.8,606.5z"/>
	<path fill="#FFFFFF" d="M840.8,622.8c-1.3-1.6-1.3-3,0.4-4.2C843,619.8,843,619.8,840.8,622.8z"/>
	<path fill="#FFFFFF" d="M835.5,617.8c2.3,2.2,2.3,2.8-0.2,4.6C833.7,620.7,833.5,619.3,835.5,617.8z"/>
	<path fill="#FFFFFF" d="M829.7,617.4c0.7,0,1.4,0,1.4,0.9c0,0.5-0.4,0.9-0.9,0.8C829.1,618.9,829.2,618.2,829.7,617.4z"/>
	<path d="M434.7,484.1c6.7-2.8,13.2-5.8,19-10.1c1.1,1.3,0.7,2,0.2,2.6c-0.9,0.8-1.8,1.7-2.9,2.3c-2.7,1.6-5.6,2.6-8.4,4
		C440.5,483.9,437.5,483.8,434.7,484.1z"/>
	<path d="M456.3,477.2c1.4,1.5,1.4,1.5-0.3,7.8c0.4,1.8,3.2,3.3,0.5,5.7c-0.8-1.3-1.6-2.5-2.3-3.7c-0.5-0.9-0.9-2.1-0.1-2.8
		C456,482.4,456.4,480.2,456.3,477.2z"/>
	<path d="M435.6,530.3c-1.8,3.5-3.8,6.9-7.8,8c-0.3-0.3-0.6-0.6-0.8-1C429.9,534.9,432.7,532.6,435.6,530.3z"/>
	<path d="M442.6,516.8c-1,4-2,7.9-4.9,11C438.5,523.7,440.5,520.2,442.6,516.8z"/>
	<path d="M443.4,528.1c-1.6,3.8-2.9,7.9-6.5,10.6c1.9-3.7,3.9-7.3,5.8-11C443,527.8,443.2,528,443.4,528.1z"/>
	<path d="M434.4,544.4c-0.2,2.6-1.1,4.9-3.6,6.8C431.4,548.3,432.5,546.2,434.4,544.4z"/>
	<path d="M448.6,516.6c0.6-2.6,1.7-4.7,3.2-6.8C451.9,512.6,450.1,514.6,448.6,516.6z"/>
	<path d="M436.7,494.9c-1.6,1.3-3.5,1.7-5.8,1.6c1.5-0.9,2.9-1.8,4.4-2.7c0.8-0.5,1.5-0.5,1.6,0.7
		C436.9,494.7,436.8,494.8,436.7,494.9z"/>
	<path d="M444.5,510.5c0.4,2.1-0.2,3.1-1.2,4.5C442.7,513,443.4,512,444.5,510.5z"/>
	<path d="M429.2,555c0,1.9-0.5,3.1-2.1,4.6C427.2,557.5,427.8,556.2,429.2,555z"/>
	<path d="M432.6,484.8c-1.3,0.7-2.2,0.8-3.2,0C430.3,483.7,431.2,483.7,432.6,484.8z"/>
	<path d="M455.2,470c1.3,0.8,1.8,1.5,1.6,3.1C455.5,472.3,455.1,471.5,455.2,470z"/>
	<path d="M446.6,506.5c0.7,1.9-0.1,2.6-1.2,3.7C445.1,508.7,445.4,507.9,446.6,506.5z"/>
	<path d="M452.9,495.6c0.3,1.3,0.3,2-0.8,2.4C451.3,496.9,451.9,496.4,452.9,495.6z"/>
	<path d="M452.3,503.8c-0.7-1.3,0-1.8,0.3-2.9C453.3,502.3,453.3,503,452.3,503.8z"/>
	<path d="M448.8,391c2.8-1.6,5.2-0.2,7.5,1.3C453.7,392.1,451.1,392.9,448.8,391z"/>
	<path d="M466.3,436.8c-0.2,2.1,1,4.1-0.5,5.9C464.2,439.5,464.2,439.4,466.3,436.8z"/>
	<path d="M463.2,449.6c-1.2-3-0.9-3.7,2-5.1C465.1,446.5,463.9,447.9,463.2,449.6z"/>
	<path d="M462.3,454.6c-1.5-1.2-0.7-2.1,0.2-3.5C463.8,452.5,462.2,453.6,462.3,454.6z"/>
	<path d="M462.1,559.5c-1.3-0.6-1.2-1.5-0.7-2.5C462.6,557.6,462.7,558.4,462.1,559.5z"/>
	<path d="M462.6,459.5c-1.4-1.1-1.6-1.9-0.5-3.1C463,457.3,462.8,458.1,462.6,459.5z"/>
	<path d="M448.2,427.8c1.5-0.2,2.3,0.4,2.9,1.8C449.7,429.6,448.7,429.4,448.2,427.8z"/>
	<path d="M463,535.5c1,0.9,1,1.7,0.1,2.7C462.4,537.4,462.5,536.6,463,535.5z"/>
	<path d="M456.5,432.5c-1.4-0.5-2.3-0.8-2.5-2C455.3,430.3,455.7,431.2,456.5,432.5z"/>
	<path d="M411.3,411.5c1.6,3.3-0.7,5.7-1.8,8.3C409.7,417,409.9,414.1,411.3,411.5z"/>
	<path d="M408.6,421.3c1.1,2.7-0.7,3.7-2.3,5.2C406.3,424.3,407,422.8,408.6,421.3z"/>
	<path d="M413.5,419c2.2-0.4,3.8,0.8,5.4,0.6C417.3,419.6,415.6,420.6,413.5,419z"/>
	<path d="M381.8,438.2c1.4-0.6,2,0,2.6,0.7C384.2,439.9,383.8,439.7,381.8,438.2z"/>
	<path d="M403.9,430.6c0,1.1-0.6,1.3-1.6,1.9C402.4,431.3,402.7,430.8,403.9,430.6z"/>
	<path d="M380.4,474.4c4.8,3.7,6,8.2,5.4,13.4c-0.3,2.1-1.7,3.4-4.4,4.6c1.9-3.5,2.2-6.5,2.6-9.6C384.4,479.3,381,477.7,380.4,474.4
		z"/>
	<path d="M373.6,508.2c-0.4,5.5-0.8,11-0.8,16.8C370.3,521,370.7,511.2,373.6,508.2z"/>
	<path d="M361.2,494.9c1-0.1,1.3,0.5,1.4,1c0.5,1.9,1.4,3.3,3,4.6c2.1,1.6,2.7,4.2,2.8,9.1c-1.6-1-1.8-2.7-1.9-4.1
		c-0.2-2.4-1.3-4.1-3.2-5.6C361.8,498.7,360.4,497.2,361.2,494.9z"/>
	<path d="M367.7,481.8c-1.7-1.3-3.2-4.8-2.7-6.6c0.5-1.8,2.4-3.8,4.2-4.2c0.4,2.3-1.8,2.9-2.7,4.3
		C367.1,477.5,368,479.6,367.7,481.8L367.7,481.8z"/>
	<path d="M358,527.2c0,3.3,0,6.7,0,10c0,0.7,0.3,1.6-0.9,2.3c0.2-2.3,0.4-4.4,0.4-6.4c0.1-2,0-3.9,0-5.9
		C357.7,527.2,357.9,527.2,358,527.2z"/>
	<path d="M374.6,470c3.3,1.4,3.7,1.9,4.5,5C376.8,473.8,375.8,471.8,374.6,470z"/>
	<path d="M359.3,513.4c0.4-2.3,1-4.5,2.2-6.6C361.6,509.3,360.6,511.4,359.3,513.4z"/>
	<path d="M356.7,550.7c-0.9-3.5-0.9-3.8,0.6-6.5C357.4,546.5,357.8,548.6,356.7,550.7z"/>
	<path d="M360.8,483.2c-0.2-2.2,0.7-3.4,2.5-4.5C363.5,480.9,362.4,481.9,360.8,483.2z"/>
	<path d="M367.6,481.9c1.2,1.2,1.3,2.7,1.5,4.8C366.7,485.2,368.2,483.2,367.6,481.9L367.6,481.9z"/>
	<path d="M375.1,495c1,1,1.6,2.1,0.5,3.9C374.7,497.4,374.9,496.2,375.1,495z"/>
	<path d="M361.6,486c1.4,1.2,1.2,1.9,0.6,3C361.4,488.1,361.7,487.3,361.6,486z"/>
	<path d="M382.3,492.9c0.3,0.9,0.2,1.2-0.6,1.2C381.2,493.4,381.7,493.2,382.3,492.9z"/>
	<path d="M387.9,496.8c2.9,0,5.7,0,8.5,0C393.5,498.2,390.7,499.4,387.9,496.8L387.9,496.8z"/>
	<path d="M421.1,593.7c0.3-1.3,0.8-3,2.8-3.2c1.6-0.2,2.9,1.6,2.9,3.9c0,2.1-1.3,3.9-2.9,3.8C422.4,598.2,421.1,596.3,421.1,593.7z"
		/>
	<path d="M418,595.3c-0.4,0.6-0.7,1.1-1.5,2.3c-0.2-3-0.2-5.2,0.3-7.4c1.4-0.8,2.4-0.2,3.4,0.2c2,2.4-1.3,4.5,0.4,6.7
		C418.8,597.5,419.2,595.7,418,595.3z"/>
	<path d="M819.9,324.4c2.3-5.8,1-11.5-0.2-17.7C823.4,309.9,823.5,319.5,819.9,324.4z"/>
	<path d="M821.3,279c2.1,4.1,6.4,4.9,9.9,7.3c-1.9,1.6-3.2,0.5-4.6-0.5C820.6,281.5,820.6,281.5,821.3,279z"/>
	<path d="M841.5,346.9c-1.9-2.7-0.8-5.6-0.4-8.3c0.2-1.5,1.1-2.9,0.4-4.7c1.5,0.2,2,1,2.4,2.3c-1.4,1.9-1.8,4.3-1.6,6.8
		C842.4,344.4,842.3,345.8,841.5,346.9L841.5,346.9z"/>
	<path d="M820.2,301.4c-0.6-3.9-1.1-7.7-1.6-11.6C821.1,291.2,822,298,820.2,301.4z"/>
	<path d="M778.1,298.2c2.4,2.6,6.5-0.1,9.2,3.4C783.8,300.7,780.4,301,778.1,298.2z"/>
	<path d="M807,346.3c-3.8,0.9-7.5,0.1-11-1.4C799.6,345.4,803.3,345.8,807,346.3z"/>
	<path d="M786.7,339.1c-3.9-0.2-7.8-1-11-3.7C779.4,336.6,783,337.8,786.7,339.1z"/>
	<path d="M830.4,358.1c-2.9,0.4-5.9,0.3-8.9,0C824.5,358.1,827.4,358.1,830.4,358.1z"/>
	<path d="M788.1,288.3c2.2-0.8,3.4,0.2,5.3,0.8C791.3,290.3,789.8,290.3,788.1,288.3z"/>
	<path d="M820.7,272.5c1.3,1.9,1.5,3.1,0,4.5C820.2,275.5,820.7,274.2,820.7,272.5z"/>
	<path d="M819.2,346.5c-1.6-1.1-1.8-2.2-1-3.7C819.1,344.3,819.1,344.3,819.2,346.5z"/>
	<path d="M839.4,342.8c-1.4,1.3-2.4,1.8-4,1.8C836.5,343.5,837.5,342.9,839.4,342.8z"/>
	<path d="M826.5,297.1c1.3-0.5,2.2,0.3,3.2,0.8C828.6,298.1,827.5,298.4,826.5,297.1z"/>
	<path d="M777.1,302c-1.5,0.4-2.4,0.4-3.2-0.6C775.1,300.4,775.8,301.2,777.1,302z"/>
	<path d="M807.1,267.1c0.3,0,0.6,0.1,1.2,0.1c-0.6,0-0.9,0-1.3,0C807,267.2,807.1,267.2,807.1,267.1z"/>
	<path d="M819.4,338.3c0.5,0.1,0.7,0.6,0.5,0.9c-0.5,0.6-0.6,0-0.7-0.4C819.2,338.7,819.4,338.5,819.4,338.3z"/>
	<path d="M809,453.3c-2.8-2.9-3.5-6.7-4.7-10.2c-0.5-0.6-1.3,0.4-1.9-0.3c-1.3-2.1,2.8-7.7,7.2-9.8c1.5,0.4-0.8,1.1-0.1,1.3
		c6.4,5.4,13.7,8.3,21.3,10.4c-5.7-0.3-10.6-1.8-17.4-5.4c5,8.5,13.3,13,19.8,19.2c-9.8-5.9-18.6-13-24.1-23.3
		c-4.3,2.7-5.2,4.2-3.2,10.7C806.9,448.4,808.6,450.7,809,453.3L809,453.3z"/>
	<path d="M840.2,438.4c-9.8-2.4-20.4-1.4-29.8-6.3c0.3-0.5,0.5-0.8,0.6-0.8c7,2.8,14.5,3.1,21.8,4.2
		C835.5,436,838.1,436.6,840.2,438.4L840.2,438.4z"/>
	<path d="M790.5,424.3c6-1.6,16.6,2.7,17.7,7.2C802.1,428.8,796.6,425.8,790.5,424.3z"/>
	<path d="M758.2,441.5c-1.8-3.2-2.8-6.7-2.7-10.4C757.2,434.3,757.1,438.1,758.2,441.5z"/>
	<path d="M831.8,428.1c-3.8,0.2-7.4,1.5-11,0.3C824.5,428,828.2,427.3,831.8,428.1z"/>
	<path d="M820.9,425.5c-1.9,1.1-4,1.7-6.3,1.2C816.5,425.4,818.7,425.7,820.9,425.5z"/>
	<path d="M790.8,432.3c2.5,0.1,5,0.4,7.3,1.8C795.6,433.5,793,433.8,790.8,432.3L790.8,432.3z"/>
	<path d="M799.8,443.6c-0.4,1.1-1.2,1.6-2.3,1.6C797.7,443.7,798.9,443.9,799.8,443.6z"/>
	<path d="M819.8,460.8c1.2,0.5,1.8,0.7,1.9,1.5C820.9,462.3,820.5,461.8,819.8,460.8z"/>
	<path d="M809,453.4c0.7,0.1,1,0.6,0.9,1.3C809.1,454.6,809,454,809,453.4L809,453.4z"/>
	<path d="M840.2,438.5c0.6-0.1,1.3-0.2,1.6,0.6C841,439.3,840.5,439.2,840.2,438.5L840.2,438.5z"/>
	<path d="M790.8,432.2c-0.5,0-1.1,0-2.3,0.1C789.8,431.7,790.3,432,790.8,432.2L790.8,432.2z"/>
	<path d="M763,390.2c5.4,5.3,10.5,10,8.7,17.8C770.8,407.4,763.1,392.4,763,390.2z"/>
	<path d="M836.6,380c1.9,6.7,3.7,13.5,4,20.5C838.7,393.7,835.9,387.2,836.6,380z"/>
	<path d="M798.4,381.9c3.3,3.8,0.5,8.2,2.1,11.9C797.5,391.5,796.3,385,798.4,381.9z"/>
	<path d="M807.4,386.3c2.3,7.9-0.6,15.3,0,23.1c-1.7-0.8-1.7-2-1.6-3.2c0.6-4.2,0.4-8.5,1.6-12.7C808,391.3,806.5,389.1,807.4,386.3
		z"/>
	<path d="M788.8,397.9c0.7-6.4,1.2-12.9,3.5-19C791.7,385.3,790.8,391.7,788.8,397.9z"/>
	<path d="M811.9,402.8c-1.6-5.9,0.6-11.6,1.6-17.4c1.1,2.8-0.2,5.6-0.6,8.3C812.4,396.8,812.5,399.8,811.9,402.8z"/>
	<path d="M840.6,404.3c-3.7,2.8-7.9,3.6-12.3,3.5C832.1,405.5,836.6,405.9,840.6,404.3z"/>
	<path d="M774.2,372.7c-1.8,3.1-3.6,5.5-4.1,8.5C769.5,376.8,770.8,373.7,774.2,372.7z"/>
	<path d="M769.2,370.6c-2.5,1.6-5.1,3-7.4,5.7C763.3,372.3,766.1,370.2,769.2,370.6z"/>
	<path d="M819.5,408.8c-1.9-2.6-0.1-4.5,0.1-6.4C819.9,404.4,820.3,406.3,819.5,408.8z"/>
	<path d="M759.4,371c0.4,2.3-0.5,4.1-1.4,6C757.8,374.5,758,373.5,759.4,371z"/>
	<path d="M805.7,382.1c-1.3-1.1-1.9-2.2,0-3.3C806.8,379.9,805.7,381,805.7,382.1z"/>
	<path d="M811.9,404.7c2,1.5,1.2,3,1.1,5.2C812.2,407.9,811.4,406.7,811.9,404.7z"/>
	<path d="M822.1,385.8c-0.3-1.4-0.6-2.8,0.7-4.2C823.8,383.4,822.3,384.5,822.1,385.8z"/>
	<path d="M787.8,377.6c-1-1.5-1-1.5-0.7-3C788.5,375.3,788,376.3,787.8,377.6z"/>
	<path d="M783.8,372.6c0.1,0.9,1.2,1.4,0.4,2.9C783.4,374.4,781.7,374,783.8,372.6L783.8,372.6z"/>
	<path d="M323.6,458.5c1.5-1.5,3.4-1.1,5.2-1.3C327.4,458.9,325.5,458.8,323.6,458.5z"/>
	<path fill="#FFFFFF" d="M423.8,596.7c-1.7-1.8-1.7-3.2,0-4.6C426.2,594,426.2,594.5,423.8,596.7z"/>
	<path fill="#FFFFFF" d="M418,591.7c1-0.1,1.7,0,1.5,1.1c-0.1,0.4-0.5,0.8-1,0.5C417.6,593,417.8,592.3,418,591.7z"/>
</g>
</svg>
