<?xml version="1.0" encoding="utf-8"?>
<!-- Generator: Adobe Illustrator 19.1.0, SVG Export Plug-In . SVG Version: 6.00 Build 0)  -->
<svg version="1.2" baseProfile="tiny" id="Layer_2" xmlns="http://www.w3.org/2000/svg" xmlns:xlink="http://www.w3.org/1999/xlink"
	 x="0px" y="0px" width="900px" height="600px" viewBox="144 97 900 600" xml:space="preserve">
<g>
	<path d="M819.7,319.2c-0.2,1.7-0.3,3.3-0.5,4.8c-0.5,1.3-1.7,0.5-2.3,1.2c0,2,1.8,1.7,3.2,2.3c-1.9,1.3-1.7,3.1-1.6,4.7
		c0.4,5.9-1.1,11.8-0.6,17.7c0.3,2.9-0.6,5-2.2,6.6c-5,0.6-8.8,2.9-12.9,4.8c0.7,1.5,1.8,2.5,2.7,3.6c2.8,3,5.4,6.1,6.7,10.2
		c0.5,1.6,1.5,3,2.5,4.4c2.3,3.4,4.9,6.3,9.6,5.7c0.4,0,0.9,0.1,1.3,0.2c0.2,0,0.4,0.2,0.7,0.3c-1,1.5-2.8,0.5-4.3,1.5
		c5.7,4.5,10.5,9.6,18.5,10.5c6.4,0.7,10.3-2.3,14.1-6.3c1.2-1.3,1.6-2.9,1.8-4.6c0.6-5.6,0.7-11.3,1.6-16.9
		c0.7-4.1-4-10.7-8.2-11.9c-0.8,2.2,0.3,3.8,2,5.5c-3.8-0.6-4-0.8-3.9-3.9c0.1-2,0-4,0-6c-3.1-1.1-6.6,0.8-9.9-2.4
		c4.8-0.3,9,0.4,13-1c4.7-10,5.5-20.8,6.8-31.6c1.5,3,2.3,6.2,1.1,9.4c-0.8,2.2-1.3,4.3-1.5,6.6c-0.2,3.4-0.8,6.7-2.5,9.8
		c-0.9,1.8-1.6,3.7-1.8,6.2c17.5,0.2,34.9-0.7,52.3-0.8c0.4-5.1,1.9-5.9,6.7-4.4c1.6,0.5,3.4,2,5.3,0.5c3.3,1.9,7.5,1,10.6,3.3
		c0.4,0.3,0.7,0.9,0.9,1.2c3.5-2.3,7.6-0.4,11.4-1.6c0.7-4.1,0.9-8.4,1.5-12.6c1.4-9.2,7-15.9,13.1-22.2c3.8-3.9,8.9-5.2,14.6-4.5
		c6.5,0.8,12.4,2.3,17.1,7.1c5.7,5.7,9.3,12.6,11,20.4c0.8,3.4,1.2,6.9,1.8,10.4c1,0.9,2.2,0.6,3.3,0.5c10.9-0.2,21.8-0.4,32.7-0.7
		c2.8-0.1,4.5,1.1,4.5,3.3c0,2.5-1.6,4-4.4,4.1c-10,0.3-20,0.5-30,0.8c-2,0.1-4.1-0.1-6.2,0.4c-1,2.9-0.8,6.1-1.4,9
		c-1.8,9.1-4.8,17.7-10.9,24.9c-1.8,2.1-4,3.6-6.5,4.8c-4.5,2.2-9.4,2.7-14.2,3.2c-6.1,0.6-10.8-2.7-15-6.7
		c-3.4-3.2-5.5-7.1-6.9-11.5c-2-6.4-3.6-12.9-4.2-19.6c-0.1-0.9,0.1-1.8-0.5-2.5c-3.9,0-7.6,0-11.7,0c7.1,7.2,6.1,15.3,2.7,21.8
		c-2.5,4.9-4.2,10.3-6.4,15.4c-1.3,3.1-2.4,6.3-3.3,9.6c-3.1,10.2-7.6,19.7-14.8,27.7c-2.5,2.8-5.5,5.1-8.3,7.6
		c-0.6,0.6-1.4,0.8-2.2,0.7c-2.9-0.5-6-0.7-8.5-2.3c-7-4.6-14.6-8.2-21.3-13.9c-3.2,4.5-6.8,8.5-11.1,11.9c-0.3,0.3-0.6,0.7-0.7,1.1
		c-3.3,9.8-11.4,15.5-18.8,21.8c-2.2,1.8-4.4,3.6-6.7,5.5c0.7,1.3,1.5,2.5,2,3.8c0.6,1.3,1.5,2,2.8,2.1c11,0.5,21.7,3.4,32.8,3.1
		c11.8-0.4,22.4,3.5,32.3,9.5c2.3,1.4,4.6,2.9,6.8,4.5c1.4,1,2.7,2.1,2.2,4.3c4.7,3.3,8,7.4,7.5,13.6c0,0.4,0.2,1.1,0,1.3
		c-3,2.7-2,6.3-2.2,9.5c-0.3,4.5-1.5,8.7-2.5,13c-0.9,3.5-1.7,7-1.8,10.7c-0.1,2.3-1.2,4.4-2.2,6.4c-1.9,3.8-3.5,7.8-6.1,11.3
		c-2.7,3.6-3.3,8.3-5.6,12.3c-5.2,9.2-9.8,18.6-12.5,29.2c6.2,1.8,2.5,6.8,3.1,10.1c4.6,6.7,12,9.9,17.2,15.5c1.5,1.7,4,2.1,6.2,2.6
		c3.7,0.9,6.4,3.4,9.3,5.5c1.3,0.9,1.7,2.5,1.1,4c-1.2,3.2-2.9,6.5-6.5,7.2c-6.1,1.3-12,3.3-18.4,3.3c-2.7,0-5.2-0.4-7.6-1.4
		c-6-2.6-12.7-3.2-18.8-6c-0.8-0.4-2.2-0.3-3,0.1c-3.5,2-7,1.1-10.6,0.4c-3.6-0.7-7.2-1.7-11.1-2.5c0.5-2.5,0.6-4.9,0.3-7.2
		c-0.2-1.2,0.4-2.2,1.1-3.1c2-2.7,3.3-5.9,5.4-8.7c1.3-1.8,1.3-4.3,0.6-6.5c-0.6-1.7-1.2-3.5-1.2-5.3c-0.1-1.3-0.3-2.8,1.6-3.5
		c1.1,0.8,2.3,1.6,3.5,2.5c0.5-1.7,1.3-3,2.8-3.6c1.1-8.7,4.1-16.7,6.4-24.9c1.9-6.6,2.8-13.3,2.8-20.1c0-2.6,0.1-5.2,0.2-7.8
		c0.2-8,3.1-15.2,6.9-22.1c1.1-2,2.4-3.8,2.9-6.3c-6.8,0.2-13.3,1.5-19.6,3.9c-3.1,1.2-6.3,2-9.5,2.6c-1.8,0.4-3.5,0.7-5.1,1.7
		c-1.9,1.1-4,1.5-6.2,1.3c-6-0.5-12-0.8-17.6-3.3c-3-1.3-6.4-1.3-9.7-1.8c-7.2-1.1-14.3-2.5-21.3-4.4c-0.3-0.1-0.7,0-1,0
		c-1.5,0.9-1.6,2.4-1.8,3.9c-0.4,3.8-1.8,7-4.9,9.4c-0.5,0.4-1.1,1-1.2,1.6c-1.2,4.6-3.2,8.9-4.1,13.5c-1.7,8.4-4.7,16.3-8.6,23.9
		c-1,2-2.2,3.8-3.9,5.1c-3.4,2.7-4.8,6.2-5.4,10.2c-0.9,5.5-2.8,10.8-3.5,16.3c-0.4,3.4,0.1,6.9-0.8,10.6c-1.4-0.5-1.5-1.6-1.5-2.5
		c-0.1-4.5-0.4-9.1,0.9-13.5c2.1-7,3.5-14.2,6.2-21.2c1.8-4.5,2.9-9.6,3.4-14.7c1.5,4.3-1.4,8.3-0.8,13.1c4.1-4.9,5.8-10.5,8-15.9
		c2.2-5.5,3.3-11.3,3.2-16.9c1.1-1.3,1.6,0.3,2.5-0.2c0.1-4.9,3.6-8.5,5.4-12.8c2.6-6.3,5.9-12.2,8.7-18.4c1.1-2.5,0.6-5.4,0.5-8.1
		c0-1.5-0.6-2.8-1.7-3.9c-5-4.9-8.9-10.5-11.8-16.9c-2-4.5-6.2-6.8-10.7-5.5c-6.8,1.9-13.6,4-18.8,9.6c-4.5,4.9-4.7,10.8-4.7,16.9
		c0,0.9,0.3,1.9,1,2.5c4.8,3.8,7.2,9.1,9.2,14.7c0.1,0.4,0.2,0.9,0.2,1.4c-0.9,1-1.8,2.1-1.9,3.7c0,0.7-0.6,1.6-1.2,2
		c-4,2.9-5.9,7.5-8.6,11.3c-4.7,6.7-5.3,14.5-4.8,22.2c1,13.4,0.2,26.8,0.3,40.1c0,1,0,2-0.4,3c-1.3,3.9-0.7,7.3,2.7,10.1
		c2.6-0.2,5.3-0.4,8-0.6c3.7-0.2,4.5,0.5,5,4.4c1.7-0.1,3.8-1.5,4.9,1c-1.3,3.7-1.2,3.7,0.4,9.4c0.8,3,2,5.9,4.5,7.8
		c3,2.2,4.3,5.6,5.6,8.6c1.4,3.4,1.8,7.4,1.3,11.2c-0.2,1.3-1.5,2-2.6,2.5c-2.5,1.1-5.1,1.9-7.9,1.9c-4.1,0-8.2,0-12.2-0.6
		c-1.7-0.2-3.4-0.3-5.1,0.1c-0.1,0-0.2,0.1-0.3,0.1c-3.8-0.3-7.3-1.6-11-2.4c-1.2-0.2-2.2-1.5-2.2-2.8c0.1-4.3-0.9-8.7,1-13
		c2.1,3.9,1.2,8.1,1.6,11.9c4.2,2,8.8,1.5,13.1,2.5c7.3,1.6,14.8,2.3,22.2,0.2c0.6-0.2,1.3-0.4,1.9-1.4c-1.9-1.8-1.5-4.3-1.4-6.7
		c0-1.7-0.3-3.1-1.8-4.2c-0.5-0.4-1.3-0.9-1.3-1.5c-0.2-4.3-4.7-5.4-5.9-8.8c-2.1,0.9,0.1,2.3-1,3.3c-3.5,1.8-7.1,2.1-10.8,1.3
		c-0.5-0.9,0.3-1.3,0.3-1.9c-1.5-0.4-3.4,0.4-4.6-1.3c0.6-1.5,2.2-1.2,3.3-2.2c-2-0.6-4.1,0-5.7-1c-0.7-1.1,0.6-1.4,0.5-2.2
		c-0.7-0.5-1.9-0.1-2.2-0.7c-0.8-1.1,0-1.3,0.3-2c0-0.7-1.6-0.3-1.3-1.4c0.6-2,12.3-2.4,17.4-0.5c0.2-1.7-0.5-3.4,0.7-4.7
		c-0.7-0.9-1.4-1.3-2.2-1.1c-1,0.7,0.3,1.5-0.2,2.2c-1.4,0.7-2.7-0.5-2.5-2.4c0.1-1,0.9-1.9,0.4-2.9c-2-0.3-7.6,0.3-10.7,1.2
		c-0.4,1.7,0.6,3.6-1,5.3c-3-1.1-5.6-3.7-9.2-3.5c-0.8,2.7-2,4.8-4.3,6.4c-1.5,1-2.4,3.1-1.6,4.8c1.4,2.8,0.7,5.3-0.3,7.9
		c-0.5,1.3-1,2.5-1.6,4c0.1,1.1,1.1,2.3,0.9,3.7c2.1,1,5.1,1,5.1,4.9c-2.1-1.1-4-1.9-5.9-2.3c-1.5-0.3-2.3-1.3-2.3-2.9
		c0-0.6-0.2-1.1-0.2-1.7c0.7-5.8,2.4-11.4,2.6-17.3c0-0.1,0-0.2,0.1-0.3c4.3-4.4,5.5-10.4,8-15.7c0.1-0.2,0.3-0.3,0.4-0.3
		c1.2-0.8,2.3,0.3,3.6-0.1c0.6-0.7,0.1-1.6,0.2-2.5c0.3-9.6,0.3-19.3,0.8-28.9c0.3-6.4-0.5-12.7-0.1-19c0.5-8.1,0-16.4,5.2-23.5
		c3.3-4.5,6.6-8.9,10.7-12.9c-0.7-4.3-3.9-5.9-7.5-7.1c-1.3-0.4-2.7-0.7-3.7-1.6c-4.9-4.5-9.2-9.5-11.8-15.7c-1.4-3.2-1-7-2.8-10.3
		c-0.6-1.2,0.1-2.6,0.4-4c1.1-4.4,1.5-8.8,0.1-13.4c-1.9-6.3-0.3-9.6,5.6-12.4c3-1.4,6.2-2.7,9.5-3.4c3.4-0.7,11.2-5.9,13.6-9
		c-3.4,2-6.7,2.4-9.1,4.8c-0.9,0.9-1.9,1.3-3.1,0.7c-0.1,0-0.2-0.1-0.3-0.1c-11.1,2.7-15.7-5.6-19.6-12.9
		c-4.2-7.7-6.7-16.2-7.1-25.3c-0.6-12.8-0.6-25.6-0.5-38.4c0-1.5-0.2-3-0.5-4.4c-0.5-2.3-1.7-4.3-4-5.1c-2.2-0.7-3.5-1.9-3.7-4.1
		c-5.4,0-10.5,0-16.2,0c0.5,4.7-0.4,9-0.8,13.4c-1,12.2-5.8,22.7-13.6,32.1c-3.5,4.2-8.5,5.6-13.2,5c-3.5-0.4-7.4-2.5-10.1-5.4
		c-1.4-1.5-2.9-3-4-4.6c-1.9-2.8-3.8-5.3-7.2-6.3c-1.6-0.5-2.8-1.9-3.3-3.8c0.4-1,0.8-2.1,1.2-3.1c0.8-2,0.8-3.7,0.1-5.9
		c-1.7-5.3-2.7-10.8-3.5-16.3c-0.2-1.1-0.2-2.3-0.7-3.2c-6.4,0-12.7-0.1-19.1,0c-12.1,0.3-24.3,0.7-36.4,1.1c-1.4,0-2.7,0.1-4.1-0.3
		c-3.2-0.8-4.8-2.8-4.6-5.7c0.2-2.7,2.6-4.9,5.6-4.8c15.7,0.2,31.3-0.7,47-0.7c3.6,0,7.2,0,11,0c0.4-5.8,1.4-11,2.5-16.2
		c1.9-8.4,5.8-15.7,11.2-22.3c1.3-1.6,2.7-3,4.9-3.4c1.4-0.2,2.1-1.6,2.8-2.8c6.1,0.1,12,0.8,17.3,4.1c0.6,0.4,1.1,0.8,1.5,1.3
		c4,4.8,7.3,10,9.9,15.7c3.1,7,4.4,14.2,5.1,21.7c4.7,1.1,21.8,0.4,24.5-1.2c0.8,1.4,0.8,3.8,3.6,3c1-2.4-0.9-4.1-2.3-5.1
		c-3.4-2.3-4.9,2.1-7.5,2.9c0.3-4.2,6.6-7.1,12.8-6.1c1.4,2.7,3.3,5.2,5.4,8.1c0.1-3.4-1.4-5.5-3.8-7.2c1.8-1.7,3.8-1.4,5.6-1.5
		c2.5-0.2,4.9,0.1,7.4-0.3c1.4-0.2,2.5,0.7,3.3,2c1,1.4,1.2,3.1,2,4.9c25.7-0.5,51.4-1,77.6-1.5c-1-3.8-0.4-7.1-0.1-10.5
		c0.1-0.7,0.3-1.6,0-2c-3.3-4.3-1.9-10.2-4.8-14.6c-0.2-0.3-0.4-0.7-0.3-0.9c1.4-3.4-1-6-1.7-9c-0.8-3.2-0.1-6.2,0.8-9.3
		c1.1-3.5,2.5-6.9,3.4-10.4c0.5-2,1.9-4,3.1-6.1c-0.2-0.8-1.6-1.3-1.6-2.7c2.4-1.2,3.7,0.6,5.2,1.8c3.6,0.1,6.2-1.7,8.2-4.1
		c1.9-0.3,0.9,1.7,1.8,2c1.5,0,1.4-1.8,2.9-2.3c3.6,0.2,7.6-0.6,11.6,0.2c1.5,0.3,3.2-0.7,4.8-1.1c1.8-0.5,3.5-0.8,5.1,0.5
		c1.4-0.4,1.9-2,3.4-2.5c0.9,1.8,0.5,3.6,0.5,5.7c1.7-0.6,3.2-2,5-0.8c0.2,2.2-2.1,1.8-2.9,3.2c1.4,0.2,2.7-0.5,4.1,0.2
		c0.5,1.1-0.3,2.3,0.1,3.4c-1.9,2.2-5.1,2.8-6.9,5.6c0.9,3.5,0.4,7.5,1.9,11.3c1,2.7-1.2,5.4-1.4,8.1c-2.1,1-4,1.4-5.8,1.1
		c-1.2,0.8-0.2,2.2-1.3,2.8c-1.2-5.2-0.8-5.8,7.3-9.8c-0.8-4.1-2.5-8.1-2.1-12.9c-4.7,1.9-8.8,0.3-13.1,0.1
		c-2.4-0.1-4.1,0.5-5.2,2.4c-1.2-0.6-1-2.6-2.6-2.9c-1.1-0.2-2-2.1-3.5-0.7c0.3,1.8,2,0.7,2.9,1.6c0.4,0.8,0.8,1.8,1.4,3
		c-1.5,1.4-2.6,3.1-4.8,2.6c-4.3,6.2-6.8,13-10,19.6C821,322.4,820.9,320.6,819.7,319.2L819.7,319.2z"/>
	<path d="M406.2,244.8c-3.3-0.2-8.8-4.7-9.4-8.2c-0.3-1.5-1-2.7-1.7-4c-3.3-5.8-6.7-11.5-10.1-17.6c-1.6,0.1-2.8,1.7-4.4,2.1
		c-0.3,1.6,0.6,2.6,1,3.7c1.1,3.2,2.4,6.3,1.6,9.8c-0.3,1.3,0.1,2.7,0.4,4c1.7,7,1.8,13.9-1.9,20.5c-1.1,1.9-1.3,4.3-2.1,6.5
		c-1.2,3.5-3,6.5-6.1,8.9c0.7,1.9,2.7,2.5,4.1,3.5c-0.9,3.3-2.1,3.3-7.6-0.1c-2.5,2.3-5.4,4.3-8.8,5c-1.3,2.8-1.7,5.4-1,8.5
		c1,4.4,1.9,8.8,4,12.9c2.3,4.7,1.8,9.4-0.3,14.3c-0.1-9.2-3.5-17.6-6.4-26.8c-1.7,4-3.8,7.3-6.4,10.2c-0.8,0.8-1.4,1.9-2.5,2.3
		c-5.7,2.1-9.6,6.8-14.4,10.1c-4,2.7-8.6,3.9-13.4,3.7c-1.1-0.1-1.9-0.6-2.7-1.3c-3.4-2.7-6.5-5.7-7.9-10c-0.9-2.6-2.1-4.9-3.8-7.2
		c-4.3-5.8-7.2-12.4-8.6-19.4c-1.8-8.7-2.4-17.5-2.1-26.3c0.2-5-1.1-9.9-1.6-14.8c-0.4-3.5-3.1-5.4-5.8-7.1c-1.6-1-3.4-1.9-2.3-4.3
		c-1.1-0.6-0.8,0.8-1.5,0.6c-1.1-1.1-0.6-2.7-1.4-4.6c-5.3,0-10.7,0-16.5,0c-0.1,4.9-1.1,10-2.1,15.1c-2.2,11.2-7.4,20.9-15.3,29.1
		c-3.7,3.8-8.9,4.9-13.5,3.9c-3.3-0.7-7-2.9-9.5-5.9c-1.2-1.5-2.5-3-3.5-4.6c-1.8-2.9-3.6-5.7-7-7c-1.6-0.6-2.7-2.1-3.1-4
		c0.3-0.5,0.5-1.2,0.8-1.7c1.3-2.5,1.6-4.8,0.8-7.7c-1.6-6.2-2.2-12.7-2.7-19.1c-2.5-0.6-4.9-0.6-7.3-0.6c-16.3-0.5-32.7-1-49-1.5
		c-1,0-2-0.1-3-0.4c-3.5-0.8-5.2-3.1-4.6-6.3c0.4-2.6,3-4.5,6.1-4.2c9.6,0.8,19.3,0.9,28.9,1.3c9.5,0.5,19,0.8,28.8,1.2
		c0.7-4.9,1.9-9.6,3.1-14.2c2.1-8.2,6.2-15.3,11.6-21.7c1.8-2.2,3.7-4.3,6.8-4.7c1.3-0.2,1.8-1.6,2.7-2.4c5.8,0.7,11.5,1.2,16.4,4.9
		c1.7,1.3,3,2.8,4.1,4.5c6.4,10,10.5,20.8,10.4,32.9c0,0.9-0.2,1.8,0.5,3c6,0.2,12.2,0.6,18.4,0.7c1.9,0,3.5-1.5,5.2-2.3
		c1.4-0.6,2.7-1.2,4.2-0.3c1.8,0.8,3.3,1.8,3.7,2.9c-0.4-1.1-1.8-2.2-3.7-2.9c0.3-1.2,1-2,2.4-1.6c1.1,0.3,2.2,0.5,3.2,0.7
		c2.7,1.6,4.8,3.4,4.5,7c-0.2,2.3,2.1,3.5,5.3,3.1c8.1-1,16.2,0,24.3,0c2.6,0,5.2,0.5,7.8,0.4c9.8-0.4,19.6,1.6,27,0.4
		c-12.8,0.6-27.9-1.1-43-1.3c-5.5-0.1-11-0.9-16.5,0.4c-3.4,0.8-4.5-0.6-4.8-4.1c-0.3-2.9-2.1-4.8-4.7-6c-0.2-0.4-0.4-0.8-0.9-1.8
		c3,0,5.6-0.1,8.2,0c1.7,0.1,3.3,0.4,5.1,0.1c2.2-0.3,4,1.3,4.6,3.6c0.2,0.9,0.2,1.8,1.1,2.7c5.2,0.2,10.6,0.5,16.1,0.7
		c14.9,0.6,29.7,1.2,44.6,1.9c2.5,0.1,4.7-0.6,6.6-1.5c1.6-0.1,1.6,1.6,2.7,1.7l-0.1-0.1c0.1,0.4,0,1,0.2,1.3c3,5.6,4.6,11.8,8.3,17
		c0.5,0.7,1,1.2,1.8,1.4c4,1.1,8,2.5,12.2,2.8c4.2,0.3,9.9,5.8,10.1,9.8c7.3,3.2,12.9-1.3,19.3-4.3c1.5-10.9,1-20.9-10.6-26
		c-1-4.2-0.9-8-0.7-11.8c-3.1-1.1-6.6,1-9.8-2.2c4.4,0,8.1,0,12.3,0c5.4-10.2,5.9-21.4,7.5-32.5c1.4,2.9,2.2,6.1,1.1,9.1
		c-1,2.6-1.6,5.2-1.6,7.9c0.1,4.1-2.3,7.3-3.3,10.9c-0.7,2.6-1.7,4.9-4.2,6.2c0,2.8-0.4,5.4,0,8c0.5,3,1.8,4.2,4.6,4.4
		c15.3,0.6,30.6,1.2,46.2,1.8c1.7-3,4.8-5.1,6.4-8c4-0.1,6.5,2.8,9.9,3.3c1.6,0.2,3,1.1,4.9,0.9c1.6-0.2,3.1,1.1,4,2.3
		c2,2.6,4.7,2.8,7.6,2.8c1.7,0,3.4,0.4,5.2-0.2c0.9-4.4,1.3-8.9,2.5-13.3c1.1-4.2,2.8-7.9,5.5-11.2c2.4-2.9,4.7-5.9,7.5-8.4
		c4.6-4.1,9.8-5.8,16.2-4.6c6.7,1.2,12.6,3.4,17.1,8.7c5.5,6.5,8.6,14.1,9.5,22.5c0.3,2.8,0.6,5.6,0.8,8.4c1.1,0.9,2.2,0.7,3.3,0.8
		c11.1,0.4,22.2,0.8,33.3,1.1c2.1,0.1,3.4,1.3,3.5,3.3c0.1,2.1-1.4,4-3.2,4c-2.7,0.1-5.5,0-8.2-0.1c-8.9-0.3-17.7-0.6-26.5-0.9
		c-0.9,0-1.8-0.3-2.8,0.3c-0.7,3.4-1.3,6.9-2.3,10.4c-2.3,8.3-5.7,15.9-11.7,22.4c-4,4.3-9.1,5.7-14.6,6.4c-0.7,0.1-1.4-0.1-2,0
		c-10.2,1.2-18-2.8-22.8-12c-3.5-6.6-4.6-13.9-5.4-21.3c-0.3-2.7-0.3-5.4-0.5-8c-1.8-0.6-3.3-0.5-5-0.3c0.1,0.5,0,1,0.2,1.4
		c2.4,3.6,1.8,7.3,0.6,11.1c-2.1,6.9-4.1,13.9-6.3,20.8c-0.9,2.6-1.8,5.4-4.1,7.3c-0.2-0.1-0.3-0.2-0.5-0.2
		c-1.1-1.1-0.6-2.3-0.2-3.5c2.2-8.2,4.5-16.4,7.3-24.4c0.5-1.6,1-3.3,1.1-5c0.1-3.2-1.4-5.1-4.5-5.7c-1.2-0.2-2.3-0.3-2.6-1.7
		c1-1.3-0.9-1.9-0.5-3.8c8.6-0.9,17.4-0.3,26.8,0.5c-8.9-0.9-17.1-1-25.4-0.8c-1.7,0-3.2-0.2-3.1-2.4c-0.1,2.3,1.8,3.9,2.4,6
		c-1.1,1.6-2.4,1.5-3.7,0.4c-1.7-1.5-3.5-2.8-5.4-4.1c-1.9-1.3-3.5-2.8-3.4-5.5c0-0.9-0.3-2.1-2.2-2.5c0.7,4.8,3.2,10-2.6,13
		c3.4,2.9,7.4,3.7,11.3,4.7c3.6,0.9,3.8,1.8,2.2,5.2c-2.9,6-6.4,11.7-9.4,17.6c-1,2-2.2,4.2-5.1,3.4c-0.3-0.2-0.5-0.4-0.8-0.6
		c-0.9-1.7,0-3,0.9-4.3c3.2-4.3,3.9-9.9,7.3-14.1c1.2-1.6-0.2-3-1.8-3.7c-2.1-0.9-4.2-1.7-6.2-2.7c-2-1-3.7-2-5.1-3.7
		c-1.7-2.1-4.3-2.4-6.8-2.4c-4.8-0.1-9.5,0-14.4-0.1c4.2,5.2,5.7,11.2,5.2,17.7c-0.1,1.8-0.4,3.4-2.8,3.5c-1.6-0.9-2.1-2.5-2.4-4.2
		c-0.6-3.3-1.3-6.7-2.4-9.9c-1-3.2-3.5-4.8-6.4-6c-0.8,2.8,1.8,5.2,0.3,7.8c-0.3,0.2-0.5,0.4-0.9,0.4c-1.6-1-2.1-2.6-2.7-4.2
		c-0.9-2.6-1.8-5.1-2.5-7.7c-1-3.5-3.4-5.2-7.4-5.7c4.1,4.6,3.7,10.3,5.2,15.4c1.4,4.5-0.7,7.9-4.8,10.4c-2,1.2-4,2.5-6.3,3.4
		c-3.9,1.4-7.7,2.1-11.8,0.4C415.6,246.8,410.6,246.5,406.2,244.8c2.4-2.8,5.7-1.1,8.6-1.6c-2-3.1-5.2-4.4-11.3-4.7
		c0.3,1.4,1.4,2,2.2,2.8C406.8,242.4,407.4,243.5,406.2,244.8z"/>
	<path d="M504.3,267.9c-1.9,12.7-7.4,23.5-16.7,32.3c-2.1,2-4,4-5.8,6.2c-1.9,2.4-3.8,2.8-6.6,1.6c-5.9-2.5-11.4-5.5-15.9-10.2
		c-2-2.1-4.5-3.8-7.3-5.3c-0.4,2.6-0.5,5-1.3,7.2c-2,5.8-3.9,11.6-6.4,17.1c-2.2,5-3.1,10.2-3.1,15.5c0,5.1-0.1,10.2-1.9,15.1
		c-0.9,2.4-1.1,4.9,0.2,7.4c-4.2,1.8-1.2,5.6-2.6,7.9c0.5,0.9,1.2,1,1.8,1.3c5,2.4,6.1,7,6.3,11.9c0.1,4.2,0.2,8.4,1.7,11.7
		c1.1,1.2,1.7,0.1,2.5,0.5c3.7,5,6.2,10.8,7.8,17c0.5,1.9,0.4,3.9,0,5.7c-0.6,2.6-0.1,5,1.2,7.2c2.8,4.6,3.8,9.6,4.5,14.8
		c1,7.4,3.6,14.5,5.6,21.7c1.4,5,1.5,5-3.1,7.5c1.2,5,1.5,10.1,1.2,15.3c-0.2,3.6,1.5,7.3,2.8,10.8c0.7,1.8,1.4,3.6,2.1,5.4
		c0.9,2.3,1,4.6,0.3,7c-1.5,5.9-2.5,11.7-1.9,18c0.9,8.1,0.4,16.3-0.5,24.5c-1.6,14.3-3.5,28.6-3.8,43c-0.1,5.6-1.1,11.2,0.4,16.9
		c8.5,4.8,15,11.9,21.2,19.3c2.7,3.2,5.5,5.9,10,6.2c2.2,0.2,4.5,0.8,6.1,2.6c1.3,1.5,2.5,3,2,5.1c-0.3,1.2,0,2.3,0.5,3.3
		c1.2,2.5,0.1,3.8-2.1,4.8c-4.3,1.8-8.7,3-13.5,2.6c-2.2-0.2-4.6-0.3-6.8,0c-7.8,1-15.4-0.3-22.4-3.1c-6-2.4-11.9-3.6-18.1-4.1
		c-1.3-0.1-2.7-0.3-4-0.5c-1.2-0.9-0.9-2.8-2.6-3.3c1.3-5.4,2-10.6,2.6-15.9c0-0.2,0-0.5,0.1-0.7c2-3.4,3.3-6.6,0.8-10.6
		c-0.8-1.2-0.3-3.6,2.1-4.1c2.6,4,2.6,4,6.6,2.1c0.7-9.1,0.1-18.2,2.2-27c-0.8,4.4-0.6,8.9-0.5,13.4c0.1,4.4,0.4,8.8,0.4,13.8
		c4.5-1.8,9.3-0.2,12.8-4.1c-2.6-12.1,0.2-24,0.5-36c0.3-9.5,2.4-18.9,3-28.4c0.4-5.4,0.9-10.9-0.3-16.3c-0.1-0.6-0.2-1.1-0.9-1.5
		c-2.5,1-3.8,3.6-6.4,4.6c1.6-2.9,3.8-5,6.8-6.7c-0.4-4.7,0.4-9.3,1.4-13.9c0.4-1.6,0.6-3.3,1.7-4.7c1.2-1.6,0.9-3.4,0.3-5.2
		c-0.9-2.6-1.7-5.2-2.8-7.6c-2.7-5.9-2-12.5-3.5-18.6c-0.4-1.5-0.4-3.1-1.1-4.8c-6.6,1.6-11.8,6.1-18.2,8.2
		c-6.3,2-12.5,4.6-18.8,7.4c1.4,2.3,2.6,4.5,4.8,6.1c4.4,3.2,7.5,7.2,7.6,13c0,2.8,1.9,5.1,2.9,7.6c0.5,1.2,1.4,2.3,0.8,3.9
		c-2.1-0.4-2.8-2.2-3.6-3.7c-1.6-3-2.9-6.2-3.4-9.6c-0.5-3.2-2-5.6-4.2-7.5c-3.1-2.7-5.7-5.8-8.2-9.1c-3.4-0.4-6.9,1.6-10.1-0.2
		c-0.2-1.7,1.3-1.8,1.7-2.6c2.4-1.9,5.4-2,8.3-2.7c8-2.1,15.8-5,23.5-8c5-1.9,9.7-4.4,14.7-6.3c4-1.5,4.3-2.6,3.3-6.8
		c-2.1-8.3-4.3-16.7-5.7-25.2c-0.3-2.1-1.1-3.9-2.2-5.7c-2.5-4.1-3.3-8.4-3-13.3c0.4-6.3-2.2-12-5.9-17c-2.7-3.7-5-7.4-7-11.5
		c-2-4-4.5-7.8-6.5-11.9c-1-2.2-3.4-2-5.4-2.4c-2-0.4-2.9-1.3-2.4-3.4c-0.4,0.4-0.9,0.7-1.4,1c-0.3,0.2-0.6,0.3-0.9,0.3
		c-2.5,1.7-5.9,1.5-8,3.9c-2.1,0-3.9-0.2-5.5-1.6c-0.9-0.9-2.3-1.3-3.5-1.3c-4.7,0.2-9.4-0.8-14.2-0.8c-7.7,0-15.6-0.1-22.7-3.8
		c-1.3-0.7-2.7-0.3-3.5-0.9c2.4-0.1,4.5,1.9,7.2,2.2c1.2,0.1,1.9,0.9,1.8,2.1c-0.1,1.2-0.9,1.8-2,1.9c-2.8,0.2-5.6,0.1-8.4-0.8
		c-3.7-1.2-8.3,2.9-7.9,6.7c0.5,4.4-0.1,8.7-1,13c-0.8,3.8-2,7.6-2.4,11.5c-0.1,1-0.4,2.2,0.2,2.8c2.2,2.2,1.5,5,1.7,7.6
		c0.2,2.8,0,5.3-2.6,7.6c-2.5,2.2-2.5,6-3.2,9.1c-0.5,2.4-0.9,4.9-0.3,7.4c0.1,0.5,0.3,1.2,0.1,1.7c-2.3,4.1-1,8.4-0.8,12.6
		c0.3,5.5-1.5,10.8-2.1,16.2c-0.6,5.4,0.5,6.6,5.8,6.1c3.2-0.4,6.4,0.1,9.4,1.2c8,3,16.6,2.4,24.8,3.8c2,0.3,3-0.7,3.1-2.6
		c0.1-1.9,0.3-3.8,0.6-5.7c0.3-2.6,1.2-4.8,3.2-6.5c3-2.5,4.6-5.9,5.9-9.4c1.7-4.9,3.5-9.8,4.8-14.9c0.8-3,2.2-5.7,4.5-7.9
		c0.9-0.8,1.9-1.5,3-0.8c1.4,0.8,1.1,2.1,0.4,3.3c-2.5,4.2-2.2,9.2-3.9,13.6c-0.6,1.6-0.2,3.4,0.3,5c1,3.4,2.2,6.7,3.6,9.9
		c2.4,5.2,3.2,10.9,4.4,16.4c0.4,2,0.1,3.6-2,4.5c-1.8-0.7-2-2.4-2.1-3.9c-1.1-9.1-4.7-17.5-7.7-26.5c-1.3,2.8-2.5,5.2-3.5,7.8
		c-0.9,2.2-2.1,4.3-4,5.8c-1.5,1.2-2.2,2.7-2.4,4.7c-0.3,3.3-0.7,6.5-1.1,9.8c-0.2,1.5-0.9,2.8-1.7,4c-2-0.3-3.3-2.1-5.6-2
		c-0.3,1.7-0.8,3.5-0.8,5.2c0.1,7.2-3,13.2-6.5,19c-1.5,2.6-2.6,5.2-3.6,7.9c-2.5,6.6-5.9,12.8-12,17.1c1.3-3.6,3.9-6.3,5.5-9.6
		c1.7-3.4,3.1-7,4.1-10.7c1.1-3.7,0.9-7.5,1.6-11.8c2.8,2.2,1,5.1,2.5,7.4c2.2-8.5,7.3-15.9,6.8-25c-4.5-0.9-9-0.8-13.5-1
		c-0.8,2.3-0.2,4.7-1,6.9c-4,1.2-6.7,4.9-11.5,5.8c1.4-5.2,6.5-5.2,9.7-8.2c0.1-1.3,0.2-2.9-0.2-4.6c-5.9-2.3-11.7-3.8-18.1-2.3
		c-0.5,0.9-0.9,2.1,0.1,2.9c3.6,2.8,3.3,6.7,2.9,10.5c-0.5,3.9-1.1,8.2-2.6,11.5c-2,4.4-2.5,9.1-4.2,13.4c-1.8,4.5-5.2,8-8.1,11.7
		c-3.4,4.4-6.6,9-9.4,13.8c-2.1,3.6-2.4,7.7-2.3,12c0.2,5.8,0.7,11.8-0.2,17.7c-1,6.7-0.2,13.7-1.5,20.3c-1.4,6.9-1.7,13.9-2.1,20.9
		c-0.1,2.2-1.3,4.4-0.9,6.9c1.3,0.8,2.6,1.6,3.9,2.3c1.8-0.6,2.6-1.9,3.1-3.3c3.5-1.5,5.9,2,9.7,1.8c-0.7-3.9,1.3-7.2,1.8-10.9
		c1.7-14.1,5.9-27.4,12.5-40c3.8-7.2,4.9-15.2,6.2-23.2c0.9-6,0.6-11.4-3-16.4c-0.5-0.7-1.1-1.4-0.8-2.9c1.6,0.8,2,2.3,2.7,3.6
		c0.7,1.3,1.5,2.5,2.2,3.7c1.3-0.2,1.2-2.2,2.7-1.8c-1.4,12.1-0.9,24.5-6.5,35.8c-1.5,2.9-2.8,5.9-4.3,8.9
		c-5.6,10.8-7.5,22.7-10.1,34.5c-0.6,2.7-1.1,5.3-1,8.1c0,0.6-0.2,1.2,0,1.7c3.1,6.9,3,15.2,8.5,21.1c0.9,1,1.7,2,3,2.7
		c1.1,0.5,2.1,1.3,3.1,2.1c5.4,4.1,6.5,8.2,3.5,14.6c-1.7,3.7-5.6,5.3-9.6,5.5c-8.2,0.4-16.3-0.5-24.5-0.5c-3.6,0-6.2-1.9-7.7-5.5
		c-4.4-0.4-9.1,0.3-13-3.2c0.4-1.9-0.3-4.1,2-5.4c-0.5-3.3,0-6.2,1.3-9.1c1.4-3.1,1.8-6.5,0.8-9.9c-0.8-2.6-0.4-5.1,0.4-7.8
		c2.2,0.8,2.6,2.5,2.6,4.3c0,5.7,1.1,11.5-2,17c-1,1.7-0.5,4,0,6c0.3,1.1,0.9,2.1,0.2,3.2c-1.3,1-1.7-0.7-2.6-0.9
		c-0.5,0.6-0.7,1.3-0.2,1.6c1.7,1,3.5,1.4,5.5,1.5c1.5,0,2.9,0.2,4,1.3c0.6-0.5,0.1-1.5,1.3-1.7c1.5,1.7,3.6,3.1,4.1,5.4
		c2.1,1.1,4,1.1,5.9,1.1c4.6,0,9.3,0.5,13.9,0.6c4.1,0.2,8.6,0.9,12.5-1.8c1.5-1.1,3-2.1,2.9-4.2c0-1.3,1.1-2.2,1.8-3.2
		c-1-3.8-3.6-6.1-7.2-7.9c-1.5,1.6-3.4,2.6-5.6,3.1c-0.9,0.2-1.8,0.6-2.5-0.3c-0.9-1.2,0.3-1.8,0.9-2.8c-2.2-0.1-4.6,1.4-6.1-1
		c-2.4,0.4-4.6,1.2-6.9,1.3c-2.2,0-2.9-0.9-1.9-3c-0.9-0.8-2.3,0.5-3.3-0.9c1.2-2.6,4.4-2.5,6.4-4.1c-2.4-0.2-4.6,1.4-7.3,0.3
		c2.3-3,5.9-3.3,9.3-5.1c-3.9,0.4-7.1,0.7-10.4,1c-0.1-0.3-0.1-0.5-0.2-0.8c4.6-3.6,10.4-3.1,16-4.1c0.7-2.9-0.9-5.4-1.6-8.2
		c-3,0.3-5.2-1.9-7.7-2.4c-4.1,2.4-4,6.3-4.4,10.2c-2.4-1.9-3.2-4.2-2.3-7c-1.7-2-4.4-1.7-6.3-3.1c-0.6,1.2-1,2.2-1.1,3.4
		c1.4,1,3.2,0,4.6,0.9c-0.9,3.2-6.4,2.8-11.5-0.8c0.4-1.9,2.2-1.2,3.2-1.7c1.6-1.6,0.3-3.7,0.8-5.4c1.7-1.6,3.1,0.3,4.5,0.1
		c1.1-7.4,2.2-14.7,3.5-22c0.6-3,0.3-6.1,0.2-9.1c-0.1-5.2,0.4-10.4,1-15.6c0.4-3.6,0.3-7.2-0.1-10.9c-0.9-9,1.5-17,6.7-24.6
		c3.6-5.4,7.8-10.3,11.6-15.5c3.2-4.3,3.9-9.5,4.7-14.7c0.6-3.9,1.2-7.8,2.3-11.7c0.5-1.8,0.9-3.7,2.4-4.9c-0.1-3.7-3.4-6.2-2.9-9.8
		c-1-0.3-1.9-0.5-2.7-0.9c-1-0.4-1.8-1.2-1.7-2.3c0.2-5.9-0.4-11.8,0.9-17.6c0.8-3.3,0.8-6.7,0.6-10.1c-0.4-5.6-0.1-11.3,1.1-16.9
		c0.8-4.1,0.9-8.4,2.5-12.2c2.3-5.4,2.3-10.9,2.2-16.6c-0.1-8,0.5-16.1,2.3-23.9c0.6-2.6,2.1-5.2,3.6-7.5c3.2-5,3.3-5,4.1-10.7
		c0.8-0.8,2,0,2.9-0.9c-0.3-1.2-1.7-1.7-1.9-3c-0.1-1.2,0.1-2.2,1.6-2.8c0.5,2.1,2,3.5,2.9,4.9c0.4,1.2-0.9,1.4-0.9,2.1
		c0.3,0.7,0.8,0.9,1.3,1.2c5,2.9,10.5,3.4,16.1,3.6c6.6,0.3,13.3,0.9,20.7,1.2c-1.6-1.5-2.6-2.4-3.6-3.4c1.9,0.1,3.2,1.2,4.4,2.3
		c1.2,1.1,2.3,1.6,3.9,1.7c1.8,0.1,3.6,0.3,5.4,0.5c3,0.5,5.7,0.7,8.1-1.9c1.4-1.5,3.8-1.9,6-2.6c0,1.5-1.7,1.3-1.9,2.7
		c4.3-1.9,9.2-2,11.8-4.9c2.5-10.5,3.5-20.2,2.6-30.3c-2.4-0.6-5,0.4-7.7-0.1c2.5-1.5,5.6-0.2,8.1-1.6c2.4-6.4,5.8-12.5,7.2-19.3
		c0.4-1.7,0.7-3.6,2.2-4.8c0.8-0.6,0.5-1.7,0.5-2.6c0.1-3.7,0.3-7.5,0.2-11.2c0-1.8,0.3-3.4,1.3-4.8c5.5-7.8,7.9-16.7,8.5-25.7
		c-3.3-6.3-6.4-12.3-8.7-18.6l0.2-0.2c1.6-0.7,2.6,0.2,3.3,1.4c1,1.6,2,3.3,3,4.6c1.2,1,2.6,0.1,3.3,0.9c3.3,8.3,4.5,16.6,1.3,24.9
		c-1.7,4.4-4,8.7-6.1,12.9c-2.2,4.4-1.8,7.1,2.1,10c2.5,1.9,5,4,7.2,6.3c2.8,2.9,6.4,4.4,9.8,6.1c2,1,3.6,0.7,5.2-0.9
		c6.2-5.9,11.7-12.4,16-19.8c1.7-2.9,2.4-6.1,3.2-9.3c0.4-1.6,0.8-3.3,1.7-4.8C501.6,267.5,502.7,266.7,504.3,267.9L504.3,267.9z"/>
	<path d="M388.5,214.2c-0.3-1.1,0.4-1.7,1.1-2.2c2.3-1.9,3.9-4.4,6.3-6.2c1.4-1,1.4-2.8,1.1-4.4c-0.5-2.4-0.5-4.7-0.1-7.1
		c0.3-2.5,0.6-4.7-1.2-7c-1.5-1.9-0.5-4.9-1.6-7.2c-0.6-1.4-0.8-3.1-1.6-4.4c-0.2-0.4-0.6-0.9-0.5-1.2c1.3-3.6-1.3-6.4-1.9-9.6
		c-0.6-2.8,0-5.5,0.8-8.3c1.1-3.7,2.6-7.1,3.5-10.9c0.5-1.9,1.7-4,3.3-5.9c-0.1-1.1-2-1.4-1.6-3c2.2-1,3.5,0.5,4.9,1.9
		c3.8,0.2,6.4-1.7,8.6-4.1c1.7,0.1,0.7,1.5,1.3,2c1.8,0.3,1.7-1.8,3.2-2.2c3.7,0.3,7.6-0.6,11.7,0.3c1.3,0.3,3.4-0.7,5.1-1.3
		c1.6-0.6,3.2-0.8,4.5,0.8c1.5-0.3,2-2.1,3.6-2.6c1.2,1.7,0.2,3.6,0.8,5.3c1.5-0.1,3-1.8,4.7-0.4c0.1,2.1-2.2,1.8-3,3.2
		c1.4,0.3,2.7-0.7,4.1,0.2c0.7,1.1-0.2,2.3,0.1,3.4c-2,2.2-5.1,2.7-6.9,5.6c0.8,3.5,0.4,7.5,1.8,11.3c1,2.7-1.1,5.4-1.5,8.1
		c-2,0.9-3.9,1.3-5.8,1.1c-0.8,0.9-0.5,2-0.8,2.8c-0.3-0.1-0.6-0.1-0.6-0.2c-1.1-3.9-0.9-6.3,7.4-9.5c-0.6-4.1-2.7-8.2-2-12.9
		c-4.7,1.6-9.1,0.2-13.4,0c-1.9-0.1-3.9,0.2-4.9,2.7c-1-1.3-1.3-3.4-3.4-2.8c-0.3-0.3,0.1,0.2-0.2-0.2c0-0.1,0,0,0.2,0.1
		c0.5,1.2,1.1,2.4,1.7,3.9c-1.7,0.9-2.5,3-4.8,2.3c-4.2,6.2-7,12.9-9.7,20.3c-1.4-1.8-0.6-3.7-2.2-4.5c-0.9,0.9-0.3,2.5-0.7,3.6
		c-0.5,1.1-1.7,0.6-2.3,1.1c0.1,1.7,1.6,1.7,3,2.1c-1.4,1.8-1.4,3.7-1.3,5.7c0.3,6.1-1,12.2-0.7,18.3c0.1,2.1-0.6,4-2.3,5.5
		C393.8,209.9,392.1,213.3,388.5,214.2L388.5,214.2z"/>
	<path d="M439.2,509.7c0.5,2.8,1.2,4.7,0.8,6.9c-1.3,7.2-2.4,14.5-3.7,21.8c-1.1,6.1,0.1,11.7,3,17c1.9,3.6,3.7,7.3,5.6,10.9
		c0.3,0.5,0.6,1,0.6,1.5c-0.1,7.3,0.4,14.6,0.6,22c0.2,4.6-0.9,9.3,0.7,13.8c0.4,1.1,0.7,2.8-0.9,3.5c-0.7,0.1-1.2-0.3-1.2-0.7
		c-0.4-3.1-2-6.1-1.7-9.3c0.5-5.7-0.1-11.3-0.3-17c-0.1-2.6,0.3-5.2,0-7.8c-0.9-6.7-3.8-12.6-6.5-18.6c-3.5-7.9-3.9-15.7-2-23.9
		c1.4-6.2,3.1-12.3,4-18.6C438.2,511,438.5,510.8,439.2,509.7z"/>
	<path d="M378.8,341.6c-5.1,0.3-10.1-0.6-15.1-2.1c-0.5,1.7,0.5,3.1,0.2,4.6c-0.3,1.3-0.6,2.7-1.9,3.4c-2-4.9-1.6-9.8,1.2-15
		c-1.5-2.1-0.3-4.7-0.9-7.2c-0.4-2-0.9-4-1.4-6c-0.6-2.2,0-3.6,1.4-5.1c1.7,1.2-0.3,2.2,0.2,3.2c0.8,1.3,1.6,2.7,2.5,4.2
		c6.5,1.2,13.2,1.4,19.9,1.6c6.5,0.1,13,0.5,19.6,0.6c-13.1,1.3-26.3,1.7-39.5-0.2c-0.6,3.1-1.2,5.7,0.9,8.1
		c1.8,0.4,3.7,0.7,5.9,1.2c-2.1,0.6-4,0-6,0.3c-0.8,1.4-1.6,2.8-2.5,4.4c4.3,1.8,8.6,2.4,12.8,3.2C376.9,341,378,340.8,378.8,341.6
		L378.8,341.6z"/>
	<path d="M444.9,497.9c0.7-2.2,1.9-2.4,3.2-2.4c1.9,0.1,3.8,0.4,5.7,0.9c3.4,0.9,3.4,0.9,6.3,0.1c-0.2,1.3-1.1,2-2,3
		C453.9,498.9,449,501.7,444.9,497.9z"/>
	<path d="M423.2,166c-2-1.2-4-0.3-5.2-1.5c-1.6,0-2.4,1.7-4,1.2c2.1-2.5,9.7-3.7,12.4-1.8c0.9,0.6,1.3,1.5,1.1,2.8
		c-1.6,0-3,0.5-3.4,2c-3.1,0.6-5.8,0.2-8.6-0.5C417.6,166.4,420.4,166.8,423.2,166z"/>
	<path d="M834.6,317.2c2.2-1.6,5-1.5,8.1-2.3c-3.6-0.9-6.6-1.8-9.7,0.1c4-4.6,12-4.2,13.7,0C843.2,318.5,839,318.3,834.6,317.2z"/>
	<path d="M332.3,565.8c1.5,2.6,1.7,5.3,1.3,8.1c-0.4,2.7-1.5,5.4-0.3,8.9c-2.6-1.4-2.6-3.2-2.8-4.7c-0.3-2.8-0.5-5.6-0.7-8.4
		C329.6,567.9,330.1,566.4,332.3,565.8z"/>
	<path d="M449.8,536.5c-1.6-3-2.3-5.8-1.2-8.9c1-2.9,0.7-6,0.2-9c-0.1-0.6-0.7-1.2,0-2.1c2.1,0.7,2.4,2.7,2.1,4.2
		c-0.8,4.1,0.2,8,0.4,12C451.5,534,451.5,535.3,449.8,536.5z"/>
	<path d="M404.2,190.8c3.3,2.4,7,4,9.4,7.1c-0.2,0.3-0.4,0.6-0.6,0.9c-3.9-2.8-7.8-5.5-11.8-8.4c0.9-3.3-2.9-6.7,1-10.5
		C401.7,184.1,402.9,187.4,404.2,190.8z"/>
	<path d="M832.1,347.7c-3.9-2.8-7.8-5.5-11.7-8.2c0.6-3.4-2.6-6.7,0.6-10.5c0.2,3.5,0.7,6.2,1.7,9c0.5,1.4,1.2,2.3,2.4,3
		c2.8,1.7,5.5,3.4,7.7,5.8C832.5,347.1,832.3,347.4,832.1,347.7z"/>
	<path d="M335.4,546.7c-1,6-1.8,12-0.9,18.1c-0.5,0-1,0-1.6,0c-0.8-3-2.1-6.3-0.6-9.1C333.9,552.8,331.9,549.1,335.4,546.7z"/>
	<path d="M767.2,506.6c0.3,1.5-0.9,2.3-1.2,3.4c-1,2.8-1.8,5.4,0.8,8c1.8,1.9,2.9,4.5,2.4,7.4c-1.4,0-1.4-1.2-1.8-1.9
		c-1.2-2.4-2.3-4.8-3.6-7.2C762.2,513,763.6,508.7,767.2,506.6z"/>
	<path d="M346.4,520.3c0.9,3.1-0.9,6-0.7,9.3c3.6,2.8,4.4,7.8,7.5,11.3c-2.5-0.5-3.4-2.5-4.4-4.4c-1-2-1.6-4.3-3.5-5.7
		c-0.3-0.2-0.6-0.8-0.6-1.2C344.6,526.4,345.4,523.3,346.4,520.3z"/>
	<path d="M749.7,548.5c1-6.3,3.2-12.1,5.4-18.5C756.4,532.6,753.1,543.4,749.7,548.5z"/>
	<path d="M748.3,561.9c-2.3,6.5-1.9,13.4-3,20.1C743.9,573.9,745,566,748.3,561.9z"/>
	<path d="M379.3,273.5c2.6-0.2,3.5,2.4,5.7,3.2c2.8-2.1,4,1.2,5.9,2.4c-3.2-1.3-6.7-0.5-9.7-2C379.9,276.4,378.2,275.7,379.3,273.5z
		"/>
	<path d="M448.8,552.1c0.4-4.6-1.5-9.1-0.6-13.8c2.5,1.8,1.1,4.5,1.7,6.7C450.6,547.4,451,549.8,448.8,552.1z"/>
	<path d="M813.4,374.3c6,3.1,13.4,1.6,19,5.8C826.2,377.5,819,378.4,813.4,374.3z"/>
	<path d="M778.1,503.8c3.2-0.8,4.3,1.9,5.7,3.7c2.2,2.8,1.7,7.5-0.9,9.8C785.3,511.3,782.9,507.1,778.1,503.8L778.1,503.8z"/>
	<path d="M747.7,641.4c3,0.3,5.7-0.4,8.2-0.9c1.2,1.4,0.6,2.2-0.5,2.8C753.1,644.6,749.9,643.8,747.7,641.4z"/>
	<path d="M852.1,342.4c-3.4,1.5-4.6,1.6-7,0.2C846.9,339.3,849.5,339.2,852.1,342.4z"/>
	<path d="M434.5,189.2c-4.1,0-8,1.3-12.3,0.4c1.1-0.9,9.5-2.2,11.2-2C434.2,187.7,434.8,187.8,434.5,189.2z"/>
	<path d="M349.7,503.7c0.6,2.3,0.1,4.4-0.3,6.5c0.6,1.8,2.9,3.6,0.3,6.5c0.3-3.8-1.9-6.3-2-9.4C347.6,505.7,347.5,504.2,349.7,503.7
		z"/>
	<path d="M433.1,193.5c-2.6,1.2-4.8,1.5-7.2,0.5c0.3-1.6,0.9-2.7,2.5-2.8C430.1,191.1,431.9,191.1,433.1,193.5z"/>
	<path d="M841.8,337.5c4-0.2,7.9-1,11.9-0.2c-3.9,1.4-7.8,1.9-11.8,1.6C841.9,338.4,841.8,338,841.8,337.5z"/>
	<path d="M427.5,232.7c3.2-1.8,6.2-4.4,10.4-3.1C434.3,230.2,431.5,233.3,427.5,232.7z"/>
	<path d="M328.9,599.7c-0.1,2.8,1.8,5.5,0.4,8.5C326.6,606.1,326.5,603,328.9,599.7z"/>
	<path d="M365.9,315c3.8-1.1,7.7-0.3,11.5-0.1C373.6,315.4,369.8,315.9,365.9,315z"/>
	<path d="M417.4,233.8c-4.4-0.4-8.8-0.8-12.9-2.4C408.9,231.5,413.3,231.8,417.4,233.8z"/>
	<path d="M836.1,374.2c-2.4-2.3-3.4-5.2-3.6-8.5C835,368,835.8,371,836.1,374.2z"/>
	<path d="M358.4,513c-2.9-2.8-3.3-5.3-1-8.3C357.8,507.7,358.1,510.2,358.4,513z"/>
	<path d="M404.6,195.2c2.7,2.8,4.1,6.4,6.7,10.1C408.2,203,405.1,198.3,404.6,195.2z"/>
	<path d="M763.6,535.5c-2.4-2-4.7-4.1-5.5-7.3C761.3,529.5,762.2,532.7,763.6,535.5z"/>
	<path d="M417.5,279.5c1.1-3,3.3-4.8,6-6.1C421.8,275.7,420.6,278.6,417.5,279.5z"/>
	<path d="M412.1,336.5c3.2,0,6.4,0,8.7,0C417.5,337.4,415.7,337.5,412.1,336.5z"/>
	<path d="M824.1,344.1c2,3.3,4,6.6,6,9.8c-0.2,0.1-0.4,0.3-0.6,0.4c-2.6-2.9-4.4-6.3-6.4-9.6C823.5,344.5,823.8,344.3,824.1,344.1z"
		/>
	<path d="M758,505.2c0.9-2.7,3.3-4.2,5-6.2C763.2,502.7,760.3,503.7,758,505.2z"/>
	<path d="M460,513.8c-1.2-2.3-4.1-3.7-3.2-6.9C457.4,509.5,460.9,510.6,460,513.8z"/>
	<path d="M744.7,604.2c-1.4-3.6-0.4-7.2,0.2-10.9C746.1,596.9,744.6,600.6,744.7,604.2z"/>
	<path d="M778.2,503.8c-3.4-2.1-5.2-5.2-6.1-9C773.9,497.9,776.7,500.4,778.2,503.8L778.2,503.8z"/>
	<path d="M416,223.2c2.7,2.1,2.3,4.7,2.9,7.1C416.8,228.7,416,226.9,416,223.2z"/>
	<path d="M853.5,330c-1.7,2.5-4.2,0.2-5.2,2.2c-1.2-1.1-0.9-1.8-0.1-2.2C849.8,329.3,851.5,328.9,853.5,330z"/>
	<path d="M752.6,516.8c2.4,2.3,1.6,4.7,1.8,6.9C752.6,522,752,519.9,752.6,516.8z"/>
	<path d="M428,269.3c2.8,0.4,2.9,3.3,5.4,4.8C429.6,274,428.3,272.6,428,269.3L428,269.3z"/>
	<path d="M428.5,182.8c1-2.6,3.1-3.1,5.5-1.4C432.5,183.2,430.2,181.8,428.5,182.8z"/>
	<path d="M447.7,246.9c-1.2,1.5-2.7,2.4-4.9,2.2C443.7,246.3,445.8,246.8,447.7,246.9z"/>
	<path d="M459.1,504.6c0.2-1.9-0.2-4,1.4-5.7C461.6,500.7,461.5,501.4,459.1,504.6z"/>
	<path d="M329.6,590.5c0.9,3.2,0.9,3.2,0.5,5.1C328.1,593.7,328.1,593.3,329.6,590.5z"/>
	<path d="M363.6,350.2c2.2-0.4,4.1,0.6,6.8,1.1C367.4,352.3,365.4,351.5,363.6,350.2z"/>
	<path d="M397,280.5c-1.8-0.2-3.7,0-4.8-2.2C394.8,277.4,395.7,279.4,397,280.5z"/>
	<path d="M336.4,544.6c-1.7-2-1.3-3.7-0.2-5.5C337.1,540.7,337,542.4,336.4,544.6z"/>
	<path d="M428,269.2c-0.4,0.1-0.8,0.2-1.4,0.3c-0.4-1.9-0.2-3.3,1.5-4.5C429.2,266.7,428,268,428,269.2L428,269.2z"/>
	<path d="M420.1,234.4c1.4-1.5,2.6-1.3,4.6-0.3C422.9,234.7,421.8,235.9,420.1,234.4z"/>
	<path d="M841.7,382.1c2.5-0.9,4.6-1.6,7.1-2.5C846.4,382.4,845.4,382.8,841.7,382.1z"/>
	<path d="M414.7,215.7c-2-1.6-1.5-3.5-1.8-5.1C414.4,211.8,414.5,213.4,414.7,215.7z"/>
	<path d="M423.5,209.5c0.2-1.9,1.5-2.8,2.6-3.8C426.6,208,424.4,208.3,423.5,209.5z"/>
	<path d="M370.4,484.9c1.7,0.7,1.8,2.2,2.8,4C370.8,487.7,369.8,486.7,370.4,484.9z"/>
	<path d="M832.2,359.7c1.3,1.3,1.3,2.9,2,5C831.8,363.1,832.4,361.2,832.2,359.7z"/>
	<path d="M842.5,358.5c0.3-1.7,1.5-2.7,2.9-4.3C845.7,356.9,843.8,357.5,842.5,358.5z"/>
	<path d="M456.4,534.6c-0.3-1.7-1.5-3.8,1.5-5.2C456.8,531.4,457.2,533.1,456.4,534.6z"/>
	<path d="M362.6,513.5c-0.4-1.7,0-2.7,1.4-3.8C364.7,511.5,364.3,512.5,362.6,513.5z"/>
	<path d="M433.6,274.8c2.2,0.6,3.1,1.6,3.8,3.1C435.9,277.4,434.6,276.9,433.6,274.8z"/>
	<path d="M428.9,354.8c1.2-2.5,1.2-2.5,4-2.9c-0.3,1.1-1.2,1.1-1.9,1.5C430.3,353.9,429.6,354.4,428.9,354.8z"/>
	<path d="M766.5,531.9c-0.7-1.9-1.1-3.1,0.9-3.9C767.9,529.6,767.5,530.5,766.5,531.9z"/>
	<path d="M329.6,584.8c1.3,1.4,1.6,2.4,1,3.7C329.3,587.2,329.3,587.2,329.6,584.8z"/>
	<path d="M462.2,493.7c0.3-1.4,0.8-2.6,2.6-3.3C464.3,492.2,463.6,493.2,462.2,493.7z"/>
	<path d="M358.3,514.3c1.8,0.4,2.6,1.5,3.8,3.1C360.2,516.7,358.8,516.4,358.3,514.3z"/>
	<path d="M423.5,240.1c1.9-1.2,3.1-1.4,4.8-1.4C426.9,240.1,425.7,240.4,423.5,240.1z"/>
	<path d="M404.2,328.2c0.9,0,1.7,0,2.6,0c0,0,0,0.1,0,0.1c-0.8,0-1.6,0-2.5,0C404.3,328.3,404.2,328.2,404.2,328.2z"/>
	<path d="M763,562c-0.7-1.3,0-2.2,0.7-3.5C764.1,560.1,764.1,561.1,763,562z"/>
	<path d="M756,505.6c0.5,1.3,0,2-1.2,2.6C754.4,506.8,754.7,506.1,756,505.6z"/>
	<path d="M449.8,556c0.5,0.8,0.3,1.4-0.4,2C449.2,557.2,448.9,556.6,449.8,556z"/>
	<path d="M338.6,533c0.5,1.5,0.5,2.5-0.8,3.5C337.8,535.2,337.5,534.1,338.6,533z"/>
	<path d="M378.8,341.7c0.5,0,1.1,0,1.7,0C379.8,342.4,379.3,341.7,378.8,341.7L378.8,341.7z"/>
	<path d="M831,385.4c0.3,0,0.5,0,0.8,0.1c0,0,0,0.1,0,0.1c-0.3,0-0.5,0-0.8-0.1C831,385.5,831,385.4,831,385.4z"/>
	<path d="M364.4,517.9c-0.5,0.3-0.8,0.1-1-0.2C363.8,517.3,364.2,517.3,364.4,517.9z"/>
	<path fill="#FFFFFF" d="M818.3,469.9c-3.6,0.6-6.5,2.9-10.1,3.8c-5.1,1.2-9.6-0.2-14.2-1.5c-1.7-0.5-3.8-0.8-5-2.7
		c1.4-1.1,3,0.7,4.7-0.5c-2.8-1.1-5.3-1.7-7.5-0.5c-4.2-1-7.3-3.3-10.6-5.8c1.4-0.9,3-1.3,4.5-1.9c-2.4-0.3-4.8-0.4-6.9,0.7
		c-7.7-3.7-13-9.3-15.4-18c0.4-0.7,1.3-1.6,2.8-2.5c1.7,5.6,6.2,9,10.7,13.5c-2-4.4-4.1-7.9-5.4-11.7c-1-0.6-1,0.8-1.7,0.7
		c-2.2-3.8-2.2-3.7,0.4-7c0.6-0.8,1-1.7,1.6-2.6c0.5-0.7,0.7-1.7,1.8-2.1c1.6,6,4.2,11.4,8,16.3c0.2,0.1,0.4,0.1,0.5,0.2
		c0-0.2-0.1-0.4-0.1-0.5c-2.9-5.7-6.8-11.1-7.6-17.9c1.4-2,2.8-4.1,4.3-6.2c1.5,0.6,1.5,2.4,2.9,2.8c0.1-0.1,0.2-0.3,0.2-0.3
		c-2.9-3.9-1.3-7.8-0.2-11.9c0.5-1.8,2-3.9,0.2-5.9c-1.4,0-1.7,1-1.9,1.8c-0.3,1-0.8,2-0.7,3c0.6,6-3.1,9.9-6.3,14.2
		c-3.7,5-7.3,10.1-12.1,14.2c-2.7,2.3-5.4,4.4-8.7,5.8c-2,0.9-3.7,2.1-5.3,3.7c-3.5-0.1-7.1-0.4-10.5,0.2c-5.2-4.2-8.3-9.7-10.3-16
		c-2-6.2-4.8-12-4.6-18.7c0.1-6-0.2-12-0.1-18c0.2-6.1-0.1-12.3-0.3-18.4c-0.2-6.3-0.4-12.7-7.1-16.5c3.7-0.9,7.1-1,10.6-0.5
		c1.8,0.2,3.6,0.7,5.3,1c0.8,0.1,1.8,0.4,2.3-0.2c2.2-2.2,4.8-1,7.5-1.4c0,2.6-0.9,4.8-2,6.5c-1.3,2.1-1.5,4.1-0.8,6.1
		c2.2,6.7,1.8,14,4.1,20.6c1.7,5,2.3,10.4,4.7,15.2c1.6,3.2,1.3,6.9,1.9,10.3c0.4,2.3,0.8,4.7,1.3,7c0.3,1.2,0.5,2.4,1.8,3.1
		c1.4-1.1,1-2.5,0.8-3.8c-0.5-3.7-0.9-7.5-1.7-11.1c-1.2-5,0.5-8.9,4-12.4c4-4.1,8.1-7.9,14-8.9c-0.8-2.7-0.8-2.7-6.4-0.6
		c-0.5-15.4,17.2-32.4,33.9-27.8c1.1-0.1,1.1-1.4,2.3-1.6c1.6,3.9,3.2,7.8,4.8,11.8c-1.7,1-3.6,0.6-4.9,2.1c1.9,0.8,3.6-0.4,5.6-0.3
		c0.1,2,0.7,3.9-0.5,5.7c2.5,2.2,0.7,4.8,0.5,7.1c-0.5,4.9-1.8,9.6-4.2,13.9c-2,3.7-4.9,6.4-8.5,8.5c-4.7-11.5-8.8-16.8-13-16.1
		c3.7,5.7,7.4,11.1,10.7,16.9c-2.2,1.9-5.1,2.8-6.9,5.1c0.9,1.4,2.3,0.6,3.4,0.8l-0.1,0.1c1.2-1,2.3-2.1,4.3-2.4
		c6.2,4.1,12.9,7.7,21.1,9.2c-6.3-3.6-12.8-5.9-18.8-10c6.9-4.1,10.9-9.9,13-17.1c1.3-4.4,2.2-8.9,2.1-13.4
		c-0.1-5.1-1.9-9.9-3.8-14.7c-1.2-3-2.5-6-3.8-9c1.7-1.4,3.9-0.8,5-2.6c1.4,2.4,3.6,3.6,5.2,5.3c2.8,2.9,5.3,5.9,6.8,9.7
		c0.8,2.2,2,4.3,3.6,6.1c4.7,5.2,9.6,10.3,15.2,14.6c3,2.3,6.5,3.7,10.4,3.8c5.9,0.2,11.5-0.4,15.9-5.1c2.5-2.7,4.3-5.4,4.3-9.2
		c0-3.4,0.5-6.8,1.2-10.1c1.3-6-1.2-11.1-4.5-15.9c1.5-0.8,2.4-0.3,3.2,0.9c2,3.2,3.5,6.7,3.9,10.4c0.9,8.4,2.9,16.4,6.3,24.1
		c1.3,2.9,2,6.1,1.2,9.3c-0.9,3.5-0.9,7.2-2.3,10.6c-3,7-7.9,12.6-13.5,17.5c-1.5,1.3-2.7,2.7-3.1,4.7c-0.4,2.2-1.4,4.1-2.8,5.8
		c-3.1,3.7-6,7.6-10,10.4c-5.8,4.1-11,9.1-17.5,12.3c-1.7,0.9-2.8,2.3-2.5,4.4c0.1,0.2,0,0.4-0.2,0.4
		C818.4,470.4,818.2,470.3,818.3,469.9z"/>
	<path fill="#FFFFFF" d="M874.4,604c-4.3-1.4-9-0.7-13.6-2c-0.1-5.1,1.8-9.7,3.1-14.5c3.1-11.1,6.5-22.2,5.6-34
		c-0.2-2.5,0-5,1.3-7.3c0.5-0.9,0.7-1.9,0.9-2.9c1.6-6.6,3.8-13,7.4-18.9c0.6-1,1.2-2,1.4-3.1c0.3-1.7,1.1-2.9,3-3.5
		c-3.9-0.5-7.7-0.8-11.6-0.4c-7.4,0.9-14.2,3.9-21.3,5.7c-2.8,0.7-5.7,1.4-8.7,2.1c-2.6-3.3-6.5-4.8-9.8-7.1
		c-1.2-0.9-1.8-1.7-2.2-3.2c-1.2-5.5-0.3-10.4,3.6-14.5c2.2-2.3,4.5-4.5,6.7-6.8c0.9-1,2.1-1.2,3.3-1.5c2.3-0.5,4.7-0.6,6.7-2
		c-0.3-1.4-1.8-1-2.4-2c2.9-3.4,5.8-7,9.6-9.4c4.2-2.7,9-3.2,14-2.8c11.6,0.9,21.5,5.8,30.5,12.7c3,2.3,5.9,5,8.5,7.8
		c2.5,2.8,3.7,5.9,1.8,9.6c-2.5,4.8-1.7,10.2-2.6,15.3c-1.2,6.9-3.1,13.7-4.2,20.6c-0.3,1.8-1.6,3.5-2.6,5.1
		c-4,7.1-7.2,14.6-10.7,22c-4.3,8.9-8.7,17.7-11.3,27.2c-0.7,2.5-0.7,5.4-3.3,7.1C876.5,604,875.6,605.3,874.4,604
		c0.5-0.9,0.6-1.9,0.9-2.6C875.1,602.2,874.8,603.1,874.4,604z"/>
	<path fill="#FFFFFF" d="M833.3,494.4c-0.1,1.3-1,1.6-1.5,2.2c-5.4,6.1-6.1,13.1-4.5,20.7c0.4,1.9,1.9,3,3.6,3.9
		c2.9,1.5,5.8,3.1,8.5,4.5c0,1.4-0.7,1.7-1.6,1.6c-5.4-0.2-11-0.2-16.1-2.2c-4.3-1.7-8.7-2.5-13.2-3.1c-6.5-0.9-12.9-2.6-19.8-3.2
		c4-5.3,4.2-10.9,3.4-16.7c13.5-0.8,25.2-7,37.5-11.5c3.7-1.4,7.3-3.1,10.9-4.7c-6.9,0.9-13,4.4-19.5,6.5
		c-5.9,1.9-11.8,4.1-17.7,6.2c-1.8,0.6-3.7,1.1-5.6,1.5c-5.8,1.2-7.5,0.4-10.3-4.9c-1.3-2.6-3.8-4.2-5.6-6.4
		c-1.1-1.3-1.7-2.8-2.6-4.2c-3.1-5-5.3-10.9-11.4-13.6c-1.4-0.6-1.3-0.7-3.4-0.3c0.6,2.1,2.7,2.5,4.4,4.2c-3.3,0.6-6.3,0.3-9.1,1.6
		c-4.8,2.3-9.5,4.7-13.8,7.8c-6.2,4.4-8.2,10.9-7.3,18.3c0.3,2.7,2.3,4.8,3.5,7.2c1.5,3,2.9,6.1,4.1,9.3c-2.8-1.5-3.4-4.5-4.7-6.9
		c-1.7,0-1.3,1.4-2,2.3c-1-1.1-1.9-2.3-2.9-3.4c-4.8-5.1-8.7-10.7-10.8-17.5c-0.4-1.3-0.3-2.4,0.1-3.6c2.2-7.2,6.4-13.7,7.6-21.2
		c0.4-2.5,2.2-3.6,4.6-3.7c3-0.1,5.9,0,8.5,1.5c3-2.3,5.5-0.1,8.8,0.6c-2.1,0.7-3.8,0.5-5.3,1.7c3.3,0.3,6.3-0.1,9.3,0.4
		c1.4,0.2,1.9-0.9,2.4-2.2c-5.3-1.7-10.4-3.6-15.7-4.6c-2.7-0.5-5.9-0.6-9-0.2c-3.9,0.4-6.6,2.3-7.9,6c-0.4,1.2-0.8,2.3-1.2,3.6
		c-2.4-3.6-2-5.9,1.5-7.9c4.8-2.8,10.1-4.4,15.3-6.4c4.2-1.6,7.7-4.1,9.8-8.4c0.7,0.5,1.2,1,1.4,1.9c-2.4,0.3-3.5,2.3-4.9,3.8
		c-0.6,0.7-1.2,1.4-0.6,2.4c0.4,0.6,0.8,0.6,2.9-0.3c-1.2,2.9,0.7,4.1,2.6,5.2c4.7,2.9,9.9,4.6,15.1,5.9c1.4,0.3,2.5,0.9,3.6,1.9
		c2.3,2.1,4.5,4.1,8.1,3.3c1.7-0.4,2,1.4,2.7,2.6c2.9-0.4,5.6,0,8.2,1.5c1.3,0.8,3,1.4,4.1-0.9c2.3,1.6,5.5-0.5,7.7,1.9
		c3.2-2.7,7.2-3.1,11.1-3.3c4.4-0.3,8.9,0.2,12-3.7c3.7,1.7,7.5,1.5,11.2,1.8c5.2,0.3,10.3,1.4,15.7,2.5
		c-5.6,3.9-8.8,10.6-15.8,12.8c-0.7,0.2-1.6,0.3-1.8,0.9c-0.9,3.8-4.3,3.9-7,5c-8.5,3.7-16.1,8.8-23.7,13.9
		c-3.4,2.3-6.7,4.7-9.1,8.1c5.5-4.2,11.1-8.1,16.9-11.8C820.7,500.9,826.6,497.3,833.3,494.4z"/>
	<path fill="#FFFFFF" d="M953,348.7c-3.7,0-7,0-10.2,0c-0.4-14.4,5.4-25.9,16.1-34.9c2.2-1.8,4.9-2.8,7.9-2.5
		c1.8,0.2,3.6,0.3,5.4,0.4c2.4,0.2,4.5,1.1,6,2.9c2.7,3.2,5.7,6.2,7.4,10.1c2,4.5,5.2,8.5,5.8,13.7c1.3,11.1,0.7,22.1-1.6,33.1
		c-1.2,5.7-3.4,11-6.7,15.9c-4.2,6.2-16.4,10.5-23.1,7.2c-4.7-2.3-8.5-6.2-10.8-11c-4-8.2-6-17-6.5-26.3c2.7-0.8,5.3-0.3,8-0.6
		c1.2,1.5,2.5,3.1,3.8,4.6c1.5,1.8,3.2,2.8,5.8,2.7c1.6-0.1,3.4,0.5,5.2,0.4c4.7-0.5,7.9-3.1,9.2-7.7c1.9-6.6-3-13.4-9.8-13.5
		c-1,0-2,0-3.1,0C957.7,342.9,954,343.5,953,348.7z"/>
	<path fill="#FFFFFF" d="M914.7,349.6c1.4,2.9,4.1,4.2,6.9,5.4c3.6,1.5,6.4,4.4,8.5,7.5c1.9,2.9,1,6.6,0.4,9.9
		c-0.6,3.5-2.8,6.4-3.9,9.8c-3,8.7-6.5,17.2-9.3,25.9c-3.4,10.6-9.7,19.3-17.8,26.9c-0.9,0.8-1.6,1.9-2.4,2.7
		c-4.9-0.4-8.8-1.8-12.5-4.6c-5-3.7-10.4-6.8-15.7-10.2c-0.4-0.2-0.7-0.5-1.3-0.9c3.2-5.5,4.5-11.5,5.4-17.7c0.4-2.8,1.5-5.3-0.1-8
		c-0.4-0.8,0.2-1.7,0.4-2.6c0.8-3.2,1.9-6.4,1.4-10c-1.8,1.3-1.8,1.3-3.1,10.2c-3.7-5.4-4.3-11.7-6.2-17.4c-0.7-2.3-0.8-4.7-1-7
		c-0.3-3.5-2-6.6-4.2-10.3c4.5,2.1,8.5,3.5,11.9,5.9c2.3,1.6,2.7,5.1,3.8,7.8c1.1,2.5,1.9,5.1,2.9,7.6c1.1,2.8,2.8,5,5,7.2
		c3.5,3.4,6.4,7.2,7.9,12.1c1.4,4.4,3.6,8.5,5.5,12.8c0.6,1.4,1.6,2.4,3.5,2.9c-0.8-2.5-1.5-4.9,0.5-6.9c-1.3-0.9-1.5,0.6-2.5,0.4
		c-1.2-2.8-3.3-5.5-3.9-9c2.4-1.8,4.4-3.6,7.6-4.4c3.5-0.9,6.5-3.7,7.1-7.9c0.3-2.4,1-4.6,2.2-6.8c1.7-3,2.1-6.6,4.2-9.6
		c1-1.5-0.3-3.5,0.9-5.2c0.6-0.9,1-1.9,1.8-2.7c-1.8-0.8-1.8-0.8-4.5,5.5c-2.7-1.8-5.8-2.4-8.9-3.5c-0.9-2.2-1.8-4.3-2.7-6.6
		c2-0.8,3.8-0.2,5.4-0.5c2.6-1.3-0.5-4.9,2.6-5.6c-0.6-2.2-2.9-3.3-2.7-5.6c0.8-0.4,1.5-0.5,2.4-0.1c0.8,1.1,0.3,2.9,1.6,3.9
		c1,0.7,2,1.5,2.3-0.6L914.7,349.6z"/>
	<path fill="#FFFFFF" d="M659,365.4c3.4-2.6,4.1-6.3,3.4-10.1c-0.7-3.3-3.1-5.2-6.6-6c-3.5-0.8-5.1,1.1-6.7,3.3
		c-0.4,0.5-0.7,1.1-1.2,1.9c-4.2,0-8.5,0-12.9,0c-0.6-0.6-0.3-1.4-0.2-2.1c1.2-12,5.1-23,12.1-32.8c0.1-0.1,0.1-0.2,0.2-0.3
		c6-7.7,11.8-7.4,17.9-0.1c4.5,5.5,7,12.2,9.6,18.7c4,10.5,5.6,21.5,5,32.7c-0.7,12.9-3.2,25.4-10.6,36.4c-0.8,1.2-1.7,2.4-2.9,3.3
		c-2.6,1.9-5,2.6-8.3,0.9c-5-2.5-7.6-7-11.5-10.9c1.9-0.6,4.1,0.2,5-1.9c0.7-1.6,1-3.3,1.1-5c0.3-3.3,0.5-6.5,1.1-9.9
		c0.9,3,1.6,6,2.6,8.9c1.2,3.8,3.3,4.6,6.7,2.5c2.9-1.8,4.1-3.2,5.4-6.4c-1.3-3.2-1.4-6.8-3.2-9.9c-1.2-2.1-2.3-4.2-4.1-5.8
		C658.1,370.7,657.6,368.2,659,365.4L659,365.4z"/>
	<path fill="#FFFFFF" d="M872.3,613.1c1.4,1.4,2.7,0.3,3.8,0.8c0.6,0.6-0.6,0.9-0.1,1.5c0.9,0.8,2.1,0.1,3.2,0.4
		c-0.2,0.5-0.5,1-0.7,1.5c0.7,1.1,3,0.6,2.3,2.6c3.9,1,7.2-0.6,10.6-1.7c-1.5,1.9-4.5,1.3-5.7,3.8c1.8,1.4,3.6,0.2,5.3,0.2
		c0.5,0.9-1.4,0.9-0.3,2.5c2.4,0.6,5.4,0.5,8.7,0c3,2.9,7,4.6,11.2,5.6c2.7,0.6,4.2,2.9,6.7,4.4c-0.6,3-2.2,5.5-5.1,6.1
		c-6.1,1.2-12.1,3.1-18.5,2.8c-1.4-0.1-2.7,0-4-0.6c-3.8-1.6-7.7-2.8-11.7-3.6c-0.5-0.1-1.2-0.2-1.6-0.6c-3.4-3.7-7.7-3.2-11.7-1.9
		c-3.7,1.2-7.1,0.8-10.6,0.1c-2.4-0.5-4.8-1.1-7.3-1.6c-0.6-4.5,0.3-8.5,3.4-11.7c3.9-4,4.8-8.6,3.2-14.3c11,3.1,21,1.9,29.4-7.6
		c0.2,3.9-0.5,6.8,1.2,9.6C879.3,607.8,876.4,612.6,872.3,613.1z"/>
	<path fill="#FFFFFF" d="M741.1,407.4c-3.8-10.8-5.8-21.7-7.9-32.6c-0.3-1.5-0.1-2.8,0.6-4.2c1.3-2.6,2.3-5.4,3.5-8.3
		c18-0.5,35.7-0.9,53.7-1.4c-0.6,1.2-1.2,2.3-1.9,3.6c-9.3-0.9-18.1,0.3-25.7,6.8c-7.6,6.5-10.9,14.4-10.1,24.3
		C748.7,398.8,744.8,402.7,741.1,407.4z"/>
	<path fill="#FFFFFF" d="M913.9,371.3c-2.7,5.3-6,10.3-6.9,16.5c-0.2,1.5-1.3,2.8-2.5,3c-4.1,0.7-6.9,3.8-10.4,5.9
		c-2.4-5.1-6.2-8.9-10.3-12.5c-2.7-2.4-3-6.1-3.7-9.3c-1.5-7.2-4.3-12.9-12-14.9c-0.5-0.1-1.2-0.2-1.2-1.2
		c11.1-0.3,22.1-0.6,33.3-0.9c1.2,2.8,2.2,5.4,3,8.3C906.7,368,910.9,368.5,913.9,371.3z"/>
	<path fill="#FFFFFF" d="M668.8,410.5c9.8-13.1,12.3-27.7,12.7-43c0.3-9.8-1.7-19.1-4.3-28.4c-2.7-9.5-7.9-17.5-13.9-25.3
		c2.3-0.2,3.8,1.1,5.2,2.5c11.2,10.7,16.9,23.8,17.1,39.4c0.1,7.7,1,15.5-0.9,23c-1.4,5.6-2,11.4-4.7,16.5c-1.9,3.8-4.3,7.4-6.6,11
		C672.5,407.9,671.1,409.3,668.8,410.5z"/>
	<path fill="#FFFFFF" d="M577.6,363.6c0.6-1.7,0.6-3.2-0.2-5.1c6.1,0,11.8,0.1,17.4,0c18.4-0.3,36.8-0.8,55.2-1.1c0.7,0,1.4,0,2,0
		c1.3,0.1,2.1,0.9,2.2,2.2c0.1,1.4-0.8,2-2.1,2.1c-1.4,0.1-2.7,0.1-4.1,0.2c-22.6,0.6-45.2,1.2-67.7,1.7
		C579.5,363.6,578.7,363.6,577.6,363.6z"/>
	<path fill="#FFFFFF" d="M810.5,354.3c-5,3.2-9.9,3.5-14.9,3.6c-22.8,0.5-45.6,1.2-68.3,1.8c-1,0-2,0.4-3.1-0.3
		c0.8-1.1,3.5,0.7,2.6-2.1c2.5,0.6,4.7,1.2,4.5-2.2c-0.1-1.3,2-0.7,1.8-2.2c-1.4-2.1-5.3-1.2-6-4.7c2.3,0,4.5,0.5,6.5-0.5
		c1.7,1.2,2.3,2.9,3,4.9c-1.5,0.4-3.4,0.7-3.2,3.2C758.8,355.3,784.4,354.8,810.5,354.3z"/>
	<path fill="#FFFFFF" d="M659,365.3c-3.6,2.3-4,4.4-1.1,7.6c3.1,3.4,5.5,7.2,6.9,11.6c1.6,5-0.4,8.2-6.1,9.5c-1.4-3-2.1-6.3-3-9.6
		c-1.2-4.4-2.1-8.8-2.1-13.4c0-2.4-1.5-3.9-3.4-5.7c2.6-0.6,4.5-1.4,5.4-3.5c0.4-1.1,0.8-2.1,0.5-3.3c-0.5-2.6-2-3.8-5.3-4.1
		c-0.3-0.8,0.5-1.2,0.9-1.6c0.4-0.5,1-0.9,1.4-1.3c4.9-0.1,7.9,1.6,7.1,8.6C659.9,361.9,659.4,363.6,659,365.3L659,365.3z"/>
	<path fill="#FFFFFF" d="M652.1,369.8c-2.1,9-1.7,18.3-3.1,27.3c-4.8,0.4-8-0.5-10.9-3C641.2,385.2,646.5,377.5,652.1,369.8z"/>
	<path fill="#FFFFFF" d="M983.1,316c5.5,4.6,9.4,10.5,11.5,17.2c3.8,12.2,3.2,24.6,0.2,36.9c-2.1,8.8-2.5,9.3-9.8,18.7
		c-0.6-0.3-0.3-0.7-0.1-1c6.6-10.9,8.3-23,9.2-35.4c0.8-10.7-1.8-20.1-6.7-29.3C986.3,320.7,984.2,318.7,983.1,316z"/>
	<path fill="#FFFFFF" d="M635.5,365c4.7,0,9.1,0,13.7,0c0.3,0.7,0.7,1.6,1.2,2.7c-3.7,5.5-7.7,10.8-11,16.8
		C637.3,378.2,636.6,371.7,635.5,365z"/>
	<path fill="#FFFFFF" d="M906.7,352.5c0.1,2.8-1.5,2.5-3,2.6c-14,0.4-28.1,0.7-42.1,1.1c-3.7,0.1-7.4,0.5-11.1,0.2
		c-0.7-0.8-0.7-1.5,0-2.7C869,353.2,887.8,352.9,906.7,352.5z"/>
	<path fill="#FFFFFF" d="M962.4,362.6c3.1-6.3,4.5-12.2-1.1-17.7c3.7-0.7,8.2,0.6,9.7,3.4c1.9,3.5,1.8,7.1,0,10.7
		C969.3,362.6,966.1,363,962.4,362.6z"/>
	<path fill="#FFFFFF" d="M687.9,356.2c7.6,0,15.1-0.1,22.5,0c3.4,0.1,5.6,1.3,7.9,3.7c-10.2,0.3-20.2,0.5-30.2,0.8
		C687.4,359.3,687.6,358.2,687.9,356.2z"/>
	<path fill="#FFFFFF" d="M957.6,351.5c-0.6,1.9-1.5,2.1-2.6,2.2c-9.9,0.3-19.9,0.5-30,0.8c-0.2-1.8-0.6-3.4-1.6-4.8
		c2.9-0.8,2,2.2,2.9,2.7C936.8,351.5,947,352,957.6,351.5z"/>
	<path fill="#FFFFFF" d="M958.2,345.5c6.2,3.1,6.8,12.3,1.3,16.5c-3.2-1.1-4.2-2-5.5-5.2c1.6,0,2.8-1,4.2-1.5
		c2.1-0.6,2.6-2.3,2.3-4.3c-0.2-2.2-1.5-2.9-3.5-2.7c-0.3,0-0.7,0-1.2-0.1C956.1,347,957.1,346.3,958.2,345.5z"/>
	<path fill="#FFFFFF" d="M1000.1,352c1.7-1.5,33.5-2.5,37.7-1.2c-4,1.2-8.2,0.8-12.3,1c-4.2,0.2-8.4,0.3-12.6,0.4
		C1008.7,352.2,1004.4,352.7,1000.1,352z"/>
	<path fill="#FFFFFF" d="M857.7,607.1c-0.1-1.1,0.4-1.7,1.5-1.8c4-0.2,7.9-0.1,12.2,1C867.3,609.4,861.6,609.6,857.7,607.1z"/>
	<path fill="#FFFFFF" d="M721.1,359.4c-1.3-0.2-2.1-0.9-2.8-1.7c0.4-3.2-0.4-6.2-2.2-8.9c0.8-0.7,1.5-0.4,1.8,0.4
		c0.7,2.1,2.2,3.6,3.4,5.4C722.5,356.1,723.2,357.8,721.1,359.4z"/>
	<path fill="#FFFFFF" d="M756,459.8c1.7-0.6,3.2-1.2,4.9-1.8c0.3,2.7,3,3.3,4.1,5.3C763.1,464,761.1,463.3,756,459.8z"/>
	<path fill="#FFFFFF" d="M572.8,364.2c-2.9-1.9-1.4-4-0.6-6.2c1.7,0.1,2.6,1,2.9,2.4C575.5,362.1,574.9,363.5,572.8,364.2z"/>
	<path fill="#FFFFFF" d="M730.6,618c0-1.2,0.2-2.1,0.6-3c1.4-0.6,2.5,0.3,3.9,0.8c0.1,1.3-0.7,2.5-0.3,4
		C733.1,619.5,731.9,618.9,730.6,618z"/>
	<path fill="#FFFFFF" d="M821.9,469c0.8-1.9,3-1.1,3.9-2.4c1.8,0.4,2.2,1.6,2.4,2.8c-0.8,1.1-2.1,0.7-2.9,1.5
		C823.9,470.3,823.5,468.5,821.9,469L821.9,469z"/>
	<path fill="#FFFFFF" d="M816.6,293.3c1.5,0.3,1.5,1.5,2.4,1.9c0.8,0.4,1.6-0.9,2.8,0.3c-2.3,1.6-5.3-0.9-7.2,1.6
		C815.7,296,815.8,294.6,816.6,293.3z"/>
	<path fill="#FFFFFF" d="M773.8,467.3c-2.3-0.7-5-0.5-6.8-2.5C769.3,465.5,772.2,464.3,773.8,467.3z"/>
	<path fill="#FFFFFF" d="M818.3,469.9c0.2,0.1,0.4,0.2,0.6,0.1c1-0.3,2-0.6,2.9-0.9l-0.1-0.1c-0.2,0.9-0.5,1.7-0.8,2.9
		c-1.7-1.3-3,0.9-5,0.2C816.8,471.3,817.6,470.6,818.3,469.9z"/>
	<path fill="#FFFFFF" d="M816.2,319.6c0.1,1.1-1.7,1.4-0.9,2.7c-1.1-1-2.2-1.9-1.6-3.6C815.1,317.6,815.6,318.8,816.2,319.6z"/>
	<path fill="#FFFFFF" d="M921.2,350.8c-2.3,0-3.8-0.6-4.4-2.9C919,347.8,920,349.1,921.2,350.8z"/>
	<path fill="#FFFFFF" d="M819.7,319.2c-1-1.1-2.7-1.7-2.4-3.6C819.6,315.9,819.6,315.9,819.7,319.2L819.7,319.2z"/>
	<path fill="#FFFFFF" d="M782.8,471.7c-1.3-0.5-2.5-0.9-3.7-2.7C781.2,469.8,782.9,469.6,782.8,471.7z"/>
	<path fill="#FFFFFF" d="M728.6,355c-2.6,0.2-2-1.8-2.5-3.1C727.9,352.1,728.7,353,728.6,355z"/>
	<path fill="#FFFFFF" d="M769.2,460.9c-2,0-3.1-0.8-3.7-2.5C766.7,459.3,768,460.1,769.2,460.9z"/>
	<path fill="#FFFFFF" d="M825.2,298.3c0.9-2.1,2.2-2.9,3.7-3.6C828.1,296.1,827.2,297.3,825.2,298.3z"/>
	<path fill="#FFFFFF" d="M840.3,289.6c-0.2-2.1,1-1.9,2.3-2.2C842.2,288.7,841.3,289.1,840.3,289.6z"/>
	<path fill="#FFFFFF" d="M860.5,292.7c-0.6-1.5-0.7-2.3,1.4-2.1C861.8,291.4,861.5,292,860.5,292.7z"/>
	<path fill="#FFFFFF" d="M817.5,306.8c0.3,1.2,0,1.9-0.5,2.6C816.3,308.5,816.6,307.7,817.5,306.8z"/>
	<path fill="#FFFFFF" d="M884.3,614.5c0.7-0.7,1.3-1.3,2.4-0.7C886.2,615.1,885.2,614.5,884.3,614.5z"/>
	<path fill="#FFFFFF" d="M829.1,305c-0.6-0.9-0.2-1.4,0.2-2.2C830.6,304,829.5,304.4,829.1,305z"/>
	<path fill="#FFFFFF" d="M856,285c0.6,1,0,1.4-0.8,1.8C855.1,286,855,285.3,856,285z"/>
	<path fill="#FFFFFF" d="M791.3,474.3c0.6,0.4,1.6-0.1,1.9,1C792.1,475.8,791.6,475.4,791.3,474.3L791.3,474.3z"/>
	<path fill="#FFFFFF" d="M756.1,445.4c0.3,0.7,0.4,1.3,0,2C754.7,446.7,755.2,446.1,756.1,445.4z"/>
	<path fill="#FFFFFF" d="M914.4,349.8c-0.9-0.3-1.3-1-1.7-2c1.4-0.1,1.6,0.9,1.9,1.8L914.4,349.8z"/>
	<path fill="#FFFFFF" d="M756.7,452.6c0.7,0.1,0.9,0.4,0.7,1.1C756.6,453.8,756.3,453.4,756.7,452.6z"/>
	<path fill="#FFFFFF" d="M844.9,295.4c0.5,0.3,1.1,0.5,1.7,0.9C845.7,296.7,845.2,296.1,844.9,295.4z"/>
	<path fill="#FFFFFF" d="M791.3,474.3c-1,0.2-1.8,0-2.5-0.9C790.1,472.6,790.5,474,791.3,474.3L791.3,474.3z"/>
	<path fill="#FFFFFF" d="M754,629.2c-0.1,0.1-0.3,0.3-0.4,0.3c-0.4,0-0.5-0.2-0.4-0.6c0.1-0.3,0.2-0.4,0.5-0.3
		C753.8,628.8,753.8,629,754,629.2z"/>
	<path fill="#FFFFFF" d="M827.6,288.8c-0.1,0.8-0.3,1.2-1.2,0.9C826.5,289,826.8,288.6,827.6,288.8z"/>
	<path fill="#FFFFFF" d="M842.1,295c-0.5,0.1-0.8,0.1-0.9-0.3c0-0.1,0.2-0.4,0.3-0.4C841.8,294.2,842,294.5,842.1,295z"/>
	<path fill="#FFFFFF" d="M821.6,308.2c0,0.4-0.3,0.5-0.6,0.5c-0.1,0-0.3-0.3-0.3-0.4c0-0.3,0.2-0.6,0.6-0.5
		C821.4,307.8,821.5,308.1,821.6,308.2z"/>
	<path fill="#FFFFFF" d="M823.2,309.7c-0.1-0.7,0.3-1.1,0.9-1.3C824.8,309.5,824.3,309.8,823.2,309.7z"/>
	<path fill="#FFFFFF" d="M857.3,315.4c-0.7,0.6-1,0.3-1.4,0C856.3,315,856.7,315,857.3,315.4z"/>
	<path fill="#FFFFFF" d="M724.6,348.3c0.5,0.6,0.6,0.9,0.8,1.2C724.6,349.8,724.6,349.3,724.6,348.3z"/>
	<path fill="#FFFFFF" d="M321.6,264c2.2,4,4.9,7.8,6.6,12c1.7,4.2,1.8,9,4.2,13.3c1.1-2.5,1-2.5-1-9.2c-0.9-3-2.9-5.7-3.5-8.9
		c4.8-7.6,9.5-15.3,18.3-19c-0.8-1.5-1.4-0.8-2-0.6c-0.6,0.2-1.1,0.8-1.9,0.7c-1.1-1.5-0.3-3,0.1-4.5c1.3-4.4,3.8-8.2,4.9-12.7
		c0.4-1.7,2.2-2.8,3.5-4c2.5-2.2,5.7-3.5,8-6.2c1.1-1.3,3.2-1.5,5.1-1.7c4.8-0.4,9.2-2.2,14-3c3.2,4.8,4.2,10.2,2.7,16.2
		c-0.5,0.6-1.9,0.1-2.3,1.3c0.6,0.9,1.7,0.1,2.6,0.8c0.2,3-0.4,6.1,0.6,9.2c0.4,1.4-0.4,2.9-1,4.2c-1.2,2.5-2.3,5-2.7,7.7
		c-0.7,4.3-3.6,6.7-6.6,9.1c-4.8-2.6-4.8-2.6-6.2-1.3c0.3,1.8,2.2,2.4,3.1,3.8c-1.4,2.5-2.2,3.2-5.3,4.6c-1.1-2.9,1.3-6-0.1-9
		c-2.6,0.9-2.8,2.8-2.7,4.6c0.2,4.5-1.3,8.3-3.5,12.2c-1.8,3.1-3,6.6-4.4,9.9c-0.8,1.9-2.1,3.3-3.9,4.1c-5.2,2.3-9.3,5.9-13.5,9.6
		c-2.9,2.5-6.2,4.6-10.4,4.3c-1.2-0.1-2.3-0.1-3.2-0.8c-3.8-2.6-7.9-4.9-9.1-10c-0.8-3.4-3.4-5.9-5.2-8.7
		c-3.8-5.9-5.9-12.2-6.9-19.2c-1.4-8.9-0.8-17.9-1.8-26.8c-0.5-3.9-1.3-7.9-1.9-11.8c-0.6-3.7-3.5-6.7-8.4-10c0-0.6,0-1.4,0-2.2
		c0-0.7-0.2-1.3,0.4-2.2c9.2,0.3,18.4,0.6,28,0.9c-0.8,2.7-2.7,4.5-3.4,6.8c-0.6,1.8-0.7,3.5-0.4,5.3c1.1,5.3,1.8,10.7,3.5,15.9
		c-2.5-2.8-2.7-6.9-5.8-9.8c-0.9,3.1,1.4,4.3,2.7,6.2c-1,1.8,0.1,3.3,1.2,4.8c1.9,2.5,3.7,5.2,4.1,8.4c0.1,0.8,0.6,1.4,1.5,1.7
		c0.7,0.1,0.8,0.7,0.9,1.3c0.1,0.7,0.4,1.3,0.8,1.9C321.3,263.6,321.4,263.8,321.6,264z"/>
	<path fill="#FFFFFF" d="M504.3,268c-1.5-0.2-2,0.8-2.3,2c-0.5,1.6-1.2,3.2-1.5,4.9c-1.5,9.2-7.6,15.8-13.1,22.7
		c-2,2.6-4.6,4.7-6.8,7.2c-1.2,1.4-2.6,2.1-4.3,1.9c-9.6-3.5-15.8-11.6-24.2-17.1c0.3-3.3,0.5-6.5,2.2-9.8
		c3.3-6.7,7.3-13.3,7.5-21.3c0.1-4.6-0.8-9-1.2-13.5c0-0.5-0.5-1-1.1-1.1c-1.6,0.7-0.2,2-0.9,3.3c-1.7-1.5-2.9-3.4-4.1-5.1
		c-1.3-1.8-1.9-4.1-3.9-5.4c-0.6-4.2-2.5-8.2-2.8-12.5c1.1-0.5,1.8-0.1,2.1,0.6c0.5,1,1.1,1.7,2.1,2.1c6.1,2.6,7.8,8,8.8,13.9
		c0.4,2.5,0.1,5.2,2,7.9c1.3-4.7,0.7-8.9-0.5-13c-1.2-4.2-3.3-7.6-7.6-9.5c0.1-0.2,0.3-0.4,0.4-0.6c8.5,0.3,17,0.5,25.7,0.8
		c2.1,5,6.6,6.3,11,8c2,0.7,4.2,1.2,5.6,3.1c-0.5,1.9-1.3,3.6-2.5,5.1c-1.9,2.4-3.5,5.1-3.7,8.3c-0.1,1.6-1.4,2.3-2.1,3.4
		c-0.8,1.5-2.4,2.4-2.5,4.3c-3,2.6-6.6,4.1-10.2,6.5c-2.3-5.1-5.7-8.8-9.4-11.2c1.3,0.9,3,2.5,4.6,4c2.8,2.6,4.2,5.7,4.4,9.4
		c0.3,4.1,2,7.8,3.6,11.3c1.8,0.5,1.9-0.9,2.5-1.7c-0.5,0.7-0.8,1.6-2.3,1.7c-2.2-3.5-3.5-7.3-3.8-11.6c-0.1-1.3,0.9-1.8,1.7-2.6
		c2.6-2.5,6.2-3.5,9-5.8c3.8-1.5,4.8-5.3,6.4-8.4c1.3-2.5,2.3-5.1,4.2-7.4c1.5-1.8,1.9-3.8,1-6c1.1-0.5,2.5,0.2,3.4-1.8
		c-6.2-0.8-11.8-2.9-17.2-5.8c-0.6-0.6-1-1.5-0.6-2.5c1.3-0.7,2.7,0.2,4.2-0.3c2.6-2.4,2.7-5.1,0.9-8.1c-1.3-2.3-1.9-4.7,0.8-6.6
		c3.8,0.9,4.8,4.4,4.8,8.4c2.4,2.4,6,3.6,8.2,6.4c0.5,0.7,1.6,0.8,2.5,0.8l-0.1-0.1c0.3,0.2,0.6,0.5,0.8,0.5c2.2-0.7,4.3-1,5.8,1.2
		c1.7,2.4,2.7,5,1.8,8c-1.4,4.5-2.9,9-4.3,13.6C507.5,256.2,506,262.1,504.3,268z"/>
	<path fill="#FFFFFF" d="M521.4,227.9c2.7,0,5.4,0,7.8,0c0.4,0.3,0.5,0.3,0.5,0.4c3,6.8,8.7,8.5,15.5,7.9c4.7-0.4,8.8-5.7,8.1-10.4
		c-1.4-8.9-3.3-10.7-12.3-10.9c-6-0.2-6.1-0.1-9.4,5c-1.6,0.6-3.3,0-5-0.1c-1.7-0.1-3.4,0.2-4.9-0.4c0.4-13.8,6.5-24.7,17.1-33.1
		c2.6-2.1,5.5-2.9,8.8-2.8c6.4,0.2,11.2,2.3,14.5,8.2c4.2,7.5,8.9,14.9,8.8,23.9c-0.1,8.6-0.7,17.2-2.8,25.6
		c-1.8,7-4.2,13.6-8.8,19.3c-4.7,5.8-16.9,9.3-23.3,5.6c-5.1-2.9-9-7.7-10.9-13.5c-2.6-7.7-4.1-15.6-4.1-23.7
		C521.1,228.6,521.2,228.3,521.4,227.9z"/>
	<path fill="#FFFFFF" d="M237.2,219.6c4-3.8,5.3-8,3.7-11.8c-2.5-5.9-9-6.9-12.8-1.9c-0.4,0.5-0.8,1.1-0.9,1.3c-4.2,0-8.1,0-11.9,0
		c-0.4,0-0.9-0.1-1.8-0.2c1.2-6.4,2.4-12.7,4.9-18.6c2.3-5.5,5.5-10.4,9.1-15.1c6.4-8.5,13.7-8.1,19.1,1.2
		c7.1,12.2,11.1,25.5,11.2,39.8c0.1,8-0.5,15.9-2.5,23.6c-2.2,8.4-5.1,16.4-10.6,23.4c-2.3,2.9-5,4.8-8.3,5.1
		c-6.5-2.5-10.1-7.6-13.6-13.1c1.6-0.7,3.6,0.3,4.6-1.5c0.9-1.5,1.2-3.2,1.5-4.9c0.5-3.2,0.9-6.4,1.8-9.5c0.6,2.9,1.2,5.9,1.9,8.8
		c0.9,3.6,3,4.6,6.3,2.8c1-0.5,2-1.1,2.8-1.9c2.1-1.7,3.1-3.4,2.5-6.6c-0.9-5.5-2.8-10.3-6.3-14.4C236.3,224,236,221.9,237.2,219.6
		L237.2,219.6z"/>
	<path fill="#FFFFFF" d="M318.8,220.9c13.2,0.4,26,0.9,39.5,1.3c-3.1,2.2-5.3,4.4-8,6c-2.4,1.4-4.2,3.5-5.5,5.9
		c-2.1,4-3.6,8.3-4.6,12.7c-0.3,1.1-0.5,2.4-0.2,3.4c1.1,2.9-0.1,4.3-2.5,5.7c-3.4,2-5.9,4.9-7.8,8.4c-0.8,1.5-1.5,3-2.7,4.2
		c-1.1-1.6-2.2-3.2-3.3-4.7c-0.4-0.5-0.9-1-0.8-1.8c0.5-3.6-1.3-6.6-2.8-9.6c-3.3-6.6-5.1-13.6-5.9-20.8
		C313.6,227.2,316.5,224.2,318.8,220.9z"/>
	<path fill="#FFFFFF" d="M244.7,264.6c7.4-8.4,11.2-17.9,13.2-28.1c1.9-9.8,3.2-19.7,1.8-29.7c-0.8-5.8-2.1-11.6-3.7-17.3
		c-2.1-7.8-6.5-14.7-10.9-21.3c2.3,0.1,2.9,0.3,4.6,2.2c10.2,11.1,15.5,24,14.9,39.3c-0.3,8.3,0.1,16.6-2.2,24.6
		c-1.6,5.3-2.8,10.7-5.4,15.6c-2.2,4-5.1,7.7-7.8,11.4C248.2,262.7,246.9,263.7,244.7,264.6z"/>
	<path fill="#FFFFFF" d="M156.4,212.5c0.4-1.4,0.8-2.8,0.2-4.3c3.9,0,7.6-0.1,11.3,0c20.4,0.8,40.8,1.7,61.2,2.5
		c3.6,0.1,3.8,0.3,3.7,3.5C230,215.4,172.4,214.2,156.4,212.5z"/>
	<path fill="#FFFFFF" d="M300.5,206.7c1.2-0.3,2.2,0.1,3.3,0.5c3.1,1,3.8,3.6,1.9,7.4c1.4,0.5,2.8,1.1,4,1.5
		c1.4-0.2,1.9-1.3,2.6-2.1c22,0.9,43.9,1.8,65.9,2.7c-0.2,1.9-1.4,1.5-2.3,1.7c-13.7,2-27.4,0.4-41.1,0.2
		c-10.2-0.2-20.4-0.7-30.8-1.1C305.8,212.9,302.2,210.1,300.5,206.7L300.5,206.7z"/>
	<path fill="#FFFFFF" d="M237.2,219.5c-3.2,1.2-3.9,3.7-1.7,6.6c2.8,3.6,5.2,7.4,6.4,11.9c1.5,5.7,0.1,8.1-6,9.7
		c-0.6-0.2-0.9-0.7-1-1.2c-1.4-6-2.8-11.9-3.1-18c-0.2-3.6,0.6-7.3-3.3-9.9c4.5-1.1,6.8-3.4,6.5-6.3c-0.3-2.8-1.9-4.2-5.5-4.5
		c0.6-1.3,1.7-2.1,2.8-2.8c5.2,0.1,7.9,2.4,6.5,9.2C238.5,216,237.7,217.8,237.2,219.5L237.2,219.5z"/>
	<path fill="#FFFFFF" d="M214.8,246.8c3.7-9,9.4-16.4,15.5-23.7c-2.4,9-3,18.2-4.7,27.4C221.3,250.3,217.7,249.5,214.8,246.8z"/>
	<path fill="#FFFFFF" d="M563.4,188.9c1.7,0.7,2.5,1.7,3.2,2.7c6.4,8.8,10,18.4,9.5,29.5c-0.4,9-1.7,17.8-4.7,26.3
		c-2,5.7-5.7,9.8-9.4,14.2c-0.5-0.5-0.3-0.8-0.1-1.1c6.9-10.3,9.2-21.9,10.9-33.9c1.5-10.9-0.4-20.7-5.1-30.3
		C566.6,194,565.1,191.8,563.4,188.9z"/>
	<path fill="#FFFFFF" d="M214.1,217.7c4.8,0,9.1,0,13.2,0c1,1.1,1.1,2.2,1.3,3.4c-4.1,5.1-8.2,10.2-12,16.6
		C214.9,230.8,214.7,224.3,214.1,217.7z"/>
	<path fill="#FFFFFF" d="M540.3,234.5c4.6-7.4,4.5-12.2,0.2-17.8c3.7-0.4,8.2,1.2,9.5,4.1c1.7,3.6,1.3,7.3-0.7,10.7
		C547.2,234.9,544,234.9,540.3,234.5z"/>
	<path fill="#FFFFFF" d="M446.7,219.4c13.7,0.6,27.3,1.1,41,1.7c0.6,2.6-1,2.5-2.5,2.4c-7.4-0.2-14.7-0.5-22.1-0.7
		c-5.1-0.1-10.2,0-15.3-0.3c-0.9-0.8-0.4-2.1-1.7-2.4C446.4,219.9,446.5,219.7,446.7,219.4z"/>
	<path fill="#FFFFFF" d="M406.2,244.8c-0.1-1.1-0.9-1.8-1.7-2.4c-2.3-1.8-3.9-4.1-5.2-6.6c9.9,0,17,3.5,20.4,10.2
		C415.1,245,410.6,244.9,406.2,244.8L406.2,244.8z"/>
	<path fill="#FFFFFF" d="M290.9,213.1c0.9,1.4,1.7,2.5,2.6,3.9c-9.1-0.2-17.9-0.3-26.5-0.9c-0.9-1.3-0.7-2.4-0.1-3.9
		C274.8,212.5,282.8,212.8,290.9,213.1z"/>
	<path fill="#FFFFFF" d="M505.1,227.2c-3-3.9-3-3.9-3.6-9.7c1.2,0.5,0.3,2,1.3,2.8c2-0.2,1.2-1.8,1.3-3.3c1.5,0.8,2.5,1.9,3.6,3.2
		c-1.2,1.2-2.9,0.2-4.1,1.4c5.4,1,10.8,0.3,16.2,0.7c5.4,0.4,10.8,0.5,16.4,0.8c-0.5,2.2-2.1,1.9-3.5,1.9c-8.5-0.2-17-0.5-25.5-0.8
		c-0.8,0-1.6,0-2.3,0C503.8,225.4,506.3,226.1,505.1,227.2L505.1,227.2z"/>
	<path fill="#FFFFFF" d="M537.4,233.9c-2.3-1.3-4.3-2.8-5.1-5.6c1.2-0.7,2.6-0.9,3.7-1.2c2.7-0.6,3.4-2.2,3.3-4.6
		c-0.2-2.9-2.4-2.4-4.3-2.6c0.8-1.7,0.8-1.7,2.5-2.9C543.2,220.4,543.3,229.8,537.4,233.9z"/>
	<path fill="#FFFFFF" d="M578.8,224.9c12.6,0.2,25.1,0.9,37.6,1.9c-6.3,1.4-12.6,0.4-18.8,0.3c-6.3-0.1-12.6,0-18.9-0.8
		C578.8,225.9,578.8,225.4,578.8,224.9z"/>
	<path fill="#FFFFFF" d="M294.9,207.5c2.7-0.1,4.8,0.7,5.9,3.4c0.6,1.4,1.6,2.7,2.5,4.1c-2.1,0.6-3.5-0.7-5.1-0.6
		C296.9,212.1,297.6,209,294.9,207.5L294.9,207.5z"/>
	<path fill="#FFFFFF" d="M151.6,212.9c-3-1.8-1.2-3.9-0.6-6c1.9-0.3,2.8,0.8,3,2.1C154.3,210.8,153.7,212.3,151.6,212.9z"/>
	<path fill="#FFFFFF" d="M307.6,206.5c4.3,1.4,4.9,4,1.8,7.4C308.8,211.4,308.8,208.8,307.6,206.5z"/>
	<path fill="#FFFFFF" d="M295.1,214.5c-2.2-1.1-3-3.4-5-4.7c1.1-0.7,2.1-1.4,3.5-1.2C295.3,210.3,294.7,212.5,295.1,214.5z"/>
	<path fill="#FFFFFF" d="M496.4,215.2c2.3,0.9,2,3.3,3.5,4.8C496.3,218.9,495.5,217.8,496.4,215.2z"/>
	<path fill="#FFFFFF" d="M321.6,264l-0.3,0.2l-0.3-0.1c-0.7-1-1.1-2.1-1.4-3.3c-0.1-0.2-0.1-0.4-0.2-0.7c-0.4-1.6-1.5-3-0.9-5.2
		C320.6,257.9,321.4,260.9,321.6,264z"/>
	<path fill="#FFFFFF" d="M315.2,211.2c-3,0.1-1.5-3-3-4C315.3,207.2,315.4,207.4,315.2,211.2z"/>
	<path fill="#FFFFFF" d="M485.7,216.3c0.7,0.8,0.8,1.2,0.7,1.7c-0.8,0.4-1.7,0.3-2.7,0C483.8,216.5,485.2,217,485.7,216.3z"/>
	<path fill="#FFFFFF" d="M297,216.7c1.4-1.2,2-0.1,3.2,0.5C298.8,217.4,298,217.5,297,216.7z"/>
	<path fill="#FFFFFF" d="M413.7,477.2c0.4-1,0.9-2.1,0.5-3.3c-1.5-5.7-1.9-11.6-4.5-17.1c-0.9-1.8-1.5-3.8-2.3-5.7
		c-2.1-4.8-3-9.4-0.5-14.6c1.6-3.4,1.3-7.5,3.8-11.3c-3.3,2.2-4.8,4.8-5.7,7.9c-2.1,6.9-4,13.9-7.2,20.5c-0.8,1.7-1.7,3.2-3.3,4.2
		c-2.5,1.6-3.6,3.9-3.7,6.9c-0.2,3.6-0.6,7.2-0.9,11c-5.4-2.3-10.9-2.7-16.5-2.8c-4.6-0.1-8.9-1.6-13.2-2.8
		c-5.1-1.4-10.3-1.1-15.3-0.1c-1.3-1,0.5-3.5-2.3-3.7c2-5.6,2.3-11.3,3.2-16.8c1-5.6-0.8-11.3-0.2-16.9c-0.4-0.3,0.7-0.4,0.3-0.1
		c0,0,0.1,0.2,0.2,0.2c0.2,0.2,0.5,0.4,1.2,0.9c-2.2-8.7,1.2-16.1,3.7-23.5c1.4-0.1,0.7,1.4,1.7,1.6c0.6-3.2,0-6.5,0.8-9.5
		c-0.3-1-1.4-0.3-1.8-1.6c-0.9-4.8,0.7-9.9,1.7-14.9c0.8-4.1,1.4-8.3,1.6-12.4c0.1-3.9,1.5-6.7,3.8-9.5c0.6-0.7,1.1-1.4,1.8-2.4
		c3.7,3.3,8.5,2.3,13.1,3.3c-0.1-1.2,0.1-2.3-1.6-2.1c-1.2,0.1-1.8-1-3-1.1c-0.8,0-1.6-1.9-2.6-0.2c-1.1,0.3-1.2-3.4-2.9-0.5
		c-0.6-1-0.8-2.3-2.2-2.8c0.5-0.1,0.6-0.2,0.7-0.2c11.7,5,24.1,5,36.4,5.6c4.2,0.2,8.4,0.6,12.9,0.9c-0.7,2.6,2.4,1.3,2.9,3.1
		c2-3.7,5.8-3.4,9.1-4.4c0.3,0.4,0-0.2,0.1,0.2c0,0.1,0,0-0.2-0.1c1.7-1.5,4-1.6,6.1-2.6c0.2,2.8-4.3,0.6-3.3,3.8
		c1,0.7,1.3-0.6,2-0.7c1,0,0.7,1.8,1.6,1.5c1.5-0.2,1.1-1.7,2.2-2c0.5,0.7,1.2,1.4,1.5,2.2c2.5,5.7,6.6,10.6,8.7,16.4
		c1.7,4.7,5.7,7.7,7.8,12c1.9,3.7,3.1,7.5,4.2,11.5c0.4,1.5,0.4,2.9,0.1,4.4c-0.8,3.6-0.2,7,1.8,10.1c2,3.1,3.1,6.4,3.7,10.1
		c1.7,9.7,4.3,19.2,7,29c-2,0.9-4.1,1.8-6.1,2.7c-11,4.9-22.2,9.2-33.5,13.1C422.7,476.4,418.2,476.8,413.7,477.2L413.7,477.2z"/>
	<path fill="#FFFFFF" d="M472.8,618.1c-2,1.2-4.5,1.4-6.3,3c0.6,1.9,2.3,0.8,3.2,1.6c0.2,2.7,0.2,2.7,6.4,2.5
		c1.1,3.8,8.4,5.7,13,3.2c2.4,1.5,4.8,3,8.1,2.9c3.4,0,4.5,1.5,5.2,5c0.3,1.7,0.7,3.3,1.1,5.1c-1.2,1.1-2.8,1.7-4.3,1.8
		c-6.8,0.4-13.5,1.9-20.4,1.5c-8-0.5-15.7-2.2-22.9-5.5c-1.6-0.7-2.9-1-4.8-0.6c-3.5,0.7-6.9-0.4-10.7-1.2
		c-0.3-7.2-1.5-14.5,3.5-20.9c0.4-0.5,0.7-1.2,0.8-1.8c0.8-4.4,0.8-4.4,5.2-5.3c3.4-0.7,6.8-1.6,10.3-1.7c0.1,1.6-1.1,2.4-1.5,3.4
		c-4,1.2-7.8,2-11.9,2.6c2.7,2.4,3.4,2.4,10.8,0.2c1.3,0.3,0.3,2.4,1.9,2.4c1.8,0,0.9,1.6,1.6,2.5
		C465,619.5,468.9,618.2,472.8,618.1L472.8,618.1z"/>
	<path fill="#FFFFFF" d="M465.9,605.6c2.7,1.5,4.4,3.9,6.8,6c-4.3,1.3-8.3,2.2-12.6,2.8C463,612.2,462.3,607.7,465.9,605.6z"/>
	<path fill="#FFFFFF" d="M442,377.6c-3.6-4.1-5.2-9.1-7.6-13.8c1.6,2.3,4,3.7,5.9,5.5C442.8,371.7,442.2,374.7,442,377.6z"/>
	<path fill="#FFFFFF" d="M342.3,635.4c1.7,1.7,3.2,3.4,5.4,4.7c-1.3,0.7-2.2,0.5-3.4,0.1C344.1,638.5,342.8,637.2,342.3,635.4z"/>
	<path fill="#FFFFFF" d="M340,631.3c1,0.2,0.6,1.4,1.9,1.9c-2.3,0.5-3.9,0.9-6,1.4C337.5,633.2,339.5,633.1,340,631.3L340,631.3z"/>
	<path fill="#FFFFFF" d="M472.8,618.1c2-0.5,3.9-0.9,5.9-1.4C476.9,618.3,474.8,618,472.8,618.1L472.8,618.1z"/>
	<path fill="#FFFFFF" d="M434.3,358.9c-0.7,1.2-2.1,1-2.8,2.3c-0.1-0.3-0.3-0.6-0.4-0.9C432.2,359.8,433.2,359.4,434.3,358.9z"/>
	<path fill="#FFFFFF" d="M340.1,631.2c-0.3-0.5-1-0.7-1-1.7C340.1,629.8,339.9,630.6,340.1,631.2L340.1,631.2z"/>
	<path fill="#FFFFFF" d="M459,249.8c-0.6-0.2-1.1-0.5-0.7-1.3C459.2,248.6,459.4,249.1,459,249.8z"/>
	<path fill="#FFFFFF" d="M485.7,625.2c-0.2,0.1-0.3,0.3-0.5,0.3c-0.4,0-0.5-0.3-0.3-0.6c0.1-0.1,0.4-0.2,0.5-0.2
		C485.5,624.8,485.6,625,485.7,625.2z"/>
	<path fill="#FFFFFF" d="M402.3,146.3c-2.1,1.4-4.9-0.6-6.7,1.8c0.9-1.1,1.3-2.4,1.8-3.8C399,145.1,400.1,147.1,402.3,146.3z"/>
	<path fill="#FFFFFF" d="M397.1,170.8c-0.5,0.7-1,1.4-1.5,2.2c-1-1.1-2.2-2.1-0.7-3.6C396.2,169.1,396.6,170,397.1,170.8z"/>
	<path fill="#FFFFFF" d="M400.5,169.7c-1.6-0.8-2.5-1.6-2.4-3.2C400.1,167,400.1,167,400.5,169.7z"/>
	<path fill="#FFFFFF" d="M406.6,148.9c0.2-1.8,1.7-2.5,3-3.3C409.2,147.2,407.8,148,406.6,148.9z"/>
	<path fill="#FFFFFF" d="M415.7,149.4c-1,0.3-1.9,0.5-3.1-0.6C414.1,147.6,415,147.5,415.7,149.4L415.7,149.4z"/>
	<path fill="#FFFFFF" d="M441.3,143.7c-0.5-1.5-0.4-2.4,1.5-2.2C442.7,142.4,442.3,143.1,441.3,143.7z"/>
	<path fill="#FFFFFF" d="M398.3,157.7c0.6,1.3-0.3,2.1-0.6,3.2C397.6,159.7,397.1,158.7,398.3,157.7z"/>
	<path fill="#FFFFFF" d="M423.3,138.7c-0.4,0.9-1,1.5-2.1,1.6C421.1,138.6,422,138.4,423.3,138.7z"/>
	<path fill="#FFFFFF" d="M406.9,141c0.2-1.1,0.8-1.3,1.6-1.4C408.5,140.5,408.1,141,406.9,141z"/>
	<path fill="#FFFFFF" d="M438,166.2c-0.2,1.1-0.9,0.6-1.5,0.5C436.9,166,437.3,165.8,438,166.2z"/>
	<path fill="#FFFFFF" d="M436.8,135.9c0.6,1.2,0,1.6-1,1.9C435.9,137,436,136.4,436.8,135.9z"/>
	<path fill="#FFFFFF" d="M409.9,155.8c-0.3-0.7-0.4-1.3,0.4-1.8C411.4,154.9,410.6,155.3,409.9,155.8z"/>
	<path fill="#FFFFFF" d="M405.3,159.2c0,1.2-0.4,1.6-1.2,1.7C403.7,159.8,404.4,159.5,405.3,159.2z"/>
	<path d="M762.9,424.6c2.3-5.3,3.2-11.1,5.9-16.1c2.2,0.7,2,2.1,1.5,3.4C768.7,416.7,767.1,421.5,762.9,424.6z"/>
	<path d="M732.2,392c-4.8-2.9-7-7.2-7.3-12.7c-0.2-3.2-0.8-6.4-1.4-10c2.6,1.8,2.6,4.3,2.7,6.4C726.4,381.8,728.9,387,732.2,392z"/>
	<path d="M772.5,427.6c4.1,6.2,9.7,10.9,16.2,15.1C783.1,442.2,773.8,433.5,772.5,427.6z"/>
	<path d="M823.4,447.4c-0.2,0.4-0.4,0.9-0.7,1.2c-4.4,3.9-9.5,7-12.9,12.1c0.7-3.1,2.5-5.5,4.8-7.4c2.7-2.2,5.6-4.1,8.4-6.2
		C823.1,447.2,823.3,447.3,823.4,447.4z"/>
	<path d="M731.1,413.2c3,4,4,8.6,4.6,13.9C734,425.4,731.7,417.5,731.1,413.2L731.1,413.2z"/>
	<path d="M795.8,470.3c4.2-2.3,7.7-4.1,11.4-6.2C804.5,468.2,799.8,470.9,795.8,470.3z"/>
	<path d="M837.4,409.7c-0.7,3.3-1.4,6.6-2.1,10c-0.8-3.6-0.4-7.1,1.4-10.2C836.9,409.6,837.1,409.6,837.4,409.7z"/>
	<path d="M834.1,428.5c2.2-1.2,3.6-0.6,7,3C838.1,431.8,836.5,429.2,834.1,428.5z"/>
	<path d="M857.6,401.5c1.9-1.9,3.4-2.2,5.5-2C861.7,401.3,860.2,401.9,857.6,401.5z"/>
	<path d="M815.7,431.2c1.5-2.1,3.3-2,5.8-0.4C819.2,430.8,817.4,430.9,815.7,431.2z"/>
	<path d="M766.5,392.2c1.7-0.6,2.7,0.7,4.4,1C768.7,394.5,768.7,394.5,766.5,392.2z"/>
	<path d="M827.5,428.9c-1,0.8-2.1,1.5-3.8,1.7C825,429.3,825.9,428.4,827.5,428.9z"/>
	<path d="M744.4,434.4c-0.1,1.1-0.2,2.1-0.4,3.9c-1.4-1.9-0.8-3-0.3-4.1C743.9,434.3,744.1,434.4,744.4,434.4z"/>
	<path d="M757.6,427.3c1-1.6,2-2.3,3.2-2.6C760.3,426.3,760.3,426.3,757.6,427.3z"/>
	<path d="M778.9,420.6c0.8,0.6,2.2,0.6,2.6,2C779.7,422.7,779.2,421.8,778.9,420.6L778.9,420.6z"/>
	<path d="M779.3,457.8c0.3,0.3,0.6,0.6,1.4,1.3C779.5,458.8,779.2,458.6,779.3,457.8z"/>
	<path d="M776.4,447.7c0.7,0.6,1.3,1.3,1.8,2.5c-1.3-0.5-1.7-1.3-2.1-2.2C776.1,447.9,776.2,447.8,776.4,447.7z"/>
	<path d="M832.9,425.2c0-1,0.4-1.7,1.1-2.5C834.6,424.2,833.9,424.7,832.9,425.2z"/>
	<path d="M754.7,428.9c-0.1,0.9-0.7,1.1-1.8,1.6C753.4,429.3,753.9,428.9,754.7,428.9z"/>
	<path d="M731.2,413.1c-0.7-0.3-0.9-0.8-0.7-1.5C731.4,411.9,731.1,412.6,731.2,413.1L731.2,413.1z"/>
	<path d="M823,447.1c0.2-0.6,0.2-1.3,1.1-1.3c0.1,0.7-0.3,1.2-0.8,1.6C823.3,447.3,823.2,447.2,823,447.1z"/>
	<path d="M903.4,502.7c-0.4,2.8-2,4.4-4.2,4.9c-4.9,1.2-9.8,3.2-14.8,0.3c-1-0.5-2,0.2-3,0c-1.2-0.2-2.4,0-4.3-0.9
		C886.3,504.7,895.4,507.4,903.4,502.7z"/>
	<path d="M890,541.9c1.9-5.6-2-10.2-2.5-15.4c-0.1-1.3-0.6-2.6-0.8-4c-0.1-0.7,0.2-1.3,1-1.5C891.2,524.1,892.9,537.1,890,541.9z"/>
	<path d="M888.4,551.1c-0.2-3.8-0.2-4.1,1.1-6.1C891,546.8,891,546.8,888.4,551.1z"/>
	<path d="M907.1,509.5c-1.8-1.9-1.9-4-0.9-7C907.6,505.1,907.4,507.3,907.1,509.5z"/>
	<path d="M860.7,494.8c1.8-0.1,3.7-0.4,5.6,1.2C863.8,497,862,497.2,860.7,494.8L860.7,494.8z"/>
	<path d="M909.3,516c-0.6-1.7-1.5-3.3-1.5-5.7C910.3,512.1,910.1,513.9,909.3,516z"/>
	<path d="M874.4,604c-0.2-2.2,0.9-4,1.9-5.8C875.9,600.2,876.6,602.6,874.4,604L874.4,604z"/>
	<path d="M904.7,500.8c0-1.9,0.1-3.8,2.6-4.1C906.2,497.9,905.6,499.4,904.7,500.8z"/>
	<path d="M852,492.3c1.8-0.6,2.6,0.3,4.1,1.1C854.2,494,853.3,493.5,852,492.3z"/>
	<path d="M864.9,508.4c1.5-0.2,2.7-0.5,4.3,0.3C867.6,509.6,866.4,510.3,864.9,508.4z"/>
	<path d="M885.9,556.6c0.3-1.7,0.9-2.6,1.8-3.3C887.7,554.9,887.7,554.9,885.9,556.6z"/>
	<path d="M873,508.2c0.7-1.1,1.4-1.4,2.5-0.8C875.1,508.7,874.3,508.8,873,508.2z"/>
	<path d="M864.4,597.1c0.8,1.9,0.7,3-0.1,4.4C863.5,600,864.1,599,864.4,597.1z"/>
	<path d="M860.8,494.7c-1,0.7-2,0.7-3.2-0.3C859,493.8,859.9,493.7,860.8,494.7L860.8,494.7z"/>
	<path d="M879.4,568.1c0.3,0.9-0.1,1.2-0.7,1.2C878.2,568.7,878.7,568.4,879.4,568.1z"/>
	<path d="M794.1,492.2c2.1-2,31.5-10.3,34.6-10C817.5,485.9,806.6,490.2,794.1,492.2z"/>
	<path d="M735.2,501.4c-5-3.2-6.2-8.1-2.6-10.9C732.5,494.5,732.5,498.2,735.2,501.4z"/>
	<path d="M802.1,483.3c0.3-1.4,1.6-1.8,2.6-2.4c2.6-1.5,5.2-2.9,8.2-4.5C811.5,479.3,806.9,482.1,802.1,483.3L802.1,483.3z"/>
	<path d="M777.9,478.8c3.3,2.1,5.7,5,8.6,7.5C782.5,485.1,780,482.2,777.9,478.8z"/>
	<path d="M822.8,518.2c-2.7,1.9-5.9,2.6-9.1,3.1C816.3,519,819.6,518.7,822.8,518.2z"/>
	<path d="M802.1,483.3c-0.4,0.4-0.8,0.7-1.4,1.3C800.8,483.4,801.5,483.4,802.1,483.3L802.1,483.3z"/>
	<path d="M884,424.3c-1.1-2.9-4.8-4.1-5.2-7.5C880.3,419.5,883.6,420.9,884,424.3z"/>
	<path d="M886.7,426.6c1.9,1.4,3.5,2.9,3.4,6.1C887.2,431.2,887.1,428.8,886.7,426.6z"/>
	<path d="M915.2,391.8c0.7,0.8,0.1,1.1-0.4,1.6C914.5,392.7,914.3,392.1,915.2,391.8z"/>
	<path d="M917.3,367.7c0.2-1.3,0.8-1,1.5-0.9C918.5,367.9,918,368,917.3,367.7z"/>
	<path d="M880.3,629.5c-1.2,0.1-2.3,0.2-3.5,0.2c-2.4-0.1-4.1-2-4-4.2c0.2-2.2,2.3-3.9,4.5-3.6c2.5,0.3,4,2.4,3.6,4.8
		C880.8,627.5,880.6,628.3,880.3,629.5z"/>
	<path d="M868.2,629c-2.3,0-4.2-1.8-4.2-4c0-2.1,1.8-3.8,3.9-3.9c2.2-0.1,4.3,1.7,4.4,3.8C872.4,627,870.4,628.9,868.2,629z"/>
	<path d="M862.6,628.1c-1.3,0.1-1.6-0.6-2-1.1c-0.3-0.4-0.6-1-1.2-1.1c-1.3-0.1-0.7,2.3-2.6,1.8c-0.3-2.3,0.2-4.6,0.5-6.9
		c1.5-0.6,2.9-0.2,4.2,0.1c1.9,0.5,2.8,2,1.5,3.5C861.9,625.6,862.4,626.8,862.6,628.1z"/>
	<path d="M359,252.6c3.2,3.4,4.5,7.7,6.5,12.1C360.4,262.1,357.1,256,359,252.6z"/>
	<path d="M354.4,271.2c1.2-3.5,2.1-6.9,1-10.5c1.7-1.6,2.6-0.8,3.2,0.9c0.5,1.5,0.2,3.1-0.4,4.6
		C357.3,268.1,355.9,269.7,354.4,271.2z"/>
	<path d="M315,268.4c2.3,5.6,4.9,11.1,6,17.1C318.4,280,316,274.4,315,268.4z"/>
	<path d="M306.5,229.9c2.1,1.8,1.3,4.3,2.1,6.7C305.6,234.5,305,232.5,306.5,229.9z"/>
	<path d="M354.1,273.1c-0.5,2.6-2.4,4-4,5.7C350.4,276.2,351.2,274,354.1,273.1z"/>
	<path d="M351.9,249.1c4.2-1.6,5.4-1.3,6.6,2C356.3,249.9,354,250.4,351.9,249.1z"/>
	<path d="M302.7,239.9c-2.5-2-2.8-4.7-2.3-7.6C301.9,234.7,301.7,237.5,302.7,239.9L302.7,239.9z"/>
	<path d="M342,286.7c2-2.1,4.5-2.6,7-3.8C347.4,285.2,345.6,286.2,342,286.7z"/>
	<path d="M310.3,258.7c-0.8-2.5-2.6-4.6-2.6-7.4C309.4,253.4,309.8,256.1,310.3,258.7z"/>
	<path d="M346.8,251.2c0.7-1.7,1.7-1.9,3.4-1.5C349.1,250.7,348.4,251.5,346.8,251.2z"/>
	<path d="M302.6,240c1,0.6,1.5,1.5,1.1,3.5C303.2,241.9,302.9,240.9,302.6,240L302.6,240z"/>
	<path d="M319.6,260.8c0.9,0.9,1.2,2.1,1.4,3.3C320,263.2,319.5,262.1,319.6,260.8z"/>
	<path d="M486.7,258.5c0.1,1.7-1.3,2.2-2.5,2.9c-2.4,1.4-4.9,2.8-7.1,4.9c0.1,3.9,1.2,7.5,2.9,11.4c1.5-2,2.7-4,5.2-4.7
		c-1.1,2.9-2.6,5.5-5.1,8.2c-2.5-3.9-4.7-7.6-5-11.7c-0.4-7.1-4.2-11.7-9.4-15.7c-1.2-0.9-2.7-1.6-3-3.5c4.4,1.2,11.9,8.4,14,13.3
		c2.9-2.4,6.1-4.3,9.8-5.2L486.7,258.5z"/>
	<path d="M466.2,291.8c2.5,2.4,3,5.3,4.8,7.5C468,300,466.1,297.2,466.2,291.8z"/>
	<path d="M485.5,271c-0.5-0.6-0.4-1,0-1.3c0.3-0.3,0.7-0.4,1.1-0.7C487.4,270.5,486.1,270.5,485.5,271z"/>
	<path d="M490.4,263.8c-0.3,1.1-0.4,1.9-1.5,1.8C488.7,264.6,489.3,264.2,490.4,263.8z"/>
	<path d="M497.8,233.1c0.1-1,0.4-1.6,1.6-1.4C499.5,233,499.2,233.6,497.8,233.1z"/>
	<path d="M462,286.4c-1.1-0.1-1.7-0.4-2-1.8C461.1,284.8,461.7,285.2,462,286.4z"/>
	<path d="M464,288.6c1.3,0.2,1.2,0.9,1.4,1.7C464.1,290.1,464.2,289.3,464,288.6z"/>
	<path d="M357.2,369.8c1.8,1.1,1.7,2.7,2,4c1.7,7.1,5.7,12.5,12.2,16c3.8,2.1,5.8,5,5.9,9.5c0.1,5.5,0.6,11.1,2.8,16.3
		c0.8,1.8,0.8,3.7-1.2,5.2c-3.7-6.2-4.5-12.8-4-19.5c0.4-5.1-1.5-8.2-5.8-10.7c-5.6-3.3-9.1-8.5-10.7-14.7
		C357.9,373.9,357.1,372.1,357.2,369.8z"/>
	<path d="M439.3,407.6c2.4-1.8,5-3,8-3.5c-3.8,3-7.9,5.7-10.3,10.6c-2-3.1,0.2-4.4,0.9-6c-2.7-5.6-6.6-10.1-11.9-14.2
		C431,393.5,437.9,400.8,439.3,407.6z"/>
	<path d="M435.5,444c-9.5-1.9-18.2-5.5-26.3-10.9C418.1,436.5,426.9,440,435.5,444z"/>
	<path d="M414.8,373.2c0,7.3-0.2,14.6,0,21.9C412.2,387.8,412.2,380.5,414.8,373.2z"/>
	<path d="M409.1,399.2c-2.6-9-4-18.1-2.3-27.5C406.4,381,408.3,390,409.1,399.2z"/>
	<path d="M421.6,370.1c4,1.2,4.9,5.5,3.1,14.1C423.7,379.5,425.1,374.3,421.6,370.1z"/>
	<path d="M355.2,403.5c-1.3-5.8-2.6-11.5-0.3-17.3c1.7,2.8,0,5.7,0.1,8.5C355.1,397.6,355.2,400.6,355.2,403.5z"/>
	<path d="M430,425.6c-5.4,0.8-10.7,2.1-15.5,5.2C415.1,427,422.5,424.5,430,425.6z"/>
	<path d="M410.2,401.7c1.2,6.5,1.3,12.9-0.9,19.2C409.8,414.5,410.8,408.1,410.2,401.7z"/>
	<path d="M394,365.1c1.3-0.2,1,1.4,2,1.5c0.8-0.5-0.7-1.6,0.5-2c1.1,0.6,1.1,1.8,1.5,3.1c-1.7,0.3-3.3,1.1-4.6-0.4
		C392.8,366.5,393.1,365.5,394,365.1z"/>
	<path d="M414.5,368.9c2.9-0.9,5.9,0,8.8-0.8C420.4,368.5,417.6,369.9,414.5,368.9z"/>
	<path d="M385.2,365.1c0.7,1.1,1,1.6,0.8,2.3c-1.5,1.1-5.4,0-8-2.3C380.5,364,382.7,368.6,385.2,365.1z"/>
	<path d="M413.9,417.4c-0.1,1.1-0.8,1.8-1.2,2.6C411.8,418.3,411.8,418.3,413.9,417.4z"/>
	<path d="M369.1,369c0.5,1,0.6,1.8-0.3,2.7C368.2,370.2,368.2,370.2,369.1,369z"/>
	<path d="M390.6,368.6c-1.6-0.4-2.4-0.8-1.2-2.3C390.6,366.5,390.9,367.1,390.6,368.6z"/>
	<path d="M404,364.8c0.8,1,1.4,1.6,0.7,2.6C403.9,366.7,403.6,366.1,404,364.8z"/>
	<path d="M423.2,363.4c0.4,0.1,0.8,0.1,1.3,0.2c0,1.1-0.5,1.9-1.4,2.3C421.9,364.9,423.5,364.2,423.2,363.4L423.2,363.4z"/>
	<path d="M400.9,365.1c0.7,0.7,1.2,1.1,1,1.8C400.6,367,400.5,366.4,400.9,365.1z"/>
	<path d="M468.5,632.2c-5.3,0.2-7.3-0.8-7.3-3.8c0.1-2.4,2.1-4,4.6-3.7C468.8,625.3,469.5,627,468.5,632.2z"/>
	<path d="M452.4,627.2c0-2.2,1.7-3.8,3.9-3.8c2.4,0,4.1,1.7,4,4c-0.1,2.1-1.9,3.8-4.1,3.7C454,631,452.3,629.3,452.4,627.2z"/>
	<path d="M447.6,627.9c-1.2,0.3-0.7,1.9-2.2,1.9c-0.9-2.2,0.5-4.4,0.1-6.5c1.5-1.1,2.9-0.7,4.1-0.4c1.7,0.4,3,1.8,1.7,3.5
		c-1,1.3-0.7,2.4-0.2,3.8C449.1,630.5,449.1,628.2,447.6,627.9z"/>
	<path fill="#FFFFFF" d="M879.2,626.2c-1.4-0.2-2.7-0.2-2.2,1.7c-1.9-0.1-2.4-1.1-2.3-2.5c0.1-1.1,0.9-1.9,2-1.9
		C878.1,623.4,879.1,624.1,879.2,626.2z"/>
	<path fill="#FFFFFF" d="M868.2,627.4c-1.5-0.2-2.4-1-2.3-2.4c0-1.3,0.8-2.1,2.1-2.2c1.4-0.1,2.4,0.7,2.4,2.2
		C870.4,626.4,869.5,627.2,868.2,627.4z"/>
	<path fill="#FFFFFF" d="M858.7,622.5c1.2-0.4,2-0.5,2.7,0.3c-0.1,0.3-0.1,0.7-0.3,0.8C860,624.4,859,624.5,858.7,622.5z"/>
	<path fill="#FFFFFF" d="M467.4,628.9c-1,0.3-3-0.6-2.1,1.9c-1.9-0.5-2.5-1.4-2.2-2.9c0.2-0.9,1-1.6,2-1.5
		C466.4,626.4,467.4,627.1,467.4,628.9z"/>
	<path fill="#FFFFFF" d="M456.2,625c1.2,0.1,2.2,0.6,2.3,2c0.1,1.5-0.7,2.4-2.2,2.4c-1.3,0-2.1-0.8-2.2-2.1
		C454.1,626,454.9,625.2,456.2,625z"/>
	<path fill="#FFFFFF" d="M450.4,625.5c-1.6,0.8-2.5,1.2-3.5-0.3C448.1,624.1,449,624.3,450.4,625.5z"/>
</g>
</svg>
