<?xml version="1.0" encoding="utf-8"?>
<!-- Generator: Adobe Illustrator 19.1.0, SVG Export Plug-In . SVG Version: 6.00 Build 0)  -->
<svg version="1.2" baseProfile="tiny" id="Layer_2" xmlns="http://www.w3.org/2000/svg" xmlns:xlink="http://www.w3.org/1999/xlink"
	 x="0px" y="0px" width="900px" height="600px" viewBox="144 97 900 600" xml:space="preserve">
<g>
	<path d="M975.7,369c2.3,0.7,5.3-0.8,6.3,2.4c1.2,3.6-1.5,5.8-3.7,8.6c4.3,0.5,8.2,0.9,12.2,1.3c12.5,1.3,25.1,2.5,37.6,3.9
		c7.6,0.9,11.4,9.3,7.3,15.8c-0.6,1-1.4,1.9-2.5,2.2c-3,0.9-5.8,2.3-9.3,1.9c-16.5-2.1-33-4-49.6-5.9c-0.5-0.1-1.1-0.1-2.2-0.2
		c0.2,3.2-1.5,5.8-1.4,8.8c0,1,0,2.1-0.7,2.9c-1.7,1.7-2.3,3.8-2.8,6c-3,11.4-10.2,20.3-16.8,29.7c-5,7.1-11.7,11.1-19.3,13.9
		c-5.6,2-11.2,3.8-17.7,2.4c-5.2-1.2-10.7-1-15.8-3.8c-3.6,5.5-7.4,10.7-10.5,16.3c-3,5.1-5.3,10.6-8,16c-0.7,1.4-0.9,2.7-0.1,3.9
		c-0.5,0.9-1.2,0.9-1.9,0.7c-4.4-1-8.7,0-13.1,0.4c-0.8,0.1-1.5,0.3-2.1,0.8c-6.3,5.2-13.1,9.9-18.1,16.5
		c-4.1,5.4-4.6,11.8-4.5,18.2c0,0.7,0.5,1.5,0.9,2.1c3.5,5.4,5.5,11.5,7.8,17.5c2.8,7.4,2.4,15.3-0.2,22.8
		c-1.5,4.5-2.7,8.9-3.3,13.7c-1.5,12-4,23.9-7.1,35.7c-0.8,3-1.5,6.1-2.6,9.3c2.7,0.1,3.3,2,3.4,3.9c0.4,5.3,2.5,10.2,2.8,15.5
		c0.2,2.7,2,5.2,2.5,8c0.8,4.1-0.6,6.8-4.5,8.1c-1.4,0.5-2.8,0.7-4.3,0.8c-5.4,0.4-9.7,2.5-13.3,6.9c-3.2,4.1-8.2,5.8-13.1,7.2
		c-1,0.3-2,0.3-2.9,0.7c-8.1,3.6-15.8,1.7-23.5-1.4c-1.7-0.7-3.3-1.3-5-2c-4.8-1.8-5.8-6.3-3.3-10.8c2.1-3.9,5.1-5.5,8.9-6.9
		c4.1-1.5,7.2-4.6,10.2-7.8c1.8-1.9,3.8-3.6,5.5-5.6c2.2-2.6,4-5.6,5.3-8.8c0.8-2.1,1.9-4.1,2.5-6.2c0.6-1.8,2.2-2.5,4.1-2.4
		c4.3,0.2,8.5,0.6,11.9,3.7c3,2.7,6.4,2.9,10.2,1.2c1.9-13.2,6.4-26,8.3-39.3c0.5-3.2,1-6.4,1.3-9.7c0.6-5.5,2.6-10.7,3.6-16.1
		c1.2-6.3,2.6-12.6,1-19.2c-0.5-2.1-1.1-4.2-2.3-5.9c-2.5-3.5-4.2-7.4-6-11.3c-1.4-2.8-2-5.7-0.5-8.7c0.3-0.5,0.4-1,0.3-1.6
		c-0.7-3.5,0.2-6.9,1.3-10.3c-1.3,1.2-2.7,2.5-4,3.8c1.5,3-0.3,5.4-1.3,8c-0.4-3.4-1.4-6.9,1.3-10c2-2.3,3.9-4.6,5.8-7
		c0.6-0.8,1.5,0.4,2.1-0.3c4-4.5,8-9,13.2-12.6c-10.4-2.1-20.4-3.8-30.6-4.6c-6.1-0.5-11.6-3.3-16.9-6c-4.6,5.8-6.8,12.1-4.1,19.3
		c0.6,0.3,1.2-0.8,2,0.4c-2.8,3.6-4.7,7.9-5.4,12.7c-1.4-2.1-1.2-4.3-0.3-6.3c0.9-2.1,1.1-4.1,0.6-6.2c-0.8-3.9-1.1-7.8,0.2-11.9
		c-1.8,1.3-3.6,1-5.4,0.5c-2.6-0.7-5.2-0.1-7.7-0.4c-1.2-0.2-1.9,0.6-2.6,1.4c-5,6-10.6,11.3-16.5,16.1c-0.9,8.2,1.1,15.9,2.2,23.6
		c1.6,10.6,1.9,21.1-2.3,31.2c-4.3,10.6-4.7,21.9-5.3,33c-0.2,3,0.2,6.1,0.4,9.1c0,0.3-0.1,0.8,0,1c3.5,3.5,1.1,8.4,3.3,12.3
		c2.1,3.8,2.4,8.3,3.5,12.6c0.6,2.4,2.7,4.1,3.1,6.8c-3.3,1.7-6.5,3.4-9.8,5c-5,2.3-10.2,3.3-15.8,2.1c-3.3-0.7-6.4-0.1-9.5,1.3
		c-5.7,2.7-11.4,5.3-17.3,7.5c-5.7,2.1-11.3,0.7-16.5-1.9c-3-1.5-6.2-2.9-8.5-6.7c3.5,1.8,6.5,3.3,9.3,4.9c5.3,3,10.8,2.4,16.3,0.7
		c4.4-1.4,8.6-3.3,12.9-5c0.8-0.3,1.8-0.5,2.5-1.1c3.5-3.2,7.5-2.9,11.7-2.4c7.9,1,14.8-0.9,21.3-5.7c-3-8-4.4-16.4-7.3-24.2
		c-1.9,7.1-6.8,9.1-13.4,5.5c-2.2-1.2-4.4-2.2-6.5-3.3c-4.2,2-8.2-1.2-12.7-0.2c3.5,1.8,7.6,0.3,10.9,3.6c-4.6,1.3-8.6-0.5-12.6-0.5
		c-0.9,0.4-1.3,1.3-2,2.1c3.4,1.8,7.3,0.5,10.6,2.4c-2.9,1.1-5,4-8.7,2.3c-2.3,7.2-7.4,4-11.9,3.5c-2.5,2.4-5.7,3.4-8.9,4.5
		c-2.8,1-4.8,2.8-6,5.5c-1,2.5-3.7,3.7-4.4,6.4c-0.6-0.3-0.9-0.5-0.9-0.5c0.9-7.3,0.2-11.8,9.1-13.7c7.2-1.5,12.2-6.5,17.6-10.7
		c1.6-1.2,2.9-2.8,2.8-5.1c0-0.5,0.3-1.1,0.6-1.6c1.8-2.7,4.6-4.9,5-8.5c0.1-0.7,1.1-1.1,2.1-1.3c1,0.8,2.1,1.8,3.6,1.8
		c1.9-1.4,1.9-3.4,2.2-5.6c0.7-6.5,1.1-13,0.1-19.5c-1-6.2-2.7-12.3-3.7-18.5c-1.7-10.5-3.2-21.1-4.3-31.7
		c-0.6-5.8,0.6-11.7,1.2-17.6c0.2-1.7-0.3-3.2-0.9-4.6c-2-4.8-1.9-9.9-1.9-14.9c0-2.3,0.8-4.4,2-6.3c2.8-4.6,5.5-9.2,8.4-13.8
		c1.6-2.5,2.7-5.1,3.8-7.9c2.3-5.9,5.1-11.5,8.4-16.9c2.1-3.4,5.6-5.7,7.6-9.5c-8.3-0.9-16.2-3.7-24.4-4.9
		c-5.4-0.8-9.6-3.6-13.2-7.9c-3.6-4.4-8.1-8.1-12.4-11.9c-1.8-1.6-2.6-3.9-4.1-5.7c-0.7-0.8-0.5-1.8,0.6-2.6c-3-0.5-5,1-7.2,2.1
		c-3.3,1.7-6.8,3-10.6,2.1c-1.8-0.4-3.5-1.3-3.7-3c-0.4-3.3-2.7-5.6-4.6-7.9c-1.8-2.1-2.1-4.2-2.1-6.7c-7.2-0.1-4-5.8-5.1-9.5
		c-7.4-1.7-15.4,0.4-22.6-3.3c-3,4.3-5.3,8.4-8.5,11.9c-3.8,4.1-6.6,9.4-12.1,11.9c-4.9,2.2-9.3,5.5-14.9,6
		c-13.9,1.4-27-0.9-37.9-10.3c-7.4-6.5-13.2-14.1-16.4-23.8c-3-8.9-5.2-17.9-5.5-27.3c-2.6-0.9-5.4-0.6-7-3c-0.9-1.4-1-3-0.8-4.6
		c0.5-4.2,4-6.8,8.8-6.7c1.1-6.4,2.1-13,6.2-18.2c6.4-8.1,12.7-16.3,21.2-22.8c9.2-7.1,19.5-7.7,29.8-7.9c5-0.1,10.6,0.2,15.4,2.8
		c0.2,0.1,0.4,0.2,0.6,0.3c8.6,5.9,18.2,10.7,22.4,21.3c0.9,2.3,2.4,4.3,3.5,6.5c1.6,3.2,2.8,6.6,2.8,10.3c-0.1,6.2,1,12.3,1.7,18.4
		c4.4,1,5.1,0.7,6.6-2.5c2-1,4.4-0.1,7-0.8c-2.3-2.4-5.7-2.5-7.3-5.7c2,0.6,3.5,1.2,5.2,1.7c5.5-2.7,11.2-5.4,17-7.8
		c2.9-1.2,6.1-2.9,9-2.4c4.3,0.7,8.5,0.5,12.8,0.3c0.5,0,1.1,0.6,1.7,1c1.4-1.9,3.8,0,4.9-1.5c1.4,0.5,1.3,1.4,1,2.3
		c1.6,0.2,2.9-2,4.5-0.1c-0.2,2-2.4,2.1-3.5,3.2c1.8,2.4,4.3,4,6.7,5.7c2.2,1.6,3.4,3.6,3.6,6.5c0.1,2.4,0.2,4.9,1.3,7.6
		c44.9,4.6,89.9,9.2,135.3,13.9c0.5-3.7,1.4-7.2,1.8-10.7c1.3-9.2,5.3-17.3,9.9-25.2c0.3-0.6,0.7-1.1,1.1-1.7
		c4.6-7.8,10.9-14,18.2-19.2c2.4-1.7,4.9-3.3,7-5.2c5.3-4.7,11.7-5,18.1-4.9c4.7,0.1,9.6,0.5,13.9,2.1c4.7,1.7,9.3,3.9,13.6,6.6
		c8.4,5.1,12.4,13.4,16.3,21.7C971.7,343.7,974.4,356,975.7,369z"/>
	<path d="M312.2,129.5c-2.5-0.4-3.1,1.5-3.6,3.2c-1.8-0.2-1-1.4-1.2-2.2c-4.5-0.9-9-0.6-13.4,0.3c-2.4,0.5-4.4-0.3-6.5-1
		c-1.1,1-0.7,2.3-0.8,3.5c-0.4,3-0.2,6.1-2.2,8.7c-0.8,1.1,0.3,2.1,0.1,3.1c8.8,3.7,10.4,6,7.9,11.7c-0.8-1.3-0.1-2.8-1-4
		c-2.3,0.9-4.4-0.3-6.8-0.9c-0.7-2.6-1.4-5.2-2.1-7.8c-0.1-0.5-0.3-1.3,0-1.6c1.4-2.1,1.4-4.5,1.7-6.8c0.3-2.2,0.5-4.5,0.7-6.9
		c-1.7-3-5.3-3.8-7.9-6.2c-0.1-1.2,0.2-2.6-0.5-3.9c1.7-1.3,3.6-0.3,5.4-0.6c-1.1-1.5-3.4-1.3-3.7-3.5c2.3-1.9,4-0.1,5.9,1
		c0.3-2.4-0.8-4.8,0.9-7.2c1.6,1.1,2.4,2.9,4.3,3.7c-0.1,0,0.1,0,0.1,0c0.2-0.5,0.3-0.9,0.5-1.4c4.2-1.5,7.8,2.1,12.1,1.2
		c4-0.9,8.2-0.2,12.4,0c1.3,0.6,1.2,2.7,3,2.7c1.1-0.3-0.1-2,1.6-2.5c2.5,2.5,5.4,4.9,9.9,5c1.7-0.8,3-3.8,6.1-2.4
		c0.6,1.8-1.5,2.3-1.8,3.7c1.9,1.4,1.8,3.8,2.6,5.8c-0.9,0.6-2.2,0-3,1.1c0.7-1.1,2.1-0.4,2.9-1.1c0.4,0.1,0.9,0.1,1.5,0.2
		c-0.7,1.9-0.1,3.7,0.9,5.1c1.1,1.5,1.5,2.9,1.7,4.6c0.1,1.2,0.5,2.4,1,3.5c2.4,5,2,10-0.6,14.9c-0.4,0.7-1.2,1.4-0.9,2.1
		c1.6,4.3-1.4,7.7-2.1,11.5c-0.3,1.8-1,3.4-0.8,5.3c0.1,0.9-0.2,1.8-0.7,2.6c-3.6,5.1-1.3,10.8-1.5,16.2c-0.1,1.9,2.5,3.4,4.5,4.2
		c3.1,1.3,6.2,2.7,9.4,3.7c4.3,1.3,8.3,3.4,12.1,5.8c1,0.6,2.1,1.3,2.2,2.5c2.7,0.5,5.1,0.8,7.7,0.5c1.7-0.2,3.5-0.2,5,0.3
		c8.6,2.8,17.6,1.9,26.4,2.4c21.6,1,43.1,1.5,64.7,2.3c1.1,0,2.2,0,3.5,0c0.6-4.7,1.3-9.2,1.7-13.7c0.8-8.1,4.2-15.3,7.7-22.5
		c0.3-0.6,0.7-1.2,1-1.8c4.1-8.1,9.9-14.7,16.8-20.5c2.4-2,5-3.8,7.3-6c6-5.7,13.5-6.1,21.1-5.8c3,0.1,6,0.6,9,0.8
		c0.6,0,1.2,0,1.7,0.2c6.1,2.7,12.7,4.5,18.2,8.6c3.3,2.5,5.7,5.8,7.9,9.1c9.2,13.5,14.6,28.5,17.1,44.5c0.9,0.7,1.9,0.3,2.9,0.3
		c3-0.1,4.6,1.8,3.9,4.7c-0.3,1.1-0.7,2.1-1.3,3.1c-0.5,0.9-1.2,1.6-2.1,2.8c4.9,0.2,9.4,0.5,14,0.6c12.1,0.5,24.3,0.7,36.4,1.4
		c7.6,0.4,11.9,9.1,7.8,15.4c-2.1,3.2-5.8,4.7-9.6,4.5c-15.1-0.6-30.1-1.4-45.1-2.1c-2.8-0.1-5.6,0-8.6,0c0.4,3.1-1.3,6-0.8,9.2
		c0.1,0.6,0,1.5-0.4,1.9c-2.3,2.7-2.5,6.2-3.3,9.4c-2.5,10.4-8.7,18.8-14.1,27.8c-6.6,11-17.1,15.2-28.4,18.6
		c-3.9,1.2-7.8-0.5-11.7-0.2c-3.4,0.3-6.6-0.7-9.9-1.7c-5.9-1.8-10.4-5.8-14.4-10.1c-5.5-6-11.2-12-14.4-20c-1.6,1.2-2.9,1.9-4,3
		c-4.9,4.7-11.1,7.6-16.8,11.1c-4.2,2.6-9.3,3.4-13.9,5.1c-2,0.7-4.2,0.7-5.9-0.3c-3.9-2-8.4-2.5-12.3-4.4c-2.9-1.5-6.1-2-9.4-2.1
		c-6.6-0.2-12.4-3.2-17.8-6.7c-5.6-3.7-11.9-6.3-17.8-10.5c-2.1,10.8-2,21.7-8.7,30.8c1.5,1.4,1.6,2.9,1.7,4.5
		c0.3,4.7,0.5,9.4,0.2,14.2c-0.1,1.3,0,2.4,1.5,3.2c-1.6,1.4-1.8,2.9-1.7,4.7c0.2,4.5,0.9,8.8,2.3,13.1c1.9,5.7,3.2,11.7,4.8,17.5
		c-0.5,0.9-1.2,1-1.4,1c-2.4-7.6-5.9-14.4-6.9-22.4c-7.2,2.5-13.7,4.6-20.6,5.4l0.1,0c0.8-1.2,2.2-1.3,3.5-1.7
		c5.2-1.6,10.6-2.9,15.5-5c0.4-1.3-0.4-2.1-0.5-3.2c-2.3,0.8-4.1,2.1-6.7,2.1c2.1-1.7,4.6-2.2,6.4-3.8c0.4-1.4-0.2-2.7-0.4-4.4
		c-7.1,2.6-14.4,3.4-21.5,5.4c6.8-3.2,14.4-4.4,21.3-7.4c0.9-5.4,1.2-10.7,0.3-16.1c-0.8-4.8,0.1-9.6,2.6-14.8
		c-6.2,4.5-12.2,6.3-18.7,1.9c-3.4,2.7-7.2,4.1-11.8,4c3.1-1.9,6.5-3,8.8-5.9c-0.9-2.5-2.5-4.2-4.8-5.6c-4.6-2.6-8.1-6.4-11.2-10.6
		c-6.9-9.4-11.6-19.7-12.8-31.3c-0.4-4.4,0.2-8.7,1.6-12.9c1.5-4.5,3.1-8.9,5.5-13c3.2-5.6,4.4-12,7.2-17.4
		c-0.7-2.1-2.2-0.9-3.3-1.4c-3.7-1.8-5-4-4.9-8.7c0.1-3,0.1-6.1,0.1-9.1c0-0.3-0.2-0.6-0.4-1.2c-4.7,3.3-9.3,6.6-14.4,10.1
		c0.7-3,0.7-3,10.8-9.6c1.2-3.9,3-7.7,2.4-12.1c2.2,0.4,1.8,2.2,2.6,3.8c0.7-2.4,0.5-4.3-1.3-6.1c1.7-0.8,4.1-0.4,3.8-3
		c-0.8-0.2-1.9,0.4-2.8-0.9c0.1-1.8-0.4-3.9-0.8-5.9c0.3-0.3,0.4-0.6,0.6-1c-0.2,0.3-0.4,0.7-0.5,1.1c-1.1,1.8-1.5,3.8-1.9,6
		c-3-3.3-3.6-7.7-5.3-11.5c-1.7-3.9-4.8-7.2-6-10.8c-1.5-1.2-2.7-0.2-3.7-0.7c0.5-2.1-2.3-1.3-2.5-2.9
		C310.9,132.5,311.5,131,312.2,129.5c0.3-0.3,0.7-0.4,1.1-0.4C312.9,129.2,312.5,129.3,312.2,129.5z"/>
	<path d="M370.2,525.1c-2.6-1.8-4.1-4.3-5-7.3c-1.1-3.4-1.5-7.1-4-10c-6.1-1.2-12.5-1.7-17.3-6.7c-3.1,5.5-3.4,11.3-1.7,17.3
		c0.9,3,1.4,6.1,2.1,9.2c0.5,2.1,0.6,4.3,0.3,6.4c-1.3,7.7-2.6,15.5-5.6,22.8c-3.3,8-5.7,16.3-8.2,24.6c-2.4,7.9-0.8,15.9-2.7,23.8
		c4.3,0.4,3,3.4,3.1,5.6c0.1,2.2,1.3,4.8-1.2,6.2c-0.4,1.6,0.7,2.3,1.4,3.2c2,2.4,3.4,4.9,2.9,8.3c-0.4,2.5,2,4.1,2.9,6.2
		c-1.8,3.5-4.3,5.7-8.3,6.6c-6.2,1.4-12.4,3.8-18.8,3.1c-6.3-0.7-10.3,3.5-15.2,5.8c-6.4,3-12.9,5.4-20.2,4.9
		c-1.9-0.1-3.8-1.3-5.5,0.8c-0.4,0.5-1.5,0.2-2.3-0.1c-4.5-1.6-7.7-4.8-11.5-8.1c2.5-1.3,0.1-4.2,2.5-5.3c1.7-7,7.5-8.2,13.3-9.1
		c2.8-0.5,5.5-1.3,7.1-3.4c3.4-4.5,7.8-8,12-11.6c1.4-1.3,3.1-2.4,3.1-4.6c0-1.3,1.5-0.6,2-1.3c0-2-2.5-4.2,0.6-6.1
		c1.6,0.6,3.2,2.3,5.7,1.2c0.6-1.2,0.8-3.2,3-3.2c0.6-5.5,1.1-10.7,1-16c-0.1-4.7,0.1-9.4,0.7-14.1c0.8-6.8-0.6-13.4-0.8-20.2
		c-0.5-12.6-1-25.1,1.7-37.5c0.3-1.5,0-3.2,1.1-4.6c-2.9-3.1-3.2-7.1-4.2-11.1c-4.6-0.5-8.7-2-12.3-5c-0.9-0.8-2-1.5-2.8-2.4
		c-2-2.4-3.2-5-2.2-8.3c1-3.1,1.1-6.4,1-9.7c-0.4-11.6,0.6-23.2,0-34.7c-0.1-1.4-0.2-3,0.9-4.2c0.6-0.7,0.6-1.5,0.4-2.2
		c-1.4-7.9-0.9-15.9-1.8-23.9c-0.3-3-0.6-6-0.1-9c1.3-7,0.3-14.1,0.8-21.2c0.1-1.5,0.4-2.8,1.5-3.9c1.6-1.7,2.3-3.8,3-6
		c0.4-1.4,1-2.7,2.4-3.7c-1.7-1.7-3.3-3.3-3.2-5.9c0.4-0.1,0.8-0.2,1.2-0.2l-0.1-0.1c3.4,4.7,7.8,7.6,13.6,8.5
		c2.2,0.4,4.3,1.8,6.9,1.3c-1-3.3-4.1-5.2-5.3-8.4c0.1-0.1,0.2-0.2,0.3-0.3c2.6,2.6,4.8,5.5,6.6,8.9c6.6,0.2,13.2-0.4,20.3-1
		c-2.4-3.8-5.7-6.1-8.3-9c-0.1-0.2-0.2-0.4-0.3-0.6c0.2,0.1,0.4,0.2,0.6,0.2c3.5,2.4,6.5,5.5,9.7,8.9c7.9-0.1,14.7-3.4,21.2-7.9
		c0.5-0.4,1.1-0.8,1.7-1c5.5-2,11-3.9,16.5-5.8c0.8-0.3,1.7-0.7,2.6,0.3c-0.2,1.9-3.3,1.6-3,4.1c1.3-0.9,2.4-2.1,4.2-2.3
		c2.4,2.3,6,2.5,8.1,4.1c4.2,8.8,4.6,17.6,5.5,25.6c0.6,1.4,1.5,0.8,2,1.4c0,0.2,0.2,0.5,0.2,0.9c0.3,6.9,1.7,13.6,2.3,20.4
		c0.2,2,0.2,4,0.2,6.1c0,1.5,0.1,3-1.9,3.5c2,8,3.2,15.9,3.7,23.9c0.5,8.8-0.6,17.5-1.2,26.2c-0.2,2.5,0.2,5.2-1.1,7.6
		c-0.4,0.8,0.2,1.7,0.4,2.6c1.8,6.6,2.8,13.4,3.8,20.2c0.1,1,0.6,2-0.7,2.7c-1.8-0.8-1.9-2.6-2.2-4.1c-1.3-6.3-1.8-12.7-2.7-19
		c0-0.1,0-0.2,0-0.3c-2-7.3-0.1-14.6,0.3-21.9c0.4-7.8-0.1-15.5-0.5-23.2c-0.2-5.6-1-11.2-1.1-16.8c-0.1-15.5-2.4-30.7-6.9-45.5
		c-0.8-2.8-1.3-5.7-2-8.5c-1.8-0.7-3.5-1.4-5.4-2.1c-0.6,0.1,0,1.1-0.7,1.3c-1.1,0.2-1.9-1.4-3.2-0.4c-1.9,4.4-7.2,4.6-10.3,7.7
		l0.1-0.1c-1.8,0.3-3.4,1-5.1,2c-0.9,6.7-0.8,13.1,3.8,18.9c-2.8-0.6-3.3-3.1-4.5-4.8c-1.4-2-2.5-4.3-3-6.7
		c-0.4-2.3-0.6-4.6-0.8-6.8c0.7-0.6,1.4-1.2,2.1-1.8c0.7-1.1,2,0.4,3-1.1c-0.8-0.9-1.7-1.9-2.5-2.8c-1.9,0-1.7,1.7-2.1,2.6
		c-4.1-0.1-4.1-0.1-7,1.5c0.7,0.5,1.3-0.2,1.9-0.3c0.5-0.1,1.1-0.3,1.7,0.2c-0.4,1.6-2.3,1.4-3.3,2.4c-0.2,1.1,1,0.7,1.6,1.7
		c-5-0.1-9.9-2-14,1.2c-0.4,2.5-0.7,4.7-1.1,7.5c-1.3-1.4-0.5-2.4-0.4-3.3c0.2-3-0.8-4.3-3.8-4c-4.5,0.4-8.9,1.1-13.4,1.1
		c-0.8,0-1.2,0.4-1.4,1.2c0.1,0.2,0.1,0.4,0.2,0.6c-0.2-0.1-0.4-0.2-0.6-0.3c-1.5-0.5-1.3-2.5-2.2-2.9c-1.9-0.4-1.1,2.6-3,1.4
		l0.1,0.1c-1-2.8-1.6-3-3.6-1.1c-0.6,0-0.6-0.6-0.7-0.9c-0.2-0.4-0.4-0.8-0.5-1c-1.2-0.8-1.2,1.1-2.1,0.7c-0.8-0.3-0.3-1.5-1-1.8
		c-1.2,0.6-0.4,1.8-1.2,2.5c-1.6-0.4-1.7-1.8-2-3.6c-0.3,2-0.9,3.5,0.7,4.7c-2.2,2.4-2.5,12-0.7,18.6c-1.7-0.4-2-1.8-2.4-2.9
		c-1.4-4.8-3.3-9.6-1.5-14.8c0.2-0.7-0.2-1.3-0.7-1.8c0.1-0.5,0.6-0.9,0.5-1.5c-0.1,0.5-0.4,0.9-0.9,1.2c-0.7-0.8-1.9,1.7-2.4-0.1
		c-1.2,1.1-2.4,2.2-3.7,3.3c-0.2,2.2-0.3,4.4-0.5,6.7c-0.1,2.2-0.3,4.4-0.9,7c1.8-0.8,0.9-2.9,2.6-3.3c0.4,2.2,0.2,4.2-0.5,6.5
		c-1.2,4.2-1.8,8.8-1.2,13.3c0.4,3.1,0.6,6.3,0.6,9.4c-0.1,10.8,0.1,21.6,0.8,32.4c0.4,6.4-0.1,12.8-1.1,19.1c-0.3,2.1,0,4,0.1,6
		c0.2,4.9-0.5,9.6-2.4,14.4c6.2,5,12.6,8.8,21.2,8.7c8.6,0,17.3-0.7,26.5-0.2c-2.7,2.5-5.5,3-8.5,3.5c-1.2,0.4-1.1,2.2-2.6,2.3
		c-1.1-0.3-0.3-1.4-1.1-2.1c-5.4,0-11,0-16.8,0c0.3,1.2,0.3,2.6,0.9,3.6c2.8,5.2,2.4,10.6,1.2,16c-1.2,5.6-1.6,11.1-1,16.7
		c0.6,5.4-0.5,10.8,0.1,16.1c1.2,10.9,0.8,21.7,0.5,32.6c-0.1,2.6,0.1,5.2,0.5,7.7c0.4,2.8-0.4,5.3-0.7,8c-0.1,1-0.5,1.9-1.6,2.4
		c-1.5,0.6-1.8,1.9-1.6,3.4c3.2,2.6,7.1,3.7,11.1,5.1c1-0.5,2-1.1,3.2-1.7c-1.2-3.4-0.8-6.4,1.5-9.1l-0.1-0.1
		c1.4,2.4,0.4,5.1,0.9,7.8c1.4,0.2,2.5-0.6,4-0.9c-0.6-4.3,0.5-8.5,0.5-12.7c0-5.7,1-11.2,2.4-16.6c2.1-8.1,5.1-16,8.4-23.7
		c2.1-4.8,1.9-10.4,3.3-15.4c2.3-7.9-0.3-15.3-1.6-22.9c-0.4-2.1-0.6-4.2,0.2-6.3c1.2-3.5,0.5-7.4,1.3-11c1.3-6.4,1.2-6.5-1.5-13.3
		c-1.3,1.2-1.5,3.6-4.3,3.7c3.2-3.8,4-7.8,3.1-12.3c-1.3-6.7-0.7-13.7-3.9-20.1c-0.2-0.4-0.4-0.8-0.6-1.2c-0.5,0.2-0.9,0.3-1.4,0.5
		c1.1-4.6-2.2-7.3-4.3-10.7c-2.7,3.4-4.2,7.2-6.5,10.6c1.1-3.7,3.1-6.9,4.3-10.5c1.2-3.5,2.4-6.9,0.4-10.6c1.8,1.2,5.2,7.6,5.4,10
		c0.1,0.9,0.3,1.7,0.8,2.5c5.6,8.6,7.8,18.3,8.7,28.4c0.6,6.5,2.7,12.7,4.6,18.9c0.5,1.8,1.6,2.8,3.3,3.5c4.4,1.6,8.8,3.4,13.2,5.1
		c0.7,0.3,1.4,0.9,2.2,0.3c1.2-0.9,2.4-0.4,3.6-0.2c10.9,2.3,21.7,0.3,33-1.4c1.9,2.1,2.8,5.1,3.4,8.1c0.4,2.3,0.7,4.7,0.4,7
		c-0.6,5.4,1.2,10,3.6,14.7c2.4,4.7,2.4,10.2,2.4,15.5c0.1,9.8-1.2,19.4-3.7,29c-1.9,7.5-2.9,15.2-4.6,22.8
		c-1.9,8.7-3.6,17.5-6.6,25.9c-0.6,1.7-0.6,3.8-3.1,4.3c-1.1-1.3-0.8-2.7-0.5-4c2-7.7,3.7-15.4,6.1-23c3.7-11.8,5.6-23.8,7.4-35.9
		c0.8-5.3,0.5-10.8,1.5-16.1c1.6-9.2-1.2-17.3-4.3-25.4c-1.5-4.1-1.3-8.4-1.9-12.6c-0.4-2.8-1.1-5.5-2.2-8c-1.3-0.5-2.4,0.1-3.3,0.6
		c-7.6,3.9-15.8,4-24,3.8c-2.2-0.1-4-1.9-6.6-1.8c1,3.3,2.1,6.4,3,9.6c0.4,1.3,1.4,2,2.2,2.8c1.1,1.1,2.4,2.1,2,3.9
		C371.3,525.2,370.7,524.9,370.2,525.1L370.2,525.1z"/>
	<path d="M292.8,360.5c-0.3-0.4-0.7-0.7-0.7-1.1c0.1-7.5-3.9-14-4.5-21.5c-0.6-8.5-4.2-16.5-7.2-24.5c-2.5-6.8-5.6-13.4-5.5-21
		c0.1-2.7-1.5-5.4-0.7-8.2c-1.3-2.4-2.7-4.6-4.5-6.4c-2.6-2.4-3.2-5.5-3.2-8.8c-0.1-3.1-0.4-6.3,0.3-9.6c-3.7-5.2-8.3-9.7-13-14.8
		c-2.5,5.2-6,8.9-8.8,13.3c-0.9,1.4-1.8,2.9-3.1,3.9c-7.1,5.5-14.3,10.4-23.9,11.1c-7.5,0.6-14.6-0.1-21.6-2.3
		c-9.8-3.1-17.3-9.6-23.2-17.7c-6.9-9.4-11.1-20.2-12.8-31.8c-0.3-1.9-0.6-3.8-1-5.6c0-0.2-0.2-0.4-0.4-0.8
		c-2.3-0.3-4.8-0.2-6.6-2.1c-1.1-1.2-1.3-2.9-1.4-4.4c0-4.2,3.7-7.4,8.4-7.5c0.6-6.8,1.3-13.8,5.4-19.5c5.9-8.2,11.5-16.6,19.3-23.5
		c7.5-6.6,16.2-7.5,25-9.5c5.1-1.1,10.3,0.1,15.4,0.4c4.2,0.2,7.8,2.8,11.1,5.4c0.8,0.6,1.5,1.4,2.5,1.6c3.8,0.5,6.4,3,8.5,5.6
		c4.7,5.9,9.2,11.9,12.3,18.9c0.8,1.9,1.4,3.8,1.5,5.8c0.4,6.3,1.8,12.4,3.1,18.9c9.9,0,19.8,1.1,30,0.5c-0.7,2.1-1,4.3-2.2,6.3
		c-1.9,3.1-2.9,6.6-4.4,9.8c-2.6,5.4-1,9.9,2.4,14.3c1.3,1.7,2.7,3.1,5.2,2.5c1-1.4,1.8-3.1,3.6-4.4c0.7,1.7-0.4,3.1-0.4,4.7
		c2.2,0.6,4-0.6,5.8-1.6c0.9,0.8-0.3,1.2,0,1.9c3.2-0.9,5.9-2.6,8-5.2c1.9-2.4,3.4-5,4.8-7.7c4.4-8.5,9.9-16.3,14.2-24.9
		c0.8-1.6,1.8-3.1,3.4-3.8c1.9,0.6,1.9,1.8,1.4,3c-0.5,1.2-1.1,2.5-1.8,3.6c-4.7,7.5-8.9,15.4-13.1,23.2c-0.9,1.7-1.9,3.3-2.9,4.9
		c-4.3,6.9-10.9,9.2-18.7,8.9c-0.8,0-1.5,0.1-1.6,0.1c-2.4,8.3-4,16.2-4.5,24.5c-1.9-0.5-1.8-1.9-2.1-2.9c-1-3.9-1.2-7.8,1.9-11
		c0.7-0.7,0.9-1.5,0.9-2.5c0.1-2.5,0.8-4.9,1.7-7.3c-5-0.6-7.8-3.8-9.6-8c-1.7-4-2-8.2-1-12.6c-2.2,6.4-6.5,11.6-8.1,18.1
		c-2,7.9-4.5,15.8-6.6,23.7c-1.2,4.6-0.1,8.4,2.3,12.1c1,1.6,2.2,3.2,3.4,4.6c1.3,1.4,1.8,3.2,1.6,4.6c-0.9,6.5,1.4,12.3,3.2,18.3
		c1.5,4.9,3.4,9.7,5.5,14.5c2.9,6.8,4.3,13.9,4.8,21.3c0.3,4.6,2.5,8.5,4.1,12.6C295.2,353.5,294.6,358.4,292.8,360.5L292.8,360.5z"
		/>
	<path d="M332.5,677.3c0.9-2.8-0.6-6,2-8.3c0.8-0.7,1.4-0.1,1.9,0.1c11.3-7.9,19.9-18.2,28-30.5c0.5-1.7-2.4-4.9,0-8.1
		c2.7,0.7,5.3,1,8.2,0.4c1.1-7.2,2.3-14.4,3.3-21.6c1-7.8-0.1-15.5-1.3-23.2c-0.9-6.2-2.2-12.4-2.3-18.7c-0.1-4.4-2-8.5-1.8-13
		c0.2-5.5-0.9-10.9-0.6-16.4c0.1-1.1-0.2-2.2,0.4-3.3c1.4,0.1,1.2,1.2,1.2,2c-0.1,6.4,0.1,12.7,1.2,19.1c0.7,4,1.8,7.9,2.3,11.9
		c0.6,4.6,0.3,9.2,1.1,13.7c0.3,1.8,0.5,3.4,1.7,5c1.3,1.7,1.2,4,1.4,6.2c0.6,9.3-0.9,18.4-2.5,27.5c-0.7,3.6-1.1,7.3-2.5,11.2
		c3.4,0.1,6.5,1.6,9.9,0.3c2.5,4,7.4,0.9,10.8,3c0.5-0.8,0.1-2,1.5-2.1c1.5,0.5,1.2,1.9,1.3,3c0.2,2.6,0.4,5.2,2.2,7.3
		c0.1,0.2,0.2,0.4,0.3,0.6c1.8,4.7,2.2,9.8,3.6,14.6c1.1,3.8-1.5,6.5-4.6,8.1c-2.5,1.3-4.8,2.7-8.1,2.8c-3.4,0-6.7,1.4-9.5,4.3
		c-4,4.3-8.5,8.2-14.1,10.6c-4.1,1.7-8.2,2.1-12.5,1.8c-2.9-0.2-5.8-0.5-8.7-0.7C341,684.3,335.9,681.6,332.5,677.3z"/>
	<path d="M811.5,560c-0.1,0.7,0.2,1.3-0.3,2.1c-2.1-1.9-1.5-4.6-2.2-6.9c-0.4,4.5,0.4,9,1.7,13.1c2.4,7.3,4.5,14.6,5.2,22.1
		c0.9,8.9,1.5,17.9,0.4,26.9c-0.6,5.1-2.4,10.5-4.6,13.3c-0.3-2.6,0.6-4.8,1-7c1.1-5.6,1.1-11.4,1.9-17c0.6-4.5,0.2-8.6-0.3-12.9
		c-0.9-8-3.5-15.5-5.2-23.3c-1-4.5-1.7-9.1-2.2-13.6c-0.3-2.7-0.7-5.6,1.3-8c0.6-0.7,0.1-1.8-0.2-2.6c-1.5-3.6-2.4-7.5-3.3-11.3
		c-1-4-2.2-8-4.4-11.6c-0.6-1-1.3-2.1-0.9-3.5c1.2-0.9,1.9-0.3,2.3,0.7c1.8,4.1,4.1,7.9,4.6,12.6c0.3,3.2,1.8,6.2,2.6,9.3
		c1.3,4.6,2,9.2,1.9,14C811,557.7,810.5,559,811.5,560L811.5,560z"/>
	<path d="M285,153.3c1.5,12.3,2.7,24.4,7.4,35.9c0.3,0.9,0.8,1.6,1.7,2.2c4.3-0.2,8.8,0.3,13.6-0.6c-0.9,3.3-3.2,2.7-5,2.9
		c-1.9,0.1-3.8,0-5.8,0c-0.7,3.1,0.2,6,0,8.8c-0.1,1.6,0,3.3-2.8,2.8c0.8-3.9,0.5-7.7,0.3-11.9c-3-1.5-3.9-4.6-5.1-7.6
		c-2.3-5.4-4-10.9-4-16.8c0-1.2-0.4-2.4-1-3.5C282,161.2,283.8,157.2,285,153.3z"/>
	<path d="M382.4,382c2.1,1.3,2.1,3.1,2.5,4.7c1.3,5.9,2.5,11.9,4.6,17.6c0.5,1.4,0.7,2.9,0.3,4.3c-3.1,12.3-3,24.7-2.4,37.2
		c0.2,3.4-0.2,6.6-0.4,10c-0.2,0-0.5,0-0.7,0c0-4.5,0.2-9,0-13.4c-0.6-9.9-0.1-19.8,1.7-29.5c1-5,0-9.1-1.4-13.6
		C384.9,393.7,383.8,388.1,382.4,382z"/>
	<path d="M312.8,375.9c0.5,6.5,1.1,13,0.6,20c-1.4-3.7-1.2-7.1-1.4-10.5c-0.8,0.2-0.1,1.3-1.2,1.5c-0.3-1.2-0.5-2.5-0.9-4
		c-2.3,2.3-4.3,4.7-7.9,5.9c1.1-2.7,3.6-3.5,4.7-5.5c1.1-2.1,1.1-4.3,1.3-6.9C309.8,377.1,311.1,374.8,312.8,375.9L312.8,375.9z"/>
	<path d="M312.6,151.7c-3.4,0.9-6.7,1.1-10.3,0.7c-0.3-2.2-2.2-2.4-4.1-2.5c0-2.3,1.1-3.5,3.1-3.8c4.7-0.6,9.4-1.4,13.5,2.6
		c-2.2,0.7-3.3-1-5-1.4c-1.8,1.1-4.2,1.1-6.4,1.7C306.6,149.6,309.8,150.1,312.6,151.7z"/>
	<path d="M343.1,397.9c-1.2,2.7-2.4,5.4-3.8,8.1c-3.1,6.1-6.2,12.2-9.4,18.2c-0.8,1.6-1.7,3.3-4.2,3.3c5.5-10,11.1-19.9,16.6-29.9
		C342.6,397.7,342.9,397.8,343.1,397.9z"/>
	<path d="M328.3,524.6c1.6,1.1,1,2,0.2,2.9c-5.1,6-7.6,13.3-10.4,20.5c-0.9-2.1-0.2-7.9,1.6-9.6c1.5-1.4,2-3.1,2.6-4.9
		C323.8,528.7,325.3,526.4,328.3,524.6z"/>
	<path d="M314,222.3c-3.3,1.6-6,3.9-9.1,5.5c-1.4,0.7-3,1-4.8,0.8c-1.2-1.4-3.3-2-4.6-3.5c-1.3-1.5-3.6-1.2-4.8-3.1
		c1.8-1.3,3.5-0.2,4.1,0.7c1.7,2.4,3.9,3.5,6.9,3.5c2.4-0.5,4.6-1.8,6.3-4C310,222.7,311.9,222.5,314,222.3z"/>
	<path d="M370.1,525c2.1,2.6,1.7,6.5,4.6,8.7c0.1,4.8,2.3,9.4,1.3,14.9c-2.4-4.5-2.2-9.2-3.1-13.8c-3.9-1.5-2.2-6.3-4.9-8.6
		C368.4,524.7,369.4,525.1,370.1,525L370.1,525z"/>
	<path d="M322.8,431.5c-5.1-5.1-8.8-10.9-10.2-18.6c2.2,1.8,2.1,4.2,3.5,6.2c-0.1-3.1-1.7-5.7-0.8-8.6
		C316.4,418,319.7,424.7,322.8,431.5z"/>
	<path d="M399.1,501.3c-6.1-10.1-8.6-21.5-11.1-32.8C391.9,479.4,394.5,490.6,399.1,501.3z"/>
	<path d="M380.2,426.3c0.6,1,0.1,1.7-0.1,2.4c-2.2,6.5-4.8,12.8-7.9,18.9c-0.8,1.6-0.7,3.3-1.4,4.8c-0.7,1.5-1.7,2.9-3,4.1
		c-0.6-1,0.1-1.6,0.5-2c2.3-2.5,2-6,3.5-8.9c2.9-5.6,5.3-11.4,7.3-17.3C379.2,427.5,379.3,426.8,380.2,426.3z"/>
	<path d="M381.3,533.8c-1.4-1.2-2.1-2.9-1-4.5c2.1-3.1,2.2-6.6,2.5-10.3c2.4,0.2,2.1,1.7,2.1,3.3
		C384.9,526.4,383.6,530.2,381.3,533.8z"/>
	<path d="M354.2,425c-7.8,1.7-15.6,3.5-23.1,7.3c-0.1-1.9,1-2.5,2.1-3c6.6-2.7,13.4-4.2,20.5-4.7C353.8,424.7,354,424.9,354.2,425z"
		/>
	<path d="M839.2,499c-2.8,2.4-5.3,4.4-7,7.3c-1,1.7-3.5,2.2-5.8,1.9C830.7,505.5,832.4,499.4,839.2,499z"/>
	<path d="M336.2,331.3c8.9-0.8,17.5-2.9,26.5-5.3C357.5,329.4,341.4,332.7,336.2,331.3z"/>
	<path d="M818,517.7c4.1,6.9,3.7,10.5-3.7,12.8c1.5-2,2.7-3.6,3.9-5.2C818,522.8,816.6,520.3,818,517.7z"/>
	<path d="M318.4,377.1c0.8,1,1,2,0.6,3.4c-1.6,6-2.9,12.2-3.9,18.6c-0.1-7.2,0-14.1,3-20.6c0.1-0.3-0.1-0.7-0.1-1
		C318.1,377.3,318.3,377.2,318.4,377.1z"/>
	<path d="M376.2,364.5c1.5-2.2,3-1.9,4.4-1.1c2.7,1.5,4.7,7.5,3.5,11C383,370,381.5,366,376.2,364.5z"/>
	<path d="M304.1,175.7c0.1,1.1-0.6,1.5-1.2,1.5c-4.4-0.2-8.7-0.5-13-1.7c2.2-1.9,4.8-1,7-0.5C299.3,175.5,301.9,174.2,304.1,175.7z"
		/>
	<path d="M334.8,467.4c0,4-10.3,15.4-17.9,19.4c2.1-2,4.3-3.9,6.4-5.9c2.1-2,4.2-4.1,6.2-6.2C331.5,472.4,333.7,470.3,334.8,467.4z"
		/>
	<path d="M375.5,549.9c2.7,1.8,2.9,5.3,0.8,9.5C373.9,557,373.6,553.8,375.5,549.9z"/>
	<path d="M397.2,525.7c-0.5,0.4-0.6,1.2-1.7,1.3c-0.5-2.8,0.8-4.9,2.6-6.7c0.1-2.7-0.1-5.2-1.1-7.7c3.6,1.9,1.7,5.6,3.1,8.2
		C398.8,522.4,397.9,524,397.2,525.7L397.2,525.7z"/>
	<path d="M301.5,324c-1.2-5-4.4-9.8-2-15.6C300.2,309.5,302,322.7,301.5,324z"/>
	<path d="M314,513.1c0.2-3.1,2.5-4.1,4.4-4.6c2.6-0.6,4.8-1.4,5.8-4.3c0.6,1.6,0.3,2.8-0.8,3.9C322.4,509.1,316.2,512.5,314,513.1z"
		/>
	<path d="M300.5,182c-3.3,0.9-5.9,0.7-8.7-0.8c1.4-2.7,3.6-2.6,5.6-2.6C299.2,178.7,299.9,180,300.5,182z"/>
	<path d="M373.6,488.4c0.3-8.1-2.7-14.8-4.6-22.1C372.6,470.9,375.6,484.2,373.6,488.4z"/>
	<path d="M397.1,525.8c0.7,0,1.4-0.1,1.7,0.7c0.2,0.6,0.4,1.3,0.5,1.9c1,4.3-0.1,8.8,1.2,13.2c0.3,0.8,0.4,2-0.7,3
		c-1.2-0.9-0.7-2.2-0.8-3.2C398.3,536.1,398.8,530.8,397.1,525.8L397.1,525.8z"/>
	<path d="M834.9,613.8c0-5.3,0.8-10.5,2.1-15.6C837.6,603.6,837.3,608.8,834.9,613.8z"/>
	<path d="M295.4,283.4c2,1.4,2.1,3.8,0.4,10.9C294,291.7,293.8,286,295.4,283.4z"/>
	<path d="M812.5,540.7c1.1-0.2,1.5,0.5,1.4,0.9c-0.9,4.4,0.7,9.1-1.4,14.1C812.5,550.2,812.5,545.4,812.5,540.7z"/>
	<path d="M306.4,344.7c-2.1-4.4-2.5-8.6-4.3-12.6C305,332.6,306,335.7,306.4,344.7z"/>
	<path d="M337.6,448.8c4.1,1,8,2.9,12.2,3.7C346.4,453.6,339.9,451.7,337.6,448.8z"/>
	<path d="M313.5,442.4c2.8-2.7,6.2-4.4,10.1-5.8c-0.5,2.4-0.5,2.4-4.5,3.6C317.3,440.8,315.4,441.5,313.5,442.4z"/>
	<path d="M325.4,183.4c-1.7,4.4-4.3,8.2-7.5,11.6C320.4,191.1,321.9,186.6,325.4,183.4z"/>
	<path d="M318.9,561.9c-2-3.4-1.9-7.9,0-12c1.1,1.3,0.4,2.5,0.2,3.7c-0.2,1.3-0.5,2.7-0.1,4C319.6,558.9,319.8,560.1,318.9,561.9z"
		/>
	<path d="M361.6,294.6c-1.2,3.6-4.2,5.1-7.4,6.3C356.4,298.4,358.3,295.7,361.6,294.6z"/>
	<path d="M300.4,307.1c-2.5-2.5-4.5-5.3-4.6-9.1c0.2-0.1,0.4-0.2,0.7-0.4c1.5,3,3.1,6,4.6,9C300.9,306.8,300.7,307,300.4,307.1z"/>
	<path d="M315.9,428c-2,2.3-7,3.5-9.7,2.3C309.6,429.9,312.5,428.3,315.9,428z"/>
	<path d="M297,169c-1.7-2-4.9,0.8-6.4-2.1C294,165,296.8,165.9,297,169z"/>
	<path d="M302.9,308c2.7-1,5.1,0.5,7.6,0.6C307.9,309.9,305.3,310.8,302.9,308z"/>
	<path d="M318.1,196.4c-1,2.6-2.7,4.7-3.1,7.3c-1,0.3-1.9-0.1-1.7-0.7C314.3,200.5,315.1,197.7,318.1,196.4z"/>
	<path d="M366.7,368.6c2-0.9,3,0.3,3.6,1.9c0.7,1.9,1.1,3.8,1.3,5.9C370.3,373.5,368.2,371.2,366.7,368.6L366.7,368.6z"/>
	<path d="M310.5,360.7c-1.8-3.1-4.3-6-2.2-9.8C307.7,354.5,310.6,357.3,310.5,360.7z"/>
	<path d="M363.5,314.3c-3.6,2.3-7.9,2.6-11.7,4.1c-0.1-0.2-0.2-0.4-0.2-0.7c3.9-1.4,7.7-2.8,11.6-4.3
		C363.2,313.8,363.4,314.1,363.5,314.3z"/>
	<path d="M310.5,608.4c0.7-3,3.3-4.9,4.4-8.1C315,603.8,313.7,606.3,310.5,608.4z"/>
	<path d="M838.1,592.9c-0.9-2.8,0-5.7,0.1-8.5C840,587.2,839.6,590,838.1,592.9z"/>
	<path d="M833.9,528.1c0.3,2.1,0.6,4.3,0.9,6.7C832.3,533,832,531.3,833.9,528.1z"/>
	<path d="M391.7,537.2c-1-3.4-1-5.9,0-8.4C392.8,531.2,392.8,533.9,391.7,537.2z"/>
	<path d="M300.1,359.5c2.6,2.6,4.8,5.5,8,7.8c-2.9,0.3-5.7-2.3-8.3-7.5C299.9,359.8,300,359.7,300.1,359.5z"/>
	<path d="M830.6,603.4c-1.1-2.9-1.1-5.9-1-8.9C830.8,597.3,831.1,600.3,830.6,603.4z"/>
	<path d="M816.2,532.4c-0.6,2.3-0.9,4.4-2,6.4C812.9,535.7,813.4,533.6,816.2,532.4z"/>
	<path fill="#FFFFFF" d="M296.7,374.2c-0.3-1.8,0.2-3.5,0.9-5.5c1.4,1.6,0.7,3.6,1.5,5.1c-0.6,0.8-1.3,0.7-2,0.7
		C297,374.4,296.9,374.3,296.7,374.2z"/>
	<path d="M811.6,560c0.2-0.4,0.1-0.9,1.1-1.1c1.2,3.1,1.4,6.3,0.6,9.7C811.9,565.9,813.5,562.6,811.6,560L811.6,560z"/>
	<path d="M381.4,536.1c-0.5,2.6,0.2,5.6-2.9,7.2C380,541.1,378.9,538,381.4,536.1z"/>
	<path d="M305.9,328.5c2.7-1,2.7-1,5.5,0.3C308.3,330.2,308.3,330.2,305.9,328.5z"/>
	<path d="M338,509.7c0.4,2.9-1.7,4.5-3.1,6.5C335.6,513.8,336.1,511.4,338,509.7z"/>
	<path d="M304.4,211.2c1.2-2.5,1.7-4.6,4.3-5.6C308.4,208.4,307.3,210,304.4,211.2z"/>
	<path d="M317.9,589.8c1-2.6,0.5-5.5,2-7.9C319.9,584.7,320.1,587.6,317.9,589.8z"/>
	<path d="M829.5,576.4c1.3,2.1,1.1,4.3,0.7,6.6C828.8,580.6,828.7,580,829.5,576.4z"/>
	<path d="M328.7,377.5c-0.3,2.8-0.2,5.5-1.9,7.8C327.2,382.7,327.2,379.9,328.7,377.5z"/>
	<path d="M351.1,303.6c-1.1,2.8-3.6,2.5-6,2.5C347.2,305.6,349.2,304.7,351.1,303.6z"/>
	<path d="M359.6,307.8c1.6-1.5,3.2-3,4.8-4.5C364.3,306.3,362.1,307.3,359.6,307.8z"/>
	<path d="M320.9,602.1c-0.1-2-0.5-4.1,0.8-5.9C322.1,598.2,323.8,600.5,320.9,602.1L320.9,602.1z"/>
	<path d="M815.2,548.7c-0.5-2.2,0.2-4,2-5.4C817,545.2,816.9,547.2,815.2,548.7z"/>
	<path d="M303.3,200.1c-1.6-1.1-3.4-2.1-4.1-4.8C301.7,196.5,302.6,198.2,303.3,200.1z"/>
	<path d="M825.2,529c1,2.3-0.3,3.1-1.7,4.2C823,531.3,823.5,530.2,825.2,529z"/>
	<path d="M827.3,536.4c0.4-1.6,1.1-2.9,2.8-3.5C830.4,534.9,829.1,535.8,827.3,536.4z"/>
	<path d="M830.5,585.2c0.6,2,0.4,3.9,0,6.2C829.2,588.5,829.2,587.2,830.5,585.2z"/>
	<path d="M332.5,275.1c-2.5,1.7-4.6,0.4-6.6,0.7C329.7,274.6,329.7,274.6,332.5,275.1z"/>
	<path d="M343.3,334.8c1.9-0.7,3.8-1.4,5.7-2.1C347.4,334.2,345.4,334.6,343.3,334.8z"/>
	<path d="M830.1,569.4c0.5,1.3,0.4,2.5,0,4.2C829,571.1,829,571.1,830.1,569.4z"/>
	<path d="M377.7,565.5c-1-1.3-1.4-2.4-1.3-4.2C378,563.2,378,563.2,377.7,565.5z"/>
	<path d="M322.1,593.4c-0.6-1.3-1.6-2.6-0.4-4.7C322.3,590.5,323,591.8,322.1,593.4z"/>
	<path d="M288.3,250.9c-1.5-0.5-3.1-0.9-5.3-1.5c2.5-0.5,4,0.2,5.6,0.6C288.5,250.3,288.4,250.6,288.3,250.9z"/>
	<path d="M821.1,511.4c1.3-2,2.3-2.6,4.2-2.4C824.4,510.9,823.1,510.8,821.1,511.4z"/>
	<path d="M818.4,541.6c-0.6-2.2,0.1-3.3,1.8-4.2C820.4,539.1,819.7,540.2,818.4,541.6z"/>
	<path d="M388.4,618.1c0.2-2.4,0.4-4.1,0.6-5.8C390.1,614.1,390.2,615.9,388.4,618.1z"/>
	<path d="M333.9,300.5c0.8-2.1,1.9-3,4.1-3.1C337,299,335.7,299.6,333.9,300.5z"/>
	<path d="M342.7,295.3c-1.3,1.6-2.4,1.9-3.9,1.7C340.1,295.5,340.1,295.5,342.7,295.3z"/>
	<path d="M294.1,308c-0.5,2.2-2.3,1.4-3.7,1.6C291.7,309,292.9,308.5,294.1,308z"/>
	<path d="M373.1,524c1.3-0.9,2.1,0.2,3.3,0.7C374.3,525.5,374.3,525.5,373.1,524z"/>
	<path d="M317.6,330.7c-1.2,0.9-2.2,0.9-3.3,0C315.7,329.9,315.7,329.9,317.6,330.7z"/>
	<path d="M311.9,514.2c1.3,0.6,1.8,1.4,1.5,2.5C311.5,516.5,311.5,516.5,311.9,514.2z"/>
	<path d="M839,582.1c-1.1-1.8-1.1-2.8-0.1-4.2C839.6,579.2,839.4,580.3,839,582.1z"/>
	<path d="M293.3,270.5c-2.1-0.8-2.1-0.8-0.6-3.2C293.9,268.3,293.2,269.5,293.3,270.5L293.3,270.5z"/>
	<path d="M813.5,501.7c0.4,1.4,0,2.2-0.9,3C812.1,503.4,812.1,502.4,813.5,501.7z"/>
	<path d="M807,529.4c0.9-0.9,1.7-0.6,2.4,0.2C808.3,530.3,808.3,530.3,807,529.4z"/>
	<path d="M319.6,570.9c-1.1-0.9-1.7-1.8-0.9-3.7C319.8,568.6,319.6,569.8,319.6,570.9L319.6,570.9z"/>
	<path d="M378.2,567.7c0.9,1.2,0.9,1.9,0.4,2.7C377.3,569.8,377.8,569,378.2,567.7z"/>
	<path d="M310,274.7c-1.3,1.1-2.2,0.9-3.4,0.3C307.7,274.4,308.6,274.3,310,274.7z"/>
	<path d="M326.8,360.5c-1.3-0.5-2.1-1.4-2.9-2.5c1.5,0.1,2.4,1.1,3.3,2.1C327.1,360.3,327,360.4,326.8,360.5z"/>
	<path d="M830,566.1c-0.9-0.7-0.9-1.4-0.5-2.3C830.6,564.3,830.7,565,830,566.1z"/>
	<path d="M838.5,575.6c-0.8-1-0.6-1.6,0.2-2.4C839.4,574.1,839.3,574.8,838.5,575.6z"/>
	<path d="M309.3,204.7c0.3-1.2,0.9-1.7,1.8-1.7c0.1,0.3,0.3,0.5,0.2,0.6C310.9,204.4,310.3,204.7,309.3,204.7z"/>
	<path d="M296.3,275.6c-0.9-0.4-1.3-1-1.2-1.8c0.7-0.5,0.9,0.2,1.2,0.5C296.6,274.7,296.7,275.1,296.3,275.6z"/>
	<path d="M299.8,359.9c-0.8-0.7-1.5-1.5-2-3.1c1.4,0.9,2,1.8,2.3,2.8C300,359.6,299.9,359.8,299.8,359.9z"/>
	<path d="M360.8,331.6c0.2-0.6,0.5-0.8,1.1-0.7C361.8,331.7,361.2,331.5,360.8,331.6z"/>
	<path d="M313.8,400.1c0,0.4,0,0.8,0,1.2c0,0,0,0-0.1,0C313.8,400.8,313.8,400.5,313.8,400.1C313.8,400.1,313.8,400.1,313.8,400.1z"
		/>
	<path d="M387.2,620.5c1,1.3,0.8,2.1,0.3,3.1C386.6,622.6,386.9,621.8,387.2,620.5z"/>
	<path d="M813.4,531.3c-0.6,0.7-1,0.7-1.6,0.3C812.2,529.9,812.7,530.7,813.4,531.3z"/>
	<path d="M350.1,338.2c1-0.9,2.2-0.8,3.5-0.6l-0.1,0C352.3,337.8,351.2,337.9,350.1,338.2L350.1,338.2z"/>
	<path d="M372.6,339.3c0-0.5,0.3-0.7,0.6-1C373.8,339.2,373.4,339.4,372.6,339.3z"/>
	<path d="M309,438.8c-0.2-0.5-0.1-0.8,0.2-1.3C309.3,438,309.3,438.4,309,438.8z"/>
	<path d="M828.8,559.2c-0.7-1.1-0.7-1.8,0.1-2.6C829.4,557.4,829.2,558.1,828.8,559.2z"/>
	<path d="M818.4,511.3c0-0.6,0.4-0.8,0.8-0.6c0.3,0.1,0.4,0.5,0.2,0.8C819.1,511.8,818.7,511.7,818.4,511.3z"/>
	<path d="M315.8,488.1c0.1,0.6-0.4,0.6-0.7,0.8C315,488.4,315.3,488.2,315.8,488.1z"/>
	<path d="M347.1,338.6c-0.4,0.6-1,0.6-1.6,0.3C346,338.9,346.6,338.8,347.1,338.6L347.1,338.6z"/>
	<path d="M350,338.1c-0.9,0.6-1.9,0.6-2.9,0.5l0.1,0C348,338.1,349,338.1,350,338.1L350,338.1z"/>
	<path d="M318.3,367.9c0.6,0.5,0.9,0.7,0.8,1.2C318.5,369.2,318.4,368.8,318.3,367.9z"/>
	<path d="M307.9,361.9c-0.3-0.4-0.6-0.8-1-1.3c1-0.1,1.1,0.5,1.3,1C308.1,361.7,308,361.8,307.9,361.9z"/>
	<path d="M293.3,270.6c0.8,0.3,1.4,0.7,0.5,1.6C292.8,271.8,293.3,271.1,293.3,270.6L293.3,270.6z"/>
	<path d="M319.5,571c1.5,0.3,0.8,1.1,0.4,1.9C319,572.3,319.5,571.6,319.5,571L319.5,571z"/>
	<path fill="#FFFFFF" d="M972.9,369.8c-6.7,2.1-13.1,4.2-19.8,5.3c-1.5,0.2-2.8,0.5-3.2,2c-3.2-0.3-6.1-0.6-9-0.9
		c-1.2-1.5-1.8-3.3-3.3-4.6c-6.3-5.3-13.7-1.1-16.8,4.5c-2.5,4.7-2.6,9.7-2.4,14.7c0.3,5.6,7.6,9.8,13.3,7.8
		c2.2-0.8,4.8-1.4,6.4-3.6c1.6,0.2,3.1,0.4,4.4,0.6c3.8,3.4,8.2,5.5,11.8,8.7c3.4,3,5.6,7.8,11,8.4c0,0.3,0.2,0.6,0.1,0.9
		c-4.2,12.7-10.4,24.3-19.5,34.2c-4,4.4-8.6,7.4-13.7,10c-2.8,1.4-5.7,1.6-8.7,1.9c-4.8,0.5-9.4-0.4-14-0.7c-9.1-0.6-16-5.4-22-11.8
		c-2.9-3.1-4.8-7-7.6-10.2c-3.5-4-4.4-9.3-6.6-13.9c-3.1-6.5-4.6-13.5-4.8-20.5c-0.3-8.7-2.6-17.3-0.8-26.1
		c1.8-8.9,2.5-17.9,4.9-26.7c1.8-6.7,5.9-12.3,9.9-17.8c5.2-7.2,10.6-14.2,17.9-19.5c3.6-2.6,7.7-4,11.7-5.7
		c4.4-1.8,8.8-2.7,13.4-2.3c5,0.4,10,1,14.5,3.5c3.6,2,7.5,3.5,10.9,6c1.7,1.2,3.3,2.5,4.3,4.2c3.3,6,7.5,11.5,10.2,17.7
		c4.2,9.8,6.3,20.1,7.6,30.6C973,367.4,972.9,368.5,972.9,369.8z"/>
	<path fill="#FFFFFF" d="M632.1,359.1c3.4,4.3,4,8.9,4.9,13.2c1.1,5,4.1,7.5,8.3,9.2c0.8,0.3,1.7,0.5,2.8,0.9
		c-5.9,7.8-10,16.7-18.8,21.5c-4.6,2.5-9.1,5.4-14.5,6c-8.8,0.8-17.8,0.7-25.6-3.5c-12.6-6.7-21.7-16.6-26-30.8
		c-3.6-12-5.1-24.2-3.9-36.5c0.9-8.5,2.8-17.2,8.4-24.1c6.1-7.5,12.9-14.3,21.2-19.5c0.7-0.4,1.3-0.9,2.1-1.1
		c7.8-2.5,15.7-4.3,24.1-4.4c-0.9,0.4-1.8,0.8-2.9,1.2c0.9,0.6,1.6,0.2,2.3,0c7.4-2.2,13.6,0.4,19.2,5.1c3.3,2.8,6,6.4,10.5,7.7
		c0.4,0.1,0.7,0.6,0.9,1c5.8,8.8,11.2,17.6,11.3,28.7c0,4.3,0.7,8.7,1.1,13.1c-2,0.7-3.9,0.1-5.7,0.1c-3.9-3.8-3.9-3.8-6.5-3.5
		c-3.9-2.1-6.7-5-11.8-4.2c-3.1,0.5-5.7,1.1-7.9,3.1c-1.5,1.4-3.4,1.5-5.3,2c-3,0.8-5.7,1.6-6.4,5.4c-0.7,3.6,0,5.3,3.5,6.3
		C622.5,357.2,627.3,359,632.1,359.1z"/>
	<path fill="#FFFFFF" d="M811.6,443.4c1.6-1.8,3.6-2.6,6.1-3c3.3-0.5,6.4-2,9.7-3.7c0.7,1.9,2,1.2,3.3,0.7c5.1-2,9.3-5.4,13.5-8.8
		c1-0.8,1.8-1.6,2.8-2.5c1.3,1.2-1.1,1.5-0.3,2.6c3.2-2.3,6.6-4.1,9-7.4c0.7-1,1.6-1.5,2.7-1.8c3.2-0.8,6.3-1.6,9.6-2.5
		c1.2,3,2.4,6,3.8,9.5c-12.6-0.6-23.3,4.8-34.1,9c2.5,0.6,4.2,0.5,7.7-0.5c3.7-1.1,7.2-2.4,10.7-4c5.7-2.6,8.9-3.3,16.2-3.5
		c3.1,8.5,9.2,15.4,14.5,23c-3.1,2.6-7.2,2.9-10.2,5.5c4-0.8,7.7-2.2,11.3-4.3c1.7,1.3,3.8,2.2,5.1,4.4c-4.1,3.4-9.1,5.4-12.9,9.1
		c-0.6,0.3-1.1,0.7-1.6,1c0.1,0,0-0.1,0.1-0.1c0.6-0.3,1.1-0.6,1.5-1c5.1-1.7,9.2-5,13.9-7.7c0.8,0,1.5,0.5,2.3,1.4
		c-1.6,1.7-3.4,3.1-4.5,5.1c-1.1,0-0.1-1.5-1.3-1.3c-2.1,7-6.3,13-9.8,19.3c-2,3.6-3.8,7.4-4.9,11.5c-7.4,0.6-14.7,1.4-22.2,0.3
		c-3.7-0.5-7.3-1.9-10.9-1.9c-4.2,0-8.2-0.7-12.3-1.2c-7.3-0.8-13.8-3.6-20.7-7.1c7.7-14.8,16.9-28.7,22.8-44.9
		c-2.3,0.5-3.1,2-3.7,3.2c-0.9,2-2.3,2.7-4.3,3.2c-2.5,0.6-4.9,1.6-7.2,3c3-0.9,6-1.7,9.4-2.7c-0.6,1.8-1.4,3.2-1.5,4.6
		c-0.3,3.5-2.3,4.7-5.4,5.2c-4.9,0.8-9.7,1.5-14.9,2.1c0.4-3.6,3-6.1,3.8-9.3c0-0.2,0-0.3,0-0.5c0.2-1.9,1.5-3,2.9-4
		C811.3,443.5,811.4,443.5,811.6,443.4z"/>
	<path fill="#FFFFFF" d="M864.7,386.4c1.1,2.3,0.4,4.5,0.8,6.9c-1.3-1.2-0.6-3.2-2.7-4.4c0.2,4.2,0.9,8-0.2,12.4
		c2.3-1.3,2-2.9,2.5-4.2c1,1.7,1,1.7,0.3,6c-5.2,0.5-9.6,3-14.1,5.4c-4,2.1-8.8,2.5-13.4,3c-3.5,0.4-7,1.1-10.4,0.8
		c-3.6-0.3-7.1-1.6-10.9-3.1c4.2-2.2,6.6-5.5,8.3-9.6c-7.2,4.6-11.9,11.9-20.2,15.8c-0.3,0.8-0.6,2.3-0.3,4c1.3-1.6,3.4-1.5,4.9-3
		c0.2,5.7-1.2,8.1-6.2,9.1c-8.1,1.7-16.2,1.8-24.1-0.7c-0.7-1,0.5-1.3,0.3-2c-0.2-0.1-0.5-0.2-0.6-0.2c-2.4,1.5-4.7,0.8-7-0.2
		c-2-0.9-4.2-1.5-6-2.7c-0.3-1.4,0.8-2.2,1-3.5c-1.5,0.2-2,1.9-3.6,2c-5.9-8.4-10.2-17.4-9.4-28.3c0.4-5.4,1-10.7,1.5-16.3
		c4.2,0,8.2,0.8,12.3,1.3c-0.3,1.5-1.9,1.8-2.1,3.1c0.3,0.5,0.7,0.3,1.1,0.1c3.5-2.5,7.3-2.7,11.5-2.1c11.1,1.5,22.3,2.7,33.5,4
		c0.2,0,0.5,0,0.7,0.1c3.9,2.6,8.2,0.7,12.3,1.4c4.3,0.8,8.7,1.1,13,1.6c4.5,0.5,8.9,1,13.4,1.6C855.3,385.2,860,385.8,864.7,386.4z
		"/>
	<path fill="#FFFFFF" d="M750.9,606.1c-1.7,0.9-2.1,2.7-2.9,4.4c-2.3-0.6-4.4-1.5-6.3-2.9c-0.5-2.1-0.3-4.2,0-6.1
		c1.8-9.9,1.5-19.8-0.9-29.4c-2.3-9.3-3.5-18.7-4.4-28.2c-0.1-1.2-0.4-2.5-0.2-3.7c0.5-4.7-1.6-9.1-1.9-13.8
		c-0.2-4.3,0.9-8.5,0.5-12.9c-0.4-3.5-0.9-6.8-1.9-10.2c-1.8-6.2-0.8-12,3.6-16.9c1.9-2.1,3.3-4.5,4.8-7.2c5.6,3.8,11.7,6.3,18,8.2
		c6.3,1.9,12.6,3.3,19.1,4c2.2,0.2,3.8,1.8,6.2,2.1c-0.8,1.8-2.1,2.7-3.2,3.7c-2.5,2.3-4.9,4.7-7.4,6.8c-6.2,5.2-7.3,12-6.6,19.4
		c0.4,4.2,1,8.5,1.8,12.7c2.1,11.3,0.6,22.4-2.9,33.2c-3.4,10.4-4.1,21.1-3.9,31.9c0,2.1,0,4.3,0.1,6.4c0.1,1.9-1,3-2.3,4.2
		c-2.7-4.9-1.1-10.2-2.5-15c-1.7,5,0.4,10-0.2,15.2c-2.7,1.2-5.1,0-7.6-0.7C749.2,609,751,607.7,750.9,606.1
		c0.9-1.5,1.9-2.9,2.2-4.3C752.9,603.2,751.7,604.5,750.9,606.1z"/>
	<path fill="#FFFFFF" d="M715,371.8c-0.1,1.2-1.2,2.2-1,3.4c0.6,1.2,1.5-0.5,2.1,0.3c0.8,4.4,0.2,8.9,1.6,13.3
		c0.4,1.2-0.1,2.2-0.6,3.2c-1.4,2.8-3.2,5.4-5.1,7.9c3.6-2,5.5-5.5,7.5-8.9c0.2-0.3,0.3-0.7,0.2-1c-1.8-4.5,1.7-6.7,4-9.4
		c1.1-1.3,2-2.7,2.5-4.2c0.7-1,1.8-0.1,2.5-0.7c0.6-0.5-0.2-1,0.2-1.8c1.1,0.6,2.3,0.6,3.6,0.2c1,12.6,1,12.6,3.8,15.2
		c-0.7-2.6,0-4.7-0.4-6.9c-0.4-2.1-0.8-4.2-1.2-6.3c2.7,0.8,2,3.1,2.1,5.1c2.5-1,0.9-2.8,1.3-4.3c1.5-0.4,2.3,1.2,3.7,1.7
		c-0.3-2-2.1-2.5-3-3.8c2.6-1.7,3.5,2.1,5.6,1.3c2.9,9.3,0.3,18.6,1.6,27.7c-3.7,4-8.1,7.1-10.1,12.2c2.9-3.5,6.4-6.2,10.2-9.5
		c-0.4,5-2.6,9-3.1,13.5c-1,0.8-2.1,1.7-3.3,2.7c-10.5-1.8-19.3-7.3-28.6-13.3c4.2,0,6.7,2.9,10.5,3.5c-2.6-2.6-5-4.4-8.1-5.3
		c-2.9-0.9-6.2,0.2-8.7-1.9c-3.3,1.3-5.9,3.9-9.5,4.8c-1.6,0.4-3.1,0.5-4.6,0.6c-2.1,0-3.3-0.9-3.9-2.9c-0.7-2.2-1.2-4.6-3.9-5.6
		c2.3-2.4,5.5-0.8,8.5-2.4c-3.7-2.2-7.2,0.2-10.5-1c-0.3-1.4-0.6-2.9-1-4.5c1.4-0.7,2.7-1.5,4-2.1c0.5-1.2,0.4-2.1-1.1-2.6
		c-1.3,2.7-3.9,3-6.6,3.6c-1-4.4,0.1-8.5-0.1-12.6c-0.1-2.3-0.4-3.9-2.6-4.8c-1.2-0.5-2.4-1.3-2.1-2.7c0.8-3.7-0.3-7.6,0.6-11.6
		c2.4,0.9,5-0.1,7.2,2.1c1.3,1.3,3.5,0.6,5.1-0.1c1.1-0.5,2.1-1.2,3.2-1.8c3.5,0.3,6.1,2.1,8.3,5c1.8,2.3,4.5,3.8,7.1,5
		c4.2,1.9,6.2,5.6,8.5,9.1c0.4,0.6,0.5,1.5,1.8,1.6C714.2,379.1,711.3,374.8,715,371.8L715,371.8z"/>
	<path fill="#FFFFFF" d="M809.6,460.9c3,0.2,5.9-1.1,9.7-1.4c-3.1,3.7-4,7.8-5.6,11.6c-7.5,2.3-14.9,4.4-22.9,6.2
		c1-2.1,2.8-3,3.4-4.6c-0.3-0.4-0.6-0.1-0.7,0.1c-2.7,3.3-6,5.6-10.5,5.8c-0.5,0-0.8,0.3-1.1,0.7c-1.3,0.4-2.6,0.1-3.9,0.2
		c1.3-0.2,2.6,0.3,3.9-0.3c9.8,0.1,19-3,28.3-5.7c0.6-0.2,1.2-0.5,2.5-0.3c-3.1,1.2-3.7,4-5.1,6.2c-1.2,1.9-2.4,3.9-3,6
		c-1,3.2-3.5,4.9-5.7,7.3c-2.1-1.7-4.6-1.5-7-1.5c-5.8,0-11.3-1.4-16.7-3.3c-8.9-3.1-18.3-4.8-26.9-8.8c-1.8-0.9-3.6-1.7-5.4-2.9
		c5.3-9.6,9.6-19.6,16.9-28.4c6.6,2.1,13.8,3.7,21.4,2.4c-7.1-0.5-14.3-0.9-21.1-3.7c0.8-1.8,2-3.1,3.2-4.4c3.4-1,6.3,0.9,9.1,1.8
		c6.1,2.1,12.2,2,18.3,0.8c6.8-1.4,13.6-1.6,20.4-1.8c0.2,0,0.4,0.2,0.5,0.4l0-0.1c-1.2,1.5-2.2,3.3-3.4,4.8l0.1-0.1
		c-2.6,1.7-3.2,4.7-4.5,7.2c-1,1.9-0.9,1.9-3,2.6c1.1,0.9,2.3,0.6,3.7,0.4c5.7-0.6,11.3-1.3,16.9-2.5c-0.5,2.2-2.2,2.4-3.8,2.9
		C814.9,459.4,811.9,459.1,809.6,460.9c-0.8,0.6-1.8,0-2.6,0.6c-0.2,0.2-0.5,0.3-0.7,0.4c0.1,0,0-0.1,0.1-0.1c0.3,0,0.5-0.3,0.7-0.4
		C807.9,461,808.9,461.6,809.6,460.9z"/>
	<path fill="#FFFFFF" d="M712.5,413.5c3.9,2.1,7.5,3.9,10.9,6c4.6,2.8,9.3,4.9,14.6,6c3.2,0.6,6.3-1.5,6.8-4.7
		c0.6-3.8,1.5-7.5,2.6-11.1c0.3-1,0.7-1.9,0.5-3c-1.3-6.1,0.4-12.1,1.2-18.1c0.5-3.6,0.3-7-1.4-10.2c-1-1.8-0.7-3.8-1-5.8
		c2.1,0,4.2,0.3,6.3,0.9c-0.4,4.8-0.7,9.5-1.4,14.2c-1.9,12.7,2.5,23.7,9.8,33.7c1,1.4,2.4,2.4,4.1,2.7c0.9-0.2,0.2-0.9,0.5-1.4
		c0.3,0.1,0.6,0.2,0.9,0.3c8,4,16.3,7.2,25.5,6.4c5.1-0.4,10.2-0.8,15-3c5-2.2,8.1-5.9,8.4-11.5c0-0.8,0.1-1.5,0.7-2.4
		c4.2,0.7,8.1,3.2,12.5,2.4c1.9,2.7,0.2,5.6,0.9,8.5c1.6-1.1,1.1-2.6,1.4-3.8c0.3-1.3,0.5-2.6,0.8-4.2c1.9,0.2,4.3-1.6,6,1
		c1.2-2.9,4.3-1.7,6.9-2.8c-0.2,3.2-0.4,6-3.1,7.9c-3.7,2.6-7.2,5.4-10.5,8.5c-5.4,5.1-12.4,7.1-19,9.9c-0.6,0.2-1.3,0.1-2,0.1
		c-7.4-1.1-14.5,0.5-21.6,2.3c-2,0.5-3.9,0.2-5.9,0.2c-9-0.2-17.3-3.4-26-5.2c-6.9-1.4-14-1.7-21-3.1c-2.7-0.6-5-1.6-7.1-3.5
		c-5-4.5-10.1-8.9-14.9-13.7C713.4,416,712.4,415.4,712.5,413.5z"/>
	<path fill="#FFFFFF" d="M865.6,371.5c-0.6,4.1-0.9,7.8-0.9,11.8c-44-5.2-87.7-10.3-131.5-15.5c-0.7-1.8-2-3.3-0.3-5.1
		c-0.5-1.4-2-2.7-1.3-4.8C776.1,362.4,820.7,366.9,865.6,371.5z"/>
	<path fill="#FFFFFF" d="M1025.4,387.9c-3.3,5.7-3.4,8.3-0.6,14.2c-32.2-3.8-64.1-7.5-95.9-11.3c-2.7-5-2.1-8.5,2.4-12.6
		C962.5,381.4,993.9,384.6,1025.4,387.9z"/>
	<path fill="#FFFFFF" d="M788.5,661.3c4.7,3.2,5.2,3.2,7.3,1.3c-1.4-1.4-3.7-0.7-5.2-2c1-1.8,2.4-1.3,3.7-0.8c2.5,1,5.1,1.9,7.7,2.5
		c0.9,0.2,1.8,0.5,2.2-0.7c-1.7-2.2-3.6-2.9-10.3-3.8c0.6-1.6,1.6-1.5,2.9-1c2.9,0.9,5.9,1.6,8.8,2.3c1.1,0.3,2.2,0.5,3.2-1
		c-3.3-2.7-7.8-2.5-11.3-4.8c5.1-1.1,9.7,1.7,14.9,2c0.6-1.6,2.7-1.4,4.3-3c-4.6-2-9.4-2.5-13.6-4.6c5.8,0.9,11.6,2.7,17.4,2.6
		c0.3-0.3,0.5-0.5,0.5-0.7c0.1-0.5-0.2-0.9-0.4-1.2c2.4-1.9,3.8-2.4,7.9-2c2.3,0.2,4.4,0.1,6.4-1.3c0.7,1.1,1.2,1.9,1.7,2.8
		c0.9-0.6-0.5-1.4,0.5-2.2c1.1,1.7,0.7,3.7,0.9,5.4c0.3,2.1,0.7,4,1.7,6c2.1,4.2,1.7,7.3-3.8,8.4c-1.1,0.2-2.2,0.3-3.3,0.4
		c-5.6,0.6-9.7,3.3-13.2,7.7c-2.8,3.4-7,5.2-11.3,6.3c-2.8,0.7-5.7,1.2-8.5,2.1c-3.8,1.2-7.8,0.6-11.7-0.3c-3.1-0.7-5.9-2.1-8.9-3.2
		c-2.7-1-4.7-3-4.6-5.6c0.1-2.7,1.6-5.6,4.4-6.6C782.5,665.1,785.7,663.7,788.5,661.3z"/>
	<path fill="#FFFFFF" d="M634.5,359.6c2.9,0.1,5.3,0.1,7.6,0.9c1,5-2.9,11,3.9,14.4c-3.1-4.5-3.7-9.2-0.7-14.3
		c3.3,0.4,7,0.8,10.6,1.2c0.7,0.5,0.4,1.6,1.2,2c3.9-3.2,7.8,0.1,11.7-0.1c-3.1,1.7-6.1,4-9.2,0.1c-0.9,2.1-0.9,2.1,0.3,4.3
		c2.9-0.4,5.8-0.2,8.9-1.9c0.2,3.6,0.4,6.8,0.6,10.3c2.1,1.4,6.1,1.9,4.6,6.8c-7-1.5-14.4,0.6-21.4-2.5c-1.8-0.8-3.9-0.8-5.9-1.3
		c-4.4-1.1-7.4-3.5-8.2-8.2C637.9,367.2,636.3,363.5,634.5,359.6z"/>
	<path fill="#FFFFFF" d="M661.8,355.7c-1.2-0.6-1.9-0.6-2.3,0.5c1.8,2.8,5.6,1.4,8.5,3.7c-6.1,0-11.4-1.3-16.8-1.7
		c-5.6-0.4-11.2-1.2-16.7-1.9c-5.7-0.7-11.3-1.4-17-2.1c-1.1-2-2.2-3.8-0.7-6c2.2-3.2,5.3-1.1,7.8-1.7c1.5,1.6-0.4,4.3,2,5.2
		c1.9,0.8,3.5-0.2,5-1.2c0.9,0.5,1.4,1.5,2.5,1.6c2-0.9,2-0.9,4.3-3.5c5.1,0.4,10.2,0.8,15.3,1.4c1.5,0.2,2.9,0.1,4.3-0.1
		c3.2-0.3,4.2,1.1,3.6,4.3C661.5,354.5,661.7,355,661.8,355.7z"/>
	<path fill="#FFFFFF" d="M931,396.1c-1.3,1.5-3,1.2-4.6,0.8c-4.4-1.3-6.2-3.7-6.4-8.3c-0.1-3.7,0.6-7.5,2-10.8
		c1.2-2.8,4-4.8,6.4-6.7c0.8-0.6,6,0.3,6.7,1.1c0.6,0.7,0.1,1.2-0.2,1.8l0.1-0.1c-4.6,2.5-9.4,5-9.9,11.1c-0.3,2.9,1.6,5.3,1.5,8.4
		C928.6,393.6,929.4,395.5,931,396.1L931,396.1z"/>
	<path fill="#FFFFFF" d="M840.3,426.7c-1.8-0.1-2.9,1.5-4.9,1.8c2.6-2.9,5.6-4.5,8.1-6.6c1.5-1.3,2.6-2.5,2.7-4.7
		c0.1-2.5,1.1-4.7,4.1-5.5c1.8-0.5,3.3-1.9,5.1-2.3c0.7,0.4,0.4,1.1,0.2,1.2c-2.6,1-2.7,3.5-3.5,5.6c-0.7,1.8-2.2,3.1-3.5,4.5
		c-0.9,0.9-1.8,1.8-2.9,3c1.7,0.5,2.2-1,4.2-1.1c-6.8,5.3-12.9,10.3-20.3,13.2C833.5,433.1,836.6,429.6,840.3,426.7z"/>
	<path fill="#FFFFFF" d="M948.2,396.4c7.2-0.3,13.1,1.8,18.8,5.2c1.4,2.6,0.5,5.3-0.7,8.1c-1.5,0.1-2.8,0-3.9-1.3
		C958.3,404.1,953.9,399.9,948.2,396.4z"/>
	<path fill="#FFFFFF" d="M955.3,377.6c8.1-1.4,15.6-6,24.1-6c1.1,3.8-3.2,8.4-7.1,8C966.6,378.9,960.9,378.2,955.3,377.6z"/>
	<path fill="#FFFFFF" d="M806.1,643.1c1.4-3.2,1.1-6.3,2.1-9.3c3,3.1,7.3,1.3,10.6,3.6c-0.4,2.5,0.8,5,1.4,8
		C815.5,644.6,810.9,643.9,806.1,643.1z"/>
	<path fill="#FFFFFF" d="M1029.9,388.6c3.3,1.8,4.9,5.5,4.3,9.4c-0.5,3.4-3,3.9-5.8,4.1C1023.7,398.7,1024.3,392.8,1029.9,388.6z"/>
	<path fill="#FFFFFF" d="M743.9,616c0.8-1.3,1.4-2.3,2.1-3.5c4.8,1.2,9.6,3.7,14.6,1.3c0.7,1.5,0.5,2.8,0.3,4.2
		c-3,2.4-6.1,3-9.6,1.1C749,617.8,746.5,617,743.9,616z"/>
	<path fill="#FFFFFF" d="M743.4,611.1c0,2.1-0.9,3.6-1.7,5.5c-3.2-1.2-6.6-0.8-9.7-1.8c0.1-2.6,3-3.2,3-5.9
		C737.6,610.7,740.6,610.3,743.4,611.1z"/>
	<path fill="#FFFFFF" d="M833.9,639.9c-0.3,3.8-1.3,4.9-4.1,4.3c-2.6-0.6-5.3,0.9-8.1-0.4c-0.8-1.6-0.9-3.2-0.3-5.6
		C825.3,642,829.7,639.6,833.9,639.9z"/>
	<path fill="#FFFFFF" d="M716.9,367.8c4.8-0.3,8.6,4.7,7.2,8.7c-0.9,2.5-3,4.1-4.3,6.2c-0.9-0.2-1.2-0.8-1.3-1.8
		c2-0.7,2.4-2.8,3.3-4.8c-1.1-0.8-1.8-2.2-1.3-4.1c0.9,0,1.3,1.3,2.2,1.3C722.2,370.8,722.2,370.8,716.9,367.8z"/>
	<path fill="#FFFFFF" d="M633.2,342.9c1.8-0.5,3.2-1.6,4.8-2.4c1.3,0.3,2.3,1.2,3.5,2c-2.5-1.4-2.8,3-5.5,1.6c1,2.6,0.6,4.7-2.2,6.2
		C632,347.9,632.4,345.4,633.2,342.9L633.2,342.9z"/>
	<path fill="#FFFFFF" d="M556.1,340.2c0.2,2-0.8,4.1,0.3,6.2c-1.4,0.9-2.8,0.2-3.8,0.6c-1.3-0.9-1.7-2.1-2.1-3.2
		C552.2,340.3,553.4,339.5,556.1,340.2z"/>
	<path fill="#FFFFFF" d="M860.3,407.8c1.6-1.6,3.5-1.8,5.7-1.1c0.2,0.9,0.4,1.9,0.7,3.1c-2.6,2.2-5.2,4.4-7.9,6.7
		c0.5-4.1,3.3-6.1,6.7-7.7c-1.5-1.1-2.4,0.1-3.5,0.2C861.4,408.5,861.7,406.9,860.3,407.8L860.3,407.8z"/>
	<path fill="#FFFFFF" d="M860.3,407.7c-1.8,4.8-3.2,9.9-8,13c2-4.1,5.4-7.5,5.4-12.2C858.6,407.7,859.4,407.4,860.3,407.7
		L860.3,407.7z"/>
	<path fill="#FFFFFF" d="M631.5,342.7c-0.5,2.5-0.3,4.5-0.3,6.7c-1.4,0.8-2.8,1.1-4.4,0.6C626.9,346.7,628.3,344.4,631.5,342.7z"/>
	<path fill="#FFFFFF" d="M648.6,345.4c-2.3,2-5,1.6-7.4,1.4c-0.7-0.8-0.6-1.6-0.3-2.6C643.2,345.3,645.9,344.7,648.6,345.4z"/>
	<path fill="#FFFFFF" d="M866.5,411.2c0.6,1.3,0.9,2.4,0.9,3.9c-1.7,0.4-3.5,0.7-5.8,1.2C863.4,414.4,864.9,412.9,866.5,411.2z"/>
	<path fill="#FFFFFF" d="M682,357.1c-1.8,0.9-3.6,1-5.4,0.9c-0.8-0.7-0.5-1.3-0.2-2.1C678.3,356,680.2,356.2,682,357.1z"/>
	<path fill="#FFFFFF" d="M812,418.2c0.8-2.3-0.9-5.4,2.6-6.9C814.3,414,813.4,416.2,812,418.2z"/>
	<path fill="#FFFFFF" d="M931.1,396.2c0-0.6-0.1-1.1-0.1-1.8c1.7-0.3,3.2,0.3,5.3,0.5C934.4,396.2,932.8,396.6,931.1,396.2
		L931.1,396.2z"/>
	<path fill="#FFFFFF" d="M935,373.9c1,0.8,3.3-0.9,3.5,1.7c-1.1,0.5-2.1,0-3.2,0C935.2,374.9,935.2,374.4,935,373.9L935,373.9z"/>
	<path fill="#FFFFFF" d="M725.6,370.6c-1.2-1.3-2.3-2.5-3.5-3.8c2,0.5,2.9,2,4.1,3.3C726,370.3,725.8,370.5,725.6,370.6z"/>
	<path fill="#FFFFFF" d="M718.3,373.6c-0.6,0.2-1.2,0.6-2,0.2c0-1.2,1.1-1.8,1.7-3.5C718.2,371.8,718.2,372.7,718.3,373.6z"/>
	<path fill="#FFFFFF" d="M675.3,347.4c-1.7,1.1-2.9,0.6-4.1,0.2C672.3,347.1,673.5,347,675.3,347.4z"/>
	<path fill="#FFFFFF" d="M969.9,400.5c-1.8-0.9-2.9-1.5-4.6-2.3C967.2,398.4,968.8,397.9,969.9,400.5z"/>
	<path fill="#FFFFFF" d="M852.2,422c-0.5,1.6-1.7,2.5-3.3,3.7C849.4,423.7,850.9,422.9,852.2,422z"/>
	<path fill="#FFFFFF" d="M688,355.3c-1.9,0.2-3,0.4-4.1-0.7C685.3,354,686.3,354.6,688,355.3z"/>
	<path fill="#FFFFFF" d="M717.2,353.8c1-0.6,1.8-0.1,3.2,0.8C718.8,354.7,717.9,354.8,717.2,353.8z"/>
	<path fill="#FFFFFF" d="M709,370.6c1.8-0.1,1.5,1.2,1.9,2.3C709.6,372.5,709.4,371.4,709,370.6z"/>
	<path fill="#FFFFFF" d="M696.4,332.9c1.1-1,2.2-1.7,4-0.4C698.9,333.1,697.5,332.1,696.4,332.9L696.4,332.9z"/>
	<path fill="#FFFFFF" d="M627.7,342.7c-0.4,1.1-1.1,1.9-2.2,2.7C625.2,343.4,626.9,343.3,627.7,342.7z"/>
	<path fill="#FFFFFF" d="M670.6,351.8c1.4,0.1,2.1,0.7,2.9,1.3C672.1,353.7,671.5,352.8,670.6,351.8z"/>
	<path fill="#FFFFFF" d="M834.9,635.3c0.5,0.5,0.9,1,0.7,1.7C834.2,636.5,834.2,636.5,834.9,635.3z"/>
	<path fill="#FFFFFF" d="M724.1,628.1c-0.6,0-1.2,0.3-1.6-0.2C723.1,627.2,723.6,627.7,724.1,628.1z"/>
	<path fill="#FFFFFF" d="M725.4,362.8c-0.8,1.1-1.3,0.7-1.8,0.1C724.1,362.1,724.7,362.6,725.4,362.8z"/>
	<path fill="#FFFFFF" d="M712.3,371.5c0.6-1.1,0.8-1.9,2.1-2.5C713.7,370.1,713.6,370.9,712.3,371.5z"/>
	<path fill="#FFFFFF" d="M674,357.8c-1,0.4-1.7,0-2.6-0.5C672.5,356.9,673.3,356.9,674,357.8z"/>
	<path fill="#FFFFFF" d="M690.9,356c-0.8,0-1.2-0.1-1.5-0.7C690,355,690.5,354.9,690.9,356z"/>
	<path fill="#FFFFFF" d="M633.3,342.9c-1.2-1.3,0.4-1.3,0.8-1.8C634.2,341.9,633.6,342.4,633.3,342.9L633.3,342.9z"/>
	<path fill="#FFFFFF" d="M704.8,340.4c1.1-0.2,1.6-0.1,1.9,0.7C705.9,341.6,705.5,340.9,704.8,340.4z"/>
	<path fill="#FFFFFF" d="M703,358.2c0.4-0.6,1-0.6,1.6-0.5C704.3,358.8,703.6,358.3,703,358.2z"/>
	<path fill="#FFFFFF" d="M715.1,371.9c0-0.6,0.2-1.2,0.9-1.4C715.9,371.1,715.7,371.7,715.1,371.9L715.1,371.9z"/>
	<path fill="#FFFFFF" d="M693.9,356.7c-0.9,0.2-1.3-0.1-1.6-0.6C693.1,355.6,693.4,356.3,693.9,356.7z"/>
	<path fill="#FFFFFF" d="M720.1,342.3c0.8-0.3,1.1,0.1,1.4,0.8C720.7,343.4,720.4,342.9,720.1,342.3z"/>
	<path fill="#FFFFFF" d="M718.2,363.5c0.2,0.6,0.5,1.2-0.5,1.4C717.2,364.2,717.7,363.9,718.2,363.5z"/>
	<path fill="#FFFFFF" d="M696.4,332.9c-0.7,0-1.4,0.7-2.2,0.2C695,332.5,695.7,332.8,696.4,332.9L696.4,332.9z"/>
	<path fill="#FFFFFF" d="M543.5,233.5c1.9,0.1,3.4,0.2,4.3,0.2c4.3,3.1,8.7,5,12.6,7.9c3.6,2.8,6.1,7.4,11.4,7.7
		c0.4,0.4,0.3,0.9,0.2,1.3c-3.5,12.8-8.7,24.7-17.2,35.1c-3.8,4.7-8.3,8.1-13.3,11.1c-2.5,1.4-5.2,1.8-7.9,2.3
		c-4.7,0.7-9.4,0.4-14.1,0.3c-9.2-0.1-16.5-4.3-23-10.4c-3-2.8-5.1-6.5-8.1-9.4c-2.5-2.5-3.8-5.8-5.4-8.8c-4-7.6-7.4-15.5-8.4-24
		c-1-8.8-3.7-17.4-2.7-26.4c1-9.1,1.4-18.3,3.1-27.3c1.2-6.4,4.5-11.9,8-17.3c4.3-6.6,8.2-13.4,14-18.9c4.1-3.9,8.6-6.9,13.9-9.2
		c4.6-2,9.2-3.6,14.2-3.5c4.9,0.1,9.8,0.4,14.4,2.5c3.8,1.7,7.7,3,11.3,5.2c1.9,1.2,3.6,2.4,4.8,4.2c3.7,5.3,7.7,10.5,10.8,16.2
		c5.4,9.7,8,20.4,10.2,31.2c0.2,0.8,0,1.8,0,2.8c-4,1.5-8,2.7-11.7,4.4c-3.6,1.6-8,1.2-11.2,4.1c-2.8,0-5.7,0-8.6,0
		c-1.1-1.6-2-3.2-3.6-4.4c-6.8-5-13.8,0-16.4,5.6c-2.2,4.7-2,9.6-1.4,14.5c0.7,5.8,7.8,9.5,13.6,7.2
		C539.5,236.7,542.1,235.9,543.5,233.5z"/>
	<path fill="#FFFFFF" d="M348.6,269.3c4,0.6,7.7,0.2,11-2.8c1.5-1.4,3.6-2.2,5.6-3.1c1-0.5,2-1,2.8-1.9c3.4-3.8,6.4-4.4,10.9-2
		c1.7,0.9,3.2,2,5.2,3.2c-2.2,0.2-3.6-2-5.4-0.8c-0.7,1.5,0.9,1.8,1.2,2.6c-1.7,3.9-2.1,8-2.8,12.1c-0.1,0.9-0.1,1.8-0.2,2.7
		c-0.3,3.5-0.7,6.7-5.4,7.4c-1.5,0.2-2.8,2.3-5,2.2c-2.8-0.2-5-0.7-8-2.2c-0.3-0.9,1.5-1.6,0.3-2.7c-1.5-0.5-1.5,1.4-3.1,1.8
		c-6.6-5.1-13.9-9.9-18.3-17.9c-1.3-2.4-3-4.5-4.4-6.8c-4.2-6.8-6.7-14.2-6.6-22.3c0.1-6.6,2.3-12.6,5.1-18.1c2.9-1.9,6.9,0,9.6-3.8
		c-3.2-0.6-5.6-0.6-8.5,1.2c0.8-1.7,1.4-3,2-4.3c1.3-0.3,2.6,0.7,3.9-0.1c-0.3-1.4-1.9-1.5-2.7-2.6c2-3.8,4-7.7,5.9-11.3
		c1.9-0.6,3.2,0.4,4.5,0.8c3.2,1,6.4,2,9.6,3.1c2.1,0.7,4.4,1.1,5.4,3.5c0.4,1,1.6,1.2,2.6,1.2c2.3-0.1,4.4,0.5,6.5,1.6
		c-0.3,0.6-1.4,0.5-1.3,2c5.7,2.3,12.2,3.7,17,8.4c-1.1-2.8-3.4-4.7-11.2-9.3c3.8,0.6,6.4,2.3,9.3,3.2c3.3,1,5.9,2.5,8.3,5.2
		c4.2,4.8,8.1,9.7,10.9,15.7c2.6,5.6,7.6,9,14,9.5c3.9,0.3,7.2,1.8,10.1,4.3c3.2,2.8,7.1,4.2,10.9,5.9c3.6-2.1,7.7-2.5,11.8-2.5
		c2.8,0,5.6,0.4,8.4,0.3c4.2-0.3,7.9-1.3,11.2-4.1c0.5-0.4,1.2-0.6,2.1-1.1c2,6.5,2.3,13.5,6.2,19c-2.2,3.9-5.3,6.6-8.9,8.9
		c-7.4,4.9-15.2,8.7-24.2,9.6c-1.4,0.1-2.5,0.7-3.3,1.8c-2.8-0.4-5.1-1.7-7.4-2.7c-5.1-2.3-10.1-4.6-16.1-4.2
		c-3.1,0.2-6.3-1.5-9.3-2.8c-5.5-2.3-10.6-5.3-15.5-8.7c4.5,1.5,8.8,3.5,13.6,3.9c4.7,0.4,8.6,3.6,13.6,3.9
		c-0.1-0.9-0.5-2.4,1.3-2.9c-1.9-0.4-3.5-1-5.5-0.2c-2.1,0.8-4.3-0.4-6-1.4c-2.1-1.2-4.2-2.1-6.5-2.7c-5.2-1.3-9.9-4.2-15.1-5.6
		c-1.4-0.4-2.6-1.8-3.9-2.7c-2.5-1.8-5-3.5-7.8-4.5c-0.2-1.6,2-1.9,1.7-3.7c-3.3,1.7-7.3,2-10.2,3.7c-3.9,2.3-8.1,4.2-11.7,7
		c-1.8,1.4-3.9,2.3-5.6,3.7C350.4,267.7,349.2,268.2,348.6,269.3c-0.6,0.3-1.4,0.1-2,0.6c0.1,0,0,0,0,0
		C347.3,269.4,348,269.6,348.6,269.3z"/>
	<path fill="#FFFFFF" d="M534.1,229.9c-2.9-4.9-2.6-7.5,1.4-12.7c31.3,1.1,62.8,2.2,94.7,3.3c-2.9,5-2.8,9.5,0.6,14.2
		C598.2,233.1,566.1,231.5,534.1,229.9z"/>
	<path fill="#FFFFFF" d="M402.8,226.5c22.6,1.1,44.6,2.2,67.2,3.3c0.7,4.9,1.4,9.9,2.1,14.7c-4.7,4.6-10.5,5.5-16.1,5.1
		c-6.5-0.5-12.5,0.4-18.5,3.1c-2.2-2.4-4.7-4.3-7.3-6.1c-3.4-2.5-7.3-4.2-11.5-4.3c-6.1,0-10.1-2.9-12.4-8.3
		C405.3,231.6,404.2,229.4,402.8,226.5z"/>
	<path fill="#FFFFFF" d="M469.4,214.9c0,4.1,0,7.7,0,11c-1,1-1.9,0.7-2.8,0.6c-21.6-1.1-43.1-2.2-64.7-3.2c-1-0.1-2.1-0.1-2.7-1
		c-2.6-4.1-7-6.2-10.5-9.3c-0.1-0.1-0.2-0.4-0.5-1C415.5,213,442.4,214,469.4,214.9z"/>
	<path fill="#FFFFFF" d="M536.9,234.8c-1.5,2.4-3.7,1.5-5.7,1.1c-1.3-0.3-2.5-0.9-3.8-1.3c-3.7-5.6-2.6-11.7-0.9-17.4
		c0.8-2.7,3.3-5.3,5.9-6.7c2.1-1.2,4.9-0.5,7.9,1.2c-2.9,1.5-4.6,3.4-6.6,5.1c-3.8,3.2-4.8,6.9-2.9,11.4c0.6,1.4,0.9,2.8,1.4,4.4
		C534,232.6,534.9,234.9,536.9,234.8L536.9,234.8z"/>
	<path fill="#FFFFFF" d="M572.7,246.3c-1.8,0.2-3,0-4.2-1.2c-4.3-3.9-8.7-7.7-13.9-10.5c6.7-1.9,12.3,1.3,18.2,3.3
		C574.4,240.6,573.8,243.4,572.7,246.3z"/>
	<path fill="#FFFFFF" d="M583.2,207.3c1,3.6-2.5,8.7-6,8.5c-5.9-0.4-11.8-0.4-17.8-1C567.6,212.9,574.8,208,583.2,207.3z"/>
	<path fill="#FFFFFF" d="M637.9,233.7c-1.2,0.3-2.3,0.6-3.5,0.9c-5.2-3.1-5.1-8.9,0.4-13.6C639.7,223.2,641.1,229,637.9,233.7z"/>
	<path fill="#FFFFFF" d="M335.8,124.1c-0.5,0.4-1.1,0.7-1.7,1.1c0,1.3,1.4,1.6,1.7,2.9c-1.4,0-2.2-1.3-3.5-1.4
		c-1.3-0.1-2.3,0.5-3.4,0.9c-0.7-0.3-1.1-0.8-1.2-1.5c1-1.2,1.9,0.1,3,0c0.6-0.6,1.2-1.3,2-2.1C333.7,123.7,334.7,124.7,335.8,124.1
		L335.8,124.1z"/>
	<path fill="#FFFFFF" d="M333.7,154.8c0.9-1.1,1.3-1.9,2.5-2c2.2,1.8,0.6,3.2-0.7,5C335.1,156.5,334.6,155.5,333.7,154.8z"/>
	<path fill="#FFFFFF" d="M329.7,153.9c0.2-2-0.1-4.3,3.1-4.6C333.1,151.9,331.3,152.8,329.7,153.9L329.7,153.9z"/>
	<path fill="#FFFFFF" d="M312.2,129.5c0-1.4,1.4-1.2,1.9-1.8c1.3,0.5,1.7,1.6,2.4,2.3C315.1,129.1,313.4,130.8,312.2,129.5
		L312.2,129.5z"/>
	<path fill="#FFFFFF" d="M319.1,125.3c1.8,0.8,3.4,1.8,4.4,4.3C321.2,128.5,320.2,126.9,319.1,125.3z"/>
	<path fill="#FFFFFF" d="M536.9,234.8c-0.3-0.5-0.7-0.9-0.3-1.8c1.4,0.1,3,0.3,5.1,0.5C539.9,234.7,538.7,235.8,536.9,234.8
		L536.9,234.8z"/>
	<path fill="#FFFFFF" d="M282.1,123c-1.2-0.5-1.3-1.6-2-2.6c0.9-0.4,1.7-0.1,2.4,0C282.9,121.5,282.5,122.2,282.1,123z"/>
	<path fill="#FFFFFF" d="M302.9,116.9c2-0.2,3.2,0.2,3.1,2.7C304.6,118.9,303.6,118.2,302.9,116.9z"/>
	<path fill="#FFFFFF" d="M543,214.3c-1.4,0-2.4,0-3.4,0c-0.3-1.6,1.1-1.3,1.7-1.9C542.1,212.8,542.6,213.3,543,214.3z"/>
	<path fill="#FFFFFF" d="M332.2,138.8c1.7,1.5,1.3,3,0.9,4.4C332.8,141.9,331.9,140.8,332.2,138.8z"/>
	<path fill="#FFFFFF" d="M571.1,235.1c1.5-0.1,3.1-0.8,4,1.1C573.8,236.1,572.6,235.1,571.1,235.1z"/>
	<path fill="#FFFFFF" d="M318.4,134.9c1.1,0.7,1,1.6,1,2.5c-0.2,0-0.5,0-0.5,0C318.5,136.6,317,136.2,318.4,134.9z"/>
	<path fill="#FFFFFF" d="M329.5,142.2c-1.1-0.1-1.6-0.6-2.3-1.1C328.7,139.6,328.9,141.2,329.5,142.2z"/>
	<path fill="#FFFFFF" d="M324.4,141c1.1,0.6,2,0.9,1.5,2.3C324.8,143.1,324.3,142.6,324.4,141z"/>
	<path fill="#FFFFFF" d="M323.1,119.7c-1.4,0.5-2.2,0-2.6-1.4C321.8,118.1,322.3,119.1,323.1,119.7z"/>
	<path fill="#FFFFFF" d="M288.6,116.1c-1.2-0.5-1.8-1.1-1-2.3C288.7,114.1,288.2,115.4,288.6,116.1z"/>
	<path fill="#FFFFFF" d="M288.9,149.7c-1.4,0.5-2.2,0.6-3.3,0.3C286.7,148.7,287.5,149.4,288.9,149.7z"/>
	<path fill="#FFFFFF" d="M298,127.4c1.1-0.8,1.8-1.4,3.1-1.2C300.3,127,299.5,127.4,298,127.4z"/>
	<path fill="#FFFFFF" d="M303.5,126c0.2-1.1,0.5-1.5,1.3-1C304.9,125.7,304.3,125.7,303.5,126z"/>
	<path fill="#FFFFFF" d="M312,115.1c-0.1,0.2-0.2,0.4-0.3,0.5c-0.1,0.1-0.4-0.1-0.5-0.2c0.1-0.2,0.2-0.4,0.3-0.5
		C311.6,114.9,311.8,115.1,312,115.1z"/>
	<path fill="#FFFFFF" d="M302.4,124.5c-0.4-0.2-0.6-0.5-0.7-1.2C302.4,123.5,302.8,123.7,302.4,124.5z"/>
	<path fill="#FFFFFF" d="M324.4,138.9c-0.4,0-0.5-0.3-0.2-0.9C324.3,138.4,324.4,138.7,324.4,138.9z"/>
	<path fill="#FFFFFF" d="M300.5,624.3c1.5-0.4,4.1-0.1,4.5-3c1.8-0.7,3.8,1.1,5.2-0.8c0.2-1.9-1.6-1.8-2.4-2.6
		c0.3-0.9,0.9-1.5,1.5-2.1c2.2,1.2,2.9,3.6,4.9,5.1c2.7,0.1,5.4-0.1,8.2-0.5c3.5-0.5,3.3-3.8,5.2-5.8c-0.5,3.4,1.1,6,3.1,8.3
		c0.9,1,0,2.4,0.3,3.6c0.7,2.8,1.6,5.6,2.7,8.2c-0.5,1.5-1.8,2.3-3,2.7c-5.9,1.8-11.8,4.5-17.9,4.2c-5.8-0.4-10.7,0.4-15.3,4
		c-1,0.8-2.5,1-3.8,1.3c-1.5,0.4-2.8,0.8-2.8,2.8c-7.6,1.3-14.9,2.9-22.6,1.7c-6.4-1.1-7.2-1.7-8.5-7.9c1.8-1.9,3.2-4.2,4.5-6.4
		c7.3-1.9,7.3-1.9,10-0.4c3.2-1.1,5-3.9,7.3-6.4c2.6,0.6,5.1,0.5,7.5-0.7c0.9-0.4,1.8-0.3,2.6-0.2
		C295.6,629.7,297.6,627.1,300.5,624.3z"/>
	<path fill="#FFFFFF" d="M307.1,612.2c0.5,2.2-0.7,3.7-1.3,5.7c-3-0.4-6-0.8-9.1-1.1c0.2-2.2,1.7-3.7,1.7-5.4
		c0.8-0.9,1.6-0.7,2.4-0.6c0.8,0.5-0.3,1.3,0.4,1.8c1.3,0.4,1.2-1.5,1.6-1.5C304.8,610.6,306,611.4,307.1,612.2z"/>
	<path fill="#FFFFFF" d="M314.7,618.2c-1.2-1.3-2.2-2.5-3.3-3.7c1-0.6,1.7,0.3,2.4,0.5c1.9,0.8,3.5,0.9,5.3-0.5
		c2.2-1.8,5.4-2.1,7.6-4.1c1.3,0.7,1.4,1.5,0.3,2.3c-2.2,1.3-3.6,3.3-5.1,5.2C319.4,618.2,317,618.8,314.7,618.2z"/>
	<path fill="#FFFFFF" d="M299.7,620.4c-2.4,0.2-4.7,0.4-7.4-0.3C295.2,617.4,297.4,619.6,299.7,620.4z"/>
	<path fill="#FFFFFF" d="M367.9,361.1c1.6,0.7,1.5,2.3,2.7,2.6c-0.7,0.8-1.3,1.3-2.2,1.5C367.6,363.9,367.5,362.7,367.9,361.1z"/>
	<path fill="#FFFFFF" d="M364.4,367.4c-1-1.2-1.1-2.5-1-4.3c1.7,0.8,1.5,2.7,2.9,3C365.9,367.3,365.1,367.1,364.4,367.4z"/>
	<path fill="#FFFFFF" d="M319.3,374.6c0.8-0.8,1.4-0.4,2-0.3C320.7,374.4,320.1,374.5,319.3,374.6z"/>
	<path fill="#FFFFFF" d="M323.8,373.5c0.3,0,0.5-0.1,0.7-0.1c0.3,0.1,0.2,0.2-0.1,0.2C324.2,373.6,324,373.6,323.8,373.5z"/>
	<path fill="#FFFFFF" d="M373.1,361.3c0.5-0.1,0.8,0.1,0.9,0.6c0,0.4-0.4,0.5-0.6,0.4C373,362.1,372.9,361.7,373.1,361.3z"/>
	<path fill="#FFFFFF" d="M214.3,150c-0.4,1.1-1.8,0.6-2.4,1.7c0.8-0.1,1.5-0.1,2.1-0.3c7.6-2.9,13.9-0.2,20,4.3
		c3.2,2.4,5.9,5.6,10.2,6.3c0.4,0.1,0.9,0.7,1.2,1.1c5.3,7.1,10.8,14.2,12.4,23.3c1,5.8,1.8,11.7,2.7,17.6c-2.4,0.6-4.5,0.3-6.6,0.2
		c-1.5-1.1-1.5-3.1-3-4.3c-3.9-0.4-7.9-1.6-12.1-0.5c-2.3,0.6-4.8,0.1-7.2,0.3c-2.2,0.1-3.8,1-4.9,2.1c-1.4,1.4-2.9,1.8-4.5,2.6
		c-1.9,0.9-4,1.6-4.7,4c-1.3,5.1-0.2,6.7,5.2,7.8c1.9,0.4,4.1,0.4,5.8,2.3c0.5,4.8,2.3,9.5,6.7,12.4c4.4,2.9,8.3,6.5,12.6,9.5
		c1.3,0.9,2.7,1.7,3.5,3c-5,11.1-12.5,19.7-23.6,24.8c-5.6,2.6-11.6,2.6-17.5,2.6c-12.3,0-22.1-5.7-30.7-13.9
		c-6.1-5.9-9.2-13.3-12.2-21c-3.9-10-5.2-20.2-5.4-30.6c-0.2-8.4,1.3-17,5.5-24.3c3.8-6.5,8.4-12.7,14.4-17.5c0.6-0.5,1.2-1,1.8-1.6
		c4.4-4.5,9.6-7.2,15.7-8.6c4.4-1,8.6-2.6,13-3.2C213,149.9,213.6,149.7,214.3,150z"/>
	<path fill="#FFFFFF" d="M245.2,225.5c-0.3-0.8-1.1-0.8-1.7-0.8c-3.1-0.2-5.4-1.9-7.3-4.8c5.9-2.7,11.8-0.5,17.5-0.8
		c0.4,5.7,0.4,5.7,5.4,8c3.9,1.8,7.7,3.7,11.1,6.3c0.6,0.5,1.3,0.9,2.1,0.8c1.4-1.2,0.4-2-0.4-2.8c-1.9-2-4.3-3.2-6.7-4.5
		c-1.2-0.6-2.4-1.2-3.7-1.9c0.2-1.7,0.5-3.4,0.7-5.2c3.4-0.5,6.5,0.2,10.1,0.4c-1.5,4.4-0.8,8.3,1.4,12.1c1,1.9,0.3,4.3-0.6,6.2
		c-2.5,5.4-4.3,11.1-5.9,17.3c-1.8-2-3.6-3.8-5.2-5.8c-3.8-4.5-8.9-7.5-13.5-11c-4.2-3.1-8.3-6.5-12.3-9.9c-2.2-1.8-3.5-4.3-5.6-6.2
		c0-1.5,0-2.9,0-4.5c1.4-0.8,2.8-0.4,4.2-0.2C235.1,223.9,239.3,226.8,245.2,225.5l0.2,0.1L245.2,225.5z"/>
	<path fill="#FFFFFF" d="M281.6,208.8c-3.1,2.1-5.8,4.4-6.9,8.2c-12.3-0.6-24.4-1.2-36.8-1.8c1.9-2.5,1.1-5.2,1.1-8
		C253.2,207.3,267.3,207.5,281.6,208.8z"/>
	<path fill="#FFFFFF" d="M283.4,211.9c-1.3,7.5-4.1,14.2-6.6,21.1c-0.3-1.7-0.1-3.6-2.4-3.6C273.5,222.3,276.6,216.2,283.4,211.9z"
		/>
	<path fill="#FFFFFF" d="M232.3,206.9c1.1-2.3,2-4.2,3-6.2c1.5,0.1,3,0.8,4.9,0.2c-0.7,2.3-0.8,4.5-3.4,5.1c0.4,2.5,0.5,4.9,0.2,7.8
		C233.7,212.2,233.7,209.1,232.3,206.9z"/>
	<path fill="#FFFFFF" d="M223,206.4c-0.2,3.3,2.8,5,2.8,8c-1.5,0-3.1,0-4.5,0C218,210.7,218.4,207.8,223,206.4z"/>
	<path fill="#FFFFFF" d="M158.7,204c0.4,2.5-0.1,4.7,0.7,6.8c-1.3,0.7-2.5,0.4-3.7,0.6c-1.4-1.1-2.7-2.4-1.8-4.3
		C154.6,205.3,156,203.8,158.7,204z"/>
	<path fill="#FFFFFF" d="M250.3,204.7c-3.4,1.7-6.1,0.1-8.8-1c-0.1-1.3,0.4-1.9,1.2-2.7c2.2,0.3,4.5,0.5,6.8,0.8
		C250,202.7,250.8,203.4,250.3,204.7z"/>
	<path fill="#FFFFFF" d="M234,214.8c-3.8-0.9-5.1-3-4.4-6.4c0.4-2,0.7-3.9,0.5-5.8c0.7-0.5,1.3-0.7,2.2-0.5
		C230.9,206.5,231.2,210.7,234,214.8z"/>
	<path fill="#FFFFFF" d="M228,212.5c-0.4-3.3-2.6-6.5-0.1-9.9C228.5,205.9,227.2,209.3,228,212.5z"/>
	<path fill="#FFFFFF" d="M256.6,219.4c1.2-0.2,2.2-0.3,3.2,0.2c0.5,1.3-0.4,2.3-0.2,3.8C257.2,222.8,255.7,222.1,256.6,219.4z"/>
	<path fill="#FFFFFF" d="M287.4,211.2c-0.4-0.9-0.5-1.6,1-1.9C288.6,210.2,288.2,210.7,287.4,211.2z"/>
	<path fill="#FFFFFF" d="M364.9,655.2c1.5,0.1,2.9,0,4.3,0.5c1.3,0.4,2.8,0.9,3.7-0.6c1.1-1.9-0.9-2.4-2.4-4.2c4.6,2,6.6-1,9.6-3.4
		c-4.1-3.6-9-4.1-13.9-5.5c0.2-2.7,1.9-5.1,1-8.3c3.2,0.8,5.9,0.5,8.5,0.7c0.3,1.3-0.5,2.2-0.7,3.2c2.4,4.2,12.6,7.2,19.6,6
		c0.3-0.7,0.5-1.5,0.8-2.2c0.6,0,0.7,0.3,0.9,0.6c1.2,3.1,3.4,5.7,3.4,9.3c-0.1,3.3,1.4,6.3,2.1,9.5c-1.8,2.7-4.1,3.2-7.4,3.6
		c-5.3,0.5-10.9,1.6-14.4,6.7c-0.8,1.1-1.8,2.2-3,2.7c-4.7,1.7-8,5.6-12.7,7.3c-3.3,1.2-6.7,0.5-10,0.4c-3.2-0.1-6.2-1-9.6-0.7
		c-4.8,0.5-8.8-3.9-8.7-8.6c4.7-4.4,10.4-7.5,15.1-11.8c3.8,0.2,7.6,3.1,11.5,0.7c-0.2-1.9-1.9-1.5-2.5-2.5l-0.1,0.1
		c1.9-0.1,3.8,0.2,5.7,0.5c1.3,0.2,2.5,0.3,3-1.3C368.4,655.7,366,656.4,364.9,655.2L364.9,655.2z"/>
	<path fill="#FFFFFF" d="M382.8,636.8c2.8-1.8,5.6-0.7,8.4-0.3c0.8,1.2,0.3,2.4,0.4,4.1c-4.5-1.4-8.9-0.8-12.9-2.9
		c-0.3-1.2,0.4-2,0.5-3C381.2,634.3,382.3,635.2,382.8,636.8z"/>
	<path fill="#FFFFFF" d="M375,648.7c-4.2-0.7-8.4-1.4-12.7-2.1c0.3-1.1,0.8-1.8,1.9-2.4c3.6,1.2,7.3,2.5,11,3.8
		C375.1,648.2,375.1,648.5,375,648.7z"/>
	<path fill="#FFFFFF" d="M364.9,655.2c-2.8,0-5.6,0-8.4,0c-0.4-1.1,0.4-1.6,1.1-2.3C360.1,653.6,362.5,654.4,364.9,655.2
		L364.9,655.2z"/>
	<path fill="#FFFFFF" d="M360.1,658.6c-2.1,0.4-4.2-0.6-6.3-0.3c0-0.9,0.6-1.3,1.2-1.9C356.7,657.1,358.4,657.9,360.1,658.6
		L360.1,658.6z"/>
	<path d="M912.9,317.9c-3.7,4.9-7.3,9.7-11,14.4c-4.6,5.7-7.3,12.3-9.6,19.1c-1.6,4.8-2.8,9.8-4.2,14.7c-0.3,1.1-0.5,2.2-2,2.3
		c-0.3-1.4,0.2-2.7,0.4-4c1.6-8,3.8-15.9,7.6-23.1c1.2-2.3,3.1-4.6,4.5-7c3.6-5.7,7.7-11,12.1-16.1
		C911.1,317.8,911.6,317.1,912.9,317.9z"/>
	<path d="M891.9,439c-6-8.7-8.4-18.5-8.3-28.9c1.1,4.9,2.1,9.8,3.6,14.6C888.7,429.6,890.2,434.3,891.9,439z"/>
	<path d="M884.4,385.3c-0.3,7.4,1,14.8,0.2,22.1C883.6,400,881.9,392.7,884.4,385.3z"/>
	<path d="M893.9,442.9c5.8,4.2,11.6,8.3,17.4,12.5c-0.2,0.3-0.4,0.5-0.6,0.8c-6.6-3.1-12.4-7.2-17.5-12.4
		C893.5,443.5,893.7,443.2,893.9,442.9z"/>
	<path d="M913.6,316.8c5.1-3,9.9-6.7,15.9-8c0.1,0.3,0.3,0.5,0.4,0.8c-5.3,2.6-10.5,5.3-15.8,7.9
		C913.9,317.4,913.8,317.1,913.6,316.8z"/>
	<path d="M917.4,458c-1.6,0-3-0.2-4.5-1.8C915,456.2,916.3,456.9,917.4,458z"/>
	<path d="M885.4,370.6c0.9,1.2,1.3,2,0.4,3.2C884.8,372.9,885.1,372,885.4,370.6z"/>
	<path d="M940.2,309.8c-1.9-0.4-3.2-0.7-4.8-1.1C937.1,308.2,938.6,307.9,940.2,309.8z"/>
	<path d="M571,326c0.5,1.4-0.2,2.8-0.6,4.1c-1.4,4.6-1.7,9.2-1.8,13.9c0,2.3,0,4.7-0.7,7c-1.9,6.2-0.8,12.5,0.1,18.7
		c0.6,4.1,3.7,7.4,4.7,11.4c0.3,1.2,1.1,2.2,1,3.5c-0.7,0-1-0.6-1.2-1c-3-6.7-5.9-13.3-6.7-20.7c-0.6-5,0.1-9.8,1.2-14.6
		c0.5-2,0.1-4.2-0.1-6.3c-0.5-5.4,1.2-10.3,2.7-15.3C570,326.1,570.4,325.9,571,326z"/>
	<path d="M587.7,304.3c6-4.8,11.8-9.7,19.6-11.2C600.1,295.8,594.2,300.7,587.7,304.3z"/>
	<path d="M582.5,309c-2.9,5.4-6.6,10.4-8.8,17C574,320.8,578.1,312.9,582.5,309z"/>
	<path d="M577.9,390.8c1.9,2.7,3.9,5.3,5.9,8.2C580.9,397.7,578.7,394.9,577.9,390.8z"/>
	<path d="M589.3,404.4c1.4,0.5,2.9,1.1,4.3,1.7c0.2,0.1,0.3,0.3,0.8,0.7c-2.1-0.1-3.8-0.6-5.3-1.8
		C588.8,404.8,588.9,404.6,589.3,404.4z"/>
	<path d="M575.7,388.1c-0.4-0.1-0.7-0.3-0.6-0.8C575.5,387.4,575.8,387.6,575.7,388.1z"/>
	<path d="M864.4,436.8c-3.5,2.5-7.6,3.7-12.1,3.4C856.4,439.1,860.4,438,864.4,436.8z"/>
	<path d="M871.8,489.5c-0.1-2.7,1.1-4.7,3-6.2C873.8,485.4,872.8,487.5,871.8,489.5z"/>
	<path d="M808.2,448.1c0.7-2,1.6-3.7,3.4-4.8C811.1,445.4,810,447,808.2,448.1z"/>
	<path d="M879.7,464.9c-1,1.4-2.4,2.2-4,2.7l0,0C876.7,466.2,878.1,465.3,879.7,464.9L879.7,464.9z"/>
	<path d="M875.7,467.7c-0.2,0.7-0.7,1-1.8,1.3C874.5,468,874.9,467.6,875.7,467.7L875.7,467.7z"/>
	<path d="M791.2,393.6c-6.8,2.4-20.7,4.4-23.6,3.2c0-1.8,1.6-2.1,2.7-2.3c6.6-1.4,13.3-1.9,20-1.6
		C790.7,392.8,791.1,393,791.2,393.6z"/>
	<path d="M827,404.8c5.5,1.4,11,0.3,16.5-0.3C838,406.2,832.6,407.2,827,404.8z"/>
	<path d="M769.2,391.2c-2.7,2.9-5.7,4.6-8.7,6.3c-0.2-0.2-0.3-0.4-0.5-0.6c1.5-1.2,2.8-2.8,4.5-3.5
		C765.9,392.7,765.9,389.4,769.2,391.2z"/>
	<path d="M798.4,391.8c-3.6,1.8-4.4,1.9-6.3,0.8C793.8,391.1,794,391.1,798.4,391.8z"/>
	<path d="M829.7,388.7c-0.8,1.6-1.2,3-2.9,3C826.9,389.6,826.9,389.6,829.7,388.7z"/>
	<path d="M824.8,396.8c0.1-1.5,1.1-2.4,1.7-4C827.1,395.7,827.1,395.7,824.8,396.8z"/>
	<path d="M805.2,389.3c-0.9,1-2,1.9-3.8,1.3C802.4,388.9,803.9,389.3,805.2,389.3z"/>
	<path d="M762.4,382c0.3,2.2-1.7,2.3-2.9,3.2c0.4-1.5,1.3-2.7,2.7-3.4L762.4,382z"/>
	<path d="M762.2,381.9c0-1.3,0.8-1.9,2.2-2.2c0.2,1.6-1,1.9-2,2.4L762.2,381.9z"/>
	<path d="M768.8,412.4c-0.8-1.1-0.6-2,0.7-2.7C769.2,410.7,769,411.5,768.8,412.4z"/>
	<path d="M812.7,381.5c-0.8,0.8-1.3,0.5-2.2,0.1C811.5,380.3,812,381,812.7,381.5z"/>
	<path d="M853.3,400.6c-0.2,0.6-0.5,0.8-1,0.8C852.3,400.5,852.8,400.6,853.3,400.6z"/>
	<path d="M808.8,387.6c0.1,1-0.3,1.2-0.9,1.4C807.2,388.1,807.8,387.8,808.8,387.6z"/>
	<path d="M771.4,408.4c-0.3-0.9,0.2-1,0.6-1.3C772.6,408.2,772.1,408.3,771.4,408.4z"/>
	<path d="M755.7,525.8c1.4,1.7,0.2,2.6-0.4,3.6c-1.4,2.5-2.1,5.1-2.6,7.9c-0.9,4.9-0.1,9.6-0.5,14.3c-0.1,0.9,0.1,1.8-1.1,2.6
		c-2.4-2.3-2-5.3-2.1-8c-0.2-5.9,1.9-11.4,3.6-16.9C753.2,527.8,753.9,526.4,755.7,525.8z"/>
	<path d="M761.7,497.1c-1.8,8.3-10.8,12.1-17.8,7.8c2.6-1.1,4.9,0.1,7.4,0.3C754.8,503.2,758.1,500.4,761.7,497.1z"/>
	<path d="M743.8,503.2c-4.4-2.9-5.6-7.8-4.1-13.1C743.5,493.9,741,499.4,743.8,503.2z"/>
	<path d="M762.2,503.7c2.8-3.3,5.7-6.6,10.2-7.6C770.3,500.3,765.3,500.7,762.2,503.7z"/>
	<path d="M752.7,580.8c-1.7,5,0.9,9.9,0,14.8C752.5,590.6,750.1,585.7,752.7,580.8z"/>
	<path d="M740.2,507.8c-0.9,2.3,1.6,4.5,0.2,6.8C738.8,512.8,738.6,510.1,740.2,507.8z"/>
	<path d="M753.3,556.2c-0.7,1.6,1.3,2.9,0.4,4.6C751.3,557.4,751.3,557.4,753.3,556.2z"/>
	<path d="M750.9,606.1c0.1-2.3,2-3.7,2.4-5.9C754.3,602.9,752.3,604.4,750.9,606.1L750.9,606.1z"/>
	<path d="M741.8,503.3c0.2,1.5-0.4,2.2-1.5,2.9C739.9,504.8,739.9,503.7,741.8,503.3z"/>
	<path d="M758.1,588.8c-1.1-0.9-1.3-1.6-0.6-2.7C758.6,586.7,758.2,587.6,758.1,588.8z"/>
	<path d="M741.4,517c1.1,1,1.5,1.9,1,3.2C741.4,519.5,741,518.6,741.4,517z"/>
	<path d="M764,516.2c0.4-1.4,0.8-2.3,2-2.4C766.1,515.2,765.3,515.6,764,516.2z"/>
	<path d="M757.3,594.1c-0.8-0.8-1-1.5-0.5-2.4C757.7,592.3,757.6,593.1,757.3,594.1z"/>
	<path d="M757.9,582.9c-1.3-0.3-0.8-1.1-1-2.1C758,581.5,758.3,582,757.9,582.9z"/>
	<path d="M757.7,521.6c-0.3-1.3,0.3-1.5,1.2-1.5C759.2,521.1,758.9,521.6,757.7,521.6z"/>
	<path d="M760.6,506.6c-0.3,1.5-0.8,1.9-1.9,2C758.8,507.5,759.3,507,760.6,506.6z"/>
	<path d="M756.2,566.6c-1-0.8-1.5-1.4-0.6-2.2C756.7,564.8,756.4,565.5,756.2,566.6z"/>
	<path d="M676.6,376.8c6.1-4.3,12-3.2,18.1-0.8c-2.3,1.2-2.4,1.4-4.9,0.6c-2.5-0.8-4.6-0.7-7,0.6
		C681.1,378.1,678.9,378.6,676.6,376.8z"/>
	<path d="M683.6,378.2c4.8-1.1,5.5-1,9,0.9C688.9,381.6,686.1,381.3,683.6,378.2z"/>
	<path d="M722.5,401.8c-1.6,3.7,2.4,5.6,2.7,8.8C720.1,407.6,719.1,404.7,722.5,401.8z"/>
	<path d="M730.9,385.7c0-3.6,0-6.5,0-9.9C732.6,378.5,732.6,382,730.9,385.7z"/>
	<path d="M738.6,398.4c-1.4-1.2-1.6-3-2.6-4.8C738.2,395.3,738.2,395.3,738.6,398.4z"/>
	<path d="M719.6,397.8c-0.8-1.6-1.4-2.5-0.6-3.7C720,395.2,720,395.2,719.6,397.8z"/>
	<path d="M734.5,416c-1.1,1.4-2.4,1-3.8,0.9C731.7,415.3,732.9,415.3,734.5,416z"/>
	<path d="M782,479.2c-2.3,0.9-4.7,0.3-7.1,0.1C777.2,479.3,779.6,479.3,782,479.2L782,479.2z"/>
	<path d="M784.7,486.3c0.6-0.7,1.2-1.4,1.8-2.1C786.9,485.8,786,486.2,784.7,486.3z"/>
	<path d="M787.4,449.8c0.4,0,0.9,0,1.3,0c0,0,0,0,0,0C788.3,449.8,787.9,449.8,787.4,449.8C787.4,449.8,787.4,449.8,787.4,449.8z"/>
	<path d="M807.4,467.9c0.4,0,0.7,0,1.2,0.1C808.1,468.2,807.8,468.3,807.4,467.9z"/>
	<path d="M804.3,462.4c0.6-0.8,1.6-0.6,2.5-0.8l-0.1-0.1C806.1,462.3,805.1,462.2,804.3,462.4L804.3,462.4z"/>
	<path d="M804.2,462.3c-0.5,0.4-1,0.7-1.7,0.3C803.1,462.2,803.7,462.4,804.2,462.3L804.2,462.3z"/>
	<path d="M806.8,461.5c0.9-0.4,1.9-0.6,2.9-0.5l0,0C808.7,461.7,807.7,461.5,806.8,461.5L806.8,461.5z"/>
	<path d="M816.1,435.1c-0.8,1.3-1.8,2.2-3.8,2.2C813.5,435.9,814.8,435.3,816.1,435.1z"/>
	<path d="M829.8,656.1c-3.6,3.8-6,4.4-7.9,2.1c-1.5-1.7-1.2-4.3,0.6-5.7C824.9,650.6,826.6,651.5,829.8,656.1z"/>
	<path d="M807.4,664.4c1-0.8,1.7-1.5,2.6-2.1c2.1-1.4,3.9-0.8,4.2,1.6c0.2,1.5,1.2,1.9,2,2.6c-1,2.1-2.5-0.2-3.5,0.6
		c-1.1,0.8,1.3,2.1-0.8,3C810.3,668.5,809,666.5,807.4,664.4z"/>
	<path d="M818.2,664.9c-2.1,0-3.9-1.8-3.9-3.8c0-2.2,1.9-4,4.1-4c2.3,0,4,1.9,3.8,4.2C822.1,663.4,820.4,665,818.2,664.9z"/>
	<path d="M655.8,374.1c-2.4,1.3-4.9,2.1-7.6,0.8C650.7,374.4,653.2,373.7,655.8,374.1z"/>
	<path d="M658.1,368.8c-0.3-1.1-0.9-2.1,0-3.2C659.2,366.8,658.2,367.9,658.1,368.8z"/>
	<path d="M644.4,376.1c2,0.2,2.4,1.3,3.5,2.3C646,378.4,645.3,377.6,644.4,376.1z"/>
	<path d="M845.4,422.3c0,0-0.2,0.2-0.4,0.5C844.4,422,845.4,422.1,845.4,422.3z"/>
	<path d="M1031.1,399c-0.2-1.4,1.3-1.6,1.7-2.5C1032.8,398.2,1032.8,398.2,1031.1,399z"/>
	<path d="M513.2,158.3c-0.8,1.4-1.5,2.9-2.5,4.1c-3.3,3.9-5.7,8.3-8.5,12.5c-3.6,5.4-5.6,11.5-7.1,17.7c-1.3,5.2-2.3,10.4-3.3,15.6
		c-0.2,1-0.4,2-2,2.4c0.4-6.7,2-13,3.4-19.3c1.5-6.5,5.2-12,8.3-17.7c3.1-5.7,6.5-11.1,10.9-15.8
		C512.6,157.9,512.9,158.1,513.2,158.3z"/>
	<path d="M490.2,252.3c2.2,9.9,6.2,19,10.1,28.2C493.9,272.2,490.8,262.7,490.2,252.3z"/>
	<path d="M502.7,284.2c6.1,3.8,12.1,7.5,18.2,11.3c-0.2,0.3-0.3,0.5-0.5,0.8c-6.8-2.6-12.9-6.3-18.3-11.2
		C502.3,284.8,502.5,284.5,502.7,284.2z"/>
	<path d="M490.6,250c-1.1-7.9-3.4-15.2-1.2-22.8c0.1,6.9,1.5,13.6,2.2,20.4C491.7,248.3,491.6,249,490.6,250z"/>
	<path d="M530,148.7c-5.5,3.2-10.5,6.2-15.8,9.3C516.2,154.5,525.9,148.6,530,148.7z"/>
	<path d="M527.2,297.8c-1.5-0.1-2.9-0.1-4.3-1.3C524.8,296,526.1,296.9,527.2,297.8z"/>
	<path d="M489.6,212.7c0.9,1.1,1,2,0.5,3C488.8,215,488.9,214,489.6,212.7z"/>
	<path d="M536.4,147.4c1.2-0.6,2.2-0.6,3.2,0.6C538.2,148.6,537.3,147.7,536.4,147.4z"/>
	<path d="M362.7,285.5c1.9-1.8,2.2-4.3,3-6.6c0.5-1.2,0.5-2.7,2.1-3.3c1.9,0.3,1.7,1.7,1.6,3.1c-0.3,3.7-2.6,6.6-6.8,8.4
		c-0.5-0.2-0.3-0.7-0.4-1.1C362.3,285.8,362.5,285.6,362.7,285.5z"/>
	<path d="M361.8,211.2c-4.1,1.8-8.9,0.9-12.6,4.1C351.3,211,358.2,208.7,361.8,211.2z"/>
	<path d="M454.2,278.1c-4.8,3.1-10.8,2.8-13.5-0.7C445.4,276.8,449.8,279.7,454.2,278.1z"/>
	<path d="M460.2,255.7c3.8-1.7,6.7-5.8,12-5.6c-1.6,3-4.2,3.5-6.3,3.6C463.7,253.8,462.7,257,460.2,255.7z"/>
	<path d="M370.5,247c-0.2-0.9-1.2-1.3-1-2.2c0.1-0.1,0.3-0.3,0.3-0.3c3,1.7,6.3,1.8,10,1.8C376.5,249.4,373.5,247.1,370.5,247z"/>
	<path d="M346.6,215.7c-1.4,2.1-3.3,2.1-5.3,2.1C343.4,215.1,344.9,214.5,346.6,215.7z"/>
	<path d="M386.5,245.2c-1.5,1.2-2.9,3.1-5.5,1.9C382.5,245.2,382.6,245.2,386.5,245.2z"/>
	<path d="M348.6,269.3c-1.9,2.3-2.7,2.5-4.6,1l0-0.3l0.3,0.1c1-0.2,1.3-1.4,2.2-1.7C347.6,267.9,348,269,348.6,269.3L348.6,269.3z"
		/>
	<path d="M362.7,285.5c-0.2,0.2-0.3,0.4-0.5,0.5c-0.9,0-1.5,1-2.7,0.5c0.5-1.5,1.4-2.5,2.7-3.2C363.4,284,362.6,284.8,362.7,285.5z"
		/>
	<path d="M464.4,273.3c-1.4,1.6-3.3,2-4.9,3.2C460.4,274,462.3,273.5,464.4,273.3z"/>
	<path d="M438.9,256.3c1.4,3.2,1.4,3.2-0.8,5C437.8,259.5,439,258,438.9,256.3z"/>
	<path d="M370.5,277.1c0.9-1.3,1.8-2.6,3.1-4.6c-0.1,2.7-0.5,4.3-2.5,5.1C370.9,277.4,370.7,277.2,370.5,277.1z"/>
	<path d="M435,270c-1.4,1.2-2.6,2-4.4,0.8C431.9,269,433.1,268.9,435,270z"/>
	<path d="M389.8,220.9c2.1,0,2.1,0,2.5,2.2C390.5,222.4,390.5,222.4,389.8,220.9z"/>
	<path d="M344.3,270c-0.1,0.1-0.2,0.1-0.3,0.2c-0.8,0.2-1.6,0.6-2.4-0.1C343.1,268.3,343.1,268.3,344.3,270z"/>
	<path d="M427.9,272.9c-1.4,1.6-2.3,1.3-3.4,0.1C425.8,272.3,426.7,272.4,427.9,272.9z"/>
	<path d="M457.6,255.9c-0.3,1.4-1.2,1.4-2.5,1.4C455.8,256.1,456.4,255.5,457.6,255.9z"/>
	<path d="M473.1,267.7c-0.6,1.2-1.5,1.2-2.7,1.6C470.9,267.7,471.8,267.8,473.1,267.7z"/>
	<path d="M465.7,273.1c0.1-1.8,0.7-2.1,1.5-2.4C467.7,272,466.6,272.1,465.7,273.1z"/>
	<path d="M396.7,241.8c-0.7,0.8-1.2,0.5-1.8,0.2C395.5,241.1,396,241.1,396.7,241.8z"/>
	<path d="M402.2,240.4c-0.5,0.9-1,0.8-1.7,0.7C400.8,239.9,401.4,240.1,402.2,240.4z"/>
	<path d="M638.5,228.2c0.5,2.1-0.7,2.5-1.6,3.1C636.5,229.9,637.7,229.4,638.5,228.2z"/>
	<path d="M173.1,189.3c-0.3,1.8-0.6,3.5-0.9,5.3c-0.7,4.2-1.1,8.4-0.6,12.7c0.5,3.7-0.6,7.4-0.7,11c0,7.1,0.4,14,4.5,20.3
		c1.8,2.7,2.8,5.8,4.4,9.2c-1.3-0.1-1.6-0.9-1.9-1.5c-3.6-6.9-7.1-13.8-8.2-21.6c-0.6-4.3-0.4-8.6,0.5-12.8c0.4-1.9,0-3.8-0.4-5.6
		c-1.1-5.6,0.3-10.9,1.6-16.2C171.6,189.6,171.8,189.1,173.1,189.3z"/>
	<path d="M189.4,165c5.3-4.3,10.1-9.6,17.4-11C200.3,156.6,195.4,161.6,189.4,165z"/>
	<path d="M175.4,187.9c1-6.2,3.5-11.7,7.6-16.4C180.6,177.1,177.2,182.2,175.4,187.9z"/>
	<path d="M183.9,253.5c2,2.4,4,4.8,6,7.3c-3.4-1.1-4.9-4-6.7-6.6C183.4,253.9,183.6,253.7,183.9,253.5z"/>
	<path d="M201,268.2c-1.8-0.2-3.6-0.3-5.8-1.9C197.8,266.7,199.5,267.1,201,268.2z"/>
	<path d="M181.1,250.2c0.2,0.2,0.3,0.4,0.5,0.7C181,251.3,181.1,250.6,181.1,250.2z"/>
	<path d="M257.1,239.2c-4.4-2.6-7.8-6.3-11.1-10.2C251.2,230.9,253.1,236.1,257.1,239.2z"/>
	<path d="M242.9,227.5c0,1.6,0.4,3.1-1,4.6C240.8,229.9,242.1,228.7,242.9,227.5z"/>
	<path d="M245.2,225.5c1.2-0.1,2.3-1.4,4-0.5C247.8,225.9,246.8,227.3,245.2,225.5L245.2,225.5z"/>
	<path d="M245.4,231.2c1-0.1,1.5,0.4,1.5,1.3C245.7,232.8,245.8,231.6,245.4,231.2z"/>
	<path d="M250.9,226.9c-0.2,0.6-0.6,0.8-1.3,0.6C249.7,226.5,250.2,226.6,250.9,226.9z"/>
	<path d="M392.6,654.1c-4,3.7-6.1,4.2-8,2.1c-1.5-1.7-1.3-4.2,0.5-5.7C387.4,648.7,389.1,649.5,392.6,654.1z"/>
	<path d="M378.9,664.7c-1.3,1.4-2.5-0.5-3.9,0.6c-0.7,0.6,1.8,1.9-0.4,2.6c-1.6-1.5-2.9-3.5-4.3-5.5c0.5-1,1.4-1.5,2.2-2.1
		c2.3-1.6,3.7-1.1,4.5,1.5C377.4,663.3,377.7,663.8,378.9,664.7z"/>
	<path d="M384.9,659c0,2.1-1.6,3.8-3.8,3.9c-2.3,0.1-4.2-1.7-4.2-3.9c0-2.2,1.9-4,4.2-3.9C383.2,655.1,384.9,656.8,384.9,659z"/>
	<path fill="#FFFFFF" d="M740.3,495.4c0.8,0.1,1.1,0.4,1,0.9c-0.1,0.4-0.5,0.5-0.8,0.4C740.1,496.5,740.2,496,740.3,495.4z"/>
	<path fill="#FFFFFF" d="M826.5,654.3c-0.8,1.6-0.8,1.7-0.2,3.2c-1.4,1-2.5,0.4-3.3-0.9c-0.7-1-0.5-2,0.3-2.7
		C824.4,653,825.5,653.1,826.5,654.3z"/>
	<path fill="#FFFFFF" d="M812.6,664.2c-0.2,0.9-0.8,1.4-1.6,1.6c-0.8-0.3-1.3-0.9-0.7-1.7C810.9,663.4,811.7,663,812.6,664.2z"/>
	<path fill="#FFFFFF" d="M818.3,663.3c-1.4-0.2-2.2-1.1-2.2-2.4c0-1.3,0.7-2.1,2.1-2c1.5,0.1,2.3,1.1,2.3,2.4
		C820.6,662.5,819.8,663.3,818.3,663.3z"/>
	<path fill="#FFFFFF" d="M389.7,655.5c-2.5,0.8-3.5,0.1-4.2-1.2c-0.5-0.9-0.3-1.8,0.4-2.4c1.1-0.9,2.2-0.8,3.2,0.3
		C389.6,653.3,386.1,654.2,389.7,655.5z"/>
	<path fill="#FFFFFF" d="M375.1,661.9c0.2,1.3-0.6,1.7-1.7,1.9C372.8,661.8,372.8,661.8,375.1,661.9z"/>
	<path fill="#FFFFFF" d="M383.3,659.1c-0.2,1.5-0.9,2.3-2.3,2.2c-1.5-0.1-2.2-1.1-2.2-2.5c0-1.3,0.8-2.1,2.2-2
		C382.5,656.9,382.9,658,383.3,659.1z"/>
</g>
</svg>
