<?xml version="1.0" encoding="utf-8"?>
<!-- Generator: Adobe Illustrator 19.1.0, SVG Export Plug-In . SVG Version: 6.00 Build 0)  -->
<svg version="1.2" baseProfile="tiny" id="Layer_2" xmlns="http://www.w3.org/2000/svg" xmlns:xlink="http://www.w3.org/1999/xlink"
	 x="0px" y="0px" width="900px" height="600px" viewBox="144 97 900 600" xml:space="preserve">
<g>
	<path d="M512.3,561.2c5.7-0.4,11.1,1.5,16.7,1.5c8.4,0,16.7,1.2,25.1,1.3c6.4,0.1,12.8,0.8,19.2,1.2c0.8,0.1,1.6,0.1,2.5,1.2
		c-1.3,3.7,0.5,7.8-0.4,11.4c-19,4.7-37.7,9-57.2,6.1c-1,22.2-0.9,43.9-2.3,65.8c17.7,3.8,35.7,4.5,53.3,7.2c0.6,6.9,0,13.4,0.3,20
		c-1.8,0-3.1,0-4.3,0c0.1-1.5,1.7-0.9,2.3-1.9c0-5.2,1.2-10.5,0.3-15.9c-1.9,0-3.7,0-5.5,0c0-1.1,1.2-1,1.5-1.8
		c-17.2-0.7-33.9-4.4-51-5.2c1.7,0.3,3.5,0.7,5.7,1.1c-5.4,0.5-8,0-9.7-2c1.6-1.1,3.5-0.7,5.6-1.4c1.7-21.7,1.1-43.7,2.5-65.6
		c-5.6-0.3-10.5-1.2-15.5-1.1c-2.1,21.8-2.9,43.4-3.3,65.4c-4.6,0.6-9-0.7-13.8-0.6c4.2-1.8,8.3,0.1,12.5-0.9
		c1-21.1,0.6-42.4,2.9-64.1c-6.5,0.4-12.2-0.2-18.6-1.4c-1,24.9-2.9,49.3-2.7,74.2c19.1,2.8,38.2,5.6,57,8.3c0,7.4,0,14.3,0,21.4
		c-3.6,1.3-6.7,2.1-10.3,1.7c-9.5-1.2-18.9-1.9-28.4-2.9c-9.4-0.9-18.7-2.2-28-3.7c-13.7-2.2-27.5-4.1-41.2-6.2
		c-7.2-1.1-14.5-2.3-21.7-3.6c-1.5-0.3-3.2-0.4-4.4-1.7c-0.6-2.3,0.4-4.8-0.6-7.1c-0.4,0-0.7,0-0.8,0.1c-2.9,3.9-6.6,5.2-11.5,4.1
		c-1.9-0.4-4.1-0.1-6.1,0c-9.3,0.7-18.2-1.7-27.2-3.5c-2.4-0.5-4.8-0.4-7.2-0.8c-5.8-1-11-3.7-16.4-6.1c-0.4-0.2-0.5-0.7-1-1.3
		c1.9-0.3,2.3-1.7,2.8-3.1c2.4-6.9,4-13.9,5.6-21c0.6-3,2.4-6.6,5.8-8.3c0.4-9,0.4-18.1,1-27.2c0.4-7-1.2-13.7-2-20.4
		c-1.1-8.3,0.6-16,3.6-23.5c1.5-3.9,3.4-7.8,5.3-11.6c1.2-2.6,2.9-4.9,4.9-7c2.5-2.7,4-6.1,3.4-10.1c-0.6-4.2,0.1-8.5,0.4-12.6
		c-1.4-1.4-3.2-1.8-4.2-3.3c-0.9-8.2,1.5-16,2.5-24.7c1.6,1.5,1.1,2.6,1.2,3.6c0.7,4.9-1.6,9.6-1.5,14.4c0,1.9,0,3.9,0,5.7
		c13.1,8.3,39.8,10.9,49.4,4.9c1.6-16,4.8-31.7,10.5-46.8c-3.8,2.1-6.5,5.2-9.5,8c-0.1-0.1-0.2-0.2-0.3-0.2c2-3.5,4.9-6.2,8.1-8.3
		c3.6-2.4,5.1-6,7-9.4c0.3-0.6,0.5-1.3,1.1-1.7c1,0.5,0,1.5,0.6,2.1c1.5,0.5,2.9-0.6,4.6-0.2c-2,2.2-6.4,0.3-7,4.6
		c2.6,1.1,5.4,0.1,8,1.3c-3,0.9-6,0.1-9.5,0.3c1.1,1.7,2.4,1.5,3.6,1.6c8.7,0.9,17.4,1.3,26,2.9c2.9,0.5,5.8,1.2,8.6,2.5
		c-0.1-1.4-0.9-2.1-1.5-2.9c-0.9-1.3-1.4-2.7-1.2-4.2c1.3-8.1,2.8-16.1,8.7-22.5c0.8-0.9,1.2-2.2,1.8-3.3
		c3.1-6.1,6.1-12.4,10.8-17.9c-2.6-1.9-5.5-2.1-8.2-2.7c-5.1-1.1-10.3-1-15.4-0.6c-2.2,0.2-4.1-0.1-6.1-1.8
		c-3.5,7.3-8.8,12.9-15,17.7c3.5-5.5,8.3-9.9,11.8-15.5c-1.1-0.8-2.3-0.2-3.3-0.4c-0.3,0-0.6,0-0.9,0.1c-1.6,0.7-2.5,2.1-2.9,3.6
		c-0.6,2.3-1.7,4.2-3,6.1c-0.1,0.1-0.3,0.2-0.4,0.2c-1.3,0.6-1.2,2.1-2.1,3c0.9-4.6,3.1-8.7,4.6-13.3c-1.5-1.2-1.9-3.1-2.8-4.7
		c-1.8-0.3-1.5,1.1-1.8,2l0.1-0.1c-1.9,3.8-5.2,5.7-8.8,7.6c2.2-3.7,8.1-5,6.5-10.9c-2.4,2.1-5.2,2.8-8.3,2.5
		c-3.4-0.3-6.8-1.2-10.1-0.7c-1.7,0.2-2.3-1-3.5-1.1c-4.8-0.5-9.5-1.8-14.1-3.2c-1.8-0.6-2.4,1.7-4,1c0,1.1,1.4,0.9,1.3,2
		c-1.4-0.5-2.8-0.9-4.2-1.3c-1-1.1,0-2,0.3-3c-1.2-0.8-2.4-1.3-3.9-1.3c-0.6,0.9-1.2,1.8-1.9,2.8c-1.5-1.3,0.3-2.6-0.4-3.9
		c-1.3,0.7-1.1,2.3-2.2,3c-1.4-0.4-0.2-1.7-0.9-2.3c-0.9,0.5-0.5,2.1-2.2,2.3c-0.7-0.1-0.7-1.7-2.3-1.5c-1.8,1.1-3.7,2.6-5.1,4.8
		c-3.6,5.9-6.4,12.2-9.2,18.5c-1.9,4.3-1.1,9.1-1.3,13.6c-0.2,6.2,1.9,12.2,1.1,18.2c1.4,1.8,3.5,1.9,4.7,3.8
		c-1.4,2-1.2,4.4-1.9,6.7c1.1,1,2.1,1.6,3.5,0.6c0.2,2.5,2.9,2,4.1,3.7c-1.5,0.4-2.5-1-3.9-0.7c-1.4,2.9,2,5.3,0.6,8.6
		c-2.4-3-2.2-6.6-3-10.5c-2.1,4.3-3.3,7.8,0.1,11.4c-1.7,0.1-1.5-1.5-2.5-1.6c-0.6,0.5,0.1,1.6-0.9,1.9c-2.1,0.1-2.1-4.3,0-9.7
		c-0.4-0.9-0.9-1.9-1.5-3.2c2.5-1.6,1.7-4.4,2.7-6.7c-3.7-1.8-4.2-4.9-4-8.5c0.2-3.9-1.6-7.6-1.4-11.6c0.2-3.7-0.1-7.4,0.2-11
		c0.2-2.9,1-5.8,2.4-8.5c2.7-5.3,5.6-10.5,8.7-15.6c2.1-3.4,5.9-5.6,6.7-9.8c5.1-2,5-7.2,6.5-11.3c1.5-4.3,0.9-8.8,0.7-13.3
		c-0.4-6.4-0.5-12.9-0.2-19.3c0.2-4.7-0.8-9.4,0.4-14.2c-1.8-1.4-2.2-3.6-3.3-5.8c-7.3,6-16.1,9-24.4,13.1c-2.3-1.1-4.7-2.1-7.4-2.1
		c-7.2-0.1-8.8-4-8.6-11.5c0.1-1.7,0.3-3.4-0.1-5.1c-1.1-5.4-0.3-10.7,2.2-15.4c1.6-2.9,3.7-5.7,5.6-8.6c3.3-4.9,5.9-10.1,8.7-15.2
		c1.2-2.2,0.6-4.1-0.6-6c-13.2,16.9-30.4,18.5-49.5,13c-18.4-9.8-24.8-25.6-22.8-45.9c-5.4-1.6-10.9-3.4-16.5-5
		c-3.3-0.9-5.4-3.7-5.2-7.1c0.3-3.7,3-6.7,6.4-6.9c1.8-0.1,3.6,0.2,5.4,0.8c4.6,1.5,9.2,3,13.7,4.4c1.3-0.7,1.7-2,2.2-3.1
		c2-4.5,5.3-8.2,8.7-11.4c1.9-1.8,4.6-3.6,7.2-4.8c5.3-2.5,10.1-6.4,16.3-6.9c4-0.3,8,0,11.9,1.2s7.5,2.8,11.2,4.4
		c3.1,1.3,5.8,3.1,8,5.7c1.9,2.2,3.6,4.7,6.4,6.1c0.9,0.5,1.4,1.7,2,2.7c3.3,5.9,5.1,12.3,5.1,19.1c0,3.2-0.2,6.4,0.3,9.6
		c3.5,3.2,7.7,5.2,12.3,6.6c11.3,3.4,22.5,7.1,33.6,10.7c5.5-3.1,9.2-8.1,10.7-14c0.1-1.2-1.1-1.3-1.7-2.1c0.7-3.9-0.2-7.7-0.7-11.5
		c0-0.1-0.1-0.2-0.1-0.3c-0.4-8.1-0.7-16.2,2-24.1c0.7-2,0.4-4.5,2.9-5.2c0.2-1.2-1.1-1.3-1.1-2.6c2.5-0.8,4.5-3.6,7.9-2.6
		c0.3,0.1,0.8-0.3,1.2-0.6c1.6-1.4,3.5-1.7,5.5-1.6c1.8,0.1,3.4-0.4,4.6-1.5c1.3,0,0.7,1.1,1.3,1.7c5.1-0.9,10.3,2.8,15.1,0
		c1.3,0.8,0.6,1.4,0.6,2.1c3,1.1,7-0.3,8.7,3.9c1-0.5,1.3-1.7,2.5-2c0.8,0.7,1.7,1.5,2.5,2.2c0.1,0.8-1,0.8-0.7,1.7
		c1.5-0.2,3.3-1.4,4.4,0.8c-0.7,6.4-0.7,6.4-8.5,8.4c-0.7,2.4,0.1,4.7,0.7,7c0.7,2.5,0.6,4.7-1.5,6.6c0.8,2.4,1.5,4.9,2.5,7.2
		c1.2,2.6,0.9,4.4-1.4,5.5c-1.6,3.1-1.1,6.5-2.8,9.3c-0.5,0.8-0.2,1.5-0.1,2.3c0.4,3.9-2.3,6.6-6.2,6.3c-0.8-0.1-1.6-0.1-2.4-0.2
		c-5.7-0.9-7.7,1.1-9.8,7.1c-0.9,2.4-0.9,4.9-0.3,7.8c3.8,1.2,7.7,2.5,12,3.8c2.1-5.4,6.2-9,9.8-13.2c7.3-8.4,16.8-10.7,27.3-10.2
		c0.9,0,1.9,0.2,2.7,0.6c4.7,2.8,10.1,4.6,14.1,8.4c7.2,6.7,12.2,14.5,12.4,24.8c0.1,3.4,0.5,6.9,0,10.3c3.6,2.5,4.4,4.9,2.8,7.7
		c-1.4,2.3-3.1,2.6-6.8,1c-2.4,4.4-5.6,8.3-9,11.9c-3.7,3.9-7.9,7-13.6,7.2c-0.8,0-1.6,0.2-2.4,0.4c-9.2,3-17.6,0.8-25.5-4.2
		c-2.6-1.6-4.2-4.2-6.1-6.7c-3.8,3-5.9,7.2-9.1,10.4c-3.7,3.8-5,8.1-4.9,13.2c0.4,15.1-7.2,27.5-13.8,40.2
		c-1.8,3.5-2.3,7.5-5.1,10.6c1.8,0.4,2.1,2,2.7,3.3c0.9,0.6,2.1-0.1,3.1,0.8c0.8,0.9,0.6,2.3,1.3,3.6c1.8,0.6,4.4-1.1,5.6,1.3
		c1.5,0.1,2.5-0.5,3.5-1c1.1-0.5,2.3-0.8,3.3-0.1c2.1,1.4,4.4,1.3,6.7,1c8.7-1.1,16.7,1.5,24.7,4.4c6.9,2.5,13.4,5.9,20.4,8.3
		c4.4,1.5,8.3,4.3,12.1,7.1c1.9,1.4,3.2,3.6,2.4,6c-1.8,5.1-1.4,10.7-3.2,15.8c-4.3,12.3-7.7,25-16.3,35.4
		c-4.6,5.6-8.6,11.6-12.9,17.5c-3,4.2-5.7,8.7-7.4,13.6c-1,2.9-0.5,6.3,0.1,9.5c0.2,1,0.5,2,0.8,3.2c5.6,2,10.1,6.1,15.1,9.2
		c3.8,2.3,7.9,3.6,12.3,4.1c3.1,0.3,6.1,1.1,8.9,2.4c1.3,0.6,2.3,1.4,2.9,2.8c2.1,4.8,1.7,5.9-2.8,8.6
		C514.3,559.8,512.8,559.9,512.3,561.2c-2.7,3.2-6.3,3.7-10.3,3.4c-11.2-0.9-22.4-2.6-33.6-2.2c-8.1,0.3-16.2,0.9-24-0.5
		c-7.4-1.3-14.6-0.4-21.9-0.4c-4.2,0-8.3-1-12.6,0c-3.7,0.8-5.3,2.4-5.2,6.4c0,2.8,1.4,3.9,5.2,4c13.6,0.4,27,2.3,40.4,3.8
		c7.5,0.8,15.1,1.4,22.7,1.7c3.8,0.2,7.6,0.5,11.2,1.5c1.8,0.5,3.6,0.7,5.5,0.6c11.1-0.6,22,1.1,33,1.6c15.5,0.7,30.6-0.8,45.5-5.2
		c1.9-0.6,3.3-1.7,3.3-3.8c0-2.3-1.5-3.1-3.5-3.6c-4.9-1-9.9-1.5-14.9-1.5c-12.7-0.1-25.5-0.1-38.1-2.7
		C513.5,563.9,511.3,563.9,512.3,561.2z"/>
	<path d="M762.2,644.9c-2.9-0.8-5.8-1-8.9-0.5c-0.7,2.5-0.8,5-0.7,7.7c5.6,1.3,11.1,1.9,16.9,1.7c1.1-3.3,1.2-6.6,1.1-9.8
		c-0.4-12.4,1.4-24.8,1.3-37.2c0-3.5-0.1-7-0.9-10.5c-1-4.2,0.1-8.7,0.4-13c0.1-1.1,0.3-2.3,0.5-3.8c-20-1.7-39.7-4.7-59.9-5.2
		c-0.3-5.5,0.5-10.2,1.6-14.9c0.3-1.3,1.7-1.4,2.9-1.4c3.9,0,7.8-0.3,11.7-0.1c6.8,0.4,13.5-0.8,20.2-1.4c2.2-2.9,3.2-6.2,4.4-9.5
		c2.3-6.1,1.7-13,6.1-18.9c0.8-0.5,1.1,1.4,2.3,1.3c0.3-1.7,1.2-3.1,3.1-3.3c3-9.4,6-18.5,7.1-28.2c0.4-3.4-1-6.5-1.3-9.8
		c-0.3-2.8,0.3-5.4,0.9-8.1c1.8-8.4,6.7-15.5,9.6-23.5c0.7-1.9,1.1-4,1.7-5.9c0.9-3,1.8-5.9,3.9-8.5c-1.7,0.9-3.2,2.5-6.1,2.1
		c6-4.5,7.6-10.8,9.3-17.2c1.2,1,0.1,2,0.8,2.8c4.7-5.2,5.7-11.8,7.5-18.6c-8.3-1.3-15.8-5.4-24.3-4.1c-0.9,0.3-0.4,1.5-1.3,1.9
		c-1.2-0.2-0.3-1.5-1.1-2c-1.1-0.3-2.3-0.5-3.7,0.1c0.8,2.8-0.1,5.5-0.4,9c-3-3.1,0.3-7.3-3-9.5c-0.5-0.4-1.2-0.6-2.1,0.1
		c0.4,1.6,0.8,3.2,0.8,4.9c0,7.5-3.3,12.9-10.8,14.8c-9.3,2.3-16.7,7.9-24.7,12.5c-8.8,5-12.1,14-17.3,21.6c0.2,0.2,0.4,0.5,0.7,0.7
		c2.4-1.5,4.8-3,7.3-4.6c1-0.7,2-1.7,3.4-1.4l-0.1-0.1c-2,2.7-4.5,4.9-7.2,6.9c-1.4,1-2.9,1.6-4.6,0.7c-3.2,3.5-5.8,7.2-8.6,11.3
		c1.9-0.4,2.5-2,4.6-2.4c-2.7,2.7-4.6,5.5-8,6.6c-0.4,0.1-0.8,0.4-1.1,0.8c-3,4.4-7.2,7.7-10.4,12.3c3.1,4.2,7.6,6.5,11.9,9
		c1,0.6,2-0.1,2.5-1.2c6.7-14,19.8-21,31.7-29.3c4.7-3.3,9.2-6.8,13.7-10.4c3.8-3.1,7.5-6.4,11.8-8.9c1.6-0.9,3.3-1.5,5.1-1.8
		c5.2-1.1,10.1-3,14.8-5.6c0.9-0.5,1.7-1.4,3-0.3c-0.7,1.7-2.2,2.8-3.8,3.4c-5.1,1.8-9.9,5-15.6,4.9c-1.4,0-2.7,0.7-3.7,1.7
		c-12.7,12.2-27.7,21.2-41.8,31.4c-5.3,3.9-9.7,8.5-12.7,14.2c-0.6,1.1-1.2,2.2-2.5,2.9c0.9,1,1.8,1.9,2.6,2.7
		c-2.2,4.9-1.7,9.9-0.7,14.7s1.7,9.7,2.4,14.6c0.6,4.4,2.6,8,4.5,11.8c2,4,0,7.9-4.2,9.1c-4.1,1.2-7.1-0.2-9.9-2.9
		c-2-1.9-4.2-3.6-6.5-5c-7.3-4.5-12.3-11.4-18-17.4c-1.3-1.3-2.3-2.8-3.8-4c-5.6-4.4-8.4-10.8-11.8-16.8c-0.2-0.3,0-0.9,0.1-1.6
		c1.9,0.6,3.2-0.5,4.6-1.5c5.9-3.9,11.2-8.5,16.6-13.1c2.3-2,5.7-3.9,9.4-2.9c7.5-8.6,14.2-17.8,21.4-26.5c0.9-1.1,1.3-2.4,1.9-3.7
		c3.6-7.2,7-14.5,13.5-19.7c6.6-5.2,13.9-9.4,21.5-12.9c1.8-0.8,3.8-1.3,5.9-1.6c6.6-0.9,10.8-6.7,9.8-13.2c-0.3-1.8-0.6-3.6,0-5.4
		c-1.5-1.8-4.2-0.8-5.6-2.5c0.1-1.3,1.3-0.7,2.2-1.6c-0.6-11.6,2.5-23.2,3.4-35.7c-0.2-0.9-2.2-1.6-2.1-3.8c0.1-0.2,0.3-1,0.7-1.5
		c1.4-1.8,1.1-3.4-0.2-5c-2-2.4-2.5-5.1-1.6-8.1c0.5-1.8,0.5-3.6,0.2-5.4c-0.9-6.2-0.8-12.4-0.6-18.6c0.1-2.7,0.8-5.2,2.2-7.5
		c2.1-3.7,4-7.5,6.1-11.2c1.4-2.4,3.1-4.6,5.5-6.1c1-0.7,1.6-1.5,2-2.6s0.8-2.3,2.1-2.5c2.2-0.4,2.9-2.1,3.7-3.7
		c2.7-5.9,3.5-12,3.1-18.5c-0.6-7.7-1-15.3-0.3-23.1c0.4-3.9-1-7.8,0.3-11.7c-1.4-1.7-2.4-3.6-3.1-6.2c-7.6,6-16.3,9.2-24.8,13.2
		c-2.1-1.2-4.5-1.9-7.1-2.1c-6.8-0.5-10-4.6-8.9-11.4c0.3-2.1,0.1-4-0.1-6.1c-0.6-6.1,0.4-11.7,4.2-17.1c3.7-5.2,7.2-10.7,9.9-16.5
		c1.2-2.5,2.9-4.7,3.5-7.5c-0.5-1.1-1-2.2-1.7-3.7c-5.3,8.8-13.3,13.3-22.7,15.2c-9.1,1.9-18.5,1.9-27-2.1c-14.9-7-25.6-24-22-45.3
		c-1.6-1.1-3.6-1.3-5.4-1.9c-4-1.3-8.1-2.4-12.2-3.6c-3-0.9-4.7-4-4.3-7.7c0.4-3.4,3.1-6,6.4-6.2c1.8-0.1,3.6,0.2,5.4,0.8
		c4.6,1.5,9.2,3,13.7,4.4c1.3-0.8,1.7-2.1,2.2-3.2c1.9-4.6,5.4-8.1,8.7-11.4c1.9-1.8,4.6-3.5,7.2-4.8c5.3-2.5,10.1-6.4,16.3-6.8
		c4-0.3,8,0.1,11.9,1.3c3.9,1.2,7.5,2.8,11.2,4.4c3.1,1.3,5.7,3.2,8,5.8c1.9,2.2,3.6,4.7,6.4,6.1c0.9,0.4,1.4,1.7,2,2.7
		c3.3,6.1,5.2,12.5,5.1,19.4c-0.1,3.1-0.2,6.2,0.3,9.2c3.7,3.3,8,5.2,12.7,6.7c11.2,3.4,22.3,7.1,33.5,10.7c5.5-3.4,9-8.1,10.6-13.9
		c0-1.6-1.5-1.3-1.8-2.5c0.9-4.4-0.9-8.8-0.9-13.3c0-7.5-0.8-15.2,2.2-22.4c0.8-1.9,0.3-4.5,2.9-5.3c0.3-1.2-1.1-1.2-1.1-2.6
		c2.4-0.9,4.4-3.4,7.7-2.7c0.7,0.1,1-0.4,1.5-0.7c1.4-1.2,3.1-1.5,4.9-1.5c2,0,3.9-0.2,5.1-1.6c1.4,0.1,0.7,1.2,1.2,1.8
		c5.1-1,10.3,2.9,15.1,0c1.7,0.8,0.3,1.6,0.7,2.3c3.1,0.7,7-0.3,8.6,3.7c1.1-0.3,1.2-1.7,2.5-1.9c0.8,0.7,1.6,1.4,2.4,2.1
		c0.4,0.7-0.6,0.9-0.6,1.5c0.4,0.5,0.8,0.1,1.2,0c2.7-0.3,3.4,0.3,3,2.9c-0.8,5-0.8,5-8.3,6.4c-1.9,4.5,3.8,9.5-0.8,13.9
		c0.8,2.4,1.5,4.7,2.4,6.9c1.3,3.4,1.2,3.7-1.7,6c0,2.6-1.2,5-1.6,7.5c-0.3,1.6-1,3-0.9,4.8c0.2,2.9-2.6,5.4-5.6,5.3
		c-1.3,0-2.5-0.3-3.8-0.3c-5-0.3-7.2,1.3-8.8,6.2c-0.3,0.8-0.5,1.5-0.7,2.3c-1.2,5.4-0.8,6.2,4.5,7.9c2.4,0.8,4.8,1.5,7,2.3
		c1-0.6,1.3-1.4,1.7-2.3c2.7-5.5,7.4-9.3,11.6-13.5c6.9-6.9,15.6-7.6,24.6-7.4c0.9,0,1.9,0.2,2.6,0.7c4.3,2.6,9.2,4.2,13,7.6
		c7.2,6.3,12.5,13.7,13,23.7c0.2,4,1.3,8,0,12.2c1.7,0.8,3.4,1.8,3.9,3.9c0.3,1.2-0.1,2.3-0.7,3.3c-1.5,2.6-3.2,3-6.9,1.3
		c-2.4,4.1-5.3,7.9-8.6,11.4c-3.9,4.3-8.3,7.4-14.4,7.8c-3.8,0.3-7.5,1.7-11.5,1.4c-9.3-0.6-16.8-4-22.2-12.1c-3.6,3-5.8,7.1-9,10.3
		c-3.7,3.7-5.1,8.1-5,13.2c0,1.5-0.2,3-0.3,4.5c-0.3,8.3-3,15.9-7,23.2c-2.7,4.8-4.9,9.9-7.6,14.7c-0.9,1.6-0.6,3.4-1,5
		c-1,3.8-1.8,7.6-2.7,11.3c0.2,1.1,1.8,0.7,1.9,1.8c0.5,1.9-1.4,3.1-1.2,5.2c3.1,2.4,1.7,5.5,0.5,8.7c1.8,1.8,3.5,3.6,4.4,6.1
		c1.1,3.2,1.1,6.1-1.4,8.6c-2,2-2.3,4.2-1.4,6.9c0.9,2.7,1.3,5.6,2.5,8.2c2,4.5,2.3,9,1.6,13.8c-0.8,5.6-1.3,11.2-2.5,16.7
		c-1.3,5.9-0.9,11.9-1.7,17.7c-0.9,6.1-1.9,12.2-4.5,18c-0.2,0.5-0.5,1-1.4,1.2c-2.2-1.8-5-2.8-7.6-4l0.1,0.1
		c-5.8-3.9-12.4-5.2-19.5-5.7c-0.5,2.3-1.2,4.6-1.7,6.9c-0.8,4-1.9,7.8-4.6,11c-2.2,2.6-4.5,5.1-3.7,9.2c0.2,0.1,0.7,0.6,1.2,1.1
		c-0.2,0.3-0.4,0.7-0.6,0.8c-0.6,0.2-1.3-0.2-1.6,0.8c-1,3.5-3.4,6.5-4.2,10.1c-1.1,5.2-3.3,9.9-5.9,14.5c-3.5,6-5.8,12.5-6.8,19.4
		c-0.2,1.7-0.2,3.5,0.5,5.1c2.4,5.1,0.8,10-0.4,15.1c-1.6,6.5-3.6,12.8-6.1,18.9c-0.2,0.4-0.3,0.9,0.2,1.5c3.3-0.6,6.9,0,10.1-1.1
		c0.8-1.2,0-2.5,0.8-3.7c1.2,1.6,1.8,3.7,4.1,4.3c2.4-1.4,3.9-4,6.1-5.8c1.2,0.9,2.3,1.7,1.7,3.2c-1,2.4,0.3,4.5,0.5,6.8
		c0.1,1,0.6,1.8,1.6,2.1c5.4,2.1,9.7,6.1,14.6,9c3.6,2.1,7.3,3.2,11.4,3.7c2.9,0.3,5.7,0.9,8.3,2c1.6,0.7,3.1,1.3,3.9,3.1
		c2.1,4.9,1.8,5.9-2.7,8.6c-1.2,0.7-2.4,1.4-3.5,2.1c-1.9,3.6-5.4,4-8.6,3.6c-9.3-1.2-18.8-0.9-28.1-2.4c-5.7-0.9-11.5,0.8-17.2,0.5
		c-6.4-0.4-12.9,0-19.1-1.9c-2.6-0.8-5.3-0.2-7.9,0.1c-4.8,0.6-9.6,0.7-14.4,0c-2.8-0.4-5.6,0.4-8.4,0.9c-2.3,0.5-3.6,3.2-3.3,6.1
		c0.2,2.8,2,3.7,4.5,3.8c20.5,0.7,40.7,3.9,61,5.6c18.1,1.5,36.1,2.4,54.2,3.7c14.8,1,29.3-1.2,43.5-5.1c2.1-0.6,3.5-1.7,3.4-4.1
		c-0.1-2.2-1.6-3-3.6-3.5c-5.2-1.2-10.3-1.6-15.6-1.4c-10.3,0.3-20.6-0.9-30.9-1.4c-2.5-0.1-5-1-7.4-1.5c-1.5-0.3-2.5-1.2-2-3
		c10.4,1.1,20.8,1.9,31.2,2.4c6.9,0.4,13.7,0.6,20.6,1.2c3.9,0.3,8,0,12.1,1.1c-0.6,4.3,0,8.4-0.2,12.3c-9.9,1.6-19.2,4.2-28.6,5.8
		c-9.5,1.6-18.9,0.1-28.6,0.5c-1.2,21.7-0.9,43.4-2.3,65.3c17.7,3.9,35.6,4.5,53.5,7.2c0,6.5,0,12.6,0,19.2
		c-0.8,1.7-2.7,0.6-4.3,0.9c0.1-1.6,1.8-1,2.3-2.3c0-5,0.8-10.2,0.1-15.6c-1.8,0-3.6,0-5.3,0c-0.4-1.4,1.5-0.9,1.5-1.8
		c-17.1-0.6-33.8-4.3-50.8-5.6c1.5,1.1,3.5,0.8,5.1,1.6c-3.2-0.1-6.6,0.7-9.8-1.9c2-1.4,4.1-0.9,6.1-1.7c1.6-21.6,1-43.4,2.4-65.4
		c-5.4-0.8-10.6-1.2-15.5-1.4c-2,21.9-3.1,43.5-3.2,64.9c-0.5,0.3-0.8,0.7-1.1,0.7c-4.6-0.3-9.3,0-13.9-1.4l-0.1,0.1
		c4.4,0,8.8,0,13.4,0c1.6-21.3,0.3-42.5,3.3-64.2c-6.6,0.4-12.5-0.2-18.9-1.4c-0.7,24.9-3.2,49.3-2.7,74.2
		c19.2,2.8,38.3,5.6,57.5,8.4c-1.3,3.2-0.8,6-0.6,9c9.5,1.2,19,1.5,28.2,3.4c-0.1,0.4-0.1,0.7-0.2,1.1c-9.2-1-18.4-2-28-3.1
		c-0.9,3.5,0.1,7.3-0.7,11.1c-3.2,1.3-6.5,1.9-10.2,1.4c-9.3-1.2-18.7-1.9-28.1-2.8c-9.4-0.9-18.7-2.2-28-3.7
		c-13.6-2.1-27.2-4.1-40.8-6.2c-7.4-1.1-14.7-2.4-22-3.6c-1.6-0.3-3.2-0.5-4.5-1.7c-0.4-6,0.2-12.1,0.4-18.5
		c12.6-1.2,24.8,1.8,37.4,1.8c0.2-1.9,0.4-3.8,0.6-5.7c0.2-2.1,1-3.3,3.5-3.2c4.4,0.3,8.9-0.6,13.3,0.5c0.8,0.2,1.6,0.1,2.4,1
		C767.1,645.1,764.4,643,762.2,644.9L762.2,644.9z"/>
	<path d="M819.3,417.6c0.8,1.4,1.3,2.7,0.2,4.2c-0.7,0.9-0.5,1.9-0.5,3c0.1,2,0.1,3.9-0.5,5.8c-0.6,2-0.7,4-0.6,6.1
		c0.2,3.5-1.1,6.8-2.8,9.8s-2.5,6.2-2.6,9.5c-0.1,9.5-2.5,18.3-7.6,26.4c-4.2,6.7-7.9,13.7-11.7,20.7c-2.3,4.1-3.8,8.6-5.4,13
		c-0.5,1.4-1.1,2.7-3.2,3.5c2.1-7.3,4.7-13.8,8.2-20c3.6-6.4,7.4-12.6,10.5-19.3c1.5-3.2,3.6-6.1,4.7-9.5c1.6-4.8,2.6-9.7,2.3-14.8
		c-0.1-2.8,0.6-5.2,2-7.8c2.1-3.9,3.7-8.2,3-12.8c-0.2-1.4,0.1-2.7,0.6-4c1-2.2,1.4-4.5,0.9-7C816.6,421.8,818.4,419.8,819.3,417.6
		L819.3,417.6z"/>
	<path d="M770.1,419.1c1.7,0.7,1.8,1.7,1.3,2.9c-2.9,6.6-6.4,12.8-11.8,17.7c-1.3,1.2-3.2,1.2-4.8,2.3c2.5-3.9,5.3-7.6,8.8-10.6
		c3.1-2.7,5-5.8,5.7-9.8C769.4,420.8,769.8,420,770.1,419.1z"/>
	<path d="M810.8,441.1c-2.1-3.3-3-6.6-1.5-10.5c-3.5,0-6.4-0.9-8-4.4c1.5-0.3,2.2,0.8,3.1,1.4c3.1,1.9,4.3,1.7,6.6-1.2
		c1-1.2,1.6-2.7,3.1-3.8c1,1,0.7,1.9,0.1,2.8c-0.7,1.1-1.5,2.3-2.3,3.4c-2.2,3.1-2,6.5-1,10C811.2,439.4,811.7,440.1,810.8,441.1z"
		/>
	<path d="M368.5,455.1c-1.8-0.2-3.2,1.5-5.7,0.6c4.7-3,9.4-3.9,13.8-5.6c-1.8,2.4-4.8,2.5-7,4.3c0.4,1.6,0.9,3.1,1.3,4.7
		c0.7,0.9,2.2,0.5,3,1.5c-1.2,1.1-3.3-0.4-4.2,1.6c1.7,1.6,4.5,0.3,6.3,2.2c-3.4,0.5-6.3-0.3-9.2-1.3c-0.3-0.7,0-0.8,0.4-0.8
		c0.3,0,0.7-0.1,1.1-0.1C369.1,459.9,369.5,457.6,368.5,455.1z"/>
	<path d="M416.7,455.5c-6.6-7.9-13.7-14.8-23.8-17.8c1.1-1.8,2.3-1.1,3.3-0.7c8.6,3.5,15.3,9.3,20.5,17c0.2,0.3,0.2,0.6,0.3,1
		C417,455,416.8,455.1,416.7,455.5z"/>
	<path d="M410.7,434.7c-1.3-2.3-2.6-4.5-3.8-6.8c-1.5-2.7-3.6-4.7-6.3-6.1c-3.4-1.7-6.6-3.7-9.6-6c-1-0.8-2.1-1.6-2.5-3.1
		c4.5,4,10.1,6,14.9,9.2c4.4,3,6.5,7.6,8.4,12.3C411.4,434.3,411.1,434.5,410.7,434.7z"/>
	<path d="M436.7,440.9c3.3-10.8,9.9-19.5,18.7-26.5C448.2,422.5,441.2,430.8,436.7,440.9z"/>
	<path d="M721.4,469.3c4.6-6.2,10.8-11,16.3-16.3c-3.5,7.3-9.4,12.3-15.8,16.8c-0.2,0-0.4,0-0.6,0
		C721.4,469.6,721.4,469.5,721.4,469.3z"/>
	<path d="M797.8,458.8c4,3.6,1,19.3-4.6,24.1c0.7-4.6,4-7.5,4.3-11.7C797.9,467.3,798.5,463.3,797.8,458.8z"/>
	<path d="M563.4,677.6c-9.2-1-18.2-2-27.2-3C542.1,672.8,560.8,675.2,563.4,677.6z"/>
	<path d="M433.6,410.2c0.4-0.2,0.6-0.7,1.4-0.5c0.3,2.7-0.2,5.4-1.8,7.7c-3.6,5.3-8.2,9.8-12.4,14.7c-0.8-1.1,0-1.6,0.3-2.2
		c2.1-3.3,5.1-5.9,7.8-8.7C431.9,418.1,433.6,414.4,433.6,410.2L433.6,410.2z"/>
	<path d="M700.4,486.3c3-4.3,14.3-13.8,17.9-15.3C717.9,472.4,706.1,482.5,700.4,486.3z"/>
	<path d="M401.2,417.2c4.5-2.1,13.2,1.6,15.9,6.6C412.4,420.5,407.1,418.5,401.2,417.2z"/>
	<path d="M362,501.9c0-6.3-0.7-12.8,2.1-18.8c0.5,3.2-1.1,6.2-0.8,9.4C363.7,495.7,363.1,498.8,362,501.9z"/>
	<path d="M746.4,445.3c-0.1-4.1,1.4-7.6,3.4-11.3C751,436,749,441.8,746.4,445.3L746.4,445.3z"/>
	<path d="M374.4,429.3c-2,5.1-3.7,10.3-4.5,16C369.2,441.3,371.1,434.3,374.4,429.3z"/>
	<path d="M756.1,450.2c2.1-6,3.3-7.3,7.4-7.5c-1.5,1.4-2.7,2.5-3.8,3.6C758.6,447.4,757.6,448.6,756.1,450.2z"/>
	<path d="M442.9,413c-1,3.8-2.9,6.9-5.8,9.4c-0.1-0.1-0.2-0.3-0.3-0.4c0.6-3.1,2.4-5.6,3.7-8.3c0.4-0.8,1.1-1,2-1
		C442.6,412.9,442.7,413,442.9,413z"/>
	<path d="M778.5,435.6c-2.7-2.8-1.6-5.7-2.3-8.6C778.1,429.7,779.5,432,778.5,435.6z"/>
	<path d="M795.4,453.9c-0.7-3.5-3.1-6.3-3.6-9.8C793.8,447,795.5,450.1,795.4,453.9z"/>
	<path d="M386,421.7c1.8,2.6,3.6,5.1,5.5,7.7c-0.3,0.2-0.6,0.4-0.9,0.6c-2.4-2.1-3.6-5.2-5.2-7.9C385.6,421.9,385.8,421.8,386,421.7
		z"/>
	<path d="M512.5,587.1c0.6,4-0.8,7.9-0.5,11.9C511.6,595,512,591,512.5,587.1z"/>
	<path d="M721,455.1c0.6-2.8,3.1-3.5,5.3-4.3l0.2,0.2C725,452.8,724.2,455.6,721,455.1L721,455.1z"/>
	<path d="M820.4,633.1c0-3.6,0-7.3,0-10.9c0.1,0,0.2,0,0.2,0c0,3.6,0,7.3,0,10.9C820.6,633.1,820.5,633.1,820.4,633.1z"/>
	<path d="M808.2,649.2c-1.8,1.4-3.7,1.1-5.6,0.3C804.5,649,806.4,649.4,808.2,649.2z"/>
	<path d="M509.1,633.6c0-3.4,0-6.8,0-10.1C509.5,626.8,509.7,630.2,509.1,633.6z"/>
	<path d="M497.2,650.2c-1.8,1-3.6,0.6-5.5-0.4c1.8-0.1,3.5-0.3,5.3-0.4C497.1,649.7,497.1,650,497.2,650.2z"/>
	<path d="M823.3,596.4c0-3.3,0-6.6,0-9.9c0.1,0,0.2,0,0.3,0c0,3.3,0,6.6,0,9.9C823.5,596.4,823.4,596.4,823.3,596.4z"/>
	<path d="M427.7,448.1c-0.5-2.4-0.1-4.6,2.1-6.2C429.1,444,428.4,446,427.7,448.1z"/>
	<path d="M776.9,519.1c-1-1.5-1.8-3.1-1.1-5.3C777.5,515.6,777.5,517.3,776.9,519.1z"/>
	<path d="M788.6,488.5c1.3-2,2.4-3.2,4.2-4.3C792.5,486.8,790.8,487.3,788.6,488.5z"/>
	<path d="M873.7,666.3c-0.7-2.1-0.8-4.1,0.2-6.1C874.6,662.3,873.7,664.3,873.7,666.3z"/>
	<path d="M769.7,438.8c-1.4,2.3-3.2,2.5-4.8,3C765.9,440.3,766.9,438.6,769.7,438.8z"/>
	<path d="M762.1,644.9c2.3-0.3,4.3,0.7,6.4,1.2C766.2,646.9,764.2,645.8,762.1,644.9L762.1,644.9z"/>
	<path d="M746.4,445.3c0.1,2.1-0.1,4-2.7,5.6C744.5,448.5,744.8,446.6,746.4,445.3L746.4,445.3z"/>
	<path d="M563.1,660.2c0.5,2.6-0.3,4.4-0.8,6.2C562.1,664.4,561.3,662.5,563.1,660.2z"/>
	<path d="M366.8,432c-1.1-1.8-1.7-3.7-1.9-5.7C367,427.7,366.6,430,366.8,432L366.8,432z"/>
	<path d="M726.3,450.8c0.8-1.6,2-2.6,4.2-3.5c-0.9,2.4-2,3.5-4,3.7L726.3,450.8z"/>
	<path d="M379.5,405.6c0.1,1.7-0.5,3.1-1.6,5.1C378,408.3,378.3,406.8,379.5,405.6z"/>
	<path d="M752,428.1c-0.2,1.6-1.7,2.1-1.3,4.1c-1.2-1.3-1-2.2-1.1-3C750.2,428.7,750.8,428.2,752,428.1z"/>
	<path d="M403.8,409.5c1.3-0.3,2.6-0.4,4.1,0.6C406.1,410.8,405,410.1,403.8,409.5z"/>
	<path d="M781.4,429.2c-1.1-1.3-1.1-2.3-1-3.9C781.2,426.8,781.9,427.7,781.4,429.2z"/>
	<path d="M409.6,471.6c-0.5,1.1-1.3,2-2.4,2.5c0.5-1.1,1-2.1,2.1-2.8C409.5,471.5,409.5,471.6,409.6,471.6z"/>
	<path d="M772.4,435.4c-0.9,0.7-1.5,1.8-2.8,1.7C770.5,435.6,770.5,435.6,772.4,435.4z"/>
	<path d="M479.1,647.3c1.1-0.8,1.7-0.5,2.4-0.4C481,647.9,480.3,647.9,479.1,647.3z"/>
	<path d="M721.9,469.8c-0.4,0.9-0.6,1.9-2.1,1.9c-0.1-1.4,0.8-1.9,1.6-2.4C721.6,469.4,721.7,469.6,721.9,469.8z"/>
	<path d="M752.4,449.2c0.5,1-0.2,1.8-0.6,2.8c-1-0.5-0.6-1.2-0.5-1.7C751.4,449.8,751.6,449.3,752.4,449.2z"/>
	<path d="M464,415.1c-0.1,0.6-0.3,1.2-1,1.3C462.9,415.5,463.6,415.4,464,415.1z"/>
	<path d="M766.6,418.1c0.4,1.1-0.2,1.6-0.4,2.8C765.3,419.4,765.5,418.8,766.6,418.1z"/>
	<path d="M740.5,450c-0.3-1.2,0.3-1.6,1.1-2.2C741.9,448.9,741.6,449.5,740.5,450z"/>
	<path d="M739.7,439c0.3-0.9,0.8-1.4,1.7-1.6c0.6,0.6,0.1,0.9-0.2,1.3C740.8,439,740.5,439.3,739.7,439z"/>
	<path d="M751.8,442.9c-0.5-0.7-0.6-1.2-0.2-1.7C752.9,441.6,752.4,442.1,751.8,442.9z"/>
	<path d="M777.1,474.4c0.2-1.1,0.2-1.7,0.8-2.2C778.1,473,778.3,473.7,777.1,474.4z"/>
	<path d="M775.6,508.5c0.7,0.9,0.8,1.7,0.1,2.6C774.8,510.2,775.4,509.3,775.6,508.5z"/>
	<path d="M483.8,649c0.6,0,1.2,0,2.1,0C485,649.7,484.4,649.2,483.8,649z"/>
	<path d="M794.2,646.7c-1.1,0.1-2.3,0.7-3.4-0.1C792,646,793.1,646.2,794.2,646.7L794.2,646.7z"/>
	<path d="M796.5,648.5c-0.5,0.4-1,0.3-1.5,0.1C795.5,648.2,796,648.5,796.5,648.5z"/>
	<path d="M845.3,654.8c-0.4,0-0.7,0-1.2,0C844.6,654.5,844.9,654.6,845.3,654.8z"/>
	<path d="M509.2,645.4c0,0.3,0,0.6-0.1,1.4c-0.1-0.8-0.1-1.1-0.1-1.4C509.1,645.4,509.1,645.4,509.2,645.4z"/>
	<path d="M386.6,402.5c0.3,1.5-0.1,1.8-0.6,2.1C384.9,403.2,386,403.3,386.6,402.5z"/>
	<path d="M784.8,513.2c0.5,0.4,0.9,0.7,0.2,1.3C784.3,514.2,784.6,513.7,784.8,513.2z"/>
	<path d="M692.2,492.5c0.1-0.9,0.5-1.2,1.2-1.3C693.7,492.1,693.2,492.4,692.2,492.5z"/>
	<path d="M757.7,424.5c0.2-0.8,0.5-1.5,1.5-1.3C759.2,424.2,758.7,424.6,757.7,424.5z"/>
	<path d="M366.8,432.1c0.5,0.7,0.5,1.4,0.5,2.3C366.6,433.6,366.8,432.8,366.8,432.1L366.8,432.1z"/>
	<path d="M732.8,445.7c0.3-1.1,0.8-1.6,2-1.6C734.5,445,734.1,445.6,732.8,445.7z"/>
	<path d="M743.7,452.3c0.3,1.2-0.2,1.7-1,2C742.3,453.4,742.8,452.9,743.7,452.3z"/>
	<path d="M533.4,655.2c0.1,0,0.3,0,0.5,0C533.7,655.7,533.4,655.2,533.4,655.2z"/>
	<path d="M873.8,673.6c0,0.2,0,0.4,0,0.7c-0.1-0.2-0.2-0.3-0.2-0.5C873.6,673.5,873.7,673.4,873.8,673.6z"/>
	<path d="M787.4,489.6c-0.1,1.1-0.5,1.4-1.3,1.3C785.9,490,786.4,489.7,787.4,489.6z"/>
	<path d="M800.9,422.3c-0.1,0.2-0.2,0.3-0.3,0.5c-0.2-0.2-0.5-0.3-0.7-0.5c0.1-0.2,0.2-0.4,0.3-0.5
		C800.5,421.7,800.8,421.9,800.9,422.3z"/>
	<path d="M437,422.5c0.1,0.7-0.2,1.2-0.8,1.6c-0.5-0.1-0.3-0.6-0.5-0.9l-0.1,0.1C436.1,422.8,436.3,422,437,422.5L437,422.5z"/>
	<path fill="#FFFFFF" d="M451.4,645.4c2.2-1.8,4.6,0.2,7-0.6c-2.9-1-5.9-1.7-8.9-1.5c-2.2,0.2-4.3,0.3-6.5,0.2s-3.2,0.7-3.5,2.8
		c-0.2,1.9-0.4,3.9-0.6,6c-5.2,0-10.4-0.5-15.6-1c-6.6-0.7-13.2-1.2-19.9-1c-1.5,0.1-2.2,1.1-2.2,2.5c0,1.7,0,3.4-0.3,5.4
		c0-4-2.9-5.1-5.7-6.1c-5.9-2.1-9.6-6.9-14-10.9c-4.1-3.8-8.2-7.6-11.6-12.1c-1.1-1.4-1.8-2.9-1.6-4.4c-1.2-2-3.6-0.3-4.6-2.1
		l-0.1,0.1c1-0.1,1-0.9,0.9-1.5c-2.4-11.3,1.4-21.6,5.1-31.9c4.4-12.5,8.4-25,10.7-38.1c0.4-2.4,1.7-4.1,3.5-5.7
		c4.1-3.9,6.7-9,9.1-14.1c0.8-1.7,0.4-3.6,0.3-5.6c2.9-2.4,4.6-5.5,4.9-9.7c4.8-0.3,9.3-1.8,13.7-4.3c-0.1-8.1,2.2-16.1,3-24.3
		c0.8-8.3,5.4-15.6,6.6-24.2c13.6,3.1,27.3,2.6,40.5,7.2c2.4-5.2,8-7.7,10.5-13.1c2-0.9,4.5-1.2,7.3-1.3c-3,3.9-4.5,8.6-7.5,12.4
		c-3.6,4.6-5.4,10.1-7.6,15.3c-1.1,2.6-0.8,5.4-0.5,8.2c0.6,4.3-0.3,8.4-1.7,12.5c-2.5,7.2-5.4,14.1-8.9,21.3
		c-2,0.2-3.2,1.7-3.5,3.8c-1,0.3-1.4-1.1-2.5-0.4c-1.6,3.8-2.6,7.9-3.8,12.1c-1.4,5.2-1.7,11.2-6.4,15.9c-5.5,0.7-11.6,1.6-17.8,1.6
		c-4.5,0-9,0.1-13.4,0c-2.4-0.1-3.6,0.8-3.9,3.2c-0.5,4.1-1.4,8.1-1.1,12.7c10,1.5,20.1,1,29.9,2.4s19.6,2.1,29.2,3.1
		c0.9,24.9,0.6,49.5-1,74.3c-6,0.6-11.6-0.3-17.3-1.4c-0.6-2.5,0.3-5,0.5-7.6C445.2,644.1,448.4,644.9,451.4,645.4
		c0.6,0.4,1.3,0.2,1.6,0.5C452.8,645.6,452,645.7,451.4,645.4z"/>
	<path fill="#FFFFFF" d="M385.6,376.3c7.2,2.1,14.3,3.4,21.6,3.9c-6.9-2.6-14.4-2.6-21.7-5c-0.7-11.2-2-22.5-1.1-34.2
		c6.9,1.5,13.6,3.1,20.6,0.2c2.5,1.5,5.5,2.3,8.3,3.3c2.7,1,4.6,0.4,6.5-1.7c-5,2.7-8.5-1.7-12.9-2.3c3.1-2.1,6-4,8.5-6.5
		c1.6,0.5,2.8,2.1,4.7,1.4c-0.4-1.5-1.9-2.3-2.6-4.1c9.5-14.3,7.9-29.2,1-44.2c2.2-1,2.8,0.6,3.4,1.9c2.4,4.7,4.9,9.4,7.2,14.1
		c2.4,5.1,6.4,8.2,11.7,10c5.2,1.7,10-1.2,11-6.6c0.5-2.9-0.1-5.7-0.5-8.5c2.1,4,3.4,8.2,4.4,12.5c1.1,4.6,1,9.3,0.9,14
		c-0.1,6.9-2.4,12.9-6.6,18.3c-1.6,2-1.5,4.6-1.5,6.9c0,10.3-1.8,20-7.5,28.8c-4.4,6.8-6.8,14.5-10.1,21.9
		c-2.4,5.2-4.5,6.4-10.5,5.8c0.3-0.5,0.6-0.9,0.9-1.4c-0.3-0.3-0.7-0.3-0.9-0.1c-2.4,2-5.1,1.6-7.8,1.1c-5.6-1.1-11.3-2.2-16.9-3.2
		c-5.9-1.1-11.4-3.3-16.9-6.1C382.6,390.4,384.5,383.6,385.6,376.3z"/>
	<path fill="#FFFFFF" d="M335,292.1c-3.3,2.5-7.3,2.4-11.1,2.6c-2.8,0.2-5.5,0.2-8.3,0.5c-3.7,0.4-6.9-1.7-10-3.2
		c-12.1-5.8-18.4-16-20.9-28.9c-0.9-4.5-1.4-9.1,0.6-13.6c2.7,0.2,5.1,1.3,7.6,2c5.9,1.7,11.7,3.4,17.5,5.2c1.8,0.5,3.5,0.8,4.9,2.5
		c1.6,2,4,1.5,6.2-0.1c4.5-3.5,4.4-11.6-3-14.3c1.4-0.9,2.8-1,4.6-0.5c3.3-7.8,7.7-14.9,13-21.3c4.7,2.1,5.1,8.3,1,11.6
		c-3.6,2.9-7.1,5.9-10.3,9.1c-1.8,1.8-2.3,3.4-0.3,4.9c7-1.2,13.7-2.7,20.6-2.7c2.2,2.9,3.3,6.2,5.3,9.7c-9.1-0.2-16.7-5.1-25.7-5.9
		c0.9,5.1,2,10.4-3.6,12.2c-5,1.6-10.3,0.8-13.6-4.8c-0.7,2.9,0,4.3,2.3,5.6c4.1,2.2,8.8,1.9,12.7,0.6c2.9-1,4.5-4.6,4.9-8.1
		c0.1-0.9,0-1.8,0-2.8c4.7,1.4,9.4,2.8,13.9,4.2c2.5,0.8,5.2,1.2,7.8,1.3c1.4,0.1,2.8,0.1,3.6-1.9c-1.4-3.5-3.4-6.9-5.4-10.4
		c-1.1-1.8-3.1-1.8-5-1.7c-5.1,0.4-10,1.5-15,2.4c-0.4,0.1-0.9,0.2-1.9,0.3c3.5-3.8,6.8-7,10.4-9.9c5.7-4.6,4.5-8.8,2.1-13.4
		c-1.6-3-4.5-3.1-6.5-0.3c-4.4,6-8.9,12-11.3,19.1c-3.3-0.2-6.6-1.5-9.4,1.1c-7.7-2.5-15.5-5-23.7-7.6c2.6-3.8,4.1-7.8,7.5-10.6
		c7.1-5.8,14.2-11.4,23.4-13.2c8-1.5,15.5-0.3,21.8,5.3c2.8,2.5,5.6,5.1,8.9,8c-0.8-2.8-2.8-4.1-4.1-5.9c0.1-0.1,0.2-0.2,0.3-0.3
		c9.2,7.6,15.2,16.9,15.7,29.3c0.2,4.9-0.4,9.8-0.6,14.8c0,1.4-0.6,2.7-1.2,3.9c-4,7.3-8.3,14.5-14.4,20.4
		C343.2,290.2,339.2,291.7,335,292.1c-0.1-2.2,2.5-1.3,2.7-2.2C337.3,290.6,334.9,290,335,292.1z"/>
	<path fill="#FFFFFF" d="M476.5,657.2c2.4,0.1,4.8,0.3,7.1,0.9c6.8,1.7,13.9,1.4,20.7,3.1c7.2,1.9,14.8,1.9,22.1,2.9
		c2.3,0.3,4.5,0.7,6.6,1.8c0.9,4.2,0.7,15.7-0.3,18.6c-2.4,0.8-4.9,1.3-7.6,1c-15.8-1.9-31.7-3.6-47.6-5.3
		c-12.6-1.4-24.9-4-37.4-5.7s-24.9-3.5-37.3-5.7c0-5.5,0-10.8,0-16.1c6.6-1,12.7,2.2,19,0.6c-2.9-0.4-5.8-0.7-8.7-1.1
		c4.2-0.4,8.1-0.6,12,1.8c4.1,2.5,9.1,2.1,13.8,2.6c6.9,0.7,13.9,1.4,21.2,2.5c1.4-26.2,2.5-52.4,1.8-79c6.1,0.3,11.5,0.6,16.9,0.9
		c0,3.8,0.1,7.3,0,10.7c-0.3,8.7-0.5,17.4-1,26.2c-0.4,7.2-1,14.4-0.9,21.7C477.1,645.3,477,651.3,476.5,657.2l-0.2,0.3L476.5,657.2
		z"/>
	<path fill="#FFFFFF" d="M406.3,280.6c-0.3-2.2-2.2-1.4-3.3-2.1c3.3-1.3,4.5-1.1,6.9,1.4c-0.3,0.7-1.4,0-1.6,0.9
		c10.5,5.5,12.1,15.9,13.6,26c0.8,5.4-0.3,11-1.9,16.3c-0.9,3-2.6,5.2-4.3,7.1c-7.2-5.6-9.2-14.5-14.1-21.4
		c-1.9-2.6-5.6-5.9-8.1-6.3c4.1,2.2,4.6,6.5,6.1,10.4c-2.4,2.3-5.5,3.6-8.2,5.5c-2.6,1.9-5.1,3.9-7.1,6.5c-3.5,4.5-8.6,6.9-13.3,9.7
		c-5.3,3.1-10.5,6.6-16.8,8.5c-2.2-1.4-4.9-2-7.9-1.5c-1.7,0.3-3.2-0.7-3.7-2c-1.9-4.2-3.6-8.6-0.9-13.2c1.2-2,0.9-4.2,1.5-6.3
		c-1.8,0.1-0.9,2-2.5,2.4c0.8-4.1,1-8.1,3.4-11.6c4.8-7,9.6-14,12.5-22.1c0.6-1.5,2-2.4,2.9-4c-2-1.2-2.9-3-4.1-5
		c3.4-3.8,6-8.2,8.1-12.9c3.6,1,4.2-1.8,5.1-4c13.1,3.6,25.7,8.1,39.3,12.3c-5.4,1.2-10.1,2.2-14.8,3.3c-1.2,0.3-2.2,0.3-3.4-0.1
		c-4.7-1.5-9.5-2.8-14.2-4.2c-0.9-0.3-1.7-0.5-2.3-1.3c-3.2-4.2-3.2-4.2-8.2-3.9c2.3,1.4,6.3,0.5,6.1,5.2c-5.1,5.3-4.2,13-5.6,19.9
		c-1.4,6.5-1.7,13.2-0.8,19.9c0.4,2.8,0.2,5.7-0.3,8.8c1.1,0.7,2,1.7,3.2,2.8c-2.9-6.3,1-12.8-1.4-18.9c2.6-3.7,7.1-4.4,10-7.4
		c-1.1-1.2-2.3,0.6-3.5,0c0.2-2.1,1.7-3.6,2.7-5.3c5.7-9,14.3-13.3,24.4-14.9c0.9-0.1,1.7-0.1,2.6,0.5s2.1,0.9,3.1,1.4
		C405.6,281,405.8,280.8,406.3,280.6z"/>
	<path fill="#FFFFFF" d="M454.9,526.3c0.4-2.3,1.5-4.1,2.5-5.8c3.9-6.8,6.3-14.3,8.8-21.6c0.4-1.1,0.4-2.3,0-3.4
		c-2.1-7,0.6-13,3.5-19.1c2.5-5.2,6.5-9.4,9.2-14.5c1-1.9,2.4-3.7,2.6-6.1c-1.8-2.6-4.3-2-6.7-1.2c-4.5,1.5-9.2,1.4-13.8,2.5
		c-0.6-4,3.2-2.9,4.6-4.8c-1-0.7-2.2,0-3.3-0.5c0.9-7.8,7.5-12.6,9.7-19.2c1.2-0.9,2.2-0.1,3-0.7c0.3-1.2-1.3-1.2-1.2-2.9
		c1.8-3.9,4.1-8.2,7.3-12.1c5.2,2.3,10.2,4.6,15.2,6.8c1.4,0.6,2.7,1.4,4.1,1.7c4.8,0.9,8.5,4,12.4,6.4c2.2,1.3,3.4,3.3,2.6,5.8
		c-2,6.1-1.4,12.8-4,18.7c-3.4,8-5.9,16.5-10.6,23.8c-4.8,7.4-10,14.5-15.3,21.6c-4.4,5.8-7.9,12.1-10.7,18.8
		c-1.5,3.6-3.8,5.6-6.9,5.6c-0.9-1-0.2-2.7-1.6-3.6c-0.8,1.1-0.1,2.5-0.8,3.8C462.2,526.8,458.7,526.4,454.9,526.3z"/>
	<path fill="#FFFFFF" d="M512.3,561.2c-0.1,1.3,0.8,1.4,1.8,1.6c7.5,1,15,1.9,22.6,1.9c4.5,0,8.9,0.8,13.4,0.9
		c7.2,0.2,14.4,0.6,21.5,0.9c0.6,0,1.1,0.2,1.9,0.3c0,3.2,0,6.4,0,9.9c-14.4,2.6-28.5,7.8-44.5,5.7c-1.6,0.9-4.2,0.5-6.8,0.4
		c-10.7-0.5-21.3-2.1-32-1.5c-3.3,0.2-6.3-0.8-9.5-1.4c-5.2-1-10.5-0.8-15.8-1.2c-9-0.8-18-1.5-27-2.7c-9.7-1.2-19.4-2.1-29.1-2.4
		c-1.9-0.1-3.9-0.3-6-0.4c-0.4-4.3,0.7-8.5,1.3-13c4.8,0,9.5-0.1,14.2,0c5.8,0.1,11.5-0.6,17.1-1.3c1.1-0.1,2.3-0.7,3.4,0
		c2.8,1.8,5.9,1.7,9,1.6c4.1-0.1,8.1,1.3,12.3,0.7c1.4-0.2,3,0,4.4-0.3c5.9-1.2,11.8,0,17.7,0.7c7.3,0.9,14.7,0.6,22,1.7
		C507,563.5,509.5,561.4,512.3,561.2L512.3,561.2z"/>
	<path fill="#FFFFFF" d="M515,281.1c6.2,7,9.9,14.7,7.7,24.4c-0.4,1.8-0.8,3.6-1.1,5.4c-1.5,9.1-7.2,15.4-13.7,21.2
		c-0.6,0.5-1.2,1.1-2,1.4c-7.2,3-14.6,5.5-22.4,3.9c-7-1.4-13.7-3.9-17.6-11.2c5.5-5.7,12.8-10.9,8.1-20.8c2,0.4,1.8,1.6,2.1,2.5
		c0.6,1.7,1.6,3,3.1,4c4.5,2.9,7.6,2.5,11.3-1.4c3.5-3.8,5.2-8,3.8-13.2c-0.6-2.3-1.7-3.9-4.1-4.7c-5-1.7-8.5-0.8-12.1,3.4
		c-1.4-0.5-2.9-0.9-4.4-1.4c-1.8-5.8-7-5.7-11.7-7.1c3.1-4.6,7.3-8.1,11.3-11.8c4.4-4,9.6-6.1,15.5-6.6c2.3-0.2,4.4,0.4,6.6,0.8
		c6.2,1,10.3,5.2,15.2,9.2c0-1.8-1.4-2.1-1.7-3.6C511.6,277.3,514.2,278.3,515,281.1c-0.6,0.4-0.3,0.9-0.1,1.3c0,0,0-0.1-0.2-0.3
		C514.6,281.7,514.7,281.4,515,281.1z"/>
	<path fill="#FFFFFF" d="M363.4,622.4c-5.4,2.5-11.1,2-17.1,1.3c-0.4-9.3,1.9-18.1,4-27.2c-1.6,1-1.1,2.5-2.2,3.5
		c-0.8-4.5-0.5-8.8,0-13.2c2.9-1.1,3.5-3.8,3.9-6.3c0.7-5.3,2.9-10.1,4.1-15.3c0.2-1,0.5-2-0.4-3.7c-2.6,8.1-4.4,15.8-7.9,23.4
		c-1.2-2.5-1.4-4.8-1.5-7.1c-0.2-3.7-0.4-7.3-0.5-11c-0.1-2.4,0.6-4.6,1.4-7c1.4-3.9,2.4-7.9,4.1-11.7c2.3-5.3,4.3-10.8,8.4-15.3
		c3.1-3.4,4.3-7.9,3.6-12.5c-0.5-3.3-0.3-6.4,0.3-9.6c3.8,0.4,6.2,2,7.6,6c1.6,4.4,2.4,8.6,1.4,13.3c-0.9,4.1-0.7,8.4-0.7,12.6
		c3.6-4.4,3.5-9.4,3.2-14.6c-0.3-4.5-0.9-8.9-2.3-13.8c7.6,2.6,14.9,0.6,22,2c0.4,3.5-0.7,6.1-3.1,7.3c0.4,8-4.6,13.7-9.1,19.4
		c-2.1,2.7-3.7,5.5-4.7,8.6c-0.8,2.4-1.6,4.8-2,7.3c-2.1,12.3-7.2,23.7-10.7,35.6c-2.3,7.7-4.2,15.5-3.1,23.7
		C362.2,619.6,362.1,621.3,363.4,622.4L363.4,622.4z"/>
	<path fill="#FFFFFF" d="M448.1,291.4c1.4,4.4,2.1,8.9,2.1,13.5c-0.1,3.2-0.7,4-3.8,5.4c-0.9-1.1-0.4-2.7-1.5-3.7
		c-1,1.5,0.2,3.2-0.8,4.9c-5.3-1.1-9.8-3-12.8-8.1c-2.9-5.1-4.6-10.7-7.7-16c4.9,0.6,8.5,3.8,13,4.4c-3.4-2.6-7.1-4.6-11.1-5.6
		c-3.2-0.8-5.6-2.2-7.6-4.7c-1.4-1.8-3.4-3-4.7-5c2.8-2.7,5.8-4.8,8.1-8c2.1-2.9,1.9-6.9,4.7-9.5c0.5,4.4,0.7,8.7,1.4,12.9
		c0.9,0.3,1.2-0.4,1.2-0.9c-0.8-4,0.1-8.1-0.9-12.1c-0.6-2.5,1.9-4.5,2.6-7.2c2,1.4,3.6,3.2,6.3,2.6c0.1,3,1.2,5.4,4.3,6.5
		c-1.4-2.1-2.3-4.4-2.9-6.9c-0.1-0.7-0.8-1.9-2.5-1.5c-2.1,0.5-6-3.1-5.6-5.1c0.3-1.1-1.1-2.2,0.1-3.1c3.9,5.7,4,5.7,6.6,3.6
		c0-0.8-0.5-1.2-1.2-1.5c-0.5-0.2-1.1-0.5-1.2-1.2c-0.3-1.3,1.2-0.9,1.8-1.7c-0.6-0.8-1.1-1.6-1.8-2.6c2.3-0.2,2.7,1.3,3.1,2.7
		c0.4,1.3,0.6,2.7,1.5,3.7c1.1,0.5,0.8-0.8,0.8-0.8c1.5-0.4,1.9,0.8,2.8,0.6c0.1-0.2,0.3-0.5,0.2-0.6c-2.3-2.8-0.7-5.2,1-7.4
		c2.4-3.2,5.5-5.5,8.8-7.7c1.4-1,2.9-1.8,3.5-3.5c2-0.5,4.3,1.9,5.7-1.6c0.5-1.2,3.4-0.9,4.8,1.3c0.1,1.7,0.1,3.8,0.7,5.8
		c0.7,2.2,1.4,4.3-0.8,6.3c-1,1-0.4,2.4,0.1,3.6c0.8,2,1.6,4.1,2.4,6.1c0.3,0.9,0.7,1.8-0.6,2.7c-1.5,0.2-3.2-0.4-4.9-0.9
		c-0.7,2.8,1.5,2.6,2.8,3.1c1.2,4.4-3.5,2.6-4.6,4.5c1,1.8,2.3-0.5,3.2,0.4c0.5,0.6,0.7,1.3,0.2,1.9c-1.3,1.6-1.4,3.2-1.1,5.2
		c0.3,1.9-0.6,3.3-2.8,3.5c-1.4,0.1-2.7,0.1-4.1,0c-7-0.6-10.8,2.7-12.2,9.5c-0.9,4.2-0.1,7.9,1.6,11.6
		C447,291.4,447.4,291.6,448.1,291.4L448.1,291.4z"/>
	<path fill="#FFFFFF" d="M440.2,557.4c4-7.3,6-14.6,6.3-22.9c3.8,5.1,5.9,5.7,11.4,4.2c4.2-1.1,7.9-2.8,10.5-6.6
		c1.6-2.3,4-3.9,5.5-6.3c2.5,1.6,1.5,3.9,2.1,5.6c-0.5,1.6-2.6,1.8-2.8,3.5c1.8,1.1,3.5-1,5.5-0.2c-1,1.6-3.5,1.4-3.8,3.5
		c1.6,0.8,3.2,0,4.7,0c0.2,0.9-1,1.3-0.7,2.2c1.1,1.2,2.5,0.3,3.7,0.2c0.8,0.5-0.1,1.1,0.4,1.8c1.5,0.6,2.9-0.3,4.6-1
		c-0.3,1-1.3,1.7-0.6,3c1.8,0,3.7,1.4,5.7-0.1c0.8,0.6-0.2,1.8,0.9,2.4c1.1,0.5,1.1-1.4,2.3-1.1c3.3,1.5,7,2.3,10.8,2.7
		c1.7,0.2,3.4,0.6,5.1,1c3.2,0.7,4.9,2.6,5,6.2c-2.4,1.5-4.9,3.2-7.5,4.7c-1.4,0.8-3,1.3-4.6,0.9c-7-1.8-14.1-1.3-21.2-1.9
		c-0.6,0-1.2,0.1-1.7-0.1c-8.7-3.2-17.5,0.5-26.1-0.3C450.6,558.1,445.5,558.7,440.2,557.4z"/>
	<path fill="#FFFFFF" d="M369.4,632.1c0.7,0.7,1.7,1.3,1.5,2.6c-3,0.8-6.3,0.6-9.2,3.1c2.4,0.6,4.3,0.6,6.4,0
		c-0.2,1.4-1.9,1.1-2,2.5c3.7,0.9,7.6-1.6,11.3,0.1c-2.5,1.2-5.6,0.4-7.6,2.6c0.8,1.5,2.3,0.4,3.1,1.2c-0.1,0.5-0.7,0.7-0.2,1.4
		c1.3,0,2.8,0,4.4,0c1.8,2.1,4,3.8,7.1,1.9c2.9,3.6,6.5,5.9,10.9,7.1c2.8,0.8,3.6,2.1,3.5,5.1c-0.1,2-1.8,4.2-4,4.6
		c-1.7,0.3-3.5,0.5-5.2,0.3c-9.2-1.1-18.6-0.3-27.7-2.9c-8.5-2.4-17.8-1.6-25.9-5.9c-0.5-0.3-1-0.5-1.8-0.8
		c2.7-7.8,5.8-15.4,6.7-23.6c0.9,0.6,0.8,1.7,1,2.5c1,3.1,2.8,4.3,5.9,3.5c1.8-0.4,3.5-1.1,5.1-2.1c2-1.3,4.1-2.5,6.6-2.6
		c2.1-2.1-0.2-8.1,6-6.5C366.3,628.3,367.6,630.5,369.4,632.1c-1.7,1.8-4.2,1.1-6.2,1.8C365.2,633.2,367.7,634,369.4,632.1z"/>
	<path fill="#FFFFFF" d="M268.2,231.4c4.4,4.3,4.4,7.2,0.2,10.1c4.1,0.2,5.3-3.2,3.4-9.8c10.9,3.5,21.7,6.9,32.5,10.4
		c4.9,1.6,9.8,3.1,14.6,5c3.6,1.5,4.8,3.7,3.8,7.2c-0.8,2.9-2.1,3.7-5.1,2.8c-14.6-4.3-29.3-8.6-43.9-12.9c-2.2-0.6-4.4-1.2-6.6-1.7
		c-4.4-1.1-6.2-4.8-4.3-8.4C263.9,231.9,265.9,231.6,268.2,231.4z"/>
	<path fill="#FFFFFF" d="M381.8,331.1c5.8-5.4,11-11.4,18.2-16.1c0.7,1.9,1.4,3.6,2.3,5.7c-2.1-0.5-3.7-1.6-6-0.6
		c2.6,1.2,4.7,2.1,7.1,3.2c1.4,2.7,0.3,6.1,1.6,9.6c0.4-1.6,0.7-2.6,1-3.9c2.1,1.6,4.1,3,6.4,4.7c-3.3,1.6-5.5,4.7-9.6,3.9
		c-1.2,2.4-4.7,4.1-7.7,3.4c-2.7-0.6-5.3-1.4-8-1.8c-2.5-0.4-3.9-1.7-4.3-4.2C382.5,333.9,381.6,332.7,381.8,331.1z"/>
	<path fill="#FFFFFF" d="M466.6,305.3c-1.7-0.3-3.3-0.6-4,1.3c-2.9-3.1-8.6-3-8.5-8.8c4-1,7.8-1.7,10.2,3c4.2-0.1,7.1,1.4,8.4,5.5
		c1.4,4.3,2.1,8.4-1.8,12c-4.9,4.5-9.1,9.7-13.9,15.3c2.7-6.9,1.8-13.5,2.3-20.3C462.3,311.5,462.8,307,466.6,305.3z"/>
	<path fill="#FFFFFF" d="M366.3,302.6c0.3-1.7,0.5-3.1,0.8-4.5c1.2-5.4,2-10.8,2.4-16.3c0.2-2.7,1.8-4.6,4-6.4
		c4.6,1.4,9.3,2.7,14.5,4.3c-3.2,1.9-5.8,3.6-8.2,5.5c-4.2,3.3-6.6,7.9-8.8,12.5C369.6,300.6,369.8,300.7,366.3,302.6z"/>
	<path fill="#FFFFFF" d="M448.2,291.5c-0.2-0.6-0.5-1.3-0.7-1.9c-0.1-0.3,0-0.7,0.1-1.5c6.2,2.3,12.9,3,18.3,7
		c2.4,0,2.1-2.1,2.9-3.5c0.2,1.2,0.4,2.4,0.6,3.4c-0.6,0.9-1.7,0.3-2.1,1.2c0.1,1.3,1.3,1.2,4.4-0.4c4.8,1.5,9.8,2.8,14.3,4.8
		c0.6,1.5,0.7,2.7,0.4,3.9c-1.2,1.2-2.7,1.4-4.2,1.1c-3.4-0.8-6.9-1-9.6-3.8c-1.2-1.2-3.2-1.7-4.9-2.4c-1.6-0.6-3.1-1.1-4.4-2.5
		s-3.3-1.4-5.1-1.4c-2.1,0.1-4.1,0-6.3,0C450.4,294.5,450.9,291.3,448.2,291.5L448.2,291.5z"/>
	<path fill="#FFFFFF" d="M478.2,306.7c1.5-0.2,2.9,0.5,4.3,0.8c2.7,0.5,5.1-0.8,5.8-3.1c0.8-2.5-0.7-5.2-3.3-6.2
		c-1.5-0.6-3-1.1-4.5-1.6c0-0.2-0.1-0.5,0-0.6c1.8-1.6,7.5-2.5,9.7-1.3c2.7,1.5,2.9,4.2,2.8,6.9c-0.1,3.8-1.7,6.8-5,8.9
		C483.3,313.5,480,312.3,478.2,306.7z"/>
	<path fill="#FFFFFF" d="M452.8,528.3c5.5-0.2,10.6,0.5,16.1-0.2c-3.4,4.2-6.9,7.1-11.3,8.8c-3.6,1.4-5.7,0.9-7.9-1.9
		C451.2,533,452,530.7,452.8,528.3z"/>
	<path fill="#FFFFFF" d="M358,630.3c-4.7,1.2-8,5.7-13.2,4.4c-2-3-1.7-6.1-0.3-9.4c4.5,2,9.3,1.1,14.3,0.7
		C358.5,627.7,358.2,629.1,358,630.3z"/>
	<path fill="#FFFFFF" d="M462.5,465.6c-0.2-2-2.2-2.8-2.4-4.8c2.7-1.8,6.1-1.2,9.2-2.6C467.5,461.3,465,463.2,462.5,465.6z"/>
	<path fill="#FFFFFF" d="M458.8,656.5c-8.8-0.6-17.5-1.5-26.2-2.6C441.5,653.4,450.1,655.8,458.8,656.5z"/>
	<path fill="#FFFFFF" d="M524.5,312.7c3.1,1.9,3.3,2.7,1.6,5.5c-1.4,0.5-2.6-0.1-3.9-0.8C522.4,315.6,523.5,314.2,524.5,312.7z"/>
	<path fill="#FFFFFF" d="M437.1,422.5c-0.5,0.2-1,0.5-1.4,0.7c0.7-3.8,3-7,4.1-10.5c1.1-0.5,1.9-0.7,2.7,0
		C440.4,415.9,438,418.8,437.1,422.5z"/>
	<path fill="#FFFFFF" d="M457.1,305.3c1.4,1.1,2.7,2.1,4.1,3.2c-0.5,1.2-1.4,1.6-2.5,2.3C457.8,309.1,457.2,307.4,457.1,305.3z"/>
	<path fill="#FFFFFF" d="M411.1,277.5c2.8,1.9,5,4.6,7.6,7.6c-2.7-0.1-2.9-2.4-4.1-3.5C413.3,280.4,412.2,278.8,411.1,277.5z"/>
	<path fill="#FFFFFF" d="M466,225.3c3-1.5,6.1-1.2,8.1-3.3C472.7,224.3,470.6,225.2,466,225.3z"/>
	<path fill="#FFFFFF" d="M364.9,265.3c-0.5-2,0.1-3.5,0.3-5.1C367.2,261.7,367.2,262.7,364.9,265.3z"/>
	<path fill="#FFFFFF" d="M460.9,290.2c3.9-1.4,4.6-1,5.5,2.7c-1.4-0.8-1.5-1-2.2-2.4C463.3,290.1,462.2,291.3,460.9,290.2z"/>
	<path fill="#FFFFFF" d="M427.8,243.4c0.1-2,1.6-2.9,2.7-4C430.6,241.4,429.4,242.5,427.8,243.4z"/>
	<path fill="#FFFFFF" d="M432.2,241.2c2.1,1.1,1.2,2.2,0.3,3.5C431.9,243.6,431,242.7,432.2,241.2z"/>
	<path fill="#FFFFFF" d="M376.4,401.1c-0.1-1.4,0.3-2.1,1.4-2.7C377.9,399.6,377.8,400.5,376.4,401.1z"/>
	<path fill="#FFFFFF" d="M434.7,218.4c0.4,0.6,0.8,1.1,1.3,1.7C434.1,219.9,434.1,219.9,434.7,218.4z"/>
	<path fill="#FFFFFF" d="M439.4,222.3c-0.3-0.9,0.1-1.2,0.6-1.6c0.6,0.1,0.9,0.6,0.7,1.2C440.5,222.4,440,222.5,439.4,222.3z"/>
	<path fill="#FFFFFF" d="M461.6,223.8c-1.4,0-2.1,0-2.9,0C459.5,223.5,460.2,222.9,461.6,223.8z"/>
	<path fill="#FFFFFF" d="M464.5,217.8c0.5,0,1-0.1,1.5-0.1c0.4,1.1-0.2,1.2-0.7,1.5C464.6,218.9,464.8,218.2,464.5,217.8
		L464.5,217.8z"/>
	<path fill="#FFFFFF" d="M464.6,217.8c0-0.8-1.5-0.7-1.1-1.9C465,215.9,464.4,217.1,464.6,217.8L464.6,217.8z"/>
	<path fill="#FFFFFF" d="M452.9,226.4c0.7-0.5,1-0.8,1.8-1.4C454.3,226,454.1,226.3,452.9,226.4z"/>
	<path fill="#FFFFFF" d="M450.7,229.3c-0.3,0.9-0.8,1.1-1.3,1.3C449.1,229.4,449.9,229.6,450.7,229.3z"/>
	<path fill="#FFFFFF" d="M425,230.1c-0.2,0.8-0.4,1.3-1.2,1C423.7,230.5,424,230.1,425,230.1z"/>
	<path fill="#FFFFFF" d="M427.6,248.2c0.7,0.4,1.2,0.6,0.9,1.3C427.8,249.6,427.6,249.2,427.6,248.2z"/>
	<path fill="#FFFFFF" d="M454,223.8c-0.5,0.2-0.7-0.1-0.7-0.6C453.7,223.2,454.1,223.2,454,223.8z"/>
	<path fill="#FFFFFF" d="M447.6,221.2c0.5,0.1,1,0.3,1,1.1C447.8,222.3,447.2,222.2,447.6,221.2z"/>
	<path fill="#FFFFFF" d="M346.5,219.2c-0.5-0.2-1-0.4-1.1-1.1c0.8-0.3,1.1,0.3,1.4,0.8C346.7,219,346.6,219.1,346.5,219.2z"/>
	<path fill="#FFFFFF" d="M788.5,302.7c-0.5-0.3-0.9-0.6-1.4-0.9c-0.2-1.1,1.5-0.5,1.4-1.5c-0.4-0.6-0.4-0.6-3.6,0.7
		c-0.8-0.6,0.6-1.2-0.1-1.9c-1.3-0.3-2.2,2.6-4,0.9c-0.4-1.1,0.4-2.1,0.8-3.4c5.7,1.5,11.2,3,16.8,4.5c0.9,0.2,0.9,0.8,0.6,1.6
		c-0.3,0.5-0.4,1.1,0.2,1.5c0.2,0.2,0.4,0.2,0.6,0.3c-0.4,0-0.6-0.3-0.9-0.5c-0.2-0.5,0-0.9,0.1-1.3c3.5-1.2,6.7,0.5,10.1,1.1
		c-0.3,0.8-0.8,1-1.5,1l-0.1-0.2l0.2,0.2c0,0.4,0,0.9,0,1.7c1.4-0.8,3.5,0.3,3.9-2.4c1.5,1-0.2,2.2,0.9,2.9c1.1-0.2,0.9-1.5,2.2-2
		c3.7,0.9,7.7,2.3,11.6,4.2c-0.3,0.9,0,2-1,2.5c-1.8-0.8,0.6-1.7-0.3-2.7c-1.1,0.5-1.7,1.8-3.6,1.7c2.3,1.7,4.6,2.2,6.5,3.3
		c1.5-0.6,0.3-2.6,2-3c-0.2,2.3-0.4,4.5-0.6,6.9c-0.8,0.7-1.6,1.5-2.5,2.3c1.4,0.6,2.5-0.6,3.9-0.1c-0.7,3.4-3.6,5.6-5.3,8.8
		c2.2-0.1,3.3-1.6,4.9-2.5c2.9,2.3,4.2,5.4,3.9,9c-0.2,2.5-2.3,3.4-4.4,3.7c-0.5,1.2,1.2,0.8,0.9,1.6c-1.4,4.2,0.5,7.5,2.2,11.2
		c2.5,5.6,3.6,11.5,2.1,17.8c-2.6,10.9-3.2,22-4.1,33.1c-0.7,7.8-1.9,12.3-4.5,16.2c-6.6-3.2-12.8-7.7-20.6-8.2
		c1.2-12.6,1.8-24.9,7.9-36.1c3.4,3.3,7.8,4.2,13.1,4.3c-2-1.6-4-1.7-5.8-2.4c-4.5-1.6-8.3-3.9-9.3-9.1c-0.3-1.4-1-2.5-2.4-3.1
		c-1.2,1.4,0,2.5,0.3,3.6c1.6,4.3,1.9,8.4-0.6,12.5c-2,3.3-2.5,7.1-3.1,10.8c-1,6.1-1.5,12.3-2,19.1c-14.9-4.6-30-6.5-45.7-6.5
		c0.8-7.8-0.4-15,1.5-22.1c0.7-2.6,0.7-5.4,0.8-8.2c0.1-1.8,0.1-3.6,0.6-5.4c0.6-1.9-0.8-3.2-1.9-4.8c1.6-2.7,3.2-5.6-0.6-8.9
		c2.8,0.4,4.8-1,6.1,1.4c-1.4,1.9-2.1,3.8-1.2,6.3c0.4,1.1,0.7,2.7,0.2,3.7c0.8-3.1-2.2-6.9,0.9-10c2.5-1.5,5.2,0.1,7.8-0.4
		c-2.3-2.5-7.7-3.6-13.9-2.7c-0.6-0.9-0.7-2-0.3-3c1.2-3.6,0.6-7.3,0-10.9c-1.1-6-0.7-12.2,0.7-17.7c1.7-6.7,5.4-12.9,9.6-18.5
		c2-2.7,5.1-3.2,8.3-2.2C780.4,301.5,784.4,302.2,788.5,302.7c0.3,0.2,0.6,0.3,1,0.3C789.1,302.9,788.8,302.9,788.5,302.7z"/>
	<path fill="#FFFFFF" d="M803.1,293.5c0.3,2.4,0.5,4.1,0.2,6c-8.7-1-16.9-3.9-25.5-5.4c2.5-6.2,5-12.2,5.6-19.1
		c7.3,2,14.5,3.5,21.9,4c-7-2.6-14.5-2.6-22-5.1c-0.3-11.2-2.2-22.4-0.9-34.1c6.8,1.5,13.6,3,20.1,0.4c4.8,1.3,8.9,5.3,14.2,2.4
		c-2-0.9-4.7,1.4-6.3-1.2c-1.3-2.3-4.8,1-5.5-2.6c2.9-1.6,5.8-3.4,8.3-6c1.5,0.7,2.7,2.1,4.5,1.5c-0.2-1.7-1.8-2.4-2.4-4.1
		c9.5-14.3,7.8-29.1,1-44c2.1-0.3,2.2-0.4,3.2,1.6c2.5,4.7,5,9.3,7.2,14.1c2.4,5.3,6.5,8.5,11.9,10.2c4.7,1.6,9.2-0.9,10.7-5.8
		c1-3.1-0.1-6.1-0.2-9.2c2.1,3.8,3.3,7.9,4.2,12c1,4.5,1.1,9.2,1,14c-0.2,7-2.5,13.1-6.7,18.6c-1.5,2-1.5,4.6-1.5,7
		c0,10.4-1.9,20.2-7.6,29.2c-3.7,5.7-6.2,12.1-8.4,18.5c-0.6,1.8-1,3.6-0.6,5.6c0.4,1.8-0.7,3.8-1.4,5.6c-0.8,0.3-1.3-0.1-1.8-0.7
		c0.9-3.6,1.9-7.2,0.6-11.1c-1,3.3-0.5,7-2.2,10.7c-6.1-3.2-12.7-4.6-19.4-5.8C805.1,298.1,805.6,295.5,803.1,293.5z"/>
	<path fill="#FFFFFF" d="M731.2,191.6c-2.7,2.1-5.9,1.6-8.9,1.9c-3,0.3-6,0.3-8.9,0.5c-3.7,0.3-6.9-1.8-10-3.3
		c-11.7-5.6-18-15.6-20.6-28c-0.8-3.8-1.8-7.6-0.5-11.6c0.3-1,0.3-2,1.3-3.1c9.2,2.7,18.5,5.5,27.9,8.3c1.4,0.4,1.9,2.1,3.5,2.5
		c1.5,0.4,2.6,0.3,3.9-0.5c2.8-1.8,3.9-4.6,3.7-7.7c-0.3-3.5-2.5-6-6.2-7.1c1.5-1,3-0.9,4.8-0.7c3.2-7.7,7.7-14.7,12.9-21.2
		c4.7,2.3,5.2,8.2,1,11.6c-3.5,2.8-7,5.7-10,8.9c-0.8,0.8-1.7,1.6-2,2.8c0,1.1,0.9,1.7,1.4,2.3c6.8-1.3,13.5-2.7,20.4-2.8
		c2.3,2.8,3.5,6.1,5.1,9.4c-2.7,0.6-4.9-0.1-7.2-0.8c-4.3-1.2-8.6-2.6-12.8-3.9c-1.6-0.5-3.3-1.1-5.2-0.3c0.7,4.3,1.9,9.4-3.2,11.4
		c-5.3,2.1-10.6,0.9-14.3-4.7c-0.4,4.6,2.3,6.6,7.7,7c9.6,0.8,12.3-3.6,12.4-11.7c4.7,1.4,9.4,2.8,14.1,4.2c2.4,0.7,4.9,1.1,7.5,1.2
		c1.4,0.1,2.8,0.1,3.8-1.8c-1.4-3.7-3.5-7.4-5.8-10.9c-1-1.6-3-1.4-4.8-1.3c-5,0.4-10,1.5-15,2.4c-0.4,0.1-0.8,0.3-1.4-0.1
		c3.1-3.4,6.4-6.5,10-9.4c6-4.9,4.6-8.6,2.2-13.4c-1.5-3.1-4.5-3.2-6.5-0.5c-4.5,6-8.8,12-11.4,19.2c-3.2-0.1-6.5-1.5-9.4,1.1
		c-7.7-2.5-15.4-4.9-23.5-7.5c1.7-3.6,3.3-7.2,6.1-9.6c7.1-6,14.3-11.8,23.7-14c6.2-1.5,11.8-0.5,17.4,1.6c5,1.8,8,6.4,12,9.6
		c0.4,0.4,0.9,0.8,1.5,1c-0.7-2.5-2.9-3.9-4.9-6c1.4,0,2,0.7,2.5,1.2c10.2,9.3,16.1,20.5,14.6,34.7c0,0.3-0.1,0.7-0.1,1
		c0.9,8.6-2.9,15.6-8,22c-2.2,2.8-3.6,6.2-6.2,8.7C741.9,188.5,736.7,190.5,731.2,191.6c0.7-2.2,3.1-1.9,4-2.6
		C734.4,189.6,732,189.4,731.2,191.6z"/>
	<path fill="#FFFFFF" d="M842.4,664.8c0.6,0.1,1.1,0.2,1.9,0.3c0.4,6.1,0.4,12.3,0.1,18.4c-2.6,1.1-4.9,1.6-7.4,1.3
		c-16.1-1.9-32.2-3.7-48.2-5.4c-15.9-1.7-31.4-5.2-47.2-7.2c-9.3-1.1-18.6-2.3-28-4.5c0.5-5.3,0.6-10.6,0.6-16
		c6.5-0.9,12.5,2.3,18.8,0.7c-2.8-0.4-5.6-0.7-8.4-1.1c4.1-0.4,8-0.5,11.9,1.8c4,2.4,8.9,2.1,13.4,2.5c7.1,0.7,14.1,1.4,21.4,2.5
		c1.2-26.2,2.9-52.3,1.7-79c6.1,0.3,11.6,0.6,16.7,0.9c1,1.4,0.7,2.5,0.6,3.5c-0.7,11.6-0.7,23.2-1.4,34.7c-0.5,7.2-0.6,14.4-1,21.6
		c-0.2,4.3,0.2,8.7-0.2,13.1c-0.1,1.1,0.1,2.3-0.6,3.3c-0.4,0.3,0.2,0-0.2,0.2c-0.1,0,0,0,0.2-0.2c2.6,0.2,5.2,0.4,7.8,1.1
		c6.7,1.6,13.6,1.4,20.3,3.1c7.3,1.9,14.9,1.9,22.4,2.9C839.3,663.7,841.1,663.7,842.4,664.8L842.4,664.8z"/>
	<path fill="#FFFFFF" d="M800.2,177.8c2.5-2,4.9-1.7,7.8,0.8c-0.3,0.9-1.7-0.2-1.8,1.4c0,0,0.2,0.3,0.6,0.3c3,0.7,5,2.6,6.6,5.1
		c7.2,12.1,8.5,24.8,4,38.1c-0.7,2.2-2.3,4.2-4.3,6c-1.5-4.3-6-6-7.4-10.4c-1.3-4.1-3.7-7.9-6.3-11.4c-2-2.9-4.5-5.2-7.9-6.5
		c4,2.4,4.3,6.8,5.9,10.5c-2.5,2.3-5.6,3.6-8.3,5.6c-2.6,1.9-5.1,3.9-7.1,6.5c-3.5,4.6-8.8,7-13.6,9.8c-5.2,3-10.3,6.4-16.4,8.4
		c-2.2-1.5-4.9-2-7.9-1.5c-1.7,0.3-3.2-0.7-3.7-2c-1.9-4.3-3.6-8.7-0.8-13.4c1-1.8,1.1-3.8,1.3-5.9c-1.5,0.2-1,1.6-2.2,2.1
		c0.6-4.1,0.9-8.1,3.2-11.5c5-7.1,9.7-14.3,12.6-22.4c0.5-1.5,2.3-1.9,2.3-3.9c-1.5-1.1-2.4-2.9-3.6-4.9c3.4-3.6,5.9-8,8-12.8
		c3.5,0.9,4.3-1.6,5-4c13.2,3.7,26,8.1,39.4,12.3c-5.1,1.1-9.5,2.1-13.9,3.1c-1.6,0.4-3.1,0.4-4.7-0.1c-4.5-1.4-9-2.7-13.5-4
		c-1.2-0.3-2-0.8-2.6-1.9c-2.2-3.6-3.2-4-8-3.3c0.9,1.9,2.7,0,3.9,1s2,2.1,2.7,3.8c-4.3,3.8-4.2,9.3-5.1,14.4
		c-1.5,8.8-3.1,17.7-1.6,26.7c0.4,2.6-0.1,5.3-0.5,8.2c1.8-0.1,1.8,1.8,3.7,2.8c-3.3-6.8,0.4-13.3-1.8-19.4c2.7-3.6,7-4.4,10-7.2
		c-1.2-1.1-2.2,0.3-3.3,0.2C771.8,188.8,787.4,177.9,800.2,177.8c0.8,0.5,1.7,0.4,2.5,0.8C801.9,178.2,801,178.3,800.2,177.8z"/>
	<path fill="#FFFFFF" d="M822.9,560.5c0.4,0.8,0.9,1.5,2,1.7c5.8,0.7,11.6,1.8,17.4,1.8c6.3,0,12.6,0.9,18.9,1.1
		c7.1,0.2,14.1,0.6,21.2,0.9c0.8,0,1.6,0,2.4,0.6c-0.3,3-0.2,6.1,0.2,9.5c-6.9,0.9-13.3,3.5-20.1,4.2c-3.8,0.4-7.5,1.3-11.2,1.8
		c-4.1,0.6-8.2,0.8-12.2-0.5c-0.2-0.1-0.5-0.2-0.6-0.2c-7.5,1.9-15,0.1-22.5-0.4c-4-0.3-8-0.4-12-0.4c-4.7-0.1-9.3,0-14-1.2
		c-5.3-1.5-11-0.9-16.4-1.4c-9-0.8-18-1.5-27-2.7c-9.7-1.2-19.4-2.1-29.1-2.4c-2-0.1-4-0.3-6.3-0.5c0.2-4.4,0.9-8.5,1.5-12.9
		c5.2,0,10.3-0.1,15.4,0c4.3,0.1,8.5-0.4,12.7-0.9c3.3-0.4,6.5-1.1,9.6,0.9c1,0.7,2.5,0.5,3.7,0.4c2.8-0.2,5.5,0,8.2,0.6
		c3,0.7,6.2,0.3,9.2-0.2c6.8-1,13.4-0.1,20.1,0.6c7.1,0.8,14.2,0.7,21.3,1.6C818,562.9,820.4,561.3,822.9,560.5L822.9,560.5z"/>
	<path fill="#FFFFFF" d="M914.1,181.2c5.8,6.6,8.8,14.1,6.7,23c-0.4,1.8-0.9,3.6-1.1,5.4c-1.4,9-7,15.3-13.4,21
		c-0.6,0.5-1.2,1.1-1.9,1.4c-7.4,3.2-15,5.7-23,4c-6.8-1.5-13.5-4-17.3-11.2c5.4-5.7,12.9-10.7,8.1-20.5c1.8-0.4,1.7,0.7,2,1.5
		c2.5,7.3,9.5,8.8,14.7,3.1c3.5-3.7,4.8-7.9,3.6-13c-0.6-2.6-2.1-4.2-4.7-4.9c-4.8-1.4-8.2-0.4-11.4,3.6c-1.4-0.4-2.9-0.9-4.4-1.4
		c-1-1.5-1.5-3.2-2.6-4.4c-1.6-0.5-3.2-0.8-4.6-1.6c-1.4-0.7-2.8-0.9-4.5-0.9c1-3.7,4.3-5.2,6.4-7.8c2.8-3.4,6.3-6.3,10.2-8.1
		c5.3-2.5,11-4.3,17.1-1.8c4.1,1.7,8.9,2,11.6,6.3c0.3,0.5,0.9,0.7,1.4,1c0.2,0.1,0.4,0.1,0.8,0.2c0.2-1.2-1.4-1.3-1.3-2.5
		C909.6,175.8,912.8,177.6,914.1,181.2c-1,1,0.3,1.7,0.3,2.4C914.2,182.8,913.2,182.2,914.1,181.2z"/>
	<path fill="#FFFFFF" d="M837.2,146c0.9-1.1,2-1.9,3.6,0c-2.6-4.3-0.4-7.1,2-9.8c2.2-2.5,4.9-4.5,7.7-6.4c1.4-1,3-1.7,3.4-3.6
		c2.3,0.1,4.4,1.5,6-1.4c0.7-1.2,3.1-0.6,4.3,0.8c0.4,2.3,0.5,4.4,1.1,6.5c0.6,2.2,1.1,4.1-0.8,6.1c-1,1-0.4,2.4,0,3.6
		c0.7,1.8,1.5,3.6,2.2,5.4c0.4,1.1,0.8,2.2-0.2,3.4c-1.6,0.1-3.2-0.1-5-1.1c-0.8,2.5,0.9,2.9,2.6,3c0.6,1.7,0.5,2.8-1.3,3.4
		c-1,0.4-2.6-0.1-3.1,1.5c1.1,1.4,2.2-0.5,3.8,0.4c-1.6,2.8-0.9,6.2-2,9.2c-0.7,1.7-3,1.3-4.7,1.3c-1.4,0-2.7-0.2-4.1-0.2
		c-4.5,0.3-8.4,3.1-9.3,7.4c-1.1,5.1-1.5,10.2,2.1,14.8c1-1-0.5-2.1,0.2-3.1c4.5,0.5,14.9,4.2,18.4,6.6c2.2-0.2,2.2-2,2.7-3.7
		c0.3,1.2,0.5,2.3,0.8,3.4c-0.3,1.2-1.8,0.4-2.2,1.6c1.6,1.7,2.8-0.1,4.4-0.7c4.6,1.5,9.5,3.1,14.2,4.5c0.7,1.5,0.8,2.7,0.7,3.9
		c-1.1,1.5-2.6,1.7-4.1,1.4c-3.4-0.8-7-0.8-9.7-3.8c-1-1.1-2.8-1.6-4.2-2.2c-2-0.8-4-1.4-5.6-3.1c-1.2-1.3-3.2-1.2-4.9-1.1
		c-2.1,0.2-4.1,0.3-6,0.1c-1.4-1.1-1.5-3.2-3.7-4.4c0.6,3.5,1,6.6,1.5,9.6c0.3,1.9,0.4,3.8,0.1,5.8c-0.4,2.2-1.5,3.4-3.8,3.7
		c-0.8-1.4-0.2-3.1-1.4-4.3c-1.1,1.6,0.2,3.5-0.8,5.6c-4.9-1.2-9.4-2.7-12.3-7.5c-3.2-5.2-5-11-7.9-16.6c4.7,0.4,8.3,3.8,12.9,4.2
		c-3.7-2.4-7.5-4.7-11.8-5.7c-2.5-0.6-4.3-1.7-6-3.5c-1.8-1.9-4-3.5-6.5-5.7c7.7-4.3,11-10.7,13-18.1c0.3,0.1,0.6,0.2,0.9,0.4
		c0.4,4.3,0.8,8.6,1.2,12.9c0.3,0,0.7,0,1,0c0-2.7,0.2-5.3-0.1-8c-0.5-4.3-0.9-8.4,2.4-12.1c1.6,1.3,3.3,2.9,6,2.5
		c-0.1,3.1,1.4,5.2,4.3,6.5c-1.4-2.2-2.2-4.5-2.9-6.9c-0.2-0.8-1-2.1-2.2-1.5c-1.7,0.8-2.7-0.5-3.6-1.3c-1.6-1.5-3-3.4-4.6-5.2
		c1.1-0.3,1.2,1,2.1,0.9c1.1-0.7-1.2-1.9,0.3-2.5c4.2,5.7,4.2,5.7,6.6,3.5c-0.1-1.6-2.2-1.3-2.4-2.5c-0.2-1.5,1.3-1,1.8-1.8
		c-0.3-1.3-1.8-1.9-2.3-3.3C836.2,139.3,834.9,143.9,837.2,146z"/>
	<path fill="#FFFFFF" d="M785,525.2c2.6,2,1.7,4.2,2.1,5.8c-0.8,1.5-2.6,1.7-2.8,3.4c1.8,1.1,3.5-1.2,5.5,0
		c-1.3,1.2-3.3,1.4-3.9,3.3c1.3,0.8,2.7,0,4,0.3c0.7,0.6-0.4,1.2,0.2,2.1c1.7,1.2,3.3-0.1,5.1-1.1c-0.2,1.2-1.4,1.6-1.2,2.7
		c1.2,0.9,2.3-0.1,3.5-0.1c1,0.5-0.7,1.6,0.5,2.2c1.8,0.4,3.8,1.2,5.8,0c0.6,0.7-0.2,1.8,0.8,2.3c1,0.2,0.9-0.9,1.6-1.3
		c4,1.7,8.4,2.7,12.8,3.1c1.1,0.1,2.2,0.5,3.4,0.8c3.1,0.7,5.1,2.5,5.2,6.3c-2.5,1.6-5.2,3.3-7.9,4.9c-1.2,0.7-2.6,1-4,0.7
		c-7.2-1.9-14.6-1.3-21.9-1.9c-0.3,0-0.7,0.1-1-0.1c-8.8-3.2-17.7,0.4-26.4-0.3c-4.9-0.4-10,0.2-15.3-1.2c4-7,6.1-14.2,6.5-22.8
		c2.2,3.5,4.6,5.4,8.2,4.8c4.7-0.9,9.4-1.7,12.4-5.8C780.4,530.1,783.5,528.5,785,525.2z"/>
	<path fill="#FFFFFF" d="M698.8,511.6c0.7,1.1,0.6,2.1-0.1,3.4c-2.8-1.3-5.5-3.3-9.2-3.4c1.3,2.2,3.3,3.1,5.3,4.3
		c-1.4,0.4-2.5-0.8-3.5,0.2c2.2,3.3,7.3,3.1,9.4,7.5c-3.2-1-5.1-3.5-8.2-3c0,1.5,1.5,1.8,2,2.8c-0.2,0.6-1.1,0-1.2,1
		c2.2,1.4,4.3,3,4.3,6.3c0,1.3,2.1,1.9,3.8,2.4c0.2,4.7,1.8,8.9,4.9,12.6c1.8,2.1,0.4,3.9-0.7,5.6c-1.1,1.6-4,2.2-5.9,1.2
		c-1.5-0.8-3.1-1.6-4.3-2.8c-6.5-6.5-14.5-11.3-20.1-18.7c-5.8-7.6-14.4-12.8-18.1-22.4c6.5-4.5,13.6-8.5,19.2-14.7
		c0.7,0.8-0.1,1.5-0.4,2.1c-1.4,3.7-0.5,5.9,3.2,7.2c1.3,0.5,2.6,0.7,4,1c2.6,0.4,5.3,0.4,7.4,1.9c2.6-0.4,3.2-3.7,5.8-3.5
		c1.1,0.1,1.9,0.8,2.8,1.6C698.8,506.7,698.6,509.2,698.8,511.6c-2.4,1-3.6-1.3-4.9-1.7C695.1,510.4,696.4,512.5,698.8,511.6z"/>
	<path fill="#FFFFFF" d="M670.2,130.6c8.5,2.7,16.5,5.3,24.6,7.9c7.3,2.4,14.7,4.5,21.9,7.2c5.2,2,5.9,7.1,1.2,10.8
		c-5.4-1.6-11-3.3-16.6-4.9c-12.1-3.4-24.1-7.5-36.4-10.4c-3-0.7-4.7-2.7-4.8-5.2c-0.2-3.6,1.6-5.4,6-5.8c4.2,3.8,4.3,6.9,0.3,10
		C670.3,140.3,671.3,137.9,670.2,130.6z"/>
	<path fill="#FFFFFF" d="M800,219.5c-1.9-0.5-3.4-1.5-5.6-0.5c2.5,1.1,4.6,2.1,6.9,3.2c1,1.1,0.9,2.7,0.9,4.3c0,1.5,0.1,3,0.2,4.6
		c1.7-0.6,0.9-2.3,1.8-3.4c1.6,1.9,4.2,2.6,5.7,4.8c-2.1,2-4.6,3-6.8,4.3c-0.9,0-1.1-1-2.1-0.7c-0.9,0.7-0.6,2.4-2.4,2.9
		c-2.3,0.6-4.5,1.6-7,0.5c-0.7-0.3-1.5-0.4-2.3-0.5c-5.4-0.6-9.6-2.5-9.3-9.4c5.6-5,10.8-11.3,17.9-15.8
		C798.8,215.7,799.7,217.3,800,219.5z"/>
	<path fill="#FFFFFF" d="M855.6,231.2c2.3-6.2,1.1-12.7,1.7-19.3c3.2-1.6,3.4-6.2,7.5-7.6c-2.7-0.7-2.7-0.7-4.2,1
		c-2.6-3.2-8.5-3-8.5-8.6c4.9-1.8,6.6-1.4,10.4,2.8c4.1-0.1,7,1.6,8.4,6c1.4,4.5,1.5,8.4-2.4,11.9
		C863.8,221.6,859.9,226.6,855.6,231.2z"/>
	<path fill="#FFFFFF" d="M764.7,201.3c-0.6-1.4,0-2.5,0.2-3.7c1.2-5.7,2.3-11.4,2.5-17.3c0.1-2.4,1.8-4.4,4-6.1
		c4.5,1.3,9.2,2.7,14.6,4.3c-3.2,1.9-5.9,3.7-8.5,5.7c-4.1,3.3-6.5,7.7-8.5,12.4C768.2,198.8,766.8,200.2,764.7,201.3z"/>
	<path fill="#FFFFFF" d="M876.3,205.6c1.8-0.4,3.2,0.5,4.6,0.7c2.6,0.4,5.1-1.1,5.6-3.4c0.5-2.2-0.9-5-3-5.8
		c-1.7-0.6-3.4-1.2-5.4-1.8c2.9-3.4,6.6-2.3,9.7-1.8c2.4,0.3,2.9,3,3.3,5.2c0.7,5.1-2.8,10.6-7.7,12.1
		C880.3,211.6,877.9,210,876.3,205.6z"/>
	<path fill="#FFFFFF" d="M780,527.6c-3.7,4.7-8.1,8.4-14.3,9.3c-2.1,0.3-3.9-0.3-4.9-2.8c2.8-0.7,2.9-3.3,3.3-5.5
		c5.4-0.6,10.4-1.1,15.5-1.7C779.7,527.2,779.9,527.4,780,527.6z"/>
	<path fill="#FFFFFF" d="M683.1,491.4c2.7,4.2,6.8,6.6,11,9c-1.3,0.9-2.5,1.7-4.1,2.7c-3.2-1.5-8.8,0.3-12.3-4.1
		C678,495.6,680.1,493.4,683.1,491.4z"/>
	<path fill="#FFFFFF" d="M743.6,653.3c8.8-0.4,17.4,1.9,26.2,2.6C761.1,655.3,752.4,654.4,743.6,653.3z"/>
	<path fill="#FFFFFF" d="M920.3,216c0.4-1.8,1.2-3.1,2.2-4.3c3.1,1.2,3.5,2.6,1.3,5.5C922.6,217.3,921.4,216.9,920.3,216z"/>
	<path fill="#FFFFFF" d="M856.5,209.4c-0.6-1.7-1.1-3.3-1.9-5.4c2.2,0.8,3.2,2.3,4.8,3.2C858.6,208.3,857.8,209.1,856.5,209.4z"/>
	<path fill="#FFFFFF" d="M864.6,192.2c-1.6-0.8-2.1-1.9-2.2-3.2c-1.3,0.3-2.3,0.7-3.4,0.1C862.1,187,863.7,187.9,864.6,192.2z"/>
	<path fill="#FFFFFF" d="M762.7,163.9c-0.5-2,0.7-3.6,0.6-5.4C765.2,161.5,765.1,162.1,762.7,163.9z"/>
	<path fill="#FFFFFF" d="M829.3,137.3c-0.8,1.8-1.1,4-3.4,5C825.8,139.7,828.1,138.8,829.3,137.3z"/>
	<path fill="#FFFFFF" d="M830.4,139.9c1.9,1,1.3,2.1,0.2,3.5C829.7,142.2,828.9,141.2,830.4,139.9z"/>
	<path fill="#FFFFFF" d="M864.7,123.7c2-0.6,4-1.1,5.9-1.7c-1.7,1.4-3.7,1.9-5.7,2.4C864.9,124.1,864.8,123.9,864.7,123.7z"/>
	<path fill="#FFFFFF" d="M777.4,296.8c-0.7,0.8-0.6,2.1-2.1,2.2c-1.1-1.1-0.1-1.9,0.3-2.8C776.5,295.8,776.9,296.4,777.4,296.8z"/>
	<path fill="#FFFFFF" d="M816.9,184c-2.7-0.3-2.8-2.5-4-3.6C814.5,181,815.5,182.3,816.9,184z"/>
	<path fill="#FFFFFF" d="M849.6,127.7c-1,1-1.7,1.5-2.5,1.7c-0.5-0.4-0.1-0.6,0.1-0.8C847.7,128.2,848.4,127.9,849.6,127.7z"/>
	<path fill="#FFFFFF" d="M838.2,119c0.8,1.8,0.5,2.3-0.7,2.1C836.9,120.1,837.7,120,838.2,119z"/>
	<path fill="#FFFFFF" d="M779.1,296.6c0.6,1.3-0.3,1.9-0.4,3.1C777.9,298.2,778.9,297.6,779.1,296.6z"/>
	<path fill="#FFFFFF" d="M832.3,117.3c1.1,0.2,1.3,1,1.7,2C832.8,118.9,831.8,118.9,832.3,117.3z"/>
	<path fill="#FFFFFF" d="M858.9,122.1c-0.8,0.5-1.7,0.5-2.6,0.2C857.1,121.8,858,122.2,858.9,122.1z"/>
	<path fill="#FFFFFF" d="M847.7,121.7c-1.4,0.1-1.8-0.7-2.6-1.7C846.5,120.1,847,120.8,847.7,121.7z"/>
	<path fill="#FFFFFF" d="M808.8,176.5c1-0.2,1.3,0.3,1.6,0.9C809.4,177.9,809.2,176.9,808.8,176.5z"/>
	<path fill="#FFFFFF" d="M864.3,116.6c-0.1,0.9-0.4,1.2-0.9,1.1c-0.2,0-0.5-0.5-0.4-0.7C863.1,116.3,863.7,116.5,864.3,116.6z"/>
	<path fill="#FFFFFF" d="M822.7,128.9c0.2,0.5,0.1,0.8-0.2,1s-0.6,0-0.6-0.4C821.9,129.2,822.1,128.9,822.7,128.9z"/>
	<path fill="#FFFFFF" d="M837.9,130.7c-0.1,0.2-0.1,0.4-0.3,0.5c-0.1,0.1-0.3-0.1-0.5-0.2c0.1-0.2,0.1-0.4,0.2-0.5
		C837.5,130.5,837.7,130.6,837.9,130.7z"/>
	<path fill="#FFFFFF" d="M830.6,136.1c-0.7-0.1-0.9-0.4-0.5-0.9C830.9,135.1,830.7,135.7,830.6,136.1z"/>
	<path fill="#FFFFFF" d="M825.8,147c0.7,0.5,0.9,0.8,0.5,1.3C825.7,148.1,825.8,147.7,825.8,147z"/>
	<path d="M451.4,645.4c2,0.3,4.1,0.2,5.9,1.5C455.2,647.2,453.2,646.8,451.4,645.4L451.4,645.4z"/>
	<path d="M431.9,384.6c-2.4,4.3-1.5,9-2.4,13.4c-0.4,2.1-0.8,4.2-2.5,6C427,397.5,429.6,386.6,431.9,384.6z"/>
	<path d="M427.2,338.2c-3.9,0.7-5.4-0.5-5.3-4C424.7,334.2,425.4,336.7,427.2,338.2z"/>
	<path d="M405.4,395.3c2.3,3.2,2.4,4.6,0.6,7C404.7,400,405.7,397.6,405.4,395.3z"/>
	<path d="M445,336.1c-0.6,1.7-1.5,3-3.7,3.7C441.5,337.2,443.8,337.2,445,336.1z"/>
	<path d="M398.9,352.4c-1.1-0.6-2.7-0.4-3.6-2.8c1.8,0.9,2.9,1.5,4,2.1C399.1,351.9,399,352.1,398.9,352.4z"/>
	<path d="M403.2,389.5c1.4,0.8,2,1.9,1.1,3.3C402.6,392,403.3,390.6,403.2,389.5z"/>
	<path d="M435.4,339.7c-1,0-2.3,0.4-3-1C433.8,337.6,434.5,339,435.4,339.7z"/>
	<path d="M401.4,346.2c-1.7-0.6-2.5-1.2-2.3-2.9C400.6,343.5,400.9,344.6,401.4,346.2z"/>
	<path d="M403.2,346.7c1.5-0.1,2.2,0.3,2.4,1.7C404.4,348.5,403.6,348.2,403.2,346.7z"/>
	<path d="M425.8,329.6c1.4-0.3,2-0.1,2.2,1C426.9,331.3,426.5,330.5,425.8,329.6z"/>
	<path d="M407,348.4c1.1-0.6,1.6-0.1,2.1,0.7C408.2,349.6,407.6,349.5,407,348.4z"/>
	<path d="M442.2,351.3c-0.3-0.9,0.1-1.2,0.6-1.6C443.3,350.4,442.9,350.8,442.2,351.3z"/>
	<path d="M398.5,372.1c0.7,0.1,1.5,0.2,2.5,0.3C399.9,372.8,399.2,372.7,398.5,372.1L398.5,372.1z"/>
	<path d="M404.2,377.3C403.8,377.3,404,377.3,404.2,377.3C404,377.3,403.8,377.3,404.2,377.3z"/>
	<path d="M435.5,376.5c-0.2,0.3-0.5,0.6-0.8,1C434.3,376.7,434.8,376.5,435.5,376.5z"/>
	<path d="M398.6,372c-0.6,0-1.2,0.2-1.8-0.2C397.5,371.4,398,371.7,398.6,372L398.6,372z"/>
	<path d="M391.8,370.4c0.3-0.2,0.6-0.2,0.9,0.1C392.4,370.7,392.1,370.7,391.8,370.4z"/>
	<path d="M357.8,255.6c-0.3,4.5-1.9,8.7-3.4,12.8c-0.2-0.1-0.5-0.1-0.7-0.2c1.1-4.2,2.1-8.5,3.2-12.7
		C357.2,255.5,357.5,255.6,357.8,255.6z"/>
	<path d="M335,292.1c-1.1-0.3-2.1,0.9-3.4,0.3c3.4-2.6,7.6-3.5,10.9-6.9c0.3,2.4-1.3,2.8-2.4,3.6C338.5,290.5,336.2,290.6,335,292.1
		L335,292.1z"/>
	<path d="M345.4,281.9c2.4-2.9,4.8-5.7,7.5-8.9C352.6,276,349.1,280.1,345.4,281.9z"/>
	<path d="M357.3,237.4c-1.8-2.2-2.1-4.8-2.5-7.5C356.7,232,356.5,234.9,357.3,237.4z"/>
	<path d="M357.2,248.3c0.2-2.5,0.4-5.1,0.6-7.6C358.5,243.3,358.7,245.9,357.2,248.3z"/>
	<path d="M497.4,663.7c9.1-0.5,18.1,1.7,27.1,2.2C515.5,666,506.5,664.5,497.4,663.7z"/>
	<path d="M475.9,660.9c5.1,0,10.1,0.6,15,1.6C485.9,662.3,480.9,662,475.9,660.9z"/>
	<path d="M529.2,674.2c0.7,1.9,0.4,3.8-0.4,5.5C527.7,677.9,528,676,529.2,674.2z"/>
	<path d="M473.4,617.3c-0.3,2.6-0.5,5.3-0.9,8.8C472.4,622.5,472.1,619.8,473.4,617.3z"/>
	<path d="M529.9,671c-1.3-1.6-1.3-2.6-0.7-3.9C530.8,668.2,530,669.4,529.9,671z"/>
	<path d="M528.5,665.7c0.7-0.5,1.2-0.3,1.8-0.1C529.6,666.5,529.1,666.3,528.5,665.7z"/>
	<path d="M476.5,657.2c-0.6,0.4-1.2,1-2.3,1C474.7,656.7,475.6,657,476.5,657.2L476.5,657.2z"/>
	<path d="M473.2,609c0-0.2,0.1-0.4,0.1-0.5l0,0C473.3,608.6,473.3,608.8,473.2,609L473.2,609z"/>
	<path d="M391.9,311.9c-1.2,3.2-3.3,5.7-6.2,7.6C387.3,316.6,389.1,313.9,391.9,311.9z"/>
	<path d="M361.5,297.6c0.2,3.2-1.3,6.1-2,9.2C359.2,303.5,360.8,300.6,361.5,297.6z"/>
	<path d="M361.8,272.3c2.7,1.1,2.7,3.5,3.7,5.2C363.3,276.6,362.4,274.8,361.8,272.3z"/>
	<path d="M383.1,292.6c-0.5,2-1.5,3.7-3.6,5.4C379.7,295.1,381.5,293.9,383.1,292.6z"/>
	<path d="M364.6,284.2c0.7,2-0.4,3.4-1.2,5.3C362.9,286.7,362.9,286.5,364.6,284.2z"/>
	<path d="M358.4,331.2c-0.4,1.5-0.8,3-1.1,4.6C356.5,334,356.5,332.3,358.4,331.2z"/>
	<path d="M349.5,339.1c1.9,0.2,3.7,0.4,5.6,0.6C353.1,340.5,351.2,340.4,349.5,339.1L349.5,339.1z"/>
	<path d="M382.1,298.5c-0.9,0.6-1.7,1.5-3.3,0.6C379.9,297.9,381,297.9,382.1,298.5z"/>
	<path d="M383.5,322.1c-0.7,1.9-1.8,2-3.2,2.2C380.9,322.8,381.8,322.4,383.5,322.1z"/>
	<path d="M351.8,332c1.5,0.6,2.6,0.4,3.2,1.8C353.6,334.2,352.8,333.6,351.8,332z"/>
	<path d="M363.5,324.5c0.4,1.3-0.2,1.8-0.8,2.3C361.9,325.8,362.7,325.3,363.5,324.5z"/>
	<path d="M362.9,292.3c0.5,1.1-0.3,1.6-0.7,2.2C362,293.7,361.9,293,362.9,292.3z"/>
	<path d="M349.5,339c-1.1,0.1-1.9-0.4-2.3-1.8C348.4,337.5,348.9,338.3,349.5,339L349.5,339z"/>
	<path d="M346.1,311.1c0-0.6,0.3-1,1-1.1C347.3,310.9,347.2,311.4,346.1,311.1z"/>
	<path d="M345.1,315.6c0.1,0.6-0.2,1-0.8,1.1C343.8,315.7,344,315.3,345.1,315.6z"/>
	<path d="M360.1,328.3c-0.4-0.8-0.4-1.3,0.2-1.6C360.7,327.2,360.6,327.6,360.1,328.3z"/>
	<path d="M378.3,325.4c0.1,0.7-0.1,1.1-0.7,1c-0.2,0-0.4-0.2-0.4-0.3C377.2,325.6,377.6,325.4,378.3,325.4z"/>
	<path d="M392.7,308.9c0.3,1.1,0,1.3-0.5,1.4C391.4,309.6,392.2,309.4,392.7,308.9z"/>
	<path d="M393.2,285.5c-0.1,0.5-0.6,0.6-1,0.6C392.4,285.5,392.4,285.5,393.2,285.5z"/>
	<path d="M485.8,447.6c1.3-1.5,2.8-2.4,4.6-2.7c1.7-0.3,3.4-0.6,5-1.1c1.9-0.6,3.9-0.9,4.8-3.3c0.4-1,1.8-2.3,3.6-2.1
		C500.5,444.2,494.7,448.7,485.8,447.6z"/>
	<path d="M494.6,463.3c3.3,4.2-1.4,18.6-7.5,22.7C491.6,479.1,495,471.8,494.6,463.3z"/>
	<path d="M495.9,455.7c-2-1.1-4.1-0.7-5.1-2.8C493,451.6,493.9,452.1,495.9,455.7z"/>
	<path d="M503.9,454c2.4,1.1,3.1,2.4,3.1,4.7C505.2,457.6,504.2,456.5,503.9,454z"/>
	<path d="M466.5,514.6c0.8,2.3,1.4,4,0.4,5.8C465.6,518.2,465.5,517.9,466.5,514.6z"/>
	<path d="M482.8,490.4c0.9-1.4,2-2.2,3.4-3C485.7,489.6,485.7,489.6,482.8,490.4z"/>
	<path d="M475.1,450.2c1.7-1.5,2.8-1.8,4.2-1.1C478.4,450.8,477.2,450.5,475.1,450.2z"/>
	<path d="M506,463.8c0.1-1.3-0.3-2.6,0.5-3.9C507.3,461.5,507.3,461.5,506,463.8z"/>
	<path d="M466.4,509.2c1.1,1.3,0.8,2.1,0,3.2C465.7,511.3,466.1,510.4,466.4,509.2z"/>
	<path d="M512.8,438.7c-1.3-0.5-1.4-1.4-1.5-2.2c0.3-0.2,0.6-0.4,0.7-0.3C513.4,436.5,513.2,437.5,512.8,438.7z"/>
	<path d="M472.1,450.5c-0.5,1.5-1.4,1.2-2.5,0.9C470.2,450,471.1,450.1,472.1,450.5z"/>
	<path d="M482.3,435.1c1.3-0.6,1.9-0.2,2.3,0.8C483.6,436.6,482.9,436.3,482.3,435.1z"/>
	<path d="M511.4,443.6c0.3,1.2,0.1,1.9-1.2,2.5C510.1,444.9,510.2,444.2,511.4,443.6z"/>
	<path d="M478.1,433.3c0.8-0.2,1.1,0.1,1.4,0.7C478.8,434.3,478.4,434.4,478.1,433.3z"/>
	<path d="M478.9,493.5c0.2-1,0.6-1.3,1.4-1.2C480.5,493.3,480,493.5,478.9,493.5z"/>
	<path d="M475.4,515.2c0.3,0.5,0.4,0.9-0.1,1.4C474.8,516.1,475,515.7,475.4,515.2z"/>
	<path d="M486.9,436.8c0.3-0.4,0.7-0.5,1.1,0c0.2,0.3,0.1,0.7-0.2,0.8C487.3,437.6,487,437.3,486.9,436.8z"/>
	<path d="M498.2,568.9c9.2,0.1,18.3,1.3,27.4,1.8C516.4,571.1,507.3,570.7,498.2,568.9z"/>
	<path d="M475,568.4c-5.6,0.5-11.2,0.1-16.7-1.8C463.8,567.2,469.4,567.8,475,568.4z"/>
	<path d="M560.7,567.7c-2.8,1.5-5.8,0.8-8.7,0.6C554.7,567,557.7,567.9,560.7,567.7z"/>
	<path d="M438.5,564.9c-3.8,0.8-7.4-0.3-11.1-0.6C431.2,563.6,434.8,565.1,438.5,564.9z"/>
	<path d="M441.9,565.4c2.6-0.2,5.2-0.4,8.4-0.6C447.2,566.2,444.5,565.8,441.9,565.4z"/>
	<path d="M531,571.6c1.9-1.6,3.5-1.6,5.2-1.1C534.9,571.8,533.3,571.7,531,571.6z"/>
	<path d="M480.6,568.3c1.8,0,3.5,0,5.3,0c0,0.1,0,0.2,0,0.2c-1.8,0-3.6,0-5.4,0C480.5,568.5,480.6,568.4,480.6,568.3z"/>
	<path d="M539.7,570.7c1.2-0.9,2.5-0.5,4.3-0.3C542.3,571.2,541,570.9,539.7,570.7z"/>
	<path d="M529.7,576.4c0.8,1,0.7,1.7-0.2,2.6C528.7,578,528.7,577.2,529.7,576.4z"/>
	<path d="M529.9,573.9c-0.5-1.2-0.9-1.9-0.1-3C530.5,571.9,530.5,572.6,529.9,573.9z"/>
	<path d="M414.7,562.1c0.4-0.2,0.8-0.2,1.2,0C415.5,562.4,415.1,562.4,414.7,562.1z"/>
	<path d="M520.2,296.2c-0.7-2.2-1.3-3.6-0.8-5.3C520.3,292.4,520.6,294,520.2,296.2z"/>
	<path d="M520,302.2c0.4,1.7,0.6,3.3-0.6,5.3C519.7,305.3,519.9,303.7,520,302.2z"/>
	<path d="M511.5,326.8c0.8-1.8,1.6-2.5,2.8-3.7C513.8,324.8,512.9,325.6,511.5,326.8z"/>
	<path d="M515,282.5c1.4,0.7,1.4,2.1,1.8,3.3C515.8,285,515.3,283.8,515,282.5L515,282.5z"/>
	<path d="M515,282.5c-0.9-0.3-1.3-1-1.6-1.9c0.8-0.6,1,0.8,1.7,0.5L515,281C515,281.5,515,282,515,282.5L515,282.5z"/>
	<path d="M365.1,561.8c2.2,9-1.6,17-2.8,25.3C360.8,585.6,362.3,571.2,365.1,561.8z"/>
	<path d="M360.3,587.5c0.5,1.8-3.4,19-4.9,22.3C354.8,606.8,357.5,594.1,360.3,587.5z"/>
	<path d="M367.1,549.6c-2.1-3.1-3.5-6.4-3.2-10.2C366.6,542.3,366.1,546.2,367.1,549.6z"/>
	<path d="M377.8,546.4c-1.9-3.4-1.3-6.1,1.9-8.2C378.2,540.8,379.1,543.5,377.8,546.4z"/>
	<path d="M379.7,536.8c-0.1-2.1,0.4-3.7,1.4-5.3C382.3,533.5,382.3,533.5,379.7,536.8z"/>
	<path d="M359.8,536.1c0.5-1.1,0.7-1.6,0.9-1.9c0.2-0.2,0.5-0.4,0.9-0.7c0.2,1.3,0,2.5,0.7,3.5C360.9,537.5,361.2,535.7,359.8,536.1
		z"/>
	<path d="M368.4,556.2c-0.5-2-1.4-3.2-0.9-5.1C368.9,552.6,369.6,553.9,368.4,556.2z"/>
	<path d="M356.7,558.7c-0.6-1-0.4-1.7,0.5-2.4C358.2,557.4,357.5,558.1,356.7,558.7z"/>
	<path d="M375.6,553.1c-1.3-0.8-1.5-1.7-1.6-3.2C375.3,550.7,375.8,551.5,375.6,553.1z"/>
	<path d="M380.8,529.9c-0.8-1.5,0.1-2.3,1.1-3.2C381.9,528.4,381.9,528.4,380.8,529.9z"/>
	<path d="M365.5,557.7c-1-0.7-0.8-1.4-0.6-2C365.6,556.4,365.6,556.4,365.5,557.7z"/>
	<path d="M370.4,545.4c-1-0.4-1.5-0.7-1.5-1.7C369.9,543.7,370.3,544.3,370.4,545.4z"/>
	<path d="M358.7,549.5c-1.1-1-0.5-1.5-0.1-2.1C359.6,548.1,359,548.6,358.7,549.5z"/>
	<path d="M369.6,557.7c0.6,0.8,0.7,1.4,0.1,2.1C369,559.2,368.8,558.6,369.6,557.7z"/>
	<path d="M363.5,527.3c0.2-0.9,0.3-1.5,0.4-2c0.9-0.1,0.7,0.5,0.7,0.8C364.6,526.6,364.5,527,363.5,527.3z"/>
	<path d="M378.3,547.4c0,0.4,0,0.6-0.5,0.6c-0.2,0-0.4-0.2-0.4-0.4c-0.1-0.4,0.2-0.6,0.5-0.6C378.1,547,378.2,547.2,378.3,547.4z"/>
	<path d="M465.4,237.6c-4.4,0.3-8.1-2.1-11.9,0C456.3,234,462.6,233.9,465.4,237.6z"/>
	<path d="M462.8,239.1c-0.6,2.7-0.6,2.7-5.5,2.1C458.7,239.1,458.9,239,462.8,239.1z"/>
	<path d="M437.9,287.2c0-1.4,0-2.9,0-4.3C439.1,284.3,439.2,285.8,437.9,287.2z"/>
	<path d="M428.2,275.1c1.1,1.7,0.7,3,0.7,4.6C426.9,278.2,427.3,277,428.2,275.1z"/>
	<path d="M429.7,283.7c-1.1-0.8-1.8-1.4-1-2.7C430.2,281.3,430.2,282.2,429.7,283.7z"/>
	<path d="M442.2,293.6c-1,1-1.5,0.5-2.1-0.1C441.1,292.4,441.5,293.3,442.2,293.6z"/>
	<path d="M439.4,275.7c-0.5-0.6-0.5-1.2,0.2-1.9C440.2,274.6,440.4,275.2,439.4,275.7z"/>
	<path d="M438.8,277.3c0.8,0.8,0.7,1.6,0.1,2.5C437.8,278.9,438.2,278.1,438.8,277.3z"/>
	<path d="M441.9,299.8c0.8,0.3,1.2,0.5,1.1,1.2C442.2,301.2,442,300.7,441.9,299.8z"/>
	<path d="M447.7,251.8c-0.9,0.4-1.1-0.2-1.5-0.8C447.2,250.6,447.5,251,447.7,251.8z"/>
	<path d="M443.9,248.9c1.1-0.2,1.2,0.3,1.4,0.8C444.3,250.2,444.1,249.6,443.9,248.9z"/>
	<path d="M359.9,650.2c-3.2,2.9-5.6,3.2-7.5,1c-1.6-1.8-1.3-4.3,0.6-5.7c2.3-1.6,4.7-0.8,7,2.5c1.6-2.3,3.7-3.4,6.3-2
		c3,1.6,1.7,4.3,1.5,6.9C364.8,653.5,361.8,654.2,359.9,650.2z"/>
	<path d="M347,649.6c-1.3,0-0.4,2.1-2.2,1.9c-0.7-2.3-0.4-4.7,0.1-7c1.5-0.8,2.8-0.3,4.1-0.1c2.1,0.4,2.7,2.1,1.7,3.6
		c-0.9,1.3-1.1,2.3,0,3.6C348.3,652.4,348.5,649.6,347,649.6z"/>
	<path d="M369.4,632.1c0.3,1.5-0.5,2-1.8,2.2c-2.8,0.3-5.6,0.6-8.5,0.9C360.6,633,362.7,632.5,369.4,632.1L369.4,632.1z"/>
	<path d="M265.9,238.8c0.3-1.8,0.5-2.9,0.7-4.1C269.1,235.8,269,236.2,265.9,238.8z"/>
	<path d="M404.9,335.1c-0.4-0.6-0.5-1.1,0.2-1.6C405.8,334.1,405.8,334.6,404.9,335.1z"/>
	<path d="M465.5,320c0.5-1.6,1.5-2.4,2.9-3.2C468.1,319,468.1,319,465.5,320z"/>
	<path d="M472.1,311.8c0.2,2.2-1,2.9-1.9,3.8C470.1,314.3,470.5,313.2,472.1,311.8z"/>
	<path d="M808.2,372.9c-6.4,3-8.6,8.3-9.5,14c-0.7,4.4-2.2,8.1-4.4,11.8c-0.9,1.4-1.6,3-2.6,5.1c-0.4-2.9,1-4.6,1.9-6.2
		c1.9-3.2,3-6.5,3.3-10.3c0.4-4.6,2.2-8.9,5.6-12.3C803.8,373.4,805.4,372.5,808.2,372.9z"/>
	<path d="M770.1,304.5c4.2,5.9,5.5,13.1,9,19.9C775.6,322.7,771.2,313,770.1,304.5z"/>
	<path d="M822.4,343c-0.2,1.6-1.3,2.5-2.1,3.6c-1.7,2-2.8,4.2-3.5,6.9c-1,3.8-3.6,6.9-6,10.1c-0.6-1.9,0.6-3.2,1.4-4.7
		c1.5-2.9,3.5-5.4,4.3-8.8C817.2,347.1,819.7,344.8,822.4,343z"/>
	<path d="M813.8,366c6.1-0.9,12-0.4,17.8,1.7C825.6,368,819.7,367.2,813.8,366z"/>
	<path d="M816,412.5c-0.7-6-4.2-10.6-7.6-15.3C814.1,400.1,817.8,407.6,816,412.5z"/>
	<path d="M768.2,325.6c-1.5-4.2-1.7-8.6-2.7-13.2C768.2,313.7,768.6,316.1,768.2,325.6z"/>
	<path d="M783.6,303.3c2.6,1.1,2.9,5.2,0.7,9.8C783.2,310.5,782.9,305.6,783.6,303.3z"/>
	<path d="M764.3,355.7c-0.1,1.4-1.3,2.4-1.2,3.6c0.1,1.5,1.5,1.2,1.8,2c-2,2.7-0.5,6.1-1.8,8.9c-0.3-0.1-0.6-0.2-0.6-0.3
		c-0.1-3.6,0.3-7.1-0.2-10.7C762.3,357.8,763,356.4,764.3,355.7L764.3,355.7z"/>
	<path d="M796,317.9c-1.3-3.8-2.6-7.6-4-11.6C794.4,307.3,796.3,312.4,796,317.9z"/>
	<path d="M806.2,307.1c1.5,3.6-0.9,6.5-1.7,9.6C804.3,313.4,804.2,310.1,806.2,307.1z"/>
	<path d="M818.6,309.9c-0.1,1.7-0.3,3.5-0.4,5.2C816.5,313.4,816.6,311.6,818.6,309.9z"/>
	<path d="M777.2,303.1c0.3,2.2-0.7,4.1-1.4,6.1C775.7,307,776.5,305.1,777.2,303.1z"/>
	<path d="M771,374.8c-1.9-1.2-2.9-2.9-3.6-4.8C769.2,371.2,770.3,372.9,771,374.8z"/>
	<path d="M812.9,387.9c-1.9-0.7-2.5-1.6-2.7-3.3C812.3,385,812.4,386.3,812.9,387.9z"/>
	<path d="M798.9,304c1.4,0.5,2.5-0.5,3.9-1C801.9,305.9,800.4,305,798.9,304L798.9,304z"/>
	<path d="M772.2,329.7c-0.2,0.8-0.9,1.2-1.5,1.6C770.9,330.6,771.3,330,772.2,329.7z"/>
	<path d="M807.4,304.5c-1.3-0.1-1.8,1.3-3,1.5C804.9,303.9,804.9,303.9,807.4,304.5L807.4,304.5z"/>
	<path d="M827.2,316.5c-1.2-0.5-1.7-1.2-1.2-2.4C827.4,314.4,827.4,315.3,827.2,316.5z"/>
	<path d="M788.5,302.7c0.9-0.1,1.8,0.1,2.8,1.1C790,303.7,789.1,303.5,788.5,302.7L788.5,302.7z"/>
	<path d="M799,303.9c-0.6,0.1-1.3,0.1-1.9-0.2c0.5-0.6,1.5-0.4,1.7-1.2l-0.1-0.1C798.8,303,798.8,303.5,799,303.9L799,303.9z"/>
	<path d="M766.9,338.3c0,0.8,0,1-0.1,1.1h-0.1C766.8,339.2,766.8,339.1,766.9,338.3z"/>
	<path d="M773.6,320.9c0-0.2-0.1-0.4-0.1-0.6c0-0.1,0.1-0.1,0.2-0.2C773.8,320.4,773.9,320.7,773.6,320.9z"/>
	<path d="M822.1,308.6c-0.1,0.4-0.4,0.5-0.7,0.4c-0.1-0.1-0.3-0.5-0.2-0.5C821.5,308.1,821.8,308.1,822.1,308.6z"/>
	<path d="M802,306.1c0.5,0.1,0.8,0.3,0.5,0.9c0,0.1-0.2,0.1-0.3,0.1C801.6,306.9,801.6,306.5,802,306.1z"/>
	<path d="M819.9,233c2.8,0,3.5,2.4,5.2,3.9C821.3,237.5,819.9,236.4,819.9,233z"/>
	<path d="M826.6,293.2c-0.5-2.5,0.6-4.4,1.9-6.3c0.2,0.1,0.5,0.1,0.7,0.2c-0.6,2.1-1.2,4.1-1.9,6.2
		C827.2,293.2,826.9,293.2,826.6,293.2z"/>
	<path d="M843.4,234.2c-0.7,2-1.9,3.3-3.7,4.5C839.8,237.2,839.8,237.2,843.4,234.2z"/>
	<path d="M802.2,291.8c-1.1-1.2-1.3-2.2-1-3.6C802.8,289,803.2,290,802.2,291.8z"/>
	<path d="M794,248.5c1.1,0.7,2.3,1.3,3.4,2C795.7,250.7,794.2,250.7,794,248.5z"/>
	<path d="M830.6,285.7c0-1.8,0.7-2.8,1.5-3.8C832.1,283,832.3,284.3,830.6,285.7z"/>
	<path d="M796.7,270.9c-1.5-0.1-3-0.3-4.8-1.2C793.9,269.9,795.4,270.1,796.7,270.9L796.7,270.9z"/>
	<path d="M799.3,244.9c-1.7-0.6-2.3-1.3-2.4-2.5C799,241.9,798.8,243.4,799.3,244.9z"/>
	<path d="M830.2,237.1c1.6-0.3,2.3,0.1,2.8,1.2C831.7,238.8,831,238.4,830.2,237.1z"/>
	<path d="M803.9,247.3c-1.5-0.1-2.3-0.4-2.5-1.7C802.7,245.3,803.3,245.8,803.9,247.3z"/>
	<path d="M823.3,227.5c1.3,0.6,2.4,0.4,2.9,1.6C824.7,229.3,824.7,229.3,823.3,227.5z"/>
	<path d="M807.2,247.7c-1,0.9-1.6,0.3-2.1-0.2C806.1,246.2,806.5,247.2,807.2,247.7z"/>
	<path d="M796.7,271c0.6,0,1.1,0,2.4,0C797.8,271.5,797.2,271.4,796.7,271L796.7,271z"/>
	<path d="M840.6,250.3c-0.8-0.8-0.3-1.1-0.1-1.5C841.2,249.4,840.7,249.7,840.6,250.3z"/>
	<path d="M810.5,249c-0.1,0.1-0.3,0.4-0.4,0.4c-0.4,0-0.6-0.3-0.4-0.7c0.1-0.1,0.4-0.3,0.6-0.2C810.3,248.5,810.4,248.8,810.5,249z"
		/>
	<path d="M755.3,154.1c0.7,2.8-1.1,9.5-3.4,12.9C752.6,162.3,754,158.2,755.3,154.1z"/>
	<path d="M731.2,191.6c-0.4-0.1-0.9-0.2-1.4-0.4c3.4-2.7,7.6-3.5,10.8-6.4c-0.1,1.9-1.5,2.5-2.8,3.4
		C735.7,189.6,733,189.9,731.2,191.6L731.2,191.6z"/>
	<path d="M751.5,172.8c-2,3.3-4.9,5.9-7.7,8.7c-0.2-0.2-0.4-0.4-0.6-0.5c2.5-3,5-5.9,7.5-8.9C751,172.3,751.2,172.5,751.5,172.8z"/>
	<path d="M756.3,139.4c0.6,2.4,0.1,4.7-0.7,7c0-2.3,0-4.7,0-7C755.9,139.3,756.1,139.4,756.3,139.4z"/>
	<path d="M752.8,128.6c1.8,2.1,1.7,4.9,2.5,7.4C753.4,133.9,753.2,131.3,752.8,128.6z"/>
	<path d="M827.1,664.8c-6.2-0.4-12.5-0.7-18.7-1.9C814.6,663.5,821,662.6,827.1,664.8L827.1,664.8z"/>
	<path d="M802.4,661.8c-5.1,0.2-10.1-0.8-15.2-1.3C792.4,660.1,797.4,661.1,802.4,661.8z"/>
	<path d="M827,664.9c3.4-0.1,6.7-0.1,10,0.5C833.7,665.1,830.4,665.9,827,664.9L827,664.9z"/>
	<path d="M840,679.1c-0.9-1.8-0.8-3.7,0.1-6.3C841.6,675.5,840.2,677.3,840,679.1z"/>
	<path d="M785.4,588.1c0-1.7,0-3.4,0-5.1c0,0,0,0,0.1,0C785.4,584.7,785.4,586.4,785.4,588.1L785.4,588.1z"/>
	<path d="M784.2,617.1c0,1.3,0.3,2.6-0.3,4.1C783.6,619.5,783.7,618.2,784.2,617.1z"/>
	<path d="M840.6,670.6c-0.4-1.8-1.1-2.7,0-3.8C841.7,667.8,841.1,668.8,840.6,670.6z"/>
	<path d="M787.1,656.5c-0.2,0.8-0.8,1.1-1.6,1C785.7,656.3,786.5,656.5,787.1,656.5L787.1,656.5z"/>
	<path d="M840.1,682.2c0-0.4,0-0.1,0,0.2C839.4,682.2,839.9,681.9,840.1,682.2z"/>
	<path d="M842.4,664.8c-0.7,0.3-1.3,1.2-2.4,0.4C840.9,664.5,841.7,665.2,842.4,664.8L842.4,664.8z"/>
	<path d="M781.7,220.5c2.2-3.7,5.2-6.8,8.1-10C788.4,215,785,217.7,781.7,220.5L781.7,220.5z"/>
	<path d="M759.6,196.5c0.2,3.2-1.4,6.1-2,9.2C757.3,202.4,758.4,199.5,759.6,196.5L759.6,196.5z"/>
	<path d="M746.8,237.5c2.3,0.2,4.3,0.8,6.9,0.6C750.9,239.4,750.1,239.3,746.8,237.5z"/>
	<path d="M760.1,171c1.9,1.2,2.6,2.5,2.9,4.2C760.9,174.7,760.9,174.7,760.1,171z"/>
	<path d="M781.2,191.4c-0.7,1.9-1.6,3.6-3.8,5.4C777.8,193.8,779.4,192.5,781.2,191.4z"/>
	<path d="M761.2,187.7c-0.4-1.8,0.1-3.3,1.2-5.2C763.2,185,762.4,186.4,761.2,187.7z"/>
	<path d="M754.7,234.4c0-1.6-0.3-3.3,1.6-4.6c-0.3,1.6-0.6,3.1-0.9,4.7C755.1,234.5,754.9,234.5,754.7,234.4z"/>
	<path d="M800.2,177.8c1.6-0.2,3.2-0.5,3.9,1.5C802.7,179.2,801.1,179.4,800.2,177.8L800.2,177.8z"/>
	<path d="M759.7,196.5c0.1-1.9-0.2-3.8,1.4-5.3C760.6,193,760.1,194.7,759.7,196.5L759.7,196.5z"/>
	<path d="M776.5,198.3c1.3-1.7,2.3-1.5,3.8-1.4C779.4,198.2,778.4,198.4,776.5,198.3z"/>
	<path d="M781.6,220.4c-0.2,1.8-1.3,2.4-3.1,2.5C779,221.1,780.6,221.1,781.6,220.4L781.6,220.4z"/>
	<path d="M753.2,232.6c-1.7,0.3-2.3-0.4-3.3-1.5C751.3,231.2,752.3,231.3,753.2,232.6z"/>
	<path d="M758.6,225.2c0.2,1,0.2,1.6-0.7,1.8C757.4,226.2,757.7,225.7,758.6,225.2z"/>
	<path d="M775,225c0.2-0.9,0.6-1.1,1.4-0.7C776.5,225.1,776.1,225.4,775,225z"/>
	<path d="M761.2,223.5c0.6,1,0.1,1.5-0.6,1.9C760,224.5,760.9,224.1,761.2,223.5z"/>
	<path d="M744.4,210.1c-0.3-0.8-0.2-1.2,0.7-1.4C745.4,209.5,745.3,209.9,744.4,210.1z"/>
	<path d="M789.8,184.9c0.4-1,0.8-1.1,1.4-0.8C791.2,184.9,790.6,184.9,789.8,184.9z"/>
	<path d="M790.5,207.9c0.7,0.6,0.2,0.9-0.3,1.2C789.7,208.5,789.8,208.1,790.5,207.9z"/>
	<path d="M836.5,570c-9,0.7-17.9,0-26.8-1.6C818.6,568.4,827.5,569.7,836.5,570z"/>
	<path d="M769.7,566c5.3,0.6,10.6,1.2,15.8,1.8C781.2,568.5,775.4,568.1,769.7,566z"/>
	<path d="M872.1,567.3c-3.1,1.2-6.1,0.9-9.2,0.4C866,566.7,869.1,567.2,872.1,567.3z"/>
	<path d="M842.7,570.9c1.3-1.5,2.9-1.4,5-1.3C846,571.5,844.3,570.8,842.7,570.9z"/>
	<path d="M791.2,567.8c1.7,0,3.3,0,5,0c0,0.1,0,0.1,0,0.2c-1.7,0.1-3.3,0.2-5,0.2C791.2,568.1,791.2,567.9,791.2,567.8z"/>
	<path d="M743.1,564c2.1,0,4.2,0,6.3,0c0,0.3,0,0.5,0,0.8C747.3,564.5,745.1,565.2,743.1,564L743.1,564z"/>
	<path d="M758.7,564.6c-1.9,1.4-4,0.4-6,0.1C754.8,564.7,756.8,564.7,758.7,564.6L758.7,564.6z"/>
	<path d="M840.6,570.4c1.5,0.8,0.8,1.7,1.2,2.9C840.2,572.5,840.2,571.7,840.6,570.4z"/>
	<path d="M850.8,569.7c1.4,0,2.8,0,5,0C853.6,570.5,852.1,570.6,850.8,569.7z"/>
	<path d="M743.1,563.9c-1.5,0.2-2.9,0.2-4.3-0.2C740.2,563.6,741.7,563.2,743.1,563.9L743.1,563.9z"/>
	<path d="M840.6,579.1c-0.6-1.2-0.7-2.1,0.1-3.2C841.7,577,841.2,577.9,840.6,579.1z"/>
	<path d="M726.2,561.5c0.2,0,0.4,0.1,0.7,0.1C726.6,561.8,726.4,561.9,726.2,561.5z"/>
	<path d="M758.8,564.7c0.6-0.3,1.1-0.6,1.8-0.3C760,565.1,759.4,564.7,758.8,564.7L758.8,564.7z"/>
	<path d="M914.1,181.2c-0.1,1.4,1.2,2.4,1.2,4.6c-1.2-2.2-2.2-3.8-3.4-6C913,180.5,913.6,180.9,914.1,181.2L914.1,181.2z"/>
	<path d="M918,205.4c-0.5-1.5-0.4-3,0.7-4.4C918.5,202.4,918.3,203.9,918,205.4z"/>
	<path d="M917.7,193.3c-0.3-1.3-0.5-2.6-0.9-4.6c1.9,1.7,1.1,3.2,1.7,4.5C918.2,193.2,918,193.3,917.7,193.3z"/>
	<path d="M910,224.2c0,1.5-1,2.2-2.2,2.8C908.5,226.1,909.2,225.1,910,224.2z"/>
	<path d="M913.3,220.8c-0.4,1.2-0.8,1.8-1.7,2.2C911.6,222,912.2,221.5,913.3,220.8z"/>
	<path d="M863.2,135.5c-0.8,0.4-10.1,0.6-11.6,0.4C854.2,132.9,859.6,132.6,863.2,135.5z"/>
	<path d="M854.7,139.6c2-1.6,3.8-2.2,5.9-1.8C860.4,141,860.4,141,854.7,139.6z"/>
	<path d="M826.1,174.5c1.2,1.1,1.1,2.3,0.6,3.8C825,177.1,825.7,175.7,826.1,174.5z"/>
	<path d="M836.3,182.1c0.8,1.3,0.6,2.6,0.1,3.9C835.6,184.7,836.1,183.4,836.3,182.1z"/>
	<path d="M836.9,175.6c0.7,1.3,0.9,2.1,0,2.8C835.5,177.6,836.2,176.9,836.9,175.6z"/>
	<path d="M827.9,182.4c-1.4-0.8-1.9-1.5-1-2.6C828.4,180,827.9,181,827.9,182.4z"/>
	<path d="M837.9,172.7c0.4,0.6,0.4,1.2-0.2,1.7C837.2,173.6,837.2,173.6,837.9,172.7z"/>
	<path d="M839.5,198.1c1,0.3,1.2,0.8,1.4,1.5C840,199.6,839.8,199,839.5,198.1z"/>
	<path d="M838.3,191.9c0.9-0.5,1.3-0.2,1.6,0.7C839.1,193,838.5,193.2,838.3,191.9z"/>
	<path d="M845.4,150.7c-0.5-0.1-0.8-0.4-0.9-0.9C845.5,149.3,845.7,149.7,845.4,150.7z"/>
	<path d="M842.2,147.5c0.7-0.1,1,0.3,1.1,1.2C842.4,148.7,841.8,148.6,842.2,147.5z"/>
	<path d="M681.5,518.6c0.9-0.2,1.7-0.6,2.6-0.7c1.9-0.1,3.2,0.8,4,2.5c0.8,1.8,0.2,3.3-1.2,4.6c-0.8,0.8-2.1,0.9-2.8,1.9
		C679.8,523.7,679.6,522.8,681.5,518.6L681.5,518.6z"/>
	<path d="M677.6,510.8c-1.1,0.3-2.2,0.5-3.2,0.3c-0.5,0.8-0.9,1.5-1.3,2.3c-2-1.1,0.2-2.8-0.7-4.1c-0.9-0.6-1.5,1-2.9,0.1
		c0.9-2.5,3.6-3.2,5.3-4.9C678.1,506.9,678.5,507.9,677.6,510.8L677.6,510.8z"/>
	<path d="M677.5,510.9c2.1,0,4.1,0.2,5.2,2.4c1,2.1,0.1,3.7-1.2,5.2l0.1-0.1c-4.1,2-7.1-1.2-6.4-4.5
		C675.5,512.5,676.8,511.9,677.5,510.9L677.5,510.9z"/>
	<path d="M698.8,511.6c-0.2,1.7-1.1,1.8-2.4,1c-2.5-1.5-5-2.9-7.4-4.7C693,507.3,695.6,510.4,698.8,511.6L698.8,511.6z"/>
	<path d="M663.9,137.5c0.4-1.8,0.6-2.9,0.8-4.1C667.1,134.7,667.1,135,663.9,137.5z"/>
	<path d="M803.3,233.7c-0.9-0.6-0.8-1-0.2-1.4C803.9,232.6,803.7,233.1,803.3,233.7z"/>
	<path d="M867.7,214.9c0.4-1.9,0.9-3,2.2-4.2C870.4,212.8,869.3,213.6,867.7,214.9z"/>
	<path d="M866.9,215.5c-0.6,2.1-1.8,2.8-3.6,3.7C864,217.2,865,216.2,866.9,215.5z"/>
	<path fill="#FFFFFF" d="M357.9,648.7c-0.2,1.6-1,2.4-2.5,2.3c-1.4-0.1-2.2-1.2-2.1-2.6c0.1-1.3,1.1-2,2.3-2
		C357,646.5,357.9,647.4,357.9,648.7z"/>
	<path fill="#FFFFFF" d="M366.5,649.8c-1.4,0.2-2.2,0.8-2.7,1.9c-1.6-0.3-2-1.3-1.9-2.7c0.1-1.3,1.1-1.8,2.1-1.8
		C365.6,647.2,366.5,647.9,366.5,649.8z"/>
	<path fill="#FFFFFF" d="M346.3,646.4c1.2-1,2.1-0.6,3,0C348,648.1,348,648.1,346.3,646.4z"/>
	<path fill="#FFFFFF" d="M685.5,523.8c-0.9-0.8-1.8-2.2-2.8,0c-1.2-2-0.5-3,0.8-3.8c1-0.6,2-0.4,2.7,0.5
		C687.2,521.7,686.9,522.8,685.5,523.8z"/>
	<path fill="#FFFFFF" d="M675,506.9c0.9,0.5,1.6,1.2,1,2.3C673.5,508.7,673.5,508.7,675,506.9z"/>
	<path fill="#FFFFFF" d="M681.4,514.8c-0.2,1.5-1.1,2.4-2.5,2.5c-1.3,0.1-2.2-0.7-2.1-2.1c0-1.5,1-2.3,2.4-2.4
		C680.5,512.7,681.2,513.6,681.4,514.8z"/>
</g>
</svg>
