<?xml version="1.0" encoding="utf-8"?>
<!-- Generator: Adobe Illustrator 19.1.0, SVG Export Plug-In . SVG Version: 6.00 Build 0)  -->
<svg version="1.2" baseProfile="tiny" id="Layer_2" xmlns="http://www.w3.org/2000/svg" xmlns:xlink="http://www.w3.org/1999/xlink"
	 x="0px" y="0px" width="900px" height="600px" viewBox="144 97 900 600" xml:space="preserve">
<g>
	<path d="M631.2,492.1c-2.5-2.6-6-4.1-8.6-6.5c-4.5-4.3-10.2-5.3-16-5.9c-3.5-0.4-6.8,1.5-9.7,3.2c-1.3,0.7-3,0.7-4,1.9l0.1-0.1
		c-0.6,0.4-1.1,0.8-1.8,0.7c-4.9-0.7-10,0.1-14.7-2.3c-2.7-1.4-5.5-2.4-8.6-2.4c-4.1,0-8.3,0.5-12.4-1c-0.3,2.2,1.5,3.5,1.1,5.5
		c-1.5-1.6-1.9-3.5-2.6-5.2c-0.8-2.1-2.1-3.3-4.5-3.2c-9,0.3-16.3-3.6-23-9.2c-2.9-2.5-5.6-5.1-8.5-7.6c-2.3-2-4.3-4.1-6-6.7
		c-1.6-2.5-3.8-4.2-6.4-5.7c-12.3-7-25.6-11.5-38.9-16.1c-11-3.7-22-7.5-31.9-13.7c-2.1-1.3-3.7-3.2-6.2-4.2
		c-0.4,1.3-0.8,2.5-1.2,3.8c2.2,1.3,4.3,2.6,6.4,4.8c-2.8-0.5-4.9-1.4-7.3-2.4c-1.2,2.7-1,5.5-1.2,8.3c2.3,2,4.4,4.4,7.4,5.2
		c0.2,1.4-0.8,0.7-1.1,1.4c1.4,2.4,1.5,5.1,0.5,8c4.3,2.7,8.8,5,13.4,6.8c5.3,2.1,9.9,5.1,14.3,8.6c3.8,3.1,7.7,6.2,11.1,9.7
		c5.1,5.1,11.1,8.6,17.5,11.6c3.2,1.5,6.5,2.8,9.4,5c-1.8,0.2-3.5-0.1-5.1-0.8c-9.2-3.7-17.6-8.7-24.9-15.5
		c-4.8-4.5-9.9-8.7-15.2-12.7c-1.6-1.2-3.5-1.9-5.4-2.7c-3.8-1.7-7.6-3.3-11.1-5.5c-3.4-2.2-6.7-2.1-10.1-0.1
		c-1.7,0.9-3.5,1.5-5.4,1.6c-5.3,0.4-9.9,2.2-14.4,5.2c-4.6,3.1-7.7,6.8-9.7,11.9c-1.3,3.2-3.2,6.1-4.9,9.1c-0.3,0.5-0.6,1-1,1.3
		c-3.6,3.3-12.5,1.5-14.3-3.2c-1.5-3.9-1.9-8.1-1.7-12.2c0.3-6.9,2.2-13.6,3.8-20.4c1.6-6.6,3.8-12.7,7.6-18.3
		c0.4-0.6,0.6-1.2,0.7-1.8c1.8-8.8,5.1-17,9.4-24.9c1.4-2.7,3.5-4.8,6.1-6.5c1.9-1.3,3.8-1.4,5.3,0.4c0.9,1.1,2,1.7,3.3,2.1
		c3,0.9,5.3,2.8,7.2,5.2c2,2.7,4.4,5.1,7.1,7c2.7,2,4.7,4.5,5.6,7.7c0.6,2.1,1.9,3.2,3.8,4.3c13.9,8.3,29.2,12.7,44.4,17.8
		c10.1,3.4,19.7,8,28.9,13.1c2.2,1.2,3.8,3.1,5.4,5c7.2,9.1,15.8,16.7,26,22.3c2.9,1.6,6.3,1.2,9.5,1.3c2.1,0,3.8,0.3,5.5,1.8
		c2.1,1.9,4.9,2.3,7.5,2.1c6.2-0.4,11.7,1.2,17.5,3.2c4.9,1.6,11,2.8,16.2-0.8c0.7-0.5,1.7-0.7,2.4-1.2c8.2-5.6,15.8-1.9,23.5,1.2
		c1.8,3.1,5.2,4.3,7.9,6.2c5.3-0.4,9.4-3.3,13.5-6.2c8.7-6.1,18-11.2,28-14.9c3.8-1.4,7.8-2.1,11.9-1.6c5.9,0.6,11.8,0.8,17.6,2.1
		c3,0.6,5.9,0.8,9,0.7c2.3-0.1,4.6-0.5,6.9,0.5c1.5,0.7,3.3,0,4.7-1.2c-0.4-1-1.4,0.5-1.9-1c0.4-1.2,1.5-2.7,2.7-4.1
		c2.8-3.4,5.5-6.8,6.2-11.3c0.1-1,0.7-1.9,1.5-2.6c2.4-2,2.9-5.2,4.7-7.7c2.3,1.2,4-1,6.1-0.8c0.3-1.5-1.9-2.2-1.1-3.7
		c1.3-0.2,1.5,1.2,2.4,1.6c1.2-0.6,0.4-2.8,2.2-2.8c1.4,0.4,0.8,1.6,1,2.6c2.2,0.5,4.4,0.1,6.6,0.2c1.9,0.1,3.6,0.4,3.9,2.7
		c0.1,1.1,1,1.4,1.8,1.7c6.5,2.3,11.3,7,15,12.3c1.5,2.1,3.3,4.5,3.9,7.1c1.5,0.9,3.1,1.3,4.7,0.8c0.3,1.2-1.1,0.9-0.9,2
		c2-0.1,2.4,2,3.9,3.2c-5.5,2-9,7.5-15.4,7.9c-2.1,5.2-4.3,10.5-10.2,14c-0.2,1.9-2.4,3.1-4.1,4.6c1.7,8,3.2,16,0.9,24.3
		c3.9,0,7.6-1.3,11.5-1.4c10-0.5,20.1-0.3,30.1-0.5c6.2-0.1,12.2,1,16.7,6.2c2.9,3.4,1.9,7.1,1.6,10.8c-1.1-1.9-1.1-3.9-1.3-6
		c-0.1-1.1,0-2.3-0.9-3.1c-3.2-2.8-6.2-5.8-10.9-5.9c-12.9-0.4-25.9-0.4-38.8,0.6c-3,0.2-5.8,1.5-9.1,1.3c-1.3,3.4-3.3,6.5-6,9.4
		c3.1-0.2,5.6-1.4,8.4-1.4c-0.9,1.5-2.7,0.9-3.9,2.2c-0.2,1.4-0.3,3-0.6,5c-0.9-1.7-0.2-3.2-0.8-4.8c-1.4,0.1-2.9,0.9-4.2,0.1
		c-2.2,1.2-1.6,2.9-1.3,4.6c0.7,3.5,1.9,6.9,1.4,11.3c5.7-3.4,11.6-4,17.2-5c1.8-8.4,2.3-9,7.3-8.6c0.7,1.1-0.2,2.4,0.3,3.6
		c0.4,1.1,0.5,2.4,1.5,3.6c13.4-1.5,26.3-7.2,40.3-6.4c-6,2.8-12.7,2.1-19.1,4.1c2.3,24.8,5.2,49.6,6.4,74.7
		c15.2,4.3,30.8,5,46.4,8.1c1.7,4.6,3.6,9.5,5.7,14.9c-4.4-0.4-8.1,0.8-11.8,1.3c-1.7,0.2-3.2-0.1-5-0.8c-2.7-1.1-5.9-1.3-8.9-1.6
		c-7.2-0.7-14.4-2.1-21.7-2.3c-1.6,0-3-0.8-4.5-1.2c-9.5-2.9-19.2-4.1-29-5.2c-6.1-0.7-12-2.8-18.1-3.3c-2.9-0.2-5.7-0.4-9.1-0.7
		c1.1-4.1,2.5-7.6,4.4-11c0.4-0.7,1.2-1.1,2-1.2c3.7-0.4,7.3-1.5,11.2-1.3c7.1,0.4,14.2,1.2,21.3,2c-0.3-11.4,0-22.6-4-33.3
		c-0.9-2.3-2.4-2.7-4.4-2.6c-8.2,0.1-16.2,0.9-24.3,2.2c-6.5,1-11.8,4.2-16.8,8.1c-3.1,2.4-6.3,4.5-10.4,5.1
		c-2.2,0.3-3.9-0.1-5.2-1.9c-0.9-1.3-2-2.4-3-3.5c-10.9,2.4-21.5,5.6-32.4,7.2c-11.3,1.6-22.6,3.3-33.7,5.8
		c-9.8,2.2-19.8,3.3-29.7,5.1c-6.9,1.3-11.9,4.7-16,9.9c-0.7,0.9-1.5,1.6-2.6,1.9c0.1,10.4-4.5,20-5.2,30.3
		c-0.3,4.6,0.3,9.1,0.2,13.7c13.7,4.5,27.6,7.9,42,10.8c1.8,5.4,1.6,11.5,3.9,16.9c-2.1,2.2-4.3,2.7-6.6,3.3
		c-6,1.7-11.8,0.7-17.8-0.2c-12.5-1.9-24.6-5.7-36.8-8.7c-13.3-3.3-26.7-6.4-39.8-10.7c-1.6-0.5-2.9-1.2-3.7-2.9
		c0.6-3.6,2.2-7.1,3.3-10.7c0.4-1.2,1.4-1.6,2.6-1.8c2.9-0.7,5.9-1.5,8.7-2.3c2.6-0.8,5.1,0.1,7.6,0.6c5.9,1.1,11.8,2.5,17.7,3.8
		c0.6,0.1,1,0.3,1.5,1.1c-1.1,0.7-2.2,0.3-3.2,0.1c-6-1.2-12.1-2.3-18-3.8c-3-0.7-5.7-0.3-8.5,0.6c-2.1,0.7-4.2,1.5-6.6,1.6
		c-1.2,3.6-2.4,7.2-3.6,10.8c28.4,7,56.3,15.3,84.6,21.3c1.4-0.8-0.2-1.9,0.9-2.5c1.2,0.6,0.4,2.2,1.6,2.9c0.6,0.3,1.4,0.1,2.1-0.1
		c3.5-1,7.3-1.1,11.1-2.6c-1.3-4.7-2.2-9.3-2.3-14.2c-6.3-2.9-12.8-4.1-19.5-4.8c-2-0.2-3.9-0.7-5.7-1.6c-4.9-2.2-10.2-3.1-15.4-4.6
		c-0.7-0.2-1.2,0.7-1.9,0.3c-0.2-0.2-0.4-0.3-0.4-0.5c-0.7-11.9-0.1-23.6,3.6-35c0.9-2.7,1.6-5.3,1.4-8.2c-0.1-1.6,0.4-3.1,1.1-4.5
		c0.5-0.9,1.1-0.9,2-0.5c3.2-6.6,8.5-10.3,15.7-11.5c19.7-3.4,39.3-7.4,59.1-10.4c12.5-1.9,24.7-4.9,37.4-7.1
		c-6.1-9.7-2.5-20.1-2.8-30.4c-4.6,1.3-8.8,3-13.4,3.3c-11.6,0.6-23.1,2.7-34.6,3.8c-7.9,0.7-15.6,2.9-23.5,3.7
		c-9.4,1-18.3,4.2-27.3,6.7c-5,1.4-10,2-15.2,1.7c-2.9-0.1-5.8,0-9.4,0c0,6.3-0.2,12.3,0.1,18.2c0.5,10.2-0.3,20.3-1.4,30.4
		c-0.3,2.7-0.3,5.3-0.3,8c0.1,5-0.3,10-1.1,15c-1,6.1-0.8,12.4-1.1,18.5c1.5,0.9,2.8-0.5,4.2,0.5c-1.6,1.3-3.6,1.3-5.6,1.9
		c-0.8-3.9,0.1-7.5,0-11.1c-0.3-6.6,2.5-13,2.1-19.6c-0.9-12.7,2-25.2,1.7-37.8c-0.2-7.9-0.2-15.8,0.2-22.9c-0.3-1.2-0.7-1.2-1-1.2
		c-0.4,0-0.8,0.2-1.1,0.2c-1.3,30.4-2.5,60.6-3.7,90.8c-3.4,0.5-9.5-0.9-13.3-3.3c4,0.3,7.4,1.2,11.4,2.6c0.8-30.1,3-59.9,3.3-90
		c-6.4-1.4-12.4-2.2-18.7-1.7c0.8,3.4,1.5,6.3,1.5,9.3c0.1,2.9-0.3,5.7-2,8.2c0.8-5.5,0.7-10.9-1-16.4c-2.8,0-5.3,0.9-8.2,1.3
		c1.5,3.9,4.6,6.3,6.8,9.3c-3.7-2.1-6.8-4.9-8.3-9.2c-2.8,0-5.7-1-8.6-0.6c-0.4,1.2,0.4,1.4,1.1,1.7c1.2,0.6,2.4,1.1,3.6,1.9
		c1.4,0.9,2.8,2.2,2.5,3.7c-0.6,3.5,1,6.5,1.5,9.8c0.7,4.1,0.7,8.2-0.7,12.2c1.1,0.4,1.8,0,2.3-0.6c3.1-3.9,7.7-6.1,11-9.8
		c1.4-1.5,3.1-2.6,4.9-3.4c2.4-1.1,4-2.6,4.4-5.4c0.3-2.3,2.1-3.6,3.8-4.9c0.8-0.6,0.9-0.5,2.7,0.8c-3,2-4.2,5-5.3,8.2
		c-0.4,1.2-1.5,1.9-2.7,2.5c-5.7,2.7-10.1,7.4-14.9,11.3c-7.5,6.1-15,6.8-23.8,3.5c-1.3-0.5-2.2-1.5-3-2.5
		c-5.5-7-11.7-13.2-17.9-19.6c-2.2,0.9-4.3,0.4-6.5,0c-4.5-0.8-8.9,0.8-13,2.3c-10.3,3.7-20.5,7.7-30.9,11c-2.2,0.7-4.4,1.7-6.5,2.7
		c-7.4,3.8-15.6,5.4-23.2,8.7c-4.8,2.1-9.5,4.5-13.8,7.5c-3.5,2.5-7.4,4.5-11.2,7.4c1.6,0.2,2.8-0.6,3.8,0.7c0,1-0.9,1.6-1.5,2.3
		c-1.1,1.3-2.1,2.6-2,4.4c0,0.8-0.3,1.9-0.8,2.5c-2.7,3.3-3.8,7.3-4.8,11.3c-1.2,4.8-3.8,9-5.1,13.8c-0.9,3.5-1.3,7-0.7,10.6
		c0.5,2.8,0.3,5.6,0.3,8.4c0,2.1-0.8,3.9-2.9,4.9c-0.8-0.4-1.2-1.2-0.6-1.8c2.1-2.1,2-4.7,1.6-7.2c-1.2-7.9-0.6-15.6,2.4-23
		c0.6-1.4,0.5-1.8,0-4.1c2.3-1,2.3-3,1.6-5.4c3.4-1.6,2.7-3.9,1-6c0.9-1.5,2-0.3,2.9-0.6c2.4-1.8,1.8-4.6,2.8-6.9
		c-4.1-3.3-9.9-4.4-11.4-10.9c-1.3-5.8,0.5-10.4,3.4-14.8c-1.4-2.4-3-3-5.5-2.9c-3.9,0.2-7.7,0.5-11.6,1c-4.8,0.7-9.7-1.1-14.9-1.4
		c-2.6,1.8-4.2,4.3-4.4,8.1c-0.4,6.3,1.3,12.2,2.5,18.2c0.2,0.8,0.7,1.7,1.2,2.4c3.6,4.5,3.6,9.6,1.6,14.5c-1.6,3.7-0.5,6.8,0.8,9.9
		c3.2,7.4,5.8,15,9.4,22.2c0.5,0.9,0.9,1.8,1.7,2.5c4,3.5,7.8,7.4,13.9,7.2c-2.7,0.9-5.5,1.6-8,0c-4.2-2.7-8.5-5.4-10.1-10.7
		c-0.8-2.5-2.6-4.6-3.9-7c-2.7-5.3-3.7-11.2-5.9-16.7c-1.9-4.6,0.5-8.9,1.2-13.4c0.1-0.4,0.2-0.9,0.3-1.5c-3.3-4.4-4.3-9.9-5.9-15.1
		c-1.9-6.1-1.1-12.2,0.8-18.1c1-3.1,3.4-4.6,6.6-4.3c2.3,0.2,4.7,0.3,7,0.7c3.2,0.5,6.3,0.4,9.6,0c4.4-0.6,9-0.1,14.6-0.1
		c6.1-4.3,14.4-7.5,20.6-13.9c1.4-1.4,3.1-2.2,4.8-3c5.3-2.6,10.2-5.7,14.5-10c6.1-6.1,13.6-10.3,21.6-13.7c8.3-3.5,16.9-5.6,26-5.5
		c5.1,0.1,9.8-1.8,14.2-4.5c1.3-0.8,2.1-2,2.9-3c5.4-6.6,12.6-11,19-16.4c1.1-0.9,2.2-1.9,3.2-2.7c0.6-3.1-0.6-5.9-0.2-8.8
		c-2.9-2.9-4.8-6.6-8.5-8.7c-0.4-0.2-0.6-0.8-0.9-0.9c-8.2-3-11.3-11.7-18.2-16.2c-0.4-0.3-0.9-0.7-0.4-1.7c1.5,0.4,2.4,1.7,3.5,2.7
		c3.2,2.8,7.1,5.1,9,9.3c0.5,1,1.5,1.7,2.6,2.1c3.2,1,5.7,3,8,5.2c0.6,0.5,1.2,1,1.7,1.6c4.9,7.5,12.9,10.1,20.8,13.9
		c0-7.2,0-13.8,0-20.7c-1.6-1-4.3-0.8-6-3c2.3-1.2,4.4,0.4,6.3,0.1c3.3-7.6,0-14.1-3.2-20.6c3.1,4.6,7.2,8.7,6.2,15.1
		c-1.3,8.1-1,16.3-0.8,24.4c0.1,3.6-0.2,7.2-1.4,10.6c-2.2,6.1-1.5,12.6-2.6,18.9c-1,5.4-1.5,10.9-3.9,15.9
		c-0.3,0.6-0.4,1.3-0.3,1.9c0.2,2.6-0.3,4.9-2.3,6.7c1,0.9,1.9,0.3,2.7,0.3c4-0.3,8-0.9,12-0.1c3.4,0.6,6.9-0.2,10.3-1.1
		c10.3-2.9,20.9-4.7,31.2-7.7c7.9-2.3,15.4-5.4,22.9-8.6c6.9-3,14.1-4.9,21.2-7.2c1.7-0.6,3.4-1,4.7-2.4c1.6-8.2,2.6-16.4,1.3-25.1
		c-1.5,1.6-2.9,2.9-4.2,4.4c-0.9,1-1.5,2.3-1,3.7c1.5,4.2-1.2,7.4-2.6,10.9c-0.7-2,0.2-3.8,0.7-5.6c0.3-1.2,0.7-2.4,0.2-3.6
		c-1.5-3.4,0-5.8,2.3-8.1c1.3-1.3,2.4-2.9,4.6-3.3c-1.1-6.1-4.2-11.3-6.9-16.7c-0.2,0.3-0.4,0.4-0.4,0.6s0,0.4,0.1,0.7l0.1-0.1
		c-1.2-1.4-2.2-2.7-1.7-4.9C633.3,494.8,631.3,493.7,631.2,492.1c0.1-0.2,0.3-0.3,0.4-0.4h0.2h-0.2
		C631.4,491.9,631.3,492,631.2,492.1z"/>
	<path d="M629.5,198.5c-3.7-3.2-8.4-4.5-12.6-6.7c-2-1.1-3.5-3-6-3.2c-1.5-0.1-2.7-0.1-4,1c-1.6,1.4-3.2,3.1-5.5,3.5l0.1,0.1
		c1.1-2.3,3.8-3,5.4-5.3c-4.5-1.8-8.8-3.2-13.4-0.6c-0.6,0.3-1.3,0.5-1.9,0.6c-8.5,2.3-9.7,3.5-11.3,12.3c-1.4-2.3-0.8-4.7-1.4-6.9
		c-1.7-0.4-3.2-0.1-4.7,0.8c4.6,4.9,4.8,10.9,4.2,17.2c-1.6-5.5-1.7-11.3-5.8-15.6c0-1,0.8-1.8,0.5-3.1c5.2-0.7,9.5-3,13.9-5.2
		c9.1-4.5,18.5-3.5,27.5,0.4c3.1,1.3,6.1,3,9.1,4.7c4.4,2.5,8.4,1.4,12.2-1c6.5-4.1,12.9-8.5,19.6-12.2c6.3-3.4,12.8-6.4,19.9-7.6
		c6.1-1.1,12.3,0.2,18.3,1s11.9,2,18,1.4c0.7-0.1,1.3-0.1,2,0.1c3,0.9,3.1,0.9,5.9-0.7c-0.5-0.8-1.3,0.2-2.1-0.6
		c0.6-1.6,1.6-3.1,2.8-4.5c2.8-3.4,5.5-6.8,6.2-11.3c0.2-1.1,0.9-2,1.7-2.8c2.2-1.9,2.7-4.8,4.3-7.4c2.3,1.1,4.1-1.1,6.3-0.7
		c0.3-1.6-1.9-2.3-1.1-3.8c1.3-0.2,1.5,1.3,2.4,1.6c1.1-0.6,0.4-2.5,2-2.8c1.7,0.2,0.9,1.7,1.2,2.7c2.2,0.5,4.4,0,6.6,0.2
		c1.4,0.1,3.3,0.2,3.4,1.6c0.3,2.8,2.5,2.6,4.2,3.5c5.4,2.9,10.2,6.8,13.3,12c1.3,2.2,3.5,4.1,3.7,6.8c1.6,0.9,3,1.4,4.6,0.8
		c0.8,1.1-0.7,0.9-0.7,1.8c1.6,0.4,2.5,1.8,3.8,2.9c-0.1,0.3,0,0.6-0.1,0.7c-3.9,2.5-7.9,4.9-11.9,7.3c-1,0.6-2.1,0.3-3.1,0
		c-1.9,5.1-3.8,9.9-8.2,12.9c-2.5,1.7-3.4,4.8-6.2,6c1.8,8.2,3.2,16.1,0.8,24.7c5.9-1.4,11.8-2.1,17.7-1.9
		c9.8,0.2,19.6-0.9,29.4,0.2c4.9,0.5,8.7,2.7,11.7,6.3c2.5,3.1,1.6,6.8,1.1,10.3c-1.1-1.9-1.1-4-1.3-6.1c-0.1-1.1,0-2.3-0.9-3.1
		c-3.2-2.8-6.2-5.7-10.9-5.9c-12.9-0.4-25.9-0.5-38.8,0.6c-3,0.2-5.8,1.5-9,1.3c-1.4,3.3-3.1,6.4-6,9.4c3.2,0,5.7-1.5,8.5-1.2
		c-0.9,1.4-2.7,0.9-3.7,2c-0.7,1.5,0,3.3-1.1,5.2c-0.1-1.8-0.2-3.2-0.2-4.8c-1.7,0.2-3.2,0.8-4.5,0.2c-2.1,1.3-1.5,3-1.2,4.6
		c0.7,3.4,1.9,6.7,1.4,11c5.7-2.9,11.5-4.2,17.3-4.7c1.6-8.4,2.3-9.2,7.5-8.6c-0.1,2.4-0.1,4.8,1.5,7.1c13.5-1.5,26.4-7.2,40.4-6.4
		c-6,2.7-12.7,2.1-19.1,4.1c2.3,24.8,5.2,49.6,6.3,74.7c15.3,4.2,30.8,5.1,46.4,8.1c1.8,4.6,3.6,9.4,5.6,14.6
		c-4.9-0.1-9.3,1.2-13.8,1.8c-1.8,0.2-2.6-1.4-4.2-1.6c-8.7-1.3-17.5-2.3-26.3-3.2c-2.6-0.2-5.1-0.6-7.5-1.4c-9.4-3-19.2-4.1-29-5.2
		c-6.1-0.7-12-2.8-18.1-3.3c-2.9-0.2-5.7-0.4-9-0.7c0.9-4.1,2.5-7.5,4.2-10.8c0.3-0.7,1.1-1.2,1.9-1.3c3.7-0.5,7.3-1.6,11.2-1.4
		c7.1,0.4,14.2,1.1,21.5,2.1c0.7-2.5-0.3-4.7-0.3-7c0-4.8,0.5-9.6-0.6-14.4c-0.9-4.1-2.1-8.2-3.2-12.3c-0.6-2.1-2.3-2.3-4-2.3
		c-8.3,0.1-16.5,0.9-24.6,2.2c-6.5,1-11.8,4.2-16.8,8.1c-3,2.3-6.1,4.4-10.1,5c-2.3,0.4-4.1,0.2-5.5-1.9c-0.8-1.2-1.8-2.2-2.9-3.4
		c-8.8,2-17.7,4.2-26.7,6c-10.7,2.1-21.7,3.1-32.4,5.5c-12.5,2.8-25.3,4.5-37.9,6.7c-6.6,1.2-11.1,4.9-15,9.8
		c-0.7,0.9-1.6,1.4-2.6,1.9c0.1,10.4-4.5,20-5.2,30.3c-0.3,4.6,0.4,9.1,0.2,13.6c13.8,4.4,27.6,7.9,42.1,10.7
		c1.7,5.5,1.7,11.6,3.7,17c-1.3,1.6-2.7,2.3-4.3,2.6c-5.2,1.1-10.2,2.1-15.7,1.2c-13.8-2.3-27.3-6-40.8-9.4
		c-13.4-3.4-26.9-6.5-40.1-10.8c-1.6-0.5-2.8-1.2-3.7-2.9c0.6-3.6,2.2-6.9,3.2-10.4c0.3-1.2,1.3-1.7,2.4-2c3.1-0.8,6.3-1.6,9.4-2.5
		c2-0.6,4,0.1,6,0.5c6.3,1.3,12.7,2.7,19,4c0.6,0.1,1,0.3,1.5,1.1c-2.3,0.8-4.3-0.2-6.2-0.6c-5.2-0.9-10.3-2-15.4-3.2
		c-2.7-0.7-5.1-0.3-7.5,0.5c-2.3,0.7-4.6,1.6-7.2,1.8c-1.2,3.7-2.4,7.2-3.6,10.8c28.4,6.9,56.4,15.4,84.6,21.3
		c1.3-0.8-0.3-1.9,0.9-2.5c1.1,0.6,0.4,2,1.8,3c4-0.8,8.4-1.3,13.1-2.9c-1.3-4.6-2.3-9.2-2.2-14.1c-5.7-3-12-4-18.3-4.9
		c-2.7-0.4-5.2-0.8-7.7-2c-4.6-2-9.6-2.9-14.4-4.2c-0.7-0.2-1.4,0.2-2.1,0.3c-1.3-1.5-0.2-3.1-0.3-4.6c-1.2-11.8,0.9-23.1,4.6-34.3
		c0.7-2,0.1-4,0.4-6c0.3-2.9,1-3.8,3.1-4c3.2-6.4,8.3-10.2,15.5-11.4c7.4-1.3,14.8-2.5,22.1-3.7c11.8-2,23.4-4.8,35.3-6.4
		c12.3-1.6,24.4-4.5,36.5-6.9c0.9-0.2,1.7-0.4,2.9-0.6c-2.9-4.6-3.9-9.5-3.6-14.8c0.4-5.1,0.6-10.2,0.8-15.2
		c-16,4.3-32.4,4.4-48.5,6.7c-7.6,1.1-15.1,3-22.8,3.7c-4.7,0.4-9.2,1.6-13.7,2.9c-3.4,1-7,1.6-10,1.6c-9.3,8.7-18.1,17.2-27.1,25.5
		c-1.4,1.3-2.2,2.7-2.4,4.6c-0.1,1.2-0.3,2.5-0.2,3.7c0.4,7.6-0.6,15.2-0.4,22.8c0.3,12.5-1.3,24.9-0.6,37.6c0.8,0.7,2-0.8,3.1,0.2
		c-2.3,0.8-4.2,2.5-7.5,1.4c2.8-1.5,2.3-3.8,2.3-5.8c0.2-8.5,0.5-16.9,0.9-25.4c0.3-7,0.3-14,0.4-21.1c0.1-4.6-0.4-9.3,0.3-14
		c-1.6,0-1.7,0.9-1.8,2c-0.3,10-1.5,20-1.3,30.1c0.1,5.6,0.2,11.4-0.7,17c-0.6,3.5-0.6,7.1-0.3,10.7c0.1,2.2-0.4,4.2-1.4,6.2
		c-4.2-0.2-8.1-1.4-11.8-3.2c3.6-0.1,7,1,10.6,2.1c1.8-21,1-42,3.3-63.3c-7.2,3.5-12.9,8.8-20.1,11.8c-1.5-1.1-4.1-0.5-5.1-2.6
		c-1.6-3.3-2.8-6.9-2.3-10.7c0.3-2.7-0.5-4.8-2.1-6.7c-1.3-1.6-2.6-3.4-4-5c-3.1-3.6-5.7-7.4-6.7-12.6c-7.9,2.7-15.9,0-23.5,2
		c-7.1-1.7-13,2.8-19.6,3.8c-10.9,1.5-21.8,3.6-32.8,4.8c-5.5,0.6-10.4,2.9-15,5.4c-4.9,2.7-10.6,3.6-15.3,6.7
		c-0.6,0.4-1.3,0.4-1.9-0.1c-0.4-1.5,0.8-1.9,1.7-2.5c2-1.3,4.1-2.3,6.4-3c4.9-1.5,9.4-4.1,14-6.4c3.5-1.7,7.2-2.4,11-2.8
		c12.9-1.5,25.6-3.7,38.4-5.9c3.3-0.6,6.1-2.5,9.5-2.4c1,0,0.9-2.3,2.5-2c0.9,0.7-0.6,1.2,0.3,2c5-1.6,10.4-0.8,15.8-0.8
		c7.6,0,14.8-2.1,22.2-4.4c-0.4-3.3-1.7-6.2-2.8-9.3c-2.4,0.1-4.6-0.4-7.2,0.2c1.4-1.6,1.4-1.6,5.5-3c-2.9-9.3-8.5-16.9-16.6-22.7
		c0.8-0.4,1.1-0.7,1.2-0.6c4.7,3,9.1,6.4,11.9,11.3c2.4,4.1,4.6,8.4,6.6,12.7c1.8,3.8,2.8,8.1,3.9,12.3c2.6,9.5,3.5,19.3,6.4,28.8
		c1,3.2,1,6.3-0.9,10.1c1.6-0.9,2.5-1.4,3.4-1.9c11.1-7.3,22.9-13.6,31.4-24.3c0.5-0.6,1-1.2,1.7-1.6c8.7-6.1,15-14.6,22.8-21.6
		c2.7-2.4,4.4-5.3,5-8.9c0.9-4.9,2.1-9.8,3.7-14.6c0.7-2,1.3-4,2.7-5.7c-2.4-5.3-4.3-10.6-4.4-17.1c1,4.8,1.9,8.9,3.7,12.8
		c1.1,2.5,1.5,4.5,0.4,7.5c-2.2,5.9-3,12.3-3.8,19.3c4.3-3.6,7.7-7.7,13-8.9c-0.7-1.4-1.8-0.1-2.8-0.8c3.6-14.4,3-28.5-5.7-41.3
		c-0.5,0.2-0.2,0.7-0.2,1.1l0.1-0.1c-1.1-1.4-2.2-2.7-1.7-4.9C631.6,201.2,629.6,200.1,629.5,198.5c0.1-0.2,0.3-0.3,0.4-0.4h0.2
		h-0.2C629.7,198.2,629.6,198.3,629.5,198.5z"/>
	<path d="M541.5,228.8c10.3-6.3,21.9-9.6,33-14.2l-0.1,0.1c4.6-1.3,9.1-2.6,13.7-4c1-0.3,2.1-0.5,3.2-0.6c-1.8,1.6-4.1,2.2-6.3,2.9
		c-12.7,4.3-25.1,9.4-37.1,15.2c-4.9,2.4-9.9,5.2-13.7,9c-3.3,3.3-7,4.9-11,6c-3.1,0.8-6.4,1-9.6,1.1c-15.3,0.6-29.8,3.9-43.4,11.1
		c-0.6,0.3-1.3,0.5-1.8,1c-9,8.1-20.2,12-31.1,16.7c-5,2.2-10.1,4.2-15.2,5.8c-0.4,1,0.9,1.5,0.6,2.4c-1.2,1.5-2.4,2.9-3.6,4.5
		c0.6,3.9,0.6,8.1,4.8,10.7c1.9,0,3.5-1.6,5.6-1.7c-1.9,1.6-4.8,1.8-6,4.5c0.4,1.1,0.9,2.3,1.8,3.5c2,0.1,4.2-0.2,6.2,0.7
		c2.8,1.2,3.2,2.9,1,5c-0.6,0.5-1.2,1-1.4,1.8c-1.8,6.2-4.9,11.6-8.9,16.7c-2.1,2.6-3.3,5.8-3.4,9.5c-0.2,6.7-0.8,13.4-0.5,20.1
		c0.1,2.7-1.1,5-3.4,6.6c-1.6,1.1-3.3,2.2-5.3,2.8c-2.5-0.3-3.4-2.5-4.9-3.9c-4.7-4.7-10.2-8.9-12-15.8c-1.3-5-2.4-10-3.3-15
		c-0.5-3-0.5-6-0.7-9c-0.1-1-0.4-2.2,0.5-3.4c1.4,0.7,1.4,2,1.6,3.1c0.8,5,1,10,1.7,15c1.3,9.5,6.1,16.8,13,23.1
		c0.7,0.6,1.4,1.1,2,1.8c0.5,0.6,1,1.2,1.4,1.8c6.1-1.6,7.5-3.4,7.4-9.3c-0.1-4.4-0.4-8.7,0.4-13c0.1-0.3,0.1-0.7,0-1
		c-0.5-7-0.5-7,2-12.5c0.3-1.1-1.2-1.6-0.9-2.8c0.7-1.9,2.3-1.5,3.7-1.3c0.9-0.7,1.3-1.4,1.7-2.3c-0.1-1-1.7-1.1-1.5-2.6
		c0.5-1.2,1.9-0.2,3-0.7c-0.7-1.2-3-1.7-1.8-3.6c1.1-1.7,2.6-0.3,4.3,0c1-2.9,2.7-5.5,4.7-7.6c-1.4-1.9-3-1.8-4.4-1.7
		c-2.8,0.2-4.9-0.8-6.9-2.6c-3.5-3.2-7-6.3-7.5-11.5c-0.2-1.7,0-2.9,1.4-4.2c1.8-1.7,3.3-3.6,5.1-5.6c-1.4-1.2-2.7-2.4-4-3.6
		c-2.7,1.3-5.6,1.5-8.5,1c-2-0.3-4-0.2-6-0.3c-1.3-0.1-2.8,0-4-0.5c-4.5-2.2-9.2-1-14.4-1.4c2.4,2.8,3,5.8,3.8,8.7
		c0.8,2.8,1.9,5.6,1.8,8.7c-2.5-4.1-3.2-8.9-5.4-13.2c0.2,4.1,0.2,8.2,0.7,12.3c0.5,4.1,1.2,8.2,2.3,12.2c1.1,4,2.2,8.1,3,12.2
		c-1.9-1.6-2.9-3.8-3.6-6c-3.4-10.7-5-21.7-4.6-33c0.1-2.4,1.3-4,3.6-3.9c4.4,0.1,8.9-0.9,13.1,1.3c0.2,0.1,0.4,0.2,0.6,0.2
		c6.3,0,12.6,2.1,19,0c1.6,1.6,3.5,1.5,5.5,0.8c10.4-3.6,20.3-8,30.4-12.4c6.1-2.7,11.3-6.6,16.6-10.6c6.2-4.7,13.7-6.4,21.1-8.1
		c6.3-1.4,12.6-2.8,19.2-2.9c2.4,0,4.6-1.7,7.2-1.1c0.7-4.5-0.5-8.5-0.3-13c-5.3-1.2-9.9-4.1-14.3-7.2c-2.1-1.4-4.2-2.7-6.7-3.4
		c-0.6-0.2-1.5-0.5-1.7-1c-1.6-3.2-5.4-4.2-7.3-7.2c-0.2-0.4-0.6-0.7-1-0.9c-4.8-2.5-8.7-6.8-13.9-8.7c-12.5-4.6-23.4-12-34.2-19.5
		c-6.4-4.5-12.7-9.2-19.6-12.8c-6.8-3.7-14.1-6.5-21.3-9.7c-0.4,3.6-3.9,6.4-7.3,6.4c-7.3,0-14.4,1.7-21.4,3.1
		c-1.9,0.4-2.6,2.7-4.4,3.5c-5.2,2.2-7.6,7-10.5,11.3c-0.7,1-1.3,2.1-2.1,3c-2.5,3-7.8,4.2-11.4,2.7c-2-0.9-2.2-1.8-0.7-3.7
		c-2.5-2.4-2.7-5.6-3.2-8.8c-1-6.7,0.7-12.6,3.7-18.4c0.5-0.9,0.9-1.8,1.1-2.8c1-4.2,3.3-7.5,6.4-10.4c3.4-3.1,6.6-6.6,9.9-9.9
		c1.6-1.7,2.2-3.9,2.7-6.1c2.3-9,8.9-14.1,16.2-18.7c1.9-1.2,3.8-2.3,5.5-3.8c0.5-0.5,0.9-1.4,2.2-0.8c-0.8,2.6-2.8,4.2-5,5.3
		c-4,2-7.1,5.1-10.4,7.8c-3.3,2.8-5.6,6.3-6.4,10.7c-0.9,4.8-3.9,8-7.4,11.1c-3.9,3.3-7.2,7.3-10.4,11.3c-0.4,0.5-1,1-0.8,1.7
		c0.5,2-0.6,3.5-1.4,5c-4,7.1-4.2,14.7-3.1,22.5c0.1,1,0.4,1.9,0.8,2.9c1.2,3.2,4.8,4.4,7.8,2.6c1.4-0.9,2.8-1.9,3.6-3.5
		c1.7-3.3,4.6-5.7,6.3-9c0.5-1,1.6-2.1,2.6-2.5c3.6-1.4,5.6-5.2,9.5-6c0.7-0.1,0.4-1.3,1.5-1.5c1.2,1.3,2.7,1.7,4.7,0.7
		c0.6-1.2-0.7-3.9,2.2-3.6c1.3,0.6,1,2.1,1.9,2.8c0.5-0.3,1.7-2.5,2-3.8c2.3-0.5,1.9,2,3,2.8c8.1-0.3,8.1-0.3,9.8-1.9
		c-5-2.6-5.9-6.8-4.5-11.8c0.5-1.9,0.5-3.7,0.6-5.6c0.3-5.4,2.5-7.7,7.6-8.2c1.8-0.2,3.4-1,5-1.6c0.8-3-0.2-5.2-2-7.5
		c-3.1-3.7-5.5-8.1-9.5-11.1c-0.8-4.1-4.4-6.5-6.4-9.6c1.1-1.7,2-1.1,2.6-0.3c2,2.4,5.1,4.2,5.4,7.8c0,0.2,0.1,0.5,0.3,0.6
		c3.8,3.1,5.7,7.5,8.7,11.2c1.8,2.3,3.4,4.4,2.8,7.5c2.4,1.7,4.9,2.8,7.5,3.7c8.2,3,16,6.9,23.8,10.6c5.5,2.6,11.4,3.2,17.2,3.9
		c9.4,1.2,18,4.2,25.5,10c2.6,2,5.3,3.7,8.1,5.3c5.7,3.3,10,8.2,15.1,12.2c2.2,1.8,4.6,3.1,7.4,3.7c2.2,0.5,4.2,1.7,6.3,2.3
		c3.6,1,7.3,1.6,11,2c8.6,0.8,17.1,1.9,25.3,4.5c5.6,1.8,11.1,3.4,16.9,3.3c0.9,0,1.7,0.4,2.6,0.6c0.1,0,0.2,0.4,0.5,1
		c-3.8,0.5-7.5-0.7-11.6-0.4c3.1,3.8,5.4,7.8,6.1,12.5c-2.2-4.3-5-8.2-8-12.8c-12.5-6-26.9-5.7-41.1-8.5c0.7,2.4,1.2,4.6,2,6.7
		c2.2,5.5,1.5,11.2,1.1,16.8c-0.3,4.1-0.6,8.2-0.6,12.4c0,1.3,0,2.8-0.4,4c-1.8,5.1,0.2,10.1-0.5,15.8c5-0.4,9.2-1.4,12.4-5
		c1.6-1.9,3.9-3,5.9-4.4C538.5,231,540.5,230.5,541.5,228.8L541.5,228.8z"/>
	<path d="M607.1,272.8c-1.2-2.6-0.1-4.6,1-6.6c3.7-6.8,7.2-13.6,8.3-21.4c0.8-5.7,1-11.3,0.8-17c-0.1-2.6-0.1-5.3,1-7.8
		c-0.3,6.5,0.8,12.9,0.4,19.4c-0.6,8.8-2.9,16.9-7.3,24.5C609.6,266.6,608.4,269.7,607.1,272.8z"/>
	<path d="M600.5,543.7c-4.3-0.6-7.4-2.8-10.1-5.8c-3.3-3.8-5.7-8.2-7.6-12.9c-1.6-4-3-8.1-4.7-12.9c2.1,1.3,2.3,2.9,2.8,4.2
		c1.8,4.8,3.6,9.6,6.1,14.1c3,5.3,6.7,9.8,12.5,12C600,542.5,600.4,542.7,600.5,543.7z"/>
	<path d="M408.8,323.3c-0.6-1.4-1.1-2.5-1.4-3.6c-0.7-2.7,0.9-5.2,3.6-5.8c2.3-0.5,4.7,0.9,5.3,3c0.6,2.4-0.9,4.8-3.6,5.5
		C411.3,322.8,410,322.5,408.8,323.3z"/>
	<path d="M409.6,304.4c2.4-0.1,4.4,1.7,4.6,4c0.2,2.5-2.2,4.9-4.9,4.9c-2.4,0-4.3-1.8-4.4-4.2C404.8,306.6,407,304.5,409.6,304.4z"
		/>
	<path d="M406.4,303.1c-0.8,0.7-1.4,1.3-2.2,2c-1.9-2.3,2.1-3,1.1-4.9c-0.7-0.9-1.9,0.6-3-0.8c2.3-2.2,5.5-1.9,8.3-3
		c0.9,2.2,2.2,4.2,0.6,6.3C409.9,304.4,408.1,304,406.4,303.1z"/>
	<path d="M604.4,503.2c0.3,10.8,4.1,21.6,10.4,32.4C609.1,532.5,601.6,510.2,604.4,503.2z"/>
	<path d="M592.9,484.8c2.4-0.2,4,1.4,5.5,2.8c6,5.2,10.5,11.8,15.2,18.3c-1.5-0.2-2.2-1.4-3.1-2.4c-4.1-4.9-7.9-10-12.5-14.4
		C596.3,487.4,594,486.8,592.9,484.8L592.9,484.8z"/>
	<path d="M523,261.9c-1.3,2.9-15.6,10.6-19.2,10.5C509.6,267.8,517.1,266.2,523,261.9z"/>
	<path d="M579,296.4c-2-0.5-2.6-2-3.3-3.4c-1.4-2.9-3-5.7-5-8.3c-2.7-3.3-3.5-7.3-3.6-11.7c0.4,0.2,0.6,0.3,0.6,0.4
		c0.5,5.3,2.9,9.6,6.2,13.8C576,290,577.3,293.3,579,296.4z"/>
	<path d="M787.6,231.6c-5.6,1.4-11.5,1.1-17,2.4c-1,0.8,0.3,2.1-0.9,3c0.2-1.5-1-2.3-1.5-4C774.6,231.5,781,231.2,787.6,231.6z"/>
	<path d="M769.4,526.6c7.1-1.4,13.4-1.9,19.9-1.4c-5.6,1.3-11.5,1.1-17.1,2.3c-0.7,0.9,0.1,1.9-0.6,3
		C771.2,529.2,770.5,528.2,769.4,526.6z"/>
	<path d="M392.4,321.2c2.3,8.2,8.6,15.1,8.4,24.2C399.9,336.6,393.2,330,392.4,321.2z"/>
	<path d="M519,472.3c-7.8-0.7-15.4-2.4-22.6-5.8C503.9,468.9,511.6,469.9,519,472.3z"/>
	<path d="M559.6,538.9c8.5,3.8,17.3,6.3,26.5,7.8c-9.4-0.8-18.5-2.8-26.8-7.4c-0.1-0.2-0.2-0.4-0.2-0.5
		C559.2,538.8,559.4,538.8,559.6,538.9z"/>
	<path d="M616.3,502.8c-4.8-6.4-10.3-12.1-16.6-17.1C606.8,489.8,612.4,495.4,616.3,502.8z"/>
	<path d="M369.2,597.6c6.6,4.3,5.2,11.4,6.4,17.6C373.2,609.5,374.4,602.4,369.2,597.6z"/>
	<path d="M565.5,482.3c2.8,6.3,2.5,13.1,2.4,20.3C566.7,495.5,567.2,488.8,565.5,482.3z"/>
	<path d="M591.1,516.3c-4.1-2.7-4.8-7.7-1.6-10.9C589.6,509.2,589.1,512.7,591.1,516.3z"/>
	<path d="M541.5,228.8c-1.1-4.2-0.5-8.4-0.1-12.6c0.1-1.7,0.3-3.3,0.7-4.9C542,217.1,542.8,223,541.5,228.8L541.5,228.8z"/>
	<path d="M579.6,507.6c-0.4-4.7-0.1-9.4,1.8-13.8C581.6,498.5,580.5,503,579.6,507.6z"/>
	<path d="M612.5,232.1c-2.7,5.4-5.3,10.9-8,16.3c-0.2-0.1-0.4-0.2-0.6-0.3c2.7-5.4,5.4-10.9,8-16.3
		C612.1,231.9,612.3,232,612.5,232.1z"/>
	<path d="M599.6,227.9c2.4-4.8,4.9-9.7,7.3-14.5C606.6,217.2,602.7,224.8,599.6,227.9z"/>
	<path d="M566,198.8c1.8,4.6,2.7,9.3,2.9,14.1C567.2,208.3,566.8,203.5,566,198.8z"/>
	<path d="M390.1,312.4c-1.7-4.6-3.1-9.3-2.4-14.3C387.9,303,389.6,307.6,390.1,312.4z"/>
	<path d="M532.7,242.3c-4.8,3.6-6.9,4.1-9.7,2.3C526.4,243.4,529.7,243.5,532.7,242.3z"/>
	<path d="M371.7,129.5c1.2-4,4.8-6.5,5.5-10.7C377.7,123.6,374.3,126.3,371.7,129.5z"/>
	<path d="M618.3,379.5c-4.2-0.1-8-1.9-12-2.9C610.6,376.5,614.4,378.1,618.3,379.5z"/>
	<path d="M620,673.2c-4.2-0.2-8.1-1.8-12.1-3C612.3,670.1,616.1,671.7,620,673.2z"/>
	<path d="M559.7,240.6c0.2,4.2,0.4,8.3,0.6,13.1C558.7,251,558.4,244,559.7,240.6z"/>
	<path d="M574.4,214.6c-1.3-2-0.4-4.3-0.7-6.4c-0.2-1.6,0-3.2,0.3-4.9C574.5,207.1,576.1,210.8,574.4,214.6L574.4,214.6z"/>
	<path d="M759.5,528.6c2.1,3.4,1.9,7,1.2,10.7C760.3,535.7,759.9,532.2,759.5,528.6z"/>
	<path d="M759,245.6c-0.4-3.5-0.8-7-1.2-10.6C759.5,237,760,240.4,759,245.6z"/>
	<path d="M531.5,262.3c2.9-1.1,5.4-1.9,8.3-3C537.8,262.3,535.5,263.2,531.5,262.3z"/>
	<path d="M623.2,674.6c2.6-3.1,6.3-2.2,9.6-2.8c0.1,0.2,0.1,0.5,0.2,0.7C629.7,673.1,626.4,673.8,623.2,674.6L623.2,674.6z"/>
	<path d="M621.5,381c2.6-3.1,6.3-2.2,9.6-2.8c0.1,0.2,0.1,0.5,0.2,0.7C628,379.5,624.7,380.2,621.5,381L621.5,381z"/>
	<path d="M376.2,637c2.3,2.7,3.9,5.8,5.6,8.8c-0.2,0.2-0.5,0.3-0.7,0.5c-1.9-2.9-3.8-5.8-5.6-8.7C375.7,637.4,376,637.2,376.2,637z"
		/>
	<path d="M598.8,499.3c0.5,3.1-0.3,6.2-0.4,10C597.1,505.9,597.2,502.6,598.8,499.3z"/>
	<path d="M798.3,531.1c-0.7-2.5-1.3-5-2-7.6c0.3-0.1,0.6-0.1,0.8-0.2c1.4,2.3,1.9,4.9,1.8,7.6C798.8,530.9,798.5,531,798.3,531.1z"
		/>
	<path d="M795.3,229.7c1.7,2.2,1.9,4.8,2,7.5c-0.2,0.1-0.4,0.1-0.7,0.2c-0.7-2.5-1.4-4.9-2-7.4C794.8,229.9,795.1,229.8,795.3,229.7
		z"/>
	<path d="M633.5,250c0.3-2.5,0.1-5.2,1.8-7.4C635.8,245.3,634.1,247.6,633.5,250z"/>
	<path d="M621.4,380.9c-0.2,2.4,0.3,4.8,0.6,7.9c-1.9-2.6-2-4.9-1.9-7.3C620.2,380.8,621,381.1,621.4,380.9L621.4,380.9z"/>
	<path d="M344.6,175.2c-1.1,2.5-1.4,5.3-3.2,7.5C341.4,179.7,342.6,177.3,344.6,175.2z"/>
	<path d="M623.1,674.5c-0.2,2.4,0.3,4.8,0.6,7.9c-1.9-2.6-2.1-4.9-1.9-7.3C621.9,674.4,622.7,674.7,623.1,674.5L623.1,674.5z"/>
	<path d="M591.1,486.6c4,0.3,5.2,2.9,6.8,5.1C595.8,490.1,593.8,488.6,591.1,486.6z"/>
	<path d="M599.3,259.5c0.5-2.9,1.8-6.1,3.9-8.8C602,253.7,601.1,256.8,599.3,259.5L599.3,259.5z"/>
	<path d="M586.4,206c-0.9,1.9-2,3.5-4.1,4.3C583.1,208.2,584.5,206.9,586.4,206z"/>
	<path d="M500.7,273.4c-1.7,1.8-3.4,1.9-5.4,2.4C497.3,273.6,497.6,273.4,500.7,273.4z"/>
	<path d="M519.7,501.2c1.7-1.2,3-1.8,4.6-1.7C523.9,501.8,523.7,501.9,519.7,501.2z"/>
	<path d="M390.2,672.9c-1.9-1.9-2.3-2.7-3.1-5.4C389.3,668.9,389.8,670.9,390.2,672.9z"/>
	<path d="M559.3,539.2c-1.9-0.6-3.4-1.9-4.8-3.4c1.9,0.6,3.5,1.9,5.1,3C559.5,539,559.4,539.1,559.3,539.2z"/>
	<path d="M382.5,107.8c0.4,2.3-0.3,3.9-1.5,5.4C381.3,111.5,381.1,109.6,382.5,107.8z"/>
	<path d="M529.7,261c-1.4,1.4-3.4,1-4.7,2C526.1,261.5,527.3,260.2,529.7,261z"/>
	<path d="M348.8,166c0.5,2.2-0.3,3.5-1.4,5.2C346.7,168.9,347.5,167.7,348.8,166z"/>
	<path d="M800.6,528.9c-1.1-1.4-1.6-3-1.6-5.2C800.4,525.5,800.5,527.2,800.6,528.9z"/>
	<path d="M596.7,271c0,1.9-0.3,3.7-1,5.4C595.4,274.5,595.5,272.7,596.7,271L596.7,271z"/>
	<path d="M797.4,230.7c1.3,1.2,1.2,2.9,1.4,4.5C797.6,234,797.5,232.3,797.4,230.7z"/>
	<path d="M587,664.6c2.4-0.4,3.7,0.5,5.1,1.3C590.6,665.5,588.9,665.8,587,664.6z"/>
	<path d="M384.7,658.7c-1.1-1-1.6-2.3-1.5-4.1C384.6,655.8,384.6,657.3,384.7,658.7z"/>
	<path d="M529.4,510.5c-1.7,0-3-0.1-4.1-1.1C527.1,508.5,527.1,508.5,529.4,510.5z"/>
	<path d="M563.2,659.6c-1.4-0.4-2.9-0.3-4.7-1.7c2.1,0.4,3.5,0.7,4.9,1C563.3,659.1,563.2,659.3,563.2,659.6z"/>
	<path d="M598.5,192.2c1-1.4,2.2-2.2,3.9-2.3C601.3,191.2,600,191.9,598.5,192.2z"/>
	<path d="M561.5,365.9c-1.3-0.3-2.7-0.6-4-0.9c0-0.2,0.1-0.4,0.1-0.6c1.4,0.3,2.8,0.5,4.1,0.8C561.6,365.5,561.6,365.7,561.5,365.9z
		"/>
	<path d="M523,472.1c1.2-0.9,2.3-0.2,3.4,0.2C525.3,473,524.2,472.7,523,472.1z"/>
	<path d="M537.7,265c0.9-1,1.8-1.9,3.4-1.6C540.4,265.4,538.8,264.8,537.7,265z"/>
	<path d="M435.7,422.3c1.5-0.5,2.2-0.1,2.8,1.1C437.2,423.7,436.2,424.2,435.7,422.3z"/>
	<path d="M584.6,200.7c0.2-1.1,0.5-2.3,0.8-3.7C585.8,198.9,585.8,198.9,584.6,200.7z"/>
	<path d="M590.4,491.5c-0.6,1.4-0.9,2.2-1.2,3C589.1,493.5,588.8,492.5,590.4,491.5z"/>
	<path d="M806.6,233.8c0.7,0.9,0.4,1.9,0.3,2.8C806.8,235.7,806.7,234.7,806.6,233.8z"/>
	<path d="M608,191.4c0.9-1,1.9-1,3.3-0.7C610.1,191.2,609.2,191.7,608,191.4z"/>
	<path d="M808.2,526.7c1,1.6,0.3,2.6,0.3,3.5C808.5,529.2,808.4,528.3,808.2,526.7z"/>
	<path d="M600.8,484.4c1.9,0.3,2.4,1,3.1,2.1C602.6,486.2,601.9,485.7,600.8,484.4z"/>
	<path d="M467.7,259.6c1.2-1.4,2.2-1.7,3.9-2.1C470.4,258.8,469.4,259.1,467.7,259.6z"/>
	<path d="M543.8,489.9c-1.5,0.5-2.5,0.1-3.3-0.9C541.7,488.4,542.6,488.8,543.8,489.9z"/>
	<path d="M352.7,159.1c0.6,1.4,0.1,2-0.7,2.6C351.3,160.7,352,160.1,352.7,159.1z"/>
	<path d="M364.6,134.9c-0.5,0.8-1.2,1.3-2.3,1.8c0.4-1.2,1.1-1.7,2.1-2L364.6,134.9z"/>
	<path d="M430.9,294.3c0.6-1.3,1.6-1.5,2.9-1.5C433.1,293.9,432.4,294.5,430.9,294.3z"/>
	<path d="M594.1,490.8c1.3,0.5,1.9,1.1,2.2,2.6C595.1,492.7,594.4,492.2,594.1,490.8z"/>
	<path d="M610.7,485.8c0.4,0.5,0.8,0.9,1.1,1.4C611.1,487.1,610.8,486.5,610.7,485.8z"/>
	<path d="M440.8,424.4c1.3,0.1,1.9,0.4,2,1.6C441.8,426,441.2,425.5,440.8,424.4z"/>
	<path d="M527.4,192.4c-0.9-0.6-1.4-1.2-1.4-2.6C527,190.5,527.7,191,527.4,192.4z"/>
	<path d="M357.4,148.6c-0.3-0.8-0.2-1.3,0.3-1.6c0.2-0.2,0.5-0.1,0.5,0.2C358.4,147.7,358.1,148.2,357.4,148.6z"/>
	<path d="M547,238c0.1,0.9-0.1,1.7-1.1,2.7C545.9,239.4,546.2,238.7,547,238L547,238z"/>
	<path d="M550.3,485.2c0-1.2-0.9-2,0.1-2.9C551.1,483.2,550.7,484.1,550.3,485.2z"/>
	<path d="M440.7,289.2c-0.4,1.1-1,1.2-2,0.9C439,288.7,439.9,289.1,440.7,289.2z"/>
	<path d="M449.8,428.1c0.9,0,1.3,0.3,1.6,1.1C450.5,429.4,450.1,429,449.8,428.1z"/>
	<path d="M597.2,267.4c0.1-0.7,0.2-1.4,0.4-2.2C597.9,266.2,597.7,266.8,597.2,267.4L597.2,267.4z"/>
	<path d="M383,652.4c-0.8-0.4-0.8-1-0.4-1.6C383.1,651.3,383.7,651.7,383,652.4z"/>
	<path d="M355.4,152.3c0.5,1-0.1,1.4-0.6,2C354.4,153.5,354.8,153,355.4,152.3z"/>
	<path d="M596.7,271c-0.2-1.2,0.1-2.4,0.5-3.6l-0.1-0.1C597.2,268.6,597.5,269.9,596.7,271L596.7,271z"/>
	<path d="M374.1,629.5c0.8,0.2,0.8,0.5,0.4,1.1C373.8,630.5,373.6,630.1,374.1,629.5z"/>
	<path d="M358.8,145.3c-0.1-1.3,0.1-1.8,0.7-2C360.1,144.1,359.5,144.5,358.8,145.3z"/>
	<path d="M534.9,496.6c-0.6,0.1-1-0.2-1.2-0.8c0.6-0.6,1.1-0.3,1.6,0.1C535,496.2,534.9,496.4,534.9,496.6z"/>
	<path d="M515.5,497.5c0.5,0.8,0,1.1-0.6,1.4C514.7,498,514.7,498,515.5,497.5z"/>
	<path d="M502.7,485.9c-0.8,0.2-1.3,0.1-1.3-0.6C502,484.8,502.3,485.3,502.7,485.9z"/>
	<path d="M533.7,215.7c-0.9-0.9-0.6-2-0.9-3.1v0.1C533.7,213.6,533.3,214.8,533.7,215.7L533.7,215.7z"/>
	<path d="M532.8,212.7c-0.2-0.7-0.5-1.4,0-2.2C532.7,211.2,532.7,212,532.8,212.7L532.8,212.7z"/>
	<path d="M599.2,259.4c0.1,0.6,0.2,1.2-0.3,1.7C598.6,260.5,598.7,259.9,599.2,259.4L599.2,259.4z"/>
	<path d="M547,238.1c-0.1-0.7,0.2-1.1,0.9-1.5C547.9,237.4,547.7,237.9,547,238.1L547,238.1z"/>
	<path d="M634.7,501.4c0.3,0.5,0.6,1.1,0.1,1.8C634.7,502.5,634.7,501.9,634.7,501.4L634.7,501.4z"/>
	<path d="M392.1,677.2c-0.7-0.3-1.2-0.7-0.9-1.6C392.3,675.6,392.4,676.2,392.1,677.2z"/>
	<path d="M364.4,134.6c0.3-0.7,0.9-1,1.8-1.2c-0.3,1-0.9,1.3-1.6,1.4L364.4,134.6z"/>
	<path d="M632.9,207.7c0.4,0.5,0.5,1.1,0.1,1.8C633,208.9,633,208.3,632.9,207.7L632.9,207.7z"/>
	<path d="M601.3,193.1c-0.3,0.4-0.7,0.7-1.3,1.5C600.3,193.3,600.9,193.2,601.3,193.1L601.3,193.1z"/>
	<path d="M533.6,215.8c0.2,0.5,0.3,1,0.5,1.5c-0.1,0-0.3,0-0.4,0.1C533.7,216.8,533.7,216.3,533.6,215.8L533.6,215.8z"/>
	<path d="M482.6,275.3c0.1,0.4-0.2,0.5-0.5,0.6c0,0-0.2-0.1-0.2-0.2C482,275.2,482.3,275.1,482.6,275.3z"/>
	<path d="M556.5,592.1c-0.6,0.1-1,0-1-0.7C556.2,591.2,556.4,591.5,556.5,592.1z"/>
	<path d="M518.1,276.7c0.1-0.8,0.4-1,1-0.9C519.3,276.4,518.9,276.6,518.1,276.7z"/>
	<path d="M589.6,368.5c0.1-0.8,0.4-1,1-0.9C590.8,368.3,590.5,368.6,589.6,368.5z"/>
	<path d="M447.9,286.5c-0.6,0.5-0.9,0.5-1.3,0.3C446.7,286.3,447.1,286.4,447.9,286.5z"/>
	<path fill="#FFFFFF" d="M636.2,492.3c1.3-1.7,2.9-2.6,4.6-3.4c-2.2-0.1-4.2-0.3-6.3,0.4c9.4-4.4,17.4-11,26.4-15.9
		c5.6-3,11.8-4.6,18-6.2c3.6-0.9,7.1,0.6,10.7,0.4c-3.1,1.5-6.9,1.2-10.5,3.7c7.6,0,14-4.3,21.3-2.1c-0.1,1.4,2.2,2.1,1,4.2
		c2-0.2,3.7,0.4,5.5,1c2.5,0.8,4.7,3,7.8,1.7c0.6-0.3,1.8,0.2,2.5,0.6c5,2.8,10.5,2.9,15.9,2.9c1,0,1,0,2.5,0.9
		c-9.4,2.5-18,6.9-25.7,12.8c-7.3,5.6-11,13.5-12.2,22.3c-0.7,5.2,1.6,9.9,6.4,12.8c2.7,1.6,5.3,3.8,8.7,4.3
		c-3.5,1.5-7.1,1.6-10.8,1.9c-7.3,0.6-14.8-0.2-22,1.2c-7.1,1.4-14.4,1.6-21.3,4c-3.4,1.2-7.1,1.3-11.4,2c2-1.8,4-2.6,5.2-5.1
		c-2.7,1.3-4.8,2.4-7,3.4c1.9-3,1.3-6.5,2.4-9.6c0.4-1.2-1.1-1.8-0.8-3.1c0.6-2.3-0.1-4.7,1.1-7.1c1-1.9,0.5-4.5-0.7-6.5
		c-2.9-4.5-4.8-9.6-6.9-14.5C639.6,496.7,637.9,494.3,636.2,492.3z"/>
	<path fill="#FFFFFF" d="M707.7,518.9c-0.2,0.5-0.9,0.7-0.6,2c4.4,0.5,8.9,0,14-0.5c-2.8,3.3-4.8,6.7-6,10.4
		c-7.6-1-13.5-6.3-15.1-13c-0.6-2.4-0.4-4.6,0.8-6.8c5.4-9.9,12.4-18.1,22.9-23.2c4.4-2.2,8.6-4.6,13.6-5.2c3.2,4.4,8,7.1,11.9,10.6
		c1.7,1.5,2.6,3.3,2.9,5.4c0.5,3.1,1.1,6.2,1.6,9.2c0.3,1.8,0.1,3.6-0.3,5.3c-1.5,6.1-3.7,11.9-8.8,16.2c-1.2,1-2.1,2.2-1.6,3.8
		c3,9.7,0.3,18.9-2,28.3c1.8-1.7,2.5-4,3.3-6.1c0.9-2.3,1.6-4.7,2.3-7c0.8-0.4,1,0.7,1.7,0.6c2-1.2,3.9-2.3,5.9-3.5
		c1.5-0.9,3.1-1.1,4.8-0.7c2,0.5,4,0.5,5.6-0.1c2.2-3,0.5-7.7,5.2-9.9c-0.4,3,1.9,4.7,1.8,7.3c-0.4,1.5-2.1,2.8-1.5,5
		c1.5-1.6,2-3.6,3.6-5.1c1.4-0.2,2.9-0.7,5.3-0.5c-3.7,1.8-5,5.3-8.3,6.5c-1.3,0.5-2.3,1.5-2.8,2.7c-1.7,3.9-5.3,4.5-8.8,4.7
		c-1.3,0.1-2.1,0.5-2.7,1.4c-2.6,4-5.8,7.6-7.7,12.1c-2.2,5-5.7,8.7-10.8,10.9c-1.6,0.7-2.9,1.7-4,3c-3.3,3.7-7.6,4.9-12.6,5.3
		c-3.7-3.9-7.3-8.3-8.3-13.7c-0.9-4.6-0.4-9.6,0.1-14.3c0.9-8.8,2.5-17.5,3.3-26.2c0.6-6.2,4.2-10.6,8-15c2.6-2.9,4.5-6.2,6.1-9.7
		c-1.9,1-2.5,3-3.9,4.4c-0.3-0.3-0.6-0.5-1-0.9c-0.4,1.1-0.8,2.1-1.3,3.4c-2.9,0.9-6,1.8-9.1,2.7c-0.8-0.5-0.3-1.8-1.9-2.2
		C711.8,516.8,709.8,518,707.7,518.9c-0.4-0.4-0.9-0.6-1.4-0.8C706.8,518.3,707.3,518.5,707.7,518.9z"/>
	<path fill="#FFFFFF" d="M504.6,544.2c6,2,10.8,5.1,15.3,8.6c1.3,1,1.7,2.6,2.6,3.8c1.5,2.1,3.2,4,5.1,5.8c0.5,3.6-0.2,7.8,4.3,9.9
		c-3.7,1.8-7.9,1.3-11.1,3.4c-5.2,3.2-11.1,3.6-16.8,4.5c-6.9,1.1-13.5,2.8-19.8,5.8c-4.5,2.1-9.2,3.4-13.9,4.7
		c-8.2,2.3-15.9,5.9-23.7,9.3c-3.4,1.5-7.1,2-10.6,3.1c-6.6,2.1-12,6.3-17.8,9.8c-3.2,1.9-6.3,4.2-10,6.1c-1-1.9-2.1-3.8-3.1-5.6
		c1.5-2.1,3.8-3,5.2-5.1c-2.2,0.7-4.4,1.4-6.6,2.1c-2.5-3.8-4.4-7.7-2.7-13c3.2-1.9,7-4.3,10.8-6.6c3.7-2.2,7.1-4.6,10.2-7.5
		c3-2.9,7.1-4.1,10.7-6.2c2.3-1.3,4.3-2.8,5.9-4.8c2.3-2.7,5-4.7,7.9-6.6c6-3.9,12-7.7,18.6-10.6c5.7-2.5,11.7-3.3,17.6-3.5
		C490.8,551.2,498.3,549.8,504.6,544.2z"/>
	<path fill="#FFFFFF" d="M799.3,613.9c15.4,4.8,31,5.2,46.5,8.3c1.3,3.4,2.1,7.4,4.1,11.3c-3.9,0.5-7.5,1-11.1,1.5
		c-1.8-3.3-2.3-6.8-4.1-10.6c-0.3,2.4,0.5,3.8,0.9,5.2c0.4,1.5,0.9,2.9,1.4,4.6c-5.6-0.8-11-1.6-16.4-2.3c-4.9-0.7-9.7-1.6-14.6-1.7
		c-1.6,0-3-0.8-4.5-1.2c-7.6-2.3-15.5-3.6-23.3-4.4c-10.2-1-20.1-4.4-30.7-4.6c0.5-2.9,2-5.3,2.5-7.7c5.1-1.7,9.8-2.3,14.9-1.9
		c6.3,0.6,12.7,0.9,19.1,1.9c0.1,1.1,0.2,2.2,0.3,3.2c0.3,0,0.5,0,0.8,0c-0.6-2.9,0.5-5.7,0.2-8.6c-0.2-1.7-0.4-3.4-0.3-5
		c0.6-8.3-1.2-16.2-3.5-24.1c-1.3-4.6-2.5-5.6-7.4-5.4c-7.7,0.2-15.4,0.8-23,2.2c-1.1,0.2-2.2,0.3-3.5,0.5c2.9-6,6-11.6,10.2-16.4
		c0.6-0.7,1.3-1.1,2.2-1.3c1.9-0.5,3.9-1.2,5.8-1.7c1.3-0.4,2.3-1,2.8-2.2c2-4.5,6.6-6.4,9.8-9.8c0.8-0.9,1.8-1.6,2.1-2.9
		c3.9-0.9,7.8-1.9,12.4-3C795.2,563.6,797.7,588.7,799.3,613.9z"/>
	<path fill="#FFFFFF" d="M405.5,389.9c1,2.1,2.8,3.2,4.9,3.7c2.4,0.6,4.3,2.1,5.7,3.9c2.2,3,4.9,5.5,7.8,7.8c2,1.6,3.8,3.4,4.7,6.1
		c-2.8,0.5-5.7,0.6-7.5,3.3c-0.5,0.7-1.3,1.4-1.2,2.3c0.4,3.4,0.1,6.9,1.8,10.1c0.7,1.3,1.4,2.4,2.8,3.2c1.8,1,3,2.7,4.2,4.3
		c2.7,3.5,1.8,8.7-2.6,10.2c-1.1,0.4-2.2,1.1-3.6,1.1c-1.1-0.5-0.7-2.4-2.4-2.7c-2,0.2-1.4,1.8-1.3,3.1c-1.7,1.8-2.8-0.1-4.1-0.9
		c-1.4,1.9-2.5,4.3-5.2,2.4c-1.9,2-3.9,3.3-6,4.6c-4.2,2.4-6,6.8-8,10.8c-1.8,3.6-4.2,6.9-5.7,10.6c-0.5,1.3-1.7,1.7-2.9,2
		c-1.2,0.3-2.4,0.5-3.8,0.7c-4-1.1-5.5-4.4-6.3-8.3c-1.2-6,0-11.8,1.1-17.6c0.9-5,2.2-10,3.5-15c1.1-4.6,3.8-8.8,6.3-12.9
		c0.3-0.6,1.1-1.1,1.1-1.6c0.4-5.5,3.6-10.3,4.3-15.7c0.1-0.4,0.2-0.9,0.4-1.2c2.5-4,5-7.9,7.4-12
		C402,390.6,403.2,389.8,405.5,389.9z"/>
	<path fill="#FFFFFF" d="M637.6,548.1c2.1-1.7,4.3-3,7.1-3.4c7.5-1.1,14.9-2.9,22.3-4.4c11.8-2.5,23.8-3.5,35.9-3.7
		c3.8-0.1,7.5-0.8,11.5-2.6c-0.8,5.6-1.6,10.9-2.4,16.5c-4.7,2.3-9.9,3.4-15.2,3.8c-15.2,1.2-30.4,2.8-45.5,5.5
		c-5.8,1-11.7,1.8-17.6,2.6c-1.6,0.2-3,0.6-4.5,1.2c-7.4,2.8-15.1,4.7-22.8,6c-5.1,0.9-10.5,0.5-15.7,0.2c-4.8-0.2-9.6,1-14.2-0.9
		c7.3-2.5,14.8-4.6,22.3-6.6c0.2,0.4,0.4,0.9,0.7,1.4c1.8-4,5.9-4,9.1-5.3c0.1,1.8-0.8,3.4-0.9,4.7c0-1.2,1.1-2.8,0.8-4.6
		c7.8-4,16-7.2,24.4-9.8c0.9-0.3,2-0.1,3-0.2c0.6,0.4,1.3,0.3,1.9,0.1c0.4-0.1,0.4-0.6,0.1-0.3C637.6,548.6,637.7,547.7,637.6,548.1
		z"/>
	<path fill="#FFFFFF" d="M548.6,603.7c-3.2,0.4-6.3,0.1-9.4-0.4c-2.8-0.5-5-1.9-6.9-4.3c-5-6.4-10.9-12-17.1-17.7
		c8-5.2,16.7-7.6,26.2-8.3c0.8,1.9,2.1,2.9,4,3.6c2.6,0.9,4,2.4,4.2,5.9c0.3,4.3,1.3,8.6,1.2,12.9
		C550.8,598.4,550.4,601.2,548.6,603.7z"/>
	<path fill="#FFFFFF" d="M532.6,570c-2-1.5-2-3.8-2.4-5.8c-1.2-6.4-1.3-12.9-0.8-19.3c0.7-8-0.4-15.8-1.1-23.7c-0.2-2-0.4-4-0.6-6.4
		c5.3,3,9.8,6.9,15.5,8.3c-2.8,9.2-1.6,18.5-3.8,27.4c-0.9,3.6-1.3,7.3-3,10.6c-0.6,1.1-0.4,2.2-0.4,3.3
		C536.1,567,534.9,568.8,532.6,570z"/>
	<path fill="#FFFFFF" d="M749.4,472.6c-0.5,2.4-0.6,4.7,0.9,6.8c1.7-0.8,0.2-1.9,0.6-2.7c0.2-1,1.6-0.3,1.7-1.3
		c-0.9-0.5-1.5-1.2-0.6-2.2c0.8-0.7,1.3,0.9,2.1,0.3c0.9-0.4,1.2-1.2,1.1-2.1c-0.4-0.8-1.3-0.1-1.8-0.5c0.5-1.2,1.8-1.2,2.4-2
		c0.3-0.7-0.4-0.9-0.8-1.2c0.4-0.8,1.2-0.7,2-1.1c1.3,4.9-3.3,8.6-2,13.5c2.6-4.6,5.1-9.1,11.9-8c-1.9,4.8-3.1,9.6-5.6,13.4
		c-1.2,0.5-1.7-0.1-2.3-0.4c-0.5-0.3-0.9-0.6-1.9,0c0.3,3.1-1.1,5.6-4.5,6.8c-2.6-1.7-5.5-3.2-8-5.4c0.2-3.4,3.2-5.5,4.1-9.3
		c-4.5,1.3-3.7,5.4-5.6,8c-2.1-1.2-3.8-2.8-4.9-4.8c-1-1.6-2.3-2.6-4-2.6c-6.8,0-13.2-1.7-19.4-4.5c-2.9-1.3-6.1-0.7-9.5-2.1
		c2.4-1.5,4.4-1.3,6.5-1.1c4.4,0.3,8.9,0.5,12.8-2.1c0.8,0.5,0.1,1.6,1,1.9c2.4,0.9,4.6,2.4,7,3c2.8,0.8,5.9,0.3,8.9,0.3
		c1.5,0,2.9-0.7,3.8-1.9c1.3-1.8,3.2-2.2,5.1-2.7C751.1,470.6,749,471.3,749.4,472.6L749.4,472.6z"/>
	<path fill="#FFFFFF" d="M506.5,542.6c6.2-6.6,13.4-11.3,19.9-17.7c0.5,5.6,1,10.5,0.8,15.4c-1.2,0.8-2.1-0.4-3.3-0.1
		c1,0.9,2.3,1.2,3.1,2.4c-0.4,1.7,0.8,4.1-1.5,5.6c2.6,2.7,0,6.5,1.4,10C522.3,550.4,515,546.2,506.5,542.6z"/>
	<path fill="#FFFFFF" d="M407.2,621.5c-8-1.3-13-10.7-8.8-16.6C401,610.7,403.3,616.5,407.2,621.5z"/>
	<path fill="#FFFFFF" d="M426.1,414c-1.2,3.1-2.9,6-3,9.4C421.4,417.1,422.2,414.5,426.1,414z"/>
	<path d="M637.6,548.1c1.6-0.4,3.1-0.8,4.8-0.4c-1.9,1.2-4.1,1.4-6.3,1.6c0,0-0.1-0.6-0.2-0.9C636.5,548.3,637.1,548.2,637.6,548.1z
		"/>
	<path fill="#FFFFFF" d="M643.4,538.1c-0.3-1.7,0.6-3,0.9-4.6C645.5,535.1,645.5,535.1,643.4,538.1z"/>
	<path fill="#FFFFFF" d="M643.9,513.6c-0.2-0.1-0.4-0.2-0.5-0.3c-0.5-1.2-0.9-2.5-1.1-3.8c1.1,1.1,2,2.3,2.3,3.8
		C644.3,513.4,644.1,513.5,643.9,513.6z"/>
	<path fill="#FFFFFF" d="M638,499.6c-1.6-1.1-2.1-2.6-3.1-3.8C636.3,496.2,636.3,496.2,638,499.6z"/>
	<path fill="#FFFFFF" d="M644.6,515.4c1,1.1,1.5,1.9,0.3,3.1C644,517.7,643.8,516.9,644.6,515.4z"/>
	<path fill="#FFFFFF" d="M631.2,492.1c0.4-0.6,0.5-1.4,1.2-1.7c0.8,0.3,0.6,1.1,0.9,1.6l0.1-0.1C632.6,492.3,631.8,492,631.2,492.1
		L631.2,492.1z"/>
	<path fill="#FFFFFF" d="M763.8,459c-0.8,0.3-1.5,0.4-1.9-0.6C762.7,457.8,763.3,458.1,763.8,459z"/>
	<path fill="#FFFFFF" d="M640.4,505.3c-0.6-0.9-1.2-1.5-1-2.5c0.1-0.1,0.1-0.2,0.2-0.3C640.2,503.3,640.7,504.1,640.4,505.3z"/>
	<path fill="#FFFFFF" d="M633.3,492c0.3,0.6,1.3,0.8,0.9,2C633,493.6,633.4,492.7,633.3,492L633.3,492z"/>
	<path fill="#FFFFFF" d="M645,531c-0.3-0.9-0.5-1.4,0.3-1.9C646.1,529.6,645.8,530.2,645,531z"/>
	<path fill="#FFFFFF" d="M759.1,466.1c-0.6-0.1-1-0.3-0.9-0.8c0-0.4,0.3-0.6,0.6-0.4C759.2,465,759.3,465.4,759.1,466.1z"/>
	<path fill="#FFFFFF" d="M753.2,458.6c-0.4,0.7-0.6,1.2-1.3,1C751.7,458.8,752.2,458.7,753.2,458.6z"/>
	<path fill="#FFFFFF" d="M749.3,472.6c1.5,0,0.9,0.6,0.4,1.2C748.9,473.5,749.2,473,749.3,472.6L749.3,472.6z"/>
	<path fill="#FFFFFF" d="M711.3,238.9c-5.8,2.4-11.8,1.6-17.6,2.2c-4.8,0.5-9.7-0.3-14.4,0.7c-7.4,1.7-15,1.8-22.3,4.2
		c-3.3,1.1-7,1.2-11,1.9c1.8-1.8,3.8-2.6,5-5.1c-2.7,1.3-4.8,2.4-7.5,3.7c1.5-3,2-5.6,2.5-8.4c0.2-1.5-0.4-2.7-0.3-4
		c0.3-2.5-0.3-4.9,1-7.5c1-2,0.5-4.7-0.8-6.8c-2.6-4.2-4.5-8.7-6.3-13.2c-1.2-3-3-5.8-5.1-8.2c1.4-1.3,2.9-2.4,4.6-3.4
		c-2.1-0.1-4.2-0.4-6.3,0.5c8.7-3.9,16-9.9,24.1-14.5c6.8-3.9,14.1-6.3,21.7-7.7c3.2-0.6,6.7,0.2,10.7,0.4c-4,1.5-7.9,1.2-11,3.6
		c6.8,0,13.2-3.8,20.4-2.1c0.3,1.4,2.3,2.2,1.4,4.3c1.7-0.1,3.2,0.3,4.8,0.7c2.7,0.8,5.1,3.3,8.4,1.9c0.7-0.3,1.8,0.2,2.5,0.6
		c5,2.8,10.5,2.9,16,2.8c1.1,0,1.9,0,2.4,0.9c-9.8,2.9-18.9,7.3-26.8,13.8c-6.7,5.6-10,13.2-11.1,21.5c-0.7,5.3,1.8,10.1,6.7,12.9
		C705.6,236.4,708,238.4,711.3,238.9z"/>
	<path fill="#FFFFFF" d="M706,225.3c-0.2,0.5-0.9,0.8-0.7,1.9c4.4,0.5,8.9,0,14.1-0.5c-2.9,3.3-4.8,6.7-6.1,10.4
		c-7.5-1-13.4-6.3-15-13c-0.6-2.4-0.4-4.6,0.8-6.8c5.4-9.9,12.4-18.1,22.9-23.2c4.4-2.2,8.5-4.6,13.7-5.2c3.2,4.4,7.9,7.1,11.9,10.6
		c1.8,1.6,2.6,3.6,3,5.8c0.5,2.9,1,5.7,1.5,8.6c0.3,1.7,0.2,3.4-0.1,5c-1.4,6.3-3.6,12.2-8.7,16.6c-1.2,1.1-2.4,2.3-1.9,4
		c3,9.7,0.3,18.9-2,28.3c1.8-1.7,2.5-4,3.3-6.1c0.9-2.3,1.6-4.7,2.3-7c0.8-0.5,0.9,0.9,1.6,0.6c2.2-1.3,4.3-2.5,6.5-3.8
		c1.4-0.8,2.8-0.7,4.2-0.4c2,0.4,4,0.5,5.9-0.3c1.1-2.8,1-6.1,2.8-8.7c0.4-0.5,1.1-0.7,2-0.5c-0.3,2.5,2,4.2,1.9,6.8
		c-0.4,1.5-2.1,2.8-1.5,5c1.5-1.6,2-3.6,3.6-5.1c1.4-0.2,2.9-0.7,5.3-0.5c-3.6,1.8-5,5.3-8.3,6.5c-1.3,0.5-2.3,1.5-2.8,2.7
		c-1.7,3.9-5.3,4.5-8.8,4.7c-1.3,0.1-2.1,0.5-2.7,1.4c-2.7,4.1-5.9,7.8-7.9,12.4c-2.1,4.8-5.5,8.3-10.4,10.4
		c-1.7,0.7-3.1,1.8-4.3,3.1c-3.3,3.7-7.6,4.9-12.5,5.3c-3.7-3.9-7.3-8.3-8.3-13.7c-0.9-4.6-0.4-9.6,0.1-14.3
		c0.9-8.8,2.5-17.5,3.3-26.2c0.6-6.2,4.2-10.6,8-15c2.5-2.9,4.6-6.1,6.1-9.7c-1.8,1.1-2.5,3-3.8,4.5c-0.3-0.3-0.6-0.6-1-0.9
		c-0.4,1.1-0.8,2.1-1.3,3.4c-2.9,0.9-6,1.8-9.1,2.7c-0.8-0.5-0.3-1.8-2-2.2C710,223.1,708,224.4,706,225.3c-0.4-0.4-0.9-0.6-1.4-0.8
		C705.1,224.7,705.6,224.9,706,225.3z"/>
	<path fill="#FFFFFF" d="M745.5,326.4c1-2.8,2-5.2,2.9-7.8c4.4-0.9,8.6-2.5,13.3-1.9c6.7,0.9,13.6,0.8,20.3,2.1
		c0.9,0.9-0.1,2.4,1.1,3.6c0.8-13.3,0.6-26.2-3.5-38.8c-1.2-3.7-2.6-4.7-7-4.6c-7.7,0.2-15.4,0.8-23,2.2c-1.2,0.2-2.4,0.6-3.6,0.3
		c3-5.1,5.2-10.6,9.3-15c1.1-1.2,1.9-2.3,3.6-2.6c4-0.9,7.6-2.1,9.9-6.4c1.4-2.8,5.1-4.5,7.6-6.8c1.1-1,2.3-1.7,2.6-3.1
		c4.1-1,8-1.9,12.4-2.9c2.2,25.4,4.7,50.4,6.3,75.6c7.8,2.7,15.5,4.1,23.2,4.9s15.2,2.7,23.1,3.2c1.3,3.7,2.6,7.5,3.9,11.5
		c-3.5,0.9-7.2,1.1-10.8,1.6c-1.8-3.2-2.3-6.9-4.2-10.6c0,3.9,1.6,6.7,2.4,9.9c-3.4,0-6.6-1.1-9.9-1.4c-7.1-0.7-14.2-1.9-21.3-2.6
		c-4.4-0.4-8.6-2.3-13-3.2c-8.6-1.8-17.5-2.3-26.1-4.1C758.6,327.9,752.2,326.8,745.5,326.4z"/>
	<path fill="#FFFFFF" d="M630.1,267.2c0-2.7,0-5.3,0-7.8c2.2-2.7,4.6-4.9,6.3-6.4c8.4-3,16.7-2.5,24.3-5.4c1.4-0.5,2.8-0.7,4.2-0.9
		c12-2.1,24.1-3.4,36.2-3.7c3.9-0.1,7.7-0.9,11.6-2.5c-0.8,5.7-1.6,11.1-2.4,16.6c-5.1,2.3-10.4,3.5-15.9,3.8
		c-12.7,0.6-25.3,2.5-37.9,4.2c-8.5,1.1-17,2.5-25.5,4c-1.9,0.3-3.7,1-5.4,1.8c-2.7,1.3-5.5,1.6-9,1.7c1.9-2.4,3.3-4.4,6.3-5.5
		c0.7-2.7,3.7-4.1,6-6.7C629.7,262.7,628.8,265.1,630.1,267.2z"/>
	<path fill="#FFFFFF" d="M747.7,179c-0.7,2.4-0.4,4.7,0.8,6.9c1.8-0.9,0.4-2,0.7-2.7c0.2-1.1,1.6-0.4,1.7-1.4
		c-0.9-0.5-1.5-1.2-0.6-2.3c0.7-0.5,1.3,0.7,2,0.4c1-0.4,1-1.3,1.2-1.9c-0.4-1.1-1.4-0.1-1.8-0.9c0.4-1,1.7-1,2.3-1.9
		c0.3-0.7-0.4-0.9-0.8-1.3c0.5-0.6,1.1-0.9,2.1-0.8c1.2,4.7-3.3,8.4-2.1,13.3c2.6-4.6,5.1-9.1,11.9-8c-1.8,4.8-3.3,9.5-5.4,13.3
		c-2,0.8-2.6-1.3-4.4-0.4c0.3,3.2-1.1,5.7-4.5,6.9c-2.6-1.7-5.5-3.1-8-5.4c0.3-3.2,3-5.5,3.7-8.7c-4.1,0.7-3.4,4.8-5.2,7.5
		c-2-1.1-3.7-2.6-4.7-4.5c-1.1-2-2.8-2.8-4.9-2.9c-5.7-0.2-11.3-1-16.5-3.6c-2.4-1.2-5.2-1.9-8.1-1.9c-1.1,0-2.2-0.2-3.4-1.1
		c2.1-1.3,4.1-1.1,6.2-0.9c4.5,0.4,8.9,0.3,12.9-2.1c0.7,0.5,0,1.5,0.9,1.9c2.4,0.9,4.6,2.4,7,3c2.8,0.8,5.9,0.3,8.9,0.3
		c1.5,0,2.9-0.7,3.8-1.9c1.3-1.8,3.2-2.2,5.1-2.7C749.4,177,747.3,177.6,747.7,179L747.7,179z"/>
	<path fill="#FFFFFF" d="M560,314.5c-1-0.5-1.9-0.9-2.8-1.4c-1-3.6-2.4-7-1.6-10.9c0.4-2-0.6-3.7-1.8-5.2c-2-2.6-4-5.1-6.1-7.6
		c-2.4-2.9-4.5-6-5.9-9.8c4.1-1.3,8.2-2.6,12.5-4c1.9,5.5,2.8,11.1,3.9,16.7c0.6,3.3,1.3,6.6,2.2,9.8
		C562.1,308.2,562.2,308.2,560,314.5z"/>
	<path fill="#FFFFFF" d="M643,239.9c0.8,1.9-0.2,3.2-1.5,5.1C641.6,242.8,642.1,241.3,643,239.9z"/>
	<path fill="#FFFFFF" d="M642,220.1c-0.5-1.4-1.1-2.8-1.6-4.2c1.2,1.1,2.4,2.3,2.4,3.9C642.5,219.9,642.2,220,642,220.1z"/>
	<path fill="#FFFFFF" d="M632.9,201.6c2.5,0.7,2.2,2.8,3.3,3.8C634.6,204.9,634.2,203.3,632.9,201.6z"/>
	<path fill="#FFFFFF" d="M643.1,224.8c-0.8-0.8-0.9-1.6-0.3-2.6C644,223.3,644,223.3,643.1,224.8z"/>
	<path fill="#FFFFFF" d="M629.5,198.5c0.4-0.6,0.7-1.2,1.1-1.8c1,0.3,0.8,1.1,1,1.7l0.1-0.1C630.9,198.7,630.1,198.4,629.5,198.5
		L629.5,198.5z"/>
	<path fill="#FFFFFF" d="M637.9,208.9c0.5,0.7,1.1,1.4,0.9,2.4c-0.1,0.1-0.1,0.2-0.2,0.3C638,210.7,637.3,210,637.9,208.9z"/>
	<path fill="#FFFFFF" d="M762.2,165.3c-0.9,0.3-1.5,0.3-2-0.4C761,164,761.5,164.6,762.2,165.3z"/>
	<path fill="#FFFFFF" d="M757.3,172.5c-0.6-0.1-0.9-0.3-0.9-0.8c0.1-0.4,0.4-0.5,0.7-0.4C757.6,171.4,757.6,171.9,757.3,172.5z"/>
	<path fill="#FFFFFF" d="M643.4,235c1.1,1.1,0.7,1.6,0.1,2C642.6,236.5,643.1,236,643.4,235z"/>
	<path fill="#FFFFFF" d="M631.6,198.4c0.3,0.6,1.3,0.8,0.9,2C631.3,199.9,631.6,199,631.6,198.4L631.6,198.4z"/>
	<path fill="#FFFFFF" d="M750.1,166.1c0-0.9,0.4-1.1,1.1-1C751.2,165.7,750.9,166,750.1,166.1z"/>
	<path fill="#FFFFFF" d="M747.6,179c1.5-0.1,0.9,0.6,0.4,1.2C747.2,179.9,747.5,179.4,747.6,179L747.6,179z"/>
	<path fill="#FFFFFF" d="M397.1,156c-0.4-2.2-0.3-4.3,0.8-6.6c4.1,2.3,8.6,2.8,12.9,4.1c0.1-0.2,0.2-0.4,0.2-0.7
		c-4.2-1.7-8.3-3.4-12.8-5.3c1.6-3,1.6-7,5.2-9.6c-0.1-0.3-1.7-0.5-1.6-2.1c0.7-0.5,1.6-0.9,2.7-1.1c9.8,4.2,19.5,8.4,29.2,12.6
		c6,2.6,12.3,4,18.8,4.7c9.2,1,17.6,3.9,24.9,9.6c2.9,2.3,6.1,4.2,9.2,6.1c4.8,2.9,8.8,6.9,12.9,10.6c2.9,2.6,6.2,4.3,10,5
		c3.5,0.6,5.3,2.6,6.5,6.1c2.9,8.2,2.4,16.5,1.6,24.8c-0.4,4,0.4,8-0.7,12.4c-3.7-1.1-7-2.5-10.1-4.8s-3-6.5-5.5-9.4
		c-1,2,0.6,3.3,0.8,4.9c-3.4,0.2-6-0.7-8.4-3.4c-2.3-2.6-5.4-4.6-8.1-6.8c-1.1-0.9-2.2-1.9-3.2-3c-1.5-1.8-3.2-3.4-5.5-4.4
		c1-1,2.4-0.1,3.2-1.3c-1.5-1.2-3.3-0.9-4.7-0.6c-1.7,0.4-3-0.1-4.5-0.6c-10.1-3.3-19.2-8.6-27.6-15c-7.3-5.6-14.7-10.9-22.6-15.6
		c-7.2-4.3-15.2-7-22.8-10.4C397.9,156.2,397.5,156.1,397.1,156z"/>
	<path fill="#FFFFFF" d="M394.8,157.8c-3.5-1.2-4.2-3.6-4-6.1c0.3-3.5,0.9-7.1,1.9-10.5c1-3.3,0.4-4.7,7.3-4.4
		C396.4,143.3,393.9,149.9,394.8,157.8z"/>
	<path fill="#FFFFFF" d="M415,289c0.7-0.7,1.3-1,2.3-1c0.5,3.4,1.2,6.7,2.8,9.9C417.1,295.9,416,294.1,415,289z"/>
	<path fill="#FFFFFF" d="M412.1,320.4c-0.9-0.2-0.2-1.6-1.2-1.7c-0.8-0.5-1.1,0.7-1.9,0.4c-0.5-1.1-0.1-2,0.8-2.5
		c1.4-1,2.9-1.3,4.2,0.2C415.1,318,414.5,319.1,412.1,320.4z"/>
	<path fill="#FFFFFF" d="M409.6,306.5c1.4,0,2.6,0.4,2.6,2c0.1,1.7-1.1,2.6-2.7,2.7c-1.5,0.2-2.7-0.4-2.7-2.1
		C406.8,307.2,408.1,306.6,409.6,306.5z"/>
	<path fill="#FFFFFF" d="M409.5,301.8c-1.7,0.2-1.9-0.8-2-1.8c0-1.2,1-0.9,1.6-1.2C410.2,299.7,410.3,300.6,409.5,301.8z"/>
	<path d="M673.1,473c-1.4,2.6-3.8,3.5-6.6,3.5C668.3,474.6,670.7,473.8,673.1,473z"/>
	<path d="M693.4,516.1c0.7,2.5-1,4.1-1.8,6.4C691.1,519.1,691.4,518.1,693.4,516.1z"/>
	<path d="M683.6,515.8c0.4,1.9,0,2.6-0.9,3.2c-0.9-0.4-0.5-1.1-0.4-1.6C682.5,517,683,516.6,683.6,515.8z"/>
	<path d="M660.1,479.8c-0.1-0.7,0.1-0.9,0.4-1c0.7-0.2,1.4-0.3,2.2-0.2C662.1,479.6,661.2,479.8,660.1,479.8z"/>
	<path d="M695.5,515c-1,0.9-1.7,0-2.6-0.4C694.2,514.3,694.2,514.3,695.5,515z"/>
	<path d="M655.3,533c0.1,1.5-0.5,1.9-1.7,2.2C653.4,533.9,654.2,533.4,655.3,533z"/>
	<path d="M661.9,522.3c0-1,0.5-1.3,1.4-1.4C663.3,521.8,663,522.2,661.9,522.3z"/>
	<path d="M656.5,481.8c0.1-1,0.5-1.2,1.2-1C657.8,481.5,657.3,481.6,656.5,481.8z"/>
	<path d="M744.6,569.9c0,0.3,0,0.7-0.1,1c-1.9,3-9,6.7-12.9,6.5C735.4,573.6,740.3,572.2,744.6,569.9L744.6,569.9z"/>
	<path d="M727.9,538c0.9,3.9,1.3,7.4,2.9,11C727.7,547.3,725.9,540.9,727.9,538z"/>
	<path d="M738.6,563.2c0.4,3.6,0.1,4.7-2.3,8.3C737.1,569,736.7,566.3,738.6,563.2z"/>
	<path d="M729.9,503.4c-1.3-3.1-1.2-3.5,1.2-6.4C731.3,499.2,731.4,501.2,729.9,503.4z"/>
	<path d="M724.4,539.6c-0.4,1.7-1.8,2.5-2.9,3.7C722,541.7,722.5,540.1,724.4,539.6z"/>
	<path d="M734.1,579.6c-1.3,0.7-2.4,0.8-3.6-0.1C732.1,578.6,732.1,578.6,734.1,579.6z"/>
	<path d="M755.9,551.1c-1.5,0.2-2.1-0.5-3.1-1.3C754.3,549.3,755.1,549.8,755.9,551.1z"/>
	<path d="M723,585.4c-1.2,0.3-1.9-0.2-2.3-1.2C722.1,583.9,722.1,583.9,723,585.4z"/>
	<path d="M707.7,518.9c-1,0-1.9-0.1-2.8-0.9C706.9,517.4,706.9,517.4,707.7,518.9L707.7,518.9z"/>
	<path d="M742.1,528.1c1.3,0.5,1.5,1.2,0.9,2.1C742.1,529.8,741.9,529.2,742.1,528.1z"/>
	<path d="M732.2,555.5c-0.6-0.5-0.9-0.9-0.6-1.8C732.4,554,732.7,554.5,732.2,555.5z"/>
	<path d="M725.5,488.5c0.9,0,1.5,0.4,1.9,1.2C726,490.2,726,489,725.5,488.5z"/>
	<path d="M703.9,518c-1.1,0.4-1.6,0.1-2.1-0.7C702.8,516.8,703.5,516.8,703.9,518z"/>
	<path d="M744.5,569.8c-0.2-1,0.1-1.6,1.3-2c0.2,1.2-0.6,1.6-1.1,2.1L744.5,569.8z"/>
	<path d="M731.5,551.2c-0.4-0.5-0.5-0.9,0.1-1.3C732.5,550.5,732.2,550.9,731.5,551.2z"/>
	<path d="M729.2,493.6c-0.1-0.7,0.2-0.9,0.8-0.9C730.5,493.6,730.2,493.9,729.2,493.6z"/>
	<path d="M747.5,565.7c-0.2-0.8,0.1-1.2,0.9-1.3C748.6,565.2,748.3,565.6,747.5,565.7z"/>
	<path d="M481.7,567.1c1.2,1.6,0.4,2.9-0.1,4c-2.1,4.6-5.1,8.3-9.1,11.4c-2.8,2.1-6.2,3.4-8.8,5.9c-1.7,1.6-4.3,1.3-7.1,1.3
		C473.4,580.6,475,577,481.7,567.1z"/>
	<path d="M500.7,548.7c-1.5,1.6-2.8,3.7-6.2,3.4C496.4,549.6,498.6,549.3,500.7,548.7z"/>
	<path d="M519,561.9c-1.6,1-3.3,2-5,3.1C514.2,562.3,514.9,561.8,519,561.9z"/>
	<path d="M514.3,570.8c0,2.2,0.9,3.4,2.1,5C512.6,574.5,512.2,573.7,514.3,570.8z"/>
	<path d="M513.4,565.9c-2,2.1-3.8,2.8-5.9,2.8C509,567.3,510.8,566.6,513.4,565.9z"/>
	<path d="M452.5,589.7c-1,1.8-2.4,1.9-4.8,1C449.7,589.9,451,589.5,452.5,589.7z"/>
	<path d="M412.8,607.1c1.4-1.4,2.8-1.2,4.6-1.5C416.2,607.6,414.9,607.8,412.8,607.1z"/>
	<path d="M400.3,602.7c1.3-1.5,2.5-1.9,4.2-1.9C403.3,602.3,402.4,603.4,400.3,602.7z"/>
	<path d="M422.7,602.1c-0.8,1.6-1.8,2-3.4,1.8C420,602,421.2,602,422.7,602.1z"/>
	<path d="M523.4,564.6c-0.2,1.7-0.9,2.4-1.7,3.5C521.7,566.7,521.8,565.5,523.4,564.6z"/>
	<path d="M444.6,591.1c-1.4,1.3-2.3,0.6-3.6,0C442.4,590.5,443.3,590.3,444.6,591.1z"/>
	<path d="M426.6,600.2c0.7-1.1,1.3-0.7,2.1-0.6C428.2,600.5,427.6,600.7,426.6,600.2z"/>
	<path d="M482.7,565.7c-0.2-1.2,0.5-1.3,1.3-1.4C484.1,565.1,483.9,565.6,482.7,565.7z"/>
	<path d="M488.8,559.4c-0.2,1.3-0.6,1.6-1.4,1.5C487.1,560,487.7,559.8,488.8,559.4z"/>
	<path d="M506.1,575.1c1.4,0.6,0.8,1.4,0.8,2.1C505.8,576.8,505.4,576.1,506.1,575.1z"/>
	<path d="M437.7,591.5c-0.1,0.4-0.4,0.5-0.7,0.4c-0.1,0-0.3-0.3-0.3-0.5c0-0.4,0.3-0.6,0.6-0.4C437.6,591,437.6,591.3,437.7,591.5z"
		/>
	<path d="M800.7,618.1c4.2-0.1,8,1.3,11.9,2.9C808.4,620.7,804.5,619.5,800.7,618.1z"/>
	<path d="M786.1,616.1c2.5-2,4.9-1.8,7.2-2C791.4,615.7,789.2,616.1,786.1,616.1z"/>
	<path d="M769.6,613.7c2-0.4,4.1-0.6,6.3,1C773.4,615.2,771.5,614.4,769.6,613.7z"/>
	<path d="M824.5,621.9c-2.3,0.4-4.6,0.1-7.5-0.8C820.1,620.6,822.3,621.8,824.5,621.9z"/>
	<path d="M840.4,622.4c-1,1.3-2.3,1.6-3.8,0.7C837.9,622.9,839.2,622.7,840.4,622.4z"/>
	<path d="M794.9,613.6c1-1,1.7-1.2,2.8-1C796.8,613.6,796.2,613.8,794.9,613.6z"/>
	<path d="M827.6,622.3c0.3,0,0.6,0.1,0.9,0.1c0,0.1,0,0.1,0,0.2c-0.3,0-0.6-0.1-1-0.1C827.6,622.5,827.6,622.4,827.6,622.3z"/>
	<path d="M758.6,611.9c-0.4,0.3-0.7,0.3-1-0.1C757.9,611.6,758.2,611.5,758.6,611.9z"/>
	<path d="M402.1,442.7c0.1-1.5,0.2-2.5,0.2-3.5c0.1-2.4,1.6-3.7,3.7-4.1s4,0.4,5.1,2.3c0.9,1.5,0.7,3-0.3,4.4
		c-1.2,1.6-2.9,2-4.8,1.6C404.7,443.3,403.6,442.5,402.1,442.7z"/>
	<path d="M410.6,425.7c0.5,0.4,1,0.8,1.5,1.3c1.7,1.7,1.9,4,0.5,5.7c-1.3,1.7-4,2.1-6.1,1.1c-1.9-1-2.8-3-2.2-5
		C405,426.5,406.9,425.6,410.6,425.7L410.6,425.7z"/>
	<path d="M393.1,419.1c5.7-8.5,5.8-19.3,12.1-27.8c0.8,1.7-0.1,2.7-0.6,3.7c-2.4,4.6-4.6,9.3-5.7,14.5
		C398.1,413.2,396.2,416.6,393.1,419.1z"/>
	<path d="M410.6,425.7c-0.7-0.7-1.5-1.3-2.2-2c-0.9,0.2-1.7,0.4-2.7,0.7c-0.4-2.7,2.9-1.8,3.2-3.6c-0.2-1.4-2.1-0.5-2.5-2.4
		c3.2-0.6,5.9,0.6,8.7,1.2C415.1,424.5,414.3,425.5,410.6,425.7L410.6,425.7z"/>
	<path d="M386.3,451.4c0.3,3.5-0.1,6.7-0.6,9.9c-0.8,4.5-1.5,8.9,1.4,13.5c-3.1-0.8-3.3-3.2-3.3-4.8c0-6,0.5-11.9,1.6-17.8
		C385.4,451.9,385.7,451.8,386.3,451.4z"/>
	<path d="M389.7,429.1c0.3,6.1-1.6,11.9-2.9,17.7C386.2,440.7,388.7,435,389.7,429.1z"/>
	<path d="M711.6,537.4c-1.6,1-2.5,2.1-1.9,4c-0.9-0.9-0.2-2-1.2-2.7c-4.4,0.6-9,1.3-14.1,1.5c0,3.6,0,7,0,10.4
		c-1.2-3.3-0.8-6.6-1.1-9.8c-1.3-1.3-3.1-0.5-5.2-1.5C696.4,539.3,703.9,538.4,711.6,537.4z"/>
	<path d="M608.5,558.4c1.1,3.2-0.7,6.2-0.5,9.3C606.6,564.5,607,561.4,608.5,558.4L608.5,558.4z"/>
	<path d="M657.8,546.7c0.8,2,0.3,4-0.1,6C656.9,550.7,657.3,548.7,657.8,546.7z"/>
	<path d="M631.5,560.7c-0.5-1.3-0.8-2.5,0-4C632.2,558.2,631.8,559.5,631.5,560.7z"/>
	<path d="M643.9,548.9c0.8-0.8,1.5-1.3,2.7-0.9C645.9,549.2,645,549,643.9,548.9z"/>
	<path d="M647,550.3c0,0.5,0,1.1,0,1.6c0,0,0,0-0.1,0C647,551.4,647,550.8,647,550.3L647,550.3z"/>
	<path d="M680,541.6c-1.1,1-2.5,0.6-3.7,0.9l0.1,0.1C677.4,541.5,678.8,542.1,680,541.6L680,541.6z"/>
	<path d="M676.3,542.5c-1.3,0.2-2.7,0.4-4,0.7l0.1,0.1C673.5,542.1,675,542.5,676.3,542.5L676.3,542.5z"/>
	<path d="M672.2,543.2c-1.3,0.6-2.7,0.4-4,0.7h0.1C669.5,542.8,670.9,543.1,672.2,543.2L672.2,543.2z"/>
	<path d="M650.1,547.5c-0.3,0-0.7-0.1-1-0.1C649.4,547.4,649.8,547.4,650.1,547.5C650.1,547.4,650.1,547.5,650.1,547.5z"/>
	<path d="M664.9,544.5c1-1.1,2.2-0.7,3.4-0.6h-0.1C667.1,544.4,666,544.3,664.9,544.5L664.9,544.5z"/>
	<path d="M664.8,544.5c-0.5,0.4-1,0.7-1.7,0.3C663.7,544.3,664.3,544.4,664.8,544.5L664.8,544.5z"/>
	<path d="M680,541.6c0.5-0.1,1-0.2,1.4-0.4c0,0.1,0,0.2,0,0.3C681,541.6,680.5,541.6,680,541.6L680,541.6z"/>
	<path d="M671.5,179.5c-1.5,2.5-3.8,3.4-6.6,3.3C666.7,181.1,669,180.1,671.5,179.5z"/>
	<path d="M691.7,222.3c0.6,2.7-1,4.3-1.9,6.1C689.6,226.2,689.5,224.1,691.7,222.3z"/>
	<path d="M681.8,222.5c0.8,1.5-0.2,2.1-0.9,3.3C680.3,224.1,680.7,223.4,681.8,222.5z"/>
	<path d="M661.6,185c-1.2,1-2.1,1.1-3.3,1.3C659.4,185.1,659.4,185.1,661.6,185z"/>
	<path d="M694.1,221.4c-1.4,0.8-2.1-0.1-3.5-0.4C692.2,220.2,693,220.5,694.1,221.4z"/>
	<path d="M653.7,239.4c0,1.4-0.5,1.9-2.1,2.1C652,240.3,652.4,239.7,653.7,239.4z"/>
	<path d="M656.1,187.2c0,0.7-0.5,0.9-1.1,0.9C654.8,187,655.3,186.9,656.1,187.2z"/>
	<path d="M660.1,228.4c0.3-0.7,0.6-1.3,1.4-1C661.5,228.4,661.1,228.7,660.1,228.4z"/>
	<path d="M742.9,276.3c0,0.3,0,0.7-0.1,1c-1,1.5-2.1,3.4-3.8,3.5c-3.2,0.3-5.2,3.7-9.4,3.3C733.8,280.2,738.5,278.6,742.9,276.3
		L742.9,276.3z"/>
	<path d="M726.2,244.3c1,3.9,1.3,7.4,2.9,11C726,253.8,724.2,247.4,726.2,244.3z"/>
	<path d="M734.5,277.8c0.9-2.3,0.7-4.8,1.6-7c0.1-0.2,0.3-0.3,0.5-0.4C737.6,272.4,737.2,273.8,734.5,277.8z"/>
	<path d="M729.4,202.9c0.2,2.7,0.4,4.7-1.2,7C726.6,207.1,727.7,205.3,729.4,202.9z"/>
	<path d="M719.9,249.7c0.5-1.6,0.8-3.3,3.1-4C722.6,247.8,720.8,248.4,719.9,249.7z"/>
	<path d="M732.7,285.9c-1.7,0.7-2.8,0.9-4-0.1C730,284.6,731.1,284.9,732.7,285.9z"/>
	<path d="M750.9,255.9c1.7,0,2.6,0.3,3.2,1.6C752.8,257.6,752.1,257,750.9,255.9z"/>
	<path d="M706,225.3c-0.9-0.1-2,0.1-2.6-1C705.2,223.7,705.2,223.7,706,225.3L706,225.3z"/>
	<path d="M718.9,290.2c1.6-0.4,2.1,0.3,2.7,1.6C720.1,292,719.4,291.5,718.9,290.2z"/>
	<path d="M725.7,196.5c-1.2-0.4-1.7-0.8-2.1-1.8C724.7,194.9,725.4,195.2,725.7,196.5z"/>
	<path d="M730.5,261.8c-0.6-0.4-1-0.8-0.6-1.7C730.7,260.5,731,261,730.5,261.8z"/>
	<path d="M740.4,234.4c1.2,0.5,1.4,1.1,0.9,2.1C740.4,236.2,740.2,235.6,740.4,234.4z"/>
	<path d="M702.2,224.3c-1.1,0.6-1.6,0.2-2-0.6C701,223.2,701.7,223.1,702.2,224.3z"/>
	<path d="M742.8,276.2c-0.2-1,0.1-1.6,1.3-2c0.2,1.2-0.6,1.5-1.2,2.1L742.8,276.2z"/>
	<path d="M730,257.7c-0.8-0.6-0.4-1-0.4-1.5C731,256.8,730.2,257.2,730,257.7z"/>
	<path d="M727.5,200c-0.2-0.7,0.2-0.9,0.8-0.9C728.8,200,728.5,200.3,727.5,200z"/>
	<path d="M745.7,272.3c-0.1-1.1,0.3-1.4,0.8-1.7C747.1,271.5,746.4,271.8,745.7,272.3z"/>
	<path d="M799,324.5c4.2,0.1,8.2,1.2,12,2.9C806.8,327.2,803,325.7,799,324.5z"/>
	<path d="M791.7,320.6c-1.9,1.4-4.2,1.8-6.6,1.7C787,320.5,789.4,320.6,791.7,320.6z"/>
	<path d="M822.8,328.3c-2.4,0.3-4.7,0.2-7.3-0.8C818.4,326.9,820.6,328.3,822.8,328.3z"/>
	<path d="M774.1,321.2c-2.4,0.4-4.2-0.4-6-1.1C770,319.9,772,319.3,774.1,321.2z"/>
	<path d="M834.3,329.6c1.8-0.3,3-0.6,4.4-0.8C837.1,330.1,837.1,330.1,834.3,329.6z"/>
	<path d="M795.6,319c-0.1,0.8-0.6,0.9-0.9,1c-0.3,0.1-0.6,0.1-1.1,0.1C793.9,319,794.6,318.9,795.6,319z"/>
	<path d="M826.9,328.9c-0.4,0.2-0.8,0.2-1.2,0C826.1,328.6,826.5,328.8,826.9,328.9z"/>
	<path d="M756.8,318.4c-0.3,0-0.6,0-1,0C756.1,317.9,756.4,318.1,756.8,318.4z"/>
	<path d="M686.7,245.7c4.1-0.4,7.9-0.1,11.7-0.7c3.7-0.6,7.5-1,11.9-1.6c-1.6,1.4-2.9,2.4-2.1,4.7c-1-1.2-0.3-2.3-1.3-3
		c-4.5,0.5-9,1.3-14.1,1.3c0,3.7,0,7.1,0,10.5c-1.2-3.3-0.7-6.7-1.1-9.9C690.3,245.8,688.5,246.6,686.7,245.7z"/>
	<path d="M655.9,258.9c-0.5-2.1-0.3-3.9,0.3-5.8C656.6,255.1,656.5,257.1,655.9,258.9z"/>
	<path d="M645.1,254.5c-0.9,0.8-1.7,1-2.6,0.8c-0.1-0.1-0.2-0.1-0.2-0.2C643,254.5,643.7,253.8,645.1,254.5z"/>
	<path d="M645.3,256.8c0,0.7,0,1.3,0,2h-0.1C645.3,258.1,645.3,257.4,645.3,256.8L645.3,256.8z"/>
	<path d="M670.6,249.6c1-1.2,2.5-0.5,3.7-0.9h-0.1C673.2,249.7,671.8,249.2,670.6,249.6L670.6,249.6z"/>
	<path d="M670.5,249.6c-1.3,0.6-2.7,0.4-4,0.6l0.1,0.1C667.8,249.2,669.2,249.5,670.5,249.6L670.5,249.6z"/>
	<path d="M674.3,248.7c1.3-0.2,2.7-0.4,4-0.7h-0.1C677.1,248.9,675.6,248.7,674.3,248.7L674.3,248.7z"/>
	<path d="M666.5,250.2c-1.1,0.6-2.2,0.5-3.4,0.6l0.1,0.1C664.1,249.8,665.4,250.2,666.5,250.2L666.5,250.2z"/>
	<path d="M647.5,253.7c0.3,0,0.6,0,0.9,0v0.1C648.1,253.8,647.8,253.8,647.5,253.7C647.5,253.8,647.5,253.8,647.5,253.7z"/>
	<path d="M663.1,250.8c-0.5,0.5-1.1,0.5-1.9,0.4C662,250.7,662.6,250.8,663.1,250.8L663.1,250.8z"/>
	<path d="M678.3,248c0.5-0.1,0.9-0.6,1.6,0C679.3,248,678.8,248,678.3,248L678.3,248z"/>
	<path d="M467.1,177.7c7.1,1.7,14.4,2.1,21.5,3.8C481,183,473.9,181.7,467.1,177.7z"/>
	<path d="M454.8,175c3.8,0.9,7.5,0.9,11.4,2.3C462.5,178.9,457.4,177.9,454.8,175z"/>
	<path d="M498.6,204.2c3.2-1.3,5.1-1.4,7.2-0.2C503.4,205.3,501.4,205.4,498.6,204.2z"/>
	<path d="M493.2,206.5c2.4-0.1,4.5-1.2,6.7,0C497.9,208.4,496.8,208.4,493.2,206.5z"/>
	<path d="M444.4,169.6c2.5,0.9,4.9,2.1,7.1,3.6c-0.1,0.2-0.2,0.4-0.3,0.6c-2.4-1.2-4.7-2.3-7.1-3.5
		C444.2,170.1,444.3,169.8,444.4,169.6z"/>
	<path d="M412.3,152.5c1.5-0.4,2.2,0.2,3,1C414,154.1,413.2,153.7,412.3,152.5z"/>
	<path d="M492.8,181.7c0.8-0.9,1.4-1.1,2.2-0.5C494.5,181.9,494,182.3,492.8,181.7z"/>
	<path d="M416.7,144.9c-0.6,0.4-0.9,0-1.3-0.4C416,144,416.4,144.1,416.7,144.9z"/>
	<path d="M487.7,200.9c0.6-0.4,0.9,0.1,1.3,0.4c-0.2,0.7-0.6,0.5-1,0.4C487.7,201.6,487.5,201.3,487.7,200.9z"/>
	<path d="M488.8,204.3c-0.7,0.6-0.9,0.3-1.2,0C487.9,203.8,488.3,203.8,488.8,204.3z"/>
	<path fill="#FFFFFF" d="M406,441.5c1-1.9,0.1-2.5-1.7-2.4c0.6-2.2,2.1-2.2,3.7-1.8c1,0.3,1.8,1.1,1.6,2.3
		C409.3,441.5,408,441.8,406,441.5z"/>
	<path fill="#FFFFFF" d="M411.5,430c-0.2,1.6-1.1,2.3-2.7,2.3c-1.5-0.1-2.7-0.8-2.7-2.3c0-1.6,1.1-2.3,2.7-2.2
		C410.3,427.8,411.3,428.5,411.5,430z"/>
	<path fill="#FFFFFF" d="M413,421c0.1,1.4,0.1,2.4-1.4,2.7C410.3,421.5,410.4,421.2,413,421z"/>
</g>
</svg>
