<?xml version="1.0" encoding="utf-8"?>
<!-- Generator: Adobe Illustrator 19.1.0, SVG Export Plug-In . SVG Version: 6.00 Build 0)  -->
<svg version="1.2" baseProfile="tiny" id="Layer_2" xmlns="http://www.w3.org/2000/svg" xmlns:xlink="http://www.w3.org/1999/xlink"
	 x="0px" y="0px" width="900px" height="600px" viewBox="144 97 900 600" xml:space="preserve">
<g>
	<path d="M550.1,457.1c5.4-5.2,11.8-8.7,18.6-11.6c11.2-4.9,22.5-9.7,32.9-16.4c1.3-0.8,2.7-1.6,3.7-2.8c4.1-4.6,9-8.2,13.9-11.8
		c2.1-1.5,4-3.1,6.9-3.5s6.7-6.2,6.4-9.5c-0.3-3.9,0.1-7.8-1.2-11.6c-1.1-3.2,0.1-6.6,0.6-9.9c0.7-4.8,1.4-9.7,1.7-14.5
		c0.6-9.7-1.2-19.2-3.1-28.7c-0.4-2-1.5-3.7-2.5-5.5c-2.6-5-3.8-10.2-2.4-15.9c0.2-1,0.2-1.9,0-2.8c-2.6-9.1-5.5-18.1-13.1-24.4
		c-3.1-2.6-6.7-4.5-10.4-6.2c-3-1.4-6.1-2.5-8.7-5c-6.1,3.3-11.1,7.6-14.7,13.6c-3.3,5.7-6.4,11.5-8.9,17.5
		c-4.1,10-4.2,20.6-3.5,31.4c5.4-2.4,8.6-6.6,11.7-11c0.8-1.2,1.8-2.2,3-3.1c1.1-0.7,2.2-0.9,3.3,0c1.7,1.4,3.5,2.8,5.3,4.2
		c-1.6,1.2-2.9-0.5-4.1-0.1c-0.8,0.5-0.8,1.2-0.9,1.9c-0.7,8.7-0.8,17.4-0.2,26.1c0.1,0.8,0.3,1.6,0.5,2.4
		c2.5,7.5,7.3,13.8,11.1,21.2c1.7-2.1,3-3.9,4.4-5.6c0.3,0.1,0.5,0.3,0.8,0.4c-1.6,3.4-3.1,6.8-4.9,10.1c-1.6,2.8-4,5.1-6.6,6.9
		c-7.5,5.3-13.9,11.5-19.4,18.8c-3.9,5.2-9.1,9.1-14.5,12.5c-2.2,1.4-4.2,3.1-5.5,5.5c-0.5,1-1.2,2-2.2,2.3
		c-5.7,1.8-7.4,7.4-10.9,11.3c-0.4,0.4-0.6,1.1-1.1,1.4c-6.2,4.6-11,11-17.4,15.4c-2,1.4-3.7,3.2-4.3,5.5c-1.7,6-5.3,10.9-8.2,16.2
		c-0.7,1.3-1.4,2.5-0.8,4c1.6,1.2,3.4,1.6,5.7,0.9c0.7-5.3,2.7-9.8,9-10.6c-2.1,2.8-6.2,4.2-6.3,8.7c1.1,0.5,2.2,0.2,3.4,0
		c1.2-2.8,4.3-4.4,4.9-7.5c1.3,0.3,1.6,1,1,1.8s-1.2,1.4-1.6,2.3c-2.5,5.6-2.5,5.6-8.8,5.4c-1,0.3-0.9,1.7-1.6,2
		c-3.6,0.8-6.3-0.4-8.5-2.8c-2.6,0.6-5,1.2-7.5,1.6c-4.2,0.7-8.3,1.2-12.7,0.8c-5.4-0.5-10.9,0-16.3-0.2c-2.1-0.1-3.9,1.5-5.7,3
		c-5.1,4.5-4.6,10.7-5.2,16.4c-1.9,16.2-2.1,32.5-1.3,48.9c0.7,14.5,0.1,29-1,43.5c-0.2,2.2,0.6,4.5-0.7,6.6
		c-6.4-1-12.9-0.7-19.1-2.3c-6.1-1.6-12.7-0.3-19.3-3.5c-1.7,0.2-3.9,1.4-6.1,2.6c-2.2,1.2-4.6,1.8-7.2,2.2c-0.8,4.1-2,7.9-3.5,11.8
		c2.4,1.3,4.8,0.8,7.1,1.3c6.4,1.4,12.8,2.9,18.8,5.6c4.6,2.1,9.5,2.9,14.5,3.4c9.8,1,19.4,3.7,29.1,5.2c5.9,0.9,11.8,0.9,17.8,1.5
		c10.8,1.1,21.4,3.3,31.7,6.7c0.4,0.1,0.9,0.2,1.4,0.4c0.5-2.4-1.7-4.3-0.9-6.6c2,2.4,2,2.4,2.9,9.6c-6.7-2.6-13.5-4.1-20.3-5.5
		c-7.8-1.6-15.7-2.7-23.7-2.7c-6.3,0-12.6-0.9-18.7-2.4c-9-2.1-18.3-2.9-27.3-5.4c-3.1-0.9-6.2-1.8-9.2-2.9c-7-2.7-14.3-4.4-21.8-5
		c-0.6,0-1.2-0.1-1.7-0.3c-0.7-0.2-1.4-0.4-1.8-1.1c1.1-5.1,1.3-10.5,3.7-15.5c3.6,0.5,6.3-1.7,9.2-3c3.2-1.4,6.2-2.8,9.9-0.4
		c1.5,1,4,0.3,5.9,0.6c7.1,1,14.1,2,21.2,3c1.6,0.2,3.3,0.3,5.1,0c0.3-2.5,0.8-4.8,0.8-7.1c0-13.3,1.1-26.7,0.5-40
		c-0.4-8-0.5-16-0.3-23.9c0.2-10.7,0.6-21.4,2.7-32c0.2-0.9,0.3-1.8,0.1-2.9c-5.4,4.7-11.7,7.8-17.5,11.7c-1.9,1.3-2.9,3.5-4.1,5.3
		c-2.5,3.7-5.1,7-10.3,7.1c-2.6,0.1-5.4,1.2-7.8,2.4c-3.6,1.8-7,1.2-10.2-0.5c-6.7-3.7-12.7-8.4-18.3-13.6c-1.2-1.1-1.9-2.4-2.5-3.9
		c-2.7-6.8-6.2-13.1-9.6-19.5c-0.8-1.4-1.6-2.9-3-3.8c-2.1,0-3.4,1.4-4.7,2.6c-3.4,3.3-7,6.5-11,9.1c-1.5,1-2.4,2.6-3.7,3.8
		c-4.7,4.3-10.3,7-16.4,8.3c-13,2.7-26.1,5.6-39.4,7c-11,1.2-21.9,2.8-32.9,4.5c-7.3,1.1-14,4.5-21.3,6c-1.5,0.3-3,0.7-4.1,0.9
		c0.1,4.4-3.4,5.8-6,8.1c0.1,2.8-1.8,4.7-3.5,6.8c-5.4,6.8-13.1,10.5-20,15.4c-1.4,1-3,1.3-4.7,1.4c-4.5,0.4-8.8-0.4-13-2
		c-3.6-1.3-6.4-3.6-7.2-7.6c1.4-0.9,2.4-0.1,3.5,0.7c1.9,1.4,3.9,2.7,6.2,3.6c7.1,2.9,14.3,1.4,19.6-4.2c0.9-0.9,1.9-1.7,3-2.3
		c5.5-3,9.5-7.4,11.9-13.2c0.8-1.8,3-2.4,3.5-4.3c-0.1-1.9-1.7-2.2-2.9-2.8c-3.7-1.8-4.7-4.4-3.5-8.2c1.9-5.7,3-11.8,6.6-16.9
		c1.5-2.1,3.2-3.9,4.8-5.7c1.8-2,2.9-4,1.5-6.8c-1.5-2.9-3.9-4.1-6.9-4.4c-1.4-0.2-2.2,0.8-2.7,1.9s-0.9,2.2-1.7,3.1
		c-0.7,0.8-1.6,1.1-2.6,0.8c-1-0.4-1.5-1.2-1.5-2.2c0.1-1.8,0.1-3.5,0.4-4.8c0,0.8-0.6,1.9-1.4,2.8c-0.9,1-2.1,1.6-3.5,1.2
		c-1.5-0.4-2.2-1.4-2.2-2.9c0-2.7-0.3-5.1-2.3-7.2c-1-1.1-0.8-2.9,0-4.2c-1.3,1.4-2.8,1.4-3.8-0.5c-0.6-1.1-1.6-2.4-1.5-3.6
		c0.3-7.5-4.6-13.4-6.2-20.3c-1.9-7.8-8.1-11.2-14-15c-0.3-0.1-0.6-0.3-0.9-0.5c-3.7-2.8-7.1-1.8-10.2,0.9c-2.8,2.4-6.1,4.3-8.7,6.8
		c-5.2,5.3-7.8,12-7.1,19.4c0.3,3.6,1,7.3,1.4,10.9c1,8.7,3.9,16.6,8.6,23.9c3.3,5.1,5.8,10.7,8,16.3c1.7,4.3,1.2,9.2,1.3,13.8
		c0.2,7.1,0.2,14,3.8,20.4c0.7,1.1,0.9,2.5-0.5,3.5c-2.3-0.5-4.5-0.6-6.9-0.4c-2.7,0.2-5.6-1-7.2-3.6c-0.7-1.2-1.3-2.4-2.6-3.2
		c-6-3.9-7.6-9.7-6.6-16.5c0.2-1.5,0.6-3,1-4.5c2.5-10.5,1.2-20.5-3.7-30.1c-1.1-2.2-2.1-4.6-2.5-7.1c-0.1-0.7-0.3-1.4-0.7-2
		c-5.4-8.4-5.2-17.6-4.2-26.9c0.8-8.5,3.2-16.3,9.5-22.5c0.9-0.9,0.8-2.3,1.8-3.3c6.6-6.2,9.9-6.5,18.2-1.5c2.1-1.3,4.1-0.4,6.2,0.6
		c4.9,2.3,8.6,6.5,13,9.2c5.9,3.5,6.5,9.1,7.9,14.2c1.9,6.6,5.8,11.7,10.3,16.4c2.5,2.5,3.8,5.9,7,8c2.5,1.6,5.1,3,8.1,3.8
		c2.3-1.6,5.2-2.2,8-3c9.9-2.9,18.7-8.1,28-12.5c10.6-5,20.8-10.4,32.5-12.5c5.4-1,10-3.8,14-7.4c0.2-0.2,0.3-0.3,0.5-0.5
		c3.9-2.3,7.6-4.9,10.7-8.1c0.4-0.4,0.9-0.8,1.5-1c4-1.7,7.8-3.8,11.1-6.7c1.2-1.1,3.1-1.1,4.8-1.1c6,0.1,10.4-2.9,14.1-7.1
		c3-3.4,6.3-5.9,10.4-7.9c6.1-3,12.5-5.9,17.6-10.2c5.2-4.4,11-6.3,17-8.4c1.9-0.6,3.5-1.5,5.1-2.9c5.8-5,12.6-7.2,20.4-6.5
		c4.6,0.4,9.3,0.2,13.9,0.2c3.7,0,6.8-1.8,9.2-4.2c2.3-2.3,5-4.1,7.7-5.7c2.3-1.4,4.1-3.2,6.3-4.6c0.5-0.3,1.1-0.8,1.2-1.3
		c2.3-7,8.1-12.2,9.9-19.4c0.2-1,0.8-2,1.6-2.8c4.1-4.2,4.4-9.5,4.5-14.9c0.2-8.4,0-16.8,2.9-25c2.2-6.1,5.6-11.3,9.6-16.1
		c2.6-3,6.3-3.9,9.9-4.4c5.8-0.8,11.5-2.6,17.6-2.5c3.2,0.1,6.1-2.4,9.3-3.7c-0.9-5.6,0.1-11,0.4-16.6c-3.3-0.9-4.8-3-5.5-6.5
		c-1.4-7.1-3.6-14.1-2.1-21.4c0.2-0.9-0.1-1.9-0.4-2.8c-1.9-4.9,0.6-9,2.5-13.2c0.1,13.9-1.5,27.9,3.2,41.3c6.2,0.8,11.9,2.6,18,1.1
		c-3.7,4.3-8.4,3-13,2.1c-2,6.4,0.5,13.2-2,19.4c-5-1.6-17.2,8.9-17.8,15c2.5,1.8,5.6,1.4,8.4,2.3c3.4,1.1,5.1-1.7,7.2-3.2
		c1.6,0.8,0.2,1.6,0.3,2.4c0.3,0,0.6,0.1,0.9,0.1c2.2-0.3,4.5-0.7,6.7-1.1c3.6-0.5,6.9-1.7,9.9-3.9c7.3-5.4,15.6-9.1,24-12.5
		c4.7-1.9,9.3-4.1,13.5-7c-0.2-0.3-0.3-0.6-0.5-0.6c-8.9-2.7-9.7-6.1-10.2-17.5c-0.1-2.9,0.5-5.9,1.2-9c-1.6,0.8-1.4,2.6-3.3,3.7
		c1.9-5.2,2.7-10,3.1-15c-1.3,0-1.1,1.9-2.5,2.1c-1-0.1-1.9-0.5-2.2-2.1c1.7,0,3.6,0.2,4-2.1c-0.8-0.5-1.9-0.1-2.7-1.5
		c-0.1-1.7,0.6-4-0.2-6.1c0.3-0.3,0.5-0.7,0.8-1c-0.3,0.3-0.5,0.7-0.7,1c-0.9,1.8-2.2,3.3-2.1,5.4c-1.3,0.4-1.6-0.6-1.9-1.3
		c-0.4-1-0.8-2-0.9-3.1c-0.4-6.9-3.9-12.9-5.7-19.4c-0.5-2-1.9-2.6-3.8-2c-0.9-3.6-3.6-3.3-6.1-3.2c-0.5-1.5,1.5-0.8,1.2-1.9
		c-0.3-0.8-2.5-1.3-0.1-2.6c-4.7-1.9-9.3-2-13.8-1.8c-2.7,0.1-4.8-1.1-7.2-2.2c-0.8,2.9-1.5,5.6-2.3,8.3c-0.4,1.4-0.8,2.8-1.9,3.8
		c-1.3,1.1-0.6,2.4-0.6,3.6c8.8,6.3,9.6,7.9,6.4,13.5c-1.1-1.3,0.4-2.8-0.5-4.1c-0.9-0.1-2-0.1-3-0.4c-1.3-0.4-2.6-1.1-4.1-1.8
		c-0.3-2.8-0.7-5.6-1-8.4c-0.1-0.6-0.1-1.3,0.2-1.7c3.2-4.2,2.9-9.5,4.7-13.9c-1.6-3.7-5.3-5-7.5-8c0.2-1.4,1-2.7,0.1-4.1
		c2.4-1,4.1,0.4,6.2,0.5c-1-1.7-3.3-2-3.7-4.2c2.7-2.5,4.2,0.7,6.2,1.3c0.5-2.3,0-4.8,1.6-7c1.9,1.1,2.1,3.3,3.8,4.2
		c1.5-2,3.6-1.6,5.1-0.6c3.9,2.6,8.3,2.6,12.6,3.1c3,0.3,5.8,1.4,8.2,1.3c1.9,0.9,1.4,3.4,3.5,3.5c0.8-0.5,0-1.6,1.2-2.4
		c0.6-0.1,1.6-0.4,2.5-0.6c1.2,0.4,1.2,1.8,2.1,2.4c1.3-0.3,2.2-2.4,4.2-0.9c0.6,1.6,0.1,3.8,2.1,5.3c1.7-1.3,3.6-2.4,5.9-1.2
		c0.1,2.1-2,2.3-2.8,3.8c1.1,0.7,1.5,2.3,3,2.5c-1.4,3-1.1,3.6,3.1,6.7c-0.3,1.5-2,1.1-2.9,1.9c1.9,4.4,1.6,9.3,2.5,13.9
		c0.6,3.2-0.3,6.5-2.1,9.3c-1.3,2.1-2,4.3-2.2,6.7c-0.4,3.7-0.9,7.3-2.9,10.5c-1.8,2.8-2,6-2,9.3c-0.1,3.4-0.3,6.9-0.7,10.3
		c-0.6,5.4,0.6,7.3,5.6,9.5c1.5,0.7,3.1,1.3,4.7,1.8c2.2,0.7,4.4,1.5,6,3.1c4.3,4.5,9.7,6.7,15.2,9c5,2.1,8.6,6,11.9,10
		c4.4,5.3,6.3,11.9,8.3,18.4c0.8,2.7,0.5,5.5-0.6,8.4c-1.3,3.6-0.9,7,1.8,10.2c4.2,5.1,4.4,11.6,5.8,17.8c2.5,11.6,0.5,23-1,34.4
		c-0.4,2.7-0.5,5.5-0.2,8.2c0.5,3.9-0.3,7.8,0.4,11.7c0.8,4.6-3,6.9-5.6,9.6c-3.2,3.5-7.8,5-11.4,7.9c-3.3,2.7-6.9,5.1-9.7,8.5
		c7.1-1.9,14.3-3.1,21.7-2.9c-2.5,1.8-5.5,1.8-8.3,2.5c-3.3,0.8-6.8,1.3-10.2,1.6c-5.5,0.4-9.9,3.1-14.3,6
		c-8.7,5.5-18.5,8.8-27.7,13.1c-1.6,0.8-4,1.1-4.7,2.3c-1.8,3.2-5.1,3.2-7.8,4.3c-2,0.9-3.6,2.2-4.2,4.1c-2.1,6.1-5.2,11.4-9.8,15.9
		c-0.3,0.3-0.5,0.8-0.7,1.2c0.3,0.2,0.5,0.4,0.7,0.3c8.2-3.6,17-4.3,25.6-5.7c17-2.9,34-6,50.7-10.1c3.9-1,8-1.1,12.1-1.3
		c-2.4,2.2-5.5,1.9-8.3,2.5c-6.5,1.5-13,2.6-19.3,4.7c-3.3,1.1-7,1.2-10.5,1.8c-13.8,2.4-27.7,4.9-41.5,7c-4.8,0.8-8.7,3.3-12.8,5.6
		c-1.6,5.5-6.2,4.4-10.2,4.8c-2.1,0.2-4.2,0.9-6.3,0.5c-0.4-0.1-0.8-0.5-1.4-0.9c1.9-1.4,3.9-1.8,6-1.7c0.7,0,1.4,0.1,2.1,0
		c4.4,0,7.7-0.9,9.4-6c1-3.2,3.9-5.8,6.4-8.4C547.6,465.7,549.3,461.4,550.1,457.1L550.1,457.1z"/>
	<path d="M733.8,387.7c-0.3,2.6-1.6,1.9-2.9,0.8c-4-3.4-8-6.9-11.9-10.5c2.8,0.3,5.1,1.7,7.2,3.7c2.5-0.8,4.9,0.7,7.5,0.9
		c5-9.9,10.2-19.7,14.9-29.7c4.2-9.2,8-18.6,10.9-28.3c1.5-5,3.8-9.7,6.3-14.3c3.1-5.7,5.8-11.7,8.8-17.6c2.2-4.4,5.2-8.2,9.3-11
		c1.6,1.6,1,3.1-0.3,4.4c-3.4,3.3-5.3,7.6-7.3,11.8c-5.2,11.1-11.1,21.9-14,33.9c-0.1,0.6-0.3,1.2-0.6,1.7
		c-6.5,12.3-10.6,25.8-18.2,37.6c-1.9,3-3,6.4-4.6,9.9c2.5,1.1,4.3,0.7,5.8-1.3c0.3-0.4,0.5-0.8,0.8-1.2c2.9-4.2,4.3-4.1,6.7,0.3
		c1.8,0.1,2.4-1.4,3.1-2.5c8.5-14.3,17.7-28.2,24.6-43.5c5.4-12,11.9-23.6,18.8-34.9c2-3.1,3.5-6.5,4.8-10c1.4-3.8,3.5-7.1,6.8-9.7
		c3-2.4,5.2-5.5,5.4-9.5c-8.6-4.8-15.7-3.6-21.7,3.8c-2.2,2.7-4.2,5.5-6.3,8.2c-1,1.2-2.1,2.5-3.8,1.1c1.8-6.9,6.4-11.7,11.6-16.3
		c4.2-3.6,8.7-4.6,13.8-2.6c3.5,1.4,7.2,0.6,10.7,1.4c1.3,0.3,2.9-0.3,4.2-1.2c4.3-2.9,8.7-3.3,13.8-1.1
		c12.1,5.2,20.1,14.9,28.5,24.3c1,1.2,1.9,2.4,2.8,3.6c4.7-5.9,6.6-12.7,7.9-20.1c-3.8,2.3-7.9,3.9-11.2,7.2
		c-1.1,1.2-2.6,3.4-5.2,1.3c3.8-5.8,10.5-7.3,15.4-11.2c5-3.9,10.9-6.3,16.1-10c-0.9-5.8,0.3-11.5,0.7-17.3c-0.3-0.3-0.6-0.8-1-0.9
		c-4.3-0.6-5.5-3.5-6.3-7.4c-1.4-6.6-3.2-13.1-1.9-20c0.3-1.4-0.3-2.8-0.7-4.2c-1-3.5,0.4-9.2,3.2-12.4c-0.5,14.1-1.9,28,2.7,41.5
		c6.1,0.6,12,2.6,18.1,0.9c-3.1,4-7.2,3.2-11.5,2.7c1.3,1.5,1.6,3,1.7,4.6c-0.5,1-1.3-0.4-2.3,0.6c-0.3,8-0.6,16.5-0.9,25
		c-2.7-2.6-0.6-5.9-1.6-8.8c-1.2-0.1-1.9,0.8-2.4,1.7c-2.8,5.3-5.4,10.6-6.3,16.6c-0.5,3.1,0.1,6.2,0.9,9.2c0.5,1.9,1.7,2.9,3.7,2.1
		c10.9-4,22.3-6.9,32.4-13c0.2-0.1,0.3-0.4,0.6-0.8c-6.3,1.3-12.3,2.9-18.6,5c0.7-2.1,2.1-2.3,3.2-2.6c5.7-1.7,11.4-3.5,17.4-3.8
		c1.3-0.1,2.3-0.5,3.2-1.3c8.7-7.7,17-15.9,24.4-25.3c-3.1-1.4-5.7-3.2-8.7-4.3c-6.2-2.2-8.3-5.6-7.8-12.2c0.2-2.9,0.5-5.9,1.3-9
		c-1.6,0.8-1.5,2.5-2.9,3.2c1.7-4.7,2.1-9.7,2.9-14.6c-1.4-0.1-1.3,1.9-2.6,2.1c-1-0.1-1.9-0.5-2.2-2.1c1.7,0,3.6,0.2,4-2.1
		c-0.7-0.6-2,0.1-2.5-1.1c-0.3-2.1,0.4-4.3-0.4-6.4c0.3-0.3,0.5-0.7,0.8-1c-0.3,0.3-0.5,0.7-0.7,1c-0.9,1.8-2.2,3.3-2.1,5.4
		c-1.4,0.4-1.6-0.6-1.9-1.3c-0.4-1-0.8-2-0.9-3.1c-0.4-6.9-3.9-12.9-5.7-19.4c-0.6-2.1-2-2.4-3.8-2.1c-0.9-3.5-3.6-3.3-6.2-3.1
		c-0.2-1.3,1.2-1.1,1.4-1.9c-1-0.7-1.3-1.6-0.5-2.8c-4.4-1.8-9-1.9-13.5-1.7c-2.7,0.1-4.8-1.1-7.2-2.2c-0.8,2.9-1.5,5.6-2.3,8.3
		c-0.4,1.4-0.8,2.8-1.9,3.8c-1.3,1.1-0.7,2.4-0.5,3.6c8.7,6.2,9.6,8,6.4,13.3c-1-0.4-0.4-1.2-0.3-1.8c0.1-0.7,0.2-1.4-0.3-2.3
		c-2.5,0.6-4.6-1-7-2c-0.3-2.7-0.7-5.4-1-8.1c-0.1-0.7-0.2-1.6,0.2-2.1c3.1-4.2,2.9-9.5,4.7-13.9c-1.6-3.7-5.3-5-7.6-8.1
		c0.6-1.2,0.5-2.7,0.5-4.2c2.1-0.8,3.8,0.5,5.9,0.7c-1.2-1.7-3.3-2-3.8-4.2c2.6-2.3,4.1,0.3,6.2,1.4c0.7-2.3-0.1-5,1.8-7.1
		c1.8,1.2,2.1,3.3,3.8,4.2c1.4-2.2,3.6-1.6,5.1-0.6c3.9,2.6,8.4,2.4,12.7,3.1c2.9,0.5,5.8,0.9,8.2,1.2c1.8,1,1.3,3.1,3.2,3.5
		c1.4-0.1-0.1-1.9,1-2.3c1-0.2,2-0.5,3-0.7c1.2,0.4,1.2,1.8,2.2,2.4c1.2-0.4,2-2.2,4-1.1c1.1,1.4,0.2,3.9,2.2,5.4
		c1.7-0.9,3.5-2.4,6-1.1c0.4,2.1-2,2.3-2.7,3.7c1.1,0.9,1.7,2.3,3.1,2.7c-1.5,2.8-1.2,3.3,3.1,6.7c-0.4,1.4-2.1,1-3.1,2.1
		c1.5,1.7,1.1,4,1.6,6.1c1.9,7.2,1.5,13.8-2.5,20.2c-0.4,0.6-0.4,1.4-0.4,2.1c-0.3,5-1.8,9.7-4.2,14.2c-0.4,0.8-0.7,1.8-0.7,2.7
		c-0.4,5.3-0.3,10.7-1.1,16.3c4.5,2.1,7.9,5.8,12.7,7.1c5.4,1.4,10.2,3.8,14,8.1c2.6,3,6.1,4.7,9.8,5.6s7,2.6,9.6,5.2
		c5,5.1,9.5,10.7,11.7,17.7c1.1,3.4-0.1,6.9,1.2,10.5c2.2,0.9,3.5,3,5,4.9c12,15.2,18.9,32.5,22,51.6c1.4,8.8,2.9,17.6,6.2,26
		c1,2.4,0.6,5.1-1.4,6.9c-1.3,1.2-1.9,2.6-2.4,4.2c-2.3,7.1-7,12.6-11.5,18.3c-6.2,7.8-13,15.1-20.5,22.8
		c15.5,1.2,29.4-5.5,44.2-5.6c-3,2.8-34.3,7.8-45.9,7.3c-3.6,3.8-8.1,7-12.2,10.6c-4.1,3.5-8.2,7-13.1,9.4c2.6,0.6,4.8-0.7,7.8-0.7
		c-3.6,1.6-6.7,2.6-10,3.3c-1.6,0.3-2.5,1-3,2.6c-1.8,5.4-3.2,11-5.8,16.6c28.5-3.7,55.9-10,83.7-15c-0.9,2-2.7,1.9-4.2,2.2
		c-6.4,1-12.6,2.4-18.9,3.9c-15.1,3.7-30.5,6.1-45.8,8.5c-4.6,0.7-9.1,1.8-13.7,2.5c-2.6,0.4-4.2,1.9-5.4,4.1
		c-2.7,4.9-6.8,8-12.3,9.5c-3.3,0.9-5.9-1.1-8.8-1.5c-0.1,0-0.1-0.9-0.1-1.3l-0.1,0.1c2.8-0.7,5.6-1.7,8.3-2.8
		c0.8,1.8-1.1,2.1-1.2,3.2c5.5-0.1,9.2-2.6,11.4-7.8c2.9-6.8,7-13,9.1-20.4c1.7-5.9,6.5-9.9,12.8-11.5c0.4-0.1,0.9-0.4,1.2-0.7
		c6.3-6.1,14.3-10.5,19.5-17.7c4-5.4,9.6-9.1,13.7-14.3c1.9-2.4,4.1-4.6,5.5-7.4c0-0.1,0-0.3,0-0.4c0.3-0.6,0.6-1.2,0.8-1.9
		c0.2-0.4,0.5-0.7,0.8-1c0.6-0.4,0.9-1.1,1.5-1.5c0.1,0,0.3-0.1,0.4-0.1c3.6-4.8,8.3-8.7,10-14.7c0.1-0.3,0.2-0.7,0.5-1
		c3.9-3.7,2.9-7.7,1.6-12.4c-3.1-10.7-5.5-21.7-7.8-32.6c-2.8-13.3-8.1-25.4-16.3-36.1c-1.7-2.3-3.1-4.8-5.2-6.7
		c-1.1-0.4-0.5,1.4-1.7,1c-0.2-1-0.7-2.2-0.7-3.4c0.2-12.2-6.2-21.1-14.6-29c-1.9-1.8-4.4-2.3-6.7-3.2c-3.8-1.4-7.6-2.9-10.1-6.4
		c-0.6-0.9-1.5-1.5-2.8-1.9c-4.3,6-10.4,10.5-14.3,17.1c-4.4,7.4-7.6,14.9-7.8,23.7c-0.1,6.8-1.2,13.6,0.9,20.2
		c1.5,4.6,2.7,9.4,7,12.4c3.7,2,6.6,5.2,10.6,7.7c0.4-3.6-1.3-6.3-1-9.4c-2.4-0.1-4,0.9-5.5,1.9s-2.8,1.3-4.1-0.1
		c0.8-2.1,2.7-3.4,4.1-4.9c2.8-3,4.3-6.4,5.2-10.7c4.6,1.3,8.9,5.5,13.8,1.9c1.2,0.3,1.9,1.2,3,2c-4.4,1.6-8.7,0.7-13.1,1.2
		c2.1,4.1,1.5,8.6,2.4,12.9c1.8,7.8,5.2,15.1,8.1,22.5c1.1,2.7,3.2,4.7,5.2,6.8c3.1,3.2,7,5.7,9.6,9.6c1.5-1.1,0.5-3.1,2-3.9
		c1,0.4,1,1.3,0.8,2.1c-1.1,5-1.8,9.9-5,14.3s-5.8,9.3-8.7,13.9c-1,1.5-1.6,3.2-2.2,4.9c-3.6,10.4-9.1,19.9-15.4,28.8
		c-6.2,8.7-15.3,14.4-24.8,19.3c-3.4,1.7-6.8,3.3-10,5.4c-1.6,1.1-3.5,1.6-5.3,2.1c-6.2,1.9-12.7,1.5-18.9,2.3
		c-12.9,1.8-21.9-4.3-30.3-12.6c-0.2-0.2-0.6-0.5-0.6-0.8c-1.6-6.2-7.4-8.6-11.7-12.3c-2.3-1.9-4-3.9-4.5-6.9
		c-0.6-3.9-1.6-7.7-2.1-11.6c-0.3-1.9-2.4-3.3-1.4-5.4c-2-1.7-3.9-3.1-4.8-5.5c-0.6-1.6-2.4-1.8-3.8-2.4c-4.3-1.7-8.5-3.4-12.5-5.8
		c-4.5-2.7-6.1-6.5-7.1-10.9c-1.2-5.5-0.9-11.1-0.3-16.7c0.2-1.5,0.1-3,0.1-5c-6,4.8-10.9,9.9-15.7,15c-1.2,1.3-2.3,2.8-3.6,4
		c-2.9,2.5-3.2,5.7-2.5,9c1.1,5.3,3.5,10,6.7,15.1c6.5-5.6,9.4-13.3,14.1-19.8c1.2,0.7,0.7,1.5,0.3,2.2c-2.9,5.1-5.4,10.3-8.9,15.1
		c-0.5,0.7-1,1.4-1.5,2c-2.9,3.1-5.2,3-7.3-0.7c-2.9-5.2-5.6-10.5-5.8-17.3c-3.2,3.8-6.3,6.9-8.8,10.4c-3.8,5.4-8.2,10.2-12.7,14.9
		c-3.3,3.4-5.7,7.2-7.1,12.1c0.1,0.5,1.2,0,1.6,0.7c0,4.2-2.3,7.9-2.8,11.8c-0.7,5.2-2.9,9.4-5.6,13.6c-0.9,1.4-0.8,3.4-1.2,5.2
		c-0.7,3.1-2.5,5.4-5.8,6.7c3.1-3.7,3.3-8.2,4.4-12.5c0.6-2.2,2.8-3.7,3.7-6c0.5-1.2,1.1-2.3,1.2-3.7c0.2-4.5,2-8.4,4-12.2
		c-4.6,0.7-4.4,0.3-6.6-4.1c-2.5-5.1-1.7-10.5-2.6-15.7c-0.5-2.4,1.1-4.6,2.2-6.6c3.1-5.8,2.5-10.9-1.9-16.1
		c-4.4-0.2-8.9-0.7-13.7,0.1c1.6,2.1,4.9,3.4,3.3,7.2c-2.3-1.9-3.7-4.5-6.6-5.4c0,1.5,2,2.5,1.1,4.4
		C736,391.8,735.8,388.2,733.8,387.7c-0.3-0.3,0,0.3-0.2-0.1C733.6,387.5,733.6,387.5,733.8,387.7z"/>
	<path d="M929.8,484.9c-1.8,0.2-1.9,2.7-3.4,2.9c-4.5,0.6-9.1,0-13.5-1c-1.1-0.3-1-1.8-2-2.7c-14.6,4.8-29.7,2.3-45,2
		c-1.3,4.1-1.1,8.7-1.8,13.1c-2.4,15.7-3.4,31.5-2.7,47.4c0.5,9.8,0.5,19.5,0.4,29.3c-0.1,8.9-0.6,17.8-0.9,26.8
		c0,0.8-0.1,1.7-0.9,2.3c-6.2-1-12.7-0.7-18.8-2.3s-12.7-0.3-19.5-3.5c-1.6,0.2-3.8,1.3-6,2.5s-4.6,1.8-7.3,2.3
		c-0.8,4-2.1,7.8-3.5,11.7c1.8,1.5,4,0.7,5.9,1.1c6.9,1.5,13.7,3,20.2,5.9c4.5,2,9.2,2.8,14.1,3.3c10,1,19.6,3.9,29.5,5.2
		c5.8,0.8,11.6,1.1,17.4,1.6c10.9,0.9,21.4,3.2,31.7,6.6c0.4,0.1,0.9,0.2,1.4,0.3c0.8-2.4-1.6-4.3-0.7-6.9c2.5,2.9,2.5,6.3,2.9,10
		c-6.8-2.8-13.8-4.2-20.7-5.7c-7.6-1.6-15.2-2.6-23-2.6c-6.5,0.1-12.9-0.9-19.1-2.4c-9-2.1-18.3-2.8-27.3-5.4
		c-3-0.8-5.9-1.7-8.8-2.8c-7.1-2.8-14.5-4.5-22.1-5.1c-1.3-0.1-1.3-0.1-3.4-1.6c1.3-5.1,1.2-10.5,3.7-15.4c3.7,0.5,6.4-1.7,9.3-3.1
		c2.3-1.1,4.9-2.3,7.2-1.4c7.5,2.6,15.4,2.1,23,3.9c3.8,0.9,7.7,1.3,11.9,0.9c0.3-2.9,0.7-5.7,0.8-8.5c0.6-20.1,0.2-40.3,0-60.4
		c-0.1-15.1,1.5-29.9,4.5-44.7c0.2-0.9,0.6-1.8,0-3.1c-2.4-0.4-4.9-0.9-7.5-1.2c-5.2-0.7-10.3-1.9-15.3-3.6
		c-3.6-1.2-5.2-3.9-5.7-7.5c-0.3-2.6-0.6-5.2-0.8-7.8c-0.3-3.8,0.9-7.1,3.8-9.6c1.2-1.1,2.4-2.3,4.4-1.8c1,0.3,1.8-0.4,2.7-1.6
		c-10.9-4.9-16.6-15-24-23.4c-3.1-3.5-6.9-5.9-10.4-8.6s-6.9-5.5-9.1-9.5c-0.6-1.1-1.4-2.2-1.2-3.6c0.3-0.1,0.6-0.2,0.7-0.2
		c2.7,4.9,6.9,8.2,11.5,11c6.4,3.9,11.3,9.4,16,15.1c1.1,1.3,2.1,2.6,3.1,3.9c5.7,7.5,13.2,12.1,22.4,14.2c2.1,0.5,4.1,1.2,6.2,1.9
		c4.7,1.4,9.3,2.9,14.3,2.1c1.3-0.2,2.8-0.2,4.4,1.1c-4.8,1.5-9.1,2.6-13.7,1c-3.8-1.3-7.7-2.4-11.6-3.6c-1.3-0.4-2.4-0.6-3.7,0.3
		c-1.9,1.3-4.3,1.1-6.5,1.5c-2.3,0.4-4,1.4-5.2,3.4c-3.3,5.6-3,11.3-0.1,17c0.7,1.4,2,2.2,3.4,2.3c8.9,0.9,17.2,4.7,26.2,5.4
		c8.4,0.7,16.9,0.6,25.3,1.2c6.2,0.4,11.8-2,18.2-2.1c1.4-3.6,2.6-7.5,3-11.5c0.3-2.9,0.9-5.6,2.1-8.3c0.9-2.1,1.7-4.2-0.7-6.5
		c2.7-0.3,3.5,1.2,4.4,2.7c-3.5,8.1-3.2,17-6.3,24.9c2.6,1.2,2.6,1.2,4.8,1.2c2.6-3.2,3.7-7.5,7.2-10c0.3,0.2,0.5,0.4,0.8,0.6
		c-1.7,3.1-3.4,6.1-5.1,9.2c1.4,0.8,2.7,0.6,4,0.6c2.3-2.2,4.5-4.6,8.2-5C933.3,483.6,930.3,483.2,929.8,484.9L929.8,484.9z"/>
	<path d="M622,503.9c-0.4,1.7-1.9,1.7-3.1,2c-4.7,0.9-9.3,2-14.1,2.5c-18,1.9-35.6,6.1-53.5,8.9c-7.1,1.1-14.2,2.9-20.7,6.3
		c-3.8,2-8.2,2.4-12.4,2.9c-6.8,0.8-13.2,3.2-19.4,5.9c-3,1.3-6,2.7-9.1,4c-3.7,1.6-6.6,4.7-7,8.9c-0.5,5.6-2.3,10.7-4.1,15.9
		c-3.9,11-3.5,22.5-4.3,33.9c-0.2,3.3-1.1,6.6-0.6,10.4c8.7,3,18.3,2.5,27.2,5.9c8.6,3.2,18.4,2.1,27.5,6.3
		c-2.3,0.8-4.1,0.8-5.8,0.1c-5.5-2.1-11.3-2.7-17.1-3.1c-2.8-0.2-5.3-1.1-7.8-2.2c-5.4-2.3-11-2.8-16.7-3.5c-2.7-0.3-5.4-1-8-2.4
		c-2.9,2.4-6.5,3.1-11,3.3c3.4-1.7,6.5-2.6,9.2-4.4c0.5-8.2,1.4-16.4,1.5-24.6c0.2-8.6,2-16.8,4.5-24.8c1.2-3.9,2-7.8,3.1-11.7
		c1.4-5,4.4-8.6,8.8-10.7c7.7-3.6,15.5-7.4,24-9c2.7-0.5,5.4-0.9,8.1-1.2c2.9-0.3,5.7-0.8,8.3-2c8.9-4.4,18.5-6.4,28.1-7.6
		c8.3-1.1,16.5-2.6,24.6-4.3c12.5-2.6,25.2-4,37.7-6.5C620.7,503,621.4,502.9,622,503.9z"/>
	<path d="M881.1,604.5c-2.7,3.4-6.7,3.4-10.6,3.9c2.8-1.7,6-2.6,8.9-4.5c0-8.2,1.1-16.4,1.2-24.6c0.2-8.4,2-16.5,4.5-24.5
		c1.2-3.9,2-7.8,3.1-11.7c1.3-5,4.3-8.7,8.7-10.8c7.7-3.6,15.5-7.4,24-9c2.8-0.5,5.6-0.9,8.5-1.2s5.7-0.9,8.3-2.1
		c8.9-4.4,18.5-6.3,28.1-7.5c8.2-1,16.2-2.8,24.3-4.2c2.5-0.4,5-0.4,7.4-1.1c9.9-3,20.3-3,30.3-5.4c0.6-0.1,1.2-0.3,1.7,0.1
		c0.2,0.1,0.3,0.4,0.5,0.6c-0.3,1.6-1.6,1.8-2.9,2c-4.6,0.8-9.1,1.8-13.7,2.4c-13,1.7-25.9,3.7-38.7,6.3c-9.7,2-19.5,2.9-29,5.9
		c-3.3,1-6.2,2.9-9.5,4c-4,1.3-8.2,1.4-12.3,2.2c-7,1.4-13.8,3.6-20.1,7.1c-2.9,1.6-6.3,2.1-8.9,4.4c-2.8,2.4-4.4,5.3-4.5,9
		c-0.2,5.2-2.5,9.9-4,14.8c-2.6,8-3.3,16.3-3.7,24.6C882.4,591.6,881.8,598,881.1,604.5L881.1,604.5z"/>
	<path d="M705.8,366.4c-3.1-1.4-6.3-2.9-9.4-4.3c-3,2.8-6.7,3.9-10.4,4.7c-4,14.4-2.3,27.5,7.4,39c1.4,1.6,1.6,3.7,2.7,5.4
		c2.5,3.8,5.6,7.3,9.2,9.8c5.6,3.9,8,9.3,9.3,15.7c1.6,7.5,4.1,14.6,10.6,19.6c1.7,1.3,2.8,3.2,4.9,4.3c4.4,2.1,8.8,3.7,13.7,2.7
		c0.5-0.1,1,0,1.4,0c0.2,0,0.4,0.2,1.4,0.6c-3.9,1.3-7.2,2.2-10.7,1.1c-8.2-2.6-14.7-7.8-19.2-15c-2.6-4.1-3.6-9-3.9-14
		c-0.8,0.2-0.3,1.2-1.2,1.5c-0.8-1.1-0.8-2.5-0.8-3.8c0-2.9-1.1-5.3-3.1-7.3c-0.7-0.7-1.3-1.4-2-2c-7.5-5.5-12.3-13.1-17.3-20.7
		c-8-12.1-8.6-24.9-3.6-38.4c-2.1-4.1-5.3-6.4-10.3-6.3c-2.3,0-3.4,1-4.3,3c-1.1,2.5-1,5.3-2.8,7.5c0.1-3.8-0.1-7.7,3.3-10.5
		c1-0.9,0.8-2.5,2.3-3c2.1-0.7,3.2-4,5.6-3.3c3.4,0.9,7.1,1.2,10,3.6c1.7,1.4,3.4,2.9,5.2,4.4C697.7,360,704.5,363.2,705.8,366.4
		L705.8,366.4z"/>
	<path d="M716.5,453.3c-7.4,0-12.8-4-16.9-9c-4.5-5.4-5.4-12.3-3.9-19.3c-1.2-3.2-3.9-4.7-6.8-5.8c-4.1-1.6-7-4.4-9.2-8.1
		c-0.9-1.6-2-2.9-3.4-4.1c-2.8-2.2-4.6-5.1-5.8-8.4c-2.1-5.8-3.7-18.7-3-25.3c1.5,0,1.2,1.2,1.3,2.1c0.4,6.4,1.4,12.8,2.7,19.1
		c0.9,4.6,2.2,8.9,6.5,11.8c1.3,0.9,2,2.7,2.9,4c2.2,3.2,4.8,5.9,8.5,7.3c1.4,0.5,2.7,1.4,4.1,2.2c2.3,1.3,3.3,3,3.1,5.8
		c-0.2,3.6,0.3,7,2.5,10.4c2.7,4,5.3,8.2,8.2,12.1c1.1,1.5,2.4,2.4,4.4,2.6C714.9,451,714.8,451.2,716.5,453.3z"/>
	<path d="M881.2,604.3c9.4,2.1,19.3,2,28.5,6c4.1,1.8,9.1,1.5,13.7,2c4.4,0.5,8.2,3.1,12.7,3.4c-1.8,1.2-3.7,1.2-5.4,0.5
		c-5.5-2.1-11.3-2.7-17.1-3.1c-2.3-0.2-4.4-0.6-6.5-1.6c-5.8-2.7-12.1-3.4-18.3-4.1c-2.7-0.3-5.7-0.4-7.7-2.9L881.2,604.3z"/>
	<path d="M917.1,195.4c-3.6-2.9-7.5-2.1-11.4-1.5c3.2,1.1,6.5,1.8,9.2,4c-3.7,0.6-7.3,0.2-11-0.8c0-2.3-2.1-2.5-3.9-3.2
		c0.5-2.4,1.8-3.6,4.1-3.6C909.1,190.2,913.9,190.4,917.1,195.4z"/>
	<path d="M543.5,218.6c0-2.3-2.1-2.5-3.9-3.2c0.4-2.5,1.7-3.6,4.1-3.6c5-0.1,9.8,0.1,13.1,5c-3.7-2.3-7.6-2.4-12-1.3
		c3.7,1.2,7.1,1.5,9.6,4C550.8,220,547.3,219.6,543.5,218.6z"/>
	<path d="M927.4,227.9c-2.6,2.4-7.2,3-10.2,6.2c-3,3.1-4.2,7.2-6.1,10.9c-1.1-4,1.5-6.8,3.1-9.8c-0.9-1-1.5,0.7-2.5-0.3
		c-0.3-0.9,0.6-1.2,1.3-1.6c2-1.1,3.9-2.5,6-3.2c6.7-2,8.2-7.5,9.4-13.3c0.1-0.3,0.1-0.7,0.2-1c0,0,0.2,0,0.6-0.1
		C929.4,219.7,929.1,223.6,927.4,227.9z"/>
	<path d="M550.6,264.1c0.4-3,1.9-5.2,3.3-7.5c-0.9-0.9-1.6,0.6-2.5-0.1c-0.3-1,0.6-1.4,1.3-1.7c2-1.1,3.8-2.5,6-3.2
		c6.7-2,8.2-7.5,9.4-13.3c0.1-0.4-0.2-1,0.6-1.1c0.6,4-0.4,7.8-1.2,12.1C560.2,251.9,554.3,256.9,550.6,264.1z"/>
	<path d="M540,638.8c-3.7-7.3-6.6-14.7-10-22c5.7,5.3,8.2,12.5,11.5,19.3C541.9,637.2,541.7,638.2,540,638.8z"/>
	<path d="M947.9,637.4c-3.5-7.4-6.9-14.6-10.3-21.9c0.2-0.1,0.5-0.3,0.7-0.4c5.3,5.6,7.8,12.8,11.1,19.6
		C949.9,635.9,949.6,636.8,947.9,637.4z"/>
	<path d="M521.5,645.3c6.3-1.9,12.7-2.8,19.5-3.8C538.9,644.8,524.7,647.7,521.5,645.3z"/>
	<path d="M949.6,640.5c-4.3,3.3-17.1,5.6-20.5,3.8c3.1-2.2,6.6-2,9.8-2.5C942.1,641.2,945.4,640,949.6,640.5z"/>
	<path d="M586.1,428c6.6-5.4,14.4-9.2,20-16.2c0.8,1.2,0.6,2.1,0.1,2.9c-0.4,0.7-0.8,1.5-1.5,2C599.1,421.3,592.3,424.2,586.1,428z"
		/>
	<path d="M744.7,412.6c1.8-0.2,3.5-0.2,4.9,1.4c1.8,2.1,1.2,5.3-1.4,6.5c-0.9,0.4-2,0.7-3,1c-3.8-4.3-3.9-5.3-0.8-8.8L744.7,412.6z"
		/>
	<path d="M619.9,381.3c2.2,2.1,0.9,5,2.1,7.5c-3.4,3.3-7.9,4.7-11.5,7.6c0.1-2,1.5-3,3-3.7c5.2-2.5,5.9-3.5,5.3-9.3
		C618.8,382.6,618.7,381.9,619.9,381.3z"/>
	<path d="M476.5,616.5c11.2,2.1,22.8,1.8,33.7,6c0,0.3-0.1,0.5-0.1,0.8c-3.2-0.7-6.4-1.3-9.6-2c-5.9-1.3-11.8-2.7-17.9-2.7
		C480.3,618.6,478.6,617.1,476.5,616.5L476.5,616.5z"/>
	<path d="M550.1,457c-0.8,1-1.3,2.2-3.1,2.6c0.9-2.5,3.2-4.3,2-6.7c1.8-1.8,12.5-9.7,13.7-10.1c-2.9,3.6-6.1,6.6-9.5,9.3
		C551.4,453.6,550.7,455.2,550.1,457L550.1,457z"/>
	<path d="M750.2,458.1c-0.1-13.7-1.5-14.5-9.5-24.8C748.6,437.5,754.4,452.4,750.2,458.1z"/>
	<path d="M887.6,615.9c7.4,0.7,14.9,1.2,22.2,2.8c2.8,0.6,5.7,1.2,8.3,2.6c-3.2,0.7-6.1-0.9-9.1-1.5c-6.2-1.1-12.3-2.8-18.6-2.7
		C889.2,617.2,888.2,617,887.6,615.9L887.6,615.9z"/>
	<path d="M736.8,405.2c-1.1-1.5,0.3-2.4,0.4-3.6c-0.5-1.4-2.1,0.4-2.8-1.2c1.5-2,4.1-2.5,6.2-3.6c1.4,0.6,1.6,1.9,2,2.9
		c0.9,2.4,0.1,3.6-2.4,3.9C738.4,403.9,738.2,404,736.8,405.2z"/>
	<path d="M744.5,412.8c-2,0.5-3.8,0.4-5.1-1.4c-1.2-1.7-1.3-3.6,0.1-5.2c1.4-1.6,3.2-2,5.1-0.9c1.8,1.1,2.7,3.3,1.9,5.2
		c-0.4,0.8-1.2,1.5-1.7,2.2L744.5,412.8z"/>
	<path d="M530.1,293.5c-1.9-1.5-4.4-1.8-6.4-4c3,0,5,1.1,7,2.2c4.4-1.4,9-2.2,13.7-2.6C540.2,292.1,534.8,291.2,530.1,293.5z"/>
	<path d="M972.9,436.2c-2.1,1.7-4.1,3.5-6.2,5.2c-1,0.8-1.4,1.8-1.8,2.9c-1.1,2.6-3,4.3-6.2,4.3c4.1-5,8.1-9.9,13.7-13.2
		C972.5,435.7,972.7,435.9,972.9,436.2z"/>
	<path d="M887.5,219.6c0.1-1.1,1-1.1,1.8-1.1c1.6,0.1,12.3,3.2,12.9,3.7C900.3,223.5,890.6,221.8,887.5,219.6z"/>
	<path d="M1006.2,357.8c-3.7-3.2-6.7-6.9-8.1-11.8c4.1,2.9,6.2,7.3,9.2,11C1007,357.2,1006.6,357.5,1006.2,357.8z"/>
	<path d="M537.2,248.8c-3.2,1.4-6.3,0.8-8.6-1.6C531.4,243.7,535.3,244.3,537.2,248.8z"/>
	<path d="M888.8,225.8c3.2-3.5,6.9-2.8,8.7,1.4C894.9,228.7,892.1,228.3,888.8,225.8z"/>
	<path d="M526.9,241c2.2-1.1,12.8,0.9,15,2.6C540.1,245,531.2,243.5,526.9,241z"/>
	<path d="M421.4,606.9c8.5-0.8,24,0.8,27.9,3C440.1,608.1,430.7,608.5,421.4,606.9z"/>
	<path d="M962.7,265.4c2-2.5,7.5-2.5,9.5,0.2c1.8,2.5,3.3,5.2,4.4,8.2c-2.4-2.1-3.5-5.2-6.1-7.5C968,266,965.4,265.7,962.7,265.4
		L962.7,265.4z"/>
	<path d="M827.6,605.1c10,0.8,20.1,0,29.8,3.1c-3.2,0.4-6.2-0.4-9.3-0.9c-6.1-1-12.4-0.3-18.4-1.7
		C828.9,605.5,828.2,605.5,827.6,605.1L827.6,605.1z"/>
	<path d="M1015.6,366.7c3.8,5.7,2.3,13.6-2.9,16.2c-0.1-2.1,1.7-2.8,2.9-4.5C1015.6,375,1015.6,371.1,1015.6,366.7z"/>
	<path d="M962.7,265.4c0,1.4-1,1.7-1.9,1.4c-2.7-1-5.3-2.2-8.1-3.4c1.9-1.8,4.8-1.8,7.3-0.1C960.9,263.9,961.8,264.7,962.7,265.4
		L962.7,265.4z"/>
	<path d="M814.9,400.3c6.3,1.8,12.9,2.4,18.7,5.5C827.3,404.4,820.8,403.2,814.9,400.3z"/>
	<path d="M595.1,281.9c2.6-0.3,4.3,1.5,5.5,3.3c2,3.1,2.7,6.7,2.8,10.4c-0.8-2.1-1.7-4.3-2.5-6.4c-0.9-2.6-2.1-4.8-4.7-5.9
		C595.6,283,595.4,282.4,595.1,281.9L595.1,281.9z"/>
	<path d="M1007.2,375.2c1.1-3.3,2.6-6.3,4.4-9.4C1013.4,368.7,1011.5,372.6,1007.2,375.2z"/>
	<path d="M705.7,366.4c0.8-0.3,1.7-0.7,2.4-0.1c3,2.3,5.6,4.9,7.2,8.5C711.6,372.6,709.2,368.8,705.7,366.4L705.7,366.4z"/>
	<path d="M897.7,212.3c-1.8,1.6-5.8,0.8-8-1.4C891.7,209.2,893,209.5,897.7,212.3z"/>
	<path d="M537.4,234.1c-2.1,1.2-5.8,0.4-8-1.7C531.3,230.5,534.1,231.1,537.4,234.1z"/>
	<path d="M617,401.8c-2.2,3.5-5.3,6.2-8.7,8.5C610.6,406.9,613.3,403.9,617,401.8z"/>
	<path d="M632.1,358.6c0.5,4.7-3.2,7.9-4.2,12.2C627,365.9,631.1,362.8,632.1,358.6z"/>
	<path d="M905.1,264.3c-1.1,1.9-0.8,3.9-1.6,5.9c-2.1-2.2-0.1-4.2-0.2-6.3c-0.6-1.7-2.7-3.1-2.5-6.2
		C903,259.8,903.4,262.3,905.1,264.3z"/>
	<path d="M937.8,472.1c-1.2-4.8-0.3-6.9,3.6-8.8C940,466.6,938.9,469.4,937.8,472.1z"/>
	<path d="M891.6,283c3.7,0.6,6.4-2.3,9.9-1.1C898.7,284.9,894.1,285.6,891.6,283z"/>
	<path d="M617.7,344.9c-0.9,3.5-1.1,7.2-4,10.4c-1.1-1.6-0.7-2.7,0.2-3.6c1.1-1,1.5-2.4,1.9-3.7
		C616.2,346.9,616.2,345.5,617.7,344.9z"/>
	<path d="M1003.8,443.1c-4.1,1.7-8.5,2.2-12.9,2.7C994.9,443.7,999.3,443.3,1003.8,443.1z"/>
	<path d="M596,444.7c-4.2,1.5-8.4,2-13,2.9C585.3,445.7,591.5,444.3,596,444.7z"/>
	<path d="M884.6,615.2c-6-0.2-11.9-1.2-17.8-2.1C872.8,613,878.7,613.8,884.6,615.2L884.6,615.2z"/>
	<path d="M476.6,616.5c-6,0.2-11.9-1.2-17.8-1.9C464.8,614.3,470.6,615.4,476.6,616.5L476.6,616.5z"/>
	<path d="M991.3,300.7c0-3.5,0-7,0-10.5c1.5,3.5,2.2,7,0.8,10.6C991.9,300.7,991.6,300.7,991.3,300.7z"/>
	<path d="M982.1,285.2c-1.5-2.9-3-5.9-4.5-8.8c0.2-0.1,0.5-0.2,0.8-0.4C980.4,278.6,982.1,281.5,982.1,285.2z"/>
	<path d="M1006.3,394c-1.5,2.2-2.9,4.4-4.4,6.6c-0.2-0.2-0.4-0.3-0.7-0.5c0.4-2.9,2.2-4.9,4.5-6.6
		C1005.9,393.7,1006.1,393.9,1006.3,394z"/>
	<path d="M1007.4,391c0.9-2.4,1.4-5,3.2-7C1010.8,386.9,1009.5,389.2,1007.4,391z"/>
	<path d="M409.5,605.6c2.9,0,5.8-1.2,9.3,0.9C415.2,605.7,412.3,607,409.5,605.6z"/>
	<path d="M1006.8,376.7c-0.5,2.1-1,4.1-2.7,5.6C1003.8,379.2,1004.1,378.6,1006.8,376.7z"/>
	<path d="M927.7,469.7c-1.1-3.4,0.2-5.4,1.7-7.8c1.3,1.7,0.3,2.8-0.4,3.7C928.1,466.6,928.7,467.9,927.7,469.7z"/>
	<path d="M547.4,288.2c2-1.2,4.1-2.4,6.6-2.1C552.1,287.7,550,288.6,547.4,288.2z"/>
	<path d="M942.7,478.1c-4,1.3-4,1.3-6-0.7C938.8,477.3,940.6,476.5,942.7,478.1z"/>
	<path d="M546.2,272.6c-0.5-2.4,0.6-4.1,2.5-6.2C549.1,269.5,547.2,270.9,546.2,272.6z"/>
	<path d="M827.6,605c-3-0.8-6.3,0.7-9.8-1C821.5,603.7,824.6,603.4,827.6,605L827.6,605z"/>
	<path d="M991.1,321.7c0.7,2.6,1.4,5.3,2.1,7.9c-2.6-2.1-1.5-5.2-3-7.6C990.5,321.9,990.8,321.8,991.1,321.7z"/>
	<path d="M995.6,339c-2.5-1.6-1-4.4-1.7-6.5C994.8,334.6,996.2,336.5,995.6,339L995.6,339z"/>
	<path d="M569,260.6c0.8-2.1,0.7-4.5,1.8-6.6C571,256.4,570.8,258.7,569,260.6z"/>
	<path d="M929.2,239.1c0.9-2.1,0.9-4.4,2-6.4C931,235,931.4,237.4,929.2,239.1z"/>
	<path d="M996.2,394.4c-0.9,1.6-2,3.1-3.8,3.8C993,396.3,994.1,394.9,996.2,394.4z"/>
	<path d="M1001,384.6c0,2-0.3,3.7-2.2,5.7C999,387.8,999,385.8,1001,384.6z"/>
	<path d="M537.1,267.2c-1.9-0.9-3-2.3-2-4.8C537.1,263.6,536.3,265.7,537.1,267.2z"/>
	<path d="M995.6,339.1c1.6,1.2,2.5,2.7,1.9,4.9C995.1,342.8,995.6,340.8,995.6,339.1L995.6,339.1z"/>
	<path d="M591.1,327.1c2.4,0.2,3.4,1.3,5.1,2.7C593.6,330.1,592.1,329.8,591.1,327.1z"/>
	<path d="M595.2,281.8c-1.7,0.2-3.4,0-5.5,0.8C592.4,279.5,593.9,279.4,595.2,281.8L595.2,281.8z"/>
	<path d="M937.9,472.9c0.3,2.7-1.2,3.6-3.6,4.8C934.9,475.2,936.2,474.2,937.9,472.9z"/>
	<path d="M603.9,297.7c1.9,1.2,2,2.9,2,4.7C605.2,301,603.7,299.9,603.9,297.7z"/>
	<path d="M537.9,268.7c0.5,2.2-0.9,3.9-0.7,5.9C535.9,272,536,271.2,537.9,268.7z"/>
	<path d="M904.5,465.2c-1.9,1.2-4,1.8-6.9,1.7C900.2,465.4,902.3,465.3,904.5,465.2z"/>
	<path d="M924.4,474.4c1.5-1.6,2.1-3.2,4.2-4.2C928,472.6,927.3,474.2,924.4,474.4z"/>
	<path d="M618.4,410.8c0.9-1.6,1.8-3.2,3-5.4c0.5,3.1-1.3,4.3-2.4,5.8C618.9,411.1,618.7,410.9,618.4,410.8z"/>
	<path d="M923,629.5c-0.3-1.4-0.7-2.9-1.1-4.9c1.8,1.7,2,3.2,1.8,4.8C923.5,629.4,923.2,629.5,923,629.5z"/>
	<path d="M982,316c-2.6,1.5-3.6,0.4-4.9-1.1C978.9,314.5,980,315.3,982,316z"/>
	<path d="M944,474.4c0.1-2.3,1.5-3.2,2.8-4.2C946.7,471.9,946.2,473.5,944,474.4z"/>
	<path d="M525.8,621.9c-1.2,1.6-2.6,1.1-4.5,1C522.9,621.5,524.2,621.6,525.8,621.9z"/>
	<path d="M933.8,620.4c-1.2,1.7-2.6,1.1-4.4,1C930.9,620,932.2,620.2,933.8,620.4z"/>
	<path d="M922.7,475.6c-2.3,0.5-3.4-0.1-4.3-2C920.2,473.6,921.3,474,922.7,475.6z"/>
	<path d="M840.7,463.7c2.1-0.4,3.7,0.9,5.4,1C844.4,464.8,842.6,465.3,840.7,463.7z"/>
	<path d="M715.6,385c-1.3-0.7-2.2-1.7-3.2-3.8C714.4,382.4,715.1,383.6,715.6,385z"/>
	<path d="M1011.6,402.8c-0.1,0.2-0.2,0.3-0.3,0.5c-0.3,0.4-0.5,1-1,1.2c-0.3,0-0.5-0.2-0.6-0.4c0.8-1.8,1.6-3.5,3.5-4.9
		c0.1,0.7,0.1,1.1,0.2,1.5l0.1-0.1C1012.9,401.2,1012.6,402.3,1011.6,402.8z"/>
	<path d="M905.6,256.4c0.2-1.9,1-2.6,2.5-3.1C908.3,255.2,907.1,255.6,905.6,256.4z"/>
	<path d="M1028.4,439.2c-1.9,0.2-3.9,0.4-5.8,0.5C1024.5,438.9,1026.4,437.9,1028.4,439.2L1028.4,439.2z"/>
	<path d="M527.3,473c-0.6,1.4-1,2.9-3,3.4c0.7-1.3,1.5-2.5,2.2-3.8C526.8,472.7,527,472.8,527.3,473z"/>
	<path d="M616.7,440.7c2-1.4,3.9-0.3,5.8,0.5C620.6,441,618.6,440.8,616.7,440.7L616.7,440.7z"/>
	<path d="M874.1,468.8c1.4,0,2.8,0,4.1,0c0,0.1,0,0.1,0,0.2c-1.4,0-2.8,0-4.1,0C874.1,469,874.1,468.9,874.1,468.8z"/>
	<path d="M628.1,407.7c0.3-1.3,0.7-2.6,2.1-3.9C630.5,405.9,628.9,406.6,628.1,407.7z"/>
	<path d="M613.2,361.3c-0.1-1.9-0.4-3.3,1.3-4.7C614.3,358.4,615,359.7,613.2,361.3z"/>
	<path d="M617.5,326.1c-0.1-1.4,0.7-2.3,1.8-3.5C619.6,324.5,618.8,325.4,617.5,326.1z"/>
	<path d="M890.9,282.1c-1.8,0.1-1.8,0.1-3.4-1.1C889,280.7,890.1,280.8,890.9,282.1z"/>
	<path d="M977.8,355.6c0.6,0.7,1.2,1.3,1.9,2.1C978.5,357.6,978.3,356.5,977.8,355.6z"/>
	<path d="M515.5,630.7c-0.7-1.1-1.4-2.2-0.9-3.8C515.9,628,515.8,629.3,515.5,630.7z"/>
	<path d="M720.1,392.9c1.3,0.9,1.4,2.3,1.1,3.7C720.8,395.3,720.5,394.1,720.1,392.9L720.1,392.9z"/>
	<path d="M891.8,270.8c0.7,1.4,0.3,2.1-0.8,2.9C890.2,272.3,890.6,271.6,891.8,270.8z"/>
	<path d="M575.8,433.2c-0.8,1.2-1.5,1.7-3,1.7C573.7,433.8,574.5,433.4,575.8,433.2z"/>
	<path d="M583.7,428.6c-0.9,1.5-1.8,2-3.3,1.9C581.1,429.2,582.1,429,583.7,428.6z"/>
	<path d="M544.9,276.3c0,1.4-0.7,1.8-1.9,2.3C543.1,277.1,543.6,276.5,544.9,276.3z"/>
	<path d="M930.6,476.3c-1.4,0.8-2,0.6-2.4-0.7C929.4,474.8,929.9,475.5,930.6,476.3z"/>
	<path d="M972.6,315.2c1.5-1,2.1,0.1,3.1,0.6C974.1,316.9,973.5,315.9,972.6,315.2z"/>
	<path d="M533.6,282.8c-0.9-0.8-0.7-1.4-0.5-2.1C534.2,281.2,534.5,281.8,533.6,282.8z"/>
	<path d="M456.3,612.1c-0.4,0.8-0.8,1.1-1.4,0.7c-0.1-0.1-0.2-0.5-0.1-0.6C455.2,611.5,455.7,611.6,456.3,612.1z"/>
	<path d="M724.4,408.6c1.1,1.1,0.7,2.3,0.4,3.6C724.7,410.9,724.5,409.7,724.4,408.6L724.4,408.6z"/>
	<path d="M521.5,471.4c0.1,1.4-0.7,2.4-2,3.4C519.5,473,520.3,472.1,521.5,471.4L521.5,471.4z"/>
	<path d="M903.7,271.6c0.4,1.1,0,1.8-0.6,2.4c-0.8-0.3-0.5-0.9-0.4-1.4C902.7,272.2,902.9,271.8,903.7,271.6z"/>
	<path d="M513.6,476.2c-1.2,0.6-2.2,0.6-2.8-0.9C512,474.6,512.8,475.1,513.6,476.2z"/>
	<path d="M603.5,368.5c0.5,1.3,0.5,2.2-0.8,2.9C601.9,370.2,602.6,369.4,603.5,368.5z"/>
	<path d="M730.3,419.7c0.4,0.4,0.7,0.9,1.1,1.4C730.1,421.5,730.4,420.3,730.3,419.7z"/>
	<path d="M608.5,309.9c-0.5-1.2-0.8-1.9-0.3-3.4C608.9,307.7,609.1,308.4,608.5,309.9z"/>
	<path d="M599.1,330.3c-1,0.5-1.6,0.3-1.9-1C598.3,328.7,598.8,329.4,599.1,330.3z"/>
	<path d="M604.1,333.1c-1.2-0.2-1.8-0.6-2-1.7C603.4,331.2,603.9,331.8,604.1,333.1z"/>
	<path d="M608.4,398.4c-0.4,0.9-0.9,1.3-1.6,1.3C606.6,398.6,607.2,398.4,608.4,398.4z"/>
	<path d="M992.2,319.5c-0.1-1.4,0.7-1.7,1.5-2.8C993.8,318.4,993.5,319,992.2,319.5z"/>
	<path d="M521.5,471.4c0-1.1,0.5-1.9,1.7-2.6C523.2,470.3,522.6,471,521.5,471.4L521.5,471.4z"/>
	<path d="M530.6,479.1c-0.2,1-0.6,1.4-1.6,1.2C529,479.5,529.3,479,530.6,479.1z"/>
	<path d="M1019.9,389.4c0.6-1.1,0.5-1.9,1.5-2C1021.7,388.3,1021.2,388.8,1019.9,389.4z"/>
	<path d="M724.4,408.5c-0.5-0.7-0.7-1.5-0.5-2.4C724.7,406.8,724.5,407.7,724.4,408.5L724.4,408.5z"/>
	<path d="M909.4,249.9c0.3,1-0.2,1.2-0.7,1.4C908,250.5,908.5,250.2,909.4,249.9z"/>
	<path d="M862.6,610.8c0.4-0.6,0.8-0.7,1.2-0.4s0.2,0.6-0.1,0.8C863.4,611.6,862.9,611.5,862.6,610.8z"/>
	<path d="M720.1,392.8c-0.3-0.7-0.6-1.3-1.2-2.4C720.2,391.2,720,392.1,720.1,392.8L720.1,392.8z"/>
	<path d="M624.7,384.7c-1.2-0.7-1.3-1.2-1.4-1.9C624.8,382.7,624.5,383.6,624.7,384.7z"/>
	<path d="M1028.4,439.3c0.8-0.1,1.6-0.2,2.6,0.2C1029.9,439.8,1029.2,439.8,1028.4,439.3L1028.4,439.3z"/>
	<path d="M565.1,440.3c0,0.7-0.3,1.1-1,0.9C564.1,440.6,564.4,440.2,565.1,440.3z"/>
	<path d="M1009.9,405.5c-0.4,0.1-0.8,0.3-1.2,0.4c-0.2-1,0.4-1.4,1-1.9c0.1,0.1,0.2,0.2,0.3,0.3
		C1010.3,404.8,1010.3,405.2,1009.9,405.5L1009.9,405.5z"/>
	<path d="M884.6,615.3c1.1,0,2.2-0.2,3.1,0.6v-0.1C886.6,615.8,885.6,615.7,884.6,615.3L884.6,615.3z"/>
	<path d="M897.9,268.2c-0.7-0.7-0.7-1.2-0.1-1.8C898.7,266.9,898.5,267.4,897.9,268.2z"/>
	<path d="M616.7,440.6c-0.5,0.6-1,0.7-1.8,0.3C615.5,440.4,616.1,440.6,616.7,440.6L616.7,440.6z"/>
	<path d="M568.9,436.1c-0.2,1.1-0.8,0.9-1.6,1.1C567.5,436.1,568,436,568.9,436.1z"/>
	<path d="M716.9,386.5c0.5,0.6,1,0.8,0.7,1.3C717.2,387.7,716.9,387.4,716.9,386.5z"/>
	<path d="M943.5,480.3c0.5-0.4,1-0.6,1.3,0.2c0.1,0.1-0.1,0.5-0.2,0.6C943.7,481.4,943.6,480.9,943.5,480.3z"/>
	<path fill="#FFFFFF" d="M482,383.7c-1.4-1.8-3.6-2.2-5.4-3.3c-4.7-2.8-9.9-3.4-15.1-4.4c-1.3-0.2-2.5-0.6-4.7-1
		c5-2.5,7.6-8.1,13.9-6.3c-1.2-0.3-2.4-0.7-3.8-1.1c1.6-2.9,2.2-6.2,5.1-8.4c1.4-1.1,1.6-3.1,2.2-4.8c0.8-2.2,1.3-4.9,3-6.4
		c6.1-5.1,6.4-12.3,6.9-19.1c0.5-7.4,3.2-12.8,8.7-17.9c7.6-7.1,14.9-14.7,20.6-23.6c1.3-2,2.8-3.7,6.2-4.4
		c-4.3,4.3-8.3,8.1-7.2,14.3c1.7,0.6,3.3,1.1,4.6,2.1c2.2,1.5,4.9,1.9,7.6,1.6c9.9-1.3,19.7-3,28.4-8.6c5.2-3.3,10.6-6.3,16.2-8.9
		c6.4-2.9,12.6-6.2,18.4-10.1c1.2,0.1,2.1,0.6,3.1,1.6c-12.2,8.2-20.2,19.5-24.2,33.6c-4,13.9-5.8,27.7-0.5,41.8
		c-0.6,1.1-2.5,0.6-3,2.3c1.3,1.7,3.3,0.3,5,0.9c1.3,1.4,2.6,2.9,4.2,3.8c0.5,1-0.7,1.3-0.3,2.1c1.1,0.2,1.5-1,2.8-1.1
		c2.6,0.6,5,2.9,7.7,2.8c3.8,4.3,2.5,8.1-0.1,12.1c-9.5,14.8-20.3,28.5-32.8,40.9c-2.9,2.9-6.5,4.9-9.7,7.2
		c-5.4,3.9-9.8,9.1-16.5,11.5c-1.4-1.8-2.2-4.1-3.3-6.3c-1.7-3.3-3.2-6.6-5.1-9.8c-1.7-2.7-3-5.6-4.5-8.4
		c-4.4-8-10.7-14.2-18.7-18.7c-1.2-0.7-2.5-1.3-3.8-2c-2.3-1.3-4.1-3.8-7.3-2.4c-0.5,0.2-1.3-0.4-2-0.6c-0.8,0,0,1.6-1.5,1.3
		c-1.5-1.1-3.1-2.4-4-4.8C476.2,381.5,478.7,384.2,482,383.7z"/>
	<path fill="#FFFFFF" d="M505.9,405.4c-0.7,0.3-1.4-0.2-2.3,0.5c0.1,1,0.9,2.2,0.2,3.4c4,2.1,3.8,6.8,7.2,10.1
		c-3-0.6-4.2,0.7-5.1,2.4c-0.6,1.3-0.6,2.5,0.8,3.4c1.3-1.4,1.3-3.5,3-4.4c1.9,0.8,2.9,3.4,6.1,2.5c-3.2,5.3-3.7,10.6-3.6,16.6
		c2.6-1.8,2-4.4,3.1-6.4c1.6,0.6,2.7,1.7,3.4,3.7c-5.3,6.4-8.3,14.5-15.4,19.6c-6.5,4.7-12.6,9.7-19.1,14.4c-2,1.5-3.6,3.4-5.6,4.9
		c-5.5,4.1-11.1,7.8-17.2,10.9c-4.2,2.1-8.3,4.2-11.4,8.3c-2.3,3.1-6,5.1-9.4,7c-5.1,2.8-9.4,6.3-12.1,11.7c-1.3,2.7-3.4,4.9-7,4.8
		c-1.6-0.1-3,1.3-4.8,1.1c-0.4-1.5-0.5-2.9,0-4.3c2.4-6.6,1.3-13.2,0-19.7c-1.7-7.8-4.1-15.4-7.2-22.8c-3.7-8.7-5.1-18-6.8-27.3
		c-0.6-3.1-1.5-5.6-3.8-7.8c-5-4.7-9.7-9.8-15.8-14.4c6.9-2.5,12.7-6.4,19-9.4c3.7-1.8,7.3-4.4,10.6-7c1.6-1.3,3.4-2.3,5.4-2.7
		c6.4-1.6,12.4-4.2,18.4-6.8c6.2-2.7,12.8-4.5,19.7-4.7c4.8-0.2,9.5-0.6,14.2-1.5c1.2-0.2,2.5-0.4,3.6-1.9c-3.5-0.5-6.4,1-9.5,0.7
		c-1.8-2.7-0.3-5.3,0.1-8.3c-5-1.3-9.8-0.8-14.6-0.7l0.1,0.1c4.6-3.5,13.3-3.8,16.7,0.2c1.9,2.3,4.4,3.4,6.3,5.4c2,2.2,4.1,3,7,2.3
		c0.7-0.2,1.4,0,2.3,0c2.4,4.4,7.1,6,11.3,9c-4-0.4-6.9-3.6-10.7-2.4c-0.1,1.4,0.9,1.4,1.7,1.6c4.4,1.4,7.9,4.7,12.4,5.9
		c1.9,0.5,4.3,0.1,5.4,2.6c1.8-2.5-0.7-3.5-1.3-5.1C503.1,401.8,504.4,403.7,505.9,405.4L505.9,405.4z"/>
	<path fill="#FFFFFF" d="M345.5,444.2c-2,1.8-4.9,1.9-7,3.4c-8.3,5.9-18.5,7.3-27.5,11.4c-8.8,4-18.4,6.1-26.7,10.8
		c-8.5,4.8-17.7,7.5-26.8,10.5c-3.7,1.2-7.6,2.1-11.4,3c-1.4,0.4-2.8,0.6-3.6,2c0.7,1.5,1.8,1,2.8,0.7c12.1-3.2,24-6.6,35.4-12
		c10.6-5.1,21.7-9.1,32.8-13.1c10.5-3.8,20.9-7.9,30.8-13.1c4.4-2.3,7.9-5.3,10.9-9.5c2-2.7,4.9-5.3,8.2-6.7
		c5.7-2.4,11.5-4.6,17.1-6.8c2.9,1,4.5,3.3,6.6,5.1c0.5,1.3-0.8,2.5-0.2,3.8c1.4,0.2,1.1-1.3,2-1.8c1,1.2,2.6,1.9,3.1,3.6
		c-1.5,1.3-2.8,2.8-4.8,3.4c-1.5,0.5-2.6,0.7-3.3-0.8c-7.6,3.5-14.9,7.9-22.8,8.4c2.1-0.9,5.4-0.3,8.2-1.7c3.4-1.7,7.1-2.8,10.4-4.6
		c1.1-0.6,2.4-1.4,3.5-1.1c3.9,1,6.4-1,8.7-3.6c2.7,1.6,4.5,4.2,6.7,6.4c0.4,0.4,0.8,1,0.8,1.6c0.5,6.7,2.7,13,4,19.7
		c-7,0.8-13.8,2.3-20.6,3c-1.6,0.2-3-1-4.5-0.5c-1.2,0.4-2.6,0.5-3.6,2c10,1.4,19.3-2.1,29-2.8c2.1,3.3,2.2,7.1,3.5,10.6
		c-4.2,0.2-8.3-0.4-12.4-0.8c-6.1-0.6-12.1-0.2-18.1,1c-0.6,0.1-1.4,0-1.7,0.3c-2.8,2.9-7,3.4-10,6.3c-6.1,6-13.5,10.5-20.3,15.8
		c-1,0.8-2.1,1-3.3,1.3c-5.3,1.5-10.7,2.6-15.7,4.6c-11.2,4.5-22.8,6.2-34.8,6.7c-2.6,0.1-5.2,0.6-7.6,1.7
		c-3.9,1.8-8.2,1.2-12.3,1.5c-8.3,0.6-16.1,2.8-23.9,5.6c-3.4,1.2-6.8,2.1-10.2,2.7c-1-1.5-0.7-2.9-1-4.3c1.2-1.5,3.2-1.5,4.6-3.1
		c-1.5-1.2-3.3-0.2-5.2-1c-0.5-6-1-11.9,4-17c3.5-3.5,5.7-7.5,0.7-13.1c-1.7-1.9-2.5-4.7-5.8-5.1c11.6-3.2,21.6-9.3,32.3-13.9
		c10.4-4.5,20.2-10.6,31.6-12.7c9.9-1.8,17.2-8.2,24.9-14c2.7-2,5.5-4.1,9-4.7c1.7-0.3,3-1.3,4.1-2.7c0.8-1,1.7-2.2,3-2.5
		c7.8-1.9,15.4-5.1,23.6-1.9c1.1,0.4,2.3,0.7,3.5,1.9c-3.8,1.5-7.4,3.2-10.3,6.8c-0.1-2.5,1.6-4.6-0.9-6.7c-1.6,2.6-1.1,5.7-2.9,7.7
		c-4.8,2.7-9.4,5.4-14.6,8.3C340.7,445.8,343.1,444.1,345.5,444.2L345.5,444.2z"/>
	<path fill="#FFFFFF" d="M186.6,430.5c4.7,2.3,9.2,5,12.8,8.8c0.8,0.9,1.3,1.9,1.6,3.1c1.7,5.8,3.9,11.5,6.7,16.9
		c1.2,2.3,0.1,4.6,0.4,6.9c0.3,0.8,1.2,0.7,1.7,0.9c0.1,1.3-0.6,2.5,0.1,3.8c1.9-0.3,2.9-1.8,4.5-3.7c0.1,3.2-2.5,5.5-0.8,7.9
		c1.2,0.9,1.9-0.3,3-0.3c0.5,3.1-1.6,6.2-0.1,9.8c4.1-1.5,3.7-5.1,4.2-8.2c2.9,2,3.3,3.8,2.2,11.3c1.7-0.9,1.9-2.4,2.4-3.7
		c0.6-1.4,1-2.9,1.5-4.5c3.3,1.1,6.4,2.2,9.4,3.2c0.3,0.3,0.5,0.5,0.6,0.7c3.6,7.3,3.5,7.3-2.2,13.3c-3.6,3.8-5.8,8.4-7.2,13.4
		c-0.8,2.6-1.1,5.3-2.3,7.8c-1.1,2.2,0.3,4.3,3.6,5.4c2.3,0.8,4.2,1.7,4.8,4.4c-0.5,1.2-1.8,1.6-2.9,2.4c-1.5,1-3.1,1.9-2.7,4.2
		c0.1,0.3-0.1,0.7-0.3,1c-2.5,2.8-4.6,6.3-7.6,8.3c-5.2,3.3-9.8,7.5-15.4,10.3c-1.4,0.7-2.7,1.2-4.3,1.1c-7-0.2-12.9-3-17.9-7.8
		l0.1,0.1c-0.2-2.7-2.1-4.7-3-7.1c-1-2.5-1.8-4.9-1.8-7.6c0-6.4-0.8-12.8-0.6-19.3c0-1.2-0.1-2.4-0.7-3.4
		c-3.6-6.5-6.5-13.4-10.5-19.8c-4.4-7.1-6.2-15.1-6.7-23.4c-0.2-2.7-0.4-5.4-1.4-8.1c-0.6-1.5-0.3-3.1,0.1-4.6c1-4.8,2.9-9.3,5-13.7
		c0.6-1.2,1.6-2,2.7-2.8c3-2.1,6-4.1,8.6-6.9C177.5,427.1,181.6,427.3,186.6,430.5c-0.2,0.7,0,1.5-0.4,1.7c3.1,3.3,6.1,6.9,8,11
		c3.6,7.8,4.4,16.3,5.8,24.7c0.8,4.6,0.6,9,0.9,13.5c0.4,5.2,0.4,10.6-0.4,14.8c1-6.2,0.7-13.4,0.4-20.7
		c-0.5-11.1-2.4-22.1-6.7-32.5c-1.5-3.5-4.5-6.1-6.5-9.3C187.1,432.6,186.3,431.8,186.6,430.5z"/>
	<path fill="#FFFFFF" d="M587.1,371.4c3.2,3.6,5.5,7.6,7.8,11.8c-0.9,2.2-2.6,3.9-4.5,5.3c-9.9,6.9-18.1,15.4-25.2,25.1
		c-2.4,3.3-5.9,5.5-9.3,7.8c-2.1,1.4-3.9,2.9-5.4,5.1c-1.3,1.9-3.2,3.3-5.3,4.6c-4.2,2.7-8.5,5.5-10.6,10.6
		c-0.9,2.2-2.3,4.7-5.3,5.3c-0.6,0.1-1.1,0.9-1.6,1.4c-4.9,4.8-9.7,9.7-14.5,14.6c-0.4,0.4-0.7,1-0.9,1.5
		c-1.9,7.2-6.6,13.1-9.1,19.5c-11.3,3.2-22.4,2.6-33.6,2.3c0.2-1.3,1.3-1.4,2-1.9c5.1-3.6,10-7.3,14.6-11.5c0.7-0.6,1.4-1.4,2.2-1.7
		c9.7-4.1,16.6-11.6,23.8-18.8c3.6-3.6,5.9-8.1,8.2-12.4c0.9-1.7,2.1-2.9,3.6-3.8c11.4-7,21.7-15.4,32.6-23.1
		c3.4-2.4,5.8-5.5,8.1-9.1c2.5-4.1,6.2-7.5,9.2-11.3c3.2-4.1,6.4-8.3,9.2-12.7C584.9,377.2,586.8,374.7,587.1,371.4z"/>
	<path fill="#FFFFFF" d="M450,381.2c0,0.6-0.3,1.1,0.8,1.1c3.6,0.2,7.1,0.6,10.9,0.9c-0.2,2.5-1.1,4.7-0.2,7.6
		c-5.5-2.8-11-1.9-15.9-4.4c-2.8-1.4-5.2,0-8,3.9c4.6-2.5,9.2-2,14,0.5c-8.8,1-16.8,3.7-24.4,7.6c-4-4.1-8-7.7-14.3-8.8
		c3.1,4.2,6.9,6.6,10.5,9.8c-3.4,1.2-6.2,2.1-9.6,1.4c-4.6-1.1-9.3-0.3-13.9,0.9c0,0.3,0,0.6,0,0.9c3.9,0.3,7.8,0.6,11.6,0.9
		c-4,3.5-8.1,6.5-12.5,9c-1,0.5-2.1,0.2-3.2,0.1c-2.5-0.2-4.9-0.9-7.8-0.3c2.5,1.4,5,1.2,7.6,1.6c-0.7,1.4-2,1.7-3,2.2
		c-7.8,3.3-14.5,9-23.3,11.1c-3.6-3.6-8.5-4.2-13.6-4.6c3.9-5.1,8.4-8.8,14.1-11.4c5.3-2.4,10.1-5.9,14.9-9.2
		c4.5-3,9.1-5.6,14.2-7.4c4.3-1.5,8.2-3.5,12-6.2c4.1-3,9-4.2,14.2-4.2c2.3,0,4.5,0,6.8,0.3c6,0.7,11.6,0.2,16.9-2.9
		C449,381.3,449.6,381.4,450,381.2L450,381.2z"/>
	<path fill="#FFFFFF" d="M412.2,522.1c-3.4,0.4-6.5-0.3-9.4-2.3c-3.4-2.4-6.9-4.7-10.3-7.1c-3.8-2.6-6.6-5.7-8.5-10.2
		c-3-7.2-7-14-11.3-20.5c2.2-2.3,4.7-3.6,7.6-3.9c5.8-0.6,11.6-1.4,17.4-0.6c3.5,0.5,7.1,0.5,11.1-0.2
		C412.9,492,418.3,506.5,412.2,522.1z"/>
	<path fill="#FFFFFF" d="M178.9,543.8c-5.6,1.2-7.9,0.3-10.7-4.2c-0.6-1.1-1.4-1.9-2.4-2.6c-3.1-2.4-4.1-5.7-4.3-9.4
		c-0.1-2.6,0-5.3,0.7-7.8c3.1-11.5,1-22.1-4.1-32.7c-5.1-10.5-8.6-21.6-7.2-33.7c1-8.5,4.7-15.9,10.3-22.3c1.3-1.5,2.2-3.4,3.9-4.5
		c3.4-2.2,7-2.8,10.8-0.3c-3.3,2.2-5.9,5.3-9.4,7.3c-6.9,3.9-8.7,11-10.6,17.9c-0.8,2.9-0.8,5.7,0.3,8.7c1.4,3.9,0.9,8.3,1.7,12.3
		c1.3,6.5,3.1,12.9,6.4,18.7c3.5,6.2,6.4,12.8,10.2,18.8c0.8,1.3,0.8,2.7,0.8,4.1c0.1,3.3-0.1,6.6-0.1,10
		C175.3,530.9,175,537.7,178.9,543.8z"/>
	<path fill="#FFFFFF" d="M513.3,284.1c-7.2,10.1-15.4,19.1-24.4,27.7c0.1-2.9,1.3-5.1,2.3-7.6c-2.3,1.4-2.3,1.4-4.1,6.3
		c-0.9,2.3-1.6,4.6-2.7,7c-0.4-1.8-0.7-3.7-0.1-5.4c2.2-6.1,3.8-12.4,7.7-17.9c3.3-4.6,7.7-7,12.8-8.4
		C507.5,285,510.3,284.7,513.3,284.1z"/>
	<path fill="#FFFFFF" d="M581.8,358.5c-2.4-1.3-4.9-1.2-5-4c-1.1-0.7-1.3,0.8-2.3,0.8c-1.5-0.6-2.8-1.5-3.7-2.7
		c-0.7-2.9,2.8-3.1,3.1-5.4c-2.6-0.8-2.8,2.6-5.1,2.4c-2.2-2.2-2.2-5.2-2.1-8c5.1-3.3,9.9-6.6,15.2-8.9
		C581.8,340.9,580,349.3,581.8,358.5z"/>
	<path fill="#FFFFFF" d="M234.2,500.6c-1.5,4.6-2,9.3-1.9,13.8c-0.3,1.5-2,1.5-2.3,3.1c0.9,1.3,3.7,1.3,2.9,4.2
		c-1.8-0.6-3.8-0.9-5.5-2.5C230.4,513.2,230,506.1,234.2,500.6z"/>
	<path fill="#FFFFFF" d="M578.6,224.1c2,2.5,0,3.7-1.5,5.1c0.4-1.4-0.6-2.3-1.1-3.3C576.6,225,577.3,224.3,578.6,224.1z"/>
	<path fill="#FFFFFF" d="M520.2,434.8c-1.1-0.9-2.2-1.9-3.4-2.9c0-1.1,0.5-1.7,1.4-2.3C519.3,431.1,519.9,432.8,520.2,434.8z"/>
	<path fill="#FFFFFF" d="M571.6,224.7c0.8-1.9,0.8-4.4,4-5C575.8,223,573.2,223.4,571.6,224.7L571.6,224.7z"/>
	<path fill="#FFFFFF" d="M568.6,197.5c-1.8-1.4-2.8-3-3.7-5.1C567.9,194.6,567.9,194.6,568.6,197.5z"/>
	<path fill="#FFFFFF" d="M487.9,390.6c-2.2,0.6-3.1-0.4-3.8-3.1C485.6,388.9,487.2,389,487.9,390.6L487.9,390.6z"/>
	<path fill="#FFFFFF" d="M527,184.6c-1.1-0.8-1-1.9-1.7-2.8c1.1-0.2,1.9,0,2.6,0.5C527.9,183.1,527.9,183.9,527,184.6z"/>
	<path fill="#FFFFFF" d="M347.7,442.8c1.6-1.5,2.8-3.4,4.8-4.5C351.4,440.3,350,442,347.7,442.8L347.7,442.8z"/>
	<path fill="#FFFFFF" d="M552.3,184.9c-1-1.1-1.9-2-3-3.2C552,181.5,552.7,182.5,552.3,184.9z"/>
	<path fill="#FFFFFF" d="M576.7,213.5c0-1.2,0-2.5,0-4.3C578.4,211,577.1,212.3,576.7,213.5z"/>
	<path fill="#FFFFFF" d="M542.7,192.3c0.9-1.4,2.1-1.3,3.4-1C544.9,191.6,543.8,192,542.7,192.3z"/>
	<path fill="#FFFFFF" d="M568.1,210.2c1.3,0.4,1.7,1.1,1.6,2.2C568.2,212.4,568,211.6,568.1,210.2z"/>
	<path fill="#FFFFFF" d="M563.6,202.6c0,1,0,1.7,0,2.5c-0.2,0-0.5,0.1-0.5,0C562.3,204.3,561.5,203.5,563.6,202.6z"/>
	<path fill="#FFFFFF" d="M505.8,405.5c0.7,1,1.6,1.9,1.9,3.3C505.2,408.5,506,406.7,505.8,405.5L505.8,405.5z"/>
	<path fill="#FFFFFF" d="M526.9,213c1.2-0.6,1.5,0.5,2.3,0.5C528.3,213.9,527.5,214.1,526.9,213z"/>
	<path fill="#FFFFFF" d="M574.1,194.3c1.3,0.3,1.5,1.1,1.8,1.9c-0.4,0.2-0.6,0.4-0.8,0.3C574.1,196.1,574,195.3,574.1,194.3z"/>
	<path fill="#FFFFFF" d="M567.6,185.4c1.2,0.4,1.7,0.9,2,1.8C568.1,187.5,567.9,186.6,567.6,185.4z"/>
	<path fill="#FFFFFF" d="M534.9,178.6c-1.2-0.8-1.7-1.4-0.8-2.6C534.8,176.6,534.8,177.5,534.9,178.6z"/>
	<path fill="#FFFFFF" d="M573,211.9c-0.9-0.1-1.2-0.7-1.7-1.4C572.9,209.9,573,210.8,573,211.9z"/>
	<path fill="#FFFFFF" d="M487.8,390.6c0.8-0.2,1.4,0,1.7,0.8C488.2,392.5,488,391.5,487.8,390.6L487.8,390.6z"/>
	<path fill="#FFFFFF" d="M495.9,395.3c-1.5,0.1-2.1-0.1-2.1-1.1C494.7,393.9,494.9,394.7,495.9,395.3z"/>
	<path fill="#FFFFFF" d="M499.6,399c-1.1-0.2-1.4-0.6-1.6-1.4C498.9,397.6,499.2,398.1,499.6,399z"/>
	<path fill="#FFFFFF" d="M345.6,444.3c0.4-1,1.3-1.2,2.2-1.5l-0.1-0.1C347.3,443.7,346.4,444,345.6,444.3L345.6,444.3z"/>
	<path fill="#FFFFFF" d="M549,190.7c0.3-0.5,0.5-1.1,1.1-0.8c0.2,0.1,0.3,0.4,0.3,0.5C550.2,191,549.7,190.9,549,190.7z"/>
	<path fill="#FFFFFF" d="M490.6,393.6c0.4-0.1,0.6,0.2,0.6,0.5c0,0.2-0.2,0.4-0.4,0.5c-0.4,0.1-0.6-0.2-0.7-0.6
		C490.3,393.8,490.5,393.7,490.6,393.6z"/>
	<path fill="#FFFFFF" d="M915.4,396.9c3.9,1.3,7,3.8,10.3,6c1.5-0.1,0.3-1.4,1-2c1.1-0.5,2.2-0.4,3.5-0.1c0.9,1.9,3.3,3.3,1.4,5.8
		c1.2,2,3.2,3.4,3.2,6c0,2.1,0.4,4.2,0.7,6.4c3.5-2.3,3-7.8-1-13c0.6-0.9,2.2,0.1,2.7-1.2c-0.2-1.2-1.2-0.8-2-1
		c-1.4-0.4-2.4-1.1-2.1-2.8c0.8-5.5,0-10.6-3.3-15.3c-0.2-0.2-0.1-0.6-0.2-1.2c2,0,3.4,1.2,5.1,2c-0.2,2.7,0.7,5.1,2,7.4
		c1.7,3,2.2,6.5,3.4,9.7c2.3,5.7,1.9,11.7,3.5,17.4c1,3.6-0.3,7.3-0.6,11c-0.2,1.8-0.7,3.5-0.5,5.2c-7.2,6.1-15.4,10-23.5,14.1
		c-6.4,3.2-13,4-20,3.4c-3.4-0.3-6.9,0.2-10.3,0.3c-4,0.1-7.5-1.1-10.7-3.3c-3.2-2.2-6.5-4.4-9-7.5c1.1-7.1,1.8-14.3,2.1-21.4
		c0.6-14.9,1.5-29.8,2.4-44.7c0.4-5.8,0.3-11.6,0.6-18.1c-0.1,15.1-1.4,29.5-2.2,43.9c-0.5,9.2-0.7,18.5-1.5,27.7
		c-0.4,4.2-0.7,8.5-1.4,12.7c-1.1-0.4-2-1.1-1.9-2.3c0.2-2.3-1.3-3.5-2.7-4.7c-2.5-2.2-5-4.5-7.8-6.3c-3.1-2-4.6-4.5-5.2-8
		c-0.6-3.4-2-6.7-2.4-10.1c-0.4-3.7-1.6-7.1-0.7-11.1c2.9-13.7,3.6-27.6,5-41.5c0.5-5.3,1.2-10.7,1.8-16c0.1-1.2,0.4-2.3-0.2-3.5
		c-4.9,21-5.4,42.5-8.6,63.8c-1.2-0.1-1.8-0.9-2.1-1.7c-1-3.4-3.6-4.6-6.6-5.3c-4.5-1.1-8.3-3.4-12.4-5.5c-1.9-0.9-3.4-2.2-4-4.3
		c1.6-4.6,4.8-8.2,7.7-12c8.8-11.3,16.1-23.6,20.4-37.4c0.5-1.6,1-3.1,2-4.5c3.4-4.7,6.7-9.5,10.1-14.2c0.6-0.8,0.2-1.7,0.6-2.6
		c3-7,5.5-14.2,7.3-21.6c0.1-0.3,0.4-0.6,0.7-1.2c4,5.6,9.5,9.8,12.8,15.8c4.3,7.9,10.4,14.5,15,22.2c5.6,9.3,11.7,18.3,16.6,27.9
		c1.6,3.2,3.6,6.2,5.7,9.1c2.1,2.8,4.2,5.6,5.2,9.2c1.6-1.1,0.3-2.2,0.9-3.3c7,0.9,13.5,3.7,20.1,6.3c-5.9-4.8-13-6.7-20-8.3
		c-2.8-4.1-5.5-8.1-8.6-12.6c5.6,1.5,10.6,1.1,15.6,2.2c-5.2-2.5-10.9-3.1-16.2-3.9c-8.5-15.8-17.9-30.5-28.1-44.8
		c-5.2-7.4-10.6-14.6-17-21c-0.2-0.2-0.3-0.4-0.4-0.6c4.3-12.2,10.9-25.5,13.4-27c0.3,0.3,0.4,0.6,0.2,0.9
		c-3.8,5.7-4.3,12.2-4.5,18.8c-0.1,5.3,2.5,8.6,6.6,8.2c11.2-1,21.6-4.7,31.4-10.2c13.2-7.4,23.2-18.1,32.1-30
		c0.7-0.9,1.3-2,2.5-2.7c1,0.4,2.1,0.9,3.2,1.4c0.4,0.2,0.7,0.5,1.6,1.2c-2.3,2.1-4.3,4.3-6.6,6.2c-3.9,3.4-7.2,7.3-10.3,11.4
		c-4.2,5.6-5.6,12.1-5.5,18.9c0,3.4-0.1,6.6-0.6,9.9c-2.4,17.4,4.6,30.3,19,39.7c1.9,1.2,4,2.1,6.4,2c2.9,6.3,5.4,12.8,10,18.1
		c0.4,0.5,0.6,1.1,0.5,1.7c-0.7,3.6-0.1,7.5-1.4,11c-3.6,9.3-5.6,19.2-9.3,28.5c-2.6,6.4-5.2,12.8-10.1,17.9
		c-1.1,1.2-2.2,2.6-3.9,3.4c-2-4.3-1.6-9.1-2.9-13.5c-1.6-5.7-2.3-11.7-5.6-16.9c-1-1.6-1.2-3.3-0.5-5.4c4.2,2.1,7.3,5.9,11.2,8.3
		c-5.5-7.2-12.7-12.2-20.7-16.1c-1.5,0.8-1.5,1.9-1.3,3.2c0.4,2.3,0.9,4.5,2.2,6.4c2.3,3.4,2.4,7.1,2.4,11.4c-2.4-0.5-4.6-0.2-6.6,1
		c-6.9-4.1-14.1-7.7-20.5-12.4c1.3,2.5,2.4,3.4,7.4,6.3C912.9,395,914.7,395.4,915.4,396.9c-2.3,2.1-0.2,4.4-0.3,5.8
		C915.2,401.3,913.4,399,915.4,396.9z"/>
	<path fill="#FFFFFF" d="M842.5,346.9c-0.9,3.3-3.1,5.8-4.9,9.4c-1.3-4.6-2.5-8.7-3.4-12.8c-0.3-1.4,0.5-3,1.3-4.4
		c1.7-3.3,3.5-6.5,4.5-10.1c0.9-3.5,1.4-7,1.5-10.6c2.3,4.1,2.7,8.9,4.6,13.2c0.4-4.1-0.6-8-1.7-11.8c-1.1-3.5-1.4-7.3-3.6-10.4
		c-0.7-1,0.3-2.4-0.6-3.7c-1.7,5.3-1.9,10.5-2.6,15.7c-0.5,4-1.3,8-2.2,11.9c-2.7,10.7-9.4,18.5-17.9,25.1
		c-7.8,5.9-14.5,12.9-20.8,20.3c-9.9,11.5-19.7,23-29.8,34.8c0.1-3.1,2.3-5.1,2.6-8.1c-3.7,1.8-4.7,5.2-6,8.6c-2.6-2-4-4.7-6.1-6.6
		c-0.1-2.4,1-4,1.9-5.6c1.1-2.2,1.7-4.4,1-6.9c-0.1-0.3-0.4-0.7-0.3-1c2-5.1-0.9-8.6-4.1-11.9c6.7-10.9,13.1-21.8,20-32.2
		c5.5-8.3,8.8-17.7,13.6-26.3c3.9-7.1,7.4-14.4,11.6-21.3c2.4-3.9,4-8.1,6-12.1c2.7-5.4,6.4-10,10.4-14.4c0.9-1,1.5-2.1,2-3.3
		c3.4-8.8,12.7-11.6,20.6-6.3c4.2,2.9,8.6,5.4,12.5,8.8c4.1,3.6,7.3,7.8,10.7,11.9c1.6,1.9,3.1,3.9,4.7,6
		c-2.1,5.5-3.9,11.1-6.2,16.6c-2.1,5.1-4.9,9.8-8,14.3c-1.8,2.5-3.8,4.9-5.2,7.7c-2.6,5.3-5.1,10.7-7.6,16
		C841.8,347.6,842.1,347.1,842.5,346.9L842.5,346.9z"/>
	<path fill="#FFFFFF" d="M783.8,281.9c2.4-0.6,3.1-2.8,4.3-4.5c2.4-3.4,5.1-6.6,8.2-9.5c3.6-3.3,7.6-4.8,12.4-3.3
		c3.4,1.1,7,0.9,10.4,2.2c-1.4,5-4.5,8.8-7.9,12.4c-3.1,3.3-5.4,6.9-6.8,11.2c-1.1,3.3-2.9,6.3-4.7,9.2
		c-8.8,14.1-15.6,29.2-23.1,43.9c-6.3,12.4-13.8,24.2-21.3,35.9c-0.5,0.8-1.2,1.5-1.8,2.2c-1.7,0.5-3.3,0.5-5,0.1
		c-0.1-1.8,1.9-3.1,1.1-5.4c-2.2,1.7-3.6,3.6-3.8,6.6c-3.3,0-6.6,0-10.1,0c3.5-6.7,6.5-13.7,10.4-20.2c3.2-5.4,5.9-11.1,7.8-17.2
		c0.9-2.8,2.5-5.4,4-8c2.7-5,4.1-10.4,5.7-15.8c2.4-7.8,6.8-14.7,10.1-22.1c2.5-5.5,4.7-11.2,9.2-15.5
		C783.5,283.7,784,282.9,783.8,281.9L783.8,281.9z"/>
	<path fill="#FFFFFF" d="M945.1,435.5c-0.3-2,0.2-3.5,1.2-5c2-3.1,3.7-6.5,6-9.3c4.9-5.9,7.3-13,10.4-19.8c4-8.7,6.1-18,9.3-26.9
		c1.3-3.7,0.9-7.7,1.3-11.8c3.8,2.3,6.3,5.7,10,8c-1.2,5.8-4.2,10.6-7.6,15.1c-3.1,4-5.6,8.2-7.2,13c-3.7,10.7-9.3,20.3-16.2,29.1
		c-1.4,1.8-2.8,3.6-4.2,5.3C947.4,434.2,946.8,435.2,945.1,435.5z"/>
	<path fill="#FFFFFF" d="M832.6,346.6c1.8,4.2,1.7,8,2.7,11.7c0.5,1.6-0.5,3-1.2,4.3c-3.2,5.8-7.5,11-11,16.6
		c-1.1,1.8-2.2,3.6-3.5,5.4c-0.5-7.9-2.1-15.8-0.1-23.7c0.1-0.5,0.4-1.2,0.8-1.5C825.3,356.4,829,351.9,832.6,346.6z"/>
	<path fill="#FFFFFF" d="M945.5,327.6c2.7-0.6,8.1-4,11.1-7.3c0.1,6.5,1,12.3,3.1,18.5C953.3,336.5,948.8,332.9,945.5,327.6
		L945.5,327.6z"/>
	<path fill="#FFFFFF" d="M756.6,410.4c2.3,2.5,4.2,5.5,6.2,8.5c-0.9,1.3-1,3.1-2.4,4.5C757.6,419.5,756.9,415,756.6,410.4z"/>
	<path fill="#FFFFFF" d="M937.4,207.6c0.4-1.3-0.8-2.2-1.1-3.1c0.5-1,1.3-1.4,2.1-1.9c0.4,0.3,0.8,0.4,0.9,0.6
		C940.7,205.4,938.9,206.4,937.4,207.6z"/>
	<path fill="#FFFFFF" d="M931.9,203.2c0.8-1.9,0.8-4.4,4-5C936.1,201.5,933.6,202,931.9,203.2L931.9,203.2z"/>
	<path fill="#FFFFFF" d="M927.7,380c1.9,1.1,3.4,2,4.9,2.9C930.9,382.2,928.1,383.8,927.7,380z"/>
	<path fill="#FFFFFF" d="M928.9,175.7c-1.6-1.1-2.8-2.5-3.2-4.5C927.2,172.3,928.7,173.5,928.9,175.7z"/>
	<path fill="#FFFFFF" d="M888.1,160.8c0.2,0.9-0.2,1.6-0.6,2.4c-1.3-0.7-1.3-1.9-1.8-2.9C886.8,160.1,887.5,160.3,888.1,160.8z"/>
	<path fill="#FFFFFF" d="M912.6,163.5c-1.1-1.3-1.9-2.2-2.8-3.3C912.3,160,913,161,912.6,163.5z"/>
	<path fill="#FFFFFF" d="M937.1,192.2c-0.1-1.3-0.1-2.5-0.2-3.8c0.3,0,0.6,0,0.8,0C938.5,189.6,937.6,190.9,937.1,192.2z"/>
	<path fill="#FFFFFF" d="M902.5,171c1.2-1.6,2.5-1.3,3.9-1.1C905.2,170.2,904.1,170.5,902.5,171z"/>
	<path fill="#FFFFFF" d="M928.5,188.7c1.2,0.5,2,1,1.3,2.4C928.8,190.8,928.3,190.2,928.5,188.7z"/>
	<path fill="#FFFFFF" d="M923.4,183.7c-0.7-0.8-1.6-1.5-0.1-2.4c1,0.6,0.5,1.5,0.6,2.2C924,183.8,923.7,183.9,923.4,183.7z"/>
	<path fill="#FFFFFF" d="M842.5,347c0.3-1.1,0.7-2.2,1.7-3C843.9,345.1,843.6,346.2,842.5,347L842.5,347z"/>
	<path fill="#FFFFFF" d="M935.8,175.1c-1.2-0.2-1.3-1-1.3-2c0.2-0.1,0.6-0.3,0.6-0.3C935.6,173.5,936.6,174,935.8,175.1z"/>
	<path fill="#FFFFFF" d="M927.8,164.1c1.4,0.1,1.6,0.9,2.3,1.5C928.6,166.2,928.4,165.1,927.8,164.1z"/>
	<path fill="#FFFFFF" d="M887,191.4c1.3-0.2,1.9,0.3,2.8,0.8C888.6,192.4,887.9,192.6,887,191.4z"/>
	<path fill="#FFFFFF" d="M933.3,190.5c-0.8-0.1-1.2-0.7-1.7-1.3C933.2,188.4,933.3,189.3,933.3,190.5z"/>
	<path fill="#FFFFFF" d="M894.4,154.4c0.7,0.9,0.8,1.6,0.8,2.6C893.9,156.4,893.7,155.7,894.4,154.4z"/>
	<path fill="#FFFFFF" d="M1009.9,405.6c0.1-0.4,0.1-0.9,0.2-1.3c0.4-0.3,0.9-0.7,1.3-1C1011.4,404.4,1010.8,405.1,1009.9,405.6z"/>
	<path fill="#FFFFFF" d="M1011.6,402.8c0.5-0.9,0.8-1.8,1.9-2.2C1013.3,401.6,1012.8,402.5,1011.6,402.8z"/>
	<path fill="#FFFFFF" d="M909.3,169.3c0.4-0.5,0.5-1.1,1.1-0.8c0.2,0.1,0.3,0.4,0.3,0.6C910.5,169.5,910,169.4,909.3,169.3z"/>
	<path fill="#FFFFFF" d="M733.8,387.7c-0.6-0.2-1-0.6-1-1.4C733.6,386.5,733.9,387,733.8,387.7L733.8,387.7z"/>
	<path fill="#FFFFFF" d="M674.8,357.6c2.5-3.3,2.5-3,6.7-2.2c4.4,0.8,7.4,3.3,10.7,6.4c-2.1,0.7-3.9,1.3-6,1.9
		C684,359.1,679.6,358.1,674.8,357.6z"/>
	<path fill="#FFFFFF" d="M698.9,439c1.1,1.9,1.8,3.2,2.5,4.5C699.7,442.8,698.9,441.6,698.9,439z"/>
	<path fill="#FFFFFF" d="M744.4,417.8c-0.5-1.9,0.4-2.8,1.8-3.2c0.9-0.3,1.7,0.1,2.2,0.8c0.9,1.3,0.6,2.4-0.6,3.4
		C746.6,417.8,745.7,417.5,744.4,417.8z"/>
	<path fill="#FFFFFF" d="M739.9,399.3c1.1,0.6,1.3,1.3,0.7,2.3c-0.3,0.1-0.5,0.2-0.7,0.1C738.6,401,738.5,400.2,739.9,399.3z"/>
	<path fill="#FFFFFF" d="M745,408.7c-0.1,1.3-0.8,2.2-2.1,2.4c-1.6,0.2-2.5-0.7-2.5-2.2c0-1.4,1-2.1,2.2-2.3
		C743.9,406.5,744.7,407.4,745,408.7z"/>
	<path d="M463.9,371.7c7.1,1.4,14.4,0.6,21.5,1.9c2.4,0.4,4.5,1.4,6.3,3.1c2.2,2.1,5,3.2,7.7,4.4c4.1,1.9,8.3,3.5,12.1,6
		c1.3,0.9,2.9,1.6,3.2,3.5c-7.8-5.1-17.3-7.3-24.5-13.5c-1.8-1.6-4-1.9-6.2-2.3c-5.1-0.9-10.2-0.4-15.3-1.3
		C467.1,373.2,465.4,372.8,463.9,371.7z"/>
	<path d="M506.8,372.3c-9.5-0.3-18.4-4.1-27.8-4.9C488.6,367,497.5,371,506.8,372.3z"/>
	<path d="M533.5,399.5c-4.3,1-8,4.5-12.5,4c-0.6-1.1-0.5-1.9,0.1-2C525.1,400.1,529.2,399.4,533.5,399.5z"/>
	<path d="M500.4,355.6c0.4-5.7,4.1-9.5,7.7-13.3c-0.2,2.9-2.6,4.4-3.9,6.7C503,351.2,501.7,353.4,500.4,355.6z"/>
	<path d="M512.7,323.1c-0.1,3.6-1.3,5-5.8,6.5C508.2,326.8,509.8,324.7,512.7,323.1z"/>
	<path d="M550.5,338.9c-3.4,1.1-8.3-0.1-10.6-2.6C543.4,337.2,546.9,338.1,550.5,338.9z"/>
	<path d="M562.3,373.5c-3.2,2.9-4.6,3.2-6.9,1.4C557.4,372.6,560.2,374.8,562.3,373.5z"/>
	<path d="M563.8,364.9c-0.1-0.8,0.3-1.4,1.1-1.6c2.1-0.7,4.1-1.7,5.6-3.8C570.6,362.8,568.7,364.2,563.8,364.9L563.8,364.9z"/>
	<path d="M561.7,338.5c-2.4,2.9-5.1,1.9-7.6,1.7C556.3,339,558.5,337.8,561.7,338.5z"/>
	<path d="M570.7,368.7c1.8-2.8,3.8-3.2,6.1-3.2C575.4,367.4,573.4,368,570.7,368.7z"/>
	<path d="M516.1,326.1c2,0.5,2.9,1.9,4.2,3.9C517.6,329.6,516.7,328,516.1,326.1z"/>
	<path d="M510.8,404.1c1.5-2.2,3.6-1.2,6.1-1.4C514.6,404.3,512.7,404.3,510.8,404.1z"/>
	<path d="M563.7,364.8c-1.4,2.3-3.5,2-5.6,1.8C559.8,365.1,561.7,364.7,563.7,364.8L563.7,364.8z"/>
	<path d="M494.4,359.4c0.8-1.9,2.2-3,4.5-3.2C497.6,358.1,497.6,358.1,494.4,359.4z"/>
	<path d="M489.8,363.8c-2.1,0-4.2,0-6.2,0c0-0.1,0-0.1,0-0.2c2,0,4.1,0,6.1,0C489.8,363.7,489.8,363.8,489.8,363.8z"/>
	<path d="M515.4,320c0-2,1-3.4,2.2-4.7C517.6,317.2,517.1,318.9,515.4,320z"/>
	<path d="M501.1,331.2c1.8-1.3,3-1.8,5.2-2C505,331.4,503.5,331.5,501.1,331.2z"/>
	<path d="M556.3,353.7c2.8-0.8,2.8-0.8,5.7,0.1C560.1,354.6,558.6,354.5,556.3,353.7z"/>
	<path d="M510.6,336c-1.2,1.9-2.3,2.8-4.3,3.8C507.3,337.8,508.5,337,510.6,336z"/>
	<path d="M473,364.9c1.5-1.2,3.2-0.3,4.8-0.5C476.2,364.6,474.6,364.7,473,364.9L473,364.9z"/>
	<path d="M509.3,382c1.6,0.1,2.7,0.9,3.5,2.1l0.1-0.1C511.4,383.9,510.3,383.2,509.3,382L509.3,382z"/>
	<path d="M536.1,335.7c-0.7,0.8-1.2,0.5-1.5-0.4C535.3,334.6,535.8,334.7,536.1,335.7z"/>
	<path d="M472.9,364.9c-0.9,0.3-1.9,0.6-2.8,1C470.9,364.6,472,364.8,472.9,364.9L472.9,364.9z"/>
	<path d="M506.6,365.2c-0.6,0-1.2,0-1.8,0v-0.1c0.6,0,1.2,0,1.8,0C506.7,365.1,506.6,365.2,506.6,365.2z"/>
	<path d="M552.6,354.3c0.2-0.9,0.6-1.4,1.6-0.7C554,354.3,553.7,355,552.6,354.3z"/>
	<path d="M498.5,332.3c-0.3,0.3-0.7,0.3-0.8-0.1c-0.2-0.4,0.2-0.6,0.6-0.5C498.4,331.8,498.4,332.1,498.5,332.3z"/>
	<path d="M505.3,379.3c-0.6,0.4-0.8-0.1-1.1-0.5C504.8,378.5,505,379,505.3,379.3z"/>
	<path d="M509.4,381.9c-0.7,0-1.3-0.2-1.5-1C508.7,380.9,509.2,381.2,509.4,381.9L509.4,381.9z"/>
	<path d="M512.9,384.1c0.6,0,1.1,0.2,1.6,1C513.6,385.1,513.1,384.8,512.9,384.1L512.9,384.1z"/>
	<path d="M432.9,458.7c9.6,12.7,11.1,26.7,7.1,41.9c-2-0.9-1.7-2.2-1.7-3.3c0-3.8-0.1-7.6,0.2-11.4c0.3-4-0.2-7.8-1.6-11.6
		C435,469.2,433.9,463.8,432.9,458.7z"/>
	<path d="M497.4,448.5c-0.7-9.4-2.8-18.2-6.7-26.9c1.7-0.1,2.1,0.9,2.5,1.8c3.6,7,5.7,14.3,6.4,22.1
		C499.8,447,499.6,448.1,497.4,448.5z"/>
	<path d="M477.4,399.1c1.7,1.3,1.5,3.2,1.1,4.8c-1.7,6.3-2.5,12.4,0.2,18.7c1,2.2,0.7,4.9,0.6,7.4c-1.5-4.4-2.4-9-4.2-13.4
		c-0.7-1.6-0.4-3.3,0.1-4.9C476.4,407.6,477.5,403.5,477.4,399.1z"/>
	<path d="M447.6,438c-4.6-5.4-6.1-12-7.6-18.6c-0.1-0.6-0.2-1.2-0.3-1.9c-5.7-2.9-11.9-4.9-17-8.9c5.8,2.7,11.7,5.3,17.7,8.1
		c0.9,7.5,3.9,14.3,7.5,20.9c0.1,0.2,0.1,0.4,0.2,0.6C448,438.1,447.8,438.1,447.6,438z"/>
	<path d="M452.3,456.3c3.6,6.9,6.5,14.1,8.8,21.5c-0.3,0.1-0.7,0.3-1,0.4c-2.8-7.2-5.7-14.4-8.5-21.6
		C451.8,456.5,452,456.4,452.3,456.3z"/>
	<path d="M448.5,404.2c1.3,0,2.2,0.7,3.6,2.1C450.3,405.7,449.2,405.3,448.5,404.2L448.5,404.2z"/>
	<path d="M448,437.6c0.6,0.7,1.1,1.4,2.2,2.8c-1.8-0.6-2.1-1.6-2.6-2.4C447.7,437.9,447.9,437.7,448,437.6z"/>
	<path d="M448.6,404.1c-0.7,0-1.3-0.1-1.5-0.9C447.8,403.1,448.3,403.4,448.6,404.1L448.6,404.1z"/>
	<path d="M392,435.6c-1,3.6-4.1,5.8-7.7,5.1c-1.8-0.4-3,0.4-4.6,0.9c-5.5,1.6-10.2,6.1-16.5,5c-1-0.2-1.5,1-2.8,1.2
		c-1.4-0.5-3.1-1.5-5.3,0.5c0.5-2.5,1.8-2.7,3-2.6c5.9,0.9,10.9-1.1,15.7-4.2c1.8-1.1,3.9-2,5.8-2.5c3.5-1.1,5-2.7,4.3-6.7
		c2.9,2,1.7,3.9,0.8,5.8C387.9,438.8,389.4,435.5,392,435.6L392,435.6z"/>
	<path d="M343.6,477.3c4.9-3.2,9.8-6.3,15-10C357.2,471.4,349.7,476.3,343.6,477.3z"/>
	<path d="M326.1,484c2.7-2.4,9.5-4.9,12.9-4.6C335,481.6,330.8,483.3,326.1,484z"/>
	<path d="M372,455.8c3.4-2.2,7.5-2.6,11.3-3.7C380.1,455.2,376.1,455.6,372,455.8z"/>
	<path d="M328.9,446.9c1.9-1.7,4.3-2.2,6.7-2.2c0.1,0.3,0.2,0.5,0.3,0.8c-2.2,0.7-4.4,1.5-6.6,2.2
		C329.1,447.4,329,447.1,328.9,446.9z"/>
	<path d="M366.3,459.3c-1.7,1.8-3.9,1.5-6.6,1.5C361.9,458.5,364.2,459.5,366.3,459.3z"/>
	<path d="M253.2,511.7c-1.3,1.6-2.9,1.6-4.8,0.9C249.8,510.6,251.6,511.6,253.2,511.7z"/>
	<path d="M318.4,486.9c1.4-1.6,3-1.2,4.5-0.9C321.7,487.3,320.2,487,318.4,486.9z"/>
	<path d="M242.3,514.7c1.4-1.6,2.8-1.2,4.2-1.3C245.2,515.1,245.2,515.1,242.3,514.7z"/>
	<path d="M310.9,490.2c0.8-1.1,1.6-1.8,3.1-1.7C313.2,489.7,312.2,490.4,310.9,490.2z"/>
	<path d="M261.8,509.5c-1,1.6-2.4,1.3-4.2,1.3C258.8,509,260.1,508.8,261.8,509.5z"/>
	<path d="M350.3,447.6c1.1-1.8,2.2-2.2,3.7-2C353.2,447.3,352,447.2,350.3,447.6z"/>
	<path d="M302.9,492.6c0.6-1.6,1.7-1.5,2.9-1.9C305.2,492.6,304.2,492.4,302.9,492.6z"/>
	<path d="M326,471.6c-0.6,0.4-1.1,0.7-1.8,0.2c0.4-0.6,1.1-0.6,1.8-0.8C326,471.2,326,471.4,326,471.6z"/>
	<path d="M364.1,469.6c0-1.3,0.6-1.2,1.4-0.9C365.6,470,365,470,364.1,469.6z"/>
	<path d="M369.2,468.3c-0.3,0-0.6,0-1,0C368.6,467.9,369,468.1,369.2,468.3z"/>
	<path d="M292.4,495.1c-0.2,0.1-0.3,0.4-0.5,0.4c-0.4,0.1-0.7-0.2-0.5-0.6c0.1-0.2,0.4-0.3,0.6-0.3
		C292.2,494.6,292.3,494.9,292.4,495.1z"/>
	<path d="M186.6,430.5c1.6,2.4,3,4.9,4.7,7.1c5,6.4,6.9,13.9,8.6,21.6c2.1,9.7,2.5,19.5,2.1,29.4c-0.2,4.4-0.7,8.8-1.1,13.8
		c-1-2.6-1.2-4.7-0.9-6.9c0.9-8.5,0.6-17,0.3-25.8c-1,0.9-0.3,2-1.1,3c-0.3-9.4-1.5-18.4-4.5-27c-1.5-4.4-4.7-7.7-7.3-11.3
		c-1.2-1.7-4.2-1.3-5.8-3.2C183.1,430.5,185.2,432.9,186.6,430.5L186.6,430.5z"/>
	<path d="M210.5,495.7c-0.5-2.1,1.9-2.3,1.8-3.9c-0.1-1.4-2.1-0.2-2.3-1.9c2.1-1.5,4.7-0.5,7.1-1.5c0.8,2.7,1.3,5-0.4,7.2
		c2.9,3.7,3.1,6.2,0.7,8c-1.8,1.4-4.3,1-5.7-0.8c-1.7-2.2-0.9-4.7,2.1-7.1C213.2,495.3,211.3,495.3,210.5,495.7z"/>
	<path d="M208.1,549.5c-0.4-0.3-0.3-0.6-0.2-0.9c4.8-9.1,2.8-18.4,0.2-27.4c-1-3.4-3.8-6.5-5.3-9.9c-0.7-1.5-1.6-2.9-1.2-4.8
		c1.3,2.5,2.4,5.2,4.1,7.5c3.4,4.6,5.1,9.9,5.7,15.4c0.8,6.5,1.4,13.1-2.1,19.1C209,549,208.9,549.6,208.1,549.5z"/>
	<path d="M213,513.5c-0.8-2.7-2.2-5.3,0.5-7.6c1.6-1.3,3.3-1.2,4.9,0c1.6,1.2,1.9,3,1.4,4.8C218.8,514,215.9,513.6,213,513.5z"/>
	<path d="M432.5,393.2c0.9-1.2,0.8-2.5,0-4c2.5,0.5,3.6,1.4,3.3,3.2C435.5,393.8,434.4,394.1,432.5,393.2z"/>
	<path d="M383.2,418.9c-1.4,1.5-2.7,0.8-4.6-0.2C380.6,418.2,381.9,418.4,383.2,418.9z"/>
	<path d="M869,444.3c0.3-14,1.6-28,2.2-42.1c0.6-14.6,2-29.2,2.1-43.9c0-1.9-0.2-3.8,0.7-6c0.9,1.2,0.7,2.3,0.7,3.4
		c0.3,9.5-0.3,19-0.9,28.6c-0.8,13.2-1.3,26.4-2.1,39.6C871.4,430.7,871.2,437.6,869,444.3L869,444.3z"/>
	<path d="M887.3,446.5c0-25.9-1.1-51.8,1.3-77.7C887,394.7,890.1,420.7,887.3,446.5z"/>
	<path d="M916.2,428.1c-7.9-10.4-12.1-22.1-11.7-35.4C905.8,405.4,909.7,417.1,916.2,428.1z"/>
	<path d="M884.3,343.1c4.2,4,7.3,8.7,9.1,14.3c2.2,6.9,4.6,13.7,6.9,20.6c0.4,1.2,1.2,2.4,0.6,4c-1.2-1.5-1.5-3.3-2.1-4.9
		c-1.7-5.2-3.6-10.3-5.1-15.6c-1.9-6.8-5.3-12.7-10-17.9c0-0.2-0.1-0.5-0.1-0.7C883.8,343,884.1,343,884.3,343.1z"/>
	<path d="M956.1,378.9c-9.7-5.4-20.5-7.3-31.1-9.7C931.2,367.8,949.7,373.5,956.1,378.9z"/>
	<path d="M891.8,389.6c0,10.4-1.1,20.8-2.9,31.1c0.7-10.4,1.4-20.8,2.2-31.2C891.3,389.5,891.6,389.5,891.8,389.6z"/>
	<path d="M883.7,343.6c-6.5-7.5-13.1-15-19.6-22.5c-0.1-0.1,0-0.4,0.2-1.4c7.2,7.8,13.7,15.6,20,23.4
		C884.1,343.3,883.9,343.4,883.7,343.6z"/>
	<path d="M915.4,396.9c0.5,4,1.4,7.9,0.3,12c-3-3.3-1.9-7.5-2.4-11C914.1,396.7,914.9,397.1,915.4,396.9L915.4,396.9z"/>
	<path d="M887,307.6c-2.1-3.1-0.4-7.7,4-11.3C889.6,300,888.2,303.8,887,307.6z"/>
	<path d="M941.5,382.8c4.4,2.6,8.8,5.2,13.1,7.8c0.4,0.2,0.7,0.6,0.5,1.4c-5-2.5-9.6-5.5-14.2-8.5
		C941.2,383.2,941.3,383,941.5,382.8z"/>
	<path d="M953.7,340.9c0.8,3.3-0.9,4.6-5.6,4.3C949.5,343.1,951.3,342,953.7,340.9z"/>
	<path d="M944.8,408c2.6,2.4,3.7,5.3,3.4,8.8C946.5,414.1,945.1,411.3,944.8,408z"/>
	<path d="M934.5,334c3.5-4.3,4.6-4.7,6.7-2.8C939.5,333.8,936.8,333.4,934.5,334z"/>
	<path d="M927,398.3c-0.4-2.6,0.2-5-0.7-7.9C929.1,393.2,929.2,395.7,927,398.3z"/>
	<path d="M945.8,346.4c-1.8,1.7-3,2.7-5.1,1.9C941.9,346.4,943.4,346.3,945.8,346.4z"/>
	<path d="M957.1,351.1c-0.7,1.2-1.6,0.9-2.6,0.7c-0.3-0.8,0.5-0.9,0.9-1.1C956,350.4,956.5,350.3,957.1,351.1z"/>
	<path d="M931.1,332.6c-0.4,1.5-1.2,1.8-2.7,1.3C929,332.9,929.6,332.3,931.1,332.6z"/>
	<path d="M948.3,351.6c0.3-0.5,0.7-0.6,1.2-0.3C949.3,352.1,948.8,351.9,948.3,351.6z"/>
	<path d="M819.3,343.7c-4.3,6.7-6,15-12.1,20.6c-1.5-0.8-1.5-1.6-1.1-2.4c0.6-1.2,1.3-2.3,1.9-3.4c2.8-4.6,6.5-8.7,8.6-13.8
		c0.2-0.5,0.7-0.9,1.1-1.4c0.1-0.1,0.4-0.1,0.7-0.2C818.7,343.3,819,343.5,819.3,343.7z"/>
	<path d="M811.2,323.5c2.9-5.4,6.3-10.4,11.2-14.2c-0.1,3.5-3.6,4.7-5.3,7.2C815.3,318.9,814.1,321.8,811.2,323.5z"/>
	<path d="M843.8,288.7c-3.5,0-6.5-1.3-9.4,1.2C836.8,285.6,840.6,285,843.8,288.7z"/>
	<path d="M825.2,308c1.4-2,2.2-4.4,5.3-5.9C829.3,305.3,827.1,306.6,825.2,308z"/>
	<path d="M826.8,329.1c-0.2,2.5-2.4,3.5-3.8,5.1C822.9,331.5,825,330.4,826.8,329.1L826.8,329.1z"/>
	<path d="M784.5,383.1c-0.3,2.4-1.4,3.8-3,5.7C781.6,386,782.3,384.5,784.5,383.1z"/>
	<path d="M844.7,292.9c2.8,0.9,3.7,2.6,4.4,4.4C847.4,296.4,846,295.2,844.7,292.9z"/>
	<path d="M770.5,405.2c0.2-2.4,1.2-3.6,2.9-4.8C773.6,402.9,772.8,404.1,770.5,405.2z"/>
	<path d="M826.9,329.2c-0.3-2-0.2-3.9,2.3-5.3C829.1,326.2,827.8,327.6,826.9,329.2L826.9,329.2z"/>
	<path d="M830.5,320.5c0-1.7,0.2-3.1,2.1-4.1C832.4,318.5,831.4,319.5,830.5,320.5z"/>
	<path d="M774,399.7c-0.4-2.5,0.2-3.7,1.9-4.8C776.5,397,775.4,398,774,399.7z"/>
	<path d="M821.1,337.4c-0.3,1.9-1.1,2.8-2.4,4.2C818.5,339.3,819.2,338.3,821.1,337.4z"/>
	<path d="M779.6,389.4c-0.2,2.4-1.1,3.5-2.5,5.2C777.1,392.1,777.9,391,779.6,389.4z"/>
	<path d="M807.5,330.2c0.1,1.2-0.5,1.5-1.1,2C805.9,331,806.5,330.6,807.5,330.2z"/>
	<path d="M812,272.3c1.2,2.7,0.7,4.4-1.8,4.9c-3.4,0.7-6.9,1.1-10.8,2.3c1.8-3.5,4.6-3.6,7.1-3.9C808.8,275.4,810.7,275.1,812,272.3
		z"/>
	<path d="M752.4,371.2c0.2,1.8-0.4,3-2.3,3.8C750.4,373.1,751.3,372.1,752.4,371.2z"/>
	<path d="M796.2,284.6c0.3-2.1,0.8-2.9,2.5-3.1C798.8,283,797.9,283.6,796.2,284.6z"/>
	<path d="M757.2,364c-0.5,1.8-1.1,2.7-2.7,3.2C755,365.7,755.7,364.9,757.2,364z"/>
	<path fill="#FFFFFF" d="M217.2,499.9c-0.1,1.3-0.8,2.2-2.2,2.3c-1.4,0.1-2.3-0.6-2.4-2c-0.1-1.6,0.8-2.5,2.3-2.5
		C216.2,497.7,217.1,498.5,217.2,499.9z"/>
	<path fill="#FFFFFF" d="M215.2,493.8c-0.8-1.2-1.7-2.2,0.2-3.3C216.2,491.6,216.4,492.5,215.2,493.8z"/>
	<path fill="#FFFFFF" d="M216.3,511.5c-0.3-1.3-0.6-2.8-2.5-1.7c0-2,0.8-2.7,2.3-2.7c0.9,0,1.6,0.4,1.9,1.3
		C218.5,509.8,218.2,510.9,216.3,511.5z"/>
</g>
</svg>
