<?xml version="1.0" encoding="utf-8"?>
<!-- Generator: Adobe Illustrator 19.1.0, SVG Export Plug-In . SVG Version: 6.00 Build 0)  -->
<svg version="1.2" baseProfile="tiny" id="Layer_2" xmlns="http://www.w3.org/2000/svg" xmlns:xlink="http://www.w3.org/1999/xlink"
	 x="0px" y="0px" width="900px" height="600px" viewBox="144 97 900 600" xml:space="preserve">
<g>
	<path d="M823.9,491.7c-1.9-3.1-1.9-6.1,0.2-9.1c0.7-1.1,0.1-2.3,0.7-3.4c1.5-3,2.9-6,5.1-8.5c2.9-3.2,3.2-6.9,3.1-10.8
		c-0.1-3.7-0.5-7.4-0.7-11.5c-7.7,2.3-15.5,2.6-23.3,4.1c0.3,1.4,0.5,2.4,0.7,3.6c-1.6-0.5-1.6-2.1-2.7-3.1c-1.8,0-3.7,0.2-5.8,0.7
		c0.3,1.9,0.9,3.5,1.9,5.6c-1.9-0.6-2.9-1.7-4-2.6c-1-1-0.9-3.1-3.6-3.1c4.4,4.2,4.2,9.5,5,14.4c0.5,3.4-1.3,6.5-2.7,9.4
		c-2.4,4.9-4,10.1-5.5,15.3c-1.5,5.2-0.3,10.4,0.6,15.5c3.2,18,8,35.6,12.9,53.2c0.4,1.3,1.1,2.7-0.1,4.1c-1.5-0.1-1.7-1.3-1.9-2.3
		c-3.6-13.6-7.9-27-10.5-40.8c-1-5.4-3-10.6-3.6-16.2c-0.8-8.2-0.2-16.1,2.8-23.8c0.9-2.3,0.9-4.8,1.7-7.1c0.3-0.7,0.5-1.5,1-2.1
		c5.2-6.7,1.6-12.6-1.2-18.5c-4.3-0.5-8.1,0.7-11.9,1.3c-3.8,0.6-4,0.5-3.6-3.3c0.3-2.7-0.5-5.3-1.4-7.8
		c-4.3-13.5-7.2-27.4-10.5-41.2c-1.7-7.2-3.8-14.3-5.8-21.6c-4,0.4-7.8,0.7-11.9,1.1c-0.3,4-0.5,7.9-0.9,11.7
		c-1.4,13.6-5.1,26.5-13,37.9c-5.7,8.3-13.1,14.4-23.2,16.7c-6.3,1.4-12.7,1.2-19.1,0.4c-15.7-2-25.3-11.7-32.6-24.6
		c-5.3-9.5-8.3-19.8-9.9-30.5c-0.1-0.5-0.2-1.1-0.3-1.9c-12.5,0.6-24.8,2.9-37.3,2.9c-4.8-4.4-5-7.8-0.6-11.5c0.9-0.7,1.8-1.1,3-1.2
		c11.1-0.3,22-1.9,33.1-2.8c0.2,0,0.4-0.2,0.8-0.4c0.6-5.1,0.5-10.5,1.3-15.7c1.7-11.1,5-21.5,10.8-31.2
		c11.8-19.8,33.4-23.9,51.4-18.7c8.5,2.5,14.8,8.3,20,15.2c8.4,11.3,12.8,24.2,15,37.9c0.2,1,0.1,2,0.8,3.1c3.6,0.4,7.2-0.8,11-0.7
		c1.3-3.5,0.8-7.1,2.3-10.2c1.6-3.3,1.8-7,2.6-10.5c0.6-2.8,1.1-5.7,2.6-8.2c0.3-0.5,0.6-1,0.6-1.5c-0.4-5.3,2.9-7.8,7.1-9.7
		c0.3-0.1,0.5-0.4,1-0.8c-4.4-6.9-9.1-13.6-11.2-21.6c-2-7.7-5.8-15-6.9-23.2c2,0,1.9,1.3,2.1,2.1c2,6.4,4,12.9,6,19.3
		c1.9,6.1,4.8,11.7,8.4,16.9c4.2,6.1,8.3,12.3,12.5,18.4c3.2,4.7,4.8,9.7,3.3,15.6c-0.9,3.6,0.7,7.2,2.2,10.5
		c0.5,1.1,1.1,2.1,1.7,3.1c0.6,0.6,1.3-0.7,1.8,0.2c0.3,2.7-2.1,5.1-0.9,8.2c4.7,1.5,4.8-4.1,8.1-5.6c-0.4,3.1-2.6,4.7-3.8,7
		c2.6,1,3.6-0.7,4.5-2.2c1-1.7,1.8-3.5,3.7-4.6c-0.3,3.5-3.9,8-7.6,9.3c-5.1-3.5-10.9-3.4-16.9-2.5c-4,0.6-8.1,0.8-12.3,1.3
		c1.1,3.9,2.2,7.4,3.1,10.9c1,3.4,1.5,6.9,0.8,10.5c-0.9,5.1-0.1,10.2,1,15.2c1,4.2,3.9,7.6,6.7,11c5,6.1,10.3,11.9,16.5,17.6
		c-2-0.2-3.1-1.1-4.1-2c-7.1-6.7-13.3-14.1-18.5-22.5c-3.4-5.5-3.9-11.4-3.1-17.2c1.1-8.2-1.6-15.5-3.6-23c-1.9-0.3-3.4-0.2-5,0.4
		c0.1,1.9,1,3.6,1.6,5.3c3.4,9.9,6.3,19.8,6.8,30.4c0.2,4.6,2.2,8.8,3.5,13.1c2.1,7.3,5,14.4,5.8,22.3c17.1-2.4,34.1-2.9,51.1-6.1
		c-0.3-11.2-4.5-21.7-4.7-32.4c-0.9-1-1.5,0.3-2.1-0.4c0.4-1.1,1.7-1.6,1.5-3.1c-0.2-1.3,0.8-2.2,1.2-3.6c-3.3-0.1-6.5,1.5-9.8,0.9
		c5.9-2.4,13-1.8,17.6-6.5c5.6,2.5,11.6,1.9,16.7,5c-3.6-0.6-7.1-1.2-10.7-1.8c-0.1,0-0.2,0-0.3-0.1c-4.5-1.4-8-0.5-10,4.3
		c5.5,3.2,10.5,7.4,15.3,11.8c0.9,0.8,2.1,1.4,1.9,2.9h0.1c-6-4.7-11.6-9.9-18.5-13.6c-1.5,1.1-2.1,2.3-1.7,4.2
		c0.7,3,1.7,5.6,4.4,7.5c1,0.7,2,1.6,2.7,3.1c-2.2-0.3-2.8-2.4-4.5-3c-0.1,7.1,3.6,12.3,8.6,16.8c-2.5-0.7-3.8-2.9-6.2-4.5
		c0.9,2.2,1.5,4,2.3,5.8c16,1.9,31.6,0.9,47.5-2.7c-1.1-3.9-2.6-7.5-3.5-11.3c-0.7-3-1.5-6-1.8-9.1c-0.2-2-0.6-3.9-1.6-5.7
		c-0.6-1.2-1.1-2.5-1-3.8c0.2-2.1-0.7-3.9-1.5-5.7c-0.4-0.8-1.3-1.6-0.5-3.2c1.8,2.4,3.4,4.5,3.5,7.4c0.1,1.8,0.4,3.5,1.3,5.1
		c1,1.8,1.4,3.7,1.6,5.7c1,7.5,3.8,14.5,6.2,21.6c1.1,3.2,3,6,4,9.2c1.9,5.7,1.4,11.2-0.9,16.5c-1.8,4-2,8.2-1.6,12.3
		c1.3,12.5,0.3,24.7-3.2,36.8c-1.6,5.3-2,10.9-2.5,16.4c-0.6,7.1-1.4,14.1-1.5,21.2c0,0.7-0.1,1.3,0.3,1.9c0.7,0.5,1.3,0,2-0.1
		c3.9-0.2,6.3,1.8,6.1,5.6c-0.3,3.9,1,6.6,4.1,8.7c2.2,1.5,3.5,3.8,4.9,6.2c3.4,5.7,8.5,9.4,14.9,11.3c3.1,0.9,4.4,3,3.7,6.2
		c-0.9,4.6-4.8,7.7-9.9,7.4c-5.6-0.3-11.2-0.9-16.8-1.1c-4-0.2-7.9-0.6-11.6-2.4c-1-0.5-1.9-1-2.7-1.8c-0.1-2.5,0.8-3.5,2.6-2.4
		c4.1,2.5,8.7,2.5,13.1,3.1c5.3,0.8,10.5,1.1,15.9,0.9c4-0.2,5.8-2.2,5.5-6.6c-4.5-0.2-8.1-3-12.1-4.9c-2.8-1.4-6.4-1.3-9.4-2.7
		c-0.9-0.4-1.9-0.8-1.9-2c-0.1-1.3,0.8-1.6,1.3-1.7c-1,0.2-2.8,1.5-3.7-0.8c-0.8-1.9,0.8-2.5,1.8-2.7c-1.4,0.4-3.1,1.5-5,1.7
		c-1.1,0.1-2.3,0.3-3.2-0.5c-1.3-1.2-3.1-2.1-2.9-4.2c0.2-1.9,2.1-2.4,3.6-2.9c0.9-0.3,1.8-0.8,2.8-0.6c-0.1,0,0,0-0.1,0
		c-2,0.1-3.7,0.8-5.3,1.8c-1.4,0.9-2.6,1-3.4-0.6c1.2-4.3,5.2-4.4,8.1-5.6c0.5-1.9-0.2-2.8-1.3-3.6c-2.2,0.2-3.3,1.4-3.8,3.3
		c-1.7,5.8-6.7,8.4-11.3,11.4c-1.3,0.9-2.8-0.1-4.1-0.5c-1.2-0.3-2.2-1.1-3.6-1.5c-0.9,1.6-1.1,3.3-1.4,5c-0.4,2.9-0.9,5.6-2.1,8.3
		c-1.1,2.6-0.3,3.9,2.4,4.7c3,0.8,6,1.3,9.1,0.9c3.1-0.4,6.5-0.8,8.5,2.7c-0.2,0.5-0.5,0.8-1,0.8c-6.8,0.5-13.7,1.4-20.3-1.4
		c-2.1-0.9-4-2-4.7-4.2c1.8-3.7,3.8-7,3.7-11.4c-0.1-3.3,1.3-6.8,2.7-9.8c2-4.4,2.4-8.9,2-13.6c-0.8-8.1-0.3-16.2-0.9-24.2
		c-0.7-10.2-2.3-20.2-6.5-29.6c-1-2.4-1.3-4.9-1.4-7.5c-0.3-8-0.6-16,2.5-23.6c2-5.1,0-8.9-3-12.4c-1.8-2-3.3-4.2-4.4-6.6
		c-2-3.9-4.4-7-9.4-6.9c-0.5,2.1,1.8,4.6-1.1,6.3c2.2,2.5,0.4,5.2,1,7.5c0.9,3.1,0.2,6.1,0.3,9.2c0.1,3.5-1.4,6.7-4.1,8.7
		c-1.6,1.2-2.4,2.5-3.2,4.1c-1.5,3-1.5,6-1.5,9.3c0,5,0.3,10.3-1.4,15.1c-2.2,6.6-2.5,13.4-3.6,20.2c-1.3,7.6-2.2,15.3-0.7,23.1
		c0.4,2.1,0.7,4.1,1.3,6.1c1.1,3.3,1.7,6.6,1.9,9.9c1.3,0.7,2.6,0,4,0.5c1.6,3.2,0.2,6.8,0.8,10.5c3,1.3,4.6,4,6.1,6.8
		c3.8,7.2,9.4,12,17.3,14.3c2.5,0.7,4.9,4.1,4.7,6.5c-0.2,2.2-2,3.7-5.2,4.2c-1.5,0.2-3,0.5-4.5,0.2c-0.3-1.2,1.2-0.9,1.3-1.7
		c0.4-0.1,0.8-0.2,1.2-0.2c-0.4,0-0.8,0.1-1.2,0.2c-2.5,0.5-5.1,1.1-8,1.7c1.5,0.9,2.9-0.3,3.9,1c-0.3,1.5-1.6,1.5-2.8,1.6
		c-8.8,1.3-17.4,0.4-25.7-2.9c-2.6-1-5.3-1.6-8.1-1.5c-5.6,0.3-10.1-2.7-14.2-7.6c3.9-8.7,5.1-18.5,9.8-27.1
		c0.4-0.6,1.2-0.8,1.9-1.1c3.2-1,6.5-1.1,9.4-3.3c1.8-1.4,4.8-0.5,7-1.7c-0.3-5.4-2.4-10.5-2.9-15.9c-0.4-4-0.9-7.9-1.1-11.9
		c-0.2-4.6,1.1-9,1.7-13.5c0.6-4.3,1.2-8.5,1.2-12.8c0-2,1.1-3.6,1.6-5.3C823,499.4,824.5,495.7,823.9,491.7
		c0.1-0.3,0.2-0.6,0.2-0.9C824.1,491.1,824,491.4,823.9,491.7z"/>
	<path d="M408.9,575.9c-1.5-0.1-3.1,0.2-4.7-0.8c1.6-2.6,4.6-2.1,6.8-3.5c-4.5-0.3-8.8,1.4-13.2,1.5c0.1-2,2-2.3,2.9-3.5
		c-1.8,0.1-3.2,1-4.6,1.6c-1-2.7-0.5-3.2,5.3-4.9c-2.3-0.3-3.3-0.2-8.2,1.5c0.3-2.3,0.3-2.3,11.2-4.6c-1.6-2.5-3.3-4.9-3.4-7.9
		c-3.7-0.4-5.3,2.5-7.8,3.9c0,0.8-0.2,1.6,0,2.3c0.7,2.3-0.3,3.6-2.3,4.5c-2.9,1.3-4.7,4-7.6,5.5c-3.2-1-6.8-1.5-8.5-5.5
		c-0.3,4.3-2.4,8.1-1.8,12.4c0.1,1.1-0.4,1.9-0.9,2.8c-1.2,2-1.9,4.2-2.5,6.5c4.3,3.6,9.3,4,14.4,3.5c2.9-0.3,5.7,0,8.3,1.5
		c-4.8,0.6-9.5,1.6-14.3,0.8c-2.3-0.4-4.6-1-6.7-1.8c-2.1-0.7-4-2-4.5-4.2c1.7-3.6,3.6-6.8,3.7-10.9c0.1-3.6,1.5-7.3,2.9-10.8
		c1.2-3,2-6,1.8-9.3c-0.5-11.2-0.3-22.4-1.4-33.5c-0.8-8.2-2.5-16.2-5.9-23.7c-1-2.2-1.4-4.5-1.5-6.8c-0.3-8.6-0.6-17.3,2.5-25.6
		c0.6-1.7,1.3-3.6,0.5-5.8c-6.7,0.8-13.5,1.5-20.1,2.3c-1.8,3.8-2.4,7.7-3.7,11.2c-2.2,5.9-2.3,11.8-2.4,17.9c-0.1,4-0.3,8-1.7,11.8
		c-2.3,6.2-2,12.8-3.3,19.2c-1.6,7.8-1.8,15.5-0.3,23.4c0.4,2.1,1,4.1,1.6,6.1c0.8,2.9,1.3,5.8,1.5,8.6c1.4,0.8,2.7,0,4.1,0.6
		c1.3,3.2,0.2,6.6,0.5,10.4c3.8,1.3,5.4,5,7.1,8.4c1.6,3,4,5.2,6.5,7.4c3.2,2.8,6.6,4.7,10.7,5.6c2.1,0.5,4.3,4.4,4.1,6.4
		c-0.2,2.1-2,3.6-5,4.1c-1.1,0.2-2.2,0.3-3.3,0.3c-0.5,0-1.1,0.2-1.6-0.4c0.2-0.3,0.3-0.7,0.6-1.3c-2.3,0.5-4.4,1-6.7,1.5
		c1.1,1.1,2.6-0.3,3.5,1.2c-0.4,1.4-1.7,1.4-2.8,1.5c-8.7,1.2-17.2,0.4-25.4-2.8c-2.8-1.1-5.5-1.6-8.4-1.5
		c-6.1,0.2-10.2-3.3-14.2-7.3c4.1-9,5.3-18.8,10.3-27.8c0.1-0.1,0.9-0.3,1.6-0.6c3.1-1,6.5-1.1,9.4-3.3c1.8-1.4,4.8-0.6,7.1-1.7
		c-1-7.4-3.1-14.6-3.9-22c-0.8-6.4,0.4-12.6,1.3-18.8c0.7-4.4,1.1-8.7,1.3-13.2c0.1-1.6,0.6-3,1.2-4.6c1.4-3.5,2.7-7.3,2.3-11.2
		c-0.2-1.7-1.2-3.3-1.3-5.2c-0.2-3.6,2.2-6.2,3.1-9.4c0.8-2.6,1.9-5.2,1.6-8c-1.9-0.9-3.3,2.1-5.9,0.6c3.5-1.6,4.5-5,7-7.1
		c1,1.3-0.9,2-0.3,3.3c2.3-2.3,3.1-5.6,5.6-7.3c0-2.1-1.2-3.4-2-4.8c-1.2-2.1-2.3-4.2-2.5-6.8c-0.2-2-1.6-3.7-3-5
		c-1.3-1.2-1.7-2.5-1.9-4c-1.5-10.8-2.3-21.6-1-32.4c0.2-2.1,1-4.1,1.5-6.1c1.5-6.4,2.1-12.8,3.7-19.2c1.9-7.6,1-15.4,0-23.1
		c-0.1-1.1-0.5-2.1-0.1-3.5c0.5,0.8,0.9,1.4,1.2,1.9c6.9-8.6,9.6-18.6,9.9-29.5c0.1-2.5,0.5-5.1,1-7.5c0.4-1.5,0.8-3.2,2.5-4.2
		c1,1.3-0.7,2.2-0.3,3.6c7.8-1.1,13.1-6.2,16.9-12.5c7.5-12.1,9-16.7,5.3-29.4c-1.3-0.9-3.1-1.1-4.3-2.4c1.1-0.9,2.1,0.6,3.5-0.2
		c-2.2-6.8-5.5-13.2-8.8-19.8c-8.6,2-15.5,7.5-23.7,9.8c-0.4,0.1-0.5,0-0.4-0.4c0.9-1.5,2.2-2.5,3.7-3.3c4.7-2.7,9.5-5.2,14.7-6.8
		c3.4-1.1,6.7-2.7,10.5-1.1c1.4,0.6,3.4-0.3,5.2-0.7c3.4-0.6,6.8-0.3,10,0.3c3.4-3.9,3.6-8.2,2.8-12.6c-0.3-1.6-0.2-2.8,1-3.6
		c-2.1-10.8,4.5-27.2,8-32.6c-0.4-1.1-1.9-1.5-1.8-3.1c2.6-1.4,3.8,1.1,5.5,2c3.8,0,6.4-1.9,8.6-4.4c1.8,0,0.8,1.7,1.7,2.2
		c1.7,0.1,1.4-1.9,2.7-2.3c4.2,0.2,8.4-0.8,12.7,0.3c1.2,0.3,3.4-0.4,4.9-1.3c1.1-0.6,2.4-0.6,3.6-0.4c1.1,0.2,1.1,0.9,0.2,2
		c2.2-0.7,3.1-2.4,4.5-3.8c1.8,1.9,0.6,4.2,1,6.4c1.6-0.7,3.1-2.4,5.1-0.9c0.1,2.3-2.3,1.9-3.2,3.3c1.5,0.5,3-0.7,4.6,0.4
		c0.3,1.1-0.5,2.3,0,3.5c-2.2,2.3-5.5,2.9-7.3,5.9c1,3.8,0.5,8,2.1,12.1c1,2.6-1.3,5.5-1.6,8.2c-3.7,1.5-3.7,1.5-6.2,1.1
		c-0.9,0.9,0,2.4-1,3.4c-2.1-5-1-6.5,7.3-10.4c-0.5-4.3-2.8-8.6-1.9-13.6c-5.1,1.8-9.7,0.3-14.3,0.1c-1.8-0.1-4.2-0.2-4.8,3.1
		c-1.2-1.8-1.5-3.8-3.7-3.3c-0.1-0.1-0.2-0.2-0.2-0.2c0-0.1,0,0,0.2,0.1c0.4,1.4,0.9,2.7,1.9,4c-1.8,1.1-2.8,3.2-5.5,2.6
		c-1.4,3.8-4,6.8-5.7,10.4c-1.5,3.4-2,7.3-4.6,10.7c-1.5-3.6-1.1-7.5-4.1-9.8c-1.1,2.3,1.2,2.9,2,4.3c0.3,1.8-0.8,3.4-0.4,4.9
		c-0.7,1.2-1.7,0.8-2.5,1c0,2,1.9,1.9,3.1,2.5c-2,2.3-2.2,2.2-5.3-1.4c-0.2,2.8-2.4,4.8-1.7,7.9c-2-0.4-2.9,0.4-4,1.4
		c-1.8,1.8-4.1,2.6-6.7,2.2c-2.5-0.4-4.8,0.1-7.6,0.2c2.3,6,6.4,11,7.9,17.1c3.7,0.4,6.8-2.1,10.9-0.9c-3.3,2.6-7.2,0.9-10.2,2.4
		c0.8,4.9,1.4,5.4,6.1,6.4c1.8,0.4,3.9,0.5,5.9,2.4c-3.9-0.2-7-1.3-10.6-2.8c0.6,8.6,1.4,16.6,6.6,23.4c1.7,2.2,4.3,1.7,6.8,1.6
		c2-3,1.9-6.8,3.9-9.8c-0.2,3.3-0.6,6.5-2.2,9.9c4.9,0.7,8.5-1.8,11.4-4.5c5.6-5.3,8.5-11.8,5.8-20.2c-4.1,1.7-7.7,5-12.5,5.4
		c3.7-3.2,8.9-4.1,12.7-7.9c0-1.1-0.5-2.6-1.2-4.1c-1.1-0.1-1.8,1.2-3.1,0.5c-0.6-3.9,4.3-3.5,5.3-6.4c1.5-0.2,2.8,1.1,4.6,1.2
		c-0.8,1.3-2.1,0.4-2.7,1.3c-1.6,1.7-0.4,3.6-0.1,5.3c0.9,5.8,1.9,11.5,0.4,17.4c-1.6,6.3-5.2,10.8-10.9,13.8
		c-1.1,0.6-2.2,1-3.3,1.7c-6.5,4-14.2,1.3-18.4-3.3c-2.7-3-4.3-6.3-5.1-10.2c-1.5-7-2.5-14.1-4.8-20.9c-1.8-5.4-4.1-10.6-6.8-15.6
		c0.7,2.2,1.8,4.2,2.8,6.3c2.9,5.9,5.1,11.9,6.2,18.4c1.5,9.1-1.5,16.9-6.4,24.2c-4.3,6.4-8.9,12.4-16.7,15.4c3.1,1.7,6,3.2,9.4,3.3
		c1.4,0,2.8,0.3,3,2c0.1,2-1.5,2.1-2.9,2.5c-2.4,0.6-4.6,0.1-6.8-0.7c-1.7-0.6-3.3-1.8-5.1-1.6c-0.8,0.4-1.1,0.9-1.1,1.4
		c-0.5,9.5-3.4,18.2-8.3,26.3c-1.7,2.7-0.4,4.7,2.8,4.4c7.1-0.6,14.4-0.9,20.8-4.9c1.1-0.7,2.4-1.2,3.3-2.3c3.6-4.4,8.6-6.9,13.1-10
		c1.4-0.9,2.9-1.8,3.9-3.1c3.1-4.1,7.9-5.5,12-8.1c5.4-3.4,11.1-6.4,15.9-10.8c2.1-1.9,2.7-4.5,2.9-7.2c0.1-2.2,0.1-4.4,0.1-6.6
		c0.1-6-0.1-11.9,1-17.8c0.9-5-0.1-10.1-1.2-15.1c-0.3-1.4-0.9-2.9,0.2-4.2c2.3,0.2,2.3,2.3,3,3.6c1,0.7,2.2,0,2.9,1
		c-0.2,1.2-1.8,0.8-2.2,2c2.6,12.3-0.3,24.7,0,37.4c2.6-2.7,4-6.1,5.8-9.1c1.7,0.7,1.4,1.8,0.8,2.7c-3.7,5.4-5.6,11.9-10.1,16.9
		c-2.8,3.1-6.1,5.4-9.7,8c-0.7,4.1,1.3,7.7,3.2,11.8c-3,8.9-3.2,18.4-0.6,28.2c3.4,12.5,6.7,25,9.4,37.7c0.9,4.5,0.9,9,1.3,13.5
		c0.3,3.5-1.2,6.4-4.2,8.5c-0.8,0.6-1.9,0.9-2.2,2c-0.8,3.2-1.4,6.4-4,9.1c4.5-1.7,6.6,0.6,8.2,3.9c1.7,3.4-0.2,5.9-2.2,8.5
		c1.5,0.6,2,2.5,4,2.4c2.2-1.8,2.8-5.1,5.9-6.3c-1.2,3.2-3.4,5.7-5.9,8l0.1-0.1c-1.7-0.5-3.4-0.9-4.5-2.5c-0.8-1.1-2.1-1.6-3.5-1.5
		c-4.6,0.5-9.2,1.1-13.9,1.6c-2.6,7.1-4.8,14-3.8,21.6c1.5,11.8-0.1,23.3-3.3,34.8c-2.3,8.4-2.6,17-3.3,25.7
		c-0.4,4.6-1,9.2-0.6,13.7c0.8,0.5,1.3,0.2,1.8,0.1c4.3-0.3,6.9,1.9,6.5,6.2c-0.3,3.2,0.7,5.5,3.2,7.4s4.2,4.4,5.8,7.1
		c3.3,5.6,8.4,9.2,14.7,11c3.1,0.9,4.2,2.6,3.8,5.8c-0.6,4.8-4.8,8.1-10.3,7.8c-6.7-0.4-13.5-0.8-20.2-1.4c-3-0.2-5.9-1-8.6-2.4
		c-1.4-0.7-2.5-1.5-1.5-3.5c5.7,4.8,12.6,3.9,19,4.5c5.2,0.4,10.3,1.2,15.5,0.5c2-2.5,5.3-4.5,3.1-8.8c-4.9-1.6-10.3-2.7-13.7-7.6
		c-2.1,1.7-4.1,1.8-5.8,0c-1.3-1.3-3.1,0-4.3-1.1C406.7,576.7,408.6,576.8,408.9,575.9c0.1-0.1,0.2-0.2,0.2-0.2
		C409.3,575.7,409.2,575.7,408.9,575.9z"/>
	<path d="M881.5,199.9c1.8-1.2,0.9-4.1,3-5c-0.4-1.3-1.9-1.7-1.8-3.4c2.6-1.3,3.8,1.1,5.5,2.1c3.7-0.1,6.5-1.8,8.5-4.5
		c1.9,0.2,1,1.5,1.4,2.3c1.8,0.3,1.8-1.7,2.9-2.7c3.7,0,7.6-0.7,11.2,0.2c3.9,0.9,7-2.4,10.9-1c0.4,0.2-0.2,0.9,0.1,1.4
		c1.8-0.5,2.4-2.4,4.1-3.4c1.5,1.9,0.7,4.1,0.6,6.2c1.9-0.6,3.5-2.7,5.4-0.7c0,1.8-2,1.6-2.6,2.9c1.2,0.7,2.7-0.3,4,0.7
		c0,1.1-0.5,2.3-0.1,3.4c-2.3,2.3-5.4,2.9-7.3,5.8c0.7,3.7,0.1,8,2,11.9c0.8,1.6-0.3,3.2-0.8,4.8c-0.3,1.3-0.4,2.6-1.3,3.9
		c-1.8,0.5-3.7,1.6-5.6,0.8c-1.1,1.1-0.3,2.4-1.1,3.3c-1.8-4.4-1.5-6.6,7.4-10.4c-0.8-4.3-2.5-8.6-2.3-13.5
		c-6.2,2.4-12.2-1.4-18.2,0.8c-0.3,0.3,0.6,1.5-0.9,1.8c-0.7-1.1-1-2.8-2.7-3.1c-1.1-0.2-2.1-2.3-3.4-0.4c0.6,1.4,1.8,0.8,2.9,1.2
		c0.5,1,1.1,2.2,1.8,3.6c-1.9,0.6-2.5,3.1-5,2.4c-4.5,6.3-7.2,13.6-10.4,20.7c-1-1.5-0.8-3.2-2.1-4.5c-0.8,1.4-0.4,3-0.7,4.2
		c-0.7,1-1.6,0.7-2.3,0.9c-0.5,2.4,1.7,1.9,2.9,2.5c-0.2,1.9-1.6,1.3-2.3,1.6c-1.4-0.6-1.6-2-2.9-2.7c-0.6,2.5-2.2,4.6-2.1,6.2
		c-5,6-11.4,5-18,5c2.4,6.3,6.6,11.3,8,17.5c3.6,0.1,6.8-2.2,10.4-0.8c-2.8,1.8-6.1,1.4-9.2,1.8c-0.5,4,0.7,5.7,4.6,6.5
		c2.2,0.5,4.5,0.6,7.1,2.5c-4.1-0.2-7.2-1.1-10.8-2.8c0.8,8.6,1.4,16.8,6.8,23.5c1.6,2.1,4.2,1.5,6.6,1.7c1.9-3.1,2-6.9,3.9-10
		c-0.1,3.4-0.6,6.7-2.2,10.1c5,0.3,8.6-2.1,11.7-4.9c5.8-5.3,7.1-10.6,5.8-20.1c-4.3,1.8-7.8,5.2-12.7,5.5c3.6-3.3,8.8-3.8,12.6-8
		c0.2-0.9-0.6-2.4-1.2-4.2c-1.2,0.5-2.1,1.5-3.4,1.3l0.1,0.1c-0.2-2.7,1.6-4.3,3.6-4.9c1.5-0.4,1.2-1.4,1.8-2c1.7-0.1,2.9,1.1,4.5,1
		c0,0.2,0,0.5,0,0.7c-1.6,0.5-3.2,1-5.2,1.6c1.8,4,1.9,8.3,2.7,12.5c1.4,7.9-4.2,18-9.4,20.6c-3.7,1.9-7.2,4.4-11.7,4.7
		c-1.2,1.2-1.7,3-3.5,4.2c0.1-1.7,1.3-2.6,1.6-4c-2-1.7-5-1.8-7-3.9c-3.6-3.6-5.1-8-6.2-12.9c-2.7-12.1-5.7-24.1-11.2-35.4
		c-1.3-2.7-3.3-2.5-5.7-2c2.1,4,4.2,8,6.3,11.9c1.5,2.8,2.5,5.9,3.8,8.8c3,6.9,2.5,14.2,0.4,20.9c-1.4,4.6-4,9.2-7.3,13.1
		c-3.4,4-6.4,8.7-11.7,10.6c-5.5,2-11.2,2.9-17.1,1.9c-1.3-0.2-2.6-1.3-4.1-0.3l0.1-0.1c-2.7-1.3-5.4-2.6-8.1-3.9
		c-1.1,0.1-0.6,1.6-2,2c-0.1-4.9-2.1-9.5-1-14.6c-1.1-0.2-2.1,0.1-2.8,0.9c-5.1,6.8-9.6,14-16.1,19.7c-0.6,0.7-0.3,1.4-0.1,2.1
		c2.3,8.2,4.7,16.4,8.2,24.1c0.8,1.9,2.2,3.1,4,4.2c5.4,3.2,11.4,4.7,17.5,6c1.1,0.2,2.2,0.3,3.1,1.2c-6.6-0.6-12.9-2.4-19.2-5.4
		c0.5,3.1,1.7,5.2,4.5,6.1c2.9,0.9,6.1,1,8.6,3.2c0.3,0.3,1.1,0.2,1.6,0.2c3.5,0,7.4,0.9,10.6-0.2c5-1.8,10.4-2.4,15.2-4.9
		c0.7-0.4,1.3-0.9,2-1.1c5.6-1.3,8.8-5.6,12.1-9.6c1-1.2,2.1-2.2,3.5-3c4.9-2.8,9.9-5.5,13.4-10.1c0.6-0.8,1.4-1.4,2.4-1.8
		c6.8-3,12.8-7.3,19.1-11.2c5.5-3.3,8.2-7.9,7.7-14.5c-0.6-8.8,0-17.7,0.6-26.5c0.3-3.7-0.5-7.5-1.3-11.2c-0.2-0.9-0.7-1.9-0.2-2.9
		c2.2,0,1.5,2.2,2.4,3.1c0.8,0.6,2,0.2,2.8,1c-0.2,1-1.4,0.8-2.1,1.9c2.5,12-0.4,24.3,0.2,37.1c1.4-1.2,2-2.4,2.5-3.7
		c2-4.7,3.9-9.4,5-14.4c0.5-2,1.6-3.9,2.4-5.8l-0.1,0.1c5-5.5,6.8-11.6,4.5-19c-0.6-2-0.9-3.9-2.7-5.7c-0.8,1.9-0.6,4-2.4,4.9
		c0.8,1.4,2.2,2.1,1.9,4.6c-2.8-4.2-7.4-2.6-11.3-5.1c3.1,0,5.5,0,8.5,0c1.8-5.3,4.9-10.6,5-16.7c0.1-5.8,2.8-11.3,2.3-17.2
		c1.2,3.3,2.6,6.5,1.1,10c-0.9,2.1-1.3,4.2-1.4,6.4c-0.2,3.6-0.5,7.3-3,10.6c4.2,3.6,5,8.4,5.5,13.2c0.4,3.8-0.2,7.6-2.7,10.6
		c-3.3,4-4,9-6.3,13.4c-1.1,2.2-2.5,4.3-2.2,7.1c0.1,1.2-1,2.7-1.8,3.8c-2.1,2.9-3.4,6.1-4.9,9.3c-0.4,0.7-0.4,1.5-0.4,2.2
		c0,8.2-0.3,16.4,1.8,24.4c0.5,1.9-0.1,3.8-0.4,5.5c-0.4,2.4,0,4.3,1,6.3c0.9,1.8,1.6,3.6,2.5,5.8c6-0.1,12-1.1,18.1-1.6
		c0.6-4.5,0.7-8.8,1.5-13c2-10.2,5.6-19.6,12.4-27.5c5.3-6.1,11.7-10.2,19.6-12.3c21.6-5.9,37.2,4.3,46.2,17.9
		c4.7,7.1,7.8,14.9,9.6,23.2c0.2,1,0.5,1.9,0.8,3.2c4.6-0.4,9.1-0.8,13.5-1.3c4.3-0.5,7.5,3,6.2,7.2c-0.4,1.5-1.3,2.8-1.9,4.2
		c-2.8,0.7-5.6,0.6-8.3,1c-2.7,0.4-5.5,0.2-8.3,1.1c-0.4,6-0.6,12-2,17.8c-2.6,11.4-7.4,21.6-16.2,29.5c-4.6,4.1-9.8,6.6-16,7.5
		c-5.9,0.9-11.9,1.4-17.8,0.7c-11.9-1.3-20.4-8.4-27.2-17.9c-5.6-7.9-8.9-16.8-10.7-26.2c-0.2-0.9-0.1-1.8-1-2.8
		c-6.5,0.3-13.1,1.2-19.5,1.8c-1.3,1.2-1.4,2.7-2.3,4c-2.2-0.5-3.6,1.2-5.4,2.4c-2.5,1.7-5.6,2.6-8.8,1.8c-0.7-0.2-0.4-0.9-0.4-1.4
		c3.7-0.9,5.1-4.1,6.8-7c0.6-1,1.4-1.9,2.6-1.5c1.7,0.5,1.3,1.8,1,2.9c0.7-1.8,1.3-3.8,3.8-3.2c-1.9-0.3-2.2-1.8-1-3.1
		c2.1-2.3,1.5-4.6,0.6-7.1c-0.6-1.8-1.4-3.5-2.1-5.2c-1.1-3.1-2.3-6.3-1.1-9.7c0.1-0.3,0.2-0.7,0.1-1c-1.5-6.5-2-13-2-19.9
		c-3.5,2.6-7.2,4.4-10.2,7c-0.5,1.9,0.3,3.2,1,4.4c1.6,3.3,1.7,6.8,1.5,10.4c-0.2,2.4-1.3,4.4-3.1,6.1c-1.4,1.3-2.8,2.5-3.5,4.4
		c-0.9,2.5-1,4.4,1.5,6.3c3.1,2.3,4.5,5.7,3.1,9.7c-0.1,0.4-0.3,0.8-0.3,1.3c0,0.2,0.1,0.4,0.4,0.7c1.2-0.4,1.9-1.6,2.8-2.5
		c1.1-1.1,2.3-1.5,3.5-0.4c1.2,1,0.4,2.1-0.2,3.2c-1.3,2-2.8,3.7-5.2,4.5c-3.8,0.9-5.3-2.3-7.6-4.1c-0.2-0.1-0.4-0.2-0.7-0.4
		c-9.1,0.9-18.3,1.8-27.5,2.7c0.2,1.4,1.4,1.4,2,2c1.3,1.3,2.8,2.8,2.3,4.5c-0.7,2.6,0.3,3.9,2.2,5.2c1.7,1.2,2.7,2.8,2.3,5.1
		c-0.3,1.7,0.8,3.2,1.3,4.7c0.5,1.3,0.9,2.6,0.7,4c-2.1-2.8-4.7-5.3-4.3-9.2c0.2-1.6-0.7-2.4-2-3.2c-1.9,0.7-3.8,1.4-6,0.9
		c1.4-0.5,2.8-1,4.2-1.5c-0.3-1.4-1.2-2.5-1.8-3.7c1.1-3.7-1.5-5.8-3.2-8.2c-1.4-0.6-2.6-0.2-3.7-0.2c-4.2,5-10.5,5-16,6.9
		c3.6-2.7,8.1-3.5,12.6-6.2c-5.9-0.3-10.8,0.9-15.4,3c-0.6-0.4-0.4-0.7-0.1-0.9c0.3-0.2,0.6-0.3,0.8-1c-5.8,0.5-11.6,1.3-17.5,1.5
		s-11,2.6-16.1,5.5c-0.2-0.4-0.5-0.9-0.7-1.3c3.3-1.4,4.3-4.8,7.1-7.2c0.4,1.5-0.9,2.1-0.7,3.8c2.3-2.8,3.5-5.9,6.2-8.1
		c-3.5-4.9-4.9-10.6-8.4-15.5c-4.9-6.7-8.5-14.2-11.3-22.3c-3.5-10.3-4.5-21.2-7.6-31.5c-1.1-3.6-3-6.9-4.2-10.4l0.1,0.1
		c1.5-0.1,2.1,1.1,2.7,2.1c0.9,1.7,1.6,3.4,2.4,5c7.1,1,13.8-0.5,20.5-2.2c2.4-0.6,4.7-1.4,6.9-2.4c1.7-0.8,3.4-1.6,3.7-3.7
		c3.4-0.8,6.3,0.1,9.1,1.6c1.6,0.9,3,2.4,3.2,4.1c0.4,3,1.4,5.8,2.3,8.6c0.5,1.6,0.2,3-0.9,4.4c-1.2-0.3-2.1-1.4-2-2.3
		c0.1-2.7-2.2-4.8-1.8-7.5c0.2-1.2-1.2-1.5-1.7-2.3c-0.7-1.1-1.6-2.1-2.5-3.3c-1.2-0.2-2.5-0.5-3.4-0.6c-5.7,2-7.5,5.8-6.9,11.3
		c0.4,3.6,1.2,4.7,5.7,6.5c0.9-0.4-0.4-1.8,0.9-2.1c1.4,0.4,1,2,1.6,2.9c11.1,5.1,30.1-2.8,29.6-10.4c0.8-0.1,1.7,0.4,2.3-0.6
		c3.1-5.1,5.8-10.4,7.4-15.7c-0.3-1.8-1.9-1.7-2.3-2.8l-0.1,0.1c0.8-0.3,1.3,0.8,2.3,0.3c-0.2-4,0-8.1-1.8-11.9
		c-1.5-0.7-3.2-1.3-4.4-2.8c1.1,0.3,2.2,0.5,4,0.9c-2.4-7.3-5.7-13.9-9.1-20.4c-2.8,0.4-5.1,1.7-7.2,2.5c-6-0.7-11.4-3.2-17.3-3.1
		c-4.4,0.1-7.8,2.3-10.6,5.7c0,0.7-0.3,1-1,0.8c-3.8,1.8-7.9,2.5-12.1,2.9c-4.1,0.4-8,2-11.3,4.5c-5.1,3.8-10.7,6.7-16,10.1
		c-5.7,3.6-11.1,7.6-16.1,12.2c-0.8,0.7-1.5,1.6-3.1,1.7c3.3-5,6.5-9.7,11.8-12.4c5.4-2.8,10.3-6.5,15.9-9c0.7-0.3,1.3-0.9,1.8-1.4
		c6-5.4,13.1-8,21.2-8.1c2.5,0,4.5-0.8,6.2-3c3.6-4.6,8.9-6.6,14.6-6.7c2.4-0.1,4.9,1.2,7.2,2.2c3.5,1.5,6.9,1.9,10.6,0.4
		c1.7-0.7,3.6-1,5.4-1.5c1.8-0.6,3.5,0.6,4.9,0.5c5-0.5,10-1.5,15.1-0.3c3.5-4.5,3.6-9.3,2.5-14.5c2.2-2.7,0.7-6.2,1.1-9.3
		c0.3-2.9,0.4-5.6,1.5-8.4c1.2-3.1,1.5-6.5,3.4-9.3C881.8,201.3,879.6,200.3,881.5,199.9c1,0.4,2.2,0,3,0.8c0-0.1,0,0-0.1-0.1
		C883.5,199.9,882.4,200.2,881.5,199.9z"/>
	<path d="M348.7,264.3c-1.9,3.1-5.2,4.8-7.9,6.9c-7.1,5.6-10.9,12.9-12.9,21.4c-0.7,2.9-1.4,5.7-0.7,8.8c0.5,2.4,0,4.8-1.2,7.1
		c-2.7,5.3-3.3,11-2.7,16.8c0.3,2.8,1.3,5.7,4.3,7.2c1.4,0.7,1.6,1.5,1.3,4.2c-1.8-1.7-3.6-3.1-6.2-4.9c0.5,4.9,2.8,9,1.9,13.3
		c-1,4.3-0.1,8.9-2.2,12.6c1.5,3.8,0.4,7.3-0.4,10.7c0.5,0.8,1.4,0.2,1.9,1.1c0.2,2.9-0.9,5.9-1.2,9c-0.4,3,0.5,6,0.3,9.4
		c-2.2-1.5-1.4-3.5-2.2-4.9c-1.1,3.9,0,22.1,1.7,25.8c0-3.6,0-6.9,0-10.1c1.1,0.9,1,2.1,1,3.3c0.2,4.1,0.2,8.2,0.4,12.3
		c0.1,2.3,1,4.3,2,6.4c1.3,2.6,1.9,5.7,1.6,8.8c0,0.4-0.3,0.9-0.2,1.3c1.3,4.2-0.5,8.1-2,11.7c-2.4,5.4-1.2,10.3,1.2,15.2
		c0.5,1.1,1.1,2.2,0.9,3.4c1,0.5,1.3-1,2.3-0.5c-0.1,1.9-0.7,3.7-1.3,5.6c-2.2,0.7-4.9-0.8-6.5,1.7c-1.3-0.4-2.4-1.4-4-0.4
		c-1.5,8.2-6.2,15.5-8.5,23.7c-1.5,5.5-0.7,10.9,0.2,16.1c3.2,18.3,8.2,36.2,13.1,54.1c0.5,1.7,0.5,1.7-0.3,3.7
		c-1.6-0.2-1.6-1.6-1.9-2.7c-4.1-14.8-8-29.7-11.5-44.6c-1.9-8.2-3.5-16.2-2.4-24.6c0.5-3.6,1-7.3,2.5-10.6c1.1-2.4,1.2-4.9,1.9-7.4
		c0.8-2.7,2.9-4.7,4.1-7.8c-10.7,1.2-21,2.4-31.5,3.6c-0.3,5.5-0.2,10.8-0.9,16c-1.6,11.8-4.9,23-11.4,33
		c-5.6,8.6-12.9,15.2-23.1,17.8c-6.7,1.7-13.5,1.6-20.4,0.7c-14.1-1.9-23.4-10.3-30.7-21.6c-6.2-9.7-9.7-20.5-11.7-31.9
		c-0.1-0.8-0.1-1.6-0.9-2.5c-12.2,0.8-24.5,3.3-36.9,3.6c-4.4-3.2-5.3-7.6-0.6-11.7c0.8-0.7,1.6-1.1,2.7-1.1
		c11.3-0.4,22.4-2.4,33.7-3.4c0.9-1.9,0.5-3.8,0.5-5.7c0.3-14.3,3.2-27.9,10.1-40.5c9-16.4,23.2-23.4,41.5-22.8
		c12,0.4,21.6,5.8,29.3,14.9c8.8,10.5,13.7,22.9,16.5,36.2c0.4,1.9,0.8,3.9,1.2,5.8c0,0.2,0.3,0.3,0.6,0.7c9.1-1,18.5-2.1,27.8-3.2
		c0-0.3,0-0.6-0.1-0.9c-5.1-1.5-10,1.6-15.1,1.2c-0.2-0.6-0.6-1-0.5-1.4c0.7-4.4-0.7-8.5-2-12.6c-3.8-12.3-6.5-24.8-9.3-37.3
		c-1.4-6.2-3.4-12.4-5-18.6c-1.8-7.2-2.8-14.5-1.6-22c0.2-1.1,0.3-2.2,0.7-3.2c1.7-4.1,2.5-8.4,3.2-12.7c0.7-4.5,3.4-8.4,3.7-13
		c0.1-1.7,1.7-2.8,3.2-3.6c1.6-0.8,3.2-1.6,4.8-2.2c2.2-0.8,4-1.7,4.7-4.5c0.6-2.4,3.1-3.8,5.3-4.8c6.8-3.3,11.2-9.1,15.9-14.6
		c2.1-2.5,4.1-5.2,6.1-7.8c-0.2-7.9,2.9-15,7-21.3c3.8-5.9,10-9.5,16.6-12.3C348.5,264.1,348.6,264.2,348.7,264.3z"/>
	<path d="M430.7,459.1c1.4-0.6,2.8-0.3,4.2-0.3c2.5-2.3,3.2-6,6.4-8.6c-0.2,3.3-2.8,4.8-2.9,7.6c5.3-2.9,5.1-10,10.5-12.8
		c-1.6-6.9-6.9-13.2-4.2-21.1c-1.3-0.9-2.1-2.1-2.6-3.4c0.7-0.3,1-0.6,0.8-1.6c-1.4-8.8-1.8-17.5-0.4-26.4
		c1.1-6.8,2.1-13.8,0.5-20.7c-0.4-1.7-0.1-3.3,0.4-4.9c1-3.5,0.4-6.7-0.7-10c-1.8-5.5-3.4-11-4.2-16.7c-0.2-1.2-0.2-2.4-0.2-3.6
		c0.1-2.9,1.3-5.8,0-8.7c-0.2-0.4-0.2-1.1,0.4-1.4c0.7-0.1,0.8,0.7,1.2,1c0.2,0.1,0.3-0.1,0.4-0.4c0.8-3.2,1.8-6.1,0.3-9.6
		c-1.2-2.9-0.7-6.4,0.8-9.7c2.1-4.5,4.1-9.2,4.4-14.2c0.4-5.6,0.6-11.4-1.6-16.7c-1.4-3.6-3.6-7.2-8.7-6.5c-1.1,0.1-2.4-0.8-3.5-1.7
		c2.5,0,4.9,0,7.5,0c5.4-10.7,6-22.4,7.6-33.9c1.2,3,2.4,6.2,1.1,9.5c-1,2.4-1.5,4.8-1.6,7.4c-0.2,3.6-0.9,6.9-2.7,10.1
		c-1.3,2.4-1.3,5.3-3.1,7.6c2.2,3.3,5.5,5.4,6.8,9.3c1.6,5.1,0.7,10.1,0.3,15.2c-0.4,5.3-2.3,10.3-4.8,15.1
		c-1.3,2.6-2.6,5.5-0.6,8.7c1.2,1.9,1.3,4.2,0.6,6.4c-0.5,1.5-0.6,3-1,4.5c-1.8,6.7-1.2,13.3,0.6,19.9c0.6,2,0.9,4.1,1.3,6.2
		c0.3,1.7,0.1,3.4,1.5,4.9c1,1,0.7,2.7,0.5,4.2c-0.2,1.6-0.4,3.3-0.7,4.9c-0.4,2.6-0.5,5,0,7.7c0.9,4.9,0.3,9.9-0.4,14.9
		c-1.1,7.6-1.7,15.2-0.9,22.8c0.2,2.1,0.4,4.3,1.2,6.1c1.1,2.4,1.1,4.6,0.4,6.7c-0.8,2.2-0.3,4,0.6,6c1,2.1,1.9,4.2,3,6.7
		c6.3-0.3,12.6-1.2,19.2-2.1c0.1-5.5,0.4-10.8,1.6-16c2.4-10.8,6.7-20.6,14.8-28.4c4.5-4.3,9.7-7.2,15.7-8.9
		c4.4-1.2,8.6-2.3,13.3-2.1c14.7,0.5,25.4,7.5,33.5,19.2c4.8,6.9,7.9,14.5,9.9,22.7c0.3,1.1,0.6,2.1,0.9,3.4
		c4.6-0.5,9.1-0.9,13.5-1.6c4-0.6,7.4,2.8,6.3,6.7c-0.4,1.6-1.2,3-1.9,4.7c-5.4,0.7-10.9,1.3-16.6,2c-0.3,5-0.1,9.9-0.9,14.7
		c-2.1,12.6-6.7,24.1-16.2,33.1c-4.5,4.3-9.9,6.9-16.1,7.9c-6.2,1-12.5,1.8-18.8,1c-9.7-1.3-17.3-6.6-23.5-13.8
		c-7.3-8.5-11.6-18.5-13.9-29.4c-0.2-1-0.1-2-1.2-3c-6.9,0.8-14,1.6-20.7,2.4c-1.4,1.1-1.3,2.5-2.2,3.5c-0.9,0.6-2.4-0.7-3.2,0.6
		c-1.6,2.7-4.6,2.8-7.1,3.8C434,460.7,432.2,460.5,430.7,459.1L430.7,459.1z"/>
	<path d="M325.8,467.1c0.7-0.4,1-0.2,1.4,0.1c3.2,2.8,4.2,2.7,6.7-0.8c0.7-1,1.2-2.3,2.8-3.2c-0.1,3.1-2.3,4.7-3.7,7
		c2.7,1.1,3.7-0.8,4.6-2.4c0.9-1.7,1.9-3.3,3.8-4.2c-2.1,3.2-2.9,7.5-7.2,9c1.8,6.3,4,12.5,3.1,19.3c-2.1-4.3,0.4-9.9-3.7-13.2
		c-0.5-1.4,0.8-1.8,0.9-2.8c-1.8-1.7-1.9-5.1-5.5-5.3C327.3,470.4,326,469.1,325.8,467.1z"/>
	<path d="M815.8,377.6c6.6,0.7,12.8,3.4,19.2,4c1.2-0.5,0.4-1.7,1.1-2.3c0.9,0.8,0.7,1.9,1.2,2.9c4,2.3,8.8,2.9,13,5.2
		c-1.2,0.9-2.5,0.9-3.6,0.3c-1.9-1-4-1.1-6-1.8c-7.8-2.7-16.1-3.9-23.8-7C816.4,378.6,815.8,378.5,815.8,377.6z"/>
	<path d="M862.8,400.3c-5.2,0.1-10-1.1-14.9-1.3c-1.5-0.1-3.1-0.5-4.6-0.4c-4.1,0.1-7.5-2.4-11.3-3.1c-9.6-1.8-19-5-29-4.4
		c-0.4,0-0.9-0.1-1.1-0.5c1.8-1.2,2.6-1.5,5-1.1c2.2,0.3,4.4,0.5,6.5,1.2c6.1,2,12.8,1.9,18.8,4c8.6,3,17.5,2.9,26.2,4.6
		C859.7,399.4,861,399.8,862.8,400.3z"/>
	<path d="M806.5,553.7c-0.1-4.9-0.8-9.9-0.3-14.7c0.9-8-2.1-16,0.1-24c2.9,12.8,0.1,25.8,1.4,38.6
		C807.3,553.6,806.9,553.7,806.5,553.7z"/>
	<path d="M425.2,229.6c-1.8,0.3-2.6,1.8-4.5,1.2c1.9-2,3.8-3.1,6.6-2.7c1.7,0.2,3.4-0.2,5.1,0.3c1.8,0.5,3,1.3,2.9,3.4
		c-1.4,0.6-3.6,0-3.5,2.3c-3.4,0.4-6.3,0.2-9.3-0.4c2.2-2.2,5.3-1.5,7.9-2.5C428.9,229.7,426.6,230.8,425.2,229.6z"/>
	<path d="M915.7,223c-1.7,0.4-3.7-0.2-3.5,2.1c-3.4,0.5-6.4,0.3-9.4-0.5c2.4-1.7,5.2-1.8,8.3-2.2c-1.8-1.3-4.2-0.2-5.5-1.7
		c-1.7,0.1-2.7,1.9-4.5,1.3C905.8,217.5,914.1,217.9,915.7,223z"/>
	<path d="M322.8,514.6c1.5,0.7,1.5,1.5,1.5,2.2c0.2,5.3,0.6,10.6,0.6,15.9c0,2.3-0.8,4.5-0.9,6.8c-0.2,3.5,0.9,7,0.7,10.5
		c-0.1,1.1,0,2.3,0,3.9c-0.8-0.7-1.2-0.9-1.2-1.1c-0.1-4.7-0.5-9.5-0.1-14.2C324,530.7,321.4,522.9,322.8,514.6z"/>
	<path d="M856.4,389.3c-5.1,2.5-10.5,3-16,3.4c-2,0.2-3.4-1.4-5.1-2.1c-3.5-1.4-7.1-2.3-10.7-3.3c-1.6-0.4-3.3-0.5-4.7-1.5
		c0.8-1,1.8-0.4,2.6-0.3c5.5,1.1,10.9,2.8,16.1,5c1.6,0.7,2.9,0.7,4.5,0.5C847.5,390.4,852,389.8,856.4,389.3z"/>
	<path d="M900.3,256.5c-3.5-2.4-6.9-4.8-10.5-7.4c-0.7-0.1-0.5,1.1-1.4,1.2c-0.3-4.1-1-8.2,0.3-12.4c0,3.6,1.3,6.9,2.5,10.3
		c3.3,2.3,7.1,4.2,9.8,7.4C900.8,255.9,900.6,256.2,900.3,256.5z"/>
	<path d="M420.1,265.4c-3.4-2.4-6.9-4.8-10.4-7.3c-0.7-0.4-0.6,1-1.4,1c-0.5-4.2-1.1-8.2,0.1-12.2c0.3,3.5,1.3,6.8,2.5,10.3
		c3.3,2.2,7,4.2,9.8,7.3C420.5,264.7,420.3,265,420.1,265.4z"/>
	<path d="M767.3,279.7c-0.5,5.2,2.3,9.2,4.8,13.6c1.8,0,3.1,0.9,4,2.7C770.1,296.2,764.9,289.7,767.3,279.7z"/>
	<path d="M843.7,344.2c0.9-3.1,2.4-4.6,8.6-9c1.3,0.4,1.5,1.3,0.8,2.3C850.9,340.9,847.8,343,843.7,344.2z"/>
	<path d="M805.5,440.5c-6.3-1.1-18.9-9.3-22.2-14.4C789.8,432.4,798.3,435.3,805.5,440.5z"/>
	<path d="M782.8,403c6.3,6.5,14,11,22.1,14.8c-9.3-2.1-16.7-7-22.6-14.4c0-0.2-0.1-0.4-0.1-0.6C782.4,402.9,782.6,402.9,782.8,403z"
		/>
	<path d="M331.2,369.8c0.1,0.2,0.1,0.5,0.2,0.6c4.8,4.2,5,9.7,4.1,15.4c-0.2,1.2,0.9,2.5,0.1,3.8c-0.8-0.2-1.1-0.8-1.1-1.5
		c-0.2-2.5-0.4-5-0.4-7.4c0-2.9,0-5.4-2.6-7.2c-0.7-0.5-1.1-1.6-1.6-2.4l0.1,0.1C330,370.3,330.7,370.2,331.2,369.8L331.2,369.8z"/>
	<path d="M775.2,423.9c2.4,7.9,8.1,14.4,8.5,23C781.5,439,776.3,432.3,775.2,423.9z"/>
	<path d="M840.3,313.2c5.6,1.3,10,5.6,15.8,5C851.8,320.5,842,317.5,840.3,313.2z"/>
	<path d="M367.6,303.4c1.7,3.9-1.6,9.6-6.4,11.8C362.7,310.9,366.1,308,367.6,303.4z"/>
	<path d="M366,271.5c-3.9-1.7-3.9-1.7-10.1,0c-1-2.3,0.7-3.2,2.2-3.9C360.8,266.3,363.5,267.7,366,271.5z"/>
	<path d="M413.5,594.2c9.4-4.9,12.3-7.4,17.2-4.7c0.1,0.3,0,0.6-0.2,0.5c-5.1-1.3-9,1.5-13.2,3.5C416.1,594,415,595,413.5,594.2z"/>
	<path d="M910.1,246.4c2.8-1.2,11.2-1.5,12.8-0.7C920.9,247.2,912.4,247.8,910.1,246.4z"/>
	<path d="M430.1,254.6c4.2,0.2,8.3-1.2,12.6,0.1c-4.1,0.9-8.2,1.8-12.5,1.4C430.2,255.6,430.1,255.1,430.1,254.6z"/>
	<path d="M819.7,492c-0.2-1.8-0.5-3.7-0.6-5.5c-0.1-2.6,0.1-5.3-2.2-7.3c-0.9-0.8-0.6-1.8,0.6-2.3C819.9,479.8,821.4,488,819.7,492z
		"/>
	<path d="M921.2,251.2c-2.6,0.9-4.9,1.7-7.5,0.3c0.4-1.6,1.1-2.8,2.7-2.8C918.2,248.7,920.2,248.5,921.2,251.2z"/>
	<path d="M828.9,250.7c3.6-2.4,8.9-2.2,11.6,0.8c-4,0.8-7.6-1.1-11.2-0.3C828.9,251.3,828.8,251.2,828.9,250.7z"/>
	<path d="M441,259.9c-2.5,1.3-4.9,1.3-7.6,0.7c0.5-1.9,1.2-3.1,2.8-3.1C438,257.5,439.9,257.5,441,259.9z"/>
	<path d="M331.3,369.9c-1.7-2.3-3.3-4.7-2.7-7.9c1.2,0.8,4.6,5.7,5.7,8.4C333.1,371.1,332.3,369.8,331.3,369.9L331.3,369.9z"/>
	<path d="M803.9,328.8c2.6,2.2,2.2,8.1-0.5,11.9C804.2,336.7,804.1,332.8,803.9,328.8z"/>
	<path d="M816.6,251.6c0.3-0.3,0.7-0.6,1-0.8c1.6-0.5,2.6-2.3,5.3-2.3c-2.5,4.1-7.1,5.2-9.4,8.6
		C813.8,254.8,815.6,253.4,816.6,251.6z"/>
	<path d="M849.7,261.5c-3.2-2.4-3.4-2.4-7.5-1.8c1.5-2.4,3.2-3.1,5.5-2.1C849.1,258.3,850.7,259.1,849.7,261.5z"/>
	<path d="M805.8,509.6c-1.2-3.4-1-6.8-0.3-10.3C807.4,500.5,807.5,502.2,805.8,509.6z"/>
	<path d="M360.8,311.7c-2.9,5.4-4.9,7-7.3,6.2C354.5,315.6,356.7,313.8,360.8,311.7z"/>
	<path d="M342.8,334.2c2.4,3.4,2.5,8.2-0.2,11.3C342.7,341.3,343.2,337.7,342.8,334.2z"/>
	<path d="M419.5,357.9c2.2,1.6,4.6,3,6.3,5.5C421,362.8,420.3,362.2,419.5,357.9z"/>
	<path d="M323.1,510.3c-1.6-4-1.3-7.5-0.5-11.1C324.2,500.2,324.2,500.2,323.1,510.3z"/>
	<path d="M852.6,385.9c2.9-3,6.1-5.6,10.1-7C859.9,382,856.1,383.7,852.6,385.9z"/>
	<path d="M331.9,300.7c3.2,1.9,4.7,5.3,7.1,7.9C335.1,307.3,332.7,304.7,331.9,300.7L331.9,300.7z"/>
	<path d="M770.8,312.7c-2.3-2.8-3.6-5.9-3.9-9.4C769.1,306.1,769.9,309.4,770.8,312.7z"/>
	<path d="M325.5,349c2.1,1.5,2.8,3.5,2.6,7.7C326.5,355,325.3,351.6,325.5,349z"/>
	<path d="M802.9,279.8c-1.5,2.3-3.4,3.3-6.1,1.8C798.7,280.7,800.4,279,802.9,279.8z"/>
	<path d="M777.5,309c3,1.4,4.6,4.1,5.9,7C780.7,314.3,779.5,311.3,777.5,309z"/>
	<path d="M771.7,297.6c2.3,2.7,2.6,6.2,4.2,9.2C773.2,304.5,772.3,301.1,771.7,297.6z"/>
	<path d="M812.5,275.6c-0.5,3-2.7,4.1-8,3.7C807.5,278.2,810,277.2,812.5,275.6z"/>
	<path d="M339.7,493.4c0.7,3.2-1.3,5.9-1.8,8.9C337.3,499.1,338.4,496.2,339.7,493.4z"/>
	<path d="M433.5,356.3c-0.3,2.6-2.2,4.2-4.2,5.6C429.3,359.1,431.7,357.9,433.5,356.3z"/>
	<path d="M442,247.2c-1.6,2.1-4.1,0.4-5.9,1.9C436.8,246,439.2,245.3,442,247.2z"/>
	<path d="M820.6,502.9c-0.7-3.7,1-6.4,1.6-9.6C823.3,495,822.7,498.5,820.6,502.9z"/>
	<path d="M818.2,280.1c2.3,1.3,4.3,2.9,5.5,5.4C820.7,284.9,819.1,282.8,818.2,280.1z"/>
	<path d="M922.4,238.3c-1.7,2.4-4.3-0.1-5.6,1.9c-1.1-1.2-0.5-2.1,0.4-2.3C918.8,237.5,920.6,236.4,922.4,238.3z"/>
	<path d="M802.9,369.5c-0.1-3.1-2.8-5.3-3.2-8.7C802.3,362.8,804,367.3,802.9,369.5z"/>
	<path d="M337.7,459.8c-0.2-3.1-2.8-5.3-3.1-8.5C336.9,452.9,338.7,457.5,337.7,459.8z"/>
	<path d="M333.7,434.5c-2,3.2-3.4,3.3-5.2,0.5C330.2,434.1,332,435.5,333.7,434.5z"/>
	<path d="M420.9,332.6c1.6,3.1,0.4,5.5,0,8.1C419.6,338.3,419.6,336.6,420.9,332.6z"/>
	<path d="M329.9,371.1c-0.7,2.3-1.4,4.6-2.2,7C326.4,373.7,327,371.8,329.9,371.1L329.9,371.1z"/>
	<path d="M822.7,470.5c3.3-1.7,3.3-1.7,5.3-0.5C826.4,472.8,824.4,470.4,822.7,470.5z"/>
	<path d="M856.8,333.2c2-2,3.5-4.5,5.8-6.4C861.8,329.9,859.7,331.9,856.8,333.2z"/>
	<path d="M322.4,390.1c1.1,2.2,1,4.4,0.7,6.7C321.4,394.7,322,392.4,322.4,390.1z"/>
	<path d="M859.7,317.7c2.1-1.6,4.1,0.2,6.3-1.2C864,319.4,862.7,319.5,859.7,317.7z"/>
	<path d="M781.9,302.8c2.9,1.4,2,4.1,2.4,6.5C782.2,307.6,782.9,304.9,781.9,302.8L781.9,302.8z"/>
	<path d="M829.4,251.2c-1.7,2.2-4.4,1.9-6.8,2.4c2-1.2,3.9-2.7,6.4-2.8C829.1,250.9,829.2,251,829.4,251.2z"/>
	<path d="M839.8,347.6c-0.3,2.2-1.9,3.1-3.5,4.1C836.9,349.8,838.1,348.4,839.8,347.6z"/>
	<path d="M831.4,277.1c2.1-1.4,4.2-1.5,6.4-2.3C836.5,276.9,835.5,277.2,831.4,277.1z"/>
	<path d="M332,300.7c-2.2-2.5-2.7-4.8-1.7-8.8C331.4,294.9,330.7,298,332,300.7L332,300.7z"/>
	<path d="M315.6,489.3c-0.5-2.4-0.4-4.1,0-6.3C317,485,317,485.9,315.6,489.3z"/>
	<path d="M808.2,380.9c2.3-0.5,4.1,0.8,5.9,1.9C811.9,382.8,810,382.2,808.2,380.9z"/>
	<path d="M889.7,253.6c1.2,2-0.2,3.2-0.4,4.9C887.8,256.1,887.8,256.1,889.7,253.6z"/>
	<path d="M889.1,260.7c1,2.3-0.8,3.9-1.3,5.9C886.9,264.4,888.6,262.7,889.1,260.7z"/>
	<path d="M431.5,411.6c2.1,1.1,4,2.4,5.4,4.3C434.7,415,433.1,413.4,431.5,411.6z"/>
	<path d="M890.3,275.2c-2.1,0.7-3.8,0-5.6-1C887.2,273.6,888.4,273.9,890.3,275.2z"/>
	<path d="M408.6,267.5c-1.3-2-0.9-3.4,0.8-4.9C410.3,264.5,409.4,265.8,408.6,267.5z"/>
	<path d="M333.9,439.9c1.6-1.2,3.3-1.7,5.6-1.7C337.8,440.5,335.8,440.1,333.9,439.9z"/>
	<path d="M343.6,314.1c-1.6-1.1-2.5-2.7-3.2-4.9C343.1,310.1,343.2,312.2,343.6,314.1z"/>
	<path d="M438.6,315.8c0.9,1.7,1.5,3.4,0.1,5.9C438.1,319.3,437.9,317.5,438.6,315.8z"/>
	<path d="M409.8,283.9c-1.7,0.5-3.4,0.4-5-0.8C407.5,282.5,407.5,282.5,409.8,283.9z"/>
	<path d="M408.8,269.6c0.7,2.2-0.2,4.1-1.5,6.5C406.7,273.2,408.7,271.6,408.8,269.6z"/>
	<path d="M817.6,316.3c-2.1-1.3-1.3-3.4-1.5-5.3c1.7,1.3,1.4,3.3,1.8,5C817.8,316.1,817.7,316.2,817.6,316.3z"/>
	<path d="M331.2,479.2c1.8,1.2,2.3,3.1,3.1,4.9C332.7,482.8,332.7,482.8,331.2,479.2z"/>
	<path d="M880.8,317.5c2.6-0.2,3.6,1.2,5.5,2.2C883.8,320,882.5,319.3,880.8,317.5z"/>
	<path d="M798.9,488.8c-1-1.9-0.8-3.6-0.2-5.9C800.6,485.3,798.8,487.1,798.9,488.8z"/>
	<path d="M785.2,288.9c-1.4-1.2-2.8-2.4-4.2-3.6c0.3-0.3,0.7-0.6,1-0.9C783.4,285.7,785.3,286.4,785.2,288.9L785.2,288.9z"/>
	<path d="M354.1,273c-0.4,2.3-2.5,2.1-3.9,3C351.2,274.5,352.4,273.4,354.1,273z"/>
	<path d="M436.8,437.1c0.7,1.6,1.8,3.1,0.9,5C437.1,440.5,435.9,439,436.8,437.1z"/>
	<path d="M877.5,245.1c-0.3,1.2-0.5,2.4-0.9,3.9c-1.3-1.9-0.9-3.1-0.2-4.3C876.8,244.8,877.2,245,877.5,245.1z"/>
	<path d="M799.2,495.9c0.9,2.1,1.2,3.5-1,5C798.4,499.1,798.1,497.6,799.2,495.9z"/>
	<path d="M315.4,500.6c-0.2-1.7-0.4-3.2,0.9-4.7C317.1,497.8,317.5,499.2,315.4,500.6z"/>
	<path d="M438.3,272.9c-1.4,0.7-2.7,1.1-3.7-0.8C436.2,271.2,437.2,272.3,438.3,272.9z"/>
	<path d="M823.7,300.7c1.2-1.3-0.1-3.8,2.5-4.9C826.5,298.3,825.4,299.6,823.7,300.7L823.7,300.7z"/>
	<path d="M325,482.3c-1-1.4-2.1-2.8-1.8-5C325,478.7,324.7,480.6,325,482.3z"/>
	<path d="M823.7,300.6c0.3,1.6,0.6,3.2-0.7,4.8C821.3,303.4,822.4,302.1,823.7,300.6L823.7,300.6z"/>
	<path d="M839.4,320.1c0.5,2.3,0.1,4.1-0.8,6.2C838.2,324,838.7,322.2,839.4,320.1z"/>
	<path d="M914.7,263.5c1.8-1.3,2.8,0.3,4,0.4C917.2,265.3,916,264.9,914.7,263.5z"/>
	<path d="M807.6,481.4c-1.2-1.1-1.9-2.3-1.5-4.1C807.6,478.5,807.6,479.9,807.6,481.4z"/>
	<path d="M429.8,365c-0.2,1.7-1.1,2.9-2.7,4.2C427.4,367.1,428.3,365.9,429.8,365z"/>
	<path d="M370.7,297c-0.1,1.7-0.8,3.1-2,4.3C368.9,299.6,369.1,298,370.7,297z"/>
	<path d="M814.3,479.6c1.7,0.9,2.2,2.6,2.7,4.4C815.4,483,814.9,481.3,814.3,479.6z"/>
	<path d="M776.1,321.9c-1.9-0.7-2.6-2.1-3-4.4C775.1,318.8,775.3,320.5,776.1,321.9L776.1,321.9z"/>
	<path d="M341.6,457.3c-1.3-1-1-2.6-1.4-4C341.4,454.4,341.6,455.8,341.6,457.3z"/>
	<path d="M806.9,367c-1.3-1.1-1-2.6-1.4-4C806.8,364.1,806.9,365.5,806.9,367z"/>
	<path d="M396.8,253.5c0.6,1.4,0.1,2.5-0.5,3.8C395.5,255,395.5,255,396.8,253.5z"/>
	<path d="M439.2,298.7c0,2,0,2-1.4,3.7C437.2,300.7,438.4,299.8,439.2,298.7z"/>
	<path d="M812.7,462.2c-1.1-0.6-1.7-1.5-2-3.4C812.6,459.7,813,460.8,812.7,462.2L812.7,462.2z"/>
	<path d="M812.5,478.3c-1.1-1.4-1.8-2.5-2.8-3.8C811.9,475.3,811.9,475.3,812.5,478.3z"/>
	<path d="M789,275.1c-2-0.7-2.9-1.6-4.2-2.8C786.7,272.6,787.8,273.2,789,275.1z"/>
	<path d="M329.5,478c-1-1.4-1.8-2.5-2.8-3.9C328.9,475.3,328.9,475.3,329.5,478z"/>
	<path d="M796.3,387.4c-0.6,1.8-1.7,1.6-2.9,2.1C794,387.8,795,387.7,796.3,387.4z"/>
	<path d="M326.8,380.9c1.4,0.7,1.9,1.4,1.3,3.3C327,383,326.4,382.3,326.8,380.9z"/>
	<path d="M437.7,443.9c1.5,0.9,1.5,1.7,1.1,2.7c-0.9,0.1-1-0.4-1.1-0.9C437.7,445.2,437.7,444.8,437.7,443.9z"/>
	<path d="M825.1,312.1c1.2,0.5,2,1.3,1.9,2.8C825,314.7,825.1,313.4,825.1,312.1L825.1,312.1z"/>
	<path d="M877.2,251.5c0.3,1,0.8,2.1-0.4,3.3C875.9,253.3,877,252.5,877.2,251.5z"/>
	<path d="M829.4,320.4c-1.5-0.1-1.9-0.9-2-2.3C829.1,318.1,829.5,318.9,829.4,320.4z"/>
	<path d="M336.2,395.4c-1.2-1-1.1-2.1-0.8-3.5C336.4,393,336.9,393.9,336.2,395.4z"/>
	<path d="M837.3,308.1c-1.3-0.7-2-1.3-0.6-2.4C837.9,306.1,837.9,306.8,837.3,308.1z"/>
	<path d="M425.9,372.8c0.4,0.9,0.7,1.8,0.2,2.9C424.8,374.8,425,373.8,425.9,372.8z"/>
	<path d="M372,273.7c0.7-1.1,1.3-1,2.1-0.8C373.7,274.3,373,274.1,372,273.7z"/>
	<path d="M438.4,449c-1,1.6-1.7,1.6-2.7,0.9C436.3,448.5,437.2,448.8,438.4,449z"/>
	<path d="M812.6,462.3c0.5,1,1.3,1.9,0.9,3.5C812,464.6,812.3,463.4,812.6,462.3L812.6,462.3z"/>
	<path d="M342.3,332.8c-1.2-1-1.6-1.9-1.7-3.1C341.9,330.6,341.9,330.6,342.3,332.8z"/>
	<path d="M805.2,467.9c-1.6-0.2-1.9-1-1.9-2.4C804.7,465.8,805.2,466.5,805.2,467.9z"/>
	<path d="M869.8,316.6c-0.9,1.2-1.4,2-2.6,1.1C867.5,316.5,868.5,316.6,869.8,316.6z"/>
	<path d="M814.6,274.4c-1.1-0.2-1-1.1-1.4-1.6c0.8-0.6,1.1-0.1,1.4,0.3C814.7,273.4,815.1,273.8,814.6,274.4z"/>
	<path d="M347.3,279.9c-0.4-1.4,0.3-2,1.5-3C348.8,278.5,348.1,279.1,347.3,279.9z"/>
	<path d="M921.6,280.1c-0.4,0.1-0.8,0.2-1.2,0.3c-0.5-1.1,0.1-1.6,0.8-2.2C921.8,278.9,921.3,279.6,921.6,280.1L921.6,280.1z"/>
	<path d="M396.8,263.6c-1.1-1.2-0.1-1.9-0.3-2.9C397.5,261.6,397.2,262.4,396.8,263.6z"/>
	<path d="M339.2,436.5c-0.6,1.1-1.3,0.8-2.4,1C337.5,436.2,338.2,436.1,339.2,436.5z"/>
	<path d="M805.4,445.3c0.7,0.9,0.7,1.6-0.2,2.2C804.2,446.6,804.8,446,805.4,445.3z"/>
	<path d="M345.7,314.8c1.1,0,1,0.8,1.3,1.4c-0.7,0.7-1.1,0.1-1.4-0.3C345.4,315.6,345.2,315.2,345.7,314.8z"/>
	<path d="M438.5,314c-1.2-1.1-0.8-1.8,0.1-2.6C439.2,312.2,439.1,313,438.5,314z"/>
	<path d="M809.9,318c-1.4-0.4-2-0.9-1.9-2.2C809.5,315.9,809.4,316.9,809.9,318z"/>
	<path d="M329.2,337.5c1.4,0.6,1.7,1.3,1.6,2.4C329.3,339.9,329.2,339,329.2,337.5z"/>
	<path d="M887.6,320.3c0.9-1,1.6-0.6,2.6-0.2C889.3,321.1,888.6,321,887.6,320.3z"/>
	<path d="M441.7,294.6c0.3,1.3-0.1,2-1,2.4C440.5,295.7,440.5,295.7,441.7,294.6z"/>
	<path d="M421.8,347.3c0.9,1,0.5,1.6-0.3,2.4C420.8,348.5,420.8,347.9,421.8,347.3z"/>
	<path d="M315.7,503.8c1.2,1,0.8,1.6-0.1,2.1C315.1,505.3,315,504.7,315.7,503.8z"/>
	<path d="M329.2,387.6c-1-0.5-1.3-1-1.2-1.7C329.5,385.6,329.6,386.4,329.2,387.6z"/>
	<path d="M337.1,398.4c0.2,0.5,0.9,1.1,0,1.6c-0.9-0.3-0.8-0.9-0.6-1.6C336.7,398.5,336.9,398.5,337.1,398.4z"/>
	<path d="M798.6,505.9c-0.8-0.4-0.5-1-0.2-1.5c0.5-0.1,0.8,0.1,0.8,0.6C799.3,505.4,799.2,505.8,798.6,505.9z"/>
	<path d="M418.6,275.7c-0.4-0.7,0-1.2,0.4-1.7c0.8,0.1,0.6,0.5,0.5,0.9C419.2,275.3,419.1,275.7,418.6,275.7z"/>
	<path d="M333.5,313.9c1.2,0.7,1.2,1.3,0.7,2.1C333,315.8,333.2,315,333.5,313.9z"/>
	<path d="M442.8,445.3c-0.9-0.7-0.9-1.4-0.4-2.2C443.2,443.6,443.4,444.2,442.8,445.3z"/>
	<path d="M782.4,403.4c-0.8-0.6-1.2-1.4-1.6-2.4c1.4,0.2,1.5,1.3,2.1,2C782.7,403.1,782.5,403.3,782.4,403.4z"/>
	<path d="M900.3,264.9c-0.7,0.5-0.4,1.7-1.5,2.1C898.6,265.7,899,265,900.3,264.9L900.3,264.9z"/>
	<path d="M345.7,352c-1.9-0.2-2.1-0.7-1.7-1.5C344.9,350.4,344.8,351.2,345.7,352z"/>
	<path d="M781.9,302.8c-1.2-0.5-1.6-1.3-1.2-2.6C781.8,300.9,781.8,301.9,781.9,302.8L781.9,302.8z"/>
	<path d="M816.7,529c0-0.7,0-1.1,0-1.8C817,527.9,817.1,528.3,816.7,529z"/>
	<path d="M776.1,321.9c0.2,0.8,1.4,1.3,0.9,2.6C775.7,323.9,775.9,322.9,776.1,321.9L776.1,321.9z"/>
	<path d="M789,279.2c0.8-0.4,1.2-0.2,1.3,0.4c0,0.1-0.1,0.4-0.2,0.5C789.5,280.3,789.1,280.1,789,279.2z"/>
	<path d="M818.3,475.8c-1.2,0.2-1.4-0.4-1.7-1.3C818,474.2,818.1,474.9,818.3,475.8z"/>
	<path d="M443,441c-0.2-0.1-0.5-0.1-0.5-0.2c-0.2-0.3-0.1-0.7,0.2-0.8c0.1-0.1,0.4,0.1,0.5,0.2C443.4,440.5,443.4,440.8,443,441z"/>
	<path d="M811.9,260.5c0.6,0.6,0.2,0.9-0.4,1.1C811.1,261.1,811.1,260.7,811.9,260.5z"/>
	<path d="M371.5,271c0.7-0.6,1.2-0.5,2,0C372.6,271.8,372.1,272,371.5,271z"/>
	<path d="M779.2,298.4c-0.9-0.3-1.2-0.8-1.4-1.7C779,296.7,779.2,297.2,779.2,298.4z"/>
	<path d="M337.5,402c0.5,0.2,0.9,0.4,0.7,1.1C337.3,403.2,337.1,402.8,337.5,402z"/>
	<path d="M817.9,316c0.7,0.1,1.1,0.4,1,1.1c-1.1,0.5-1.1-0.3-1.3-0.9C817.7,316.2,817.8,316.1,817.9,316z"/>
	<path d="M440.2,356.8c-0.7-0.3-0.7-0.8-0.4-1.3C440.3,355.8,440.6,356.2,440.2,356.8z"/>
	<path d="M873.4,313.9c-0.2,1.5-0.6,1.8-1.5,1.4C871.7,314.3,872.4,314.3,873.4,313.9z"/>
	<path d="M344.4,454.3c1,0.3,1.4,0.6,1.2,1.5C344.8,455.8,344.6,455.3,344.4,454.3z"/>
	<path d="M809.5,363.8c1.1,0.5,1.7,0.8,1.4,1.6C810,365.6,810,364.9,809.5,363.8z"/>
	<path d="M336.2,318.7c0.5,0.1,0.7,0.3,0.7,0.8C335.9,319.8,335.9,319.4,336.2,318.7z"/>
	<path d="M411.7,296.9c-0.2,0,0,0,0.2,0C411.7,297.4,411.4,297.1,411.7,296.9z"/>
	<path d="M441,449.4c0-0.7,0.5-0.9,0.9-0.8c0.2,0,0.4,0.6,0.3,0.8C441.9,449.7,441.5,449.8,441,449.4z"/>
	<path d="M410.2,288c0.5,0.9-0.1,0.9-0.3,1.5C409.3,288.4,409.8,288.3,410.2,288z"/>
	<path d="M822.5,416.8c0.1-0.3,0.1-0.6,0.6-0.5C823,416.5,823,417,822.5,416.8z"/>
	<path d="M848.8,424c0.4,0.1,0.8,0.2,1.2,0.2c0,0.1,0,0.1-0.1,0.2C849.6,424.3,849.3,424.1,848.8,424L848.8,424z"/>
	<path d="M793.4,281.1c0.9-0.6,1.5-0.6,2,0C794.8,282,794.1,281.8,793.4,281.1z"/>
	<path d="M861.7,279.5c-0.9-0.1-1.6-0.5-2-1.3l-0.1,0.1C860.7,278.2,861.4,278.6,861.7,279.5L861.7,279.5z"/>
	<path d="M859.7,278.2c-0.7,0.1-1.2-0.2-1.8-1.2C858.9,277.3,859.5,277.3,859.7,278.2L859.7,278.2z"/>
	<path d="M921.2,274.6c-0.1,0.3-0.3,0.6-0.7,0.5c-0.1,0-0.3-0.3-0.3-0.5c0-0.3,0.2-0.6,0.6-0.5C921,274.2,921.1,274.4,921.2,274.6z"
		/>
	<path fill="#FFFFFF" d="M652.1,392.8c1.2-0.8,2.3-0.6,3.5-0.9c0.9,1.7,0.9,3.5,1.2,5.2c3.1,15.9,10,29.8,22.2,40.7
		c3.6,3.2,8.2,4.7,13.1,4.6c2.5,0,5.1,0.5,7.2-1.6c-0.9-0.5-1.6,0-2.3,0.1c-9.2,1.7-15.7-2.8-21.3-9.2
		c-9.2-10.5-14.7-22.8-17.2-36.5c-0.1-0.7-0.2-1.3-0.3-2c0-0.3,0-0.6,0.1-1.5c9.3-0.9,18.7-1.8,28.1-2.7c0.3,1.5-0.7,1.9-1.3,2.5
		c-4,3.8-5.9,9-8.7,13.5c-1.6,2.6,0.5,6.2,2.4,8.9c1.4,2.1,3.5,3.3,5.8,4.3c2.3,0.9,3.2,0.3,3.7-2.2c1.2-6.8,2-13.6,3.8-20.2
		c0.2-0.8,0.5-1.6,1-2.3c-0.1,5.4-0.1,10.8,0.8,16.2c0.1,0.6,0,1.3-0.2,2c-0.6,3.3,0.5,5.6,3.4,7.2c3.3,1.8,6.1,0.8,7.6-2.6
		c0.9-2.2,1-4.5,0.8-6.9c-0.3-5.8-2.8-12.8-6-16.5c2.4-1.1,4.1-2.8,5.5-5c3.3-4.9,2.5-11.1-2.1-14.9c-0.2-0.1-0.4-0.3-0.5-0.4
		c-4.9-4.1-9.6-3.2-12.7,2.4c-0.2,0.4-0.4,0.8-0.8,1.4c-10.4,1-20.9,2-31.8,3c-0.5-5.4,0.2-10.4,1.1-15.4
		c2.1-12.1,6.3-23.3,14.5-32.6c3.3-3.8,7.2-6.8,11.9-8.8c2.5-1,4.8-1.3,7.4-0.7c2.6,0.5,5.2,0.7,7.8,1c0.2-0.6,0.1-0.9-0.2-1
		c-5.4-2.2-10.9-3.8-16.6-0.8c-10.7,5.5-17.3,14.6-21.9,25.3c-3.7,8.7-5.6,17.9-6.1,27.4c-0.1,1.9,0,3.7-0.5,5.5
		c-1.1,0.6-2.2,0.6-3.5,0.4c-0.6-3.6,0-7.2,0.3-10.8c1.2-12.1,4.4-23.7,10.6-34.3c1.8-3.1,3.9-5.9,6.3-8.5
		c12.7-13.6,30.4-14,43.8-0.9c7.1,7,11.9,15.4,15.1,24.7c8.4,24.4,8.2,48.7-2.1,72.6c-2,4.7-4.8,9-8,12.9
		c-12.7,15.3-31.9,16.1-45.8,1.9c-8.8-9-13.8-20.2-17.1-32.2C653.3,401.1,652.4,397.1,652.1,392.8z"/>
	<path fill="#FFFFFF" d="M878.7,553.8c-2,1.2-4.1,1.9-4.8,4c-4.4,1-8.7,1.8-13.2,3.2c1.2-7,0-13.7,0.1-20.5
		c0.1-12.4-1.1-24.7-5.4-36.6c-1.8-5.1-3.2-10.3-2.9-15.9c0.2-2.8-0.2-5.5-0.2-8.3c0-3.6-0.1-7.3,1.2-10.8c0.5-1.3,0.8-2.8,1-4.2
		c0.7-4.7-2.3-10.5-6.4-12.7c-0.7-3.3-2.9-5.8-5.1-8.5c1.3-0.1,2.3-0.3,3.5-0.4c2.5,1.8,2.7,5.9,7,6.8c-1.9-2.1-3.7-3.7-3.9-6.4
		c5.8,0,11.7,0.1,17.6-0.9c5.7-1,11.6-1.2,17.5-3.5c1,5.1,3.4,9.5,4.9,14.2c0.3,0.9,0,1.9-0.1,2.9c-0.5,5.6-3.4,10.7-3.9,16.3
		c-0.3,3.7,0.2,7.3,0.4,10.9c0.5,7.8-0.2,15.5-2,23.1c-2,8.4-3.4,16.9-4,25.5C879.2,539.3,877.7,546.5,878.7,553.8z"/>
	<path fill="#FFFFFF" d="M695.5,313.7c15.2-1,26.9,5.3,35.6,17.3c8.3,11.3,12.5,24.3,14.5,38.1c2.2,15.2,1.1,30.3-3.7,44.9
		c-2.6,8-6.3,15.4-11.8,21.8c-7.7,8.9-17.7,12.8-29.5,13.3c0.8-1,1.7-1,2.5-1.3s1.7-0.6,2.5-1c6.9-3.3,12.2-8.4,16.4-14.6
		c7.2-10.6,10.9-22.5,12.4-35c2.2-18.3,0.2-36-7.1-53c-2.8-6.6-6.5-12.6-11.3-17.9C710.5,320.1,703.8,315.6,695.5,313.7z"/>
	<path fill="#FFFFFF" d="M875.7,592.7c-3.1-1-6.1-1.3-9.4-1c-4.9,0.4-9.7,0-13.9-3.8c3.9-6.5,3.9-14,5.5-21.4c1.5,4,5.1,4.5,8.5,5.5
		c3-1.9,5.5-4.6,8.7-6.4c2.5-1.4,0.7-3.8,0.9-6c2.5-1.3,4.1-4.4,7.9-4c0.4,2.8,1.2,5.5,3.8,7.8c-4.5,1.4-9.2,0.1-12.7,4.7
		c4-0.8,7.1-2.2,10.5-2.1h-0.1c-1.2,1.1-2.9,0.8-4.3,1.5c-1.6,0.7-3.3,1.4-2.7,3.8c1.6,0.1,2.6-1.6,4.1-0.9c-0.4,1-1.7,1.4-1.9,3
		c4.5-0.1,8.8-1.6,13.9-2c-2.5,2.1-5.7,1.3-7.4,3.9c2.9,1.7,5.8,0.1,8.7,0.1c-2,0.9-4.6,0.5-6.1,3.1c3.7-1.3,6.1,4.6,10.3,1.1
		c3.4,4.5,8.4,6.1,13.6,7.4c2.9,4.2-0.9,6.3-2.9,9c-6.8,0.2-13.5-0.4-20.2-1c-2.3-0.2-4.6-0.2-6.9-0.7c-2.6-0.6-5.1-1.3-7-3.3
		C875.5,591.2,875.7,592,875.7,592.7L875.7,592.7z"/>
	<path fill="#FFFFFF" d="M819.1,578.7c-0.7,1.3-2.9,1.1-3.4,3.1c2.4,0.6,4.6-0.5,6.9-0.3c0,1-1.5,1-1.2,2.4
		c3.9,0.7,7.5-1.4,11.4-1.5c-3,1.8-7.5,0.7-9.9,4.8c2.5,0.6,4.6,0.1,6.9-0.3c0.1,1.2-1.7,1.1-1.5,2.2c3.3,1.5,6.6,2.8,10.5,2.7
		c1.2-0.5-0.4-1.5,0.2-2.2c0.3,0.1,0.6,0.2,0.9,0.4c3.4,2.2,6.7,4.7,10.8,5.7c2.2,0.5,3.6,2,3.9,4.2c-4.7,1.7-9.4,2.8-14.1,3.5
		c-1.5,0.2-1.9,1.2-2.1,2.5c-7.4,0-14.6-0.5-21.3-3.3c-4.6-1.9-9.4-2.1-14.1-3.2c-3.6-0.9-3.9-0.7-6.8-3.7c2.1-4.5,2.9-9.5,5-13.3
		c4.6-3.3,9.6-5.2,12.3-10.1c0.6-1.1,1.8-1,2.7-1.2c1-1.6-0.2-3.1,0-4.6c3.1-0.4,6.1-0.8,9.5-1.2c-0.4,3-0.3,6.1,1.1,9.1
		c-3.8,1.6-8.5,0.5-11.2,4.6C817.1,579.4,818.1,578.4,819.1,578.7L819.1,578.7z"/>
	<path fill="#FFFFFF" d="M616.9,393.3c2.7-2.9,0.3-5.2,0.3-7.8c7.5-0.7,15-1.5,22.5-2.2c17.6-1.7,35.3-3.3,52.9-5
		c1.8-0.2,3.3-0.1,4.5,1.3c0.7,4.8-0.1,5.9-5.3,6.5c-9.9,1.1-19.8,2-29.8,2.9c-13.2,1.3-26.4,2.6-39.7,3.8
		C620.9,393.1,619.4,393.2,616.9,393.3z"/>
	<path fill="#FFFFFF" d="M748.7,380.7c-0.2-2.7-0.4-4.9-0.6-7.6c14-1.3,27.8-2.6,41.4-3.9c2.2,3.2,2.3,3.5,1.8,7.4
		C777.3,377.9,763.2,379.3,748.7,380.7z"/>
	<path fill="#FFFFFF" d="M769.1,355.7c-0.9-1.1,0.3-1.9-0.6-3.2c-2.8,5.3-2.8,10.8-3.4,16.1c-0.9,0.8-1.9,0.7-2.8,0.5
		c-0.1-0.2-0.4-0.4-0.4-0.6c0.3-4.4,0.3-8.8,3.3-12.6c1.3-1.7,1.2-4,1.4-6.1c0.3-2.8,0.7-5.4,3-7.9c5.1,2.5,10.2,5.2,15.1,8.9
		c0.2-1.2-0.4-2-1-2.9c-0.6-0.8-1.2-1.7-1.6-2.8c1.8,1.3,3.2,2.9,5.2,3.9c1.1,0.6,1.3,2,0.9,3.3c-0.4,1.5-0.7,3-1.7,4.6
		C780.8,355.9,775,355.6,769.1,355.7z"/>
	<path fill="#FFFFFF" d="M766.6,369c-0.5-4.2,0.2-7.8,1.1-11.6c6.2-0.1,12.2,0.4,18.2,1.4c1.1,0.2,1.6,1,1.8,2.1
		c0.3,1.8,0.7,3.7,1.1,5.9C781.6,367.6,774.2,367.8,766.6,369z"/>
	<path fill="#FFFFFF" d="M685.6,415.4c-5.6-2.4-7-5.7-5-10.9c2-5.3,5.4-9.9,8.6-14.5c0.9-1.3,2.1-1.5,3.9-1.2
		C688.4,397.1,687.2,406.3,685.6,415.4z"/>
	<path fill="#FFFFFF" d="M700.4,415.7c-1.9,0.1-2.2-1-2.5-2.5c-1-6.2-2.2-12.4-2.4-18.7c0-1.2,0-2.5-0.7-3.5s-0.5-1.8,0.5-2.7
		c3.3,7.1,7.3,13.8,6.7,22C701.9,412.1,701.9,414.2,700.4,415.7z"/>
	<path fill="#FFFFFF" d="M698.8,391.2c-1.1-1-1.4-2.2-1.8-3.2c4.7-5.2,4.1-12.8-4.9-12.3c2.5-3.6,5.6-4,9.1-1.1
		c2.8,2.3,3.6,5.4,2.9,8.6C703.5,386.4,702.7,390,698.8,391.2z"/>
	<path fill="#FFFFFF" d="M859.8,564.1c4.5-2.6,9.5-3.1,14.1-4.1c1,1.2,0.9,2.5,0.9,3.8c-3,1-5.7,2.6-8.1,4.7
		C864.2,570.7,860.9,568.7,859.8,564.1z"/>
	<path fill="#FFFFFF" d="M779.2,343.8c-3-1.5-6-2.9-9-4.3c-0.1-3.5,1.3-5.6,4.8-6.6C776.2,336.5,776.1,340.8,779.2,343.8z"/>
	<path fill="#FFFFFF" d="M814.7,568.3c-4.1,2.1-5,7.4-10.5,9.1c2.1-2.5,2-5,2-7.7c2.6-0.8,5.2-1.6,7.8-2.4
		C814.2,567.7,814.4,568,814.7,568.3z"/>
	<path fill="#FFFFFF" d="M612.5,392.7c-2.2-2.7-2-3.7,0.9-6.7c2,1.3,3.1,3,2.3,5.5C614.8,392.4,613.7,392.8,612.5,392.7z"/>
	<path fill="#FFFFFF" d="M776.4,331.5c2.4,1.6,3,4.4,4.5,6.6C778.6,336.6,777.8,333.9,776.4,331.5z"/>
	<path fill="#FFFFFF" d="M848.3,603.2c1.7-0.5,3.2-1.9,5.3-1.2C852,603.1,850.2,603.4,848.3,603.2L848.3,603.2z"/>
	<path fill="#FFFFFF" d="M819.1,578.7c1.5-1,3.2-1.3,4.9-1.1C822.4,578.2,820.8,578.8,819.1,578.7L819.1,578.7z"/>
	<path fill="#FFFFFF" d="M823.9,491.7c0-1.3-0.2-2.6,0.5-4.4C824.8,489.2,824.5,490.5,823.9,491.7L823.9,491.7z"/>
	<path fill="#FFFFFF" d="M802.2,577.3c0.7,0.6,1,1.1,0.6,2C801.7,578.8,801.8,578.2,802.2,577.3z"/>
	<path fill="#FFFFFF" d="M898.3,578.1c-0.7,0.5-1,0.5-1.6,0.2C897.1,577.5,897.4,577.2,898.3,578.1z"/>
	<path fill="#FFFFFF" d="M885.5,566c0.6-0.2,1.2-0.5,1.9,0C886.8,566,886.1,566,885.5,566L885.5,566z"/>
	<path fill="#FFFFFF" d="M837.8,588.2c-0.5,0.5-0.9,0.4-1.4,0.2C836.8,586.9,837.2,587.9,837.8,588.2z"/>
	<path fill="#FFFFFF" d="M891,568.4c-0.4,0.4-0.9,0.4-1.4,0.1C890.1,568.1,890.6,568,891,568.4z"/>
	<path fill="#FFFFFF" d="M782.1,339.4c0.4,0.5,0.6,0.8,0.7,1C782.3,340.6,782.1,340.3,782.1,339.4z"/>
	<path fill="#FFFFFF" d="M343.2,409.6c0-0.6,0-1.1,0.5-1.7c7.9,3.9,14.5,9.7,21.5,15c-2.4-4-13.5-12.5-21.2-16.3
		c-0.2-1.2-0.1-2.3,0.4-3.8c8.6,1.2,17.2,2.4,25.7,3.8c-8-3.5-16.7-3.8-25.4-5.3c0.6-10.3,5.4-20,4.2-30.3c6.2-3.4,13-5.1,19.1-8.8
		c1.7,1.8,4.3,1.8,7.1,1.8c-1.1,4.8-2.6,9.5,4.3,11.8c-5.6,1.7-9.9,4-13.8,7.4c-5.2-1.6-10.3-3.2-15.7-4c-0.3,1.9,0.7,1.9,1.5,2.2
		c4.3,1.6,8.9,2.6,13.1,4.6c1.6,0.7,2.7,0,3.9-0.9c3.3-2.4,6.7-4.6,10.2-6.9c0.5-0.3,1.1-0.8,1.8-0.6c1.3,1.2-0.7,2.2-0.2,3.3
		c0.8,1.9,1.8,3.4,3.7,4.4c1,0.5,2,1.3,1.8,2.6c-0.6,4.1,2.1,6.7,4.2,10.1c0.7-1.6,0.1-2.6-0.3-3.6c-0.8-2.2-1.7-4.2-1.5-6.7
		c0.2-1.9-1.4-3.2-2.9-4.2c-1.6-1.1-2.5-2.2-1.8-4.4c0.6-2-1.1-4.4-3.5-5.8c-1.4-0.8-3.2-1.1-4.2-2.9c0.1-2.4,1.4-4.7,1.8-6.9
		c-0.6-1.8-2.3-1.3-3.6-2c1.6-1.5,3.6-2.3,5.3-3.4c2.4-1.5,4.6-3.1,6-5.6c0.5-0.9,1.2-1.5,2.2-1.9c5.3-2.6,9.6-6.7,14.1-10.4
		c0.6-0.5,1.1-1.3,1.8-1.5c4.2-1.3,8-3.7,11.9-5.8c0.8,5.6,3,10.7,2.1,16.2c-0.2,1.4-0.3,2.9-0.5,4.3c-1.6,11.4,1,22.2,4.5,32.9
		c2.7,8.2,4.4,16.7,6.1,25.1c0.4,2.3,0.6,4.6,1.2,6.9c1.1,4.5-0.4,8.2-3,11.6c-3.2,4-5.3,8.6-7,13.5c-4.1,0.5-8.2,0.9-12.1,1.4
		c-3.2-2.3-2.9-6-4.1-8.9c-2.7-6.3-4.8-12.8-5.5-19.7c-0.2-1.6-0.6-3.3-1.4-4.8c-0.9-1.6-1.2-3.3-1.3-5.1c-0.1-2.9-1.6-5.5-4.3-7.3
		c5,12.6,5.5,25.9,10.6,38.4c-15.9,3.7-31.6,4.6-47.4,2.8c-3.3-5.8-3.6-12.2-5.4-18.7c2.3,1.5,3.6,3.7,6.2,4.6
		c-1.3-1.9-2.8-3.4-4.4-4.6c-2-1.5-2.9-3.5-3.5-5.8C345.5,413.4,345.6,410.8,343.2,409.6L343.2,409.6z"/>
	<path fill="#FFFFFF" d="M427.5,269.3c2.1,7.8,2.8,15.6,1.6,23.6c-0.9,6.1,0.2,12.1,0,18.2c-0.1,5.7-1.9,9.9-6.7,13.1
		c-6.5,4.2-12.9,8.4-19.9,11.7c-0.9,0.4-1.8,0.9-2.4,1.7c-3.8,4.8-9,7.7-14.2,10.6c-0.8,0.4-1.5,0.9-2.1,1.6
		c-4.1,5.7-10.1,8.4-16.7,9.8c-3.9,0.8-7.9,1.1-11.9,1.3c-3.6,0.2-3.6,0.2-6.5-2.8c7-10.3,11.3-21.5,10.7-34.5
		c5.4,1.6,10.1,6.4,16.5,3.5c-6.1,0.4-10.6-4.1-16.5-5.3c1.7-0.6,3.3-1,4.8-1.7c7.9-3.2,13-9.6,16.7-16.8c1.9-3.7,4.4-7,5.1-11.5
		c1.2-8.3-0.4-15.8-3.9-23.2c-2.3-4.9-4.8-9.7-7.7-14.3c3.4-1.3,4.5-0.9,6,2.2c3.7,7.8,6.4,16,8.4,24.4c1.1,4.6,2.4,9.2,3.4,13.8
		c1.4,6.4,5.3,10.8,11.7,12.7c1.3,0.4,2.7,0.6,3.9,0.3c11.1-3.1,19.9-9.8,19.7-23.2c-0.1-4.7-0.3-9.7-2.6-14
		C425.8,269.6,426.8,269.8,427.5,269.3L427.5,269.3z"/>
	<path fill="#FFFFFF" d="M395.7,553.7c-1.9,1.2-4,1.9-4.9,3.9c-4.4,1-8.5,2-13.1,3.1c0.8-6,0-11.9,0-17.9c0.1-13.6-1-26.9-5.7-39.8
		c-1.7-4.8-3-9.7-2.6-15c0.1-2,0-4-0.2-6c-0.3-4.7-0.4-9.3,1.3-13.8c0.8-2.3,0.9-4.7,1.2-6.9c11.3-2.1,22.4-2.6,33.7-4.2
		c0.5,2.7-0.1,5.2-1,7.2c-2.4,5.4-2.2,10.9-1.7,16.5c0.7,9.1-0.1,18.1-2.3,27c-2.3,9.4-3.3,19-4,28.6
		C395.9,542.2,395.2,547.9,395.7,553.7z"/>
	<path fill="#FFFFFF" d="M355.3,588.4c3.7,2.9,7.4,5.6,12,6.9c2.3,0.6,3.8,2,4.4,4.4c-4.6,1.6-9.3,2.7-14.1,3.4
		c-1.5,0.2-1.8,1.3-2.3,2.5c-7.3,0-14.4-0.5-21.2-3.3c-4.6-1.9-9.5-2.1-14.2-3.2c-3.6-0.9-3.8-0.6-6.8-3.6c2-4.5,2.8-9.5,5.3-13.8
		c4.4-1.6,7.4-5.1,11.1-7.6c1.3-0.9,1-3.8,3.5-3.1c1.2-1.7-0.2-3.2,0.4-4.8c3-0.4,6-0.8,9.5-1.2c-1,3.3-0.1,6.2,0.6,9.2
		c-3.7,1.4-8.2,0.4-11.2,4.8c3.5-0.1,6-1.8,9.3-1.5c-3.3,1.2-6.7,1.2-9.2,4.1c2.9,0.9,5.4-0.4,7.9-0.5c-0.1,1.3-2.3,0.9-2,2.8
		c3.9,0.5,7.6-1.4,11.5-1.6c-3,2-7.6,0.8-10,4.9c2.6,0.5,4.8,0.1,7.1-0.4c0,1.2-1.4,1.1-1.5,2.2c3.3,1.8,6.9,2.7,10.9,2.7
		C356.5,590.2,354.4,589.7,355.3,588.4L355.3,588.4z"/>
	<path fill="#FFFFFF" d="M352.5,460.8c0.3-2.7-0.8-4.7-1.6-7.4c25.2-2.9,50.2-5.7,75-8.5c2.7,3.1,2.7,3.1,1.2,7.3
		C402.5,455,377.7,457.9,352.5,460.8z"/>
	<path fill="#FFFFFF" d="M364.3,449.4c-1.7-2.1-2.6-4.2-4.6-6c1.5-0.2,2.5-0.3,3.5-0.4c1.5,0.6,1.8,2.5,3.4,2.7
		c1-0.8-0.6-1.6-0.1-2.4c12.6,0,26.1-1.6,34.7-4.2c1.3,1.6,1.1,3.7,2.3,6C390.3,446.6,377.4,448,364.3,449.4z"/>
	<path fill="#FFFFFF" d="M343.1,409.6c-0.2,3.6,1,7,1.7,10.4c1.5,7.5,3.2,14.9,4.2,22.5c0.2,1.3,0.9,3-1.5,3.5
		c-1.7-1.6-2.8-3.7-3.3-6.1c-1.9-8.9-2.6-17.9-1.9-27C342.4,411.7,342.6,410.6,343.1,409.6L343.1,409.6z"/>
	<path fill="#FFFFFF" d="M376.9,564c4.5-2.6,9.5-3.1,14.2-4.1c0.8,1.3,0.6,2.5,0.8,3.8c-3.1,1-5.7,2.7-8.2,4.7
		C381.2,570.5,378.2,568.7,376.9,564z"/>
	<path fill="#FFFFFF" d="M349.6,451c-0.9-1.1-1.3-2.1-1.6-3.6c1.4,0.3,2.8,1,4.1,0c0.8-1.7-0.7-3.4,0.1-5.3c1.4,0.5,2.9,0.8,4.5,0.8
		c1.8,2.1,3.8,4,5.2,6.5c-0.5,0.2-0.9,0.5-1.3,0.6C356.9,450.2,353.3,451,349.6,451z"/>
	<path fill="#FFFFFF" d="M321.4,576.6c1.9-1.9,1.9-4.3,1.7-7c2.6-0.8,5.2-1.6,8.2-2.6c0.2,3.7-5.7,3.1-4.3,6.9
		c-1.8,1.1-3.4,2.2-5.1,3.2C321.8,577,321.6,576.8,321.4,576.6z"/>
	<path fill="#FFFFFF" d="M349.5,367.5c-0.8-1.3-0.8-2.5-0.9-4c4,0.2,7.8-0.4,11.8-0.3C356.8,364.6,353.1,366,349.5,367.5z"/>
	<path fill="#FFFFFF" d="M401.9,212.2c1.4-1,1.2-2.7,2-3.7c1.5-0.2,1.5,1.3,2.4,1.7c0.9,0.6,1.6-0.6,2.5-0.2
		c0.6,0.7,0.1,1.2-0.6,1.9C406,210.2,404,210.8,401.9,212.2z"/>
	<path fill="#FFFFFF" d="M402.4,238.9c-1.1-1.5-3-2.8-0.8-4.5c1.1,0.1,1.5,0.8,2,1.6C403.6,237.1,401.6,237.4,402.4,238.9z"/>
	<path fill="#FFFFFF" d="M366.1,603c1.8-0.9,3-1.9,5.4-1.3C369.6,602.8,368.1,603.1,366.1,603z"/>
	<path fill="#FFFFFF" d="M416.9,209.9c-1.2,1.1-2.4,2.1-3.7,3.3c0.3-2.1,2.2-2.6,3.2-3.9C416.6,209.6,416.7,209.7,416.9,209.9z"/>
	<path fill="#FFFFFF" d="M449.9,207.5c-0.6-1.8-0.6-1.8,1.3-2.1C451.3,206.4,450.4,206.8,449.9,207.5z"/>
	<path fill="#FFFFFF" d="M404.3,225.6c-0.3-1.1-0.6-2.3,0.6-3.5C405.5,223.6,404.5,224.6,404.3,225.6z"/>
	<path fill="#FFFFFF" d="M423,213.5c-1,0.7-2,0.7-3.2-0.4C421.2,211.6,422.1,211.7,423,213.5L423,213.5z"/>
	<path fill="#FFFFFF" d="M430.8,202.4c-0.6,1.2-1.4,1.7-2.3,2.3C428.3,203,428.8,202.1,430.8,202.4z"/>
	<path fill="#FFFFFF" d="M408.9,575.9c1.2-0.3,2.4-0.7,3.6-1C411.5,576.1,410.1,575.6,408.9,575.9L408.9,575.9z"/>
	<path fill="#FFFFFF" d="M416.8,220.5c-0.3-0.8-0.4-1.5,0.4-2.1C419,219.5,417.1,219.9,416.8,220.5z"/>
	<path fill="#FFFFFF" d="M412.2,223.9c0,1.3-0.5,1.9-1.5,2C410.3,224.6,411.1,224.3,412.2,223.9z"/>
	<path fill="#FFFFFF" d="M443.8,201.4c0.2-0.6,0.5-1.3,0.8-2.1C445.9,200.5,444.9,201,443.8,201.4z"/>
	<path fill="#FFFFFF" d="M443.6,232.1c1-0.8,1.7-1.2,2.9-0.7C445.5,232.4,444.7,231.8,443.6,232.1z"/>
	<path fill="#FFFFFF" d="M413.8,204.7c0.1-0.9,0.9-1,1.4-1.5c0.6,0.7,0.1,1-0.2,1.4C414.6,205,414.2,204.9,413.8,204.7z"/>
	<path fill="#FFFFFF" d="M409.4,223.6c-0.3,0.8-0.8,1.1-1.5,1.2C407.8,223.9,408.2,223.5,409.4,223.6z"/>
	<path fill="#FFFFFF" d="M415.7,578.3c-1,0.1-1.4,0.1-1.8,0.1C414.3,577.5,414.3,577.5,415.7,578.3z"/>
	<path fill="#FFFFFF" d="M341.8,487.8c0,0.6-0.1,1.2-0.1,2C340.7,489,341.5,488.3,341.8,487.8z"/>
	<path fill="#FFFFFF" d="M435.8,211.9c-1,0.2-1.3-0.4-2-0.6C434.8,210.8,435.2,211.1,435.8,211.9z"/>
	<path fill="#FFFFFF" d="M355.3,588.4c-0.7,0.3-1.4,0.4-1.9-0.5C354.4,587,354.7,588.1,355.3,588.4L355.3,588.4z"/>
	<path fill="#FFFFFF" d="M400.5,240.6c-1-0.2-0.7-0.8-0.7-1.5C400.5,239.4,400.9,239.7,400.5,240.6z"/>
	<path fill="#FFFFFF" d="M319.6,579.1c-0.8-0.8-0.8-1.3-0.1-1.8C320,577.7,320.1,578.3,319.6,579.1z"/>
	<path fill="#FFFFFF" d="M348,360c0.6,0,1,0.2,1.2,0.6c0.1,0.2,0.1,0.4-0.2,0.4C348.4,361,347.9,360.9,348,360z"/>
	<path fill="#FFFFFF" d="M430.2,210.2c-0.3-0.1-0.7-0.2-0.8-0.4c-0.1-0.3,0.1-0.7,0.5-0.6c0.2,0,0.4,0.4,0.6,0.7
		C430.4,210,430.3,210.1,430.2,210.2z"/>
	<path fill="#FFFFFF" d="M403.8,565.6c0.4-0.1,0.8-0.4,1.2,0.1C404.6,565.9,404.2,566,403.8,565.6z"/>
	<path fill="#FFFFFF" d="M407.9,568.3c-0.4,0.4-0.9,0.4-1.4,0C407,568,407.5,567.8,407.9,568.3z"/>
	<path fill="#FFFFFF" d="M937.2,364.9c7.6-0.7,15-1.5,22.5-2.2c0.9,1.6,1.6,3.1,2.6,4.4c2.5,3.6,5.7,5.7,10.3,5.6
		c6.9-0.1,10.7-2.7,12.9-9.3c2.1-6.3,1.6-12.5-1.6-18.3c-2.7-4.9-6.9-7.5-12.5-7.1c-5.5,0.4-9.1,3.6-11.2,8.6
		c-0.5,1.2-0.8,2.5-1.4,4c-7.4,0.7-14.8,1.4-22.5,2.1c-0.5-4.9,0.3-9.2,1.2-13.6c1.5-7.9,4.4-15.3,8.9-22
		c13.5-20.1,37.7-21.3,53-2.5c10.7,13,14.9,28.2,14.7,44.8c-0.2,12.8-3.2,24.8-10.5,35.5c-5.9,8.6-13.6,14.5-24.4,15.5
		c-9.4,0.9-17.4-2.6-24.2-8.8c-9.7-8.8-14.8-20.2-17.5-32.9C937.4,367.8,936.9,366.7,937.2,364.9z"/>
	<path fill="#FFFFFF" d="M898.2,374c1.9-2.3,3.9-4.5,5.1-7.2c-3.1,0.7-3.7,4.1-5.7,5.8c-2.3,0.8-2.7-1.7-4.5-2
		c2.3-2.6,4.1-5.1,2.4-8.6c-1.5-3.1-3.7-4.8-8.1-4.5c2.9-2.2,3.2-4.8,3.7-7.4c0.2-1.2,0.9-1.9,1.9-2.6c5-3.2,5.4-7.4,4.2-13.1
		c-0.6-3.1-1.8-6.1-5-8.6c6.5-2.7,11.7-6.2,16.1-11.1c1.1,0.4,0.5,1.3,0.5,2c0,5.5-0.3,11.1,0.7,16.6c0.6,3.3,1.5,6.4,0.4,10
		c-0.6,2,0.9,4.4,1.8,6.6c1.4,3.5,2.7,7,4.1,10.5c-1.6,1.2-3.4,2-4.2,4c1.5,0.9,1.9-0.7,3.1-1.2c-1.1,2.3-1.5,4.6-3.3,6.8
		c-0.7-2,1.3-2.9,1.1-5c-3.4,2.3-3.7,6.8-7.5,8.5c0.5-2.8,2.7-4.5,2.9-7.1c-2.8,1.8-3.5,5.3-6,7.7
		C900.8,374.4,899.5,373.9,898.2,374L898.2,374z"/>
	<path fill="#FFFFFF" d="M989,410.3c18.3-9.9,25.2-26.6,26.8-46c1.3-14.8-1.5-28.9-8.9-41.9c-5.8-10.1-13.6-17.9-25.1-21.5
		c-0.3-0.1-0.5-0.3-1.2-0.7c9.3,0.4,16.9,3.5,23.3,9.4c9.4,8.6,14.6,19.6,17.3,31.8c3.4,15.1,2.4,29.9-3.6,44.2
		c-3.4,8.2-8.2,15.4-16.1,20.2C997.7,408.2,993.2,408.9,989,410.3z"/>
	<path fill="#FFFFFF" d="M891.2,326.7c1.6,4.2,3.1,8.2,4.5,12.3c0.3,0.9,0,1.7-0.6,2.5c-3.9,5-7.4,10.1-9.4,16.3
		c-8.6,0.8-17,1.6-25.8,2.5c-0.4-4-3.3-5.2-6.7-5.6c1.7-2.6,4-4,6.4-5.4s4.6-3.1,6-5.5c0.4-0.8,1-1.4,1.9-1.8
		c5-2.3,9.2-5.8,13.1-9.5C883.8,329.4,887.5,328.5,891.2,326.7z"/>
	<path fill="#FFFFFF" d="M814.8,374.3c3.1-4.5,3.1-4.5,3-7.6c3.8-1,7.8-1,11.8-1.3c19.7-1.9,39.4-3.7,59.1-5.6
		c5.2-0.5,7.3,2.2,5.3,6.9C867.5,369.3,841.1,371.8,814.8,374.3z"/>
	<path fill="#FFFFFF" d="M916,364.5c1.2-2.4,2.6-4.5,1-7c3.1-1,6-0.9,8.8-1.2c14-1.4,28-2.7,42-4c2.4-0.2,4.5,0.1,5.6,2.5
		c1.1,2.5-0.8,4.8-4.4,5c-3.1,0.1-6.2,0.4-9.3,0.7c-14,1.4-28,2.7-42,4.1C917.3,364.5,916.9,364.5,916,364.5z"/>
	<path fill="#FFFFFF" d="M961.8,362.8c3.5-1.1,6.8-0.5,9.8-1.9c2.9-1.3,4.9-4.1,4.4-6.9c-0.5-2.7-3.5-4.5-6.8-4.2
		c-2.5,0.2-5.1,0.5-7.6,0.7c-0.2,0-0.4-0.1-0.7-0.3c0.5-3.2,1.9-5.8,4.3-8c3.3-3.1,7.6-3.1,11.2-0.3c7.3,5.7,8.3,19.7,1.8,26.4
		c-3.6,3.7-8.2,4-12.1,0.7C964.1,367.4,962.8,365.4,961.8,362.8z"/>
	<path fill="#FFFFFF" d="M794.5,313.2c-0.8-5.5-3.1-10-3.7-15.2c5.6,1.7,10.8,0,16.5-0.9C803,302.5,800.5,308.8,794.5,313.2z"/>
	<path fill="#FFFFFF" d="M1025.3,354.1c-0.7-2.4-0.7-4.6-0.7-7.1c4.7-0.5,9.4-1.1,14.1-1.4c1.7-0.1,2.9,1,3.2,2.8
		c0.3,1.8-1,4-2.8,4.3C1034.5,353.2,1029.9,353.6,1025.3,354.1z"/>
	<path fill="#FFFFFF" d="M836.1,360.2c-2.7,1.3-5.5,0.9-7.9,1.2c-0.5,0.9,0.4,1.1,0.2,1.7c-3.8,0.3-7.7,0.7-11.4,1
		c-1.3-0.8-1.6-2-2.4-3.5c4,1.2,7.6,1.9,11.3,0.8c-1.6-0.4-3.2-0.8-5.2-1.3C826,360.2,831,360.2,836.1,360.2z"/>
	<path fill="#FFFFFF" d="M845,359.3c0.1,1.1,0.8,0.8,1.4,0.7c2.2-0.3,4.3-1,6.4-1.8c1.8-0.7,3.2-0.5,3.7,2.2
		c-5.6,0.6-11,1.1-16.3,1.6C841.7,360.9,843.2,359.7,845,359.3L845,359.3z"/>
	<path fill="#FFFFFF" d="M981.2,367.4c4.1-9.3,3.7-17.6-2.3-25.3C985.9,346.7,987.3,360.1,981.2,367.4z"/>
	<path fill="#FFFFFF" d="M845.1,359.4c0.4-1.2,2.2-1.4,1.7-3.1c1.9,0,3.2-1.2,5.5-0.4C849.7,357.5,847.4,358.5,845.1,359.4
		L845.1,359.4z"/>
	<path fill="#FFFFFF" d="M881.6,225.7c1.3,0,1.8,0.7,2.3,1.6c-0.5,0.9-1.1,1.7-1.2,3C881.6,228.8,880.1,227.6,881.6,225.7z"/>
	<path fill="#FFFFFF" d="M881.5,199.9c1.2,0.2,2.3,0,3.3-0.2c0.8,0.6,1.4,1.2,1.5,2.1v-0.1c-1.4,0.4-2.7,1-4,2
		c-0.1-1.4,1.3-1.6,1.3-2.8C883.3,200,882.2,200.3,881.5,199.9L881.5,199.9z"/>
	<path fill="#FFFFFF" d="M887.4,226.2c-1.6-0.6-2.5-1.6-2.6-3.4C887.1,223,887.1,223,887.4,226.2z"/>
	<path fill="#FFFFFF" d="M893.7,204.2c0.3-1.9,1.8-2.5,3.4-4C896.5,202.5,895.1,203.4,893.7,204.2z"/>
	<path fill="#FFFFFF" d="M911.3,193.6c-0.5,1-1.5,1.6-2.4,2.2C909.2,193.7,909.2,193.7,911.3,193.6z"/>
	<path fill="#FFFFFF" d="M929.9,199c-0.5-0.8-0.5-1.5-0.4-2.1c0.6-0.5,1.2-0.5,1.8-0.2C931.3,197.6,930.9,198.2,929.9,199z"/>
	<path fill="#FFFFFF" d="M886.2,201.8c1,0,1.7-0.8,2.8-0.6c0.7,0.9-0.3,1.2-0.4,1.8C887.6,202.8,886.9,202.4,886.2,201.8
		L886.2,201.8z"/>
	<path fill="#FFFFFF" d="M885.1,213.4c0.8,1.3-0.5,2.2-0.5,3.2C884.5,215.6,883.9,214.5,885.1,213.4z"/>
	<path fill="#FFFFFF" d="M925.1,190.5c0.8,1.3,0,1.8-0.7,2.6C924.1,192,924.4,191.3,925.1,190.5z"/>
	<path fill="#FFFFFF" d="M815.7,359c-0.8,0.3-1.7,1.1-1.8-0.6C814.7,357.9,815.1,358.6,815.7,359z"/>
	<path fill="#FFFFFF" d="M890.1,214.9c-0.8,0.8-1.2,1.2-2,1.1C888.3,215,888.6,214.3,890.1,214.9z"/>
	<path fill="#FFFFFF" d="M896,194.6c-0.4,0.9-0.8,1.5-2,1.4C894.3,195,894.8,194.6,896,194.6z"/>
	<path fill="#FFFFFF" d="M915.9,202.9c-1.3,0-2-0.4-3-1.2C914.2,201.7,915,202.1,915.9,202.9z"/>
	<path fill="#FFFFFF" d="M897.5,209.6c1.3,1,0.4,1.4-0.3,2.1C896.9,210.8,896.7,210.2,897.5,209.6z"/>
	<path fill="#FFFFFF" d="M892.2,215.4c0.3,1-0.3,1.3-0.8,1.7C890.5,215.4,891.7,215.7,892.2,215.4z"/>
	<path fill="#FFFFFF" d="M924.3,222.7c0.8-0.3,1.4-0.6,2.1-0.1C925.8,223.4,925.2,223.1,924.3,222.7z"/>
	<path fill="#FFFFFF" d="M880.1,230.3c0.7,0,0.7,0.5,0.8,1c-0.4,0.4-0.8,0.3-1-0.1C879.7,230.9,879.7,230.6,880.1,230.3z"/>
	<path fill="#FFFFFF" d="M910.8,201.7c-0.5-0.3-0.8-0.4-1-0.6c-0.2-0.2-0.1-0.5,0.1-0.5C910.5,200.5,910.8,200.7,910.8,201.7z"/>
	<path fill="#FFFFFF" d="M878,229.6c0.2,0.3,0.2,0.6,0,0.9c-0.4-0.1-0.1,0.3-0.3,0C877.4,230,877.4,229.7,878,229.6z"/>
	<path fill="#FFFFFF" d="M187.1,482.4c1.4-0.2,2.5-0.4,3.6-0.5c1.2,1.5,1,3.2,1.3,4.8c3.4,15.8,10.5,29.6,22.8,40.3
		c3.8,3.3,8.6,4.8,13.8,4.5c2.3-0.1,4.7,0.2,7-1.8c-1.8,0.2-3.3,0.2-4.6,0.5c-6.4,1.3-11.6-1.5-15.9-5.5
		c-10.1-9.3-16.7-20.8-20.1-34.2c-0.7-2.8-1.5-5.5-1.7-8.9c9.5-1.1,19-2.2,29.3-3.4c-2.5,2.9-4.4,5.3-6.1,7.9
		c-1.7,2.6-2.1,5.9-4.6,7.9c-0.5,0.4-0.4,1.3-0.3,1.9c0.7,5.3,3.1,9.4,8.3,11.5c2.8,1.1,3.8,0.5,4.2-2.6c0.9-6.9,1.7-13.8,3.5-20.6
		c0.2-0.7,0.3-1.3,1.1-2.1c-0.6,5.8-0.1,11.1,0.7,16.4c0.1,0.7,0,1.5-0.1,2.3c-0.4,3.3,0.8,5.7,3.6,7.1c3.3,1.7,6.2,0.5,7.5-2.9
		c1.2-3.2,0.9-6.6,0.3-9.9c-0.9-4.8-2.7-9.3-5.8-13.3c2.5-1.2,4.2-3.1,5.5-5.3c2.9-4.6,2.1-10.6-1.9-14.2c-0.4-0.4-0.9-0.7-1.3-1
		c-4.5-3.7-9.5-2.7-12.3,2.4c-0.3,0.5-0.5,1-0.9,1.8c-10.4,1.2-20.9,2.4-31.6,3.6c-0.8-3.2-0.2-6.2,0-9.1c1.2-14.1,5.1-27.2,14-38.4
		c2.5-3.2,5.5-5.8,8.9-7.9c3.5-2.2,7.2-3.7,11.6-2.6c3.7,0.9,7.6,0.6,11.3,1.7c-1.3-2.1-3.5-1.8-5.2-2.3c-6-2-11.9-2.9-17.8,1
		c-9.5,6.2-15.6,14.9-19.6,25.3c-3.5,8.9-5.2,18.1-5.3,27.6c0,1.5,0,3.1,0,4.4c-1.2,1.3-2.5,0.8-3.9,1c-0.6-3.4-0.1-6.7,0.1-10
		c0.8-12.5,3.9-24.5,10.1-35.5c1.6-2.8,3.4-5.4,5.5-7.9c12.8-14.8,31.2-15.5,45.1-1.7c6.6,6.5,11.2,14.3,14.5,22.8
		c8.9,23.6,9.4,47.3,0.5,71.1c-2,5.4-4.9,10.4-8.4,15c-12.7,16.2-32.2,17.3-46.7,2.7c-4-4-7.3-8.6-10-13.6
		C191.9,503.2,188.8,493.2,187.1,482.4z"/>
	<path fill="#FFFFFF" d="M309.9,359.1c2.2,0.5,4.4,0.8,6.4,1.5c1.9,0.6,4,1.3,4.3,4.1c-2.1-0.6-4-1.2-6.3-0.7
		c1.6,1.4,3.6,1.4,5.4,2.2c0.4,2.4-0.6,4.5-0.8,7.2c-4.2,0.1-8.4,0.3-12.3,1.7c0,0.3,0,0.5,0,0.8c1.9,0,3.7,0,5.6,0c2,0,3.9,0,6.1,0
		c-0.1,3.2-0.5,6.2-1.1,9.1c-2.2,1.6-4.9,1.7-7.1,3.8c2.6,0.3,4.5-1.4,7-1.5c0.1,5.3,0.6,10.5,1.4,15.6c-1.5,2.3-3.7,3.5-6.1,5.1
		c2.9,1,4.4-1.2,6.3-1.9c1.9,7.4,4,14.7,5.7,22.1c1.1,5,1.6,10.1-1.4,14.7c-2.4,3.6-0.6,7.2-0.1,11.1c-3.4,0.1-6.8,1.7-10.4-0.1
		c1.9-2,3,0.2,4.4,0.2c1.2-0.1,0.4-1.1,0.8-1.7c1.2-0.6,3.1-0.2,4.4-2.5c-8.2,0.3-15.8,2.6-23.9,2.6c-0.7-7.1-3.1-14-5.4-20.8
		c-2.6-7.7-4-15.6-4.8-23.6c-0.8-7.5-3.4-14.6-6-21.7c-2.8-7.7-3.8-15.4-2.4-23.5c0.4-2.3,0.8-4.5,2.4-6.4c1.8-2.2,1.6-5,1.9-7.6
		s0.9-4.9,3-7.2c5.4,3.2,11.8,5,15.7,10.5c1.5,2.1,3.1,4,5,5.7c-1,1-2,0.4-3.1,0.2c-6.4-1.6-12.8-1.6-19.5-1.5
		c-1.6,4.4-2,8.8-1.6,13.7c8.5-2.2,16.9-2.7,25.3-2.4c-8.4-0.3-16.7,0-25.2,2.4c-0.8-4.8,0-9.1,1.3-13.6c6.7-0.4,13.1-0.1,19.5,1.3
		C306,358.5,307.9,358.9,309.9,359.1z"/>
	<path fill="#FFFFFF" d="M229.6,402.7c15.7-1.1,27.6,5.4,36.5,17.9c8.4,11.8,12.7,25.1,14.6,39.4c1.8,13.7,1,27.2-2.7,40.4
		c-2.4,8.5-6,16.4-11.6,23.3c-7.6,9.4-17.7,13.5-29.6,14c14.1-4.9,22.3-15.7,27.2-28.9c10.1-27.3,8.4-54.3-4.4-80.5
		c-2.5-5.2-6-9.8-10-14C244,408.6,237.5,404.5,229.6,402.7z"/>
	<path fill="#FFFFFF" d="M152.6,483.7c1.2-3,1.2-3.1-0.7-7.7c4.5-0.5,8.8-1.1,13.2-1.6c20.6-2.3,41.1-4.6,61.7-6.9
		c5.3-0.6,6.1,0.4,5.1,5.7c-1.9,1.3-4,1.9-6.3,2.2c-22.6,2.5-45.1,5.2-67.6,7.8C156.2,483.4,154.5,483.5,152.6,483.7z"/>
	<path fill="#FFFFFF" d="M321.8,351c-5.5-4.5-11.7-7.5-16-13.1c-2.7-3.4-3.9-7.1-3.9-11.3c0-2.2,0.9-3.5,2.7-4.5
		c2.6-1.4,4.8-3.2,6.8-5.6c1.8-2.1,4.4-3.5,6.2-5.8c1.5-1.9,2.9-3.9,4.3-5.9c0.7-1,1.3-2.1,3-2.1c-0.5,5-3.3,9.3-3.9,14.2
		c-0.6,4.7-0.1,9.7-2.2,13.8c3.1,5.6,2.9,11.7,4.2,17.4C323.1,349.1,323,349.1,321.8,351z"/>
	<path fill="#FFFFFF" d="M283.6,468.7c-0.2-2.5-0.4-4.8-0.6-7.6c13.5-1.5,27-3.1,40.2-4.6c2.4,1.9,2.4,4.6,3.1,7.2
		C312,465.5,297.9,467.1,283.6,468.7z"/>
	<path fill="#FFFFFF" d="M296.1,343.4c-2.9-1.3-5.8-2.7-8.6-4c-0.3-3,0.8-4.9,3.4-6.3c2.4-1.3,5.1-2.2,7-4.8c0.1,1,0.1,1.7,0.1,2.3
		l0.1-0.1c-1.2,0.1-1.5,0.8-1,1.8c2.4,4.7,4.4,9.5,9.9,11.7c2.1,0.8,3.6,2.9,5.6,3.7c0.4,0.9-0.7,0.8-0.6,1.9c2.4,2.4,5.3,4.9,8.4,7
		c0.4,1-0.4,1.4-0.4,2.2c-0.5-0.1-0.8-0.1-1.1-0.2c-1.2-0.3-2.3-0.9-3.5-1c-6-0.3-10.2-3.3-12.9-8.4c-0.5-1-1.1-1.9-1.7-2.8
		c0.4-1.1-0.6-1.4-1.1-1.7c-2.4-1.6-3.8-4-4.9-6.3C294.8,340.1,297.3,341.2,296.1,343.4z"/>
	<path fill="#FFFFFF" d="M221.1,504.4c-5.4-2-7-5.5-5.2-10.5c2-5.5,5.2-10.2,8.5-14.9c0.8-1.2,2-1.6,3.8-1.1
		C223.6,486.2,222.7,495.4,221.1,504.4z"/>
	<path fill="#FFFFFF" d="M229.9,477.5c4.2,6.9,8.2,13.8,7.6,22.1c-0.1,1.8-0.2,3.5-1.5,4.9c-1.6,0.1-2.3-0.5-2.5-2
		c-0.9-5.8-2.3-11.5-2.6-17.4C230.7,482.6,230,480.1,229.9,477.5z"/>
	<path fill="#FFFFFF" d="M233.8,480c-1-0.8-1.1-2-1.7-2.9c5.1-7.5,3.5-11.2-5-12.5c2.5-3.4,5.2-3.8,8.6-1.5c3.1,2.2,3.9,5.3,3.7,8.7
		C239,475.8,236.7,478.9,233.8,480z"/>
	<path d="M309.9,359.1c0.1,0.9-0.3,1-1.2,0.8c-7.2-2-14.6-2.5-22-2.7c-0.5,0-1.1,0.1-1.8,0.1c-1.1,4-1.8,8-1.4,12.2
		c10.1-2.2,20-3,30.1-0.7c-1.1,0.6-2.2,0.2-3.4,0.1c-8-0.6-15.9-0.7-23.7,1.4c-2.3,0.6-2.3,0.7-4,2.9c0.1-7.3-0.1-14,2.9-20.4
		c1,0.3,0.7,0.9,0.6,1.3s-0.5,0.8,0.1,1.4c7.1,0,14.4,0.2,21.4,2.4C308.2,358.3,309.1,358.7,309.9,359.1z"/>
	<path d="M296.1,343.4c-1.2-2.3-2.8-4.4-3.2-7.1c-0.3-2.1-0.3-2.3,1.9-4.1c0.2,6.1,2.5,11,7.8,13.9c-0.8,1-1.4,0.1-2,0.3
		C299.1,345.5,297.6,344.5,296.1,343.4z"/>
	<path fill="#FFFFFF" d="M147.6,483.4c-2.3-3-2.2-3.8,0.9-6.8c2,1.4,3,3,2.3,5.5C149.9,482.8,148.9,483.2,147.6,483.4z"/>
	<path fill="#FFFFFF" d="M319.1,352.8c1-0.3,1.7-0.5,2.4-0.8c0.9,0.9,0.2,1.8,0.3,2.8C320.6,354.5,320.1,353.7,319.1,352.8z"/>
	<path fill="#FFFFFF" d="M297.9,330.6c1.2,0,1.3,0.7,1.1,1.7C298.1,332,298,331.3,297.9,330.6L297.9,330.6z"/>
	<path fill="#FFFFFF" d="M470.4,437.5c0.4-15,3.6-28.5,13-40.1c1.8-2.3,3.9-4.2,6.2-5.9c11.9-8.7,26.6-8.2,38.3,1.6
		c10.5,8.8,16.2,20.3,19,33.4c3.8,17.8,2.1,35-7.4,50.9c-2.1,3.4-4.6,6.5-7.6,9.2c-12.6,10.9-29,10.7-41.6-0.6
		c-9.7-8.7-15-19.8-18-32.3c-0.2-1-0.4-1.9-0.6-2.9c0-0.2,0-0.4,0-1.1c7.5-1.3,15.1-1.8,22.7-2.8c1.4,2.6,2.6,4.9,4.6,6.8
		c5.9,5.3,15.1,4.1,19.3-2.7c4.4-7.1,3.7-17.9-1.7-24.3c-6.2-7.4-16.8-6.2-21.3,2.3c-0.9,1.8-1.5,3.7-2.3,5.9
		C485.8,435.7,478.4,436.6,470.4,437.5z"/>
	<path fill="#FFFFFF" d="M513.5,384c12.6,0.1,22.1,5.4,29.6,14.7c7.8,9.6,12.1,20.8,13.8,33c2.3,16.5-0.1,32.2-9.1,46.6
		c-4.4,7-10.3,12.1-18.5,14.3c-0.7,0.2-1.4,0.6-2.2,0.1c0-0.1,0-0.3,0.1-0.3c13.6-8.9,20.1-22.1,22.4-37.6
		c2.8-18.5-0.3-36-10.6-51.8C533,393.6,524.8,387,513.5,384z"/>
	<path fill="#FFFFFF" d="M449.2,449.3c1.4-2.1,2.1-4.3,1.6-7.1c4.2-0.5,8.3-1,12.3-1.4c12.9-1.5,25.7-2.9,38.6-4.4
		c1.4-0.2,2.9-0.4,4.2,0.4c1.2,0.7,2.1,1.6,2,3.1c-0.1,1.6-0.8,2.6-2.3,3.2c-2.1,0.8-4.4,0.5-6.6,0.8c-15.8,1.9-31.7,3.7-47.5,5.5
		C450.9,449.5,450.1,449.7,449.2,449.3z"/>
	<path fill="#FFFFFF" d="M495.2,434.6c0.7-4,2.2-7.1,5.2-9.2c3.4-2.4,7-2.2,10.4,0.6c6.9,5.6,8.2,18.9,2.4,25.7
		c-3.8,4.5-9.1,4.7-13.3,0.5c-1.5-1.5-2.7-3.1-3.4-5.4c3.4-0.8,6.7-0.7,9.8-2c4.6-1.9,5.5-7.2,1.7-10.3c-1.3-1-2.6-1-4.1-0.9
		C501.1,434,498.3,434.3,495.2,434.6z"/>
	<path fill="#FFFFFF" d="M559.5,436.7c-0.3-2.6-0.6-4.6-0.8-6.9c4.7-0.9,9.3-1.3,13.9-1.7c2.1-0.2,3.6,0.9,3.7,2.9
		c0.1,1.9-0.8,3.8-3.1,4.1C568.7,435.7,564.2,436.1,559.5,436.7z"/>
	<path fill="#FFFFFF" d="M515.4,428.3c5.2,4.3,5.5,18.3,0.6,22.6l0.1,0.1c0.8-3.1,2.1-6,2.2-9.2
		C518.5,436.9,517.2,432.6,515.4,428.3L515.4,428.3z"/>
	<path fill="#FFFFFF" d="M444.6,453.9c0.3-2,1.3-3.7,2.5-5.3C447,450.8,446.2,452.5,444.6,453.9z"/>
	<path fill="#FFFFFF" d="M515.4,428.3c-1.1-0.6-1.7-1.7-2.3-2.7C514.2,426.2,515.2,426.9,515.4,428.3L515.4,428.3z"/>
	<path fill="#FFFFFF" d="M516,450.9c0.1,0.8-0.5,1.1-1,1.5C515.1,451.7,515.2,451.1,516,450.9L516,450.9z"/>
	<path d="M701,322.8c1.7-0.5,2.6-0.2,3.6,1.1C703.2,323.9,702.3,323.7,701,322.8z"/>
	<path d="M702.8,439.5c0.5-0.5,1.1-0.4,1.8-0.4c-0.4,1-1,1-1.7,1.2C702.8,439.9,702.8,439.7,702.8,439.5z"/>
	<path d="M872,493.7c-0.5-4.2-0.5-8.1-0.1-12c0.2-1.8-0.1-3.1-0.9-4.7c-1.1-2-2.2-4.2-2.6-6.8C874.4,472.6,876.6,487.3,872,493.7z"
		/>
	<path d="M884.3,471.5c-1.4-3.9-4.9-6.6-6.1-11.2c2.5,1.7,3.3,3.8,4.4,5.7C883.6,467.7,885.6,469.3,884.3,471.5z"/>
	<path d="M877.9,456.2c-2.1-2.5-0.3-4.4,0.2-6.6C880.5,452.7,880.5,454.5,877.9,456.2z"/>
	<path d="M870.3,501.2c-0.2-2.1,0.2-4,1.7-6.1C873.3,498.2,871.3,499.6,870.3,501.2z"/>
	<path d="M867.3,553.1c1.4,1.5,1.5,3.1,0.1,4.7C865.4,556.2,867.4,554.6,867.3,553.1z"/>
	<path d="M865.2,468.4c-1.8-0.3-2.8-1.4-3.7-3.5C863.5,465.8,864.5,466.9,865.2,468.4z"/>
	<path d="M870.4,502.9c-0.6,2.1-1.5,3.1-2.4,4.2C867.8,505.1,867.8,505.1,870.4,502.9z"/>
	<path d="M855.4,459.6c1.7-0.6,2.4,0,3.1,1.3C856.9,461.6,856.3,460.7,855.4,459.6z"/>
	<path d="M868,537.5c0.6,1.3,0.7,2.6,0,4.3C867.2,540.1,867.3,538.8,868,537.5z"/>
	<path d="M875.5,553.9c-0.9-1.1-0.5-2.2-0.3-3.3C875.7,551.6,876.1,552.7,875.5,553.9z"/>
	<path d="M875.2,545.6c0.7,1.1,0.4,1.7-0.7,2.3C874.1,546.9,874,546,875.2,545.6z"/>
	<path d="M882.1,458.8c-0.9-0.1-1.3-0.6-1.3-1.4c0.7-0.6,1.1-0.1,1.4,0.3C882.5,458,882.5,458.5,882.1,458.8z"/>
	<path d="M863.7,511.1c0.1-1.6,0.5-2.1,1.6-2C865.3,510,864.5,510.2,863.7,511.1z"/>
	<path d="M867.9,545.2c0.8,0.9,0.7,1.7,0.2,2.7C867,547.1,867.4,546.2,867.9,545.2z"/>
	<path d="M896.4,594.4c8.2-4.4,13.2-7.9,17.1-4.5c-0.2,0.1-0.4,0.4-0.5,0.4c-4.9-1.6-8.5,1.5-12.6,3.2
		C899.2,594.1,898,595.1,896.4,594.4z"/>
	<path d="M820.8,594.1c-2.1,0-4.2,0.8-5.3-1.7c-0.6-1.4,0-2.4,1-3.2s2.3-1,3.4-0.2C822,590.3,821.2,592.2,820.8,594.1z"/>
	<path d="M814.8,591.3c-0.1,1.9-1.1,2.9-2.9,2.8c-1.7,0-2.8-0.8-2.9-2.5c-0.1-1.9,1-2.9,2.8-3C813.5,588.6,814.6,589.5,814.8,591.3z
		"/>
	<path d="M808.1,589.2c0.2,1.7-1.3,2.7-0.5,4.1c-1.4,0.3-1.4-1.3-2.3-1.2c-0.8-0.1-0.5,1.2-1.6,1.2c-0.4-1.6,0-3.3,0.1-5.1
		C805.4,587.8,807,587.4,808.1,589.2z"/>
	<path d="M348.7,392.2c8.3-1,16.7-2.1,25-3.1c-8,3.3-16.5,3.4-24.8,4.3C348.8,393,348.7,392.6,348.7,392.2z"/>
	<path d="M347.7,396.1c9.9,0.8,19.9,1.5,29.8,3.3c0,0.3-0.1,0.5-0.1,0.8c-9.9-1-19.9-2.1-29.8-3.1
		C347.6,396.7,347.7,396.4,347.7,396.1z"/>
	<path d="M357.7,375.3c3.5-4.7,11.2-8.1,14.3-6.1C366.7,370.6,363,374.7,357.7,375.3z"/>
	<path d="M371.7,343.8c1.9,1.1,1.5,2.1,0.9,3.1c-1.4,2.4-6.4,5.5-9.5,5.7C364.9,348.3,369.4,347.2,371.7,343.8z"/>
	<path d="M376.3,342.2c1.8-2.3,3.9-4.5,5.9-6.7C381.4,338.8,379.3,340.9,376.3,342.2z"/>
	<path d="M385.4,326.2c-2.3,2.1-3.3,2.2-5.6,0.4C381.5,325.7,381.8,325.7,385.4,326.2z"/>
	<path d="M400.6,326.1c2.3,0.1,3.3,1.2,4.7,2.1C402.9,328.5,402.9,328.5,400.6,326.1z"/>
	<path d="M409.7,328.9c-0.8,1-1.4,1-2,0.1C408.3,328.1,409,328.8,409.7,328.9z"/>
	<path d="M389.5,325.2c-0.7,1.6-1.4,1.7-2.4,1.3C387.4,325.3,388.3,325.5,389.5,325.2z"/>
	<path d="M393,322.9c0,1.3-0.5,1.5-1.6,1.3C391.4,323.1,392.1,323.1,393,322.9z"/>
	<path d="M389,493.7c0-3.3-0.5-6-0.1-8.8c0.5-3.5,0.3-6.9-1.8-10.1c-0.8-1.2-1.8-2.8-1.2-4.6C390.2,472.5,394.3,487.1,389,493.7z"/>
	<path d="M395.7,460.8c3.8,3.4,6.4,8.6,5.5,11.3C400.1,467.7,396.6,464.9,395.7,460.8z"/>
	<path d="M389.3,495.3c1,2.8-0.9,4.2-1.7,6.2C387,498.6,387.2,497.8,389.3,495.3z"/>
	<path d="M384.3,552.3c1.3,2.2,1.5,3.7-0.2,5.5C383.1,555.9,383.8,554.4,384.3,552.3z"/>
	<path d="M378.7,465c1.7,0.6,2.8,1.8,3.6,3.2C380.3,468.1,379.4,466.6,378.7,465z"/>
	<path d="M384.4,507.3c0.2-2.2,0.9-3.3,2.7-4.4C386.8,504.9,385.9,505.9,384.4,507.3z"/>
	<path d="M385.1,536.5c0.9,2.1,0.7,3.4-0.1,4.6C384.2,539.8,384.2,538.5,385.1,536.5z"/>
	<path d="M384.9,544.6c0.9,1.4,1,2.3,0.1,3.6C384.2,547,384.3,546,384.9,544.6z"/>
	<path d="M392.4,554.2c-0.9-1.5-0.5-2.5-0.4-3.9C392.9,551.5,393.5,552.5,392.4,554.2z"/>
	<path d="M392.1,545.4c0.8,0.8,0.4,1.5-0.2,2.6C390.9,546.9,391.3,546.2,392.1,545.4z"/>
	<path d="M382.1,508.9c0,0.9-0.3,1.5-1.2,1.4C380.5,509.2,381.6,509.3,382.1,508.9z"/>
	<path d="M337.6,593.9c-2,0-4.1,0.8-5.3-1.6c-0.6-1.2-0.1-2.2,0.7-3c1-1,2.4-1.2,3.6-0.5C338.6,590,338.1,591.8,337.6,593.9z"/>
	<path d="M328.6,594.1c-1.8-0.1-3-1-2.9-2.9s1.3-2.8,3.1-2.7c1.6,0.1,2.7,1,2.7,2.7C331.5,593.1,330.4,594,328.6,594.1z"/>
	<path d="M320.5,588c3.9-0.4,3.9-0.4,3.6,5.1c-1.1,0.3-1.1-1.2-2-1.2c-0.9-0.2-0.6,1.5-2,1C320.3,591.3,320.4,589.6,320.5,588z"/>
	<path d="M904.3,358c-0.9-1.8-1.1-3.5-1.5-5.2C904.5,353.3,905,355.1,904.3,358z"/>
	<path d="M902.3,364.9c0.7-0.6,1.4-1.3,2.4-0.4c0.2,0.8-0.3,1-0.8,1.2C903.2,365.9,902.7,365.6,902.3,364.9z"/>
	<path d="M905.2,362.1c-1.1-0.9-1-1.6-0.6-2.5C905.8,360.2,906,360.9,905.2,362.1z"/>
	<path d="M909.4,355.1c0.7,0.5,0.7,0.9,0.2,1.3C908.8,356.2,909,355.7,909.4,355.1z"/>
	<path d="M909,360.4c-0.2-0.6-0.5-1.2,0.1-1.8c0.8,0.4,0.9,1,0.5,1.8C909.3,360.4,909.2,360.4,909,360.4z"/>
	<path d="M908.1,365.1c-0.2,0.1-0.4-0.2-0.5-0.5c-0.2-0.5,0.2-0.5,0.5-0.6c0.4-0.1,0.6,0.1,0.7,0.5
		C908.9,364.8,908.6,365,908.1,365.1z"/>
	<path d="M238.6,529.1c0.4-1.5,1.5-0.9,2.1-1.3C240.5,529,239.6,528.9,238.6,529.1z"/>
	<path d="M315,446.1c-2.8-0.6-4-2-5.3-3.3c-7.5-7-13.6-15.1-18.8-23.9c-0.4-0.6-0.6-1.4-0.8-2.2c-0.8-5.5-1.6-11-0.4-16.5
		c0.4-1.7,0-3.3-0.4-4.9c-1.3-5.9-2.2-12-5.7-17.2c1.9,0.6,2.2,0.9,3.2,3.4c2.7,7.4,5,14.8,4,22.9c-1.1,9.5,1.8,17.7,8.4,24.9
		C304.2,434.8,309.1,440.4,315,446.1z"/>
	<path d="M300.9,426.7c6.5,5.8,14.8,8.6,21.6,13.9C314.4,437.2,306.7,433.4,300.9,426.7z"/>
	<path d="M282.3,374.6c5.6-1.7,9.3,1.3,13.8,3C293.6,378.7,285.2,376.9,282.3,374.6z"/>
	<path d="M292.4,424.2c2.4,7.7,8,14.2,8.4,22.6C298.6,439.1,293.5,432.4,292.4,424.2z"/>
	<path d="M318.7,332.8c1.1,2.4-1,6.6-4,9.2c-0.8-1.3-0.7-1.2,1.1-4.5C316.7,335.9,318.3,334.7,318.7,332.8z"/>
	<path fill="#FFFFFF" d="M819.9,591.2c-0.7,0.5-1.4,1-2.1,1.5c-1.2-0.6-1.3-1.5-0.5-2.3C818.3,589.5,819.2,589.8,819.9,591.2z"/>
	<path fill="#FFFFFF" d="M811.7,593c-0.9-0.1-1.4-0.7-1.3-1.5c0-0.9,0.5-1.4,1.4-1.4c1.1,0,1.6,0.6,1.5,1.7
		C813.3,592.5,812.6,592.9,811.7,593z"/>
	<path fill="#FFFFFF" d="M804.9,590.1c0.6-1.4,1.3-1,2.2-0.5C806.4,590.7,805.7,590.6,804.9,590.1z"/>
	<path fill="#FFFFFF" d="M336.5,591c-0.5,0.9-1.7,0.7-1.9,1.7c-1.4-0.8-1.5-1.8-0.6-2.5C335,589.4,336,589.6,336.5,591z"/>
	<path fill="#FFFFFF" d="M330.1,591.3c-0.1,0.9-0.6,1.5-1.4,1.5c-1,0-1.6-0.6-1.6-1.6c0.1-0.9,0.6-1.4,1.5-1.3
		C329.5,589.9,330,590.4,330.1,591.3z"/>
	<path fill="#FFFFFF" d="M323.9,589.8c-0.9,0.7-1.5,0.7-2.2,0.2C322.1,588.4,322.9,588.9,323.9,589.8z"/>
</g>
</svg>
