<?xml version="1.0" encoding="utf-8"?>
<!-- Generator: Adobe Illustrator 19.1.0, SVG Export Plug-In . SVG Version: 6.00 Build 0)  -->
<svg version="1.2" baseProfile="tiny" id="Layer_2" xmlns="http://www.w3.org/2000/svg" xmlns:xlink="http://www.w3.org/1999/xlink"
	 x="0px" y="0px" width="900px" height="600px" viewBox="144 97 900 600" xml:space="preserve">
<g>
	<path d="M736.5,580.8c-0.1-0.6-0.2-1.2-0.2-1.7c-0.9-0.8-1.8-1.2-2.9-1.5c-6.1-1.5-11.9-3.8-17.9-5.5c-7.3-2.1-14.9-2.9-22.5-3.7
		c-2.7-0.3-5.3-0.9-8-1.6c-2.9-0.8-5.8-1.6-8.8-1.7c-4.5-0.2-8.3-2.5-11.8-5.3c-2.2-1.8-4.3-3.9-6.5-6.3c-0.6,7.1,0.5,13.8-1.4,20.8
		c5.5,4.5,10.2,10.1,15.4,15.7c-7.9,10.8-14.4,22.3-24.2,31.4c-0.2,0.8,0.5,1.6,0.7,2.5c0.1,0.6,0.4,1.2,0.6,1.8
		c0.9,2.2,1.1,4.4,1.3,6.7s-0.8,4.7,0.3,7.1c0.9,2.1,0.9,4.5,0.6,6.8c-0.5,4.4-2.5,8.2-4.6,11.8c-1.4,2.4-3,4.8-5,6.8
		c-0.8,0.8-1.6,1.7-2.2,2.6c-3.9,5.9-9.6,9.4-16.3,11.5c-4.8,1.5-9.8,2.1-14.7,2.7c-0.3,0-0.6,0-0.8-0.4c2.2-0.8,4.6-1,7.2-2.8
		c-2.9,0.7-5.1,1.2-7.4,1.7c-0.4,0.1-0.9,0.3-1,0.6c-1,2-2.8,1.9-4.6,2c-5.3,0.3-10.6,0.7-15.8,1.7c-1.5,0.3-3,0.8-4.5-0.5
		c1.4-2.4,4-2.5,6.3-3.9c-2.3-1.1-4.4-2.3-6-4.9c3.3,1.6,5.9,3,8.6,4.3c4.6-0.4,9.2-0.7,13.9-1.3c5.3-0.6,10.3-2.5,15.5-3.6
		c8.4-1.9,14.9-6.5,19.6-13.8c1.7-2.7,3.6-5.4,5.3-8.1c2.9-4.8,3.7-10,2.9-15.4c-1-7.3-3.2-14.2-6.5-20.8c-1.1-2.3-1.5-4.8-2-7.2
		c-2.3-10.3-3-20.8-4.4-31.2c-0.1-0.9-0.2-1.9-0.4-2.8c-0.2-1.5-1.1-2.5-2.4-3.1c-2-0.8-4.1-1.6-6.3-1c-0.5,0.1-1,0.2-1.5,0.2
		c-7.9-1.1-16-1.2-23.8-3.2c-2.8-0.7-5.7-1.4-8.3-2.7c-1-0.5-2-0.7-3-0.8c-4.4-0.8-8.8-1.7-13-3.2c-8-2.8-16.3-4.4-24.4-6.7
		c-3.4-1-6.6-2.2-9.7-3.7c-0.5,0.5-0.4,1-0.2,1.3c1.9,3.1,2.5,6.6,3.2,10.1c1.5,6.7,4.2,13.1,6.3,19.6c1.8,5.5,3.7,11.1,5.9,16.5
		c1.9,4.7,4.7,9,6.5,13.8c2.4,6.5,6.2,12.2,10,17.9c1.4,2.1,1.8,4.4,2.2,6.8c0.6,3.4,1.1,6.7,2.3,10c-1,0.4-0.9-0.4-1-0.7
		c-1.4-4.2-2.2-8.6-4.2-12.4c-1.9-3.8-4.8-7-6.9-10.8c-1.9-3.5-3.5-7.1-5-10.8c-0.2-0.5-0.2-1.1-0.8-1.3l0.1,0.1
		c-0.1-2-0.8-3.8-1.9-5.5c-1.2-1.8-2.2-3.8-3.4-5.7c-1.5-0.6-3.1-0.1-4.6-0.4c-0.9-0.1-0.8-1.2-1.6-1.5c-2.5,1.1-5.1,0.9-7.5,0
		c-6.9-2.6-14.1-3.5-21.2-5c-1.8-0.4-3.6-0.7-5.4-1.1c-2.7-0.6-5.1-1.9-7.2-4c-4.1-4.3-7.6-9.1-12.2-13c-4.4-3.7-8.8-7.3-14.8-8.5
		c-2.8,0.4-5.6,1.5-8.3,2.7c-3.3,1.5-6.7,2.7-10.5,2.6c0.8,3.5,3.8,5.1,5.9,7.4c0.4,1.2-1.1,1.7-1,2.9c4-0.3,7.1,2,10.2,4
		c1.1,0.7,1.9,1.7,2.1,3c0.4,2.2,1.6,4,1.9,6.3c2.9,1.3,5.7,2.3,8.6,3.1c2.5,0.7,5,1.6,6.6,4.3c-5.3-1-10.2-2.4-15-3.7
		c-0.3,0.3-0.4,0.4-0.5,0.5c-1.7,5.6-5.4,9.5-10.6,12.1c-0.7,0.4-1.4,0.9-2,1.4c-1.1,0.9-2.5,1.7-3.9,1.7
		c-5.9,0.4-11.7,1.8-17.5,3.1c-2.9,0.7-5.9,1.3-8.8,1.9c-3.8,0.8-7.4,1.9-10.8,4.1c1.2,0.6,2.2-0.1,3.1-0.5
		c7.2-2.7,14.4-2.3,21.4,0.2c3.2,1.2,6.2,2.9,9,4.8c5.8,3.8,11.1,8.1,15.3,13.7c0.3,0.4,0.6,0.8,1,1.3c3.7-0.6,7.5-1.2,11.8-1.9
		c-2.5,2.8-5.2,4.3-9,5.1c1.1,0.4,1.5,0.6,2,0.8c0.3,0.7-0.5,0.8-0.6,1.5c0.5,0.8,1.1,1.8,1.8,2.8c-0.1,0.9-0.3,1.8,0.1,2.9
		c0.9,1.9,1.2,4,1.2,6.1c0,4.3,0.1,8.5,0,12.8c0,4-1.7,7.5-3.8,10.7c-0.3,0.4-0.8,0.7-0.6,1.5c3.6,0.6,7.3,0.3,11,0.5
		c4.8,0.3,9.6-0.1,14.4-0.2c4.3-0.1,8.5-1,12.5-2.4c8.6-3,17.6-4.1,26.6-5.2c4.1-0.5,8.3-0.1,12.4-0.4c2.2-0.2,4.3-0.8,6.5-0.8
		c2.1,0,4.2-0.3,6.2,0.5c0.4,0.2,0.8,0,1-0.5l-0.1,0.1c2.6,0.5,5,1.5,7.3,2.7c1.3,0.7,2.5,1.5,2.6,3.1c-0.5,1.1-1.3,1-2.1,0.5
		c-2.4-1.2-4.8-2.4-7.4-3.7c-1.9,1.4-4,1.8-6.4,1.9c-2.4,0.1-4.8,0.4-7.2,0.5c-0.9,0.1-1.9,0.2-2.7-0.5c-1.1-1-2.4-0.8-3.6-0.7
		c-6.5,0.9-13.1,1.3-19.4,2.9c-6.4,1.7-12.8,2.5-19.2,4.1c-2.8,0.7-5.7,1-8.7,1c-2.8,0-5.6,0.4-8.4,0.4c-6,0-12.1-0.3-18-1.7
		c-0.3-0.1-0.6-0.2-0.9-0.1c-3.5,0.7-7.1,0.2-10.6,0.8c-6.2,1.1-12.2,0.3-18.3-1.1c-2.7-0.6-5.5-1.4-8.5-2.1
		c-3.7,2.9-8.2,3.7-13,3.8c-0.6,0-1.2,0.2-1.8,0.4c-6,1.7-12.2,2.7-18.3,4.2c-6.2,1.6-12.4,1.4-18.6,0.2c-4.6-0.9-8.9-2.7-13.6-3.5
		c-0.8-0.2-1.2,0.8-2.6,0.5c-0.2-0.1-1-0.3-1.7-0.6c-2-0.9-3.9-1.7-6.1-2.2c-3.5-0.8-6.2-3.3-9.1-5.3c-0.8-0.6-0.4-1.5-0.7-2.3
		c-0.2-0.2-0.3-0.3-0.5-0.4c-4.8-2.7-5.8-7.4-6.2-12.2c-0.5-5-0.5-9.9-1.5-14.9c-1.1-5-0.7-10.2,0.1-15.2c0.5-3,2-5.9,3-8.8
		c2.3-6.9,5.1-13.7,6.9-20.7c0.4-1.6,1-3.2,1-4.9s0.7-3,1.7-4.3c4.8-5.8,8.5-12.3,11.9-19c1.8-3.5,3.6-7.1,5.8-10.3
		c1.7-2.4,1.4-5.2,1.7-7.8c0.3-3.3,1.2-6.3,3.1-9c0.2-0.2,0.2-0.6,0.4-1c-2.6-1.2-5.7,0.1-8.1-1.5c1.1-2.3,1.1-2.3,5.1-2.7
		c-0.1-1.1-1.5-1.4-1.6-2.5c1.6-0.4,1.6-0.4,4.3,0.5c0.3-2.1-1.8-4.2,0.3-6.2c1.1-0.4,2.4,0.5,3.3-0.6c1.7,1.1,1.4,2.9,2.3,4.4
		c1.4-1.7,2.8-3.2,4-5c0.8-1.2,1.9-2,3.1-2.5c1.6-0.7,3.3-1.2,5.1-1.4c4.2-0.5,8.4-1.4,12.7-3.2c0.4-0.9,1.5-1.4,2.6-2
		c4.7-2.7,9.8-4.6,14.4-7.5c0.9-0.5,1.9-0.8,2.9-1c6.7-1.2,13-3.7,19.3-6.1c9.8-3.7,19.3-8.3,29.4-11.2c4.1-1.2,8.4-1.2,12.7-1.6
		c6.5-0.5,12.9-0.3,19.3,0.5c1.7,0.2,3.3,0,4.8-0.9c1.2,0.2,2.2,0.5,3,1.6c0.9,1.4,2.5,2.2,3.9,3.1c2.1,1.4,3.4,3.4,3.9,5.8
		c0.5,2.3,1,4.7,0.8,7.1c-0.2,2.5-0.1,5,0.6,7.1c-1.4,6.3-4.4,11.5-8.4,16.1c-0.1,0.2-0.2,0.3-0.3,0.5c-3.6,8.1-10.8,12.8-17.5,17.9
		c-1.3,1-2.9,1.7-4.4,2.2c-2.7,1-5.4,2.1-8.5,3.3c-0.7-0.2-1.3-1.8-2.8-0.6c1.1,1.3,2.9,1.2,4.2,2.2c1.3,1,2.7,1.9,4.4,3
		c0.5,0.5-0.1,1.7,1,2.4c4.1,2.8,7.4,6.5,10.2,10.4c2.9,4.1,7.1,5.3,11.4,6.4c3.4,0.9,7,1.3,10.4,1.9c4.3,0.8,8.6,1.5,12.7,3.1
		c2.1,0.9,4.4,1.2,6.7,0.4c1.8-0.7,3.3,0.5,4.8,1c0.5-0.5,0.3-0.8,0.1-1c-4.2-8.2-6.6-17.1-9.4-25.8c-0.2-0.7-0.4-1.4-0.5-2.1
		c-0.6-5.8-2.6-11.1-4.5-16.5c-2.5-7.2-4.5-14.5-6-22c-0.9-4.4-0.5-8.7,0.3-13.1c0.9-5,2.1-10,3.1-14.7c0.9-1.3,2.1-2,3.2-2.7
		c3.4-2.3,6.2-5.3,9.1-8.1c3.2-3.2,7.1-5.2,11.3-6.3c5-1.4,9.6-3.5,14.3-5.5c5.8-2.6,11.4-5.6,17-8.6c7.6-4.1,15.6-7.4,23.9-10
		c5.6-1.8,11.2-3.8,16.1-7.4c2.6-2,5.6-3.7,8.4-5.3c3.8-2.2,7.3-4.8,10.3-8.1c2.6-2.9,5.9-5.3,8.2-8.2c0.1-1.2-0.6-1.5-1.3-1.8
		c-0.7,0-1.3,0.7-2.1,0.4c-1.8-1.3-0.9-5.6,2.7-12.1c-0.8-3.1-0.6-6.3-0.6-9.5c0.1-4.7-0.6-9.3-2.3-13.8c-1.9-5-3.6-10-5.5-15
		c-0.5-1.2-0.8-2.5-0.3-3.7c0.6-1.3,0.1-2.4-0.1-3.5c6.3-7.1,15.1-10.1,23.7-7.9c0.2,0.4,0,0.8-0.4,1.2c4.6,1.6,8.5,4.1,12,7.3
		c0.6,0.5,1.4,0.9,1.3,2c-0.1,0.8,0.8,1.2,1.4,1.6c6.2,4.1,10.5,10.1,15,15.8c1.4,1.8,1.7,4,2.1,6.2c0.5,3.4,1,6.8,1.3,10.2
		c0.1,1.5,0.6,2.8,1.6,4c1.6,1.8,2.9,3.8,4.6,5.5c2.1,2.1,3.2,4.9,4.2,7.6c2,5.5,3.1,11.3,2.9,17.2c-0.1,2.1-0.5,4.1-1.3,6.2
		c-2.6,0.9-5.1,2-7.2,4c-1.4,1.4-3.7,1.6-5.9,1.1c-5.4-1.2-10.7-1.9-16.3-1.2c-1.1,0.1-2.3-0.1-3.4-0.4c-1.3-0.3-2.7-0.4-4.3-0.3
		c-4.2,4-9.2,7.5-13.1,12.1c-5.2,6.2-10.7,12.2-16.5,17.9c-1.9,1.8-3.2,4.1-4.8,6.4c3.6,0.3,7.4-0.3,9.9,2.8c1.4,0.4,2.6,0.9,4,1.2
		c2.6,0.7,4.7,1.9,6.7,3.7c2.7,2.4,5.7,4.5,8.1,7.3c1.1,1.4,3.1,2,4.8,2.9c8,4.1,14.9,9.5,21.4,15.5c4.5,4.2,9.9,7.3,15.4,10.1
		c3.4,1.8,6.8,3.6,10,5.8c2.4,1.6,4.6,3.5,7.1,5c4.1,2.5,8.5,3.9,13.2,4.6c0.4-0.5,0.7-1,1-1.4c2.9-0.8,5.7,0.1,8.5,0.3
		c5.4,0.4,10.6-0.7,15.7-2.2c3.2-0.9,6.3-2.2,9.3-3.5c3.5-1.5,6.4-3.9,8.6-7.1c2.9-4.3,6.2-8.1,10.5-11c1.5-1,2.2-2.8,4.3-3.2
		c2.6,1.5,5.5,2.6,7.8,4.9c1.9,1.9,3,4,2.5,6.7c-0.2,1.1-0.2,2.1,0.1,3.1c1.5,5.8-0.2,11.1-2.4,16.4c-1.6,3.8-3.6,7.5-6.6,10.5
		c-0.7,0.7-1.3,1.6-1.8,2.5c-1.7,3.9-4.3,7.1-7.4,10c-1.9,1.7-3.1,3.7-3.8,6.3c-1.6,6.1-4,11.8-6.8,17.4c-0.8,1.6-2.1,2.8-3.5,4
		c-1.9,1.6-3.8,3.2-5.8,4.8c-4-0.2-6,3.4-9.3,5.1c-2.7,0-4.7-1.4-6.3-3.8c-2.1-3.2-4.9-5.9-6.9-9.2c-2.2-3.4-5.7-5.4-9.1-7.4
		c-2.7-1.6-5.2-3.5-7.3-5.8c-0.9-1-1.7-2.1-1.9-3.3C735.3,580.5,736,580.7,736.5,580.8c0.5,1.3,1.7,2,2.7,2.9
		c3.2,3,7.4,4.7,10.9,7.2c3.2,2.3,5.7,5.2,7.6,8.6c0.7,1.2,1.5,2.2,2.3,3.3c1.6,2.1,3.9,3.4,5.4,5.5c0.7-0.5,1.4-1.1,2.1-1.3
		c5.2-1.7,9-5.5,13.1-8.8c0.9-0.7,1.5-1.7,1.9-2.8c2.3-5.2,4.3-10.6,6.3-16c1.3-3.5,2.2-6.9,5.3-9.5c2-1.7,3.5-4.4,4.6-7
		c0.8-2,2-3.7,3.4-5.2c2.4-2.5,4.2-5.5,5.6-8.6c1.3-2.6,2.3-5.4,3.6-8c0.7-1.5,0.9-3,0.7-4.5c-0.3-2-0.5-4.1-1.2-6.2
		c-2.6-2.1-4.4-5.1-7.3-7.1c-2.6,2.1-5.1,4.1-7.5,6.2c-0.8,0.7-1.9,1.3-1.9,2.4c0,1.7-1.2,2.5-2.2,3.5c-1.2,1.1-2.4,2.3-3.5,3.5
		c-0.1,0.1-0.2,0.3-0.2,0.5c0.2,0.7,1.3-0.2,1.5,0.9c-1.2,1.7-3.8,0.8-5.1,2.5c-0.4,0.4,0.4,1-0.3,1.6c-0.9,0.8-2.1,1.2-3.5,0.4
		c-1.3-0.7-2.3-0.3-3.3,0.5c0.5,1.2,1.6,1.8,1.8,3c-0.3,0.8-0.9,1.2-1.7,1.2c-2.1,0-2.9-2-4.5-3.3c-0.9,2.2,3,3.6,0.6,5.7
		c-2.4,0-3.2-2.3-4.9-3.5c0.4,1.5,1.1,2.8,1.7,4.1c0.6,1.2,1.9,2.4,0.1,3.8c-3.4-1.3-3.6-5.3-6.4-7.3c-1.9,0.3-3.9,0.8-6,0.9
		c-2.1,0.2-4-0.9-5.8-1.2c-0.8,0.4-1.2,0.9-1.2,1.6c0.3,1.1,1.2,1.9,1.9,2.8c1.4,1.8,2.8,3.6,4.2,5.4c0.6,0.7,1.4,1.6,1.1,2.5
		c-0.4,1.2,0,2.1,0.5,2.9c0.9,1.6,0.6,3.2-0.1,4.8c-1.5,3.6-3.7,6.7-5.9,9.9c-1.7,2.3-3.9,3.4-6.7,3.3c-1.5,0-3.1-0.1-4.5,0.8
		C739.9,581.5,738.4,580.5,736.5,580.8z M628.3,567c0.9,1.2,2.1,1.8,3.5,2.2c1.9-4.5,1.9-4.5,3.1-5.3c-0.4,2.1-1.6,4-1.5,6.2
		c1.1,0.8,2.3,1.3,2.8,2.6c1.8,4.7,2.9,9.5,2,14.6c-0.2,1.1-0.3,2.3-0.1,3.4c0.6,4.7,1.2,9.3,1.8,13.9c0.2,1.2,0.7,2.2,1.3,3.2
		c1.6,2.9,3.5,5.7,4.8,8.8c0.4,0.9,0.4,2.1,1.3,2.6c3.6-5,6-10.7,9.7-15.7c3.6-4.8,7.5-9.4,12.1-13.9c-0.4-0.3-0.9-0.6-1.3-0.9
		c-6.9-6.7-14.2-12.9-21.4-19.2c-7.8-6.8-15.3-13.8-21.3-22.2c-0.7-1-1.6-1.9-2.4-2.9c-4.5-4.8-8.8-9.7-12.8-15
		c-0.4-0.5-0.5-1.4-1.7-1.3c-1.6,3.6-3.6,7.1-4.9,11.1c7.8,8.9,15.4,17.9,20.8,28.3c1.1,0.5,2.2,0.4,3.2,0.5
		C627.9,568.1,628.2,567.6,628.3,567L628.3,567z M421,622.1c2.9-0.6,5.7-1.1,8.1-3c0.7-0.5,1.5-0.6,2.4-0.8c3.4-0.7,6.7-1.5,10-2.3
		c3.4-0.9,6.8-2,10.4-2c7.5-0.1,14-2.7,19.8-7.4c2.8-2.2,4.6-5,5.1-8.9c-1.2,0.3-1.9-1-3.3-0.3c-0.1,0.2-0.5,0.5-0.6,0.8
		c-0.9,3-3.2,5.1-5,7.5c-0.8,1.1-2,1.5-3.2,1.9c-4.6,1.3-9.3,2.2-14.1,2.7c-6.2,0.6-12.5,0.9-18.1,4.1c-0.1,0-0.2-0.1-0.3-0.1
		c0.5-1.5,2.4-1.5,3.2-3c-7,1.1-11.3-3.3-12.8-7.5c0.3-0.3,0.7-0.7,1.1-0.4c3.4,2.2,6.8,4.3,9.5,7.4c2.6-1.1,5.1-1.6,7.7-1.8
		c5.8-0.5,11.6-1,17.4-1.6c4.6-0.5,8.4-2.4,11.1-6.6c2.3-3.5,2.3-6.7,0.2-10.2c-1.2,3.7-3.9,6-7.8,6.6c0.9-1.6,2.2-2.7,3.5-3.9
		c1.1-1,2.1-2.1,2.8-3.3c0.5-0.8,0.4-1.5-0.5-2c-0.5,1-0.9,2-1.6,2.8c-2.2,2.6-5.3,4.4-7.6,7c-0.9,1-1.6,0.7-2.9-1
		c4.6-2.6,9.1-5.3,11-10.6c-0.2-1-0.7-1.7-1.3-2.4c-2.7,0.9-4.1,3.3-6.1,5.1c-1.4-0.5-2.9-0.3-3.9-1.7c1.3-1.3,2.4,0.4,3.8-0.2
		c0.9-1.8,2.3-3.3,4.4-4.3c0.9-0.5,1.7-1.5,2-3c-1.1-0.8-2.2-1.6-3.4-2.5c-2.2-1.6-4.4-3.1-6.6-4.7c-1.8-1.3-2.4-3.6-4.1-4.9
		c0.1-1.7,0.4-3.2,1-4.7c0.6-1.4,1.3-2.8,2-4.2c0-0.9-1.1-1.6-0.4-2.7c1.3,0.8,1.1,2.4,2,3.1c0,1.1-0.8,1.7-0.6,2.4
		c2.6,2.4,4.6,5,5.6,8.2c4.7-1.3,9.2-2.6,14.2-4.1c-1.3-0.9-2.3-0.7-3.2-0.8c-2.5-0.2-5-0.4-7.5-0.5c-2.2-0.1-4.3-0.9-6.2-1.9
		c-0.6-0.3-1.1-0.6-0.8-1.6c2.1-0.5,3.9,0.9,5.9,1s3.9,0.3,6.4,0.5c-6.4-5.1-8.3-12.2-4.9-16.7c0.1,0.1,0.2,0.1,0.2,0.2
		c0.4,1.1-0.1,2.2-0.2,3.3c-0.3,7.6,3.8,11.5,10.5,13.6c4.3,1.4,8.8,1.3,13.3,1.4c2.1,0,3.9-0.5,5.8-1.6c6.8-4.1,12.8-9.3,18.8-14.4
		c4.2-3.6,6.5-8.3,8.4-13.3c0.2-0.5,0.1-1.1,0.9-1.1c0.3,0.2,0.6,0.5,0.9,0.8c2.9-5,3.3-6.9,2.5-12.1c-0.3-1.6-0.3-3.1-0.3-4.7
		c0-1.8-0.1-3.5-0.4-5.3c-0.3-1.4-0.9-2.5-2.1-3.3c-2.1-1.5-4.1-3.2-6.3-4.8c-3,1.1-6.1,0.6-9.2,0.4c-6.9-0.6-13.7-1.2-20.4,1.1
		c-1.3,0.4-2.6,0.7-4,0.8c-2.4,0.3-4.7,0.8-7,1.6c-7.7,2.9-15.4,5.9-23,8.8c-5.5,2.1-11.4,2.8-16.8,5.2c-0.6,0.3-1.4,0.1-2.2,0.3
		c-1.9,0.4-4,0.4-5.7,1.5c-3.7,2.3-7.7,4.1-11.7,6c-0.9,0.4-2,0.8-2.8,1.9c3.6,0.4,6.9,0.8,10.2,1.1c2.1,0.2,4.1-0.3,5.9-1.5
		c0.7-0.5,1.3-1.5,2.5-1c0.6,2.2-2.3,2-2.6,3.7c2.7,0.2,5-1.3,7.6-1.9c-1.2,1.7-3.1,1.9-4.1,3.3c2.5-0.5,5.1-0.8,7-2.7
		c0.9-0.9,1.8-1.7,2.7-2.6c0.6-0.5,1.2-0.9,2-0.2c0.4,1.1-0.5,1.9-1.1,2.6c-0.7,0.8-1.4,1.7-2.1,2.5c3.1,0,4.6-2.9,7.3-3.5
		c1.1,2.3-1.8,1.5-2,2.9c0.9,0,0.9,1,1.2,1.6c0.4-0.6,0.3-1.3,1-1.2c0.9,0.6,0,1.6,0.6,2.2c0.2,0.1,0.4,0.1,0.6,0.1
		c0.3,0,0.6,0,0.9-0.1c7.5-1.4,14.9-1.1,22.3,0.8c0.7,0.2,1.4,0.3,2.2,0.3c4.2,0.4,8.3,1.1,11.4,2c5.2-1,9.8-0.8,14.9-1.7
		c-1.3,1.2-2.3,1.5-3.2,1.8c-1.3,0.3-2.7,0.5-4,0.7c-3,0.4-6,1.5-9.1,0.7c-0.3-0.1-0.6,0-0.9,0c-4.4-0.1-8.8-0.3-13-1.3
		c-6.8-1.6-13.6-1.7-20.5-1.2c-0.8,0.1-1.7,0.1-2.5,0.7c-0.9,2.1-1.9,4.3-2.8,6.4c1.3,1.5,2.5,2.7,3.5,4.2c1,1.4,2.7,2.5,2.9,4.9
		c-3.4-1.6-4.5-5.1-7.3-6.8c-2.6,6.5-4.9,9.7-8.6,11.8c-1.1,0-2.2-0.7-3-0.5c-4,3.1-7.7,6-11.5,9c-0.2,1.6-1,3.4-0.6,4.8
		c0.6,2.3,0.2,4.5,0.1,6.8c-0.1,3.6-0.1,7.3-0.3,10.9c0,1,0.1,1.9,0.6,2.7c1.3,2.2,2.4,4.7,4.8,6.1c0.5,0.3,0.9,0.8,1,1.5
		c-0.7,0.3-1.4,0.6-2.3,0.9c-2.6-4.4-6.9-6.2-11.4-8.1c-0.4,0.5-0.8,0.9-1.1,1.3c-2.2,0.4-4.2-0.5-6.7-0.3c3,1.6,5.9,2.1,8.8,3
		c0.1,1.6,1.8,2.1,2.5,3.5c-0.6,0.9-1.1,1.9-1.7,2.9c-1.5-0.4-2.3-1.5-3.3-2.3c-1.2-0.9,0.2-2.8-1.5-3.6c-1,0.6-1.2,1.5-1.4,2.6
		c2.8,1.6,4.3,5.1,7.8,5c1.1-0.6,0.9-1.9,1.8-2.7c1.3,1.4,1.4,2.7,0.4,4c-0.8,1.2-2.1,1.4-3.4,0.9c-1.6-0.5-3.3-1.1-5-1.7
		c-0.3,1.2-0.5,2.2-0.7,3.2c2.7,4.8,3.8,9.8,2.6,15.6C416.2,624.1,418.9,623.5,421,622.1L421,622.1z M404.8,606.5
		c0.1,1.8-1.2,1.7-2.3,1.6c-1-0.1-2-0.5-3-0.8c-1.6,0.8-3.3,1.4-4.8,2.4c-2.1,1.5-4.5,1.1-6.9,0.7c-3.4-0.5-6.8-0.4-9.6,2
		c0.3,5.1,0.6,9.9,1,14.8c0.1,0.7,0.3,1.4,0.6,2.1c1.5,3.4,3.6,6.5,4.5,10.4c5.6-3.8,11.5-4.8,17.8-3.2c2.2-3.1,5.4-4.7,8.2-6.5
		c0.2-1.7,0.1-3.2,0.6-4.5c1.2-2.8,0.8-5.5,0.4-8.3c-0.6-4.5-3-8-6.5-10.9c-3.2-1.7-6.4-3.3-8.8-6.1c-0.7-0.8-1.5-1.6-2.4-1.9
		c-2.9-1-4.8-3.2-6.6-5.5c-1-1.3-2-2.6-3.5-3.2c-0.8,0.9,0,2.1-0.9,2.9c-0.7-2-0.7-2,0-4.5c-2-3.3-3.1-7-3.8-10.8
		c-0.3-1.7-0.8-3.3-2.5-4.3c-1.9,4.1-4.6,7.7-6.3,11.6c-2.5,5.7-5.8,10.8-9.7,15.6c-1.4,1.7-2.3,3.7-2.6,5.9
		c-1.2,10.1-4.8,19.6-8.7,28.9c-1.9,4.4-2.4,8.8-1.8,13.4c1,7.7,1.7,15.3,1.5,23c0,1.3,0.4,2.4,1.2,3.4c1,1.2,2.1,2.3,3.4,3.2
		c1.2,0.8,2.3,1.8,3.1,3c1,1.4,2.3,2.4,3.9,3c3.8,1.5,7.5,3,11.4,4.3c2.5,0.8,5.1,1.7,7.6,1.6c2.7-0.1,5.1,0.4,7.7,0.8
		c3,0.5,6,0.8,9,1.2c2.9,0.4,5.7-0.5,8.6-1c4.4-0.7,8.8-1.5,13.1-2.8c3-0.9,6-1.9,9.1-2.1c4.2-0.2,8.2-1.2,11.9-3.1
		c5,1.6,10.2,2.2,15.4,2.8c4.4,0.5,8.8,1,13.4,0.3c2.9-0.4,5.8-1.3,8.7-1.3c9.4-8.2,7.1-28.2-0.4-36.3c-6.1,1.1-12.3,1.6-18.6,1.2
		c-1.2-0.1-2.6,0.3-3.3-1.3c0.3-1.5,1.5-1.8,2.8-1.9c1.9-0.1,3.8,0,5.6-0.2c3.4-0.3,7.1,0.2,10-2.3c-1.2-2.8-5.1-3.6-5.2-7.2
		c-1.4-1-2.9-2-4.2-3.1c-4.5-3.7-9.7-6-15.1-8c-2.4-0.9-4.8-1-7.3-0.7c-3.5,0.4-7,1.2-10.3,2.4c-1.5,0.5-2.8,0.5-3.9-0.1
		c-3.7,1.5-7.2,3-10.7,4.3c-3,1.1-6,2.4-8.6,4.4c-0.5,0.4-1.4,0.6-1.2,1.6c3.9,1.3,8.4,0.1,12.6,3.2c-4.1-0.4-7.5-0.7-10.9-1.1
		c-0.5-0.1-1.1-0.1-1.5-0.3c-1.4-1.2-3.1-1-4.8-1c-3-0.1-6,0-8.8,0c-3,1.8-5.8,3.5-8.6,5.1c-0.8-0.3-1.1-0.6-1.2-1.2
		c-0.1-0.9,1-1.4,0.7-2.6c-6.9-9.8-7.3-21.3-6.9-33.3c1.9,0.8,1.3,2.5,1.9,3.6c1-0.4,2.1-0.8,3.1-1.2c2.2-0.8,4.4-1.4,6.7-0.9
		c2.1,0.5,4.3,0.4,6.1-0.4C397.7,605.7,401.2,605.6,404.8,606.5z M537.6,502c-0.3,4.5-1.5,8.9-2.2,13.3c-0.6,3.7-1.8,7.3-0.8,11.1
		c1.9,7.1,3.9,14.2,5.9,21.4c3.8,1.6,7.6,2.9,11.6,3.9c7,1.7,14.1,3,20.9,5.3c6.7,2.2,13.5,4.4,20.2,6.6c2.2,0.7,4.5,1.4,7.3,1.4
		c-2.2-4.5-2.2-9.4-4.8-13.5c4.6,3.9,7.4,8.9,8.7,14.6c5.3,1,10.3,1.6,15.5,1.5c-0.1-0.4-0.2-0.7-0.3-1
		c-6.2-9.4-12.8-18.5-20.7-26.6c-3.3-3.5-6.6-7-9-11.2c-0.6-1-1.2-1.9-2.1-2.6c-2.5-2-2.6-7.4-0.4-10.1c0.3,1.1,0.1,2.4,1.1,3.2
		c1.4-0.6,2.9-1,3.4-2.8c2.8,0.4,5.3-0.4,7.8-1.1c2.6-0.7,5.2-1.5,7.9-2c5.5-1.2,10.4-3.5,15.4-6c1-0.5,1.8-1.4,2.6-2.2
		c7-7.4,14.1-14.8,20.2-23c1.2-1.6,2.6-3,3.9-4.5c4-4.6,8.8-8.6,12.6-13.4c1.3-1.7,2.7-3.2,4.2-4.6c3.6-3.2,7.2-6.3,10.8-9.5
		c2.7-2.4,5.9-4.3,8.2-7.2c3.1-3.8,2.7-8.7-0.9-12c-0.5-0.5-1.2-0.9-1.6-1.5c-1.6-2.5-4-3.4-7.4-3.5c-0.8,3.2-3.9,4.4-6.6,5.7
		c-2.9,1.4-6.1,2-9.4,0.1c-2.9,3.9-6.9,6.8-9.8,10.6c-1.2,1.7-2.7,3.2-4.5,4.4c-5.4,3.7-10.9,7.3-16.5,10.7
		c-4.4,2.7-9.3,4.7-14.3,6.2c-9.6,2.9-19,6.1-27.7,11.3c-2.8,1.7-5.9,2.8-8.5,4.6c-4,2.7-8.3,4.5-13,5.8c-3.8,1-7.5,2.5-11.2,3.8
		c-1.2,0.4-2.1,1.2-2.9,2.2c-3.5,4.1-7.2,7.8-12.2,10C538.5,501.4,538.1,501.7,537.6,502z M651,523.7c1,2.2,1.2,4,1.2,5.8
		c0,3.1,0.9,6,1.9,8.8c0.5,1.3,0.9,2.5,1.2,3.8c1,4.1,3.2,7.8,5.9,10.9c3.8,4.3,8.8,7.4,14.5,8.7c3.8,0.9,7.8,1.5,11.6,2.2
		c4.9,0.9,9.9,0.9,14.9,1c2.5,0.1,5.2-0.3,7.4,0.8c3.4,1.6,7.1,2,10.7,3.1c7.2,2.3,13.9,5.6,20.3,9.4c0.9,0.5,1.7,1.3,3,1.1
		c0.6-1.7,1.1-3.4,1.7-5.3c-1.8-2.1-4.5-3-6.8-5.3c3,0.8,5.2,1.9,7.5,3.9c0.8-6,3.2-11,2.6-16.3c0.2-0.9,1.3-0.5,1.5-1.6
		c-0.8-1.2-1.3-2.8-2.6-4c-0.4-0.1-0.8-0.2-1.2-0.2c-5.6-0.4-10.7-2.2-15.6-5.1c-7.6-4.6-15.2-9.1-22.6-13.9
		c-0.7-0.5-1.6-1.3-2.1-1.1c-1.8,0.5-2.5-0.9-3.4-1.7c-8.5-8.1-17.6-15.3-27.7-21.2c-3-1.8-6.1-3.6-8.5-6.2
		c-1.5-1.7-3.5-2.9-5.7-3.7c-4.8-1.8-9.9-3.2-14.6-5.5c-1-0.5-2.3-1-3.9-0.4c-2.2,2.5-4.6,5.2-6.7,8.2c-1.5,2.2-3.1,4.3-4.9,6
		c-4.5,4.2-9.4,8-15.3,10c-1.4,0.5-2.3,1.3-2.9,2.6c-1.1,2.4-2.2,4.7-3.4,7.4c5,4.2,8.6,9.7,13.5,14c4.9,4.4,7.9,10.5,12.9,14.9
		c0.5-1.6,0.9-3.1,1.5-5c0,2.7,0.4,4.8,0,7c5.3,5.3,9.6,11.6,16.3,15c0-6.5,0.1-12.7,0-18.9c-0.1-3.1-0.2-6.3-0.8-9.3
		c-1-5.1-1.3-10.3-1.7-15.5C650.9,526.9,650.6,525.6,651,523.7z M658.7,407.9c4.2-1,8.2-1.4,12.3-1.1c1.4,0.1,2.9,0.2,3.7,2.2
		c-2.7,1.3-5.4,0.5-8,0.8c-2.7,0.3-5.3,0.5-8.1,0.8c-0.1,1.1-0.1,2-0.1,3c-0.1,3.9,0.3,7.9-1.2,11.6c-0.3,0.6-0.8,1.3-0.4,2
		c2,0.9,2,0.9,3.9,0.5c0.1,1.5,1.3,1.8,2.4,1.9c3,0.2,5.8-0.3,8.1-2.4c1.2-1.1,2.4-2.2,3.3-3c4.2,0,7.5,1.7,10.6,3.3
		c3.6,1.8,5.7,5.2,6.3,9.2c0.5,3.3-0.2,6.2-2.9,8.4c-0.9,0.7-1.8,1.5-2.4,2.4c-0.9,1.3-2,2-3.6,2.1c1.7,0.6,3.4,1,5.1,1
		c4.9,0,9.9-0.5,14.7,1c1.6,0.5,3.1,0.3,4.6-0.2c2.9-1,5.5-2.4,7.5-4.8c-0.1-1.5-0.3-3-0.4-4.4c-0.2-5.1-1-10.2-2-15.2
		c-0.4-2.1-1.1-3.9-2.5-5.6c-1.7-2.1-3.1-4.4-4.8-6.7c-2.5-0.4-3.1-1-3.4-3.8c-0.5-4.3-0.9-8.7-1.2-13.1c-0.1-1.4-0.3-2.7-1-3.9
		c-2.3-4.6-5.8-8.5-9.4-12c-4.5-4.3-9.6-8.1-14.3-12.2c-2.8-2.4-6.1-3.3-9.5-3.6c-5.5-0.4-10.2,2-13.9,5.9c-1.9,2-2.8,4.4-1.5,7.5
		c1.9,4.6,3.3,9.4,5.1,14c1.1,2.8,1.3,5.9,2.3,8.9c1.3-0.8,2.6-0.7,4-0.7c3.6,0.1,7.3,0,10.9,0.4c1,0.1,2.2,0.1,2.3,2.1
		c-2.5,1.1-5.3,0.5-8,0.7c-2.9,0.2-5.8,0.4-8.6-0.3C658.3,405.8,658.4,406.7,658.7,407.9z M610.6,518c-7,1.6-13.9,3.1-21.1,2.9
		c0.5,4.2,4.6,9.7,11,15.3C603.4,529.8,605.8,523.3,610.6,518z M746.8,579.4c1.6,0.4,2.6-0.3,3.3-1.7c0.9-2,2.3-3.7,3.4-5.6
		c1.1-1.9,2.2-3.7,2.9-5.7c-1.1-3.5-3.3-7.6-4.9-9C751.5,565,750.3,570.5,746.8,579.4z M477.4,594.8c0.9-3.6,0.2-5.7-2.5-7.5
		c-1.9-1.2-4-2.1-6.2-2.9c-0.1,0-0.3,0.2-0.5,0.2c-0.1,0.4-0.2,0.8,0.2,1.2c0.5,0,1-0.2,1.5,0.7c0.1,0.6,0.2,1.4,0.3,2.2
		c2.5,1.4,2.9,4.2,4,6.5C475.3,595.1,476.3,595,477.4,594.8z M454,568.2c2.1,2,3.8,3.6,6.2,4.5c-1.7-2-2.3-4.4-3.1-7
		C456.2,566.7,455.6,567.7,454,568.2z M393.8,556.5c-0.3,0.9-0.2,1.5,0.2,2.2c0.8,0.4,1.7,0.7,2.7,0.1c-0.1-1-0.4-2-1.1-2.6
		C394.9,556.1,394.4,556.2,393.8,556.5z M415.4,564.3c0.2,0.8-0.1,1.4,0.6,2c1.3-0.7,2.1-1.7,2.8-3.6
		C417.4,563.4,416.5,563.8,415.4,564.3z M446.4,535.2c-1.3,0.8-2.9,1.3-4,3C444.8,538,446.1,537.2,446.4,535.2z M410.8,583
		c-1.2,0.2-2.7-1-3.7,0.5C408.3,583.3,409.7,584.9,410.8,583z M409.2,598.4c-0.8-0.5-1.7-1.3-3-0.3c0.7,0.8,1,1.7,2.1,2.1
		C408.8,599.6,409.1,599.1,409.2,598.4z M439.5,540.6c-2,0.6-3,1.5-3.8,3.1C437.5,543.3,438.7,542.6,439.5,540.6z M384.7,569
		c0.3,1.4,0.5,2.2,1.2,2.8c0.4,0.1,0.8,0,1.3-0.4C386.8,570.5,386.3,569.6,384.7,569z M381.3,570.9c-0.1,1-0.4,2,1.1,3.1
		c-0.5-1.3,0.6-2,0.3-2.8C382.3,570.8,382,570.8,381.3,570.9z M417.1,537.1c1.5,0.5,2.4,0.7,3.7-0.1
		C419.5,536.2,418.6,536,417.1,537.1z M407.7,601.8c-0.6-0.9-1.1-1.9-2.8-2.4C405.9,600.8,406.5,601.6,407.7,601.8z M389.1,546.2
		c1.1-0.5,2-0.4,2.4-1.3C390.2,544,389.8,544.9,389.1,546.2z M440,541.7c1.3-0.2,2.1-0.5,2.9-1.5C441.5,539.9,440.7,540.5,440,541.7
		z M436,557.1c1.2-0.8,2.1-1.3,2.3-2.5C437,554.9,436.6,555.7,436,557.1z M397.2,590.4c-0.3-0.7-0.1-2.2-1.7-1.2
		C395.7,590,396.5,590.2,397.2,590.4z M420.3,626c-0.8,0.1-1.4,0.2-1.7,0.9C419.3,627,420,627.1,420.3,626z M394.8,561
		c-0.2,0.3,0,0.6,0.2,0.7c0.4,0.2,0.7,0.1,0.9-0.5C395.6,561,395.3,560.6,394.8,561z M409.9,603.4c0.5,0.8,0.7,1.3,1.5,1.1
		C411.4,603.8,410.8,603.6,409.9,603.4z M446.9,539.4c1.1-0.2,1.2-0.8,0.9-1.6C447.3,538.1,446.7,538.3,446.9,539.4z M389.5,567.3
		c-0.9,0.2-1,0.6-0.6,1.2C389.5,568.3,389.7,568,389.5,567.3z M417.1,575.1c0.3-0.6,0.5-1.1-0.1-1.7
		C416.5,574,416.6,574.6,417.1,575.1z M400.1,586.7c-0.4-0.9-0.8-0.8-1.3,0C399.2,587.1,399.6,587.2,400.1,586.7z M421.8,549.3
		c0.9,0.1,1.3-0.2,1.6-1C422.6,548.1,422.3,548.6,421.8,549.3z M392.5,587.7c-0.5-1-0.5-1.7-1.3-1.5
		C391.3,586.8,391.6,587.1,392.5,587.7z"/>
	<path d="M492.3,293.6c2-2.9,2-6.3,2.5-9.5c0.3-2,0.1-4.2,0.1-6.2c-0.1-1.9-0.5-3.7-2.5-4.5c-0.3-0.1-0.5-0.6-0.6-1
		c-1.8-5.2-5.9-8.5-9.9-11.8c-1.5-1.2-3.3-2.2-5-3.3c-1.4,1.1-2.1,2.6-3.4,3.8c6.4,4.7,9.6,11.2,10.9,18.8
		c-3.9-5.6-7.9-11.2-12-17.1c-1.1,1.3-2.1,2.6-3.3,4c0.9-3.5,2.7-6.3,4.8-9c0.6-0.8,1.6-1.5,0.7-2.5c4.9-3.7,10-6.8,15.2-9.7
		c4.7-2.6,8.3-6.2,10.9-10.9c1.3-2.3,2.6-4.5,4-6.7c3.3-5.5,5.8-11.3,7.5-17.5c0.8-3,1.8-6,2.6-9c0.6-2,0.5-3.9-0.2-6.1
		c-0.7-2.1-0.2-4.5-0.7-6.7c-0.1-0.6-0.2-1.2-0.2-1.9c-1.9-1.9-4.7-2.8-5.6-5.8c-7.9-1.4-15.8-0.8-23.6,0.1
		c-6.6,0.8-12.8,2.8-19.2,4.2c-1,0.2-1.8,0.9-2.9,0.1c-0.7-0.5-1.8,0.3-2.6,0.6c-5.8,2.2-11.6,4.6-17.5,6.8
		c-6.4,2.4-12.7,5.3-19.4,6.8c-0.3,0.1-0.7,0.1-0.9,0.2c-4.1,3.2-9,2.8-13.7,3.5c-0.6,0.1-1.2,0.1-1.9,0.2c-3.1,2.9-6.9,4.3-11,5
		c-0.9,0.2-1.8,0.7-2.5,1.2c-1.7,1.2-3.4,2.4-5.3,3.2c0.4,1,1.6,0.9,2.1,2.2c0.2,0.7-0.1,2,1,3.2c-4.3,2.3-7.3,6.1-11.4,8.4
		c-1.2,5.6-1,11.2-0.6,17c0.2,0.3,0.7,0.6,1.4,0.8c0.9-1.2,0.7-2.6,0.9-3.9c0.3-2.1,0.8-4,2.5-5.6c1.4-1.4,2.6-3,4-4.4
		c1.7-1.8,2.7-3.7,1.7-6.2c-0.2-0.5-0.1-1,0.5-1.3c2.3,1.5,2.7,3.6,1.3,6c-0.8,1.4-1.7,2.7-3,3.6c-1.9,1.5-3.4,3.4-5,5.2
		c-0.3,2.5-0.7,4.9-1.1,7.5c0.3,0.5,0.6,1.2,1,1.9c-0.7,0.9-1,1.9-0.6,3.5c-1.4-1.3-1.7-2.7-2.6-4.1c-2.2-1-3.3-2.8-3.3-5.6
		c0-1.4-0.2-3.3-1.6-4.5c-0.5-0.4-0.6-1.1-0.6-1.7c0.3-7,2-13.6,6.2-19.4c0.6-0.8,1.1-1.5,2.1-1.6c-0.5-6,1.1-12,10.3-16
		c-1.9-2-4.2-3.3-6.1-5.7c3.1-0.8,4.3,1.8,6.4,2.7c0.9-2-0.3-4.6,2.4-6.5c0.4,3,2.7,4.8,3.1,7.5c1.9,0,3.3-0.9,4.4-2.4
		c3.5-4.4,7.9-5.8,13.3-4.3c4.9,1.4,9.8,2.9,15,2.8c1,0,1.6,0.9,2.6,1.1c2.1-0.8,4.3-1.5,6.7-2c0.4-1,1-1.8,2.2-2.2
		c6.3-2.1,12.5-4.7,19-6.3c4.1-1,8.3-2.2,12.8-2.2c2.8,0,5.7-0.9,8.6-1.4c7-1.1,14.1-1.6,21.2-1c1.7,0.1,3.3,0.4,5,1.1
		c1.6,3.6,6.6,4,7.9,8c1.4-0.2,1.3-1,1.4-1.7c0.4-2.4,0.8-4.7,1.3-7.1c0.5-2.4,1.1-4.9,3-6.8c0.8-0.8,1-1.9,1-3.2
		c-0.1-2.4,0.7-4.5,2.7-5.9c3.5-2.4,7.4-3.8,11.4-4.9c0.4-0.1,0.8-0.1,1.2-0.1c5.9,1,11.8,0.4,17.7,0.1c8.2-0.4,16.5-0.6,24.7-0.9
		c5.4-0.2,10.8-0.6,16.2-0.8c6-0.3,11.9,0.2,17.8,0.6c4,0.3,7.9,1.7,12,1.6c2.8-0.1,5.6,0.5,8.3-0.6c0.5-0.2,1.2-0.1,1.9-0.1
		c6.1,0.6,12-1.3,17.4-2.2c1.2-0.5,0.7-1.4,1.5-2c1.4,0.3,2.5-0.6,3.5-1.6c0.1-0.1,0.2-0.2,0.2-0.2c4-1.4,6.8-4.8,10.6-6.5
		c0.3-0.1,0.6-0.3,0.8-0.5c4.4-4,8.7-8.1,12.4-12.7c0.7-0.9,1-1.8,1.2-2.9c1-4.9,1.7-9.9,2-14.9s1.6-9.8,4.2-14.4
		c5.3-0.8,9.4,1.6,13.6,4.5c0.9,3.1,2.5,5.8,4.2,8.6c0.5,0.9,1,1.8,1.2,2.9c1.3,5.4,3,10.6,3.4,16.2c0.5,5.8,0.1,11.4-2.3,16.8
		c-0.9,2.1-1.4,4.3-1.4,6.7c0.1,2.8,1.6,5,2.9,7c1,1.5,1.7,3,1.7,4.9c3.5,1.3,7.1,1,10.6,1.4c4.7,0.6,9.3,1,14,1.4
		c14.4,1.4,16,0.9,27.5-2.5c3.2-0.9,6.4-1.8,9.7-2.8c0.3-1.6-0.3-3.3,0.2-4.9c5-5.2,10.1-10.4,15.5-15.4c2.5-2.3,4.6-5.1,6.8-7.7
		c0.6-0.7,0.7-1.7,0.9-2.6c1.7-8.4,4.4-16.5,7.3-24.5c0.9-2.5,2.5-4.3,5.2-4.9c1.9-0.5,2.1-0.5,4.1,0.9c0.6-0.1,1.4-0.1,2-0.3
		c3.8-1.4,6.6,0.4,9.2,2.9c0.7,0.6,1.4,1.3,1.8,2.2c2.8,5.8,7,10.8,9.2,17c1.1,2.9,2.1,5.9,2.6,9c0.1,0.6,0.1,1.3,0.4,1.8
		c1.9,3.2,1.8,6.8,1.7,10.3c-0.1,3.8-0.5,7.5-1.3,11.2c-0.5,2.7-1.2,5.5-3.5,7.5c-0.2,0.2-0.4,0.5-0.5,0.8c-1.7,5.3-4.7,10.2-5.2,16
		c-0.5,5-0.7,10-1.7,14.9c-0.1,0.5,0.1,1,0.2,1.5c-3.6,5.2-5.8,11.5-12.3,14.1c0.4-1,1.3-1.5,1.9-3.1c-1.9,1.2-3.2,2.6-5.3,3
		c-1.9-1.7-4.6-2.3-7.1-3.2c-3-1.1-5.5-2.9-7.5-5.4c-2.1-2.5-4.5-4.5-7.8-5.5c-2.6-0.8-5-2-7-4.3c2.1-1.3,4.6-0.9,6.5-2.2
		c0.4,0.3,1,0.4,1.1,1c-1,1.3-2.6,0.6-3.9,1.2c2,2.1,4.4,1.8,6.7,1.6c6.2,5.2,12.5,10.2,20.1,13.2c3.3-2.6,6.5-5.2,10-8.1
		c1.2-3.3,2.2-7,2.5-10.9c0.5-7.4,1.8-14.7,4.4-21.6c1.7-4.4,2.9-8.9,4.3-13.4c2.3-7.5,3-15,0.2-22.6c-1.9-5-3.5-10-6.4-14.5
		c-1.5-2.4-3-4.7-4.3-7.2c-1.2-2.3-2.8-4.1-5.3-5c-3.7,0.2-7.2,1.8-11.1,1c-2.1,6.1-4.2,12.1-6.3,18.2c1.4,1.6,0.4,3.3-0.1,4.9
		c-0.5,1.8-1.2,3.5-1.9,5.4c2.8,1,5.2,2.3,7.6,3.8c1.3,0.8,2.7,1.5,3.9,2.6c1,1,1.1,1.9-0.4,3.1c-4.4-1.6-8.6-4.1-12.8-6.3
		c-0.6,0.4-0.9,0.8-0.7,1.4c3.2,1.2,6.3,2.8,9.1,4.6c0.9,0.6,1.7,1.2,2.3,2.1c0.5,0.8,0.4,1.6-1,2.3c-4.4-1.5-8.5-4.4-13.2-6.3
		c-0.2,1.3,0.6,1.4,1.1,1.6c2.3,1.3,4.5,2.7,6.4,4.4c1.3,1.2,2.6,2.4,3.4,4.1c0.6,1.2,0.8,2.4-0.9,3.1c-2.6-1-4.2-3.4-6.3-5
		c-2.3-1.6-4.7-3-7.1-4.3c-0.9,0.7-1.8,1.3-2.3,2.3c3.4,1.6,6.5,3.2,9.5,5c1.2,0.8,2.5,1.6,3.4,2.8c0.8,1.1,0.9,2.1-0.6,3
		c-5.4-2.3-10.5-5.6-16.4-7.6c-2.1,3.1-6.9,3.8-7.7,8.7c3.1-0.4,5.7,0,8.4,0.6c4,1,7.6,2.8,10.9,5.2c1.4,1,2.7,2.1,3.1,3.8
		c1.2,4.9,1,9.9,0.9,14.9c0,0.2-0.1,0.4-0.1,0.6c-0.9,1.9-1,4-1.2,6.1c-0.1,0.8-0.1,1.7-0.7,2.5c-1.5,0.1-2.5,2.1-4.4,1.4
		c-0.6-1.9,1.8-1.7,2.2-3.1c-0.3-1.7,0.3-3.5,0.6-5.3c0.7-3.5,0.9-6.9-1.6-9.6c0.4-1.4,0.4-2.8,1.8-3.3c-1.1-5.5-3.3-7.7-9.5-8.9
		c1.2,2,3.3,3,4.1,5.1c0.9,2,1.8,4,2.3,6.1c0.5,2.2,0.7,4.5,0.3,6.8c-0.3,2.2-1.1,4.2-2.1,6c0.1,0.7,1.1,0.9,0.7,1.6
		c-0.8,0.6-2-0.1-2.6,0.8c-3.1-0.2-6,0.8-8.9,1.4c-4.1,0.9-8.1,1.9-12.2,2.9c-4.5,1.1-8.9,2.3-13.1,4c-4.7,1.8-9.6,2.8-14.5,3.8
		c-3.9,0.8-7.7,1.9-11.4,3.3c-3.1,1.2-6.2,2.4-9.3,3.7c-5.6,2.3-11.3,3.5-17.4,3.5c-2.8,0-5.6,0.2-8.4,0.6c-4.7,0.8-9.4,0.5-14-0.4
		c-6.1-1.2-12.2-2.6-17.8-5.5c-1.7-0.9-3.6-1.7-5.6-1.8c-2.8,3.1-3.7,7-3,10.8c1,5.9,0.9,11.8,0.9,17.8c0,0.4,0.1,0.8,0.1,1.2
		c1.1,1.1,2.6,1.4,3.7,2.4c1.3,1.1,3.2,1.5,3.5,3.7c0.1,0.6,0.8,0.9,1.3,1.2c1.2,0.8,2.4,1.7,3.6,2.5c1.9,1.3,3.2,2.9,3.3,5.4
		c0.1,1.9,1.2,3.5,2.4,5c1,1.3,2.1,2.6,3.1,3.9c0.6,0.8,1.5,1.5,1,2.9c-1.1,0.3-1.9-0.4-2.6-1.1c-2.8-3.2-5.8-6.4-6.2-10.9
		c-0.1-1.2-0.7-2.2-1.7-2.9c-3.5-2.7-6.9-5.4-10.4-8c-0.6-0.5-1.5-0.7-2.3-0.9c-6.9-2.4-13.7-5.3-19.3-10.1
		c-4.4-3.7-9.2-6.8-13.7-10.3c-7-5.3-13.5-11.2-18.3-18.7c-0.2-0.3-0.3-0.5-0.7-1.2c-5,12.4-9.5,24.5-13.7,36.7
		c-4.2,12-7.4,24.4-11.9,36.4c0.4-14.2,4.3-27.7,9.5-41.1c-5.5-0.5-10.7-1.7-16.2-1c-6.6,0.9-13.3,0.3-20-0.5
		c-8.7-1.1-15.1-2.9-22.8-6.4c-0.7,0.7,0,1.3,0.2,1.9c1,3.9,2.6,7.5,4,11.2c1.2,3.1,2.4,6.2,3.3,9.4c1.6,5.6,4.4,10.3,8.8,14.1
		c0.5,0.4,0.8,0.9,1.3,1.5c-0.6,3.6,1.4,6.1,3.7,8.5c1.7,0.2,3.3,0.3,4.9,0.5c1.4,1.1,1.7,2.7,2.1,4.1c1.2,4.7,1.6,9.5,1.9,14.2
		c0.2,2.6-0.4,5-2,7.4c3,5,4,11.1,8.5,15.4c0.7,0.6,1.1,1.5,1.7,2.2c3.9,4.9,5.2,10.3,4.2,16.4c-0.8,5.2,1.4,9.3,4.6,13
		c0.3,0.3,0.6,0.7,0.9,0.8c3.9,1.2,4.7,4.7,5.9,7.9c0.4,1.1,0.4,2.5,1.5,3.5c1.8,0.3,3.6,0.7,5.7,1.1c1.1-1,2.7-1.1,4.4-0.9
		c7.9,0.6,15.2-1.8,22.6-4.1c10.9-3.4,18-10.7,23.1-20.6c2.6-5,4.2-10.2,5.1-15.7c0.1-0.7,0.3-1.4,0.8-2c0.6-0.8,0.6-1.7,0.2-2.5
		c5.8-11.6,13.3-22,21.9-31.6c3.5-3.9,6.8-7.9,9.6-12.3c0.5-0.8,0.9-1.7,1.7-2.2c1,0.3,0.8,1,0.5,1.7c-1.3,2.8-2.8,5.6-4.6,8.2
		c-1.5,2.3-3.1,4.5-4.8,6.6c-6,7.1-11.2,14.8-17,22c-3.9,4.8-5.6,10.6-6.8,16.6c-1.5,8.1-4.8,15.4-9.9,21.9c-0.8,1.1-1.8,2-2.2,3.4
		c-0.3,1-1.3,1.6-2.2,2.2c-8.1,5.1-16.4,9.4-26,11.2c-4.7,0.9-9.3,1.2-14.2,0.1c-2.5,1.5-5.1,1.3-7.8,0c-1.2-0.6-2.9-0.8-4.5-0.7
		c-4.2,0.2-8.3-0.3-12.5-0.9c-1.7-0.3-3.2-1-3.9-2.3c-9.2-0.6-18.2-1.2-27.1-1.7c-7.4-0.5-14.8-0.5-22.2,0.6
		c-3.3,0.5-6.7,0.6-10,0.7c-8.6,0.3-17,2.3-25.7,1.7c-6.3-0.4-12.4-1.6-18.3-3.9c-6.4-2.5-12.8-5.2-18.3-9.3c-0.7-0.5-1.6-1-2.5-1.2
		c-6-1.8-11.6-4.6-17.3-7.2c-4.6-2.2-8.4-5.5-11.2-9.8c-3.8-5.9-7.3-11.9-9-18.8c-1.8-7.3-3.8-14.5-3.5-22.2c-3.1-1.4-5-3.8-6.3-6.9
		c-1.1-2.6-3.4-4.5-5.5-6.3c-2.8-2.4-4.5-5.4-4.6-9.2c-0.1-2.4-0.2-4.8-0.4-7.2c0-1-0.5-2,0.6-2.9c0.7-0.6-0.9-1.1-0.2-2
		c0.9,0.4,1.4,1.3,2.2,2.1c-0.9,0.8-0.8,1.7-0.5,2.8c0.6,2.3,1,4.7,0.9,7.1c-0.1,3.3,1.3,5.8,3.7,7.9c1.1,0.9,2.3,1.8,3.3,2.8
		c1.7,1.6,3.2,3.3,2.8,5.6c1.4,1.4,2.5,2.6,3.8,3.9c0.6-1.7,1.2-3.3,1.9-5.3c0.3,7.4,0.9,14.4,4,21c1.7-1,1.2-2.6,1.2-3.9
		c0.6-0.5,1,0.3,1.7,0.1c3.7-8.6,6.4-17.6,7.4-27.1c-3.1,1.3-3.1,1.4-7.9,8.5c0.9-3,1.9-5.2,3.7-7.2c2.3-2.5,4.1-5.5,6.2-8.2
		c1-1.2,2-2.5,3.9-2.2c1-2.1,2.3-4,3.6-4.8c3.5-5.1,2.6-10.6,4.4-15.5c-3.2-1.5-4-4.8-6.2-7.5c-2.1,4.9-1.6,9.7-0.9,14.5
		c-1.8-1.7-0.9-4.3-2-6.2c-0.9,2.8,0,5.5,1.1,8c0.4,1,0.9,1.9,0,2.7c-0.7,0-0.8-0.4-1-0.7c-0.1-0.3-0.3-0.5-0.5-0.7
		c-0.6,0.5-0.2,1.2-0.6,1.8c-0.5,0.2-1.1,0.6-1.8,0.9c0.2,0.3,0.3,0.5,0.4,0.8c-0.5,2.2-3.2,1.6-4.1,3.3c-1.1,0.3-2.1-1.1-3.5,0
		c0.1,1.5-1,2.7-2.2,3.7c-1.2,1.1-1,2.9-2.4,4c-1.5-1.3-0.2-3.7-2.1-4.6c-1.1,0.1-0.8,0.7-0.7,1.5c0.1,0.8-1.1,0.8-1.3,1.8
		c1.6,4.8,2.3,9.8-0.4,14.8c-1.2-3.4-0.2-7.1-0.8-10.6c-1.3,0-1.8,0.8-2.4,1.5c-0.9,1-1.9,2-3.2,2.4c-1.2,0.4-2.4,0.7-3.3-0.8
		c1.4-1.2,3.4-1.1,4.7-2.3c1.2-1.1,2.5-2.2,3.7-3.6c0-1.9-0.1-3.8-0.7-5.8c-2-1.6-4.7,1.2-7-1.5c-0.9-2.3,0.6-5.5,0.2-8.8
		c-2,1.8-4,3-5.7,5c-0.6-1.4,0-2.3,0.3-3.2c0.4-0.2,0.7-0.4,1.1-0.6c3-1.9,5.4-4.2,5.7-8c0.2-2.7,1.5-5.3,1.4-8.2
		c0.9,1.6,0.9,3.4,0.6,5.1c-0.8,4.3-1.5,8.6-1.8,13c-0.1,1.4,0.3,2.7,0.5,4c0.1,0.7,0.6,1.3,1.4,1.5c0.7-2.3,1.4-4.5,2.2-6.8
		c1.1-3.3,2.3-6.4,5.1-8.7c0.2-0.2,0.5-0.5,0.5-0.8c0.7-3.1,3.1-4.5,5.8-5.6c0.8,0,1.1,0.7,1.7,1.1c0.1,1.6-0.8,2.6-1.4,3.8
		c-1.2,2.4-1.9,4.8-2,7.5c-0.1,3.4,1.4,5.5,4.5,7.2c-0.5-4.3,1-7.8,3.2-11c0.2-0.3,0.6-0.7,0.6-1.1c0.9-4.4,3.7-7.9,5.7-11.8
		c1.1-2.1,1.7-4.2,1.7-6.5c0-3.6,0.2-3.9,2.1-6.5c-1.2-0.3-2,1.2-3.2,0.8c-0.7-0.6-0.5-1.1,0-1.6c0.8-0.7,1.7-1.1,2.7-1.5
		c4-1.5,8.2-2.6,12.5-2.8c5.8-0.2,11.6-1.2,17.4-1.8c1.7-0.1,3.3-0.3,5,0.2c5.6-7.1,13.4-10.6,22.1-13.6c0.3-0.1,0.4-0.9,0.9-1.4
		s1.1-1,1.6-1.4c0.8,0.2,0.7,1,1.1,1.3c-0.3,1.1-1.2,1.6-2.2,2.1c-6.1,3.1-11.4,7.2-17.4,10.5c-3.1,1.7-5.3,4.5-6.6,7.7
		c-1.7,4.5-5.1,6.8-9.3,8.5c-3.3,1.4-6.5,3.2-9.6,5.1c-3.4,2.1-5.6,5.3-7.3,8.8c-2,4.1-3.9,8.2-5.1,12.7c-0.5,2.1-1.4,4.2-3,6
		c-1.9,2.2-1.6,5.1-1.7,7.8c0,0.6,0.3,1.2-0.5,1.6c-1.3,0-0.9-1.6-2.2-2c-0.1,3.1,0.3,6.1,0.8,9.1c0.9,5.6,3.1,10.8,5.5,15.9
		c1.4,2.8,3.8,5,6.1,7.1c10.9,9.6,23.1,16.2,37.8,17.9c4.2,0.5,7.8-0.6,10.8-2.9C487.9,307,491,300.7,492.3,293.6L492.3,293.6z
		 M446.7,217.1L446.7,217.1c-0.4-1.2,2.4-1.9,0.4-3.5c-2,0.1-4.2,0.3-6.7,0.5c-0.4,1.3-1.5,2.3-2.7,3.1s-1.8,2-2,3.4
		c-0.6,3.4-0.5,6.7-0.7,11c4-4.6,9.7-5.3,13.3-9.2c-1.1-1.7-3.1-0.6-4.5-1.9c2.4-0.5,4.3-2.1,6.9-0.3c-1.2-1.2-2-2-2.9-3
		C447.7,217.1,447.2,217.1,446.7,217.1z M415.8,312.4c-3.1-3.4-4.4-7.8-5.7-12.2c-1.3,0.7-2,1.8-3.3,2.2c-1.3,0.4-2.1-0.8-3.5-1.4
		c1,3.2,0.7,6,1.6,8.7c2.7,7.7,7.1,14.2,13.1,19.9c3.3,3.1,6.9,5.6,11.2,7.2c4.7,1.7,9.3,3.6,13.7,6c8.3,4.7,17.1,8.2,26.1,11.1
		c4.1,1.3,8.4,1.8,12.6,1.8c3.5,0,7-0.6,10.6-0.9c6.3-0.6,12.7-1,19-1.7c8.6-1,17.2-1.8,25.9-1.2c5.8,0.4,11.7,0.7,17.5,1.2
		c2.6,0.2,5.2,0.5,7.7,1.5c3,1.2,6,1.6,9.2,1.5c1.6,0,3.1,0.1,4.7,0.1c0.7,0,1.5,0.4,1.9-0.4c0.2-1.2-1.1-1.9-1.1-2.9
		c0.2-4-2.6-6.7-4.6-9.5c-2.3-3.3-3.6-6.5-2.8-10.5c1.1-5.2-0.2-9.9-3.2-14.2c-1.8-2.6-3.5-5.2-5.1-7.8c-0.8-1.3-1.5-2.7-1.1-4.3
		c-0.9-1.1-1.7-2.1-2.5-3.1c-2,0.9-3.9,1.5-6.4,1.3c1.6-1.7,3.8-1.8,5.4-2.8c-1.3-1.8-1.4-3.5-0.1-5.3c0.9-1.2,0.9-2.7,0.9-4.2
		c0-4.5-0.4-9-0.9-13.4c-0.1-1.3-0.1-2.7-1.1-3.9c-3.5,1.4-6.9-0.8-10.5-0.1c0.6,5.8,1.2,11.4,1.8,17c-1.4-5.8-1.2-11.8-2.9-17.5
		c-1.8-0.9-3.5-1.3-5.5-0.7c0.9,2.6,1.7,5.2,1.5,8.4c-1.2-2.9-1.4-5.7-3-8.2c-2.4,0.6-4.6-0.5-6.8-1.5c-2-1-4-1.8-5.8-3
		c-2.4-1.7-5-2.5-7.8-2.7c-0.6,0-1.2-0.1-1.9-0.2c-4.2-0.7-8.5-0.7-12.4-2.3c-3.3-5.6-9.4-13.3-12.1-15.1c-3.3,1.7-6.6,3.5-10.2,4.5
		c-1.1,0.3-1.7,1-1.6,2.3c5,1.9,9,5.1,11.6,10c1.7-0.2,2.7,0.9,3.6,2.1c1.7,2.3,2.9,4.8,3.4,7.6c0.3,2,0.6,3.9,0.9,5.8
		c-1.7,2.9-0.8,6.1-1.4,9.1c-0.7,3-2.4,5.8-1.7,9c-1.1-0.1-1.3,0.7-1.6,1.5c-1.2,2.7-2.4,5.3-4.2,7.7c-3.1,4.1-6.9,6.9-12.3,7.1
		c-1.7,0.1-3.3,0.2-5,0.4c-5.2,0.8-10.2,0-15.1-1.8c-11.7-4.4-21.4-11.6-29.7-20.7c-0.8-0.9-1.6-2-2.1-3.1c-2.4-4.9-4.1-10-4.9-15.4
		c-0.5-3.3-0.7-6.7-0.3-10.2c-1.6,0.9-2,2.1-2.1,3.5c-0.1,2.9-0.1,5.9-0.5,8.7c-1.1,7.4-2.4,14.8-5.8,21.3
		C411.9,303.6,413.8,308,415.8,312.4z M793.5,181c0.1-3.5-1.1-6.4-2.7-9.1c-0.4-0.7-1-1.3-1.2-2.2c-0.9-3.7-5.2-5.4-8.5-3.4
		c-1.6,0.9-3.2,1.5-4.9,1.9c-4.3,1.1-8.7,2.2-13.1,3.1c-6.4,1.4-12.8,3.2-19.4,2.5c-1.6-0.2-3.1-0.1-4.7-0.3
		c-10.1-0.9-20.2-1.2-30-3.8c-1.6-0.4-3.3-0.6-4.9-0.9c-8.3-1.5-16.6-2.8-25.1-2.5c-3.1,0.1-6.2-0.6-9.3-0.7c-1.5,0-2.6,0.7-4.1,0.6
		c-6.1-0.5-11.8-2.2-17.7-3.6c-4.3-1.1-8.4-1.3-12.2,1.4c-0.3,0.2-0.5,0.4-0.8,0.5c-4.1,0.9-6.8,3.8-9.5,6.6
		c-3.5,3.7-6.5,7.8-10.4,11.3c-2.1,1.9-3.6,4.2-4.6,6.9c-1.4,3.8-3.1,7.5-4.6,11.1c4.3,5.2,8.8,9.7,14,13.6
		c3.7,2.7,7.4,5.4,11.1,8.1c1.4,1,2.9,2,4.2,3.3c3.1,3.3,6.8,5.8,10.6,8.1c2.1,1.3,4.3,2.5,7,3.3c0.1-5.3,0.9-10.3,1.6-15.4
		c0.1-0.6,0.2-1.2,0.2-1.9c-0.2-4.7,0.6-9.1,3.6-12.9c0.2-0.2-0.1-0.8,0.7-1.2c1.5-1,3.1-0.3,4.8,0.9c5.3,3.8,11.5,5.9,17.7,6.4
		c10,1,20.2,0.9,30.2-0.3c2.4-0.3,4.9-0.3,7-1.4c4.3-2.4,8.9-4,13.7-5c8-1.7,15.8-4.6,23.9-6.1c2.7-0.5,5.3-1.2,7.8-2
		c8.8-2.9,17.8-5.2,27-6.6c1.7-2.2,2.6-4.6,2.4-7.5c-0.8,2.3-2.8,3.5-4.8,4c-1.8,0.5-3.9,0-5.9,0.2c2.2-2,4.9-2.7,7.3-2.9
		C791.5,183.8,790.7,181,793.5,181z M534.3,161.2c-1.4,1.3-2.4,2.6-3.7,3.4c-3.1,2-5,4.8-6.3,8.2c-2,5.2-3.7,10.4-2.3,16.1
		c0.4,1.7,0.5,3.5,0.6,5.3c0.6,6.4,1.3,12.8,3.5,19c1,3,1.6,6.2,2.3,9.1c9.9,4.2,20,5.7,30.5,6.4c-0.9-3.4-2.4-6.2-3.4-9.2
		c2.3,2.8,3.8,6.1,5.4,9.4c9.7,0.8,19.2,2,28.7,3.3c2.3-5,4.3-9.8,5.3-15.1c-1.8-2.2-4-4.1-5-7c-0.1-0.5-0.6-0.8-1-1.2
		c-5.3-4.9-9.7-10.6-14.8-15.7c-0.4-0.4-1.1-0.7-0.5-1.6c1.1,0.8,2.2,1.6,3.2,2.4c3.6,3,7.6,5.3,12.3,6.5c2.3,0.6,4.8,0.2,7.1,1.1
		c1.6,0.6,3.1,0.4,4.5-0.5c2.4-5.2,4.9-10.4,7.9-15.2c0.7-1.1,1.2-2.5,2.3-2.8c1.8-0.6,2.5-2,3.6-3.3c2.1-2.6,4.2-5.2,6.2-7.8
		c0.9-1.1,2-2.2,2.6-3.5c2-4.1,5.4-5.8,9.6-6.4c0.9-0.1,1.9-0.1,2.7-1.3c-3.7,0.7-7.1,0.3-10.5,0.3c-7-0.2-14,0.1-20.9-0.4
		c-8.3-0.6-16.6-1.2-25-0.5c-1.3,0.1-2.7,0-4.1-0.1c-6.1-0.5-12.3-0.6-18.4-0.3c-5.7,0.3-11.5,0.1-17.1,1.3
		C537.8,161.4,536.1,161.8,534.3,161.2z M672,148.1c-4.2,2.2-8.5,4.3-12.9,5.9c1.3,4,5.2,4.4,7.2,6.6c0.9,0.1,1.3-0.8,2.5,0.2
		c0.5,0.4,0.6,1.8,1.1,2.7c7.1,0.6,14-0.1,20.9,0.4c6.9,0.6,13.8,1.7,20.6,2.5c0.4-1,0-1.4-0.4-1.9c-3.5-4.8-4.7-9.9-2-15.5
		c0.3-0.6,0.5-1.2,0.6-1.8c1-6.2,1.7-12.3,0.9-18.6c-1-7.4-3-14.3-7.1-20.4c-2.4-3.5-5.7-5.9-10.5-5.7c-1.8,4.8-3.5,9.5-3.5,14.6
		c0,2.2-0.4,4.4-0.6,6.5c-0.3,3.2-1.9,6.2-0.8,9.2c-0.8,1.2-2.6,1.1-2.5,2.7c0.9,1.1,2.5,1.2,3,2.5c-1.7,2.7-3.8,1.6-5.9,0.8
		c-0.8,0.6-1.6,1.1-1.7,2.1c2,1.1,4.8,1.3,5.3,4.5c-3.1,3.7-6.6,1.2-10.2,0.3c2.1,2.5,5.8,2.1,7.8,5.4
		C678.6,153.4,675.5,150.4,672,148.1z M544.4,264.7c-3.9-3.3-6.1-7.6-7.7-12.3c-0.3-1.1-1-2-1.6-3c-5.1-8.1-8.9-16.7-10.7-26.1
		c-1.3-6.7-2.6-13.5-4-20.4c-2-1.1-1.9-3.3-2.8-6c-0.5,3.6-0.9,6.5-1.4,9.3c-1.7,10.1-5.1,19.5-12,27.4c-0.7,0.8-1.3,1.6-1.7,2.6
		c-1.6,3.9-4.3,6.8-7.5,9.5c-0.6,0.5-1.5,0.7-1.6,1.7c4.6,4.5,6.1,7.1,9.2,15.2c0.9,0.3,1.8,0.7,2.5,1c5.1-0.8,9.9-0.7,14.4,1.3
		s9.2,3.9,13.7,5.9c0.9,0.4,1.8,0.7,2.7,0.5c3.2-0.8,6.3-0.6,9.6,0.3c-0.4-1.3-0.9-2.2-1.1-3.2C544.2,267.1,544.4,266,544.4,264.7z
		 M427.5,224.4c-1.2,1-1.7,2.3-1.3,4c0.5,0,0.8,0.9,1.6,0.4c-0.3-1.1-0.4-2.2,1.2-2.7c0.9,0.2,1.6,0.7,1.8,1.7
		c0,0.9-1.1,1.3-0.9,2.3c0.3,0.6,1.2,0.9,1,1.9c-0.3,0.8-0.8,1.6-1.8,1.8c-2.3-3.8-2.3-3.8-4.6-3c1.8,2,3.5,3.8,5.1,5.7
		c1.9-0.9,3.4-1.9,3.9-3.6c-0.5-4.1-1.2-7.8-3.1-11.3c-1.6,0.3-2.6-1.1-3.9-1.8c-0.5,0.9-1,1.7-0.6,2.7c0.7,0.2,1.1-0.7,2.1-0.3
		c0.6,0.7,2,1,2.3,2.6C429,225.5,428.4,224.2,427.5,224.4z M451,222c1.6-0.3,2.8-0.5,4.2-0.8c0.6-3.1,2.4-5.6,3.6-8.8
		c-2.8,0.2-5.4,0.4-7.7,0.6C450.2,216,452.5,218.8,451,222z M649.4,159.9c5.8,2.1,11.1,3.3,16.8,3.2c-2.3-2.3-5.1-3.8-7.7-5.5
		C655.6,158.3,652.8,159,649.4,159.9z M384.2,214.6c-1.4,1.2-2.6,2.5-3.3,4.2c-0.6,1.4-1.5,2.7-2.6,3.8c-1.6,1.5-2.1,3.5-1.9,5.8
		c1-3.1,3.3-5,5.9-6.6c0.3-0.2,0.6-0.2,0.8-0.4c2.2-1.6,4-3.6,4.4-6.5C386.5,214.4,385.5,214.4,384.2,214.6z M590.2,204.7
		c2.1,2.9,4,5.6,5.7,9c1.3-3.7,2.4-6.9,3.7-10.6C596.2,203.9,593.4,204.8,590.2,204.7z M420.1,195.3c-1.6-0.5-2.5-0.8-3.7-1.2
		c0.5,1,0.7,1.8,1.5,2.3C418.5,196.1,419,195.8,420.1,195.3z M390.6,201c-0.6,0.1-1.2,0-1.3,1c0.8-0.4,1,0.9,2,0.4
		C391.3,201.9,391.2,201.5,390.6,201z M409.5,196.3c1-0.7,1.2-1.3,0.9-2.3C409,194.3,409.2,195.2,409.5,196.3z M396.9,206.8
		c-0.1-0.9-0.5-1.2-1.3-0.8C395.8,206.7,395.8,207.2,396.9,206.8z M405.6,258.5c0.2,0.6,0.3,1,0.9,1.1
		C407.1,258.8,406.9,258.5,405.6,258.5z M416.9,249.4c0.7-0.1,1-0.4,0.9-1c0-0.3-0.2-0.3-0.4-0.2C417,248.4,416.8,248.7,416.9,249.4
		z"/>
	<path d="M572.4,279.4c-0.7,4.9-2,9.3-1.6,13.7c0.8,1.4,2.2,2.3,3.2,3.5c1.9,2.2,3.7,4.5,4.8,7.2c0.9,2.1,0.6,2.9-1.5,4.4
		c-1.3-0.1-2.3-0.9-2.9-2c-2.8-4.9-6.1-9.4-9.2-14.1c-0.2-0.3-0.2-0.8-0.3-1.1c1-1.5,2.1-0.4,3-0.1
		C569.9,281.2,569.9,281.2,572.4,279.4z"/>
	<path d="M540.5,611.2c-0.6-0.8,0.1-1.4-0.5-1.9c-4-1-8.3-0.7-11.8-1.1c-1.5-0.7-0.5-1.5-1-2.1c-0.2-0.1-0.5-0.3-0.7-0.3
		c-3-0.1-6-0.5-9-1.2c-1.3-0.3-2.7-0.2-4,0.1c-2.5,0.5-5.1,0.9-7.7,0.9c-0.7,0-1.5,0.2-2-0.5c-0.3-0.7,0.1-1.3,0.8-1.4
		c8.1-2.1,16.1-3.2,23.8,1.6c0.4,0.3,0.8,0.7,1.2,1.1c3.4-0.2,6.8,0,10.2,0.6c1,0.2,1.8-0.2,2.7-0.5c4.6-1.3,9-1.3,13,2.6
		c-1.4,0.3-2-0.7-3-1c-2,0.4-4.2,0.1-6.4,0.1C543.8,608.4,541.7,608.7,540.5,611.2z"/>
	<path d="M570.1,677.1c-2.2-1-3-2.6-2.5-5c0.4-2,0.4-4.1,0.8-6.2c1.1-6.9-0.4-13.4-2.8-19.8c-0.6-1.6-1.1-3.1-1.5-4.7
		c-0.2-0.8-0.3-1.7,1-2.1c1.1,4.7,3.9,8.6,5.3,13.1c1.2,3.8,1.8,7.7,1.6,11.7C571.7,668.5,571.5,673,570.1,677.1L570.1,677.1z"/>
	<path d="M603.1,662.7c-2.7-2-6-2.9-8.8-4.6c-0.8-0.5-2-0.6-2.3-2.1c2.9,0.9,5.3,2.4,8,3.5c0.5-0.6,0-1-0.2-1.4
		c-0.8-2.7-0.5-3.3,2.1-4.6c0.8-0.4,1.6-0.9,2.4-1.3c0.6-2.5-0.6-4.8-0.6-7.2c0-2.3-0.6-4.7,1.1-6.8c-0.2,3.8,0.5,7.4,1.1,11.1
		c0.5,3.2,0.2,3.6-2.6,5.2c-0.7,0.4-1.6,0.6-2.3,1.5c0.2,2.5,1.3,4.5,3.9,5.6c4.3,1.9,8.6,3.8,12.8,5.6c0.6,0.2,1.2,0.4,1.6,1.2
		c-2.1,0.1-3.8-0.8-5.6-1.4c-2.1-0.8-4.2-1.8-6.3-2.8c-1.2-0.5-2.3-0.9-3.6-0.7C603.7,663.2,603.4,662.9,603.1,662.7z"/>
	<path d="M592.6,319.1c1.3,2.2,2.1,4,2.7,5.9c1.4,4.7-1.4,9.1-6.2,10c-1.7,0.3-3.5,0.4-5.3,0.4c-2.5,0-5.1,0.1-6.5,3.1
		c-0.8-2,0.2-2.8,1.1-3.5c1.1-0.8,2.4-1.2,3.7-1.4c1.9-0.3,3.7-0.4,5.5-0.8c3.4-0.7,4.8-2.3,4.9-5.8
		C592.7,324.5,592.6,322.2,592.6,319.1z"/>
	<path d="M560.1,610.8c-0.7,5.7-2.4,11.2-4.5,16.3c0.8,2.6,2.4,4.3,4.4,5.7c1.7,1.2,2.6,2.7,2.8,5.4c-3.7-3.6-8.2-5.7-9.5-10.9
		c2.4-5.3,3.8-11.1,5.4-16.8c0.8-0.4,1,0.3,1.5,0.4L560.1,610.8z"/>
	<path d="M594.3,647.2c-4.7-1.1-9.3-1.2-13.2-3.7c-0.3-0.2-0.7-0.5-0.9-0.8c-0.2-0.2-0.2-0.6-0.3-0.8c0.3-1.2,1.2-1.5,2.2-1.3
		c4.4,0.8,8.7,1.9,11.9,5.5C594.2,646.2,594.2,646.4,594.3,647.2z"/>
	<path d="M562.6,262.2c-0.5-1.6,0-2.6,1-3.2c3-1.9,6.2-3,9.6-0.4c1.4,1.1,3.3,1.7,4.3,3.5c-0.8,1.4-1.8,1.7-3.1,0.9
		c-0.5-0.3-1-0.7-1.5-1.1C569.2,258.7,566.5,258.7,562.6,262.2z"/>
	<path d="M554.4,269.1c0.5,1.3,1.9,1.8,1.8,3.8c-1.5-1.8-3.3-2.7-3.7-4.9c-1.5-0.6-3.4-0.5-4.6-2.4c2.7-0.6,4.8,1.1,7.3,1.2
		c1.5-0.7,2.9-1.9,4.6-3.2c-2.7-1.2-5.7-0.9-8.6-2.7c3.7,0.6,6.9,0.9,10,2.1C560,266.3,556.9,267.3,554.4,269.1z"/>
	<path d="M587.2,305.8c-5.7-4.5-11.2-15.9-10.6-21.6c1.6,3.6,2.5,7.6,4.5,11.1C583.2,298.8,585.2,302.3,587.2,305.8z"/>
	<path d="M591.6,323.3c-3.7-2-7.7-1.7-11-3.7c1.1-2.2,1.9-2.6,4.5-2C589,318.4,591.4,320.3,591.6,323.3z"/>
	<path d="M632.2,272.9c5.4,6.8,12.1,12.5,16,20.9C646,292,632.7,275,632.2,272.9z"/>
	<path d="M578.2,652.1c-0.8-0.1-0.8,0.3-0.8,0.9c0.1,2.2,0.5,4.3,1,6.5c0.7,3.2,1.6,6.4,2.3,9.7c0.3,1.2,0.7,2.6-0.2,4
		c-2.2-7.3-3.3-14.7-4-22c-2-2.3-4.5-4.2-4.8-7.5c1.3,1.2,2,2.9,3.1,4.2C575.9,649.2,577.6,650.2,578.2,652.1L578.2,652.1z"/>
	<path d="M567.9,288c-1.9-3.4-2.6-6.4-0.8-9.4c0.6-0.9,0.2-2.1,1-3c2.6-1,5.9-0.5,8.3-2.6c-1.1,3.4-4.2,3.1-7,3.7
		c-0.9,1.6-1.6,3.3-1.7,5.2C567.6,283.7,568.4,285.5,567.9,288z"/>
	<path d="M393.4,235.1c0.4,0.8,0.6,1.1,0.7,1.5c0.1,0.3,0,0.6,0,0.9c-4,2.7-7.3,6.1-10.3,10.1c-0.3-1.9,0.3-3.4,1.6-4.7
		C387.9,240.3,390.5,237.8,393.4,235.1z"/>
	<path d="M490.3,229.5c1.1-1.7,2.1-3.2,2.9-4.8c0.9-1.6,1.7-3.3,2.6-5.1c-0.7-1.7-0.3-3.5-0.4-6C497.9,220.8,495.1,229,490.3,229.5z
		"/>
	<path d="M489.4,289.4c-1.3-3-3.2-5.8-3.9-8.9c0.9-1.2,1.8-1.1,2.4-0.2C489.9,283,490.1,286.1,489.4,289.4z"/>
	<path d="M619,254.2c-0.5-0.4-0.3-1-0.1-1.4c2.5-7.6,5.1-15.1,7-22.8C626.2,232.3,620.6,251.4,619,254.2z"/>
	<path d="M470.2,246.4c-1.2-3.5-2.4-13.6-1.9-15.5c1.2-0.1,1.3,0.8,1.5,1.6C470.4,236.9,470.9,241.4,470.2,246.4z"/>
	<path d="M605.1,636.5c-2.1-7.4-4.5-14.8-4.7-22.6C600.9,614.9,605.2,634.4,605.1,636.5z"/>
	<path d="M385.1,225.6c-0.5,4.3-4.1,6.5-6.3,9.9c-0.8-1.6-0.1-2.7,0.7-3.6c2.5-2.8,3.3-7.1,7.7-8.5
		C387.2,225,385.5,224.7,385.1,225.6z"/>
	<path d="M603.1,662.7c0.3,0.2,0.5,0.5,0.8,0.7c1.5,0.8,2.5,2.1,3.6,3.3c1.4,1.5,1.3,3.1-0.1,4.7c-0.8,0.9-1.5,1.3-4.5,2.5
		c0.9-2.2,3.4-2.7,4-5c-0.6-2.5-3.3-3.7-4.6-5.7C602.5,662.8,602.8,662.7,603.1,662.7z"/>
	<path d="M522.7,666c-3.6,6.5-9.6,12.8-13.2,13.3c5.4-3.5,8.7-9,12.9-13.6C522.5,665.8,522.6,665.9,522.7,666z"/>
	<path d="M575.4,613.2c6.7,0.9,13.4,1.8,20.1,2.8c-0.1,0.4-0.1,0.5-0.1,0.5C588.6,616.1,581.9,615,575.4,613.2z"/>
	<path d="M580.6,648.8c2.2,1.3,9.5,10.2,10.4,12.7C587.2,657.8,583.8,653.8,580.6,648.8z"/>
	<path d="M431.4,289.5c3.2,1.2,6.3,2.4,10.2,1.5C437.8,293.9,433.6,293.2,431.4,289.5z"/>
	<path d="M602.2,302.5c-3.2,2.9-5.6,6.4-7.6,10.5C594.2,309.8,598.7,303.6,602.2,302.5z"/>
	<path d="M492.6,635.1c-2.6,4.4-4.3,5.7-6.7,5.4C486.6,638.4,488.7,636.7,492.6,635.1z"/>
	<path d="M646,269.3c3.5,3.7,7.3,7.1,10.9,10.7C654.2,278.9,648.1,273,646,269.3z"/>
	<path d="M597.7,314.9c4,2.4,7.8,5.2,11.8,7.7C604.9,321.2,601.2,318.3,597.7,314.9z"/>
	<path d="M567.3,307.1c2.5,3.8,3.5,8.2,4.8,12.4C570.1,315.6,568.4,311.5,567.3,307.1z"/>
	<path d="M593.6,626.4c-2.1,1-3.7,0.1-5.2-0.2s-3-0.8-4.5-1.3C588,624.3,590.4,624.6,593.6,626.4z"/>
	<path d="M604.1,657c3-1.4,6.3-2,9.6-2.2C610.6,656.4,607.6,657.8,604.1,657z"/>
	<path d="M590.5,297.3c-3.3-2.5-4.9-6.3-6.8-9.9c2,0.9,2.4,3.1,3.5,4.7C588.3,293.8,589.4,295.6,590.5,297.3z"/>
	<path d="M594.6,353.9c-3.3-2.1-6.3-4.5-8.8-8.3c1,0.6,0.4,0.2,0.8,0.1c0.1,0,0.2,0,0.3,0.1C589.2,348.7,592.1,351.1,594.6,353.9z"
		/>
	<path d="M499.1,604.5c1.4-0.1,2.2,0.8,2.1,1.8c-0.1,1.5,1.6,1.3,1.7,2.5c-0.2,1-0.4,2.2-0.7,3.7c-1.3-1.4-0.7-3-1-4.3
		C500.7,606.8,499.7,605.9,499.1,604.5z"/>
	<path d="M532.3,623.1c0.2,3.4-2,6.5-1.5,10C529.1,629.4,531.4,626.4,532.3,623.1z"/>
	<path d="M469.1,276.3c-1.2-2.7-1.8-5.3,0.5-7.6C469.7,271.2,469.2,273.8,469.1,276.3z"/>
	<path d="M603.8,589.7c-2.7,0.9-5.3,1.1-8.6,0C598.5,589.7,601.1,589.7,603.8,589.7z"/>
	<path d="M581,619.5c-2.7,1.1-5.4,0.4-8.1,0.7C575.5,619.5,578.2,618.5,581,619.5z"/>
	<path d="M510.7,185.9c0.7,3.3,0.4,4.4-1.4,6.7C509.3,190.2,509.5,188,510.7,185.9z"/>
	<path d="M614.9,260.8c-2.3-3.1-3.3-6.4-5.1-9.9C612.4,253.8,614.4,257.8,614.9,260.8z"/>
	<path d="M583.6,574c1.5,2.5,3.1,5,4.7,7.7C585.9,580.3,584.3,577.7,583.6,574z"/>
	<path d="M609.4,286.6c-0.4,3.4-1.4,6.6-2.3,9.9C607.5,293.1,607.7,289.7,609.4,286.6L609.4,286.6z"/>
	<path d="M580,633.2c2.1-0.1,4.2-0.1,6.7,1.1C583.8,635.1,582,633.8,580,633.2z"/>
	<path d="M525,672.7c-0.6,2.5-2.2,4.2-4.2,5.7C522,676.3,523,674.2,525,672.7L525,672.7z"/>
	<path d="M601.4,674.9c-1.9,1.3-4.1,0.9-6.6,1.4C596.5,675.1,597.8,674.8,601.4,674.9z"/>
	<path d="M504.2,596.4c-1,1-1.5,2.9-3.7,2.2C501.1,596.8,502.6,596.6,504.2,596.4z"/>
	<path d="M422.5,212c1.7-1.4,1.7-1.4,4.9-1.6C425.9,211.7,424.6,212.6,422.5,212z"/>
	<path d="M610.2,270.9c1.1,1.7,1.9,3.3,2.5,5.3C610.8,274.6,610.5,274,610.2,270.9z"/>
	<path d="M404.6,216.8c-0.6,2.1-2.9,1.8-4.2,3.6C400.6,219.4,402.2,218.1,404.6,216.8z"/>
	<path d="M548.8,624.6c0.2-2.1,1.3-4,2.3-5.8C550.6,620.8,550.4,622.9,548.8,624.6L548.8,624.6z"/>
	<path d="M492.4,293.5c-1-1-1.8-2.1-2-3.7C492.4,290.7,492.4,290.7,492.4,293.5L492.4,293.5z"/>
	<path d="M473.5,299.9c1.2,1.4,1.5,2.8,0.4,4.8C473.3,302.9,473.9,301.4,473.5,299.9z"/>
	<path d="M548.8,624.5c0,1.9-0.9,3.5-1.6,5.2C547.2,627.8,547.4,626,548.8,624.5L548.8,624.5z"/>
	<path d="M445,290.1c1.4-0.9,2.3-1.1,3.5-0.7C447.7,290.8,446.8,291,445,290.1z"/>
	<path d="M573.2,599.8c-1.6,1-2.6,1.1-4.2,1C570.3,599.7,571.2,599.3,573.2,599.8z"/>
	<path d="M395,218.8c-0.6-1.5-0.6-1.5,1.5-2.3C396.2,217.8,396.2,217.8,395,218.8z"/>
	<path d="M454.2,286c0.3-1.6,0.6-2.6,2.3-3.1C456.4,284.5,455.5,285.1,454.2,286z"/>
	<path d="M613.5,271.5c-0.5-1.6-0.2-3.1,0.6-4.8C614.7,268.6,613.4,270,613.5,271.5z"/>
	<path d="M486.7,192.5c0.3-1.2,1.1-1.8,2.7-2.2C488.5,191.6,487.7,192.1,486.7,192.5z"/>
	<path d="M468.6,250c-0.1-1.2-0.4-2.2,0.8-2.9C469.6,248.5,469.6,248.5,468.6,250z"/>
	<path d="M413.8,231.8c-1,1.2-1.7,1.8-3.2,2.2C411.3,232.3,412.2,232.1,413.8,231.8z"/>
	<path d="M406.9,272.3c-0.9-0.9-1.1-1.7-0.1-2.7C407.9,270.5,407.6,271.3,406.9,272.3z"/>
	<path d="M496.4,209.6c0.6,0.5,0.7,0.8,0.5,1.2c-0.2,0.5-0.2,1-0.9,1.1C495.8,210.8,495.8,210.8,496.4,209.6z"/>
	<path d="M499.4,203.2c-0.1-1.1,0.7-1.6,1.6-2.1C501.2,202.5,499.9,202.6,499.4,203.2z"/>
	<path d="M497.7,206.5c0.2,0.7-0.1,1.1-0.7,1.4C496.3,206.7,496.3,206.7,497.7,206.5z"/>
	<path d="M524.4,663.3c-0.1,1.2-0.9,1.9-1.7,2.7c-0.1-0.1-0.2-0.2-0.3-0.3C522.8,664.7,523.2,663.7,524.4,663.3L524.4,663.3z"/>
	<path d="M552.2,616.8c-0.1-0.3-0.2-0.4-0.1-0.5c0.2-0.6,0.4-1.1,0.7-1.7c0.1-0.3,0.4-0.2,0.3,0.1c-0.1,0.6-0.4,1.1-0.6,1.7
		C552.4,616.5,552.4,616.5,552.2,616.8z"/>
	<path d="M466.7,227.2c-0.7-0.8-0.8-1.3-0.4-2.1C466.9,225.6,467.3,226.1,466.7,227.2z"/>
	<path d="M395.7,223.2c0,1.1-0.1,1.8-1.1,2.1C393.9,224.1,394.6,223.8,395.7,223.2z"/>
	<path d="M398.5,220.7c-0.2,1.2-0.7,1.5-1.6,1.7C396.5,221.1,397.2,220.9,398.5,220.7z"/>
	<path d="M644.4,267.5c-0.8-0.3-1.1-1-1.4-1.4C643.8,266,643.9,266.8,644.4,267.5z"/>
	<path d="M406.7,266.4c0.4,0.2,0.5,0.6,0.3,1c-0.1,0.2-0.4,0.4-0.5,0.6c-0.7-0.4-0.6-1-0.3-1.5C406.3,266.4,406.5,266.4,406.7,266.4
		z"/>
	<path d="M452.9,286.5c-0.7,0.6-1.5,0.3-2.3,0.2C451.6,286,451.6,286,452.9,286.5z"/>
	<path d="M470.8,308.4c0.7,1,0.1,1.5-0.1,2.1C470.3,309.9,470.6,309.3,470.8,308.4z"/>
	<path d="M505.8,196.5c0-0.8,0.5-1.3,1.1-1.6c0.6,0.5,0.2,0.8-0.1,1.2C506.6,196.3,506.3,196.6,505.8,196.5z"/>
	<path d="M405.2,232.6c-0.3,1.2-0.8,1.5-1.6,1.7C403.4,233.2,404.1,233,405.2,232.6z"/>
	<path d="M406.2,231.7c0.2-0.8,0.3-1.4,1.2-1.2C407.5,231.2,407.2,231.6,406.2,231.7z"/>
	<path d="M525.7,609.1c-0.4,0.9-0.9,1.1-1.7,0.9C524.3,609.1,524.9,609.2,525.7,609.1z"/>
	<path d="M495.5,631.9c-0.3,1-0.5,1.6-1.3,1.2C494.2,632.5,494.7,632.3,495.5,631.9z"/>
	<path d="M399.6,215c-0.1,0.5-0.4,0.8-0.8,0.8c-0.5-0.5-0.2-0.8,0.1-1C399.2,214.6,399.5,214.7,399.6,215z"/>
	<path d="M525,672.8c-0.1-0.6,0.2-1,0.9-1.4C525.7,672,525.7,672.6,525,672.8L525,672.8z"/>
	<path d="M498.1,630.2c0,0.6-0.4,0.9-0.9,1.1C496.6,630.2,497.1,630,498.1,630.2z"/>
	<path d="M531.5,674.5c-0.2-1.1,0.2-1.3,0.5-1.5C532.6,673.7,531.8,673.9,531.5,674.5z"/>
	<path d="M499.9,626.1c0.3,1.2,0.1,1.7-0.7,1.6C498.7,627,499.3,626.8,499.9,626.1z"/>
	<path d="M636.6,305.3c0.5,0,0.7,0.2,0.6,0.7C636.7,306,636.5,305.9,636.6,305.3z"/>
	<path d="M556.1,614.5c0.3,0.5,0.4,1,0,1.4C555.7,615.4,555.7,614.9,556.1,614.5z"/>
	<path d="M406.2,293c-0.7-0.6-0.5-1.2,0-2C406.9,291.7,407,292.3,406.2,293z"/>
	<path d="M609.5,286.7c0-0.7,0.1-1.3,0.1-2.2C610.1,285.5,609.8,286.1,609.5,286.7L609.5,286.7z"/>
	<path d="M578.1,652.2c0.6-0.1,1.1,0.1,1.4,0.7C578.8,653,578.6,652.4,578.1,652.2L578.1,652.2z"/>
	<path d="M436.2,207.7c0.3-0.8,0.5-1,1.1-1C437.5,207.4,437,207.4,436.2,207.7z"/>
	<path d="M525.7,661.5c0-0.6,0.3-1.1,0.9-1.3C526.5,660.8,526.3,661.3,525.7,661.5L525.7,661.5z"/>
	<path d="M524.4,663.4c0-0.9,0.4-1.5,1.3-1.9l-0.1-0.1C525.6,662.3,525.3,663,524.4,663.4L524.4,663.4z"/>
	<path fill="none" d="M404.8,606.5c-3.6-0.8-7.1-0.8-10.6,0.8c-1.8,0.9-4,1-6.1,0.4c-2.3-0.6-4.5,0-6.7,0.9c-1,0.4-2.1,0.8-3.1,1.2
		c-0.6-1.1,0-2.8-1.9-3.6c-0.4,12,0,23.5,6.9,33.3c0.2,1.3-0.9,1.7-0.8,2.6c0.1,0.6,0.4,0.9,1.2,1.2c2.7-1.6,5.6-3.3,8.6-5.1
		c2.8,0,5.8,0,8.8,0c1.6,0,3.3-0.1,4.8,1c0.4,0.3,1,0.3,1.5,0.3c3.4,0.3,6.8,0.7,10.9,1.1c-4.1-3.1-8.7-1.8-12.6-3.2
		c-0.2-1,0.6-1.2,1.2-1.6c2.6-2,5.5-3.2,8.6-4.4c3.5-1.3,7-2.8,10.7-4.3c1.1,0.6,2.4,0.6,3.9,0.1c3.3-1.2,6.8-1.9,10.3-2.4
		c2.6-0.3,4.9-0.2,7.3,0.7c5.4,2,10.6,4.4,15.1,8c1.4,1.1,2.8,2.1,4.2,3.1c0.1,3.7,4,4.5,5.2,7.2c-2.9,2.5-6.6,2-10,2.3
		c-1.9,0.2-3.8,0.1-5.6,0.2c-1.3,0.1-2.5,0.4-2.8,1.9c0.7,1.6,2.2,1.2,3.3,1.3c6.3,0.4,12.5-0.1,18.6-1.2c7.6,8.1,9.8,28.1,0.4,36.3
		c-2.9,0.1-5.8,0.9-8.7,1.3c-4.5,0.7-8.9,0.2-13.4-0.3c-5.2-0.5-10.4-1.2-15.4-2.8c-3.7,2-7.7,2.9-11.9,3.1
		c-3.1,0.2-6.1,1.2-9.1,2.1c-4.3,1.3-8.7,2-13.1,2.8c-2.9,0.5-5.6,1.4-8.6,1s-6-0.7-9-1.2c-2.5-0.4-5-0.9-7.7-0.8
		c-2.5,0.1-5.1-0.8-7.6-1.6c-3.8-1.3-7.6-2.8-11.4-4.3c-1.6-0.6-2.9-1.6-3.9-3c-0.8-1.2-2-2.2-3.1-3c-1.3-0.9-2.4-2-3.4-3.2
		c-0.8-1-1.2-2.1-1.2-3.4c0.2-7.7-0.5-15.4-1.5-23c-0.6-4.6-0.1-9,1.8-13.4c3.9-9.3,7.5-18.8,8.7-28.9c0.3-2.2,1.2-4.2,2.6-5.9
		c3.9-4.8,7.2-9.9,9.7-15.6c1.7-4,4.4-7.5,6.3-11.6c1.7,1,2.2,2.6,2.5,4.3c0.7,3.8,1.8,7.5,3.8,10.8c-0.6,2.5-0.6,2.5,0,4.5
		c1-0.7,0.1-2,0.9-2.9c1.5,0.6,2.5,1.9,3.5,3.2c1.8,2.3,3.7,4.5,6.6,5.5c0.9,0.3,1.7,1.2,2.4,1.9c2.4,2.8,5.6,4.4,8.8,6.1
		L404.8,606.5z M454,650.6c1.5,1.6,16.1,10.2,18.5,11C467.1,656.6,461,653.6,454,650.6z M420.1,656.2c4.1,1.8,8.8,2.2,11.7,1
		c-1.3,0-1.8-1-2.8-1.4C426.1,655.9,423.2,656.1,420.1,656.2z M434.7,675.7c-0.1-2.2-1.3-3.8-2.1-5.6c-2-4.2-2-4.1-3.9-4.4
		C430.7,669.1,432.7,672.4,434.7,675.7z M366.1,673.7c1.7,2.6,5,3.1,8.6,1.1c-1.6-0.1-3.1-0.2-4.5-0.2
		C368.8,674.5,367.7,673.1,366.1,673.7z M350.4,671.3c1.6,1.8,3.5,2.3,6.1,2.1C353.1,670.5,352,670.1,350.4,671.3z M384,644.2
		c-0.5,3.2,0.1,6.3,1.5,7.8C385.7,649.1,385.4,646.6,384,644.2z M382.6,594.8c-2.4,0.9-4.8,1.7-6.7,3.3
		C378.9,598.6,380.7,596.5,382.6,594.8z M418.2,641c2.4,2.3,4.7,2.8,7.2,2.3C423.4,642,421.2,641.4,418.2,641z M391.1,671.8
		c2.6,0.8,4.2-0.8,5.7-2.7C395.1,670.5,392.8,670.4,391.1,671.8z M427.7,644c1.7,1.2,1.7,1.2,3.5,0.7
		C430.2,643.9,429.1,643.9,427.7,644z M363.7,669.6c-2.4,0.7-2.4,0.7-2.5,2.3C362.1,671.4,363,670.9,363.7,669.6z M437.6,647.2
		c-1.4-1.3-2.6-1.7-4.7-1.8C434.7,646.3,435.7,647.4,437.6,647.2z M410.5,655c1,0.5,1.7,1.7,2.9,0.1
		C412.5,654.5,411.7,654.3,410.5,655z M435.7,656.7c1.1,0.5,1.8,0.5,2.6-0.2C437.2,655.6,436.5,655.7,435.7,656.7z M376.8,589.1
		c0.1-1.3-0.3-2.1-1.3-2.8C375.4,587.6,375.8,588.2,376.8,589.1z M448.8,647.4c0.4,0.9,0.9,1.1,1.8,0.5
		C450.1,646.9,449.5,647.1,448.8,647.4z M406.5,654.9c-0.9-0.4-0.9-0.4-1.6,0.2C405.5,655.3,406,655.5,406.5,654.9z M400.9,655
		c-0.7-0.5-1.2-0.5-1.6,0C399.7,655.9,400.2,655.9,400.9,655z M408.4,662.8c-0.5,0-0.9,0-1.1,0.1c-0.3,0.2-0.8,0.4-0.2,0.9
		C407.6,663.9,408,663.6,408.4,662.8z M384.4,672.5c-0.6-0.9-1.1-0.9-1.8-0.2C383.3,672.8,383.7,672.9,384.4,672.5z M377.5,674.4
		c0.9,0.5,1.6,0.6,2.4-0.4C378.8,673.7,378.1,673.6,377.5,674.4z M435.1,677.7c0.4,1.1,0.6,1.9,1.6,1.7
		C436.8,678.5,436.3,678.1,435.1,677.7z M375.9,601.9c0.1,1.4-0.5,2.2,0.5,2.9c0.4-0.3,0.5-0.7,0.5-1.1
		C376.9,603.2,376.8,602.7,375.9,601.9z M377.5,581.4c-0.2,0.9,0,1.3,0.7,1.4C378.3,582.2,378,581.9,377.5,581.4z M370.3,596.1
		c0.3,0.9,0.3,1.2,0.5,1.4s0.5,0.7,0.9,0.2C371.7,597.1,371.2,596.9,370.3,596.1z"/>
	<path fill="none" d="M537.6,502c0.4-0.3,0.9-0.5,1.3-0.8c5-2.2,8.7-6,12.2-10c0.9-1,1.7-1.8,2.9-2.2c3.7-1.3,7.4-2.7,11.2-3.8
		c4.7-1.3,9-3.1,13-5.8c2.7-1.8,5.8-2.9,8.5-4.6c8.6-5.2,18.1-8.4,27.7-11.3c5-1.5,9.9-3.4,14.3-6.2c5.6-3.5,11-7.1,16.5-10.7
		c1.7-1.2,3.2-2.7,4.5-4.4c2.9-3.9,6.8-6.7,9.8-10.6c3.3,1.9,6.5,1.3,9.4-0.1c2.7-1.3,5.8-2.5,6.6-5.7c3.4,0.1,5.8,1,7.4,3.5
		c0.4,0.6,1,1,1.6,1.5c3.7,3.3,4,8.1,0.9,12c-2.3,2.9-5.4,4.8-8.2,7.2c-3.6,3.2-7.2,6.3-10.8,9.5c-1.6,1.4-2.9,3-4.2,4.6
		c-3.8,4.9-8.6,8.8-12.6,13.4c-1.3,1.5-2.8,2.9-3.9,4.5c-6.1,8.2-13.2,15.6-20.2,23c-0.8,0.8-1.5,1.7-2.6,2.2
		c-4.9,2.5-9.9,4.8-15.4,6c-2.6,0.6-5.3,1.3-7.9,2c-2.5,0.7-5,1.5-7.8,1.1c-0.5,1.8-2,2.2-3.4,2.8c-1.1-0.8-0.9-2.1-1.1-3.2
		c-2.2,2.7-2.1,8.1,0.4,10.1c0.9,0.8,1.6,1.6,2.1,2.6c2.4,4.2,5.6,7.7,9,11.2c7.8,8.1,14.5,17.2,20.7,26.6c0.2,0.2,0.2,0.6,0.3,1
		c-5.2,0.1-10.2-0.4-15.5-1.5c-1.3-5.7-4.1-10.7-8.7-14.6c2.5,4.1,2.5,9,4.8,13.5c-2.8,0-5-0.7-7.3-1.4c-6.7-2.2-13.5-4.3-20.2-6.6
		c-6.8-2.3-13.9-3.6-20.9-5.3c-4-0.9-7.7-2.3-11.6-3.9c-2-7.2-4-14.3-5.9-21.4c-1-3.8,0.2-7.4,0.8-11.1
		C536.1,510.8,537.3,506.5,537.6,502z M679.1,428.8c1.9,4.2,1.4,8.2-0.7,12.2c1.1-0.9,2.1-1.9,3.6-2.1c1.2,1.2,0.5,3.4,2.2,4.2
		C686.8,439.6,684,431.3,679.1,428.8z M607.7,483.7c-3.9,1.6-11.2,7.6-13.3,10.7c-0.5,0.7-0.5,1.3,0.7,1.8
		C599.5,492.4,602.9,487.4,607.7,483.7z M559.1,495.6c-3.4,0.3-4.5,2.5-5.4,4.8c-0.5,1.2-0.3,2.2,1.3,2.8
		C557.5,501.5,559.1,499.2,559.1,495.6z M593.5,549.6c0.5-3-1.2-4.9-3.4-7.4C590.3,545.6,591.5,547.8,593.5,549.6z M587.1,514.3
		c1.7-2.2,1.8-2.8,0.6-5.6C586.9,510.5,585.8,512,587.1,514.3z M610.5,483.1c2.3-1.3,3.6-2.4,4.7-4.8
		C612.9,479.5,611.2,480.3,610.5,483.1z M558.8,515.1c-0.1,0.2-0.3,0.4-0.4,0.5c1.3,1.1,2.5,2.1,3.8,3.2
		C561.6,517,560.6,515.6,558.8,515.1z M553.6,510.9c-1.3-1.6-2.5-1.9-4.5-1.4C550.7,510.4,551.5,511.6,553.6,510.9z M617.3,476.9
		c1.8-0.1,2.4-1.1,3.6-2.4C619,474.8,618,475.2,617.3,476.9z M672.4,445c1.8-0.6,3.2-0.7,4.2-2.4C674.6,442.6,673.7,443.6,672.4,445
		z M561.1,491.3c-2.4,1.1-2.5,1.3-1.3,2.7C560.4,493.3,560.9,492.5,561.1,491.3z M589,541.5c0.1-1.1,0.2-2.2-1.2-3
		C587.6,539.8,588.1,540.7,589,541.5z M670.9,446.8c-2.1,1.1-2.1,1.1-2.6,2.6C669.2,448.6,670.2,448.3,670.9,446.8z M630.7,467.6
		c1.7-0.5,1.7-0.5,2.4-2.3C631.9,465.8,631.1,466.4,630.7,467.6z M626.9,470.1c-1.1,0.4-2.1,1.1-2.2,2.6
		C626.1,472.2,626.7,471.4,626.9,470.1z M665.9,451.7c-1.5,0.2-2.3,0.5-2.6,1.8C664.2,453.1,665.2,453.1,665.9,451.7z M588.7,508.1
		c1-0.8,0.9-1.5,0.5-2.4c-0.6,0.2-0.8,0.5-0.9,0.9C588.1,507.1,588.1,507.6,588.7,508.1z M585.8,534c0.2,1.8,0.2,1.8,1.1,2.7
		C587.2,535.6,586.8,534.9,585.8,534z M566.6,526.2c0,0.8,0.1,1.3,0.9,1.7C567.8,527.1,567.7,526.6,566.6,526.2z"/>
	<path fill="none" d="M421.1,622c-2.2,1.5-4.9,2.1-7.4,3.9c1.2-5.8,0.1-10.9-2.6-15.6c0.2-1,0.4-2,0.7-3.2c1.7,0.6,3.3,1.2,5,1.7
		c1.3,0.4,2.5,0.3,3.4-0.9c1-1.4,0.9-2.7-0.4-4c-0.9,0.7-0.7,2.1-1.8,2.7c-3.6,0.1-5.1-3.4-7.8-5c0.3-1.1,0.4-2,1.4-2.6
		c1.7,0.8,0.3,2.7,1.5,3.6c1,0.8,1.9,1.9,3.3,2.3c0.6-1,1.1-1.9,1.7-2.9c-0.7-1.4-2.4-1.9-2.5-3.5c-2.9-0.9-5.8-1.4-8.8-3
		c2.5-0.2,4.6,0.7,6.7,0.3c0.3-0.4,0.7-0.8,1.1-1.3c4.4,1.8,8.7,3.7,11.4,8.1c0.9-0.3,1.6-0.6,2.3-0.9c-0.1-0.7-0.5-1.2-1-1.5
		c-2.4-1.4-3.4-3.9-4.8-6.1c-0.5-0.8-0.6-1.7-0.6-2.7c0.2-3.6,0.3-7.3,0.3-10.9c0-2.3,0.5-4.5-0.1-6.8c-0.4-1.5,0.4-3.3,0.6-4.8
		c3.8-3,7.5-5.9,11.5-9c0.8-0.2,1.9,0.4,3,0.5c3.6-2.1,6-5.3,8.6-11.8c2.8,1.7,3.9,5.3,7.3,6.8c-0.2-2.4-1.8-3.5-2.9-4.9
		s-2.3-2.7-3.5-4.2c0.9-2.1,1.9-4.3,2.8-6.4c0.8-0.6,1.7-0.6,2.5-0.7c6.9-0.5,13.7-0.4,20.5,1.2c4.3,1,8.7,1.2,13,1.3
		c0.3,0,0.6-0.1,0.9,0c3.1,0.7,6.1-0.4,9.1-0.7c1.3-0.2,2.7-0.4,4-0.7c1-0.2,1.9-0.6,3.2-1.8c-5.1,0.9-9.6,0.7-14.9,1.7
		c-3.1-0.9-7.2-1.6-11.4-2c-0.7-0.1-1.5-0.2-2.2-0.3c-7.4-1.9-14.8-2.2-22.3-0.8c-0.3,0.1-0.6,0.1-0.9,0.1c-0.2,0-0.4-0.1-0.6-0.1
		c-0.6-0.6,0.3-1.7-0.6-2.2c-0.7-0.1-0.6,0.7-1,1.2c-0.4-0.7-0.3-1.6-1.2-1.6c0.2-1.4,3.1-0.6,2-2.9c-2.7,0.6-4.2,3.5-7.3,3.5
		c0.7-0.8,1.4-1.6,2.1-2.5c0.6-0.8,1.5-1.5,1.1-2.6c-0.8-0.7-1.5-0.3-2,0.2c-0.9,0.8-1.9,1.7-2.7,2.6c-1.9,1.9-4.5,2.3-7,2.7
		c0.9-1.5,2.9-1.7,4.1-3.3c-2.7,0.5-4.9,2-7.6,1.9c0.3-1.8,3.2-1.5,2.6-3.7c-1.2-0.5-1.8,0.5-2.5,1c-1.8,1.2-3.8,1.7-5.9,1.5
		c-3.3-0.3-6.6-0.7-10.2-1.1c0.7-1.2,1.8-1.5,2.8-1.9c3.9-1.9,7.9-3.7,11.7-6c1.7-1.1,3.8-1.2,5.7-1.5c0.7-0.1,1.5,0,2.2-0.3
		c5.4-2.4,11.3-3.1,16.8-5.2c7.7-2.9,15.3-5.9,23-8.8c2.2-0.8,4.6-1.4,7-1.6c1.3-0.1,2.7-0.4,4-0.8c6.7-2.3,13.6-1.7,20.4-1.1
		c3.1,0.3,6.2,0.7,9.2-0.4c2.1,1.6,4.2,3.3,6.3,4.8c1.2,0.9,1.8,1.9,2.1,3.3c0.3,1.8,0.4,3.5,0.4,5.3c0,1.6,0,3.1,0.3,4.7
		c0.8,5.2,0.4,7.1-2.5,12.1c-0.3-0.3-0.6-0.5-0.9-0.8c-0.8,0-0.7,0.6-0.9,1.1c-1.9,5-4.2,9.7-8.4,13.3c-6,5.2-12,10.4-18.8,14.4
		c-1.9,1.1-3.7,1.7-5.8,1.6c-4.5-0.1-9.1-0.1-13.3-1.4c-6.7-2.1-10.8-6-10.5-13.6c0.1-1.1,0.6-2.2,0.2-3.3c0-0.1-0.2-0.1-0.2-0.2
		c-3.4,4.4-1.4,11.5,4.9,16.7c-2.4-0.2-4.4-0.4-6.4-0.5s-3.9-1.4-5.9-1c-0.3,1,0.2,1.3,0.8,1.6c2,1,4,1.8,6.2,1.9
		c2.5,0.1,5,0.3,7.5,0.5c0.9,0.1,1.8-0.1,3.2,0.8c-5,1.4-9.5,2.7-14.2,4.1c-1-3.2-3.1-5.7-5.6-8.2c-0.2-0.7,0.7-1.3,0.6-2.4
		c-1-0.7-0.7-2.3-2-3.1c-0.7,1.1,0.4,1.8,0.4,2.7c-0.6,1.4-1.3,2.8-2,4.2c-0.6,1.4-0.9,3-1,4.7c1.8,1.3,2.3,3.6,4.1,4.9
		c2.2,1.6,4.4,3.1,6.6,4.7c1.2,0.8,2.3,1.7,3.4,2.5c-0.3,1.5-1.1,2.5-2,3c-2,1-3.4,2.6-4.4,4.3c-1.4,0.6-2.5-1.2-3.8,0.2
		c1,1.4,2.5,1.1,3.9,1.7c2-1.8,3.4-4.2,6.1-5.1c0.6,0.7,1.1,1.4,1.3,2.4c-1.9,5.3-6.4,8-11,10.6c1.3,1.7,2,2,2.9,1
		c2.3-2.6,5.3-4.3,7.6-7c0.7-0.8,1-1.8,1.6-2.8c0.9,0.5,1,1.2,0.5,2c-0.8,1.3-1.8,2.3-2.8,3.3c-1.3,1.2-2.6,2.3-3.5,3.9
		c3.9-0.6,6.6-2.9,7.8-6.6c2.1,3.5,2.1,6.7-0.2,10.2c-2.7,4.2-6.5,6-11.1,6.6c-5.8,0.7-11.6,1.2-17.4,1.6c-2.6,0.2-5.1,0.7-7.7,1.8
		c-2.7-3.1-6.1-5.2-9.5-7.4c-0.4-0.2-0.8,0.1-1.1,0.4c1.5,4.3,5.8,8.7,12.8,7.5c-0.8,1.5-2.7,1.6-3.2,3c0.2,0.1,0.3,0.2,0.3,0.1
		c5.6-3.2,11.9-3.5,18.1-4.1c4.8-0.5,9.5-1.4,14.1-2.7c1.2-0.3,2.4-0.8,3.2-1.9c1.8-2.4,4.2-4.4,5-7.5c0.1-0.4,0.4-0.7,0.6-0.8
		c1.4-0.7,2.1,0.6,3.3,0.3c-0.5,3.9-2.4,6.6-5.1,8.9c-5.8,4.7-12.3,7.3-19.8,7.4c-3.6,0.1-7,1.2-10.4,2c-3.3,0.9-6.7,1.7-10,2.3
		c-0.8,0.2-1.7,0.3-2.4,0.8C426.7,621,423.9,621.5,421.1,622c0.5-0.6,1.7-0.7,1.8-2.1c-1.4,0.2-2.4,0.9-3.4,1.8
		C420.1,622.2,420.6,622.1,421.1,622z M441.8,585.6c6.6-3.4,7.7-5.7,6.6-9.8c0.9-1.9,3.3-3,2.3-6.3c-3.8,5-7.9,9.1-10.9,14.2
		c-1.1,0.8-3.1,0-3.7,1.4c-0.5,1.2-2.9,0.3-2.4,2.6c2.5-0.9,4.8-1.8,7-3.1C441.2,584.9,441.5,585.2,441.8,585.6z M462.1,539.7
		c-5,1.6-10.3,2.4-13.3,7.2c0.3,1,0.6,1.6,1.8,1.7C454.1,545.4,458.1,542.5,462.1,539.7z M483.3,512.6c5.2,1.9,10.8,2,15.8,4.5
		C494.4,513.6,488.8,513.5,483.3,512.6z M510.5,529.9c-2.9,1.4-5.9,2.4-8.6,4.3c-0.1,0.1-0.1,0.4-0.2,1
		C505.6,534.6,508,532.2,510.5,529.9z M427,581.2c0.8,1,1.1,2.3,3,2.7C429.6,582.1,428.3,581.6,427,581.2z M521,510.4
		c-1.2-0.4-2.1,0-3,1.2C519.5,512.1,520.3,511.4,521,510.4z M457.2,527c-1.2-0.9-1.8-0.5-2.4,0.4C455.7,527.9,456.4,527.6,457.2,527
		z M461.5,526.1c-0.4-0.4-0.8-0.5-1.2-0.3c-0.4,0.1-0.9,0.3-0.7,1C460.3,527,460.9,527,461.5,526.1z M517.7,522.7
		c-0.6-0.2-1.1-0.3-1.1,0.8C517.2,523.6,517.5,523.3,517.7,522.7z M426.3,617c-1.2,0.1-1.6,0.6-1.8,1.5
		C425.4,618.5,425.8,618,426.3,617z M452.7,527.9c-0.7-0.4-1.3-0.5-1.5,0.6C452,529,452.5,528.8,452.7,527.9z M446.4,529.3
		c1,0,1,0,1.3-0.9C447,528.2,446.5,528.5,446.4,529.3z M509.2,536.7c0.9,0,1.4-0.3,1.7-0.9C510,535.4,509.5,535.6,509.2,536.7z
		 M425.2,578.2c0.3-0.2,0.4-0.5,0.2-0.8c-0.2-0.3-0.5-0.7-1.1-0.1C424.4,577.7,424.7,578,425.2,578.2z M506.9,537.2
		c-0.8-0.2-1.2,0.1-1.6,0.7C506.2,538.4,506.6,538.2,506.9,537.2z"/>
	<path fill="none" d="M651,523.7c-0.3,1.9-0.1,3.2,0,4.6c0.3,5.2,0.7,10.3,1.7,15.5c0.6,3.1,0.7,6.2,0.8,9.3c0.1,6.2,0,12.5,0,18.9
		c-6.7-3.5-11.1-9.7-16.3-15c0.4-2.2,0-4.3,0-7c-0.6,1.9-1,3.3-1.5,5c-5.1-4.4-8.1-10.5-12.9-14.9c-4.8-4.4-8.5-9.8-13.5-14
		c1.2-2.7,2.3-5.1,3.4-7.4c0.6-1.3,1.5-2.1,2.9-2.6c6-2,10.8-5.8,15.3-10c1.9-1.7,3.5-3.8,4.9-6c2-3,4.5-5.7,6.7-8.2
		c1.6-0.7,2.9-0.2,3.9,0.4c4.7,2.3,9.7,3.6,14.6,5.5c2.2,0.8,4.2,2.1,5.7,3.7c2.4,2.7,5.5,4.5,8.5,6.2c10.2,5.9,19.3,13.1,27.7,21.2
		c0.9,0.9,1.6,2.2,3.4,1.7c0.6-0.2,1.5,0.7,2.1,1.1c7.4,4.8,15,9.4,22.6,13.9c4.8,2.9,9.9,4.7,15.6,5.1c0.4,0,0.8,0.2,1.2,0.2
		c1.3,1.2,1.8,2.8,2.6,4c-0.2,1.1-1.2,0.6-1.5,1.6c0.6,5.3-1.8,10.3-2.6,16.3c-2.3-2-4.5-3.1-7.5-3.9c2.3,2.3,5,3.2,6.8,5.3
		c-0.6,1.8-1.2,3.6-1.7,5.3c-1.4,0.2-2.2-0.5-3-1.1c-6.4-3.9-13.1-7.2-20.3-9.4c-3.5-1.1-7.2-1.5-10.7-3.1c-2.2-1.1-4.9-0.7-7.4-0.8
		c-5-0.1-10-0.1-14.9-1c-3.9-0.7-7.8-1.3-11.6-2.2c-5.8-1.3-10.7-4.4-14.5-8.7c-2.7-3-4.9-6.7-5.9-10.9c-0.3-1.3-0.8-2.6-1.2-3.8
		c-1-2.8-1.9-5.7-1.9-8.8C652.1,527.7,652,525.9,651,523.7z M686.4,528.7c-1.4-1.8-3.5-2.4-5.3-3.7c-4.4-3-9.3-5.1-14.2-7
		c-1.4-0.6-3-0.8-4.5-1.1c-0.8-0.1-1.7-0.1-2,1.3C669.4,520.9,678,524.6,686.4,528.7z M640,496.7c0,0.3,0,0.5-0.1,0.8
		c2.1,0.4,4.1,0.9,6.2,1.2c0.9,0.1,1.6-0.4,1.6-1.7C645.2,495.5,642.6,496.1,640,496.7z M664.1,500.8c-2.8-1.9-4.9-0.1-7.1,0.2
		C659.2,501.3,661.4,501.7,664.1,500.8z M689,530c2.1,2.6,2.4,2.7,4.6,2.9C692,531.9,691.2,530,689,530z M638,538.2
		c1.2-1.1,1.4-2.2,0.8-3.4C638.5,535.8,637.6,536.7,638,538.2z M730.7,564.2c-0.4-1.1-0.9-1.4-1.9-1.4
		C729.1,563.9,729.7,564.1,730.7,564.2z M727,561.9c-1-0.7-1.3-1.5-2.4-0.9C725,561.8,725.4,562.1,727,561.9z M734.4,566.5
		c0.3,0.6,0.5,1.3,1.5,0.8C735.6,566.8,735.4,566.3,734.4,566.5z M697.7,537.1c-0.1,0.7,0.1,1.1,0.9,0.9
		C698.6,537.4,698.6,536.9,697.7,537.1z"/>
	<path fill="none" d="M658.7,407.9c-0.4-1.2-0.4-2.1-0.2-3.2c2.9,0.7,5.7,0.5,8.6,0.3c2.7-0.2,5.5,0.4,8-0.7c-0.1-2-1.2-2-2.3-2.1
		c-3.6-0.4-7.3-0.3-10.9-0.4c-1.3,0-2.7-0.1-4,0.7c-1-3.1-1.2-6.1-2.3-8.9c-1.8-4.7-3.2-9.4-5.1-14c-1.2-3-0.4-5.4,1.5-7.5
		c3.8-3.9,8.5-6.3,13.9-5.9c3.3,0.3,6.7,1.2,9.5,3.6c4.7,4.1,9.8,7.8,14.3,12.2c3.6,3.5,7.1,7.4,9.4,12c0.6,1.2,0.9,2.5,1,3.9
		c0.3,4.4,0.7,8.7,1.2,13.1c0.3,2.8,1,3.3,3.4,3.8c1.6,2.3,3,4.6,4.8,6.7c1.4,1.7,2.1,3.5,2.5,5.6c1,5,1.7,10.1,2,15.2
		c0.1,1.5,0.2,2.9,0.4,4.4c-2,2.3-4.7,3.7-7.5,4.8c-1.5,0.5-3,0.7-4.6,0.2c-4.8-1.6-9.8-1-14.7-1c-1.8,0-3.4-0.3-5.1-1
		c1.6-0.1,2.7-0.8,3.6-2.1c0.7-0.9,1.6-1.7,2.4-2.4c2.7-2.2,3.4-5.2,2.9-8.4c-0.6-4-2.7-7.4-6.3-9.2c-3.2-1.5-6.5-3.2-10.6-3.3
		c-0.9,0.8-2.1,1.9-3.3,3c-2.3,2.1-5.1,2.6-8.1,2.4c-1.2-0.1-2.4-0.3-2.4-1.9c-1.9,0.4-1.9,0.4-3.9-0.5c-0.4-0.8,0.1-1.4,0.4-2
		c1.6-3.8,1.1-7.7,1.2-11.6c0-0.9,0.1-1.8,0.1-3c2.8-0.3,5.5-0.5,8.1-0.8s5.3,0.5,8-0.8c-0.8-2-2.2-2.1-3.7-2.2
		C666.9,406.5,662.9,406.9,658.7,407.9z M684.8,409.2c-0.5,0.5-1.2,0.9-1.6,1.4c-0.9,1.3-0.8,3.1,0.3,4.3c1,1.2,2.5,1.6,3.9,1.1
		c1.5-0.6,2.5-2.1,2.3-3.6c-0.1-1.6-1.3-2.9-2.9-3.2C686.1,409.1,685.4,409.2,684.8,409.2c2.4-3.3,2.4-3.7-0.6-7.5
		c-0.9,0.3-1.8,0.4-2.6,0.8c-1.6,0.7-2.4,2.1-2.2,3.7s1.4,2.9,3,3.1C683.1,409.3,683.9,409.2,684.8,409.2z M676.7,414.4
		c-1.9-2.1-6.3-2.8-14-2.5c-1.2,0.1-2.5,0-3.1,1.3c0.3,1.1,1.2,1.3,2,1.3C666.6,414.5,671.6,415.2,676.7,414.4z M658.3,398.6
		c1.6,1.5,2.4,1.8,4.6,1.5c2.9-0.4,5.8-0.6,8.7,0.1c0.7,0.2,1.2,0,1.7-0.9c-0.5-2-2.2-2.4-4-2.6c-3.2-0.3-6.4,0-9.6,0.9
		C659.2,397.7,658.5,397.9,658.3,398.6z M657.5,395.1c1.8,1.4,1.8,1.5,6,1.1c2.7-0.2,5.5-0.4,7.9-2.2c-0.7-1.6-1.9-1.5-3.1-1.5
		C662.1,392.6,659.6,393.2,657.5,395.1z M656.9,390.7c3.9,1.7,8.3,0.7,9.7-1.9c-1.9-1.9-4.1,0-6.1-0.3c-0.4-0.4-0.4-1.3-1.1-1.3
		C657.3,387.5,658.4,389.7,656.9,390.7z M687.4,423.1c2.1-1,4.1-1.7,5.9-3c-0.7-1.8-2.1,0.3-2.8-1c-0.5-1.2,1.6-1.9,0.8-3.3
		c-1.1-0.2-1.1,1.2-2,1.4c-1.1-0.3-2.3-0.5-3.3,0.8C685.2,420,686.4,421.5,687.4,423.1z"/>
	<path fill="none" d="M736.5,580.8c1.9-0.2,3.4,0.7,4.9,2c1.4-0.9,2.9-0.8,4.5-0.8c2.8,0.1,5-1,6.7-3.3c2.3-3.1,4.4-6.3,5.9-9.9
		c0.7-1.6,0.9-3.1,0.1-4.8c-0.5-0.9-0.9-1.8-0.5-2.9c0.3-0.9-0.5-1.7-1.1-2.5c-1.4-1.8-2.8-3.6-4.2-5.4c-0.7-0.9-1.6-1.7-1.9-2.8
		c0.1-0.8,0.4-1.2,1.2-1.6c1.8,0.4,3.8,1.4,5.8,1.2c2.1-0.2,4.1-0.6,6-0.9c2.8,2,3,6,6.4,7.3c1.8-1.4,0.4-2.6-0.1-3.8
		c-0.6-1.3-1.3-2.6-1.7-4.1c1.6,1.2,2.5,3.5,4.9,3.5c2.4-2.2-1.4-3.5-0.6-5.7c1.5,1.3,2.4,3.3,4.5,3.3c0.8,0,1.4-0.4,1.7-1.2
		c-0.1-1.2-1.3-1.8-1.8-3c1-0.9,2-1.2,3.3-0.5c1.4,0.7,2.6,0.4,3.5-0.4c0.6-0.7-0.1-1.2,0.3-1.6c1.3-1.6,3.9-0.7,5.1-2.5
		c-0.2-1-1.2-0.1-1.5-0.9c0.1-0.2,0.1-0.4,0.2-0.5c1.2-1.2,2.3-2.4,3.5-3.5c1.1-1,2.2-1.8,2.2-3.5c0-1,1.1-1.7,1.9-2.4
		c2.4-2.1,4.9-4.1,7.5-6.2c2.8,2,4.7,5,7.3,7.1c0.8,2,0.9,4.1,1.2,6.2c0.3,1.5,0.1,3.1-0.7,4.5c-1.3,2.6-2.3,5.4-3.6,8
		c-1.5,3.1-3.2,6.1-5.6,8.6c-1.5,1.5-2.6,3.2-3.4,5.2c-1,2.6-2.5,5.3-4.6,7c-3.1,2.7-4,6.1-5.3,9.5c-2,5.4-4,10.7-6.3,16
		c-0.5,1.1-1,2-1.9,2.8c-4.1,3.4-7.9,7.1-13.1,8.8c-0.8,0.2-1.4,0.9-2.1,1.3c-1.5-2.2-3.8-3.5-5.4-5.5c-0.8-1.1-1.7-2.1-2.3-3.3
		c-1.9-3.4-4.3-6.2-7.6-8.6c-3.6-2.6-7.7-4.2-10.9-7.2C738.2,582.8,737,582.1,736.5,580.8L736.5,580.8z"/>
	<path fill="none" d="M628.4,566.9c-0.1,0.7-0.4,1.2-1.2,1.1c-1-0.1-2.1,0.1-3.2-0.5c-5.4-10.4-13-19.4-20.8-28.3
		c1.3-3.9,3.3-7.4,4.9-11.1c1.1-0.1,1.3,0.8,1.7,1.3c3.9,5.3,8.3,10.2,12.8,15c0.8,0.9,1.7,1.8,2.4,2.9c6.1,8.4,13.5,15.4,21.3,22.2
		c7.2,6.3,14.5,12.5,21.4,19.2c0.4,0.4,0.8,0.6,1.3,0.9c-4.6,4.5-8.5,9.1-12.1,13.9c-3.6,4.9-6.1,10.6-9.7,15.7
		c-0.9-0.5-0.9-1.7-1.3-2.6c-1.3-3.1-3.1-5.9-4.8-8.8c-0.6-1-1.1-2-1.3-3.2c-0.6-4.6-1.3-9.3-1.8-13.9c-0.1-1.1-0.1-2.3,0.1-3.4
		c0.9-5.1-0.1-9.9-2-14.6c-0.5-1.3-1.7-1.8-2.8-2.6c0-2.2,1.1-4.1,1.5-6.2c-1.3,0.8-1.3,0.8-3.1,5.3
		C630.3,568.8,629.1,568.2,628.4,566.9c-0.3-1-0.8-2-1.7-2.6C627.1,565.3,627.2,566.5,628.4,566.9z M629.7,562.5
		c-0.4-3.2-0.5-3.4-2.9-5.5C628,559.1,628.9,560.8,629.7,562.5z M624.8,561c-0.2,0.7,0.2,1,0.7,1.3
		C625.7,561.6,625.3,561.3,624.8,561z"/>
	<path fill="none" d="M404.9,606.4c3.4,2.9,5.9,6.4,6.5,10.9c0.4,2.8,0.7,5.5-0.4,8.3c-0.5,1.3-0.4,2.8-0.6,4.5
		c-2.8,1.7-6,3.4-8.2,6.5c-6.3-1.6-12.1-0.6-17.8,3.2c-0.9-3.8-3-7-4.5-10.4c-0.3-0.7-0.6-1.4-0.6-2.1c-0.4-4.9-0.6-9.8-1-14.8
		c2.8-2.4,6.2-2.5,9.6-2c2.4,0.3,4.8,0.7,6.9-0.7c1.5-1,3.1-1.6,4.8-2.4c1,0.3,2,0.7,3,0.8c1.1,0.1,2.4,0.1,2.3-1.6L404.9,606.4z"/>
	<path fill="none" d="M610.6,518c-4.8,5.3-7.2,11.9-10.1,18.2c-6.4-5.6-10.5-11.1-11-15.3C596.7,521,603.7,519.6,610.6,518z"/>
	<path fill="none" d="M746.8,579.4c3.5-8.9,4.7-14.4,4.7-22c1.6,1.4,3.8,5.5,4.9,9c-0.7,2-1.8,3.8-2.9,5.7c-1.1,1.9-2.5,3.6-3.4,5.6
		C749.5,579.1,748.4,579.8,746.8,579.4z"/>
	<path fill="none" d="M477.4,594.8c-1.1,0.1-2.2,0.2-3.4,0.4c-1.1-2.3-1.5-5-4-6.5c-0.1-0.8-0.2-1.6-0.3-2.2c-0.4-0.8-1-0.7-1.5-0.7
		c-0.3-0.3-0.3-0.7-0.2-1.2c0.2-0.1,0.4-0.3,0.5-0.2c2.2,0.8,4.3,1.6,6.2,2.9C477.7,589.1,478.4,591.2,477.4,594.8z"/>
	<path fill="none" d="M454,568.2c1.6-0.5,2.2-1.6,3.1-2.6c0.7,2.7,1.3,5.1,3.1,7C457.8,571.9,456.1,570.3,454,568.2z"/>
	<path fill="none" d="M393.8,556.5c0.6-0.4,1.1-0.4,1.8-0.3c0.7,0.7,1,1.6,1.1,2.6c-1,0.6-1.8,0.3-2.7-0.1
		C393.6,558.1,393.5,557.4,393.8,556.5z"/>
	<path fill="none" d="M415.4,564.3c1.2-0.6,2.1-1,3.4-1.6c-0.7,1.9-1.5,2.9-2.8,3.6C415.2,565.8,415.5,565.2,415.4,564.3z"/>
	<path fill="none" d="M446.4,535.2c-0.3,2-1.6,2.8-4,3C443.5,536.5,445.1,536,446.4,535.2z"/>
	<path fill="none" d="M410.8,583c-1.1,1.9-2.5,0.3-3.7,0.5C408.1,582,409.5,583.2,410.8,583z"/>
	<path fill="none" d="M409.2,598.4c-0.1,0.8-0.4,1.2-0.9,1.8c-1-0.3-1.4-1.2-2.1-2.1C407.5,597.1,408.3,597.8,409.2,598.4z"/>
	<path fill="none" d="M439.5,540.6c-0.9,2-2,2.7-3.8,3.1C436.6,542.1,437.5,541.2,439.5,540.6z"/>
	<path fill="none" d="M384.7,569c1.5,0.6,2,1.5,2.4,2.5c-0.5,0.4-0.8,0.4-1.3,0.4C385.2,571.2,385,570.3,384.7,569z"/>
	<path fill="none" d="M381.3,570.9c0.7-0.2,1-0.1,1.4,0.3c0.3,0.8-0.7,1.5-0.3,2.8C380.9,572.9,381.2,571.9,381.3,570.9z"/>
	<path fill="none" d="M417.1,537.1c1.5-1.1,2.4-0.9,3.7-0.1C419.5,537.7,418.6,537.6,417.1,537.1z"/>
	<path fill="none" d="M407.7,601.8c-1.2-0.2-1.8-1-2.8-2.4C406.6,599.9,407.1,600.9,407.7,601.8z"/>
	<path fill="none" d="M389.1,546.2c0.7-1.3,1.1-2.2,2.4-1.3C391.1,545.8,390.2,545.7,389.1,546.2z"/>
	<path fill="none" d="M440,541.7c0.8-1.2,1.5-1.8,2.9-1.5C442.1,541.2,441.2,541.6,440,541.7z"/>
	<path fill="none" d="M436,557.1c0.5-1.5,0.9-2.2,2.3-2.5C438.1,555.9,437.3,556.3,436,557.1z"/>
	<path fill="none" d="M397.2,590.4c-0.7-0.2-1.4-0.4-1.7-1.2C397.1,588.2,396.9,589.7,397.2,590.4z"/>
	<path fill="none" d="M420.3,626c-0.3,1.1-1,1-1.7,0.9C418.9,626.2,419.5,626.1,420.3,626z"/>
	<path fill="none" d="M394.8,561c0.5-0.4,0.8-0.1,1.1,0.3c-0.2,0.6-0.5,0.7-0.9,0.5C394.8,561.6,394.6,561.4,394.8,561z"/>
	<path fill="none" d="M409.9,603.4c0.9,0.2,1.5,0.4,1.5,1.1C410.6,604.7,410.4,604.2,409.9,603.4z"/>
	<path fill="none" d="M446.9,539.4c-0.2-1,0.3-1.3,0.9-1.6C448.2,538.6,448.1,539.1,446.9,539.4z"/>
	<path fill="none" d="M389.5,567.3c0.2,0.7,0,1-0.6,1.2C388.5,567.9,388.6,567.5,389.5,567.3z"/>
	<path fill="none" d="M417.1,575.1c-0.5-0.5-0.6-1.1-0.1-1.7C417.6,574,417.3,574.5,417.1,575.1z"/>
	<path fill="none" d="M400.1,586.7c-0.5,0.5-0.9,0.4-1.3,0C399.3,585.9,399.7,585.8,400.1,586.7z"/>
	<path fill="none" d="M421.8,549.3c0.5-0.6,0.8-1.2,1.6-1C423.1,549.1,422.7,549.4,421.8,549.3z"/>
	<path fill="none" d="M392.5,587.7c-0.9-0.6-1.2-0.9-1.3-1.5C392,586,392,586.7,392.5,587.7z"/>
	<path fill="none" d="M415.8,312.4c-2-4.4-3.9-8.8-4.7-13.9c3.4-6.5,4.8-13.8,5.8-21.3c0.4-2.9,0.4-5.8,0.5-8.7
		c0.1-1.4,0.4-2.6,2.1-3.5c-0.3,3.5-0.2,6.9,0.3,10.2c0.8,5.4,2.6,10.5,4.9,15.4c0.5,1.1,1.3,2.2,2.1,3.1
		c8.4,9.1,18.1,16.3,29.7,20.7c4.8,1.8,9.9,2.6,15.1,1.8c1.6-0.2,3.3-0.3,5-0.4c5.3-0.2,9.2-3,12.3-7.1c1.8-2.4,3-5,4.2-7.7
		c0.3-0.8,0.5-1.6,1.6-1.5c-0.7-3.2,1-6,1.7-9s-0.3-6.3,1.4-9.1c-0.3-1.9-0.6-3.9-0.9-5.8c-0.5-2.8-1.7-5.3-3.4-7.6
		c-0.9-1.2-1.9-2.3-3.6-2.1c-2.6-4.9-6.6-8.1-11.6-10c-0.1-1.3,0.6-2,1.6-2.3c3.6-1.1,6.9-2.9,10.2-4.5c2.7,1.8,8.9,9.5,12.1,15.1
		c3.9,1.6,8.3,1.6,12.4,2.3c0.6,0.1,1.2,0.2,1.9,0.2c2.9,0.2,5.4,1,7.8,2.7c1.8,1.2,3.8,2.1,5.8,3c2.2,1.1,4.3,2.1,6.8,1.5
		c1.6,2.5,1.8,5.2,3,8.2c0.3-3.3-0.5-5.8-1.5-8.4c1.9-0.6,3.7-0.2,5.5,0.7c1.7,5.7,1.5,11.7,2.9,17.5c-0.6-5.6-1.2-11.2-1.8-17
		c3.6-0.7,7,1.5,10.5,0.1c1,1.2,0.9,2.7,1.1,3.9c0.5,4.5,0.9,8.9,0.9,13.4c0,1.5-0.1,3-0.9,4.2c-1.2,1.8-1.1,3.5,0.1,5.3
		c-1.7,1-3.8,1.1-5.4,2.8c2.5,0.2,4.4-0.4,6.4-1.3c0.8,1,1.6,2,2.5,3.1c-0.4,1.5,0.2,2.9,1.1,4.3c1.7,2.6,3.3,5.3,5.1,7.8
		c3,4.3,4.3,9,3.2,14.2c-0.8,3.9,0.5,7.2,2.8,10.5c2,2.8,4.8,5.5,4.6,9.5c0,1,1.3,1.7,1.1,2.9c-0.5,0.8-1.3,0.4-1.9,0.4
		c-1.6,0-3.1-0.2-4.7-0.1c-3.2,0.1-6.2-0.3-9.2-1.5c-2.4-1-5.1-1.3-7.7-1.5c-5.8-0.4-11.7-0.8-17.5-1.2c-8.7-0.6-17.3,0.1-25.9,1.2
		c-6.3,0.8-12.7,1.2-19,1.7c-3.5,0.3-7,0.9-10.6,0.9c-4.3,0-8.6-0.5-12.6-1.8c-9-2.9-17.8-6.4-26.1-11.1c-4.4-2.5-9-4.3-13.7-6
		c-4.3-1.6-7.8-4-11.2-7.2c-6-5.6-10.4-12.1-13.1-19.9c-0.9-2.7-0.6-5.5-1.6-8.7c1.4,0.7,2.1,1.8,3.5,1.4c1.3-0.4,2-1.4,3.3-2.2
		C411.4,304.7,412.7,309,415.8,312.4z M455.4,341c3.2,1.8,6.4-0.5,9.6,0.1c0,0,0.1-0.3,0.2-0.6c-3.3-0.4-6.5,0.4-9.7,0.4
		C455.6,340.8,455.5,341,455.4,341c-1.7,0.6-3.5-0.2-5.6-0.2C452.7,342.8,453,342.8,455.4,341z M528.2,275.5c0-0.3,0.1-0.6,0-0.7
		c-4.2-3.8-9.1-6.1-14.7-6.9c-1.1-0.1-2.3-0.3-3.2,0.9C516.1,271.5,522.1,273.4,528.2,275.5z M438.3,336.2c-1.6-1.2-3.3-2.5-4.9-3.7
		s-2.9-3-5.1-3.4C431.3,331.9,434.1,335.1,438.3,336.2z M531.4,297.3c0.2-4.4,0.9-8.9-0.6-13.3C530.2,288.5,531.6,292.8,531.4,297.3
		z M425.6,321.1c-2.2-2.2-3.4-4.4-5.9-5.5C419.8,318.2,421.4,319.8,425.6,321.1z M536.1,278.8c-1.4-1.1-2.9-2.2-4.9-0.7
		C532.8,279.6,534.5,278.8,536.1,278.8z M549,280.5c-0.2-1.3-0.3-2.6-0.5-4C548.3,277.8,548,279.1,549,280.5z M543.9,307.7
		c1.1,0.1,1.9,0.4,2.6-0.4c0.2-0.2,0.2-0.4-0.1-0.6C545.5,306.5,545,307.2,543.9,307.7z M432,323.3c0.3,0.8,0.7,1,1.3,0.5
		C433,323.3,432.7,322.8,432,323.3z M542.3,308.8c-0.4-0.4-0.8-0.2-1.1,0c-0.2,0.2-0.8,0.4-0.3,0.9
		C541.7,309.8,542.2,309.5,542.3,308.8z M496.5,304c0.3-0.2,0.2-0.6,0.1-0.8c-0.2-0.3-0.4-0.7-0.9-0.4
		C495.5,303.5,495.8,303.9,496.5,304z M539.9,310.9c-0.7,0.6-1.3,0.7-1,1.4C539.5,312.3,539.7,311.9,539.9,310.9z"/>
	<path fill="none" d="M793.5,181c-2.8,0-2,2.8-3.6,4.1c-2.5,0.3-5.1,0.9-7.3,2.9c2-0.2,4.1,0.3,5.9-0.2c2-0.5,4-1.6,4.8-4
		c0.2,2.9-0.7,5.3-2.4,7.5c-9.2,1.3-18.2,3.7-27,6.6c-2.6,0.9-5.2,1.5-7.8,2c-8.1,1.5-15.9,4.4-23.9,6.1c-4.8,1-9.3,2.6-13.7,5
		c-2.1,1.1-4.6,1.2-7,1.4c-10.1,1.2-20.2,1.2-30.2,0.3c-6.3-0.6-12.4-2.6-17.7-6.4c-1.6-1.2-3.3-1.9-4.8-0.9c-0.9,0.5-0.6,1-0.7,1.2
		c-3.1,3.8-3.8,8.2-3.6,12.9c0,0.6-0.1,1.2-0.2,1.9c-0.8,5-1.5,10.1-1.6,15.4c-2.7-0.8-4.9-2-7-3.3c-3.8-2.3-7.5-4.9-10.6-8.1
		c-1.2-1.3-2.7-2.3-4.2-3.3c-3.7-2.7-7.4-5.4-11.1-8.1c-5.2-3.9-9.7-8.5-14-13.6c1.5-3.6,3.2-7.3,4.6-11.1c1-2.7,2.5-5,4.6-6.9
		c3.8-3.4,6.9-7.6,10.4-11.3c2.7-2.8,5.4-5.8,9.5-6.6c0.3-0.1,0.6-0.3,0.8-0.5c3.8-2.8,7.9-2.5,12.2-1.4c5.8,1.5,11.6,3.2,17.7,3.6
		c1.5,0.1,2.7-0.6,4.1-0.6c3.1,0.1,6.2,0.8,9.3,0.7c8.5-0.4,16.8,1,25.1,2.5c1.6,0.3,3.3,0.4,4.9,0.9c9.8,2.6,20,3,30,3.8
		c1.6,0.1,3.1,0.1,4.7,0.3c6.7,0.7,13-1.1,19.4-2.5c4.4-1,8.7-2,13.1-3.1c1.7-0.4,3.4-1,4.9-1.9c3.4-2,7.6-0.2,8.5,3.4
		c0.2,0.9,0.8,1.5,1.2,2.2C792.4,174.6,793.6,177.5,793.5,181z M653.8,201.5c-5.9,3.6-8.3,9.8-10.8,16.2c0.5-0.2,0.8-0.2,0.9-0.3
		c2.7-5,6.6-9,10.5-13.1c0.4-0.5,0.9-0.9,0.8-1.6C655.1,202.1,654.8,201.8,653.8,201.5z M665,186.8c2.6,1.7,5,0.2,7.4-0.1
		c2.5-0.3,4.8-1.2,7.3-1.8c-4.5-0.1-8.8,0.4-13.3,0.4C665.9,185.4,665.5,185.8,665,186.8z M682.1,184.9c3.2,0.5,5.7,0.4,8.1-0.6
		C685.3,183.4,684.1,183.5,682.1,184.9z M781.5,187.4c-2.9-0.6-3.9-0.3-5.3,1.6C780.2,188.7,780.2,188.7,781.5,187.4z M661.2,171.8
		c1.8-0.6,3.8-1,5.5-2.8C663.9,168.8,662.7,170.5,661.2,171.8z M726.5,182.8c2.1,0.9,3.6,0.8,5.1,0.1
		C730.2,182.3,728.7,182,726.5,182.8z M655.1,198.7c2.1,0.2,2.1,0.1,3.5-1.5C657.2,197.4,655.9,197.3,655.1,198.7z M643.5,227.8
		c0.2-0.6,0.3-0.8,0.4-1.1c0.1-0.4,0-0.8-0.5-1.1C642.7,226.2,642.6,226.8,643.5,227.8z M643.5,221.6c-1.1,0.4-1.2,1-1.1,2.1
		C643.2,223.1,643.7,222.8,643.5,221.6z M658.7,186.1c0.9,0.3,1.6,0.3,2.3-0.3c0.2-0.2,0.2-0.3-0.2-0.5
		C660.1,185.1,659.6,186,658.7,186.1z M717.7,183.6c-0.8-0.2-1.3-0.8-2,0.2C716.4,183.5,716.9,184.5,717.7,183.6z M773.5,189
		c-1.1,0.1-1.6,0.4-1.8,1C772.5,190.3,773.2,190.4,773.5,189z M699.1,184.8c-0.9-0.5-1.5-1.4-1.8,0.2
		C697.7,185.2,698.2,185.3,699.1,184.8z M765.6,190.6c1.1,0,1.1,0,1.3-0.9C766.2,189.5,765.8,190,765.6,190.6z M705.1,185.1
		c-0.9-0.5-1.3-0.6-1.8-0.3c0.2,0.1,0.3,0.2,0.4,0.3C704,185.2,704.3,185.1,705.1,185.1z"/>
	<path fill="none" d="M534.3,161.2c1.8,0.5,3.5,0.2,5.3-0.2c5.6-1.2,11.4-1,17.1-1.3c6.1-0.3,12.3-0.2,18.4,0.3
		c1.3,0.1,2.7,0.2,4.1,0.1c8.3-0.7,16.6-0.1,25,0.5c6.9,0.5,14,0.2,20.9,0.4c3.4,0.1,6.8,0.5,10.5-0.3c-0.8,1.2-1.8,1.2-2.7,1.3
		c-4.3,0.6-7.6,2.3-9.6,6.4c-0.6,1.3-1.7,2.3-2.6,3.5c-2.1,2.6-4.1,5.2-6.2,7.8c-1,1.3-1.7,2.7-3.6,3.3c-1.2,0.4-1.7,1.8-2.3,2.8
		c-3,4.9-5.5,10-7.9,15.2c-1.4,0.9-2.9,1.1-4.5,0.5c-2.3-0.9-4.7-0.5-7.1-1.1c-4.7-1.2-8.6-3.5-12.3-6.5c-1-0.9-2.1-1.6-3.2-2.4
		c-0.6,0.9,0.2,1.2,0.5,1.6c5.1,5.1,9.5,10.8,14.8,15.7c0.4,0.4,0.9,0.7,1,1.2c0.9,2.9,3.2,4.8,5,7c-1,5.3-3,10.1-5.3,15.1
		c-9.5-1.3-19-2.6-28.7-3.3c-1.6-3.3-3.1-6.6-5.4-9.4c1,3,2.5,5.9,3.4,9.2c-10.5-0.6-20.6-2.2-30.5-6.4c-0.7-2.9-1.3-6.1-2.3-9.1
		c-2.1-6.2-2.8-12.6-3.5-19c-0.2-1.8-0.2-3.6-0.6-5.3c-1.4-5.7,0.4-10.9,2.3-16.1c1.3-3.5,3.2-6.2,6.3-8.2
		C531.8,163.8,532.8,162.6,534.3,161.2z M565.8,173.6c5.8-0.8,11-3.1,16.1-5.7C576.3,169.3,570.7,170.6,565.8,173.6z M537.5,165
		c-0.2-0.2-0.4-0.5-0.6-0.7c-2.1,0.9-4.5,1.4-5.1,4.2c1.6,1.4,2.5,1.5,3.5,0.1C536.2,167.4,536.8,166.2,537.5,165z M595.3,166.6
		c-5.3-0.6-5.7-0.5-6.8,1.3c0.1,0.1,0.2,0.2,0.2,0.2C590.7,167.7,592.7,167.2,595.3,166.6z M607.2,166.5c-2.2-0.3-3.8-0.6-5.4,1
		C603.7,168.1,605.3,167.6,607.2,166.5z M564.3,172.2c-1.3-0.4-2.3-0.5-3.2,0.9C562.4,173.3,563.4,173.5,564.3,172.2z M609.7,166.6
		c1.5,0.8,1.5,0.8,3,0.6C611.2,166.5,611.2,166.5,609.7,166.6z M549,206c0.2-0.8-0.2-1.3-1.1-2.3C548.1,205,547.9,205.7,549,206z
		 M617.2,167.4c-0.7-0.6-1.2-0.6-1.7-0.1C615.9,167.9,616.4,167.9,617.2,167.4z M583.9,167.3v0.1c0.3,0,0.6,0,1-0.1v-0.1
		C584.6,167.3,584.2,167.3,583.9,167.3z"/>
	<path fill="none" d="M796.5,197.7c1.9,0.7,2.9-1.3,4.4-1.4c0.6-0.9,0.6-1.7,0.7-2.5c0.2-2.1,0.3-4.2,1.2-6.1
		c0.1-0.2,0.1-0.4,0.1-0.6c0.1-5,0.3-10-0.9-14.9c-0.4-1.7-1.7-2.8-3.1-3.8c-3.3-2.4-6.9-4.2-10.9-5.2c-2.7-0.6-5.3-1-8.4-0.6
		c0.8-4.9,5.6-5.6,7.7-8.7c5.9,2,11,5.3,16.4,7.6c1.5-0.9,1.4-1.9,0.6-3c-0.9-1.2-2.1-2-3.4-2.8c-3-1.9-6.2-3.4-9.5-5
		c0.6-1.1,1.4-1.6,2.3-2.3c2.4,1.3,4.8,2.7,7.1,4.3c2.2,1.6,3.7,4,6.3,5c1.7-0.7,1.5-1.9,0.9-3.1c-0.8-1.6-2.1-2.9-3.4-4.1
		c-1.9-1.8-4.1-3.2-6.4-4.4c-0.5-0.3-1.3-0.3-1.1-1.6c4.6,2,8.8,4.8,13.2,6.3c1.4-0.7,1.5-1.5,1-2.3c-0.5-0.9-1.4-1.6-2.3-2.1
		c-2.9-1.9-5.9-3.4-9.1-4.6c-0.1-0.6,0.2-1,0.7-1.4c4.2,2.1,8.4,4.7,12.8,6.3c1.6-1.1,1.4-2.1,0.4-3.1c-1.1-1.1-2.5-1.8-3.9-2.6
		c-2.4-1.4-4.8-2.8-7.6-3.8c0.7-1.9,1.5-3.6,1.9-5.4c0.4-1.6,1.5-3.3,0.1-4.9c2.1-6.1,4.2-12.1,6.3-18.2c3.9,0.9,7.5-0.8,11.1-1
		c2.5,1,4.1,2.7,5.3,5c1.3,2.5,2.8,4.9,4.3,7.2c2.9,4.5,4.6,9.5,6.4,14.5c2.9,7.7,2.2,15.1-0.2,22.6c-1.4,4.5-2.7,9-4.3,13.4
		c-2.6,6.9-3.9,14.2-4.4,21.6c-0.2,3.9-1.3,7.6-2.5,10.9c-3.5,2.8-6.7,5.4-10,8.1C809.1,207.9,802.8,202.8,796.5,197.7L796.5,197.7z
		 M812.9,178c3.4-1.8,4.4-3.7,3-6c-1.1-1.9-3.4-2.4-5.1-1.2c-1.9,1.4-1.8,4,0.3,6.6c-2.4,1.6-2.6,2.3-1.7,5.8c2-0.1,4.1,0.6,6.2-0.1
		c-0.2-1.4-1.8-0.8-2-1.8c0.2-1.5,2.3-1.2,2.3-2.8C815,177.7,813.7,180,812.9,178z M815.1,139.1c-1.5-3.3-4.5-4.8-7.9-5.7
		c-1.1-0.3-2,0.2-2.4,1.9c2.4,2.7,5.9,3.9,8.7,5.6C814.7,140.5,814.9,140,815.1,139.1z M816.8,162.6c-1.1-0.1-1.9-0.2-2.7-0.4
		c-2.2-0.5-3.9,0.9-4.2,3c-0.3,2.2,1.3,4.3,3.4,4.3c1.9,0,3.6-1.8,3.6-3.9C816.9,164.6,816.6,163.7,816.8,162.6z M813.4,134.6
		c0.5-2.3-0.9-4.5-3.3-5.6c-1.5-0.7-2.2-0.4-3.6,1.4C808.6,132.1,810.6,134,813.4,134.6z"/>
	<path fill="none" d="M672,148.1c3.5,2.3,6.7,5.3,11.6,3.2c-2.1-3.3-5.7-2.9-7.8-5.4c3.6,0.9,7,3.4,10.2-0.3
		c-0.5-3.2-3.2-3.3-5.3-4.5c0.1-1,0.9-1.5,1.7-2.1c2,0.7,4.1,1.9,5.9-0.8c-0.5-1.3-2.1-1.5-3-2.5c0-1.6,1.8-1.5,2.5-2.7
		c-1-3,0.5-6.1,0.8-9.2c0.2-2.2,0.6-4.3,0.6-6.5c0.1-5.1,1.7-9.8,3.5-14.6c4.7-0.2,8.1,2.1,10.5,5.7c4.1,6.2,6.2,13,7.1,20.4
		c0.8,6.3,0.2,12.4-0.9,18.6c-0.1,0.6-0.3,1.2-0.6,1.8c-2.7,5.6-1.5,10.7,2,15.5c0.4,0.5,0.8,1,0.4,1.9c-6.8-0.8-13.6-1.9-20.6-2.5
		c-6.8-0.5-13.7,0.1-20.9-0.4c-0.5-0.9-0.6-2.3-1.1-2.7c-1.1-1-1.6-0.1-2.5-0.2c-2-2.3-5.9-2.7-7.2-6.6
		C663.5,152.4,667.8,150.3,672,148.1z"/>
	<path fill="none" d="M544.4,264.7c0,1.4-0.1,2.4,0,3.4c0.2,1,0.6,2,1.1,3.2c-3.3-0.9-6.4-1.1-9.6-0.3c-0.9,0.2-1.9-0.1-2.7-0.5
		c-4.6-2-9.2-3.8-13.7-5.9c-4.4-2-9.2-2.1-14.4-1.3c-0.7-0.3-1.6-0.6-2.5-1c-3-8.1-4.6-10.7-9.2-15.2c0.1-1,1-1.2,1.6-1.7
		c3.1-2.7,5.9-5.6,7.5-9.5c0.4-1,1.1-1.8,1.7-2.6c6.9-7.9,10.3-17.2,12-27.4c0.5-2.9,0.8-5.7,1.4-9.3c0.8,2.6,0.8,4.9,2.8,6
		c1.4,6.9,2.7,13.6,4,20.4c1.8,9.4,5.6,18.1,10.7,26.1c0.6,1,1.3,1.9,1.6,3C538.2,257,540.4,261.4,544.4,264.7z"/>
	<path fill="none" d="M446.7,217.1c0.5,0,1,0,1.1,0c1,1,1.7,1.8,2.9,3c-2.7-1.7-4.6-0.2-6.9,0.3c1.4,1.3,3.4,0.1,4.5,1.9
		c-3.6,3.9-9.3,4.7-13.3,9.2c0.2-4.2,0.1-7.6,0.7-11c0.2-1.4,0.9-2.6,2-3.4c1.2-0.8,2.3-1.8,2.7-3.1c2.5-0.2,4.6-0.3,6.7-0.5
		C449.1,215.2,446.2,215.9,446.7,217.1c-1.1,0.4-1.9,1-2.1,2.6C445.8,218.9,446.6,218.3,446.7,217.1z"/>
	<path fill="none" d="M792.8,194c0.6-1,1.8-0.3,2.6-0.8c0.4-0.7-0.6-0.9-0.7-1.6c1-1.8,1.7-3.8,2.1-6c0.3-2.3,0.1-4.6-0.3-6.8
		c-0.4-2.1-1.4-4.1-2.3-6.1c-0.9-2-2.9-3.1-4.1-5.1c6.2,1.3,8.4,3.4,9.5,8.9c-1.4,0.6-1.5,1.9-1.8,3.3c2.6,2.7,2.3,6.1,1.6,9.6
		c-0.4,1.8-1,3.6-0.6,5.3c-0.3,1.4-2.7,1.2-2.2,3.1l0.1-0.1c-2.3,0.2-4.7,0.5-6.7-1.6c1.3-0.6,2.9,0.1,3.9-1.2
		C793.7,194.3,793.1,194.2,792.8,194L792.8,194z"/>
	<path fill="none" d="M427.5,224.4c0.9-0.1,1.6,1.1,2.8,0.5c-0.2-1.6-1.7-1.9-2.3-2.6c-1-0.5-1.4,0.4-2.1,0.3
		c-0.3-1,0.1-1.7,0.6-2.7c1.3,0.7,2.3,2.1,3.9,1.8c1.9,3.5,2.6,7.2,3.1,11.3c-0.5,1.6-2,2.7-3.9,3.6c-1.7-1.8-3.4-3.7-5.1-5.7
		c2.2-0.8,2.2-0.8,4.6,3c1-0.2,1.5-1,1.8-1.8c0.2-1-0.8-1.3-1-1.9c-0.2-1,0.9-1.4,0.9-2.3c-0.2-1-0.9-1.5-1.8-1.7
		c-1.6,0.5-1.5,1.6-1.2,2.7c-0.8,0.5-1.1-0.4-1.6-0.4C425.8,226.6,426.3,225.4,427.5,224.4z"/>
	<path fill="none" d="M451,222c1.5-3.2-0.8-6,0.1-9.1c2.4-0.2,4.9-0.4,7.7-0.6c-1.2,3.2-3,5.8-3.6,8.8
		C453.8,221.5,452.6,221.7,451,222z"/>
	<path fill="none" d="M649.4,159.9c3.3-0.8,6.1-1.5,9.1-2.3c2.6,1.7,5.4,3.2,7.7,5.5C660.5,163.2,655.2,161.9,649.4,159.9z"/>
	<path fill="none" d="M384.2,214.6c1.3-0.2,2.3-0.2,3.4,0.3c-0.5,2.9-2.2,4.8-4.4,6.5c-0.2,0.2-0.6,0.2-0.8,0.4
		c-2.6,1.6-4.9,3.5-5.9,6.6c-0.2-2.2,0.2-4.2,1.9-5.8c1.2-1.1,2-2.4,2.6-3.8C381.6,217.1,382.8,215.8,384.2,214.6z"/>
	<path fill="none" d="M590.2,204.7c3.2,0.1,6-0.9,9.4-1.7c-1.3,3.7-2.4,6.9-3.7,10.6C594.2,210.3,592.3,207.7,590.2,204.7z"/>
	<path fill="none" d="M420.1,195.3c-1.1,0.6-1.6,0.8-2.1,1.1c-0.8-0.5-1-1.3-1.5-2.3C417.6,194.4,418.5,194.7,420.1,195.3z"/>
	<path fill="none" d="M390.6,201c0.6,0.5,0.7,0.9,0.7,1.4c-1,0.5-1.2-0.8-2-0.4C389.4,200.9,390.1,201.1,390.6,201z"/>
	<path fill="none" d="M409.5,196.3c-0.3-1.1-0.5-2,0.9-2.3C410.7,195,410.5,195.6,409.5,196.3z"/>
	<path fill="none" d="M396.9,206.8c-1.1,0.4-1.2-0.2-1.3-0.8C396.4,205.6,396.8,205.9,396.9,206.8z"/>
	<path fill="none" d="M405.6,258.5c1.3,0,1.5,0.3,0.9,1.1C405.9,259.5,405.8,259.1,405.6,258.5z"/>
	<path fill="none" d="M416.9,249.4c-0.1-0.7,0.2-1,0.5-1.2c0.2-0.1,0.4-0.1,0.4,0.2C417.9,249,417.6,249.3,416.9,249.4z"/>
	<path d="M454,650.6c6.9,2.9,13,6,18.5,11C470.2,660.8,455.6,652.3,454,650.6z"/>
	<path d="M420.1,656.2c3-0.2,6-0.3,8.9-0.4c0.9,0.4,1.5,1.4,2.8,1.4C429,658.5,424.2,658.1,420.1,656.2z"/>
	<path d="M434.7,675.7c-2-3.3-4-6.6-6.1-10c1.9,0.3,1.9,0.3,3.9,4.4C433.4,671.9,434.7,673.6,434.7,675.7z"/>
	<path d="M366.1,673.7c1.6-0.6,2.7,0.8,4.1,0.8c1.4,0.1,2.8,0.1,4.5,0.2C371.1,676.8,367.8,676.3,366.1,673.7z"/>
	<path d="M350.4,671.3c1.6-1.2,2.7-0.8,6.1,2.1C354,673.6,352,673.1,350.4,671.3z"/>
	<path d="M384,644.2c1.4,2.4,1.8,5,1.5,7.8C384.1,650.4,383.5,647.4,384,644.2z"/>
	<path d="M382.6,594.8c-1.9,1.7-3.7,3.8-6.7,3.3C377.8,596.5,380.2,595.7,382.6,594.8z"/>
	<path d="M418.2,641c3,0.4,5.2,1,7.2,2.3C422.9,643.7,420.6,643.3,418.2,641z"/>
	<path d="M391.1,671.8c1.7-1.4,4-1.3,5.7-2.7C395.3,671,393.7,672.6,391.1,671.8z"/>
	<path d="M427.7,644c1.4,0,2.5,0,3.5,0.7C429.4,645.1,429.4,645.1,427.7,644z"/>
	<path d="M363.7,669.6c-0.7,1.3-1.5,1.8-2.5,2.3C361.3,670.3,361.3,670.3,363.7,669.6z"/>
	<path d="M437.6,647.2c-2,0.3-3-0.8-4.7-1.8C435,645.4,436.2,645.9,437.6,647.2z"/>
	<path d="M410.5,655c1.2-0.6,2-0.4,2.9,0.1C412.3,656.7,411.6,655.5,410.5,655z"/>
	<path d="M435.7,656.7c0.8-1,1.5-1.1,2.6-0.2C437.4,657.2,436.7,657.2,435.7,656.7z"/>
	<path d="M376.8,589.1c-1-0.8-1.4-1.5-1.3-2.8C376.5,587,376.9,587.7,376.8,589.1z"/>
	<path d="M448.8,647.4c0.7-0.3,1.3-0.4,1.8,0.5C449.7,648.5,449.2,648.3,448.8,647.4z"/>
	<path d="M406.5,654.9c-0.4,0.6-1,0.5-1.6,0.2C405.6,654.5,405.6,654.5,406.5,654.9z"/>
	<path d="M400.9,655c-0.8,0.9-1.2,0.9-1.6,0C399.8,654.5,400.2,654.5,400.9,655z"/>
	<path d="M408.4,662.8c-0.4,0.7-0.8,1-1.3,1c-0.5-0.5-0.1-0.8,0.2-0.9C407.6,662.8,407.9,662.9,408.4,662.8z"/>
	<path d="M384.4,672.5c-0.7,0.3-1.2,0.3-1.8-0.2C383.3,671.6,383.8,671.7,384.4,672.5z"/>
	<path d="M377.5,674.4c0.6-0.8,1.4-0.7,2.4-0.4C379.1,675,378.3,674.9,377.5,674.4z"/>
	<path d="M435.1,677.7c1.2,0.4,1.7,0.8,1.6,1.7C435.7,679.5,435.5,678.8,435.1,677.7z"/>
	<path d="M375.9,601.9c0.9,0.8,1,1.3,1,1.8c0,0.4-0.1,0.8-0.5,1.1C375.5,604.1,376.1,603.3,375.9,601.9z"/>
	<path d="M377.5,581.4c0.5,0.4,0.8,0.8,0.7,1.4C377.5,582.7,377.3,582.3,377.5,581.4z"/>
	<path d="M370.3,596.1c0.9,0.7,1.4,0.9,1.4,1.6c-0.4,0.5-0.7,0-0.9-0.2S370.6,597,370.3,596.1z"/>
	<path d="M679.1,428.8c4.9,2.5,7.7,10.8,5.1,14.3c-1.7-0.9-1-3.1-2.2-4.2c-1.5,0.2-2.5,1.2-3.6,2.1C680.4,437,681,433,679.1,428.8z"
		/>
	<path d="M607.7,483.7c-4.8,3.7-8.2,8.8-12.7,12.5c-1.2-0.5-1.2-1.1-0.7-1.8C596.5,491.3,603.8,485.2,607.7,483.7z"/>
	<path d="M559.1,495.6c0,3.6-1.6,5.9-4.2,7.6c-1.6-0.6-1.8-1.6-1.3-2.8C554.7,498.1,555.7,495.9,559.1,495.6z"/>
	<path d="M593.5,549.6c-1.9-1.8-3.2-4-3.4-7.4C592.3,544.7,593.9,546.6,593.5,549.6z"/>
	<path d="M587.1,514.3c-1.3-2.3-0.2-3.8,0.6-5.6C588.9,511.4,588.8,512.1,587.1,514.3z"/>
	<path d="M610.5,483.1c0.8-2.8,2.4-3.6,4.7-4.8C614.1,480.7,612.7,481.8,610.5,483.1z"/>
	<path d="M558.8,515.1c1.8,0.5,2.8,1.9,3.4,3.7c-1.3-1.1-2.5-2.1-3.8-3.2C558.5,515.4,558.6,515.3,558.8,515.1z"/>
	<path d="M553.6,510.9c-2.1,0.8-3-0.5-4.5-1.4C551.1,508.9,552.3,509.2,553.6,510.9z"/>
	<path d="M617.3,476.9c0.7-1.7,1.8-2.1,3.6-2.4C619.7,475.8,619.1,476.8,617.3,476.9z"/>
	<path d="M672.4,445c1.3-1.5,2.2-2.5,4.2-2.4C675.5,444.3,674.1,444.4,672.4,445z"/>
	<path d="M561.1,491.3c-0.2,1.3-0.7,2-1.3,2.7C558.6,492.6,558.7,492.4,561.1,491.3z"/>
	<path d="M589,541.5c-0.8-0.8-1.3-1.7-1.2-3C589.1,539.3,589.1,540.4,589,541.5z"/>
	<path d="M670.9,446.8c-0.8,1.5-1.7,1.8-2.6,2.6C668.8,447.9,668.8,447.9,670.9,446.8z"/>
	<path d="M630.7,467.6c0.4-1.2,1.2-1.8,2.4-2.3C632.4,467.1,632.4,467.1,630.7,467.6z"/>
	<path d="M626.9,470.1c-0.2,1.2-0.8,2.1-2.2,2.6C624.8,471.2,625.7,470.6,626.9,470.1z"/>
	<path d="M665.9,451.7c-0.7,1.5-1.7,1.4-2.6,1.8C663.6,452.2,664.4,451.9,665.9,451.7z"/>
	<path d="M588.7,508.1c-0.6-0.6-0.5-1-0.4-1.5c0.1-0.4,0.3-0.7,0.9-0.9C589.6,506.6,589.6,507.3,588.7,508.1z"/>
	<path d="M585.8,534c1,0.9,1.4,1.6,1.1,2.7C586,535.8,586,535.8,585.8,534z"/>
	<path d="M566.6,526.2c1,0.3,1.2,0.9,0.9,1.7C566.8,527.6,566.6,527,566.6,526.2z"/>
	<path d="M441.8,585.6c-0.4-0.4-0.6-0.7-1-1c-2.1,1.3-4.5,2.2-7,3.1c-0.6-2.3,1.9-1.4,2.4-2.6c0.6-1.4,2.5-0.6,3.7-1.4
		c3-5,7-9.2,10.9-14.2c1,3.3-1.5,4.4-2.3,6.3C449.5,579.9,448.5,582.2,441.8,585.6z"/>
	<path d="M462.1,539.7c-4,2.8-8,5.7-11.6,8.9c-1.1-0.1-1.4-0.7-1.8-1.7C451.8,542.1,457.1,541.3,462.1,539.7z"/>
	<path d="M483.3,512.6c5.4,0.8,11.1,1,15.8,4.5C494.1,514.6,488.5,514.5,483.3,512.6z"/>
	<path d="M510.5,529.9c-2.5,2.3-5,4.7-8.7,5.3c0.1-0.7,0.1-1,0.2-1C504.6,532.3,507.6,531.2,510.5,529.9z"/>
	<path d="M427,581.2c1.3,0.4,2.6,0.9,3,2.7C428.1,583.5,427.7,582.1,427,581.2z"/>
	<path d="M421.1,622c-0.5,0-1,0.2-1.6-0.2c1-1,2-1.6,3.4-1.8C422.8,621.3,421.6,621.4,421.1,622L421.1,622z"/>
	<path d="M521,510.4c-0.8,1-1.6,1.7-3,1.2C518.9,510.4,519.8,510,521,510.4z"/>
	<path d="M457.2,527c-0.9,0.6-1.5,0.9-2.4,0.4C455.4,526.5,456,526.1,457.2,527z"/>
	<path d="M461.5,526.1c-0.6,0.9-1.2,0.9-1.9,0.6c-0.2-0.7,0.3-0.8,0.7-1C460.7,525.6,461.1,525.6,461.5,526.1z"/>
	<path d="M517.7,522.7c-0.2,0.7-0.6,0.9-1.1,0.8C516.6,522.4,517.1,522.5,517.7,522.7z"/>
	<path d="M426.3,617c-0.5,0.9-0.9,1.4-1.8,1.5C424.7,617.7,425.1,617.2,426.3,617z"/>
	<path d="M452.7,527.9c-0.2,0.9-0.7,1.2-1.5,0.6C451.4,527.4,451.9,527.4,452.7,527.9z"/>
	<path d="M446.4,529.3c0.1-0.8,0.6-1,1.3-0.9C447.5,529.3,447.5,529.3,446.4,529.3z"/>
	<path d="M509.2,536.7c0.4-1.1,0.9-1.3,1.7-0.9C510.6,536.5,510.1,536.7,509.2,536.7z"/>
	<path d="M425.2,578.2c-0.5-0.1-0.8-0.4-0.9-0.9c0.6-0.5,0.9-0.1,1.1,0.1C425.6,577.7,425.4,577.9,425.2,578.2z"/>
	<path d="M506.9,537.2c-0.3,0.9-0.8,1.2-1.6,0.7C505.7,537.4,506.1,537,506.9,537.2z"/>
	<path d="M686.4,528.7c-8.5-4.1-17-7.9-26.1-10.5c0.4-1.4,1.2-1.4,2-1.3c1.5,0.3,3.1,0.5,4.5,1.1c4.9,1.9,9.8,4,14.2,7
		C682.9,526.3,685.1,526.9,686.4,528.7z"/>
	<path d="M640,496.7c2.6-0.5,5.2-1.2,7.7,0.3c0,1.4-0.7,1.9-1.6,1.7c-2.1-0.3-4.1-0.8-6.2-1.2C640,497.2,640,496.9,640,496.7z"/>
	<path d="M664.1,500.8c-2.7,0.8-4.9,0.5-7.1,0.2C659.2,500.7,661.3,498.9,664.1,500.8z"/>
	<path d="M689,530c2.2,0,2.9,1.9,4.6,2.9C691.4,532.7,691.1,532.5,689,530z"/>
	<path d="M638,538.2c-0.4-1.5,0.4-2.4,0.8-3.4C639.4,536,639.2,537.1,638,538.2z"/>
	<path d="M730.7,564.2c-1.1-0.1-1.7-0.3-1.9-1.4C729.8,562.8,730.4,563.1,730.7,564.2z"/>
	<path d="M727,561.9c-1.5,0.2-2-0.1-2.4-0.9C725.7,560.4,726,561.3,727,561.9z"/>
	<path d="M734.4,566.5c1-0.2,1.2,0.3,1.5,0.8C734.9,567.8,734.7,567.1,734.4,566.5z"/>
	<path d="M697.7,537.1c0.9-0.2,0.9,0.3,0.9,0.9C697.8,538.2,697.6,537.8,697.7,537.1z"/>
	<path d="M676.7,414.4c-5,0.8-10,0.1-15,0.1c-0.8,0-1.7-0.2-2-1.3c0.6-1.4,1.9-1.3,3.1-1.3C670.4,411.6,674.8,412.3,676.7,414.4z"/>
	<path d="M658.3,398.6c0.2-0.8,0.9-0.9,1.4-1c3.1-0.9,6.3-1.2,9.6-0.9c1.8,0.2,3.5,0.6,4,2.6c-0.4,0.9-1,1.1-1.7,0.9
		c-2.9-0.7-5.8-0.4-8.7-0.1C660.7,400.4,659.9,400.1,658.3,398.6z"/>
	<path d="M657.5,395.1c2-1.9,4.5-2.4,10.8-2.6c1.1,0,2.3-0.2,3.1,1.5c-2.3,1.8-5.1,1.9-7.9,2.2C659.4,396.5,659.4,396.4,657.5,395.1
		z"/>
	<path d="M656.9,390.7c1.6-0.9,0.4-3.2,2.5-3.5c0.8,0,0.7,0.8,1.1,1.3c2,0.4,4.2-1.5,6.1,0.3C665.1,391.4,660.7,392.3,656.9,390.7z"
		/>
	<path d="M684.8,409.2c-0.8,0-1.7,0.2-2.5,0.1c-1.6-0.2-2.8-1.5-3-3.1s0.6-3,2.2-3.7c0.8-0.3,1.7-0.5,2.6-0.8
		C687.2,405.5,687.2,405.9,684.8,409.2L684.8,409.2z M680.5,405.8c0.5,1.5,1.2,2.3,2.6,2c1.2-0.2,2-1,2-2.4c0-0.4-0.2-0.8-0.6-1
		c-0.6-0.1-0.5,0.9-1.4,0.6c-0.8,0.1,0-1.5-1-1.3C681.1,404.2,680.8,404.9,680.5,405.8z"/>
	<path d="M687.4,423.1c-1-1.6-2.2-3.1-1.4-5.1c1-1.3,2.2-1.1,3.3-0.8c1-0.2,0.9-1.6,2-1.4c0.8,1.4-1.3,2.1-0.8,3.3
		c0.7,1.3,2-0.8,2.8,1C691.5,421.4,689.5,422.1,687.4,423.1z M687.4,418.7c-0.4,1.2-0.2,1.9,0.7,2.4c0.6-0.1,1-0.3,1.2-0.9
		C689,419.4,688.8,418.5,687.4,418.7z"/>
	<path d="M684.7,409.2c0.7,0,1.4-0.2,2.1-0.1c1.6,0.2,2.7,1.6,2.9,3.2c0.1,1.6-0.8,3-2.3,3.6c-1.4,0.5-2.8,0.2-3.9-1.1
		c-1-1.2-1.2-3-0.3-4.3C683.6,410.1,684.2,409.7,684.7,409.2L684.7,409.2z M683.9,412.7c0,1.1,0.8,2,1.9,2.1
		c1.3,0.1,2.5-0.9,2.5-2.2c0-1.1-0.7-1.9-1.9-2C685.1,410.4,683.9,411.4,683.9,412.7z"/>
	<path d="M629.7,562.5c-0.9-1.7-1.8-3.4-2.9-5.5C629.3,559.1,629.4,559.3,629.7,562.5z"/>
	<path d="M628.4,566.9c-1.2-0.5-1.3-1.7-1.7-2.6C627.6,565,628,565.9,628.4,566.9L628.4,566.9z"/>
	<path d="M624.8,561c0.5,0.3,0.9,0.6,0.7,1.3C625,562,624.6,561.8,624.8,561z"/>
	<path d="M528.2,275.5c-6-2.1-12.1-3.9-18-6.6c1-1.2,2.1-1.1,3.2-0.9c5.6,0.7,10.5,3.1,14.7,6.9
		C528.2,274.8,528.2,275.1,528.2,275.5z"/>
	<path d="M438.3,336.2c-4.3-1.1-7-4.3-10-7.1c2.2,0.4,3.5,2.2,5.1,3.4C435.1,333.7,436.7,335,438.3,336.2z"/>
	<path d="M531.4,297.3c0.1-4.5-1.2-8.9-0.6-13.3C532.3,288.4,531.6,292.9,531.4,297.3z"/>
	<path d="M425.6,321.1c-4.2-1.2-5.8-2.8-5.9-5.5C422.3,316.6,423.4,318.8,425.6,321.1z"/>
	<path d="M455.5,341.1c0-0.1,0.1-0.3,0.1-0.3c3.2,0.1,6.4-0.8,9.7-0.4c-0.1,0.3-0.2,0.6-0.2,0.6
		C461.8,340.5,458.6,342.8,455.5,341.1L455.5,341.1z"/>
	<path d="M536.1,278.8c-1.6,0.1-3.4,0.9-4.9-0.7C533.2,276.6,534.7,277.7,536.1,278.8z"/>
	<path d="M455.4,341c-2.4,1.8-2.7,1.8-5.6-0.2C451.9,340.8,453.7,341.6,455.4,341L455.4,341z"/>
	<path d="M549,280.5c-1-1.3-0.7-2.6-0.5-4C548.7,277.8,548.8,279.1,549,280.5z"/>
	<path d="M543.9,307.7c1-0.5,1.6-1.2,2.4-1c0.3,0.2,0.3,0.4,0.1,0.6C545.8,308.1,545.1,307.8,543.9,307.7z"/>
	<path d="M432,323.3c0.8-0.5,1,0,1.3,0.5C432.7,324.2,432.3,324.1,432,323.3z"/>
	<path d="M542.3,308.8c-0.1,0.8-0.6,1.1-1.4,0.9c-0.5-0.5,0.1-0.7,0.3-0.9C541.5,308.5,541.9,308.3,542.3,308.8z"/>
	<path d="M496.5,304c-0.7-0.1-1-0.5-0.8-1.2c0.5-0.3,0.7,0,0.9,0.4C496.8,303.4,496.8,303.7,496.5,304z"/>
	<path d="M539.9,310.9c-0.1,1-0.4,1.4-1,1.4C538.6,311.6,539.2,311.5,539.9,310.9z"/>
	<path d="M653.8,201.5c1,0.3,1.3,0.7,1.4,1.2c0,0.7-0.4,1.2-0.8,1.6c-3.9,4-7.8,8.1-10.5,13.1c-0.1,0.1-0.3,0.1-0.9,0.3
		C645.5,211.2,647.9,205.1,653.8,201.5z"/>
	<path d="M665,186.8c0.5-1.1,0.9-1.4,1.4-1.5c4.4-0.1,8.8-0.5,13.3-0.4c-2.4,0.6-4.8,1.4-7.3,1.8C670,187,667.6,188.5,665,186.8z"/>
	<path d="M682.1,184.9c2-1.4,3.2-1.5,8.1-0.6C687.7,185.3,685.3,185.5,682.1,184.9z"/>
	<path d="M781.5,187.4c-1.3,1.3-1.3,1.3-5.3,1.6C777.7,187.1,778.6,186.8,781.5,187.4z"/>
	<path d="M661.2,171.8c1.5-1.3,2.7-3,5.5-2.8C665,170.8,663,171.1,661.2,171.8z"/>
	<path d="M726.5,182.8c2.2-0.8,3.6-0.5,5.1,0.1C730.1,183.6,728.7,183.7,726.5,182.8z"/>
	<path d="M655.1,198.7c0.8-1.4,2.1-1.3,3.5-1.5C657.2,198.9,657.2,198.9,655.1,198.7z"/>
	<path d="M643.5,227.8c-0.9-1-0.8-1.6-0.1-2.2c0.5,0.3,0.6,0.7,0.5,1.1C643.9,227,643.7,227.3,643.5,227.8z"/>
	<path d="M643.5,221.6c0.2,1.2-0.3,1.5-1.1,2.1C642.3,222.6,642.4,222,643.5,221.6z"/>
	<path d="M658.7,186.1c0.9-0.1,1.4-1,2.1-0.7c0.4,0.2,0.4,0.3,0.2,0.5C660.3,186.4,659.6,186.4,658.7,186.1z"/>
	<path d="M717.7,183.6c-0.9,0.9-1.4-0.1-2,0.2C716.4,182.8,716.9,183.4,717.7,183.6z"/>
	<path d="M773.5,189c-0.3,1.5-1,1.3-1.8,1C772,189.4,772.5,189.1,773.5,189z"/>
	<path d="M699.1,184.8c-0.9,0.5-1.4,0.5-1.8,0.2C697.6,183.3,698.2,184.3,699.1,184.8z"/>
	<path d="M765.6,190.6c0.2-0.6,0.6-1.1,1.3-0.9C766.7,190.6,766.7,190.6,765.6,190.6z"/>
	<path d="M705.1,185.1c-0.8,0-1.1,0-1.3,0s-0.3-0.2-0.4-0.3C703.8,184.6,704.2,184.6,705.1,185.1z"/>
	<path d="M565.8,173.6c4.9-3,10.5-4.3,16.1-5.7C576.8,170.5,571.6,172.8,565.8,173.6z"/>
	<path d="M537.5,165c-0.7,1.2-1.3,2.5-2.2,3.6c-1,1.4-1.9,1.4-3.5-0.1c0.6-2.8,3-3.3,5.1-4.2C537.1,164.5,537.3,164.7,537.5,165z"/>
	<path d="M595.3,166.6c-2.6,0.6-4.6,1-6.6,1.5c-0.1,0-0.2-0.1-0.2-0.2C589.6,166.1,590,166,595.3,166.6z"/>
	<path d="M607.2,166.5c-1.9,1.2-3.4,1.6-5.4,1C603.3,165.9,605,166.2,607.2,166.5z"/>
	<path d="M564.3,172.2c-0.9,1.3-1.9,1.1-3.2,0.9C562,171.7,563,171.8,564.3,172.2z"/>
	<path d="M609.7,166.6c1.6-0.2,1.6-0.2,3,0.6C611.2,167.5,611.2,167.5,609.7,166.6z"/>
	<path d="M549,206c-1.1-0.3-0.9-1.1-1.1-2.3C548.8,204.7,549.2,205.2,549,206z"/>
	<path d="M617.2,167.4c-0.8,0.5-1.3,0.5-1.7-0.1C616,166.7,616.5,166.8,617.2,167.4z"/>
	<path d="M583.9,167.3c0.3,0,0.6,0,1-0.1v0.1c-0.3,0-0.6,0-1,0.1C583.9,167.4,583.9,167.4,583.9,167.3z"/>
	<path d="M812.9,178c0.8,2.1,2.1-0.3,2.9,0.7c0,1.6-2.1,1.4-2.3,2.8c0.2,1,1.8,0.4,2,1.8c-2.1,0.7-4.1,0-6.2,0.1
		c-0.9-3.5-0.7-4.2,1.7-5.8c-2.1-2.7-2.2-5.2-0.3-6.6c1.7-1.3,4-0.7,5.1,1.2C817.3,174.3,816.3,176.2,812.9,178z M813,176.1
		c1.1-0.1,2.1-1.1,2.1-2.2c0-1.2-1.2-2.3-2.4-2.2s-2,1.1-1.9,2.3C810.9,175.2,811.9,176.1,813,176.1z M810.6,182
		c2-0.7,2.1-1,0.8-2.9C810.1,179.7,810.3,180.6,810.6,182z"/>
	<path d="M815.1,139.1c-0.2,0.9-0.4,1.4-1.5,1.8c-2.9-1.6-6.3-2.9-8.7-5.6c0.4-1.6,1.3-2.2,2.4-1.9
		C810.6,134.4,813.6,135.9,815.1,139.1z"/>
	<path d="M816.8,162.6c-0.2,1.2,0.1,2.1,0.1,3c0.1,2.1-1.6,3.9-3.6,3.9c-2.1,0-3.8-2-3.4-4.3c0.3-2.1,2-3.5,4.2-3
		C814.9,162.3,815.7,162.4,816.8,162.6z M813.5,163.5c-1.4,0-2.1,0.9-2.3,2.4c0.4,1.3,1.1,2.1,2.5,2c1.2-0.2,2.1-0.9,2-2.2
		c-0.5-0.8-1.4,0.7-1.8-0.4C813.2,164.7,814.6,164.1,813.5,163.5z"/>
	<path d="M813.4,134.6c-2.8-0.6-4.8-2.5-6.9-4.2c1.4-1.9,2.1-2.1,3.6-1.4C812.5,130.1,813.9,132.3,813.4,134.6z"/>
	<path d="M446.7,217.1c-0.1,1.2-0.8,1.8-2.1,2.6C444.8,218.1,445.6,217.5,446.7,217.1L446.7,217.1z"/>
	<path fill="none" d="M680.5,405.8c0.2-0.9,0.6-1.6,1.6-2c0.9-0.2,0.2,1.4,1,1.3c0.8,0.3,0.8-0.7,1.4-0.6c0.4,0.2,0.6,0.6,0.6,1
		c0,1.4-0.8,2.1-2,2.4C681.7,408.1,681,407.3,680.5,405.8z"/>
	<path fill="none" d="M687.4,418.7c1.4-0.2,1.7,0.7,1.9,1.5c-0.2,0.6-0.6,0.8-1.2,0.9C687.2,420.6,686.9,419.8,687.4,418.7z"/>
	<path fill="none" d="M683.9,412.7c0-1.3,1.2-2.2,2.5-2.1c1.2,0.1,1.9,0.9,1.9,2c0,1.3-1.2,2.3-2.5,2.2
		C684.7,414.7,683.9,413.7,683.9,412.7z"/>
	<path fill="none" d="M813,176.1c-1.1,0.1-2.2-0.9-2.2-2.1c-0.1-1.2,0.8-2.3,1.9-2.3c1.3-0.1,2.5,1,2.4,2.2
		C815.2,175,814.2,176,813,176.1z"/>
	<path fill="none" d="M810.6,182c-0.3-1.3-0.4-2.3,0.8-2.9C812.6,180.9,812.6,181.2,810.6,182z"/>
	<path fill="none" d="M813.5,163.5c1.1,0.6-0.2,1.2,0.3,1.8c0.4,1.1,1.3-0.5,1.8,0.4c0.1,1.4-0.7,2.1-2,2.2c-1.4,0.2-2.1-0.7-2.5-2
		C811.3,164.4,812,163.5,813.5,163.5z"/>
</g>
</svg>
