<?xml version="1.0" encoding="utf-8"?>
<!-- Generator: Adobe Illustrator 19.2.0, SVG Export Plug-In . SVG Version: 6.00 Build 0)  -->
<svg version="1.1" id="Layer_2" xmlns="http://www.w3.org/2000/svg" xmlns:xlink="http://www.w3.org/1999/xlink" x="0px" y="0px"
	 viewBox="0 0 900 600" style="enable-background:new 0 0 900 600;" xml:space="preserve">
<g>
	<path d="M305.3,10.7c0.1-0.1,0.2-0.1,0.2-0.2c0-0.1,0-0.2,0-0.3c0.6,0.3,1.2,0,1.6-0.4c1-0.9,2-1.9,3-2.8c0.9,0.3,1.2,0.9,1.2,1.7
		c0,1.6-0.1,3.3-0.1,4.9c0,0.1,0.3,0.3,0.4,0.4c0.7-0.4,1.3-0.9,2.1-1.4c0.7,0.8,1.3,1.5,2,2.2c-0.9,0.7-1.7,1.2-2.5,1.8
		c1.8,1,2.7-0.5,4-1.3c0.7,0.7,1.3,1.4,2,2.1c-0.6,1.2-0.6,2.3-0.2,3.3c-1.4,2-1.4,1.9-3.2,2.8c-2,1-4,2.1-5.2,4.3
		c0.3,2.5,0.5,5.1,0.9,7.7c0.3,2.1,0.3,4.3,1.7,6.1c0.3,0.4,0.3,1.2,0.2,1.7c-0.7,2.8-1.2,5.8-2.3,8.4c-1.3,0.4-2.4,0.8-3.6,1
		c-1.1,0.2-2.3,0-3.5,0c-0.2,1.3-0.4,2.5-0.6,3.6c-0.5-0.7-0.6-1.4-0.8-2c-0.6-2.8,0.6-4.8,2.7-6.5c0.5-0.4,1.2-0.7,1.9-1
		c1.4-0.6,2.8-1.3,4.2-1.9c0.2-0.9,0.4-1.9,0.7-2.9c-1.5-1.5-2-3.4-2.2-5.4c-0.2-1.9-0.4-3.8-0.7-5.7c-0.1-0.7,0.1-1.5-0.9-2
		c-0.5,0.1-1.2,0.2-1.8,0.5c-1.3,0.6-2.7,0.8-4.2,0.5c-0.9-0.2-1.9-0.3-2.8-0.5c-2.5-0.5-5.2,0.3-7.7-0.5c-0.1,0-0.2,0-0.3,0.1
		c-1.3,0.3-2.7,0.7-4.1,1c0,0.4,0.2,0.8,0.1,1.1c-0.1,0.3-0.3,0.5-0.5,0.8c-0.3-0.2-0.7-0.4-0.7-0.6c0-0.8-0.4-1.4-1-1.8
		c-1.6-0.9-3.1-2.1-5.1-2.6c-0.5,0.8-1,1.4-1.5,2.1c-0.2,0.1-0.4,0.2-0.5,0.4c0,0,0,0.2,0,0.3c0.2,0,0.5-0.1,0.5-0.1
		c0-0.2,0-0.4-0.1-0.6c1.4,0.3,2.7,0.6,4.3,1c0.5,1.1,1.1,2.3,1.8,3.8c-1.1,0.6-2.1,1.2-2.9,1.6c0,0.5-0.1,0.8-0.1,1.2
		c-0.9-0.1-1.7-0.1-2.8-0.2c-0.2,0.3-0.5,0.6-0.7,1.1c-0.4,0.7-0.7,1.5-1,2.3c-0.8,2.1-1.9,4.1-3.3,5.9c-1.2,1.4-1.8,3-2.3,4.7
		c-0.8,2.7-1.8,5.4-2.8,8.1c-0.3,0.8-0.6,1.8-2,2c-0.1-0.8-0.1-1.6-0.4-2.3c-0.6-1.9-1.2-3.8-1.8-5.8c-0.2-0.6-0.4-1.1-0.7-1.6
		c-0.6-0.9-1.4-1-2.7-0.3c0.7,2.1,0.7,2.1,3.2,4.5c-0.2,2-0.5,4.1-0.7,6.2c-1,0.2-1.9,0.3-3,0.5c0.5,0.8,0.8,1.7,1.3,2.2
		c0.5,0.4,1.3,0.3,2,0.5c0.2,0.1,0.3,0.4,0.5,0.7c-0.4,0.6-0.9,1.2-1.2,1.6c-0.1,3.3-0.1,6.4-0.4,9.5c-0.2,2.2-0.8,4.4-1.2,6.6
		c-0.2,1.3-0.9,2.4-1.7,3.5c-1.4,1.8-2.9,3.5-3.8,5.5c-0.6,1.4-1.5,2.1-2.7,2.6c-2.8,1.1-5.5,2.1-8.3,3.2c-1.1,0.4-2.3,0.5-3.1,1.7
		c0.3,1.3,1.3,2.3,2,3.3c2.7,3.9,5,8.1,6.8,12.5c4.4,11.1,6.3,22.6,5.9,34.5c0,1.1-0.1,2.2-0.5,3.2c-0.9,2.8-1.8,5.6-2.9,8.4
		c-0.5,1.2-1.1,2.4-1.9,3.4c-0.6,0.8-1.5,1.7-2.4,2c-1.3,0.5-2.2,1.3-3.3,2.1c-1.6,1.2-3.3,2.4-5,3.3c-2.2,1.2-4.5,2-6.9,3.1
		c0.4,0.7,0.7,1.5,1.1,2.2c0.4,0.7,0.8,1.4,1.2,2.2c0.5,0.8,1,1.6,1.4,2.4c0.4,0.6,1.3,1,1.2,2.6c-1.8-1.5-3-2.9-4.4-4.1
		c-1.3-1.3-2.5-2.8-3.8-4.4c-0.8,0.2-1.5,0.3-2.2,0.5c0,2.1,0.1,4,0,5.9c-0.1,1.9-0.3,3.8-0.5,5.7c-0.5,5-1.7,9.8-4.9,13.9
		c-1.1,1.4-1.6,3.2-2.6,4.6c-1,1.4-2.3,2.6-3.7,4.3c1.2,0,2.2,0.2,3,0c3.1-0.4,6.1-0.9,9.2-1.4c2.3-0.4,4.6-1,6.8-2.1
		c2-1,4.1-1.8,6.3-2.4c1.8-0.5,3.7-0.5,5.2-1.9c0.7-0.7,1.9-0.9,3-1.1c2.7-0.6,5.3-1.2,8-1.5c2.3-0.3,4.7-0.4,7.1,0.3
		c1.6,0.5,3.2,0.3,4.9-0.2c3.1-0.8,6.2-1.4,9.4-2c0.8-0.2,1.7-0.2,2.5-0.1c2.4,0.4,4.7,0.1,7-0.6c2.8-0.8,5.7-0.6,8.5-0.3
		c1.1,0.1,2.3,0.5,3.3,1.1c3.3,1.7,6.5,3.5,9.7,5.2c0.3,0.1,0.7,0.1,1,0.1c0.9-1.5,0.3-2.9-0.2-4.5c2.4-2.3,4.8-4.5,7.3-6.7
		c3-2.7,5.5-5.6,6.3-9.6c0-0.2,0.2-0.4,0.2-0.7c1.6-4.6,2.6-9.4,3-14.2c0.1-1.5,0.4-3.1-0.1-4.6c-0.8-2.3-1-4.6-1-7
		c-0.1-2.4-0.1-4.8-0.3-7.1c0-0.8-0.2-1.7-0.5-2.4c-1.3-2.7-1.7-4.9-1.6-8.5c0.9,0.1,1.1,0.8,1.4,1.4c0.4,0.7,0.5,1.6,1,2.2
		c0.7,0.9,1.1,1.8,1.2,2.9c0.1,0.7,0.3,1.4,0.6,2c1.2,3,1.8,6.1,1.6,9.4c-0.1,1.9,0.1,3.8,1,5.8c1-1.7,1.6-3.4,1.8-5.1
		c0.3-2.2,0.5-4.5,0.9-6.7c0.7-4.1,0.1-8.1-0.4-12.1c-0.5-4.2-2.8-7.7-3.9-11.7c-0.1-0.3-0.4-0.6-0.6-0.8c-1.1-1.3-2.4-2.3-4-2.9
		c-2-0.7-4-1.5-6-2.2c-1.9-0.7-3.7-1.5-5-3.2c-0.6-0.7-1.3-1.4-2.3-1.5c-0.1-0.1-0.1-0.2-0.2-0.3c0.1,0.1,0.2,0.1,0.3,0.2
		c0.1,2.9,1.7,5.3,2.8,7.9c1,0.1,2,0.1,2.9,0.3c0.4,0.1,0.7,0.4,1.1,0.7c-1,0.5-1.8,1-2.6,1.4c0.5,1,0.9,1.9,1.3,2.7
		c0.4,1.1,0.3,1.3-1.4,2.5c-0.4-0.6-0.8-1.2-1-1.8c-2.1-5-4.2-10-6.2-15.1c-0.6-1.4-1.2-2.5-2.8-2.8c-0.1-0.1-0.2-0.2-0.3-0.3
		c0,0.1,0,0.2,0.1,0.2c0.1,0,0.2,0,0.3,0c0,0.5-0.1,1,0.1,1.4c0.5,1.2,1,2.4,1.6,3.6c2.8,5.5,4,11.4,4.3,17.5c0,0.8,0.1,1.7-0.1,2.5
		c-0.7,1.7-0.6,3.5-0.7,5.3c-0.4,4.7-2.5,8.6-6.3,11.5c-0.9,0.7-2,1.3-3.1,1.6c-1.3,0.3-2.4,0.9-3.5,1.6c-0.8,0.5-1.7,0.8-2.6,1.2
		c-0.8,0.3-1.7,0.4-2.4-0.1c-0.9-0.6-1.9-0.6-3-0.7c-1.5-0.2-3.1-0.6-4.4-1.3c-2.1-1.1-4.1-2.5-5.9-3.9c-3.3-2.6-6-5.7-8.5-9.1
		c-1.8-2.4-3.6-4.8-5.5-7c-5.8-7-10-15-13.3-23.5c-1.4-3.5-2.4-7.2-3.6-10.8c-0.4-1.1-0.5-2.3-0.7-3.5c-0.1-0.6,0.3-0.8,0.8-0.8
		c0.1,0.2,0.3,0.4,0.4,0.6c0.6,3.9,2.3,7.5,4.1,10.9c0.9,1.7,2.1,3.5,1.9,5.6c0,0.4,0.3,0.9,0.5,1.3c2.4,4.6,4.6,9.4,7.8,13.6
		c3.7,4.9,7.5,9.8,11.3,14.7c2,2.7,4.5,4.9,7.1,7c2.6,2.1,5.5,3.8,8.9,4.2c0.7,0.1,1.4,0.3,2,0.6c1.7,0.9,3,0.3,4.1-0.9
		c0.4-0.5,0.8-0.7,1.4-0.9c5.2-1.6,8.2-5.3,10.1-10.2c1.1-2.9,1-5.8,1.3-8.8c0.6-5.3-0.5-10.4-2.5-15.3c-1.5-3.8-3.4-7.6-5.1-11.3
		c-1.1-0.5-2.1-1.1-3.2-1.6c-1.1-0.6-2.1-1.5-3.6-1.9c-0.2,1.6-0.4,2.9-0.6,4.3c-0.2,1.3-0.4,2.6-0.4,3.9c-0.1,1.3,0.6,2.6,0.1,4.4
		c-1.2-3-2.1-5.4-1.8-8.3c0.2-2.1,0.3-4.2,1.4-6.2c0.4-0.7,0.6-1.5,1-2.3c0.7-1.6,1-3.3,0.4-5.3c-1,0-2.1,0.1-3.1,0
		c-1.3-0.1-2.6-0.4-3.8-0.7c-0.5-0.1-1.1-0.5-0.9-1.2c0.2-0.2,0.4-0.5,0.5-0.5c4.4,0,8.8,0.1,13.2,0.2c1.1-0.5,1.8-1.4,2.1-2.6
		c0.9-4.3,3-8.2,3.4-12.7c0.3-3.9,1.2-7.7,1.8-11.6c0.2-1,0.4-2.1,0.8-3.1c0.6-1.3,0.7-2.5,0.5-3.8c-0.2-2-0.1-4,0.1-6.1
		c0.3,0.2,0.6,0.3,0.7,0.5c1.1,3.1,1.7,6.1,0.7,9.4c-0.4,1.1-0.5,2.3-0.7,3.5c-0.4,2.3-0.8,4.7-1.2,7c-0.2,1.2-0.8,2.3-0.7,3.5
		c0.2,2-0.8,3.7-1.2,5.5c-0.7,2.9-2.4,5.4-3,8.4c-0.2,0.9-1,1.9-1.8,2.6c-0.8,0.8-1.9,1.4-2.7,2c-0.8,0.2-1.5-0.7-2.3,0.3
		c-0.4,1.9-0.8,4-1.2,6.1c7.1,4.3,13.2,9.5,19.1,15.1c0.5,0,1,0.2,1.4,0.1c1.7-0.5,3.4-0.1,4.8,0.9c2.7,1.7,5.3,3.5,7.8,5.5
		c2,1.6,3.2,3.8,3.6,6.4c0.1,0.7,0.4,1.4,0.6,2c2.2,7,3,14.1,1.8,21.5c-0.9,5.2-2.2,10.2-5,14.7c-0.4,0.7-0.7,1.5-0.8,2.3
		c-0.4,2.1-0.7,4.2-1.1,6.3c-0.1,0.5-0.3,1.1-0.1,1.4c1.1,1.8,0.6,3.7,0.5,5.6c0,0.5-0.1,1,0.1,1.4c1.2,2.9,2,6.1,4.2,8.5
		c2.6,2.9,3.9,6.4,4.8,10.1c1.7,6.9,3.3,13.9,4.3,20.9c0.1,0.6,0.1,1.3,0.4,1.7c1.1,1.3,1.1,2.9,1.4,4.3c1.6,7.6,3.1,15.1,4.7,22.7
		c0.2,0.8,0.5,1.6,0.7,2.4c1.1,3.3,2.4,6.5,3.4,9.8c0.7,2.3,1.3,4.6,1.5,6.9c0.2,2.5,0.9,4.7,2.1,6.7c1,1.7,1.2,3.2,1,5
		c-0.5,0.5-1.1,0.8-1.5,1.4c-0.4,0.5-1,1.2,0,1.9c0.5-0.2,1.1-0.5,1.9-0.9c-0.1,1.4-0.5,2.3-1.3,3c-1,0.9-1.3,1.9-1.4,3.1
		c-0.1,1.1-0.4,2.1-0.5,3.2c-0.1,2.1-1.2,3.9-2.4,5.5c-1.2,1.7-2.7,3.1-5.1,3.4c-3.3,0.5-6.5,1.2-9.6,2.5c-2,0.8-3.9,0.8-5.8-0.1
		c-0.5-0.3-1.1-0.4-1.7-0.7c-0.4-0.2-0.8-0.5-1.3,0.2c1.7,5.8,3.4,11.7,5.2,17.6c1.5,5,2.8,10.1,3.1,15.3c0.1,1.7,0.5,3.3,1,4.9
		c0.6,1.9,1.1,3.9,1.2,5.9c0.2,9.3,0.7,18.5-0.2,27.8c0,0.5,0,1,0,1.4c0.5,4.3,0.2,8.5-0.1,12.8c-0.2,2.5-0.2,5-1.3,7.3
		c0.3,0.2,0.5,0.3,0.7,0.4c1.1,0.6,1.4,1.1,0.9,1.9c-1,1.3-0.8,2.6-0.8,4.1c0,5.7-0.4,11.4-2.3,16.9c-0.4,1.2-0.9,2.1-1.9,2.9
		c-1.6,1.2-3.2,2.5-4.7,3.8c-0.9,0.7-1.7,1.6-2.8,2.7c-2.4,0.6-14.7,1.5-17.3,1.2c-1.3-1-2.3-2.1-4-2.8c-2.3-0.9-3.7-2.9-4.4-5.3
		c-0.2-0.5-0.2-1.2,0.7-1.6c0.5,0.3,1.1,0.6,1.6,1c0.6,0.4,1,1,1.6,1.4c1.9,1.8,3.8,3.6,5.6,5.2c1.3,0,2.4,0.1,3.5,0
		c1.8-0.1,3.6-0.6,5.3-0.4c3.2,0.3,5.8-1.1,8.2-2.8c1.6-1.1,3.1-2.2,4.6-3.4c0.9-0.7,1.4-1.5,1.7-2.6c1.2-4.1,2-8.3,2.5-12.6
		c0.2-1.8,0.4-3.7-0.2-5.5c-1,0.2-1.9,0.3-2.7,0.4c-5.3,1-10.6,1.4-16,0.8c-3.1-0.4-6.2-0.6-9.2-0.8c-1.4-0.1-2.9-0.2-4.3,0
		c-3.9,0.4-7.8,0.2-11.7-0.6c-3.3-0.6-6.5-1.5-9.6-2.9c-1.9,1-3.8,1.3-5.9,0.8c-0.4-0.1-0.9-0.3-0.8-1c0.8-1,1.9-0.5,2.9-0.7
		c1.1-0.2,2.2-0.7,3.5-1.1c1.2,0.4,2.5,1,3.8,1.4c3.7,1.1,7.4,2.7,11.4,1.5c0.4-0.1,0.9,0.1,1.4,0.1c4.1,0.1,8.3,0.3,12.4,0.3
		c3,0.1,5.9,0,8.9,0c2,0,4.1,0.1,6.1-0.1c3.3-0.3,6.6-0.6,9.6-1.7c0.1-2.1,0.1-4.1,0.3-6.1c0.2-2.4,0.4-4.7,0.6-7.1
		c0.1-1.7,0.5-3.5-0.8-5.1c-0.3-0.3-0.3-0.9-0.3-1.4c-0.5-7-0.9-14-0.5-21c0.4-6.6,0.6-13.3-0.8-19.9c-0.1-0.4-0.2-1,0-1.4
		c1.2-1.7,0.4-3.5,0-5.2c-0.9-3.7-1.9-7.3-2.9-11c-0.3-1.3-0.9-2.5-0.9-3.8c-0.1-1.7-0.6-3.2-1.3-4.8c-0.8-1.9-1.5-3.7-2.3-5.6
		c-0.2-0.4-0.4-0.8-0.6-1c-0.8-0.2-1.1,0.9-1.9-0.1c-0.5-3.8-2.3-7.4-5-10.8c-0.8,0.2-1.9,0.1-2.6,0.5c-4.2,2.3-8.3,4.7-12.4,7.1
		c-0.8,0.5-1.4,1.3-2.1,1.9c-0.3,0.3-0.7,0.5-1.1,0.8l0,0c0-0.2,0-0.5,0.1-0.7c2.9-4.8,6.7-8.6,11.9-10.9c1.3-0.6,2.6-1.2,4-1.3
		c1.4-0.2,2.3,0.9,3.5,1.4c1.6-3.5,1.4-6.9,1.2-10.4c0-0.5-0.2-0.9-0.4-1.4c-0.8-1.9-1.5-3.7-2.4-5.6c-0.3-0.7-0.9-1.5-1.5-1.9
		c-1.7-0.9-3.6-1.7-5.3-2.5c-0.6,0.9-1.1,1.8-1.6,2.8c-0.6-0.3-1.1-0.6-1.7-0.9c-0.9,0.5-1.9,0.9-2.9,1.4c-2.9,1.4-6,2.2-9.2,2.7
		l0.1,0.1c1.2-2.2,0.4-4.5,0.5-6.9c-1.6,0.3-3,0.5-4.5,0.7c-0.4,1.3-0.7,2.5-1.1,3.7c-0.1,0.5-0.3,0.8-1,0.7
		c-0.5-1.4,0.4-3.1-0.7-4.5c-2.6,0.5-5.3,0.9-7.8,1.4c-0.8,1.2-0.1,2.9-1.7,3.5c-0.2-1-0.4-2-0.7-3.2c-2.5,0.5-4.9,0-7.2,0.9
		c-0.3,2.4-0.6,4.7-1.8,7.1c-1.4-0.1-2.8-0.3-4.2-0.4c-1.9-0.2-3.7-0.7-5.6-0.2c0-0.1-0.1-0.2-0.1-0.3c0.1,0.1,0.1,0.2,0.2,0.2
		c0.3,1.2,1.4,1.5,2.3,2.1c3.9,2.7,7.8,5.5,11.1,8.9c0.9,0.9,1.7,2,2.5,3c0.3,0.4,0.9,0.8,0.7,1.7c-1.8-1.4-3.4-2.6-5.1-3.9
		c-2.8-2.2-5.5-4.6-8.3-6.8c-2-1.5-4-2.9-6.1-4.3c-0.6-0.4-1.2-0.8-1.2-1.9c1.6,0,3.2,0,4.8,0c0.7,0,1.3-0.2,1.9-0.3
		c0.2-1.4,0.4-2.5,0.6-3.7c0.1-0.6-0.4-0.8-1.6-0.8c-0.1,0.8-0.2,1.6-0.4,2.4c-0.1,0.4-0.6,0.8-1,1.4c-0.2-1.5-0.4-2.6-0.5-3.9
		c-0.9,0.3-1.5,0.5-2.1,0.8c-0.3,0.9-0.6,1.6-1,2.8c-0.3-1.3-0.6-2.2-0.8-3.1c-0.2-0.8,0.3-2-1.4-2.2c0,0.8,0,1.5,0,2.2
		c-0.1,0.7-0.2,1.3-0.4,2.3c-1.6-1.6-0.8-3.8-2-5.1c-6.3-2.4-15.1-5-17.2-5.2c0.1,1,0.3,2.1,0.3,3.1c0,1-0.3,2.1-0.5,3.1
		c0-2.5-0.7-4.9-1.7-7.3c-1.8-0.7-4-1.1-5.5-2.8c-0.3-0.3-0.8-0.4-1.3-0.6c-2-1-4.1-1.9-6.1-2.9c-0.4-0.2-0.8-0.1-1.4-0.2
		c-0.4,2.3-0.1,4.4,0.2,6.5c1.3,0.8,2.5,1.5,3.9,1.8c0.8-1.9-0.2-3.7-0.3-5.4c1-0.3,1.4,0.2,1.6,0.7c0.6,1.6,0.9,3.2,0.8,4.9
		c0,0.5,0.4,1.1,0.8,1.5c0.3,0.3,0.8,0.6,1.2,0.1c0.7-1.8-0.5-3.1-1.1-4.6c2.2-1.7,2.1,1.2,3.2,1.4c1.5-0.5,2-0.4,2.3,0.5
		c0.6,1.8,0.5,3.1-0.9,5.4c-1-1.5,0.5-3.6-1.2-4.8c-1.4,1.2-0.2,2.8-0.9,4.1c-0.5-0.1-1-0.2-1.4-0.3c-4.1-1.5-8-3.7-11.9-5.7
		c-0.6-0.3-1.3-1-1.8-0.8c-0.9,0.2-1.4-0.2-1.7-0.8c-2-3.1-1.3-6.4-0.2-9.6c0.2-0.7,0.8-0.7,2.2-0.1c-0.2,3-1.2,6-0.2,9.1
		c0.9,0.3,1.8,0.7,2.7,1c0.2-0.5,0.4-0.8,0.4-1.1c0.1-1.1,0.1-2.1,0.2-3.2c0-1.2,1.4-1.9,1-3.3c-0.2-0.5,0.5-1.1,1.2-1
		c0.8,0,0.9,0.6,0.9,1.3c0,0.2,0.1,0.4,0.2,0.7c0.2,0.2,0.5,0.5,0.8,0.6c4.3,2.1,8.5,4.2,12.8,6.2c0.6,0.3,1.3,0.5,2,0.7
		c6,1.6,11.9,3.3,18,4.1c6.1,0.8,12.2,1.8,18.4,1.4c0.5,0,1-0.1,1.4,0c0.6,0.1,1.3,0.1,1.7,0.4c1.3,0.8,2.5,0.6,3.7,0.2
		c0.4-0.1,0.9-0.4,1.3-0.4c2.7,0.3,5.2-0.4,7.7-0.9c3.1-0.6,6.3-1.2,9.3-2.3c4.3-1.5,6.8-4.6,8.3-8.8c-0.9-1.4-1-2.9-0.8-4.4
		c0.1-1.2,0-2.4,0-3.6c0.1-1.3,0.2-2.6,0.4-3.9c0.1-0.7,0.4-1.4,0.4-2.1c0.1-1.8-0.1-3.6,0-5.3c0.1-1.8,0.4-3.5,0.6-5.1
		c-1.3-1-3.1-0.7-3.7-2.3c1.1-0.3,2.3-0.6,3.6-1c-0.3-2.2-0.7-4.2-2.8-5.4c-0.2-0.2-0.5-0.5-0.7-0.7c-0.1-1.2-0.8-1.9-1.9-2.1
		c-2.1-0.4-4.2-0.8-6.2-1.3c-1.6-0.4-3.1-1.1-4.6-1.7c-0.3-0.1-0.5-0.7-1-1.3c2-0.2,3.2,1,4.6,1.3c1.4,0.3,2.8,0.5,4.2,0.9
		c1.5,0.4,2.9,0.8,4.6,1.2c-0.1-1.3,0.3-2.5,1.2-3.4c0,0-0.1,0.1-0.1,0.1c0.6,0.2,1.3,0.4,1.9,0.6c1.5-1.1,0.1-2.7,0.7-4
		c0.5-1.1,0.5-2.5,0.7-3.6c-1-1.4-2-2.2-3.6-2.3c-3.4-0.2-6.3-2.1-9.2-3.7c-0.4-0.2-0.6-0.7-0.9-1.1c-0.2-0.3,0.3-1.1,0.7-1
		c0.3,0,0.7,0,1,0.2c1.3,0.6,2.6,1.2,3.8,1.9c2.2,1.2,4.3,2.6,6.7,3.3c0.7,0.2,1.3,0.7,1.9,1c0.9,0.5,1.4,1.3,1.4,2.3
		c0,1.2,0,2.4,0,3.6c1,0,1.2-0.7,1.3-1.4c0.1-0.6,0.2-1.2,0-1.8c-1-2.7-1-5.6-1.4-8.3c-1.1-0.5-2.1-1.1-3.2-1.6
		c-0.9-0.4-1.7-0.9-2.7-1c-3-0.3-5.5-1.5-7.2-3.8c-3.6-0.1-7.1-0.3-10.4,0.8c-1.3,0.4-2.8,0.6-4.2,0.6c-2.9-0.1-5.7,0.5-8.5,1
		c-2.3,0.4-4.7,0.7-7.1,0.3c-1.8-0.3-3.8-0.2-5.6,0.6c-0.7,0.3-1.6,0.4-2.4,0.5c-4.8,0.7-9.6,1.5-14.3,2.6c-0.8,0.2-1.7,0.4-2.3,0.9
		c-2.2,1.7-4.9,2.4-7.3,3.6c-0.9,0.5-2.1,0.5-3.1,0.8c-3.2,0.8-6.5,1.1-9.9,1.3c-1.6,0.1-3-0.5-4.5-0.5c-1.5,0-3.1,0.4-4.6,0.4
		c-1.3,0-2.6-0.4-3.8-0.6c-0.3-0.1-0.5-0.4-0.8-0.8c1.6-1.3,3.6-1.3,5.4-1.8c3.1-4.4,6.5-8.7,7.4-14.3c0.1-0.6,0.3-1.2,0.5-1.7
		c2.4-6.4,2.4-13,2-19.7c-0.1-1.5-0.2-3.1-0.4-4.6c-0.2-1.4,0.6-2.7,0.5-4.2c0-1.6,1.1-2.9,2.9-3.8c0.1,0.5,0.3,0.9,0.2,1.2
		c-1.6,3.4-1.3,6.9-0.3,10.4c0.2,0.8,0.4,1.6,0.7,2.6c0.7-0.4,1.1-0.6,1.7-0.9c-0.5-1.7-1.1-3.3-1.5-4.8c-0.3-1-0.5-2.1,0-3.1
		c0.1-0.3,0.4-0.5,0.6-0.7c1.1-0.1,1.3,0.7,1.4,1.3c0.4,2,1,3.9,2,5.6c3.1-0.5,8.1-2.4,10.9-4.3c0.9-0.6,1.7-1.2,2.6-1.8
		c0.9-0.6,1.7-1.2,1.8-2.5c0.1-0.6,0.8-1.2,1.2-1.7c1.4-2.1,2.9-4,4.2-6.2c2-3.4,2.8-7.1,2.3-11c-1-7.8-2.6-15.4-5-22.9
		c-0.1-0.3-0.4-0.6-0.6-1c-2-0.5-4.2-0.7-5.9-2.4c1.8-0.5,3.5,1.1,5.3-0.2c-2.2-6.5-4.9-12.7-9-18.3c-3.4,1.2-7.9,3.7-10.2,5.8
		c-2.1,1.9-4.7,2.9-7.3,3.6c-6.9,1.8-13.5,4.4-20,7.4c-1.7,0.8-3.4,1.5-4.9,2.7c-2.4,1.9-4.1,4.2-5.3,7c-3.1,7-5,14.4-5.7,22
		c-0.4,4.4-1.9,8.3-3.7,12.2c-1.7,3.6-3.6,7.2-5.3,10.9c-1.3,2.8-1.8,5.9-2.1,9c-0.3,4-0.4,8.1-0.8,12.1c-0.5,4.6-0.2,9.3,0.1,13.9
		c0.5,6,1.3,12,2.1,18c0.7,5,2.4,9.6,5.3,13.8c1.5,2.2,3.2,4.4,3.6,7.2c0.1,0.5,0.5,1,0.8,1.6c0.8,0.1,1.5,0.2,2.2,0.1
		c4.4-0.2,8.8-0.4,13.2-0.6c0.9,0,1.9,0.2,2.8,0.2c1.4,0.1,2.9,0.2,4.2,0c4.9-0.8,9.8-1.7,14.7-2.6c2.3-0.4,4.2-1.4,6.2-2.6
		c6.1-3.7,12.2-7.3,18.4-11c1.4-0.8,3.1-1.3,3.5-3.2c0.1-0.5,1.1-0.8,1.7-1.1c1.7-0.6,3.4-0.9,4.7-2.2l-0.1,0.1
		c0.9-0.3,1.8-0.6,2.6-0.9c1.4-0.6,2.8-1.2,4.3-1.9c0.8,0.5,1.4,0.9,2.1,1.3c3.4,2.1,6.6,4.6,10.4,6c1,0.4,2,0.7,3.1,0.6
		c2.7-0.3,5.4-0.5,8.1-0.8c0.5,0,1-0.1,1.3-0.4c1-1.2,2.4-1,3.6-0.8c2.4,0.4,4.9,1,7.3,1.5c1.7,0.4,2.9,1.6,4.1,2.7
		c0.6,0.5,0.3,1.3,0.2,2c-1.2-0.9-2.5-1.8-3.8-2.7c-2,1.2-4,0.7-6.1,0.1c-1.3-0.3-2.5-0.8-3.8-0.7c-2.8,0.1-5.7,0.4-8.5,0.7
		c-3.8,0.4-7.3-0.4-10.6-2.2c-2.7-1.5-5.2-3.3-7.9-5.1c-2,1-4.1,2.1-6.3,3c-1.7,0.7-3.2,1.6-4.5,2.9c-3.2,3.2-6.9,5.8-10.8,8.2
		c-0.7,0.4-1.3,1-1.8,1.3c0.2,2.8,0.5,5.5,0.4,8c-0.1,2.5,0.3,4.7,1.8,6.7c0.4,0.6,0.6,1.3,0.1,2.1c-1.9-1.6-3.6-3.1-2.9-5.9
		c0.1-0.3,0-0.7-0.1-1c-1.1-1.9-1.2-4.1-1.6-6.2c-0.1-0.7-0.3-1.3-0.5-2.2c-2.4,1-4.3,2.5-6.4,3.5c-2.3,1-4.6,1.9-7,2.6
		c-2.2,0.7-4.5,1.1-6.8,1.6c0.4,4.2,0.3,4.8-1,6.7c-1.1-0.7-1.1-2.1-1.5-3.1c-0.4-1-0.3-2.2-0.5-3.3c-0.5,0-0.8,0-1.2,0.1
		c-5.3,1.1-10.5,1.6-15.9,0.5c-1.4-0.3-2.8-0.1-4.3,0c-2.6,0.2-5.2,0.5-7.8,0.7c-3,0.3-4.9-1.7-4.7-4.8c0-0.6,0.2-1.2,0.2-1.5
		c-1.7-3-3.3-5.7-4.8-8.6c-1-1.9-1.4-4-1.7-6.1c-0.6-4.9-1.4-9.9-2.1-14.8c-0.2-1.3-0.3-2.6-0.4-3.9c-0.1-1.9-0.2-3.8-0.3-5.7
		c-0.2-3.2-0.6-6.4-0.5-9.6c0.1-4.7,0.4-9.5,0.9-14.2c0.6-4.5,1.4-8.9,3.5-13c1.7-3.4,3.2-6.9,4.7-10.4c0.6-1.3,1.2-2.6,1.7-3.9
		c0.5-1.3,1-2.7,1.1-4.1c0.5-5.9,2-11.7,2.6-17.6c0.2-1.4,0.2-2.8-0.2-3.9c1.5-2.4,2.7-4.7,4.2-6.9c0.9-1.3,2.1-2.6,3.4-3.6
		c1.3-1,3-1.6,4.2-2.7c1.3-1.2,2.7-1.8,4.2-2.4c2.8-1.1,5.5-2.3,8.3-3.2c3-1,6.2-1.9,9.4-1.5c2.8,0.3,5.1-0.5,7.2-2.2
		c1.5-1.3,3.1-2.6,4.5-4c3.5-3.4,7.5-5.8,12.1-7.3c1.5-0.5,2.9-1.1,4.3-1.8c2.3-1.1,4.5-2.2,6.7-3.3c0.6-0.3,1.2-0.7,1.5-0.9
		c0.9-3,1.7-5.8,2.5-8.5c0.3-1,0.5-2,0.1-3.1c-1.8-4.4-2.9-9-4-13.6c-0.2-0.7-0.4-1.4-0.6-2c-0.9-2.1-1.1-4.3-1.1-6.6
		c-0.1-2.8,0-5.7-1.3-8.3c-1.3-2.7-1-5.4,0.3-7.9c0.9-1.8,1.3-3.6,1.5-5.4c0.1-1.2,0.4-2.4,1.3-3.2c1.2-1.1,0.6-2.9,1.7-4
		c0.1-0.1-0.3-0.6-0.4-0.9c0-0.1,0.2-0.3,0.3-0.7c0.8,0.3,1.7,0.6,2.8,1c-0.8,0.9-1.4,1.6-1.9,2.3c-0.1,0.2,0,0.6,0,1.2
		c0.6-0.4,1-0.6,1.3-0.9c1.8-1.4,3.6-1.7,5.6-0.3c0.1,0.1,0.4,0,0.7-0.1c0.6-0.7,1.5-1.3,0.4-2.4c-0.9,0.2-1.8,0.4-2.7,0.6
		c-0.7-0.9-1.3-1.6-1.5-1.9c-1.5-0.4-2.6,0.7-3.7-0.6c0.3-0.4,0.8-0.8,0.9-1.3c0.2-0.6,0-1.4,0.2-2c0.1-0.3,0.3-0.6,0.6-0.9
		c0.4-0.4,1.2-0.3,1.1-1.3c-0.6-0.6-1.2-1.3-1.8-2.1c-0.4-0.5-0.6-1,0.1-1.7c0.7,0.1,1.6-0.1,2.3,0.2c1.3,0.7,2.5,1.7,3.8,2.6
		c1.4-0.3,2.7-0.7,4.1-1c0.4-0.1,1-0.2,1.3-0.5c1.1-1.4,3.2-1.7,3.9-3.5c0.1-0.2,0.9-0.4,1.2-0.2c0.3,0.2,0.4,0.7,0.5,1.2
		c0.1,0.4,0,0.8-0.1,1.4c1.4-0.1,2.2-0.6,2.7-1.7c0.4-1,1.2-1.5,2.2-1.5c3.5-0.1,7.1,0,10.6-0.3c1.3-0.1,2.2,0.5,3.2,0.8
		c0.7-0.3,1.2-0.7,1.7-0.8c1.6-0.2,3.2-0.6,4.8-1.2c1.3-0.5,2.8-0.5,4.1,0.1c0.1,0.4,0.1,0.8,0.2,1.1
		C305.4,10.5,305.4,10.6,305.3,10.7z M263.6,40.7c0-0.2,0,0.1-0.1,0.4c-0.1,0-0.1,0.1-0.2,0.1c0-0.1,0.1-0.1,0.1-0.2
		C263.6,40.8,263.7,40.6,263.6,40.7z M285,18.7c0-0.2,0,0,0,0.3l-0.3,0.1l0.2-0.2C285,18.7,285.1,18.5,285,18.7z M297.9,26.9
		c0.3,0.1,0,0-0.3-0.1c-0.7-1.5-2.3-1.2-3.3-2.1c-0.7,0.6-0.3,1,0.1,1.2c1.1,0.4,2,1.2,3.3,0.8C297.9,26.9,298.1,27.1,297.9,26.9z
		 M345.7,294.4c-0.4-0.5-0.9-0.8-1.2-1.3c-0.3-0.5-0.3-1.1-0.6-1.9c0.6,0.2,0.9,0.3,1.4,0.5c0-0.5,0-0.9-0.2-1.2
		c-0.5-0.9-1.4-1.6-2.3-1.5c-1.4,0.1-2.4-0.8-3.7-1.2c-0.2,0.6-0.3,1-0.4,1.5c-0.2,0.7-0.2,1.4-0.4,2.1c-1.9,5.2-2.1,5.9-8.5,6.4
		c-0.3-0.7-0.6-1.4-0.9-2.2c0.6-1,1.2-1.8,1.8-2.7c2.3-3.5,2.8-7.1,1.3-11.1c-0.6-1.6-0.7-3.5-0.9-5.2c-0.2-1.5,0.1-2.9,1-4.1
		c1.4-2,2-4.3,2.3-6.6c0.2-1.3,0.5-2.6,0.8-4c-2.2-2.4-3.8-5.2-5.5-8.1c-3.2-5.7-6.8-11.2-10.9-16.3c-0.4-0.5-1-1.1-1.6-1.3
		c-2.3-0.7-3.8-2.4-5.2-4.2c-0.1-0.2-0.3-0.4-0.5-0.5c-0.1-0.1-0.2,0-0.3-0.1c-0.8,2.4-1.1,5-0.8,6.9c0.2,1.5,0.6,3,0.7,4.6
		c0.2,1.4,0.2,2.8,0.2,4.3c-0.2,4.9-0.5,9.7-0.8,14.6c0,0.5,0,0.9,0,1.5c0.4,0,0.7-0.1,1-0.1c1.3,0,1.9,0.3,2.1,1.4
		c0.1,0.9,0.2,1.9,0.2,2.8c0,1.2,0,2.4,0,3.6c1.7,1.1,3.2,2.5,5.2,3.1c1.5,0.4,2.5,1.5,3.3,2.6c2,2.9,2.8,6.4,2.9,9.7
		c0.1,3.3-0.8,6.6-1.3,9.8c0,0.1,0,0.2,0,0.6c0.8,1.2,1.6,2.6,2.8,3.8c1.1,1.2,1.7,2.8,2.6,4.3c1.6-1.8,1.3-4.7,3.8-6.3
		c0.5,0,1.5,0,2.4-0.1c0.8-0.1,1.7-0.2,2.2-1c0.9-1.4,2.2-1.6,3.7-1.7c0.8-0.1,1.6-0.2,2.6-0.3c0.2,0.3,0.4,0.7,0.7,1.1
		c-1.2,0-2.4-0.1-3.5,0.1c-0.6,0.1-1.1,0.5-1.6,1c1.7-0.4,3.5-0.2,5-1.1C346,295.8,346.3,295.1,345.7,294.4z M326.4,186
		c0.1,1.7-0.7,3-1.7,4.2c-2,2.5-4.1,4.9-6.9,6.6c-1.2,0.7-1.8,1.7-2.2,3c-0.5,1.8-1.5,3.5-2.4,5.5c1.5,2.9,1.2,6.2,1.1,9.5
		c-0.1,3.4-2.2,5.9-5.6,6.7c-0.3,0.1-0.7,0.1-1.1,0.2c-0.6,1.5,0,2.8,0.4,4.1c0.1,0.5,0.8,0.8,1.4,1.4c0.3-1.5,0.5-2.6,0.7-3.7
		c0.1-0.2,0.5-0.6,0.7-0.6c0.3,0,0.7,0.4,0.7,0.6c-0.1,4,2.6,6.2,5.2,8.4c1.3,1.1,2.5,2.1,3.4,3.5c1.2,1.8,2.6,3.4,3.9,5.1
		c0.7,0.9,1.5,1.9,2,2.9c2.3,3.9,4.5,7.8,6.8,11.7c0.2,0.4,0.6,0.7,1.1,1.3c0.3-1.7,0.6-3,0.9-4.8c0.8,1.1,1.1,2.1,1.3,3
		c0.7,3.1,1.4,6.3,0.6,9.5c-0.3,1,0.2,1.6,0.7,2.4c-0.6,3.1-3.1,5.2-4.5,8.3c0.3,2.3,0.7,4.9,1,7.4c0.3,2.6,0.5,5.2-0.1,7.8
		c-1.1,1.6-2.5,3-2.4,5.2c2.5,0.1,4.6-1.2,5.2-3.3c0.3-1,0.4-2.1,0.6-3.1c0.4-1.9,1.3-3.5,2.8-5.2c0.7,2.8,2.9,3.6,4.9,4.6
		c0.8-0.5,0.3-1.2,0.2-1.9c-0.2-1-1.3-1.7-1.1-2.9l-0.1,0.1c1-0.1,1.5,0.5,1.9,1.3c1.1,1.8,1,3.9,0.7,5.9c-0.1,0.7,0,1.2,0.3,1.9
		c1.2,2.3,0.5,4.5-1.7,5.7c-0.8,0.5-1.7,0.8-2.6,1.1c-2.9,1.1-3.8,1.9-5.6,5c0.2,0.1,0.3,0.4,0.5,0.4c3.9-0.9,7.8-1.8,11.8-2.7
		c0.1,0,0.2-0.1,0,0c2.7-2.9,3-6.2,2.6-9.6c-0.1-0.7-0.1-1.4-0.1-2.1c0-0.5,0-1,0.3-1.4c1.3-1.9,2.6-3.9,4.2-5.7
		c0.9-1,1-1.8,0.4-2.8c-2.1-3.3-3.1-6.8-3.5-10.6c-0.1-0.6-0.4-1.1-0.6-1.7c-1.7-4.6-3.5-9.1-5-13.7c-0.6-1.8-0.7-3.7-1.1-5.6
		c-1.1-5.7-2.3-11.4-3.5-17.1c-0.3-1.3-0.6-2.6-0.5-3.9c0.2-1.9-0.4-3.5-0.9-5.2c-1.6-5.8-3.2-11.6-4.8-17.5
		c-0.4-1.4-0.6-2.8-1.1-4.1c-0.4-1.3-0.9-2.5,0.4-3.5c-1-0.9-1.7-1.5-2.3-2.2c-2.1-2.1-4.1-4.3-4.7-7.4c0-0.2-0.1-0.5-0.3-0.6
		c-1.3-1-1-2.6-1.3-3.9c0.1-0.2,0.3-0.5,0.1-0.2c0-0.3,0,0-0.1,0.3C326.7,184.2,326.3,185.2,326.4,186z M270.8,275.5
		c-0.9,0-1.8,0.1-2.8,0.2c-0.4,1.7-0.8,3.2-1.3,5c2,0.5,3.8,0.5,5.9,0.4c0.3-1.8,0.6-3.5,0-5.3C271.9,275.7,271.3,275.5,270.8,275.5
		z M305.9,269.6c-1,0-1.5,0.4-1.7,1.2c-0.1,0.7-0.1,1.4-0.2,2.1c-0.1,0.5-0.5,1-1,2.1c-0.2-1.6-0.3-2.6-0.5-3.6
		c-0.8-0.3-1.4,0-1.5,0.5c-0.5,1.8-0.5,3.7-1.1,5.8c2.3-0.4,3.8-1.2,5.7-2.2C305.3,273.5,306.3,271.6,305.9,269.6z M256.7,55.9
		c0.5,1.1,1.2,2,2,2.7c0.5-1.2,1-2.4,1.5-3.6c-0.4-0.9-1.1-1.7-2.2-1.9C256.5,54.2,256.2,54.9,256.7,55.9z M331.2,304.6
		c0.7,0.3,1.3,0.6,2,0.9c1.2-1.8,2.2-3.5,3.5-5.4C333.1,299.7,332.5,302.4,331.2,304.6z M308.8,272c-0.9,0.4-2.3,0.7-1.7,2.4
		c0.5,0.5,1-0.1,1.5-0.2c0.5-0.2,1-0.5,1.6-0.9c0-1.3,0-2.5,0-3.8c-0.1,0-0.3-0.1-0.4-0.1C309.5,270.2,309.2,271,308.8,272z
		 M270.7,28.3c0.4,0.6,0.8,0.6,1.2,0.2c1.2-1.2,2.3-2.3,3.4-3.5c0.1-0.1-0.1-0.6-0.3-1.3C273.3,25.4,271.4,26.3,270.7,28.3z
		 M288.7,18.7c1.3-0.8,2.5-1.6,3.3-3C289,15.4,288.8,15.6,288.7,18.7z M313.7,21.7c1.4-0.3,1.2-1.7,2.2-2.6
		c-1.4-0.6-2.3-0.4-3.1,0.3C312.9,20.2,312.8,21.1,313.7,21.7z M261.3,42.7c0.1-0.6,0.3-1.1,0.4-1.7c0.1-0.4,0.2-0.9,0.2-1.3
		c0-0.2-0.2-0.4-0.4-0.5c-0.2-0.1-0.5,0.1-0.6,0.2c-0.2,0.1-0.3,0.4-0.3,0.6c-0.3,1.3-0.2,2.7,0.4,4.7
		C261.1,43.5,261.2,43.1,261.3,42.7z M268.3,43.5c0.9-0.3,1.6-0.9,1.6-1.9c0-0.2-0.2-0.4-0.4-0.5C267.9,42,267.9,42,268.3,43.5z
		 M267.4,40.7c-2.1-0.4-2.1-0.4-2.9,2.2C265.8,41.9,266.5,41.4,267.4,40.7z M307.6,12c-0.8,0.8-0.7,1.8-0.9,2.7
		C308.6,13.4,308.6,13.4,307.6,12z M275,35.5c-0.1,0.5-0.1,1.1-0.1,1.9c1.2-0.6,2-1.1,1.9-2.3C275.5,34.5,275.2,34.5,275,35.5z
		 M271.2,18.5c1.4,0.6,1.4,0.6,2.9-1.5C272.5,17,271.9,17.8,271.2,18.5z M310.1,48.8c-1.2,0.1-2.2,0.2-3.6,0.3
		C309.4,50,309.4,50,310.1,48.8z M268.9,51.7c-0.9,0.6-0.9,0.6-1.2,1.8C268.7,53.2,269,52.6,268.9,51.7z M258.9,63.1
		c-0.3-0.3-0.6-0.5-0.8-0.8c-0.1,0.2-0.3,0.4-0.2,0.6c0.1,0.3,0.4,0.5,0.6,0.7C258.6,63.4,258.7,63.3,258.9,63.1z M291.4,24.4
		c-0.3-0.5-0.6-1-1.3-0.6c-0.1,0-0.2,0.2-0.2,0.3c0,0.8,0.6,0.8,1.2,1c0.1,0,0.2,0,0.5-0.1C291.5,24.7,291.5,24.5,291.4,24.4z
		 M269.6,39.1c0.2-0.3,0.5-0.7,0.7-1c0,0-0.1-0.2-0.2-0.2c-0.3,0.3-0.6,0.6-0.8,0.9C269.5,38.9,269.6,39,269.6,39.1z M292.6,22.5
		c-0.1,0.2-0.2,0.5-0.2,0.8c0.2,0,0.5,0.1,0.5,0c0.2-0.2,0.3-0.5,0.4-0.8c0-0.1-0.1-0.2-0.2-0.3C292.9,22.3,292.7,22.3,292.6,22.5z
		 M267.2,55.6c-0.1,0.2-0.3,0.5-0.4,0.7c0,0,0.2,0.2,0.2,0.2c0.2-0.1,0.4-0.3,0.7-0.5C267.4,55.9,267.3,55.7,267.2,55.6z
		 M299.6,25.2c-0.1,0.1-0.2,0.3-0.3,0.4c0,0,0.2,0.2,0.2,0.2c0.2,0,0.3-0.1,0.5-0.2C299.9,25.5,299.8,25.3,299.6,25.2z M283.1,14.4
		c0-0.2,0.1-0.4,0-0.5c-0.1-0.1-0.4-0.3-0.5-0.3c-0.1,0-0.2,0.3-0.3,0.6C282.5,14.3,282.8,14.4,283.1,14.4z M304.4,27.4
		c0.2,0,0.5-0.2,0.7-0.3c-0.2-0.1-0.4-0.3-0.6-0.3c-0.2,0-0.4,0.2-0.6,0.3C304.1,27.2,304.3,27.5,304.4,27.4z M296,19.9
		c-0.1,0.1-0.2,0.3-0.3,0.5c0.3,0,0.6,0.1,0.8,0c0.2-0.1,0.2-0.3,0.4-0.6C296.6,19.9,296.3,19.8,296,19.9z M307.9,271.1
		c0.1,0,0.2,0,0.2,0c0-0.4,0-0.7,0-1.1c-0.1,0-0.2,0-0.2,0C307.9,270.3,307.9,270.7,307.9,271.1z M264.3,18.5c0,0,0.3-0.4,0.3-0.4
		c-0.2-0.2-0.4-0.4-0.7-0.5c0,0-0.2,0.2-0.4,0.4C263.8,18.2,264.1,18.4,264.3,18.5z M270.5,23.7c-0.2,0.1-0.2,0.3-0.3,0.5
		c0.2,0,0.4,0.2,0.6,0.1c0.2-0.1,0.2-0.4,0.3-0.5C270.8,23.8,270.6,23.6,270.5,23.7z M272.5,43.8l-0.2,0l0.1,0.3L272.5,43.8z
		 M261.6,59.2c0.1-0.1,0.3-0.2,0.4-0.3c0-0.2-0.1-0.3-0.2-0.5c-0.1,0.1-0.3,0.2-0.4,0.3C261.4,58.9,261.5,59.1,261.6,59.2z
		 M305.1,109.9c0.1-0.1,0.2-0.2,0.3-0.4c0-0.1-0.1-0.2-0.2-0.3c-0.1,0.1-0.1,0.2-0.2,0.3C305,109.7,305,109.8,305.1,109.9z
		 M260.8,274.8c0,0,0.1-0.1,0.1-0.2c-0.1,0-0.2-0.1-0.3,0c0,0-0.1,0.1-0.1,0.2C260.6,274.8,260.7,274.8,260.8,274.8z M296.9,16.7
		c0.2,0,0.3-0.2,0.4-0.3c-0.1-0.1-0.2-0.2-0.2-0.2c-0.2,0-0.4,0.1-0.5,0.2C296.7,16.5,296.8,16.7,296.9,16.7z M253.8,39.9
		c0.1-0.1,0.2-0.2,0.2-0.4c0,0-0.1-0.1-0.2-0.1c0,0.1-0.1,0.2-0.1,0.3C253.7,39.7,253.8,39.8,253.8,39.9z"/>
	<path d="M635.1,366.3c1.5-3.5,2.4-7.1,2.7-10.8c2-1,2.1-0.9,3.1-2.8c2.6-4.7,6-8.8,9.6-12.7c5.6-6,12.6-10,19.6-13.9
		c0.3-0.2,0.7-0.2,1-0.2c0.2,0,0.4,0.2,0.5,0.4c0.1,0.2,0.1,0.5,0,0.6c-0.5,0.5-1,1-1.6,1.3c-9,5.1-16.3,12.2-22.8,20.2
		c-2.2,2.6-3.9,5.6-5.5,8.6c0.5,1.2,1,2.3,1.3,3.5c0.6,2.6,2,4.8,3.5,6.9c2.7,3.9,5.4,7.8,8.1,11.7c0.3,0.4,0.4,1.1,0.5,1.6l0.1-0.1
		c-1-0.1-1.2-1-1.7-1.6c-2.6-3.3-5.1-6.5-7.7-9.8c-0.2-0.2-0.6-0.3-0.9-0.4c-0.5,0.7,0.1,2.1-1.7,2.3c0.5-4.1-0.8-7.6-3.7-10.5
		c-0.2,0.2-0.3,0.2-0.3,0.3c-0.7,5-1.1,10.1-2.3,15.1c-0.2,0.9,0,1.6,0.5,2.3c1.4,2.2,2.8,4.4,4.2,6.6c0.3,0.5,0.5,1.1,1.4,0.7
		c0-2.4,0-4.7,0-7.1c0-1.7-0.3-3.3-1.5-4.6c-0.1-0.2,0-0.6,0-0.9c1.8,0.5,2.3,2.1,3.2,3.3l0.1-0.1c-0.6,0.5-0.9,1.1-0.8,1.8
		c0.1,1.6,0.2,3.3,0.3,4.9c0.1,1.2,0.4,2.4,0.1,3.5c-0.4,2,0.3,3.7,1.3,5.3c0.8,1.2,1.6,2.3,2.4,3.5c0.2,0.2,0.2,0.6,0.3,0.9
		c-0.3,0-0.6,0.1-0.8,0.1c-0.3-0.2-0.5-0.5-0.8-0.7c-0.5-1.3-1.3-2.4-2.6-3.4c0,0.9,0,1.5,0,2.2c0.8,0.5,1.5,1.3,2.7,1.1
		c-0.1,0.6,0.2,0.8,0.8,0.7c0,1.8,1.4,3.1,1.9,4.8c0.5,1.7,1.7,2.7,3.3,3.4c1.4,0.6,2.8,1.1,4.2,1.7c0.4,0.2,0.6,0.5,1.3,1.1
		c-1.1,0.2-1.7,0.4-2.4,0.5l0.1,0.1c-0.7-0.9-1.7-1.2-2.7-1.5c-2.7-0.9-4.8-2.6-5.9-5.2c-1.1-2.4-2.8-4.1-5.4-4.9
		c-0.9-0.3-1.8-0.8-2.3-1.5c-0.8-1-1.8-1.5-2.8-2.1c-1.7-1-1.7-1-2.8-3.2c-0.3,1.2-0.7,2.2-1,3.2c-0.9,3.6-0.9,7.3-0.3,11
		c0.2,1.3,0.7,2.5,0.1,3.9c-0.7-0.1-1.3-0.2-1.9-0.4c-2.8,2.8-4.6,6.4-7.8,8.7c-0.3,3.3-1.7,6-3.6,8.5c-1.3,1.7-2.9,3.1-4.1,4.9
		c-1.2,1.9-2,4-3,6c-0.2,0.4-0.6,0.8-0.7,1.2c-0.8,2-2.3,3.3-4.1,4.4c-1.5,0.9-3.1,1.8-4.7,2.6c-2.1,1-4.2,1.5-6.5,0.8
		c-1.2-0.4-2.6-0.5-3.8-0.8c-0.6-0.1-1.4-0.4-1.7-0.1c-1.9,1.4-3.7,0.4-5.4-0.1c-3.2-0.9-6.4-1.8-9.2-2.7c-1-1.3-1.8-2.4-2.6-3.4
		c-1.5-1.9-3-3.8-3.8-6c-1-2.7-3.1-4.7-4.1-7.4c-0.1-0.3-0.4-0.6-0.7-0.8c-2.7-3.2-4.5-7-6.1-10.8c-2.6-6.2-3.7-12.8-4.5-19.4
		c-0.3-2.2-0.3-4.5,0-6.8c0.4-3.6,0.7-7.3,1.1-11c0.1-1.2,0.2-2.4,0.7-3.5c0.8-1.9,0.9-3.9,1.1-5.9c0.3-3.8,0.7-7.6,1.2-11.3
		c0.4-3,1.1-6.1,1.8-9.1c0.9-3.9,0.6-7.7,0.1-11.6c-4.8,0.3-8.9-0.4-12.2-3.9c-0.5-0.5-1.1-1.1-1.7-1.2c-1.6-0.2-2.5-1.3-3.6-2.2
		c-1.8-1.4-3.5-2.9-5.5-3.9c-2.5-1.3-5.2-2.3-8.1-1.1c-0.5,0.2-1.2,0-1.7,0c-0.8-0.1-1.6-0.2-2.6-0.3c-2.3-2.9-4-6.3-5.1-9.9
		c-0.6-2-0.8-4.3-0.2-6.4c0.9-3.3,2.3-6.2,5.6-7.9c3-1.5,6-2.9,9.2-3.7c3.1-0.9,6.2-1.6,9.3-2.5c1.5-0.4,2-1.1,1.9-2.5
		c-0.2-3.5-0.4-7.1-0.4-10.6c0-3.2,0-6.4-0.8-9.6c-0.5-1.7-0.3-3.3,0.2-4.9c0.7-2.3,1.5-4.5,2.2-6.7c-1-1.6-1.9-3.1-2.8-4.6
		c-0.5-0.8-1-1.6-1.4-2.5c-2-4.9-5.1-9.1-8.5-13c-4.6-5.3-9.2-10.5-12.9-16.5c-3.7-6.2-5.6-12.8-7.2-19.6c-0.1-0.6-0.1-1.2-0.1-1.8
		c-0.1-1.4-0.1-2.8-0.3-4.2c-0.7-4.5,0.4-8.6,2.9-12.2c1.7-2.4,3.3-4.9,5-7.3c3-4.2,5.9-8.3,8.1-13c0.5-1.2,1.3-2.3,2-3.4
		c2.9-4.2,6.1-8.1,9.9-11.6c4.1-3.9,8.7-6.5,14-8.2c1.6-0.5,3.1-1,4.7-1.5c1.2-2.8,2.5-5.5,3.6-8.2c1.6-4.2,4.3-7.6,7.5-10.7
		c1.4-1.3,2.8-2.5,4.7-3.2c1.4-0.5,2.9-1.1,4.3-1.7c2.2-0.8,4.4-1.8,6.7-2.5c3-0.9,6-1.8,9.1-1.4c3,0.3,5.3-0.5,7.5-2.5
		c1.7-1.5,3.4-3,5-4.5c2.9-2.7,6.2-4.9,9.9-6.1c4.9-1.5,9.2-4.4,13.7-6.2c1-3.3,2-6.4,2.8-9.5c0.2-0.7,0.1-1.7-0.2-2.4
		c-1.6-4-2.5-8.2-3.7-12.3c-0.4-1.2-0.6-2.5-1-3.8c-0.7-1.9-0.9-3.9-1-5.9c-0.1-3.3-0.2-6.6-1.7-9.7c-0.5-1.1-0.6-2.3-0.3-3.5
		c0.3-1.3,0.7-2.5,1.1-3.7c0.4-1.1,0.9-2.2,1.1-3.4c0.3-2,0.4-4,2.1-5.5c0.2-0.1,0.3-0.5,0.2-0.6c-0.4-1.2,1-1.8,1-2.7
		c-0.3-0.5-0.5-0.9-1-1.5c0.8,0.1,1.4,0.1,2,0.1c0.4,0.2,0.8,0.5,1.3,0.7c0,1.3-1.6,1.6-1.8,3c0.3,0,0.6,0.2,0.8,0.1
		c0.6-0.3,1.2-0.8,1.8-1.1c1.2-0.6,2.4-0.8,3.7,0c0.4,0.2,0.8,0.4,1.3,0.7c0.5-0.9,0.8-1.5,1.1-2.1c-1.2-1.2-2.1,0.2-3.6-0.2
		c-0.3-0.5-0.9-1.3-1.6-2.3c-1.3,0.5-2.2,0.9-3.2,1.3c-0.1-0.6-0.4-1.4-0.1-1.6c1.1-1,1-2.3,1.1-3.5c0.6-0.5,1.2-0.9,1.9-1.3
		c-0.8-0.9-1.5-1.7-2.1-2.5c-0.4-0.5-0.6-1,0.1-1.6c0.9,0.1,1.9,0.2,3.3,0.3c0.2,0.3,0.5,0.8,1,1.2c0.5,0.5,1.1,0.9,1.7,1.3
		c0.6-0.1,1.2-0.3,1.8-0.4c3.2-0.6,5.1-1.7,7.4-4.3c0.4-0.5,0.9-0.9,1.5-0.6c0.3,0.2,0.5,0.7,0.6,1.2c0.1,0.4,0.1,0.9,0.2,1.4
		c1.4,0,2.1-0.7,2.6-1.8c0.4-1,1.2-1.3,2.3-1.4c3.4,0,6.9-0.2,10.3-0.2c1.1,0,2.3,0.3,3.5,0.4c0.9-0.2,2.1-0.4,3.2-0.7
		c0.7-0.2,1.4-0.3,2-0.6c1.7-0.8,3.4-0.8,5.2-0.6c0.2,0.7,0.3,1.2,0.5,2c1.6-1.4,3.1-2.7,4.7-4.2c1.5,2.5,0.4,5,0.7,7.5
		c0.9-0.6,1.6-1.1,2.4-1.6c0.8,0.7,1.4,1.3,2.2,2c-1,0.7-1.7,1.2-2.5,1.8c1.5,0.7,2.4,0.1,3.2-0.8c0.2-0.2,0.6-0.2,1-0.3
		c0.6,0.7,1.1,1.3,1.6,1.8c-0.2,0.8-0.5,1.6-0.4,2.2c0.5,2-0.8,2.8-2.1,3.6c-0.4,0.3-0.9,0.3-1.3,0.5c-1.8,1.1-3.7,2.1-4.8,4.2
		c0.4,3,0.8,6.1,1.1,9.1c0.2,1.4,0.3,2.8,1.2,4c0.6,0.8,0.6,1.8,0.4,2.7c-0.6,2.6-1.3,5.3-2,7.8c-2.5,0.8-4.7,1.8-7.3,0.9
		c-0.1,1.3-0.2,2.3-0.4,3.4c0,0.2-0.4,0.4-0.7,0.9c-0.4-1.8-0.6-3.3-0.4-4.8c0.1-0.8,0.5-1.6,1-2.2c0.9-1.2,2.1-2.3,3.6-2.8
		c1.2-0.4,2.4-1,3.6-1.6c0.3-0.1,0.5-0.4,0.8-0.7c0.1-0.8,0.3-1.6,0.4-2.6c-1.6-1.8-2-4.2-2.3-6.5c-0.2-1.5-0.3-3.1-0.6-4.6
		c-0.1-0.7-0.3-1.3-0.5-2c-0.8,0.2-1.4,0.1-1.9,0.4c-1.7,0.9-3.4,0.8-5.2,0.5c-2-0.2-3.9-1.2-5.9-0.3c-0.4,0.2-1-0.1-1.4-0.2
		c-2.3-1-4.4,0.5-6.6,0.6c-0.1,0-0.2,0.1-0.3,0.2c-0.1,0.7,0.7,1.8-0.7,1.7c-0.5-0.8-0.9-1.8-1.6-2.3c-1.4-1-3-1.7-4.7-2.6
		c-0.8,0.9-1.5,1.7-2.4,2.5c1.7,0.1,3.3,0.2,4.8,0.2c0.7,1.4,1.3,2.6,1.8,3.8c-0.2,0.3-0.3,0.6-0.5,0.7c-0.8,0.4-1.6,0.7-2.4,1.1
		c0,0.4,0,0.8,0,1.1c-0.3,0.1-0.5,0.2-0.7,0.2c-1.7-0.6-2.7,0.3-3.3,1.8c-0.1,0.3-0.3,0.7-0.4,1c-0.9,2.5-2.2,4.8-3.9,6.7
		c-0.9,1-1.4,2.2-1.7,3.5c-0.1,0.7-0.3,1.4-0.6,2.1c-1,2.7-2,5.3-3.1,7.9c-0.2,0.5-0.6,1.1-1.4,0.7c-0.2-2.4-0.3-2.8-1.9-5.3
		c0.3-1.3,0-2.6-0.5-3.7c-0.2-0.5-0.7-0.9-1.2-1.2c-0.5-0.4-1.4-0.3-1.6,0.2c-0.1,0.4-0.2,0.9,0,1.3c0.6,1.7,2.2,2.4,3.4,3.4
		c-0.7,1.7-0.9,3.4-0.8,5.2c0,0.3-0.2,0.6-0.4,1.1c-0.9,0.1-1.8,0.3-2.7,0.4c0.3,2,1.5,2.8,3.3,2.9c0.1,0,0.2,0.4,0.4,0.7
		c-0.4,0.5-0.9,1-1.4,1.5c0.5,3.7-0.3,7.5-0.6,11.2c-0.1,1.4-0.4,2.8-0.7,4.2c-0.4,1.6-1,3.1-2.1,4.5c-1.3,1.7-2.7,3.4-3.6,5.3
		c-0.6,1.4-1.4,2.1-2.7,2.6c-2.8,1.1-5.5,2.1-8.3,3.2c-1.1,0.4-2.3,0.6-3.2,1.7c0.5,1.2,1.3,2.2,2,3.3c2.8,4,5.2,8.2,7,12.8
		c4.1,10.9,6.5,22.1,5.7,33.8c-0.1,1.3-0.1,2.7-0.5,3.9c-2.3,5.6-5.1,11-9.8,15.1c-5.6,4.9-5.9,5.3-13.7,9.9
		c-0.1,0.1-0.2,0.1-0.3,0.2c-4.8,3.6-10.6,4.5-16.1,6.4c-0.6,0.2-1.2,0-1.5-0.6l-0.1,0.1c1.3-0.4,2.7-0.9,4-1.3
		c0.8-0.3,1.6-0.5,2.3-0.9c2.2-1.2,4.4-2.3,6.5-3.6c1.8-1.1,3.5-2.4,5.2-3.6l-0.1,0.1c3.1-1.1,5.6-3.1,8.1-5
		c1.9-1.4,3.6-3.1,5.4-4.6c3.3-2.8,5.5-6.5,7.7-10.2c1.2-2.1,1.7-4.5,1.7-6.8c0-2.6-0.2-5.2-0.6-7.8c-0.9-5.5-2-11-3.7-16.3
		c-0.3-1-0.7-2-1-3c-2.2-0.6-4.5-0.8-6.4-2.6c1.9,0.2,3.5,0.5,5.2,0.7c0.1-0.5,0.2-0.9,0.1-1.2c-2.1-6.3-4.9-12.3-8.9-17.9
		c-1.8,0.5-3.2,1.6-4.7,2.4c-1.5,0.8-3.1,1.4-4.3,2.5c-2.8,2.9-6.3,4.1-10,5.1c-4.1,1.1-8.2,2.4-12.1,4.1c-3.8,1.7-7.5,3.5-11.3,5.3
		c-0.8,0.4-1.5,0.7-1.6,1.7c-0.3,0.3-0.5,0.5-0.8,0.8c0,0-0.2,0.1-0.2,0.1l0.1-0.2c0.3-0.3,0.5-0.5,0.8-0.8c1.3,0.4,1.6,0.8,1.2,1.5
		c-0.7,1.4-1.5,2.7-3.1,3.5c-0.2-0.6-0.5-1.1-0.7-1.7c-1.7,1.7-3.2,3.6-4.2,5.7c-0.5,1-1,1.9-1.3,2.9c-1.2,3.5-3.8,5.6-6.8,7.3
		c-1.7,0.9-3.4,1.7-5.1,2.5c-3.4,1.7-6.4,4-9.1,6.6c0.4,0.7,0.8,1.3,1.2,2c-1.3,2.5-2.6,5-3.9,7.5c0,0.1-0.2,0.1-0.3,0.1
		c-0.1,0-0.2,0-0.5,0c-0.3-2.3,0.3-4.4,0.5-6.6c0.1-0.1,0.3-0.2,0.4-0.3c-0.5-0.3-0.4,0.1-0.4,0.4c-1.1-0.3-1.5,0.6-1.9,1.2
		c-1.6,2.1-3.1,4.2-4.6,6.3c-2.6,3.7-4.8,7.6-7.7,11.1c-2.4,3-4.1,6.3-6.3,9.4c-0.7,1-1.2,2.3-1.7,3.5l0.1-0.1c-1.5,1-2,2.5-1.8,4.3
		c0.6,4,1.2,8,1.9,11.9c0.2,1,0.7,2,1,3c0.3,1,0.9,1.9,0.7,3.1c-0.1,0.7,0.3,1.6,0.6,2.4c1.1,2.9,2.3,5.7,3.5,8.6
		c0.4,1,0.9,1.9,1.6,2.8c3,3.7,6.1,7.3,9.1,10.9c0.1,0.2,0.4,0.2,0.6,0.3l-0.1-0.1c0,1,0.7,1.5,1.4,2l0.1,0.1l-0.2,0
		c0.2-0.3,0.3-0.6,0.6-1c1.4,1,2.1,2.2,2.3,3.8c0.3,2.4,1,3,3.6,3.9c0.8,0.3,1.5,0.6,1.7,1.6c-0.8,0.7-1.3-0.3-1.9-0.3
		c-0.1,0.2-0.3,0.5-0.3,0.6c1.1,2.6,2.7,4.9,4.6,7c0.1,0.1,0.2,0,0.3,0c0.1,0.6,0,1.2,0.7,1.4c0.2,0.3,0.5,0.5,0.7,0.8
		c-0.4,0.5-0.3,1.1-0.1,1.7c0.4,1.1,0.7,2.2,1.1,3.5c-0.5,0.3-1.1,0.6-1.3,1c-0.8,2.2-1.7,4.4-2.1,6.7c-0.3,1.6,0.3,3.3,0.4,4.9
		c0.2,1.6,0.5,3.3,0.5,4.9c0,3.2,0.6,6.4-0.3,9.5c0.4,2.4-0.3,5,1.2,7.2c0.4,0.5,0.4,1.3,0.6,1.9c0.2,0.3,0.4,0.6,0.6,0.8
		c0.6,0.3,1.3,0.6,1.9,0.9c0.6,0.3,1.1,0.7,1.7,1c1.2-1.6-0.6-2.8,0-4.2c-0.9,0.4-1.6,0.6-2.2,0.9c0-1.2,0-2.4,0.1-3.5
		c0.1-1.4-0.3-2.8,0.8-4.1c0.3-0.4,0-1.4,0.1-2.1c0.1-0.4,0.4-0.7,0.8-1.3c2.1,4,0.4,8.1,2,11.9c1,0.2,2,0.3,3.2,0.5
		c-0.3,0.6-0.5,1.1-0.7,1.5c0.8,1.5,2.6,0.9,3.6,1.8c0.1,0.7-0.3,0.9-0.8,0.9c-0.7-0.1-1.4-0.2-2-0.5c-1-0.5-1.8-1.1-2.8-1.7
		c-0.6,0.4-1.1,0.9-1.7,1.2c-0.9,0.4-2,0.6-2.6-0.3c-1.3-1.7-3.4-2.5-4.5-4.3c-7.2,1.2-13.9,3.4-20.9,6.2c-1.1,1.4-2.3,3.3-3.2,5.4
		c-0.6,1.6-0.7,3.1,0.1,4.8c1,1.9,1.8,3.9,2.5,5.9c0.7,1.9,1.9,3.2,4,3.9c0.5-0.3,1.1-0.8,1.7-1c0.7-0.2,1.4-0.1,2.1,0
		c1.5,0.3,3,0.2,4.8,0c-0.1-0.8-0.3-1.4-0.3-2.1c0-0.6-0.1-1.2,0.1-1.7c0.1-0.4,0.6-0.8,1-0.8c0.4,0,1,0.3,1.1,0.6
		c0.4,1,0.7,2,0.9,3c0.2,0.8,0.1,1.6,0.2,2.7c0.5,0.4,1.2,0.9,1.8,1.3c0.2-0.4,0.5-0.6,0.4-0.7c-0.2-1.6-0.1-3.1,0.5-4.6
		c0.2-0.4,0.5-0.7,0.7-1c1.2,0.1,1.2,0.9,1.2,1.6c0.3,2.2,0.6,4.5,0.8,6.7c0.2,1.2,0.6,2.3,1.8,3.1c0.4-1.3,0-2.5-0.1-3.6
		c-0.4-3.3,0.5-6.3,1.8-9.3c0.2-0.5,0.7-1,1.2-1.3c0.5-0.2,1.2-0.2,1.7,0c0.6,0.2,0.8,0.9,0.6,1.5c-0.2,0.7-0.4,1.4-0.6,2
		c-1.2,4.6-1.4,9.1,1.1,13.5c0.2,0.4,0.4,0.9,0.5,1.3c1,0.8,2.1,0.9,3.3,1.1c1.2,0.2,2.3,0.4,3.4,0.6c0.9-0.5,0.8-1.2,0.2-1.7
		c-3.5-3-3.9-6.9-3.2-11c0.3-2.1,1.7-3.6,3.4-4.8c1.7-1.3,3.6-1.7,5.6-1.1c0.9-0.9,1.3-1.1,2.4-1.4c0.1-0.2,0.3-0.3,0.4-0.5
		c1-2.3,1.9-4.6,2.9-6.9c0.4-0.8,0.4-1.9,1.3-2.4l-0.1-0.1c-0.1,0.8-0.2,1.6-0.4,2.4c-0.8,2.4-1.7,4.7-2.5,7
		c1.2,2.4,1.2,2.4-0.6,4.1c-0.3,3.9-0.6,7.8-1,11.7c-0.6,6.3-1.2,12.5-1.7,18.8c-0.1,1.6-0.3,3.3,0.6,4.8c0.5-0.4,0.7-1.2,1.6-0.6
		c0.4,1.3,0.1,2.7,0.2,4.1c0.1,1.3,0.2,2.6,0.6,3.8c1.6,4.7,3.4,9.4,5.1,14.1c0.1,0.4,0,0.8,0,1.8c-0.6-0.9-0.9-1.3-1.1-1.7
		c-1.3-2.9-2.6-5.9-3.9-8.8c-0.2-0.5-0.3-1.1-1.2-0.9c0.1,4.2-1,8.4-1.1,12.7c-0.1,5.6-0.9,11.1-1.5,16.7c-0.1,1.2,0,2.3,0.4,3.5
		c0.5,1.5,1.4,2.8,2.4,3.9c5.8,6.3,12.7,11,20.7,14.1c4.5,1.8,9.2,2.1,14,2c1.2,0,2.4-0.1,3.5,0.2c3.2,0.8,6.4,0.5,9.5,0
		c1.7-0.2,3.2-0.8,4.5-1.9c1.4-3.9,3.9-6.5,7.8-7.8c0.5-0.2,1-0.5,1.7-0.9c-1.3-4.1-0.4-8.1-0.5-12.4c-0.9,0.6-1.5,1.1-2.3,1.7
		c0.4-2.3,1.3-3.9,2.3-5.5c1-1.6,1.6-3.3,1.9-5.3c0.5-3.4,1.2-6.8,1.8-10.1c0.4-2.5,0.7-4.9,1-7.4L635.1,366.3z M639.3,42.1
		c-0.1,0.2,0-0.1,0.1-0.3c0.1-0.2,0.2-0.5,0.1-0.3c0-0.1,0,0.1-0.1,0.4C639.3,42.1,639.1,42.3,639.3,42.1z M668,24.4
		c0.1,0.1,0.2,0.3,0.4,0.4c0.1-0.3,0.2-0.6,0.2-0.9c0.1-0.1,0.2-0.2,0.3-0.3c-0.1,0-0.2,0-0.2,0.1c0,0.1,0,0.2,0,0.3
		C668.5,24.1,668.2,24.3,668,24.4z M643.3,54.9c1.1-0.2,1.2-0.9,1.1-1.7c0.3-0.2,0.1,0,0.1,0.1C643.5,53.4,643.2,53.9,643.3,54.9z
		 M560.3,352c-1.4,8.5-1.3,17.3-3,25.7c-0.4,0.2-0.8,0.4-1.3,0.6c0,1.9-0.1,3.8,0,5.7c0.6,6.6,1.6,13.2,3.2,19.7
		c0.8,3.4,2.1,6.8,3.5,10.1c0.9,2.1,2.4,4.1,3.8,6c1.7,2.5,3,5.1,3.7,8c0.5,2.1,1.3,4,2.9,5.6c1.2,1.2,2.1,2.5,3.2,3.8
		c0.4,0.5,0.8,1,1.3,1.2c0.6,0.3,1.3,0.6,2,0.5c0.5,0,0.9-0.7,1.5-1.2c0.5,0.1,1.1,0.3,1.8,0.5c4.5,1.1,9,2.3,13.5,3.3
		c5,1.1,9.1-0.9,12.7-4.1c0.6-0.5,0.8-1.4,1.2-2.1c0.6-1.4,1.1-2.9,1.9-4.2c0.8-1.5,0.9-3.2,1.7-4.6c0.7-1.2,2.3-2,3.2-3.1
		c1.3-1.6,2.4-3.4,3-5.8c-0.9,0.1-1.5,0.1-2,0.1c-3.5,0.4-7.1,0.9-10.5-0.7c-0.6-0.3-1.4-0.1-2.1-0.1c-2.9,0-5.7,0.1-8.6,0.1
		c-4.5,0-8.7-1.1-12.7-3.2c-3.7-1.9-7.3-4-10.6-6.9c-1.3,2.7-1.6,5.3-1.8,7.9c-0.8,0.2-0.9-0.3-1-0.7c-0.2-2.1-0.5-4.2-0.6-6.4
		c-0.1-1.1,0.1-2.1,0.2-3.2c-1.7-2.3-3.4-4.5-5.1-6.8c0.1-3.7-1.2-7.1-0.7-10.7c0.5-3.4,0.9-6.8,1.4-10.4c-0.4-0.5-0.8-1-1.2-1.6
		c0-0.2,0-0.5,0.1-0.7c2.1-5.1,2.5-10.6,2.9-16.1c0.1-0.8,0-1.7-0.9-2.2c-0.8-0.5-1-1.3-1.1-2.1c-0.1-0.4-0.1-0.7-0.2-1.1
		c-1.1-10.8-0.9-21.6,1.5-32.2c0.3-1.3,0.6-2.5,0.4-4c-1.1,0.2-1.5,0.8-1.6,1.7c-0.2,2.7-0.4,5.4-0.7,8.1c-0.1,0.6-0.6,1.2-0.9,1.7
		c-1-0.1-1.3-0.6-1.3-1.3c0-1.1,0-2.2,0.2-3.2c0.5-2.4,1.2-4.8,1.8-7.2c0-0.2-0.1-0.4-0.1-0.9c-0.4,0-0.9-0.2-1.3-0.1
		c-3,1-4.5,3.5-4.8,6.7c-0.2,3.1,1.1,5.5,2.8,7.8c0.7,0.9,1.2,1.8,1.3,2.8c0.7,5.9,0.7,11.8-0.9,17.7
		C561.5,351.2,560.9,351.5,560.3,352z M637,386.3c1.2,2.2,2.1,4.7,5.1,5.6c0.1-0.4,0.3-0.8,0.3-1.3c0-0.4-0.2-0.9-0.5-1.3
		c-1.8-2.7-3.7-5.4-5.5-8.2c-1.4,2.1-1.4,2.1-0.1,5.5C636.5,386.5,636.7,386.4,637,386.3z M634.4,54.9c-0.7-0.5-1.8-0.2-2,0.6
		c-0.2,0.6-0.3,1.4-0.1,2c0.4,1.1,1.2,1.9,2.1,3c0.1-1,0.1-1.7,0.3-2.3c0.2-0.6,0.7-1.1,1.1-1.7C635.4,55.9,634.9,55.3,634.4,54.9z
		 M664.7,17.4c-0.4,0.9-0.8,1.7-0.4,2.9c1.2-1.2,2.5-1.8,3.3-3.2C666.4,16.5,665.6,17.1,664.7,17.4z M647.8,29.7c1-1,2-2,2.9-3
		c0.2-0.2,0-0.8,0-1.5c-1.8,1.5-3.7,2.5-4.7,5.5C647,30.1,647.5,30,647.8,29.7z M688.3,20.5c0.2,1,0.4,1.8,0.5,2.5
		c0.4,0,0.7,0.1,0.8,0c0.3-0.3,0.6-0.7,0.9-1.1c0.3-0.5,0.5-1,0.7-1.5C690.2,19.7,689.4,20.5,688.3,20.5z M636.2,41.1
		c-0.5,1.3-0.5,1.4,0.2,4.3c0.3-1,0.4-1.8,0.6-2.5c0.2-0.7,0.4-1.3,0.6-2c-0.2-0.2-0.3-0.3-0.5-0.5
		C636.9,40.7,636.3,40.8,636.2,41.1z M651.6,38.1c0.3-0.3,0.5-0.7,0.9-1.3c-0.4-0.4-0.8-0.8-1.2-1.2c-1,1.1-0.9,2.2-1.1,4
		C651,38.8,651.3,38.5,651.6,38.1z M669.5,26.2c0.2,0.6,0.2,1,0.4,1c1.3,0.5,2.4,1.4,4.1,1.2C672.7,27.2,671.2,26.8,669.5,26.2z
		 M646.7,19.9c1.6,0.5,1.6,0.5,3-1.6C648.1,18.3,647.5,19.2,646.7,19.9z M682.2,16c0.7,0.5,1,0,1.3-0.3c0.9-1,0.8-1-0.4-2.2
		C682.7,14.3,682.4,15.2,682.2,16z M685.7,50.2c-1.1,0.2-2,0.3-3.4,0.5C685.2,51.5,685.2,51.5,685.7,50.2z M645.7,43.3
		c0.1-0.1-0.1-0.4-0.2-0.6c-0.1-0.1-0.4-0.2-0.6-0.2c-1.1,0.4-1.2,1-0.7,2.7C644.7,44.5,645.2,43.9,645.7,43.3z M640.3,43.8
		c0.5-0.3,0.9-0.4,1.2-0.6c0.4-0.2,0.7-0.5,1.5-1.1C640.9,41.9,640.9,41.9,640.3,43.8z M666.5,25.3c-0.2-0.1-0.6,0-0.9,0
		c0.1,0.3,0,0.7,0.2,0.8c0.4,0.3,0.8,0.4,1.3,0.5C667.5,25.8,666.9,25.6,666.5,25.3z M639.9,20c0,0,0.4-0.3,0.4-0.3
		c-0.2-0.3-0.3-0.5-0.6-0.7c-0.1-0.1-0.4,0.1-0.8,0.3C639.3,19.5,639.6,19.8,639.9,20z M637.2,60.7c0.2-0.2,0.4-0.5,0.6-0.7
		c-0.2-0.1-0.4-0.3-0.6-0.2c-0.2,0-0.3,0.3-0.4,0.5C637,60.4,637.1,60.6,637.2,60.7z M672.6,21.5c-0.1-0.1-0.3-0.4-0.4-0.4
		c-0.3,0.1-0.6,0.3-0.8,0.5c-0.1,0.1,0.1,0.4,0.2,0.8C672,22.1,672.3,21.8,672.6,21.5z M658.8,15.9c0-0.2,0.1-0.4,0.1-0.5
		c-0.1-0.1-0.4-0.3-0.5-0.3c-0.1,0-0.2,0.3-0.3,0.6C658.3,15.8,658.5,15.8,658.8,15.9z M633.8,64.8c0.2-0.2,0.3-0.4,0.5-0.6
		c-0.2-0.1-0.4-0.3-0.5-0.3c-0.1,0-0.2,0.3-0.4,0.4C633.6,64.5,633.7,64.7,633.8,64.8z M660.5,20.6c0-0.1,0.1-0.2,0.1-0.3
		c0-0.1-0.1-0.2-0.2-0.3c0,0.1-0.1,0.2-0.1,0.3C660.3,20.4,660.4,20.5,660.5,20.6z M672.4,18.1c0.1,0,0.3-0.2,0.4-0.3
		c0,0-0.1-0.2-0.2-0.2c-0.2,0-0.4,0.1-0.6,0.2C672.2,17.9,672.3,18.1,672.4,18.1z M629.7,41.3c0-0.1,0.1-0.2,0.1-0.3
		c0-0.1-0.1-0.2-0.2-0.3c0,0.1-0.1,0.2-0.1,0.3C629.6,41.1,629.7,41.2,629.7,41.3z M642.4,57.5c0,0.2,0.2,0.3,0.3,0.4
		c0.1-0.1,0.2-0.2,0.2-0.2c0-0.2-0.1-0.4-0.2-0.6C642.6,57.3,642.4,57.4,642.4,57.5z M646.2,25.8c0.1-0.2,0.2-0.4,0.2-0.6
		c0-0.1-0.2-0.2-0.2-0.2c-0.1,0.2-0.2,0.4-0.2,0.6C646,25.7,646.1,25.8,646.2,25.8z M680.2,28.8c0.1,0,0.2-0.2,0.4-0.3
		c-0.1-0.1-0.2-0.2-0.3-0.2c-0.2,0-0.4,0.1-0.6,0.2C679.8,28.6,680,28.8,680.2,28.8z M645.2,39.9c0,0,0.2,0.1,0.2,0.2
		c0.1-0.2,0.2-0.4,0.2-0.6c0-0.1-0.1-0.1-0.2-0.2C645.4,39.6,645.3,39.7,645.2,39.9z M675.3,27.1l0.2,0l-0.1-0.2L675.3,27.1z"/>
	<path d="M265,436.9c-0.3,0-0.6,0-0.9,0l0.1,0.1c-0.2-3.9,0.1-7.8,0.5-11.7c0.1-1,0.4-1.7,1-2.5c1.2-1.6,2.2-3.3,2.6-5.5
		c-2.5-0.6-4.9-0.1-7.6,0.2c0.7,1.2,1.2,2,1.6,3c0.1,0.3,0,0.9-0.2,1.3c-0.3,0.6-1,0.7-1.6,0.4c-0.6-0.4-1.2-0.8-1.5-1.4
		c-0.6-0.9-1-1.9-1.6-3c-2.5,0-4.9,0-7.4,0c-2.6,0-5.2,0-7.8-0.1c-2.5-0.1-5-0.3-7.5-0.6c-2.4-0.3-4.9-0.8-7.5-1.2
		c-0.1,1.1-0.5,2.1-0.2,2.9c1.4,4.1,1.5,8.4,1.9,12.6c0.3,2.8,0.3,5.7,0.3,8.5c0,1.1-0.5,2-1,3c-2.6,5.1-5.1,10.2-7.6,15.3
		c-1,2-1.8,4.1-2.8,6.4c1.6,4.2,1.9,8.8,2.6,13.3c1,7.1,1.9,14.1,2.8,21.2c0.1,1.1,0.2,2.1,0.2,3.2c-0.1,3.7,0.7,7.3,1.1,11
		c0.4,3.4,0.6,6.9,0.9,10.3c0.1,1.3,0.1,2.6,0.2,3.9c0.3,3.7,0.4,7.4-0.3,10.8c0.5,1.2,1.3,1.6,2.3,1.6c1.6,0.1,3.3,0.3,5.1,0.5
		c0.2-0.5,0.4-1,0.6-1.5c0.3-0.9,0.6-1.8,1-2.7c1.5-3.2,1.6-3.2,5.1-4.4c0.2-0.1,0.4-0.2,0.8-0.5c0.2-1.5,0.4-3.1,0.6-4.7
		c0.8-4.8,2.2-9.5,3.5-14.2c0.8-3.1,1.7-6.2,2-9.4c0.2-2.5,0.7-5,1.4-7.3c0.6-2.2,1.7-4.2,2.5-6.3c0.8-2,1.5-4,2.4-5.9
		c0.4-1,1.1-1.8,1.7-2.9c-0.7-1.4-0.1-3.1,0.5-4.6c1.2-3.6,1.9-7.3,2.5-11.1c0.6-3.7,0.3-7.3,0.3-11.2c-1.1,1-1.2,2.1-1.5,3.1
		c-0.7,2.1-1.3,4.2-2.9,5.9l0.1,0.1c0.4-2.5,0.8-5,1.3-7.6c0.3-1.7,0.9-3.2,2.8-3.6c0.2,0,0.2-0.6,0.3-0.9l-0.1,0.1
		c0.3-0.3,0.6-0.6,0.8-0.8l-0.1,0.1c0.4,0.1,0.8,0.2,1.1,0.3c0,2.3-0.2,4.3,0.1,6.3c0.3,2,0.3,4-0.1,6c-0.2,1.2-0.2,2.4-0.3,3.5
		c-0.5,4.9-1.2,9.7-2.7,14.3c-1.8,5.5-3.5,11.1-5.9,16.4c-0.3,0.8-0.6,1.6-0.8,2.4c-0.7,3.1-1.3,6.3-2,9.4c-0.5,2.2-0.8,4.5-1.4,6.6
		c-1.2,4.1-1.9,8.3-2.6,12.6c-0.2,1.4-0.4,2.8,0.2,4.3c1.1,0.3,2.1,0.6,3.6,1c-0.7,0.5-1,0.9-1.4,1c-1.6,0.6-3.2,0.5-4.9,0.1
		c-2.6-0.6-4,0.2-5.2,2.5c-0.5,0.9-0.8,2-1.1,3c-0.3,1-0.5,2.1-0.6,2.7c-1.5,1.5-2.8,2.7-4.1,3.9c-0.5,0.5-1,1-1.6,1.3
		c-1.3,0.8-2.5,0.6-3.4-0.6c-0.8-1-1.6-2-2.4-3.1c-0.5-0.7-0.8-1.4-1.1-2c0.7-1.2,1.3-2.2,2-3.1c0.5-0.6,0.4-1.1-0.1-1.5
		c-0.6-0.4-1.3-0.2-1.6,0.3c-1,1.5-1.8,2.9-1.5,4.9c0.6,3.7,0,7.3-1.9,10.6c-0.5,0.9-0.7,2-0.7,3.1c-0.1,2.3-0.4,4.5-1.2,6.6
		c-0.2,0.6-0.2,1.4-0.2,1.8c2.1,1.6,3.9,3.1,5.7,4.6c0.5,0.4,0.9,0.8,1.5,1c1.5,0.4,2.5,1.4,3.5,2.4c3.3,3.3,6.5,6.6,7.4,11.5
		c0.1,0.7,0.6,1.4,1.1,1.8c1.9,1.3,3.3,3.6,6.1,2.8c0.2,0,0.5,0.1,0.6,0.2c0.9,0.8,2,0.7,3,0.7c0.9,0,2,0,2.8,0.3
		c4.5,1.7,9.2,1.2,13.8,1c2.1-0.1,4.3-0.5,6.2-1.5c0.9-0.4,1.6-1,2-2c0.3-0.7,0.3-1.3,0.1-2c-0.2-0.7,0-1.4-0.1-2.1
		c-0.1-2.4-0.3-4.7-1-6.7c-1.1-1-2.1-1.6-2.9-2.5c-1.6-1.8-3-3.7-4.4-5.6c-0.7-0.9-1.4-1.9-2.4-2.5c-2.3-1.3-3.6-3.4-4.2-5.9
		c-0.2-0.6-0.4-1.3-0.7-2c-3.3,0.7-6.4,1.4-9.5,2c-0.6,0.1-1.2,0.3-1.7,0.2c-0.4-0.1-0.9-0.5-1-0.8c-0.1-0.3,0.2-0.9,0.5-1.2
		c0.3-0.3,0.8-0.5,1.3-0.6c2.9-0.7,5.7-1.6,8.7-1.6c0.2,0,0.4-0.2,0.7-0.4c-0.4-0.6-0.7-1.1-1.1-1.7c-2.7,0.6-5.2,1.3-7.7,1.8
		c-1.5,0.3-3,0.5-4.6,0.7c-0.8,0.1-1.7,0-2.1-1c-0.3-0.7,0.2-1.2,1.5-1.6c0.4-0.2,0.9-0.3,1.4-0.4c3.2-0.6,6.5-1.3,9.9-1.9
		c-0.4-0.5-0.7-1.1-1.1-1.7c-4.6,0.7-9,1.4-13.5,2.1c-0.3,0.1-0.7,0.1-1,0c-0.3-0.1-0.6-0.4-0.7-0.7c-0.1-0.3,0-0.7,0.2-1
		c0.3-0.4,0.7-0.7,1.1-0.9c1.4-0.4,2.7-0.8,4.1-1.1c1.3-0.2,2.6-0.3,3.9-0.5c1.4-0.2,2.7-0.3,4.8-0.5c-2.3-1.9-1.5-3.8-1-5.6
		c0.6-2.4,1.1-4.8,0.7-7.7c0.6,0.5,1.1,0.7,1.3,1.1c0.6,0.9,0.7,2,0.6,3.1c-0.2,1.8-0.4,3.5-0.6,5.3c-0.3,2.4,0.7,4.5,2.2,6.2
		c2.7,3,4.7,6.2,5.8,10.1c0.5,1.9,1.5,3.4,3.1,4.6c0.8,0.6,1.5,1.5,2.2,2.3c2.2,2.7,4.2,5.5,6.5,8c2,2.1,2.8,4.6,3.1,7.4
		c0.2,1.7-0.7,3.5,0.1,5.2c0.1,0.3-0.1,0.7-0.2,1c-0.7,2-1.9,3.6-4,4.2c-1.1,0.3-2.3,0.7-3.5,0.8c-5.7,0.8-11.4,0.7-16.9-1.4
		c-1.5-0.6-3.1-1.1-4.8-0.8c-1.3,0.2-2.6-0.2-3.8-0.8c-3.1-1.5-5.7-3.3-7.1-6.7c-0.5-1.3-1.2-2.6-1.8-3.9c-0.3-0.6-0.6-1.3-1-1.8
		c-2.9-3.3-6-6.5-9.8-8.6c-2.3-1.3-4.3-2.8-5.5-5.4c0.4-0.7,0.8-1.6,1.2-2.4c0.6-1,0.9-1.9,0.8-3.1c-0.2-2.4,0.5-4.7,1.2-7
		c0.6-1.8,1.1-3.6,1.5-5.5c0.3-1.4,0.7-2.7,0.1-4.2c-0.3-0.9,0-2.1,0.4-3.1c0.4-1.1,1.1-2.1,1.6-2.9c1.1-0.4,2-0.6,2.8-0.9
		c0-1.2,0.1-2.1,0-3.1c-0.4-6.6-1.1-13.3-1.3-19.9c-0.2-5.2-1-10.4-1.9-15.5c-1.4-7.8-2.6-15.7-3.3-23.6c-0.1-1.3-0.2-2.6,0.3-3.9
		c0.2-0.6,0.2-1.4,0.1-2.1c-0.2-1.2-0.4-2.3-0.6-3.1c0.7-3.9,2.4-7.1,3-10.6c0.1-0.4,0.4-0.9,0.6-1.2c1.5-2.2,3-4.3,4.4-6.5
		c0.5-0.8,1-1.6,1.5-2.4c1-1.6,1.2-3.2,0.8-5.1c-0.4-1.7-0.5-3.5-0.7-5.3c-0.2-2.2-0.2-4.5-0.5-6.8c-0.2-1.8-0.6-3.5-0.7-5.3
		c-0.1-1.7,0.1-3.5,0.1-5.3c-0.9-0.4-1.9-0.7-2.6-1.2c-1.2-0.9-2.5-1.3-4-1.4c-0.2,0-0.5,0-0.7,0c-2-0.3-2.3-0.7-2-2.9
		c0.2-1.1,0.3-2.1,0.4-3.2c0.3-3.4,0.5-6.9,0.8-10.3c0-0.6,0.1-1.2,1.2-1.1c0.1,1,0.1,2,0.2,3.1c0,1,0.1,1.9,0,2.9
		c0,1.1,0,2.1-0.1,3.2c0,0.9-0.1,1.9-0.2,2.8c-0.1,1-0.2,2.1-0.3,3.2c2,0.5,3.9,0.8,5.7,1.4c5.9,1.9,12,2.9,18.2,3
		c2.1,0,4.3,0.1,6.4,0.1c5.9,0,11.9,0,17.8-0.2c2.6-0.1,5.2-0.3,7.9-1c0-1.3,0-2.5,0-3.6c0-0.8-0.1-1.6-0.1-2.5
		c-1.3,0.3-1,2-2.4,2.1c0-0.7,0.2-1.4,0.1-2c-0.5-2-0.3-4-0.1-6c0.4-5.6,1.3-11.1,2.8-16.5c1-3.5,1.5-7.1,1-10.6
		c-0.4-2.7-0.1-5.2,0.6-7.7c0.5-1.8,1-3.7,1.5-5.5c0.1-0.5,0.1-1.1,0.1-2c-1.5,0.8-2.6,1.4-3.7,2c-2.3,1.3-4.5,2.6-6.9,3.8
		c-1.5,0.8-2.9,1.6-4.1,2.8c-0.1,0.1-0.4-0.1-0.8-0.2c0.9-1.8,2.5-2.9,4-3.9c1.7-1.2,3.6-2.3,5.4-3.5c2.1-1.4,4.3-2.5,6.8-2.7
		c0.4-1.2,0.8-2.3,1.2-3.5c0.4-1.1,0.7-2.3,1.1-3.4c0.2-0.6,0.4-1.4,1.4-1.4c0.6,0,0.7,0.9,0.3,2.2c-0.4,1.3-0.8,2.5-1.2,3.7
		c-0.3,0.9-0.5,1.8-0.7,2.7c1,0.5,1.8,0.7,2.4,1.6c1.7,2.8,3.7,5.6,5.5,8.3c2.6,3.9,4.7,8,6.6,12.2c0.4,0.9,0.7,1.8,0.9,2.7
		c0.1,0.2-0.3,0.6-0.6,1.2c-0.6-1.1-1-1.7-1.3-2.3c-1.1-2.7-2.5-5.1-4.2-7.4c-1.3-1.8-2.7-3.6-3.9-5.5c-2-2.9-3.9-5.9-6-9
		c-0.7,2.2-1.4,4.5-2.1,6.8c-0.5,1.6-0.5,3.3,0.3,4.9c0.2,0.4,0.2,0.9,0.2,1.4l0.1-0.1c-0.4-0.1-0.9-0.2-1.4-0.3
		c0,0.6,0.1,1,0.1,1.5c0.2,4.4,0.4,8.8-0.4,13.1c-0.5,3-1,6.1-1.5,9.1c-0.1,0.5-0.3,1.1,0,1.4c1,1.1,0.4,2.5,0.7,3.7
		c0.9,3.7,1.1,7.5,1,11.3c0,0.3,0.1,0.7,0.2,0.9c0.5,0.8,1.9,0.4,1.6,1.8c-0.8,0.9-1.9,0.7-2.9,0.9c-1.6,0.3-3.3-0.1-4.9,0.7
		c-0.6,2.6-1.2,5.2-3.4,6.7c0.1,4.7-0.6,9.1-2.8,13.2C264.8,436.8,264.9,436.9,265,436.9L265,436.9z M225.4,540
		c-1.1,1.1-1.2,1.4-0.6,2c0.9,1,1.8,2,2.9,3.1c0.8-0.4,1.6-0.8,2.7-1.4C228.5,542.3,226.9,541.1,225.4,540z"/>
	<path d="M692.3,333.6c1.8-1.5,3.5-3.1,5.3-4.7c1.2,2.7,1.5,5.4,1.6,8.1c0.3,8.3,0.6,16.6-0.3,24.9c-0.3,2.9-0.2,5.9-0.2,8.9
		c0,0.5-0.1,1,0.1,1.4c1.1,2.3,0.7,4.7,0.7,7c0.1,4.8-0.1,9.5-0.2,14.3c0,0.7,0,1.6-0.3,2c-1.2,1.3-1,2.8-1.1,4.4
		c-0.1,2.1-0.1,4.3-0.1,6.4c-1.9,0.8-3.7,1.3-5.6,1.5c-5.7,0.5-11.4,0.9-17.1,1.3c-1.4,0.1-2.9,0-4.3,0.3c-2.3,0.6-4.4,0-6.6-0.8
		c-1.3-0.5-2.7-1-4-1.4c-0.4-0.1-0.8,0-1.5,0.1c0.4,0.5,0.6,0.8,0.9,1c4.4,2.8,9.2,4.3,14.5,3.9c2-0.1,4-0.2,6.1-0.2
		c0.6,0,1.1,0.1,1.8,0.2c-0.9,3.5-2.4,6.6-4.5,9.3c0.4,0.5,0.8,0.3,1.2,0c3.8-2.3,5.7-5.2,6.3-9.9c1.3-0.5,2.8-0.3,4.1-0.5
		c1.4-0.1,2.8-0.3,4.2-0.4c0.8,0.4,1,1,0.8,1.8c-0.2,0.8-0.6,1.6-0.7,2.4c-0.1,0.6,0,1.2,0.1,1.7c0.2,1,0.4,2.1,0.6,3.1
		c0.6,3.4,1.1,6.8,1.7,10.3c-0.5,0.6-1.1,1.2-1.4,1.9c-0.7,1.2-1.2,2.5-1.9,3.8c0.6,2-0.5,3.7-0.9,5.5c-0.2,0.9-0.4,1.8-0.7,2.8
		c-0.2,0.8-0.3,1.5-0.1,2.4c0.2,1-0.1,2.1-0.2,3.1c-0.1,0.7-0.4,1.6-0.1,2.1c1.5,2.5,0.5,5.1,0.6,7.7c0,0.5,0,1,0,1.4
		c0,1.4,0.1,2.9-1.2,3.9c-0.2,0.2-0.3,0.6-0.4,1c-2.4,6.6-5.3,13-8.2,19.3c-0.5,1.2-1,2.4-1.4,3.6c-0.3,0.9-0.6,1.8-1,2.7
		c-3.5,7.4-7.2,14.7-11.9,21.5c-1.9,2.7-3.5,5.7-5,8.6c-1.1,2.1-2.8,3.3-5.1,3.3c-1.6,0-2.4,0.7-3,2.1c-0.7,1.9-1.4,3.8-2.1,5.7
		c-0.5,1.3-1.1,2.6-1.6,4c-2.4,0.8-4.7,2.3-6.9-0.1c-0.1-4-0.7-7.9-1.4-11.7l0.1,0.1c-0.4-0.1-1-0.5-1.3-0.3
		c-0.5,0.2-1.1,0.7-1.2,1.2c-0.2,1.1-0.4,2.4-0.2,3.5c0.3,2.1,0.8,4.2,1.3,6.3c0.2,0.7,0.5,1.3,0.8,2c1,1.8,2.8,2.7,4.8,2.2
		c1.6-0.4,3.1-1.1,4.7-1.5c1.8-0.5,2.8-1.7,3.4-3.3c0.7-1.9,1.5-3.8,2.3-5.8c0.4-0.3,1-0.8,1.6-1c1.7-0.4,3.4-0.9,4.8-2.2
		c0.9-0.8,2-0.4,3,0c0.7,0.9,0.5,2.1,0.5,3.1c0,1.8,0.1,3.5,1.4,5c0.3,0.3,0.3,0.9,0.5,1.5c-0.6,0.3-1.1,0.5-1.6,0.7
		c-2.4,0.8-4.8,1.4-7.1,2.3c-1.5,0.6-2.9,1.6-4.3,2.5c-1,0.7-0.9,1.2-0.2,2.9c2.6-0.2,4.7-2.1,7.2-2.7c2.5-0.7,5-1.6,7.6-2.4
		c0.5,0.8,0.9,1.4,1.5,2.3c-1.2,0.3-2,0.6-3,0.7c-3.6,0.5-6.4,2.5-9.1,4.7c-0.5,0.4-1,1.1-1.2,1.7c-0.1,0.5,0,1.2,0.3,1.6
		c0.3,0.5,1,0.6,1.6,0.3c1.3-0.6,2.6-1.2,3.8-1.9c2.7-1.6,5.6-2.6,8.7-3.4c1.3,1,1.7,2.5,2.1,4.1c-3.3,0-6.1,1.3-9,2.4
		c-0.9,0.3-1.7,0.8-2.2,1.7c-0.5,0.9-0.1,2.1,0.9,2.2c0.8,0.1,1.7,0,2.4-0.2c2.2-0.6,4.3-1.4,6.4-2.1c0.7-0.2,1.4-0.3,2-0.5
		c0.3,0.4,0.6,0.6,0.8,0.9c0.2,0.3,0.2,0.7,0.4,1.2c-2.7,0-4.9,1.1-7.1,2.3c-0.5,0.3-1,0.7-1.3,1.2c-0.6,0.9,0.1,2.4,1.2,2.4
		c0.9,0,1.9-0.2,2.7-0.5c1.4-0.6,2.7-1.5,4-2.2c0.6-0.3,1.3-0.5,2-0.8c0.5,0.7,0.9,1.2,1.4,1.8c0.8,1,1.7,2,2.6,2.9
		c0.9,1,1.8,1.9,2.6,2.9c1.4,1.9,3,3.7,5.1,5c2.5,1.6,4.3,4,6.4,5.9c0.2,2.9-1.1,5.1-1.6,7.5c-0.2,0.7-1.2,1.6-2,1.8
		c-2.9,1-5.9,2-8.9,2.5c-1.8,0.3-3.8-0.2-5.6-0.5c-4.8-0.8-9.6-1.9-14.4-2.6c-4.8-0.7-8.2-3.6-11.3-7c-0.7-0.7-0.8-1.9-1.3-2.8
		c-0.6-1-0.7-2.2-2.1-2.7c-0.8-0.3-1.3-1.4-2.1-2.3c-1.9-0.3-4.1-0.4-6.1-0.9c-6.9-1.7-12.9-4.7-16.5-11.2c0-1.1,0.7-1.7,1.5-1.9
		c1.4-0.3,1.9-1.3,2.4-2.4c0.7-1.7,1.1-3.4,0.9-5.2c-0.2-1.6,0.3-2.8,1.1-4c0.7-1.1,1.3-2.3,2.1-3.3c1.2-1.5,1.4-3.2,1.1-5
		c-0.3-1.6-0.5-3.3-0.7-4.7c0.5-1.3,1.8-1.7,2-3.1c0.2-1.7,1.5-2.6,3.1-3.1c0.7-0.2,1.4-0.4,2-0.7c0.5-0.3,0.9-0.7,1.6-1.2
		c-0.6-0.4-1-0.9-1.3-0.8c-2.8,0.7-5.5,1.5-6.8,4.5c-0.2,0.4-0.3,1-0.7,1.2c-2.7,2-2.2,4.8-2,7.5c0.1,0.6,0.3,1.1,0.4,1.7
		c0.2,1,0.1,1.9-0.3,2.8c-0.8,1.3-1.4,2.7-2.2,4.1c-0.7,1.1-1.2,2.3-1.1,3.7c0.1,0.8-0.2,1.6-0.3,2.4c-0.2,1.6-0.9,2.9-2.2,3.9
		c-0.7,0.6-1.3,1.4-2.1,2.1c-0.1,0.6,0,1.4-0.2,2c-0.6,2,0.2,3.6,1.5,4.8c1.5,1.4,3,2.8,4.7,3.8c3.8,2,7.6,3.7,12.1,3.7
		c2.5,0,4.9,0.8,6.5,3c0.3,0.4,0.6,0.8,0.7,1.2c0.7,2.1,2.1,3.7,3.7,5.2c0.5,0.5,1,1,1.1,1.8c0.1,1.6,1.4,2.4,2.6,3.1
		c2.3,1.2,4.7,2.3,7.3,2.8c2.9,0.6,5.8,1.1,8.7,1.7c1.6,0.3,3.3,0.3,4.7,1.3c0.7,0.5,1.8,0.5,2.7,0.4c1.5-0.1,3.1-0.3,4.6-0.7
		c2.8-0.7,5.5-1.4,8.2-2.3c2-0.7,4-1.5,5.8-3.1c0.1-0.7,0.3-1.5,0.2-2.3c-0.3-2.1-0.5-4.3-1-6.3c-0.8-2.9-2.3-5.4-4.8-7.3
		c-3.2-2.4-5.5-5.6-8.1-8.5c-0.5-0.5-0.8-1.2-1.2-1.8c-0.6-1-1.2-2.1-1.9-3c-2.6-3.3-4.1-7.1-5.1-11.2c-0.1-0.3-0.1-0.7-0.4-1
		c-2.1-2.5-3-5.7-4.9-8.3c-0.7-1-1.4-1.9-2.3-3.2c0-1.2,0-2.9,0-4.5c0.4-0.4,0.8-0.7,1.4-1.2c-0.4-0.6-0.9-1.1-1.2-1.6
		c-0.4-0.6-0.6-1.3-0.9-1.9c-0.8-0.1-1.4-0.3-2.2-0.4c0.2-1.5,1.1-2.7,1.8-3.9c2.9-5.2,5.9-10.3,8.8-15.5c0.8-1.3,1.4-2.7,2.1-4.1
		c1.6-3,2.6-6.4,5.1-8.9c0.1-0.1,0.1-0.2,0.2-0.3c3.5-7.4,7.5-14.6,8.5-22.9c0.5-3.9,0.8-7.8,1.2-11.7c0.2-2.1,0.4-4.2,0.6-6.6
		c-1.3-1-1.3-2.4-0.8-4c1.2-3.8,2.4-7.7,3.6-11.6c0.6-2.1,0.6-2.1-0.2-3.9c0.1-2.2,0.2-4,0.2-5.7c0-1.7-0.1-3.3-0.4-5
		c-0.7-3.6,0.8-5.9,4-7.3c1.7-3.8,0.5-7.6,0.4-11.4c1.6-1.9,2-4.2,2-6.6c0-4.6,0.3-9.3-0.4-13.9c-0.2-1.8-0.2-3.6-0.3-5.3
		c-0.1-2.2-0.4-4.5-0.4-6.7c-0.1-1.9-0.1-3.8,0.1-5.7c0.5-5.9,0.5-11.9,0-17.8c-0.3-3.5-0.5-7.1-1-10.6c-1-7-3.6-13.5-6.5-19.9
		c-0.1-0.3-0.3-0.7-0.5-0.9c-2.3-2.4-2.3-5.3-2.1-8.3c0.3-3.8-0.3-7.3-1.8-10.8c-0.3-0.6-0.6-1.3-1.1-1.8c-0.5-0.6-1-0.4-1.6,0.3
		c0.1,0.4,0.2,1,0.5,1.5c1.6,3.9,2.6,7.9,2,12.2c-0.2,1.1,0.2,2.4,0.4,3.5c0.4,1.7,1.1,3.4,1.3,5.1c0.3,1.9,0.3,3.8-0.3,5.6
		c-0.3,0.7-0.7,1.5,0,2.4c1.6-1.2,1.6-3.3,2.6-5.4c1.8,3.8,2.8,7.4,3.9,11.1c-1.1,1.3-2.2,2.6-3.3,4.1
		C693.1,331.7,692.2,332.4,692.3,333.6L692.3,333.6z"/>
	<path d="M680.8,111c-0.1-0.1-0.2-0.2-0.3-0.3c0,0.1,0.1,0.2,0.1,0.2C680.6,110.9,680.8,110.9,680.8,111c0.3,0.4,0.6,0.9,0.8,1.4
		c0.1,0.6,0.1,1.2,0.3,1.7c0.5,1.3,1.2,2.6,1.8,3.9c3.2,6.5,4.5,13.4,4.3,20.6c-0.1,1.9-0.4,3.8-1,5.5c-0.8,2.3-2,4.5-3.4,6.7
		c-0.7,0-1.4,0-2.1,0l0.1,0.1c1.2-1.4,2.2-2.9,2.9-4.7c3.2-8.6,2.2-17.1-0.9-25.4c-1.4-3.9-3.4-7.6-5-11.3c-2.2-1.2-4.4-2.3-6.8-3.6
		c-0.4,2.1-0.8,3.9-1,5.8c-0.2,2,0,4,0,6.4c-0.7-1.5-1.3-2.6-1.8-3.7c-0.2-0.4-0.2-0.9-0.2-1.4c0.1-3.2,0.1-6.4,1.8-9.3
		c0.3-0.6,0.6-1.3,0.9-1.9c0.6-1.6,1-3.1,0.3-4.9c-1.1,0-2.3,0-3.5-0.2c-1.3-0.2-2.6-0.4-3.8-0.8c-0.5-0.2-0.9-0.7-0.3-1.6
		c1.4-0.2,2.9,0.3,4.4,0.2c1.5,0,3.1-0.1,4.6-0.1c1.5,0,3,0,4.6,0c1.6-1.7,1.6-1.7,2.2-3.5c0.8-2.5,1.6-5,2.4-7.5
		c0.2-0.6,0.4-1.1,0.4-1.7c0.2-5.2,1.7-10.3,2.3-15.5c0-0.4,0.1-0.7,0.3-1c1-1.7,1-3.5,0.7-5.5c-0.2-1.5,0-3.1,0-4.6
		c0-0.1,0.3-0.3,0.5-0.4c0.1,0,0.3,0.1,0.3,0.1c1.5,3,1.6,6.1,0.9,9.3c-0.3,1.2-0.5,2.3-0.8,3.5c-0.5,2.9-1,5.8-1.6,8.8
		c-0.1,0.7-0.5,1.4-0.4,2.1c0.2,1.7-0.6,3.2-1,4.8c-0.9,3.1-2.5,5.9-3.3,9c-0.2,0.9-1.1,1.8-1.8,2.6c-0.8,0.8-1.9,1.4-2.7,2
		c-0.6-0.1-1.1-0.2-1.5-0.3c-0.1,0-0.2,0.1-0.5,0.3c-0.5,2-1,4.1-1.2,6.3c2.4,1.7,4.7,3.1,6.9,4.8c3.6,2.9,7.1,5.9,10.7,8.9
		c1.1,2.3,3.2,2.9,5.4,3.6c2.5,0.8,4.8,1.9,6.8,3.7c0.6,0.5,1.3,1,2,1.5c3.7,2.7,7,5.7,8.8,10.1c0.2,0.5,0.5,1.1,0.9,1.6
		c2.9,4.5,4.1,9.6,4.3,14.9c0,1.4-0.1,2.9,0.1,4.3c0.7,4-0.3,7.8-0.7,11.7c-0.1,1.3-1.4,1.1-1.8,2c-0.2,2.4,0.1,4.7,1.7,6.7
		c1.9,2.2,2.9,4.9,3.8,7.6c0.3,0.8,0.4,1.6,0.8,2.3c1.8,3.2,2.6,6.6,2.5,10.2c0,0.7,0,1.5,0.4,2c0.9,1.5,0.8,2.9,0.3,4.5
		c-0.3,1.1-0.5,2.3-0.8,3.5c0.4,0.5,0.6,1.1,1,1.5c2,1.9,2.3,4,0.7,6.4c-0.3,0.5-0.6,1-0.8,1.6c-0.2,0.7-0.5,1.4-0.4,2
		c0.4,2.6-0.2,4.6-2.5,6.2c-0.6,0.4-0.8,1.4-1.7,1.6c-2.1,0.5-3.5,1.7-4.9,3.3c-2.4,2.8-5.6,3.4-9,2.5c-1-0.3-1.9-0.8-2.8-1.4
		c-0.5-0.3-0.7-0.9-0.5-1.6c0,0,0,0,0,0c0.4,0.2,0.9,0.2,1.3,0.5c2.2,1.7,4.7,1.5,7.1,0.8c0.7-0.2,1.3-0.8,2.3-1.5
		c-2.3-0.7-4,0.9-6.1,0.2c-0.8-1.2-2.8-1.9-2.2-4.5c1.2,1.1,2.2,2.1,3.1,3c2.3-0.1,2.3-0.2,3.5-0.8c1.6-0.7,3.2-1.6,4.9-2
		c2.7-0.5,4.4-2.1,6-4.3c-0.9-2.4-0.1-4.6,1.4-6.6c0.3-0.4,0.5-0.8,0.7-1.2c0.3-0.7,0.3-1.4-0.2-2c-0.6-0.7-1.3-1.4-1.9-2.1
		c-0.5-0.5-1-1-1.4-1.4c0.7-1.6,1.3-2.9,1.8-4.4c0.7-2,0.3-3.4-1.5-4.6c-0.9-0.6-1.8-1.1-2.7-1.5c-0.6-1-1-2-0.6-3.1
		c0.2-0.5,0.2-1.2,0.2-1.8c0.1-1.6-0.5-2.4-2.1-2.8c-2.1-0.6-3.9,0.5-5.1,1.7c-3.1,3-6.4,5.5-10.4,7.5c-0.3,1.2-0.9,2.5-0.9,3.7
		c0,1.3,0.5,2.6,0.9,4.1c-2.1-0.9-2.4-1.1-2.7-1.9c-0.4-0.9-0.5-1.9,0-2.8c1.8-3.2,3.1-6.9,7.1-8.3c0.2-0.1,0.2-0.4,0.4-0.6
		l-0.1,0.1c2.7-0.2,4.2-1.8,5.1-4.3c1.9-0.7,3.6-1.8,5.8-1.7c0.5,0.3,1,0.7,1.6,0.8c0.6,0.1,0.9,1.1,1.7,0.6
		c-0.1-0.3-0.1-0.5-0.2-0.7c-1.7-3.2-3.7-6.3-4.7-10c-0.1-0.5-0.7-1-0.9-1.5c-1.1-2.2-1.9-4.6-1-7.1c1.7-4.8,2.5-9.6,1.7-14.7
		c0-0.2,0-0.5,0-0.7c0.3-6.4-2.2-12.1-4.6-17.7c-0.3-0.7-0.8-1.5-1.4-2.1c-1.9-2-3.7-4-5.8-5.7c-1.3-1.1-2.4-2.2-3.2-3.5
		c-1.9-0.7-3.5-1.4-5.2-1.9c-2.6-0.7-4.9-1.8-6.5-4.1c-0.2-0.3-0.5-0.5-0.8-0.7c-0.3-0.2-0.7-0.8-1.3-0.1c1.1,2.5,1.7,5.3,3.4,7.6
		c1.1,0.1,2,0.2,2.9,0.3c0.3,0,0.6,0.3,1.1,0.5c-1.2,0.6-1.9,1-2.7,1.4c0.7,1.8,1.5,3.4,2.2,5c2.2,4.4,3.8,8.9,5.3,13.6
		c0.4,1.4,0.8,2.7,0.6,4.2l0.1-0.1c-0.3-0.2-0.7-0.3-0.8-0.5c-0.6-1.2-1.2-2.3-1.7-3.5c-1.9-4.5-3.1-9.2-6-13.2
		c-0.3-0.4-0.4-0.8-0.6-1.3c-2.4-5.7-4.7-11.4-7.1-17.3c-0.7-0.5-1.5-1.1-2.4-1.8C681.2,112,681,111.5,680.8,111z M721.5,190.1
		c-0.1,2.4-1,4.1,1.1,5.5C723.1,193.7,722.5,192.2,721.5,190.1z"/>
	<path d="M610.9,287.2c1,1.8,2.5,2.2,4.6,1.9c0.2-2,0.4-4,0.6-5.9c-4.9-1.8-9.7-3.6-14.5-5.4l0.1,0.1c-1-0.7-2-1.5-3.5-1.3
		c-0.3,2,0.5,3.9-0.2,5.7c-1.2,0.8-2.3,0.7-3.5,0.4c-2.5-0.7-5-1.3-7.6-2c-1.1-0.3-2.3-0.6-3.1-1.9c0.4-1.2,0.3-2.5,0.1-3.9
		c-0.3-2-0.1-4,0-6c0.1-1,0.5-2.1,1-3c1-1.7,2.4-2,4.2-0.9c2,1.2,4,2.4,6.1,3.5c4.1,2.2,8.2,4.3,12.3,6.5c0.6,0.3,1.4,0.7,1.6,1.3
		c0.6,1.4,1.8,1.8,3,2.4c1.1,0.5,2.3,0.8,3.2,1.5c1.9,1.3,4.2,1.6,6.4,1.9c2.3,0.3,4.8-0.3,6.8,1.4c0.1,0.1,0.2,0.1,0.3,0.1
		c2.2,0.2,4.4,0.9,6.7,0.4c1.4-0.3,2.8-0.3,4.3-0.3c5.7-0.1,11.4-0.7,17-1.5c2.1-0.3,4.2-0.8,6.1-1.7c1.2-0.6,2.4-1,3.7-1.1
		c1.3-0.1,2.6-0.1,3.9-0.4c1.6-0.4,3.1-1.1,4.7-1.7c0.1-0.5,0.2-1.1,0.3-1.7c0.2-0.7,0.6-1.5,1.4-1.3c0.5,0.1,1.1,0.6,1.3,1
		c0.4,0.7,0.6,1.6,0.7,2.4c0.1,0.9,0,1.9,0,2.8c0.8-0.1,1.5-0.2,2.3-0.2c2,2.6,3.9,5.2,5.8,7.8c0.1,0.1-0.1,0.3-0.2,0.7
		c-1.6-0.7-2.5-2.2-3.7-3.2c-1.3-1-2.4-2.2-4.1-3.7c0.5,1.6,0.8,2.5,1,3.5c1,4.2,0.4,8-2.2,11.5c-1.4,1.9-3.3,3.1-5.6,3.3
		c-0.4,0-0.8-0.2-1.5-0.4c4.4-4,7.6-8.2,6.6-14.5c-1.5,0.2-2.9,0.4-4.3,0.5c-1.2,0.1-2.4,0.1-3.5,0.1c0.7-0.6,1.4-1.3,2.2-1.7
		c1.6-0.7,2-1.9,1.8-3.4c0-0.3-0.2-0.7-0.2-1c-0.9-0.2-1.4,0.2-1.5,1.1c-0.1,0.7-0.1,1.4-0.2,2.1c-0.8,0.1-0.6-0.5-0.8-0.8
		c-0.2-0.4-0.4-0.8-0.7-1.3c-0.9,0.1-1.6,0.1-2.6,0.2c0.4,1.7,0.7,3.1,1,4.6c0.4,0.1,0.7,0.1,1.1,0.2c-0.8,0.8-1.5,1.7-2.3,2.6
		c-1.1-1.7,0.4-3.8-1-5.6c-0.5,0.2-1.2,0.3-1.4,0.7c-0.6,1.1-0.7,2.2,0,3.3c-0.5,0.6-1.2,1.2-1.8,1.9l0.1,0.1
		c-0.2-1.4-0.1-2.8-0.9-4.2c-2.1-0.3-3.6,0.7-4.5,2.5c-0.3-0.6-0.5-1-0.8-1.5c-0.9,0.1-1.9,0.1-2.8,0.3c-1,0.2-2.2-0.1-3.2,0.8
		c0,0.9-0.2,2,0,3c1.1,4.2,0.8,8.5,0.7,12.7c0,0.2-0.2,0.4-0.5,0.8c-0.1-0.7-0.2-1.1-0.2-1.5c0-3,0-5.9-0.7-8.9
		c-0.2-1-0.2-2.1,0-3.2c0.2-1.4-0.3-2.3-1.3-3.1c-3,0.3-5.9-0.4-8.8,0.2c-0.5,1.3-0.9,2.5-1.6,4.3c-0.2-2-0.3-3.2-0.3-4.4
		c-0.3,0.1-0.5,0-0.5,0.1c-0.5,1.4-1,2.7-1.5,4.2c-0.3-1.7,0.2-3.4-0.6-5c-1.7,0-3.2-0.8-5.1-0.3c-0.4,1.9-0.5,3.8-1.8,5.3
		c0-1.6,0.1-3.3,0.1-4.9c0-0.7-0.5-1-1.5-0.7c-0.3,1.2-0.6,2.4-1,3.7c-0.1,0-0.3,0-0.4,0c-0.1-1.4-0.2-2.7-0.3-4.1
		c-0.7-0.6-1.5-0.5-2.4,0c-0.3,1-0.5,2.2-0.9,3.3c-0.2,0.7-0.6,1.3-1.4,1.4c-0.1-1.6,1.1-3.1,0.4-5c-1-0.8-2.3-0.7-3.5-0.8
		c-0.4,2.1-0.8,4.1-1.2,6.2c1.1,0.5,2.4,0.4,3.6,0.1c0.6,1,1.7,0.7,2.6,0.7c2,0,4,0,6,0c1,1.8,3,1.1,4.6,1.7
		c-1.7,0.8-3.2,0.7-4.5-0.1c-1.1-0.7-2.1-0.8-3.4-0.7c-1.8,0.1-3.5,0-5.3-0.1c-4.4-0.2-8.3-1.6-12.1-3.8c-0.3-0.2-0.6-0.6-1.1-1.2
		C608.5,286.9,609.7,287.1,610.9,287.2L610.9,287.2z M596.6,274.4c-0.3-0.1-0.6-0.2-1.2-0.4c-0.6,1.2-0.2,2.5-0.3,3.8
		c-0.1,1.1-0.3,2.3-0.4,3.6c0.7,0.2,1.3,0.4,2.2,0.7C597.1,279.3,596.4,276.8,596.6,274.4c0.2-0.1,0.5-0.1,0.8-0.1
		c0.5,1.6,0.6,1.7,2.7,1.5c0.2,0.2,0.4,0.3,0.2,0.2c0.2,0.1-0.1,0-0.3-0.1c-0.7-0.9-1.7-1.3-2.7-1.5
		C597.1,274.3,596.8,274.3,596.6,274.4z M591.7,270.1c-0.8-0.9-1.5-1.8-2.7-3.1c0.2,4.2-0.2,7.9-2.2,11.4c2,0.8,3.9,1.6,5.8,2.4
		c0.3-0.4,0.7-0.6,0.7-0.9c0.3-2.6,0.4-5.2-0.1-7.8C593,271.1,592.6,270.4,591.7,270.1L591.7,270.1z M674.9,280.7
		c0,0.1,0.1,0.3,0.2,0.5c0.2-0.1,0.4-0.2,0.4-0.4c0-0.3-0.1-0.6-0.1-1.2C675.2,280.1,675,280.4,674.9,280.7z"/>
	<path d="M574.5,298.5c2.7-2.2,2.7-5.1,1.9-8.2c1-1.2,2.1-2.4,3.3-3.7c-0.5-3.1,0.5-6.3,0-9.4c-0.2-1.4-0.1-2.8,0.6-4.2
		c0.5-1.2,1-2.4,0.5-3.9c-1.8-0.5-3.1-1.8-4.5-3c-2.7-2.2-4.1-5.1-5.3-8.2c-0.9-2.5-2.5-4.6-3.9-6.8c-0.9-1.4-1.7-2.8-2.3-4.4
		c-1.4-3.5-3.2-6.9-4.9-10.3c-1.6-3.3-2.8-6.8-3.9-10.3c-0.5-1.7-1.1-3.4-1.7-5c-1.6-4.5-3.1-9-4.7-13.4c-0.6-1.8-1-3.6-1-5.6
		c-0.1-2.9-0.4-5.7-1.4-8.4c-0.1-0.3-0.1-0.7-0.1-1.2c1.1,0,2.2,0.1,3.2,0c2.9-0.2,5.5-1,8.1-2.5c1.8-1.1,3.9-1.8,5.9-2.5
		c5.7-1.9,10.7-5.1,14.9-9.5c1.4-1.4,2.6-3.1,3.6-4.8c0.9-1.5,1.8-2.8,3.1-3.8c0.7-0.6,1.5-1.2,2.1-1.9c1.7-1.9,3.9-3,6.6-3.3
		c1.4,2.4,3.6,4.2,5.9,5.8c0.6,0.4,1.3,0.6,1.9,0.8l-0.1,0.1c0-0.2,0.1-0.5-0.1-0.7c-2-3.2-4.1-6.4-6.2-9.6
		c-0.3-0.5-0.8-0.8-1.1-1.1c-2.4,0.1-4,1.5-5.6,2.5c-1.8,1.1-3.5,2-5.7,1.4c-0.8-0.2-1.6,0.3-1.8,1.3c1.2,1.3,2.4-1,3.7,0.1
		c-0.4,0.5-0.8,1.1-1.2,1.6c-1.3,1.6-2.7,3-3.9,4.6c-2.7,3.8-6.2,6.9-10,9.5c-4.7,3.2-9.5,6.3-14.7,8.7c-1.4,0.7-2.8,1.3-4.3,1.6
		c-1.6,0.3-3.3,0.6-4.9,0.9c-0.7,0.1-1.3,0.4-1.9,0.7c0,0.5-0.1,0.9,0,1.2c0.5,1.7,1,3.4,0.1,5.2c-0.3,0.5,0,1.4,0.1,2.1
		c0.6,4.4,1.9,8.6,3.6,12.6c1.6,3.9,3.5,7.7,4.9,11.8c1.6,4.9,3.9,9.7,6.2,14.4c1.9,3.9,2.9,8,4.5,11.9c-1.1,0.6-1.8-1.3-2.9-0.4
		c1.2,2.1,1.2,2.1,2.9,2.7c0.5-0.1,0.4-1.2,1.3-0.9c0.5,0.7,0.9,1.8,1.6,2.2c1.5,0.8,2,2.2,2.6,3.7c1,2.6,2.2,5,4.3,6.9
		c1.3,1.2,2.5,2.5,4,3.9c0.7,1.5,0.4,3.2,0.2,5c-0.4,2.4-0.5,4.7,0.2,7.1c0.1,0.4,0.1,0.9,0,1.3c-0.2,1.7-1.1,2.8-2.6,3.5
		c-1.2-3.3-1.2-3.3-0.7-6.2c0.3-1.8,0.6-3.5,0.8-5.3c0.1-1.3,0-2.5-0.9-3.6c-0.3,0.2-0.5,0.2-0.5,0.3c0.1,1.5-0.1,3-0.8,4.4
		c-0.3,0.6-0.4,1.4-0.4,2.1c0.3,3.7,0.3,7.4,1.6,10.9c1.1,2.9,0.7,5.5-0.9,8.1C574,297.8,574.3,298.2,574.5,298.5L574.5,298.5z"/>
	<path d="M215,354.2c-0.6-3.6-1.1-7.3-1.7-10.9c-0.6-4.3-0.6-8.5,0-12.8c0.6-4,1-8,1.4-12c0.2-1.8,0-3.6-0.1-5.3
		c-0.9,6.7-1.8,13.4-2.7,20.6c-0.4-1.1-0.8-1.9-0.9-2.6c-0.3-2.2-0.6-4.5-0.8-6.7c-0.4-4.3-0.8-8.5-1.2-12.8
		c-0.2-2.3-0.3-4.5,0.1-6.7c0.9-5,1.4-10.1,1.7-15.2c0.2-3.7,0-7.4-1.5-10.8c-0.1-0.3-0.2-0.7-0.3-1.3c1.8-3,4.2-5.8,5.7-9.1
		c-1-1.1-1.5-1.3-2-0.7c-0.3,0.3-0.7,0.7-0.9,1.1c-1.4,2.2-2.7,4.5-4.1,6.7c-0.8,1.3-1.1,2.6-0.5,4c1.3,2.8,1.6,5.7,1.5,8.7
		c-0.2,4.9-0.5,9.7-0.7,14.6c0,0.7-0.1,1.6-0.6,2c-1.4,1.3-1.5,2.9-1.6,4.6c0,2.8-0.1,5.7,0.1,8.6c0.3,4.5,0.6,9,1.2,13.5
		c1.1,7.3,2.5,14.5,3.8,21.7c0.3,1.6,0.7,3.3,1,4.9c-1.1,0.8-1.4,1.9-1,3.2c0.4,1.3,0.6,2.5,1.1,3.8c2.6,7.1,3.5,14.5,4.3,22
		c0.3,2.4-0.1,4.7-0.6,7.1c-0.1,0.5-0.6,1.1,0.4,1.6c0.6-1.4,0.7-2.9,1.4-4.3c0.3,0.6,0.7,1.2,1,1.7c0.9,0.2,1.3-0.2,1.4-0.9
		c0.1-0.5,0.1-0.9,0.1-1.4c-0.2-1.8-0.3-3.6-0.8-5.3c-1.4-4.6-1.5-9.4-2.7-14c-0.3-1-0.4-2.1-0.8-3.1c-1.9-4.5-1.8-9.3-1.8-14.1
		C214.2,354.2,214.6,354.1,215,354.2L215,354.2z"/>
	<path d="M704.3,228.7c0.1-0.6-0.2-1.1-0.7-1.5c-2.2-1.6-4.3-3.2-6.5-4.9c-1-0.7-1.7-1.7-1.4-3c0.2-0.9-0.1-1.6-0.4-2.4
		c-0.5-1.2-0.8-2.5-1.2-3.7c-0.7-1.8-0.5-3.7-0.2-5.6c0.4-1.8,1.3-3.6,1-5.5l0.1,0.1c-0.7,0.6-1.4,1.3-2.1,1.9
		c-0.8-0.2-0.7-0.9-0.7-1.4c-0.2-2.6-0.6-5.2-1.5-7.8c0.8-0.9,1.6-2,3.1-1.6c0.8,0.2,1.4-0.2,1.8-0.8c4.9-5.9,8.7-12.5,9.9-20.2
		c0.2-1.3,0.3-2.6,0.2-3.9c0-4-0.1-8.1-0.2-12.1c0-1.2,0.4-2,1.4-2.6c-0.4-1.7-1.4-2.9-2.1-4.3c-0.8,1.9-0.8,1.9-0.7,3.5
		c0.1,1.5,0.4,3,0.1,4.8c-1.6-0.8-1.3-3.1-3-3.3c-0.1,2.9,0.4,3.7,3.6,6.6c-0.4,0.7-1,1.5-1.3,2.3c-0.2,0.8,0,1.7-0.2,2.5
		c-0.5,2.2-1,4.4-1.8,6.5c-1.8,4.9-3.8,9.7-5.8,14.6c-0.3,0.7-0.8,1.4-1.4,1.9c-1.9,1.6-3.9,3.1-5.9,4.6c-0.8,0.6-1.7,1.3-2.6,1.9
		c0.2,1.1,0.5,2.1,0.5,3.1c0,0.9-0.2,1.9-0.3,2.8c-0.3,3.7-0.7,7.3-1,11c-0.3,4-0.9,8-2.8,11.7c-0.6,1.2-0.8,2.7-1.2,4.1
		c-1.7,6.2-2.9,12.5-3.8,18.8c-0.1,1,0,2,0,3.5c1.7-3.7,2.4-7.2,3.2-10.7c1-4,1.8-8.1,2.7-12.2c0.9-3.9,1.8-7.9,2.6-11.8
		c0.6-2.9,0.8-5.9,1.2-8.8c0.2-1.6,0.5-3.3,0.7-4.9c0.1-0.5,0.3-0.9,0.5-1.3c0.1-0.3,0.4-0.5,0.8-1c0.4,1.5,0.8,2.9,1.2,4.3
		c-1.2,0.9-1.3,2-0.9,3.2c0.2,0.6,0.5,1.1,0.7,1.6c0.7,1.4,1.1,2.8,1.5,4.3c0.6,2.6,1.4,5.3,2.5,7.8c1.4,3.3,4,5.6,7.1,7.3
		C702.1,228.7,703.3,228.5,704.3,228.7L704.3,228.7z"/>
	<path d="M641.5,524.7c0.4,0,0.7,0,1.3,0c0.2-0.6,0.7-1.3,0.7-2.1c0.1-1.7,0.6-3.2,1-4.8c0.6-2.2,0.8-4.4,1.2-6.6
		c1.1-6.9,2.3-13.8,3.4-20.7c0.1-0.4,0.2-0.7,0.2-1.1c-0.4-3.2,0.4-6.3,0.8-9.5c0.5-4.1-0.3-8.1-1.4-11.9c-0.6-2-0.8-3.9-0.7-5.9
		c0-0.7,0.1-1.4,0.2-2.1c0.3-3,1.1-5.7,3-8.2c2.3-3.1,4.2-6.6,6.2-9.9c0.6-1.1,1-2.4,1.4-3.6c0.1-0.3-0.3-0.8-0.6-1.1
		c-0.1-0.1-0.7,0.1-0.9,0.4c-0.3,0.3-0.5,0.8-0.7,1.2c-1.6,3.1-3.5,5.9-5.6,8.7c-1.3,1.7-2.4,3.5-3.4,5.4c-1.9,3.6-1.9,7.5-1.6,11.4
		c0.1,1.8,0.4,3.5,0.5,5.3c0.1,3.5,1.3,6.7,2.1,9.8c-0.4,1.8-0.7,3.4-1,5.1c-0.4,2-0.6,4-1,5.9c-0.8,3.2-1.3,6.5-1.5,9.8
		c-0.2,3.4-0.9,6.8-1.4,10.2c-0.5,3.4-1.2,6.8-1.7,10.2C641.5,521.9,641.6,523.4,641.5,524.7L641.5,524.7z"/>
	<path d="M678.6,153.1c-1.1,0.5-2.2,0.9-3.2,1.5c-5,2.7-9.8,2.3-14.5-0.7c-3.6-2.2-6.7-5-9.3-8.2c-4.4-5.6-8.9-11.2-12.9-17
		c-2.6-3.8-4.6-8-6.8-12.1c-0.1-0.2-0.3-0.4-0.3-0.6c0-3.1-1.8-5.6-3.1-8.2c-1.3-2.6-2.5-5.1-2.8-8c-0.1-0.6-0.1-1.2-1-1.4
		c-0.1,0.3-0.4,0.6-0.4,0.8c0.1,1.1,0.2,2.1,0.5,3.1c1.9,6.9,4.3,13.5,7.5,19.9c2.7,5.2,5.8,10.1,9.4,14.6c2.7,3.4,5.4,7,8.1,10.4
		c2.9,3.5,6.2,6.6,10.1,8.9c1.5,0.9,3.2,1.5,4.9,2.1c4.5,1.4,8.4,0,11.8-3C677.5,154.5,678,153.7,678.6,153.1L678.6,153.1z"/>
	<path d="M587.7,211.1c0,0.5,0.1,1,0.2,1.5c0.6,3.4,1.2,6.8,1.8,10.2c0.6,3.6,0.6,7.3,0.1,11c-0.6,4.3-0.6,8.8-0.8,13.1
		c0,0.5-0.1,1,0,1.4c0.9,4,0.4,8,0.7,12c0.1,1.7,0.6,2.7,1.3,2.5c1.3-0.5,1.1-1.7,1.1-2.7c-0.1-1.7-0.5-3.3-0.5-5
		c0-6.5-0.3-13.1,0.1-19.6c0.2-3.2-0.2-6.4-0.4-9.6c-0.1-1.1-0.4-2.1,0.2-3.1c0.2-0.4,0.2-0.9,0.1-1.4c-0.8-3.3-1.7-6.7-2.6-10
		C588.8,211,588.5,210.7,587.7,211.1z"/>
	<path d="M590,185.3c0.3-0.3,0.6-0.7,1.2-1.4c-3.2-0.3-5.9,1.2-8.6,0.4c-1.5-1.1-0.7-3.2-1.8-4.6c-0.7,1.8-0.8,1.8-0.5,4.7
		c1,8.5,3.1,16.8,7.2,24.4c0.1,0.2,0.6,0.3,1.1,0.6c0.1-2.8-1-5.2-1.5-7.7c-0.5-2.6-1.3-5-2-7.6c-0.7-2.5-1.3-5-2-7.8
		c2.5-0.4,4.8-0.8,7.1-1.2L590,185.3z"/>
	<path d="M254.1,351.3c0.6-0.1,1.2-0.2,1.7-0.4c4.7-1.8,9.6-2.7,14.5-3.4c0.8-0.1,1.6,0,2.4,0c0,0.7,0,1.3,0,2c0.4,0,0.8,0.1,1-0.1
		c1.5-1.3,3.3-1.9,5.2-2c4.6-0.4,8.2-2.8,11.5-5.8c0.2-0.2,0.4-1,0.2-1.2c-0.2-0.3-0.9-0.5-1.2-0.4c-0.8,0.3-1.5,0.7-2.1,1.2
		c-3.3,2.9-7,4.2-11.4,4.4c-1.5,0.1-3.1,0.1-4.6,0.2c-1.7,0.1-3.3,0.3-4.9,0.7c-2.2,0.4-4.4,1-6.6,1.6
		C257.8,348.7,255.7,349.4,254.1,351.3L254.1,351.3z"/>
	<path d="M655.9,50.2c1.9,0.4,2.9-1.2,4.7-1.6c1.6,0.5,3.5,1.1,5.6,1.2c0.5,0,1,0.5,1.8,0.9c-3,0.5-5.6,0.9-8.2,1.3
		c-0.8,0.1-0.9,0.3-1.6,1.8c3.4,0,6.7,0,10.1,0c0.5-0.7,1-1.5,1.6-2.3c0.9-0.1,1.8-0.2,2.6-0.3c0.1-0.4,0.3-0.6,0.2-0.8
		c-0.4-1.8-1.5-2.8-3.4-3.1c-1.5-0.2-3-0.8-4.5-0.2c-0.2,0.1-0.5,0.3-0.7,0.2c-2.9-1.4-4.9,0.5-7.2,1.7c-0.2,0.1-0.4,0.2-0.6,0.4
		C656.2,49.5,656.1,49.7,655.9,50.2z"/>
	<path d="M282.4,52.2c3.4,0.4,6.8,0.4,10.3,0.1c0.4-0.7,0.9-1.5,1.4-2.2c1-0.1,1.9-0.3,2.8-0.4c0-2.1-0.9-3.3-2.8-3.6
		c-1.7-0.3-3.4-1.1-5.2-0.2c-0.2,0.1-0.5,0.1-0.7,0c-3.4-1.3-5.5,1.1-8.3,2.7c2.3,0.7,3.4-1.1,5.1-1.4c1.1,0.3,2.3,0.7,3.6,0.9
		c1.3,0.2,2.6-0.1,3.6,1.2c-1.4,0.2-2.9,0.1-4.2,0.6c-1.4,0.5-2.8,0.4-4.2,0.7C283.1,50.7,282.5,51.1,282.4,52.2z"/>
	<path d="M641.5,325.1c0.5,0.3,0.6,0.5,0.8,0.5c1.9,0.8,2.1,1,1.7,2.8c-0.5,2.4-1.1,4.8-1.8,7.2c-0.5,1.7-1.1,3.4-1.8,5
		c-0.2,0.4-0.5,0.7-1,1.4c-0.5-4.1-0.1-7.7,0.4-11.8c-1.6,2.6-1.7,5.1-1.9,7.5c-0.2,2.4-0.3,4.8,1.1,6.6c-0.2,2-1.2,3.4-1,5.7
		c0.5-1,0.9-1.5,1.1-2.1c1-3,1.9-6.1,3-9.1c1.1-3.1,1.8-6.4,2.5-9.6c0.5-2.2,0.3-4-2.3-4.9c-0.1-3.9,0.6-7.6,0.8-11.4
		c0.2-3.6,0.7-7.3,0.6-11c-0.3,0.7-0.7,1.4-0.8,2.2c-0.6,5.4-1.1,10.9-1.5,16.3C641.4,321.9,641.5,323.4,641.5,325.1z"/>
	<path d="M715,210.8c0.4,0.5,0.9,0.8,1.5,0.6c0.8-0.3,1.6-0.4,2-1.3c0.1-0.4,0.3-0.9,0.6-1.2c0.2-0.3,0.4-0.5,0.7-0.8
		c-0.4-0.2-0.7-0.6-1-0.5c-1.3,0.3-2.5,0.7-3.7,1.1c-1.3,0.4-2.4,1.1-3,2.3c-0.7,1.2-1.8,1.8-3,2.3c-1.8,0.9-3.2,0.7-4.4-1.1
		c-0.1-1.5,0.8-3,0.3-4.7c-0.3,0.1-0.6,0.1-0.7,0.3c-0.8,0.9,0.1,2.2-1.1,3.1c-0.9,0.7,0.1,2.1,0.4,3.6c-0.7-0.2-1-0.2-1.2-0.4
		c-0.9-1.1-0.9-2.4-0.9-3.7c0.1-0.9,0.6-1.8-0.3-2.8c-1.2,1.4-1.2,3-1.1,4.7c0.1,1.6,1.2,2.8,2.1,4.1c0,1-0.1,2.1,0,3.1
		c0.1,1.2,0.7,2.2,1.8,2.9c0.7,0.4,1.1,0.2,1.8-0.8l0.1,0.1c-1.4-0.7-2-2-2-3.4c0-1.1-0.2-2.3,0.5-3.3c1.3,0.1,2.7,0.4,3.8,0.1
		c1.8-0.6,3.4-1.6,5-2.5c0.3-0.2,0.4-0.9,0.7-1.1C714.1,211,714.6,211,715,210.8c0.2-0.8,0.9-0.5,1.5-0.6c0.1-0.2,0.2-0.4,0.4-0.5
		c0.1,0,0.3,0.1,0.4,0.2c-0.1,0-0.2,0.1-0.3,0.1c-0.2,0-0.4,0-0.6,0.1C716.2,210.8,715.6,210.9,715,210.8z"/>
	<path d="M655.9,407.8c-1.5,0-2,0.3-1.8,1.3c0.1,0.8,0.3,1.6,0.5,2.4c0.5,2,0.6,3.9,0.4,6c-0.3,3.5-0.2,7.1,0.5,10.6
		c0.4,2.1,1.1,4.1,2.5,5.8c0.7,0.9,1.2,2,1.9,3.1c0.2-0.3,0.6-0.6,0.5-0.7c-1.3-4.1-1.6-8.3-2.3-12.5c-0.3-1.5-0.5-3-0.7-4.6
		c-0.3-2.3-0.6-4.7-0.8-7c-0.1-1.5-0.3-3-0.8-4.5L655.9,407.8z"/>
	<path d="M573.4,318.7c-0.2,0.5-0.5,0.8-0.5,1c-0.1,1.6,0.3,3.1,1,4.5c2.6,5.7,5.2,11.4,7.9,17.1c2.1,4.4,4.3,8.7,6.5,13
		c0.3,0.7,0.4,1.6,1.5,1.7c0.1-0.1,0.2-0.2,0.2-0.3C585.2,343.1,578.5,331.4,573.4,318.7z"/>
	<path d="M626,268.9c-0.9-1.7-1.4-2.8-2-4c0.8-2.8,2.1-5.3,3.5-7.8c1.1-2,2.1-4,3-6c0.3-0.7,0.4-1.6,0.5-2.4c0-0.2-0.2-0.4-0.2-0.6
		c-0.6-0.2-0.9,0.2-1,0.6c-0.7,3.1-2.3,5.7-4,8.3c-1,1.6-1.8,3.3-2.8,5.1c-1.5-1.3-2.2-2.9-3-4.5c-0.7-1.4-1.2-2.9-2.9-3.3
		c0.4,2.2,0.8,4,1.7,4.9c1.7,1.6,2.1,3.9,3.1,5.9c0.4,0.9,0.6,1.8,1.1,2.6c0.3,0.6,0.9,1.1,1.5,1.5C624.6,269.2,625.2,269,626,268.9
		z"/>
	<path d="M670,370c0.3-1.1-0.6-1.8-1.1-2.5c-2.8-3.4-5.9-6.5-9.4-9.1c-3.2-2.4-6.6-4.6-9.9-6.9c-0.5-0.3-1.1-0.4-1.9-0.7
		c-0.1,0.7-0.3,1.2-0.1,1.4c0.6,0.7,1.3,1.4,2,1.9c1.6,1.2,3.3,2.2,5,3.4c5.1,3.4,9.8,7.1,14.1,11.4
		C669.1,369.3,669.6,369.6,670,370L670,370z"/>
	<path d="M288.1,403.7c0.6,1.2,0.8,1.7,1.1,2.2c0.6,0.8,0.6,1.7,0.6,2.7c0.1,6.2,3.2,10.7,8.1,14.1c0.4,0.3,0.9,0.5,1.3,0.5
		c0.4,0,1-0.2,1.2-0.5c0.2-0.3,0.1-0.9-0.1-1.3c-0.2-0.4-0.6-0.7-1-1c-3-2.3-5-5.3-6.6-8.7c-0.6-1.4-1.3-2.8-1.9-4.2
		c-0.2-0.6-0.1-1.4-0.3-2c-0.2-0.7-0.4-1.3-0.8-1.9C289.7,403.6,289,403.7,288.1,403.7z"/>
	<path d="M627.3,316.3c0.2-0.6,0.3-0.7,0.3-0.8c-1.7-4.3-3.5-8.5-5.2-12.8c-0.9-2.3-1.6-4.7-2.5-7c-0.2-0.6-0.4-1.1-0.7-1.6
		c-0.2-0.2-0.6-0.4-0.9-0.4c-0.3,0-0.7,0.4-0.8,0.6c-0.1,0.8-0.3,1.7-0.1,2.4c0.7,2.3,1.3,4.6,2.4,6.7c1.6,3.2,3.4,6.2,5.2,9.3
		C625.7,313.7,626.4,314.8,627.3,316.3z"/>
	<path d="M680.2,124.9c-3.8,0-7.7,0-11.5,0c-0.8,0-1.6,0.2-2.2,0.9c-1,1.1-2.3,1.1-3.5,0.5c-1.5-0.8-3-1.2-4.8-1
		c-1.1,0.1-2.3-0.4-3.6-0.6c0.3,0.7,0.9,1.1,1.4,1.1c1.4,0,2.4,0.4,3.5,1.3c2.2,1.8,4.6,2.5,7.1,0.2
		C671.4,128.6,675.7,126.6,680.2,124.9z"/>
	<path d="M676.9,251.7c-0.1,0.3-0.3,0.6-0.4,0.9c-0.5,3.3-0.9,6.5-1.4,9.8c-0.2,1.2-0.5,2.3-0.8,3.4c-0.7,2.7-1.5,5.5-2.2,8.2
		c-0.1,0.2-0.1,0.5,0,0.7c0.2,0.4,0.4,0.9,0.7,1.1c0.6,0.3,1.2-0.1,1.4-0.7c0.3-0.9,0.8-1.8,0.8-2.7c0-1.8,0.6-3.5,1.1-5.2
		c1.4-4.6,2-9.2,1.8-14C677.8,252.7,677.9,251.9,676.9,251.7z"/>
	<path d="M662.3,181.6c-1.3,0.4-1.8,1.2-1.8,2.2c-0.1,2.2-1.9,3.1-3.2,4.4c-3.4,0.4-6.5,2.1-10,1.9c-1.7-0.1-3.2,0.6-4.8,1.9
		c0.8,0.2,1.1,0.3,1.5,0.4c3.7,0.4,7.3-0.2,10.9-1.1c1-0.2,2-0.8,2.8-1.5c1.5-1.3,2.8-2.8,4.2-4.3
		C662.8,184.4,662.9,183.2,662.3,181.6z"/>
	<path d="M641,68.6c-1.2,1.6-1.4,2.8-1.2,4.1c0.2,1.4,0.7,2.8,1.1,4.1c0.4,1.1,1.2,2,1.1,3.3c0,0.4,0.5,1.1,0.9,1.4
		c4,2.8,8,5.5,12.1,8.2c0.1,0.1,0.2,0,0.4,0c0.8-0.4,0.6-1,0.1-1.3c-1.8-1.4-3.5-2.8-5.4-4.1c-1.9-1.3-3.8-2.4-5.7-3.5
		c-0.7-2-1.4-3.8-1.9-5.8C641.8,73.1,641.5,71.2,641,68.6z"/>
	<path d="M280.3,87.8c-1.4-2.1-3.6-3.3-5.6-4.7c-2-1.3-4-2.5-6.1-3.8c-1.1-3.8-2.2-7.6-3.3-11.5c-0.6-0.1-0.8,0.5-0.9,1
		c-0.6,2.4,0.1,4.7,1,6.9c0.5,1.2,0.9,2.4,1.5,4.1c0.3,0.3,1,0.9,1.8,1.4c3.2,2.2,6.4,4.4,9.6,6.6C278.9,88.2,279.5,88.6,280.3,87.8
		z"/>
	<path d="M210.9,305.7c1.6,1.3,2.5,1.8,3.7,2.2c5.8,1.8,11.5,3.8,17.2,5.8c2.1,0.8,4.1,1.8,6.2,2.8c0.5,0.2,1,0.8,1.8,0.3
		c-2.6-1.9-5.2-3.7-8.1-4.8c-4.4-1.7-8.9-3.2-13.4-4.8c-1.7-0.6-3.4-1.1-5.1-1.5C212.7,305.6,212.2,305.7,210.9,305.7z"/>
	<path d="M304.3,123.4c-0.8,0.1-1.6,0.2-2.4,0.2c-0.7,0-1.4-0.2-2.1-0.2c-2.4,0-4.7,0.1-7.1,0.2c-0.5,0-1.2,0.2-1.6,0.6
		c-1.4,1.5-2.8,1.3-4.5,0.4c-1.1-0.6-2.4-1.2-3.9-0.5c0.2,0.4,0.3,0.8,0.6,1.1c0.6,0.5,1.4,0.9,2.1,1.4c1.4,0.9,2.9,1.1,4.3,0
		c0.9-0.7,1.9-0.6,3-0.5c1.9,0.1,3.8,0,5.6-0.3c2-0.4,4-1.2,6-1.8C304.3,123.8,304.3,123.6,304.3,123.4z"/>
	<path d="M251.2,295.7c0.4-0.5,0.9-0.9,0.9-1.2c0-1.9,0.1-3.8-0.2-5.6c-0.3-2.2-1-4.4-1.5-6.5c-0.1-0.5-0.3-0.9-0.5-1.3
		c-0.3-0.7-0.8-1.1-1.7-1c-0.7,0.1-1.2,0.9-1,2c0.8,3.6,1.3,7.2,2.8,10.6C250.5,293.4,250.8,294.4,251.2,295.7z"/>
	<path d="M707,192.4c0.7-0.5,1.5-1.1,2.1-1.7c0.2-0.1,0.1-0.6,0.1-0.8c-0.9-0.5-1.5,0-2.1,0.2c-1.3,0.3-2.4,0.6-3.8,0.1
		c-1.6-0.5-3.3-0.1-4.9,0.9c-0.3,1-0.6,2.1-1,3.2c-0.2,0.6-0.5,1.3-1,1.7c-0.8,0.6-1.1,1.2-0.9,2.1c0.2,1.2,0.2,2.6,1.7,3.2
		c1.3-1.1,0.2-2.2,0.2-2.9c1-2.2,1.9-4.1,2.9-6.1c2.2-0.5,4.6,0.1,6.9-0.1L707,192.4z"/>
	<path d="M615.8,385.6c0.2,0,0.5,0,0.7-0.1c5-3,9.7-6.3,13.2-11.1c1.9-2.7,3.7-5.4,5.5-8.2c0,0-0.1,0.1-0.1,0.1
		c0-0.9,0.5-1.8-0.3-2.6c-1,1.8-1.8,3.6-2.9,5.3c-1,1.6-2.2,3.1-3.3,4.6c-1.6,2.2-3.5,4.1-5.7,5.8c-1.6,1.2-3.2,2.5-4.7,3.8
		C617.4,383.9,616.7,384.8,615.8,385.6L615.8,385.6z"/>
	<path d="M705.7,221.5c0.8,0.2,1.6,0.5,2.4,0.5c3.7-0.1,7.2-1.2,10.6-2.5c0.7-0.3,1.4-0.8,2-1.1c-0.3-1.2-1-1.2-1.7-1
		c-1.8,0.5-3.6,1.1-5.4,1.6c-1.9,0.6-3.8,1.3-6,1.2c-0.7-1-1.4-2.1-2.1-3.2c-1,1.7,0.5,3.1,0.4,4.6
		C705.8,221.6,705.7,221.5,705.7,221.5z"/>
	<path d="M655.9,324.3c-1,0.1-1.2,1-1.7,1.7c-2.3,3.8-4.6,7.7-6.9,11.6c-0.9,1.5-1.8,3-2.6,4.5c0.6,0.9,1.1,0.7,1.5,0.2
		c0.5-0.5,0.9-1.1,1.2-1.7c2.6-4.5,5.1-9,7.7-13.6C655.5,326.1,656,325.3,655.9,324.3L655.9,324.3z"/>
	<path d="M288.6,253.1c-1,5.5-1.9,10.7-3.8,15.4c0.5,1,1.1,1,1.6,0.6c0.5-0.6,1.1-1.3,1.3-2.1c0.7-2.6,1.4-5.2,1.8-7.9
		c0.3-1.6,0-3.3-0.1-4.9C289.4,253.9,289,253.7,288.6,253.1z"/>
	<path d="M664,226.3c-2.9,3.1-4.1,6.8-5.3,10.5c-0.5,1.4-0.6,2.9-0.2,4.3c0.9,0.3,1.1-0.3,1.2-0.7c1-2.5,2-5.1,2.8-7.7
		c0.5-1.6,0.9-3.2,1.2-4.8C663.9,227.4,663.9,226.9,664,226.3z"/>
	<path d="M598.7,202.2c-3,3.4-4.3,7.5-5.3,11.8c0,0.2,0,0.5,0.1,0.7c0.3,0.4,0.6,0.7,1,0.9c0.2,0.1,0.7-0.1,0.9-0.3
		c0.3-0.3,0.7-0.7,0.8-1.1c1.2-3.9,2.1-7.9,2.4-12.1L598.7,202.2z"/>
	<path d="M302.7,288.6c2.7-0.5,4.8-2,6.8-3.6c2.9-2.3,5-5.3,7.5-7.7c-0.3-0.9-0.8-1.2-1.4-0.9c-0.7,0.4-1.3,1-1.9,1.5
		c-0.4,0.3-0.7,0.6-1,1c-2.5,3.5-5.7,6.3-9.2,8.7C303.1,287.8,303,288.3,302.7,288.6L302.7,288.6z"/>
	<path d="M258.4,449.9c2.8-2.4,4.9-5.2,6.5-8.4c0.5-0.9,0.9-1.9,1.2-2.9c0.3-0.8-0.1-1.1-1.3-1.5l0.1-0.1c-0.3,0.3-0.6,0.5-0.9,0
		l0.1,0.1c-0.2,0.5-0.5,0.9-0.7,1.4l-0.1-0.1c0.1,0.4,0.4,0.9,0.3,1.3c-0.4,1-0.9,1.9-1.5,2.8c-1.8,2.5-3.7,4.9-5.5,7.3
		c-0.2,0.2-0.2,0.6-0.3,0.9c0.6,0,1-0.1,1.4-0.1l-0.1,0.1c0.3-0.3,0.6-0.6,0.8-0.8L258.4,449.9z"/>
	<path d="M217.5,272.3c0,2,0.1,3.8,0,5.5c-0.1,1.7-0.4,3.3-0.6,4.9c-0.2-0.3-0.5-0.7-0.9-1.2c-0.6,1-0.6,2-0.3,2.8
		c0.9,2.5,0.4,4.9-0.3,7.3c-0.7,2.4-1.5,4.8-2.2,7.1c-0.1,0.4-0.2,0.9-0.3,1.4c0.7,0.1,0.8-0.5,0.9-0.7c1.2-3.6,2.6-7.2,3.4-10.9
		c1-4.9,1.4-9.9,1.3-14.9C218.5,273.3,218.6,272.8,217.5,272.3z"/>
	<path d="M285.8,350.6c5.2,4.2,9.8,7.8,14.4,11.5c0.1,0,0.2,0,0.4-0.1c0.5-0.7-0.1-1.1-0.5-1.4c-3.8-3.4-7.6-6.7-11.4-10.1
		c-0.3-0.2-0.6-0.5-0.9-0.5C287.3,350,286.9,350.3,285.8,350.6z"/>
	<path d="M586.7,295.6c0.7,0.1,1-0.5,1.3-1c1.6-3.1,2.6-6.3,3.3-9.7c0-0.2,0.1-0.5,0-0.7c-0.2-0.4-0.5-0.9-0.8-1
		c-0.3-0.1-1,0.1-1.2,0.3c-0.5,0.8-0.9,1.7-1.1,2.6c-0.3,1.3-0.5,2.6-0.6,3.9c-0.1,1.8-0.4,3.5-1.2,5.1
		C586.4,295.1,586.6,295.4,586.7,295.6z"/>
	<path d="M669.1,79.5c2.9-0.3,5.6-0.6,8.3-0.8c1.2-0.1,2.3-0.2,3.5-0.4c0.2,0,0.5-0.5,0.5-0.8c0-0.3-0.4-0.7-0.6-0.7
		c-0.8-0.1-1.6-0.1-2.4,0c-3.3,0.3-6.5,1-9.8,0.7c-0.3,0-0.7,0-1,0.2c-0.3,0.2-0.5,0.6-0.5,0.8c0,0.3,0.3,0.7,0.6,0.8
		C668.2,79.5,668.8,79.4,669.1,79.5z"/>
	<path d="M293.4,78.1c3.1-0.3,5.8-0.6,8.5-0.8c1.2-0.1,2.3-0.2,3.5-0.4c0.2,0,0.6-0.5,0.6-0.8c0-0.3-0.4-0.7-0.6-0.7
		c-0.8-0.1-1.6-0.1-2.5,0c-3.3,0.3-6.5,1-9.9,0.7c-0.4,0-0.9,0.2-1.3,0.4c-0.2,0.1-0.3,0.4-0.3,0.6c0,0.2,0.2,0.5,0.3,0.6
		C292.5,77.8,293.1,78,293.4,78.1z"/>
	<path d="M705.9,204.6c1.4,0.3,2.1-0.6,3-1.2c2-1.2,3.9-2.6,6.5-2.5c0.6,0,1.3-0.5,1.9-0.9c0.7-0.5,0.7-0.9,0.1-2.7
		c-3.6,1.7-7.4,2.9-10.6,5.3C706.1,203.1,705.5,203.5,705.9,204.6z"/>
	<path d="M295.4,82.6c0.7,0.3,1.1,0.7,1.5,0.7c2-0.1,4-0.2,6-0.4c0.3,0,0.8-0.6,0.9-0.9c0.1-0.4-0.2-1-0.5-1.2
		c-1.6-1.1-3.5-1.4-5.4-1C296.5,79.9,296.1,81.2,295.4,82.6z"/>
	<path d="M283.1,137.8c1.8,4,3.5,7.9,5.2,11.8c0.1,0.2,0.2,0.5,0.4,0.6c0.4,0.2,0.8,0.5,1.2,0.5c0.5,0,0.8-0.8,0.5-1.4
		c-1.7-4.1-3.9-8.1-6.8-11.5C283.6,137.7,283.4,137.8,283.1,137.8z"/>
	<path d="M659.1,139c-0.1,0.3-0.3,0.4-0.2,0.5c1.5,3.4,3,6.9,4.5,10.3c0.3,0.7,0.7,1.5,1.3,2.1c0.5,0.6,1,0.3,1.6-0.4
		C664.7,147,662.3,142.8,659.1,139z"/>
	<path d="M670.9,84c0.8,0.3,1.3,0.8,1.8,0.8c1.9,0,3.7-0.2,5.6-0.4c0.4,0,1-0.6,1-0.9c0-0.5-0.3-1.2-0.7-1.5c-1.5-1-3.3-1.2-5.1-0.9
		C672.2,81.3,671.8,82.5,670.9,84z"/>
	<path d="M224.9,275.2c-0.2,0.4-0.5,0.7-0.6,1.2c-0.3,1-0.4,2.1-0.6,3.1c-0.8,4.2-1.2,5.3-3.5,8.4c3.6-2.3,6-6.1,6-9.9
		c0-0.9-0.4-1.8-0.6-2.7C225.4,275.2,225.1,275.2,224.9,275.2z"/>
	<path d="M636.2,221.6c-1.3,0.2-1.5,1.1-1.6,1.9c-0.6,2.8-1.2,5.6-1.6,8.4c-0.3,2.5-0.4,4.9-0.6,7.4c0,0.6,0,1.2,0,2.5
		c1.3-2.7,1-5,1.4-7.1c0.4-2.2,1-4.4,1.2-6.6C635.2,225.9,636.3,223.9,636.2,221.6z"/>
	<path d="M682.6,438.3c0.6-2.5,1.9-4.9,0.5-7.7c-0.5-1-0.3-2.3-0.4-3.3c-1.1-0.4-1.7,0.3-1.6,0.9c0.2,2.1-0.7,4.1,0.2,6.2
		c0.4,0.8,0.2,1.8,0.3,2.8c0.1,0.4,0.2,0.8,0.3,1.2C682.1,438.3,682.4,438.3,682.6,438.3z"/>
	<path d="M253.8,561.3c-0.2-0.2-0.4-0.7-0.6-0.7c-2.2-0.7-4.4-0.5-6.5,0.6c-0.4,0.2-0.8,1-0.8,1.4c0.1,0.4,0.7,1.2,1.1,1.2
		c2.3,0.1,4.7,0,6.6-1.7C253.6,561.9,253.7,561.6,253.8,561.3z"/>
	<path d="M263.2,335.2c0.5,0.4,0.7,0.7,0.9,0.8c4.5,1.3,9.1,2.6,13.6,3.9c0.2,0,0.4-0.2,0.6-0.3c-0.1-0.2,0-0.5-0.2-0.6
		c-0.2-0.2-0.6-0.5-0.9-0.6C272.7,337.2,268.3,335.6,263.2,335.2z"/>
	<path d="M645.1,86.2c0.3,2.1,1.4,3.7,2.4,5.2c1,1.6,2.1,3.1,3.2,4.7c0.5,0.7,1.1,1.3,0.5,2.2c-0.1,0.1,0.1,0.5,0.2,0.6
		c0.3,0.3,0.7,0.5,1.4,1.1c-0.2-1.3-0.1-2.2-0.4-2.8c-2.1-3.6-4.3-7.1-6.6-10.6C645.8,86.5,645.4,86.4,645.1,86.2z"/>
	<path d="M653.1,344.6c5.1,1,10.3,2,16.3,3.1c-0.9-0.5-1.2-0.7-1.5-0.8c-3.8-1.1-7.5-2.1-11.3-3.1c-0.9-0.2-1.9-0.3-2.8-0.3
		C653.2,343.5,653,343.9,653.1,344.6z"/>
	<path d="M677,192c-1.4-1.5-2.8-2.3-4.3-2.5c-2-0.2-3.2-1.3-4.5-2.5c-0.2-0.1-0.4-0.2-0.6-0.3c-0.8,0.3-0.6,0.9-0.4,1.4
		c0.6,1.7,1.7,2.6,3.6,2.9C672.6,191.4,674.6,192.1,677,192z"/>
	<path d="M316.3,308.7c-0.7,0.2-1.4,0.3-2,0.6c-3.7,2.2-6.8,5-9.6,8.3c-0.4,0.4-0.8,0.9-0.3,1.5c0.1,0,0.2,0,0.3-0.1
		C308.6,315.6,312.4,312.1,316.3,308.7L316.3,308.7z"/>
	<path d="M640.1,122.3c2.8,1.7,5.7,1.7,8.7,1.4c0.4,0,0.9-0.3,1.3-0.5c0.1-0.1,0.2-0.4,0.2-0.6c0-0.2-0.2-0.5-0.4-0.5
		c-0.4-0.1-0.9-0.2-1.4-0.1c-2.1,0.4-4.2,0.4-6.4,0.1C641.4,121.9,640.7,122.2,640.1,122.3z"/>
	<path d="M216.6,326.2c0.9,0.3,1.7,0.8,2.6,1c3.8,1,7.5,2,11.3,2.9c0.1,0,0.2-0.1,0.2-0.2c-0.1-0.2-0.2-0.5-0.3-0.5
		c-4.2-1.3-8.4-2.5-12.6-3.7c-0.3-0.1-0.7,0-1,0.1C216.7,325.9,216.7,326,216.6,326.2z"/>
	<path d="M679.4,218.4c0.2-0.3,0.5-0.6,0.5-0.9c0-1.1,0.1-2.1-0.1-3.2c-0.4-1.9-2.4-4.9-4.3-7c-0.4,1.1,0.3,1.8,0.5,2.6
		c0.3,0.9,0.8,1.7,1.3,2.5C678.3,214.3,678.9,216.2,679.4,218.4z"/>
	<path d="M264.4,121.3c2.7,1.2,5.4,1.2,8.1,1c0.8-0.1,1.7-0.1,2.3-1.1c-0.3-0.2-0.7-0.7-1-0.7c-2.8,0.3-5.7,0.2-8.5,0.1
		C265,120.7,264.7,121,264.4,121.3z"/>
	<path d="M256,566.4c-0.1-0.2-0.2-0.5-0.4-0.6c-1.9-0.7-3.7-0.6-5.5,0.3c-0.6,0.3-1,0.8-0.7,1.4c0.2,0.3,0.7,0.7,1.1,0.8
		C252.4,568.4,254,567.8,256,566.4z"/>
	<path d="M680.6,68.5c-0.3-0.2-0.7-0.7-1.1-0.7c-1.5,0.1-3,0.3-4.5,0.7c-0.4,0.1-0.8,0.6-1,0.9c-0.1,0.2-0.1,0.7,0,1
		c0.2,0.2,0.7,0.5,0.8,0.4c1.2-1,2.6-0.8,4-0.7C679.8,70.1,680.5,69.7,680.6,68.5z"/>
	<path d="M243.5,190c-1.4-2.4-2.8-4.1-4.5-5.4c-0.3-0.2-1-0.1-1.2,0.1c-0.3,0.2-0.5,0.8-0.4,1.2c0.3,1.2,1.1,2,2.2,2.7
		c0.3,0.2,0.6,0.3,1,0.4C241.3,189.2,242.1,189.5,243.5,190z"/>
	<path d="M288.2,305.1c-0.4,2.2-0.7,4.2-1.1,6.3c-0.5,3.3-0.1,4.8,2.2,7.4c0.6-0.7,0-1.3-0.2-1.9c-0.8-1.9-1.1-3.8-0.9-5.9
		C288.3,309.1,288.2,307.1,288.2,305.1z"/>
	<path d="M295.6,182.4c-0.2,0.7-0.5,1.3-0.6,2c-0.5,2.1-0.9,4.1-1.3,6.1c0.8,0.9,1.4,0.8,1.8,0c0.4-0.8,0.7-1.8,0.7-2.7
		c0.1-1.8,0-3.5,0-5.3C296,182.4,295.8,182.4,295.6,182.4z"/>
	<path d="M631.9,304c-0.2-3.4-0.4-6.8-0.5-10.1c-0.8-0.4-1.1,0-1.3,0.6c-0.2,0.7-0.4,1.4-0.3,2.1c0.5,2.4,1.1,4.8,1.6,7.2
		C631.4,303.8,631.7,303.9,631.9,304z"/>
	<path d="M657.1,263.5c0.3-0.2,0.8-0.3,1-0.6c1.5-2.1,1.6-4.6,1.7-7.1c0-0.2-0.5-0.4-0.8-0.7c-0.8,2.8-1.5,5.4-2.2,8
		C656.7,263.1,656.9,263.2,657.1,263.5z"/>
	<path d="M276.3,95.2c-1.6-3.5-3.9-6.7-5.9-10c-0.1-0.2-0.6-0.3-0.8-0.4c-0.1,0.3-0.3,0.6-0.2,0.7c1.8,2.9,3.6,5.8,5.5,8.6
		C275.1,94.7,275.5,95.4,276.3,95.2L276.3,95.2z"/>
	<path d="M299,69.5c1.3-0.7,2.6-1.3,4.2-0.9c0.3,0.1,0.7-0.1,1-0.3c0.3-0.3,0.7-0.7,0.7-1.1c0-0.3-0.6-0.9-0.8-0.9
		c-1.6,0.1-3.2,0.3-4.8,0.7C298.3,67.3,298.3,68.2,299,69.5z"/>
	<path d="M673.7,563.3c0.2,0.2,0.5,0.7,0.9,0.8c1.6,0.4,3.4-0.8,3.7-2.4c0.1-0.3-0.4-0.9-0.7-1c-1.2-0.3-3.1,0.9-3.7,2.1
		C673.8,562.8,673.8,562.9,673.7,563.3z"/>
	<path d="M662,290.9c-0.6,0.3-1,0.4-1.1,0.6c-0.2,0.4-0.3,0.9-0.3,1.4c0.2,2.7,0.9,5.3,1.8,8.4c0.8-1.5,0.2-2.5,0-3.4
		c-0.2-1.2-0.4-2.3-0.5-3.5C662,293.3,662,292.2,662,290.9z"/>
	<path d="M679.8,229.8c0.2-1.2,0.4-1.9,0.4-2.6c-0.1-2.3,0.3-4.7-0.3-7.4c-0.9,1.1-0.7,2.2-0.9,3.1c-0.3,1.1-0.4,2.3-0.4,3.5
		C678.6,227.4,678.4,228.5,679.8,229.8z"/>
	<path d="M685.4,295.5c-1.6,1.4-1.7,2.8-2,4.2c-0.2,1.4-0.5,2.7-0.9,4.5c1.4-2.5,2.7-4.6,3.2-6.9
		C685.8,296.9,685.6,296.5,685.4,295.5z"/>
	<path d="M300.9,414.1c-0.1,0.2-0.2,0.5-0.2,0.6c0.4,1.9,1.2,3.7,0.9,5.8c-0.1,0.4,0.5,1,0.8,1.6c0.5-1.5,0.4-4.5-0.1-6
		C302.1,415.3,301.8,414.9,300.9,414.1z"/>
	<path d="M659.6,250.2c0.5-2.4,1.2-4.8,0.2-7.3c-0.4,0.2-0.9,0.3-0.9,0.5C658.4,245.7,658.6,248,659.6,250.2z"/>
	<path d="M237.7,382.1c-0.1-0.1-0.2-0.2-0.3-0.2c-3.4-0.4-6.7-0.8-10.1-1.2c-0.3,0-0.7,0.1-1.1,0.2
		C228.7,381.9,232.2,381.9,237.7,382.1L237.7,382.1z"/>
	<path d="M289.4,250.4c0.8-1.5,1.1-2.9,1-4.5c0-1.7,0.3-3.5,0.6-5.7c-0.5,0.8-0.9,1.1-1,1.6c-0.2,0.9-0.5,1.9-0.4,2.8
		c0.1,1.7,0.1,3.2-0.4,4.8C289.1,249.7,289.3,250,289.4,250.4z"/>
	<path d="M296.2,176.8c0.3-2.2,0.2-4.3-0.8-6.5c-1.1,2.1-1.3,3.5-0.6,5.6C295,176.5,295.3,176.9,296.2,176.8z"/>
	<path d="M667.4,461.6c-1.6,2.1,0.3,4-0.3,6.7C668.8,464.9,668.9,463.7,667.4,461.6z"/>
	<path d="M615.6,251.7c-0.1-2.7-0.7-3.5-3.3-4.9C613,249,613.7,250.1,615.6,251.7z"/>
	<path d="M302.7,306.4c-1,0.1-1.3,1-1.7,1.6c-1.1,1.6-2.1,3.3-3.4,5.5c0.9-0.3,1.2-0.3,1.3-0.5c1.2-1.8,2.4-3.7,3.6-5.6
		C302.6,307.2,302.6,306.8,302.7,306.4L302.7,306.4z"/>
	<path d="M636.2,216.8c1.4-2.1,1.6-2.9,1.4-5.4C635.5,214.1,635.3,214.9,636.2,216.8z"/>
	<path d="M248.2,264.2c-0.2-2.7-0.6-3.4-3-5.2c-0.5,0.5-0.4,1.1,0,1.6C246,261.6,246.9,262.7,248.2,264.2z"/>
	<path d="M245.6,189.5c1.6,1.8,1.6,1.8,4.3,2.5c0.6-0.8-0.1-1.3-0.6-1.6C248.4,189.6,247.4,188.7,245.6,189.5z"/>
	<path d="M287.1,329.4c-1.6,1.6-1.5,3.9-2.1,5.8c-0.3,0.9-0.5,2.1,0.4,3.3C285.9,335.3,286.4,332.3,287.1,329.4L287.1,329.4z"/>
	<path d="M638.2,190.5c-2.7-0.8-4.4,0.3-6.2,0.6c0.3,1.1,1.2,1.2,2,1C635.1,191.8,636.3,191.2,638.2,190.5z"/>
	<path d="M604.8,193.1c-1.5,1.5-3.2,2.4-2.3,4.8C604.1,196.8,604.1,196.8,604.8,193.1z"/>
	<path d="M607.5,211.9c-1.6-2.8-2.1-3.2-4.1-4C604.1,209.8,604.8,210.5,607.5,211.9z"/>
	<path d="M600.9,285.7c0,0.5-0.1,1,0.1,1.4c0.6,1.6,1.4,3.1,2.5,4.4C603.1,289.4,602.9,287.2,600.9,285.7L600.9,285.7z"/>
	<path d="M605.5,196.7c0.3,2,1.9,2.4,3,3.6c0.2-1.5-0.3-2.5-1.6-3.6C606.6,196.5,606,196.7,605.5,196.7z"/>
	<path d="M232.2,305.9c1.8,0.5,3.6,1.1,5.4,1.6C236.3,306,235.7,305.8,232.2,305.9z"/>
	<path d="M685.9,310.3c0,1,0,1.8-0.1,2.6c-0.1,0.8-0.3,1.6-0.5,2.5c1.5-1.2,2.2-2.9,1.6-4.4C686.8,310.6,686.3,310.5,685.9,310.3z"
		/>
	<path d="M601.6,277.9c-0.3,0.6-0.7,1.3-0.7,1.9c-0.1,1.3,0,2.5,0,3.8l-0.1-0.1C602.3,281.1,602.3,280.5,601.6,277.9L601.6,277.9z"
		/>
	<path d="M704.7,198.2c-1.5,1.4-1.3,2.3,0.6,3.9c-0.1-1.1-0.1-2-0.3-2.9C705,198.8,704.8,198.5,704.7,198.2z"/>
	<path d="M613.6,216.6c-0.8-0.7-1.6-1.5-2.4-2.1c-0.3-0.2-0.8,0-1.4,0c0.7,1.7,2.2,1.9,3.1,2.9C613.1,217.2,613.4,216.9,613.6,216.6
		z"/>
	<path d="M667.8,457c-0.3-2.7-0.3-2.7-1.8-3.9C665.8,454.7,666.5,455.7,667.8,457z"/>
	<path d="M610.9,287.2c0.4-1.1,0.8-2.2,1.2-3.2c0.1-0.3,0.1-0.3-0.8-1.3c-0.1,0.1-0.4,0.3-0.4,0.4
		C610.9,284.5,610.9,285.9,610.9,287.2L610.9,287.2z"/>
	<path d="M662.7,442.5c0.3-1.5,0.3-1.5-1.1-3.1c-0.2,0.1-0.5,0.3-0.5,0.4C661.2,441.1,661.3,441.1,662.7,442.5z"/>
	<path d="M696.9,340.1c-0.9,0.8-1.9,1.6-3,2.5C696.3,342.2,696.3,342.2,696.9,340.1z"/>
	<path d="M233.4,280.6c1-1.1,0.9-2.3,0.6-3.6c0-0.2-0.4-0.4-0.5-0.4c-0.2,0.2-0.6,0.4-0.6,0.6C233,278.4,233.3,279.6,233.4,280.6
		L233.4,280.6z"/>
	<path d="M257.4,193.6c-0.8-1.4-1.8-1.5-3.1-1C255.1,194,256.2,193.7,257.4,193.6z"/>
	<path d="M669.9,427.5c0.8-0.8,1.6-1.6,2.7-2.7c-0.7-0.1-1-0.2-1.1-0.1C670.5,425.2,670,426.1,669.9,427.5z"/>
	<path d="M653.6,289.9c0-1.5,0-2.3,0-3.4C652.3,287.9,652.3,287.9,653.6,289.9z"/>
	<path d="M276.4,95.2c-0.2,0.6-0.4,1.3-0.7,2c0.3,0.3,0.6,0.6,0.9,0.9C277.4,96.7,277.4,96.7,276.4,95.2L276.4,95.2z"/>
	<path d="M663.7,446.5c0.6,0.7,1.1,1.4,1.8,2.2C665.8,447.3,665.2,446.6,663.7,446.5z"/>
	<path d="M664.7,179.1c-1.2,1.1-1.2,1.1-0.6,2.3C665.2,180.6,665.2,180.6,664.7,179.1z"/>
	<path d="M628.9,351.9c0.8-1.4,1.3-2.4,1-4.1C629.2,349.2,628.8,350.2,628.9,351.9z"/>
	<path d="M674.8,423.7c0.3,0.1,0.6,0.3,0.8,0.3c0.3-0.1,0.6-0.4,0.7-0.7c0.1-0.2-0.1-0.6-0.1-0.9c-0.3,0.1-0.7,0.1-0.9,0.3
		C675.1,422.9,675,423.2,674.8,423.7z"/>
	<path d="M229.9,305.3c-0.9-0.1-1.8-0.1-2.7-0.2c0,0.1,0,0.2,0,0.3c0.9,0,1.8,0,2.7,0C229.8,305.4,229.9,305.3,229.9,305.3z"/>
	<path d="M573,302.1c1.1-1,1.5-2.2,1.4-3.6l0.1,0.1C573.6,299.6,573.1,300.8,573,302.1L573,302.1z"/>
	<path d="M226.5,391.9c0.9,1,2.2,0.4,3.3,0.4C228.7,392.2,227.5,392.1,226.5,391.9L226.5,391.9z"/>
	<path d="M611,199.2c-0.4,1.3-0.4,1.3,0.9,2.8C612.4,200.9,611.8,200.2,611,199.2z"/>
	<path d="M598.6,202.1c0.4,0,0.7,0.1,1.1,0.1c0.7-0.7,1.1-1.5,0.9-2.5c-1.4,0.3-1.1,1.8-1.8,2.5L598.6,202.1z"/>
	<path d="M226.4,392c-0.9-0.5-1.9-0.7-3.1-0.5C224.4,392.4,225.5,391.8,226.4,392L226.4,392z"/>
	<path d="M666,175c-0.3,0.3-0.8,0.4-0.8,0.6c0,0.4,0.2,0.8,0.3,1.2c0.3-0.3,0.7-0.5,0.9-0.9C666.5,175.8,666.2,175.4,666,175z"/>
	<path d="M605.2,173c0,1.4,0.7,2.1,2.1,2.1l-0.1,0.1c-0.4-1-1-1.8-2.1-2.1L605.2,173z"/>
	<path d="M665.2,480.1c0,0.8,0,1.5,0,2.5C666.2,480.7,666.2,480.7,665.2,480.1z"/>
	<path d="M666.7,475.2c0.3-0.1,0.4-0.1,0.4-0.2c0.1-0.4,0.3-0.8,0.3-1.2c0,0-0.4-0.2-0.6-0.2c-0.1,0.4-0.3,0.8-0.4,1.1
		C666.5,474.7,666.6,474.9,666.7,475.2z"/>
	<path d="M603.1,171.6c0.4,1.1,1.2,1.3,2.2,1.4l-0.1,0.1C604.5,172.4,604.1,171.5,603.1,171.6L603.1,171.6z"/>
	<path d="M645.1,377.1c0.5,0.4,0.9,0.9,1.4,1.3C646.4,377.4,645.9,377,645.1,377.1L645.1,377.1z"/>
	<path d="M680.9,151.8c-1.1-0.2-1.7,0.5-2.2,1.3l-0.1-0.1C679.6,153,680.2,152.4,680.9,151.8L680.9,151.8z"/>
	<path d="M680.4,193.5c0-0.1-0.1-0.2-0.1-0.3c-0.4-0.4-1.3-0.5-1.5-0.1c0,0.1-0.1,0.2,0,0.3c0.3,0.6,0.9,0.5,1.4,0.3
		C680.2,193.7,680.3,193.5,680.4,193.5z"/>
	<path d="M652.2,134.5c-0.4-0.4-0.8-0.8-1.4-1.4C651,134.4,651.6,134.5,652.2,134.5L652.2,134.5z"/>
	<path d="M275.6,132.3c0.2,0.8,0.7,1.4,1.9,1.3C277,132.7,276.4,132.4,275.6,132.3L275.6,132.3z"/>
	<path d="M664.4,213.1c0.1,0.5,0.2,1,0.3,1.5c0.1,0,0.2,0,0.3,0c0-0.5,0-1.1,0-1.6C664.8,213,664.6,213,664.4,213.1z"/>
	<path d="M215.6,357.1c0-1,0-2-0.6-2.9l0.1-0.1C215,355.1,214.8,356.2,215.6,357.1L215.6,357.1z"/>
	<path d="M298.5,279.4c-0.8,0.1-1.6-0.2-2.1,0.7l-0.1-0.1C297,279.9,297.9,280.1,298.5,279.4L298.5,279.4z"/>
	<path d="M279.9,123.8c0.4,1.2,1.1,0.6,1.8,0.2C281.1,123.9,280.5,123.9,279.9,123.8L279.9,123.8z"/>
	<path d="M294.2,280.8c0.7-0.3,1.4-0.5,2.1-0.8l0.1,0.1C295.6,280.2,294.7,279.8,294.2,280.8L294.2,280.8z"/>
	<path d="M655.1,136.7c0.3,0.3,0.6,0.5,1.1,0.9C656,136.7,655.5,136.8,655.1,136.7L655.1,136.7z"/>
	<path d="M700.1,150.1c0.1,0.4,0.1,0.9,0.2,1.3c0.1,0,0.1,0,0.2-0.1C700.3,151,700.2,150.6,700.1,150.1L700.1,150.1z"/>
	<path d="M600.9,283.6c-0.8,1.1-0.8,1.1,0,2.1l-0.1,0.1C600.8,285,600.8,284.3,600.9,283.6L600.9,283.6z"/>
	<path d="M287,329.3c0.4-0.4,0.7-0.8,0.2-1.6C287.2,328.4,287.1,328.9,287,329.3C287.1,329.4,287,329.3,287,329.3z"/>
	<path d="M278.5,372.7c0,0.2-0.1,0.4,0,0.6c0,0.1,0.2,0.2,0.4,0.3c0-0.1,0.2-0.2,0.1-0.3C278.8,373.2,278.6,373,278.5,372.7
		L278.5,372.7z"/>
	<polygon points="286.7,297.8 286.6,297.8 286.7,298 	"/>
	<polygon points="287.4,300.1 287.3,299.8 287.3,300.1 	"/>
	<path d="M299.2,407c0,0.2,0,0.4,0,0.7c0,0.1,0.1,0.2,0.1,0.3c0.1-0.2,0.3-0.4,0.2-0.5C299.5,407.3,299.3,407.2,299.2,407L299.2,407
		z"/>
	<path d="M655.8,324.3c0.2-0.2,0.3-0.4,0.1-0.2C656,323.8,655.9,324.1,655.8,324.3L655.8,324.3z"/>
	<path d="M327.7,311c-0.1,0-0.2-0.1-0.3-0.1c0,0.1-0.1,0.2-0.1,0.4c0.1,0,0.2,0,0.3-0.1C327.7,311.1,327.7,311,327.7,311z"/>
	<path d="M319.9,306.5c-0.5,0.1-1.1,0-1.4,0.7l-0.1-0.1C318.8,306.9,319.3,306.7,319.9,306.5L319.9,306.5z"/>
	<path d="M316.9,307.7c0.5-0.2,1-0.4,1.5-0.6l0.1,0.1C318,307.4,317.5,307.6,316.9,307.7L316.9,307.7z"/>
	<path d="M671.2,204.2c-0.1,0-0.1,0-0.2,0c0,0.3,0.1,0.5,0.1,0.8c0.1-0.1,0.2-0.2,0.2-0.2C671.3,204.6,671.3,204.4,671.2,204.2z"/>
	<path d="M641.5,190.9c-0.2,0.1-0.4,0.2-0.6,0.2C641,191,641.2,190.9,641.5,190.9L641.5,190.9z"/>
	<path d="M641.4,190.8c0.3,0,0.6-0.1,0.3,0C642,190.6,641.7,190.7,641.4,190.8L641.4,190.8z"/>
	<path d="M626.6,189.3c0.1,0,0.2-0.1,0.3-0.1c-0.1-0.1-0.2-0.2-0.3-0.2c-0.1,0-0.1,0.1-0.2,0.2C626.4,189.2,626.5,189.2,626.6,189.3
		z"/>
	<path d="M666.2,170.9c-0.1,0.2-0.3,0.4-0.3,0.5c0.1,0.2,0.3,0.4,0.4,0.5c0.1-0.2,0.2-0.4,0.2-0.5
		C666.5,171.3,666.3,171.1,666.2,170.9z"/>
	<path d="M703.2,144.7c-0.1,0.2-0.2,0.4-0.2,0.6c0,0.1,0.3,0.2,0.4,0.3c0.1-0.2,0.2-0.4,0.2-0.6C703.5,145,703.3,144.9,703.2,144.7z
		"/>
	<path d="M279.9,123.8c-0.2-0.1-0.4-0.3-0.2-0.1C279.4,123.6,279.7,123.7,279.9,123.8C279.9,123.8,279.9,123.8,279.9,123.8z"/>
	<path d="M299.8,290c-0.1,0-0.3,0-0.3,0c-0.2,0.1-0.3,0.3-0.4,0.4c0.1,0.1,0.2,0.2,0.3,0.1C299.7,290.6,299.9,290.4,299.8,290
		L299.8,290z"/>
	<path d="M299.7,289.9c0.7,0.2,1.3,0.2,1.5-0.7l0.1,0.1C300.6,289.3,300.1,289.4,299.7,289.9L299.7,289.9z"/>
	<path d="M301.2,289.3c0.6,0.1,1.2,0,1.5-0.7l0.1,0.1C302.1,288.5,301.5,288.5,301.2,289.3L301.2,289.3z"/>
	<path d="M233.5,280.7c-0.1,0.2-0.2,0.5-0.1,0.3C233.3,281.2,233.4,280.9,233.5,280.7C233.4,280.6,233.5,280.7,233.5,280.7z"/>
	<path d="M294.3,280.9c-0.3,0-0.6,0.1-0.4,0C293.7,281,293.9,280.9,294.3,280.9L294.3,280.9z"/>
	<path d="M673.7,374.1c-0.3-0.2-0.5-0.3-0.8-0.5l0-0.1C673.2,373.7,673.4,373.9,673.7,374.1L673.7,374.1z"/>
	<path d="M673.7,374c0,0.1,0.1,0.1,0.1,0.2C673.8,374.2,673.7,374.2,673.7,374L673.7,374z"/>
	<path d="M644.5,376.3c0.2,0.3,0.4,0.5,0.7,0.8l-0.1,0.1C645.2,376.6,644.8,376.4,644.5,376.3L644.5,376.3z"/>
	<path d="M655.1,380.6c0.1,0.2,0.1,0.3,0.2,0.5C655.7,380.6,655.4,380.6,655.1,380.6L655.1,380.6z"/>
	<polygon points="237.8,382 237.9,382.2 237.7,382.1 	"/>
	<polygon points="299.1,407.1 299,406.9 299.2,407 	"/>
	<path d="M615.9,385.6c-0.2,0.1-0.4,0.2-0.6,0.2C615.9,386.3,615.8,385.8,615.9,385.6L615.9,385.6z"/>
	<path d="M615.3,203.6c0,0.2,0.1,0.3,0.1,0.5c0-0.1,0-0.1,0-0.2C615.3,203.8,615.3,203.8,615.3,203.6
		C615.2,203.7,615.3,203.6,615.3,203.6z"/>
	<path d="M615.2,203.7c-0.1-0.1-0.3-0.1-0.4-0.2c0.1,0,0.1,0.1,0.2,0.1C615.1,203.6,615.2,203.6,615.2,203.7L615.2,203.7z"/>
	<polygon points="694.9,202.2 695.2,202.2 695,202.3 	"/>
	<path d="M607.3,175.1c0.2,0.2,0.5,0.5,0.7,0.7l-0.1,0.1C607.7,175.7,607.5,175.4,607.3,175.1L607.3,175.1z"/>
	<path d="M602.3,170.9c0.2,0.2,0.5,0.5,0.7,0.7c0,0-0.1,0.1-0.1,0.1C603,171.1,602.8,170.9,602.3,170.9L602.3,170.9z"/>
	<path d="M681.5,150.9c-0.5,0.1-0.8,0.3-0.6,0.8l-0.1-0.1C681,151.4,681.2,151.1,681.5,150.9L681.5,150.9z"/>
	<polygon points="280.6,135.9 280.7,136.1 280.5,136 	"/>
	<polygon points="655,136.8 655,136.6 655.1,136.7 	"/>
	<path d="M280.5,136c-0.1-0.1-0.2-0.2-0.3-0.4c0,0.1,0,0.2,0.1,0.2C280.4,135.9,280.5,135.9,280.5,136
		C280.6,135.9,280.5,136,280.5,136z"/>
	<path d="M652.3,134.5c0.1,0.2,0.1,0.4,0.2,0.6c0.1-0.1,0.2-0.2,0.3-0.3C652.6,134.7,652.4,134.6,652.3,134.5L652.3,134.5z"/>
	<path d="M275.6,132.4c-0.1-0.1-0.2-0.2-0.3-0.3c0,0.1,0,0.1,0.1,0.2C275.5,132.3,275.6,132.3,275.6,132.4
		C275.6,132.3,275.6,132.4,275.6,132.4z"/>
	<polygon points="672.9,373.6 672.8,373.4 672.9,373.5 	"/>
	<polygon points="670.9,370.6 670.9,370.8 670.8,370.7 	"/>
	<path d="M670.8,370.7c-0.3-0.2-0.5-0.5-0.8-0.7l0.1-0.1C670.3,370.1,670.6,370.4,670.8,370.7L670.8,370.7z"/>
	<path d="M215.7,357c0,0.1,0.1,0.2,0.1,0.3C215.7,357.2,215.6,357.2,215.7,357C215.6,357.1,215.7,357,215.7,357z"/>
	<polygon points="252.1,353.7 251.9,353.7 252.1,353.6 	"/>
	<path d="M252.9,353c-0.2,0.2-0.5,0.5-0.7,0.7l-0.1-0.1C252.3,353.4,252.5,353.1,252.9,353L252.9,353z"/>
	<path d="M253.5,352.2c-0.2,0.3-0.4,0.5-0.6,0.8l-0.1-0.1C253,352.6,253.2,352.3,253.5,352.2L253.5,352.2z"/>
	<path d="M253.4,352.1c0.2-0.3,0.5-0.5,0.7-0.8l0.1,0.1C254,351.6,253.7,351.9,253.4,352.1L253.4,352.1z"/>
	<polygon points="692.3,333.6 692.1,333.6 692.3,333.6 	"/>
	<path d="M663.1,288.6c-0.1,0-0.2,0.1-0.2,0.1C662.9,288.7,662.9,288.6,663.1,288.6L663.1,288.6z"/>
	<path d="M319.8,306.4c0.1-0.1,0.2-0.2,0.3-0.3c0,0-0.1,0.1-0.1,0.1C319.9,306.3,319.9,306.4,319.8,306.4L319.8,306.4z"/>
	<path d="M317,307.8c-0.2,0.3-0.4,0.6-0.7,0.9c0,0-0.1-0.1-0.1-0.1C316.5,308.3,316.7,308,317,307.8
		C316.9,307.7,317,307.8,317,307.8z"/>
	<path d="M191.2,160.9c0.4-1.5,0.2-2.9-0.1-4.2c-0.8-4.4-0.5-8.7-0.1-13.1c0.1-1.2,0.1-2.3,0.1-3.5c0-0.2-0.5-0.6-0.7-0.6
		c-0.3,0-0.8,0.1-0.9,0.4c-0.3,0.6-0.6,1.3-0.8,2c-0.9,4.3-1.3,8.7,0.5,12.9c0.4,1.1,0.9,2.1,0.5,3.4
		C189.5,159.2,190,160.2,191.2,160.9z"/>
	<path d="M258.4,224.4c0.9-1.3,2.2-2.4,2.8-3.9c-0.4-0.1-0.7-0.3-0.8-0.2c-1,0.4-1.9,0.9-2.9,1.3c-0.6,0.3-1.3,0.7-1.9,0.7
		c-3.3-0.1-6.3,1-9.6,1.4c-0.3,0.7-0.5,1.3-0.8,2.1c-1.1,1.1-3.2,0.5-4.3,2.3c1.9,0.4,3.7,0,5-1.1c0.9-0.8,1.8-0.9,2.9-1
		c1.8,0,3.5-0.4,5.2-0.9c1.5-0.4,3-0.5,4.5-0.7L258.4,224.4z"/>
	<path d="M185.3,229.2c-2.1-1.9-2.9-4.4-4-6.9c-0.5,0.1-1.1,0.1-1.3,0.3c-0.3,0.3-0.6,0.8-0.6,1.2c0.4,2.9,1.9,5.3,4.2,7.1
		c0.3,0.2,0.6,0.4,1,0.4c3-0.2,5.6,1.6,8.6,1.3c0.2,0,0.3-0.2,0.7-0.4C190.9,231,188.1,230,185.3,229.2z"/>
	<path d="M306.3,220.1c-0.4-0.6-1-1.1-1.2-1.7c-0.2-0.5,0-1.1,0-1.4c-2-0.6-4-1.3-6-2c-1.9-0.6-3.1-2.5-5.1-2.8
		c-0.7,0.5-0.8,1.1-0.4,1.6c0.5,0.6,1.1,1.2,1.8,1.7C298.7,217.7,302.3,219.3,306.3,220.1C306.3,220,306.3,220.1,306.3,220.1z"/>
	<path d="M281.1,205.3c-1.5-1.8-3.1-1.5-4.8-0.6c-0.7,0.4-1.5,0.6-2.4,1c1.4,0,2.5,0,3.7,0c1.1,0,2.2-0.1,3.2,0.2
		c1.6,0.3,3.2,0.8,4.7-0.4c0.5-0.4,1.4-0.2,2.1-0.2c1.1-0.1,2.1-0.1,3.2-0.3c0.2,0,0.6-0.5,0.5-0.7c0-0.3-0.4-0.6-0.6-0.8
		c-0.2-0.1-0.5-0.2-0.7-0.2c-2.1,0.2-4.1,0.9-6.3,0.7C282.9,203.9,282.2,204.7,281.1,205.3z"/>
	<path d="M227.2,113.4c1.5,1.4,2.8,2.7,4.3,4c0.2,0.2,0.9,0.1,1.3-0.1c0.6-0.3,0.6-1,0.3-1.5c-0.2-0.4-0.5-0.9-0.9-1.1
		c-1.4-0.6-2.8-1.2-4.2-1.7C227.8,113,227.6,113.2,227.2,113.4z"/>
	<path d="M195.5,195.5c0,1.8,0,3.7,0.1,5.5c0.1,0.8,0.4,1.5,0.7,2.3c0.1,0.1,0.4,0.2,0.6,0.2c0.2,0,0.5-0.2,0.5-0.4
		c0.1-0.6,0.3-1.2,0.2-1.7c-0.5-2-1.1-4-1.6-6C195.9,195.5,195.7,195.5,195.5,195.5z"/>
	<path d="M195.7,237.7c-2.2-0.9-3.7-1.5-5.2-2.1c-0.7,0.6-0.2,1,0.2,1.4C192,238,193.4,238.2,195.7,237.7z"/>
	<path d="M239.1,228.8c-1.8-0.4-3.1,0.2-4.3,1.6C237.1,231,237.9,230.6,239.1,228.8z"/>
	<path d="M202.1,238.2c2.5,1.8,3,1.9,4.9,1.1C205.5,238.4,204.2,238,202.1,238.2z"/>
	<path d="M225.9,144.8c-1.1,1.1-1.9,2.2-2.1,3.6c0,0.2,0.3,0.5,0.5,0.8C225.5,148,225.5,148,225.9,144.8z"/>
	<path d="M200.1,231.2c1.4,1,1.4,1,3.2,0.6c-0.3-1.2-1.2-1.3-2.1-1.3C200.9,230.5,200.5,230.9,200.1,231.2z"/>
	<path d="M229.2,134.6c-1,1.3-1.5,2.8-2.1,4.1c0.5,0.7,0.9,0.6,1.2,0.1C229.1,137.5,229.4,136,229.2,134.6L229.2,134.6z"/>
	<path d="M193.2,167.8c0.7-1,0.4-1.7-0.4-2.4c-0.2-0.2-0.7-0.3-0.9-0.1c-0.2,0.1-0.5,0.6-0.4,0.8C191.7,167,192.1,167.8,193.2,167.8
		z"/>
	<path d="M227.7,232.5c2-0.1,2.8-1,3.8-1.8C230.3,230.1,230.3,230.1,227.7,232.5z"/>
	<path d="M194.8,187.4c-0.8,1.1,0.1,1.9,0.4,2.9C196.5,188.8,196.5,188.6,194.8,187.4z"/>
	<path d="M306.3,227.2c-0.2-0.2-0.5-0.5-0.7-0.7c-0.9,0.7-1.7,1.5-0.7,2.9C305.9,229,305.7,227.8,306.3,227.2z"/>
	<path d="M237.5,117.9c1,0.4,2,0.2,3-0.1c0-0.8-0.6-0.9-1.1-0.8C238.7,117,238,117,237.5,117.9z"/>
	<path d="M190.2,180.7c0.1,1.9,0.1,1.9,0.9,2.8C191.5,182.4,190.6,182,190.2,180.7z"/>
	<path d="M286.5,212.9c0.5-0.1,1.1-0.1,1.6-0.2c0.1,0,0.3-0.4,0.2-0.6c-0.1-0.2-0.4-0.4-0.5-0.3c-0.5,0.2-0.9,0.5-1.4,0.8
		C286.4,212.6,286.4,212.8,286.5,212.9z"/>
	<path d="M206.4,211.4c0.5,0,1.1,0,1.6,0c0-0.1,0-0.2,0-0.3c-0.6,0-1.1-0.1-1.7-0.1C206.3,211.1,206.3,211.2,206.4,211.4z"/>
	<path d="M198,232.5c-0.6-0.3-1.2-0.7-1.7,0C196.8,233,197.4,233.1,198,232.5z"/>
	<path d="M227.9,141.8c-0.2,0.1-0.3,0.3-0.5,0.4c0.2,0.1,0.4,0.2,0.4,0.2c0.1-0.1,0.2-0.3,0.3-0.5
		C228.1,141.9,228,141.8,227.9,141.8z"/>
	<path d="M278.3,212.1c0.2-0.1,0.4-0.2,0.6-0.2c-0.1-0.1-0.2-0.2-0.3-0.2c-0.2,0-0.4,0.1-0.6,0.2C278.1,212,278.2,212,278.3,212.1z"
		/>
	<path d="M282,212c0.1,0,0.2,0,0.3-0.1c-0.1-0.1-0.2-0.2-0.3-0.2c-0.1,0-0.1,0.1-0.2,0.2C281.8,212,281.9,212,282,212z"/>
	<path d="M229.2,134.5c0.2-0.1,0.4-0.1,0.5-0.3c0.1-0.1-0.1-0.3-0.2-0.5c-0.1,0.1-0.2,0.2-0.2,0.2
		C229.3,134.2,229.3,134.4,229.2,134.5L229.2,134.5z"/>
	<polygon points="197.1,238.4 197.1,238.2 196.8,238.3 	"/>
	<path d="M211.7,238.4c0.1,0,0.2,0.1,0.3,0.1c0-0.1,0.1-0.2,0.1-0.3c-0.1,0-0.2,0-0.3,0C211.8,238.2,211.8,238.3,211.7,238.4z"/>
	<path d="M321.5,197.3c-1.3,2-1.1,2.8,0.9,6C322.7,201.2,323.3,199.3,321.5,197.3z"/>
	<path d="M330.6,240.6c0.2,0.9,0.4,1.6,0.6,2.3c0.1,0.4,0,1,0.8,1.1C331.9,242.7,331.9,241.6,330.6,240.6z"/>
	<path d="M338.9,281.9c-1.2-0.7-1.3-0.7-2.2,0.6C338,283.2,338,283.2,338.9,281.9z"/>
	<path d="M344.1,283.6c-0.9-0.8-1.8-1.8-3.4-1.1C341.6,284,342.9,283.5,344.1,283.6L344.1,283.6z"/>
	<path d="M322.6,208.2c0-1,0-1.8,0-2.6C321.2,206.3,321.2,206.4,322.6,208.2z"/>
	<path d="M334.7,249.4c0-0.9,0-1.8,0-3C334.2,248.1,334.2,248.1,334.7,249.4L334.7,249.4z"/>
	<polygon points="334.8,249.3 334.9,249.5 334.7,249.4 	"/>
	<polygon points="342.3,285.5 342.4,285.3 342.2,285.3 	"/>
	<path d="M565.4,299c0.9-0.5,1.9-0.9,2.7-1.4c-1.1-0.4-2.3-0.7-3.5-1.1c-3-1-4.1-3.4-4.2-6.3c-0.1-1.9-0.1-3.8-0.3-5.7
		c-0.1-0.9-0.2-1.9-1.2-2.7c-0.3,0.4-0.7,0.7-0.7,1c0.5,2.8,0.3,5.7,0.4,8.5c0,0.9,0.1,1.6,0.9,2.2c0.3,0.2,0.5,0.5,0.6,0.8
		C561.1,296.6,562.8,298,565.4,299z"/>
	<path d="M572.1,297.6c-1-2.3-3.6-2.8-4.6-5.1c0.2-3.3,0.1-6.9-1-10.3c-0.1-0.2-0.5-0.4-1-0.7c-0.1,0.7-0.4,1.3-0.3,1.8
		c0.4,2.9,0.7,5.9,1.4,8.7c0.4,1.5,1.3,3,2.3,4.3C569.5,297.3,570.5,297.9,572.1,297.6z"/>
	<path d="M517.4,185.2c0,0.8,0,1.6,0.1,2.5c0.1,1,0.2,2.1,0.5,3.1c0.5,1.7,1.1,3.3,1.7,5c0.2,0.7,0.6,1.3,1.7,1.4c0-0.4,0.2-1,0-1.2
		c-1.4-2-1.1-4.3-1.5-6.4c-0.2-0.8,0.3-1.8,0.5-2.9c-0.3-0.5-0.7-1.3-1.2-2.2c-0.6,0.3-1.2,0.6-1.8,1L517.4,185.2z"/>
	<path d="M565,134.7c-0.9,0.4-0.9,1.3-1.2,2c-1.1,2.7-1.4,5.5-1.4,8.4c0,0.3,0.5,0.7,0.9,0.9c0.2,0.1,0.7-0.3,0.8-0.5
		c0.4-1.1,0.8-2.2,0.9-3.4c0.2-2.2,0.3-4.5,0.4-6.7C565.4,135.1,565.2,134.9,565,134.7z"/>
	<path d="M547.3,251.5c0.2,0.2,0.5,0.5,0.7,0.7c0.2-0.5,0.8-1.1,0.7-1.5c-0.4-1.6-1-3.2-1.6-4.7c-0.4-0.9-0.7-1.9-1.8-2.6
		c-0.3,1.3,0,2.4,0.4,3.6c0.3,1,0.6,2,0.9,3.1C546.9,250.6,547.1,251.1,547.3,251.5z"/>
	<path d="M607.4,119.2c1.3-0.3,1.6-1.1,1.2-2c-0.3-0.6-0.9-1.2-1.5-1.4c-1.4-0.5-2.5-1.8-4.2-1.3c0,0.3,0,0.5,0,0.5
		C604.5,116.5,606,117.9,607.4,119.2z"/>
	<path d="M537.7,189.8c1.4,0.8,2.1,1.3,2.9,1.7c0.4,0.2,0.8,0.4,1.3,0.5c0.3,0.1,0.7,0.1,1,0c0.3-0.1,0.6-0.4,0.7-0.7
		c0.1-0.2-0.2-0.6-0.4-0.8c-0.1-0.2-0.4-0.2-0.6-0.3c-0.3-0.1-0.7-0.1-1-0.2C540.4,190.1,539.4,190,537.7,189.8z"/>
	<path d="M565.1,278.6c0.2-2.3-0.4-4-2.1-5.9C563.1,275.2,562.9,277.1,565.1,278.6z"/>
	<path d="M567.3,129.3c-0.9,1.6-1.7,2.8-0.8,4.3C568.2,132.5,568.2,132.4,567.3,129.3z"/>
	<path d="M571.3,294.7c2.8-0.8,3.2-1.3,2.8-3C572.6,292.2,572,293.3,571.3,294.7z"/>
	<path d="M521.9,206.8c-0.5,2.1,0.1,3.4,1.6,4.8C523.5,209.6,523.2,208.2,521.9,206.8z"/>
	<path d="M601.4,145.7c-0.9,1.8-1.5,2.9-2,4.1c-0.1,0.2,0.2,0.6,0.3,0.9c0.3-0.1,0.7-0.1,0.8-0.3
		C601.1,149.2,601.6,147.9,601.4,145.7z"/>
	<path d="M555.3,167.8c0.8-1,1.5-2,2.3-3.1c0.1-0.2,0.1-0.4,0.2-0.6c-0.4-0.4-0.9-0.5-1.2,0c-0.7,1.1-1.2,2.2-1.8,3.3
		C554.9,167.6,555.1,167.7,555.3,167.8z"/>
	<path d="M616.9,119.4c-1.9-1.4-2.9-0.9-4.5,0C614.1,119.4,615.2,119.4,616.9,119.4z"/>
	<path d="M579.3,163.3c-1.4-0.9-2.4-0.1-3.7,0.6C577.7,164.5,577.7,164.5,579.3,163.3z"/>
	<path d="M556.5,277.8c-0.3-0.8-0.6-1.6-1-2.6c-0.4,0.4-0.7,0.7-0.7,0.9C554.8,277.2,554.9,277.2,556.5,277.8z"/>
	<path d="M604.5,137.4c-1.3,1.4-1.3,1.4-1.2,3.4C604.5,139.8,604.7,138.7,604.5,137.4L604.5,137.4z"/>
	<path d="M534.6,232.3c0.7-1.6,0.7-1.6-0.5-3.6c-0.1,0.6-0.2,1-0.1,1.4C534.1,230.9,534.4,231.6,534.6,232.3L534.6,232.3z"/>
	<path d="M563.1,294.1c0.7,1.3,1.3,1.1,2,0.8c0.2-0.1,0.3-0.4,0.3-0.5c0-0.2-0.2-0.5-0.3-0.5C564.4,293.9,563.9,294,563.1,294.1z"/>
	<path d="M522.9,200.6c0.1,0,0.3-0.1,0.3-0.1c0-0.3,0.2-0.7,0-0.9c-0.2-0.3-0.7-0.5-1-0.7c0,0-0.2,0.1-0.2,0.2
		C521.7,199.6,522.2,200.4,522.9,200.6z"/>
	<path d="M520.6,199.5c0,0.9,0,1.8,0,2.9C521.3,201.3,520.8,200.4,520.6,199.5z"/>
	<path d="M536.5,168.4c0.5,0.4,0.8,0.7,1.1,1c0.2-0.4,0.5-0.8,0.5-1.2c0-0.2-0.3-0.5-0.5-0.8C537.4,167.7,537,167.9,536.5,168.4z"/>
	<path d="M524.3,203.3c0.6,0.8,1.1,1.3,1.7,2c0.7-1.2,0.1-1.7-0.6-2.2C525.2,203,524.8,203.2,524.3,203.3z"/>
	<path d="M548,293.6c0.8-0.1,1.7,0.2,2.2-0.8c-0.3-0.1-0.7-0.2-1-0.3C548.4,292.4,548,292.8,548,293.6z"/>
	<path d="M594.8,157c0.2,0.2,0.4,0.5,0.6,0.7c0.1-0.3,0.4-0.6,0.3-0.8c-0.1-0.3-0.4-0.4-0.6-0.6C595,156.6,594.9,156.8,594.8,157z"
		/>
	<path d="M596.6,153.2c1.2-0.5,0.8-1.1,0.6-1.8C596.3,151.9,596.5,152.5,596.6,153.2z"/>
	<path d="M552.7,271.6c-0.5,0.5-0.3,0.9,0.1,1.3c0.1,0.1,0.4,0.2,0.6,0.3c0-0.3,0.2-0.7,0-0.9C553.4,272,553,271.8,552.7,271.6z"/>
	<path d="M559.7,247.5c0,0.4-0.2,0.7,0,0.9c0.1,0.2,0.5,0.3,0.7,0.4c0-0.3,0-0.6-0.1-0.8C560.3,247.9,560,247.8,559.7,247.5z"/>
	<path d="M604.4,137.4c0.8-0.4,0.6-1,0.2-1.7C604.6,136.3,604.5,136.8,604.4,137.4C604.5,137.4,604.4,137.4,604.4,137.4z"/>
	<path d="M560.4,267.2c0.3,0,0.6,0,0.9,0c0-0.2,0.1-0.5,0-0.6c-0.1-0.1-0.4-0.2-0.6-0.1C560.5,266.6,560.5,266.9,560.4,267.2z"/>
	<path d="M521.1,204.3c0,0.4,0,0.8,0.1,1.1c0.1,0,0.2,0,0.2,0c0-0.4,0-0.8,0-1.1C521.3,204.3,521.2,204.3,521.1,204.3z"/>
	<path d="M533.1,316.8c0.3,0.1,0.5,0.2,0.8,0.2c0,0,0.2-0.4,0.1-0.5c-0.2-0.2-0.5-0.3-0.7-0.4C533.2,316.2,533.1,316.5,533.1,316.8z
		"/>
	<path d="M538.5,161.9c0,0.1,0,0.2,0,0.2c0.1,0.1,0.2,0.1,0.3,0.1c0.3-0.2,0.3-0.3,0-0.4C538.7,161.8,538.6,161.9,538.5,161.9z"/>
	<path d="M603.1,143.4c0.1,0.2,0.2,0.4,0.3,0.5c0.1-0.1,0.2-0.2,0.2-0.2c0-0.2-0.1-0.3-0.2-0.5C603.3,143.3,603.2,143.4,603.1,143.4
		z"/>
	<path d="M607,432.9c2-0.4,3-1.7,3.9-3.1c0.5-0.8,0.8-1.7,1.2-2.5c0-0.1-0.2-0.4-0.3-0.6c-0.2,0-0.6,0-0.6,0.1
		C609.7,428.8,608.4,430.8,607,432.9z"/>
	<path d="M603,433.3c0.7-0.1,1.2,0,1.5-0.2c0.2-0.1,0.3-0.5,0.4-0.8c-0.3,0-0.7-0.2-0.9-0.1C603.7,432.4,603.5,432.8,603,433.3z"/>
	<path d="M572.6,418.9c0.2-0.1,0.4-0.2,0.5-0.4c0.2-0.7-0.2-1.5-0.7-1.3c-0.2,0.1-0.4,0.3-0.4,0.5c0,0.3,0.2,0.7,0.3,1
		C572.3,418.9,572.5,418.9,572.6,418.9z"/>
	<path d="M572.7,422.9c0.1,0,0.2-0.1,0.2-0.1c0.1-0.3,0.1-0.6,0.1-1c0-0.1-0.3-0.1-0.5-0.2c0,0.3-0.1,0.6-0.1,1
		C572.4,422.7,572.6,422.8,572.7,422.9z"/>
	<path d="M247,440.1c0.8-2.5,0.7-4.8-0.5-10.2c-0.4,0.2-1,0.3-1.2,0.6c-0.4,1-0.9,2-0.9,3C244.2,435.9,245,438.1,247,440.1z"/>
	<path d="M228.1,526.6c-1,3.4-0.9,6.9-1.3,10.2c0,0.2,0,0.5,0.1,0.7c0.2,0.3,0.5,0.5,0.8,0.6c0.1,0.1,0.5-0.1,0.6-0.3
		c0.3-0.7,0.8-1.5,0.9-2.2C229.4,532.6,229.3,529.6,228.1,526.6z"/>
	<path d="M226.7,467.4c2-2.6,1.7-5.5,2.5-8c0.2-0.5-0.1-1.1-0.2-2c-0.6,0.4-1.2,0.6-1.2,0.9c-0.3,1.2-0.6,2.5-0.8,3.8
		C226.8,463.6,226.8,465.3,226.7,467.4z"/>
	<path d="M230.1,443.6c1.4-1.2,0.9-2.9,1.2-4.3c0.3-1.4,0.3-2.8,0.5-4.1c-0.6-0.7-1.1-0.3-1.4,0.2c-0.3,0.5-0.6,1.2-0.4,1.6
		c0.7,1.9,0.3,3.7-0.1,5.5C229.8,442.8,230,443.2,230.1,443.6z"/>
	<path d="M244.5,449.4c0.5-2.2,1-4.1,1.5-6c0,0-0.2-0.1-0.3-0.2c-0.8,0-1,0.6-1.1,1.2c-0.2,1.5-1.5,2.7-1.1,4.3
		C243.5,448.8,243.8,448.9,244.5,449.4z"/>
	<path d="M228.9,524.6c1.1-1.8,1.3-3.5,0-5.7c-0.4,1.8-0.7,3.2-1,4.5C227.8,523.9,227.9,524,228.9,524.6z"/>
	<path d="M226,476.4c1.4-3,1.3-4-0.3-5.6C225.3,472.5,225.7,474.1,226,476.4z"/>
	<path d="M230.2,513.6c-1.3,0.6-1.3,1.6-1.5,2.5c-0.1,0.3,0.1,0.7,0.3,0.9c0.5,0.3,0.8-0.1,1.1-0.5
		C230.6,515.6,230.8,514.7,230.2,513.6z"/>
	<path d="M252.3,467.5c-0.3,1.7-0.6,3.4-1,5.8C252.6,470.3,252.6,470.3,252.3,467.5z"/>
	<path d="M225.3,497c0.2-2.2,0.2-2.2-0.7-3.4C223.9,495.2,223.9,495.2,225.3,497z"/>
	<path d="M224.6,480.8c-0.1,1.2,0.4,2,0.6,3.1C225.6,481.7,225.6,481.7,224.6,480.8z"/>
	<path d="M250.7,478.3c0.9-1.2,0.8-2,0.2-3.2C250.8,476.3,250.8,477.1,250.7,478.3z"/>
	<path d="M229.7,509.5c-0.5,0.8-0.7,1.1-0.7,1.4c0,0.3,0.2,0.6,0.3,0.8c0.2-0.2,0.6-0.4,0.6-0.6C230,510.9,229.9,510.5,229.7,509.5z
		"/>
	<path d="M253.4,462.6c-0.2,0.3-0.7,0.5-0.1,1.2C253.3,463.3,253.3,462.9,253.4,462.6L253.4,462.6z"/>
	<polygon points="263.5,438.4 263.4,438.5 263.4,438.3 	"/>
	<polygon points="227.3,450.2 227.5,450.3 227.5,450.1 	"/>
	<path d="M591.7,270.1c-0.3,0-0.7-0.1-1.1-0.1c0,1.5,0,3,0,4.5c0,1.5-0.9,2.9-0.2,4.6c0.4-0.3,0.8-0.4,0.9-0.7
		C592.1,275.7,591.8,272.8,591.7,270.1L591.7,270.1z"/>
	<path d="M620.9,289.2c-0.3,0.3-0.6,0.6-0.8,0.8C620.4,289.8,620.6,289.5,620.9,289.2z"/>
</g>
</svg>
