<?xml version="1.0" encoding="utf-8"?>
<!-- Generator: Adobe Illustrator 19.1.0, SVG Export Plug-In . SVG Version: 6.00 Build 0)  -->
<svg version="1.2" baseProfile="tiny" id="Layer_2" xmlns="http://www.w3.org/2000/svg" xmlns:xlink="http://www.w3.org/1999/xlink"
	 x="0px" y="0px" width="900px" height="600px" viewBox="144 97 900 600" xml:space="preserve">
<g>
	<path d="M744,613.7c0.1-3-0.4-6.2,0.5-8.9c3-9,0.6-17.8-0.9-26.5c-0.9-5.5-2-11.1-2-16.6c0.1-13.5-2.1-26.7-4.5-39.9
		c-1.7-9.4-0.3-18.8,0.4-28.3c0.7-10,2.7-19.7,4.3-29.5c0.9-5.3,1.8-10.6,0.8-16.2c-1-5.3-1.7-11.3,3.1-15.8
		c-0.7-2.7-0.7-5.3-0.6-7.9c-6.1-4.2-8.8-10-10.3-17.1c-2.3-11-4.2-22.2-5.6-33.3c-1.7-13.1-3.1-26.5-3-39.9
		c0.1-6.5-0.8-12.9-1.1-19.4c-0.3-6.6,0.4-13.2-0.9-19.7c-0.3-1.5-0.4-2.9-1.2-4.4c-2.2-4.1-1-6.6,3.6-7.5c3.8-0.7,7.6-1.7,11.5-2
		c5.4-0.3,6.7,0.5,7.5,5.9c0.6,3.8,1.5,7.6,0.6,11.7c3.2,0.8,6.1,1.6,9.2,2.4c0.9-2.4,0.1-5.8,4.1-5.5c-1.1-4.5-0.6-9.2-0.2-13.7
		c0.3-3.7,2.9-6.3,6-8.1c1.3-0.8,2.7-1.5,4.1-2.2c0.3-1,0.4-2-0.1-3c-1.7-4.2-1.3-8.5-1.1-12.9c0-1.2-0.1-2.3-0.4-3.4
		c-1.8-6.6-1.3-12.8,3.7-18c1.2-1.2,1.7-2.9,3.1-4c2.7,3,5.2-0.5,7.8-0.4l0.1,0.1c-1.1,1.4-2.7,1.9-4.3,2.5
		c-6.3,2.2-10.3,8.6-8.8,15.2c1.2,5.2,1.3,10.1,0.2,15.3c-0.5,2.4,1.4,4.3,1.6,6.6c13,1.3,25.9,0.2,39.4-0.8
		c7.4,3.1,15.3,2.7,23-1.7c-3.8,3.8-8.4,6.5-13.6,5.6c-13.1-2.5-26-0.4-39-0.1c-0.6,0-1.3,0.1-1.9,0c-5.1-1.1-8.9,1.7-12.7,4.3
		c-2.8,1.9-4.3,4.6-4,8.3c0.3,3.6-1.1,7.1-0.6,10.9c3.1,1.8,6.2,0.5,9.6-0.6c-0.8-2.4-3.1-4.2-2.8-7s3-4.1,3.6-6.7
		c6.9,0.5,13.6,1,20.3,1.4c10.7,0.7,21.5,1.1,32-2c6-1.8,10.6-5.7,13-11.7c0-1.4-2-1.1-2-2.6c2.2-0.9,4.6,1,6.7,0
		c1.8-0.8,4.6-1,3.6-4.2c-0.8-0.3-1,0.9-1.8,0.4c-0.5-1.1,0.4-2.3-0.6-3.6c-2.6-1.1-5.9,0-9.2-2.1c4.6-1.3,8.9,1.3,12.5-1.2
		c0.8-2.1,0.1-3.9-0.6-5.8c-4.7-1.3-10.2-0.4-14.1-4.4c4.7,1.2,9.4,2.3,14.3,1.7c1.4-5.9,0.1-7.8-5.5-8.3c-4-0.4-7.3-1.7-9.6-5.4
		c4.1,3.8,9.4,3.6,14.4,4.1c0.8-4.5,0.2-5.1-3.4-7.7c-4.2-2.9-8.8-2.6-13.4-3c-0.4,0-0.8,0.2-1.2,0.1c-5.7-2-8.2,1.9-10.6,5.9
		c-1.7,2.8-3.2,5.6-4.9,8.6c-2.6,1.3-5.7,1.9-8.7,2.6c-1.5,0.4-3.1,0.6-4.6-0.1c-3.6-1.6-7.3-3.1-11.1-4.3c2.5-1,5.2-0.5,7.1,0.9
		c5.8,4,10.8,0.8,16.6-0.8c-1.9-2.4-1.8-5.2-3.4-7.6c3.1-3.4-0.4-6.8-0.7-10.5c2.3,1,2.6,3.1,3.4,4.6c1.4,0,0.9-2.1,2.6-1.6
		c0,3-1.9,5.1-3.3,7.6c0.5,1.4,0.9,2.9,2.6,4.1c1.9-4.6,4-9,8.6-12c-0.9-4.7-0.3-9.7-2.7-14.4c-7.5-1.2-14.8-4.2-22.4-3.8
		c-5,0.2-9.4,2.8-12.7,6.7c-3.9,4.5-7,9.3-6.3,15.7c-2-0.1-2.2-1.6-2.3-2.5c-0.4-4.4,0.5-8.6,3.1-12.1c1.9-2.6,4.4-4.7,6.8-6.9
		c0.9-0.8,2.1-1.7,3.3-1.9c6.6-1.2,13.2-2.9,19.8-0.3c1.6,0.6,3.3,0.8,4.9,1.3c2.2,0.7,4.2,0.8,6-1.3c0.9-1,2.2-1.8,3.7-1.6
		c1.7,2.4-1.7,2.5-1.8,4.2c-0.3,1.4,1.5,1.5,1.7,2.7c-0.7,1.4,0,8.9,1.5,14c0.7-1.6,1.2-2.9,0.8-4.1c-0.6-2.1-0.6-4.1-0.5-6.2
		c0.9-9.6-2.2-18.7-2.7-28.1c-0.6-9.8,0.6-11.5,10.5-10.9c0.2,0,0.5-0.1,1.1-0.1c0-2.4-0.2-4.5-3.1-5.2c-1.7-0.4-2.4-1.5-1.9-3.2
		c0.3-1.2-0.3-2-0.8-2.9c-3.8-6.9-3.3-10,2.3-15.8c-2.2-5.9-0.2-11.7,1.3-17.4c0.6-2.4,1.5-4.7,2.4-6.9c0.7-1.7,1.3-3.7,4-3.6
		c1.5,0,1.5-1.9,2.5-2.7c-0.5-1.2-1-2.4-1.6-3.8c1.9-0.8,3.1-2.3,3.8-4.4c2.8,0.4,4.6,2.3,7.2,3.6c-0.6-2-2.3-2.9-2.1-5.2
		c3.7,0.1,4.5,3,5.7,5.6c0.5-1.2,0-2.9,1.6-3.4c1.7-0.5,2.6,0.7,3.6,1.7s2,2,3.1,2.9c3.7-0.8,6.6-0.2,10,2c4.2,2.7,6.7,6.6,10,10
		c1.7,1.7,2.7,3.8,2.9,6.2c0.2,2.3,0.3,4.6,1.6,6.7c0.4,0.6,0.5,1.6,0.2,2.2c-1.4,3.8-0.9,7.3,0.3,11.1c2.1,6.5,0.4,12.7-2.5,18.6
		c-0.2,0.4-0.8,0.6-1.1,0.8c-1.6,0.3-1.9-1.5-3.7-1.5c-0.4,8.7-0.7,17.4,1.9,26.2c5.5,1.3,11.5,0.7,16.8,3.8
		c8.8-5,18.2-4.3,27.7-3.3c2.9,0.3,5.7,1.8,8,3.8c4.3,3.9,8.4,8,11.8,12.8c2.8,3.8,4.6,8.3,8.9,11.1c3.6,2.4,4,6.4,2.1,10.4
		c-0.7,1.5-0.6,2.8-0.6,4.4c-0.1,5.7-0.2,11.3,0.1,17c0.1,2.1-0.4,4.4-2.3,5.8c6,7.5,10,15.7,10.2,25.8c1.3,0.4,1.9,1.8,2.2,3.5
		c3.2-0.7,6.2-1.4,9.5-2.1c-1.9-3.9-2-8-1.8-12.1c0.2-3.1,1.4-4.8,4.7-5.7c4.5-1.2,8.9-1.4,13.5-0.9c4,0.5,5,1.2,5.4,5.3
		c0.5,4.2,0.9,8.3-0.1,12.7c-1,4.3,0,9,0,13.5c-0.1,8.7,1.4,17.3,1.8,25.9c1,20.7-0.6,41.4-1.7,62c-0.1,1.3-0.3,2.6-0.7,3.8
		c-2.9,8.7-4.7,17.8-11.8,24.4c-1.7,1.6-3.8,2.7-5.3,5.3c3.4,6.5,2.5,13.6,0.6,20.8c-0.8,0.6-0.8-0.6-1.5-0.8
		c-1,0.2-0.6,1.9-2.6,2.3c2.8-5.7,1.1-11.3,0.7-16.8c2.4,1.7,1.6,4.4,2.6,7.1c1.1-5-0.2-9.1-2.1-12.9c-3.2-6.2-6.4-12.4-8.8-19
		c-0.8-2-2-3.2-4.1-3.7c-3.4-0.8-6.8-1.7-10.5-2.7c0,1.5,1.1,2.1,1.7,2.9l0.1-0.1c-1,0-1.8-0.4-2.4-1.1c-3.6-3.7-8.1-3.9-12.6-3.1
		c-8.2,1.5-15.4,5.2-22,10.1c-2.5,1.9-4.3,4.5-5.6,7.4c0.1,1.3,1.9,1.8,1.5,3.5c-1.2,0.9-1.5-0.9-2.7-0.9c-4.7,8.8-6.9,19-12.8,27.6
		c3.8,2.2,7.8,2.8,11.7,3.7c5.5,1.2,10.4,5.2,16.5,3.2c0.8-0.3-0.1-1.4,1.1-1.8c1.8,1.4,3.9,2.8,5.7,4.4c3.8,3.3,6,7.3,6.9,12.5
		c1.2,7.3,0.6,14.1-1.3,21.1c-2.2,8.2-3.5,16.5-1.9,25c1.1,5.9,3.4,11.5,6.4,16.6c1.5,2.6,1.9,5.3,3,7.8c2.9,7,5.5,14,4.7,22.1
		c2.2,0.4,2.3,1.9,2.4,3.7c0.1,8.2,0.4,16.3,1.5,24.4c0.3,2.4,0,4.9-0.7,7.3c-0.4,1.5-0.2,2.6,1.7,2.5c0.9-1.3,0-2.9,0.7-4.3
		c1.7,1.4,0.7,3.3,1.1,4.9c4.2,1.8,7.2-2.2,10.8-2c1.1-2.4-0.3-4.9,0.9-7.4c1.8,2.1,0.7,4.5,1.8,6.6c1.7,0.5,3.4,0.3,5.4-0.3
		c-0.7-4.4-0.7-8.7-0.8-13.1c-0.2-13.3,2.4-26.2,4.9-39.2c2.3-12.2,4.7-24.4,5.8-36.7c1.1-13-1.7-25.7-4.9-38.3
		c-1.6-6.1-3.9-12.1-2.7-18.6c0.1-0.6,0.1-1.3,0.7-1.9c1.6,0.4,1.1,1.8,1,2.8c-0.4,4.9,0.7,9.4,2,14.1c3.7,12.8,6.5,25.8,6.6,39.3
		c0,4.2-1.1,8.2-1.1,12.4c0,12.7-3.8,24.7-6.7,36.8c-3.2,13.7-3.4,27.4-3.2,41.3c2.8,4.7,2.1,10.6,5.9,15.4
		c3.9,4.9,6.6,11.2,7.9,17.6c1.3,6.5,5.2,11.7,8.1,17.5c1.1,2.2,3.5,4,1.6,6.9c2.1,8.1,1.1,15.9-2.6,23.4c-0.2,0.4,0.3,1,0.2,1.5
		c-0.4,1.8-1.4,3.3-3.4,3c-6.4-1.1-12.5,0.4-18.8,0.9c-3.1,0.2-6.5,0.8-8.7-2.5c-0.3-0.4-1.2-0.5-1.8-0.7
		c-13.1-3.3-15.1-16.4-11.4-25.8c0.9-2.3,1-4.2-0.2-6.6c-8.5-1.9-14.3-7.3-17.8-15.5c-1.2-2.8-0.8-4.7,1-7.1
		c3.6-4.7,7.2-9.6,6.7-16.2c-0.3-3.5,1.5-6.4,3.8-9.1c1.2,1.2,0.2,2.1-0.1,2.9c-1.2,2.8-2.3,5.5-1.1,8.6c0.4,1.1,0.1,2.4-0.5,3.4
		c-2.4,3.8-3.6,8.3-6.3,11.9c-1.8,2.4-1.1,4.9,0,7.3c1.7,3.8,4.6,6.5,8.2,8.6c1.7,0.9,3.3,1.9,5.3,3c0.1-1.9-1.9-3.1-1.4-5
		c2.8,1.7,5.2,7.4,4.8,11.3c-0.3,3-1,5.9-1.1,8.9c-0.2,10.2,2.1,13.3,9.6,17.2c6.6,3.4,12.9,4,19.7,1.6c3.1-1.1,6.4,0.6,10-0.1
		c3.5-4.3,3.5-9.8,4.5-15.1c1-5.5-1.4-10.7-2.3-16.2c-4.3-2.1-5.7-6.2-6.8-10.6c-1.2-4.9-2.5-9.8-4.5-14.4c-2-4.6-4.2-6.3-9.3-6
		c-4.8,0.3-9.8,0.7-13.5,4.8c-0.1-3.6,0.8-5,4.2-6c4.8-1.4,9.6-2.2,14.5-0.2c0.1-2.8,0.1-2.8-3.1-4.8c-1.2-3,0-6.4-1.6-9.5
		c-4.3-0.6-8.4,0.9-12.5,0.7c-3.2,4.3,2.2,9.7-1.9,13.6c-1.8-0.4-0.4-2-1.5-2.8c-2.6,1.1-5.3,2.2-8,3.3c-4.2-2.4-2.3-6.8-3.8-10
		c2.5,1.8,2.1,5.2,4.2,7.5c2.4-0.3,4.6-1.3,6.8-2.7c-0.1-2.3-0.2-4.6-0.3-7.4c-3.5,0.8-6.9-0.5-10.5-1.3c0.1-0.9,0.5-2.3,1.1-3.9
		c0.9-2.2,1-4.8,0.7-7.3c-0.9-8.5-2.4-17-2.7-25.5c-0.3-9-2.7-17.4-5.9-25.6c-2.2-5.6-4.8-11.2-7.6-16.5c-3-5.7-3-11.7-2.5-17.8
		c0.7-8.3,2.9-16.3,4.6-24.4c1.3-6.4,0.9-12.2-1.7-18.1c-0.4-0.9-1-1.4-1.8-1.9c-2.4-1.6-5.2-2.9-8-2.8c-9.8,0.6-18.6-2.2-27.3-6.2
		c-0.3-0.2-0.7-0.2-1.5-0.4c1,5.8,4,10,8.4,13.4c-6-2.6-9.4-7.3-10.6-14.5c-3,4.3-8.4,6.2-6.4,12.2c-1.1,0.4-1.2-0.7-2-0.9
		c-1.1,0.1-1.1,1.8-2.3,1.8c-0.8-1.5,0.1-2.7,0.7-4c1.6-3.4,4-6.4,6.8-8.9c5.4-4.7,8.4-10.7,10.5-17.4c2.1-6.6,4.5-13,8.3-18.8
		c2.3-3.4,4.9-6.4,9.1-7.4c1.3-0.3,2.2-1.3,3.3-2c3.7-2.6,7.7-4.8,12.1-6c4.5-1.3,8.8-1.6,13.4-0.2c5.1,1.7,10.5,2.2,16.2,4.2
		c-1.5-3-3-5.2-4.8-7.2c-6.1-6.4-12.3-12.5-20.7-15.9c-0.4-0.1-0.8-0.3-1-0.6c-2.8-3.9-7.3-4.5-11.4-5.8c-4.5-1.4-6.9-4.7-8.5-8.9
		c-0.5-1.3-1-2.7-1.5-4c-1.1-2.4-2.8-3.6-5.5-3.3c-8.9,1.2-17.8,1.3-26.6,2.8c-1.4,0.2-2.8,0.2-4.3,0.2c0-1.2,1.1-0.5,1.4-1.8
		c-0.1-0.4-1-0.2-1.6-0.3c-6.9-1.4-13.6-0.2-20.3,1c-1.8,0.3-2.5,1.4-2.7,3.2c-0.2,2.9-0.7,5.9-1,9.1c-2.1-4.2,2.3-8.8-1.4-12.6
		c0.2-0.8,1.4,0,1.8-0.8c-0.2-0.1-0.4-0.3-0.5-0.3c-4.8,1.9-9.7-1.8-14.8,0.5c-0.8-0.3-1.1-1.7-2.7-1.9c-3.8,2.9-8.7-2.3-13.1,1.6
		c6.3,2.2,12.6,1.2,19.4,1.3c-1.6,1.6-3.1,1.6-4.6,1.7c-6.7,0.6-13.3,0.1-19.5-2.4c-4.1-1.7-7.6,0.7-11.4,0.6
		c-1.1,0-1.6,1.5-1.9,2.7c-0.6,2.6-1.2,5.3-1.9,8.2c9.5,2,19.1,1.6,28.5,3.5c-14.2,0.7-28.2-1.2-42.2-2.3c-1.4,2.3-2.6,4.2-4.6,4.8
		c-0.8,1.3,0.9,1.2,0.6,2.6c-12.7,12.8-27.2,24.6-36.8,41.3c2.2-0.9,4.2-1.7,6.2-2.6c6.3-3,13-4.5,19.8-5.4c4.8-0.7,9.5,0.7,13.8,3
		c3.1,1.7,6.1,3.6,8.4,6.2c9.4,10.6,20.7,19.1,31.2,28.5c1.5,1.4,3.3,2.7,4.4,4.4c0.9,1.5,2.1,0.2,2.9,1.1c0.3,2.2-2.4,5.1,1.4,6.7
		c1-3.3,1.1-6.6,0.8-10.3c-0.7-8.5,0.2-17,2.8-25.3c2.6-8.4,7.6-9.6,13.9-8.9c3.9,0.4,7.5,2.9,11.6,1.1c0.1,0,0.3,0,0.4,0.1
		c6.5,3.3,12.9,6.9,18.1,12.2c-5.2-3.9-10.9-6.8-17.2-9.2c6.7,3,7.1,9.3,8.5,14.9c3.1,2.6,6.5,4.7,8.4,8.5c-2.7-1.8-5.3-3.7-8.5-5.9
		c0,3.5-0.3,6.3-1.1,9c-0.1,0.5-0.2,1.1,0,1.5c2.6,5.8,1.7,11.8,1.5,17.8c1.9-0.5,2.3-2.7,4-3.6c1,2-1.4,2.6-1.5,4.1
		c12.7,3.9,34.1,1.9,50.7-6.7c1.6,2.1,0,3-1.4,3.7c-4.5,2.4-9.4,3.7-14.3,4.7c-12.8,2.6-25.6,3.3-38.4-0.4c-0.3-0.1-0.7,0-1.1,0
		c-1-1.5,0.1-3.1-0.7-4.8c-0.7-1-1.9-1.6-3.2-1.6c-8.9-0.1-17.8,0-27.1,0c-0.2,2-1.4,3.7-0.2,6.1c9.7-0.4,19.5-0.1,29.9,0.4
		c-0.8,2-1.4,3.4-0.2,4.6c-1.8,1.4-3.6,1-5.5,1.6c-0.3,9.6-1.9,19.2-1.2,28.9c0.8,9.8,1.7,19.6,1.9,29.4c0.1,6.4-0.2,7-6.6,6.9
		c-3,0-6-0.2-8.9-0.3c-0.2,0-0.5-0.2-0.7-0.3c-0.4-1.1-0.2-2.2,0.3-3.3c1.4,0,0.7,1.5,1.6,2c3.9,0.2,8,1.3,12.4,0.1
		c0-6.7,0.4-13.5-0.1-20.1c-0.9-12.7-2.1-25.3-0.5-37.9c0.2-1.6,0-3.3,0-5.2c-5.2-1.1-10.6-0.2-15.3-2.9c6.8-0.1,13.7,1.9,20.4,0.1
		c0-0.5,0-1.1,0-1.6c-8.8,0.2-17.6-0.6-26.2,0.2c-0.3,0.4-0.5,0.7-0.5,0.8c1.4,12.6-1,25.4,1.7,37.9c0.9,4,0.6,8.3,0.7,12.4
		c0.2,6.2,0.2,12.4,0.5,18.6c0.2,4.2,0.9,5.6,4.7,6.5c7.5,1.7,14.9,1.1,21.9-2.3c2.5-1.2,3.8-3.3,3.6-5.9c-0.9-10.1,1.1-20.2,0-30.3
		c-1.2-11.9-0.6-23.8-0.8-35.7c0-1-0.1-2.1,0.6-3c1.4,1.6,1.4,1.6,1.5,10.4c0,3.7,0.4,7.5,0.5,11.2s-0.1,7.5,0.1,11.2
		c0.2,3.6,0.8,7.2,1,10.8c0.1,3.7-0.3,7.5-0.2,11.3c0.1,3.7-1.4,7.5,0,11.3c3.1,1.4,6.4,2.5,9.4,4.4c3.3,2.1,4.5,5.2,4.5,8.9
		c0,6.5-1.4,8.8-7.8,10.6c-7.6,2.1-15.4,3.2-23.4,2.6c-6.6-0.5-13.2-0.6-19.8-0.9c-1.3-0.1-2.6-0.1-3.8-0.4
		c-2.2-0.6-5.2-0.7-6.1-2.9c-1.4-3.4-3-6.9-1.8-10.8c0.3-1,0.6-2,2-2.3c1,1.5,0,3,0,4.5c0.3,8.1,1.4,9.1,9.1,10
		c3.3,0.4,6.7,0.2,10.1,0.3c8.9,0.1,17.8,1,26.7-0.7c4.3-0.8,8.6-1.7,12.5-4.3c0.6-3.9-0.4-7.7-1.2-11.6c-3.3-1.4-6.6-2.8-10-4.2
		c-2.7,9.9-11.3,9.4-18.8,10.9c-4.5,0.9-8.6-1.1-12.8-2.2c-1.9-0.5-3.1-1.9-3.6-3.8c-0.4-1.5-0.7-3-1.1-4.9c-3.5,1.2-6.8,2.5-10,4.5
		c2-4.2,6.1-5.8,10.2-7.2c-0.4-11.9,0.3-23.5-2-35c-0.8-4.2-0.3-8.5-0.1-12.8c0.4-7.6,1-15.2-1-22.7c-0.4-1.5-0.7-3.4,0.2-4.6
		c1.8-2.4,0.8-4.6,0.4-6.8c-0.9-0.1-1.2,0.3-1.2,0.9c0.2,5.3-2.2,10.1-3.1,15.1c-0.3,1.9-1.7,2.7-3.4,3.3c-2.3,0.7-4.6,0.8-6.9,1
		c-9.8,0.9-19.6,1.6-29.4-0.5c-4-0.8-7.5-2.8-10.8-5.4c-3.3,3.5-3,7.7-2.8,11.7c0.3,6.3,2.2,12.4,3.6,18.6
		c1.1,5.1,0.9,10.3,0.1,15.4c-1.4,8.7-3.4,17.2-7.5,25.2c-1.8,3.6-3,7.3-2.7,11.5c0.2,3.9-0.7,7.8-2.1,11.4
		c-3.7,9.6-4.6,19.6-5.1,29.7c-0.1,2.6-0.9,5.1-0.9,7.7c0,1.4-0.3,2.9,1.9,2.9c-0.6,3.7-0.5,7,2,9.9c-3.8,5.6-8.7,4.3-14,2.7
		c-0.8-3.5,0.5-7.3,0.6-10.9c-3.5-2.7-6.4-3.4-12.4-2.7c-1.9,4.3-3.4,8.7-1.6,13.7c-1.4-0.8-2.5-0.2-3.7,0.2
		C744.2,613.9,744.1,613.8,744,613.7z"/>
	<path d="M292.8,443.4c-1.4-2.6-1.7-5.4,0.2-7.7c2.9-3.6,1.3-7.6,1.9-11.3c-6.2-4.3-9-10-10.5-17.2c-2.3-11-4.1-22.2-5.6-33.2
		c-1.9-13.7-3.2-27.5-3.1-41.4c0.1-7.6-1.5-15.2-0.4-23c-6.9-0.2-13.3-0.7-19.6-0.1c-0.6,2,0.5,3.5,0.3,5.7
		c-4.9,2.7-9.7,6.1-15.9,2.8c-1.5-0.8-2.7-1.7-2.6-3.5c0.6-8.3-1.3-16.5-0.9-24.8c0.1-1.9-0.5-4.1,2.5-4.2c-0.5-3.3-0.8-6-1.3-9.3
		c-5.9,2.1-11.6,3.6-17.3,5.1c-2.7,0.7-5.4,1.3-8.3,0.9c-5.3-0.7-8.7-3.2-9.6-8.5c-0.5-2.9-2.1-4.2-4.9-4.6
		c-3.5-0.5-6.1-3.1-9.4-4.3c-1.2-0.4-1.8-1.8-1.9-3.2c-0.3-2.3-0.7-4.5-1-6.8c-0.3-3.1,0.3-6.2-0.4-9.4c-0.4-1.9,1.2-3.6,3.2-4.3
		c-0.7-4.9,1.9-8,8.6-7.5c1.1-2.9,0.6-5.8,0.2-8.7c-1.2-8.5-1.3-17-0.3-25.5c0.4-3.3,2.3-5.2,5.5-5.3c3.4,0,6.7,0.7,9.3,2.2
		c2.5,12.7,1.9,25.1,0.7,37.9c-2.9,1.5-3.6,4.3-2.5,7.9c0.8,2.6,2.8,3,4.9,3.2c1.6-1.2,0.1-4.1,2.9-4.3l-0.1-0.1
		c1.1,1.8,1.8,3.7,1.9,5.9c6.9,0.9,13.8,0.6,20.5-0.3c6.9-0.9,13.8-1.9,20.5-4c6-1.8,12.3-1.6,18.5-1.1c4.9,0.4,9.2,0,13.6-2.9
		c4.2-2.7,9-4.5,13.8-6c4.3-1.3,8-3.4,12-5.3c3.7-1.7,4.9-5.3,6.6-8.4c2.4-4.5,6.2-7.6,9.5-11.2c0.8-0.9,2.1-1.7,3.3-1.9
		c6.6-1.2,13.2-2.9,19.8-0.3c2.7,1,5.5,1.5,8.5,2c5.1-5.5,12.4-4.9,19.3-6.3c-1.2-7.5-0.6-15.1-1.2-22.5c-0.2-2.5-0.8-6-2.4-7.1
		c-3-1.9-3.8-4.2-4.8-7.2c-0.9-2.8-3.1-5.1-2.4-8.6c0.7-3.1,2.3-5.4,4.4-7.3c-1.9-9.5,1.4-17.9,4.8-26.2c0.3-0.8,1-1.5,1.8-2
		c2.8-1.4,2.8-1.3,4-2.9c-0.5-1.1-1.1-2.3-1.7-3.7c1.9-0.9,3.3-2.4,3.9-4.5c2.6,0.4,4.4,2.2,6.9,3.5c-0.3-1.9-2.2-2.8-2-4.6
		c2.8-0.4,3.9,0.5,5.7,5.1c0.7-1,0.1-2.4,1.1-3.1c2-0.2,2-0.2,7.3,4.4c3.7-0.9,6.7,0.2,10.3,2.4c4.5,2.9,6.8,7.2,10.4,10.7
		c1.2,1.2,1.8,2.9,1.9,4.6c0.2,2.6,0.4,5.2,1.8,7.4c0.4,0.7,0.5,1.5,0.2,2.2c-1.3,3.6-1.1,7,0.2,10.7c2.3,6.5,0.5,12.7-2.3,18.6
		c-0.2,0.4-0.8,0.6-1,0.8c-1.7,0.4-2-1.2-3.8-1.7c-0.7,8.8-0.5,17.4,0,26.2c6.3,1.4,12.9,0.7,18.7,4c8.8-4.9,18.3-4.3,27.7-3.3
		c2.9,0.3,5.7,1.8,8,3.8c4.5,4.1,8.8,8.3,12.2,13.5c2.3,3.5,5.5,6.4,9.8,7.7c3.2,0.9,6.4,2.1,9.6,3.2c4.4,1.6,8.5,3.7,11.9,7
		c7.1-0.1,13.9,1.3,20.8,2.4c6.4,1,12.7,2.4,19,3.7c5.9,1.3,11.9,0.8,17.7-0.4c1.9-0.4,3.8-0.9,6-0.7c-0.2-2.7,0-5.2,1.9-7.3
		c0.9,3-1,5.7-0.2,8.8c-4.2,2.2-8.8,2.7-13.2,3.1c-6.3,0.5-12.6,0-18.9-1.5c-8.9-2.1-18-3.8-27.1-4.8c-5.3-0.6-6.1-1.1-10.9-4
		c-7.4-4.6-15.6-7.4-24.2-8.9c-2.3-0.4-2.5-0.3-4.5-1.7c0.7-2.1,2.4-0.6,4-1.1c-4.9-4.6-8.3-10.3-13.2-14.5
		c-3.6-3.1-7.7-4.9-12.6-5.3c-6.6-0.6-13.1-1.3-19.6,1.1c-2.4,0.9-4.5,1.9-3.5,5.3c-2.5,0.6-4.8,1.2-7.3,1.8c1,9.3,3,18.2,4.8,27.1
		c1.8,8.6,6.5,16.2,11,23.7c3.1,5.1,6.6,9.4,12.1,13c1.2-8.3-0.9-16.6,1.8-24.1c2.1-0.4,3,0.4,3.9,1.1c1.5,1.1,3,2.1,4.3,3.4
		c6.8,7.1,15.7,8.5,24.9,9.2c5.7,0.4,11.3,0.9,16.8,2.8c3.3,1.1,6.8,1.7,10.3,0.9c2.1-0.5,4.1,0.3,6.1,0.5c5,0.6,10,1.7,15,1.9
		c4.9,0.2,9.8-0.8,14.5-2.2c10.6-3.2,20.7-8,31.3-11.8c0.3-2.9,0.9-5.7,0-8.6c-0.7-2.3,0.5-3.9,2.7-4.2c6.7-1,13.5-1.8,20.3-2.5
		c-3.4,2.3-7.6,1.8-11.3,3l0.1-0.1c-2.3,0.3-4.6,0.7-7,0.5c-1.7-0.2-3.4-0.1-3.3,2.1c0,1.9,1.3,3.1,3.4,2.9
		c3.6-0.4,7.2-0.7,10.8-1.2c2.1-0.3,4-0.3,6.8-0.1c-2.7,1.8-5.3,0-6.4,1.2c-1.7,1.1-1.1,2.4-1.7,3.2c-1.5,0-0.9-1.4-1.4-1.9
		c-3.6,0-7.2,0-11,0c-0.5,2.1,0.2,3.1,2.1,3.2c2.4,0.1,4.9,0.3,7.3,0.5c1.2,0.1,2.4-0.2,3.5,0.2c3.5,1.1,6.8,0.3,10.1-0.5l-0.1-0.1
		c-2.3,3.8-6.6,4.1-10.2,6.1c-0.8,3.8-2.8,7.1-5.8,10c-3.5,3.5-7.4,4.2-12.1,3.4c-4.7-0.9-9.1-3-14.5-2.4c0.5,2.9-0.6,6.2,3.1,7.9
		c0.3,10.8,1.5,21.4,1.3,32c0,2.6-0.8,4.2-3.4,4.7c-4.8,0.8-9.5,2.2-14.3,0.1c-1-4.1-1.4-8-0.4-11.9c1.9,3.2,0.9,6.9,2.3,10.5
		c4.2,0.6,8.5-0.6,13.1-0.1c1.1-11.9-0.7-23.5,0.1-35.2c-4.9,0.9-9.5,1.9-14,0.9c-1,1.3,0.3,3.2-1.5,4.5c-1-2.1-1.5-4.1-1.1-6.1
		c1.6-1.3,3.1,1.2,4.5-0.3c1.4-2.1,4.7-2.1,5.6-5.2c-4.1-0.2-3.3,4.1-5.6,5.3c-2.1-1.1-1.9-3.5-2.8-5.6c-6.3,1-12.6,1.1-19,1.7
		c-1.4,3.8-0.1,7.4,0.1,11c1.6,1,3.4,0,5,0.8c-4.1,2.4-9.4,2.4-13.1-0.2c1.9-1.4,4.1,0.7,6.1-0.8c0.3-3.6-2.2-7.2-0.6-11.4
		c-5.8-0.3-11.2-2.2-17-3.4c0,3.9,0.4,7.4-0.1,10.7c-1.3,10.2,0.8,20.1,1.5,30.1c0.4,6.8,1.2,13.6,0.4,20.5
		c-0.9,7.3-0.3,14.7,0.3,22.1c0.9,11.7,1.7,23.5-0.4,35.2c-1.1,6.4-3.8,11.7-8.8,15.8c-0.6,0.5-1.1,1-1.8,1.6
		c1.5,5,3.2,9.8,5.6,14.4c0.4,0.8,0.9,1.5,1.8,1.9l-0.1-0.1c-0.2,0.8,0,1.5,0.7,2c11.2-7.5,14.8-19.4,16-31.4
		c1.7-16.3,2.4-32.7,1.7-49.2c-0.6-13.2-1.2-26.3-0.6-39.4c-1.8-1.4-4.4-0.6-5.7-2.6c1-0.6,18.7-1.1,22.9-0.4
		c-5.4,1.9-10.2,3.2-16,2.7c2.6,3.1,2.2,6.5,2.2,9.7c0,12.7-0.1,25.3,0.4,38c0.5,13.5-1.5,26.9-1.9,40.3c-0.1,4.9-2.2,9.3-3.5,13.9
		c-2.4,8.6-7.5,15.1-14.6,20.6c3.6,7.2,2.7,14.3,0.7,21.5c-1.2,0-0.6-1.2-1.4-1.4c-0.5,0.9-1,1.9-1.5,2.8c-0.3,0-0.6-0.1-0.9-0.2
		c2.4-5.5,1.2-11.1,0.5-16.7c2.7,1.6,1.1,4.7,2.8,7.2c1-5.2-0.5-9.4-2.5-13.4c-3.1-6-6.1-12-8.5-18.3c-0.8-2.1-2-3.5-4.2-4
		c-2.9-0.7-5.8-1.3-8.6-2.2c-1.3-0.4-1.8,0.2-2.5,1c-3.6-3.2-8-3.6-12.4-2.8c-8.2,1.5-15.4,5.2-22,10c-2.5,1.9-4.3,4.5-5.7,7.4
		c-0.2,1.4,2.1,2,1.4,3.7c-1.2,0.6-1.5-1.3-2.8-0.9c-4.6,8.8-6.9,18.8-12.6,27.4c3.7,2.2,7.7,2.8,11.6,3.7
		c5.5,1.2,10.4,5.1,16.5,3.3c0.9-0.2,0-1.4,1.3-1.9c2.8,2.8,7,4.3,8.8,8.5l0.1-0.1c-5.8-3.3-12.2-3.9-18.7-3.8
		c-4.2,0-8.2-1.2-11.9-3.1c-2.4-1.3-5-2.1-8.2-3.2c1.1,5.9,4.1,10.1,9.3,13.6c-5.6-1.3-8.6-5-11.6-13.6c-1.4,0.5-2.2,1.8-3.1,2.8
		c-1.4,1.5-2.6,3.2-3.9,4.8c0.4,1.4,0.7,2.6,1,3.8c-1.3,0.6-1.4-1.1-2.4-1c-1,0.3-0.9,1.8-2.3,1.9c-0.1-0.4-0.3-0.7-0.3-1
		c1.2-4.6,3.8-8.3,7.2-11.3c5.9-5.2,9.2-11.7,11.5-19c2.1-6.8,4.8-13.4,9-19.3c1.9-2.7,4.3-4.9,7.6-5.7c1.5-0.4,2.5-1.3,3.7-2.1
		c3.7-2.6,7.6-4.8,12.1-6.1c4.6-1.3,9-1.6,13.7-0.2c4.9,1.5,10,2.4,15.8,3.8c-3-5.7-6.8-9.8-11.1-13.2c-4.5-3.5-9.3-6.8-14.2-9.9
		c-4.6-2.9-9.2-4.8-14.1-6.7c-3.7-1.5-5.3-4.7-6.9-8c-0.5-1-0.7-2.2-1.2-3.3c-1.5-3.5-2.8-4.5-6.5-4c-8.7,1.1-17.6,1.2-26.2,2.8
		c-1.2,0.2-2.5,0-3.8,0c0.1-1,1.2-0.4,1.5-1.5c-4.4-0.7-9-1.5-13.4-0.9c-2.6,0.4-5.3,1-8,1.4c-2.2,0.3-3.2,1.2-3.5,3.4
		c-0.5,3.4-0.5,7-1.5,10.4c-1.5-4.6,2.2-9.4-0.8-14c0.4-0.8,1.9,0.4,2.6-1.1c-1.8,0.2-3.5,0.2-5.1,0.7c-2.1,0.6-3.8-0.8-5.7-0.6
		c-1.6,0.2-3.6-1.6-4.8,0.7c-1.4-0.1-1.6-1.7-3.1-2c0,0-0.3-0.2-0.5,0c-1.9,1.3-3.8,0.9-5.9,0.4c-3.1-0.8-3.6-0.7-7,1.1
		c3.2,1.2,6.4,1.4,9.6,1.4c3.1,0,6.2,0,9.6,0c-1.2,1.5-2.8,1.4-4.2,1.5c-6.9,0.7-13.8,0-20.2-2.6c-3.9-1.6-7.3,0.9-11,0.8
		c-1,0-1.5,1.3-1.8,2.4c-0.7,2.7-1.2,5.5-1.9,8.5c9.5,2.1,19,1.5,28.2,3.5c-14.1,0.6-28.1-1.2-42-2.4c-1.4,2.4-2.5,4.3-4.6,4.8
		c-0.8,1.3,0.8,1.3,0.5,2.7c-12.8,12.8-27.2,24.7-36.6,41.1c1.4,0,2.8-1,4.3-1.7c6.7-3.2,13.9-5.1,21.2-6.1
		c5.4-0.8,10.5,0.8,15.2,3.5c5.7,3.1,9.8,8.1,14.2,12.6c3.6,3.6,7.3,7,11.1,10.3c6.2,5.3,12.8,10.2,18.1,16.4
		c0.8,0.9,1.6-0.2,2.2,0.5c-0.4,5-0.4,5,1.7,6.8c0.7-3.2,1.2-6.1,0.8-9.5c-1.1-10.4,0.2-20.7,4.4-30.4c1.5-3.3,5-5.1,9.1-4.9
		c3,0.2,5.9,0.6,8.8,1.4c1.6,0.4,3.2,1.2,4.8,0c0.8-0.6,1.8,0,2.6,0.4c5,2.9,10.3,5.4,14.6,9.4c-0.1,0.1-0.2,0.2-0.3,0.4
		c-4.2-2.3-8.5-4.7-12.7-7c-0.7-0.4-1.7-1.2-1.8,0.6c-1.3,1.4-2.6,0.4-4,0.2c-4-0.8-8-2.2-11.7-1.1c-7.9,7.2-8.8,16.3-8.4,26.2
		c8.1-4.1,16.2-3.8,24.4-1.7c2,0.5,3.2-0.2,3.7-2.3c1.5-6.2,1.1-12-3-17.2c-1-1.2-2.8-2.3-1.1-4.3c4.3,1.5,6.8,4.5,7.4,9
		c0.5,3.8,2.3,6.6,5.6,8.7c2.8,1.8,5,4.3,6.8,7.2c-3.3-2.8-6.9-5.2-10.8-7.9c-0.6,3.3-0.7,6.4-1.8,9.2c2.5,6,2.3,12.1,1.6,18.5
		c2.2-0.1,2.3-2.7,4.2-3.2c0.8,1.9-1.4,2.6-1.7,4.4c17.7,3.6,34.4,0.7,50.9-6.8c1.6,1.8,0,2.7-1.5,3.5c-4.8,2.5-9.9,3.8-15.1,4.9
		c-10.6,2.4-21.3,2.4-32.1,0.9c-0.9-0.1-1.8-0.3-2.5-0.4c-1.2,22.2,2.7,44.2,0.4,66.2c3,1.3,5.6,2.4,8.1,3.7c3.9,2,6.4,5,6.4,9.7
		c0,6.8-1.3,9-7.9,10.9c-7.6,2.1-15.4,3.2-23.4,2.6c-6.4-0.5-12.9-0.6-19.4-0.9c-1.5-0.1-3.1-0.1-4.6-0.6c-2.2-0.6-5.1-0.7-5.9-3.2
		c-1.1-3.6-3.1-7.2-1.3-11.2c0.3-0.7,0.5-1.5,1.6-1.5c1,0.4,0.6,1.2,0.5,2c-0.2,1-0.4,2-0.4,3.1c0,6.3,2.3,8.9,8.6,9.4
		c3.5,0.3,7,0.2,10.5,0.2c9,0.1,18.1,1,27.1-0.7c4.3-0.8,8.6-1.6,12.5-4.4c0.3-3.9-0.6-7.6-1.6-11.4c-3.3-1.4-6.7-2.8-10.3-4.3
		c-0.4,6.2-4.9,8-9.8,9.4c-3.9,1.1-7.8,1.8-11.9,1.7c-3.7-0.1-7.1-1.5-10.4-2.7c-3.4-1.3-3.2-4.9-3.7-8.2c-3.7,0.9-6.9,2.5-10.1,4.6
		c1.7-3.6,1.7-3.6,10.2-7.6c-0.9-11.4,0.5-22.9-2-34.3c-0.8-3.6-0.3-7.2-0.3-10.9c0.2-8.8,1.2-17.6-1.2-26.3
		c-0.3-1.1-0.4-2.5,0.3-3.4c1.8-2.3,0.9-4.6,0.8-6.8c-0.7-0.1-1.1,0-1.2,0.4c-0.3,5.1-2,9.9-3.1,14.8c-0.5,2.3-1.7,3.6-4,4.2
		c-2.1,0.6-4.3,0.7-6.5,0.9c-9.8,0.9-19.6,1.6-29.4-0.4c-4.1-0.8-7.6-3-11.2-5.5c-3.1,4.5-3.1,9.3-2.4,14c0.6,4.4,1.1,8.9,2.8,13.2
		c1.7,4.3,1.5,9,1.2,13.5c-0.7,8.1-1.9,16.2-5.2,23.8c-1.5,3.4-3,6.9-4.4,10.4c-0.8,1.8-1,3.6-0.9,5.7c0.2,4-0.3,8.1-1.8,11.8
		c-3.8,10.1-5,20.6-5.6,31.2c-0.1,2.2-0.3,4.4-0.8,6.5c-0.4,1.8-0.3,3.6,2,4.3c-1.3,3.6-0.1,6.7,1.8,9.8c-3.7,5.3-8.6,4-14,2.5
		c-0.6-3.5,0.7-7.2,0.5-11.3c-3.5-2.8-7.7-2.6-12-2.4c-1.9,4.4-3.6,8.6-1.9,13.7c-1.4-0.9-2.5,0-3.7,0.4c-0.1-0.1-0.2-0.2-0.4-0.2
		c0.4-1.9,0.6-3.8,0.5-5.8c0-3.2-0.1-6.5,1.8-9.4c0.8-1.2,0.2-2.2,0.1-3.3c-1.3-12.1-4.5-23.9-4.7-36.1c-0.1-11.4-1.7-22.5-3.8-33.7
		c-1.7-9.2-1.5-18.4-0.6-27.8c1.1-10.8,1.8-21.6,4.5-32.2c0.9-3.6,0-7.4,1.7-10.9c0.6-1.3-0.5-2.7-0.7-4.1c-0.3-2.5-1.4-5.1,0.4-7.4
		c0.7,0.1,1.5,0.3,1.7,0.9c1.2,3.8,3.3,7.5,2.7,11.5c-0.6,4.2-1.3,8.4-1.1,12.7c0.2,5.4-2.1,10.3-2.9,15.6
		c-2.8,18.9-3,37.6,1.8,56.2c1.3,4.9,1.8,9.9,1.4,15c-0.4,4.2,0,8.5,1.1,12.7c1.5,5.8,1.3,11.8,1.8,17.7c0.7,7.6,0.5,7.6,7.6,9.9
		c0.5,0.2,0.9,0.5,1.4,0.7c0.4,0.1,0.8,0.2,1.2,0.3c1.7,0.7,3.9,0.5,4.8,2.5c0.4-1.8,1.1-3.1,3.3-2.5c1.3,1,0.7,2.3,0.8,3.3
		c0.2-1.8-0.3-3.4-1.4-5.2c-1.6-2.4-1.7-5.4,0.3-8c0.7-1,1.3-1.9,1.3-3.1c0.5-18.6,4.3-36.5,11.6-53.8c3.9-9.2,5.3-19.5,4-29.7
		c-0.6-4.7-1.6-9.4-2.3-14.2c-1.2-7.4-0.6-14.7,3.4-21.4c3.3-5.5,8.5-7.2,14.4-7.9c7.7-1,14.6-4.3,21.3-8c0.6-0.3,1-0.9,1.2-1.7
		c-0.2-2.5-2.5-3.7-4.2-5c-5.3-4-9.4-9.2-13.9-14c-4.8-5-10.4-8.5-16.4-11.5c-4.3-2.1-9-2.3-13.7-1.5c-7.2,1.2-14,3.6-20.9,6
		c-3.3,1.1-3.8,3.9-3.6,7c0.3,5.6-2.9,10.1-5,14.8C293.9,443.2,293.3,443.3,292.8,443.4z"/>
	<path fill="#FFFFFF" d="M309.1,597.7c-3.3-0.6-6.6-1.2-10.1-0.9c-1.1-2.9-1.4-5.9-1.7-8.8c-0.6-5.7-0.2-11.4-1.5-17
		c-1.6-6.9-1.2-13.8-1.4-20.8c-0.1-5.2-1.3-10.5-2.5-15.7c-4.9-21-3.3-41.8,1.9-62.6c0.5-2.1,0.7-4.1,0.4-6.4
		c-0.4-2.7-0.4-5.6,0.5-8.4c1.6-4.9-1.4-9.3-2.1-13.9v0.1c0.1-3.7,2.2-6.6,3.6-9.7c1.1-2.4,2.2-4.8,0.1-7c0.8-2.7,1.8-4.9,3.2-7.1
		c8-1.7,15.5-5.5,23.8-6.7c3.5-0.5,7-0.8,10.4,0.3c8.7,2.9,16.5,7.4,22.2,14.8c4.9,6.3,11.5,10.8,17.3,16.1c1,1,2.4,1.6,3,3.1
		c-5,4.3-11.2,6.3-17.2,8.8c-3.2,1.3-6.5,2.2-10.1,2.5c-7,0.6-12.2,3-15,13.6c-1.9,7.2-0.5,13.8,0.8,20.6c2,10.2,1,20.2-0.9,30.4
		c-1.3,7.1-5.4,12.8-7.1,19.5c-3.7,14.3-6.7,28.6-7.1,43.5c0,0.6-0.1,1.3-0.1,1.8c-0.5,1.1-1.2,0.3-2,0.4c-0.3,1.9-1.3,4,1.6,5.4
		c-1.8,3.9,1.1,7.4,1.6,11.1c-1.4,0.5-2.2,0-3-0.4c-0.3-2.3-0.5-4.7-0.9-7.4c-2.6,2.7-0.3,6-1.9,9.1c-1.4-2.2,0-4.2-1.4-5.6
		C312.3,599.2,310.6,598.6,309.1,597.7c0.9-1.2,0.7-2.6,0.7-4C309.8,595.1,309.9,596.5,309.1,597.7z"/>
	<path d="M486.3,458.5c0.8,0,1.2,0.5,1.4,1.1c2,5.3,3.2,10.5,2.9,16.4c-0.3,6.8-2.7,13.1-3.7,19.7c-1.4,9.5-1.3,18.8,3.3,27.7
		c3.9,7.6,6.6,15.6,9.5,23.6c0,0.1,0.1,0.2,0.1,0.4c0.1,7.2,3.6,13.9,3.6,21.2c-0.1,6.2,0.5,12.4,1.2,18.6c0.3,2.6,0,5.2-0.6,7.7
		c-0.3,1.5-0.4,2.6,1.6,2.6c0.9-1.8-0.1-3.8,0.6-5.6c1.4,1.7,1.2,3.8,1.3,6c4.3,2.4,7.2-2.6,10.9-1.6c1-2.7-0.1-5,0.8-7.2
		c1.8,1.8,1.1,4.1,1.6,6.2c1.9,0.4,3.6,0.2,5.7-0.2c-1.5-8-1-16-0.5-23.9c0.7-11.4,3.8-22.5,5.5-33.7c1.7-10.7,4.1-21.3,5.1-32.2
		c0.5-5.3-0.4-10.6-1-15.9c-0.8-7.6-2.4-15.1-4.4-22.4c-1-3.7-1.8-7.5-2.6-11.3c-0.6-3-0.2-5.9,0.6-8.7c1,0.1,1.5,0.7,1.4,1.4
		c-1.5,7,1.4,13.2,3.1,19.6c2.7,10.3,4.5,20.7,5.4,31.3c0.2,2.6-0.1,5.2-0.1,7.8c-0.5,18.5-5.7,36.1-9.3,54
		c-0.9,4.6-1.4,9.2-1.4,13.9c0,5.3-0.3,10.6,0,15.9c0.3,5.2,1.4,10.5,3.8,15c1.6,3.1,3.6,6.1,5.4,9.2c1.6,2.8,3.1,5.8,3.8,8.9
		c1.7,7.9,5.5,14.7,9.8,21.3c2.1,3.2,0.8,6.4,1.3,9.5c1.1,6.2,0.2,12.4-2.7,18.1c-0.2,0.3-0.5,0.7-0.5,1c-1.2,4.8-1.2,4.8-6,4.5
		c-3.7-0.2-7.4-0.5-11.1,0.6c-2,0.6-4.4,0.6-6.6,0.5c-2.2-0.1-4.2-0.3-6.3-1.4c-6.7-3.7-14.2-6.3-15.4-15.5c-0.5-4.2,0-8.3,1.5-12.2
		c0.9-2.2,0.8-4.2-0.2-6.4c-9-1.9-14.5-7.8-18.1-16c-1.1-2.5-0.4-4.3,1.2-6.3c3.6-4.8,7.2-9.6,6.8-16.2c-0.2-3.7,1.7-6.5,4.1-9.7
		c0.7,1.9-0.2,3-0.7,4.1c-1.1,2.4-2,4.8-1,7.5c0.4,1.1,0.3,2.4-0.2,3.4c-2.3,4-3.7,8.5-6.5,12.2c-1.7,2.3-1.2,4.7-0.2,6.9
		c1.4,3.4,3.8,6.1,7,8.1c2.1,1.3,4.2,2.4,6.4,3.7c0.5-1.9-1.9-3-0.4-5.7c2,4.1,4.4,7.4,4.1,11.7c-0.2,3.2-0.7,6.4-1.1,9.6
		c-0.2,1.2-0.1,2.3,0,3.5c0.5,6.4,3.6,10.4,9.5,13.4c6.6,3.3,12.9,4.1,19.7,1.6c3.1-1.1,6.4,0.5,9.7-0.1c0.9-0.6,1.6-1.5,2-2.6
		c2.5-7.5,4.1-15,1.9-22.9c-0.4-1.5-0.8-3-1.1-4.5c-0.2-1-0.5-1.8-1.4-2.2c-3.9-1.9-4.7-5.7-5.7-9.2c-1.4-5.1-2.7-10.2-4.7-15.2
		c-1.6-4-4.4-6-8.7-5.8c-5,0.3-10,0.7-14.2,4.8c-0.3-3.6,1.6-5.2,4.2-6c4.9-1.5,9.8-2.2,14.9-0.2c0.6-2.9-1.5-3.6-3.2-4.4
		c-1.2-3.2-0.5-6.6-1.5-9.8c-4.3-0.7-8.5,0.8-12.7,0.7c-3.1,4.2,2.2,9.6-1.8,13.5c-2.1,0-0.4-2.1-1.8-2.6c-2.5,1-5.1,2.1-7.8,3.3
		c-4.2-2.5-2.2-7-3.7-10.2c2.3,2.1,2.3,5.3,4,7.7c2.6-0.3,4.7-1.4,6.9-2.6c0.4-2.5-1-4.9,0.5-7.9c-4.3,1.2-7.6-0.1-11.2-0.8
		c-0.9-2,1.5-3.9,1.7-6.3c0.3-5-0.5-9.8-0.9-14.7c-0.8-8.9-1.4-17.8-3-26.6c-1.2-6.8-3.6-13.5-6.8-19.7c-2.3-4.6-4.3-9.4-6.4-14.1
		c-2.5-5.6-2.1-11.7-1.2-17.6c1.2-7.5,2.8-15,4.3-22.5c1.1-5.3,1.5-10.5-1.1-15.5C486.2,460.7,486.1,459.6,486.3,458.5L486.3,458.5z
		"/>
	<path d="M306.9,623.9c1.5,1.8,4.9,1.3,5.2,4.3c-0.8,1.3-1.7,0.8-2.5,0.5c-6.1-2.1-12.5-2.2-18.7-3.2c-1.3-0.2-2.7-0.6-2.7,1.8
		c7.5-0.2,15.1-0.8,21.3,4.6c-3.7,2.5-7.4,0.4-11,0.2c-3.7-0.2-7.4-1.1-11.1-1.8c-1.3,1.5-2,3.2-2.7,4.8c-1.8,4.1-3.1,8.5-5.4,12.5
		c-2.6,4.6-3.3,9.8-3.7,15c-0.4,4,0.4,7.9-0.8,11.9c-0.8,2.8,5.1,8,8.3,7.5c5.7-0.9,11.5-0.6,16.9,1c5.5,1.7,9-1,12.8-4.1
		c4.5-3.6,6.2-8.4,7.6-13.6c0.5-2.1,0.3-4.1-0.1-6.2c-0.5-2.7-1-5.3-1.4-8c-0.8-4.9,1.4-8.6,4.5-12.4c1.3,2.3-0.7,3.6-0.9,5.7
		c3-1.9,5.7-3.3,8.1-5.2c4.2-3.4,4.4-10.9,0.8-16.4c-0.9-1.4-2-2.7-2.9-4.1c-1.1-1.8-1.4-3.6-1.5-5.8c-0.3-4.9,0-10.2-4.2-14.1
		c-0.3-0.3-0.5-0.6-0.6-1c-0.1-0.2,0-0.5,0-0.7c5.8,0.8,7.5,12.3,7.2,19.4c1.8,2.8,4.1,5.2,5.5,8.4c3.5,8.3,0.1,14.2-4.8,17.3
		c-2.4,1.5-4.6,3.4-7.3,4.4c-2,0.7-2.5,2-1.8,3.9c0.6,1.8,1,3.7,1.5,5.6c2.4,8.5,0.4,15.6-6.1,21.8c-2.6,2.5-4.9,5.3-8,7.2
		c-2.3,1.3-4.7,1.9-7.1,1.1c-5.9-2-11.9-2.2-18-1.4c-4.8,0.6-10.5-3.2-10.6-7.6c-0.3-12-1-24.1,6.5-34.7c0.4-0.6,0.9-1.4,1-2.1
		c0.7-8.7,5.4-15.7,9.4-23.1c0.8-1.5,1.7-3.3,3.8-3.5c0.1,0.1,0.2,0.2,0.4,0.2c5.4,1,10.8,1.7,16,3.5c1.6,0.6,3.2,1.1,4.4,2.9
		c-1.4,1.2-0.1,3.2-1.1,5C310.8,625.3,309,623.8,306.9,623.9L306.9,623.9z"/>
	<path d="M744.3,614c5.2,1.2,10.6,1.7,15.7,3.6c1.7,0.6,3.4,1.2,4.6,3c-1.2,1.3-0.8,3.1-0.8,4.5c-2.3,1-3.5-1.8-5.4-0.7
		c1.3,1.4,4.1,1.2,4.1,4.7c-7.7-2-15.4-2.9-23-3.8c-0.8,0.6-0.9,1.3-0.7,2.1c7.5-0.5,14.9-0.6,21.4,4c-1.4,2.9-3.2,2-4.7,1.8
		c-5.9-0.8-11.7-1.8-17.6-2.7c-1.1,0.7-1.5,1.7-1.5,3l0.1-0.1c-0.1,0-0.3,0-0.4,0.1c-4.6,10.7-11.1,20.9-10.1,33.3
		c0.1,2,0,4.2-0.3,6.2c-0.7,4.7,3.7,9.6,8.3,8.9c5.9-0.8,11.7-0.2,17.3,1.3c3,0.8,5.4,0.4,8.1-1.2c6.8-4.3,10.7-10.4,11.8-18.2
		c0.6-4-1.2-7.9-1.8-11.8c-0.9-5.3,1.3-9.1,4.5-13.2c1.4,2.2-0.7,3.3-0.7,4.9c9-4,10.7-6.1,11.2-13.2c0.2-2.7-0.8-5.2-2.3-6.8
		c-4.3-4.5-4.9-10.1-5.1-15.7c-0.2-3.8-1.4-6.8-4-9.4c-0.4-0.4-0.6-0.8-0.5-1.4c5.7,0.7,7.7,10.9,7.3,19.2c1.5,2.8,4,5,5.2,8.1
		c3.3,8.1,1.6,13.9-5.8,18.6c-2.1,1.3-4,2.9-6.3,3.8c-1.8,0.7-2.4,2-1.6,4c0.8,2.2,1.3,4.5,1.8,6.7c1.9,8-0.2,14.7-6.2,20.3
		c-2.5,2.4-4.6,5.2-7.7,7c-2.6,1.6-5.3,2.2-8.2,1.2c-5.4-1.8-10.8-2-16.5-1.4c-7.5,0.9-11.5-3.2-11.3-10.7c0.1-2.7-0.2-5.4-0.3-8.1
		c-0.2-8.2,1.8-15.9,6.2-22.9c0.5-0.9,1.3-1.8,1.4-2.7c0.8-8.8,5.5-16,9.6-23.4c0.8-1.5,1.8-2.9,3.7-3.1
		C744.1,613.8,744.2,613.9,744.3,614z"/>
	<path d="M620.9,228.2c-2.2-4.3-7.6-5.4-11.1-2.2l0.1-0.1c-2.8,1-5.4,2.5-8.5,2.4c-0.9-1.9,0.1-2.9,1.8-3.6c3.2-1.3,4.2-3.9,4.2-7.2
		c0-8.4,0-16.8,0-25.2c0-0.8,0-1.6-0.2-2.3c-0.4-1.8-1.2-3.2-3.3-3.2c-1.9,0.1-2.5,1.6-2.7,3.3c-0.5,5.2-0.8,10.3,0,15.5
		c1.1,7.1,0.8,14.2,0,21.3c-0.1,0.5,0,1,0.4,1.4c0.1,2.2-2.9,4-0.6,6.8c5.9-1,11.5-3.6,17.6-4.9c0.5,1.4-0.7,1.3-1.2,1.4
		c-5,1.7-10,3.6-15.2,4.5c-2.2,0.4-4,1.1-3.4,4.2c-2.4-2.3-2.4-2.3,0.5-5.1c-0.5-3.2-5.5-2.3-5.6-6.3c2.1,0.6,3.8,4.4,6.2,0.7
		c-0.8-2-1.6-4-2.4-6.3c-2.5-0.1-4.3,1.6-7.1,2.8c1.6-4,5.2-3.8,7.7-5.5c-0.1-12.4-1.9-24.9,0-37.5c2.9-1.7,7.4-1.5,13.1,0.8
		c0.4,12.6-0.1,25.3-0.3,38.1c2.4,1,4.6,0.3,6.7,0.7C621,223.5,622,225.2,620.9,228.2L620.9,228.2z"/>
	<path d="M485.9,222.5c-0.5,2.5-3.1,2.2-4.6,3.2c-1.6,3.6-3.7,7-4.5,10.7c-1.8,7.5-7.3,10.4-13.7,12.5c-1.3,0.4-2.1,1.1-2.8,2.4
		c-0.8,1.4-2.5,2.1-5,2.8c2.6-3.4,3.5-7.3,7.5-8.6c6.5-2.1,10.1-6.5,11.8-13c1.2-4.4,3.8-8.1,8.3-9.9
		C483.9,222.1,484.8,221.4,485.9,222.5z"/>
	<path d="M308.7,637.5c-3.4,1.9-15.7,0.3-22.4-2.8C289.1,631.1,305,632.9,308.7,637.5z"/>
	<path d="M736.4,633.5c8-2,15.4,0.1,22.6,2.8c-0.2,2.3-1.4,2.6-2.6,2.4c-6.2-0.7-12.4-1.1-18.3-3.2
		C737.1,635.1,736.2,634.7,736.4,633.5L736.4,633.5z"/>
	<path d="M479,236.4c5.5,3.2,11.2,4.5,15.7,8.1c4.4,3.6,10.8,2.1,15.4,6.4c-4.3,1.8-7.9-0.8-11.4-1.4c-3.7-0.6-7-3.6-10.4-5.7
		C485.2,241.8,480.6,241.8,479,236.4z"/>
	<path d="M305.4,643.1c-3.1,2.7-11.2,1.8-20.1-2.3C288.7,638.5,301,639.7,305.4,643.1z"/>
	<path d="M735.9,640.4c6.9-1.9,13.3,0.2,20,1.8c-0.7,2.7-2.3,2.9-3.8,2.7C746.5,644.2,740.9,643.5,735.9,640.4z"/>
	<path d="M534.8,619.7c-8-3.1-14.3,0.1-20.6,4.6c-1.4-1.8-0.5-3.3,1.1-4.4c5-3.3,10.4-5.1,16.5-3.7
		C533.3,616.6,534.9,617.3,534.8,619.7z"/>
	<path d="M406.9,393.8c0,0.4-0.2,0.8-0.7,0.7c-17.8-2.7-35.8-3.4-53.6-5.6c-0.1,0-0.2-0.2-0.5-0.4c5.9-0.4,11.5,0.5,17.1,0.9
		c10.3,0.8,20.6,1.9,30.9,2.9C402.5,392.6,404.8,393,406.9,393.8L406.9,393.8z"/>
	<path d="M857.7,393.9c-0.4,0.7-0.9,0.8-1.6,0.6c-14.3-2.4-28.8-2.8-43.2-4.5c-3.5-0.4-6.9-1.1-10.4-1.2c5.8-0.8,11.5,0.2,17.2,0.7
		c10.3,0.8,20.6,1.9,30.9,2.9C853.1,392.6,855.5,393.2,857.7,393.9L857.7,393.9z"/>
	<path d="M751.2,648.6c-1.9,0.7-2.1,2.4-3.9,3.5c-2.4-1.2-5.9-0.6-7.5-4.3c-0.4-0.8-2.1-1.1-3.3-1.6
		C739.4,643.7,747.1,644.8,751.2,648.6z"/>
	<path d="M985.5,619.9c-8.3-3.3-14.6,0-20.6,4.2c-1-2.1-1-2.8,0.8-4.1c5-3.3,10.5-5.1,16.5-3.7C983.8,616.6,985.1,617.4,985.5,619.9
		z"/>
	<path d="M537,624.4c-8.3-1-16.3-2.2-21.9,5.3c-0.9-2.3,0.7-5.3,4.1-7C524.9,619.8,534.3,620.3,537,624.4z"/>
	<path d="M538.6,628.7c-7.5,0.6-14.6,1.2-21.7,3.6C519.4,626.6,534.5,623.9,538.6,628.7z"/>
	<path d="M297.9,652.9c-3.6-2.2-7.2-1.5-8.6-5.2c-0.3-0.8-2.2-1-3.4-1.5c2.9-2.5,10.4-1.5,14.5,2C300,649.9,297.8,650.1,297.9,652.9
		z"/>
	<path d="M988.5,628.3c-7.2,1-14.3,1.6-21.3,3.5c3.5-4.4,8.4-5.4,13.5-5.5C983.3,626.2,986.5,625.3,988.5,628.3z"/>
	<path d="M965.3,630.2c-0.1-4.6,2-7,7.1-8.5c5.9-1.8,12.7-0.8,14.8,2.6C979.1,623.5,971,622.1,965.3,630.2z"/>
	<path d="M817.1,414.3c12.1-5.1,25.3-6.5,37.9-11.3c-1.5,2.1-1.5,2.1-3.8,3c-7.4,2.8-15.2,4.1-22.9,5.7
		C824.6,412.5,820.9,413.7,817.1,414.3z"/>
	<path d="M437.7,402.8c-10,4.1-20.7,5.1-31.3,6.2c0.1,0.3,0.1,0.6,0.2,0.9c-0.8-0.6-1.5-1.2-2.5-1.9c1.6-0.7,2.5-1.8,2.7-3.4
		c0.2,0.7,0.4,1.4,0.6,2.3C417.7,406.5,427.7,404.8,437.7,402.8z"/>
	<path d="M404.5,403.7c-11.7,6.6-25.3,6.7-37.8,10.7C378.7,409.1,392,407.8,404.5,403.7z"/>
	<path d="M888.5,402.7c-10.1,4.2-20.9,5-31.7,6.4c0,0.3,0.1,0.6,0.1,0.9c-0.7-0.6-1.4-1.1-2.2-1.8c1.2-1,2.6-1.8,2.7-3.7
		c0.2,0.7,0.3,1.5,0.5,2.4C868.3,406.4,878.4,404.8,888.5,402.7z"/>
	<path d="M816.4,377.2c13.7,1.3,27.6,1.1,40.8,6C843.9,379.9,830,380,816.4,377.2z"/>
	<path d="M365.6,377.1c13.8,1.4,27.9,1,41.1,6.1C393.3,379.8,379.2,380,365.6,377.1z"/>
	<path d="M989.7,633.4c-6.3,1.7-12.3,1.4-18.8,1.7C974.9,631.6,985.8,630.6,989.7,633.4z"/>
	<path d="M940.3,439.2c-6.9,5.1-17.6,1.3-19.5-6.8C926.1,438.3,932.2,440.5,940.3,439.2z"/>
	<path d="M470.7,433c5,5.4,11.2,7.4,19.1,6.2c-2.8,2.5-5.4,3.3-8.2,2.2C477.1,439.8,471.4,439.7,470.7,433z"/>
	<path d="M521.1,634.3c5.6-2.7,11.5-3,17.9-2C537.1,634.4,527.3,635.5,521.1,634.3z"/>
	<path d="M481.8,381.5c-11.2,3.8-22.7,6.9-34.7,7.9C458.7,386.8,470.2,384.1,481.8,381.5z"/>
	<path d="M930.8,382.1c-4.9,2.5-10.3,3.1-15.5,4.4c-5.7,1.5-11.5,2.8-17.4,3.2c5.6-2.2,11.6-3.1,17.4-4.4
		C920.5,384.3,925.5,382.3,930.8,382.1L930.8,382.1z"/>
	<path d="M862.3,383.2c8-3.3,16.6-4.7,25.3-5.7c-8.3,2.3-16.6,4.6-25,6.9C862.6,384,862.4,383.6,862.3,383.2z"/>
	<path d="M916.2,365.6c-7.5,3.6-15.6,4.2-23.6,5.4C900.2,368,908.3,367.1,916.2,365.6z"/>
	<path d="M524.1,479.3c-1.4-1.4-1.2-2.6-0.8-3.8c0.4-1.5,0.8-3,1.1-4.5c1.1-4.9,3.1-9.7,1-14.9c-0.7-1.8-0.4-4.3,1.1-6.1
		c0.2,4.1-0.3,8.2,1.2,12.1c0.2,0.5,0,1.3-0.2,1.9C525.1,468.7,525.1,473.9,524.1,479.3z"/>
	<path d="M436.8,377.6c-8.2,2.3-16.4,4.5-24.7,6.8c-0.1-0.4-0.2-0.7-0.3-1.1c8-3.4,16.5-4.7,24.9-6.5
		C436.8,377.1,436.8,377.3,436.8,377.6z"/>
	<path d="M442.5,371c7.5-2.9,15.4-4.1,23.4-5.3C458.6,369.3,450.5,369.7,442.5,371z"/>
	<path d="M989.4,636.3c-5,2.5-10.4,2.7-15.9,2.2C978.6,636,983.9,635.6,989.4,636.3z"/>
	<path d="M404.7,397.1c-9.4-0.4-18.7,1.3-28.1,0.2C386,396.2,395.3,395.8,404.7,397.1z"/>
	<path d="M826.7,397.3c9.4-1.1,18.9-1.4,28.3-0.3C845.5,396.8,836.1,398.3,826.7,397.3z"/>
	<path d="M537.4,643.6c-2.3,2.5-5,0.7-7.7,0.8c0.1-1.4,0-2.6-2.2-2.9c3.5-1,6.3-1.8,9-2.5c0.9,1.6-0.7,1.8-1.2,2.6
		C535.9,642.2,537.4,641.7,537.4,643.6z"/>
	<path d="M976.8,449.8c-0.3,4.1-0.2,8.2,1.3,12.1c0.2,0.4,0.1,1.1-0.1,1.5c-2.5,4.9-2.4,10.4-3.7,16c-1.1-1.4-1-2.9-0.6-4.1
		c1.1-3.6,1.2-7.4,3-10.8c0.7-1.4,0.4-2.7-0.1-4.1C975.5,456.9,975.6,453.3,976.8,449.8z"/>
	<path d="M523.3,638.4c5-2.3,10.3-2.8,15.9-2.7C537.5,638.2,531.3,639.3,523.3,638.4z"/>
	<path d="M985.5,641.7c0.8,0.4,2,0,2.2,1.3c0,1.8-1.8,2.1-7.6,1.2c0.1-1.2,0.2-2.4-2.1-2.8c3.5-1,6.3-1.7,9.1-2.5
		C987.9,640.8,985.9,640.7,985.5,641.7z"/>
	<path d="M620.8,228.3c2.2,0,3.4,1.4,5.1,2.8c-2,2.7-2.2,5.4-1,8.3c0.7,1.7-0.7,3.2-1.2,5c1.8,2.4,1.3,4.6-1.2,6.5l0.1,0.1
		c0-2.2,1.3-4.5-0.7-6.5c1.5-2.6,2.1-5,0.7-7.7c-1-1.9,1.7-3.4,1.2-5.4C623.4,229.9,621,230.1,620.8,228.3L620.8,228.3z"/>
	<path d="M868.4,412.1c7.3-0.7,18.4,0.6,21.9,2.3C883,413.2,875.5,414.7,868.4,412.1z"/>
	<path d="M854.1,507.9c-0.5,8,0.5,16,1.2,24.3C852.5,529,851.8,513.5,854.1,507.9z"/>
	<path d="M957.5,512.9c-2.4-6-2.6-11.7-0.6-15.5C957.7,502.5,958.2,507.7,957.5,512.9z"/>
	<path d="M853.8,472.6c-0.4,8.1,0,15.4,0.7,23C852,490.8,851.7,481.7,853.8,472.6z"/>
	<path d="M506,497.4c1.1,0.3,1.3,0.9,1.3,1.4c-0.1,4.6,0.6,9.3-0.3,13.9C505.4,507.7,504,502.7,506,497.4z"/>
	<path d="M418.1,412c7.3,0.6,14.7-0.1,21.7,2.3C432.6,413.2,425.2,414.6,418.1,412z"/>
	<path d="M407,393.9c0-0.1,0-0.3,0-0.4c1.1-6.5,2.5-13-0.7-19.5c2.7,3.5,3.6,7.4,3.4,11.5c-0.2,2.5-0.8,5.1-1.3,7.6
		C408.2,394,407.5,393.8,407,393.9L407,393.9z"/>
	<path d="M857.8,393.9c-0.3-1.1-0.6-2.3-0.2-3.4c1.8-5.2,1-10.2-0.8-15.2c-0.1-0.3-0.1-0.7-0.1-1.2
		C860.9,377.7,861.3,387.6,857.8,393.9L857.8,393.9z"/>
	<path d="M860.5,399.2c6.6-4.9,14.1-6.9,22.2-7.4C875.1,393.7,867.5,395.6,860.5,399.2z"/>
	<path d="M432.7,391.9c-8.1,1.8-15.4,3.8-22.8,7.9C413.1,395.5,424.9,391.5,432.7,391.9z"/>
	<path d="M505.3,494.4c-1.8-3-3-5.3-4.5-7.6c-1.4-2.1-2.9-4.2-4.4-6.3C500,480.6,504.4,487.1,505.3,494.4z"/>
	<path d="M955.8,494.7c-3.2-5.3-5.4-10.1-9.4-14.1C950.5,480.6,954.9,487.3,955.8,494.7z"/>
	<path d="M793.2,265.7c2.7-2.8,4.9-1,7.1-0.3c2.2,0.7,4.5,0.2,6.7,0.8C802.4,270.1,798.2,265.4,793.2,265.7z"/>
	<path d="M963.9,449.4c-6.4-1.4-8.4-3-8.8-6.6C958.2,444.5,961.1,446.2,963.9,449.4z"/>
	<path d="M513.4,449.3c-6.2-1.1-8.4-2.9-8.8-6.6C507.8,444.5,510.7,446.2,513.4,449.3z"/>
	<path d="M564.9,283.1c-3.2,1.8-6.6,1.3-9.9,0.7C558.2,282,561.5,281.5,564.9,283.1z"/>
	<path d="M569.2,286.7c0.9,3,1.5,6,0,9.1C568.7,292.7,568.2,289.7,569.2,286.7z"/>
	<path d="M583.3,256.7c-2.4,3.1-6.2,2.8-9.4,3.8C576.4,257.8,580,257.8,583.3,256.7z"/>
	<path d="M586.7,245.8c2.3-1.4,4.7-2.6,8.1-1.7C592.2,246.7,589.4,246,586.7,245.8z"/>
	<path d="M217.4,240.9c0.6-3.3-1.2-5.5-3.7-7.4c2.6,0.1,4,1.7,4.9,3.8C219.3,239,218.7,240,217.4,240.9L217.4,240.9z"/>
	<path d="M962.3,415.5c-2-2.2-3-4.9-3.8-7.6C961,409.8,962.5,412.3,962.3,415.5z"/>
	<path d="M510.7,252.3c2.8,0,5.5,0,8.8,0C515.7,254.4,512.1,254.3,510.7,252.3z"/>
	<path d="M505.5,431.9c0.8,3-0.9,5.2-1.4,7.7C503.2,436.4,503.6,434.6,505.5,431.9z"/>
	<path d="M511.8,415.6c-1.9-2.1-2.7-4.6-3.9-7.4C510.9,409.9,511.9,411.8,511.8,415.6z"/>
	<path d="M525.1,258.7c3.2,0.2,6,1.6,8.9,2.7C530.8,261.4,527.7,260.9,525.1,258.7z"/>
	<path d="M954.3,439.7c-0.7-2.8-0.1-5.3,1.4-7.6C956.6,434.9,955,437.2,954.3,439.7z"/>
	<path d="M825.1,266.6c1.8-1,3.7-2,5.6-3C830,266.6,828.7,267.4,825.1,266.6z"/>
	<path d="M522.7,493.1c0.7-2.6,1.2-5.2,3.6-7.9C525.9,488.5,525.3,490,522.7,493.1z"/>
	<path d="M456.1,227.5c-2.4,0.3-4.9,0.8-7.6-1.3C451.6,226.1,453.9,226.2,456.1,227.5z"/>
	<path d="M969.4,502.5c0.2-2.2-0.2-4.4,2.1-6.7C971.6,498.9,971.1,501,969.4,502.5z"/>
	<path d="M976.8,485.2c-0.2,3.8-2.2,5.8-3.6,8C973.6,490.5,974.2,487.9,976.8,485.2z"/>
	<path d="M506.7,514.7c1.3,3.4,0,5.4-1.2,7.4C505.6,519.8,505.4,517.5,506.7,514.7z"/>
	<path d="M964.4,452.6c2,2.5,1.8,4.7,1.5,6.9C964.6,457.6,964.1,455.6,964.4,452.6z"/>
	<path d="M513.8,453.3c2.2,1.8,2,4.1,2,7.1C513.7,457.9,514.5,455.5,513.8,453.3z"/>
	<path d="M521,496.7c0.1,2.1-0.4,4-1.5,5.9C518.7,499.4,518.8,499.1,521,496.7z"/>
	<path d="M956.1,522.4c-0.7-2.8,0.1-4.8,0.7-7.7C958.7,518,957.1,519.8,956.1,522.4z"/>
	<path d="M399.6,549.8c2.2-0.5,4.4-0.5,6.6,0.5C403.9,551.2,401.8,550.2,399.6,549.8z"/>
	<path d="M527.9,254c0.7-2.3,2.5-3.5,4.5-4.3C531.3,251.5,530.5,253.6,527.9,254z"/>
	<path d="M850.1,549.6c2.4-0.3,4.6-0.3,6.7,0.6C854.4,551.1,852.2,550.6,850.1,549.6z"/>
	<path d="M476.7,444.8c2.3-0.3,4.2,0.5,6.5,2.4C480.3,446.9,478.4,446.3,476.7,444.8z"/>
	<path d="M422.2,549.4c-2,0.7-3.8,2.1-5.8,0.3C418.4,549.6,420.3,549.5,422.2,549.4z"/>
	<path d="M777.8,252c-0.7,0.4-1.5,0.9-2.1,1.3c-1.6-0.7-2.1-1.8-2.2-3.9C775.1,250.6,776,252.1,777.8,252z"/>
	<path d="M926.9,444.6c2.5-0.4,4.2,0.8,6.5,2C930.1,446.8,929.3,446.6,926.9,444.6z"/>
	<path d="M871.3,460.9c2.2,0.9,2.2,0.9,1.9,4.1C871.4,463.6,871.4,463.6,871.3,460.9z"/>
	<path d="M872.7,549.4c-1.7,0.8-3.6,1.9-5.7,0.4C868.9,549.6,870.8,549.5,872.7,549.4z"/>
	<path d="M527.9,241.9c1.4,1.1,1.6,2.3,1.1,4.1C527.1,244.7,527.6,243.2,527.9,241.9z"/>
	<path d="M840.4,548.6c-1.8-0.2-3.2-0.9-4.3-2.9C838.5,546.2,839.4,547.6,840.4,548.6z"/>
	<path d="M420.3,387.9c-1.8,1-3.3,1.5-4.9,1.4C416.8,388.3,418.1,387.6,420.3,387.9z"/>
	<path d="M477.6,219.3c1.7,0.3,2.9,1.1,3.5,3C478.9,222,478.5,220.3,477.6,219.3z"/>
	<path d="M440.4,544.8c-0.8,2.3-2.8,2.3-4.7,2.6C437.3,546.5,438.8,545.6,440.4,544.8z"/>
	<path d="M955.7,527.7c-0.1,1.1-0.2,2.2-0.3,3.8C954.1,529.9,954.3,528.8,955.7,527.7z"/>
	<path d="M526.9,419.7c0.4-2.2,2-3.6,3.8-4.8l-0.1-0.1C530.1,417.1,528.4,418.3,526.9,419.7L526.9,419.7z"/>
	<path d="M881.5,548.9c-1.7,1.2-2.9,1.1-4.2,0.3C878.5,548.5,879.7,548.5,881.5,548.9z"/>
	<path d="M967.8,420.7c-2-0.3-3.1-0.8-4.2-2.4C965.8,418.1,966.6,419.1,967.8,420.7z"/>
	<path d="M782.3,229.8c0.8-2,2.6-2.4,4.4-2.8c-0.9,1.8-2.3,2.8-4.3,2.9L782.3,229.8z"/>
	<path d="M870.8,387.5c-1.3,1.5-3.3,1.4-5,1.9C867.2,388,869,387.7,870.8,387.5L870.8,387.5z"/>
	<path d="M430.4,549.1c-1.3,0.8-2.6,0.9-4.3,0C427.9,548.5,429.2,548.5,430.4,549.1z"/>
	<path d="M390.2,548.9c-2.2-0.7-3.4-1.2-4.4-3C387.8,546.1,388.8,547.1,390.2,548.9z"/>
	<path d="M472.4,214.3c1.6,0,3.1,0.4,3.9,2.3C474.3,216.6,473.5,215.1,472.4,214.3z"/>
	<path d="M830.7,252.9c-0.6-1.9-0.2-2.9,0-4.2C832.8,250.1,831.9,251.2,830.7,252.9z"/>
	<path d="M609.8,226.1c2-0.4,3.2,0.2,3.5,2.6C611.4,228.3,610.8,226.9,609.8,226.1L609.8,226.1z"/>
	<path d="M829.5,242.6c-1.3-1.4-1.4-2.3-0.3-3.5C830.4,240.1,830.1,241,829.5,242.6z"/>
	<path d="M887.4,547.2c0.8-1.3,2-1.8,4.2-2.5C890.2,546.7,889,547.2,887.4,547.2L887.4,547.2z"/>
	<path d="M773.7,257.5c0-1.3,0.4-2.3,1.9-2.8C775.6,256.3,774.8,257,773.7,257.5z"/>
	<path d="M957.7,572.2c-0.6-1.4-1.3-2.3-0.7-3.4C958.4,569.6,958.1,570.7,957.7,572.2z"/>
	<path d="M504.7,531.8c-0.6-1.8-0.8-3,0.1-4.6C505.3,528.8,504.9,529.9,504.7,531.8z"/>
	<path d="M957.6,581.6c-0.9-1.1-0.8-1.8,0-2.6C958.3,579.7,958.2,580.5,957.6,581.6z"/>
	<path d="M434.4,425.6c1.2,0.5,2,1.2,2.9,2.8c-1.8-0.5-2.5-1.5-3.3-2.5C434.2,425.8,434.3,425.7,434.4,425.6z"/>
	<path d="M516.8,420.2c-1.6,0.1-2.5-0.4-3.4-1.9C515.1,418.2,516,418.8,516.8,420.2z"/>
	<path d="M503.8,544c-0.1,1.1-0.2,2-1.1,2.8C502.4,545.5,502.6,544.7,503.8,544z"/>
	<path d="M609.2,241.4c0.9,0.8,2.1,1.6,1,3.1C608.4,243.8,609.4,242.4,609.2,241.4L609.2,241.4z"/>
	<path d="M826.8,236.2c-0.7,1.6-1.6,2-2.9,2C824.3,236.7,825.1,236.2,826.8,236.2z"/>
	<path d="M486.5,451c-1.3-1.2-1.5-2.2-1.2-3.5C486.6,448.2,487.2,449,486.5,451z"/>
	<path d="M778.1,266.5c-1.8-0.6-2.9-0.9-3.5-2.4C776.2,264.3,777.2,264.6,778.1,266.5z"/>
	<path d="M827.4,246.9c-0.6,1.8-1.7,2.2-3.5,2.4C824.9,247.9,825.6,247.1,827.4,246.9z"/>
	<path d="M524.7,252c1-1.3,1.8-1.6,2.8-0.8C526.9,252.7,526,252.6,524.7,252z"/>
	<path d="M506.7,569.1c0.9,0.7,0.9,1.6,0.5,2.4C506.1,571,506.7,570,506.7,569.1z"/>
	<path d="M887.4,547.1c-0.7,0.8-1.7,1-3.2,1.3C885.3,547.2,886.3,547,887.4,547.1L887.4,547.1z"/>
	<path d="M784.4,239.9c-0.5,1.4-1.3,1.8-2.5,1.7C782.3,240.4,783.1,240.1,784.4,239.9z"/>
	<path d="M348.8,388.2c-0.6,0-1.2,0-1.7,0c0-0.1,0-0.1,0-0.2c0.5,0,1.1,0,1.6,0C348.7,388.1,348.7,388.2,348.8,388.2z"/>
	<path d="M953.1,546.8c-0.5-1.2,0-1.7,0.7-2.4C954.2,545.3,953.8,545.9,953.1,546.8z"/>
	<path d="M816.9,245.7c0-1.3,0.7-1.9,1.9-2.5C818.6,244.6,818.1,245.2,816.9,245.7z"/>
	<path d="M945.9,434.7c-0.3-1.2,0.6-1.3,1.1-2.1C947.6,434.5,946.4,434.2,945.9,434.7z"/>
	<path d="M941.2,438.6c0.2-1.5,0.8-2.1,2-2.5C943,437.3,942.5,438,941.2,438.6z"/>
	<path d="M522.7,252c-0.3,0.8-0.7,1.3-1.8,0.6C521.2,251.5,521.8,251.3,522.7,252z"/>
	<path d="M935.8,447.7c1.3,0.5,1.7,1.4,1.2,2.7C935.3,450,935.4,448.9,935.8,447.7z"/>
	<path d="M451.4,207.5c1.2-0.7,2-0.2,2.8,0.9C452.9,209,452.1,208.5,451.4,207.5z"/>
	<path d="M957.9,560.7c-0.3-0.8-0.1-1.2,0.3-1.5C959.2,559.8,958.8,560.2,957.9,560.7z"/>
	<path d="M507.2,581.4c-0.9-0.8-0.5-1.5-0.5-2.8C507.7,579.8,507.5,580.5,507.2,581.4z"/>
	<path d="M820.1,242.1c-0.3-1.5,0.3-1.9,0.8-2.4C821.7,240.9,821,241.3,820.1,242.1z"/>
	<path d="M582.6,246.7c0.2-0.9,0.7-1.1,1.4-1.1C584.6,247.4,583.5,246.8,582.6,246.7z"/>
	<path d="M592.5,250.5c0.1-0.9,0.8-1,1.6-1.1C593.7,250.5,593.7,250.5,592.5,250.5z"/>
	<path d="M529,263.8c-1.3,0.2-1.9,0.2-1.9-1C528.1,262.1,528.4,262.9,529,263.8z"/>
	<path d="M798.9,388.2c-0.5,0.1-0.9,0.2-1.3-0.1C798,388,798.5,387.8,798.9,388.2z"/>
	<path d="M504.3,402c1.8-0.1,1.4,1,2,1.7C504.6,403.7,505,402.7,504.3,402z"/>
	<path d="M497,433c-0.3,1.1-0.8,1.5-2,1.8C495.3,433.5,495.8,433,497,433z"/>
	<path d="M491,437.9c0.3-0.9,0.6-1.5,1.6-1.8C492.7,437.4,492.3,438,491,437.9z"/>
	<path d="M429.4,449.4c0.7,0.1,0.9,0.5,0.8,1.2C429.2,450.7,428.9,450.3,429.4,449.4z"/>
	<path d="M519.7,505.8c-0.7,0.7-0.5,1.7-1.4,1.3C518.1,507,518.4,506.2,519.7,505.8z"/>
	<path d="M969.2,506.1c0.5,0.9-0.2,1.3-0.5,1.9C968.1,507.1,968.9,506.8,969.2,506.1z"/>
	<path d="M562.2,263.6c-0.4,0.6-0.6,1-1.2,0.7C560.9,263.5,561.3,263.4,562.2,263.6z"/>
	<path d="M832.4,261.2c0.6,0.2,1.1,0.6,0.9,1.3C832.1,262.7,831.8,262.2,832.4,261.2z"/>
	<path d="M583.4,251.4c-0.4,1.4-1.1,0.6-1.9,1.4C582.1,251.2,582.7,251.5,583.4,251.4z"/>
	<path d="M609.6,237.3c-0.9-0.7-0.8-1.2-0.2-1.7C610.2,236,609.9,236.5,609.6,237.3z"/>
	<path d="M879.8,449.4c0.6,0.1,0.8,0.6,0.8,1.1C879.4,450.9,879.5,450.3,879.8,449.4z"/>
	<path d="M952.2,429.3c-0.2,0.8-0.4,1.2-1.2,1C950.9,429.6,951.3,429.4,952.2,429.3z"/>
	<path d="M501.6,429.3c0.1,0.8-0.3,1-0.9,1C500.4,429.4,501.2,429.5,501.6,429.3z"/>
	<path d="M915.7,421.6c-0.2,0.1-0.4,0.4-0.5,0.3c-0.4,0-0.6-0.3-0.5-0.7c0.1-0.3,0.4-0.4,0.6-0.1
		C915.5,421.2,915.6,421.4,915.7,421.6z"/>
	<path d="M530.7,415c-0.2-0.7,0-1.2,0.7-1.6C531.8,414.2,531.2,414.6,530.7,415L530.7,415z"/>
	<path d="M955,401.6c0.9,0.3,1.3,0.9,1.4,1.9C955,403.4,954.8,402.6,955,401.6L955,401.6z"/>
	<path d="M870.9,387.6c0.5-0.3,1.1-0.6,1.9-0.4C872.1,387.8,871.5,387.6,870.9,387.6L870.9,387.6z"/>
	<path d="M930.8,382.2c0.6-0.5,1.2-0.8,1.9-0.4C932.1,382.4,931.4,382.2,930.8,382.2L930.8,382.2z"/>
	<path d="M565.4,299.4c0.7-0.8,1.4-0.7,2.2-0.1C566.9,300.1,566.2,300,565.4,299.4z"/>
	<path fill="#FFFFFF" d="M863.3,274.1c1.2,2.3,3.6,3.3,5.6,4.5c5.4,3.2,10.4,6.7,15.4,11.7c-0.9-3.9-3.3-5.7-5.4-7.8
		c11,2.4,21.9-1.1,33-0.3c-0.2,2.5-1.5,4.7-2.4,7.2c3.1-1.1,3.1-1.1,5.1-7.1c0.9-0.7,1.8-0.7,3,0.2c-2.3,10.5-3.5,21.2-7,31.7
		c-3.3,10.1-5.9,20.6-6.7,31.3c-0.1,2-0.7,4.4,1.1,5.8c0.9,0.1,1.1-0.3,1.2-0.6c0.2-5.7,2.4-10.9,3.7-16.3c0.7-2.7,0.6-5.6,0.8-8.5
		c0.4-6.3,2.1-12.3,4.5-18c3.6-8.5,6.9-17,8.1-26.5c5.9-0.4,11.5-0.9,17.2-1.1c3.4-0.1,5.5,2.5,6.8,7.7c-0.8,1.2-2.4-0.2-2.8,0.6
		c-0.9,1.2-1,2.1-0.9,3c1.1,11.8,1.1,23.7,2.4,35.6c0.3,2.8,1.3,4.2,3.7,4.5c4.4,0.6,8.8,1,13.2,0.6c4.8-0.4,6.7-4,5.7-10.3
		c2.6-1.7,5.5-1.5,8.9-1.2c0.5,4.3,0.5,8.7,0.9,13c0.9,9.5,0.6,19,0.4,28.5c-0.1,5.6,0.1,11.1,0.2,16.7c0.2,8.9-3.3,15.9-9.8,22.2
		c-2.8-4.8-5.7-9.4-9.8-13.1c-3.3-2.9-6.7-5.6-9.6-9c-2.4-2.8-5.6-4.6-9.2-5.5c-0.5-0.1-1.3,0-1.5-0.3c-2.6-3.7-7-3.5-10.7-4.8
		c-3.6-1.3-6.4-3.2-7-7.4c-0.3-2-1.2-4-2.4-5.7c-1.3-2-3.1-3.5-5.5-2.9c-5.6,1.2-10.7-0.7-15.9-1.9c-4-0.9-8.2-0.7-12.1-2.3
		c4.8-0.4,9.7-0.5,14.4-1.6c-16,0-32.1,2.2-48.2,0.7c0.7,0.6,1.7,0,2.1,0.8c0,0.6-0.4,0.6-0.8,0.6c-5.5-0.2-11.1-0.2-16.6-0.7
		c-6.2-0.5-11.9,2-17.9,2.4c-0.6,0-1.3,0.4-1.5,1.1c-0.5,2.2-2.7,2.5-4,2.4c-5.9-0.3-6.7,4.2-8.2,8.1c-0.5,1.3-0.4,2.8-1.5,4.2
		c-2.1,0.9-4.4,0.1-6.7,0c-3.5-0.1-6.7-0.2-8.4,4.3c-0.9,2.5-3.2,4.8-5.4,6.9c-7.2,6.7-15.3,12.5-21.5,20.2
		c-1.7,2.1-3.1,4.5-4.7,6.9c-2.5-1.8-2.8-4.6-3.6-7c-4.6-14.2-5.4-28.9-6-43.6c-0.2-4.8-0.6-9.6-1.3-14.3c-0.6-4.1-0.4-8.2-0.5-12.2
		c-2.1-0.6-2.5,0.5-2.5,1.7c0,2.1-0.3,4.2,0.1,6.2c2.1,9.8,1.3,19.9,2.1,29.8c0.9,12.2,2.4,24.2,6.3,35.8c0.9,2.6,2.5,4.5,4,6.6
		c-2.2,5.4-7,9.1-9.2,15.1c-4.2-5.3-8.3-9.6-8.7-16.6c-0.4-6.7-2.3-13.2-3.3-19.9c-1.1-6.9-2.5-13.7-2.7-20.7
		c-0.4-10.1-2-20.1-2.4-30.2c-0.2-6.8-1.1-13.6-1.3-20.4c-0.2-6.6,0.1-13.1,0.2-19.7c0-1.3,0.5-2.7-0.4-3.8
		c-1.4-1.8-0.2-3.5-0.2-5.5c4.7-0.9,9.3-2.1,14.3-1.7c1.6,4.4,1.6,8.9,2.1,13.1c-1.2,1.4-2.3,0.9-3.5,0.6c-0.9-0.9-0.2-2.6-1.8-3.3
		c-0.7,1.5-0.1,3-0.3,4.6c7,1.2,13.6,3.7,20.6,4.1l0.2,0.2l-0.2-0.2c-0.8-3.3-0.8-3.3,0.2-5.9c4.7-0.4,9.7,1.3,14.1-1.6
		c-0.1-2.4-1.5-4.3-0.7-6.6c1.1-2.8,2.8-4.1,5.7-4.3c4.5-0.3,9.1-0.1,13.6,0.3c3.5,0.3,7-0.1,10.1,0.5c7.3,13.3,9.6,27.9,13.2,42.1
		c0.8,2.9,0.4,6.2,0.4,9.3c-0.1,4.3,2.4,7.9,3.1,12.1c1.7-2.6,2.1-5.5,0.9-8c-1.6-3.2-1.6-6.5-1.5-9.8c0.1-3.2-0.2-6.2-1-9.2
		c-2-7.4-4.3-14.6-5.6-22.2c-0.8-4.8-3.3-9.2-5.3-14.1c7.4-0.5,14.6-1.1,21.5-1.6c4.2-4.9,11.6-7.4,12.4-15.4c2.9,0.1,5-2,7.5-3
		c1-4.4,1-4.4-1.2-7.1c3.3-0.1,3.6-2.8,3.1-4.8c-0.7-2.8-0.5-5.5-0.3-8.3c0.1-1.7,0.3-3.7-0.8-5.3c-0.9-1.2,0-1.9,0.4-2.7
		c2.7-0.5,3.9,2.2,6.4,2.3c-0.6,1.9-0.3,3.6,1,5.3c-3.8,2.9,0,6-0.2,9c0,0.6,0.5,1.5,0.5,2.4c0.2,3.6,3.1,4.7,6.3,5.8
		c1.4,3.8,1.1,8.2,3.4,12.1C864.4,274.5,863.8,274.3,863.3,274.1c-0.2-0.1-0.2-0.1-0.2-0.1C863,273.9,863.1,273.9,863.3,274.1z"/>
	<path fill="#FFFFFF" d="M807.2,429.5c6.5,5.7,12.9,11.4,19.7,17.4c-2.2,2.5-5,3.9-7.8,5.1c-6.9,3-13.6,6.2-21.3,6.8
		c-6.9,0.6-10.7,4.5-13.2,12.7c-2.6,8.4-0.1,16.4,1.2,24.5c1.4,8.6,0.3,16.9-1,25.4c-1.3,8.6-6.5,15.7-8.3,24
		c-2.7,12.1-5.7,24.1-6,36.6c-0.1,4-0.5,8-1,12c-0.4,2.9-0.7,5.6,1.4,8.1c0.8,0.9,0.4,1.9,0.1,2.8c-1.1,0.3-1.9,0-2.8-0.8
		c-0.3-2.1-0.6-4.4-0.9-7c-2.7,2.4-0.3,5.6-2,8.4c-1.4-1.7-0.1-3.6-1.2-4.9c-1.1-1.4-2.8-1.8-4.1-2.9c0.1-0.9-0.4-1.7-0.3-2.6
		c-0.1,0.9,0.3,1.7,0.3,2.6c-3.5-0.8-7.1-1.4-10.9-1c-1-3.8-1.5-7.5-1.8-11.2c-0.5-6.7-0.5-13.4-2.3-20c-0.8-2.9-0.6-6.2-0.3-9.3
		c0.8-7.6-1.1-15-2.6-22.3c-4.5-20.6-3.2-40.9,1.8-61.1c0.6-2.6,1.5-5.1,0.6-7.9c-0.5-1.6-0.7-3.6-0.1-5c2.3-5.4,0.1-10.4-1-15.5
		c-0.5-2.4-0.1-4.6,1-6.8c1.1-2.3,2.5-4.5,3.2-7.1c0.4-1.6,0.5-3-1-3.9c0.9-2.7,1.8-5.1,3.3-7.4c7.9-1.6,15.2-5.4,23.3-6.6
		c4.1-0.6,8.1-1,11.9,0.5C793.9,417.1,802.4,420.9,807.2,429.5c-0.1,0.2-0.2,0.2-0.2,0.2C806.9,429.8,807,429.7,807.2,429.5z"/>
	<path fill="#FFFFFF" d="M870.4,263.3c-4-0.2-7.4-2.3-10.9-3.7c-2-0.9-2.2-2-1.3-4.8c0.9-1.2,2.6,0.9,3.3-0.9
		c-5-2.1-6.1-3.7-4.7-7.2c1.2-0.6,2.5,0.2,3.7-0.3c1-0.4,2.4,0.2,3.3-1.3c-1.2-0.7-2.4-0.3-3.6-0.2c-3.2,0.4-4.6-1.2-3.8-4.3
		c0.2-0.7,0.4-1.5,0.8-2.2c0.3-0.7,0.8-1.3,1.2-1.9c4.2-1,7.9-3.2,12.3-3.1c-4.6-2.1-8.6,1.7-13.1,1c-1-1-1.5-2.3-1.6-3.7
		c5.8-4.7,12.7-5,19.5-4.3c3.2,0.3,5.7,2.6,7.9,5.2c3.9,4.5,7.3,9.5,13,12.5c0.8-1.1,2-1.7,3.6-1.5c7.5,0.9,14.3-1.7,21.1-4.1
		c3.8-1.4,8.2-1.6,11.2-4.9c1-1.1,3,0.3,5.1-1.3c-9.8-0.4-17.7,3.4-25.8,6.5c-2.7-5.4-0.2-12.6,6.5-18.2
		c-6.4,1.1-11.2,10.9-9.4,19.2c-3,1.5-4,1.5-11.5-0.2c-3.3-9.7-4-20.3-6.4-30.4c2.2-1.8,5-1.2,7.3-2.5c-0.8-2.6,0.6-4.1,3-4.9
		c4.2-1.3,8.4-2.7,12.9-2c4.2,0.7,8.5,0.2,12.6,1.7c5.6,2,9.4,6.2,13.2,10.5c3.9,4.6,7.9,9.1,11.9,13.6c2.4,2.7,3.1,4.8,3,9
		c-1.1-0.2-1-1.2-1.4-1.9c-0.4-0.6-0.5-1.5-1.6-1.6c-1,1.1-0.1,2,0.4,2.7c2.2,3.1,2.1,6.6,1.6,10c-0.5,3.8-0.4,7.4,0,11.2
		c0.3,3-0.6,5.6-2.6,8c-9.3-1.9-18.7,2.3-28.2-0.6c2.9-1,6.1,0.5,8.6-1.6c-4,0.5-8.2-0.2-12.2,1.5c-2.6,1.1-5.6,1.4-8.4,1.1
		c-4-0.4-8,1.8-11.8-0.4c-2.2,0.9-3.9,2.5-6,2.8c-1,0-0.5-1.3-1.3-1.2c-0.2,0.1-0.5,0.1-0.7,0.3c-3.9,4.2-9.6,5.2-15,2.1
		C874.3,265.5,872.2,264.5,870.4,263.3c1-1.4,2.7-0.4,3.9-1.1C873.1,262.9,871.4,261.9,870.4,263.3z"/>
	<path fill="#FFFFFF" d="M976.7,419.6c-1.4-1.4-2.1-3.3-2.9-5c-1.5-3.6-2.8-7.2-4.1-10.6c0.4-1.4,1.4-2,2.2-2.6
		c5.9-4.5,7.8-10.9,8.8-17.9c1.4-9.8,0.7-19.6,0.3-29.5c-0.1-2.5-1.1-4.9,0.9-7.3c1-1.1,0.1-3,0-4.6c-0.6-5.8-1.3-11.6-2-17.4
		c-0.2-1.9-0.4-3.8,0.3-5.5c-4-2.8-8.8-2.3-14.1,1.3c-0.8,1.2,0.1,2.6-0.5,3.8c-0.6,1.2-0.4,2.5-1,4c-5.2,2.1-10.5-0.7-16.3,0.6
		c-2-13-2-25.5-2.6-38.3c5.1-1.3,10.2-0.4,15-1c2,1.1,2.8,3.2,4.3,4.8c5.8-2,12.1-1.3,18.3-3.6c-2.1-2.4-4.2-0.9-6.4-1.6
		c-0.3-4.4-0.7-9-1-13.6c5.8-2.6,11.4-2.9,17.4-1.4c0.9,2.6,2.4,5.1-0.2,7.8c-0.9,0.9-0.5,2.5-0.4,3.8c1.2,17.3,3.2,34.6,3.3,51.9
		c0.1,10,0.7,20.2-1.1,30.3c-1.1,6.2,0.2,12.4-0.5,18.6c-0.9,8.8-3.8,16.9-7.2,24.9c-1.9,4.3-5.9,7.1-9.3,10.2
		C977.1,421.3,977,420.3,976.7,419.6L976.7,419.6z"/>
	<path fill="#FFFFFF" d="M874.9,175.2c-3.4-1.3-6.8-1.1-10.1,0.3c-1.6,0.7-3.4,1.2-4.9,0.8c-4.4-1.1-8.7,0.7-13.1,0
		c-0.7-0.1-1.3,0.2-1.6,1.7c5.3,1.7,10.9-1.7,16.2,1c0,4.7,0,9.6,0,14.6c-1.4,1.1-2.9,0.3-4.4,0.1c-1.4-0.2-2.9-0.5-4.2-0.3
		c-2.4,0.3-4.7,0.6-6.8-1.3c-2.7-2.4-5-4.9-5.9-8.4c-1.2-4.8-2.6-9.4-5.8-13.4c-2.7-3.5-0.9-7.5-1-11.2c-0.1-6.9,3.7-13.1,4.2-19.9
		c0.2-2.4,3.4-3.3,2.5-5.9c1.2-0.3,1.2,0.8,1.9,0.8c2.2-2.9,7.5-3.7,10.9-1.2c1.5,1.1,3.2,1.5,4.2,0.7c3.5-2.5,7.1-2.2,10.9-1.3
		c0.3,0.6-0.5,1.6,0.7,2c0.9,0.4,0.6-1.3,1.2-1.2C877.8,146.3,882.9,159.9,874.9,175.2z"/>
	<path fill="#FFFFFF" d="M864.6,264.1c4,1.4,7.5,2.1,10.4,4.4c4.3,3.4,9.2,2.5,13.6,0.5c2.9-1.3,6-2.1,8.7-2.1
		c7.8-0.1,15.4-2.2,23.2-1.4c6.6,0.7,13.1,0.3,19.7-0.5c3.9-0.5,7.7,0.7,11.5,1.4c1.6,0.3,2.3,1.5,3.1,2.6c4.1,5.5,5,12,6.4,18.7
		c-3.6,0.7-7.2,0.5-10.8,0.8c-0.8-1.8-2.2-3.4-0.7-5.2c-3.9-5.4-8.9-6.9-15.1-5.7c-8.4,1.6-17,0.5-25.5,1.3
		c-5.7,0.5-11.3,0.5-17,1.2c-5.3,0.7-10.5,0.1-15.7-1.4C869,276.6,866.8,270.9,864.6,264.1z"/>
	<path fill="#FFFFFF" d="M840.9,226.5c0-3.2,0-6.7,0-10.5c4.2,1.1,6.9,4.8,10.9,6.1c-3.1-3.4-7-5.9-11.2-8.4
		c-0.1-8.6-1.4-17.2-2.5-26.4c3.6,2.2,4.1,7,8.4,7c0.7,1.2-0.1,2.6,1.3,3.4c1.1-0.1,0.2-1.4,1-1.7c3.8,0.1,7.7-0.9,11.7,0.3
		c-0.6,2-1.3,3.9-1.8,5.6c-1.4,1.5-3.8,1.1-5.1,2.7c3.4,1.4,4,1,8.5-5.8c1.3,8.6,1.1,17,0.8,25.7c-3.2,1.6-6.9,2.5-8.9,6.6
		c-0.2,1.6,1.1,3.1,2.7,4.3c-0.2,1-0.8,1.8-1.6,2.6c-2.3-1.1-4.8-2-6.5-4c-1.1-1.4-1.4-3.3-3-4.5
		C844.3,228.7,842.4,228.5,840.9,226.5z"/>
	<path fill="#FFFFFF" d="M870.1,421.7c6.4,5.2,8.4,18.7,3.6,24.9c-10.4-4-20.6-5.4-30.3,2.7c-0.9-1.1-0.8-2.7-0.5-4.1
		c1.3-6.4,0.6-13.1,3.2-19.3c0.7-1.8,0.8-3.8,3-4.6c1.4-0.5,1.6-1.8,1.5-2.9c5.9-3,11.4-1.1,16.8,0.5c1.1,0.3,2.1,1,2.3,2.4
		c-2.6,0.1-4.4-2.4-6.6-2.1c2.5,0.5,5.4,1.3,7,4.3c1.9,2.8,2.5,6.1,3.4,9.3c-0.9-3.3-1.5-6.7-3.6-9.6
		C869.8,422.7,869.7,422.2,870.1,421.7z"/>
	<path fill="#FFFFFF" d="M838.9,225.9c-4.2-0.4-7.9-0.7-12.4-1.1c0.4-15.3-2.2-30.4-3.1-45.9c4.1-2,8.1-2.2,12.4-0.4
		C836.4,194.3,839.3,209.8,838.9,225.9z"/>
	<path fill="#FFFFFF" d="M864.2,178.5c4.1-1.7,7.7-3.2,11.5-0.4c2.5,15.1,2.5,30.4,2,46c-3.8,0-7.7,0-11.9,0
		C865.3,209,864.7,193.9,864.2,178.5z"/>
	<path fill="#FFFFFF" d="M790.4,465.5c5-4.5,11.5-3.1,16.7-5.6c5.2-2.4,10.5-4.6,16.1-6.6c-1.9,3.1-4.6,5.1-7,8.4
		c3.5-1.4,5.1-3.8,7.1-5.8c2.1-2.1,2.9-5.2,5.7-7.1c2.7,2.1,5.1,4.3,6.5,7.3c0.2,1.5-1.2,2.2-1,3.4c0.7,0.6,1-0.8,2.2,0.2
		c0.8,0.9,0.9,2.6,0.9,4.4c-0.1,4-1.8,6.1-5.7,6.3c-10.7,0.6-21.5,1.1-32.2,0.1C796.2,470.2,793.1,468.3,790.4,465.5z"/>
	<path fill="#FFFFFF" d="M846.9,457.2c0.1-1.8,0.2-3.2,0.2-4.6c0.1-2.7,1.4-4.2,3.9-5c6.5-2.1,12.8-1.2,18.9,1.2
		c1.7,0.7,3.3,1.5,5.2,1c0.9,3,1,6,1.5,8.9C866.9,456.9,857.1,457.7,846.9,457.2z"/>
	<path fill="#FFFFFF" d="M893,239.1c-5-4.6-8.1-9.7-12.6-13.6c-0.6-4-0.3-7.9,1.6-11.6c1.3-2.6,1.6-5.4,1.7-8.3c0-1.4,0-2.8,0.9-4.1
		c1.3-0.3,2.5-0.1,4.3,0.9C888.7,214.3,890.2,226.3,893,239.1z"/>
	<path fill="#FFFFFF" d="M773.1,610.9c-3.7,2.8-5.3,2.9-9.3,0.5c-0.4-1-0.2-2,0.4-3.2c2.1-0.4,4.4-0.8,6.5-1.2
		C772.1,607.9,772.3,609.4,773.1,610.9z"/>
	<path fill="#FFFFFF" d="M896.3,205.2c-1.8,0.1-3.2,0.3-4.6,0.4c-0.7-1.1-0.5-2.3-0.6-3.6c2-0.6,3.9-1,6.1,0.1
		C897.4,203.1,895.9,203.7,896.3,205.2z"/>
	<path d="M869.9,423.7c-3.5-4.5-8.6-4.1-13.7-4.2c2.8-2,7.1-1.4,13.6,1.9c0.1,0.1,0.2,0.3,0.3,0.4c0.1,0.5,0.2,1,0.3,1.5
		c0,0.2,0.1,0.5,0.1,0.7C870.4,423.8,870.2,423.8,869.9,423.7z"/>
	<path fill="#FFFFFF" d="M859.9,351.7c-5.3,2.1-6,2-7.2-0.4C854.9,351,856.9,350.9,859.9,351.7z"/>
	<path fill="#FFFFFF" d="M881.1,350.8c1-0.4,1.9-0.3,3,0.3c-0.4,0.9-0.7,1.8-1.1,2.6c-1,0.3-1.7,0.1-2.3-0.4
		C880.4,352.5,880.5,351.7,881.1,350.8z"/>
	<path fill="#FFFFFF" d="M830.1,164.4c-1-1.9-3.5-3.1-2.8-6.5C828.7,160.3,830.8,161.7,830.1,164.4z"/>
	<path fill="#FFFFFF" d="M838.7,351.3c2.6-1.2,4.5-1,6.3,0C843.1,351.7,841.3,352.4,838.7,351.3z"/>
	<path fill="#FFFFFF" d="M880.6,208.1c0-2.3,0-4.5,0-6.8C882.9,203.6,880.7,205.9,880.6,208.1z"/>
	<path fill="#FFFFFF" d="M878.5,350.5c0.3,1.3,0.2,2-0.2,2.7c-1.7,0.3-2.4-0.4-2.3-1.9C876.7,350.1,877.6,350.6,878.5,350.5z"/>
	<path fill="#FFFFFF" d="M825,352.4c-1.6,1.1-3.1,2.7-5.4,0.6C821.5,352.6,823.1,351.9,825,352.4z"/>
	<path fill="#FFFFFF" d="M895.4,352.3c-0.8,1.8-2,1.9-3.4,1.8C892.2,351.9,892.2,351.9,895.4,352.3z"/>
	<path fill="#FFFFFF" d="M881.1,166.4c0.9-0.7,1.7-1.3,3.1-2.4c-0.7,2-1.7,3.2-1.8,4.9C880.9,168.3,881,167.4,881.1,166.4z"/>
	<path fill="#FFFFFF" d="M874.6,351c-1.7,1.5-1.7,1.5-3.5,1.1C871.4,349.8,872.7,350.7,874.6,351z"/>
	<path fill="#FFFFFF" d="M887.8,353.8c-0.2-1.3,0.6-1.9,1.5-2.5c0.4,0.3,0.9,0.5,1,0.7C890.3,353.7,889.8,354.8,887.8,353.8z"/>
	<path fill="#FFFFFF" d="M884.8,162.6c-1.4-1.5-2-2.7-0.2-4.4C885.2,159.7,885.2,161,884.8,162.6z"/>
	<path fill="#FFFFFF" d="M865.5,354.3c-2-1.1-1.9-2-2.2-3.3C865.2,351.5,864.8,352.7,865.5,354.3z"/>
	<path fill="#FFFFFF" d="M896.4,353.3c1.5-0.7,2.5-0.5,3.7-0.1C898.9,354.1,898,354.3,896.4,353.3z"/>
	<path fill="#FFFFFF" d="M861,351.4c1.1,0.8,1.7,1.4,1.7,2.7C860.5,354.2,861.3,352.7,861,351.4z"/>
	<path fill="#FFFFFF" d="M867.9,350.4c1.1,1.2,1.1,2,0,2.7C867,351.9,867,351.9,867.9,350.4z"/>
	<path fill="#FFFFFF" d="M883.2,153.9c0.8,1.4,0.4,1.9-0.7,2.2C881.9,155.3,882.6,154.8,883.2,153.9z"/>
	<path fill="#FFFFFF" d="M857.8,128.9c-0.5-0.7-0.7-1.3,0.2-1.8C858.6,127.8,858.7,128.4,857.8,128.9z"/>
	<path fill="#FFFFFF" d="M837.5,130.6c-0.9,0.6-1.5,0.3-2.2-0.4C836.4,129.3,836.9,129.9,837.5,130.6z"/>
	<path fill="#FFFFFF" d="M830.3,153.7c-0.8-0.5-1.4-1-1.1-1.9C830.6,151.9,830.6,152.6,830.3,153.7z"/>
	<path fill="#FFFFFF" d="M865.8,126.6c-0.1,0.7-0.3,1-0.9,1.1C864.5,127,864.6,126.6,865.8,126.6z"/>
	<path fill="#FFFFFF" d="M865.4,119.2c-0.4,0.6-0.7,0.7-1,0.4c-0.1-0.1-0.1-0.5,0-0.6C864.7,118.8,865,118.8,865.4,119.2z"/>
	<path fill="#FFFFFF" d="M847.2,351.5c0.9-0.1,1.1,0.4,1,1.2C847.2,352.8,846.8,352.5,847.2,351.5z"/>
	<path fill="#FFFFFF" d="M404.9,347.9c-2.8,1.9-5.8,0.7-8.7,0.6c-5.4-0.2-10.8-0.3-16.2-0.5c-2.5,2.9-6,1-8.9,1.9
		c-1.8,0.6-4.2-0.1-5,2.8c-0.2,0.8-2.3,1.5-3.4,1.4c-6-0.3-6.9,4.3-8.4,8.4c-0.4,1.2-0.4,2.6-1.3,3.8c-2,1.1-4.2,0.3-6.4,0.2
		c-3.9-0.2-7.2-0.2-9,4.6c-1,2.7-3.5,4.9-5.8,7.1c-7,6.5-14.9,12.1-20.9,19.7c-1.7,2.1-3.1,4.4-4.7,6.8c-2.3-1.3-2.6-3.7-3.3-5.8
		c-4.4-12.5-5.3-25.5-6.2-38.5c-0.3-4.6-0.1-9.3-0.9-13.9c-1.6-9.9-0.5-19.9-0.8-29.9c-0.5-12.4-1.5-24.8-2.2-37.2
		c-0.1-1.8-0.4-3.6,0.2-5.6c6.5-1.9,13.2-2.9,19.8-2.6c11.6,0.6,21.3-3.3,29.7-11c0.8-0.8,1.6-1.7,3.2-1.9c0.7,3.8,1.7,7.6,2.2,11.4
		c1.3,10.3,4.5,19.9,9,29.2c0.4,0.8,1,1.6,1.2,2.4c1.9,12.5,7.6,24.3,6.9,37.3c-0.2,3.9,2.3,7.1,2.9,10.9c1.7-2.8,2-5.8,0.6-8.4
		c-1.5-3.1-1.5-6.3-1.4-9.4c0.1-2.9-0.2-5.7-0.9-8.4c-2-7.8-4.3-15.5-5.9-23.3c-1.2-5.8-4-11.2-6.1-16.9c3.9-5.7,5.7-12.4,8.4-18.3
		c1.3-1.1,2.1,0.7,3.1,0c0.3-0.7,0.3-0.7-2.1-3.5c5.7-18.5,10-37.5,16.7-55.9c0,4.1,0.7,8.2,0.8,12.2c0.2,5.2,2.4,9.2,5.8,12.7
		c4.8,4.8,10.9,7.3,17,9.8c3.1,1.3,6.1,0.3,8.7-1.7c11.6-9,20.1-19.8,20.9-35.2c0-0.5,0.2-1,0.3-1.4c1.4-0.6,2.6-0.2,3.9,0.3
		c1.3,3.1,0.9,6.3,1,9.5c0.5,11.4,1.7,22.7,6.1,33.4c1.4,3.4,4.7,5.5,5.7,9.3c-0.3,0.5-0.8,1-1.2,1.6c0.2,0.2,0.4,0.5,0.5,0.5
		c1.5-0.2,2.3,0.3,3.1,1.7c1.3,2.2,2.8,4.3,3.8,6.7c1.8,4.4,6.1,6.6,9.4,9.6c0.6,0.5,1.2,0.9,1.9,1.4c-1.6,10.2-3.4,20.3-5.5,30.3
		c-0.5,2.3-1.4,4.4-2.1,6.7c-3.1,11-6.5,22-7.1,33.6c-0.1,1.8-0.7,3.9,1.2,5.4c0.3-0.1,0.7-0.2,0.7-0.4c0.1-4.5,1.8-8.7,2.9-13
		c2.3-9.6,1.8-19.7,5.9-29c2.6-6,5.5-12,6.9-18.5c2.7-12.3,4.2-24.7,3.1-37.9c2.5,2.2,4.7,4.1,6.9,6c3.1,2.8,6.7,4.3,10.9,4.5
		c11,0.5,21.7,3.4,32.7,4c0.5,0,1,0.3,1.8,0.7c-0.3,5.5-0.4,11-0.9,16.5c-0.3,3.4-0.1,6.7,0.2,10.1c0.9,12.4,2.1,24.8,2,37.2
		c-0.1,15.9,0.8,31.8,0.6,47.8c-0.2,9.4-2.4,14.8-9.7,21.7c-2.8-5-5.9-9.8-10.3-13.5c-3.1-2.7-6.3-5.3-9-8.5
		c-2.4-2.8-5.6-4.6-9.2-5.5c-0.4-0.1-0.9,0-1.1-0.2c-3.3-3.9-8.3-3.7-12.5-5.5c-2.8-1.2-4.7-3.1-5.4-6.1c-0.2-1.1-0.6-2.2-1-3.3
		c-2.1-5.3-3.8-6.6-9.4-5.9c-3.8,0.5-7-0.7-10.5-1.4c-5-1-10.2-1.7-15.3-2.9c4.8-0.4,9.5-0.5,14.2-1.7
		C434.3,346.9,419.6,348.2,404.9,347.9L404.9,347.9z"/>
	<path fill="#FFFFFF" d="M214.1,258.6c1.4-0.5,1.8-1.7,2.2-3.2c-2.6-2-0.7-5.5-2.5-7.6c1-1.1,1.9-2.2,3.1-3.6
		c1.3,7.3,6.9,5.7,11.3,5.6c5.1-0.2,10.3-1.3,15.4-1.6c7.1-0.3,13.6-2.3,20.4-3.9c4.3-1,8.8-0.5,13.2-0.5c6.7,0.1,13-0.6,19-4.2
		c4.5-2.8,9.8-4.1,14.7-5.9c7.4-2.8,12.1-8.2,17-13.6c1.6-1.8,3-3.9,4.6-5.8c4.1-4.8,9-7.4,15.8-7.3c6.2,0.1,11.8,2.6,17.9,3.1
		c1.3,0.1,2.5,0.5,3.7-0.4c0.3,0.4,0.8,0.4,1.2,0.5c-0.5-0.1-0.9-0.1-1.3-0.4c0.1-1-1.2-0.9-1.5-2.2c2.8-0.8,5.7-1.5,9.5-2.6
		c-3.9,7.5-4,15.5-7.8,22.2c-2.1,0.9-4.2-0.3-6.5,0.6c1.7,1.2,3.6,0.6,5.5,1.7c-2.7,10.1-5.4,20.3-8.1,30.8c-2.4-1.8-4.9-3.1-6-6
		c-1.1-2.7-3.5-4.6-6.1-5.8c-4.1-2-6.1-5.3-7.2-9.5c-1.2-4.3-5.2-7-9.6-6.7c-0.8,0-1.6,0.2-2.1,1.6c2.1,2.3,5.9,0.9,8.7,3.6
		c1,3,2.3,6.7,4.2,10.2c-0.2,1.5-2.1,1.5-2.2,3.1c1.6,0.2,2.5-1.3,4.1-1.6c3.9,2.6,8.4,4.8,10.9,9.6c0.9,1.8,3,2.8,4.9,3.8
		c-1.8,5.7-4.2,10.9-6.8,16.3c-3.1-8-3.2-16.8-7.4-24.6c-1.3,0.1-1.6,2.2-2.8,3.2c-7.6,6.2-16,10.3-26,10.7
		c-7.8,0.3-15.4,1.4-23.1,2.7c-2.3,0.4-4.6,1.2-7.1,0c-1.7-0.8-3.8,0.3-5.7,0.7c-11.3,2.4-22.7,4-34.2,1.1c-6.4-1.6-12.7-3.4-19-5.4
		c-3.1-1-6.3-1.4-9.4-2.2c-2.2-0.6-3.6,1.1-5.4,1.5l0.1,0.1c0.2-1.2,2.1-1.6,1.4-3.2c0.7-0.6,1.5-0.9,2.5-0.7
		c-0.9-0.1-1.8,0-2.4,0.8C213.4,261.9,213,260.3,214.1,258.6L214.1,258.6z"/>
	<path fill="#FFFFFF" d="M238.2,287.5c4.8,0.3,9,0.1,13.2-0.3c1.7,2-0.1,4.7,2.3,7.3c0-4.1,1.4-7.4-1.9-10.3c0.7-2.4-0.2-5-0.2-7.8
		c6.9,0.3,13.6,0.7,20.5-0.5c0.4,4.9,0.8,9.5-0.5,14.5c-4.9,2.3-11.8-1.6-16.9,3.1c6.8-1.5,13.9,0.1,21.2-1.7
		c0-5.2-1.5-10.5-1.3-16.1c5.3-0.4,10.1-5.6,16.2-1.6c0.5,6.1,0.7,12.5,0.8,18.8c0.2,10,1.2,19.9,1,29.9c-0.4,18,2,35.9,2.9,53.8
		c0.4,8.7,3.7,16.6,5.5,24.9c0.5,2.4,2.3,4,3.8,6.1c-2,5.4-7,9.1-9,15c-4-3.8-7.7-7.8-8.4-12.9c-0.8-6-2.2-11.9-3-17.9
		c-0.4-3.5-1.3-6.9-1.7-10.3c-2.3-19.4-4.4-38.8-4.1-58.4c0.1-5-1.3-9.9-1.4-15.3c-7.3-0.5-14.3-1.1-21.5-0.8
		c-0.5-1.7-0.9-3.3-1.4-4.8c-0.5,2.2,0.2,4.6-1.7,6.2c0.6,1.9,1.1,3.6,1,5.5c-4.6,3.7-8.8,3.8-14.2,0.2
		C239.3,305.4,239.3,296.6,238.2,287.5z"/>
	<path fill="#FFFFFF" d="M395.3,468.9c9.5-1,18.2-0.1,26.9-0.3c0.5,2.6-1.3,2.1-2.4,2.2c-5.3,0.4-10.6-0.3-15.8-1.1
		c-0.6-0.1-1.2-0.5-2.2,0.8c5.1,2.1,10.4,1.4,15.8,2.4c0.1,10.5-2.2,21-0.5,31.6c1.7,10.4,0.2,20.9,1.1,31.5
		c-4.4,1.5-8.4,0.2-12.3,0.1c-1.4-0.3-0.8-1.7-1.7-2.2c-1,0.9-0.3,2.2-0.8,3.1c0.4,0.4,0.6,0.7,0.8,0.7c3.9,0.1,7.8,0.4,11.6,0.3
		c3.2,0,4.5-1.1,4.2-4.2c-0.7-7.1-0.2-14.2-1.1-21.3c-1-8.3-1.5-16.7-0.8-25.2c0.4-4.8,0.8-9.5,1.2-14.4c1.4-1,3.3-0.2,5-1.5
		c0.6-1.1-1.3-2.8,0.8-4.3c-10.3-1.2-20.2-1.3-30.1-1c-0.8-2.2-0.3-4,0.4-5.8c6.3-1.2,27.2-0.4,29.9,1.1c0.8,1.4,0,3.1,0.5,4.8
		c0.4,1,2-0.5,2.5,0.8c-0.4,6.6,0.1,13.2-0.1,19.7c-0.4,13.2,2.2,26.3,0.6,39.5c-0.3,2.8-0.1,5.7,0,8.5c0.3,5.3-1.5,8.3-6.6,9.5
		s-10.4,2.2-15.8,1.5c-2.5-0.4-4.8-1.1-6.9-2.8c-1.7-4.7-1-9.8-1.2-14.8c-0.2-9.8-0.2-19.7-2.1-29.4c-0.4-2-0.2-4.1-0.2-6.2
		C396.2,484.8,396.9,477.1,395.3,468.9z"/>
	<path fill="#FFFFFF" d="M418.7,134.2c0.3-0.4,0.6-0.8,0.9-1.2c0.2,0.1,0.5,0.3,0.5,0.4c-0.5,2.5,1.9,3.4,2.7,5.2
		c3.5,7.7,6.4,15.5,5.8,24.1c-0.3,3.9-2.5,7.3-3.2,11.2c-0.2,0.9-0.7,1.7-0.7,2.6c-0.4,8.1-6.2,12.4-11.8,16.8
		c-1.7,1.3-3.7,0.9-5.6,0.5c-2.4-0.5-4.9-0.9-7.3-0.1c-1.2,0.4-2-0.2-2.9-0.7c-3.8-2.3-6.4-5.5-7.5-9.9c-1.1-4.5-2.6-8.9-5.5-12.7
		s-0.8-8.2-0.9-12.3c-0.2-6.6,3.7-12.3,4-18.7c0.1-1.1,0.4-2.3,1.5-3c1.7-1.2,1.2-2.6,0.2-4c1.5-0.2,1.8,1.4,3,2.1
		c0.5-3.2,3.3-3.2,5.1-2.8c2.1,0.4,4.6-0.2,6.4,1.9c0.8,0.9,2.8,0.7,4.3-0.3c2.4-1.7,5.1-1.9,8-1.2c1.5,0.4,2.5,0.8,2.2,3
		C418.1,134.6,418.4,134.4,418.7,134.2z"/>
	<path fill="#FFFFFF" d="M408.4,202.1c-1.8,1.2-3.8,1.1-5.2,2.5c4,1.9,7.2-1.2,8.2-8.2c7.1-0.8,8.6-8.2,14.1-12.5
		c0,4.7,0,8.5,0,12.4c0,2.3-0.3,4.6,0.7,6.9c0.9,1.9-0.8,3.6-1,5.9c2.8-2.5,2.4-5.7,2.8-8.5c1.4-0.2,2.4,0.3,3.5,0.7
		c-0.9,11.6-6.5,20.6-14.1,28.7c-1.9,2-4.4,1.7-7,2.5c0.8,1.6,2.3,0,3.1,1c-1.6,1.7-2.9,3.7-5.1,4.8c-1.5-1.2-0.6-2.6-1-3.8
		c-1.7,0.8-0.4,2.5-1,4.2c-8.8-4.3-17.5-8.5-22.1-17.5c-2.6-5-2.6-10.7-1.8-16.2c0.7-1.2,1.7-1.3,2.7-1.2c1,0.4,0.3,1.6,1.9,2.3
		c0.6-6.4-0.9-12.7,0.8-18.9c3.4,1.5,3.6,6.9,8.2,7c0.8,0.9,0,2.2,1,3c1,0.2,0.6-0.8,0.8-1.2c3.9,0.2,7.8-1,11.8,0.3
		C409.9,198.4,408.6,200.1,408.4,202.1z"/>
	<path fill="#FFFFFF" d="M214.2,258.6c-3.7,1.3-7.5,2-11.3,2.3c-3.7,0.3-7.2-1.3-10.9-1.6c2.8,2.1,6,2.6,9.3,2.7
		c2.7,0.1,5.5,0.2,8.1-0.6c1.8-0.6,2.7,0.1,3.4,1.9c-3.4,3.3-7.7,3.9-12.1,3.9c-4.5,0-8.4-2-12.6-4.6c0.9-3.8-2.8-7.5-0.9-11.8
		c0.2-0.4,0-1-0.2-1.5c-1.3-3.5-0.5-6.4,2.7-8c0.8-1.5-0.8-2.5,0-3.8c3.5-3.1,4.4-3.3,7.4-1.3c0.4,2.1-3.4,3-1.4,6.1
		c0.6-1.9,1.4-3.4,2.6-4.5c2.4,1.4,4.7,2.9,7.8,3c-0.9-2.1-2.8-2.1-4.2-2.9c-2.2-1.3-3.6-2.8-3-5.6c0.7-3.4-0.2-6.7-0.6-10
		c-1-8.4-0.9-16.8,0.2-25.2c3.7-1.9,7.1-0.3,10.5,0.3c3.1,12,1.6,24,1.5,36.1c-4.1,3.5-4.5,6.2-1.4,13c-3.1,0.9-6.2,0.3-9.1-0.4
		c-2.9-0.7-5.2-3.1-8.6-3.8c2.4,5.1,13.6,7.5,20,4.7c1.2,1.9,2.6,3.7,1.4,6.4c-7.2,2.6-14.1-0.9-21.2-1.5c2.5,2,6.4,1.9,7.7,5.5
		c1.3,0.1,0.5-1.3,1.9-1.8c3.9,0.4,8.4,1.3,12.4-0.8C215.3,256.2,213.7,257.4,214.2,258.6L214.2,258.6z"/>
	<path fill="#FFFFFF" d="M419.4,419.5c-0.3,0.9,0.1,1.6,0.7,2.1c6.3,5.4,5.7,12.8,5.5,20c0,1.8-0.5,3.6-2.1,5.1
		c-10.5-4-20.8-5.4-30.4,2.7c-0.9-0.8-0.8-2.2-0.6-3.4c1.2-7.2,1.1-14.6,3.7-21.5c0.5-1.3,0.9-2.4,2.3-2.9c1.5-0.5,2.1-1.6,1.9-3.1
		c5.9-3.1,11.5-1.1,17.1,0.6C418.1,419.2,418.6,419.9,419.4,419.5L419.4,419.5z"/>
	<path fill="#FFFFFF" d="M364.3,463.1c6.4-3,9.9-8.9,13.9-14.5c3.1,2.1,5.3,4.5,6.9,7.3c0.3,1.7-1.2,2.7-1.3,4.1
		c1,0.4,1.2-0.8,2-0.8c2.5,3.9,1.9,7.4-1.3,11c-11.7,0.9-23.5,1.4-35.4,0.3c-3.4-0.3-6.5-2.2-9-5.1c4.8-4.5,11.2-3.1,16.4-5.4
		c5.2-2.3,10.5-4.7,16.1-6.5C370.5,457.4,366.7,459.7,364.3,463.1c-0.3,0.4,0.3,0-0.2,0.3C364,463.4,364.1,463.4,364.3,463.1z"/>
	<path fill="#FFFFFF" d="M213.3,266.3c1.3,4.1,4.2,5.6,7.9,3.6c2.8-1.5,5.3-1.5,8.1-0.3c3.1,1.3,6.5,1.6,10.1,3.4
		c-6.2,2.7-12.2,4.7-18.5,5.7c-3.3,0.5-6.6,0.9-10,0.2c-4.8-1-5.9-1.9-7.1-6.7c-0.2-1-0.5-2-0.3-3.4
		C206.7,267.8,210.2,267.7,213.3,266.3L213.3,266.3z"/>
	<path fill="#FFFFFF" d="M425.1,449.8c0.4,3.4,0.8,6.2,1.1,8.8c-10-1.5-19.9-1-29.9-1.3c0.2-1.8,0.4-3.3,0.5-4.9
		c0.1-2.7,1.5-4.1,4-4.9c6.4-2,12.5-1.1,18.5,1.2C421.2,449.3,422.9,450.3,425.1,449.8z"/>
	<path fill="#FFFFFF" d="M580,264.5c4.4-1.8,8-3.4,11.7-4.9c6.1,2.5,8.1-2.2,8-6.9c3.3,0.3,6.6,0.5,9.9,0.8
		c1.3,8.1-5.2,15.7-13.3,15.3C590.8,268.4,585.8,266.5,580,264.5z"/>
	<path fill="#FFFFFF" d="M240.4,274.5c3.6-0.4,6,1,9,1.4c-0.8,2.9-0.1,5.8,0.6,9.6c-2.2-2.6-4.4-2.3-6.5-2.5c-1.5,0-0.9,2.2-2.7,2.2
		C240.5,281.7,241.1,278.3,240.4,274.5z"/>
	<path fill="#FFFFFF" d="M569.5,275c0.1-2,0.3-4.1,0.4-6.3c2.3-1,4.7-1.9,7.3-3c0.6,2.2,0.7,4.3,0.7,6.6
		C575.1,273.3,572.9,275.9,569.5,275L569.5,275z"/>
	<path fill="#FFFFFF" d="M313.1,611.2c-0.1-1.3,0.1-2.3,0.9-3.2c2.1-0.3,4.4-0.7,6.7-1.1c0.7,1.4,1.3,2.6,1.9,3.8
		C319.3,613.7,317.6,613.8,313.1,611.2z"/>
	<path fill="#FFFFFF" d="M440.8,201.9c3.4-0.7,3.4-0.7,6.2,0.2c-0.5,1-1,1.9-1.5,2.9c-1.4,0.4-2.8,0.5-4.3,0.5
		C440.4,204.3,440.6,203.1,440.8,201.9z"/>
	<path fill="#FFFFFF" d="M402.4,351.8c2.2-0.7,4.2-0.9,6.2,0C406.4,352.7,404.3,354.1,402.4,351.8z"/>
	<path fill="#FFFFFF" d="M433.9,351c-1,1.3-0.7,3.8-3.4,2.5c-0.8-1-0.2-1.9,0.2-2.8C431.6,350.4,432.5,350.6,433.9,351z"/>
	<path fill="#FFFFFF" d="M377.8,157.8c0.1,2.7,2.7,3.9,2.2,6.5C376.4,161,376.2,160.5,377.8,157.8z"/>
	<path fill="#FFFFFF" d="M414.7,353.7c-1.2,0.2-2,0.4-2.9,0.5c-0.2,0-0.5-0.1-0.8-0.1c-0.1-0.8-0.3-1.6-0.5-2.5
		c1.4-0.1,1.1,1.7,2.3,1.7c1.1-0.3-0.4-1.8,0.9-2.1C414.7,351.6,414.4,352.6,414.7,353.7z"/>
	<path fill="#FFFFFF" d="M423.7,352.2c-1.3,0.6-2.4,0.7-3.3-0.6C422.6,350.3,422.6,350.3,423.7,352.2z"/>
	<path fill="#FFFFFF" d="M388.5,351.2c2.4-1.1,4.1-0.7,5.8-0.1C392.6,351.7,390.9,352.4,388.5,351.2z"/>
	<path fill="#FFFFFF" d="M445.8,352.7c-1.4,0.4-2.4,2.1-4.2,1.2C442.1,351.5,442.2,351.5,445.8,352.7L445.8,352.7z"/>
	<path fill="#FFFFFF" d="M369.1,353c2-0.5,3.7-1.1,6-0.9C373.1,353.8,371.6,354.9,369.1,353z"/>
	<path fill="#FFFFFF" d="M425.8,350.9c1-0.6,1.7-0.4,2.2-0.3c0.7,1.1,0,1.8-0.1,2.6C425.9,353.5,425.6,352.5,425.8,350.9z"/>
	<path fill="#FFFFFF" d="M434.4,162.4c-1.2-1.2-2.2-2.5-0.1-4.2C434.9,159.7,434.8,161,434.4,162.4z"/>
	<path fill="#FFFFFF" d="M439.2,354.2c-0.7,0.1-1.3,0.1-1.8-0.6c0-1.3,0.5-2.3,2.1-2.1C440.2,352.6,439.6,353.4,439.2,354.2z"/>
	<path fill="#FFFFFF" d="M433.3,165.1c-0.5,1.2-1,2.4-1.5,3.7c-1.2-0.4-1-1.3-1.2-1.8C431,165.5,432.4,165.8,433.3,165.1z"/>
	<path fill="#FFFFFF" d="M445.7,352.8c1.3-0.1,2.5-0.2,3.8,0.2C447.5,354.1,447.5,354.1,445.7,352.8L445.7,352.8z"/>
	<path fill="#FFFFFF" d="M417.4,350.5c1.5,1.1,1.4,2-0.4,2.9C416.3,352.2,416,351.4,417.4,350.5z"/>
	<path fill="#FFFFFF" d="M615.1,253.7c-1.2,1.2-2,1.2-3.2,0.4C613,252.7,613.9,253.2,615.1,253.7z"/>
	<path fill="#FFFFFF" d="M387.2,130.7c-0.9,0.6-1.6,0.2-2.5-0.4C386.1,129.3,386.7,129.8,387.2,130.7z"/>
	<path fill="#FFFFFF" d="M378.4,151.1c1.5,0.9,2,1.5,1.8,2.6C378.9,153.5,378.7,152.7,378.4,151.1z"/>
	<path fill="#FFFFFF" d="M396.5,351.4c1.4-0.1,1.5,0.5,1.2,1.4C396.8,352.8,396.5,352.4,396.5,351.4z"/>
	<path fill="#FFFFFF" d="M433,154.3c0.7,1.1,0.1,1.5-0.7,2.1C431.9,155.4,431.6,154.8,433,154.3z"/>
	<path fill="#FFFFFF" d="M407.3,127.1c0.7,0.4,0.5,1.1,0.5,1.7c0,0.3-0.4,0.4-0.6,0.1C406.9,128.3,406.9,127.7,407.3,127.1z"/>
	<path fill="#FFFFFF" d="M218.3,267.4c-1.2,0.6-1.9,0.7-2.5,0.1C216.5,266.7,217.1,267.2,218.3,267.4z"/>
	<path fill="#FFFFFF" d="M415,119.2c-0.1,0.2-0.2,0.5-0.4,0.6c-0.1,0.1-0.5-0.1-0.6-0.2c-0.3-0.4,0-0.7,0.4-0.7
		C414.6,118.8,414.8,119,415,119.2z"/>
	<path fill="#FFFFFF" d="M415.3,126.9c-0.1,0.5-0.3,0.9-1,0.6C414.3,126.7,414.6,126.5,415.3,126.9z"/>
	<path fill="#FFFFFF" d="M416.4,120.8c0.1,0.2,0.3,0.3,0.4,0.5c-0.2,0.1-0.3,0.2-0.5,0.2c-0.1,0-0.2-0.2-0.2-0.2
		C416.1,121.1,416.3,120.9,416.4,120.8z"/>
	<path d="M313.6,522.9c1-3.9-1-7.3-0.8-10.9c0-0.6,0-1.4,0.3-1.9c3.4-4.6,1.9-10.2,3.3-15.2c0.3-1.1,0.9-2.6-1.7-2.7
		c3.5-3.2,5.5-6.9,9.2-10c-0.9,3.6-3.7,5.3-5.1,8.1c0.8,4.6-0.2,9.3-1.5,13.9c-0.5,1.7-0.7,3.3-0.2,5.2c0.9,3.1,0.3,6.4-0.3,9.6
		C316.6,520.9,314.1,520.8,313.6,522.9z"/>
	<path d="M314.1,429.6c2.6,2.7,2.8,6.1,4.4,9c-2.7,3.5-6.6,5.6-9.1,9.5c1.9,4.1,1.5,8.5-0.1,12.8c-0.5,1.3-1.8,2.1-4.1,2.1
		c3.5-4.9,5.3-9.9,2.1-15.3c3.8-2.9,3.8-8,7.7-9.9C315.1,434.9,312.5,432.6,314.1,429.6z"/>
	<path d="M331.1,452.2c2.3,3.4,0.8,17-2.4,19.4C331.2,465.4,329,458.7,331.1,452.2z"/>
	<path d="M350.3,440c-3.3,3.3-7,6-11.5,7.4C342.1,444.2,345.7,441.4,350.3,440z"/>
	<path d="M327.7,442.5c4.1,0.4,6.2,2.9,7.5,6.3C332.7,446.7,330.2,444.6,327.7,442.5z"/>
	<path d="M318.5,432.6c3.3,1.6,4.4,5,6.5,7.5C321.7,438.6,320,435.7,318.5,432.6z"/>
	<path d="M300.7,474.2c2.8,2.1,3.9,5,3.2,8.5C301.6,480.4,302.4,476.8,300.7,474.2z"/>
	<path d="M314.7,524.1c0.3,3.2,0.5,6.5,0.8,9.7c-0.3,0-0.6,0.1-1,0.1c-0.1-3.2-1.6-6.4-1.1-9.7C313.8,524.2,314.3,524.2,314.7,524.1
		z"/>
	<path d="M296.9,448.3c2.8-1.7,4.6-0.2,6.5,0.9C301.3,449.9,299.2,450.8,296.9,448.3z"/>
	<path d="M309.1,597.7c-0.5-2.3-0.6-4.7,0.4-6.9C309.9,593.1,311.5,595.5,309.1,597.7L309.1,597.7z"/>
	<path d="M321.7,479.9c0.7-1.5,1.4-3.1,3.7-3.9C324.9,478.4,323.4,479.2,321.7,479.9z"/>
	<path d="M295.7,464.5c1.1,1.6,1.9,2.6,1.4,4.3C296.2,467.6,295.6,466.6,295.7,464.5z"/>
	<path d="M318.6,582.6c0.6,1.4,0.2,2-0.6,2.7C317.3,584.3,317.5,583.5,318.6,582.6z"/>
	<path d="M315.7,549.1c0.6,1.6,0,2.3-1,3.1C314,550.9,314.2,550,315.7,549.1z"/>
	<path d="M356.2,430.1c0.3,1.2-0.2,1.7-0.9,2C354.6,431.1,355.1,430.6,356.2,430.1z"/>
	<path d="M314.8,539.7c-0.9-1.1-0.3-1.7,0.6-2.4C316.3,538.6,315.8,539.1,314.8,539.7z"/>
	<path d="M349.9,438.3c0.4-1.6,1.3-2.1,2.2-2.4C352.9,436.5,352.8,436.6,349.9,438.3z"/>
	<path d="M309.4,585c-0.1-1-0.1-1,0.3-1.9c0.7,0.1,0.7,0.6,0.5,1C310,584.5,309.7,584.7,309.4,585z"/>
	<path d="M309.2,578.4c-0.1-0.3-0.3-0.7-0.3-1s0.4-0.5,0.5-0.2c0.2,0.3,0.1,0.7,0.2,1C309.5,578.2,309.4,578.3,309.2,578.4z"/>
	<path d="M314.8,545.6c-0.6-1.1-0.2-1.5,0.5-1.9C316.3,544.8,315.4,545,314.8,545.6z"/>
	<path fill="#FFFFFF" d="M289.9,623.5c-0.1-1.1,0.4-1.6,1.1-2.4c3.1,0.6,6.3,1.2,10.1,1.9C297,623.3,293.4,622.8,289.9,623.5z"/>
	<path fill="#FFFFFF" d="M299.3,618.2c-2.2,0.6-4.2-0.3-7.2-0.4C295.3,616.2,297.2,618,299.3,618.2z"/>
	<path fill="#FFFFFF" d="M306.9,623.9c-0.9,0-1.8,0-3.6,0C305.1,623.3,306,623.6,306.9,623.9L306.9,623.9z"/>
	<path fill="#FFFFFF" d="M740.3,623.7c-0.1-1.1,0.2-1.7,1.1-2.5c2.9,0.5,6,1.1,9.7,1.8C747.1,623.4,743.6,622.6,740.3,623.7z"/>
	<path fill="#FFFFFF" d="M743.3,617.6c2.3-1.3,4.3,0.4,6.4,0.6C747.5,618.9,745.4,617.7,743.3,617.6z"/>
	<path fill="#FFFFFF" d="M754.6,623.6c0.5-0.2,0.9-0.2,1.3,0.1C755.4,624,755,624,754.6,623.6z"/>
	<path fill="#FFFFFF" d="M601.4,228.3c-1.9-2.5-2.3-5.1-1.8-8.3c0.9-5.6,0-11.4-0.8-17c-0.9-6.2,0.9-12.3,0.2-18.4
		c3.8-0.8,7.1-0.3,10.2,1.3c0,12.6,0,25.3,0,37.7c-1.7,2.2-3.9,2.6-6.1,3C602.2,226.8,601.1,226.9,601.4,228.3L601.4,228.3z"/>
	<path d="M774,295.6c2.5-0.1,3,1.6,3.3,3.3c1.1,6.4,3.5,12.5,1.7,19.4c-1,4.3,0.7,9.2,1,13.8c0.5,6.6-0.8,8.2-7.5,9.2
		c-4,0.6-8,0.8-11.3-2.3c-0.5-0.5-1.6,0.2-2.2-0.8c-0.8-2.8-1.3-5.7-0.4-9.4c1.3,2.4,1.3,4.5,1.7,6.5c0.3,1.4,0.7,2.8,2.1,2.9
		c5,0.5,10,1.4,15.4-1.5C776.1,323.2,777,309.4,774,295.6z"/>
	<path d="M738.2,324.4c6.9,0.5,13.9-0.3,20.8,1.2c0,0.5-0.1,1-0.1,1.5C751.9,327.4,745,326.5,738.2,324.4z"/>
	<path d="M886.1,292.2c3,2.7,3.3,7,7.1,8.7c3.3,1.4,6.8,2.1,10.7,3.9c-4.1,0.9-6.9-0.9-9.9-1.8c-0.4,0.8,0.5,1.2,0.5,1.8
		C890.8,303.1,887.2,297.9,886.1,292.2z"/>
	<path d="M843.8,284c-3.2,4.4-8.1,7.5-9.5,13.7C833,293,837.5,286.7,843.8,284z"/>
	<path d="M858.2,295.1c-1.4-5.1-1.2-9.4,0.8-12.4C858.5,286.8,858.6,290.9,858.2,295.1z"/>
	<path d="M737.5,390.8c1.1,3.5,3.3,6.9,3.2,10.8C739.1,398.2,737.6,394.8,737.5,390.8z"/>
	<path d="M860,317.4c-1.9-3.6-1.5-7.4-0.3-11.2C859.8,310,859.6,313.7,860,317.4z"/>
	<path d="M760.1,316.2c2.3,3.4,0.4,6.3,1.2,9.1c-0.9-0.9-0.6-2.7-2.9-2.2C760,320.9,759.5,318.8,760.1,316.2z"/>
	<path d="M854.8,344.3c2.2-1.5,4.7-0.6,7.1-0.7c2.9-0.1,5.9,0,8.9,0.7C865.4,344.2,860.1,344.2,854.8,344.3L854.8,344.3z"/>
	<path d="M855.6,273.7c-2.8,2.8-5.4,5.7-7.4,7.1C849.9,279.1,852.7,276.4,855.6,273.7z"/>
	<path d="M859,333.8c0.6-3.1-0.5-6-0.2-9.3C860.5,326.8,860.7,330.6,859,333.8z"/>
	<path d="M854.7,344.2c-4.8,0.6-9.6,1.1-14.4,1.7C845.1,344.4,849.9,343.7,854.7,344.2L854.7,344.2z"/>
	<path d="M734.5,345.1c-1.3-3.1-0.9-6.4-1-9.7C734.4,338.6,734.7,341.8,734.5,345.1z"/>
	<path d="M733.3,311.1c1.2,2.8,2,5.8,1.5,9.7C733.2,317.2,732.9,314.2,733.3,311.1z"/>
	<path d="M813.9,287.5c2.3,0.7,2.6,3.1,4.1,4.5C815.7,291.3,814.3,289.8,813.9,287.5z"/>
	<path d="M746.7,415.9c-1.9-2-2.7-3.6-2.7-5.5C745.3,411.7,746,413.2,746.7,415.9z"/>
	<path d="M870.4,328.2c1.9-1.6,4-0.9,6-0.7C874.5,327.9,872.4,327.8,870.4,328.2z"/>
	<path d="M902.8,293c1.2-2,2.3-3,3.7-3.7C906.1,291.4,906.1,291.4,902.8,293z"/>
	<path d="M736.3,376.2c1.2,1.6,1.4,3.5,1.7,6C736.7,379.9,736.6,378,736.3,376.2L736.3,376.2z"/>
	<path d="M902.2,293c-0.6,2.1-1.7,2.5-3.2,3C899,294,900.4,293.7,902.2,293z"/>
	<path d="M826.8,304.5c-0.4,1.6-1.6,1.8-2.9,2C824.6,305.2,826.1,305.5,826.8,304.5z"/>
	<path d="M759.1,309.7c1.2,1,1.5,2.2,0.2,3.5C758.2,312,759.1,310.8,759.1,309.7z"/>
	<path d="M758.4,303.5c0.3,1.2,1.8,2.2,0.6,3.8C757.6,306,758.3,304.7,758.4,303.5L758.4,303.5z"/>
	<path d="M736.4,376.1c-0.5-1-0.7-2.1-0.1-4.2C736.3,374,736.3,375.1,736.4,376.1L736.4,376.1z"/>
	<path d="M863.3,274.1c-0.9,0.2-1.3-0.3-1.9-1.1C862.5,272.9,862.9,273.4,863.3,274.1L863.3,274.1z"/>
	<path d="M909.3,300.4c-0.1-1.1,0.2-1.4,0.8-1.6C910.7,299.6,909.9,299.8,909.3,300.4z"/>
	<path d="M765.5,492.2c2.7-3.2,5.2-6.1,7.7-9c0.1,3.1-2.6,4.5-3.8,7.2c0.5,3.8,0.1,8-1.1,12.1c-0.7,2.6-1.4,5-0.5,7.8
		c0.8,2.6,0.1,5.4-0.2,8.1c0,0.3,0,0.6-0.2,0.7c-4.3,3.8-1.7,8.2-1.3,12.4c0.1,0.7-0.2,1.5-0.3,2.7c-2-2.3-1.6-4.9-1.9-7.1
		c-0.3-2.6-0.9-5.6,0.4-8.2c0.5-1.1-0.4-1.6-0.5-2.5c-0.6-3.1-1.3-6.1,1.3-8.7c0.3-0.3,0.7-0.9,0.6-1.3c-0.2-4.3,0.9-8.5,1.4-12.7
		C767.2,492.4,766.2,492.5,765.5,492.2z"/>
	<path d="M755.1,462.8c3-2.6,3-5.9,4.6-8.4c-0.4-2.6-1.9-4.7-1.4-7.3c3.2-2.5,3.1-7.4,6.9-9.2c0.6-2.9-1.9-5.2-0.9-8.3
		c3.1,2.5,3.1,6.1,4.7,8.9c-2.6,3.7-6.7,5.6-9.1,9.7c1.7,4.1,1.8,8.5-0.2,12.8C759,462.1,757.7,463,755.1,462.8z"/>
	<path d="M778.5,471.8c3-6.4,1.2-13.1,2.7-19.5c1.7,0.4,1.8,1.6,1.6,2.5c-0.4,3.2,0.1,6.5-1.2,9.5c-0.7,1.5-0.2,3-0.4,4.5
		C781,470.4,780.9,471.7,778.5,471.8z"/>
	<path d="M788.4,447.2c4-3,7.7-5.6,12.5-7.8C798,443.4,791.8,447.3,788.4,447.2z"/>
	<path d="M775.8,440.7c-3.2-2-5.5-4.7-6.8-8.2C772.1,434.5,773.6,437.9,775.8,440.7z"/>
	<path d="M750.9,474.1c3.1,2.1,3.9,5.1,3.4,8.6C752.1,480.3,752.7,476.7,750.9,474.1z"/>
	<path d="M754.1,449.7c-2.3-0.1-4.6,1.2-6.5-1.1C749.9,446.9,751.6,447.1,754.1,449.7z"/>
	<path d="M785,448.4c-2.3-1.9-4.6-3.9-7-5.8C781.8,442.7,784,444.9,785,448.4z"/>
	<path d="M760.2,597.9c-2-2.3-1.1-4.7-0.3-7.1C760.9,593,760.9,595.4,760.2,597.9L760.2,597.9z"/>
	<path d="M768.3,588.3c1.4,1.4,1.2,2.9,0.7,4.8C766.8,591.5,767.9,589.9,768.3,588.3z"/>
	<path d="M772,479.8c0.8-1.4,1.5-2.9,3.1-3.8C774.9,478.4,774.9,478.4,772,479.8z"/>
	<path d="M745.7,464.6c1.9,1.4,2,2.9,2,4.4C746.5,468,746.3,466.6,745.7,464.6z"/>
	<path d="M766.2,549.1c0.2,1.5,0,2.4-0.8,3.1c-0.2-0.1-0.6-0.2-0.6-0.4C764.3,550.7,764.8,549.9,766.2,549.1z"/>
	<path d="M800.3,438.4c0.5-1.9,1.7-2.2,2.8-2.7C802.9,437.1,801.9,437.8,800.3,438.4z"/>
	<path d="M765.8,537.3c0.8,1.2,0.5,1.8-0.7,2.4C764.3,538.5,765,538,765.8,537.3z"/>
	<path d="M759.9,578.5c-0.8-0.5-0.9-1.3-0.5-1.4C759.9,577,760.1,577.7,759.9,578.5z"/>
	<path d="M765.7,543.7c0.7,0.9,0.2,1.3-0.1,1.9C764.2,544.8,764.9,544.3,765.7,543.7z"/>
	<path d="M768.4,585.2c-0.5-1.1-0.4-1.7,0.4-2.3C769.4,583.7,769.4,584.4,768.4,585.2z"/>
	<path d="M807.2,429.5c-0.5,0.8-0.3,2-1.4,2.5C804.9,430.3,806.6,430.3,807.2,429.5L807.2,429.5z"/>
	<path d="M760.1,582.7c0.8,1,0.5,1.6,0,2.7C759.2,584.1,759.8,583.5,760.1,582.7z"/>
	<path d="M947.7,244c-1.6,1.8-3.2,2.6-4.1,1.4c-2.2-2.9-5.2-4.6-8.7-7.2C941.2,237,942.6,243.5,947.7,244z"/>
	<path d="M870.4,263.3c-0.5-0.7-1.8-0.5-1.6-2.5c3.4,1.7,6.4-0.3,10.5-1.3C876.5,263.1,873.5,263.4,870.4,263.3L870.4,263.3z"/>
	<path d="M940.6,244.5c1.1,3.6-2.2,6.6-7.1,6.8C935.9,248.9,939.7,248.2,940.6,244.5z"/>
	<path d="M940.7,235.4c4.5-2.3,6.9-1.2,8.9,3.9C946.4,238,944.7,234.1,940.7,235.4z"/>
	<path d="M940.2,257.4c2.3-0.2,4.5,0,7.2,1.5C944.2,259.6,942,259.7,940.2,257.4z"/>
	<path d="M936.6,241.8c-2.2,1.5-4.7,2-8.1,2C931.4,241.9,933.9,241.4,936.6,241.8z"/>
	<path d="M877.6,242.3c-0.1-1.6-0.9-3.2-0.2-5.2C879,239.1,879.5,240.6,877.6,242.3z"/>
	<path d="M948.5,244.8c0.6-1.5,1.3-3,2.2-5c1.1,2.8,0.5,4.4-1.4,5.5C949,245.1,948.8,245,948.5,244.8z"/>
	<path d="M938.5,255.7c1.3-1.1,2.6-2.1,3.9-3.2C942.2,254.8,940.7,255.6,938.5,255.7z"/>
	<path d="M882.8,237.8c-1.7,0.8-3,0.3-4.6-0.9C880.5,235.6,881.5,237.2,882.8,237.8z"/>
	<path d="M878,245.6c2.1-0.2,3.3,0.5,4.7,1.1C880.4,247.2,880.4,247.2,878,245.6z"/>
	<path d="M887.2,240.9c1.9-0.4,3,0.7,4.3,2.5C889.4,243.1,888.5,241.8,887.2,240.9L887.2,240.9z"/>
	<path d="M925.4,254.6c-1.6,1-2.5,1.1-3.7,0.5C922.7,254.3,923.7,254.2,925.4,254.6z"/>
	<path d="M918.1,245.5c-0.7,1-1.6,1.4-3.1,1.3C915.8,245.2,916.9,245.4,918.1,245.5z"/>
	<path d="M877.5,253.7c1.6,1.6,0.6,2.3,0.2,3.4C876.5,255.8,877.4,255.1,877.5,253.7z"/>
	<path d="M922.4,219.7c0.7-1.1,1.4-1.8,2.6-1.2C924.6,219.5,923.9,220,922.4,219.7z"/>
	<path d="M887.3,240.8c-0.7-0.9-2.3-0.6-2.7-2.2C886.4,238.4,887,239.4,887.3,240.8L887.3,240.8z"/>
	<path d="M876,248.7c-0.3-1.4,0-2.1,1-2.7C877.6,247.2,877.6,248,876,248.7z"/>
	<path d="M865.2,245c0.4-1.5,1.2-1.2,2.1-1C866.8,245.2,866.2,245.4,865.2,245z"/>
	<path d="M862.9,254.7c1-1.2,1.8-1.1,2.7-1.2C865,254.9,864.1,254.3,862.9,254.7z"/>
	<path d="M916.5,255.6c-0.9,1-1.6,1.5-3.3,1.3C914.3,255.9,914.9,255.2,916.5,255.6z"/>
	<path d="M925.1,244.9c-1,0.8-1.9,0.5-3.1,0.4C923.2,244.3,924,244.1,925.1,244.9z"/>
	<path d="M928.7,253.2c0.7-0.1,1.4-0.2,2.2-0.4c-0.5,1.5-1.3,1.3-2.2,1.1C928.7,253.7,928.7,253.5,928.7,253.2z"/>
	<path d="M905.4,259.4c0.6,0.9,0.2,1.3-0.4,1.6C904.3,260.4,904.3,259.9,905.4,259.4z"/>
	<path d="M879.8,259.1c0.7-0.8,1.1-0.4,1.8-0.3C880.9,260,880.5,259.6,879.8,259.1z"/>
	<path d="M937.2,258.5c-0.1,0.8-0.6,1-1.3,0.9C935.9,258.4,936.2,257.9,937.2,258.5z"/>
	<path d="M905.8,252.3c-1,0.3-1.2-0.1-1.4-0.7C905.5,251,905.5,251.9,905.8,252.3z"/>
	<path d="M880,230.7c0.3,0.8-0.1,1.1-0.8,1.2C878.7,230.9,879,230.5,880,230.7z"/>
	<path d="M965.6,313c-0.6-4.8-3-9.4-1.6-14.5C965.1,303.3,965.8,308.1,965.6,313z"/>
	<path d="M988.6,313.4c-0.3-3.8-0.5-7.7-0.8-11.5c0.3,0,0.7-0.1,1-0.1c1.6,3.7,1.7,7.6,0.9,11.6C989.4,313.4,989,313.4,988.6,313.4z
		"/>
	<path d="M989.8,339.4c0.6,6.2,1.2,12.5,1.8,18.7C989.7,352,989.4,345.8,989.8,339.4z"/>
	<path d="M984.7,278.9c0.7,1.7,0.8,3.4,0.2,5.5C983.3,282.4,983.7,280.7,984.7,278.9z"/>
	<path d="M986.2,293c1.3,0.2,1.5,0.9,1,2C986.8,294.2,986.5,293.6,986.2,293z"/>
	<path d="M983,320c-1.1-0.3-1.4-0.7-1.2-1.6C982.9,318.3,983.3,318.6,983,320z"/>
	<path d="M976.7,419.6c0.5-0.8,0.9-1.7,2.1-2C978.6,419,977.7,419.3,976.7,419.6L976.7,419.6z"/>
	<path d="M981.4,414.1c0,0.9-0.2,1.6-1.2,2C980.1,415,980.6,414.5,981.4,414.1L981.4,414.1z"/>
	<path d="M981.5,414.2c-0.1-0.7,0.3-1.1,1-1.6C982.3,413.5,982.2,414,981.5,414.2L981.5,414.2z"/>
	<path d="M989.8,315.5c0.3,0.9,0.2,1.3-0.5,1.3C988.7,316.3,989.3,316.1,989.8,315.5z"/>
	<path d="M836.2,151c4.7-4.8,13.3-4.3,15.5,0.8c-3.9,4.5-9,2.4-13.8,2.5c1-1.7,2.9-2.3,9.2-3C843,150.3,839.7,148.8,836.2,151z"/>
	<path d="M873.8,154.3c-5.9,1.4-10.5,0.9-14.5-2.6c1.4-4.8,9.8-5.2,15.7-0.2c-2,0.7-3.1-1.2-4.8-1.4c-1.5,1.3-4,0.2-6.2,1.7
		C867.2,152.2,870.3,152.4,873.8,154.3z"/>
	<path d="M860.2,183c-3.9,0.3-7.6,0.8-11.6,0.2c1.3-5.1,5.3-2.9,8-3.7C858.6,178.9,859.8,180.5,860.2,183z"/>
	<path d="M851.8,171.3c0.1-3.3,1.7-3.6,3.4-3.7c1.4-0.1,2.8,0.3,2.6,2.6C855.9,170.2,854,169.6,851.8,171.3z"/>
	<path d="M854.5,223.5c2.3-0.7,4.4-1.8,6.8-2.2C859.6,223.7,857.3,224.4,854.5,223.5z"/>
	<path d="M870.5,423.2c3.2,4.5,4,9.7,4.2,15c-1.7-4.8-2.5-9.9-4.7-14.5C870.1,423.5,870.3,423.4,870.5,423.2z"/>
	<path d="M815.6,462.7c-0.8,0.5-1.1,0.7-1.7,1.1C814.3,462.9,814.5,462.6,815.6,462.7z"/>
	<path d="M854.2,447.7c0.5,2.3,0.5,3.9,0.2,5.6C853.8,451.7,853.4,450.1,854.2,447.7z"/>
	<path d="M388.5,265.8c-3.1,3.2-5.4,3.9-7.7,2.3c-1.9-1.4-2.6-3.3-1.6-5.4c1.3-2.9,3.8-3.1,9.7-0.9c2.2-1.2,4.6-2.9,7.3-0.8
		c2.6,2,1.4,4.6,1.3,7.2C394,269.1,390.8,269.7,388.5,265.8z"/>
	<path d="M378.3,268.5c-2.7,0.5-2.7-2.2-4.3-2.3c-1.6,0.1-0.4,2.3-2.2,2.5c-1.6-1.4-0.3-3.6-1.1-5.4c-0.7-1.1-3.1-0.3-3.3-3
		c3,0.1,5.9-0.8,8.8-0.1c2.1,0.6,3.2,2.4,1.9,4.1C376.8,266.1,377.4,267.1,378.3,268.5z"/>
	<path d="M416.3,276.5c7.4,2.1,13.3,6.2,17.3,12.8C428.4,284.4,422,280.9,416.3,276.5L416.3,276.5z"/>
	<path d="M435.8,292.4c2.9,2.7,3.1,6.9,6.9,8.4c3.3,1.4,6.7,2.4,9.8,3.3c0.4,0.7,0.3,1,0,1C442.7,303.9,437.7,302.2,435.8,292.4z"/>
	<path d="M389.6,345.6c10.3-1.9,20.7-2.3,31.1-1.7C410.3,343.9,399.9,344.6,389.6,345.6z"/>
	<path d="M383.4,297.3c-0.2-7,5.3-9.9,9.7-13.6C390.3,288.5,385,291.5,383.4,297.3z"/>
	<path d="M373.6,281.8c-5.7-0.8-9-3.5-8.7-7.5C367.2,277.6,370.6,279.4,373.6,281.8L373.6,281.8z"/>
	<path d="M459,289.2c1.9-2.5,1.5-5.9,4.1-8.2C464.1,285.2,462.4,288.6,459,289.2z"/>
	<path d="M408.8,282.8c-0.3,3.7-0.5,7.4-0.8,11.1c-0.3,0-0.5,0-0.8,0c-0.2-3.7-0.8-7.5,0.8-11.1
		C408.2,282.8,408.5,282.8,408.8,282.8z"/>
	<path d="M405.2,273.7c-3,2.9-5.8,6.1-7.7,7.4C399.1,279.5,402.2,276.6,405.2,273.7z"/>
	<path d="M409,317.5c-1-3.7-0.7-7.4,0.1-11.2c0.9,1.8-0.1,3.7,0.1,5.5c0.2,1.9,0.4,3.7,0.6,5.6C409.6,317.4,409.3,317.5,409,317.5z"
		/>
	<path d="M408.6,333.8c0-3,0-6,0-9.1C410.2,327.8,410.3,330.4,408.6,333.8z"/>
	<path d="M456.8,279c-0.6,3.4-3,3.9-5.9,3.7C452.7,281.1,454.2,279.2,456.8,279L456.8,279z"/>
	<path d="M456.9,279c0.5-3.1,2.3-5.4,4.9-7.2C461.1,274.9,458.7,276.8,456.9,279L456.9,279z"/>
	<path d="M366.4,291c-1.9-0.4-2.7-1.7-3.5-4C365.5,287.9,365.8,289.7,366.4,291z"/>
	<path d="M406.6,245.3c0.7,1.5,0.7,3.1,0.6,5.4C405.7,248.6,406.6,246.9,406.6,245.3z"/>
	<path d="M452.2,292.8c1-1.5,2.3-2.7,4.6-3.9C455.8,291.7,454.4,292.8,452.2,292.8L452.2,292.8z"/>
	<path d="M373.5,281.9c1.4,0.5,2.8,1.1,4.1,2.8C375.2,284.6,373.9,283.9,373.5,281.9L373.5,281.9z"/>
	<path d="M426.2,327.5c-1.5,0.4-2.7,0.5-3.8,0C423.5,327.5,424.6,327.5,426.2,327.5z"/>
	<path d="M452.1,292.8c-0.7,1.6-1.6,2.8-3.7,3.1C449,293.6,450.7,293.3,452.1,292.8L452.1,292.8z"/>
	<path d="M426.8,230.6c0.8-1.4,1.6-1.6,2.6-1.4C429.1,230.6,428.2,230.5,426.8,230.6z"/>
	<path d="M438.6,258.5c-1.3,1-2.1,0.6-2.8-0.3C436.8,257.4,437.6,257.3,438.6,258.5z"/>
	<path d="M404.9,347.9c-1,0-2.1-0.1-3.1-0.1C402.8,347.3,403.8,347.7,404.9,347.9L404.9,347.9z"/>
	<path d="M441.4,257.5c0.4-0.7,1-1.1,1.9-1c0.5,0.7-0.1,0.9-0.5,1.1S441.9,257.9,441.4,257.5z"/>
	<path d="M414,275c1.1,0.1,1.9,0.5,2.3,1.6l0.1-0.1C415.2,276.5,414.3,276.1,414,275L414,275z"/>
	<path d="M414,274.9c-0.9,0.2-1.4-0.3-2.3-1.3C413,273.8,413.7,274,414,274.9L414,274.9z"/>
	<path d="M380.1,342.1c-0.2-0.5,0.1-0.6,0.5-0.7C380.8,341.9,380.3,341.9,380.1,342.1z"/>
	<path d="M441.6,285.2c-0.3,0.8-0.7,0.9-1.4,0.3C440.6,284.8,441,284.6,441.6,285.2z"/>
	<path d="M336.9,244.4c-3.3,4.3-7.4,7.5-12.5,9.2c-5.7,1.8-11.1,4.2-15.9,7.9c-1.5,1.2-3.3,2.4-5.8,1.4
		C313.4,254.9,325.6,250.5,336.9,244.4z"/>
	<path d="M358.7,214.3c3.3-0.8,6.6-1.2,9.8-0.5c0,0.3,0,0.7,0,1C365.2,214.6,362,214.4,358.7,214.3z"/>
	<path d="M214.9,263.3c0.2-1,0.1-2.1,1.7-1.9c1.7,0.3,3.4,0.8,5.1,2.6C219,263.7,216.9,263.4,214.9,263.3L214.9,263.3z"/>
	<path d="M290.3,247.2c-0.6,2-1.2,3.9-1.9,6.2C287.2,250.7,287.3,250.1,290.3,247.2z"/>
	<path d="M284.5,249c-1.9-1-3.7-2-6.3-3.3C281.5,245.6,283.5,246.3,284.5,249z"/>
	<path d="M355.2,214.6c-1.4,1.1-2.8,1.5-4.7,1.1C352.1,214.6,353.3,213.9,355.2,214.6z"/>
	<path d="M278.7,266.5c1.5-1.6,2.8-2.3,5-3.3C282.4,265.5,281,266.1,278.7,266.5z"/>
	<path d="M344.5,208.2c-0.5,1.2-1.7,1.3-2.8,1.9C341.9,208.2,343.7,209,344.5,208.2z"/>
	<path d="M299.9,263.3c-0.9,0.9-1.4,0.8-2,0.5c-0.2-0.7,0.2-0.9,0.7-0.9C298.9,262.9,299.2,263.1,299.9,263.3z"/>
	<path d="M369.6,209.7c1.2-0.2,2.1,0.1,3,1.4C371,211.3,370.4,210.3,369.6,209.7L369.6,209.7z"/>
	<path d="M227.8,264.9c0.9,0.4,1.2,0.6,1,1.1C228.3,266.1,228.2,265.7,227.8,264.9z"/>
	<path d="M337.9,253.6c-0.3-0.5-0.1-0.8,0.5-1C338.9,253.3,338.6,253.5,337.9,253.6z"/>
	<path d="M327.8,231.7c0.6-0.3,1.1-0.6,1.3,0.4C328.5,232.7,328.1,232.4,327.8,231.7z"/>
	<path d="M279.4,307.6c3.1-0.3,2.6-2.7,2.9-4.5c-0.3,6.6,0.8,13.1,1.6,19.6c-0.2,0-0.5,0.1-0.7,0.1c-0.4-4-0.8-8.1-1.3-12.1
		C281.7,309.2,282.1,307.4,279.4,307.6z"/>
	<path d="M283.8,345c-0.3-3.9-1.4-7.8-1-12.3C283.9,337,284.2,341,283.8,345z"/>
	<path d="M285.4,362.4c0,3.2,0,6.4,0,9.6h-0.1c0-3.2,0-6.5,0-9.7C285.3,362.3,285.3,362.3,285.4,362.4z"/>
	<path d="M287.8,392.5c1.1,2.7,2.4,5.3,2,8.5c-0.9-2.7-1.9-5.4-2.8-8.1C287.2,392.8,287.5,392.7,287.8,392.5z"/>
	<path d="M296.1,415.5c-1.6-1.2-2.3-2.8-2.5-4.7C295.2,411.9,295.7,413.7,296.1,415.5z"/>
	<path d="M286.4,377.7c1.3,1.4,1,3.2,1.4,4.9C286.5,381.1,286.5,379.4,286.4,377.7L286.4,377.7z"/>
	<path d="M286.4,377.6c-0.5-0.6-0.8-1.2-0.4-2C286.5,376.3,286.4,377,286.4,377.6L286.4,377.6z"/>
	<path d="M403.8,507.3c-0.2,8.7,0,16.6,1.1,24.9C402,528.5,401.4,513.9,403.8,507.3z"/>
	<path d="M402.9,475.4c-0.3,7.3,1.3,14.5,0.5,21.8c-0.4-3.6-1-7.1-1.2-10.7C401.9,482.8,402,479.1,402.9,475.4z"/>
	<path d="M422.3,465.3c-1.3-1.2-1.5-2.8-2-4.4C423.2,461.5,423.5,462.2,422.3,465.3z"/>
	<path d="M401.3,151.8c-4,4.4-9,2.5-13.9,2.4c1.2-1.6,3.6-2.3,9.3-2.9c-4.1-1.2-7.5-2.3-11.1-0.2
		C390.2,146.1,399.3,146.7,401.3,151.8z"/>
	<path d="M419.7,149.9c-1.4,1.3-3.7,0.3-5.8,1.5c2.9,1.3,6.2,0.6,9.2,2.9c-5.5,1.1-10.1,1.2-14.3-3.2c0-1,0.8-2.3,2.7-2.6
		c4.6-0.5,9.3-1.4,13.2,2.9C422.6,152.2,421.7,150.4,419.7,149.9z"/>
	<path d="M398.2,182.9c1.7-4.7,5.6-2.7,8.4-3.4c1.7-0.4,2.9,1.1,3.3,3.5C406,183.1,402.2,184.2,398.2,182.9z"/>
	<path d="M394.7,177.2c3.1-1.3,14.8-1.4,18.8-0.3c0.5,1-0.3,1.6-1,1.5c-5.5-1-11-0.1-16.5,0C395.4,178.4,395.1,177.9,394.7,177.2z"
		/>
	<path d="M401.6,171.2c-0.2-2.9,1.2-3.3,2.5-3.5c1.5-0.2,3.1,0,3.6,2.2C405.7,170.7,403.6,169.3,401.6,171.2z"/>
	<path d="M385.5,213c6.7,0.7,11.3,5.1,16,9.2C396.1,219.3,391.4,215.2,385.5,213z"/>
	<path d="M426.3,212.2c-3.8,2.5-7.5,4.9-11.2,7.3C417.5,214.8,421.9,213.3,426.3,212.2z"/>
	<path d="M404.2,223.5c2.6-0.9,5.1-1.9,7.7-2.8C409.8,223.3,407.3,224.4,404.2,223.5z"/>
	<path d="M421.8,200.9c0.5-2.5,0.6-5.2,2.8-7.1C424.2,196.4,423.5,198.8,421.8,200.9z"/>
	<path d="M420.1,206.3c0.3,0.5,0.2,0.8-0.3,1.1C419.6,207,419.5,206.6,420.1,206.3z"/>
	<path d="M206,265c-1-0.3-1.3-0.7-0.8-1.4C206.2,263.5,206.5,263.9,206,265z"/>
	<path d="M210.3,249.4c0.8,0.4,0.8,1,0.6,1.3c-0.6,0.7-0.7-0.2-0.8-0.5C209.9,250.1,210.1,249.8,210.3,249.4z"/>
	<path d="M424.7,438.9c-1.4-0.5-1.2-1.5-1.4-2.3c-0.5-2.1-0.9-4.3-1.5-6.4c-2.5-8.8-4.6-10.4-13.6-10.6c-0.9,0-1.8-0.1-2.9-0.2
		c5.2-2.7,13.6,0.1,15.8,4.9C423.1,428.9,424.3,433.7,424.7,438.9z"/>
	<path d="M364.3,463.1c-0.4,0.6-0.9,1.1-1.7,1C362.9,463.2,363.6,463.2,364.3,463.1L364.3,463.1z"/>
	<path d="M404.5,453.4c-1.4-1.6-1.4-3.4-0.4-5.2C404.2,449.9,404.3,451.7,404.5,453.4z"/>
	<path fill="#FFFFFF" d="M386,264.8c-0.3,1.5-1.2,2.3-2.7,2.2c-1.7-0.2-2.6-1.3-2.4-2.9c0.2-1.4,1.2-2.3,2.7-2.2
		C385.4,262,386.1,263.2,386,264.8z"/>
	<path fill="#FFFFFF" d="M395.9,264.7c-1.5,0-3.1,0.1-2.4,2.4c-2.2-0.2-3-1.3-2.8-3.1c0.1-1.1,0.8-1.9,1.9-2.1
		C394.4,261.7,395.5,262.5,395.9,264.7z"/>
	<path fill="#FFFFFF" d="M373.2,263.8c1-1.5,1.9-2,3.1-0.8C375.6,264.5,374.6,264.2,373.2,263.8z"/>
</g>
</svg>
