<?xml version="1.0" encoding="utf-8"?>
<!-- Generator: Adobe Illustrator 19.1.0, SVG Export Plug-In . SVG Version: 6.00 Build 0)  -->
<svg version="1.2" baseProfile="tiny" id="Layer_2" xmlns="http://www.w3.org/2000/svg" xmlns:xlink="http://www.w3.org/1999/xlink"
	 x="0px" y="0px" width="900px" height="600px" viewBox="144 97 900 600" xml:space="preserve">
<g>
	<path d="M344.4,397.4c4,0.7,6.2,3.9,8.5,6.7c1.2,1.4,2.3,2.3,4,2.9c2.9,1,5.7,2.2,8.4,3.3c1-0.9,1.2-2,1.2-3.5
		c-4.1-3.3-9.8-5.9-8.8-12.9c1.6-0.3,2.7,0.9,4.5,1c-0.6-3.5-0.6-6.9-3.7-9.5c-2.1-1.8-3.8-4.2-4.3-7.1c-0.9-5.6-3.3-10.8-4.6-16.2
		c-0.7-3.1-0.6-6.3-1-9.5c-1.3-8.1-0.8-16.5-3.4-24.5c-0.3-0.9-0.6-1.7-1-2.5c-1.6-3.1-2.7-6.4-2.9-9.7c-0.4-8.2-2.4-15.8-6.9-22.9
		c2.2-0.2,2.2,2,3.7,2.4c3.5-17,4.8-34.1,3.1-51.6c3.8-3.3,5.7-7.9,7.1-12.7c0.6,1.9-0.3,3.7-0.2,5.9c1.8-2.7,1.6-5.9,3.9-7.9
		c-1.1,4.6-1.6,9.3-3.6,13.6c2.8,2.2,0.6,4.8,0.8,7.5c0.3,0.8,2.1,0.6,2.1,1.5c0.1,2.2-1.2,3.3-1.3,4.8c0.3,1.2,1.9,1.2,2.2,2.5
		c1.4-0.5,1.7-1.9,2.3-2.9c2.5-4.2,3.7-9,6.2-13.3c1.7-2.9,1.1-6.4,0.1-9.7c-0.9-2.9-1.4-5.9-2-9c-0.9-4.8-3.9-8.5-7-11.9
		c-5-5.6-10.1-11-14.7-16.9c-6.8,3-12.4,8-19.7,11.4c2.9,0.6,5.3,0.5,7.4,1.4l-0.1-0.1c-0.9,1.9-2.6,0.6-3.8,0.7
		c-2.1,0.2-4.4-0.4-5.6,1.9c-1.3,0-0.6-1.3-1.4-1.8c-5.2,1.3-6.7,7.1-11.1,9.4c-1.6,5.2-2.7,10.5-2.5,16.2c1,0.4,2.1,0.9,2.5,2.2
		c1.7,7,5.9,11.9,12.6,14.5c0.4,0.2,0.7,0.5,1.7,1.2c-3.5,0.4-5.5-1.3-7.7-2.7c-2.3-1.4-3.9-3.4-5.3-5.6c-1.5-2.3-2-5-3.3-7.4
		c0.1,2.7,0.5,5.3,1.6,7.8c1.3,3,1.3,6,0.5,9c-2.1,8.3-1,16.4,1.6,24.4c1.5,4.8,3.3,9.4,6.1,13.6c2,3.1,2.2,6.9,3.4,10.3
		c1,2.7,1.8,5.4,3.4,7.8c1.8,2.8,1.9,6.2,3.5,9.1c0.6,1,0.3,2.2-0.1,3.3l0.1-0.1c-0.7-1.6-1.3-3.4-2.2-4.9c-1.3-2.4-2.3-4.9-4.3-7.1
		c-2.2-2.4-2.8-6-3-9.2c-0.4-4.5-2.1-8.3-4.4-12c-4.1-6.9-5.7-14.5-6.7-22.3c-0.7-5.2,0.3-10.2,1.1-15.2c0.3-1.9,0.3-3.7-0.7-5.3
		c-4.9-7.5-3.2-15.3-1.3-23.2c0.5-2,1.3-3.9,2-6c2.4-0.5,3.9-2.1,5-4.1c1.8-3.1,4.5-4.6,7.7-5.8c4.3-1.6,8-4.1,11.2-7.3
		c0.8-0.8,1.8-1.4,2.8-1.9c6.1-3.2,12.1-6.7,18.4-9.5c4.2-1.9,5.3-5.3,5.5-9.3c0.2-3.7-0.4-7.4-0.8-11s-1.5-7.4-3.1-10.9
		c-1.7-3.7-3.3-7.3-2.2-11.6c0.4-1.5-1.1-2.9-1-4.5c0.1-6.5-0.1-13.1,2.3-19.3c0.6-1.4-0.7-1.7-0.7-2.8c1.2-0.8,3.4,0.5,4-1.9
		c-1.4-0.9-3.7-0.8-4.4-3c1.9-1.6,4-0.2,5.9-0.5c-0.6-2.3-3.3-2-4.7-3.6c1.5-1.9,3.1-1,4.1,0c1.6,1.6,3.8,1.1,5.7,1.6
		c1.1,0.3,2.6-0.4,3.5-2c1.4-2.3,5.1-2.8,6.9-1.5c5.4-2.2,10.8-1.1,16-2c0.4,1.4-0.1,1.8-1.2,2.5c6.9,0.4,13.1,0.7,20,1.1
		c-2.1,2.4-5.1,1.8-7.5,3.8c3.6-0.4,6.7-0.8,9.9-1.2c0.9,0.9,1.8,2.1,3.2,2.6c0.2,0.9,0.3,1.8,0.5,2.8c1.5,0.2,2.4-1.4,4.2-1.4
		c-1.7,3.2-5.2,3.2-7.6,5.4c1.6,0.3,2.5-1.1,4-1c1.3,0.7,1,2.5,2.5,3.5c-2.1,2-5,2.9-6.6,5.5c-0.2,1.4,0.3,2.9,0.8,4.4
		c1.1,3.6,0.3,6.9-1.4,10.1c-1.4,2.6,0.1,4.9,1.1,7.1c1.6,3.4,1.6,3.5-1.4,6.2c1.1,2.8-0.8,5.9,0.3,8.9c0,0.1,0,0.3,0,0.3
		c-2.7,3.3-1.5,7.3-1.9,11c-0.5,4-5.2,6.7-10.3,6.2c-0.6-0.1-1.1-0.2-1.6-0.4c-1.4,0.7-1.8,1.9-2,3.3c-0.6,4.4-0.8,8.8-0.7,13.3
		c0.1,5.3,2.8,9,7.8,11.1c2.9,1.2,5.7,2.7,8.4,4.4c8.4,5.4,10.6,13.8,9.4,22.9c-0.6,5,0.7,9.6,0.7,14.4c0,3.1,1,6,1.8,9
		c2.2,8.8,1.5,17.8,1.4,26.8c0,3.6,0.5,7.1,0.2,10.7c-0.2,2.4,1.2,5.1,3.1,6.6c5.1,4.1,7.2,9.5,7.8,15.7c0.7,6.7,3.4,13,4.1,19.6
		c0.9,8.6,4.6,16.6,6.4,25c1,4.8,4,8.8,6.4,13c1.4,2.4,4.1,2.8,6.4,3.6c3,1,5.5,2.3,7.8,4.5c4.8,4.6,4.9,4.4,7.1,9.1
		c3-0.2,6.2-0.2,7.9,3.3c1.2,2.5,0.5,4.6-0.9,6.9c-2.6,1.5-5.6,1.3-8.5,1c-0.6,4.4-1.7,5.3-6.3,4.5c-1.6-0.3-2.6,1.2-4.2,1
		c-3.7-0.6-7.4,0.1-11,0.1c-2.5,0-3.5-0.7-4.6-2.6c4.1-1.6,8.5,0.5,12.8-0.4c0.1-3,0.2-5.4,0.8-7.7c0.7-2.6-2-4.2-2.1-6.6
		c-3-0.5-4,0.4-3,2.7c1.2,2.9,0.6,5.5-0.5,8.6c-7.7,0.7-15.5,1.3-23.1,1.4c-1,0.9-1.4,1.9-1.9,3.3c2.2,3.7,5.8,6.7,6.9,11.4
		c5.3-0.3,7.6,2.8,9.6,6.9c1.6,3.3,3.5,6.4,6.4,9c29.6,26.1,59,52.2,88.5,78.4c1.2,1,2.6,1.9,3.3,3.5c-0.5,1.5-1.4,1.9-2.8,0.9
		c-1-0.8-1.9-1.6-2.8-2.4c-29.7-26.3-59.3-52.6-89-78.8c-3.4-3-7.2-5.6-11.2-7.9c-2.4-1.3-5.6-3.1-5.7-6.9c-0.1-1.4-1.2-2.1-2.2-2.9
		c-2.8-2.1-5.1-4.8-6.8-7.9c-0.6-1.1-1.1-2.2-0.8-3.5c1.7-0.5,2.5,0.3,3.4,1.6c2.8,4.1,6.3,7.6,8.7,10.9c-2.3-3.5-6-6.8-8.7-11
		c-0.7-1.1-1.7-2.3-3.4-1.5c-0.4,0-0.9,0.1-1.3,0.1c-2.1-1.2-4.4-1.9-6.2-3.5c-0.5-1.4-2.4-1.2-3-2.5c-0.7-2.5,1-3.1,2.8-3
		c4.3,0.3,8.6,0.9,12.8-0.4c0.8-0.2,1.6,0.2,2.2,0.8c2.2,2.2,4.8,2.3,7.6,1.8c3.2-0.6,6.3-0.2,9.5-0.4c1.5-0.1,3.3,0,3.9-1.9
		c-0.6-1.6-1.9-1.4-3.1-1.5c-8-0.3-15.9,0.5-23.8,1.1c-3.9,0.3-7.6,0.1-11.5-0.4c-7.5-1-15.1-1.8-22.7-1.1c-1.8,0.1-3.7-0.4-5.3,0.6
		c-0.5,3,0.1,4.4,2.8,4.5c7,0.4,14.1,0.3,21-1.1c1.6-0.3,2.9-0.8,3.7,1c0.6,1.3,2.5,1.1,3,2.5c1.8,1.6,4.1,2.4,6.3,3.4
		c1.2,7.2,0.8,14.4,0.9,21.6c0.1,10.7,0.8,21.3,3.5,31.7c0.7,2.9,1.7,5.7,2,8.6c0.4,3.9,0.4,7.8-0.3,11.6c-0.3,1.6-1.6,2.4-3,3
		c-3.5,1.7-6.9,3.5-10.9,3.5c-0.5,0-1.1,0.4-1.7,0.6c-0.3,5-1.1,9.9-2.6,14.6c-0.6,1.9-0.1,3.8,0.6,5.7c0.9,2.4,0.6,4.8-0.1,7.3
		c-2.4,8.3-3.8,16.7-3.7,25.4c0,6.6-0.5,13.3-1.5,20c-0.8,5.2-0.6,10.6-1,15.9c-1.1,12.5-2.3,25.1-2.2,37.7c0,3.3-0.2,6.5,0.3,9.9
		c0.9,0.8,2.5,0.5,3.3,2.2c-1.3,3.6,1.5,5.8,4,7.8c4.4,3.6,7.9,8.1,12.2,11.8c4.3,3.7,9.2,6,15.1,6.3c3,0.1,6.1,0.8,9.1,1.2
		c1.7,0.2,2.6,1.2,3.3,2.6c1.5,3.1,1.8,6.5,2.5,9.8c0.3,1.2-0.3,2.2-1.5,2.8c-1.4,0.8-2.7,1.6-4.2,2.2c-9.2,3.7-18.5,6.9-28.7,5.1
		c-0.8-0.1-1.6-0.2-2.3-0.7c-0.5-0.4-0.8-1.1-1.7-1c-1.2,0.6-0.8,1.7-1,2.7c-0.4,2.9-1.7,4.7-4.5,6.1c-8.1,4-16.7,5.1-25.5,4.5
		c-5.7-0.4-11.5-1.2-16.9-3.4c-2.8-1.1-5.5-2-8.6-1.7c-5.4,0.5-10.6-1-15.7-2.4c-2.4-0.7-5-0.6-6.9-2.1c-3-5.1-0.1-9.8,0.7-14.5
		c0.4-2.3,1.1-4.6,2.7-6.6s1.1-4.5,0.7-6.6c-0.7-3.4,0.2-6.1,2.3-9.2c0.5-0.6,1.9,0,3-0.7c0.5-4.2,1-8.6,0.2-12.9
		c-0.7-3.9-0.7-7.9-0.6-11.9c0.3-12.6-1.7-24.9-3.6-37.2c-0.6-4.2-1.7-8.3-3.5-12c-4-8.3-3.2-16.8-2.3-25.5
		c1.1-9.9,4.8-19.1,7.4-28.6c1.4-5.1,1.2-10.3,1.4-15.6c0-0.6-0.4-1-1-1.4c0.5-0.5,1-0.9,1.6-1.4c-2.8-1.8-1.2-5.4-3.5-7.8
		c-2.2,1.5-4,0.6-6-0.6c-1.2-0.8-2.7-1.4-4.2-0.8c-4.2,1.7-8.4,0.3-13,0.7c0.1-3.9,0-7.3,0.9-10.7c1-3.4,1.6-7,1.8-10.6
		c0.2-5.6-0.3-11.1,0.6-16.7c0.5-3-0.1-5.9-1-8.7c-1-3-1.2-6-0.8-9.1c1-7.3,0.7-14.7,1.3-22c0.7-10.3,1-20.7,2.9-30.8
		c0.9-4.9,0.6-10,1.8-14.8c1.2-4.6,2-9.3,5.2-13.1c1.3-1.6,0.9-3.1,0.3-4.8c-3.6-9.7-6-19.7-6.9-30.1c-0.2-2-0.2-3.9,0.8-5.8
		c1,2.5,0.9,5.1,1.3,7.6c2.4,17.8,7.2,34.6,18,49.3c3.7,5.1,6.4,11,9.4,16.5c1.3,2.4,1.2,5.1,0.5,7.7
		C344,395,344.2,396.2,344.4,397.4c-1.6,2-1.3,4.2-0.8,6.4c1.3,1.1,2.6,1.1,4,0.4C347.2,401.6,342,401.2,344.4,397.4z"/>
	<path d="M810.2,266.1c0.6-3.1-0.1-5.9-1.4-8.6c-0.6-1.2-1.4-2.2-2.6-2.4c-2.2-0.2-4.4-0.1-6.7-0.1c0.2,0.5,0.3,0.9,0.4,0.9
		c5.2,0.4,5.2,0.3,6.3,5.6c0.2,1,1.3,1.6,1.2,2.9c-1,0.4-1.5-0.7-2.4-0.8c-1.3,1.6-1.3,1.6-3.6,2.5c-1.5-0.7-3.1-1.6-5-1.3
		c-2.4,1.6-1.7,5.3-4.5,6.8c-2.4,1.2-4.9,2.4-7.4,3.7c0.2,1.1,1.2,1.5,2,2c2.1-0.5,3-3.1,5.8-2.8c-1,2.1-3.1,2.5-4.5,3.9
		c-0.2,1.4,0.1,2.8,0.4,4.2c0.3,1.3,0.2,2.7,1.1,4.2c2-1.4,4.1-2.6,5.9-4.2c2.7-2.2,5.6-3.8,9-4.5c7.4-1.5,14.1-5,21.3-7.5
		c-0.4-2.2-0.2-4.4-2.5-6.1c-1.2-0.9-1.5-3-2-4.6c-1-3.1-2.6-5.4-6.3-5.7c2.2-2,2.7-1.9,5.5,0.8c5.1-0.2,5.8,0.2,6.7,4.3
		c3,0.9,6.4,1.7,6.3,5.8c0,2.5-2.3,4.2-6,4.6c0.5,2.3-0.9,3.1-2.9,3.6c-2.2,0.5-4.3,1.5-6.3,2.5c-4.1,2-8.4,3.7-12.9,4.3
		c-6,0.8-10.3,4.4-14.7,7.8c-0.1,1.6,1,2.4,1.7,3.4c32.1,43.5,64.2,87,96.2,130.5c0.7,0.9,1.4,1.8,1.9,2.8c0.5,0.7,0.4,1.5-0.3,2.1
		s-1.5,0.5-2.1-0.2c-0.7-0.7-1.3-1.6-1.9-2.4c-32.1-43.5-64.2-87-96.3-130.5c-0.7-0.9-1.4-1.8-2.2-2.9c-2.2,1.4-4,3.1-5.6,5
		c-1.3,1.5-2.9,2.9-4.2,4.4c-8.9,10.7-21.3,14.9-33.8,19.1c-4.3,1.5-8.9,2.4-13.6,2.1c-1.5-0.1-2.8-0.6-4-1.2c0.1-1.2,1-1.2,1.6-1
		c5.7,1.2,11-0.9,16.3-2.3c4.9-1.2,9.4-3.4,13.9-5.6c0.9-0.4,1.8-1,2.8-1.2c4.2-0.8,7.3-3.4,10.3-6.2c5.1-4.8,10-9.9,15.8-14.7
		c-3-2.3-5.7-4.4-8.4-6.5c0.2-1,0.3-2.1,1.4-2.8c-0.3-1-1-1.7-2.1-2.4c-1.6,0.8-3.3,1.7-5,2.6c-5.9,3.2-12.2,4.1-18.8,3.8
		c-2-0.1-3.8,0.1-5.6,1c-0.5,0.3-1,0.5-1.5,0.7c-4.6,1.6-9.1,3.5-12.1,7.7c0.9-3.5,3.6-5.5,5.1-7c4.5-11,5-21.2,0.3-31.3
		c-0.5-0.2-1-0.4-1.6-0.5c-0.5-0.1-1.1-0.1-2-0.1c0,5.6,0.6,11.4-4.7,15.2c0.3,1.5,0.2,2.8,0,4.1c-0.3,2-0.4,4,0.1,6
		c0.9,3.7-0.3,7.3-1.6,10.6c-1.8,4.7-3.2,9.3-3.7,14.4c-0.7,6-1.4,12.1-1.9,18.1c-0.5,5.9-0.7,12-1.8,17.9c-0.4,1.9-0.4,3.8-0.4,5.8
		c0,1.4-0.3,2.9,1.3,3.9c0.8,0.6,0.9,1.9,0.8,2.9c-0.3,4,1.5,7.4,3.5,10.4c4.4,6.4,7,13.5,8.1,21.1c1.7,12,2.8,24,2.4,36.1
		c-0.4,13.5,0.1,27,3.5,40.2c1.3,5,2.4,10.1,2.3,15.2c-0.1,3.7-0.6,7.4-5.4,9.1c-3.5,1.2-7,2.4-10.9,2.9c-0.3,5.3-1.2,10.3-2.7,15.2
		c-0.5,1.8,0,3.6,0.7,5.3c0.9,2.1,0.9,4.3,0.3,6.3c-2.8,8.7-4,17.5-4,26.7c0,6.4-0.5,12.9-1.5,19.3c-0.8,5.4-0.6,10.8-1.1,16.3
		c-1.1,12.5-2.3,25.1-2.2,37.7c0,3.3-0.2,6.5,0.3,10c3.2,0.4,3.9,2.4,3,5.3c2.7,3.2,5.4,6.2,8.8,8.6c2.8,1.9,4.3,5.2,7,7.4
		c4.7,3.8,9.7,6.5,16,6.7c3,0.1,6,0.8,9.1,1.3c1.7,0.2,2.5,1.5,3.1,2.8c1.4,3,1.7,6.3,2.4,9.5c0.3,1.2-0.2,2.2-1.4,2.9
		c-1.5,0.8-2.9,1.7-4.5,2.4c-6.2,2.6-12.6,4.5-19.2,5.5c-3.4,0.5-6.7-0.8-10.1-0.7c-1.2,0-1.9-1.1-2.6-1.7c-1.8,0.6-1.3,1.9-1.4,2.9
		c-0.4,2.9-1.7,4.7-4.6,6.1c-7.6,3.6-15.5,5.1-23.7,4.7c-6.5-0.3-13.1-1.3-19.2-3.8c-2.3-0.9-4.5-1.5-6.9-1.3
		c-5.6,0.5-11.1-0.8-16.4-2.4c-2.5-0.8-5.2-0.5-7.6-2.6c-2.3-6.6,0.4-12.9,2.8-19c1.1-2.9,2.2-5.6,1.6-8.4c-0.7-3.4,0.3-6.1,2-8.9
		c0.8-0.8,2.2-0.1,3.3-1c0.5-4.5,0.9-9.2,0-13.9c-0.4-2-0.5-4.1-0.4-6.1c0.5-14.1-1.2-28.1-3.5-42c-0.7-4.2-1.7-8.3-3.5-12
		c-4.1-8.4-3.2-17-2.2-25.8c1.1-9.9,5-19.1,7.3-28.6c2-8.3,1.7-16.6-0.7-24.8c-0.1-0.3-0.4-0.5-0.7-0.9c-2.3,1-4.3,0.8-6.4-0.8
		c-1.3-1-3.1-1-5.1-0.3c-3.7,1.2-7.6,0.5-11.8,0c-0.4-3.1-0.4-6.3,0.4-9.1c1.9-6,2.3-12.1,2.3-18.4c0-3.3,0-6.6,0.5-9.9
		c0.5-3.2,0-6.4-1-9.4c-0.9-2.7-1.1-5.4-0.8-8.1c1.2-13.4,1.1-27,2.6-40.4c0.7-5.8,0.8-11.7,2.5-17.4c0.9-3.1,0.2-6.5,0.8-9.8
		c1.3-7.5,3.6-14.2,8.2-20.5c3.1-4.3,4.6-9.9,2.7-15.5c-0.8-2.5-0.9-5.1-1.3-7.7c-2.6-1.7-5.1-3.3-6.4-6.3c-0.5-1-1.6-2-2.7-2.5
		c-4.4-2-6-5.9-7.3-10.1c-0.2-0.6-0.5-1.3-0.5-2c-0.4-7.5-3.7-14.1-6.6-20.8c-1.6-3.6-2.6-7.2-1.8-11.5c0.6-3.2-0.6-6.8,0.1-10.1
		c1.3-5.9-0.4-11.2-1.9-16.9c-2.5-9.1,0-17.5,6.2-24.7c1.8-2,3.8-3.9,4.8-6.5c0.3-0.9,1.4-1.1,2.1-1.7c1-0.8,2.5-1.4,2-3
		c4.6-2.3,8.9-4.5,12.2-8.2c0.6-0.6,1.5-1.1,2.3-1.5c6.1-3.2,12.1-6.7,18.4-9.6c4.5-2.1,5.5-5.6,5.7-9.8c0-1.7-0.3-3.4-0.6-5.1
		c-0.1-0.6-0.4-1.1-0.4-1.6c0.7-5.8-1.8-10.8-3.7-16.1c-1.2-3.2-2.8-6.5-1.5-10.1c0.2-0.4,0.1-0.9-0.1-1.3c-1.6-3.6-1-7.4-0.7-11.1
		c0.3-4,0.1-8.2,2.2-11.9c0.7-1.2-1.2-1.6-0.5-2.9c1.3-0.2,3.1,0.5,3.8-1.6c-1.4-1-3.6-0.8-4.5-2.9c1.7-1.6,3.9-0.2,5.8-0.9
		c-1-1.9-3-2.2-4.7-3.1c1.4-2.2,3.1-1.5,4-0.4c1.6,1.9,3.9,0.8,5.7,1.9c0.7,0.4,2.6-0.4,3.6-1.9c1.8-2.7,5-3.1,7.8-1.1
		c0.5-1.9,1.9-2.1,3.6-2c2.8,0.1,5.7-0.1,8.5-0.4c1.1-0.1,2.3-0.5,3.2,0.4c0.4,1-0.6,1.1-0.8,1.7c0.2,0.1,0.3,0.3,0.5,0.3
		c3.4,0.1,6.8,0.1,10.2,0.2c2.8,0.1,5.5,1.4,8.5,0.6c-1.7,2.6-4.8,1.8-7.2,3.9c3.7-0.5,6.8-0.8,10.2-1.3c0.8,1.1,1.8,2,3.1,2.6
		c0.2,1,0.3,1.9,0.5,2.9c1.4,0.1,2.3-1.2,4.1-1.4c-0.8,1.9-2.3,2.5-3.6,3.2s-2.8,1-3.9,2.2c1.6,0.3,2.5-1.1,3.9-1.1
		c1.4,0.9,0.9,2.9,2.6,3.8c-2.6,1.7-5.1,2.9-6.7,5.4c-0.2,1.4,0.3,2.8,0.7,4.2c1.1,3.7,0.5,7.1-1.3,10.5c-1.4,2.6,0.1,4.9,1.1,7.1
		c1.6,3.4,1.7,3.5-1.5,6.1c1.1,2.8-0.6,5.9,0.4,9c0,0.1,0,0.3,0,0.3c-2.7,3.3-1.6,7.3-1.9,11c-0.2,2.9-2.1,4.4-4.6,5.2
		c-2.5,0.9-5.1,1-8.4,0.7c-1.9,7.3-2.1,14.6-0.7,22c-2.8,0.8-3.4-1.3-3.7-3.2c-0.6-5.8-0.1-11.6,0.8-17.3c0.7-3.9,2.5-5,6.4-5.2
		c0.9,0,1.8,0,2.7-0.1c2-0.1,3.6-0.9,3.9-3.1c0.3-2.2,0.9-4.7-1.9-5.9c-1.4-0.6-2.4-1.5-2-3.1c0.4-1.5,1.8-1.5,3-1.5
		c-0.9-0.2-1.9,0.2-2.8,0.6c-1.5,0.5-2.5-0.1-2.9-1.5c-0.5-1.4,0.3-2.4,1.7-2.9c0.2-0.1,0.4-0.1,0.7-0.2c4-0.2,6.6-1.9,7.7-6.2
		c0.4-1.8,0.8-3.2,0.1-4.8c-0.8-1.8-1.1-3.7-1.9-5.5c-1.5-3.4-1.1-6.4,0.9-9.6c2.4-3.8-0.4-9.1-4.7-9.7c-9.5-1.4-16.6,2.6-22.2,9.9
		c-2.5,3.2-6,5.6-7.6,9.5c-0.6,1.5-1.3,2.8-1.5,4.5c-0.1,1.2-0.5,2.3-1.8,2.6c-1.5,0.4-1.9-0.9-2.6-1.7c-0.6-1.2,0.1-2.5-0.4-3.7
		c-0.7-1.5-1.3-3.1-2.7-4.1c-0.2-0.2-0.4-0.4-0.7-0.5c0.3,0.1,0.5,0.3,0.7,0.5c1.4,1,2.1,2.5,2.6,4c0.8,1.3-0.4,3.1,0.9,4.3
		c0.7,1.2,2.1,2.5,0.1,3.7c-1.8,1.1-3.9,0.1-5.7-2.6c0.8,0.7,1,1.8,1.6,2.4c0.8,0.5,1.5,0.4,2.2,0.4c3.5,0,4.6,1,5.2,4.4
		c0.1,0.3,0.1,0.7,0.1,1c-0.1,5,2.6,8.2,6.8,10.4c1,0.5,2.1,0.9,2.9,1.7c0.7,0.7,1,1.5,0.5,2.5c-0.4,0.8-1.2,1.2-2,0.9
		c-3.6-1.3-7.4-2-10.3-4.8c-1.4-1.3-1.8-3.1-2-4.9c-0.2-1.5-0.5-3.2-2.7-3.6c-2,2.4-1.9,5.4-1.9,8.1c0,4.9-1,9.5-2.5,14.1
		c-0.6,1.9-1.9,3.2-3.5,4.4c-1.2,0.9-3,1.3-3.6,3c0.1,1.7,1.4,2.3,2.5,3c5.7,3.7,9.7,9,13.2,14.7c2.6,4.2,5.4,8.1,8,12.3
		c3.4,5.4,8.9,7.9,14.8,9.5c1.8,0.5,3.6-0.1,5.6-1.3c-0.6-4.2-0.2-8.5-0.8-12.9c-0.2-1.7-1.7-2.2-3.2-2.7c-2.6-0.9-3-2.1-1.2-4.2
		c0.9-1,1.3-2.1,1.3-3.4c0.1-1.2,0.4-2.2,1.6-2.8c0.2,0.1,0.5,0.1,0.6,0.3c3.1,4.9,8.5,6.4,13.2,8.8c4.2,2.2,7.8,5.3,9.7,9.7
		c2,4.5,4.1,9.1,4.9,14.1c0.6,3.9,0.8,7.7-0.7,12.1c19,3.7,38,5.9,56.6,9c1.2-0.8,1-2.2,2.8-2.7c2.7,0.3,6.2-0.2,9.6,1.1l-0.1-0.1
		c0.2,1.6,1.2,2.9,1.8,4.3C812.4,261.3,812.5,263.8,810.2,266.1L810.2,266.1z"/>
	<path d="M305,273c1.1,0.1,1.3,0.8,1.5,1.5c1,2.4,2.4,4.5,4.4,6.3c3.8,3.5,4.5,8.2,4.4,13.1c-1.7-1.1-2.2-2.9-2.7-4.7
		c-0.8-3.2-1.9-6.2-4.3-8.7C306.5,278.5,305.1,276,305,273z"/>
	<path d="M809.3,254.3c1.1-1.4,2.5-1.2,3.5-0.1c2.7,2.9,3.9,6.5,4.6,10.3c-2.5-1.4-2.9-3.9-3.8-6.1
		C812.7,256.3,811.6,254.7,809.3,254.3L809.3,254.3z"/>
	<path d="M337.9,371c-0.3-6.8,2-12.1,5.5-17.4c0.9,1.5,0.5,2.8-0.3,3.5c-3.2,2.8-3.2,6.8-3.9,10.5C339,368.5,339.3,369.6,337.9,371z
		"/>
	<path d="M324.3,272.3c-1.5,2.3-0.9,4.6-0.5,6.9c0.3,1.9,0.7,4.1-2.8,4.8C322.8,279.9,320.5,275.3,324.3,272.3z"/>
	<path d="M328.4,226.2c-1.5-2.8-1.4-5.9-2.3-9.3C328.5,218.5,329.1,221,328.4,226.2z"/>
	<path d="M309.7,216.3c-1.1,2.3-2.8,4.2-3.6,6.9C306,219.5,307.2,217.2,309.7,216.3z"/>
	<path d="M316.7,249.4c2.2,1.2,2.2,1.2,2.6,4.2C317.7,252.7,317.1,251.5,316.7,249.4z"/>
	<path d="M810.1,266c-1.7,1.6-3.7,2.8-5.9,3.6C805.8,267.8,807.5,266.2,810.1,266L810.1,266z"/>
	<path d="M329,233.2c1,1.5,0.2,2.7-0.5,4.7C327.7,235.8,328.6,234.5,329,233.2z"/>
	<path d="M731.6,306.6c-0.9-1.8-0.9-1.8,0.5-3.7C732.7,304.3,731.2,305.3,731.6,306.6z"/>
	<path d="M736,295.6c-0.4,2.1-1.7,2.6-2.7,3.3C733.5,297.6,733.9,296.4,736,295.6z"/>
	<path d="M308.5,227.9c0.7,0.8,0.5,1.6,0,2.5c-1.2,0.2-0.8-0.7-0.9-1.2C307.6,228.6,307.6,228,308.5,227.9z"/>
	<path d="M820.1,269.1c-1,0.5-2.1,1-3.1,1.5c-0.1-0.2-0.2-0.4-0.3-0.6C817.8,269.6,818.5,268.4,820.1,269.1z"/>
	<path d="M343.3,347.5c0.7,1.2,0.7,2.1-0.5,2.7C342.3,349.4,342.5,348.6,343.3,347.5z"/>
	<path d="M341.4,338.2c0.7,1,0.7,1.9-0.1,2.9C340.3,340,341,339,341.4,338.2z"/>
	<path d="M323.6,266.3c1.6,1.4,1.5,2.5,0.9,4C323.5,269.1,323.6,268,323.6,266.3z"/>
	<path d="M324.7,208c0.6-1.3,1.4-2.5,3.4-2.8C327.3,207,326.5,208.2,324.7,208L324.7,208z"/>
	<path d="M320.6,321.9c1.1,0.5,1.4,1.4,0.6,2.6C320.3,323.6,320.9,322.6,320.6,321.9L320.6,321.9z"/>
	<path d="M304.7,268.6c1.1,0.2,1,1.2,1.5,1.8C305.3,271.1,305.1,270.7,304.7,268.6z"/>
	<path d="M328.7,240c0.5,1.3,0,1.9-0.9,2.3C327.1,241.3,327.7,240.7,328.7,240z"/>
	<path d="M340.1,330c1.5,0.5,0.9,1.3,1,2.1C339.8,331.6,340.1,330.8,340.1,330z"/>
	<path d="M316.1,296.1c1,0.8,1.2,1.4,0.2,2.4C315.7,297.8,315.5,297.1,316.1,296.1z"/>
	<path d="M815.3,266.2c0.1,1.3-0.5,1.1-1.1,1.1C814.1,266.4,814.5,266.2,815.3,266.2z"/>
	<path d="M320.3,260.5c0.6,0.3,1.3,0.6,0.8,1.5C320.2,261.8,319.8,261.4,320.3,260.5z"/>
	<path d="M328.1,257.2c-1.2,0.2-1.3-0.5-1.4-1.1C327.9,255.7,327.9,256.5,328.1,257.2z"/>
	<path d="M322.3,331.3c-0.1-1,0.1-1.2,0.5-1.3C323.2,330.7,322.6,330.6,322.3,331.3z"/>
	<path fill="#FFFFFF" d="M357.7,413.9c-4.3-0.9-8.6-1.5-12.6-3.6c2.8,4.9,8.5,3.7,12.3,5.6c1.5,0,1.8-1.3,2.5-1.8
		c4.6,2,10.1-0.1,13.2-4.9c5.2,0,10.4-0.2,15.6-0.4c1.6-0.1,4-0.7,4.6,2.7c1-2.5,2.7-3.1,4.7-3.1c1.1,0,2.3,0,3.4-0.3
		c2-0.5,3.5,0,4.9,1.5c1.5,1.5,2.8,3.4,5.4,2.9c0.7,4.6,1.2,8.8,1,13.2c-0.4,14.2,0.1,28.4,4,42.2c1.6,5.5,1.4,11,0.7,16.8
		c-7.2,3.4-14.5,5.5-22.5,5.1c-2.8-0.1-5.8-0.9-8.4,1.4c4.9,2.5,10.3,0.2,15.4,1.2c0,3.9-0.3,7.4-1.4,10.7c-1,3.1-1.7,6-0.8,9.3
		c0.8,2.9-0.4,5.9-1.1,8.7c-0.7,3.1-0.5,6.4-2.3,9.3c-0.9,1.4-0.5,3.7-0.4,5.7c0,7.2-0.6,14.3-0.9,21.4c-0.2,4.5-1.4,9-1.4,13.5
		c-0.1,9.3-1,18.6-1.9,27.8c-0.8,7.7,0.1,15.4-1,23.1c-0.4,2.5,1.6,5,0.7,7.8c-1.7,0.8-3.7-0.1-5.5,0.6c-1.9,1.5-1.5,3.8-1.9,6.1
		c-4.8-0.4-9.5-0.1-14.3-1.3c-0.5-2.7-0.4-5.4,0.2-8.2c1.7-9.2,2.3-18.4,0.8-27.8c-1.4-8.6-2.7-17.2-5.2-25.6
		c-1.1-3.6-0.8-7.1,0-10.7c1.8-8.6,1.3-17.4,2-26.1c0.3-4.1,1.6-8,3.3-11.7c1.3-3,1.7-6,0.7-8.9c-1.3-4.2,0.3-7.9,2.1-11
		c2.8-4.6,5.1-9,4.2-14.5c3.3-2.1,7.4,0.3,10.8-2.4c-3.1-14.7-2.4-29.9-3.7-45c-1.3,4.6-0.9,9.4-1,14.1c-0.1,4.9-0.2,9.8,0.3,14.6
		c0.5,4.8,0.6,9.7,0.9,14.4c-2.6,1.4-5.4,0.7-7.9,1.3c-3,0.8-6.3,0.7-9.1,2.2c-1,0.5-2-0.1-3-0.3c-11.4-1.7-22.8-4-34.5-2.6
		c-6.4,0.8-12.9,0.2-19.5,0.4c-0.5-1.2-0.1-2.3-0.1-3.3c0.4-0.7,0.7,0.2,1.6-0.2c-0.1-3.5,0.8-7,1-10.7c0.6-7.7,0.2-15.4,1.1-23.1
		c0.1-0.9,0-1.8-0.2-2.7c-2.7-11.1-0.6-22.3-0.4-33.5c0.2-11.1,2.6-22.1,2.4-33.3c-0.2-6.1,1.3-12.2,2.4-18.2c0.5-2.9,2-5.9,4.5-8.2
		c-0.5,4.5,0.2,8.9-0.7,13.3c1.7-2.9,1.7-6.2,2.6-9.6c0.7,1.3,1.5,2.6,2.2,3.9c-1.7,3.9-3.4,7.8-5.2,11.8c0.9,1,1.6,2.3,1.7,3.8
		c0.4,6.9,1.2,13.8-0.5,20.6c-2.4,9.4-2.3,18.9-0.7,28.4c0.2,1,0.4,2,0.2,3c-1.2,5.2-1.3,10.6-1.8,15.9c-0.4,3.8-0.4,7.7,1.3,11.3
		c0.7,1.6,0.4,3.4,0.1,5c-1.4,7.5,0.3,15,0,22.4c0,0.4,0.1,0.9,1.1,1c0.4-4,0.4-8-0.1-11.9c-0.4-3.5-0.6-7-0.1-10.5
		c0.4-2.9-0.3-5.7-1-8.6c-0.9-4-0.6-8.4,0.1-12.5c1.3-7.8,1.1-15.5,0.6-23.3c-0.5-7.4,0-14.8,2.2-21.9c0.6-1.9,0.5-3.8,0.5-5.7
		c0-2.9,0-5.8,0.5-8.8c0.5-3.1-0.1-6.4-2.4-9.1c1.5-2.9,3.1-5.7,4.7-8.7c4.8,6.1,8.6,12.5,12.2,19.1c2,3.6,2.2,7.4,1.3,12.3
		c-1.8,0-3.7,0.1-5.6,0c-3.5-0.2-6.4,2.2-6.5,5.8c-0.1,3.9,2.7,6.6,6.3,6.6c5,0,9.9,1.1,14.9,0.5c3.2-0.3,5.9,0.5,8.7,1.9
		C359.6,411.9,358.7,412.9,357.7,413.9z"/>
	<path fill="#FFFFFF" d="M367.5,266.2c-2.3-2.2-5.3,0.2-7.4-1.3c-2.1-1.4-5-0.6-6.5-3.3c0-0.1,0-0.5,0.1-0.7
		c4.2-5.1,6-11.4,8.5-17.3c1-2.3,1-4.7,0.8-7c-0.4-4.9-1.1-9.7-2.5-14.4c-0.6-1.8-1.5-3.5-2.5-5.2c-5.1-8-12.4-14.2-18.6-21.2
		c-0.3-0.4-1-0.5-1.2-0.6c0.4-1.5,1.1-1.7,1.8-2.1c4.7,3.1,9.1,6.7,13.3,10.5c3.1,2.8,4.6,6.7,6.9,10.1c2.7,4,5.2,8.3,7.8,12.3
		c2.4,3.6,6,5.8,9.8,7.6c1.2,0.6,2.5,0.9,3.8,1.5c3.1,1.5,6.2,1,9.2-0.3c1.7-0.7,2.7-2.1,2.6-4c-0.1-4.6-0.3-9.3-0.6-13.9
		c-0.2-2.4-1.6-4.4-2.6-6.6c2.1,1.2,3.5,2.8,4.1,5.4c0.9,3.6,1.7,7.3,2.6,10.9c1.4,5.4,4.6,9.8,8,14.1c1.5,1.9,3,3.7,4.5,5.6
		c1.8,2.2,0.9,4.8,0.8,7.2c-0.1,1.5-0.4,2.9-0.3,4.4c0.5,5-0.9,9.5-3.2,14c-1.7,3.3-1.8,7.4-1.4,10.9c0.5,3.6-0.6,6.7-1.4,9.9
		c-0.6,2.3-1.6,4.5-2.4,6.7c-0.4,1.2-1.1,2.4-1.1,3.6c0.1,7.6-2.2,14.9-2,22.6c0.1,6.6-1.3,13.5-2.5,20.2c-0.5,2.7-0.6,5.4,0.2,8.2
		c-1.4,1.5-3.3,1.3-5,1.2c-4.3-0.4-8.6-1.2-12.9-1.3c-7.3-0.1-14.3-2.5-21.5-3.1c-1.6-0.1-3.1-0.6-4.4-1.6c-0.8,1.2-0.4,2.1,0.4,3.3
		c5.9,0.8,12,1.6,18,3.1c-0.2,1.6-1.8,0.5-2.4,1.3c-0.3,0.8-0.8,1.6-0.2,2.5c0.7,0.4,0.7-0.3,1-0.7c0.8,0.4-0.1,1.5,0.8,1.9
		c0.8,0.1,0.8-0.7,1.2-1c0.7-0.1,0.4,1,1.1,0.9c1.7-1,2.2-2.8,2.8-4.7c3.1,0.3,6.1,0,9.1,0.7c0.5,1,0,1.8,0,2.8
		c-2.8,0.6-5.6-0.1-8.4,0.1c2.5,1.1,5.1,0.7,7.7,0.4c2.4-0.3,3.7-3.6,6.7-2.9c0,1.3-1.6,1.8-1.4,2.9c2.4,0.6,4.7,1.3,7,1.9
		c1.8-1.5,1.1-3.8,2.2-5.6c1.3,5.8,3.7,10.9,6.5,15.9c3.3,5.9,4.8,12.5,5.5,19.2c0.2,2.1,0.1,4.3,1.7,6.8
		c-10.9-0.3-21.2-1.4-31.8-1.3c-4.7-10.9-7.4-22.1-9.6-33.5c0.1,11.4,3.3,22.2,7.4,32.7c-6.2,1-8.2,0.8-13.7-1.2
		c0.4-4.9-1.1-9-5.4-11.8c-1.3-0.8-1.7-2-2.1-3.3c-1.3-4.6-1.6-9.5-3.3-13.8c-2.1-5.6-1.7-11.4-3-16.9c-2.1-9.1-1.8-18.5-5.3-27.6
		c3.3-0.3,5.8,1.2,9,1.2c-2.6-1.3-5.1-1.9-7.4-2.4c-1.7-0.4-2.6-1.2-2.8-2.9c-0.1-1.4-0.5-2.7-0.5-4c-0.1-4.4-0.9-8.6-2.9-12.5
		c-1.3-2.6,0.4-4.6,0.8-7.1c2.4,0.7,4.6,1.7,7.2,0.9c-2.4-1.2-5.1-1.1-7.1-3c1.6-6.3,1.9-12.7,2.6-19.2c0.2-1.5,0.5-2.6,2.4-2.5
		c1.2,0,1.9-1.1,2.6-2c0.8-1.1,1.6-2.2,2.8-2.7C357,264.4,362,267.9,367.5,266.2z"/>
	<path fill="#FFFFFF" d="M383.3,667.5c-0.2,0.7-1.2,0.7-1.2,1.5c0,0.2,0.1,0.4,0.2,0.9c3.4-0.6,7,0.6,9.9-1.8c2.8,1.2,5.4,2.3,8,3.4
		c1.6,0.6,2.4,1.8,2,3.5c-0.5,2.8-0.4,5.7-1.6,8.7c-4.9,2.3-9.9,4.4-15.7,5.1c-11,1.4-21.4-0.4-31.5-4.5c-1.5-0.6-3.1-0.5-4.7-0.4
		c-7.5,0.2-14.6-1.5-21.3-4.9c0.2-7.6,6.2-13.4,5.5-21.7c2.6,2.6,5,3.8,7.8,4.5c3.1,0.7,5.5,0.2,7-2.5c2-3.4,4.5-6.2,8.1-8.5
		c-1.6-1-2.4-2.5-4.3-2.4c-1.4,0-2.3-1-2.6-2.3c-0.6-2.6-2.4-4.9-1.5-7.9c-2.2,2.7-0.8,5.8-1.5,8.8c-2.9,0.4-5.5-0.9-8.6-1.5
		c2-1.8,2-3.6,1.6-5.9c-0.8-4.6-2.1-9.4-1.5-13.8c1-7.1-0.5-14-0.4-21c0.1-3.6-1.3-7.1-1.6-10.7c-0.9-9.8-3.2-19.2-6.8-28.3
		c-2.1-5.3-1.7-11-1-16.5c1.1-8.1,2.7-16.1,5.6-23.8c2.6-6.9,3.4-14.1,4.5-21.3c0.6-3.8-0.2-7.5-1.4-11.1c-0.4-1.1-1.1-2.3-0.8-3.7
		c5.8-0.9,11.5,0.1,17.2,1.3c4.9,1,9.9,1.3,14.9,1.6c2.5,0.1,4.8-1.9,7.6-1.5c0.6,4.4-0.8,8.5-2.9,12.2c-2.6,4.5-4.1,9.3-3,14.5
		c0.9,4.2-1.7,7.4-2.8,11c-0.1,0.5-1.4,0.2-1.6,1.7c-0.2,6-1,12.6-1.4,19.3c-0.3,5.3-1.2,10.7-2.3,15.9c-0.3,1.6,0.3,3.1,0.1,4.7
		c-2.3,16-2.6,32.1-2.3,48.2c0.1,5.8,0.8,11.5,0.6,17.3c0,0.9,0.1,1.8-0.4,2.7c-0.9,0.8-2.2,0-3.2,0.7c-3.7,5.3-3.9,6.8-1.4,8.2
		c0.9-2,1.7-4.2,3.1-6.2c1.8,0.8,3.9,0.4,6.3,0.9c0.1,7.2,5.8,10.2,11.4,13.5c-2,2-4.1,0.1-5.7,1.3c-0.8-0.8,0.6-1.4,0-2.1
		c-4-1.3-18.2,1.2-20.2,3.7c0.9,2.4,2.8,1.1,4.3,1.2c1.6,0,3.1-0.9,4.8-0.6c-1.4,1.6-4,1.2-5.2,3.3c0.7,1.9,2.4,2,3.9,1.7
		c6.9-1.2,14.1-1.3,20-5.7c0.2-0.1,0.6,0,1.2,0.1c-0.4,1.3-1.7,2.2-1,3.4c-3.8,1.7-8.5,0.6-11.2,4.4c0.2,1,0.9,1.4,1.5,1.2
		c4.3-1.4,9-1.2,13.1-4.1c2.2,1,4.5,2.1,7.4,3.4C386.4,666.9,384.8,667.2,383.3,667.5c-0.8-1.2-1.8-1.1-2.5-0.9
		C381.5,666.4,382.6,666.2,383.3,667.5z"/>
	<path fill="#FFFFFF" d="M360.8,151.6c0.7,0,1.2,0.7,2.1,0.4c0.5-0.3,0.6-1,0.6-1.7c0-5,2.8-8.5,6.3-11.6c1.6-1.4,3.4-2.6,4-4.8
		c0-1.4-1.9-0.2-1.8-1.8c1.1-0.6,2.4,0.4,3.6,0.1c1.4-2.4,3.8-3.6,6.2-4.8c0.5-0.7-0.5-1.2-0.3-1.9l-0.1,0.1c3,0.4,5.9,0.1,8.5-1.4
		c1.2-0.8,2.3-0.5,3.6-0.2c2.5,0.6,5.1,1,7.9,0.6c1.4,3.9,2.2,8,3,12c-0.7,1.1-2.9,0.1-2.6,2.1l0.1-0.1c-2,0.4-1.3,1.8-1,2.9
		c1.1,4.2,2.1,8.5,4.1,12c-0.4,1.8-1.8,1.9-2.5,2.8c-0.5,2,0.4,4,0.1,6c-3.3,0.8-6.8,0.6-9.9,2.3c3.1,1.8,6.4-0.6,9.5,0.4
		c0.6,1.5-0.3,2.6-1.1,3.7c-0.4-0.2-0.8-0.3-1.2-0.3c0.4,0,0.8,0.1,1.2,0.3c-0.7,2.4-0.9,4.8-0.6,7.4c0.4,3.2-1.2,4.8-4.5,4.9
		c-1.1,0-2.3,0-3.4,0.1c-1.2,0.1-2.5,0.3-4.3,0.6c-3.6,10.2-3.1,20.4,1.2,30.3c-0.9,1-1.7,0.7-2.5,0.7c-0.6,0-1.3-0.5-2.3,0.4
		c1.6,1.9,3.4,1,5.3,0.7c0.9,1.2,1.3,2.8,1.5,4.3c0.4,4.1,0,8.1,0,12.2c0,1.9-1.1,2.8-2.8,3.3c-4.1,1.4-7.5-0.5-11-2.2
		c-4.8-2.3-8.4-5.9-11-10.7c-3-5.6-7.4-10.3-10.2-16.1c-0.4-0.8-1.2-1.3-1.9-1.9c-4-3.6-8.3-7-13-10.3c1.5-0.9,2.8-1.9,4.2-2.4
		c5-1.9,6.9-5.9,7.6-10.8c0.6-4.5,0.5-9.2,1.1-13.7c0.3-1.9,0-3.9,0.6-5.7c1.7-0.6,2.1,1.2,3,1.4c1.2,0.4,1.7-0.6,2.7-0.5
		c0.4,1.9,1.3,3.9,1.2,5.9c0,2.7,1.4,4.3,3.4,5.4c2.5,1.3,5,2.7,8.4,2.8c-3.8-2-7-4.3-9.9-6.5c-1.7-4,0.6-9.2-3.8-12
		c-1.1,0.6-0.6,1.6-1.2,2.5c-1.4-1.6-3.6-2.3-3.9-4.6c-0.3-1.3-1.7-1.3-2.4-2.5c-0.2-1.5,1.1-2.5,1.5-4.1c1.3,0.3,2,1.6,3.4,1.4
		l-0.1-0.1c-1,1.3-2,2.7-0.8,4.2c1.2,1.4,2.9,1.4,4.5,1.2C361.9,153,361,152.3,360.8,151.6L360.8,151.6z"/>
	<path fill="#FFFFFF" d="M462.8,390.5c0.3,1.4,0.5,2.6,0.7,3.8c-0.6,0.6-1.3,1-2.1,1.1c-1-0.8-1-1.9-0.4-3c-1.3,0.1-1.9,0.8-2.6,1.2
		c-0.6,2.9,3.7,5.2,0.8,8.6c-1.9,2.2,1.4,6.3-2.4,8.5c-0.5-5.7,3.1-11-0.4-16.4c-1,0-2.4-0.4-4.1,0.6c1.9,1.1,4.2,1.7,4.4,3.9
		c0.2,1.8,0.2,3.8-0.7,5.6c-0.6,1.2-0.2,2.5-0.4,3.7c-0.2,1.8-0.8,3.3-3.1,3c0.6-5,2.3-9.9-0.4-14.8c-1.2-2.1-2.6-3.2-5-3.3
		c-0.7-0.7-0.6-1.8-1.2-2.9c-1.7,2.1,0.9,4.2-0.3,6c-4.3,1.8-8.8-0.4-13.1,0.6c-0.5-0.6-0.5-1.2-0.4-2c0.9-0.6,2.2,0.7,3.2-0.5
		c-1.1-1.3-3-0.7-4.2-1.9c0.3-7-4.4-12.4-6.7-18.7c-0.9-2.6-1-5.5-3-7.7c0.6,0.3,1.1,0.5,1.7,0.8c0-0.3,0.1-0.6,0-0.7
		c-9.2-8.1-12.8-19.7-18.3-30.1c-0.8-1.5-1.2-3.1-2.8-4.1c-1-0.7-1.4-1.9-1.3-3.3c0.1-7.4,0.4-14.7,2.4-21.8
		c0.2-0.9,0.5-1.8,0.1-2.6c-0.8-1.4-0.1-2.7,0.5-3.8c2.2-3.8,3.2-8,4.2-12.2c0.2-0.7,0.3-1.4,0.2-2c-0.8-4.4-0.4-8.7-0.1-13.2
		c3.1-3.2,4.8-3.9,4.4-16.9c2.3,5.1,2.9,9.8,3,14.6c0.2,7.3,0.4,14.6-0.1,21.8c-0.4,6.5,1.5,12.1,5.6,16.9c2.7,3.1,4.1,6.7,4.7,10.7
		c0.8,5.9,2,11.6,4.2,17.1c0.2,0.5,0.4,1.1,0.4,1.6c0.1,7.5,3,14.4,5.1,21.4c0.5,1.7,1.1,3.4,1.4,5.2c0.7,4.7,3,8.8,5,12.9
		c1,2,3.3,3.3,5.4,4.3c4.2,2,8.8,3,12.2,6.5C460,389.8,461.4,389.9,462.8,390.5z"/>
	<path fill="#FFFFFF" d="M394.5,631.4c-0.5,3.3,0,5.9,3.3,7.5c1.5,0.7,2.6,2.4,3.8,3.7c-4.4,4.4-11,3.5-16,6.6
		c2.8,3.7,11.8,3.6,22.5-0.1c1.5,1.3,3.1,2.8,4.8,4.2c-1.2,0.9-1.9,0.7-3.1-0.3c-3.4-2.8-8.1-2.1-11.3,1.4c0.9,1.5,2.2,0.8,3.3,0.6
		c1.1-0.2,2.2-0.5,3.4-0.3c-0.3,1.4-2.1,0.9-2.6,2.4c3.1,2.9,5.6-1.5,8.5-0.9c0.1,1-1.1,1.5-0.7,2.5c2.6,2.1,4.7,1.2,6.3-3.1
		c6.3,4.3,14,3,21,5c2.2,2.9,2,6.5,2.7,9.8c-6.5,4.5-22.1,9.7-34.1,6.3c-0.3-5.3-3.9-7.6-8.6-9.4c-4.6-1.8-9-3.8-12.9-7.2
		c-4.2-3.6-8.4-7.3-13.3-9.9c-1.5-0.8-3.1-2-3.5-4.1c2.1-0.5,4-0.3,6.1,0.1c5.3,1,8.3,0.9,12.6-6.1c-0.4-2.5-1-5,0.3-7.5
		C389.4,631.8,392.1,632.7,394.5,631.4z"/>
	<path fill="#FFFFFF" d="M413.7,398.1c-0.7-4.6-1.4-8.8-2.3-13c-1.3-6-3.3-11.7-6.7-16.9c-2.4-3.6-4.5-7.3-4.4-11.9
		c0-1.5-0.1-3.3-2.1-3.3c-0.4-7.1,1.5-13.7,1.5-21.3c1,2.1,1.8,3.4,2.4,4.9c4.7,10.8,10.2,21.2,16.3,31.3c4,6.6,7,13.7,10.1,20.8
		c1,2.4,1.2,5.2,2.1,8.2C424.8,397.3,419.4,397.7,413.7,398.1z"/>
	<path fill="#FFFFFF" d="M404.4,405.8c-0.4-0.4-0.8-0.8-1.7-1c-1.3,2.4-3.8,1.5-5.9,1.7c-7.5,0.7-15.1,0.5-23,0.6
		c1.3-3.2,0.1-5.7-2-8.3c11.9-0.6,23.3-0.7,34.7,1c6.4,1,12.9-0.3,19.4-0.6c1.9-0.1,3.8-0.2,5.8-0.3c4.5-0.1,9,0.2,13.5-0.7
		c1.3,2.3,1.1,4.3,0,6.8c-7.4,0.7-14.9,1-22.4,1.2c-0.9-1.1-1.6-2.1-2.3-3c-5.2,2.2-10.4,0.3-15.2,0.6
		C404.1,404.5,404.5,405.3,404.4,405.8L404.4,405.8z"/>
	<path fill="#FFFFFF" d="M363.2,578.4c2.5,7.5,3,14.5,3.8,21.5c0.2,1.6,0.3,3.2,0.6,4.7c1.5,6.7,0.6,13.3-0.3,19.9
		c-0.5,3.7-1.1,7.4-0.5,11.4c-1.1,0.8-2,2-2.4,3.5c-2.2-0.4-2.8-1.8-2.8-3.5c0-11.1-1.4-22.2-0.7-33.3
		C361.4,594.9,361.6,586.9,363.2,578.4z"/>
	<path fill="#FFFFFF" d="M410.6,245c-9.2-8.8-12.2-19.7-14.9-31.5c4.4,1.3,8,3.4,10.6,6.7C412.3,227.5,411.7,235.9,410.6,245z"/>
	<path fill="#FFFFFF" d="M351.9,651c-2.7,1.4-4.3,3.5-5.7,5.9c-1.4,2.4-3.2,3-5.7,2c-2.2-0.8-4.4-1.3-5.8-3.4
		c0.8-1.4,1.8,0.7,2.4-0.5c-0.3-1.2-1.8-1.3-2.4-2.7c0.1-1.2,0.1-2.8,0.2-4.8C340.7,649.3,346.2,650.3,351.9,651z"/>
	<path fill="#FFFFFF" d="M344.4,397.4c0.5,1.7,1.9,2.7,3.2,3.8c1.8,1.4,3.2,3,4.4,5.4c-4.1-0.4-7.9,0.3-11.9-0.8
		c1.9-2.8,1.7-5.5-0.1-8.2C341.6,397.2,343.1,398.3,344.4,397.4L344.4,397.4z"/>
	<path fill="#FFFFFF" d="M334.2,406.5c-3.1-3.7-2.9-6.4,1-9.4c2.5,0.8,4.5,2.2,4.5,5.1C339.7,405.9,336.2,405.4,334.2,406.5z"/>
	<path fill="#FFFFFF" d="M414.7,411.1c1.1-2.3,2.8-1.4,3.6-0.2c2.4,3.4,5.2,6.5,7.3,10.1c1.4,2.4,2.9,4.8,3.9,7.7
		c-1.6-0.8-3.1-1.5-2.9-3.6c0.1-1.3-0.8-2.2-1.7-2.8c-3.7-2.9-6.5-6.5-9.3-10.3C415.4,411.5,415,411.3,414.7,411.1L414.7,411.1z"/>
	<path fill="#FFFFFF" d="M371.9,407.2c0.2,2.7-1.2,3.9-3.7,3.8c-0.1-0.3-0.3-0.5-0.2-0.6c1.9-4.3,1.7-4.8-2.2-7.3
		c-0.5-0.3-0.9-0.6-1.4-0.9l-0.1,0.1c1.9-0.4,0.8-1.5,0.5-2.3c-0.4-1.1-1.7-1.9-1.2-3.4c2.8,0,4.5,1.2,4.8,4s3.2,5.2,1.2,8.4
		C371.3,409.2,371,407.5,371.9,407.2L371.9,407.2z"/>
	<path fill="#FFFFFF" d="M378.8,639.3c0.6,1.7,0.3,2.8,0.1,4c-3.6,1.4-6.5-1.4-9.9-1.4c-0.6-0.7-0.6-1.6-0.5-2.7
		C372,637.9,375.3,640.2,378.8,639.3z"/>
	<path fill="#FFFFFF" d="M466,404.9c0.9-2.6,3.8-4,2.4-7c3.6,0.4,4.7,2.4,3.9,6.7C470.4,405,468.4,405.3,466,404.9z"/>
	<path fill="#FFFFFF" d="M464.1,398.9c0.1-1.2-1.5-1.5-0.6-2.9c1.7,0.5,2.4,2.3,3.7,3.1c0,2-1.4,3-2.3,4.3c-1.3,0.2-1.2-2.1-2.9-1.5
		C462.7,400.9,463.4,399.9,464.1,398.9z"/>
	<path fill="#FFFFFF" d="M344.4,261.5c2.1-0.3,3.3,0.6,4.6,1.8c-1.1,1.7-2.8,2.5-4.5,4.1C344.2,265.4,344.4,263.6,344.4,261.5z"/>
	<path fill="#FFFFFF" d="M408.1,406.1c3.3,0,6,0,8.7,0C414.1,408.1,411.4,408.6,408.1,406.1z"/>
	<path fill="#FFFFFF" d="M463.1,409c-1.2,1.3-2.2,1.9-3.9,1.4c1.8-1.8,0.4-4.3,1.5-6.4C463.2,405.1,462,407.5,463.1,409z"/>
	<path fill="#FFFFFF" d="M364.3,402.3c-3.2-0.7-4.6-2.8-4.7-6.7C362.2,397.5,363.3,399.9,364.3,402.3L364.3,402.3z"/>
	<path fill="#FFFFFF" d="M429.7,424.7c3.8,0.6,4.8,2.9,5.7,5.4C434.4,427.8,431.1,427.8,429.7,424.7z"/>
	<path fill="#FFFFFF" d="M360.8,151.5c-0.3-0.2-0.8-0.4-0.8-0.5c1.2-4.1-1.7-6.3-4.1-9c2,0,2.7,1.9,4.1,2.4
		C360.5,146.9,360.8,149.2,360.8,151.5L360.8,151.5z"/>
	<path fill="#FFFFFF" d="M383.6,639.5c-0.2,1.7-1.5,2.3-2.7,3.6c0-1.6,0-2.6,0-3.5C381.7,638.9,382.5,638.8,383.6,639.5z"/>
	<path fill="#FFFFFF" d="M420.4,409.6c-1.1-0.3-1.5-0.9-2.1-1.5c-0.1-1.2,1-1.6,1.6-2.5C421.2,406.8,420.9,408.1,420.4,409.6z"/>
	<path fill="#FFFFFF" d="M353.2,145.8c-0.1,1.9-1,3.1-2.2,4.9c-0.2-1.7-0.4-2.7-0.6-4.1C351.4,146.7,352.1,146,353.2,145.8z"/>
	<path fill="#FFFFFF" d="M344.5,252.2c-1.4-2.8,0.3-4,1.6-5.3C345.7,248.5,345.2,250,344.5,252.2z"/>
	<path fill="#FFFFFF" d="M407.2,407.8c2.5,0.4,4.3,2,6.2,3.4l0.1-0.1C411,410.7,408.6,410.2,407.2,407.8L407.2,407.8z"/>
	<path fill="#FFFFFF" d="M397.1,121.6c1.5-0.8,2.5-1.4,4.2-1C400,121.8,399.1,122.6,397.1,121.6z"/>
	<path fill="#FFFFFF" d="M360.8,127.1c0,1.9,0,1.9-2.6,1.8C358.8,127.8,359.6,127.2,360.8,127.1z"/>
	<path fill="#FFFFFF" d="M357.6,148.9c0-1.1-1.5-1.8-1.1-3.1C358.2,147.1,358.2,147.1,357.6,148.9L357.6,148.9z"/>
	<path fill="#FFFFFF" d="M401.7,138.5c1,0.2,2.1,0.4,1.4,1.9c-0.2,0.5-0.6,0.7-1.1,0.5C400.5,140.3,401.7,139.3,401.7,138.5
		L401.7,138.5z"/>
	<path fill="#FFFFFF" d="M371.9,407.3c0-1.3,0-2.5,0-3.8c0.3,0,0.7,0.1,1,0.1C372.6,404.8,372.2,406,371.9,407.3L371.9,407.3z"/>
	<path fill="#FFFFFF" d="M432.4,430.2c1.4,0,1.6,1.1,2.2,1.7C433.8,431.8,432.7,431.9,432.4,430.2z"/>
	<path fill="#FFFFFF" d="M368.7,133c-1.1-0.6-0.9-1.2-0.2-2C369.2,131.7,369.4,132.3,368.7,133z"/>
	<path fill="#FFFFFF" d="M404.3,405.9c1.6-0.3,2.6,0.3,2.9,1.9l0,0C406,407.5,405.3,406.5,404.3,405.9L404.3,405.9z"/>
	<path fill="#FFFFFF" d="M393.6,357.5c-0.6,0.4-1.1,0.8-1.8-0.1C392.4,357,392.9,356.4,393.6,357.5z"/>
	<path fill="#FFFFFF" d="M358.2,116.4c-1.4,0.5-2,0-3-0.2C356.4,115.1,356.9,116.2,358.2,116.4z"/>
	<path fill="#FFFFFF" d="M383,116.1c0.5-0.7,0.9-1.6,2.1-1.2C384.8,116,383.8,115.8,383,116.1z"/>
	<path fill="#FFFFFF" d="M351.2,139.2c0.7-1.3,0.8-2,1.6-2.3C353.2,137.9,352.4,138.3,351.2,139.2z"/>
	<path fill="#FFFFFF" d="M354.5,145.9c-0.7-1-1-1.8,0.5-1.9C355.6,144.7,355.2,145.2,354.5,145.9z"/>
	<path fill="#FFFFFF" d="M363.3,412.2c-0.9,0.3-1.6,0.4-2.3-0.1C361.6,410.7,362.3,411.4,363.3,412.2z"/>
	<path fill="#FFFFFF" d="M381.4,125.4c-0.8,0.2-1.5,0-2.3-0.5C380.2,124.4,380.8,124.9,381.4,125.4L381.4,125.4z"/>
	<path fill="#FFFFFF" d="M352.9,125.5c0-1,0.4-1.5,1.3-1.9C354.1,124.5,353.8,125,352.9,125.5z"/>
	<path fill="#FFFFFF" d="M349.2,123.1c-0.3,0.4-0.6,0.9-0.9,1.4C347.6,123.6,348.2,123.2,349.2,123.1z"/>
	<path fill="#FFFFFF" d="M402.8,115.8c-0.1,0.9-0.6,1-1.3,0.7C401.5,115.5,402,115.4,402.8,115.8z"/>
	<path fill="#FFFFFF" d="M351.4,160.9c0.7,0.3,0.9,0.6,0.9,1.1C351.5,162.3,351.5,161.8,351.4,160.9z"/>
	<path fill="#FFFFFF" d="M352.8,156.8c-0.8,0-0.9-0.4-0.7-1C352.8,155.8,352.9,156.2,352.8,156.8z"/>
	<path fill="#FFFFFF" d="M374.7,117.6c-0.2,1-0.6,1.1-1.1,1C373.4,117.8,374.1,117.9,374.7,117.6z"/>
	<path fill="#FFFFFF" d="M362.5,113.3c-0.2-0.8,0-1,0.3-1.2c0.4-0.1,0.6,0.1,0.5,0.4C363.3,112.8,362.9,113,362.5,113.3z"/>
	<path fill="#FFFFFF" d="M722,352c0.6,0.7,0.6,1.7,0.9,2.5c0.9,3.6,1.9,7.3,4,10.5c5.5,8.6,7.5,18.1,8,28.1
		c0.2,3.6,0.4,7.2,1.3,10.8c1.4,5.6,0.8,11.4,0.7,17c-0.2,15.5,0.3,30.9,4.5,45.9c1.4,4.9,0.6,9.7,0.4,14.4
		c-4.9,3.3-10.4,3.9-15.6,5.2c-5.1,1.3-10.5-1-15.5,1.4c4.8,3.2,10.1,0.3,15.3,1.3c0.2,3.8-0.2,7.4-1.3,10.8c-1,3.1-1.7,6-0.8,9.3
		c0.8,2.9-0.4,5.9-1.1,8.7c-0.7,3.1-0.6,6.3-2.3,9.3c-1,1.7-0.5,4.2-0.5,6.3c0,11.5-1.6,22.8-2.3,34.3c-0.6,9.4-1.1,18.8-2,28.1
		c-0.7,7.6,0.2,15.2-1,22.8c-0.4,2.5,1.5,5,0.8,7.8c-1.8,0.9-4-0.2-5.8,0.7c-1.7,1.6-1.3,3.8-1.8,5.9c-4.8,0.1-9.5-0.2-14.4-1
		c-0.2-2.8-0.3-5.5,0.3-8.3c1.8-9.2,2.3-18.4,0.8-27.8c-1.4-8.6-2.7-17.3-5.2-25.6c-1.1-3.6-0.8-7.1-0.1-10.7
		c1.6-8.2,1.5-16.5,1.9-24.8c0.2-4.6,1.7-8.9,3.4-13c1.3-3.1,1.6-6.2,0.7-9.3c-1.3-4.1,0.5-7.8,2.4-10.9c2.7-4.5,5-8.8,4-14.2
		c3.3-2.3,7.6,0.6,10.8-2.7c-3.2-14.6-2.4-29.7-3.7-44.8c-1.3,3.3-0.9,6.8-1,10.3c-0.1,3.7-0.2,7.5-0.1,11.2
		c0.1,3.6,0.6,7.3,0.5,10.9s1.3,7.2,0.6,10.7c-1.8,1.4-3.8,0.6-5.7,1c-3.8,0.9-7.8,1-11.5,2.6c-0.4,0.2-1.1,0-1.7-0.1
		c-5.5-0.9-11-1.6-16.5-2.6c-5.2-1-10.4-0.9-15.6-0.4c-7.6,0.7-15.2,0.3-22.9,0.5c0-1.3,0-2.4,0-3.5c0.6-0.6,0.6,0.3,1.6,0.3
		c-0.1-3.9,0.8-7.6,1.1-11.5c0.5-7.5,0.2-15,1.1-22.5c0.1-1,0-2.1-0.2-3c-2.7-11-0.5-22.1-0.4-33.1c0.1-10.5,2.6-20.7,2.3-31.2
		c-0.2-6.8,1.5-13.5,2.5-20.2c0.2-1.6,1.1-3.2,1.9-4.7c1.9-3.5,2.2-7.9,5.5-10.6c3.7,2.6,21.9,8.2,27.9,8.4c-4.4-2-9.3-2.4-13.9-4.3
		c-0.7-0.8,0.1-2.3-1-2.8c-1.4-0.9-2.6,0.2-3.7,0.1c-0.8-0.7-0.8-1.4-0.4-2.5c6,1.8,11.6,4.8,17.8,6s12.5,1.6,18.5,3.5
		c-0.5,1.3-1.6,0.8-2.3,0.8c-0.6,1-1.1,1.9-0.4,2.9c0.7,0.2,0.6-0.5,1.1-1c0.1,0.8,0.3,1.4,0.4,2.1c1.6,0.8,4.1-1.4,5.4-4.6
		c3,0.2,6,0.1,8.9,0.7c0.8,0.7-0.4,1.7,0.7,2.3c1.8,0,3-2.5,5.2-1.7c0.3,1.3-1.6,1.6-1.1,3c0.9,0.6,1.1-0.4,1.6-0.7
		c1.1,0,0,1.3,0.9,1.6c1.4-0.1,3,0.1,4.4,1C721.8,356.6,722.1,354.3,722,352L722,352z"/>
	<path fill="#FFFFFF" d="M649,204.5c-2.2,0.4-4-1.2-6.3-0.8c6.4-3.4,11.8-8.4,18.8-11.4c1.3,1.5,2.7,3.1,4,4.8
		c4.8,6.3,11.2,11.3,15.3,18.2c1.2,2.1,2.2,4.1,2.6,6.6c0.6,3.3,1.4,6.6,2.2,9.9c0.4,1.5,0.4,2.9,0.3,4.5c-3.4,2.6-5.3,5.5-4.6,10.3
		c0.5,3.2-2.2,6.2-4.2,9.2c-1-0.8-1.8-1.4-2.6-2c-0.5-2.3,3.9-5-0.8-6.5c-0.6-2.6,2.1-5.4-0.8-7.8c2-4.2,2.4-9,3.6-13.5
		c-2.7,2.4-2.5,6.3-4.7,9.7c0.6-3,1.4-5.4,1-7.9c-1.5,4.9-3.2,9.5-7.1,12.8c0.9,10.5,0.9,20.8,0.1,30.9c-2.1,1.6-4.2,1.2-6.2,1.1
		c-5.5-0.3-10.5,1.4-15.1,4.2c-4.2,2.6-5.8,6.9-7.2,11.3c1.7-1.1,2.3-3.1,3.6-4.6c5-6.1,11.5-8.6,19.2-8.3c3.1,0.1,6-0.2,9-1
		c2.7-0.7,5.5-0.6,8.3-1.6c5.1-1.9,9.2-5.3,13.4-8.6c2.3-1.8,2.3-4.5,2-7.2c-0.2-1.6-0.9-3.2-0.6-5.3c2.2,0.1,4.3,0.3,6.4,0.4
		c4.1,0.2,5.9-1.2,6.7-5.3c0.3-1.4-0.1-2.7,0.1-4c0.4-2.4,1.4-4.5,3-6.3c4.9-1.1,5.9-0.1,5.4,4.8c-0.2,2-0.2,4.1-0.2,6.1
		c0,0.8,0,1.6,1.4,2c1.3-3.5,0-7.1,0.9-10.7c0.7-0.5,1.3,0,2.1,0.6c0,3.8-0.3,7.8,1.6,11.5c1.4-3.2,0-6.6,1.2-9.9
		c0.3,3.7,2.7,7,1.6,11c1.7,0.4,1.8-1.5,3.1-1.5c0.7,1.5,0.7,3.4,2.3,5.2c-4.2,2.7-7.7,6.2-12.1,8.3c-8.7,4.2-15.1,11.1-19.2,19.2
		c-4.5,9-11.7,14.7-18.5,21.4c-5.1,5-10.9,7.6-17.3,9.3c-2.1,0.6-3.1,2.4-4.9,3.4c-3.5,2-7.2,1.5-9.2-2c-0.9-1.6-2.2-2.9-3.6-4.3
		c1.9-2.6,5.7-2.6,7.5-5.3c-2.2,1.4-5.7-0.2-7,3.1c-1.2,0.1-2.2,0.2-3.1,0.3c-4.7-4.4-8.2-15.7-6.6-21c-2.6-3.9-4.2-8.4-6.2-12.7
		c-0.9-2.1-1.2-4.3-0.9-6.6c0.3-2.9,0.2-5.9,0.2-8.8c0-1.9,0.3-3.8,0.7-5.7c0.8-3.8,0.3-7.3-1.7-10.8c-2.2-3.8-2.2-8-0.4-12.8
		c-0.2,4.2,2.1,7.3,2.4,10.9c0.1,1.8,1.5,3.5,3.1,4.7c1.2,0.9,1.9,0.4,1.9-1c1.6-0.7,2.5,1.2,4,1c-1.4,0.2-2.3-1.7-3.9-0.9
		c-3.8-4.3-5.3-9.5-6.1-15.1c-0.6-4.4,1-8.1,3.4-11.5c2.8-4,5.2-8.6,10.2-10.6c1.1-0.4,0.6-1.6,1.3-2
		C644.1,204.9,646.8,206,649,204.5l0.2-0.2L649,204.5z"/>
	<path fill="#FFFFFF" d="M660.1,486.3c5.9-0.8,11.7,0.1,17.5,1.2c4.7,0.9,9.4,1.2,14.2,1.5c1.3,0.1,2.2-0.5,3.2-0.8
		c1.5-0.4,3-1,4.8-0.6c0.2,4.7-1.4,8.9-3.7,13c-2.2,4-3.4,8.6-2.5,13.4c0.8,4.5-0.8,8.3-3.8,11.6c-0.6,0.7-0.7,1.4-0.7,2.2
		c-0.3,6.5-0.7,12.9-1.4,19.3c-0.5,5.1-1.3,10.2-2.1,15.3c-0.6,3.6-0.6,7.4-0.9,11.1c-1,10-1.5,20.1-1.6,30.2
		c0,9.7,0.8,19.3,0.7,28.9c0,0.8,0.1,1.6-0.3,2.4c-0.8,0.9-2.2,0-3.2,0.9c-3.5,4.8-3.8,6.4-1.5,8.4c1.1-2.2,1.7-4.7,3.5-6.7
		c1.5,1.8,3.6,0,5.9,1.3c0.2,6.9,5.7,10.1,11.4,13.3c-2.1,1.8-4.2,0.2-5.9,1.2c-0.6-0.9,1-1.3,0-2.1c-4.1-1.3-18,1.2-20.2,3.9
		c3,2.9,6.2-0.2,9.4,0.5c-1.5,1.5-4.2,1.2-5.2,3.2c0.7,2,2.3,2,3.7,1.8c7-1.1,14.3-1.3,20.3-5.8c0.1-0.1,0.4,0.1,0.7,0.2
		c0.7,1.2-2.2,1.9-0.3,3.1c-3.9,2.1-8.9,0.6-11.6,4.8c2.2,1.3,10.5-0.4,14.7-3.1c2.2,1,4.4,2,6.8,3.1c-1.7,1.5-4.6,0.7-6.1,3.4
		c3.9,0.3,7.3,0.5,10.6-1.6c2.4,1.4,5.1,2.2,7.7,3.4c1.5,0.7,2.5,1.6,2.2,3.4c-0.5,2.9-0.4,5.9-1.6,8.7c-9.3,5.3-19.4,6.5-29.9,5.2
		c-6.1-0.8-12.1-1.9-17.7-4.5c-1.2-0.6-2.6-0.5-4-0.4c-6.9,0.4-13.5-1.2-19.8-3.9c-0.6-0.3-1.2-0.6-1.8-1c0.1-7.5,6.1-13.3,5.4-21.4
		c2.6,2.3,5,3.7,7.9,4.3c2.9,0.7,5.3,0.2,6.8-2.3c2.1-3.5,4.5-6.5,7.9-8.5c-0.4-1.4-1.1-0.6-2.1-0.9c-0.2-0.1,0.9-0.8,0-1.3
		c-1.1-0.3-2.5-0.3-3.9-1.2c-0.9-2.9-2.9-5.8-2.3-9.3c-2,2.7-0.7,5.9-1.2,8.8c-2.9,0-5.5-0.9-8.7-1.7c2.1-1.6,2.2-3.5,1.8-5.5
		c-1.1-4.7-2.2-9.6-1.5-14.1c1-7.1-0.6-14-0.4-21c0.1-3.5-1.2-6.9-1.6-10.4c-0.9-9.9-3.3-19.4-6.8-28.7c-2.2-5.7-1.6-11.9-0.8-17.9
		c1.2-9.2,3.8-18,6.7-26.7c1.9-5.8,2.3-11.8,3.2-17.7c0.5-3.4-0.3-6.8-1.3-10.1C660.6,489,659.8,487.8,660.1,486.3z"/>
	<path fill="#FFFFFF" d="M722.1,351.9c-0.4-0.2-0.9-0.7-1.2-0.6c-4.5,1.5-9,0.3-13.5-0.1c-7.3-0.6-14.6-1.4-21.9-2.9
		c-3.7-0.7-7.3-1.7-11-2.3c-4-0.7-8.4-1.9-10.8-6.2c-0.7-1.2-2.1-2-3.6-3.3c-0.2,2.8,2.4,3.5,3.1,5.8c-3.6-1.5-7.3-1.8-10.6-3.7
		c0.2-3.3,2.3-6.4,0.6-9.5c0.7-1.2,1.9,0,2.4-0.9c-0.8-1-2.3-0.8-3.1-2.1c1.4-0.5,2.3,0.9,3.4,0.4c-0.5-1.6-3.1-0.6-3.7-2.9
		c6.6,1.5,12.9,3.3,19.4,3.3c-6.4-1.9-13.1-2.8-19.6-5c-0.8-1.2-0.4-2.1,1.1-2.6c5.1-1.8,9.9-4.5,15.1-6.1c2.1-0.6,3.9-1.8,5.6-3.2
		c4.1-3.4,8.2-6.8,12.2-10.4c5.3-4.8,9.1-10.7,12.7-16.7c4.5-7.6,10.4-14,18.4-18.2c3.7-2,6.9-4.8,10.4-7.2c2.1-1.4,1.5-3-0.6-5.1
		c2.9,0.6,4.9,1.1,7.1,1.6c0.8,4.4,0.5,8.6-1.9,12.4c-2.6,4.1-2.6,8.8-2.3,13.1c0.2,3.8-0.7,7.1-1.7,10.5c-0.6,2.2-1.5,4.3-2.3,6.4
		c-0.4,1.1-0.9,2.2-0.9,3.2c0.1,7.6-2.3,14.9-2,22.6c0.3,6.6-1.5,13.2-2.5,19.8C720,345.8,719.6,349.1,722.1,351.9L722.1,351.9z"/>
	<path fill="#FFFFFF" d="M712.6,202c-0.8,2.5,0.4,4.6,1.2,6.8c-1.3,1.5-3.2-0.1-4.6,1.1c1.5,2.1,3.5,0.6,5.3,0.9
		c1.5,2.3,1.7,5,1.6,7.5c-0.1,2.3-0.1,4.5-0.1,6.8c-0.1,4.5-1.9,6.6-6.2,5.8c-6.8-1.3-13-4.2-16.8-10.4c-2.9-4.7-6.5-9-9.1-13.9
		c-3.8-7.3-10.3-11.5-16.5-16.3c-0.3-0.3-0.7-0.5-1.3-0.9c1.2-1.3,2.7-2,4-2.5c5-1.9,7-5.9,7.6-10.8c0.6-4.5,0.4-9.2,1.1-13.7
		c0.3-2,0-3.9,0.5-5.8c1.8-0.9,2.1,1.4,2.9,1.5c1.4,0.4,1.8-0.6,2.9-0.5c0.4,1.9,1.2,3.9,1.2,5.8c0,2.9,1.5,4.5,3.7,5.6
		c2.5,1.2,5,2.6,8.6,2.8c-4.1-2-7.3-4.4-10.4-6.6c-1.6-4,0.6-9.1-3.7-12c-1.3,0.7-0.7,1.7-1.1,2.3c-1.2,0.2-4-3.2-3.8-4.8
		c-0.4-0.3-0.9-0.6-1.4-0.9c-0.5-0.3-1.1-0.5-1.4-1.4c-0.1-1.3,1-2.4,1.6-3.7c1.3-0.3,1.4,1.5,2.6,1.1c-1.2,4.6,0.3,6.1,4.6,5.1
		c0.5-1.1-0.7-1.9-0.4-2.9l-0.1,0.1c0.5,0.5,0.9,1.1,1.7,1c0.8-0.3,0.8-1.1,0.8-1.7c0.1-5.1,2.9-8.7,6.5-11.9
		c1.6-1.4,3.4-2.7,3.9-4.9c-0.4-0.7-1.7-0.1-1.9-1.3c1.2-0.8,2.6,0.3,3.8-0.3c1.1-2.8,4.1-3.3,6.2-4.8c0.1-0.7-0.4-1.1-0.7-1.7
		c3.6,0.6,7-0.1,10-2.2c3.3,0.9,6.6,1.5,10.2,1.3c1.4,4,2.1,8.1,3.1,12c-0.6,1.2-2-0.1-2.6,1.8c-0.1,0.4,1.9,0.4,1.4,2
		c-1.7,1.7-1.8-0.4-2.5-1.2c0.6,5.2,2.2,10.1,4.3,14.5c-0.5,1.6-1.8,1.6-2.4,2.5c-0.7,1.9,0.4,4-0.2,6.2c-3.2,0.7-6.7,0.5-9.8,1.8
		c0,0.4,0.1,0.8,0.1,1.2c3.1-0.2,6.2-0.5,9.3-0.7c0.8,1.2,0.4,2.2-0.5,3.2c-2-0.2-4.1-1.3-6.7-0.4c1.5,2.6,3.9,1.3,5.9,2.1
		c-0.3,2.3-0.4,4.9-0.2,7.4c0.2,2.4-1.6,3.9-4,4.1c-1.5,0.1-3,0-4.4,0.1c-3.6,0.2-4.9,1.4-5.3,4.9c-0.4,4.5-0.7,9-0.8,13.6
		C710.3,198.5,710.4,200.8,712.6,202L712.6,202z"/>
	<path fill="#FFFFFF" d="M723.5,640.9c-2.7,2.7-6.4,2.5-9.7,3.4c-1.6,0.5-3.1,0.6-3.9,3.1c7.6,2.1,14.9,1.3,22.3-1.5
		c1.7,1.1,3.4,2.7,5.3,4.8c-1.4,0.1-2.1,0.5-3.2-0.6c-3.4-3.2-8.2-2.5-11.5,1.2c1.5,0.7,1.5,0.7,7.1,0c-0.4,1.6-2.6,1-3.2,2.6
		c3.2,2.6,5.6-1.3,8.7-0.8c-0.4,1.1-1.8,2.4,0.1,3.4c1.8,0.9,4-0.7,5.5-4c6.3,4.3,14,2.9,21,5c2,2.8,1.9,6.3,2.6,9.8
		c-4.7,3.7-10.7,4.4-16.2,6.3c-5.8,2.1-11.6,0.6-17.2,0.3c-1.1-0.9-0.9-2-1.2-3c-0.8-2.7-2.3-4.7-5-5.6c-4-1.3-7.5-3.7-11.5-5.1
		c-0.6-0.2-1.2-0.6-1.7-1.1c-5.1-4.5-10.3-8.8-16.2-12.4c-1.5-0.9-3-2-3.5-4c2.4-0.8,4.7-0.2,7,0.3c5.1,1.1,7.9-0.4,11.8-6.2
		c-0.4-2.4-1.1-4.9,0.2-7.4c2.5-0.8,5.2,0.2,7.7-1.4c-0.4,3.6,0.2,6.2,3.6,7.8c1.4,0.6,2.4,2.3,3.6,3.5
		C725.3,640.4,724.4,640.8,723.5,640.9c-0.7-1.1-1.6-1.5-2.9-1.1c-1.7,0.6-3.5,0.7-5.4,1.4c1.9-0.6,3.7-0.8,5.4-1.4
		C721.8,639.5,722.8,639.8,723.5,640.9z"/>
	<path fill="#FFFFFF" d="M742.9,284.6c4.2-14.1,4.2-14.1-1-29.3c4.3,0.7,8.3,1.7,12.3,2c1.2,0.1,1.7,1.4,2.3,2.4
		c1,1.7,2.2,2.6,4.4,2.4c2.9-0.4,5.1,0.7,6.7,3.5c1.4,2.5,3.4,4.8,5.7,6.7c1.2,1,2.3,2.2,3.2,3.5c-6.4,5-13.8,6.5-21.7,5.9
		c-2.8-0.2-5.3,0.3-7.8,1.7C745.7,284,744.3,284.2,742.9,284.6z"/>
	<path fill="#FFFFFF" d="M804.7,259.9c-0.8,2-2,3-3.2,3.9c-7.4-0.7-14.5-3-22-3.6c-1.5-1.1-2.6-3.2-5.7-4c2,2.1,3.2,3.7,0.7,5.6
		c-0.5-1.1,0.1-2.5-0.8-3.4c-4.9,1.7-8.9-2.6-13.7-1.9c-2.5-2.5-2.5-2.5-3.6-1.1c-0.7,0.2-0.9-0.5-1.3-0.8c-0.4-0.4-0.8-0.8-1.7-0.9
		c-1,1-2.3,1.8-4.1,1.3c-7-1.6-14.2-2.9-21.5-3.6c-0.7-2-1.3-3.9-2-6.1c3.3-0.1,6.2,1,9.1,1.7c12.8,3.2,25.8,4.8,38.8,6.9
		c9,1.4,17.9,2.7,26.9,3.8C802.2,257.9,803.1,259.1,804.7,259.9z"/>
	<path fill="#FFFFFF" d="M687.8,236c-0.8-4.9-1-9.7-2.2-14.3c-1-3.9-2.8-7.1-5-10.3c-5-7.4-12.1-12.9-17.6-19.8
		c1.5-1.4,1.5-1.4,3.2-0.2c7.7,5.2,14.4,11.3,18.9,19.7c2.2,4.2,4.9,8.2,7.5,12.1c2.7,4.1,6.9,6.4,11.4,8.2
		c-1.4,1.2-1.4,1.2-6.3,1.4c-1.1,1-2.1,2.1-2.5,3.9c1.9,0.3,1.9-1.6,3.2-2.2c2.6,0.7,5.1-1,7.7-1.7c0.8,1.3-0.2,2.3,0.2,3.4
		c-1.6,0.8-3,1.6-4.6,2.4C697.3,237.2,692.3,237.7,687.8,236z"/>
	<path fill="#FFFFFF" d="M691.2,633.1c-1.3,0.6-1.9,1.8-2.2,3.2c-2.3-0.1-2.9-1.6-2.9-3.5c0-11-1.4-22-0.7-32.9
		c0.5-7.9,0.7-15.8,2.3-24.4c3.5,9.8,3,19.5,4.8,28.8C694.2,613.9,690.1,623.2,691.2,633.1z"/>
	<path fill="#FFFFFF" d="M738.4,246.4c-4.2-5.8-9-10.3-12.1-16.2c-3.2-6-3.6-12.8-5.9-19.3c4.3,1,7.9,3.1,10.7,6.6
		C737.8,225.8,741,235.2,738.4,246.4z"/>
	<path fill="#FFFFFF" d="M735,245.4c-2.9-0.7-5.5-1.4-7.8-2c-4.9-6.1-11.8-7.6-18.4-9.9c1.4-0.9,3.2-0.5,4.8-1.1
		c3.5-1.2,4.4-2.2,4.4-5.8c-0.1-3.8-0.3-7.7-0.4-11.5c-0.1-2.9-1.6-5.3-3-8.1c3.7,2.7,4.3,2.6,5.2,8.5c1.6,10.7,7,19.2,13.8,27
		c0.4,0.5,0.8,1.1,1.2,1.7C734.8,244.5,734.8,244.8,735,245.4z"/>
	<path fill="#FFFFFF" d="M793.6,264.2c-1.7,5.9-6.1,9-13.3,9.5c1.1,4.5,5,7.5,6.3,12.3c-2.4-0.8-3.9-2.3-5.6-3.6
		c1.4-3.5-0.5-5.5-2.8-7.6c-2.2-2-4.1-4.1-6.5-5.9c2.1-2.2-1.8-3.2-0.6-5.4c2.8,2.6,3.8,6.5,6.3,9.4c0.9-0.6,0.6-2.2,2.1-1.9
		c-0.5-3.4-3.5-5.1-4.7-8.6C781.3,261,787.3,263.4,793.6,264.2z"/>
	<path fill="#FFFFFF" d="M692.1,238.5c4.2,0.7,7.8,0.8,11.1,2.3c1.6,3.7,0.7,6.7-1.9,9.6c-5-0.2-10.1-0.9-15-1.6
		c-1.9-1.8-2.3-4.1-2.9-6.4c1.7-3.8,2.6-4.4,5.3-3.5c2.6,0.8,3.1,2,2.4,6.2c-1.2,1.2-3.1,1.3-4.8,2.6c2.2,1,3.3-1.3,4.8-0.4
		C693.2,244.6,693.6,241.9,692.1,238.5z"/>
	<path fill="#FFFFFF" d="M659.1,649.3c0.1-1.4,0.2-2.9,0.3-4.8c5.5,1.8,11.1,2.4,17.4,3.3c-3.4,1.8-5.1,4.1-6.6,6.6
		c-1.1,1.7-2.4,2.4-4.6,1.6c-2.4-0.8-4.9-1.3-6.4-3.4c0.7-1.6,1.8,0.5,2.4-0.6C661.3,650.8,659.8,650.7,659.1,649.3z"/>
	<path fill="#FFFFFF" d="M683.4,248.4c2.5,2.6,5,2.1,7.4,2.8c-1.6,2.5-0.3,4.7,0.5,7c-0.4,1.2-0.7,2.4-1.7,3.5
		c-1.2,0.3-2.7,0.5-4.3,0.9c-1.6-2.6-5.6-1-7.3-4.2C679.3,255.3,682.3,252.8,683.4,248.4z"/>
	<path fill="#FFFFFF" d="M687.1,263.9c-5.6,4.3-11,8.5-18.5,7.6c-0.6-1.5-0.3-2.7,0-4.3c3.8,0.1,4.8-3.5,7.3-5.6
		C679.4,263.5,683.5,261.7,687.1,263.9z"/>
	<path fill="#FFFFFF" d="M703.2,636.1c0.7,1.8,0.1,2.9,0.3,4.1c-3.8,1.2-6.8-1.3-10.1-1.5c-0.5-0.9-0.7-1.8-0.3-3
		C696.5,635.1,699.8,636.9,703.2,636.1z"/>
	<path fill="#FFFFFF" d="M830.8,267.2c-1.4,0.3-2.6,0.1-4-0.2c-0.4-1.8-0.3-3.5-0.3-5.3C830.7,262.3,831.5,263.2,830.8,267.2z"/>
	<path fill="#FFFFFF" d="M769,259.8c-1,0.6-2,1-2.6,2.4c-2.1-2.6-6.4,0-8.1-3.9c1.5,0,1.6,1.9,2.9,1.7c1-0.5-0.1-1.2,0.4-2
		C763.9,258.5,766.4,259.1,769,259.8z"/>
	<path fill="#FFFFFF" d="M673.6,260.2c-1.2,1.6-2.6,2.6-4.4,3.8c-0.5-2-0.4-3.7-0.3-5.4C671,258,672.2,259.2,673.6,260.2z"/>
	<path fill="#FFFFFF" d="M821.4,256.7c1.5-0.4,2.5-0.1,3.3,1c0.3,1.7-0.6,3.4-0.4,5.2C823.1,261.1,822,259.1,821.4,256.7z"/>
	<path fill="#FFFFFF" d="M705.3,636.5c1-0.6,1.7-0.4,2.5-0.1c0.1,1.8-1.1,2.4-2.5,3.4C705.3,638.6,705.3,637.6,705.3,636.5z"/>
	<path fill="#FFFFFF" d="M675,142.8c1.1,1.5,1.6-0.5,2.5,0.3c0.3,1.7-1.3,2.5-1.8,3.9C674.9,145.7,675,144.6,675,142.8z"/>
	<path fill="#FFFFFF" d="M670.7,243.8c-0.5,1.5-1.1,3.1-1.6,4.7c-2.2-2.6,1-3.4,0.9-5.1C670.3,243.6,670.5,243.7,670.7,243.8z"/>
	<path fill="#FFFFFF" d="M682.7,125.8c0.6-1,1.3-1.7,2.5-1.7C685.3,126.1,685.3,126.1,682.7,125.8z"/>
	<path fill="#FFFFFF" d="M725.8,117.5c-1.3,1.4-2.3,2.1-4.2,1.2C722.9,117.7,724,117.2,725.8,117.5z"/>
	<path fill="#FFFFFF" d="M684.7,143.9c-1.4-0.9-2-2.5-2.9-3.8c0.1-0.1,0.2-0.2,0.3-0.3C683.7,140.6,685.2,141.6,684.7,143.9
		L684.7,143.9z"/>
	<path fill="#FFFFFF" d="M769,262c1.3,1.4,0.1,2.5,0.6,3.5C768.4,264.6,768.4,263.5,769,262z"/>
	<path fill="#FFFFFF" d="M678.9,142.8c-0.8-1.1-0.9-1.8,0.5-2C680.1,141.6,679.6,142.2,678.9,142.8z"/>
	<path fill="#FFFFFF" d="M682.5,145.1c-1.2-0.4-1.7-1.1-1.6-2.5C682.2,143.2,682.7,143.8,682.5,145.1z"/>
	<path fill="#FFFFFF" d="M693.1,127.9c0.7,0.4,0.5,1.1,0.7,1.7C692.4,129.2,692.4,129.2,693.1,127.9z"/>
	<path fill="#FFFFFF" d="M709.8,111.6c-0.6,1.1-1.3,1.3-2.3,1.4C708,112.1,708.4,111.4,709.8,111.6z"/>
	<path fill="#FFFFFF" d="M685.4,147.9c-0.8,0.2-1.4,0.1-0.9-0.9c0.5-1.1,0.4-2.1,0.2-3.2l0,0C684.9,145.3,685.1,146.6,685.4,147.9
		L685.4,147.9z"/>
	<path fill="#FFFFFF" d="M676.4,123.5c0.5-1.4,0.9-2.1,1.9-2.4C678.2,122.2,677.5,122.7,676.4,123.5z"/>
	<path fill="#FFFFFF" d="M682.5,113.1c-1.2,1.4-1.4-0.5-2.2,0C681.2,112.4,681.7,112.9,682.5,113.1z"/>
	<path fill="#FFFFFF" d="M652.3,343.8c-0.1-0.9,0.4-1.3,0.7-1.9c0.8,0,0.5,0.6,0.4,0.9C653.3,343.3,653.1,343.7,652.3,343.8z"/>
	<path fill="#FFFFFF" d="M655.5,343.8c-0.1-0.8-0.2-1.4,0.6-1.4c0.2,0,0.5,0.2,0.6,0.3C656.8,343.4,656.3,343.6,655.5,343.8z"/>
	<path fill="#FFFFFF" d="M718.1,354.1c-0.6,0.6-1.1,1.2-1.9,0.3C716.8,353.6,717.4,354,718.1,354.1z"/>
	<path fill="#FFFFFF" d="M727.3,112.7c-0.4,0.9-0.9,1.1-1.8,1C725.9,112.3,726.6,112.8,727.3,112.7z"/>
	<path fill="#FFFFFF" d="M676.6,159.1c-0.7-0.2-0.8-0.6-0.6-1.2C676.6,158.1,677.1,158.4,676.6,159.1z"/>
	<path fill="#FFFFFF" d="M681.8,140c-0.6-0.2-1.1-0.5-1.5-1.2c1.1-0.3,1.4,0.3,1.8,0.9C681.9,139.8,681.9,139.9,681.8,140z"/>
	<path fill="#FFFFFF" d="M673.3,119.7c0.4,0.9-0.3,1.1-0.5,1.6C672,120.3,672.8,120.2,673.3,119.7z"/>
	<path fill="#FFFFFF" d="M699.1,115c-0.3,0.4-0.6,0.5-1.1,0.3C698.3,114.6,698.6,114.6,699.1,115z"/>
	<path fill="#FFFFFF" d="M694.2,113c0.2-1.4,0.6-1.5,1.1-1.6C695.5,112.1,694.8,112,694.2,113z"/>
	<path d="M390.1,509.8c4.8-3.4,3.8-9.5,6.5-13.7c0.9,0.2,1.2,0.6,1.2,1.1c-0.3,4.4-0.9,8.8-3.7,12.5c-1.4,1.8-3.2,2.9-5.7,2.1
		c-0.9-0.3-1.8-0.2-2.7-0.1c-1.3,0.1-2.4-0.1-3.5-2C385.1,509.5,387.6,510.5,390.1,509.8z"/>
	<path d="M397.6,449.4c-3.4-3.1-5.9-7.1-9-10.3c-1.5,0-2.1,1.4-3.7,1.2c0.2-2.6,2.8-3.3,3.9-5.1c1.1-1.8,2.3-3.7,3.1-5.6
		c0.9-2,1.5-4.2,3.1-6c-0.9,5.1-2.6,9.8-5.6,13.9c2.5,4.2,6.4,7.3,8.4,11.7L397.6,449.4z"/>
	<path d="M379.4,570.6c-2,4.3-3.9,8.4-5.6,12.4c-1.5-0.1-1-0.8-1-1.3c-1.2-0.5-2.5,1.5-4.1-0.5C373.7,579.1,375.9,574.2,379.4,570.6
		z"/>
	<path d="M389.5,531c-0.9-0.4-1.2-0.8-1.4-1.4c-0.9-3.1-2.2-5.8-4.7-8.2c-1.5-1.5-2.2-4-0.5-6.4C385.2,520.3,389.1,524.8,389.5,531z
		"/>
	<path d="M330.5,395.3c-0.4-8-0.5-16,1.6-23.8c1.2,2.5-0.3,4.9-0.4,7.3c-0.1,2.8,0,5.7-0.1,8.5C331.7,390,331.2,392.7,330.5,395.3z"
		/>
	<path d="M342.3,452.2c-1.9-3.1-3-14.5-2.1-20.6C341.3,438.8,341.1,445.6,342.3,452.2z"/>
	<path d="M393.5,524.2c1-0.8,0-2.1,1.8-2.6c1.7,0.4,1.5,1.8,0.9,3.2c-0.9,1.9-3.5,2.1-6.6,0.4C391.2,524.8,392.5,524.4,393.5,524.2z
		"/>
	<path d="M397.1,425.5c2.7,3.1,1.3,7.1,1.9,10.7c-0.9-3.5-1.8-7-2.7-10.5C396.6,425.6,396.9,425.6,397.1,425.5z"/>
	<path d="M358.3,460.8c2.5,4.3,5,8.6,7.6,12.9c0,0.2,0.1,0.4,0.1,0.6c-0.2-0.1-0.4-0.1-0.6-0.2c-3-4-5.6-8.3-7.4-13
		C358.1,461,358.2,460.9,358.3,460.8z"/>
	<path d="M342,421.4c-0.3-3.6-0.6-7.3-0.9-10.9C342.1,414.1,342.7,417.7,342,421.4z"/>
	<path d="M379.5,564.6c0.7,2.4-0.1,3.7-1.7,5.3C377.6,567.7,377.9,566.2,379.5,564.6z"/>
	<path d="M378.8,625.2c1.3,4,1.3,4-0.7,5.1C377.9,628.6,378.7,627.1,378.8,625.2z"/>
	<path d="M383.9,548.8c0.6,1.6-0.2,2.3-1.5,3.3C382.2,550.4,382.5,549.4,383.9,548.8z"/>
	<path d="M356.1,456.1c-1.2-0.9-1.4-2.4-1.8-3.7C355.3,453.5,356.1,454.6,356.1,456.1L356.1,456.1z"/>
	<path d="M358,461.1c-1-1.5-1.8-3.1-1.9-4.9H356c1.4,1.2,1.8,3,2.2,4.6C358.2,460.9,358.1,461,358,461.1z"/>
	<path d="M401.5,440.7c1.5,0.9,2.2,1.5,2.5,2.9C402.7,443.1,402.2,442.4,401.5,440.7z"/>
	<path d="M381,558.3c0.7,1.7,0.6,2.8-1,3.5C379.5,560.4,380.6,559.7,381,558.3z"/>
	<path d="M381.8,554.6c0.5,0.6,0.7,1.2-0.4,1.7C380.8,555.6,380.8,555.1,381.8,554.6z"/>
	<path d="M367.1,475.8c0.4,0.5,0.8,0.9,1.2,1.4c-0.9,0.1-1.3-0.4-1.5-1.1C367,476,367,475.9,367.1,475.8z"/>
	<path d="M366.9,476.1c-0.8-0.4-1.2-1.1-1.5-2c0.1-0.1,0.3-0.3,0.4-0.4c0.6,0.6,1.2,1.2,1.3,2.1C367,475.9,366.9,476,366.9,476.1z"
		/>
	<path d="M388.3,463.8c-0.2-0.3-0.4-0.5-0.6-0.8C388.2,463,388.5,463.2,388.3,463.8z"/>
	<path d="M402.9,456.1c0.2,0.2,0.4,0.3,0.6,0.5C403,456.9,403,456.6,402.9,456.1z"/>
	<path d="M400.9,453.5c0.2,0.1,0.6,0.1,0.4,0.6C401.1,454,400.7,454,400.9,453.5z"/>
	<path d="M397.8,449.2c0.3,0.4,0.6,0.8,1.1,1.3c-1,0-1.2-0.5-1.3-1.1L397.8,449.2z"/>
	<path d="M391.2,362.7c2.6,9.8,3.3,19.8,3.6,29.8C393,382.6,392.9,372.5,391.2,362.7z"/>
	<path d="M396.1,367.3c3.2,8.2,2.8,17.2,6.5,25.8c-2.2-1.1-2.6-2.7-3.1-4.3c-1.3-4.6-2.3-9.3-2.6-14
		C396.7,372.3,395.5,369.9,396.1,367.3z"/>
	<path d="M390.6,250.7c0.9,3.2,1,6.4,3,9.5c1.7,2.7,3.2,5.3,6.2,7.5c-6.7,0.4-7.4-4.4-8.7-8.2C390.1,256.7,389.9,253.7,390.6,250.7z
		"/>
	<path d="M375.8,363.7c2.9,4,2.5,8.3,0.4,12.7c0.1-4.3-2.3-8.3-2-12.6C374.7,363.8,375.2,363.8,375.8,363.7z"/>
	<path d="M362.3,360.7c2.9,3.2,1.4,9-3.2,15.5C359.5,370.8,362.3,366.4,362.3,360.7z"/>
	<path d="M390.4,301.9c3.6-8.3-0.4-16.9,1.6-25.3c1.5,2.6,0.7,5.5,0.4,8.1c-0.4,3.1,1.1,6,0.7,9
		C392.8,296.6,392.1,299.4,390.4,301.9z"/>
	<path d="M384.2,363.9c2.2,3.1,3.2,6.7,4,10.2C386.4,370.9,384.1,367.9,384.2,363.9z"/>
	<path d="M390.7,312.5c0.2,0.1,0.6,0.1,0.6,0.2c1.1,3.6-1.4,7-0.2,10.6C389.5,319.7,390.2,316.1,390.7,312.5L390.7,312.5z"/>
	<path d="M349.8,269.4c2.4-0.4,4.1,0.8,5.7,2.3C353.5,271.3,351.1,271.5,349.8,269.4z"/>
	<path d="M391.1,326.9c0.4,2.5,0.4,4.2-0.8,5.7C390.5,331,390.8,329.3,391.1,326.9z"/>
	<path d="M373.2,265.1c-1.6,0.9-2.6,0.7-3.5-0.9C371.2,263.6,372.1,264,373.2,265.1z"/>
	<path d="M390.7,312.5c-0.7-1.8-0.6-3.7-0.1-5.5C391.4,308.8,391,310.7,390.7,312.5L390.7,312.5z"/>
	<path d="M363,347.3c1.4,0.6,2.4,1.5,3.3,3.1C364.3,350.1,363.6,348.7,363,347.3z"/>
	<path d="M366.9,328.4c1.4-0.4,2.2-0.2,3.1,0.5C369.1,329.3,368.2,329.1,366.9,328.4z"/>
	<path d="M366.5,355.7c0,1.4-0.4,2.1-1.4,2.7C364.7,357.1,364.8,356.3,366.5,355.7z"/>
	<path d="M390.5,353.4c-0.1-0.8,0.5-1.4,0.7-1.2C391.7,352.7,391.6,353.2,390.5,353.4z"/>
	<path d="M393.9,341.2c0.4-0.3,0.8-0.4,1.1,0.1C394.7,341.5,394.3,341.6,393.9,341.2z"/>
	<path d="M350,283c0.7,0,1.3,0.1,1.5,0.9C350.7,284,350.2,283.7,350,283L350,283z"/>
	<path d="M350,283c-1,0-1.8-0.2-2-1.4l-0.1,0.1C348.8,281.8,349.6,282.2,350,283L350,283z"/>
	<path d="M348,281.6c-0.8,0.2-1.2-0.2-1.6-0.9C347.3,280.6,347.6,281.1,348,281.6L348,281.6z"/>
	<path d="M357.7,670.1c2.3-2.5,4.1-3.1,6.1-1.9c3.1,1.7,1.8,4.4,1.5,7c-3,0.5-6,1.1-7.7-2.7c-1.6,1.3-2.9,2.8-5,2.3
		c-1.1-0.3-2.1-0.8-2.8-1.8c-1.1-1.8-0.8-3.9,0.9-5.1C353,666.1,355.4,666.9,357.7,670.1z"/>
	<path d="M345.2,511.2c5.8,2.3,10.2-0.8,14.3-3c2.3-1.3,2.5-5.1,3.2-7.9c0.4-1.9,0.5-4,2.2-5.4c-0.4,5.2-1.4,10.3-4.2,14.8
		c-1.2,1.9-3.9,2.2-5.9,3.2c-1.4,0.7-2.9,1.1-4.5,1.6C348.1,515.1,346.3,514,345.2,511.2z"/>
	<path d="M336.3,586.7c2-6.8,2.6-13.9,4.2-20.8c0,7.2,0.8,14.5-2.9,21C337.2,586.8,336.7,586.8,336.3,586.7z"/>
	<path d="M342.4,673.4c-0.3-2.2-0.2-4.5,0.4-6.7c1.2-0.7,2.3-0.4,3.4-0.2c2.6,0.5,3.6,2,2,3.9c-1.1,1.4,0.1,2.3-0.2,3.4
		c-2,0.7-1.8-2.1-3.1-2.1C343.5,671.6,344.5,674.3,342.4,673.4z"/>
	<path d="M340.5,562.5c0.4-3.7,0.1-7.4,0.6-11C342.8,554.6,342.8,555.4,340.5,562.5z"/>
	<path d="M383.3,667.5c-2.2,0.2-4.4,0-6.7,1.5c1.2-3,3.9-4,7.7-3.2C384.8,666.9,383.4,666.9,383.3,667.5L383.3,667.5z"/>
	<path d="M341.6,546.9c-2-1.9-0.3-3.6,0.1-5.8C343.6,543.3,341.4,545.1,341.6,546.9z"/>
	<path d="M342.4,534.4c-0.8-1.8-0.7-3.5,1-5.6C343.8,531.3,343.4,532.9,342.4,534.4z"/>
	<path d="M346.2,621.5c-1.3-1.2-0.8-2.5-0.4-3.8C347.1,618.9,346.4,620.2,346.2,621.5z"/>
	<path d="M346.8,625.6c0.7,1.5,0.5,2.4-0.7,3.3C345.6,627.6,346,626.7,346.8,625.6z"/>
	<path d="M360.6,524.8c-1.2,0.6-2,0.4-2.5-0.9C359.3,523.2,359.9,524.3,360.6,524.8z"/>
	<path d="M396.6,137.6c-5.4,0.2-10.5-2.8-15,1.1C385.1,133.6,392.8,133,396.6,137.6z"/>
	<path d="M381.3,214.3c-2,1.3-2.8,0.3-3.7-0.2c-2.3-1.6-4.6-3.3-6.9-4.9c-2.3-1.6-4.7-2.6-7.6-2.5c-1.1,0-2.3,0.1-2.7-1.8
		C368.7,205.5,374.4,210.4,381.3,214.3z"/>
	<path d="M384.6,142.2c2.5-2.9,6-1.6,8.8-2.9c0.1,1,0.1,2,0.2,3c-0.8,0.8-3.1,0.1-2.6,2.8C389.2,142.7,386.4,144,384.6,142.2z"/>
	<path d="M374.8,190c1.3,4.6,4.5,8.9,2.7,14.2C377.5,199.3,374.5,194.9,374.8,190z"/>
	<path d="M362.4,201.5c-1.3-3.2-3.4-5.9-2.3-9.5C361.2,195,364.1,197.3,362.4,201.5z"/>
	<path d="M401.7,154.8c-1.9,2.5-4.3,1.9-6.7,1.4c-0.5-0.8-0.5-1.6,0.1-2.4c1.3-0.4,1.2,1.2,2.5,1.4
		C398.6,154.7,399.8,152.8,401.7,154.8z"/>
	<path d="M401,168.5c-2.2,0.6-4.3,1.5-6.2-1C397.3,166.7,399.3,166.9,401,168.5z"/>
	<path d="M386,222.4c-1.7-0.9-2.2-2.4-2.5-4.7C385.7,219,386,220.6,386,222.4L386,222.4z"/>
	<path d="M356.8,187c-0.8-1.2-1.5-2.3-2.6-4.1C356.7,184.4,356.7,184.4,356.8,187z"/>
	<path d="M367.9,175.8c1.2,1.1,2,1.8,1.9,3.1C368.3,178,368.3,178,367.9,175.8z"/>
	<path d="M386.1,222.3c2,0.8,1.5,2.2,1.2,3.9C386.1,225.1,386.2,223.7,386.1,222.3L386.1,222.3z"/>
	<path d="M373.6,186.7c-1-0.4-1.4-0.9-1.2-2C373.3,185.1,373.9,185.7,373.6,186.7z"/>
	<path d="M389.4,230.1c-1.3-0.2-1.2-0.7-0.9-1.5C389.7,228.8,389.5,229.4,389.4,230.1z"/>
	<path d="M372.7,183.1c-1.7-0.1-1.8-0.6-1.5-1.3C372.2,181.5,372,182.3,372.7,183.1z"/>
	<path d="M416.6,312.5c-2.4-4.6-7.7-6.6-10.5-11.5c3,0.7,9,7.1,10.9,11.2C416.8,312.3,416.7,312.4,416.6,312.5z"/>
	<path d="M416.9,312.2c2.2,1.8,2.9,4.3,3.2,7.5c-2.2-2.4-2.6-4.9-3.6-7.2C416.7,312.4,416.8,312.3,416.9,312.2z"/>
	<path d="M446.6,384c0.6,1.1,0.3,1.8,0,2.5c-0.2,0.4-0.4,0.8-1.2,0.7C444.9,385.9,445.5,385,446.6,384z"/>
	<path d="M425.2,367.5c1.6,0,2.3,1,3.6,2.8C426.8,369.5,426,368.6,425.2,367.5z"/>
	<path d="M419.8,325.7c-1.1-0.6-1.4-1.2-1.2-2.2C419.7,323.8,419.9,324.5,419.8,325.7z"/>
	<path d="M436,376.4c1,0.5,1.5,1.1,1.4,2.3C436.4,378.2,435.8,377.7,436,376.4z"/>
	<path d="M433.7,373.6c-1.4-0.1-1.6-0.9-2-1.7C433.1,371.7,433.1,372.7,433.7,373.6z"/>
	<path d="M444.4,389.2c-1.3,0.2-1.7,0-1.7-0.8C443.4,388,443.6,388.7,444.4,389.2z"/>
	<path d="M384.5,645c4-2.3,8.3-2.9,12.5-4c0.6-0.1,1.1-0.2,1.6,0.1s0.9,0.7,0.9,1.7c-3.5,2.7-8.1,2.8-12.4,3.9
		C386.1,647,385.2,646.6,384.5,645z"/>
	<path d="M647,453.5c-1.2-0.6-1.2-1.8-1.4-2.9c-1.1-5.9-0.2-11.8,0.7-17.6c0.9-5.7,0.5-11.2-0.2-16.8c-0.8-7.1-0.2-14,1.5-20.9
		c1.7-6.8,1-13.7,0.6-20.6c-0.1-1.4-0.7-2.8-1.8-3.9c1.4-3.2,2.8-6.2,4.3-9.6c0.9,2.4,0.9,2.4-2.5,8.5c2.2,3.2,3.1,6.8,2,10.8
		c-0.1,0.2,0,0.5,0,0.7c0.9,8.2-1.9,15.9-2.6,23.9c-0.6,7.1,0.2,14.3,0.5,21.4c0.2,3.9-0.9,7.6-1.1,11.4c-0.3,5.2-1.3,10.4,0.4,15.5
		L647,453.5z"/>
	<path d="M721.3,493.1c0.9,0.2,1,1,0.9,1.6c-0.4,3.7-1,7.4-2.9,10.7c-1.5,2.5-3.6,4-6.8,3.2c-1.8-0.5-4.1,0.8-5.4-1.5
		c0.7-1.2,1.5-0.7,2.4-0.4c4.1,1.1,6.5,0.1,8.1-3.8c1.1-2.5,1.6-5.2,2.4-7.8C720.2,494.3,720.2,493.3,721.3,493.1z"/>
	<path d="M703,392.4c-3.8-4-9.5-26-8.4-32.6C697.4,370.8,700.2,381.4,703,392.4z"/>
	<path d="M722.2,446.9c-3.1-3.7-6.2-7.4-9.2-10.9c-1.4,0.1-2.1,1.8-4.1,0.8c2.3-2.5,4.9-4.6,6.2-7.6c1.4-3,2.7-5.9,4.4-8.8
		c-0.8,5.1-2.6,9.9-5.5,14.1c2.8,4.2,6.4,7.6,8.8,11.9C722.6,446.6,722.4,446.7,722.2,446.9z"/>
	<path d="M726.4,389.7c-5-7.7-4.3-16.8-6-25.4c2.4,3.8,2.3,8.3,3.2,12.5C724.5,381.1,725,385.5,726.4,389.7z"/>
	<path d="M719.2,389.2c-1.7-9.8-1.9-19.7-3.6-29.5C718.2,369.3,719,379.2,719.2,389.2z"/>
	<path d="M647.2,453.4c1.1,1.9,0.7,4,0.4,5.9c-0.5,3.7-0.4,7.4,0.1,11.2c0.5,3.9,0.3,7.8-0.3,11.7c-1.3-9.5-1.7-19.1-0.4-28.6
		L647.2,453.4z"/>
	<path d="M697.8,580.4c-0.9-3-3.2-0.3-4.6-2.1c4.3-2.4,7.3-6.1,10-10.2C702.1,572.4,699.6,575.9,697.8,580.4z"/>
	<path d="M713.9,527.7c-1-0.3-1.3-0.8-1.4-1.3c-0.9-3-2-5.7-4.5-7.9c-1.6-1.4-2.3-4-0.4-7C709.8,517.1,713.3,521.7,713.9,527.7z"/>
	<path d="M654.9,392c-0.3-7.9-0.5-15.8,1.7-23.5c0.9,3.8-0.9,7.6-0.5,11.5C656.5,384,656.1,388.1,654.9,392z"/>
	<path d="M700.5,373c0.5-4.2-2.7-8.1-1.4-12.8C702.7,363.3,703.1,367.7,700.5,373z"/>
	<path d="M687,358.3c2.5,2.6,1.1,8.3-3.4,14.3C684.2,367.4,686.8,363.1,687,358.3z"/>
	<path d="M664.6,429c0.5,3.3,0.9,6.7,1.1,10.1c0.2,3.3,0.8,6.5,1.2,9.9C664.8,446.7,663.7,437,664.6,429z"/>
	<path d="M720.3,518.6c1.2,1.3,1,2.6-0.2,3.8c-1.4,1.4-3.4,1.3-5.9-0.4c1.3-0.6,2.8-0.2,3.7-1C719.1,520.4,717.9,518.3,720.3,518.6z
		"/>
	<path d="M712.8,371.1c-1.9-3.2-4.3-6.3-4.2-10.3C711,363.9,711.7,367.6,712.8,371.1z"/>
	<path d="M646.6,364.6c1.4-3.5,0.1-7.4,1.2-11.2C649.1,356,648.7,360.4,646.6,364.6z"/>
	<path d="M723.4,432.8c-0.9-3.4-1.8-6.9-2.6-10.3c0.2-0.1,0.5-0.1,0.7-0.2c2.8,3,1.2,7.1,2.6,10.4
		C723.8,432.8,723.6,432.8,723.4,432.8z"/>
	<path d="M685.1,463.2c-2.4-3.3-3.7-7.1-4.7-11.1c1.7,3.6,3.4,7.1,5.1,10.7c0,0.2,0.1,0.4,0.1,0.6
		C685.5,463.3,685.3,463.2,685.1,463.2z"/>
	<path d="M685.5,462.8c1.9,2.9,3.9,5.8,5.4,8.9c0,0.2,0.1,0.4,0.1,0.6c-0.2-0.1-0.4-0.1-0.6-0.2c-2.2-2.7-4.1-5.6-5.5-8.9
		C685.2,463,685.4,462.9,685.5,462.8z"/>
	<path d="M703.7,561.6c1.1,2.3,0.1,3.5-1.2,5.1C701.8,564.6,702.5,563.3,703.7,561.6z"/>
	<path d="M707.1,356.8c-2.4,0.4-4.8,0.7-7.7-0.6C702.3,355.9,704.6,356.7,707.1,356.8z"/>
	<path d="M702.9,627.7c-0.8-2.1,0.5-3.4,0.4-4.9C703.8,624.3,705.2,625.9,702.9,627.7z"/>
	<path d="M666.6,418c-0.4-2.1-0.1-4.3-0.4-6.5C667,413.6,666.8,415.8,666.6,418z"/>
	<path d="M708.3,545.5c0.6,1.9-0.4,2.4-1.4,3.7C706.6,547.3,707,546.4,708.3,545.5z"/>
	<path d="M690.9,352.7c0.2,1.3-0.4,2-1.1,2.7c-0.9-0.2-0.6-0.8-0.5-1.3C689.5,353.3,689.8,352.8,690.9,352.7z"/>
	<path d="M705.5,555.8c0.5,1.1,0.6,2.1-0.8,2.9C703.9,557.4,705.2,556.7,705.5,555.8z"/>
	<path d="M726.6,438.1c0.8,0.4,1.3,1.1,1.6,1.8C727.6,440.5,727.2,440,726.6,438.1z"/>
	<path d="M706,553.3c-1.3-0.9-0.1-1.3-0.2-2.2C706.9,552.2,706.6,552.7,706,553.3z"/>
	<path d="M692.1,473.9c0.7-0.1,0.8,0.6,1.1,1.1C692.3,475,692.1,474.5,692.1,473.9L692.1,473.9z"/>
	<path d="M692.2,473.9c-1-0.2-1.3-1-1.6-1.8c0.1-0.1,0.3-0.2,0.4-0.4C691.6,472.3,692.2,472.9,692.2,473.9L692.2,473.9z"/>
	<path d="M716.4,466.5c0.2,0.1,0.4,0.1,0.5,0.2c0.2,0.2,0.1,0.4-0.2,0.2C716.5,466.8,716.5,466.6,716.4,466.5z"/>
	<path d="M713.8,462.2c0.2,0.3,0.4,0.5,0.6,0.9C713.8,462.9,713.5,462.7,713.8,462.2z"/>
	<path d="M728.7,454.7c0.2,0.3,0.4,0.4,0.5,0.6C728.8,455.4,728.7,455.2,728.7,454.7z"/>
	<path d="M724.1,448.7c0.1,0.1,0.3,0.3,0.4,0.4C724.1,449.4,724.1,449,724.1,448.7z"/>
	<path d="M658.1,309.7c6.1-3.8,12.2-7.6,18.4-11.3c1.2-0.7,2.3-1.8,3.9-1.4c0.8,1.5-0.4,2-1.2,2.4c-4.4,2.3-8.4,5.3-13.3,6.8
		c-1.7,0.5-2.9,1.8-4.3,2.6C660.6,309.4,659.3,309.7,658.1,309.7L658.1,309.7z"/>
	<path d="M648.4,239.5c-2-6.2-2.8-12.6-2.7-19.2C647.6,226.6,647.9,233.1,648.4,239.5z"/>
	<path d="M634.9,281.8c0-3.2,1.6-5.3,2.4-7.8C638.8,277.1,638.2,279.4,634.9,281.8z"/>
	<path d="M632.8,244.9c-0.1-0.5-0.2-1.1-0.2-1.6c0-0.1,0.1-0.2,0.4-0.5c1.9,2.4,6,1.6,7.1,5.4C637.3,247.7,635.1,246.1,632.8,244.9
		L632.8,244.9z"/>
	<path d="M646.6,266.4c-3-2-4.7-4.1-5.8-6.9C642.6,259.9,645.3,263,646.6,266.4z"/>
	<path d="M669.7,299c-2.4,1.7-4.8,3.5-7.9,3.6C664.2,300.9,666.8,299.7,669.7,299z"/>
	<path d="M712,258.6c0.4-1.6,2.2-1.9,2.9-3.2c0.6-1-0.2-2.4,0.9-3.4C717.2,255.2,716.4,256.6,712,258.6L712,258.6z"/>
	<path d="M682.1,295.6c1.6-2,3.2-3.9,4.7-5.9c-0.1,3.1-2.3,4.6-4.1,6.4C682.5,296,682.3,295.8,682.1,295.6z"/>
	<path d="M685.7,272.6c-1.5,0.8-2.9,0.9-4.5-0.2C682.9,270.5,684.3,272.4,685.7,272.6z"/>
	<path d="M665.2,239.1c-0.8-2-0.5-3.3-0.1-5.1C666.3,235.8,666.3,237.1,665.2,239.1z"/>
	<path d="M704.3,250.9c1-1.3,2-2.6,3-4c0,2-0.8,3.5-2.4,4.5C704.7,251.2,704.5,251,704.3,250.9z"/>
	<path d="M676.4,295.5c1.8-1.2,3.1-2.1,4.6-3.1C679.8,295,679.8,295,676.4,295.5z"/>
	<path d="M649.8,267.7c1.4,0.7,2.7,1.5,2.9,4C651,270.5,650.3,269.1,649.8,267.7z"/>
	<path d="M649,204.5c1.1-0.7,1.5-2.3,3.5-2.1C651.7,203.9,651,205.3,649,204.5L649,204.5z"/>
	<path d="M646.8,207.9c0.2,1.3-0.4,2-1.2,2.7c-0.7-0.5-0.5-1.2-0.2-1.7C645.5,208.4,645.7,207.8,646.8,207.9z"/>
	<path d="M658,309.6c-0.9,1.2-2,1.8-4.1,1.8C655.4,310,656.6,309.4,658,309.6L658,309.6z"/>
	<path d="M637.9,272.2c-0.8-1.1-0.5-2,0.2-3.2C639,270.8,639,270.8,637.9,272.2z"/>
	<path d="M712,254.3c-0.3,1.8-1.1,2.3-2.7,2.4C709.8,255.5,710.5,254.9,712,254.3z"/>
	<path d="M641.5,258c-1.1-0.5-1.5-1.2-1-2.4C641.8,256,641.9,256.8,641.5,258z"/>
	<path d="M639.9,251.3c0.9,0.8,1.4,1.6,1,2.7c-0.9,0.2-1.1-0.4-1.3-1S639.2,251.9,639.9,251.3z"/>
	<path d="M698.3,254c1.4-0.5,2-0.4,2.5,0.4C699.8,255.4,699.3,254.7,698.3,254z"/>
	<path d="M692.6,283.8c-0.4,0.8-0.6,1.3-1.3,1.3C691.1,284.3,691.6,284,692.6,283.8z"/>
	<path d="M683.5,291.5c-0.5-1.2,0.1-1.5,0.8-1.8C685.1,290.9,683.7,290.9,683.5,291.5z"/>
	<path d="M642.3,247.4c0.8-1.4,1.4-0.5,2.3-0.3C643.8,248,643.2,247.8,642.3,247.4z"/>
	<path d="M700,263.6c-0.5,1-1.1,1.3-1.9,0.8C698.4,263.5,698.9,263.2,700,263.6z"/>
	<path d="M712,258.5c-0.5,0.4-0.4,1.3-1.2,1.5C710.2,258.7,711.4,258.8,712,258.5L712,258.5z"/>
	<path d="M706.1,257.9c-0.1,1.1-0.6,1.4-1.4,1.5C704.5,258.3,705.3,258.3,706.1,257.9z"/>
	<path d="M718.5,257c0.1-1,0.7-1.3,1.6-1.3C720,256.9,719.1,256.8,718.5,257z"/>
	<path d="M653,304.7c-0.1,0.1-0.3,0.3-0.4,0.3c-0.2,0-0.3-0.2-0.2-0.4c0-0.1,0.2-0.2,0.2-0.2C652.7,304.5,652.8,304.7,653,304.7z"/>
	<path d="M688.7,287.7c0-0.9,0.4-1.1,1-1.1C689.9,287.3,689.6,287.6,688.7,287.7z"/>
	<path d="M692.3,272.5c-0.2-0.1-0.4-0.2-0.5-0.2c0.1-0.2,0.1-0.5,0.2-0.5c0.1,0,0.4,0.1,0.5,0.2
		C692.5,272.1,692.4,272.3,692.3,272.5z"/>
	<path d="M680.8,667.3c2.3-2.5,4.1-3.1,6.1-1.9c3.1,1.7,1.7,4.4,1.5,6.9c-3,0.5-6,1.1-7.7-2.7c-1.5,1.2-2.7,2.7-4.7,2.4
		c-1.1-0.2-2.2-0.6-2.9-1.6c-1.3-1.8-1.1-4.1,0.7-5.4C676.1,663.4,678.5,664.1,680.8,667.3z"/>
	<path d="M675,511.9c-1.8-0.9-4.9-0.1-5.4-4c5.4,2.8,9.3-1,13.8-2.3c1.1-0.3,1.4-1.3,1.8-2.3c1-2.6,1.7-5.1,2.3-7.8
		c0.3-1.3,0.2-3,2.2-4.1c-0.5,4.9-1.7,9.2-3.5,13.4C684.2,509.6,678.7,508.9,675,511.9z"/>
	<path d="M661.1,583.5c1.5-6.9,2.3-13.9,3.6-20.8C666.3,570,664.4,581.4,661.1,583.5z"/>
	<path d="M671.2,671.1c-2,0.4-1.9-2-3-2.1c-1.7-0.2-0.8,2-2.5,1.8c-0.8-2.3-0.3-4.6,0-6.8c1.4-0.9,2.8-0.4,4.1-0.2
		c2.1,0.4,2.8,2.2,1.7,3.5C670.4,668.7,671.1,669.9,671.2,671.1z"/>
	<path d="M665,559.3c0.2-3.6,0.1-7.3,0.5-10.8C667.9,552.2,665.9,555.7,665,559.3z"/>
	<path d="M701.2,665.4c2-2.8,5.1-3.6,7.8-2.3C706.9,665.5,703.6,664,701.2,665.4z"/>
	<path d="M666.6,531.4c-0.5-2.9-0.5-2.9,1-4.9C668.2,528.6,668,529.7,666.6,531.4z"/>
	<path d="M666.4,538.4c1.4,1.9-0.2,3.5-0.2,5.9C664,541.8,666,540.2,666.4,538.4z"/>
	<path d="M670.5,614.2c0.8,1.7,0.5,3,0.3,4.6C669.4,617.2,669.5,615.9,670.5,614.2z"/>
	<path d="M671.2,622.5c0.6,1.4,0.5,2.4-0.7,3.2C670.1,624.6,670.3,623.6,671.2,622.5z"/>
	<path d="M682.2,520.4c1.6,0,2.3,0.5,3,1.5C683.8,522.5,683,522,682.2,520.4z"/>
	<path d="M714.9,298.6c3.6-8.2-0.3-16.7,1.1-25c1.2-0.2,1.3,0.7,1.3,1.4c0,1.5-0.2,2.9-0.2,4.4c-0.1,2.9-0.4,5.7,0.3,8.7
		C718.2,291.8,716.9,295.4,714.9,298.6z"/>
	<path d="M682.3,325.2c-7.1-1.5-14.3-2.6-21.1-5.3c7.1,1.5,14.2,3.1,21.4,4.6C682.5,324.7,682.4,324.9,682.3,325.2z"/>
	<path d="M681.9,331.7c4.3,0.5,8.8,0.2,13,1.4C690.6,333.1,686.2,332.9,681.9,331.7z"/>
	<path d="M715.2,309.1c0.2,0.1,0.5,0.2,0.6,0.3c1.1,3.7-1.4,7.2-0.2,11C713.9,316.6,714.7,312.8,715.2,309.1L715.2,309.1z"/>
	<path d="M677.8,319.2c-4-0.2-7.7-1.4-11.2-3.2C670.4,316.4,674.1,317.6,677.8,319.2L677.8,319.2z"/>
	<path d="M685.7,342.4c2.1,1.1,3.6,2.8,4.9,4.7C688,346.4,687,344.2,685.7,342.4z"/>
	<path d="M715.5,324.4c0.5,1.9,0.5,3.8-0.7,5.5C715,328,715.2,326.2,715.5,324.4z"/>
	<path d="M715.2,309c-0.9-1.7-0.5-3.4-0.2-5.2C715.8,305.5,715.5,307.3,715.2,309L715.2,309z"/>
	<path d="M719.1,338.2c-0.8-0.1-1.6-0.2-2.5-0.3C717.6,337.8,718.4,337.5,719.1,338.2z"/>
	<path d="M694.6,325.7c-0.9,0.6-1.7,0.2-2.6-0.1C692.9,325.2,693.7,325.2,694.6,325.7z"/>
	<path d="M715.7,349.1c0.4,0.6,0.4,1.1-0.5,1.3C714.8,349.7,715.1,349.4,715.7,349.1z"/>
	<path d="M677.7,319.2c0.5,0,1.1,0,2.1,0.1C678.7,319.8,678.2,319.6,677.7,319.2L677.7,319.2z"/>
	<path d="M705.9,135.7c4-5,11-5.6,15.1-1.5C715.8,135.4,710.4,131.1,705.9,135.7z"/>
	<path d="M709.1,139.3c2.3-3.4,6.1-1.5,8.9-3.1c0,1.1,0,2.1,0,3.2c-0.8,0.8-2.8,0.3-2.4,2.8C713.6,140,711.1,140.9,709.1,139.3z"/>
	<path d="M705.4,212.5c-4.3-1.5-7.1-4.1-10-6.2c-3.2-2.3-7-2.3-10.5-3.4C689.2,201.3,702,207.3,705.4,212.5z"/>
	<path d="M701.8,200.9c-0.2-5.1-2.8-9.5-3.2-14.5C701.3,188.9,703.4,198.1,701.8,200.9z"/>
	<path d="M686.9,198.5c-1.2-3.2-3.3-5.9-2.2-9.5C685.8,191.9,688.6,194.4,686.9,198.5z"/>
	<path d="M719.4,152.9c-0.2-1-0.3-1.6,0.3-2.1c1.2-0.3,1.3,1.3,2.4,1.2c1.2-0.6,2.4-2.3,4-0.3C724.2,154.4,721.8,153.6,719.4,152.9z
		"/>
	<path d="M710.6,219.6c-1.8-1-2.2-2.7-2.3-4.5C710.1,216.1,710.7,217.7,710.6,219.6L710.6,219.6z"/>
	<path d="M679.3,180.3c1.6,0.6,2.3,1.8,2.5,3.9C680.3,183,679.7,181.7,679.3,180.3z"/>
	<path d="M692.1,172.7c1.4,1.1,2.2,1.8,2.1,3.3C692.7,175.6,692.5,174.5,692.1,172.7z"/>
	<path d="M710.5,219.7c1.5,0.8,1.5,0.8,1.2,3.3C710.6,222,710.6,220.8,710.5,219.7L710.5,219.7z"/>
	<path d="M698.1,183.6c-1-0.3-1.5-0.9-1.2-2C697.8,182.1,698.3,182.6,698.1,183.6z"/>
	<path d="M713.1,225.6c1,0.1,1,0.7,0.6,1.4C712.7,226.9,712.4,226.4,713.1,225.6z"/>
	<path d="M701.6,173.6c0.6-0.4,0.9-0.2,1.1,0.2c0.1,0.1-0.1,0.5-0.2,0.5C702,174.5,701.7,174.3,701.6,173.6z"/>
	<path d="M695.7,178.5c0.8,0.3,1,0.7,0.8,1.5C695.6,180,695.2,179.7,695.7,178.5z"/>
	<path d="M723.5,640.9c-3.5,0.9-7,1.8-10.5,2.6c-1.3,0.3-2.9,0.8-3.8-0.9c0.1-1.2,1.1-1.4,1.9-1.7c3.3-1.2,6.7-2.1,10.1-2.7
		C723.8,637.6,724.2,638.2,723.5,640.9L723.5,640.9z"/>
	<path d="M673.9,266.2c2.3-0.4,3.7,0.6,5,2C677.2,268,675.2,268.6,673.9,266.2z"/>
	<path fill="#FFFFFF" d="M353.4,668.5c1.4,0.3,2.2,1,2.1,2.5c-0.1,1.3-0.8,2.1-2.1,2.1c-1.4,0-2.3-0.9-2.4-2.3
		C351,669.4,352,668.7,353.4,668.5z"/>
	<path fill="#FFFFFF" d="M364.1,671.9c-0.9,0.3-3.2-0.8-2.1,1.8c-2.1-0.2-2.6-1.2-2.4-2.8c0.1-1.1,0.9-1.6,1.9-1.7
		C363.1,669.2,364,670,364.1,671.9z"/>
	<path fill="#FFFFFF" d="M344.1,668.6c1.2-1,2.1-0.6,2.9,0C345.8,670.2,345.8,670.2,344.1,668.6z"/>
	<path fill="#FFFFFF" d="M676.3,670.5c-1.4-0.2-2.3-1-2.2-2.4c0-1.5,1-2.3,2.4-2.2c1.2,0.1,2.1,0.9,2,2.2
		C678.6,669.5,677.8,670.3,676.3,670.5z"/>
	<path fill="#FFFFFF" d="M687.2,669c-1.9,0.4-1.9,0.4-2.4,2c-1.8-0.1-2.2-1.2-2-2.8c0.1-1.1,0.9-1.6,1.9-1.7
		C686.2,666.5,687.2,667.3,687.2,669z"/>
	<path fill="#FFFFFF" d="M667.2,665.7c1.3-0.7,2.2-0.5,2.9,0.4C668.6,667.5,668.6,667.5,667.2,665.7z"/>
</g>
</svg>
