<?xml version="1.0" encoding="utf-8"?>
<!-- Generator: Adobe Illustrator 19.1.0, SVG Export Plug-In . SVG Version: 6.00 Build 0)  -->
<svg version="1.2" baseProfile="tiny" id="Layer_2" xmlns="http://www.w3.org/2000/svg" xmlns:xlink="http://www.w3.org/1999/xlink"
	 x="0px" y="0px" width="900px" height="600px" viewBox="144 97 900 600" xml:space="preserve">
<g>
	<path d="M772.1,391.1c-1.9-1.2-2.4-3.4-4-4.9c-1.3-1.2-2.7-2.3-4.2-3.2c-7.9-4.7-16.9-6.2-25.6-8.4c-0.8-0.2-1.7,0-2.5,0.1
		c-0.7,0-1.4,0.1-2.3-0.5c2.4-2,5-3.1,7.7-3.7c6.7-1.7,12.5-5.1,18.4-8.5c3.4-1.9,6.2-4.3,8.9-7c2.7-2.6,6.5-3.6,9-6.3
		c-4.8-7.3-9-14.8-9.2-23.8c0-0.8,0-1.5-0.5-2.1c-2.5-3-2.1-6.5-1.9-10c1.1,0.4,1.2,1.3,1.1,2.1c-0.3,2.7,0.8,5,2.3,7.1
		c1,1.4,1.6,3,1.7,4.8c0.5,7.8,4.1,14.4,8.4,21c1.2-0.5,2.3-1,3.4-1.5c0-3.2-3.4-5-3.1-8.3c1.8,2.4,4.4,4.1,5,7.1
		c4.7,0.4,9.4-1,13.9,0.6c-0.5,1.4-1.3,1-2,1.1c-2,0.1-4,0.2-6.1,0.1c-5.1-0.1-9.4,1.7-13.4,5c-7.2,6.1-14.7,11.8-23.2,16.1
		c-4.2,2.1-8.5,3.9-13.1,5c2.7,1.4,5.7,1.8,8.6,2.4c11.1,2.5,19.9,8.6,27.9,16.4c3.5,3.4,4.4,7.1,4.2,11.7
		c-0.3,6.4-1.1,12.6-2.2,18.8c0,0.3,0.1,0.6,0.2,1c2.1-0.5,3.3-1.9,4.3-3.6c5.3-8.8,12.1-16.4,19.5-23.5
		c-5.7,7.6-12.6,14.3-17.4,23.2c4.8-2.6,9.7-4.1,14.3-6.2c3.9-1.8,8-3.2,12-5.1c3.9-1.8,8.1-0.9,12.3-0.6c1.9,0.1,3.8,0.3,6.5,0.5
		c-3.8-2.9-5.5-6.5-7.2-10.3c-1.7,0.8-3.2,1.6-4.7,2.4c1-1.9,3-2.5,4.5-3.7c0.5-1,0.2-2.1,0.2-3.1c0.2-3.4,1.2-6.4,3.4-9.1
		c4.8-5.9,10.5-10.5,17.2-13.9c1.4-0.7,1.4-0.7,3.1-0.3c0.2,0.9-0.5,1.1-1,1.3c-4,2.2-7.7,4.9-11.4,7.6c-0.3,0.2-0.7,0.3-0.8,0.5
		c-1.8,4.9-6.8,7.5-8.3,12.6c-0.6,2-0.9,3.8-0.1,5.9c1.5,3.8,4.1,6.7,7.4,9c2.5,1.8,5.5,1.3,8.3,0.4c5.3-1.6,10.1-4.9,15.8-5.1
		c0.3-1.4-1.1-2.2-0.7-3.6c1.5,0.5,1,2.5,3.1,2.9c4.5-1.1,8.8-3.4,11.7-8c1.5-2.3,1.4-4.7,1.4-7.3c0-3.3,0-6.6-0.4-9.8
		c-0.1-0.9-0.3-1.6-1.4-1.6c0.2-5.6,2.4-11,1-16.6c-0.6-0.6-1.3,0.3-1.8-0.3c-0.1-1,1.1-0.8,1.5-1.7c0-1.8-0.7-3.8-1.4-5.6
		c-2-5.3-2.3-10.8-2.4-16.3c0-4.8-0.5-9.6-2.1-14.1c-1.7-4.8-1.4-9.9-3.2-14.6c-1.6-4.4-2.9-8.9-3.4-13.5
		c-0.7-5.9-0.5-11.8,0.6-17.7c0.4-2,2.3-2.7,3.7-4.5c-6.3-0.6-11.7-2.9-17-6.5c0.5,1.5,0.8,2.5,1.1,3.4l0.1-0.1
		c-0.9,0.4-1.7-0.2-1.7-0.8c-0.2-1.8-1.7-2.5-2.9-3.6c0.7-3.1,0.1-6.7,3.7-8.6c-2.6-0.5-3.3,0.8-3.4,3c0,1.6-2.5,2.6-0.9,4.7
		c-2.1-0.8-4.3,0.5-6.1-1.2c5.7-1.5,6-1.7,4.6-5.2c-1.7,0.4-3.3,1.2-5.4,1c-0.6,3.3-1.6,6.4-1.5,9.3c3.4,5.2,7.7,9.5,9.2,15.5
		c0.9,3.8,1.4,7.5,0.7,11.3c-1,5.3-2.3,10.5-0.4,16c0.7,2.1,0.6,4.6,0.7,7c0.2,4.6,0.5,9.2,2,13.5c2.1,6.3,1.5,12.8,1.9,19.2
		c0.3,4.3,0.3,8.7,1.9,12.9c0.4,1,0.1,2.1-0.1,3.2c-0.8,5.1-0.8,10.1,1.6,14.9c0.8,1.5,1.4,3.1,0.9,4.9c-1.1-2.7-3.5-4.8-3.7-7.8
		c-0.2-3.8-1-7.5-0.5-11.3c0.7-5.3-1-8.7-5.8-10.9c-3-1.4-6.2-2.4-9.4-2.8c-2.1-0.3-4.2-0.7-5.8-1.5c-1-0.3-1.4,0.6-2,0.6
		c-2.9,0-5.9,0.3-9.5,0.8c2.7-2.1,5.3-1.9,7.7-2.4c-7.4-2.1-15.1-0.7-22.8-1.9c0.9-1.5,2.2-0.8,3.1-1.6c-0.9-3.9-2.2-7.8-4.7-11.2
		c-2.2-2.9-3.5-6.3-5.7-9.2c-0.4-0.6-0.9-1.2-0.7-2l-0.1,0.1c1.8,0.6,3.2,1.9,4.1,3.4c3.5,6,8.2,11.5,8.3,19.4c3.2,0,6.3,0,9.3,0
		c4.9,0,9.5,1,13.9,2.9c0.6,0.3,1.2,0.5,1.8,0.4c6.1-0.8,11.2,1.5,16.2,4.5c0.1,0,0.2,0,0.5,0c-0.3-3.4-0.8-6.7-0.9-10
		c-0.1-2.5,0.7-5.1-0.2-7.6c-3-8.4-3-17.3-4.3-25.9c-0.9-5.8-0.1-11.7,0.8-17.4c1.1-6.9-0.2-13.1-4.7-18.5c-2.2-2.7-3.5-6-5.5-9.2
		c-9.7-1.7-19.7-3.4-29.6-5.1c-0.6-0.1-1.4-0.2-1.9,0.1c-2.2,1.7-5,1.6-7.5,2.4c-4,1.3-6,4.3-7.1,7.9c-0.9,2.9-0.9,6.1-1.6,9.1
		c-1.2,5.6,0.6,10.7,1.7,16c1.1,5.6,2.2,11.3,3.3,16.9c0.2,1.2,0.4,2.5,0.1,3.8c-1.8,0.1-2.1-1.2-2.2-2.5c-1-9.3-2.9-18.5-4.7-27.6
		c-0.8-3.9-0.6-8.2,1.2-12.2c0.2-0.4,0.2-0.8,0.3-1.2c0.6-6.8,4.3-10.8,10.8-12.5c0.6-0.2,1.2-0.4,1.9-0.6c-0.5-1.2-1.8-0.7-2.7-1.7
		c-0.6-2.6,0.3-5.7-0.7-8.7c-1.9,0.3-4.2-2.7-6.1,0.4c0.5,1.5,2.2,1.1,2.9,2.4c-1,0.9-2,1.8-3.1,2.8c-3.6-1-6.5,1.1-9.4,2.5
		c-1-0.3,0-1.1-0.4-1.6c-0.2,0-0.4-0.1-0.6,0c-3.5,2.3-5,5.7-5.2,9.7c-0.2,3.3-0.5,6.6-1.5,9.7c-2.6,8.3-3.4,16.8-4.2,25.4
		c-0.3,3,0.4,6.1,0.7,9.2c0.1,0.7,0.5,1.4-0.2,2.1c-1.3-0.4-1.2-1.7-1.4-2.6c-0.8-5.5-1.5-11-0.2-16.5c1.5-6.4,1.8-13.1,3.7-19.4
		c0.9-3.2,1.5-6.3,1.6-9.7c0.2-3.1,1.6-6,4.6-8.5c-10.8-1.9-21-3.6-31.4-5.4c-1.7,4.4-4.7,7.8-7.6,11.3c-2,2.4-4.3,4.1-7.1,5.2
		c-6,2.3-11.9,4.5-18.5,3.6c-6.1-0.9-10.9-3.7-14.5-8.8c-4.2-6.1-6.1-12.8-5.6-20.2c-3.5-1-6.9-1.3-10.2-1.9
		c-0.7-0.2-1.5-0.3-2.2-0.4c-2.3-0.3-4.3-1.1-4.5-3.7c-0.2-2.4,1.5-3.8,3.4-4.8c4.5,1.5,9,1.7,13.6,2.5c2.5-4.3,5-8.4,7.4-12.6
		c2.7-4.6,7.4-6.6,12.1-7.6c5.7-1.2,11.6-1.6,17.3,0.3c11.8,4,19.3,16.6,16.9,28.2c11.4,1.8,22.8,3.6,34.2,5.3
		c1.2-0.7,2.3-1.5,3.5-2.1c1.7-0.9,3.5-1.3,5.5-0.7c2.1,0.7,4.5,0.3,6.6,0.9c2.6,0.8,5.6,1.7,6.1,5.2c9.9,1.5,19.6,3,29.2,4.5
		c2.3,0.4,4.6,0.7,7,0.9c2.6,0.3,5.1-0.7,7.6-1.5c0.7-0.2,1.3-0.7,2.1-0.7c6.8,0.5,13.8,0.4,19,6c0.9,1,2,1.1,3.2,1.2
		c16,2.5,31.9,5,47.9,7.4c3.8,0.6,7.6,1.2,11.6,1.8c1.4-3.7,2.5-7.7,4.7-11c5.5-8.1,10.8-16.7,21.3-18.8c7.4-1.5,15.1-2,20.8,4.9
		c1.4,1.6,2.1,3.7,3.8,5.1c0.8,0.4,1.4-0.3,2-0.5c2.9-0.6,4.7,0,6,2.3c1.5,2.6,1.2,4.9-0.8,7c-0.7,0.8-1.6,1.4-2.4,2.1
		c-0.9,0.8-0.9,0.8-0.6,2.8c2.3-0.7,4.2-2.1,6.1-3.3c2.9-1.8,3.9-1.5,5,1.6c0.9,2.6,1.9,5.2,2.7,7.8c1.2,3.8-0.1,6-4.1,6.5
		c-3.6,0.4-7.3,0.6-11,1.8c4.2,0.7,8.5,1.4,12.7,2.1c14.9,2.3,29.8,4.6,44.8,6.9c4.5,0.7,6.2,2.8,6.2,7.6c0,4.9-2.6,7.1-7.4,6.3
		c-1-0.2-2.1-0.3-3.1-0.5c-17.2-2.9-34.4-5.9-51.6-8.8c-0.3-0.1-0.6,0-1.2-0.1c-1,6.1-3.5,11.6-7.4,16.3c-4.7,5.8-10.9,9.4-18,11.4
		c-2,0.6-3.7-0.7-5.5-1.1c-4.3-0.9-8.6-2-12.4-4.5c-4.7-3.1-7.4-7.5-9.1-12.7c-1.9-5.7-3-11.5-3.2-17.5c0-0.5-0.2-1-0.3-1.8
		c-19.8-3.4-39.6-6.8-59.4-10.2c-1.4,1.4-2.8,2.7-4.2,3.9c0.2,3.9-0.7,7.7-0.7,11.5c0.1,7.1,1.8,13.8,3.6,20.6
		c1.9,7.3,3.4,14.7,5.1,22c0.6,2.4-0.1,4.8,0.2,7.3c0.3,1.9,1,2.7,2.9,2.2c1.2-0.6,0.6-2.7,2.6-2.6c1,1.8-0.9,4.7,2.1,5.9
		c0.7-1-0.3-3.1,1.5-3.5c1.8,0.5-0.7,3.7,2.4,3c0,1.2,0,2.3,0,3.1c4.3,2.9,5.4,8,9.1,11.3c-0.8,2.6,0.5,5.3,1,7.9
		c0.5,2.5-0.1,4.6-0.8,6.7c-0.8,2.6-2.5,5.1,2.1,6.2c-1.9,2-3.9,3-5.3,5c3.3,0.9,6.5,1.3,9.6,2.5c2.2,0.9,3.5,2.3,3.2,4.8
		c-0.3,2.6,0.6,5.1,0.6,7.6c0,3.3-0.6,4.2-3.8,5.4c-4.4,1.7-8.9,3.5-13.2,5.1c-0.6,20.9-0.3,41.5,0.6,61.7
		c-10.9,6.4-14.8,7.5-22,2.2c-0.1-19-2.9-37.8-2.3-56.8c-1.2-0.5-1.9-0.1-2.5,0.2c-13.3,7.5-28.1,11.4-42.3,16.5
		c-4.8,1.7-9.5,3.7-14.3,5.5c-4.7,1.7-9.4,3.4-14.6,3.8c-5.4,0.5-10.7,2.8-15.8,4.9c-3.5,1.5-7.1,2.8-10.9,3.5
		c-1.3,0.2-2.8,0.5-3.9,1.2c-4.8,2.9-10.3,3.8-15.5,5.6c-4.7,1.6-9.3,3.5-14,5.3c1.8,11.1,0,21.9-0.8,32.8
		c-0.8,9.8-1.3,19.7-0.8,29.9c3.6,0.9,5,3.3,5.2,7.1c0.2,3.6,1.7,7,3.8,10c1,1.5,1.9,3.1,2.6,4.7c2.6,6.1,1.4,7.4-3.3,11.5
		c-2.7,2.4-5.5,4.9-9.5,5.5c-1.6,0.2-3.3,1.5-3.5,3.7c-0.1,0.6-0.4,1.2-0.8,1.7c-5.9,9.2-13.7,15.5-25,16.6
		c-5.7,0.5-10.9-1.1-16.2-2.6c-1.6-0.5-2.8-1.7-3.1-4.2c6.3,4.7,13,5.2,19.8,4.4c7.8-0.9,14.3-4.5,19.2-10.7
		c1.8-2.3,3.9-4.4,4.4-7.6c0.3-1.8,2-2.8,3.8-3c3.3-0.5,6-1.9,8-4.7c1-1.5,3.1-1.3,4.3-3c1.1-1.6,1.4-3,0.9-4.6
		c-0.3-0.9-0.6-1.8-1-2.7c-2-4.1-5.2-7.5-5.4-12.4c-0.2,0-0.5,0.1-0.7,0.1c0,0.6,0,1.3-0.1,1.9c-0.4,3.9-1.8,4.9-5.7,4.4
		c-1.1-0.2-2.2-0.7-3.2-0.2c-1.8-1-1.7-2.6-1.9-4.1c-2.9,0-5.4-0.6-7.9-1.7c-2.5-1.1-3.1-4.3-6.3-5.1c-0.5,3.1-1,6-2.1,8.8
		c4.1,0.7,8.3,0.5,11.7,3.4c-1,0.9-1.9,1.4-2.3,2.3c-1.7-0.1-3.2-0.3-4.8-0.4c-0.2-0.1-0.4-0.2-0.5-0.2c0.2,0.1,0.3,0.2,0.5,0.2
		c1.4,1.4,4.1,0.5,4.9,2.7c-0.6,1.3-1.6,0.9-2.5,0.8c-2.6-0.4-5.2-0.8-7.9-1.3c-1.4-0.3-2.6-0.3-2.7,1.6c3.5,1.1,7.3,0.9,10.7,2.6
		c-0.3,2-1.6,2.1-2.9,2.1c-2.5,0-4.9-0.5-7.3-1c-1-0.2-2.1-0.5-3.6,0.1c3.9,1.4,7.8,1.3,11.7,2.9c-3.4,2.5-7.4,3.7-7.7,8.5
		c-3.4,0.9-6.6,0.1-9.9-1.6c-1.8,3.1-5.2,4.6-7.6,7.1c-2.4,2.6-3.3,6.1-5,9.1c-0.6-2.9,0.3-5.3,1.7-7.7c1-1.7,2.3-3.4,3.9-4.6
		c3.7-2.6,5.6-6.5,8.1-10c1.7-2.4,2.8-5.2,4.6-7.5c1.5-2,2-4.4,1.2-6c3.8-2.4,4.6-6.4,5.3-10.3c0.7-3.6,0.4-3.6,3.6-4.2
		c1.6-8-0.5-15.6-1.7-23.4c-0.2-1.5-1.2-2.9-2.1-4.7c-1.2,2.2-1.5,4.4-3.1,6.4c0.3-3,1.8-5.3,2.3-7.9c-1.2-2.4-2.4-4.8-3.9-7.8
		c-1.5,3.9-2.9,7.4-4.1,10.9c-1.2,3.6-3.4,7-2.9,11.2c0.1,1.3-0.8,2.8-1.4,4.2c-2.3,5.5-4.5,11-6.4,16.6c0.6,1.7,2.9,1.6,3.3,3.5
		c-1.9,0.9-3.5-1.8-5.8,0.1c0.7-2.2-1-2.9-1.1-4.2c0.7-1.2,1.4,0.1,2.2-0.3c0.8-2.4,1.6-5,2.3-7.6c3.3-11.5,7.3-22.6,12-33.6
		c0.7-1.7,0.7-3.1-0.1-4.8c-3.8-7.6-6.2-15.6-5.4-24.2c-2.9-1.5-5.9-2.4-8-4.4c-4.4-4.3-9.7-7-15.2-9.5c-3.5-1.6-5.7-6.4-5.2-10.2
		c-3.5-3.1-7-6.3-7.9-11.4c-0.8,1.7,0.1,3,0.6,4.2c3.1,7,4.1,14.4,4,22.1c0,3.6-0.7,7-2.3,10.1c-0.5,1-1.1,1.9-0.7,3
		c1.4,4,1,8.2,1.3,12.3c0.3,4.9,0.7,9.7,2.1,14.5c2.7,0.4,4,2.2,4.7,4.6c0.6,2.1,0.5,4.4,1.4,6.5c1.1,2.7,2.3,5.2,4.4,7.3
		c0.4,0.4,0.9,1,0.8,1.3c-0.8,2.2,1.1,3.2,2,4.6c-6.7,8.2-18.9,14-29.4,7.4c-3.7,1.8-7.5,3.6-10.5,6.8c-1.3,1.4-2.8,2.2-4.6,2.7
		c-5.8,1.6-11.7,1.9-17.7,0.7c-3-0.6-6.1-0.4-9.1-1.4c-4.1-1.3-6.6-4.1-7.6-8.2c-0.5-1.9,0.1-3.4,1.5-5.1c4-4.9,9.8-6,15.1-8.4
		c5.7-2.5,10.6-6.1,14.8-10.7c2.1-2.3,4.7-3.6,7.2-5.9c0-1.3,1.3-2.8,1.2-4.6c0.5-0.8,1.5-0.4,1.9-0.9c0.3-1,0.1-1.8-0.1-2.6
		c-1.5-6.8-3-13.6-5.8-19.9c-3.1-7.1-4.3-14.6-6.1-22c-1.2-5.2-2.8-10.2-4.3-15.3c-0.8-2.8-0.7-5.6-0.5-8.5c0.2-2.5,0.6-5-0.8-7.4
		c-0.7-1.2-0.9-2.8,0-4.3c0.3-0.5,0.4-1.2,0.4-1.8c0.5-5.8,3.9-9,8.7-12.1c6.7-4.2,14.4-5.4,21.5-8.3c5.9-2.3,12.3-3.4,18.4-5
		c5.3-1.5,10.7-1.6,16-2.5c2-0.3,4-0.4,6-0.2c4.3,0.4,8.6,0.7,12.9-0.6c-1,1.8-2.8,2-4.4,2.1c-2.1,0.2-4.2,0.2-6.4,0.1
		c-13.5-0.4-26.3,3-39.4,7c7.7,6.4,9.3,15,9.8,23.9c0.3,4.4,1.4,8.3,4.3,11.7c4.4,5,6.3,11.2,7.3,17.7c0.1,0.7,0.2,1.5,0.4,2.2
		c0,0.2,0.2,0.4,0.4,0.7c3.7-1.7,7.1-4,11.4-5c-2-4.6-1.3-9-0.4-13.4c0.8-3.8,2.3-7,5.9-9.3c5.6-3.6,10.1-8.8,16.4-11.5
		c1.9-0.8,3.7-2.1,5.8-3.4c-8.9-6.4-19-10-28.5-14.7c10.9,2.5,20.9,6.9,29.9,14c1.6-0.3,3-1.2,4.7-2.1c-3.8-2.9-6.3-6.4-6.7-11.2
		c2.5,3.5,5,7.1,7.6,10.6c1.2-0.3,2.4-0.8,3.5-1.5l-0.1,0.1c7.6-2.7,15.5-3.7,23.4-5.4c0.1,1.7-0.7,1.4-1.2,1.6
		c-9.4,2.3-18.8,4.3-27.7,8.2c-3.4,1.5-6.4,4.1-9.5,6.2c0.1,1.1,1,1.1,1.6,1.3c11.4,4.4,16.9,13.7,20,24.8c1.3,4.6,1.9,9.3,0.6,13.8
		c-0.9,3-1.8,6.1-3.1,9.1c-0.4,0.9-1,1.7,0.2,2.7c8-6.1,18.5-8.6,25.2-17h-0.1c3.3-3.3,7.5-5.1,11.5-7.2c2.9-1.6,6-2.8,8.7-4.6
		c3.2-2.1,4.7-5.7,7.6-8.5c-1.9-0.5-2.6,1-4.1,1c0.3-1.5,1.7-1.8,2.5-2.6c0.9-0.8,2.2-1.3,2-2.6c-0.2-2.6,1.9-5.3-0.1-8
		c-0.6-0.8,0.2-1.8,0.5-2.8c-2-1.4-1.6-3.3-1.4-5.1c0.5-0.7,1.3,0.2,1.8-0.6c0-1.1-0.6-1.9-1.2-3.1c-0.9,0.9-1.7,2.1-3.1,1.1
		c0.5-2.4-2.2-3.2-2.6-5.2c0.2-0.2,0.2-0.3,0.1-0.5C772.6,390.9,772.4,390.8,772.1,391.1z"/>
	<path d="M274.7,394.5c7.6-2.7,15.5-3.7,23.4-5.4c0.1,1.7-0.7,1.4-1.2,1.5c-9.4,2.3-18.8,4.3-27.7,8.2c-3.4,1.5-6.4,4.1-9.7,6.4
		c1.2,1.1,2.6,1.6,3.9,2.1c6.6,3,11.3,7.9,14.3,14.3c3.5,7.3,6,14.9,4.2,23.1c-0.7,3.1-1.9,6.3-3.2,9.4c-0.4,0.9-1,1.7,0.3,2.7
		c8-6.1,18.5-8.6,25.2-17h-0.1c3.3-3.3,7.5-5.1,11.5-7.2c3-1.6,6.2-2.9,9-4.8c3-2,4.4-5.6,7.3-8.1c-1.9-0.9-2.6,0.9-4.1,0.8
		c0.3-1.4,1.7-1.8,2.5-2.5c0.9-0.8,2.2-1.3,2-2.7c-0.2-2.7,1.9-5.3-0.1-8c-0.6-0.8,0.4-1.8,0.4-2.9c-1.8-1.3-1.4-3.2-1.2-5.1
		c0.5-0.6,1.3,0.2,1.8-0.5c-0.1-1-0.5-2-1.3-3c-0.8,0.8-1.6,2-3,1.1c0.4-2.4-2.1-3.3-2.7-5.1c-0.1-0.2-0.2-0.4-0.4-0.5
		c-0.4-0.9-2.1-1-1.9-3c-6.2-7-15.3-9.6-24.5-11.8c-4-0.9-7.8-2.5-12.1-2.1c2.3-2.3,5.1-3.4,8-4.1c7.3-1.8,13.6-5.5,19.6-9.6
		c0.7-0.5,1.6-0.8,1.8-1.7c1-4.6,4.5-7.6,7.2-11.1c1.8-2.4,3.4-4.8,5-7.8c-10.3-3.4-20.5-6.7-30.8-10c-2.4,4.8-6.4,8.1-10.2,11.7
		c-1.8,1.7-4.1,2.7-6.5,3.2c-6.2,1.5-12.4,3-18.8,1.2c-6-1.7-10.5-5.1-13.1-10.7c-4-8.8-3.9-9.3-3.1-21.9c-3.3-1.6-6.9-2.3-10.4-3.6
		c-0.7-0.3-1.4-0.4-2.1-0.7c-3.8-1.5-4.3-4.7-1.3-7.4c0.7-0.6,1.4-0.9,2.2-1.2c4.1,2.2,8.6,2.9,13,4.5c2.8-3.5,5.7-6.7,8-10.3
		c3.3-5.1,8.3-7,13.7-7.7c5.5-0.8,11.1-0.1,16.3,2c11.4,4.8,18.5,18.7,14.3,31.9c12.1,3.7,24.3,7.4,36.6,11.2c3.2-3.9,8-3,11.8-2.3
		c3.7,0.7,8,3,7.9,8.3c10.4,3.2,20.4,6.3,30.4,9.3c2.9,0.9,5.5-1,8.3-1.1c3.7-0.2,7.6-1.4,11.1,1.2c0.7,0.1,1.1-0.9,1.7-0.7
		c5,2,9.5-2.8,14.6-1.1c-1.6-1.8-1.9-3.8-1.4-5.9c0.2-1.1,1-1.3,1.9-1.2c0.4-0.6-0.9-1.1,0.3-1.8c0.9,0,1.9,1.5,2.8,0.8
		c1.4-0.8,0.8-2.7,2.6-2.8c1.1,0.8,0.3,2.1,0.4,3.2c0.1,1.3,0.5,2.3,1.9,2.8c0.5-1.2-0.1-2.9,1.4-3.6c1.6,0.5,0.4,2,1,2.8
		c0.5,0.2,0.9,0.3,1.5,0.5c0,1.1,0,2.1,0,2.8c4.4,2.8,5.3,8,9,11.2c-0.4,3.6,1.4,6.9,1.1,10.6c10.9,3.3,21.7,6.6,32.7,10
		c1.8-3.8,3.4-7.7,6.1-10.7c6.4-7.3,12.7-15,23.3-16.4c4.6-0.6,9.2,0.1,13.4,1.6c4.3,1.5,6.9,5.4,8.7,9.7c0.3,0.8,0.8,1.5,1.1,2.1
		c0.8,0.6,1.5,0.1,2.3,0.1c3-0.2,4.7,0.6,5.7,3c1.1,2.6,0.6,5.2-1.5,7c-1,0.8-2.1,1.5-3.2,2.1c-1.2,0.7-1.3,1.5-0.6,2.7
		c2.4-0.5,4.5-1.7,6.7-2.7c2.6-1.2,3.7-0.6,4.3,2.2c0.6,2.8,1.1,5.6,1.6,8.5c0.8,4.3-0.9,6.3-5.1,6.3c-2.1,0-4.3-0.1-6.4-0.1
		c-0.9,0-1.9-0.4-2.6,0.7c0.6,1,1.8,1,2.7,1.3c17.1,5.2,34.1,10.5,51.2,15.7c4.6,1.4,6.8,8.3,3.9,12.1c-1.7,2.3-4.2,2.9-7.4,1.8
		c-14.4-4.6-28.7-9.3-43.1-14c-3.5-1.1-7-2.3-10.8-3.5c-1.3,4.3-3.5,8.2-6.1,11.8c-5,7-12,10.6-19.9,12.8c-2.4,0.7-4.7,0.5-7.1-0.7
		c-2.9-1.4-6-2.5-8.9-4.1c-6.5-3.5-9.7-9.3-11.1-16.2c-1.4-6.8-1.7-13.7-0.6-20.5c-0.9-1.2-2.2-1.2-3.2-1.6
		c-8.2-2.7-16.4-5.3-24.6-8c-3-1-6.1-0.2-7.7,2.5c-2,3.5-4.8,4-8.5,2.9c0.2,2.8,1.4,5.3,1.7,7.9c0.3,2.5,0.6,4.9,0.1,7.3
		c-0.5,2.5,0.1,4.3,2,6.1c5.2-2.1,10.6-4.2,15.9-6.3c2.4-0.9,2.6-2.9,2.4-5c-0.3-1.8-0.4-3.6-0.4-5.4c0-2.8-0.9-3.9-3.6-4.8
		c-2.4-0.7-5-0.6-7.1-2.4c3.9,0.3,7.8,0.8,11.1,3c0.7,0.5,1.2,1.2,1.1,2.2c-0.2,3,0.5,5.9,0.6,8.9c0.1,3.5-0.5,4.4-3.9,5.7
		c-4,1.5-7.9,3.1-11.9,4.6c-0.3,0.1-0.5,0.3-0.9,0.6c0,16.3-1.8,32.6,0.3,49c0.5,4.2-0.3,8.6-0.2,12.9c-7.2,3.7-14,8.6-21.8,1.8
		c-0.4-0.8-0.3-1.7-0.2-2.5c0.7-10.3-1-20.4-1.7-30.5c-0.1-1.5-0.7-2.5-1.7-3.6c-2.2-2.3-4.2-4.8-6.9-6.6c-1.5-0.9-1.9-2.8-2.5-4.4
		c-0.5-1.3-0.4-2.8-1.2-4c-1-0.4-1.8,0.3-2.6,0.7c-9.3,3.7-18.7,7.2-28.2,10.1c-5.7,1.8-11,4.5-16.7,6.4c-4.7,1.6-9.3,3.2-14.4,3.7
		c-5.4,0.5-10.7,2.8-15.8,4.9c-3.6,1.5-7.1,2.8-10.9,3.5c-1.4,0.2-2.8,0.5-3.9,1.2c-4.8,2.9-10.3,3.8-15.5,5.6
		c-4.7,1.6-9.3,3.5-14,5.2c0.6,4.4,1,8.6,0.8,12.8c-0.2,4.8-0.5,9.6-1.1,14.3c-1.3,11.8-1.5,23.5-1.6,35.6c4,1,5.1,3.7,5.4,7.5
		c0.2,3.5,1.7,6.8,3.7,9.7c1.1,1.5,1.9,3.1,2.6,4.7c2.6,6.2,1.4,7.3-3.3,11.5c-2.7,2.4-5.5,4.9-9.5,5.5c-1.6,0.2-3.3,1.5-3.5,3.7
		c0,0.5-0.3,1-0.6,1.4c-5.6,8.2-12.1,14.8-22.7,16.5c-6.5,1.1-12.4-0.5-18.4-2.1c-1.7-0.5-3-1.6-3.4-4.3c6.3,4.7,13,5.2,19.8,4.4
		c7.8-0.9,14.3-4.5,19.2-10.7c1.8-2.3,3.9-4.4,4.4-7.6c0.3-1.8,2-2.8,3.8-3c3.4-0.5,6-1.9,8-4.7c1-1.5,3.1-1.3,4.3-3
		c1.1-1.6,1.4-3,0.9-4.6c-0.3-0.9-0.6-1.8-1-2.7c-2-4-5.2-7.5-5.5-12.4c-0.2,0-0.4,0.1-0.7,0.1c0,0.6,0,1.3-0.1,1.9
		c-0.4,3.9-1.8,4.9-5.7,4.4c-1.1-0.2-2.2-0.7-3.2-0.2c-1.8-1-1.7-2.6-1.9-4.1c-2.9,0-5.4-0.6-7.9-1.7c-2.5-1.1-3.1-4.3-6.3-5.1
		c-0.5,3.1-1,6-2.1,8.8c4.1,0.7,8.3,0.5,11.5,3.3c-0.4,1.3-2.2,1.1-1.9,2.5c-1.9-0.2-3.4-0.3-5-0.4c-0.2-0.1-0.4-0.2-0.5-0.2
		c0.2,0.1,0.3,0.2,0.5,0.2c1.4,1.4,4.1,0.5,4.9,2.7c-0.6,1.3-1.6,0.9-2.5,0.8c-2.6-0.4-5.2-0.9-7.9-1.3c-1.7-0.3-1.7-0.3-2.7,1.6
		c3.5,1.2,7.3,0.9,10.7,2.6c-0.3,2-1.6,2-2.9,2.1c-2.5,0-4.9-0.5-7.3-1c-1-0.2-2.1-0.5-3.6,0c3.9,1.5,7.8,1.2,11.5,3
		c-3.1,2.5-7.3,3.6-7.5,8.4c-3.4,0.9-6.6,0.1-9.6-1.4c-5.1,4.8-11.3,8.5-12.7,16.2c-0.9-4.1,0.6-8.4,4.9-12
		c3.7-3.1,6.9-6.3,8.4-10.9c3.2-1.4,2.9-5,4.9-7.3c1.4-1.6,1.7-3.7,1.3-5.9c3.5-2.2,4.3-6.3,5-10.1c0.7-3.6,0.4-3.6,3.7-4.3
		c0.9-9.5-0.4-18.7-3.8-27.6c-1.4,1.7-1.7,3.9-3.3,6c0.3-3.1,1.8-5.3,2.3-7.9c-1.2-2.4-2.4-4.8-3.9-7.9c-1.9,5-3.6,9.4-5.2,13.9
		c-0.9,2.5-2.3,4.9-1.8,7.9c0.2,1.4-0.8,3-1.4,4.5c-2.3,5.5-4.5,11-6.4,16.6c0.6,1.6,2.9,1.5,3.3,3.4c-1.9,0.9-3.5-1.7-5.8,0
		c0.7-2.2-1-2.9-1.2-4.2c0.7-1.2,1.4,0,2.2-0.3c0.8-2.4,1.6-5,2.3-7.6c3.3-11.5,7.3-22.6,12-33.6c0.7-1.7,0.7-3.1-0.1-4.8
		c-3.8-7.6-6.2-15.6-5.4-24.2c-2.9-1.5-5.9-2.4-8-4.4c-4.4-4.3-9.7-7-15.2-9.5c-3.5-1.6-5.7-6.4-5.2-10.2c-3.5-3.1-6.9-6.3-7.9-11.4
		c-0.8,1.7,0.1,3,0.6,4.2c3.1,7,4.1,14.4,4,22.1c0,3.6-0.7,7-2.3,10.1c-0.5,1-1.1,1.9-0.7,3c1.4,4,1,8.2,1.3,12.3
		c0.3,4.9,0.7,9.7,2.1,14.5c2.7,0.4,4,2.2,4.7,4.6c0.6,2.1,0.5,4.4,1.4,6.5c1.1,2.7,2.3,5.2,4.4,7.3c0.4,0.4,0.9,1,0.8,1.3
		c-0.8,2.2,1.1,3.2,2,4.6c-6.7,8.2-18.9,14-29.4,7.4c-4,1.8-7.9,3.9-11,7.2c-0.9,1-1.9,1.6-3.2,2c-6,1.8-12.1,2.3-18.3,1
		c-2.3-0.5-4.7-0.4-7-0.9c-2.9-0.5-5.7-1.4-7.5-3.8c-1.4-1.8-2.6-3.8-2.8-6.3c-0.3-2.9,2.2-3.7,3.5-5.3c2-2.5,4.7-4,7.8-4.8
		c7.4-1.7,13.2-6.3,18.8-11c2.3-1.9,4.4-4.2,6.6-6.3c0.7-0.6,1.4-0.7,2.2-1c0-1.8,1.3-3.3,1.2-5c0.5-0.9,1.5-0.4,2-1.1
		c0.3-0.9,0-1.9-0.2-2.8c-1.5-6.5-3-13.2-5.6-19.3c-3.1-7.1-4.4-14.6-6.1-22c-1-4.6-2.3-9.1-3.7-13.5c-1.2-4-1.5-7.8-1-11.9
		c0.2-2,0.3-3.9-0.9-5.9c-0.8-1.3-1-3-0.1-4.6c0.3-0.4,0.4-1,0.4-1.5c0.4-6.2,4.2-9.5,9.3-12.7c6.6-4.1,14.1-5.1,21-7.9
		c5.9-2.4,12.3-3.4,18.4-5.1c5.3-1.5,10.7-1.6,16-2.5c2-0.3,4-0.4,6-0.2c4.3,0.4,8.6,0.7,12.9-0.6c-1,1.7-2.8,1.9-4.4,2.1
		c-2.1,0.2-4.3,0.2-6.4,0.1c-13.5-0.4-26.3,3-39.4,7c7.7,6.4,9.3,15,9.9,23.9c0.3,4.4,1.4,8.3,4.3,11.7c4.4,5,6.3,11.2,7.3,17.7
		c0.1,0.9,0,1.9,0.8,2.9c3.6-1.8,7.1-4,11.4-5.1c-2.3-5.7-1.1-11.1,0.5-16.4c0.7-2.4,2-4.7,4.6-5.8c1.2-0.6,2.3-1.5,3.3-2.5
		c5.6-5.4,12.5-8.8,19.5-12.7c-9-6.5-19.1-10.1-28.6-14.8c10.9,2.5,20.9,6.9,29.9,14c1.6-0.3,3-1.2,4.9-2.2
		c-2.3-1.3-3.6-3.1-4.9-4.8c-1.4-1.8-1.7-4-2-6.3c2.5,3.5,5,7.1,7.6,10.6C272.5,395.6,273.7,395.2,274.7,394.5L274.7,394.5z"/>
	<path d="M286.5,372.6c-3.8,3.4-11.8,4.8-15.8,2.9c-2.9-1.3-3.4-1.3-5.3,1.3c-1,1.4-2.2,1.6-3.6,1.3c-1.2-0.3-2.4-0.8-3.6-1.2
		c-1.9,0.8-1.9,0.8-3.9,0.6c1-1.3,2.3-1.9,3.6-2.6c2.1,0.5,3.7,2.3,6,1.7c3.3-4,3.8-4.2,8.4-1.6c2,1.1,3.7,0.4,5.5,0.1
		C280.6,374.4,283.2,373,286.5,372.6z"/>
	<path d="M704.2,374.6c2.2,0.7,3.8,2.3,6,1.7c3.2-4,3.7-4.1,8.4-1.6c1.1,0.6,2.1,0.7,3.3,0.6c2.6-0.4,5.1-1.3,7.7-2
		c1-0.3,1.9-1.1,3-0.1c-5.1,1.5-9.7,5.4-15.6,2.3c-1.7-0.9-3.3-1.4-4.8,0.5c-2.1,2.6-2.9,2.7-5.9,1.5c-0.6-0.2-1.2-0.5-1.7-0.7
		c-1.3,0-2.3,1.8-3.9,0.5C701.6,375.9,702.9,375.3,704.2,374.6z"/>
	<path d="M321.8,393.5c-6.8-2.8-14.2-2.6-21.7-3.4c3.9-3.5,9.8-4.6,16.9-3.5c-4,0.7-7.8,0.9-11.6,2C311,389.6,317,389.6,321.8,393.5
		z"/>
	<path d="M768,393.3c-6.8-2.9-14.2-2.5-21.7-3.4c4.1-3.4,8.3-4.2,16.6-3.6c-3.7,0.9-7.6,0.9-11.2,2.3c2.9,0.4,5.8,0.6,8.6,1.2
		C763.1,390.4,765.8,391.2,768,393.3z"/>
	<path d="M232.9,433.1c-5-8.4-7.7-16.9-5.6-26.5c1,0.2,1,1.2,1,2.1c-0.8,7.3,1.2,14,4.4,20.5C233.1,430.2,233.7,431.4,232.9,433.1z"
		/>
	<path d="M679.3,432.4c-5.1-8.1-7.7-16.6-5.7-26.3c1.7,2.1,0.8,4.5,0.9,6.7c0.1,2.3,0.1,4.7,0.8,6.9c0.7,2.1,1.6,4.1,2.5,6.2
		C678.5,428,679.8,430,679.3,432.4z"/>
	<path d="M671.1,382.1c8.4,8.5,19.5,13.1,29,20.1C689.7,396.5,678.8,391.6,671.1,382.1z"/>
	<path d="M253.7,402.4c-10.4-5.8-21.3-10.6-29-20.1C233.3,390.7,244.2,395.6,253.7,402.4z"/>
	<path d="M304.1,439.8c-0.9-0.4-1.1-1.2-1.4-2c-2.1-7.1-5.2-13.7-9.7-19.5c-0.2-0.2-0.2-0.6-0.4-0.9
		C296.8,418.6,303.9,432.6,304.1,439.8L304.1,439.8z"/>
	<path d="M750.4,439.6c-0.9-0.4-1.1-1.2-1.4-2c-2.1-7.1-5.2-13.7-9.7-19.5c-0.2-0.2-0.2-0.6-0.4-0.9
		C743.1,418.4,750.2,432.4,750.4,439.6L750.4,439.6z"/>
	<path d="M781,421.3c3.5-7.4,6.2-15.2,10-22.5C788.4,406.6,785.5,414.3,781,421.3z"/>
	<path d="M659.4,386.9c3.4,0.3,11.6,7.4,12.5,10.9C667.8,393.8,663.6,390.4,659.4,386.9z"/>
	<path d="M212.7,387c3.7,0.1,12.3,7.6,12.8,10.9C221.5,393.9,217.2,390.6,212.7,387z"/>
	<path d="M715,378.8c-0.3,3.9,0.7,7.5,3,11C713.8,389.2,712.1,382.9,715,378.8z"/>
	<path d="M271.8,390.1c-4.4-0.9-6-7.1-2.9-11.7C268.6,382.9,269.3,386.6,271.8,390.1z"/>
	<path d="M239.2,532.7c4.3-2.5,8.9-4.4,13.8-5.1C248.7,530,244.1,531.9,239.2,532.7z"/>
	<path d="M685.5,532.6c4.3-2.5,8.9-4.3,13.8-5.2C695,529.9,690.5,531.7,685.5,532.6z"/>
	<path d="M770,424.7c-5-1-9.3-3.4-12.9-7C761.3,420.3,765.7,422.5,770,424.7z"/>
	<path d="M323.7,424.9c-5-1.1-9.3-3.5-12.9-7.1C314.9,420.6,319.4,422.6,323.7,424.9z"/>
	<path d="M864.6,334.7c2,2.7,1.2,4.6-3.5,9.1C862.4,340.9,864.8,338.3,864.6,334.7z"/>
	<path d="M290.6,381.6c-4.5,2.4-7.6,6.3-11.1,10C280.3,388,287,382,290.6,381.6L290.6,381.6z"/>
	<path d="M736.9,381.4c-4.5,2.4-7.6,6.3-11.1,10C726.6,387.8,733.3,381.8,736.9,381.4L736.9,381.4z"/>
	<path d="M869,376.7c-2.1,3.3-4.2,6.6-6.3,9.9c-0.2-0.2-0.5-0.3-0.7-0.5c1.4-3.8,4.2-6.7,6.5-9.9C868.6,376.4,868.8,376.6,869,376.7
		z"/>
	<path d="M253.2,525.4c-0.2-2.7,0.9-5.8,3.5-9.6C256.7,518,254.7,523.6,253.2,525.4z"/>
	<path d="M860.7,327.1c0.3,3,0.1,6-1.4,8.7C858.8,332.7,859.3,329.8,860.7,327.1z"/>
	<path d="M703.2,515.6c-0.8,3.4-1.8,6.7-3.6,9.6C699.6,521.6,701.1,518.5,703.2,515.6z"/>
	<path d="M761.7,371.9c4.2,0.2,8.4,0.4,12.6,0.7c-4.2,0.8-8.5,0.6-12.6-0.2C761.3,372.3,761.3,372.1,761.7,371.9z"/>
	<path d="M436.7,398.8c2.4-3.2,5.2-6,9-7.4C442.6,393.8,439.8,396.5,436.7,398.8z"/>
	<path d="M290.7,381.7c3.3-1.5,6.9-2.4,10.5-2.9C297.7,379.9,294.5,382,290.7,381.7L290.7,381.7z"/>
	<path d="M258.7,379.8c0,2.7-0.3,4.7-0.7,7C256.3,384.3,256.5,382.6,258.7,379.8z"/>
	<path d="M705.1,379.5c0,2.7-0.2,4.8-0.8,6.9C702.6,384.2,702.8,382.6,705.1,379.5z"/>
	<path d="M737,381.5c3.4-1.5,6.9-2.4,10.5-2.9C744,379.7,740.8,381.8,737,381.5L737,381.5z"/>
	<path d="M854.1,297.9c-0.6,1.9,0,4.1-1.2,5.9C853.1,301.8,852,299.6,854.1,297.9z"/>
	<path d="M274.8,394.5c-0.6-0.3-1.1-0.6-0.9-1.4c0.5-1.9,1-3.7,2.8-5C276,390.2,275.4,392.4,274.8,394.5L274.8,394.5z"/>
	<path d="M721.1,394.3c-0.6-0.3-1.1-0.6-0.9-1.4c0.5-1.9,1-3.7,2.8-5C722.4,390,721.7,392.2,721.1,394.3L721.1,394.3z"/>
	<path d="M780.7,296.8c-1.5,2.8-1,5.8-1.2,8.8c0-2.9,0-5.9,0-8.8C779.9,296.7,780.3,296.8,780.7,296.8z"/>
	<path d="M326.3,417.4c1.2-1.9,2.6-3.3,5.2-2.6C329.8,415.6,328.1,416.5,326.3,417.4z"/>
	<path d="M778.2,414.6c-2.1,0.9-4,1.5-5.6,2.6C774.2,414.6,775.4,414,778.2,414.6z"/>
	<path d="M841,383.1c1.6-0.4,3.4-1.1,4.9,0.6C843.4,384.3,843.4,384.3,841,383.1z"/>
	<path d="M786.7,316.5c-1.6,1-3.1,0.6-5.1-0.4C783.7,315.7,785.2,315.6,786.7,316.5z"/>
	<path d="M847.6,266.5c1.6,1.2,1.7,3.2,2.2,4.9C847.9,270.3,847,268.7,847.6,266.5L847.6,266.5z"/>
	<path d="M840.4,363c2.3,1.1,2.9,3.3,3.5,5.4C842.5,366.8,841.1,365.1,840.4,363L840.4,363z"/>
	<path d="M862.1,320.5c0.8,2.1,0.2,3.4-0.9,4.9C860.5,323.5,861.2,322.3,862.1,320.5z"/>
	<path d="M771.1,273c0.2-2.2,0.8-3.4,2.5-4.5C773.6,270.5,772.6,271.5,771.1,273z"/>
	<path d="M780.9,283.5c-1.2-2-1.4-3.3-1.4-5.2C781.1,279.9,781.3,281.3,780.9,283.5z"/>
	<path d="M739.6,388.4c1.3-1.8,2.8-1.9,5-2.4C743.1,387.8,741.7,388.2,739.6,388.4z"/>
	<path d="M689,525.2c0.2-2.1,0.8-3.8,2.7-4.7C690.8,522,689.9,523.6,689,525.2z"/>
	<path d="M242.8,525.3c0-2.1,0.9-3.6,2-5c0.2,0.1,0.4,0.2,0.6,0.3C244.5,522.2,243.7,523.8,242.8,525.3z"/>
	<path d="M776.4,370.9c1.6-0.1,3.3-0.2,4.8,0.9C779.6,371.5,778,371.2,776.4,370.9z"/>
	<path d="M448.8,388.7c-1.1,1.4-2.7,1.1-4.1,1.5C445.7,388.9,447.1,388.6,448.8,388.7z"/>
	<path d="M297.7,386.6c-1,1.2-2.3,1.8-4.3,2C294.6,386.7,296.1,386.7,297.7,386.6z"/>
	<path d="M850.4,277.2c0.1,1.6,0.9,3.2,0.7,4.8C849.5,280.6,849.6,279,850.4,277.2z"/>
	<path d="M855.4,343.4c1.4,0.3,2.4,1,2.7,2.8C856.2,346,855.8,344.6,855.4,343.4z"/>
	<path d="M771.7,274.2c0,1.3-0.1,2.6-1.3,3.5C769.7,276,770.8,275.1,771.7,274.2z"/>
	<path d="M774.7,263.4c0,1.3,0.2,2.6-1.3,3.7C772.7,265.3,773.4,264.2,774.7,263.4L774.7,263.4z"/>
	<path d="M855.2,275.2c-1.3,0.8-2.2,1.1-3.6,0.5C852.8,274.7,853.8,274.8,855.2,275.2z"/>
	<path d="M853.1,385.6c0.7,0.9,1.2,1.8,1.2,3.3C853.1,387.8,853.3,386.6,853.1,385.6z"/>
	<path d="M329.9,403.7c-1.2,0.6-2.1,0-3.5,0C327.8,403.1,328.8,402.3,329.9,403.7z"/>
	<path d="M775.8,256.9c1.1,1.1,1,1.8,0.2,2.8C775.3,258.8,775.2,258.1,775.8,256.9z"/>
	<path d="M772.7,403.6c1.6-0.8,2.5-1.3,3.6-0.1C775.1,404.2,774.2,403.6,772.7,403.6z"/>
	<path d="M790,318.3c1.8,0.6,2.8,1.8,2.6,3.8l0.1-0.1C791,321.3,790.5,319.8,790,318.3L790,318.3z"/>
	<path d="M834.2,382.5c1,0.1,2.1,0.3,3.6,0.5c-1.5,1.1-2.6-0.2-3.7,0.6C834.1,383.2,834.2,382.8,834.2,382.5z"/>
	<path d="M278.7,384.4c-0.8-1.8-0.2-2.6,1.2-3.9C279.4,382,279.2,382.9,278.7,384.4z"/>
	<path d="M780.1,277c-1.4-0.6-1-1.6-1-2.8C780.8,274.8,780.2,276,780.1,277z"/>
	<path d="M850.8,335.9c1.1,1.2,1.3,2.1,0.9,3.6C851,338.4,850.6,337.4,850.8,335.9z"/>
	<path d="M851.1,287.9c-0.7-1-0.9-2.2-0.5-3.7C852,285.5,851.2,286.7,851.1,287.9z"/>
	<path d="M779,321.1c0.5-1.4,1-2,2-2.7C781.2,319.9,780.5,320.4,779,321.1z"/>
	<path d="M783.3,394.6c0-1.4,0.9-2.1,2.1-3.2C785.4,393.3,784.2,393.9,783.3,394.6z"/>
	<path d="M857.5,388.5c-1.6-0.6-2.4-1.2-2.4-2.7C856.3,386.2,856.6,387.1,857.5,388.5z"/>
	<path d="M725.2,383.6c-0.8-1.2-0.5-2,0.8-2.8C725.7,381.9,725.5,382.7,725.2,383.6z"/>
	<path d="M805.1,352.6c0.8-0.6,1.5-0.9,2.5-0.4C807,353.3,806,352.4,805.1,352.6z"/>
	<path d="M868.4,361.6c-0.3,1.5-0.5,2.5-0.7,3.5C867.5,364.1,867,363,868.4,361.6z"/>
	<path d="M829.3,374.1c-0.4-1.4-1.2-2.2-0.7-3.4C829.1,371.6,829.6,372.5,829.3,374.1z"/>
	<path d="M851.5,341.9c0.8,1.2,0.7,2.2,0.1,3.7C850.9,344.1,851.2,343.1,851.5,341.9z"/>
	<path d="M287.2,435.3c0-0.6,0-1.2,0-1.9c0,0.6,0.1,1.2,0.1,1.7C287.3,435.2,287.2,435.3,287.2,435.3z"/>
	<path d="M733.6,433.3c0,0.6,0,1.2,0,1.8h-0.1c0-0.6-0.1-1.2-0.1-1.8C733.4,433.2,733.5,433.2,733.6,433.3z"/>
	<path d="M855.5,393.9c1.1,0.8,0.8,1.3,0.3,2C854.8,395.3,854.9,394.7,855.5,393.9z"/>
	<path d="M850.9,313.2c0.2,0.7,0.4,1.2-0.3,1.4C850,314.2,850.4,313.8,850.9,313.2z"/>
	<path d="M779.9,272.8c-0.8-0.5-1-1.2-0.6-2.2C780.3,271.2,780.3,271.9,779.9,272.8z"/>
	<path d="M778.5,331.7c1.3,0.6,1,1.1,0.7,1.7C778.2,333.2,778.6,332.5,778.5,331.7z"/>
	<path d="M852.1,307.5c0.2,0.6-0.2,0.9-0.5,1.3C851.1,308.2,851.3,307.7,852.1,307.5z"/>
	<path d="M858,292.5c-0.1-0.4-0.2-0.8,0-1.2c0.1,0,0.2,0.1,0.2,0.1C858.2,291.8,858.4,292.2,858,292.5z"/>
	<path d="M770.3,281.3c0.3,0.6,0.1,1.1-0.3,1.4C769.1,282.1,769.8,281.7,770.3,281.3z"/>
	<path d="M779.4,336.5c-1.1-0.5-0.9-1-0.6-1.6C780.1,335.1,780,335.7,779.4,336.5z"/>
	<path d="M302.3,415.9c0.8,0,1.1,0.5,1.3,1.1C302.7,417.1,302.6,416.3,302.3,415.9z"/>
	<path d="M748.6,415.5c0.8,0.2,1.1,0.6,1.2,1.5C749.2,416.6,748.6,416.4,748.6,415.5z"/>
	<path fill="#FFFFFF" d="M325.8,391.3c0.8-1.2,1.2-0.6,1.6,0.3c-0.4,0.1-0.8,0.1-1.2,0.2C326.1,391.7,326,391.5,325.8,391.3z"/>
	<path d="M790.4,256.4c-0.1,0.3-0.3,0.5-0.6,0.4c-0.1,0-0.2-0.3-0.2-0.5c0-0.3,0.3-0.5,0.6-0.4C790.3,256,790.4,256.2,790.4,256.4z"
		/>
	<path d="M774.8,263.5c-0.1-0.7-0.4-1.4,0.9-1.8C775.6,262.5,775.4,263.1,774.8,263.5L774.8,263.5z"/>
	<path d="M286.5,428.7C286.6,429,286.5,428.9,286.5,428.7C286.5,428.9,286.6,429,286.5,428.7z"/>
	<path d="M790,318.3c-0.6-0.1-0.8-0.5-0.8-1C789.8,317.4,790.1,317.7,790,318.3L790,318.3z"/>
	<path d="M776.7,318c-0.2-0.3,0-0.5,0.2-0.7l0.2,0.1C777.2,317.7,777.1,318,776.7,318z"/>
	<path d="M862.1,317.4c1.1,0.6,0.8,1.1,0.6,1.7C861.5,318.7,862.4,318.1,862.1,317.4z"/>
	<path d="M772,322.3c0.1,0.5-0.2,0.7-0.7,0.7c-0.1,0-0.3-0.4-0.2-0.5C771.3,322.1,771.6,322,772,322.3z"/>
	<path d="M851.7,324.2c0,0.3,0.1,0.6,0.1,0.9C851.2,325,851.5,324.5,851.7,324.2z"/>
	<path d="M790.9,351.8c-0.1,0.3-0.4,0.2-0.6,0.1c0.1-0.1,0.2-0.2,0.4-0.2C790.7,351.7,790.8,351.8,790.9,351.8z"/>
	<path d="M840.5,363c-0.5-0.2-0.8-0.6-0.8-1.1C840.3,362,840.5,362.4,840.5,363L840.5,363z"/>
	<path fill="#FFFFFF" d="M772.1,391.1c0.6-1,1.2-0.6,1.6,0.2c-0.3,0.5-0.7,0.2-1.1,0.3C772.5,391.4,772.3,391.2,772.1,391.1z"/>
	<path d="M732.9,428.6c0,0.2-0.1,0.3-0.1,0.5l0,0C732.9,428.9,732.9,428.7,732.9,428.6L732.9,428.6z"/>
	<path fill="#FFFFFF" d="M720.5,437.8c-3,0.1-4.3,2.8-6.4,4.3c0.5,2.8,2.1,4.9,3.8,6.9c5.2,6,6.4,13.3,7.3,20.7c0.3,3-1,6.2-1.1,9.4
		c-0.3,6.3-0.8,12.5-1.2,18.8c-0.2,2.5-0.3,5.1-1.6,7.3c0.4,0.7,1.4,16.4,1.2,17.6c-0.1,1-0.7,1.5-1.6,1.8c-0.8-1.3-0.3-2.9-1.5-4.4
		c-1.7,2.7-0.8,5.6-0.9,8.4c-2.7,0.9-5.3,1.9-8.3,1.1c-0.2-1.5,0.7-2.9-0.5-4.2c-1,0.6-0.4,1.9-1.1,2.6c-1.1-0.4-1.8-1.3-2.8-2.1
		c1.2-5.9,0.3-11.9-0.4-17.9c-0.6-5.3-2.8-10.2-4.6-15.2c-0.6-1.8-0.8-3.9-2.7-5.2c-0.7-0.4-0.3-1.3-0.4-2.1
		c-0.3-3.7-1.1-7.2-2.8-11.1c-1.3,2.4,0.4,4.1-0.2,6.4c-3-5.9-5.5-11.5-4.9-18c0.4-3.7,0.4-7.5-0.4-11.1c-0.6-2.8-1.4-5.5-2.4-8.2
		c-1.6-4-2.4-8.1-3.3-12.3c-0.2-1.1-0.2-2.1,0.3-3.1c0.7-1.3,0.8-2.6,0.8-4c0.1-3.4,1.7-6.1,4.5-8s5.6-3.8,7.8-6.5
		c1.6-2,4.3-2.1,6.4-3.6c3.4,1.9,7,2.9,10,5.2c3.8,2.9,6.1,7.1,8.2,11.2c1,2.1,1.8,4.3,2.7,6.5c1.7,4,3.1,7.9,0.6,12.5
		c-2.4,0.7-5.2,1.6-8.3,3.1C717.6,441.8,719.7,440.1,720.5,437.8c0.2-0.4,0.2-0.8,0.3-1.1C720.7,437.1,720.7,437.4,720.5,437.8z"/>
	<path fill="#FFFFFF" d="M662,422.6c-4.7-0.6-9-0.3-13.2-0.1c1.6,5.6,3.2,10.8,4.4,16.1c1.5,6.3,0,12.6-0.2,18.9
		c-3.6,4.8-0.9,10-1.1,15c-0.2,5.2,0.1,10.4,1.9,15.4c0.2,0.6,0.4,1.2,0.1,2c-1.8,1-3.9,0.9-6,1.1c-0.8-2.1-0.8-4.3-2.5-6.6
		c-0.6,2.3-0.2,4.1-0.2,6.2c-3.4,0-6.6-0.6-9.9-1.5c-0.5-3.1-0.7-6.1-1.5-9c-1.2-4.7-2.6-9.4-4.2-14c-3.3-10.1-6.1-20.3-8.1-30.7
		c-0.5-2.4-1.3-4.7-2.2-7c-1.7-4.5-2.1-9-0.9-13.7c0.3-1.2,0-2.3-0.5-3.4c-0.6-1.2-1.6-2.4-1-3.9c1.3-3.2,1.2-7,3.6-9.8
		c1.5-1.8,4.2-1.5,6-3.1c5.4-4.9,12.6-5.8,19.3-7.8c4.5,2.3,7.8,5.6,8.9,10.8c1.1,5.6,2.4,11.2,3,16.9
		C658.3,417.6,660.3,419.8,662,422.6z"/>
	<path fill="#FFFFFF" d="M976.6,250.1c-5.7,5.7-10.6,11.7-13.8,19.4c-5,1-6.5,5.4-8,9.6c-2,5.4,3.6,11.7,9.2,10.8
		c1.4-0.2,2-1.5,3.2-2.1c2-0.3,3.9,0.5,5.9,0.8s3.9,0.7,6.1,1.1c-0.2,2.8-1.1,5.1-2.1,7.4c-3.8,9.3-9.8,16-20.2,18.1
		c-2.7,0.5-4.9,0.5-7.2-0.9c-1.1-0.7-2.4-1.2-3.7-1.8c-0.2,1.1,0.7,1.2,1.1,2.2c-8-2.6-13.9-7.1-16.5-15.2
		c-1.5-4.8-1.8-9.9-2.9-14.7c-1.8-7.6,1.3-14,3.4-20.6c2.6-8,7.7-14.4,13.7-20.1c1.6-1.5,3.5-2.7,5.8-3.2c3.8-0.8,7.7-1.6,11.8-1.3
		c-10.7,2.9-16.2,11-20.7,20.9c1.7-0.8,2.2-1.8,2.8-2.7c2.6-3.6,5.1-7.3,8.2-10.6c3.3-3.6,7.7-4.8,11.9-6.5c1.9-0.7,3.9,0.8,5.5,1.9
		C972.8,244.5,974.9,246.9,976.6,250.1z"/>
	<path fill="#FFFFFF" d="M712.1,213c-0.8,1.2-2.3,1.2-2.9,2.7c5-3,10.2-4.4,16-2.8c5.7,1.6,10,5,13.2,9.9c3.4,5,3.9,10.6,3.6,16.8
		c-5.4-0.9-10.6-1.7-15.8-2.5c-1.1-0.2-2.1-0.6-3.1,0.1c-1.5,1-3.2,2.1-2.9,4.2c0.3,2,1.7,3.4,3.6,4c0.7,0.2,1.5,0.1,2.1,0.7
		c-2,1.2-4.2,0.8-5.8-1c-2.3-2.6-2.2-5,0.3-8.3c2-2.6,3.9-2.6,9.1,0c-1-3-1.8-3.4-7-3.2c-2.7,0.1-5.2,2.9-5.9,6.6
		c-0.5,2.7,1.8,6.7,4.7,8c2.7,1.2,4.6,0.7,6.8-2c4.1,0.7,8.3,1.4,12.9,2.2c-2.9,5.3-5.8,10.2-10.2,13.7c-3.6,2.8-8.4,3.6-12.9,4.2
		c-3.8,0.5-7.6,0.4-11.4-0.5c-5.1-1.3-8.6-4.4-11-8.9c-3-5.5-4.3-11.3-4.4-17.4c0-3.4,0.5-6.7,2.3-9.8c2-3.5,3.7-7.1,6.1-10.4
		C702.7,215,707.4,214,712.1,213z"/>
	<path fill="#FFFFFF" d="M772.2,430c1.5-2.3,4.3-2.6,6.4-4c1.6-1.1,3.7-1.6,5.4-2.7c7.5-4.9,16-7.7,24.2-11.3
		c5.3-2.3,10.9-2.4,16.6-2.1c4.3,0.2,8.7,0.7,13,0c3-0.5,5.9-0.8,8.7-2.5c3.5-2.2,7.8-2.7,11.8-3.5c2.6-0.5,5.1-1.3,7.5-2.5
		c5.4-2.8,8.5-7.2,9.1-13.3c0.1-1.2,0.3-2.3,0.4-3.7c3.4-0.5,7.2,0.6,9.7-2.7c3.7,0,7.1,1.1,10.4,2c1.9,0.5,3.3,1.8,3,4.2
		c-0.2,1.9,0,3.8,0.3,5.7c0.5,2.8-0.5,4-3,5.2c-12.3,5.4-25.2,9-38,12.8c-2.8,0.8-5.3,2.1-7.8,3.6c-3.7,2.1-7.9,3.2-11.9,4.6
		c-13.6,4.9-27.3,9.3-40.8,14.6c-7.1,2.8-14.9,3.2-22.1,6c-10.2,4-21,5.9-30.9,10.6c-1.8,0.9-3.8,1.3-5.8,1.6
		c3.1-1.4,5.2-4.3,8.7-5.2c3.6-6,6.6-8.8,9-8.1c1.5-2.6,4.1-3.7,6.5-5c0.9,0.8,0.2,1.9,0.9,2.8c1-1,0.6-2.3,1.1-3.7
		C767.1,432.4,768.9,429.6,772.2,430L772.2,430z"/>
	<path fill="#FFFFFF" d="M658.3,492.6c1.1,1,1.4,2.2,1.3,3.3c-0.7,4.3,1.7,7.7,3.9,10.7c1.9,2.5,1.8,5.5,3.7,7.9
		c-5.1,4.6-10.5,8.1-17.6,7.7c-1.5-0.1-2.8-0.3-4.2-1.2c-2.9-2-5.8-2.2-8.7,0.3c-2.7,2.3-6.3,2.9-9.3,4.6c-0.6,0.8,0,1.2,0.4,1.9
		c-2.6,1.7-5.5,2.2-8.3,2.4c-6.4,0.5-12.7,0-19-1.3c-3.6-0.8-6.8-2.3-7.5-6.7c-0.5-3.1-0.3-4,2.5-5.8c4.3-2.9,9.3-4.1,14.3-5.9
		c1.3,1.6,2.2,3.7,4.4,3.9c1.1-0.1,1.4-0.8,1.7-1.5c-0.1-1.1-1.6-1-1.8-2c0.7-0.4,1.3,0.7,2.1,0.1c0.7-1.3-1.2-2.1-0.8-3.6
		c1.4,0.5,1.7,2.9,3.6,2.4c1.5-1.7-0.8-2.8-0.6-4.6c0.8,1.3,1.4,2.4,2.2,3.4s1.8,1.9,3.4,0.8c0.1-2.5-2.8-4.2-2.3-7.3
		c2.1,2.4,2.6,6,6.7,6.5c-0.5-3.7-3.3-5.8-4.2-8.8c0.3-0.6,0.6-1.1,1.5-1.2c1,2.8,1.1,6.4,5,7.8c0.3-2.3-1.2-3.8-1.4-5.9
		c1.2,1.1,2.3,2,3.3,2.9c2.4-0.7,1-2,0.4-3.4c1.3,0.1,2.1,1.2,3.5,1c-1.4-3.1-4.6-5.3-5.2-9.3c1.3,0.4,1,1.5,1.9,1.7
		c0.5,0.2,0.3-1.1,1.2-0.6c1.2,1.3,1.3,3.2,2,4.8c0.2,0.6,0.2,1.4,0.6,1.8c1.7,1.7,4.1,2.4,6.4,2.7c2.8,0.3,5.6,2.5,8.4,0
		c1.6-1.4,3.1-2.6,3.2-5.1C655.1,495.1,657,494,658.3,492.6z"/>
	<path fill="#FFFFFF" d="M1041.3,288.2c0.5,1.9,1,3.3,1.3,4.8c0.7,3.6-1.4,5.7-5.1,5c-10.7-1.8-21.4-3.6-32-5.5
		c-13-2.2-25.9-4.5-38.9-6.7c-2.4-0.4-4.3-0.9-5-3.6s-0.1-4.8,2.2-6.8c25.1,3.9,50.4,7.8,75.9,11.7c-1.9,3.3-3.8,6.5-0.2,10
		C1039,293.9,1038.3,290.8,1041.3,288.2z"/>
	<path fill="#FFFFFF" d="M880.4,406c1.5,21.1,0.1,41.4,2.4,61.6c-4.1,2.2-8,3.3-12.4,4.4c-1.9-20.7-1.1-41.1-2.9-61.4
		C871.8,408.6,876.3,408.9,880.4,406z"/>
	<path fill="#FFFFFF" d="M851,264.2c1.8-3.3,4.2-4.1,7.7-4.1c9.9,0,19.4,2.3,29.1,3.6c11.9,1.6,23.7,3.6,35.6,5.5
		c1,0.2,2.1,0.2,3.2,0.9c0.3,2.8-0.8,5.5-1,8.6c-5.7-1-11.1-1.9-16.5-2.8c-16.8-2.9-33.5-5.8-50.3-8.7
		C855.9,266.8,853.5,265.7,851,264.2z"/>
	<path fill="#FFFFFF" d="M777.4,246.8c1,2,2.2,4,4.3,5.2c-0.1,0.2-0.1,0.5-0.2,0.7c-2.4,0-4.8,0.3-7.2-0.1
		c-16.1-2.7-32.3-5.5-48.4-8.2c-1.6-0.3-3.2-0.5-3.9-2.3c0.6-3.2,1.2-3.9,4-3.5c16.8,2.6,33.6,5.2,50.4,7.8
		C776.7,246.5,777,246.7,777.4,246.8z"/>
	<path fill="#FFFFFF" d="M869,471.6c-2-0.7-3.6-1.4-5.2-2c0.7-13-1.5-25.7-1.8-38.5c-0.1-6.2-0.1-12.4-0.4-18.7
		c1.5-1,3.1-1.5,4.8-1.4C867.4,431.1,867.5,451.3,869,471.6z"/>
	<path fill="#FFFFFF" d="M795.2,256.3c0-2.3,0-4.4,0-6.9c12.8,2,25.5,3.9,38.3,5.9c0,2.5,0.1,4.9-1.3,7.4
		C820,260.6,807.7,258.4,795.2,256.3z"/>
	<path fill="#FFFFFF" d="M965.4,287.3c-2.6,1.9-4.5,0.7-6.2-0.8c-1.9-1.7-3.1-3.8-2.3-6.5c0.6-2,1.5-4,2.6-5.8
		c2.2-3.5,4.7-3.9,7.8-1.1c0.3,0.3,0.4,0.8,0.9,1.1c0.5-1.7,1.5-2.4,2.8-3.1c6.4-3.5,12.6-7.3,19.3-11.2c1,4.1,3.4,7.7,3.3,11.8
		c-1.7,1-3.2,1.1-4.7,1.2c-5.4,0.3-10.6,1.4-16,2.1c-2.6,0.4-5.3-0.2-7.9-0.7c-0.8-0.1-1.6-0.5-2.5-0.3
		C957.1,278.4,959,286,965.4,287.3z"/>
	<path fill="#FFFFFF" d="M684.6,445.2c2.4,3.7,3.1,7.7,3.1,12.3c-3.4-1.7-6.6-3-9-5.8c-2.6-3.1-6.4-4.5-9.9-6.2
		c-1.3-0.7-2.6-1.4-3.9-2.1c-2.5-1.5-4-3.6-4.2-7c3,3.3,6.2,5.9,10,8.1c0.9-0.3,1.9-1.1,3.3-1.3c0.7,1.2,0.2,2.9,1.4,4.1
		c0.5-1.5-0.1-3,0-4.5c0.7-0.9,1.8-1.3,3.1-1.6c1.2,3.4,0.9,7.1,2.4,10.4c0.6-2.9-0.5-5.7-0.8-8.6c-0.2-1.8,0.3-2.7,2.5-3.9
		C683.9,440.9,683.4,443.4,684.6,445.2c-0.4,1.5-0.3,3,0,4.4c0.2,0.2,0.2,0.3,0.1,0.2c-0.2-0.2-0.3-0.5-0.3-0.8
		C684.4,447.7,684.1,446.5,684.6,445.2z"/>
	<path fill="#FFFFFF" d="M636.3,491.7c6.1,1.4,12,2.3,17.9,0.5c0.4,4.9-0.6,6.7-4.7,9.3C643.4,500.6,637.1,499.8,636.3,491.7z"/>
	<path fill="#FFFFFF" d="M965.6,270.1c0-1.8,0.7-3.2,1.6-4.6c2.1-3.3,4.3-6.6,6.8-9.6c1-1.2,2.1-2.4,2.7-3.9c0.9-2.2,3-2.1,4.9-2.2
		c1.4-0.1,2.2,1,2.7,2.3c0.7,1.9,0,3.3-1.5,4.5c-0.8,0.7-1.6,1.4-2.5,2C975,261.8,969.7,265.1,965.6,270.1z"/>
	<path fill="#FFFFFF" d="M654,423.7c3.5,0,6.4,1.5,9.5,1.3c3.1,4.4,3.9,9.6,4.8,14.7C663.1,434.9,655.7,432.1,654,423.7z"/>
	<path fill="#FFFFFF" d="M689.4,233.1c0,1.7,0,3.1,0,5c-5.3-1.4-10.9-0.6-15.6-4c0.9-2.5,2.2-3.3,4.5-2.8
		C682.1,232.1,685.8,232.5,689.4,233.1z"/>
	<path fill="#FFFFFF" d="M876.2,347.1c2,2.8,2,2.8,2.7,8.4c-1,0.5-2.3,0.7-2.2,2.5c0.1,1.2-0.5,2.2-1.9,3.3
		c-0.5-4.9-1.8-9.3-4.1-13.6C872.7,346.7,874.6,347.5,876.2,347.1z"/>
	<path fill="#FFFFFF" d="M716.7,531.4c2.7-0.9,4.7-2.2,6-4.9c1.2,2.4,2.2,4.5,3.2,6.7c-0.1,1.2-0.8,2.1-1.3,3.2
		c-1.7,0.5-3.2-0.2-4.8-0.5C719,534.2,719.3,531.9,716.7,531.4z"/>
	<path fill="#FFFFFF" d="M724.9,443.9c-0.3,3.4-0.8,6.3-0.7,9.8c-2.1-2.4-2.7-5.3-5-6.8C720.8,445.5,722.7,445,724.9,443.9z"/>
	<path fill="#FFFFFF" d="M846.9,261.7c-1.1,0.4-1.7,0-2.3-0.4c1.6-7.4,0.9-6.5,7.6-7.4c-1.3,1.3-3.5,0.8-4,2.7
		C847.7,258.4,847.3,260,846.9,261.7z"/>
	<path fill="#FFFFFF" d="M853.8,255.9c-1.6,1.1-2.3,2.4-2.2,4.2c0,1.8-1.3,2.6-3.3,2.2C849.6,256.1,849.6,256.1,853.8,255.9z"/>
	<path fill="#FFFFFF" d="M979.8,261.5c0.1,2.3-1.6,3.6-9.2,7.5C972,266.7,975.1,264.2,979.8,261.5z"/>
	<path fill="#FFFFFF" d="M873.5,370.7c0.2-0.8,0.1-1.7,1.1-2.6c0,2.1,2.3,1.8,2.9,3.6c-0.4,0.7-0.8,1.6-1.3,2.5
		c-1.2,0.2-1.9-0.5-2.7-1c0.5-1,1.6-0.1,1.9-1.2C875.1,371.3,874,371.6,873.5,370.7z"/>
	<path fill="#FFFFFF" d="M862,258.4c-2.9-0.4-5.6,0.5-8.6,0.8C855.6,256.5,859.6,256.2,862,258.4z"/>
	<path fill="#FFFFFF" d="M691.5,552.5c-0.2,1.9,1.5,2.3,3.4,3.3c-2.6,0-4.7-0.1-5.7,2.2C689.6,555.9,690.5,554.2,691.5,552.5
		L691.5,552.5z"/>
	<path fill="#FFFFFF" d="M725.4,524.7c3,1.3,1.7,3.7,2.1,5.5C726,528.8,726,528.7,725.4,524.7z"/>
	<path fill="#FFFFFF" d="M785.7,247.1c-0.5,1.7-2.9,2.3-1.8,4.8C781.8,250.5,782.1,249.9,785.7,247.1z"/>
	<path fill="#FFFFFF" d="M884.4,370c-0.3-0.9-0.6-1.5-0.9-2.2c0.5-0.6,1-1.1,2-0.7C885.7,368.3,885.4,369.2,884.4,370z"/>
	<path fill="#FFFFFF" d="M794.6,246.2c2-1.2,2.4,0.1,2.9,1.7C796,248.2,794.8,248.1,794.6,246.2z"/>
	<path fill="#FFFFFF" d="M782.2,244.5c-0.3,1.4-1.6,1.8-2.3,2.8C780.4,245.6,780.4,245.6,782.2,244.5z"/>
	<path fill="#FFFFFF" d="M793.2,244.7c-1.1,0.5-1.9,2-3.6,0.9C790.8,244.5,792.1,244.9,793.2,244.7z"/>
	<path fill="#FFFFFF" d="M784.2,245.4c1.2-1,2.1-1.5,3.9-1.7C786.8,244.9,785.8,245.3,784.2,245.4z"/>
	<path fill="#FFFFFF" d="M691.6,552.5c1.1-0.9,1.1-0.9,2.4-0.1C693.2,552.5,692.4,552.5,691.6,552.5L691.6,552.5z"/>
	<path fill="#FFFFFF" d="M705.2,541.7c-0.9,0-1.8,0-3.3,0C703.4,541.1,704.3,541.3,705.2,541.7L705.2,541.7z"/>
	<path fill="#FFFFFF" d="M780.6,249.9c0.2-1.4,0.6-2,1.5-2.4C781.9,248.5,781.4,248.9,780.6,249.9z"/>
	<path fill="#FFFFFF" d="M785.7,249.7c0.1,0.5,0.2,1,0.3,1.7C784.6,250.9,785.1,250.3,785.7,249.7z"/>
	<path fill="#FFFFFF" d="M385,358.2c0,2.2,1.2,3.8,2.5,5.1c3.2,3.3,4.7,7.5,6.3,11.7c-9.8,3.6-16.8,9.6-16.6,21.1
		c-1.4,1.4-3.5,1.9-4.7,3.9c1.5-0.7,3-1.5,4.6-2.3c2,3.4,3.2,7.3,7.2,9.8c-3.4,0.6-6.3-0.1-9.2-0.3c-4.1-0.3-7.8,0.1-11.7,1.9
		c-5.9,2.8-12.2,5-18.3,7.5c-1.8,0.8-3.6,1.7-5.7,2.7c4.7-8.8,11.6-15.5,17.3-23.2c-4.5,4.6-9.2,9-12.9,14.1
		c-2.3,3.2-4.5,6.5-6.7,9.7c-1,1.5-2.1,2.9-4.3,3.3c0.5-3.7,0.9-7.2,1.5-10.8c0.8-5.1,0.9-10.3,0.4-15.4c-0.1-1.1-0.8-2-1.5-2.7
		c-6.6-7-13.7-13.3-23-16.7c-4.6-1.7-9.4-2.7-14.1-3.8c-0.6-0.1-1.2-0.4-1.8-0.8c5.1-1.5,9.9-3.4,14.5-5.8c2.1-1.1,4.2-2.1,6-3.6
		c5.2-4.2,11.1-7.4,16-12c5.6-5.3,12.6-6.2,19.4-4.4C362,350.4,373.4,354.5,385,358.2z"/>
	<path fill="#FFFFFF" d="M274.2,438c-3,0.1-4.3,2.8-6.4,4.3c0.5,2.7,2.1,4.9,3.8,6.9c5.2,6,6.5,13.3,7.3,20.7c0.3,3-1,6.2-1.1,9.4
		c-0.3,6.3-0.8,12.5-1.2,18.8c-0.2,2.5-0.2,5.1-1.7,7.2c0.5,0.8,1.4,16.5,1.3,17.7c-0.1,1-0.7,1.4-1.7,1.9c-0.3-1.5-0.7-2.9-1.1-4.9
		c-2,3-1.1,5.9-1.2,8.8c-2.6,1.1-5.3,1.7-8.4,1.3c0.1-1.6,0.7-3-0.3-4.3c-1.1,0.6-0.4,2-1.1,2.6c-1.1-0.4-1.7-1.3-2.8-2.1
		c1.2-5.9,0.3-11.9-0.4-17.9c-0.6-5.5-2.9-10.4-4.7-15.5c-0.6-1.7-0.8-3.7-2.6-4.9c-0.6-0.4-0.4-1.3-0.4-2.1
		c-0.2-3.7-1.1-7.2-2.8-11.2c-0.9,1.4-0.6,2.3-0.5,3.2c0.1,0.9,0.6,1.8,0.2,3.3c-3-5.9-5.5-11.5-4.9-18c0.4-3.8,0.4-7.7-0.4-11.4
		c-0.6-2.7-1.3-5.3-2.4-7.9c-1.6-4-2.4-8.1-3.3-12.3c-0.2-1-0.3-1.9,0.2-2.8c0.8-1.5,0.9-3,0.9-4.6c0.1-3.3,1.8-5.8,4.5-7.6
		c2.8-1.9,5.6-3.8,7.8-6.5c1.6-2,4.3-2.1,6.4-3.6c3.4,1.9,7,2.9,10,5.2c3.8,2.9,6.1,7.1,8.2,11.2c1.8,3.7,3.1,7.7,4.5,11.6
		c0.9,2.6-0.8,4.7-0.8,7.2c-2.8,0.9-5.6,1.7-8.8,3.3C271.3,442,273.4,440.3,274.2,438c0.2-0.4,0.2-0.8,0.3-1.2
		C274.4,437.2,274.4,437.6,274.2,438z"/>
	<path fill="#FFFFFF" d="M207.8,490c-2.1,1.1-4.1,1-6.2,1.2c-0.9-2-0.7-4.4-2.5-6.5c-0.7,2.2-0.1,4-0.3,6c-3.3,0.1-6.5-0.5-9.5-1.3
		c-1.1-2-0.8-4-1.1-5.8c-1.2-6.8-3.6-13.3-5.7-19.9c-3-9.3-5.5-18.7-7.3-28.3c-0.4-2.2-1.2-4.3-2-6.3c-1.8-4.7-2.3-9.4-1-14.3
		c0.4-1.3-0.1-2.5-0.8-3.6c-1-1.6-1-3.1-0.3-4.8c0.7-2,1.1-4.1,1.8-6.1c0.7-1.9,1.8-3.3,4.2-3.7c1.6-0.3,3.3-1.4,4.6-2.6
		c3.7-3.6,8.8-4,13.3-5.6c1.5-0.5,3.1-0.8,4.5-1.1c4.9,2.3,8,6,9,11.3c1.1,5.4,2.3,10.8,2.9,16.3c0.2,1.7,1,3.2,1.9,4.7
		c0.6,1.1,1.7,1.9,1.9,3.5c-4.4-0.8-8.6-0.2-12.9-0.2c1.6,7.1,4.8,13.5,5,20.4c0.1,4.7,0,9.5-0.7,14.2c-0.1,0.4,0,1-0.3,1.2
		c-2.7,2.8-1.5,6.1-1.2,9.3c0.5,5.1,0.1,10.2,0.9,15.3C206.6,485.4,207.7,487.5,207.8,490z"/>
	<path fill="#FFFFFF" d="M490.1,423.4c0,1,1,1.2,1.1,1.9c-0.3,0.3-0.6,0-0.8-0.1c-8.7-4.4-13.2-11.4-14-21.2
		c-0.4-5.5,0.2-11-0.4-16.5c-0.1-0.8,0.2-1.7,0.5-2.5c4.3-12.2,10.3-23.3,21-31.2c3.1-2.3,6.4-3.7,10.3-3.6c2.9,0.1,5.9-0.7,9.5,0.7
		c-11.6,1.5-18.1,8.9-23.1,18c7.1-7.5,13.5-16.1,25.8-16.8c4.7,1.7,7.3,6.2,9.5,11.3c-6.4,5.1-12.3,10.6-16.3,17.9
		c-6.7,2.1-10.8,8.2-9.8,14.3c0.6,3.7,4,6.7,7.7,6.9c1.7,0.1,2.5-1.4,4.1-2c3.6,1.2,7.3,2.4,10.9,3.6c0.6,1.1,0,1.9-0.3,2.6
		c-2,5.4-5.4,9.9-9.2,14c-3.5,3.9-8.3,5.2-13.3,6.3c-4.4,1-8.1,0.3-11.3-2.8C491.4,423.8,491,423.3,490.1,423.4z"/>
	<path fill="#FFFFFF" d="M286.2,316.6c1.4-2.1,0.1-3.3-1.6-3.8c-1.4-0.4-2.9-0.7-4.3-1c-1.1-0.2-2.2,0-3.1,0.6
		c-2.6,1.7-4.2,4.2-4.2,7.1s1.6,5.5,4.1,7.1c2.4,1.6,4.2,1.1,6.6-1.3c4,1.3,8.1,2.6,12.6,4.1c-3.7,4.8-7.1,9.8-12.1,12.7
		c-4.3,2.5-9.6,2.7-14.6,2.5c-3.3-0.1-6.5-0.7-9.7-1.9c-5.2-2-8.2-5.8-10-10.9c-2-5.8-2.6-11.8-1.9-17.9c0.5-3.7,1.3-7.2,3.8-10.3
		c2-2.6,3.7-5.4,5.8-8c4.3-5.3,9.8-7,16.4-6.4c1.2,0.1,2.3,0.1,3.5,0.1c15.3,0.1,23.4,15.4,21.6,26.1c-0.3,1.6,0,3.2-0.7,5.1
		C294.4,319.3,290.2,318.5,286.2,316.6L286.2,316.6z"/>
	<path fill="#FFFFFF" d="M398.3,359.8c1.5,1,1.4,2.7,1.8,4.2c4.5-2.5,6.8,2.5,10.8,2.4c-3.2,5.4-0.8,10.2,0.1,15.1
		c-0.9,0.1-0.8-1.3-2.4-0.8c3.8,4.4,6,9.7,10.6,13.4c3.8,3,8,5.5,11.2,9.3c2.3,2.7,2.8,6.1,4.3,9.1c0.4,0.8-0.1,1.9-0.5,2.8
		c-1,2-1.8,4.1-3.1,5.8c-0.9,0-1-1.2-2-0.9c-0.8,1.6,0.6,2.3,1.5,3.3c0.3,3.3-2,5.2-4.2,6.6c-2.7,1.6-5.8,3-9.2,2.9
		c-2.2,0-4.2-0.5-5.3-2.7c-0.4-0.7-1-1.6-1.7-1.8c-5-2-6-6.6-7-11c-1.9-8.8-3-17.8-3.3-26.8c-0.4-10.3-4.7-19.3-10.2-27.7
		c-1.7-2.6-3-4.9-1.9-8.2c0.5-1.4,0.7-3.1,0-4.8c2.3-0.4,4-1.7,6.2-1.5c0.9,2.9-1.1,4.2-3.3,5.7c3,0.7,4.5,2.8,6.6,4.4
		C398,358.7,398.3,359.2,398.3,359.8z"/>
	<path fill="#FFFFFF" d="M163.5,510.6c2.9,4.3,4.1,4.7,6.1,2.4c-0.1-1.1-1.6-1-1.8-2c0.7-0.3,1.3,0.7,2.1,0.1
		c0.7-1.3-1.2-2.1-0.8-3.6c1.5,0.4,1.6,3,3.7,2.3c1.4-1.7-0.9-2.8-0.7-4.5c1.6,1.9,1.9,5.2,5.3,4.5c0.7-1.7-0.7-2.5-1.1-3.6
		c-0.5-1.2-1.3-2.2-1-4c2.2,2.4,2.6,6.1,6.9,6.5c-0.7-3.6-3.4-5.7-4.4-8.7c0.2-0.6,0.7-1,1.4-1.5c1.1,3,1.2,6.5,5,8.1
		c0.4-2.4-1.3-3.9-1.3-5.9c1.4,0.9,2.2,2.3,3.5,2.8c2.3-0.9,0.5-2.2,0.3-3.4c1.3,0.2,2.1,1.3,3.4,1.1c-1.3-3.3-4.7-5.2-5.2-9.1
		c1.4,0.1,0.9,1.4,1.4,1.4c1,0.3,0.8-0.8,1.6-0.5c1.1,0.8,1.5,2.1,1.6,3.3c0.3,3.9,3.1,4.9,6.2,5.8c1.9,0.6,3.9,0.5,5.8,1.4
		c2.2,0.9,7-2.6,7.1-5.2c0.1-2.7,2.1-3.6,3.2-5.4c1.3,0.8,1.6,2.1,1.4,3.2c-0.7,4.3,1.6,7.7,3.9,10.7c1.9,2.5,2.2,5.6,3.7,8.1
		c-5,4.5-10.5,8-17.6,7.6c-1.4-0.1-2.6-0.2-3.9-1.1c-3-2.1-6-2.3-9,0.3c-2.6,2.2-6.1,2.9-8.9,4.3c-1.3,0.8,0.1,1.4-0.3,2.3
		c-2.2,1.5-5,2-7.7,2.2c-6.5,0.6-12.9,0-19.3-1.3c-3.5-0.7-6.6-2.2-7.3-6.5c-0.6-3.4-0.5-4.1,2.4-6.1
		C153.6,513.6,158.6,512.4,163.5,510.6z"/>
	<path fill="#FFFFFF" d="M325.9,430.2c1.5-2.3,4.3-2.6,6.4-4c1.5-1,3.5-1.5,5.1-2.6c7.5-4.9,16-7.8,24.2-11.3
		c5.4-2.3,11.1-2.6,16.9-2.2c7,0.5,14,0.7,21-1.5c0.5,2.6,1.5,4.9,2.4,7.2c-0.7,1.4-2,1.4-3,1.8c-10.5,3.8-21,7.5-31.6,11
		c-3.7,1.2-7.3,2.9-11,4.3c-5.2,2-10.4,3.7-15.9,4.7c-6.4,1.2-12.5,3.3-18.6,5.6c-0.6,0.2-1.2,0.5-1.8,0.7
		c-8.6,1.6-16.5,5.4-24.7,8.4c-1,0.4-2,0.6-3.1,0.6c3.2-1.3,5.3-4.4,8.7-5.1c3.6-6.1,6.7-8.9,9-8.2c1.5-2.6,4.1-3.7,6.6-5
		c0.8,1,0.2,2.2,0.8,3.2c0.9-1.2,0.7-2.5,1.1-4.1C320.8,432.5,322.6,429.8,325.9,430.2L325.9,430.2z"/>
	<path fill="#FFFFFF" d="M586.7,410.2c-2.4,3.1-4.7,5.9-1.8,9.9c0.3-3.2-0.2-6.4,3.1-8.5c0.3,1.7,0.6,3,0.7,4.4
		c0.3,4.3-2.1,6.1-6.1,4.8c-8.5-2.7-17-5.5-25.4-8.2c-14.1-4.6-28.3-9.2-42.4-13.7c-2.3-0.7-4.4-1.4-4.8-4.3c-0.3-2.8,0.6-5,3.1-6.8
		C537.4,395.1,561.8,402.6,586.7,410.2z"/>
	<path fill="#FFFFFF" d="M398.3,359.8c-0.4-0.4-0.7-0.8-1.1-1.3c0-1.7-0.7-3.2-1.8-4.2c0.9-5.2,4.2-7.6,8.8-6.2
		c-1.7,1-3.1,1.7-4.5,2.6c-2.7,1.8-2.7,5.6,0.1,7c1.5,0.8,1.8,0.7,4.6-1.9c10.7,0.7,20.4,5.1,30.6,8c13.1,3.7,26,7.9,39,11.9
		c1,0.3,2.1,0.4,3.1,1.3c-0.2,2.9-1.6,5.6-2.3,8.3c-0.9,0.4-1.6,0.1-2.3-0.2c-20-6.5-39.9-13.1-59.9-19.5
		C407.6,364,403.1,361.6,398.3,359.8z"/>
	<path fill="#FFFFFF" d="M435.3,418.1c-1.7,16.6,0.6,33.1,0.9,49.8c-3.8,2.1-7.7,3.2-12,4.1c-1.7-12.7-1-25.4-2-38.1
		c2.8-1.1,5.6-2,7.6-4.4c1.4-1.6,2.4-3.1,2.8-5.2C433.1,422.1,433.5,419.8,435.3,418.1z"/>
	<path fill="#FFFFFF" d="M343.8,342.8c-0.9-2-3-1.9-4.4-1.8c-4.1,0.1-7.6-1.7-11.3-2.8c-15.4-4.9-30.7-9.9-46-14.9
		c-0.1,0-0.2-0.1-0.3-0.1c-2.7-0.9-3.7-2.2-3.2-3.9c0.6-2.1,2-2.6,4.9-1.8c6.7,2,13.4,4.1,20.1,6.1c11.1,3.4,22.1,6.8,33.4,10.2
		c0.1,1.8,0.1,3.8,2.3,4.6c0.6-1.3-1.3-1.9-0.8-3.2c1.2-1.4,2.4-2.8,3.6-4.2c0.2,0.2,0.4,0.3,0.7,0.5c-0.9,1.1-1.8,2.3-2.7,3.4
		c0.2,1.2,0.4,2.4,0.6,3.6c0.7,0.5,1.1,0.1,1.5-0.6C342.7,339.7,345.8,340.3,343.8,342.8L343.8,342.8z"/>
	<path fill="#FFFFFF" d="M397,383.4c0.6,7.5,2.5,15.3,2.1,23.2c-9.5,2.8-14.9,0.8-19-7c-2.7-5.1-0.4-11.2,6.2-16.8
		C389.6,383.7,393,381.5,397,383.4z"/>
	<path fill="#FFFFFF" d="M352.3,346.1c-2-2.6,1.4-5.4-1.8-7.4c0.2-0.1,0.5-0.2,0.7-0.4c11.7,3.6,23.4,7.1,35.1,10.7
		c0.1,2.7-0.2,5.1-1,7.8C374.1,353.2,363,349.6,352.3,346.1z"/>
	<path fill="#FFFFFF" d="M518.2,386.7c0.8-0.5,0.4-1.6,1.6-2.1c7.2-2.9,14.4-6.1,21.6-9.1c1.6,4.3,2.3,10.4,1.4,12.6
		c-0.7,0.7-1.6,0.5-2.4,0.4c-6.1-0.3-12.2,0-18.3,0c-3.3,0-6.6-1.4-9.6-2.5c-5.4,2.8-6.8,11,0.5,14.1c-2.5,1.6-4.3,0.3-5.8-1.4
		c-1.9-2.1-2.7-4.6-1.5-7.3c0.9-2,2.1-3.9,3.5-5.7c2.6-3.1,5.3-3.1,7.9,0.2C517.4,386.2,517.5,386.7,518.2,386.7z"/>
	<path fill="#FFFFFF" d="M430.1,400.1c-3.4-2.8-6.8-4.9-10.2-7.2c-2.1-1.4-3.3-3.8-4.5-6.1c-1.8-3.5-2.8-7.3-3.4-11.1
		c6.7-2.4,13.3,1,15.7,7.4C430.5,390.3,431.2,394.6,430.1,400.1z"/>
	<path fill="#FFFFFF" d="M422.8,471.8c-2.1-0.8-3.8-1.4-5.4-2c0.9-11.6-1.1-23-1.5-34.6c1.9-0.2,3.4,0.3,5.2-0.9
		C421.6,447,421.4,459.3,422.8,471.8z"/>
	<path fill="#FFFFFF" d="M432.7,355.8c-3.3-0.1-1.4,3.4-3.4,4.7c-3.7-1.1-7.7-2.3-11.9-3.6c-0.2-6-4.8-6.9-9.6-7.7
		c1.4-0.9,1.4-0.9,5.4-0.1c5.3-3.8,11.3-0.9,16.7-1.9C432.3,349.7,432.3,352.7,432.7,355.8z"/>
	<path fill="#FFFFFF" d="M238.3,445.4c2.2,3.5,3.3,8,2.9,12.2c-3.2-1.6-6.4-2.9-8.7-5.7c-2.4-2.8-5.8-4.2-9-5.8
		c-1.5-0.8-3.1-1.4-4.5-2.3c-2.6-1.6-4.3-3.6-4.5-7.2c3,3.4,6.2,5.8,9.8,8.1c1-0.4,2.1-0.9,3.4-1.4c0.7,1.3,0.3,3,1.4,4.2
		c0.6-1.5-0.1-3,0-4.5c0.7-1,1.8-1.3,3-1.7c1.3,3.4,1,7.1,2.5,10.3c0.2-3.5-0.7-6.9-1.2-10.3c1.4,0,1-2.2,2.8-2.2
		C237.6,440.9,237,443.6,238.3,445.4c-0.4,1.5-0.3,3,0,4.4c0.2,0.2,0.2,0.3,0.1,0.2c-0.2-0.2-0.3-0.5-0.3-0.8
		C238.1,447.9,237.8,446.6,238.3,445.4z"/>
	<path fill="#FFFFFF" d="M515.8,382.5c0-1.8,0.9-3.1,1.9-4.2c2.1-2.5,4.3-5,6.5-7.4c1.8-2,3.9-3.5,5.4-5.8c0.8-1.3,4.2-1.8,5.6-1
		c1.7,0.9,1.7,2.5,1.6,4.2c-0.1,0.9-0.5,1.6-1.2,2.1c-1.1,0.8-2.2,1.7-3.5,2.2C526.1,375.2,520.5,377.9,515.8,382.5z"/>
	<path fill="#FFFFFF" d="M190,491.9c5.9,1.3,11.8,2.4,17.7,0.4c0.9,4.1-0.6,7-4.5,9.3C197,500.7,190.7,500.1,190,491.9z"/>
	<path fill="#FFFFFF" d="M222.1,440.4c-5.3-5.3-12.8-8.1-14.4-16.5c3.3-0.2,6.2,1.5,9.2,1.2C219.6,428.4,221.1,432.7,222.1,440.4z"
		/>
	<path fill="#FFFFFF" d="M343.8,342.8c-0.7,0.7-1.3,1.4-2,2.2c-4.5,0.3-8.3,2.6-12.1,5.1c-3.7,2.4-7.4,4.7-10.7,7.7
		c3.5-5.9,9.1-10.3,11.6-16.6c0.8-0.3,1.3,0.1,1.8,0.5c0.2,0.9-1.4,0.9-1,2C335.4,341.1,339.6,342.7,343.8,342.8L343.8,342.8z"/>
	<path fill="#FFFFFF" d="M247.3,306.6c0,1.8-0.3,3.3-0.9,5.2c-4.8-2.1-10.5-2.2-14.6-6.2c1.2-2.5,2.6-3.2,4.8-2.4
		C240.1,304.4,243.6,305.5,247.3,306.6z"/>
	<path fill="#FFFFFF" d="M405.9,354.2c-0.7-0.8-1.3-1.5-1.8-2.2c-1.4,1,0.1,2.1-0.7,3.3c-0.5,0.4-1.3,0.9-2,1.4
		c-2.6-0.5-2.2-2.1-1.7-4c2.1-0.8,3.6-3.4,6.6-2.3c0,0.9-1.3,0.6-1,1.7c1.5,0.7,2.8-0.6,4.3-1.1c2.1,1.2,5.8,0.7,5.8,4.8
		c-2.2-0.2-2.2-0.2-3.9-2.3C409.8,354.2,408,354.7,405.9,354.2z"/>
	<path fill="#FFFFFF" d="M276.4,526.7c1.2,2.5,2.2,4.6,3.3,6.9c-0.4,0.9-0.9,2-1.4,3c-1.8,0.4-3.3-0.2-5-0.6
		c-0.4-1.8-0.6-3.8-3.7-4.4C273,530.8,275,529.3,276.4,526.7z"/>
	<path fill="#FFFFFF" d="M286.3,316.5c-1.3,0.2-2.5-0.3-3.6-0.9c-1.1-0.5-2-0.3-3,0.3c-1.5,0.9-3.1,1.8-2.9,3.8s1.3,3.8,3.4,4.6
		c0.6,0.2,1.2,0.3,1.7,0.8c-1.9,1.2-4.3,0.5-5.6-1.7c-2-3.2-1.1-7,2.3-9.4C280.7,312.4,284,313.5,286.3,316.5L286.3,316.5z"/>
	<path fill="#FFFFFF" d="M347.2,339.9c-0.8-1.8-3.5-0.3-3.3-2.8c5.5-0.6,5.9-0.1,6,7.4c-0.9,0.6-1.8,0.2-2.8,0.2c-0.8,0-1.7,0-2.9,0
		C345.7,343.2,346.6,341.6,347.2,339.9z"/>
	<path fill="#FFFFFF" d="M412.7,368.8c4.1,0.6,8.9-0.6,11.3,4.3c-1.4-0.3-2.2-1.6-3.5-1.4c-1,1.2,0.8,1.3,0.6,2.2
		C417.3,373.7,415.8,369.9,412.7,368.8z"/>
	<path fill="#FFFFFF" d="M272.7,447.2c1.6-1.4,3.6-2,5.7-3c-0.2,3.2-0.5,6.2-0.7,9.5C275.7,451.5,275.2,448.5,272.7,447.2z"/>
	<path fill="#FFFFFF" d="M520.5,382.3c3-3,6.6-4.9,10.2-6.9c0.9,1.4,0.4,2.1-0.7,2.6C526.8,379.5,523.6,380.9,520.5,382.3z"/>
	<path fill="#FFFFFF" d="M346.9,335c1.7-1.7,3.7-1.4,5.4-1.7c1.2,1.3,2,2.6,2.6,4c-1.9,0.9-1.9-0.8-2.6-1.7
		C350.6,336.1,348.9,336,346.9,335z"/>
	<path fill="#FFFFFF" d="M341.8,335.5c1.8-2.6,3.5-5.1,7.3-4C346.6,332.6,345.5,336.2,341.8,335.5z"/>
	<path fill="#FFFFFF" d="M245.2,552.7c-0.2,1.9,1.5,2.3,3.4,3.3c-2.6,0-4.7-0.1-5.7,2.2C243.3,556.1,244.1,554.3,245.2,552.7
		L245.2,552.7z"/>
	<path fill="#FFFFFF" d="M280.8,530.5c-1.3-1.5-1.4-3.5-2-5.7C281.9,526.3,281,528.5,280.8,530.5z"/>
	<path fill="#FFFFFF" d="M430.8,373.5c-2.2,1.5-3.4,0-4.7-0.3C427.5,372.8,428.8,372.6,430.8,373.5z"/>
	<path fill="#FFFFFF" d="M415.8,372.5c-2,0.3-3.2-0.4-4.5-1C412.9,370.3,414,371.6,415.8,372.5z"/>
	<path fill="#FFFFFF" d="M436.1,410.5c-1.6-2.5-1.6-2.5-0.5-3.9C436.4,407.7,436,408.8,436.1,410.5z"/>
	<path fill="#FFFFFF" d="M394.5,377.2c-0.5,1.2-1.5,1.3-2.7,1.2C392.4,377.1,393.5,377.1,394.5,377.2z"/>
	<path fill="#FFFFFF" d="M245.3,552.7c0.7-0.7,1.4-1.8,2.6-0.1C246.9,552.7,246,552.7,245.3,552.7L245.3,552.7z"/>
	<path fill="#FFFFFF" d="M258.9,541.8c-0.9,0-1.8,0-3.3,0C257.1,541.3,258,541.5,258.9,541.8L258.9,541.8z"/>
	<path fill="#FFFFFF" d="M432.3,374.3c-0.3,0.9-0.3,1.6-1.3,1.4C431.1,375.1,431.3,374.5,432.3,374.3z"/>
	<path fill="#FFFFFF" d="M429.8,378.4c-0.6,0-0.6-0.4-0.6-0.8C429.9,377.6,430.1,377.8,429.8,378.4z"/>
	<path d="M701.8,423.9c2.3,1.6,1.2,2.9,0.4,4c-2.4,3.3-5.1,6.5-8.4,9.2c0.8,3.3,1.1,6.7-1.3,9.7c-0.4-0.3-0.7-0.4-0.7-0.5
		c1.1-2.3,0.9-4.6,0.8-7c-0.1-2.7,1.3-5.2,3.1-7.1C698.1,429.9,700.4,427.4,701.8,423.9z"/>
	<path d="M710.1,466.5c0.7,8.7,2.2,17.4,3.4,26.1c-2.2-8.5-4.5-17-4.8-25.8C709.2,466.6,709.6,466.5,710.1,466.5z"/>
	<path d="M717.4,432.9c-2,1.6-2,1.6-5.2,1.4C713.6,432.8,715,431.9,717.4,432.9z"/>
	<path d="M720.5,509.2c0.3,2.6-0.2,5.1-0.4,7.6C719.8,514.3,719.2,511.7,720.5,509.2z"/>
	<path d="M695.1,459.4c-0.4-1.8-0.3-3.5,0.9-5C696.2,456.2,696.6,458,695.1,459.4z"/>
	<path d="M720.5,437.8c0.1-2.5,1-3.1,4.5-3.3C723.8,436.2,721.4,436,720.5,437.8L720.5,437.8z"/>
	<path d="M705.7,427.7c0.8-1.9,2.2-2.1,3.7-2.5C708.2,427.7,708.2,427.7,705.7,427.7z"/>
	<path d="M692.1,467.1c1.2,1.5,1.7,3,1.3,5.2C692.1,470.5,692.2,468.7,692.1,467.1z"/>
	<path d="M703.6,445.4c-0.6,1.2-1.2,2.4-3,2.5C701.1,446.2,702.3,445.8,703.6,445.4z"/>
	<path d="M708.9,443.6c-0.8,1.1-1.7,1.4-3.5,1.3C706.7,443.8,707.4,443.1,708.9,443.6z"/>
	<path d="M699.6,421.4c1.2,0.5,1.9,1,1.3,2.2C699.7,423.3,699.7,422.4,699.6,421.4z"/>
	<path d="M709.7,436.8c0.2-1,0.6-1.4,1.6-1.3C711.2,436.5,710.7,436.9,709.7,436.8z"/>
	<path d="M697.1,450.4c0.4,0.7,0.4,1.2-0.1,2C696.1,451.6,696.3,451.1,697.1,450.4z"/>
	<path d="M692.7,464.9c-0.6-0.7-0.6-1.2,0-1.7C693.4,463.6,693.5,464.1,692.7,464.9z"/>
	<path d="M707.9,463.4c0-0.7,0-1,0-1.4C708.5,462.2,708.7,462.5,707.9,463.4z"/>
	<path d="M631.4,411c1.1-0.2,1.9-0.8,2.7-1.3c2.9,0.9,5.6,1.9,8.5,2.8c1.1-1.9,2.8-2.4,4.9-2.4C643.9,415.6,639.8,415.8,631.4,411z"
		/>
	<path d="M632.4,452.4c-1.6-3-2.6-6.1-2.2-9.9C632.7,444,633.1,446.3,632.4,452.4z"/>
	<path d="M631.6,422.2c-0.5,2.9-2.5,4.6-7.1,5.8C627.2,426.5,628.5,423.5,631.6,422.2z"/>
	<path d="M634.7,455.2c2.4,1.3,1.6,4.2,3.4,5.6C634.3,459.5,633.8,458.6,634.7,455.2z"/>
	<path d="M632.9,423.1c0.6-2.4,0.7-4.7,1.8-6.8C636.6,418.1,636,420.1,632.9,423.1z"/>
	<path d="M640.1,484.6c1.2,1.6,2,3,2,5.1C639.9,488.3,640.4,486.5,640.1,484.6z"/>
	<path d="M654.6,408.3c-1.6,1.4-3,1.5-4.8,1.4C651.2,408,652.5,408.1,654.6,408.3z"/>
	<path d="M644.7,476.5c-0.1-1.2-0.2-2.3-0.4-3.5c1.2,1,1.4,2.2,1.1,3.4C645.2,476.4,644.9,476.4,644.7,476.5z"/>
	<path d="M632.3,427.2c0.9,1.7,0.1,2.4-1,3.4C631,429.2,631.6,428.4,632.3,427.2z"/>
	<path d="M631.7,459.9c-0.5-0.8-1.1-1.5-1-2.5C631.6,458.3,631.6,458.3,631.7,459.9z"/>
	<path d="M639.1,461.6c1.3,0.3,1.6,1,1.9,2.1C639.8,463.6,639.1,463.1,639.1,461.6z"/>
	<path d="M645.4,481.5c-1.4-0.5-0.7-1.4-1.1-2.1C645.8,479.8,645.1,480.6,645.4,481.5z"/>
	<path d="M641.9,430.8c-0.3,0.9-0.6,1.5-1.5,1.9C640.3,431.6,640.5,430.9,641.9,430.8z"/>
	<path d="M644.6,424.6c0.4,1.4-0.3,1.7-1.1,2.1C643,425.4,643.9,425.3,644.6,424.6z"/>
	<path d="M647.1,421.3c-0.3,1.3-1,1-1.7,0.8C645.7,421.6,646.1,421.2,647.1,421.3z"/>
	<path d="M648.3,467.6c-1.1,0.2-1.6-0.1-1.7-0.9C647.5,466.1,647.9,466.6,648.3,467.6z"/>
	<path d="M623.8,404.7c0.7,0.3,1.1,0.7,0.6,1.7C623.9,405.8,623.3,405.5,623.8,404.7z"/>
	<path d="M642.6,464.1c1-0.2,1.1,0.3,1.2,0.8C643,465.2,642.8,464.8,642.6,464.1z"/>
	<path d="M939.1,296.2c-2-3.4-2.4-5.4-1.8-7.9c0.4,0,0.5,0.3,0.6,0.6C938.3,291.1,938.7,293.3,939.1,296.2z"/>
	<path d="M938.9,269.2c0-2.4,1.1-3.9,1.4-5.8C941.4,265.1,941.2,266,938.9,269.2z"/>
	<path d="M706.3,217.8c-5.3,4-6.7,10.4-9.5,15.9C697.9,227.2,701.9,219.3,706.3,217.8z"/>
	<path d="M695.3,246.9c-0.7-2.5-0.9-5,0.4-7.5C695.4,242,695.7,244.5,695.3,246.9z"/>
	<path d="M699.4,256.8c-1.7-1.2-2.5-2.8-2.4-4.9C697.8,253.6,698.6,255.2,699.4,256.8z"/>
	<path d="M704,262.7c-1.6-0.4-2.8-1.2-3.1-2.8C701.9,260.9,703,261.8,704,262.7z"/>
	<path d="M806.6,419.5c-6.1,3-12.4,5.2-19.1,6.5C793.7,423.2,800.3,421.8,806.6,419.5z"/>
	<path d="M802.1,430.9c1.2-5.3,10-12.9,15.9-13.4C811.1,420.5,805.9,424.9,802.1,430.9z"/>
	<path d="M883.1,398.8c2-3.6,6-6.7,9.1-7.3C888.9,393.6,886.1,396.3,883.1,398.8z"/>
	<path d="M817.6,415.4c2.6-0.9,5.2-1.7,7.9-2.6C823.2,414.7,820.5,415.4,817.6,415.4z"/>
	<path d="M829.6,414.5c1.1,2,0.3,4-0.2,6.2C828.7,418.5,829.4,416.5,829.6,414.5z"/>
	<path d="M890.9,390c1.3-1,2.6-1.8,4.5-1.4C894,390,892.3,389.7,890.9,390z"/>
	<path d="M790.3,433.6c-0.9,0.5-1.8,0.9-3,1.5C788,433.7,789.1,433.7,790.3,433.6z"/>
	<path d="M772.2,430c0.6,0.1,1.2,0.1,2,0.2c-1.2,0.7-2.1,1.2-3.3,0.9C771.4,430.7,771.8,430.3,772.2,430L772.2,430z"/>
	<path d="M640,509.9c0.1-0.8,0.1-1.7,0.4-2.5c0.6-1.4,1.8-2,3.3-1.9c1.4,0.1,2.4,0.9,2.7,2.2c0.2,0.9,0.3,1.8,0.5,2.7
		C643.2,512.7,642.6,512.7,640,509.9L640,509.9z"/>
	<path d="M640,509.9c0,1.2,0.1,2.3-0.7,3.4c-1,1.4-3.2,1.9-4.5,0.9c-1.5-1.1-1.8-2.6-1.1-4.2s2.8-2.2,4.4-1.4
		C638.8,508.8,639.4,509.4,640,509.9L640,509.9z"/>
	<path d="M633.5,515.4c-1.4,0.8-2.1-0.8-3.1-0.6c-1.1,0.4,0.2,1.7-1.1,2.1c-1.4-1.4-1.4-3.5-2.2-5.1c1-1.1,2.1-1.4,3.2-1.5
		c1.4-0.2,2.5,0.5,2.2,1.9C632.2,513.5,632.9,514.5,633.5,515.4z"/>
	<path d="M684.6,445.2c0.1,1.5,0.1,3,0.2,4.5v-0.1C683.7,448.3,684,446.8,684.6,445.2L684.6,445.2z"/>
	<path d="M684.8,449.7c0.3,0.7,0.5,1.3,0,2.1C684.8,451.1,684.8,450.4,684.8,449.7L684.8,449.7z"/>
	<path d="M344.7,399c-2.8,7.7-5.4,15.6-10.1,22.5C338.1,414.1,340.9,406.3,344.7,399z"/>
	<path d="M315.1,372.1c4.3,0.2,8.6,0.4,12.8,0.7C323.6,373.5,319.3,373.5,315.1,372.1z"/>
	<path d="M339.4,391.6c-0.6,1.8-1.3,2.6-2.3,3.3C337.3,393.3,337.3,393.3,339.4,391.6z"/>
	<path d="M333.4,371.5c-1.2-0.2-2.4,0.1-3.3-1C331.1,371,332.5,370.5,333.4,371.5L333.4,371.5z"/>
	<path d="M382.2,370.7c0.6,1.1,1,2,0.8,3.4C382.5,372.9,382,372,382.2,370.7z"/>
	<path d="M343.9,352c0.2,0,0.4-0.1,0.5-0.1l0.1,0.1C344.4,352.2,344.1,352.3,343.9,352z"/>
	<path d="M389.6,371.8c-0.9-0.1-1-0.6-1.2-1.2C389.3,370.7,389.5,371.2,389.6,371.8z"/>
	<path d="M333.4,371.6c0.6,0,1.1,0,2,0C334.4,372.2,333.9,371.9,333.4,371.6L333.4,371.6z"/>
	<path d="M255.5,424.1c2.3,1.6,1.2,3,0.4,4c-2.5,3.3-5.1,6.5-8.5,9.2c0.9,3.4,1.1,6.7-1.3,9.7c-0.4-0.3-0.7-0.5-0.7-0.5
		c1.2-2.3,0.9-4.6,0.8-7c-0.1-2.7,1.3-5.2,3.2-7.1C251.8,430,254.1,427.6,255.5,424.1z"/>
	<path d="M266.5,492.8c-1.3-8.7-4-17.1-3.6-26c2,4.1,1.3,8.6,2.3,12.9s1.6,8.7,2.5,13C267.3,492.7,266.9,492.7,266.5,492.8z"/>
	<path d="M271.2,432.9c-1.7,2.3-3.5,1.5-5.7,2.1C267.3,432.9,268.7,432.2,271.2,432.9z"/>
	<path d="M273.9,517c-0.5-2.5-0.9-5,0.2-7.6C274.6,511.9,273.8,514.5,273.9,517z"/>
	<path d="M249.6,454.6c0.2,1.7,0.8,3.6-0.9,5.5C248.2,457.9,248.6,456.2,249.6,454.6z"/>
	<path d="M263.1,425.7c-0.8,1.2-1.4,2.9-3.7,2.2C260.2,425.9,261.6,425.8,263.1,425.7z"/>
	<path d="M274.2,438c0.1-2.5,1-3.1,4.5-3.3C277.5,436.4,275.1,436.2,274.2,438L274.2,438z"/>
	<path d="M245.9,467.2c1.2,1.4,1.5,3,1.3,5.2C245.9,470.6,245.6,469,245.9,467.2z"/>
	<path d="M254.2,448.2c0.5-1.8,1.8-2.2,3.4-3.2C256.8,446.9,256.1,447.9,254.2,448.2z"/>
	<path d="M262.8,443.7c-1.1,1.3-2,1.6-3.5,1.6C260.2,443.9,261.1,443.5,262.8,443.7z"/>
	<path d="M263.5,437.1c0.1-1.1,0.5-1.5,1.4-1.5C265.1,436.6,264.5,436.9,263.5,437.1z"/>
	<path d="M253.1,421.6c1.4,0.5,1.9,1,1.5,2.1C253.4,423.6,253.6,422.7,253.1,421.6z"/>
	<path d="M250.7,452.6c-1-0.8-0.7-1.3,0.1-2C251.2,451.2,251.2,451.8,250.7,452.6z"/>
	<path d="M246.4,463.2c0.7,0.8,0.8,1.4,0,1.8C245.7,464.4,246,463.9,246.4,463.2z"/>
	<path d="M261.7,462.2c0.4,0.2,0.6,0.5,0.3,1C261.2,463,261.4,462.6,261.7,462.2z"/>
	<path d="M185,411.4c1.3,0,1.9-1.3,2.9-1.4c2.8,0.9,5.5,1.8,8.4,2.8c1-1.9,2.7-2.4,4.7-2.4c-1.5,2.7-4.6,4.4-7.7,4.5
		C190.1,415,188,412.4,185,411.4z"/>
	<path d="M184.5,443c2.6,2.8,1.6,6.3,1.8,9.6C184.3,449.7,183.7,446.5,184.5,443z"/>
	<path d="M178.4,428.3c2.4-1.7,4-4.5,6.8-6C185.1,425,183.5,426.4,178.4,428.3z"/>
	<path d="M191.5,461.2c-3.6-1.8-3.7-2.1-3.4-5.9C190.6,456.7,190.2,459.4,191.5,461.2z"/>
	<path d="M186.8,422.9c0.7-2.1,0.3-4.5,1.8-6.5C190.1,418.6,189.8,420,186.8,422.9z"/>
	<path d="M194,485.1c1.1,1.2,1.7,2.6,1.8,4.4C194,488.3,194,488.3,194,485.1z"/>
	<path d="M203.3,409.8c1.7-1.5,3-1.7,4.8-1.2C206.7,409.9,205.4,410,203.3,409.8z"/>
	<path d="M198.4,476.7c-0.1-1.2-0.3-2.3-0.4-3.5c1.3,0.9,1.4,2.1,1.2,3.3C198.9,476.6,198.6,476.6,198.4,476.7z"/>
	<path d="M185.9,427.8c0.9,1.3,0.2,2.1-0.8,2.8C184.4,429.4,185.5,428.7,185.9,427.8z"/>
	<path d="M185.5,460c-0.8-0.7-1.2-1.5-1.3-2.7C185.9,457.9,185,459.2,185.5,460z"/>
	<path d="M194.7,463.9c-1.4-0.2-2-0.6-1.8-2C194.1,461.9,194.4,462.7,194.7,463.9z"/>
	<path d="M198.5,479.2c0.4,1,0.7,1.5,0.2,2.4C198,480.9,197.9,480.3,198.5,479.2z"/>
	<path d="M196.9,426.8c0.1-1.1,0.6-1.5,1.6-2C198.4,426,198.1,426.6,196.9,426.8z"/>
	<path d="M198.8,422.3c0.7-0.4,1.1-1,1.9-0.7C200.6,422.6,199.9,422.5,198.8,422.3z"/>
	<path d="M193.6,433c0.5-1.2,0.6-1.9,1.9-2.2C195.3,431.9,195,432.5,193.6,433z"/>
	<path d="M202,467.7c-1.1,0.4-1.4-0.2-1.9-0.6C201.2,466.8,201.2,466.8,202,467.7z"/>
	<path d="M178.1,406.4c-0.7-0.3-0.9-0.8-0.7-1.5C178.4,405.1,178.6,405.6,178.1,406.4z"/>
	<path d="M181.7,439.6c0.7,0.2,0.7,0.7,0.3,1.4C181.3,440.6,181.3,440.2,181.7,439.6z"/>
	<path d="M197.5,465.1c-0.9,0.4-1-0.2-1.2-0.7C197.2,464,197.4,464.4,197.5,465.1z"/>
	<path d="M492.3,371.7c0,2.8-1.2,4.2-2.6,5.6C489.9,375.4,490.8,373.8,492.3,371.7z"/>
	<path d="M485.5,397.3c0,2.4,0,4.7,0,7.1C484.4,402.4,484.3,400.2,485.5,397.3z"/>
	<path d="M254.5,308.2c2.6-6.1,5.3-12,11.8-15.1C260.4,296.7,258.2,303,254.5,308.2z"/>
	<path d="M251.3,321.8c-0.5-2.8-0.4-5.4,1.1-7.8C252.5,316.8,251.5,319.3,251.3,321.8z"/>
	<path d="M252,327.3c0.9,1.7,1.6,3.5,2,6.2C252.4,331.2,252,329.3,252,327.3z"/>
	<path d="M269.7,291.4c1-1.3,2.5-1.5,4.5-1.9C272.7,291.4,271,290.9,269.7,291.4z"/>
	<path d="M258.1,339.4c-1.5-0.4-2.4-1.3-2.6-2.8C256.3,337.5,257.2,338.5,258.1,339.4z"/>
	<path d="M424.7,399.7c3.1,3.5,6.4,7,5.6,12.3C428.3,408,427.4,403.4,424.7,399.7z"/>
	<path d="M399.8,373c1.5,2.9,0.6,6.3,1.6,9.3c-0.3,0.1-0.6,0.1-0.9,0.2c-0.6-3.1-1.2-6.1-1.9-9.2C399,373.1,399.4,373.1,399.8,373z"
		/>
	<path d="M421.7,402c-1.8-0.1-1.9-1.8-2.6-2.9c-0.8-1.3-1.3-2.8-2-4.3C419.4,395.1,420.1,396.2,421.7,402L421.7,402z"/>
	<path d="M414.5,426.3c2.1,2,4.4,1.5,6.8,1.2c-1.3,2.2-3.5,1.4-5.3,1.6C415,429.1,413.9,428.2,414.5,426.3z"/>
	<path d="M412.6,426c-1.8-1.5-2.9-3-3.5-4.9C410.6,422.2,412.7,423,412.6,426z"/>
	<path d="M408.3,377c-1.3-1.4-1.4-3.2-1.5-5C408.4,373.4,408.3,375.2,408.3,377z"/>
	<path d="M422.8,404.8c1.3,0.9,3,1.5,2.4,4C423.6,407.7,423.5,406.1,422.8,404.8L422.8,404.8z"/>
	<path d="M427.4,415.5c-1.2-1.2-1.4-2.7-1.7-4.2c0.2-0.1,0.5-0.2,0.7-0.2C426.7,412.5,427,414,427.4,415.5L427.4,415.5z"/>
	<path d="M399.3,371.2c-0.8-1.3-1.2-2-0.3-3C400.2,368.9,400.1,369.7,399.3,371.2z"/>
	<path d="M419.3,421.9c0.9,0.5,1,1.1,0.8,1.9C418.9,423.6,419.1,422.9,419.3,421.9z"/>
	<path d="M422.8,404.8c-0.6-0.8-1-1.7-1.2-2.8l-0.1,0.1C422.6,402.7,422.9,403.7,422.8,404.8L422.8,404.8z"/>
	<path d="M427.3,415.5c0.6,0.3,1,0.7,1.1,1.4C427.3,416.9,427.4,416.1,427.3,415.5L427.3,415.5z"/>
	<path d="M403.5,405.3c0.3,0.6,0.3,0.8,0.1,1.1C403,406.2,403.2,405.9,403.5,405.3z"/>
	<path d="M191.2,511.4c0.1-0.8,0.1-1.7,0.5-2.5c0.6-1.4,1.8-2,3.3-1.9c1.4,0.1,2.4,0.9,2.7,2.2c0.2,0.9,0.3,1.8,0.5,2.7
		C194.3,514.2,193.7,514.1,191.2,511.4L191.2,511.4z"/>
	<path d="M191.1,511.3c-0.1,1.2,0.1,2.3-0.7,3.4c-1,1.4-3.2,1.9-4.6,0.9c-1.5-1.1-1.8-2.6-1.1-4.2c0.7-1.6,2.8-2.2,4.4-1.4
		C189.9,510.3,190.5,510.9,191.1,511.3L191.1,511.3z"/>
	<path d="M180.3,518.5c-1.3-1.7-1.6-3.5-2.2-5.2c0.7-1.1,1.8-1.3,2.8-1.5c1.6-0.3,2.8,0.3,2.7,2.1c-0.1,1.2,0.3,2.1,1,2.9
		c-1.5,0.9-2.1-0.7-3.1-0.5C180.4,516.6,181.6,517.9,180.3,518.5z"/>
	<path d="M360.3,419.6c-6,3-12.4,5.1-19,6.5C347.5,423.4,354,421.9,360.3,419.6z"/>
	<path d="M355.7,431c1.6-5.5,9.8-12.5,15.4-13.3C364.8,420.8,359.5,425.1,355.7,431z"/>
	<path d="M379.3,413.6c-2.4,1.2-5,1.8-7.8,2c2.5-0.8,5-1.7,7.6-2.5C379.1,413.3,379.2,413.4,379.3,413.6z"/>
	<path d="M383.4,414.7c1,2.2,0.3,4.2-0.4,6.4C382.6,418.7,382.8,416.7,383.4,414.7z"/>
	<path d="M343.8,433.7c-0.8,0.6-1.6,1.3-3,1.4C341.7,433.9,342.8,433.8,343.8,433.7z"/>
	<path d="M325.9,430.2c0.5,0,1,0.1,2,0.2c-1.2,0.7-2,1.2-3.3,1C325.1,430.9,325.5,430.5,325.9,430.2L325.9,430.2z"/>
	<path d="M418.5,348.5c3.9-0.6,4.9,0,5.9,3.6C422.4,350.7,420.4,349.7,418.5,348.5z"/>
	<path d="M421.7,354.5c-1.5-1.2-3.5-1.2-4.5-2.9C419.7,350.8,420.8,351.5,421.7,354.5z"/>
	<path d="M238.5,449.9c-1.1-1.4-0.8-2.9-0.2-4.4v-0.1C238.3,446.9,238.4,448.4,238.5,449.9L238.5,449.9z"/>
	<path d="M238.4,449.9c0.2,0.7,0.5,1.3,0,2.1C238.5,451.3,238.5,450.6,238.4,449.9L238.4,449.9z"/>
	<path d="M329.9,346.2c0.3,1-0.2,1.2-0.9,1.1C328.5,346.3,329.6,346.5,329.9,346.2z"/>
	<path fill="#FFFFFF" d="M645.1,508.1c-1.2,0.5-1.4,1.5-1,2.8c-2-0.5-2.7-1.6-2.1-3.1C642.7,506.3,643.8,506.6,645.1,508.1z"/>
	<path fill="#FFFFFF" d="M636.3,509.4c1.5,0.2,2.1,1.1,2,2.6c-0.1,0.6-0.5,1.1-1.2,1.3c-1,0.2-1.7-0.3-2-1.1
		C634.7,510.9,634.8,509.9,636.3,509.4z"/>
	<path fill="#FFFFFF" d="M629.2,513.5c-0.7-1.9,0.5-1.7,1.7-1.7C631.1,513.2,630.3,513.5,629.2,513.5z"/>
	<path fill="#FFFFFF" d="M195.4,512.2c-1.8,0.1-2.3-0.7-2.5-1.9c-0.1-0.8,0.2-1.5,1-1.8c1-0.4,1.6,0.2,2.1,1
		C195.6,510.3,194.2,510.8,195.4,512.2z"/>
	<path fill="#FFFFFF" d="M187.5,510.8c1.4,0.3,2.1,1.2,1.9,2.7c-0.1,0.7-0.5,1.1-1.2,1.2c-1,0.2-1.6-0.4-1.9-1.2
		C185.8,512.3,186,511.3,187.5,510.8z"/>
	<path fill="#FFFFFF" d="M182.2,513.2c-0.1,1.6-1,1.6-1.8,1.8C179.6,512.9,180.9,513.3,182.2,513.2z"/>
</g>
</svg>
