<?xml version="1.0" encoding="utf-8"?>
<!-- Generator: Adobe Illustrator 19.2.0, SVG Export Plug-In . SVG Version: 6.00 Build 0)  -->
<svg version="1.1" id="Layer_2" xmlns="http://www.w3.org/2000/svg" xmlns:xlink="http://www.w3.org/1999/xlink" x="0px" y="0px"
	 viewBox="0 0 900 600" style="enable-background:new 0 0 900 600;" xml:space="preserve">
<g>
	<path d="M557.7,155.2c0.7-0.4,1.3-0.8,2-1.2c1,0.1,1.1,0.9,0.8,1.5c-0.9,1.6-1.9,3.1-2.9,4.7c-0.7,1.2-1.5,2.3-2.1,3.5
		c-1.2,2.4-2.5,4.6-4.3,6.6c-2.4,2.5-4.4,5.2-5.5,8.6c-0.5,1.8-1.4,3.4-2,5.1c-0.4,1.2-0.7,2.4-0.9,3.7c-0.4,3.7-0.7,7.3-1,11
		c0,0.6,0,1.1,0,1.6c3,3.4,6.1,6.4,8.5,10.1c1.1,1.7,2.7,3.1,4,4.7c1.3,1.5,2.7,2.8,3.9,4.4c3.3,4.3,7.5,7.4,12.6,9.3
		c3,1.1,5.9,2.6,8.8,3.9c0.8,0.3,1.7,0.5,2.5,0.7c0.7,1.5-0.4,2.2-1.1,3c0-0.6,0-1.2,0-1.9c-0.6,0.7-0.2,1.2,0.1,1.8
		c3,6.5,6.9,12.2,12.7,16.5c1,0.7,2.1,1.5,3.1,2.2c1,0.7,2.2,1.2,2.7,2.6c0.2,0.5,0.7,0.9,1.2,1.2c3,2.4,5.9,4.8,9,7
		c1.8,1.3,3.9,2.3,5.9,3.6c1.2,0.8,2.4,1.8,3.5,2.7c0.5,0.4,1,0.9,0.8,1.7c-0.1,0.4,0.5,0.9,0.9,1.3c1.8,1.8,3.7,3.5,5.4,5.4
		c0.8,0.9,1.7,1.9,2.1,3.1c0.8,2.5,2.4,4.4,4.2,6.3c2.9,3.1,6,6.1,8.9,9.2c1.1,1.1,2.4,2.1,2.4,4c0,0.6,0.8,1.4,1.4,1.9
		c2.1,2,4.2,3.9,6.2,5.7c-0.1-1.8-1.9-3.4-1.5-5.9c2.1,2.2,3.1,4.4,3.3,7c0,0.6-0.5,1.2-0.8,2c0.3,1.4,1.3,2.6,2,3.9
		c0.4,0.8,0.9,1.6,1.2,2.5c0.1,0.2-0.1,0.8-0.3,0.9c-0.4,0.2-0.9,0.2-1.2,0.1c-0.3-0.1-0.6-0.4-0.7-0.7c-1-1.9-2.2-3.8-3-5.8
		c-0.6-1.5-1.4-2.9-2.6-4.1c-2.4-2.6-4.8-5.3-6.8-8.2c-1.1-1.6-2.6-2.9-3.9-4.3c-2.1-2.2-4.4-4.4-6.5-6.7c-1.8-1.9-3.5-4-4.3-6.6
		c-0.3-0.8-0.9-1.6-1.5-2.3c-2.8-3.2-5.7-6.3-8.6-9.5c-0.6-0.7-1.3-1.3-2.1-1.7c-5.9-3.2-11-7.5-15.9-12.1c-1.4-1.3-3-2.6-4.6-3.6
		c-2.8-1.9-5.2-4.2-7.2-6.9c-2.8-3.7-5-7.7-6.8-12c-0.8-2-2.1-3.2-4.1-3.8c-2.1-0.6-4.1-1.5-6.2-2.2c-4.7-1.5-8.7-4.2-11.8-8.1
		c-1-1.3-2-2.5-3-3.8c-0.2-0.3-0.3-0.7-0.6-0.8c-2.7-1.9-4-5-5.8-7.6c-1-1.4-2.1-2.7-3.5-3.8c-3.8-3.2-5.3-7.4-4.7-12.3
		c0.4-2.8,0.6-5.7,1.2-8.5c0.9-4.2,2.1-8.4,5.3-11.7c0.2-0.2,0.5-0.5,0.6-0.8c0.5-1.8,1.9-3.1,2.7-4.7c1.2-2.5,3-4.6,4.3-7
		c-0.1-1-0.4-2.1-0.2-3c0.1-0.9,0.6-1.7,1.2-2.4c1-1.2,1.3-2.4,0.8-3.8c-0.5-1.4-0.4-2.7,0.2-4c0.1-0.2-0.1-0.4-0.3-0.8
		c-0.6-0.1-1.2-0.2-2-0.4c-0.1-0.3-0.3-0.6-0.2-0.9c0.5-1.3,1-2.5,1.6-3.7c0.2-0.3,0.7-0.5,1.1-0.7c0-0.6,0-1.2,0-1.9
		c0.6-0.2,1.2-0.4,1.9-0.6c0.1-0.1,0.3-0.3,0.4-0.5c0.4-2.9,2.2-4.7,4.2-6.5c1-0.9,1.8-2,2.9-3.1c2-0.3,1.9-0.3,3.3-1.7
		c1.2-1.2,2.6-2.4,4.3-2.8c2.7-0.6,4.3-2.4,5.9-4.4c0.5-0.6,1-1.3,1.5-1.9c0.1-0.1,0.4-0.1,0.6-0.2c0.9,0.2,0.6,1.1,0.9,1.8
		c1.1-0.7,2.2-1.2,3.2-2c1-0.8,1.9-1.5,3.3-1.2c0.4,0.1,0.9-0.5,1.5-0.9c0.8,0.5,1.6,0.9,2.4,1.4c0.2-1.4,0.4-2.6,0.6-3.9
		c0.9,0.2,1.5,0.4,2.2,0.5c0.5,0.1,1.1-0.5,1.7,0.1c-0.1,0.6-0.2,1.3-0.3,2.7c1.2-1.4,2-2.4,2.9-3.5c0.8,0.1,1.5,0.1,2.1,0.2
		c1.3,1.2,1.1,3,2.6,3.8c0.1,1,0.2,2,0.4,3.2c-1.5,1.8-3.1,3.8-4.7,5.8c0.2,1,0.8,1.8,1.6,2.5c1.1,0.9,2.1,1.8,3.2,2.6
		c0.6,0.5,1.4,0.9,1.9,1.5c1.5,1.5,2.9,3,1.8,5.5c2.4,1.5,4.7,3,7,4.5c0.5,0.3,1,0.5,1.5,0.8c1.8,1.2,2.1,2.1,1.4,4.4
		c-0.1,0.3-0.2,0.6-0.3,1.1c0.6,0.8,1.3,1.6,1.9,2.4c-0.1,0.7-0.3,1.4-0.4,2.1c1.7,1.1,2.9,2.5,2.8,4.7c-0.1,1,0.6,1.6,1.3,2.3
		c2.6,2.3,2.8,5.3,0.3,7.7c-1.9,1.8-4.1,3.4-6.1,5.1c-0.5,0.4-1.1,0.8-1.8,1.2c0.2,2.6,0.2,5.1,1.1,7.5c0.6,1.7,1.1,3.5,1.7,5.5
		c0.5,0.1,1.1,0.2,1.8,0.3c0.5,0.1,0.9,0.1,1.4,0.1c2.9,0.4,13.8,4.9,16.2,6.6c4.1,3,7.9,6.4,11.4,10c4.5,4.7,7.3,10.3,9.4,16.3
		c0.4,1.2,0.5,2.5,0.2,3.7c-0.3,1.4-0.4,2.7-0.6,4c0.8,1.1,1.5,2.2,2.2,3.2c2.4,3.7,5.3,6.9,8.8,9.7c1.4,1.1,2.7,2.5,3.8,4
		c2.1,3.1,4.2,6.3,6,9.7c2.5,4.5,4.8,9.2,7.1,13.8c0.9,1.8,1.8,3.7,1.9,5.9c0,0.8,0.5,1.5,0.9,2.2c0.8,1.5,1.8,3,2.5,4.5
		c0.6,1.4,1.6,2.2,3.3,2.5c0.6-0.5,1.3-1.1,2-1.6c2.2-1.6,3.8-1.6,6,0c0.1,0.1,0.2,0.1,0.3,0.2c5.5,4.3,4,3.5,10.3,3.2
		c1.4-0.1,2.8,0,4.1,0.1c2.8,0.1,5.5,0,7.7-2.2c4.2-1.8,8.2-4.2,12.8-4.7c3.2-0.3,6.4-0.7,9.6-0.7c6.9-0.1,13.8,0,20.7-0.1
		c4.8,0,9.6,0.6,14.4,1.2c2,0.2,4.1,0.4,6.2,0.3c4.1-0.1,8,0.4,11.9,1.5c1.5,0.4,3.2,0.4,4.8,0.4c1.7,0.1,3.5-0.1,4.9,1.2
		c0.1,0.1,0.2,0.2,0.3,0.2c2.7-0.1,3.5,2.1,4.7,3.9c2,3.2,3.2,6.6,3.7,10.3c0.3,1.7,0.9,3.2,1.7,4.8c3.5,6.3,6.1,12.9,7.3,20
		c1.3,7.7,2.4,15.5,2.8,23.3c0,0.6,0.1,1.1,0.2,2c5.7,5.7,11.6,11.6,17.5,17.5c0.7,0.7,1.4,1.1,2.3,1.5c4.8,2.1,9.3,4.6,13.5,7.7
		c3.8,2.8,7.8,5.3,11.5,8.2c2.5,1.9,4.7,4.1,6.9,6.3c1,1,1.9,2.1,2.4,3.3c0.6,1.2,0.8,2.6,0.9,3.9c0.1,1.3-0.1,2.7-0.1,4.2
		c0.9,0.6,2.1,0.3,3.2,0.5c3.2,0.5,5.4,2.4,7.3,4.8c1.1,1.5,1.1,3.3,0.5,5c-1.1,3.3-2.7,6.3-5.6,8.5c-1.9,1.5-3.8,3-5.7,4.5
		c-1.1,0.8-2.3,1.5-3.6,2c-4.2,1.5-8.5,3-12.7,4.3c-3.1,1-6.3,1.2-9.5,0.9c-0.6,0.9,0.2,1.4,0.3,2c0.2,0.7,0.5,1.3,0.5,2
		c0.2,2.8,0.3,5.5,0.5,8.3c0.1,1.4-0.7,2.1-2,2.3c-0.6-2.6-0.1-5.3-0.1-7.9c0-2.5-0.5-4.8-2.4-6.9c-1-0.1-2.3-0.4-3.5-0.5
		c-4.4-0.3-8.7,0.3-12.9,1.6c-2.2,0.7-4.4,1.2-6.8,1.2c-1.6,0-3.2,0.2-4.8,0.3c-5.1,0.3-10.2,0.4-14.4-2.7c-0.9,0-1.6,0.1-2.4,0.1
		c0.1-0.8,1.1-0.8,0.7-1.8c-2.3-0.9-4.7-1-7.2-0.5c-0.1,0-0.1,0.4-0.2,0.8c0.9,0.1,1.8,0.2,2.6,0.5c0.3,0.1,0.6,0.4,1.3,0.9
		c-1.4,0.3-2.4,0.4-3.4,0.6c0,2.8-0.1,5.4,0,8.1c0.1,1.9,0.7,3.8,2.1,5.7c1.1-1.6,2.6-1.5,4.1-1.5c4.6,0,9.2,0,13.8,0.3
		c6.7,0.4,13.3,1.1,20,1.1c3.5,0,6.9,0.1,10.4,0.1c1.1,0,2.3-0.2,3.3,0.6c-0.3,0.3-0.6,0.8-1,0.8c-5.8,0.2-11.5,0.4-17.3,0.4
		c-3.3,0-6.7-0.4-10-0.6c-4.8-0.3-9.7-0.4-14.5-0.8c-2.2-0.1-4.3-0.3-6.7,0.4c1.1,1.2,2.5,1.6,3.9,1.8c2.4,0.3,4.8,0.6,7.2,0.6
		c8.6,0,17.3-0.2,25.9-0.2c8.6,0,17.3,0.1,25.9,0.2c1.8,0,3.7,0.2,5.5,0.5c3.5,0.6,6.1,2.5,7.8,5.7c0.3,0.7,0.5,1.6,0.4,2.3
		c-0.6,3.3-0.2,6.6,0.1,10c0.1,1.1,0.3,2.3,0.4,3.4c0.2,2.1,0.2,4.1-1.9,5.9c-1,0.1-2.4,0.1-3.7,0.2c-4.5,0.4-8.9,0.9-13.4,1.3
		c-1.9,0.2-3.9,0.3-5.9,0.4c-11.1,0-22.1,0-33.2-0.1c-5.8,0-11.5,0.1-17.2-0.4c-4.4-0.4-8.8-1.8-12.7-4c-0.4-0.2-0.7-0.6-1-1
		c-0.1-0.2-0.1-0.4-0.2-0.8c0.3-0.1,0.6-0.2,0.8-0.1c3.5,1.1,7,2.2,10.5,3.3c1.2,0.4,2.4,0.6,3.7,0.6c12.1,0,24.2,0.1,36.3,0.2
		c3.8,0,7.6,0.2,11.4,0.3c5.1,0.1,10.1-0.2,15.1-1c1.8-0.3,3.7-0.2,5.5-0.3c1,0,2,0,3.3,0c0-0.9,0.1-1.7,0.1-2.5
		c-0.1-4.8-0.3-9.7-0.4-14.5c0-1.4,0-2.8-1.1-3.9c-1.2-1.2-2.5-2.4-4.3-2.7c-2-0.3-4.1-0.5-6.2-0.5c-16-0.1-32,0-48-0.2
		c-4.4,0-8.7-0.5-13.1-0.8c-1.1-0.1-2.1-0.2-2.5-1.4c-0.1-0.3-0.4-0.6-0.7-0.7c-2.1-0.4-2.4-2.2-3-3.8c-0.8-2.2-1.2-4.4-1.1-6.8
		c0-1.8-0.3-3.7-0.4-5.5c-0.1-1.5-0.3-3-0.4-4.5c0-3.3-0.4-6.7-0.5-10c-0.2-9-0.9-17.9-0.6-26.9c0.1-2.9,0.3-5.8,0.3-8.6
		c0.1-2.5,1.2-4.1,3.5-5.1c0.7-0.3,1.5-0.4,2.3-0.5c1.1-0.1,2.2,0,3.6,0c-1.3-2.9-2.5-5.5-3.7-8.1c-0.2-0.5-0.7-0.9-1.2-1.5
		c-3.1-0.1-6.3-0.1-9.5,0.2c-10.4,1-20.9,1.3-31.4,0.6c-0.8-0.1-1.6,0-2.4-0.1c-3.8-0.3-7.6-0.6-11.3-1c-0.7-0.1-1.5-0.1-2-0.5
		c-1.6-1-3.3-0.9-5-0.9c-9.3,0-18.7,0.1-28,0.2c-7.3,0-14.5,0-21.8,0.1c-1.1,0-2.3,0.1-3.3,0.1c-0.5,0.9,0,1.3,0.4,1.6
		c3.4,3.1,6.8,6.3,10.1,9.4c1.1,1,2,2.2,3,3.3c1.4,1.4,2.8,2.7,4.2,4.1c2.4,2.4,4.9,4.9,7.3,7.3c1.6,1.7,3.1,3.4,3.2,5.9
		c1.8,0.9,3.4,1.7,5.1,2.4c10.9,4.9,21.9,9.6,33,14.1c8.8,3.6,17.5,7.6,26.3,11.4c1.2,0.5,2.2,1.4,3.6,2.2c0.1-1,0.2-1.9,0.2-2.7
		c-0.1-7.6-0.2-15.2-0.4-22.8c0-1.8-0.1-3.7-0.1-5.5c0-0.6-0.1-1.1-0.3-1.7c0-0.2-0.3-0.4-0.5-0.4c-0.3,0-0.8,0.2-0.9,0.4
		c-0.2,1.1-0.4,2.3-0.6,3.6c-0.7,0.2-1.4,0.7-2.1,0.6c-1.8-0.1-3.7-0.3-5.3-1.6c-1.3-3.4-1.7-6.8,0.1-10.4c1.8-0.4,3.6-0.3,5.6-0.1
		c0.5,1,1,2,1.5,3.1c0.7,0,1.5,0,2.3,0c1-3,0.2-5.8-0.3-8.6c-0.8-1.3-2-1.7-3.5-1.7c-7.1,0.2-14.3,0.3-21.4,0.4
		c-8.2,0.1-16.3,0.1-24.5-0.8c-3.1-0.3-6.2,0-9.3,0c-0.8,0-1.6,0.2-2.4,0c-2.4-0.5-4.8-0.3-7.2-0.2c-3.2,0.1-6.4,0.1-9.7,0
		c-0.6,0-1.2-0.1-1.2-0.9c0.7-0.9,1.6-0.6,2.5-0.6c3.2-0.1,6.4-0.1,9.7-0.1c3.4,0,6.9-0.1,10.3-0.4c2.8-0.3,5.7,0.1,8.6,0.2
		c4.4,0.2,8.7,0.6,13.1,0.6c6,0.1,12,0,18,0.1c3.8,0,7.6,0.2,11.4,0.3c1.5,0,2.9-0.2,4.9-0.4c0.5,0.4,1.5,1,2.3,1.5
		c0.3,2,0.7,3.8,0.9,5.6c0.1,1.8,0,3.7,0,5.5c0,0.4,0.1,0.8,0.6,1.2c0.1-1.5,0.1-3,0.2-4.4c0.1-1.4-0.2-2.9,0.4-4.3
		c1,0.4,0.9,1.1,0.9,1.6c-0.1,3.5-0.2,6.9-0.3,10.4c0,2.4,0,4.8,0,7.2c-0.1,2.1-0.2,4.1-0.4,6.2c-0.2,3-0.1,6,0.3,9
		c0.2,1.7-0.1,3.4,0,5.1c0.1,1.5-1.4,2.5-1.2,4.1c0.2,1.3-0.4,2.7-1,4c-1.1,0-1.6-1.4-2.8-1c-0.9,0.3-1.8,0.2-2.7,0.2
		c-2.2,0.2-3.4,1.8-3.6,3.6c-0.2,2.4-0.4,4.8,0.5,7.2c1.4,0.9,2.9,0.7,4.4,0.7c1.5,0,3-0.1,4.7,0.8c0.4,0.9,0.9,2.1,1.4,3.2
		c0.7,1.4,1.4,2.9,2.3,4.2c1.5,2,3.5,3.3,6,3.7c1.1,0.2,2.2,0.3,3.2,0.9c-0.7,0.9-1.7,0.9-2.6,0.9c-3-0.3-5.5-1.5-7.4-3.9
		c-0.7-0.9-1.2-1.9-1.9-2.9c-1.1-1.6-2.2-3.1-3.5-5c-0.3,0.7-0.6,1.1-0.6,1.5c-0.2,1.9-0.3,3.9,0.2,5.8c0.2,0.7,0.3,1.4,0.3,2.1
		c-0.1,5.7,2.6,10.1,6.8,13.7c1.1,0.9,2.2,1.6,3.3,2.5c0.4,0.3,0.7,0.9,0.9,1.4c0.2,0.3-0.4,1-0.8,0.9c-0.4-0.1-0.9-0.1-1.3-0.3
		c-3.6-2.1-6.5-4.8-8.1-8.7c-1.2-3-2.1-6.1-2.3-9.3c-0.2-3.2-0.4-6.4-0.6-9.8c-1.6-0.2-3.3-0.4-5-0.6c-1.7-1.2-1.3-3.2-1.7-4.8
		c-0.9-1-2.2-1.3-3.3-1.7c-3.6-1.4-7.3-2.8-11-4.2c-11.3-4.4-22.4-9.1-33.3-14.3c-6-2.9-12-5.8-18-8.7c-1.1-0.5-2.2-0.6-3.3-0.5
		c-2.9,0.5-5.7,0.3-8.6-0.1c-1.5-0.2-2.9-0.4-4.4-1c-1-0.4-2.2-0.4-3.4-0.4c-8.5,0-17,0-25.5,0.7c-7.5,0.6-14.9,1.2-22.4,1.9
		c-2.9,0.2-5.7,0.5-8.6,0.7c-7.1,0.6-14.2,1.1-21.3,1.6c-6.8,0.6-13.5,1.2-20.3,1.8c-5.8,0.5-11.7,1.1-17.5,1.6
		c-4,0.4-8,0.9-12.1,1.4c-0.6,5.7-1.8,11.2-2.4,17c1.2,0,2,0.1,2.9,0.1c0.8,0,1.6-0.1,2.5-0.1c0.1,0.6,0.3,1.1,0.3,1.7
		c0.1,1.3,0.2,2.5,0.2,3.8c0.1,3.2,0.3,6.4,0.9,9.6c0.1,0.7,0.2,1.4-0.7,1.7c-0.7,0.3-1.3-0.3-1.5-1.4c-0.3-2.3-0.5-4.6-0.7-6.9
		c-0.1-1.1,0-2.3,0-3.4c-1-0.4-1,0.8-1.9,0.8c-0.1-0.1-0.4-0.4-0.4-0.7c0.2-0.9,0.4-1.8,0.7-2.8c-0.9-0.1-1.6-0.2-2.6-0.4
		c-0.2,0.8-0.4,1.4-0.5,2.1c-0.5,4.1-1,8.2-1.5,12.3c-0.1,0.5-0.1,1-0.3,1.3c-0.2,0.4-0.6,0.6-0.9,0.9c-0.3-0.3-0.8-0.6-0.8-0.9
		c-0.1-0.9-0.1-1.8,0-2.7c1.4-10,2.3-20.1,4.6-30c0.1-0.5,0.1-1.1,0.1-1.6c-0.4-0.2-0.6-0.4-0.8-0.4c-3.3,0.2-6.6,0.5-10.1,0.7
		c-0.3,1.2-0.6,2.4-0.7,3.6c-0.7,5.1-1.3,10.3-2,15.4c-0.4,3.2-0.9,6.4-1.6,9.5c-0.8,3.7-1.9,7.3-2.3,11.1c0,0.4-0.2,0.8-0.4,1.5
		c-0.6-0.2-1.2-0.3-1.8-0.5c-1.9,2.5-3.3,5.3-4.5,8.4c4.7,0.9,9,0,13.2,0.4c1.7,3.2,3.8,10.7,3.7,13.7c0,1.2,0.3,2.6-1.3,3.5
		c-0.5-0.4-1.1-1.1-1.7-1.2c-1-0.1-2,0.1-3.1,0.3c-4.8,0.8-9.6,1.4-14.4,0.7c-0.2,0-0.4-0.2-0.7-0.3c-0.1-0.3-0.4-0.6-0.3-0.9
		c0.1-3.1,0.2-6.2,0.3-9.3c0-0.2,0-0.5,0.1-0.7c0.6-1.8-0.3-4,1-5.6c1.2-1.5,1.6-3.3,2.6-4.8c1.4-2.1,2.4-4.5,4.1-6.4
		c1.3-1.5,2-2.9,2.4-4.7c0.9-4.2,2-8.3,2.8-12.4c0.7-3.7,1-7.5,1.6-11.3c0.4-2.6,0.9-5.2,1.4-7.8c0.1-0.7,0.1-1.3,0.2-1.9
		c-0.2-0.2-0.3-0.3-0.4-0.3c-3.4-0.1-6.9-0.2-10.3-0.3c-0.4,0-1,0-1.3,0.2c-2.3,1.4-4.9,1.4-7.3,1.7c-3.8,0.4-7.6,0.5-11.4,0.7
		c-2.2,0.1-4.4,0-6.5,0.7c-0.4,0.1-0.9,0-1.5,0c-0.4-1-0.9-2-1.4-3.3c-1.5-0.1-3.1-0.4-4.1,1.4c-1.4,0.6-2.7,1.5-4.1,1.7
		c-5.8,0.9-11.4,2.8-17,4.3c-1.6,0.4-3.1,0.9-4.7,1.2c-0.9,0.2-1.8,0.3-2.7,0.4c-1.4,0.2-2.4-0.5-3-1.8c-1.4-3.2-2.5-6.5-2.8-9.9
		c-0.1-0.6-0.1-1.2,0.1-1.7c1-4.4,3-8.2,6.7-10.9c0.7-0.5,1.6-0.9,2.4-1.3c1.6-0.7,3.2-1.3,4.8-2c0.5-0.2,1.2-0.4,1.5-0.8
		c1-1.7,2.8-1.9,4.4-2.5c1.6-0.6,3.2-1.3,4.8-1.8c2.3-0.7,4.6-1.3,7-2c2.7-0.7,5.4-1.3,8-2.2c9.6-3.3,19.3-6,29-8.9
		c7-2.1,14-4.5,21.2-6.2c10.9-2.6,21.7-5.3,32.5-8c7.2-1.8,14.1-4.1,21.1-6.6c5.3-1.9,10.7-3.6,16-5.4c4.3-1.4,8.5-2.7,12.8-4
		c4.9-1.4,9.7-2.8,14.6-4.1c1.2-0.3,2.4-0.7,3.9-1.1c-0.4-0.6-0.6-1.1-1-1.5c-1.3-1.5-2.7-2.8-4-4.3c-0.9-1.1-1.6-2.2-2.3-3.4
		c-1.3-2.1-1.5-4.3-0.6-6.6c0.2-0.4,0.3-0.9,0.5-1.4c-0.4-0.9-0.8-1.9-1.2-3c1.1-1.3,1.3-3,1.8-4.6c1.3-4.3,3.6-8,7.1-10.8
		c1.6-1.3,3-2.9,4.2-4.5c4.1-5.1,8.2-10.2,13.6-14.4c-0.4-0.6-0.7-1.2-1.2-1.7c-2.2-2-4.5-3.9-6.8-5.8c-1-0.9-2.2-1.6-3.1-2.7
		c0.4-0.9,1-0.5,1.5-0.3c3.4,1.7,6.4,4,9.2,6.7c0.8,0.8,1.6,1.6,2.4,2.4c2.2-0.4,4-2.1,6.6-1.7c0.2,0.5,0.5,1.1,0.8,1.8
		c0.6,0.2,1.4,0.5,2.1,0.8c0,0.2,0.1,0.6,0,0.6c-2.6,1.8-5.3,3.6-7.9,5.5c-0.9,0.7-1.8,1.4-2.8,2.3c3.1,1.6,6,3,8.2,5.5
		c-0.5,1-1.2,0.7-1.8,0.5c-2.3-0.7-5.6-3-7.5-5.1c-1.6,1.4-3.3,2.7-4.5,4.6l0.1-0.1c-2.7,3.9-5.4,7.7-8.1,11.6
		c-1,1.4-2.1,2.7-3.1,3.9c0.9,2.5,1.8,4.9,2.5,7.3c0.3,0.8,0.4,1.6,0.4,2.4c0,0.4-0.3,0.8-0.6,1.1c-0.3,0.3-1.1-0.2-1.3-0.7
		c-0.4-1.1-0.7-2.2-1-3.3c-0.5-1.4-0.9-2.8-1.5-4.5c-0.7,0.4-1.2,0.7-1.6,1c-1.4,1.1-2.8,2.3-4.4,3.7c0.1,0.4,0.4,1,0.5,1.6
		c0.1,0.5,0.2,1.1,0.3,1.9c0.8,0.6,1.7,1.3,2.6,2c5.5,4.2,9.8,9.4,12.6,15.7c1.4,3.2,1.5,3.1,4.8,4.4c4.2,1.6,8.6,1.6,12.9,1
		c1.7-0.3,3.3-0.9,5-1.4c0.7-0.2,1.3-0.4,2-0.4c4.1,0.1,8-0.8,11.9-1.6c5.2-1.1,10.4-1.6,15.7-1.8c1.6-0.1,3.2-0.1,4.7-0.8
		c0.4-0.2,0.9-0.4,1.3-0.3c2.9,0.8,4.8-1.2,6.7-2.5c4.4-3,8.6-6.1,12.7-9.5c2.4-2,4.8-4,6.7-6.4c1.4-1.7,3-3.2,5.1-4
		c0.9-0.4,1.7-1.1,2.5-1.6c0-1.6,0-2.9,0-4.5c-0.7-0.1-1.4-0.4-2-0.3c-2.4,0.2-4.8,0.5-7.2,0.9c-4,0.6-7.9,1.3-11.9,1.9
		c-4.6,0.7-9,2.1-13.2,3.8c-1.5,0.6-3,1.1-4.6,1.2c0.6-0.4,1.2-1,1.9-1.3c6.2-2.5,12.5-4.7,19.2-5.2c2.4-0.2,4.7-1,7.1-1.4
		c2.9-0.5,5.9-0.8,8.9-1.2c0.4-0.1,0.9-0.2,1.5-0.3c-0.3-3.8-0.8-7.6-0.9-11.3c-0.1-3.8,0.1-7.6,0.3-11.4c0.2-3.8,1.2-7.5,2.5-11.3
		c-0.7-0.1-1.2-0.3-1.8-0.3c-7.1,0-14.3-0.1-21.4,0c-3.4,0.1-6.9,0.4-10.3,1.3c-1.4,0.4-2.8,0.9-4.5,1.5c1.4,1.3,3,1.2,4.2,1.9
		c1.3,0.7,2.8,1.1,3.7,2.7c-2.1,0.3-3.7-0.8-5.4-1.2c-1.7-0.4-3.3-0.9-5-1.4c-2.1,0.8-4.1,1.8-6.2,2.3c-2.1,0.5-4.3,0.6-6.5,0.8
		c-0.8,0.9-0.1,1.5,0.6,1.9c-1.1,1.2-2.2,2.2-3.1,3.4c-3.6,4.4-5.3,9.6-6.2,15.2c-0.1,0.9-0.2,1.8-0.4,2.7c-0.1,0.4-0.4,0.8-0.8,1.4
		c-0.4-0.6-0.8-0.9-0.7-1.3c0.1-1.6,0.2-3.2,0.5-4.8c0.6-3.7,1.7-7.2,3.6-10.4c1.4-2.2,3.1-4.2,4.7-6.5c-0.3-0.5-0.7-1.2-1.1-1.8
		c-1.3-0.4-2.4-0.6-3.5,0c-1.1,0.6-2,0.3-2.9-0.3c-1.1-0.8-2.3-1.6-3.4-2.4c-0.6-0.4-1.1-0.9-1.6-1.3c-0.8-0.6-1.6-0.8-2.6-0.6
		c-0.7,0.1-0.7,0.2-2,1.7c2.4,1.1,3.4,3,3.3,5.5c-0.1,1.6-0.5,2.9-2.5,3.6c-0.1-0.5-0.2-0.9-0.2-1.3c0.1-0.8,0.3-1.6,0.4-2.4
		c0.1-0.9-0.1-2-0.9-2.5c-1.5-1-2.6-2.6-4.5-3.1c-1.2-0.3-1.9-1.1-2.4-2.3c-1.4-3.4-3.5-6.5-4.2-10.2c-0.1-0.4-0.3-0.9-0.6-1.3
		c-3.7-6.8-7.3-13.6-11-20.3c-1-1.9-2.3-3.7-3.5-5.6c-1-1.5-2.2-2.8-3.8-3.9c-2.8-1.9-4.7-4.7-6.6-7.4c-1-1.5-1.7-3.2-3.2-4.4
		c-0.7-0.6-0.7-1.5-0.4-2.5c0.8-2.9,0.8-5.8-0.5-8.7c-1.4-3.3-3-6.5-5.4-9.2c-0.7-0.8-1.1-1.8-2.4-1.8c-0.2,0-0.5-0.2-0.5-0.4
		c-0.1-2.2-2-3-3.2-4.3c-3.1-3.1-6.5-5.8-10.2-8.2c-3.7-2.4-7.6-4.3-11.9-5.3c-1-0.2-2-0.6-3.1,0.1c0.1,0.5,0.3,1.1,0.4,1.8
		c4,0.7,8,1.4,11.5,3.5c2.1,1.2,4,2.7,6,4c0.2,0.1,0.2,0.4,0.3,0.6c0,0.1,0,0.2,0,0.3c-0.9,0.6-1.5-0.1-2.1-0.6
		c-5.4-4.1-11.6-6-18.3-6c-0.3,0-0.7,0.1-1.3,0.3c1.6,1.3,3.4,1.9,5,2.8c1.7,0.9,3.5,1.8,5.2,2.6c1.7,0.8,3.4,1.4,5.1,2.1
		c1.7,0.7,3.4,1.5,5,2.3c1.8,0.8,3.6,1.6,5.3,2.4c1.6,0.8,3.5,1.1,5.4,2.6c-1.2,0-1.9,0.1-2.4,0c-2.2-0.7-4.4-1.3-6.5-2.2
		c-3.4-1.4-6.8-2.9-10.2-4.3c-3.5-1.4-6.9-3.2-10.1-5.2c-2.5-1.5-5-3.2-8.2-4.2c2.6-1.8,5.3-0.6,7.8-1.3c0-1.7-0.8-3.3-1.1-4.9
		c-0.5-2.2-1.3-4.4-1.7-6.7c-0.3-1.7-0.1-3.4-0.1-5.3c2.4-1.4,4-3.9,6.6-5.3c0.9-0.5,1.5-1.4,2.3-2.1c1.9-1.7,1.1-3.1,0.2-4.6
		c-0.2-0.3-0.5-0.5-0.8-0.7c-1.4-1.1-2.4-2.5-2.2-4.4c0-0.3-0.1-0.7-0.3-1c-0.4-0.9-1.7-1-2.3-0.3c-0.4,0.5-0.8,1.1-1.2,1.6
		c-0.1,0.1-0.6-0.2-0.9-0.2c-0.1-1.3,1-1.8,1.6-2.6c1.4-2,1.4-2.3-0.3-4.1c-0.2-0.2-0.4-0.3-0.7-0.6c-1,0.5-1.8,1.8-3.2,1.1
		c-0.5-0.3-0.9-0.7-0.7-1.5c1.9,0.3,2.9-1.3,4.4-2.1c0.6-0.4,0.7-1.7,0.1-2.2c-1-0.8-2-1.5-3.1-2.2c-1.3-0.8-2.7-1.4-4-2.1
		c-1.9-1-3.4-2.2-3-4.8c0.2-1.3-0.8-2.2-1.9-3.1c-1.6-1.2-3.2-2.6-4.8-4c-0.7-0.6-1.2-1.3-1.8-2c-0.7-0.4-1.5,0.9-2.1-0.2
		c2.9-1.6,4.1-4.5,5.5-7.2c0.4-0.8,0.4-1.7-0.2-2.6c-1,3.4-1.1,3.8-3.5,6.5c-0.9,1-1.4,2-1.7,3.3c-1.8,0.5-2.3,2.4-3.6,3.6
		c0.4,0,0.8,0,1.3,0c-0.3,2.5-2.5,3-4.3,4c0.1,1.1,0.3,2.1,0.1,3.1c-0.1,1-0.7,1.9-0.9,3c-0.7,3.2-1.5,6.5-2.1,9.8
		c-0.5,2.8,0,5.5,1.4,8.3c0.8,0.5,1.9,1.1,3.1,1.9c-1,0.2-1.8,0.4-2.6,0.6c0.1,0.7,0.2,1.3,0.3,2.2c-1.4-0.4-2.4-0.9-3.5-1.6
		c-1.2-0.8-2.5-1.6-3.8-2.3c-0.1-0.2-0.2-0.4-0.4-0.5c-0.1-0.1-0.3,0.1-0.5,0.2c0.1,0,0.2,0.1,0.3,0.1c0.2,0,0.5,0,0.7,0
		c-0.1,0.4-0.3,0.8-0.4,1.2c1.6,1.5,1.6,1.5,2.7,4c0.2,0.1,0.4,0.3,0.6,0.3c2.9,0.3,3,0.5,1.2,3.5c0.3,0.6,0.6,1.4,1,2
		c0.7,1,1.6,0.9,2.4-0.3c0.2-0.3,0.3-0.5,0.5-0.8c1,0.2,1.1,0.9,0.8,1.6c-0.3,0.7-0.8,1.3-1.4,2.1c0.6,0.9,1.3,1.6,1.8,2.5
		c0.8,1.4,1.6,2.8,2.2,4.3c0.5,1.1,0.3,2.3-0.8,3.1c-0.5,0.3-0.8,0.8-1.3,1.2c-1,0.8-2,0.7-2.7-0.4c-1-1.5-2-3.1-3-4.6
		c-0.2-0.4-0.6-0.7-0.9-1.1c-0.3,0.3-0.7,0.6-0.7,0.8c0.1,1.6-0.3,3-1.6,4c0.5,1.9,0.9,3.7,1.3,5.7c0.4,0,1,0.1,1.5,0
		c4.3-1.2,8.7-1,13-0.6c1.9,0.1,3.6,0.9,5.2,1.8c1.5,0.9,3,1.7,4.7,1.7c0.2,0.8,0.2,1.6,0.7,1.9c7.4,6.4,11.5,14.9,14.8,23.8
		c1.7,4.5,2.7,9.3,2.5,14.2c-0.1,1.3-0.2,2.5-0.4,3.8c-0.3,1.8-0.6,3.6-0.1,5.5c0.1,0.3-0.1,0.7-0.2,1c-0.6-0.1-1.1-0.1-1.7-0.2
		c-0.6,0.7-1.1,1.4-1.7,2.1c-3.5,3.8-7.8,6-13.1,5.9c-1.1,0-2.3,0.1-3.5,0c-2.2-0.1-3.5-0.7-5.4-2.6c3.4,0.3,6.6,0.6,9.9,0.5
		c5.6-0.2,10.6-3.8,12.6-9.1c-1-3.4-3.8-5.7-5.2-8.7c0.6-0.7,1.1-0.8,1.6-0.3c0.7,0.7,1.4,1.5,2,2.3c0.7,0.9,1.4,1.8,2,2.7
		c0.8-0.3,0.8-0.9,0.8-1.5c0.4-5.1-0.5-10.1-2.2-14.9c-2.5-6.9-5.9-13.3-10.3-19c-2.1-2.7-4.5-4.9-7.5-6.6c-2.2-1.3-4.6-2.1-7.2-2.1
		c-3.6,0-7.1-0.2-10.7,0.5c-0.7,0.1-1.4,0-2,0c-0.8,0-1.6,0.1-2.1,1.2c3.4,3.6,6.1,7.9,8.5,12.5c2.3,0.4,5,0.3,6.9,2.1
		c0.3,0.3,0.4,0.7,0.7,1.3c-2.5,0.5-4.4-1.1-6.5-0.9c-0.7,0.5-0.2,1-0.1,1.5c0.1,0.7,0.1,1.4,0.2,2c0,0.2-0.2,0.4-0.4,0.8
		c-0.4-0.3-0.8-0.4-1-0.8c-0.5-0.9-1.2-1.9-1.1-2.8c0.1-1.7-0.8-2.8-1.6-4.1c-1.6-2.4-3.2-4.8-4.7-7.2c-1.4-2.2-3.3-3.9-5.2-5.4
		c-0.7-0.6-1.5-1-2.5-0.7c-0.1-0.1-0.1-0.1-0.2-0.2c0.1,0,0.2,0.1,0.3,0.1c0,0.5-0.1,0.9,0,1.4c0.2,2.4-0.1,4.6-1.4,6.6
		c1,2.4,1,2.6-0.8,2.9c-0.2-2.8,0.1-5.6,0.7-8.5c-2.3-2.8-4.1-5.9-4.9-9.4c-0.6-2.4-1.3-4.9-0.5-7.4c0.3-0.8,0-1.8,0-2.8
		c1.3-0.9,2.6-1.8,3.7-2.6c1.1,0.1,0.9,1.1,1.8,1.8c1.3,0.2,3,0.5,4.7,0.6c1.5,0,2.6,0.5,3.8,1.4c3.2,2.3,5.9,5,7.7,8.6
		c0.1,0.2,0.3,0.3,0.6,0.5c0.2-0.1,0.6-0.3,0.7-0.5c0.5-0.8,0.8-1.7,0.4-2.6c-0.5-1.2-1-2.3-1.7-3.4c-1-1.4-2-2.8-3.2-4
		c-1.2-1.2-1.9-2.5-2.6-4c-1.2-2.7-2.9-5.1-5.1-7.3c-1.6-1.6-3.2-3.2-5.3-4.2c-0.8-0.5-1.7,1-2.6-0.5c0.1-0.3,0.3-0.8,0.4-1.4
		c-1.5-2.7-4.2-3.7-7.1-4.3c-1.1-0.2-2.2-0.5-3.6-0.8C558.4,150.5,557.5,152.5,557.7,155.2c-0.2,0.3-0.4,0.5-0.6,0.8
		c-0.1,0-0.2,0-0.3,0.1c0,0-0.1,0.1-0.1,0.2c0.1-0.1,0.2-0.2,0.3-0.3C557.2,155.6,557.5,155.4,557.7,155.2z M840.4,375.5
		c0,0.5,0.2,0.8,0.7,0.7c0.6,1.6,1.5,2.9,3.5,2.7c0,0.1,0,0.2,0,0.3c0,0.1,0.1,0.1,0.2,0.1c-0.1-0.1-0.2-0.2-0.2-0.3
		c0.1-0.4,0.2-0.8,0.3-1.2c1.8,0.5,2.4,1.9,3.3,3.4c2.6-2.3,5-4.6,7.4-6.8c-1.4-2-19.3-21.1-22.6-24.3c-0.2-0.2-0.6-0.3-1-0.5
		c-0.6,2.9-0.1,5.5,0.5,8.2c0.6,2.6,1.4,5.1,2.1,7.7c0.5,1.9,1.4,3.3,2.9,4.6c1.6,1.3,2.9,2.9,4.3,4.5c0.3,0.3,0.4,0.8,0.5,1.2
		c-0.4,0.2-0.7,0.4-1,0.5C840.8,376.1,840.5,375.8,840.4,375.5c-0.1-0.4-0.3-0.6-0.8-0.6c-1.1-2.3-1.5-2.7-3.4-3.4
		c1.1,1.2,1.7,2.8,3.5,3.4C839.6,375.4,839.8,375.6,840.4,375.5z M854.2,369.4l-0.1-0.1L854.2,369.4c0,0.4,0.1,0.7,0.6,0.7
		c0.7,2,1.9,3.1,4.1,2.8c0.1,1-0.3,1.7-1.1,2.3c-2.7,2.2-5.3,4.5-7.9,6.7c-0.5,0.4-1,0.8-1.5,1.2c-2.1-0.8-3.6-2.5-5.8-1.9
		c-1.4-1.4-2.7-2.6-4.1-3.9c-0.1,0.3-0.3,0.6-0.2,0.7c0.3,0.9,0.6,1.7,0.9,2.4c3,1.2,3,1.2,3.4,3c-0.7,0-1.3,0-2.1,0
		c0.3,1.9,1.2,3.2,3.1,3.7c2-0.8,4.2-1.2,6.4-1.1c1.3,0.1,2.4,0.3,3.2,1.6c0.4,0.6,1.2,1,1.9,1.5c1.3,0.8,2.5,1.6,3.8,2.4
		c0.3,0.2,0.5,0.6,0.8,0.9c-0.1,0.1-0.2,0.2-0.3,0.3c-1.7-0.8-3.3-1.7-5-2.5c-0.7,1-0.1,1.4,0.3,1.9c1.3,1.6,2.7,3.2,3.3,5.2
		c0.5,1.8,1.7,2.7,3.2,3.3c0.5,0.2,1.2,0.3,1.6,0.6c2.4,1.9,4.8,3.9,7.1,5.9c2.4,0.3,4.5-0.4,6.5-1.6c2.4-1.4,4.6-3.1,6.5-5
		c0.6-0.6,1.1-1.2,1.5-1.9c0.9-1.5,1-3.1-0.1-4.5c-2.4-3-4.8-5.9-7.2-8.8c-0.6-0.7-1.4-1.2-2.2-1.7c-2.3-1.6-4.6-3.1-6.8-4.6
		c-2.4-1.7-4.8-3.5-7.3-5.3c-0.6-0.5-1.2-1.1-2.1-0.9c-1.3-1.7-2-2.2-4.1-2.8C854.6,369.9,854.4,369.6,854.2,369.4z M584.6,133.1
		c0.2,0.2,0.4,0.4,0.7,0.5c0.1,0,0.2-0.2,0.4-0.3c-0.1-0.1-0.2-0.2-0.3-0.2C585.1,133.1,584.8,133.2,584.6,133.1
		c-0.1-0.6-0.5-0.7-1.1-0.4c0.2,0.1,0.3,0.2,0.5,0.3C584.2,133.1,584.4,133.1,584.6,133.1z M798.2,353.4
		C798.1,353.5,798.1,353.5,798.2,353.4c-0.3-0.4-0.5-0.9-0.7-1.4c-0.2-0.4-0.5-0.9-0.7-1.3c-0.2-0.9-0.4-1.8-0.5-2.7
		c-0.3-1.8-0.7-3.6-0.8-5.4c0-2.4-0.3-4.8-1-7.2c-1.3,0-2.5-1.3-4-0.1c-0.4,1.5-0.1,3.1,0.4,4.6c1.3,3.9,3.2,7.6,6,10.7
		c0.2,0.4,0.5,0.9,0.7,1.3C797.8,352.5,798,353,798.2,353.4z M561.8,135.2c-0.3,0.3-0.6,0.5-0.8,0.8c0,0,0.2,0.3,0.3,0.3
		c0.1,0,0.3,0,0.3-0.1C561.7,135.9,561.7,135.5,561.8,135.2C561.7,135.2,562.1,134.8,561.8,135.2z M586.7,135.8
		c0.9-0.5,0.9-1.3,0.3-2.6C586.9,134.4,586.8,135.1,586.7,135.8c-0.1,0.2-0.3,0.3-0.4,0.4c0,0.1,0.1,0.3,0.2,0.5
		c0.1-0.1,0.1-0.2,0.1-0.3C586.7,136.2,586.7,136,586.7,135.8z M783.6,389.4c1.1-0.9,0.6-1.7-0.2-2.7c-1,0.1-2.2-0.4-3.3,0.5
		c-0.7,2.5-0.5,5,0.5,7.5c1.5,0.4,2.9,0.6,4.3,0c0.4-1.5,0.6-2.7-0.6-3.9C783.9,390.6,783.9,389.9,783.6,389.4L783.6,389.4z
		 M673.8,347.2c0,0.1,0,0.2,0,0.3c0,0,0.1,0.1,0.2,0.1C674,347.5,673.9,347.4,673.8,347.2c-0.7-2.2-2.3-3.9-3.5-5.8
		c-2.9-4.7-6.9-8.3-11.4-11.4c-0.3-0.2-0.8-0.4-1.2-0.6c-0.1,2.1-0.1,2.1,0.5,3c0.9,1.3,1.8,2.7,2.9,3.8c3.5,3.4,7.2,6.8,10.8,10.1
		C672.5,346.8,673.2,346.9,673.8,347.2z M663.4,316.9c0.9,0.2,1.5-0.1,2.1-0.8c2.2-2.8,4.4-5.6,6.6-8.4c1-1.3,2.3-2.5,2.8-3.9
		c0.6-1.9,2-3,3.3-4.3c1.4-1.3,2.9-2.6,4.3-4c0.1-0.1,0.1-0.4,0.2-0.7c-0.6-0.5-1.1-0.9-1.7-1.4c-1.1,0.6-2,1.2-2.3,2.2
		c-0.2,0.8-0.5,1.1-1.2,1.4c-0.6,0.2-1.1,0.8-1.5,1.3c-1.4,1.6-2.7,3.1-4,4.8c-0.4,0.5-0.7,1.2-1,1.7c0.2,0.4,0.4,0.7,0.5,1.1
		c0.1,0.3,0.1,0.6,0.2,1.1c-0.9-0.3-1.6-0.6-2.6-0.9c-0.3,0.3-0.6,0.6-0.6,0.6c-0.3,1.4,1.1,1.7,0.5,2.8c-0.4-0.2-0.8-0.4-1.1-0.6
		c-0.3-0.2-0.6-0.6-1-0.9c-0.5,0.4-0.8,0.7-1.1,1c0.3,1.1,1.8,1.4,1.8,3.1c-1.1-0.8-2-1.4-3-2c-2.7,2.8-4.6,5.9-5.6,9.6
		c0.6,0.5,0.8,1.4,2.1,1.4c0.9-0.9,1.9-1.9,2.8-2.9C663.7,317.5,663.6,317.2,663.4,316.9L663.4,316.9z M751.2,337
		c3.2-1.6,6.7-2.3,10.2-3c8.1-1.6,16.2-3.4,23.9-6.6c1.8-0.7,3.4,0,4.4,1.7c0.4,0.7,0.5,1.5,0.8,2.3c0.4,1.1,0.8,2.1,2,2.7
		c2.6-1.5,5.9-1,8.3-3.3c-0.2-4.5-0.4-9-0.7-13.4c-0.1-1-0.3-2.1-0.6-3c-0.4-1.2-0.9-2.3-1.6-3.4c-0.6-1-1.7-1.6-2.9-1.4
		c-2.8,0.4-5.7,0.7-8.5,1.1c-1.2,0.2-2.2,0.7-3.1,1.4c-1.2,0.9-2.4,1.8-3.7,2.6c-3.1,2.1-6.2,4-10.2,4.2c-0.2,0.7-0.7,1.4-0.6,1.9
		c0.4,1.6-0.4,2.4-1.5,3.2c-0.7,0.5-1.4,0.9-2.1,1.1c-1.8,0.6-3.2,1.7-4.4,3.2c-2,2.4-4.4,4.4-6.9,6.2c-0.8,0.6-1.6,1.3-2.4,1.9
		C751.4,336.3,751.4,336.7,751.2,337c-0.2,0.1-0.5,0.1-0.2,0.1C750.8,337.2,751,337.1,751.2,337z M844.5,389.5c-0.4,0-0.9,0-1.4,0
		c-0.2,3.8-2.6,5.5-5.6,6.9c-3.2,1.5-6.6,1.6-10.1,1.1c-2.2-0.3-3.8-1.4-5-3.2c-0.3-0.5-0.7-1-1.3-1.8c-0.4,2.6,1,3.9,2.5,4.7
		c3,1.6,5.7,3.4,7.7,5.8c3,0.9,5.9,1.1,8.8,0.9c2.9-0.2,3.8-1.1,4.1-3.9c0.2-1.7,0.5-3.4,0.8-5c0.4,0.3,0.9,0.7,1.5,1.2
		c-0.2,1.9-0.4,3.8-0.6,5.7c-0.2,1.8-1.3,2.9-2.9,3.5c-0.9,0.3-1.8,0.5-2.7,0.6c-3.1,0.2-6.2-0.3-9.2-1c-0.9-0.2-1.7-0.6-2.3-1.4
		c-1.7-2.2-3.8-4-6.3-5.2c-0.5-0.2-1-0.6-1.3-1.1c-0.8-0.9-1.7-1-2.8-0.8c-0.6,1.2-0.4,2.4-0.2,3.7c0.2,1.9,0.4,3.9,0.4,5.8
		c0,1.2,0,2.6-0.5,3.7c-1,2.6-1.3,5.3-1.8,8.1c-0.3,2.2-0.7,4.3,0.6,6.2c-0.6,1.5-1.1,2.7-1.6,4c1.8,1.7,4,2.1,6.2,2.2
		c2.1,0.1,4.2-0.1,6.2,0.1c4.7,0.5,9.1-0.2,13.6-1.6c2-0.6,4-1.1,6.1-1.1c3.4-0.1,6.9,0.2,10.3,0.4c4.9,0.4,9.6,0.1,14.2-1.7
		c2.3-0.9,4.8-1.7,7.2-2.4c5.2-1.7,9.2-5.1,13-8.8c0.6-0.6,1-1.3,1.4-1.9c0.7-1,1.5-2,2.3-3.1c0.4-4.8-1.6-5.6-5.6-7.7
		c-1.1,0.1-2.3,0.2-3.4,0.2c-2.1-0.1-3.7,0.5-5.2,2c-1.8,1.8-3.9,3.2-6.4,4c-3.5,1.1-6.8,0.9-9.6-1.8c-0.7-0.7-1.5-1.4-2.3-2
		c-0.4,1-0.8,1.9-1.3,2.8c-0.2,0.3-0.8,0.5-1.2,0.4c-0.4-0.1-0.8-0.4-1-0.8c-0.2-0.4-0.2-0.9-0.1-1.3c0.1-1,0.4-2,0.7-3.3
		c-1.4-0.8-2.5-1.9-4-2.6c-1,1-1.1,2.4-1.6,3.5c-0.3,0.6-0.6,1.2-1,1.8c-0.3,0.4-1.3,0.3-1.5-0.2c-0.2-0.6-0.6-1.3-0.5-2
		c0.1-1.1,0.4-2.3,0.8-3.3c0.6-1.7,1.3-3.4,2-5.3c-2-1.8-2.8-4.5-4.9-6.2C847.8,388.1,845.9,387.9,844.5,389.5z M570.1,394.2
		c0.5,0.3,0.9,0.8,1.4,0c1.3,0.3,2.5-0.4,3.6-0.8c5-1.8,9.9-3.6,15.1-4.9c4-1,8-2.1,12-3.2c0.5-0.1,1-0.4,1.5-0.7
		c-0.5-1.5-1-2.8-1.3-4.1c-0.2-0.5-0.3-1.1-0.3-1.7c0-0.4,0.4-0.7,0.7-1.2c1.1,2.3,1.2,4.7,2.5,6.7c1.2-0.3,2.4-0.2,3.2-1.3
		c-0.4-1.4-0.9-2.7-1.2-4c-0.3-0.9-0.5-1.8-0.6-2.7c-0.1-0.6,0.2-1.1,1.1-1.2c1.1,2.5,1,5.3,2.1,7.9c1.8-0.6,3.6-1.1,5.3-1.7
		c7.8-2.7,15.6-5.5,23.5-8.1c7.5-2.5,15.1-5,22.7-7c6.5-1.7,12.9-3.4,19.2-5.5c0.8-0.3,1.7-0.7,2.4-1.2c1.9-1.6,4.1-2.5,6.5-3.1
		c4.2-0.9,8.1-2.5,12.1-4.1c0.4-0.2,1.1-0.1,1.1-0.9c-1.2-0.4-2.3,0-3.4,0.4c-2.1,0.6-4.2,1.3-6.3,1.8c-4.1,0.9-8.2,0.8-12.2-0.6
		c-0.7-0.3-1.6-0.7-2.3-0.6c-1.7,0.3-3-0.4-4.2-1.3c-1.8-1.2-3.5-2.6-5.2-4c-1.2-0.9-2.3-1.9-3.3-2.9c-1.5,0.5-2.7,1.1-4,1.4
		c-6.9,1.8-13.6,4.1-20.4,6.2c-9.7,3-19.3,6-28.7,9.7c-1.4,0.6-2.8,1-4.2,1.5c-10.1,3.3-20.4,5.7-30.6,8.3c-9,2.3-18.2,4.1-27.1,6.9
		c-5.8,1.9-11.6,3.6-17.5,5.4c-5.3,1.6-10.5,3.3-15.8,4.9c-3.3,1-6.6,2.1-9.9,2.9c-5.2,1.2-10.1,3.2-15.1,4.9
		c-0.4,0.1-0.9,0.4-1.2,0.7c-0.6,0.6-1.3,0.8-2.1,1.1c-2.5,0.9-5.1,1.6-7.3,3.1c-6.6,4.5-9.3,13-2.9,21.3c7.3-1.5,14.3-4.3,21.7-5.9
		c0.5-2-0.2-3.9,0.6-5.6c0.8,0,1.1,0.4,1.1,1c0,1.4-0.3,2.7,0.2,4c1.2,0.3,2.3-0.2,3-0.9c1.6-1.7,3.8-2,5.9-2.5c2-0.5,4-1.1,5.9-1.8
		c4.4-1.4,8.7-3,13.1-4.4c9.6-3.1,19.5-5.2,29.4-7.6c1.8-0.4,3.6-0.8,5.1-2c0.8-0.6,1.8-1,2.8-1.2
		C568.9,395.6,568.9,394.1,570.1,394.2z M514.9,416.2c4.1-0.1,8.1-0.2,12.1-0.3c4-0.2,8.1-0.3,11.9-1.6c0.7-0.2,1.6-0.2,2.4-0.2
		c4.7-0.2,9.4-0.2,14.1-0.6c7.7-0.6,15.4-1.4,23-2.1c10-0.9,19.9-1.8,29.9-2.7c3.6-0.3,7.1-0.6,10.7-0.9c4.8-0.4,9.6-0.8,14.5-1.2
		c3.9-0.3,7.8-0.6,11.7-0.8c7.7-0.6,15.4-1.4,23.1-1.7c9-0.3,18-0.2,26.9-0.2c1.6,0,3.2,0.3,4.8,0.6c3.6,0.5,7.3,1,11,0.6
		c0.7-0.5,1.3-1,2-1.4c2.2-1.3,3.5-3.2,4.6-5.5c0.9-1.9,0.9-3.8-0.6-5.4c-2.1-2.4-4.1-5-6.4-7.2c-6.7-6.5-13.5-12.9-20.2-19.3
		c-0.8-0.8-1.8-1.3-2.8-1.9c-0.9-0.5-1.3-1.8-1.9-2.7c-0.1-0.2-0.4-0.2-0.7-0.4c-2.1,0.7-4.3,1.4-6.4,2.1c-2.1,0.7-4.1,1.5-6.1,2.3
		c-2.1,0.8-4.5,0.8-6.6,2.3c2.1,8.8,4.2,17.5,6.3,26.2c0.3,1.1,0.6,2.2,0.7,3.4c0.1,0.6-0.4,1-1.2,0.7c-0.6-1.2-0.8-2.5-1.1-3.9
		c-1.6-7.7-3.2-15.3-4.8-23c-0.2-1.1-0.4-2.3-1.2-3.3c-0.7,0.1-1.5,0.1-2.3,0.3c-1.9,0.5-3.8,1-5.6,1.6c-11,3.7-22.1,7.3-33,11.1
		c-6.7,2.3-13.5,4.6-20.4,6.5c-4.3,1.2-8.6,2.4-13,3.5c-7.5,1.9-14.6,4.9-21.9,7.4c-1.7,0.6-3.4,1.4-5.2,1.8
		c-4.1,1.1-8.2,2.2-12.3,3.2c-6.6,1.7-13.2,3.2-19.6,5.6c-4.8,1.7-9.5,3.4-14.3,5.1c-0.5,0.2-1.1,0.3-1.6,0.6
		C514.4,415,514.3,415.6,514.9,416.2z M769.4,316.8c0.7-0.2,1.4-0.3,2-0.6c2.8-1.1,5.3-2.7,7.8-4.3c1.6-1.1,3.3-2.1,5-3.1
		c0.6-0.3,1.3-0.8,1.9-0.7c2.2,0.3,4.3-0.6,6.5-0.7c2.2-0.1,4.3-0.8,6.6-0.5c0.1,0.6,0.2,1.2,0.4,1.6c0.3,0.6,0.8,1.1,1.2,1.7
		c0.3,0.6,0.6,1.2,0.8,1.9c0.3,1.2,0.5,2.5,0.6,3.7c0.2,2.3,1.1,4.6,0.4,6.8c-0.6,2.3-0.5,4.5-0.1,6.8c0.3,2.2,0,2.9-1.9,3.8
		c-1,0.5-2.1,0.9-3.1,1.3c-0.1,1.9-0.1,3.6-0.3,5.3c-0.4,2.8,0.1,5.5,1.4,8c2.9,5.5,5.8,10.9,9.7,15.8c1,1.3,2,2.6,2.5,4.1
		c0.8,2.2,1.9,4.1,3.2,6.1c1.4,2.1,2.8,4.2,4,6.5c2.6,4.8,5.2,9.7,7.8,14.8c5.5,1.2,10.7,0.6,15.1-3.8c-1.3-3.9-2.5-7.5-3.8-11.2
		c-0.2-0.6-0.7-1.2-1.2-1.6c-0.7-0.6-0.9-1.3-1.1-2.1c-1-3.9-1.9-7.8-2.9-11.7c-0.3-1.1-0.3-2.4-0.9-3.3c-1.3-2.3-1.3-4.9-1.7-7.3
		c-0.4-2.5-0.6-5-0.7-7.6c-0.4-7.2-1.2-14.4-2.3-21.6c-0.6-3.5-1.3-7-2.1-10.5c-0.2-1-0.7-2-1.4-2.7c-0.7-0.8-1.1-1.7-1.4-2.7
		c-0.4-1.5-0.9-3.1-1.3-4.4c-0.8-0.3-1.3-0.4-1.9-0.6c-0.5-2.6-1.1-5-1.6-7.5c-0.7-3.5-1.9-6.9-3.2-10.2c-0.5-1.3-1.6-1.9-2.7-2.5
		c-1.7,0.7-3.4-0.4-5.1-0.3c-2.4,0.2-4.8-0.5-7.1-1.1c-4.6-1.2-9.2-1.8-14-1.1c-1.1,0.2-2.3,0.1-3.4,0c-3.2-0.3-6.4-0.6-9.6-0.9
		c-0.5-0.1-1.1,0-1.9,0.1c-0.5,1.7-1,3.3-1.4,5C766.1,296,767.2,306.3,769.4,316.8z M760,361.5c0.5,0.1,1,0.2,1.4,0.2
		c13.6,0.1,27.2,0.1,40.8,0.2c0.1,0,0.2-0.1,0.3-0.1c0.1-0.1,0.1-0.2,0.1-0.3c0-0.1,0-0.3-0.1-0.3c-2.9-2.2-4.6-5.5-7.3-7.7
		c-0.3-0.2-0.4-0.6-0.6-0.9c-1.9-3.4-3.8-6.9-5.1-10.6c-0.8-2.1-1.2-4.2-1.1-6.4c0.1-1.1,0.2-2.3,0.1-3.4c-0.1-1.6-0.6-2.9-2.1-3.4
		c-4.5,1.5-8.7,3.1-13,4.4c-3.2,1-6.5,1.6-9.7,2.5c-1,0.3-1.9,0.6-2.9,0.9C759.6,344.9,760.2,353.2,760,361.5z M687.2,359.8
		c0.4,1.5,1.5,1.9,2.2,2.3c3.9-0.1,7.4-0.3,11-0.3c15.2-0.1,30.3-0.2,45.5-0.2c0.9,0,1.8-0.1,2.8-0.2c0.1-4.2,0.3-8.2,0.4-12.2
		c0.1-2.6,0.1-5.3,0.1-7.9c0-0.1,0-0.2-0.1-0.3c-0.1-0.1-0.2-0.2-0.3-0.2c-2.2-0.8-4-0.3-5.5,1.4c-2.3,2.5-5.5,3.7-8.3,5.5
		c-0.4,0.2-0.9,0.4-1.3,0.3c-0.9-0.3-1.6,0.1-2.3,0.2c-1.1,0.2-2.2,0.5-3.4,0.6c-3,0.2-6,0.3-8.9,0.6c-1.1,0.1-2.3,0.2-3.4,0.6
		c-3.4,1.1-6.8,2.2-10.1,3.5c-5.2,2-10.4,4.3-15.9,5.5C688.8,359.1,688,359.5,687.2,359.8z M779.3,433.1c-0.1-3.7,2.2-5.6,4.7-7.5
		c-1.7-0.7-3.2-1.4-4.8-2c-9-3.9-17.9-7.9-26.9-11.6c-10.1-4.2-20-8.7-29.8-13.5c-0.5-0.2-0.9-0.7-1.8-0.3c-1.3,3.2-3.4,6.1-6.7,8.4
		C735.6,416.1,756.8,425.6,779.3,433.1z M804.7,378.5c-0.1,2.3-0.3,4.6-0.3,6.8c0.1,5.5,0.4,11,0.6,16.5c0.2,7.3,0.2,14.7,0.3,22
		c0,0.6,0.2,1.3,0.3,2.1c2.9-0.4,5.7-0.6,8.5-0.5c-1-0.6-2.1-0.9-3.1-1.4c-2.7-1.3-3.2-3.1-1.4-5.1c1-1.2,1.3-2.6,1.2-4.2
		c-0.1-2.2,0-4.4,0.2-6.5c0.3-3.6,0.7-7.1-0.3-10.7c1.7-1.5,0.3-4.4,2.7-5.7c2,0.3,4,0.5,6.2,0.8c0.1-0.5,0.4-0.9,0.4-1.3
		c-0.1-1.1-0.3-2.3-0.7-3.4c-1.7-4.3-4-8.2-6.4-12C809.8,375.3,807.3,376.3,804.7,378.5z M537.5,480.2c4,0.7,13.2,0.2,17.3-0.8
		c0.2-4.1-1.4-7.8-2-11.6c-3.3-0.6-11.6-1.1-14.2-0.8c-0.2,0-0.4,0.3-0.7,0.5C537.6,471.6,536.7,475.9,537.5,480.2z M758.6,337
		c-3.3,0.2-5.7,1.6-8,3.1c0,2.8,0,5.5,0,8.1c0,3.2,0.1,6.4,0.1,9.6c0,1.8,0.4,3.6,1.4,5.2c1.7-0.1,3.3-0.2,4.9-0.2
		c0.8-0.8,1-1.7,1-2.8c-0.1-7.1-0.2-14.2,0.7-21.3C758.7,338.3,758.6,337.8,758.6,337z M814.1,422.5c0.6-3.9,1.2-7.5,1.9-11.1
		c0.7-3.6,1.3-7.2,0.5-10.9c-0.2-1.1,0-2.3,0.1-3.4c0-0.7,0.2-1.4,0.2-2c0-0.8-0.4-1.3-1.2-1.4c-0.4,0-0.9,0.1-1.4,0.1
		c-0.6,2-1,3.8-0.8,5.8c0.2,1.7,0.2,3.4,0.2,5.2c-0.2,3.5-0.5,7.1-0.7,10.6c-0.1,1.3-0.4,2.5-1.1,3.6c-0.5,0.7-0.8,1.6-1.2,2.5
		C811.7,422.2,812.8,422.8,814.1,422.5z M572.8,186.7c1.4,0.5,2.7,0.8,4,1.3c1.2,0.5,2.4,1.1,3.8,1.8c0.3-0.5,0.8-0.8,0.8-1.1
		c-0.1-1.3-0.5-2.4-1.5-3.3c-0.9-0.7-1.5-1.7-2.2-2.6c-0.7-1-1.4-2.1-2.1-3.1c-0.9-0.1-1.7-0.1-2.4-0.3c-1.3-0.2-2.1-0.9-2.2-2.2
		c-0.1-0.5-0.3-1-0.6-2C569.6,179.7,570.9,183.2,572.8,186.7z M805.8,363.1c-4.7,0.2-9.3,0.6-13.9,0.6c-9.3,0.1-18.6,0-27.9,0.1
		c-1.3,0-2.5,0-3.8,0.1c-0.4,0-0.7,0.5-1.3,1c16.1,0.8,31.7,0.3,47.6-0.6C806.1,363.7,805.9,363.4,805.8,363.1z M571.8,173.2
		c0.3,1.3,0.4,2.6,0.7,3.8c0.2,0.9,1.2,1.3,1.9,0.9c0.5-0.3,0.9-0.7,1.4-1c0.6-0.4,1.2-0.8,1.7-1.2c0.4-0.3,1.1-0.3,1-1.1
		C576.2,174.2,574.1,173.7,571.8,173.2z M790.8,392.7c-0.1,3.7-0.3,7.4,0.1,11.6C791.4,401.2,791.3,395.7,790.8,392.7z M587.6,120.2
		c0,0.2,0.1,0.4,0.1,0.7c1.6-0.6,2.9,0,4.2,1.2c0.3-0.7,0.7-1.2,0.7-1.7c0-0.3-0.8-0.8-0.8-0.8c-0.9,0.8-1.6,0.2-2.5-0.1
		C588.9,119.3,588.2,119.9,587.6,120.2z M685.5,292.8c1.5-0.5,2.2-1.1,3-2.1c-0.8,0-1.4,0-1.9,0c-0.5,0-1.1,0-1.9,0
		C684.9,291.5,685.2,292.1,685.5,292.8z M565.3,143.7c1.1-0.3,2.1-0.2,2.7-1.1c-1-0.6-1.8-0.9-3-1
		C565.2,142.4,565.2,142.9,565.3,143.7z M585.6,143.6c1-2,1.6-3.2,1.5-4.9C585.7,141,585.7,141,585.6,143.6z M592.1,127.9
		c-0.3-0.1-0.6-0.3-0.7-0.3c-0.9,0.7-1.7,1.4-2.5,2.1c-0.2,0.2-0.1,0.5-0.3,1.2C590.1,130,591.1,129,592.1,127.9z M578.1,135.5
		c2.7,0.8,2.7,0.8,3.2-0.8C580.1,135.6,579,134.5,578.1,135.5z M571.3,139.4c0.1,1.3,0.1,1.7,0.2,2.1c0,0.2,0.3,0.3,0.5,0.5
		c0.8,0,1.2-0.6,1-1.3C572.9,140.3,572.2,140.1,571.3,139.4z M689.4,288.1c-0.1,0.1-0.3,0.3-0.4,0.4c0.2,0.3,0.4,0.7,0.7,1
		c0.2,0.2,0.7,0.3,0.8,0.2c0.5-0.4,0.1-0.8-0.3-1C690,288.3,689.6,288.2,689.4,288.1z M684,294.4c-0.6-2-0.6-2-2-2.2
		C682.7,292.9,683.2,293.5,684,294.4z M594,115.7c0.1,0.2,0.2,0.4,0.3,0.6c0.2-0.1,0.5-0.2,0.5-0.3c0-0.3-0.2-0.5-0.3-0.7
		C594.4,115.4,594.2,115.5,594,115.7z M580.4,122.9c-0.1,0.3-0.3,0.5-0.4,0.8c0.2,0.1,0.5,0.3,0.5,0.3c0.2-0.2,0.3-0.4,0.5-0.7
		C580.9,123.1,580.7,123,580.4,122.9z M560.5,142.6c0.3-0.2,0.5-0.2,0.6-0.4c0-0.2,0-0.5-0.2-0.6c-0.1-0.1-0.5,0-0.5,0.1
		C560.4,142,560.4,142.2,560.5,142.6z M585.6,147.8c0.1-0.2,0.3-0.4,0.3-0.5c0-0.2-0.2-0.3-0.3-0.5c-0.1,0.2-0.3,0.4-0.3,0.5
		C585.3,147.4,585.5,147.6,585.6,147.8z M581.6,153.3c0-0.1,0-0.2,0-0.3c-0.1,0-0.3,0.1-0.4,0.1c0,0.1,0.1,0.2,0.1,0.3
		C581.4,153.3,581.6,153.3,581.6,153.3z M579.1,150.3c-0.1-0.2-0.2-0.4-0.2-0.5c-0.1,0-0.3,0.1-0.3,0.1c0,0.2,0,0.4,0.1,0.6
		C578.8,150.4,578.9,150.4,579.1,150.3z M586.1,122.3c0.1,0.1,0.1,0.1,0.2,0.2c0.1-0.2,0.2-0.3,0.2-0.5c0,0-0.1-0.1-0.2-0.2
		C586.3,122,586.2,122.2,586.1,122.3z M561.7,147c-0.1-0.2-0.2-0.3-0.3-0.5c-0.1,0.1-0.2,0.2-0.2,0.2c0,0.2,0.1,0.4,0.2,0.6
		C561.5,147.2,561.6,147.1,561.7,147z M581.1,146.9c-0.1-0.1-0.2-0.3-0.3-0.4c-0.1,0.1-0.2,0.2-0.2,0.2c0,0.2,0.1,0.4,0.2,0.6
		C580.9,147.1,581,147,581.1,146.9z M590.6,131.2l-0.1,0.2l0.2,0L590.6,131.2z M659.2,322.1c-0.1-0.1-0.1-0.2-0.2-0.2
		c-0.1,0-0.1,0.1-0.2,0.2c0.1,0.1,0.1,0.2,0.2,0.2C659,322.3,659.1,322.2,659.2,322.1z"/>
	<path d="M405.8,444.6c-0.1,0.3-0.1,0.7-0.2,1c-0.2,0.1-0.4,0.4-0.6,0.4c-5.3,0.1-10.6,0.3-15.9,0.2c-3.8,0-7.6-0.4-11.4-0.6
		c-5.7-0.3-11.5-0.6-17.2-0.9c-1.3-0.1-2.7,0.2-4.3,0.3c0.4,0.5,0.6,0.9,0.8,1c1.5,0.8,3.2,1.3,4.9,1.4c2.3,0.1,4.6,0.3,6.9,0.3
		c7.5,0,15-0.1,22.5-0.1c9,0,18,0.1,26.9,0.2c2.2,0,4.4,0.1,6.5,0.5c3.7,0.7,6.5,2.8,8,6.4c0.2,0.5,0.2,1.1,0.1,1.7
		c-0.6,3.3-0.2,6.6,0.1,10c0.1,1.3,0.2,2.5,0.4,3.8c0.3,2.1-0.2,3.9-1.8,5.5c-0.6,0.1-1.2,0.2-1.9,0.2c-4.7-0.1-9.4,0.5-14.1,1.2
		c-2,0.3-4.1,0.3-6.2,0.3c-14.5,0-29-0.1-43.5-0.2c-0.7,0-1.4-0.1-2.1,0c-5.4,0.7-10.5-1-15.5-2.7c-1.3-0.4-2.4-1.2-3.6-2
		c-0.3-0.2-0.4-0.7-0.6-1c0.9-0.6,1.5-0.1,2.1,0.1c3.3,1,6.6,2.1,9.9,3.1c1,0.3,2,0.5,3,0.5c13.7,0.1,27.4,0.2,41.1,0.2
		c5.1,0,10.1,0,15.2-0.1c2.7-0.1,5.5-0.5,8.2-0.8c2.3-0.2,4.6-0.3,7.1-0.5c0.1-0.8,0.2-1.5,0.2-2.3c-0.1-4.7-0.3-9.4-0.4-14.2
		c0-1.2,0.2-2.5-0.7-3.6c-1.1-1.4-2.4-2.6-4.1-3c-2.8-0.7-5.6-0.9-8.6-0.3c0.9,0.9,1.6,1.7,2.2,2.3c2,0.7,4.2-0.3,6.1,0.7
		c0.1,0.7-0.3,1-0.8,1c-1.8,0.1-3.6,0.1-5.3,0.2c-0.8,0.7-0.6,1.4-0.5,2.1c0.2,4.3,0.5,8.5,0.7,12.8c0.1,1.1,0.4,2.3-0.4,3.6
		c-0.3-0.3-0.8-0.5-0.8-0.8c-0.1-0.9-0.2-1.8-0.2-2.7c0-3.7,0-7.4-0.1-11.1c0-1.1-0.1-2.3-0.2-3.4c-0.8-0.3-1.5-0.6-2.5-0.9
		c0.4-0.5,0.7-0.8,0.9-1.2c-0.3-0.7-0.6-1.5-1-2.4c-0.1,0-0.3-0.2-0.5-0.2c-7.4-0.1-14.7-0.7-22.1-0.4c-5.5,0.2-11,0.2-16.6,0.2
		c-4,0-8.1-0.1-12.1-0.3c-2.6-0.1-5.3-0.5-7.8-0.7c-1-0.7-1.2-2.1-2.6-2.3c-0.5-0.1-1.1-0.8-1.3-1.4c-1.2-2.8-2.1-5.6-2-8.7
		c0.1-1.8-0.2-3.7-0.4-5.5c-0.1-1-0.3-2.1-0.3-3.1c-0.3-9.1-0.5-18.2-1-27.3c-0.3-5.7,0-11.3,0.1-16.9c0-0.6,0.1-1.2,0.1-1.7
		c-0.1-3.3,1.3-5.5,4.7-6.7c1.3,0.1,2.9,0.2,4.7,0.3c-0.4-2-1.6-3.5-2.3-5.1c-0.7-1.6-0.9-3.4-2.7-4.7c-0.3,0-1,0-1.7,0
		c-4.7,0.2-9.4,0.7-14.1,0.7c-9.4,0.1-18.9,0.1-28.3,0c-3.7-0.1-7.3-0.7-11-1.2c-0.5-0.1-1-0.1-1.3-0.3c-1.6-1.2-3.5-1-5.3-1
		c-16.5,0.1-32.9,0.3-49.4,0.4c-1.3,0-2.5,0.1-4.2,0.2c0.6,0.7,0.9,1.2,1.3,1.5c3.5,3.3,7.1,6.6,10.6,9.9c0.8,0.7,1.4,1.5,2.1,2.2
		c1.5,1.6,3,3.2,4.5,4.7c2.6,2.6,5.2,5.2,7.8,7.8c1.4,1.4,2.6,2.9,2.6,5.2c2.1,1.3,4.4,2.1,6.5,3.2c12.2,5.7,24.7,10.7,37.1,15.8
		c6.8,2.8,13.5,5.9,20.2,8.8c1.4,0.6,2.9,1.2,4,2.6c0.1-0.7,0.3-1.5,0.3-2.2c0-3.8,0-7.6,0-11.4c-0.1-6-0.3-12-0.4-18
		c0-1.3-0.4-2-1-1.8c-0.8,0.3-0.8,1-0.9,1.7c-0.1,0.8-0.2,1.6-0.4,2.4c0,0.1-0.1,0.2-0.2,0.3c-3.1,0.6-3.7,0.6-7-1
		c-1.6-3.4-1.8-6.9-0.1-10.6c1.9-0.4,3.7-0.3,5.7,0.2c0.4,0.9,0.9,1.8,1.4,2.8c0.7,0,1.4,0,2.2,0c0.7-2.3,0.7-2.3-0.1-8.5
		c-1-1.5-2.5-1.7-4.2-1.7c-11.4,0.2-22.8,0.4-34.2,0.4c-3.6,0-7.1-0.5-10.7-0.7c-3.2-0.1-6.4,0-9.7,0c-1,0-2.1,0.1-3.1-0.1
		c-2.2-0.6-4.3-0.3-6.5-0.2c-3.2,0.2-6.4,0.2-9.7,0.1c-0.5,0-1-0.4-1.9-0.9c0.6-0.4,0.8-0.6,1.1-0.7c0.6-0.1,1.2-0.2,1.7-0.1
		c3.2,0.5,6.4,0,9.6-0.1c3.8-0.1,7.6,0.1,11.4-0.5c1.7-0.3,3.4,0,5.2,0.1c6,0.4,11.9,1,17.9,1c9.1-0.1,18.2,0.1,27.3,0.1
		c1.5,0,2.9-0.2,4.8-0.3c0.6,0.4,1.4,0.9,2.3,1.6c0.3,2.1,0.7,4.2,0.8,6.4c0.2,2-0.2,4.1,0.1,6.9c1-3.6,0.1-6.6,1-9.5
		c1,0.2,0.9,0.9,0.9,1.4c0,3.1-0.1,6.2-0.2,9.3c-0.1,2.9-0.3,5.7-0.1,8.6c0.2,1.9-0.2,3.9-0.3,5.8c-0.2,3-0.1,6,0.3,9
		c0.2,1.7-0.1,3.4,0,5.1c0.1,1.4-1.4,2.2-1.2,3.8c0.2,1.2-0.4,2.5-0.7,3.7c0,0.2-0.3,0.3-0.5,0.6c-0.6-0.3-1.3-0.8-2-0.9
		c-0.8-0.1-1.6,0.1-2.4,0.1c-0.8,0.1-1.6,0.2-2.3,0.3c-1.9,1.4-2.5,3.2-2.3,5.5c0.2,1.7-0.3,3.5,0.8,5.1c2.7,1.1,5.9-0.4,8.9,1.4
		c0.4,0.9,0.8,2.1,1.4,3.2c0.6,1.2,1.1,2.5,1.9,3.7c1.4,2.2,3.5,3.6,6.1,4.2c1.1,0.2,2.2,0.5,3.2,0.7c0.1,0.9-0.4,0.9-0.8,1
		c-4.2,0.5-7.4-1.3-9.7-4.7c-1.3-2-2.5-4-3.8-6c-0.2-0.3-0.7-0.5-0.9-0.7c-0.7,0.4-0.5,0.9-0.5,1.3c-0.5,3.6,0.3,7.1,0.7,10.6
		c0.6,4.8,3.3,8.5,7.1,11.4c1.1,0.8,2.2,1.7,3.2,2.6c0.6,0.5,0.5,0.9-0.2,2.1c-3.9-1.7-7-4.3-9-8.2c-1.6-3.1-2.6-6.4-2.8-9.9
		c-0.2-3.3-0.4-6.6-0.6-10.1c-1.5-0.9-3.5-0.5-5.5-1c-0.3-0.8-0.7-1.6-0.9-2.4c-0.2-0.8-0.2-1.6-0.4-2.5c-1.3-0.6-2.6-1.1-3.8-1.6
		c-12.2-4.5-24.3-9.3-36.1-14.7c-8.4-3.8-16.6-7.8-24.9-11.8c-1.3-0.6-2.4-1-3.9-0.8c-3.6,0.4-7.1,0.3-10.7-0.4
		c-0.3-0.1-0.7,0-1-0.2c-2.4-1.4-5.1-1-7.7-1c-6.3,0.1-12.7,0.2-19,0.5c-5.1,0.2-10.1,0.7-15.1,1.2c-7.6,0.6-15.1,1.3-22.7,1.9
		c-3,0.3-6,0.5-8.9,0.7c-7.5,0.6-14.9,1-22.4,1.7c-8.4,0.7-16.7,1.6-25.1,2.4c-3.2,0.3-6.4,0.6-9.6,1c-0.6,0.1-1.1,0.2-1.8,0.2
		c-0.8,5.7-1.7,11.2-2.5,16.9c1.8,0.4,3.6-0.1,5.4,0.3c0.1,0.5,0.4,1.2,0.4,1.8c0.1,1.5,0.1,3,0.3,4.5c0.2,2.5,0.5,5,0.8,7.5
		c0.1,1,0.5,2.1-0.3,3c-0.9,0.3-1.4-0.2-1.5-0.9c-0.3-1.6-0.6-3.2-0.7-4.8c-0.1-2.1,0-4.1,0-6.7c-0.9,0.7-1.4,1.1-2,1.5
		c-0.9-1.2,0.3-2.2,0.1-3.5c-0.7-0.1-1.6-0.3-2.6-0.5c-0.4,2.8-0.7,5.4-1.1,8.1c-0.3,2.4-0.5,4.8-0.9,7.2c-0.1,0.4-0.3,0.9-0.5,1.2
		c-0.1,0.1-0.4,0.2-0.6,0.2c-0.2,0-0.5-0.2-0.6-0.3c-0.2-0.3-0.3-0.6-0.3-1c0-0.8,0-1.6,0.1-2.4c1.4-10,2.3-20.1,4.7-30
		c0.1-0.4,0-0.9,0-1.6c-3.6-0.3-7.1,0.1-10.7,0.5c-0.8,1.1-0.8,2.4-0.9,3.6c-0.7,5.2-1.3,10.5-2,15.7c-0.4,3.1-0.9,6.2-1.6,9.2
		c-0.9,3.7-1.9,7.4-2.3,11.1c0,0.3-0.2,0.6-0.2,0.8c-0.7,0.9-1.3-0.1-2.3,0.2c-1.5,2.4-3,5-4.3,8.2c0.9,0.2,1.5,0.4,2.2,0.4
		c2.6,0,5.3,0,7.9,0c1,0,2,0,2.9,0c2.1,3.5,4.1,11.7,3.8,15.1c-0.1,0.9-0.1,1.9-1.4,2.2c-0.2-0.1-0.5-0.3-0.8-0.5
		c-0.3-0.2-0.5-0.5-0.7-0.7c-6.1,0.8-12,2.2-18.3,0.9c-0.1-0.6-0.3-1.3-0.4-1.9c-0.2-4.5,0.6-9,0.9-13.4c0-0.3,0.1-0.7,0.3-1
		c2.3-3.2,3.6-6.9,5.9-10.1c0.5-0.6,0.8-1.6,1.4-1.9c1.3-0.7,1.5-1.9,1.8-3.1c0.9-4,2.1-8,2.8-12.1c0.9-4.8,1.4-9.6,2.1-14.3
		c0.4-2.6,0.9-5.2,1.4-8c-0.7-0.1-1.4-0.3-2-0.4c-2.2-0.1-4.4-0.3-6.5-0.3c-2.4,0-4.8,0.1-7.2,0.5c-1.2,0.2-2-0.2-2.9-0.6
		c-3.1,0.7-6,1.5-8.9,2.8c-4.1,1.9-8.3,1.7-12.2-0.7c-0.7-0.4-1.4-0.8-2-1.2c-0.3,0-0.6-0.1-0.8,0c-3.3,1.7-6.9,2.3-10.5,3.2
		c-5.2,1.2-10.2,2.8-15.3,4.1c-1.2,0.3-2.4,0.7-3.7,0.9c-2.3,0.4-3.1-0.1-4-2.2c-1.3-3-2.3-6-2.6-9.3c-0.1-0.7-0.1-1.4,0-2.1
		c1-4.4,3-8.2,6.8-10.9c0.9-0.7,2-1.1,3.1-1.5c2.2-0.9,4.4-1.8,6.7-3c-0.8-1.3-1.6-2.5-2.4-3.8c-2.3-0.1-4-1.3-5-3.4
		c-0.5-1-1.4-1.6-2.4-1.7c-1.8-0.1-3.3-0.9-4.7-2.2c-0.5,0.8-0.9,1.4-1.3,2c-0.8,0.3-1.3-0.3-1.7-0.8c-0.6-0.7-1-1.5-1.9-1.9
		c-0.3-0.1-0.2-1-0.3-1.6c-0.6-0.3-1.3-0.6-2.2-0.9c0.2-0.8,0.3-1.4,0.5-2.1c-0.2-0.2-0.4-0.6-0.7-0.7c-1.8-1-2.8-2.7-3.5-4.6
		c-0.3-0.8-0.6-1.5-0.8-2.3c-0.3-1.1-0.8-1.9-1.8-2.4c-0.4-0.2-0.6-0.6-0.8-0.8c-0.1-1.1,1-0.6,1.2-1.2c0.4-0.7,0.1-1.4-0.2-2
		c-0.9-1.6-1.3-3.3-1.1-5c0.5-3.1-0.6-5.6-2.3-8c-0.3-0.5-0.6-1-0.7-1.5c-0.1-0.3,0.1-0.6,0.3-1.1c0.6,0.1,1.1,0.2,1.7,0.3
		c0.1-0.2,0.2-0.4,0.2-0.6c-0.3-1.5-0.7-2.9-0.9-4.4c-0.3-1.5,0.5-2.8,0.7-4.2c0.1-0.5,1.1-0.9,1.8-1.5c-1.2-0.7-2.2-1.4-3.2-2
		c0.6-1.3,1.2-2.3,1.7-3.4c0.5,0.1,1.1,0.2,1.6,0.3c0,0.3-0.1,0.8,0.4,0.3C8,335,7.8,335,7.7,334.9c-0.1-0.5-0.2-1.1-0.4-1.6
		c-0.2-0.5-0.5-1-0.8-1.5c0.3-1.5,1.1-2.3,2.6-2.3c0.9,0,1.8,0.1,2.7-0.4c0.9-0.5,1.5,1,2.6,0.5c0.1-0.1,0.9,0.6,1.1,1.1
		c1.1,1.9,2.1,3.8,3.1,5.7c1.4,0.2,2.5-0.2,3.6-0.8c1.6-0.9,3.2-1.9,4.8-2.7c1.9-0.9,3.9-1.6,5.9,0.2c2.6-1.2,4.8-3,7.1-4.7
		c0.4-0.3,0.7-0.6,1-0.9c1.9-1.4,2.9-1.3,4.9,0.3c0.3,0.2,0.6,0.4,0.9,0.6c0.9-0.3,1.9-0.6,2.9-0.9c0.5,0.4,1,0.7,1.4,1
		c0.3,0,0.5,0.1,0.7,0c1.6-1.2,3.3-1.4,5.2-0.5c0.3,0.1,0.7,0.2,1.1,0.3c0.4-0.2,1-0.5,1.5-0.7c2.9-1.4,5.6-0.7,6.9,2.3
		c1.1,2.6,1.8,5.4,2.7,8.2c0.2,0.5,0.2,1.1,0.3,1.8c1.8,1.1,3.8,1.6,5.8,1.9c2.4,0.4,4.8,0.4,7.3,0.6c0.1,0,0.4-0.1,0.4-0.3
		c1.4-3.1,3.6-5.6,6.1-7.9c0.7-0.6,1.4-1.2,1.9-2c2-2.6,4.6-4.5,7.4-6.1c4.4-2.5,9-4.6,13.8-6.3c5.6-1.9,11.3-2.1,17.1-1.5
		c2.9,0.3,5.2-0.6,7.5-1.7c1.3-0.7,2.6-1.5,3.9-2.3c3.7-2.3,7.7-3.6,11.8-4.6c6.5-1.6,13-3,19.6-4.1c4.8-0.8,9.6-1.3,14.4-1.9
		c3-0.3,6-0.7,8.9-0.5c3.4,0.2,6.6-0.3,10-0.3c0.4,0,1,0,1.3-0.2c1.1-0.8,2.3-0.9,3.6-0.8c0.4,0,0.9-0.1,1.3-0.3
		c3.9-1.5,7.6-3.3,10.8-6.1c1.7-1.5,3.5-3,5.3-4.4c0.7-0.6,1.4-1.1,2.5-1c0.7,0.1,1.5-0.4,2.2-0.7c1.9-0.7,3.8-1.6,5.8-2.3
		c2.6-0.9,5.3-1.5,8.1-1.5c5.9,0.1,11.7,0.3,17.6,0.4c2.6,0.1,5-0.2,7.2-1.9c0.4-0.3,1-0.6,1.5-0.8c0.6-0.3,1.3-0.4,1.9-0.8
		c3.8-2.7,8.3-3.3,12.7-3.9c1.5-0.2,3-0.3,4.5-0.3c12.1-0.1,24.2-0.8,36.2,1c3.4,0.5,6.9,0.6,10.3,0.6c2.4,0,4.9,0.2,7.2,0.9
		c2.1,0.7,4.3,0.9,6.5,0.8c1.8-0.1,3.7-0.1,5.2,1.4c0.2,0.2,0.4,0.3,0.6,0.3c2.3-0.1,3,1.6,4,3.2c2.3,3.7,3.7,7.6,4.2,11.9
		c0.1,0.9,0.5,1.8,0.9,2.6c0.7,1.4,1.5,2.8,2.3,4.2c3,5.5,4.8,11.4,5.9,17.6c1.3,7.5,2.2,15,2.7,22.6c0,0.5,0.1,0.9,0.2,1.6
		c3.5,3.7,7.2,7.5,10.9,11.3c0.6,0.7,1.3,1.3,2,1.9c3.2,3.4,6.7,6.2,11.1,8c4.3,1.7,7.9,4.6,11.7,7.3c3,2.2,6.1,4.2,9,6.4
		c2.8,2.1,5.5,4.5,7.8,7.3c1.2,1.5,2.2,3,2.4,5.2c0.2,1.8,0.7,3.6-0.4,5.5c0.6,0.1,1.1,0.4,1.5,0.3c3.3-0.5,5.7,1.5,8,3.3
		c2.1,1.7,2.7,4.3,1.9,6.9c-1.2,3.7-3.4,6.8-6.5,9.1c-1.3,1-2.5,2-3.8,3c-1.9,1.5-4.1,2.6-6.4,3.4c-2.6,0.9-5.2,1.8-7.8,2.7
		c-3.8,1.3-7.7,2.3-11.8,2c-0.3,0-0.6,0.2-1,0.3c1.7,4,1.5,8.1,1.5,12.3c0,1-0.4,1.2-1.9,1.4c-0.1-0.8-0.3-1.6-0.3-2.4
		c0-1.5,0-3,0.1-4.5c0.1-2.7-0.3-5.3-2.4-7.5c-5.1-0.8-10.3-0.6-15.5,0.8c-2.3,0.6-4.7,1.3-7.1,1.5c-3.4,0.3-6.9,0.2-10.3,0.3
		c-3.4,0.1-6.6-0.7-9.5-2.6c-0.2-0.1-0.4-0.1-0.7-0.1c-0.7,0.2-1.5,1-1.9-0.5c0.3-0.2,0.7-0.4,1.6-0.8c-3.2-1.3-5.7-1.1-8.4-0.8
		c0.9,1.9,2.9,0.6,4,1.9c-1.2,0.3-2.3,0.7-3.4,1c0,2.6-0.1,5.3,0,7.9c0.1,1.9,0.6,3.8,2,5.4c0.7-0.4,1.3-0.9,1.9-1
		c2.2-0.3,4.3-0.6,6.5-0.5c5.5,0.2,11,0.8,16.5,1C387.9,444.2,396.9,444.4,405.8,444.6z M12.6,375l-0.1-0.1L12.6,375
		c0.1,0.3,0.2,0.7,0.2,1.1c0,0,0.2,0.1,0.3,0.1c0.1-0.1,0.3-0.3,0.3-0.4C13.1,375.5,12.9,375.2,12.6,375z M21.5,351.5
		c-0.1-0.2-0.1-0.3-0.2-0.5c-0.1,0.1-0.2,0.2-0.3,0.3C21.2,351.3,21.4,351.4,21.5,351.5c0.8,1,0.8,1,1.8,1.2
		C22.9,352,22.5,351.4,21.5,351.5z M9.7,343.1c0.8,0,1.6-0.1,1.9-1c-0.4-1-1.1-1.4-2.2-0.8C9.6,341.9,9.7,342.5,9.7,343.1
		c-1.5,0.6-1.5,0.6-1,2.3C9.5,344.8,9.7,344,9.7,343.1z M329.6,390.2c1.1-2.2,0.7-3-1.5-3.1c-0.6,0-1.1,0.1-1.7,0.2
		c-1.1,2.7-0.6,5.2,0.1,7.7c2.3,0.7,2.3,0.7,4.4,0.1c0.5-1.5,0.5-2.9-0.7-4.1c-0.2-0.2-0.3-0.6-0.5-0.9L329.6,390.2z M342.9,350.6
		c0,0.2-0.1,0.4,0,0.6c0,0.1,0.2,0.2,0.3,0.3c0-0.1,0-0.2,0-0.3C343.1,351,343,350.8,342.9,350.6c-0.6-2.3-1.3-4.6-1.4-7
		c-0.1-2.6-0.3-5.2-1-7.8c-1.4-0.2-2.8-1.2-4.2-0.1c-0.1,2.5,0.3,4.9,1.4,7.1c1.3,2.5,2.8,5,4.3,7.5
		C342.2,350.5,342.7,350.5,342.9,350.6z M35.3,409.4L35.3,409.4c0.1-0.6,0.1-1.3,0.1-1.5c-0.5-1.1-1.7-0.3-1.7-1.6
		c1.4-1.5,3.4-1.7,5.2-2.3c0.6-0.2,1.2-0.5,1.9-0.9c-1.1-1.7-1.6-3.5-2.9-4.7c-1.7-0.1-3.1,0.2-4.5,0.9c-1.1,0.6-2.3,1-3.5,1.5
		c-0.7,0.3-1.5,0.6-2.1,1.1c-4.2,3-7.9,9.2-5.5,15.8c0.4,1.1,0.8,2.2,1.3,3.2c0.3,0.7,0.9,1.3,1.3,1.8c3.1-0.2,18-4.2,22.2-6
		c0-1.5,0.1-3.1,0.1-4.7c0-0.5-0.1-0.9-0.1-1.6c-1.6-1.3-2.6-3.3-4.4-4.4c-0.2,0.2-0.4,0.2-0.4,0.3c-0.3,1.1-0.6,2.2-1.2,4
		c0-1.7,0-2.5-0.1-3.4c0-0.5-0.2-1-0.3-1.7c-1.6,0.6-3.1,0.7-4.2,1.5C36,407.8,35.6,408.6,35.3,409.4z M400,370.2c0-0.1,0-0.3,0-0.4
		c0,0,0,0.1,0,0.1C400,370,400.1,370.1,400,370.2c1.4,1.3,2.4,3.1,4.6,3.3c0.1,0,0.2,0.4,0.4,0.7c-1.4,1.8-3.3,2.9-5,4.4
		c-1.8,1.6-3.6,3.1-5.5,4.7c-1.4-0.7-2.7-1.4-4-2.1c-0.7,0.2-1.4,0.3-2,0.4c-0.4-0.5-0.8-1.1-1.2-1.6c-0.4-0.4-0.8-0.8-1.2-1.2
		c-0.5-0.4-0.7-1.1-1.7-1c0.4,1,0.7,2,1.1,2.9c1.1,0.3,2,0.6,3,0.9c0.2,0.6,0.3,1.2,0.5,1.9c-0.8,0-1.5,0-2.1,0
		c0.6,2.3,0.6,2.3,2.9,3.8c2.6-1.2,5.6-1.1,8.7-0.8c0.8,1.6,2.3,2.4,3.8,3.3c0.9,0.5,1.8,1.1,2.6,1.6c0.3,0.2,0.8,0.4,0.5,1.1
		c-1.8-0.4-3.1-1.8-4.8-2.3c-0.6,0.8-0.2,1.4,0.3,1.9c1.4,1.6,2.8,3.1,3.3,5.2c0.5,2,1.9,3.1,3.8,3.6c0.4,0.1,0.9,0.3,1.2,0.6
		c2.3,1.9,4.6,3.8,7.1,5.9c1.3-0.2,2.8-0.2,4.2-0.7c4-1.5,7.2-4.1,9.9-7.3c1.5-1.8,1.5-3.4,0.1-5.3c-2.2-2.9-4.6-5.7-7-8.5
		c-0.5-0.6-1.2-1.1-1.8-1.5c-3.4-2.4-6.8-4.7-10.2-7.1c-2.9-2-5.8-4.1-8.8-6.1C401.8,370.6,401.1,369.8,400,370.2z M152,372.7
		c0.9,0,1.6,0.1,1.8,1.2c0.1,0.8,0.2,1.6,0.4,2.4c0.6,2.3,0.7,4.7,1.8,7.2c1.8-0.6,3.6-1,5.3-1.6c7.6-2.6,15.2-5.3,22.8-7.9
		c8.2-2.8,16.5-5.6,25-7.7c3.5-0.9,6.9-1.7,10.3-2.6c3.4-1,6.8-2.2,10.2-3.2c0,1.3-0.9,1.7-1.9,2.1c-4.6,1.8-9.2,3.6-14,4.8
		c-0.5,0.1-1.1,0.3-1.7,0.5c0,0.6,0,1.1,0.1,1.5c2,8.5,4,17,6,25.5c0.2,1,0.5,2,0.7,3c0,0.3-0.4,0.7-0.8,1.3
		c-0.4-0.8-0.8-1.2-0.9-1.7c-0.5-2-0.9-4-1.4-6.1c-1.4-6.6-2.8-13.3-4.1-19.9c-0.2-1.1-0.3-2.3-1.4-3.3c-2.1,0.6-4.4,1.1-6.6,1.8
		c-11.6,3.8-23.2,7.5-34.7,11.6c-8.8,3.1-17.7,5.8-26.7,8.2c-6.1,1.6-12.3,3.1-18.2,5.4c-4.9,1.9-9.9,3.6-14.9,5.4
		c-0.6,0.2-1.3,0.2-2,0.2c-1.3,1.4-2.6,2.8-3.8,4.2c-3.4,4.1-7.8,6.8-12.9,8.2c-0.9,0.3-1.8,0.6-2.8,0.9c2.3,0.3,4.4,0.2,6.6,0.1
		c9.1-0.2,18.1-1,27.2-2c8.7-0.9,17.4-1.8,26.1-2.5c7-0.6,14-1,21-1.6c8.7-0.7,17.4-1.4,26.1-2c3.7-0.3,7.3-0.6,11-0.8
		c5-0.3,10.1-0.8,15.1-0.9c6.1-0.2,12.2-0.1,18.3,0c2.3,0,4.6,0.2,6.9,0.7c3.2,0.6,6.4,0.6,9.6,0.6c0.6,0,1.2-0.1,1.6-0.4
		c1-0.6,1.9-1.2,2.8-1.9c1.7-1.4,2.9-3.3,3.6-5.4c0.6-1.6,0.2-3.1-0.9-4.5c-3.8-5-8.3-9.3-12.7-13.6c-3.6-3.5-7.4-7-11.1-10.4
		c-1.3-1.3-2.6-2.8-4.2-3.6c-1.6-0.8-2.2-2.1-3.2-3.3c-0.4-0.5-0.6-1.2-1-1.8c-0.5,0-1-0.1-1.4-0.1c-3.8-1.8-7.7-3.6-11.7-5.5
		c0,1.4,0,2.6,0,3.9c-0.3-0.1-0.5,0-0.5-0.1c-0.3-0.4-0.6-0.7-0.7-1.1c-0.3-1.2-0.6-2.5-0.9-3.7c-0.2-1-0.8-1.6-1.9-1.9
		c-0.4,1.8,0.5,3.4,0.7,5.1c0.2,1.7,1.4,3.3,1,5.8c-0.6-1-1.1-1.5-1.3-2.1c-0.7-2.5-1.4-5.1-2.1-7.6c-0.3-1.2-0.2-2.5-0.9-3.5
		c-1.9,0.7-3.7,0.8-5.5,0c-1-0.4-1.4-0.1-1.8,1.3c-0.1,0.2-0.2,0.4-0.3,0.6c-3.1,2.3-7.1,2.5-10.5,4.2c-0.2,3.3,1,6.2,1.8,9.9
		c-2.4-3.2-2.8-6.4-3.1-9.3c-0.6-0.3-1-0.5-1.4-0.7c0.8-1.1,2-1.3,3-1.7c1.1-0.4,2.2-0.7,3.3-1c0.1,0,0.2-0.2,0.4-0.4
		c-0.7-0.3-1.3-0.6-1.8-0.9c-1.6,0.5-3,1-4.4,1.4c-7.2,2-14,5-20.7,8.5c-0.4,0.2-1.1,0.3-0.9,1.2c1.1-0.1,2.1-0.2,3.1-0.4
		c2.9-0.8,5.7-1.7,8.6-2.6c0.9-0.3,1.7-0.8,2.7-0.2c-0.2,0.3-0.3,0.7-0.5,0.8c-4,1.5-7.9,3.1-12.2,3.6c-0.8,0.1-1.6,0-2.4,0.2
		c-0.8,0.2-1.6,0.7-2.4,1c0-0.7,0-1.1,0-1.6c-3.2,0.3-5.8,1.5-8.1,3.6c-2.1,1.8-3.9,3.9-5.8,5.9c-3.2,2.8-6.4,5.6-10.2,7.6
		c-4.9,2.6-9.9,4.8-15.3,5.9c-3.2,4.1-3.5,4.3-9.1,8.3c0.1,0.1,0.2,0.2,0.3,0.2c10-3.9,20.4-6.4,30.6-9.2c0.4-0.1,0.8-0.3,1.4-0.6
		c-0.3-0.9-0.7-1.8-0.9-2.6c-0.3-1-0.6-2-0.7-3c-0.1-0.6,0.1-1.1,1-1.2c0.9,2,1,4.4,2.3,6.4c1.2-0.1,2.3-0.3,3.2-1.2
		C153.5,379.9,152.2,376.4,152,372.7z M29.9,387.2C29.9,387.2,30,387.5,29.9,387.2c-0.3-1-0.6-2-0.8-3c0.7-0.7,1.3-0.5,1.7,0
		c1,1.3,2.1,2.5,2.8,3.9c1,1.7,2.2,3.2,3.5,4.7c1.2,1.4,2.3,2.9,3.1,4.5c2.9,5.9,2.8,5.9,7.2,10.3c0.7,0.6,1.3,1.3,2,1.9
		c1.7,1.8,3.6,3.2,5.9,4.1c1.4,0.6,2.7,1.4,4,2.1c1.8,1,3.6,2,5.5,3c4.6-1.8,9.3-3.5,14.1-4.4c1-0.2,2-0.5,2.9-0.9
		c2.8-1.4,5.8-2.2,8.7-3.2c4.1-1.3,7.7-3.5,10.8-6.6c2-2.1,4.1-4,6.2-6c0.6-0.6,1.2-1,1.8-1.6c0.6-0.7,1.1-1.4,1.8-2.2
		c2.7,0.5,4.9-0.8,7-2.4c2.1-1.6,4.2-3.3,6-5.1c1.4-1.4,2.9-2.5,4.8-2.6c0.9-1.2,1.8-2.1,2.4-3.2c1.1-2.4,2.1-4.8,3.1-7.3
		c0.4-0.9,0.6-2,0.6-3c0.4-5.9-1.8-10.6-6.9-13.7c-4.7-2.9-9.9-4.3-15.3-4.8c-6.9-0.6-13.8,0-20.6,1.5c-3.4,0.7-6.6,1.9-9.6,3.8
		c-3,1.9-5.4,4.3-6.7,7.6c-0.9,2.2-1.8,4.5-2.6,6.8c-0.6,1.6-1.2,3.2-1.6,4.9c-0.2,0.6,0,1.3,0,2.3c5.1-2,10.2-2.7,15.2-3.3
		c3-5,4.1-5.9,6.3-5.3c-0.8,2.1-2.9,3.5-3.6,5.6c1.4,0.7,3.2,0.1,3.9,2.1c-1.7,0.4-3.3,0.5-4.9-0.1c-0.5-0.2-1.1-0.3-1.7-0.2
		c-3.7,0.7-7.5,1.4-11.2,2.2c-2.3,0.5-4.3,1.6-6.3,2.7c-0.7,0.4-1.6,0.9-1.4,2.1c2.7,0.6,5.3,1.6,6.7,4.2c-0.2,0.2-0.3,0.3-0.4,0.3
		c-2.1,0-3.1-2.3-5.2-2.4c-7,2.2-13.6,1.3-19.7-2.9c-0.1-0.6-0.2-1.4-0.5-2.1c-0.3-0.9-0.7-1.7-0.1-2.6c0.6,0,1.1-0.1,1.9-0.1
		c0.8-1.6,1.8-3.2,2.5-4.8c0.4-0.9,0.9-1.5,1.8-2c3.6-2.3,7.5-4,11.8-4.3c0.3,0,0.5-0.3,0.8-0.6c-0.9-1.5-2.2-2.3-3.8-2.1
		c-1.6,0.2-3.2,0.5-4.7,0.9c-3.1,0.8-6.1,2.1-9.4,1.7c-0.7-0.1-1.4,0.1-2,0.3c-3.9,0.9-7.7,2.3-10.8,4.8c-0.6,0.7,0.1,2-1.3,2.3
		c-0.4-0.3-0.8-0.7-1.3-1.1c-2.9,0.5-4.9,2.3-6.4,4.7c-0.5,0.8-0.6,1.7-1.6,2.1c-0.6,0.3-0.6,0.9-0.7,1.5c-0.1,1.2,0.4,2.3,1.3,3.1
		C27.8,385.8,28.9,386.5,29.9,387.2z M304.2,304.5L304.2,304.5c-0.2,0.8-0.2,1.8-0.4,2.6c-0.5,2.5-1.1,4.9-1.1,7.5
		c0,0.5,0.2,1.1,0.3,1.7c3.1-0.4,6.1-0.7,9.1-1.1c0.2,0,0.4-0.2,0.7-0.5c-0.3-3.7-0.8-7.4-0.9-11.2c-0.1-3.8,0.1-7.6,0.3-11.4
		c0.2-3.8,1.4-7.4,2.4-11.3c-1.4-0.1-2.5-0.1-3.6-0.1c-5.9,0-11.7,0-17.6,0c-2,0-3.9,0-5.9,0.2c-3.1,0.3-6.2,0.7-9.1,1.9
		c-0.5,0.2-1.1,0.4-0.9,1.2c0.9,0.3,2,0.6,2.9,1c1.3,0.6,2.6,1.4,3.9,2.2c0.4,0.3,0.5,0.7-0.1,1.1c-2.4-0.7-4.8-1.4-7.2-2.2
		c-1.8-0.6-3.5-0.6-5.3,0.3c-1.2,0.6-2.6,1.1-3.9,1.3c-2.6,0.5-5.2,0.8-7.9,0.6c-2.9-0.1-5.8,0-8.6-0.2c-7.3-0.5-14.2,0.9-20.7,4.1
		c-1.9,0.9-3.7,1.8-5.2,3.2c-3.2,2.9-6.6,5.4-10.8,6.6c-0.4,0.1-1,0.2-1.2,0.5c-1.2,1.6-3,2-4.6,2.8c-0.1,0.1-0.2,0.4-0.3,0.7
		c1.6,0.7,3.3,0.2,5.1,0.1c-0.6,4.6-0.1,9-0.7,13.4c-0.7-3.4,0-6.9-0.6-10.3c-1.1,0.1-2.1,0.3-3.7,0.5c1-0.9,1.4-1.3,2.1-1.9
		c-0.8,0-1.4-0.1-2.5-0.1c0.5,1.3-0.6,2.3,0.2,3.6c0.7,0.1,1.5,0.1,3,0.2c-1.6,0.6-2.5,0.9-3.2,1.1c-0.1,2-0.3,3.6-0.4,5.1
		c0.6,1,2,0.1,2.3,1.4c-1,0.2-1.9,0.5-2.9,0.7c-0.5,2.2-1.3,4.3-0.9,6.6c1.2,0.2,2.5,0.5,3.7,0.8c0.1,0,0.2,0.3,0.3,0.6
		c-1.2,1.1-2.9,0-4.2,0.8c-0.6,2.4-1.3,9.2-1.1,11.6c0,0.2,0.3,0.3,0.5,0.6c1.4-0.1,2.9-0.2,4.5-0.3c0-1.1,0.1-2,0.1-2.8
		c-0.8-0.5-1.4-0.9-2.2-1.5c0.9-0.2,1.6-0.4,2.4-0.5c0-1.7,0.9-3.3,0.6-5c-0.7-0.2-1.3-0.4-2.1-0.7c1-0.1,1.7-0.2,2.4-0.3
		c0.5-1,1-2,1.8-3.5c0,0.9,0.1,1.2,0,1.5c-1.7,4.5-1.6,9.2-1.4,14c0.1,1.1,0.1,2.3,0.1,3.4c1.1,0.8,0.4,1.9,0.6,2.9
		c0.5,0.2,1,0.4,1.5,0.7c0.6,0.4,1.1,1.2,1.6,1.2c1.4-0.1,1.7,0.6,2.2,1.6c0.3,0.6,1.2,1.1,1.9,1.5c3.1,1.8,6.4,3.1,9.8,4.2
		c1.9,0.6,3.7,1,5.7,0.4c1.1-0.3,2.3-0.2,3.4-0.3c1.4-0.2,2.8-0.4,4.5-1.2c-4-0.8-7.7,0.2-11.2-1c0.4-0.8,1-0.9,1.5-0.9
		c5.7-0.1,11.5-0.5,17.2,0.9c2.5,0.6,4.8,0.1,6.9-1.4c1.8-1.2,3.6-2.4,5.5-3.7c-0.1-0.4-0.1-0.9-0.2-1.3c0.8-0.7,1.9-0.8,2.9-0.9
		c3.8-0.3,7.6-0.6,11.4-0.8c1.2-0.1,2.3-0.2,3.3-0.8c4.6-2.4,8.7-5.5,12.9-8.5c1.6-1.1,3-2.5,4.6-3.7c3.2-2.3,6.1-4.9,8.6-8
		c1.3-1.5,2.8-2.7,4.7-3.4c1.1-0.4,2.1-1,2.6-2.4c-0.4-1.2,0.4-2.8-0.7-4.1c-3.7,0.3-7.3,0.8-10.9,1.5c-2,0.4-4.1,0.8-6.1,1
		c-5.3,0.5-10.4,1.7-15.4,3.7c-1.8,0.7-3.7,1.3-5.5,2.1c-2,0.8-4,1.1-6.1,1.1c-3.8,0-7.6,0-11.4,0.3c-4.4,0.4-8.7,0.3-13.1,0.4
		c-2.1,0-4.1,0.2-6.2,0.2c-0.3,0-0.6-0.2-1.1-0.4c2.7-2.1,5.4-3.8,8.3-5.2c0.3-0.1,0.7,0,1,0l-0.1-0.1c-0.5,1.2-1.7,1.4-2.6,2.1
		c-0.7,0.6-1.7,0.8-1.9,1.9c0.3,0.1,0.6,0.3,0.9,0.3c4.9,0,9.9,0.1,14.8-0.3c4-0.3,8-0.5,12-0.5c1.9,0,3.6-0.3,5.3-1
		c7.3-3,14.9-5.4,22.9-6c1.5-0.1,2.9-0.4,4.4-1c0.1-1,0.1-1.9,0.1-2.8c0.1-2.9,0.8-5.7,1.5-8.4C303.7,305,304,304.8,304.2,304.5z
		 M112.1,325.2L112.1,325.2c-0.2,0.5-0.1,1.1-0.4,1.5c-1.1,1.5-2.2,2.9-3.5,4.2c-2,2.1-4.2,3.9-6.2,6c-4.3,4.7-9.3,8.6-14.4,12.3
		c-1.1,0.8-2.2,1.6-3,2.8c-0.2,0.3-0.6,0.7-1.2,0.2c0-1.8,0.9-3.4,1.5-5.1c0.2-0.6,0.8-1.2,0.2-1.9c-3.2-0.6-6.5-1.5-9.8-1.7
		c-2.5-0.1-4.6-1.1-6.6-2.1c-0.8-2.4-1.5-4.7-2.2-7c-0.5-1.4-0.8-2.9-1.4-4.2c-0.7-1.6-2.3-2.3-4-1.7c-0.8,0.3-1.5,0.6-2.2,1
		c-0.9,0.4-1.7,0.5-2.7,0.1c-0.4-0.2-0.9-0.3-1.3-0.4c-1.1-0.2-1.8,0.2-2.1,1.3c0.5,0.8,0.9,1.7,1.4,2.5c-0.5,0.5-0.9,0.7-1.3,0.2
		c-0.5-0.7-0.9-1.6-1.4-2.3c-0.5-0.6-1.1-1.1-1.7-1.7c-1.1,0.4-2,0.8-3,1.1c0.2,0.7,0.5,1.2,0.6,1.7c0.1,0.8-0.2,1.6-1.1,1.9
		c-0.3,0.1-0.7,0-0.9-0.1c-0.1-0.1-0.3-0.5-0.2-0.6c1.1-1.4-0.2-2.6-0.2-4c0-1.1-1.3-1.7-2.3-1.1c-1.1,0.6-2.1,1.4-3.1,2.1
		c-1.3,1-2.5,2.1-3.7,3.1c-1.2,1-2.7,1.6-4.1,0.8c-1.9-1.1-3.4-0.5-5.1,0.6c-2.3,1.6-4.8,2.6-7.3,3.3c-0.5,0.7-0.8,1.2-1.2,1.7
		c-0.7-3.4-2.7-6-5.2-8.1c-0.4-0.3-1.1-0.9-1.9-0.2c2.3,1.4,4,3.4,5,5.9c0.4,1.1,1.1,1.9,2.3,2.3c0.3,2.1,1.2,4.4,1.8,4.6
		c0.2-0.2,0.5-0.4,0.8-0.7c1.9,1.4,2,3.5,2,5.7c2.3,0.3,3.8,1.7,5.4,3c2.5,1.9,5,3.7,7.7,5.3c1.4,0.9,3.1,1.4,4.8,1.9
		c2.3,0.7,4.6,0.5,6.2-1.7c0,0,0.2,0,0.4,0c0,0.8,0,1.7,0,2.4c0.6,0.4,1.4,0,1.6,0.8c-1.3,2.4-4.5,2.7-5.8,5
		c0.5,0.8,1.1,0.8,1.5,0.4c0.9-0.9,1.7-0.8,2.8-0.5c0.4,0.1,0.9-0.1,1.2-0.2c1.6-3.4,2-2.6,3.9-0.5c0.1,0,0.2,0.1,0.3,0.1
		c3.4,0,3.7-0.4,2.3-3.3c2-1.1,2.1,1.1,3.1,2c0.7-0.1,1.5-0.3,2.2-0.4c1.2-0.2,2.5-0.4,3.7-0.5c3.4-0.2,4,0.3,4.9,3.5
		c0,0.1,0.1,0.2,0.1,0.3c0.2,0.8-0.3,1.7-1.1,1.9c-1,0.3-2,0.4-3,0.6c-1.4,0.3-2.9,0.4-4.4,1.4c1.9,0.6,3.2,1.8,4,3.5
		c1.9,0.3,3.7,0.6,5.5,0.8c0.2-0.3,0.5-0.6,0.5-0.9c0.4-3.9,1.9-7.3,3.5-10.8c1.1-2.5,2.7-4.6,4.9-6.1c1.4-1,2.5-2.1,3.1-3.5
		c1.1,0.2,2,0.3,3-0.2c2.7-1.5,5.7-2.3,8.8-3c5.6-1.1,11.2-1.4,16.8-1.3c3.8,0.1,7.6,0.7,11.2,1.8c3,0.9,5.8,2.2,8.4,4
		c6.1,4.3,8.7,12.4,5.9,19.3c-1.1,2.7-1.9,5.6-4.3,7.7c0.6,0.5,1,0.1,1.4-0.1c6.2-2.4,11.8-5.7,16.6-10.3c2.5-2.4,4.7-5,8-6.5
		c0.8-0.4,1.3-1.3,1.8-1.9c-0.1-0.6-0.2-1-0.3-1.3c1.4-1.9,2.7-3.8,4.1-5.6c0.3-0.5,0.7-0.9,1.2-1.2c0.4-0.3,0.8-0.1,1.2,0.5
		c-0.4,2.2-2.1,3.8-3.3,6.1c0.7-0.1,1.2-0.1,1.6-0.2c2-0.9,4-1.8,6-2.7c0.6-0.3,1.2-0.7,1.8-0.9c3.2-0.8,6-2.4,8.9-3.6
		c2.2-0.9,4.5-1.8,6.8-2.5c3.4-1,6.9-1.8,10.3-2.7c0.3-0.1,0.7-0.1,1-0.1c1.9,0.2,3.2-0.9,4.8-1.7c-0.1-0.8-0.1-1.5-0.4-2.1
		c-0.8-1.6-1-3.3-0.8-5.1c0.5-4.6,1-9.1,1.7-13.7c0.7-4.7,2-9.4,1.8-14.3c0-0.8,0.2-1.6,0.2-2.4c0.1-1.3,0.1-2.5,0.2-3.9
		c-1.9,1.1-3.6,2-5.2,3.1c-2.6,1.6-3.9,2.3-5.2,2.3c0.3-1.2,1.3-1.5,2.1-2.1c0.9-0.7,1.9-1.3,2.8-2c0.8-0.6,1.7-0.9,2.5-2
		c-1,0-1.5,0-2.1,0c-4.8,0.2-9.7,0.4-14.5,0.8c-5,0.4-10.1,0.9-15.1,1.5c-2.5,0.3-5.1,0.6-7.4,1.4c-4.2,1.5-8.6,2.6-13,3.4
		c-3.3,0.6-6.5,1.6-9.4,3.2c-0.9,0.5-1.8,0.9-2.4,1.9c-0.5,1-1.6,1.3-2.6,1.5c-1.2,0.4-2.5,0.4-3.7,0.9c-0.9,0.4-1.7,0.6-2.6,0.5
		c-3.2-0.5-6.4-0.2-9.6,0c-1.8,0.1-3.6,0.6-5.4,1.1c-1.2,0.3-2.6,0.3-3.2,1.7c-0.1,0.1-0.4,0.2-0.6,0.2c-1.5-0.5-2.7,0.3-3.9,0.9
		c-3.1,1.5-6.2,3-9.2,4.7c-4,2.2-7.4,5-10.6,8.3c-1.4,1.4-2.6,2.9-3.4,4.8c-0.1,0.2,0,0.4,0,0.8c0.6,0.1,1.2,0.2,1.8,0.3
		c1.1-1.6,2-3.1,3-4.4c1-1.3,2.1-2.5,3.2-3.6c1.3-1.2,2.6-2.5,4.1-3.1c1.5-0.7,2.5-2.4,4.5-2.2c-1,1.5-1,1.5-1.9,2
		c-5.6,3.5-9.7,8.4-12.3,14.5c-0.2,0.4,0,0.9,0,1.3c0-0.1-0.2,0.1-0.1-0.1c2.8-2.2,5.7-4.3,8.3-6.8c5.1-4.8,10.1-9.7,15.2-14.6
		C111,325.6,111.4,325.1,112.1,325.2z M345,307.3c0.7,1.2,1.2,2.1,1.7,3.1c0.4,0.7,0.7,1.4,0.9,2.2c0.3,1.1,0.5,2.2,0.6,3.4
		c0.2,2.4,1.1,4.8,0.5,7.2c-0.6,2.3-0.4,4.5-0.1,6.8c0.3,2.1,0.1,2.6-1.7,3.6c-1.1,0.6-2.2,1-3.2,1.5c-0.2,2.2-0.3,4.1-0.4,6.1
		c-0.2,2.3,0.2,4.6,1.3,6.7c2.9,5.6,6,11.1,9.8,16.2c1,1.4,2.1,2.8,2.7,4.4c0.8,2.1,1.9,3.9,3,5.8c1.4,2.1,2.7,4.3,4,6.4
		c2.9,4.8,5.3,9.9,7.7,14.9c7.2,1.4,11.7,0.2,15.3-4c-1.1-3.1-2.2-6.2-3.2-9.4c-0.4-1.3-0.7-2.6-2-3.5c-0.5-0.3-0.7-1.2-0.8-1.8
		c-0.8-3.1-1.5-6.3-2.4-9.4c-0.7-2.5-1-5.2-2.2-7.6c-0.3-0.6-0.3-1.3-0.4-2c-0.4-3.8-0.9-7.5-1.2-11.3c-0.4-7.2-1.2-14.4-2.3-21.6
		c-0.5-3.3-1.3-6.5-2-9.8c-0.2-0.9-0.4-2-1-2.5c-1.6-1.3-1.7-3.2-2.2-4.9c-0.3-1-0.6-2-0.9-2.9c-0.6-0.1-1-0.2-1.6-0.2
		c-0.2-0.5-0.4-1.1-0.5-1.6c-0.5-2.1-0.9-4.3-1.3-6.4c-0.7-3.4-1.8-6.7-3.1-9.8c-0.6-1.5-1.6-2.3-3.4-2.3c-2.6-0.1-5.3-0.4-7.9-0.6
		c-0.7-0.1-1.4-0.3-2-0.5c-4.5-1.6-9.2-1.9-14-1.7c-3.6,0.2-7.1,0-10.7-0.4c-1.9-0.2-3.9-0.6-5.7-0.1c-0.2,0.3-0.3,0.5-0.4,0.7
		c-0.2,0.4-0.3,0.9-0.4,1.3c-2.4,8.7-2.6,17.5-1.1,26.3c0.4,2.5,0.8,4.9,1.3,7.4c1.6,0.4,2.7-0.3,3.8-0.9c2.9-1.7,5.7-3.4,8.5-5.2
		c2-1.2,3.8-2.6,6.3-2.1c0.4,0.1,0.9-0.2,1.4-0.2c2.3-0.3,4.5-0.7,6.8-1C343.2,307.2,344.2,307.3,345,307.3z M367.4,392.9
		c-0.5,1.4-0.4,2.1,0.3,2.7c1,0.9,1.8,2,3.1,2.6c1.7,0.8,3.5,1.9,4.8,3.3c1.5,1.8,3.3,2.4,5.4,2.5c1.6,0.1,3.2,0.2,4.8,0.1
		c0.8,0,1.6-0.1,2.4-0.4c1.1-0.3,1.8-1,1.9-2.2c0.1-0.7,0.1-1.4,0.2-2.1c0.1-0.9,0.2-1.8,0.4-2.7c0.1-0.7,0.8-1.2,1.2-0.9
		c0.3,0.2,0.7,0.7,0.7,1c-0.1,1.8-0.3,3.7-0.5,5.5c-0.2,1.5-1.1,2.5-2.5,3c-0.8,0.3-1.8,0.6-2.7,0.6c-3,0.1-6,0-8.9-0.7
		c-1.4-0.3-2.6-0.9-3.4-2.1c-1.4-1.9-3.2-3.3-5.3-4.4c-0.8-0.4-1.4-1.1-2.2-1.6c-0.8-0.6-1.6-1-2.6-0.7c-0.6,1.2-0.4,2.4-0.3,3.7
		c0.2,1.9,0.4,3.9,0.5,5.8c0,1.4-0.1,2.8-0.5,4.1c-0.9,2.4-1.3,4.9-1.6,7.4c-0.2,1.1-0.4,2.3-0.4,3.4c0.1,1.2,0.5,2.4,0.8,3.6
		c-0.5,1.3-1.5,2.4-1.2,3.8c1,1,2.2,1.4,3.4,1.6c2.3,0.3,4.6,0.4,6.9,0.6c0.6,0,1.2-0.2,1.7-0.1c4.6,0.8,8.9-0.1,13.2-1.5
		c2.2-0.7,4.5-1.2,6.8-1.1c4.1,0.1,8.3,0.1,12.4,0.5c3.8,0.3,7.3-0.2,10.9-1.4c2.7-0.9,5.4-1.9,8.2-2.8c6.3-2.2,11.3-6.1,15-11.6
		c0.6-0.8,1.3-1.6,1.8-2.2c0.4-3.2-0.9-5.3-3.5-6.6c-0.6-0.3-1.2-0.7-1.7-1.1c-1.4,0-2.6,0.1-3.9,0c-2-0.1-3.5,0.5-4.9,1.9
		c-1.9,1.9-4.1,3.3-6.6,4.2c-3.5,1.3-6.8,0.7-9.6-1.8c-0.7-0.7-1.5-1.3-2.3-2c-0.4,1-0.7,1.9-1.2,2.6c-0.2,0.4-1.1,0.6-1.5,0.5
		c-0.4-0.1-0.9-0.7-1-1.2c-0.1-0.5,0.1-1.1,0.2-1.7c0.1-0.8,0.2-1.5,0.4-2.3c-0.8-0.6-1.4-1.1-2.1-1.5c-0.6-0.4-1.1-1.2-2.2-1
		c-0.3,0.8-0.7,1.6-1,2.5c-0.3,0.6-0.4,1.4-0.8,1.9c-0.3,0.4-0.8,0.8-1.3,0.9c-0.5,0.1-1.2-0.7-1.2-1.5c0.1-1.4,0.3-2.7,0.7-4
		c0.5-1.7,1.3-3.4,2-5.2c-1.6-2.1-2.8-4.4-4.7-6.3c-1.5-0.1-3-0.2-4.3,0.5c0.7,3.8,0.4,5.4-1.6,6.1c0.1-1.9,0.2-3.6,0.3-6
		c-0.7,0.8-1.2,1.1-1.2,1.4c-0.2,2.9-2.1,4.5-4.5,5.7c-3.4,1.8-6.9,2.2-10.7,1.7c-2.4-0.3-4-1.4-5.3-3.3
		C368.3,394.2,368,393.7,367.4,392.9z M306,361.8c12,0.4,23.7,0.6,35.4,0.5c2.4,0,4.8,0,7.2,0.1c0.1,0,0.2,0,0.3-0.1
		c0.1-0.1,0-0.2,0-0.2c-2.6-2.8-5.2-5.6-7.7-8.3c-0.3-0.3-0.5-0.8-0.7-1.2c-1.4-2.9-2.9-5.7-4.3-8.6c-1.3-2.9-1.9-5.9-1.6-9.1
		c0.1-0.9,0.1-1.8,0-2.7c-0.3-2.6-1.5-3.3-4-2.3c-4.1,1.6-8.1,3.1-12.4,4.2c-3.1,0.8-6.2,1.5-9.4,2.3c-0.6,0.2-1.2,0.5-1.8,0.7
		C305.6,345.2,306.3,353.4,306,361.8z M329.5,425.9c-20.6-9.7-41.8-17.5-62-27.6c-0.1,0-0.2-0.1-0.3,0c-0.1,0-0.2,0.1-0.5,0.2
		c-0.5,0.9-0.9,1.9-1.5,2.9c-0.7,1.1-1.5,2-2.3,3c-0.7,0.9-1.9,1.3-2.5,2.6c21.4,9.5,42.7,19,64.8,26.4
		C325.7,430.5,324.9,430.6,329.5,425.9z M346.8,331.1c-0.3-4.7-0.5-9.3-0.8-13.9c-0.1-0.9-0.2-1.8-0.5-2.7c-0.4-1.1-0.8-2.2-1.4-3.1
		c-0.7-1.2-1.8-1.8-3.2-1.6c-2.3,0.2-4.6,0.5-6.9,0.7c-2.2,0.1-3.9,1-5.6,2.3c-4,3-8,5.9-13.2,6.4c-0.2,0.7-0.5,1.3-0.4,1.7
		c0.4,1.4-0.2,2.2-1.2,2.9c-0.6,0.5-1.3,1-2.1,1.2c-2.2,0.7-3.8,2.2-5.2,3.8c-1.7,1.9-3.6,3.6-5.6,5.1c-1.4,1-2.7,2.1-4.1,3.2
		c1,0.6,1.5-0.1,2-0.4c1.6-1,3.4-1.4,5.2-1.8c2.6-0.5,5.2-1,7.8-1.5c6.6-1.5,13.2-3,19.5-5.7c1.4-0.6,2.5-0.3,3.5,0.6
		c0.8,0.7,1.3,1.6,1.6,2.6c0.4,1.3,0.8,2.7,2.3,3.4C341,333,344.1,333.1,346.8,331.1z M233.4,360.8c0.9,1.5,2.2,1.8,3.8,1.7
		c4.1-0.2,8.3-0.4,12.4-0.5c14.1-0.1,28.3-0.1,42.4-0.2c0.9,0,1.8-0.1,2.9-0.2c0-1.7,0-3.1,0-4.6c0.1-4.6,0.3-9.2,0.4-13.8
		c0-0.8-0.1-1.5-0.2-2.3c-1.2-0.1-2.2-0.3-3.3-0.4c-0.5,0.3-1.1,0.5-1.4,0.9c-2.3,2.3-5.1,3.9-7.8,5.6c-2.6,1.6-5.2,2.2-8.2,2.2
		c-6.5-0.1-7.1,0.2-12.6,3.6c-0.7,0.4-1.3,0.9-2,1.3c-1.1,0.7-2.1,1.4-3.2,2c-1.9,1-3.8,1.6-5.9,1c-1.1-0.3-2.2-0.4-3.4,0.1
		c-3.5,1.5-7.2,2.3-11,2.5C235.3,359.9,234.2,360,233.4,360.8z M350.8,378.9c-0.6,5.9-0.4,11.9-0.1,17.9c0.5,7.4,0.6,14.7,0.4,22.1
		c-0.1,2.4,0,4.8,0.4,7.1c2.9,0,5.7,0,9.1,0c-1.5-0.6-2.4-0.9-3.2-1.3c-0.7-0.4-1.4-0.8-2-1.3c-1-0.9-1.2-1.9-0.5-3.1
		c0.3-0.6,0.9-1.1,1.1-1.7c0.4-0.9,0.8-2,0.7-2.9c-0.2-2.8,0.1-5.5,0.3-8.3c0.3-3.1,0.5-6.2-0.5-9.4c1.7-1.5,0.4-4.3,2.7-5.9
		c1.5,0.2,3.2,0.5,4.9,0.7c0.5,0.1,1-0.1,1.7-0.2c-0.1-0.9-0.1-1.6-0.2-2.2c-0.1-0.7-0.2-1.4-0.5-2c-1.8-4.2-4-8.2-6.3-11.9
		C355.9,375.8,353.3,376.5,350.8,378.9z M377.9,349.6c-0.7,3.4-0.3,5.9,0.3,8.5c0.7,2.8,1.6,5.5,2.3,8.3c0.4,1.6,1.3,2.8,2.5,3.9
		c1.7,1.5,3.2,3.3,4.7,5c0.2,0.2,0.1,0.6,0.1,1.1c-1.4-0.4-1.9-1.5-2.7-2.3c-0.8-0.9-1.5-1.9-2.6-2.6c-0.1,0.4-0.2,0.7-0.1,0.8
		c2.1,2.3,4.2,4.5,6.4,6.7c0.4,0.4,1,0.5,1.5,0.7c0.2-0.6,0.3-0.9,0.4-1.3c1.7,0.8,1.7,0.8,3.3,2.8c0.2,0,0.5,0,0.6-0.1
		c2.3-2.1,4.5-4.2,7-6.5C393.8,366.3,386.1,358.2,377.9,349.6z M84,467.1c-0.2,2.6-0.5,4.8-0.6,6.9c-0.1,2.2-0.5,4.5,0.4,6.8
		c5.8,0.2,11.3-0.1,17-0.9c0.4-2.2-0.3-4.2-0.7-6.2c-0.4-2-1-3.9-1.5-6c-2.5-0.1-4.8-0.1-7.1-0.2C89.1,467.4,86.7,467.2,84,467.1z
		 M304.6,337.3c-3.3,0.2-5.6,1.6-8,3c0,3.2,0,6.3,0,9.4c0,2.9,0.1,5.8,0.1,8.6c0,1.7,0.3,3.4,1.4,4.9c1.8-0.1,3.4-0.2,4.9-0.3
		c0.9-1.1,0.8-2.1,0.8-3.1c0-6.9-0.2-13.8,0.7-20.7C304.7,338.7,304.6,338.1,304.6,337.3z M360.4,393.8c-0.8,2.2-1.1,4.1-1,6.1
		c0.1,1.9,0.2,3.9,0.1,5.9c-0.1,3.2-0.5,6.4-0.6,9.6c-0.1,1.5-0.5,2.9-1.4,4.2c-0.4,0.6-0.7,1.4-1.1,2.3c1.4,0.7,2.6,1.2,3.9,1.1
		c0.2-1.9,0.3-3.6,0.5-5.3c0.3-1.8,0.7-3.6,1-5.4c0.6-2.9,1.4-5.9,0.9-8.9c-0.4-2.8-0.3-5.5,0-8.2c0-0.2-0.2-0.4-0.3-0.8
		C362,394.2,361.3,394,360.4,393.8z M58.9,379.5c-0.4,0.8-0.7,1.5-1.2,2.1c-0.7,1-1.5,1.6-2.9,1.1c-0.6-0.2-1.2-0.1-2.4-0.2
		c5,2.3,6.6,2.6,11.8,1.9c1.8-1.7,3.4-3.3,5-4.9c0.2-0.2,0.3-0.3,0.5-0.5c0.4-0.5,0.1-1.5-0.6-1.6c-1-0.3-2.1-0.5-3,0.1
		c-1.4,1-3,1-4.5,1.4C60.7,379.2,59.8,379.4,58.9,379.5z M352.8,364.4c-0.9-0.6-1.3-1.1-1.5-1.1c-2.6,0.7-5.3,0.3-7.9,0.5
		c-2.9,0.1-5.7,0.1-8.6,0.3c-7.2,0.4-14.5,0.4-21.7,0c-2.1-0.1-4.1-0.1-6.2-0.1c-0.7,0-1.4,0.1-1.7,1.2
		C320.9,365.7,336.5,365.6,352.8,364.4z M55.3,375c-1.2,1.7-2.3,3.4-3.7,5.4c1.4,0.3,2.7,0.6,4,0.8c0.7,0.1,1.3-0.7,1.2-1.4
		c-0.3-1.4-0.6-2.9-1-4.3C55.8,375.4,55.5,375.3,55.3,375z M210.2,344.6c-0.2-0.8-0.3-1.4-0.4-2c-1.7-0.2-3.2-0.5-4.9,0.2
		c0.7,1.4-0.1,3.5,2.4,3.6c0-0.4,0-0.8,0-1.3C208.1,345,209,344.8,210.2,344.6z M48.7,412.4c-0.3,1.5-0.3,2.8-0.1,4.3
		c0.7-0.1,1.2-0.2,1.7-0.3c0.6-0.2,1.2-0.5,1.9-0.8c0.4-0.2,1,0.2,1.3-0.6c-0.9-0.4-1.7-0.8-2.5-1.2
		C50.3,413.4,49.6,412.9,48.7,412.4z M337,404.3c0.5-3.7,0.4-9-0.3-12C336.7,396.6,336.4,400.2,337,404.3z M17.1,344.2
		c-0.3,2,0.5,3.1,1.7,4.8C18.6,346.9,18.2,345.7,17.1,344.2z M25.9,352.9c-0.2,0.2-0.3,0.4-0.5,0.6c0.8,0.8,1.6,1.6,2.4,2.3
		c0.3,0.3,0.7,0.5,1.1-0.3C27.9,354.7,26.9,353.8,25.9,352.9z M110.8,396.8c1.3,0.4,2.2-0.4,3.6-0.9c-1.4-0.3-2.4-0.6-3.4-0.3
		C110.9,396,110.9,396.4,110.8,396.8z M22.2,372.1c-1.5,0.6-1.9,1.4-2.4,2.5c0.7,0.1,1.3,0.3,2,0.4C21.9,374.1,22,373.4,22.2,372.1z
		 M19.5,360.3c0.4-0.7,0.8-1.3,1.1-2c0.3-0.7-0.1-1-0.8-1C19.6,358.3,18.7,359,19.5,360.3z M23,368.2c-0.3-0.5-0.6-1-1.1-1.7
		c-0.6,0.5-1,0.8-1.4,1.1C21.1,368.6,21.8,369,23,368.2z M18.4,353.7c1.4-0.6,1.4-0.6,1.3-1.5C19.3,352.7,18.9,353.2,18.4,353.7z
		 M23.2,380.4c0.2-0.1,0.4-0.2,0.5-0.3c-0.1-0.1-0.3-0.4-0.4-0.3c-0.2,0-0.4,0.2-0.6,0.3C22.8,380.2,23,380.3,23.2,380.4z
		 M210,347.6c0.2,0.1,0.3,0.2,0.5,0.2c0.1,0,0.2-0.2,0.2-0.2c-0.1-0.2-0.2-0.3-0.3-0.5C210.3,347.3,210.2,347.4,210,347.6z M8.9,354
		c0.2-0.3,0.4-0.5,0.5-0.8c0,0-0.4-0.3-0.4-0.3c-0.2,0.1-0.4,0.4-0.5,0.6C8.4,353.6,8.7,353.7,8.9,354z M33.2,358
		c-0.1-0.2-0.2-0.4-0.4-0.5c-0.1-0.1-0.3,0.1-0.5,0.1c0.1,0.2,0.2,0.4,0.4,0.5C32.8,358.2,33,358.1,33.2,358z M7,336.9
		c-0.2,0.2-0.4,0.4-0.4,0.5c0.2,0.2,0.4,0.4,0.7,0.6c0.1-0.1,0.3-0.4,0.3-0.4C7.4,337.3,7.2,337.1,7,336.9z M31,362.2
		c-0.1-0.1-0.2-0.4-0.4-0.4c-0.1-0.1-0.4,0.1-0.5,0.1c0.2,0.2,0.3,0.4,0.5,0.6C30.6,362.4,30.8,362.2,31,362.2z M36.9,364.2
		c-0.1-0.2-0.2-0.3-0.3-0.5c0,0-0.2,0.1-0.3,0.2c0,0,0.1,0.2,0.1,0.2C36.6,364.2,36.7,364.2,36.9,364.2z M17.9,378.8
		c0.2,0.1,0.4,0.2,0.6,0.2c0,0,0.2-0.2,0.2-0.3c-0.1-0.1-0.3-0.3-0.4-0.3C18.1,378.5,18,378.7,17.9,378.8z M19.9,346.5
		c0,0.1-0.1,0.1-0.1,0.2c0,0.1,0.1,0.2,0.1,0.3c0-0.1,0.1-0.1,0.1-0.2C20,346.6,19.9,346.5,19.9,346.5z M33.2,365.2
		c-0.1-0.1-0.2-0.3-0.4-0.4c0,0-0.3,0.1-0.2,0.2c0.1,0.2,0.1,0.4,0.2,0.6C33,365.4,33.1,365.3,33.2,365.2z M10.3,347.6
		c-0.2,0-0.3,0-0.4,0c0.1,0.1,0.1,0.1,0.2,0.2C10.2,347.7,10.2,347.7,10.3,347.6z M42,366.2l-0.1,0.2l0.2,0L42,366.2z"/>
	<path d="M558.3,479.1c-0.2-0.1-0.5-0.2-0.5-0.4c-0.1-0.3-0.1-0.7,0-1c2.5-6.5,4.5-13.3,7.6-19.6c1-2.1,1.8-4.2,2.7-6.3
		c0.1-0.3,0.7-0.6,1.1-0.6c0.5-0.1,1,0.8,0.8,1.3c-0.2,0.8-0.4,1.6-0.7,2.3c-3.4,6.9-5.9,14.2-9,21.2c-0.4,0.9-0.9,1.8-1.4,2.7
		C558.8,479,558.5,479,558.3,479.1z"/>
	<path d="M104,480c-0.1-0.9-0.3-1.3-0.2-1.7c2.3-6.1,4.6-12.2,7-18.3c0.9-2.4,2-4.6,3-7c0.2-0.4,0.4-0.8,0.7-1.1
		c0.2-0.2,0.7-0.2,0.9-0.1c0.3,0.1,0.6,0.4,0.6,0.7c0.1,0.4,0,0.9-0.2,1.3c-0.5,1.4-1.1,2.8-1.7,4.1c-1.8,4.3-3.6,8.7-5.5,13
		c-1.1,2.5-2.2,5.1-3.3,7.6C105.1,478.9,104.6,479.3,104,480z"/>
	<path d="M866.7,454.5c-1.6,0.7-3.1,0.4-4.7,0.3c-3.6-0.2-7.1-0.5-10.7-0.6c-6-0.1-12,0-17.9,0c-1.3,0-2.5-0.1-3.8-0.3
		c-0.9-0.1-1.8-0.3-3.2-0.6C832.4,452.4,862.2,453.1,866.7,454.5z"/>
	<path d="M412.7,454.7c-1.3,0.6-2.7,0.6-4,0.4c-10.1-1.1-20.2-0.5-30.2-0.7c-1.5,0-3-0.1-4.5-0.3c-0.4,0-0.7-0.4-1.8-1
		C386.3,453.5,399.5,452.8,412.7,454.7z"/>
	<path d="M701.9,326.4c-0.7,0-1.4,0.2-1.9,0c-2.5-0.9-5-1.7-7.3-2.9c-3.7-2-7.4-4.2-11-6.5c-2.2-1.4-4.3-3-6.4-4.4
		c0.2-1,0.7-1.1,1.3-0.8c1,0.6,2,1.2,2.9,1.8c3,2,5.9,4,8.9,5.9c3.7,2.3,7.6,4.3,11.8,5.7c0.5,0.2,1,0.5,1.5,0.7
		C701.8,325.9,701.8,326.1,701.9,326.4z"/>
	<path d="M873.6,452.3c1.8,0.5,4-0.3,5.8,0.5c0.1,1.1-0.5,1.2-1,1.2c-1.7,0-3.4,0-5.3,0c-0.1,0.8-0.3,1.5-0.3,2.1
		c0.2,4.2,0.5,8.5,0.7,12.7c0.1,1.1,0.2,2.3-0.1,3.3c-0.7,0.4-1.1,0.1-1.1-0.4c-0.1-0.9-0.2-1.8-0.2-2.7c0-3.7,0-7.3-0.1-11
		c0-1.1-0.1-2.3-0.1-3.5c-0.5-0.2-0.9-0.4-1.3-0.6c-0.3-0.1-0.6-0.3-1.1-0.5c0.3-0.5,0.5-0.9,0.8-1.5c-0.2-0.2-0.4-0.5-0.5-0.8
		c-0.1-0.3-0.1-0.7,0-0.9c0.2-0.2,0.7-0.3,0.9-0.2C871.8,450.9,872.6,451.6,873.6,452.3z"/>
	<path d="M724.4,344.2c-0.8,0.6-1.4,0.2-2.1,0c-4.9-1.8-10-2.6-15.1-3.2c-3.8-0.4-7.5-0.9-11.3-1.4c-0.9-0.1-1.8-0.1-2.4-1.1
		c0.9,0,1.7-0.1,2.5,0c5,0.6,10,1.2,15,1.9c3.6,0.5,7.2,1.3,10.7,2.5C722.7,343.2,723.6,343.5,724.4,344.2z"/>
	<path d="M666.1,253.5c0.8-0.1,1.3-0.3,1.6-0.2c5.2,3.7,9.8,7.9,12.5,13.9c0.8,1.9,0.8,2.1,0.3,4.3c-0.2-0.3-0.5-0.6-0.5-0.9
		c-0.2-2.6-1.5-4.8-2.9-6.9c-2.6-3.7-5.7-6.9-9.7-9.1C666.9,254.5,666.7,254.1,666.1,253.5z"/>
	<path d="M594.6,144.9c-0.5-1.5-0.3-2.5,0.5-3.4c1.9-2.2,4.2-3.8,6.8-5c0.2-0.1,0.5-0.2,0.7-0.2c0.4,0.1,0.9,0.2,1.2,0.4
		c0.4,0.5,0.3,1.2-0.2,1.5c-1.1,0.7-2.2,1.3-3.3,1.7c-1.7,0.6-3,1.5-3.8,3.2C596.1,143.7,595.4,144.2,594.6,144.9z"/>
	<path d="M677.2,302.4c0.6,0,1.3-0.2,1.7,0c2.4,1.5,4.8,3.1,7.2,4.7c0.3,0.2,0.4,0.7,0.8,1.4c-1-0.1-1.8,0-2.3-0.3
		c-2.2-1.2-4.4-2.5-6.5-3.9C677.3,304,677,303.2,677.2,302.4L677.2,302.4z"/>
	<path d="M717,364.5c0.7,0,1.3,0,2,0c2.4,0,4.8,0,7.2,0.1c2.2,0.1,4.3,0.4,6.5,0.5c1.4,0.1,2.7,0.1,4.1,0.1c2.2,0,4.3,0,6.5,0.1
		c-2.6,0.5-11,0.5-14.1,0.3c-2.5-0.2-5-0.2-7.5-0.1C720.1,365.7,718.5,365.4,717,364.5z"/>
	<path d="M291.7,365.7c-9.7,0.3-18.6,0.2-27.5,0.1c-0.4,0-0.8-0.2-1.2-0.3c-0.1-0.8,0.3-0.9,0.8-0.9c8.8,0.9,17.7,0.7,26.5,0.8
		C290.5,365.5,290.7,365.5,291.7,365.7z"/>
	<path d="M330.7,431.7c0.7-0.1,1.5-0.3,2.3-0.3c1.3,0,2.1,0.9,2,2.2c-0.1,0.7-0.3,1.3-0.6,1.9c-0.5,0.9-1.5,1.3-2.3,1.2
		c-1-0.2-1.6-0.8-2-1.7C329.7,434.1,329.8,433.6,330.7,431.7z M332,432.7c-0.1,0.1-0.2,0.1-0.3,0.2c-0.3,0.4-0.4,0.8,0,1.2
		c0.1,0.1,0.5,0.2,0.6,0.1c0.2-0.2,0.5-0.5,0.5-0.8c0-0.3-0.4-0.5-0.6-0.7C332.3,432.7,332.2,432.8,332,432.7z"/>
	<path d="M788.9,433.5c-0.2,0.4-0.3,1.2-0.8,1.8c-0.9,1.4-2.7,1.4-3.7,0.1c-0.8-1-0.9-2.4-0.2-3.5c0.5-0.9,1.5-0.9,2.4-1
		C788.1,430.9,789,431.7,788.9,433.5z M787.3,433.1c-0.5-0.3-0.9-0.7-1.2-0.6c-0.3,0.1-0.6,0.6-0.6,1c-0.1,0.4,0.3,0.9,0.8,0.7
		C786.6,434,786.8,433.6,787.3,433.1z"/>
	<path d="M644.8,226.8c0.7,0.1,1.3,0.1,1.8,0.3c2.4,0.9,4.8,1.5,7.4,1.4c0.3,0,0.7,0.1,1,0.2c0.2,0.1,0.4,0.3,0.4,0.5
		c0,0.3-0.2,0.6-0.4,0.8c0,0.1-0.2,0.2-0.3,0.2c-3.5,0.6-6.8-0.2-9.8-2.1c-0.2-0.1-0.2-0.4-0.2-0.6
		C644.7,227.4,644.7,227.3,644.8,226.8z"/>
	<path d="M351.3,452.7c2.3-1,4.4,0.2,6.6,0.2c2.2,0,4.3,0.1,6.8,0.1c-0.3,0.5-0.5,0.9-0.7,0.9c-4,0.5-8,0.8-11.8-0.7
		C351.8,453.1,351.6,452.9,351.3,452.7z"/>
	<path d="M805.1,451.8c0.5-0.1,1-0.3,1.4-0.2c3.3,1,6.8,0.8,10.2,0.9c0.7,0,1.3,0,1.9,0.7C813.6,454.6,807.3,454,805.1,451.8z"/>
	<path d="M745.5,296.2c-2.4,4.6-4.7,8.9-7,13.2c-0.4-1.7,0.5-4.2,3.3-9C743.8,296.8,743.9,296.7,745.5,296.2z"/>
	<path d="M104.1,456.9c-2.6,0.6-8.5,0.9-10.5,0.6c0-0.2,0-0.5,0.1-0.6c3.2-1.4,6.5-1.1,9.8-0.8c0.2,0,0.3,0.3,0.5,0.4
		C104.1,456.7,104.1,456.8,104.1,456.9z"/>
	<path d="M645.1,244.2c-0.6,0.5-0.7,0.7-0.9,0.7c-2.6,0.5-4.9-0.5-7.2-1.3c-0.2-0.1-0.3-0.6-0.3-0.9c0-0.1,0.3-0.3,0.4-0.4
		c0.2-0.1,0.4-0.2,0.6-0.2C640.3,242.2,642.6,242.9,645.1,244.2z"/>
	<path d="M604.8,142c-1.1,1.7-1.1,1.7-4.6,3.4c-0.2-2,0.2-2.5,3-5.2c0.1,0,0.3-0.1,0.3,0C603.9,140.7,604.3,141.3,604.8,142z"/>
	<path d="M547.3,456.7c3.6-1.5,7.2-1.1,10.6-0.8c0.1,0.9-0.4,1.1-1,1.1c-3,0.2-5.9,0.3-8.9,0.4C547.9,457.4,547.8,457.1,547.3,456.7
		z"/>
	<path d="M591.8,169.2c0.6,0.4,1.1,0.6,1.5,1c1.5,1.5,3.3,2.4,5.4,2.6c0.2,0,0.4,0.2,0.5,0.4c0.1,0.1,0.1,0.2,0.1,0.5
		c-2.4,0.5-4.6,0-6.3-1.6C592.4,171.5,591.1,170.7,591.8,169.2z"/>
	<path d="M256.9,365.4c-3,1.6-6.1,1-9.2,1.1c-0.9,0-1.8-0.1-2.6-0.9c2,0.1,4,0.2,5.9,0.2C253,365.7,255,365.5,256.9,365.4z"/>
	<path d="M554.3,464.4c-0.5-0.3-0.5-0.7-0.2-1.1c1-1.8,1.5-3.9,3.4-5.3C557.4,460.4,556.5,462.2,554.3,464.4z"/>
	<path d="M610.6,215.9c-0.9,0.1-1.4,0.2-1.7,0.1c-1.6-0.5-2.5-1.2-4.2-3.1c0.4-0.2,0.8-0.7,1.1-0.6C607.5,213,609.1,214,610.6,215.9
		z"/>
	<path d="M698.7,365.7c2.7-0.5,9.9-0.6,12.5,0C707,366.1,702.9,366.1,698.7,365.7z"/>
	<path d="M549.1,196.6c1.4,1.5,1.3,3.4,1.5,5.1c0,0.2-0.4,0.4-0.7,0.7c-0.3-0.3-0.6-0.5-0.7-0.8c-0.3-1.4-0.6-2.9-0.8-4.3
		C548.3,197.1,548.7,196.8,549.1,196.6z"/>
	<path d="M103.4,458.4c0.5,0.5,0.3,1.1,0,1.6c-1,2.3-1.8,3.5-3.2,4.6C100.2,462.6,101.5,460.1,103.4,458.4z"/>
	<path d="M723.8,294.9c1.7,1.4,3.1,2.8,3.2,5.4C725,298.8,723.1,297.8,723.8,294.9z"/>
	<path d="M586.2,226.4c-1.1-1.5-0.4-2.4,0-3.3c0.5-1.1,1.1-2.2,2.6-2.7c0.1,1.4-1,1.9-1.3,2.8C587.1,224.2,586.7,225.1,586.2,226.4z
		"/>
	<path d="M683,277.7c-0.2-0.1-0.5,0-0.6-0.2c-1-1.1-1.3-2.5-1.4-4c0-0.3,0.4-0.6,0.7-1C683.1,275.5,683.2,275.8,683,277.7z"/>
	<path d="M595.2,237.1c1.4,1.2,1.8,2,2.3,5.1c-0.3-0.1-0.7,0-0.8-0.2C595.7,240.5,594.5,239.1,595.2,237.1z"/>
	<path d="M563.7,446.9c-0.6-0.4-0.8-0.5-1-0.7c0.4-1.6,0.9-3.2,2.3-4.9c0.1,0.9,0.3,1.3,0.2,1.6
		C564.8,444.1,564.3,445.3,563.7,446.9z"/>
	<path d="M568.8,162.8c-0.2,0-0.5,0-0.7-0.1c-1.6-1-3.2-2.1-4.8-3.1c0-0.8,0.5-0.7,1-0.6c1.7,0.7,3.2,1.7,4.4,3.2
		C568.8,162.3,568.7,162.6,568.8,162.8L568.8,162.8z"/>
	<path d="M581.6,214.5c1.6,0.8,2.3,2.3,3.2,3.9c-0.5,0.1-0.9,0.4-1,0.2c-1.3-0.8-2.2-2-2.5-3.5C581.2,215,581.5,214.8,581.6,214.5z"
		/>
	<path d="M641,256.1c2.7-1.5,2.9-1.5,4.4-0.4C643.4,257.1,643.3,257.1,641,256.1z"/>
	<path d="M757.4,306.5c-0.3,2.8-0.6,5.6-0.9,8.9c-0.8-1.5-0.5-2.7-0.3-3.7C756.4,310,756.3,308.1,757.4,306.5L757.4,306.5z"/>
	<path d="M666.1,251.4c-1.2-1.3-1.9-2.4-2-3.9C666,248.2,666.7,249.4,666.1,251.4z"/>
	<path d="M108.9,446.4c0.3-1.6,0.8-3.1,2-4.6c0.4,1.9-0.1,3.7-1.3,4.9C109.5,446.8,109.2,446.6,108.9,446.4z"/>
	<path d="M599.5,208.1c1.5,0.3,1.3,1.9,2.2,2.6c-0.2,0.9-0.8,1.1-1.2,0.6c-0.6-0.8-1-1.7-1.4-2.6
		C599.1,208.6,599.4,208.4,599.5,208.1z"/>
	<path d="M758.5,285.2c0.4,2.8,0.2,3.7-1.4,5.7c-0.1-0.1-0.2-0.2-0.2-0.3C757.4,288.9,757.9,287.2,758.5,285.2z"/>
	<path d="M656.7,272.1c1.9-0.2,3,0,4.1,1C658.6,273.3,658.6,273.3,656.7,272.1z"/>
	<path d="M685.7,343.7c-1.8,0-2.3-1.6-3.3-2.5c0.9-0.1,1.2,0.7,1.8,1.2C684.7,342.8,685.1,343.3,685.7,343.7L685.7,343.7z"/>
	<path d="M649.2,301.3c-0.9-0.9-1.4-2-1.6-3.4C648.8,299.1,648.8,299.1,649.2,301.3z"/>
	<path d="M644,227.8c-2.8-0.1-2.7-0.1-3.7-2C641.6,225.9,642.5,226.6,644,227.8z"/>
	<path d="M627.1,244.4c-0.5-0.9-0.8-1.5-1-2.1c0-0.1,0.4-0.6,0.6-0.6C627.8,241.9,628,242.7,627.1,244.4z"/>
	<path d="M560.8,162.6c0.3-1.2,0.9-1.6,1.8-1.6c0.2,0,0.4,0.2,0.5,0.4c0.1,0.2,0.1,0.5,0,0.6C562.6,162.7,561.9,162.8,560.8,162.6z"
		/>
	<path d="M762.3,294.8c-0.6,1.4-1,2.9-2.2,4l0.1,0.1c-0.1-1.5,0.8-2.7,1.6-3.9C761.9,294.9,762.2,295,762.3,294.8L762.3,294.8z"/>
	<path d="M646,244.6c1.6-0.1,2.4,0.3,3.2,1.5C647.7,246.2,646.9,245.8,646,244.6z"/>
	<path d="M573.6,168.6c0.3-1.3,1.2-1.1,2.1-0.8C575.1,169.1,575.1,169.1,573.6,168.6z"/>
	<path d="M615.7,217.5c-0.5,0.2-0.8,0.5-1,0.5c-0.6,0-1.1-0.8-0.8-1.2c0.2-0.2,0.6-0.4,0.8-0.2C615.1,216.7,615.3,217.1,615.7,217.5
		z"/>
	<path d="M617.3,218.1c0.8,0,1.3,0.4,1.1,1c-0.1,0.2-0.6,0.5-0.7,0.5c-0.4-0.2-0.7-0.5-0.9-0.9C616.8,218.6,617.2,218.3,617.3,218.1
		z"/>
	<path d="M757.5,306.6c-0.2-1.4,0.3-2.6,0.9-3.9c0.1-0.1,0.4-0.2,0.6-0.2l-0.1-0.1C758.7,303.9,758.4,305.3,757.5,306.6L757.5,306.6
		z"/>
	<path d="M628.5,245.7c0.1,0,0.3,0,0.3,0.1c0.8,0.8,1,1.6,0.5,1.9c-0.1,0.1-0.5,0.1-0.6,0C628.1,247.1,627.7,246.4,628.5,245.7z"/>
	<path d="M645,294.9c-0.9-0.1-1.3-0.6-1.3-1.5C644.7,293.6,644.7,293.6,645,294.9z"/>
	<path d="M635.4,223.6c1.4,0,1.4,0,2.4,1C636.5,224.6,636.5,224.6,635.4,223.6z"/>
	<path d="M660.6,239.5c-0.7-0.6-1.4-1.4-1.8-2.5C660.2,237.9,660.2,237.9,660.6,239.5L660.6,239.5z"/>
	<path d="M579.4,210.9c0.4,0.3,0.8,0.4,0.9,0.6c0.1,0.2-0.1,0.6-0.1,0.9c-0.3-0.1-0.7-0.2-0.8-0.4
		C579.2,211.7,579.3,211.4,579.4,210.9z"/>
	<path d="M595.7,233.3c-0.2-0.4-0.4-0.7-0.5-1.1c0-0.1,0.4-0.3,0.7-0.4c0.2,0.4,0.4,0.8,0.5,1.1C596.4,233,596.1,233.1,595.7,233.3z
		"/>
	<path d="M652.4,245.8c-0.7,0-1.3-0.1-2-0.1C651.2,244.3,651.4,244.3,652.4,245.8z"/>
	<path d="M725,324.7c0.5,0,1-0.1,1.5-0.1c0,0.1,0,0.2,0,0.4c-0.5,0.1-1,0.1-1.5,0.2C725,325,725,324.8,725,324.7z"/>
	<path d="M653,255.7c-0.3,0.1-0.5,0.2-0.8,0.3c-0.1,0-0.2-0.3-0.3-0.4c0.2-0.1,0.5-0.3,0.7-0.4C652.7,255.3,652.8,255.4,653,255.7z"
		/>
	<path d="M106.3,454.4c-0.1,0.1-0.3,0.2-0.4,0.3c-0.1-0.2-0.3-0.5-0.4-0.7c0.2-0.1,0.4-0.2,0.6-0.1
		C106.1,454,106.2,454.2,106.3,454.4z"/>
	<path d="M560.3,453.9c-0.1,0.1-0.3,0.2-0.4,0.4c-0.2-0.2-0.3-0.4-0.5-0.6c0.2-0.1,0.4-0.3,0.5-0.2
		C560,453.5,560.1,453.7,560.3,453.9z"/>
	<path d="M647.9,255.9c0.2-0.7,0.4-1.1,1-0.8c0.1,0.1,0.2,0.4,0.3,0.6C648.8,255.8,648.4,255.8,647.9,255.9z"/>
	<path d="M631.6,252c-0.4,0.2-0.6,0.4-0.8,0.5c-0.1-0.2-0.4-0.5-0.4-0.7c0-0.2,0.4-0.5,0.6-0.5C631.2,251.4,631.4,251.7,631.6,252z"
		/>
	<path d="M633.3,222.2c-1-0.1-1.4-0.2-1.8-0.3c-0.1,0-0.1-0.3-0.2-0.5c0.2,0,0.4-0.2,0.6-0.1C632.2,221.5,632.4,221.7,633.3,222.2z"
		/>
	<path d="M663.5,244.2c-0.2-0.2-0.5-0.3-0.7-0.5c-0.1-0.1,0-0.3,0.1-0.5c0.1,0,0.2,0.1,0.3,0.1C663.2,243.7,663.3,244,663.5,244.2
		L663.5,244.2z"/>
	<path d="M578.2,209.1c-0.2,0.2-0.3,0.3-0.5,0.4c-0.2-0.2-0.3-0.5-0.5-0.7c0,0,0.2-0.2,0.2-0.2C577.7,208.7,577.9,208.9,578.2,209.1
		z"/>
	<path d="M759.4,300.3c0.1,0.8,0.1,1.6-0.6,2.1l0.1,0.1C758.7,301.7,758.6,300.9,759.4,300.3L759.4,300.3z"/>
	<path d="M595.1,160.8c0.2,0.1,0.3,0.2,0.5,0.3c-0.3,0.2-0.5,0.3-0.8,0.5c-0.1-0.2-0.2-0.4-0.3-0.6
		C594.7,161,594.9,160.9,595.1,160.8z"/>
	<path d="M560.8,164.2c-0.3,0.1-0.5,0.2-0.8,0.3c-0.1-0.2-0.2-0.4-0.1-0.6c0.1-0.1,0.3-0.3,0.5-0.3
		C560.5,163.7,560.6,164,560.8,164.2z"/>
	<path d="M614.3,172.5c-0.4,0.2-0.7,0.4-1.7,0.9C613.5,172.4,614,172.6,614.3,172.5L614.3,172.5z"/>
	<path d="M675.6,323.1c-0.2,0.1-0.4,0.2-0.6,0.2c-0.2-0.1-0.2-0.3-0.3-0.5c0.2-0.1,0.4-0.2,0.6-0.2
		C675.5,322.6,675.5,322.9,675.6,323.1z"/>
	<path d="M663.4,244.3c0.2,0.2,0.4,0.3,0.5,0.5c0,0.1-0.2,0.3-0.2,0.5c0-0.1-0.1-0.2-0.1-0.3C663.5,244.7,663.5,244.5,663.4,244.3
		L663.4,244.3z"/>
	<path d="M598.1,161.2c0.1-0.1,0.3-0.3,0.4-0.3c0.2,0,0.3,0.2,0.4,0.3c-0.1,0.1-0.2,0.2-0.2,0.2
		C598.5,161.4,598.3,161.3,598.1,161.2z"/>
	<path d="M667.6,276.1c-0.2,0-0.4,0-0.6,0c-0.1,0-0.2-0.1-0.2-0.2c0.2-0.1,0.4-0.3,0.5-0.2C667.4,275.7,667.5,276,667.6,276.1
		L667.6,276.1z"/>
	<path d="M667.5,276.1c0.2,0,0.4,0,0.6,0.1c0.1,0,0.1,0.1,0.2,0.2c-0.1,0.1-0.2,0.2-0.2,0.2C668,276.5,667.8,276.3,667.5,276.1
		L667.5,276.1z"/>
	<path d="M763.6,292c0.2-0.4,0.5-0.8,0.7-1.3l-0.1-0.1C764,291.1,763.8,291.5,763.6,292L763.6,292z"/>
	<path d="M763.5,291.9c-0.2,0.5-0.4,1-0.6,1.5l0.1,0.1C763.2,292.9,763.4,292.5,763.5,291.9L763.5,291.9z"/>
	<path d="M557.4,168.3c-0.1-0.2-0.1-0.3-0.2-0.5c0.2,0,0.4-0.1,0.6-0.1c0.1,0,0.1,0.2,0.2,0.3C557.8,168.1,557.6,168.2,557.4,168.3z
		"/>
	<path d="M600.6,175.2c-0.3-0.1-0.5-0.1-0.8-0.2c0.1-0.1,0.2-0.3,0.3-0.4C600.2,174.8,600.4,175,600.6,175.2L600.6,175.2z"/>
	<path d="M586.6,228.2c-0.1-0.1-0.2-0.1-0.2-0.2c0.1,0,0.2-0.1,0.3-0.1c0.1,0,0.2,0.1,0.3,0.2C586.8,228.1,586.7,228.2,586.6,228.2z
		"/>
	<path d="M640.3,201.8c0.1,0.2,0.1,0.4,0.2,0.5c0,0.1-0.1,0.1-0.2,0.2c-0.1-0.2-0.1-0.4-0.2-0.5
		C640.1,201.9,640.2,201.8,640.3,201.8z"/>
	<path d="M590.5,215.1c0.1,0.1,0.3,0.3,0.3,0.4c0,0.1-0.2,0.3-0.3,0.4c0,0-0.3-0.1-0.2-0.2C590.3,215.5,590.4,215.3,590.5,215.1z"/>
	<path d="M762.4,294.9c-0.1-0.6-0.2-1.3,0.6-1.5l-0.1-0.1C762.7,293.8,762.5,294.3,762.4,294.9L762.4,294.9z"/>
	<path d="M760.1,298.9c0,0.6,0.1,1.2-0.7,1.4l0.1,0.1C759.5,299.8,759.4,299.1,760.1,298.9L760.1,298.9z"/>
	<path d="M686.2,344.6c0.1,0,0.2,0.1,0.3,0.1C686.4,344.6,686.4,344.5,686.2,344.6L686.2,344.6z"/>
	<polygon points="603,177.1 602.9,176.9 603.1,177 	"/>
	<path d="M600.5,175.3c0.1,0.1,0.2,0.2,0.3,0.3c-0.1,0-0.2,0-0.2-0.1C600.6,175.4,600.6,175.3,600.5,175.3L600.5,175.3z"/>
	<path d="M614.4,172.6c0-0.1,0-0.2,0.1-0.2C614.4,172.4,614.4,172.4,614.4,172.6L614.4,172.6z"/>
	<path d="M568.7,162.8c0.2,0.1,0.3,0.1,0.5,0.2C568.8,163.5,568.9,163,568.7,162.8L568.7,162.8z"/>
	<path d="M643.3,204.7c-0.1,0.1-0.1,0.1-0.2,0.2c-0.1-0.1-0.2-0.2-0.2-0.2c0-0.1,0.1-0.1,0.2-0.2
		C643.1,204.5,643.2,204.6,643.3,204.7z"/>
	<path d="M686.3,344.5c-0.5,0-0.8-0.2-0.6-0.8l-0.1,0.1C685.8,344,686,344.3,686.3,344.5L686.3,344.5z"/>
	<polygon points="587.1,230.3 587,230.1 587.2,230.1 	"/>
	<polygon points="660.5,239.6 660.7,239.6 660.6,239.5 	"/>
	<path d="M596.5,243.6c-0.1,0-0.2,0-0.3,0C596.3,243.6,596.3,243.6,596.5,243.6L596.5,243.6z"/>
	<path d="M597.1,244.3c-0.4-0.1-0.8-0.2-0.6-0.8l-0.1,0.1C596.9,243.7,597.2,243.9,597.1,244.3L597.1,244.3z"/>
	<path d="M597,244.4c0.1,0.1,0.3,0.1,0.4,0.2c-0.1,0-0.2,0-0.2,0C597.2,244.5,597.1,244.4,597,244.4L597,244.4z"/>
	<polygon points="764.3,290.7 764.4,290.5 764.3,290.6 	"/>
	<path d="M681.5,400.8c-0.9-0.3-0.8-1.1-0.9-1.7c-0.9-4.6-1.7-9.3-2.5-13.9c-1.1-6-2.2-12-4.1-17.8c-0.1-0.3,0-0.6,0-1.5
		c0.6,0.7,1,1.1,1.2,1.5c0.7,2.4,1.5,4.8,2,7.3c1.6,8,3.2,16,4.7,24C682,399.4,682.3,400.3,681.5,400.8z"/>
	<path d="M710.7,395.8c0.6,0.3,1.1,0.6,1.5,0.9c0.7-0.4,1.1-1.2,0.6-1.7c-0.2-0.3-0.5-0.4-0.8-0.6c-0.2-0.2-0.5-0.4-0.7-0.6
		c0-0.9,0.7-1.2,1.4-1.3c0.9-0.1,1.6,0.3,2.1,0.9c0.8,1,0.9,3.1,0.1,4.3c-0.7,1.1-1.8,1.8-3.2,1.7c-0.9,0-1.6-0.4-1.9-1.2
		C709.6,397.2,709.6,396.5,710.7,395.8z"/>
	<path d="M592.9,402.7c-0.5-0.7-0.9-1-1-1.4c-0.5-2.2-1-4.5-1.5-6.7c-0.1-0.6,0.2-1.1,1-1.3c1,2.3,1.1,4.9,1.7,7.3
		C593.1,401.1,593,401.7,592.9,402.7z"/>
	<path d="M538.1,395.2c-0.5-1.3-1-2.4-1.5-3.7c-0.4,0-0.8-0.2-1.2-0.1c-4.5,1-9,1.9-13.4,3c-1.7,0.4-3.2,1.2-4.8,1.8
		c-0.4,0.1-0.8,0-1.8-0.1c1-0.7,1.5-1.2,2-1.5c3.5-1.6,7.2-2.4,10.9-3.2c3.9-0.9,7.8-1.7,11.8-2.6c3.5-0.8,6.8-2,10.1-3.4
		c3.1-1.3,6.2-2.3,9.4-3.4c0.4-0.1,0.8-0.1,1.7-0.1c-0.5,0.5-0.6,0.9-0.9,0.9c-4.1,1.1-8,2.8-11.9,4.5c-2.3,1-4.7,1.7-7.1,2.5
		c-0.8,0.3-1.7,0.5-2.4,0.8C538.1,392.4,539.2,393.8,538.1,395.2z"/>
	<path d="M592.3,372.9c0.3-0.3,0.6-0.7,0.9-0.8c7.3-3,14.9-5.5,22.6-7.3c0.4-0.1,0.9,0,1.3,0c0.1,0,0.1,0.1,0.3,0.3
		c-0.6,0.3-1,0.6-1.6,0.8c-7.5,1.8-14.8,4.2-22,6.9C593.4,372.9,592.8,372.8,592.3,372.9L592.3,372.9z"/>
	<path d="M489.3,408.7c0-0.6,0-1.1-0.1-1.6c-0.6-0.3-1.1-0.5-1.8-0.8c2-2.5,5.3-2.1,7.6-3.6c1.2,0.5,1.3,1.5,1.1,2.6
		c-0.3,1.4-0.7,2.8-1.3,4.9c0-2.1,0-3.4,0-4.8c-1.9-0.1-1.9-0.1-4.5,0.9C489.6,406.9,490.3,408.3,489.3,408.7L489.3,408.7z"/>
	<path d="M647.1,355.2c-0.3,3.3,1,6.3,1.5,9.4c-2.1-2.5-2.6-5.6-2.9-8.7c-0.5-0.2-0.9-0.4-1.3-0.6c0.6-1.5,4.6-2.7,8.5-2.2
		C650.8,353.9,649,354.5,647.1,355.2z"/>
	<path d="M622.8,363.2c0.3-0.8,1.1-0.7,1.7-0.9c3.5-1.1,7-2.2,10.5-3.2c0.8-0.2,1.7-0.8,2.5,0c-0.1,0.2-0.1,0.5-0.3,0.5
		c-2.8,1-5.6,2-8.4,2.9C626.8,363.3,624.8,363.5,622.8,363.2L622.8,363.2z"/>
	<path d="M669,362.1c-0.4-0.8-0.9-1.6-1.2-2.4c-0.6-2.3-1.1-4.7-1.7-7c0-0.1,0.2-0.4,0.4-0.5c0.2,0.1,0.5,0.1,0.6,0.2
		C667.8,353.6,669.4,360,669,362.1z"/>
	<path d="M548.8,399.3c-2-4.1-2.3-5.6-1.9-8.3c0.3,0.2,0.7,0.3,0.8,0.6c0.4,2,0.8,4.1,1.1,6.1C548.9,398.2,548.8,398.8,548.8,399.3z
		"/>
	<path d="M503.1,401.6c3.1-1.7,5.7-2.7,8.5-3.5c0.1,0,0.3,0.3,0.6,0.6c-2.3,1.5-4.7,2.4-7.2,3.1
		C504.6,401.9,504.2,401.8,503.1,401.6z"/>
	<path d="M571.9,386.3c-1.3-1.6-2.1-3.2-2.2-5c0-0.2,0.4-0.5,0.6-0.7c0.1-0.1,0.5,0,0.6,0.1C572.1,382.1,572.4,384,571.9,386.3z"/>
	<path d="M642.4,365.3c-1.1-1.8-2.1-3.7-1.6-6.3C642.3,361.1,642,363.3,642.4,365.3z"/>
	<path d="M489.2,408.7c0.3,2.5,0.1,5-0.1,7.5C488.8,413.7,488.3,411.2,489.2,408.7L489.2,408.7z"/>
	<path d="M513.5,396.3c1.1,1.4,0.7,2.6,1,3.7c-1.1,0.6-1.1-0.3-1.3-0.7C512.6,398.2,512.6,398.2,513.5,396.3z"/>
	<path d="M478.8,411.5c-0.8-1-0.4-1.7,0.2-2.3c0.2-0.2,0.7-0.4,0.9-0.3c0.5,0.2,0.5,0.7,0.2,1.1
		C479.7,410.5,479.2,410.9,478.8,411.5z"/>
	<path d="M670.4,355.1c1.5,1.1,1.5,2.2,1.1,3.7C670.5,357.8,670.2,356.8,670.4,355.1z"/>
	<path d="M586,374.9c-1.4,1.1-3,1.4-4.7,1.4l0.1,0.1C582.7,375.4,583.7,375.1,586,374.9L586,374.9z"/>
	<path d="M482.3,409.5c-0.2-1.4,0.2-1.8,0.8-2c0.1-0.1,0.4,0,0.5,0.2c0.1,0.1,0.1,0.4,0,0.5C483.3,408.6,482.9,408.9,482.3,409.5z"
		/>
	<path d="M656.9,350.4c-0.4,0.2-0.6,0.4-0.9,0.4c-0.3,0-0.6-0.1-1-0.2C655.8,350.2,655.8,350.2,656.9,350.4z"/>
	<path d="M588.2,374.3c0.4-1,1.3-0.7,2-0.7l-0.1-0.1C589.7,374.5,588.9,374.2,588.2,374.3L588.2,374.3z"/>
	<path d="M586,374.9c0.5-0.9,1.3-0.8,2.1-0.7l-0.1-0.1C587.6,375.2,586.8,375,586,374.9L586,374.9z"/>
	<path d="M581.2,376.3c-0.4,0.4-0.9,0.7-1.8,0.1C580.3,376.4,580.8,376.4,581.2,376.3L581.2,376.3z"/>
	<path d="M620.6,363.9c0.6-0.7,1.4-0.5,2.2-0.6l-0.1-0.1C622.1,363.9,621.3,363.7,620.6,363.9L620.6,363.9z"/>
	<path d="M592.3,372.8c-0.5,0.9-1.3,0.8-2.1,0.6l0.1,0.1C590.7,372.7,591.5,372.8,592.3,372.8L592.3,372.8z"/>
	<path d="M571.6,394.3c-0.5,0-1,0-1.5,0C570.6,393.8,571.1,393.8,571.6,394.3z"/>
	<path d="M620.5,363.8c0,0.3,0,0.6,0,0.9c0,0.1-0.1,0.1-0.2,0.2c-0.1-0.2-0.3-0.4-0.3-0.5C620.1,364.2,620.4,364,620.5,363.8
		L620.5,363.8z"/>
	<path d="M812.4,333.7c-1-1.3-0.8-2.8-1.1-4.2c-0.4-1.6-0.8-3.1-1.3-4.6c-0.4-1.4-1.4-2.6-1.5-4.4c1.2,0.2,1.4,1,1.7,1.6
		C811.9,325.8,813.3,329.5,812.4,333.7z"/>
	<path d="M826.9,394.6c-1-2.5-1.8-6.5-1.7-8.4c1.7,1,1.9,2.8,2.3,4.3C827.8,391.8,828.2,393.1,826.9,394.6z"/>
	<path d="M803.8,297.4c-2.6,0.3-5.1,0.6-7.6,0.9c-0.4-0.9,0.2-1,0.5-1.1c2-0.3,4-0.5,6-0.7c0.4,0,0.8,0.3,1.2,0.4
		C803.9,297.1,803.9,297.2,803.8,297.4z"/>
	<path d="M805.6,306.9c-0.8,1-1.8,1-2.8,0.8c-0.3-0.1-0.6-0.4-0.6-0.7c0-0.2,0.2-0.7,0.5-0.8C803.7,305.9,804.8,305.8,805.6,306.9z"
		/>
	<path d="M812.6,290.3c-1.3-0.9-2.5-1.9-3.1-3.4c0.3-0.1,0.6-0.4,0.7-0.3C811.6,287.4,812.5,288.6,812.6,290.3z"/>
	<path d="M812.3,336.9c0.9,1.2,0.7,2.1,0.3,3.1C811.1,339.4,811.1,338.7,812.3,336.9z"/>
	<path d="M821.6,373.1c0.2,0.5,0.3,0.8,0.4,1.2c0,0.1-0.4,0.3-0.5,0.3c-0.5-0.1-0.7-0.5-0.5-1C821,373.5,821.2,373.4,821.6,373.1z"
		/>
	<path d="M786.9,299.1c-0.3,0.4-0.4,0.7-0.6,0.8c-0.2,0.1-0.6,0-0.8,0c0.1-0.3,0.2-0.6,0.4-0.8C786.1,299,786.5,299.1,786.9,299.1z"
		/>
	<path d="M814.5,346.2c-0.3,0.3-0.6,0.6-0.8,0.9c-0.2-0.2-0.5-0.4-0.5-0.7c0-0.4,0-0.9,0.6-0.9C814,345.5,814.2,345.9,814.5,346.2z"
		/>
	<path d="M823.7,381.8c0.7,1,0.7,1,0.4,1.8C823.6,383.1,823.7,382.7,823.7,381.8z"/>
	<path d="M814.7,349.4c-0.1,0.2-0.2,0.3-0.4,0.5c-0.1-0.2-0.3-0.4-0.3-0.5c0-0.2,0.2-0.3,0.3-0.5C814.5,349,814.6,349.2,814.7,349.4
		z"/>
	<path d="M808.8,307.6c-0.2,0.1-0.4,0.1-0.5,0.2c-0.1,0-0.2-0.1-0.2-0.2c0-0.1,0.1-0.2,0.2-0.2C808.5,307.4,808.6,307.5,808.8,307.6
		z"/>
	<path d="M822.3,378.4c0.1,0.1,0.2,0.2,0.3,0.3c-0.1,0-0.2,0-0.2-0.1C822.4,378.5,822.4,378.4,822.3,378.4L822.3,378.4z"/>
	<path d="M822.4,378.3c-0.1,0-0.2-0.1-0.3-0.1C822.2,378.3,822.3,378.4,822.4,378.3L822.4,378.3z"/>
	<path d="M813.3,342.8c-0.1,0.1-0.2,0.1-0.2,0.2c-0.1-0.1-0.1-0.2-0.2-0.2c0.1-0.1,0.2-0.2,0.2-0.2
		C813.1,342.6,813.2,342.7,813.3,342.8z"/>
	<path d="M845.2,395c-0.3-0.1-0.6-0.1-1.1-0.2c-0.6-1.8,0.2-3.6,0.3-5.4c0.8-0.1,1.5,0.1,1.4,1C845.7,391.9,845.4,393.4,845.2,395z"
		/>
	<path d="M868.2,391.5c-0.1-0.6-0.3-1.1-0.1-1.4c0.7-1.3,2.8-3,4.5-4c0,0.3,0.2,0.7,0.1,0.9C871.5,388.8,870.2,390.4,868.2,391.5z"
		/>
	<path d="M863.9,399.4c-1.1-3.4-1.1-3.7,0.3-5.8c-0.1,1.2-0.2,2-0.3,2.9C863.9,397.2,863.9,397.9,863.9,399.4z"/>
	<path d="M874.8,390.2c1,0.9,1.5,2,1.4,3.4l0.1-0.1C875.3,392.6,874.8,391.5,874.8,390.2L874.8,390.2z"/>
	<path d="M874.9,390.1c-0.5-0.2-0.7-0.4-0.2-1.2C874.7,389.5,874.8,389.9,874.9,390.1L874.9,390.1z"/>
	<path d="M872.2,394.2c-0.8-0.2-0.8-0.7-0.7-1.4l-0.1,0.1C872.1,393.1,872.1,393.7,872.2,394.2L872.2,394.2z"/>
	<path d="M876.2,393.6c0.7,0.2,0.7,0.8,0.7,1.4l0.1-0.1C876.1,394.8,876.3,394.1,876.2,393.6L876.2,393.6z"/>
	<path d="M872.1,394.3c0.2,0.2,0.3,0.4,0.1,0.2C872.3,394.7,872.2,394.5,872.1,394.3L872.1,394.3z"/>
	<path d="M876.9,394.9c0.2,0.5,0.5,0.9,0.7,1.4l0.1-0.1C876.8,396.2,877,395.5,876.9,394.9L876.9,394.9z"/>
	<path d="M877.6,396.3c0.4,0.2,0.7,0.5,0.1,1.3C877.7,396.9,877.7,396.6,877.6,396.3L877.6,396.3z"/>
	<path d="M871.5,392.8c-0.1,0-0.3-0.1-0.4-0.1c0.1,0,0.1,0,0.2,0C871.3,392.7,871.4,392.8,871.5,392.8L871.5,392.8z"/>
	<path d="M729.7,407.7c-0.2,0.1-0.6,0.5-1,0.4c-1.1-0.1-1.8-1.1-1.8-2.1c0-0.5,0.7-1.1,1.1-1C729.2,405.1,730,406.3,729.7,407.7z"/>
	<path d="M743.4,413.1c-0.6,0.5-0.9,1-1.3,1.1c-0.6,0.1-0.9-0.5-1-1c-0.1-0.5,0.5-1.2,1-1.1C742.4,412.1,742.8,412.6,743.4,413.1z"
		/>
	<path d="M846.5,442.3c-1-3.6-1.7-7-1.6-10.5c0,0,0.2-0.1,0.4-0.1c0.2,0.2,0.5,0.4,0.6,0.7c0.9,2.9,0.9,5.9,1.1,8.8
		C847,441.5,846.7,441.9,846.5,442.3z"/>
	<path d="M755.6,338.9c0.4,0.3,0.7,0.4,0.9,0.7c0.4,0.7,0.3,1.3-0.2,1.9c-0.5,0.5-1.2,0.6-1.9,0.2c-0.8-0.4-0.9-1.4-0.2-2
		C754.5,339.4,755.1,339.2,755.6,338.9z"/>
	<path d="M755.4,350.4c0,0.7-0.7,1.5-1.4,1.6c-0.8,0-1.5-0.6-1.6-1.4c-0.1-0.7,0.4-1.1,1.3-1.2C754.7,349.2,755.3,349.6,755.4,350.4
		z"/>
	<path d="M662.8,314.1c0-0.7,0.3-1.3,1.3-1.5c0.4,0.4,1,0.9,1.6,1.5C664.5,315,663.6,313.4,662.8,314.1L662.8,314.1z"/>
	<path d="M662.8,316.2c-0.9-0.8-0.9-0.9,0-2.1l-0.1-0.1C662.7,314.8,662.7,315.5,662.8,316.2C662.7,316.2,662.8,316.2,662.8,316.2z"
		/>
	<path d="M663.5,316.8c-0.5,0.1-0.8-0.1-0.7-0.7c0,0,0,0,0,0C663.3,316.2,663.4,316.4,663.5,316.8L663.5,316.8z"/>
	<path d="M783.7,389.3c-1.1,0.8-2,0.9-2.9-0.4C782.4,387.6,783,387.7,783.7,389.3L783.7,389.3z"/>
	<path d="M782.5,394.3c-0.4-0.6-0.9-1-0.9-1.4c0-0.7,0.7-0.7,1.2-0.7c0.6,0,1.2,0.6,1,1C783.6,393.6,783.1,393.8,782.5,394.3z"/>
	<path d="M33.7,348.6c-1.7-0.5-2.6-1.6-3.2-3.1c-0.8-2-1.1-4.2-1.4-6.3c-0.1-0.4-0.1-0.9,0.1-1.3c0.1-0.4,0.5-0.8,0.9-0.9
		c0.6-0.2,1.1,0.2,1.3,0.8c0.2,0.5,0.3,1.1,0.3,1.7c0.1,0.9,0.1,1.8,0,2.7c-0.1,1.4,0.3,2.7,1.3,3.8
		C33.6,346.6,34.1,347.4,33.7,348.6z"/>
	<path d="M134.8,324.6c0.9,0.2,1.2,0.6,1.1,1.3c-0.5,2-1.4,3.9-2.8,5.5c-0.8,0.9-1.7,1.8-2.7,2.6c-0.2,0.2-0.8,0-1.3,0
		c0.4-2.2,2.3-3.1,3.1-4.7C133.1,327.7,134,326.1,134.8,324.6z"/>
	<path d="M36.8,343.6c-2.4-1-3.1-2.9-3.9-5c0.8-0.2,1.4-0.4,2.1-0.6C37.5,339.2,35.9,341.9,36.8,343.6z"/>
	<path d="M62,355.2c0.3,1.6-0.5,3.5-2.3,4.7c-1.1,0.8-2.5,1.5-4,0.9c0.2-1,1-1.3,1.5-1.4c2-0.7,3.3-2,4.3-3.8
		C61.6,355.4,61.8,355.3,62,355.2z"/>
	<path d="M148,327.9c0.8,1.7-0.3,2.8-1.4,3.9c-0.4,0.4-1,0.6-1.6-0.1C145.8,330.3,146.3,328.7,148,327.9L148,327.9z"/>
	<path d="M126.5,337.3c0.4-1.1,1.4-1.6,2.5-2.1C129.2,336.8,128.4,337.5,126.5,337.3z"/>
	<path d="M170.1,350.6c0.2,0.8-0.7,1.6-1.5,1.3c-0.2-0.1-0.4-0.3-0.4-0.5c0-0.6,0.7-1.3,1.3-1.2
		C169.8,350.3,169.9,350.5,170.1,350.6z"/>
	<path d="M173.5,348.5c-0.5,1-0.9,1.6-1.8,1.4C171.8,348.1,171.9,348,173.5,348.5z"/>
	<path d="M122.5,341.2c0.1-1.6,1.1-1.7,1.8-2.4C124.2,340.1,124.2,340.1,122.5,341.2z"/>
	<path d="M164,335.6c-0.2-1.5,0.5-1.8,1.4-2C165.8,334.7,165.8,334.7,164,335.6z"/>
	<path d="M155.6,332.3c-0.1-1.5,0.6-1.9,1.4-2.3C157.4,331.4,157.4,331.4,155.6,332.3z"/>
	<path d="M161.1,326c0.3-1.3,0.6-2,1.6-2C162.4,325.1,162.4,325.1,161.1,326z"/>
	<path d="M167.8,353.5c-0.1,0.6-0.7,0.9-1.2,0.7c-0.1-0.1-0.3-0.3-0.3-0.5c0-0.5,0.8-1,1.2-0.7C167.7,353.1,167.8,353.3,167.8,353.5
		z"/>
	<path d="M118.6,343.9c0.4-0.4,0.8-0.7,1.4-1.2C120.2,343.8,119.6,344,118.6,343.9z"/>
	<path d="M159.5,328.5c-0.5,0.3-0.9,0.5-1.4,0.7c0,0-0.3-0.3-0.3-0.5c0.2-0.6,0.5-1,1.2-0.9C159.2,328,159.3,328.2,159.5,328.5z"/>
	<path d="M150.8,324.4c-0.2,0.2-0.4,0.5-0.6,0.6c-0.1,0.1-0.5-0.1-0.5-0.3c-0.2-0.4,0.2-1,0.7-0.9
		C150.4,323.9,150.6,324.1,150.8,324.4z"/>
	<path d="M194.3,312.7c-0.1,0.9-0.9,0.8-1.4,1.1C192.7,312.9,192.7,312.9,194.3,312.7L194.3,312.7z"/>
	<path d="M190.2,314.4c-0.4,0.3-0.7,0.5-1.1,0.7c0,0-0.4-0.4-0.4-0.4c0.3-0.3,0.6-0.6,0.9-0.8C189.6,313.9,189.9,314.2,190.2,314.4z
		"/>
	<path d="M135.3,323.3c-0.2,0.1-0.3,0.2-0.5,0.2c-0.1-0.2-0.2-0.5-0.3-0.7c0.2,0,0.4-0.1,0.5,0C135.1,322.8,135.2,323.1,135.3,323.3
		z"/>
	<path d="M51.2,350.7c-0.1,0.4-0.2,0.7-0.3,1.1c0,0-0.4-0.1-0.5-0.2c0.2-0.4,0.3-0.7,0.5-1.1C50.9,350.6,51,350.6,51.2,350.7z"/>
	<path d="M64.7,354.6c0,0.1-0.1,0.2-0.1,0.3c-0.3,0.4-0.6,0.6-1.1,0.4c-0.1,0-0.1-0.2-0.1-0.2c0.3-0.2,0.7-0.4,1.1-0.6
		C64.5,354.4,64.6,354.5,64.7,354.6z"/>
	<path d="M49.9,354.2c-0.2,0.2-0.3,0.5-0.5,0.7c-0.1-0.1-0.4-0.3-0.4-0.4c0-0.2,0.2-0.4,0.3-0.5C49.4,353.9,49.6,354.1,49.9,354.2z"
		/>
	<path d="M148,328c0-0.1,0-0.2,0-0.3c-0.1-0.9,0.1-1.4,1.3-0.7C148.8,327.3,148.4,327.6,148,328L148,328z"/>
	<polygon points="66.8,341.7 66.9,341.7 66.8,342 	"/>
	<path d="M67.2,353.1c0,0.1-0.1,0.2-0.1,0.2c-0.1,0-0.2,0-0.3-0.1c0-0.1,0.1-0.2,0.1-0.2C67,353,67.1,353.1,67.2,353.1z"/>
	<path d="M108.3,326.9c-0.1,0-0.2,0.1-0.3,0.1c0-0.1-0.1-0.3-0.1-0.4c0.1,0,0.2,0,0.3,0C108.2,326.7,108.2,326.9,108.3,326.9z"/>
	<path d="M184.4,315.1c-0.2,0.1-0.4,0.2-0.5,0.2c0,0-0.1-0.2-0.2-0.2c0.2-0.1,0.4-0.2,0.6-0.2C184.3,314.8,184.4,315,184.4,315.1z"
		/>
	<path d="M104.8,328.3c-0.2,0.1-0.3,0.2-0.5,0.2c-0.1,0-0.1-0.1-0.2-0.2c0.2-0.1,0.4-0.2,0.5-0.2
		C104.7,328.1,104.8,328.3,104.8,328.3z"/>
	<path d="M194.3,312.8c0.1-0.2,0.1-0.3,0.2-0.5c0.1,0.1,0.2,0.2,0.3,0.3C194.6,312.6,194.4,312.7,194.3,312.8L194.3,312.8z"/>
	<path d="M112.1,325.2c0.1-0.2,0.1-0.3,0.2-0.5C112.7,325.1,112.3,325.1,112.1,325.2L112.1,325.2z"/>
	<polygon points="152.4,321.5 152.3,321.3 152.5,321.4 	"/>
	<path d="M217.6,340.3c0.8,0.1,1.6,0.1,2.3,0.3c4.8,1.7,9.8,2.4,14.8,3.2c4.9,0.9,9.7,1.9,14.2,4.1c1,0.5,2,1,3,1.7
		c0.4,0.3,0.8,0.8,1.1,1.3c0.4,0.9,0.1,1.6-0.9,1.9c-3-2.6-6.7-3.8-10.4-5c-4.7-1.5-9.6-2.3-14.4-3.3c-3-0.6-6-1.6-8.8-2.9
		c-0.4-0.2-0.7-0.5-1-0.8C217.4,340.7,217.5,340.5,217.6,340.3z"/>
	<path d="M271.6,345.5c-5-2.2-10.1-3-15.2-3.8c-5.1-0.7-10.2-1.4-15.4-2.1c-0.4-0.1-0.8-0.2-1.3-0.3c0.3-0.4,0.4-0.7,0.5-0.6
		c7.8,0.9,15.6,1.4,23.2,3.3c2.5,0.6,4.9,1.2,7.1,2.5C270.9,344.7,271.2,345.2,271.6,345.5z"/>
	<path d="M214.6,323.3c0.5-0.3,0.9-0.6,1.3-0.6c2.9-0.3,5.5-1.5,8.1-2.6c1.3-0.6,2.7-1.3,4.2-1c0,0.3,0.2,0.5,0.1,0.6
		c-2.6,2.9-8.4,5.2-12,4.9C215.7,324.5,215,324.5,214.6,323.3z"/>
	<path d="M272.6,300.4c-2-1.2-3.3-3.1-5-4.6c-1.7-1.5-4.1-2-5.5-4c0.4-0.3,0.6-0.6,0.9-0.6c0.3-0.1,0.7,0,1,0.1
		c3.5,1.5,6.5,3.8,8.5,7.1C272.9,299,273.3,299.6,272.6,300.4z"/>
	<path d="M284.3,310.8c-0.1-1.1-0.2-1.5-0.1-1.9c1.1-4,3.2-7.5,5.4-11c0.4-0.6,1-1.1,1.5-1.8c0.2,0.4,0.5,0.7,0.4,0.8
		C288.9,301.2,286.5,305.6,284.3,310.8z"/>
	<path d="M229.4,328.6c-3.9,2.2-8.1,3.6-12.5,4.3c-0.7,0.1-1.4-0.1-2.2-0.6c0.5-0.2,1-0.4,1.5-0.6c3.3-0.8,6.6-1.7,9.9-2.5
		C227.3,329,228.4,328.8,229.4,328.6L229.4,328.6z"/>
	<path d="M222.8,351.7c-2.8-1.3-5.4-2.8-7.8-4.5c0.1-0.9,0.5-1.3,1.1-0.9c2.3,1.2,4.5,2.6,6.7,3.9
		C223.2,350.3,223.2,350.7,222.8,351.7z"/>
	<path d="M261.9,322.8c0.7-0.5,1-0.9,1.3-0.9c3.7-0.6,7-2.9,10.7-3.5c0.1,0,0.2,0.1,0.2,0.2C271.3,320.9,267,322.4,261.9,322.8z"/>
	<path d="M228.8,299.6c-0.2,0.3-0.3,0.7-0.5,0.8c-2.7,1-5.4,1.9-8.1,2.9c-0.2,0.1-0.4-0.1-0.8-0.2c0.1-0.3,0.1-0.7,0.3-0.8
		C222.7,301,225.6,299.8,228.8,299.6L228.8,299.6z"/>
	<path d="M214.7,310.1c1.4-1.4,3.2-2.2,5-2.9c0.6,0.7,0.1,1-0.2,1.2c-1.2,0.9-2.3,1.7-3.6,2.5C215.3,311.3,214.9,311,214.7,310.1z"
		/>
	<path d="M303.5,290.6c0-0.3-0.1-0.7,0-1c0.3-1.3,0.7-2.6,1.2-3.8C305,287.6,304.9,289.3,303.5,290.6L303.5,290.6z"/>
	<path d="M306.8,297.5c-0.3,2.4-0.8,3.5-2.1,4.8l0.1,0.1C305.1,300.6,305.7,298.9,306.8,297.5L306.8,297.5z"/>
	<path d="M209,334.8c-0.9,0-1.7,0-3.1,0C207.3,333.8,208.1,334,209,334.8z"/>
	<path d="M206.1,339.8c0.7,0,1.5,0,2.3,0C207.6,340.9,206.8,340.2,206.1,339.8z"/>
	<path d="M304.7,302.3c0.1,0.8,0.3,1.7-0.6,2.2l0.1,0.1C304.1,303.7,304.1,302.9,304.7,302.3L304.7,302.3z"/>
	<path d="M229.5,328.7c0.3-0.6,0.7-0.7,1.6-0.3C230.4,328.5,229.9,328.5,229.5,328.7L229.5,328.7z"/>
	<path d="M303.4,290.6c0,0.2,0,0.4,0,0.7c0,0.1-0.1,0.2-0.2,0.3c-0.1-0.2-0.3-0.4-0.2-0.5C303.1,290.9,303.3,290.8,303.4,290.6
		L303.4,290.6z"/>
	<path d="M247.6,320.4c0.1-0.2,0.2-0.4,0.3-0.5c0,0,0.2,0,0.3,0C248,320.1,247.7,320.2,247.6,320.4L247.6,320.4z"/>
	<path d="M247.5,320.3c-0.3,0.6-0.8,0.7-1.4,0.7l0.1,0.1C246.3,320.2,247,320.4,247.5,320.3L247.5,320.3z"/>
	<path d="M308.2,294.7c0,0.6,0.1,1.2-0.7,1.3l0.1,0.1C307.6,295.6,307.7,295.1,308.2,294.7L308.2,294.7z"/>
	<path d="M308.9,293.3c0,0.6,0.1,1.2-0.6,1.4l0.1,0.1C308.5,294.4,308.7,293.9,308.9,293.3L308.9,293.3z"/>
	<path d="M307.5,296.1c0,0.6,0.2,1.3-0.7,1.4l0.1,0.1C306.9,297,307,296.4,307.5,296.1L307.5,296.1z"/>
	<path d="M228.8,299.6c0.1-0.2,0.2-0.3,0.4-0.5c0,0,0.2,0.1,0.3,0.1C229.3,299.4,229,299.5,228.8,299.6L228.8,299.6z"/>
	<path d="M309,293.4c0.1-0.1,0.2-0.2,0.3-0.3c0,0.1-0.1,0.1-0.1,0.2C309.1,293.3,309,293.3,309,293.4L309,293.4z"/>
	<path d="M219.9,366.2c0.7,1,1.2,1.3,1.3,1.8c0.7,2.3,1.5,4.6,1.9,7c1.6,7.9,3.1,15.8,4.7,23.7c0.1,0.7,0,1.5,0,2.3
		c-0.7,0.2-0.9-0.2-1-0.7c-0.5-2.6-0.9-5.2-1.4-7.8c-1.3-6.6-2.7-13.3-4-19.9c-0.3-1.5-0.8-2.9-1.2-4.3
		C220,367.8,220,367.4,219.9,366.2z"/>
	<path d="M256.4,396.1c0.9,0.4,1.4,0.6,1.9,0.8c0.6-0.1,1.1-0.9,0.8-1.3c-0.4-0.5-1-0.9-1.5-1.4c-0.3-0.3-0.1-1,0.3-1.2
		c1.2-0.5,2.5-0.3,3.1,0.6c1.6,2.3,0.1,5.7-2.7,6c-0.9,0.1-1.6-0.2-2.1-0.9c-0.2-0.4-0.4-0.8-0.4-1.3
		C255.8,397.1,256.1,396.7,256.4,396.1z"/>
	<path d="M139,403.3c-0.6-1.1-1-1.5-1.2-2c-0.5-2.1-1-4.3-1.4-6.4c-0.1-0.6,0.1-1.1,1-1.2c1,2.3,1.2,4.8,1.7,7.3
		C139.2,401.5,139.1,402.1,139,403.3z"/>
	<path d="M100.2,365c1.2-2.3,3.1-3,4.9-3.8c0.6,0.4,0.6,0.8,0.3,1.2c-1,1.3-2.3,2.1-3.8,2.8C101.3,365.3,100.9,365.1,100.2,365z"/>
	<path d="M64.3,410.4c2.1-0.7,3.8,0,5.5,0.8c0.1,0.8-0.3,1.1-0.7,1c-1.5-0.2-2.9-0.5-4.3-0.9C64.6,411.3,64.5,410.8,64.3,410.4z"/>
	<path d="M98.2,386.1c0,0.2,0.1,0.5,0,0.6c-1,1-2.4,1.1-3.7,1.3c-0.3,0-0.7-0.2-1.2-0.4C95.1,386.1,95.5,385.9,98.2,386.1z"/>
	<path d="M101.6,382.5c1.7,2,2.9,3.4,4.2,5c-0.4,0.1-0.7,0.3-0.9,0.2c-1.5-0.7-2.5-1.9-3.2-3.4C101.6,384,101.7,383.5,101.6,382.5z"
		/>
	<path d="M125.2,383.4c-2.7,1.1-3.3,1.1-5.5,0.1c0.1-0.2,0.1-0.5,0.2-0.5c1.3-0.1,2.7-0.2,4-0.2
		C124.3,382.8,124.7,383.1,125.2,383.4z"/>
	<path d="M40.8,379c0,0.1,0,0.2,0,0.3c0,0.1-0.1,0.2-0.1,0.3c-1.7,1.2-3.3,2.3-5,3.5c-0.1,0-0.2,0-0.3-0.1
		C35.9,381,37.6,379.8,40.8,379L40.8,379z"/>
	<path d="M98.1,367.7c-0.1,0.3-0.1,0.7-0.2,0.7c-1,0.3-1.9,0.5-2.9,0.6c-0.1,0-0.5-0.3-0.4-0.4c0-0.3,0.2-0.7,0.4-0.8
		C95.9,367.4,97,367.1,98.1,367.7z"/>
	<path d="M77.1,390c-0.3-0.1-0.6-0.1-0.9-0.2c-0.4-0.2-0.7-0.5-1.2-0.7c0.5-0.5,0.7-0.9,0.9-0.9C77.2,388.1,77.4,388.5,77.1,390z"/>
	<path d="M37,384c1.3,0.7,1.4,1,0.1,2.4C36.6,385.6,36.3,384.8,37,384z"/>
	<path d="M108.6,358.7c-0.4-0.3-0.8-0.4-0.9-0.6c-0.2-0.5,0.3-1.1,0.9-1c0.2,0,0.6,0.4,0.6,0.5C109.2,358,108.9,358.3,108.6,358.7z"
		/>
	<path d="M48.5,377.2c-1.6-0.8-1.6-1.1,0-2.3C48.5,375.7,48.5,376.4,48.5,377.2z"/>
	<path d="M91.1,387.8c-0.4,0.3-0.7,0.6-0.9,0.6c-0.2,0-0.5-0.4-0.7-0.5c0.2-0.2,0.5-0.4,0.7-0.5C90.4,387.4,90.7,387.6,91.1,387.8z"
		/>
	<path d="M110.4,355.9c0.1-0.8,0.6-1.2,1.3-0.9c0.2,0.1,0.4,0.6,0.3,0.8C111.5,356.5,111,356.5,110.4,355.9z"/>
	<path d="M115.6,380.3c0.3,0.2,0.5,0.4,0.7,0.6c-0.2,0.2-0.4,0.6-0.6,0.6c-0.5,0.2-1.1-0.3-0.9-0.7
		C115,380.7,115.3,380.6,115.6,380.3z"/>
	<path d="M39.2,388c-0.4,0.1-0.6,0.2-0.8,0.3c-0.1-0.3-0.2-0.6-0.2-0.9c0,0,0.5-0.2,0.5-0.1C39,387.4,39.1,387.7,39.2,388z"/>
	<path d="M86,388.9c0.5-0.2,0.8-0.4,1.1-0.5c0,0.2,0.2,0.4,0.1,0.5C87,389.4,86.6,389.4,86,388.9z"/>
	<path d="M41.3,392c-0.1-0.2-0.3-0.3-0.3-0.5c0-0.1,0.2-0.3,0.3-0.4c0.1,0.1,0.2,0.2,0.2,0.3C41.4,391.7,41.3,391.9,41.3,392z"/>
	<path d="M97.8,379.1c0.1,0.1,0.2,0.3,0.3,0.4c-0.2,0.1-0.3,0.2-0.5,0.2c-0.1,0-0.1-0.1-0.2-0.2C97.5,379.4,97.6,379.3,97.8,379.1z"
		/>
	<path d="M107.5,387.6c0.1,0,0.2-0.1,0.3-0.1c0,0.1,0,0.2,0.1,0.3c-0.1,0-0.2,0-0.3,0C107.5,387.8,107.5,387.7,107.5,387.6z"/>
	<polygon points="40.9,379.1 41.1,378.9 40.8,379 	"/>
	<path d="M355,321.1c1.3,0.6,1.6,2.1,2,3.2c1.8,4.2,2.1,6.6,1.5,9.9c-0.8-0.1-0.7-0.7-0.8-1.2c-0.4-2-0.6-4-1.1-6
		c-0.4-1.4-1.1-2.8-1.6-4.1C354.8,322.3,354.4,321.8,355,321.1z"/>
	<path d="M371.2,386.9c2.1,0.9,2.1,2.9,2.5,4.6c0.3,1.1,0.5,2.3-0.5,3.2c-0.3-0.1-0.6-0.2-0.6-0.3
		C371.8,392,371.6,389.5,371.2,386.9z"/>
	<path d="M349.9,297.3c-2.5,1-5,1-7.6,1.2c0.1-0.4,0.2-0.7,0.3-0.8C345,297.1,347.4,296.6,349.9,297.3z"/>
	<path d="M358.6,290.5c-1.3-0.8-2.4-1.7-3-2.9c0.3-0.7,0.7-0.7,1.1-0.4C357.7,288,358.6,289,358.6,290.5z"/>
	<path d="M358.5,340.5c-1.3-0.3-1.1-1.3-1-2.2c0-0.6,0.3-1,1.1-0.9C359.2,338.5,359.2,339.5,358.5,340.5z"/>
	<path d="M351.8,307.4c-1.3,0.7-2.3,0.9-3.4,0.2c-0.1-0.6,0.2-1,0.7-1C349.9,306.4,350.9,306.3,351.8,307.4z"/>
	<path d="M370,382.3c0.7,0.5,0.9,1.1,0.4,2.1C369.7,383.7,369.5,383.1,370,382.3z"/>
	<path d="M331.3,300.2c0.3-0.4,0.5-0.7,0.7-0.8c0.2-0.1,0.5,0.1,0.8,0.1c-0.1,0.2-0.2,0.6-0.4,0.7
		C332.2,300.3,331.8,300.2,331.3,300.2z"/>
	<path d="M359.6,345.4c0.4,0.5,0.8,0.8,0.7,1c-0.1,0.4-0.4,0.7-0.6,1.1c-0.2-0.2-0.6-0.4-0.6-0.7
		C359.2,346.5,359.4,346.1,359.6,345.4z"/>
	<path d="M368.1,374.2c-0.1,0.3-0.2,0.5-0.3,0.6c-0.2-0.1-0.6-0.2-0.7-0.4c-0.1-0.2,0.2-0.5,0.3-0.7
		C367.6,373.8,367.8,374,368.1,374.2z"/>
	<path d="M368.8,379.3c-0.2-0.1-0.3-0.2-0.5-0.3c-0.1,0-0.1-0.2-0.1-0.3c0.1-0.1,0.3-0.1,0.3-0.1C368.6,378.8,368.7,379,368.8,379.3
		z"/>
	<path d="M360.5,350.3c-0.1-0.1-0.4-0.3-0.4-0.4c0.1-0.3,0.3-0.5,0.4-0.7c0.1,0.2,0.3,0.4,0.3,0.5
		C360.8,350,360.6,350.1,360.5,350.3z"/>
	<path d="M359.3,343.1c0,0.1-0.1,0.2-0.1,0.3c-0.1-0.1-0.2-0.3-0.2-0.4c0,0,0.1-0.1,0.2-0.2C359.2,342.9,359.2,343,359.3,343.1z"/>
	<path d="M354.3,307.6c0,0.1,0.1,0.2,0.1,0.3c0,0.1-0.1,0.2-0.2,0.3c0-0.1-0.1-0.2-0.1-0.3C354.2,307.7,354.3,307.6,354.3,307.6z"/>
	<path d="M187,359.1c1.1,2.4,1.2,4.4,1.4,6.4C187.3,363.7,186.3,361.9,187,359.1z"/>
	<path d="M419,386.8c-1,2-2.4,3.3-3.8,4.5c-0.2,0.2-0.7,0-1.4,0c0.3-0.7,0.4-1.1,0.7-1.4c1.1-1.1,2.3-2.2,3.5-3.2
		C418,386.6,418.3,386.7,419,386.8z"/>
	<path d="M421.5,392.3c1.6,1.4,1.7,3.6,2.8,5.3C422.5,395.6,422.1,394.9,421.5,392.3L421.5,392.3z"/>
	<path d="M409.7,398.7c-0.6-1.6-1.1-3.2,0.8-5.1c-0.3,1.2-0.4,1.7-0.5,2.2c-0.1,0.4,0,0.9-0.1,1.4
		C409.9,397.6,409.8,398.2,409.7,398.7z"/>
	<path d="M418.3,395.2c-0.4-0.6-0.8-1.2-1.2-1.9c0.8-0.3,0.9,0.2,1,0.6c0.2,0.4,0.3,0.8,0.5,1.1
		C418.5,395.2,418.4,395.2,418.3,395.2z"/>
	<path d="M421.6,392.2c-0.9-0.7-1.1-1.6-1.3-2.8C421.5,390.2,421.6,391.2,421.6,392.2L421.6,392.2z"/>
	<path d="M275.8,407.8c-0.1,0.2-0.3,0.6-0.5,0.7c-0.3,0.1-0.8,0.1-1-0.1c-0.5-0.4-1-0.9-1.3-1.5c-0.1-0.3,0-1,0.3-1.2
		c0.3-0.2,0.9-0.4,1.2-0.2C275.5,405.8,275.9,406.6,275.8,407.8z"/>
	<path d="M287.7,412.4c0.8-0.1,1.4,0.4,1.3,1c-0.1,0.4-0.4,0.8-0.7,1c-0.5,0.3-1.2-0.3-1.2-0.8C287.2,413.1,287.6,412.7,287.7,412.4
		z"/>
	<path d="M391.3,431.4c1.6,3.5,1.4,6.8,1.7,10.1c0,0.3-0.3,0.7-0.6,1.1c-0.3-0.3-0.6-0.5-0.6-0.6c-0.4-3.3-0.7-6.6-1.1-9.8
		C390.8,432.1,390.9,432,391.3,431.4z"/>
	<path d="M35.3,409.4c0.2,2.3,0.2,4.7-0.2,7c-0.3-2-0.3-4-0.1-6C34.9,410,35.2,409.7,35.3,409.4L35.3,409.4z"/>
	<path d="M25.1,411.8c-0.8-1.4-0.8-1.7,0.1-2.5c0.4-0.4,0.8-0.3,1.1,0.1c0,0.2,0,0.5-0.1,0.6C25.9,410.6,25.6,411,25.1,411.8z"/>
	<path d="M29.6,407.7c0,1.1,0,1.1-1.2,1.6C28.6,408.3,28.6,408.3,29.6,407.7z"/>
	<path d="M302.7,340.8c-0.1,0.9-0.7,1.6-1.5,1.6c-0.8,0-1.6-0.8-1.6-1.5c0-0.7,1.1-1.5,2-1.6C302.1,339.3,302.8,340.1,302.7,340.8z"
		/>
	<path d="M299.8,352.2c-0.8-0.1-1.5-0.9-1.3-1.7c0.2-0.6,0.9-1,1.6-0.9c0.8,0.1,1.3,0.6,1.3,1.3
		C301.4,351.7,300.6,352.3,299.8,352.2z"/>
	<path d="M329.7,390.1c-0.9,0-1.7-0.1-2.6-0.1c0.2-1.3,0.6-1.7,1.3-1.6c0.9,0.1,1.2,0.5,1.2,1.9L329.7,390.1z"/>
	<path d="M330.4,393.5c-0.8,0.4-1.2,0.7-1.7,0.8c-0.6,0.1-1.2-0.4-1.1-0.9c0.1-0.6,0.6-1,1.2-0.9C329.2,392.6,329.6,393,330.4,393.5
		z"/>
</g>
</svg>
