<?xml version="1.0" encoding="utf-8"?>
<!-- Generator: Adobe Illustrator 19.1.0, SVG Export Plug-In . SVG Version: 6.00 Build 0)  -->
<svg version="1.2" baseProfile="tiny" id="Layer_2" xmlns="http://www.w3.org/2000/svg" xmlns:xlink="http://www.w3.org/1999/xlink"
	 x="0px" y="0px" width="900px" height="600px" viewBox="144 97 900 600" xml:space="preserve">
<g>
	<path d="M735.1,415.8c-2.4,2.4-2.6,5.6-3.6,8.6c-0.9,2.6-1.3,5.4-2.9,8.1c-1-3.2-0.6-5.5,1.9-12.7c1.4-4.1,2.7-8.2,4-12.4
		c-4.1-7.3-6.1-15.3-8.5-22.8c-10.8-0.1-21.3,0.7-32.1,1.6c-1.4,5.9-4.7,11.4-6.8,17.4c-0.8,2.4-0.6,4.1,0.7,6.5
		c2.9,5.2,4.7,10.9,6.3,16.7c0.2,0.9,0.2,1.9,1.2,3.1c10.1,0.8,20.6-0.5,31.1,0.5c-10.9,3-21.9,1-33,1c-2.7-8.2-5.7-16-8.9-23.8
		c-0.6-1.4-0.2-2.7,0.3-4.1c1.4-4.7,3.3-9.3,5.6-13.6c1.8-3.4,2.2-6.9,1.5-10.4c-1.2-6-0.7-11.5,1.8-17.4c2.2-5.3,4.1-10.9,6.5-16.2
		c1.1-2.4,1.3-5.2,3.2-7.5c-3.1-5.4-4.5-11.4-4.8-17.7c-0.1-1.4-0.3-2.8-0.1-4.2c0.2-1.9,0.3-3.6-0.6-5.4c-0.8-1.5-0.6-3.4,0-5.3
		c-4-1.8-4.6-5.8-6.4-9c-2.5-4.4-4.2-9.2-7.3-13.4c-3.6-5-4.7-11.2-4.8-17.4c-0.1-4.8,0.3-9.7-0.2-14.4c-0.5-3.9-0.5-7.8-1.3-11.7
		c-0.8-4.5-1.1-9,1-13.4c0.8-1.7,0.8-3.9,1.5-5.7c1.6-4.4,4.1-8.2,7.8-11.1c4.4-3.4,8-7.6,11-12.2c1.8-2.7,4.1-4.8,6.7-6.6
		c2.4-1.7,4.8-3.3,7.2-5.1c2-1.5,3-3.2,2.4-6s-0.2-5.9-0.6-8.7c-1.2-7.4-2.2-14.9-4.1-22.2c-0.1-0.3-0.3-0.7-0.3-1
		c0.8-7.2-1-14.5,0.4-21.7c0.5-2.6,1.8-5,1.7-7.8c-0.1-1.6,1.8-2.3,2.7-3.2c0.2-1.5-1.8-1.3-1.7-2.6c1.8-2.6,5.6-2.4,7.5-4.9
		c0.9-0.2,1.3,0.9,2.3,1c1.9-2.3,4.4-3.4,7.3-3.6c2.4-0.2,4.9-0.1,6.2-2.4c1.9,0.3,0.6,1.5,1.2,2.1c0.9,0.4,1.8,0.2,2.6-0.1
		c1.5-0.6,3.2-0.7,4.5-0.2c4,1.6,7.7,1,11.4-0.7c0.6-0.3,1.4-0.3,2,0.4c0.6,0.9-0.6,1.3-0.8,2.3c3.5-0.1,7-0.1,10.2,1.5
		c1,0.6,0.8,1.8,1.2,3c1.4-0.9,1.6-2.7,3.4-3.5c0.9,0.9,1.7,2.2,3.1,2.3c0.4,1.5-1.3,1.4-1.4,2.6c1.5,0.2,2.8-1,4.3-1
		c0.9,0.3,1.5,0.9,2,1.8c-1,8.1-1,8.1-10.2,10.7c-0.5,3.3,0.8,6.3,1.8,9.4c0.8,2.7,1.1,5.3-1.6,7.4c1.1,2.9,2.2,5.9,3.5,8.7
		c2.1,4.3,2,4.8-1.7,7.6c-0.4,1.7,1.5,4.1-1.6,4.9c1,2.2,1.2,4.2-0.2,6.1c-0.5,0.7-1.1,1.5-0.7,2.2c1.4,2.6,0.2,5-0.8,7.4
		c-3.2,1.6-6.9,1.1-10.5,1.7c-3.6,0.5-4.6,1.7-4.4,5.3c0.2,3.9,1,7.7,0.4,11.6c-0.1,0.9,0.2,1.5,0.7,2.2c1.7,2.7,4.2,4.8,6.3,7.1
		c0.9,0.9,2.1,1.2,3.2,1.2c4.3,0.1,7.9,1.3,11,4.5c1.8,1.9,4.6,2.6,6.6,4.5c6.3,6.1,8,13.9,8.6,22c0.6,7.9,2.1,15.4,5.7,22.6
		c3.8,7.5,7.2,15.2,8.7,23.6c0.4,2.5,1.4,5.1,3.3,7.2c5.7,6.4,7.9,14.2,8.6,22.6c0.5,6.7,1.6,13.3,2.5,19.9
		c0.9,6.8,0.2,13.6,0.3,20.4c0,3.8,0.6,7.4,1.9,11c1.2,3.5,2.2,7,0.7,10.6c-0.8,1.9,1,3.3,0.4,5.4c3.2-0.4,5.9-0.1,8.7,0.3
		c2.5,0.3,4,1.3,5,3.5c2.3,4.9,5.8,9.1,8.2,13.9c1,2,1.1,3.6,0.1,5.6c-2.9,5.9-5.7,11.8-8.6,17.9c-5.9,0.1-11.8,2-18.1,0.8
		c2.1-2.2,7-2.8,16.6-2.4c2.9-5.8,5.9-11.6,8.8-17.4c0.4-0.9,0.6-1.8,0-2.7c-3.6-5.5-6.2-11.5-9.5-17.3c-3.6-0.2-6.9-1.7-10.6-0.8
		c0,3.8,0.9,7.3,2.5,10.6c1.1,2.4,1.4,4.9,2.2,7.3s-0.5,4.5-2,6.1c-4.2,4.2-6.5,9.7-9.4,14.7c-0.1,0.2-0.3,0.4-0.4,0.5
		c-2.1-1.2-1.4-3-0.8-4.6c1.4-3.7,3.6-7.1,5.7-10.5c2-3,2.3-5.4,0.1-8.6c-2.4-3.6-4.3-7.5-6.3-11.4c-2.3-4.5-4-5.2-8.8-3.9
		c-3.6,1-7.2,0.4-10.8,0.6c-1.6,0.1-3.3-0.3-4.5,1.1c-0.6,1.2,0,2.1,0.4,3.1c1.6,3.9,3.3,7.8,4.9,11.6c1.3,3.1,1.5,6,0.7,9.2
		c-0.7,2.7-1.6,5.4-2.2,8.1c-0.4,2.1,0.4,3.3,2.5,3.3c3.6,0,7.2,0.8,10.8,0.1c0.3,0,0.7,0.1,1,0.2c2.2,1.5,5.1-0.4,7.3,1.4
		c-0.1,1.9-1.3,2.2-2.9,2.2c-3.4-0.1-6.8-0.1-10.2-0.2c-1,0-2.1-0.2-3.1,0.4c2.6,6.7,3.3,13.7,4,20.7c0.3,2.8,0.9,5.6,1.3,8.3
		c0.6,4.3,1.1,8.5,0.5,12.9c-0.8,5.6,1.2,10.9,2.2,16.3c0.2,0.9,0.7,1.7,0.1,3.1c-3.1,0.9-6,3.2-9.6,3.7c-1.2,4.4-2.1,8.6-0.3,12.9
		c0.5,1.2,0.2,2.5,0,3.8c-1.3,6.2-2.5,12.4-5,18.3c-0.7,1.7-1.2,3.6-0.9,5.5c1.4,11.6-1.2,22.8-3.8,34c-1,4.4-2.4,8.6-3.9,12.8
		c-4,11.2-6.5,22.7-7.2,34.6c-0.1,2.2-0.3,4.4-0.4,6.6c5.4-0.6,5.5-0.6,5.5,4.7c0,3.4,1.4,5.9,3.9,7.9c5.6,4.3,10.9,8.9,16.3,13.4
		c3.3,2.8,7.8,3.6,11.9,4.9c4.1,1.3,8.4,2.2,12.1,4.7c1.8,1.1,2.8,2.4,2.1,4.7c-0.6,2,0.7,3.9,0.8,6.1c-3.6,3.4-8.3,4.9-13,5
		c-9.1,0.1-18.2,1.5-27.4,0.5c-4.1-0.4-8.2,0-12.2-1.3c-0.6-0.2-1.3-0.1-1.7-0.4c-4.7-3.5-10-2.8-15.2-2.1c-4.1,0.6-8.2-0.5-12.7,0
		c4,4.1,6,8.6,3.4,14.8c-4.9,3.7-10.8,6.1-17.9,5.2c-5.6-0.7-11.1-1.8-16.8-0.7c-3.2,0.6-6.5,0.3-9.8-0.4c-2.5-0.5-5-0.7-7.7-0.5
		c-3.8,0.4-7.2-1.8-10.8-2.7c-6.7-1.6-13.4-3.2-20-4.8c-1.4-0.3-2.7-0.7-3.8-1.6c-1.1-0.9-1.6-2-0.8-3.4c1.1-2.1,2-4.2,3.2-6.2
		c2.8-4.6,4.4-9.4,4.4-14.9c0-3,0.8-6,2-8.9c1.3-3.1,3.3-4.9,6.8-4.9c0.8-2,0.4-3.9,0.4-5.9c0-9.8-0.9-19.7,0.3-29.5
		c1-7.5,0.3-15-0.9-22.4c-1.2-8.2-1.5-16.5,1.1-24.4c2.6-8.1,3.4-16.7,6.3-24.8c1.6-4.6,3.8-8.7,6.5-12.7c4.8-7.2,9.3-14.7,8.3-24
		c0-0.3-0.1-0.7-0.2-1.2c-1.7-0.4-3.3,0.8-5.1,0.5c-1-1.1-0.6-2.4-0.4-3.6c1.9-11,1.6-22.2,1.4-33.3c-0.2-6.6-1.4-13.3-0.7-20
		c0.1-0.8-0.2-1.7,0.7-2.2c1.2,0.2,0.9,1.3,0.8,1.9c-0.7,14,2.1,27.8,1.9,41.8c-0.1,4-1.8,7.6-1.8,11.6c0,0.5-0.2,0.9,0.3,1.6
		c1.5,0.3,3-0.6,4.5-1c3.2-0.8,6.5-1,9.8-1.2c1.3-0.1,2.6,0,3.5-1.2l0.2-0.2c1.5,0.6,3.1,0.9,4.8,0.7c6-1,11.9-0.1,17.8,1.1
		c5.3,1.1,10.7,1.1,15.9,2.4c1.1,0.3,2.3,0.2,3.7-0.3c-0.6-2.7-1.1-5.3-1.8-7.9c-0.6-2.4-0.8-4.9-0.7-7.3
		c0.5-15.6-1.3-31.2,1.5-46.7c1.6,0.6,1.4,2.3,1.3,3.6c-0.9,12.1,0.1,24.1,0.2,36.2c0.1,5.5-0.6,11,0.9,16.4c1.1,3.9,1.1,4,5.2,3.3
		c8.3-1.4,16.6-0.6,24.9-0.7c4.4,0,8.8,0.2,12.6-2.9c0.7-0.5,1.8-0.5,2.9-0.9c-3.4-19.6-3.1-39.7-7.2-59.5c-2.9,0.3-5.6-0.8-8.6-0.2
		c-0.7,3.3-3.4,3.7-6.3,3.9c-6.8,0.5-13.7,0.4-21.2-0.4c6,8,9.2,16.5,11.2,25.6c-3.7-9-6.2-18.5-13.2-25.9c-2.1-0.3-4.3-0.3-6.5,0.4
		c-2.8-2.6-4-6.2-6.6-9.3c3.4-3.6,8.1-5.9,10.7-10.7c-1.2-5.9-4.3-11.3-7.2-16.8c-2.6-4.9-4.8-9.8-4.7-15.6c0.1-3-1.1-5.7-1.9-8.5
		c-0.6-2.2-1.3-4.5-2-6.7c-1.3-4.1-2.2-8.2-4.1-12.2c-2.7-5.5-3.8-11.6-4.4-17.9c-0.4-4.8-2.1-9.6-2.2-14.5
		c-0.1-3.7-0.5-7.2-1.5-10.7c-0.9-3.2-1.8-6.3-3.7-9c-1.6-2.3-1.9-4.8-1-7.3c1.1-2.8,1.1-5.7,0.9-8.6c-0.2-3.1-0.1-6.1,0-9.1
		c0.1-5,0.4-10-1.8-14.8c-1.1-2.5-1.1-5.5-1.6-8.4c2.5-2.8,3.1-6.9,6.2-9.4c-0.8,3.4-1.7,6.7-4.4,9.6c1.5,4.5,5.9,7.1,8.4,11.1
		c5.5-15.3,2.8-29.3-6-42.4c-0.2,0-0.3-0.1-0.3-0.1c-0.6,0.7,0.7,1.2,0,2c-1.1,0.3-1.1-0.8-1.4-1.5c-0.9-2.5-2.4-4.8-3.6-7.2
		c-3.8-7.8-10.1-11.3-18.8-11.9c-3.8,3.1-5.6,8.4-10,11.2s-7.5,6.6-10.9,10.7c0.9,1.2,0.5,2.4,0.1,3.8c-2.1,6.3-3.4,12.5-1.3,19.2
		c0.8,2.7,0.3,6,0,8.9c-0.8,7.9,0,15.8,2,23.3c1.2,4.5,3.1,9.1,5.9,13c4.3,5.8,5.5,13.2,10.1,18.8c1.3,1.6,1.2,4,0.8,6
		c1,1.2,3.2,1.2,2.6,3.5c-0.7,0.6-1.1-0.5-1.9-0.4c-0.9,2.1-0.9,4.4-0.5,6.7c1.9,12.3,7.9,22.6,15.5,32.2c4.2,5.2,7.9,10.8,12,16.1
		c3.3,4.2,5.1,8.5,2.2,13.7c-0.5,0.9-0.6,2-0.8,2.5c1.7,8.4,6.7,15.4,7.2,23.7c1.6-2.2,4.3-3.6,6.8-5.3c1.6,1.6,0.1,2.1-0.9,2.8
		C739.3,409.8,736.5,412.2,735.1,415.8L735.1,415.8z"/>
	<path d="M495.1,671.7c-0.8,1.4-1.4,2.6-2.1,3.6c-1.3,1.9-1.6,4.8-4.1,5.5c-3.7,1-7.4,2.2-11.4,1.4c-6.7-1.3-13.6-0.4-20.2-1.8
		c-0.4-0.1-0.6,0.8-1,0.5c-1.8-1.2-2.6-3-4.2-4.4c-2.7,4-5.5,7.8-7,12.5c-7.2,2-14.6,2.8-22.1,2c-3.5-0.4-7-0.6-10.5-0.7
		c-2.2,0-3.5-0.9-4.4-2.8c-1-2.1-2.1-4.1-3.4-6.5c-1.5,1.4-2.8,0.3-4.1-0.3c-2.9-1.3-5.9-2.1-9.1-0.9c-2.2,0.8-4.7,0.7-7,0.1
		c-6.3-1.7-12.6-3.5-18.5-5.1c-0.9-1.2-0.4-1.9-0.1-2.7c1.7-4,3.3-8,5.7-11.7c2.5-3.8,3.1-7.9,3.3-12.3c0.3-4.2,2.2-8.4,5.7-10.4
		c2.5-1.4,6-2.2,9.2-1.5c7.8-16.1,15.9-32,25.2-48.1c-6.7,1.2-12.6,2.5-18.3,4.3c-2.2,0.7-4.3,1-6.6,0.7c-5.5-0.8-11.1,1-16.6-0.1
		c-1-0.2-0.2,1-0.9,1.2c-2.2-1.5-5-2-7.6-3c-11.9-4.6-19.7-12.4-20.8-25.7c-0.2-2.3-0.7-4.6-1.4-6.9c-0.7-2.1-0.6-4.4-0.2-6.6
		c0.8-4.5,0.6-9.1,1.2-13.6c0.8-6,0.9-12.6,7.3-16.2c1.6-0.9,2.4-2.5,3.1-4.2c1-2.7,2.7-4.9,4.2-7.4c1.3,0.1,2.6,0.1,3.1-0.2
		c4.2-5.4,7.5-10.6,10.1-16.3c0.3-0.6,0.9-1.1,1.4-1.6c6.8-6,12.1-13.3,17.1-20.8c4.6-6.9,10.3-12.7,17-17.7c3.9-2.9,7-6.6,10.3-10
		c4.3-4.3,9.4-7.7,13.4-12.4c1.3-1.6,3.3-2.7,5.3-3.3c4.1-1.2,7.4-3.7,10.1-6.6c3.8-4,8.6-5.9,13.4-8.1c2.2-1,4.6-1.8,6.8-2.9
		c2.1-1,4.2-1.8,6.6-2.1c5.4-0.7,8.1-5.2,6.2-10.4c-0.6-1.8-0.1-3.5-0.2-5.2c-0.1-4.5-2.6-8.5-2.8-13c-0.1-1.8-0.7-3.7-0.5-5.6
		c0.9-5.7-0.9-11.4-0.1-17.1c0.5-3.8,2.2-7.3,2.3-11.2c0-1.6,1.8-2.3,2.8-3.1c0.4-1.8-1.9-1.4-1.9-3c1.9-1.3,3.6-3.3,6.6-3.1
		c0.4-0.5,0.4-1.6,1.4-2c1.1-0.4,1.4,1.1,2.6,1.1c2.3-3,5.7-3.9,9.3-3.9c2.3,0,3.9-1.3,5.2-2.6c1.5,0.6,0.4,1.6,1,2.3
		c1.1,0.6,2.2,0,3.3-0.2c1.6-0.3,3.4-0.5,4.9,0.1c3.7,1.6,7.2,0.9,10.7-0.6c0.8-0.4,1.8-0.7,2.6,0c0.7,0.9-0.3,1.6-0.3,2.5
		c3.6,0.1,7.2-0.1,10.5,1.7c1,0.7,0.7,2.1,1.5,3c1.1-1,1.5-2.7,3.2-3.5c1.1,0.9,1.8,2.5,3.5,2.5c0.2,1.4-1.3,1.5-1.6,2.6
		c1.7,0.4,3-1,4.6-0.9c1.8,0.7,2.4,2,1.9,3.9c-0.3,1-0.1,2.1-0.2,2.9c-0.2,1.6-0.6,3.7-2.9,4.2c-2.5,0.6-5,1.4-7.6,2.1
		c-0.5,3.6,1,6.8,2,10.1c0.8,2.8,1.3,5.5-1.7,7.7c1.3,3.2,2.5,6.5,4,9.6c2,4.1,1.9,4.9-1.8,7.5c-0.7,1.3,0.4,2.5,0,3.8
		c-0.2,1.1-1.6,1-2,2c1.4,2,1.3,4.1-0.2,6.1c-0.5,0.7-1.1,1.5-0.7,2.3c1.4,2.8,0.2,5.4-0.6,7.9c-3.2,1.5-6.7,1.2-10.2,1.7
		c-4.4,0.6-6.8,2.1-7.1,6.3c-0.3,3.3-2.4,5.2-3.8,7.9c2,2.4,3.5,5.2,4.5,8.4c0.5,1.6,1.5,2.9,2.8,4c3.7,3.2,7.3,6.6,10.7,10.1
		c5.2,5.3,8.2,11.9,7.9,19.7c-0.1,1.6-0.1,3.2,0.4,4.8c0.7,2.5-0.3,5-1.6,7c-2.2,3.6-1.5,7.3,0.2,10.4c3.6,6.6,3,13.4,1.8,20.2
		c-0.5,2.6-0.4,5,0.3,7.6c1.3,4.7,2.5,9.5,3.7,14.3c1,4.3,0,8.7-0.7,12.9c-0.7,4.5,0,8.9,0.2,13.3c0.3,11.5-0.3,23-2.2,34.3
		c-0.8,5.1-0.5,10.3-0.9,15.4c-0.3,3.7-0.7,7.5-2.2,11.4c8.1,0.6,15.2,5,23.5,4.2c4,6.8,5.9,14.3,8,21.7c0.2,0.7,0,1.4-0.3,2
		c-2.7,5.2-4.6,10.8-7.9,15.6c-1.5,2.2-3.1,3.4-5.9,3.8c-4.1,0.5-8.1,1-12.2,1.2c-1.3,0.1-2.5-0.1-3.8-0.5c-4.1-1.3-8.3-2.5-13-2.6
		c-1.1,1.2-1.7,3-2.4,4.7c-1.2,2.9-3.5,4-6.4,4.8c-6.4,1.7-12.7,0.3-19-0.3C499.9,673.2,497.6,672.9,495.1,671.7z"/>
	<path d="M714.1,291.7c1.2,1.2,0.5,2.4,0.6,3.5c0.2,3.8,1.7,6.8,4.9,8.7c3,1.8,4.9,4.6,5.7,9.2c-1.4-2-2.6-3.3-3.4-4.8
		c-1.6-2.7-4.1-4.4-6.9-5.7C709.8,300.3,709.3,295.3,714.1,291.7z"/>
	<path d="M747.5,407.3c0.4,2.4-1.7,3.2-3,4.3c-1.5,1.2-2.6,2.5-3,5c5.3-1.3,7.4-6.7,12.2-8.1c-3.8,3.3-6.5,7.7-10.9,9.9
		c-1.6,0.2-2-1.1-3-1.5c-1.6-0.4-4.3,3.7-4.7-1.2l-0.1,0.1c2.6,0.5,4.3-0.4,5.9-2.5C742.7,411,745,409.1,747.5,407.3L747.5,407.3z"
		/>
	<path d="M833.3,402.2c0.8,0,1.1,0.5,0.8,1.1c-2.8,5.3-4.8,11.1-8.2,16.1c-0.1,0.1-0.4,0.1-0.9,0.2
		C827.4,413.4,830.5,407.8,833.3,402.2L833.3,402.2z"/>
	<path d="M716.6,486.5c-3.6-1.1-5.6-3.9-7.4-7.4c-0.8,1.9,0,3.7-0.6,5.6c-0.2-2.8-0.4-5.4-0.5-7.9v0.1c0.6-0.1,1.1-0.3,2.1-0.5
		c0.5,4.6,4.3,6.7,6.8,9.9L716.6,486.5z"/>
	<path d="M685.9,227.4c3,2.4,3.1,5.7,5,8.6C687.3,234.5,685.4,231.3,685.9,227.4z"/>
	<path d="M715,304.1c0.6,3.8,1.8,7.4,2.9,11.2C715,312.9,713.5,307.4,715,304.1z"/>
	<path d="M833.4,402.1c-2.3-4.1-4.1-8.5-5.4-13c2.4,3.5,3.9,7.5,5.5,11.4C833.7,401,833.6,401.6,833.4,402.1L833.4,402.1z"/>
	<path d="M710.4,320.5c1.6,3.1,2.4,6.4,4.2,9.8C711.7,328.2,710.5,325.3,710.4,320.5z"/>
	<path d="M707.7,434.1c0.9,0.5,0.8,1.2,0.8,1.7c0,3.9,0,7.8,0,11.4C708.9,443.1,707.3,438.8,707.7,434.1z"/>
	<path d="M720.2,343.8c-1.6-3.5-3.1-7-4.8-10.8C717.5,334.5,720.5,340.8,720.2,343.8z"/>
	<path d="M714.5,411.9c-1.2,4-2.4,8-3.6,12.1c0.1-4.4,1.7-8.3,2.9-12.4C714.1,411.7,714.3,411.8,714.5,411.9z"/>
	<path d="M725.5,327.7c-1.3,0.4-2-0.5-2.4-1.4c-1.1-2-2-4.1-2.7-6.3c1.5,0.7,2.2,2,2.5,3.4C723.3,325.2,724.2,326.5,725.5,327.7
		L725.5,327.7z"/>
	<path d="M734.7,381.2c-0.7-2.1,2.5-3.4,1-5.5C737.8,378.1,737.6,379.1,734.7,381.2z"/>
	<path d="M756,431.4c-1.6,1.6-3.5,3.2-4.9,5.3C752.8,434.9,754.4,433.2,756,431.4z"/>
	<path d="M703.2,205.6c3.2,0,4.5,1.7,5.9,3.3C707.2,208.2,705,208,703.2,205.6z"/>
	<path d="M706.8,201.6c2.1-0.4,3.9-0.9,6,0.9C710.5,202.6,708.7,203.3,706.8,201.6z"/>
	<path d="M692.8,235.6c1.3,1.4,1.8,2.7,1.9,4.4C691.7,238.3,691.6,238,692.8,235.6z"/>
	<path d="M711.5,397.4c-1.7-1.8-2.7-4-3.3-6.4C709.6,393,711,395,711.5,397.4z"/>
	<path d="M707.9,318.5c-1.1-1.5-2.2-3-3.5-4.9C707.5,315.2,707.7,315.6,707.9,318.5z"/>
	<path d="M735.1,374c-0.9-1.8-1.5-3.7-2.5-5.4C734.3,370,735.5,371.6,735.1,374z"/>
	<path d="M725.4,327.7c1.1,2.2,3,4.1,3,6.8C727.6,332.2,725,330.6,725.4,327.7L725.4,327.7z"/>
	<path d="M761.1,455c1.8,0.9,3,2.2,3.7,4C763.1,458.2,761.8,456.9,761.1,455z"/>
	<path d="M685.8,223.9c-1-1.5-0.8-2.5,0.3-3.6C686.5,221.5,686.8,222.5,685.8,223.9z"/>
	<path d="M695.5,211.3c1.6,1.1,1.9,2.2,2.3,4C696.5,214,695.7,213.1,695.5,211.3z"/>
	<path d="M769.8,483.9c-1.5,0.2-2.8,0.3-4.3-0.1C767.1,483.7,768.3,483.6,769.8,483.9z"/>
	<path d="M720,408.5c1.3,0,2.6,0,4.6,0C722.7,409,721.3,409.2,720,408.5z"/>
	<path d="M713.4,402.2c1.1,1.5,1.7,2.8,1.7,4.4C714,405.5,713.2,404.2,713.4,402.2z"/>
	<path d="M705.7,249.9c-1.7-0.7-2.2-1.7-3.4-2.6C704.3,247.6,704.3,247.6,705.7,249.9z"/>
	<path d="M795.1,460.1c-0.8-1.6-0.4-2.8,0-4.7C795.5,457.3,795.7,458.5,795.1,460.1z"/>
	<path d="M722,223.5c-0.3-0.9-0.2-1.8,0-2.7C722.3,221.7,722.3,222.6,722,223.5z"/>
	<path d="M711.9,460.4c1.3-0.1,2,0.6,3.2,1.9C713.5,461.8,712.5,461.6,711.9,460.4z"/>
	<path d="M797.2,428c-0.2-1.1-0.4-2.1-0.8-3.9C798,425.6,797.7,426.8,797.2,428z"/>
	<path d="M728.1,408c-0.3,0-0.7,0.1-1,0.1c0-0.1,0-0.1,0-0.2c0.3,0,0.6-0.1,1-0.1C728.1,407.8,728.1,407.9,728.1,408z"/>
	<path d="M747.6,407.4c0.4-0.7,0.8-1.3,1.8-1.3C749.4,407.8,748.6,407.9,747.6,407.4L747.6,407.4z"/>
	<path d="M697.5,242c-1,0.4-1.6,0.1-1.9-0.9C696.7,240.5,697.1,241.2,697.5,242z"/>
	<path d="M700.7,244.9c-1.3,0-1.7-0.4-2-1.1C699.9,243.3,700,244,700.7,244.9z"/>
	<path d="M745.7,441.5c-0.2,0.5-0.4,1-0.5,1.5C744.9,442.3,744.7,441.7,745.7,441.5L745.7,441.5z"/>
	<path d="M745.8,441.6c-0.5-0.9-0.1-1.4,1.3-2.4C746.4,440.4,746.1,441,745.8,441.6L745.8,441.6z"/>
	<path d="M708,476.8c0.2-0.6-0.5-1.2,0.1-1.9C708.4,475.6,708.1,476.3,708,476.8L708,476.8z"/>
	<path d="M749.6,400.9c0.9,0.9,0.2,1.1,0,1.6C749,401.8,749,401.4,749.6,400.9z"/>
	<path d="M730.6,348.2c-0.7-0.2-1-0.7-1-1.4C730.4,346.8,730.6,347.4,730.6,348.2z"/>
	<path fill="#FFFFFF" d="M766.5,236.6c0.4,2.9,0.7,5.5,1.1,8.1c1.3-2.8,0.1-5.6,0.6-8.6c2.2-0.5,4.3-1.3,5.6-3.4
		c1.4-2.2,0.7-4.5,0.2-6.8c-1.6-7-3.8-12.6-6.5-15.9c2.1-0.2,2.7,1.3,3.3,2.6c2.3,5.5,5.8,10.4,8.6,15.7c0.5,0.9,1.1,1.9,1.8,2.6
		c5.8,5.6,6.3,12.7,5.5,20.1c-0.5,4.7-1.7,9.3-4.1,13.4c-3.6,6.2-3.5,12.8-3.2,19.7c0.3,8.4,0.3,16.8-1.2,25.2
		c-0.5,2.4-1,4.8-0.9,7.3c0.3,8.2-0.9,16.4,0.7,24.6c0.1,0.8,0,1.6,0,2.5c-2.9,0-5.6,0-8.2,0c-0.6-1.3-0.2-2.1,1.1-2.2
		c-0.7-4.3-1.4-8.4-2-12.5c-0.2,0-0.5,0-0.7,0.1c-0.1,4.7,2,9.6-0.3,13.9c-4.9,0-9.9-0.2-14.9,0.1c-4.7,0.3-9.3-3.3-14.3-0.4
		c-1.8-2.6-1.5-5.8-2.2-8.6c-1.5-6.2-1.7-12.5-2.4-18.8c-1.2-12-1.3-12.4-7.2-22.9c1.2-5.4,2.6-10.6,2.5-16c0-2.8-0.5-5.7,2-8.1
		c-3.3-1.5-1.4-4.3-2-6.6c1.9,0.1,1.1,2,2.2,2.7c2.5-1.8,5.1,1,8.1,0.3c-1.5-1.7-3.4-2.6-4.3-4.5c1.1-3.1,2.6-6.3,3.1-9.8
		c2.5-16.4-3-30.4-12.9-43c-2.3-3-5.4-5.5-8.1-8.2c-2.1-2-5.2-1.8-7.9-2.6c-1.2-0.4-2.4-0.5-4.2-0.9c2-1.4,3.6-2.6,5.2-3.7
		c3.1,1.8,5.5,4.3,8.3,6.1c7.8,4.9,12.3,12.6,17.6,19.7c4.6,6.2,9.8,12,16.2,16.5c2.5,1.7,5.2,2.6,8.3,2.6
		C762.7,236.7,764.5,236.6,766.5,236.6z"/>
	<path fill="#FFFFFF" d="M748.7,492.2c2.3-0.3,3.4,0.4,3.9,2.4c1.4,5.7,3.1,11.3,4.5,16.9c0.5,2.2-0.2,4.4-0.5,6.6
		c-1.2,7.6-3.9,14.9-5.6,22.4c-2.9,13.1-2.9,26.3,0.8,39.3c1.2,4.1,1.3,8.2,0.9,12.5c-1,10.1-3.1,20.1-3,30.5
		c-4.7,1.1-5.8,4.8-6.1,8.8c-0.2,3.3-0.7,6.5-1.1,9.7c-0.9,5.9-3.1,11.4-6,16.6c-0.5,0.9-0.7,1.8,0,3.5c-6.2-4.5-12-7.8-15.8-13.7
		c-0.8-1.3-2.4-2.2-3.7-3.2c-2.7-2.1-4.6-4.6-5.1-8.1c-0.2-1.8-1.1-3.3-2-4.8c-1.1-1.6-2.4-2.9-4.9-2.9c0.4-6.8-0.7-13.6,2-20.1
		c2-5,3.3-10.2,4.3-15.6c1.8-10.4,5.4-20.4,8.6-30.4c2.8-8.8,4.5-18,8.3-26.5c0.4-0.9,0.4-2,1-2.6c5.3-5.1,6.5-12.8,11.5-18.2
		c1.6-1.7,2.4-3.9,2.2-6.1c-0.3-2.8,0.9-5.1,2.3-7.2C747.1,499.1,748.5,496,748.7,492.2z"/>
	<path fill="#FFFFFF" d="M755.6,355.3c0-1.5-1.6-2.5-1.5-4.1l-0.1,0.1c1.3-0.1,2.3-1,3.6-0.7c0.6-1.3-0.2-2.9,1-4.2
		c0.7,1.5,0.4,3.2,1.4,4.4c5.9,0,11.8,0.1,17.8,1.2c0.4,4.8,0.1,9.9,3.1,14.2c0.3-6.9-2.4-13.7-0.4-21.2c1.2,1.4,0.4,2.4,0.3,3.2
		c-0.1,2-0.3,4.1,2.2,4.9c0.9,4.1,2.9,7.8,5.2,11.2c1.1,1.7,2.2,3.4,2,5.5c0.2-2.1-0.8-3.7-1.9-5.4c-2.4-3.5-4.2-7.2-5.3-11.3
		c0.6-1.9,0.4-3.9,0.5-5.9c0.2-3.1,0.1-3.2-2.7-4.7c-1.2-6.8-1.5-13.5-1.4-20.3s0.2-13.5,2.5-20.2c1.7,0.9,2.5,3.2,5.3,3.2
		c-2-2.4-3.7-4.5-5.5-6.7c0.3-7.7-0.1-15.5-0.7-23.3c-0.2-2.7,1.2-5,2.3-7.3c2.9-6.1,5.7-12.3,6.9-19.2c1.6,2.5,1.8,5.3,2.8,7.8
		c5.9,14,10.5,28.5,17.9,41.9c3.3,6,4.8,12.5,5.1,19.5c0.4,7.8,2,15.6,2.3,23.4c0.3,6.4,0.1,12.9,1,19.3c0.3,2.3,1,4.6,1.8,6.8
		c0.2,0.6,0.3,1.2,0.3,1.7c-0.5,9,1,17.8,3.5,26.5c-3.3-5-6.2-10.2-8.9-15.2c-3.6-1-7-0.8-10.6-0.9c0.6-2.5,1.9-4.7,1.5-7.4
		c0.6,0.3,1.1,0.6,1.9,1c0.3-4-1-7.6-1.5-11.6c-1.8,1-0.4,2.8-1.5,3.9c-0.9-2.1-1.8-4.1-2.5-6.2c-2.4-7.1-6-13.7-9.3-20.4
		c-3.7-7.4-5.4-15.4-6.6-23.6c-0.5-3.3-1.4-6.5-2.2-10.4c-1.6,2.1-1.1,3.7-0.8,5.1c1.4,7,2.7,14,4.2,21c1.7,7.6,6,14,9.2,20.8
		c2.5,5.3,4.2,10.9,6.8,16.2c2,4,0.3,7.8-0.8,12c-9-0.7-18,0.8-27.5,0.3c-0.2-2.3-0.4-4.7-0.7-7c-0.1,0-0.2,0-0.3,0c0,2.2,0,4.4,0,7
		c-6.5,0-12.9,0-19.7,0c-1.8-3.4-4.4-6.8-7.8-9.6c-0.9-0.8-1.2-1.8-1.3-2.8c-0.4-4.2-1.6-8.3-2.9-12.3c-0.4-1.2-0.3-2.3,0.5-3.2
		c-3-2-2.9-5.9-5.4-8.2c2.8,1,3.6,3.5,5.1,5.6c2.1,0.3,4.6-1.1,6.3,1.4c0.3-0.5,0.5-0.8,0.8-1.2c1.3,2.1,2.4,4.3,4.4,5.8
		c0.2,0.1,0.4,0.2,0.5,0.3C755.7,355.7,755.6,355.5,755.6,355.3z"/>
	<path fill="#FFFFFF" d="M688.4,630.9c-1.7,3-2.2,5.9-2,8.9c-1.5,0.8-2.8,0.6-4.1-0.1c1.7-10.8-1-21.7,0.3-32.4
		c1.4-11.6,0.7-23.1,0.1-34.7c-0.3-6.2,0.5-12.3,1.9-18.4c1.5-6.6,2.2-13.4,3.8-20c1.4-6,4.5-10.9,7.7-16c4.1-6.5,7.9-13.3,8-21.4
		c0-1.9-0.2-3.7-0.7-5.8c14.4-2,28.6-4.2,42.8,0.7c-0.6,2.5-1.8,5.1-3.3,7.4c-1.6,2.4-2.5,5-2.4,7.9s-1,5.3-2.6,7.8
		c-2.3,3.6-4,7.6-6,11.4c-0.3,0.6-0.6,1.3-1.1,1.8c-5.4,5.3-8.3,11.9-9.4,19.1c-1.3,7.6-4.4,14.5-6.5,21.8
		c-4.4,15.7-9.8,31-12.6,47.1c-0.3,1.8-0.4,3.5-0.1,5.2c0.5,2.8,0.6,5.6,0.3,8.7c-3.4,1-7.2,1.9-7.1,6.5c-2.2,1.2-4.2,2.3-6.6,3
		C688.9,636.8,689.4,634.1,688.4,630.9z"/>
	<path fill="#FFFFFF" d="M754.9,493.5c2.3-0.8,4.3-0.4,6.1-0.7c1.2-0.5,1.1-1.6,1.7-2.6c10.9-3.2,22.1-0.7,33.2-1
		c0.2,0.3,0.4,0.5,0.4,0.6c-1.6,3.5-0.5,7.1,0,10.6c0.3,2.2-0.1,4.4-0.5,6.6c-1.2,6.8-3,13.4-4.9,20.1c-1.1,3.7,0.3,7.7-0.2,11.6
		c-1.7,12.1-3.5,24.1-7.8,35.6c-4.3,11.4-6.8,23.1-7.6,35.2c-0.2,2.8-0.7,5.6-0.2,8.4c-2,1.4-4.1,1.9-6.3,2.2
		c-1.6,4.2-3.5,5.2-10.1,5.2c-0.3-1.4-0.7-2.8-1-4.2c-0.1,0-0.3,0-0.4,0.1c-0.2,1.3-0.3,2.7-0.5,4c-1.5,0.7-2.9,0.4-4.4-0.1
		c1.2-9.8,1.4-19.7,3.6-29.4c1.1-4.8,0.4-9.6-0.7-14.3c-1.7-7.7-3-15.4-3.5-23.3c-0.3-5.3,1.4-10.4,2.1-15.6
		c0.9-6,3.1-11.8,4.2-17.8c0.3-1.8,0.4-3.7,0.8-6.4c1.9,3,3,5.7,5.1,7.9c0.7-1.2-0.5-2-1-2.8c-2.1-3.9-3.3-7.7-3.2-12.3
		c0.1-4.4-1-8.9-3.3-12.8C755.4,496.8,755.4,495.2,754.9,493.5z"/>
	<path fill="#FFFFFF" d="M755.6,177.2c-2.6,2.4-3.1,5.3-3.2,8.8c-0.3,7.8,1.7,14.4,7.3,19.9c0.6,0.6,1.2,1.1,2,1.4
		c4,1.1,5.7,4.3,7.1,7.6c1.8,4.3,2.6,9,3.4,13.6c0.6,3.2-0.3,4.3-4.4,5.7c-0.4-1.1-0.8-2.3-1.3-3.5c-0.8,1.1,0.5,2.3-0.3,3.3
		c-6.5,0.9-11.9-1.2-16.7-5.5c-4.7-4.1-8.5-8.8-12-14c-6.5-9.7-14.5-18-24.9-23.7c0.7-2.5,3.3-2.9,4.3-5c2.2-4.9,2.1-10,2.1-15.1
		c0-1.6-0.5-3.3,1-4.6c0.3-0.3,0.5-1.1,0.4-1.6c-0.7-2.7,0.5-5,1.6-7.3c1,0.4,0.2,2,1.4,2.2c1.3-0.2,0.7-1.4,0.7-2.1
		c1.8-0.2,2.8,1,3.9,1.7c1.8,1.2,3.6,2.3,5.6,0.3c1.4,1.5,0.9,3.7,2,5.2c0,0.1,0.1,0.2,0.1,0.3c-1.2-1.7-0.6-4-2.2-5.4
		c0.1-0.6,0.2-1.1-0.3-1.9c-2.5,1.9-4.6,0.3-6.2-1.3c-1.5-1.5-3-2.9-4.5-4.4c-1.9-1.8-2.2-4.1-0.9-6.3c0.8-1.4,1.8-2.7,2.8-4
		c0.8-1,1.5-0.9,2.2,0.2c-0.5,1.8-1.6,3.4-1.9,5.2c0.6-1.1,0.3-2.7,1.9-3.4c1.6-0.1,2.3,1.3,3.1,2.3c0.4,1.4-1.1,2.1-1,3.4
		c-0.1-1.1,1.1-1.9,1-3c-0.1-1.5-2.6-1.9-1.9-3.8c3.2,0.5,5.3,2.1,6,5.4c0.3,1.4,1.2,2.5,1.9,3.6c1.4,0,0.6-1.5,1.4-1.8
		c1.3-0.5,1.8,1.5,3.4,0.8c-3.5-3.8-1.6-7.3,0.8-10.6c2.6-3.5,5.8-6.5,9.2-9.1c1.9-1.5,4-2.9,4.9-5.4c2.4,0.2,4.7,1.1,6.6-0.8
		c0.1-0.8-1.2-0.3-0.8-1.4c2.5-0.8,5-1.4,7.4,0.8c0,3,0.8,6.2,1.9,9.2c0.7,2,1,3.8-0.6,5.5c-1.5,1.5-0.9,3.3-0.1,4.9
		c1,2.1,2.2,4.1,3.1,6.3c0.6,1.4,2.1,3.3,0.3,4.4c-1.5,1-3.7,1-5.4-0.3c-0.2-0.1-0.4-0.2-0.6-0.3c-1,2.8-0.3,3.4,3.3,3.1
		c0.4,1.1,0.5,2.2,0.4,3c-1.2,2.8-4.9,1.3-6,3.9c1.6,1.2,2.4-0.3,3.6-0.6c1.8,0.7,1.9,2,0.8,3.3c-1.4,1.7-1.2,3.4-0.8,5.3
		c0.8,3.3-0.2,4.6-3.6,5.4C761.8,177.7,758.7,177.3,755.6,177.2h-0.2H755.6z"/>
	<path fill="#FFFFFF" d="M782.1,627.7c-3.1,1-5.5,2-7.5,4.5c2,0.4,3.3-0.6,4.9-0.5c0.1,1.2-1.7,1.6-1.4,3.1c2,0,4.1-0.9,6.3-0.5
		c-0.6,1.4-2.4,1.6-2.7,3.4c1.6,0,3.2,0,4.7,0c0.4,1.1-1,1.5-0.5,2.5c1.1,0.7,2.5-0.1,3.6,0.7c0.1,1.1-1.6,1-1.5,2.4
		c2.1,0.6,4.2,0.3,6.3-0.1c0.4,0.8-0.7,1-0.3,1.9c1,0.7,2.3,0,3.5,0c0.5,0.4-0.1,1.2,1,1.7c0.9,0.3,1.8-0.5,2.5-1.5
		c1.3-0.1,0.6,1.5,1.9,1.8c1.2-0.4,2.7-0.1,4.2,0.7c4.2,2.2,8.7,3.5,13.1,4.9c6.8,2.2,7,2.6,7.6,10.1c-4.3,1.9-8.6,3.8-13.6,3.3
		c-0.8-0.1-1.7-0.2-2.5,0c-11.4,2.1-22.6-0.1-33.9-1.1c-0.6,0-1.3-0.1-1.7-0.4c-3.7-2.9-7.7-2.9-12.3-2.4
		c-6.7,0.7-13.6,0.4-20.3-0.3c-1.8-0.2-3.4-0.7-5.3-2.2c3.2-4.7,5.4-10.1,6.5-15.7c1.1-5.7,0.5-11.6,2.1-17.9c1.5,2.3,1.9,4.2,2.4,6
		c1.4,5.9,5.8,6.2,10.1,4.5c4.1-1.6,7-5,10.4-7.6c1-0.7,1.1-2.1,0.8-3.3c-0.2-1-0.2-1.8,0.4-2.7c0.8-1.1,7.4-2.5,8.6-1.9
		c1.1,0.6,1.4,1.6,1.2,2.7C780.6,625.1,780.9,626.4,782.1,627.7z"/>
	<path fill="#FFFFFF" d="M710.2,641.3c-4.8,1.5-9.6,2.7-10.9,8.3c1.1,0.8,1.4-0.7,2.4-0.5c0.9,0.4-0.5,1.5,0.5,2
		c1.6-0.8,3.3-1.4,5.5-1.6c-1,1.7-2.7,2.9-2.1,5.2c2-0.9,3.9-1.6,6-2.5c-0.4,1.4-1.9,2-1.7,3.5c0.9,0.8,2-0.3,3.2,0.6
		c0.4,0.7-1.4,1.1-0.6,2.4c4.4,0.9,8.3-1.5,12.3-3.1c5.9,4.5,11.9,8.9,17.1,13.8c1.3-0.8,0.7-1.9,1.5-2.2c5.8,1.4,6.5,2.5,6.4,11.2
		c-6.1,3-12.1,5.7-19.3,4c-4.2-1-8.5-1.5-12.9-0.6c-4.6,1-9-1.5-13.5-1.5c-7.7,0.1-14.8-3.1-22.4-3.3c-1.8,0-3.4-0.8-5.1-1.3
		c-2.7-0.8-5.2-2.1-8.1-2.1c-0.9,0-1.9-0.3-2.4-1.2c-0.1-1.4,0.8-2.3,1.4-3.2c2.8-4.2,4-9.2,5.8-13.8c0.3-0.8,0.5-1.9,0.3-2.8
		c-0.7-2.8,0.6-5.2,1.6-7.7c1.1,0.1,0.8,1,1,1.6c1.8,4.4,5.1,5.2,9,2.5c3.2-2.2,6.5-4.1,9.9-5.9c2.9-1.6,4.1-3.9,4.2-7.1
		c0-0.6,0.1-1.2,0.2-1.7c2.3-2.1,4.9-2.6,7.9-2.3C709.3,634.9,709,638.2,710.2,641.3z"/>
	<path fill="#FFFFFF" d="M752.6,387.1c1.2,0,1.4-0.9,1.8-1.8c0.5-1.2,1.1-2.3,1.7-3.7c6.4,0.9,12.9-1.1,19.1,1.2
		c3.1-1.7,6.5-0.9,10-1.7c3.2,7.7,6.3,15.4,9.5,23.3c-2.2,6.8-4.4,13.9-7.4,21.1c-10.7,0.5-21.7,1-33.2-0.8c-1.4-1.5-2.6-4-4.4-6.3
		c3.4-2.9,6.6-5.9,9.6-9.1c2.8-3,2.6-6.9-0.7-9.4c-0.7-0.5-1-1.2-1.4-2C755.7,394.5,753.5,391.1,752.6,387.1L752.6,387.1z"/>
	<path fill="#FFFFFF" d="M808.8,420.9c-0.7,0.4-0.8,1.6-1.8,1.4c-5-1.1-10.3,0.6-15.2-2.2c1.6-4.3,2.8-8.7,4-13.1
		c0.6-2.1,0.4-3.8-0.4-5.8c-2.2-5.4-4.2-10.9-7.1-16c-0.4-0.8-0.7-1.7-1-2.6c8.1-1.4,22.4-1.8,27.9-0.7c2.4,5.3,5.1,10.6,8.2,15.7
		c0.8,1.4,1.3,3.4,4,2.9c-3.8,5.8-7,11.2-9.8,17c-0.7,1.4-1.2,2.8-1,4.4l0.1-0.1c-2.3,1.7-4.9,0.7-7.3,0.7c-0.5,0-0.3-0.7-0.3-1.2
		c2-4.2,4.7-8,6.3-11.4C813.5,413,811.5,417.1,808.8,420.9z"/>
	<path fill="#FFFFFF" d="M729.9,376.9c-0.8,2.4-1.4,4.8-1.5,7c-5.8-0.8-11.7-0.9-17.3-1.3c-1.5-1.6-1-3.9-2.4-5.9
		c-0.7,2.3,0.8,4.1,0.1,6.5c-4.6-1.6-9.2-0.4-14.1,1.6c0-7.3-1.8-13.6,0.5-20.4c2.2-6.2,5.4-11.9,7.5-18.2c1.4-0.2,2.8-0.5,4.4-0.7
		c0.8,1.2,1.6,2.3,2.4,3.5c-0.4,7.8-0.6,15.6-0.5,23.4c0.1-1.2,0.1-2.3,0.2-3.5c0.2-2.5,0-4.8,1.8-7.2c1.9-2.5,1.1-6,0.9-9.2
		C718.4,360.3,724.1,368.7,729.9,376.9z"/>
	<path fill="#FFFFFF" d="M789.7,242.8c-1.6-5-3.2-10.1-4.8-15.1c-0.9,0.2-0.4,1-0.8,1.4c-2.8-0.9-8.5-9.1-11-16
		C785.2,217.8,787.9,226,789.7,242.8z"/>
	<path fill="#FFFFFF" d="M751.7,633.3c-0.3-1.3-0.6-2.4-1.1-4c6-0.6,12.3,0.8,17.2-3.6c0.9,1.7,0.2,2.3-1,3c-2,1.1-4,2.4-5.9,3.7
		C757.6,634.5,756.2,634.7,751.7,633.3z"/>
	<path d="M727.9,142.2c0.9,1.8,2.8,2.7,3.9,4.4c-2.7,1.2-2.7,1.2,1.2,5.4c-1,2.3-2.9,1.6-4.9,1.4c0-1.3,0.1-2.5-0.2-3.7
		c-0.3-1.3,0.9-2.4,1-3.6c-0.4-0.9-0.9-1.6-1.9-2.1c-2.8,2.6,1.7,5.1-0.1,7.8c-1.5-0.8-0.5-3.2-2.3-3.9c-2.2,0.9,0.1,2.2-0.2,3.6
		c-1.5-0.4-2.1-1.6-2.8-3c1.6-1.6,3.1-3.4,3.6-5.7c0.2-0.8,0.8-1.1,1.6-1.1C727.1,141.8,727.5,142,727.9,142.2z"/>
	<path fill="#FFFFFF" d="M694.9,639.9c-4.6,3.6-10.1,5.8-15.2,8.8c-1.7-2.3-2.2-4.3-1.8-6.6C686.8,643.2,688.6,642.9,694.9,639.9z"
		/>
	<path fill="#FFFFFF" d="M752.6,387.2c-2.8-4.7-5.3-9.5-5.2-15.6c2.8,3.3,4.3,7.2,7.3,10C753.7,383.4,752.6,385.1,752.6,387.2
		L752.6,387.2z"/>
	<path fill="#FFFFFF" d="M778,116.7c-2.1,4.2-6.4,4.3-10.3,5.4C770.9,119.7,775.3,119.9,778,116.7z"/>
	<path fill="#FFFFFF" d="M767.4,112.3c0.1,1.6-0.6,2-1.7,2.2c-0.4-1.7-1.1-3.3-3.2-3.7C765.4,108.4,765.1,113.7,767.4,112.3z"/>
	<path fill="#FFFFFF" d="M730.1,118.3c-1.5,0.7-2.2-0.6-3.2-0.5c-0.4-1,0.6-1.4,0.6-2.9C728.7,116.4,729.4,117.3,730.1,118.3z"/>
	<path fill="#FFFFFF" d="M751.8,345.9c-0.8,3.1-3-0.4-3.9,1.3C748.6,345.4,748.6,345.4,751.8,345.9z"/>
	<path fill="#FFFFFF" d="M750.4,127.6c-1.2,0.9-2.4,1.8-3.5,2.6C747.1,128.2,748.7,127.8,750.4,127.6z"/>
	<path fill="#FFFFFF" d="M733.8,120.4c-0.2-1.3,0.4-1.8,1.2-2.3c0.8,0.2,0.9,0.9,1.2,1.5C735.6,120.3,735,120.9,733.8,120.4z"/>
	<path fill="#FFFFFF" d="M767.8,348c-1.2-0.8-2.4-1-3.9-0.7C766.4,346,766.9,346.1,767.8,348z"/>
	<path fill="#FFFFFF" d="M757.2,120.5c1.5-0.7,3-1.2,5.1-0.7C760.3,120.8,758.8,121.1,757.2,120.5z"/>
	<path fill="#FFFFFF" d="M747,120.1c-1.9,0.8-2.2-1.1-3.4-1.5C745.5,117.8,745.8,119.7,747,120.1z"/>
	<path fill="#FFFFFF" d="M778.2,346.5c-1.2,0.5-2.1,0.8-3.3,1.3C775.8,346.2,775.8,346.2,778.2,346.5z"/>
	<path fill="#FFFFFF" d="M737.7,662c1.3,0.3,2.1,1,3.1,1.7C739.1,663.5,739.1,663.5,737.7,662z"/>
	<path fill="#FFFFFF" d="M719.1,650.1c-1.4,0.4-2.5,0.7-4.1,1.1C716.4,649.7,717.5,649.8,719.1,650.1z"/>
	<path fill="#FFFFFF" d="M754.3,122.2c-1,1.5-1.6,2.2-3.3,2.5C751.9,123.4,752.6,122.7,754.3,122.2z"/>
	<path fill="#FFFFFF" d="M715.4,133c-0.2-1.4,0.2-2,1.5-2.1C717.3,132.2,716.7,132.7,715.4,133z"/>
	<path fill="#FFFFFF" d="M770.4,349.7c-0.7-1,0.1-1.6-0.3-2.6C771.4,348,770.9,348.7,770.4,349.7z"/>
	<path fill="#FFFFFF" d="M761.4,348.7c-0.3-1-0.7-1.8,0.2-2.7C762.7,347,761.6,347.7,761.4,348.7z"/>
	<path fill="#FFFFFF" d="M754.6,347.4c-0.6-0.5-0.8-0.8-0.7-1.3C755,346.2,755,346.2,754.6,347.4z"/>
	<path fill="#FFFFFF" d="M752.1,121.6c-0.5-0.7-0.9-1.5-1.5-2.5C751.9,119.5,752.4,120.2,752.1,121.6z"/>
	<path fill="#FFFFFF" d="M729.2,107.4c-0.5,0.5-0.8,1.3-1.7,0.6C727.7,107.1,728.3,106.9,729.2,107.4z"/>
	<path fill="#FFFFFF" d="M772.9,346.6c0.6,0.6,0.1,1-0.1,1.5C772.4,347.5,772.2,347,772.9,346.6z"/>
	<path fill="#FFFFFF" d="M715.5,146.3c-0.3-0.7-0.4-1.2,0.4-1.7C716.7,145.4,716.4,145.9,715.5,146.3z"/>
	<path fill="#FFFFFF" d="M727.4,139.6c-1.1,0-1.6-0.1-1.6-0.9c0-0.2,0.3-0.5,0.4-0.5C727,138.2,727.2,138.7,727.4,139.6z"/>
	<path fill="#FFFFFF" d="M714.3,135.9c0.4,0.9,0,1.3-0.7,1.6C713.1,136.7,713.2,136.1,714.3,135.9z"/>
	<path fill="#FFFFFF" d="M743.9,133.4c-0.2,0.9-0.5,1.3-1.1,1.4C742.3,133.9,742.9,133.7,743.9,133.4z"/>
	<path fill="#FFFFFF" d="M725.2,131.7c-1.3,0.4-1.6-0.3-2-0.9C724.2,130.2,724.7,130.6,725.2,131.7z"/>
	<path fill="#FFFFFF" d="M738.6,131.3c0-1,0.1-1.5,1-1.2C739.9,131.1,739.2,131,738.6,131.3z"/>
	<path fill="#FFFFFF" d="M755.1,108.2c-0.6,1-1,1.3-1.4,1c-0.2-0.1-0.3-0.6-0.2-0.8C753.9,107.6,754.4,108.2,755.1,108.2z"/>
	<path fill="#FFFFFF" d="M721.9,153.4c0.6,0.5,1.5,0.7,0.8,2C722,155,721.5,154.6,721.9,153.4z"/>
	<path fill="#FFFFFF" d="M735.6,132.6c-0.1,0.3-0.3,0.5-0.7,0.4s-0.5-0.4-0.4-0.8c0.1-0.2,0.3-0.3,0.5-0.3
		C735.5,131.9,735.7,132.1,735.6,132.6z"/>
	<path fill="#FFFFFF" d="M721.5,117.6c-0.1,0.6-0.1,1.3-1,1.3c-0.4-0.8,0.1-1.2,0.6-1.6C721.3,117.4,721.4,117.5,721.5,117.6z"/>
	<path fill="#FFFFFF" d="M723.2,113.5c-0.4-0.4-0.2-0.9,0.2-1.1c0.3-0.2,0.7,0.1,0.7,0.5C724,113.3,723.7,113.6,723.2,113.5z"/>
	<path fill="#FFFFFF" d="M760.7,111.4c-0.2,0.1-0.3,0.3-0.5,0.4c-0.4,0-0.5-0.3-0.4-0.6c0.1-0.1,0.4-0.3,0.5-0.2
		C760.6,110.9,760.7,111.2,760.7,111.4z"/>
	<path fill="#FFFFFF" d="M771.6,111c-0.1-0.9,0.1-1.3,1.2-1C772.9,110.9,772.5,111.2,771.6,111z"/>
	<path fill="#FFFFFF" d="M679.9,638.8c-0.2,0.8-0.8,1-1.5,0.9c-0.5-0.5,0.1-0.8,0.4-1C679.1,638.4,679.6,638.4,679.9,638.8z"/>
	<path fill="#FFFFFF" d="M711.5,644.5c0.3-0.6,0.7-0.8,1.1-0.1C712.2,644.8,711.9,644.6,711.5,644.5z"/>
	<path fill="#FFFFFF" d="M754,351.2c-0.7,0.1-1.3-0.1-1.3-1C754.1,349.8,753.9,350.6,754,351.2L754,351.2z"/>
	<path fill="#FFFFFF" d="M455.6,671.5c1.9-3.1,1.9-6.7,3.3-10.3c-2.4,0.4-1.6,2.2-2.4,3.5c-2.7-8-4.9-16-9-22.9
		c-3-2.5-6.7-1.6-10.2-2.7c0.7-1.7,0.6-3.7,2.6-4.5c-0.8-1.3-1.2-2.7-1.2-4.1c0.2-9.5-2.5-18.4-5.7-27.3c-4.2-11.6-7.3-23.5-7.1-36
		c0.1-4.6-0.1-9.1,1.1-13.6c1.6-0.5,1.4,2.1,3.1,1.7c-0.2-2.6-1.4-4.8-2.6-7.1c0.8-2.8,1.1-5.7-0.3-8.5c-0.4-0.7-0.1-1.3,0.1-2
		c1.9-6.8,0.9-13.3-0.9-20c-2.6-9.5-3.4-19.2-1-29c0.5-1.9,1.1-3.8,2-5.6c2.4-4.2,3.1-8.7,2.5-13.6c-0.6-5.4-1.6-10.8-0.7-16.3
		c-2.1,3.1-2.2,6.8-2.4,10.2c-0.3,4.1-0.1,8.2,0,12.3c0.1,2.9-0.9,4.8-3.5,6.2c-3.1,1.6-6.1,3.4-9.5,4.8c-1.9-3.4-3.1-6.6-2.5-10.7
		c1.5-9.6,4.2-18.6,9.9-26.7c2.9-4.1,6.3-7.5,10.1-10.5c6.5-5.2,12.7-10.7,20.3-14.4c6.2-3,12-2.6,17.9,0.1c4.8,2.2,7.2,6.7,9,11.2
		s3.5,9,4.1,13.8c0.8,6.8,2.2,13.6-0.1,20.4c-0.2,0.6-0.3,1.4,0.4,2.3c0.9-2.2,2.3-3.9,2.4-6.2c0.3-10.9-0.2-21.6-4.7-31.7
		c-3.9-8.8-12-13.9-21.4-14c-3.5,0-6.7,1.9-9.8,3.6c-0.9,0.5-1.7,1.1-2.7,1.4c5.6-7,13.8-9.4,22.1-12.1c0.5,2.4,2.2,4.2,4.1,5.7
		c5.8,4.4,8.3,10.8,11.1,17.2c3.7,8.6,5.9,17.7,9.5,26.2c2.8,2.5,6.5,2.9,9.8,4c7.1,2.4,9.2-1,10.9-7.3c0.1-0.5-0.1-1.1,0.1-1.6
		c2.5-7.2,2-20.6-1.2-28.2c0.5-1.1,1.2-1.9,2.4-2.7c0.5,7,3.3,13.3,4.2,20c1.3,9.6,1,19.1,0.1,28.7c0,0.5-0.2,0.9-0.2,1.4
		c0.6,9.5-6,13.9-13,17.8c-6.6,3.7-13.8,5.6-21.2,6.6c8.3,1.8,15.7-0.6,23.1-5.8c-0.1,6.1,4.5,10.6,2.6,16.5
		c-10.1-2.5-20.1-5.4-31.1-3.6c2.9-3.7,4.4-7.6,7.2-11c3.2-3.9,6.7-8.3,7.5-13.9c-2.7,2.5-4.2,5.8-6.4,8.7c-2.3,3.1-5.7,4.8-8.7,7
		c-3.1,2.2-6.7,3.2-10,5c4.1,1.5,7-2.4,10.8-2.4c-2.1,5.5-6.7,10.2-12.4,12.6c0-5.5-0.5-11,0.2-16.3c0.5-4.1,2.7-7.9,6.1-10.7
		c2.9-2.3,5-5.2,6.6-8.5c0.4-0.7,0.8-1.4,0.3-2.3c-1.6,0.1-1.9,1.5-2.4,2.6c-1,2.2-2.4,3.9-4.8,4.8c-3.2,1.3-5.3,3.8-6.4,7.1
		c-2,6.3-3.6,12.6-3.6,19.3c0,8.1-1.1,16.1-1.8,24.1c-0.4,4.3,0.3,8.7,0.7,13c0.4,4.1,0.5,8.2,0.6,12.3c0.1,3.9-0.4,7.6-1.6,11.4
		c-1.8,5.8-3.2,11.7-4.7,17.6c-0.7,2.9-0.9,5.8-0.9,8.7c0.1,10.1-0.6,20.1-1.5,30.1c-0.1,1.6-0.5,3.2,0.1,4.7c1.3,0.7,1.3-0.8,1.8-1
		c1.2,0.3,0.6,1.2,0.9,1.8c0,0.2,0,0.4,0,0.6c0.6,5.9,1.9,11.6,4.3,17c0.2,0.5,0.4,1.2,0.7,1.6c5.4,7.4-0.4,13.4-2.5,19.8
		c-0.6,1.9-2.8,1.8-4.3,0.2C455.7,671.8,455.6,671.7,455.6,671.5z"/>
	<path fill="#FFFFFF" d="M359.1,532.8c-2.7-1.6-0.6-3.6-0.6-5.4c3.3-1.8,7.1-1.9,10.7-4.2c-3.5-0.5-5.9,1.2-8.6,1.2
		c3.7-2.5,7.5-4.5,12.3-2.7c2.5,0.9,5,1.5,8.4,1.5c-2.3,1.8-4.2,2-6.1,2.3c3.2,1.9,5.7-0.5,8.5-1.5c0.6,0.2,0,1.3,1.3,1.1
		c1.3-1.2,3-2.4,5.1-3c1.5-0.4,2.9-0.4,4.2,0.8c2.6,2.4,2.9,2.3,5.5,0c0.8-0.7,1.7-1.2,2.2-2.4c-2.1-0.3-3.4,1.5-5.5,1.8
		c-2.4-2.8-5.2-2.3-8.5-1.1c-4.2,1.5-8.5,0.7-12.9-0.3c-0.4-0.9-0.8-1.9-1.2-2.8l-0.1,0.1c2,0,2.7,2.5,5.2,2.3
		c-0.9-2.7-2.6-4.7-4.6-6.4c-0.1-0.2-0.2-0.2-0.2-0.2c0-0.1,0,0,0.3,0.2c0,0.7-0.2,1.1-1,0.7c-2.3-1.3-5-1.8-6.6-4.2
		c-0.3-0.4-1-0.5-1.5-0.8l0.1,0.1c2.9-4.3,5.1-9.1,8-13.4c1.7-2.5,4.6-4.2,6.5-6.7c5-6.5,9.8-13.1,14.8-19.6
		c3.1-4,6.5-7.7,10.5-10.8c6.5-4.9,11.1-11.8,17.5-16.8c0.4-0.3,0.7-0.6,1.2-0.7c-2.1,3.2-4.9,5.9-7.1,9.1c-5.6,8.6-8,18.2-8.7,28.2
		c-0.2,3.2,1.8,6,2.8,8.9c0.1,1.5-1.9,0.8-2,2.1c1.2,1.2,1.8-0.2,2.9-0.6c2.1,3.3,6.1,3.4,9.6,5.2c0,7.3-0.5,14.8,1.7,22.2
		c-1.5,0.8-2.6,1-4.1,0.8c-2.3-0.2-4.8-0.5-7.1,1c-1.3,0.8-3,1.3-4.5-0.2c-1.4-1.5-3.7,0-5.2-1.4c-2.6,2-3.7-0.4-5.1-1.8
		c-0.8-0.8-1.4-1.7-2.5-2.3c0.4,2.1,2.1,3.2,3.2,4.8c-1.7,1.4-1.7,1.4-7.6-2.9c1,2.8,2.5,4.1,6.7,6.2c2.9-2.2,6.2-2.3,9.4-0.8
		c2.3,1.1,4.5,1.3,6.7,0.1c0.7-0.4,1.6-1,2.3-0.6c2.8,1.4,5.4,0.1,7.9-1c1.8,4,1,8,1.1,11.8c0,2.6,0.1,5.1,1.2,7.6
		c0.9,2.1,0.7,4.4-0.4,6.4c-2.4,4.3-3.7,9.1-5.2,13.7c-1.3,3.9-1.9,8,0,12c-2.9,5-2.4,11.1-5.1,16.6c-7.4,0.8-14.5,3.8-21.8,4.2
		c-7.4,0.4-15.1,0.3-22.7-1c-6.2-1.1-11-3.6-15.6-7.3c-2.3-1.8-4-3.9-5-6.6c-2.4-6.1-4-12.5-4.8-19c-0.2-1.9-0.2-3.7,0.1-5.3
		c5.3-5.7,10.9-10.7,16.6-15.6c1.5,0.9,1.3,1.8,0.2,3c-3.2,3.4-6.5,6.8-9.4,10.4c-1.5,1.8-3.4,3.7-2.1,7c3.4-5.1,7.7-9,11.5-13.3
		c3.6-4.2,8.4-7.6,10.1-13.3c-2.8,2-4.9,4.7-7.7,6.6c-1.7-1.5-0.6-2.4,0.6-3.2c2.3-1.7,4.5-3.4,5.2-6.9c-2.2,1.3-4.5,2-6.1,3.9
		c-0.1,0.1-0.1,0.3-0.2,0.4c-1.3,1-2.5,2-4.2,2.3C359.4,532.8,359.2,532.8,359.1,532.8z"/>
	<path fill="#FFFFFF" d="M509.7,549.7c-2,0-3.5,1.3-5,2.3c-3.6,2.4-7.6,4-11.2,6.3c-3.4,2.2-7.2,3.7-11.2,5.6
		c-0.4-2.1-0.1-4,1.5-5.2c3.4-2.4,4.5-5.9,5.3-9.6c1.9-0.9,4-1.2,5.8-2.8c-2.1-0.4-3.9,0.7-6.3,0.3c3-5.5,1.8-10.9,0.1-15.7
		c1.1-7.3,6.3-11.5,10-16.6c1.5-2.1,3.5-2.8,6.1-2.1c7.2,1.7,14.1,4.2,21,6.8c1.1,0.4,2.2,0.8,3.3,1.1c4.5,1.6,8.6,3.6,10.2,8.7
		c0.8,2.4,2.7,4.2,3.4,6.9c1.6,6.4-1.5,11.5-4.4,16.4c-1.4,2.4-3,4.7-4.1,7.3c-2.1,5.3-5.2,9.9-8.6,14.4
		c-6.5,8.5-13.5,16.5-21.6,23.5c-2.3,2-4.3,4.3-6.1,6.8c-3.9,5.6-8.7,10.4-12.7,15.9c-1.9,2.7-4.6,4.8-6.7,7.5
		c-1.6,2.1-4.5,1.7-6.7,2.8c-3.2,1.6-6.8-0.1-10.3,0.4c-1.3,0.2-2.6-1-3.4-2.3c3.7-6.8,6.4-14.2,11.2-20.5c4.4-5.6,6-12.6,7.9-19.4
		c2.7-9.6,7.5-18.2,13.5-26c1.6-2.2,4.2-3.4,6.5-4.7c3-1.6,5.7-3.7,8.7-5.2C507.5,552.2,509.1,551.4,509.7,549.7
		c0.3-0.3-0.2,0,0.2-0.3C509.9,549.4,509.9,549.5,509.7,549.7z"/>
	<path fill="#FFFFFF" d="M535,350.6c0.3,1.1,1.6,0.8,2.1,1.5c0.1,3.5,0.9,6.8,2.1,10c0.8,2.1,1.1,3.9-0.7,5.8
		c-1.6,1.7-0.8,3.7,0.1,5.6c1.3,2.6,2.6,5.2,3.7,7.9c1.1,2.7,0.4,3.4-2.6,3.5c-1.6,0.1-3.1,0.2-4.4-1.3c-0.4,3.4,0.2,3.9,3.6,3.5
		c0.1,0.1,0.2,0.2,0.2,0.3c0.2,1,0.4,2,0.5,2.9c-1.2,3-5.1,1.5-6.5,4.2c1.7,1.5,2.6-0.5,4.1-0.6c1.5,0.9,1.8,2.2,0.6,3.7
		c-1.4,1.7-1.2,3.4-0.8,5.3c0.8,3.6-0.1,5.1-3.5,5.8c-4.3,0.8-8.7,1.2-12.9-1c0.2,1.6,1.6,1.3,1.6,1.3c-3.1,9.9-10.8,16.5-15.3,25.7
		c2.7-0.4,2.4-3.1,4.6-4c1.9,5.4,1.2,11.2,2.3,16.7c1.3,6.3-2.9,10.9-4.2,16.2c-1.5,1.4-3.1,1.1-4.7,0.8c-3.6-0.9-6.6-2.9-9.8-4.6
		c-1-0.5-1.6-1.7-1.7-2.9c-0.3-4.8-1.9-9.3-3.5-14.3c4.3,2,7.2,6.5,12.4,5.1c-0.1-1.4-1.3-1.4-2.1-1.5c-6.2-1.2-10.7-4.5-13.4-10.3
		c-3.2-6.8-6.9-13.3-13.2-17.9c-0.6-0.4-1-1-1.5-1.5c-0.2-0.3-0.3-0.6-0.5-0.9c-0.3-1.4,1.4-2.3,0.6-3.8c3.6-1.1,6.7-2.6,8.4-6.2
		c3,3,6.2,5.5,6.1,10.2c2.2-3,1.5-4.6-4.3-11.8c0.5-2.1,0.6-4.5,2.6-6.2c0.7-0.6,1-1.5,0.7-2.5c-0.8-2.8,0.7-5.1,1.8-7.6
		c1.2,0.9,0.2,2.9,2.1,3c1.6-0.6-0.6-1.9,0.4-2.7c2.3-0.1,3.5,2.1,5.4,2.8c2.7,1,3.3,0.7,4.2-2.4c-3.7,1.8-5.9-0.2-7.9-2.7
		c-0.9-1.2-2.3-2-3.4-3c-2.5-2.3-2.8-4.7-0.9-7.5c1-1.5,2.2-3,3.3-4.5c1.1-0.1,1.7,0.6,2.5,1.1c-1.8,1.4-2.1,3.7-3.2,5.6
		c1.2-1,0.5-3.4,2.7-3.9c1.4,0.1,2,1.5,2.9,2.3c0.1,1.8-1.7,2.9-1,4.3c-0.5-1.4,0.8-2.4,1.1-3.6c-0.1-2-3.2-2.3-2.5-4.7
		c5.9,0.9,6.8,6.3,8.8,10.3c1.7-0.3,0.5-2,1.8-2.2c1.2-0.1,1.8,1.4,3.5,1.1c-4-4.4-1.6-8.2,1.1-11.8c2.7-3.7,6.1-6.8,9.8-9.5
		c2-1.5,3.9-3,4.8-5.6c2.5,0.6,4.9,1.2,7.1-0.7c0.4-1-1.3-0.4-1.1-1.4C531.2,350.9,533,350,535,350.6L535,350.6z"/>
	<path fill="#FFFFFF" d="M491.2,633.3c4.9-4,10.8-4.6,16.7-4.8c4.6-0.1,9.2,0.8,14,1.6c-0.6,0.5-0.9,0.7-1.4,1.1
		c1.8,0,3.6,0.5,4.6-1.5c1.3,1.4,1.8,2.8,2.2,4.3c1.8,6.1,3.6,12.1,5.4,18.2c0.4,1.2,0.6,2.4-0.3,3.7c-2.8,3.9-4.7,8.3-6.8,12.7
		c-0.6,1.3-1.4,2.3-3,2.7c-8.2,2-16.5,1.8-24.7-0.3c-0.5-0.1-1.1-0.4-1.7-0.7c0.7-3.7,3.9-6.6,3.8-10.5c-0.2-0.1-0.5-0.2-0.7-0.3
		c-3.5,6.6-7.1,13.2-10.8,20.2c-4.1,0.4-8.4,2-13.1,0.9c-4.1-0.9-8.4-0.7-12.6-0.7c-4.1,0-7.7-0.9-9.4-5.5c0.2-1.1,1.4-1.8,2.1-2.9
		h-0.1c2.9,2.2,3.7,1.9,5.1-1.2c1.4-2.9,2.2-6,4.8-8.3c1.7-1.5,2.6-4,0.5-5.9c-5.4-5-6.2-12-8.2-18.4c-0.5-1.5-1.7-3.3,0-5l-0.1,0.1
		c1.6,0.2,3.3,0.3,4.9-0.2c2.9-0.9,5.8-0.6,8.7-0.1c4.3,0.7,8.5,1.5,12.8,1.9c5.3,0.5,6,1.1,7.5,6.2c1.5,5,3.2,10,5.4,14.8
		c0.5,1,0.6,2.3,2,2.7c0.8-0.9,0.2-1.7-0.1-2.6c-2.2-6.5-4.5-13-7.2-19.4c-0.4-0.8-1-1.7-0.5-2.7L491.2,633.3z"/>
	<path fill="#FFFFFF" d="M410.5,688.1c-4.5-6.8-6.5-14.6-9.6-21.9c-0.8-1.8-0.3-3.3,0.7-4.6c4.3-5.7,6.6-12.3,9.8-18.8
		c4.3-1.2,9-1.8,13.3-3.6c0.7-0.3,1.6-0.1,2.4,0.1c4.4,0.7,8.7,1.6,13.2,2.1c-2.1,1-4.6,0.1-6.5,1.3c3.2,0.6,6.3,0.7,9.1-1.4
		c2.6,0.5,4,2.3,5.1,4.7c3.3,7.1,5.3,14.7,7.8,21.8c-4.8,6.3-8.4,12.8-11.9,19.9c-5.4,0.8-10.8,3-16.8,1.9
		C421.6,688.7,416.1,688.6,410.5,688.1z"/>
	<path fill="#FFFFFF" d="M523.2,481.7c2.5,3.1,5.5,2.1,8.9,2.4c-1.8-2-3.8-2.3-5.3-3.4c-0.8-1.6-0.6-4-3-4.7c-1,0.3-0.7,1.8-1.9,2
		c1.7-10.9,1.4-21.8-0.5-33c2,0.4,3.6,0.8,5.6,1.3c-1.5-2.5-3.6-2.9-5.9-3.3c-0.9-3.5-2.2-6.8-2.4-10.6c0.9,5.9,5.8,8.3,9.6,11.8
		c8.2,7.6,12.7,16.9,12.4,28.3c0,0.6,0,1.2-0.2,1.7c-3.5,6.7-1.6,13.4,0.3,20c0.8,2.7,0.7,5.4,0.5,8c-0.7,9.9,0.7,19.6,3.3,29.2
		c0.2,0.8,0.3,1.6,0.2,2.5c-1.8-3-3.6-6.1-5.2-9.2c-2.1-3.9-5.5-5.7-9.7-6.9c-5.5-1.5-10.8-3.5-16.1-4.8c-1.8-5.6,0.4-10.9-0.7-16.3
		c-0.2-0.8-1.8-0.4-2-2C515.9,491.6,520.1,487.6,523.2,481.7z"/>
	<path fill="#FFFFFF" d="M543.3,648.9c-0.9,0.3-1.3-0.8-2.3,0.4c-1.2,2.2-2.4,5.2-6.3,5.6c0.4-2,2.8-3,2.4-5.1
		c-1.5-0.6-1.6,1.1-2.6,1.5c-2.5-7.7-4.4-15.5-8.1-22.5c-2.2-0.5-4.1,0.4-6-0.5c-0.5-2.7,1-4.8,2.5-6.5c5.7-6.6,5.2-14.3,4.1-22
		c-0.6-4.4-1.1-8.7-2.9-12.9c-1.1-2.8-0.3-5.5,2.1-8.2c3.8-4.2,6.9-9.1,8.7-14.6c1.7-5.2,4.1-9.9,8.5-13.7
		c1.2,5.1,1.4,10.2,1.4,15.4c-0.2,11.2-2.2,22.1-3,33.2c-0.4,5.9-0.8,11.9-1.2,17.8c-0.4,6.2,1.5,12.2,2.5,18.3c0.5,3,0.7,6,1.7,9
		C545.4,646,544,647.3,543.3,648.9z"/>
	<path fill="#FFFFFF" d="M435.2,639.3c-9-4.5-16.7,1.3-25.2,2.1c0,5.3-5.6,6.3-7.2,10.3c-0.3,1.1,1.2,1.1,1.1,2.8
		c-5.9,5.9-4.8,13.1-1.4,20.4c0.3,0.7,0.5,1.6,0.8,2.3c0.2,0.7,0.5,1.5,0.9,2.5c-3-1.3-5.5-2.7-8.5-2.8c-1.2-0.1-2.3-0.1-3.4,0.3
		c-3.1,1.2-6.3,1.1-9.3,0.2c-4.8-1.4-9.5-3.3-14.5-4c-0.1-1.8,0.5-3.1,1.4-4.4c2.1-3.5,4.1-7.1,6.1-10.6c1.2-2.1,1.4-4.6,1.1-6.9
		c-0.5-4,1.5-6.8,3.7-9.9c-1.9,6.2,2.9,7,6.7,8.9c1.9-0.7,3.8-1.6,5.5-2.8c2.1-1.6,4.3-2.2,6.8-2.4c3.6-0.2,7.2-3.2,8.2-6.6
		c0.2-0.6,0.4-1.1,0.6-1.6c0.1-0.3,0.4-0.6,0.6-0.8c4.8-0.8,5.4-0.6,9.5,2c0.5-0.2,0.7-0.7,0.7-1.1c-0.5-4.6,1.8-8,4.3-11.5
		c1.7-2.4,3.5-4.7,5-7.2c1.5-2.3,2.8-4.8,4.2-7.2c1.3,0.6,1,1.7,1.2,2.5c1.3,5,1.9,10.1,3,15.1C437.6,631.9,436.5,635.5,435.2,639.3
		z"/>
	<path fill="#FFFFFF" d="M423.2,568.1c0.4,14.4,2.4,28.4,9.7,41.2c-3.2,1.5-4.6,4.4-6.3,7c-3.3,5.1-7.8,9.4-9.7,15.4
		c-0.4,1.3-1.5,1.4-2.8,1.1c-0.5-1.3,0.5-2.6,0.4-4.1c-1.3,1.1-1.5,2.6-2.2,3.8c-1.5,0.7-3.3-0.2-5,0.9c-0.4,2.3-2.2,4.3-2.6,6.8
		c-2.3,1-4.5,0.3-6.7,0c-0.1-2.1,1.7-3.8,0.9-6.1c-1.9,1.4-2,3.6-3.2,5.5c-1.7,0.2-3-0.4-4.1-1.9c2.2-7.8,7.2-14.1,10.8-21.2
		c3.5-7,7.1-14,11.5-20.5c3.6-5.3,4.1-11.6,5.6-17.6C420.3,574.7,421.6,571.4,423.2,568.1z"/>
	<path fill="#FFFFFF" d="M533.9,656.2c3.2,0.5,5.4-2.3,8.2-2.4c1.3-2.1,2.4-4.2,3.7-6.2c0.9-1.4,1-2.8,0.7-4.4
		c-1.3-5.8-1.6-11.8-3.3-17.6c-0.5-1.5-0.3-3.2,0.1-5.1c6.9,1.1,13.4,4.3,20.7,3.9c4,6.5,5.4,13.8,8,20.9
		c-3.9,5.7-5.8,12.7-9.6,17.6c-10.9,3.6-20.7,0.8-30.8-0.9C531.7,659.7,532.8,658.2,533.9,656.2z"/>
	<path fill="#FFFFFF" d="M491.2,633.3l-0.2,0.1c-1.2-0.5-0.9-1.5-0.8-2.4c0.2-5,0.2-5-4.8-7.3c12.1-13.1,21.1-28.8,36.1-39.1
		c2.8,9.6,2.8,19.6,4,30.3c-2.3,3.7-6.3,7.5-7.9,13.3c-8.4-2.3-16.6-0.7-24.9,1.6C491.9,630.6,491.3,631.9,491.2,633.3z"/>
	<path fill="#FFFFFF" d="M463.6,578.6c0.5-4.9,1.7-9.7,2.8-14.4c1.6-7.1,1.2-14-0.8-20.8c-1.4-4.5-1.1-8.7-0.1-13
		c1-0.2,1.9,1,3.1,0.2c-0.1-0.7-0.8-0.9-1.4-1.2c-0.5-0.3-1.1-0.4-1.8-0.6c0-2.8,0-5.6,0.7-8.5c1.9,0.1,3.6,0.4,5.1,1.3
		c3.5,2,7.8,2.5,10.9,5.3c4.9,4.2,5.5,9.8,4.6,15.7c-0.3,2.2-0.8,4.2-0.4,6.5c0.5,2.7-1.6,5.1-3.1,7.2c-1.7,2.3-3.6,4.3-3.8,7.3
		c-0.1,0.9-0.8,1.4-1.4,1.9C473.3,569.9,468.4,574.2,463.6,578.6z"/>
	<path fill="#FFFFFF" d="M458,623.6c-0.8-11.8,0.2-23.6,1.7-35.3c0.4-3.2,1.7-5.7,4.5-7.8c4.3-3.2,8.6-6.5,12.3-10.5
		c2.4-2.6,6.2-2.4,8.9-4.4c-1.9,4.4-5.2,7.8-7,12.1c-1.5,3.5-2.7,7-3.4,10.7c-1.1,6.3-3.4,12.1-7,17.4
		C464.1,611.4,460.8,617.3,458,623.6z"/>
	<path fill="#FFFFFF" d="M466.4,517.7c4.9-2,8.8-4.1,11.2-7.2c7-0.8,13.5-1.7,20.4,0.4c-5.4,5-8.5,10.9-10.9,17.2
		C481.9,522,474.6,519.8,466.4,517.7z"/>
	<path fill="#FFFFFF" d="M345.9,548c0.3-4,0.1-7.3-0.2-10.6c-0.2-2.3,0.7-4,2.9-5.1c2.7-1.3,5.4-2.8,8.4-4.3
		c-0.2,2.9-1.5,5.9,2.2,7.5C354.6,539.5,350,543.1,345.9,548z"/>
	<path fill="#FFFFFF" d="M475.1,631.3c3.3-0.6,5.8-2.1,7.4-4.9c1.9-0.5,3.5-0.3,5,1.4c-0.2,1.7-0.9,3.4-0.2,5.6
		C482.9,632.7,479,632.5,475.1,631.3z"/>
	<path fill="#FFFFFF" d="M357.6,518c1.5,0.6,0.3,2,1.6,2.6c1.3-1.2,3-1.7,5.2-0.6c-4,2-7.4,4.6-10.9,7c-0.4,0.3-0.8,0.8-1.5,0.4
		c-1.8-0.9-2.4,0.4-2.3,1.6c0.1,1.4-0.9,1.3-2.1,1.9C348.9,524.6,355.6,523.1,357.6,518z"/>
	<path fill="#FFFFFF" d="M383.7,646.3c2.2-0.5,2.1-2.9,3.5-4.1c1-0.8,1.6-2,2.6-3.1c1.7,2.3,4.2,2.8,6.8,3.4
		c-3.7,1.3-6.5,4.1-10,5.5C385.5,647.6,384.2,647.5,383.7,646.3L383.7,646.3z"/>
	<path fill="#FFFFFF" d="M423.7,484.3c-0.8,2.8-1.4,5.2-2.1,7.7c-2.3-0.5-4.2-1.1-5.9-3.1C419,488.4,420.4,485.1,423.7,484.3z"/>
	<path fill="#FFFFFF" d="M420.5,567.8c0.3-4.9,1.1-9,3.1-12.8C422.4,559.1,425.1,564,420.5,567.8z"/>
	<path fill="#FFFFFF" d="M535.1,350.6c1-1,2.2-1.8,3.5-2c3.3-0.6,6.3-1.8,9-4.8C545.8,347.9,540.8,350.4,535.1,350.6L535.1,350.6z"
		/>
	<path fill="#FFFFFF" d="M383.7,646.2c-2.7-1.6,0-3.8-0.7-5.5c0.8-1,1.8-1.2,3-1.2C385.1,641.8,383.1,643.6,383.7,646.2L383.7,646.2
		z"/>
	<path fill="#FFFFFF" d="M536.1,339.9c0,1.6-0.6,2.3-2.1,2.3c-0.1-1.9-1.3-3.2-3.2-3.9C533.8,336.4,533.8,341.1,536.1,339.9z"/>
	<path fill="#FFFFFF" d="M373.9,518c-0.8,0.2-1.6,0.4-2.3,0.7c-0.8-0.5,0.3-1.7-0.8-2.1c-1-0.6-1.2,0.8-2.1,0.7
		c0.2-0.7,0.5-1.3,0.8-2.1C371.1,516,373.1,516.1,373.9,518L373.9,518z"/>
	<path fill="#FFFFFF" d="M361.6,512.8c1.3-0.7,2.3,0.4,3.5,0.5c0,1.3-1,1.7-1.9,2.4C363.2,514.3,361.1,514.4,361.6,512.8z"/>
	<path fill="#FFFFFF" d="M513.6,358.9c0.6-2,2.4-2.6,4.1-3.2C516.7,357.3,515.2,358.2,513.6,358.9z"/>
	<path fill="#FFFFFF" d="M529.9,347.9c-1.5,0.9-3.1,1.5-5.1,0.9C526.4,347.2,528.3,348.1,529.9,347.9z"/>
	<path fill="#FFFFFF" d="M494.3,343.2c0.8,1.1,1.4,2,2.2,3c-1.5,0.7-2.4-0.7-3.5-0.4C493.2,344.7,493.5,344.1,494.3,343.2z"/>
	<path fill="#FFFFFF" d="M501.7,345.9c0.7,0.4,0.9,1,1.2,1.6c-0.6,0.9-1.2,1.5-2.3,1C499.8,347.2,500.9,346.6,501.7,345.9z"/>
	<path fill="#FFFFFF" d="M515,348.3c-2.5,0.8-3-1.2-4.2-1.8C512.4,346.5,512.4,346.5,515,348.3z"/>
	<path fill="#FFFFFF" d="M491.6,360.5c-2.3,0.1-2.7-1.5-3.4-2.6C489,358.9,490.6,358.9,491.6,360.5z"/>
	<path fill="#FFFFFF" d="M363.3,531.4c-1.2,1.3-2,3.4-4.2,1.3v0.1c1.2-0.7,2.4-1.7,3.9-1.8C363.1,531.2,363.2,531.3,363.3,531.4z"/>
	<path fill="#FFFFFF" d="M482.7,359.3c0.1,1.7-0.4,2.3-1.6,2.5C480.5,360.4,481.3,360,482.7,359.3z"/>
	<path fill="#FFFFFF" d="M489.3,385.8c-1.6-0.6-1.9-1.5-2.1-2.9C488.4,383.6,489,384.1,489.3,385.8z"/>
	<path fill="#FFFFFF" d="M521.3,335.6c0.4-0.4,0.9-0.3,1.3-0.1c0.5,0.7-0.1,1.2-0.6,1.3C521.4,336.8,521,336.3,521.3,335.6z"/>
	<path fill="#FFFFFF" d="M366.3,516c-0.1,0.8-0.1,1.7-1.1,1.8C364.5,516.5,366.1,516.7,366.3,516z"/>
	<path fill="#FFFFFF" d="M481.1,375.9c-0.4-0.7-0.3-1.3,0.2-1.8C481.7,375,481.7,375,481.1,375.9z"/>
	<path fill="#FFFFFF" d="M518.7,353.1c0.3-0.9,1-1.4,1.7-1.7C520.9,352.9,519.6,352.8,518.7,353.1z"/>
	<path fill="#FFFFFF" d="M518.7,347.1c0.8,0.6,1.5,1.2,1.6,2.5c-1,0.1-1.1-0.6-1.3-1.1C518.8,348,518,347.7,518.7,347.1z"/>
	<path fill="#FFFFFF" d="M541.7,336.7c0.2,1.8-0.6,1.9-1.3,2.2C540,337.7,540.9,337.6,541.7,336.7z"/>
	<path fill="#FFFFFF" d="M495.5,334.7c-0.4,0.8-0.9,1.3-1.9,0.8C493.9,334.3,494.7,334.4,495.5,334.7z"/>
	<path fill="#FFFFFF" d="M365.4,509.6c0.4,0.6,0.8,1.2,1.3,1.9c-1.1,0.2-1.9-0.1-2.5-0.8C364.5,510.1,364.8,509.7,365.4,509.6
		L365.4,509.6z"/>
	<path fill="#FFFFFF" d="M484.8,377.5c0.8,0.4,0.8,0.9,0.7,1.5C484.5,378.9,484.2,378.5,484.8,377.5z"/>
	<path fill="#FFFFFF" d="M493.6,368.8c-1.2,0.1-1.7-0.1-1.8-1C492.8,367.1,493.3,367.4,493.6,368.8z"/>
	<path fill="#FFFFFF" d="M479.9,364.7c0.4,1.2-0.3,1.5-0.8,2C478.6,365.7,478.7,365.1,479.9,364.7z"/>
	<path fill="#FFFFFF" d="M487.5,363.5c1.3,0.9,1.1,1.4,0.1,1.8C487.1,364.8,487.2,364.3,487.5,363.5z"/>
	<path fill="#FFFFFF" d="M505.6,360c-0.1-1,0-1.4,0.8-1.5C507.1,359.4,506.3,359.6,505.6,360z"/>
	<path fill="#FFFFFF" d="M485.9,347.1c0.3-1,0.5-1.6,1.4-2C487.3,346.1,487.3,346.9,485.9,347.1z"/>
	<path fill="#FFFFFF" d="M524.9,480c-1.2,0.1-1.5-0.4-1.1-1.3C524.9,478.6,524.6,479.6,524.9,480z"/>
	<path fill="#FFFFFF" d="M490,340.8c-0.1,0.4-0.4,0.6-0.7,0.5c-0.4-0.1-0.5-0.5-0.3-0.8c0.1-0.2,0.4-0.3,0.6-0.3
		C489.9,340.1,490,340.4,490,340.8z"/>
	<path fill="#FFFFFF" d="M482.4,348.4c-0.1-1,0-1.4,0.8-1.4C483.5,347.8,483,348,482.4,348.4z"/>
	<path fill="#FFFFFF" d="M364,530.1c0.4,0.1,0.8,0.3,1.2,0.4c-0.4,0.7-1,1.2-1.8,1l0,0c-0.4-0.8,0.3-1,0.8-1.4H364z"/>
	<path fill="#FFFFFF" d="M436.1,431.7c-1,0.5-1.2,1.1-1.7,0.8C434.5,432.1,434.7,431.8,436.1,431.7z"/>
	<path fill="#FFFFFF" d="M497,371.2c1.2,0,1.4,0.4,1.6,0.8C497.8,372.7,497.9,371.6,497,371.2z"/>
	<path fill="#FFFFFF" d="M502.1,364.8c0.8,0.9,0.6,1.2,0.2,1.6C501.5,365.9,502.2,365.6,502.1,364.8z"/>
	<path fill="#FFFFFF" d="M509.9,363.6c-0.2-0.9,0.1-1.2,0.9-1.2C511.3,363.5,510.3,363.3,509.9,363.6z"/>
	<path fill="#FFFFFF" d="M501.5,361.8c-0.2-0.7-0.2-1.1,0.4-1.2c0.2,0,0.5,0.2,0.5,0.3C502.5,361.6,502.1,361.8,501.5,361.8z"/>
	<path d="M766.9,279.8c1.9,7.7,2.2,15.5,0.3,23.3C767.9,295.3,767,287.5,766.9,279.8z"/>
	<path d="M749.1,304.8c-3.2-3.9-4.9-8.6-8-12.9C745.7,293.7,749.1,299.5,749.1,304.8L749.1,304.8z"/>
	<path d="M766.8,252.4c1.2-0.4,2-0.8,2.9-0.2c1.1,2.6,1.1,2.6,0.8,5.7c-1.5-0.6-1.6-2.3-2.8-3.2c-0.5,1-0.9,2-1.5,3.4
		C765.8,256,766.8,254.3,766.8,252.4z"/>
	<path d="M737.8,326.2c2.3,4.2,1.9,8.9,2.5,13.4C738.3,335.3,738.8,330.6,737.8,326.2z"/>
	<path d="M767.8,317.5c0.2,2.2,0.4,4.4,0.5,6.7C767.1,322.1,767.5,319.8,767.8,317.5z"/>
	<path d="M748.5,337.3c1.3,1.1,1.7,2.3,1.3,3.7C749.1,340,748.5,338.9,748.5,337.3z"/>
	<path d="M740.7,264.2c1.2-1.7,2-1.4,2.9,0.4C742.4,265.4,741.5,265.4,740.7,264.2z"/>
	<path d="M749.5,265.1c-1.4,0.2-2.4-0.1-3.8-0.8C747.3,263.6,748.4,263.7,749.5,265.1z"/>
	<path d="M767.8,312.6c-0.6-0.9-1.3-1.8-0.2-3.2C768.4,310.6,768.1,311.6,767.8,312.6z"/>
	<path d="M777.7,265.8c-1.1,0.6-1.4-0.1-1.9-0.6C776.9,264.2,777.3,265,777.7,265.8z"/>
	<path d="M773.1,262.7c0.9-0.1,1.2,0.3,1.3,1.1c-0.5,0.6-0.9,0.4-1.3,0.1C772.7,263.5,772.5,263.1,773.1,262.7z"/>
	<path d="M771.2,260.2c0.9,0.1,1.2,0.5,0.9,1.3C770.8,261.7,770.7,261.2,771.2,260.2z"/>
	<path d="M749,304.8c0.8,0.3,1.4,0.7,1.5,1.7C749.1,306.6,749.3,305.5,749,304.8L749,304.8z"/>
	<path d="M757.7,307c0.3-0.9,0.6-1.2,1.1-1.2C759.2,307,758.4,306.6,757.7,307z"/>
	<path d="M783.1,353.3c3,4.1,4.9,9,7.5,13.4c1.4,2.4,2,6,0.4,9.7c-1.6-2.5-1-4.8-1.5-6.9c-0.3-1.5-0.7-2.9-1.6-4.1
		c-2.1-2.8-3.3-6.2-4.9-9.3C782.5,355.1,782,354.1,783.1,353.3L783.1,353.3z"/>
	<path d="M765.4,378c-6.3-5.9-12.2-12.2-17.2-19.3c5.9,6.3,11.9,12.5,17.8,18.8C765.9,377.7,765.6,377.9,765.4,378z"/>
	<path d="M796.2,308c-0.4-2.8-0.4-2.8,1.3-4.8C797.9,304.9,797.9,306.4,796.2,308z"/>
	<path d="M774.1,361.4c-0.1-2.4-1.3-4.7-0.9-7.7C774.4,356.5,774.5,358.9,774.1,361.4z"/>
	<path d="M794.4,317.2c-0.3-2.2-0.5-3.7,0.7-5.1C795.7,313.6,795.3,315.1,794.4,317.2z"/>
	<path d="M759.6,353.4c1.2,0.8,0.8,1.8,0.8,2.9c-1.1,0-0.8-0.9-1.1-1.4C759,354.5,758.9,353.9,759.6,353.4z"/>
	<path d="M807,349.5c0.9,1.4,0.6,2.2,0.2,3.5C806.4,351.8,806.3,350.9,807,349.5z"/>
	<path d="M799.3,299.6c0.7,1,0.5,1.7-0.6,2.4C797.8,300.9,798.2,300.2,799.3,299.6z"/>
	<path d="M807.2,358.9c-0.9-1.2-0.9-2.1-0.3-3.2C807.9,356.6,807.6,357.5,807.2,358.9z"/>
	<path d="M794.2,322.4c0.7,0.8,0.7,1.4,0.3,2.1C793.8,324,793.3,323.4,794.2,322.4z"/>
	<path d="M791.9,378.8c-0.9-0.6-0.9-1.3-0.5-2.3C792.3,377.1,792.5,377.8,791.9,378.8z"/>
	<path d="M792.7,308.6c-0.9,0.2-1.4-0.1-1.7-0.8C792,307.3,792.4,307.7,792.7,308.6z"/>
	<path d="M807.2,347.9c-0.6-0.5-0.6-1.1-0.2-1.7C807.9,346.7,807.8,347.2,807.2,347.9z"/>
	<path d="M755.6,355.3c0.6,0.4,0.9,1,1,2c-1.1-0.2-1.2-1-1.4-1.7C755.3,355.6,755.5,355.4,755.6,355.3z"/>
	<path d="M724.3,509.4c0.3,1.8-0.7,3-1.3,4.3c-1.2,3.1-1.7,5.9,0.6,8.9c2,2.4,1.1,5.2-0.2,7.8c-0.2-2-0.9-3.6-2.2-5.1
		c-1.5-1.8-2.2-3.8-1-6.5c0.9-2,0.5-4.6,1.5-6.8C722.2,511,722.4,509.5,724.3,509.4z"/>
	<path d="M707,537.5c-1.6,6-3.2,12-4.8,18C701.4,549.9,703.8,540.5,707,537.5z"/>
	<path d="M690.4,615.3c-1.2,4,0.1,8.4-1.5,12.4C688.9,623.5,688.6,619.3,690.4,615.3z"/>
	<path d="M728.5,506.5c-3.7-0.8-5.8-2.4-7.4-5.7C723,501,726,503.3,728.5,506.5z"/>
	<path d="M719.5,490.4c1,2.6,1.7,5.2,0.9,7.9C719.3,495.7,718.7,493.1,719.5,490.4z"/>
	<path d="M704.3,511c-0.6-2.8,0-4.8,1-6.8C706.4,506.4,705.6,508.4,704.3,511z"/>
	<path d="M705.6,511.8c-0.3,1.9,1,3.7,0.4,5.7C703.3,515.9,703.2,515.1,705.6,511.8z"/>
	<path d="M691.4,557.7c-0.1,2.1,0.4,4.3-1,6.8C689.5,561.6,690.3,559.6,691.4,557.7z"/>
	<path d="M715.4,529.8c-0.9-1.5-1.8-3-2.7-4.6c0.2-0.1,0.4-0.3,0.7-0.4C715.1,525.9,715.3,527.8,715.4,529.8z"/>
	<path d="M699.5,564.5c0.8,2.4,0,3.5-1.2,5.1C697.7,567.4,698.3,566.2,699.5,564.5z"/>
	<path d="M699.9,562.3c-0.3-1.9-0.4-3.3,1.3-4.9C701.5,559.5,701.5,561,699.9,562.3z"/>
	<path d="M696,577.2c0-1.4,0.1-2.6,1.4-3.6C698.2,575.5,697.3,576.5,696,577.2z"/>
	<path d="M695,543.5c0.9,1.4,0.3,2.4-0.2,3.8C694.2,545.3,694.2,545.3,695,543.5z"/>
	<path d="M691,609.2c1.5,1.8,0.7,2.8,0,4.2C690.2,612,690.6,611,691,609.2z"/>
	<path d="M739.9,502c-0.8-1.3-0.9-2.2-0.1-3.3C740.9,499.6,740.9,500.5,739.9,502z"/>
	<path d="M711.8,513.3c-0.7-1.1,0.2-1.6,0.3-2.4C712.8,511.7,712.7,512.5,711.8,513.3z"/>
	<path d="M712.5,508.3c-0.3-1-0.2-1.6,0.8-2C713.6,507.3,713.4,507.9,712.5,508.3z"/>
	<path d="M697.1,531.4c-0.9-0.8-0.7-1.3,0.1-1.8C697.9,530.1,697.7,530.6,697.1,531.4z"/>
	<path d="M696.4,536.4c0.7,0.9,0.5,1.5-0.5,2.1C695.4,537.6,695.3,536.9,696.4,536.4z"/>
	<path d="M710.7,518.5c-0.3-0.4-0.3-1.1,0.1-1.2c0.8-0.2,0.7,0.3,0.4,0.8C711.2,518.3,710.9,518.4,710.7,518.5z"/>
	<path d="M735.2,504.1c-0.2,0.6-0.5,1.1-0.7,0.9C734,504.6,734.3,504.3,735.2,504.1z"/>
	<path d="M730.5,507.3c0.4-0.6,1-0.6,1.3-0.1c0.2,0.4-0.4,0.7-0.9,0.6C730.7,507.7,730.7,507.5,730.5,507.3z"/>
	<path d="M730.8,514.8c0.8,0.2,0.9,0.6,0.6,1.3C730.5,516,730.2,515.6,730.8,514.8z"/>
	<path d="M783.6,501.1c1,0,1.3,0.5,1.5,1.5c0.6,5.2,1.3,10.3,1.9,15.5c0.1,1.3,1.9,2.4,0.5,3.8c-3.9-2.1-4.7-5.8-2.3-10.1
		C783.6,508.5,781.4,505.1,783.6,501.1L783.6,501.1z"/>
	<path d="M783.5,501.2c-1.8,1.1-3.4,2.5-5.7,2.2c-1.4-0.2-2.7-0.5-3.6-2.6c4.2,0.1,7.9-0.6,11.4-2.5l0.1,0.1
		c-0.3,1.2-1.5,1.7-2.1,2.7L783.5,501.2z"/>
	<path d="M770.4,540.2c-0.8-2.1-1.6-4.2-2.5-6.4C770.3,534.5,770.9,535.8,770.4,540.2z"/>
	<path d="M785.6,498.3c1.2-2.1,3-3.4,5.6-5.1C790.2,496.6,788.3,497.8,785.6,498.3L785.6,498.3z"/>
	<path d="M773.5,554.4c-1.6-1.6-1.1-3-1-4.8C774.4,550.9,773.6,552.5,773.5,554.4z"/>
	<path d="M771.6,496.5c1.4,0.7,2.4,1.5,2.8,3C772.5,499.1,772.5,499.1,771.6,496.5z"/>
	<path d="M773.1,565.8c0.2,1.4,0.1,2.6-0.9,4.2C771.5,568,771.9,566.8,773.1,565.8z"/>
	<path d="M773.4,560.4c-0.6-1.1-0.8-2-0.1-3.2C774.5,558.3,774.9,559.3,773.4,560.4z"/>
	<path d="M762.9,515.8c-1.2-0.4-1.6-1.3-1.9-2.6C763,513.5,762.6,514.9,762.9,515.8z"/>
	<path d="M765.6,531.7c-0.9-0.5-1.2-1-0.6-1.7C766.1,530.1,766.1,530.7,765.6,531.7z"/>
	<path d="M786.8,525.3c0.6,1.5,0.6,2.2-0.1,2.8C785.5,527.4,786.2,526.7,786.8,525.3z"/>
	<path d="M770.8,575.1c0.2,1.1-0.3,1.6-1.1,1.9C769.1,575.7,770.3,575.6,770.8,575.1z"/>
	<path d="M769,491.5c1.5,0.6,1.4,1.5,1.6,2.8C769.1,493.6,768.8,492.8,769,491.5z"/>
	<path d="M768.2,581.3c0.1,1.3-0.4,1.7-1.2,1.9C766.6,582.2,767.1,581.8,768.2,581.3z"/>
	<path d="M767,602.5c0.3,0.4,0.4,0.8-0.1,1.2C766.6,603.3,766.6,602.9,767,602.5z"/>
	<path d="M767,609.5c-0.4-0.5-0.5-1,0-1.5C767.4,608.5,767.5,609,767,609.5z"/>
	<path d="M766.4,584.3c0.3,1.4-0.1,1.7-0.9,1.7C764.9,585.1,765.6,584.9,766.4,584.3z"/>
	<path d="M752.8,137.6c3.5-3.7,10.2-4.5,14.4-1.8c0.1,1-0.4,1.8-1.3,1.7c-2.2-0.2-4.4-0.6-6.6-1
		C757.1,136.1,755.4,138.8,752.8,137.6z"/>
	<path d="M733,202c3.7,0.7,7.3,1.4,11,2.1c1.4,0.3,3,0.5,4,2.6c-5-1.1-9.5-1.8-13.9-3.3C733.5,203.2,732.9,202.8,733,202L733,202z"
		/>
	<path d="M733.1,201.9c-0.8,0.1-1.7,0.2-2-0.9c-0.7-3.1-2.2-6.1-1.7-9.9C732.4,194.4,732.4,198.3,733.1,201.9L733.1,201.9z"/>
	<path d="M764.4,138.9c0.5,0.5,0.4,0.9,0.2,1.4c-0.1,0.4,0,0.9,0,1.5c-2.1,2.1-4.5-0.1-7.3,0.8C759.3,139.4,762,139.4,764.4,138.9z"
		/>
	<path d="M735,165.5c-1.1-2-1.4-4.1-1.5-6.3l-0.1,0.1c0.3-0.2,0.6-0.3,1.2-0.6c1.5,3,1.5,6.9,5,8.8C737.3,168,736.5,165.9,735,165.5
		L735,165.5z"/>
	<path d="M744.8,188c-0.3-0.1-0.9-0.1-1-0.3c-0.5-3.4-2-6.5-3.4-9.6C743.6,180.6,745.6,183.7,744.8,188L744.8,188z"/>
	<path d="M723.8,171.5c-0.5-2.3-0.5-2.3-0.1-3.8C724.5,169,724.5,169,723.8,171.5z"/>
	<path d="M735,165.4c0.2,1,0.4,2,0.7,3.4C734,166.5,734,166.5,735,165.4L735,165.4z"/>
	<path d="M724.8,176.5c-1.3-0.8-1.4-1.8-0.8-3.1C725.1,174.3,725.3,175.2,724.8,176.5z"/>
	<path d="M755.6,177.2c-1.6,0.8-2.5-0.5-3.6-1.2C753.3,176.1,754.6,176.1,755.6,177.2L755.6,177.2z"/>
	<path d="M728.6,188.3c-0.9-1.2-1.4-1.8-0.8-2.9C729,185.9,728.9,186.8,728.6,188.3z"/>
	<path d="M726.4,182.7c-1.1-0.7-1.5-1.4-1.1-2.4C726.5,180.5,726.7,181.4,726.4,182.7z"/>
	<path d="M744.7,188c1.6,0,1.5,1,1.4,2.1C745.2,189.6,745,188.8,744.7,188L744.7,188z"/>
	<path d="M762.4,221.7c1.1,0.3,1.3,0.9,1.6,1.7C762.8,223.2,762.6,222.6,762.4,221.7z"/>
	<path d="M744,154.1c-1.3,0-1.7-0.4-1.9-1.3C743.2,152.6,743.5,153.2,744,154.1z"/>
	<path d="M737.7,174.4c0.8,0.2,1,0.6,0.6,1.3C737.6,175.5,737.2,175.2,737.7,174.4z"/>
	<path d="M745.3,155.2c1.2-0.6,1.2,0.3,2.2,0.9C746,156.4,745.5,156.1,745.3,155.2z"/>
	<path d="M705.1,668.8c-5.8,0.4-7.6-0.5-7.6-3.7c0-2.4,1.8-4.1,4.3-3.9C704.9,661.4,705.7,663.1,705.1,668.8z"/>
	<path d="M697.1,664.5c-1.5,3.4-2.8,4.3-5.3,3.7c-2.1-0.5-3.3-1.8-3.2-3.9c0-2.2,1.4-3.4,3.4-3.8
		C694.3,660.1,695.8,661.3,697.1,664.5z"/>
	<path d="M681.7,667.3c-0.6-2.5-0.3-4.8,0.1-7c1.3-1,2.6-0.4,3.8-0.2c2.2,0.4,3.3,2.1,1.9,3.6c-1.3,1.4-0.3,2.5-0.3,3.7
		c-2.1,0.5-1.8-2.1-2.8-2.1C682.5,665,683.5,667.1,681.7,667.3z"/>
	<path d="M717.2,660c3-1.4,5.6-2.9,9-2.3C724.7,660.9,722.4,661.4,717.2,660z"/>
	<path d="M723,662.8c1.7-1.6,3.1-3.3,5.6-2.8c0.2,0,0.5,0.5,0.5,0.8s-0.2,0.6-0.4,1.1c0.9,0.3,2-0.7,2.8,0.5c-0.1,0.2,0,0.7-0.2,0.8
		c-0.7,0.6-1.5,0.5-2.3,0.2C727,662.6,725.1,662,723,662.8z"/>
	<path d="M772.5,423.4c-0.1-3.4,2.2-11.4,4.6-15.9C777.2,410.1,774,421.1,772.5,423.4z"/>
	<path d="M776.2,400.4c-2.7-4.7-4.4-9.8-5.8-15.1C772.6,390.3,775.2,395.1,776.2,400.4z"/>
	<path d="M780.9,404.4c3.2-0.5,6.3-1.1,9.6-0.6C787.4,405.1,784.1,404.7,780.9,404.4z"/>
	<path d="M808.8,420.9c3-5.7,6-11.5,9-17.2c0.2,0.1,0.5,0.2,0.7,0.4c-2.5,6-5.4,11.9-9.5,17.1C809,421,808.9,420.9,808.8,420.9z"/>
	<path d="M811.6,385.9c-1-1.1-2-2.1-2.4-4.3c1.7,1.3,2.3,2.7,2.6,4.1C811.8,385.7,811.7,385.8,811.6,385.9z"/>
	<path d="M811.9,385.6c1.2,1.3,2.1,2.7,2.7,4.4l0.1-0.1c-1.9-0.7-2.3-2.5-3-4.1C811.7,385.8,811.8,385.7,811.9,385.6z"/>
	<path d="M815.9,392.8c1.2,0.3,0.4,1.7,1.3,2.2C816.2,394.6,816,393.7,815.9,392.8L815.9,392.8z"/>
	<path d="M814.5,390c1.2,0.6,1.5,1.6,1.4,2.9l0.1-0.1C814.9,392.1,814.5,391.1,814.5,390L814.5,390z"/>
	<path d="M698.2,363.2c1.6-6,4.6-10.7,6.2-16.2c1.6,0.5,1.9,1.6,1.4,3C704.2,354.7,702.3,359.1,698.2,363.2z"/>
	<path d="M706.7,377.2c-0.2,1.9-1.5,2.7-3.1,3.2C704.3,379,705.2,377.8,706.7,377.2z"/>
	<path d="M714.5,377.5c1,1.7,0.1,2.4-1,3.3C713.5,379.5,713.8,378.7,714.5,377.5z"/>
	<path d="M715.1,365.5c-0.7-0.4-1.1-0.8-0.9-1.5C715.1,363.9,715.2,364.4,715.1,365.5z"/>
	<path d="M716.3,370.1c0.6,0.7,0.4,1.2,0.1,1.7C715.6,371.4,715.7,370.9,716.3,370.1z"/>
	<path d="M443.6,624.9c-1.1-3.2-1.8-6.4-2.3-9.6c-1.3-7.9-1.5-15.8-1.4-23.8c0.1-6.7-1.1-13.3-2.1-19.9c-0.5-3.6-1-7-3.6-9.8
		c-0.8-0.8-1.8-2-0.8-3.6c5.3,4.9,7.4,10.5,7.6,17.8c0.1,5.3,0.6,10.7,0.4,16c-0.3,10.5,0.8,20.8,2.7,31.1
		C444.1,623.7,444.3,624.2,443.6,624.9z"/>
	<path d="M457.7,632.7c0.1,3,0.7,5.7,2,8.4c1.2,2.3,1.9,4.8,2.7,7.2c0.8,2.5,1.7,4.6,4.2,6.1c3.1,2,3.5,5,0.3,7.9
		c-2.9,2.7-4.3,5.9-5.8,9.3c-0.6,1.5-1.8,2.1-3.3,2.1c-1.6,0.1-2.3-0.8-2.3-2.4c1.1-0.7,1.5,0.9,2.7,0.7c1.8-0.8,2-2.9,2.6-4.5
		c3.6-9.4,3.6-9.5-0.8-18.5c-2.1-4.4-2.9-9.1-3.4-13.9C456.5,634.3,456,632.9,457.7,632.7z"/>
	<path d="M433,495.5c0.9,3.1,2,5.6,3.6,7.9c0.8,1.2,1.7,2.1,3.4,2.1c3.3,0,5.6,1.8,7.7,4.1c0,1.1-0.8,1.9-0.8,3.1
		c-0.6-1.1,0-2.8-1.5-3.4c-1.2-0.5-2.4-0.7-3.7-0.6c-2.2,0.3-3.9-0.5-5.4-2.4c-1.7-2.1-3.2-4.3-4-6.9
		C431.9,498.3,431.5,497,433,495.5z"/>
	<path d="M454.2,552.5c-1-0.5-2.1-1.1-3.1-1.6l0.1,0.1c-2.7-5-4.4-14-2.9-17.4c1.6,2.1,2.1,4.4,2.7,6.6c0.5,1.9,0.4,3.9,0.4,5.8
		c0,1,0.3,1.7,1,2.5C453.3,549.7,454.3,550.9,454.2,552.5L454.2,552.5z"/>
	<path d="M457.3,485.9c-4.2-2.2-6.9-8.4-5.9-13.1C453.2,477.1,455.8,481,457.3,485.9z"/>
	<path d="M451.1,550.9c0.6,3.7,0.9,7.4,0.8,11.2C448.7,560,448.4,553.9,451.1,550.9L451.1,550.9z"/>
	<path d="M452.2,563.5c1.6,2.8,0.6,5.6,0.4,8.2c-0.1,2.6,0,5.3,0.2,8.3C451.1,577.9,450.8,566.8,452.2,563.5z"/>
	<path d="M466.6,433.5c0.2,1.1-0.4,1.4-1.3,1.4c-2.2,0.1-4.3-0.4-6.4-1.2C461.5,431.8,464.1,433.4,466.6,433.5L466.6,433.5z"/>
	<path d="M468,435.8c6.3-2.2,6.3-2.2,8.4-1.2C473.6,435.1,470.8,435.5,468,435.8z"/>
	<path d="M449.3,605.5c-1-4-0.7-8.2-0.5-12.3C449,597.3,448.9,601.4,449.3,605.5z"/>
	<path d="M448.4,432c3.1-1.5,5.4-0.9,7.2,2C453.1,433.3,450.8,432.7,448.4,432z"/>
	<path d="M451.6,462.1c0.2,2.6,0.3,5.2,0.5,7.9c-0.3,0-0.7,0.1-1,0.1c-0.4-2.6-0.8-5.2-0.6-7.8C450.9,462.2,451.3,462.1,451.6,462.1
		z"/>
	<path d="M448.2,470.8c-1.8-1.5-2.5-3.6-3-5.9C447.2,466.3,447.8,468.4,448.2,470.8z"/>
	<path d="M429.7,556.9c1.6,1.8,0.6,3.5,0.5,5.3C428.6,559.6,428.6,559.6,429.7,556.9z"/>
	<path d="M443.8,521.2c0.2-2.1,0.7-4.2,1.9-6c0.2,0.1,0.5,0.1,0.7,0.2c-0.6,2-1.1,4-1.7,6.1C444.3,521.4,444,521.3,443.8,521.2z"/>
	<path d="M454.1,552.6c1.7,0.6,1.9,2,1.7,3.6C454.6,555.3,453.2,554.5,454.1,552.6L454.1,552.6z"/>
	<path d="M466.7,433.6c0.4-2.2,2.3-2,3.8-2.5C469.6,432.6,468.6,433.8,466.7,433.6L466.7,433.6z"/>
	<path d="M429.6,514.6c-0.6-1.5-0.5-2.7,0.9-3.7C431.4,512.6,430.3,513.6,429.6,514.6z"/>
	<path d="M457.7,565.3c-1.2-1-1.8-1.7-1.8-2.8c0.1-0.1,0.4-0.4,0.5-0.4C457.9,562.5,457.7,563.7,457.7,565.3z"/>
	<path d="M451.7,450.3c-0.5-1.4,0-2.3,0.7-3.2C453.3,448.3,452.5,449.1,451.7,450.3z"/>
	<path d="M444.8,461.8c-1-1.2-1.5-1.9-1-3C445,459.3,445,460.3,444.8,461.8z"/>
	<path d="M431.3,470c1.1-0.3,1.1,0.4,1.7,1C431.9,471.1,431.4,470.9,431.3,470z"/>
	<path d="M436.6,441.4c0.2-1.5,0.6-2.2,1.7-2.4C438.3,440.1,437.6,440.7,436.6,441.4z"/>
	<path d="M457.3,560.6c-1.4-0.8-1.4-1.4-1.3-2.3C457,558.5,456.8,559.4,457.3,560.6z"/>
	<path d="M451.5,457.3c-0.9-0.6-0.6-1,0-1.4C452.1,456.2,451.9,456.7,451.5,457.3z"/>
	<path d="M441.8,450.1c0.3,0.5,0.5,1,0.1,1.5c-0.7-0.2-1-0.6-0.7-1.4C441.4,450.2,441.6,450.1,441.8,450.1z"/>
	<path d="M501.1,468.2c0.1,0.7-0.1,1.3-0.8,1.7c-0.6-0.8,0-1.3,0.2-1.8C500.9,467.8,501.1,467.9,501.1,468.2z"/>
	<path d="M442.4,454.9c0.8,0.4,0.9,0.9,0.4,1.7C441.9,456.2,441.9,455.6,442.4,454.9z"/>
	<path d="M429.1,446.6c-0.2-0.8,0.2-1.1,0.8-1.2C430.4,446.4,429.9,446.6,429.1,446.6z"/>
	<path d="M428.9,520.6c-0.6-0.5-0.3-0.9,0.3-1.4C429.8,519.8,429.7,520.2,428.9,520.6z"/>
	<path d="M375.6,533.8c-0.5,0.2-1,0.4-1.5,0.6c4.5-5.9,11.4-8,17.6-12.6c-0.4,2.1-1.6,2.3-2.4,2.9c-0.8,0.6-1.6,1.4-2.6,1.8
		c-6.5,2.9-9.5,8.6-12.1,14.7c-1,2.4-1.9,4.9-3.7,7C371.9,543.2,373.1,538.4,375.6,533.8z"/>
	<path d="M384.5,549.7c0.9-0.3,1.7-0.6,2.6-0.9c1.9-3.9,4.5-7.1,7.1-10.4c-0.6,4-3.9,6.6-5.3,10.3c1.1,1.5,3.1,0.7,4.8,2.1
		c-2.1,6.7-4.6,13.5-5.6,20.7c-0.4-7.3,1.9-14,5.1-20.8c-2.4-0.6-4.4-1.6-6.2,0.9C386.8,550,385.4,550.2,384.5,549.7L384.5,549.7z"
		/>
	<path d="M360.2,567.7c2.6-8.3,6.6-16.1,8.6-24.6c1.7,0.9,1.5-1.5,3.2-2.4C367.3,549.8,364.8,559.2,360.2,567.7z"/>
	<path d="M401.7,473.4c1.5-5.8,4.4-10.8,8.1-15.4c1,0.9,0.7,1.5,0.3,2.1c-2.4,4-4.9,7.9-6.9,12.1
		C402.9,472.9,402.4,473.4,401.7,473.4L401.7,473.4z"/>
	<path d="M412.8,498.4c3.2-0.4,1.2-3.6,3.4-4.5c1.3,1.3,0.6,3,0,4.1c-1.7,2.7-1.5,5.2-0.5,7.9c0.1,0.3,0,0.7,0,1
		c0,0.1-0.2,0.2-0.4,0.4C412.2,505,414.2,501.4,412.8,498.4z"/>
	<path d="M376.9,563.1c0.3,4.9,1.3,9.7,1.5,14.6C376.7,573,376.5,568.1,376.9,563.1z"/>
	<path d="M379.6,546.3c0,0.6-0.1,1.1-0.1,1.8c1.7,0.5,3.4,1.1,5.1,1.6l0.1-0.1c-1.3,0.2-2.6,0.2-3.7-0.3c-1.4-0.5-2.3,0.4-3.7,1.2
		c0.4-2.2,1.5-3.2,2.3-4.4L379.6,546.3z"/>
	<path d="M406.5,501.5c-1.3-1.8-1.9-3.4,0.4-5.3C408.2,498.3,406.8,499.9,406.5,501.5z"/>
	<path d="M401.6,473.4c0.4,0.5,0.9,1,1.4,1.6c-1,1.3-1.6,2.8-3.2,3.5l0.1,0.1C399.4,476.5,401.7,475.4,401.6,473.4L401.6,473.4z"/>
	<path d="M364.1,530c0.2,0.7-0.8,0.8-0.8,1.4c-1.6-0.1-2.6,1.7-4.3,1.4C360.5,531.5,361.9,530.2,364.1,530z"/>
	<path d="M378.9,517.2c1.5,0.6,2.4,1.7,2.9,3.9C380.1,519.9,379.6,518.5,378.9,517.2z"/>
	<path d="M381.6,541.3c-0.2,1.9-0.8,3.6-2,5l-0.2-0.2C379.8,544.4,380.2,542.6,381.6,541.3L381.6,541.3z"/>
	<path d="M399.8,478.5c0.6,1.9-0.8,2.5-2.4,3.6C397.6,480.1,398.9,479.4,399.8,478.5L399.8,478.5z"/>
	<path d="M393.8,491.4c0.8-1,1.7-0.7,2.7-0.4C395.4,492,395.4,492,393.8,491.4z"/>
	<path d="M414,550.8c-1.7,0.3-2.7,0.3-3.9,0C411.3,550.8,412.3,550.8,414,550.8z"/>
	<path d="M406.3,505.4c-1-0.4-1.8-1-1.1-2.4C406.9,503.2,406.2,504.5,406.3,505.4z"/>
	<path d="M382.2,489.6c0.3-1.8,0.8-2.6,2.1-3.3C384.3,487.9,383.8,488.8,382.2,489.6z"/>
	<path d="M401,550.2c1.4,0.6,2.9,0.5,4.3,0.1h-0.1C403.8,551.2,402.4,551.4,401,550.2L401,550.2z"/>
	<path d="M381.7,541.4c-0.2-1.1-0.5-2.2,1-3.6C382.6,539.5,382.5,540.5,381.7,541.4L381.7,541.4z"/>
	<path d="M402.4,490.5c0.5-1.2,1.2-1.5,2.2-1.2C404.4,490.7,403.5,490.7,402.4,490.5z"/>
	<path d="M414.7,520.7c-0.1,1.8-1,1.8-1.8,2.2C413,521.6,413.7,521.3,414.7,520.7z"/>
	<path d="M392.3,530.8c-0.1-0.8,0.7-0.7,1.1-1.1C393.5,530.7,392.8,530.6,392.3,530.8L392.3,530.8z"/>
	<path d="M392.2,530.7c-0.3,0.6-0.7,1-1.4,0.9C391,530.8,391.5,530.6,392.2,530.7L392.2,530.7z"/>
	<path d="M401,550.1c-0.6,0.1-1.2,0.1-2.1,0.2C399.8,549.6,400.4,550.4,401,550.1L401,550.1z"/>
	<path d="M405.3,550.2c0.6-0.1,1.1-0.1,1.7-0.2c0,0.1,0,0.2,0,0.3C406.4,550.3,405.8,550.2,405.3,550.2L405.3,550.2z"/>
	<path d="M390.8,479.2c-0.3,1.1-0.6,1.6-1.6,1.4C389.2,479.7,389.8,479.5,390.8,479.2z"/>
	<path d="M386.4,482.7c0.2,1.4-0.3,1.9-1.1,2.2C384.8,483.8,385.6,483.4,386.4,482.7z"/>
	<path d="M374.6,513.9c-0.6-0.3-1-0.7-1-1.4C374.4,512.7,374.6,513.2,374.6,513.9L374.6,513.9z"/>
	<path d="M504.9,583.6c4.3-6.7,7.9-13.6,10.7-21.1c0.2-0.6,0.6-1.3,1.5-1.3C518.9,565.8,511.4,579.5,504.9,583.6L504.9,583.6z"/>
	<path d="M514.8,541.1c3.1-1.2,5.6-2.5,8.3-3.1c3.1-0.7,4.5-2.6,5.1-5.5c0.4-2.2,0.9-4.3,1.4-6.8c1.6,5.3-0.7,10.7-5.1,12.8
		c-1.9,0.9-3.7,1.9-5.7,2.8C517.7,541.7,516.6,542.6,514.8,541.1z"/>
	<path d="M525.8,549.6c1.7,2,4,3.8,3.6,7.2c-5.5-5.8-6.1-7.7-4.1-11.3C527,546.8,524.9,548.3,525.8,549.6z"/>
	<path d="M536,539.7c-0.1,3.3-2.2,6-1.6,9.2C532,545.3,532.7,541.2,536,539.7z"/>
	<path d="M468.5,625.6c-0.3,1.9-1.1,3.4-3,4.5C465.1,627.5,467,626.7,468.5,625.6z"/>
	<path d="M504.8,583.5c-0.2,2.4-2.2,3.1-4,3.9C501.8,585.8,502.4,583.7,504.8,583.5L504.8,583.5z"/>
	<path d="M536.1,537.4c-1.5-0.9-1.4-2.5-2-4.1C536,535.4,536,535.4,536.1,537.4z"/>
	<path d="M495.2,591.4c0.5-1.7,1.6-1.7,2.4-2.4c1,1,0,1.3-0.4,1.6C496.7,590.8,496.2,591,495.2,591.4z"/>
	<path d="M485.5,595.6c0.5-1.7,0.9-2,1.9-1.8C487.6,595,486.6,594.8,485.5,595.6z"/>
	<path d="M513.4,551.6c0.6,0.6,1.1,1.1,0.4,1.9C513.1,553.1,512.8,552.6,513.4,551.6z"/>
	<path d="M528.5,523.1c-1.1,0.2-1.4-0.4-1.6-1.3C528,521.7,528.4,522.1,528.5,523.1z"/>
	<path d="M499.3,545.7c-0.1,0.3-0.5,0.4-0.8,0.3c-0.4-0.1-0.5-0.4-0.3-0.8c0.1-0.2,0.4-0.3,0.6-0.3
		C499.1,545,499.3,545.3,499.3,545.7z"/>
	<path d="M509.7,549.7c0.4-0.7,1-1.1,1.9-1.4C511.7,550.1,510.5,549.6,509.7,549.7L509.7,549.7z"/>
	<path d="M514.9,557c0.6,0.9,1,1.3,0.3,1.8C514.3,558.4,514.7,557.9,514.9,557z"/>
	<path d="M470.7,622.2c0,0.9-0.3,1.3-0.9,1.4C469.4,622.8,469.7,622.4,470.7,622.2z"/>
	<path d="M492.4,592c-0.5,1-0.9,1.4-1.6,1.1C490.7,592.1,491.3,592,492.4,592z"/>
	<path d="M493.6,371c1.1,2.1,3.3,3.2,4.8,5.3c-0.7,0.8-3.6,0.2-2.4,2.8c0.7,1.6,3.5,0.6,3.4,3.3c-1,2-2.9,1.3-4.9,1.1
		c0.2-2.6-1-5.2,0.9-7.5c-0.3-1.2-1.1-1.9-2-2.6c-3.3,2.6,1.8,5.7-0.5,8.5c-1-1.5-0.6-3.4-2-4.4c-3.1,1,0.1,2.5-0.4,4
		c-1.6-0.7-2.4-1.8-3-3.5c1.8-1.5,3.1-3.4,3.7-5.7c0.4-1.4,1.4-1.4,2.5-1.1L493.6,371z"/>
	<path d="M520.6,366.6c3.7-3.8,10.7-4.6,15.2-1.8c0.1,1.3-0.6,2.2-1.8,1.9c-4.2-1.1-8.4-1.1-12.5,0.3
		C521.3,366.9,521,366.7,520.6,366.6z"/>
	<path d="M525.2,371.7c2.5-2.9,5.2-3.1,7.9-3.6c0,1.1,0,2,0,3C530.8,373.2,528.3,371.2,525.2,371.7z"/>
	<path d="M501.4,388.4c1.4,4.1,1.7,7.8,5.2,9.9C501.8,397.7,499.4,393.6,501.4,388.4z"/>
	<path d="M506,407c-0.8,4.3-0.4,8.4,0.9,12.4C503.7,416.2,503.2,410.3,506,407z"/>
	<path d="M492.5,395.5c-1.4-1.5-1.7-3-0.1-5C493.4,392.3,492.4,393.9,492.5,395.5z"/>
	<path d="M493.3,400.3c-1.5-1.3-1.2-2.3-0.7-3.7C494,397.8,493.7,398.9,493.3,400.3z"/>
	<path d="M493.5,404.3c-0.8-1.2-0.9-2-0.6-2.8C493.8,401.2,494,401.7,493.5,404.3z"/>
	<path d="M504.6,438.6c0-1.3,0.8-1.8,1.8-2.5C506.2,437.8,506.2,437.8,504.6,438.6z"/>
	<path d="M488.1,418.5c-1-0.7-1.1-1.3,0-2.1C488.7,417,488.8,417.6,488.1,418.5z"/>
	<path d="M506.1,446c-0.4,1.1-1.1,1.2-2.2,0.8C504.5,445.9,505.1,445.5,506.1,446z"/>
	<path d="M488.2,420.4c0.8,0.9,0.4,1.4-0.3,2.3C487.1,421.5,487.3,420.9,488.2,420.4z"/>
	<path d="M514.6,404.1c-0.6,1.1-1.3,1.8-2.6,1.9C512.4,404.8,513,403.9,514.6,404.1z"/>
	<path d="M493.6,409.2c-1,0-1-0.8-1.5-1.5C493.5,407.5,493.7,408.1,493.6,409.2z"/>
	<path d="M514.4,386.4c-1.1,0.2-1.6-0.2-1.8-1.3C513.5,385,514,385.3,514.4,386.4z"/>
	<path d="M509,382.8c1.3-0.1,1.8,0.4,2,1.3C510,384.4,509.4,384,509,382.8z"/>
	<path d="M488.5,424.3c0.6,1.1,0.2,1.5-0.4,2C487.6,425.6,487.6,425,488.5,424.3z"/>
	<path d="M514.6,637.8c2.8,4.8,3.7,10.4,6.2,15.3c0.1,0.3,0,0.6-0.2,1C517.8,648.9,515.7,643.5,514.6,637.8L514.6,637.8z"/>
	<path d="M479.1,644.4c2.7,4.2,4.7,8.9,6.2,13.8C482.5,654,481.2,649.1,479.1,644.4z"/>
	<path d="M485.3,660.8c-0.8,3.1-2,5.9-4.1,8.4C481.9,666,483.4,663.3,485.3,660.8z"/>
	<path d="M517.3,663.6c0.8-2.6,2.6-4.6,4.1-6.7c-0.5,2.7-2.2,4.8-3.6,7.1c-0.2,0.1-0.4,0.1-0.6,0.2
		C517.2,664,517.2,663.8,517.3,663.6z"/>
	<path d="M525.6,655c1.4-1.1,2.9-0.9,5-0.7C528.8,655.8,527.1,654.8,525.6,655z"/>
	<path d="M517.7,664c-0.7,1.7-1.5,3.2-2.9,4.5c0.2-1.9,1.2-3.5,2.4-4.9C517.4,663.7,517.6,663.8,517.7,664z"/>
	<path d="M496.6,659.3c-1.2,0-2.5,0-3.7,0c0-0.1,0-0.1,0-0.2c1.2,0,2.5,0,3.8,0C496.6,659.2,496.6,659.3,496.6,659.3z"/>
	<path d="M514.7,637.7c-1.1-0.8-1.1-2-1.2-3.2C514.2,635.5,514.9,636.5,514.7,637.7L514.7,637.7z"/>
	<path d="M467.3,636.4c-1.2-0.1-2.5-0.2-3.7-0.3C464.9,635.8,466.2,635.4,467.3,636.4L467.3,636.4z"/>
	<path d="M467.3,636.5c1.1,0,2.2,0,3.4,0C469.5,637,468.4,637,467.3,636.5L467.3,636.5z"/>
	<path d="M477.9,675.6c0,0.2,0,0.4-0.1,0.6c0,0-0.1,0-0.2,0.1C477.5,676,477.5,675.7,477.9,675.6z"/>
	<path d="M432.6,671.6c-5.9,0.3-7.6-0.6-7.6-3.7c0-2.4,1.8-4.1,4.3-3.9C432.5,664.2,433.3,666,432.6,671.6z"/>
	<path d="M424.7,667.4c-1.7,3.5-3.1,4.4-5.5,3.7c-2.1-0.6-3.2-2-3.1-4.1c0.1-2,1.4-3.1,3.2-3.6C421.7,662.8,423.2,663.9,424.7,667.4
		z"/>
	<path d="M409.1,669.9c-0.3-2.4-0.2-4.7,0.3-6.9c1.5-0.7,2.8-0.2,4-0.1c2,0.3,2.8,1.8,1.9,3.2s-1,2.7-0.5,4.2
		c-2.1,0.2-1.8-2.3-3.4-2.3C410,667.9,411.1,670.6,409.1,669.9z"/>
	<path d="M451.1,670.1c-1.9,1.6-4.1,1.4-6.3,1.1C446.9,670.9,449,670.4,451.1,670.1z"/>
	<path d="M429.5,643.8c-2.4,0.6-4.8,0.2-7.7-0.8C424.8,642.4,427.1,643.7,429.5,643.8z"/>
	<path d="M441.1,668.7c-0.6-1.4-1.2-2.8-1.8-4.2C440.7,665.5,441.4,666.9,441.1,668.7z"/>
	<path d="M435.3,681.5c-0.8,1.3-1.6,2.5-2.4,3.8c0-1.8,0.7-3.1,2.2-4C435.1,681.4,435.2,681.4,435.3,681.5z"/>
	<path d="M438,677.2c0.5-0.6,1-1.1,1.7-2c0.1,1.3-0.6,1.7-1.2,2.3c-0.1,0.1-0.2,0.1-0.2,0.1C438.2,677.5,438.2,677.4,438,677.2z"/>
	<path d="M435,681.3c0.3-1.1,1-1.8,2-2.4c-0.1,1.2-0.8,2-1.7,2.7C435.2,681.4,435.1,681.4,435,681.3z"/>
	<path d="M534.5,506.4c-0.2-1.8-0.3-3.5-0.5-5.5C535.6,502.1,535.6,502.1,534.5,506.4z"/>
	<path d="M532.4,492.5c1.7,2,1.9,3.8,1.8,6.4C532.8,496.8,532.4,495,532.4,492.5z"/>
	<path d="M535.1,512.7c0.5,1.4-0.3,2.6-0.2,3.9C534.1,515.3,534,514,535.1,512.7z"/>
	<path d="M534.7,508.7c0.8,0.3,1,0.8,0.5,1.8C534.4,510,534.1,509.5,534.7,508.7z"/>
	<path d="M532.9,594.8c0,2.4-0.2,3.9-1.7,5.8C531.2,598.2,531.2,596.6,532.9,594.8z"/>
	<path d="M529,609.1c-0.3-2-0.3-3.3,0.9-4.7C530.3,606.1,530.2,607.4,529,609.1z"/>
	<path d="M527.8,585.4c-0.6-0.7-1.5-1.4-0.2-2.5C528.4,583.8,528.1,584.6,527.8,585.4z"/>
	<path d="M400,632.3c-0.4-2.2,0.7-5,3.2-8.4C403.1,625.7,401.3,630.6,400,632.3z"/>
	<path d="M405.1,621.6c-0.4-1.6,0.4-2.4,0.6-3.2c0.1-0.3,0.4-0.5,1-1.1C407,619.2,406.2,620.2,405.1,621.6z"/>
	<path d="M409.3,611.5c0.5,1.4-0.3,1.9-0.6,2.9C407.7,613.1,408.4,612.5,409.3,611.5z"/>
	<path d="M412.3,606c0.1,0.9-0.2,1.3-0.6,1.7C411,607,411.3,606.5,412.3,606z"/>
	<path d="M553.3,662.1c0.4-2.8,1.5-5.2,3.6-7C555.7,657.4,554.5,659.8,553.3,662.1z"/>
	<path d="M544.5,626.1c1.1-0.3,2.1-0.6,3.1,0.4C546.4,627.3,545.5,626.7,544.5,626.1z"/>
	<path d="M554,634.5c-0.6-0.3-1.2-0.7-1-1.8C553.4,633.5,553.7,634,554,634.5z"/>
	<path d="M470.6,545.8c-0.3,3.3,1.4,5.5,2.6,8.3c-2.5-0.4-3.9-1.5-4.5-3.4C468.2,549,468.4,547.4,470.6,545.8z"/>
	<path d="M474,544.4c-0.4-2.5-0.6-4.9,0-7.4C476.3,538.8,476.3,540.1,474,544.4z"/>
	<path d="M472.1,556.1c0,2.9-0.2,5.8-2.1,8.2C471.1,561.7,469.9,558.5,472.1,556.1z"/>
	<path d="M473.3,565.7c1.1-1.4,2.3-1.5,3.8-1.1C476.2,566.3,474.9,565.9,473.3,565.7z"/>
	<path d="M478.4,528c1.2,0.5,2.2,0.8,2.5,2.4C479.1,530.4,478.6,529.5,478.4,528z"/>
	<path d="M471.6,524.5c-0.6-0.3-1.7,0.2-1.6-1.1C471.1,523,471.2,523.9,471.6,524.5L471.6,524.5z"/>
	<path d="M472.1,535.1c-1-0.3-1.5-0.7-1.3-1.6C471.9,533.3,472.1,534,472.1,535.1z"/>
	<path d="M471.5,524.5c0.8,0.1,1.6-0.1,2.2,0.9C472.5,525.9,472.2,524.7,471.5,524.5L471.5,524.5z"/>
	<path fill="#FFFFFF" d="M703.9,665.5c-0.7,0.9-1.3-0.1-1.9,0.2c-0.9,0.5-0.1,1.3-0.3,1.9c-1.4,0.2-2.2-0.4-2.5-1.5
		c-0.4-1.6,0-3,1.7-3.2C703,662.4,704,663.6,703.9,665.5z"/>
	<path fill="#FFFFFF" d="M692.7,667c-1.4-0.2-2.3-0.9-2.4-2.4c-0.1-1.7,1-2.6,2.5-2.6c1.4,0,2.4,0.9,2.3,2.5
		C695.1,665.9,694.2,666.8,692.7,667z"/>
	<path fill="#FFFFFF" d="M686.7,662.5c-1.8,1.5-2.8,1.5-3.7-0.5C684.5,660.9,685.4,661.4,686.7,662.5z"/>
	<path fill="#FFFFFF" d="M464.2,662.9c0.6-2.8,2.5-4.4,2-7.2C468,658.7,467.7,659.6,464.2,662.9z"/>
	<path fill="#FFFFFF" d="M431.4,668.3c-0.5,0.9-1.6-0.4-2.1,0.4c-0.6,0.5,0.5,1.2-0.3,1.6c-1.1,0.1-2-0.5-2.2-1.7
		c-0.3-1.4,0.1-2.6,1.6-3.1C429.9,665.1,430.7,665.8,431.4,668.3z"/>
	<path fill="#FFFFFF" d="M422.7,667.1c-0.1,1.5-0.8,2.6-2.3,2.6c-1.6,0.1-2.6-1-2.6-2.6c0-1.5,1-2.4,2.4-2.4
		C421.7,664.8,422.6,665.7,422.7,667.1z"/>
	<path fill="#FFFFFF" d="M410.9,664.2c1.3-0.1,2.4-0.2,2.9,1C411.9,667,411.6,666.9,410.9,664.2z"/>
</g>
</svg>
