<?xml version="1.0" encoding="utf-8"?>
<!-- Generator: Adobe Illustrator 19.1.0, SVG Export Plug-In . SVG Version: 6.00 Build 0)  -->
<svg version="1.2" baseProfile="tiny" id="Layer_2" xmlns="http://www.w3.org/2000/svg" xmlns:xlink="http://www.w3.org/1999/xlink"
	 x="0px" y="0px" width="900px" height="600px" viewBox="144 97 900 600" xml:space="preserve">
<g>
	<path d="M723.9,345.5c3.8-6.7,9.2-11.7,16-15.3c1.8-0.9,3.6-1.9,5.6-2.4c4.5-1.2,6.9-4.3,8.4-8.5c1-2.9,1.6-6,2.2-9
		c0.1-0.5,0.3-1.1,0.1-1.4c-2.8-5.1,0.1-11.5-3.6-16.4c-0.3-0.4-0.5-1-0.4-1.3c1.6-3.4-0.6-6.1-1.6-9.1c-1.4-4.3-1.4-8.7,0.8-12.9
		c0.2-0.3,0.4-0.6,0.5-1c0.3-3.4,2.2-6.4,2.8-9.6c0.6-2.9,2.9-4.9,3.2-7.9c0-0.5,1-0.9,1.6-1.4c-0.3-1.4-2.4-1.9-2.2-3.8
		c3.2-1.7,4.6,1.3,6.6,2.5c4.3-0.3,7.6-2.2,10-5.4c2.2,0.2,1,1.9,1.6,2.7c2.3,0.4,2.1-2.1,4-2.8c4.4,0.4,9.3-0.7,14.3,0.4
		c1.8,0.4,4-0.9,6-1.5c2.9-0.9,4.3-0.7,5.9,1c1.7-0.7,2.4-2.5,4-3.6c1.9,2.4,0.5,5,0.9,7.5c3.4-2.2,4.1-2.2,6.2-0.7
		c-0.2,1.9-2.4,1.8-3.4,3.2c1.5,0.7,3.3-0.4,4.9,0.7c0.1,1.3-0.6,2.7,0,4c-2.6,2.8-6.6,3.5-8.5,7c0.8,4.6,0.6,9.4,2.3,14.2
		c1.2,3.3-1.5,6.6-1.9,9.9c-2.5,0.7-4.7,1.9-7.1,1c-1.4,1.1-0.3,2.8-1.2,4c-2.7-6.2-0.5-8.5,7.9-11.9c0.8-1.4,0.9-2.6,0-4.2
		c-2-3.6-1.6-7.9-2.2-12.1c-5.4,2.4-10.7,0.2-16-0.1c-1.9-0.1-3.3,1.3-5.1,0.7c-0.4,1,0.4,2.2-1.1,2.5c-1.5-2.8-1.5-2.8-6.1-5.2
		c-1.1,0.3-1.5,1.4-2.3,2.2c1.5,0.1,3,0.1,4.5,0.2c0.7,1.3,1.3,2.6,1.7,3.5c0.5,2.4-3.3,1.1-2.5,3.6c-1,0.9-2-0.5-3.6,0.5
		c-1.6,3.7-4.4,7.4-6.4,11.5c-2,4-2.4,8.8-5.6,12.4c-0.3-2.3-1.2-4.3-1.9-6.4c-0.5-1.8-0.1-4.4-3.3-4.8c-0.5,2.6,1.5,3.5,2.7,4.9
		c0.5,2.2-0.9,4.3-0.4,6.1c-1,1.5-2.2,0.7-3.1,1.1c0.4,1.9,1.4,3,3.6,2.4c-1.4,2.7-2.3,5.2-2.5,7.9c-0.6,8.7-2.8,16.9-8.3,23.9
		c-0.3,0.4-0.8,0.6-0.6,1.4c2.5,3.4,6,6.1,8.8,9.3c1.6-0.7,0.6-2.5,1.7-3.6c1.3,1.9-0.2,3.3-0.6,5c4.5,4.3,7.4,9.9,11,15.1
		c4.7,6.9,10.2,13.1,16.9,18.1c2.9-1,5.4-1.8,8-2.8c2-0.8,3.2-2.2,3.6-4.5c1.2-6.9-0.1-13.3-3.2-19.4c-0.6-1.2-1-2.6-2.7-3.1
		c-1.4-0.4-1.4-2.1-1.5-3.4c-0.3-3.6-1.1-7.3-0.4-11c-1.4,1.8-1.7,3.9-2.3,6.2c-0.9-1-1.2-2-2.2-2.2c0.2-2.3,4.7-4.2,0.1-7.1
		c4.2-0.3,7.9,0.5,12.2-0.1c6.3-12.3,7.1-26.2,8.6-39.9c1.2-0.2,1.1,0.9,1.3,1.6c0.8,4.1,1.9,8.2-0.6,12.2c-0.5,0.8-0.7,1.9-0.6,2.8
		c0.7,7.8-3.5,14.4-5.5,21.6c-0.9,3.1-3.7,4-7.8,3.1c-1.5,3.2-1,6.7-1.2,10.1c2.8,1.8,4.9,4.2,6.9,6.6c2.6,3,5.7,5.3,9.3,7
		c4.7,2.2,8,5.6,9,10.8c1.6,7.9,3.1,15.9,4.7,23.8c1.7,8.4-0.6,16-4.3,23.4c-1.9,3.8-1.5,7.2,0.5,10.8c1.2,2.2,1.8,4.7,1.9,7.2
		c0.3,5.8,0,11.5-1.9,17c-1.2,3.4-1.3,6.7,0,9.7c4,9.5,4.3,19.5,3.6,29.5c0,0.3,0.1,0.7,0.2,1.1c4.8,0.5,9.4,1.2,14.1,2.1
		c1.2,0.2,2.5,0.4,3.2,1.4c1.7,2.2,4.1,2.5,6.6,3.1c4.2,0.9,8.3,2,12.3,3.6c3.6,1.4,6,4.7,9.4,6.3c1.4,0.7,2.7,1.5,4.3,1.7
		c6.1,0.8,9.1,5.1,9.9,10.5c1.3,8.4,1.5,16.8-1.4,25c-0.8,2.2-1.1,4.4-1.1,6.7c0.1,7-0.1,14.1-0.9,21.1c-1,9.1-5.6,16.9-9.8,24.7
		c-7,13-14.3,25.9-19.3,40.2c1.6,1.5,1.3,3.3,0.6,5.3c-1.9,5.3-1,7.5,3.5,10.5c3.8,2.6,6.7,6.1,8.9,10.1c1.4,2.5,3.2,4.5,5.7,5.6
		c4.4,1.9,7.6,5.7,12.4,6.9c1.4,0.4,2.4,2,3,3.4c1.5,3.2,0.9,6.6,1.1,10.5c-2.4-0.9-4.1-0.3-5.9,0.3c-3.1,1-6.3,1.2-9.5,1.3
		c-9.1,0.3-18.1,0.8-27.1-1c-6.7-1.4-13.3-3.2-20.1-1.9c-7.3,1.4-13.8-1.4-20.5-3.3c-2.2-0.6-2.3-2.6-1.4-4c2.5-3.8,3.4-8.3,6.1-12
		c2.8-3.7,3.8-8.4,2.9-13.2c-1.2-6.3,1.9-9.4,8.3-8.8c5.5-4.2,5.1-10.5,6.1-16.1c1.4-8.3,2.8-16.7,4.8-24.9
		c1.8-7.4,1.8-14.9-1.1-22.1c-0.4-1-0.9-2.1-0.9-3.1c0.3-6.3-3-11.9-3-18.3c-2.4,0.6-4.4,1.5-6.1,3.2c-0.6,3.6-0.1,6.6,3.1,8.5
		c1.7,0.4,1.7-1.7,3.1-1.7c1.1,1.8,0,2.9-1.2,3.9c-1.8,1.7-3.5,0.7-5.2-0.3c-4.4,2.4-8.7,0-13.1,0.2c-1.1,0.3-1.6,1.4-2.3,2.4
		c-6,1.7-12.1,2.7-18.2,3.9c-2.5,0.5-4.1-0.2-5.2-2.5c-1.7-3.3-4-6.4-3.9-10.7c2.7,1,2.3,3.6,3.4,5.2c1.2,1.8,2.2,3.6,3.4,5.6
		c5.2-0.1,10.1-1.9,15.2-2.4c2.6-0.3,4.5-1.4,6.1-3.3c0.2-0.2,0.2-0.6,0.4-1.2c-3-0.8-5.9-1-8.9-1c-0.1,1.8,1.3,3.1,1.5,4.9
		c-1.7-0.2-2.1-1.5-2.4-2.4c-0.7-2.3-2.3-3.1-4.5-3.4c-3.7-0.5-7.3-1.1-10.8-2.2c-2.7-0.8-5.1-2.5-8.3-2.4c-1.5,4-1.7,8.5-2.8,12.7
		c-1.5,5.8-4.1,10.7-9.7,13.7c-6.7,3.6-11.8,9.2-17.3,14.2c-1,0.9-1.2,1.9-1.2,3.2c-0.2,13.7-5,26.1-10.2,38.4
		c-2.6,6.1-7.1,10.3-12.5,13.8c-1.8,1.2-3,2.5-4,4.3c-2.5,4.6-6.3,8-10.9,10.6c-2.7,1.5-5.6,0.1-8.3-0.4c-3.9-0.6-7.5-2.4-10.4-5.2
		c-1.6-1.6-3.3-2.1-5.4-2.1c-11.7,0.1-21.7-4-30.5-11.9c-5.7-5.2-10.8-11.1-17.3-15.4c-4.9-3.2-9.8-6.4-14.9-9.2
		c-1-0.6-2.1-1.2-3.6-1.2c-0.7,4.3-0.9,8.9-5,11.7c3.1,3.7,3.1,3.7,1.2,7.6c0.5,2.8,2.5,4.7,4.4,6.6c4.1,4,3.9,6.6-0.7,10.5
		c-0.1-0.2-0.4-0.4-0.3-0.5c2.6-5.2-0.5-8.6-3.8-12c-0.5-0.1-0.9-0.4-1-0.9c-1.8-2.1-2.5-4.3-0.6-6.6c0.1-1.3-1.2-1.3-1.4-2.7
		c0.4-1.1,1.1-2.7,0.1-4.4c-3.9,6.8-9,8.6-14,4.8c-0.3-1.1,0.9-1.5,1.3-2.2c-1.3-1.1-3.1-1-4-2.3c0.3-1.6,1.9-0.9,2.6-1.6
		c-0.4-0.9-1.8-0.5-1.8-1.7c0.1-0.7,0.9-0.9,1.4-1.4c0-1-1.6-1.1-1.3-2.4c0.4-0.2,0.8-0.3,1.2-0.5c-0.3-1.1-2.1-0.7-2.1-2.1
		c0.7-1.3,2.3-0.1,3.2-1.3c-1.1-0.9-2.9-1.7-1.1-3.6c2.1-0.4,3.8,1.4,6.2,1.4c-2.3-2.7-3.8-5.7-6.8-7.7c-3.2-2.1-3.8-6.1-5.6-9.3
		c-0.8-1.4-0.1-3.2,0.7-4.8c1.7-3.8,4.7-6.5,7.4-9.4c0.5-0.5,1.2-0.8,1-2c-1.9,0-3.8,0.7-5.1,1.8c-3.2,2.4-6.7,3-10.4,3.2
		c-2.6,0.1-4.2,1.4-5.4,3.5c-3,5.5-3.3,11.4-2.3,17.4c0.4,2.5,2.4,3.7,4.5,4.7c3.9,2.1,4,2.3,1.8,6.1c-1.1,1.8-0.9,3.9-1.6,6.2
		c-0.8,1-2.6,1.6-3.2,3.2c2,3.9,1.8,8.3,2.6,12.4c1.7,8.9,7.5,14.4,16.5,15.6c5.8,0.7,11.6,0.8,17.4,0.2c1.2-0.1,2.5-0.6,3.8,0.3
		c-0.2,1.4-1.1,1.7-2,1.7c-6.8,0-13.5,1.1-20.3,0.2c-6.8-0.9-11.4-4.2-14.8-9.8c-2.3-3.8-3.8-7.9-4.2-12.4c-0.2-2-0.2-4-1.1-5.9
		c-0.8-1.7,0.1-3.3,1.2-4.6c1.5-1.7,2.5-3.3,2-5.7c-0.3-1.4,0.7-2.7,1.5-3.9c-4.9-1.6-6.2-5.6-7-9.7c-1.1-5.5-0.2-10.9,2.4-16
		c2.1-4.1,5.1-6.1,9.8-6c2.6,0.1,5.1-1,7.4-2.3c2.8-1.6,5.9-2.5,9.1-2.7c4.3-0.2,5.8,0.8,6.9,4.8c1.4,1.1,2.9,2.1,4.2,3.3
		c2.8,2.7,6.5,3.3,9.9,4.6c5.9,2.3,11.7,4.6,17.9,6.2c4.9,1.3,9.8,2.5,15,2.8c6.7,0.5,13.4,2,19.7,4.7c4.2,1.8,7.4,5,9.8,8.4
		c2.8-11.2-0.2-23.2,4.5-34.4c0.1,7.6-1.2,15-0.7,22.7c5.5,2.5,11.4,2.5,17.1,3.2c0.5,0.1,1.1,0.1,1.4-0.1c3.5-3.2,8.1-2.4,12.2-3.3
		c8.2-1.7,15.6-5.1,22.9-8.9c0.5-0.3,1.1-0.6,1.4-1.1c4.7-7.3,12.1-11.4,18.9-16.1c3.4-2.3,5.7-4.9,7.4-8.8c2.1-4.9,2.6-10,3.3-15.1
		c0.1-0.9,0.4-1.9,0.8-2.7c6.9-14.4,14.1-28.7,25.5-40.3c2-2,4.1-4,6.2-5.9c0.5-0.5,1-1,2.7-0.9c-5.8,5.5-10.9,10.9-15.5,16.9
		s-7.5,12.9-11.1,19.6c4.8-2.6,9.3-5.8,14.9-6.2c-4,2.5-8.4,4.1-12.3,6.7c-3.9,2.6-6.9,6-8.9,10.7c10.9,0.6,20.5,6.4,31.9,6
		c-4.7-4.7-2.9-9.8-1.9-14.7c1.3-6.3,4.1-12.2,6-18.3c3.8-11.9,11.3-20.8,20.8-28.4c3.6-2.9,7.1-6,10.6-9.1c0.9-0.8,2-1.3,2.3-2.8
		c-13.2-5-24.9-1.6-36,6.2c0.6-1.8,2.1-2.3,3.3-3.2c1.3-0.9,2.5-1.8,3.9-2.6c1.4-0.8,2.8-1.6,4.8-2.6c-6.2-0.1-11.8-0.8-16.4,2.9
		c-1.2-0.9,0.1-1.3-0.2-2.5c-5.2,2.4-9.2,6.4-14.1,9c3.6-5.3,9.2-8.4,13.9-12.5c-3.6,1-7.5,0.9-10.1,4.4c-1.9,2.6-4.7,4.3-7.5,6.2
		c-1.1,0.2-1.3-1.2-2.4-1.4c-1.2,0.2-1,1.7-1.9,2.3c-0.9,0.6-1.4-1-2.3-0.4c-1.1,0.6-0.4,2.1-1.4,2.8c-1.4,0.5-1-1.4-1.5-1.4
		c-4.6,0.9-8.6,1.7-12.7,2.6c-1,4.6-0.3,9.4-2.2,14.2c-2-5,0-9.6-0.2-14.3c-1.9-0.6-3.4-1.7-4.9,0.2c-1.4-0.8-0.8-2.2-1.6-2.9
		c0.7-0.9,1.9-0.9,2.1-2.2c-0.2-1.2-2-0.5-2.9,1.4c-0.3,0.6-0.1,1.5-0.9,1.8c-1.2,0-0.8-1.7-1.9-1.7c-7.7-1.1-15.4-2-22.9-2.1
		c-1.1,1.1-1.5,2.1-1.6,3.2c-0.9,7.6-2.9,15-2.8,22.7c0.1,5.8,1.2,11.3,4.4,16.3c1.2,1.9,0.8,3.9,0.3,5.9
		c-1.3,6.3-3.1,12.5-6.1,18.3c3.6,6.4,7.6,12.4,11.9,18.8c8.4-1.5,17-3.1,25.7-4.7c0.2,2.2-1.2,2.1-2.1,2.3
		c-6.4,1.3-12.9,2.5-19.3,3.9c-3.9,0.8-6.8-0.3-8.8-3.7c-0.7-1.2-1.6-2.4-2.5-3.7c-4.9,1.1-9.5-0.9-14.3-1.4
		c-2.2-0.2-2.8-2.3-3.9-3.8c-4.6,0.2-4.7-0.1-5-4.7c-0.4-5.6,1.1-11.1,1-17.1c-5.4,1.7-10.8,2.3-16.1,3.6c-1.2,5-2.4,10-3.7,15.5
		c-0.4-6.1,1.4-11.2,2.5-16.6c-3.2-0.9-6.2,1.6-9.6,0.4c-1.5,6.3-1.5,12.6-3.6,18.4c2.3,6,5.9,11,9.3,16c-2.2,1.5-2.9,0-3.6-0.9
		c-2.2-2.7-3.5-6-5.3-8.9c-2.6-4.1-2.5-8.2-1.7-12.6s1.2-8.9,3.2-13.4c4.6,0.1,8.9-1.2,13.4-2c0.1-2.7-0.3-5.3,2.5-7
		c-1.8-5.7,0-11.1,0.5-16.7c0.4-4.4,2.7-6.4,7.1-7.1c1.1-1.2,1.2-2.8,1.4-4.3c0.7-5.4-0.1-10.8-0.9-16.2c-1.6-11.8-2-23.5,0.8-35.2
		c0.5-2.1-0.3-4.2,0.5-6.3c1.8,0.6,1.2,2,1.3,3.1c0.5,8-0.4,16-1,23.9c-0.2,2.3-0.2,4.5,0.2,6.8c1.3,8.1,2.3,16.3,4.2,24.3
		c1.8,7.8,2.5,15.9,1.5,24c-0.2,1.5,0.8,2.7,0.8,4.1c0.4,8.8-3.2,17.2-2.4,25.8c1.4,1,2.7,0,3.6,0.6c1.6,0.7,1.1,2.8,2.7,3.3
		c1,0.3,1.7-0.4,2.8-0.8c-1.7-2.5-2.3-5.1-0.7-8c0.7,2.6,2.4,4.9,2.2,7.8c1.7,1.8,4.6,1.3,6.2,3.4c0.4,0.6,1.8,0.3,2.5-0.8
		c-1-3.9-4.8-6.6-5-10.2c3.2-7.1,3.7-14.4,6.8-20.9c-6.9-9.9-7-20.8-4.7-32c2.8-13.3,4.5-26.8,5.7-40.3c0.4-4.2-0.3-8.6-0.9-12.8
		c-0.6-4.2,0.5-7.8,3-11c4.8-5.8,7-12.8,7.9-20c1.3-10.2,1.2-20.6,0.7-30.9c-0.2-4.2,2.8-7.6,5.3-10.8c-0.2,2.6-1.9,4.7-1.9,7.6
		c3.5,4.6,5,11,10.8,14.8c4.5-6.2,9.3-11.8,9.3-20c-0.1-9.7-0.7-19.3-3-28.7c-0.8-3.2-2.3-6.2-4.4-8.8l0.1,0.1
		c-1.4-5.3-5.2-9.5-6.8-14.7c-7.1,2.2-12.6,6.4-17.2,11.8C726.9,344.7,725.9,346.3,723.9,345.5L723.9,345.5z"/>
	<path d="M392.2,207.4c8.3,9.9,13.9,21.9,23.7,30.7c1.5,1.4,3.1,2.5,4.9,3.6c2.5-0.9,5.1-1.8,7.6-2.7c2.2-0.8,3.4-2.4,3.7-4.8
		c1-6.4-0.1-12.5-2.9-18.4c-0.7-1.5-1.2-3.2-3.2-3.9c-1.5-0.5-1.3-2.5-1.4-3.8c-0.4-3.8-0.5-7.6-0.1-11.4c0-0.1-0.1-0.3-0.1-0.4
		c-0.4-1.1-0.7-2.3-1.2-3.4c0-0.1-0.1-0.3-0.1-0.4c-0.5-1.5-1.8-1.2-3-1.5s-2.7-0.1-3.1-2.4c5.6,1.3,10.8,3.3,17,2.2
		c6.2-12.2,7.1-26.1,8.9-39.8c1.5,3.6,2.7,7.5,1.3,11.3c-1.1,3-1.7,5.9-1.9,9c-0.3,3.8-0.9,7.5-2.8,10.9c-1.1,1.9-1.5,4.3-2.2,6.4
		c-0.8,2.6-2.8,4.2-5.5,4.1c-1.4-0.1-2.4,0.9-3.7,0.8c-1.4,3.4-2.1,9-1.5,12.4c2.5,1.5,4.4,3.8,6.3,6.1c2.7,3.2,6,5.7,9.8,7.4
		c4.5,2.1,7.7,5.4,8.7,10.2c1.7,7.4,2.9,14.9,4.5,22.4c1.9,8.9,0.1,17.2-4,25.2c-2,3.8-1.6,7.4,0.5,11.1c1.5,2.6,2,5.6,2,8.6
		c0,5.3-0.4,10.5-2.1,15.5c-1,3.1-1.3,6.2-0.1,9.1c5.1,11.6,3.7,23.8,3.5,36c-0.1,7.5-2.3,14.9-1.6,22.4c0.7,7.8-0.1,15.7,1.3,23.5
		c0.4,2.5,0.8,4.9,3.5,6.3c7.7-1.4,15.8-1.4,23.9-1.7c-8.1,2.7-16.9,1.2-25.2,3.8c-1.6,4.6-5.3,8.3-6.8,13.3
		c3.9,0.8,7.7-0.2,11.2,1.6c-3.5,0.8-7,0.2-10.9,0c2.6,6.6,5.1,12.8,7.6,19c4-0.4,7.9,0.4,11.6-0.9c-2.2-5.7-4.4-11.3-6.5-16.9
		c0.2-0.1,0.5-0.2,0.7-0.3c3.2,5.4,4.7,11.5,7.4,17.1c4.5,2.2,9-0.2,13.7,0.1c1.8-6.8,3-13.7,6.2-20.9c-1.7-4.6-4.5-9.9-7.8-15.6
		c3.9,1.3,9.2,11.2,9.9,17.5c-1.5,0.7-1.9,2.4-2.3,3.9c-1.4,4.3-2.6,8.7-3.5,13.1c-0.5,2.4-1.7,3.5-4.4,3.8
		c-7.1,0.6-14.2,0.5-21.3,0.7c-1.3,0-2.6-0.3-3.3,1.2c-2.9-2.6-3.3-6.2-5.5-9.8c0.6,16,5.1,31.1,3.3,46.6c-4.7-0.9-8,1.9-11.9,2.4
		c-1.1,2.6-2.5,4.8-3.7,7.1c-1.7,3-2,6.8-1.2,10c1.5,6.2,0.1,12-1.5,17.8c-0.9,3.1-1.5,6.1-2.1,9.3c-0.7,4.5-0.1,8.7,0.4,13
		c0.7,5.7-0.8,11.3-1,17c-0.4,10.8-5.8,20.3-7.2,30.9c-1.4,11-5.3,21.5-7.2,32.4c-0.4,2.1-0.7,4.2-0.9,5.9c0.5,1.4,1.8,1.3,2.4,2.5
		c0,2.4,0.7,5.1,0.3,7.9c6.7,6.4,11.4,14.6,19.4,19.8c3,1.9,6,3.3,9.4,4c5.5,1.1,6.5,2.2,7.3,7.6c0.3,1.6,0.7,3.3,0.9,4.9
		c0.5,3.1-0.2,4.4-3.2,4.8c-6.3,1-12.7,2.5-19.1,2.4c-6.4-0.1-12.9-0.1-19.3-0.5c-0.9-0.1-1.9-0.3-2.4-0.4
		c-7.8,3.2-15.6,4.6-23.6,5.1c-1.2,0.1-2.4,0.1-3.6,0.2c-8.9,1.3-17.5,0.8-25.9-2.8c-1.7-0.7-3.6-0.8-5.5-0.8c-5,0-10-0.5-14.9-1.6
		c-1.5-0.3-2.4-1.4-3.5-2.9c3.2-6.5,4.4-13.8,5.5-21c0.3-1.9,0-4,0.3-6c0.5-4.7,2-9.1,5.7-12.4c-1.3-10.2-2.9-20.3-5.3-30.3
		c-2.6-10.5-6.1-20.8-7.8-31.5c-1.2-7.2-0.6-14.4,0.5-21.6c1.1-7.4,4.3-13.8,7.3-20.4c5.3-11.8,7.6-24,4.7-36.8
		c-1.6-7.3-0.4-14.7-1-22.1c-0.1-1.3,0.3-2.6-0.4-3.8c-5.2-3.4-10.7,0.9-16-0.3c1.2-8.7,2.4-17.1,3.6-25.6
		c-8.1,1.5-15.8,3.8-23.8,4.4c-0.3-1.7,0.4-2,1.1-2.1c5.2-1,10.3-3.1,15.8-2.9c2.3,0.1,4.3-1.3,6.4-2c1.9-0.6,3.8-1.4,5.6-2
		c0.8-2.3,0.8-2.3,2.7-3.9c0.6,4.6-3.2,5.4-5.8,7.5c0.7,7.9-0.7,15.7-2.4,23.2c0.2,0.5,0.4,0.6,0.7,0.5c6-2.8,11.7-0.7,17.3,1.3
		c6.1,2.1,12.3,3.5,18.7,4.3c3.6,0.4,7.3,1.4,10.8,2.3c4.1,1.1,8.1,1.7,12.3,0.4c1.9-0.6,4.1-1.2,4.9,1.8v-0.1
		c-1.7-0.4-0.9,0.8-1.1,1.9c18.5,2.3,36.8,4.6,55.1-1.7c0.5-5.8,0.3-11.6-0.5-17.4c-1.3-9.9-2.6-19.9-2.4-29.9c0-0.5,0-1-0.1-1.4
		c-2.1-5.6-2.4-11.5-3.4-17.3c-1-5.9-2.5-11.6-3.4-17.5c-0.7-4.8-1.6-9.6-2.4-14.5c-0.7-4.1-2.1-7.8-4.5-11.2
		c-0.7-1.1-1.9-2.2-0.9-4c4.5,4.6,7.5,9.7,8,16c0.7,9.7,3.2,19,5.1,28.5c0.4,2,1,3.9,0.9,6.2c1.4-2.9,2.7-5.7,4.1-8.7
		c-2.7-6.3-2.1-13.2-2.9-19.9c-1.1-8.3-0.2-16.6,0.1-25c0.4-8.6,1-17.1,1.4-25.7c0.2-5.7-1.7-11.3-3.6-16.7c-1.3-3.7-1.2-7.4-1-11.2
		c0.3-3.7,0.6-7.4,1.2-11c1.1-6.5-0.3-12.8-1.2-19.2c-0.1-0.8-0.7-0.8-1.3-0.9c-1.7-1.7-1.2-3.7-0.2-5.3c4.1-7,3.6-13.7,0.2-21
		c-4.2-9.1-6.5-18.9-11.3-27.8c-1.5-2.9-1.9-6.3-2.8-8.8c1,3.9,3.1,8.2,3,13.1c0,5.5-2.2,9.4-7.5,11.4c-7.3,2.8-12.2,2.3-17.8-4
		c-9.4-10.5-16.9-22.5-26.7-32.7c-0.9-0.9-1.7-2-3.3-3.4c3.1,4.3,5.2,8.3,7.5,12.1c4,6.6,4.9,14.1,6.1,21.5c1.4,8,0.4,15.9-1.8,23.7
		c-1,3.4-2.4,6.5-4.4,9.3c-1.6,2.2-1.7,3.9,1.1,5.1c1.4,0.6,2.8,1.3,2.4,3c-0.4,2-2.2,1.9-3.7,2c-1.9,0.1-3.7-0.2-5.6-0.9
		c-3.1-1.1-4.7-0.1-5.3,3.2c-0.4,2.3-0.4,2.3-4.6,4.1c-0.6,1.5,0.6,2.4,1.3,3.4c1.3,1.7,1.2,3.3-1,3.9c-3.3,0.9-4.3,3.6-5.2,6.3
		c-1.2,3.7-2.6,7.4-4.2,11c-0.7,1.5-1.1,3.1-1.1,4.8c0.1,7.4-0.9,14.7-2.4,22c-0.1,0.6-0.2,1.2-0.3,1.8c-0.8,6.8-0.2,7.7,6.6,9.2
		c10.4,2.3,20.7,4.5,31,7.1c0.7,0.2,1.4,0.4,2.1,0.5c5.3,0.9,8.1,2.3,7-5.7c-0.2-1.7-0.4-3.7,2-4.5c2.5,1,2.4,3.4,2.7,5.4
		c0.9,6.1,1.4,6.9,7.5,7.3c4.2,0.2,8.5,1.1,12.7-0.7c0.4-4.2,1.7-8.2,1.3-12.2c-1.1-13.9,2.5-26.9,6.4-40c1.3-4.4,2.2-8.8,2.3-13.4
		c0.1-3.4,1.7-6.4,2.9-9.5c0.5-1.4,1.6-2.1,3.1-1.1c-1.9,11-1.1,22.5-5.8,33.1c-3.3,7.6-4.4,15.8-4.5,24.1c-0.1,6.1-1.2,12.1-2.2,18
		c3.6,2,3,5.8,1.4,11.9c-1.5-0.3-0.8-1.8-1.3-2.6c-4.6,1.7-9.5,1.6-14.1,2.9l0.1-0.1c-0.8-0.3-1.6-0.6-2.8-0.3
		c-0.3,10.7,5.7,20.4,5.5,31.2c-1.6-10.5-6.3-20.3-6.8-30.8c-0.8-0.8-1.5-0.7-2.2-0.8c-0.7-0.1-1.4,0-2.3,0
		c-0.3,2.8-0.6,5.6-0.9,9.2c-2.3-3.9,0.2-8.4-3.6-10.9c1.6-0.7,3-0.1,4.4-0.5c1.1-0.5,0.5-2.1,1.9-2.6c1,0.9-0.8,1.9,0.2,2.8
		c1,0.5,2.2,0.4,3.4,0.1c0.8-1,0.3-2.4,2-3.5c-5-0.6-9.2-1.2-13.4-1.5c-2.5-0.2-5-0.6-7.3-1.4c-5.1-1.8-10.4-2.7-15.6-3.9
		c-5.6-1.3-11.1-2.7-16.7-4c-1.1-0.3-2.4-0.3-3.5-0.4c-0.3-0.2-0.6-0.3-1-0.3c0.4,0,0.7,0.1,1,0.2c0.2,1.4,0.4,2.7,0.7,4.5
		c1.3-1.2-0.4-2.9,1.3-3.5c1.8,0.6,0.2,2.6,1.4,3.7c0.8,0.5,1.9,0.4,2.9,0.4c1-0.4-0.4-1.7,1-2.1c1.4,0.5-0.1,3,2.1,3.1
		c-6.4,0.7-9.6,0-15.3-3c-2.9,7.6-4.2,15.8-5.3,23.8c-1.1,8.8-1.5,17.6,3.8,25.5c1.1,1.7,0.7,3.4,0.4,5.2
		c-1.2,6.6-3.3,12.9-6.1,19.1c3.6,6.4,7.6,12.4,11.9,18.7c4.7-0.9,9.5-1.7,14.2-2.6c2.9-0.5,5.8-1.2,8.8-1.6
		c1.1-0.2,2.4-0.7,3.1,0.8v-0.1c-0.8,0.8-1.9,1.1-2.9,1.3c-6.2,1.2-12.4,2.3-18.6,3.7c-4.4,1-7.4-0.5-9.6-4.2c-0.6-1-1.3-2-2.1-3.2
		c-4.9,1.1-9.5-0.9-14.3-1.4c-2.2-0.2-2.9-2.3-3.9-3.8c-4.7,0.1-5-0.3-5.1-4.8c-0.2-5.6,1-11.1,1.2-16.9c-5.6,1.2-11,2.3-16.3,3.5
		c-1.1,4.1-1.5,8.3-3.3,12c-0.1-4.8,1.2-9.3,2.6-13.8c-3.2,0.2-6.4,1.9-10.2,1.1c-0.4,2.2-0.7,4.2-1,6.3c-0.5,3.5-1,7.1-2,10.5
		c-0.2,0.8-0.7,1.6,0.3,2.3l-0.1-0.1c1.2,4.6,4,8.3,6.6,12.2c0.7,1.1,1.8,1.9,1.6,3.4c-1.5,1.1-2.2-0.2-3-1c-3.5-4-5-9.1-7.8-13.6
		c-0.1-0.2-0.1-0.5-0.1-0.7c0.5-7,1.4-13.9,3.8-20.8c4.8,0,9.1-1.4,13.6-2s9-0.7,12.7-2.5c1.5,0.1,0.6,1.8,2.4,1.3
		c1.6-2.2,1.1-5.1,1.2-7.8c0.4-11.4-1.9-22.5-4.2-33.6c-3.1-14.4-3.9-29-0.7-43.6c0.3-1.2,0.4-2.3,0.3-3.5c-0.1-1-0.7-2.1,0.7-3.1
		c1,1.2,0.9,2.6,1,3.9c0.4,5.4,0,10.8-0.7,16.1c-1.1,8.2-0.1,16.2,1.1,24.2c0.6,4,1.3,8,2.4,11.9c2.2,7.5,1.9,15.3,2.3,23
		c0.1,2.4-1,4.9,0.1,6.2c0.5,9.7-2.7,18.1-2.2,26.8c1.6,0.9,3-0.2,4.1,0.7c1.1,0.8,0.9,2.5,2.8,3.3c0.5,0.2,1.2-0.5,2.3-1
		c-1.9-2.4-1.9-5.1-0.9-7.9c0.9,2.5,2.6,4.7,2.2,8.1c3.1,0.1,5.1,3.6,9,3.1c-1.2-4.5-4.5-7.4-5.2-11.3c3.3-6.6,3.6-14.1,6.9-20.6
		c-6.9-9.9-6.8-20.6-4.8-31.7c2-11,4.2-21.9,5.1-33.1c0.6-7.1,0.6-14-0.2-21c-0.4-3.7,0.5-6.9,2.7-9.7c5.8-7.4,8.1-16.1,8.7-25.2
		c0.6-8.8,0.4-17.5,0.2-26.3c-0.1-4.2,2.8-7.4,4.9-10.7c1,0.4,0.9,0.9,0.6,1.3c-2.7,3.7-2.2,7.3,0.5,10.8c2.1,2.7,2.9,6.2,5.6,8.6
		c0.7,0.6,1.5,1.1,2.6,1.7c4.9-6.5,9.7-12.8,9.3-21.7c-0.4-9.1-1-18.1-3.1-26.9c-0.7-2.8-2-5.6-4-7.9l0.1,0.1
		c-1.4-5.6-5.6-9.9-7.1-15.5c-7.2,2.1-12.5,6.5-17.2,11.8c-1,1.1-1.8,2.7-3.8,2.1l0.1,0.1c-0.3-0.9,0.1-1.7,0.6-2.3
		c4.7-5.2,9.2-10.7,15.9-13.5c3.3-1.4,6.5-2.9,9.8-4.2c2.7-1.1,4.2-3.1,4.9-5.7c1.1-4,2.4-8,2.3-12.2c-0.1-5.8-0.8-11.5-3.1-17
		c-0.6-1.5-1.3-2.9-0.6-4.7c0.5-1.3,0.1-2.7-0.6-4.1c-2.9-5.2-3.2-10.6-0.5-16.1c0.1-0.2,0.3-0.4,0.3-0.6c0.4-3.6,1.7-7,3.4-10.1
		c0.6-1.1-1.6-3,1.1-3.2c0.9,0.7,2.3,0.1,2.7,0.5c-0.4-0.4-1.7,0.2-2.7-0.5c1.4-1.8,1.1-4.5,3.1-5.9c-0.3-1.5-2.5-2-2.1-3.9
		c3-1.5,4.5,1.2,6.4,2.5c4.4-0.1,7.7-2.2,10.8-6.4c0.4,1.9,0.6,2.8,0.8,3.8c2.2,0.5,2.1-2.2,4.1-3c4.3,0.5,9.2-0.9,14.2,0.5
		c1.6,0.4,3.8-0.7,5.6-1.4c1.4-0.5,2.8-0.6,4.2-0.7c1.4-0.1,1.6,0.8,1.6,1.9c2-0.6,2.7-2.6,4.5-3.9c1.9,2.3,0.7,4.8,0.8,7.4
		c2.1-0.7,4-3.1,6.3-1c-0.1,2.7-3,2.2-4,4c1.9,0.3,3.7-1,5.6,0.3c0.3,1.4-1.1,2.8,0.1,4c-2.8,2.7-6.5,3.5-8.7,6.9
		c0.9,4.5,0.7,9.5,2.4,14.3c1.1,3.2-1.3,6.6-2.1,10c-2.4,0.3-4.5,2.1-6.8,0.8c-1.5,1.1-0.4,2.9-1.4,4.1c-2.7-5.4-1-7.9,8-11.9
		c0.7-1.4,0.9-2.7-0.1-4.3c-1.6-2.5-1.4-5.5-1.8-8.3c-0.2-1.2,0.1-2.4-0.5-3.7c-5.2,2.3-10.4,0.3-15.7-0.1c-1.9-0.2-3.4,1.3-5,0.6
		c-1,0.7,0.5,2.2-1.5,2.5c-0.8-1.1-1-3.1-3-3.5c-1.4-0.3-2.6-3-4.3-0.5c0.8,1.7,2.3,0.9,3.5,1.2c0.7,1.4,1.4,2.7,1.9,3.8
		c-0.3,1.9-3.1,1.2-2.7,3.3c-1,0.5-2.1-0.4-3.1,0.2c-5.1,7.5-8.3,16-12,25c-2.2-4.6-1.3-9.5-5.6-12.7c-0.7,3.3,1.6,4.1,2.9,5.8
		c-0.2,1.9-0.5,4-0.7,6c-0.8,1.2-1.9,0.7-2.9,0.8c0.1,2.3,1.7,2.7,4.2,2.6c-3.4,7.2-3,14.7-4.5,21.8c-1.2,5.7-2.5,11.9-9.3,14.6
		C385.9,201.5,388.9,204.7,392.2,207.4L392.2,207.4z"/>
	<path d="M723.9,347c-2.4,1.7-5.3,2.1-8,2.9c-2,0.6-3.6,1.6-5,3.2c-2.3,2.7-4.1,6-6.5,8.5c-5.8,6.1-5.3,13.2-4.4,20.6
		c0.1,0.9,0.3,1.9,0.4,2.8c0,0.2-0.1,0.5-0.1,0.7c-0.6,0.5-1.1-0.4-1.8-0.1c-1.1,8.3-2.1,16.6-2.3,25c-0.1,3.5,1.2,6.8,2.3,9.9
		c2.4,7,2.8,14.1,2.6,21.3c-0.1,2.7,0.1,5.1,0.9,7.7c1.3,3.8,2.1,7.8,3.1,11.7c0.8,3.1,2.5,6.6,5.5,8.8c1.5,1.2,2.9,2.5,4.1,4.8
		c-3.8-1.9-5.9-3.9-10.9-10.7c-1,4.8,0,9.2,0.9,13.5c-2.2-0.9-3.3-2.6-2.7-5.1c0.4-1.6,0.5-2.9,0.1-4.5c-0.5-2.2,0.3-4.2,2.1-5.8
		c-4.4-7.3-4.6-15.3-4.8-23.5c-0.2-6.5-1.1-13.3-3.5-19.5c-3.6-9.3-2.3-18.5-0.2-27.8c0.9-4,1.5-8,1.3-12.3
		c-0.4-10.1,1.4-19.7,9.1-27.3c2.9-2.8,6.6-4,10.2-5.1c2.4-0.7,5.1-1.1,7.6-1.6l-0.1-0.1C723.9,346,723.9,346.5,723.9,347L723.9,347
		z"/>
	<path d="M355.7,213.8c-0.3,2.1,2,0.6,2.4,1.9c-0.3,0.7-1.2,1-1.7,0.9c-3.7-0.8-6.8,1.5-10.2,2.1c-1.4,0.3-2.3,1.1-3.2,2.1
		c-2.2,2.5-3.9,5.5-6.2,7.8c-6.6,6.4-6.4,14.1-5.3,22.1c0.2,1.2,0.3,2.3,0.5,3.5c-0.7,0.5-1.2-0.3-1.9-0.1
		c-1.5,8.5-2.4,17.1-2.4,25.8c0,3.4,1.4,6.9,2.6,10.3c2.4,6.6,2.6,13.5,2.2,20.3c-0.1,2.4,0,4.6,0.8,7c1.4,4,2.5,8.1,3.3,12.4
		c0.6,3,2.8,5.6,4.3,8.5c-0.1,0.1-0.2,0.2-0.3,0.3c-3.3-0.3-3.2-3.7-5.3-5.7c-1.4,4.7,0,9,0.6,13.3c-2.1-0.9-3.1-2-2.6-4.4
		c0.5-2.2,0.3-4.2,0.1-6.3c-0.2-1.8,0.6-3.2,1.8-4.2c0.1-1.1-0.4-1.8-0.8-2.5c-3-5.8-3.9-12-3.7-18.3c0.1-5.5-0.8-10.8-1.8-16.1
		c-0.6-3.3-1.7-6.5-2.7-9.6c-2.4-7.7-1.2-15.4,0.5-23c1.1-5,1.9-9.9,1.7-15.1c-0.4-9.8,1.7-19.1,9.2-26.1c3.3-3.1,7.4-4.8,11.9-5.3
		C351.7,214.9,353.6,213.7,355.7,213.8L355.7,213.8z"/>
	<path d="M766.2,554.6c-3.7-6.4-7.5-12.7-11.3-19.2c-1.5-0.5-2.9,0.3-4.4,0.7c-5.1,1.5-10.2,3.3-15.7,2.8c-2.6-0.2-4.8,2.2-7.6,1.5
		c0-1.4,1.8-1,2-2.3c0.2-6.8,2.8-13.2,5.1-19.7c0.6,6.6-2.6,12.7-2.5,19.3c8.2,0.8,15.5-3.6,23.2-4c1.6,1.8,2.3,3.9,4.6,5
		c1.2-4.3,4.7-7.5,5-12.2c0.1-1.5,1.5-2.4,2.4-3.5c3.7-4.1,7.4-8.1,10.3-13.1c-0.7-3-1.5-6.2-2.6-9.1c0.9-0.6,1.2-0.3,1.5,0.2
		c2.4,5,3.7,10.1,0.1,15.1c-1.4,1.9-2.6,4.1-4.3,5.7c-5.7,5-7.4,12.3-11.5,18.3c2.2,4.1,4.4,8,6.8,12.5c2.1-8.5,4.1-16.4,8.2-23.8
		c0.8,2.2,0.8,2.2-1.6,9.1c-1.1,3.2-1.9,6.4-2.7,9.6c-0.8,3.1-1.5,6.2-3,8.9C766.7,556.4,767.9,554.1,766.2,554.6L766.2,554.6z"/>
	<path d="M400.7,482.6c1.7-4.1,1.7-8.6,2.1-12.9c0.6-5.2,2.2-9.9,4.8-14.4c3.3-5.7,5.7-11.8,7.9-18c0.5-1.6,0.2-3-0.2-4.5
		c-0.9-4.5-0.1-8.7,2.6-12.5c4,2.9,8.5,4.5,12.4,7c3.8,2.5,7.9,4.7,10.4,8.8c-7-5.2-14.4-9.7-22.5-13.4c-1.4,2.8-1.6,5.5-1.4,8.3
		c2.2,1.2,4,2.8,5.4,5.5c-2.2-0.5-2.8-2.5-4.4-3.1c-1.3,6.9-4.1,13.1-7.2,19.3c-3,6-4.9,12.6-5.4,19.5c-0.2,3.9-1,7.7-2.4,11.1
		C401.4,483.9,401.4,482.6,400.7,482.6L400.7,482.6z"/>
	<path d="M388.5,443.8c3.5-3.4,4.2-8.2,5.7-12.5c1-2.9,1.5-6,2.9-8.9c-3.5-6.2-7.1-12.5-11-19.4c-8.6,3.8-18.1,3.9-27.4,5.5
		c1.6-1.5,3.7-2.3,5.7-2.4c6-0.2,11.7-2,17.4-3.5c4.4-1.2,5.1-1,7.8,2.8c3.5,5,6.4,10.3,9.1,16c-0.9,1.5-1.1,3.3-1.3,5.2
		c-0.5,5.5-1.7,10.9-5.1,15.4C391.5,443.3,390.8,445.3,388.5,443.8L388.5,443.8z"/>
	<path d="M607.8,648.3c0.3,0.3,0.7,0.6,1,0.9c-0.1,1.3-0.9,2-2,2.1c-6.5,0.2-13,1-19.5-0.8c-0.6-0.2-1-0.5-1.1-1.5
		c3.8-1.6,8.4-0.2,12.1-2.5c0.5-3.5,1.1-4,4.4-3.8c0.7,1-0.8,1.3-0.8,2c0.1,0.8,1.2,0.5,1.2,1.2c-0.3,0.7-0.3,0.7-3.4,1.6
		C602.8,647.8,605.3,648,607.8,648.3z"/>
	<path d="M778.8,281.3c2.4-2.1,4.4-4.1,8-3.3c1.8,0.4,3.9-0.2,5.8,0.3c2.1,0.5,3.3,1.6,3.3,3.8c-0.9,1.1-2.2,0.1-3.2,1
		c-0.3,0.5-0.7,1.3-1,1.9c-3.6,0.7-7.1,0-10.7-0.6c2.8-2.3,6.3-2.1,10.2-2.7C786.7,280,782.9,279.2,778.8,281.3z"/>
	<path d="M710,577c0.8-1.2,0.7-3,2.5-3.9c0.8,1.8,0.3,3.2-0.9,4.2c-3.4,2.9-7.3,4.4-11.8,5.2c-4.1,0.8-8.2,1.7-12.3,2.6
		c-2.1,0.4-4.3,1-6.4,0.5c-0.2-1.6,0.7-1.7,1.5-1.8c5.2-1,10.2-2.9,15.7-2.8c2.7,0.1,5.2-1.6,7.7-2.5
		C707.3,577.9,708.7,577.4,710,577z"/>
	<path d="M424,146.7c-2.4-1.5-5.2-0.5-6.9-2.1c-2,0.2-3.1,2.3-5.6,1.6c2.6-2.1,4.8-3.8,8.1-3.3c1.9,0.3,3.9-0.2,5.9,0.3
		c2.1,0.5,3.5,1.4,3.6,3.7c-0.7,1.4-2,0.3-2.9,0.8c-0.8,0.6-0.9,1.6-1.3,2.3c-3.7,0.4-7.2,0.2-10.8-0.6
		C416.8,147.3,420.2,147,424,146.7z"/>
	<path d="M422.3,459.7c3.7,5.3,10.6,7.5,13.2,13.7c-0.8,0.8-1.1-0.2-1.5-0.7c-2.5-2.8-5.8-4.6-8.6-6.8c-1.3-1-2.7-2-3.7-3.3
		c-1-1.2-1.7-2.6-1-3.9c1.4-2.6,0.5-4.7-0.5-7c-1.4-3.5-1.9-7.3-2.4-11.2c1.5,0.6,1.5,1.7,1.8,2.7c0.7,2.9,1.4,5.8,2.8,8.4
		C423.8,454.2,424.5,456.7,422.3,459.7z"/>
	<path d="M406.5,183.7c-1.4-1-2.9-2.1-4.3-3.1c-5.6-4-7.1-8.9-4.6-15.9c-0.1,4.3,1,8.3,2.9,12.6c3.7,2.5,8.1,4.7,11.6,8.8
		c-2.1,0.8-2.9-0.9-4.2-1.1C407,185,406.1,185,406.5,183.7z"/>
	<path d="M748.9,502.2c-0.7,3.9-1.5,7.3,0,10.7c-4.2-0.5-4.1-3.1-2.6-9.6c-4-1.9-9-2.5-11.1-7.4C738.7,500,743.9,500.6,748.9,502.2z
		"/>
	<path d="M766.1,554.5c0.4,10-3.6,20.2-8.8,21.5c4.1-6.2,5.4-13,7.5-19.6C765,555.7,765.2,554.8,766.1,554.5L766.1,554.5z"/>
	<path d="M778.3,321.4c-3.1,0-4.6-2.8-6.9-4.2c-2.5-1.4-4.7-3.3-7.1-5c0.1-2.4-0.5-4.6,0.1-7.5c1.4,2.6,1.8,5,2.6,7.1
		C770.6,315.3,776,316.3,778.3,321.4z"/>
	<path d="M434.8,393.8c3.8,7.2,8.4,14,9.9,22.2c-1.2,0-1.4-0.6-1.6-1.1C440.5,407.8,436.7,401.2,434.8,393.8z"/>
	<path d="M349.2,333.9c2.5-6.5,0.9-12.9,0.7-19.3c0-0.1,0.4-0.2,0.6-0.4C353.8,318.1,353.3,329.7,349.2,333.9z"/>
	<path d="M718,446c1.5-0.4,2.1,0.4,2.5,1.8c1.2,4.8,1.4,9.5-0.8,14c-0.7,1.4,0.9,3.2-1.9,4.4c0.6-3.6,1.4-6.8,1.6-10.1
		C719.6,452.7,717.9,449.4,718,446L718,446z"/>
	<path d="M357.3,376c0.4-5.9,3-14.8,5-17.4C363.9,361.1,363.5,362.4,357.3,376z"/>
	<path d="M709.4,410.8c-0.2-3.1-2-5.7-0.7-8.8c2,0.6,1.8,2.2,2,3.5c0.6,4.1-0.2,10.1-1.9,12.4C707.7,415.3,707.5,413,709.4,410.8z"
		/>
	<path d="M435.9,180.5c-3.3,1.3-6.1,1.8-9.1,0.5C428.6,176.6,432.3,176.2,435.9,180.5z"/>
	<path d="M422.9,175.5c1.7-1.9,13-2.5,15.5-0.8C432.8,175.5,427.9,176.3,422.9,175.5z"/>
	<path d="M805.2,309.5c-4.5,1.4-8.7,1.1-12.6,1.7c-1.1,0.1-2.5,0.5-2.8-1.2C791.9,308.7,802.4,308.1,805.2,309.5z"/>
	<path d="M709.8,501.7c-4.2-6.7-4.3-14.5-5-22.1C707,486.8,707.3,494.5,709.8,501.7z"/>
	<path d="M802.3,315.2c-2.8,2-5.9,2.2-8.5,0.4C795.9,311.5,799.8,311.4,802.3,315.2z"/>
	<path d="M359.2,381.3c-0.8,6.1-1.3,12.2-3.7,18.1C354.8,396.1,357,384.3,359.2,381.3z"/>
	<path d="M345.9,468.6c-3.4-3.4-5.6-10.9-4.8-15.6C342.9,458.2,343.9,463.6,345.9,468.6z"/>
	<path d="M387.5,380.3c2.3,4.3,2.1,9,1.9,14.4C387.4,389.5,386.9,385,387.5,380.3z"/>
	<path d="M424.5,196.6c-1.3,2.1-2.1,4.4-2.4,7.7c-0.9-1.8-1.5-2.5-2.6-3c1.7-2.3,3.3-4.4,2.5-7.3c-0.2-0.6,0.3-1.4,1.1-1.7H423
		C424.9,193.3,424.5,195.1,424.5,196.6L424.5,196.6z"/>
	<path d="M386.4,377.4c-1.4-4.9,0.7-10.8,4.6-13.4C390.3,369,386,372.4,386.4,377.4z"/>
	<path d="M337.8,356.4c1.3,1.8,1.2,4,1.8,6.1c0.7,2.5,0.7,5.1,2.1,7.4C338.4,366.7,336.6,359.9,337.8,356.4L337.8,356.4z"/>
	<path d="M388.9,359.1c-1.4,3.2-4.6,0.5-6.1,2.3c-1.4-1.2-1.9-2.4-0.7-3.9c1.3-0.1,1,1.6,2.5,1.6
		C385.7,358.4,387.2,357.4,388.9,359.1z"/>
	<path d="M369.9,368.1c2.1-3.5,3.8-6.2,5.5-9.1C377.4,361.9,375.6,365,369.9,368.1z"/>
	<path d="M352.5,269c1.4,0.5,2,1.1,1.5,2.1c-1.4,2.7-4,4.8-3.8,8.3C350,275.7,349.8,272,352.5,269z"/>
	<path d="M702.3,385.7c2.4,2.5,4.1,5.6,7,8.3C704.8,392.7,702.1,389.5,702.3,385.7z"/>
	<path d="M751.8,346.2c0.2,1,0.1,1.8-1.2,1.5c-3.8-0.9-7.6-1.3-11.5-1.5C743.4,344.5,747.6,345.3,751.8,346.2L751.8,346.2z"/>
	<path d="M420.4,224.3c1.2-3.6,4.5-5.5,9.1-5.1C426.4,221.4,423,222.2,420.4,224.3z"/>
	<path d="M797.4,351.1c-2.8,1.8-5.8,3-8.6,5.3C789.5,352.8,793.3,350.5,797.4,351.1z"/>
	<path d="M383.7,215.4c-0.3,0.4-0.7,0.8-1.2,0.6c-3.9-0.9-7.8-1.3-11.8-1.7C375.2,213.4,379.6,212.7,383.7,215.4L383.7,215.4z"/>
	<path d="M333.7,253.1c2.4,3.4,4.2,6.4,6.8,8.9C336.5,261.4,333.1,257.4,333.7,253.1z"/>
	<path d="M718.3,411.4c0.2-6.7,0.8-8.5,3.2-10.6c0.9,0.3,1.5,1,1,1.9c-0.7,1.5-1.6,2.9-2.7,4.1C718.7,408.1,720.1,409.9,718.3,411.4
		z"/>
	<path d="M341.4,279.7c-1.1-3-2.2-6-1.5-9.7C342.5,272.7,342.9,276.4,341.4,279.7L341.4,279.7z"/>
	<path d="M365.2,365.5c1.6,3.2,0.9,6.2,0.3,9.5C363.7,372.1,363.5,367.7,365.2,365.5z"/>
	<path d="M366.4,429.4c3.9,3.6,7,7.9,9.8,12.5C372.8,437.8,368.7,434.3,366.4,429.4L366.4,429.4z"/>
	<path d="M370.5,408.5c-0.3,4.6-1.7,9-3.4,13.2C367.4,417.1,368.4,412.7,370.5,408.5z"/>
	<path d="M735.8,552.7c0.4-4.4,1.3-8.7,3.4-12.7C738.7,544.4,737.5,548.6,735.8,552.7z"/>
	<path d="M429.9,167.3c0.8-3.1,2.4-3.7,6.6-2.6C436.1,166,436.1,166,429.9,167.3z"/>
	<path d="M803.6,300.8c-1.9,2.2-4.7-0.5-6.1,2c-1.6-1.5-0.7-2.3,0.4-2.9C799.6,298.8,802.5,299.3,803.6,300.8z"/>
	<path d="M736.2,562.4c3.5,3.4,6.4,7.3,8.9,11.6c-3.1-3.7-6.8-7-9.1-11.4L736.2,562.4z"/>
	<path d="M393.1,201.9c-1.2-3.4-1-6-0.6-8.9C394.6,194.9,394.7,196.3,393.1,201.9z"/>
	<path d="M339.7,238.8c-0.5-5.1-0.1-10,2.8-14.4C341.5,229.2,339.5,233.8,339.7,238.8z"/>
	<path d="M421.5,369.2c3.5,1.9,3.7,5.9,5.5,8.8C424.8,375.3,421.9,373,421.5,369.2L421.5,369.2z"/>
	<path d="M469.9,411c-0.6,3.8-2.2,7.1-4.3,10.2C466.3,417.6,467.8,414.1,469.9,411z"/>
	<path d="M406.9,191c2.7,2.7,1.5,6.2,2.1,9.4C407.4,197.4,407,194.3,406.9,191z"/>
	<path d="M684.1,570.2c2.5,3.3,5.8,5.8,8.8,9.6C689,576.8,685.8,574.2,684.1,570.2z"/>
	<path d="M775.5,322.8c2.2,2.7,1.9,5.9,1.9,9C775.9,329,775.6,325.9,775.5,322.8z"/>
	<path d="M398.4,375.6c-1.8-4.5-2-6.1-0.7-8.7C399.5,369.7,399.5,372.3,398.4,375.6z"/>
	<path d="M341.4,279.7c0.6,2.3,1.1,4.6-1.1,6.5C338.8,282.4,339.1,280.9,341.4,279.7L341.4,279.7z"/>
	<path d="M406.4,387.7c1.9,3.6,3.9,7.2,5.8,10.7c-0.2,0.1-0.5,0.3-0.7,0.4C409.1,395.6,407.5,391.8,406.4,387.7z"/>
	<path d="M337.8,356.3c-2.4-2.5-2-5.5-2-9C337.7,349.7,338.1,352.1,337.8,356.3L337.8,356.3z"/>
	<path d="M761.5,324.8c1.5,2.6,1.5,5.3,0.1,8C760.6,330.1,760.9,327.4,761.5,324.8z"/>
	<path d="M708.5,366.4c-0.5-3.8,0.6-7.1,2.5-10.3C710.6,359.7,708.8,362.9,708.5,366.4z"/>
	<path d="M711.5,481.7c1.2,2.7,1.4,5.6,1.4,8.4C711.2,487.6,710.9,484.7,711.5,481.7z"/>
	<path d="M407,468.1c2.2,2.1,2.5,4.8,2.7,7.5C408,473.4,407,470.9,407,468.1z"/>
	<path d="M419.3,231.4c1.6,2.3,3.1,4.6,2.3,7.6C420.2,236.7,419.5,234.1,419.3,231.4z"/>
	<path d="M790,371.1c-1.4-2.6-1.6-5.2-2.9-8.3C790.1,365.8,790.7,367.8,790,371.1z"/>
	<path d="M343.1,350c0.8,2.8,1.5,5.6,1.2,8.5C342.7,355.8,342.3,353,343.1,350z"/>
	<path d="M406.5,183.7c0.5,0.4,0.9,0.9,1.4,1.3c0.3,1.7,1.7,3.1,1,5C407,188.8,405.8,185.6,406.5,183.7z"/>
	<path d="M341.3,384.4c2.7,1.8,3.2,4.4,2.8,7.3C342.7,389.4,342,386.9,341.3,384.4L341.3,384.4z"/>
	<path d="M411.5,210.7c-2.1-2.1-2.9-4.1-2.4-7.2C410.7,205.9,411.3,207.9,411.5,210.7z"/>
	<path d="M732.4,505.7c0.7,2.7-0.7,4.4-1.2,6.7C730,509.2,730.1,508.7,732.4,505.7z"/>
	<path d="M712.9,524.2c-1.7-2.6-2.2-4.9-2.6-7.9C712.5,518.7,713.2,520.9,712.9,524.2z"/>
	<path d="M709.7,515.5c-1.7-1.9-2.8-4.1-3.2-6.6C707.7,511,709.8,512.7,709.7,515.5z"/>
	<path d="M321.8,445.2c-2.8-1.2-4.8-3.3-5.7-6.3C318,441,319.9,443.1,321.8,445.2z"/>
	<path d="M340.9,338.2c2.5,0.6,3.4,2.8,4.6,4.7c-2-1.1-4.4-1.7-4.9-4.5C340.7,338.4,340.8,338.3,340.9,338.2z"/>
	<path d="M777.8,335.2c1.4,2.4,2.2,4.3,2,7.3C778,340.2,777,338.3,777.8,335.2z"/>
	<path d="M347.1,365.8c-0.9-1.7-1.7-3.3-2.6-5c0.3-0.2,0.6-0.3,1-0.5C346.2,362.1,347.9,363.4,347.1,365.8z"/>
	<path d="M391.8,362.2c3.1-0.1,5.1,0.4,7.7,1.7C396.4,364.3,394.4,363.7,391.8,362.2z"/>
	<path d="M735.3,345.9c-1.8,0.2-3.5,1.3-5.9,0.7C731.7,345.3,733.3,344.3,735.3,345.9z"/>
	<path d="M341.4,384.3c-1.8-2-2.8-4.3-3.3-7C339.1,379.7,342,381.2,341.4,384.3L341.4,384.3z"/>
	<path d="M342.2,263.4c1.7,1.4,2,3.8,4,5C343.6,267.8,342.9,266.9,342.2,263.4z"/>
	<path d="M360.8,214.9c2.3-1.3,4-2.4,6.6-0.6C365.1,214.6,363.4,215.3,360.8,214.9z"/>
	<path d="M673.4,568c1.5-1.1,3.1-1.6,5.2-1.1C677,568.9,675.1,568.2,673.4,568z"/>
	<path d="M303.3,436.3c2.1-0.7,4.1-1.8,6.9-1C307.8,437.2,305.6,436.7,303.3,436.3L303.3,436.3z"/>
	<path d="M715.9,497.4c-0.5-1.9-2.8-3-2.5-5.8C714.9,493.7,716.5,495.1,715.9,497.4z"/>
	<path d="M744.9,376.8c-0.6,1.5-0.9,3.4-3.2,4C741.8,378.4,743.6,377.7,744.9,376.8z"/>
	<path d="M722.1,358.2c-0.3-2-0.5-3.6-0.2-5.9C723.7,354.6,723,356.2,722.1,358.2z"/>
	<path d="M337.6,404.1c-0.4-1.7,0.3-2.6,0.7-3.9C339.3,402.2,339.3,402.2,337.6,404.1z"/>
	<path d="M373,249.4c0.4-2.7,2.1-3.4,3.3-4.5C376,246.8,375.3,248.3,373,249.4z"/>
	<path d="M723.3,393.7c0.7-2,1.7-3.2,3-4.6C725.9,392,725.9,392.1,723.3,393.7z"/>
	<path d="M353.6,220.4c0.8,2.7,0.8,2.7,0.4,5C353,223.9,352.8,222.6,353.6,220.4z"/>
	<path d="M705.2,430.7c0.1,2.1-0.5,3.1-1.4,4.6C703.1,433.2,703.6,432.2,705.2,430.7z"/>
	<path d="M710.5,429.1c1.6,1.3,1.2,2.7,2.2,4.3C710.5,431.8,710.5,431.8,710.5,429.1z"/>
	<path d="M707.7,423.4c-0.3-1.7-0.6-2.9,0.9-3.9C709.5,421.1,708.9,422.1,707.7,423.4z"/>
	<path d="M339.2,292.1c-0.1-1.9-0.5-3,0.4-4C340.6,289.3,340.6,289.3,339.2,292.1z"/>
	<path d="M706.4,536.1c-0.6-2-0.1-3,0.8-4.2C708.1,533.5,707.8,534.6,706.4,536.1z"/>
	<path d="M354.7,262.3c0.6-2.3,1.6-3.5,2.7-4.6C357.3,260.1,357.3,260.1,354.7,262.3z"/>
	<path d="M343.4,301.3c-1.4-0.7-1.9-1.9-1.6-3.8C343.5,298.5,343.3,299.9,343.4,301.3z"/>
	<path d="M726.6,560.5c-1.5-0.4-2.7,1.3-5,0.3C723.7,560.2,725,558.9,726.6,560.5L726.6,560.5z"/>
	<path d="M823.5,561c-1-1.2-1.4-2.1-0.7-3.5C824,558.4,824.1,559.4,823.5,561z"/>
	<path d="M718,446c-0.7-1-0.8-2.1-0.1-3.4C719.9,443.8,718.3,444.9,718,446L718,446z"/>
	<path d="M353.1,429.5c1.6-1.3,2.7-1.4,4.3-1.5C356.2,429.3,355.2,429.6,353.1,429.5z"/>
	<path d="M351.7,238.3c-0.2-1.3-0.4-2.5,0.8-3.8C353,236.1,351.9,237.1,351.7,238.3z"/>
	<path d="M712.3,398.7c-1.2-0.9-1.7-2-2-3.8c1.9,0.8,2.1,2.2,2.4,3.4C712.8,398.7,712.7,398.9,712.3,398.7z"/>
	<path d="M335.1,303c-0.5-1.4-0.1-2.4,1-3.4C336.4,301.4,336.4,301.4,335.1,303z"/>
	<path d="M420.5,411.8c-0.2,1.3,0,2.8-1.8,4.1C418.8,414.1,419.6,413,420.5,411.8z"/>
	<path d="M432.4,376.3c-1.6-0.6-1.9-2-2.1-3.4C431.7,373.6,432.2,374.9,432.4,376.3L432.4,376.3z"/>
	<path d="M410.8,223.9c1.4,0.2,2.1,1.1,2.7,2.3C412.4,225.6,411.2,225.2,410.8,223.9L410.8,223.9z"/>
	<path d="M719.8,369.6c0.2-1,0.5-2,0.7-3C721.1,367.8,721,368.9,719.8,369.6z"/>
	<path d="M375.4,355.8c2.2,0.6,2.2,1.7,2.3,3.1C376.2,358.4,376.1,357.3,375.4,355.8z"/>
	<path d="M338.3,294.1c1,1.4,0.2,1.9-0.6,2.4C336.9,295.2,337.6,294.8,338.3,294.1z"/>
	<path d="M392.3,207.4c0.2-1.2,0.4-2.5,0.7-3.7C393.7,205.2,394.2,206.7,392.3,207.4L392.3,207.4z"/>
	<path d="M712.7,398.3c1,0.3,1.8,0.9,1.8,2.4c-1.2-0.2-1.7-1.1-2.2-2C712.4,398.6,712.5,398.5,712.7,398.3z"/>
	<path d="M723.8,531.9c-0.4-1.2-0.5-1.9,0.3-2.5C724.9,530.4,723.9,530.8,723.8,531.9z"/>
	<path d="M706.4,428.1c-0.9-1-0.5-1.6,0.4-2.2C708,427.1,707,427.5,706.4,428.1z"/>
	<path d="M723.9,347c0.9,0,1.8-0.4,2.8,0.1C724.8,348.5,724.8,348.5,723.9,347L723.9,347z"/>
	<path d="M780.6,356.8c-0.8-0.3-1.4-0.8-2-1.6c1.1-0.2,1.6,0.5,2.2,1.1c0.1,0.1,0.1,0.2,0.1,0.3
		C780.8,356.7,780.7,356.7,780.6,356.8z"/>
	<path d="M783,322.9c0.7,0.6,0.8,1.3,0.6,2.2C783.4,324.4,782.4,324,783,322.9z"/>
	<path d="M714.6,437.3c0.9,0.5,2,0.9,1.3,2.3C714.5,439.3,714.6,438.2,714.6,437.3L714.6,437.3z"/>
	<path d="M710.8,551.7c1.2,1,1.1,1.7,0.6,2.4C710.5,553.6,710.5,553,710.8,551.7z"/>
	<path d="M726.6,560.5c1-0.2,2-0.4,3.1-0.6C728.7,561.3,727.7,560.7,726.6,560.5L726.6,560.5z"/>
	<path d="M708.4,373.5c0-0.3,0.1-0.6,0.1-1C708.5,372.9,708.5,373.2,708.4,373.5C708.5,373.5,708.5,373.5,708.4,373.5z"/>
	<path d="M349.6,313.6c-0.9-1-0.6-1.8-0.1-2.5C350.7,311.9,350.2,312.6,349.6,313.6z"/>
	<path d="M347,307.9c-0.6-0.4-1-0.8-0.7-1.8c1.1,0.1,1.4,0.7,1.3,1.7C347.4,307.9,347.2,307.9,347,307.9z"/>
	<path d="M350.8,287.7c0.7,1.1,0.1,1.3-0.3,1.7C349.7,288.8,350.1,288.4,350.8,287.7z"/>
	<path d="M414.5,191.2c0.8,0.4,0.6,1,0.4,1.6C414.5,192.4,413.9,191.9,414.5,191.2z"/>
	<path d="M718.5,565.5c0.9,0.4,1.2,0.9,1,1.9C718.2,567.1,718.1,566.5,718.5,565.5z"/>
	<path d="M711.1,556.6c0.8,0.6,0.5,1,0.3,1.6C710.1,557.6,710.8,557.1,711.1,556.6z"/>
	<path d="M714.7,437.2c-0.5-0.4-1.7-0.2-1.3-1.5C714.8,435.5,714.3,436.7,714.7,437.2L714.7,437.2z"/>
	<path d="M349.7,433.3c1.3,1,1.3,1.6,1.5,2.4C349.5,435.5,349.9,434.6,349.7,433.3z"/>
	<path d="M361.1,428.2c-0.5,0.8-1,0.9-1.7,1C359.7,428.3,360.3,428.2,361.1,428.2z"/>
	<path d="M338.2,424.1c0.3,1,0,1.3-0.7,1.4C337,424.8,337,424.3,338.2,424.1z"/>
	<path d="M432.3,376.4c0.8,0.5,1.2,1.3,1.2,2.2C432.3,378.2,432.3,377.3,432.3,376.4L432.3,376.4z"/>
	<path d="M342.7,422.6c-0.7-0.8-0.7-1.4-0.3-2.2C343.2,420.9,343.4,421.5,342.7,422.6z"/>
	<path d="M719.4,419.6c0.5,1.1,0.2,1.5-0.7,1.8C718.2,420.6,718.7,420.2,719.4,419.6z"/>
	<path d="M736,562.6c-0.7-0.3-1-0.8-1.1-1.6c1,0,1.2,0.6,1.3,1.4L736,562.6z"/>
	<path d="M336.2,370.9c0.9,0.3,0.7,0.8,0.7,1.2C336,371.9,336.4,371.4,336.2,370.9z"/>
	<path d="M410.9,223.8c-0.8,0.1-1.3-0.2-1.4-1C410.3,222.8,410.7,223.1,410.9,223.8L410.9,223.8z"/>
	<path d="M366.5,429.3c-0.7-0.2-1-0.7-0.9-1.5C366.5,428,366.5,428.7,366.5,429.3L366.5,429.3z"/>
	<path fill="#FFFFFF" d="M817.1,413.4c-1.6-0.2-2,1-2.3,2.2c-1.2,3.9-2.6,7.8-2.7,11.9c-0.1,3.8-1.5,7.2-2.9,10.6
		c-3.4,7.8-7.9,14.9-12.8,21.8c-3,4.3-5,9.3-6,14.5c-1.7,8.7-9.1,16.3-17.2,17.3c-1.2,0.2-2.5,0.8-3.5-0.7c-0.4-0.7-1.3-0.4-2-0.3
		c-9.4,2.1-18.5,0.2-27.6-1.6c-4.3-0.9-8.6-1.6-12.9-3.4c-0.4-1.2,0.6-2.5-0.5-3.6c0.8-0.3,1.7,0.4,1.9-0.7c0-0.2,0-0.5-0.1-0.6
		c-1.6-0.9-1.9-2.2-1.6-3.9c0.6-4.5,0.9-8.9,1.9-13.4c1.2-5.3,1.6-10.8,1.3-16.3c-0.1-1.5,0.1-2.8,0.8-4.1c1.7-3.2,3-6.5,3.9-10
		c1-3.7,3.5-6.9,3.7-10.7c1.9-0.4,2.8,1.6,4.7,1.5c-0.9-2.3-4.4-2.4-4.1-5.1c0.1-1.7-0.6-3.6,0.9-5.1c2,0.2,3.3,2.7,5.6,1.7
		c-0.2-1.5-2.2-1.4-2.6-3c2.2-1.9,4.3-4,7.3-5.3c2.8,2.7,6.1,3.7,10.5,2.5c-2.7-2.3-6.5-1.4-8.5-4.4c1.6-1.9,3.5-3.7,4.8-6
		c5.1-8.9,6.3-18.6,5.4-28.7c-1.1-11.9-4.9-22.7-12-32.4c-1.5-2.1-2.5-4.6-3.9-7.1c0.8-0.7,1.7-1.1,2.7-1.2c2.5,4.7,6.3,8.1,9.6,12
		c5,5.9,9.9,11.9,14.3,18.3c3,4.3,6.6,8.1,10.3,11.9c2.7,2.8,6,4.1,10,2.6c0.8-0.3,1.6-0.4,2.4-0.6c6-1.9,7.9-4.5,7.7-10.7
		s-1.5-12.2-4.1-18c1.4,1,2.7,1.9,3.2,3.5c1.6,5.2,4.2,9.9,6.5,14.7c4.9,10.4,7.8,21.5,12.3,32c0.7,1.6,0.5,3-0.1,4.5
		c-1.4,3.8-2.8,7.6-4.2,11.4C816.9,412.1,816.8,412.8,817.1,413.4L817.1,413.4z"/>
	<path fill="#FFFFFF" d="M848,632.3c-3.3,0.6-7-0.2-9.7,3.9c-0.8-3.4,0.5-6-0.8-8.7c-1.7,2.4-1.1,5.4-2.7,7.8
		c-2.4,0.3-4.9,1.3-7.8,0.6c2.9-10.5,3.7-21.2,6.8-31.5c0.5-1.6,0.5-3,0-4.7c-0.7-2.5-0.2-5.3,0.6-7.8c1-3.4,0.7-6.6-0.1-9.9
		c-0.5-2.1-0.8-4.3-1.6-6.2c-3.6-9.2,0.6-16.8,5-24.1c3.2-5.1,7.7-9.3,11.6-13.9c0.4-0.4,0.9-0.8,1.4-1.1c2.1,0.4,4.1,1.4,6.5,0.3
		c-0.9-1.8-2.6-1.9-3.9-1.6c-3,0.6-5.8,1.5-8.1,4c-2.8,3.2-6.8,5.2-10.4,7.4c-8,5-16.6,8.9-26.1,10c-0.7,0.1-1.4,0.3-2.1,0.3
		c-0.8,0.1-1.7,0-2.5,0c-1.6-3.5-1.6-5.2,0.2-10.1c5.2-0.1,9.4-3.5,14.1-5.6c-4.5,0.5-8.7,2-13.1,2.1c-0.6-0.6-0.6-1.3-0.4-1.8
		c4.3-10.6,8-21.6,16.6-29.7c7-6.6,14.1-13.1,21.2-20c9,3.2,18.3,5.4,26.3,10.8c1.1,0.7,2.2,1.2,3.6,1.3c5.5,0.5,10.1,5.7,10.1,11.1
		c0,5.4-0.1,10.7-0.1,16.1c0,2.7-0.7,5.2-2.5,7.1c-0.9,1-0.7,1.9-0.8,3c-0.3,6.1-0.5,12.1-0.9,18.2c-0.5,9.4-3.8,17.8-8.1,26
		c-7.1,13.2-14.2,26.4-20.2,40.2C849.2,628.1,848.7,630.2,848,632.3z"/>
	<path fill="#FFFFFF" d="M715.4,654.1c-3.4,2.9-4.6,7.4-8,10.3c-4.3,3.8-8.9,4.8-14.1,2.5c-2.8-1.3-5.6-2.7-8.4-4
		c-3.8-1.9-7.8-3-12-3.4c-9.3-1-16.8-5.7-23.7-11.4c-4.6-3.8-9.6-7.4-13.2-12.4c-1.5-2.1-4-3.3-6.2-4.8c-2.9-2-5.8-4-8.6-6.2
		c-3.2-2.5-7.5-2.8-11.6-2.5c-0.2,0-0.4,0.6-0.5,0.8c0.1,1.6,1.8,1.5,2.5,2.8c-1.3,1-1.6,2.7-2.4,4.4c-2.8-0.3-5.7-0.1-8.7-1.4
		c2.9-0.5,5.9,0.3,8.8-1.1c-0.9-5.8-5.8-3.2-8.8-4.8c-0.3-0.4-0.3-1.1-0.3-2.1c2.1,0.8,4.2,1.5,6.5,1.8c0.6-0.9-0.1-1.9,0.2-2.7
		c-4.6-3.4-9-6.9-10.9-12.5c-1.6-4.5-0.9-6.2,2.9-9.1c1.4-1,3.4-1.3,4.2-3c-0.8-1.6-1.9-1.1-3.1-0.7c-3.8,1.2-8.4,6.6-6.7,11.9
		c0.7,2.2,1.2,4.5,2.8,7c-5.3-1.5-7-5.6-7.9-9.4c-0.8-3.5,1-6.8,4.1-9.2c5.3-4.1,6.7-3.9,12.5-0.1c3.8,2.5,7.4,4.7,11.9,6.2
		c6.8,2.2,13.4,4.9,20.1,7.2c3.3,1.1,6.4,1.7,9.8,2c7.6,0.6,15,2.5,22.3,4.8c5.5,1.7,8.8,6,11.7,10.6c1.1,1.7,0.3,3.9-1,5.6
		c-0.7,0.9-1.6,1.8-2.3,2.7c-0.7,1-1.5,2-0.1,3.4c3-2.4,5.2-5,5.8-9.2c0.8-5.5,0.5-10.9,0.5-16.7c10.9,3.6,21.7,4.7,32.7,2.2
		c0-1.1-1-0.6-1.5-1.2c8.6-0.5,16.1-4,23.6-8.5c-0.6,7.5-2.8,14.1-4.5,20.7c-1.1,4.4-2.3,8.7-3.7,13
		C727.4,645.1,722.3,650.5,715.4,654.1c-2-2.1,1.4-3.8,0.3-5.9C716.6,650.2,713.5,651.9,715.4,654.1z"/>
	<path fill="#FFFFFF" d="M818.2,643.3c0.5,1.5,0.9,2.6,1.2,3.6c5.6,3.4,10.1,3.1,14.2-1.3c2.9-3,5.7-5.7,10.2-5.8
		c0.2,0,0.4-0.2,0.6-0.4c0.2-0.2,0.2-0.4,0.3-0.5c0.2-1.4-1.4-1.1-1.8-2.2c1.7-2.1,4-1,6.2-1.1c-0.5,2.8-0.9,5.4-0.1,8
		c-2.5,2.3-6.7,0.9-8.9,4.1c1.1,1.5,2.7,0.3,3.9,0.8c-0.1,1.2-1.7,0.8-1.9,2c1.3,1.2,3.1,0.3,4.5,0.9c-0.1,0.8-1.3,0.7-1.1,1.8
		c2.2,1,4.5,0.9,6.9,0.6c2.2-0.2,4.3-0.5,6.6-0.4c-2.8,2.3-6.9,0.5-9.9,3c1.9,1.8,4.1,1,6.1,1.4c-0.1,0.8-1.2,0.9-1.1,1.7
		c2.9,1.2,3,1.2,9-0.6c-1.7,1.9-0.2,3.7-1.1,5.3c4.6,2.3,6,2.4,8.2,0.7c4.3,1.8,7.8,5,12.1,6.8c2.8,1.2,2.3,4.3,2.6,7
		c-5,1.2-9.8,2.2-14.9,2.4c-8.8,0.3-17.6,0.8-26.3-1.3c-8-1.9-16-2.1-24-1.7c-3.6,0.2-7.1-0.8-10.6-1.5c-1.3-0.3-2.5-0.5-4.4-0.7
		c2.2-1.2,3.3-2.6,3.2-4.9c-0.1-1.6,0.8-3.2,1.8-4.6c4.8-6,6.4-12.8,4.8-20.4c-0.1-0.3,0-0.7,0-0.8c0.3-1,1.1-1.2,1.7-1.5
		C816.8,643.6,817.4,643.5,818.2,643.3z"/>
	<path fill="#FFFFFF" d="M817,413.5c1.7,4.6,2.4,9.4,2.4,14.3c0,5-0.8,10-1.4,15c-0.5,4.5-0.8,8.9,0.9,13.3c0.9,2.4,1.4,5,2.2,7.5
		c1.8,5.8,1.3,11.8,0.7,17.7c-0.1,1.2-0.8,2.5,0.7,3.6c-3.6,1.6-6.3-1.7-9.6-0.8c-3,0.9-6.3,0.8-9.8,1.2c0-2.1,0.7-4.8-2.4-4.5
		c-1.8,0.2-3.6,1.2-5.6,1.9c0.2-2.1-0.7-3.6-2.5-4.3c0.1-3,0.8-5.6,2.2-8.1c3.2-5.8,5.6-12.1,10.6-16.9c1.6-1.6,2.4-3.8,3.3-5.9
		c1.3-3,2.1-6.1,4.3-8.8c1.9-2.3,2.1-5.5,2.1-8.5C815.1,424.6,815.4,418.9,817,413.5L817,413.5z"/>
	<path fill="#FFFFFF" d="M696.2,544c-0.4-0.7-0.7-1.5-1.3-2.1c-3.4-4-4.2-8.2-2.1-13.1c1-2.5,0-5.4,0.9-8.3c2.2,0.8,3.7,3.3,6.5,2.4
		c-0.1-2.1-1.3-3.4-2.8-4.9c1.9-1.3,2.7-3.2,3.4-5.3c1.3,10.4,3.3,20.7,1.3,31.1c-0.3,0.6-0.9,0.7-1.4,0.9c-0.4,0.2-0.9,0.3-2,0.8
		c0.6-1.1,1.5-1.4,1.6-2.1C698.6,542.6,697.5,544.1,696.2,544L696.2,544z"/>
	<path fill="#FFFFFF" d="M821.9,392c-3.3-14.2-9.3-27.3-16.1-40.6c2.2,0.9,3.9,1.4,5.4,2.3c3.1,1.9,5.7,4.4,6.6,8.1
		c2.1,8.6,4.1,17.1,4.9,25.9c0.1,1.3,0,2.6,0,3.9C822.4,391.8,822.2,391.9,821.9,392z"/>
	<path fill="#FFFFFF" d="M748.5,405.3c-2.5,2.7-5.4,4.4-8.8,6.1c0.3-5.5-0.9-10.4-1.2-15.6C740.8,399.8,745.1,401.7,748.5,405.3z"/>
	<path fill="#FFFFFF" d="M839.4,638c-3.7,1.5-6.3,4.3-8.9,7.2c-1.5,1.7-3.8,1.6-6.7,1.5c1.4-2.3,1.1-4.6,1.6-7.1
		C830.1,639.1,834.7,638.6,839.4,638z"/>
	<path fill="#FFFFFF" d="M829.5,563.6c-3.4-7.7-2.9-8.9,6.5-14.4C832.7,553.8,831.1,558.5,829.5,563.6z"/>
	<path fill="#FFFFFF" d="M804.5,560.2c4.3,0.8,8.2-1.2,12.4-1.5C810.8,564.6,807.7,565,804.5,560.2z"/>
	<path fill="#FFFFFF" d="M817.1,568.6c-2.8-1.9-5.9-0.5-8.7-1.9c3.5-0.4,6.2-2.5,8.9-4.3C818.3,564.5,818.3,564.5,817.1,568.6z"/>
	<path fill="#FFFFFF" d="M756.5,259.5c2-1,0.5-4.1,3-4.7c1.1,0.3,1.3,1.6,2.5,2.3c0.7,0.4,1.6-0.9,2.7-0.5c0.7,1-0.1,1.5-0.8,2.3
		C761.4,257,759,257.9,756.5,259.5z"/>
	<path fill="#FFFFFF" d="M696.1,544c-1.9,0.7-3.8,1.1-5.8,1.1c-1-1.8-1.1-3.2,1.1-3.9C693.2,541.8,694.2,543.8,696.1,544L696.1,544z
		"/>
	<path fill="#FFFFFF" d="M733.6,490.3c3.4,1.6,6.6,1.9,9.9,2.9C738.9,493.9,734.8,492.8,733.6,490.3z"/>
	<path fill="#FFFFFF" d="M756.2,285.4c1.3,0.3,1.7,1.1,2.3,1.6c0.4,1.5-2.2,2-1,3.7C755.9,289.1,753.7,287.8,756.2,285.4z"/>
	<path fill="#FFFFFF" d="M727.1,447.7c0.6,2.4,2,4.7,0.6,7.2C727.3,452.5,726,450.2,727.1,447.7z"/>
	<path fill="#FFFFFF" d="M770.1,260.6c0.2-2.5,2.2-3.3,3.8-4.4C773.5,258.5,771.5,259.3,770.1,260.6z"/>
	<path fill="#FFFFFF" d="M784.1,490.1c1.3-1.3,2-3.2,3.5-4.3l0,0c0,1.7-1,3-1.6,4.4C785.2,490.9,784.7,489.8,784.1,490.1
		L784.1,490.1z"/>
	<path fill="#FFFFFF" d="M787.9,250.7c-0.3-2.5,0.8-3.2,3-3.1C790.3,249.1,788.9,249.6,787.9,250.7z"/>
	<path fill="#FFFFFF" d="M812.1,251.7c0.8-0.6,1.5-0.6,2.4-0.4c-0.3,1-0.7,1.9-1.6,2.5C811.8,253.4,812.3,252.4,812.1,251.7z"/>
	<path fill="#FFFFFF" d="M603.4,619.8c-1.4-0.3-2.9-0.4-3.9-1.8C601.5,617.4,602.3,618.9,603.4,619.8z"/>
	<path fill="#FFFFFF" d="M784,490.1c-0.4,1.3-0.9,2.5-2.2,3.7C780.9,491.1,782.9,490.9,784,490.1L784,490.1z"/>
	<path fill="#FFFFFF" d="M759.9,271.5c0.6,1.5-0.3,2.6-0.5,3.8C759,273.9,758.7,272.5,759.9,271.5z"/>
	<path fill="#FFFFFF" d="M774.6,266.3c1.6,2-0.2,2.4-0.9,3.7C773.5,268.4,773.8,267.5,774.6,266.3z"/>
	<path fill="#FFFFFF" d="M787.6,485.9c0.4-1,0.8-2.1,2.4-2C789.9,485.4,789.2,486.2,787.6,485.9L787.6,485.9z"/>
	<path fill="#FFFFFF" d="M757.1,494.6c0.9-0.5,1.6-0.5,2.4,0C758.6,496.2,757.9,495.6,757.1,494.6z"/>
	<path fill="#FFFFFF" d="M729.7,488.7c1.2,1.6,1,2.5,0.9,4.2C729.5,491.4,729.3,490.5,729.7,488.7z"/>
	<path fill="#FFFFFF" d="M809.2,281.7c-1.3,1.3-2.3,0.6-3.3,0.6C806.8,281.8,807.7,281.5,809.2,281.7z"/>
	<path fill="#FFFFFF" d="M806.7,243.9c1.4,1.9,0.3,2.4-1.1,3.6C806.1,246,806.3,245.1,806.7,243.9z"/>
	<path fill="#FFFFFF" d="M772.5,249c-0.3,1.3-0.7,2-2.1,1.7C770.5,249.6,771.3,249.3,772.5,249z"/>
	<path fill="#FFFFFF" d="M767,275.6c-0.3-1.5,0.3-2,1.5-2.3C769,274.6,768,275,767,275.6z"/>
	<path fill="#FFFFFF" d="M849.1,647.5c0.9-0.6,1.6-1.3,2.7-0.7C851.1,648.1,850.1,647.5,849.1,647.5z"/>
	<path fill="#FFFFFF" d="M765.5,272.8c-0.2,1.1-1.2,1.1-2.1,1.6C763.6,273,764.1,272.2,765.5,272.8z"/>
	<path fill="#FFFFFF" d="M796,258.7c-1.3,0.3-2-0.5-2.8-1.2C794.2,257.5,795.2,257.7,796,258.7z"/>
	<path fill="#FFFFFF" d="M767.2,284.2c0.1,0.8-0.2,1.3-0.7,1.6C765.6,284.7,767,284.6,767.2,284.2z"/>
	<path fill="#FFFFFF" d="M788.7,256.3c1.3-0.8,1.2,0.3,2,0.6C789.6,257.2,789.2,256.8,788.7,256.3z"/>
	<path fill="#FFFFFF" d="M756.9,496.9c-1,0.3-1.5,0.5-1.8-0.2C755.6,495.6,756,496.4,756.9,496.9z"/>
	<path fill="#FFFFFF" d="M762.4,249.2c0.9-0.1,1,0.4,1.3,0.8C763,250.6,762.7,250.1,762.4,249.2z"/>
	<path fill="#FFFFFF" d="M767.1,495.5c-0.2,0.5-0.8,0.8-1.1,0.5c-0.6-0.6,0-0.7,0.4-0.7C766.6,495.3,766.9,495.4,767.1,495.5z"/>
	<path fill="#FFFFFF" d="M865.6,662.4c1-0.4,1.2,0.1,1.6,0.6C866.6,663.5,866,663.6,865.6,662.4z"/>
	<path fill="#FFFFFF" d="M804.1,259.7c-0.5,0.5-0.8,0-1.1-0.3C803.6,258.9,803.9,258.9,804.1,259.7z"/>
	<path fill="#FFFFFF" d="M448.1,281.8c-0.7-0.1-1.2,0.2-1.4,0.9c-1,3.7-2.8,7.2-3,11.2c-0.5,8.9-3.5,17.2-6,25.7
		c-1.5,5-2.3,9.9-2.3,15.1c0,7.1,0.1,14.3-1.5,21.3c-0.6,2.9-2.1,4.1-4.7,4.5c-6.1,0.9-12-0.5-18-1.2c-1.3-4.1-0.8-8.3-2.4-12.8
		c-0.4,4.7,0.8,8.5,1.2,12.3c-3.7,0.5-48.4-9.1-52-11.3c0.8-5,0.8-10.2,2-15.3c1.3-5.4,1.7-11.1,1.4-16.7c-0.1-1.7,0.3-3.2,1.1-4.8
		c1.7-3.4,3.1-7,4.1-10.7c0.9-3.3,3.2-5.9,3.2-9.3c2.1-0.5,2.9,1.6,4.8,1.3c-0.9-2.1-4-2.2-4.2-4.6c-0.1-1.7,0.2-3.5,0.4-5.3
		c2.5-0.4,3.8,2.7,6.2,1.5c-0.2-1.5-2.3-1.3-2.5-2.9c2-2,4.3-3.9,7.1-5.4c2.7,2.8,6.1,3.7,10.9,2.6c-3-2.1-6.6-1.6-8.6-4
		c0-0.2-0.1-0.5,0.1-0.6c9.8-10.5,10.9-23.3,9.5-36.8c-1.2-11.2-5.3-21.2-11.9-30.2c-1.5-2.1-2.5-4.6-3.6-6.9
		c0.8-0.9,1.6-1.1,2.6-1.2c2.1,4,5.3,6.8,8.1,10c5.6,6.5,11.1,13.1,16,20.1c3,4.3,6.6,8.1,10.3,11.9c2.7,2.8,6,3.8,10,2.6
		c9.4-2.8,11.2-5.2,9.9-14.9c-0.3-2.6-0.8-5.2-1.4-7.7c-0.7-2.5-1.7-4.8-2.7-7.2c1.9,1.6,3.5,3.3,4.3,5.9c1.3,4.6,3.8,8.7,5.8,13
		c4.9,10.4,7.8,21.5,12.3,32c0.6,1.5,0.3,2.8-0.1,4.1C451.5,272.8,449,277.1,448.1,281.8L448.1,281.8z"/>
	<path fill="#FFFFFF" d="M417.9,632.6c-4.8,2.7-4.9,3-4.1,11.4c-1,1.1-2.6,1.7-2.9,3.4c0.5,1.3,1.5-0.1,2.2,0.5
		c-0.2,0.8-1.7,0.7-1.5,1.8c5.1,1.7,9.8-1,14.7-1.5c-3.7,2-8.2,1.8-11.6,4.8c4.6,1.3,8.8-0.3,13.2-1.5c0.9,0.3,1.4,1.1,1.8,2
		c-3.8,0.4-7.7-0.1-11.3,1.6c0.4,1.7,3.6,1,2,3.4c4.4,0.4,8.4-0.6,12.4-1c-2.9,1.5-6.5,1-9.4,3.9c5.1,0.7,9.1,3.7,13.9,3.9
		c1.3-0.8,0-2,0.9-2.8c0.3,0.1,0.7,0.1,0.9,0.3c1.4,1,2.6,2,4,3c1.5,1,3,1.8,4.9,1.8c7.6,0.3,11,4.9,9.7,12.3
		c-14.1,3.3-28.2,2.3-42.5,1.6c-0.2-4.4-2-6.7-5.7-7.9c-2.8-0.9-5.3-2.6-7.9-4.1c-4.7-2.8-7.3-7.7-11.8-10.8
		c3.4-4.8,0.6-10.3,2.7-15.7c1.7,2.9,3,5.2,4.4,7.6c3.2,0.4,5.7-0.4,7.4-3.2c1.1-1.9,3.2-2.4,4.9-3.4c1.1-0.7,2.2-1.3,3.4-2
		c0.5-3.3,0-6.5-0.6-10.2c-0.5,2.6-0.9,4.6-1.3,6.8c-2,0.5-4,1.1-5.8,1.6c-1.5-1-0.5-2.7-1.7-3.8c-1.7,1.4,1,5.7-3.4,5.1
		c-0.6-2-0.2-4,0-6c0.7-11.8-0.1-23.6,0.5-35.4c0.4-7.7-0.1-15.5-4.8-22.5c-2.7-4.1-1.2-9.1-0.9-13.7c0.5-7.7,2.5-15.2,5.3-22.5
		c0.8-2.1,0.6-4.4,1.3-7c2,2.1,3.8,3.9,6.9,3.6c-2.1-2.6-3.3-5.8-7.1-6.4c-2-4.6-2-9.3-0.8-14.2c1.4-5.7-1-10.7-4.7-15.4
		c2.6-4.4,4.1-9.3,4.3-14.9c13.9,3.6,27.6,1.9,41.4,1.8c0.2,1-0.4,2.1-1,2.7c-4.1,3.9-3.5,8.7-2.7,13.4c1,6.1,0,12-1.8,17.5
		c-1.8,5.7-2.5,11.3-1.9,17c1.2,10.7-0.3,21.2-2.1,31.6c-1.6,8.9-5.2,17.3-7.3,26C421.7,608.9,419.3,620.6,417.9,632.6z"/>
	<path fill="#FFFFFF" d="M381.5,483c1-0.1,1.9,0.1,2.8,0.4c4.3,1.2,8.7,1.4,13.6-0.6c-1.3,7.3-1.9,14-5.7,20.1
		c-2.3,3.8-4.3,8-3.5,12.8c0.5,2.7-0.2,5.2-1.4,7.6c-1.6,3.1-2.9,6.3-3.1,9.2c-0.4,1.7-1.3,0.9-1.7,1c-2.2,4.1-3.6,8.5-4.8,12.7
		c-1.4,5.1-1.6,10.6-1.5,15.9c0.2,9.7-1.7,19.2-3.7,28.6c-1.2,5.8-1.6,11.8-1.9,17.7c-0.5,9.5,0,19,0.1,28.6
		c-2.1,1.5-4.6,2.7-5.2,5.6c-1.5-0.3-0.9-1.8-1.6-2.5c-0.2,0.7-0.4,1.4-0.6,2.1c-3.1,0.5-6.2,1-9.4,1.6c-1-3.8-1.8-7.7-1.8-11.6
		c-0.1-6.2-1.6-12-3-17.9c-0.7-2.9-1.4-5.8-0.8-8.8c0.2-1.1,0-2.4-0.7-3.1c-3.2-3.4-3.6-7.9-4.8-12.1c-3.1-11-1.8-22.2-1.5-33.4
		c0-0.9,0.4-1.9,0.9-2.7c5.1-8.6,7.1-18.4,9.8-27.9c1.7-5.8,1.5-11.8,2.8-17.6c0.7-3-0.1-6.2-1-9.2c-2.2-7.2-2-14.6-2.7-22.1
		c2.4-0.7,4.6,0.2,6.7,0.6c6.7,1.1,13.4,2.4,20,3.6C379.2,482,380.6,482,381.5,483c-1.7,1.5-2.7,3.6-4.9,4.7
		C378.7,486.5,379.9,484.6,381.5,483z"/>
	<path fill="#FFFFFF" d="M396.3,640.6c-9.7,1.4-9.8,8-7.8,15.4c-2.4,0.3-3.6-0.9-4.9-1.9c0.3-4-0.9-7.6-2-11.2
		c-1.4-4.5-6.1-3.9-8.9-5.6c0.7-8-0.2-15.5,0.3-23c0.5-7.8,0.8-15.7,2.2-23.5c0.5-3,1.6-6,2.4-8.9c2.4-8.9,2-18,1.7-27
		c-0.2-4.7,0.9-9,3.5-12.8c1.8-2.6,3-5.5,3.7-8.5c0.9-3.9,2.6-7.4,4.1-11c0.6-1.6,1.5-3.2,1-4.8c-1.5-4.8,0.6-8.7,2.5-12.9
		c2.4,5.3,2.9,10.9,3.2,16.5c0.2,4.1,0.1,8.2,1.8,12.2c0.8,1.9-0.2,4.6-1.3,6.7c-7,12.9-7.9,30.4-2.3,43.8c1.6,3.9,2.1,7.9,1.9,12.2
		c-0.8,12.5-0.3,25-0.2,37.5C396.9,636,396.9,638.1,396.3,640.6z"/>
	<path fill="#FFFFFF" d="M348.9,649.4c0.8,2.8-1.2,5.8,1.5,8c1.4,0.4,2.2-0.6,2.6-0.7c4.4,2.4,7-0.5,9.8-2.2
		c1.9-1.2,3.9-2.2,6.2-2.7c-0.3-2.9-0.5-5.5-0.8-8.2c1-1.6,2.5-3,4.1-4.1c1.4,0.2,2.1,1.5,3.9,1.2c1.3-0.2,2.3,1.5,2.6,3
		c0.6,2.6,1.2,5.3,1.8,8.2c-4,1-8.3,0.6-12.3,3.3c4.8,0.9,9.1-0.9,13.4,0c-3.5,1.6-7.4,1.2-10.7,3.4c0.9,1.2,2.4,0.1,3.3,1
		c-0.1,0.4-0.3,0.8-0.5,1.6c4.8,0,9.4,0,14.1,0c0,0.2,0.1,0.5,0.1,0.7c-3.4,0.6-7,0.2-10.4,2.9c3,0.6,5.4,0.1,8,0.1
		c-0.6,1.5-2.7,1-3.2,2.9c3.8-0.3,7.5,0,11.2-1.8c4.6,5,10.4,7.9,16.4,10.4c2.5,1.1,2,3.8,3,6.3c-5.3,1.1-10.3,2.4-15.4,3.2
		c-10.4,1.7-20.6-0.7-30.9-1.8c-2.7-0.3-5.5-0.4-8.1-0.3c-5.4,0.1-10.6-0.9-16.1-1.5c1-5.8,3.8-10.8,4.4-16.6
		C347.5,660.4,346.4,654.6,348.9,649.4z"/>
	<path fill="#FFFFFF" d="M453.5,260.5c-3.3-14-9.2-27-15.9-40.3c6.5,1.7,10.6,5,12,10.8c2,9,4.2,18,4.8,27.3c0,0.6,0,1.3,0,1.9
		C454.1,260.3,453.8,260.4,453.5,260.5z"/>
	<path fill="#FFFFFF" d="M371.1,280.1c0.4-6.2-0.7-12-1.8-17.9c1.9,5.2,6.9,7.5,10.6,11.3C377.7,276.7,374.1,277.9,371.1,280.1z"/>
	<path fill="#FFFFFF" d="M365.4,645.1c0.9,1.5,0.5,2.9,0.2,4.3c-3.9,2.5-9.5,0-12.6,5c-0.2-0.3-0.4-0.5-0.5-0.8c0.3-2,0.5-4,0.8-6.3
		C357.2,646.2,361.2,645.2,365.4,645.1z"/>
	<path fill="#FFFFFF" d="M421.5,642.1c-1.9,0.9-3.8,0.8-6.1,1.4c0.8-2.4,0.3-4.6,0.6-6.7c1.2-1.1,2.6-1.3,4.3-1.1
		C421.1,637.6,421.2,639.8,421.5,642.1z"/>
	<path fill="#FFFFFF" d="M389.3,120.1c1.2,0.4,2.3,0,3.4-0.2c1.2,0.3,1.3,1.7,2.3,2.2c1,0.4,1.7-0.9,2.7-0.3c0.6,0.9,0,1.4-0.9,2.2
		c-2.4-2.2-4.8-1-7.2,1c0.1-1.8,1.6-2.1,1.8-3.2C391.3,120.4,389.8,120.9,389.3,120.1L389.3,120.1z"/>
	<path fill="#FFFFFF" d="M425.2,365.5c-1-0.5,0.3-1.4-0.7-2c-1.6,0.8-1.7,3.9-4.3,3.3c0.2-3.7,0.9-4.1,6.2-3.7
		C426.5,364.2,426.8,365.3,425.2,365.5z"/>
	<path fill="#FFFFFF" d="M399,644.4c2-0.5,3.8-1,5.6-1.5c-2,1.1-2.9,3.3-4.6,5C399,646.8,399,645.8,399,644.4z"/>
	<path fill="#FFFFFF" d="M435,659.4c1,0.5,1.4,0.9,1.5,1.7c-1.9,2.9-4.5,0.3-6.8,0.7C431.3,660.6,433.6,661,435,659.4z"/>
	<path fill="#FFFFFF" d="M390,155.4c-1.6-1.9-2.9-3.3-0.6-5c1.2,0,1.6,0.9,2.3,1.7C391.8,153.4,390.3,153.8,390,155.4z"/>
	<path fill="#FFFFFF" d="M358.7,315.9c0,2.4,2.2,4.7,0.1,7.9C358.9,320.7,357.1,318.4,358.7,315.9z"/>
	<path fill="#FFFFFF" d="M420.9,115.7c0.5-2.9,0.5-2.9,3.4-3C423.1,113.8,422.1,114.6,420.9,115.7z"/>
	<path fill="#FFFFFF" d="M445.3,116.7c0.9-0.6,1.7-0.8,2.6-0.5c-0.2,1.2-0.9,2-1.7,2.8C444.8,118.4,445.6,117.4,445.3,116.7z"/>
	<path fill="#FFFFFF" d="M407,121.2c-0.6,2-2.1,3.3-4.2,4.9C403.4,123.1,405.5,122.4,407,121.2z"/>
	<path fill="#FFFFFF" d="M424.5,196.7c-1.2-1.2-0.3-3.2-1.5-4.4C426.4,192.8,424.8,195,424.5,196.7z"/>
	<path fill="#FFFFFF" d="M392.6,140.5c-0.3-1.4-0.7-2.8,0.2-4.3C394.3,137.8,392.3,139.2,392.6,140.5z"/>
	<path fill="#FFFFFF" d="M429.5,123.8c-1.2-0.2-2.4-0.4-3.1-1.4C427.6,122.4,428.6,123,429.5,123.8z"/>
	<path fill="#FFFFFF" d="M406.9,134.3c0-1-0.1-2,1-2.8C409.3,133.1,407.7,133.6,406.9,134.3z"/>
	<path fill="#FFFFFF" d="M431.9,361.7c0.6,1.1,0.5,2,0,2.9c-0.2,0-0.6,0.1-0.6,0C430.8,363.6,431,362.7,431.9,361.7z"/>
	<path fill="#FFFFFF" d="M359.6,354.6c-1-1.7-0.9-2.6-0.8-3.7C360.1,351.7,359.9,352.8,359.6,354.6z"/>
	<path fill="#FFFFFF" d="M405.6,113.9c-0.1,1.2-0.5,2.1-2,1.6C403.8,114.4,404.8,114.3,405.6,113.9z"/>
	<path fill="#FFFFFF" d="M401.9,138.2c-0.1,1.4-0.6,2-1.8,2.2C399.9,138.9,400.6,138.4,401.9,138.2z"/>
	<path fill="#FFFFFF" d="M429,362.8c0.6,0.9,0.7,1.7-0.1,2.3c-0.5,0.3-0.7,0.2-0.8-0.1C428,364.1,427.6,363.1,429,362.8z"/>
	<path fill="#FFFFFF" d="M418.8,646.3c1.2-0.6,2.4-1.3,4.2-1.6C421.5,646.2,420.1,646.1,418.8,646.3L418.8,646.3z"/>
	<path fill="#FFFFFF" d="M439,112.1c0.1-1.3,0.5-2,1-2.9C441.3,110.8,440.1,111.2,439,112.1z"/>
	<path fill="#FFFFFF" d="M363.7,351.9c-1.8-0.2-1.7,1.2-1.8,3.1c-0.6-1.7-0.4-2.6-0.2-3.5C362.5,351.2,363.1,351.7,363.7,351.9
		L363.7,351.9z"/>
	<path fill="#FFFFFF" d="M396.6,139.3c0.3-1.3,0.6-2.2,2.1-1.6C398.5,138.9,397.5,138.8,396.6,139.3z"/>
	<path fill="#FFFFFF" d="M442.4,146.5c-1.3,1.6-2,1-2.8,0.6C440.3,146.4,441.1,146.7,442.4,146.5z"/>
	<path fill="#FFFFFF" d="M400.4,149.1c0.4,0.7-0.3,1-0.5,1.6C399.1,149.8,399.6,149.4,400.4,149.1z"/>
	<path fill="#FFFFFF" d="M437.3,124.7c-0.5,0.3-0.8,0.2-1.1-0.4C436.9,123.7,437.2,124.1,437.3,124.7z"/>
	<path fill="#FFFFFF" d="M428.2,117.7c-0.1-0.7,0.2-1,0.8-1C429.5,117.6,428.5,117.4,428.2,117.7z"/>
	<path fill="#FFFFFF" d="M421.7,121.3c1.3-0.5,1.6-0.1,1.7,0.5C422.7,122.3,422.4,121.7,421.7,121.3z"/>
	<path fill="#FFFFFF" d="M418.7,646.2c-0.5,0.9-1.3,0.5-2.6,0.8C417.4,646.1,418.1,646.1,418.7,646.2L418.7,646.2z"/>
	<path d="M792.3,402.1c3.5-0.3,6,1.8,7.6,5.9C796.7,406.8,794.7,404.8,792.3,402.1z"/>
	<path d="M792,398.2c-0.3-3.6-0.2-6.8,0.6-10.1C793.9,390.3,793.7,395.4,792,398.2z"/>
	<path d="M788,456.1c-0.3,2.3,0.2,4.6-1.6,6.8C786.2,460.2,786.8,458,788,456.1z"/>
	<path d="M802.7,411c1.9-0.6,3.2-0.1,4.3,1.3C805.6,412.1,803.9,412.9,802.7,411z"/>
	<path d="M790,424.8c-0.4,1.6-1,3.1-2.8,3.9C786.9,426.4,789.2,426.1,790,424.8z"/>
	<path d="M761.8,410c1.3-0.3,2.5-0.1,3.7,1C763.7,411.8,762.7,411.2,761.8,410z"/>
	<path d="M791.7,437.3c-0.5-2.1-0.4-3.5,0.7-4.8C792.2,433.9,792,435.3,791.7,437.3z"/>
	<path d="M741.4,434.1c-0.7-1.4,0-2.3,1.2-3.4C742.8,432.3,741.8,433.1,741.4,434.1z"/>
	<path d="M750.2,417.7c-1.6,0.2-2.5-0.1-2.8-1.8C748.7,415.8,749.4,416.3,750.2,417.7z"/>
	<path d="M792.4,382.1c-0.8-1.6-0.9-2.6-0.8-4.2C793,379.3,792.9,380.5,792.4,382.1z"/>
	<path d="M766.7,450.6c-0.8-1.4-0.1-2,0.5-2.8C768.1,448.8,767.5,449.5,766.7,450.6z"/>
	<path d="M735.4,453.7c1.8,0.2,2.6,0.6,3,1.6C737.3,455.4,736.7,454.9,735.4,453.7z"/>
	<path d="M741.4,457.1c0.9,0,1.6,0,1.8,1.1C742.4,458.2,741.7,458.1,741.4,457.1z"/>
	<path d="M754,417.9c-0.8-0.1-1.8,0.5-2.5-0.5c0.2-1,0.9-0.9,1.6-0.7C753.7,416.8,753.9,417.3,754,417.9L754,417.9z"/>
	<path d="M746,461.5c-0.8-0.4-1.2-0.9-0.9-2C745.9,459.8,746.5,460.1,746,461.5z"/>
	<path d="M753.9,418c0.4-0.2,0.8-0.3,1.3-0.5c0.5,1.1-0.2,1.3-1.1,2C754.1,418.8,754,418.3,753.9,418L753.9,418z"/>
	<path d="M854.3,575.1c0.4-8.8,2.8-17.4,1.9-27c2.9,4.4,1.7,8.3,1.3,12.1c-0.2,1.6-0.2,3.1,0.1,4.8
		C858.2,568.6,856.6,572,854.3,575.1z"/>
	<path d="M871,512.3c0.5,3.6,4.6,4.3,5.3,7.6c0.1,0.4-0.3,0.9-0.8,1C870.3,518.2,868.7,515.5,871,512.3z"/>
	<path d="M868.8,540.1c4.3,1.8,5.7,5.5,6.7,9.6c-2.6-2.9-4.1-6.7-7.1-9.2C868.2,540.1,868.4,539.9,868.8,540.1z"/>
	<path d="M850.3,597.3c0.4-3.4,0-6.8,1-10C852.6,590.9,851.8,594.2,850.3,597.3z"/>
	<path d="M853.8,576.8c1,3.2-1.2,4.9-3,6.8C851,580.9,852.2,578.8,853.8,576.8z"/>
	<path d="M866.2,512.4c-2.7,2.6-5.5,2.9-8.2,3.2C860.3,514.3,862.2,512,866.2,512.4z"/>
	<path d="M846.4,610.3c0.2-3.5,0.6-6.6,1.7-10C849.2,603.3,848.5,607,846.4,610.3z"/>
	<path d="M836.8,623c-0.3-2.9-0.2-5.7,1.2-8.3C838.5,617.6,838.2,620.4,836.8,623z"/>
	<path d="M868.3,540.5c-2.6-1.1-4.1-3.3-6.7-5.1c3.1-0.3,3.4-0.1,7.2,4.7C868.6,540.2,868.5,540.4,868.3,540.5z"/>
	<path d="M876.1,525.6c3.1,1.1,3.6,2.3,2.6,6.2C877.3,529.8,877.8,527.2,876.1,525.6z"/>
	<path d="M820.3,540.7c1.2-2.7,3.5-2,5.4-2.3C824.3,540,823,541.5,820.3,540.7z"/>
	<path d="M871.7,549.9c-1.4-1.2-2.2-2.8-2.9-5C871.5,545.9,870.8,548.3,871.7,549.9z"/>
	<path d="M847,514.8c1.5-0.5,2.9-0.8,4.8,0.1C849.7,516.2,848.3,515.8,847,514.8z"/>
	<path d="M839.9,608.2c0.3,1.7,0.4,3.2-1.1,4.8C838.1,610.9,839.1,609.6,839.9,608.2z"/>
	<path d="M842.4,593.7c0.1-1.8,0.5-2.6,1.9-2.8C844.5,592.1,843.7,592.7,842.4,593.7z"/>
	<path d="M848.3,586.1c0.2,1.4-0.3,1.9-1.7,2.3C846.8,587.3,846.9,586.5,848.3,586.1z"/>
	<path d="M831.5,536.5c0.5-0.8,1.2-0.8,2-0.4c0.3,0.9-0.5,0.9-0.9,1.1C832.1,537.3,831.7,537.2,831.5,536.5z"/>
	<path d="M840.5,514.2c0,0.6-0.4,0.9-0.9,0.8c-0.3-0.1-0.5-0.5-0.3-0.8C839.7,513.7,840.1,513.8,840.5,514.2z"/>
	<path d="M715.4,654.1c-0.7-0.1-1.4,0.5-2.2-0.4c1-3.6,2.1-7.3,4.4-10.4c0.3,0.1,0.5,0.2,0.8,0.3
		C717.3,647.1,716.3,650.6,715.4,654.1L715.4,654.1z"/>
	<path d="M638.3,627.7c-0.7-4.5-4-8.4-3.3-13.2C636.3,618.9,639.8,622.6,638.3,627.7z"/>
	<path d="M651.5,613.4c-4.8,0.9-9.7,1.4-14.6,0.6C641.7,612.3,646.6,613.5,651.5,613.4z"/>
	<path d="M668.5,621.7c-4-3.2-9.1-4.3-13.2-7.3C660.2,616,665.3,617.2,668.5,621.7z"/>
	<path d="M647,639.7c-4.3-1.5-5.9-5.4-8.2-9c0.7-1,1.3-1.8,2.6-1C640.5,634.7,644.4,636.8,647,639.7z"/>
	<path d="M709.9,642c-1.1,4.1-2.6,5.3-6.7,5.4C705,644.7,707.7,643.6,709.9,642z"/>
	<path d="M596.6,606.2c-0.2-2.8,4.9-2.2,2.9-5.6c2-0.3,3.1,0.4,4.8,1.8C600.4,601.8,599.8,606.1,596.6,606.2z"/>
	<path d="M702.7,648.4c-2.1,3.6-3.8,4.4-7.3,3.9C696.6,650.5,697.4,650,702.7,648.4z"/>
	<path d="M614.5,620.3c-3-0.7-5.7-1.6-8.2-3.8C608.9,615.7,612.1,617.2,614.5,620.3z"/>
	<path d="M678.1,653c-1.1,2.4-1.7,4.5-4.8,3.8C673.7,654,675.7,653.8,678.1,653z"/>
	<path d="M680.4,637.7c2.2,2,0,4.1,0.4,6.1C678.8,641.9,679.1,639.8,680.4,637.7z"/>
	<path d="M693,651.2c-2.6,0.5-3.7-1.2-5.3-3.7C690.4,648.2,692,649.3,693,651.2z"/>
	<path d="M607.9,605.5c-1.7,0-3.5,0.5-4.6-1.7C605.6,603.1,606.8,604.3,607.9,605.5z"/>
	<path d="M677,647.9c-1.5-2.2-0.9-3.5-0.1-5.1C678.8,644.4,677.6,645.7,677,647.9z"/>
	<path d="M683.6,659.7c-1.6-1.1-1.6-2.5-2-3.8C683.2,656.4,683.2,656.4,683.6,659.7z"/>
	<path d="M721.8,635.2c-0.2-1.5-0.3-3.1,1.2-4.3C723.7,632.8,722.8,634,721.8,635.2z"/>
	<path d="M718.4,641.6c-0.5-2.2,0.2-3.3,1.6-4.5C720.4,639,719.7,640.1,718.4,641.6z"/>
	<path d="M711.5,637.8c0.6,1.4,0.4,2.4-1.1,3C709.9,639.4,710.1,638.5,711.5,637.8z"/>
	<path d="M713.5,634c0,1.7-0.2,2.7-1.6,2.9C711.5,635.6,712,634.8,713.5,634z"/>
	<path d="M674.1,626.7c0.8,0.7,1.6,1.3,1.4,2.7c-1.2-0.4-1.4-1.5-1.9-2.3c0-0.2-0.1-0.4-0.1-0.6
		C673.6,626.6,673.9,626.6,674.1,626.7z"/>
	<path d="M615,608c-0.9,0.5-1.3,0.1-1.6-0.7C614.4,606.6,614.8,607,615,608z"/>
	<path d="M673.6,627.1c-0.4-0.5-0.9-1-1.3-1.5c1-0.1,1.5,0.3,1.8,1.1C673.9,626.8,673.7,627,673.6,627.1z"/>
	<path d="M643.8,633.9c1.2-0.1,1.5,0.4,1.5,1.6C644.2,635.4,643.7,635,643.8,633.9z"/>
	<path d="M838.6,664.2c-3.3,3-5.8,3.3-7.7,1.1c-1.6-1.9-1.3-4.5,0.7-5.9c2.4-1.7,4.9-0.9,7.2,2.6c1.7-2.3,3.9-3.6,6.6-2.1
		c3.1,1.7,1.8,4.5,1.5,7.2C843.6,667.6,840.5,668.3,838.6,664.2z"/>
	<path d="M823,658.2c1.6-0.7,2.9-0.3,4.1-0.1c2.2,0.3,3,2,2,3.6c-1,1.5-0.9,2.7-0.3,4.1c-2.2,0.6-2-1.9-3.7-2.2
		c-1.3-0.2-0.4,2-2.3,2C822.2,663.1,822.6,660.6,823,658.2z"/>
	<path d="M386,336c5.9,2.9,8.4,11.4,4.7,16.7c-1.2-3.2,0.6-6.2-0.2-9.1C389.7,340.5,387.6,338.4,386,336z"/>
	<path d="M416.7,334.6c0.1,3.4,2,6.3,2.4,9.5c0.5,3.6,0.5,7.1-1.3,10.5C418.7,347.9,417.3,341.3,416.7,334.6z"/>
	<path d="M425.2,269.7c2.9,1.2,4.8,3.7,6.3,6.7c-2.9-1.2-5.3-3-7.2-5.4C424.6,270.5,424.9,270.1,425.2,269.7z"/>
	<path d="M424.9,256.2c0.2,3.4-0.2,6.7-0.5,10c-0.4,0-0.8-0.1-1.2-0.1c0.2-3.3,0.5-6.7,0.7-10C424.2,256.2,424.5,256.2,424.9,256.2z
		"/>
	<path d="M401.8,342.2c1.7,3.3,2.9,6.8,3.7,10.5C403.9,349.3,402.5,345.8,401.8,342.2z"/>
	<path d="M419.3,324.5c0.4,2.5-0.2,4.4-1.1,6.2C417.8,328.6,417.9,326.6,419.3,324.5z"/>
	<path d="M423.6,300.7c-0.2,2,0,4.1-0.2,6.2C423,304.8,422.9,302.8,423.6,300.7z"/>
	<path d="M433.8,279.1c2.3-0.3,3.8,0,4.9,1.5C437.2,280.5,435.6,281,433.8,279.1z"/>
	<path d="M393.2,278.3c1.3-0.3,2.6-0.3,3.8,1.1C395.2,280.1,394.1,279.6,393.2,278.3z"/>
	<path d="M424.1,250.5c-1.4-1.4-0.9-2.6-1.1-4C424.6,247.6,424.5,248.7,424.1,250.5z"/>
	<path d="M374.2,299.6c-0.4,1-0.8,2-1.3,3.5C371.8,301.1,372.8,300.2,374.2,299.6z"/>
	<path d="M381.7,285.8c-1.6,0.6-2.3,0-3-1.2C380.1,283.8,380.7,284.7,381.7,285.8z"/>
	<path d="M386.9,285.9c-0.1,1.1-0.6,1.7-1.5,2.1c-0.7-0.5-0.1-1,0.1-1.4C385.8,286.2,386.1,285.7,386.9,285.9z"/>
	<path d="M376,327.5c1.2,0.4,2,1,1.6,2.3C376.1,329.5,376.5,328.2,376,327.5z"/>
	<path d="M420.9,293.5c-0.2,2.1-1,2.8-2.6,3.6C418.4,295.3,419.6,294.8,420.9,293.5z"/>
	<path d="M398.2,319.1c-0.5-1.8-0.3-2.7,0.7-3.6C399.6,316.7,398.8,317.5,398.2,319.1z"/>
	<path d="M382.8,285.6c0.9-0.9,1.6-0.9,2.4,0.1C384.3,286.4,383.7,286.4,382.8,285.6z"/>
	<path d="M431.1,358.8c-1-0.7-0.8-1.1-0.6-1.6C431.3,357.6,430.7,358,431.1,358.8z"/>
	<path d="M367.4,322.3c1-0.3,1.3,0.2,1.7,0.7C368.3,323.6,367.9,323.1,367.4,322.3z"/>
	<path d="M433.4,527.1c-2-1.1-2.4-2.6-3.5-3.8c-5.2-0.7-5.6-4.8-5.5-8.8c-1.3-0.8-2.3,0.5-4-0.6c8.3-3.4,12.1-9.9,13-18.3
		c2.2,6.3,0.6,13.5-6.6,18c0,1.1,0,2.3,0,3.7C430.3,519.2,432,522.6,433.4,527.1z"/>
	<path d="M413.2,573.3c-0.8,5.3-4.1,8.8-8.1,9c-1.7,1.2-1.9,3.8-4.2,4.6C400.6,583.8,401.7,582.7,413.2,573.3z"/>
	<path d="M408.3,508c4.1,0,6.5,3.3,10.6,3.9C413.4,513.2,410.1,512,408.3,508z"/>
	<path d="M413.5,529.5c2.8,1.4,4.3,3.8,6.7,6C416.5,534.9,414.7,533.2,413.5,529.5z"/>
	<path d="M427,529.7c-1.9-1.5-2.6-2.9-0.7-4.8C428,526.3,428,527.8,427,529.7z"/>
	<path d="M414.1,567.6c0.4,1.6,1,3.3-1.2,4.8C412.3,570.3,413,568.9,414.1,567.6z"/>
	<path d="M414.2,566.5c-0.6-2.5,0.1-3.8,1.2-5.5C416.4,563.3,415.7,564.6,414.2,566.5z"/>
	<path d="M410.8,526.3c-1.8-1.5-2.7-2.7-3.2-4.2C409.6,523.1,409.6,523.1,410.8,526.3z"/>
	<path d="M421.9,537c1.2,0.7,2.5,1.3,2.9,2.9C422.8,539.1,422.8,539.1,421.9,537z"/>
	<path d="M412.5,625.8c0.8,1.7,0.8,2.7,0.2,3.9C411.1,628.6,411.5,627.5,412.5,625.8z"/>
	<path d="M403.4,497c-1.2-0.8-1.1-1.6-0.9-2.7C403.8,495.1,404,495.8,403.4,497z"/>
	<path d="M415.1,551c-1-1-1.2-2-0.5-3.4C415.6,548.7,415.5,549.8,415.1,551z"/>
	<path d="M415.2,555.6c0.9,0.9,1.2,1.8,0.4,3.1C414.7,557.7,414.6,556.7,415.2,555.6z"/>
	<path d="M405.5,502.7c1.1,0.4,1.4,1.1,1.1,2.3C405.6,504.5,405.4,503.7,405.5,502.7z"/>
	<path d="M434.7,493.5c-0.8-1.1-0.4-1.7,0.3-2.3C436,492.2,435.6,492.8,434.7,493.5z"/>
	<path d="M412.8,621.4c0.6,1.2,0.6,1.9-0.1,2.8C411.9,623.3,412,622.4,412.8,621.4z"/>
	<path d="M370.5,517.4c-6.8-1.1-5.5-14.6-1.3-18.3c0.2,3.8-1.6,6.6-2.6,9.7C367.8,511.5,370.5,513.7,370.5,517.4z"/>
	<path d="M365.6,525.4c4.4,6.8,9.1,13.5,9.3,22.1C372,540.1,368.9,532.7,365.6,525.4z"/>
	<path d="M349.3,572.2c-1.5-5.1-0.3-9.7,2.3-14.1C351.9,563,351,567.6,349.3,572.2z"/>
	<path d="M381.5,483c0.3,2.6-1.5,4.1-3.4,5.4c-1.8,1.2-3.8,2.1-6.3,2c2.7-2.4,5.3-4.8,8-7.2C380.2,482.9,381,483.1,381.5,483
		L381.5,483z"/>
	<path d="M385.5,497.6c2.1,2.9,3.5,6,3.5,10.3C386.6,505.5,385.6,502.4,385.5,497.6z"/>
	<path d="M363.1,512c-0.1,4.3-0.2,7.9,2.2,11.6C360.8,521.1,360,517,363.1,512z"/>
	<path d="M356.5,540.2c0.3,4.6-2.7,7.9-3.1,11.8C353.3,547.6,354.3,543.3,356.5,540.2z"/>
	<path d="M384.2,494.7c0-3.2-0.5-6.5-0.9-10.2C385.2,487,385.5,490.1,384.2,494.7z"/>
	<path d="M386.1,522.4c-3.1,0.1-5.2-1-7.5-3c1.6-1.2,3.7-1.4,4-0.1C383.2,521.1,385.5,520.3,386.1,522.4z"/>
	<path d="M361.5,620.9c-1.2-2.4-0.7-4.9-0.2-7.3C362.6,616,362.5,618.5,361.5,620.9z"/>
	<path d="M369.4,493.4c-3.4,0.9-6.1-0.3-8.3-3.1C363.7,491.7,366.6,492.2,369.4,493.4z"/>
	<path d="M364,536.9c2.3,1.4,2.9,3.7,3.6,6.1C365.6,541.4,365.2,538.9,364,536.9z"/>
	<path d="M346.8,592.8c1.3,1.8,1.4,3.5,0,5.7C346.2,596.2,346.4,594.5,346.8,592.8z"/>
	<path d="M348.7,578.3c-1-2-0.3-3,0.1-4.4C350.1,575.5,349.1,576.5,348.7,578.3z"/>
	<path d="M370.7,521.3c2.1,0.9,1.3,2.7,1.7,3.9C371.4,524.1,370.8,523,370.7,521.3z"/>
	<path d="M360.4,534.1c-1.6-0.1-2.3-1.2-3.9-2.5C359.2,531.6,359.6,533.1,360.4,534.1z"/>
	<path d="M347.4,588.1c-0.4-1.3-0.4-2.1,0.6-2.8C349,586.4,348.3,587.1,347.4,588.1z"/>
	<path d="M362.6,631.8c0.6,0.3,1,0.6,0.3,1.2C362.1,632.8,362.1,632.4,362.6,631.8z"/>
	<path d="M374.3,523.6c0-0.7,0.5-0.8,1.1-0.7c0.5,0.5,0.2,0.8-0.3,1C374.8,524,374.5,524.1,374.3,523.6z"/>
	<path d="M368.9,669.7c2.4-2.6,4.3-3.2,6.4-2c3.3,1.8,1.8,4.6,1.6,7.3c-3.2,0.5-6.3,1.2-8.1-2.8c-1.6,1.3-3,3-5.3,2.4
		c-1.2-0.3-2.2-0.8-2.9-1.9c-1.2-1.9-0.8-4.1,0.9-5.4C363.9,665.5,366.5,666.4,368.9,669.7z"/>
	<path d="M359.3,673.8c-2.5,0-2.5-2-3.5-2.3c-1.8-0.2-0.8,2-2.6,1.9c-1-2.3-0.4-4.8-0.1-7.2c1.5-1,2.9-0.4,4.2-0.2
		c2.2,0.3,3,2.1,1.9,3.6C358.3,671.1,358.2,672.2,359.3,673.8z"/>
	<path d="M393,668.5c2,0.8,3,2.3,4.5,3.4c-2.6,2.7-4.3-1.3-6.6-0.2C391,670,392.4,669.6,393,668.5z"/>
	<path fill="#FFFFFF" d="M836.4,662.6c-0.1,1.7-1,2.6-2.5,2.5s-2.3-1.2-2.2-2.7c0.1-1.4,1.1-2.2,2.4-2.1
		C835.5,660.3,836.4,661.2,836.4,662.6z"/>
	<path fill="#FFFFFF" d="M845.7,663.6c-2.3,0.4-2.3,0.4-2.8,2.1c-1.7-0.1-2.2-1.2-2.1-2.7c0.1-1.1,0.8-1.8,1.8-2
		C844.2,660.7,845.1,661.7,845.7,663.6z"/>
	<path fill="#FFFFFF" d="M824.4,660.3c1.3-1.1,2.2-0.6,3.1,0C826.2,662,826.2,662,824.4,660.3z"/>
	<path fill="#FFFFFF" d="M364.4,668.1c1.5,0.3,2.3,1.1,2.2,2.7c-0.1,1.4-1,2.2-2.3,2.1c-1.5,0-2.4-1-2.4-2.5
		C361.9,668.9,362.9,668.2,364.4,668.1z"/>
	<path fill="#FFFFFF" d="M375.6,671.9c-1.8-0.6-2.9-0.4-2.5,1.7c-1.9-0.3-2.4-1.3-2.3-2.8c0.1-1.3,1.1-1.9,2.2-1.9
		C374.6,668.9,375.5,669.7,375.6,671.9z"/>
	<path fill="#FFFFFF" d="M358.1,668.4c-1.6,1.6-2.5,1.6-3.5-0.2C355.7,667.1,356.7,667.5,358.1,668.4z"/>
</g>
</svg>
