<?xml version="1.0" encoding="utf-8"?>
<!-- Generator: Adobe Illustrator 19.1.0, SVG Export Plug-In . SVG Version: 6.00 Build 0)  -->
<svg version="1.2" baseProfile="tiny" id="Layer_2" xmlns="http://www.w3.org/2000/svg" xmlns:xlink="http://www.w3.org/1999/xlink"
	 x="0px" y="0px" width="900px" height="600px" viewBox="144 97 900 600" xml:space="preserve">
<g>
	<path d="M317.4,294.3c1.2,4.9,2.9,9.7,5.9,13.9c1.9,2.7,4.3,5.1,6.9,7.2c1.3-0.3,1.8-1.8,3.3-2.2c-0.1,1.5-1.6,1.9-2,3
		c0,0.6,0.9,0.8,0.5,1.5c-0.7,0.6-1.2-0.2-1.8-0.2c-0.2,0.4,0,0.6,0.3,0.9c4.2,4.3,8.9,8,14.6,10.3c4.2,1.7,7.6,5.1,12.3,6
		c1.9,0.4,3.2,0.4,4.6-1c1.6-1.4,3.6-2.4,5.4-3.7c2.1-1.5,4.4-2.9,4.9-5.9c0.2-1.3,1.4-2.1,2.6-2.6c2.7-1.1,4.5-3.1,6.1-5.4
		c0.9-1.2,1.8-2.3,3-3.3c1-0.8,2-2,1.7-3.2c-0.6-3.6,1.8-5.2,4-7.1c1-0.9,2.6-1.1,3.1-2.6l-0.1,0.1c2.2-4.7,5.6-8.4,9.3-12
		c0.7-0.7,0.4-1.7,0.6-2.6c0.4-1.5,0.3-3.3,2.4-4c2,0.2,3.6,1.7,5.5,2.3c1.6,0.5,3,0.4,4.2-0.8c2.8-2.7,5.5-5.6,7.6-8.8
		c0.9-1.3,1.6-2.7,0.7-4.5c-0.8-1.6,0.8-3.3,0-5.1c-3.2,0.7-4.7-1.9-6.6-3.7c-0.4-0.1-0.5-0.4-0.4-0.7c-1.5-3-2.9-6-4.4-9
		c-2-4-2.3-8.4-2.2-12.8c0-1.4-0.2-2.7-0.8-4c-2-4.2-1-8.8-1.4-13.3c-0.2-2.9,1.1-5.1,2.9-6.5c1.7-1.3,3.4-2.8,5.5-3.4
		c1.5-0.4,2.2-1.5,2.6-3.1c-2.2-1.3-4.5-1.7-7.2-1.1c-4.2,1.1-8.5,2-12.9,2.4c-2.1,0.2-3.6,1.4-5.2,2.6c-2.9,2.1-5.7,4.2-8.9,5.9
		c-1.4,0.7-2.8,1.7-3.9,2.8c-6.8,7-13.7,14-18.1,22.9c-1.4,2.9-3,5.7-4.6,8.5c-0.6,1-1.1,2.3-2.8,2.2c-0.1-0.5-0.3-0.9-0.1-1.1
		c3.4-5.9,4.7-12.9,9-18.4c4.9-6.3,10.3-12.2,16.6-17c3.1-2.4,6.2-4.7,9.1-7.3c4.2-3.7,9.3-4.2,14.4-5c3.1-0.5,6.2-0.9,9.2-1.6
		c5.7-1.5,11.6-1.4,17.8-1.8c1.3,1.5,3.3,1,5.3,1c6,0.2,10.9-2.4,15.8-5.2c7.1-4,14.6-7.3,21.7-11.4c4.4-2.6,8.1-6.3,12.5-9.2
		c6.1-4.1,11.3-9.5,18.3-12.3c3.4-1.4,6.9-2.6,10.1-4.4c1.1-0.6,2.2-1.2,3.2-1.9c2.2-1.5,4.4-3.5,7.5-2c0.3,0.1,0.9-0.1,1.3-0.2
		c4.1-1.3,8.3-1.5,12.6-1c4.8,0.5,9.3-0.1,13.7-2.4c3.3-1.7,6.8-2.7,10.6-1.8c3.4,0.8,7,0.1,10.6,1.1c3.2,0.9,9.7-3.5,10.9-6.8
		c0.4-1,0.9-1.6,1.7-2c7.1-4,12.5-9.9,17.9-16c4.8-5.4,10.2-10.2,17.2-12.7c2.5-0.9,5.2-0.5,7.8-0.2c0.2-1.2-1.1-1.8-1-3.1
		c0.5-1.2,2.5-0.5,2.9-2c2.9,1,0.3,4,2.3,5.4c1.4-2.1,0.7-5.4,3.6-6.7c2.1,1.5,0.2,3.4,0.5,5c2.1-0.3,3.4-3.5,5.8-1.7
		c0.3,1.7-1,2.3-1.9,3.3c1.2,0.7,2.3-0.2,3.7,0.2c1.5,2,3.6,3.7,5.6,5.6c0.3,0.3,0.7,0.6,1,1c4.2,6.6,9.9,12.3,11.3,20.4
		c0.1,0.9,0.5,1.8,0.5,2.7c-0.2,5.4-0.2,10.8,1.3,16.1c0.2,0.7,0.1,1.6-0.1,2.4c-1.2,5.4-1.2,10.7,2,15.8c-2.5,0.6-3.3-1.4-5-2.8
		c0,1.7-0.7,2.7-2.7,2.9c-1.5-4.2-5.8-2.3-9-3.6c-0.6,0.8-1.3,1.6-1.8,2.4c-1.7,2.6-3.8,4.2-7.1,3.8c-2.2-0.2-3.4,1.3-4.2,3
		c-1.3,2.5-2.5,5.2-3.7,7.8c-0.6,1.4-1.3,2.7-3.2,3.1c-1.6-0.8-3.4-1.6-5.1-2.4c-1.7,0.4-3.1,1.6-4.7,2.2c-1.1,0.6-1.8-1-2.8-0.6
		c-1.4,0.2-1.6,1.8-3.4,2.2c-2.4-1.8-5.2-0.8-7.8,0.8c-1.5,0.9-3.1,0.6-4.7,0c-0.7,1.2-1.4,2.3-2.4,3.9c3.7,2.1,4.5,6.2,6.4,9.6
		c2.1,3.9,1.2,6.7-2.9,8.7c-3,1.4-6.1,2.6-9.2,4c-1,0.5-2,1.1-3.2,1.7c1.4,3,2.7,6,4.1,9.1c-1.6,1.8-4,2-6.1,3.6
		c-0.5,5.9-3.3,11.7-3.7,18.1c-0.1,0.9-0.2,1.9,0.2,2.7c4.1,7.9,2.7,16.1,1.7,24.4c-0.7,5.3-2,10.4-3.5,15.5c-2.3,7.9-2.3,16-2.3,24
		c0,5.8,0.1,11.7,0.6,17.7c1.4-0.2,1.9-1.4,2.6-2.2c10.9-11.4,29-9,35.4,5.2c7.6,16.9,5.9,33.2-4.4,48.5
		c-5.8,8.7-14.6,10.5-24.4,8.9c-4-0.7-7.2-3-9.8-6.1c-2.9-3.4-4.7-7.3-6.1-11.5c-0.4-1.2-0.4-2.5-1.8-3.9c-1.9,3.8-5.2,6.7-5.4,11.2
		c-0.1,5.1-0.9,10.1-2.3,15c-0.5,1.9-0.9,3.8-0.6,5.8c0.5,3.2,0.5,6.3-0.5,9.8c3.5-1,6.4-1.6,9.2-2.6c3.7-1.3,7.5-1.3,11.2-1.1
		c4.2,0.2,5.6,1.3,5.8,5.2c0.2,3.3,1.2,6.5,1.7,9.2c-6.8,5.8-15.2,7.6-22.3,12c-9.2,5.6-19.1,9.6-29.7,11.6
		c-4.5,0.9-8.5,2.9-12.4,5.1c-1.4,0.8-2.6,1.3-4.1,1.4c-4,0.3-8,0.5-12.3-1.3c0.6-5.8-0.7-11.7,0.2-17.9c9.3-2.4,17.7-7.4,27.4-8.6
		c-8.5,2.8-16.6,6.4-25,10c0.9,1.4,1.7,0.8,2.4,0.9c0.8,0.1,1.6,0,2.4,0.5c-1.6,0.2-3.1,0.3-4.9,0.5c-1.5,4.1-0.6,8.4-1.2,13
		c5.2,0.8,10.1,1.6,14.8-1c0.3-1-0.5-1.9,0.1-2.8c1.3-0.2,0.7,1.5,2,1.6c3.9-2.5,8.5-3.3,13.1-4.4c10.1-2.5,19.8-6.1,28.7-11.6
		c2.5-1.5,5.2-2.3,7.9-3.5c3.7-1.6,7.5-3,10.5-6c-0.6-3.7-1.2-7.4-1.9-11.5c-8-2.4-15.2,1.7-22.8,3.1c0,1.7,0,3.1,0,4.6
		c1.7,0,2.9-1.2,4.8-0.9c-1.5,1.4-3.2,1.9-5.3,2.9c-2-4.6-1.4-9.4-2.5-14.4c-4.6,7.8-9.8,14.6-19.1,16.2c-0.4,0.7,1,0.7,0.5,1.4
		c-1.8,0.8-3.2,0.5-4.1-1.2c-9.8,1.2-16.8-2.6-21.8-10.6c-2.3-3.6-3.8-7.6-4.8-11.8c-0.4-1.4-0.4-3-1.2-4c-1.3-0.3-1.7,0.5-2.1,1.1
		c-3.3,2.1-8,0.8-10.3-3.4c-2.1-3.6-4.4-6.7-8-9.2c-5.5-3.8-3.9-14.7,2.4-17.5c2.8-1.3,3.5-2.7,2.8-5.6c-0.7-3.5-0.8-7.1-1.7-10.5
		c-1.7-6.3-4.3-7.4-10-4c-6.3,3.6-9.5,9.7-11.9,16c-4.7,12.4-5.1,24.9-0.3,37.4c1.3,3.5,3.2,6.6,5.9,9.2c5.4,5.1,12.1,5.8,18.3,1.7
		c3.7-2.4,6.7-5.6,8.8-9.6c1-1.9,2.2-3.5,3.9-4.7c0.5,0,0.9,0,1.3,0c0.1,0.3,0.4,0.5,0.3,0.7c-2.6,7-6.5,13.1-13,16.9
		c-9.4,5.4-25.1,5.8-32.7-7.4c-3.4-5.8-5.3-12-5.9-18.6c-1.2-13.2,1.2-25.7,8.9-36.8c4.6-6.7,11.1-10.5,19.1-11.8
		c1.6-0.2,3.2,0.1,4.7,0.2c0.3-1.3-0.1-2.2-0.9-3.2c-7.6-1.3-15.3-2.8-23.2-2.1c-10.4,1-20.6-0.5-30.9-1.6
		c-11-1.1-21.9-2.6-32.9-3.8c-2.5-0.3-5.1-0.3-7.6-0.1c-3.9,4.7-8.6,8.4-13.3,12.1c-3.4,2.7-7.6,4.1-12.2,2.7
		c-4.3-1.3-8.9-0.7-13.3-1.2c-5.9-0.6-11.9,0.2-17.9-2.2c-2.9,3.3-6.4,6.2-10.6,7.8c-4.1,1.5-7.8,3.4-11.3,6.2
		c-4.4,3.7-10.1,4.7-15.7,3.1c-4.8-1.3-9.7-1.5-14.9-2.1c-2.1,8.8-6.2,16.9-8.2,25.9c3.4,0.8,6-1.5,9-1.8c1.2-0.1,2.5-0.5,3.7-0.9
		c5.7-2.3,11.5-1.6,17.6-0.2c0.5,4.3,1,8.8,1.4,12.9c-25.2,8.9-51.1,14.8-76.2,23c-0.2,0.1-0.5-0.4-1.2-1
		c24.4-10,50.2-14.4,74.6-22.7c0.6-3.8-0.8-7.3,0.1-11.4c-5.3,1.2-10.2,2.4-15.1,3.6c2.6-1.9,5.8-2.6,9.1-3.7
		c-2-1.6-3.9-0.5-5.6-0.1c-6.6,1.5-12.9,4-19.9,4.9c1.6-9.5,5.8-18.2,8.8-27.6c-1.8,0.1-3,0.1-4.2,0.4c-5.9,1.2-12,0.1-18.2,2.6
		c-2.7,6-5.2,12.7-7.9,19.3c-1.2,3-1.9,6.2-4.2,8.6c-1.3-1.2-1.1-2.6-0.6-4.1c1.6-5.3,3.5-10.5,5.4-15.6c0.5-1.5,1.4-2.9,1.2-4.9
		c-2.7-1-5.5-0.9-8.3-1c-0.8,0-1.5,0.6-2,1.2c-5.2,5.8-5.1,14,0.3,19.7c1.4,1.5,2.8,3,4,4.7c0.4,0.4,0.8,0.8,1.6,1.6
		c-8.4,5.4-17.7,7.8-27.1,9.9c2.5,0.5,5.2-0.1,7.6,1.8c1.8,4.7-2.7,9.4,0,14.3c-2.7,0.7-5,0.2-7.4,0s-4.7-0.9-7.1-0.3
		c-0.9-3.3,0.7-10.7,3.4-14c0.6,4.2-2,7.6-1.5,11.5c3.2,0.4,6.5,1.2,10.2,0.8c0.4-3.7-0.4-7.5,1.3-10.9c-1.6-1.5-3.2-1.7-4.8-1.3
		c-2.4,0.5-4-0.3-5.3-3.2c9.2-1.7,17.8-4.3,26.4-7.8c-0.4-1.1-1.5-1.6-2.3-1.9c-5.8-1.9-6.2-6.9-6.9-11.6s0.3-9.1,2.5-13.3
		c0.5-1,1.2-2,1.1-3.2c-7.1-0.6-14.2-0.5-21.3-1c-6.6-0.4-12.5,2.5-17.4,4.5c-5.4,7.4-8.4,15.1-13.9,22.4c-0.2,1.5-0.6,4.1-3,6
		c2.1,1,4.8,0.8,5.5,2.6c1.3,3.5,4.1,6,5.6,9.3c0.7,1.7,0.7,3.3,0.3,5s-1.5,2.4-3.1,2.7c-6.5,1.3-13,1.1-19.5,0.7
		c-0.8,0-1.6-0.1-2.4-0.4c-6.1-2.1-12-4.8-16.9-9.1c-3.2-2.8-5.2-6.4-5.4-10.8c-0.2-4.8,0-9.6,0.6-14.4c0.7-5.6,0.8-11.1-1.1-16.4
		c-2.7-7.5-1.3-15-0.1-22.5c0.3-1.8,1.6-3.5,2.3-5c2.9-0.8,5.3,0.3,8,0.7c1.5-1.9,3.5-2.1,5.8-1.6c4.2,0.9,8.6-0.4,12.8,1
		c0.6,0.2,1.3-0.1,2-0.3c3.7-0.9,4.8-0.6,7.5,2.7c-1.6,5.6-1.6,11.3,0.2,17.1c2.8-1.1,5.7-0.9,9.2-0.9c-3,2-5.7,2.5-8.5,2.9
		c0.4,1.6,1.1,3,0.9,4.9c-0.3,3.2,4.6,5.1,7.6,3.3c7.2-4.3,15-6.8,23.5-7c9.2-0.2,18.4,0.8,27.6,0.8c6.6,0,13.2-0.5,19.8-1.2
		c6-0.6,12-1.2,18-2c0.8-0.1,1.6-0.2,2.3,0.4c1.4,1.2,3.3,0.4,3.7-0.4c1.1-2.7,3.4-2.3,5.4-2.5c0.6-0.1,1.1-0.1,1.7-0.1
		c1.6-2.1,2.2-4.9,4.6-6.4c0.7,1.9,0,3-2.2,6.1c-1.6,2.3-4.4,1-6.1,3c6.7,3.3,13.5,4.2,19.6-0.4c4.6-3.5,9.7-6,14.5-9.1
		c0.3-0.7-0.2-1.1-0.5-1.5c-3.1-0.2-5.3,4-9.2,1.6c3.3-0.8,6.2-1.9,8.8-3.5c1.3-0.8,2.9-0.5,4.3-1c4.7-1.5,8.3-4.6,12.3-7.1
		c2.4-1.5,5.1-2.7,6.5-5.4c-7-5-16.1-6.7-21.7-13.7c-5.3-6.7-11.1-13.1-14.8-21.7c-2,4.1-4.3,7.6-5.4,11.7
		c-1.5,5.5-3.3,10.8-7.1,15.4c-3.2-0.4-6.2,1.1-9.4,1.5c-7.4,0.9-14.7,0.2-22-0.6c-8.7-0.9-17.4-1.2-26,1.7
		c-4.2,1.4-8.1,3.4-11.9,5.5c-9.2,5-18.9,8.5-29,10.9c-4.6,1.1-9.4,0.7-14,1.6c-1.1,0.2-2.4,0.1-2.5-2c2.3-1.1,4.9-1.3,7.5-1.4
		c9-0.2,17.4-3.1,25.8-5.9c2.4-0.8,4.6-2.1,6.7-3.5c10.1-6.6,21-10.8,33.4-10c5.3,0.3,10.5,0.7,16,1.3c4.1-3.8,8.6-7.3,13.8-10.2
		c-1.7-1.2-4.1-1-4.7-3.3c-0.3-1-0.4-2.1,1-2.9c0.1,2.5,1.7,3,3.8,3.5c4.8,1,9.6,2.1,14.7,2.6c1.8-3.8,2.3-8,4.3-11.7
		c1.1-2,1.9-4.2,3.5-5.9c0.8-0.9,0.9-1.8,0.9-2.8C315.9,295.5,316.1,294.4,317.4,294.3L317.4,294.3z"/>
	<path d="M995.6,415.1c2.7-0.1,4.4,3,7.6,2.2c1.1-2.5,2.2-5.1,3.4-7.7c1.5-3.3,3.5-5.8,7.7-5.6c4.1,0.2,4.7-3.7,6.5-6.3
		c-2.8-3.7-8-4.6-9.8-9.3c-4.5,0.9-5.6-4.3-8-4.7c-8.5,0-15.8-1-22.5,3.8c-0.2-1.8-1.2-2.3-2.3-3.4c1.9-1.8,3.7-3.6,5.6-5.3
		c1.1-1,1.9-2.3,1.5-3.6c-0.7-2.1-0.2-4.3-0.6-6.3c-1.3-1.6-2.8-1.3-5.1-1.3c1.9,0.8,3.6,0.5,4.2,2.1c0.5,1.3,0.2,2.7,0.3,4.2
		c-1.9,1.3-3.6,3-5.9,3.3c-1.4,0.7-0.6,2.5-1.9,2.9c-2-0.4-1.1-2.9-2.6-3.8c-1.2,1.2-2.3,2.6-2.9,4.1c0.9,1.7,2.6,0.1,3.6,1.6
		c-0.5,1.6-2.5,1.4-3.5,2.6c-1.6-2.1-1-4.6-1.8-6.3c0.2-1.7,1.7-2.6,1.2-4.3c-3.7-0.1-6.8,1.5-10,3.5c0.9-1.7-2.9-3,0.6-4.7
		c-4.9-0.9-7.2,2.9-10.7,4.3c-0.6-2.4,1.4-3,3-4.5c-8.8-3.5-16.8-9.2-26.8-5.1c0.9,0.6,2,1.2,2.5,2.1c6.3,0.7,12.8-0.5,18.4,3.3
		c-9.9-1.5-19.6-0.3-29.3,2c-1.2,1.5-1.3,3-0.4,5c1.2,2.5,2.5,4.9,4.1,7.2c3.6,5,5.3,10.5,5.6,16.7c0.4,7.7,0.2,15.6,2.9,23.3
		c1.1-0.3,1.1-1.4,1.9-2c2.1,0.1,4.4,0.4,6.2-1.7c-0.9,2.3-2.8,3.7-3.2,6.3c1-0.5,2-1,2.9-1.4c0.9-0.8-0.6-1.4,0.1-2.6
		c3.2-1.8,7.7-2.2,11-5.1c-1-1.1-2.1,0.9-3.2-0.3c0.2-1.7,1.8-1.8,3-2.2c3.9-1.1,7.6-2.3,10-6.2c0.8-1.3,2.8-1.9,4.4-2.8
		c2,1,3.4,2.4,4.1,4.4c1.1,3.3,4.1,4.5,6.6,6.2c1.2,0.9,2.9,0.6,4.3-0.2c2.5-1.4,5-2.3,7.8-0.6c0.1,0.1,0.6-0.2,0.9-0.4
		c0.3-1.4-1.9-1.3-1.5-3c1.4,0.7,2.7,1.3,4.1,2c-1.6,2.2-3.1,3.8-6,2.2c-1.3-0.7-2.7,0.3-3.9,0.9c-2,1.1-4,1.7-6.3,0.6
		c-0.8,1.3-1.5,2.4-2.3,3.9c3.5,2.3,4.5,6.3,6.4,9.8c2.2,4,1.2,6.9-3.2,8.8c-4,1.7-8.1,3.2-12.1,5.5c1.3,3,2.7,6,4,8.9
		c-1.1,1.9-3.4,1.8-4.9,3.4c0.2,4.2,0.9,8.7,0.2,13.1c-0.4,3-1.1,5.9-2,8.7c-3.5,10.5-11.5,15-21.9,16.1c-4,0.4-7.7-1.2-11-3.5
		c-4.3-2.9-7.4-6.9-10-11.3c-0.6-1-0.9-2.1-1.9-2.9c-3.3,0.7-6,2.7-9.6,3.8c-0.1,3.3,0,6.8-0.4,10.2c-0.8,6.4-2.7,12.3-6.1,17.8
		c-6.2,9.8-25.8,16.3-36.9,3.6c-1.9-2.2-3.8-4.4-5.2-6.8s-2.6-4.8-4.2-7.9c0.6,5-0.8,8.9-2.3,12.8c-1.5,3.9-3.8,7.3-6.7,10.5
		c5.3,2.6,10,6,14.4,9.5c6,4.7,12.9,7.9,19.1,12.1c3.4,2.3,7.2,4,10.9,6c0.3,0.2,0.6,0.4,0.9,0.4c7.6,1,15.1,2.2,22.7,2.7
		c3.2,0.2,6.5-1.3,9.8-1.6c4.8-0.5,9.6-0.6,14.7-0.9c0.9,4.2,1,8,1.3,11.9c0.4,5.1-0.1,10.1-0.4,15.1c-0.4,6.1,0.6,12.2,0.5,18.3
		c-0.2,11.6,0.3,23.3-0.3,34.9c-0.2,3.6,0.2,7.2-0.5,11c3.7-1.1,6.9-2,10.1-2.9c3.9-1,7.9-1.1,11.9-0.6c2.3,0.2,3.4,1.4,3.7,3.7
		c0.5,3.6,1.3,7.2,1.9,10.9c-9.3,5.6-19.3,9.6-28.7,14.8c-7.2,4-15.1,6.8-23.3,8.3c-4.4,0.8-8.4,2.7-12.1,4.8
		c-5.5,3.1-10.8,1.3-16.7,0.9c0-5.9,0-11.4,0-16.8c0-1.4,0.8-2,2.1-2.4c5.5-1.6,10.9-3.6,16.2-5.9c2.9-1.3,6.2-1.1,9.3-2.1
		c-8.4,3-16.5,6.5-24.5,10.4c1.5,0.9,3,0.5,5.1,0.8c-2.2,0.6-3.8,1-5.6,0.9c-1.4,4.1-0.6,8.4-1.1,12.9c5,1.3,9.8,1.7,14.5-0.7
		c0.6-0.6,0.2-1.2,0.1-1.7c0-0.5,0-0.9,0.3-1.3c1.1,0.1,0.8,1.3,1.6,1.9c3.8-2.6,8.3-3.4,12.8-4.5c10.3-2.5,20.2-6.1,29.3-11.8
		c2.6-1.6,5.5-2.4,8.2-3.6c3.6-1.5,7.3-2.9,10.1-5.9c-0.6-3.8-1.3-7.5-1.9-11.4c-8-2.3-15.2,1.7-22.8,3.1c0,1.6,0,3.1,0,4.6
		c1.7,0.1,3.2-1.3,5.2-1c-1.7,1.3-3.5,2-5.2,2.8c-1.1-0.3-1.6-1.1-1.7-2.1c-0.4-6.8-1.6-13.6,0-20.6c0.9-4,0.6-8.7,0.2-13
		c-0.6-7.5-0.8-14.9-0.1-22.4c0.2-1.6-0.2-3.2-0.5-4.8c-1.6-6.8-1.2-13.7-0.4-20.6c0.2-1.7,1.3-3.3,0.8-5.2
		c-0.4-1.6-0.3-3.4-0.5-5.2c-2.5,0-4.9,0-7.5,0c2.5-1.4,5.3-1.1,7.6-2.5c-7.2,0-14.3-1-21.4,0.9c0.9,5.9,0.2,11.8-0.1,18.1
		c-3-0.2-4.7,2.6-7.2,4c-0.7-1.4,0.6-2,0.3-3c-1.2-0.3-2.4-0.5-3.9-0.8c-0.4,2.9-1.4,5.3-3.7,7.1c-2.1,1.7-4.1,2.5-6.9,1.4
		c-9.8-4.1-19-9.3-27.8-15.1c-0.9-0.6-1.6-1.7-2.9-1.6c-6.7-3.2-12.7-7.7-19.4-10.8c-4.1-1.9-8.3-2.7-12.7-2.7
		c-9.6-0.1-19.1-1.1-28.5-2.4c-11.1-1.5-22.1-1.4-33.2-0.5c-3.1,0.2-6.2-0.6-9.3-0.8c-1-0.1-1.7-0.6-2-1.9c5.3-3,11.2,0.1,16.5-1.9
		c-4.6,1.6-9.4-0.2-14.2,1c-2.6,0.7-4.4,2.8-6.9,2.9c-0.8,4.3,0.6,6.4,4.6,7c3.9,0.5,7.8,0.7,11.7,0.7c10.3,0,20.3,2.9,30.5,3.2
		c11.1,0.3,21.8,3.4,32.9,3.1c5.2-0.1,10.3-0.9,15.5-0.6c5.1,0.3,10.1,0.9,14.5,3.8c0.3,0.5,0.9,0.8,0.6,1.7
		c-0.8,0.7-1.9,0.3-2.8,0.1c-9.2-2-18.5-1.8-27.8-1.1c-4.5,0.3-9,0-13.4-0.8c-5.6-1.1-11.2-1.5-16.8-1.8c-4.9-0.3-9.8-1.4-14.7-1.8
		c-3.9-0.3-7.8-1-11.6-1.5c-1.5-0.2-2.6,0.2-3.7,1.3c-2.4,2.4-5,4.8-7.7,6.9c-3.1,2.3-5.9,5-10.1,5.6c-2.9,0.4-4.7,3.2-7.9,3.8
		c-0.5-1.1-1.3-1.5-2.7-1.4c-9.8,0.4-19.5,0.7-29.2-1.1c-1.2-0.2-2.5,0.6-3.7-0.2c-0.3-0.2-0.6-0.3-0.8-0.4
		c-1.2,0.9-2.3,1.8-3.5,2.4c-6.1,3.3-12.5,5.9-18.2,10c-4.4,3.2-10,2.8-15,1.3c-4.3-1.3-8.6-1.1-13-1.6c-2.1,9-6.2,17.1-8.3,26.4
		c10.3-2,19.8-7.6,30.5-3.3c0.4,4.3,0.9,8.7,1.3,12.8c-25.3,8.8-51.1,14.9-76.3,22.8c-0.1,0-0.3-0.3-1-1c24.3-10,50-14.4,74.6-22.7
		c0.7-3.7-1-7.3,0.2-11.3c-4.6,0.3-8.6,2.7-13.1,2.6l0.1,0.1c1.7-1.8,4.3-1.8,6.6-2.7c-2.5-1.1-3.5-1-12.4,1.7
		c-4.1,1.3-8.2,2.5-12.9,2.9c1.7-9.4,5.8-18.1,8.9-27.6c-4.3,0.5-7.9,0.1-11.2,2l0.1,0.1c-1.1-1.7-2.9-1.2-4.4-1
		c-2.3,0.4-4.4,1.1-6.8,1.7c-4.4,8.8-7.1,18.4-11.7,27.2c2.4-9.1,5.5-17.9,9.8-27.3c-5.7,2.3-10.8,0.3-16,0.7
		c-0.1,2.6-1.5,4.7-2.6,7c-2.7,5.7-1.7,11.8,2.6,16.4c2.1,2.2,4.6,3.8,7.7,5.7c-8.9,5-18,8-27.6,9.9c2.7,0.5,5.5-0.2,7.8,1.7
		c1.6,4.7-2.7,9.3,0.1,14.4c-5.2,0.9-9.8-1.1-14.9-0.5c-0.6-4.9,1.4-9.2,3.2-13.6c1.1,3.7-1.4,7.1-1.1,11.1
		c3.3,0.4,6.6,0.7,10.3,1.1c0.2-4.2-0.1-8.1,1.2-11.8c-1.5-0.6-2.7-1.5-4.1-0.9c-2.5,0.9-4.2,0-5.7-2.5c4-2.7,9-2.1,13.3-3.7
		c4.3-1.7,8.6-3.1,13.2-4.7c-1.5-1.1-2.6-2.2-4.3-2.6c-1.8-0.5-2.7-2.1-3.4-3.7c-2.4-6.1-3-12.2-0.3-18.4c0.7-1.7,1.7-3.3,2.2-5.5
		c-9.5,0.6-18.8-1.8-28.2,0c-4.1,0.8-7.9,2.5-10.6,3.7c-5.1,7.3-8.4,14.7-13.3,21.1c-0.8,2.5-1.1,5.3-3.6,7.2
		c7.1,2,8.5,8.5,11.5,13.8c0.6,1.1,0,2.3-0.3,3.4c-0.3,1.7-1.5,2.3-3.2,2.7c-6.4,1.3-12.9,1.7-19.1,0.5c-9.2-1.7-17.6-5.5-23-13.8
		c-2-3-2.3-6.5-2-10c0.4-4.9,0.3-9.9,1-14.8c0.6-4,0.2-8.1-1.2-11.9c-2.8-7.6-1.4-15.2-0.4-22.8c0.3-2,1.7-3.4,2.4-5.1
		c0.4-0.2,0.6-0.4,0.8-0.3c5.8,1.6,11.4-1.7,17.4-0.4c2.4,0.5,5.3,0.2,8,0.8c0.8,0.2,1.6,0.1,2.3-0.2c3.2-1.4,5.5-0.1,7.6,2.4
		c-1.5,5.7-1.6,11.3,0.2,17.2c2.9-1.1,5.9-0.4,8.8-0.8c-2.3,1.9-5.1,2.5-8.1,2.8c0.3,1.7,1,3.1,0.9,5c-0.3,3.3,4.5,5.3,7.6,3.4
		c8.6-5.3,17.9-7.3,28-7c9.4,0.2,18.8,1.1,28.3,0.8c4.9-0.2,9.8-1,14.6-1.2c6.1-0.3,12.1-1.1,18-1.9c0.9-0.1,1.7-0.1,2.6,0.6
		c1.1,0.9,3.1,0.2,3.4-0.4c1.4-3.6,4.6-2.1,7.3-2.8c1.5-1.8,2.1-4.8,5.2-6.8c-0.2,4-2.6,5.9-4.5,8.1c-1.7,0.1-3.5-0.2-4.6,1.7
		c1.4,0.4,2.8,0.8,4,1.3c7.1,2.7,13.1,0.6,18.5-4.2c2.9-2.6,6.6-3.6,9.8-5.8c0.7-0.4,1.5-0.6,2-1.4c-0.2-0.8-0.4-1.6-1.5-1.2
		c-1.5,0.6-3,1.1-4.4,2c-1.2,0.8-2.1,0.5-3.3-0.4c2.8-1.2,5.6-2.3,8.3-3.6c1.5-0.7,3.3-0.9,4.9-1.5c7-2.6,12.4-7.4,18.5-11.7
		c-3.8-2.8-7.6-4.5-11.4-6.3c-6.9-3.2-12.2-8.1-16-14.8c-0.6-1.1-1.4-2.1-2.3-3c-3.1-3.2-5.3-7-7.1-12c-2.1,4.3-4.4,7.8-5.5,11.8
		c-1.5,5.6-3.3,11-7.2,15.6c-2.4-0.7-4.4,0.6-6.6,1c-8.9,1.6-17.6,0.6-26.4-0.4c-11.1-1.2-21.8-0.3-31.8,5.3
		c-10,5.5-20.5,9.9-31.6,12.7c-5.2,1.3-10.5,0.8-15.7,1.9c-0.8,0.2-1.6,0.1-2.2-0.7c-0.4-1.5,0.6-1.6,1.7-1.8
		c5.3-1.2,10.8-0.6,16.1-2c8.4-2.3,16.9-4.3,24.2-9.5c12.2-8.5,26.1-9.7,40.4-8.1c2.3,0.3,4.6,0.1,6.7,0.9c4.3-4,8.8-7.6,14-10.3
		c-5.3-2.3-5.7-2.8-3.9-6.5c0.2,2.6,1.6,3.5,3.7,3.9c4.8,0.9,9.7,2.1,14.6,2.6c1.2-1.5,1.5-3.4,2-5.1c1.4-4.5,3.1-8.9,6.1-12.6
		c0.6-0.8,0.9-1.6,0.8-2.5c-0.2-1.3,0.4-2.2,1.5-2.9l-0.1-0.1c1.3,5.8,3.3,11.2,7.1,15.9c1.7,2,3.5,4,5.7,5.5c1.5,0,2-1.8,3.5-2.2
		c-0.1,1.1-0.8,1.7-1.5,2.2c-1.3,0.8,0.1,1.6-0.1,2.2c-0.5,0.9-1.3-0.4-1.8,0.5c8.1,8.8,19,12.8,29.4,17.6c2.8-2.8,6-4.4,8.7-6.4
		c1.8-1.3,3.5-2.5,3.8-5c0.2-1.4,1.4-2.3,2.8-2.8c2.6-1,4.4-3,5.9-5.2c0.9-1.3,2-2.5,3.2-3.6c1-0.9,1.9-2,1.7-3.3
		c-0.5-2.9,1-4.6,3-6.1c2.5-1.9,4.6-3.9,6.1-7c1.6-3.4,4.9-6,7.6-9.2c0-0.3,0.1-0.8,0.2-1.4c0.7-4.6,1.6-5.1,5.7-3.1
		c4.3,2,4.4,1.9,8-1.4c2.1-1.9,3.7-4.1,5.4-6.3c1.3-1.6,2.4-3.3,1.4-5.6c-0.7-1.7,0.8-3.5,0.1-5.5c-1.4,1.3-2.6,0.7-3.9-0.3
		c-1.7-1.3-2.8-3.3-4.4-4.7l0.1,0.1c0-2.6-1.7-4.5-2.7-6.6c-1.2-2.5-2.6-5-2.5-7.8c0.2-7.9-3.3-15.4-2.6-23.5c0.3-2.8,1.3-4.8,3-6.5
		c1.5-1.5,3.6-2.4,5.6-3.3c1.4-0.6,2.1-1.6,2.6-3.2c-2.2-1.3-4.4-1.7-6.9-1.1c-4.4,1.1-8.8,1.9-13.2,2.4c-2.7,0.3-4.6,2.1-6.6,3.6
		s-4.1,3-6.3,4.2c-2.9,1.5-5.3,3.6-7.6,5.9c-7.2,7.2-13.2,15.3-17.9,24.4c-0.8,1.6-1.3,3.5-2.4,4.9c-0.6,0.8-1,1.9-2.2,1.9
		c-0.5-0.3-0.7-0.7-0.5-1.1c3.4-6.9,5.5-14.6,10.7-20.6c5.3-6.1,10.6-12.1,17.5-16.5c1-0.6,1.8-1.4,2.6-2.2c5.1-5,11-7.9,18.3-8.4
		c5.1-0.3,10.2-1.7,15.2-2.9c3.6-0.8,7.3,0.1,10.6-0.6c1.6,0.6,1.1,2.6,2.7,2.8c0,1.1-0.2,2.4-1.2,2.7c-4.7,1.2-7.3,5.7-11.8,7.2
		c-4,1.4-5.5,4.5-5.6,8.6c-0.1,9.4,2.4,18.2,5.7,26.8c0.6,1.5,1.1,2.9,1.4,3.9c-0.8-1.5-0.6-3.7-0.9-5.8c-0.4-2.1,0.7-3.7,2.9-3.9
		c2.2-0.1,2.5,1.6,2.6,3.3c0.1,0.9,0,1.8,0,2.7c2.3-8.3,7.1-14.7,14.5-19c2.5-1.4,2.7-3,1.5-5.4c-1.1-2-2.3-4-3.7-5.8
		c-2.3-3-4.1-6.4-5-10.1c-0.1-0.3-0.2-0.6-0.3-0.9c-0.8-1.4-0.3-2.8-0.2-4.2c-1-3.3-2.2-6.5-3.8-9.6c-2-3.8-2.9-8-3.8-12.2
		c-0.9-4.2-1.9-8.2-3.4-12.2c-3.4-9.1,0.2-14.9,9.5-17.8c11.1-3.5,22.5-5.7,33.8-8.1c12-2.5,24.2-2.4,35.9,2.6
		c2.5,1.1,5.5,0.4,7.9-1c2.8-1.6,5.7-2.4,8.9-2.5c2.7,0,5.1-1.1,7.7-1.9c3.1-0.9,6.1-1.9,9.2-3c2.8-1,5.5-0.8,8.1,0.1
		c3.5,1.3,7.3,0.9,10.9,1.8c1,0.3,1.8-0.3,2.6-0.6c4.2-1.6,8.3-1.6,12.4,0c3.3,1.3,6.7,2.5,10,3.8c1.9,0.8,3.8,1.7,5.2,4.6
		c0.9-5,4.5-6.4,7.5-8.5c5.2-3.7,9.2-8.5,13.5-13.2c4.8-5.2,10-10.1,16.9-12.6c2.6-0.9,5.2-0.3,7.8-0.5c0.4-1.1-1-1.8-0.8-3
		c1.1-0.6,2.2-1.2,3.3-1.8c2.4,1.1,0.2,3.8,2,5.4c1.2-2.3,0.9-5.3,3.4-6.9c2.3,1.6,0.4,3.6,0.5,5.3c2.1-0.4,3.5-3.7,6-1.8
		c0.3,1.8-1.4,2.2-1.6,3.4c1.1,0,2.1,0,3.4,0c1.5,2,3.6,3.7,5.5,5.5c1.5,1.4,3,2.9,3.4,5.1c0.2,0.8,0.8,1.4,1.4,1.9
		c5.5,5.3,7.9,12,8.1,19.5c0.1,4.1-0.1,8.3,1.1,12.3c0.3,1.1,0.4,2.3,0.2,3.4c-1.3,5.6-1.3,11.1,2,16.6c-2.5,0.2-3.5-1.5-5-3.1
		c-0.1,1.8-0.9,2.9-2.7,3.1c-1.3-4.5-5.8-2.1-8.6-3.8c-1,0.4-1.4,1.4-2,2.2c-1.7,2.7-3.8,4.5-7.3,4c-1.9-0.3-3.2,1.2-4,2.8
		c-1.3,2.4-2.4,4.9-3.6,7.5c-1.8,4-2.3,4.2-6.5,2.3c-0.7-0.3-1.5-0.7-2.1-0.9c-2.2,0.2-3.6,2.4-6.2,2.1c0.9-2.1,3.2-2,4.2-3.4
		c-0.1-0.2-0.2-0.4-0.2-0.6C995.2,415,995.4,415,995.6,415.1z"/>
	<path d="M912.6,576.9c2,1.8,1.2,4.4,1.9,6.4c0.1,0.4-0.1,0.9-0.1,1.4c0.6,11.5-2.2,22.8-1.3,34.3c0.5,6.6,1.7,13.2,2,19.8
		c0.1,4.3,0.3,8.5,0.3,12.8c0,1.2,0,2.3-1.2,2.7c-0.1,1.1,1,1.2,1,2c-0.9,0.4-1.9,0.6-3,0.2c-0.1-0.5-0.5-1.1-0.3-1.3
		c2.9-4.4,1.4-9.3,1.6-14c0.1-1.5-0.4-3-0.4-4.5c0-9-2.4-17.7-1.9-26.7c0.6-10.2,1-20.5,0.4-30.7
		C911.5,578.5,911.3,577.6,912.6,576.9z"/>
	<path d="M317.5,294.3c0-0.6,0.1-1.2,0.1-1.8l-0.1,0.1c7.7-9.9,18.1-17,26.5-26.2c2.9-3.2,6.1-6.1,8.5-10.6c0.7,3.4-1,5.3-2.3,7
		c-2.9,3.7-6.1,7.2-9.5,10.4c-5.6,5.3-10.4,11.4-16.7,15.9c-1.6,1.2-2,3.3-3.3,4.8C319.7,295,318.4,293.3,317.5,294.3L317.5,294.3z"
		/>
	<path d="M689.2,517.6c0-0.2,0-0.5,0-0.7l-0.1,0.1c4.7-8.2,13-12.8,19.3-19.5c5.3-5.7,11.2-10.7,15.9-17.5c0.7,3.1-1,5-2.4,6.7
		c-2.9,3.4-5.8,6.8-9.1,9.9c-5.7,5.5-10.6,11.8-17.2,16.4c-1.7,1.2-1.9,3.6-3.4,4.9C691.1,518.4,690.1,517.4,689.2,517.6
		L689.2,517.6z"/>
	<path d="M747.3,488c2.9-1.9,5.6-3.5,7.6-6.1c-1.8-3.7-6.1-4.9-8-8.4c3.8,0.4,5.6,3.5,8,6.1c1.3-0.6,1.5-2.6,3.1-2.7
		c-0.8,6.2-5.8,9-10.1,12.3c4.6,8.3,9.3,16.2,14.9,23.7c-4.1-3-7.2-6.9-9.7-11.3c-2.6-4.5-5.1-9-7.6-13.5c-2.7-4.9-5.4-9.9-9.3-14.1
		c-0.4-0.5-1-0.9-0.9-2.1C741.1,476.1,743.5,482.4,747.3,488z"/>
	<path d="M381.2,261.3c-1.6,1.4-3.3,2.8-5,4.3c4.2,7.7,8.6,15.1,13.6,22.3c-3.6-2.8-6.3-6.2-8.5-10c-2.8-4.9-5.5-9.8-8.3-14.7
		c-2.6-4.6-5.2-9.2-8.8-13.1c-0.4-0.4-1-0.7-0.4-1.7c5.5,4.1,7.9,10.4,11.6,15.8c2.2-0.6,3.5-2.4,5.4-3.2c0.2,0,0.4-0.1,0.6-0.1
		C381.3,260.9,381.3,261.1,381.2,261.3z"/>
	<path d="M404.7,279.8c-1-1.8,0.3-4.1-1-5.9c-1.2-1.7-2.3-3.4-3.4-5.1c4.1,0.1,7.4,2.8,7.8,6.5C408.3,278,407.4,279.3,404.7,279.8z"
		/>
	<path d="M925.4,630.8c2.7,4.8,2.9,10.1,3.6,15.3c-1.7-2-1.5-4.7-2.5-7.2c-0.6,3.5,1.2,6.9-0.4,10.1
		C925.5,642.9,924.7,636.9,925.4,630.8z"/>
	<path d="M776.5,503.9c-0.9-2.3,0.1-4.6-1.2-6.4c-1.2-1.7-2.3-3.3-3.5-5.1c4.8,0.6,7.6,3.1,7.9,6.8
		C779.9,501.4,779.4,503.3,776.5,503.9z"/>
	<path d="M624.2,579c9.4-1.3,18-3.6,25.9-8.1c-1.1,2.2-3.2,2.8-5,3.7c-5.3,2.8-11.2,3.8-17,5.3C627.1,580.2,625.9,580.4,624.2,579z"
		/>
	<path d="M416,259.9c0.1,0.2,0.3,0.5,0.4,0.7c0.5,2.9,3.1,4.3,5,6.6c-3,1.3-4.6-0.5-5.9-2.2c-1.7-2-3.6-4.1-3.1-7.2
		C414.5,257.8,414.7,259.6,416,259.9z"/>
	<path d="M278.3,347.2c-4.7,5-21.2,10.3-25.3,8.2C261.9,354.2,270.4,351.6,278.3,347.2z"/>
	<path d="M689.2,516.9c-6.1,1.4-12.3,2.1-18.6,1.9c-0.2-1.6,0.8-1.5,1.5-1.5c5.2-0.3,10.3-0.6,15.4-1.5
		C688.6,515.6,689,516,689.2,516.9L689.2,516.9z"/>
	<path d="M786.6,482.4c1.1,3.5,3.7,5.9,6.4,8.2c-3.5,1.9-8.2-2.6-9-8.4C785.1,480.9,785.8,482.1,786.6,482.4L786.6,482.4z"/>
	<path d="M380.8,260.8c0.8-0.8,1.5-1.7,2.4-2.6c-1.9-3.7-6.1-5-8.1-8.5c3.9,0.4,5.7,3.6,8.2,6.3c1.1-1.6,2.1-3.2,4-3.6
		c-2.7,2.5-2.2,7.2-6.1,8.9C381.1,261.1,380.9,261,380.8,260.8z"/>
	<path d="M317.6,292.6c-6.1,2.6-12.5,2.3-18.9,2.5c0.1-0.9,0.3-1.4,0.8-1.4c5.5-0.4,11-0.8,16.5-1.6
		C316.6,291.9,317.1,292.2,317.6,292.6L317.6,292.6z"/>
	<path d="M924.2,560.4c1.4,2.4,2,18.7,1.1,21.9C923.9,574.9,923.8,568.1,924.2,560.4z"/>
	<path d="M660.4,616.4c-1.4,1.5-3.7,1-4.7,2.6c-6.9-0.8-12.6,2.4-18.7,4.1C644.2,618.9,652.3,617.8,660.4,616.4z"/>
	<path d="M267.8,398.2c6.5-3.3,13.7-4.4,21.5-6.1c-1.9,2.3-4.6,1.3-5.5,3.2C278,394.6,273.1,396.9,267.8,398.2z"/>
	<path d="M366.9,278.6c-4.2,7.5-10.4,13.2-16.9,18.7C355.6,291,361.8,285.3,366.9,278.6z"/>
	<path d="M739,501.8c-4.1,7.7-10.4,13.5-17,19C727.7,514.4,734,508.7,739,501.8z"/>
	<path d="M288.2,298.5c1.1,0,1.8,0,3.1,0c-2.2,3.8-1.8,8.1-4.1,11.7C286.1,306.2,288.5,302.6,288.2,298.5z"/>
	<path d="M660,522.6c0.9-0.5,1.7-0.6,3-0.2c-2.1,3.6-1.8,8-4,11.6C657.8,529.9,660.3,526.4,660,522.6z"/>
	<path d="M925.4,603.4c-1.6,6.9-1.1,13.7-0.1,20.6C923,620.4,923,607.2,925.4,603.4z"/>
	<path d="M535.5,440.8c-2.2,2.3-4.7,3.4-7.1,5c-0.1,1.9-0.3,4-0.4,6c-0.3,0-0.5,0-0.8,0.1c-0.8-2.2-0.5-4.5-0.4-7
		C529.6,443.5,531.9,441.5,535.5,440.8z"/>
	<path d="M898.6,668.6c2.9-1.4,5.2-3.3,9-4.2c-2.5,2.5-4.8,3.7-7.3,5.1c-0.1,1.9-0.3,3.9-0.5,6.6C897.8,673.3,898.7,671,898.6,668.6
		z"/>
	<path d="M653.2,561.2c-3.3,2.8-7.4,2.8-11.4,3.2C645.3,562.2,649.2,561.3,653.2,561.2z"/>
	<path d="M956.6,404.3c1.2-2.6,3.4-3.9,4-6.3c2.7,1.8,3.1,4.2,1.5,7.9c-1.3-1.4-0.2-3.1-0.9-4.6C959.6,402,958.9,403.9,956.6,404.3z
		"/>
	<path d="M999.2,397.4c4.7-0.4,8.3,2,11.7,4.8C1006.3,402.3,1003.6,397.9,999.2,397.4z"/>
	<path d="M197.4,354c-3.6,3.7-6.7,4.5-8.8,2.3C191.3,354.3,194.5,354.7,197.4,354z"/>
	<path d="M559.9,580.3c3-2.3,6.3-1.6,9.2-2.5C565.8,581.3,562.8,582.2,559.9,580.3z"/>
	<path d="M281.4,337.2c-2,2.4-6.8,3.6-11.6,3.1C273.8,338.3,277.5,337.5,281.4,337.2z"/>
	<path d="M354.9,256.3c0.2,3.8,0.1,7.4,2.3,11.2C353.5,264.6,352.7,260.1,354.9,256.3z"/>
	<path d="M398.6,278c2.7,2.4,3.2,3.7,2.7,7C398.8,282.7,397.6,279.7,398.6,278z"/>
	<path d="M769.9,501.9c2.9,1.4,3.6,3.9,3.1,6.8C771.4,506.7,769.8,504.8,769.9,501.9z"/>
	<path d="M728.8,491c-3.3-2.5-4-5.8-2.5-11.2C727.4,483.9,726.4,487.8,728.8,491z"/>
	<path d="M956.3,375.3c0,3.6-2.4,6.3-3.8,9.4C953.1,381.3,953.2,377.7,956.3,375.3z"/>
	<path d="M646.1,591.4c0.4,0.7,0.8,1.3,0.4,2.2c-1.4,3.5-2.5,7.1-5.1,10.1C643,599.7,644.6,595.6,646.1,591.4L646.1,591.4z"/>
	<path d="M552.2,433.4c-3.3,2.9-7.7,3.4-11.4,5.5C544,435.9,548.2,435,552.2,433.4z"/>
	<path d="M923.5,656.6c0.2,0.3,0.4,0.5,0.6,0.8c-1.9,1.5-8.5,4.5-12.2,5.4C915.6,659.5,920.1,659,923.5,656.6L923.5,656.6z"/>
	<path d="M275,368.7c-0.9,4-2.7,7.6-5.2,11c1.4-3.8,2.9-7.6,4.3-11.3C274.4,368.5,274.7,368.6,275,368.7z"/>
	<path d="M395.3,249.2c3.2-2.8,7.2-3.9,11-5.5c0.1,0.3,0.2,0.6,0.3,0.8C402.8,246.1,399.1,247.7,395.3,249.2z"/>
	<path d="M772.6,435.7c3.2-0.2,6.3-1.1,9.8-0.3C780.1,437.2,780.1,437.2,772.6,435.7z"/>
	<path d="M665.1,567.8c-0.3,2.9-1.1,5.6-0.8,8.9C662.1,574,662.4,570.8,665.1,567.8z"/>
	<path d="M411,212.3c-3.8,1.1-7,0.1-10.3,0.1C404.7,210.9,407.6,210.8,411,212.3z"/>
	<path d="M254.4,343.5c0.9-0.6,9.9-2.3,10.9-2.1C261.7,342.1,258.3,344.3,254.4,343.5z"/>
	<path d="M292.3,352.5c-1.9-2.6-1.6-5.5,1-8.4C293.2,346.9,292.1,349.6,292.3,352.5z"/>
	<path d="M778.1,468.5c-3.7,1.5-7.4,3.1-11.1,4.6c3.1-2.9,7.1-3.8,10.8-5.4C777.9,467.9,778,468.2,778.1,468.5z"/>
	<path d="M967.5,386.4c-0.1,2.4-1.3,4.1-2.8,5.7C964.1,389.5,965.1,387.6,967.5,386.4z"/>
	<path d="M1000.3,398.7c2.2,1.2,2.8,4.5,6,2.9c-0.5,1.4-1.1,2.2-2.3,1.9C1002.3,403.2,1000.8,401.4,1000.3,398.7z"/>
	<path d="M915.6,559.4c3.2-0.6,5.7-0.7,8.2,0C921.4,560.9,918.9,560.6,915.6,559.4z"/>
	<path d="M262.7,399.8c-2.5,1.5-4.9-0.5-7.4-0.3C257.9,397.7,260.3,399.2,262.7,399.8L262.7,399.8z"/>
	<path d="M383.1,309c-0.8-2.6-1.7-5.3-2.6-8.1C382.6,302.9,383.7,305.9,383.1,309z"/>
	<path d="M924,583.3c1.1,2.3,0.5,4.6,0.6,7C924.1,588,923.2,585.7,924,583.3z"/>
	<path d="M754.8,532.7c-0.8-2.6-1.6-5.2-2.4-7.8c1.8,2.2,3,4.7,3.2,7.5C755.3,532.5,755.1,532.6,754.8,532.7z"/>
	<path d="M966.6,407.7c-1-2-1-4.1-0.9-6.4C967.1,403.5,967.2,403.8,966.6,407.7z"/>
	<path d="M688.3,540.4c0.7-2.3,2.1-4.1,3.8-5.6C692,537.6,689.8,538.8,688.3,540.4z"/>
	<path d="M287.7,358c-0.1,1.8-1,2.6-2.1,3.2C284.3,358.9,284.4,358.7,287.7,358z"/>
	<path d="M681.5,551.2c0.6-2.2,2.2-3.1,3.5-4.8C685.1,549.1,685.1,549.2,681.5,551.2z"/>
	<path d="M633.1,565.9c-2.2,1.6-4.6,2-7.5,1.2C628.2,565.5,630.7,566.1,633.1,565.9L633.1,565.9z"/>
	<path d="M317,316.1c0.4-2.2,1.7-3.8,3.6-5.9C320.6,313.6,318.2,314.5,317,316.1z"/>
	<path d="M957.3,411.3c-0.3,2.1-2.2,2.4-3.5,3.7C954.2,412.2,954.6,411.8,957.3,411.3z"/>
	<path d="M312.8,299.4c-2.1,0.3-4.1,0.4-6.8-1C308.9,298.4,310.9,298.1,312.8,299.4z"/>
	<path d="M678.9,522.6c2-0.3,4-0.5,5.8,0.4C682.7,523.8,680.8,523,678.9,522.6z"/>
	<path d="M734.6,481.9c-1.2-1.8-2.5-3.6-3-5.8c1.6,1.5,2.9,3.2,3.5,5.4c0,0.2,0.1,0.4,0.1,0.6C735,482,734.8,482,734.6,481.9z"/>
	<path d="M363.8,258.9c-2.4-1.4-2.6-4.3-4-6.4C361.7,254.3,363.3,256.3,363.8,258.9L363.8,258.9z"/>
	<path d="M950.3,646.5c1.6-1.4,3.4-1.7,5.3-1.8C953.9,645.8,952.2,646.5,950.3,646.5z"/>
	<path d="M310.1,327c0.4-1.9,1.7-2.9,3.3-3.8C313.4,325.4,311.8,326.2,310.1,327z"/>
	<path d="M546.8,432.3c1.5-0.6,3-0.8,4.7-0.5C549.6,433.1,549.6,433.1,546.8,432.3z"/>
	<path d="M951.4,388c1,2.1,0.5,3.5-2,4.9C950.3,390.8,950.9,389.4,951.4,388z"/>
	<path d="M294.6,295.1c-0.9,1.6-2.4,1.9-4.3,2.1C291.3,295,293.2,295.7,294.6,295.1z"/>
	<path d="M923.5,656.5c-1.8,0.2-3.5,0.2-5.3-0.6c1.4-0.2,2.8-0.5,4.3-0.7C923.4,655.1,923.6,655.8,923.5,656.5L923.5,656.5z"/>
	<path d="M583.6,421c-1.6,1.1-3.3,1.7-5.1,1.8C580,421.3,581.8,421,583.6,421z"/>
	<path d="M633.3,624.5c-2.2-0.9-4.2-1-6.6-1.2C631.2,622.1,631.4,622.1,633.3,624.5z"/>
	<path d="M656.9,585.2c-0.3-2.9-0.3-2.9,2.5-3.2C659.4,583.6,658.5,584.4,656.9,585.2z"/>
	<path d="M675.2,563.6c-0.8-2-1.1-3.3,0.5-4.4C676,561,676,561,675.2,563.6z"/>
	<path d="M304.5,335.9c-0.2,1.1-0.5,2.3-0.8,4c-1.1-1.9-1.4-3.1,0-4.2C304,335.7,304.3,335.8,304.5,335.9z"/>
	<path d="M995.2,415.5c-1.1-0.3-1.7-1.1-1.5-2.3c0.3-1.2,1.1-1.5,2.3-1.4c0.4,1.3-1.9,2-0.5,3.2
		C995.4,415.2,995.3,415.4,995.2,415.5z"/>
	<path d="M299.2,332.3c0.5-1.3,1.2-2.5,3.1-3.1C301.9,331.3,300.4,331.7,299.2,332.3z"/>
	<path d="M670.4,556.3c1.1-1.5,1.5-2.9,3.6-3.4C673.6,555,672.4,555.7,670.4,556.3z"/>
	<path d="M660.7,580.5c0.8-1.4,1.2-2.5,2.8-2.7C663.3,579.3,662.6,580,660.7,580.5z"/>
	<path d="M925.3,656.4c-1.8-1.3-1-2.4-0.4-3.4C925.9,654,925.7,655,925.3,656.4z"/>
	<path d="M633.2,566c1.2-0.9,2.4-1.6,4.2-1.1C636,566.2,634.5,565.9,633.2,566L633.2,566z"/>
	<path d="M662.4,520.6c1-1.3,2.4-1.5,4.2-1.9C665.4,520.8,663.7,520.3,662.4,520.6z"/>
	<path d="M553.4,429c0.5,1.2,0.7,2.3-0.1,3.5C552,431.2,552,430.2,553.4,429z"/>
	<path d="M893.6,668.3c1.5-0.9,2.4-1,3.4-0.1C896.1,669.4,895.1,669,893.6,668.3z"/>
	<path d="M238.7,408.5c-1,1.4-2,1.4-3.5,1.5C236.1,408.5,237,408.2,238.7,408.5z"/>
	<path d="M291.5,354.1c0.1,1.5-0.7,2.3-2.4,2.6C289.5,355.2,290.4,354.5,291.5,354.1z"/>
	<path d="M249,356.2c-1.1,1.2-2,1.5-3.1,1.1C247,356.2,247,356.2,249,356.2z"/>
	<path d="M682.1,570.9c0.8-1.7,1.7-2.4,3.4-2.9C684.7,569.6,684,570.4,682.1,570.9z"/>
	<path d="M948.7,393.5c0.5,1.7-0.5,2.5-2.1,3.3C946.7,395.1,948,394.5,948.7,393.5z"/>
	<path d="M747,543.2c-1.7-0.9-0.9-2.1-1.3-3.3C747.3,540.8,747.2,541.8,747,543.2z"/>
	<path d="M309.4,349.6c-0.8,1.8-1.5,2.4-3.1,2.4C306.7,350.4,307.8,350.2,309.4,349.6z"/>
	<path d="M375,319.6c-1.2-1.3-1-2.3-0.9-3.6C375.3,317.1,375.6,317.9,375,319.6z"/>
	<path d="M617.5,581c0.8-1.2,1.7-1.5,2.9-1.1C620,581.5,618.9,581.3,617.5,581z"/>
	<path d="M313.4,344.6c-0.6,1.4-1.2,2.2-2.8,2.4C311.1,345.5,311.9,345,313.4,344.6z"/>
	<path d="M607,633.6c0.9-1.4,1.8-1.6,3.1-1.1C609.4,633.5,608.5,633.9,607,633.6z"/>
	<path d="M943.9,401.7c0.6-1.9,1.2-2.6,2.8-3.1C946.2,400.2,945.5,400.9,943.9,401.7z"/>
	<path d="M247.2,344.1c-1.3,0.8-1.9,1.4-3,1.1C244.6,343.8,245.4,343.5,247.2,344.1z"/>
	<path d="M296.6,297.6c0.6-0.6,1.2-0.5,1.9,0.2C297.7,298.2,297.2,298.6,296.6,297.6z"/>
	<path d="M205.4,352.9c0.6-1.2,1.4-1.3,2.1-1.5C207.6,352.7,206.5,352.4,205.4,352.9z"/>
	<path d="M678.1,575.3c0.6-1.1,1.4-1.5,2.5-1.6c0.3,0.9-0.3,1.2-0.8,1.6C679.3,575.6,678.9,575.9,678.1,575.3z"/>
	<path d="M618.6,567.7c-0.7,1.1-1.5,1.3-2.4,1.3c-0.1-0.2-0.2-0.5-0.2-0.6C616.6,567.5,617.4,567.1,618.6,567.7z"/>
	<path d="M230.7,358.6c0.8-1,1.4-1,2.1-0.3C232.3,359.2,231.7,359.3,230.7,358.6z"/>
	<path d="M611.1,569.1c-0.9,1.1-1.5,1.2-2.2,0.6C609.2,568.4,610,568.7,611.1,569.1z"/>
	<path d="M392.7,299.8c-0.4-0.6-1.4-1-1-2.1C393.1,298.1,392.4,299.2,392.7,299.8L392.7,299.8z"/>
	<path d="M654.8,561.8c0-1.4,0.6-1.6,1.4-1.7C656.4,561.1,655.9,561.5,654.8,561.8z"/>
	<path d="M609.9,581.9c0.4-1,1.1-1,2.1-0.6C611.5,582.3,610.9,582.6,609.9,581.9z"/>
	<path d="M240.3,357.4c-0.3,1.3-1.1,1-2.3,1C238.7,357.3,239.3,357.1,240.3,357.4z"/>
	<path d="M946.8,417.2c0.5-0.9,1.1-1.5,2.3-1.6C948.8,417.2,947.7,417,946.8,417.2z"/>
	<path d="M283.1,337.8c-0.1-1.3,0.8-1.5,1.9-1.9C284.6,337,284.5,337.8,283.1,337.8z"/>
	<path d="M586.9,573.2c-0.4,0.5-0.8,0.8-1.4,0.4C585.7,572.7,586.2,572.8,586.9,573.2z"/>
	<path d="M577.8,576c0.5-0.4,0.9-1.1,1.8-0.7C579.1,576.1,578.7,576.5,577.8,576z"/>
	<path d="M573.2,577.3c-0.1,0.8-0.4,1.2-1.1,1.1c-0.3-0.1-0.5-0.5-0.3-0.8C572.2,576.9,572.7,577.2,573.2,577.3z"/>
	<path d="M521.8,444.6c1.6-0.8,2.5-0.8,3.5-0.1C524.2,445.5,523.3,445,521.8,444.6z"/>
	<path d="M602.2,582.8c1.1-1.4,1.7-1.4,2.3-0.7C604,583,603.4,582.6,602.2,582.8z"/>
	<path d="M623.2,628c-0.6,0-1,0-1.6,0C622.2,627.6,622.6,627.6,623.2,628z"/>
	<path d="M667.1,615.1c-0.6,0.5-1.3,0.8-2.4,0.9C665.5,615,666.3,615.1,667.1,615.1L667.1,615.1z"/>
	<path d="M307.4,331.2c0-0.8,0.2-1.3,1.2-0.9C308.6,331.1,308.2,331.5,307.4,331.2z"/>
	<path d="M236.4,346c1.3-0.9,1.9-1.1,2.5-0.6C238.4,346.8,237.8,346.1,236.4,346z"/>
	<path d="M680.2,553.7c0.3,1-0.1,1.4-1,1.3C678.7,554,679.8,554.1,680.2,553.7z"/>
	<path d="M667.7,557.5c-0.2,0.6-0.6,0.9-1.3,0.8C666.6,557.5,666.9,557.1,667.7,557.5z"/>
	<path d="M213.6,349.8c0.3-0.6,0.7-0.8,1.3-0.7c0.3,0.6,0,0.8-0.4,1C214.2,350.2,213.8,350.1,213.6,349.8z"/>
	<path d="M363.7,259c0.6,0.1,0.7,0.7,1.2,1.2C363.9,260.2,363.8,259.6,363.7,259L363.7,259z"/>
	<path d="M670.1,521.5c-0.7,0.4-1.1,0.4-1.5,0.2C668.9,520.8,669.4,521.1,670.1,521.5z"/>
	<path d="M618.4,628.7c0.1,0.4-0.1,0.5-0.4,0.6C617.8,628.9,618.2,628.9,618.4,628.7z"/>
	<path d="M262.7,399.9c0.5-0.5,1.1-0.5,1.9-0.6C264.1,400.2,263.4,399.9,262.7,399.9L262.7,399.9z"/>
	<path d="M763,521.5c1.2,0,1.3,0.5,1.3,1.1C763.2,522.9,763.6,522.1,763,521.5z"/>
	<path d="M295.8,333.8c-0.2,0.6-0.5,0.9-1.2,0.8C294.6,333.7,295,333.5,295.8,333.8z"/>
	<path d="M735,481.5c0.5,0.4,0.8,0.9,0.8,1.6c-0.9,0-1-0.7-1.2-1.2C734.7,481.8,734.9,481.6,735,481.5z"/>
	<path d="M909.6,578c0.2,0.1,0.5,0.1,0.5,0.2c0.2,0.3,0,0.6-0.3,0.7c-0.2,0-0.5-0.1-0.5-0.2C909.1,578.4,909.3,578.1,909.6,578z"/>
	<path fill="#FFFFFF" d="M531.2,225.9c-1.5-0.3-1.7,0.6-1.7,1.8c0,9.7-3.3,18.5-7.1,27.2c-2.6,6-5.5,11.9-10.7,16.2
		c-1.6,1.3-1.6,3.3-1.7,5.1c-0.1,2.9-0.3,5.8,0.5,8.6c2.1,7.8,1.5,15.8,2.4,23.7c0.2,2.3-1.3,4.4-1.1,6.8
		c0.7,10.9,0.8,21.9,2.2,32.7c0.9,6.7,2,13.6,5.2,19.7c-5.8,11.3-6.1,12.5-7.8,31.4c-2.2,0.6-4.2-1.3-6.6-0.9c0,2.6,2.2,2.4,3.7,3.1
		c0.3,0.8,0.5,1.6,0.8,2.4c-1.1,0.8-3.1,0-5.9-2.2c-0.4-0.7,1.1-0.9,0.4-1.7c-4.1-2.5-4.1-2.5-3.3-7.5c0.1-0.5,0.2-0.9,0.1-1.4
		c-1.3-5.1,0.8-10,1.2-14.9c0.1-0.7,0.1-1.4,0-2c-1.4-8.3-4.1-16.3-6.4-24.4c-2.5-9.2-6-18.1-9.2-27.1c-0.6-1.7-1.1-3.5-2.4-4.9
		c-0.6-0.6-0.8-1.5-0.9-2.2c0-6.8-1.9-13.4-2-20.2c0-0.3,0.1-0.7,0.2-1.2c1,0.9,0.6,2.5,2.5,3.6c-1.5-4.3-0.2-8.5-3-12
		c1-1.4,1.4-2.7,0.3-4.6c-0.7-1.2-0.2-2.9,0.5-4.6c2.6-6.5,4.7-13.1,4.7-20.3c0.1-7.3-2-14.3-2.6-21.5c-0.3-3.9,0.1-7.5,1.5-11.1
		c3-7.8,5.9-15.7,8.9-23.5c0.6-1.5,0.7-2.8,0.1-3.9c0.4-10.3,7.2-17.4,11.7-25.6c4.3,0,8.1-1.4,11.8-2.8c7.1-2.6,13.8-2.7,21.1-0.1
		c4.5,1.6,7.4,4,10,7.5c0.1,0.5,0.4,0.8,0.8,0.9c6.4,7.3,8.3,15.4,4.1,24.5c-0.3,0.7-0.5,1.5-0.8,2.3c-1.2,3-1.9,6.2-4.9,8.3
		c-1.1,0.8-2,2.2-2.5,3.5c0,1,1.3,0.7,1.3,1.4c-0.8,2.6-3.7,3.7-4.7,6.8c3.4-1.2,5.5-3.3,7-5.8c4.5-7.7,8.6-15.7,9.1-24.7
		c0.5-10.2-3.9-18.4-12.7-24c-5-3.2-10.2-5.8-16.3-5.9c-1.3,0-2.5-0.2-3.7,0.1c-6,1.4-11.7,3.5-17.4,5.4c-3.4,1.1-5.3,4-7.3,6.5
		c-1.2,1.5-2.4,2.8-3.9,3.8c-3.6,2.6-6.9,5.8-9.9,9.1c-4.5,4.8-5.2,11.1-6.5,17.1c-1.1,4.7-0.6,9.5,1.9,13.8c0.6,1,0.9,1.9-0.1,3
		c-3.7,0.3-7.5,0.5-11.4,0.8c3.4,2.1,7,2.8,10.8,3c-0.9,5.8-0.7,11.4,0.2,16.9c0.9,5.5,1,11.1,2.4,16.5c-9.2,4.3-18.2,7.5-27.2,10.5
		c-6.6,2.1-13.2,4.1-19.7,6.2c-2.9,0.9-5.9,1.6-7.6,4.6c0,0.1-0.2,0.2-0.3,0.2c-4.5,1.7-8.9,3.4-13.7,5.2c0.6-1.5,1.5-2,2.5-2.4
		c3.2-1.4,5.1-4.2,6.7-7.1c1-1.8,1.4-3.8,0.5-5.9c-0.9-2.3-0.7-4.5,2-6.1c1.2,0.7,2.5,0.3,4-0.1c4.7-1.5,9.2-3.5,14.2-4.1
		c1.9-0.2,3.6-0.8,4.2-2.7c16.9-1.4,30-4.8,32.1-8.2c-0.1-0.2-0.4-0.5-0.4-0.5c-7,2.2-14.3,3.3-21.5,4.7c-4.5,0.9-8.6,3.2-13.1,4
		c-5.8,1.1-11.6,2.7-17.2,4.5c-1.5,0.5-2.8,0.1-4.1-1c-4.6-3.6-7.5-8.1-9.2-13.7c-1.7-5.5-3.4-11-3.8-16.8
		c-0.3-3.6-0.8-7.3,0.3-10.9c0.8-2.8,2.7-4.5,5-5.3c3.4-1.3,6.4-3.1,9.3-5.1c2.1-1.5,4.4-2.6,7.1-2.2c1.5,0.2,2.6-0.9,3.8-1.1
		c0.9,0,0.3,1,0.8,1.3c4.4-0.1,7.5-3.9,11.9-4.1c0.4,0.8-0.9,0.9-0.7,1.6c0.9,0.5,1.5-0.2,2-0.7c7-5.8,14.9-10.3,22.9-14.7
		c4.5-2.5,9.5-4.2,12.6-8.6c2.1-3,5-4.8,8.1-6.6c5.6-3.2,10.6-7.3,16.6-9.8c8.6-3.7,17.5-5.6,27-5.2c4.7,0.2,9.7,0.4,14.1-2.1
		c0.5-0.3,1-0.5,1.8,0c-1.4,4.1,0.8,7.4,2.9,10.7c2.2,3.4,3.2,7.1,3.3,11.1c0.1,4.6,0.3,9.2,0.3,13.8c0,3.9-2.1,7.5-2.6,11.3
		c-0.2,1.2-0.5,2.4-0.8,3.5c1,0.5,1.3-0.1,1.8-0.4l-0.1-0.1c-3.6,10.2-9.6,18.2-20.1,22.1c-2.8,1-5.4,2.6-8.6,3.3
		C531.1,229.2,531.1,227.5,531.2,225.9c0.4-1.4,1.7-1.8,2.8-2.3c2.6-1.3,5.2-2.5,6.7-3.9c-1.5,1.3-4.1,2.7-6.7,3.9
		C532.9,224.1,531.6,224.5,531.2,225.9z"/>
	<path fill="#FFFFFF" d="M566.3,201.6c0-0.7,0.8-1.2,0.4-1.9c-0.9-0.9-1.7,0.5-2.6,0.2c-0.1-0.3-0.3-0.6-0.3-0.9
		c-0.5-4.9,0.5-9.9,0.2-14.8c-0.2-2.9-0.4-5.7-0.7-8.6c-0.6-5-2.7-9.4-5.4-13.7c-2.2-3.4-1.4-4.8,2.5-6.2c3.7-1.4,7.5-0.3,11.2-1
		c3.6-0.7,7.2-1.1,10.3-3.5c2.1-1.6,4.3-3.2,7.2-2.7c0.1,1.1-1.3,1-1.3,1.4c-0.1,1.3,0.4,1.4,1.1,1.4c0.7,0.6-1.1,1.3,0.4,2.2
		c2.7-1.8,5.7-3.5,10-3.6c-2,3.7-1.8,7.2-0.1,10.7c1.3-0.7,2.7-1.2,3.8-2.2c-0.6-1.9-2.6-0.4-3.7-1.7c0.4-1.7,1.7-2.9,2.9-4.3
		c1.4,1.1,0.9,3.3,2.6,4c1.2-0.5,1-1.7,1.4-2.7c2.4-0.5,4.4-1.8,6.5-3.5c0-1.5,0.3-3.2-0.4-4.6c-1-1.3-2.6-0.7-3.5-1.8
		c1.7-0.5,3.1-0.1,4.5,1.1c0.5,2.1-0.1,4.3,0.6,6.4c0.4,1.3-0.4,2.6-1.5,3.6c-1.8,1.7-3.8,3.4-5.2,5.4c0.3,1.2,1.8,1.3,1.8,2.7
		c3.7-0.7,6.7-3,10.5-3.3c3.5-0.3,7.1,1.3,10.2-0.2c4.1,0.5,5.2,5.8,9.8,4.9c1.7,4.7,6.8,5.7,9.8,9.3c-1.7,3.5-3.1,7-8.2,6.5
		c-2.3-0.2-3.8,1.7-5,3.7c-1.8,3-2.7,6.3-4.4,9.6c-3.4,0.8-5.3-2.5-8-2.8c-0.2-1.4,1.1-1.6,1.1-2.2c-0.3-0.6-0.6-0.7-1-0.5
		c-2.7,1-1.3,2.6-0.6,4.1c-1.2,0.8-2.3,1.6-3.8,1.9c-1.6-0.7-3.2-1.5-4.9-2.2c-0.9,1.6,1.5,1.6,1.1,2.8c-0.2,0.2-0.4,0.5-0.5,0.4
		c-3.2-1.6-6.1-0.4-9.1,0.9c-2.7,1.2-7.6-1.7-9.5-5.3c-1.1-2.1-2.2-4.3-4.6-5.4c-2.3,1.3-4.6,2.4-6.2,4.8c-1.2,1.9-3.3,2.7-5.5,3.3
		c-2.1,0.6-4.4,0.9-5.9,2.8c1.3,1.4,2.4-0.3,3.7,0.3C574.3,199.3,570.3,200.5,566.3,201.6L566.3,201.6z"/>
	<path fill="#FFFFFF" d="M515.9,330.5c-0.3-6-1-11.5-0.4-17.2c1.1-10.4-0.4-20.7-2.7-30.8c-1.4-6.2,0.8-12.6,6.3-15.2
		c3.9-1.9,7.7-4,12-5c5.3-1.2,10.2-3.7,14.9-6.1c2.3-1.2,5.2-1,7.5-2.9c-0.4,2-0.4,4.1-1.3,5.9c-4,8.2-3.8,16.6-2.5,25.3
		c0.6,4,1.3,7.9,2.8,11.7c1.1,2.8,1.4,5.8,1.9,8.7c1,5.8,2.2,11.5,3.5,17.2c0.4,1.6,0.8,3.4,0.3,5c-0.4,0.1-0.6,0.3-0.8,0.2
		c-6.8-1.7-12.7,0.4-18.1,4.3c-0.7,0.5-1.4,0.7-2.3,0.6C530.3,331.1,523.3,330.8,515.9,330.5z"/>
	<path fill="#FFFFFF" d="M573.6,361.8c-2.3,0-2.7-2.7-5-2.8c-0.1,3.4,2.6,4.2,4.4,5.5c0.4,1.2,0.2,2.1-1.2,2.8
		c-1.1-3.3-3.5-4.1-6.7-2.8c-1.1-4.8-0.7-9.4-0.7-13.7c0.4-1,1.5-0.2,1.8-1.2c-1-6.1-0.6-12.4-0.8-18.7c-0.9-1.2-2.4-0.8-3.5-1.2
		c-0.7-0.6-0.7-1.4-0.8-2.2c-0.5-9.4-2.6-18.4-4.5-27.6c-0.5-2.2-1.2-4.4-2-6.6c-3.3-9.1-3.7-18.4-1.5-27.8
		c0.9-3.8,1.9-7.5,2.3-11.3c0.2-2.1,1.5-3.1,3.5-3.7c6.8-2.3,13.4-4.9,19.4-8.8c1.9-1.2,4.6,0,6.4-2.2c-1.4,4.7-0.2,9.4-2.4,13.8
		c-1,2,0.2,4.5,0.9,6.7c1.7,5.1,1.6,10.3,1.5,15.7c-0.1,7.2-2.3,14-3.6,20.9c-2.1,10.6-3.1,21.2-2.3,31.9c0.4,4.6,0.2,9.2,0.6,13.8
		c0.1,1.1,0.1,2.3-0.5,3.4C576.1,350.7,574.6,356.1,573.6,361.8z"/>
	<path fill="#FFFFFF" d="M545.3,356.4c4.7,0.1,8.4,2.2,11.5,5.4c4.9,5.1,7.3,11.4,8.4,18.2c1.9,11.8,0.7,23.3-4.7,34.1
		c-2.1,4.3-4.9,8.1-8.6,11.1c-8.3,6.5-17.7,5.5-24.3-2.8c-4.4-5.5-6.5-11.9-7.3-18.7c-1.6-12.5,0.2-24.3,6.8-35.2
		c3.3-5.4,7.6-9.8,14-11.6C542.6,356.6,543.9,356.4,545.3,356.4z"/>
	<path fill="#FFFFFF" d="M154.8,345c3.7,0,7.5,2.1,10.4-1.4c6.4,1,12.8,0.4,19.3,1.2c-1.9,1.7-3.7,3.3-5.8,5.1c-0.4,2-1.2,4.1-2.7,6
		c-2.5,3.3-1.5,9.8,1.9,12.3c2.2,1.7,4.7,2.9,7.6,3c2.2,0.1,4.1,0.6,5.7,2.6c2,2.5,4.8,2.4,8.1,1.2c-1.5,2-2.6,3.5-3.9,5.1
		c-4.8-1.3-9.6-3-14.8-1.9c3.2,3.2,7.6,3.7,11.6,5.4c-4.5,0.6-8.9-0.2-13.3-0.5c3,4.1,7.2,4.9,12.5,5.1c-4.4,3.8-9.6,0.7-13.9,3
		c3.2,2.9,6.8,2.5,10.3,2.5c-0.7,1.9-0.7,1.7-4.5,2.2c-2,0.3-3.7-1.2-5.8-0.7c0.5,2.6,4.5,2.1,3.8,4.9c1.7,0.9,2.3-0.4,3.3-1.6
		c0.2,1.5-0.3,2.8,0.7,3.8c1,0.9,2.4,0.8,3.8,1.4c0.1,1.9,1.6,3.1,3,4.5c2.3,2.4,4.6,5.2,3.3,9.1c-5.6,1-11,0.9-16.6,0.6
		c-7.6-0.4-13.6-3.7-19.5-7.9c-4.9-3.5-6.3-8.6-5.7-14.3c0.5-4.2,1.4-8.4,2.1-12.5c0.6-3.5,0.2-7-1.1-10.2
		c-2.9-7.5-2.6-15.1-1.9-22.8C153,348.6,153.7,346.9,154.8,345z"/>
	<path fill="#FFFFFF" d="M509.5,406.1c-2.3,7-6.5,12.7-12.9,16.4c-6.4,3.7-12.9,2.9-18.5-1.9c-2.9-2.5-5.1-5.6-6.5-9.2
		c-6.9-17.2-5.4-33.8,4.6-49.4c3.4-5.3,8.2-9,14.6-10.1c0.8-0.1,1.6-0.3,2.4,0c3,5.3,6.6,20.7,5.7,24.8c-2.5,0.9-5.7,0.2-7.5,3.3
		c-1.1,1.9-1.6,3.8-1.6,5.9c0,5.3,1.7,7.3,7.2,8.6c0,3.3,2.7,5.4,4.2,8.1C502.8,405.2,506,406.7,509.5,406.1L509.5,406.1z"/>
	<path fill="#FFFFFF" d="M622.7,363.5c-0.3,9.2-2.2,18-7.4,25.8c-1.6,2.4-3.5,4.6-5.8,6.3c-7.1,5.4-15,4.7-20.9-2
		c-3.5-4-5.5-8.7-6.6-13.9c-2.6-12.2-1.1-23.8,5-34.7c2.1-3.8,4.9-7,8.6-9.3c6.4-3.9,12.9-3.3,18.3,2c5,4.9,7.1,11.2,8.3,17.9
		C622.4,358.2,622.9,360.8,622.7,363.5z"/>
	<path fill="#FFFFFF" d="M386.8,324.3c7.4,2.1,14.8,0,22.1,0.5c12.2,0.8,24.3,1.5,36.4,2.9c4.5,0.5,9,1.1,13.4,0.9
		c7.3-0.3,13,3,19,6.4c4.1,2.3,7.4,5.9,12.2,7c0.7,0.1,0.7,0.8,0.6,1.7c-1.5-0.2-3.1-0.3-4.6-0.6c-9.5-2.2-19-1.5-28.5-0.8
		c-2.1,0.1-4.1-0.1-6.2-0.4c-7.6-1.1-15.2-2.2-23-2.5c-6.9-0.3-13.7-1.9-20.5-2.5c-9.1-0.9-18.3-1.4-27.5-2.1c-0.6,0-1.1-0.1-2-0.2
		c-0.3-1.8-0.5-3.6-0.8-5.4s-0.6-3.7-2.8-4.5c2.4,0.1,4.3-2.1,6.9-0.6c0.7,0.4,2.2-0.4,3.3-0.7c7.1-1.7,14.2-2,21.4-0.5
		C399.9,324.1,393.3,324,386.8,324.3z"/>
	<path fill="#FFFFFF" d="M483.3,260.4c-0.4,5.4-3.5,9.5-4.6,14.5c-8.1,3.2-16.1,6.9-24.5,9.9c-9.5,3.5-19,6.9-27.7,12.2
		c-0.9,0.5-1.8,1-2.8,1.3c-12.7,4.2-24.7,10.1-37.5,14.3c-0.2-4.2,2.9-6.3,5.7-8.4c2.3-1.7,4.2-3.2,4.6-6.4c0.3-2.1,2.3-3.6,4.4-4.4
		c13.8-5.4,27.4-11.2,41-17c6.5-2.8,13.3-5,20-7.4C469,266.3,475.9,263.5,483.3,260.4z"/>
	<path fill="#FFFFFF" d="M589.7,222.6c-0.9-0.8-1.7-1.6-3-0.7c-5.4,3.5-11.3,5.8-18,6.1c-0.3-0.7-0.7-1.4-1-2c0.9-1.8,3.4-2,3.7-4.4
		c-3.5,1.3-6.2,3.9-9.4,5.8c-3.2,1.9-6.4,3.7-9.9,4.9c-3.6,1.2-7.1,2.8-10.5,4.4c-3.3,1.5-6.8,2.7-10.3,3.8c0-2.2,0-4.2,0-6.5
		c2.2-0.2,4-1.9,5.5-0.9c5.8-2.9,12.2-4.7,15.1-11.4c1.6,2.6,1.8,5.5,4.7,7.2c-0.9-3.2-3-5.3-2.9-8.5c1.3-1.3,2.8-2.7,3.6-4.6
		c3.6-8.3,11-10.4,18.9-11.9c1.6-0.3,3.3-0.3,4.7-0.8c5-1.8,10.2-0.2,14.8-1.5c5.5,2.9,5.9,8.8,9.1,13c-5,1.9-10.4,1.5-15.2,3.8
		c2.5,0.5,5-0.6,7.8,0C595.2,220.3,592.4,221,589.7,222.6z"/>
	<path fill="#FFFFFF" d="M378.9,321.5c2-5.2,6.9-6.6,11.5-8.3c12.8-4.6,25.1-10.2,37.8-15c8.8-3.3,17.1-7.9,25.9-11.2
		c8.2-3.1,16-6.9,24.3-10.5c0.2,2.3,0.4,4.4,0.6,6.2c-9.9,5.6-20.1,9.7-30.2,14.2c-3.4,1.5-6.8,2.7-10.2,4.1
		c-6.2,2.5-12.3,5.2-18.1,8.5c-4.8,2.8-10.4,3.6-15.5,5.8c-6.1,2.6-12.5,4.4-18.9,6.2C383.7,322.1,381.3,323,378.9,321.5z"/>
	<path fill="#FFFFFF" d="M448.7,299c1.4,2.5,3.9,3.8,6.1,5.4c6.9,5,14.7,8.5,21.9,13c2.3,1.5,5.2,2.3,6.3,5.4
		c-11.7-8.1-25-13.5-36.6-21.7c0.7,1.9,2.5,2.6,3.8,3.7c6.8,5.3,14.1,9.9,22,13.5c4.5,2,8.2,5.4,12.2,8.3c0.4,0.3,0.8,0.9,0.9,1.4
		c1.3,3.6,2.6,7.3,4.1,11.2c-1.8,0-2.9-0.9-4-1.6c-5-3.4-9.9-6.6-15.5-8.9c-3.3-1.4-6.4-3.2-9.1-5.5c-5.4-4.6-12-6.5-18.4-9.1
		c-4.6-1.8-9-4-13.7-6.7C435.6,304.1,442,301.3,448.7,299L448.7,299z"/>
	<path fill="#FFFFFF" d="M562,229.9c0.9,1.5,2.3,0.2,3.3,0.4c1.9,3.2,1,7.6,4.9,9.6c-14.1,9.6-30.6,12.9-46.6,19.1
		c2.7-5.2,5.7-9.5,6.6-14.8C540.9,239.4,551.5,234.7,562,229.9L562,229.9z"/>
	<path fill="#FFFFFF" d="M342,348.6c2.9-2,5.1-3.6,7.4-5.1c1.9-1.3,3.9-2.5,5.4-4.3c1.5-1.7,3.2-2.8,5.7-2.7c1.6,0.1,2.6-1.3,4-1.9
		c0.8,3.4,0.1,7.2,3.4,9.8c-0.4-2.3-0.8-4.6-1.2-7c9.2,0.5,18.3-1,27.5,0.9c-0.5,1.3-1.6,2-2.7,2.9c-2.5,2.1-4.9,4.1-7.4,6.2
		c-4.2,3.6-9.1,5.1-14.4,3.4c-3.9-1.3-8-1.5-11.8-1.1C352.7,350.3,347.8,349.4,342,348.6z"/>
	<path fill="#FFFFFF" d="M553.1,356.2c-5.8-1.2-10.7-3.5-16.2-2.4c1.4-1.1,2.9-1.8,4.6-1.8c0.1-6.2,1.2-12.2,0-18.1
		c7-2,14.2-1.1,21.5-1.3c-2.1,1.7-5,1.2-7.7,2.9c2.9-0.2,5.1-0.3,7.4-0.4c1.3,4.3,0.5,8.3-0.1,12.4c-1,6.5-0.8,13,0.5,19.6
		c-2.5-3.6-4.9-7.1-8.5-9.5c-1.6-6.8-0.3-13.7-1.8-20.3C552.1,343.6,552,349.8,553.1,356.2z"/>
	<path fill="#FFFFFF" d="M428.3,308.6c7.8,4.7,15.3,9.1,23.9,11.3c1.9,0.5,3.5,2,4.9,3.8c-19.7-1-39.4-1.5-59.6-3.4
		c9.2-5,19.3-6.4,28.5-11.8c-2.2,5.1-6.2,8-8.9,12c1.7,1.3,2.5,0.1,3.2-0.8C423.2,316.4,426.3,313.1,428.3,308.6z"/>
	<path fill="#FFFFFF" d="M485,351.6c-7.4,4.3-12,10.8-15.1,18.6c-4.1,10.6-5.2,21.5-2.9,32.5c1.8,8.9,5.6,16.7,14.3,22.2
		c-5.4-0.6-9-2.9-12-6.3c-4.6-5.3-6.8-11.7-7.9-18.5c-1.8-11.8-0.2-23.2,5.4-33.9C470.7,358.9,476.4,353.5,485,351.6z"/>
	<path fill="#FFFFFF" d="M537,356.5c-4.9,2.4-8.5,6.3-11.2,10.6c-3.1,5-5.3,10.7-6.4,16.6c-1.8,9.4-1.9,18.7,0.9,28
		c2.2,7.2,5.9,13.4,12.6,17.6c-3.6,0.1-6.9-1.5-10.2-4.6c-3.7-3.6-6.1-8.1-7.5-13c-4.1-14.2-2.8-28,4.1-41.1
		C523.2,363.3,528.8,358.2,537,356.5z"/>
	<path fill="#FFFFFF" d="M251.1,396.5c-8-2.9-12.1-12.5-8.5-20.1c1.1-2.4,2.6-4.6,2.8-7.4c2.6,0,5.1-0.2,7.6,0.4
		c2.5,0.7,5-0.5,8-0.6C257,378.2,253.5,387.2,251.1,396.5L251.1,396.5z"/>
	<path fill="#FFFFFF" d="M535.6,334.6c-6.4-0.8-12.7-1.6-19.1-2.5c7.3,0.4,14.6,0.3,22,1.9c1.3,5.1-1.1,10.5,1,16
		c-3.7-0.2-6.8-1.2-10,0c-3.5-5.5-10.7-6.3-14.3-11.8c-0.1-1.4,0-2.9,0.6-4.7c6.5,0.1,12.9,2.9,19.6,2
		C535.5,335.2,535.6,334.9,535.6,334.6z"/>
	<path fill="#FFFFFF" d="M594.9,333.9c-19.1,12.9-21.6,52.1-2.5,65.3c-4-0.3-6.7-2.1-9.2-4.6c-4.8-4.9-6.9-11.1-7.9-17.6
		c-1.9-11.6,0.1-22.6,6.2-32.8C584.9,338.5,590,334.6,594.9,333.9z"/>
	<path fill="#FFFFFF" d="M555,249.8c5.6-2.9,11.2-5.8,16.8-8.8c0.6-4.2-2.1-7.5-2.6-11.8c5.6-0.1,10.6-2.2,15.8-4.3
		c2.2,3.4,2.2,8.2,7.4,9c-12.4,5.7-24.2,12.3-37.1,16.3C555.2,250,555.1,249.9,555,249.8z"/>
	<path fill="#FFFFFF" d="M479.3,306.2c-7-4.5-14.5-6.7-20.8-11.6c1.3-1.1,2.9-1.4,4.3-2.1c4-2,8.2-3.4,11.8-6.1
		c1-0.7,2.1-1.3,3.7-1.3C478.6,292,478.1,298.8,479.3,306.2z"/>
	<path fill="#FFFFFF" d="M281.9,327.4c4.4-3.7,8.7-7.4,15.2-9.7c2.1,0.3,5.6,0.9,9.2,1.5c-0.9,4.6-3.1,7.4-7.9,7.8
		C292.9,327.4,287.5,328.2,281.9,327.4z"/>
	<path fill="#FFFFFF" d="M188.7,369.4c-4.8-2.8-12-2.6-12.3-10.7c1.9-2.1,3.7-4.5,4.7-7.6c0.6-1.9,2.6-2.7,4.9-3.6
		C185.8,355.3,183.9,362.7,188.7,369.4z"/>
	<path fill="#FFFFFF" d="M484.3,214.7c-2-5.2-2.4-9.7-0.1-14.4s3.5-10,7.9-13.5c0.3-0.3,0.7-0.6,1-0.9c2.4,5.4-2.1,9.5-2.8,14.4
		C489.6,205,486.3,209.5,484.3,214.7z"/>
	<path fill="#FFFFFF" d="M448.7,299c0.5-0.7,1.2-1,2.2-1.3c8.9,6.7,19.7,10.2,29.4,16.1c0.3,1.2,1,2.5,0.9,4.2
		c-10.5-5.9-21.3-11-30.7-18.2C450,299.3,449.4,299,448.7,299L448.7,299z"/>
	<path fill="#FFFFFF" d="M452,297.3c1.7-0.9,3.1-1.5,4.6-2.3c5.1,4.4,11,7.6,17.3,10.1c1.8,0.7,3.4,2,5,3c1.2,0.8,1.3,2,1.3,4
		C471,306.7,461.1,303.3,452,297.3z"/>
	<path fill="#FFFFFF" d="M555.3,250.1c-11,5.8-22.5,10.2-34.5,14.2c0.3-1.4,0.9-2.4,1.3-3c11.2-3.9,22-7.7,32.8-11.5
		C555.1,249.9,555.2,250,555.3,250.1z"/>
	<path fill="#FFFFFF" d="M518.1,356.8c-0.4-1.1-0.8-2-0.7-3.4c1.9,0.1,4.5,0.6,4.6-2.3c0.1-3.8-3.3-4.1-6-5
		c-0.2-1.4-0.4-2.7-0.6-4.1c3.1,2.8,7.1,4.5,9.6,7.9c1.1,1.5,2.3,2.9,0.9,4.9c-2,2.8-3.6,3.5-6.3,2.6
		C519,357.3,518.5,357,518.1,356.8z"/>
	<path fill="#FFFFFF" d="M593.7,189c1.4,2.7,2.6,5,4.8,6.5c0.3,1.2,0.3,2.3-0.3,3.6c-3.5,0.2-7.1,0.4-11.1,0.7
		C589.3,196.3,591.3,192.9,593.7,189z"/>
	<path fill="#FFFFFF" d="M498.3,379.8c-1.3,3.8-0.4,7.5-0.4,11.4c-1.8-0.1-3.3-0.2-4.7-0.3C490.9,385.1,493.6,379.2,498.3,379.8z"/>
	<path fill="#FFFFFF" d="M588.2,193.3c0.1,1.6-1,2.5-1.5,3.6c-0.5,1-1,2-1.5,3.1c-3.4,0.7-6.8,1.8-10.4,2c0-1.2,1-1,1.6-1.4
		c2.7-1.7,5.5-3.1,7.3-6.1C584.6,192.9,586.2,192.2,588.2,193.3z"/>
	<path fill="#FFFFFF" d="M572,377.1c-3,0.5-4.4-1.1-4.8-3.2c-0.5-2.2-1-4.4-1.8-6.5c1.1-1.1,2.2-1.4,3.9-0.8
		C571.1,369.8,569.7,373.9,572,377.1z"/>
	<path fill="#FFFFFF" d="M412.2,286c-2.8,2.6-5.9,3.4-9,4.5c2.4-1.6,1.8-4.2,2.3-6.5C407.8,284.7,409.6,285.9,412.2,286z"/>
	<path fill="#FFFFFF" d="M457,327c-8.7-0.6-17.6-0.6-26.3-2.2C439.5,325.2,448.3,325.4,457,327z"/>
	<path fill="#FFFFFF" d="M373.6,328.1c0.1,2.2,0.2,4,0.3,6c-2.4,0.2-4.6,0.1-7-0.7C369.1,331.6,371.1,330,373.6,328.1z"/>
	<path fill="#FFFFFF" d="M604.3,147.7c0.4-1.1,1.2-0.9,2-0.6c1.4,0.7,2.8,0.8,4.3,0.9c-0.9,3.4-1,3.5-5.7,3.3
		C605.1,150,606.1,148.6,604.3,147.7L604.3,147.7z"/>
	<path fill="#FFFFFF" d="M427.1,204.3c-3.3,3.4-5.5,3.7-9.8,1.1C420.4,203.9,423.7,204.5,427.1,204.3z"/>
	<path fill="#FFFFFF" d="M567.1,378.5c1.4,0.1,2.3,1.3,3.8,0.7c-0.6,2.2-1.5,3.7-3,5.8C567.4,382.4,566.8,380.6,567.1,378.5z"/>
	<path fill="#FFFFFF" d="M518.8,360.6c2.1,1,3.6,0.5,5.9,0c-1.6,1.8-2.7,3-4,4.5C519.3,364.1,519.4,362.6,518.8,360.6z"/>
	<path fill="#FFFFFF" d="M532.7,355.6c-1,0.5-1.9,0.9-3.2,1.5c0.4-2,1-3.5,0.9-5.2c1,0,1.7,0.3,2.4,0.7
		C533.3,353.5,532.9,354.4,532.7,355.6z"/>
	<path fill="#FFFFFF" d="M549.4,328.8c-2.5,1.9-4.5,2.9-7.2,3.2C544.3,330.2,546.5,329.6,549.4,328.8z"/>
	<path fill="#FFFFFF" d="M418.4,324.2c3,0,5.9,0,8.9,0c0,0.1,0,0.1,0,0.2c-3,0-5.9,0-8.9,0C418.4,324.3,418.4,324.2,418.4,324.2z"/>
	<path fill="#FFFFFF" d="M563.6,205.8c0.6-1.6,0.5-3.7,2.7-4.2l-0.1-0.1c-0.2,0.9-0.1,1.8,0.6,2.5
		C565.8,204.9,564.7,205.3,563.6,205.8L563.6,205.8z"/>
	<path fill="#FFFFFF" d="M591,188.5c-1.3,2.4-1.3,2.4-3.6,2.7C588.2,189.7,588.3,187.8,591,188.5z"/>
	<path fill="#FFFFFF" d="M558.5,330c-2,0-3.9,0-5.9,0C554.6,329.2,556.5,328.4,558.5,330z"/>
	<path fill="#FFFFFF" d="M604.2,147.6c0.2,1.8-0.8,2.3-2.4,2.5c-0.5-1.2,0.6-1.8,0.6-2.8C603.2,147.5,603.7,147.6,604.2,147.6
		L604.2,147.6z"/>
	<path fill="#FFFFFF" d="M562.1,229.9c1.1-1.4,2.5-2.4,4.3-2.6C565.3,228.7,563.7,229.4,562.1,229.9L562.1,229.9z"/>
	<path fill="#FFFFFF" d="M587,224.1c1.5,1.9,2.2,3.4,2.5,5.1C588.3,227.9,587.5,226.5,587,224.1z"/>
	<path fill="#FFFFFF" d="M639.4,156.6c-0.8-1.3-0.7-2.3-0.9-3.5C640,153.9,640,154.9,639.4,156.6z"/>
	<path fill="#FFFFFF" d="M559.9,205.7c0.5-1,0.9-2,1.5-3.2c1.1,1.5-0.1,2.4-0.2,3.4l0.1-0.1C560.8,205.7,560.3,205.6,559.9,205.7
		L559.9,205.7z"/>
	<path fill="#FFFFFF" d="M649.2,137.1c-2.2,0.3-2.2-0.6-1.9-1.8C648.5,135.2,648.5,136.2,649.2,137.1z"/>
	<path fill="#FFFFFF" d="M572.7,370.2c0.7,1.3,0.2,2.5,0.2,3.7C572.5,372.7,572,371.6,572.7,370.2z"/>
	<path fill="#FFFFFF" d="M650.1,169.6c-1.7,0.1-2.4-1.3-3.9-2.6C648.5,167.2,648.8,169,650.1,169.6L650.1,169.6z"/>
	<path fill="#FFFFFF" d="M638,161.9c-1.3-0.8-1.6-1.9-0.9-3.6C637.4,159.7,637.7,160.8,638,161.9z"/>
	<path fill="#FFFFFF" d="M648.9,157.7c1.1,1.5,1.1,2.4,0.7,3.7C649,160.2,648.5,159.3,648.9,157.7z"/>
	<path fill="#FFFFFF" d="M645.3,149.4c0-0.9,0-1.8,0-2.8c0.1,0,0.2,0,0.3,0c-0.1,0.9-0.1,1.8-0.2,2.7
		C645.4,149.4,645.4,149.4,645.3,149.4z"/>
	<path fill="#FFFFFF" d="M620.9,121.2c0.8-0.5,1.3-0.3,1.7,0C621.9,122.4,621.9,122.4,620.9,121.2z"/>
	<path fill="#FFFFFF" d="M649,121c0.6,0.4,1.3,0.9,1.3,1.7c-0.7,0.4-1-0.2-1.2-0.6C648.9,121.8,648.5,121.5,649,121z"/>
	<path fill="#FFFFFF" d="M611.2,138.8c-0.8,1-1.3,1.2-2,1C609.6,139.3,610.1,139,611.2,138.8z"/>
	<path d="M549.7,175.5c-0.8,1.1-0.8,1.1-2.1-0.7c0.3-0.5,0.8-0.2,1.2-0.2C549.2,174.9,549.5,175.2,549.7,175.5z"/>
	<path fill="#FFFFFF" d="M413.4,246.3c-1.5-0.2-1-1.1-1.3-1.9C413.1,244.9,413.1,245.6,413.4,246.3z"/>
	<path fill="#FFFFFF" d="M635.8,128.1c-0.2,0.8-0.6,0.9-1.3,0.5C634.8,128,635.1,127.5,635.8,128.1z"/>
	<path fill="#FFFFFF" d="M650.4,131.9c-0.6-0.5-1.1-1-1.4-2.1c1.1,0.3,1.5,1,1.8,1.8C650.6,131.7,650.5,131.8,650.4,131.9z"/>
	<path fill="#FFFFFF" d="M511.3,402.4c-0.7-0.4-1.2-0.8-0.5-1.6C511.9,401.2,511.6,401.8,511.3,402.4z"/>
	<path fill="#FFFFFF" d="M640.8,148.6c0.8,0.2,0.7,0.7,0.4,1.2C640.6,149.6,640.2,149.3,640.8,148.6z"/>
	<path fill="#FFFFFF" d="M636.2,150.9c0.4,0.5,0.4,0.9,0.1,1.3C635.1,151.9,635.6,151.5,636.2,150.9z"/>
	<path fill="#FFFFFF" d="M563.5,205.8c-0.7,1.1-1.5,1.1-2.2,0l-0.1,0.1C562,205.8,562.8,205.8,563.5,205.8L563.5,205.8z"/>
	<path fill="#FFFFFF" d="M333.7,351.1c-0.1,0.8-0.6,1-1.3,1.2C332.4,351.4,332.9,351.1,333.7,351.1z"/>
	<path fill="#FFFFFF" d="M634.5,146.7c-0.1-0.1-0.3-0.2-0.3-0.4c-0.1-0.4,0.2-0.6,0.5-0.6c0.1,0,0.4,0.2,0.4,0.3
		C635.2,146.4,634.9,146.6,634.5,146.7z"/>
	<path fill="#FFFFFF" d="M650.7,131.6c0.3,0.4,0.7,0.9,1.1,1.4c-1.1,0.2-1.2-0.6-1.4-1.1C650.5,131.8,650.6,131.7,650.7,131.6z"/>
	<path fill="#FFFFFF" d="M641.1,123.3c-0.4-0.2-0.8-0.5-0.3-1c0.1-0.1,0.5-0.1,0.6,0C641.8,122.8,641.5,123,641.1,123.3z"/>
	<path fill="#FFFFFF" d="M663.2,162c0-1.1,0-1.5,0-1.9C664.1,160.4,663.7,160.9,663.2,162z"/>
	<path fill="#FFFFFF" d="M650,169.6c0.3,0.6,0.6,1.2,0.9,1.9C649.2,171.3,650.2,170.2,650,169.6L650,169.6z"/>
	<path fill="#FFFFFF" d="M844.7,494.8c-0.5,0-1.1-0.2-1.5,0.7c0.7,1.5,2.3,2.1,3.5,3.5c-3.6-1.6-7.6-0.6-11.1-2.3l0.1,0.1
		c0.9-1.1,1.9-0.2,2.8-0.1c1.3,0.1,2.4-0.3,3.8-1.2c-1.9-1.1-3.7-0.8-5.6-1.1c-2.5-7.1-4.7-14.3-6-21.7c-0.5-2.7-1.7-5.2-3.2-7.5
		c-5.1-7.9-10-16-14.2-24.4c-6.4-13-11.7-26.4-15.7-40.4c-1.4-4.8-3.4-9.5-4.7-14.5c8.9-5.8,18.2-10.2,28.8-11.5
		c2.3-0.3,4.5-1,6.7-1.6c12.5-3.4,25.1-4.1,37.9-1.6c1.3,0.3,2.7,0.5,4,1.6c-2,2.5-6.2,2.6-7.2,7c3.3-2.4,6.9-3.3,9.3-6.3
		c4.2,0.9,8.1-1,12.1-2.3c3.8-1.2,7.7-1.2,11.6-0.3c4.1,0.9,8.2,1.9,12.4,2.9c-3.1-3.6-7.9-3.4-12.7-5.4c8.5-1.8,16.1-4.7,23.9-1.4
		c-0.2,0.1-1-0.4-1.7,0.5c3.1,0.6,6.1,1.3,9.5,2.5c-2.3,1-4.3,1-6.2,1.4c-2,0.4-4.1,0.8-6.1,2.2c-0.7,4.7-0.5,9.2,3.1,13.2
		c2,2.2,3.7,4.8,4.8,7.5c0.8,1.9,2.4,3.8,0.9,6.1c-0.1,0.2,0,0.7,0.1,1c2.5,7.8,1.4,16,3.4,23.9c0.7,2.6,1.4,5,3,7.1
		c-3.6,9.6-10.1,16.1-19.6,19.6c-4.8,1.8-9.5,4.1-14.4,5.5c-1.6-0.7-2.3-2.1-3.3-3.2c-5.1-5.3-10.9-8.8-18.6-7.9
		c-1.9,0.2-3.7,0.1-4.3-2.4c-0.3-1.4-2.5-1.6-2.6-3.8c3.8,0.3,7.6,0.7,11.1-0.8c0.6,1-0.6,1.6,0,2.7c1.9,0.2,2.3,2.4,3.8,4.2
		c0.4-2.9,0.6-5.4,0.2-8.1c5.1-3.2,10.1-6.4,14.7-10.2c3.7-3,7.3-6,10.8-9.1c2.9-2.5,5.3-5.4,7.1-8.9c1.1-2.2,2.2-4.3,1.1-6.9
		c-0.4-1,0.1-2,0.3-3c1.1-5.6-0.2-10.7-2.9-15.6c-2.6-4.6-6.1-8.3-10.6-11c-0.4-0.3-0.8-0.3-1.5,0c-0.5,1.4,0.6,2.1,1.5,2.5
		c6.1,3.2,7.8,9.4,9.8,15.2c1.1,3.2,1.6,6.5,1.6,9.9c0,3.5-0.6,6.8-2.8,9.7c-8,10.5-18.8,17.6-30,24c-2.1,1.2-4.9,2-7.6,2.3
		c-2.8,0.3-5.5-0.3-8-0.6c-1.7-1.3-0.5-3.9-2.7-4.8c-1.7,1.2,0.2,2.9-0.7,4.2c-1.3,0.5-2.4,0.4-3.2-0.9c-3.5-5.9-2.1-12.2,2.5-16.2
		c0.9-0.8,1.9-0.7,2.9-0.9c2.4-0.4,4.8-0.7,7.1-1.2c1.1-0.3,2.5-0.5,3.2-2.1c-3-0.8-5.7-0.4-8.4,0.2c-2.5,0.5-5.1,1.4-7.6-0.5
		c-0.5-0.4-1.6-0.2-2.4-0.2c-5.6,0.2-11-1.1-16.1-3.3c-1.6-0.7-3.2-1.3-5-0.8c0.4,1.8,2.3,1.8,3.5,3.1c-1.3,0.7-2.6,1.3-3.9,1.9
		c-1.1-2.9,0.4-5.8-1.1-8.2c-1.2-1.8-2.6-3.5-4.7-4.7c-0.6,1.8,0.4,2.9,1.3,3.8c1.9,1.9,1.8,4.2,1.6,6.4c-1,8,0.1,15.6,3,23
		c0.8,2,0.2,4,0.9,6c2.1,6.6,5.8,12.5,8.8,18.7c1.2,2.5,4.4,3.4,5.5,6.4c-3.2,10.8-3.3,21.9,1,33.3
		C848.8,497.9,846.6,496.5,844.7,494.8c0.1-0.2,0.1-0.2,0.1-0.2C844.9,494.6,844.8,494.6,844.7,494.8z"/>
	<path fill="#FFFFFF" d="M886.8,451.3c3.3,1.5,5.5,4.2,7.4,7c9.6,14.3,11.8,29.9,7,46.4c-1,3.4-2.8,6.6-5.1,9.3
		c-5.9,7.2-14.3,8.5-22.2,3.5c-4.3-2.7-7.5-6.5-9.9-10.9c-7.8-14.1-9.5-28.9-4.2-44.2c1.8-5.2,4.9-9.6,9.8-12.5
		c1.3-0.8,2.6-1.5,4.2-0.7c0,0.2,0.1,0.3,0.1,0.5c-2.1,2.5-5.3,3.9-7.1,6.7c-5.2,8-6.8,16.9-6.5,26.3c0.3,10.2,3.2,19.5,9.5,27.6
		c2.5,3.3,5.7,5.5,9.6,6.9c4.6,1.7,8.7,0.6,12.6-2.1c0.8-0.5,1.1-1.4,1.8-2c-0.7,0.5-1,1.5-1.8,1.9c-6.9,5.1-13.9,3.1-19.3-1.9
		c-8.7-8.1-11.8-18.7-12.3-30.3c-0.4-8.3,0.9-16.1,4.7-23.5c5.6-10.8,15-12.4,24-4.1c3.6,3.3,6.1,7.4,7.6,12
		c-1.8-5.5-4.8-10.2-9.6-13.6c-0.8-0.6-0.8-1.3-0.4-2.1C886.6,451.5,886.7,451.4,886.8,451.3z"/>
	<path fill="#FFFFFF" d="M525.9,569.3c1.8-0.7,3-0.4,4.1-0.1c2.2,0.6,4.3,0.5,6.2-1c0.5-0.4,0.9-0.8,1.5-0.6
		c3.8,1.2,7.7-0.3,11.5,0.6c2.2,0.5,4.3,0.2,6.5,0.2c0,0.2,0.1,0.6,0,0.6c-4.2,2.9-5.8,7.7-8.4,11.7c-1.9,2.9-0.3,9.3,2.8,11.7
		c3.2,2.4,6.9,3,10.8,3c2.5,3.3,5.3,5.8,10.2,3.4c-1.4,2.3-2.9,3.4-3.7,5.3c-5-1.4-9.8-3-15.1-1.9c3.2,3,7.5,3.8,11.4,5.3
		c-4.3,0.2-8.6,0-13.1-0.8c1.4,3.3,3.8,4.4,12,5.4c-1.6,2.5-4.1,2.1-6.3,2.1c-2.2,0.1-4.5-0.2-7.2,0.6c3.3,3.1,6.9,3,10.8,2.7
		c-0.8,3-3.2,1.8-4.8,2.3c-1.9,0.6-3.7-1.1-5.8-0.6c0.5,2.6,4.6,1.9,3.8,4.8c1.5,0.8,2.1-0.3,3.2-1c-0.4,3.3,1.6,4.2,4.4,4.6
		c0.4,1.9,1.5,3.2,3,4.6c2.5,2.3,4.4,5.2,3.5,9.2c-2.8,0.4-5.4,1-8,1.1c-9.7,0.1-18.9-1.4-27-7.3c-6.4-4.7-7.8-11-6.5-18.3
		c0.5-2.9,1.2-5.9,1.7-8.8c1.2-6.2-1.5-11.7-2.7-17.6C523.3,583.2,524.1,576.2,525.9,569.3z"/>
	<path fill="#FFFFFF" d="M835.6,496.8c0.8,3.4,3.4,4.6,6.7,4c2.6-0.5,5.4-0.1,8-0.1c2.7,11.1-5.7,25.1-16.2,27.5
		c-5,1.1-9.3-0.7-13.2-3.6c-6.6-4.9-10.4-11.9-12.9-19.5c-3.8-11.7-4.2-23.5,0.2-35.2c2-5.4,5.4-9.9,11-12.8
		c5.5,7.7,11.6,15.1,10.7,25.5c-3.5,0.9-5.3,2.8-5.8,6.1c-0.5,3.7,1.1,7,4.4,8.6C830.8,498.3,833.3,497.8,835.6,496.8L835.6,496.8z"
		/>
	<path fill="#FFFFFF" d="M943.4,451.9c-0.8-1.5-1.8,0.3-2.8-0.1c-0.3-0.6-0.7-1.3-1-2c0.8-1.9,3.4-2.1,4-4c-0.7-1-1.4-0.5-1.9-0.1
		c-10.8,8.7-23.9,12.7-36.4,17.8c-1.6,0.6-3,1.2-2.1,3.9c11.8-5.4,24-9.5,35-16.4c-0.6,1.7-2.7,1.6-3.7,3c0.9,1,2-0.4,3,0.5
		c1.5,3,1,7.2,4.7,9.3c-11.7,7.4-24.2,11.8-37.6,15.3c-1.4-6.8-3.4-13.4-7.3-19.4c3.9-2.2,7.8-2.9,11.3-2.9
		c5.9-2.8,12.2-4.8,15.4-11.4c1.4,2.8,1.7,5.4,4.5,7.3c-0.7-3.3-3.1-5.4-2.8-8.6c1.6-1.5,3.1-3.2,4.1-5.3c3.3-7.3,10-9.4,16.9-10.8
		c2.8-0.6,5.7-0.7,8.5-1.5c4.2-1.3,8.7,0.5,12.5-1.2c5.6,2.8,6,8.8,9.2,13.1c-4.9,2-10.2,1.6-15.6,3.7c3.2,0.7,5.8-0.4,8.9-0.2
		c-2.9,2.1-5.7,3-8.4,4.4c-1,0.2-1.2-1.6-2.4-0.8C954.5,448.6,948.9,450.3,943.4,451.9L943.4,451.9z"/>
	<path fill="#FFFFFF" d="M861.2,567.4c-10.1-2.6-20.3-2.4-30.5-1.6c-3.4,0.3-6.7,0.1-10-0.5c-6.9-1.3-13.9-1.8-20.9-2.3
		c-7.9-0.5-15.7-2-23.6-2.8c-6.5-0.7-13-0.9-19.5-1.4c-2.2-0.2-4.3-0.4-6.4-0.6c-1.4-3.2-0.1-7.2-3.3-9.6c3-0.9,3-0.8,6.2-0.6
		c1,0.1,2.1-0.2,3-0.6c7-2.3,14.1-1.7,21.2-1.2c0.4,0,0.8,0.3,1.2,0.9c-7,0.3-14,0.6-21,0.9c11.8,1.3,23.6,0.9,35.5-0.4
		c-0.4,0.5-1.3,0.1-1.4,1c0.2,1.1,1.2,0.7,1.9,0.8c14.4,0.8,28.6,2.9,43,3.5c3.6,0.1,6.4,2.4,9.5,3.9c4.9,2.3,9.2,5.7,13.7,8.7
		C860.3,565.9,861.3,566.4,861.2,567.4L861.2,567.4z"/>
	<path fill="#FFFFFF" d="M800.5,530.9c3.9-1.7,7.3-3.1,10.9-4.7c4.3,3.6,9.1,5.9,14.8,5.9c0.4,0,0.9,0.2,1.3,0.5
		c6.3,4.8,13.7,7.4,20.4,11.6c3,1.9,5.8,4.1,8.6,6.3c2.6,2.1,5,4.8,8.8,4.8c0.2,0,0.4,0.2,0.6,0.4c7,4.7,15.2,7.1,22.5,11.1
		c2.9,1.6,5.6,3.7,7.8,6.2c3,3.4,3,4-0.8,8.1c-3.2,0.8-6.2-0.1-9.1-1.5c-4.1-2-8.1-4.3-12.2-6.4c-5.1-2.6-9.1-6.7-13.8-10
		c-5.5-3.9-11.2-7.5-17.3-10.4c-3-1.4-6.1-2.8-8.7-4.9c-5.9-5-13-7.6-20.1-10.3C809.6,535.8,805.2,533.6,800.5,530.9z"/>
	<path fill="#FFFFFF" d="M804.1,428.4c0.5,1.4,1.2,2.7,1.3,4.3c-0.9,0.8-2.2,0.6-3.1,1.3c0.9-0.7,2.2-0.4,3.1-1.4
		c3.1,7.7,9.2,13.7,11.9,21.8c-5.2,2-9.8,4.9-13.2,9.5c-3.3,4.5-5.1,9.7-6.4,15.4c-2.6-3.5-1.7-7.1-2.1-10.5c-2-0.1-2.6,1.3-2.1,2.6
		c0.7,1.9,0.2,3.8,0.4,5.6c0.2,1.7,1.3,3.3,2.3,5.6c-3.9-3.1-6.2-6.6-7.5-10.4c-2-6.2-4.2-12.4-4.5-19.1c-0.2-3.6-0.8-7.3,0.3-10.9
		c0.9-3,3-4.5,5.6-5.6C795.2,434.6,799.6,431.3,804.1,428.4L804.1,428.4z"/>
	<path fill="#FFFFFF" d="M854.9,417.6c-1.1,3.1-2.1,6.1-2.7,9.1c-0.6,3.3-0.3,6.6-0.5,9.8c0.6,1.3,1.8,0.5,2.4,1
		c1,2.6,2.1,5.1,5.5,6.7c-1.4-3.5-2.8-6.2-5.1-8.7c0.5-2.8-1.6-6,1.1-9.6c-0.6,3.4,0.6,5.9,0.9,8.6c0.2,1.8,1.6,2.7,3.1,3.3
		c1.3,0.5,2.7,0.4,3.6,0.6c3.9,1.4,2.5,6.3,6.4,7.8c-9.2,2.9-14.6,9.4-18.4,18.2c-1-3.2-3.7-4.5-5-6.9c-3.4-6-6.2-12.3-7.3-19.2
		c-1-6.5-3.3-12.7-3.7-19.2c3.6-3.6,6.8-5,9.5-4.1c-1.1,2.2-3.2,3.9-3.4,6.9c2.7-1.8,4-4.4,6.1-6.4C850,416,852.5,416,854.9,417.6z"
		/>
	<path fill="#FFFFFF" d="M922.8,477.6c1.4,0.2,1.6,1.6,2.2,2.6c3.2,5.5,6.9,10.5,13.2,13c4.8,2,8.8,0.4,13.3-2.2
		c-2.3-0.9-3.6,0.8-4.9,1.3c-4.6,1.7-8.5,0-11.9-2.4c-4.6-3.2-7.4-8.1-9.7-13.3c5.6-2.6,11.6-3.9,16.9-6.9c0.7-0.4,1.3,0.1,2,0
		c1.8,0,4.1,0,5-1.7c1.8-3.5,5.3-3.5,8.3-5c0.4,1.8,0.8,3.5,1.2,5.5c0.9-1.5,0.4-2.7,0.5-3.8c0.1-0.8-1.4-2.3,1.1-2.5
		c1.3,9.4,0.6,18.4-4.7,26.5c-5.1,7.7-13.2,9.3-21,4.5c-5.5-3.5-9.1-8.7-11.8-14.5C922.2,478.3,922.3,478,922.8,477.6z"/>
	<path fill="#FFFFFF" d="M769,562.3c-4.8,4.3-8.9,9.4-15.4,11c-2.7,0.7-5,2.2-6.5,3.4c-12.4-0.6-24.2,0.5-35.8-2
		c-0.3-1,0.8-1.1,1.3-1.5c5.2-3.9,11.2-6.9,15.6-11.8c0.6-0.6,1.4-0.9,2.2-0.8c2.2,0.2,4-0.7,6.1-2.5c-0.4,2,0.6,2.4,1.9,2.7
		c3.2,0.7,6.4,1.1,9.6,0.6C755,560,761.8,562.3,769,562.3z"/>
	<path fill="#FFFFFF" d="M757.7,536.6c0.2-4.5,3.4-6.7,6.5-9c2-1.5,3.7-2.9,4-5.6c0.2-2.3,2.2-4.1,4.2-4.7c8.4-2.5,16-6.9,24.2-10
		c0.8-0.3,1.7-0.8,2.8-0.6c1.5,3.5,2.8,7.1,4.7,10.4c-6.9,5.7-15.5,7-23.1,10.4C773.4,530.8,765.5,533.6,757.7,536.6z"/>
	<path fill="#FFFFFF" d="M805.7,519.7c1.4,1.7,2.6,3.3,4.3,5.3c-8.8,2.5-15.9,8.2-24.3,10.9c-9.1,2.9-17.8,6.9-27.1,9.1
		c-2.8,0.7-5.4,1.5-8,0.5c2.1-5,6.7-6.8,11.3-8.4c12.8-4.6,25-10.5,37.8-14.9C801.7,521.4,803.2,519.9,805.7,519.7z"/>
	<path fill="#FFFFFF" d="M878.9,522.1c-6.4,0.7-11.5-1.9-15.8-6.3c-7-7.2-10.4-16.2-12-25.9c-1.4-8.5-0.9-17,2.1-25.2
		c2.2-6,5.7-11,11.7-13.8c-4.9,5.5-7.7,12-8.8,19.2c-2.1,13.8,0.1,26.8,7.4,38.8C867.1,514.9,872.1,519.6,878.9,522.1z"/>
	<path fill="#FFFFFF" d="M813.1,458.6c-15.3,17-10.6,46.5,0.2,60.7c3.6,4.6,7.8,8.4,13.6,10.2c-4.7,1-9.3-0.4-13.4-3.9
		c-5.2-4.4-8.8-10-11.2-16.3c-4-10.6-5.1-21.4-2.4-32.5c1.6-6.6,4.5-12.6,10.3-16.7c0.7-0.5,1.3-0.9,2-1.3
		C812.5,458.6,812.7,458.3,813.1,458.6z"/>
	<path fill="#FFFFFF" d="M903,573.2c-1-6.4-6.4-7.9-11.4-9.5c-5.4-1.7-10.7-3.4-15.2-7c-0.3-0.2-0.5-0.5-1-1.1
		c5.7,0.8,10.8,2.3,16.2,2.4c5.3,0.1,10.5,2,15.8,1.1c0-0.3,0.1-0.6,0.1-0.8c-6.8-0.9-13.6-1.6-20.4-2.6c-6.8-1-13.8-1-20.1-4.3
		c14.3,3.2,28.8,5,43.4,6.1c1.2,5.6-0.9,10.9,0.9,16.4C908.3,573.6,905.8,573.4,903,573.2z"/>
	<path fill="#FFFFFF" d="M829.2,547.6c-12.1,0-24.2-1.1-36.7-1.9c2.6-4.5,6.3-7.8,8.5-12.6c4.6,2.7,8.9,5.2,13.5,7.2
		c2.1,0.9,4.2,2,6.4,2.5C824.2,543.5,826.7,545.3,829.2,547.6z"/>
	<path fill="#FFFFFF" d="M943.3,451.8c0.9,1,1.9,0.8,3.1,0.5c3.5-1,6.9-2.4,10.4-3.8c1,2.2,2.2,4,2.8,6.1c0.7,2.2,3.1,1.8,4.8,3.1
		c-5.5,2.8-10.6,5.4-16,7c-2.4,0.7-4.5,2-6.6,3.3c-4.4,2.6-9.2,4.2-14,5.6c-0.1-0.1-0.2-0.2-0.3-0.3c5.3-2.8,10.6-5.5,16.1-8.4
		c0.8-4-2-7.3-2.5-11.4C941.3,452.4,942.7,452.7,943.3,451.8L943.3,451.8z"/>
	<path fill="#FFFFFF" d="M789.9,545.3c-7.4,1.1-13.6-1.2-20.1-1.2c9.5-5.3,20.5-6.8,30.1-12.3C796.8,536.9,793.3,541.4,789.9,545.3z
		"/>
	<path fill="#FFFFFF" d="M678,542.9c-0.9,5-3.5,7.5-8.4,7.9c-5.3,0.5-10.5,0.9-15.9,0.3c4.3-3.9,8.9-7.4,14.9-9.7
		C671.2,541.9,674.5,542.4,678,542.9z"/>
	<path fill="#FFFFFF" d="M557.8,571.4c-0.2,4.2-0.5,7.9-0.5,11.5c0,3.7,1.4,7,3.6,10.1c-0.2,0.1-0.4,0.2-0.6,0.4
		c-2.7-1.3-5.5-2.6-8.2-3.8c-2.5-1.2-3.1-3.5-3.8-5.9c-0.2-0.7,0-1.4,0.5-1.9c2.1-1.9,3.2-4.4,4.2-7
		C553.7,573.1,555.5,572.2,557.8,571.4z"/>
	<path fill="#FFFFFF" d="M881.2,551.7c-4-0.2-7.9-0.6-11.2-3.1c-4.1-3.1-8.4-6-13-8.4c-4.4-2.2-7.4-6.3-12-8.3c-2-0.9-4.3-1.4-6.1-3
		c2.4-1.8,5.4-1.7,8,0.7c7.7,7.1,16.9,11.9,25.8,17.1C875.5,548.4,878.2,550.3,881.2,551.7z"/>
	<path fill="#FFFFFF" d="M833.4,530.9c1.5-1.2,2.7-1.4,4.1-0.8c4.6,2,9.2,4.1,13.1,7.4c3.2,2.7,6.7,4.8,10.4,6.6
		c2.8,1.4,5,3.5,7.7,5.8c-3.9,0.3-6.7-1.2-9.2-3.2c-5-4-10.5-7.2-16.2-10.2C840,534.8,836.8,532.8,833.4,530.9z"/>
	<path fill="#FFFFFF" d="M916.8,480.7c1.2-1,2.3-1.4,3.8-1.9c4.3,8.4,9.6,15.7,19.3,18.6C931.2,499.3,921.6,491.8,916.8,480.7z"/>
	<path fill="#FFFFFF" d="M830.1,532.1c2.9-0.2,4.9,1.4,7.1,2.6c5.9,3.2,11.8,6.7,17.6,10.1c2.6,1.6,4.3,4.3,7.2,5.7
		c3.1,1.5,5.9,3.5,9.1,4.8c1.3,0.5,2.9,0.9,3.2,2.7c-1.4,0.6-2.3-0.3-3.3-0.8c-4.6-2.6-9.2-5.2-13.7-7.9c-2.8-1.6-4.7-4.3-7.5-6.1
		c-4.9-3.1-10.1-5.4-15.1-8.3C833.1,534,831.6,533,830.1,532.1z"/>
	<path fill="#FFFFFF" d="M958.8,423.7c2.4-3.9,4.4-7.2,6.5-10.7c1.7,2.1,2.5,4.9,4.9,6.2c0.4,1.3,0.4,2.4-0.2,3.7
		C966.5,423.1,962.9,423.4,958.8,423.7z"/>
	<path fill="#FFFFFF" d="M831,484.7c1.1,3.2,1.3,6.5,2.9,9.2c-1,1.4-2.3,1.6-3.7,2c-2.3-1.8-4.4-3.9-3.9-7.3
		C826.7,486.3,827.9,484.6,831,484.7z"/>
	<path fill="#FFFFFF" d="M960.1,417.1c-0.3,2.6-2.7,4.1-2.9,6.6c-3.6,0.6-6.9,1.9-10.9,1.9c1.1-1.3,2.5-1.5,3.5-2.3
		c1.9-1.4,4.1-2.5,5.3-4.7C956.2,416.8,957.8,416.2,960.1,417.1z"/>
	<path fill="#FFFFFF" d="M923,475.7c-5.6,3-11.4,5.7-17.4,8c-1.4-1.9-0.3-2.5,1.1-3.1c5.2-2.3,10.6-3.7,16-5.2
		C922.8,475.4,922.9,475.5,923,475.7z"/>
	<path fill="#FFFFFF" d="M797.3,497.9c0.8,2.3,1.1,4.1,1.2,6.3c-3.4,0.9-6.5,3.1-10.3,3.5C791.9,505.2,795.1,502.3,797.3,497.9z"/>
	<path fill="#FFFFFF" d="M796.2,548.2c10.6,0.3,21.3,0.9,31.8,2.3C817.4,550.8,806.8,548.9,796.2,548.2z"/>
	<path fill="#FFFFFF" d="M982.6,372.1c-0.9,3.5-3.3,3.3-5.9,3c0.3-1,0.9-2.1-0.2-3.3c-0.6,1.1-1.3,2.4-2.9,2
		C974.2,370.8,974.2,370.8,982.6,372.1z"/>
	<path fill="#FFFFFF" d="M783.7,510.1c-2.7,2.3-5.6,3.2-8.7,4.2c2.2-1.6,2-3.9,2.2-6.5C779.4,508.6,781.4,509.3,783.7,510.1z"/>
	<path fill="#FFFFFF" d="M745.7,558.1c-2.5-0.2-4.6-0.4-7.4-0.6c2.3-2.2,4.8-3.3,6.9-6C745.4,554,745.6,555.8,745.7,558.1z"/>
	<path fill="#FFFFFF" d="M788.9,429.4c3.2-1.8,6.7-0.9,10.2-1.5C795.9,431.4,794,431.6,788.9,429.4z"/>
	<path fill="#FFFFFF" d="M890.4,565.3c4.3,0.7,7.6,2.8,9.7,6.6C897.5,568.7,893,568.3,890.4,565.3L890.4,565.3z"/>
	<path fill="#FFFFFF" d="M873.8,449.2c0.3-1.6,1.6-1.3,2.7-1.4c3.9-0.3,7.3,1.2,10.4,3.4v-0.1c-0.7,0.6-1.5,1.2-2.4,0.8
		c-3-1.4-6.1-2-9.4-1.9C874.5,450.1,874,449.7,873.8,449.2L873.8,449.2z"/>
	<path fill="#FFFFFF" d="M959,415c1-1.5,1.2-3.7,3.9-2.7C961.9,413.7,961.6,415.8,959,415z"/>
	<path fill="#FFFFFF" d="M960.9,453.1c-0.8-1.6-1.7-3.3-2.5-4.9C960.1,449.3,960.7,451,960.9,453.1z"/>
	<path fill="#FFFFFF" d="M890.4,565.2c-1.7,0.8-2.9,0-4.4-1C887.8,563.9,889.1,564.5,890.4,565.2L890.4,565.2z"/>
	<path fill="#FFFFFF" d="M1017,373.5c0-1.1,0-2.2,0-3.4c0.2,0,0.3,0,0.5,0c-0.1,1.1-0.2,2.2-0.3,3.4
		C1017.1,373.5,1017.1,373.5,1017,373.5z"/>
	<path fill="#FFFFFF" d="M927.7,473.5c-1.4,1.1-3.1,1.7-4.8,2.1c-0.1-0.1-0.2-0.2-0.3-0.3c1.5-1,3.1-1.5,4.8-2.1
		C927.6,473.3,927.6,473.4,927.7,473.5z"/>
	<path fill="#FFFFFF" d="M932.3,429.1c0.1-1-0.1-2.1,1.2-2.7C934,427.8,933.5,428.6,932.3,429.1z"/>
	<path fill="#FFFFFF" d="M1023,356.5c-1.2-0.9-1.9-1.6-2.1-3.2C1021.9,354.4,1022.8,355,1023,356.5z"/>
	<path fill="#FFFFFF" d="M1021.6,385.4c-0.9-1.4-1.1-2.3-1.1-3.4C1022,382.6,1021.6,383.7,1021.6,385.4z"/>
	<path fill="#FFFFFF" d="M1020.7,360.8c-1.7,0.4-1.9-0.5-1.7-1.8C1020.1,359.1,1020.5,359.8,1020.7,360.8z"/>
	<path fill="#FFFFFF" d="M1020.9,393.2c-1.2-0.9-2-1.2-2.4-2.2c0.2-0.1,0.4-0.4,0.5-0.3C1020,391.1,1020.4,391.8,1020.9,393.2z"/>
	<path fill="#FFFFFF" d="M1010.5,376.8c1.2,1,1.3,1.8,0.6,3C1010.5,378.9,1010.4,378,1010.5,376.8z"/>
	<path fill="#FFFFFF" d="M704.5,575.7c0.6-1.1,1.1-1.7,2.3-1.8C706.4,574.7,705.9,575.3,704.5,575.7z"/>
	<path fill="#FFFFFF" d="M1008.5,381.3c0.9,1.5,0.6,2.3,0.7,3.2c-0.9-0.2-0.8-0.8-0.8-1.3C1008.4,382.8,1008.5,382.3,1008.5,381.3z"
		/>
	<path fill="#FFFFFF" d="M1022.2,346.8c-1.3-0.2-1.4-1-1.7-1.9C1021.6,345.1,1021.9,345.8,1022.2,346.8z"/>
	<path fill="#FFFFFF" d="M997.8,348.5c-0.2,1-0.9,1.2-1.9,1.5C996.2,348.9,996.8,348.6,997.8,348.5z"/>
	<path fill="#FFFFFF" d="M978.1,355.8c-0.2,0.7-0.7,1-1.4,1.1C976.7,355.9,977.2,355.6,978.1,355.8z"/>
	<path fill="#FFFFFF" d="M785,470.1c-0.9-0.2-1.1-0.8-1-1.6C785,468.7,784.9,469.5,785,470.1z"/>
	<path fill="#FFFFFF" d="M999.6,340.8c-0.8,0.4-1.1-0.2-1.6-0.3C998.8,339.9,999.1,340.3,999.6,340.8z"/>
	<path fill="#FFFFFF" d="M875.9,559.4c1.2-0.3,1.4,0.5,2.2,0.6C877.1,560.6,876.7,559.9,875.9,559.4z"/>
	<path fill="#FFFFFF" d="M981.6,363.2c0.5-0.5,1-0.3,1.8-0.1C982.6,363.4,982.1,363.6,981.6,363.2z"/>
	<path fill="#FFFFFF" d="M982.3,370.6c-0.7,0.4-0.9-0.4-1.7-0.4C981.5,369.7,982,369.8,982.3,370.6z"/>
	<path fill="#FFFFFF" d="M979.1,360.3c0.3-0.2,0.5-0.4,0.8-0.6C980.2,360.6,979.8,360.6,979.1,360.3z"/>
	<path fill="#FFFFFF" d="M1006,370.4c-0.1-0.8,0.1-1.1,0.7-1.1C1007.2,369.9,1007,370.3,1006,370.4z"/>
	<path fill="#FFFFFF" d="M992.7,345.2c0.7-0.6,1.2-0.4,1.8-0.1C994,346.3,993.5,346.4,992.7,345.2z"/>
	<path fill="#FFFFFF" d="M1026.3,359.9c0.5,0.8,0.4,1.1-0.1,1.4C1025.7,360.9,1026,360.5,1026.3,359.9z"/>
	<path fill="#FFFFFF" d="M1008.2,374.8c0.2,0.6,0.3,1.1-0.2,1.3c-0.1,0.1-0.5-0.1-0.5-0.3C1007.1,375.2,1007.5,375,1008.2,374.8z"/>
	<path fill="#FFFFFF" d="M988.2,376.1c-0.2,0.2-0.4,0.3-0.7,0.5C987.1,376,987.6,376,988.2,376.1z"/>
	<path fill="#FFFFFF" d="M1035.1,385.2c-0.4-0.8-0.3-1.2,0-1.7C1035.7,384.1,1035.6,384.6,1035.1,385.2z"/>
	<path fill="#FFFFFF" d="M1011.7,364.6c-0.7-0.2-0.9-0.6-0.4-1.3C1012.1,363.5,1012.1,364,1011.7,364.6z"/>
	<path d="M494.4,290c-0.5-0.1-1.1-0.3-1.9-0.5c0.1,4.5,0.6,8.7,1.2,13c0.9,6.9,1.5,13.8,2.8,20.6c0.9,4.4,2.6,8.8,4.8,12.8
		c0.5,0.9,1.3,1.8,1.1,3c-1.1,0.2-1.1-0.4-1.4-0.9c-3-6.4-6.4-12.7-6.8-20c-0.1-1.4-1.3-2.8-1.3-4.2c-0.1-7.8-2.7-15.3-2.3-23.1
		c0.1-2.3-0.7-4.3-0.7-6.4c-0.1-5.2-0.6-10.6,3.1-15.1c1.4,0.3,1.5,1,1.3,1.9c-0.2,0.7-0.4,1.3-0.6,2c-2,5.1-3.2,10.1,0.4,15
		C494.5,288.7,494.5,289.4,494.4,290L494.4,290z"/>
	<path d="M491.8,226.4c1.6,1.3,1.6,1.3,2,11.4c5,2.8,7.7,7.1,6.2,13.2c-0.9,0-1.2-0.5-1.2-0.8c-0.1-4.4-3.7-7-5.7-10.3
		c-1.3-2-1.9-3.9-1.8-6C491.5,231.5,491.1,229,491.8,226.4z"/>
	<path d="M531.2,225.9c-0.7-0.5-1.2-1-1.2-2.4c5.1-2,10.3-4.2,14.4-8.7C543.5,220,537.2,225.1,531.2,225.9L531.2,225.9z"/>
	<path d="M504.4,205.6c-6.1-4.3-5.7-10.7-5.9-17c1.6-0.4,1.9,0.6,2,1.4C501,195.4,502.3,200.6,504.4,205.6z"/>
	<path d="M512,231.9c3.7,2.8-0.7,6.9,2.3,9.7c-0.9,2.6-3.3,4.6-2.9,7.6c0.1,0.8-0.9,1.7-2.7,1.9C512.7,245.1,512.2,238.5,512,231.9z
		"/>
	<path d="M423.9,245.2c-0.5,4.6,0.6,8.8,2.4,12.8c-1.8,0.6-2.1-0.2-2.6-0.8c-2.6-3.1-1.1-7-2.1-10.4
		C421.4,245.8,422.2,244.9,423.9,245.2z"/>
	<path d="M515.7,211.6c1.4-6.7,2.7-13.3,4.1-20c0.5,3-2.1,17.2-3.3,20.1C516.2,211.7,515.9,211.6,515.7,211.6z"/>
	<path d="M494.3,290.1c0.6,0,1.2,0,1.6,0.5c2.5,3,4,6.6,5,10.4C498.3,297.5,494.5,294.8,494.3,290.1L494.3,290.1z"/>
	<path d="M544.2,193.4c-2.9-4.5,0.2-8.9-0.8-13C545.5,181.4,545.7,183.6,544.2,193.4z"/>
	<path d="M438.3,208.2c-3.9,1.5-7.8,3.2-12.1,3.3C429.7,208.4,434.1,208.9,438.3,208.2z"/>
	<path d="M484.4,304.2c1.3,5,1.8,10.1,3.2,15.2C485.5,317.9,483.6,309.3,484.4,304.2z"/>
	<path d="M476.4,189.2c-1.4,3.5-3.8,6.2-6.5,8.9C470.1,194.6,472.6,190.9,476.4,189.2z"/>
	<path d="M506.8,206.7c1.8,3.5,4.3,5.9,5.7,9.3C508.8,214.6,505.3,209.3,506.8,206.7z"/>
	<path d="M532.5,170.4c3.5,1,7.6,4.1,9.7,7.1C538.1,175.4,534.6,173.9,532.5,170.4z"/>
	<path d="M430.3,264.6c3.6-0.5,4.3,3.7,7.1,4.6C434.5,268.7,431.7,267.9,430.3,264.6z"/>
	<path d="M440.9,263.2c3.1,0.9,4.4,3.7,3.7,7.5C442.1,268.7,442.5,265.6,440.9,263.2z"/>
	<path d="M459.1,259.4c3.4,0.5,4,1.4,3.2,5.1C461.5,262.3,460.1,261,459.1,259.4z"/>
	<path d="M485.3,239.5c0.6-2.3,2.6-2.9,2.2-5.1C490.2,236.5,490,236.9,485.3,239.5z"/>
	<path d="M447.9,204.6c-0.8,2.3-2.4,3.3-5.1,3.2C444.1,205.6,446.4,205.6,447.9,204.6z"/>
	<path d="M507.9,183c0.4-2.3,1.5-4.3,3.4-5.8C510.7,179.5,509.3,181.3,507.9,183z"/>
	<path d="M457.1,217.6c-2,1.3-3.7-0.2-5.4-0.2C454.1,216.3,454.4,216.4,457.1,217.6z"/>
	<path d="M452.6,242.5c1.8,0.6,3.1,1.6,3.8,3.4C454.5,245.5,453.5,244,452.6,242.5z"/>
	<path d="M498.9,255.8c-0.1,1.8-0.2,3-1.8,4.4C496.3,258.1,497,257,498.9,255.8z"/>
	<path d="M423.1,243c-1.1-1.3-1.4-2.5,0.3-3.9C424.3,240.5,423.6,241.7,423.1,243z"/>
	<path d="M502.5,307.1c-1.5-1.5-1.4-2.8-1.4-4.6C502.7,304,502.9,305.2,502.5,307.1z"/>
	<path d="M425.7,237.8c-1.1-1-0.9-1.8-0.3-2.7C426.3,236.2,426.3,236.2,425.7,237.8z"/>
	<path d="M499.3,251.8c0.5,1.2,0.5,2.1-0.1,2.9c-0.2,0-0.6,0-0.6-0.1C497.9,253.6,498,252.7,499.3,251.8z"/>
	<path d="M464.9,220.6c1.6-0.5,2.6-0.5,3.6,0.7C467.1,222,466.1,221.8,464.9,220.6z"/>
	<path d="M526.8,176.6c0.5,1.8-0.7,2.5-2.1,3.8C525.1,178.6,525.1,177.3,526.8,176.6z"/>
	<path d="M431.8,274.1c-1.1-0.6-1.6-1.5-1.6-3C431.8,271.7,431.6,273.1,431.8,274.1z"/>
	<path d="M516.8,224.2c-1.3-0.5-1.3-1.4-1.1-2.7C516.9,222.3,517.3,223,516.8,224.2z"/>
	<path d="M508.7,253.8c0.2,1.2-0.3,1.7-1.3,2.1C507,254.8,507.4,254.2,508.7,253.8z"/>
	<path d="M459.3,219.9c1.2-0.6,1.9-0.1,2.8,0.9C460.7,221.3,459.9,221.1,459.3,219.9z"/>
	<path d="M513.1,217.8c1.6,0.3,1.7,1.2,1.7,2.4C513.4,219.9,513.2,219.2,513.1,217.8z"/>
	<path d="M449.1,237.3c0.9,0.3,1.4,0.8,0.8,1.8C448.7,238.8,448.5,238.2,449.1,237.3z"/>
	<path d="M549.5,205.1c0.7,1,0.8,1.8,0,2.4c-0.4,0.2-0.5,0.1-0.6-0.2C548.7,206.5,548.5,205.6,549.5,205.1z"/>
	<path d="M538.3,198.3c0.2,0.4,0.3,0.8,0,1.3C537.8,199.2,537.9,198.8,538.3,198.3z"/>
	<path d="M584,181.4c1.6-2.7,3.9-4.5,5-7.3c3.4,2.2,1.8,5.2,1.8,7.9c-1.9-1.1-0.5-3-1.4-4.6C587.7,178.9,586.3,180.5,584,181.4z"/>
	<path d="M639.1,178.5c-4.4-0.6-7.6-3.8-11.7-5C632.2,173.1,635.7,175.8,639.1,178.5z"/>
	<path d="M580.7,161.1c0.6-3.4,0.6-7.2,3.8-9.5C584.5,155.2,581.9,157.8,580.7,161.1z"/>
	<path d="M579.9,164.3c0.2,2.9-2,6.5-5.4,8.9C576.2,169.7,578.8,167.5,579.9,164.3z"/>
	<path d="M596,162.1c-0.2,2.9-1.5,4.6-2.9,6.5C592.2,166,592.8,164.6,596,162.1z"/>
	<path d="M634.5,178.5c-0.5,0.5-0.9,1-1.4,1.5c-2.4-0.9-4.3-1.8-4.8-4.8C630.8,176,631.3,179.7,634.5,178.5z"/>
	<path d="M595.1,184.6c-1.4-2.8-1.2-5.1-0.9-7.4C595.3,179.3,595.4,181.6,595.1,184.6z"/>
	<path d="M582.1,190.7c0.3-1.9,1.4-3.1,3.5-3.9C585.5,189.7,583.2,189.7,582.1,190.7z"/>
	<path d="M572.2,178.1c0.4-1.9,1.2-2.7,2.6-3.3C574.7,176.4,573.8,177,572.2,178.1z"/>
	<path d="M577.3,192.2c-0.3,0.7-0.8,1-1.5,1c-0.5-0.6,0.1-0.8,0.4-1C576.5,191.8,576.9,191.8,577.3,192.2z"/>
	<path d="M569.5,347.5c-0.9-4.9-0.5-9.3-0.5-13.9C571.1,336.6,571.5,344.4,569.5,347.5z"/>
	<path d="M574.5,255.4c-1,3.2-3.8,6-6,6.2C570.4,259.6,572.8,257.2,574.5,255.4z"/>
	<path d="M568.7,274.5c1.1,2.7-0.3,5.2-0.6,7.7C565.4,280.2,565.6,276.9,568.7,274.5z"/>
	<path d="M557.8,252.6c1.9,3.2,4.2,6,7,9C560.9,260.8,557.7,256.6,557.8,252.6z"/>
	<path d="M568.9,328.5c0-5.1-0.3-10.1,0.2-15.2c0.5,0,0.9,0,1.4,0c-0.3,5.1-0.5,10.1-0.8,15.2C569.4,328.5,569.2,328.5,568.9,328.5z
		"/>
	<path d="M566.4,273.4c-0.2-3.6,1.6-6.5,3.5-9.3C569.9,267.6,567.9,270.3,566.4,273.4z"/>
	<path d="M580.9,245.2c0.3,3.2,0.2,3.4-2,5.4C578.7,248.2,580.1,246.8,580.9,245.2z"/>
	<path d="M566.1,326.4c-0.4-2.2-0.9-4.3-0.3-6.5C566.4,322,566.8,324.2,566.1,326.4z"/>
	<path d="M563.5,265.7c-1.8-0.4-1.6-2.1-2.4-3.2C562.6,263,563.2,264.2,563.5,265.7z"/>
	<path d="M569.7,355.2c-1.5-0.8-1.5-1.8-1-3.2C569.9,352.9,570.1,353.8,569.7,355.2z"/>
	<path d="M576.2,348.9c-1.6,1.1-2.8,0.5-4.8,0.5C573.3,348.4,574.4,347.7,576.2,348.9z"/>
	<path d="M568,283.6c1.4,1.2,1.2,2.2,0.8,3.5C567.3,286.3,567.4,285.2,568,283.6z"/>
	<path d="M570.1,289.5c0.5,1,0.4,2,0.1,3C568.8,291.1,568.8,291.1,570.1,289.5z"/>
	<path d="M570.7,298.9c-0.4-1.9,0.1-2.6,1.7-3.5C571.9,296.7,571.9,297.7,570.7,298.9z"/>
	<path d="M563.7,385.4c-1.2-2-1.4-4.3-1.7-6.5c-0.8-5.9-3.2-11-7.5-15.1c-4.7-4.6-11.5-5.1-16.6-1c-6.7,5.3-10.2,12.6-12.4,20.6
		c-3.2,11.7-3,23.2,2.8,34.2c3.8,7.2,9,9.6,17,8.1c0.5-0.1,1.1-0.2,1.6,0.2c-3.2,2.4-9.8,1.8-13-0.3c-6.6-4.5-9.7-11.1-11.1-18.4
		c-2.5-12.8-0.2-24.9,6-36.3c2.6-4.7,6.1-8.6,10.8-11.4c4.2-2.6,10.1-2.1,13.8,1.1c4.9,4.3,8.3,9.5,9.3,16
		C563.2,379.5,564,382.4,563.7,385.4z"/>
	<path d="M542.7,398.3c0.9-1.1,0.5-2.3,0.1-3.7c-0.9-3.2-0.5-6.4,1-9.4c1.7-3.4,3.6-4.4,7.4-3.6c1.3,0.3,0.5-1,1.2-1
		c4.7,4,5.8,13.3,2,18.1C551.2,403.1,546.6,403,542.7,398.3z"/>
	<path d="M561.8,404.6c0.2-1.8-0.2-3.7,1.3-5.8C563.7,401.3,563,403,561.8,404.6z"/>
	<path d="M563.9,396.3c-0.5-1.7-0.7-2.9,0.1-4.1C564.9,393.9,564.9,393.9,563.9,396.3z"/>
	<path d="M563.9,386.9c0.7,1.3,0.6,2.4-0.1,3.7C563.2,389.2,563.1,388.2,563.9,386.9z"/>
	<path d="M165.2,384.1c2.3-1.3,4.6-0.6,7.1-0.8c0.9,2.4,1.3,4.7-0.8,6.6c2.6,2.7,3,5.5,1.1,7.2c-1.5,1.4-4.1,1.4-5.6-0.2
		c-1.9-2.1-1.4-4.5,1.7-7.6c-1.1-1.6-1.9,0.8-3,0.1c-0.7-1.7,1.7-1.9,1.7-3.1C167.5,384.7,165.4,385.9,165.2,384.1z"/>
	<path d="M167.5,407.1c-0.8-2.6-2-5.1,0.6-7.3c1.5-1.2,3.2-1.2,4.7-0.1c1.7,1.3,2,3.1,1.4,4.9C173.1,407.8,170.3,407.2,167.5,407.1z
		"/>
	<path d="M605.3,396.3c-7.6,2.6-12.4,0.7-17.1-5.7c-5.7-7.9-6.5-17.1-5.3-26.4c0.9-6.9,3-13.5,6.8-19.3c2-3,4.4-5.5,7.2-7.8
		c5.2-4.4,12.5-2.2,16.1,1.7c5.5,5.9,7,13,7.4,20.6c-1.5-1.6-1.4-3.8-1.7-5.7c-0.7-5.2-2.8-9.6-6.5-13.4c-4.5-4.5-10.7-5-15.5-1
		c-6.4,5.3-9.6,12.5-11.4,20.4c-2.2,9.6-1.9,18.9,2.5,27.9c3.5,7.2,8.2,9.6,16,8.3C604.3,395.7,604.8,395.7,605.3,396.3z"/>
	<path d="M601.4,371.2c0.8-1.1,0.4-2.2,0.1-3.5c-0.9-3.4-0.4-6.6,1.6-9.6c1.1-1.7,2.9-3.2,4.9-2.5s4.7,0.6,5.4,3.8
		c0.9,3.7,1,7.3-0.6,10.7C610.5,375.2,605.3,376,601.4,371.2z"/>
	<path d="M618.9,376.5c-0.2-1.5-0.5-3.1,0.8-4.8C620.7,373.7,619.7,375.1,618.9,376.5z"/>
	<path d="M620.9,365c0.7,1.7,0.8,2.8-0.1,3.9C619.9,367.8,620.2,366.8,620.9,365z"/>
	<path d="M620.6,361c0.8,1.1,0.6,2,0,3.2C620,363,619.8,362,620.6,361z"/>
	<path d="M570.6,211.3c2.1,2.2,3.6,4.8,4,7.8C572.7,216.7,571.3,214.2,570.6,211.3z"/>
	<path d="M584.2,208.5c1.6,1.4,1.8,3.4,2.6,5.2C585.3,212.3,584.2,210.6,584.2,208.5L584.2,208.5z"/>
	<path d="M584.5,219c-1,1.6-2.1,1.5-3.6,1.2C582,218.9,583.1,218.8,584.5,219z"/>
	<path d="M584.2,208.5c-1.1-0.9-1.4-2.2-1.3-3.6C583.7,206,584.4,207.1,584.2,208.5L584.2,208.5z"/>
	<path d="M591.2,207.6c-1.6-0.9-1.8-1.9-2.3-3.1C590.7,204.9,590.6,206,591.2,207.6z"/>
	<path d="M595.7,206.2c1.5,0.7,2,1.5,2.3,2.6C596.5,208.8,596.4,207.7,595.7,206.2z"/>
	<path d="M577.1,220.7c-0.4,0.8-0.7,1.3-1.7,0.7C575.7,220.7,576.1,220.1,577.1,220.7z"/>
	<path d="M369.7,343.8c1.9,0.9,3.8,1.8,5.8,2.8C373.1,347.8,371.4,347.1,369.7,343.8z"/>
	<path d="M544.7,335.9c2.4-1,4.9-1.1,7.4-0.3C549.7,337,547.2,336.5,544.7,335.9z"/>
	<path d="M880,433.2c-0.2-5.1-3.9-8.8-5-13.4c-0.3-1.2-1-2.5,0.2-3.5c1.3-1.1,2.2,0.3,3.3,0.6c4.2,1.1,7.5,3.7,11.4,5.3
		c0.5,0.2,0.9,0.6,1.3,1.2c-3.9-0.6-7.2-2.8-11.4-4.7C882.8,423.9,881.8,428.5,880,433.2z"/>
	<path d="M809.1,393.7c-5.2-3-5.3-8.2,0-13c1.8,3.3-1.6,5.5-1.2,8.8c1.8,1.3,3,3.4,2.8,6.2c-0.1,1.7,2.1,2.3,2.3,4.1
		C810.2,398.9,808.8,396.8,809.1,393.7z"/>
	<path d="M902,388.8c-5.9-1.6-11.9-0.6-17.8-1.4c-6.1-0.8-11.6,1.3-17.7,2.4C871.4,385.6,896.5,384.9,902,388.8z"/>
	<path d="M863.9,398.9c0.8-0.1,1.3,0.4,1.7,0.9c2.8,3.9,6.5,6.7,10.9,8.6c0.5,0.2,1,0.5,1.1,1.2
		C873.7,411.1,866.4,405.4,863.9,398.9L863.9,398.9z"/>
	<path d="M817.1,435.6c-3.4-4.4-4.6-9.7-6.6-14.7C814.7,425,813.9,431.2,817.1,435.6z"/>
	<path d="M905,386c-2.8-3.8-6-6.4-9.7-8.5C900.6,378.5,904.5,381.9,905,386z"/>
	<path d="M808.5,402.8c1.8,2.4,1.7,4.9,2.7,7.4C807.8,408.5,806.8,405.7,808.5,402.8z"/>
	<path d="M816.5,400.3c1.9,2.2,3.1,4.7,5.6,6.8C818.4,406.2,816.7,403.9,816.5,400.3z"/>
	<path d="M826,377.3c1.1,6.9,0.5,8.1-3.1,7.6C825.2,382.8,826.5,380.5,826,377.3z"/>
	<path d="M841,483.2c-0.4,3,4.7,4.3,2.3,8C843.5,488.2,839.8,486.5,841,483.2z"/>
	<path d="M807.9,401.4c-2.3-2.7-3.1-4.8-2.9-8.2C807.2,395.9,807.2,398.8,807.9,401.4z"/>
	<path d="M806.1,408.2c-2.1-2-1.9-4.7-2-7.3C805.7,403.1,806,405.7,806.1,408.2L806.1,408.2z"/>
	<path d="M811.9,411.7c2.7,1.5,1.3,5.1,3.7,6.7C812.8,417.1,813.1,414,811.9,411.7z"/>
	<path d="M902.3,400.8c-1,1.8-2.8,2.5-5,2.3c1.5-1,3-1.9,4.5-2.9C902,400.4,902.2,400.6,902.3,400.8z"/>
	<path d="M826.8,396.1c-2.3-0.3-2.5-1.8-3.4-3.1C825.5,393.4,825.5,393.4,826.8,396.1z"/>
	<path d="M831.7,467.2c-2.1-0.1-2.8-1.3-3.8-3.1C829.9,464.7,831.1,465.3,831.7,467.2z"/>
	<path d="M860.9,384.4c0.6-1.8,1.1-2.9,2.4-3.5C863.4,382.8,863.4,382.8,860.9,384.4z"/>
	<path d="M909.4,430c1.4-0.4,2.4-0.1,3.3,1.1C911.1,431.5,910.2,430.8,909.4,430z"/>
	<path d="M860.4,386.4c-0.3,1.6-0.8,2.2-2.1,2.3C858.3,387.4,859,386.9,860.4,386.4z"/>
	<path d="M794.1,388.3c0.3-1.9,1.5-2.2,2.5-2.8C796.5,386.8,796.2,388.1,794.1,388.3z"/>
	<path d="M844.7,494.8c0-2.6,1.8-1.1,2.8-1.4C846.9,494.8,845.7,494.7,844.7,494.8L844.7,494.8z"/>
	<path d="M862.3,391.1c0.9-0.7,1.7-1.3,3.2-1C864.6,391.8,863.3,391.2,862.3,391.1z"/>
	<path d="M803.4,397c-1.2-0.6-0.8-1.2-0.7-1.9C803.7,395.5,804.2,396,803.4,397z"/>
	<path d="M829.1,400.8c-1.3-0.2-1.1-0.9-0.7-1.9C829.4,399.3,829.8,399.9,829.1,400.8z"/>
	<path d="M900.4,427.6c1-0.4,1.4-0.2,1.7,0.3C901.4,428.3,901.2,427.7,900.4,427.6z"/>
	<path d="M806.1,408.3c0.2,0.7,0.8,1.3,0.3,2.2C805.9,409.8,806.2,409,806.1,408.3L806.1,408.3z"/>
	<path d="M864,398.8c-0.7-0.4-1.8-0.6-1.4-2C863.8,397.1,864,398,864,398.8L864,398.8z"/>
	<path d="M838.2,477.1c0.5,0.5,0.6,1.1,0.4,1.7c-1.2-0.1-0.8-0.9-1.1-1.4C837.8,477.3,838,477.2,838.2,477.1z"/>
	<path d="M913.9,366.5c0.7-0.5,1.2-0.3,1.3,0.6C914.6,367.3,914.2,367.1,913.9,366.5z"/>
	<path d="M873.7,449.2c3.8,0.2,7.7-0.4,11.2,2c0.5,0.3,1.3,0,2,0c-0.4,1.6,0.9,2.2,1.8,3c5.6,4.7,7.9,11.3,10,17.9
		c-1.8-1.8-2.5-4.1-3.4-6.3c-2.1-5.3-5.5-9.4-10.4-12.4c-5.9-3.6-12.7-2.5-16.9,3c-4.8,6.3-6.5,13.6-6.9,21.3
		c-0.6,12,1.9,23,9.5,32.7c2.8,3.5,6.4,5.5,10.4,6.9c2.8,0.9,5.4,0.1,7.9-1c1.1-0.5,2.2-1.2,3.5-1.3l-0.1-0.1
		c-2.5,3.3-8.5,4.6-13,3.2c-5.3-1.7-9.2-5.3-12-9.8c-9.6-15.3-10.5-31.5-3.6-48.1C865.7,455.4,869,451.6,873.7,449.2z"/>
	<path d="M888.9,471.8c4.4,3.3,6.2,11.9,3.4,16.5c-2.5,4-6.2,4.6-10.8,1.4c-0.1-0.9,0.5-2-0.4-3.1c-2-2.4-2.3-5.5-2-8.5
		c0.5-5.1,2.8-7.1,7.9-6.7c0.1,0,0.3,0,0.4,0.1C887.8,471.6,888.3,472,888.9,471.8z"/>
	<path d="M901.5,490.8c-1-2.6-1-2.6-0.4-5.3C902.6,487.2,902.1,489,901.5,490.8z"/>
	<path d="M901.7,482.6c-1.3-1.4-1.2-2.7-0.8-4.1C901.4,479.7,902.2,480.8,901.7,482.6z"/>
	<path d="M899.2,473.6c1,0.9,1.1,2.1,1.2,3.8C898.8,476.1,899.1,474.8,899.2,473.6z"/>
	<path d="M886.9,471.3c-0.6-1.5-2.1-0.3-2.8-1.3c1.5,0.2,3.2-0.8,4.2,1.3c-0.5,0.4-1,0.4-1.5-0.1L886.9,471.3z"/>
	<path fill="#FFFFFF" d="M886.8,471.3c0.5,0,1,0,1.5,0.1c0.2,0.2,0.4,0.3,0.6,0.5c-0.1,0.3-0.2,0.6-0.3,1
		C887.8,472.3,887,472.1,886.8,471.3z"/>
	<path d="M892.4,514.9c-0.2-1.3,0.9-1.5,1.7-2C893.5,513.6,893.6,514.8,892.4,514.9L892.4,514.9z"/>
	<path d="M538.4,598c-1.1-1.4-1.9,1.2-3,0.1c-0.5-1.7,1.9-1.8,1.8-3.1c-0.2-1.5-1.8-0.5-2.2-1.5c1.4-1.5,3-1.8,7.2-1.1
		c0.7,2.2,1.1,4.4-0.9,6.3c2.5,2.8,2.9,5.4,1.1,7.2c-1.5,1.5-4.1,1.5-5.6,0C534.8,603.9,535.3,601.7,538.4,598z"/>
	<path d="M537.3,615.8c-0.8-2.7-2-5.2,0.7-7.3c1.5-1.2,3.2-1.1,4.7,0c1.7,1.3,2,3.1,1.3,4.9C542.8,616.6,540,615.9,537.3,615.8z"/>
	<path d="M946.2,442.8c-1.7-2.5-3.3-5.1-3.9-8.1C944.2,437.1,946.1,439.6,946.2,442.8z"/>
	<path d="M957.8,436.9c-1.8-2.5-2.6-5.4-3-8.6c1.1,2.7,2.3,5.5,3.4,8.2c0.1,0.2,0.1,0.4,0.2,0.6C958.2,437.1,958,437,957.8,436.9z"
		/>
	<path d="M969.8,433.4c-1.4-1.6-2.3-2.8-3.5-4.1C968.6,430.1,968.6,430.1,969.8,433.4z"/>
	<path d="M955.9,443c-0.9,1-1.8,1.6-3.4,0.7C953.7,442.7,954.8,442.9,955.9,443z"/>
	<path d="M962.9,431.1c-1.7-0.8-1.9-1.8-2.1-3.1C962.4,428.7,962.3,429.8,962.9,431.1z"/>
	<path d="M948.8,444.8c-0.5,0.3-0.9,1-1.6,0.3c0.1-0.9,0.7-0.9,1.4-0.9C948.7,444.5,948.8,444.6,948.8,444.8z"/>
	<path d="M958.2,436.6c0.5,0.3,0.7,0.9,0.8,1.5c-1,0.3-1-0.5-1.3-1.1C958,436.8,958.1,436.7,958.2,436.6z"/>
	<path d="M888.9,576.5c1.1-2-2.5-4.1,0.5-6c3.6,1.2,5.1,3,4.3,5.1C893.1,577.2,892,577.5,888.9,576.5z"/>
	<path d="M805.3,432.6c-1.1,2.1-4.2,3.1-7.9,2.5C799.9,432.7,802.6,432.8,805.3,432.6L805.3,432.6z"/>
	<path d="M794.9,466.8c-1.2-1.3-1.4-2.6,0.4-4.1C795.9,464.4,795.4,465.6,794.9,466.8z"/>
	<path d="M797.5,458.9c1.2,0.8,1,1.6,0.1,2.5C796.9,460.2,796.9,460.2,797.5,458.9z"/>
	<path d="M860.1,445c1.6,0.4,1.8,1.8,2.1,3C860.8,447.7,859.8,447,860.1,445z"/>
	<path d="M748.6,567.5c2.1,0.3,4.3,0.4,6.1,1.8C752.3,570,750.3,569.1,748.6,567.5z"/>
	<path fill="#FFFFFF" d="M553.2,389.5c0,2.6-0.4,5-2.1,6.9c-2,2.3-4.4,2-5.7-0.8c-1.6-3.5-1.3-6.9,0.7-10.2c0.7-1.2,1.7-2.2,3.3-2.1
		c1.7,0.1,2.5,1.4,3.2,2.7C553.1,387.2,553,388.4,553.2,389.5z"/>
	<path fill="#FFFFFF" d="M553.3,397.1c-0.9,1.9-2,3.4-5,3.4C550.5,399.4,552.2,398.6,553.3,397.1z"/>
	<path fill="#FFFFFF" d="M545.6,399.6c0.4-0.3,0.8-0.2,1.2,0.3C546.3,400.3,545.9,400.1,545.6,399.6z"/>
	<path fill="#FFFFFF" d="M172.1,394.1c-0.1,1.5-0.9,2.3-2.4,2.3c-1.4-0.1-2.3-1-2.2-2.5c0.1-1.3,1-2,2.2-2.1
		C171.3,391.8,172.1,392.6,172.1,394.1z"/>
	<path fill="#FFFFFF" d="M170.3,388c-1.3-0.8-1.2-1.7-0.5-2.8C171.4,386.2,171.4,386.2,170.3,388z"/>
	<path fill="#FFFFFF" d="M170.7,405.5c-0.7-1.9-0.7-1.9-2.5-2.3c0-1.6,0.9-2.3,2.4-2.3c1,0,1.8,0.5,2.1,1.4
		C173.1,403.8,172.6,404.9,170.7,405.5z"/>
	<path fill="#FFFFFF" d="M607.4,357.3c4.4,2.7,4.8,9.7,1,12.7c-1.6,1.3-2.9,0.8-4.1-0.7C601.5,365.8,603,359.5,607.4,357.3z"/>
	<path fill="#FFFFFF" d="M607.6,372.7c0.5-0.5,1-0.9,1.9-0.8C609.1,372.9,608.5,373.1,607.6,372.7z"/>
	<path fill="#FFFFFF" d="M610.6,370.2c0.2-0.3,0.5-0.5,0.8-0.8c0.1,0.1,0.2,0.2,0.3,0.2c-0.2,0.3-0.5,0.6-0.7,0.9
		C610.8,370.4,610.7,370.3,610.6,370.2z"/>
	<path fill="#FFFFFF" d="M889.8,481.9c-0.1,3.2-1.4,5.6-3.2,5.9c-2,0.4-4.1-1.6-5.1-4.8c-0.7-2.2-0.9-4.5-0.1-6.8
		c0.6-1.4,1.2-2.8,3-3c1.7-0.2,2.8,0.9,3.7,2.1C889.3,477.1,889.9,479.3,889.8,481.9z"/>
	<path fill="#FFFFFF" d="M888.9,489.3c0.5-0.7,1.1-1.4,2-2.6C890.7,488.3,890.4,489.3,888.9,489.3L888.9,489.3z"/>
	<path fill="#FFFFFF" d="M883.8,489.6c0.9-0.1,1.4,0.1,1.8,0.7C884.8,490.8,884.3,490.6,883.8,489.6z"/>
	<path fill="#FFFFFF" d="M889,489.3c-0.1,0.9-0.8,0.4-1.4,1.6C887.8,489.3,888.4,489.3,889,489.3L889,489.3z"/>
	<path fill="#FFFFFF" d="M541.9,602.9c-0.1,1.5-0.9,2.4-2.4,2.3c-1.4-0.1-2.3-1-2.2-2.5c0.1-1.3,1-2,2.2-2.1
		C541,600.5,541.8,601.3,541.9,602.9z"/>
	<path fill="#FFFFFF" d="M540.2,597c-1.3-1.3-1.3-2.2-0.3-3.4C541.6,594.6,541.2,595.5,540.2,597z"/>
	<path fill="#FFFFFF" d="M540.7,614.1c-1.1-0.4-0.2-1.4-0.9-1.8c-0.5-0.6-1.3,0.4-1.8-0.3c-0.1-1.6,0.8-2.3,2.2-2.4
		c1-0.1,1.9,0.4,2.2,1.3C542.9,612.4,542.5,613.5,540.7,614.1z"/>
	<path d="M551.4,385.9c1.4,2.9,1.4,3.2,0.3,6.1c-1.3-1.2,0-3.2-1.5-4.5c-3.6,1.4-0.5,5.1-2.1,7.1c-2.1-2.3-2.7-5.6-1.4-7.6
		C547.9,385,549.6,385.1,551.4,385.9z"/>
	<path d="M608.3,361.3c-3.5,1.4-0.4,4.7-2,6.5c-1.9-2.4-2.4-5.4-1.2-7.2c1.2-1.7,2.7-1.4,4.3-0.6c0.9,1.6,1,3.3,0.2,5.4
		C608.6,364.2,609.5,362.6,608.3,361.3z"/>
	<path d="M888.8,481.5c-1.6-1.3-1-3.1-2.3-3.9c-1.6,0.7-1.6,0.7-0.7,7c-2.6-1.5-4.1-4.6-3.4-7c0.7-2.4,2.5-2.6,4.8-2.1
		C888.4,477.2,889,479,888.8,481.5z"/>
</g>
</svg>
