<?xml version="1.0" encoding="utf-8"?>
<!-- Generator: Adobe Illustrator 19.1.0, SVG Export Plug-In . SVG Version: 6.00 Build 0)  -->
<svg version="1.2" baseProfile="tiny" id="Layer_2" xmlns="http://www.w3.org/2000/svg" xmlns:xlink="http://www.w3.org/1999/xlink"
	 x="0px" y="0px" width="900px" height="600px" viewBox="144 97 900 600" xml:space="preserve">
<g>
	<path d="M762.7,124.2c0.6,0.1,1.8,0.1,1.2,0.9c-1,1.5,0.3,3.2,0.5,3.5c2.9,3.1,2.3,7.4,3.8,10.9c1.6,3.7,0.8,8-1.3,11.7
		c-0.4,0.7-1.1,1.3-0.8,2.1c1.7,4.3-1.6,7.6-2.3,11.5c-0.3,1.8-0.6,3.5-0.7,5.3c2.3,1.5,5,1.3,7.5,1.4c3.6,0.1,7.2,0.6,10.3,2.5
		c1.2,0.7,2.3,0.7,3.5,0.4c1.6-0.4,3.3-0.7,4.9-1.1c3-0.6,5.8-0.3,8.5,1.2c0.9,0.5,1.7,1.1,2.7,1.4c7.5,2.7,11.1,8.6,13.3,15.7
		c1.5,4.8,3.1,9.6,3.5,14.7c0.3,3.9,2.4,7.2,4.2,10.5c2.4,4.4,4,9,4.8,13.9c0.2,1.3,0.3,2.7,0.1,4c-1.1,5.8-0.3,11.6-0.2,17.4
		c0.1,7,2.2,13.4,3.6,20.1c1.6,7.1,0.4,14.3-0.2,21.4c-1.3,12.9-5.2,25.3-6.7,38.1c-0.4,3.8-0.6,7.6-0.9,11.5
		c5.8,0.9,11.3,2.7,15.2,6.8c11.4,11.9,13.8,27.6,3.1,41c-2.5,3.1-5.8,5.4-9.6,6.5c-6.3,1.8-12.6,3-19.2,1.4
		c-1.5-0.4-2.6-1.2-3.9-1.8c-1.8,0.5-3.5,1-5.2,2c0.5,4.1,0.9,8.3,1.4,12.6c1,8.8,1,17.7,1.8,26.5c0.3,3.9,0.4,7.9,1,11.7
		c1.1,7.5,0.5,14.8-1.1,22.1c-0.3,1.6-0.5,2.8,0.8,4.3c1.3,1.4,0.9,3.6,1.1,5.5c0.2,2.1,0.5,4.4-0.2,6.7c-2.2-0.5-4.2-1.2-6.5-0.4
		c-0.6,2-0.3,4.3-0.5,6.4c-0.3,4.2-1.7,8.2-2.3,12.4c-0.5,3.9,0,7.4,1.7,11c3.1,6.9,5.6,14.2,6.7,21.8c0.7,5.2,1.7,10.5,1.6,15.7
		c-0.1,4.9-1,9.8-1.7,14.6c-1.9,13.2-4.1,26.4-5.7,39.6c-0.8,6.6-1.5,13.4-1.5,20.1c0,1.1,0,2.2-0.4,3.3c-0.7,2.2-1.2,4.4,0.3,6.6
		c0.6,0.9,1,2.3,0.7,3.2c-0.9,2.9,0.3,5.5,0.9,8.2c0.5,2,0.7,3.9-0.2,5.9c-0.9,1.9,0.4,3.4,1.3,4.9c2,3.2,3.3,6.8,1.1,10.1
		c-2.5,3.8-5.7,7.1-7.5,11.5c-0.4,1-1.8,1.2-2.8,1.7c-7.9,3.7-16.2,3-24.4,1.8c-2-0.3-4-0.8-6-1c-1.7-0.2-2.9-1.1-3.9-2.3
		c1.4-2.5,1.4-5.5,2.8-7.8c4.1-6.5,6.5-13.7,9.5-20.7c0.3-0.7,0.9-1.3,1.3-2c0.7-1.3,1.9-2.7-0.1-3.7c0.4-1.9,1.8-2.5,2.8-3.5
		c0.3-0.7,0.4-1.4,0.1-2c-1.3-2.9-1.5-5.9-1.8-9c-0.4-4.3,1.7-6.7,6.1-6.7c1.1-4,0.6-7.9,0-11.9c-1.1-6.7-0.9-13.8-3.5-20.2
		c-3.2-8.1-4.1-16.8-7-24.9c-1.4-3.8-1.5-7.9-1.6-12c-0.5-11.1,1.1-22.2,1.3-33.2c0-0.1,0.3-0.3,0.6-0.6c1.7,1.1,1.4,2.9,1.2,4.4
		c-0.9,9.8-0.8,19.7-1,29.6c-0.1,2.9,1.1,5.5,1.5,8.2c1.1,7.7,3.4,15,5.9,22.4c1.1,3.3,2.1,6.6,2.8,10.3c1.3-9.1-0.3-18,0.6-26.8
		c1.9,5,2.3,10.2,1.6,15.3c-0.9,6.3-0.7,12.5-0.1,18.8c0.6,6.8,1.2,13.6-0.7,20.5c3.1,1.5,6.3,1,9.3,1.9c1-2.6-0.5-5.5,1.5-8.1
		c0.5,3,0,5.7,0.6,8.3c1.4,1,2.9,1,4.8,1.1c0-5.4,0.6-10.6,0.8-15.8c0.2-7.6,2.3-14.8,3.1-22.3c0.7-6.3,1.7-12.7,2.1-19.1
		c0.3-5.3,2.2-10.3,2.3-15.6c0.2-6.3-1-12.5-1.3-18.7c-0.4-7.8-4.1-14.3-6-21.4c-2-7.4-2.3-15-0.4-22.5c0.5-2,0.6-4.2,0.9-6.3
		c-1.6-1.9-3.7-2.1-6-2.1c-8.8,0-17.5-0.4-26.2-1.2c-2.4-0.2-4.7-1.3-7.6-0.8c1.7,4.1,1.9,8.3,3.6,12.3c2.1,4.8,2.2,10.2,3.2,15.3
		c0.7,3.7,1.7,6.8,4.6,9.4c1.7,1.5,3.2,3.3,4,5.6c-2.8-1-4.6-3.2-6.1-5.4c-3.3-5.1-5.7-10.6-5.5-16.9c0.1-2.2-0.5-4.7-1.9-6.7
		c-2.6-3.8-3.6-8.1-5.1-12.6c-1.3-1.2-3-2-5.2-2c-1.9,0-5.2-3.9-5.6-6.2c-0.4-2.4-0.6-4.9-1-7.3c-0.2-1.6-0.8-3.2-2-5.3
		c-0.5,2.6-0.5,4.6-0.5,6.5c0,2.7,0.1,5.4,0,8.1c-0.2,3.9-0.7,4.4-4.5,4.7c-0.8,0.1-1.6,0-2.6,0.8c0.3,5.4-1.2,10.8-2.2,16.3
		c-0.3,1.7-0.7,3.3-1.5,4.8c-0.9,1.6-1.2,3.4-1.4,5.2c-0.9,7.6-0.4,15.2,1.1,22.7c1.7,8.5,1.9,16.9-0.7,25.3
		c-2.8,9-3.6,18.5-5.5,27.7c-1.9,8.9-3.8,17.8-4.5,26.9c-0.1,1.9-0.4,3.8-0.1,5.7c0.2,1.2-0.1,2.2-0.8,3.7c-2.1-2.4-2.5-5-2.2-7.6
		c0.8-9.3,2-18.5,4.4-27.5c1.1-4.1,1.8-8.3,2.6-12.5c1.8-8.6,4.5-17.1,5.4-25.9c0.5-4.5,0-9-0.4-13.4c-0.7-6.8-2.2-13.5-2.3-20.4
		c-0.1-4.5,1.2-9,1.9-13.5c0.6-3.8,2.8-7,3.4-10.8c0.3-1.6,0.4-3.1,0.3-4.6c-0.2-1-1.6-0.8-1.6-1.4c-5.7,1.3-11.5,1.6-17.1,2.6
		c-5.7,1-11.4,0.1-17.1-0.3c-1.3,1-1.5,2.4-0.9,3.9c1.2,3.1,1.4,6.4,1.1,9.6c-0.4,4.8,1.9,8.6,3.2,12.9c-0.7,0.6-2,1.6-1.1,2.6
		c2.6,2.7,1.6,6,1.8,9.2c-1.2-2-1.6-4.3-2.3-7.1c-1.8,5.1-2,10-2.8,14.7c-1.4,8.7-1.7,17.3-0.2,26.1c1.6,9.9,1.6,19.9,2.4,29.9
		c0.5,6.8,0.8,13.7,1.8,20.5c0.5,3.2-0.1,6.4-0.1,9.5c1.5,0.6,1.4-0.6,1.8-1.1c3.2,2.4,7,1.8,10.5,2.8c0.7-2.8,0.2-5.2,0.5-7.7
		c0.1-1.1-0.2-2.4,1.6-2.4l-0.1-0.1c0,3.5,0,6.9,0,10.2c1.9,1.5,5.8,1,4.1,5.2c3.2,2.2,4.7,5,3.7,9.2c-0.7,2.8,1.2,5.4,2.2,8
		c0.9,2.4,2.4,4.5,1.5,7.3c-0.4,1.2,0.4,2.4,1.2,3.4c0.9,1.2,1.4,2.6,0.6,3.7c-2.1,2.8-4.1,5.9-7.3,7.4c-3.4,1.6-7.2,2.7-11.1,2.4
		c-1.8-0.1-3.3,0.4-5.1,1.4c-0.6,6-5,7.2-10.2,7.8c-5.3,0.6-10.4,0.8-15.7-0.4c-3.7-0.9-7.4-1.4-9-5.2c-4.6-1-5-1.7-3.9-6
		c0.7-2.6,2-4.7,4-6.5c2.5-2.3,4.7-4.8,6.7-7.5c2.5-3.4,5.5-6.4,8.5-9.4c4.5-4.6,7.7-10.1,7.3-16.8c1.3-1.4,2.9-0.8,4.6-1.2
		c0.2-4.4,1.3-8.8,0.8-13.4c-1.3-10.8-1.8-21.7-2.3-32.5c-0.3-6.6-1.3-12.9-2.5-19.3c-1.3-7.1-0.2-14.1,0.4-21.1
		c0.4-5,1.2-10,1.9-15c0.2-1.3,0.3-2.8,0.9-3.9c1.2-2.2,1.6-4.1-0.3-6c-0.7-0.7-0.6-1.7-0.5-2.6c0.1-3.4,0.1-6.7,0.2-10.1
		c0-0.7,0.2-1.4-0.1-2c-1.6-3.1-2.1-6.6-3.2-9.9c-2.2-0.4-4.4-0.3-6.5,0c-2.2,0.3-3.1-0.6-3.4-3c-1.6-17.6,0.4-35,2-52.4
		c0.6-7.1-0.3-14.3,1.3-21.4c0.8-3.8,1.4-7.7,2.2-12.4c-4.9,5.2-10.9,5.9-16.5,6.9s-11.6,0.9-16.7-3.1c-2.9-2.3-6-4.3-8.7-6.9
		c-4.6-4.4-5.6-10.1-5.8-15.9c-0.1-3.3,0.4-6.7,1-10c0.8-5.1,2.7-9.6,6-13.3c4.8-5.5,10.9-9.2,18.7-9.3c0.8-1.5,0.7-3.2,0.3-5
		c-0.9-4.2-1-8.5-0.8-12.7c0.1-4.8-0.3-9.7-1.3-14.4c-1.3-5.8,0.2-11.4,0.4-17.1c0.1-1.9,0.4-3.8,0.5-5.5c0.3-1.2,1.2-1,2.1-1.2
		c0.1-3.9,1.7-7.5,1.6-11.5c-0.1-4.3,0.5-8.8,3.5-12.7c1.5-1.9,2.4-4.3,2.5-6.9c0.4-5.1,1.1-10.3,0.9-15.4
		c-0.3-6.9,1.5-13.2,4.6-19.3c0.8-1.6,2.4-2.5,3-4.6c1.4-4.5-0.7-8.6-0.7-12.9c0-4.4-0.1-8.7,2.3-12.7c1-1.7,1.7-3.7,2.3-5.6
		c1.9-5.8,5.9-9.4,11.5-11.3c4.7-1.6,9.5-2.6,14.5-2.1c1.3,0.2,2.7,0.2,4.1-0.9c-0.9-4.6-0.2-9.6-2.5-14.2
		c-1.2-2.4-0.4-7.2,1.3-10.3c1.2,0.3,0.6,1.3,0.6,1.9c-0.3,6.7,2,13.2,2.4,19.8c0.2,3.8,2,7.5,3.3,11.2c0.6,1.6,2,2.5,3.8,2.9
		c3.7,0.8,7.4,0.2,11,0.3c0.9,0.8-0.1,2.1,1.3,2.6c-2.2,0.9-3.9-0.5-5.6,0c0.3,2,2.3,2.1,3.1,3.4c-2.4,1-2.4,1-5.7-1.4
		c-1.7-1.2-3.3-2.6-5.5-3.7c-1.6,4.6-1.7,9.4-2.3,14.1c-0.8,6.5-0.6,13,0.4,19.5c1.2,7.2,6.1,11.5,13.8,12c0.3-2.8-0.4-5.7,0.8-9
		c1,3.1,0.8,5.8,1.4,8.6c8.5-2.2,15.3-6,18.4-15.2c1.3-3.8,3.1-7.5,4.1-11.5c1.1-4.3,2.4-8.6,2.9-13.1c0.7-6.5,2.6-12.7,5.5-18.8
		c-2.2-0.6-4.2-1-6-2.5c-0.6,2.9-2.9,4.4-3.8,7c-1.2-6.2,1.8-12.5-0.9-18.7c1.4-0.4,3.2-0.2,3.1-2.5c-0.6-0.3-1.7,0.4-2.6-0.9
		c-0.2-1.5-0.4-3.4-0.6-5.2c2.3-2.3,2.3-2.3,2.6-4.4c-2.4,0.4-3.3,2.3-4.7,10.2c-3-3.5-3.4-7.7-5.1-11.4c-1.7-3.7-4.7-6.8-5.7-10.3
		c-1.3-1.2-2.4-0.4-3.4-0.7c-0.1-1.6-1.9-1.5-2.5-2.5c-0.2-1.6,1.4-2.5,1.3-3.9c1.3-0.6,2.8,0.3,3.5-1.1c-2-1.7-5-0.2-6.7,3.3
		c-1.6,0.1-0.7-1.3-1.2-1.9c-4.2-1.1-8.3-0.7-12.4,0.2c-2.4,0.5-4.4-0.4-7-1c0,5.1-1.3,9.8-2.8,14.3c9.3,4.6,10.5,6.4,8.2,11.3
		c-1-1,0.1-2.5-1.2-3.5c-2.1,0.9-4.1-0.4-6.4-0.8c-0.7-2.5-1.3-5-1.9-7.5c-0.1-0.5-0.3-1.2-0.1-1.6c2.3-4,1.2-8.6,2.4-12.7
		c-1.7-3.2-5.3-3.9-7.7-6.2c-0.5-1.1,0.7-2.5-0.5-3.5c1.7-1.8,3.6-0.2,5.3-0.6c-0.8-1.5-3.2-1.2-3.7-3.3c2-2.2,3.8-0.1,5.6,0.7
		c0.3-2.3-0.7-4.5,0.8-6.7c1.8,0.9,2.5,3,4.5,3.6c0.2-0.6-0.4-1.8,0.9-1.8c1,0,2.1-0.2,3,0.2c3.7,1.6,7.6,1.4,11.4,1.2
		c2.8-0.1,5.6,0.3,8.1,0.1c1.6,0.5,1.5,2.6,3.4,2.7c1-0.3-0.4-2,1.4-2.4c2.5,2,5.1,4.9,9.7,4.5c1.5-0.9,2.8-3.4,5.7-2.1
		c0.4,1.7-1.3,2.2-1.9,3.5C762.1,120,762,122.4,762.7,124.2c-1.2,0.5-2.6,0.2-3.5,1.4c0.1,0,0,0,0.1,0
		C760.2,124.4,761.7,124.8,762.7,124.2z"/>
	<path d="M435.6,124.9c-2.2,0.7-2.2,0.7-3.3,3.1c-1.6,0-0.7-1.3-1.1-2c-4.2-1.1-8.5-0.6-12.7,0.2c-2.3,0.5-4.4-0.5-7-1
		c0.6,5.3-1.7,9.8-2.5,14.5c8.2,3.3,10.4,5.3,8,11.1c-0.9-1,0-2.5-1-3.6c-2.1,0.7-4.2-0.3-6.5-1c-0.6-2.4-1.3-4.8-1.9-7.3
		c-0.1-0.5-0.3-1.2-0.1-1.6c1.3-2,1.3-4.3,1.6-6.5c0.3-2.1,0.4-4.2,0.7-6.5c-1.6-3-5.1-3.7-7.5-6c-0.5-1.2,0.6-2.5-0.5-3.7
		c1.6-1.4,3.3-0.3,4.8-0.8c-0.6-1.5-2.8-1.1-3.1-3.1c2-2.2,3.8-0.1,5.7,0.7c0.1-2.2-0.7-4.4,0.5-6.5c1.9,0.3,2.2,2.4,3.9,2.8
		c1.1-1.4,3-1.6,4.4-0.9c3.8,1.7,7.6,1.1,11.5,1.2c2.8,0.1,5.6,0,8,0c1.9,0.5,1.7,2.9,3.8,2.7c0.9-0.5-0.4-2.1,1.4-2.4
		c2.4,2.5,5.2,4.6,9.5,4.8c1.6-0.8,2.8-3.5,5.7-2.2c0.6,1.7-1.3,2.1-1.7,3.3c1.4,1.4,2,4.7,3.4,7.6c1.8,3.6,2.5,7.4,4,11
		c1.9,4.6,1.8,9.2-0.4,13.6c-0.8,1.6-1.5,3-0.7,4.7c0.5,1,0.1,2-0.3,2.9c-1.7,3.6-2.9,7.2-3,11.2c0,1.1-0.6,2.1-1.2,3.1
		c-1.8,3.3-0.4,12.3,2.7,14.4c3.1,2.1,6.5,4.2,10.1,5.2c6.2,1.8,11.5,5.1,16.9,8.2c2.4,1.4,4.9,2.6,7.5,3.6
		c5.4,2.2,10.4,5.1,14.2,9.7c2.1,2.6,3.4,5.4,3.9,8.8c0.4,3,1.4,5.9,2.1,8.8c0.6,2.7,0.5,5.3-0.1,8c-0.6,2.6-0.8,5.3-0.9,8
		c-0.1,2.1,0.2,4.1,1.5,5.7c4.9,6.5,5.5,14,4.9,21.7c-0.2,3.1-0.1,6.1,0.9,9.2c2.4,7.4,3.8,14.9,1.7,22.8c-0.9,3.4-0.1,7.2,0.5,10.7
		c1.4,7.3,0,14.3-1.4,21.4c-0.3,1.4-0.5,2.7-0.1,4.2c0.6,2.5-0.3,5.1-1.1,7.6c-2,6.9-4.2,13.7-5.5,21c4.8-0.7,8.9,1.2,12.7,3.5
		c4,2.4,6.4,6.2,7.4,10.8c0.6,2.6,2.2,4.9,2.7,7.6c1.6,8.5,0.2,16.5-3.2,24.3c-2,4.5-5.5,7.5-10.2,9.2c-3.3,1.2-6.7,2-10.1,2.6
		c-4.1,0.6-8.3-0.4-11.4-3.4c-1.2,0.5-1.9,1.2-2.5,2.1c0.5,9.8,0.9,19.7,2.2,29.5c0.8,6.5,0,13-1.3,19.4c-0.3,1.6-0.8,3.1,0.9,4.6
		c1.2,1.1,0.7,3.2,1,4.8c0.4,2.4,0.5,4.8-0.2,7.5c-2.3-0.9-4.4-1.5-6.8-0.5c0.2,3.5-0.6,7-0.7,10.5c-0.1,2.5-1.3,4.7-1.7,7.1
		c-0.7,4.6,0,8.6,1.9,12.9c3.7,8.2,6.1,16.8,7,25.9c0.2,2,0.4,4,0.7,6c1,6.6-0.7,12.9-1.5,19.3c-1.7,13.2-3.9,26.4-5.7,39.6
		c-0.8,6.2-1,12.5-1.4,18.8c-0.1,1.9-0.1,3.7-0.7,5.6c-0.5,1.8-0.9,3.8,0.6,5.7c0.6,0.8,1,2.3,0.8,3.2c-0.9,3,0.4,5.7,1,8.5
		c0.4,1.9,0.7,3.7-0.2,5.6c-0.9,2,0.3,3.4,1.2,4.9c2,3.2,3.4,6.8,1.2,10.1c-2.6,3.9-4.8,8.2-7.9,11.6c-2.9,3.3-7.9,4-12.5,4.3
		c-6.9,0.4-13.7-0.4-20.4-1.7c-1.6-0.3-3-1-4-2.6c5-11.2,10.1-22.5,15.2-33.8c-0.6-0.7-0.8,0.6-1.5-0.1c-0.3-1.9,1.7-2.4,2.6-3.5
		c0.5-1.2,0.3-2.2-0.2-3.1c-1.6-2.8-1.2-6-1.4-9c-0.3-3.8,2.2-5.9,6.1-5.5c1-4,0.6-7.9,0-11.9c-1.1-6.7-0.9-13.8-3.4-20.2
		c-3.2-8.1-4-16.8-7-24.9c-1.4-3.7-1.5-7.7-1.7-11.6c-0.4-9.3,0.4-18.6,1.1-27.9c0.1-2.1,0.2-4.1,0.4-6.7c2.1,1.5,1.9,3.3,1.7,4.8
		c-0.8,8.4-0.7,16.8-1,25.2c-0.2,4.3,0.7,8.4,1.4,12.6c1.4,8.5,4.3,16.7,6.8,24.9c0.7,2.5,1.3,5,2,7.4c1.2-8.6-0.2-17.4,0.6-26.2
		c2,4.9,2.2,10,1.6,15.1c-0.7,5.7-0.8,11.4-0.3,17.1c0.7,7.4,1.5,14.8-0.6,22.2c3.3,1.2,6.4,1.2,9.4,1.7c0.6-2.7-0.4-5.3,1.4-8.5
		c0.2,3.4,0.3,6.1,0.4,8.8c1.5,0.8,2.9,1.2,4.7,0.9c0.5-2.2,0.1-4.5,0.3-6.7c0.5-6.1,0.7-12.4,1.8-18.4c2.1-11.4,3.4-22.8,4.4-34.3
		c0.3-3.5,1.6-6.8,1.9-10.2c0.6-7.4-0.6-14.7-1.1-22.1c-0.5-6.8-3.2-12.7-5.2-18.8c-2.7-8.2-3.1-16.4-1.1-24.8
		c0.5-2.1,0.6-4.2,0.9-6.2c-1.5-1.8-3.3-2.1-5.4-2.1c-8.2-0.2-16.4-0.3-24.6-0.9c-3.2-0.2-6.3-1.7-9.7-1.2c1.7,4.5,2.5,9.2,4.1,13.6
		c1.7,4.7,2.2,9.8,2.9,14.7c0.5,3.3,1.6,6.2,4.2,8.5c1.8,1.6,3.4,3.4,4.2,5.8c-2.5-0.9-4.3-2.9-5.6-4.9c-3.5-5.1-5.9-10.7-5.8-17.2
		c0-2.4-0.5-4.9-2-7c-2.6-3.8-3.7-8.1-5-12.6c-1.4-1.3-3.1-2-5.2-1.9c-1.9,0-5.2-3.9-5.5-6.2c-0.4-2.8-0.7-5.6-1.2-8.3
		c-0.2-1.3-0.6-2.6-1.7-4c-0.7,2.2-0.5,4.2-0.6,6.1c0,2.8,0.1,5.6,0,8.4c-0.2,3.8-0.7,4.2-4.3,4.6c-0.9,0.1-1.8,0-2.8,0.8
		c0.3,5.5-1.2,10.9-2.2,16.4c-0.1,0.7-0.1,1.4-0.4,2c-4.4,10.1-3.1,20.4-1.2,30.7c1.6,8.6,1.7,17.2-0.9,25.6
		c-2.7,8.7-3.4,17.8-5.3,26.7c-1.9,9.1-3.9,18.2-4.6,27.5c-0.1,1.8-0.4,3.6-0.1,5.4c0.2,1.2,0.2,2.4-0.9,3.5c-2-2.2-2.3-4.8-2.1-7.5
		c0.8-9.2,2-18.3,4.3-27.2c1.3-5.1,2.1-10.3,3.3-15.5c1.8-7.4,3.8-14.7,4.7-22.3c0.6-5.3,0-10.5-0.5-15.7c-0.5-5-1.3-10-1.9-15
		c-0.6-6,0.8-11.7,1.7-17.6c0.6-3.7,2.8-6.8,3.4-10.4c0.3-1.7,0.4-3.3,0.3-5.2c-0.6-0.4-1.2-1-1.3-1c-11.8,1.9-23,4.4-34.3,2.2
		c-1.6,1.3-1.7,2.7-1.1,4.1c1.3,3.2,1.4,6.6,1.1,9.9c-0.4,4.5,1.9,8.2,3.1,12.2c0.2,1-1.4,1-1.1,2.5c2.3,2.6,1.9,6.2,1.5,9.8
		c-0.6-2.2-1.3-4.4-2-7.1c-1.8,5-1.9,9.9-2.7,14.6c-1.5,8.7-1.6,17.3-0.2,26.1c1.6,9.6,1.6,19.4,2.3,29.2c0.5,7.1,0.8,14.1,1.8,21.1
		c0.4,3.2,0.1,6.4-0.2,9.4c1.6,0.7,1.5-0.6,2-1c3.2,2.2,7,1.4,10.4,2.9c0.8-3.6-0.2-6.9,1.2-10.7c1.5,4,0.5,7.4,1,10.8
		c1.7,1.3,5.6,0.8,3.8,4.9c3.2,2.3,4.7,5.1,3.7,9.2c-0.7,2.7,1.1,5.2,2.1,7.7s2.5,4.7,1.6,7.6c-0.3,1,0.3,1.9,0.9,2.8
		c1.9,3.1,1.3,4.3-1,7c-4.7,5.4-10.7,7.1-17.5,7.1c-1.4,0-2.6,0.6-4,1.3c-0.6,5.8-4.8,7.1-9.9,7.8c-6.5,0.9-12.7,0.6-19-1
		c-1.4-0.4-2.9-0.7-3.9-1.8c-1.4-1.6-2.6-3.2-4.9-3.6c-1.3-0.2-1.8-1.5-1.5-3c0.6-3,1.4-6,3.8-8c5-4.3,8.3-10,12.8-14.6
		c2.8-2.9,5.9-5.7,7.9-9.5c1.7-3.3,2.4-6.6,2.5-10.2c1.1-1.8,3.1-0.8,4.7-1.5c0.3-5.5,1-10.8,0.4-16.4c-1.1-10.5-1.7-21-2.1-31.6
		c-0.2-6.1-1.6-12-2.5-18c-1.1-6.9,0-13.7,0.5-20.5c0.4-4.9,1.2-9.8,1.9-14.7c0.2-1.8,0.3-3.6,1.5-5.1c0.7-1,0.9-2.5,0.3-3.2
		c-3.3-4-1.5-8.6-1.6-12.9c-0.1-2.4-0.2-4.7-1.4-6.7c-1.2-2-0.5-4.7-2.1-6.6c-2-0.4-4-0.2-6-0.1c-2.9,0.1-3.2-0.4-3.5-3.2
		c-1.7-17,0.6-33.8,1.7-50.7c0.1-1.7,0.2-3.4,0.3-5c0-0.4-0.1-0.9-0.1-1.5c-4.4,1.6-8.8,1.4-13,0.3c-6.5-1.7-12.7-4.2-16.9-10
		c-4.3-5.9-8.2-12-8.6-19.4c-0.5-7.8,1.4-14.9,7.8-20.1c0.8-0.6,1.6-1.3,2.2-2.1c2.4-3.6,5.6-6.1,9.3-7.5c0.9-7.3,1.6-14.4,2.6-21.4
		c0.2-1.2,0.2-2.4,0.1-3.7c-0.3-4.7-0.4-9.4,1.2-14c0.6-1.8,0.5-3.8,0.7-5.7c0.2-2.4,0.4-4.7,2.2-6.5c0.5-0.6,0.5-1.2,0.5-1.9
		c0-3.4,0.1-6.7,0.4-10c0.3-4,1.2-7.7,2.5-11.4c2.2-6.1,1.3-12.4,0.8-18.7c-0.5-5.7-2.3-11.5,0.5-16.9c2.5-4.9,2.5-9.8,2.3-15.1
		c-0.2-4.4-0.1-8.9,0.5-13.3c0.6-4.9,2.4-9.4,5.4-13.2c3.8-4.8,7.5-9.9,13.6-12.1c1.1-0.4,2.1-1.2,3.5-0.8c0.4,0.1,0.9,0,1.3-0.2
		c7.2-4.1,16-5.5,21.1-12.9c0.9-1.3,2.4-0.6,3.2-2c-0.2-2.7-0.1-5.6-4.2-6.2c-1.4-0.2-2.1-1.5-2.5-2.9c-0.8-2.8-1.7-5.5-3.1-8.1
		c-1.6-3-1.4-6.5-1.7-9.9c-0.2-1.8-0.6-3.5-1.4-5.2c-1.7-3.8-0.3-7.5,0.6-11.4c1.5,0.7,1,1.6,1,2.2c-0.2,6.7,1.9,13.2,2.4,19.8
		c0.3,4,2.3,7.9,3.9,11.7c0.6,1.5,2.1,2.4,4,2.6c2.8,0.3,5.6,0.2,8.4,0c0.8,0,1.5-0.4,2.5,0.6c-2.1,2.6-5.3,1.2-8.2,2.1
		c1.1,5.8,1.4,11.7-0.1,17.9c-3.6-2.6-1.6-6.1-2.2-9c-1.6,0.6-2.6,1.4-2.3,3.2c0.3,1.8-1,3.1-1.4,4.8c-1.6,7.8-1.6,15.6-0.8,23.4
		c0.9,7.8,5.7,12.6,14.8,13.4c0.1-2.6-0.4-5.3,0.5-8.4c1.4,2.6,0.9,5.3,1.8,7.8c8.6-2.2,15.3-6,19.2-15.1
		c4.1-9.7,5.9-20.1,10.5-29.5c0.9-1.9,1.1-4.1,1.6-5.9c-1.9-2.3-4.8-1.4-6.9-3c-2.3-1.8-3.4-3.8-3.5-6.5c-0.4-6.3-1.6-12.7-0.7-19
		c0.2-1.4-1-2.1-1.5-3.5c1.7-0.4,3.4-0.4,3.5-2.6c-0.7-0.4-1.9,0.2-2.6-1c-0.2-1.7-0.4-3.5-0.6-5.3c0.9-1.5,3.1-2.1,2.7-4.3
		c-2.5,0.3-3.4,2.3-4.8,10.3c-3-3.8-3.4-8.1-5.2-11.8c-1.8-3.6-4.4-6.9-5.7-10.2c-1.5-1.1-2.5,0.1-3.1-0.8c-0.8-0.7-1.7-1.5-2.7-2.3
		C434.1,127.8,435.8,126.6,435.6,124.9c0.4-0.2,0.8-0.3,1.2-0.3C436.4,124.6,436,124.7,435.6,124.9z"/>
	<path d="M438.4,143.6c-2.1,0.2-3.1-1.1-4.7-1.6c-1.7,1-4,0.9-6.1,1.7c3,0.7,6.2,0.8,8.9,2.6c-3.3,0.6-6.6,1.1-10.1,0.6
		c-0.3-2.1-1.9-2.3-3.9-2.3c0.1-1.4,0.4-2.5,1.6-3.2C427.2,139.3,435.1,140.4,438.4,143.6z"/>
	<path d="M740.5,151c-1.6,0.1-3.2,0.3-4.9,0.4c-1.6,0.1-3.1,0-4.9,0c-0.5-2.1-2.1-2.6-4.1-2.3c1.4-5.5,10.1-6.1,15.6-1.2
		c-3.6-1.8-7-1.2-10.7,0.2C734.8,149,738,148.6,740.5,151z"/>
	<path d="M406,562.1c-2.9-7.9-2.9-15.8,0.5-23.7c0.6-1.3,0.4-2.9,1.6-3.9H408c-0.2,8.6-1.8,17.2-1.4,25.8
		C406.6,561,406.6,561.6,406,562.1L406,562.1z"/>
	<path d="M790.4,523.5c0.8-0.6,1.4-1,1.9-1.4c3.4,2.9,5.4,6.3,5.9,11.2c-2-3.2-2.5-6.6-5.6-8.9c0.2,2.2,0.7,4,1.7,5.5
		c2.3,3.5,2.7,7.3,2.1,11.3c-0.6,3.6-0.8,7.1,0.5,10.6c0.1,0.4,0,0.9-0.1,2c-2.3-3.5-2.9-6.8-2.2-10.2c1-5.2,1-10.1-2.2-14.8
		C791.4,527.4,791.1,525.5,790.4,523.5z"/>
	<path d="M710.8,535.9c0.7,2,0.6,4.1,0.2,6.2c-0.9,5.6-0.9,11.3-1,16.9c0,0.6,0.2,1.4-0.7,1.6l0.1,0.1
		C706.4,552.2,706.5,544,710.8,535.9L710.8,535.9z"/>
	<path d="M792,501.9c-4.3,4.4-9,4.1-13.8,1.7c-4.5-2.3-8.2-5.4-8.8-11c2.8,3.7,6,6.7,9.9,9.2C783.6,504.5,787.7,502.5,792,501.9z"/>
	<path d="M488.4,503.1c-3.5,3.4-7.4,4-11.9,2.3s-10.7-6.3-10.7-12.3c3.8,5.5,8.2,9.5,14.6,11.4C482.9,504.4,485.5,502.9,488.4,503.1
		z"/>
	<path d="M438.6,179.8c2.5-3.9,6.6-5.9,10.3-8.4c1.2-3.7,3-7.3,2.5-11.5c4,3.3,0.1,7.2,0.9,10.8C448,174.1,443.5,177.2,438.6,179.8z
		"/>
	<path d="M742.6,183.8c2.9-3.5,6.8-5.7,10.4-8c1.3-3.8,2.9-7.4,2.6-11.5c3.9,3.3-0.2,7.1,0.7,10.6C753.2,178,745,183.6,742.6,183.8z
		"/>
	<path d="M488.9,525.2c0.4,2,0.8,4,1.9,5.7c2.3,3.6,2.7,7.5,2.1,11.6c-0.6,3.5-0.8,6.9,0.5,10.2c0.2,0.5,0.2,1.1-0.4,1.8
		c-1.9-3.1-2.6-6.4-1.9-9.8c1-5.2,1-10.1-2.2-14.7c-1-1.4-1.3-3.3-1.8-5c-0.2-0.5,0.2-0.8,0.8-0.6C488.6,524,489,524.3,488.9,525.2z
		"/>
	<path d="M748.9,202.6c-1.7,1.6-4.2,2-6.3,3.4c-0.3,0.8-0.6,1.7-1,2.8c-2.9-1-5.3,2.6-8.4,0.8c-1.1-0.6-2.3-1.2-1.3-2.9
		c1.7,0.2,3.3,1.5,5.6,0.6C740.2,204,744.7,203.8,748.9,202.6z"/>
	<path d="M445.5,209.3c-1,1.2-2.5,1.5-3.8,2c-2.1,0.9-4.3,1.7-5.9,3.5c-1.7,1.9-4.5,2-6.5,0.8c-0.9-0.5-1.8-1-1.2-2.3
		c0.8-0.6,1.5,0,2.2,0.2c1.9,0.4,3.4,0.4,5.3-0.9C438.4,210.6,442,210,445.5,209.3z"/>
	<path d="M477.8,511.1c2.9,0,3.2,1.5,3.4,2.9c0.8,4.7,2.6,9.6-2.8,14C479.9,522,481.6,516.7,477.8,511.1z"/>
	<path d="M781.4,510.4c2.3-0.6,2.9,0.5,3.1,1.7c0.8,4.9,3.1,10-2.6,14.7C783.4,521,785.1,515.7,781.4,510.4z"/>
	<path d="M398.2,500.7c2.5,4.6,7.2,4.4,11.3,5.4c0.8,0.2,1.8,0.2,2.2,1.1c-0.1,0.2-0.1,0.6-0.2,0.6c-2.8,1-11.2-1.5-12.8-3.8
		C398.1,503.2,397.4,502.1,398.2,500.7z"/>
	<path d="M401.8,548.4c-0.9-2.4-1.6-4.1-1.7-6c-0.1-1.5-0.7-2.7-1.7-3.9c-2-2.2-3-4.8-2.2-7.9c1.3,3.8,3.9,6.8,5.4,10.5
		C402.4,543.2,402,545.5,401.8,548.4z"/>
	<path d="M715.3,506.4c-0.9,1.6-2.3,1.3-3.5,0.9c-2.6-0.8-5.3-1.6-7.8-2.7c-1.9-0.9-2.9-2.5-2.3-5c2.5,4.5,6.8,4.5,10.7,5.5
		C713.4,505.4,714.7,505.1,715.3,506.4z"/>
	<path d="M699.7,529.8c1.2,5.2,6.6,8.7,5.8,14.7c-0.1,0.5-0.1,1.1-0.2,1.7c-0.3-0.1-0.5-0.2-0.6-0.3c-1.1-3.9-2.1-7.9-4.8-11.2
		C699.1,533.4,698.9,531.5,699.7,529.8z"/>
	<path d="M732.3,174.6c-4.5,0.8-8.9-0.7-13.2-0.6c-0.4-1.4,0.2-1.9,0.8-1.8c4.2,0.3,8.3,0.7,12.5,1.1
		C732.4,173.7,732.4,174.2,732.3,174.6z"/>
	<path d="M428.1,169.1c-2,1.9-11.6,1.2-14.1-1.1C419.2,167.7,423.6,168.9,428.1,169.1z"/>
	<path d="M721,177.7c4.1-2.4,5.7-2.1,7.6,1.1C726,180.8,723,180.4,721,177.7z"/>
	<path d="M416.3,174.7c2.7-4,6.3-3.7,8.3,0.2C421.9,176.3,419.3,175.5,416.3,174.7z"/>
	<path d="M744.2,191.1c1.3,0.4,1.6,1.2,1.9,1.9c-0.1,1.4-1.4,1-2,1.8c-0.3,2.1-0.4,4.5-2.1,6.4C742.8,197.8,741.8,194.2,744.2,191.1
		z"/>
	<path d="M710.9,535.9c0.6-4.3,0.7-8.8,3.6-12.5C714.4,527.9,712.6,531.9,710.9,535.9L710.9,535.9z"/>
	<path d="M448.6,176.5c-1.7,3.6-3.3,7.2-6.5,9.9C444.1,182.9,445.6,179.1,448.6,176.5z"/>
	<path d="M408.1,534.5c-0.1-4.2,1-8.4,3.2-10C410.8,528.1,409.9,531.4,408.1,534.5L408.1,534.5z"/>
	<path d="M719.3,165.1c2-1.8,4-0.8,5.8-0.3c0.8,0.3,1.4,1.2,0.2,2.3C723.9,165.2,721.2,167.7,719.3,165.1z"/>
	<path d="M746.3,190.6c2-3.3,3.4-7,6.4-10.4C752.4,183.1,749.2,188.4,746.3,190.6z"/>
	<path d="M409,498.9c3.7-0.6,7.2-2,11.1-1.7C416.6,499,412.7,498.8,409,498.9z"/>
	<path d="M488.9,525.2c-0.4-0.3-0.7-0.6-1.1-1c0.3-0.4,0.5-0.7,0.8-1.2c3.6,2.8,5.5,6.4,6.1,11.3
		C492.5,531.1,492.1,527.2,488.9,525.2z"/>
	<path d="M438.5,202.3c0.9-3.4-0.3-7.4,2.9-10c-0.1,1.8-1,3.4-1,5.3C440.3,199.3,439.8,201,438.5,202.3z"/>
	<path d="M702.9,513.2c2.3,0.3,3.9,1.6,5.8,2.1C706.1,517.7,703.7,516.9,702.9,513.2z"/>
	<path d="M421.5,162.5c-1.8-1.3-4.5,0.4-6.3-1.7C418.3,158.9,420.8,159.6,421.5,162.5z"/>
	<path d="M399.6,514.3c2.1,0.3,3.6,1.7,5.7,2.2c-1.5,1.9-3,1.4-4.4,0.7C399.8,516.6,398.9,515.9,399.6,514.3z"/>
	<path d="M474.4,571.6c0-3.1,0-6.2,0-10C475.9,565.4,475.8,568.5,474.4,571.6z"/>
	<path d="M778.2,570.5c-0.6-2.9-0.2-5.9-0.9-9.4C779.2,563.5,779.5,565.8,778.2,570.5z"/>
	<path d="M712.5,497.6c3.3-0.6,6.5-1.1,9.8-1.7c0.3,0,0.6,0.1,1,0.4C719.9,497.8,716.3,498,712.5,497.6z"/>
	<path d="M497.8,542.4c0.2,3.2,1.2,6.4,0.8,10.3C497.4,548.9,498,545.6,497.8,542.4z"/>
	<path d="M405.9,562.1c0.9,2.5,1,5,0.5,8.4c-1.6-3.1-1.2-5.7-1.3-8.2C405.1,562.2,405.7,562.2,405.9,562.1L405.9,562.1z"/>
	<path d="M709.4,560.7c0.9,2.6,1.1,5.3,0.7,8.2C708.3,566.6,708,562.2,709.4,560.7L709.4,560.7z"/>
	<path d="M801.6,550.8c-0.2-3.2-0.4-6.3-0.5-9.5c0.1,0,0.3,0,0.4,0c0.3,3.1,0.6,6.3,0.9,9.4C802.1,550.8,801.8,550.8,801.6,550.8z"
		/>
	<path d="M438.2,204.8c1.1,2.3,0.6,3.9-0.5,5.5C436.2,208.3,436.2,207.9,438.2,204.8z"/>
	<path d="M730.2,206.2c-2.4,0.5-4.7-0.1-7-0.8C725.6,205.4,728.1,204.3,730.2,206.2z"/>
	<path d="M768.4,497.8c0.9,2.6-0.8,3.5-1.8,4.7C766.8,501,766.3,499.1,768.4,497.8z"/>
	<path d="M465.1,499.1c0.7,2.4-1,3.2-1.8,5C463.1,500.6,463.1,500.5,465.1,499.1z"/>
	<path d="M419.2,212.3c2.4-0.4,5-1.5,7.4,0.7C424.1,212.7,421.7,212.5,419.2,212.3z"/>
	<path d="M714,600.6c-0.3-1.5-0.4-3,0.2-4.7C715.2,598.4,715.2,598.4,714,600.6z"/>
	<path d="M433.5,223.3c0.4,1.8,0.5,3.6-0.9,5.5C431.9,226.5,432.2,224.8,433.5,223.3L433.5,223.3z"/>
	<path d="M410.6,601.6c-0.4-1.5-0.7-3,0.4-4.8C411.6,598.7,411.8,600.2,410.6,601.6z"/>
	<path d="M713,612.1c-0.2-2.3-0.3-4.6,0.3-6.9C713.7,607.5,714.3,609.8,713,612.1L713,612.1z"/>
	<path d="M409.8,612.1c-0.7-2-0.5-4-0.1-6C410.7,608.1,410.3,610.1,409.8,612.1z"/>
	<path d="M737,217.2c0.3,2.2,0.3,3.6-0.5,5.1C735.4,220.4,735.4,220.4,737,217.2z"/>
	<path d="M473,553.7c1.1,1.4,1.5,3,1.5,5.2C473.3,557,473.1,555.4,473,553.7z"/>
	<path d="M778.1,557.8c-1.4-1.9-1.4-3.4-1.6-4.9C777.8,554,777.9,555.5,778.1,557.8z"/>
	<path d="M792,608.1c0.3,1.1,0.4,2.3-0.1,3.6C791.5,610.4,791.5,609.3,792,608.1z"/>
	<path d="M791.7,619.5c-0.2-1.1-0.4-2.2-0.7-3.8C792.8,616.9,792.4,618.2,791.7,619.5z"/>
	<path d="M488.5,620.3c-0.5-1.1-1-2.1-0.7-3.4C489.2,618,488.9,619.2,488.5,620.3z"/>
	<path d="M430.4,195c-1.3,0.2-1.5-0.7-2.3-1.4C429.6,193.4,430.2,193.8,430.4,195z"/>
	<path d="M488.4,609.5c0.5,0.9,0.5,1.9,0.1,2.9C487.9,611.4,488.2,610.5,488.4,609.5z"/>
	<path d="M408.9,581.2c-0.5-0.3-0.8-0.7-0.2-1.3C409.3,580.3,409.2,580.7,408.9,581.2z"/>
	<path d="M441.9,188.6c-0.1,1.1-0.7,1.3-1.6,0.8c-0.4-0.6,0-1.1,0.5-1.3S441.7,188.1,441.9,188.6z"/>
	<path d="M471.2,546.7c-0.7-0.8-0.6-1.3-0.3-2C471.6,545.3,471.1,545.8,471.2,546.7z"/>
	<path d="M712.3,579.9c-0.6-0.7-0.5-1-0.1-1.2C712.8,579,712.6,579.3,712.3,579.9z"/>
	<path d="M411.9,589.6c-0.4-0.2-0.3-0.5-0.1-0.8c0,0,0.2-0.1,0.3,0C412.3,589.1,412.3,589.4,411.9,589.6z"/>
	<path d="M774.5,543.8c0.4,0.5,0.4,0.9,0,1.4C774.1,544.7,774,544.3,774.5,543.8z"/>
	<path d="M407.4,572.6c1,0.6,0.5,1.1,0.6,1.8C407,573.8,407.3,573.2,407.4,572.6z"/>
	<path d="M715.7,588.1c-0.1,0.1-0.3,0.2-0.4,0.3c0-0.1-0.2-0.2-0.1-0.3c0-0.2,0.2-0.3,0.2-0.5C715.5,587.8,715.6,588,715.7,588.1z"
		/>
	<path d="M433.6,223.3c0.2-0.5,0-1.3,0.9-1.3C434.7,222.9,434,223,433.6,223.3L433.6,223.3z"/>
	<path d="M425.8,192.4c0.9-0.2,1.2,0.1,1,0.8C425.9,193.5,426,192.7,425.8,192.4z"/>
	<path fill="#FFFFFF" d="M786.8,177.1c4.7-1.4,9.5-1.7,14,1.6c4.3,3.2,7.6,7.3,10.2,11.9c1.4,2.4,1.6,5.1,1.9,7.8
		c0.4,2.8,0.8,5.5,1.7,8.3c-0.3,1.4-2.5,2.2-1.3,4c0.9,0.3,0.5-0.8,1.2-0.9c3.4,5.7,6.6,11.5,8.2,18.1c0.4,1.8,0.6,3.5,0.5,5.3
		c-0.1,4.3-0.5,8.6-0.1,12.8c0.3,3.5-1.6,6.7-0.6,10.1c1,3.3,2.3,6.6,3.3,9.9c0.5,1.6,0.9,3.2,1.4,5.1c-0.9,0.1-1.7-1-2.8,0.3
		c0.5,3.8-1.1,7.9-0.9,12.6c3.2-3,3.1-6.5,3.8-9.9c2.5,9.1,2,20.7-0.9,29.6c-3.5,10.8-6.2,21.8-6.1,33.3c0,1.3,0,2.7-0.4,4
		c-1.3,4.4-1.8,9-1,13.8c-2.2-2.8-3.9-5.7-6.6-7.8c-2.7-2.2-5.4-4.4-8.9-5.2c3-7.8,3.9-15.6,3.3-23.8c-0.6-7.8-1.2-15.6-2.1-23.4
		c-0.6-6.2,0.4-12.3,1.4-18.4c0.5-3.2,0.7-6.4,1.7-9.6c0.7-2.2,0.4-4.6-0.9-6.9c-0.2,0.4-0.5,0.6-0.4,0.7c1.3,4.4-1.5,8.1-2.2,12.1
		c-2.1,10.9-2.4,21.9-0.5,32.8c2.1,12.2,2.5,24.3-2.2,36.4c-2.8-0.8-6-0.5-9.2-0.4c0-3-0.1-5.7,0-8.5c0.3-11.2-0.5-22.5,1-33.6
		c0.9-6.6,1.6-13.3,3.6-19.8c0.7-2.3,1.3-4.6,1.3-6.9c0-2.9,2-4.9,2.9-7.5c1.4,0.3,1.2,2.4,3.1,2.3c-0.3-2,0.4-4.1-1.3-6
		c-6.8-7.4-9.8-16.4-11.4-26.1c-0.8-4.9-1.8-9.7-2.3-14.6c-0.3-3.1-2.9-5.2-4.8-7.6c0.1,2.8,1.6,5,2.9,7.6c-0.9,1.4-0.6,3.2-0.6,4.6
		c-3.9,5.6-5,11.3-2.7,17.6c2.9,0.5,3.3-2.9,5.7-4.3c0.8,8.9,4,16.6,9.7,23.2c-0.6,3.5-1.6,6.9-3.3,10c-6.7,12.5-6.8,26.2-7.4,39.8
		c-0.1,2.7,0,5.4,0,8.4c-6.9-0.3-13.6,0.2-20.2,1.2c6.6,1.1,13.2-1.2,20.2,0.3c0.6,7.1-1.3,14.1-0.2,21c-1.6,1.5-3.3,1.7-5.1,1.7
		c-12.9,0.3-25.8,0.2-38.7-0.1c-11.2-0.2-22.4-0.2-33.6,1.1c-1.3,0.1-2.7,0.3-4.3,0.4c-0.1-6.3,1.3-12.4,0.8-18.5
		c1.8-0.9,3.7,0,5.8-0.8c-2.1-0.4-3.8-0.7-5.7-1c-0.8-4.1-1-8.2-1.2-12.4c-0.9-13.9-2.3-27.7-3.6-41.6c-0.4-3.9-0.4-7.8,0.1-11.8
		c0.3-2.3,0.3-4.7-2-6.3c4.1-4.4,5.9-9.8,7.3-15.3c2.1-8,4.2-16,5.8-24.1c1-5.2,1.9-10.4,2-15.7c0-4.1,3.1-7.2,2.9-11.4
		c1.3,0.3,1.2,0.9,1.2,1.5c-1.1,7.6-1.4,15.3-2.9,22.8c-1.2,6,0.2,11.6,2.7,17c3.6,7.8,11.9,12.1,20.6,8.6c3.3-1.3,6.8-2.2,9.6-4.5
		c0.6,0.3,0.2,1.2,1.2,1.3c3-5.4,6.3-10.7,8.5-16.4c0.7-1,0.9,0.5,1.5,0.1c1.2-1.4,1.3-3.3,1.3-4.9c0-5.7,3.6-10.5,4.2-16
		c0.7-5.7,1.8-11.3,3.1-16.9c0.2-1,0.2-2,1.1-3c1.5-0.3,3.2-0.9,5.2,0.4c-1.9,4.6-2.7,9.5-4.5,14c-5.2,12.6-6.7,25.5-4.8,38.8
		c0.2,1.2,0.4,2.4,0.5,3.7c0.2,1.2,0.2,2.4,0.7,3.4c3,5.1,5.8,10.4,11.3,13.2c-1,2-2.8,2.6-3.9,4.1c2.8,0.2,4.4-0.8,5.8-3.6
		c3.1,1.4,6.3,1.9,9.6,2.1c0.4-1.3-1-0.9-1-1.6c0-0.8,1.4-0.6,0.8-1.8c-0.1,0-0.4-0.3-0.7-0.3c-6.8-0.5-11.7-4.7-16.1-9
		c-3.8-3.7-4.9-9.3-4.8-14.7c0.2-10.1,1.6-20.1,3.8-30c0.5-2.2,0.5-4.4,1.5-6.5c1.5-3.4,2.6-6.9,6.3-9c0.8,0.9,2.1,1.4,3.6,1.1
		c1.4-0.2,2.9,0,4.3,0C789,178.1,786.2,179.2,786.8,177.1z"/>
	<path fill="#FFFFFF" d="M740.4,463.8c-0.7,5.7-1.5,11.3-2.2,17.2c-6.6,1.6-13.2,3.5-19.8,4.8c-4.2,0.8-8.5,0.2-12.8,0.1
		c-7.2-0.3-14.3-0.8-21.9-0.4c-0.5-8.4-1.7-16.7-0.9-25.1c1-10.4,1.9-20.8,2.7-31.2c0.8-10.3,2.6-20.5,3.9-30.7
		c0.1-1,0.5-1.8,1.3-2.3c4.6-3.1,5.6-7.9,6.4-12.9c0.8-4.9,1.2-9.8-1.3-14.4c0.5-1.2,1-2.3,1.7-3.8c0.4,1.8-0.6,3.4,1,4.8
		c0.1-1.2,0.2-2.1,0.3-3c0.2-4,1.8-7.5,3.9-10.8c0.8-1.2,1.2-2.4,1-3.8c0.4,0.2,0.8,0.3,1.2,0.4c1-0.7,0.2-2,1-2.9
		c0.4,1.4,1.6,2.8,0.2,4.3c2.1,0.6,3.9-0.8,6.1-0.2c-0.4,3.7-4,5.6-5.5,9c4.4-2,7.4-5.3,8.2-8.9c0.3-0.1,0.6-0.2,0.9-0.2
		c0.4,0,0.9,0.1,1.6,0.1c0.6,5.5-0.6,10.6-3,15.5c4.5-4.2,5.9-9.4,5.4-15.4c1-1.2,2.7-0.7,3.7-2c0.3-0.9,0.5-1.9-0.1-3
		c-1.4,0.3-0.5,2.7-2.2,2.4c-1.4,0.1-1-1.5-2.1-1.7c-0.6,1.3-1.2,2.6-3.1,2.2c-0.9-0.9-0.1-2.2-1.3-3.4c22.3-2.3,44.2-1.7,66.1-2.9
		c-0.1,1.3-1.1,1.6-2.1,1.9s-1.2,1.3-2.1,1.6c-2.9-0.4-2.9-0.4-3.2,1.7c0.8,0.3,1.2-1,2.4-0.2c-7.7,7.5-8.9,16.7-7.8,27
		c1.2,11.6,9.1,16.8,18.1,21.8c0.8,6.6,4.4,12.6,4.2,19.8c1.9-1.1,1.4-2.7,1.1-3.9c-0.8-3.6-1.7-7.2-2.7-10.8
		c-0.4-1.4-0.7-2.8-0.3-4.5c3.7,1.7,7.2,0.6,10.7-0.2c0.8,2.2,0.8,4.2,1,6.2c0.3,3.5,0.7,6.9,1.4,10.3c0.9,4.6,0.8,9.1,0.7,13.8
		c-0.1,7.3,0.6,14.6,1.6,21.8c0.7,5.3,0.6,10.6-0.7,15.7c-1.4,5.8-0.5,11.3,0.8,17.3c-18-0.9-35.9-0.9-53.8-3.1
		c-1.4-4.2-3.4-8-3.4-12.4c-0.1-7.5-0.9-15.1-3.2-22.2c-2.4-7.5-4-15.4-8.1-22.4c-0.8-1.4-1.2-2.8-1-4.5c0.8-7.5-0.5-14.9-1.2-22.3
		c0,2.7,0,5.4,0,8.1c-1.9-6.4-0.6-12.7,0.3-19.4c-1.5,0.8-1.5,1.9-1.7,2.8c-1.5,7.6-2.1,15.1,0.8,22.5c0.7,1.7,1,3.6,0.6,5.3
		c-0.6,2.8,0.3,5.1,1.2,7.6c2.5,7.2,2.6,15,4.1,22.4c0.6,3.2,0.1,5.8-1.5,8.6c-2.7,4.8-4.7,9.8-6.2,15.1c3.1-5.2,5-11.1,8.2-16.5
		c0.7,0.2,1.4,0.5,2.7,0.9c-2.5,7.3-4.8,14.6-5.7,22.2c1.6-2.4,1.8-5.2,2.5-7.8C739,468.2,739,465.8,740.4,463.8L740.4,463.8z"/>
	<path fill="#FFFFFF" d="M690.6,256.3c2.2-2.8,2.6-6.2,3-9.9c3.1,2.4,2.1,6.7,5.2,8.7c-1.1,3.3-1.3,7.1-3.3,9.5
		c-2.5,3.2-2.9,7.3-5.6,10.2c-1.3,1.4-0.9,3.2-0.7,4.8c0.4,3.7,0.7,7.4,0.7,11.1c0,10.5-2.4,20.6-6,30.4c-2.9,7.9-4.7,16.1-6.1,24.4
		c-0.1,0.8-0.3,1.5-0.8,2.2c-1,0.4-2,0.3-2.9-0.3c-0.5-3.8,1.9-7,1.9-10.7c-2.2,3.3-3,7.1-3.7,10.8c-1.8,1.5-3.7,0.7-5.6,0.7
		c-0.4-13-0.7-25.8-1.1-38.6c-0.1-3.4,0.4-6.7,0.1-10.1c-0.1-1,0.1-2.1,0.7-2.9c1.5-1.8,1.5-4.1,2.2-6.2c2-5.5,0-11.3,1.6-16.9
		c0.6-2.3,1.1-4.6,2.5-6.5c2.1-2.8,3-6.1,3-9.5c0-3.7,0.3-7.5,0.1-11.3c-0.3-5.8,1.5-11.5,3.7-17c4.5-2.1,3.7-7.2,5.8-10.7
		c1.1-1.7,1.2-4.4,0.4-6.5c-1.1-0.3-1.2,0.5-1.7,0.8c-0.1-0.2-0.3-0.3-0.3-0.5c-1.2-5.5,0.1-10.9,1.3-16.2c1.5-6.9,6-11.5,12.2-13.7
		c4.5-1.6,9.5-2.7,14.4-1.7c1.8,0.3,3-0.6,4.6-1.3c-0.4,5.8-1.1,11.3-2.5,16.7c-0.2,0.7-0.5,1.3-0.4,2c0.3,8.8-2.8,17-4.4,25.4
		c-1.1,5.7-3.1,11.2-4,16.9c-0.5,3.3-2.3,6.5-4.6,9.6c-3.2-2.9-4.1-6.7-4.9-10.2c-1.7-7.5-2-15.1-1.6-22.8c0.2-3.9-1-7.7-0.6-11.7
		c-0.3,0-0.5,0-0.8,0c-0.3,3.8-0.7,7.5-1,11.3c-0.8,8.9-1.7,17.8,0.8,26.7c0.9,3.3-0.3,7.1-1.3,10.6
		C690.9,254.7,690.5,255.4,690.6,256.3c-1.2,3-2.2,6-1.7,8.8C688.5,262.3,689.3,259.3,690.6,256.3z"/>
	<path fill="#FFFFFF" d="M694.5,379.1c0.7,6-1.4,10.3-5.6,14.3c-7,6.7-15.3,10.2-24.8,10.2c-3.3,0-7-0.4-10.3-1.5
		c-0.5-0.2-1.1-0.4-1.5-0.8c-3.2-3.4-6.9-6.5-8.4-11.1c-0.9-2.9-1.7-5.9-2-8.8c-1-11.1,2.9-20.6,12.2-26.6c4.7-3,10.8-3.8,16.5-3.1
		c2.7,0.4,5.5,1.1,8.2,1.5c3.1,0.5,5.5,2,7.3,4.3c3.4,4.3,6.4,8.7,7,14.5C693.5,374.4,695.3,376.7,694.5,379.1z"/>
	<path fill="#FFFFFF" d="M799.6,343.8c6.9,0.1,16.6,8,18,15.6c1.5,7.8,1.8,15.6-0.8,23.3c-3.2,9.6-9.6,13.9-20.1,14.9
		c-4.8,0.5-10.2,0.9-14-2.4c-5.9-5.2-11.5-10.7-12-19.7c-0.8-13.8,6.5-25.9,19.5-30.7C793.2,343.6,796.4,342.6,799.6,343.8
		c0,0.2-0.1,0.3-0.1,0.3c-0.1,0-0.1,0-0.1,0C799.5,343.9,799.6,343.8,799.6,343.8z"/>
	<path fill="#FFFFFF" d="M700.1,259.6c2.7,10.5-0.2,20.9,3,31.1c-1,0.8-1,2.1-0.8,3.6c0.5,5.2,1.1,10.4,0.6,15.7
		c-0.3,2.8,0.8,5.7,1.2,8.6c1.3,8.3,0.3,16.5-0.5,24.8c0,0.4,0,0.9,0.1,1.6c-2.6,1.1-3.1,3.3-2.6,5.9c0.4,2.6-0.4,4.8-1.8,6.9
		c-1.9,2.8-3.1,5.9-4.2,9.2c-4.3-9.1-4.3-9.1-15.1-18.2c-0.3-2.4,0.1-4.8,0.7-7.2c2.6-10.3,5.5-20.5,9.1-30.5
		c3-8.5,3.1-17.6,2.5-26.6c-0.3-5.6,0.1-10.9,3.7-15.6C698,266.3,698.2,262.9,700.1,259.6z"/>
	<path fill="#FFFFFF" d="M690.7,648.6c6.7,0.4,7,0.2,6.1-3.1c2.2-0.8,4.9,1,6.7-1.1c0.3-1.8-1.4-1.8-2-2.6c1.6-0.7,3.7-0.1,4.6-2.3
		c-1.1-2.3-3.3-0.5-4.7-1.3c-0.4-3.4-1.2-3.7-9.2-2.8c0.5-1.2,0.9-2.3,1-3.5c0-1.1,0.2-2.2,1.2-3.5c4.3-0.2,8.8,0.8,13.4,0.4
		c0.3,2-1.4,2.6-2,4c0.5,2.4,0.6,5.2,3.5,6.3c3.9,1.4,5.4,0.9,8.8-2.8c0.2,3.7,0.4,7.1,2.9,10c1.1,1.2,1.5,2.9,1.1,4.7
		c-0.5,2.3,0.5,4.4,1.8,6.3c-3.3,6.4-8.9,8.4-15.5,8.7c-2.1,0.1-4.2,0-6.1,1.3c-1.3,0.9-2.4,1.8-2.5,3.4c0,2.5-1.7,3.4-3.6,3.7
		c-5.1,0.7-10.2,1.8-15.3,0.5c-1.2-0.3-2.4-0.6-3.6-0.7c-4.3-0.4-8.1-1.8-10.6-5.9c1.7-6.5,8.8-9.1,11.4-14.9
		c4,0.6,7.7,1.8,11.1-1.5c1.2-0.1,2.6,1.5,4.1,0.1C692.4,650.1,692.4,650.1,690.7,648.6z"/>
	<path fill="#FFFFFF" d="M777.7,646.1c-1-4.6-1.9-8.8-2.9-13c1.5-0.4,1.6,1.5,2.9,0.9c0-0.5,0-1,0-1.8c4,0.3,7.7,1.6,11.5,2.2
		c0.9,1.8,1,3.7,0.7,5.4c-0.5,2.8,0.8,4.2,2.9,5.4c2.2,1.4,3.8,0.3,5.3-1.5c-0.8,4.8,1.6,9.4-0.2,14c-0.4,1.1,0.2,2.2,1,3.1
		c2.9,3,3,6.4,2,10.2c-0.4,1.5-1.3,1.9-2.2,2.7c-2.4,2.2-4.1,4.8-4.7,8.1c-8.1,4-16.6,4.5-25.4,2.1c-1.3-0.4-2.4,0.2-3.6,0
		c-1.2-0.2-2.4-0.5-3.8-0.8c0-2.7,0.9-5,1.8-7.4c1.1,0.6-0.6,1.6,0.6,2.1c1.5-3.8,3.1-7.6,4.7-11.6c4.6,0.9,9.1,0.6,13.4-0.7
		c0.9-0.3,1.7-0.7,2-1.6c0.4-1.1-1.3-1.6-0.9-2.3c0.7-1.9,2.7-1.6,3.1-3.6c-4.6-1.5-9.2,0-13.8-0.2c2.2-2.2,5-0.3,7.5-1.1
		c2.5-0.9,5.4,0,7.8-1.2c2-2.4,1.4-5.1,1.3-8.1C785.4,646.4,781.6,646.3,777.7,646.1z"/>
	<path fill="#FFFFFF" d="M836.4,353.7c0.6,0.1,1.1,0.3,1.4,0.8c3.1,5.4,6,10.9,5.7,17.3c-0.1,2.2,1.1,4.1,0.6,6.3
		c-1.1,4.3-2.5,8.8-5.9,11.5c-3.5,2.8-6.8,6.6-12.2,6.8c-4.9,0.2-9.7,2.2-14.7-0.6c2.8-2.4,5.8-4.4,7.4-7.9c1.1-2.4,2.2-4.6,1.7-7.3
		c-0.3-2,0.7-4,1.8-5.7c2.5-3.8,2.3-7.7,1.1-11.8c-1.3-4.4-1.8-9-2.4-13.6c-0.2-1.2,0.1-2.2,1.4-3.5c3.7,1.6,7.7,3.3,11.6,5
		C834.2,353.1,834.9,353.9,836.4,353.7z"/>
	<path fill="#FFFFFF" d="M698.3,625.1c-0.1-0.7-0.1-1.2,0.4-1.4c1.7-0.4,12.3,1.3,16,2.5c0.1,1.8,1.2,3.3,2.4,5.3
		c-2.6,0.2-1.3,2.2-1.8,3.3c-1.7,2.7-4.2,0.7-6.2,1.6c-1-0.9-1-2.3-1.6-3.5c0.8-1.6,2.4-2.9,2.7-5c-1.3-2.7-3.8-1.7-5.9-1.9
		C702.2,625.8,700.1,626,698.3,625.1z"/>
	<path fill="#FFFFFF" d="M796,635.5c0.6,1.6-1,3.4,1.8,3.8c-1.3,1.2-0.8,2.8-1.9,3.7c-4.2-0.8-4.6-1.7-4-8.9
		C793.6,633.8,795,634.2,796,635.5z"/>
	<path fill="#FFFFFF" d="M714.3,352.3c-1.9,0.4-1.2-2-3-1.7c-0.8,0.1,0.4,1.4-0.4,1.8c-1-0.7-0.7-1.8-1.2-2.9
		c1.3-0.1,2.4-0.2,3.5-0.3C714.1,350.2,714.4,351.2,714.3,352.3z"/>
	<path fill="#FFFFFF" d="M760.9,153.3c0.6-0.8,1.1-1.6,2.2-1.7c2.2,1.9,0.2,3.2-0.7,4.6C762.3,155,761.1,154.3,760.9,153.3z"/>
	<path fill="#FFFFFF" d="M762.7,124.2c-0.6,0.3-1.1,0.7-1.6,1c0,1.2,1.4,1.6,1.8,3.2c-1.7-1.2-3.2-1.9-4.9-2.2v0.1
		c0.3-1,1-1.7,1.7-2.4C760.7,123.9,761.7,124.7,762.7,124.2L762.7,124.2z"/>
	<path d="M836.4,353.7c0.5,1.2,1.5,2.2,1.4,3.8c-1.8-1.6-3-3.7-4.8-5.1c0-0.9,0.7-0.9,1.1-1.3C834.8,351.9,835.6,352.8,836.4,353.7z
		"/>
	<path fill="#FFFFFF" d="M746.8,125.1c1.4,1.1,3.3,1.7,3.9,4.3C748.7,128.1,747.3,127,746.8,125.1z"/>
	<path fill="#FFFFFF" d="M681.6,649.7c0.7,0.3,1.3,0.6,2.1,1c-1.2,1.2-2.7,0.8-4.1,1.6C679.8,650.9,680.6,650.4,681.6,649.7z"/>
	<path fill="#FFFFFF" d="M759.1,139c1.8,0.9,1.2,2.3,0.9,3.6C759.7,141.4,759.4,140.2,759.1,139z"/>
	<path fill="#FFFFFF" d="M709.2,120.7c1.1-0.4,1.8-0.1,2.5,0.3c0.2,0.8,0,1.5-0.5,2.1C709.9,122.7,710.1,121.4,709.2,120.7z"/>
	<path fill="#FFFFFF" d="M775.9,650c1.3-1.5,2.7-0.6,3.9-0.7C778.7,649.9,777.5,650.3,775.9,650z"/>
	<path fill="#FFFFFF" d="M734.1,119.9c-1.1-0.5-1.9-1.3-2.8-2.1C733.6,117.4,733.6,117.4,734.1,119.9z"/>
	<path fill="#FFFFFF" d="M758,126.3c-0.1,0.2-0.3,0.4-0.4,0.5c-0.5,0.3-1,0.5-1.4,0.8c-0.8-0.2-1-0.9-1.1-1.6
		C756.2,124.9,757,126.1,758,126.3L758,126.3z"/>
	<path fill="#FFFFFF" d="M740.5,463.9c-0.1-1.2,0.3-2.1,0.9-3.1c0.6,0.6,0.6,1.4,0.7,2.1C741.8,463.7,741,463.4,740.5,463.9
		L740.5,463.9z"/>
	<path fill="#FFFFFF" d="M753.1,142.7c-0.9-0.5-1.8-0.8-1.4-2.1C752.8,140.7,753.5,141,753.1,142.7z"/>
	<path fill="#FFFFFF" d="M747.8,118.5c1.2,0,1.7,0.6,2.3,1.5C748.7,120.3,748.2,119.7,747.8,118.5z"/>
	<path fill="#FFFFFF" d="M772.5,661.4c-0.6,0.4-1.1,0.9-1.9,0.5C771,660.5,771.6,660.6,772.5,661.4z"/>
	<path fill="#FFFFFF" d="M747,137.5c-0.7-1.1-2.3-1.4-0.9-3C747,135.2,747,136,747,137.5z"/>
	<path fill="#FFFFFF" d="M756.7,141.8c-1.1-0.6-1.6-0.9-2.4-1.3C755.8,139.3,756,140.4,756.7,141.8z"/>
	<path fill="#FFFFFF" d="M714.8,148.4c1-0.6,1.7,0,2.9,0.5C716.4,148.9,715.6,149.5,714.8,148.4z"/>
	<path fill="#FFFFFF" d="M716.5,114.3c0.6,0.7,1,1.4,0.9,2.3C716.4,116.1,715.7,115.6,716.5,114.3z"/>
	<path fill="#FFFFFF" d="M733,124.9c0,0.9-0.5,1-1.1,1C731.7,124.9,732.2,124.8,733,124.9z"/>
	<path fill="#FFFFFF" d="M770.8,664.4c-0.4,0.7-0.8,0.8-1.1,0.2C769.9,663.8,770.4,664.2,770.8,664.4z"/>
	<path fill="#FFFFFF" d="M730.8,124.4c-0.5,0-0.7-0.3-0.7-0.7l0.2-0.2C730.7,123.6,731,123.9,730.8,124.4z"/>
	<path fill="#FFFFFF" d="M728,126.7c0.3-0.4,0.7-0.6,1.1-0.7C729.3,127.1,728.7,126.9,728,126.7z"/>
	<path fill="#FFFFFF" d="M752.9,150.5c0.5,0.1,0.8,0.4,0.9,0.9C753,151.6,753,151,752.9,150.5z"/>
	<path fill="#FFFFFF" d="M759.1,156.8c0.1-0.1,0.2-0.3,0.4-0.4c0.1,0.2,0.2,0.3,0.3,0.5l-0.2,0.2C759.5,157,759.3,156.9,759.1,156.8
		z"/>
	<path fill="#FFFFFF" d="M692.9,489.4c0.6-0.2,0.7,0.2,0.9,0.7C693.1,490.2,692.7,490.1,692.9,489.4z"/>
	<path fill="#FFFFFF" d="M411.5,370.3c4.2-4.2,5.2-9.5,4.8-15.2c1.2-0.5,2.4-0.9,3.4-1.4c0.6-1.1,0.6-2.2,0.2-3.4
		c-1.7,0-0.5,2.9-2.3,2.4c-1.4,0.1-1-1.6-2.2-1.6c-0.3,1.6-1.2,2.5-3,2c-0.8-0.8-0.1-2-1.2-3.2c24.6-2.7,49-1.6,73.3-3.5
		c0.5,2.3,0.2,4.1,0.1,6.2c-2.3-1.2-0.9-4.1-2.6-5.3c-1.3,0.2-1.3,1.2-1.4,2.1c-1.8-1.3-3.8,3-5.5-1.2c-0.8,3.7-4.5,0.5-5.7,3.7
		c1.8,0.4,3.8-1,4.8,1.4c0.9-1.4,2.1-1.6,3.5-1.1c0.7,0.7,0.3,2,1.2,2.6c1.1-0.5,0.8-1.7,1.1-2.2c5.9,2.9,7.1,8.6,8.3,14.4
		c-2.5,0.8-5.1,1.6-7.6,2.4c-4.3,1.4-7.3,4.3-9.6,8.2c-6.8,11.3-7.1,23-3.4,35.3c1.1,3.7,3.1,7.1,6.3,8.9c5.5,3,11.1,6.4,17.9,4.4
		c1.8-0.5,3.8-0.6,5.8-0.8c0.8,2.1,0.7,4.2,0.8,6.3c0.3,7.1,0.7,14.1,1.6,21.1c0.7,5.5,0.7,11-0.7,16.4c-1.4,5.6-0.4,10.9,0.7,17
		c-18-0.5-35.8-1-53.6-2.9c-1.4-4.2-3.4-8-3.4-12.4c-0.1-7.5-0.9-15.1-3.2-22.2c-2.4-7.6-4.1-15.4-8.1-22.4c-0.8-1.4-1.3-2.8-1-4.5
		c1.1-7.6-0.8-15.1-1.1-22.6c-0.1,2.8-0.2,5.5-0.4,8.3c-1.7-6.3-0.2-12.6,0.5-19c-1.4,0.3-1.3,1.4-1.5,2.1
		c-1.6,7.7-2.2,15.3,0.7,22.9c0.8,2.2,1.1,4.5,0.6,6.6c-0.5,2,0.1,3.3,0.7,5c2.3,6,2.5,12.5,3.8,18.7c1.5,6.6,0.6,12.4-2.9,18.2
		c-2,3.3-3.2,7.1-4.1,10.9c3.1-5.3,5-11.1,8.1-16.5c0.8-0.2,1.5,0.3,2.8,0.6c-2.4,7.5-4.9,14.8-5.7,22.6c2.4-4.2,2.2-9.3,4.4-13.6
		c-0.7,5.4-1.4,10.7-2.2,16.1c-4.9,1.2-9.7,2.2-14.4,3.5c-4.5,1.3-9,1.8-13.6,1.6c-8.7-0.5-17.4-0.9-26.2-0.7
		c-3.4-19.4,0.6-38.5,1.8-57.8c8.2-3.1,11.3-9.9,13.2-17.6c1.2-4.9,2.3-9.9,1.6-15c-0.3-2.2,1.6-3.7,1.5-5.8
		c1.8-4.4,4.5-8.4,5.7-12.2c-1.1,3.8-4,7.7-5.6,12.2c-1.1,0.4-1,1.7-1.9,2.4c-2.6-5-1.7-11.2-6.6-15.3c1.6-3.6,1.6-7.6,3.9-11.4
		c0.4,1.7-0.6,3.2,1.2,4.9c-0.7-6.9,3.1-11.9,5.4-17.4c2.3,0.7,0.5-2.1,1.7-2.4c0.1,1.1,1.4,2.2,0.5,3.7c1.9,1.2,3.8-0.8,5.8,0.1
		c-0.2,3.8-4,5.6-5.3,9c4-1.6,7.3-5.2,7.9-8.7c0.8-0.5,1.7-0.4,2.7,0.2c0.6,5.1-0.7,9.8-2.7,14.5c-0.1,0.2-0.1,0.3-0.2,0.5
		C411.2,370.4,411.4,370.3,411.5,370.3z"/>
	<path fill="#FFFFFF" d="M398.7,268.1c1.1-0.9,2.3,0.2,3.4-0.7c-1.4-1.3-2.9-2-4.8-1.9c-1.2-1.9-2.3-3.9-3.5-5.7
		c3.4-2.7,5.9-5.9,7.5-9.9c1.8-4.3,2.7-8.8,4-13.2c3.5-11.5,5.4-23.3,9.1-34.7c0.3-1,0.1-2.3,2-2.9c-1.9,4.5-3.1,9-3.5,13.6
		c-0.6,6.8-0.7,13.4,2.3,19.8c3.8,8,12.3,12.5,21.1,9.5c3.6-1.2,7.4-2,10.3-4.2c1.1-0.5,0.6,1.3,1.6,0.8
		c8.5-9.8,18.5-40.7,18.6-48.8c1.4-0.3,2.2,0.6,3.3,1.9c-4.9,16.3-8.8,32.9-3.7,50.6c1.9,1.3,2.5,4.5,4.5,6.7s4.2,4,6.8,5.6
		c-0.8,1.9-2.9,2.4-4.4,4.5c3.2-0.4,5.3-2,7.2-3.6c1.2,0.6,2.3,1.2,3.4,1.8c-0.2,4.9,0.2,9.7,1.3,14.6c-1.5,2-2.7,4.3-4.2,7.4
		c2.2-1.5,3.3-3,4.9-4.8c0.5,3.5,3.2,6.1,1.3,9.6c2,0.5,2.5,2.2,1.9,3.9c-0.6,1.9-0.8,3.9-2,5.6c-1.1,1.5-1,3.4-1.2,5.2
		c-0.5,6.5-0.9,13-0.8,19.5c0,0.8,0.2,1.6-0.3,2.4c-7-0.8-14,0.5-21,1.3c6.9,0.6,13.8-1.1,21.2,0.1c0.8,7.6-1.6,15.1,0.2,22.5
		c-27.4,1.8-54.6-1.4-82.1,1.7c-0.1-6.4,1.3-12.5,0.8-18.6c1.7-1,3.6,0.2,5.4-0.8c-1.7-0.7-3.6-0.1-5.3-1
		C401.4,306.6,402.6,287.1,398.7,268.1z"/>
	<path fill="#FFFFFF" d="M511,377.2c-2.5-3-5.1-5.4-8.4-7.3c-0.1-2.4,0-4.9,1.1-7.8c-1.4-5.5-2.3-11.9-3.5-18.3
		c-0.9-5-1.7-9.9-1.1-15c0.7-6.2,1-12.6,2.5-18.7c1.2-4.7-0.5-8.8-1-13.2c-0.3-2.4-0.6-4.9-2.2-7.6c-0.4,3,0.8,5.5-0.1,8.1
		c-0.2-2.3-1.6-3.9-2.8-5.6c-5.7-7.6-7.1-16.6-8.7-25.5c-0.9-4.9-0.9-9.8-0.8-14.7c0.1-3.6-1.3-6.7-3.2-9.7
		c-2.7,3.1-0.4,7.2-3.1,10.1c-8-5.7-13.2-13.1-12.6-23.9c0.6-11.8,2.9-23.3,5.8-35.2c4.8,2.9,10.1,4.4,14.5,7.8
		c3.4,2.6,7.7,3.7,11.4,5.6c5.5,2.8,10.7,6,12.3,12.7c1.3,5.5,2.4,11,1.1,16.6c-1.3,5.9-0.5,11.4,2.4,16.8c2.2,3.9,3.9,8.1,3.3,12.9
		c-1.9,1.8-3.7,13.6-2.7,18.5c0.7-2.3,0.2-4.3,0.6-6.2c0.4-1.9,1.1-3.8,1.9-5.6c-0.5,5.5,1.1,11,0.1,16.4c-0.2,0.9,0.1,2,0.4,3
		c1.9,6.9,1.5,13.7,0.3,20.6c-0.1,0.7-0.2,1.3-0.2,2c0,0.2,0.1,0.4,0.3,0.7c1.8-1,1.5-3.2,2.7-4.6c1.4,4.3,1.5,8.7,1,13.1
		c-1.1,9.6-1.5,19.3-4.7,28.5C514.8,360.1,512.8,368.6,511,377.2z"/>
	<path fill="#FFFFFF" d="M387.4,232.5c-1.3,0.3-1.7,0.8-1.5,1.4c0.9,3.8-0.4,7.6,0,11.3c0.7,6.2,2.6,12.1,6.1,17.3
		c3.3,5,5.3,10.4,5.8,16.2c0.5,6.5-1.8,12.5-3.9,18.5c-4.2,2.2-2.9,6.5-4,10c-2.9,9-2.2,18.4-3.9,27.5c-0.5,2.6-1.4,5.2-2.7,7.6
		c-2.8,5.1-4.4,10.7-6.2,16.3c-1.3,3.9-1.8,7.7-1.9,11.9c-3.9,0.7-7.8,1.2-12.1,0.8c0.6-4.2-0.2-8.2,1.1-12.3
		c1.2-3.6,1.1-7.6,0.6-11.4c-0.6-4.2-0.1-8.3,0.6-12.4c0.4-2.5,0.7-5.1,1-7.7c0.2-1.8,0-3.7,1.7-5.2c1-0.9,1-2.7,0.9-4.2
		c-0.4-7.1,0.2-14.1,3.1-20.8c0.8-1.9,0.5-4.5,0.7-6.7c0.6-6.3,1.8-12.6-0.7-18.9c-1.8-4.6,0.5-8.9,2.1-13
		c2.2-5.6,3.1-11.1,2.4-17.3c-1.4-12.8,3.7-23,14.6-30.1c3.9-2.5,8.6-3.1,12.9-4.8c2.3-0.9,4.1-2.5,6.8-3.1
		c-3.4,8.6-3.7,17.7-6.3,26.2c-1.6,5.4-3.1,10.7-4.2,16.2c-0.8,4-3.4,7.5-5.8,10.9c-0.2,0.3-0.8,0.4-1.3,0.7
		C388.8,249.8,389,240.9,387.4,232.5z"/>
	<path fill="#FFFFFF" d="M394.3,400.7c-0.9,5.8-0.8,13-5.2,19c-2,2.7-3.9,5.5-7.7,5.8c-0.5,0.1-1.2,0.4-1.5,0.8c-2.7,4-6.5,2.7-10,2
		c-5.3-1.1-10.6-2.8-15-6.1c-4-2.9-6.2-7.3-8.8-11.3c-4.3-6.8-4.7-14-1.2-21.1c3-6.1,7.4-11.4,13.4-14.7c4.7-2.6,10.2-2.6,15.5-2
		c9.9,1.2,16,6.8,18.7,16.3C393.5,392.7,394.5,396,394.3,400.7z"/>
	<path fill="#FFFFFF" d="M468.5,399c0-5.9,0.5-11.6,3.4-16.9c4.5-8.3,11.6-12.1,20.9-12c2.7,0,5.5-0.7,7.8,1.1
		c3,2.4,6.2,4.7,7.7,8.3c4.6,11.3,6,22.9,0,34.1c-1.9,3.6-5.6,6.1-9.2,8.1c-2.7,1.5-5.7,1.9-8.8,1c-1.7-0.5-3.5-0.7-5.3-1
		c-9.6-1.6-17.3-9.9-16.5-20C468.6,400.8,468.5,399.9,468.5,399z"/>
	<path fill="#FFFFFF" d="M414.5,636.4c0.3,4.3,0.3,7.6,2.7,10.3c1.2,1.3,1.8,3.2,1.4,5.3c-0.5,2.3,0.4,4.4,1.9,6.2
		c-3.3,6.3-8.9,8.3-15.3,8.8c-1,0.1-2,0-3,0c-3.1,0.2-5.4,2-5.8,4.9c-0.3,1.9-1.5,2.8-3,3.1c-4.9,0.8-9.9,1.9-14.9,0.9
		c-1.7-0.3-3.5-0.8-5.3-0.9c-4-0.4-7.6-1.9-10-5.9c1.7-6.4,8.7-9.1,11.4-14.8c6.1,1.4,8.8,1,10.7-1.4c1.5-0.5,3.2,1.9,4.5-0.2
		c0.1-1.4-1.3-1.8-2-2.9c2-0.6,4.4,0.9,5.9-1.1c0.6-0.8-0.2-1.5-0.3-2.2c2.2-0.8,4.9,0.8,6.6-1c0.4-2.1-1.5-1.9-1.9-3
		c1.6-0.6,3.7,0.2,4.6-2.1c-1.1-2.6-3.5-0.3-4.9-1.3c0.4-3.6-2.4-4.2-8.9-2.8c0.3-1.2,0.6-2.3,0.8-3.5c0.2-1.1,0.2-2.2,1.2-3.5
		c4.3-0.3,8.9,0.6,13.5,0.1c0.3,2-1.3,2.8-2.1,4.1c0.7,2.6,0.7,5.5,3.9,6.4C409.5,641.1,412.5,640.8,414.5,636.4z"/>
	<path fill="#FFFFFF" d="M474.1,646.7c-0.5-4.3-2.2-8.4-2.5-12.7c1.2-0.2,1.4,1.2,2.4,1.2c1-0.2-0.1-1.3,0.9-1.8
		c3.6,0.2,7.3,1.5,11.1,2.2c0.6,1.9,0.8,3.8,0.5,5.5c-0.6,2.9,1.1,4.1,3,5.3c2.1,1.3,3.5,0.2,5.1-1.4c-0.7,4.6,1.6,9,0,13.5
		c-0.5,1.4,0.1,2.6,1.1,3.7c2.6,2.8,2.7,6,1.9,9.6c-0.3,1.5-1.2,2.2-2.2,3.1c-2.4,2.2-4.1,4.8-4.7,8c-10.4,6.2-21.5,2.6-32.6,1.7
		c-0.8-2.5,0.9-4.4,1.1-6.5c0.8-0.1,0.5,0.7,1.1,0.8c1.5-3.7,3-7.5,4.6-11.4c2.8,0.1,5.4,0.9,8.1,0.3c2.5-0.6,5.4-0.3,7.3-2.4
		c0.5-1.4-1.1-1.9-0.7-2.8c0.4-1.7,2.5-1.3,3-3.3c-4.5-2.1-9.2,0.3-13.7-0.4c2.3-1.9,5.1-0.3,7.6-1c2.6-0.8,5.4-0.1,7.7-1.1
		c1.8-2.5,1.3-5.2,1.3-8C482,647,478.1,647.7,474.1,646.7z"/>
	<path fill="#FFFFFF" d="M506.6,420.4c3.2-4,6.1-7.7,9.1-11.4c1.9-2.4,2.4-5,1.9-7.9c-1-5.7-1.9-11.5-3.4-17.2
		c-0.6-2.4-1.8-4.8-0.9-7.1c0.9-2.2,1.8-4.3,2.1-7.6c5.5,4.3,12.1,5.9,14.1,13.1c1.7,6.1,5,11.9,2.8,18.6c1.3-3.2,3-6.4,0.6-9.8
		c-0.2-0.3-0.4-0.8-0.4-1.2c0.5-4.7-2.2-8.4-3.9-12.3c-1-2.5-3.2-3.9-5.5-5.2c2.1,0.2,3.8,1,5.1,2.7c9.2,11.5,10.9,24.7,4.7,37.8
		c-2.8,5.9-8.4,8.3-14,10.2C514.8,424.4,510.8,422.1,506.6,420.4z"/>
	<path fill="#FFFFFF" d="M388,376.1c-3.6-2.4-7-3.9-10.4-4.7c-0.6-0.8-0.6-1.5-0.4-2.1c2.3-8.9,3.9-17.9,8.5-26.1
		c4.9-8.7,7.1-18.3,6.9-28.4c-0.1-3.3,0.6-6.5,1.3-9.6c0.9-3.8,2.8-7.2,4.3-10.9c0.5,5.5,1.4,11,1.3,16.5c-0.1,3,0.8,6,1.3,9
		c1.3,8.1,0.2,16.1-0.3,24.1c0,0.8-0.1,1.5-0.2,2.4c-2.3,0.7-2.9,2.5-2.6,4.7c0.5,3.1-0.4,5.8-2.2,8.5c-1.9,2.9-3.4,6.1-3.9,9.6
		C391.1,371.8,388.2,373,388,376.1z"/>
	<path fill="#FFFFFF" d="M490.6,290.3c3.3,3.3,5.7,6.8,8,10.1c1.8,2.5,1.1,6.5,0.7,9.9c-0.7,5.3-2.1,10.6-2,16c0,8.4-0.7,16.9,2,25
		c1.9,5.8,1.4,11.5,0.9,17.2c-3.3,0-5.6-1.3-6.3-4.7c-0.1-0.4-0.3-0.9-0.6-1.2c-4.1-3.5-4.3-8.1-3.4-13c0.4-2.4,0-4.4-2.4-5.8
		c1.6-2,1.4-4.3,1.5-6.5c0.6-12,0.1-24,0.9-36C490,297.7,490.5,294.2,490.6,290.3z"/>
	<path fill="#FFFFFF" d="M411.4,627c-0.4,2.5,1.9,3.7,2,5.7c-0.3,0.8-0.7,0.3-1.1,0.2c-0.9,0.9,0,2.2-0.9,3.6
		c-1.2,2.3-4-0.3-5.8,1.1c-1-1.1-1-2.5-1.6-3.7c0.8-1.7,2.5-2.9,2.5-5.4c-3.4-3-8.3-0.4-11.9-3.2C400.3,624.4,405.5,626.3,411.4,627
		z"/>
	<path fill="#FFFFFF" d="M488.5,635.1c1.6-0.4,2.8,0.3,3.8,1.2c0.7,1.2,0.3,2.1,0,3c0.4,0.7,1.4,0.3,1.6,1.4
		c-0.7,0.9-0.5,2.5-1.6,3.4C487.7,643.1,487.8,640.8,488.5,635.1z"/>
	<path fill="#FFFFFF" d="M458.4,123.7c-2.2-1.5-4.4-2.4-6.5-0.5c-0.7-0.6-1.1-1.1-1.1-1.8c1-1.1,1.8,0.4,2.6,0.1
		c1.3-0.3,1.3-2.6,3.4-1.7C456.7,121.2,457.7,122.3,458.4,123.7z"/>
	<path fill="#FFFFFF" d="M520.9,286.7c1.2,3,1.3,5.8,1.4,8.9C520.8,292.8,520.5,290.9,520.9,286.7z"/>
	<path fill="#FFFFFF" d="M407.4,353.4c-1-0.6-0.6-1.8-1.1-2.6c1.1-0.9,2.3-0.5,3.6-0.9c0.7,0.9,0.8,2,1.1,3.1
		c-1.9,1.1-1.3-1.7-2.2-1.6C406.8,351.5,408.4,353.1,407.4,353.4z"/>
	<path fill="#FFFFFF" d="M456.6,149.1c0.5-0.9,1-1.6,1.9-1.8c0.2,0.1,0.5,0.1,0.6,0.2c1.8,1.9-0.2,3.1-1.1,4.5
		C458.2,150.7,457.3,149.9,456.6,149.1z"/>
	<path fill="#FFFFFF" d="M487,348.3c0.5,2.7,0.4,5.4,0.1,8.9C485.3,353.7,486.9,351,487,348.3z"/>
	<path fill="#FFFFFF" d="M488,359.9c1.4,2,2.5,4.1,2.3,6.7C488.6,364.7,488.8,362.1,488,359.9z"/>
	<path fill="#FFFFFF" d="M435.6,124.9c0.4-1,1.3-1.2,2.1-1.5c1.2,0.1,1.4,1.4,2.3,1.9C438.5,124.8,436.9,126.1,435.6,124.9
		L435.6,124.9z"/>
	<path fill="#FFFFFF" d="M513.8,406.9c0.3-2,0.6-3.9,0.9-6.1C515.8,403.2,515.3,405.2,513.8,406.9z"/>
	<path fill="#FFFFFF" d="M380.4,652.1c-1.5,0.3-2.9,0.6-4.5,0.9C377.2,650.7,378.5,650.4,380.4,652.1z"/>
	<path fill="#FFFFFF" d="M430.1,115.8c-1.3-1-2.4-1.5-3-2.8C429.1,112.6,429.9,113.5,430.1,115.8z"/>
	<path fill="#FFFFFF" d="M446.2,124.6c-1.6-0.9-3.1-1.9-3.6-3.8C444.2,121.6,445.7,122.6,446.2,124.6z"/>
	<path fill="#FFFFFF" d="M455.9,138.8c-0.4-1.7-0.7-2.9-1-4.3C456.3,135.8,456.3,135.8,455.9,138.8z"/>
	<path fill="#FFFFFF" d="M407,118.7c-1-0.7-1.4-1.4-1.4-2.3c0.7-0.4,1.3-0.3,2,0.1C407.8,117.2,407.6,117.9,407,118.7z"/>
	<path fill="#FFFFFF" d="M437.3,464.5c-0.3-1.4,0.2-2.1,1.1-3.5C438.1,462.7,439.6,463.9,437.3,464.5z"/>
	<path fill="#FFFFFF" d="M441.3,130.3c1.8,0.2,1.2,1.4,1.5,2.2C441.9,132.2,441.1,131.7,441.3,130.3z"/>
	<path fill="#FFFFFF" d="M473,650.7c1.4-0.7,2.6-0.3,4.4-0.1C475.6,650.9,474.4,651.2,473,650.7z"/>
	<path fill="#FFFFFF" d="M447.3,136.1c1.4,0.2,2,0.7,1.6,2C448,137.9,447.4,137.4,447.3,136.1z"/>
	<path fill="#FFFFFF" d="M483.6,255.7c-1.2-1.5,0-1.8,0.7-2.4C484.8,254.2,484.5,254.9,483.6,255.7z"/>
	<path fill="#FFFFFF" d="M450.9,135.7c0.9-0.1,1.2,0.5,1.3,1.3c-0.8,0.2-1.2-0.5-1.6-0.8C450.4,135.9,450.5,135.8,450.9,135.7z"/>
	<path fill="#FFFFFF" d="M394.6,639.3c-0.5,0-1.1,0-1.6,0c0-0.1,0-0.1,0-0.2c0.5,0,1.1-0.1,1.6-0.1
		C394.7,639.2,394.6,639.2,394.6,639.3z"/>
	<path fill="#FFFFFF" d="M468.9,662.1c-0.5,0.7-0.9,1.1-1.8,0.7C467.3,661.8,467.9,661.7,468.9,662.1z"/>
	<path fill="#FFFFFF" d="M413.2,112.2c-1.1-0.5-1.6-1-0.9-2.2C413.1,110.5,413,111.3,413.2,112.2z"/>
	<path fill="#FFFFFF" d="M449.7,147.7c-0.7-0.5-1-0.9-1.1-1.5C449.4,146.1,449.6,146.6,449.7,147.7z"/>
	<path fill="#FFFFFF" d="M412.5,144.1c-0.6,0.3-1.2,1-1.6,0.1C411.4,143.4,412,144.1,412.5,144.1z"/>
	<path fill="#FFFFFF" d="M445.5,115.4c-1.1,0.3-1.5-0.2-1.6-1C445,114,445.2,114.9,445.5,115.4z"/>
	<path fill="#FFFFFF" d="M425.3,121.8c-0.7,0.7-1.3,1.2-2.2,0.8C423.7,122.1,424.2,121.6,425.3,121.8z"/>
	<path fill="#FFFFFF" d="M467.6,665.5c-0.5,0.4-0.9,0.5-1.4,0C466.7,665,467.2,665.2,467.6,665.5z"/>
	<path fill="#FFFFFF" d="M423.6,117.6c-0.7,0-1.3-0.1-1.1-0.6C422.7,116.6,423.2,116.8,423.6,117.6z"/>
	<path fill="#FFFFFF" d="M389.5,490.2c0.5,0.2,0.8,0.5,0.8,1C389.4,491.3,389.2,491,389.5,490.2z"/>
	<path d="M822.6,306.7c0-4.7,0.1-9.3,1.6-13.8c0.3-1-0.3-2.4-0.5-3.6c-0.2-1.5-1.1-2.9-0.2-4.5C826.5,287.4,826,298.6,822.6,306.7
		L822.6,306.7z"/>
	<path d="M731,323.1c-2.4-1.3-3-7.2-1.3-12.6C731.4,312.9,731.7,316.3,731,323.1z"/>
	<path d="M785,207.9c3.5,1.7,5.7,5,9.6,7C790.6,215.1,785.9,211.7,785,207.9z"/>
	<path d="M778.9,271.8c0.2-1.3,1.5-1.6,2.3-2.2c2-1.4,3-3.5,4-5.9c1.6,1.5,1.2,2.9,0.4,4.3C784.1,270.5,781.5,271.2,778.9,271.8
		L778.9,271.8z"/>
	<path d="M729.9,307.5c-1.3-4.6-0.9-8.8-0.9-13.2C730.5,295.9,730.9,301.8,729.9,307.5z"/>
	<path d="M795.1,214.4c2-0.4,3.6,1.9,5.4-0.2c1.8,2,3.5,3.7,5.1,5.5c-0.1,0.1-0.1,0.2-0.2,0.3c-1.6-1.3-3.2-2.6-4.9-3.9
		C798.2,217.2,796.5,216.3,795.1,214.4z"/>
	<path d="M814.1,331.8c1.4,3.3,3.1,6.6,2.5,10.6c-1.2-3.4-2.3-6.9-3.5-10.3C813.4,332,813.7,331.9,814.1,331.8z"/>
	<path d="M739.3,256.4c-4.6-1.4-5.9-3-4.7-6.1C736.6,252,737,255,739.3,256.4z"/>
	<path d="M734.3,339.8c-1.5-3.8-3-7.6-3.4-11.8c0.2-0.1,0.4-0.1,0.6-0.2c1.2,3.9,2.4,7.8,3.7,11.7
		C734.9,339.6,734.6,339.7,734.3,339.8z"/>
	<path d="M730.7,332.5c1.1,3.2,1.7,6.5,1.2,9.9C730,339.3,730.8,335.8,730.7,332.5z"/>
	<path d="M733.6,303c2.8-1.4,5.7-0.8,8.5-0.8C739.3,302.8,736.6,304.8,733.6,303z"/>
	<path d="M820.9,237c-2.1-2.2-2.3-4.6-3.9-6.7C820.2,231.1,821.4,233.1,820.9,237z"/>
	<path d="M719.6,304.5c2.7,0.4,5.4-1.3,8.5-0.5C725.6,306.1,723.4,306.2,719.6,304.5z"/>
	<path d="M728.3,273.5c0.6,2.1,1.8,4.2,1,6.5C727.5,278.1,727.8,275.8,728.3,273.5z"/>
	<path d="M781.9,244.5c-0.7-2.1-1.8-3.7-0.7-5.8C783.3,240.3,783.2,242.1,781.9,244.5z"/>
	<path d="M766.9,258.2c1.7-1.6,3.2-2.5,4.9-3.4C771.4,257.5,771.2,257.6,766.9,258.2z"/>
	<path d="M807.8,253c0.6,1.5,1.9,3,0.4,5.2C807.6,256.2,807.3,254.7,807.8,253z"/>
	<path d="M822.5,306.7c0.1,2.1-0.2,4.1-1.5,6.4C820.4,310.3,821.7,308.5,822.5,306.7L822.5,306.7z"/>
	<path d="M811,328.5c-1.4-1.6-2.3-3.4-2.2-5.6c1.1,1.6,2,3.4,2.5,5.3C811.2,328.3,811.1,328.4,811,328.5z"/>
	<path d="M735.2,315.6c1.2-1.1,2.5-1.2,3.9-0.6C737.8,315.5,736.6,316.2,735.2,315.6z"/>
	<path d="M787.8,272.8c1.2,2.3-0.6,3-2,4.6C785.7,275.1,787,274.1,787.8,272.8z"/>
	<path d="M748.5,303.2c1.3-0.8,2.4-0.7,3.7-0.6C750.5,304,750.5,304,748.5,303.2z"/>
	<path d="M806.5,244.5c1,1.9,1,1.9,0.3,4.1C806.1,247.1,806.1,246,806.5,244.5z"/>
	<path d="M816,223.9c1.4,1.9,1.7,3.1,1,4.7C815.4,227.4,815.6,226.1,816,223.9z"/>
	<path d="M790.6,178.6c1.8-1.1,2.8,0,4.4,0.9C793.1,180,791.9,179.9,790.6,178.6z"/>
	<path d="M783.6,333.4c-1.3,0-2.6,0-3.9,0l0,0c1.3-0.1,2.6-0.1,3.9-0.2C783.6,333.3,783.6,333.3,783.6,333.4z"/>
	<path d="M782,322.8c-1.4,1.3-3.1,0.3-4.7,0.4C778.9,323.1,780.5,323,782,322.8L782,322.8z"/>
	<path d="M778.9,271.7c-0.5,1.3-1.2,2.3-3.1,2.1C776.4,272.2,777.5,271.8,778.9,271.7L778.9,271.7z"/>
	<path d="M714.9,304.2c0.9-0.7,1.6-1,2.3,0C716.5,304.9,715.9,305,714.9,304.2z"/>
	<path d="M782.1,322.9c1.4-0.4,2.7-0.6,4.3-0.2C784.8,323,783.4,323,782.1,322.9L782.1,322.9z"/>
	<path d="M772.2,275c0.3-1,0.9-1.6,2-1.7C773.6,274.6,773.6,274.6,772.2,275z"/>
	<path d="M765.3,258.5c-0.7,1.3-1.6,1.3-2.7,1C763.2,258.5,764,258.2,765.3,258.5z"/>
	<path d="M728.1,292.5c-0.5-0.8-0.4-1.4-0.1-2.1C729,291,728.9,291.6,728.1,292.5z"/>
	<path d="M782.9,281.6c0.4-1.2,1-1.8,1.8-2.1c0.1,0.2,0.4,0.4,0.3,0.5C784.7,280.9,784.1,281.5,782.9,281.6z"/>
	<path d="M771.5,324c1.4-0.1,2.1-0.2,2.7-0.2c0,0.1,0,0.1,0,0.2C773.5,324,772.9,324,771.5,324z"/>
	<path d="M799.4,182.1c-0.8,0.1-1.5,0.1-1.5-0.9C798.9,180.7,799,181.7,799.4,182.1z"/>
	<path d="M807.9,308.6c0.7,0.8,1,1.3,1.1,2.1C808.2,310.3,808,309.8,807.9,308.6z"/>
	<path d="M754.8,260.2c0.8-0.8,1.4-0.8,2-0.5C756.2,260.5,756.2,260.5,754.8,260.2z"/>
	<path d="M799.1,191.3c0.9,0.6,0.9,1.1,0.9,1.8C798.8,192.6,799.2,192,799.1,191.3z"/>
	<path d="M820.3,318.7c-0.2-0.5,0.1-0.8,0.5-1C821,318.2,820.8,318.5,820.3,318.7z"/>
	<path d="M807.7,241.6c-0.9-0.4-1-0.9-0.9-1.6C808,240.3,807.6,241,807.7,241.6z"/>
	<path d="M803.4,207.8c-0.4-0.5-0.4-1-0.2-1.6C804.1,206.6,803.9,207.2,803.4,207.8z"/>
	<path d="M811.3,328.2c0.3,0.4,0.6,0.9,1.1,1.5c-1.1,0-1.2-0.6-1.4-1.2C811.1,328.4,811.2,328.3,811.3,328.2z"/>
	<path d="M752.1,433.8c9.9,11.5,17.6,24.1,18.2,39.9C767.9,458.7,760.5,446,752.1,433.8z"/>
	<path d="M759.1,351.1c0.8,2.5,0.7,5.1,0.6,7.6c-0.1,4.3-0.6,8.6-0.1,13c-1.4-0.4-1.4-1.3-1.5-2c-0.4-5.6-0.8-11.1-0.6-16.7
		C757.5,351.9,757.9,351.2,759.1,351.1L759.1,351.1z"/>
	<path d="M709.7,434.3c7-5.8,14.2-11.4,20.6-17.9C729.4,420.8,716.8,430.7,709.7,434.3z"/>
	<path d="M726.8,454.7c1.5-7.5,5.6-14.2,7.2-21.9c1.5,0.9,0.9,2.1,0.6,3.3C732.5,442.5,729.5,448.6,726.8,454.7z"/>
	<path d="M751.1,367.8c0.7-4.9,1.4-9.9,2.1-14.8c0.4,0.1,0.7,0.1,1,0.2c1.2,5.2-2.1,9.7-1.9,14.8
		C751.9,367.9,751.5,367.8,751.1,367.8z"/>
	<path d="M701.4,390.8c2.3-5.9,5.2-11.5,7.4-17.3C708.2,380,703.9,385.1,701.4,390.8z"/>
	<path d="M747.5,449.6c1.5,4.8,1.8,9.8,3.1,15C748,460.5,746.3,451.6,747.5,449.6z"/>
	<path d="M733.5,366.1c-0.4-4.4,0.5-8.9-0.5-13.8C734.7,354.8,734.8,361.1,733.5,366.1z"/>
	<path d="M791.8,452.8c-0.9-1.5-1.5-2.9-0.9-4.7c0.5-1.6,0.7-3.3,1.1-4.9c0.4-1.5-0.3-3.1-0.2-5.2c1.5,3.1,1.4,5.7,0.5,8.2
		C791.5,448.4,791.4,450.6,791.8,452.8L791.8,452.8z"/>
	<path d="M794.2,464.5c1.9,5.1,2.4,10.3,1,13.9C796.1,473.7,794.6,469.2,794.2,464.5L794.2,464.5z"/>
	<path d="M752.2,351.2c-2.1,2-4,1.3-6.5,1.1C748.1,350.8,750,351.5,752.2,351.2z"/>
	<path d="M759.2,351.2c2.5-1.5,5-0.9,7.4,0.3C764.1,352.5,761.6,350.6,759.2,351.2L759.2,351.2z"/>
	<path d="M737.1,418c2,0.8,3.4,2.5,5,3.9c-0.1,0.2-0.3,0.4-0.4,0.5c-1.7-1.3-3.4-2.5-5.1-3.8C736.7,418.4,736.9,418.2,737.1,418z"/>
	<path d="M720.7,400.2c1.6-1.1,3.2-2.1,5.1-2.2C724.4,399.4,722.7,400.1,720.7,400.2z"/>
	<path d="M728.4,351.8c-1.1-0.8-1.2-1.6-0.8-2.6C729,349.9,728.7,350.7,728.4,351.8z"/>
	<path d="M731.9,349.1c0.8,0.8,0.7,1.5,0.1,2.3C730.9,350.7,730.6,350,731.9,349.1z"/>
	<path d="M791.7,452.9c0.2,1.1,0.4,2.3,0.7,3.4v-0.1C791.6,455.2,791.9,453.9,791.7,452.9L791.7,452.9z"/>
	<path d="M734.1,351.1c0.3-1.2,0.7-1.5,1.5-1C735.5,350.8,734.9,350.8,734.1,351.1z"/>
	<path d="M708.2,435.8c-0.2,0.3-0.4,0.5-0.6,0.7C707.4,436,707.6,435.8,708.2,435.8z"/>
	<path d="M705,438.4C705.2,438.2,705.1,438.3,705,438.4C704.6,438,705.1,438,705,438.4z"/>
	<path d="M793.1,458.9c-0.9-0.7-0.7-1.7-0.7-2.7v0.1C792.6,457.1,792.9,458,793.1,458.9L793.1,458.9z"/>
	<path d="M793.8,461.6c-0.9-0.7-0.8-1.7-0.6-2.7l0,0C793.6,459.8,793.6,460.7,793.8,461.6L793.8,461.6z"/>
	<path d="M793.7,461.6c0.6,0.9,0.6,1.9,0.5,2.9h0.1C793.7,463.6,793.8,462.6,793.7,461.6L793.7,461.6z"/>
	<path d="M683.2,279.8c-0.6-0.2-0.8-0.7-0.9-1.3c-0.5-3.2-1.7-6.1-3.1-9.7C683.7,272.8,684.8,276.1,683.2,279.8L683.2,279.8z"/>
	<path d="M690.6,256.3c-1.5,4.2-1.7,8.5-1.2,12.9C688.1,264.7,688,260.4,690.6,256.3L690.6,256.3z"/>
	<path d="M683.7,285.8c0.2,2.1,0.3,3.6,0.4,5.2C682,289.4,681.9,288.9,683.7,285.8z"/>
	<path d="M683.2,279.9c2.2,1.2-0.1,2.8,0.4,4.2C681.9,282.8,682.4,281.3,683.2,279.9L683.2,279.9z"/>
	<path d="M679.2,330.4c-0.8,1.3-0.2,3.2-1.9,4.1C677.3,333,676.6,331,679.2,330.4L679.2,330.4z"/>
	<path d="M679.3,330.5c-0.2-1.7,0.2-3.2,1.2-4.5C681,327.7,680.4,329.2,679.3,330.5L679.3,330.5z"/>
	<path d="M687.5,217.1c0.9,1.7,0.6,2.8-0.6,4C686.4,219.7,686.2,218.6,687.5,217.1z"/>
	<path d="M670.7,382.8c-1.5,0.3-2.9,0.7-4.3,0.7c-2.7,0.1-5.1-1.6-5.8-4.1c-0.7-2.4,0.4-4.3,2.8-6c2.1-1.5,4.2-2.6,6.8-1.3
		c3.1,1.6,4.1,5,2,7.9C671.5,380.9,670.9,381.7,670.7,382.8z"/>
	<path d="M792.5,364.9c3.2,0.1,6.4,3.2,6.2,6.3c-0.2,3.2-4.4,8.4-6.9,8.4c-2.4,0-7.6-5.3-7.6-7.7
		C784.2,368.7,788.8,364.8,792.5,364.9z"/>
	<path d="M815.6,376.4c0.6,0.1,1.2,0.4,1,1.1c-0.9,4.1-2.3,7.9-5.6,10.8C812.8,384.3,815.2,380.7,815.6,376.4L815.6,376.4z"/>
	<path d="M812.3,354.8c-2.5-2.6-4.9-5.5-7.4-8.2C808.5,348.3,810.9,351.1,812.3,354.8z"/>
	<path d="M816.3,364.8c-1-2.8-1.2-5.7-3.2-8.3C815.9,357.7,816.9,360.5,816.3,364.8z"/>
	<path d="M815.7,376.3c0-2.7,0-5.4,0-8.1c0.4,0,0.7,0,1.1,0C817.5,371.1,817.1,373.8,815.7,376.3L815.7,376.3z"/>
	<path d="M802.9,394c1.7-1.7,3.7-2.9,6.1-3.5C807.3,392.3,805.3,393.5,802.9,394z"/>
	<path d="M794.3,395.2c1.9-0.2,3.8-0.3,5.7-0.5c0,0.2,0.1,0.5,0.1,0.7c-1.8,0.7-3.8,0.3-5.6,0.6
		C794.4,395.7,794.3,395.5,794.3,395.2z"/>
	<path d="M799.6,343.8c0.9,0.6,1.8,1.1,2.7,1.7c-1.8,0.3-3.2-0.3-4.7-1.1C798.2,343.4,799,343.9,799.6,343.8L799.6,343.8z"/>
	<path d="M709.7,651.1c-0.3-2.2-0.1-4.1,2.4-4.9c1.9-0.5,3.4,0.7,4.5,3.5c0.2,0.5,0.5,1,0.7,1.5c-3.3,3.2-3.5,3.2-7.7,0.7
		C709.3,651.7,709.5,651.4,709.7,651.1z"/>
	<path d="M709.7,651.1c0,0.3,0,0.6,0,0.9c0.8,1.7,0.7,3.3-0.9,4.5c-1.1,0.8-2.3,0.9-3.4,0.2c-1.5-0.8-2.2-2.1-2.2-3.8
		c0-2.6,2.1-4,4.6-2.9C708.4,650.3,709,650.8,709.7,651.1z"/>
	<path d="M704,658.1c-0.7,0.9-1.4,0.5-1.9,0.2c-0.5-0.2-0.9-0.6-1.6-0.3c-1,0.6,0.6,1.6-0.5,2.5c-1.9-1.6-2.4-4-3.6-5.9
		c3.9-2.9,4.8-2.7,5.8,1.5C702.6,657.2,703.8,657.3,704,658.1z"/>
	<path d="M841.6,368.5c-0.9-2.7-1.8-5.4-2.8-8.3C841,361.9,841.9,364.5,841.6,368.5z"/>
	<path d="M842.1,377.6c-0.3-1.9,0.6-3.8,0.4-5.8C843.1,373.8,842.8,375.7,842.1,377.6z"/>
	<path d="M839.9,384c0.3-1.1,0.8-2,2.2-3.3c-0.4,1.8-0.9,2.8-1.7,3.7c-0.2,0.1-0.4,0.1-0.6,0.2C839.9,384.5,839.9,384.3,839.9,384z"
		/>
	<path d="M840.4,384.5c-0.2,0.7-0.5,1.4-1.3,1.8c-0.3-1,0.2-1.6,0.8-2.3C840.1,384.2,840.2,384.3,840.4,384.5z"/>
	<path d="M448.5,434.8c9.9,11.5,17.7,24.1,18.3,40C464.3,459.8,457.1,447,448.5,434.8z"/>
	<path d="M455.6,372.6c-1.5-6.7-1.9-13.4-1.3-20.4c2,0.4,1.8,1.7,1.8,2.7c0,3.1,0,6.3-0.1,9.4C455.9,367.1,455.7,369.8,455.6,372.6z
		"/>
	<path d="M427.1,417.6c-5.7,8-13.6,13.5-21.7,18.6C412.4,429.8,420.3,424.3,427.1,417.6z"/>
	<path d="M423.8,454.5c1.2-7.2,5.4-13.4,6.6-20.6c1.3,0.5,1.2,1.4,0.9,2.4C429.4,442.6,426.5,448.5,423.8,454.5z"/>
	<path d="M447.5,368.8c0.7-4.9,1.4-9.9,2.2-14.8c0.4,0.1,0.7,0.1,1.1,0.2c1,5.2-2,9.8-2,14.9C448.4,369,447.9,368.9,447.5,368.8z"/>
	<path d="M476.1,368.8c-1.4-5.1-2.7-10.3-4.2-15.8C474.2,354.4,476.7,363.8,476.1,368.8z"/>
	<path d="M443.6,450.7c1.8,4.7,2.2,9.7,3.1,14.5C445.1,460.5,443.2,455.8,443.6,450.7z"/>
	<path d="M398.6,390.4c0-2.2,1.5-3.9,2.4-5.8c1.4-3.3,2.9-6.6,4.3-10C404.5,380.4,401.6,385.4,398.6,390.4L398.6,390.4z"/>
	<path d="M489,456.8c-1.4-3.3-2.5-6.5-1-10.2c0.9-2.2,0.9-4.8,0.3-7.2c1.2,2.3,1.6,4.7,0.7,7C487.6,449.9,488,453.4,489,456.8
		L489,456.8z"/>
	<path d="M430.2,352.7c1,4.9,0.8,9.9-0.2,14.8c-0.3-4.5,0.3-9.1-0.3-13.6C429.6,353.3,429.9,353,430.2,352.7L430.2,352.7z"/>
	<path d="M491.4,469.3c1.3,3.2,1.7,6.5,0.5,9.8C492.3,475.8,491.6,472.5,491.4,469.3L491.4,469.3z"/>
	<path d="M457.2,351.6c2.2-0.9,4.1,0.3,6.3,0.3C461.5,353.3,460.7,353.2,457.2,351.6z"/>
	<path d="M438.8,423.4c-2.1-0.9-3.8-2.3-5.4-3.9C435.9,419.7,437.1,421.9,438.8,423.4z"/>
	<path d="M416.8,401.4c1.6-1.2,3.3-2.2,5.4-2.4C420.7,400.6,418.8,401.1,416.8,401.4z"/>
	<path d="M488.9,456.9c0.6,2.9,1.8,5.8,1.9,8.8l0.1-0.1C489.8,462.8,488.8,459.9,488.9,456.9L488.9,456.9z"/>
	<path d="M448.3,352.4c-1.7,1.6-3.6,1-5.5,0.6C444.5,352.1,446.4,352.8,448.3,352.4z"/>
	<path d="M430.3,352.8c0.3-1,0.3-2.2,2-1.8C432.1,352.3,430.5,351.8,430.3,352.8L430.3,352.8z"/>
	<path d="M428.2,350.2c1.2,0.6,0.6,1.3,0.7,1.9c-0.7,0.4-0.9,0-1.1-0.4C427.5,351.2,427.5,350.7,428.2,350.2z"/>
	<path d="M424.3,350.2c1,0.8,1.2,1.4,0.3,2.4C424,351.9,423.6,351.3,424.3,350.2z"/>
	<path d="M490.9,465.7c0.8,1.1,0.6,2.3,0.5,3.6l0,0C490.8,468.1,490.9,466.9,490.9,465.7L490.9,465.7z"/>
	<path d="M411.5,370.3c-0.1,0.8-0.7,1.3-1.6,2.3c0-1.5,0.6-2.1,1.3-2.6C411.3,370.1,411.4,370.2,411.5,370.3z"/>
	<path d="M403.2,438c-0.2,0.1-0.3,0.3-0.5,0.4C402.5,438,402.9,438,403.2,438z"/>
	<path d="M426.4,310.9c2.3,4.5,0.6,8.9,1.6,13.4C425,322.8,424.4,316.1,426.4,310.9z"/>
	<path d="M475.9,272c3.3-1.6,4.8-4.7,6.3-7.8C484.5,267.9,481.1,271.8,475.9,272z"/>
	<path d="M426.5,295.5c0,4.1,0,8.2,0,12.4c-1.3-4-1-8.2-1.1-12.3C425.8,295.6,426.1,295.5,426.5,295.5z"/>
	<path d="M430.8,340.7c-1.5-3.8-3-7.7-2.7-12c1.2,3.9,2.5,7.9,3.7,11.8C431.4,340.6,431.1,340.6,430.8,340.7z"/>
	<path d="M430,303.5c2.8-0.8,5.8-0.4,8.7-0.3c-2.9,0.8-5.6,2.2-8.6,1.8C430.1,304.4,430,303.9,430,303.5z"/>
	<path d="M427.3,333.7c0.9,3.2,1.7,6.5,1.1,9.8C426.6,340.4,427.1,337.1,427.3,333.7z"/>
	<path d="M436,261.3c-4.7-1.3-6.1-3-4.8-6C433.2,257.1,433.7,260,436,261.3z"/>
	<path d="M424.3,305.6c-2.6,1.8-5.3,1.5-8.6,0.1c3.2-0.4,5.8-0.7,8.5-1C424.3,305,424.3,305.3,424.3,305.6z"/>
	<path d="M425.9,281c-2-1.9-1.4-4.3-1.3-6.6C425.7,276.4,426.2,278.6,425.9,281z"/>
	<path d="M470.6,260.2c-1.3,2.2-2.8,2.7-5.1,2.7C466.9,261.3,468.1,260.3,470.6,260.2z"/>
	<path d="M445,304.4c1.4-1.3,2.5-1,3.8-0.8C447.7,305.3,446.6,305.1,445,304.4z"/>
	<path d="M431.3,316.6c1.5-1.4,2.8-1.1,4.1-0.6C434.2,316.5,433.1,317.5,431.3,316.6z"/>
	<path d="M475.5,324.5c1.7-1.3,3.6-0.4,5.4-0.4C479.1,324.2,477.3,324.3,475.5,324.5L475.5,324.5z"/>
	<path d="M424.7,293.4c-0.8-0.6-0.2-1.3-0.4-2c1-0.1,1,0.5,1,1S425.2,293.3,424.7,293.4z"/>
	<path d="M472.2,274.8c0.4-1.2,1.2-1.7,2.4-1.7C474.1,274.5,474.1,274.5,472.2,274.8z"/>
	<path d="M406.7,265.7c-1.2,0.8-2,1.1-3,0.4C404.4,264.9,405.3,264.9,406.7,265.7z"/>
	<path d="M481.7,280.1c-0.3,1.8-1.1,2.2-2.4,2.9C479.6,281.5,480.5,281,481.7,280.1z"/>
	<path d="M412.3,265.8c-1,1.2-1.8,1.7-2.9,0.7C410,265.4,411,265.7,412.3,265.8z"/>
	<path d="M480,334c0.9,0,1.7,0,2.6,0c0,0.1,0,0.1,0,0.2c-0.9,0.1-1.7,0.1-2.6,0.2C480,334.2,480,334.1,480,334z"/>
	<path d="M475.5,324.4c-1.4,0.6-2.8,0.3-4.2,0.3C472.7,324.4,474.1,324.2,475.5,324.4L475.5,324.4z"/>
	<path d="M460.2,264.4c0.9-1,1.7-1.3,2.9-1.2C462.4,264.9,461.4,264.5,460.2,264.4z"/>
	<path d="M468.6,276.4c0.3-1.4,0.9-1.9,1.8-2C471.3,274.9,471.1,275.1,468.6,276.4z"/>
	<path d="M452.3,264.9c0.9-0.6,1.5-0.7,2.1-0.2C454,265.8,453.4,265.7,452.3,264.9z"/>
	<path d="M411.7,305.1c0.5-0.6,1.1-0.6,1.8-0.2c0.2,0.7-0.4,0.6-0.7,0.7C412.3,305.8,411.9,305.6,411.7,305.1z"/>
	<path d="M483.9,235.2c3,2.6,4.8,6.4,8.3,8.4c3.4,1.9,6.3,4.4,9.2,6.9c-0.8,0.4-1.5,0.9-2.4,0.2c-4.1-3.1-8.3-6-12.2-9.3
		C485.1,240,483.7,238.1,483.9,235.2z"/>
	<path d="M486.3,203.7c4-1.3,7.8,2.2,9.4,8.3C494.2,207.7,489.5,206.7,486.3,203.7z"/>
	<path d="M517.2,331.8c-0.1-5.2,0.5-10.3-0.4-16C519.4,318.4,519.5,328.3,517.2,331.8z"/>
	<path d="M494.5,264.1c-1.7-4.5-2.4-9.4-4.1-13.9C493.5,254.3,493.9,259.2,494.5,264.1z"/>
	<path d="M503.9,305.5c-0.5-2.3,0.1-4.5,1.5-7.1C505.6,301.4,505.4,303.6,503.9,305.5z"/>
	<path d="M515.2,342.7c0-2.5,0.1-4.3,1.8-6.2C516.8,338.8,516.4,340.5,515.2,342.7z"/>
	<path d="M509.1,251.1c-0.3-1.9,0.1-3.5,1-5C510.5,247.9,510.1,249.6,509.1,251.1z"/>
	<path d="M497.4,213.7c2.1,1.4,1.8,2.9,1.5,4.4C498,217,497.3,215.8,497.4,213.7z"/>
	<path d="M506.8,289.8c1.2,1.7,0.8,2.7-0.2,4C505.9,292.4,506.2,291.4,506.8,289.8z"/>
	<path d="M505,255.7c-1.2-1.4-1.6-2.3-1.8-3.7C504.9,252.8,504.7,254,505,255.7z"/>
	<path d="M512.1,349.4c-0.5-0.8,0.1-1,0.3-1.6C512.9,348.6,512.3,348.8,512.1,349.4z"/>
	<path d="M494.6,274.1c0.1,1.1,0.1,1.5,0.1,2.1C494.3,275.7,494.4,275.2,494.6,274.1z"/>
	<path d="M501.1,222.6c0.8,0.6,0.9,1.1,0.9,1.7c-0.6,0.4-0.7-0.1-0.8-0.5C501,223.6,501.1,223.3,501.1,222.6z"/>
	<path d="M504,269.6c-0.3-0.6-0.6-1.2,0.5-1.3C505.1,269.1,504.6,269.4,504,269.6z"/>
	<path d="M485.4,203.2c0.1,0.1,0.3,0.3,0.3,0.4c0,0.4-0.3,0.5-0.6,0.3c-0.1-0.1-0.2-0.3-0.3-0.5C485,203.4,485.2,203.3,485.4,203.2z
		"/>
	<path d="M379.5,299.7c2,2.8-1,4-1.2,6c1.3,0.7,1.4,1.9,0.5,3.2c-2.2,3.2-3.5,6.7-3.4,10.6c0,0.7-0.5,1.5-1.7,1.7
		c0.8-5.3,1.4-10.4,2.3-15.6C376.4,303.5,377.3,301.3,379.5,299.7z"/>
	<path d="M378.1,287.2c1.9,1,1.8,2.7,1.9,4c0.2,3.6,1.9,6,5,7.6c0.5,0.2,0.9,0.6,1.4,1C382.3,301.8,377.7,294.9,378.1,287.2z"/>
	<path d="M379.5,265.4c0-1.9,0-3.8,0-5.6c0-1.9,0-3.8,0-5.7c0.3,0,0.5,0,0.8,0C379.9,257.9,381.7,261.7,379.5,265.4z"/>
	<path d="M380.7,246.3c-1.6-2.3-1.3-5.1-1.7-7.7C381.1,240.8,380.8,243.6,380.7,246.3z"/>
	<path d="M376.3,281c1.7,1.9,2.1,3.6,2.1,5.8C376.4,285.2,376.3,283.5,376.3,281z"/>
	<path d="M367,355.8c0.7-2.2,1.4-4.4,2.1-6.5C368.9,351.8,368.6,354.1,367,355.8z"/>
	<path d="M375.2,274.7c1.6,1.2,1.4,2.5,0.8,4.1C374.7,277.6,375,276.3,375.2,274.7z"/>
	<path d="M372.9,341.1c-0.1,1.9-1.7,3.1-2.3,4.8C370.9,344.1,371.4,342.4,372.9,341.1L372.9,341.1z"/>
	<path d="M373,341.2c0-1.2,0.7-2.1,1.6-2.8C374.4,339.5,374.1,340.6,373,341.2L373,341.2z"/>
	<path d="M382.6,247.5c-0.9-0.2-1.1-0.7-0.5-1.5C383.2,246.3,383.1,246.8,382.6,247.5z"/>
	<path d="M382,330.4c0-0.3,0-0.6,0-1.8c0.1,1.1,0.2,1.4,0.2,1.7C382.1,330.4,382,330.4,382,330.4z"/>
	<path d="M362.9,402.7c0.4-1,0.6-2,0.8-3.2c0.2-1.5,0.4-3.1,1.7-4.2c2.1-1.7,6.7-1.1,9.3,1.3c2.8,2.5,3.5,6,1.7,8.4
		c-1.8,2.5-5.8,3.3-8.8,1.7C366,405.7,363.8,405.2,362.9,402.7z"/>
	<path d="M490.3,403.6c-1.2-0.1-2.1-0.2-3-0.3c-2.4-0.3-4.6-1.4-5-3.7c-0.4-2.5-0.9-5.4,1.7-7.4c1.3-1.1,2.8-1.9,4.4-2.4
		c2.4-0.7,5,0.2,6.2,2.1c1.4,2.2,1.4,4.4-0.4,6.5C492.8,400,491.4,401.6,490.3,403.6z"/>
	<path d="M406.9,651.1c-0.3-2.2-0.1-4.3,2.4-4.8c2.6-0.5,3.8,1.2,4.5,3.5c0.2,0.5,0.5,1,0.7,1.5c-3.3,3.2-3.5,3.2-7.7,0.7
		C406.5,651.7,406.7,651.4,406.9,651.1z"/>
	<path d="M401.3,658.2c-1.5,1.4-2.4-0.7-3.5-0.1c-1,0.7,0.6,1.7-0.6,2.5c-1.8-1.6-2.4-4-3.5-5.9c0.7-1.2,1.7-1.5,2.6-1.8
		c1.7-0.5,3.1,0.2,3.1,1.9C399.4,656.4,400.2,657.3,401.3,658.2z"/>
	<path d="M406.9,651.1c0,0.3,0,0.6,0,0.9c0.8,1.7,0.7,3.3-0.9,4.5c-1.1,0.8-2.3,0.9-3.4,0.3c-1.5-0.8-2.2-2.1-2.2-3.8
		c0-2.6,2.1-4,4.5-2.9C405.6,650.3,406.2,650.7,406.9,651.1z"/>
	<path fill="#FFFFFF" d="M663.3,377c2-1.3,3.7-3.5,5.8-1.3c1.8,1.9,0.4,3.9-1,5.8C665.4,381.2,664,379.6,663.3,377z"/>
	<path fill="#FFFFFF" d="M787.3,371.6c0.2-0.9,0.8-2,1.9-3.1c1.8-0.1,4-1.7,5.8,0.7c1.8,2.5-0.4,4.3-0.8,6.5
		C790.9,375.7,788.4,375,787.3,371.6z"/>
	<path fill="#FFFFFF" d="M790.8,377.2c1-0.4,1.8-0.6,2.3,0.2C792.5,378.6,791.8,377.8,790.8,377.2z"/>
	<path fill="#FFFFFF" d="M714.8,649.1c-1.2,0.7-1.5,1.6-0.6,2.9c-1.9,0.2-2.5-0.7-2.9-2c-0.2-0.8,0-1.6,0.8-2
		C713.2,647.4,713.9,648.1,714.8,649.1z"/>
	<path fill="#FFFFFF" d="M708.6,653.8c-0.1,1-0.6,1.8-1.7,1.7c-1.5-0.1-2.1-1.1-2.1-2.5c0-1,0.5-1.8,1.6-1.7
		C707.7,651.4,708.3,652.5,708.6,653.8z"/>
	<path fill="#FFFFFF" d="M700.9,654.7c-1,1.7-1,1.7-2.3,0.7C699,654.2,699.8,654.3,700.9,654.7z"/>
	<path fill="#FFFFFF" d="M374.1,403.4c-1.8,1.6-4,1.3-5.9,0.6c-1.5-0.6-1.8-2.2-1.9-3.7c-0.2-1.9,0.8-2.7,2.6-2.5
		C371.8,398,373.5,399.8,374.1,403.4z"/>
	<path fill="#FFFFFF" d="M489.8,401.4c-2-0.4-4.4,0.9-4.9-2.2c-0.3-2.2,2.1-6,4-6.5c2-0.5,3.5,0.9,3.2,3.1
		C491.9,397.8,490.6,399.3,489.8,401.4z"/>
	<path fill="#FFFFFF" d="M412.2,649.3c-1.9,0.5-1.2,1.8-1.1,3c-2-0.5-3.2-1.6-2.4-3.4C409.4,647,410.7,647.8,412.2,649.3z"/>
	<path fill="#FFFFFF" d="M398.3,654.9c-0.7,1.4-1.4,2-2.6,0.6C396.2,654.3,397,654.1,398.3,654.9z"/>
	<path fill="#FFFFFF" d="M405.7,653.4c0,1.2-0.5,2-1.5,2c-1.5,0-2.2-1-2.3-2.3c-0.1-1,0.3-1.9,1.4-1.9
		C404.8,651.2,405.3,652.4,405.7,653.4z"/>
</g>
</svg>
