<?xml version="1.0" encoding="utf-8"?>
<!-- Generator: Adobe Illustrator 19.1.0, SVG Export Plug-In . SVG Version: 6.00 Build 0)  -->
<svg version="1.2" baseProfile="tiny" id="Layer_2" xmlns="http://www.w3.org/2000/svg" xmlns:xlink="http://www.w3.org/1999/xlink"
	 x="0px" y="0px" width="900px" height="600px" viewBox="144 97 900 600" xml:space="preserve">
<g>
	<path d="M802.4,545.3c-1.3,2.2-2.9,2.4-5.1,1.4c-5.4-2.5-10.1-5.9-14.2-10.2c-0.9-0.7-1.4-1.5-1.2-2.7c1.5-1.6,2.8-0.7,4.1,0.3
		c2.4,1.9,4.9,3.8,7.4,5.6c1.2,0.9,2.5,2,4.2,1.5c1.3-1.3,0.8-2.7,0.4-4c-0.8-2.7-1.7-5.5-2.4-8.2c-0.5-1.9-1.6-3.3-3.7-3.3
		c-3.6,0.1-7.2,0.9-10.6,0.2c-1.8,3.1,1.1,4.6,1,6.9c-1.3,1.5,0.1,2.8,0.4,4.2c1,5.6,5.4,7.9,10,9.7c3.4,1.4,7,2.6,10.4,3.9
		c6.4,2.5,8.5,6,7.3,12.8c-0.4,2.3-1,4.7-2,6.9c-4.2,8.6-7.8,17.5-12.6,25.7c-4.7,8.1-7.7,17.1-13.2,24.7c-4.1,5.6-5,11.7-3.8,18.4
		c0.8,0.5,1-0.9,1.7-0.7c1.3,1.8,2.6,3.6,4,5.6c0.9-0.1,1.8-0.1,3.1-0.2c-0.8,1.3-2.1,1.1-3,2.1c1.9,1.9,2.1,4.8,3.4,7.1
		c2.4,1.2,4.7,0.7,7.2-0.3c3.9-1.6,8.1-2.6,12.4-3.9c-3.3-1.9-6.6-1.2-9.8-1.6c-1.2-0.2-2.4-0.2-3.6-0.4c-3.9-0.7-4.4-1.9-2.6-5.4
		c7.9-15.2,16.5-30,26.4-44c4.9-6.9,9-14.4,14.3-21.1c3.7-4.7,8.8-6.1,14.1-3.1c3.8,2.2,7.7,4.2,10.9,7.4
		c4.9,4.8,10.9,8.3,16.7,11.8c4.8,3,9,6.7,13.5,10.1c4.3,3.3,8.7,4.5,14,2.8c2.8-0.9,5.7-1.2,8.7-1.8c-0.2,1.9-1.4,1.9-2.4,2.2
		c-1.7,0.4-3.6,0.6-5.3,1.2c-7.3,2.4-13.4,0.1-18.8-4.8c-3.6-3.2-7.4-6-11.5-8.6c-2.7-1.7-5.2-3.9-9.5-2.9c1.3-1.4,2.5-0.2,3.2-1.2
		c-1.6-1.2-3.3-2.3-5-3.6c-2.2,1-4.5,2-7.3,1.9c1.6-1.7,4-1.3,5.7-2.7c-3.9-4.5-8.7-7.9-13.8-10.5c-4.5-2.3-9.1-0.8-12.4,3
		c-1.7,2-3.4,4-4.6,6.4c-4.9,9.3-11.2,17.5-17,26.2c-5.3,8.1-10.2,16.5-14.9,25c-1.7,3-3.7,5.8-5.1,9.2c5.8,2.6,12.9,0.1,18.3,4.4
		c-7.1,2-13.4,5.9-21,6.6c0.7,1.2,1.4,2.7,2.5,3.8c2,2.2,2.1,4.6,1.2,7c-2.2,5.3-4.9,9.6-11.5,11.1c-6.8,1.5-13.2,4.7-18.4,9.8
		c-2.8,2.7-6.4,3.7-9.9,4.9c-11.4,4.1-22.8,3.9-33.8-1.6c-3.9-2-5.1-7.6-2.1-10.3c1.5-1.3,2.7-2.9,4.3-4.1
		c6.1-4.7,10.6-11.1,15.9-16.6c1.3-1.3,1.6-3.2,2-5c1.2-6.4,5.1-11.5,8.2-17c0.6-1,1.4-0.5,2-0.8c1-1.9,0.2-4.3,1.2-6
		c1.4-1,2.5,0.4,4-0.2c0.4-5.7,0.5-11.5-0.4-17.3c-2.5-15.4-6.6-30.4-11.2-45.3c-2.3-7.3-2.4-15.3-2.5-23.1c0-4-1.4-7.8-1.1-11.8
		c0-0.5-0.4-1.1-0.8-1.6c-3.1-4.3-4.4-8.9-3.4-14.2c0.1-0.5,0.1-1-0.6-1.6c-5.1,0.5-10.4,0-16.2-0.4c4.7,7.3,12.5,10.2,18.3,15.6
		c-9.3-1.9-15.4-8.1-20.8-15.3c-5.9-2.4-12-3.9-18.4-1.3c-1,0.4-2.1,0.6-2.8-0.8v0.1c4.9-3.5,10.1-4.8,15.7-1.4
		c0.7,0.4,1.6,0.4,2.4,0.5c7.2,0.4,14.3,0.8,21.7,1.1c0.7-2.8-0.2-4.9-2.7-6.2c-4.3-2.3-7.1-5.9-8.9-10.4
		c-2.3-5.7-4.4-11.4-6.2-17.2c-3-9.8-9.5-16-19.8-16.9c-5.2,3.1-10.8,5.8-16.4,8.6c-2.7,1.3-5.2,2.6-8.3,3.1
		c-5.6,0.9-12.7,10.7-12.5,16.4c0,1.2,0,2.4-0.2,3.6c-1.1,4.3-2.3,8.5-3.5,13c-1.5-0.9-1.4-2-1.3-3.2c0.3-2.4,1-4.7,1.8-6.9
		c0.7-1.9,1.1-3.9,1.2-6c0.6-9.7,5.1-14.9,14-18.8c7.7-3.4,15.1-7.3,22.5-11.1c7-3.6,14.3-6.7,21.2-10.6c6.3-3.6,13.5-4.9,20.5-6.5
		c1.7-0.4,3.1-0.4,3.6,1.9c0.7-0.4,1.2-0.5,1.4-0.8c4.1-5.5,9.4-2.7,14.3-1.8c1.5,0.3,2.8,0.7,4-0.3c2.3-1.7,4.8-2.1,7.5-1.1
		c1.4-1.7-0.3-2.7-0.9-3.8c-1.5-3.4-0.5-5.3,3.2-5.5c2.2-0.2,4.2,0.7,6.2,1.5c1.2,0.5,2.4,1,3.7,1.6c0.1-3-1.7-5.2-1.9-7.9
		c-0.5-6.3,1.3-12,3.4-17.8c1.1-3,1.9-6.1,1.3-9.4c-0.9-5.9-0.1-11.7,0.9-17.5c0.6-3.7-0.5-7.5,0.5-11.1c3-11.1,2-22.6,3.3-33.8
		c0.4-3.1,0.9-6.1,1.9-9.1c1.3-3.7,1.2-7.4,0.3-11.3c-1.7-7.2-5.5-13.3-9.7-19c-6.9-9.3-9.1-19.9-10.2-31c-0.3-3.4-0.3-6.9-0.8-10.4
		c-0.9-6.3,0.5-12.4,1.4-18.6c0.1-0.6,0.4-1.3,0.3-1.8c-3.8-10.7-2.7-21.6-1.9-32.5c0.6-7.8,4-14.7,6.9-21.8
		c2.3-5.6,5.3-11,6.7-17.2c-6.7-0.9-12.2-3.8-16.6-8.6c-5.1-5.6-8-12.2-8.6-19.7c-0.8-9.3,0.9-18.2,6.4-26
		c7.9-11.3,20-15.1,33.3-10.5c1.6,0.6,3.1,1.2,4.3,1.6c15.9-4.2,29.9-2.8,40.1,11.3c14.4-11,22.2-11.9,35-3.9c6.4-3.4,13.5-3,20.5-2
		c8.1,1.2,14.4,5.6,19.1,12.3c10.9,15.3,8.2,39-5.8,51.5c-5.7,5.1-12.6,7-20.1,7.7c-0.4,2.1,0,4.2,0.7,6.2
		c3.2,10.5,6.3,21.1,9.3,31.7c1.3,4.7,1.1,9.5,0.9,14.3c-0.1,5.7-0.2,11.5-0.5,17.2c-0.1,2.8-0.3,5.5-0.2,8.4
		c0.4,7.9,3.6,15.1,4.4,22.8c0.6,6,0.3,12-1.9,17.7c-1.3,3.4-0.9,6.8-0.2,10.2c2,9,1.6,17.8-1.7,26.5c-1,2.7-2.5,5.2-4,7.6
		c-2,3-3.6,6.2-3.4,10c0,0.6-0.1,1.3,0.1,1.8c3.5,7.6,2.9,15.8,2.9,23.9c0,12.3,0.2,24.7,0.5,37c0.1,5.8-0.4,11.7-0.8,17.6
		c-0.3,3.6,0.3,7.2,0.3,10.8c0.3,15.6,0.9,31.2-1.4,46.7c-0.8,5.2-2.7,10.1-2.4,15.6c0.1,2-1.3,4.1-2.7,5.8c-1.7,2-3.4,4-5.8,5.6
		c3,4.5,6.2,8.9,7.5,14c2,7.5,5.5,14.3,8.6,21.4c2.1,4.8,4.8,9.3,6.7,14.1c1.9,4.7,5.1,8.3,7.9,12.2c3.2,4.4,5.1,9.5,8.1,14
		c0.9,1.3,1.5,2.7,2.8,3.5c21.1,4.4,42.9,5.2,64.3,11.2c1.2,3.7,2.6,7.9,3.9,12.1c0.5,1.7-0.1,2.7-1.6,3.5c-3.2,1.6-6.5,3-10,3.6
		c-4.2-2.6-9-3-13.5-3.8c-6.1-1-12.2-2.2-18.2-3.9c-4-1.1-8-1.8-12-1.8c-8.5,0.1-16.6-2.1-24.7-4c-3.2-0.8-6.4-0.8-9.5-1.5
		c-9.8-2-20-1.4-29.7-4.3c-3.9-1.2-8-1.7-11.7-3.3c-2.8-1.2-5.9-0.4-8.9-0.8c-1.6-0.2-3.4-0.1-4.5-1.9c8,0.9,15.7,1.6,23.2,4
		c7,2.2,14.3,2.7,21.5,3.7c9.8,1.3,19.7,1.8,29.2,5c5.3,1.8,10.9,1.7,16.4,1.9c5.8,0.2,11.3,1.8,16.9,3.2c7.2,1.9,14.6,2.2,21.5,4.4
		c1.2-1-0.5-1.8,0.6-2.6c0.2,0.3,0.5,0.5,0.6,0.8c1,3,2,3.6,4.9,2.8c2.2-0.6,4.3-1.4,6.4-2.2c0.6-0.2,1.4-0.3,2-1.3
		c-1.1-4-2.4-8.2-3.5-12.4c-1.7-1.2-3.3-0.3-4.9-0.1l0.1,0.1c-0.6-0.8-1.1-1.4-2.2-1.7c-6.5-1.6-13-3.2-19.8-3.4
		c-5.3-0.2-10.3-2-15.5-2.6c-7.1-0.9-14.1-2.8-21.2-2.9c-3.7-0.1-7.2,1.8-10.6,1.7c-1.6,0.9-1.1,2.6-2.4,3.7
		c-0.8-1.7,0.4-2.8,0.5-3.9c2.9-2.3,6.5-1.2,9.5-3c-3.5-5.8-6.7-11.7-10.5-17.2c-3.7-5.4-6.8-11-9.4-16.9
		c-5.2-11.8-10.9-23.4-15.6-35.4c-1.2-3.1-3.2-5.9-4.9-8.7c-1.8,0-2.6,1.5-3.7,2.2c-3.6,2.2-7.2,4-11.3,1.2
		c-0.9-0.6-1.8-0.6-2.8-0.6c-2,0-4.1-0.1-6.1,0.2c-6.8,1-13.5-0.8-20.2-1.2c-5.1-0.3-10.3-0.1-15.7-0.1c0,1-0.2,2.2-1,3.2
		c-1.8,2.1-2.4,4.6-2.8,7.2c-0.6,3.9-2.7,7.2-5.6,9.8c-2.7,2.4-5.5,4.5-8.2,6.7C802.6,546.4,802.5,545.8,802.4,545.3
		c1.1-2.8,2.8-5.1,5.2-7c3-2.4,4.8-5.7,5.2-9.5c0.2-2.3,0.9-4.4,2.2-6.4c0.9-1.3,1.2-2.8,1.5-4.4c0.8-4.8,2.9-9.1,5.6-13.1
		c0.8-1.2,1.6-2.2,3.2-1.5c1.6,0.7,1.8,2.1,1.5,3.6c-0.1,1-0.5,1.9-1.2,2.6c-1.6,1.8-1.4,3.7-0.6,5.5c0.7,0.8,1.5,1,2.4,1
		c8.5,0.1,17,0.8,25.4,1.4c1.9,0.2,3.8-0.1,5.7-0.4c3.1-0.4,6.2-0.5,9.2,0.8c2.5,1.1,5,0.6,7.2-0.9c1.8-1.2,3.5-2.5,5.3-3.7
		c4.8-3.1,7.3-7.2,7.7-13.2c0.3-6.1,2.7-11.9,3-18c0.4-8.5,2-17,0.9-25.4c-1.1-8.2-0.5-16.4-1-24.6c-0.5-9.5-0.2-19.1,0.4-28.6
		c0.4-7,0-14.1,0-21.2c0-6.2,1-12.4-0.2-18.6c-0.2-1,0-2,0.5-2.5c-0.9,5.2-4.2,9.6-7.2,14.1c-2.3,3.5-3.7,7.5-4.6,11.6
		c-0.4,2.1-1.1,3.8-3.1,5c-1.9,1.3-3.1,3.3-3,5.6c0.1,3.6-1.1,6.9-2.6,9.9c-3.2,6.2-4,12.8-4.1,19.5c-0.2,6-1.6,11.8-2.4,17.7
		c-0.7,5.4-2,11.7,2.7,16.6c1.9,2,2.2,4.6,0.8,7c-4,6.8-3.9,14.1-2.9,21.6c0.3,2.6-0.6,5.2-0.5,7.8c0,1.1-1,1.8-2,2.4
		c-1.8,0.9-3.2,2.5-3.6,4.3c-0.9,3.9-4,5.4-6.8,7.3c-0.6,0.4-1.3,0.9-2,0.8c-7.1-2-13.7,1.4-20.5,1.8c-0.4,0-0.7,0.1-1.1,0.1
		c-1.6,0-3.3,0.1-3.8-1.9c-0.5-2.1,0.7-3.4,2.5-4.2c4.1-1.7,8.6-2.1,12.9-3c5.6-1.2,6.2-2,4.6-7.5c-2.2-7.6-4.5-15.2-10.5-20.9
		c-0.9-0.8-1.1-1.9-0.3-2.9s1.9-0.8,3-0.4c1.4,0.5,2.3,1.6,3.3,2.7c4.8,5.8,7.1,12.7,9.4,19.7c0.6,1.7,0.7,3.5,2.4,4.6
		c3.4-1.5,6.3-5.9,6-9.8c-0.4-5.4,1.9-10.4,1.4-15.8c-0.1-1.6,1.2-3.1,2.2-4.4c1.8-2.4,2.2-4.8,0-7.2c-1.7-1.8-2.6-3.9-2.1-7.2
		c-3.8,3.1-6.5-0.8-9.8-0.4c-0.3-0.1-0.7-0.2-1-0.3c-2.1-0.7-3.9-1.7-4.2-4.1c-0.8,1-1.9,1.4-3.3,0.8c-0.3-0.1-0.6-0.3-0.9-0.4
		c-3.8,0.8-7.6,1.2-11.2-0.3c-7.3-3-15-4.5-22.7-6.1c-2-0.4-4-1.1-5.8-1.9c-4.5-2-9-3.6-14-1.9c-1.7,0.6-3.6,0.3-3.8-2.2
		c-4.1,1.6-7.2-2.2-11.2-2.1c0,2,1.6,2.9,2.4,4.3c0.8,1.3,1.4,2.6,0.5,4s-2.2,0.8-3.5,0.8c-3.9,0-7.6-0.7-11.6,0.8
		c-3.3,1.2-7.1-0.6-11-0.2c0.1,0.9,1.1,1.4,1.8,2c0.8,0.8,1.3,1.8,0.6,2.9c-0.7,1-1.8,1.1-2.9,0.7c-1.1-0.4-2.2-0.9-3.3-1.4
		c-3.5-1.9-7.1-1.8-10.8-1c-9.6,2.3-18.5,6.4-28.3,10.3c4.6,2.3,6.8,6.2,10.2,8.9c2.1,1.7,3.3,4,4.3,6.5c2.3,5.6,4.2,11.5,6.5,17.1
		c1.3,3.4,3.1,6.6,5.9,9c1.9-0.6,2.4-1.9,2.5-3.2c0.6-7.6,5.6-12.1,11.3-16.1c3.4-2.4,3.5-3.6,0.2-6.2c-2.6-2.1-5.3-4.1-8.2-5.9
		c-1.3-0.8-2.7-2.1-1.5-3.8c1.1-1.5,2.5-0.7,3.8,0.1c3.7,2.2,7.6,4.1,10.8,7.1c1.2,1.1,2.5,1.8,4.2,0.7c0.5-1.9-1-2.7-2-3.5
		c-4.7-3.5-8.3-7.8-11.4-12.7c-0.8-1.2-1.1-2.2,0-3.1c1.4-1.2,3.1-1,4.1,0.5c2.8,4.4,7.2,7,10.7,10.6c1.2,1.2,2.5,2.3,4,3.1
		c1.6,0.8,3.4,1.2,4.7-0.2c2.4-2.5,5.6-3,8.6-4c2.1-0.6,3.8-2,5.9-2.7c1.3-0.4,2.2-1.5,2.6-3.1c0.6-2.5,2.4-4.4,4.2-6.1
		c1.1-1,2.3-2,3.8-0.8c1.4,1.1,0.6,2.3-0.1,3.5c-0.3,0.5-0.7,1-0.3,2.1c4.9-2,10.3-2.9,14.6-6.3c2.1-1.7,4.3-2.9,6.8-4
		c2.1-0.9,4-0.8,6.3-0.1c3.7,1.3,7.6,2.3,11.3,3.5c0.9,0.3,1.9,0.5,2.7,0.9c1.6,0.8,3,2.1,2.4,3.9c-0.7,2.2-2.5,1.6-4.2,1.1
		c-4.1-1.1-7.9-2.8-12-3.6c-3-0.5-5.4,0.3-7.3,2.2c-0.3,2.1,1,3,2,3.9c2.2,2.1,3.8,4.7,5.3,7.2c0.7,1.1,1.5,2.3,0.7,3.7
		c-0.2,0.3-0.5,0.5-0.8,0.7c-1.7,0.5-2.7-0.6-3.6-1.8c-1.6-2.1-3.6-3.9-5.1-6c-0.8-1.1-1.9-2.2-3.1-2.9c-1.6-0.9-3-0.5-4.3,0.6
		s-0.7,2.3-0.3,3.6c0.6,1.6,2.7,3.6,0.3,5s-3.5-1.2-4.7-2.7c-3-3.6-3.2-3.7-7.5-2.1c-3.9,1.5-7.5,3.6-11.7,5.2
		c3.9,3.4,8,5.7,11.9,8.4c3.9,2.7,7,6.1,8.8,10.6c0.8,1.8,1.2,3.6,0.7,5.7c3.4,0.2,3.3,2.7,3,5c-0.5,5.3-0.6,10.8-1.5,16
		c-1,6.1,0.1,11.7,2.1,17.2C804.6,537.6,804.7,541.5,802.4,545.3z"/>
	<path d="M404.4,469.9c-3.8-4.3-7.2-9-11.5-12.8c-0.5-0.5-1.1-0.8-1.8-1.3c-1.2,0.9-2.3,1.8-3.8,2.9c-0.9,0.3-2.6-1.5-3.5,0.9
		c1.1,2.8,3.2,5.4,4.9,8.4c-3-1.6-3.5-2.2-6.7-8.4c-7.6,3-15.1,6.1-22.4,10.3c7.7,2.6,13.6,7.4,19.5,12.1c3.9,3.2,5.4,7.8,5.9,12.7
		c0.1,1.1-0.4,2.4,0.4,3.5c1-1,0.1-2.4,0.9-3.5c1.5,0.8,1,2.2,0.9,3.4c-0.6,6.7-1.2,13.4-1.9,20c-0.4,3.9,0.1,7.8,1.5,11.3
		c1.8,4.7,2,9.5,1.9,14.4l0.1-0.1c-0.7,0.6-0.8,1.7-2.7,2.3c-6.3-1.8-11.7-6-16.6-11c-0.9-0.7-1.4-1.5-1.2-2.7
		c1.5-1.6,2.8-0.7,4.1,0.3c2.4,1.9,4.9,3.8,7.4,5.6c1.2,0.8,2.5,2,4.2,1.5c1.3-1.3,0.8-2.7,0.4-4c-0.8-2.7-1.7-5.5-2.4-8.2
		c-0.5-1.9-1.6-3.3-3.7-3.3c-3.6,0.1-7.3,0.7-10.7,0.3c-1.7,2.9,1.2,4.5,1.1,6.7c-1.3,1.6,0,2.8,0.4,4.2c1,5.6,5.4,7.8,10,9.7
		c3.4,1.4,6.9,2.6,10.4,3.9c6.5,2.5,8.5,6,7.4,12.8c-0.4,2.3-1,4.7-2,6.9c-4.2,8.6-7.8,17.5-12.6,25.7c-4.7,8.1-8,16.9-13.1,24.7
		c-5,7.7-5,8.5-4,18.3c0.9,0.5,1-0.8,2-0.7c0.7,2,2.7,3.3,3.6,5.6c1-0.1,2-0.1,3.2-0.2c-0.7,1.5-2.4,1-2.8,2.3c2,1.7,2,4.6,3.3,6.9
		c2.4,1.2,4.6,0.7,7.1-0.3c4-1.6,8.1-2.6,12.5-4c-5.6-2.7-11.9-0.2-16.7-3.3c-0.9-1.8,0-2.9,0.6-4.1c8.2-15.8,17.3-31.2,27.6-45.7
		c4.5-6.3,8.3-13.2,13.1-19.3c3.7-4.8,8.8-6.1,14.1-3.1c3.8,2.1,7.6,4.2,10.9,7.4c5,4.9,11.1,8.4,17,12c5,3,9.2,6.9,13.8,10.3
		c4.1,3,8.2,3.8,13.1,2.5c2.9-0.8,5.9-1.7,9-1.7c0.1,1.6-1.1,1.8-1.9,1.9c-3.9,0.8-7.8,1.5-11.7,2.1c-2.2,0.3-4.2-0.1-6.2-1.2
		c-2.8-1.7-5.6-3.2-7.9-5.5c-4.1-4-9.2-6.4-13.7-9.8c-1.6-1.2-3.5-0.3-5.4-1c0.8-1,1.9,0.3,2.6-0.8c-1.6-1.1-3.2-2.3-5-3.6
		c-2.2,0.9-4.5,1.9-7.4,1.9c1.7-1.8,4-1.3,5.9-2.9c-5.9-5.1-11-11-19.6-11.2c-2.3,0-4.2,0.6-5.6,2.5c-2.1,2.6-4.4,5.1-5.9,8.1
		c-4.7,9.1-11,17.1-16.6,25.6c-5.3,8.1-10.2,16.5-14.9,25c-1.7,3.1-3.9,6-5.3,9.5c3.2,1.4,6.6,1.2,9.9,1.5c3,0.3,6.2,0.1,8.9,3.1
		c-6.3,2.3-12.4,3.6-18,6.3c-1.3,0.6-2.2-1.2-3.6-0.2c0.8,1.3,1.5,2.9,2.6,4.1c1.9,2,2.1,4.3,1.2,6.7c-2.1,5.5-5,9.9-11.6,11.4
		c-6.8,1.6-13.2,4.8-18.4,9.8c-2.8,2.7-6.4,3.7-9.9,4.9c-11.4,4.1-22.8,3.9-33.7-1.6c-3.9-2-5.1-7.6-2.1-10.3
		c1.4-1.3,2.6-2.7,4.1-3.9c6.1-4.7,10.6-11.1,15.9-16.5c1.5-1.5,1.8-3.6,2.2-5.6c1.3-6.3,5-11.3,8.3-16.6c0.3-0.5,1.2-0.7,2-1.1
		c0.9-1.8,0.1-4.1,1.2-5.9c1.3-0.7,2.2,0.1,3.2,0.2c1.3-1,0.9-2.4,1-3.7c0.7-7.7-1.2-15.2-2.3-22.8c-1.5-9.6-3.8-19.1-7.1-28.2
		c-3.8-10.3-4.4-21-4.9-31.8c-0.2-3.8-1.4-7.5-1.1-11.4c0-0.5-0.4-1.1-0.8-1.6c-3.1-4.3-4.4-8.9-3.4-14.2c0.1-0.5,0.1-1-0.6-1.6
		c-5.1,0.6-10.4,0-16.2-0.3c4.7,7.2,12.5,10.2,18.3,15.6c-9.3-2-15.4-8.1-20.8-15.4c-6-2.4-12-3.9-18.4-1.3c-1,0.4-2.2,0.6-2.8-0.8
		l0.1,0.4c4.9-3.5,10.1-4.8,15.7-1.4c0.7,0.4,1.6,0.4,2.4,0.5c7.2,0.4,14.3,0.7,21.7,1.1c0.7-2.8-0.2-4.9-2.7-6.2
		c-4.3-2.3-7.1-5.9-8.9-10.4c-2.3-5.6-4.4-11.2-6.1-16.9c-3-9.9-9-16.1-19.9-17.2c-5.1,3.1-10.8,5.8-16.3,8.5
		c-2.7,1.3-5.2,2.6-8.3,3.1c-5.6,0.9-12.7,10.7-12.5,16.4c0,1.2,0,2.4-0.2,3.6c-1.1,4.3-2.3,8.5-3.5,13c-1.5-0.9-1.4-2-1.3-3.1
		c0.3-2.4,1-4.7,1.8-6.9c0.7-1.9,1.1-3.9,1.2-6c0.6-9.8,5.1-15,14-18.8c6.4-2.8,12.6-5.9,18.7-9.1c8.3-4.3,16.9-7.9,25-12.5
		c6.3-3.6,13.5-4.9,20.5-6.5c1.7-0.4,3.1-0.4,3.6,1.9c0.6-0.4,1.2-0.5,1.4-0.8c4.1-5.5,9.4-2.6,14.3-1.8c1.2,0.2,2.5,0.8,3.4,0.1
		c2.5-2.1,5.3-2.3,8.3-1.5c0.9-1.9-0.6-2.9-1.2-4.1c-1.6-2.8,0.2-5,3-5.2c2.4-0.2,4.5,0.6,6.6,1.5c1.2,0.5,2.4,1,4,1.7
		c-1.4-4.2-0.6-8,0.6-11.8c0.3-1,0.6-2.1,0.7-3.1c0.1-5.3,1-10.5,2.6-15.5c0.6-1.8,0.7-3.5,0.4-5.3c-0.9-5.2-0.3-10.3,0.5-15.4
		c1.2-7.2,2.3-14.4,2.5-21.7c0-0.6,0.2-1.2-0.4-1.9c-9.5,3.9-19.2,1.6-29,0.4c-1.5-0.2-3-0.7-4.2-1.8c-3.3-3-7.4-4.7-11.5-6.4
		c-0.9-2.2-0.7-4.5-0.7-6.7c0-5.4-0.6-10.8-1.8-16.1c-2-8.5,0.5-16.2,3.5-23.8c3-7.4,6.3-14.7,9.4-22c-0.8-1.2-1.9-1.3-2.9-1.6
		c-10.7-3.5-16.6-11.3-18.3-22c-2.1-13.8,2.4-25.6,13.2-34.6c9.7-8.1,23.2-7.9,32.6-1.9c1.6,1,3.1,2.3,4.3,3.9
		c5.3-0.4,10.4,0.6,15.5,2.3c11,3.7,17.2,11.5,19.5,22.4c3.5,16.3-5,36-21.6,42.7c-6.4,2.6-13,3.2-19.5,0.3c-1.2-0.5-2.5-0.6-3.9-1
		c-1.4,4.5-0.8,9.1-1.7,13.5c-0.1,0.3,0.2,0.7,0.3,1c1.8,3.2,2.6,6.6,2.4,10.7c4.5-2,8.9-1.7,13.4-1.6c4.6-4.5,9-9.2,14.8-12.3
		c4.7-2.5,9.9-3.9,15.2-2.4c5.2,1.5,10.3,1.2,15.7,0.9c1.5-3,0.9-6.2,1.4-9.4c-3.8-1.3-4.8-4.2-4.8-7.9c0-1.5-0.3-3.1-0.8-4.6
		c-0.8-2.1-0.9-4.4-0.7-6.7c0.3-3.8,0.7-7.5-0.2-11.4c-0.8-3.5,1.1-6.9,2.9-10c-0.5,12.5-1.8,25,1.5,37.5c4.4,1.6,9.1,1.5,14.1,1.1
		c-2.8,3.6-6.6,1.3-9.8,2.5c-0.7,2.8,0,5.8-0.8,8.7c-0.7,2.8-2.4,4.9-4.6,6.8c-0.1-1.5,1.2-2.4,1.1-4.2c-1.7-0.3-3.3-0.2-5.1,0.9
		c0.7,0.6,1.7,0.1,2.2,0.9c0.6,1.9-0.2,3.5-2.2,3.3c-4.3-0.3-6.9,2.6-10.4,4.3c1.5,1.3,3.2,1.6,4.6,2.7c-2.1-0.6-4.1-1.1-6.3-1.7
		c-3.5,2.2-6.4,4.9-6.7,9.5c-0.1,1.7-0.2,3.3-0.3,5c0,5.1,0.5,5.5,5.4,5.8c3.2,0.2,6.1-0.6,9-2c7-3.4,13.6-7.8,20.6-10.8
		c7.1-3.1,13.1-8.4,20.7-10.2c0.5-0.1,1-0.3,1.3-0.6c2.8-3.8,7.3-4.6,11.3-6.3c0.2-0.1,0.3-0.3,0.5-0.5c0-0.2,0.1-0.5-0.1-0.6
		c-4.9-4.3-5-10.1-4.8-15.9c0.1-3.9,0.5-7.9,1.6-11.7c0.7-2.5-0.3-4.8-0.7-7.3c2,0.7,3-0.4,3.6-2.1c-0.7-0.6-2,0.2-2.7-1.5
		c0.1-1.6,0.3-3.8,0.4-6c0.2-0.3,0.1-0.4-0.1-0.1c-1.2,1.8-2.6,3.5-3,5.9c-2.6-3.7-2.2-8.1-3.2-12.1c-1-4.1-3.7-7.7-4-12.3
		c-3.2,0.3-3.7-2.4-5.8-3.6c1-1.3,1.8-2.5,2.7-3.8c1.3,0.7,2.9-0.1,4.5,1.5c-0.5-1.7-1.2-2.6-2.2-3.6c-2.4,1.1-5.4,1-6.3,4.1
		c-1.5-0.8-0.4-1.6-0.5-2.3c-4.4-2-9-2.2-13.7-2.1c-2.3,0.1-4-1.5-6.3-2.2c-0.6,5.3-3,9.9-5,14.4c8.6,6.4,8.9,6.9,6.3,13.1
		c-0.9-1.4,0.4-2.9-0.5-4.3c-2.3,0.5-4.2-0.8-6.3-2c-0.7-2.6-0.5-5.3-0.9-8c-0.3-1.9,1.7-2.8,2.1-4.5c0.9-3.4,1.9-6.7,2.9-9.9
		c-1.3-3.3-4.4-4.8-6.7-7.4c0.1-1.2,0.5-2.7,0.2-4c2-0.9,3.6,0.6,5.5,0.5c-0.7-1.6-2.7-1.9-3.2-3.5c1.8-1.7,2.3-1.6,5.8,1.4
		c0.5-2.3,0-4.7,1.5-6.7c1.7,0.8,1.9,2.9,3.5,3.8c1.4-1.8,3.2-1,5-0.4c1,0.4,1.9,1,2.8,1.5c2.8,1.6,6,1.2,8.9,1.7
		c2.7,0.5,5.3,1.5,7.7,1.4c1.6,1.1,1.1,3.5,3.3,3.6c0.7-0.6-0.2-2,1.5-2.6c2,3,4.6,5.8,8.6,6.8c2-0.6,3.7-3,6.5-1.5
		c0.2,1.9-2,2-2.6,3.5c2.4,1.2,0.3,3.8,2.1,5.1c-1.5,0.9-2.2,0-2.9-0.2c-1.3,0.1-1.5,1.3-2.1,1.5c-1.5,0.6-2.2-1-3.3-0.7
		c-0.9,1,0.1,1.6,0.3,2.8c2.8-1.9,4.8-0.6,6.8,1.7c0.6-1.7-1.2-2.3-0.9-3.6c0.9-0.4,1.9-0.5,2.7-0.3c-0.8,4.8,2.4,9,1.7,13.8
		c4.6-5.9,9.5-10.9,16.6-13.1c7-2.2,13.7-0.9,20.4,2.3c4.9-2.7,10.4-3.6,16.3-3.8c10.7-0.4,19,3.7,25.5,12
		c10.6,13.6,9.8,34.7,0.2,47.4c-5.7,7.6-12,11-23.3,12.4c3.7,10.6,7.9,21,10,32c2.1,10.8,7.5,20.9,6.3,32.4
		c-1.1,1.9-2.9,3.5-4.9,4.5c-9.1,4.7-18.3,8.9-29,7.4c-1-0.1-1.9-0.3-2.9-0.3c-11.2-0.7-18.1-7.4-23.8-16.5
		c-0.2,0.5-0.6,1.1-0.8,1.8c-2.1,6.3-5.8,11.5-10,16.5c-4.9,6-9.8,12-13.4,18.9c-2.5,5-4,10.5-5.5,15.9c-1.9,7.2-3.5,14.4-3.7,21.9
		c0,0.8-0.2,1.7-0.8,2.3c-1.6,1.8-2,3.6-0.4,5.6c1,1.3,0.4,2.8,0,4.1c-0.8,3.1-0.1,5.6,2.3,7.7c2.6,2.3,2.9,3.9,1.3,7
		c-3.8,6.9-4,14.3-2.7,21.8c0.4,2.5-0.7,4.6-1.8,6.8c0.6,0.4,1.2,0.7,1.9,1.2c-1,0.9-2.2,0.2-3,0.9c-3.4,3-3.1,9.5-8.9,9.9
		c-1.3,0.7-0.3,2.1-1.4,2.7c-0.2-0.7-0.3-1.3-0.6-2.3c-8,1.2-15.9,3.2-24,3.9c-0.3-2.6,1.6-2.7,3-3.1c5.1-1.3,10.3-2.3,15.4-3.5
		c1.5-0.3,3-0.7,5.1-1.2c-3.7-10.9-5.2-22.3-14.1-30.2c1.7,0,1.8,0,3.3,1.6c3.7,4,5.7,8.8,7.6,13.7c1.8,4.7,3.2,9.5,4.5,14.3
		c2.1,0.1,3.5-0.7,4.5-2.5c1.1-2.1,2.5-4.1,3.8-6.1s2-4.1,1.2-6.4c-0.3-1-0.1-1.9,0.1-2.8c0.7-2.8,0.9-5.7,0.9-8.6
		c-0.1-2.4,0.7-4.4,1.8-6.5c1.8-3.4,3.2-6.8-0.1-10.4c-2.2-2.4-2.7-5.7-0.8-9.7c-2.1,1.4-1.3,3.6-2.8,4.3c-1-1.5,0.7-2.9,0.2-5
		c-0.8,2-1.5,3.6-2.1,5.3c-2.6-1.1-5.1-2.3-7.9-2.7l0.1,0.1c-1-1-2.6-0.9-3.8-1.7c1.6-0.7,1.2-2.7,2.9-3.6c-3.2-0.7-3.9,2.1-5.5,3.3
		c-0.8-0.3-0.7-0.8-0.5-1.2l0.1,0.1c-1-0.5-1.2-1.8-2.4-2.1c-0.9-0.3-1,1-1.8,0.9c-0.6-0.2-0.3-1.5-1.5-1.2
		c-0.8,0.8-1.4,1.6,1.1,2.8c-4.1-0.3-7.1-0.6-9.9-1.6c-0.7-1.2,0.9-1,0.7-2c-1.1-0.1-2.4-0.4-3.6-0.2c-1.8,0.3-3.7,0.2-5.2-0.5
		c-3.9-1.7-8.1-2-12.2-2.9c-3-0.7-6.2-1.3-8.8-2.9c-3.9-2.4-7.9-2-12-1.1c-1,0.2-2,0.6-3.1,0.1c0.5-2.1,2.7-1.4,3.7-2.5
		c-3.1-1.1-3.3-1-4.9,1.2c-5.2-0.1-9.2-5.4-14.8-3.3c-0.8,1.7-0.5,2.5,1,3.4c2.4,1.5,4.1,3.7,5.6,6.7c-2.2,0-2.8-1.7-4.5-2
		c-1.1,1.2-2.7,1.8-4.7,0.9c-1.2-0.6-2.3,0.1-3.4,0.6c-2.6,1.1-5.2,1.9-7.8,0c-1.1-0.8-1.9-0.5-2.1,1c-1.7-2.3-4.2-1.9-6.3-2
		c-1,0.6-1.5,1.4-1.9,2.4c2.2,1.5,4.4,3.1,6.6,4.7c-0.1,0.2-0.2,0.4-0.3,0.5c-1.9-0.8-4.1-1.4-5.8-2.6c-3.1-2.2-6.5-1.7-9.5-0.9
		c-11.2,2.7-21.7,7.4-32.3,11.9c-0.4,0.2-0.8,0.5-1.9,1.1c5.6,0.7,8.3,4.8,12,7.7c4.6,3.6,6.1,8.4,8,13.2c1.6,4,2.9,8.1,4.5,12.1
		c1.9,4.9,5.1,8.8,9.1,12.7c1-4,3-7.1,3.5-10.9c0.6-5.3,4.6-8.5,8.8-11.2c2.2-1.4,4.4-2.9,6.4-5c-4.7-4.7-10.1-8.2-15.3-12.1
		c5.9,3,11.7,6.1,16.5,11.2c2.2-1.4,4.3-2.8,6.8-4.4c-5.7-2.9-9.4-8-14.7-12.2c-0.3-1.6-2.1-3.4-4-5.6c1.4-0.3,2.4-0.4,3.1,0.6
		c4.5,6.7,11.2,11,17,16.1c0.4-0.1,0.7,0,0.9-0.2c4.9-4.2,11.2-5.5,16.9-8.1c1.9-0.9,3.4-1.8,4.2-3.9c1.2-3,3.3-5.4,6.6-7.6
		c-1.6,3.2-3.6,5.5-4.6,8.3c1.1,0.8,1.8-0.1,2.6-0.4c4.8-1.5,9.2-4,14.1-5.1c0.9-0.2,1.4-0.9,1.9-1.5c1.8-1.8,3.9-3.2,6.2-4.3
		c2.4-1.1,4.7-1.4,7.5-0.4c3.9,1.5,8,2.5,12,3.7c1.4,0.5,2.6,1,2.9,3c-4-1.3-7.9-2.4-11.6-3.9c-4.7-1.9-8.9-0.9-12.8,2
		c-0.7,0.5-1.4,0.9-2.3,1.6c4.9,4.2,9,8.9,12,14.5c0.1,0.2,0.1,0.4,0.2,0.6C404.8,470,404.6,469.9,404.4,469.9z"/>
	<path d="M198.3,659c2.5,2.4,5.2,3.5,8.5,3.7c8.4,0.6,16.7,0.8,25-0.9c2.2-0.5,4.4-1.2,6.4-2.3c6.4-3.4,13-5.6,20.5-5.5
		c8.1,0.1,16.1-2.3,23.8-4.8c2-0.7,4.2-0.1,6.2-1.5c-5.6-6-7-14.1-11.2-20.7c-0.7-1.1-1-2.6-2.1-3.2c-3.6-1.8-3-4.7-2.1-7.8
		c1.7,1,0.6,2.7,1.5,4.1c6,3.9,7.8,10.9,10.9,16.9c1.4,2.8,2.6,5.6,4.9,7.8c0.9,0.8,1.6,1.8,1.7,3.3c-1.2,2.5-3.4,4.2-6.2,4.6
		c-7.5,1-14.6,3.6-22.1,4.6c-2.3,0.3-4.6,0.7-6.8,0.5c-5-0.5-9.6,0.5-13.8,2.9c-7.6,4.3-15.9,5.9-24.5,5.7
		c-4.1-0.1-8.1-0.3-12.2-0.3c-5.2,0-8.4-3.3-11.4-6.7c-0.3-1.4,1.5-1.1,1.2-2.8c-0.6-3.2,1.4-5.8,4.2-7.3c4-2.2,7.8-4.6,12.1-6.4
		c3.4-1.4,6.5-3.5,8.8-6.7c0.5-0.7,1-1.4,1.7-1.8c6.2-3.6,9.6-9.4,13.2-15.2c1.6-2.7,3.7-5,6.1-7.1c0.8-0.7,1.5-1.6,2.7-1.4
		c1.7,0.6,1,2.7,2.3,3.6c0.8-0.8,0.4-1.8,0.2-2.6c-2.8-11.8-4.1-23.8-4.2-36c-0.1-8.4-1.8-16.7-2.2-25c-0.6-11.4-2.8-22.9,0.1-34.3
		c0.3-1.2-0.3-2.3-0.5-3.5c-0.3-2.1-0.7-4.2,1-6c-0.7,4.6,1.9,8.6,1.6,13.3c-0.9,14.8,0.6,29.4,2.5,44.1c0.4,3.2,0.9,6.4,0.8,9.7
		c-0.2,10,1.2,19.8,1.8,29.8c0,0.4,0,0.7,0.1,1.1c0.7,4.6,1.9,9.1,0.3,13.8c3.5,2.3,7.1,3.2,11.3,2.9c-1.6-5.8,0.4-11.4,0.3-17.1
		c0.4,5.6,0.8,11.1,1.1,16.8c3.4,0.5,6.6-1.5,9.9-0.3c-0.4,4.6-1.9,8.3-5.4,11.2c-1.6,1.3-3,1.7-4.9,0.9c-5.2-2.4-10.3-5.2-16-6.2
		c-1.1-0.2-1.5-1.1-1.9-2c-2.8,2.7-2.8,2.7-5.8-0.9c-1,0.3-1.2,1.4-1.6,2.1c1,2.8,4.9,3.5,4.9,7.1c-4,0.8-5.2-2.6-7.3-4.3
		c-0.9,0.2-1.1,0.9-1.4,1.6c0.9,2,4,2.8,3.6,5.7c-2.8,0.6-2.8,0.6-6-2.3c-0.3,0.1-0.6,0.2-0.9,0.3c-0.6,0.3-1.2,0.7-1.9,1.1
		c0.8,1.8,3.2,2.5,3,5.2c-3,1.4-4-1.3-5.4-3c-1,0.4-1.3,1.2-1.7,1.9c0.1,1.6,2,2.5,1.3,4.4c-2.1,1-2.8-1.2-4.1-1.8
		c-1.9,0.4-0.6,2.2-1.4,2.9c-0.9,0.2-1-1.1-1.8-0.9c-1.8,0.5-0.5,2.1-1,3.1c-1.2,0.4-1.2-1.2-2.5-1.3c-4.1,1.2-7.9,3.8-11.8,6.1
		C199,653.2,198.5,656.1,198.3,659z"/>
	<path d="M702.7,649.4c-6.1-6.1-7.2-14-11.3-20.3c-1.1-1.8-1.9-3.7-3.9-5c-2.6-1.7-1.2-4.3-0.9-6.9c1.9,1.2,0.7,3,1.7,4.5
		c2.7,1,4.2,3.5,5.6,6.2c2.1,4.4,5,8.5,6.4,13.2c0.5,1.6,1.8,2.8,3,4c1.1,1.1,2.2,2.2,2.6,4.1c-1.3,2.6-3.6,4.3-6.5,4.7
		c-7.3,0.9-14.2,3.5-21.4,4.4c-2.5,0.3-5,0.8-7.5,0.5c-4.7-0.5-9.1,0.4-13.2,2.7c-12.8,7.4-26.7,6.5-40.6,5.1
		c-3.5-0.4-5.6-3.7-7.8-5.8c-0.4-1.6,1.3-1.5,1-3.1c-0.5-3.2,1.4-5.8,4.2-7.3c4-2.2,7.8-4.6,12.1-6.4c3.4-1.4,6.5-3.5,8.8-6.7
		c0.5-0.7,1-1.4,1.7-1.8c6.2-3.5,9.6-9.4,13.2-15.2c2.2-3.5,4.9-6.7,8.3-8.7c2.2,0.7,1.5,2.8,2.7,3.7c0.9-0.6,0.5-1.5,0.3-2.2
		c-2.9-12.2-4.2-24.5-4.3-37c-0.1-8.2-1.8-16.2-2.2-24.3c-0.6-11.4-2.8-22.9,0.1-34.3c0.3-1.2-0.3-2.3-0.5-3.5
		c-0.3-2.1-0.8-4.2,1-6.1c-0.8,4.2,1.9,7.8,1.6,12.1c-1,15.1,0.5,30.1,2.4,45.1c0.4,3.2,0.9,6.4,0.8,9.7c-0.2,10,1.2,19.8,1.8,29.8
		c0.3,5.1,2.3,10,0.3,14.9c4.6,2.7,6.5,3.2,11.3,2.8c-1.5-5.6,0.3-11.3,0-16.9c1.2,5.6,0.6,11.3,1.6,16.8c3.4,0.4,6.6-1.7,9.9-0.2
		c-0.8,4.2-1.9,7.9-5.2,10.7c-1.8,1.5-3.3,2.1-5.5,1.1c-5.1-2.4-10-5.1-15.7-6.1c-1.1-0.2-1.6-1-2-2c-1.3,0.6-1.7,2.5-3.6,2.3
		c-2.2-0.2,0.1-3.1-2.3-3c-1.1,0.2-1.1,1.5-1.6,2c1.2,2.8,4.9,3.5,4.9,7.2c-3.8,0.6-5.2-2.4-7.1-4.3c-1.1,0-1,1-1.7,1.2
		c0.8,2.4,4.2,3,3.6,6c-2.8,1.4-4.1-1-5.9-2.2c-1.1,0-1.8,0.8-2.9,1.3c0.7,1.9,3.1,2.5,3,4.7c-2.3,1.6-2.7,1.4-5.5-2.3
		c-0.9,0.2-1.2,1.1-1.6,1.8c0,1.6,2,2.5,1.3,4.4c-2,1.1-2.8-1.1-4.1-1.7c-1.9,0.3-0.9,2-1.2,2.8c-1.2,0.5-1.3-1.2-2.3-0.7
		c-1.5,0.7-0.1,2.2-0.8,3.1c-1.3,0.2-1.3-1.5-2.9-1.3c-3.8,1.3-7.5,3.7-11.3,5.9c-2.5,1.5-3.1,4.4-3.1,7.2c2.5,2.4,5.3,3.6,8.7,3.8
		c8.3,0.5,16.5,0.8,24.7-1c2.4-0.5,4.6-1.3,6.7-2.4c6.3-3.3,12.7-5.4,20.2-5.4c8.1,0.1,16.1-2.3,23.9-4.8
		C698,650.1,700.1,650,702.7,649.4z"/>
	<path d="M569.7,606.6c-0.6-0.8-1.1-1.4-2.2-1.7c-6.5-1.6-13-3.2-19.7-3.4c-5.3-0.2-10.3-2-15.5-2.6c-7.1-0.9-14.1-2.7-21.2-2.9
		c-3.7-0.1-7.2,1.8-10.5,1.6c-1.7,0.8-1.2,2.6-2.6,3.8c-0.5-1.8,0.5-2.9,0.6-4c2.9-2.3,6.5-1.3,9.6-3c-5-7.2-8.4-15.3-14.3-21.8
		c-5.3-5.9-7.9-13.5-11.2-20.6c-5.4-11.5-8.4-24-14.9-34.9c-0.2-0.3-0.4-0.6-0.7-0.8c-1.6-0.1-2.3,1.2-3.3,1.9
		c-3.7,2.3-7.5,3.9-11.7,1c-1-0.7-2-0.6-3.1-0.6c-3.5,0-7-0.1-10.4,0.1c-10.2,0.5-20.3-0.9-30.5-0.5c-0.6,0.2-0.1,0.9-0.3,1.2
		c-3,4.1-3.3,9.1-5.1,13.6c-1.3,3.3-3.9,5.7-6.7,7.8c-2,1.5-3.9,3.1-5.8,4.5c-0.9-0.3-1-0.9-1.1-1.5l-0.1,0.1
		c2.4-2.1,4.9-4.1,7.2-6.4c3-2.9,5.1-6.3,5.2-10.7c0-2.7,1.2-4.8,3.2-6.4c-0.2-7,3.6-12.3,6.6-18.3c1.4,2.8,0,5-0.7,7.3
		s-1.6,4.5-2.6,7.1c1.6,0,2.8,0,4.1,0c12.2,0.5,24.4,0.6,36.6,0.1c1.6-0.1,3.1-0.1,4.5,1c2.3,1.8,4.8,1.6,7.1,0.3
		c5.1-2.8,10.2-5.8,13.9-10.6c0.7-1,1.6-1.8,1.7-3.1c0.4-7.5,3.3-14.4,4.2-21.8c1.2-10,1.7-20,2-30.1c0.4-12,1.1-23.9,2.2-35.8
		c0.6-6.1-0.2-12.4-0.5-18.7c-0.4-8.4,0-16.6,1.2-25.1c1.2,0.6,0.7,1.4,0.7,1.9c-0.8,9-1.1,17.9-0.2,26.9c1,10.3-0.4,20.6-0.8,30.8
		c-0.5,11.3-0.7,22.5-1.2,33.8c-0.4,9.9-1.3,19.8-4.1,29.5c-0.7,2.5-1.2,5.1-1.1,7.8c0.1,2.4-1.4,4.5-3,6.4c-1.7,2-3.6,3.8-5.9,5.5
		c3.2,5.2,6.4,10.2,7.6,16c1.4,7,4.5,13.3,7.4,19.6c0.8,1.7,0.7,3.7,1.8,5.3c1,1.5,1,3.8,3.6,4.1c0.7,0.1,1.2,1.7,1.6,2.7
		c1.9,4.2,4.3,8,7.4,11.4c4.4,4.9,6.5,11.1,10,16.5c0.8,1.3,1.6,2.7,2.8,3.5c21.2,4.4,42.9,5.2,64.2,11.1c1.2,3.7,2.5,7.8,3.9,11.9
		c0.6,1.8,0,3-1.6,3.8c-2.7,1.4-5.5,2.5-8.3,3.2c-0.7,0.2-1.6,0.4-2.1,0.1c-4.7-2.6-10-3.1-15.2-3.9c-5.6-0.8-11-2.2-16.4-3.6
		c-3.9-1-7.8-1.7-11.7-1.6c-8.8,0.1-17.1-2.2-25.4-4.2c-2.7-0.6-5.3-1.5-8.1-1.1c-2.9,0.4-5.3-1.5-8-1.5c-10-0.1-19.8-1.9-29.3-4.8
		c-4.6-1.4-9.2-2.2-14.1-2.3c-1.5,0-3-0.3-4.3-1.9c8.2,0.8,16.1,1.7,23.8,4c7,2.2,14.3,2.7,21.5,3.6c9.5,1.3,19.2,1.8,28.5,4.9
		c4,1.3,8.2,1.7,12.4,1.7c7.4,0,14.5,1.6,21.5,3.5s14.4,2.2,21.1,4.3c1.1-1-0.4-1.8,0.4-2.5c0.3,0.3,0.6,0.5,0.7,0.8
		c1,3,2,3.6,4.9,2.7c2.8-0.9,5.7-1.6,8.5-3.2c-1.2-4.3-2.4-8.5-3.6-12.7C572.8,605.5,571.2,606.3,569.7,606.6L569.7,606.6z"/>
	<path d="M281.2,511.7c-1.3,0.9-1.6,2.1-1.3,3.7c0.8,4.7,2.2,9.3,3.6,13.9c2.8,9,2.1,17.8-1.9,26.2c-5.1,10.9-6.9,22.5-7.9,34.4
		c-0.6,7.2-0.7,14.3-0.3,21.5c0.1,1.6-0.3,3-1.3,4.3c-1.1-1.1-1-2.3-1.1-3.5c-1.1-9.8-0.7-19.6,0.8-29.4c0.5-3.3,1-6.6,1.1-10
		c0.2-4.7,1.9-9,4-13.1c3.8-7.7,5.6-15.7,5-24.3c-0.3-3.9-1.8-7.4-2.7-11.1c-0.9-3.4-1.6-6.8-1.1-10.3
		C278.4,512.4,278.9,510.9,281.2,511.7L281.2,511.7z"/>
	<path d="M694.7,513.1c-1.3,0.9-1.6,2.1-1.3,3.7c0.8,4.7,2.2,9.3,3.6,13.9c2.8,9,2.1,17.8-1.9,26.2c-5.1,10.9-6.9,22.5-7.9,34.4
		c-0.6,7.2-0.6,14.3-0.3,21.5c0.1,1.6-0.1,3.1-1.4,4.2c-1-1-0.9-2.3-1-3.4c-1.1-9.8-0.7-19.6,0.8-29.4c0.5-3.3,1-6.6,1.1-10
		c0.2-4.8,1.9-9,4-13.1c3.8-7.7,5.6-15.7,5-24.3c-0.2-3.8-1.7-7.2-2.6-10.8c-0.9-3.4-1.7-6.8-1.2-10.3
		C691.8,514.1,692.1,512.3,694.7,513.1L694.7,513.1z"/>
	<path d="M435.4,452.3c3,4.1,7,7.1,10.8,10.3c1.4,1.2,3,2.4,2.2,5.1c-3-4.7-7.6-7.3-11.2-10.7c-3.1-2.9-4.4-2.5-6,2.1
		c2,1.7,4.1,3.4,6.2,5.1c1.3,0.3,2.5-1.6,3.9-0.1c-0.1,1.6-1.5,1.2-2.6,1.6c2.3,4.2,4.7,8.4,6,13.1c-2.7,0.5-2.8-1.2-3.2-2.2
		c-1-2.3-1.8-4.7-2.9-6.9c-2.3-4.8-6.3-8-10.6-10.9c-0.8-0.5-2.1-0.6-2.4-1.9c1-0.7,1.7,0.7,2.8,0.4c0.6-4.1,3.6-4.8,7.1-4.8
		L435.4,452.3z"/>
	<path d="M352.5,467.7c-5.6-4.5-10.7-9.4-15.2-15.1c2.2,0.4,3.3,2.5,5.7,3.4c-1.3-3.7-2.6-7-3.9-10.6c5,2.1,8.6,9.7,6.6,13.6
		C348,461.8,351.6,463.8,352.5,467.7z"/>
	<path d="M444.6,254.6c-2.1,0.1-2.8-1.6-4.4-2.2c-2,1-4.5-0.5-7.5,1c3.9,0.6,6.8,1.8,9.4,3.7c-3.3,0.2-6.5,0-9.9-1.1
		c-0.4-1.7-1.3-3.3-3.9-2.7C431,247.9,439.3,248.7,444.6,254.6z"/>
	<path d="M696.4,494.2c-3.3,5.5-8.9,8.9-11.8,7.3c-0.7-1.2,0.8-1.8,0.9-2.9c-3-2.4-7.1-3.6-9.3-7.1c3.7,1.8,7.9,2.9,10.9,6.4
		C689.9,496.3,692.6,494,696.4,494.2z"/>
	<path d="M282.9,492.7c-3.4,5.6-9,8.9-11.8,7.2c-0.6-1.2,0.8-1.8,0.9-2.9c-3.1-2.5-7.2-3.6-9.4-7.1c3.8,1.8,7.9,3,10.9,6.4
		C276.4,494.9,279.1,492.5,282.9,492.7z"/>
	<path d="M464.8,574.2c-0.6-1.3-1.9-1.9-2.8-3c-1.9-2.4-1.6-5.6,0.7-7.2c2.4-1.8,5.8-1,7.4,1.7s0.8,5.4-1.9,7
		C467.1,573.1,466,573.6,464.8,574.2z"/>
	<path d="M878.4,575.2c-0.7-1.5-2-2.2-2.9-3.3c-2-2.4-1.7-5.6,0.6-7.3c2.4-1.8,5.8-1.1,7.4,1.6c1.6,2.6,0.9,5.5-1.9,7
		C880.6,573.8,879.5,574.3,878.4,575.2z"/>
	<path d="M677.7,524.6c0.4,4.1-1.3,8-1.3,12s0.5,8-0.5,12.4c-1.9-2-2.1-4.3-1.6-6.4c0.5-2,0.4-3.8,0.1-5.9
		c-0.6-4.3,0.3-8.4,1.8-12.3C676.7,524.4,677.2,524.5,677.7,524.6z"/>
	<path d="M263.7,522.9c0.5,1.3-0.6,20.5-1.3,24.5c-2-2.4-2-5-1.3-7.5c0.3-1.2,0.4-2.2,0.1-3.4c-1-4.3,0-8.5,1.2-12.7
		C262.5,523.4,262.9,523.1,263.7,522.9z"/>
	<path d="M308.7,463.8c8.7,4,17.4,8.1,24.3,15.1C324.2,475,316.8,468.7,308.7,463.8z"/>
	<path d="M872.7,554.4c2.7,0.1,5.2,2.7,5.1,5.4c-0.1,2.4-2.5,4.8-4.9,4.8c-2.8,0-5.4-2.8-5.3-5.7C867.9,556.2,870,554.3,872.7,554.4
		z"/>
	<path d="M438.5,291.8c1.6-3.3,5.1-3.7,7.8-4.6c5.1-1.6,6.5-5.8,8-10c0.5-1.3,0.3-2.8,1.9-4.2c0,4.6-1.4,8.4-3,12.1
		c-0.2,0.5-0.8,0.8-1.4,1.1c-3.9,2.2-8.3,3.6-12,6.4C439.4,292.9,438.9,292.5,438.5,291.8z"/>
	<path d="M464.4,558.9c0,2.4-2.4,4.9-4.8,4.9c-2.8,0.1-5.5-2.7-5.4-5.6c0.1-2.7,2.2-4.6,4.9-4.6
		C461.9,553.6,464.4,556.2,464.4,558.9z"/>
	<path d="M455,545c1.5,2.4,4.1,3.9,3.1,7c-0.7,1.9-2.4,2-4,1.8c-1.3,0.4-0.8,2.1-2.2,2.4c-2.1-1.6,1.4-4.1-0.8-5.7
		c-1.1-0.4-1.6,1.4-2.8,0.9C448.2,549.4,448.2,549.4,455,545z"/>
	<path d="M864.4,551.2c-1-0.2-1.6,1.5-2.8,0.9c0.1-2.1,0.6-2.5,6.8-6.3c1.5,2,4,3.6,3.2,6.6c-0.6,2.2-2.5,2.2-4.1,2.1
		c-1.3,0.5-0.7,2.2-2.2,2.4C863.3,555.3,866.9,552.8,864.4,551.2z"/>
	<path d="M464.7,465.8c2.1,4.1,1.4,8.3,0.1,12.4c-0.6,1.9-1.5,3.8-2.2,5.7c-0.4,1.2-0.9,2.4-0.9,3.8c0.1,4.1-0.7,5.3-5,7.1
		c0.1-1,0.9-1.4,1.5-1.8c2.2-1.5,3.2-3.4,2.7-6.1c-0.3-1.6,0.3-3.1,0.8-4.6c0.9-2.7,1.8-5.4,2.4-8.3
		C464.6,471.3,464.4,468.5,464.7,465.8z"/>
	<path d="M464,434.1c1.6,8.5,3.1,17-0.4,25.4C465.4,451.1,463.9,442.6,464,434.1z"/>
	<path d="M357.2,464.7c-2.8-5.3-7.3-9-11.3-13.4C351.2,452.6,357.9,460.3,357.2,464.7z"/>
	<path d="M360.7,448.1c-1.6,0.4-1.9,1.7-2.1,3c-0.2,1.1-0.4,2.1-2,2.8c0-3.2,0.2-5.9,3-7.6c2-1.2,3-3.4,4.9-4.7
		c1.1-0.8,2.1-2,4.4-2.2c-2.1,3.8-5.8,5.6-8,8.5L360.7,448.1z"/>
	<path d="M400.7,518.4c-2.7-7.6-3.8-15.4-2.8-23.5C398.6,502.7,399.8,510.5,400.7,518.4z"/>
	<path d="M250.3,493.5c-1.2-4.5-1.4-5.3,5-8.9c0.9-0.9-0.7-2.1,0.5-2.9c1.8,2.4,1.7,3.7-0.4,6C253.7,489.6,250.6,490.1,250.3,493.5z
		"/>
	<path d="M313.4,470.3c5.9,4,12,7.5,16.9,12.8c-0.2,0.3-0.5,0.6-0.7,0.9c-5.6-4.4-11.2-8.7-16.8-13.1
		C312.9,470.8,313.1,470.6,313.4,470.3z"/>
	<path d="M668.9,485.9c0.4-1-0.6-2,0.5-3.1c1.8,2,1.5,3.8,0,5.6c-0.7,0.8-1.5,1.6-2.4,2.2c-1.5,1-3,2.1-3.3,4.2
		C662.9,489.5,663.1,489.2,668.9,485.9z"/>
	<path d="M425.2,284.5c-3.1,0.9-5.5-0.2-8-1.6c0.9-2.4,2.8-2.2,4.5-2.1C423.8,280.8,424.8,282.1,425.2,284.5z"/>
	<path d="M400.6,478.4c3.3,6.4,5.1,13.3,7.9,19.9C404.4,492.2,402.5,485.2,400.6,478.4z"/>
	<path d="M360.9,448c1,0.5,0.8,1.4,0.6,2.2c-1.2,4.2-1.5,8.2,2.1,12c-2.9-0.3-3.8-1.1-4.3-3.6c-0.8-3.6-0.3-7.1,1.4-10.3L360.9,448z
		"/>
	<path d="M416.3,276.5c4.7-0.5,8.9,2.1,14,2.3C428.1,280.7,422.2,279.7,416.3,276.5z"/>
	<path d="M435.5,598.7c-0.4-3.7,0.5-8.6,2.1-11.6C438.4,589.5,437.5,595.1,435.5,598.7z"/>
	<path d="M848.9,599.5c0-3.8,0.6-7.5,2-11.6C851.8,590.9,850.9,596.5,848.9,599.5z"/>
	<path d="M353.4,454.9c-2.1-3.1-4.3-6.3-6.4-9.4c0.3-0.2,0.5-0.4,0.8-0.6c3,2.6,4.4,6.2,6.5,9.4C354,454.5,353.7,454.7,353.4,454.9z
		"/>
	<path d="M456.1,513.2c-1.8-4.4-2.3-9.1-2.3-13.9C454.5,503.9,455.3,508.6,456.1,513.2z"/>
	<path d="M424.2,271.4c-1.4-2.2-4.5-0.3-5.8-2.7C421,266.8,424.1,268.1,424.2,271.4z"/>
	<path d="M377.8,440.3c-2,3.8-4.2,5.2-8.1,5.5C372.6,443.8,375.2,442.1,377.8,440.3z"/>
	<path d="M291.1,492.6c-2.3,0.9-4.2,3.2-7.1,2.1C285.2,492.4,285.8,492.3,291.1,492.6z"/>
	<path d="M481.4,391.2c-3.6-0.5-7-0.3-10.9-0.3C473.8,389.4,476.8,389.5,481.4,391.2z"/>
	<path d="M704.5,493.9c-2.2,1.1-4.2,3.4-7.6,2C699.2,493.2,702,494.1,704.5,493.9z"/>
	<path d="M469.6,505c-4.1-1.6-7.8-4.8-9-7.5C463.7,500,466.7,502.5,469.6,505z"/>
	<path d="M429.8,317.7c-3.2,1-6.4,1.9-9.6,2.9c-0.1-0.3-0.1-0.5-0.2-0.8C422.9,318.1,426.3,317.5,429.8,317.7z"/>
	<path d="M659.1,515.3c3.3,1.9,4.5,4.1,2.3,8.4C661.5,520.3,661,517.6,659.1,515.3z"/>
	<path d="M248.2,521.8c-0.8-1.4-0.3-2.8-0.4-4.1c-0.3-1.4-2.2-2.1-2-3.9C249.2,515.5,249.7,517.2,248.2,521.8z"/>
	<path d="M463.1,492.5c2.8,1.2,5.5,2.3,8.2,3.5C468.3,495.6,465.3,495.1,463.1,492.5z"/>
	<path d="M363,456.2c2.5,0.6,4.9,1.5,4.4,4.9C365.9,459.4,364.5,457.8,363,456.2z"/>
	<path d="M479.1,409c-2.7,0-5.3,0-8.5,0C473.7,407.2,476.5,408.8,479.1,409z"/>
	<path d="M468,412.8c2.7,0.5,5.3,0.6,8,0.9C473.2,414.5,470.5,414.7,468,412.8z"/>
	<path d="M261.6,481.5c-0.2,2.3,0.9,3.9,1.1,6C260,485.3,259.8,484.2,261.6,481.5z"/>
	<path d="M675.2,488.9c-0.8-1.7-2.5-3.3-0.6-6c0.6,2.2,1,4,1.5,5.8C675.8,488.8,675.5,488.8,675.2,488.9z"/>
	<path d="M268.8,500.6c1.1,2.5-0.4,4-2.2,6.2C266.9,504.1,267.7,502.3,268.8,500.6z"/>
	<path d="M326.2,457.2c2.1,1.2,3.9,2.7,4.9,5C329,461,327.4,459.3,326.2,457.2z"/>
	<path d="M682,502c1,2.5,0.8,2.9-1.8,5.8C680.1,505.6,681.5,503.9,682,502z"/>
	<path d="M974.5,612c1.3,1.5,1.7,3.3,2.1,5.6C974.8,615.9,974.8,613.9,974.5,612z"/>
	<path d="M563.1,616.6c-1.6-2.2-1.8-4.1-2-6C562.3,612.2,562.9,613.9,563.1,616.6z"/>
	<path d="M983.1,607.9c-2.1,0.7-4.1,1.6-6.3,1.6C978.8,608.8,980.7,607.3,983.1,607.9L983.1,607.9z"/>
	<path d="M569.6,606.5c-2.1,0.6-4.1,1.7-6.3,1.6C565.3,607.4,567.2,605.8,569.6,606.5L569.6,606.5z"/>
	<path d="M455.4,493.7c-0.4-1.8,0.5-3,0.8-4.3C456.5,490.9,456.8,492.3,455.4,493.7z"/>
	<path d="M422.4,462.7c-1.4-1.1-2.7-2.2-4.1-3.2c2.2,0.1,3.6,1.1,4.4,2.9C422.7,462.4,422.6,462.5,422.4,462.7z"/>
	<path d="M298.9,491.5c-1,0.8-2.1,0.7-3.7,1.1C297,491.1,297,491.1,298.9,491.5z"/>
	<path d="M708.4,493.7c1.6-1.3,2.7-1.3,4.6-1.2C711.3,493.6,710.3,493.8,708.4,493.7z"/>
	<path d="M409,461.9c-0.9-0.9-1.7-1.8-2.9-3.1C408,459.3,408.3,460.7,409,461.9z"/>
	<path d="M413.5,323.4c1.1-1.1,2.6-1.2,3.9-1.7C416.3,322.8,414.9,323.1,413.5,323.4z"/>
	<path d="M248.1,510.9c-1.8-0.5-2.3-1.3-2.3-2.9C247.4,508.3,247.7,509.4,248.1,510.9z"/>
	<path d="M659.4,509.2c1.5,0.7,1.8,1.6,2.1,2.6c-1.1,0.5-1.4-0.1-1.8-0.7C659.2,510.6,659.1,510.1,659.4,509.2z"/>
	<path d="M404.9,469.4c1.1,1.1,1.8,2.3,2.1,3.8c-1.4-0.8-2-2.1-2.6-3.4C404.6,469.7,404.7,469.6,404.9,469.4z"/>
	<path d="M409.5,322.6c-0.6-0.9-1.2-1.8-1.8-2.7c1.4,0.3,2.3,1,2.5,2.3C409.9,322.4,409.7,322.5,409.5,322.6z"/>
	<path d="M467.1,393.4c0,1,0,2,0,3.6C466.6,395.4,466.7,394.4,467.1,393.4z"/>
	<path d="M403.7,335.4c0.3-1.9,0.8-2.7,2.5-3.9C405.5,333.3,405.2,334.3,403.7,335.4z"/>
	<path d="M419.2,309.7c-0.1-1.4,0.4-2.2,1.1-2.8c0.2,0,0.4,0,0.4,0C420.8,308.1,420.3,308.9,419.2,309.7z"/>
	<path d="M259.7,516.4c-0.6-1.9,0.3-2.5,1.8-2.6C260.9,514.6,260.3,515.5,259.7,516.4z"/>
	<path d="M264.8,477c-0.4,0.8-1,1.5-2,1.9C263.2,477.8,263.8,477.2,264.8,477z"/>
	<path d="M678.9,477.9c-1.1,1.3-1.7,2-2.7,2.4C676.6,479.3,677.2,478.6,678.9,477.9z"/>
	<path d="M675.1,514.7c-0.7,1.5-1.3,2.3-2.5,3.3C672.5,516.1,673.3,515.4,675.1,514.7z"/>
	<path d="M677.5,555.6c-1.1-1.1-0.9-1.7-0.1-2.5C678.3,553.9,678,554.7,677.5,555.6z"/>
	<path d="M263.9,551.7c1.1,0.8,0.4,1.5,0.5,2.6C262.9,553.3,263.2,552.6,263.9,551.7z"/>
	<path d="M408.5,327.7c0.1-1.2,0.6-1.6,1.7-1.8C409.9,326.8,409.6,327.3,408.5,327.7z"/>
	<path d="M259.5,588.2c1,1.4,0.6,2.1,0.5,3C259.2,590.3,259.4,589.5,259.5,588.2z"/>
	<path d="M673.3,592.7c-0.5-1.1-0.7-1.8-0.1-2.6C673.9,590.8,673.7,591.5,673.3,592.7z"/>
	<path d="M680.9,473.5c-0.7,0.8-1.3,1-1.9,0.4C679.5,472.9,680.1,473,680.9,473.5z"/>
	<path d="M265.5,472.4c0.6-0.9,1.2-0.7,1.9-0.4C266.9,472.8,266.4,473.1,265.5,472.4z"/>
	<path d="M265,508.7c0.3,1.5-0.7,1.5-1.3,1.8C263.5,509.6,263.9,509,265,508.7z"/>
	<path d="M676.9,511.8c-0.1-0.9,0.6-1.2,1.2-1.7c0.7,0.6,0.5,1,0.1,1.4S677.5,512.2,676.9,511.8z"/>
	<path d="M464.1,414.7c0.1,0.4,0.2,0.9-0.1,1.3C463.8,415.5,463.7,415.1,464.1,414.7z"/>
	<path d="M462,470c0,0.3-0.1,0.6-0.1,0.9h-0.1c0-0.3,0-0.6,0-0.9C461.8,470,461.9,470,462,470z"/>
	<path d="M422.8,462.3c0.6,0.4,1.1,0.9,1.2,1.7c-1,0.1-1.2-0.7-1.5-1.4C422.6,462.5,422.7,462.4,422.8,462.3z"/>
	<path fill="#FFFFFF" d="M803.1,171c13.1,2.9,25.2,1.3,34.5-10.1c6.3,8.1,14.4,11.2,24,10.9c0.2-0.9-0.3-1.3-0.9-1.3
		c-13.3-1-22.7-12.4-24.4-26.3c-1.3-10.9,1.6-20.7,9-28.9c3.5-3.9,8-6.5,13-7.9c5.4-1.5,10,0,14.8,3.3c-7.3,4.6-12.3,10.7-15.2,18.4
		c-0.3,0.7-0.7,1.3-1.4,1.5c-2.5,1-3.3,3.3-4,5.6c2,3.9,2.1,8.3,2.8,12.5c1.2,7.4,3.5,14.2,8.6,19.8c1.1,1.2,1.4,2.6,1.6,4.2
		c0.6,8.7-0.2,17.3-0.9,25.8c-0.6,6.5-0.2,12.9,1.3,19.3c0.3,1.2,0.5,2.3,0.2,3.5c-0.7,0.5-1.3-0.8-2-0.2c-0.9,0.5-0.5,1.4-0.5,2.2
		c-2.5,0.3-2-2.2-3.4-3.2c-7.6-1.8-15.9-1.7-22.7-5.7c-1.7,1.1-0.3,1.8-0.7,2.6c-2-1.2-2.9-3.2-4.3-5.2c-2.3,1.9-1.2,4.5-2,7
		c-1.7-1.1-3-3.5-5.7-2.2c-0.1,2.5,2.7,2.6,3.4,4.4c-1.9,0-3.4-1.4-5.5-0.9c-0.3,1.3,0.1,2.8-0.6,4c2.2,2.8,5.5,4.3,6.9,7.7
		c-1.7,4.2-2.2,8.8-4.5,13c-1.4,2.6,0.1,6.1,0.3,9.2c2.1,1.1,4,2.7,6.5,2c0.8,1.4-0.2,2.7,0.4,4c3.1-5,2.1-7.1-5.5-12.1
		c-0.6-1.5-0.5-2.7,0.7-4.1c2.4-3.1,2.7-7.1,3.8-11c4.6,3.2,9.9,2.2,14.8,2.6c1.9,0.2,3,2.2,4.8,1.3c0.5,1.1-0.8,2,0.7,2.7
		c1.2-2.9,3.9-3.2,6.4-3.9c1,0.8,1.5,1.7,2,2.9c-1.3-1-2.8-0.1-4.1-1.2c-1,1.4-1.9,2.6-2.5,3.5c-0.2,2,3,1.2,2,3.4
		c0.7,0.8,1.9-0.1,2.6,0.6c0.9,0.7,1.1,1.8,1.3,2.9c0.4,2.5,1.3,4.9,2.6,7c0.8,1.3,1,2.7,1.1,4.1c0.2,2.6,0.6,5.2,1.4,7.8
		c1.7,6.2,1.3,12-2,17.6c-1,1.8-1,1.8,0.5,3.3c1.5-1,1.1-3.1,2.7-4.7c0.5,3.8,1.1,7.3,1.4,10.7c0.1,1.6-0.9,2.9-1.9,4.1
		c-2.9,3.9-7.1,5.9-11.3,7.8c-3.8,1.7-7.7,3.4-11.3,5.5c-1,0.6-2.2,0.9-3,2.8c5.1-3.2,10.6-4.2,16.3-6.9
		c-5.2,10.1-3.6,19.6-0.7,29.2c-2,1.8-4.5,2.4-7.4,3.3c3.1,1.4,5.5,0.6,8.2-0.6c2.2,7.1,5.3,13.7,9.5,19.6
		c4.3,6.1,11.3,8.6,17.9,11.9c-3,5.2-5.9,10-8.4,15c-3,5.8-6,11.7-8.4,17.9c-2.7,7-2.6,14.3-3.4,21.5c-0.5,4.4-1.1,8.8-1.5,13.2
		c-0.3,3.3-2.8,5.9-2.2,9.3c-6.3-1.5-12.4-1.5-18.4-1.5c-7.1,0.1-14-1.5-21-2.3c-9.7-1.1-18.9-3.8-28-7.5c-3.5-1.4-7.3-2.3-11.2-2.6
		c-2.1-4.1-0.4-8.1,0.2-12.3c1-7.4,3.5-14.7,3-22.3c-0.5-7,0.7-13.8,1.9-20.6c0.4-2.2,0.7-4.3-0.5-6.4c1.7-1.4,2-3.4,2.2-5.4
		c0.7-7.5,1.1-14.9,1.4-22.4c0.1-3.6,1-7.1,2.5-10.4c1.3-2.8,3.1-4.9,5.9-6.5c4.9-2.7,9.9-5.7,14-9.3c4.7-4.2,10.7-6.2,15.7-10.8
		c-0.8,3.1-2.5,4.8-4.3,6.4c-1.3,1.2-2.7,2.4-3.9,3.7c-1.6,1.7-2.5,3.6-1,5.8c1.3,1.9,5.2,3.1,6.8,1.5c1.7-1.7,3.8-1.8,5.7-2.7
		c2.7-1.3,5.3-2.8,7.5-4.9c0.2-0.8-0.5-1.3-0.8-2c-2.6,2.1-4.7,4.9-8,5.8c-3,0.8-6,3-9-0.4c1.2-2.5,3.7-3.7,5.2-5.6
		c1.1,0.5,0.8,2,2.3,2.2c1.1-7.3,3.7-14.3,4-21.8c-1.8-2.3-4.9-2.5-6.7-4.3c0.4-11.5-0.3-22.8,1-34.1c-2.4,1.9-4.1,7.5-3.1,10.8
		c0.6,2.1,0.7,4.2,0.4,6.4c-0.7,4.9,0,9.8-0.1,15.1c-4.4-3-8.3-5.9-11.8-9.3c-1.5-1.5-2.2-3.2-2.6-5.3c-0.9-5.1-2-10.1-3.7-15
		c-0.3-0.8-0.7-1.5-0.6-2.4c0.4-3.6-1-6.8-2.6-9.9c-2-3.9-2.9-7.8-2-12.4c2.2-11.6,3-23.3,2.3-35.1c-0.2-3.3-0.7-6.7-1.2-10
		C799.5,183.2,800.4,177,803.1,171z"/>
	<path fill="#FFFFFF" d="M802.4,545.3c0.3-5.3-0.5-10.3-2.3-15.4c-2.4-6.5-0.9-13.3-0.3-19.9c0.3-3.7,0.7-7.4,1-11.1
		c0.1-1,0.4-2.2-1-2.8c-0.9,1,0,2.4-0.9,3.4c-0.8-0.6-0.4-1.5-0.4-2.2c-0.2-6.9-3.1-12.4-8.8-16.4c-3.6-2.6-7.5-4.6-11-7.5
		c-1.5-1.2-3.5-1.3-6.1-1.9c7.5-4.6,15.2-7.5,22.9-10.7c1.6,3.4,3.1,6.6,6.5,8.5c-1.7-2.8-3.3-5.6-4.9-8.2c0.8-2.3,2.3-1.2,3.5-1.1
		c1.5-0.8,2.3-2.3,4.2-2.8c5.1,3.9,8.7,9.2,13,14c0.3,0,0.5,0.3,0.8,0.4c-0.3-0.2-0.3-0.5-0.3-0.8c-3-5.6-6.9-10.3-11.9-14.4
		c4.6-3.8,9.3-6.2,15.4-3.6c3.6,1.5,7.4,2.5,11.3,3.8c-0.3-1.8-1.2-2.5-2.6-2.9c-4.9-1.5-9.8-3.1-14.7-4.6c-0.9-0.3-1.6,0-2.4,0.3
		c-2.2,0.6-4.4,1.4-6.1,3c-6,5.6-14.2,6.1-21.6,10.2c1-3.8,3.2-6,4.6-9.2c-3.2,2.1-5.3,4.5-6.5,7.6c-0.8,2-2,3-3.9,3.8
		c-2.1,0.8-4.1,2.6-6.2,2.8c-4.8,0.2-7.5,4-11.5,5.7c-3.8-2.5-7-5.7-10.5-8.6c-3.2-2.7-5.8-6.2-9.3-8.6c0.6,2.7,3.4,3.9,3.2,6.2
		c5.5,3.7,8.9,9.1,14.9,12c-2.5,1.6-4.5,3-6.8,4.5c-4.6-5-10.5-8.1-16.4-11.2c5.2,3.8,10.5,7.5,15.2,12c-1.6,2.1-3.6,3.5-5.8,4.8
		c-5.5,3.3-9.4,7.5-9.9,14.4c-0.2,2.6-1.9,5-3.1,7.9c-3.8-3.8-7.1-7.7-9-12.6c-2.2-5.7-4.3-11.4-6.4-17.2c-1.1-2.9-2.3-5.8-5.5-7.2
		c-0.4-0.2-0.7-0.6-1-1c-2.6-3.9-6.1-6.7-11.2-7.5c2.7-2.2,5.6-2.9,8.3-4c7.1-3,14.2-5.7,21.5-8.1c6.2-2,11.8-1.7,17.3,1.6
		c0.6,0.4,1.2,1.2,2.6,0.6c-2.4-1.7-4.6-3.3-6.8-4.8c1.6-3.2,4.9-3.4,7.9-0.5c0.4-0.9,0.9-1.9,2.1-1c2.7,2,5.4,1.2,8.1,0
		c1.2-0.6,2.4-1,3.8-0.4c1.7,0.7,3,0.3,4.1-1.3c1.3,0.8,2.5,1.6,4.2,2.7c-0.5-4.9-5.8-6.1-6.8-10.3c6.1-2.4,10.2,2.9,15.3,3
		c1.1-2.4,3.1-1.8,5.5-1.6c-1.3,1.5-3.4,0.9-4.2,2.9c2.6,0.7,5.1-0.1,7.3-0.7c1.6-0.4,2.7-0.5,3.9,0.1c6.6,3.2,13.8,4.5,20.9,6.1
		c4.2,1,8.3,2.5,12.6,1.7c0.9,1.2-0.9,1-0.4,2.2c2.5,1.3,5.6,1.1,9,1.7c-0.6-1.1-1.6-2.2,0.1-2.9c1-0.2,0.6,1.1,1.2,1.3
		c0.9,0.1,1-1.2,1.9-0.9c1.1,0.4,1.4,1.6,2.4,2.1l-0.1-0.1c-0.2,0.5-0.3,0.9,0.5,1.2c1.5-1.1,2.1-3.9,5.2-3.4
		c-1.3,1.2-1.1,2.9-2.6,3.8c1.2,0.8,2.7,0.7,3.8,1.7c-0.3,1.2-1.4,1.3-2.3,1.7c-3.8,1.6-4.3,4.2-1.1,6.7c4.1,3.2,7.5,6.9,8.5,10.1
		c-0.9-3.1-4.2-6.8-8.3-10c-2.7-2.1-3-3.9-1-5.9c1.7-1.8,3.3-1.3,5.8,0.7c2.7,2.2,4.9,4.9,7.6,6.6c-2.9-1.9-5.4-4.7-8.2-7.1
		c-0.8-0.6-1.7-1.6-1.1-2.9c2.7,0.4,5.2,1.5,7.9,2.8c0.7-1.8,1.3-3.5,2-5.3c1,1.8-1.1,3.3,0,4.9c1.4-0.9,1-2.6,2-3.8
		c-1.2,4.4,0.2,7.8,2.9,11.2c1.9,2.4,0.4,5.5-0.9,7.7c-1.6,2.7-2.3,5.4-2.2,8.5c0.1,2.3-0.3,4.5-0.7,6.8c-0.2,0.8-0.6,1.7-0.4,2.4
		c1.9,6.5-3.6,10-5.9,14.7c-0.5,1.1-2.1,0.8-3.3,1.2c-3.4-10.1-5.3-20.6-12.7-28.7c-0.8-0.9-0.9-0.9-3.2-1.5
		c9.2,8.2,10.8,19.7,14.4,30.4c-8,2.8-16.1,2.6-23.3,6.2c-0.2,0.1-0.2,0.6-0.6,1.7c8.5-0.4,16.3-2.7,24.1-3.7c1,0.6,0.3,1.6,0.9,2.1
		c1.2-0.5,0.1-1.8,0.9-2.5c1.3,0.2,5.1-2.1,5.7-3.4c0.5-1.2,0.6-2.5,1.5-3.6c0.8-0.9,1.4-2,1.9-2.8c1-1,2.2-0.2,3.1-0.9
		c0-1-1.2-0.6-1.7-1.5c1.9-2.9,1.2-6.1,1.1-9.6c-0.1-6-0.5-12.4,2.9-18.1c2.5-4.1,2.1-4.9-1.4-8.4c-1.9-1.9-2.4-4.1-1.8-6.6
		c0.5-2,1-3.7-0.6-5.7c-1.2-1.5,0-3.8,0.8-5.3c2.2-4.3,2.5-8.9,2.5-13.5c0-4.1,0.4-8.1,0.8-12.2c0.3-2.6,1-5.1,2.1-7.6
		c1.6-3.4,2.8-6.8,3.3-10.7c0.4-3.1,2-7.2,5.5-9.4c0.7-0.4,0.9-1.1,1-1.8c0.6-5.7,3.5-10.4,6.4-15.1c3.2-5.3,6.2-10.8,7.8-17.5
		c0.9,2.6,2,4.2,1,6.7c-0.7,1.8,0.1,4.2,0.4,6.4c0.3,2,0.4,4.1,0.2,6.1c-0.7,8.5-0.7,17,0,25.5c0.2,2.1-0.4,4-0.6,6.1
		c-1,13.2-0.1,26.3,0.2,39.5c0.3,10.3,0.8,20.6,0.1,30.9c-0.5,6.7-1.1,13.4-2.8,19.9c-0.3,1.3-0.8,2.6-0.7,3.9
		c0.6,7.9-4.7,12.1-10.2,16.1c-1.3,1-2.7,2-4.2,2.8c-2.8,1.6-5.7,2.7-8.7,0.5c-0.9-0.7-2-0.8-3.1-0.7c-1.3,0.1-2.6,0-4,0.1
		c-8,0.8-15.9-0.3-23.9-0.8c-4.6-0.3-9.3-0.1-14.2-0.1c0.7-4.9,4.3-9.1,3.2-14.1c-2.3,4-4.7,7.7-6,12.1c-0.9,3.1-0.3,6.7-3.3,9.1
		c-0.6,0.5-0.6,1.8-0.6,2.7c0,4.9-2.5,8.7-6,11.8C806.6,541.5,804.5,543.3,802.4,545.3L802.4,545.3z"/>
	<path fill="#FFFFFF" d="M742.8,542.4c1.5,1.9,1.5,4.6,3.1,6.6c0.8-1,0.5-1.9,0.1-2.7c-2.3-3.9-2.5-8.4-3.4-12.7
		c-0.5-2.6-1.9-4.9-3.2-7.1c-1.5-2.6-2.5-5.1-2-8.1c0.5-2.8-0.6-5.4-0.8-8.2c-0.2-2.5-0.1-4.8,1.3-7.1c1.2-1.9,1.4-4.5,2-6.8
		c0.8-3.2,2.5-5.6,5.3-7.4c5.5-3.5,9.5-8.9,15.3-11.8c6.1-3,12.6-3.4,18.7,0.3c3.3,2,6.4,4.2,9.5,6.5c5.9,4.5,8.7,10.6,8.4,18.2
		c-3,1.5-6.4,2-9.2,4c2.8,0.7,5.4-0.6,8.3-0.9c0.5,0.5,1.2,1.1,1.7,1.6c-0.5,5-1,9.6-1.6,14.6c-6.5-0.1-13,0-19.8,1.7
		c2.1-3.4,5.4-4,8.6-5.2c-4-1-9.8,2.4-10.5,5.8c-0.3,1.5,0.5,2.6,1.1,3.7c5.4,9.3,7.1,19.5,7.5,30c0,0.8,0.1,1.7,0,2.5
		c-1.8,8.5-2.3,17.1-2.8,25.7c-0.6,9.1-3,17.9-3.6,27c-0.2,2.4-0.6,4.8-0.5,7.2c0.3,6.4-1.5,12.8,1,19.2c-3,0.8-5.1-1.9-7.6-1
		c-1.5-3.4-1.8-6.9-2.9-10.3c-2.1,1.4-0.4,3.5-1.3,5c-3.1-0.5-6.1-1-9.4-1.5c-0.3-3.8,0.2-7.5,0.4-11.3c0.1-3-0.1-6-0.9-8.9
		c-1.2-4.4-1.7-8.9-2.3-13.4c-0.8-6.5-2.6-12.9-4.9-19.1c-4.3-11.4-5.1-23.3-6.2-35.2C742.2,543,742.2,542.6,742.8,542.4z"/>
	<path fill="#FFFFFF" d="M892,222.6c1.8,0.5,2.3-0.8,2.7-2.1c0.5-1.3,0.2-2.9,1.6-4.7c0.4,2.2,0.8,3.8,0.9,5.5
		c0.7,10-0.2,20.1-0.2,30.1c0,3.6,0.4,7.2,0.7,10.7c0.1,1.5,0.5,3,0.2,4.6c-5.7-3.3-5.5-8.9-6.5-14.1c-0.8,4.3-0.4,8.4,2.2,11.9
		c2.2,3,3.9,5.9,3.9,9.7c0,0.6,0.3,1.2,0.9,1.4c1.1-2.2-1-4.3-0.1-6.7c1.4,0.9,1.7,2.1,1.9,3.4c1.7,10.3,1.2,20.6-1.9,30.5
		c-1,3.3-1.1,6.5-0.9,10.1c2.8-1.8-0.7-4.9,1.8-6.8c0.7,6.1,1.7,11.9,0.3,17.7c-1.4,5.7-2,11.7-5.8,16.7c-3.3,4.4-3.3,9.9-4.8,14.9
		c-1.2,4.3-2.6,8.4-4.5,12c-15.8-4.2-22.7-15.7-26-30.2c7.3-5.4,10.8-9.9,10.5-14.5c-3.9,4.1-7.2,8.1-11.6,11.6
		c-2.1-6.4-3-12.6-2.3-19.1c0.8-7.4,5-11.8,10.9-15.1c-0.1,1.5,2,0.4,2.2,2.4c1.5-3.2,1.5-5.8,1.1-8.4c-2.1-13.3-1.5-26.5,0.7-39.7
		c0.7-4.6,1.3-9.2,2-13.8c1-5.7-0.7-11.5-2.2-17c-3.2-12-3.7-24.1-2.1-36.3c0.6-4.8,0.5-9.6,0.2-15.2c5.7,4.6,11.9,6.3,18.1,6.5
		c2.8,10.3,5.3,20.1,8.1,29.8c1,3.4,0.6,6.5-0.4,9.6C893.1,219.7,893.1,221.4,892,222.6c0.1,0.6-0.2,1.2-0.2,1.3
		C891.8,223.7,892.1,223.1,892,222.6z"/>
	<path fill="#FFFFFF" d="M788.1,306.5c-1-0.5-1.4-1.6-2-2.5c-3-4.6-6.1-9.1-9.3-13.6c-2.2-3.1-3.4-6.9-3.9-10.7
		c-1-7.5-3.2-14.9-3.2-22.6c0-3.7-0.2-7.4,0.4-11.1c0.6-3.7,1.4-7.6-0.1-11.3c-0.2-0.4,0.2-0.6,0.6-0.8c1.6,0.2,1.4,2,2.2,2.5
		c-0.4-0.8-1.1-1.8-1.8-2.9c-1.2-4.6-1.3-9.2-1.3-13.9c0-3.7-0.5-7.5,0.1-11.1c1-6.1,2-12.3,4.6-18c4.6-10,8.7-20.2,11.6-30.8
		c0.1-0.3,0.3-0.6,0.7-1.3c3.6,5.4,8.3,9,14.1,11.8c-3.4,8.3-3.9,16.8-3.1,25.5c0.3,2.8,1.1,5.6,1.3,8.4c0.7,9.4,0.3,18.6-1.2,27.9
		c-0.9,5.3-0.2,10.3,1.7,15.5c2.3,6.2,3.1,13,5.1,19.4c2.2,7.1,2.2,14.3,1.2,21.6c2.5-2.6,2.4-5.8,2.4-9.5c1.9,3.3,4.8,4.8,7.3,6.7
		c6,4.6,10,10.5,12.2,17.8c-2.5,2.1-4.9,4.1-7.8,5.5c-8.2,4.1-15.9,9.1-23.6,14c-1.9,1.2-3.2,3.1-4.8,4.8c0.9-7.2-0.7-14-3-20.6
		c0.6-0.1,1.2-0.1,1.2-0.1C789.5,307.1,789.2,306,788.1,306.5z"/>
	<path fill="#FFFFFF" d="M861.1,144c0.1-9.1,2.9-17.2,8.7-24.2c12.8-15.5,34.8-13.6,44.9,3.8c8.7,15.1,5.3,34.2-5.8,45.5
		c-12.7,13-33,10.6-42.4-4.9C862.7,157.9,861,151.2,861.1,144z"/>
	<path fill="#FFFFFF" d="M838.5,116c-2.1-1.6-4.1-2.9-5.8-4.5c-9.8-8.8-18.4-9.5-28.3-3.1c-14.7,9.5-22.9,33.4-8.1,51
		c0.6,0.7,1,1.5,2.8,1.8c-4.3-4.9-7.1-9.9-8.5-15.7c-3.3-14,5.3-31.5,18.3-37.7c7.9-3.8,14.7-1.4,21.2,3c2.6,1.8,4.8,4.3,6.8,6.9
		c-7.8,13.8-8.6,27.6-0.6,41.6c-7.2,11.7-24.4,14.8-36.4,6.5c-7.3-5.1-11.3-12.3-12.9-20.9c-2.5-13.2,0.5-25.1,10.2-34.7
		c11.7-11.7,30.2-10.2,40,2.9C837.9,114.1,839.6,115.1,838.5,116z"/>
	<path fill="#FFFFFF" d="M734.7,665.1c1.7-2.9,4.1-4.5,6-6.8c2.3,0.6,4.5,1.4,6.9,1.8c2.1,0.3,4.3,1.8,7-0.2
		c-3.9-3.6-8.7-2.9-13.1-3.4c-0.2-1.5,0.4-2.7,0.8-4.2c5.3,2.7,10.9,4,16.9,5.3c-1.4-4.6-3.9-5.7-16-7.7c1.2-5.1,4.2-9.6,7.1-10.8
		c1.1-1.8,0.7-4,1.8-6.4c4.3,2.6,9.8,0.8,14.2,4.1c-1,4-2.7,7.9-1,12.4c2.8,1.3,6.2,2.3,9.7,3.1c3.4,0.8,6.2-2.4,5.5-5.8
		c-0.2-0.9-0.8-1.8-0.3-2.7c0.8-0.5,1.4-0.1,1.6,0.4c2.5,5.9,4.1,12.1,7.9,17.5c1.7,2.4-1.4,9.4-4.3,10.9c-0.9,0.4-1.7,0.9-2.7,1.1
		c-6.8,1.1-12.1,5.6-18.2,8.3c-0.6,0.3-1.3,0.7-1.7,1.2c-7,7.5-16.2,8.5-25.7,8.4c-6.4-0.1-12.7-0.5-18.8-4c-1-1.3-1.4-3.3-1-5.6
		c6.2-4.2,10.7-10.5,16.4-15.5c0.1-0.1,0.6,0.3,1,0.5c-0.5,1.1-2.2,0.5-2.3,2.1c1.9,1.3,4,2.2,6.3,1.9c1.2-0.8,0.9-1.7,0.6-2.5
		c2.2-0.7,4.4,1.6,6.3-0.6C743.8,665.9,743.8,665.9,734.7,665.1z"/>
	<path fill="#FFFFFF" d="M785.3,544.7c6,3.4,11.9,5.4,17.6,7.9c4.9,2.2,7.5,8,5.2,12.9c-5.1,10.9-8.8,22.5-15.8,32.5
		c-2.2,3.1-3.7,6.7-5.1,10.3c-2.1,5.4-5,10.3-8.3,15.7c0-3.4-0.3-6.1,0-8.9c1.1-9.9,2.6-19.7,3.7-29.6c0.8-7.6,0.6-15.3,1.9-22.9
		C785.6,557,786.4,551.2,785.3,544.7z"/>
	<path fill="#FFFFFF" d="M780.9,163.4c-8.5-2.9-14.2-8.7-17.2-16.8c-4.7-12.8-3.1-24.9,5.2-35.9c3.2-4.2,7.4-7,12.4-8.8
		c5.9-2.1,11.2-0.7,17,1.8c-6.6,4.2-11.4,9.4-14.3,16.2c-0.8,1.9-1.4,3.8-2.1,5.7c-0.3,0.9-0.5,1.8-1.2,2.5c-3.7,4-4.2,6.9-1.5,11.3
		c1,1.6,1.5,3.2,1.8,4.9c0.5,3.2,1.5,6.3,2.9,9.2C785.8,157.8,785,160.5,780.9,163.4z"/>
	<path fill="#FFFFFF" d="M782,533.2c-3.4-2.1-3.5-5.9-5.5-10c7.1,1.4,13.4,0.3,20,0.6c0.4,7.1,5.2,13.4,3.4,21.2
		c-7.1-2.5-12.3-7.6-18-12L782,533.2z"/>
	<path fill="#FFFFFF" d="M794.2,164.1c-7-5.3-10.5-12.7-11.6-21.1c-2-15,2.4-27.7,15.1-36.8c1-0.7,2.1-1.5,4.2-1.7
		c-7.9,5.1-12.9,11.7-15.3,20c-4.3,14.5-1.9,27.7,8,39.3C794.5,163.9,794.3,164,794.2,164.1z"/>
	<path fill="#FFFFFF" d="M865.5,166.8c-16.4-17.8-6.9-48.8,11.4-55.3c-9.8,6.5-14.9,15-16.8,25.6
		C858.2,147.5,860.1,157.4,865.5,166.8z"/>
	<path fill="#FFFFFF" d="M774.5,103.2c-17.7,11.7-20.8,41.5-3.6,56.7c-8.1-3.9-14-16.4-13.7-28.1C757.5,119.3,764.8,107,774.5,103.2
		z"/>
	<path fill="#FFFFFF" d="M848.5,110.2c-9.5,8-14.1,18.1-13.9,30.5c0.1,8,2.8,14.9,7.5,21.3c0.4,0.5,1.1,0.9,1,2
		c-2.3-1.4-3.6-3.4-5-5.4c-9.8-13.9-6.5-36.3,6.9-46.7c1-0.8,2-1.7,3.3-2C848.3,109.9,848.4,110.1,848.5,110.2z"/>
	<path fill="#FFFFFF" d="M766.9,646.2c0.5-2,1.1-4,1.7-6.3c3.3,0.7,6.3,2,9.6,1.5c1,2.1-1.8,4.5,0.9,5.9
		C776.5,651,772.7,650.5,766.9,646.2z"/>
	<path d="M788.1,306.5c-0.2-0.6-0.2-1.2,0.8-1.6c2.1,1.6,3.6,3.7,4.6,6.6c-2.4-1-3.4-2.9-5-4.2C788.4,307,788.2,306.7,788.1,306.5z"
		/>
	<path fill="#FFFFFF" d="M828.7,299.7c-0.9-1.9-1.6-3.6-2.4-5.2c1-0.4,2-0.2,3.1,0C828.6,296,829.7,297.8,828.7,299.7z"/>
	<path fill="#FFFFFF" d="M866.2,239c-1.9-1.6-3-3.2-3.4-5.3C864.2,235.1,866.2,236.2,866.2,239z"/>
	<path fill="#FFFFFF" d="M853.2,452.9c0.5-1.5-0.8-4,2.9-4.1c-0.8,1.7-1.4,3-2,4.4C853.7,453.1,853.5,453,853.2,452.9z"/>
	<path fill="#FFFFFF" d="M867.7,250c-0.3,1.9-0.4,3-0.7,5c-0.7-1.9-2-2.7-2.2-4C865.8,249.7,866.7,252.4,867.7,250z"/>
	<path fill="#FFFFFF" d="M780.6,130.4c0,2.2,0,3.8,0,5.9C778.8,134.1,779.1,132.6,780.6,130.4z"/>
	<path fill="#FFFFFF" d="M825.4,222.3c1.3,0.4,2.1,0.7,2.8,0.9c0.2,1.1-0.1,1.9-1,2.5C826.1,225,826,223.8,825.4,222.3z"/>
	<path fill="#FFFFFF" d="M830.1,448.4c2-2.5,2.8,1.8,4.5,0.5C833.1,449.5,831.7,449,830.1,448.4z"/>
	<path fill="#FFFFFF" d="M848.5,223.4c2.1-0.2,3,0.7,2.6,3C849.6,225.8,849.3,224.4,848.5,223.4z"/>
	<path fill="#FFFFFF" d="M866.9,168.3c1.7,1.7,2.8,2.8,3.9,4C869.2,171.6,867.8,170.7,866.9,168.3z"/>
	<path fill="#FFFFFF" d="M855.3,138.5c-0.9-2-0.3-3.2,0.7-4.4C856.2,135.5,856.1,136.8,855.3,138.5z"/>
	<path fill="#FFFFFF" d="M859.5,244.1c0.4-0.5,0.7-0.7,1.4-0.7c0.6,0.7,0.3,1.6,0.3,2.6C859.9,245.9,859.8,244.9,859.5,244.1z"/>
	<path fill="#FFFFFF" d="M845.4,231.7c-1.2,1.4-2.4,1.2-3.6,1.1C842.7,232,843.7,231.6,845.4,231.7z"/>
	<path fill="#FFFFFF" d="M829.1,252.9c-1,0.3-2,0.6-2.8-0.5C827.5,251.3,828.2,252.7,829.1,252.9z"/>
	<path fill="#FFFFFF" d="M782,533.2L782,533.2c-0.2,1.2,0.7,2.1,1.1,3.3c-0.1,0.1-0.3,0.2-0.4,0.4c-0.9-0.7-1.2-1.7-1.6-2.7
		C780.8,533.2,781.4,533.1,782,533.2z"/>
	<path fill="#FFFFFF" d="M834.4,217.1c0.2,1.1,0.4,2.1,0.6,3.7C833.7,219.4,832.4,218.7,834.4,217.1z"/>
	<path fill="#FFFFFF" d="M864.5,227.1c2,0.2,2.4,1.2,3,2C865.7,229.8,865.5,228.3,864.5,227.1z"/>
	<path fill="#FFFFFF" d="M848.2,109.8c0.8-0.9,1.7-1.3,3.1-1.5c-0.9,1-1.8,1.6-2.8,1.8C848.4,110.1,848.3,109.9,848.2,109.8z"/>
	<path fill="#FFFFFF" d="M794.6,163.8c0.8,0.6,1.6,1.2,3.1,2.3c-2-0.2-2.7-1.1-3.4-2C794.3,164,794.5,163.9,794.6,163.8z"/>
	<path fill="#FFFFFF" d="M864.7,247.2c1.2,0.3,1.4,0.6,1.3,1.2C864.8,248.7,865.3,247.9,864.7,247.2z"/>
	<path fill="#FFFFFF" d="M864.5,260.4c0.8,0.5,1.1,1.1,1,1.9C864.5,262.1,864.3,261.5,864.5,260.4z"/>
	<path fill="#FFFFFF" d="M851.6,452.4c-0.5-0.8-0.4-1.5,0.1-2.3C852.4,450.9,852.1,451.6,851.6,452.4z"/>
	<path fill="#FFFFFF" d="M842.1,450.5c-0.2-0.8-0.8-1.8,0.7-2.1C843.8,449.7,842.1,449.7,842.1,450.5L842.1,450.5z"/>
	<path fill="#FFFFFF" d="M847.4,232.1c0.3-0.8,0.6-1.2,1.3-1.1C849.4,232.8,848.3,232.1,847.4,232.1z"/>
	<path fill="#FFFFFF" d="M835.4,232c-0.1,0.5-0.3,0.8-0.7,0.7s-0.5-0.4-0.3-0.7S834.9,231.6,835.4,232z"/>
	<path fill="#FFFFFF" d="M846.9,230.6c-0.9-0.3-0.6-0.9-1-1.5C847.2,229.4,846.9,230,846.9,230.6z"/>
	<path fill="#FFFFFF" d="M456.2,315.7c-4.9,4.2-9.3,7.7-12.9,12c-2.5,2.9-4.1,6-5,9.7c-2.6,10.6-3.2,21.2-1.9,32
		c0.3,2.8,1.3,5.2,3.4,7.3c3.9,3.8,7,8.4,11.2,12c1.1,0.9,0.5,1.9,0.2,3c1.4,0.2,2-1.2,3.4-1.3c2.1,0.9,4.7,0.9,7.3,1.4
		c-9.1,16.9-12.3,35.3-16.2,53.7c-7.1-1.3-14.2-1.3-21.2-1.4c-6.1-0.1-12.1-1.5-18.2-2.3c-9.7-1.1-18.9-3.8-28-7.5
		c-3.5-1.4-7.3-2.3-11.4-2.7c0.3-3.8,1.1-7.6,1.7-11.4c1.4-8.6,3.8-17,3.3-25.9c-0.3-6.1,0.9-12.1,1.9-18.2
		c1.7-10,2.8-20.1,2.9-30.3c0-3.3,0-6.7-0.5-10c-0.2-1.4-0.3-3,1.2-3.9c4.5-2.6,7.2-7,10.8-10.5c1.2-1.2,2.4-2.2,3.9-3.2
		c-2.1,4.8-2.9,9.6-2.4,14.7c0.4,4.5,1.6,5.7,6,6.6c3.8,0.7,7.4,0.1,10.8-1.6c6.4-3.2,12.7-6.7,19.1-9.8c7.8-3.7,15.1-8.4,23.1-11.8
		C450.9,315.6,453,315.4,456.2,315.7z"/>
	<path fill="#FFFFFF" d="M509.6,361.7c0.1-3-0.3-5.9-1.4-8.7c-0.7-1.7-0.7-3.5-0.7-5.3c0-7.5,0.2-15.1,0-22.6
		c-0.3-8.3-1.7-16.6-3.6-24.8c-0.2-0.7-0.3-1.4,0.1-2.4c1.9,0.7,3.2,1.6,3.4,3.8c0.1,1.7,0.3,3.5,1.2,5.3c0.8-1.9,0.1-3.6,0.4-5.7
		c5.1,2.6,10.3,4.2,16.1,3.6c2.8,8.3,5.5,16.3,8.2,24.4c2.3,6.9,4.9,13.8,5.4,21.1c0.2,2.6,1.8,4.7,2.5,7.1c2.1,7.2,2,10.1-5,15.3
		c-3.7,2.7-8,4.2-12.1,6.3c-0.8,0.4-1.6,0.4-2.5,0.4c-5.5,0.4-11.1,0.2-16.5-0.9c-4.6-1-8.8-3.6-12.6-6.5c-3.4-2.6-6.3-5.8-8.2-9.8
		c-1.7-3.7-3.7-7.3-7.2-10c-1.1,1.3-3.1-0.1-4.1,1.6c-2.8,0.2-2.8-2.2-3.7-3.8c0.8,1.6,0.8,3.9,3.6,3.7c1.7,0,3,1.5,4.6,0.9
		c0.4,0.4,0.7,0.7,0.9,0.9c4,3.9,3.8,8,0.9,12.5c-4.6,7.2-8.7,14.6-14.9,20.6c-0.3,0.3-0.7,0.6-1.2,1c-2.5-0.7-5.1-0.6-7.7-1
		c-0.3-1.9,2-2.2,2-4.1c-1.1-1.6-1.2-4.1-3.2-6.1c-0.3,2.5,1.1,4.2,1.3,6.2c-0.3,1.2-1.3,1.6-2,2.4c-2.6-0.8-4.9-1.7-6-4
		c-0.3-1.1,0.9-1.5,0.8-2.4c-0.8-0.4-1.1,0.7-2,0.7c-2.1-2.9-5.3-5.2-7-8.6c0.2-1.6,2.3-0.9,2.5-2.3c-1.1-0.6-1.8,1.1-3.2,0.1
		c-1.3-5-2.2-10.5-1-15.8c0.8-3.6,0.7-7.2,1.5-10.7c0.9-3.7,1.8-7.4,2.5-11.2c0.4-1.9,1.6-3.3,2.9-4.4c3.9-3.4,7.3-7.2,11.4-10.3
		c2.7-2.1,5.2-3.1,8.6-2.1c1.2,0.4,2.6,1.1,4.4,0.5c-2-1.9-4.3-1.7-6.5-2.1c3.9-4.7,6.6-5.4,12-3.4c0.6,0.2,1.1,0.5,1.7,0.6
		c7.2,1.2,13,4.7,17.1,10.8c2.8,4,6.7,6.3,11.5,8.4c-1.4,7.4,1.5,14.3,2,21.6C507.1,355.7,507.8,358.9,509.6,361.7
		c0.3,0.2,0.4,0.5,0.4,0.8C510,362.3,509.9,361.9,509.6,361.7z"/>
	<path fill="#FFFFFF" d="M383.6,500.8c-3.3,1.2-6.4,2-9.2,3.8c2.8,0.7,5.4-0.5,8.1-1c0.7,0.6,1.4,1.2,1.9,1.6c-0.5,5-1,9.7-1.6,14.6
		c-6.5-0.1-13.1,0-19.8,1.7c2.1-3.3,5.4-3.9,8.7-5.2c-3.9-1-9.4,2.2-10.5,5.5c-0.5,1.6,0.3,2.8,1,4c5.4,9.3,7.1,19.5,7.5,30
		c0,0.8,0.1,1.7,0,2.5c-1.8,8.5-2.3,17.1-2.8,25.7c-0.6,9.1-3,18-3.6,27.1c-0.2,2.4-0.6,4.8-0.5,7.2c0.3,6.4-1.5,12.8,1,19.2
		c-2.9,0.9-5-1.8-7.5-0.9c-1.8-3.3-1.7-7-3.2-10.4c-1.7,1.5-0.6,3.3-1.1,5c-3.1-0.5-6.2-1-9.6-1.5c0.2-3.7,0.2-7.3,0.5-10.9
		c0.2-3.3,0-6.5-0.9-9.6c-1.4-4.6-1.6-9.4-2.3-14.1c-1.1-6.5-2.8-12.9-5.1-19.1c-4.3-11.3-4.8-23.1-6-35.4c1.6,1,1.7,2.2,2.1,3.3
		c0.5,1.2,0.7,2.5,1.8,3.5c0.7-0.9,0.5-1.9,0-2.7c-2.3-3.9-2.5-8.4-3.4-12.7c-0.6-2.7-2-5.1-3.3-7.4c-1.4-2.3-2.3-4.7-1.8-7.5
		c0.6-2.9-0.6-5.7-0.8-8.5c-0.2-2.5-0.1-4.8,1.4-7.1c1.2-1.9,1.4-4.5,2-6.8c0.8-3.2,2.5-5.6,5.3-7.4c5.5-3.5,9.5-8.9,15.3-11.8
		c6.1-2.9,12.6-3.4,18.7,0.3c3.3,2,6.4,4.2,9.5,6.5C381.1,486.9,383.9,493,383.6,500.8z"/>
	<path fill="#FFFFFF" d="M556.8,270c-0.1,8.4-2.7,17.2-9.4,24.6c-11.2,12.3-29.6,11.9-40.4-0.8c-11.3-13.4-11.5-34.6-0.5-48.2
		c11.5-14,31.4-13.8,42.5,0.6C554.1,252.8,556.5,260.3,556.8,270z"/>
	<path fill="#FFFFFF" d="M355.6,293.4c-2.7,4.2-0.8,8.8-2.5,13c-0.3,0.9-0.7,2.1,0.5,2.9c1.1,0.7,0.9,1.9,1.2,2.9
		c1.5,5.3,1.8,10.1-4.4,12.9c-1.7,0.8-3,2.6-3.7,4.7c3.2-2.3,6.5-4.7,9.7-7c3.7-2.6,8-2.8,12.3-3.1c1.2-0.1,1.8,0.7,2.2,1.7
		c4.9-4.2,9.5-8.1,14.1-12c4.9-4.2,11.2-5.8,17.9-3.9c1.5,0.4,3,0.7,4.9,1.2c-13.1,4.9-23,13.6-31.5,24.6c-1.1-3.2,0.6-6.2-1-9.1
		c-1.9,5.3-2.3,10.5-2,16c-3.6,2-7.6,3.1-11.6,4.3c-3.9,1.1-7.8,0.6-11.7,0.4c6,4.1,10,3.7,23.5-2c0,3.3,0.7,6.4,0.1,9.5
		c-1.4,1.1-3.4,0.7-4.6,2.2c1.5,0.9,2.9-0.8,4.4-0.1c0.3,1.5,0.3,3-0.2,4.7c-3.9,1.6-7.9,2.5-12.2,2.3c-5.2-0.2-10.3-0.9-15.4-1.7
		c-2.3-0.3-4.3-1.1-6.1-2.7c-3-2.6-6.8-3.9-10.7-5.1c1.5-9.3-1.2-18.1-1.6-27c-0.2-3.5,0-6.9,1.2-10.3c1.1-2.9,1.9-6,3.4-8.7
		c4-7.5,6.1-15.7,9.6-23.9c1.7,2.9-1.8,5-0.7,7.5c1.4-1,1.1-2.9,2.6-4.4C346.4,287.7,350.2,290.9,355.6,293.4z"/>
	<path fill="#FFFFFF" d="M401.3,259.8c-0.2,11.1-4.2,20.5-12.4,27.8c-7.6,6.9-16.6,9.7-26.6,6.5c-10.2-3.3-15.9-11-17.7-21.3
		c-2.4-13.9,1.6-25.9,12.3-35.3c8.1-7.1,17.5-9.6,27.7-5.4c10.3,4.2,15.1,12.7,16.4,23.5C401.2,257.1,401.2,258.5,401.3,259.8z"/>
	<path fill="#FFFFFF" d="M352.9,635.4c-1.1,4-2.6,7.9-1,12.3c2.9,1.3,6.3,2.4,9.8,3.2c3.4,0.8,6.2-2.4,5.5-5.8
		c-0.2-0.9-0.8-1.8-0.3-2.7c0.8-0.4,1.4-0.1,1.6,0.5c2.6,5.9,4.1,12.1,7.9,17.5c1.7,2.4-1.4,9.4-4.3,10.8c-0.9,0.4-1.7,0.9-2.7,1.1
		c-6.8,1.1-12.1,5.6-18.2,8.3c-0.6,0.3-1.3,0.7-1.7,1.2c-7.1,7.5-16.2,8.4-25.7,8.4c-6.4-0.1-12.7-0.5-18.7-3.9
		c-1.1-1.4-1.5-3.3-1-5.7c6.2-4.2,10.6-10.5,16.4-15.4c0.1-0.1,0.6,0.3,0.9,0.5c-0.5,1-2.2,0.5-2.3,2c1.9,1.6,4.1,2.1,6.1,2.1
		c1.4-0.9,1-1.8,0.8-2.6c2.2-0.7,4.4,1.6,6.6-1c-3.4-2.4-7.3-1.8-11.2-2.3c1.3-2.9,4-4.5,5.9-6.9c4.4,0.9,8.7,3,13.4,1.8
		c-3.5-3.9-8.2-3.2-12.6-3.7c-0.3-1.5,0.5-2.7,0.6-4.3c5.4,2.8,11,4.1,17.1,5.4c-1.4-4.6-3.8-5.6-16.3-7.7c1.8-4,2.9-8.3,7.2-10.5
		c0.8-0.4,0.8-1.4,1-2.2c0.3-1.3,0.5-2.6,0.8-4.6C343,633.9,348.5,632.1,352.9,635.4z"/>
	<path fill="#FFFFFF" d="M371.9,543.3c6,3.4,11.9,5.4,17.5,7.9c4.9,2.2,7.5,8,5.2,12.9c-5.1,10.9-8.8,22.5-15.8,32.5
		c-2.1,3-3.6,6.5-5,9.9c-2.1,5.5-5.1,10.5-8.4,15.5c-0.3-3-0.2-5.9,0.1-8.9c0.9-11.2,3.6-22.2,4-33.5c0.3-8.4,1.5-16.7,2.6-25
		C372.6,551.1,372.5,547.5,371.9,543.3z"/>
	<path fill="#FFFFFF" d="M507.8,238.4c-4.9,3.4-8.1,7.5-10.8,12.1c-0.4,0.7-1.1,1.3-1.2,2.2c-0.6,3.2-2.2,6-4,8.7
		c-2.1,3.2-4.5,6.3-3.1,11c0.7,0.9,2.5,1.4,4.2,2.7c1,6.6,3.4,12.9,7.5,18.4c1.1,1.5,1,3.4,1.4,5.3c-3.1,0.9-6,0.2-8.8-0.7
		c-7.3-2.4-12.6-7.3-15.9-14.2c-6.4-13.5-5.4-26.4,3.5-38.6c2.8-3.8,6.6-6.7,11.1-8.2C496.9,235.4,502.1,236.4,507.8,238.4z"/>
	<path fill="#FFFFFF" d="M340.8,277.8c-0.7,1.2-1.3,2.3-2.1,3.7c-5.2-1.7-9.1-4.9-12.1-9.2c-11.8-17.1-1.7-44.4,18.4-49.6
		c7.6-2,14.1,0.1,20,4.7c-0.7,1.2-1.8,1.1-2.6,1.4c-7.6,2.8-13.4,7.7-17.7,14.5c-0.7,1.1-1.2,2.3-2.4,3c-4.3,2.5-5.6,5.7-4,10.3
		c0.5,1.5,0.5,2.7,0.3,4.1C338,266.6,338.8,272.3,340.8,277.8z"/>
	<path fill="#FFFFFF" d="M502.2,300.8c0.7,9.4,2.9,18.3,3.2,28.4c-3.2-1.7-6.2-2.5-8-5.2c-0.7-1.1-1.5-2.2-2.2-3.3
		c-5.4-8.2-13.9-10.9-23-12.2c-2.8-0.4-5.7-0.4-8.3-2c-2.7-1.6-4.6-4-5-7c-0.8-6.1,0-12.1,3.4-17.4c1-1.6,0.9-3.5,1.2-5.2
		c0.7-3.4,1.4-5,4-7.6C468.9,288.8,483,303.4,502.2,300.8z"/>
	<path fill="#FFFFFF" d="M368.6,531.7c-3.4-2.1-3.5-5.9-5.5-9.9c7.1,1.4,13.4,0.3,20,0.6c0.4,7.1,5.1,13.4,3.4,21.2
		c-7.1-2.5-12.3-7.6-18-12L368.6,531.7z"/>
	<path fill="#FFFFFF" d="M509.1,240.3c-6.5,6.3-10.7,13.7-11.9,22.8c-1.8,13.4,1.4,25.1,11.4,34.7c0.4,0.4,0.7,0.9,1.1,1.4l-0.1,0.1
		c-5-2-7.7-6.4-10.2-10.6c-9.3-15.5-5.6-36.2,6.8-46.9c0.8-0.7,1.5-1.5,2.6-1.8C508.9,240.1,509,240.2,509.1,240.3z"/>
	<path fill="#FFFFFF" d="M366.9,229.5c-20.7,7-31.9,35.3-19.4,55.6c-6.1-5-10.1-19.5-5.3-32.7C346.5,240.6,354.3,232.4,366.9,229.5z
		"/>
	<path fill="#FFFFFF" d="M324.1,271.9c-3.3-3.1-4.4-7.3-5.3-11.5c-2.8-13.3,3.5-28.3,14.9-35.6c3-1.9,6.3-3.3,10-3.6
		c-0.5,0.3-1.1,0.6-1.6,0.8c-15.8,5.3-25.5,25.4-20.8,42.5C322.1,267,323.2,269.4,324.1,271.9L324.1,271.9z"/>
	<path fill="#FFFFFF" d="M483.8,239.4c-1.2,2.1-3.3,3.4-4.8,5.2c-11,13.9-9.7,35.9,2.8,48.4c0.5,0.5,1,1,1.4,1.6l-0.2,0.2
		c-6.8-3.9-10.4-10.2-12.3-17.4c-3.6-13.9-0.8-26.3,10.1-36.4C481.7,240.4,482.4,239.3,483.8,239.4L483.8,239.4z"/>
	<path fill="#FFFFFF" d="M353.5,644.6c0.3-1.3,0.7-3,1.1-4.6c0.1-0.5,0.3-0.9,0.6-1.5c3.1,0.5,6.1,2.1,9.5,1.3
		c0.6,2.2-1.3,4.5,0.8,6.2c-1.3,2.5-2.9,3.2-5.3,1.9C358.1,646.8,355.2,647.3,353.5,644.6z"/>
	<path fill="#FFFFFF" d="M463.3,307.9c1.1,0.3,2,0.5,2.6,1.7c-3.7,1.5-6.3,5.6-11.6,4.3C457.5,311.7,460.7,310.2,463.3,307.9z"/>
	<path fill="#FFFFFF" d="M406.7,309.5c-4.3,2.5-8.2,5.8-12.6,8.2C398,314.4,401.7,311,406.7,309.5z"/>
	<path fill="#FFFFFF" d="M492.9,263.2c0.5,2.8-2.2,4.7-1.5,7.4C489.4,267.3,489.5,266.9,492.9,263.2z"/>
	<path fill="#FFFFFF" d="M462.2,263.7c0.6-0.9,1.2-1.4,1.9-1.7c0.6,0,1.1,0.2,1.2,0.7c0.7,1.7,0.7,1.7-2.5,4.8
		C463,265.9,462.9,264.6,462.2,263.7z"/>
	<path fill="#FFFFFF" d="M458.5,261.7c0.4-1.9,0.7-4,3.7-3.5c-0.2,2.3-1.5,3.3-3.5,3.6L458.5,261.7z"/>
	<path fill="#FFFFFF" d="M439.8,451.5c0.2-1.6-0.8-3.9,2.8-4.2c-0.7,1.7-1.4,3.1-2,4.5C440.3,451.7,440.1,451.6,439.8,451.5z"/>
	<path fill="#FFFFFF" d="M452.9,232c1.3,1.5,3.5,2.5,3.4,5.2C454.2,235.8,453.4,234,452.9,232z"/>
	<path fill="#FFFFFF" d="M415.6,221c1.3-0.4,1.9,0.2,2.6,0.5c0.1,1.1-0.1,1.9-1,2.4C416.1,223.2,416.2,222,415.6,221z"/>
	<path fill="#FFFFFF" d="M421.1,447.5c-1.5,0.7-2.8-0.1-4.4-0.4C418.5,444.3,419.6,448.9,421.1,447.5z"/>
	<path fill="#FFFFFF" d="M441,225c-1-1.3-1.8-2.3-2.9-3.6C441.1,222.1,441.1,222.1,441,225z"/>
	<path fill="#FFFFFF" d="M463.3,252.5c0-1.3-0.7-2.8,0.1-4.7C464.8,249.7,464.1,251.1,463.3,252.5z"/>
	<path fill="#FFFFFF" d="M431,231.4c1.2-1.6,2.7-1.2,4.1-1.4C434,231.2,432.7,231.4,431,231.4z"/>
	<path fill="#FFFFFF" d="M340.3,252.9c-0.7-1.8-0.2-3.2,1.3-4.5C341.9,250.2,340.5,251.4,340.3,252.9z"/>
	<path fill="#FFFFFF" d="M451.1,244.4c-1-0.9-2.3-1.8-0.5-3C451.9,242.4,451,243.5,451.1,244.4z"/>
	<path fill="#FFFFFF" d="M419.7,251.5c-1.5,0.1-2.5,0.2-3.4-0.8C417.6,249.7,418.4,250.5,419.7,251.5z"/>
	<path fill="#FFFFFF" d="M455,225.2c1.4,0.5,2.1,1.4,2.8,2.5C456,227.7,455.3,226.9,455,225.2z"/>
	<path fill="#FFFFFF" d="M368.6,531.7l-0.1-0.1c-0.1,1.3,0.8,2.2,1.2,3.4c-0.1,0.1-0.3,0.2-0.4,0.4c-0.9-0.7-1.2-1.7-1.6-2.7
		C367.3,531.7,367.9,531.7,368.6,531.7z"/>
	<path fill="#FFFFFF" d="M424.1,215.2c0.7,1.3,0.8,2.2,0.8,3.4C423.7,217.8,423.1,217.1,424.1,215.2z"/>
	<path fill="#FFFFFF" d="M455.3,248.8c1.2,0.4,1.9,1,1.1,2.5C455.4,250.7,454.5,250.2,455.3,248.8z"/>
	<path fill="#FFFFFF" d="M458,248.9c1.6-0.2,1.9,0.5,2,2C459,250.4,458.4,249.9,458,248.9z"/>
	<path fill="#FFFFFF" d="M454.7,258.8c0.4,0.6,1.2,1.1,0.7,2.1C454.5,260.4,454.2,259.8,454.7,258.8z"/>
	<path fill="#FFFFFF" d="M437.4,230.3c0.2-0.8,0.7-1.2,1.7-0.8C438.8,230.4,438.3,230.7,437.4,230.3z"/>
	<path fill="#FFFFFF" d="M438.1,451c-0.5-0.9-0.2-1.5,0.1-2.2C438.8,449.5,438.7,450.2,438.1,451z"/>
	<path fill="#FFFFFF" d="M428.7,449.1c-0.2-0.8-0.7-1.8,0.7-2.1C430.4,448.3,428.6,448.3,428.7,449.1L428.7,449.1z"/>
	<path fill="#FFFFFF" d="M324.2,271.8c0.8,0.1,0.7,1,1.2,1.5C324.6,273.1,324.1,272.7,324.2,271.8L324.2,271.8z"/>
	<path fill="#FFFFFF" d="M463.5,228.4c0.1-1,0.5-1.3,1.2-1C464.7,228.1,464.3,228.3,463.5,228.4z"/>
	<path fill="#FFFFFF" d="M460.5,267.6c-0.8-0.7-0.7-1-0.3-1.4C461,266.5,460.7,266.9,460.5,267.6z"/>
	<path fill="#FFFFFF" d="M455.4,264.2c-0.4-0.6-0.4-1-0.1-1.5C456,263,456.2,263.4,455.4,264.2z"/>
	<path fill="#FFFFFF" d="M436.2,227.4c0.9-0.1,0.8,0.5,0.8,1C435.9,228.7,436.1,228,436.2,227.4z"/>
	<path fill="#FFFFFF" d="M456.1,246.8c-1.2-0.2-0.9-0.8-0.9-1.4C455.8,245.7,456,246.1,456.1,246.8z"/>
	<path fill="#FFFFFF" d="M434.2,225.7c-0.9-0.1-1.1-0.5-1.3-1.3C433.9,224.4,434.2,224.7,434.2,225.7z"/>
	<path fill="#FFFFFF" d="M457.6,232.9c-0.6,0.1-1-0.1-0.9-0.8C457.6,231.7,457.5,232.5,457.6,232.9z"/>
	<path fill="#FFFFFF" d="M483.8,239.5c-0.2-0.9,0.7-0.7,1.1-1.2C485.1,239.3,484.5,239.5,483.8,239.5L483.8,239.5z"/>
	<path fill="#FFFFFF" d="M508.8,240c0.5-0.6,0.9-1.3,2.1-1c-0.4,0.8-1,1.2-1.8,1.3C509,240.2,508.9,240.1,508.8,240z"/>
	<path fill="#FFFFFF" d="M509.7,299.1c0.8,0,1.2,0.5,1.7,1.1c-1,0.2-1.5-0.3-1.8-1L509.7,299.1z"/>
	<path fill="#FFFFFF" d="M483.2,294.7c0.7,0.1,1.2,0.6,1.7,1.3c-1,0.2-1.5-0.3-1.9-1L483.2,294.7z"/>
	<path fill="#FFFFFF" d="M263.3,630.3c-5.9-2.3-11.3-5.7-17.6-6c-1-1.8-0.5-3.4-0.5-4.8c7,5,14.7,6,23.5,3.7
		C267.6,626.4,265.6,628.2,263.3,630.3z"/>
	<path fill="#FFFFFF" d="M238.4,621.5c1.5-3.1,3.5-5.3,6.1-7.1c0.1,1.7-1.6,2.4-1.8,4c-0.2,1.5-0.6,3-1.5,4.4
		C239.8,623.1,239.4,621.9,238.4,621.5z"/>
	<path fill="#FFFFFF" d="M681.9,625.1c-1.3,2.7-2.8,4.9-5.3,6.6c-5.7-2.2-11.1-5.6-17.4-5.9c-1.1-1.8-0.4-3.4-0.5-4.7
		C665.7,625.8,673.4,627,681.9,625.1z"/>
	<path fill="#FFFFFF" d="M654.6,624.4c-1.3-0.4-2.1-0.8-2.6-1.9c1.4-2.7,3.3-5,6.1-6.7C655.9,618.3,656.1,621.6,654.6,624.4z"/>
	<path fill="#FFFFFF" d="M466.9,570.7c-0.7-2-1.7-2.7-3.2-0.5c-1.3-1.8-1.3-3.4,0.5-4.7c1.4-1,2.9-0.7,3.8,0.6
		C469.2,567.8,469,569.5,466.9,570.7z"/>
	<path fill="#FFFFFF" d="M880.6,571.5c-1-1.2-1.7-4-3.2-0.4c-1.4-2-1.4-3.6,0.4-4.9c1.3-0.9,2.6-0.7,3.5,0.4
		C882.7,568.2,882.5,569.8,880.6,571.5z"/>
	<path fill="#FFFFFF" d="M875.6,559.5c-0.1,1.8-1.2,2.8-2.9,2.8c-1.8,0-2.8-1.2-2.9-2.9c-0.1-1.7,1.6-3.4,3.1-3.1
		C874.6,556.6,875.7,557.6,875.6,559.5z"/>
	<path fill="#FFFFFF" d="M462.2,558.7c-0.1,1.8-1.1,2.9-2.9,2.9s-2.8-1.1-2.9-2.9c-0.1-1.6,1.5-3.4,3.1-3.1
		C461.1,555.9,462.2,556.8,462.2,558.7z"/>
	<path fill="#FFFFFF" d="M456.1,551.8c-2.1,0.1-2.5-1.5-3.2-2.4c0.3-1,0.8-1.3,1.7-1.3C455.4,549,456.8,549.8,456.1,551.8z"/>
	<path fill="#FFFFFF" d="M868.1,548.7c0.8,1,2.1,1.8,1.5,3.6c-2.3,0.4-2.5-1.3-3.3-2.4C866.6,549.2,867,548.9,868.1,548.7z"/>
	<path d="M854.3,256.3c-1.7,0.1-2.6-1.4-4.1-2.2c-2,1.1-4.6-0.2-7.3,0.9c3.7,0.9,6.6,2,9.3,4c-3.4-0.1-6.8,0.1-10.1-1.3
		c0.2-2.2-1.7-2.4-3.4-2.8C840.6,249.8,848.8,250.5,854.3,256.3z"/>
	<path d="M849,373.2c-1.4,4.2-5.2,5.9-9.8,4.2c-1.4,1.9-1.4,1.9-3.7,3c0.6-2.1,1.9-3.5,3-5.2c2.8,2.2,5.3,1.2,7.7-0.7
		C847,373.8,847.9,373.3,849,373.2L849,373.2z"/>
	<path d="M839.6,282c-4.8,0.3-9-2-13.4-3.4c4.8-0.8,8.9,2,13.6,2C839.8,281,839.7,281.5,839.6,282z"/>
	<path d="M794.5,393.6c0.5,5.4-0.8,10.3-1.8,15.2C791.6,405.4,792.5,397.7,794.5,393.6z"/>
	<path d="M826.5,282.9c3.4-1.6,5.1-1.3,8,1.3C832.7,286,830.4,285.7,826.5,282.9z"/>
	<path d="M812.9,328.3c4.9-2.5,10.7-1.9,15.7-4.4C824,327.5,818.3,327.3,812.9,328.3z"/>
	<path d="M854.7,384.2c1.7-2.7,3.3-5.4,5-8.2c0.3,0.2,0.6,0.4,0.9,0.6c-0.5,3.5-2.4,6.1-5.3,8.1
		C855.1,384.5,854.9,384.4,854.7,384.2z"/>
	<path d="M846.4,293.3c-2.9-0.1-5.5,1.4-8.3,1.8c-1.4,0.2-2.7,0.6-4.4-0.9c4.6-0.5,8.6-1.3,12.4-2.2c0.8,0.6-0.1,0.9,0.1,1.3
		L846.4,293.3z"/>
	<path d="M792.7,412.1c-0.2,4.8-3.3,8.4-2.4,12.8C788.7,421.6,789.6,416.3,792.7,412.1z"/>
	<path d="M845.6,339.2c-1.9,2.7-4.7,3.2-8,2.7c2.5-1.2,4.9-2.4,7.4-3.6C845.2,338.6,845.4,338.9,845.6,339.2z"/>
	<path d="M833.9,273.3c-1-2.4-4.4-0.3-5.7-3.1c2.2-1.4,4-0.2,5.7,0.6C834.7,271.2,835.2,272.2,833.9,273.3z"/>
	<path d="M860.5,391.9c0.2,3.7-2.1,5.5-5.1,6.8C857.1,396.5,858.8,394.2,860.5,391.9z"/>
	<path d="M851.3,371.9c2.2-2.6,5.7-3.7,7.5-6.8C857.6,368.9,855.1,371.1,851.3,371.9L851.3,371.9z"/>
	<path d="M846.3,293.4c0.4,0.1,0.9,0.2,1.7,0.5c-3.6,1.6-6.9,2.7-10.5,3.2c2.7-2,6.4-1.4,8.9-3.8L846.3,293.4z"/>
	<path d="M850.9,291.5c2.5-2.1,5.4-3.4,8.6-4.2C857,289.5,854.1,290.7,850.9,291.5z"/>
	<path d="M794.7,412.3c2.5,0.7,4.9,1.4,7.8,2.2C799,414.7,797.6,414.3,794.7,412.3z"/>
	<path d="M845.6,431c-0.7,1.9-2.3,3.1-4.2,3.9C842,432.9,843.4,431.6,845.6,431z"/>
	<path d="M797,379.4c0.2,2.6-0.3,5-1.7,7.1C795.9,384.1,796.5,381.8,797,379.4z"/>
	<path d="M808,336.7c0.6-2.4,0.5-4.5,1.6-6.6C810.4,333.1,810.1,334.2,808,336.7z"/>
	<path d="M850.9,385.6c-0.4,2.4-2,3.1-4.3,3C848,387.6,849.5,386.6,850.9,385.6z"/>
	<path d="M806.1,415.2c2.1-0.1,3.4-0.2,4.9,1.1C809.2,416,807.9,416.4,806.1,415.2z"/>
	<path d="M817.9,370c1.8-0.2,3-0.2,4.3,0.7C820.8,371.4,819.6,370.9,817.9,370z"/>
	<path d="M799.9,394.8c-1.2,0.1-2.6,0.2-3.5-1.4C798.1,393,798.9,394.1,799.9,394.8z"/>
	<path d="M829.9,342.9c1.1-0.9,2.2-1.4,3.8-0.9C832.5,343.6,831.1,342.8,829.9,342.9z"/>
	<path d="M839.9,406.1c1.1-1.9,2.5-2.1,4.3-3C843.1,405.3,841.6,405.3,839.9,406.1z"/>
	<path d="M796.5,368.6c-1.5,0.8-3.1,0.6-5.4,0.1C793.3,368,794.9,368.2,796.5,368.6z"/>
	<path d="M801,346.6c0.5-1.1,1.1-2.2,1.8-3.7C803.1,344.8,802.2,345.8,801,346.6z"/>
	<path d="M848,402.4c1.3-1.3,2.2-2.1,3.9-2.5C851,401.6,850.1,402.2,848,402.4z"/>
	<path d="M841,436.6c-0.1,1.5-0.9,1.9-2.3,2.1C839,437.4,839.5,436.7,841,436.6z"/>
	<path d="M839.7,390.6c-0.7,0.9-1.5,1.3-2.7,1.1C837.6,390.3,838.8,390.7,839.7,390.6L839.7,390.6z"/>
	<path d="M839.8,390.7c-0.1-1.3,0.8-1.6,2-2C841.5,390.2,840.6,390.3,839.8,390.7L839.8,390.7z"/>
	<path d="M849,373.3c0.4-1,1.1-1.6,2.2-1.4v-0.1C850.8,372.8,850,373.1,849,373.3L849,373.3z"/>
	<path d="M825.1,343.5c0.6-0.6,1-0.2,1.8-0.2C826.1,344,825.6,343.8,825.1,343.5z"/>
	<path d="M848.9,453.7c3,4.1,7,7.1,10.8,10.3c1.4,1.2,3.1,2.4,2.1,5c-3-4.6-7.5-7.2-11.2-10.7c-3.1-2.9-4.4-2.5-5.9,2
		c1.6,2.2,4.4,3.1,5.8,5.2c1.6,0.4,2.8-1.6,4.2-0.1c-0.1,1.6-1.5,1.2-2.6,1.6c2.3,4.2,4.7,8.4,6,13c-2.2,0.7-2.5-0.5-2.9-1.5
		c-0.9-2.1-1.6-4.2-2.5-6.3c-2.3-5.4-6.5-9.1-11.3-12.2c-0.8-0.5-2.1-0.6-2.4-2c1-0.7,1.7,0.7,2.8,0.4c0.6-4,3.6-4.8,7.1-4.8
		L848.9,453.7z"/>
	<path d="M751.1,453.8c1.6,1.2,3.2,2.3,5.4,3.9c-1.5-4-2.7-7.4-4-11.1c5.1,2.4,8.7,10,6.5,13.4c2.1,3.2,6.2,4.9,7.3,8.9
		c-0.3,0.2-0.5,0.5-0.8,0.7c-2.5-2.5-5.1-4.9-7.6-7.4c-2.5-2.6-4.8-5.3-7.3-8C750.8,454.1,751,454,751.1,453.8z"/>
	<path d="M875.9,453.4c-0.7-0.4-1.4-0.9-1.5-1.8c-0.5-7.2-1-14.5-1.5-21.7v0.1c0.5,0.1,1,0.1,1.2,0.7c2.4,8.7,4,17.4,3.2,26.5
		c-0.2,2.4-0.2,2.4-2.1,4.6C875.4,458.7,875.6,456,875.9,453.4L875.9,453.4z"/>
	<path d="M746.8,481.3c-9.2-4.8-16.5-11.1-25.1-15.8C726.5,465.7,744.6,476.8,746.8,481.3z"/>
	<path d="M876.6,467.1c1.7,2.5,2.2,5.2,1.8,8s-1.1,5.6-2.2,8.3c-0.9,2.3-1.5,4.7-1.3,7.3c0.2,3.2-2.2,4.6-4.6,6
		c-0.5-1.3,0.5-1.5,0.9-1.9c2-1.7,3.6-3.5,2.6-6.5c-0.3-0.7,0.1-1.7,0.3-2.5c0.7-3.1,1.6-6.2,2.3-9.4
		C877,473.5,877.4,470.4,876.6,467.1z"/>
	<path d="M759.6,452.7c6.2,2.6,11.8,9.2,11,13.5C767.8,461,763.5,457.1,759.6,452.7z"/>
	<path d="M774.2,449.6c-1.6,0.4-1.8,1.7-2.1,3c-0.2,1-0.3,2.2-2,2.6c0-3,0.2-5.7,3-7.4c2-1.2,3-3.4,4.9-4.7c1.1-0.8,2.1-2,4.4-2.2
		c-2.1,3.8-5.8,5.6-8,8.5L774.2,449.6z"/>
	<path d="M811.5,496.3c0.5,7.9,1.8,15.7,3.2,23.9C811.8,517.1,809.9,502.4,811.5,496.3z"/>
	<path d="M743,485.5c-5.6-4.4-11.1-8.7-16.7-13c0.1-0.2,0.3-0.4,0.4-0.6c6.1,3.6,11.9,7.7,17.1,12.5
		C743.6,484.8,743.3,485.1,743,485.5z"/>
	<path d="M814,479.8c3.3,6.3,5.1,13.3,7.9,19.8C817.7,493.7,816.1,486.7,814,479.8z"/>
	<path d="M774.4,449.4c1,0.5,0.8,1.4,0.6,2.2c-1.3,4.2-1.4,8.2,2.1,12c-2.8-0.2-3.7-1.1-4.2-3.6c-0.8-3.6-0.3-7.1,1.3-10.3
		L774.4,449.4z"/>
	<path d="M872.9,429.8c-1.3,2.3-0.7,4.9-0.9,7.4c-0.2,1.6,0.3,3.2-0.7,4.7c-0.8-4.8-0.1-9.4,1.1-14.5c0.2,1.1,0.4,1.8,0.5,2.5
		L872.9,429.8z"/>
	<path d="M761.3,446.3c2.8,2.7,4.6,6.1,6.3,9.5c-0.2,0.2-0.5,0.3-0.7,0.5c-2.2-3.1-4.4-6.2-6.6-9.4
		C760.7,446.7,761,446.5,761.3,446.3z"/>
	<path d="M875.5,404.3c-0.3,4.7-0.5,9.4-0.8,14c-0.3,0-0.6,0-0.8,0c1-4.6,0.2-9.3,0.7-14C874.9,404.3,875.2,404.3,875.5,404.3z"/>
	<path d="M883.6,507.6c-3.7-2.2-7.1-4.6-10-7.9C877.3,501.9,880.8,504.3,883.6,507.6z"/>
	<path d="M870,515.4c-2.1-4.5-2.7-9.2-2.8-14.1C868.1,506,869,510.7,870,515.4z"/>
	<path d="M783.6,446.9c2.6-1.7,5.1-3.4,7.7-5.1c0.2,0.3,0.3,0.5,0.5,0.8C789.5,444.8,787.3,447,783.6,446.9z"/>
	<path d="M889.6,410.4c-2.7,0-5.4,0-8.5,0c3-1.7,5.8-0.5,8.5-0.9C889.6,409.8,889.6,410.1,889.6,410.4z"/>
	<path d="M876.9,398.5c-0.5-0.7-0.9-1-1.7-0.2c0-2.3-0.5-4.5,1.7-6.1C876.9,394.3,876.9,396.4,876.9,398.5z"/>
	<path d="M876.3,494.2c2.9,1.1,5.7,2.3,8.5,3.4C881.6,497.3,878.6,496.7,876.3,494.2z"/>
	<path d="M776.6,457.3c2.4,0.9,4.8,1.7,4.9,5.3C779.1,461.1,778,459,776.6,457.3z"/>
	<path d="M878.4,414.4c3,0.5,6,0.5,9.1,0.3C884.4,415.9,881.4,416.3,878.4,414.4z"/>
	<path d="M876.3,419.9c3.4,0,6.7,0,9.7,0C883.1,421,879.7,420.6,876.3,419.9z"/>
	<path d="M880.7,391.6c2.5-0.4,5.1-0.7,7.7,0.4c-2.5,0.2-5.1,0.4-7.6,0.5C880.7,392.2,880.7,391.9,880.7,391.6z"/>
	<path d="M739.9,458.4c1.4,1.9,2.9,3.7,4.1,5.3c-1.6-1.1-3-3-4.6-4.8C739.6,458.7,739.7,458.6,739.9,458.4z"/>
	<path d="M835.9,464.1c-1.4-1.1-2.7-2.1-4.1-3.2c2.2,0.1,3.6,1.1,4.4,2.9C836.1,463.9,836,464,835.9,464.1z"/>
	<path d="M869.7,490.8c0.1,1.4,0.4,2.8-0.8,4.4C868.4,493.3,869.2,492.1,869.7,490.8z"/>
	<path d="M820.3,460.1c0.9,0.9,1.7,1.8,2.8,3C821.3,462.8,821,461.2,820.3,460.1z"/>
	<path d="M818.4,470.9c1.2,1,1.7,2.4,2.2,3.8c-1.4-0.7-2-2.1-2.6-3.4C818.1,471.2,818.2,471,818.4,470.9z"/>
	<path d="M885.4,376.4c-0.6,0.6-1.2,0.5-1.9,0.3C884,375.8,884.7,376,885.4,376.4z"/>
	<path d="M836.3,463.8c0.6,0.4,1.3,0.9,1,2c-0.8-0.4-1.1-0.9-1.4-1.6C836,464,836.1,463.9,836.3,463.8z"/>
	<path d="M875.2,472.6c0-0.6-0.1-0.9-0.1-1.2C875.7,471.7,875.4,472,875.2,472.6z"/>
	<path d="M881.8,405.9c0.2-0.6,0.6-1,1.2-0.3C882.8,406.4,882.3,406.3,881.8,405.9z"/>
	<path d="M878.1,407.3c0.3,0,0.6,0.1,1.5,0.2c-0.9,0.1-1.2,0.1-1.5,0.2C878.1,407.5,878.1,407.4,878.1,407.3z"/>
	<path d="M770.1,551.4c-1.9-3.9-1.7-7.7,0.2-12.2C773.5,543.9,770.8,547.6,770.1,551.4z"/>
	<path d="M746.3,513.6c-0.3-5.4,5.3-8.5,3.4-13.7C752.4,503.3,751.2,507.9,746.3,513.6z"/>
	<path d="M757.2,533.1c-4.2-2.7-3.2-6.7,2.1-9.8C757.9,526.8,753.5,529.1,757.2,533.1z"/>
	<path d="M767.4,526.1c3,3,0.2,6.3,0.5,9.5C766.2,532.5,768.1,529.3,767.4,526.1z"/>
	<path d="M776.2,511c2.9-2.1,5.7-4.7,9.8-3.6C782.9,509.1,779.4,509.6,776.2,511z"/>
	<path d="M771.8,566.9c0.4-4.1-1.2-8-1-12.1C771.9,558.7,772.8,562.7,771.8,566.9z"/>
	<path d="M760.9,522c0.9-2.5,2.1-4.8,4.9-6.7C765.2,518.8,762.9,520.3,760.9,522z"/>
	<path d="M750.9,571.1c1.4,1.9,0.7,4,1.1,6.8C750.5,575.2,750.5,573.2,750.9,571.1z"/>
	<path d="M747.6,515.4c-0.4,1.7,0.2,3.3,0.2,5.1C745.6,518.2,745.5,517.7,747.6,515.4z"/>
	<path d="M755.8,488.6c-2,1.6-4,1.4-5.9,1.1C751.6,488.5,753.5,488.4,755.8,488.6z"/>
	<path d="M752.3,580c0.2,1.5,0.4,3,0.6,4.5C751.9,583.2,751.2,581.8,752.3,580z"/>
	<path d="M768.1,613.5c-1.2-1.6-1.4-3.2-0.8-5.5C768,610.1,768.7,611.6,768.1,613.5z"/>
	<path d="M795.7,514.7c-1.2,1.4-2.6,0.7-3.9,0.7C793,515.1,794,513.7,795.7,514.7z"/>
	<path d="M766.6,626.3c-0.7-1.3-0.5-2.4,0.7-3.4C768.1,624.4,767.3,625.4,766.6,626.3z"/>
	<path d="M770.2,575.6c-0.6-1.7-0.5-2.8,0.8-3.8C771.6,573.3,770.7,574.2,770.2,575.6z"/>
	<path d="M767.5,617.2c0.5,0.9,0.2,1.5,0.2,2.5C766.4,618.9,766.6,618.2,767.5,617.2z"/>
	<path d="M769.2,485.3c1-0.4,1.3-0.5,1.6-0.7C771,485.4,770.5,485.3,769.2,485.3z"/>
	<path d="M875.4,283.7c-1.3-2.5-0.4-4.8,0.5-6.9c1.3-2.9,2.8-5.7,1.8-9.5c3.1,1.3,2.8,3.8,2.1,5.2
		C877.9,276.1,876.4,279.8,875.4,283.7z"/>
	<path d="M882.2,359.7c-1.1-3.9,2.3-6,2-9.2c-0.3-2.7-0.1-5.8,0.6-9C886.9,345.8,885.7,354.6,882.2,359.7z"/>
	<path d="M884.8,339.7c4-4.5,6.2-9.8,7.6-15.5C893.5,329.8,890,337.1,884.8,339.7z"/>
	<path d="M880,317.8c-3.4-3.6-5.8-7.8-6.9-12.6C875.2,309.5,878.9,313,880,317.8L880,317.8z"/>
	<path d="M886.8,243.4c2.5-2.2,5.4-2.9,5.6-6.2c2,0.9,1.9,2.3,1.2,3.5C892.3,243,890.3,243.9,886.8,243.4z"/>
	<path d="M876.7,211.6c2.1,3.9,2.1,8.1,1.7,12.3C876.9,219.9,877,215.7,876.7,211.6z"/>
	<path d="M872.5,322.1c-0.4,3.2-1.2,6.4-3.6,9.8C868.9,328.3,869.9,325.6,872.5,322.1z"/>
	<path d="M874.5,205.1c-2.8-3.6-2.3-8-2.7-12.1C873.8,196.8,872.7,201.2,874.5,205.1z"/>
	<path d="M864.7,344.7c1.2-3.4,2.1-6.2,3.2-9.2C868.9,338.8,868,341.3,864.7,344.7z"/>
	<path d="M880,317.9c2.1,3.1,2.5,4.9,1.4,8.8C881.2,323.7,880.5,320.8,880,317.9L880,317.9z"/>
	<path d="M866.8,309.5c0.5,2.4,0,4.4-0.1,6.4c-0.1-0.9-0.2-1.8-0.3-2.7C866.2,312.1,865.9,311.1,866.8,309.5z"/>
	<path d="M878.3,266.4c-1-2.2-1.4-3.7-1-5.4C878.3,262.5,878.9,264.1,878.3,266.4z"/>
	<path d="M873.3,315.4c1.6,0.9,2,2.2,1.5,4.2C873.7,318.2,873.4,316.8,873.3,315.4z"/>
	<path d="M884.9,240.6c-1.5-1-2.2-2.5-2.8-4.2C883.7,237.3,884.4,238.8,884.9,240.6z"/>
	<path d="M869.9,336.5c-0.8-1.1-0.8-2.2-0.5-3.6C870.9,334.1,870.6,335.3,869.9,336.5z"/>
	<path d="M892,222.6c0.3,2.2,0.6,4.3,0,7.3C891,226.9,891.2,224.8,892,222.6L892,222.6z"/>
	<path d="M891.9,245.4c1.2-1.2,2.1-1.1,3.2-0.6C894.4,246.2,893.4,246.1,891.9,245.4z"/>
	<path d="M887.9,313.6c-1.2-0.5-1.4-1.7-2.1-3.2C887.4,311.3,887.9,312.3,887.9,313.6L887.9,313.6z"/>
	<path d="M885,309.3c-1.2-1.1-1.7-2-1.8-3.1C884.2,306.8,884.7,307.7,885,309.3z"/>
	<path d="M877.6,258c-0.6-1.1-0.7-2.3-0.1-3.8C878.2,255.6,878.1,256.8,877.6,258z"/>
	<path d="M868.2,304.5c0.5,1,0.6,1.8-0.7,2.3C866.9,305.8,867.2,305,868.2,304.5z"/>
	<path d="M876,244.1c0.9,0.9,0.9,1.6,0.2,2.5C875.4,245.9,875.5,245.2,876,244.1z"/>
	<path d="M887.9,313.6c1,0.1,1,0.9,1.7,2C888.2,315,887.8,314.5,887.9,313.6L887.9,313.6z"/>
	<path d="M786.3,269.9c1.9,6.4,0.4,13.6,4.8,19.8C785.3,287.3,783.2,278.4,786.3,269.9z"/>
	<path d="M785.5,209.6c0.1,4-0.6,7.8-2.6,11.4C782.9,217,783.9,213.2,785.5,209.6z"/>
	<path d="M790.5,235.4c2.3,0.7,4.4,1.5,6.2,3.2C794.2,239.5,792.7,238.8,790.5,235.4z"/>
	<path d="M804.9,290.7c0.4,2.9-0.3,5.5-1.7,8C803.4,296,803.5,293.3,804.9,290.7z"/>
	<path d="M772.9,264.4c-0.8-2.4-1.7-4.9-1.4-8C773.2,259.2,773.1,261.8,772.9,264.4z"/>
	<path d="M794.6,321.7c-1.4-2.1-1.5-4.4-0.8-6.7C794.8,317.1,794.6,319.4,794.6,321.7z"/>
	<path d="M782.7,262.7c2.5,0.8,2.7,1.3,1.8,4.8C783,266.1,783,264.3,782.7,262.7L782.7,262.7z"/>
	<path d="M785.3,206.7c0-2.4,0-4.2,0-6.2C786.9,203,786.9,203.2,785.3,206.7z"/>
	<path d="M790,234.1c-2-1.5-3.2-3.4-3-6C788.1,230.1,788.7,232.3,790,234.1z"/>
	<path d="M770.8,233.5c2.4,1.6,3.1,4,3.2,6.6c-1.5-1.9-1.9-4.5-3.6-6.2C770.6,233.8,770.7,233.6,770.8,233.5z"/>
	<path d="M798.9,316.4c-0.3-1.9-0.5-3.8,1.2-5.5C800.5,313.1,799.9,314.8,798.9,316.4z"/>
	<path d="M774.1,242.7c1,1.7,0.9,2.8,0,4.7C773.5,245.5,773.5,244.4,774.1,242.7z"/>
	<path d="M782.8,262.7c-1.1-0.9-1.8-2.1-1.5-3.8C783.3,259.7,782.5,261.4,782.8,262.7L782.8,262.7z"/>
	<path d="M770.9,248.9c1.1,1.4,1.3,2.2,0.2,3.2C770.5,251,770.9,250.1,770.9,248.9z"/>
	<path d="M802.2,305.6c-1-2-0.7-3,0.2-4.1C803.7,303.1,802.1,303.8,802.2,305.6z"/>
	<path d="M786.1,194.5c0.4,1,0.4,1.6-0.2,2c-0.8,0.1-0.7-0.5-0.5-0.9C785.5,195.3,785.7,195.1,786.1,194.5z"/>
	<path d="M913,125.9c-3.9-4.8-8-9.4-14.2-11.7c-3.4-1.3-6.7-1.9-10.1-0.9c-12.9,3.6-19.7,12.9-22.9,25.3c-2.3,9-0.9,17.6,4.7,25.2
		c0.4,0.6,1.3,1.2,0.7,2.3c-4.7-4.6-6.6-10.5-7.6-16.6c-2.5-14.6,7.8-31.6,21.6-37c8.1-3.1,14.8-0.6,21,4.4c2.9,2.4,5.8,5,7.1,8.8
		L913,125.9z"/>
	<path d="M888.7,151c-1.1-2.4-2-4.8-1.6-7.5c0.7-5.1,4.4-8.1,9.5-7.4c1.2,0.2,2.3,0.3,3.2-0.1c4.7,2.7,5.1,9.2,3.7,12.6
		c-2.2,5.2-5.6,7.5-10.5,6.7c-1.8-0.3-3.9-0.4-4.3-2.9c0.2-0.1,0.3-0.1,0.5-0.2c5.6,2.5,8.3,2.1,11.7-1.9c0.8-0.9,1-2,1.5-3
		c0.4-0.5,0.3-1,0.3-1.6c0,0.5,0,1-0.2,1.4c-0.6,1-0.8,2.3-1.7,3.2c-3.5,4.1-7.5,4.5-11.9,1.1C888.8,151.4,888.8,151.2,888.7,151z"
		/>
	<path d="M915.5,132.2c-0.1-0.4-0.2-0.8-0.3-1.3C916.2,130.9,915.7,131.6,915.5,132.2z"/>
	<path d="M913.2,125.7c0.7,0.5,0.7,1.3,1.2,2.4c-1.3-0.4-1.3-1.4-1.4-2.2L913.2,125.7z"/>
	<path d="M916.3,145.5c-0.2-0.6-0.1-0.9,0.3-1c0.4-0.2,0.6,0.1,0.6,0.5C917.2,145.3,916.8,145.5,916.3,145.5z"/>
	<path d="M875,169.3c-0.7,0.1-1-0.2-1.2-0.8C874.6,168.2,874.7,169,875,169.3z"/>
	<path d="M888.7,152.4c-0.8-0.2-1-0.9-1.5-1.3c0.7-0.9,1,0.4,1.5-0.1l-0.1-0.1C889.1,151.4,889.1,152,888.7,152.4L888.7,152.4z"/>
	<path d="M813.2,142.8c-0.3-0.9-0.6-1.8-0.8-2.7c-1.2-6.1,2.5-13.4,11.5-10.6c2.2,0.2,2.8,2,3.6,3.6c0.8,2,1.1,4.1,0.7,6.3
		c0,0.4-0.1,0.7-0.1,1.1c-0.4,1-0.9,2-1.5,2.9c-0.2,0.3-0.5,0.6-0.7,0.9C821.4,148.9,816.2,148.3,813.2,142.8z"/>
	<path d="M826.7,133c-0.7-1.3-1.5-2.6-2.8-3.5c0.6-1.3,1.4-0.5,2,0c3.5,2.8,4.3,8.3,2.7,12.1c-2.3,5.4-5.8,7.5-10.9,6.6
		c-1.7-0.3-3.6-0.7-3.9-3c0.8-0.3,1.3,0.2,2,0.5c4.5,2,7.3,1.3,10.3-2.6l-0.1,0.1c0.8-0.8,1-2,1.5-3l-0.1,0.1
		C828,137.8,828.5,135.3,826.7,133z"/>
	<path fill="#FFFFFF" d="M826.1,143c-1.6,3.5-4.5,4.9-8.2,4c-1.5-0.4-2.8-1.1-4.1-1.9c-0.2-0.8-0.4-1.6-0.6-2.4
		C816.6,147,821.8,147.8,826.1,143z"/>
	<path d="M809.6,166.5c0.1,0.1,0.3,0.3,0.4,0.4c-0.2,0.1-0.3,0.2-0.5,0.3l-0.2-0.2C809.4,166.8,809.5,166.6,809.6,166.5z"/>
	<path d="M761.5,653.6c-5.7-2.5-11.3-2.6-16.7-5.5C749.9,645.9,760,649,761.5,653.6z"/>
	<path d="M737.9,663.2c2.8-3.5,8.4-3.1,11.9,1C745.5,665.3,741.9,663.9,737.9,663.2z"/>
	<path d="M382.5,391.7c0.7,2.4,0.3,4.7,0,7c-0.4,2.8-1,5.5-1.9,8.2C380,401.7,381,396.7,382.5,391.7z"/>
	<path d="M378.5,422.7c-1.4-3.9-0.3-9.2,2.4-12.5C380.9,414.7,377.6,418.3,378.5,422.7z"/>
	<path d="M420.4,353.1c-2.4,1.2-2.9,1.2-6-0.1C417,352.4,417.9,352.4,420.4,353.1z"/>
	<path d="M390,412.1c-2.5,0.3-4.9-0.2-6.9-1.9C385.4,410.9,387.7,411.5,390,412.1z"/>
	<path d="M385.7,377.5c-0.2,2.3-0.6,4.3-1.6,6.7C383.8,381.4,384.7,379.4,385.7,377.5z"/>
	<path d="M438.5,387.2c-0.8,1.8-2,1.4-3.2,0.7C436.3,387.6,437.4,387.5,438.5,387.2z"/>
	<path d="M450,392.4c-0.5,1.3-1.4,1.8-2.7,1.8C447.9,392.5,447.9,392.5,450,392.4z"/>
	<path d="M384.7,391.2c1.7-0.2,2.5,0.7,3.4,1.4C386.8,392.8,385.6,392.9,384.7,391.2z"/>
	<path d="M434.4,385.8c-0.2-1.2-0.6-2.5,0.1-4.1C435.5,383.5,435.5,384.7,434.4,385.8z"/>
	<path d="M399.1,414.1c-1.6-0.1-2.9,0-4.2-0.8C396.4,412.7,397.6,412.8,399.1,414.1z"/>
	<path d="M430.3,353.8c0.6-0.9,1.2-1.4,2.2-1.5C432.2,353.2,431.9,354.2,430.3,353.8z"/>
	<path d="M438.1,393.3c1.1-0.7,1.9-0.8,3.5-0.3C440.2,393.6,439.5,393.9,438.1,393.3z"/>
	<path d="M445.1,384.9c-0.4,1.5-1.1,1.7-2,1.1C443.4,385.3,443.9,385,445.1,384.9z"/>
	<path d="M398.7,342.3c0.1,0.9-0.2,1.3-0.8,1.4C397.5,343,397.9,342.7,398.7,342.3z"/>
	<path d="M406.7,352c-0.8,0.6-1.1,0.2-1.5-0.2C406,351,406.2,351.8,406.7,352z"/>
	<path d="M475.4,345.4c6.2,6.5,13.7,10.7,21.7,14.4C489.6,360.6,476.8,352.3,475.4,345.4z"/>
	<path d="M465.8,344.8c-7.3,4.6-15.8,5-24,6.2c3.7-2.3,7.2-4.5,12-4.5C457.7,346.5,461.6,344.7,465.8,344.8z"/>
	<path d="M454.3,368.3c1-3.8,2.6-6.5,5-8.5c3-2.5,6.5-4.4,8.2-8.2c0.8,2.2-0.4,3.5-1.7,4.5c-2.8,2.1-4.5,5.2-6.6,7.8
		C457.9,365.5,456.6,367,454.3,368.3z"/>
	<path d="M473,353.9c0.2,0.4,0.3,0.9,0.5,1.3c-4.5-0.7-6.5-5.8-3.5-9.6c0.3,3.2,0,6.5,3.1,8.4L473,353.9z"/>
	<path d="M469.7,341.1c0.2-4.6,2.8-7.5,6.7-9.4c-0.2,2.2-2.3,2.9-3.3,4.5C472,337.8,470.8,339.4,469.7,341.1z"/>
	<path d="M511,374.1c2.5,2,5.4,2.9,9.3,3.2C515.2,378.8,512.7,377.9,511,374.1z"/>
	<path d="M487.6,332.1c-2.8,2.2-6.2,2.8-9.8,2.9C480.8,333.3,484.4,333.3,487.6,332.1z"/>
	<path d="M489.9,331.5c2.4-1,4.8-1.9,7.2-2.9c-1.7,2.5-4.1,3.7-6.9,3.8C490.1,332,490,331.7,489.9,331.5z"/>
	<path d="M451.9,370.7c-0.6,2.3,0.8,5.1-1.9,6.8C451.9,375.6,449,372.4,451.9,370.7z"/>
	<path d="M471.1,318.1c2.4-0.8,4.7-0.6,6.9,0.8C475.7,318.8,473.4,318.6,471.1,318.1z"/>
	<path d="M509.6,361.7c1.3,1.3,2,3.1,2.6,4.8C509.9,365.6,510.2,363.5,509.6,361.7L509.6,361.7z"/>
	<path d="M473.4,348.1c0.3,1.4,0.6,2.5,1,3.9C472.3,350.3,472.3,350.3,473.4,348.1z"/>
	<path d="M520,372.7c-0.3-1.7-0.3-3,1-4.2C521.3,370.1,521.3,371.4,520,372.7z"/>
	<path d="M510.6,316.2c-1.6-1.1-0.6-2.7-0.9-4.1C510.8,313.3,510.4,314.8,510.6,316.2L510.6,316.2z"/>
	<path d="M468.9,343.5c0.1,1.3-0.5,1.6-1.5,1.7C467.4,344.3,467.8,343.7,468.9,343.5z"/>
	<path d="M458.1,382.3c0.2-1.1,0.9-1.2,1.6-1.2C459.7,382.5,459.1,382.6,458.1,382.3z"/>
	<path d="M517,352c-0.8-0.1-0.8-0.7-0.7-1.2C517.3,350.8,517.2,351.4,517,352z"/>
	<path d="M529.4,327.7c0,0.1,0,0.2,0,0.4C529,328,529.5,327.8,529.4,327.7z"/>
	<path d="M510.6,316.2c-0.1,0.6,0.5,1.2,0,1.9C510.6,317.4,510.6,316.8,510.6,316.2L510.6,316.2z"/>
	<path d="M519.9,362.2c1.1,0.3,1.1,0.7,1,1.2C519.9,363.4,520.3,362.8,519.9,362.2z"/>
	<path d="M356.6,549.9c-1.8-3.9-1.7-7.7,0.1-11.9C358.6,540.7,358.6,540.7,356.6,549.9z"/>
	<path d="M332.9,511.7c-0.6-5,5.3-8,3.2-13.1C339.2,501.4,337.3,508.5,332.9,511.7z"/>
	<path d="M345.5,522.5c-2.1,2.7-4.4,5.3-1.9,9.1C339.7,528.2,340.3,525.5,345.5,522.5z"/>
	<path d="M354,534.1c-1.4-3.1,0.8-6.3-0.7-9.5C355.9,526,356,530.1,354,534.1z"/>
	<path d="M358.3,565.4c0.5-4.1-1.2-8-1-12.1C358.4,557.3,359.4,561.3,358.3,565.4z"/>
	<path d="M364.5,508.5c2.2-2.5,4.9-3.1,8.1-2.5C369.9,507.1,367.5,508.7,364.5,508.5L364.5,508.5z"/>
	<path d="M347.5,520.6c0.8-2.6,2.4-4.6,4.4-6.2C351.7,517.4,349.4,518.9,347.5,520.6z"/>
	<path d="M337.5,569.6c1.4,1.8,0.7,4,1.1,6.8C337.1,573.8,337,571.8,337.5,569.6z"/>
	<path d="M334.1,514c-0.2,1.7,0,3.2,0.5,5.1C332.1,517.1,332.1,516.4,334.1,514z"/>
	<path d="M336.4,488.1c1.8-0.9,3.6-1.2,6-0.9C340.2,488.6,338.4,488.7,336.4,488.1z"/>
	<path d="M339.5,583.8c-1.5-3.1-1.5-3.1-0.7-5.7C339.1,580.1,339.3,581.7,339.5,583.8z"/>
	<path d="M353.9,607.4c0.6,1.4,1.3,2.7,0.9,4.7C353.3,610.5,353.4,609,353.9,607.4z"/>
	<path d="M378.4,514c1.2-0.4,2.2-1.7,3.7-0.7C381.1,514.8,379.6,513.7,378.4,514z"/>
	<path d="M357.6,570.2c0.5,1.7-0.5,2.5-0.8,4.3C356.2,572.6,356.3,571.5,357.6,570.2z"/>
	<path d="M353.2,624.8c-0.7-1.2-0.6-2.3,0.6-3.1C354.6,623,353.9,623.9,353.2,624.8z"/>
	<path d="M353.9,618.2c-1-1-0.7-1.6,0.1-2.4C354.5,616.6,354.3,617.3,353.9,618.2z"/>
	<path d="M364.4,508.4c-0.6,0.3-0.6,1.6-1.8,1.3C362.8,508.6,363.9,509,364.4,508.4L364.4,508.4z"/>
	<path d="M357.5,483.4c-0.3,0.6-0.6,0.5-1.1,0.4C356.7,483.3,357.1,483.1,357.5,483.4z"/>
	<path d="M514,296.3c-3.4-1.3-5.5-4.2-7.5-7c-12.6-18.4-2.7-41.9,12.2-49.8c8.5-4.4,16-2.4,23.1,2.8c3.2,2.4,6.7,4.9,7.8,9.3
		c-1.9-2.6-4.1-4.9-6.6-6.8c-10.5-8.1-18.7-7.9-28-0.7c-12.1,9.3-20.1,34.6-2.2,50.7C513.2,295.3,514,295.5,514,296.3L514,296.3z"/>
	<path d="M526.3,276.9c-0.9-2.3-2-4.5-1.9-7.2c0.3-5.2,3.3-8.2,8.5-8.2c1.3,0,2.5,0.4,3.6-0.5c4.5,2.8,5.8,6.9,4.7,11.6
		c-0.9,3.9-2.9,7.5-7.5,8.2c-2.9,0.5-5.8,0.5-7.5-2.6c0.1-0.1,0.3-0.2,0.4-0.3c3.8,1.6,7.5,2.5,10.9-0.8c0.6-0.8,1.1-1.7,1.7-2.5
		c0.4-1.3,0.6-2.7,1-3.5c-0.1,0.8-0.8,2-0.9,3.4c-0.6,0.8-1.1,1.7-1.7,2.6c-3.6,3.3-7.3,3-11.1,0.3
		C526.5,277.3,526.4,277.1,526.3,276.9z"/>
	<path d="M551.9,256.3c-0.3-0.9-0.9-1.2-0.6-1.8C551.9,254.7,552,255.2,551.9,256.3z"/>
	<path d="M513.9,296.4c0.6-0.2,1.1-0.2,1.4,0.5C514.6,297.2,514.2,296.9,513.9,296.4L513.9,296.4z"/>
	<path d="M526.3,278.3c-0.6-0.2-0.8-0.7-1.1-1.1c0.3-0.6,0.8-0.1,1.1-0.2l-0.1-0.2C526.7,277.3,526.7,277.9,526.3,278.3L526.3,278.3
		z"/>
	<path d="M339,293.8c0.6-1.4,1.1-2.8,1.7-4.2c0.2,0.1,0.5,0.2,0.7,0.3C341.1,291.5,341.2,293.1,339,293.8L339,293.8z"/>
	<path d="M339,293.7c0,1.8,0,3.7-1.1,5.3C338.1,297.2,339.2,295.7,339,293.7L339,293.7z"/>
	<path d="M344.4,330.8c-0.2,1.6-1.3,2.1-2.8,2.7C341.9,331.7,343.5,331.6,344.4,330.8z"/>
	<path d="M351.3,282c-2.5-1.8-3.4-4.7-4.2-7.5c-5.5-19.2,9.8-40.8,29.8-41.9c7.7-0.4,12.9,4,17,9.7c2.3,3.2,4.6,6.6,4.4,11
		c-2.2-5.5-4.9-10.6-9.6-14.6c-5-4.3-10.4-5.1-16.4-3.7c-19.6,4.5-30.2,26.7-21.7,45.5C350.8,280.9,351.1,281.4,351.3,282z"/>
	<path d="M382.5,258.8c0.9-1.2,1.4-0.1,1.7,0.4c1.7,2.7,2,5.6,1,8.5c-1.3,3.6-3.7,6.5-7.5,7.5c-3.5,0.9-6.5-0.6-8.7-3
		c-0.4-1.5,0.7-0.9,1.1-1.5c-0.6-1.8-1.6-3.7-1.3-5.9C370,257.5,375.5,255,382.5,258.8c0.4,0.3,0-0.2,0.3,0.2
		C382.8,259,382.7,258.9,382.5,258.8z"/>
	<path d="M347.7,652c-5.2-2.2-10.7-2.5-15.7-4.9c1.8-1.9,3-1.9,9.1-0.2C346.5,648.4,347.1,648.8,347.7,652z"/>
	<path d="M324.5,661.7c2.5-3.6,8.9-3,11.6,1.3C331.9,663.6,328.3,662.6,324.5,661.7z"/>
	<path fill="#FFFFFF" d="M875.5,448.1c-0.4-1.7-0.5-3.5,0-5.2C875.5,444.6,875.5,446.3,875.5,448.1z"/>
	<path fill="#FFFFFF" d="M875.9,453.4c-0.1-0.7-0.4-1.3-0.1-2C876.5,452.1,875.8,452.7,875.9,453.4L875.9,453.4z"/>
	<path fill="#FFFFFF" d="M900.3,144.7c0,3.6-3,6.9-6,6.8c-2.8-0.1-5.2-3.3-5.2-6.7s2.8-6.6,5.7-6.7
		C897.8,137.9,900.3,141,900.3,144.7z"/>
	<path fill="#FFFFFF" d="M888.6,152.5c0-0.5,0-1,0-1.5c5,3.4,6.9,3.3,12.4-0.5l-0.1-0.1c-2,3.6-4.5,4.5-8.4,3.7
		C891.1,153.7,890,152.6,888.6,152.5z"/>
	<path fill="#FFFFFF" d="M902.3,147.4c-0.3-2.2,0.5-4.4-0.1-6.5C903.2,143,903.7,145.2,902.3,147.4L902.3,147.4z"/>
	<path fill="#FFFFFF" d="M901,150.4c0-1.2,0.4-2.2,1.3-3.1l-0.1-0.1C902.6,148.7,901.8,149.6,901,150.4L901,150.4z"/>
	<path fill="#FFFFFF" d="M825.5,137.7c0,3.4-2.8,6.7-5.7,6.7s-5.6-3.3-5.6-6.8c0.1-3.4,2.9-6.7,5.8-6.7
		C822.9,130.9,825.5,134,825.5,137.7z"/>
	<path fill="#FFFFFF" d="M826.7,133c2.5,2.2,1.8,4.7,0.8,7.3C827.4,137.8,827.7,135.3,826.7,133z"/>
	<path fill="#FFFFFF" d="M827.5,140.1c0.1,1.3-0.4,2.3-1.5,3C826.5,142.1,826.6,140.9,827.5,140.1z"/>
	<path fill="#FFFFFF" d="M537.8,270.4c0,3.5-2.8,6.6-5.8,6.6c-3-0.1-5.6-3.3-5.6-6.8c0.1-3.4,2.9-6.7,5.8-6.6
		C535.1,263.6,537.8,267,537.8,270.4z"/>
	<path fill="#FFFFFF" d="M526.2,278.4c0-0.5,0-1,0-1.5c3.8,2.7,7.7,2.9,11.6,0.1l-0.1-0.1c-1.9,2.9-5,3.8-8.6,2.6
		C528.2,279.1,527.3,278.4,526.2,278.4z"/>
	<path fill="#FFFFFF" d="M539.4,274.9c-0.2-3.1,0.9-6.3-0.4-9.4C541.2,268.5,540.8,271.6,539.4,274.9L539.4,274.9z"/>
	<path fill="#FFFFFF" d="M537.8,276.9c0-1.1,0.6-1.8,1.6-2.1l-0.1-0.1C538.8,275.5,538.8,276.6,537.8,276.9L537.8,276.9z"/>
	<path fill="#FFFFFF" d="M381.9,264.4c0,3.6-2.6,6.7-5.9,6.9c-2.9,0.1-5-2.3-5.1-5.7c0-3.5,2.8-6.8,5.9-6.9
		C379.7,258.6,381.8,261,381.9,264.4z"/>
	<path fill="#FFFFFF" d="M378.9,273.4c-2.8,1.5-5.4,0.9-7.7-1.2c2.4,1,4.9,1.6,7.5,1L378.9,273.4z"/>
	<path fill="#FFFFFF" d="M383.1,269c-0.1-2,1.2-3.7,1.2-5.7C384.6,265.3,384.9,267.4,383.1,269L383.1,269z"/>
	<path fill="#FFFFFF" d="M378.6,273.1c0.5-0.4,1.1-0.8,1.7-1.3c0,1.2-0.7,1.4-1.5,1.5L378.6,273.1z"/>
	<path fill="#FFFFFF" d="M383.1,268.9c0.2,0.9-0.3,1.4-1.2,2.1C382,269.9,382.2,269.2,383.1,268.9L383.1,268.9z"/>
	<path fill="#FFFFFF" d="M382.5,258.8c0.4,0.4,0.8,0.9,1.2,1.4C382.4,260.2,382.5,259.4,382.5,258.8L382.5,258.8z"/>
	<path d="M892.7,139.6c4-0.1,5.2,1.1,5.3,5.6c-0.8-2.3-1.5-3.8-3.3-4.1c-1.6,0.1-2.1,1.6-3.4,2.9C891,141.9,892.5,141.1,892.7,139.6
		z"/>
	<path d="M891.8,144.6c0.1,0.1,0.4,0.3,0.4,0.4c0,0.4-0.2,0.7-0.6,0.6c-0.1,0-0.3-0.4-0.2-0.6C891.3,144.9,891.6,144.8,891.8,144.6z
		"/>
	<path d="M819.7,134.1c-1.6,0-2.1,1.6-3.4,3c0-2.3,1.1-3.3,1.6-4.6c3.6-0.2,4.9,0.9,5.2,5C822.1,135.9,821.7,134.1,819.7,134.1z"/>
	<path d="M528.6,269.3c0.5-1.7,0.3-3.8,2.8-4.5c2,0.9,4.3,1.7,3.9,4.9C532.3,265.9,531.6,265.8,528.6,269.3z"/>
	<path d="M528.7,271.6c-0.2-0.6-0.1-0.9,0.3-1c0.4-0.1,0.6,0.1,0.6,0.5C529.5,271.4,529.2,271.6,528.7,271.6z"/>
	<path d="M376.6,259.7c3.3,1.7,3.7,2.6,2.9,5.4c-1.5-3.9-2.2-4.1-5.9-2c-0.4-1.1,0.7-1.3,1.1-1.9S375.6,260,376.6,259.7z"/>
</g>
</svg>
