<?xml version="1.0" encoding="utf-8"?>
<!-- Generator: Adobe Illustrator 19.1.0, SVG Export Plug-In . SVG Version: 6.00 Build 0)  -->
<svg version="1.2" baseProfile="tiny" id="Layer_2" xmlns="http://www.w3.org/2000/svg" xmlns:xlink="http://www.w3.org/1999/xlink"
	 x="0px" y="0px" width="900px" height="600px" viewBox="144 97 900 600" xml:space="preserve">
<g>
	<path d="M844.4,222.3c-2.1-0.9-3.1,0.9-4,2c-1.7,2-3.7,3.6-5.9,4.9c-6,3.5-11.7,7.5-17.3,11.7c-0.3,0.3-0.8,0.3-1.2,0.5
		c-7.7,3.8-15.8,6.2-24.2,7.6c-4.7,0.8-9.1,2.2-13.6,3.9c-5.9,2.2-12.1,3.2-18-0.1c-1.8,1.9-2.6,3.8-3,6.1
		c-0.6,4.4-1.4,8.8-2.3,13.1c-0.4,1.9-0.2,3.7-0.4,5.5c-0.9,11.4-3.9,22.8-1.1,34.4c0.2,0.9,0.2,1.8,0,2.6
		c-2.4,10.5-1.9,21-0.6,31.5c0.1,0.4-0.1,0.9-0.1,1.5c2.6,0.7,3,2.7,2.7,5c-0.4,3,0.3,5.7,2.1,8.1c0.9,1.2,1.5,2.7,2.1,4.1
		c4.5,9.1,7.3,18.6,9.2,28.5c0.6,3.2,1.3,6.3,2.2,9.4c3,9.6,3.7,19.4,3.8,29.3c0,1.3-0.8,1.9-1.3,3c0.9,2,0.8,4.3,0.9,6.5
		c0.4,11.7,2.8,23.2,1.8,35c-0.3,3.7-0.4,7.3-0.5,11c0,1.9-0.9,2.7-2.7,2.6c-2.2-0.1-4.4-0.4-7.1,0.1c-0.5,4.6-3.7,8.7-3.1,13.9
		c0.3,2.3,0,4.7,0.1,7c0.1,1.9,0.2,3.9-1.8,4.7c-0.7,3.3,1.5,5.6,1.9,8.3c1.2,8.9,2.2,17.9,2.9,26.9c0.4,4.7-0.5,9.3-1.5,13.9
		c-0.9,4.5-1.4,9-1.6,13.6c-0.6,11.4-1.1,22.9-2.4,34.3c-0.5,4,0.9,7.9,0.6,11.8c1.6,1.2,3.6-0.1,4.9,1.7
		c-0.4,6.7,2.9,12.1,7.4,16.8c2.8,2.8,5.6,5.7,8,8.8c2.2,2.9,4.6,5.7,7.3,8.2c2.6,2.3,3.6,5.3,4.1,8.5c0.3,1.8-0.7,2.5-4.4,3.3
		c-1.4,3.4-4.5,4.2-7.9,5.1c-6.4,1.6-12.8,1-19.2,0.1c-4.2-0.6-6.9-2.9-7.3-7.3c-1.7-1.1-3.5-1.5-5.5-1.4c-4,0.1-7.8-0.9-11.2-2.8
		c-2.8-1.5-4.9-4.2-6.7-7c-0.8-1.2-0.3-2.4,0.5-3.4c1.2-1.6,1.9-3.2,1.1-5.3c-0.5-1.3,0.3-2.4,0.8-3.5c1.8-4.2,3.9-8.1,2.8-13.1
		c-0.6-2.6,1.9-4.3,3.6-5.9c0.3-1-0.4-1.8,0.2-3c0.7-1,2.3-1.1,3.7-1.8c0.6-3.2-0.3-6.7,0.9-10.6c1.6,3.6,0.5,7,1.4,10.3
		c3.3-1.1,6.9-0.9,10.2-2.4c0.3,0.5,0.8,1.5,1.8,0.9c0.2-15.5,2.4-30.8,3-46.2c0.3-7.9,1.4-15.7,2.5-23.5c0.3-2.5-0.2-4.9-0.5-7.3
		c-0.8-7.6-1.6-15.2-3.6-23.5c-0.8,3.1-1.5,5.5-2.1,7.8c-0.1-3.4-0.9-7,1.7-9.9c0.3-1.1-0.9-1.4-1.2-2c1.2-4.4,3.9-8.4,3-13.2
		c-0.8-4.3,2.2-8.5,0.8-13c-6,0-11.7,1.3-17.5,0.2c-5.5-1.1-11.2-1.2-17.2-2.8c0,0-0.7,0.5-1.5,1.2c-0.1,2.4-0.4,5.2,0.8,7.4
		c2.8,5.5,3.3,11.4,4.4,17.3c1.3,6.9-0.3,13.5-1.3,20.1c-1.5,9.7-1.5,19.3,0.9,28.8c2.1,8.5,3.8,17.1,5.8,25.6
		c2.2,9.4,3.8,19,4.6,28.6c0.2,2.5,0,5.1-1.7,7.1c-1-0.3-1.1-1-1.1-1.6c0.5-11.4-2.4-22.3-4.5-33.3c-1.3-6.9-2.7-13.7-3.6-20.7
		c-0.4-2.7-1.3-5.4-2.1-8c-2.3-7.5-2.2-15.2-0.7-22.8c1.6-8.7,3-17.5,0.8-26.1c-1.4-5.8-3.1-11.5-4.2-17.4c-0.4-2.2-0.2-4.4-0.5-6.7
		c-0.6-0.1-1.1-0.4-1.7-0.4c-5.8-0.1-4.9-1.8-5.3-5.7c-0.5-4.3,0.7-8.7-0.5-13.2c-1.3,0.8-1.4,2.1-1.7,3.3c-0.5,2.2-1.1,4.4-1,6.6
		c0.2,3.4-2.1,5.3-3.8,7.6c-0.5,0.6-1.2,1-2.1,0.9c-2.1-0.4-3.6,0.7-5.1,1.9c-1.3,4.5-2.6,9-5.3,13.1c-1.2,1.9-1.5,4.2-1.6,6.4
		c-0.3,8.7-3.7,15.9-10.3,21.5c-0.2,0.2-0.5,0.2-1.4,0.6c1.2-2.8,2.9-4.5,4.6-6.1c2.4-2.2,3.7-4.8,4-8.1c0.2-1.9,0.8-3.7,1.1-5.6
		c1-7.8,4.1-15,5.9-22.6c-0.7-0.7-1.7-0.4-2.5-0.2c-10.4,2.2-21,1.8-31.6,2.1c-2.1,0.1-3.9,0.3-5.4,2c0.3,2.9,0.5,5.8,1.6,8.7
		c0.4,1.1,0.4,2.4,0.4,3.6c0.5,9.2-1.5,17.8-5.1,26.2c-1.4,3.3-2.7,6.7-2.1,10.5c0.2,1.6-0.7,3.4-0.9,5.2
		c-0.8,6.2-1.5,12.5-0.2,18.6c2.3,10.3,2.3,20.7,4,31c2,11.8,3.8,23.6,3.8,35.7c0,0.3,0.2,0.6,0.3,1c0.7,0,1.3,0.1,2,0
		c0.8-0.1,1.5-0.4,2.3-0.6c1.4-2.5,0.4-5.3,1.1-8.2c1.2,2.5,0.9,4.9,0.8,7.5c3.2-0.4,6.3-0.6,9.3-1.5c0.6-1.6-0.2-3-0.4-4.4
		c-1.3-6.8,0.1-13.5,0.4-20.3c0.2-3.5,0.3-7-0.1-10.6c-0.8-6.2-0.9-12.4,0.8-18.8c1.5,1.6,0.9,3.3,0.8,4.8c-0.3,7-0.8,13.9,0.3,21.1
		c1.5-6.3,3.2-12.2,5.4-18c1.6-4.3,1.9-8.9,3.1-13.3c2.3-8.4,1.4-17,1.3-25.5c0-4.4-0.5-8.9-0.7-13.3c-0.1-1.3-0.4-2.9,1.5-3.9
		c0.1,2.3,0.3,4.2,0.4,6.2c0.6,11.9,2.5,23.8,0,35.6c-1.8,8.7-3.4,17.7-6.9,26c-1.7,4.2-2,8.6-2.8,13c-0.8,4.5-1.3,9-2,13.5
		c-0.4,2.7,0.4,5.3,0.6,7.9c1.1,0.4,2-0.7,3-0.1c2.6,1.7,3.3,4,3,7.1c-0.3,2.6-0.4,5.2-1.5,7.7c-0.7,1.5-0.4,2.8,1.1,3.7
		c0.9,0.5,1.4,1.4,1.5,2.4c-0.7,0.6-1-0.8-1.8,0c2.4,4.6,4.5,9.5,6.5,14.4c0.8,2,2,4,2.3,6.2c0.1,1,0.7,1.7,1.6,2.5
		c2,1.8,2.7,4.5,3.3,7.1c0.3,1.3,0.5,2.6,1.5,3.4c-0.8,1.3-1.8,2.1-3,2.3c-8.5,1.6-17.1,3-25.8,1.1c-2-0.4-4.1-1.2-6-2.1
		c-2.2-1.1-4.1-2.4-4-5.4c0-1.5-1.5-2.6-2.7-3.6c-4.6-3.4-4.7-9.2-1.9-13.3c1.5-2.2,2.2-4.1,1-6.8c-1-2.2,0.2-4.6,0.9-6.8
		c0.4-1.4,0.9-2.7,0.4-4.2c-0.6-1.7-0.1-3.4,0.7-4.8c0.9-1.6,1-3.1,0.7-4.7c-1.4-6.3-1.2-12.8-1.8-19.1c-0.7-8.9-2.6-17.6-3.6-26.4
		c-1.3-10.7-3.2-21.3-4.2-32c-0.6-5.9,0.9-11.9,1.8-17.9c1.2-7.6,3.8-14.8,7.1-21.7c1.2-2.5,1.6-5.5,1.1-8.4
		c-1.1-6.5-3.2-12.9-2.6-19.8c-2.2-0.8-4.3-0.8-6.2,0.5c-1.7-1.5-0.7-3.3-0.7-4.8c0-2.8-0.3-5.7,1.8-8.1c0.7-0.8,0.5-2,0.2-2.9
		c-2.6-9.8-1.5-19.6-0.5-29.5c0.5-4.5,0.8-9.1,1-13.6c0.3-6.9,2-13.6,2.1-20.5c0.1-6.1,1-12.2,1.3-18.3c0.4-7.4,1.4-14.7,3.2-21.7
		c0.8-3.1,2.5-6.2,4-9.2s1.9-5.8,1.2-9c-0.5-2.6-0.7-5.1,1.8-6.8c-1.7-7.1-1.4-14.2-1.4-21.3c0-6.8,0-13.6-0.7-20.3
		c-0.1-0.9-0.1-1.8-0.5-2.6c-5.4-11.2-7.9-23.2-10.8-35.2c-1.6-6.6-3.7-13-4.4-19.8c-0.1-1.2-0.6-2.4-1-3.5
		c-1.6-4.3-4.1-6.9-9.3-6.8c-5.2,0.1-10.4-0.8-15.6-1.4c-5.8-0.6-11.2-2.5-16.5-5.1c-3.4-1.7-6.7-3.2-9.5-5.9c-2.2-2-5.2-3-8.1-3.8
		c-6.5-1.7-11-5.7-14.2-11.6c-3.1-5.6-5.9-11.2-8.5-17c-2.5-5.6-4-11.4-4.5-18.5c-3.4,5-7.6,7.1-12.4,8.7
		c-6.5,2.2-12.3,1.1-17.5-3.1c-5.9-4.7-9.3-11-11.4-18c-3.1-10.2-3.4-20.3,0.5-30.4c3.3-8.4,9.6-13.6,18.1-15.1
		c9.8-1.7,19.2,1.9,23.7,12.2c0.2,0.5,0.2,1.1,1.2,1.4c1.2-2.6,1.8-5.4,3.1-7.9c4.7-8.5,11.8-12.7,21.7-11.9
		c4.6,0.4,8.2,2.6,11.4,5.7c6.1,6,9.2,13.5,10.9,21.7c1.8,8.8,1.4,17.5-2.3,25.8c-2.6,5.8-6.3,10.5-12.9,12.1
		c-0.3,0.1-0.5,0.4-0.9,0.8c5.2,2.9,7,8.2,8.9,13.2c4.6,1.8,9.5,1.7,14.2,2c5.3,0.3,10.3,1.8,15.5,2.4c1.5,0.2,2.9,0.1,4.1-0.8
		c6.5-4.6,14.1-4.4,21.5-4.1c6.1,0.3,12.1,1.5,17.8,3.7c3.1,1.2,5.8,0.4,8.5-1c2.3-1.2,4.5-2.5,6.8-3.6c1.3-0.6,2.2-1.5,2.7-2.8
		c1.1-3,2.4-6,2.1-9.3c0-0.6,0.2-1.2-0.1-1.6c-3.1-4.9-1.8-11.1-5.1-16c-0.2-0.3-0.4-0.7-0.3-0.9c1.4-3.4-0.8-6.1-1.7-9.1
		c-1.1-3.7-1-7.5,1-11c0.2-0.3,0.4-0.6,0.4-0.9c0.1-3.1,1.4-5.9,2.9-8.5c0.6-1.1,0-1.9,0.1-2.7c0.7-0.2,1.1-0.1,1.3,0.3
		c0.8-0.3,1.6-0.3,2.7,0.3c-1.1-0.6-1.9-0.5-2.8-0.2c0.1-2.3,0.7-4.5,2.7-6.1c-0.4-1.2-2-1.7-2.1-3.3c2.8-1.6,4.1,1,5.9,2.1
		c3.9-0.1,7-1.9,9.3-4.9c1.6,0.5,1,1.6,0.8,2.5c2.4,0.6,2.3-1.8,3.6-2.8c4,0,8.1-0.6,11.9,0.2c4.1,0.9,7.4-2.5,11.3-1.2
		c0.8,0.6-0.1,1.1-0.1,1.9c1.9-0.8,3.1-2.4,4.7-4c1.7,2.1,0.8,4.4,0.7,6.8c1.1-0.6,2-1.2,2.9-1.5s2-0.7,2.8,0.5
		c-0.1,2.1-2.8,1.8-3.6,3.4c1.7,0.3,3.3-0.6,5,0.1c0.2,1.3-1,2.5,0.2,3.6c-2.5,2.5-6,3.2-7.9,6.3c0.9,4.1,0.6,8.5,2.1,12.8
		c1,2.8-1.2,5.9-1.8,8.8c-2.3,0.7-4.3,1.7-6.4,0.9c-1,1.2-0.3,2.6-1.1,3.7c-2.1-6.4,0.3-7.9,8-10.9c-1-4.7-2.7-9.5-2.4-14.8
		c-5,2.6-9.7,0.6-14.3,0.3c-2-0.1-3.5,1.4-5.3,0.4c-0.4,1,0.6,1.9-0.9,2.4c-0.5-1.4-1.1-2.9-2.9-3.3c-1.3-0.3-2.4-2.5-3.9-0.3
		c0.6,1.4,2,1,3.1,1.2c1.1,0.9,1,2.5,1.6,3c0.6,2.4-3.3,0.8-2.2,3.4c-0.9,0.5-1.7-0.6-3.1,0.2c-1.6,3.3-4.1,6.7-5.9,10.4
		c-1.8,3.6-2.3,7.9-5,11.2c-0.4-3-1.8-5.5-2.3-8.3c-0.2-1.2-1.1-2.2-2.7-1.4c-0.2,2.2,1.7,3,2.9,4.4c-0.2,1.8-0.5,3.6-0.7,5.4
		c-0.7,1.2-1.9,0.3-2.7,0.9c0.4,1.7,1.4,2.7,3.8,2.3c-2.5,2.9-1.8,5.8-1.5,8.5c0.3,3,0.1,6-0.5,8.9c-0.3,1.4-0.5,2.8-0.4,4.3
		c0.1,4.9-2,7.4-6.9,8.5c-1.1,0.2-2.1,0.6-3.1,1.4c0,2.4,0.7,4.8,1.7,7c3.3,7.7,5.3,15.8,8,23.7c1.3,3.8,3.1,7.7,5.5,11.1
		c3.8,5.4,9.8,7.2,15.9,8.8c2.6,0.7,5.1,0.5,7.6-0.5c5.1-2,8.3-5.4,9.1-10.9c1.3-9.2,1.6-18.4-1.5-27.3c-0.4-1.2-0.1-2.4-0.4-3.6
		c-0.7-0.7-1.3-1.5-2.3-1.8c0,1.7,0.1,3.3,0,4.9c-0.1,1.5,0,3.2-2.3,3.7c-1.2-5.8-1.4-11.6,0.2-17.4c-2.9-0.9-6,0.4-8.5-2.2
		c2.1-1,3.9-0.1,5.5-0.3c1.8-0.2,3.6-0.1,5.3-0.2c2.4-0.1,3.8-1.5,4.6-3.7c1.9-5.8,4.2-11.4,4.2-17.7c0.1-4.8,2.3-9.4,1.9-14.4
		c1.4,3.2,2.6,6.6,1.4,9.9c-1.2,3-1.7,5.9-1.9,9s-0.9,6.1-2.4,8.9c-1,1.7-1.4,3.7-1.9,5.7c-0.4,1.5-1.1,3-2.5,3.2
		c-4,0.6-4,3.5-4.2,6.7c2.2,0.2,3.4,1.8,4.6,3.3c2.3,2.9,5.7,2.2,8.7,2.6c7.5,1.1,14.1,3.6,18.8,10c1.4,2,3.4,3.5,5.1,5.3
		c0.7,0.7,1.5,0.9,2.4,1c3.8,0.6,7.7,1.3,11.5,2c2.7,0.5,5.1,0,7.6-1.3c6.2-3.2,12.9-5.4,19.9-6.2c9-1,17.5-3.9,26.3-6.2
		c0.7-7.1,2.9-13,9.6-16.6c6.6-3.6,12.5-0.7,18.2,1.9c1.3-1.8,0.8-3.1,0.6-4.4c-1.6-10.2,5.2-19.8,14.9-20.9c4.1-0.5,8,0.7,11.5,2.7
		c9.7,5.7,16.4,13.7,19,24.9c0.7,2.9,1.4,5.8,1,8.9c-1.1,7.1-6.7,13.4-14.8,14.6c-3.9,0.6-7.5,0.1-10.9-1.8
		c-1.3-0.7-2.5-1.3-4.1-2.2c0.3,5-0.3,9.6-2,14.1c-1.9,5-8.5,10.4-13.4,10C856.4,235,849.4,230.2,844.4,222.3c2-1.3,3,0.4,4.1,1.5
		c3.8,3.8,7.9,7.2,13.1,8.8c1.9,0.6,3.8,1.2,5.2,0.9c-6.5,0.2-11.7-3.7-16.6-8.1c-0.9-0.8-1.7-1.8-2.6-2.6
		C846.7,221.9,845.7,221.2,844.4,222.3z"/>
	<path d="M425.4,491.1c-1.1-0.6-0.8-2.4-2.4-3c-11.1,2.2-22.2-0.2-33.9-2.2c0,0-0.7,0.5-1.4,1.1c0,3.6,0.8,7,2.2,10.5
		c1.9,4.5,2.4,9.4,3,14.3c0.6,4,0.2,7.9-0.3,11.8c-0.7,6-1.7,11.9-2.1,17.9c-0.5,8.7,1,17,3.5,25.2c0.9,2.8,1.2,5.6,1.8,8.5
		c2.1,10.4,4.9,20.8,6.2,31.4c0.4,3,0.6,6,0.8,9c0.2,2.4-0.4,4.6-1.8,6.6c-1.1-0.4-1.1-1.3-1.1-2c0.5-11.7-2.6-22.9-4.7-34.3
		c-1.1-6.3-2.4-12.7-3.4-19c-0.4-2.5-1.2-5-1.9-7.4c-2.6-8.4-2.4-16.9-0.8-25.4c1.2-6.6,2-13.1,1.4-19.9c-0.3-3.7-1.8-7.1-2.6-10.6
		c-1.4-5.9-3.1-11.9-2.6-18c-0.8-1-1.9-0.8-2.9-0.9c-3.4-0.3-4-0.8-4.2-4.2c-0.2-2.9,0-5.8-0.1-8.7c0-1.9,0-3.9-0.4-5.8
		c-3.1,4.4-2.4,9.5-3.7,14.2c-0.5,0.9-1.8,0.6-2.2,1.9c-0.5,1.7-1.9,2.2-3.7,2.2c-2.9,0.1-4,1.3-4.9,4.1c-1.2,3.6-2.2,7.2-4.4,10.4
		c-1.5,2.2-1.7,4.9-1.9,7.6c-0.6,8.7-4,15.9-11.2,21.1c0.7-2.3,2.3-4.1,4-5.7c2.5-2.3,3.8-5,4.1-8.4c0.1-1.4,0.6-2.8,0.8-4.3
		c1.2-8.1,4.1-15.8,6.1-23.7c-0.5-0.9-1.4-0.5-2.1-0.3c-10.4,2.1-21,1.8-31.6,2.2c-3.1,0.1-3.1,0-5.8,1.9c0.5,3,1.5,6.2,1.7,9.2
		c0.6,7.1,0.8,14.4-1.8,21.4c-1.8,4.8-4.1,9.4-4.9,14.5c-0.7,4.5-1.1,9.1-1.5,13.7c-0.5,6.1-0.2,12.1,1,18.2
		c1.4,7.3,1.7,14.8,2.6,22.2c1.3,10.8,3.7,21.4,4.1,32.3c0.1,3,0,6,0,9c1.9,0.3,3.4-0.3,5-0.6c0.8-2.8,0.3-5.5,0.7-8.8
		c1.7,2.8,0.7,5.5,1.2,8.1c3.1-0.4,6.3-0.6,9.6-1.6c-2.5-9.3-0.8-18.3-0.1-27.4c0.3-3.8-0.5-7.5-0.8-11.3
		c-0.4-5.2-0.3-10.4,1.5-15.4c0.7,8.9-0.7,17.9,0.6,26.8c1.5-6.5,3.5-12.8,5.6-19.1c1.6-4.8,2.2-10,3.4-14.9c2-8,1-16.1,0.9-24.2
		c-0.1-4.3-0.1-8.7-0.6-13c-0.2-1.3-0.1-2.6,1.7-3.9c0.1,3.2,0.3,5.9,0.3,8.6c0.2,6.8,1.3,13.5,1,20.3c-0.2,7.1-0.3,14.2-3.1,21
		c-0.6,1.5-0.7,3.2-1.1,4.9c-1.1,5.1-2.6,10.1-4.4,15c-2.3,6.6-2.4,13.7-3.5,20.6c-0.6,4-1,7.9-0.1,11.8c1,0.5,2-0.3,3.4,0.3
		c2.4,1.6,2.8,4,2.7,7.2c0,3.5-1.9,6.5-1.9,9.6c0.8,1.3,2.2,1.6,2.7,3c0.2,0.9-0.4,0.7-1.2,0.5c0.4,3.5,2.9,5.9,3.9,9
		c1.3,4.2,3.9,8,4.8,12.4c0,0.2,0,0.5,0.2,0.6c4,3.1,4,8.1,6,12.2c-0.9,1.4-2.2,2-3.9,2.3c-6.6,1.2-13.2,2.2-19.9,1.8
		c-4.3-0.2-8.3-1.6-12-3.6c-1.6-0.9-3.1-2.2-2.8-4.7c0.2-1.6-1.4-2.8-2.6-3.6c-4.7-3.1-4.7-9.7-1.9-13.6c1.4-2,2.2-3.9,1-6.4
		c-1-2.1,0.2-4.4,0.7-6.5c0.4-1.7,1-3.3,0.4-5.1c-0.5-1.5,0.1-3.2,0.8-4.5c0.9-1.5,0.9-2.8,0.6-4.4c-1.3-6.7-1.2-13.6-1.8-20.4
		c-0.4-4.9-1.1-9.7-1.8-14.5c-1.9-11.3-2.9-22.7-4.8-34c-2.2-13.1-0.3-25.9,3.8-38.3c1.2-3.6,2.5-7,4.2-10.5c2-4.2,1.4-9.1,0.1-13.4
		s-1.4-8.7-1.8-13.1c0-0.4,0-0.8,0-1.3c-2.3-0.9-4.4-0.3-6.9,0.6c0.1-4.7-1-9,1.8-12.9c0.7-1,0.5-2.1,0.3-3.2
		c-2.3-8.9-1.9-17.8-0.7-26.8c0.6-4.6,0.7-9.3,1.1-13.7c-1.1-0.6-1.9-0.4-2.6-0.2c-12.7,3.6-25.1-4.6-30.4-15.1
		c-3.4-6.6-5.3-13.6-4-21.2c2.1-12.5,9.2-19.8,22.1-22.7c0.4-0.1,0.9-0.2,1.2-0.3c0.8-1.6,0.6-3.1,0.1-4.8c-2.5-8.5-5.8-17-6.7-25.7
		c-0.7-7-2.3-13.9-2.4-20.9c-0.1-4.9,1.4-9.7,1.3-14.6c0-1.4,0.1-2.9-0.3-4.3c-2.3-7.9-0.1-15.4,2.1-22.9c0.5-1.5,0.8-2.9,0.7-4.5
		c-0.2-3.3-0.1-6.7-0.3-10c-0.2-5.3,1.7-9.7,4.5-13.9c1.4-2.1,2.2-4.3,1.9-6.9c-0.1-0.9,0-1.8-0.2-2.7c-1.7-7-0.7-13.7,0.9-20.7
		c1.4-6,4.2-10.4,8.8-14c2-1.5,4.1-3.1,6.5-3.9c7.3-2.5,13.6-7.1,20.4-10.5c4.3-2.1,8.8-3.5,13.1-5.5c5-2.3,6.2-6.3,7-10.8
		c0.4-2.4,0.2-4.7-1.2-7c-1.4-2.4-0.4-5.5-1.6-8.1c-0.6-1.4-0.7-3-1.6-4.3c-0.4-0.6-1-1.6-0.7-2.1c1.4-3.2-0.7-5.7-1.5-8.4
		c-1.1-3.8-1.2-7.7,0.8-11.3c0.1-0.1,0.1-0.2,0.2-0.3c0.6-3.5,1.8-6.8,3.5-10c0.4-0.8-1.1-2.4,1.1-2.5c0.7,0.9,2.1,0.1,2.8,1.1
		c-0.6-1.2-2.1-0.2-2.8-1c1.1-1.6,0.2-4.3,2.7-5.1c-0.3-1.6-2.5-1.9-1.9-3.8c2.6-0.7,4.1,1,5.4,2.4c4.2,0,7.1-2.2,9.6-4.8
		c1.7,0.4,0.4,2,1.3,2.5c1.8,0.2,1.9-1.7,3-2.9c4.1,0,8.3-0.6,12.2,0.2c4,0.8,7.4-2.6,11.2-1.1c0.6,0.5-0.2,1,0,1.6
		c1.9-0.8,3-2.4,4.4-4c1.8,2.3,0.6,4.7,0.9,7.1c1.8-1.2,3.5-2.7,5.7-1.2c-0.2,2.4-2.9,1.9-3.7,3.5c1.7,0.6,3.3-0.8,5,0.2
		c0.9,1.1-1.5,2.4,0.3,3.3c-2.4,2.8-6,3.3-8,6.8c1.1,3.7,0.1,8.3,2.2,12.5c0.7,1.3-0.2,2.8-0.6,4.2c-0.4,1.6-0.9,3.2-1.3,4.9
		c-2.2,0.5-4.2,1.8-6.4,0.7c-1,1.1-0.4,2.5-0.9,3.6c-2.6-4.5-0.7-7.2,7.2-10.4c0.8-1.4,0.8-2.6-0.2-4.2c-1.3-2-1.2-4.5-1.4-6.8
		c-0.1-1.2-0.2-2.4-0.3-3.9c-5.1,2.2-9.9,0.2-14.7,0c-1.7-0.1-3.1,1.1-4.6,0.8c-0.5,0.7,0.2,1.6-1.1,2c-0.7-2.6-3.1-3.5-5.3-4.6
		c-1,0-1.3,0.7-1.7,1.4c1,0.9,2.2,0.8,3.4,0.7c0.6,1.2,1.2,2.4,1.8,3.7c-1.8,1.1-3,2.9-5.3,2.8c-4.6,6.8-7.7,14.3-10.8,22.3
		c-2.2-3.9-1.1-8.4-5.1-11.1c-0.9,2.9,1.3,3.7,2.4,5.1c-0.2,1.8-0.4,3.6-0.6,5.4c-0.7,0.9-1.7,0.9-2.8,0.3c0.4,2.2,1.3,3.3,4.3,2.6
		c-2.7,2.7-2.3,5.2-2,7.5c0.5,3.7,0.2,7.3-0.5,10.9c-0.2,1.2-0.4,2.4-0.4,3.6c0.2,4.8-2,7.4-6.9,8.4c-1.1,0.2-2,0.8-3.2,1.2
		c0.1,2.6,0.8,4.9,1.8,7.1c3.1,7.5,5.2,15.4,7.8,23c1.4,4.1,3.1,8.2,5.7,11.7c3.9,5.4,9.9,7.1,16,9c0.4-2.7,0.8-5.1,1.1-7.5
		c1.2,2.4,1.1,5,0.7,7.5c6.2,0.8,12.9-3.4,14.2-9.5c2.2-9.8,2.2-19.6-0.9-29.3c-0.2-0.6-0.3-1.3-0.4-1.9c-0.1-0.5,0-1.1,0-1.6
		c-0.6-0.9-1.3-1.5-2.5-1.9c-0.3,2.1,0.5,4.2-0.2,6.2c-1.3-0.1-0.6-1.2-1.1-1.9c0,1.4,0,2.7,0,4.2c-1.3-1.6-1.6-4.1-1.8-8.4
		c-0.1-3,0.9-5.9,1-8.8c-2.6-1.2-5.9,0.6-8.2-2.6c3.3,0,6.1,0.1,8.9,0c4.6-0.1,5.3-1,6.9-5.2c2.2-5.8,3.4-11.6,4-17.8
		c0.4-4.3,1.7-8.5,1.7-13c1.4,3.4,2.7,6.8,1.2,10.4c-1.1,2.5-1.6,5.1-1.7,7.7c-0.2,3.5-0.8,6.8-2.6,9.9c-1,1.8-1.5,4-2,6
		c-0.4,1.4-1.2,2.6-2.5,2.8c-4.1,0.6-3.7,3.6-4.1,6.7c2.2,0.1,3.2,1.7,4.5,3c3.5,3.5,7.2,6.7,12.3,7.4c1,0.1,1.5,1,2.2,1.4
		c2.3,1.3,4.5,2.5,7.3,2.7c3,0.3,6,1.9,8.2,4.1c4.6,4.6,9.3,9.2,11.5,15.7c0.5,1.6,1.3,3.1,1.3,4.8c0.1,6.8,1.7,13.6,0.2,20.5
		c-0.3,1.5,0,2.8,0.7,4.1c2.9,5.4,4.2,11,3,17.3c-1.1,5.5-1.2,11.3-0.9,17c0.1,1.4,0,3.1,0.6,4.3c2.4,4.8,2.9,9.9,3.4,15.1
		c0.1,1.1,0.2,2.2,0.2,3.3c0,2.8-0.7,5.8,1.7,8.1c0.2,0.2,0.3,0.6,0.3,0.9c0.3,6,2.7,11.7,2.5,17.7c-0.1,4.8,0.1,9.5,0.7,14.2
		c0.4,2.9,0.6,5.7,0.9,8.5c0.5,0.8,1.3,0.8,2.1,1c12.4,2.8,22.1,13.9,24.6,27.9c1.6,9.3,0.3,18.1-5.8,25.5c-6.5,8-15.5,11-25.5,10.6
		c-4.1-0.2-8.2-1.8-11.8-4.2c-0.9-0.6-1.7-1.5-3.2-1.6c1,4.3,0.9,8.6,1.5,12.9c0,0.3,0.2,0.6,0.2,1c0.3,13.8,3.3,27.4,1.9,41.3
		c-0.3,2.8-0.3,5.6-0.3,8.3c0.1,2.4-1,3.2-3.3,2.9c-2-0.2-4-0.3-6.5,0c-0.4,4.6-3.8,8.6-3.1,13.8c0.3,2.6,0.1,5.3,0.1,8
		c0,1.3,0,2.5-1.1,3.3c-1.3,1.1-1.1,2.7-0.5,3.7c1.8,3,1.8,6.4,2.3,9.6c0.9,7.3,1.6,14.6,2.3,21.9c0.4,4.2-0.1,8.5-1.1,12.6
		c-1.6,7-1.6,14.1-2.2,21.2c-0.7,9.1-0.9,18.2-2,27.3c-0.6,4.5,0.7,8.8,0.6,13.2c1.5,1.1,3.3-0.1,4.7,1.4c0.1,7.3,3.4,13.2,9,18.1
		c2.7,2.4,4.8,5.5,7.1,8.4c1.9,2.5,3.9,4.8,6.2,6.9c2,1.8,3.5,4,4.1,6.7c1,4.1,0.6,4.8-3.9,5.6c-1.5,3.8-5.1,4.3-8.8,5.2
		c-5.5,1.4-11,0.9-16.5,0.3c-5.9-0.6-7.7-2.1-9.2-7.6c-1.4-1-3.1-1.6-4.9-1.4c-2.4,0.2-4.6-0.6-6.9-0.9c-5-0.6-7.6-4.4-10.7-7.5
		c-1.4-1.4-1.5-3.2-0.1-4.8c0.6-0.8,1.5-1.7,1.2-2.7c-1.1-4.1,1.4-7.3,2.6-10.7c0.9-2.3,1.4-4.6,0.8-7.1c-0.8-3.2,1.4-5.1,3.6-6.9
		c0.5-0.9-0.6-1.7-0.1-2.8c0.8-1.4,2.8-1.2,4.2-2.3c0-3.4,0-6.8,0-10.2v0.1c1.7,0,1.4,1.3,1.6,2.4c0.3,2.4-0.2,4.9,0.4,7.2
		c3.8,0,8.4-1,10.2-2.2c0.6,0.4,0.8,1.8,2,1c0.1-0.1,0.4-0.3,0.4-0.5c-0.8-4.2-0.2-8.4,0.2-12.6c0.9-9.1,1.7-18.2,2-27.3
		c0.3-7.7,1-15.3,2.2-22.9c1.3-8.4,0-16.6-1.1-24.8c-0.5-3.8-0.8-7.7-2.4-12c-0.8,2.7-1.4,4.9-2.1,7.1c-0.1-3.3-0.9-6.7,1.8-9.4
		c-0.4-1.2-0.4-1.2-1.5-2.3c2.7-5.1,3.7-10.8,3.4-16.7C423.1,495.3,423.4,492.8,425.4,491.1L425.4,491.1z"/>
	<path d="M389,145c-4.1-0.9-7.5-2.9-11.1,0.1c3.1-3.3,10.1-4.3,13.6-2.6c1.3,0.6,1.6,1.7,1.8,2.9c-1.1,1.1-3.9-0.4-3.6,2.4
		c-3.4,0.6-6.6,0.2-9.9-0.3C382.2,145.5,385.4,146,389,145z"/>
	<path d="M727,149.7c-3.4,0.6-6.6,0.1-9.8-0.5c2.8-1.5,5.8-2,9.2-2c-1.9-2.1-4.9-0.2-6-2.2c-2,0-3,2-5.3,1.4
		c2.3-1.8,4.3-3.4,7.3-2.7c1.7,0.3,3.4-0.3,5.1,0.2c2,0.5,3.2,1.4,3.3,3.6C729.1,147.6,727.3,147.7,727,149.7z"/>
	<path d="M409.9,559.2c-0.6,0-0.7-0.3-0.7-0.8c0.1-6.5-0.2-13-1.3-19.5c-0.2-1-0.3-2,0.5-2.8C412,539.7,412.8,551.9,409.9,559.2
		L409.9,559.2z"/>
	<path d="M745.4,535.8c5.1,7.7,4.1,16,2.7,24.3c-0.3,0-0.6,0.1-1,0.1c-0.2-2.4-0.6-4.9-0.5-7.3c0.2-5.4-1.5-10.8-0.9-16.2
		C745.8,536.4,745.5,536,745.4,535.8L745.4,535.8z"/>
	<path d="M327.6,523.1c-2.9,2-3.4,4.9-5.4,7.7c0.5-4.4,2.6-7,5.2-9.5c0.9-0.1,1.2,0.8,2.1,1.1c-0.7,2-1,4.2-2.2,5.9
		c-2.9,4.2-2.9,8.7-2,13.4c0.7,3.6,0,6.9-1.6,10.3c-0.3-0.4-0.5-0.6-0.5-0.8c1.7-5,0.6-10.1,0.2-15.2c-0.1-2.3,0.8-4.4,1.8-6.3
		C326.3,527.8,327,525.8,327.6,523.1z"/>
	<path d="M327.6,501.1c2.6-0.2,4.6,1,6.7,1.3c1.3,0.2,2.3,0.1,3.5-0.3c5.3-1.9,9.1-5.6,12.4-10c-0.6,5.6-4.5,8.5-9,10.7
		C336.6,505.1,332,505.3,327.6,501.1z"/>
	<path d="M665.8,502.6c2.6,0.7,5.3,1.3,7.7,1.9c6.2-2,10.8-5.8,14.4-11.5c0.3,2.9-1.2,4.6-2.4,6.3c-3.2,4.6-10.9,7.6-15.7,6.3
		C668.3,505.2,666.8,504.4,665.8,502.6z"/>
	<path d="M363.8,171.8c1.4-2.3-0.8-3.8-0.7-5.7c0-1.8-0.6-3.7,1.9-5.3c-0.5,4.5,1,8.1,2.3,11.8c3.6,2.4,7.6,4.4,10.3,8.1
		C372.4,178.6,368.4,175,363.8,171.8z"/>
	<path d="M702,162.9c-0.1,4,1.5,7.5,2.7,11.4c3.5,2.3,7.5,4.4,10.2,8.2c-4.7-2.6-9.2-5.6-13.3-8.9
		C702.3,169.9,698.7,166.3,702,162.9z"/>
	<path d="M665.6,523.9c0.4,0.1,0.9-0.2,1.3,0.4c-0.9,2.3-1.4,4.9-2.9,7.2c-2.1,3.1-2.1,6.7-1.4,10.3c0.7,4,0.7,7.9-1.2,11.6
		c-0.6,0-0.6-0.4-0.6-0.7c1.4-4.7,0.7-9.5,0.1-14.2c-0.3-2.6,0.7-4.8,1.8-7c1.1-2.1,2-4.2,2.2-6.6
		C664.9,524.5,665.1,524.1,665.6,523.9z"/>
	<path d="M370.1,210c4.2,1.2,8.6,1.6,11.8,4.7c2.1,0.6,3.9-0.6,5.9-0.8c0.3,2-1,2.5-2.2,2.9c-1.4,0.5-3.1,0.6-4.1-0.4
		C378.3,213.1,373.9,212.1,370.1,210z"/>
	<path d="M337.5,525.2c-4.6-4.5-4.3-14.3,0.8-15.9C334.8,514.6,336.2,519.9,337.5,525.2z"/>
	<path d="M675.1,511.1c-0.6,2.8-1.7,5.2-1.6,8.1c0.1,2.6,1.7,4.9,1.4,8.1c-2.3-2.6-4.3-5.5-3.1-8.3
		C672.9,516.4,671.5,512.6,675.1,511.1z"/>
	<path d="M754.7,500.5c0.8,2.1,0.2,3.8-1.3,4.4c-3.1,1.3-6.2,2.9-9.6,3.3c-0.8,0.1-1.5-0.1-2.1-0.6c0-1.2,0.8-1.3,1.5-1.5
		c1.7-0.4,3.4-0.8,5.2-1.1C751.2,504.6,753.9,504,754.7,500.5z"/>
	<path d="M417.7,498.6c0.2,2.4-0.4,4.1-2,4.8c-3,1.2-6,2.7-9.3,3.2c-0.9,0.1-1.8,0.1-2.3-0.9c0.1-1,1-1,1.7-1.2
		c1.3-0.3,2.6-0.6,3.9-0.9C414.4,502.5,414.4,502.5,417.7,498.6z"/>
	<path d="M713,213.6c-6.4-1.6-12.3-4.5-18.3-7.1c0.1-0.3,0.2-0.6,0.4-0.9c6.1,2.4,12.1,4.8,18.2,7.2
		C713.2,213,713.1,213.3,713,213.6z"/>
	<path d="M757,530.3c0.7,2.3,0.2,4.5-1.1,6.3c-1.8,2.2-3.1,4.5-3.1,7.5c0,0.6-0.4,1.2-1.1,1.7c0-2.1-0.6-4.2,0.5-6.1
		C753.8,536.6,755.9,533.8,757,530.3z"/>
	<path d="M419.5,528.9c0.5,2.4,0.1,4.6-1.4,6.3c-1.9,2.1-2.8,4.4-3,7.1c-0.1,0.9-0.5,1.7-1.2,2.6c-0.4-3.6-0.3-6.7,2.1-9.4
		C417.7,533.6,417.9,531,419.5,528.9z"/>
	<path d="M391.3,175.9c0.6-1.8,1.5-3.1,3.3-2.9c1.7,0.2,3.8-0.1,4.6,2.8C396.5,176.4,394,177.4,391.3,175.9z"/>
	<path d="M725.4,171.3c4.4,1,8.8-1,13.2,0.4c-4.4,0.8-8.8,2.2-13.3,1.2C725.4,172.3,725.4,171.8,725.4,171.3z"/>
	<path d="M401,170.3c-4.4,0.4-8.8,1.6-13.8,1.2c1.6-2.7,3.3-1.3,4.8-1.5s3.1-0.5,4.6-0.5C398.1,169.3,399.8,168.4,401,170.3z"/>
	<path d="M737.2,177.1c-3,1.3-5.4,1.6-8.1,0.7C730.5,174,733.5,173.6,737.2,177.1z"/>
	<path d="M723.8,212.9c0.6,0.8,1.1,1.6,1.6,2.3c0.1,1-0.5,1.5-0.9,2.2c-2.4-1.5-4.7-2.9-7.4-4.5
		C719.4,212.9,721.4,212.9,723.8,212.9z"/>
	<path d="M745.4,535.7c-0.9-2.7-1.8-5.4-2.7-8.1c-0.3-1.1-0.9-2.2-0.1-3.4C744.8,527.7,745.4,531.7,745.4,535.7L745.4,535.7z"/>
	<path d="M368.1,177.3c2,3.2,4,6.5,5.9,9.7c-0.2,0.1-0.4,0.3-0.6,0.4c-2.6-2.8-4.2-6.3-6.2-9.5C367.5,177.7,367.8,177.5,368.1,177.3
		z"/>
	<path d="M711,189c-2.5-2.9-4.3-6.3-6.2-9.6c0.3-0.2,0.6-0.4,0.9-0.6c2,3.3,4,6.5,6,9.8C711.4,188.8,711.2,188.9,711,189z"/>
	<path d="M374.4,193.5c2.3,1.4,2.8,3.1,3,9.7C375,200.3,376.4,196.4,374.4,193.5z"/>
	<path d="M715.1,205.4c-2.3-3.5-1.3-7.3-3.5-10.2C714.1,195.5,714.3,196.1,715.1,205.4z"/>
	<path d="M407.5,531.3c-1.7-2.7-2.7-5.6-2.7-8.8C407.2,525,406.9,528.3,407.5,531.3z"/>
	<path d="M738.1,163.3c-1.6,2.8-4.4,0.3-6,2.5C732,162.8,733.7,162.2,738.1,163.3z"/>
	<path d="M394.4,163.8c0.7-2.8,3-3.4,6-1.9C399,164.5,396,161.9,394.4,163.8z"/>
	<path d="M744,498.7c-3.5-0.1-7.1,0-10.4-1.6C737.3,496.9,740.6,498.2,744,498.7z"/>
	<path d="M665.6,523.9c-0.2,0.4-0.4,0.7-0.6,1.1c-3,1.6-3.4,5.1-5.4,8.2c0.5-4.7,2.6-7.7,5.5-10.2
		C665.7,523,665.6,523.5,665.6,523.9z"/>
	<path d="M416.3,512.5c-1.3,3.4-3,4-6,2C412.5,514.1,413.9,512.6,416.3,512.5z"/>
	<path d="M747.8,516.5c2.2-0.9,3.8-2,5.7-2.4C753.2,517.2,751.6,518,747.8,516.5z"/>
	<path d="M341.7,569c-1.1-3-1.1-5.9,0.2-8.8C342.4,563.2,341.6,566.1,341.7,569z"/>
	<path d="M409.9,559.2c2,2.8,0,5.4-0.2,8C408.7,564.5,409.1,561.8,409.9,559.2L409.9,559.2z"/>
	<path d="M679.5,561.7c0,3.3,0,6.1,0,9C677.9,568.3,677.9,566.3,679.5,561.7z"/>
	<path d="M406.1,497c-3.4,0.2-6.7,0-10.6-1.5C399.7,495,402.8,496.7,406.1,497z"/>
	<path d="M377.9,205.9c1.3,1.7,1.9,3.3,0.6,5.3C377.3,209.4,376.8,207.9,377.9,205.9z"/>
	<path d="M389.4,213.3c2-1.7,4.4-0.8,7.1-0.9C393.8,213.5,391.6,213.6,389.4,213.3z"/>
	<path d="M747,568.8c-0.1-2.5-0.8-5,1-7.2C747.9,564.1,748.3,566.6,747,568.8z"/>
	<path d="M716.6,212.3c-2.3-1.5-1.9-3-1.4-5C716.7,208.8,717,210.1,716.6,212.3z"/>
	<path d="M353.1,501.6c-0.9-1.2-2.8-2.1-1.7-4.4C353.5,498.2,352.7,500.2,353.1,501.6z"/>
	<path d="M743.2,610.9c0-1.8,0-3.7,0-5.4C744.2,607.2,744.2,607.6,743.2,610.9z"/>
	<path d="M689.5,498.9c1.2,1.4,0.7,3,1.4,4.2C688.2,500.8,688.2,500.8,689.5,498.9z"/>
	<path d="M382.4,224.4c1.1,2.2,1.1,2.2,1,4.3C382.4,227.4,382.4,227.4,382.4,224.4z"/>
	<path d="M405.1,598.9c-1.1-1.3-0.8-2.7-0.4-4.7C405.7,596.1,405.4,597.5,405.1,598.9z"/>
	<path d="M742.8,601c-1.2-1.8-1.2-3.1-0.2-5.1C743.1,597.9,743,599.1,742.8,601z"/>
	<path d="M406.2,610.4c-1-2.2-0.7-4.5,0-6.8C406.2,605.9,406.2,608.2,406.2,610.4L406.2,610.4z"/>
	<path d="M726.4,227c0-1.8,0-3.6,0-5.4C727.7,223.5,726.9,225.3,726.4,227z"/>
	<path d="M733.3,210.5c-1.2,0.3-2.5,0.6-4.2,1c1.4-1.5,2.9-1.2,4.1-1.8C733.2,210,733.2,210.3,733.3,210.5z"/>
	<path d="M665.6,619.1c-0.8-1.1-0.5-2.1,0.5-3.2C666.3,617.2,666.2,618.2,665.6,619.1z"/>
	<path d="M679.8,557.4c-0.5-1.8,0.2-2.8,0.7-4.1C681.1,554.8,680.3,555.9,679.8,557.4z"/>
	<path d="M655.8,550.1c0-1.1,0-2.2,0-3.3h0.1C655.9,547.9,655.9,549,655.8,550.1C655.8,550,655.8,550,655.8,550.1z"/>
	<path d="M341.7,555.4c0.3-0.9,0.5-1.8,0.9-3C343.3,553.9,342.6,554.8,341.7,555.4z"/>
	<path d="M318.6,543.4c0-0.9,0-1.7,0-2.6c0,0,0,0,0.1,0C318.6,541.7,318.6,542.6,318.6,543.4L318.6,543.4z"/>
	<path d="M665.5,610.1c-0.1-0.6-0.2-1.2-0.3-1.9C666.4,608.9,665.6,609.5,665.5,610.1z"/>
	<path d="M328.9,614c-0.4,1.6-0.2,2.7-1,3.6C327.5,616.4,327.3,615.3,328.9,614z"/>
	<path d="M376.1,190.1c-1.5,0.7-1.9,0.3-1.9-0.8C375,188.7,375.4,189.3,376.1,190.1z"/>
	<path d="M723,197.7c0.3-1.1,0.8-1.6,2.1-1.7C724.5,197,724.3,197.7,723,197.7z"/>
	<path d="M745.4,573.5c-0.3-0.7-0.4-1.2,0.1-1.4c0.7-0.2,0.6,0.4,0.5,0.8C746,573.1,745.8,573.2,745.4,573.5z"/>
	<path d="M713.7,191.8c-1.2,0.6-1.8,0.6-2-0.5C712.6,190.3,712.9,191,713.7,191.8z"/>
	<path d="M328.2,607.3c0,0.6,0.2,1.3-0.3,2c0-0.8,0-1.4,0-2.1C327.9,606.9,328.1,606.9,328.2,607.3z"/>
	<path d="M656.5,541.4c0,0.5,0,1,0,1.5l0,0C656.5,542.3,656.5,541.9,656.5,541.4L656.5,541.4z"/>
	<path d="M387.1,194.6c0.1,0.9-0.5,1.2-1.1,1.5c-0.6-0.5-0.4-0.9,0-1.2C386.3,194.6,386.6,194.2,387.1,194.6z"/>
	<path d="M345.2,543.8c0-0.3,0-0.6,0-1C345.6,543.1,345.5,543.4,345.2,543.8z"/>
	<path fill="#FFFFFF" d="M680.2,354.4c0.4-2.8,2.4-1.1,3.9-1.2c-0.4-3.6-5,0.8-5-3.6c-1.7,4.3-4.1-0.1-5.8,1.5
		c-0.7-0.7,0.2-2.1-1.2-2.4c-0.1,0-0.2,0-0.3,0c-1.5,1.5-0.5,4-2.5,5.5c-0.5-2.1-0.3-4.1-0.2-6.5c24.2,1.6,48.3,0.9,72.3,3.3
		c0.1,1.3,0,2.3-0.4,3.3c-2,0.8-2.6-0.5-3.1-1.8c-1.3-0.1-0.7,1.3-1.6,1.6c-2,0.4-2.1-1.2-2.3-3.1c-1.3,1.4-0.9,2.5-0.7,3.5
		c1,0.9,2.2,1,3.6,1.6c-0.6,6.1,1,11.6,5.6,16c-2.7-4.8-3.6-10-3.6-15.2c0.9-1.1,1.8-0.9,3.1-0.7c-0.1,5,4.7,5.9,7.2,8.8
		c-0.9-3.3-4.4-5.2-4.8-8.9c2.1-0.9,3.9,0.7,5.8,0.2c-0.9-1.7,0.1-2.9,0.7-4.3c2.7,6.3,7.7,11.5,7.1,19.3c1.3-1.5,0.6-2.6,1-3.6
		c2.8,3.6,6.5,19.1,12.4,51.5c-2.2,3-1.7,6.5-1.7,9.9c0.1,6.7,2.1,13.1,2.8,19.8c0.8,8.8,2.2,17.7,1.2,26.6c-0.4,3.5-0.6,7-0.9,10.9
		c-4,0-8.1-0.1-12.2,0c-3.9,0.1-7.8,0.1-11.7,0.6c-9.1,1-17.6-2-26.2-4.1c-1.2-0.3-2.4-0.5-3.9-0.7c-0.7-5.4-1.9-10.8-2-16.3
		l-0.1,0.1c1.8,1.9,1.4,4.5,2.1,6.8c0.5,1.9,0.8,3.9,2.1,6.2c-0.9-8-3.2-15-5.7-21.6c1.2-1,2.1-0.5,2.8-1.3c2.9,4.8,4.6,10,7.3,14.8
		c-1.1-4.9-3.2-9.4-5.6-13.7c-1.4-2.5-1.6-4.9-1.2-7.6c1.2-7.7,2.2-15.4,3.8-23c1-1.9,1.3-3.8,0.7-6c-0.9-3.4,0.1-6.9,1.3-10
		c2-5,0.9-9.8,1-13.5c1,5.4,0.5,10.7-1.7,12.2c-0.8-1-0.2-2.1-0.7-3.2c2.7,5.7-1.7,11.4,0.4,17.1c0.4,1-0.8,2.2-1.1,3.4
		c-1,0.1-1.1,1-1.4,1.6c-2.3,5.3-4.3,10.6-5.7,16.2c-0.9,3.4-2,6.8-2.8,10.3c-1,4.1-1.4,8.3-1.6,12.5c-0.2,5.4-1.1,10.6-3.9,16
		c-17.4,2.1-35.3,2.3-53.3,3c1.1-5.7,2.2-11.1,0.8-16.8c-1.9-7.4-0.8-15,0-22.5c0.7-6.9,1.6-13.8,1.1-20.6
		c-0.6-7.7,0.8-15.1,2.4-22.5c0.9-4,0.9-8.2,1.2-12.3c0.8-10.4,1.7-20.8,6.6-30.3c-0.3-0.5,0.7-0.1,0.3,0c0,0,0,0.2,0.1,0.3
		c0,0.3,0,0.7,0.5,0.8c0.1-0.2,0.4-0.4,0.5-0.7c1-2.1,1.4-4.9,3.4-5.9c1.3-0.7,2.3-1.1,2.6-2.5c1.6,0.2,0.4,2.2,1.8,2.6
		c1-0.5,0.2-1.8,0.7-2.3C677.8,352,678.8,354.3,680.2,354.4c1,2.7-1,5.2-0.9,7.9C679.1,359.6,681.4,357.2,680.2,354.4z"/>
	<path fill="#FFFFFF" d="M686.2,244.9c3.2,2.5,6.2,4.5,9.7,5.9c-0.9-2.7-1.5-3.2-7.5-6.4c-0.7-1.7-0.3-3.5,0-5.2
		c2-10.8,1.7-21.5-1.4-32c-1.3-4.4-2.2-8.8-3.1-13.2c0.7-1.1,1.5-1.8,2.5-1.9c4.2,17.1,8.5,34,18.9,48.6c1.3-0.1-0.1-1.2,0.8-1.5
		c3.8,3.1,8.6,4.4,13.4,5.4c8,1.7,15.1-2.6,18.6-10.1c3.2-6.8,2.2-13.9,1.9-21c-0.1-4.1-1.6-7.9-3.1-11.8c1.6,0.1,1.3,1.6,2.2,2.2
		c0.8-0.7-0.4-1.4,0.3-2.2c8.9,0.1,16.4,3.6,22.5,10c1.6,1.7,3.6,2.9,4.5,5.2c0.4,1,1.6,1.1,2.6,1.3c5.4,1.3,10.9,2.3,16.4,2.9
		c1.1,0.1,2.2,0.2,3.1,1c2.3,2.1,5.3,2.5,8.2,3.2c-2-2.6-5.5-2.6-8-4.3c9.9-6.1,11.8-6.3,22.6-8.3c11.1-2,22.3-4.2,32.5-9.5
		c5.4-2.8,10.8-5.7,16.2-8.4c2.1-1.1,3.5-3.1,5.6-4.5c0.9,2.1,1.8,4,2.6,6c-1.6,3.2-1.4,4.4,2.8,6.4c2.2,1.1,3.3,2.7,4.8,4.4
		c-4.3,2.2-4.4,2.2-6.5,0.2c-5,1.5-8.6-1.7-12.8-3.8c0.2,2.6,2.7,2.7,4,4.4c-2.7,1.4-5.4,2.8-8,4.2c-3.7,2-7.4,4.4-10.6,7.4
		c-4.6,4.4-9.2,8.6-14.7,11.8c-4.3,2.5-8.2,5.6-12.4,8.3c-1.9,1.2-3.9,2-6,2.8c-5.7,2.1-11.8,2.8-17.7,4c-2.7,0.6-5.4,1.2-8.1,2
		c-4.4,1.3-8.9,1.9-13.5,1.8c-1.5,0-3-0.3-4.5,0.5c-1.3,0.7-2.5-0.4-3.7-0.8c3.6-14,3.8-17.2,1.7-20.5c0.7-4.6,0.7-4.6-0.1-6.7
		c-1,2.5-1,4.8-1.1,7c-0.5,7.9-1.1,15.8-4.7,23c-1.8,3.7-1.7,7.8-2.5,11.6c-0.4,1.8-0.7,3.4-2.4,4.2c-0.2,1.3,1.2,0.5,1.2,2.1
		c-1.6,18.2-2.2,37.4-4.2,56.4c-1.8,0.9-3.4,0.4-5,0.9c1.5,0.7,3.1,0,4.8,0.7c-0.2,6.1,0.8,12.2,1,18.7c-27.1-3.1-54.2,0-81.5-1.7
		c1.2-7,0-14.4-0.3-22.2c6.9-1.5,13.6,0,20.6-0.1c-3.6-1.1-7-0.9-10.3-1.3c-3.2-0.4-6.4-0.5-10.2,0.3c0-4.9,0.1-9.6,0-14.2
		c-0.1-2.8-0.3-5.5-0.6-8.3c-0.4-4.2-1.9-7.9-4.8-10.9c-0.6-0.6-0.8-1.4-1-2.1c-1.9-7-3.7-13.9-5.5-20.9c-0.1-0.4-0.1-0.9-0.1-1.7
		c6.7,0.2,12.5-2.1,18.3-5.2C680.5,256,684,251.2,686.2,244.9z"/>
	<path fill="#FFFFFF" d="M562.2,158.1c1.9,0.4,3.4,1.4,5.2,1.5c-0.7,2.8-0.1,5.8,1.7,8.5c0.7-1.7-0.6-3.1,0.1-5.2
		c2.2,4.1,5.4,6.7,8,10.1c0.9,0.1,2,0.4,2.9,0.9c2.8,1.5,5.9,2.1,9,1.7c2.1-0.3,3.7,0.4,5.2,1.7c2.7,2.4,5,5.1,6.4,8.4
		c1.6,3.6,4.2,5.4,8,5.3c6.6-0.2,13,1.3,19.4,2.7c2.6,0.6,5.2,0.7,7.9,0.1c8.8-2.1,17.8-3.5,26.9-3.9c0.3,0,0.7,0,1,0.1
		c5.9,1.6,12,2.4,18.1,4.4c0.3,1.6,0.8,3.2,0.8,4.8c-0.1,4.5,0.9,8.8,1.8,13.2c1.5,7,1.7,14.1,2.2,21.2c0.2,3.1-1.2,5.8-2.1,8.6
		c-1.3,0.5-1.7-1.5-3.2-0.9c0.3,1.2,1.9,1.4,2.2,2.5c-5.6,10.5-14.5,18.1-29,17.1c-0.8-4.7-1.7-9.5-3-14.2c-0.3-1.1-0.4-2.2-0.7-3.2
		c-0.8-3-2.7-5.3-4.5-7.7c-2.2-2.8-5.2-2.2-7.9-2.4c-9.9-0.7-19.7-2.1-29.2-4.8c-3.1-0.9-6.2-2.2-8.6-4.3c-3.9-3.5-8.4-5.7-13.4-7
		c-3.7-0.9-6.7-2.7-9-6.2c-8.3-12.4-13.3-25.9-14.6-40.6C563.4,166.2,562.5,162.3,562.2,158.1z"/>
	<path fill="#FFFFFF" d="M610.2,144.7c0.1,7.1-1,13.3-4.2,19c-5.8,10.4-16.5,12-24.9,3.6c-6.6-6.5-9.7-14.8-10.9-23.8
		c-1-6.9-0.5-13.8,1.9-20.4c1.1-3.2,2.7-6.1,5.1-8.5c5-5.2,11.7-6.2,17.9-2.4c6.9,4.3,10.5,11,13,18.4
		C609.5,135.3,610.4,140.3,610.2,144.7z"/>
	<path fill="#FFFFFF" d="M561.1,127.9c-1.1,1.2-1.9,2.2-2.8,3.2c-7.6-1.5-6.6,5-8.3,8.8c-2.5,0.9-5.4-1.2-7.2,1.6
		c-1.1,1.7-1.7,3.5-1.3,5.7c0.9,4.9,3.8,6.3,10.7,4.9c2,2.5,3.3,6.1,7.4,5.8c5.2,11.2-0.3,18.8-9.5,21.2c-4.1,1.1-7.9-0.5-11.3-2.9
		c-5.6-4-8.9-9.8-11.2-16.2c-3.5-10-4-20.2-0.4-30.3c1.8-5,4.9-8.7,9.3-11.8c5.2-3.7,9.9-2.6,14.7,0.1c1.7,1,3.4,2.1,5,3.3
		C559.4,123.6,559.6,123.9,561.1,127.9z"/>
	<path fill="#FFFFFF" d="M755.6,641.1c-0.8,1.2-2.2,0.9-2.5,2.7c1.6,2.2,4.5,0.4,6.6,1.2c-0.5,3.6-0.3,3.7,7.7,2.6
		c-1.1,0.7-2,1.1-2.8,1.7c-0.9,0.6-1.6,1.3-0.7,2.5c1.4,0.7,2.5-0.6,3.8-0.5c1.6,2.6,6.2,2.6,10.5,1.4c1.5,2.8,3.9,5,6.1,7.3
		c2.2,2.3,4.9,4.2,5.4,7.8c-2,3.1-4.9,4.7-8.6,5.5c-6,1.3-12,1.8-18.1,0.9c-3.1-0.4-5.9-0.9-6.6-5.1c-0.4-2.5-3.2-3.5-5.8-3.6
		c-2.1-0.1-4.2,0-6.3-0.6c-6.4-1.6-7.4-2.2-11.5-8c1.4-2.4,2.4-5,1.7-8.1c-0.2-1.1,0.6-2.7,1.4-3.6c2.8-2.9,2.4-6.4,2.8-10.9
		c1.6,4.8,4.6,5.2,8.2,4.3c3.2-0.8,3.1-3.7,4-6.1c-0.5-1.5-2.2-2.3-2.5-4.5c4.7,0.4,9.4-0.2,13.8-0.1c1.8,2.2,0.6,4.9,2.6,7.1
		c-3.3-0.2-6.3-1.9-9,0.3c-0.5,0.4-0.4,0.4-0.2,2.4c-1.5,0.6-3-0.2-4.5,0.2C751,640.6,751,640.6,755.6,641.1z"/>
	<path fill="#FFFFFF" d="M910,198.2c-0.1,1.4-0.1,2.9-0.5,4.3c-1.8,7.6-8.2,11.2-16.2,8.6c-11.9-3.9-19-12.6-22.9-24.2
		c-1.3-3.8-1.8-7.8-0.8-11.8c1.7-7.2,7.2-10.7,14.5-9.2c6.3,1.3,11.4,4.9,15.7,9.4C906,181.7,909.9,190.5,910,198.2z"/>
	<path fill="#FFFFFF" d="M659.8,643.5c1.1,1.1,2.3,2.7,4.4,1.5c2-1.1,3.7-2.4,3.3-5.2c-0.2-1.7,0-3.5,0-5.5c4.2-1,8.1-2.1,11.9-2.5
		c1,0.7-0.1,1.2,0.4,1.8c1.1,0.5,1.4-1.2,2.5-1.2c0.1,4.6-2.2,8.7-2.1,13c-4,0.7-7.9,0.3-11.5,1.6c0.1,2.8-0.5,5.3,1.2,7.8
		c2.4,1.3,5.3,0.3,7.9,1.2c2.4,0.9,5.3-1.3,8.2,1.5c-5.2,0.3-9.7-1.6-14.3-0.2c1,1.7,1.1,1.8,2.6,2.8c0.8,1.2-0.7,2-0.4,3.8
		c4.5,2.3,9.5,2.7,15,1.5c1.5,3.6,3,7.2,4.5,10.7c0.7-0.2-0.1-1.1,0.9-1.3c0.9,2.3,1.7,4.7,2.1,7.6c-11.3,1.1-22.4,4.7-33.2-1.7
		c0.2-3.1-1.9-5.5-4.1-7.5c-3.4-3.2-4-8.8-0.8-12.5c1.1-1.2,2.1-2.6,1.3-4.2c-1.1-2.2-0.7-4.4-0.2-6.5
		C659.7,647.9,658.1,645.6,659.8,643.5z"/>
	<path fill="#FFFFFF" d="M847.6,218c4.6-3.8,9.6-6.9,15.1-9c1.5,0.4,3,1.1,4.7,1c1.6-0.1,3.2,1.2,4.7,1.9c2.5,1.2,4-0.3,6-1.6
		c-1.8-1.3-2.9,0.4-4.1,0c1.5-1.5,1.5-1.4,3.8-1.2c3.6,6.5,2,13-1.2,19c-1.9,3.5-6.1,3.8-9.9,3.3c-4.9-0.7-9-3-12.7-6.1
		C851.7,223.2,849.5,220.9,847.6,218z"/>
	<path fill="#FFFFFF" d="M532.8,118.4c-16.5,14.9-10.1,54.6,11.5,62.2c-3.9,0.7-7-0.4-10-2.2c-3.6-2.2-6.3-5.3-8.4-8.9
		c-6.5-11.1-8.3-22.9-5.2-35.3C522.5,126.4,525.6,122.5,532.8,118.4z"/>
	<path fill="#FFFFFF" d="M589.7,173.9c-4.4,0.6-7.8-0.3-10.8-2.4c-4.9-3.4-8.8-7.7-10.2-13.8c-0.4-1.7-1.2-3.3-1.8-5
		c-2.7-7.7-3.4-15.3-1.6-23.4c1.7-7.8,5.2-13.7,12.4-17.8c0,1.1-0.8,1.3-1.2,1.8s-0.9,1-1.3,1.5c-3.5,4.4-5.4,9.5-6.2,14.9
		c-1.6,11.3,0.1,22.2,6,32.1C578.3,167.3,582.8,171.6,589.7,173.9z"/>
	<path fill="#FFFFFF" d="M566.6,157.6c-5.8-0.6-5.7-5.9-8.7-9.3c0.6,3.4,2,5.8,3.1,8.4c-1.4-0.2-2.7-0.2-3.7-0.6
		c-0.9-0.3-2-1-2.3-1.8c-2.1-6.1-4.5-12.3-2.1-18.9c0.9-2.4,2.2-3.1,6.5-2.9c1.1-0.7,1.5-2.6,3.9-2.1
		C561.7,139.5,562.7,148.5,566.6,157.6z"/>
	<path fill="#FFFFFF" d="M899.7,213.2c-4.1,1.9-8.2,2.2-12.4,0.3c-12.1-5.1-21.8-19.6-21.4-32.3c0.1-2.7,0.7-5.2,2.5-7.5
		c-1.4,10,2,18.5,7.9,26.1C882.1,207.5,889.4,213,899.7,213.2z"/>
	<path fill="#FFFFFF" d="M841.2,202.6c0-6.1,0.6-11.3,6-13.9c5.2-2.6,10.3-1.4,15.2,2C856,195.8,848.7,198.6,841.2,202.6z"/>
	<path fill="#FFFFFF" d="M758.3,624c-1.3,2.3-3.6,1.4-5.5,1.8c-2,0.4-4.3-0.5-5.9,1.4c-0.5,2.4,1.6,3.6,2.3,5.5
		c-0.4,1.1-0.8,2.3-1.3,3.7c-1.6-1.5-3.3,0.3-5.1-0.4c-2-0.9-1.3-2.7-1.6-4.3c-0.6,0.3-1,0.4-1.4,0.6c-0.6-2.5,2.9-3.5,1.5-6.4
		C747.2,624.8,752.5,623.3,758.3,624z"/>
	<path fill="#FFFFFF" d="M844.4,222.3c-0.1-1.6,0.3-2.8,2.2-3.5c6.5,7.7,13.7,14.6,25.8,13.5c-4.1,2.7-7.9,2.6-11.7,1.5
		c-5.6-1.6-10-5.1-13.9-9.3C846.2,223.7,845.8,222.4,844.4,222.3L844.4,222.3z"/>
	<path fill="#FFFFFF" d="M551.8,150c-1.7,0.4-3.3,0.6-4.7,1.4c-3.3-2-4.6-4.6-3.6-7.4c1.2-3.3,3.6-1.9,5.8-1.8
		C550.1,144.8,551,147.3,551.8,150z"/>
	<path fill="#FFFFFF" d="M659.6,638.9c2.7-0.7,1.3-2.5,2.1-4c0.8-1.1,2.1-1.6,3.8-1.2c1,6.4,0.7,7.1-3.2,9.2
		C660.2,642.5,661.1,640.3,659.6,638.9z"/>
	<path fill="#FFFFFF" d="M840.8,194.2c-0.6,2.7-0.7,5.4-0.6,8.1c-0.6,0.7-1.1,1.1-2.2,0.9C837.9,199.9,838.9,196.9,840.8,194.2z"/>
	<path fill="#FFFFFF" d="M695.2,123.9c0.8-0.6,1.7-1,2.6-1.1c1.2,0.3,1.4,1.5,2.3,2c0.9,0.3,1.6-0.8,2.6-0.4
		c0.5,0.9-0.2,1.5-0.9,2.3c-2.3-2.1-4.4-1-6.6,0.8c-0.3-1.6,1.4-2,1.5-3.1C696.4,123.8,695.8,123.9,695.2,123.9L695.2,123.9z"/>
	<path fill="#FFFFFF" d="M747,351.7c-0.2,1.2-0.4,2.1-1.1,3.1c-1-0.5,0.3-1.8-0.9-2.2c-1.2-0.2-0.6,2.5-2.4,1.8
		c-0.7-1,0.7-1.9,0.4-3C744.3,351,745.6,351.2,747,351.7z"/>
	<path fill="#FFFFFF" d="M695.9,155.1c-2.5-2.9-2.5-2.9-1-5c1.2,0,1.6,0.9,2.3,1.9C696.5,152.9,695.7,153.8,695.9,155.1z"/>
	<path fill="#FFFFFF" d="M667.2,349.2c-0.3,2.8,1.7,5.7-0.3,9.1C666.7,354.9,666.3,352.1,667.2,349.2z"/>
	<path fill="#FFFFFF" d="M711.1,123.9c-0.6,2-1.9,3.3-4.1,4.5C707.6,125.7,709.4,124.9,711.1,123.9z"/>
	<path fill="#FFFFFF" d="M746.3,122.3c-0.9-0.9-0.8-1.8-0.7-2.7c0.7-0.1,1.5-0.2,2.6-0.3C747.8,120.5,747.3,121.3,746.3,122.3z"/>
	<path fill="#FFFFFF" d="M723.6,119.2c0.3-2.8,0.3-2.8,2.9-2.9C725.9,117.6,724.6,118,723.6,119.2z"/>
	<path fill="#FFFFFF" d="M772.6,650.6c1.8-1.8,3.2-1.5,4.4,0.6C775.4,651.6,774.1,650.9,772.6,650.6z"/>
	<path fill="#FFFFFF" d="M706.6,119.2c1-0.7,1.8-1.6,3.3-1.9C709.5,119.3,708.1,119.2,706.6,119.2z"/>
	<path fill="#FFFFFF" d="M716.9,466c-0.8-1.3-3.1-2-1.5-4.3C716.6,462.9,716.9,464.4,716.9,466L716.9,466z"/>
	<path fill="#FFFFFF" d="M676.6,649.3c1.6-0.5,3.1-1,4.6,0.4C679.7,649.6,678.1,649.5,676.6,649.3z"/>
	<path fill="#FFFFFF" d="M710.6,135.9c0.2-0.8,0.3-1.6,0.5-2.4c0.2-0.1,0.5-0.2,0.6-0.2C713.9,134.9,711,135.1,710.6,135.9z"/>
	<path fill="#FFFFFF" d="M698.8,137.7c-0.3,1.3-0.6,2.5-0.9,3.8c-0.4-1.4-0.9-2.8,0.1-4C698.3,137.6,698.6,137.6,698.8,137.7z"/>
	<path fill="#FFFFFF" d="M704.5,141.5c-0.4-1.6,0.5-2,1.6-2.6c0.1,0.6,0.2,0.9,0.1,1.2C706,140.8,705.5,141.3,704.5,141.5z"/>
	<path fill="#FFFFFF" d="M739.8,115.5c0.3-0.8,0.5-1.5,0.8-2.3c0.2,0,0.5,0,0.6,0.1C742.2,114.8,740.9,115.1,739.8,115.5z"/>
	<path fill="#FFFFFF" d="M728.5,125.1c1.3,0.1,2.4,0.4,3.4,1.4C730.3,126.8,729.4,126,728.5,125.1z"/>
	<path fill="#FFFFFF" d="M743,146.9c-1,1.6-1.9,0.4-2.7,0.5C741,146.7,741.8,146.6,743,146.9z"/>
	<path fill="#FFFFFF" d="M686.9,661.3c-1.1,0.3-1.7,0-2.2-0.8C685.6,660.1,686.4,659.9,686.9,661.3z"/>
	<path fill="#FFFFFF" d="M758.4,637.8c0.8-0.4,1.5-0.3,2.3,0C759.9,638.2,759.2,638.2,758.4,637.8z"/>
	<path fill="#FFFFFF" d="M688,663.7c-1,0.8-1.5,0.6-2,0.5C686.4,663.3,687,663.6,688,663.7z"/>
	<path fill="#FFFFFF" d="M730.7,202.6c-0.4-0.5-0.4-1,0-1.6C730.7,201.7,730.7,202.1,730.7,202.6z"/>
	<path fill="#FFFFFF" d="M724.5,123.9c0.4-0.6,0.8-0.5,1.2,0c0.2,0.3,0.3,0.6-0.1,0.7C725.1,124.8,724.5,124.7,724.5,123.9z"/>
	<path fill="#FFFFFF" d="M703.5,138.9c-0.6,0.8-1,1.2-1.9,1.1C701.6,138.7,702.3,138.6,703.5,138.9z"/>
	<path fill="#FFFFFF" d="M695.1,158.5c0.5,0.1,0.6,0.4,0.7,0.9C694.7,159.7,694.7,159.2,695.1,158.5z"/>
	<path fill="#FFFFFF" d="M703.4,152.2c0.9,0.8,0,1,0.3,2C702.8,153,703.1,152.7,703.4,152.2z"/>
	<path fill="#FFFFFF" d="M705.2,148.6c-0.2,0.8-0.1,1.3-0.8,1.4C704,149.4,704.4,149.1,705.2,148.6z"/>
	<path fill="#FFFFFF" d="M764.9,637.8c0.6-0.3,1-0.4,1.4-0.2C766.1,638.5,765.6,638.1,764.9,637.8z"/>
	<path fill="#FFFFFF" d="M705.7,137.5c0-0.9,0.5-1.5,0.7-1.3C707,136.8,706.3,137,705.7,137.5z"/>
	<path fill="#FFFFFF" d="M717.8,114c0.5,0.4,0.7,0.5,0.9,0.8c0,0.1-0.2,0.4-0.2,0.4C717.9,115.2,717.7,114.9,717.8,114z"/>
	<path fill="#FFFFFF" d="M737.4,126.8c0.7-0.7,0.9-0.1,1.2,0.4C738,127.5,737.6,127.5,737.4,126.8z"/>
	<path fill="#FFFFFF" d="M707.4,123.6c-0.2,0.2-0.4,0.4-0.7,0.6c-0.1-0.2-0.3-0.4-0.3-0.4c0.2-0.2,0.4-0.4,0.7-0.5
		C707.2,123.3,707.3,123.4,707.4,123.6z"/>
	<path fill="#FFFFFF" d="M702.1,118.6c-1.3,0.1-1.5-0.4-1.8-0.8C701.5,117.3,701.4,118,702.1,118.6z"/>
	<path fill="#FFFFFF" d="M763.2,491.3c-0.3-0.6-0.3-1.2,0.7-1.4C764.1,490.7,763.7,491,763.2,491.3z"/>
	<path fill="#FFFFFF" d="M378.9,463.4c1.8,1.7,1.6,4.2,2.2,6.4c0.7,2.6,1,5.4,2.6,8.4c-1.1-8.3-3.5-15.5-5.7-22.2
		c0.8-1.3,1.9-0.7,2.3-1.8c3.2,5.1,4.9,10.7,7.9,15.7c-1.4-5.2-3.6-10.1-6.2-14.9c-1.2-2.2-1.5-4.2-1.1-6.6
		c1.2-8.2,2.3-16.4,4.1-24.5c1.2-2.2,0.3-4.5,0.5-6.8c0.3-3.1,0.5-6.1,1.7-9.1c1-2.6,1.7-5.7,1-8.7c-0.4-1.7-0.6-3.5-0.5-5.3
		c0.3,4.7,1.4,9.4-0.7,14.2c-1.9-1.2-0.4-2.8-1.1-4.1c0.9,6-1,11.8-0.2,17.7c0.1,0.7-0.2,1.5-0.5,2.2c-2.8,3.9-4.6,8.4-5.7,12.9
		c-1.3,5.4-3.5,10.5-4.5,16s-1.6,11-1.8,16.5c-0.2,4.4-2.2,8.1-3.3,12.2c-17.9,2.2-35.6,2.1-53.6,3.1c0.3-1.3,0.5-2.4,0.7-3.4
		c0.7-4.4,1.3-8.7,0.2-13.2c-1.5-6.1-1.4-12.3-0.6-18.6c1.1-8.4,1.3-16.8,1.7-25.3c0-0.5,0.2-1.1,0.3-1.8c5,1.4,9.9,2.5,15.1,1.4
		c16.7-3.6,25.9-16.6,23.8-33.4c-1.3-11-7-20.4-16-26.6c0.9-3.5,1.9-7.2,2.8-10.8c-0.8-0.9-1.3,0.2-1.9,0l0.1,0.1
		c0-3.3,2.6-1.5,4.1-1.9c-0.3-1.8-1.2-1.6-2.4-1.2c-1.4,0.5-1.8-1.1-3-1.6c-1.2,3.5-3.5-0.7-5.2,0.8c-0.6-0.6,0.2-2.1-1.6-2.2
		c-1.3,1.4-0.4,3.8-2.3,5.4c-0.6-2.1-0.5-4.1-0.2-6.5c24.1,1.8,48.3,0.8,72.4,3.3c-0.2,1.2-0.4,2.3-0.6,3.5
		c-1.9,0.4-2.8-0.6-3.3-2.1c-0.9,0.2-0.7,1.4-1.4,1.7c-2.3,0.8-1.6-1.8-2.7-2.6c-0.6,1.1-0.4,2.1-0.2,3c0.8,1.3,2.5,1,3.7,1.9
		c-0.1,5,0,10.1,4.2,13.9c0.1,0.1,0.3,0.2,0.4,0.3c-0.1-0.2-0.2-0.3-0.3-0.5c-1.2-4.4-2.7-8.7-2.1-13.4c0.8-0.9,1.8-0.6,2.7-0.3
		c0.8,3.6,3.7,6.8,8,8.8c-1.7-3.2-4.7-5.3-5.6-8.6c1.8-1.3,3.4,0.2,5.2-0.4c0.4-1.3,0.9-2.7,1.3-4.2c1,0.7,0.1,1.9,0.9,2.6
		c0.6,0.4,0.8-0.2,1.5-0.3c-1.2,2.9,1.2,4.7,2.3,6.5c2,3.3,2,6.7,2.8,10.3c1.5-1,0.2-2.4,0.6-3.8c3.3,3.6,1.8,8.6,4.4,12.3
		c-7.8,15.3-2.2,28.5,6.8,41.9c-1.9,10.2,2,20.7,2.8,31.4c0.5,6.8,1.5,13.5,0.9,20.3c-0.4,4.3-0.7,8.6-1,13.2
		c-11.1-0.5-22.2,1.2-33.2,0.5c-5.4-0.3-10.6-2.4-15.9-3.6c-1.6-0.4-3.2-0.8-5-1.3C380.4,474.8,379.7,469.1,378.9,463.4L378.9,463.4
		z"/>
	<path fill="#FFFFFF" d="M330.9,344.2c1.3-7.4-0.1-14.7-0.2-22c3.5-1.6,6.8-1,10.1-0.8c3.2,0.2,6.4,0.3,9.6,0.1
		c-6.3-0.9-12.7-1.6-19.2-1c-0.3-5.4-0.2-10.5-0.4-15.5c-0.2-5.6-1.2-10.9-3.4-16.1c-1-2.5-0.3-4.1,1.7-4.7c-2.2-3.5,1-6.2,1-9.8
		c1.8,1.4,2.4,3,4.3,3.8c-0.6-2.4-1.9-4.2-3.2-6c0.9-4.7,1.6-9.6,1.2-14.6c1.1-0.7,2.5-0.9,3.3-2c2,1.6,3.9,3.2,6.6,3.1
		c-1.3-1.1-2.5-2.2-3.9-3.5c2.4-1.9,4.9-3.6,6.9-5.8s2.5-5.4,5-7c1.2-8.5,2.5-16.8,1.5-25.3c-1-8.4-4.2-16.3-5.4-24.7
		c0.6-1.2,1.6-1.7,2.4-1.8c4.2,17.2,8.7,34,18.9,48.5c0.6,0,0.6-0.3,0.7-0.6c0-0.2,0.1-0.4,0.3-0.8c3.7,3.1,8.2,4.1,12.5,5.2
		c8.3,2.1,15.8-2.1,19.3-9.9c4.5-10.2,2.9-20.4-0.2-30.6c-0.2-0.7-0.6-1.4-0.9-2.1c0-0.1,0.1-0.2,0.2-0.3c1.3,0.3,1.4,1.3,1.7,2.4
		c2.9,9.8,5.2,19.8,7.6,29.7c1.6,6.4,3.2,12.9,5.8,19c1.3,3,3.4,5.4,5.5,7.9c0.6,0.7,1.3,0,1.9,0.8c-1.2,2-2.4,4.1-3.7,6.3
		c-1.9-0.3-3.5,0.6-5,1.9c1.4,0.6,2.6-0.5,3.8,0.2c-3.7,16.4-2.9,33.1-4.8,49.7c-0.3,2.5-0.5,5.1-0.7,7.7c-1.5,0.9-3.3,0.6-5.2,1.5
		c1.9,0,3.3,0,5,0c-0.2,6.3,0.7,12.3,1,18.9C385.3,342.8,358.3,345.7,330.9,344.2z"/>
	<path fill="#FFFFFF" d="M304.4,369.5c-4.8-14.9-9.2-29.9-10.1-45.6c-0.3-4.7-0.3-9.3,0.8-14.1c1.4,1.4,1.1,3.8,3.1,5.1
		c-0.3-2.8-0.6-5.2-0.9-7.5c-0.5-4.1-0.9-8.2,0.3-12.2c1.4-4.8,0.4-9.7,0.8-14.6c0.3-2.8,0.3-5.7,0.2-8.6c2,3.6,2.3,7.5,2.5,11.5
		c0.5-3.2,1.3-6.3-0.7-9.5c-0.9-1.4-0.5-3.7-0.4-5.6c0.1-1.4-0.7-1.9-1.6-2.3c-0.2-3.7,0.5-7.2,2.1-10.4c1.4-2.9,2.9-5.8,3.8-8.8
		c1.1-3.4,0.5-7.1-0.2-10.5c-1.3-6.8,0-13.3,2.2-19.6c0.2-0.6,0.4-1.4,0.9-1.8c3.4-2.7,6.1-6.4,10.5-8c4.6-1.7,8.9-3.7,12.9-6.7
		c3.7-2.7,8.3-4.2,12.6-6.3c3.3,12.7,5.9,25.3,5.8,38.3c0,4.8-1.8,9.3-4.9,13.2c-2.2,2.8-5,5-8,7.5c-0.5-2.4-1.9-4.3-1.1-6.8
		c0.5-1.4-1.4-1.8-1.6-3.3c-3.1,4-3.5,8.5-3.1,12.9c0.3,3.5-0.3,6.8-0.7,10.2c-0.7,5.6-2.1,11.1-3.7,16.6c-1,3.5-3.1,6.4-5,9.4
		c-1.1,1.7-2.5,3.3-2.8,5.6c-0.9-2.4,0-4.8-0.1-7.6c-1.7,2.2-1.4,4.6-2.1,6.7c-2,6.5-1.3,12.8,0,19.3c1.1,5.8,1.4,11.7,1.8,17.6
		c0.3,3.9-1.5,7.4-1.7,11.1c-0.3,6-2.6,11.6-2.8,17.6c0,1.1-1.1,1.6-1.9,2C308.8,365.9,306.6,367.7,304.4,369.5z"/>
	<path fill="#FFFFFF" d="M424.5,299.1c-2.4-0.6-3-2.3-3.7-4.1c-1.7-4.9-3.5-9.9-3.2-15.1c0.3-5.8,2.1-11.3,5.4-16.2
		c3.5-5.1,5.5-10.9,6.4-17c0.6-4.2-0.8-8.4,0.1-12.6c0-0.2-0.4-0.5-0.6-0.8c-1.6,0.4-1.1,1.7-1.3,2.7c-0.8,6.6-1.4,13.3-4,19.5
		c-0.3,0.8-0.7,1.6-1,2.4c-2.8-0.3-3.1-2.9-4.1-4.4c-2.3-3.3-3.9-7-4.1-11.1c-0.1-2.1-0.6-4.2-1.4-6.2c-2.7-7-4-14.3-5.2-21.6
		c-0.6-3.4-1.8-6.6-3.1-10.2c2.6,0.4,4.3,2.2,6.5,3c4.6,1.7,9.8,2.4,13.9,5.3c11,7.8,15.6,18.3,13.3,31.8c-0.6,3.8,0.4,7.5,1.4,11.1
		c0.4,1.6,1.3,3.1,1.9,4.6c2.1,5.1,2.7,10.1,0.7,15.5c-1.8,4.9-0.1,10.1,0.2,15.1c0.2,4.4,1.2,8.8,2.8,13c1.3,3.5,1,7.2,1,10.9
		c0,3-0.8,6.3,2.1,8.6c0.2,0.2,0.2,0.6,0.3,0.9c0.1,7.9,3,15.5,1.8,23.5c-0.6,4-0.5,8.2,1.3,12.1c0.4,0.8,0.2,1.7-0.2,3
		c-3.9-0.1-7.5,1.6-11.2,2.4c-2.8-8.5-4.8-16.8-8.9-24.5c-3.4-6.5-3.4-13.9-3.9-21.1C427.5,312.7,424.7,306.2,424.5,299.1z"/>
	<path fill="#FFFFFF" d="M302.9,388.5c0-5.1,1-9.9,3.5-14.4c6.7-12.3,21.1-16.3,33.2-9.2c13.7,8,20.1,26,14.6,40.9
		c-5.5,14.8-21.8,20.5-35.3,12.2C309.1,412,302.9,400.4,302.9,388.5z"/>
	<path fill="#FFFFFF" d="M427.1,392.1c0-5,0.9-9.7,3.2-14.2c6.6-12.7,21.2-17,33.6-9.7c13.7,8,20.2,26.4,14.4,41.3
		c-5.6,14.4-21.7,19.9-35,12C433.5,415.5,427.1,404,427.1,392.1z"/>
	<path fill="#FFFFFF" d="M429.5,646c-1,1.4-3.4,1.3-3.6,3.7c1.4,1.4,2.9-0.1,4.3-0.1c3,3.4,6.7,2,10.7,1.6
		c2.8,5.5,9.6,8.3,11.5,14.6c-2.7,4.3-6.7,5.2-10.9,6.1c-5.9,1.3-11.7,1.2-17.5,0.3c-2.5-0.4-4.6-1.1-4.8-4.4c-0.2-2.2-3.2-4-6.2-4
		c-2.3,0-4.6-0.4-6.9-0.7c-5-0.8-8-3.9-10.7-7.9c1.7-2.2,2.4-4.7,1.8-7.5c-0.3-1.5,0.5-3,1.4-4c2.6-2.8,2.5-6.2,2.8-9.9
		c1.3,1.3,2.1,3,3.9,3.5c1.7,0.5,3.3-0.3,4.9-0.5c1.8-0.2,2.6-2,3.3-6.1c-0.5-1.3-2.1-2-2.1-3.9c4.6-0.2,9.2-0.4,13.6-0.6
		c1.7,2.2,0.7,4.9,2.5,7.1c-3.4,0-6.7-1.9-9.2,0.8c-0.6,0.9,0.4,1.4,0.1,2c-1.6,1-3.6-0.8-5.1,0.9c0.6,2.6,2.9,1.8,4.8,2.6
		c-0.6,0.9-2.1,0.8-2.3,2.5c1.9,2.2,4.7,0.5,7.2,1c0,0.8-1.3,1.1-0.8,2.5C424.2,648.1,427,645.9,429.5,646L429.5,646z"/>
	<path fill="#FFFFFF" d="M351.2,663.9c1.3,3.2,2.6,6.2,3.8,9c3.5,1.7,2.3,5.2,4.2,7.9c-11.8,1.1-22.9,4.8-33.6-1.6
		c-0.3-3-2.1-5.6-4.5-7.8c-3.2-2.7-3.8-8.9-0.8-12c1.6-1.6,2.2-3.3,1.3-5.4c-0.6-1.2-0.6-2.3-0.2-3.5c1-2.9-0.3-5.9,0.6-9
		c1.4,1.5,2.7,3.1,4.9,1.8c2.1-1.2,3.7-2.6,3.1-5.6c-0.3-1.5-0.3-3.3,0.5-5.2c3.7-0.8,7.6-1.8,11.2-2.3c1.1,0.6,0.1,1.4,0.7,1.9
		c1,0.1,1.1-1.4,2.4-1.2c0,4.5-2.3,8.6-2.3,13.2c-4,0-7.6,0.6-11.4,1.1c0.1,2.9-0.6,5.6,1.2,8.1c2.4,1.3,5.4,0.3,7.9,1.2
		c2.4,0.8,5.3-1.1,7.4,1.3c-4.6-0.1-9.1-0.8-14-0.2c1.3,1.9,1.6,2.2,3,3c0.8,1.3-0.7,2-0.6,3.6C340.5,664.8,345.6,664.7,351.2,663.9
		z"/>
	<path fill="#FFFFFF" d="M315.5,421c-0.2,2.7-0.4,5.1-0.6,7.7c-5.6,1.5-10.9,0.7-15.9-1.8c-14.3-7.1-21-26.7-14-41
		c3.4-6.9,8.8-11.6,17.5-12.5c-4.2,6.9-5.1,13.9-4.4,21.4c0.2,2.2-0.8,4.5-0.8,6.8c0,2.2,0.7,3.7,2.7,4.5c1.7,0.7,2.8,2,3.8,3.6
		C306.7,414.5,310.6,418.2,315.5,421z"/>
	<path fill="#FFFFFF" d="M417.4,293.8c4.5,8.5,6.1,17,6.1,25.9c0,8.4,2.7,16,6.5,23.2c3.9,7.4,6,15.2,7.7,23.5
		c-3.6,2.3-7.5,4.2-9.9,8.2c-2-2-2.8-4.6-3.7-6.8c-1.6-3.8-3.2-7.5-5.3-11c-1.1-1.8-1-3.8-0.8-5.8c0.3-2.3,0-4.3-2.6-5
		c-0.4-8.8-2-17.4-0.4-26C416.4,311.4,416,302.8,417.4,293.8z"/>
	<path fill="#FFFFFF" d="M325.4,290.5c1.7,10.4,2,20.7,2,30.9c0,6.1,0.4,12.2,0.4,18.3c0,1.4,1.3,2.1,1.1,3.6
		c-2.9,1.8-2.3,4.7-1.9,7.5c0.4,3,0.4,6-1.8,8.7c-3,0.3-5.9,1.8-9.2,2.5c-0.6-3.3-0.5-6.1,0.4-8.9c2-6.1,2.3-12.4,2.6-18.7
		c0.4-8.4-0.7-16.6-2-24.8c-0.4-2.4-0.1-4.9,0.1-7.3c0.1-1.4,0.6-2.5,1.7-3.7C321.3,296.3,323.2,293.3,325.4,290.5z"/>
	<path fill="#FFFFFF" d="M429.8,375.1c-1.9,4.6-3.9,9.1-4.1,14.2c-0.8,13.7,6.4,30.1,23.1,36.2c-1.9,0.4-3.1-0.3-4.2-0.8
		c-11.2-4.6-17.6-13.1-20-24.7c-1.7-8.1-0.9-15.9,3.5-23.1C428.5,376.3,428.7,375.3,429.8,375.1L429.8,375.1z"/>
	<path fill="#FFFFFF" d="M305.6,371.8c-2.5,5.4-4.1,10.9-4.4,16.9c-0.2,3.5,0.8,6.6,1.7,9.7c3.1,10.8,9.5,19,20.3,23.2
		c0.4,0.1,0.7,0.4,1.8,0.9c-3.6-0.3-6.1-1.4-8.5-2.8c-14.1-7.8-20.9-27-14.7-42C302.6,375.6,303.7,373.4,305.6,371.8L305.6,371.8z"
		/>
	<path fill="#FFFFFF" d="M302.6,430.3c-10.9-2.4-17.8-9.3-21.5-19.5s-2.7-19.9,4-28.7C276.3,404.5,281.8,419.5,302.6,430.3z"/>
	<path fill="#FFFFFF" d="M403.6,630c-0.6,0.1-0.8,0.6-1.4,0.2c0-2.3,2.5-3.6,2.1-5.9c6.3-2.4,15.4-3.1,16.7-1.4
		c-1.9,1.3-4,0.9-6,1.1c-2,0.2-4.3-0.6-5.9,1.6c-0.1,2.1,1.5,3.3,2.5,5.1c-0.4,1.1-0.8,2.4-1.3,3.8c-2.1-1.1-4.6,1-6.5-1.7
		C403.4,632.2,404,631.2,403.6,630z"/>
	<path fill="#FFFFFF" d="M342.3,353.1c-0.6,3.2-1.1,6.5-1.7,10.2c-3.6-1.5-6.9-2.9-10.4-3.5c0-4.2,3.5-5.6,6-8
		c0.5,0.5,0.1,1.7,1.2,2.4c0.7-0.6,0.5-1.7,0.9-2.5C340.2,350.5,341.3,351.9,342.3,353.1L342.3,353.1z"/>
	<path fill="#FFFFFF" d="M323.7,633.7c1.3-1.6,2.7-2,4.3-1.8c0.9,6.7,0.5,7.6-3.4,9.2c-1.8-0.5-1.1-2.5-2.4-3.7
		C324.4,636.8,323.8,635.2,323.7,633.7z"/>
	<path fill="#FFFFFF" d="M357.6,121.4c1,0.4,1.9-0.3,3-0.4c0.5,0.6,1.1,1.3,1.6,1.9c1.1,0.5,1.9-0.8,2.9-0.2c0.8,1-0.4,1.3-0.3,2.5
		c-2.7-2.1-5-1.1-7.3,0.5c0.2-1.5,1.4-1.9,1.7-2.9C359.2,121.8,357.6,122.3,357.6,121.4L357.6,121.4z"/>
	<path fill="#FFFFFF" d="M404.7,352.8c0.3-1,0.5-1.9,0.8-2.9c1.9-0.7,3.7,0.2,5.6,0c-0.1,1.3-1.4,0-1.8,1.1c-0.2,0.7,0,1.6-0.9,2
		c-1.3-0.2,0.2-1.4-0.7-1.8c-0.9-0.2-1.1,0.5-1.3,1.1C406.2,353,405.8,353.1,404.7,352.8z"/>
	<path fill="#FFFFFF" d="M296,286.4c0.4,3.6-0.3,6.7-1.2,10C294.1,293.2,294.5,290,296,286.4z"/>
	<path fill="#FFFFFF" d="M329.4,356.1c-0.3-3-0.7-6,0.1-8.9C329.6,350.2,331.1,353.2,329.4,356.1z"/>
	<path fill="#FFFFFF" d="M358.2,153.4c-1.2-1.6-3.2-2.9-0.9-4.9c1.2,0.1,1.7,1,2.3,1.8C359.3,151.4,357.7,151.9,358.2,153.4z"/>
	<path fill="#FFFFFF" d="M373.4,122.1c-0.3,2.1-1.9,3.2-3.8,4.6C369.9,123.9,372.1,123.3,373.4,122.1z"/>
	<path fill="#FFFFFF" d="M410.7,117.7c-0.6,1-1.1,1.8-1.7,2.8c-1.3-0.6-0.8-1.6-1.1-2.4C408.9,117.6,409.7,117.5,410.7,117.7z"/>
	<path fill="#FFFFFF" d="M361,135.8c0.2,1.4-0.4,2.7-0.6,4C359.7,138.4,359.4,136.9,361,135.8z"/>
	<path fill="#FFFFFF" d="M437.5,647.6c0.9,0.5,1.6,1.1,2.2,2.3c-1.5-0.3-2.8-0.6-4.4-0.9C435.7,647.9,436.6,647.9,437.5,647.6z"/>
	<path fill="#FFFFFF" d="M339.4,647.2c1.5,0,3-0.8,4.7,0.5C342.1,648.4,340.7,647.7,339.4,647.2z"/>
	<path fill="#FFFFFF" d="M388.9,115c-1,0.8-1.9,1.6-3,2.5C386.3,114.8,386.3,114.8,388.9,115z"/>
	<path fill="#FFFFFF" d="M301,405c-1.9-1.1-1.4-2.9-1.7-4.3C300.1,401.9,300.6,403.2,301,405z"/>
	<path fill="#FFFFFF" d="M390.7,123.4c1.4,0.1,2.5,0.5,3.5,1.5C392.8,124.9,391.6,124.4,390.7,123.4z"/>
	<path fill="#FFFFFF" d="M374.3,131.3c1,2-0.5,2.2-0.9,2.9C373.2,133.1,373,132.1,374.3,131.3z"/>
	<path fill="#FFFFFF" d="M331.8,253c0.9,1.3,2.6,1.8,0.7,3.2C331.7,255.5,331.7,254.6,331.8,253z"/>
	<path fill="#FFFFFF" d="M378.9,463.3c-0.5-0.1-1-0.3-1.5-0.4c-0.4-1.1,0.2-1.9,0.4-3.1C378.7,461.1,379.3,462.2,378.9,463.3
		L378.9,463.3z"/>
	<path fill="#FFFFFF" d="M372.6,115.5c-0.5,1.3-1,2.1-2.4,1.8C370.5,116.1,371.2,115.7,372.6,115.5z"/>
	<path fill="#FFFFFF" d="M403.8,111.8c0.5,1.3-0.3,1.7-1.6,2.5c0.2-1.2,0.5-2,1-2.8c0,0,0.2,0,0.3,0
		C403.6,111.6,403.7,111.7,403.8,111.8z"/>
	<path fill="#FFFFFF" d="M368.8,137.6c0.1,1.3-0.7,1.7-1.7,2.2C366.6,138.1,367.3,137.7,368.8,137.6z"/>
	<path fill="#FFFFFF" d="M420.7,636.4c0.7-0.7,1.1-0.6,1.5-0.3C421.8,637,421.5,636.3,420.7,636.4z"/>
	<path fill="#FFFFFF" d="M401.9,145.9c1.4-0.6,2.1-1.3,3.3-0.6C404.3,146.6,403.4,146,401.9,145.9z"/>
	<path fill="#FFFFFF" d="M365.9,137.2c-0.2,1.2-1.4,0.8-1.7,1.8c-0.2-0.4-0.4-0.6-0.3-0.8C364.1,137.3,364.5,136.5,365.9,137.2z"/>
	<path fill="#FFFFFF" d="M349.7,660.3c-1.3-0.5-1.9-0.8-2.6-1C348.4,658.6,348.4,658.6,349.7,660.3z"/>
	<path fill="#FFFFFF" d="M386.8,122c1.2-0.3,1.4,0.3,1.7,1.2C387.7,123.2,387.1,123.1,386.8,122z"/>
	<path fill="#FFFFFF" d="M427.1,636.9c0.6-1.3,1.2-1.3,1.8-1.1C428.6,637.1,427.9,636.3,427.1,636.9z"/>
	<path fill="#FFFFFF" d="M350.5,662.2c-0.8,0.7-1.3,0.6-1.8,0.2C349,661.5,349.5,661.7,350.5,662.2z"/>
	<path fill="#FFFFFF" d="M425.4,491.1c0-0.9-0.7-2,0.8-2.7C426.5,489.5,425,490.1,425.4,491.1L425.4,491.1z"/>
	<path fill="#FFFFFF" d="M361.3,153.8c-0.2,0.1-0.4,0.3-0.5,0.3c-0.4-0.1-0.4-0.4-0.2-0.7c0.1-0.1,0.4-0.2,0.5-0.2
		C361.2,153.3,361.2,153.6,361.3,153.8z"/>
	<path fill="#FFFFFF" d="M367.3,147.2c0.4,0.8-0.1,1.2-0.7,1.6C366.1,147.9,366.8,147.6,367.3,147.2z"/>
	<path fill="#FFFFFF" d="M429.5,646c0.5-0.1,1-0.2,1.5-0.3c0,0.1,0,0.2,0,0.3C430.6,646,430,646,429.5,646L429.5,646z"/>
	<path fill="#FFFFFF" d="M305.6,371.8c-0.1-0.8,0.4-1.1,1.3-1.7C306.5,371,306.4,371.6,305.6,371.8L305.6,371.8z"/>
	<path fill="#FFFFFF" d="M429.7,375.1c-0.1-0.8,0.4-1.1,1.3-1.7C430.7,374.3,430.6,375,429.7,375.1L429.7,375.1z"/>
	<path fill="#FFFFFF" d="M390.1,120.5c0.2,0.9-0.3,1.1-0.7,1.4C388.8,121,389.3,120.8,390.1,120.5z"/>
	<path fill="#FFFFFF" d="M362.8,116.3c0.9-0.8,1,0.1,2-0.1C363.4,117.3,363.3,116.6,362.8,116.3z"/>
	<path fill="#FFFFFF" d="M392.4,119.2c0-0.8,0.4-1.1,1.2-0.9C393.5,119,393.2,119.4,392.4,119.2z"/>
	<path d="M722.3,426.6c0.5-2.6,0.5-5.2-0.3-7.8c-0.6-1.9,0.8-3.8,0.7-5.9c-0.1-3.5,0-7,0.3-10.5c1.1,1.8,0.5,3.9,1.2,5.8
		c1.1-3.1,0.7-6.2,0.6-9.4c-0.1-3.1-0.7-6.1-1.3-9.2c1.2-0.1,1.2,0.7,1.4,1.4c1.7,7.7,2.3,15.4-0.6,23c-1.1,2.9-1,5.8-0.3,9.2
		C723.7,424.1,723,425.3,722.3,426.6L722.3,426.6z"/>
	<path d="M703.6,437.2c-0.6,2.3-2.1,4.1-3.4,6c-6.2,8.6-10.1,18.1-12.2,28.5c-0.2,0.8-0.2,1.8-1,2.7c-0.3-6,1.7-11.3,3.6-16.6
		c2.7-7.5,7.4-13.9,12.2-20.1C702.9,437.5,703.3,437.4,703.6,437.2L703.6,437.2z"/>
	<path d="M698.1,373.6c0.8-6.6-1.8-13.4,0.8-19.9C699.9,360.4,699.6,367,698.1,373.6z"/>
	<path d="M768.3,478.8c-5.2,0.9-7.3,0.1-7.5-2.9c-0.1-2.3,1.5-4,3.9-4C767.7,471.9,768.6,473.6,768.3,478.8z"/>
	<path d="M726.5,418.4c6.4,6.1,13.4,11.5,20.1,17.1C738.9,431,731.9,425.6,726.5,418.4z"/>
	<path d="M750.5,476.7c0.1,1.1,1.1,1.5,0.9,2.4c-1.9,0.6-1.9-1.9-3.4-2.1c-1.6-0.1-0.2,2.2-2,2.2c-0.8-2.2-0.3-4.5-0.3-7.2
		c2,0,4.1-0.8,5.6,1C752.5,474.5,751.4,475.7,750.5,476.7z"/>
	<path d="M756.2,479.4c-2.2,0.1-3.9-1.5-4-3.6s1.5-3.8,3.7-3.9c2.3-0.1,4.2,1.6,4.2,3.7C760.1,477.6,758.3,479.3,756.2,479.4z"/>
	<path d="M729.4,453.9c-5.5-10.2-7.6-16.6-6.4-19.6C724.1,441.2,728.1,447.1,729.4,453.9z"/>
	<path d="M705,370.1c-0.1-5-2.9-9.6-2.1-14.7c0.3-0.1,0.6-0.1,0.9-0.2c0.7,4.9,1.5,9.8,2.2,14.7C705.7,370,705.3,370,705,370.1z"/>
	<path d="M680.2,354.4c0.4,0.1,0.8,0.1,1.6,0.2c-1.1,3.9-2.1,7.7-3.1,11.4C678.3,362,679.3,358.1,680.2,354.4L680.2,354.4z"/>
	<path d="M707.9,461.7c-0.2-3.7,0.9-7.2,2-10.7C710.5,454.8,709.3,458.3,707.9,461.7z"/>
	<path d="M748.2,375.4c1.3,3.4,2.7,6.8,4,10.2C750.1,382.6,748,379.5,748.2,375.4z"/>
	<path d="M723.4,355.3c0,4.1,0,8.3,0,12.4C723,363.6,722.5,359.5,723.4,355.3z"/>
	<path d="M666.6,451.3c-1.3-3.1-2.4-6.2-1.4-9.6C664.9,445,666.6,448.1,666.6,451.3z"/>
	<path d="M690.7,353.6c1.8-0.5,3.5-1.5,5.7-0.8C694.4,353.9,692.6,354.3,690.7,353.6z"/>
	<path d="M661.9,472.7c0,1.8,0,3.5,0,5.3c-0.1,0-0.1,0-0.2,0c0-1.8,0-3.6,0-5.5C661.8,472.6,661.9,472.7,661.9,472.7z"/>
	<path d="M705.3,353.8c2,0,3.6,0,6,0C708.2,354.8,708.2,354.8,705.3,353.8z"/>
	<path d="M718.4,421.4c-0.8,0.9-1.6,1.7-3.2,2.2c0.9-1.2,1.7-2.1,2.8-2.6c0.2-0.1,0.4-0.1,0.6-0.2
		C718.6,421,718.5,421.2,718.4,421.4z"/>
	<path d="M728.7,353.7c-0.5-0.9-0.7-1.6,0.5-2.1C729.9,352.5,729.6,353.1,728.7,353.7z"/>
	<path d="M734.3,401.2c-1.3,0.2-2.1-0.5-3-1.3C732.5,399.8,733.6,400.1,734.3,401.2L734.3,401.2z"/>
	<path d="M724.9,353.4c-0.6-0.7-0.7-1.3,0.2-1.9c0.8,0.1,0.6,0.7,0.6,1.1C725.6,353,725.5,353.5,724.9,353.4z"/>
	<path d="M734.2,401.2c0.8-0.1,1.7-0.2,2.2,1C735.5,402,734.7,402.1,734.2,401.2L734.2,401.2z"/>
	<path d="M707.5,464.1c-0.1,0.4-0.1,0.8-0.2,1.3C706.7,464.9,707,464.5,707.5,464.1z"/>
	<path d="M703.5,437.2c-0.1-0.8,0.4-1.4,1.3-2.1C704.8,436.3,704.4,436.9,703.5,437.2L703.5,437.2z"/>
	<path d="M718,421c0.5-0.6,1-1.2,1.9-1.1c0.2,1.2-0.8,1.2-1.5,1.6C718.3,421.3,718.2,421.1,718,421z"/>
	<path d="M722.8,352.8c-0.5,0.4-0.9,0.3-1.4-0.3C722,351.6,722.4,352.3,722.8,352.8z"/>
	<path d="M662.4,469.6c0-0.2,0-0.4,0-0.6h0.1c0,0.2,0,0.3,0,0.5C662.5,469.5,662.5,469.5,662.4,469.6z"/>
	<path d="M663.3,465.7c0,0.2,0,0.4-0.1,0.7c-0.1-0.2-0.1-0.3-0.1-0.5C663.1,465.6,663.2,465.5,663.3,465.7z"/>
	<path d="M784.2,238.4c-3.2,2.1-9.9,1.2-12.4-1.7C776.4,236,780.3,237,784.2,238.4z"/>
	<path d="M726.2,325.5c0.2-4.2-1.2-8.5,1.1-12.5C727.5,317.2,729.5,321.6,726.2,325.5z"/>
	<path d="M671.6,266.4c1.4,3.2,3.3,5.8,6.9,7.6C673,273.6,670.3,270.6,671.6,266.4z"/>
	<path d="M725.8,334.2c-1.8,2.3-1.6,5.4-3.2,7.7c-0.2-0.1-0.4-0.1-0.7-0.2c1.2-3.9,2.4-7.8,3.6-11.7
		C726.2,331.5,725.2,332.9,725.8,334.2L725.8,334.2z"/>
	<path d="M727,309.5c0-4.1,0-8.1,0-12.2c0.3,0,0.6,0,0.8,0C728.3,301.4,727.5,305.4,727,309.5z"/>
	<path d="M735.8,255.6c3,0,6,0,9.5-0.9C742.2,256.9,738.7,257.3,735.8,255.6z"/>
	<path d="M737.3,307.2c-3.9,1.5-5.3,1.5-8.5-0.5c1.6-0.8,2.9-0.1,4.2,0.1C734.3,307,735.6,307.1,737.3,307.2z"/>
	<path d="M725.7,334.3c1,3.5,0.8,7-0.3,10.4C724.1,341.1,726,337.7,725.7,334.3L725.7,334.3z"/>
	<path d="M723.4,305.8c-3,1-5.6-0.2-8.3-1.1C717.8,304.9,720.7,304.3,723.4,305.8z"/>
	<path d="M787.5,237.9c2.5-1.9,5.6-1.9,7.5-4.5C794.6,236.1,792.8,237.2,787.5,237.9z"/>
	<path d="M728.6,276.5c0.3,2.2,0.8,4.4-0.9,6.8C726.6,280.6,728.3,278.6,728.6,276.5z"/>
	<path d="M671.8,279.8c-1.6-1.3-3.8-2.3-3.2-5.4C670.6,275.9,670.9,277.9,671.8,279.8z"/>
	<path d="M728.9,271.9c0.1-1.4,0.2-2.7,0.2-4.1C730.5,269.2,730.6,270.7,728.9,271.9z"/>
	<path d="M804.8,230.6c-2,0.3-3.6-0.6-5-1.6C801.8,228.4,803.1,230.2,804.8,230.6z"/>
	<path d="M718.2,317.4c1.2-0.4,2.4-0.5,3.9,0.3C720.5,319,719.4,317.9,718.2,317.4z"/>
	<path d="M676.9,325.5c-1.1,0-2.2,0-3.2,0v-0.1c1,0,2.1,0,3.1,0C676.8,325.4,676.8,325.4,676.9,325.5z"/>
	<path d="M708.4,306c-1.4,0.7-2.5,0.6-3.4-0.7C706.4,304.9,707.4,304.8,708.4,306z"/>
	<path d="M743,207.5c-0.7,0.9-1.5,1-2.7,0.9C740.9,206.9,742.1,207.6,743,207.5z"/>
	<path d="M766.8,235.9c0.9-0.4,1.9-0.7,3.4-0.1C768.9,236.4,767.9,236.2,766.8,235.9z"/>
	<path d="M672.7,282.4c0.9,0.4,1.5,0.9,1.7,2C673.3,284,672.4,283.7,672.7,282.4z"/>
	<path d="M679,275c1.4-0.2,1.9,0.6,2.5,1.1c-0.2,0.8-0.6,0.8-1,0.6C679.8,276.4,679.1,276.1,679,275z"/>
	<path d="M805.1,238c-0.8,0.5-1.4,0.8-2.6,0.4C803.4,237.6,804.1,237.6,805.1,238z"/>
	<path d="M706.8,253.5c-0.9,0.6-1.4,0.4-1.8-0.2C705.5,253,706,253,706.8,253.5z"/>
	<path d="M683.2,276.3c1,0.1,1.7,0.5,1.8,1.6C683.8,277.9,683.1,277.6,683.2,276.3z"/>
	<path d="M728.6,295.1c-0.4-0.6-0.5-1.2,0.1-1.9C729.1,293.8,729.1,294.4,728.6,295.1z"/>
	<path d="M741.7,306.8c-0.7,0.6-1.2,0.6-2,0C740.4,306.2,740.9,306.1,741.7,306.8z"/>
	<path d="M697.2,251.1c0.9-0.5,1.2,0.1,1.5,0.7C697.8,252.3,697.4,251.9,697.2,251.1z"/>
	<path d="M753.4,254.7c-0.8,0.6-1.2,0.4-1.7,0C752.2,253.7,752.8,254.1,753.4,254.7z"/>
	<path d="M662.9,224.9c-0.4-2.5-2-4.2-1.1-6.4c1.1-0.2,1.3,0.5,1.4,1.1c1.3,6.6,6.3,10,11.3,13.4c1.9,1.3,3.6,2.9,5.4,4.4
		c0.6,0.6,1.4,1.1,0.9,2.5c-1.3,0.3-2.1-0.7-3-1.4c-2.8-2.1-5.2-4.6-7.9-6.6c-4.1-2.9-8-6.3-13-7.8c-1.1-0.3-2.3-0.7-3.2-2.1
		C657,222.2,659.7,223.9,662.9,224.9z"/>
	<path d="M647,200.1c4.6,5.2,9.6,9.9,15.6,12.8c0.4,2.1-0.7,3.2-0.8,5.4c-2.1-3-4.6-4.6-6.2-6.7c-2.7-3.4-6.2-6-8.5-9.7
		C646.8,201.3,647,200.7,647,200.1L647,200.1z"/>
	<path d="M653,218.5c-3.5,2.8-13.7,2.3-18.4-0.6C641,218,647,218.6,653,218.5z"/>
	<path d="M633.6,218c-6.1-0.8-12.3,1.2-18.7-1.6c1-0.1,1.6-0.3,2-0.2c3.4,1,6.7,0.2,10.1-0.3C629.3,215.5,631.8,216,633.6,218z"/>
	<path d="M654.1,228.9c-1.9,2.3-4.3,3.7-7.2,4.4C649.2,231.5,651.3,229.7,654.1,228.9L654.1,228.9z"/>
	<path d="M603.9,196.2c1.1-1.7,2.5-2.7,5-2.6C607.4,195.4,605.6,195.7,603.9,196.2z"/>
	<path d="M600.9,195.6c0.2-1.3,0.5-2.7,0.8-4C602.9,193.2,602.3,194.4,600.9,195.6z"/>
	<path d="M590.6,213.4c-1.8,0.4-3.3-0.5-5.2-1.6C587.7,211.7,589.1,212.7,590.6,213.4z"/>
	<path d="M641.8,225.5c1.2-1.4,2.5-1.2,3.7-1.4C644.6,225.1,643.6,225.5,641.8,225.5z"/>
	<path d="M572.3,175.1c1.2,0.8,1.1,1.7,1.2,3.1C572.6,177,572.1,176.3,572.3,175.1z"/>
	<path d="M652.6,221.9c-0.5,1.1-1.2,1.1-2.3,0.7C650.9,221.6,651.6,221.4,652.6,221.9z"/>
	<path d="M603.4,198.1c0.1,1.3-0.7,1.4-1.5,1.7C601.8,198.7,602.4,198.4,603.4,198.1z"/>
	<path d="M669.3,239c-1.1-0.7-1.2-1.4-1-2.3C669.4,237.1,669.2,238,669.3,239z"/>
	<path d="M570.6,171.2c1,0.3,0.9,0.8,0.8,1.3C570.3,172.6,570.5,172,570.6,171.2z"/>
	<path d="M647.1,200c-0.9,0.1-1.7,0.1-2.2-0.8C646.1,198.1,646.3,199.9,647.1,200L647.1,200z"/>
	<path d="M578.6,206.9c-1.2-0.3-1.6-0.4-1.7-1C577.6,205.5,577.8,206.1,578.6,206.9z"/>
	<path d="M654.2,228.9c-0.2-0.9,0.6-0.5,1-1.5C655.1,228.9,654.7,229,654.2,228.9L654.2,228.9z"/>
	<path d="M594.7,170.1c-1.8,1.5-3.7,0.7-5.6,0.1c-6-1.8-9.7-6.3-12.3-11.5c-6-11.7-6.5-23.8-2.1-36.1c0.9-2.6,2.5-4.9,4.1-7.2
		c3.8-5.4,11.4-5,15.7-2.1c6.3,4.3,9.1,10.5,11.3,17.3c-1.7-1.9-2.3-4.4-3.4-6.6c-2.5-5.2-6.2-9.2-11.9-10.8
		c-4.2-1.2-7.9,0-10.8,3.4c-3.3,3.9-5,8.6-5.8,13.6c-1.6,10.4-0.6,20.3,4.9,29.6C582.4,166,587.3,170,594.7,170.1L594.7,170.1z"/>
	<path d="M595.9,130.5c5.5,2.2,7.5,11,3.5,15.4c-2,2.2-6.4,2.3-8.3,0c-0.3-0.4,0-0.8,0.3-1.1c0.1,0.1,0.2,0.1,0.2,0.1
		c0.1,0,0,0-0.1-0.2c-2.2-3.5-3.6-7.1-2-11.2c1.1-3,3-3.8,6.2-3H595.9z"/>
	<path d="M608,146.6c-0.2-0.9-0.3-1.9-0.5-2.8c-0.1-0.4-0.1-0.9,0.5-1.3c1.3,1.3,0.4,2.8,0.7,4.1C608.5,146.6,608.3,146.6,608,146.6
		z"/>
	<path d="M607.6,135.9c0.7,1.5,1.2,2.2,0.9,3.5C607.3,138.7,607.5,137.7,607.6,135.9z"/>
	<path d="M606.4,132.4c0.7,0.7,1.2,1.4,0.7,2.4C605.9,134.2,606.2,133.2,606.4,132.4z"/>
	<path d="M597.6,169.7c0-1.7,1.2-1.5,2.7-1.7C599.3,169.1,598.5,169.5,597.6,169.7L597.6,169.7z"/>
	<path d="M595.9,130.5h-0.2c-0.1-0.4-0.1-0.8-0.2-1.2C596.4,129.5,596.8,129.8,595.9,130.5z"/>
	<path d="M594.8,170.2c0.7-1.7,1.9-0.2,2.8-0.6h-0.1C596.6,169.8,595.8,170.5,594.8,170.2L594.8,170.2z"/>
	<path d="M889.7,169.7c-3.4-1.2-6.9-2.5-10.6-1.6c-3.7,0.9-5.9,3.2-6.6,7.1c-0.6,3.5-0.3,6.9,0.7,10.2c2.5,8.6,7.1,15.7,14.7,20.7
		c5.8,3.8,9,4.3,15.6,2.7c-3,2.1-6.3,1.8-9.6,1.1c-3.7-0.9-7.1-2.7-9.9-5.3c-7.8-7.2-13-15.7-13-26.7c0-8.6,5.1-12.6,13.5-10.8
		c1.9,0.4,3.9,1,5.4,2.3c0.1,0.2,0.1,0.4,0.2,0.5C890,169.8,889.9,169.7,889.7,169.7z"/>
	<path d="M895.9,190.7c-0.8,0.3-1.8-0.1-2.3,1c-0.7-0.7-1.5-1.2-2.4-1.7c-2.1-1-3.5-2.7-4.4-4.8c-0.8-2-1.1-4.1,0.8-5.8
		c1.3-1.1,5.5-1,6.8,0.3c0.9,0.8,1.9,1.5,2.2,2.8c0.1,0.5,0.4,1,0.5,1.6c0.5,2,0.7,4-0.5,5.8C896.4,190.2,896.1,190.5,895.9,190.7z"
		/>
	<path d="M896.6,184.4c0-0.6,0-1.2,0-1.8c1.6,1.7,2.3,3.7,1.6,6c-0.3,1.1-0.7,2.4-2.4,2.2c0-0.1,0-0.3,0-0.4
		C897.3,188.5,897.1,186.5,896.6,184.4z"/>
	<path d="M891.9,170.8c1,0.2,1.7,0.7,2.3,1.9C893,172.3,892.2,171.9,891.9,170.8L891.9,170.8z"/>
	<path d="M892,170.8c-0.9-0.2-1.7-0.3-2.3-1.1c0.1-0.1,0.2-0.2,0.3-0.4C891,169.4,891.4,170.2,892,170.8L892,170.8z"/>
	<path d="M898.2,175.9c0.3,0.2,0.9,0.3,0.7,0.9C898.4,176.8,898.2,176.5,898.2,175.9z"/>
	<path d="M903.8,183.5c0.8,0.4,1,0.9,1.2,1.5C903.8,184.9,904,184.3,903.8,183.5z"/>
	<path d="M557.5,147.7c-1.2-2.3-0.2-4.5-0.3-6.8c0-2.2,1-4.2,0.9-6.4C559.9,139.1,557.3,143.3,557.5,147.7z"/>
	<path d="M555.3,146.7c-0.6,0.9-1.1,0.9-1.8-0.2C554.2,146.3,554.7,145.8,555.3,146.7z"/>
	<path d="M385.1,424c0.1-2.3,0.1-4.6-0.5-6.9c-0.6-1.9,0.6-3.6,0.6-5.5c0-3.9,0.4-7.8,1.1-11.6c0,2.3,0,4.6,0,7
		c1.3-2.7,1.5-4.8,1.1-9.2c-0.3-3.2-0.7-6.4-1.1-9.5c1-0.1,0.9,0.6,1,1.1c1.8,7.6,2.4,15.1-0.2,22.7c-1,2.9-1.4,5.7-0.5,8.7
		C386.9,422,385.8,422.9,385.1,424L385.1,424z"/>
	<path d="M364.5,438.1c-2.2,4.7-5.8,8.6-8,13.4c-2.7,6.1-5,12.3-6.2,18.9c-0.2,0.9-0.2,1.8-1.3,2.7c1.2-13.7,6.6-25.2,15-35.4
		c0.2-0.1,0.4-0.1,0.6-0.2C364.6,437.7,364.6,437.9,364.5,438.1z"/>
	<path d="M431,478.8c-5.3,0.9-7.3,0-7.4-3c-0.1-2.3,1.6-4,3.9-3.9C430.5,471.9,431.4,473.7,431,478.8z"/>
	<path d="M361.9,352c0.2,6.7,0.1,13.3-1.3,19.9c0.2-6.6-1.4-13.3-0.1-20C361,352,361.4,352,361.9,352z"/>
	<path d="M418.7,479.4c-2.2-0.1-3.9-1.9-3.8-4.1c0.1-2,1.9-3.5,4.1-3.5c2.1,0,3.9,1.7,3.9,3.7C422.9,477.6,421,479.4,418.7,479.4z"
		/>
	<path d="M388.8,416.6c6.6,6.1,13.6,11.7,20.5,17.4C401.5,429.4,394.3,424,388.8,416.6z"/>
	<path d="M408.7,479.2c-0.8-2.2-0.3-4.6-0.3-7.2c2,0.1,4.1-0.8,5.6,1c1.2,1.5,0.1,2.6-0.8,3.8c0.4,0.8,0.8,1.5,1.2,2.3
		c-2.1,0.6-2.1-1.9-3.6-2.1C409.2,476.9,410.5,479.2,408.7,479.2z"/>
	<path d="M392.3,453.6c-4.9-8.2-8.2-18.4-7-20.7C386.7,439.9,390.7,446,392.3,453.6z"/>
	<path d="M366.3,353.6c0.7,4.9,1.4,9.7,2.1,14.6c-0.3,0-0.5,0.1-0.8,0.1c-0.5-4.9-2.9-9.5-2.5-14.5
		C365.5,353.7,365.9,353.7,366.3,353.6z"/>
	<path d="M369.9,461.5c0.2-4.1,1.1-8.1,2.4-12C372.9,453.7,371.5,457.6,369.9,461.5z"/>
	<path d="M385.5,362.4c-0.2-3-0.8-6.2,0.5-9.2C385.7,356.2,385.8,359.3,385.5,362.4z"/>
	<path d="M327.3,440.6c0.7,3.2,1.3,5.8,1.9,8.4C327.8,446.5,326.7,444,327.3,440.6z"/>
	<path d="M372.9,352.8c-1.7,0.3-3.4,0.7-5.6-1c2.4,0.1,4,0.2,5.7,0.3C372.9,352.3,372.9,352.6,372.9,352.8z"/>
	<path d="M413.2,380.7c-1.9-1.8-2.8-4-2.4-6.7C411.6,376.2,412.4,378.5,413.2,380.7z"/>
	<path d="M358.5,351.2c-1.8,0.3-3.4,1.9-5.7,0.8C354.7,350.7,356.6,351.1,358.5,351.2z"/>
	<path d="M382.8,418.6c-1.4,1.1-2.9,2.1-4.3,3.2c0.8-1.8,2.1-3,3.8-3.8C382.5,418.2,382.7,418.4,382.8,418.6z"/>
	<path d="M393.9,397.8c1.5,0.7,3.1,1.4,4.6,2.2C396.7,399.9,395,399.5,393.9,397.8z"/>
	<path d="M364.1,437.7c1-1.5,1.9-2.9,2.9-4.4c0.2,0.1,0.4,0.2,0.6,0.4c-1,1.5-1.7,3.1-3,4.4C364.4,438,364.2,437.8,364.1,437.7z"/>
	<path d="M387.8,349.9c0.9,0.8,0.2,1.3-0.2,1.9c-0.9-0.6-0.7-1.2-0.4-1.8C387.4,350,387.6,349.9,387.8,349.9z"/>
	<path d="M391.9,350.2c0.1,0.7-0.1,1.2-0.5,1.7c-0.8-0.8-0.7-1.4-0.1-2C391.5,350.1,391.7,350.1,391.9,350.2z"/>
	<path d="M324.4,470.2c0.1-0.4,0.1-0.8,0.2-1.1l0.1,0.1c0,0.3,0,0.7,0,1C324.6,470.2,324.5,470.2,324.4,470.2z"/>
	<path d="M323.9,474.7c0-0.4,0.1-0.7,0.2-1.6C324,474.1,324.3,474.4,323.9,474.7z"/>
	<path d="M325.9,463C326,462.6,325.9,462.8,325.9,463C325.9,462.8,325.9,462.6,325.9,463z"/>
	<path d="M385,351.1c-0.5,0.3-0.9,0.2-1.1-0.2C384.5,350,384.8,350.7,385,351.1z"/>
	<path d="M403.8,368.4c0.6,0.4,1.1,0.9,1,1.8c-0.8-0.4-1.1-1-1.1-1.7L403.8,368.4z"/>
	<path d="M325.4,465.5c0,0.4-0.1,0.6-0.1,0.8c-0.1-0.2-0.1-0.3-0.1-0.4S325.3,465.7,325.4,465.5z"/>
	<path d="M388.3,323.7c0.6-4.1-1-8.4,1-12.4C391.3,314.4,390.8,322,388.3,323.7z"/>
	<path d="M340.8,273c-2.9-0.9-5.8-1.6-7.1-4.8c-0.4-1-1.4-2.1,0.4-3.7C335.3,268.3,338.4,270.5,340.8,273L340.8,273z"/>
	<path d="M390.4,295.6c0,4,0.1,8.1-0.9,12c0-4,0-8.1,0-12.1C389.8,295.6,390.1,295.6,390.4,295.6z"/>
	<path d="M384.3,340c1.2-3.8,2.4-7.6,3.6-11.4c0.1,4.2-1.3,7.9-2.8,11.6C384.8,340.2,384.5,340.1,384.3,340z"/>
	<path d="M388.7,333.4c0.1,3.2,0.2,6.5-0.6,9.9C386.9,341.2,387.1,338.3,388.7,333.4z"/>
	<path d="M380,261.5c2.4-1.1,3-3.7,4.5-5.7C386.2,258.4,384.6,260.4,380,261.5z"/>
	<path d="M377.6,303.3c2.7,0,5.6-0.8,8.2,0.9C382.9,305.6,380.3,303.6,377.6,303.3z"/>
	<path d="M390.1,281.1c-0.6-2.3,0.4-4.2,1-6.2C391.5,277.1,391.6,279.3,390.1,281.1z"/>
	<path d="M391.3,304.9c2.5-0.3,4.7,0.3,7.1,0.8C395.2,307,393.6,306.8,391.3,304.9z"/>
	<path d="M346.3,260.5c1.6,0.2,2.5,1.3,4,2C347.5,262.9,347.4,262.9,346.3,260.5z"/>
	<path d="M384.4,316.4c-1.4,1.2-2.5-0.5-3.6-0.1C382.2,315.4,382.2,315.4,384.4,316.4z"/>
	<path d="M367.2,304.1c1.5-0.9,2.5-0.5,3.8-0.1C369.6,305.5,368.6,304.6,367.2,304.1z"/>
	<path d="M340.8,273.1c1.4-0.1,2.5,0.3,3.2,1.8C342.1,275.4,341.6,274,340.8,273.1L340.8,273.1z"/>
	<path d="M355.8,264.6c-1.3,0.4-2,0.1-2.6-0.7C354.3,263.3,355,263.6,355.8,264.6z"/>
	<path d="M341.4,324.1c-0.6,0-1.3,0-1.9,0c0-0.1,0-0.1,0-0.2C340.1,324,340.8,324,341.4,324.1L341.4,324.1z"/>
	<path d="M404.2,305.1c-0.7,0.7-1.3,0.7-2-0.1C402.9,304.3,403.4,304.4,404.2,305.1z"/>
	<path d="M406.5,266.7c-1.3,0.8-2.1,0.4-3.2-0.6C404.7,265.9,405.5,266.1,406.5,266.7z"/>
	<path d="M336.7,282.4c-1-0.1-1.7-0.5-1.8-1.8C335.9,281,336.3,281.7,336.7,282.4z"/>
	<path d="M345,274.7c1.7-0.1,2.2,0.6,2.6,1.5C346.4,276.5,345.9,275.7,345,274.7z"/>
	<path d="M412.1,266.1c-1.2,1-1.9,0.4-2.8-0.2C410.3,265.5,411,265.5,412.1,266.1z"/>
	<path d="M391.1,291.8c0.5,0.4,0.5,0.9,0.3,1.4C390.4,292.9,390.9,292.3,391.1,291.8z"/>
	<path d="M335.2,323.5C335.6,323.5,335.4,323.5,335.2,323.5C335.4,323.4,335.6,323.4,335.2,323.5z"/>
	<path d="M363.6,265.3c-0.5,0.6-1,0.6-1.6,0.2C362.4,264.4,363,264.8,363.6,265.3z"/>
	<path d="M332.3,235.7c-0.2,5.1-12.7,15.8-17,15.3c2.7-2.7,5.8-5,9.1-7C327.8,242,329.7,238.5,332.3,235.7z"/>
	<path d="M320.8,212.5c2.5-6.6,5.4-9.1,9-8C327,207.6,322.3,208.3,320.8,212.5z"/>
	<path d="M299.4,316.1c-0.5,5.2,0,10.3,0.3,15.8C297.5,328.9,297.3,319.3,299.4,316.1z"/>
	<path d="M322.6,262.1c0-4.4,1.2-8.4,3.4-11.6C324.7,254.3,323.8,258.3,322.6,262.1z"/>
	<path d="M312.6,305.4c-1.5-1.8-1.3-3.9-1.3-5.9C312.6,301.3,313.1,303.2,312.6,305.4z"/>
	<path d="M307.3,251.3c-0.6-1.3-1.2-2.7-0.8-4.3C307.4,248.3,307.9,249.7,307.3,251.3z"/>
	<path d="M299.9,336.8c1.5,1.2,1.2,2.9,1.5,4.4C300.2,340,300.2,338.3,299.9,336.8z"/>
	<path d="M310.1,293.9c-1-1.4-1.4-2.3-0.5-3.5C310.6,291.3,310.4,292.4,310.1,293.9z"/>
	<path d="M317.8,218.3c-0.3-1.2-0.6-2.5,0.9-3.5C319.5,216.3,318.3,217.2,317.8,218.3z"/>
	<path d="M312.9,252.7c0.6,0.7,0.1,1.1-0.5,1.6C312,253.5,312,253,312.9,252.7z"/>
	<path d="M312.6,269.6c-0.5,0-0.8-0.3-0.7-0.7c0-0.4,0.4-0.5,0.6-0.3C312.9,268.9,312.8,269.3,312.6,269.6z"/>
	<path d="M440.1,314.3c-0.9-2.9-5-4.8-2.9-9.3c-0.1-1.2-3-2.4-1.6-4.8C438.7,301.8,441.2,309,440.1,314.3z"/>
	<path d="M437.3,287.7c0.4,6.3-3.8,13.9-8.6,12.1c5.4-2,6.8-6.2,7.2-11.1C436,288.2,436.4,287.5,437.3,287.7z"/>
	<path d="M435.8,255.7c0,3.3,0,6.6,0,9.9C433.8,262.3,435.6,258.9,435.8,255.7z"/>
	<path d="M434.6,246c0.3-2.3,0-4.7,2-6.7c-0.4,2.3-0.8,4.6-1.2,6.9C435.2,246.1,434.9,246,434.6,246z"/>
	<path d="M439.8,315.4c2.3,1.4,0.7,3.8,1.8,5.5C439.2,319.7,440.6,317.1,439.8,315.4z"/>
	<path d="M439,281.7c0.2,1.9-0.2,3.5-1.5,5C437.2,284.1,437.2,283.9,439,281.7z"/>
	<path d="M439.4,278.6c-0.3-1.9-0.3-1.9,0.7-3.3C440.2,277.2,440.2,277.2,439.4,278.6z"/>
	<path d="M447,351.2c-0.5-0.6-1.3-1.3-0.9-2.5C446.5,349.6,446.7,350.4,447,351.2z"/>
	<path d="M433.5,246.6c0.2,0.8,0,1.1-0.6,1.1C432.4,247.1,432.6,246.8,433.5,246.6z"/>
	<path d="M309.6,373.8c-2,4.8-3.7,9.7-3.6,15.1c0.2,13.1,11.3,26.5,24.1,28.8c8.3,1.5,13.2-1.1,18.8-8.5c1.9-2.5,3.6-5.4,4.2-9
		c0.8,1.4,0.4,2.3,0,3.2c-2,5.2-5,9.7-9.4,13.1s-9.4,3.7-14.6,2.6c-16.1-3.6-30.6-23.3-21.5-42.9C308,375.3,308.3,374.1,309.6,373.8
		L309.6,373.8z"/>
	<path d="M339.1,383.6c3.3,3.8,3.5,7.2,0.8,12c-1,0.6-2.4,0.4-3.6,1c-3.3,1.5-6.1,0.6-8.3-2.1c-2.3-3-2.6-7.2-0.7-10
		c1.7-2.5,4.6-3.2,8.3-2c0.2,0.1,0.4,0.1,0.7,0.1C337.6,382.1,337.9,383.9,339.1,383.6z"/>
	<path d="M339.1,383.6c-1.4,0.9-1.9-0.4-2.7-1c-3.1-2.6-5.9-2.1-10.7,2.1c0.8-3.2,3.2-4,5.4-4.6
		C334.6,379.1,337.1,380.9,339.1,383.6z"/>
	<path d="M317.9,366.5c-0.4,0.6-0.7,0.7-1,0.3C317,366.5,317.2,366.3,317.9,366.5z"/>
	<path d="M309.6,373.9c-0.2-0.8,0.3-1.2,1.2-2C310.5,372.9,310.4,373.5,309.6,373.9L309.6,373.9z"/>
	<path d="M353.9,395.7c0.3,0.7,0.3,1,0.1,1.4C353.7,396.8,353.8,396.4,353.9,395.7z"/>
	<path d="M433.7,377.1c-1.9,4.7-3.6,9.4-3.6,14.7c0.2,13.1,10.9,26.6,23.8,29.1c8.5,1.7,13.3-0.9,19.1-8.4c1.9-2.5,3.5-5.4,4.2-8.7
		c0.8,0.5,0.6,1.2,0.4,1.6c-2.2,6.5-5.8,12-11.8,15.6c-4.3,2.6-8.9,2.2-13.6,1.1c-15.3-3.8-29.4-23.1-20.6-42.3
		C432.2,378.8,432.3,377.5,433.7,377.1L433.7,377.1z"/>
	<path d="M463.2,386.9c3.3,3.8,3.5,7.3,0.8,12c-1,0.6-2.4,0.4-3.6,1c-3.3,1.5-6.1,0.6-8.3-2.1c-2.3-3-2.6-7.2-0.7-10
		c1.7-2.5,4.7-3.2,8.3-2c0.2,0.1,0.4,0.1,0.7,0.1C461.8,385.4,462.1,387.2,463.2,386.9z"/>
	<path d="M463.2,386.9c-1.4,0.9-1.9-0.4-2.7-1c-3.1-2.6-5.9-2.1-10.7,2.1c0.8-3.2,3.2-4,5.4-4.6
		C458.8,382.5,461.3,384.2,463.2,386.9z"/>
	<path d="M440.9,370.3c0.3-0.5,0.6-0.6,0.9-0.5C442,370.4,441.6,370.4,440.9,370.3z"/>
	<path d="M478.2,400.4c-0.2-0.4-0.3-0.8,0-1.1C478.4,399.6,478.5,400,478.2,400.4z"/>
	<path d="M433.8,377.2c-0.2-0.8,0.3-1.2,1.2-2.1C434.7,376.3,434.5,376.9,433.8,377.2L433.8,377.2z"/>
	<path fill="#FFFFFF" d="M767,476c-0.8,0-1.3,0-1.8,0c-0.7,0.5,0,1.2-0.1,1.7c-1.4,0.3-2.2-0.2-2.5-1.2c-0.4-1.2-0.2-2.4,1.2-3
		C765.1,472.9,766,473.5,767,476z"/>
	<path fill="#FFFFFF" d="M746.9,474.9c1-2.2,2-1.3,3.4-0.9C748.8,475.3,748.8,475.3,746.9,474.9z"/>
	<path fill="#FFFFFF" d="M756,477.9c-1.4-0.2-2.2-1-2.2-2.4s0.9-2.2,2.3-2.2c1.5,0,2.2,1,2.2,2.3C758.4,477.1,757.5,477.9,756,477.9
		z"/>
	<path fill="#FFFFFF" d="M596,133.4c2.3,2.4,3,6.7,1.4,9.3c-1.3,2.2-3,2.4-4.8,0.6c-2.1-2.2-2.8-7-1.4-9.7
		C592.5,131.1,594.1,131.1,596,133.4c-0.7,1.2-2.5,1.1-3.1,2.5C593.5,134.4,595.5,134.8,596,133.4z"/>
	<path fill="#FFFFFF" d="M599.2,143.4c-0.1,1.5-0.8,2.5-3.1,3C597.4,145.1,598.4,144.4,599.2,143.4z"/>
	<path fill="#FFFFFF" d="M591.4,144.8c0.8-0.1,1.1,0.6,1.8,1C592.2,146,591.6,145.6,591.4,144.8L591.4,144.8z"/>
	<path fill="#FFFFFF" d="M893,182.1c2.2,1.1,2.6,3.1,2.6,5.2c0,1.1-0.7,2-1.9,2c-2.2,0.1-3.7-1.3-4.9-3c-1.2-1.8-2.2-3.7-0.6-5.9
		c1.7-0.6,3.4-0.7,4.4,1.3c-1,0.4-2.5-0.5-2.9,0.9C890.3,181.1,891.8,182.3,893,182.1z"/>
	<path d="M893,182.1c-0.3,2.5-1.7-1.1-2.1,0.1c-1.3,2.6,1.9,3,2.2,5.1c-2.3-0.8-3.7-2-4.4-4c0.2-1.3,1-1.8,2-2.3
		c0.8-0.2,1.2,0.8,2,0.8C892.7,181.9,892.8,182,893,182.1z"/>
	<path fill="#FFFFFF" d="M896.6,184.4c0.6,2.1,1.7,4.2-0.8,5.9C896.8,188.4,897,186.5,896.6,184.4z"/>
	<path fill="#FFFFFF" d="M429.7,475.7c-0.6,0.7-1.2,0-1.8,0.3c-0.7,0.4,0.1,1.2-0.3,1.7c-1.2,0.4-2-0.2-2.3-1.2
		c-0.5-1.2-0.3-2.6,1.1-3C428.1,472.9,429.4,473.5,429.7,475.7z"/>
	<path fill="#FFFFFF" d="M418.9,477.9c-1.4-0.1-2.3-0.8-2.4-2.3c0-1.4,0.7-2.3,2.2-2.3s2.3,0.8,2.4,2.2
		C421.2,476.9,420.4,477.8,418.9,477.9z"/>
	<path fill="#FFFFFF" d="M413,474.4c-0.9,1.2-1.8,1.1-2.7,0.8c-0.1-0.2-0.4-0.6-0.3-0.8C410.8,472.6,411.8,473.2,413,474.4z"/>
	<path fill="#FFFFFF" d="M332.3,383.6c3-0.1,5.8,2.8,5.9,6c0.1,3.1-1.8,5.6-4.3,5.7c-2.9,0.1-5.7-2.8-5.9-6
		C327.9,386.1,329.7,383.7,332.3,383.6z"/>
	<path fill="#FFFFFF" d="M339.8,386.4c0.8,1.8,1.6,3.1,0.6,5.2C340.2,389.8,339.5,388.4,339.8,386.4z"/>
	<path fill="#FFFFFF" d="M462.4,393.3c0,3.1-2,5.4-4.6,5.4c-2.9-0.1-5.6-3.1-5.6-6.3c0-3.2,1.9-5.4,4.6-5.4
		C459.8,387,462.4,390,462.4,393.3z"/>
	<path fill="#FFFFFF" d="M464.7,395c-0.4-1.9-0.7-3.3-0.9-4.7C464.8,391.6,465.5,392.9,464.7,395z"/>
	<path d="M596,133.4c0.3,1.7,1.5,3.2,1.3,5c-1.7-0.4-0.7-2.4-2-2.9c-1.3,0.7-1.3,0.7-0.8,6.1c-2.2-1.5-3-3.6-2.7-5.9
		C592.3,133.3,594.4,133.6,596,133.4L596,133.4z"/>
	<path d="M331.8,392.3c2.6,0.7,3.7-0.5,3.9-2.9c1.1,2.4,0.8,3-2.3,5c-1.1-0.1-1.8-0.7-2-1.8C331.6,392.5,331.7,392.4,331.8,392.3z"
		/>
	<path d="M331.5,392.6c-0.6-0.2-1.3-0.3-1-1.3c1-0.3,1.1,0.4,1.3,1C331.7,392.4,331.6,392.5,331.5,392.6z"/>
	<path d="M456,395.7c2.6,0.7,3.7-0.5,3.9-2.9c1.1,2.4,0.8,3-2.3,5c-1.1-0.1-1.8-0.7-2-1.8C455.8,395.9,455.9,395.8,456,395.7z"/>
	<path d="M455.7,395.9c-0.7-0.1-1.2-0.5-1.1-1.3c1.1-0.3,1.2,0.4,1.5,1C455.9,395.8,455.8,395.9,455.7,395.9z"/>
</g>
</svg>
