<?xml version="1.0" encoding="utf-8"?>
<!-- Generator: Adobe Illustrator 19.1.0, SVG Export Plug-In . SVG Version: 6.00 Build 0)  -->
<svg version="1.2" baseProfile="tiny" id="Layer_2" xmlns="http://www.w3.org/2000/svg" xmlns:xlink="http://www.w3.org/1999/xlink"
	 x="0px" y="0px" width="900px" height="600px" viewBox="144 97 900 600" xml:space="preserve">
<g>
	<path d="M906.1,380c0.1,0.5,0,1,0.2,1.4c2.7,4.4,1,8.2-1.6,11.9c-2.2,3.2-4.5,6.2-6.5,9.5c-2.5,4.2-6.2,6.1-10.8,5.5
		c-5.4-0.7-10.4,1.1-15.6,1.5c-3,0.2-5.9,0.9-9.1,1.4c4.5,4,10.2,4.4,15.2,6.3c1.9,0.7,4.2,0.7,5.6,2.2c4.1,4.3,7.6,9,6.5,15.5
		c-0.6,3.4-0.7,6.7,1.1,9.8c0.5,0.9,0.8,1.8,0.4,2.8c-0.7,1.9-0.6,3.8-0.4,5.7c0.5,4.8-1.2,9.5-0.6,14.3c0.5,4.2,1.8,8.2,2.1,12.4
		c0.6,7.8,0.4,15.6-0.4,23.4c-1.7,16.3-2.2,32.6-0.2,48.8c0.4,3.1-1.5,6,0,9.1c1.2,2.6,1.9,5.4,3,8.1c2.7,6.7,5.5,13.3,8.2,20
		c7.3,1.4,13,5.4,18.2,10.4c9.1,8.9,19.7,15.2,32.5,17.1c5,0.8,10.4,8.7,9.3,13.1c-0.9,0.3-1.8,0.6-3.4,0c-2.2-7.2-9.2-8.2-15.5-10
		c-6.7-1.9-12.9-4.5-18-9.4c-0.5-0.5-1.1-0.9-1.9-0.9c-5.2,5-7.2,5.2-9.5,1.3c4.4,5.4,7.8,12.3,11.3,19.2c0.2,0.4,0.5,1,0.9,1.1
		c3.7,0.9,6.6,3.8,11,3.1c8.4-1.3,16.7-2.8,25-4.5c10.2-5.4,17-13.5,19.6-24.8c1.6-6.8,3.2-13.6,3.5-20.6c0.2-3.9,0.4-7.8,0.4-11.8
		c0-12.3,1.7-24.4,2.8-36.6c0.5-5,0.6-10-0.1-15.1c-0.4-3.4-0.2-6.9-0.2-10.4c0.2-15.7,0.3-31.5,0.6-47.2c0-2.8-0.6-5.6-0.5-8.3
		c1.3-0.1,1.7,0.5,1.8,1.3c0.3,1.4,0.7,2.8,0.7,4.3c0.4,12.2,0.5,24.5,1.4,36.7c0,0.3-0.1,0.7-0.3,1.8c-0.5-2.8-0.8-4.8-1.2-6.9
		c-0.1,0-0.2,0-0.3,0c0,6.4-0.3,12.7,0.1,19.1c0.7,14.3-0.5,28.5-1.3,42.7c-0.6,11.1-0.8,22.2-0.5,33.3c0.2,7.7-2,14.9-5,21.9
		c-3.3,7.8-8.9,13.9-14.7,19.8c-1,1-2.2,1.5-3.4,2c-7.3,3.1-14.7,5.6-22.7,6.1c-2.5,0.2-5,0.4-7.4,1.7c1.4,5.8,2.7,11.5,2.1,17.5
		c3.5,1.2,6.9,0.9,10.2,0.6c5.6-0.4,11.2-1.5,16.8-2.1c3.6-0.3,6.8-1.2,10.2-2.2c5.3-1.6,9.7-4.5,13.7-8.3c4.3-4.1,8.8-7.8,12.9-12
		c8.7-9.1,12.9-20.3,16.1-32.1c1.7-6.3,2.3-12.7,2.8-19.2c1.7-23.6,2-47.3,1.9-70.9c-0.1-13.7-1.4-27.3-2-41
		c-0.2-4.1,0.4-8.3-0.7-12.8c2.7,1.2,3,3,3,5c0.3,11,0.3,22.1,1.1,33.1c1.4,21.1-0.8,42.2-0.4,63.3c0.2,13.3-1,26.6-3.5,39.7
		c-1,5.2-1.4,10.7-3.7,15.7c-3.9,8.3-8.9,15.9-15.4,22.4c-2.5,2.5-5.4,4.8-8,7.3c-8.8,8.5-19.3,13-31.3,14.7c-7.6,1-15.2,1.8-23,1.4
		c-7-0.4-13.8,1.6-20.7,2.4c-5.8,0.7-11.5,2.1-17.3,3.4c-2.3,0.5-4.5,0.6-7,0.2c13.3-5.2,27.3-5.8,41.3-8.3
		c-0.4-5.3-0.8-10.6-1.3-16.2c-1.5-0.7-3.2-1.7-4.9-1.5c-1.4,0.3-0.8,1.6-1.4,2.1c-3.7-0.7-7.4-0.5-10.7,0.6
		c-6.3,2.1-12.7,2.3-19.2,2.8c-1.6,0.1-3.1,0.3-4.7,0.4c-0.8,0.1-1.7,0.3-2.4-1.2c5.5-2.4,11.2-1.4,16.8-1.6
		c5.7-0.3,10.7-3.5,16.9-2.8c-1.5-4.8-3.3-9-5.4-13.1c-2.7-5.3-6.2-10.3-8.4-15.9c-0.6-1.6-1.2-3.2-3.8-3.1c1.3-2.1,0.5-3.5-0.3-5
		c-7.5-15.2-15.2-30.4-19.3-46.8c-3.5-13.8-8.7-26.7-15.2-39.1c-5.9-11.3-10.6-23-15.8-34.6c-6.9-15-14.3-29.8-20.9-45
		c-2.4-5.6-4.4-11.4-5.9-17.4c-0.7-2.7-2.1-4.7-4.4-6.1c-0.2-3.8-0.6-4.4-4.4-4.3c-7.6,0.2-15.1,0.4-22.6,1.5
		c-2.4,0.3-4.8,0.5-7.6,0.8c-1,2.3-4.4,3.6-4.1,7.7c-0.1,0.1-1.1-0.7-1.4,0.1c2.6,5.8,4.9,11.7,7.9,17.3c2.2,4.1,4.6,8.1,7.1,12
		c1.4,2.1,4.2,2,5.8,0.9c2-1.3,4.1-1.8,6.2-2.5c0.4-2-1.1-3.7-1-5.7c1.1,0.8,1,1.9,1.4,2.9c1.3,4,1.3,4,5.6,3.5
		c1.1-0.1,2.3-0.9,3.8,0.4c-0.7,3.7-2.2,7.2-4.8,10.5c2.5,6.4,5.1,12.9,7.6,19.3c0.1,0.2,0.1,0.4,0.2,0.6c-0.2-0.1-0.4-0.2-0.6-0.2
		c-3-4.1-4.1-9.1-6.2-13.7c-0.7-1.5-1.2-3.1-1.9-4.9c-2.3,1.5-4.5,2.9-6.7,4.3c-0.1,5.2,1.8,10,3.9,14.7
		c5.1,11.4,9.3,23.1,13.7,34.8c4.8,12.6,11.5,24.3,17.1,36.5c4.8,10.3,9.5,20.8,13.3,31.5c4.1,11.6,10.6,21.9,15.5,33.1
		c2.8,6.5,5.9,12.9,9.2,19.2c0.8,1.5,2.1,3,1.4,5c2.7,0.6,5.5-0.2,8,1.8c-5.9,2.2-11.7-1.5-17.4,1.1c4.2,0.8,8.2,0.9,12,2.4
		c2.4,0.9,3.5,2.3,4,4.5c0.8,3.7,0.7,7.4,0.3,11.1c-0.2,2.1-0.9,4.2,1,6.9c-24.6,3.8-48.3,7.2-72.3,1.9c23.1,1.1,46.1,0.4,69.1-3.5
		c-0.5-5-0.8-9.8-1.4-14.5c-0.3-2.8-1.9-5.2-5.6-5.4c-5.8-0.2-11.5-0.8-17.4,1c-6,1.9-12.4,3.1-18.7,3.6c-5.9,0.5-11.9,0-17.8-1.3
		c2.7,2.2,5.9,3.3,9.1,4.5c-4.3,0.3-9.1,0.5-12.3-1.9c-4.6-3.4-8.6-7.8-10.5-13.8c-2.4-7.5-2.3-15.4-3.5-23.1
		c-1.7-10.4-1.6-21-2.2-31.6c-0.1-1.2,0.1-2.4,0.3-3.6c1.2-5,1.3-9.9,0.9-15c-0.9-9.9-1.4-19.9-1.2-29.9c0.5-20.4-0.1-40.8-0.2-61.2
		c0-2.4,0.2-4.8-0.5-6.9c-0.8-0.8-1.5-0.4-2.2-0.3c-6.4,0.7-12.8,1.2-19.1-1.2c-1.2-0.5-2.5-0.6-4.5-1c5,0,9.4-0.4,13.6,0.1
		c10.2,1.1,15.4-0.8,19.8-7.9c1.3-2.1,3.2-3.8,5.3-6.2c-3.8,0.7-6.8,1.2-9.9,1.8c-2.9,0.5-5.8,1.5-9,0.7c-0.3,3.9-4,5.7-5.4,9
		c-0.5,1.2-2.1,1.5-3.5,1.5c-3.6,0.1-7.2,0.2-10.8,0c-2.8-0.2-4.9-2.7-8.1-2c0,4.7-0.2,9.6,0,14.6c0.6,15.1,1.7,30.3,0.9,45.4
		c-0.4,7.8,0.6,15.3,1.1,23c0.7,12.3-0.5,24.5-0.5,36.7c0.1,11.4-1.3,22.9,0.6,34.2c1.9,11.2,4.2,22.4,9.9,32.5
		c1.8,3.1,4.8,4.3,7.2,6.3c6.4,5.5,12.9,11.1,21.2,13.7c0.8,0.3,2,0.4,2.1,1.9c-1.3,0.9-2.4,0-3.5-0.5c-6.1-2.6-11.5-6.5-16.8-10.4
		c-2.5-1.8-4.9-3.7-7.8-5c0.4,2.5,0.8,5,1.2,7.4c-0.2,0.3-0.3,0.7-0.6,0.9c-6.9,3.8-14.1,6.4-22.2,5.7c-1.4-0.1-2.9,0-4.3,0.3
		c-4.9,1.2-9.8,0.7-14.5-0.8c-4.9-1.5-9.8-2.3-14.9-1.7c-2.1,0.3-3-1-3.8-2.6c-4.3-0.3-7.5-2.1-9.3-6c-4.1,0.5-8-0.6-12.4-1.2
		c1-2.6-1.4-3-2.3-4.4c-2.6-4-3-8.4-1.8-12.8c2.1-7.2,3.4-14.5,5-21.7c0.7-3.2,0.7-6.3-1-9.7c-0.8,2,1.1,3.7-0.8,5.5
		c-2.3-3.2-1.5-6.3-1-9.2c1.1-0.3,1,0.5,1.7,0.5c0.6-2.1,2.2-4,1.4-6.4c2.4-1,3.8,0.6,6.4,0.7c0.7-0.1,1.2-2,2.8-1.7
		c-0.1-7.9,1-15.5,1.4-23.1c0.8-13.6,0-27.1-3.4-40.4c-2.9-11.3-5.8-22.6-5.8-34.3c0-1.7,0.8-3.3-0.1-5.4c-3.8-1.8-8.3-3.4-10.3-8.8
		c-1.2,3.2,0,5.8,0.3,8.3c0.2,2.2,0.7,4.3-0.3,6.3c-0.6,1.3-0.3,2.5,0.2,3.8c1.6,4.1,3,8.3,4.6,12.5c0.8,2,1,4-0.1,5.9
		c-1.3,2.3-1.2,4.6-0.6,7c1.9,7.7,1,15.5,1,23.2c0,2.3-0.4,4.6,0.4,6.8c0.3,1,0.6,2.4-0.2,3.1c-2.1,2.1-1.4,4.6-1.2,7.1
		c0.5,8.8,1.8,17.5,3.6,26.2c0.4,1.9,1,4-1.5,5.9c0.6-4.3-1-7.7-1.7-11.3c-1.3-6.2-1.6-12.6-2.9-18.8c0-0.2-0.1-0.5-0.1-0.7
		c1.5-6.4,0.2-12.9,0.2-19.3c0-7.2,0.7-14.4-0.9-21.5c-0.6-2.8-0.8-5.7,0.8-8.4c0.5-0.8,0.8-1.8,0.5-2.8c-1.5-4.7-2.3-9.6-4.7-13.9
		c-1.1-1.9-1.6-3.7-0.5-5.8c0.7-1.2,0.6-2.5,0.4-3.9c-0.5-3.4-1.2-6.8-0.1-10.6c-7.8-0.4-15.1-1.7-22.6-2.8c-5-0.7-9.8-2.2-14.9-2.3
		c-2.3,0-4.4-1.8-6.7-3.2c0-5.4-0.5-11-1.3-16.5c-0.5-3.4,0.4-6.6-0.1-10c2.1,0.3,2.1,2.5,3.7,3.2c1.7-0.7,1.6-2,0.9-3.4
		c-1.5-2.9-2.8-5.9-4.6-8.5c-3.2-4.6-5.2-9.9-8.3-14.7c-2-3.1-2.6-6.7-2.6-10.4c0-4,0.7-7.9,1.3-11.8c0.4-2.5,2-4.3,3.9-5.9
		c1.1-0.9,2.2-1.8,3.2-2.6c0.5-1.3,0.4-2.4,0.2-3.4c-1.1-4.5,0.5-8.3,4.2-10.6c4.9-3,7.3-7.7,9.6-12.5c0.5-1.1,1.3-1.3,2.1-1.1
		c1.4,0.4,1.1,1.9,1.7,2.3c10.3-6.8,11.9-18.7,17.2-28.7c-5.5-5.6-7.5-13-6.2-21c1.5-9.2,9.3-11.4,17-13.3c-0.2-9,0-17.6,2.1-26.2
		c-6.5-0.6-9.7-4.4-11.1-10.2c-0.3-1.4-0.3-2.7,0.7-3.7c1.7-1.6,1.6-4,3-5.7c0.6-0.7,0.5-1.7,0.1-2.4c-1.9-2.7-2.5-5.8-2.8-9
		c-0.1-0.8-0.2-1.7-0.9-2.4c-5.1-0.5-10.3-1.2-15.6-0.7c-5.3,0.6-10.8-0.7-16.2-0.3c-0.6,0-1.3-0.1-1.7-0.5
		c-3.1-3.5-5.7-7.3-5.3-12.2c0.4-4.6,3.4-7.5,7.6-9.2c1-0.4,2.3-0.9,3.1-0.5c2.7,1.1,5.1-0.1,7.7-0.3c5-0.5,9.8-0.3,14.6,1.3
		c1.5,0.5,3.1,0.4,4.4,0.4c0.9-0.4,1.1-1,1.1-1.6c1.1-8,5.6-14.4,9.5-21.2c4.2-7.4,10.6-12.5,18.8-14c13.3-2.4,26.1-0.9,36.5,9.3
		c3.6,3.5,6.1,7.7,7.1,12.7c1.1,5.5,3.4,10.8,3.9,16.4c5.8-0.8,9.3-4.5,11-11.8c-2.6-1.4-2.7-4.1-2.7-6.4c-0.1-3.6-0.6-6.9-2.3-10
		c-0.8-1.4-1.4-2.9-0.6-4.8c0.7-1.7,0.3-3.4-0.7-5.1c-3.3-5.9-3.6-12.1-0.6-18.3c0.7-1.4,1.1-3,1.2-4.5c0.2-2.1,0.5-4,2.2-5.4
		c1.2-1-0.3-3.2,1.7-3.7c-0.1-0.9-1.2-1.1-1.1-2c0.7-0.9,1.4-0.4,2.2,0c1.6,0,3,0.5,4.7,2.1c-1.5-2.3-3.2-2-4.7-2
		c-0.2-3,0.7-5.6,3-7.7c-0.4-1.7-2.9-2.2-2.5-4.5c3.6-1.7,5.3,1.5,7.6,3c5-0.4,9-2.4,11.7-6.3c2.6,0.5,1.4,2.1,1.6,3.4
		c1.1,0.1,2.2-0.1,2.6-1.2c0.8-2,2.3-2.1,4.3-2.3c3.6-0.3,7.2,0.4,10.8-0.2c1.6-0.3,3-0.1,3.8,0.8c4.6-0.9,8.4-2.9,12.6-2.4
		c1.1,0.9,0.4,1.7,0.3,2.6c2.4-1.3,4-3.1,5.7-5.3c2.5,3.1,0.9,6.1,1,9.2c2.5-1.4,4.7-3.7,7.6-1.4c-0.6,3-3.8,2.6-5,4.7
		c2.3,0.1,4.5-1.2,6.8,0.2c0.2,1.6-1.7,3.1,0.2,4.4c-3.3,3.4-7.8,4.3-10.2,8.1c0.4,3.9,0.9,8,1.3,12c0,0.4,0,0.8,0.1,1.1
		c3.5,5.3-0.4,10.1-0.9,15.2c-2.9,0.6-5.5,2.2-8.3,1c-1.5,1.5-0.5,3.4-1.3,5c-2.5-4.5-1.1-9.3,3.4-11.5c1.9-0.9,3.9-1.7,6-2.6
		c0.3-1,0.6-2,0.9-3.1c-3.5-4.6-2.6-10.3-3.7-15.8c-6.4,2.6-12.6,0.2-18.9-0.2c-1.1-0.1-1.8,0.4-2.7,0.6c-0.9,0.2-1.9,0.3-3,0.4
		c-0.9,0.6,1,3-1.8,2.6c0.1-2.4-1.5-3.6-3.6-4.4c-0.3-0.2,0.1,0,0-0.1c-0.4,2.2,0.8,3.9,1.7,5.5c-0.3,2.1-2.1,1.9-3.3,2.3
		c-0.2,0.9,1,1,0.4,1.8c-1.2,0.5-2.4-0.4-3.6,0c-1,0.4-1.5,1.4-1.9,2.4c-1.2,3.4-2.9,6.6-5.4,9.2c-1,1-1.2,2.3-1.5,3.6
		c-0.9,3.4-2.1,6.6-3.5,9.8c-0.5,1.3-1.1,2.6-3,3.3c0-2.4-0.2-4.5-1.6-6.5c-1.1,2.1-1.2,4.2-1.1,6c-1,1.5-2.4,1-3.6,1.2
		c0,1.3,0.8,2.2,1.5,3c0.8,0.5,1.7-0.7,2.5,0.3c0.9,2.6-1.8,1.2-2.7,2.2c3.4,7.1-1.4,12.8-3.9,18.9l0.1-0.1
		c-3.1,3.1-5.8,6.8-10.6,7.2c-0.7,2.2-0.1,4,0.4,6.1c2.4,0.7,4.9,1.5,7.2,2.3c1.3-0.5,1-2,1.8-2.6c1.7-0.2,0.9,1.4,2,2.1
		c4.9-2.4,10.3-4.5,13.4-9.8c0.2-0.3,0.2-0.7,0.3-1l-0.1,0.1c1-0.1,1.4-0.8,1.7-1.9c-2.2-1.3-3.7-3.9-7.1-3.5
		c0.1-3.2-1.3-5.8-2.2-8.4c-0.9-2.8-1.3-6.1,1.8-8.5c-0.6,5.3,1.8,9.9,3.2,15c1.5,0.9,3.1,1.9,5.3,3.2c0.8-4.3,4.1-6.6,6.6-9.5
		c1-0.6,1.8,0.5,2.7,0.4c7.3-5.4,14.6-5.8,21.8,0.2c-0.5,2.9,2.8,4.7,2.7,7.7c-2.3-0.3-4.2-2.4-9.4-10.2c0.5,4,3,7,2.7,10.6
		c-1.4,0.5-1.7-0.4-1.9-1.2c-0.5-1.2-0.8-2.5-1.3-3.7c-2.3-5.9-2.3-5.9-8.9-5.2c-0.8,1.3-2.2,2.2-3.4,3.4c-1,1.1-0.9,3.4-3.4,2.8
		c1,1.7,2.4,1.2,3.6,1.3c1-0.5,0-2.3,1.9-2.5c2.1,5.2,4.6,10.3,0.1,15.9c-3,0-3.6,3.6-6,4.9c-0.1,3.3,1.7,5.6,3.9,7.5
		c2.5,2.2,2.8,4.9,1.8,7.7c-0.7,2.1-1,4.1-0.9,6.3c0.2,3.4-1.9,6.2-3.4,8.9c-2.6,4.6-4.6,9.6-7.4,13.9c-4.2,6.4-7.8,13.3-14.1,18.2
		c-8.4,6.6-13.9,15.4-17.7,25.3c-0.3,0.8-0.7,1.5-1.1,2.2c-0.1,0.1-0.4,0.1-0.7,0.2c-1.3-5.1,5.3-18.3,14.4-28.5
		c-0.1-5.9-0.3-9.7-12.8-19.1c0.9-2.2,0.8-4.6,0.9-7.2c3.3,1.8,0.4,6.2,3.5,8c6.2-12.4,3.9-21.1-2.9-26.6c-0.6,2-1.1,3.9-1.8,5.8
		c-1.6,4.6-3.1,9.3-7.3,12.5c-0.6,0.5-1.2,1.3-1.5,2c-1,3.1-3.2,5.3-5.8,6.9c-0.6,1.5,1.2,3-0.6,4.3c-0.8-0.7-0.2-2.4-1.9-3
		c-6.4,3.8-13.7,3.8-21.1,3.2c-7.7-0.6-14.1-3.3-18.5-10.1c-4.5,7.7-1.9,19.9,5.9,29.7c3.8,0,7.8,0,11.9,0c-2-5.7-6.2-9.9-9.7-15
		c2-0.5,2.6,0.5,3.3,1.2c8,8.1,14.7,17,18.2,28.1c2.7,8.4,6.6,16.2,13.5,22.1c1.1,1,1,1.1,1.3,3.5c2,1.2,3.7,2.7,5.3,4.6
		c1.9,2.3,5,3.4,7.8,4.4c6.1,2.1,11.9,5,17.9,7.4c2.5,1,5.2,1.5,7.4,3.4c1.5,1.4,6.1-0.5,6.6-2.7c1.6-8.2,7-14.4,11.1-21.3
		c6.8-11.3,10.8-23.4,12.8-36.4c1.3-8.8,3-17.5,3.1-26.4c0.1-9.7,3.7-18.4,7.8-27c1.5-3.1,3.1-6.2,4-9.6c0.7-2.8,2.3-5.3,3.8-7.7
		c1.2-2,2.5-4.1,2.8-6.6c-1.8-2.7-3.6-5.6-6.9-6.7c-0.9,0.4,0.2,1.3-1.4,1.7c-2.2-2.8-5.4-5.1-6.3-9.2c2.7,1,5.5,1.7,7.5,4.3
		c1.5-4.4,0.6-8.5,1.5-12.5c0.4-1.9,0.7-3.7,1.5-5.5c1.3-3.1-0.3-6.4,0.4-9.5c0.1-0.5-0.3-1.2,1-1.8c1.4,4.4,3.1,9,1.4,13.1
		c-2.4,5.8-2.1,11.7-3,17.5c2.9,3,7.1,5,5.6,10.1c11.8,1.1,23.5,0.4,35.1,1c1-4,1-4,3.9-3.9c-0.5,2.1,0.3,3.8,1.9,5.1
		c-1.4,5.5-5.4,9.2-8.7,13.3c1.3,3.1,3,5.8,4.9,8.2c-0.3,8.8-3.2,16.9-5.6,25.3c1.8,0.4,1.9,1.6,1.5,3c-0.7,2.5-1.3,5.1-2,7.7
		c-2.4,8.4-4.8,16.8-9.5,24.3c-3,4.7-3.6,10-3.5,15.5c0.1,3.3,0,6.6-0.3,10c-1-1.3-1.4-2.8-1.6-4.4c-0.8-8.9,0.2-17.5,4.6-25.5
		c2.5-4.5,4.9-9.1,6.1-14.2c-2.2-2.8-3.3-6.3-5.6-8.8c0.2-1.3,1.1-0.3,1.7-1.3c-0.5-6.9-1.9-13.8-7.3-19.3
		c-5.2-5.2-11.3-8.4-18.7-9.3c-1-0.2-1.8,0.5-2.6,1.2c-0.2,2.6-0.4,5.2-0.6,7.6c0.8,1.6,2.9,1.1,3.5,2.8c-1.1,0.9-2.2-0.1-3.5,0
		c-1.6,7.9,1.4,15,3.5,22.5c1.4-0.5,2.4-2,4-2c0.1,0.1,0.2,0.2,0.3,0.3c-2.5,5.1-6.8,8.6-10.3,12.8c-0.5,0.6-1.3,1.1-1.3,2
		c0,0.2-0.1,0.4-0.1,0.5c-1.4,1.8-2.9,3.5-5.1,4.4c-1.7,0.7-2.3,2.4-2.7,4.1c-2.7,11.6-7.9,22-14.2,32.1c-3.2,5.2-6.4,10.4-8.6,16.1
		c-1.5,3.9-1,5.2,2.3,7.6c1.6,1.2,3.9,1.5,4.7,3.8c-0.6,2.1-2.1,2.4-3.9,1.7c-1.1-0.4-2.3-0.8-3.2-1.6c-3.1-2.4-6.2-3-10.3-2.7
		c-4.2,0.4-8.4-1.7-12.3-3.5c-3.1-1.4-6.1-2.7-9.7-1.4c-1.7,0.6-3.4-0.2-4.6-1.4c-4.8-4.5-10.9-7.5-14.5-13.3
		c-1.3-2.1-3.6-3.6-5.7-4.9c-6.4-4.1-9.9-10.3-12-17.4c-1.3-4.4-2.9-8.6-4.7-12.8c-1.2-2.8-3.2-3.9-6.2-3.9c-4.7-0.1-9.3,0.8-14,0.9
		c-2.2,0.1-4.3,0.5-6.3-0.5c-0.5-0.3-1.3-0.5-1.7-0.2c-3.6,2.5-9.2,1.9-11.3,6.8c-2,4.8-1.9,9.6,0.6,14.2c1.7,3.1,4,5.7,7.3,7.2
		c3.6,1.6,5.8,4.4,7.6,7.8c6,11.7,13.1,22.6,21.1,33c3.9,5.1,7.3,10.5,8.8,17.1c1.3,5.9,5.2,10.7,8.9,15.5c1.4,1.8,3.6,3,5.9,3.2
		c5.7,0.5,11.2,2.4,17.1,1.1c5.9-1.3,12-0.8,18-0.7c3.1,0,5.6-0.8,7.4-3.5c1.8-2.6,4.3-3.6,7.7-3.9c7.3-0.6,14.6-1.4,21.9-1.8
		c4.4-0.3,8.9-1.2,12.8,2c1,0.9,2.5,0.8,3.8,0.6c15-2.2,30.2-1.4,45.1-4c3.4-0.6,7-0.4,10.4-0.1c3.7,0.3,6.3-1.1,8-4.3
		c1.1-2.1,2.6-4,3.9-6c2.4-3.5,4.8-7,4.7-11.5c0-1.2,0.3-2.4,1.8-2.8C905.7,380,905.9,380,906.1,380z"/>
	<path d="M457.7,376.5c-0.3-0.6-1-1.1-0.4-1.9c0.9-0.6,1.9-0.4,2.8-0.1c1.6,0.6,2.9,0.1,3.8-1.1c1.2-1.6,2.9-2.2,4.8-1.9
		c3,0.4,5.1-0.5,7.2-2.8c2.5-2.9,6.8-1.6,7.9,2.2c-2.3,1.3-4.9-2.8-7.5,0.7c3.5-0.7,6.2,1.7,9.2,0.6c0.5,1.8-1.1,1.9-1.6,2.9
		c0.8,1.1,1.7,2.2,2.6,3.4c4.7,0.3,8.4,2.3,11.4,6c1.5,1.9,3.5,3.6,6.4,4.5c0.1-3.5,0-6.8,0.7-10c2.7-12.8,9.5-23,19.6-31
		c3.7-2.9,8.1-4.2,12.8-4.2c4.1,0,8.2,0.1,12.2,0.7c9,1.3,15.7,6.6,20.9,13.6c4.5,6.1,7.8,13,8.7,20.7c0.1,0.5,0.3,0.9,0.5,1.5
		c3.7,0.5,7.4-0.2,11.1,0.5c1.3,0.2,2.6,0.4,3.9,0.8c3.1,1.1,4.4,2.9,4.1,5.5c-0.4,3.5-2.1,5.2-5.5,5.6c-3.8,0.5-7.6,0.9-11.8,0.6
		c-1,5.4-2.1,10.6-3.8,15.7c-0.6,1.7-1,3.4-1.8,5.1c-2.1,4.6-5,8.8-8,12.8c-5,6.5-12.4,8.5-20.7,9c-1,1.5-1.5,3.8-3.1,5.5
		c-1.7,1.7-3.8,3-6,2.8c-3.6-0.4-7,0.1-10.4,0.6c-5.7,0.8-11.3,0.7-16.8-0.4c-3.7-0.7-7.3-2.4-9.3-6.4c-1.6-3.2-2.4-6.6-3.3-10.6
		c5.3,0,10.5,0,15.7,0c0.2,1.4-1.1,1.7-1.8,2.4c-0.1,1.8,1.4,2.8,1.9,4.5c-2.6-0.5-2.8-2.8-4-4.5c-2-0.3-4.1-0.3-6.2,0.2
		c0.3,5.6,3.1,8.7,9.1,9.5c-1-1.8-1.9-3.3-2.7-4.8c0.2-0.5,0.5-0.6,0.7-0.4c2.2,3.8,5.7,4.7,9.8,4.5c4.2-0.1,8.3-0.2,12.9-2.8
		c-16-5.7-23.1-18-27.2-32.8c-4.1,0.4-8.1-0.4-12.1-2c-3.9-1.6-5.9-5.8-9.8-7.1c-1,0.9-1.1,1.6-0.9,2.5c0.3,1.4-0.7,2.8-1.8,2.6
		c-3.4-0.7-5.4,1.7-7.6,3.2c-2,1.4-4.3,1.6-6.1,1.1c-2.4-0.7-4.2-0.2-6.4,0.9c-1.3-3.4-4.6-2.6-7-2.7c-4.5-0.1-8.5-2.3-13-2.5
		c-2-0.1-3.7-2.1-5.2-3.6c-7.9,0.1-15.8,0.9-24,0.8c-1,3.2-2.8,5.9-6.1,6.6c-3.1,0.6-6.3,0.8-9.4,0.4c-1.7-0.2-3.9-1.1-5-3.3
		c2-0.6,3.2,0.6,4.6,1c1.6,0.5,2.9,0.2,3.6-1.4c1.8-4.2,4.1-8.1,5-12.7l0.1,0.1c-4,3.7-7.4,8-11.1,12.3c-1.2-1.9-0.1-2.9,0.6-3.8
		c2.1-2.7,4.4-5.4,6.7-8c2.6-3.1,2.4-4.8-0.9-6.9c-1.3-0.8-2.6-1.7-4.4-2c-2.1,1-4.4,1.9-6.8,2.6c1.6,1.4,3.3,1.6,5.1,0.6
		c0.2,1-0.3,1.3-0.8,1.6c-2.8,1.5-4.9,3.5-6.5,6.4c-1.9,3.4-6.3,3.9-9.5,6.5c4.5,1.9,8.6,4.7,14.3,4c-4,3.6-5.1,3.9-8.7,1.8
		c-2.7-1.6-5.6-2.6-8.5-3.8c-1-0.4-2-0.9-2.9,0.3c8.1,3.6,16,7.7,24.6,9.7c3.6,0.8,5.5,3.5,7.4,6.3c2.9,4.3,3.2,8.8,2.4,13.7
		c-0.2,1.2-0.4,2.4,0.1,3.6c2.8,7,1.1,14,0.5,21.1c-0.2,2.4-0.2,4.9,0.4,7.1c3.1,11.5,2.2,23.1,1.3,34.7c-1.1,13.6-2.2,27.3-0.7,41
		c0.4,4,1.4,8,0,12.1c-0.5,1.4,0.5,3.5,1.1,5.2c3.1,9.1,7.1,17.8,10.8,26.7c7.1,1.4,12.8,5.2,17.9,10.2c9.2,9,19.8,15.4,32.8,17.4
		c5,0.8,10.4,8.7,9.3,13.1c-0.9,0.3-1.8,0.6-3.4,0c-2.2-7.2-9.2-8.2-15.5-10c-6.7-1.9-12.9-4.5-18-9.4c-0.5-0.5-1.1-0.9-1.9-0.9
		c-5.2,5-7.2,5.1-9.5,1.2c4.4,5.4,7.8,12.3,11.3,19.2c0.2,0.4,0.5,1,0.9,1.1c3.7,0.9,6.6,3.8,11,3.1c8.4-1.3,16.7-2.8,25-4.5
		c10.2-5.4,17-13.5,19.6-24.8c1.6-6.8,3-13.6,3.6-20.6c0.3-3.1,0.1-6.2,0.1-9.3c0.2-14.9,2.2-29.7,3.4-44.5c0.1-1.1,0.1-2.2,0.1-3.2
		c-1.3-18.5-0.7-36.9-0.4-55.4c0.1-5.3,0.7-10.6-0.4-15.8c-0.1-0.5,0-1,0.6-1.2c0.8,0,1.2,0.6,1.3,1.3c0.3,1.4,0.7,2.8,0.7,4.3
		c0.4,12.1,0.5,24.3,1.4,36.4c0,0.5-0.1,0.9-0.4,1.4c-0.4-2.1-0.7-4.2-1.1-6.3c-0.1,0-0.2,0-0.3,0c0,6.4-0.3,12.8,0.1,19.1
		c0.7,14.3-0.5,28.5-1.3,42.8c-0.6,11.1-0.8,22.2-0.5,33.3c0.2,7.5-1.9,14.6-4.9,21.6c-3.4,8-8.9,14.1-14.9,20.1c-1,1-2.2,1.5-3.4,2
		c-7.3,3.1-14.7,5.5-22.7,6.1c-2.4,0.2-4.8,0.5-7.3,1.6c1.3,5.8,2.7,11.6,2.1,17.5c2.9,1.2,5.7,0.9,8.4,0.7
		c5.4-0.3,10.8-1.4,16.1-1.7c6.4-0.3,11.9-2.6,17.7-4.6c1-0.4,2-0.7,2.9-1.4c6.9-6.2,14.3-11.8,20.3-18.9
		c4.9-5.8,8.8-12.2,11.2-19.5c4-12,5.6-24.2,6.4-36.7c1.2-19.7,1.1-39.4,1.6-59.1c0.3-11-1.2-22-1.5-33.1c-0.2-5.5-0.4-11-0.5-16.6
		c0-2.9-0.2-5.8-0.4-9.1c2.4,1.2,2.7,3.1,2.7,5c0.3,11.2,0.3,22.4,1,33.5c1.4,21-1,42-0.4,63c0.3,9.2-1.2,18.2-1.7,27.3
		c-0.4,6.4-2.1,12.5-3.2,18.8c-2.6,15.4-11.9,26.3-22.8,36.4c-1,0.9-2.1,1.7-3,2.6c-8.7,8.4-19.1,12.9-31,14.6
		c-7.8,1.1-15.5,1.9-23.3,1.5c-6.9-0.4-13.6,1.6-20.4,2.4c-6,0.7-11.8,2.2-17.6,3.4c-2.2,0.5-4.5,0.6-6.8,0.2
		c13.3-5.2,27.4-5.7,41.3-8.3c-0.4-5.4-0.9-10.7-1.3-16.3c-1.7-0.6-3.3-1.7-4.9-1.5c-1.4,0.5-0.6,1.8-1.6,2.2
		c-3.6-0.8-7.3-0.5-10.7,0.6c-5.3,1.8-10.8,2.1-16.3,2.6c-2.4,0.2-4.8,0.4-7.2,0.6c-1,0.1-2,0.4-2.5-1c1.5-1.7,3.7-1.4,5.6-1.5
		c4.3-0.4,8.6-0.4,13-0.6c5.1-0.2,9.5-3.5,14.7-2.5c-1.4-6.7-13.9-30.8-16.9-32.4c0.9-1.7,0-3.2-0.8-4.8
		c-8-16.4-16.1-32.8-20.5-50.6c-3.4-13.8-9.9-26.2-16-38.8c-2.5-5.2-5.6-10-7.5-15.5c-4.1-11.7-9.9-22.6-15.1-33.8
		c-6.6-14.3-14-28.2-18-43.5c-0.1-0.2-0.2-0.4-0.5-0.8c-3.7,0.5-7.5,0.7-11.3,0.3c-1,1.1-1,2.5-1.3,3.7c-1.5,5.8-2.7,11.7-7.4,16
		c-0.6,0.5-1.1,1.3-1.3,2.1c-1,3.6-3.6,5.8-6.4,7.9c0,0.2-0.1,0.3-0.1,0.5c-0.4,0.8-1,1.4-1.8,1.7c-2.6,1.2-4.6,2.6-3.3,5.9
		c-4.5,2.4-7.6-1.8-11.5-1.5c-3.7,0.3-7.4-0.2-10.9-0.9c0,0-0.2,0.2-0.2,0.2c0.1,0-0.1,0.2,0,0.3c0.2,0.3,0.4,0.6,0.7,0.8
		c0.8,0.9,1.9,1.5,2.5,2.6c0,0.1,0.1,0.3,0.1,0.5c-0.9,1.4-2.1,0.6-3.4,0.4c0,5.1-0.2,10.1,0,15.1c0.6,15,1.6,30,0.9,45
		c-0.4,7.8,0.6,15.3,1.1,23c0.8,12.4-0.5,24.7-0.4,37.1c0,11.4-1.4,22.9,0.6,34.2c1.9,11.1,4.2,22.1,9.8,32.2c1.9,3.4,5.3,4.8,8,7.1
		c6.2,5.3,12.6,10.7,20.7,13.2c0.8,0.3,2,0.4,1.9,2.4c-10.9-3.1-18.6-11.2-28.1-16.7c0.8,2.6,0.3,5.1,1.4,7.1
		c-0.6,2-2.1,2.3-3.3,2.9c-5.4,2.5-11,4.5-16.9,4.5c-8.6,0-17.4,1.9-25.8-1.8c-2.8-1.2-5.9-0.9-8.9-0.7c-2.5,0.2-4.6,0.4-5.3-2.4
		c-5-0.7-6.9-1.8-9.6-6c-4.1,0.6-8-0.8-12.4-1.2c1.5-2.9-1.4-3.1-2.3-4.5c-2.4-4-2.8-8.2-1.7-12.4c2-7.2,3.5-14.4,5-21.7
		c0.8-4.2,0.7-8-2.3-11.4c-1.9-2.2-2.3-5-2.4-8.1c-0.1-5.2,1.6-10.5-0.9-15.7c-1.2-2.6-1.7-5.5-0.5-8.4c0.3-0.8,0.3-1.7-0.1-2.5
		c-1.3-3.2-1.5-6.6-1.1-9.9c0.6-5.6-1-10.9-2-16.3c-0.4-1.9-0.8-3.9,0.2-5.6c2.2-3.8,1.5-7.6,0.2-11.5c-1.3-4.1-1.8-8.2,0.4-12
		c-1.3-2.6-2-5.1-1.9-7.8c0-0.8,0-1.7-0.3-2.5c-2.1-4.9-3.9-9.8-2.1-15.2c-2.9-1-5.4,0.1-7.8-0.1c-7.1-0.7-14.1-1.2-20.7-4
		c-1.5-0.6-3.1-0.1-4.6-0.1c-5-0.1-7-1.9-7.4-6.8c-0.5-6-1.9-11.9-1.7-17.9c0.1-1.8,0-3.6,1.6-4.7c-3.7-5-3.7-5-3.2-7.6
		c1.7,0.4,1.7,2.6,3.4,3.2c1.6-0.8,1.5-2.1,0.7-3.5c-1.4-2.7-2.5-5.5-4.2-7.9c-3.3-4.7-5.4-10.1-8.5-14.9c-1.9-2.9-2.5-6.2-2.6-9.6
		c-0.2-4.3,0.6-8.6,1.3-12.9c0.7-4,4.1-6,6.9-8.3c0.6-1.1,0.5-2.2,0.3-3.3c-1.2-5,0.7-9,4.9-11.3c4.5-2.5,5.7-7.2,8.7-10.8
		c0.6-0.8,0.3-2.4,1.9-2.4c1.7,0,1.5,1.6,2.3,2.6c6.4-5.4,10.7-12.1,13.1-20c0.9-3,1.7-6,4.3-8.3c-4.8-5.2-7-11.3-6.9-18.5
		c0.1-6,2.8-10.7,7.7-13.3c2.7-1.4,6.1-2.3,9.6-3.3c0-2.2,0.1-4.5,0-6.7c-0.3-6,0.6-11.9,1.8-17.8c1.4-6.8,5.6-12.3,8.4-18.5
		c1.6-3.7,3.8-6.9,7-9.4c1.9-1.5,3.8-3,6.1-3.6c5.6-1.5,9.6-5.2,13.1-9.6c4.2-5.2,9.8-8.3,15.9-10.8c2.1-0.8,3.9,0.3,5.9-0.4
		c3.5-1.3,7.2-1.9,10.6-3.4c4.9-2.1,7.9-6,8.6-11.5c-0.2-0.4-0.5-0.4-0.9-0.4c-0.2,0-0.5-0.1-0.7-0.2c-2-5.5-0.5-11.9-4.1-17
		c-0.3-0.5-0.6-1.3-0.4-1.7c1.7-3.6-0.4-6.3-1.5-9.4c-2-5.2-2.1-10.6,0.7-15.7c0.8-1.4,1.1-3,1.2-4.5c0.2-2.1,0.5-4,2.3-5.4
		c1.3-1-0.9-3.5,1.7-3.6c-0.2-1.1-1.3-1.2-1.1-2.2c0.7-0.8,1.4-0.4,2.2,0c1.6-0.5,2.7,0.6,4,1.4c-1-1.9-2.5-1.6-4.1-1.4
		c-0.3-3,0.8-5.5,3-7.8c-0.3-1.6-2.8-2.1-2.5-4.3c1.2-1.2,2.6,0,3.8-0.4c1.3,1.1,2.5,2.2,3.7,3.3c5-0.4,9.1-2.3,11.8-6.4
		c2.4,0.5,1.6,2,1.5,3.5c1.4,0,2.5-0.3,3-1.6c0.7-1.7,1.9-2.1,3.7-2c3.7,0.1,7.4,0,11.1-0.2c1.6-0.1,3-0.1,3.8,0.8
		c4.5-0.9,8.4-2.9,12.4-2.4c1.5,0.9,0.3,1.8,0.8,2.5c2.1-1.2,3.7-2.9,5.4-5.2c2.6,3,0.8,6.1,1.2,9.1c1.3-0.7,2.2-1.8,3.6-2.1
		c1.4-0.2,2.8-0.8,3.8,1c-0.5,2.7-3.7,2.3-5,4.3c2.3,0,4.6-1.1,6.9,0.2c-0.3,1.6-1.2,3.2-0.1,4.6c-3.1,3.2-7.6,4.1-10.1,7.9
		c0.4,3.8,0.8,7.7,1.3,11.7c0.1,0.5-0.1,1.1,0.2,1.4c3.5,5.3-0.5,10.1-0.9,15.2c-2.9,0.6-5.5,2.2-8.3,1c-1.6,1.4-0.3,3.4-1.4,4.9
		c-2.4-4.4-1-9.2,3.5-11.4c1.9-0.9,3.9-1.7,6-2.6c0.3-1,0.6-2,0.8-3.1c-3.5-4.6-2.6-10.3-3.7-15.8c-6.4,2.6-12.6,0.2-18.9-0.2
		c-2-0.1-3.6,1.4-5.4,0.8c-1.1,0.7,0.8,3.1-2.1,2.8c0.1-2.4-1.5-3.6-3.6-4.4c-0.3-0.2,0.1,0,0-0.1c-0.5,2.2,0.9,3.8,1.7,5.6
		c-0.2,2.1-2.1,1.8-3.4,2.2c-0.1,0.8,0.8,1.1,0.5,1.7c-1.3,0.6-2.5-0.3-3.6,0c-1.2,0.5-1.7,1.4-2,2.5c-1.2,3.4-2.9,6.6-5.4,9.2
		c-1,1-1.2,2.3-1.5,3.6c-0.9,3.4-2.1,6.6-3.5,9.8c-0.5,1.3-1.1,2.6-3,3.3c0-2.4-0.2-4.5-1.6-6.5c-1.2,2-1.2,4.2-1.2,6.1
		c-1,1.5-2.3,0.9-3.5,1.1c0.1,1.3,0.9,2.1,1.4,2.9c0.9,0.5,1.8-0.7,2.6,0.3c0.9,2.6-1.8,1.2-2.7,2.2c3.4,7.1-1.4,12.8-3.9,18.9
		l0.1-0.1c-6.3,7.9-15.4,9.4-24.7,10.7c3.3,1.7,6.7,3.3,10,5.1c2,1.1,3.6,2.3,4.7,4.3c1.7,3.1,4.3,5.5,6.8,7.9
		c2.5,2.4,5.1,4.7,7,7.7c0.8,1.3,2.2,1.8,3.5,2.4c2.5,1.1,5,2.2,7.4,3.6c-2.6,0.8-4.8-1.4-7.6-1.1c2.8,5.4,6,10.3,10.7,13.6
		c4.2,3.1,9.3,5,14.8,4.6c3-0.3,6-0.8,8.9-1c5.3-0.4,8.6-3.2,10.7-7.8c0.8-1.7,1.7-3.4,2.1-5.3c-0.5-1-2.2-0.7-2.2-2.1
		c0.5-1.4,2-0.3,2.9-1.1c0.6-1,0.4-2.2,0.5-3.4c-1.3-0.5-2.5,1.3-3.8-0.2c0.5-1.8,2.6-1.9,3.5-3.3c0.9-4.7-2.3-8.5-4-13.5
		c-2.5-0.9-4-5.5-8.5-5c-3.3,6.1-3.8,6.6-7.9,7.6c0.7-1.4,1.3-2.6,1.9-3.8c0.6-1.2,1.2-2.3,1.8-3.6c-1.5-1-4-0.3-4.8-3.1
		c5.6,0,11,0,16.7,0c1.6-0.7,2.1-2.4,2.6-4.2c1-3.6,2.2-7.1,3.6-10.6c1.3-3.2,1.6-6.5,1.7-9.9c0.2-4,0.8-7.8,2-11.6
		c0.9-2.8,0.3-6.1,0.3-9.2c0-0.5-0.2-0.9,0.3-1.3c1.2-0.4,1.1,0.7,1.2,1.2c1.2,5,2.4,10-0.4,15c-1.5,2.6-1,5.9-1.3,8.9
		c-0.3,3.7-0.9,7.3-3,10.6c-0.9,1.4-1.4,3.1-1.7,4.7c-0.8,3.8-2.3,7.1-5.9,8.6c-0.2,1.4,0.7,1.8,1.3,2.2c4.4,2.9,8,6.8,11.9,10.5
		c1,0.9,2,1.8,1.2,3.3c3.2,2.3,7.2,1.7,10.7,2.3c10.5,1.9,14.9,9.8,18.9,18.1c1.5,3,1.9,6.6,2.4,10.1c0.6,4.6,1.4,9.3,2.2,13.9
		c0.2,1.2,0.4,2.4-0.9,3.5c-1.5-2.2-2.2-4.6-2.6-7.1c-0.6-3.9-0.9-7.9-1.5-11.8c-1.4-8-6.1-14.2-10.7-20.6c-0.5-0.7-1.1-1.2-2-1.5
		c-5.4-1.5-10.7-3.4-16.7-4c2.6,6.3,2.4,12.7,2.3,19.2c0,2.2,0.9,4.5,1,6.7c0.1,1.9,0.5,4.2-2.3,4.7c0,2.5-0.3,4.9,0.6,7.4
		c2.8-1,4.8-2.7,5.7-5.6c2.8,1.4,1.8,3,0.7,4.2c-1.8,2-3.8,3.7-5.6,5.6c-0.9,0.9-1.8,1.9-2.7,2.8c3.9,6.4,7.3,13.1,9.8,20.3
		c0.9,2.7,2.7,4.8,4.8,6.7c2.7,2.5,5.5,4.9,8.3,8.4c-2.9-0.4-4.1-2.3-5.9-3.3c-4.9-2.7-7.9-6.8-10-12.1c-2.4-6.1-5.8-11.8-8.9-18
		c-1.5,1.3-2.8,2.4-4.1,3.5c0.4,1.7,1.9,2.6,2.5,4.1c-2.2,0.9-3.3-0.8-4.8-1.7c5.4,13.6,12.7,26.1,21.4,37.8
		c3.9,5.3,7.2,11.1,9.9,17c2.2,4.7,4.6,9.1,7.9,13c1.6,1.9,3.4,2.9,6,2.5c1.2-0.2,2.4-0.2,3.6-0.2c5.5-0.1,6.7,0.9,7.6,6.2
		c4.4,1.7,8.9,3.1,12.9,5.3c3.8,2.1,7.4,1.9,11.9,1.4c-5.3-6.1-13.8-7.3-18.4-13.6c0.2-0.4,0.7-0.4,0.9-0.2
		c3.6,3.5,8.1,5.4,12.5,7.7c3.5,1.8,7.2,3.2,10.5,5.4c1,0.6,2.6,0.2,3.9,0.2c5.9-0.1,11.8-0.3,17.6-0.2c1.8,0,4.1-0.1,4.7,2.4
		c0.7,2.5,1.1,5-0.8,7.2c-2.4,2.6-5,4.9-8.9,4.5c-2.1-0.2-4.2,0-7.1,0c2.3,1.9,4.4,2.7,6.4,3.2c5,1.1,10,2.6,15,2.5
		c3.6-0.1,7-0.8,10.2,0.7c2.1-0.6,2.9-2.7,4.8-3.3c1.7-0.5,3.2-1.7,5.3-0.8c0.9-3.2,2.1-6,1.4-9.3c-0.4-1.9,0.2-4,0.4-6.1
		c0.5-5.3-2.5-8.1-7.8-7.2c-1.4,0.2-2.9,0.2-4.3,0c-1.4-0.2-2.5,0.1-3.8,1.1c4.7,0.5,4.7,0.5,6.3,1.7
		C468,379.6,462.8,377.8,457.7,376.5L457.7,376.5z"/>
	<path d="M878.8,217.2c1.3-3.2,4.3-4.2,8.1-2.5c2.9-2,5.6-1.8,7.9,0.6c1.1,1.1,2.1,2,3.9,2.2c2.1,0.2,4.1,1.3,5.5,3
		c2.4,2.8,6.4,4.1,7.3,7.8c1.2,0.7,2.3,0.8,3.4,1c3.8,0.6,7,2.3,9.4,5.5c1.7,2.3,3.8,4.2,6.9,5.9c0.3-2.8,0-5.2,0.5-7.5
		c3.2-13.8,10.6-24.8,22.2-33c2.9-2.1,6.4-2.9,9.8-3.2c5.9-0.5,11.8,0.1,17.5,1.9c7.9,2.4,13.9,7.6,18.1,14.6
		c4.1,6.7,7,13.9,7.3,22.1c3.7,0.7,7.4,0.1,10.9,0.9c1.3,0.3,2.6,0.5,3.8,0.9c3.1,1.1,4.6,3,4.3,5.4c-0.3,3.5-2.2,5.4-5.7,5.8
		c-3.8,0.4-7.7,0.4-11.9,0.1c-1.4,5-2.5,10.1-4.5,15c-0.8,2-1.3,4.1-2.5,5.9c-2.7,4-5.4,7.9-8.2,11.8c-0.9,1.2-2.2,2.3-3.5,3.1
		c-8.8,4.9-18.2,8.3-28.2,5.4c-7.9-2.2-15-6.5-19.6-13.8c-4.2-6.6-8.3-13.2-8.8-21.4c-3.8-0.3-7.4-0.6-10.7-2.1
		c-3.1-1.4-5.8-3.4-7.9-6.1c-1-1.2-1.9-2.1-3.5-1.9c-3.5,0.5-6.9,0-10.6,0.1c-2.5,2.4-4,5.6-6.6,7.8c0.4,8.8,0.6,17.6,1.4,26.3
		c0.4,4.7,1.9,9.4,2.9,14c1.1,5.5,3.5,11.2,2.9,16.5c-0.9,8.7-2,17.6-4.8,26.1c-2.1,6.4-4.1,12.8-6.1,19.2
		c6.9,8.4,14.1,16.6,18.6,26.8c-1.4-0.1-1.2-1.4-2.2-1.5l0.1,0.1c-1.8-0.2-2.8-1.3-3.9-2.7c-3.5-4.8-6.8-9.9-10.8-14.4
		c-1.8-2.1-3.4-2.4-5.4-0.5c-2.2,2.1-4.9,3.4-7.8,4.2c-3.1,0.9-5.5,2.7-7.1,5.6c-2.2,4.2-5.2,7.8-8.8,10.9c-1.1,1-2.5,2-3.8,0.7
		c-1.4-1.4-0.3-2.7,0.7-3.7c2.2-2.2,4.1-4.7,5.9-7.3c0.7-1.1,1.7-2,1.2-3.7c-1-1.5-2.8-1.6-4.4-2.1c-3.4-1-5.9-3-8-5.7
		c-2.8-3.7-5.7-7.4-8.4-11.2c-2.7-3.7-5.9-6.8-9.5-9.7c-7-5.8-10.8-13.3-10.9-22.5c0-2.5-0.4-5-0.7-7.5c-0.4-3-0.6-6,2.2-8.2
		l0.2-0.1c1.6-0.3,3,0.2,3.6,1.7c2.2,5.8,5.5,10.8,9.7,15.3c0.4,0.4,0.6,1,0.5,1.8c-4.6-2.3-8.5-5.4-11.3-9.8
		c-1,9.8,1.3,18.5,8.7,24.8c7,6,12.9,12.8,17.5,20.8c2.2,3.8,5.3,6.1,9.7,6.6c2.8,0.4,5.7,1,8.9,1.6c3.5-1.5,6.8-4.3,10.7-5.8
		c1-0.4,1.2-1.5,1.5-2.4c3.9-9.9,7.7-19.9,8.8-30.7c0.3-2.7,0.7-5.5,1.5-8.1c2.1-7.2,0.8-14.2-0.7-21.3c-1.7-7.7-3.7-15.4-3.8-23.4
		c-2.8-2-2.5-18.6,0.6-23.1c4.6-6.8,8.7-14.1,16.1-19.1c0.7-2.3,0.3-4.5-2.4-6c-2.3-1.2-3.8-3.3-6-5c-0.2,1.4,1.5,2.4,0.4,3.8
		c-4.3-2-5.6-8.9-12.2-8.1c1,2.7,4.1,3.4,4.7,6.5c-2.8-0.5-4.4-2.4-5.9-4C884.6,215.5,881.9,215.5,878.8,217.2L878.8,217.2z"/>
	<path d="M404.9,654.4c-1.2-5.6-0.6-11.1-2.1-16.4c-0.3-1.1-1.6-1.5-1.7-2.7c-6.8-0.5-13.3-1.7-20.1,0.4c-6.3,1.9-12.9,3.1-19.4,3.7
		c-5.4,0.5-11,0-16.5-1.3c-0.4-0.1-0.8-0.5-1.3,0.1c2.7,2.2,6,3.1,9.2,4.4c-4,0.2-7.8-0.5-11.6-1.3c-1.9-0.4-2.4-2.2-3.7-3.3
		c-6.4-5.2-8.7-12.5-9.6-20.3c-1.6-14.3-3.4-28.6-3.7-43c-0.1-2.3-0.1-4.5,0.4-6.8c1-4.1,1.2-8.3,0.8-12.5
		c-0.9-10.3-1.5-20.6-1.3-31c0.5-21.5,0-43-0.4-64.4c0-1.6,0.8-2.6,1.4-3.5c7.5,20.2,15.5,40.1,23.5,60c3.3,8.1,8.4,15.4,11.9,23.4
		c5.1,11.9,10.6,23.6,15.2,35.8c1.8,4.9,3.9,9.7,6.4,14.3c6.2,11.5,10.9,23.8,17.2,35.3c0.6,1.1,0.6,2.2,0.8,3.3
		c2.5,0.6,5.2-0.3,7.6,1.8c-5.7,2.3-11.6-1.6-17.4,1.2c4.4,0.7,8.4,0.9,12.3,2.3c2.3,0.9,3.3,2.1,3.8,4.2c0.9,3.9,0.7,7.9,0.3,11.8
		c-0.2,1.9-0.6,3.8,0.4,5.5c-7.8,5.2-62,7.3-71.6,2.5c11.5,0.1,22.9,1.1,34.4,0.2C381.6,657.4,393.2,657.3,404.9,654.4z"/>
	<path d="M997.8,444.1c-2.7-0.6-2.9-2.9-4.1-4.6c-2.1-0.3-4.2-0.2-6.3,0.2c0.7,6,3.4,8.8,9.1,9.5c-0.9-1.7-1.8-3.3-2.7-5
		c0.5,0,0.8-0.1,0.8,0c2.1,3.7,5.4,4.6,9.5,4.5c3.5-0.1,7-0.2,10.3-1.4c2.5-0.9,3-2.4,2.7-5.3c-0.1-0.7,0.7-1.7,0.6-2.9
		c3.8-0.6,7.7-0.7,11.5-0.8c1.6,0,2.9,0.8,2.6,2.6c-0.5,4.1-1.5,8-4.7,11c-1.6,1.5-3.6,2.4-5.6,2.2c-4-0.5-7.9,0.3-11.8,0.8
		c-5.3,0.6-10.7,0.5-15.7-0.7c-4.4-1-8.5-3.7-9.9-8.7c-0.7-2.6-1.5-5.1-2.4-8.3c5.6,0,10.8,0,15.9,0c-0.1,1.4-1.2,1.8-1.9,2.5
		C995.8,441.3,997.1,442.4,997.8,444.1z"/>
	<path d="M289.6,446.9c-1.1-0.7-1.9-1.6-2.6-2.6c-0.1-0.3-0.4-0.6,0-0.9c0.5-0.3,0.9-0.2,1.3,0.1l-0.1-0.1c3.3,1.6,6.9,2.7,10.4,3.7
		c4.3,1.3,8.9,0.5,13.6,0.7c-0.6-5,3-6.5,5.7-8.7l-0.1,0.1c1.5,1,3.5,1.1,4.5,0.1c1.8-1.7,4.1-1.7,6.2-2.6c0.3-2-1.2-3.6-1-5.6
		c1.8,1.9,0.8,5.1,3.1,6.4c2.1,1.1,4.4-0.4,6.7-0.1c0.2,0,0.4,0.3,0.9,0.6c-0.8,3.7-2.3,7.2-4.8,10.6c2.5,6.4,5.1,12.9,7.6,19.3
		c0.1,0.2,0.1,0.4,0.2,0.6c-0.2-0.1-0.4-0.2-0.6-0.2c-3-4.1-4.1-9.1-6.2-13.7c-0.7-1.5-1.2-3.1-1.8-4.7c-0.9-0.3-1.4,0.4-1.9,0.8
		c-6.3,5.4-13.9,5.8-21.5,5.2c-3.6-0.3-7.3-1.9-10.9-2.8c4.7-0.1,9.2-0.1,13.9,0.4c6.7,0.7,13.3,0.2,17.6-6.3
		c1.8-2.7,4.2-4.8,6.2-7.7c-6.4-0.2-12,2.9-18.4,2.2c-2,2.4-3.8,5.3-4.9,8.6c-5.5,1.4-11.1,1.2-16.3,1.6c-1.8-0.5-1.1-3.2-3.3-2.7
		l0.1,0.1C292.2,448.4,290.6,448.1,289.6,446.9z"/>
	<path d="M448.6,378.5c-2.2-0.1-3.6-1.7-4.8-3.3c-2.9-4.1-6.5-7.4-9.9-10.9c-4.5-4.7-8.8-9.5-12.4-14.9c-1.7-2.5-4.1-4.4-6.2-6.5
		c-2.2-2.2-4.7-4.1-7.1-6.1c-3.3-2.8-7.3-4.2-11.4-0.5c0-3.3,2.6-5,5.4-4.2c6.2,1.6,10.6,5.9,15.2,9.8c6.4,5.2,11,12.1,16.3,18.2
		c2.4,2.8,4.8,5.7,7.6,8.1c2.8,2.5,4.5,5.9,7.5,8.2C449.3,376.8,449.4,377.5,448.6,378.5z"/>
	<path d="M380.1,288.6c4.9,2.1,8.3,5.9,12,9.7c-0.6,1.5-0.7,2.8,0,4.3c3.2,6.6,5.5,13.5,5.8,21c0.1,2.7,2,4.7,2.9,7.7
		c-2.7-1-3.3-3-3.8-4.8c-1.1-3.6-1.9-7.2-2.8-10.8c-1.4-5.3-3.5-10.4-5.7-15.5c-1.3-2.9-3-5.4-5.4-7.5
		C381.8,291.7,380.3,290.7,380.1,288.6z"/>
	<path d="M312.9,172.7c2.9-2.5,5.4-5,9.7-3.8c1.7,0.5,3.9-0.2,5.9,0.1c2.5,0.5,4.2,1.6,4.4,4.4c-0.8,1.4-2.2,0.4-3.2,0.8
		c-0.8,0.7-1.3,1.6-1.5,2.6c-4.5,0.7-8.7,0.3-13-0.6c3.6-2.3,7.5-2.8,11.7-3.1C322.4,171.5,317.9,169.7,312.9,172.7z"/>
	<path d="M816.7,183.7c-0.9,1.2-2.3,0.2-3.1,0.5c-0.9,0.8-1.4,1.6-1.4,2.5c-4.5,1-8.7,0.1-13.1-0.3c3.5-2.5,7.5-2.8,11.8-3
		c-2.3-2.4-6-0.4-7.8-2.6c-2.4,0-3.7,2.7-6.8,1.7c3.5-2.1,5.9-4.6,10.2-3.5c1.8,0.5,4.2-0.3,6.3,0.2
		C815.7,180,815.9,180.1,816.7,183.7z"/>
	<path d="M1008.8,499.5c3,26.9,0.4,53.7-1.2,80.6C1008.4,553.3,1009.9,526.4,1008.8,499.5z"/>
	<path d="M523.8,569.9c0.8-26.9,2.4-53.6,1.2-80.5C528.1,516.4,525.5,543.2,523.8,569.9z"/>
	<path d="M299.3,208.3c4.7,3.2,10,5.7,13.8,10.5c-1.9,1-2.7-0.2-3.6-0.8c-3.1-2.1-6.1-4.3-9.1-6.4c-1-0.7-1.9-1.8-3.9-0.6
		c0.6-5-3-8.3-2.7-12.6c0.1-1.9,0.3-3.7,2.8-5.6C295.5,198.8,297.9,203.4,299.3,208.3z"/>
	<path d="M457.6,376.4c5.7,2.3,7.2,6.8,6.7,12.5c-0.1,0.8,0.2,1.7,0.3,2.5c0.3,3.8-1.1,5.4-5.3,5.9c-0.3-1.3,0.9-1.5,1.6-2.1
		c1.3-1.1,2-2.4,1.6-4.1c-0.7-2.9-0.7-5.9-0.4-8.9c-6.4-3.9-7.8-4.3-11.3-3.4c-0.6-2.1,0.6-2.9,2.4-2.9
		C454.6,375.9,456.1,376.3,457.6,376.4L457.6,376.4z"/>
	<path d="M474.4,394.4c-2.8-4.7-1.6-9.6-1-14.6c1.8-0.6,3.5-0.7,5.1-1.5C478.5,384.1,475.4,388.9,474.4,394.4z"/>
	<path d="M959.8,638.9c1.4-1.8,3-2.2,4.6-2.8c6.1-2.2,12.6-3.9,17.5-8c3.5-2.9,7.2-4.9,11.4-7.3c-0.2,1.9-1.6,2.8-2.7,3.7
		c-4.8,3.9-10,6.9-15.8,9.1c-4.6,1.7-9.3,3.1-13.7,5.3C960.9,639.1,960.5,638.9,959.8,638.9z"/>
	<path d="M476.2,628.8c1.1-1.8,2.9-2.2,4.5-2.7c6.1-2.2,12.6-3.9,17.5-8c3.5-2.9,7.2-4.9,11.4-7.3c-0.4,1.9-1.7,2.8-2.8,3.7
		c-4.6,3.7-9.6,6.7-15.1,8.8c-4.8,1.9-9.7,3.2-14.3,5.6C477.1,629,476.7,628.8,476.2,628.8z"/>
	<path d="M878.7,217.1c1.4,1.8,3.6,2.6,5.1,4.2c1,1,1.9,1.9,0.4,3.5c-2.4-1.1-3.6-4.1-6.7-4.6c-1.6,0.4-3.2,1.4-4.8,2.3
		c-1.4,1.5-0.6,4.2-2.7,5.3c-1.8-2.8-1.4-5.5,1.1-6.8C873.6,219.6,876,218,878.7,217.1L878.7,217.1z"/>
	<path d="M875.3,253.3c2.4,1.4,2.5,2.9,2.2,4.3c-2.4,10.8-4.2,21.7-7.2,32.4C871.6,277.9,875.6,266.2,875.3,253.3z"/>
	<path d="M341.1,467.9c1,0.6,1.4,1.7,1.8,2.6c4.5,11.5,11.4,21.9,16.1,33.3c0.7,1.7,1.4,3.5,1.8,5.4c-6.2-13.9-14.3-26.8-20-40.9
		C340.8,468.1,340.9,468,341.1,467.9z"/>
	<path d="M824.9,478c1,0.6,1.4,1.7,1.8,2.6c4.5,11.5,11.4,21.8,16.1,33.3c0.7,1.7,1.4,3.5,1.8,5.4c-6.2-13.9-14.3-26.8-20-40.9
		C824.6,478.2,824.7,478.1,824.9,478z"/>
	<path d="M794.4,498.5c1.3,12.9-0.7,25.5-0.3,38.3c-1.1-1.9-1.2-3.9-1.1-5.9C793.5,520,793.9,509.2,794.4,498.5z"/>
	<path d="M310.1,526.7c-1.7-12.6,0.4-25.1,0.7-37.6C311.9,501.6,309.9,514.2,310.1,526.7z"/>
	<path d="M792.1,603.1c-0.4-11.8-0.8-23.6-1.2-35.4c1.9,11.7,2.3,23.5,2,35.4C792.6,603.1,792.4,603.1,792.1,603.1z"/>
	<path d="M308.3,593c-0.4-11.8-0.8-23.6-1.2-35.4c1.9,11.7,2.3,23.5,2,35.4C308.8,593,308.6,593,308.3,593z"/>
	<path d="M467,398.4c1-2.8,0.8-4.7,0.1-6.7c-1.2-3.7-0.5-7.4,0.8-10.9c1.1,0.1,1.5,0.5,1.4,0.9c-1,4.1,0.6,8,1,12
		C470.4,396,469.7,397.3,467,398.4z"/>
	<path d="M749.5,331.3c2.6,2.5,1.2,6.5,4,8.1c2.5,1.4,4.8,3,7,4.9c-2.5,1.5-3.7,1.5-5.6-0.3c-1.7-1.8-3.4-3.7-4.7-5.7
		C749,336.3,748.2,334.2,749.5,331.3z"/>
	<path d="M340.5,211.9c-2.8,2.1-6.9,2.4-10.1,0.6c0.6-2.3,1.9-3.9,4.4-3.6C337,209.1,339.7,208.8,340.5,211.9z"/>
	<path d="M343.3,204.8c-1.5,1.3-8.8,2.4-14.6,2.4c-1.2,0-2.5,0.4-3-1.2C327.4,204.5,340.6,203.6,343.3,204.8z"/>
	<path d="M793.7,414.4c4.1,8.3,9.7,15.8,13.2,24.5C801.1,431.5,796.9,423.2,793.7,414.4z"/>
	<path d="M862.3,651.1c0.9-1,1.3-2,2.7-2c6.2,0.1,12.3-0.4,18.6-1.6c-0.1,2.3-1.6,2.5-2.9,2.6c-3,0.2-6,0.3-9,0.5
		C868.8,650.8,865.8,650.9,862.3,651.1z"/>
	<path d="M378.9,640.9c0.6-0.8,0.9-1.9,2.1-1.9c6.3,0.1,12.6-0.4,19-1.6c-0.3,2.5-2,2.5-3.5,2.7
		C390.6,640.9,384.7,640.1,378.9,640.9z"/>
	<path d="M335.2,249c-7.5,3.3-15.1,6-23.3,7.5C313.5,254.7,332.4,248.5,335.2,249z"/>
	<path d="M776.4,343.3c-1.6,3.2-3.6,6-6.5,8c-1.5,1-3,1.6-4.3-0.7C769.1,348.1,771.8,344.3,776.4,343.3L776.4,343.3z"/>
	<path d="M302,218.8c2.1,1.7,7.6,18.4,8.6,26.5C307,236.6,305.1,227.5,302,218.8z"/>
	<path d="M731.3,296.1c-1.5,0.7-2.6,0.5-3.5,0c-1.4-0.8-2.8-0.8-4.4-0.4c-3,0.6-5.4-0.9-7.2-4.1c1.2-1.7,2.4-0.9,3.6,0
		c2.1,1.6,3.9,3.2,7,2.3C728.3,293.4,729.8,294.8,731.3,296.1z"/>
	<path d="M801,651.8c5.6,5,11.8,9.2,17.1,14.4C811.5,662.5,806.1,657.3,801,651.8z"/>
	<path d="M334.3,656.1c-6.6-3.7-12-8.9-17.1-14.4C322.8,646.6,328.9,650.9,334.3,656.1z"/>
	<path d="M384.2,352.4c3,1.1,6.3,1.9,5.8,6.3c-0.2,1.5,1.4,2.4,2.3,3.5c0.8,1.1,2.4,1.7,2.1,3.5c-3.7-0.8-6.2-5-5.7-9.5
		C387.7,354.3,385.2,354.2,384.2,352.4z"/>
	<path d="M884.8,615.7c2.5,6.8,5.3,13.4,7.7,20.2C888.5,629.7,885.9,623,884.8,615.7z"/>
	<path d="M769.3,332.6c-1-4.8,0.7-9.7-0.7-14.5C770.9,322.8,771.3,327.6,769.3,332.6z"/>
	<path d="M401,605c2.5,7.3,5.2,14,8.3,20.9C406.2,624,401.4,611.6,401,605z"/>
	<path d="M382.5,559.2c3.9,6.7,7.9,13.4,11.8,20.2c-0.2,0.1-0.5,0.3-0.7,0.4C389.4,573.2,385.2,566.7,382.5,559.2z"/>
	<path d="M866.2,569.3c4,6.7,7.9,13.4,11.9,20.2c-0.2,0.1-0.5,0.3-0.7,0.4C873.2,583.3,869,576.7,866.2,569.3z"/>
	<path d="M333.7,196.3c1.7-3,5.4-3.8,8.2-1.8c0.1,0.5-0.1,0.9-0.5,1.3c-0.8,0.7-2,0.9-2.7,0.5C337,195.1,335.4,198.8,333.7,196.3z"
		/>
	<path d="M825.9,204.7c-1.6,1.7-6.6,2.6-8.4,1.7C819.1,203.4,822.8,202.6,825.9,204.7z"/>
	<path d="M385.3,336.4c-4.8-2.3-10-3.7-13.5-8.3C373.3,328.2,384,334.6,385.3,336.4z"/>
	<path d="M996.4,616.7c2.7-5.2,4.6-10.7,7.2-16.6C1003.9,604.2,999.9,613.2,996.4,616.7z"/>
	<path d="M512.7,606.6c2.6-5.2,4.6-10.6,7.1-16.5C520.2,593.9,516.3,602.7,512.7,606.6z"/>
	<path d="M287.3,235.4c-1.8-5.2-3.3-8.1,0.2-11.6C287.1,228.1,287.7,231.7,287.3,235.4z"/>
	<path d="M880.5,312.8c-0.5-5.6,0.2-11.1,1.8-16.5C882.7,301.9,880.5,307.2,880.5,312.8z"/>
	<path d="M792.5,313.7c0.2-5.1-0.5-10.3,2.1-15.1C793.1,303.5,794.5,308.8,792.5,313.7z"/>
	<path d="M771.3,221.5c1.8-0.3,1.7,0.9,1.4,2c-0.8,3.2-1.7,6.4-2.9,9.5C769.4,229,770.5,225.2,771.3,221.5L771.3,221.5z"/>
	<path d="M287.5,211.4c1.8-0.3,1.7,0.9,1.4,2c-0.7,3.2-1.5,6.4-2.9,9.4C285.6,218.9,286.7,215.1,287.5,211.4L287.5,211.4z"/>
	<path d="M318.3,639.3c-3.5-4.6-5.7-9.6-6.7-15.3C313.7,629.1,316.2,634.1,318.3,639.3z"/>
	<path d="M802.1,649.3c-3.4-4.6-5.7-9.6-6.7-15.2C797.6,639.2,800,644.2,802.1,649.3z"/>
	<path d="M310.2,263.6c2.5-3.3,5.2-6.3,9.4-7.4C316.4,258.7,313.8,261.8,310.2,263.6z"/>
	<path d="M899.6,235c-1.8,2.5-1.7,6.1-5.2,8.6C895.2,239.5,895.9,236.4,899.6,235z"/>
	<path d="M745.1,297.1c-0.1-3.3,0.6-6.4,2-9.3C747.2,291.1,747.9,294.5,745.1,297.1z"/>
	<path d="M433.7,375.4c3.1,1.3,5.6,2.3,8.4,3.5C439.6,380.6,436.5,379.3,433.7,375.4z"/>
	<path d="M368.9,532.3c2.8,4,4.1,8.7,6.2,13C372.6,541.2,370,537.1,368.9,532.3L368.9,532.3z"/>
	<path d="M822,229.5c-0.4-4.4,0.4-5.8,3.2-5.4C825.4,226.6,823.2,227.7,822,229.5z"/>
	<path d="M321.2,257.5c2.4-2.4,5.3-3.1,9.4-3C327.2,256.8,324.2,257.1,321.2,257.5z"/>
	<path d="M768.9,339.4c0.9,2.8-0.5,3.9-2,4.8c-1.2,0.7-2.3,1.1-3.4-0.4C765.2,342.3,767.3,341.6,768.9,339.4z"/>
	<path d="M309.4,537.9c0.3,2.8,0.6,5.7-0.5,8.5C308.5,543.6,308.3,540.8,309.4,537.9z"/>
	<path d="M858.6,349.6c2.2,2,2.9,4.5,2.4,7.5C858.5,355.1,859.3,352.1,858.6,349.6z"/>
	<path d="M374.4,341.8c1.9,2.5,3.7,5,5.6,7.4c-3.2-1.5-5.3-3.7-6.3-6.9C374,342.2,374.2,342,374.4,341.8z"/>
	<path d="M792.4,557.2c-0.1-3.5-0.3-6.3,0.6-9.5C793.8,551.5,793.7,553.8,792.4,557.2z"/>
	<path d="M853.5,281.6c-2.4-0.5-4.9-1-7.7-1.5C849,278.8,851.4,279.2,853.5,281.6z"/>
	<path d="M805.4,271c-0.1,3-0.8,5.7-3.8,7.2C802.9,275.8,804.1,273.4,805.4,271z"/>
	<path d="M739.3,297.7c-2.6,0.7-4.3-0.1-5.8-1.6C735.6,294.8,735.6,294.8,739.3,297.7z"/>
	<path d="M904.6,228.7c1.3,2.8,0.4,4.2-3.5,5.7C902.3,232.4,903.4,230.6,904.6,228.7z"/>
	<path d="M776.4,343.4c0.1-2.4,1.4-4,3.8-5.6C779.7,340.7,779.4,343,776.4,343.4L776.4,343.4z"/>
	<path d="M365.4,281.5c1.9,1,3.8,2,5.6,3.1C368.2,285.4,366.6,283.8,365.4,281.5z"/>
	<path d="M849.9,653.9c-1.9,0.2-3.8,0.1-5.7-0.8c1.9,0,3.8,0,5.8,0C849.9,653.3,849.9,653.6,849.9,653.9z"/>
	<path d="M877.4,324.6c-0.3,2.8-1.5,5-4.1,6.3C874.7,328.7,876.2,326.7,877.4,324.6z"/>
	<path d="M861,340c2.1-1.2,4.1-2.5,6.3-3.8C865.9,338.7,864.6,339.6,861,340z"/>
	<path d="M807.7,265.3c0.6-1.9,0.6-4.1,3.4-5.3C810.1,262.3,809.5,264.2,807.7,265.3z"/>
	<path d="M769.7,314.2c0.5-2,0.8-4,2.4-5.7C772.3,311.4,772.1,311.8,769.7,314.2z"/>
	<path d="M804.5,250.5c1.2-1.5,2.3-2.9,3.5-4.4c0.2,0.2,0.5,0.4,0.7,0.5C807.8,248.3,807.6,250.5,804.5,250.5z"/>
	<path d="M838.2,286.9c1.2-1.9,2.5-3.6,5.1-3.3c-1.5,1.3-2.7,3.1-4.8,3.7C838.4,287.2,838.3,287.1,838.2,286.9z"/>
	<path d="M395.2,590.7c1.4,1.6,2.2,3.5,2.7,5.5C396.5,594.6,395.9,592.6,395.2,590.7z"/>
	<path d="M879,600.8c1.4,1.6,2.2,3.5,2.7,5.5C880.3,604.7,879.6,602.7,879,600.8z"/>
	<path d="M367,643.5c-2.1,0.6-3.4,0.5-4.7,0.2C364,642.8,364,642.8,367,643.5z"/>
	<path d="M796.4,335.5c-0.9,2-1.7,4-2.6,5.9c-0.4-2.5,0.5-4.4,1.9-6.2C796,335.3,796.2,335.4,796.4,335.5z"/>
	<path d="M432.8,375c-2.6-0.8-3.5-2.4-4.6-3.6C430.1,371.7,431.4,372.7,432.8,375z"/>
	<path d="M788.4,325.6c-0.3-2.2,0.5-3.8,2.3-5.5C790.8,322.5,789.5,324,788.4,325.6z"/>
	<path d="M781,314.9c0.9,2-0.3,3.5-0.6,5.5C779.6,317.6,779.6,317.6,781,314.9z"/>
	<path d="M784.2,332.8c-0.5,1.7-0.8,3.5-3,4.5C781.5,335,782.4,333.6,784.2,332.8z"/>
	<path d="M888.2,258.2c-1-2.5-1-2.5,0.2-4.3c0.1,0.2,0.4,0.4,0.4,0.5C888.7,255.8,888.4,257,888.2,258.2z"/>
	<path d="M313.2,250.9c-1-1.2-1.6-2.6-2.7-3.8C313.2,246.9,313.4,247.3,313.2,250.9z"/>
	<path d="M775.1,331c-0.2-1.8,0.7-3,1.5-4.5C776.9,329.1,776.9,329.1,775.1,331z"/>
	<path d="M852.7,542.4c1.6,1.9,2.5,4,2.9,6.5l0,0C854,547,853.1,544.8,852.7,542.4L852.7,542.4z"/>
	<path d="M855.7,548.8c1.6,1.4,2,3.4,2.6,5.3C857,552.5,855.7,551,855.7,548.8L855.7,548.8z"/>
	<path d="M846,323.1c1.6,0.2,2.1,1.3,2.6,2.6C846.6,325.4,846.6,325.4,846,323.1z"/>
	<path d="M327.1,235.9c0.7,2-0.4,2.9-1.1,4.3C325.7,238.5,326,237.4,327.1,235.9z"/>
	<path d="M288,240.6c-0.8-1.4-0.9-2.3,0.1-3.6C289.3,238.4,288.9,239.3,288,240.6z"/>
	<path d="M814.5,227.5c0.4,1.6,0.4,2.7,0.2,4.2C813.1,230.4,813,229.3,814.5,227.5z"/>
	<path d="M319.2,235.1c-1,1.2-2.2,1.1-4.2,0.6C316.7,234.8,317.9,234.8,319.2,235.1z"/>
	<path d="M872.2,363.3c-1.3-0.2-2-0.6-1.7-2.1C872.1,361.1,872.4,361.9,872.2,363.3z"/>
	<path d="M842.5,320.5c1.2,0.3,1.8,0.8,1.6,2.2C842.5,322,842.5,322,842.5,320.5z"/>
	<path d="M364,280.4c-1.4,0.4-1.9-0.1-2.2-1.2C363.1,278.5,363.7,278.9,364,280.4z"/>
	<path d="M876,252.1c-1.2-1-1.2-1.9-1.4-3.1C875.8,249.7,876.2,250.4,876,252.1z"/>
	<path d="M785.8,225.8c-1.3,0.2-2-0.4-2.4-2C784.6,224.1,785.8,224.1,785.8,225.8L785.8,225.8z"/>
	<path d="M302,215.6c-1.4,0.1-2-0.5-2.7-2.2C300.7,214.1,301.7,213.9,302,215.6z"/>
	<path d="M855.7,344.5c1.4,0.6,1.7,1.2,1.3,2.2C856.1,346.4,856.2,345.6,855.7,344.5z"/>
	<path d="M809.5,244.9c0.2-1,0.8-1.6,1.7-1.9C811.9,243.7,811.6,244,809.5,244.9z"/>
	<path d="M829.5,228c-0.1-1.4,0-2.3,1.4-2.4C831.2,226.7,830.6,227.2,829.5,228z"/>
	<path d="M814.6,226.6c-0.3-1.3-0.4-2.2,1-2.3C816.4,225.4,815.7,225.9,814.6,226.6z"/>
	<path d="M660.8,221.1c-0.8,0.3-1.5,0.6-2-0.2C659.5,220.1,660.1,220.4,660.8,221.1z"/>
	<path d="M852.8,542.3c-0.9-0.6-1-1.7-1.3-2.8C852.8,540.2,852.8,541.3,852.8,542.3L852.8,542.3z"/>
	<path d="M369,532.2c-0.9-0.6-1-1.7-1.3-2.7C369,530.1,369,531.2,369,532.2L369,532.2z"/>
	<path d="M741.7,295.2c0.9-0.1,1.4,0.2,1.8,1.1C742.4,296.7,741.7,296.8,741.7,295.2z"/>
	<path d="M824.3,237.3c0.3,1.5-0.3,1.8-0.6,2.3C823,238.7,823.7,238.3,824.3,237.3z"/>
	<path d="M787.1,351c0.1,0.8-0.2,1.2-0.9,1.4C785.7,351.4,786.7,351.3,787.1,351z"/>
	<path d="M466.1,630.7c-0.2,0-0.5,0.1-0.7,0.1c-0.1,0-0.1-0.1-0.2-0.2C465.5,630.5,465.9,630.4,466.1,630.7z"/>
	<path d="M949.7,640.9c-0.2,0-0.4,0-0.8-0.1c0.2-0.1,0.4-0.2,0.5-0.2C949.8,640.6,949.9,640.7,949.7,640.9z"/>
	<path d="M891.9,230.8c-0.2-1.3,0-1.9,1.1-2C893.4,229.9,892.8,230.3,891.9,230.8z"/>
	<path d="M802.4,235.6c0.1-0.5,0.3-1,0.9-0.7C803.4,235.7,803.1,236,802.4,235.6z"/>
	<path fill="#FFFFFF" d="M826.7,302.3c-0.9,1.1-0.7,2.5-0.7,3.8c0,4.8,0.7,9.5,1.1,14.3c0.5,7.5,4,14.1,10.1,18.8
		c4.2,3.3,7.7,7.2,10.9,11.4c2.7,3.6,5.3,7.1,7.9,10.7c1.4,1.9,3.1,3.3,5.4,3.9c2.8,0.7,5.5,1.5,8.8,2.4c-2.5,6.5-7,11.2-11.4,16
		c5.5-4,9.9-9,12.6-15.5c2.7-2.4,6.4-2.8,9.6-4.1c3.3-1.4,5.5-4.1,7.9-6.9c6.2,7.6,12,15.2,17.2,23.2c-1.2,0.6-1.2,1.8-0.9,2.8
		c0.9,3.1-0.5,5.6-2,8c-2.5,4.2-5.7,8-8,12.4c-1.4,2.6-4.4,3.5-7.2,3.1c-7.2-1.1-14.1,0.5-21.1,1.2c-3,0.3-6,0.5-9,0.6
		c-9.8,0.5-19.6,1.2-29.3,2.6c-0.3,0-0.7,0-1.3-0.1c-1.4-3.3-4.3-3.6-7.5-3.4c-7.3,0.6-14.6,0.5-21.9,1.7c-2.6,0.4-5.2,0.5-7.9,0.5
		c-2.8,1.9-4.5,4.9-6.9,7.5c-8.9-1-17.8,0-26.8,0.9c-5.8,0.6-11.7-0.5-17.3-2.5c-2.5-0.9-4.2-2.8-5.5-5c-2-3.3-4-6.6-5.8-10
		c-1-2-2.1-3.8-2-6.4c0.1-2.2-1.9-4.1-3-6c-2-3.5-3.6-7.3-6.8-10c-0.8-0.7-1.3-1.7-1.9-2.6c-6.6-10-13.6-19.8-18.5-30.8
		c-1.4-3.1-4.3-4.3-7.1-5.8c-9-4.6-12-18.1-5.8-25.8c1.3-1.7,2.8-3,5.1-2.7c0.6,0.1,1.1-0.3,1.6-0.4c3-0.9,5.9-3.1,9.3-0.8
		c0.7,0.5,2.3-0.5,3.4-0.6c6.1-0.4,12.2-0.7,18.7-1.1c3.1,5.1,5.8,10.6,7.2,16.5c1.3,5.6,4,10.5,7.6,14.9c2.1,2.6,5.3,3.5,7.6,5.8
		c1.2,1.2,2.6,2.1,3.5,3.6c3.9,6.2,10.3,9.4,15.8,13.7c0.1,0.1,0.5,0,0.7,0c1.1-0.2,0.8-1.3,1.4-2.1c2.2,1.2,4.9,0.7,7.1,2
		c3.7,2.1,7.7,3.2,11.7,4.5c2.6,0.8,4.9-0.4,7.7-1c1.5,1.1,3.2,2.4,4.9,3.6c1.7,1.2,3.6,2.3,5.8,2c-3.6-1.7-6.8-4.1-10-6.8
		c2.5-4.6,4.3-9.4,6.8-14.1c6.8-12.4,15.2-24.1,18.1-38.4c0.4-2,0.8-4,1.2-6.2C821.7,306,823.9,303.5,826.7,302.3z"/>
	<path fill="#FFFFFF" d="M721.6,598.5c-0.6,0.2-1.2,0.1-1.7-0.4c0.3-8.2,0.8-16.4,1.6-24.6c1.1-11.9,0.1-23.7-1.4-35.5
		c-1.4-11.4-5.4-22.1-6.6-33.5c-0.4-3.7-0.5-7.4-0.7-11.1c-0.1-1.8,0.4-3.6-0.9-5.2c-0.4-0.5-0.3-1.1-0.2-1.7
		c1.4-7.6,2.4-15.4,6.7-22.2c0.6-1,1.2-2.1,1.3-3.6c-0.7-1.9-2-3.4-5.4-3.7c3.8,2.8,3.4,5.6,1.2,8.5c-3.9,0.3-8-1.2-11.9,0.9
		c3.2,1.9,6.3,3.5,10.1,3c-1.1,6.8-4.1,13-4.1,20.2c-3.1-2.4-5.9-4.6-8-7.8c0.4-1.3,2.4-0.6,2.6-2.1c-0.9-1.2-2.3,0.4-3.4-0.8
		c-0.1-2.3,0.7-4.7,1.1-7.2c0.8-5,1.6-10,2.1-15c1-9.4,5.6-16.7,13-22.3c4.5-3.4,8.7-7.2,14.4-8.5c1.4-0.3,3.4-0.5,3.9-2.7
		c0.1-0.4,2-0.5,3.1-0.5c1.8,0,3.6,0.2,5.4,0.4c-0.1-0.7-0.1-1.3-0.2-2.4c6.5,2.7,11.9,6.5,17.3,10.1c-1.6,4.1-2.1,7.6,0.6,10.8
		c0.2,0.3,0.4,0.6,0.4,1c0.5,5,2.7,9.9,1.3,15.1c-1-0.2-1.2-1.7-2.9-1.4c0.8,4.4-0.3,8.6-2,13c-0.9,0.5-1.3-1.8-2.9-0.5
		c-0.4,4.2,0,8.8,1,13.1c2.2,9.2,0.8,18.1-1.1,27.1c-3,14.8-6,29.6-9.1,44.4c-2.7,12.8-2.3,25.5-2.4,38.3c0,2.4,0,4.8,0,7.8
		c-5.7-0.9-10.8-3.2-16.5-3.3c0.1-3.5-0.7-6.5-1.8-9.7c-2.4,2.7-0.6,5.8-1.4,8.6c-0.9,0.6-2.3,0.3-3.5,1.9
		C720.6,597.4,721.4,597.9,721.6,598.5L721.6,598.5z"/>
	<path fill="#FFFFFF" d="M854.6,630.8c8.1,1.4,16.2,3.4,24.8,3.4c0.9,0.9,1.3,2.3,1.9,3.8c-7.1,1.7-14.5,0.4-21,2.9
		c-0.8,1.6,1.1,1.9,0.5,3.4c-6.6,0.1-13,2.4-20,2.7c-6.3,0.3-11.8-1.2-17.3-3.7c-1-0.5-2-0.2-3.3-0.4c-4.7-7.7-6.7-16.1-5.8-25.2
		c0.5-4.8-0.2-9.6-0.9-14.4c-1.5-10.8-2.1-21.7-1.7-32.7c0.4-9.3,1.1-18.7,0.6-28.1c-0.4-7.8-1.4-15.5-1.6-23.4
		c-0.1-5.1,0.7-10.1,0.6-15.1c-0.1-8,0-16.1,0-23.7c2.2,6.7,5.7,13.4,8.5,20.5c2.9,7.4,5.8,14.8,8.6,22.1c1.8,4.7,4,9.2,6.5,13.6
		c7.3,12.9,13,26.5,18,40.4c3.1,8.6,6.4,17.1,10.8,25.1c4.9,9,8.9,18.3,13.2,27.6c0.2,0.5,0.7,1,0.3,1.9c-6.4-2.1-13.3-2.1-20.4-3.7
		c2.6-4.4,3.8-8.8,3.6-13.6c0-1.1,0.1-2.2-0.2-3.2c-1.7-5.1-2.5-10.3-1.3-15.6c0.1-0.3,0-0.7-0.1-1.1c-0.1-0.2-0.3-0.3-0.5-0.5
		c-1.3-0.1-1.5,0.9-1.8,1.8c-1,3.7-1.3,7.4-0.2,11c1.8,6,1.3,11.8-1,17.6C855,626.1,853.4,628.1,854.6,630.8z"/>
	<path fill="#FFFFFF" d="M661.7,376.5c-0.1,1.1,0.3,1.8,1.4,2.2c1.5,0.6,3,1.4,4.6,2.1c-5.4,6.4-9.9,12.8-12.8,20.6
		c-2.7,7.5-6,14.7-5.6,23.2c2.3-0.4,2.3-1.8,2.5-3c0.7-3.8,1.2-7.6,2-11.3c1-4.8,3.1-9.3,4.8-13.9c1.6-4.1,4.5-7.1,6.7-10.6
		c0.6,0.3,0.7,1,1.3,0.8c1.3-1.2,1.9-2.9,2.5-4.8c7.3,3.6,15,5.9,21.9,9.9c-4.5-0.3-9.1-0.7-13.6-0.9c-2.6-0.1-4.8,0.1-6.1,3.2
		c-0.9,2.1-3.5,3-5.2,4.7c2.9-1.7,6.9-0.9,9.1-4.2c0.2-0.3,0.8-0.5,1.3-0.6c5.9-0.3,11.6,0.3,18.2,1.5c-4.7,2.3-8.6,4.1-12.2,6.4
		c-3.8,2.5-7.5,5.2-10.7,8.5c-1.2,1.3-2.6,2.5-2.4,4.6c0.1,1.3-1.3,1.9-2,2.8c-5.4,6.1-9.3,12.8-9.2,21.3c0,1.1-0.4,2.5,0.9,3.1
		c3.1-18.8,15.2-29.6,31.9-36.5c1.5-0.6,3.3-0.7,4.4-2.9c-3.4-0.9-6,0.8-8.6,1.8c-2.6,1.1-5.1,2.4-7.8,3.3
		c7.5-4.6,14.2-11.3,24-10.7c5.7,0.4,11.5,0.9,17.2,2c1.4,0.3,2.9,0.9,3.6-2c1.4,2.9,2.5,5,3.5,7.2c-0.5,0.5-1,1.1-1.5,1.6
		c4.4,2.3,5.9,6.8,9.4,11.5c3.4,1.7,8.8,1.3,13.8,2.5c-2.8,0-5.7,0.4-8.4-0.1c-4.6-0.8-8.5,1.3-12,3.2c-6.7,3.7-12.8,8.5-18.2,14
		c-5,5-8.1,11.1-9.1,18.3c-1,7.4-0.4,15.1-3,22.6c-5.5-5.1-13-7.3-18.3-12.8c-3.3-3.4-8-4.9-12.2-6.9c-2.2-1-4.4-1.9-6.4-3.2
		c-2.2-1.4-4-3-4.2-6.2c-0.1-3.6-1.3-7.1-3.3-10.2c-3.2-4.9-5.3-10.4-8.5-15.4c-2.3-3.7-2.8-7.8-2.5-12.1c0.2-2.6,1-5.2-0.1-7.6
		c1.8-2.5,4.1-4.3,6.1-6.3c3.1-3,7.2-5.1,9-9.4c0.7-1.8,1.6-3.5-0.2-5.3c-2.8,2.1-3.6,5.4-5.5,8.4c-0.5-1.8-0.8-3.1-1.2-4.5
		C653.7,382.2,657.8,379.5,661.7,376.5L661.7,376.5z"/>
	<path fill="#FFFFFF" d="M872.4,496.2c0.6,4-1.8,7.4-2,11.3c-2.3-3.5-4.2-7.3-5.6-11.2c-1.8-5.2-3.5-10.5-5.7-15.5
		c-1-2.4-2.5-4.6-3.9-6.8c-2-3.4-1.9-6.5,0.7-9.7c-1.7-3.1-2.1-6.8-4.3-10.2c-0.9,1.6,0.2,2.5,0.1,3.8c-3.7,2.3-0.6,4.9,0.1,7.6
		c-1.8-1.6-2.6-3.7-3.4-5.7c-3.9-10.3-7.7-20.7-11.7-30.9c-2.1-5.4-4.2-10.9-8.3-15.6c9.6-0.2,19-1.7,28.5-1.1c0,0.3,0,0.6,0,0.9
		c-3.3,0.8-6.6,1.6-9.9,2.3c-2.9,0.7-5.3,2.4-7.4,4.3c-2.8,2.5-3,4.4-1.2,8.4c0.3-5.9,4.5-8.7,9-10.7c4.9-2.2,10.4-2.5,15.8-2.5
		c1.1,0,2.4,0.5,3.4,1.1c3.5,2.3,7.4,3.4,11.3,4.6c5.6,1.7,9.7,7.2,9.2,12.9c-0.4,4.3-0.1,8.4,1.6,12.3c0.6,1.3,0.2,2.3-0.4,3.4
		c-0.9,1.8-1.6,3.7-1.2,5.5c1.6,6.8-0.3,13.9,1.6,20.6c2.8,10.4,1.7,20.8,0.7,31.3c-1.2,12.8-2.1,25.6-0.8,38.5c0.1,0.9,0,1.9,0,3.4
		c-1.3-2-1.7-3.8-2.3-5.6c-3.4-9.4-8-18.2-12.3-27.2c-2.3-4.6-1.5-8.7-0.2-13.1C874.8,499.2,874.9,498.3,872.4,496.2z"/>
	<path fill="#FFFFFF" d="M688,222.8c0.4-5.3,2-9.9,5.4-13.7c1.7-1.9,3-4,4-6.4c1.9-4.6,6.1-6.9,10-9.5c4.9-3.4,10.2-4.4,16.1-3.3
		c3.5,0.7,7.1,0.9,10.7,1.2c3.7,0.3,7.1,2,9.2,4.5c4.6,5.7,9.7,11.2,11.2,18.9c1.7,8.4,3.1,16.8,3.7,25.3c0.5,7.3-1.8,13.9-4.8,20.4
		c-1.4,3.1-3,6-4.6,9c-3.7,7.2-9.5,11.6-17.2,13.7c-4.2,1.2-8.2-0.2-13.1-1.1c4.3-1.3,8-1.9,11.2-3.6c2.3-5.1-0.4-9.5-1.5-14.2
		c-1.5-6.6-5.8-11.8-8.3-17.8c0.9-2,2.4-3.3,3.4-4.9c2.2-3.4,3.4-6.8,1.3-10.8c-0.7-1.3-0.8-3-1.3-4.5c-2.9-8.8-10.6-12.4-19.2-9.1
		c-2.5,0.9-5,1.9-6.5,4.3c-0.4,0.7-1,1.1-1.7,1.1C693.5,222.5,690.8,223,688,222.8z"/>
	<path fill="#FFFFFF" d="M756.4,616.6c0.9-4.7-4.2-5.2-5.9-8.5c-0.9-2.8,4.3-8.3-3.6-9c-0.5-2.1-0.5-4.2-0.3-6.4
		c0.3-5.7,0.5-11.5,0-17.3c-0.3-2.8,0.9-5.4,0.9-8.2c0.1-12.9,2.1-25.5,5.5-38c1.6-6,3.7-11.8,5.3-17.8c2.2-8.4,4.5-16.7,1.7-25.7
		c3.8-0.2,7-1,10.5-1.8c1.6,13.5,2.7,26.9,1.8,40.3c-0.4,5.4,0.5,10.8,0.9,16.2c0.4,6.2,1.1,12.6,0.4,18.7c-1.6,14,0,28-0.4,42.1
		c-0.3,13,1.6,25.8,7.4,37.8c-3.1,0.5-8.9-2.2-10.6-4.8C765.7,628.1,761.8,621.7,756.4,616.6z"/>
	<path fill="#FFFFFF" d="M721.2,618.5c2,3.7,5,5.1,6.8,7.6c0.9,1.3,2.4,1,3.7,0.6c2.8-0.8,5.5-1.7,8.3-2.5c1.7-0.5,3.3-1.3,5.6-1
		c-2.8,1.9-6.7,1.6-8.5,5c4.1,1.5,17.1-2.7,20.4-6.4c2.4,4,5.4,7.7,7.9,11.6c3.6,5.7,9.2,7.9,15.4,9.8c2.6,4.8,3.9,10.1,5.8,15.5
		c-6.1,2.4-11.9,5.2-18.6,5c-3.2-0.1-6.5,0.5-9.7,0.6c-2.6,0.1-5.3,0.2-7.6-1.6c-0.5-0.4-1.3-0.6-2-0.6c-6.4-0.5-12.4-3-18.7-3.5
		c-2.7-0.2-5.2-1.2-7.4-2.7c-3.6-2.5-7.6-4.1-11.5-5.8c-3.3-1.4-5.2-4.5-4.7-7.9c1.1-7.8,2.7-15.5,4.9-23.1
		c1.4-4.9,2.1-9.5-0.5-14.3c-1.6-2.9,0-4.9,3.4-4.8c0.8,0.9-0.3,1.5-0.4,2.2c-0.5,4.9,2.8,9.8,7.6,11.1c0.9,0.2,1.6,0.2,2.4-0.4
		c6.1-4.3,12.4-8.4,19.9-10c0.2,0,0.5-0.1,0.8-0.2c0.6,1.9,1.3,3.7,1.9,5.7C737.1,610.7,728.2,612.5,721.2,618.5z"/>
	<path fill="#FFFFFF" d="M704.3,366.4c4.4,4.4,7.1,10.1,10.8,15.4c-5.9-3.4-11.9-6.7-17.6-10.3c-5.8-3.7-11.3-8-16.4-13.7
		c-0.1,2.4,1.1,3.1,1.9,4c5.1,5.7,11.2,10.2,17.7,14c5.2,3.1,10.6,6.1,16,8.9c3.3,1.7,3.9,5.5,6.1,9c-6-1.5-11.3-2.9-16.5-4.2
		c-1.5-0.4-2.5-1.4-3.5-2.4c-3.6-3.2-7.7-5.6-12-7.8c-0.3-0.4,0.1,0.2-0.2-0.2c-0.1-0.1,0,0,0.2,0.1c0.9,2.3,3.2,3,5,4.3
		c1.4,1.1,3,2,4.3,3.2c-11-4.3-20.4-11.9-32.1-16.3c8.9-8.1,13.8-18.1,18.7-28.5c3.8,2,7.6,3.7,9.4,8.3c1.9,4.9,5,9.2,7.8,13.7
		C704.2,364.7,705.4,365.4,704.3,366.4c-0.9-0.5-1.7-1.2-2.4-1.9C702.6,365.2,703.4,365.9,704.3,366.4z"/>
	<path fill="#FFFFFF" d="M662.1,243c4.2-4.6,5.3-12.8,0.8-17.9c5.4-0.8,10.5-0.8,15.7,0.9c4.1,1.3,8.4,0.4,12.5-0.2
		c4.4-0.7,8.8-0.5,13.3-0.1c4.1,0.3,7.3,2.2,8.8,5.9c1.6,4.1,0.6,8-2.5,11.5C694.7,242.4,678.7,242.3,662.1,243z"/>
	<path fill="#FFFFFF" d="M701,243.9c2.4,0,4.2,0,6,0c5.3,0.1,7.8-1.6,9.7-6.7c1.6-4.1,0.2-8.1-3.1-11.4c-3.2-3.2-6.8-4.7-11.3-4.1
		c4.2-2.8,8.6-4.4,13.4-2.2c3.3,1.5,5.7,4,6.2,7.8c0.9,6.1,0.3,12-3,17.3c-1.4,2.2-0.9,4.1,0.2,6c3,5.2,5.1,10.8,7,16.5
		c2.5,7.6,2.2,8.2-5.4,10.1c-1,0.3-2.1,0.5-3.5,0.8c-2.3-4.6-3-9.5-3.8-14.5c-0.8-4.9-0.2-10.1-2.8-14.5c-1.8-0.4-2.7,0.6-3.4,1.7
		c-1.9,3.1-3.5,6.2-3.8,10c-0.4,6.2-4.1,10.5-8.2,14.4c-7-1.3-8.6-8.4-3.8-14c2.1-2.4,4.6-4.6,7-6.7
		C701.8,251.7,702.8,248.3,701,243.9z"/>
	<path fill="#FFFFFF" d="M963.1,630.3c-3.6,2.2-7.4,3.8-11.7,4.2c-7,0.6-13.9,2.8-21.6,2.2c1.1-0.7,1.8-1.1,3.1-1.9
		c-2.7-0.3-4.9-0.5-7.4-0.8c-3.3-9.3-9.6-17.3-13.2-26.8c1.6-1.1,3.1-1.4,4.9-1.4c-0.3,1.6-2.3,1.4-2.6,3.4c0,0.9,1.3,1.7,1.8,2.9
		c2.2,0.2,4.3,0.3,5.7-1.8c0.6-1.5-2.9-2.3-0.2-4c2,0.7,3.8,1.7,5.5,3.4c4.9,4.8,11.1,7.3,17.7,9.1c2.1,0.6,4.1,1.4,6.2,1.8
		c4.9,1.1,8,4.2,9.7,8.6C961.5,630.5,962.3,630.2,963.1,630.3L963.1,630.3z"/>
	<path fill="#FFFFFF" d="M833,243.1c11.3-0.2,22.9,0.7,34.7-0.1c0.5,3.5,1.1,6.8,3.5,9.4c0.4,0.5,0.4,1.1,0.3,1.7
		c-0.4,3.5-0.8,6.9-0.9,10.4c0,1.6-1.5,2.3-1.9,3.8c-1.5,5.4-2.9,10.9-2.9,16.6c0,1.8-0.2,3.6-1,5.6c-1.7-2.2-2.7-4.1-2.8-7
		c-0.2-13-6.1-22.7-17.7-28.7c-0.3-0.2-0.6-0.4-1-0.4c-5.5-0.5-8.7-4.5-12.1-8.3C831.4,245,831.9,244.1,833,243.1z"/>
	<path fill="#FFFFFF" d="M753.7,419c9.3,0.6,18.5-0.4,28.1-0.1c3.3,12.2,10.8,22.2,17.4,32.6c-2.7,5.6-4.6,5.8-9,1.5
		c-0.9-0.3-0.9,0.5-1.2,0.9c-3.6-2-6-7.6-4.1-9.3c0-1.1-0.8-1.9-1.5-3c-6.3-0.6-12.6-0.3-19.1,0.9c-0.7-0.8-0.8-2.2-1.1-3.4
		c2.9-2.8,2.7-3.9,1.1-7.5c-2-4.4-5.1-7.4-9.4-9.4C753.7,421.5,753.6,420.4,753.7,419z"/>
	<path fill="#FFFFFF" d="M771.5,258.9c5,1.6,9.4,3.8,14.4,4.4c-4.8-3.6-10.9-4.7-16-8.1c9.7,1.2,14.4-6,20.2-11.8
		c2.3,3.6,1.1,8.7,4.8,11.8c-2.1-4.1-1.9-8.9-3.8-13.3c0.5-1.2,1.7-2.1,3-3.3c0.5,2.6,1.8,4.6,3.6,6.4c1.6,1.7,2.3,3.8,1.9,6.3
		c-0.5,2.8-0.8,5.6-1.2,8.6c-1.6-0.9-1.2-3.7-3.9-3.1c0.9,1.6,1.7,3.1,2.6,4.7c-1.7,6.3-7.2,10.7-8.3,17.3c-3.2-1.2-4.9-3.7-6.9-5.6
		c-2.8-2.7-4.5-6.4-7.8-8.7C772.4,263.5,771.9,261.4,771.5,258.9z"/>
	<path fill="#FFFFFF" d="M798,220.1c1.5,1.2,2.8,2.2,4,3.1c0.8,3.7-1.8,5.8-3.5,8.1c-0.8,1.1-2.1,2-3.3,2.7
		c-4.2,2.7-7.2,6.4-10.1,10.5c-3.4,4.7-7.8,8.4-14.4,7.4c-3.3-0.5-6.7,0.3-10.1-1.8c-0.5-4.1,1.2-8.3,0.1-12.5
		c1.7-0.5,2.7,0.2,3.8,0.7c3.3,1.6,6.7,1.6,10,0.7c1.5-0.4,2.4-1.9,3.9-2.7c3.6-1.9,7.7-3.8,9.5-7.4
		C790.1,224.6,794,222.7,798,220.1z"/>
	<path fill="#FFFFFF" d="M693.3,477.9c-11.6-0.6-22.7-2.8-33.9-4.8c-3.3-0.6-4.3-1.8-4.6-5.3c-0.5-4.5-1.1-9-1.7-14.2
		c6.6,4.7,13.5,8.1,20.4,11.4c1.3,0.6,2.4,1.3,3,2.8c0.7,1.7,2.6,2.4,4.2,3.3C684.9,473.5,689.1,475.7,693.3,477.9z"/>
	<path fill="#FFFFFF" d="M874.1,232c0.3,4.5-3.9,5.1-4.5,7.9c-12,1.9-23.7,0.5-35.7,0.8c1.9-3.3,2.2-6.8,3.4-10.4
		C849.5,232.2,861.9,230.5,874.1,232z"/>
	<path fill="#FFFFFF" d="M774.6,296.5c-1-6.7-4.7-11.3-9.8-15.1c1.8-6.3,5.1-12.3,3.8-19.2c5.3,7.1,10.2,14.3,17.7,19.7
		C782.7,286.5,780.4,292.8,774.6,296.5z"/>
	<path fill="#FFFFFF" d="M828.7,257.9c0.5,2-0.9,3.6-0.4,5.4c-1.7,0.7-3.3-0.8-4.8,0.5c0.3,2.4,2.7,1.2,4.1,2.3
		c-0.5,8.4,0.5,16.7,5.5,24.1c-4.3,4.9-7.9,10.7-14.8,12.9c0.2-6.9,1.8-13.3,2.2-19.9c0.4-6.5,1.6-13,1.6-19.6c0-1.4,0.5-2.8,2-3.6
		C825.7,259.4,827.2,258.7,828.7,257.9z"/>
	<path fill="#FFFFFF" d="M771.4,458.3c-1.8,7.2-1.2,14-1.3,21c-2.9,0.9-5.9,0.2-8.2,0.4c-2.1,0.7-0.8,2.2-1.6,2.9
		c-0.5,0.1-0.9-0.2-0.9-0.5c-0.5-2.8-0.3-5.5,0.3-8.4c0.9-3.9,1.7-7.8,3.5-11.2c1.6-3,2.4-6.1,3.2-9.8
		C768,454.9,769.4,456.8,771.4,458.3z"/>
	<path fill="#FFFFFF" d="M656.5,224.5c3.8,2,6.4,4.6,6.1,9c-0.3,4.5-3.3,6.9-7.5,8.5c-3.3-1.9-6.5-3.9-6.3-8.5
		C648.9,229,651.3,226.2,656.5,224.5z"/>
	<path fill="#FFFFFF" d="M768.3,444.4c3.9,1.3,7.7-0.8,12,0.2c0.4,5.3,2.1,10.4,7.3,13.6c0.7-0.3-0.4-0.8,0-1.4
		c2.1,0.6,4.2,0.7,6.8,0.4c-6.3,4.9-15.1,2-22.1-3.6C768.1,450.2,766.8,447,768.3,444.4z"/>
	<path fill="#FFFFFF" d="M713.9,279c-4.1-1.6-8.2-3-11.3-6.7c2.3-2.9,3.4-6.3,3.7-9.9c0.3-3.5,1.1-6.8,3.1-9.9
		C710.1,261.5,709.8,270.5,713.9,279z"/>
	<path fill="#FFFFFF" d="M688,245.6c2.5-1.9,5.1-0.5,7.6-1.3c1.2,1.8,2,3.6,3.5,5c-2.4,2.5-4.6,4.9-7.3,7.1
		C689.5,253.2,688.3,249.7,688,245.6z"/>
	<path fill="#FFFFFF" d="M721.5,598.6c4.8,1.3,9.8,1.7,15,2.5c-4.9,6-11.6,3.5-17.5,4.7c-0.5-1.4-1.2-2.7-0.7-4.1
		c1.3-1.1,3,0.5,4.1-1C722.9,599.7,721.6,599.3,721.5,598.6L721.5,598.6z"/>
	<path fill="#FFFFFF" d="M720.9,395.7c-5.8,0.4-11.6-0.7-17.4-0.2c-2.4,0.2-5.6-1.2-7.3-2.9c-2.1-2.2-4.5-3.3-7.3-4.2
		c1.9-1.9,1.9-2,4.1-0.9c6,3,12.2,5.4,18.8,6.8C714.9,394.9,718.1,393.9,720.9,395.7z"/>
	<path fill="#FFFFFF" d="M685.2,383.4c-0.2,0.9-0.4,1.8-0.6,3c-3.3-0.9-6.3-2.3-9.2-3.9c0.2-1.8,1.7-2.6,1.9-4.2
		c3,0.7,4.1,3,4.6,4.8C683.4,384.6,684.1,383.1,685.2,383.4z"/>
	<path fill="#FFFFFF" d="M697.3,295.8c2.2,2.8,2.6,6.4,5.7,9.1c-2.6,0.3-4.4,0.3-6.6,0C696.7,301.7,697,298.7,697.3,295.8z"/>
	<path fill="#FFFFFF" d="M750.9,616c1.8,1.6,3.4,3,5.1,4.5c-2.5,0.7-4.9,0.9-8.1,1.1C750.7,620.2,748.5,616.7,750.9,616z"/>
	<path fill="#FFFFFF" d="M771.1,153.2c1.1-0.4,2.2-0.8,3.3-1.2c1.2,0.6,1.6,1.8,2.4,2.6c1.3,0.6,2.2-0.7,3.5-0.5
		c1,1.2-0.2,1.9-0.7,3c-3.1-2.5-6-1.5-8.9,1.1c0-2.2,2-2.6,2.3-4.1C772.6,153.3,771.7,153.5,771.1,153.2L771.1,153.2z"/>
	<path fill="#FFFFFF" d="M666.5,372.3c2.5,1.2,1,2.6,0.8,4.2c-0.3,1,2.6,0.6,1.3,2.6c-1.6-0.7-3.3-1.5-5-2.3
		C663.8,374.7,665.6,373.8,666.5,372.3z"/>
	<path fill="#FFFFFF" d="M907.5,598.2c2.3-0.6,4.3-2.3,6.4,0.5c-1.1,1.3-3.3,1.4-4.2,3.3C908.5,600.8,908.1,599.6,907.5,598.2z"/>
	<path fill="#FFFFFF" d="M772.2,194.5c-3.8-4.4-3.9-4.8-1.4-6.9c1.3,0.2,1.9,1.2,2.6,2.4C772.5,191,771.2,192,772.2,194.5z"/>
	<path fill="#FFFFFF" d="M778.2,188.6c-2.2-0.9-3.7-2.3-3.9-4.9C777.5,183.5,777.9,184,778.2,188.6z"/>
	<path fill="#FFFFFF" d="M785.9,159.2c0.7-2,1.4-2.9,2.3-3.6c0.9-0.7,1.8-1.4,2.9-2C790.4,156,788.8,157.6,785.9,159.2z"/>
	<path fill="#FFFFFF" d="M800.3,158.5c-1.4,1.7-3,1.5-4.8,0.4c0-1,0.9-1.4,1.6-2C798.3,157.2,799.3,157.9,800.3,158.5L800.3,158.5z"
		/>
	<path fill="#FFFFFF" d="M766.1,256.4c2.5,0.4,3.1,2,3.5,4.1C767,260.2,767,258.1,766.1,256.4z"/>
	<path fill="#FFFFFF" d="M774.4,176.2c-0.7-1.8-1.1-3.5,0.6-5.5C775.9,172.9,774.1,174.5,774.4,176.2z"/>
	<path fill="#FFFFFF" d="M835.5,148.1c1.3-0.2,2.2-0.3,3.7-0.5c-0.9,1.5-1.6,2.6-2.2,3.7C835.3,150.6,835.9,149.4,835.5,148.1z"/>
	<path fill="#FFFFFF" d="M811.2,144c-1.4,1.2-2.6,2.2-3.9,3.3c-0.6-1.2,0.4-2,0.1-2.8C808.6,143.7,809.6,143.3,811.2,144z"/>
	<path fill="#FFFFFF" d="M661.7,376.5c0-1,0.7-2.2-1-2.5c0.5-1.5,1.8-2,2.7-3.3C663.4,374,663.3,374.3,661.7,376.5L661.7,376.5z"/>
	<path fill="#FFFFFF" d="M828.6,251c0.8,2.7,0.3,4.2-2.4,5C826.4,254.1,827.4,252.9,828.6,251z"/>
	<path fill="#FFFFFF" d="M790.8,221.3c0.6-2.4,1.6-3.6,2.9-4.7c0.9,0.3,0.5,1.2,1,1.9C793.6,219.3,792.5,220.1,790.8,221.3z"/>
	<path fill="#FFFFFF" d="M818.6,157.3c-2.5-0.4-3.9-1.2-5.2-2.2C815.1,155.3,816.6,155.8,818.6,157.3z"/>
	<path fill="#FFFFFF" d="M793.3,166.5c-0.8,1.3-1.3,2-2.2,2.4c-0.4-1.1,0-2,0.3-2.9C792.3,165.3,792.5,166.3,793.3,166.5z"/>
	<path fill="#FFFFFF" d="M906.5,595.8c-0.9-0.6-1.1-1.5-1.5-2.6c1.4-0.2,2.1,1,3,1.2C907.9,595.4,907.2,595.6,906.5,595.8z"/>
	<path fill="#FFFFFF" d="M784.8,173.2c0.5,1.9-0.6,2.4-1.6,2.9C782.3,174.5,783.2,173.8,784.8,173.2z"/>
	<path fill="#FFFFFF" d="M778.6,175.2c0.4-2.1,1-3.1,2.9-2.2C780.9,174.1,779.7,174.2,778.6,175.2z"/>
	<path fill="#FFFFFF" d="M829.5,139.9c1.5,1.4,0.6,2.1-0.7,2.9C828.3,141.6,829.3,140.8,829.5,139.9z"/>
	<path fill="#FFFFFF" d="M789.9,145.3c-0.7,1.2-1.2,2.4-3,1.6C787.7,146,788.3,145,789.9,145.3z"/>
	<path fill="#FFFFFF" d="M832.1,183.3c-1.3,1.6-2.5,0.5-3.6,0.5C829.6,183.3,830.6,182.9,832.1,183.3z"/>
	<path fill="#FFFFFF" d="M868.6,641.9c-1.5,0.7-2.7,0.6-4.4,0.4C865.9,641.7,867.1,642,868.6,641.9z"/>
	<path fill="#FFFFFF" d="M913.2,602.8c-0.5,1.3-1.5,1.3-3.4,1.3C911.2,602.8,912.3,603,913.2,602.8L913.2,602.8z"/>
	<path fill="#FFFFFF" d="M913.3,602.8c1-0.7,2-1.4,3-2.2c0.1,0.2,0.3,0.4,0.4,0.6C915.8,602.3,914.8,603.1,913.3,602.8L913.3,602.8z
		"/>
	<path fill="#FFFFFF" d="M674.6,381c-0.8,1.4-1.4,0.7-2.1,0.2C673.1,380.6,673.6,380.3,674.6,381z"/>
	<path fill="#FFFFFF" d="M689,385.5c-0.6,0.5-0.9,1.1-1.7,0.5C687.4,385.1,687.5,384.2,689,385.5z"/>
	<path fill="#FFFFFF" d="M782.1,188.2c0-1.2,0.5-1.7,1-2.2C783.8,187.1,783.1,187.5,782.1,188.2z"/>
	<path fill="#FFFFFF" d="M816.7,148.6c0,0.8-0.4,1.1-1.1,1.2C815.1,148.6,816.3,148.9,816.7,148.6z"/>
	<path fill="#FFFFFF" d="M751.7,614.4c-0.7-0.6-1.4-0.9-1.4-1.8C751.2,612.7,751.7,613.1,751.7,614.4z"/>
	<path fill="#FFFFFF" d="M779.1,146.6c-0.9,0-1.2-0.4-1.6-1C778.6,145.3,778.9,145.7,779.1,146.6z"/>
	<path fill="#FFFFFF" d="M771.5,199.6c-1-0.4-1.2-0.9-0.6-1.3C771.2,198.2,771.5,198.9,771.5,199.6z"/>
	<path fill="#FFFFFF" d="M774.9,194.7c-0.2-0.1-0.4-0.2-0.5-0.4c-0.1-0.4,0.2-0.7,0.6-0.7c0.1,0,0.4,0.2,0.4,0.4
		C775.5,194.4,775.4,194.6,774.9,194.7z"/>
	<path fill="#FFFFFF" d="M781.8,190.4c0.2,0.8-0.1,1.1-0.7,1.2C780.6,190.9,780.9,190.6,781.8,190.4z"/>
	<path fill="#FFFFFF" d="M785.5,169.4c-0.1,0.9-0.3,1.2-0.8,1.4C784.2,170.1,784.8,169.8,785.5,169.4z"/>
	<path fill="#FFFFFF" d="M826.5,157.7c-0.6,0.3-1.1,0.4-1.3-0.4C826,156.6,826.2,157.3,826.5,157.7z"/>
	<path fill="#FFFFFF" d="M810.2,154.3c-0.9,0.1-1.5,0.3-1.6-0.4c0-0.2,0.1-0.5,0.3-0.5C809.6,153,809.8,153.6,810.2,154.3z"/>
	<path fill="#FFFFFF" d="M343.5,236.4c1.9,1.6,3.6,3.4,5.6,4.8c-0.5,0.4-0.9,0.7-1.6,1.1c3.7,7.1,4.7,14.7,3.6,22.6
		c-0.1,1,0.5,2.1,0.6,3.2c0.2,1.5,0.6,3-0.1,4.6c-1.6,4.2-1.3,8.4-0.2,12.9c-4.2,4.2-8.6,8.2-14.1,11c-5.6,2.9-11.7,3-17.8,3.8
		c-6.4,0.8-11.8-1.5-17.5-3.5c12.3,10,25.5,6.2,39.1,3.2c1.1,2.5,2.6,5.6,3.9,8.8c4.5,11.6,12.1,21.2,18.9,31.3
		c3.8,5.6,7.5,11.5,9.7,18c1.3,3.8,3.6,6.7,6.2,9.6c1,1.1,2.3,1.9,4.1,1.7c-0.1,0.3-0.2,0.6-0.3,0.9c-1.7,0.2-3.5,0.8-5.2,0.5
		c-4.5-0.8-9-0.9-13.4-3.2c-8.8-4.6-17.2-9.7-24.8-16c-7-5.8-14.8-9.7-23.4-12.3c-3.5-1.1-6.6-2.7-9.6-5.9
		c0.9-8.1-3.1-15.8-4.4-24.1c-1.6-9.9-6.9-17.5-14-24.1c-1.1-1-1.1-1-3.7-1.2c0,2.9,2.3,4.3,4,5.8c5.2,4.6,8.5,10.4,10.5,16.9
		c1.3,4.4,2.1,8.9,3.5,13.2c1.6,4.9,1.2,9.9,1.2,14.5c5.2,4.9,11.3,7.3,17.4,9.6c5.1,1.9,9.7,4.6,14,7.9
		c8.8,6.9,18.2,12.9,28.3,17.9c0.5,0.3,1,0.6,1.7,1c-2.6,1.9-5.8,2.8-7.3,5.8c1.2,0.9,2,0,2.6-0.6c4.1-3.7,8.8-3.8,13.8-2.6
		c3.6,0.9,3.6,0.8,6.7-0.9c2.3,1.2,2.3,1.2,4,3.4c1.3-1.6-0.6-2.5-0.8-3.7c3-3.1,6.7-1.7,9.9-1.9c1.6,1.4,1.8,3.1,2.4,4.7
		c-1.2,0.6-2.4,1.1-3.5,1.6c-3.4,1.5-6.6,2.4-10.6,2.1c-7.3-0.5-14.6-0.1-21,4.5c-4.7,3.4-10.1,5.3-16.2,4.8
		c-2.6-0.3-5.1-1.1-7.7-1.3c-1.6-0.1-3.1-0.6-4.1,2c-0.6-9.9-3.8-18.4-7.1-26.6c-4.7-11.6-19.7-19.2-33.1-17.5
		c-5.2,0.7-10.7-0.1-15.4,3.6c-5.1-3.2-9.4-7.1-13-11.7c-0.9-1.1-1.6-2.4-2.7-3.3c-8.7-7.1-13.4-16.6-16.8-27
		c-3.5-10.5-10.5-18.8-18.2-26.4c-0.3-0.3-0.8-0.5-1.8-0.2c0.7,3.4,3.6,5.1,5.5,7.4c2,2.5,4.3,4.7,6.5,7.1c-0.1,0.3-0.2,0.5-0.3,0.8
		c-4.2,0-8.5,0-12.7,0c-0.8,0-1.3-0.6-1.8-1c-8.3-7.2-11.2-17.3-6.5-27.9c3-6.7,6.2-13.3,10.7-19.1c1.8-2.3,3.9-4.5,6.6-5.4
		c6.5-2.1,10.9-6.8,15.6-11.2c0.6-0.6,1.1-1.3,2.1-1.6c8.2,2.5,17.6,2.9,22.2,12.2c-0.2,0.7-1.3-0.1-1.4,0.8
		c0.1,0.2,0.2,0.5,0.4,0.5c2.7,0.6,4,2.7,5.6,4.7c6,7.4,7.7,16.4,9.6,25.3c0.5,2.5-0.8,4.7-1.2,7c-0.2,0.9-0.7,1.7-0.6,2.7
		c2.6-3.3,5.2-6.6,3.9-11.3c-1.6-5.9-2.3-12-5.2-17.5c-1.4-2.7-2.8-5.3-4.8-7.6c-2-2.4-3.7-5-5.6-7.5c-3.3-4.4-7.2-8-13.1-8.7
		c-2.8-0.3-5.5-1.2-8.7-1.9c2.1-2.1,4.3-3.2,6.4-4.4c4.8,2.1,9.1,4.8,13.5,7.3c0.8,0.4,1.3,1,1.8,1.7c3.5,5.9,8.8,10.1,13.5,14.9
		c1.6,1.7,2.7,3.5,3.9,5.5c4.3,7.5,8.6,15,17.2,18.6c2.4,1,4.8,1.6,7.3,1.8c5.1,0.4,10.1-0.1,15.1-1c7.3-1.3,14-10.5,13.5-17.8
		c0-0.5-0.1-1,0-1.4C346.3,247,345.5,241.7,343.5,236.4z"/>
	<path fill="#FFFFFF" d="M237.8,588.4c-0.4,0-0.7,0.1-1.1,0c-0.2,0-0.4-0.2-0.6-0.3c-0.1-10.3,1.4-20.5,1.9-30.8
		c0.5-9.9-0.7-19.6-1.8-29.4c-1.3-11.4-5.4-22.1-6.6-33.5c-0.4-3.3-0.5-6.7-0.7-10c-0.1-2.2,0.7-4.6-1-6.6c-0.2-0.2-0.2-0.7-0.1-1
		c1.5-6.8,1.8-13.8,5.4-20c0.6-1,1.2-2.1,1.7-3.2c1.7-3.7,0.8-5.5-4-6.7c0.9,1.7,2.9,2.4,2.7,4.1c-0.2,1.6-1,2.9-1.7,4.3
		c-4,0.3-8.2-1.2-12.1,0.9c3.2,1.9,6.3,3.4,10.1,3.1c-1.1,6.7-4.1,12.9-4,19.9c-3.5-2.3-6.4-5-8.5-8.5c-0.8-1.3-0.4-2.8-0.1-4.2
		c1.5-7.3,2.4-14.7,3.4-22c1.2-8.2,5.5-14.7,12.1-19.7c4.6-3.5,9-7.6,15-8.9c1.4-0.3,3.4-0.5,3.8-2.7c0.1-0.3,1.5-0.5,2.4-0.4
		c2.3,0.1,4.5,0.3,6.6,0.4c0.4,0.4,0.5,0.6,0.7,0.7c3.6,3.3,2.1,6.9,0.4,10.4c-2.2,4.5-0.7,10.2,3.6,12.9c4.3,2.6,6,2.3,10.3-2
		c2.2,0.7,3.6,2.5,5,4.4c-0.3,2.6-0.7,5.4-1.1,8.2c-1.1-0.3-1.2-1.7-3-1.4c0.9,4.4-0.3,8.6-2,13c-0.9,0.5-1.3-1.9-2.9-0.4
		c-0.3,4.2,0.1,8.9,1.1,13.4c2,8.6,0.9,16.9-0.9,25.3c-2.8,13.1-5.2,26.3-8.3,39.4c-3.5,14.8-3.8,29.7-3.5,44.7c0.1,2.4,0,4.8,0,7.9
		c-5.6-1.2-10.8-3.3-16.5-3.3c0.1-3.6-0.7-6.6-1.8-9.7c-2.4,2.7-0.6,5.8-1.4,8.6c-0.8,0.6-2.4,0.1-3.1,1.3
		C236.8,587.3,237.6,587.8,237.8,588.4L237.8,588.4z"/>
	<path fill="#FFFFFF" d="M556.4,352.7c-1.5-2.8-4.7-3.5-7.6-5.7c3.8,0.8,6.8,1.6,9.4,3.8c5.6,4.6,10.9,9.2,14.2,16
		c2.2,4.6,4,9.2,4.3,14.3c0.1,2.2,0.3,4.3,0.8,6.4c1.5,6.8,0.1,13.1-2.5,19.3c-2.8,6.6-5.2,13.6-10.7,18.5c-4.5,4-9.8,7.3-16,7.9
		c-0.6-0.7-0.5-1.3-0.4-1.9c0.4-2.4-0.8-3.4-3-3.4c-3.6,0.1-7.2,0.4-11.1,0.6c0.3,2.2-0.9,2.9-2.9,3.3c-11.3-6.7-19-16.2-21.8-30
		c8.6-0.9,16.8-4.4,25.7-2.6c2-1.9,3.4-4.2,4.4-6.8c0.9-2.3,0.8-4.3-1.1-5.9c-1.9-1.7-4-3.2-6.8-2.4c-7.8,2.3-15.8,3-24,3.2
		c-1-2.2-0.8-4.4,0-6.6c1.3-3.1,2.4-6.3,3.3-9.5c1.4-4.7,3.7-8.8,7-12.4c2.4-2.5,4.7-5.2,7-7.7c1.1-1.2,2.4-1.9,4-2.4
		c3.2-1,6.3-2.4,9.6-2.9c2.6-0.4,5.7-1.4,7.5,2c0.1,0.2,0.4,0.3,0.6,0.4C550,348.9,552.9,351.6,556.4,352.7c1.7,1,2.9,2.6,4,4.3
		C559.3,355.3,558.2,353.7,556.4,352.7z"/>
	<path fill="#FFFFFF" d="M177.9,366.4c-0.1,1.1,0.3,1.8,1.4,2.2c1.6,0.6,3.1,1.2,4.5,2.2c-5.2,6.2-9.8,12.6-12.6,20.4
		c-2.8,7.5-5.9,14.8-5.7,23.2c2.4-0.3,2.4-1.8,2.6-3c0.7-3.9,1.2-7.8,2-11.7c1-4.7,3.1-9,4.8-13.5c1.6-4.1,4.5-7.1,6.7-10.6
		c0.7,0.3,0.7,0.9,1.3,0.8c1.4-1.2,1.8-3,2.6-4.8c7.2,3.6,14.9,5.9,22.6,9.9c-5.3-0.4-9.9-0.7-14.4-1c-2.6-0.1-4.9,0-6.1,3.1
		c-0.9,2.1-3.5,3-5.2,4.7c3-1.6,6.9-0.9,9.1-4.2c0.2-0.3,0.8-0.5,1.3-0.6c5.9-0.3,11.6,0.3,18.2,1.5c-4.6,2.3-8.5,4.1-12.1,6.4
		c-3.8,2.5-7.5,5.2-10.7,8.5c-1.2,1.3-2.6,2.5-2.5,4.6c0.1,1.4-1.3,2-2,2.8c-5.4,6.1-9.3,12.8-9.3,21.3c0,1.1-0.4,2.4,0.9,3.1
		c3-18.8,15.2-29.6,31.8-36.4c1.5-0.6,3.3-0.8,4.5-2.8c-3.4-1.1-6,0.7-8.6,1.7c-2.6,1-5.1,2.4-7.8,3.4c6.9-5.4,14.6-9.3,22.6-13.1
		c-5.5,0.1-7.4-6.2-13-6.2c1.5-2.4,2.8-1.8,4.3-1.1c5.9,2.9,11.9,5.5,19.3,6.8c-2.5,1.1-4.1,2-5.5,3.4c-3.6,3.6-4.3,8-2,12.5
		c0.4,0.7,0.7,1.5,1.1,2.2c1.8,3.3,4.1,5.2,8.3,4.6c6.5-0.9,13.1,0.1,19.7-1.2c2.8-0.5,5.9,1,9,0.4c0.5,2.1,2.3,3.6,1.1,5.9
		c-5.3-2.8-10.7-1.5-15.2,0.9c-7,3.8-13.5,8.8-19,14.7c-4.8,5-7.7,11.1-8.7,18.2c-1,7.3-0.3,14.9-3,22.1c-5.7-5-13.2-7.4-18.6-13
		c-3.2-3.3-7.8-4.7-11.9-6.6c-2.2-1-4.4-1.9-6.4-3.2c-2.2-1.4-4-3-4.1-6.2c-0.1-3.6-1.3-7.1-3.3-10.2c-3.2-4.9-5.3-10.4-8.5-15.4
		c-2.3-3.7-2.8-7.8-2.5-12.1c0.2-2.6,1-5.2-0.1-7.6c1.8-2.5,4.1-4.3,6.1-6.3c3.1-3,7.2-5.1,9-9.4c0.7-1.8,1.6-3.5-0.3-5.3
		c-2.8,2.1-3.6,5.4-5.5,8.4c-0.5-1.8-0.8-3.1-1.2-4.5C169.9,372.1,174.1,369.4,177.9,366.4L177.9,366.4z"/>
	<path fill="#FFFFFF" d="M404.9,537.8c-4.4-12.1-10.7-23.2-15.7-34.9c-1.5-3.4-0.1-7,0.9-10.4c0.6-2.3,1.5-4.5-1.2-6.4
		c-0.1,3.9-1.7,7.4-2.2,12.1c-2.4-4.3-4.3-8-5.7-12c-1.9-5.2-3.5-10.5-5.7-15.5c-1-2.4-2.5-4.6-3.9-6.8c-2.1-3.4-1.9-6.5,0.8-9.8
		c-1.9-3-2-6.9-4.3-10.1c-0.8,1.6,0.3,2.5,0.1,3.6c-1.8,2.1-1.8,2.1-0.3,7.9c-7.5-15.1-12.1-31.3-18.9-46.8
		c6.3-2.1,11.7-5.5,17.3-8.7c2.4,0.9,5,1.4,7.6,3c-3.6,0.6-6.7,1.3-9.9,2.1c-2.9,0.7-5.3,2.3-7.5,4.1c-3.1,2.5-3.4,4.4-1.6,8.9
		c0.4-6.2,4.7-8.9,9.2-10.9c4.8-2.1,10.2-2.4,15.4-2.4c1.1,0,2.4,0.4,3.4,1.1c3.6,2.3,7.6,3.5,11.6,4.7c5.3,1.5,9.4,7.2,9,12.8
		c-0.4,4.3-0.2,8.4,1.6,12.3c0.6,1.3,0.2,2.3-0.3,3.4c-1,1.9-1.7,3.9-1.2,5.9c1.7,6.5-0.1,13.1,1.4,19.5c0,0.1,0,0.2,0,0.4
		c3,10.7,1.8,21.6,0.7,32.4c-1.3,12.6-2,25.1-0.7,37.8C405,535.9,404.9,536.8,404.9,537.8z"/>
	<path fill="#FFFFFF" d="M239.3,297.3c2.3,7.1,7,13.1,9,20.4c1.7,6,4.9,11.2,9.6,15.4c6,5.3,10.8,11.9,17.8,16.9
		c-5.9,4.1-8.9,9.9-12.2,15.6c-3.3,5.9-5.2,12-6.3,18.6c-5.2,0.9-9.9-2-14.5-1.1c-1.5-0.8-1.8-2-2.4-3c-6.1-11-14.7-20.4-20.9-31.3
		c-2.3-4.1-4.9-8-6.7-12.3c-1.4-3.2-3.5-5.4-6.6-6.8c-7.8-3.5-11.5-11.8-10.2-20.3c0.4-2.3,1.5-4.3,2.9-6.1c1.5-1.9,3.4-2.4,5.8-2.9
		c2.6-0.5,5.2-2.4,7.8-2c6,1,11.8-0.4,17.8-0.4C233.2,297.8,236.1,297.5,239.3,297.3z"/>
	<path fill="#FFFFFF" d="M295.3,440.4c3.3-1.4,6.9-2.3,9.8-4c2.2-5.3-0.1-9.9-2.5-14.3c-1.5-2.9-1.3-6.4-3.7-9
		c-2.2-2.4-3.7-5.3-5-8.1c0.7-2.2,2.3-3.6,3.3-5.4c1.9-3.4,2.8-6.9,0.5-10.5c-0.4-0.7-0.6-1.6-0.8-2.4c-1.2-5-4.5-8.3-8.4-11.3
		c-0.9-0.7-2.1-0.9-3.1-0.8c-5.7,0.9-11.6,1.3-15.3,6.7c-0.7,1-1.7,1.2-2.8,1.3c-2.1,0.3-4.3,0.5-6.7,0.8c-0.2-4.5,0.8-8.7,3.4-12.4
		c2.1-2.9,4.1-5.9,5.4-9.3c1.2-3.2,3.9-5.1,6.5-7.1c5.8-4.5,11.8-7.6,19.6-5.8c2.5,0.6,5.3,0.3,7.9,0.3c4.3-0.1,8.5,1.4,11.2,4.3
		c5.3,5.7,10.7,11.6,12.5,19.7c1.9,8.4,3.9,16.8,4.6,25.5c0.6,6.4-1.5,12.2-3.7,18.1c-1.3,3.5-3,6.8-4.5,10.2
		c-3.2,7.1-8.7,11.6-16,14C303.5,442.3,299.4,441.5,295.3,440.4z"/>
	<path fill="#FFFFFF" d="M296.1,629.8c-3.6-1.9-7.9-2-10.5-6.2c-3.7-6-7.6-12-12.9-16.9c0.9-4.7-4.1-5.4-5.9-8.3
		c-0.9-3.2,4.1-8.7-3.7-9.3c-0.4-2.1-0.4-4.1-0.3-6.1c0.3-5.9,0.4-11.7,0.1-17.6c-0.2-3.1,0.8-6.2,0.9-9.3
		c0.2-12.4,2.2-24.5,5.4-36.5c1.6-6.1,3.7-12.1,5.4-18.1c2.5-8.6,4.3-17.2,1.6-26.4c3.7-0.2,7-0.7,10.3-1.7c1.2,5,1.6,10,1.8,14.8
		c0.3,9.1,1.4,18.2,0.3,27.3c-0.6,4.4,0.4,8.9,0.8,13.3c0.5,6.1,1.1,12.3,0.5,18.3c-1.4,13.3,0.2,26.6-0.5,39.9
		c-0.6,10.8,1.1,21.3,3.5,31.8c0.8,3.6,2.6,6.9,4,10.4C296.4,629.3,296.3,629.5,296.1,629.8z"/>
	<path fill="#FFFFFF" d="M230.6,590.3c-1.3,2.7-0.8,5.1-0.2,7.6c0.4,1.5,6.1,5.9,7.6,5.9c0.6,0,1.3-0.1,1.6-0.5
		c3-3.5,7.8-3.9,11.2-7c2.5-2.3,6.4-1.8,9.6-3.3c0.7,1.9,1.3,3.8,2,5.8c-9.1,1.9-17.9,3.7-25,9.8c1.9,3.6,5.1,5.1,7,7.8
		c0.9,1.2,2.5,0.7,3.7,0.4c3-0.9,5.9-1.9,8.9-2.8c1.4-0.4,2.7-1,4.5-0.7c-1.5,1.2-3.2,1.3-4.5,2c-1.4,0.8-3.2,1.1-3.7,3
		c3.6,1.6,16.8-2.5,20.2-6.4c2.6,4.2,5.6,8.1,8.3,12.2c3.5,5.4,9.1,7.4,15,9.4c2.6,4.5,3.8,9.9,5.8,15.5c-6,2.3-11.8,5.2-18.5,5
		c-3.3-0.1-6.7,0.5-10.1,0.6c-2.6,0.1-5.3,0.1-7.5-1.7c-0.4-0.3-1.1-0.4-1.7-0.5c-6.2-0.5-12.1-2.9-18.4-3.4
		c-3.6-0.3-6.7-1.8-9.6-3.8c-3.1-2.1-6.6-3.3-10-4.8c-3.2-1.4-5.1-4.5-4.6-8c1-7.8,2.8-15.5,4.9-23c1.4-4.9,2.1-9.5-0.6-14.3
		C225.1,592.2,226.7,590.1,230.6,590.3z"/>
	<path fill="#FFFFFF" d="M226.3,482.1c-0.2,4.9-0.2,9.6,0.3,14.4c0.9,8.6,3.2,17,5.3,25.3c3.3,13,4.1,26.3,3.4,39.6
		c-0.4,6.7-1.1,13.4-1.6,20.1c-0.1,1,0.2,2.1,0.3,3.4c-1.2,0.5-2.4,1.2-3.2,2c-2.1,0-3.6-1.4-5-1.2c-1.9,1.1-0.2,2.8-1.4,3.8
		c-0.2-0.1-0.6-0.2-0.6-0.2c0.5-3.6-1-7.2,0.6-10.7c0.5-1.1,0.4-2.1,0-3.1c-0.6-1.6-1.2-3.1-1.7-4.7c-0.5-1.5-1.5-3.2-1-4.5
		c1.8-5.4-1.4-10.3-0.9-15.5c0.6-5.9-0.5-11.4-2-17c-0.6-2.3-0.7-4.5,0.5-6.6c1.9-3.6,1.1-7.3-0.2-10.8c-1.4-4-1.7-7.9-1.1-12.2
		c0.7-5.2,0.6-10.8-2.8-15.5c-1.4-1.9-2.1-3.9-1.3-6.4c0.4-1.3,0.2-2.8,0.3-4.4c1-0.4,1.9-0.8,3.2-1.4
		C219.5,479.4,223.1,480.4,226.3,482.1z"/>
	<path fill="#FFFFFF" d="M202.5,367.8c0.1,0.4,0.1,0.9,0.2,1.5c-6.5-2-11.4-6.8-17.9-8.5c1.3-4.1,5.2-5.3,6.8-8.5
		c2,0.5,2.8,2.6,5.1,3.3c-1-2.3-2.9-3.1-3.9-4.8c0.1-1.3,1-2.3,2-3.5c3.2,3,6.4,5.9,9.6,8.9c0.2-0.2,0.4-0.4,0.6-0.6
		c-1.6-1.6-3.1-3.2-4.7-4.8c-1.6-1.6-3.4-3-4.7-5c1.3-2.1,2-4.6,3.9-6.2c4.6,5.9,10.3,10.6,15.7,15.7c2.7,2.6,5.5,5,8.2,7.6
		c-7.9-7.9-16.8-14.7-24-23.3c0.5-2.8,2.3-4.9,2.9-7.9c4.4,2.1,7.8,4.3,10,8.9c5.2,10.8,12,20.8,19.2,30.4c2.8,3.7,4.1,8.4,7.9,11.4
		c-1.6,1.6-3.4,0.7-4.8,1.6c-0.9-2.1-2.9-2.2-4.7-2.6c-5.4-1.3-10.7-2.5-15.7-5.2c-2.8-1.5-5.1-3.6-7.5-5.6
		C205.5,369.6,204.4,368.2,202.5,367.8c-0.2-0.1-0.2-0.1-0.2-0.1C202.2,367.6,202.3,367.6,202.5,367.8z"/>
	<path fill="#FFFFFF" d="M284.2,402.3c-16,0.2-32,1.1-48,2.4c3.4-6.1,4.3-11.9-0.5-17.8c5.4-0.9,10.4-1.4,15.5,0.1
		c3.4,1,6.9,0.3,10.3-0.4c5-1.1,9.9-1.4,15-1.3c4.3,0.1,7.9,1.6,9.6,5.6C288,394.8,287,398.7,284.2,402.3z"/>
	<path fill="#FFFFFF" d="M274.8,404c3-0.2,5.6-1,8.2-0.4c1,0.2,1.9-0.1,2.7-0.7c6.2-4.7,5.9-13.3,0-18.4c-3.3-2.8-6.6-3.4-10.8-2.9
		c5.5-4.9,11.9-4.6,16.2-1.2c2.4,1.9,3.9,4.2,3.3,7.4c-0.1,0.3-0.1,0.8,0,1.1c3,5,0,9.4-1.6,13.7c-1.2,3.1-0.8,5.5,0.8,8
		c3.1,4.6,5.1,9.8,7.2,14.9c0.6,1.4,1,2.9,1.5,4.4c0.8,2.4,0,4-2.3,4.8c-2.4,0.8-4.8,1.5-7.3,2.4c-5.4-8.9-4.2-19.7-7.9-28.7
		c-2.3-0.3-3,0.9-3.8,2.2c-2.3,3.7-3.1,7.8-3.4,12c-0.4,5.4-3.9,9-7.2,12.7c-4.5-0.4-6-3.5-7.2-6.8c0.7-4.8,3.3-8.4,6.9-11.3
		c0.9-0.8,1.6-1.8,2.5-2.6C275.8,411.6,276.3,408.2,274.8,404z"/>
	<path fill="#FFFFFF" d="M479.4,620.2c-3.6,2.2-7.4,3.9-11.7,4.2c-7,0.6-13.9,2.8-21.6,2.2c1.1-0.7,1.8-1.1,3.1-1.8
		c-2.7-0.3-4.9-0.5-7.4-0.8c-3.2-9.3-9.6-17.3-13.2-26.8c1.6-1.1,3.1-1.4,5-1.4c-0.4,1.5-2.4,1.4-2.6,2.8c-0.1,1.5,1.5,2.1,1.6,3.4
		c2.4,0.2,4.5,0.3,5.9-1.8c0.6-1.5-2.9-2.3-0.2-4c2,0.7,3.8,1.7,5.5,3.4c4.9,4.8,11.1,7.3,17.7,9.1c2.2,0.6,4.3,1.5,6.5,1.9
		c4.8,1,7.7,4.2,9.4,8.5C477.7,620.4,478.6,620.1,479.4,620.2L479.4,620.2z"/>
	<path fill="#FFFFFF" d="M334,406.4c0.8-5.3,0.2-9.8-0.2-14.5c4.3-0.2,8.1-1,12.1-0.8c6.6,0.3,12.5-2.1,18.2-5
		c3.7-1.9,7.6-2.5,11.7-2.5c3.2,0,6.4-0.6,9.3-2.2c1.1,0.8,2,1.5,2.6,2.5c-2.1,5.4-6.8,7.5-11.8,9.2c-5.4,1.8-10.5,4.1-15.2,7.2
		c-5.2,3.3-10.9,5.1-16.8,6C340.8,406.8,337.6,406.4,334,406.4z"/>
	<path fill="#FFFFFF" d="M215.8,474.3c-13.3,1-26.2,0.5-37.9-5.6c-1.4,0.3-1,1.4-2,2.1c-2.2-4-1.3-8.4-2.4-12.4
		c-1.1-4.1-0.5-8.3-1.1-13.1c5.6,5,13.3,5.9,18.1,10.6c6.4,6.2,14.6,8.9,21.7,13.5C214.2,470.5,215.6,471.8,215.8,474.3z"/>
	<path fill="#FFFFFF" d="M484.7,391.9c0.8-3.9,1-7.6,2.9-11c3.1,0.7,5.7,1.9,7.7,4.4c5,5.9,11.2,8,18.7,5.3
		c3.4-1.2,7.1-1.1,10.6-1.5c1.8-0.2,3.5-0.4,5.1-1.4c1.8-1.1,3.7-0.4,5.4,0.8c1.4,1,1.5,2.6,1.1,3.9c-0.6,1.8-1.9,2.9-4,3.1
		c-7.5,0.6-14.8,2.7-22.2,4.4c-4.5,1-9.1,0.7-13.5-0.5c-1.4-0.4-2.9-1-3.6-2.2C491.1,393.9,488.4,392.1,484.7,391.9z"/>
	<path fill="#FFFFFF" d="M452.9,382.1c1.8,1.9,2.5,3.8,1.1,5.8c-1.9,2.6-4.2,5.1-7.6,4.4c-4.4-0.8-8.6,0-12.8,0.4
		c-6.7,0.6-13.4,0.9-20.2,1.1c0.2-3.4,3.5-6,1.8-9.6c6.6,0.5,12.8-1.4,19.1-1.2C440.4,383.2,446.7,383.5,452.9,382.1z"/>
	<path fill="#FFFFFF" d="M287.5,448.2c-1.8,7.5-1.2,14.8-1.2,22.4c-3.7,0.6-7.2,0.3-10.9,0.1c-0.2-2.5,0-4.7,0.5-7.1
		c0.8-3.9,1.6-7.8,3.5-11.2c1.7-3,2.4-6.1,3.2-9.7C284.3,444.7,285.6,446.7,287.5,448.2z"/>
	<path fill="#FFFFFF" d="M228.7,404c-6.9-3.4-8.8-8.3-5.2-13.5c1.5-2.1,3.4-4.3,6.1-3.7c2.8,0.7,5,2.8,5.8,5.8
		C236.7,397.3,234,402.3,228.7,404z"/>
	<path fill="#FFFFFF" d="M546.2,430.3c-2.1,3.5-2.6,7.2-3.9,10.7c-3,0.6-5.8,0.9-8.7,1c-6.2,0.1-12.5,0-18.7,0.3
		c-8.5,0.5-12.3-3.2-14.2-12.1c0.8-0.4,1.1,0.2,1.3,0.7c3.7,9.1,4.8,10,14.2,9.6c5.6-0.2,11.3,0.3,16.5-2.4c1.7-0.9,3.6-1.6,4.5-3.6
		c-1.4-0.7-1.8,0.8-3,0.7c0.5-1.2,0.9-2.4,1.9-3.6C539.5,431.2,542.8,430.7,546.2,430.3z"/>
	<path fill="#FFFFFF" d="M283.7,411.3c0.8,9.7,1.2,18.7,5.6,26.9c-4.2-1.5-8.4-2.7-11.8-6.3C282.5,426.2,279.4,418.2,283.7,411.3z"
		/>
	<path fill="#FFFFFF" d="M317.8,439.2c-2.7,2.5-4.2,5.7-5.3,8.9c-9.2,3.2-17.2,1.3-24.3-4.6c5.5,0.8,11.1,0.4,17.1,0.7
		c1.5,1.1,3.2,3.2,6.3,2.6c-1.1-1.5-3.2-1.3-3.8-3.2C311.3,442.5,314.6,440.8,317.8,439.2z"/>
	<path fill="#FFFFFF" d="M580.5,382.9c5.6,0.7,11.6-1.6,16.2,4.1c-4.4,4.9-10,2.4-15.2,3.8C581.1,387.9,580.8,385.6,580.5,382.9z"/>
	<path fill="#FFFFFF" d="M269.7,404.5c0.8,2,1.9,3.3,3.3,4.8c-2.1,2.5-4.1,5.1-6.9,7.4c-2.6-3.2-3.9-6.7-4.4-10.6
		C264.1,404.2,266.9,405,269.7,404.5z"/>
	<path fill="#FFFFFF" d="M237.7,588.5c4.8,1.3,9.8,1.7,14.8,2.8c-2.9,1.9-5.3,4.6-9.3,3.9c-2.6-0.5-5.2,0.2-8,0.4
		c-0.4-1.4-1.1-2.6-0.7-4c1.3-1.1,3,0.4,4.1-1C239.1,589.6,237.8,589.2,237.7,588.5L237.7,588.5z"/>
	<path fill="#FFFFFF" d="M191.7,372.4c0.2-1.7,1.9-2.4,1.8-4c3.4,0.4,4,3.2,5.1,5.2c1.2,0.7,1.8-0.1,2.6-0.6
		c0.4,1.3-0.1,2.3-0.4,3.4C197.5,375.3,194.4,374.2,191.7,372.4z"/>
	<path fill="#FFFFFF" d="M212.8,294.8c-0.3-2.7,0.5-5.1,0.6-8.3c2,3.1,4,5.5,6.4,8.3C217.1,294.8,215.1,294.8,212.8,294.8z"/>
	<path fill="#FFFFFF" d="M411,381.8c1.1,1.6,1.9,2.7,2.8,4.2c-2.4,3.5-3.2,8.6-5.8,13C409,393.5,411.4,388.3,411,381.8z"/>
	<path fill="#FFFFFF" d="M408.9,383.6c-0.6,5.7-2.8,11-4.3,16.6c-0.7,0.3-1.4,0.3-2.3-0.6C404.6,394.4,407.4,389.3,408.9,383.6z"/>
	<path fill="#FFFFFF" d="M267.6,605.8c1.6,1.5,3.1,2.8,4.9,4.5c-2.7,1-5.2,1-7.9,1.1C267,610.2,264.8,606.8,267.6,605.8z"/>
	<path fill="#FFFFFF" d="M287.3,143.2c1.1-0.4,2.2-0.9,3.2-1.3c1.3,0.5,1.6,1.8,2.5,2.6c1.3,0.6,2.2-0.7,3.4-0.5
		c1.1,1.2,0,1.9-0.7,2.9c-3-2.4-5.8-1.4-8.9,1.3c0.3-2.2,2-2.8,2.5-4.1C288.8,143.2,288,143.4,287.3,143.2L287.3,143.2z"/>
	<path fill="#FFFFFF" d="M182.6,362.1c2.9,1.2,0.9,2.8,1.1,4.4c-0.1,0.9,2.6,0.7,1.2,2.6c-1.6-0.8-3.3-1.6-5-2.4
		C180,364.6,181.9,363.8,182.6,362.1z"/>
	<path fill="#FFFFFF" d="M423.6,588.1c2.5-0.6,4.7-2.3,6.5,0.6c-1.3,1.2-3.3,1.5-4.3,3.4C425,590.7,424.4,589.6,423.6,588.1z"/>
	<path fill="#FFFFFF" d="M287.9,183.6c-3.3-3.9-3.3-3.9-1.1-6.1c1.4,0,2,1.1,2.8,2.2C289.1,181,287.2,181.7,287.9,183.6z"/>
	<path fill="#FFFFFF" d="M294.6,178.6c-2.3-1-3.8-2.4-4.1-4.7C293.5,173.1,293.8,173.4,294.6,178.6z"/>
	<path fill="#FFFFFF" d="M307.4,143.5c-0.8,2.5-2.5,4.1-5.1,5.6C303,145.9,305.5,144.9,307.4,143.5z"/>
	<path fill="#FFFFFF" d="M316.5,148.4c-1.4,1.7-3,1.5-4.8,0.4c0-1,0.9-1.4,1.6-2C314.5,147.1,315.5,147.8,316.5,148.4L316.5,148.4z"
		/>
	<path fill="#FFFFFF" d="M351.6,138.1c1.5-0.3,2.5-0.5,4-0.7c-1,1.6-1.7,2.7-2.5,3.8C351.5,140.5,352.2,139.2,351.6,138.1z"/>
	<path fill="#FFFFFF" d="M291.1,161.1c0.6,1.8-0.6,3.3-0.5,5C289.6,164.3,289.7,162.7,291.1,161.1z"/>
	<path fill="#FFFFFF" d="M323.1,137.6c0.3-1.6,0.5-2.5,0.6-3.3c1-0.8,2-0.8,4.1-0.8C326,135.1,324.8,136.1,323.1,137.6z"/>
	<path fill="#FFFFFF" d="M178,366.5c0.1-1,0.4-2.1-1-2.6c0.6-1.3,1.6-2,2.6-2.9C179.6,363.9,179.5,364.2,178,366.5L178,366.5z"/>
	<path fill="#FFFFFF" d="M329.8,144.6c1,0.4,1.9,0.8,2.9,1.2c0.5,0.2,1,0.6,2.2,1.3c-2.5-0.2-3.9-1.1-5.4-1.8
		C329.6,145.1,329.7,144.9,329.8,144.6z"/>
	<path fill="#FFFFFF" d="M300.9,163c0.6,1.9-0.5,2.4-1.5,3.1C298.5,164.5,299.5,163.8,300.9,163z"/>
	<path fill="#FFFFFF" d="M307.9,155.4c2.6,2-0.2,2.4-0.5,3.4C306.9,157.6,307.1,156.6,307.9,155.4z"/>
	<path fill="#FFFFFF" d="M422.6,585.7c-0.8-0.9-1.3-1.6-1.3-2.6c1.2-0.1,1.9,0.9,2.8,1.3C424.2,585.3,423.5,585.5,422.6,585.7z"/>
	<path fill="#FFFFFF" d="M345.6,129.3c1.7,2.2,0.3,2.8-1.3,4C344.9,131.7,345.2,130.8,345.6,129.3z"/>
	<path fill="#FFFFFF" d="M294.7,165.1c0.6-1.9,0.9-3.2,3-2.2C297.2,164,296,164.1,294.7,165.1z"/>
	<path fill="#FFFFFF" d="M344.5,173.6c1.2-0.5,2.3-0.7,3.5-0.6C346.9,174.1,346.9,174.1,344.5,173.6z"/>
	<path fill="#FFFFFF" d="M303.1,137c0.6-1.1,1.5-1.7,2.7-1.7C305.4,136.3,305.1,137.4,303.1,137z"/>
	<path fill="#FFFFFF" d="M429.6,592.8c0.9-0.8,1.9-1.5,2.8-2.3c0.2,0.2,0.3,0.4,0.5,0.7C432.1,592.2,431.1,592.8,429.6,592.8
		L429.6,592.8z"/>
	<path fill="#FFFFFF" d="M188.7,371.1c0.6-0.5,1.1-0.9,1.9-0.3C189.9,371.5,189.9,371.5,188.7,371.1z"/>
	<path fill="#FFFFFF" d="M289.6,446.9c1.4,0.5,2.7,1.2,3.7,2.4C291.8,449,290.3,448.6,289.6,446.9z"/>
	<path fill="#FFFFFF" d="M429.6,592.8c-0.7,0.9-1.5,1.4-2.9,1.2C427.4,592.5,428.6,592.9,429.6,592.8L429.6,592.8z"/>
	<path fill="#FFFFFF" d="M299.7,175.7c0,1.3-0.3,1.9-1.3,2.2C298.2,176.8,298.8,176.3,299.7,175.7z"/>
	<path fill="#FFFFFF" d="M405.1,386.7c0.4-0.9-0.1-2,1.1-3.1C406.3,385.1,405.3,385.8,405.1,386.7L405.1,386.7z"/>
	<path fill="#FFFFFF" d="M205.2,375.3c-0.5,0.7-0.9,0.9-1.8,0.8C203.6,375,203.7,374.2,205.2,375.3z"/>
	<path fill="#FFFFFF" d="M288.3,443.6c-0.5,0.1-1.2,0-1.3,0.8c-0.5-0.4-1.1-0.8-1.9-1.5C286.6,442.6,287.5,442.9,288.3,443.6z"/>
	<path fill="#FFFFFF" d="M333.3,138.4c-0.3,1-0.8,1.2-1.4,1.4C331.4,138.6,332.3,138.7,333.3,138.4z"/>
	<path fill="#FFFFFF" d="M266.3,602.3c1.1,0.4,1.5,0.8,1.7,1.6C267.1,604,266.8,603.4,266.3,602.3z"/>
	<path fill="#FFFFFF" d="M291.3,183.4c0.5,0.4,0.4,0.8,0.1,1.1c-0.1,0.1-0.5,0-0.6-0.2C290.5,183.8,290.9,183.6,291.3,183.4z"/>
	<path fill="#FFFFFF" d="M324.6,143.7c0.9-1,1.3-0.6,1.6,0.2C325.7,144.7,325.2,144.4,324.6,143.7z"/>
	<path fill="#FFFFFF" d="M295.4,136.5c-1,0-1.4-0.3-1.2-1.1C294.9,135.3,295.2,135.7,295.4,136.5z"/>
	<path fill="#FFFFFF" d="M287.1,188.2c0.5,0.2,0.7,0.6,0.5,1.1C286.7,189.3,286.6,188.9,287.1,188.2z"/>
	<path fill="#FFFFFF" d="M301.7,159.2c-0.1,1-0.6,1.6-0.7,1.4C300.3,160,301.1,159.7,301.7,159.2z"/>
	<path fill="#FFFFFF" d="M298.1,180.6c0.1,0.6-0.2,0.9-0.8,0.9C296.9,180.6,297,180.2,298.1,180.6z"/>
	<path fill="#FFFFFF" d="M342.7,147.6c-0.6,0.3-1.1,0.4-1.3-0.4C342.2,146.5,342.4,147.2,342.7,147.6z"/>
	<path fill="#FFFFFF" d="M933.9,239.3c-0.5-2.2-0.5-4.1,0.3-5.9c1.7-3.8,3.2-7.7,4.7-11.6c1.9-5.1,6-8.6,9.2-12.7
		c5-6.4,12.1-8.3,19.4-9.6c2.3-0.4,5.5-1.1,6.9,2.4c0.1,0.3,0.6,0.4,0.9,0.5c6.4,1.9,11.2,5.9,14.7,11.5c-1.5-6.1-6.8-8.7-11.7-12.4
		c2.7,0.4,4.8,0.8,6.5,2.2c6,5.2,12,10.2,15.2,17.9c2,4.8,3.9,9.6,3.8,14.8c0,5.3,1.7,10.4,0.3,15.7c-2.8,11-7.3,21.3-15.9,28.9
		c-4.6,4-10.9,5.8-17.2,7c-9.4,1.8-16.3-2.4-22.5-8.2c-7.2-6.8-12.1-15.1-13.3-25.6c8.6-0.8,17-3.5,25.7-1.5
		c2.1-1.9,3.6-4.1,4.7-6.7c0.9-2.1,0.9-4-0.7-5.7c-1.9-1.9-4-3.5-7-2.8C950.2,239.1,942.2,239.7,933.9,239.3z"/>
	<path fill="#FFFFFF" d="M902.2,242.3c1.2-6.1,7-7.3,10.4-11.4c3.5,1,7.1,2,9.6,5.4c4.7,6.3,10.9,8.7,18.7,6.4
		c3-0.9,6.1-0.9,9.3-0.9c2.2-0.1,4.5,0,6.6-1.2c1.8-1.1,3.8-0.2,5.3,1.1c1.2,1.1,1.3,2.6,0.8,3.9c-0.7,1.7-2.1,2.8-4.2,2.8
		c-7.5,0.2-14.7,1.9-22,3.1c-4.4,0.7-8.9,0.5-13.2-0.9c-2.2-0.7-4-1.8-5.1-4.1c-1-2.1-3-3.4-5.4-3.7
		C909.4,242.5,905.9,241.1,902.2,242.3z"/>
	<path fill="#FFFFFF" d="M1023.5,243.4c-4.7,4.2-10.1,2-15.3,2.6c-0.2-2.7-0.4-5-0.7-7.8C1013,239.6,1019.5,237.1,1023.5,243.4z"/>
	<path fill="#FFFFFF" d="M327.3,469.9c4.4,10.7,9.6,20.8,13.2,31.6c4.6,14,12.3,26.5,18.5,39.8c4,8.7,7.8,17.5,10.9,26.6
		c2.9,8.5,6.4,16.8,10.8,24.7c4.8,8.7,8.7,17.9,12.9,26.9c0.2,0.5,0.7,1,0.3,1.9c-6.4-2.1-13.3-2.1-20.3-3.8c2.6-4.5,3.8-9,3.6-13.9
		c-0.1-1.3-0.1-2.6-0.5-3.9c-1.5-4.5-2.2-9.1-1.1-13.8c0.2-0.8,0.4-1.7-0.6-2.3c-1.5,0.2-1.6,1.5-1.9,2.6c-0.8,3.6-1,7.2,0,10.7
		c1.8,5.8,1.2,11.3-0.9,16.9c-0.8,2-2.5,4-1.1,6.9c8,1.4,16.1,3.4,24.7,3.4c0.9,0.9,1.3,2.3,1.9,3.8c-7.1,1.7-14.5,0.3-21,2.9
		c-0.8,1.6,1.1,1.9,0.5,3.4c-6.6,0.1-13,2.4-20,2.7c-6.3,0.3-11.8-1.2-17.3-3.7c-1-0.5-2-0.2-3.3-0.4c-4.7-7.7-6.7-16.1-5.8-25.2
		c0.5-4.8-0.2-9.6-0.9-14.4c-1.5-10.8-2.1-21.7-1.6-32.7c0.4-10.5,1.3-21.1,0.4-31.7c-0.6-6.6-1.2-13.1-1.4-19.8
		c-0.1-4,0.4-7.9,0.5-11.9c0.3-7.2-0.4-14.4-0.6-21.6C327.2,473.7,327.3,471.8,327.3,469.9z"/>
	<path fill="#FFFFFF" d="M381.2,631.8c1,0,2.1,0,3.1,0c0,0.1,0,0.3,0,0.4c-1.1,0-2.2,0.1-3.3,0.1C381.1,632.2,381.1,632,381.2,631.8
		z"/>
	<path fill="#FFFFFF" d="M984.5,440.1c1.1,0,1.3,0.6,1.5,1.2c3.1,8.3,4.5,9.4,13.4,9.2c4.8-0.1,9.6,0.4,14.2-1.2
		c2.8-1,5.7-1.9,7.5-4.4c-0.8-1.4-1.6,0.2-2.3-0.3c-0.2-1.2,0.4-2,1.4-2.9c3.2-0.3,6.4-1.3,10.5-1.2c-2.4,3.4-3.4,6.9-4.4,10.4
		c-3,0.8-5.8,1-8.7,1.1c-6.1,0.1-12.3,0-18.4,0.3C990.3,452.8,986.6,449.4,984.5,440.1z"/>
	<path d="M796.7,398.5c18.4-3.4,37-5.2,55.5-7.3c-5.9,2-12.1,2.3-18.2,3.2c-6.3,0.9-12.6,1.7-18.9,2.2
		C809,397,803,399.6,796.7,398.5z"/>
	<path d="M795,396.8c-3.8,1.9-8,1.1-12,1.5c-1,1.3-2.1,2.6-3.2,4c-0.5-1.7,1.3-2.4,1.1-4c-4.7,0.6-9.4,0.5-13.9,0.4
		c-1.8,1.8-2.2,4.1-4,5.7c-0.3-2.4,2-3.8,1.9-6.1c-2.5-0.5-5.1-0.4-7.6-0.2c4-1.5,8.1-0.6,12.2-0.5c4.3,0,8.6-0.4,12.9-0.5
		C786.5,397,790.8,396.7,795,396.8z"/>
	<path d="M818.7,398.1c0.4-1.1,1.1-1.4,1.8-1.3c5.8,0.7,11.6,1.4,17.8,2.1C832.6,402.2,823.2,401.7,818.7,398.1z"/>
	<path d="M721.2,349.9c-7.6-7.7-13.5-16.6-18.1-26.4C708.9,332.5,714.9,341.4,721.2,349.9z"/>
	<path d="M726,358.4c6.5,7.7,12.5,15.6,15.8,25.6c-1.7-0.6-1.6-2.2-2.7-3c-0.5,0.4-0.9,0.6-1.2,0.9c1.5-2.3-0.3-4.2-0.9-6.2
		c-0.6-2.3-2.2-3.9-3.4-5.6c-1-0.4-1.5,0.6-2.3,0.4c-0.2-1,1.1-1.2,0.9-2.2c-1.9-3.3-5-6-6.4-9.8L726,358.4z"/>
	<path d="M843.4,371.5c3.3-2.8,7.2-4.6,11.1-6.4C851.1,367.8,847.9,370.8,843.4,371.5L843.4,371.5z"/>
	<path d="M700.2,319.9c-1.8-3.2-3.7-6.2-7.2-8.5C696.6,311.4,699,314.5,700.2,319.9z"/>
	<path d="M883.2,397.4c0.1-3.2,2.2-6.2,0.4-9.7C886,389.3,885.8,392.6,883.2,397.4z"/>
	<path d="M899.1,385.1c-0.8,0.2-1.5,0.6-2.3,0.6c-1.5,0.1-3,0-5.1,0c2.7-1.5,5.2-1.2,7.5-1.5C899.2,384.5,899.1,384.8,899.1,385.1z"
		/>
	<path d="M759.2,366c1.3,2.2,1.2,4.5,1,7.2C759.3,370.7,758.8,368.4,759.2,366z"/>
	<path d="M870.9,389.5c-0.7,1.9-1.5,3.8-2.2,5.7c-0.3-2.3,0.1-4.3,1.5-6C870.5,389.3,870.7,389.4,870.9,389.5z"/>
	<path d="M753.1,398.4c-1.6-0.4-2.3-1.7-3.2-2.8C751.6,395.9,752.4,397.1,753.1,398.4z"/>
	<path d="M843.4,371.4c-1.2,1.5-3.1,1.5-4.8,1.8C840.1,372.4,841.6,371.5,843.4,371.4L843.4,371.4z"/>
	<path d="M743.2,398c0.1-1.1,0.4-2,1.8-2.1C744.9,397.2,743.9,397.5,743.2,398z"/>
	<path d="M761.8,407.1c-0.4,0.9-0.9,1.9-1.3,2.8C760.4,408.7,760.7,407.6,761.8,407.1z"/>
	<path d="M700.5,326.3c-0.1,0.9-0.6,1.3-1.4,1.6C699,326.8,700,326.8,700.5,326.3z"/>
	<path d="M721.4,357.2c0,1.7-0.9,2.2-2,3.1C719.6,358.6,720.3,357.9,721.4,357.2z"/>
	<path d="M731.4,372.4c0.3,1.3-0.4,1.3-0.7,1.8C730.2,373.2,730.9,373.1,731.4,372.4z"/>
	<path d="M712.9,350.5c0.1-0.7,0.4-1.3,1.3-1.8C714.1,349.7,713.7,350.3,712.9,350.5L712.9,350.5z"/>
	<path d="M784.1,402.7c0,1-0.8,1.6-0.9,1.5C782.6,403.5,783.2,403.1,784.1,402.7z"/>
	<path d="M865.8,390.1c0.3,0,0,0-0.3,0C865.7,389.4,866.1,389.9,865.8,390.1z"/>
	<path d="M717,362.7c-0.2-0.5,0.3-0.5,0.5-0.6c-0.1,0.2-0.1,0.4-0.2,0.5C717.2,362.7,717.1,362.7,717,362.7z"/>
	<path d="M712.8,350.4c0.1,0.7-0.2,1.2-0.8,1.6C711.8,351.1,712.4,350.9,712.8,350.4L712.8,350.4z"/>
	<path d="M725.7,358.6c-0.4-0.5-0.8-1-1.3-1.7c1.3,0,1.4,0.7,1.5,1.5L725.7,358.6z"/>
	<path d="M742.4,464.5c-1.8,1.5-2.3,3.4-2.2,5.4c0.6,1.4,1.9,1.4,2.9,2.4c-0.1,1.3,0.2,2.8,1.7,4.1c-2.2,0.8-3.4-0.2-3.8-1.7
		c-0.6-2-3.2-2.1-3.6-4.2c-0.4-2.1,0.8-3.6,2.1-5.1c-0.8-2.4-2.8-3.6-4.8-4.1c-2.3-0.5-3.1-2-3.6-3.9c-0.8-2.9-0.4-6.6,1.2-9
		c1.9,3.4,0.3,7.1,1.9,10.5c2.4,0.1,4.5,2.2,7.4,1.8C742.5,461.7,742.6,463.1,742.4,464.5L742.4,464.5z"/>
	<path d="M725.5,492.1c1.5,1,1.2,2.3,1.1,3.2c-0.4,2.9-0.7,5.9-1.7,8.6c-0.7,1.8-0.9,3.3-0.7,5.1c0.2,1.7,0.2,3.5-1.2,5.5
		c-2.2-4.3-1-8.3,0.1-11.7C724,499.3,723.7,495.5,725.5,492.1z"/>
	<path d="M749.1,492.9c0.9,0.5,0.9,1,0.8,1.4c-0.6,5-1.3,10.1-2.3,15.1C747,503.8,747.3,498.4,749.1,492.9z"/>
	<path d="M722,515.6c0.1,3.5,1.7,7,0.8,11.2C719.9,523,719.7,519.2,722,515.6z"/>
	<path d="M746.3,540c0-2.1-0.1-4.2,0-6.4c0.1-2.2,0.4-4.5,0.9-6.7c0.3,4.4,0.4,8.7,0,13C747,540,746.7,540,746.3,540z"/>
	<path d="M726.3,490.5c-0.4-2.3-1.9-4.7,0.6-7.5C727.2,485.9,727.6,488.2,726.3,490.5z"/>
	<path d="M745.2,471.1c-2.4-1.6-2.2-4.3-2.7-6.6l-0.1,0.1c0.6-0.3,1.1-1,2.1-0.7c0.4,2.3-0.2,4.7,1,6.9c0.1,0.2,0.2,0.4,0.2,0.6
		C745.6,471.3,745.4,471.2,745.2,471.1z"/>
	<path d="M704.1,468.8c1,1.9,2,3.7,3,5.6c-2.3-1.1-3.6-2.8-3.8-5.1C703.5,469.1,703.8,469,704.1,468.8z"/>
	<path d="M712.2,453.5c-1.9,0.3-3.5,0.2-5-0.9C709.1,451.9,710.7,452.3,712.2,453.5z"/>
	<path d="M729,473.7c-0.4-1.5-0.6-2.8,0.3-4.2C730.2,471.6,730.2,471.6,729,473.7z"/>
	<path d="M725.8,578.4c-0.8-1.5-1-2.5-0.3-3.8C726.5,575.7,726.8,576.7,725.8,578.4z"/>
	<path d="M727.2,475.9c0.9,1.9,0.4,3,0,4.6C726,478.9,726.3,477.8,727.2,475.9z"/>
	<path d="M745.5,470.7c0.7,0.4,1.5,0.7,2.2,1.1c-0.1,1.2-0.5,1.9-1.4,2.6c-0.7-1,0.1-2.5-1.2-3.2C745.3,471,745.4,470.9,745.5,470.7
		z"/>
	<path d="M726.1,584.2c-1.3-1.6-1.2-2.7-0.7-3.9C726.8,581.2,726.8,582.3,726.1,584.2z"/>
	<path d="M750.5,486.9c-0.3-1-0.2-1.8,0.4-2.4c1,0.1,0.7,0.7,0.5,1.2C751.3,486.1,751.3,486.7,750.5,486.9z"/>
	<path d="M721.9,468.5c0.5,0.7,0.6,1.3-0.2,1.5C720.6,469.3,721.6,468.9,721.9,468.5z"/>
	<path d="M716.9,420.6c-14.1,4.9-25.6,13.6-37.9,22C682.5,435.6,710.9,419.2,716.9,420.6z"/>
	<path d="M664.1,438.6c-1.4,7.1-2.4,8.6,2.5,17.2c-2.3-0.5-4.2-3-4.9-6.8C661.1,445.5,660.8,442,664.1,438.6z"/>
	<path d="M693.8,439.5c-2.5,5.4-1.1,11.5-2.8,17C690.1,450.5,691.4,444.9,693.8,439.5z"/>
	<path d="M681.6,413c-2,3.5-3.2,7.3-5.1,10.8C676.5,419.5,678.6,416,681.6,413z"/>
	<path d="M682.5,411.9c0.4-1.2,0.6-1.8,1.4-1.8C684.2,411,683.5,411.3,682.5,411.9z"/>
	<path d="M844.4,435.9c3.2-1.5,6.6-0.9,9.9-1c6.5-0.4,9-2.5,9.8-9.3c0-0.2,0.2-0.4,0.3-0.8c1.4,0.7,1.3,1.8,0.9,3
		c-0.8,2.8,0.8,2.6,2.9,2.1c-1.3,4.3,2.3,5.5,4.6,7.5c1.5,1.3,3.7,1.9,3.8,4.2c-0.6,1.6-1.8,1.2-2.9,1.5c-0.7,1.4,0.8,3.4-1.6,5
		c0.5-6.9-5.6-9.3-8.4-14.2c-3.5,4.7-8.5,2-12.8,2.4c-1.6,0.1-3.4-0.7-5.1,0.3C845.5,436.7,844.9,436.7,844.4,435.9z"/>
	<path d="M873.2,495.1c-1.8-4-1.8-7.7-1.6-11.7C874.6,484.6,875.1,488.8,873.2,495.1z"/>
	<path d="M876.8,455.5c-1.3,2.9,2.8,3.6,2.4,6.3C875.4,458.6,875.2,458,876.8,455.5z"/>
	<path d="M873.8,448.8c1,1.2,0.7,2.4,0.2,3.9C872.4,451.4,873.1,450.1,873.8,448.8z"/>
	<path d="M726.3,192.3c0.4-0.2,0.5-0.3,0.6-0.3c6.7,2.6,13.1,5.3,16.9,12.2c4.6,8.3,8,16.7,7.6,26.5c-0.4,8.5,0.4,17-1.8,25.4
		c-0.3,1.3-0.6,2.5-0.9,3.9c-1.3-0.6,0.2-1.7-1.1-2.3c-2,8-8.4,12.8-13.3,18.8c-0.3-0.2-0.5-0.4-0.8-0.6c2.4-3,4.8-6,7.2-9
		c5.6-7.1,8.8-15.2,8.8-24.2c0-8.1,0.7-16.3-1.2-24.4c-1.6-7.1-5.3-13-9.9-18.5c-2.3-2.8-6-3.5-8.8-5.4
		C728.6,193.7,727.1,193.7,726.3,192.3z"/>
	<path d="M716.8,191.4c-0.4,0.8-1,0.8-1.7,0.4C715.5,190.8,716.1,190.8,716.8,191.4z"/>
	<path d="M738.7,635c4.9-4.4,11.5-3.9,16.2-8.2c0.6,0,2-0.7,3.1,0.8c0.1,1.5-1.1,2.1-2,3.1c1.8,0.7,2.9,2,3.7,3.6
		c-1.4,1.8-3.5,1.9-5.1,2.2c-1.6-0.6-1.4-1.9-1.6-2.7C748.3,632.9,744.2,636.9,738.7,635z"/>
	<path d="M736.5,642c-5.3-0.9-6.8-1.9-7.4-5.3c-0.3-2,0-3.9,2.1-4.8c2-0.8,3.4,0.5,4.6,2C737.7,636.4,736.6,639.2,736.5,642z"/>
	<path d="M728.2,634.8c0,2.4-1.2,3.9-3.1,3.9c-2.4,0-4.7-2.9-4.8-5.8c0-2.5,1.4-4.2,3.4-4.1C726.1,628.9,728.3,631.8,728.2,634.8z"
		/>
	<path d="M715.6,632.3c-1,0.4-0.7,1.7-2.1,2.2c-0.4-3.1,0-6,0.1-9.1c1.7-0.2,3,0.4,4.2,1.1c1.7,0.9,2.6,2.7,1.7,4.2
		c-1,1.8-1,3.3-0.2,5.3C716.7,635.7,717.3,633.1,715.6,632.3z"/>
	<path d="M704.3,366.4c-2-0.4-2.9-2.1-4-3.6C701.9,363.6,703.3,364.8,704.3,366.4L704.3,366.4z"/>
	<path d="M685.5,376.2c0.5,0,0.8,0.2,0.9,0.7C685.8,377,685.5,376.7,685.5,376.2z"/>
	<path d="M690.7,379.3c-0.7,0.1-1.4,0-1.7-0.8C689.8,378.3,690.2,378.9,690.7,379.3L690.7,379.3z"/>
	<path d="M258.9,274.9c-1.4-6.3-3.5-12.3-5.8-19.1C257.5,259.4,260.7,270.3,258.9,274.9z"/>
	<path d="M250,239.2c6.9-1.2,13.3,1.2,19.8,2.7C263,242.4,256.6,240.1,250,239.2z"/>
	<path d="M273.8,304.3c1.8,5.1,3.5,10.2,5.3,15.3c-0.3,0.1-0.5,0.2-0.8,0.3c-2.4-4.9-4.9-9.7-5.5-15.2
		C273.1,304.5,273.4,304.4,273.8,304.3z"/>
	<path d="M284.1,276.1c0.2,2.8,2.6,5.8-0.7,9.2C282.3,281.6,282,278.8,284.1,276.1z"/>
	<path d="M274.2,299c-0.3-3.6,0.2-6.8,2.5-9.5c0.4,0.1,0.7,0.2,1.1,0.4C276.6,293,275.4,296,274.2,299z"/>
	<path d="M224.5,266.1c-2-3.7-1.8-5.2,0.8-7.3C225,261.3,224.8,263.4,224.5,266.1z"/>
	<path d="M257.2,244.7c4.9,1,6.6,2,9.1,5.2C263,248,260.3,246.5,257.2,244.7z"/>
	<path d="M283.8,337.1c-2.4-1.3-2.6-3.4-2.5-5.7C283.1,332.8,283.6,334.9,283.8,337.1z"/>
	<path d="M248.3,248.8c2.7,1.6,3.3,3.6,4,5.5C250.5,253.1,248.6,252,248.3,248.8z"/>
	<path d="M272.2,302.9c-2.9-0.2-3.7-3.1-5.9-4.1C268.9,299.2,270.8,300.8,272.2,302.9z"/>
	<path d="M245.9,285.9c-1.8-1.4-2.3-3.4-3.3-5.3C244.4,282.1,245.5,283.8,245.9,285.9z"/>
	<path d="M227,268.1c0.2,1.5,0.6,2.9,1.4,4.5C225.3,271,225.3,270.9,227,268.1z"/>
	<path d="M332.1,311.7c-1.6-1.5-2.6-3.4-3.3-5.5c1.5,1.6,2.9,3.2,3.5,5.3L332.1,311.7z"/>
	<path d="M337.3,319.5c1.7,1.4,2.8,3.1,3.5,5.1l-0.1,0c-1.8-1.3-2.8-3.1-3.6-5.1L337.3,319.5z"/>
	<path d="M259.7,296.5c2.1,0.1,3.4,0.3,4.2,1.8C262.2,298.8,261.5,297.5,259.7,296.5z"/>
	<path d="M259.1,286.1c1.3,1.2,1,2,0.4,3.2C258.4,288.3,258.4,287.4,259.1,286.1z"/>
	<path d="M280.6,327.7c-0.7-0.8-0.5-1.7-0.2-2.5C281.4,325.1,281.4,325.5,280.6,327.7z"/>
	<path d="M333.7,313.7c1.2,1,2.1,2.1,2.1,3.7l0,0c-1.3-0.8-1.9-2-2.3-3.5L333.7,313.7z"/>
	<path d="M259,277.9c1.2,1.1,0.6,1.9,0.2,2.9C258.6,279.8,257.9,279,259,277.9z"/>
	<path d="M344.4,329.7c1,0.2,1.3,1.2,2.1,2.5C345.2,331.4,344.6,330.7,344.4,329.7L344.4,329.7z"/>
	<path d="M344.5,329.6c-1.3-0.5-1.9-1.6-2.2-2.8l0.1-0.1C343.5,327.4,344.3,328.3,344.5,329.6L344.5,329.6z"/>
	<path d="M340.9,324.6c0.9,0.4,1.4,1.1,1.5,2.1l-0.1,0.1C341.4,326.3,340.9,325.6,340.9,324.6L340.9,324.6z"/>
	<path d="M257.2,296c-0.5,0.1-0.6-0.2-0.8-0.6C257.3,295,257.4,295.3,257.2,296z"/>
	<path d="M337.2,319.6c-0.9-0.5-1.4-1.2-1.4-2.2l0,0c1.1,0.3,1.4,1.1,1.5,2.1L337.2,319.6z"/>
	<path d="M332.3,311.5c0.9,0.5,1.3,1.2,1.4,2.2c0,0-0.2,0.2-0.2,0.2c-0.8-0.5-1.3-1.2-1.4-2.2L332.3,311.5z"/>
	<path d="M258.7,454.4c-1.8,1.5-2.3,3.4-2.2,5.4c0.6,1.4,1.9,1.5,2.9,2.4c-0.1,1.4,0.2,2.8,1.7,4.1c-2.2,0.8-2.9-0.4-3.9-1.7
		c-2.2-2.9-6.2-5.4-1.4-9.3c-0.9-2.5-2.8-3.7-4.8-4.2c-2.3-0.5-3.2-2-3.6-3.9c-0.5-2.9-0.9-5.8,0.6-9.2c2.8,3.5,0.4,7.4,2.6,10.7
		c2.2,0,4.2,2.5,6.9,1.6C258.7,451.6,258.9,453,258.7,454.4L258.7,454.4z"/>
	<path d="M241.5,482.2c1.8,1,1.4,2.3,1.3,3.4c-0.4,2.7-1,5.3-1.7,7.9c-0.5,2-0.9,3.8-0.8,5.8c0.1,1.6,0.2,3.3-1.6,5.1
		C236.5,496.2,241.2,489.5,241.5,482.2z"/>
	<path d="M266.2,483.1c-0.7,5.4-1.3,10.9-2,16.3c-0.2,0-0.5-0.1-0.7-0.1c-0.2-5.5-0.1-11,1.8-16.3C265.6,483,265.9,483,266.2,483.1z
		"/>
	<path d="M238.5,516.2c-1.7-3.5-2.9-7.1-0.3-10.7C238.1,509.1,240.1,512.6,238.5,516.2z"/>
	<path d="M263,530c-0.7-4.4-0.3-8.7,0.5-13C263.8,521.4,264,525.7,263,530z"/>
	<path d="M242.5,480.4c-0.5-2.3-1.8-4.7,0.4-7.3C243.5,475.8,243.9,478.1,242.5,480.4z"/>
	<path d="M261.4,461.1c-2.4-1.6-2.2-4.3-2.7-6.6l-0.1,0.1c0.6-0.3,1-1.1,2.1-0.6c0.4,2.1-0.2,4.6,1,6.8c0.1,0.2,0.2,0.4,0.2,0.6
		C261.8,461.2,261.6,461.1,261.4,461.1z"/>
	<path d="M219.9,458c1.4,2.5,2.4,4.4,3.6,6.7C220.4,462.7,219.7,461.6,219.9,458z"/>
	<path d="M228.8,443.7c-2.1,0-3.8,0-5.3-1.1C226.2,442,226.2,442,228.8,443.7z"/>
	<path d="M245.6,458.8c1.1,2.1,0.9,3.3-0.1,4.8C244.6,462.1,244.9,460.9,245.6,458.8z"/>
	<path d="M241.6,564.4c1.2,1.2,1.3,2.2,0.6,4C241.1,566.8,241.1,565.8,241.6,564.4z"/>
	<path d="M243,470.1c-0.5-1.3-0.7-2.4,0.3-3.6C244,468.2,244,468.2,243,470.1z"/>
	<path d="M261.7,460.6c0.7,0.4,1.5,0.7,2.2,1.1c-0.1,1.2-0.5,1.9-1.4,2.6c-0.7-1,0.1-2.5-1.2-3.2
		C261.5,460.9,261.6,460.8,261.7,460.6z"/>
	<path d="M242.3,574.1c-1.3-1.6-1.3-2.6-0.6-3.9C243,571.2,243,572.3,242.3,574.1z"/>
	<path d="M267.4,474c0.8,1.3,0,1.9-0.3,3.3C266.2,475.8,266.6,475,267.4,474z"/>
	<path d="M238,458.4c0.6,0.6,0.6,1.2-0.1,1.5C236.7,459.3,237.9,458.9,238,458.4z"/>
	<path d="M567.3,366.5c1.7,2.6,1.6,5.7,2,8.6c0.2,1.4-0.1,2.8,1.3,3.9c0.5,0.4,0.7,1.3,0.8,1.9c1,8.9-0.1,17.6-3.9,25.8
		c0.1-3.7,1.9-7,2.1-10.6c0.4-4.9,1.3-9.7-0.6-14.8C567.5,376.7,567.9,371.4,567.3,366.5z"/>
	<path d="M562.7,418.9c1.1-3,2.9-5.5,4.8-8c-1,3-2.6,5.8-4.5,8.3C563,419.1,562.9,419,562.7,418.9z"/>
	<path d="M556.4,352.7c3.2,0.5,4,3.3,5.2,5.7l-0.2,0.2C559.4,356.9,557.9,354.9,556.4,352.7L556.4,352.7z"/>
	<path d="M561.4,421.2c-0.2,1.4-1.1,2.2-2,2.9c-0.2-0.2-0.4-0.4-0.6-0.5C559.7,422.8,560.6,422,561.4,421.2L561.4,421.2z"/>
	<path d="M561.6,358.4c0.7,0.2,0.6,0.8,1.1,1.3c-1.1,0-1.2-0.5-1.4-1.1L561.6,358.4z"/>
	<path d="M563.1,419.2c-0.2,1-0.7,1.7-1.6,2l0.1,0.1c0.2-0.9,0.5-1.8,1.2-2.4C562.9,419,563,419.1,563.1,419.2z"/>
	<path d="M232.9,410.6c-13.8,4.8-25.3,13.5-37.5,21.9C198.3,425.7,227.6,408.8,232.9,410.6z"/>
	<path d="M183.5,446.2c-6-2.5-7.7-12.9-2.8-17.6C178,435.3,179.4,440.7,183.5,446.2z"/>
	<path d="M210,429.4c-2.5,5.5-1.1,11.5-2.8,17.1C206.2,440.4,207.6,434.8,210,429.4z"/>
	<path d="M197.7,402.9c-1.7,3.6-3.3,7.2-5,10.8C192.7,409.4,194.9,406,197.7,402.9z"/>
	<path d="M198.9,401.3c0.2-0.6,0.5-1.1,1.1-1.3C200.5,401.1,199.9,401.3,198.9,401.3z"/>
	<path d="M380.5,414.5c1.5,1.2,1.4,2.2,1.1,3.3c-0.8,2.8,0.9,2.5,3,2.1c-1.1,2.7,0.4,4.3,2.3,5.7c1.3,1,2.7,2,4,3c1,0.8,2.2,1.5,2,3
		c-0.5,1.5-1.8,1.1-2.9,1.4c-0.6,1.4,0.7,3.3-1.6,5.1c0.6-7-5.7-9.4-8.4-14.5c-2.7,4.5-7,2.1-10.6,2.6c-2.8,0.4-5.7-1.4-8.6,0.3
		c1.9-1.6,1.9-1.6,2.8-1.6c2.6-0.1,5.3-0.2,7.9-0.2c4.5-0.1,7.7-2.7,8.5-7.1C380.3,416.7,380.4,415.8,380.5,414.5z"/>
	<path d="M388,473c2.8,2,3.1,5.4,1.5,12.3C387.8,481,387.5,477.2,388,473z"/>
	<path d="M393.2,445.3c-1.3,2.8,2.3,3.7,2.5,6.5C391.6,448.7,391.1,447.5,393.2,445.3z"/>
	<path d="M390.6,438.7c0.1,0.6,0.2,1.1,0.1,1.7c0,0.7-0.2,1.4-0.4,2.4c-1.7-1.5-1.1-2.8-0.6-4C390,438.8,390.3,438.7,390.6,438.7z"
		/>
	<path d="M219.6,313.2c5.6,9.1,11.4,18,18.6,26.8C233.5,337.5,220.8,319.2,219.6,313.2z"/>
	<path d="M242.2,348.3c6.5,7.7,12.6,15.6,15.8,25.6c-1.7-0.5-1.5-2.3-2.8-2.9c-0.4,0.3-0.7,0.5-1.1,0.8c1.1-5-1.8-8.4-4.4-12.1
		c-0.8,0.3-1.4,0.5-2.1,0.7c-0.2-1,1.1-1.3,0.9-2.2c-1.9-3.3-5-6-6.4-9.7L242.2,348.3z"/>
	<path d="M210,301.2c4.3,1.1,5,5.2,6.6,8.5C214.5,306.8,212.8,303.6,210,301.2z"/>
	<path d="M237.6,347c0,1.6-0.7,2.2-2,2.9C235.8,348.5,236.5,347.9,237.6,347z"/>
	<path d="M215.1,317.5c0.6-0.4,1.1-0.8,1.8-1.2C216.8,317.2,215.9,317.3,215.1,317.5z"/>
	<path d="M246.5,364.3c0.2-1.2,0.5-1.5,1.1-1.7C247.9,363.8,247.2,363.6,246.5,364.3z"/>
	<path d="M233.8,352.2c-0.2,0.1-0.5,0.3-0.7,0.4C233,352.2,233.4,352.1,233.8,352.2z"/>
	<path d="M242,348.5c-0.6-0.4-0.9-1-1.1-1.7c1,0,1.1,0.7,1.3,1.5L242,348.5z"/>
	<path d="M229.1,340.5c0,0.6-0.3,1.1-1,1.6C228.1,341.2,228.5,340.7,229.1,340.5L229.1,340.5z"/>
	<path d="M229.2,340.5c0-0.7,0.4-1.3,1.2-2C230.3,339.7,229.8,340.2,229.2,340.5L229.2,340.5z"/>
	<path d="M322.7,417.2c-1-0.9,0.8-2-0.5-3.2c-1.5,8.7-7.7,14.1-12.6,20.4c-0.2-0.2-0.5-0.3-0.7-0.5c2.3-3.1,4.6-6.3,6.8-9.5
		c5.2-7.5,7.9-15.8,7.4-25c-0.4-6.8-0.4-13.6-1.7-20.4c-1.4-7.7-5.3-14-10.3-19.9c-1.6-1.9-3.6-3.4-6.1-4.3c-2.6-1-5.2-2.3-7.8-3.5
		c0.7-1.2,1.4-0.6,2-0.5c9.1,2.3,14.6,8.3,19.2,16.4c4.4,7.7,5.5,15.7,6,24.1c0.5,7.8,0.7,15.6-0.9,23.3c-0.1,0.7-0.2,1.4-0.4,2.1
		C323.1,416.9,322.9,417,322.7,417.2z"/>
	<path d="M288.2,350.1c-0.8,1.4-1.5,1.4-2.2,1C286.3,350,287,350.1,288.2,350.1z"/>
	<path d="M292.3,350.3c0.7-0.5,1.1-0.4,1.6,0C293.1,351.2,292.8,350.8,292.3,350.3z"/>
	<path d="M269.1,623.7c-4.7-0.6-8.8,2.9-13.4,1.3c3.9-4.7,10.9-3.7,15.1-8.3c0.9,0,2.3-0.6,3.3,0.7c0.4,1.7-1.3,2.1-1.8,3.3
		c1.8,0.5,2.6,1.9,3.6,3.4c-1.3,1.9-3.4,1.8-5,2.3C269.2,626,269.6,624.7,269.1,623.7z"/>
	<path d="M251.9,632.9c-1.8-0.5-3.4-0.8-4.7-1.4c-2-1-3.2-4.3-2.5-6.5c0.8-2.7,3-3.5,5.2-1.9c1.7,1.3,2.6,3.1,2.5,5.3
		C252.3,629.8,252.1,631.1,251.9,632.9z"/>
	<path d="M243.7,625.5c-0.1,2.4-1.3,3.9-3.2,3.8c-2.4-0.1-4.7-3-4.7-5.9c0-2.5,1.5-4.2,3.5-4C241.7,619.6,243.8,622.5,243.7,625.5z"
		/>
	<path d="M229.1,616c1.7,0,3,0.5,4.1,1.1c1.8,1,2.8,3,1.7,4.5c-1.2,1.7-0.7,3.2-0.1,5c-2.5-0.4-2-2.9-3.5-3.7
		c-1.4-0.2-0.6,2.1-2.3,1.9C228.5,622,229,619.1,229.1,616z"/>
	<path d="M199.5,339.7c8.5,9.2,19.4,16,27.1,26.1c-1,0.7-1.3,0.6-1.5,0.3c-7.3-8.1-16.2-14.6-23.3-22.9
		C200.9,342.1,199.7,341.2,199.5,339.7L199.5,339.7z"/>
	<path d="M230.6,377.4c-1.5-0.1-2.6-0.7-3.7-2.1C228.9,375.1,229.7,376.3,230.6,377.4z"/>
	<path d="M202.5,367.8c-0.6,0-1.2-0.1-1.3-0.9C201.8,367,202.3,367.2,202.5,367.8L202.5,367.8z"/>
	<path d="M995.1,220.6c0.7,0.5,0.8,0.6,0.9,0.7c1.1,5.1,1.3,10.2,2.4,15.4c1.5,6.6-0.3,13.4-2.5,19.8c-0.7,2.1-1.2,4.3-3.2,6.7
		c1.1-5,3.2-8.8,3.7-13.1c0.5-4.6,1.6-8.9,0.1-13.6C994.8,231.4,995.8,226.1,995.1,220.6z"/>
	<path d="M988.1,273.2c1.2-2.7,3-5.1,5-7.2c-1.2,2.8-2.7,5.3-4.7,7.6c-0.2,0.1-0.4,0.2-0.6,0.3C988,273.6,988,273.4,988.1,273.2z"/>
	<path d="M984.6,278c0.2-0.6,0.5-0.9,1-1C985.8,277.8,985.3,277.9,984.6,278z"/>
	<path d="M988.5,273.6c-0.2,0.6-0.3,1.4-1.3,1.4c-0.1-0.8,0.4-1.3,0.9-1.8C988.2,273.3,988.4,273.4,988.5,273.6z"/>
	<path fill="#FFFFFF" d="M732.5,639.4c-1.9-1.8-2.1-3.6-0.6-5.7c2.4,0.1,3,1.5,3.1,3.2c-0.4,1.3-1.3,0.1-1.8,0.7
		C732.6,638,733.6,638.9,732.5,639.4z"/>
	<path fill="#FFFFFF" d="M725,636.8c-3.2-2-3.5-3.2-1.4-5.9C726.8,632.1,727.2,633.7,725,636.8z"/>
	<path fill="#FFFFFF" d="M717.4,630.5c-2.1-0.6-2.1-0.6-1.8-2.8C717.7,628.6,717.7,628.6,717.4,630.5z"/>
	<path fill="#FFFFFF" d="M248.6,630.6c-2.5-2.3-2.7-4.2-1.2-6.3c2.4,0.1,2.9,1.6,3.2,3.7C249.1,627.8,248,628.2,248.6,630.6z"/>
	<path fill="#FFFFFF" d="M239.1,621.3c3.2,1.8,3.5,3,1.6,5.8C237.4,626.1,237,624.5,239.1,621.3z"/>
	<path fill="#FFFFFF" d="M233.3,621.2c-2.3,0.1-3.1-0.7-2.4-2.9C232.4,618.6,233.6,619,233.3,621.2z"/>
</g>
</svg>
