<?xml version="1.0" encoding="utf-8"?>
<!-- Generator: Adobe Illustrator 19.1.0, SVG Export Plug-In . SVG Version: 6.00 Build 0)  -->
<svg version="1.2" baseProfile="tiny" id="Layer_2" xmlns="http://www.w3.org/2000/svg" xmlns:xlink="http://www.w3.org/1999/xlink"
	 x="0px" y="0px" width="900px" height="600px" viewBox="144 97 900 600" xml:space="preserve">
<g>
	<path d="M732.9,268.6c0.1,2.8-0.6,5.6-1.4,8.3c-2.2,7.9-2.9,15.9-3.1,24c-0.1,8.4-0.6,16.8-1.8,25.1c-1.3,9.2-0.3,18.4,0.9,27.6
		c0.7,4.9,2.4,8.9,4.5,13.2c3.6,7.4,4.5,15.6,5.8,23.7c0.9,5.8,2.2,11.5,2.6,17.4c0.3,5,2.7,9.5,3.8,14.4c3.5,15.5,4.8,31.2,5.7,47
		c0.4,6.4-0.4,12.9-0.6,19.4c-0.1,2.1-1.3,2.7-3.1,2.5c-1.9-0.2-3.9-0.4-6.3,0c-0.6,4.4-3.7,8.3-3.1,13.4c0.3,2.5,0.1,5.1,0.1,7.7
		c0,0.6,0.2,1.5-0.1,1.8c-2.8,2.7-0.8,5.4-0.4,8.3c2.3,15,5.3,30.1,1.3,45.4c-1.2,4.6-0.7,9.5-1.1,14.2c-0.9,9.8-1,19.7-2.2,29.6
		c-0.5,3.8,1,7.5,0.6,11.1c1.6,1.3,3.5,0,4.7,1.6c0.1,6.9,3.3,12.3,8.2,17.2c4.6,4.5,8.2,9.9,12.7,14.6c2.4,2.6,4.4,5,5.1,8.6
		c0.5,2.3-0.2,3.6-2.4,3.9c-0.9,0.2-1.6,0.3-2.1,1.2c-1.5,3-4.5,3.4-7.3,4.1c-5.5,1.3-11.1,1.2-16.7,0.4c-6.2-0.8-7.4-1.7-9.3-7.5
		c-1.4-0.9-2.9-1.3-4.5-1.2c-3.8,0.2-7.3-0.9-10.6-2.3c-3.3-1.4-5.2-4.4-7.3-7.2c-0.5-0.6-0.6-1.5-0.2-2.1
		c2.9-4.8,1.7-10.9,4.9-15.7c0.8-1.2,0.8-2.8,0.7-4.3c-0.5-4.8-0.4-5.1,3.3-8.5c0.3-0.8-0.6-1.6,0-2.6c0.8-1.2,2.4-1.2,3.8-2
		c0.5-3.1-0.3-6.4,0.7-10c1.5,1.5,0.9,3.1,1.1,4.6c0.2,1.6-0.2,3.2,0.4,4.9c3.9,0,7.7-2,11.8-1.5c0.2-14,2.3-27.9,2.6-41.8
		c0.1-5.5,0.7-11,1.6-16.4c1.6-9.6,0.7-18.9-0.8-28.4c-0.5-3.5-0.8-7-2.1-10.6c-1.1,2.1-1.1,4.5-2.4,6.5c-0.1-3.5-0.2-6.7,2-9.3
		c0.2-1.2-0.6-1.6-1.1-2.1c0.9-3.7,3.6-7,3-10.9c-0.7-5,2-9.9,0.7-15.1c-11.7,2.2-22.5,0.1-33.4-2.2c-0.8,0-1,1-2,1
		c0,3.8,0.7,7.1,2.1,10.4c1.8,4.1,2.2,8.7,2.9,13.1c1.4,8.5-0.8,16.7-1.8,25c-1.2,10.1,0.1,19.9,3,29.6c0.8,2.8,1.3,5.7,1.9,8.6
		c2.1,10.2,4.7,20.2,6,30.5c0.3,2.9,0.7,5.8,0.8,8.7c0.1,2.2-0.3,4.3-1.6,6.1c-1.1,0.1-1.2-0.6-1.2-1.2c0.3-14.4-4.1-28.2-6.2-42.3
		c-1.3-8.9-4.2-17.5-5.4-26.5c-0.9-7.1,0.6-14.1,1.8-21.1c1.1-6.4,1.2-12.8-0.3-18.9c-1.4-5.7-3.1-11.2-4-17
		c-0.3-2.1-0.4-4.3-0.6-6.5c-0.3-0.2-0.5-0.4-0.7-0.4c-5.8-0.6-5.9-0.7-6-6.7c-0.1-3.4,0.4-6.8-0.1-10.2c-0.1-0.5-0.2-0.9-0.4-2
		c-1.7,2.6-2.2,5-2.3,7.4c-0.2,4.1-1.1,7.8-5.1,10.6c-1.8,0.3-4.5-0.2-6.2,2.7c-1,3.8-2.2,8-4.6,11.7c-1.4,2.1-1.7,4.5-1.8,7
		c-0.2,4.2-0.9,8.2-3.2,11.8c-0.2,0.1-0.4,0.2-0.6,0.2c0.1-0.2,0.1-0.4,0.2-0.6c1.5-10.7,4.2-21.1,7.5-31.2c-0.6-1-1.4-0.7-2.1-0.5
		c-10.2,2.2-20.6,1.9-31,2.1c-2.2,0-4,0.3-5.5,2.1c0.7,5.8,2.5,11.5,2,17.5c-0.3,4.2-0.7,8.2-2.1,12.2c-1.6,4.6-4.1,9-4.6,13.8
		c-1.1,9.2-3.1,18.5-1.4,27.8c2.3,12,2.3,24.3,4.8,36.2c2,9.8,2.3,19.8,3,29.7c1.6,0.2,3-0.2,4.4-0.8c1-2.4,0.1-5.1,0.9-7.9
		c1.6,2.5,0.4,5,1.2,7.4c2.9-0.6,6-0.5,9.2-1.7c-2.5-9-0.8-17.9-0.1-26.9c0.3-3.8-0.7-7.5-0.8-11.3c-0.1-4.8-0.4-9.7,1.5-14.3
		c0.7,8.3-0.5,16.6,0.5,25.1c3.5-12.3,7.9-24.1,9.7-36.5c0.9-6.2,0.2-12.7,0.1-19c-0.1-4.3-0.5-8.5-0.7-12.8c0-1.3-0.5-2.9,1.4-4
		c0.2,2.4,0.4,4.6,0.5,6.7c0.6,10.6,2.2,21.2,0.4,31.7c-1.7,9.4-3.8,18.9-7.2,27.9c-1.1,3-1.7,6.1-2.1,9.2c-0.9,8-3.3,15.8-2,24.2
		c1.8,0,3.7-0.4,5,1.6c1.2,1.8,1.4,3.6,0.8,5.5c-0.5,1.5,0.7,3-0.3,4.6c-0.8,1.3-1.1,2.9-1.4,4c0.3,2.3,3.1,2.4,2.8,4.6
		c-0.5,0-0.9,0.1-1.4,0.1c4.9,11,9.8,21.9,14.7,32.8c-1.1,1.9-2.7,2.4-4.4,2.6c-5.5,0.9-11.1,1.7-16.7,1.7c-4.6,0-8.9-1.3-13-3.2
		c-2.1-0.9-3.7-2.4-3.6-5.2c0-1.4-1.4-2.5-2.5-3.3c-4.6-3.2-4.7-9.4-1.8-13.3c1.5-2,2.2-4,0.9-6.4c-0.2-0.4-0.4-1-0.2-1.4
		c2.1-4.9,0.2-10.6,2.8-15.4c0.4-0.7,0.2-1.3,0.1-2.1c-1.4-6.3-1.2-12.8-1.7-19.2c-0.4-5.1-1-10.2-1.9-15.2c-2.3-14-3.9-28-5.9-42
		c-0.8-5.3,0.6-10.7,1.4-16c1.2-8.3,3.8-16,7.4-23.6c2-4.2,1.4-9,0.1-13.3c-1.4-4.6-1.4-9.3-1.9-14.1c-2-0.8-4.1-0.3-6.6,0.6
		c0.1-4.5-0.9-8.7,1.7-12.5c0.6-0.9,0.6-1.9,0.4-2.8c-2.9-10.7-1.3-21.3-0.2-32c0.2-1.7,0.2-3.4,0.3-5.2c-2.8-1.1-4.5-3.2-5.3-6
		c-4.9-16.9-6.2-34-3.4-51.4c1-6,6.2-8.8,11.2-6.8c1.8,0.7,2.6,2.4,4,4c1.4-4.8,2.8-9.1-0.1-13.6c-1.7-2.6-2.9-5.6-4.5-8.4
		c-4.3-7.7-7.6-15.9-8.8-24.6c-0.8-6-1.3-12-2.3-17.9c-0.6-3.5,0.5-7.3,0.3-10.9c-0.1-2.1-0.2-4.1-0.5-6.2c-0.3-2.4-1-4.6-2.4-6.7
		c-3.5-5.4-4-11.7-4.5-17.9c-0.5-6.3,0.4-12.4,2.8-18.3c0.4-1,1-2.1,0.6-3.2c-1.4-3.7-0.8-7.6-0.3-11.1c1.1-8.5,1.7-17.4,9.3-23.4
		c2.6-2,5.3-4,8.3-5.1c4.6-1.7,8.9-4,13-6.6c6.2-4,13.5-5.5,19.8-9.2c4.1-2.4,7.7-10.5,5.7-14.8c-1-2.1-1.4-4-1.7-6.2
		c-0.4-2.5-1-5-2.2-7.3c-0.4-0.8-1.1-1.8-0.9-2.3c1.4-3.6-1.1-6.2-1.8-9.3c-0.8-3.5-0.1-6.8,0.8-10.4c1-4,3.8-7.6,3.5-12
		c0-0.1,0.6-0.2,1-0.3c1,0.5,2.3,0.4,2.8,1c-0.6-0.4-1.8-0.6-2.9-0.9c1.2-1.7,1-4,2.9-5.4c-0.3-1.3-2.2-1.6-1.9-3.3
		c2.7-1.3,3.9,1.1,5.6,2.1c4.6-0.7,6.2-1.5,9-4.6c2-0.1,0.5,1.8,1.2,2.3c2,0.3,2-1.7,3.3-2.5c4.1,0.4,8.5-0.8,12.9,0.3
		c1.3,0.3,3.6-0.7,5.4-1.4c1.8-0.6,3.7-1.1,5,1c1.6-0.6,2.3-2.2,3.8-3.1c1.4,2,0.4,4.2,0.7,6.4c1.7-0.7,3.3-2.6,5.4-1
		c0,2.4-2.8,1.9-3.4,3.5c1.5,0.6,3.1-0.8,4.8,0.3c0.6,1-1.2,2.3,0.2,3.3c-2.4,2.6-5.9,3.2-7.7,6.3c0.9,4.1,0.7,8.4,2.1,12.7
		c0.9,2.6-1,5.6-1.8,8.3c-2.2,0.9-4.2,1.6-6.5,1c-0.3,1.2-0.6,2.2-0.9,3.6c-1.3-6-0.6-6.9,7.7-10.5c-0.6-4.5-2.6-9.1-2.1-14.4
		c-5.1,2.1-9.7,0.1-14.4,0.1c-2.1,0-4.7-0.5-5.3,3.7c-1.1-3.6-3.3-4.5-5.5-5.6c-1.3,0-1.6,1.3-3,2.3c1.9-0.5,3.3-0.3,4.8-0.1
		c0.5,1.1,1,2.3,1.7,3.7c-1.9,0.7-2.9,3-5.2,2.4c-4.5,6.6-7.4,14.1-10.7,21.2c-0.8-1.8-0.8-3.7-2.2-5l-0.2-0.3l0.3,0.2
		c-0.7,1.6-0.6,3.3-0.8,4.9c-0.5,1.3-1.7,0.6-2.5,1.1c0.1,1.9,1.3,2.4,3.4,2.2c-2.2,2.7-1.8,5.5-1.4,8.2c0.7,5.3-0.9,10.4-1.1,15.6
		c-0.1,3.2-2.8,5-5.8,5.7c-1.3,0.3-2.5,0.8-3.8,1.3c0.2,2.9,1.1,5.6,2.1,8.1c2.3,5.4,4.3,10.9,5.6,16.6c1.1,5,3.7,9.4,5.8,14
		c2.1,4.4,5.7,7.2,10.4,8.7c2.1,0.6,3.9,2,6.4,2c0.9-2.1,0.4-4.6,1.4-7.3c1.3,2.9,0.7,5.3,0.6,7.6c6.3,0.8,12.8-3.6,14-10
		c1.7-9.3,1.9-18.7-1.1-27.8c-0.6-1.9,0.5-4.7-3-5.4c-0.1,2.8,1.1,5.9-1.8,8.6c-1.5-6-1.5-11.5,0-17.1c-2.6-1.3-5.8,0.3-8.2-2.5
		c3.1-0.6,5.8,0,8.4-0.2c4.6-0.2,5.5-1,7.1-5.3c2-5.4,3.3-10.9,3.7-16.6c0.3-4.4,2-8.7,1.8-13.2c1.5,3.1,2.6,6.5,1.2,9.7
		c-1.3,3.2-1.7,6.4-1.9,9.6c-0.3,5.4-3.7,9.7-4.8,14.8c-0.2,1-1.4,1.7-2.5,1.9c-1.4,0.3-2.5,0.8-2.7,2.8c5.1-2.5,10-4.9,14.3-8.2
		c5.5-4.2,11.8-6.4,18.5-7.4c3.9-0.6,7.7,1,11.4,1.7c6.6-6.9,12.5-15,23.6-13.9c3.7-4.4,5-10.2,10-13.5c-3.5-6.8-4.3-14-3.5-21.3
		c1-9.3,4-17.8,10.2-25c5.6-6.5,12.6-9.6,21.2-7.2c7.9,2.2,12.2,8,14.7,15.5c0.3,0.8,0.3,1.7,1,2.4c1.4,0.4,2.5-0.1,3.3-1.4
		c0.1-0.2,0.3-0.4,0.4-0.6c9.3-10.5,23.8-8.6,30.3,4c2.8,5.5,3.5,11.4,3,17.4c-0.7,8.8-3.4,17-9.3,23.8c-4.3,5-9.5,8.7-16.6,7.2
		c-7.8-1.6-13.6-5.8-15.9-13.8c-0.1-0.5-0.3-0.9-0.5-1.4c-0.1-0.2-0.4-0.3-0.6-0.5c-2.8,7.5-5.1,15.2-10.5,21.5
		c-3.7,4.4-7.1,8.8-12.6,11.4c-5,2.3-9.1,6-12.4,10.6c-6.3,8.7-14.5,14.7-25.2,17c-5.5,1.2-10.5,4-15.6,6.3
		c-2.9,1.3-4.4,3.6-4.8,6.8c-1.5,13.1-5.3,25.8-8.4,38.6c-0.1,0.2-0.3,0.4-0.4,0.6c-2.2-1.4-1.9-3.7-1.4-5.6
		c1.2-5.1-0.1-9.5-3.2-13.4c-4.4-5.5-6.6-12-8.5-18.5c-1.8-6.1-4.2-12-5.9-17.7c3.7,10,4.9,20.3-0.6,30.5c-3.7,6.8-11.9,10.7-19.5,9
		c-4.7-1-9-3.2-13.6-4.3c-1.4-0.3-2-1.7-2.7-2.8c-6.2-9.1-10-19.2-12.6-29.8c-0.8-3.4-2.1-6.6-2.4-8.5c2.3,7.5,5.2,16.4,5,26
		c-0.1,5.5-0.8,11-1.8,16.3c-0.7,3.7-3.6,6.8-6.3,9.2c-6,5.3-4.5,11.9-4.4,18.3c0,1.6,0.4,3-0.3,4.6c-0.7,1.8-1.3,3.8-1.1,5.7
		c0.6,5-1.3,9.3-3.4,13.5c-1.2,2.4-1.3,4.9-0.5,7.4c1.2,3.8,2.1,7.8,2.3,11.8c0.2,3.6,1.3,4.5,5,5c1.9,0.2,4.4-0.6,5.2,2.2
		c0,0.4-0.2,0.8-0.5,1c-0.7,0.8-1.7,0.8-2.7,1c-3.7,0.6-4.8,1.9-4.8,5.6c0,3.2,0.6,6.3,1.1,9.4c0.5,2.6,2.2,4.1,4.8,4.1
		c8.6,0,17.3,0.6,25.9-0.4c2.6-0.3,5.2-0.7,7.6,0c8.1,2.1,16.3-0.6,24.3,1c2.2,0.4,3.9-0.8,3.8-3.3c-0.1-2.6-0.3-5.1-0.4-7.7
		c-0.1-2.5-2.4-3.5-3.4-5c0-0.6-0.1-1,0.1-1.1c3.8-2.7,4.2-6.6,4.5-10.9c0.8-9.5,1.2-19,1.8-28.4c0.5-7.2,1.6-14.3,4-21.1
		C729.1,270.1,730.2,268.1,732.9,268.6z"/>
	<path d="M447.4,501.2c-0.6-0.8-1.1-1.6-1.9-2.6c-11,2.1-21.8-0.2-33.1-2.2c-1.8,1.5-2.4,4.8-0.8,8.5c4.3,10.1,5.6,20.5,3.6,31.3
		c-2.3,12.1-2.6,24.4,0.7,36.3c3,10.8,4.9,21.8,7.4,32.8c1.3,5.7,1.9,11.5,2.3,17.4c0.2,2.4-0.1,4.8-1.8,6.7c-1.1-0.6-1-1.6-1-2.3
		c0.4-7.6-1.1-15.1-2.5-22.5c-1.8-9.8-4-19.6-5.4-29.5c-0.1-0.5-0.1-1-0.3-1.4c-4.5-11.6-4.1-23.4-1.6-35.3
		c1.3-6.1,0.6-12.1,0.1-18.2c-0.3-3.4-2.4-6.3-2.9-9.8c-0.7-4.8-2-9.5-1.9-14.4c-0.4-0.2-0.8-0.5-1.1-0.5c-5.7-0.3-5.4-0.8-5.7-6.6
		c-0.2-3.9,0.5-7.8-0.5-12.1c-2.4,3.4-2.3,6.9-2.8,10.3c-0.7,4.9-2.7,7.1-7.5,7.9c-1.5,0.2-1.9,1.8-3.2,1.8
		c-1.3,4.5-2.4,8.7-4.9,12.4c-1.2,1.7-1.6,3.7-1.6,5.6c0,7.5-2.8,13.9-7.3,19.8c-0.8,1.4-0.8,3.5-3.1,3.6c-0.8,0-1.4-0.4-1.7-1.1
		c-0.7-1.8,0.6-3,1.6-4.2c3.6-3.9,5.5-8.4,6.4-13.6c0.9-5.3,1.8-10.7,3.8-15.9c1.4-3.6-0.1-5.1-3.9-4.7c-7.5,0.7-15.1,0.8-22.6,1.3
		c-5,0.3-6,1.8-5.1,6.8c1.5,7.6,1.1,15.3-1.1,22.8c-1.9,6-4.3,11.8-5.6,18.1c-1.7,8.2-1.6,16.3-0.4,24.4c1.8,11.4,2.2,23.1,4.4,34.4
		c1.7,8.5,2,17.1,3,25.7c1.4-0.3,1.1-1.3,1.3-2.1c0.3-1.2,0.7-2.5,2.2-2.5c1.4,0,2.1,1,2.5,2.3c0.5,1.6,1.1,3.3,3.2,2.7
		c2-0.5,2-2.3,1.7-3.9c-0.7-4.9-0.1-9.8,0.5-14.6c1.1-8.8-0.5-17.5,0-26.3c0.1-2.6,0.2-5.3,2.3-7.2c2.7,0.4,2.6,2.3,2.6,3.9
		c0.2,5.7,0.4,11.5-0.8,16.4c0.6-7.7,4.2-15.3,5.9-23.4c2-9.8,1.8-19.6,1.4-29.5c-0.1-2.2-0.3-4.4-0.4-6.6c-0.1-2.4,0.1-4.8,1.9-6.6
		c0.8-0.1,1.4,0,1.4,1.1c0.1,6.6,0.8,13.1,1.2,19.7c0.6,10.5-0.2,20.9-3.6,31c-1.7,5.1-2.6,10.3-4.5,15.4
		c-2.4,6.5-2.5,13.6-3.6,20.5c-0.6,3.9-1.1,7.7-0.1,11.5c1,0.7,2-0.1,3.6,0.6c4.9,4.7,1.4,10.4,0.4,15.8c0.3,1.8,2.4,2,2.6,3.5
		c0.1,1.1-1,0-1.3,0.9c1.6,3.5,3.5,7,4.7,10.7c2.6,7.7,7.7,14.2,9.7,22.4c-0.7,1.2-2,1.7-3.6,2.1c-6.6,1.4-13.3,1.9-20,1.7
		c-3.7-0.2-7.2-1.4-10.5-3.1c-1.9-1-3.6-2.3-3.4-5c0.1-1.5-1.4-2.4-2.4-3.4c-4.6-4.4-5.2-8.1-1.8-13.6c1.2-2,2.1-3.8,0.8-6.1
		c-0.2-0.4-0.4-1-0.2-1.4c1.9-5,0.5-10.6,2.7-15.5c0.3-0.7,0.4-1.3,0.2-2.1c-1.5-6.2-1.2-12.5-1.7-18.8c-0.4-5.2-1-10.4-1.9-15.6
		c-2.3-14-3.9-28-5.9-42c-0.7-5.2,0.5-10.4,1.3-15.6c1.2-8.4,3.7-16.3,7.4-24c2.1-4.3,1.4-9.2,0.1-13.6c-1.4-4.5-1.2-9.1-2-13.9
		c-1.8-0.8-3.9-0.5-6.4,0.7c-0.2-4.6-0.8-8.8,1.5-12.6c0.7-1.1,0.7-2.1,0.4-3.1c-2.8-10.3-1.3-20.6-0.3-30.9
		c0.2-1.9,0.3-3.9,0.4-5.9c-3-1.3-4.7-3.7-5.6-6.8c-4.6-16.7-5.9-33.6-3.2-50.7c1-6.1,6-8.8,11.2-6.9c1.9,0.7,2.5,2.5,4.1,3.8
		c1.4-4.6,2.8-8.9-0.2-13.4c-1.7-2.5-2.8-5.4-4.3-8c-4.3-7.7-7.7-15.8-8.9-24.6c-0.8-6.1-1-12.3-2.4-18.3c-0.3-1.1,0.1-2.4,0.2-3.6
		c0.3-4.3,0.4-8.5-0.2-12.8c-0.4-2.8-1-5.3-2.7-7.8c-3.4-5.3-3.8-11.5-4.4-17.6c-0.5-6.3,0.4-12.4,2.8-18.3c0.4-1,1-2,0.6-3.2
		c-1.3-3.7-0.8-7.6-0.3-11.1c1.2-8.6,1.6-17.7,9.7-23.5c2.5-1.8,5.2-3.8,8.1-4.9c4.6-1.7,8.9-4,13-6.6c6.2-4,13.5-5.5,19.8-9.2
		c4.1-2.4,7.7-10.5,5.6-14.8c-1-2.1-1.3-4-1.7-6.2c-0.4-2.5-1-5-2.2-7.3c-0.4-0.7-1.1-1.7-0.9-2.3c1.3-3.4-0.8-6-1.7-9
		c-1.1-3.6-1-7.3,0.8-10.7c1.1-2,0.4-4.5,1.6-6.3s2-3.5,1.9-5.7c0.5-0.2,0.9-0.1,1.3,0.3c0.9-0.2,1.7,0,2.4,0.4
		c-0.8-0.4-1.6-0.7-2.5-0.4c-0.5-2.5,0.8-4.3,2.3-6c-0.4-1.2-2.2-1.6-1.9-3.4c2.6-1.1,3.9,1.2,5.5,2.2c4,0,6.9-2,9.2-4.7
		c1.7,0.4,0.6,1.7,1.1,2.5c2,0.4,2.1-1.8,3.5-2.6c4.1,0.3,8.3-0.6,12.7,0.3c1.7,0.3,3.7-0.8,5.5-1.3c1.9-0.6,3.7-0.9,5.2,0.7
		c1.6-0.4,2.1-2.1,3.6-2.9c1.5,2,0.5,4.3,0.7,6.5c3.3-1.8,3.3-1.9,5.5-0.7c-0.1,1.8-2.4,1.4-2.9,2.9c1.4,0.6,2.9-0.4,4.3,0.6
		c-0.1,1.2-0.7,2.4,0,3.5c-2.4,2.4-5.8,3-7.6,6.2c0.9,3.9,0.6,8.3,2.1,12.6c0.9,2.7-1,5.6-1.8,8.5c-1.1,0.3-2.1,0.7-3.1,1
		c-1.1,0.4-2.1-0.1-3.1,0c-1,0.9-0.4,2.2-1.1,3.1c-1.6-5.3-0.6-6.8,7.6-10.2c-0.3-4.7-2.9-9.1-2-14.5c-6.7,2.9-12.9-1.2-19.1,0.9
		c-0.8,0.3,0.2,1.4-1,1.9c-1.1-0.8-1.2-2.7-2.9-3.1c-1.2-0.3-2.2-2.1-3.7-0.6c0.4,2,2.1,1,3.1,1.7c0.5,1,1,2.1,1.6,3.4
		c-1.8,0.7-2.4,3.1-5.1,2.6c-0.9-0.2-1.3,1.6-1.8,2.5c-3,5.3-5.8,10.6-7.6,16.5c-0.3,0.9-0.7,1.9-2,2.1c-0.1-1.5-0.3-3.1-1.4-4.5
		c-1.3,1.4-0.6,3.2-0.9,4.3c-0.9,1.3-1.8,0.8-2.6,1c-0.2,2.2,1.6,2.3,3.3,2.7c-2.3,2.2-1.7,4.9-1.3,7.2c0.8,5.4-1,10.6-1.1,16
		c-0.1,3.3-2.8,5-5.7,5.8c-1.3,0.4-2.5,0.7-3.9,1.4c0,2.7,0.9,5.2,1.9,7.6c2.6,6.2,4.8,12.5,6.4,19.1c1.1,4.6,3.6,8.7,5.7,12.8
		c3.3,6.4,9.9,8.1,16.4,10.2c0.4-2.4,0.7-4.6,1-6.8c1.5,2.2,1.1,4.5,0.8,6.8c6.7,0.7,12.9-3.6,14.1-10.1c1.7-9.3,1.9-18.7-1.2-27.8
		c-0.6-1.9,0.4-4.7-2.9-5.3c-0.1,2.8,1.2,6-1.9,8.6c-1.3-6-1.6-11.6,0.2-17.1c-2.8-1.4-6,0.4-8.3-2.6c3-0.5,5.5,0.1,7.9,0
		c5.3-0.3,5.9-0.9,7.8-5.9c1.9-5.1,3.1-10.2,3.5-15.6c0.3-4.5,2.2-8.9,1.9-13.6c1.5,3.1,2.5,6.4,1.2,9.7c-1.1,2.7-1.8,5.4-1.7,8.1
		c0,4.6-2.3,8.4-3.7,12.5c-0.9,2.8-1.5,5.4-5.2,6.2c-2.3,0.5-1.7,3.4-2.3,5.6c1.9,0.6,3.2,1.7,4.4,3c3.3,3.5,6.9,6.6,11.9,7.4
		c0.8,0.1,1.3,0.7,1.9,1c2.5,1.5,4.9,2.8,8,3.1c2.8,0.3,5.6,1.8,7.7,3.9c4.6,4.5,9.1,9.2,11.3,15.5c1.4,4,1.4,7.9,1.3,12.1
		c-0.2,6.8-1.6,13.9,1.4,20.6c3.1,6.9,3.2,13.9,1.2,21.1c-1.7,5.9-1,11.7,2,17.1c2.2,3.8,0.9,7.7-0.5,11.3c-0.5,1.2-0.6,2.1-0.4,3.3
		c1,5.2,0.2,10.4-0.3,15.6c-0.6,6.5-2.6,12.6-5.2,18.5c-1.2,2.9-2.1,5.9-2.4,9.5c4.3-0.9,8.2-0.4,12.2,0.9c4.9,1.7,8.4,5,10.9,9.3
		c6.7,11.6,7.6,23.8,2.9,36.2c-5.5,14.6-20.5,15-29.3,8c-0.3-0.2-0.6-0.4-1.5-0.9c5.4,24.1,7.9,48,5.6,72.2c-3.1,1-6-0.2-9.2,0.7
		c-0.6,4.5-3.5,8.5-3.2,13.7c0.3,3.9,1.5,8.3-1.6,11.9c-0.3,0.4-0.2,1.5,0.1,2.1c3.1,7.3,2.7,15.3,3.9,22.9c1.3,8.5,0.7,17-1.3,25.4
		c-1.1,4.7-0.7,9.5-1.1,14.2c-0.9,10-1.2,20-2.2,29.9c-0.4,3.7,0.4,7.5,0.6,11.2c1.5,1,3.4-0.1,4.6,1.4c0,6.9,3.1,12.3,8,17
		c4.5,4.3,7.8,9.6,12.1,14.1c2.4,2.5,4.9,4.7,5.7,8.3c0.8,3.7,0.5,4.3-3.8,5.2c-1.5,3.7-5.1,4.3-8.7,5.2c-5.6,1.4-11.1,0.7-16.7,0.2
		c-5.3-0.6-6.8-2-8.3-7.3c-1.3-0.9-2.7-1.5-4.3-1.4c-3.6,0.3-7-0.9-10.3-2c-3.8-1.2-5.6-4.8-8-7.5c-0.9-1-0.3-2.3,0.4-3.4
		c0.6-0.8,1.5-1.6,1.3-2.6c-1.1-4.6,1.9-8.1,3.1-12.1c0.4-1.3,0.9-2.7,0.5-3.9c-1.2-3.8,0.6-6.3,3.3-8.4c0.4-1-0.6-1.8-0.3-2.2
		c1-2,3-1.7,4.2-2.8c0.3-3.1-0.2-6.3,0.9-9.4c1.3,2.8,0.6,5.9,1,9.1c4.1,0.2,7.9-2.2,12-1.2c0.1-14.1,2.3-28.1,2.6-42.2
		c0.1-5.5,0.7-11,1.6-16.4c1.6-9.4,0.6-18.7-0.8-28c-0.5-3.5-0.7-7-2.2-10.9c-0.8,2.4-1.4,4.5-2.3,7.2c-0.2-4-0.3-7.3,2-9.9
		c0-1.1-0.7-1.6-1.5-2c2.8-5.1,3.7-10.4,3.4-16C445.3,505.8,445.9,503.3,447.4,501.2L447.4,501.2z"/>
	<path d="M705.4,155.4c-4.1,4.3-8.6,3.5-13.2,2.5c2.6-1.5,5.6-1.7,8.8-2.1c-2-1.8-4.7-0.1-5.8-2c-1.9,0.3-2.8,1.9-4.7,1.5
		c3-3.7,6.9-3,10.6-2.8C703.1,152.6,705.3,153.1,705.4,155.4z"/>
	<path d="M401.1,163.3c4.8-4.8,13-4.4,14.8,0c-3.8,3.7-8.3,3.7-13.8,2.5c3.2-1.7,6.2-1.8,9.2-2.3C408,162.2,404.7,160.7,401.1,163.3
		z"/>
	<path d="M722.3,560.6c-0.5-0.6-1.2-0.9-1.2-2c-0.1-6.3-0.3-12.6-1.4-18.9c-0.1-0.6-0.1-1.2,0.7-1.8c1.5,0.4,1.6,1.8,1.9,3.1
		c1.5,6.2,1.8,12.5-0.3,18.7C721.9,559.9,722.1,560.3,722.3,560.6L722.3,560.6z"/>
	<path d="M432.8,567.9c-0.6-0.2-1.1-0.5-1.1-1.2c-0.1-6.4-0.3-12.9-1.4-19.3c-0.1-0.6,0-1.2,0.5-1.6
		C434.2,548.9,434.9,557.3,432.8,567.9L432.8,567.9z"/>
	<path d="M663.4,494.8c-2.2,10.2-14.5,15.2-21.6,9.1c0.6-0.9,1.4-0.3,1.9-0.1c6.6,3,11.4-0.4,15.8-4.7
		C661,497.7,662.4,496.4,663.4,494.8z"/>
	<path d="M388.1,179.2c-0.2,3.9,1.4,7.4,2.5,11c3.6,2.3,7.4,4.4,10.8,8c-2.9-0.6-8.9-4.5-13.8-8.8
		C388.5,186,384.5,182.5,388.1,179.2z"/>
	<path d="M676.9,181.7c0.8-3.4-2.9-7,0.8-10.2c0,1-0.1,2.1,0,3c0.7,4.3,1.5,8.5,6.2,10.6c2.4,1,4.4,2.9,6.4,5
		C688,190.1,683.1,187,676.9,181.7z"/>
	<path d="M641.9,524.3c0.8-0.1,1.2,0.2,0.9,1c-0.6,1.7-0.9,3.7-1.9,5.1c-2.5,3.7-2.8,7.6-2,11.9c0.7,3.7,0.7,7.4-1.8,10.8
		c1.6-5.4,0.2-10.8,0.1-16.1c-0.1-2,0.9-3.8,1.9-5.5c1.1-2,2-4.2,2.2-6.5C641.1,524.3,641.3,524.1,641.9,524.3z"/>
	<path d="M394.6,227.2c3.1,0.2,6.1,1,8.5,2.7c2.2,1.5,4.1,1.9,6.3,0.8c0.5-0.2,0.9-0.2,1.4,0.2c-1.2,2.7-3.9,3.9-6.3,2
		C401.5,230.4,398.1,228.9,394.6,227.2z"/>
	<path d="M683.5,219.3c3.6,0.9,7.4,1.3,10.4,4c1,0.9,2.1,0.4,3.1,0.4s1.9-1.1,3.1-0.6c-0.7,2.8-3.9,4.2-6.2,2.2
		C690.7,222.4,686.9,221.3,683.5,219.3z"/>
	<path d="M716,507.8c4.1-2.6,10.3-0.3,12.8-6.7c0.8,2.4,0.1,4-1.3,4.6c-3.2,1.4-6.3,3.1-9.9,3.3C717,509,716.4,508.9,716,507.8z"/>
	<path d="M651,527c-4.3-5.2-4-12.9,0.5-15.3C648.6,516.8,649.4,521.9,651,527z"/>
	<path d="M439.7,509c-0.2,4.7-8.7,8.8-13.1,6.7c1.8-1.5,4.1-1.4,6-1.9C437.1,512.5,437.1,512.6,439.7,509z"/>
	<path d="M731,530.8c0.6,2.3,0.1,4.3-1.1,5.9c-1.7,2.2-3,4.4-3,7.2c0,0.7-0.3,1.4-1.2,1.6C724.1,539.4,729.8,536,731,530.8z"/>
	<path d="M441.7,538.5c0.5,2.2,0.1,4.3-1.2,5.9c-1.7,2.2-3,4.4-3,7.2c0,0.7-0.3,1.4-1.2,1.8c-0.4-3.2-0.1-6.1,2.1-8.5
		C440,543.1,440.1,540.4,441.7,538.5z"/>
	<path d="M421.9,193.2c-2.5,1-4.9,1.4-7.6,0.3c0.4-2,1.5-3.1,3.2-2.9C419.1,190.7,421.2,190.5,421.9,193.2z"/>
	<path d="M410.8,187.4c4.3,0.5,8.5-0.7,12.9,0c-4.2,1.3-8.5,2.1-12.8,1.5C410.8,188.4,410.8,187.9,410.8,187.4z"/>
	<path d="M703.6,185.6c0.5-1.8,1.5-2.9,3.3-2.7c1.7,0.1,3.6,0,4.3,2.6C708.6,186.3,706.2,187.3,703.6,185.6z"/>
	<path d="M712.9,180.2c-4.2,0.5-8.4,1.6-13.4,1.2C701.5,179.7,709.9,178.9,712.9,180.2z"/>
	<path d="M667.1,520.1c-1.4,4-4.2,6.9-7.6,9.2c1.4-3.9,5.1-6.1,7.2-9.6C666.8,519.8,667,519.9,667.1,520.1z"/>
	<path d="M397.9,210.4c3.2,2.3,1.8,6.1,2.8,9.2C398.2,217,399.5,213.3,397.9,210.4z"/>
	<path d="M687.2,202.9c3.4,2.3,1.6,6.2,2.9,9.2C687.6,209.6,688.9,205.8,687.2,202.9z"/>
	<path d="M391.1,195.1c2.9,2.5,4,6.1,5.9,9.2C394.2,201.8,392.5,198.5,391.1,195.1z"/>
	<path d="M716.7,524.6c2.4,2.4,2.1,5.7,2.7,8.6C717.7,530.6,716.8,527.8,716.7,524.6z"/>
	<path d="M429.8,540.9c-1.4-2.7-2.5-5.4-3-8.7C429,533.7,429.8,536.1,429.8,540.9z"/>
	<path d="M706.8,174c0.4-2.9,1.3-3.2,5.6-2.3C711.4,174.9,708,171.8,706.8,174z"/>
	<path d="M680.5,187.5c2.4,2.3,3.9,5.3,5.3,8.4C683.1,193.7,681.9,190.6,680.5,187.5z"/>
	<path d="M641.9,524.3c-0.2,0.2-0.4,0.4-0.6,0.6c-2.4,1.8-3.3,4.7-4.8,7.1c0.1-3.6,2.1-6.2,4.7-8.5
		C641.6,523.1,641.9,523.8,641.9,524.3z"/>
	<path d="M417.1,181.3c1.1-2.7,3.5-3.2,5.8-1.4c-0.6,1.3-1.8,1.1-2.8,0.9C419.1,180.6,418.4,181.8,417.1,181.3z"/>
	<path d="M419.3,506c3.1-0.5,6,0.9,9.1,1.1C425.2,507.7,422.2,507.1,419.3,506z"/>
	<path d="M438.5,522.5c-1.4,3.2-2.2,3.5-5.6,2.2C434.9,523.8,436.3,522.5,438.5,522.5z"/>
	<path d="M717.9,499.8c-3.2,0-6.3-0.2-9.3-1.5C711.9,497.8,714.8,499.2,717.9,499.8z"/>
	<path d="M728,514.6c-1.7,3.4-2.3,3.7-5.8,2.4C724.1,516,725.6,515.1,728,514.6z"/>
	<path d="M690.4,214.7c1.5,1.9,1.7,3.5,1.1,5.7C689.7,218.7,689.5,217.1,690.4,214.7z"/>
	<path d="M655.3,561.8c0,2.7,0,5.4,0,8.1C654,567.1,654.1,564.4,655.3,561.8z"/>
	<path d="M402.1,228.3c-1.6-2-1.8-3.5-1.2-5.8C402.6,224.3,402.8,225.8,402.1,228.3z"/>
	<path d="M432.8,567.9c0.6,2.7,0.1,5.3-0.8,7.8C431.5,573,431.2,570.4,432.8,567.9L432.8,567.9z"/>
	<path d="M722.2,560.6c0.8,2.4-0.3,4.7-0.8,7C721,565.2,720.2,562.8,722.2,560.6L722.2,560.6z"/>
	<path d="M706.6,221.7c-1.9,1-3.4,0.7-4.9,1C703.3,221.1,703.3,221,706.6,221.7z"/>
	<path d="M664.4,499.7c2,1.2,1.5,2.8,1.7,4.2C665.2,502.8,663.8,502.1,664.4,499.7z"/>
	<path d="M717.1,599c-1.3-1.1-1.1-2.4-0.5-4.3C717.7,596.4,717.2,597.8,717.1,599z"/>
	<path d="M418.9,229.6c-2.2,0.3-4.3,0.5-6.5,0.8C414.4,228.2,416.7,229.4,418.9,229.6z"/>
	<path d="M427.6,602.6c0.6,1.7,0.5,2.9,0.3,4.1C426.7,605.2,426.7,605.2,427.6,602.6z"/>
	<path d="M694.9,232.9c1.2,1.7,1.4,3,1,4.7C694.3,236.4,694.7,234.9,694.9,232.9z"/>
	<path d="M717.6,609c0-1.7,0-3.5,0-5.2c0.1,0,0.2,0,0.3,0c0,1.7,0,3.4,0,5.1C717.8,608.9,717.7,609,717.6,609z"/>
	<path d="M406.4,244.9c-1.3-0.9-1-2.2-1-3.7C407.2,242.2,406.5,243.6,406.4,244.9z"/>
	<path d="M428.4,610.8c0.7,2.2,0.4,3.8,0,5.5C428.1,614.7,427.9,613.1,428.4,610.8z"/>
	<path d="M655.6,556.7c-0.5-1.2,0.2-2,0.6-3.1C657,554.9,655.8,555.8,655.6,556.7z"/>
	<path d="M632.1,549.9c0-0.6,0-1.3,0-1.9l0,0C632.2,548.6,632.2,549.3,632.1,549.9L632.1,549.9z"/>
	<path d="M642.8,613.9c-0.4,1.6-0.6,2.5-0.8,3.4C641.3,616.2,641.1,615.3,642.8,613.9z"/>
	<path d="M687.4,199.9c-0.1-0.1-0.5-0.3-0.6-0.5c-0.2-0.6,0.2-0.9,0.8-0.8c0.3,0.1,0.6,0.4,0.6,0.7C688.4,199.7,688,200,687.4,199.9
		z"/>
	<path d="M397,206.6c1.5-0.4,1.8,0,2.1,0.6C397.6,208.4,397.8,207.3,397,206.6z"/>
	<path d="M641.5,608.8c0.1-0.5,0.1-0.9,0.2-1.4c0.1,0.1,0.2,0.1,0.2,0.2c0,0.4,0,0.8-0.1,1.2C641.7,608.8,641.6,608.8,641.5,608.8z"
		/>
	<path d="M632.8,542.7c0-0.3,0-0.7,0-1l0,0C632.8,542.1,632.8,542.4,632.8,542.7L632.8,542.7z"/>
	<path d="M699.2,204.5c-0.1,0.5-0.3,0.8-0.8,0.9C697.9,204.3,698.2,204.1,699.2,204.5z"/>
	<path d="M408.4,212.8c0.5-0.5,0.5-1.5,2-0.9C409.8,212.3,409.9,213.3,408.4,212.8z"/>
	<path fill="#FFFFFF" d="M697.8,427.8c-3.8,5.4-5.9,11.6-7.3,18c-0.5,2.6-2,4.8-2.5,7.4c-1.2,6.2-2.2,12.5-2.4,18.8
		c-0.1,4.4-1.8,8.3-3.4,12.5c-17.2,2.2-34.6,2.1-52.2,3.1c1.9-6.5,1.9-12.7,0.5-19.1c-1.8-8.3,0.5-16.5,0.8-24.8
		c0.1-1.7,0.3-3.4,0.5-5.4c5.7,0,6.8-4.1,7.5-8.6c0.6-3.6,1.1-7.2,0.6-10.9c-0.3-1.8,0.3-3.6,0.5-5.3c0.9-0.3,1.8-0.2,2.1,0.4
		c1.7,3.7,5.5,3.4,8.5,4.5c1.9,0.6,3.6,0.2,4.6-1.9c0.6-1.2,2-1.8,2.5-3.7c-2.5,0.7-3.3,3-5.1,4.2c-1.5-0.2-3.3,0.2-4.8-0.9
		c0.4-1.4,2-2.1,2.2-4c-1.9,0.6-2.4,2.4-3.8,3.1c-2-0.6-3.3-1.4-2.4-4.1c0.9-2.9,1.1-6.1,0.3-9c-0.9-3.4-1.1-6.7-0.2-10.1
		c1.2-4.1,0.6-8.2-0.4-12.3c-0.4-1.4-0.8-2.8,0.4-4.1c-1.2-0.7-1.9-1.4-2.3-2.5c-2.6-7.4-6.6-14.1-10-21.1
		c-4.3-8.8-7.6-17.9-7.8-27.9c-0.1-3.5-2.9-7.1-1.7-10.3c1.9-5-0.2-9.7,0.3-14.5c0.5-5.5-1.5-10.6-3.8-15.4c-1.4-2.9-2.1-6-2-9.4
		c1.6,0.5,2.9,1.5,4.2,1.6c1.2,1.2,1.2,3,2.7,3.7c0.4-2.6-3.5-8.7-7.5-11.8c-1.3-6.8,3.5-12.3,3.6-19.1c1.5,0.4,1.5,2.3,3.4,2.7
		c-1.9-4.6-2.7-9.2-3.8-13.7c-1.7,2.5,0.1,5.1-0.6,8c-2.3-5.2-0.8-10-0.2-14.7c1.1-8,6.6-12.6,13.5-15.3c6.9-2.6,12.5-7.5,19.3-10.2
		c1.6-0.6,3-1.5,4.9-2.4c1.8,7,3.3,13.8,4.4,20.8c0.5,3.6,0.6,7.3,1.1,10.9c1.3,9.8-2,17.7-10,23.9c-0.6,0.6-0.9-1.2-2.1-0.2
		c-0.7,14.1,1.2,28.8-4.8,42.6c-1.2-0.7-0.3-3-2.4-3.5c-1.1,1.3-0.3,2.6,0,3.8c3.2,11.3,3.7,23.1,6.2,34.5
		c2.6,11.8,3.2,23.9,6.4,35.5c1.5,5.5,3.9,10.7,5.9,16c0.8,2,2.6,3.2,4.4,4.2c2.4,1.3,3.8,3.3,4.1,6.1c0.3,2.5,0.8,5.1,1.3,7.6
		c0.5,2.8,0.9,5.4-1.8,7.6c-1.1,0.9-1.3,3-1.9,4.6c-1.5,0.4-2.9,0.8-4.3-0.5c1.3-2.6,4.2-4.2,4.3-7.4c-3.2,3.6-5.4,8.4-11.9,7.7
		c2,2.3,3.9,2.1,5.8,0.7c1.1,0.6,2,1.2,2.9,1.7c3-0.1,5.4-0.9,6.5-4c1.6,1.5,1.7,3.4,2.1,5.1c0.7,3.2,1.7,6.3,2.7,9.5
		c0.9,2.8,2.6,3.8,5.3,4.1c5.8,0.7,8.2-0.6,9.5-6.3c0.6-2.8,3-3.8,4.7-5.6c-1.7-0.6-2.2,1.3-3.7,1.1c0.7-9.7,0.6-19.4-0.5-29.1
		c-0.7-5.8-1.1-11.6-3.8-17c-1.3-2.6-2.6-5-6-5.1c-1.2-4.4-1.5-8.8-2.5-13.1c-1.6,2-0.6,4.1-0.2,6.1c0.4,2.1,1,4.3,1.5,6.4
		c-1.5,1.6-3.7,1.3-5.6,2.6c0.5-5.8,0.6-11.3-0.2-16.8c-2.4,5.4-0.4,11-1,16.5c-0.6,5.7-3.3,10.9-3.1,16.9c-5.2-1.4-7.5-4.9-8.7-9.3
		c-1.6-6.1-3-12.3-4.6-18.5c-0.4-1.6,0.4-2.8,0.5-4.2c-0.2-0.8-1.5-0.5-1.4-1.6c1-1.2,2.5-0.2,3.7-0.5c-0.4-2.7-2.5-0.6-3.4-1.3
		c-1.1-0.7-1.3-1.6-1.2-3.1c20.2,0.4,40.4,0.6,60.8,2.4c-0.2,1.2-0.3,2.2-0.4,3.2c-1.9,0.8-2.7-0.3-3.4-1.8c-1.6,2.2-2.9,2-3.9-0.8
		c-0.7,1.1-0.4,2-0.4,2.6c0.9,1.3,2.4,1,3.3,1.8c1,2.3-0.9,5.5,2.1,7.6c1-2.6-0.3-5,0.6-7.2c0.7-0.7,1.5-0.5,2.6-0.3
		c-0.2,4.9,4.7,5.6,7.1,8.6c-0.8-3.2-4.2-5.1-4.7-8.4c1.7-1,3.1,0.2,4.8-0.2c0.4-1.2,0.9-2.5,1.4-3.8c0.5,2.6,1.2,5,2.2,7.3
		c6.1,14.2,8.9,29.2,10.5,44.4c0.6,5.2,1.2,10.4,1.9,15.6c0.1,1.2,0.1,2.5,1.5,3.1c0.8,0.3,0.9,1.1,1,1.8
		c1.7,11.3,4.5,22.4,5.2,33.9c0.5,8.3-0.5,16.5-0.9,25c-10.8-0.5-21.2,1.1-31.7,0.6c-4.9-0.2-9.7-2.1-14.6-3.2
		c-2.1-0.5-4.1-1.3-6.6-1.4c-0.5-5.6-1.9-10.9-1.9-16.4l-0.1,0.1c1.9,2.3,1.5,5.3,2.3,7.9c0.5,1.6,0.7,3.3,1.8,5.2
		c-0.8-7.7-3.2-14.5-5.4-21.2c1.1-0.9,1.9-0.8,2.7-0.9c2.8,4.9,4.7,10.1,7.4,15.1c-0.7-3.6-1.8-7.1-3.8-10.1
		c-3.5-5.4-3.6-10.9-2.6-17C695.3,440.1,696.1,433.8,697.8,427.8c0.9-2.2,0.2-4.3-0.1-6C698.1,423.5,698.6,425.6,697.8,427.8z"/>
	<path fill="#FFFFFF" d="M661.5,328.2c-1.8-1.5-4-0.7-6-1c-1.5-0.3-3.2-0.2-5-0.9c-0.2-7.2-1.3-14.4-4.2-21.2
		c1.6-3.7,3.3-7.5,5.2-11.7c-0.4-4.2-0.1-9,1.9-14c-1.9-5.5,0.3-11.3-0.3-17c2.2-1.8,4.3-3.5,6-5.6c1.7-2,2.2-4.9,4-6
		c4.8-17.1,0.9-33.1-3.6-48.6c0.8-1.4,1.6-2.1,2.6-2.2c4,16.6,8.3,32.9,18.3,47.3c0.8,0.5,1.5-1,2.8-0.1c2.5,2,5.8,2.4,8.8,3.5
		c8.6,3.2,17.2-1.8,20.7-9.5c3-6.8,2.6-13.8,1.6-20.8c-0.6-3.8-1.4-7.6-3-11.2c0.2-0.1,0.4-0.2,0.6-0.3c1.4,2.4,3,4.6,4.3,7.1
		c1.8,3.6,3.4,7.3,4.3,11.2c1.3,5.6,3.4,10.9,5.7,16.2c1.9,4.3,5.5,7.4,7.7,12.1c-0.3,4-0.7,8.6-1.1,13.2l0.1-0.1
		c-3.5,3-3.7,7.5-4.8,11.4c-2,7.3-2,14.9-2.4,22.5c-0.5,9.9-1.4,19.7-2.2,29.3c-1.3,1.1-2.6,0.5-3.9,1.1c1.1,0.8,2.3,0.1,3.7,0.8
		c-0.4,5.9,0.8,11.8,0.8,18.3c-23.2-2.7-46.2-0.6-69.3-1.3c-1.5-3.8-1.9-7.6-2.4-11.5c-0.5-3.6-0.7-7.1-1-10.9
		C654.6,328.2,658.1,328.2,661.5,328.2L661.5,328.2z"/>
	<path fill="#FFFFFF" d="M736.2,238c0.9-9.1,0.6-18.3,2.9-27.4c-1.1,0.3-1.3,2.7-3.5,1.5c-0.9,9.1-2.3,17.6-0.2,26
		c1.1,4.5,0.6,8.5-0.8,13.1c-4.7-6.6-9.2-12.7-10.6-20.8c-2-11.4-7.5-21.2-15.5-30c6.4-2.9,11.7-7.5,17.9-10.6
		c7.2-3.6,14.8-5.4,22.9-3.1c-0.6,4.3-5.5,6.3-5.2,10.9c2-2.8,4-5.6,6.3-8.2c3-3.3,5.3-7,8.7-10.1c4-3.7,8.4-5.1,13.6-5.2
		c1.9,0,3.9,0.3,5.5-1.2c1.4-5.3,3.7-10,7.8-14c4,5.1,9.7,7.5,15.9,8.4c6.8,0.9,11.8-3,16.5-7.4c-1.6,6.1-3.3,12.1-8.3,16.4
		c-2,1.8-4.1,3.4-5.7,5.6c-0.5,0.8-1.3,1.5-2.2,1.9c-7.4,3.6-12.9,9.5-18.4,15.3c-6.6,7-14,12.5-23.7,14.9
		c-4.8,1.2-9.4,3.4-13.9,5.5c-3.7,1.7-6,4.3-6.7,8.5c-0.6,3.5-1.4,6.9-2.2,10.3C736.9,238.2,736.6,238.1,736.2,238z"/>
	<path fill="#FFFFFF" d="M822.2,128.2c-0.2,9.5-2.8,18.4-8.4,26.3c-1.9,2.7-4.3,5-7,6.8c-7.7,5.1-15.9,3.1-20.6-4.9
		c-2.9-5-3.9-10.5-3.9-16.2c0-9.2,2.5-17.8,7.7-25.5c2.6-3.9,5.9-7.2,10.2-9.2c6.3-2.9,12.3-1.5,16.6,4
		C820.9,114.9,822,121.4,822.2,128.2z"/>
	<path fill="#FFFFFF" d="M828.8,123c3.1,0.7,3.1,0.7,7.3,9.9c-1.4,2.3-2.4,5-2.8,7.8c-0.5,3.3-1.8,5.5-5.4,5.8
		c-0.4,0-0.8,0.4-1.3,0.7c2.4,1.6,4.2,0.9,7.7-3c2.3,1.8,4.2,0.6,5.8-1.2c1.4-1.6,1.8-5.9,0.4-7.2c-2.9-2.9-4.2-6.7-5.8-10.3
		c-0.6-1.4-1.6-2.4-2.8-3.5c2.8-4.7,6.8-7.5,12.1-8.3c2.1-0.3,4.1,0.2,6.1,1.6c8.1,5.9,9.8,14.2,9.3,23.3
		c-0.5,8.9-3.4,16.9-9.2,23.8c-2.4,2.8-5.3,5-8.9,6.1c-4.2,1.3-7.9,0.4-11.2-2.4c-5.8-5-7.2-12.6-3.9-19.4c1.6-3.3,2.9-6.7,4.1-10.1
		c1-3-0.6-6.2-1.1-9.3C829,125.9,828.3,124.7,828.8,123z"/>
	<path fill="#FFFFFF" d="M739.3,645.8c-0.1,1.3-2.5,1.4-1.9,3.2c1.4,1.4,2.7-0.4,4-0.1c2.9,3.4,6.5,1.9,10.3,1.5
		c2.9,5.2,9.1,8.1,11.3,14.3c-2,3.2-4.6,4.8-8.2,5.6c-6.6,1.5-13.2,2-19.9,0.7c-2.3-0.4-4-1.2-4.3-4.1c-0.2-2.3-3-3.9-5.8-4.1
		c-2.1-0.1-4.1,0-6.2-0.5c-6.3-1.6-7-2-11.2-7.7c1.3-2.3,2.4-4.8,1.6-7.8c-0.3-1.1,0.7-2,1-3c0.6-1.7,2.5-2.6,2.5-4.8
		c0-1.7,0.8-3.5,0.7-5.5c1.9,3.7,4.8,4,8.1,3c3-0.9,3-3.5,3.6-5.7c-0.4-1.6-2-2.3-2.3-4.5c4.6,0.4,9.1-0.2,13.4-0.1
		c1.8,2.2,0.6,4.9,2.7,7.1c-3.4-0.4-6.1-1.6-8.8,0.1c-1.2,0.8-0.1,1.7-0.3,2.5c-1.5,0.9-3.7-1.1-5,1c0.8,2.5,3,1.6,4.6,2
		c-0.1,1.4-2.4,0.9-2.1,2.8c1.8,1.9,4.4,0.5,6.6,1c0.3,0.8-1,1.5,0.1,3C735.2,646.9,737.5,645.3,739.3,645.8L739.3,645.8z"/>
	<path fill="#FFFFFF" d="M649.8,661.2c4.3,2.2,9.1,2.6,14.3,1.5c1.9,3.2,2.9,6.9,4.6,10.4c0.5,0.1,0.1-0.6,0.9-0.9
		c0.9,2.1,1.5,4.4,1.9,7.2c-10.8,1.1-21.6,4.5-32.1-1.6c-0.2-2.9-2-5.5-4.2-7.5c-3.1-2.9-3.9-8.5-1.1-11.7c1.7-1.9,2.4-3.6,1.3-5.9
		c-0.2-0.4-0.4-0.9-0.4-1.4c0.2-1.7,0.8-3.4,0.7-5c-0.1-1.7-0.4-3.3,0.2-5.2c1.5,1.3,2.8,2.8,5.1,1.4c2.1-1.3,3.1-2.9,2.7-5.4
		c-0.2-1.4,0-2.9,0-4.6c4-1.2,7.9-2,11.6-2.6c0.9,0.6,0.2,1.3,0.5,1.8c1.1,0.4,1.2-1.1,2.4-0.9c0,4.3-2,8.3-2.3,12.7
		c-3.7,0.3-7.3,0.3-11,1.3c-0.1,2.6-0.6,5.1,1.2,7.8c4.6,1.5,9.9,0.7,14.9,2.2c-4.5,0.2-8.9-0.9-13.3,0.1c0.2,2,2.2,1.7,2.6,3.1
		C650.8,658.9,649.2,659.7,649.8,661.2z"/>
	<path fill="#FFFFFF" d="M676.4,375.6c7.6,8.1,9.7,49.9,3.3,57.1c-3-2.4-3.5-3.9-6.8-19.8c0.6-0.8,1.5-0.7,2.3-0.8
		c3.4-0.4,4.7-1.6,4.8-5.1c0.2-3.5-0.5-7-1.8-10.3c-2-0.3-4,0.4-6.2-0.5C671.7,389.1,671.7,382.1,676.4,375.6z"/>
	<path fill="#FFFFFF" d="M627.3,435.7c-2-1.6-2.5-4.1-3.1-6.4c-3.9-15.4-5-31-2.7-46.8c0.2-1.7,0.6-3.4,1.5-4.8
		c0.4-0.6,0.8-1.3,1.6-0.9c1,1.3-0.9,0.8-0.8,1.8c4,4.3,4,10.2,5,15.7c1.8,10,1.8,20.2,1.5,30.3c-0.1,3.2-0.3,6.7-2.8,9.5
		C627.2,434.4,627.3,435.2,627.3,435.7L627.3,435.7z"/>
	<path fill="#FFFFFF" d="M631.1,436.8c4.2-20.7,2.9-40.9-3.9-60.8c3.2-0.9,4.7-0.4,6.1,2.9c2.3,5,3.1,10.5,3.9,15.9
		c1.7,11.9,2.3,23.8,0.2,35.6C636.6,435.7,635.5,436.6,631.1,436.8z"/>
	<path fill="#FFFFFF" d="M679.3,375.1c1.2-0.4,2.5-0.2,4-0.1c3.5,5.2,5,10.9,5.8,17c1.4,10.9,1.9,21.8,0.5,32.7
		c-0.2,1.4-0.5,2.9-0.9,4.3c-1,3.5-2.1,4.2-5.9,4.2C686.8,413.7,685.9,394.4,679.3,375.1z"/>
	<path fill="#FFFFFF" d="M801.1,165.8c20.7-6.5,29.5-42.4,15.7-58.7c4.5,2.5,7.3,6.5,8.8,11.3c2.7,9.1,2.5,18.1-1.4,26.8
		c-2.5,5.6-4.3,11.7-9.4,15.8C810.8,164.4,806.5,166.5,801.1,165.8z"/>
	<path fill="#FFFFFF" d="M854.6,117c5.6,3.4,8.3,8.8,9.2,15c1.6,11.9-1.1,22.8-9,32.1c-3.6,4.3-8.1,7-14.8,6.3
		c11.4-4.3,16.6-13.1,19.3-23.5C861.9,136.4,861.8,126.1,854.6,117z"/>
	<path fill="#FFFFFF" d="M640.1,374.2c4.3,8.3,4.2,22.9-0.1,25.6C636.8,391.3,636.7,382.9,640.1,374.2z"/>
	<path fill="#FFFFFF" d="M732.3,622.3c-3.3,2.8-7.9,0.3-11.2,2.8c-0.3,2.4,1.3,3.6,2.2,5.2c0,1.3-0.6,2.5-1.2,4
		c-1.5-1.4-3.2,0.3-4.8-0.5c-1.9-0.9-1.3-2.6-1.5-4c-0.7,0.1-1.2,0.1-1.7,0.2c0.3-2.2,2.4-3.7,2.2-6.1
		C721.7,623,726.9,621.2,732.3,622.3z"/>
	<path fill="#FFFFFF" d="M673.6,410.2c-0.3-4.2-1.3-7.3-1.2-10.8c1.6-1,3.4-0.4,5.3-0.6c1,3.5,1.1,6.7,0.7,10
		C676.9,409.8,675.2,409,673.6,410.2z"/>
	<path fill="#FFFFFF" d="M637.9,632.8c1.2-1,2.3-1.5,3.6-1.4c1.3,5.5,0.7,8.3-3.2,9c-1.6-0.6-1-2.4-2.2-3.6
		C638.4,636.2,637.3,634.3,637.9,632.8z"/>
	<path fill="#FFFFFF" d="M642.2,401.9c1.4,3,0.9,5.8,0.4,8.5c-0.6,0.6-1.3,0.6-2.4,0.2c0-2.8,0-5.8,0-8.8
		C640.8,401.4,641.5,401.9,642.2,401.9z"/>
	<path fill="#FFFFFF" d="M834.6,142.4c0.9-2.4,1.2-4.7,2.5-6.7c1.7,1.2,2.2,2.7,1.5,4.5C838,141.7,837,142.9,834.6,142.4z"/>
	<path fill="#FFFFFF" d="M670.4,132.6c1.1,0.3,2.1-0.3,3.3-0.5c0.6,0.6,1.1,1.2,1.6,1.7c1,0.6,1.9-0.7,2.9,0c0.4,0.9-0.2,1.3-0.9,2
		c-2.1-1.6-4.3-1.3-6.3,0.8c-0.4-1.6,1.1-1.9,1.1-3.1C671.9,132.8,670.8,133.1,670.4,132.6L670.4,132.6z"/>
	<path fill="#FFFFFF" d="M670.4,158.8c1.2,0.3,1.6,1.1,2.2,1.8c-0.3,1-1.5,1.7-1.5,3C670.1,162.2,668.1,160.9,670.4,158.8z"/>
	<path fill="#FFFFFF" d="M717.7,355.4c1.7,0.2,3,0.4,4.8,0.6c-1.9,0.4-1.3,2.2-2.4,2.8c-0.7-0.4-0.1-1.2-0.6-1.7
		c-1.4-0.6-0.9,2.4-2.7,1.4C716.5,357.5,717.4,356.7,717.7,355.4z"/>
	<path fill="#FFFFFF" d="M676.3,160.4c-1.2-1.3-3.1-2-2.9-4.2C676.1,156.4,676.2,156.7,676.3,160.4L676.3,160.4z"/>
	<path fill="#FFFFFF" d="M750.4,649.1c-1.3-0.3-2.6-0.6-3.9-0.9C748.8,646.6,748.8,646.6,750.4,649.1z"/>
	<path fill="#FFFFFF" d="M682.2,138.1c0.4-3.1,2.5-3.6,3.8-4.9C685.8,135.3,684,136.2,682.2,138.1z"/>
	<path fill="#FFFFFF" d="M653.4,647.1c1.2-1.1,2.3-0.9,3.4-0.6c0,0.3,0,0.5,0,0.8C655.7,647.2,654.6,647.1,653.4,647.1z"/>
	<path fill="#FFFFFF" d="M722.3,129c-0.5,1.1-0.8,2-1.7,2.4c-1-0.5-0.7-1.4-0.8-2.1C720.5,128.7,721.3,128.7,722.3,129z"/>
	<path fill="#FFFFFF" d="M673.3,150.5c-0.4-1.4-0.9-2.8,0.5-4.2C674.7,148,673,149.1,673.3,150.5z"/>
	<path fill="#FFFFFF" d="M682.4,128.6c0.8-1.1,1.5-1.7,2.4-1.9C685.4,127.5,684.9,127.9,682.4,128.6z"/>
	<path fill="#FFFFFF" d="M698.5,127.9c-0.4-2.2,0.9-2.3,2.6-2.1C700.5,127,699.7,127.7,698.5,127.9z"/>
	<path fill="#FFFFFF" d="M691.8,467.2c-0.9-0.9-3.1-1.4-1.1-3.5C691.4,464.9,691.7,466.1,691.8,467.2L691.8,467.2z"/>
	<path fill="#FFFFFF" d="M681.4,148c0.2,1.6-0.5,2-1.5,2.3C679.3,148.8,680.3,148.5,681.4,148z"/>
	<path fill="#FFFFFF" d="M703.2,134.2c1,0.2,2,0.5,2.6,1.8c-1-0.4-1.9-0.7-2.9-1.1C703,134.6,703.1,134.4,703.2,134.2z"/>
	<path fill="#FFFFFF" d="M717.5,155.7c-1.4,1.2-2.2,0.8-3,0.6C715.3,155.7,716,155.4,717.5,155.7z"/>
	<path fill="#FFFFFF" d="M715.4,122.8c1.1,1.3,0,1.7-0.9,3C714.5,124.2,714.4,123.4,715.4,122.8z"/>
	<path fill="#FFFFFF" d="M676.5,149.3c0.5-1,0.7-1.9,2.2-1.4C678.2,148.7,677.8,149.2,676.5,149.3z"/>
	<path fill="#FFFFFF" d="M686.2,144.8c-0.5-1-0.3-1.7,0.2-2.5C688,143.3,687.3,144,686.2,144.8z"/>
	<path fill="#FFFFFF" d="M660.3,658c1.2-0.7,1.9-0.6,2.2,0.4C661.4,659.4,661.2,658.2,660.3,658z"/>
	<path fill="#FFFFFF" d="M631.5,410.1c0,0.3-0.1,0.6-0.1,1C631.4,410.7,631.4,410.4,631.5,410.1L631.5,410.1z"/>
	<path fill="#FFFFFF" d="M631.4,421.6c0,0.4,0,0.7,0,1.1c0,0,0,0-0.1,0C631.3,422.3,631.3,421.9,631.4,421.6
		C631.3,421.6,631.4,421.6,631.4,421.6z"/>
	<path fill="#FFFFFF" d="M627.3,435.8c0.6-0.4,1.2-0.8,1.7-1.2C628.8,435.5,628.9,437,627.3,435.8L627.3,435.8z"/>
	<path fill="#FFFFFF" d="M663.2,661.1c-0.1,0.2-0.2,0.5-0.3,0.5c-0.3,0.1-0.7-0.1-0.7-0.5c0-0.1,0.2-0.4,0.3-0.5
		C662.8,660.6,663.1,660.7,663.2,661.1z"/>
	<path fill="#FFFFFF" d="M706.6,201.9c-0.7-0.8-0.6-1.2,0.1-1.7C707.5,200.8,707.3,201.3,706.6,201.9z"/>
	<path fill="#FFFFFF" d="M701.7,132.9c-0.5-0.9-0.1-1.1,0.6-1.3C702.5,132.4,702,132.5,701.7,132.9z"/>
	<path fill="#FFFFFF" d="M738.6,635.9c0.6-0.3,0.9-0.5,1.1-0.7c0.1,0.2,0.3,0.4,0.2,0.6C739.8,636.2,739.5,636.1,738.6,635.9z"/>
	<path fill="#FFFFFF" d="M733.2,636c0-0.1,0-0.2,0-0.2c0.1,0,0.2,0,0.4,0c0.1,0,0.2,0.1,0.3,0.2C733.7,635.9,733.5,636,733.2,636z"
		/>
	<path fill="#FFFFFF" d="M739.4,645.9c0.4-0.6,0.9-0.6,1.9-0.3C740.4,645.7,739.9,645.7,739.4,645.9L739.4,645.9z"/>
	<path fill="#FFFFFF" d="M630.6,397.4C630.6,397.8,630.6,397.6,630.6,397.4C630.6,397.6,630.6,397.8,630.6,397.4z"/>
	<path fill="#FFFFFF" d="M629.3,391.3c0.5,0.3,0.9,0.7,0.5,1.5C629.7,392.2,629.5,391.7,629.3,391.3L629.3,391.3z"/>
	<path fill="#FFFFFF" d="M629.4,391.2c0.1-0.7-0.8-1.2,0-2.1C629.3,389.9,629.3,390.6,629.4,391.2L629.4,391.2z"/>
	<path fill="#FFFFFF" d="M692.6,124c0.3-0.3,0.6-0.2,0.9,0.1c0.1,0.1-0.1,0.5-0.2,0.5C692.8,124.8,692.7,124.4,692.6,124z"/>
	<path fill="#FFFFFF" d="M407.5,437.3c-3.4,4.9-5.2,10.4-6.2,16.1c-0.5,2.7-2.1,5-2.6,7.7c-1.1,6.3-2.2,12.5-2.3,18.9
		c-0.1,3.8-1.5,7.1-2.6,10.6c-0.4,1.2-1.1,1.9-2.3,2c-16.7,1.6-33.4,2.2-50.7,2.6c2.1-6.9,1.7-13.5,0.3-20.1c-0.9-4-0.5-8-0.1-12
		c0.6-5.6,1-11.1,1.6-17c5.2,0,6.5-3.6,7.4-7.9c1.3-5.6,0.3-11.2,1.1-17.6c4.2,3.3,8.2,6.4,13.8,5.4c1.2-1.5,2.6-3.1,4.5-5.4
		c-3,0.5-3.7,2.7-5.5,4c-1.4-0.1-3-0.2-4.6-0.3c-0.2-2,1.9-2.5,1.8-4.3c-1.8,0.3-2.2,2.3-3.7,2.9c-2.3-0.7-3.2-1.8-2.3-4.5
		c0.9-2.8,1-5.8,0.2-8.7c-1-3.4-1.1-6.7-0.2-10.1c1.1-4.2,0.6-8.2-0.4-12.3c-0.3-1.3-1.2-2.6-0.1-3.3c-4.6-10.7-9.8-20.7-14.8-30.9
		c-5.1-10.6-3.6-22.2-7.2-32.6c1-0.6,1.4,0.3,1.9-0.6c-0.9-4.9-0.7-10-0.9-15.1c-0.2-4.9-1.9-9.3-4-13.6c-1.4-2.9-1.9-6-1.9-9.6
		c1.4,1.1,2.7,1.9,4.1,2.1c1.3,1,1.2,2.9,2.7,3.6c0.5-2.4-3.1-8.2-7.4-11.8c-1.3-6.8,3.5-12.3,3.6-18.8c1.6,0.2,1.4,2.1,3.4,2.3
		c-1.8-4.5-2.6-9.1-3.8-13.6c-1.6,2.7,0,5.6-0.1,8.4c-1.3-0.4-1-1.5-1.1-2.2c-1.2-6.8-0.2-13.5,2.8-19.6c1.7-3.5,5.3-6.4,8.7-7.5
		c8.4-2.9,15.2-8.6,23.3-11.9c1.1-0.4,2-1.4,3.6-1.3c2.1,9.1,4.4,18.2,5,27.6c0.1,1.2,0.1,2.4,0.3,3.6c1.4,10-2.1,17.9-10,24
		c-0.7,0.2-0.9-1.3-2-0.3c-0.7,14.2,1.2,28.9-4.8,42.7c-1.1-0.9-0.6-2.8-2.1-3.7c-1.4,1.1-0.6,2.4-0.3,3.6
		c3.3,11.5,3.8,23.6,6.4,35.2c2.6,11.5,3.1,23.4,6.3,34.8c1.6,5.7,4,11.2,6.2,16.7c0.7,1.9,2.5,3,4.3,3.9c2,1,3.4,2.5,3.8,4.6
		c0.8,3.8,1.4,7.7,1.9,11.5c0.1,1,0.4,2.3-0.5,3.1c-2,1.7-2.9,4.1-3.4,6.5c-1.7,0.7-3.1,0.9-4.5-0.4c1.4-2.5,4.2-4.2,4.3-7.5
		c-3.2,3.6-5.5,8.4-11.6,7.9c2.7,2.1,2.7,2.1,5.5,0.7c3.7,2.2,6.5,2.4,9.7-2.4c1.2,1.5,1.5,3.3,1.9,5.1c0.7,3.5,1.8,6.8,3,10.2
		c0.8,2,1.9,3,3.9,3.2c1.6,0.1,3.2,0.2,4.7,0.1c2.8-0.1,4.7-1.6,5.3-4.2c0.6-3.3,2.1-5.8,5.7-7.6c-2.1-0.5-2.7,0.9-3.9,1.2
		c0-1.3,0-2.6,0-3.8c0.5-12.1,0-24.1-2.3-36c-0.6-3.3-2.1-6.2-3.6-9.1c-0.9-1.8-2.6-2.1-4.4-2.2c-1.3-4.5-1.6-9-2.6-13.3
		c-2.1,4.4,1.5,8.5,1,12.9c-1.4,1.1-3.4,1-5.3,2.2c0.3-5.8,0.7-11.3,0.2-17c-1.8,0.6-1.8,1.9-1.7,3c0,3.2,0.1,6.3,0.3,9.5
		c0.2,2.5,0.2,4.9-0.5,7.3c-1.3,4.4-2.5,8.9-2.6,13.8c-4.9-1.3-7.4-4.5-8.5-8.8c-1.7-6.4-3.1-12.8-4.8-19.2
		c-0.4-1.5,0.5-2.8,0.6-3.6c-0.1-1.5-1.6-0.9-1.4-2c0.9-1.4,2.4-0.1,3.6-0.6c-0.5-2.6-2.4-0.3-3.8-1.4c-0.5-0.5-1-1.3-0.6-2.9
		c20.1,0.8,40.3,0.5,60.4,2.6c0.4,1.3-0.1,2.3-0.2,3.2c-2,0.7-2.7-0.6-3.3-1.9c-0.9,0.4-0.6,1.7-1.8,1.7c-1.5,0-1.4-1.6-2.1-2.7
		c-0.6,1.2-0.5,2.2-0.2,3.1c0.9,0.9,2.1,1.1,3.4,1.4c0,2.2,0,4.2,0,6.3c-13.2,3.4-16.8,13.7-18.2,25.4c-0.9,7.8,0.6,15.4,3.1,23
		c1.5,4.6,1.8,9.8,0.3,14.8L407.5,437.3z"/>
	<path fill="#FFFFFF" d="M391.1,255.2c0.9-0.1,0.4-0.8,0.8-1.3c2.9,1.9,6.2,2.9,9.4,4.2c10.9,4.2,20.5-2.1,23.2-12.8
		c2.2-8.9,1.1-17.6-1.8-26.2c-0.2-0.6-0.4-1.1-0.6-1.7c0-0.1,0.1-0.2,0.2-0.4c1.1,0,1.2,0.9,1.5,1.6c2.8,9.6,5.1,19.3,7.5,29
		c1.7,6.7,3.2,13.5,6.1,19.8c1.5,3.2,3.5,5.9,6.7,7.8c-0.6,2.2-2.5,3.9-3.3,6.2c-1.9-0.6-3.1,0.5-4.5,1.4c1.1,1,2.3,0,3.2,0.7
		c-3.9,18.4-2.7,37.3-5.4,55.9c-1.3,1-3,0.9-4.4,1.5c1.3,0.1,2.7,0.1,4.4,0.2c-0.2,6,0.7,11.9,1,18.4c-23.2-2.9-46.3-0.6-69.4-1.4
		c-1.6-3.9-1.8-7.8-2.4-11.6c-0.6-3.6-0.3-7.4-1.2-11.2c4-0.1,8,0.8,12.7,0.2c-4.8-0.5-8.9-0.9-13.3-1.4c-0.2-7.4-1.2-14.6-4.2-21.4
		c2-5.7,4.4-10.6,5.5-11.2c-1.3-4.5,0.2-8.8,0.5-12.9c1.1-0.9,1.8,0.4,2.4,0c-4.6-6-0.7-12.7-1.8-18.8c2.4-1.8,4.4-3.5,6.2-5.6
		c1.7-2,2-5,3.9-5.9c4.8-17.2,0.9-33.2-3.7-49c0.8-0.7,1.2-1.1,1.7-1.4c0.4-0.3,0.8-0.5,1-0.5C376.8,224.5,381.1,240.9,391.1,255.2z
		"/>
	<path fill="#FFFFFF" d="M374.1,534.7c-0.9,5.4,0.5,10.7,0.4,16c-0.1,6,0.7,12,0,17.9c-1,7.4-2.4,14.9-4.9,22
		c-1.9,5.3-3.3,10.7-4.8,16.4c-1-8.6,0.1-16.9-0.6-25.2c-1.9,4.7-2,9.6-1.3,14.3c1,6.6,0.5,13.1-0.1,19.6
		c-0.6,6.1-0.7,12.1,0.8,18.3c-3,1.2-6,1.3-9,1.7c-0.9-2.4,0.2-5-1.5-7.1c-0.1,2.5-0.3,4.9-0.4,7.3c-1.5,1.2-3,1.3-4.9,0.9
		c0-4.8-0.6-9.7-0.7-14.5c-0.2-7.2-2.3-14.2-3-21.3c-0.6-6.1-1.7-12.1-2.1-18.2c-0.3-4.8-1.6-9.3-2.1-14.1
		c-0.7-6.9,0.7-13.6,1.1-20.4c0.4-7.2,3.6-13.2,5.5-19.8c2.1-7.4,2.7-15,0.7-22.6c-0.5-2-0.6-4.1-0.9-6.2c1.2-1,2.2-2,4-2
		c10.8-0.3,21.7,0,32.4-2.1c0.6-0.1,1.2,0,2.1,0c-1.6,4.2-2.2,8.3-3.6,12.3c-1.6,4.5-2.4,9.3-3,14.1c-0.6,4-1.9,7.4-5,10.2
		c-1.4,1.2-2.7,2.7-3.5,4.9c2-0.4,2.6-2.2,4-2.8C373.9,534.5,374,534.6,374.1,534.7z"/>
	<path fill="#FFFFFF" d="M450.2,249c-1.5,8.6-1.5,17-5.5,24.4c-2.1,0.4-2.1-1.6-2.9-2.6c-2.7-3.7-4.6-7.7-5-12.3
		c-0.2-2.2-0.7-4.4-1.5-6.4c-2.6-6.8-3.8-13.8-5-20.9c-0.5-3.4-1.9-6.5-3-10.2c5.4,3.2,11,4.7,16.4,6.6c7.4,2.6,17.1,13.1,17,25.4
		c-0.1,6.3-0.4,12.6,0,18.9c0.1,2.2,0.7,4.4,1.6,6.3c3,6,3,12.1,1.1,18.5s-0.9,12.5,2.1,18.4c1.4,2.8,1.5,5.8,0.2,8.5
		c-1.4,2.8-1.5,5.5-1,8.5c0.9,5.4-0.4,10.7-1.1,16c-0.3,1.9-0.5,3.9-1.3,5.7c-4.9,10.5-6,21.8-6.3,33.2c0,0.8-0.3,1.7-0.5,2.5
		c-1.2,4.7-1.2,9.3,1.3,13.8c1.3,2.3-0.5,4.7-0.4,7c-1.9,0.9-3.9,0.4-5.6,2.5c-0.5-5.4,0.1-10.1-1.4-14.7c-1.2-3.8-2.2-7.8-4.3-11.2
		c-1-1.7-1.2-3.4-0.8-5.2c1.2-6.7,1.3-13.3,0.2-20c-1.6-9.3-2.2-18.6-0.2-28c0.6-2.9,3-5.4,2.1-9.1c-1.7,2-2.9,3.9-3.6,6.1
		c-2.6,8.2-3.1,16.5-1.2,24.9c1.3,5.7,1.5,11.4,1.2,18c-1.9-3.4-3.3-6-2.6-9.2c0.4-1.6,0-3-1.5-4.2c-1.8-1.5-1.4-4-1.5-6
		c-0.7-9.1-0.6-18.2,1-27.3c0.8-4.5,0.6-9.2,0.9-14.4c2.6,4.4,3.9,8.7,4.6,13.2c1.6-3.1,0.9-6.4-0.2-9.1c-2.9-7.1-3.2-14.5-3.5-21.9
		c-0.2-4.9,1.6-9.6,4.2-13.8c2-3.3,4-6.7,5.3-10.3c1.5-0.3,0.8,1.7,1.9,1.7c0.6,0.1,0.7-0.3,0.8-0.6c0.1-0.5,0.3-1.1,0.1-1.4
		c-2.9-6.1-0.3-12.4-0.8-18.6C451.5,250.8,451.6,250.2,450.2,249z"/>
	<path fill="#FFFFFF" d="M407.4,437.4c3.3-2.7,1-6.5,2.1-10.5c2.8,4.9,6.6,7.9,10.4,10.8c3.7,2.8,7.4,5.4,11.1,8.1
		c0.2-0.2,0.3-0.4,0.5-0.6c-2.6-2.1-5.2-4.3-7.9-6.4c-0.1-0.3-0.2-0.5-0.3-0.8c15.8,3.2,22.4-5.9,26.2-18.7c1.6,1.5,1.7,3.3,2.1,5.3
		c1.7,9.8,3.1,19.7,4.6,29.6c1.7,11.2,3.2,22.5,1.4,33.8c-0.4,2.4,0.1,4.8-0.5,7.3c-8.2-0.4-16.4,0-24.5,0.7
		c-8.2,0.7-15.6-2-23.3-3.7c-1.5-0.3-3-1.1-4.8-0.9c-0.7-5.2-1.4-10.3-2.1-15.3c2.4,3.7,1.8,8.2,4.2,11.8
		c-1.6-5.8-1.3-12.2-5.1-17.4l0.1,0.1c0.5-1.2-0.7-2.4-0.3-3.2c0.5-1.4,1.7-0.9,2.3-1.6c2.9,4.7,4.6,10,7.3,14.7
		c-1.1-4.7-3-9.2-5.4-13.3c-1.7-2.9-1.8-5.6-1.3-8.7c1.2-7,2.2-14.1,3.3-21.2L407.4,437.4z"/>
	<path fill="#FFFFFF" d="M443.6,410.5c-0.1,6.5-1.7,14.4-7.3,21c-4.6,5.5-11.5,7.1-16.7,3.7c-3.4-2.3-6.8-5-8.8-8.6
		c-7.4-13.7-8.4-27.8-0.9-41.9c5.6-10.5,16.7-11.6,24.7-2.8C440.3,388.2,443.6,398,443.6,410.5z"/>
	<path fill="#FFFFFF" d="M418.1,662c1.4-2.2,2.4-4.6,1.7-7.5c-0.3-1.4,0.5-2.8,1.3-3.7c2.4-2.7,2.4-6,2.8-9.5
		c1.5,1.1,2.3,3.3,4.4,3.2c1.8-0.1,3.7,0.1,5.2-1.2c1.6-1.4,1.8-3.4,2.1-5.3c-0.4-1.4-2.1-2-2.1-4c4.5,0.3,8.9-0.4,13.1-0.4
		c1.9,2.2,0.8,4.8,2.4,6.9c-2.3,0.2-4.2-1-6.1-0.5c-1.7,0.5-3.8,0.7-2.6,3.3c-1.7,0.7-3.4-0.5-4.9,0.8c0.4,2.5,2.7,1.8,4.3,2.5
		c-0.3,1-2,0.9-1.8,2.6c1.6,2,4.2,0.2,6.3,1.2c0.3,0.7-0.6,1.5,0,2.2c1.8,0.8,1.8,0.8,6.2,0.7c-0.6,1.2-2.5,1.3-2.5,3.1
		c1.3,2,2.8-0.4,4.6,0.5c1.6,1.8,4.5,2.2,9.8,0.8c2.9,5.4,9.3,8.3,11.4,14.4c-2.1,3.6-5.1,5.1-8.8,5.8c-5.6,1.1-11.3,1.8-17,0.9
		c-3.2-0.5-6.1-0.6-6.9-5c-0.4-2.5-3.2-3.4-5.8-3.5c-2.1,0-4.1-0.2-6.2-0.6C424.2,669.1,420.7,666.4,418.1,662z"/>
	<path fill="#FFFFFF" d="M450,414.9c3,0,4.5-2.4,7-3.1c1.7-0.5,1.4-2.9,2.1-4.4c3.7-1.8,4.7-3.5,4.2-6.7c-0.5-3.7-1.4-4.5-6.7-5.5
		c1.7-6.8,1-13.8,2.2-20.8c2-0.8,3.6-0.9,5.7-0.2c8.3,2.7,12.4,9,15,16.7c2.8,8.6,2.9,17.2,0,25.9c-0.7,2.2-1.7,4.3-3,6.2
		c-5.9,8.6-15.5,9-22.1,0.9C452.2,421.3,450.7,418.6,450,414.9z"/>
	<path fill="#FFFFFF" d="M346.4,648.9c1.6,1.2,2.9,2.6,5,1.3c1.9-1.2,3.2-2.4,2.9-5c-0.2-1.6-0.2-3.4,0.3-5.2c0.5-0.2,1-0.6,1.6-0.7
		c3.3-0.4,6.3-1.7,9.3-1.7c1.2,0.4,0.3,1.3,0.9,1.6c1,0.2,1.2-1.2,2.4-0.9c-0.1,4.2-2,8.2-2.3,12.5c-3.7,0.6-7.5,0.4-11,1.5
		c-0.2,2.9-0.6,5.5,1.3,7.9c2.4,0.8,5.2,0.4,7.7,1.1c2.3,0.6,4.9-1.1,7.4,1.1c-2.8,0.7-5-0.3-7.2-0.4c-2.1-0.1-4.3-0.4-6.3,0.2
		c-0.3,2.3,2,1.9,2.4,3.2c0.6,1.1-1.1,1.9-0.3,3.5c4.3,2.2,9.2,2.2,14.5,1.5c1.4,3.3,2.8,6.7,4.3,10.1c0.6,0.1,0.2-0.7,1-0.9
		c0.9,2.2,1.7,4.5,1.9,7.4c-9.7,0.6-19.2,4.2-28.7-0.2c-1-0.5-2.1-0.7-3.2-1.1c-0.4-3.1-2-5.8-4.3-7.9c-3.3-3-4-8.5-1-11.9
		c1.6-1.8,1.7-3.4,1.2-5.6C345.3,656.7,346.6,652.8,346.4,648.9z"/>
	<path fill="#FFFFFF" d="M390.3,441.1c-5-6.1-4.5-13.6-6.9-20.1c0.6-1.1,1.6-1.1,2.5-1.3c3.3-0.5,4.5-1.5,4.7-4.7
		c0.2-3.7-0.4-7.2-1.9-10.6c-2-0.3-4,0.3-6.1-0.5c-0.3-7.1-0.3-14,4.4-20.6c3.2,2.7,4.1,6.4,4.7,9.8c2.1,12.5,3.4,25.1,1.8,37.8
		C393.2,434.2,392.9,437.7,390.3,441.1z"/>
	<path fill="#FFFFFF" d="M339.5,442.8c0,0.5-0.2,0.9-1,1.1c-1.6-0.9-2.1-2.6-2.7-4.3c-2.3-6.2-3.2-12.7-3.9-19.3
		c-1.1-10.1-1.4-20.2,0.3-30.2c0.6-3.3,0.8-3.7,2.6-5.8c1,0.1,1.5,0.7,1.6,1.6c-0.7,0.2-1.2-0.9-1.8-0.2c0,0.3-0.1,0.7,0,0.8
		c3.1,2.6,3.4,6.4,4.1,9.9c2.4,11.9,2.7,23.9,2.4,36c-0.1,3-1,6-1.5,9C338.9,441.9,338.9,442.4,339.5,442.8z"/>
	<path fill="#FFFFFF" d="M341.3,444.2c4.9-14.8,3-45.3-3.9-60.6c3.8-0.8,5.1-0.3,6.6,3c2.2,5,3.1,10.3,3.9,15.6
		c1.8,11.8,2.2,23.5,0.4,35.4c-0.2,1-0.4,1.9-0.7,2.8C346.4,444,345.4,444.6,341.3,444.2z"/>
	<path fill="#FFFFFF" d="M393.4,441c4.1-19.6,3.3-38.9-3.5-58.1c1.2-0.6,2.6-0.6,4.2,0c3.1,4.9,4.8,10.4,5.6,16.2
		c1.4,11,2,22.1,0.6,33.1c-0.2,1.3-0.4,2.6-0.8,3.9C398.4,440.2,397.6,440.8,393.4,441z"/>
	<path fill="#FFFFFF" d="M432.5,436.9c17.9-11.6,16-48.2-1.6-60.1c3.4,0.1,7.9,3.3,10.6,6.8c5,6.7,7,14.3,7.7,22.4
		c0.2,1.9-0.2,3.9-0.5,5.8c-0.9,5.7-0.9,11.6-4.3,16.7C441.4,433,437.9,436.2,432.5,436.9z"/>
	<path fill="#FFFFFF" d="M471,429.8c17.4-11.6,14.2-45.8-2.3-55.6c4.8,1.1,7.9,3.3,10.4,6.3c8.6,10.4,10.1,29.8,3.1,41.4
		C479.7,426,476.4,429,471,429.8z"/>
	<path fill="#FFFFFF" d="M350.9,408.2c-3.7-10.8-3.7-15.8-0.4-25.9c2.4,3.1,4.4,12.4,3.2,17.2C353.1,402.2,352.7,405.2,350.9,408.2z
		"/>
	<path fill="#FFFFFF" d="M432.9,641.7c-6.3-0.8-6.3-0.8-6.6-4.3c-0.5,0-0.9,0.1-1.4,0.1c0-2.3,2.7-3.5,1.9-6.1
		c5.7-0.9,10.9-2.5,16.4-1.8c-3.2,3.1-7.8,0.6-11.2,3c-0.6,2.4,1.3,3.6,2.2,5.5C433.7,639.2,433.3,640.4,432.9,641.7z"/>
	<path fill="#FFFFFF" d="M429.5,368.1c2-1,3.6,0.7,5.3,0c-0.1-1.4,0.4-2.6,1-3.8c2.8,5.3,6.2,10.4,6.4,17.6
		C437.2,377.2,431.3,374.6,429.5,368.1z"/>
	<path fill="#FFFFFF" d="M383,407.2c1.9-1.1,3.5-0.5,5.3-0.7c1.1,3.6,1.3,6.9,0.7,10.2c-1.5,0.8-3,0.4-4.6,0.7
		C383.8,414,383.2,410.7,383,407.2z"/>
	<path fill="#FFFFFF" d="M348.4,640.8c1.2-1.3,2.3-1.8,3.7-1.5c1.3,5.6,0.6,8.2-3.2,8.8C345.5,645.7,349,643.1,348.4,640.8z"/>
	<path fill="#FFFFFF" d="M350.8,409.5c3.1-0.7,2.7,1.8,3,3.4c0.5,3-0.4,5.1-2.5,5.9c-0.6-1.5-0.5-3-0.5-4.6
		C350.8,412.7,350.8,411.2,350.8,409.5z"/>
	<path fill="#FFFFFF" d="M424.7,373.8c-0.5-2-0.5-3.6-0.4-5.1c0.8-0.9,1.6-0.8,2.8-0.6c0.2,2.1,0.8,4.1,3.5,5.6
		C428.3,374.3,426.6,374,424.7,373.8z"/>
	<path fill="#FFFFFF" d="M381.6,140.9c0.7-0.4,1.5-0.8,2.4-1.3c1.2,1.5,2.6,2.7,4.5,1.7c0.7,1.1-0.2,1.4-0.3,2.5
		c-2.4-1.8-4.5-1.4-6.4,0.2C380.3,142.9,384.5,141.8,381.6,140.9L381.6,140.9z"/>
	<path fill="#FFFFFF" d="M430,364.7c-1.1,0.2-0.9,1.8-2.2,1.9c-1-1.3,0.3-2.2,0.4-3.3c1.8-0.3,3.4,0,5.3,0.4
		c-2.2-0.2-1.5,1.9-2.7,2.8C430,366.3,430.7,365.3,430,364.7z"/>
	<path fill="#FFFFFF" d="M458.6,397.9c2.4,1.5,2.8,3.3,1.3,6C458.7,401.8,458.9,399.8,458.6,397.9z"/>
	<path fill="#FFFFFF" d="M381.8,171.2c-1.3-1.5-2.8-2.8-1-4.4c1.4-0.2,1.8,0.8,2.4,1.4C383.1,169.5,381.5,169.8,381.8,171.2z"/>
	<path fill="#FFFFFF" d="M387,167.5c-2-0.9-3.1-1.9-2.9-4.2C386.8,163.7,386.8,165.5,387,167.5z"/>
	<path fill="#FFFFFF" d="M392.9,145c0.8-2.3,2.4-3.2,3.8-4.4C396.2,142.9,396.1,143.1,392.9,145z"/>
	<path fill="#FFFFFF" d="M460.7,656.8c-1.2-0.3-2.4-0.6-3.8-0.9C459.2,654.5,459.2,654.5,460.7,656.8z"/>
	<path fill="#FFFFFF" d="M433,136.4c-0.2,1.3-0.9,2-1.5,2.7C430.4,137.1,430.4,137.1,433,136.4z"/>
	<path fill="#FFFFFF" d="M401.5,470.5c0.2,1.1,0.4,2.3,0.7,3.5C400.3,473.3,400.3,473.3,401.5,470.5L401.5,470.5z"/>
	<path fill="#FFFFFF" d="M367.6,655c-1.4-0.2-2.9-0.4-4.3-0.6C364.8,654.2,366.4,653.4,367.6,655z"/>
	<path fill="#FFFFFF" d="M411.8,133.6c-0.4,1.3-1.7,1.5-2.6,2.9C409.4,133.7,409.4,133.7,411.8,133.6z"/>
	<path fill="#FFFFFF" d="M417.5,143.6c-1.9-0.1-3-0.4-4.2-1.8C415,142,416,142.6,417.5,143.6z"/>
	<path fill="#FFFFFF" d="M383.9,158c-0.4-1.4-0.9-2.7,0.4-4C385.5,155.6,383.6,156.7,383.9,158z"/>
	<path fill="#FFFFFF" d="M390.7,158.6c-0.7-2,0.1-2.3,1.2-2.8C392.6,157.3,391.4,157.5,390.7,158.6z"/>
	<path fill="#FFFFFF" d="M425.9,130.3c1.1,1.4,0.3,2-0.8,2.9C424.9,131.9,425.2,131.2,425.9,130.3z"/>
	<path fill="#FFFFFF" d="M396.7,152.7c-0.2-1.1-0.3-1.9,0.5-2.7C398.7,151,397.8,151.7,396.7,152.7z"/>
	<path fill="#FFFFFF" d="M389.3,155.4c0,1.3-1.1,1.2-2.2,1.9C387.7,156,387.7,154.9,389.3,155.4z"/>
	<path d="M339.5,442.8c-1.9,0.4-1.3-1.5-2-2.4c0.6,0.3,1.3,0.7,1.9,1C339.5,441.9,339.5,442.3,339.5,442.8z"/>
	<path fill="#FFFFFF" d="M395.7,134.5c-0.3,1.3-0.9,1.8-2.1,1.6C393.9,135,394.6,134.6,395.7,134.5z"/>
	<path fill="#FFFFFF" d="M371.1,665.8c1.1-1.2,1.5-0.6,2,0.1C372.4,666.9,371.9,666.3,371.1,665.8z"/>
	<path fill="#FFFFFF" d="M410,140.6c0.7-0.1,1.1,0.1,1.3,0.6c0.1,0.5-0.2,0.6-0.6,0.5C410.2,141.7,409.9,141.4,410,140.6z"/>
	<path fill="#FFFFFF" d="M427.7,163.5c-0.6,1.2-1.2,0.8-2.1,0.2C426.3,163.2,426.8,163.1,427.7,163.5z"/>
	<path fill="#FFFFFF" d="M341.9,429.8c0-0.3,0-0.6,0.1-0.9c0.1,0,0.1,0,0.2,0c0,0.3,0,0.6-0.1,1C342,429.8,341.9,429.8,341.9,429.8z
		"/>
	<path fill="#FFFFFF" d="M444.4,643.5c-0.5,0-0.9,0-1.5-0.1C443.5,642.9,444.1,643.2,444.4,643.5z"/>
	<path fill="#FFFFFF" d="M391.7,154c-0.1-0.5-0.2-1,0.6-0.9C392.4,153.6,392.2,153.9,391.7,154z"/>
	<path fill="#FFFFFF" d="M390,166.9c0.1-0.9,0.2-1.3,0.8-1.4C391,166.1,390.8,166.5,390,166.9z"/>
	<path fill="#FFFFFF" d="M342,417.7C342.1,417.9,342.1,418.1,342,417.7C342,418.1,342,417.9,342,417.7z"/>
	<path fill="#FFFFFF" d="M339.9,396.4c0,0.4-0.1,0.7-0.1,1c-0.1,0-0.2-0.1-0.2-0.1C339.6,396.9,339.5,396.6,339.9,396.4z"/>
	<path fill="#FFFFFF" d="M447.4,501.2c-0.1-0.9-0.2-1.8,0.9-2.3C448.6,500,447.4,500.3,447.4,501.2L447.4,501.2z"/>
	<path d="M660.8,480.8c-3.2,1-6.3,1.9-8.4-2.3c-0.9,2.1-2.1,3.5-4.2,3.9c-1.3,0.2-2.4-0.3-3.4-1c-1.9-1.5-1.9-4.4-0.1-6.1
		c2-1.9,4.8-1.3,7.4,1.6c1.5-2.7,3.6-4.4,6.7-3.1C662,475.2,661.1,478.2,660.8,480.8z"/>
	<path d="M662.9,476.3c-0.8-9.7,5.9-25.8,16.3-37.2c-2.8,6.1-7.4,11.2-10.1,17.4C666.3,462.7,664.5,469,662.9,476.3z"/>
	<path d="M625.2,306.9c1.9,6.5,6.5,11.1,11.2,15.6c-0.5,0.3-0.8,0.6-0.9,0.5c-3.2-1.9-5.8-4.6-8.7-7
		C624.4,313.8,623.8,310.4,625.2,306.9z"/>
	<path d="M642.5,481.8c-2,0.3-2.1-1.3-3.1-1.6c-1.1,0.5-1.3,2-2.8,2.4c-1.1-2.5-0.2-5.1-0.7-7.4c1.8-1.5,3.5-0.9,5-0.6
		c1.7,0.4,2.6,2.1,1.6,3.3C641.2,479.3,642,480.4,642.5,481.8z"/>
	<path d="M654.8,249.4c-0.5,5.6-8.1,12.3-13.7,12.2C646.4,258.4,650.6,253.9,654.8,249.4z"/>
	<path d="M721,438c-7.6-4.5-14.6-9.7-19.9-16.9C707.6,427,714.3,432.5,721,438z"/>
	<path d="M703.8,455.5c-2.4-6-6-11.7-6.5-18.4C699.1,443.3,702.5,449,703.8,455.5z"/>
	<path d="M632.8,334.9c-4-4-5.5-10.4-3.5-14.6C629.5,325,630.6,329.7,632.8,334.9z"/>
	<path d="M636.2,218.9c1.4-3.9,3.3-5.5,7.4-5.6C641.5,216.2,638.5,217.1,636.2,218.9L636.2,218.9z"/>
	<path d="M697.8,427.8c0.1-3.8-2-7.6,0.4-11.3C697.9,420.2,699.6,424,697.8,427.8L697.8,427.8z"/>
	<path d="M682.8,463.2c0.3-3.4,1-6.8,2.3-10C685.2,456.7,685.2,460.2,682.8,463.2L682.8,463.2z"/>
	<path d="M647.1,383.5c0.7,2.1,1.7,3.6,2.9,5.3c-2.2,1-2.8-0.6-3.6-1.5C645.3,386.1,645.3,384.9,647.1,383.5z"/>
	<path d="M698.2,370.2c-0.4-3.4-0.7-6.9,0-10.3C698.2,363.3,698.2,366.8,698.2,370.2z"/>
	<path d="M642.7,451.5c-1.4-1.5-1.5-3.3-1.3-5.2C641.8,448,642.3,449.8,642.7,451.5z"/>
	<path d="M681,358.1c1.6-0.1,3.2-0.5,5.3,0.3C684.1,358.9,682.5,359,681,358.1z"/>
	<path d="M666.5,357.8c1.5-0.4,3-1.5,5.1-0.9C669.8,358.2,668.2,358.3,666.5,357.8z"/>
	<path d="M658.4,412.1c0.8-1.8,2-1.6,3.8-2C661,411.8,659.9,412,658.4,412.1z"/>
	<path d="M653.1,406.9c0-1.5,0-3.1,0-4.6C654.4,403.9,653.7,405.4,653.1,406.9z"/>
	<path d="M633.3,223.6c-0.3,1.9-0.6,2.9-1.9,4.4C631.5,226,631.2,224.7,633.3,223.6z"/>
	<path d="M633.4,338.7c-0.9-0.9-1.9-1.7-1.3-3.3C633.5,336.3,633.3,337.6,633.4,338.7z"/>
	<path d="M652.6,411.5c0.2-1.5,0.1-2.4,0.9-2.9c0.5-0.2,0.7-0.1,0.7,0.2C654.5,410,654.1,410.9,652.6,411.5z"/>
	<path d="M667.6,407.7c-0.7-1.3-0.3-2,0.4-2.8C668.6,406,668.5,406.8,667.6,407.7z"/>
	<path d="M628.1,257.9c-1.2-0.8-1.8-1.3-1.2-2.5C627.9,255.7,628.1,256.4,628.1,257.9z"/>
	<path d="M652.9,399c0.6,0.6,0.6,1.2-0.1,1.7C651.9,400.1,651.8,399.5,652.9,399z"/>
	<path d="M659.9,402.6c1.2,0.8,1.3,1.4,0.7,2.1C659.4,404.4,659.7,403.6,659.9,402.6z"/>
	<path d="M703.6,355.7c1.1,0.8,0.5,1.3,0.2,1.9C702.3,356.8,703.3,356.4,703.6,355.7z"/>
	<path d="M700.1,355.8c0.9,0.6,0.3,1.1,0.1,1.8C699.5,356.7,699.5,356.7,700.1,355.8z"/>
	<path d="M682.8,463.1c0,0.7,0,1.3,0,2.1C682.2,464.5,683,463.9,682.8,463.1L682.8,463.1z"/>
	<path d="M636.6,326.4c-0.6-0.3-0.8-0.8-0.8-1.4C637,324.9,637,325.5,636.6,326.4z"/>
	<path d="M637.9,328.9c0.5-0.1,0.7,0.2,0.6,0.7c0,0.1-0.5,0.2-0.5,0.1C637.8,329.6,637.6,329.3,637.9,328.9z"/>
	<path d="M645.2,379.7c0.5,0.3,0.8,0.7,0.6,1.2C644.5,381,645.4,380,645.2,379.7z"/>
	<path d="M636.1,218.8c0.1,0.8-0.3,1.4-1.2,2.1C635,219.8,635.3,219.2,636.1,218.8L636.1,218.8z"/>
	<path d="M625.9,254c-1.6,0.1-1.5-0.6-1.5-1.1C625.8,252.5,625.1,253.5,625.9,254z"/>
	<path d="M638.8,471c0,0.5,0,0.7,0,0.8c0,0-0.1,0-0.1-0.1C638.6,471.6,638.7,471.5,638.8,471z"/>
	<path d="M700.3,330.7c0.7-4.5-0.6-8.6,1.2-12.6C703.5,321.8,703.2,328.3,700.3,330.7z"/>
	<path d="M701.7,314.5c0-3.9,0-7.8,0-11.7C703.2,306.8,702.4,310.6,701.7,314.5z"/>
	<path d="M698.2,311.2c-2.9,1-5.4-0.3-8-1.2C692.9,310.2,695.7,309.3,698.2,311.2z"/>
	<path d="M700.3,335.6c0,3.8-1.4,7.2-3.1,10.5C697.5,342.4,699,339,700.3,335.6z"/>
	<path d="M700.9,340.1c0.2,3,0.4,6-0.9,8.9C699.1,346,700.1,343.1,700.9,340.1z"/>
	<path d="M692.7,269.5c1.8-1.5,2.9-3.6,4.1-5.8C698.3,266.6,697.5,267.7,692.7,269.5z"/>
	<path d="M703.6,311.9c2.4-0.5,4.4,0.2,6.8,0.6C707.2,313.9,706.3,313.8,703.6,311.9z"/>
	<path d="M702.3,289.1c-0.7-2.7,0.4-4.4,1-6.2C703.5,284.9,704.2,286.8,702.3,289.1z"/>
	<path d="M683.7,311.2c-1.4,1.1-2.3,0.7-3.4-0.4C681.6,310.3,682.5,310.2,683.7,311.2z"/>
	<path d="M659.2,268.6c2.1,0.1,3,0.9,3.9,1.9C661.1,270.6,661.1,270.6,659.2,268.6z"/>
	<path d="M697.1,322.9c-1.7,1.1-2.6,0-4.3-0.5C694.6,322.1,695.6,321.9,697.1,322.9z"/>
	<path d="M668.8,272.3c-1,0.7-1.6,0.3-2.3-0.5C667.4,271.3,668.1,271.5,668.8,272.3z"/>
	<path d="M676.3,273.2c-0.7,0.6-1.2,0.6-1.5-0.4C675.5,272.2,676,272.3,676.3,273.2z"/>
	<path d="M660.5,284c-0.8-0.4-1.7-0.5-1.6-1.6C660.1,282.3,660.8,282.6,660.5,284z"/>
	<path d="M661.5,328.2c0.6,0,1.1-0.1,1.8-0.1C662.6,328.7,662.1,328.1,661.5,328.2L661.5,328.2z"/>
	<path d="M714.2,312.2c0.7-0.9,1.1-0.7,1.8-0.1C715.5,312.7,714.9,312.7,714.2,312.2z"/>
	<path d="M743.9,211.8c7.6-1.7,14.3-3.5,21.2-5.9C761.7,210.5,748.4,214.5,743.9,211.8z"/>
	<path d="M782.1,178.5c2.4-2.5,8.1-2.1,13.6,0.7C790.8,180.4,786.7,179.3,782.1,178.5z"/>
	<path d="M767.1,205c1.9-1.7,4.3-1.9,6.5-2.4C771.8,204.6,769.7,205.7,767.1,205z"/>
	<path d="M742.8,201.6c-0.4,1.9-1,2.9-2.6,3.8C740.6,203.5,740.6,202.1,742.8,201.6z"/>
	<path d="M803.7,178c-0.4,1-1,0.9-1.9,1C802.2,177.7,803,178,803.7,178z"/>
	<path d="M780.6,173.5c1,0.5,1.7,0.7,1.4,1.8C781,175.3,780.7,174.8,780.6,173.5z"/>
	<path d="M776.4,200.6c0.3-0.9,0.6-1.3,1.1-1.4c0.2,0,0.5,0.3,0.5,0.3C777.8,200,777.5,200.5,776.4,200.6z"/>
	<path d="M799.9,179.1c-0.4,1.1-1.1,0.9-1.8,0.8C798.4,179,798.9,178.6,799.9,179.1z"/>
	<path d="M741,213.5c-0.3-1.7,0.3-1.9,1-2C742.5,212.5,741.7,212.5,741,213.5z"/>
	<path d="M794.8,111c2.1-2.8,5.2-4.6,8.4-5.4c4-1,8-0.2,10.8,3.5c4.3,5.7,6,12.2,5.9,19.1c-0.1,12-3.1,22.9-13,30.8
		c-3.1,2.5-6.7,4.7-11.2,2.6l-0.1,0.1c9.8-0.2,15.2-6.6,18.9-14.4c4.3-9.2,5.2-19,2.6-28.9c-0.4-1.4-0.9-2.8-1.5-4.1
		c-3.6-7.6-9.5-9.5-16.8-5.3c-1.3,0.7-2.4,1.6-3.7,2.4c-0.2,0.1-0.4,0.1-0.7,0.2C794.7,111.4,794.8,111.2,794.8,111z"/>
	<path d="M799.6,141.4c-2.1,1.6-4.2,1.3-5.9-1.1c-2.1-3-1.8-8.2,0.7-12c0.5-0.7,1.1-1.3,1.2-1.5c1.2-1.3,2-0.4,2.8-0.6
		c3.7-0.9,5.7,0.6,6.2,4.3c0.6,4.1-1.2,7.3-3.8,10.1C801,141.8,800.3,141.6,799.6,141.4z"/>
	<path d="M795.3,111.4c-3,3.3-4.8,7.4-7.5,10.9c2.1-3.9,3.1-8.5,7-11.3C795,111.1,795.2,111.3,795.3,111.4z"/>
	<path d="M795.9,161.7c-2.1,0-3.8-0.9-5.3-2.3C792.5,159.8,794.3,160.4,795.9,161.7L795.9,161.7z"/>
	<path d="M784.3,137.7c-0.9-1.2-0.2-2.4,0.2-3.6C785.2,135.4,784.7,136.6,784.3,137.7z"/>
	<path d="M786.8,123.9c1.2,1.2-0.4,1.5-0.1,2.3C786,125.3,786.4,124.7,786.8,123.9z"/>
	<path d="M785.3,128.1c0.5,1.1,0.3,1.8-0.6,2.7C784.5,129.7,784.8,129,785.3,128.1z"/>
	<path d="M799.6,141.4c0.4-0.3,0.9-0.5,1.3-0.8c0.4,0,1.2-0.1,0.7,0.6C801.1,142,800.3,142.4,799.6,141.4z"/>
	<path d="M832.9,134.3c0,0.6-0.3,0.8-0.7,0.9c-0.4,0-0.6-0.3-0.4-0.7C831.9,134.1,832.3,134.1,832.9,134.3z"/>
	<path d="M626.5,416.1c-3.4-3.3-4-13.8-0.7-17.4c3,3.4,2.4,7.5,2.6,11.3C628.5,412.1,629.1,414.7,626.5,416.1z"/>
	<path d="M363.4,484.8c2.3-3,4.2-3.9,6.5-3c2.2,0.8,2.8,2.7,2.3,6.8c-5.3,1.7-5.7,1.7-8.6-1.9c-0.8,2-2,3.4-4.1,3.8
		c-1.3,0.2-2.4-0.3-3.4-1c-1.9-1.5-2-4.4-0.2-6.1C358.1,481.5,360.9,482,363.4,484.8z"/>
	<path d="M390.7,445.6c-7.9,11.5-14.8,23.3-17.2,37.2C374.3,468.1,381.6,456.4,390.7,445.6z"/>
	<path d="M335.8,314.7c2,6.5,6.6,11.1,11.4,15.5c-0.6,0.3-0.9,0.6-1,0.5c-3.2-1.9-5.8-4.7-8.6-7.1
		C335.2,321.7,334.5,318.3,335.8,314.7z"/>
	<path d="M351.8,269.2c5.4-3.1,9.4-7.8,13.8-12.6C365.6,262.1,357.6,269.4,351.8,269.2z"/>
	<path d="M354.1,489.7c-1.3,0.4-1.8,0-2.2-0.5c-0.4-0.5-0.8-0.9-1.2-1.3c-1.7,0.1-0.7,2.8-3,2.4c-0.4-2.4-0.3-5-0.2-7.5
		c1.6-1.2,3.3-0.5,4.7-0.3c1.9,0.3,2.8,2,1.6,3.5C352.7,487.5,353.1,488.5,354.1,489.7z"/>
	<path d="M342.8,341.9c-3.4-4.1-4.4-8.8-3.2-14C340.3,332.7,341,337.4,342.8,341.9z"/>
	<path d="M346.1,227.6c2-4.8,3.5-6.2,8.3-7C351.9,224.1,348.2,225.1,346.1,227.6L346.1,227.6z"/>
	<path d="M358.2,391.8c-0.1,1.9,1.8,2.9,2.3,4.9c-2.5,0.4-3.4-1.2-4-2.8C356,392.8,356.3,391.7,358.2,391.8z"/>
	<path d="M393.5,471.3c0-3.6,1.1-7,1.8-10.4C396.6,462.8,395.7,467.6,393.5,471.3L393.5,471.3z"/>
	<path d="M408.8,377.6c-0.3-3.1-0.6-6.4,0-9.6C408.8,371.3,408.8,374.4,408.8,377.6z"/>
	<path d="M391.1,365.6c2,0,3.4,0,4.8,0C394.5,366.9,393.1,366.9,391.1,365.6z"/>
	<path d="M353.4,459.6c-1.3-1.5-1.8-3.4-1.3-5.4C352.6,456,353,457.8,353.4,459.6z"/>
	<path d="M377.1,365.4c1.6-0.8,3.3-1,5.3-0.8C379.4,365.9,379.4,365.9,377.1,365.4z"/>
	<path d="M364.3,410c0.5,1.6,0.3,3.2-0.3,4.8C363.5,413.1,363.4,411.5,364.3,410z"/>
	<path d="M343.6,231.4c0.4,1.6-0.5,2.6-1.1,3.6C342,233.7,341.9,232.4,343.6,231.4z"/>
	<path d="M364.6,415.8c0.9,1.5,0.3,2.3-0.9,3.5C363.3,417.7,363.5,416.8,364.6,415.8z"/>
	<path d="M343.9,346.2c-0.8-0.8-1.7-1.6-1.2-2.9C344.2,343.9,344,345.1,343.9,346.2z"/>
	<path d="M372.6,418.1c-0.9,1.5-2,1.6-3.4,1.5C370,418,371.1,418,372.6,418.1z"/>
	<path d="M337.3,263c1.4,0.3,1.5,1.2,1.5,2.2C337.3,265.1,337.3,264.2,337.3,263z"/>
	<path d="M414.6,363.5c0.5,0.9,0.5,1.6-0.6,1.9C413.3,364.5,413.5,363.9,414.6,363.5z"/>
	<path d="M410.6,363.1c0.8,1,0.7,1.6,0.2,2.1C409.1,364.8,410.1,364.1,410.6,363.1z"/>
	<path d="M371.2,412.5c-1.1-0.7-1.1-1.3-0.5-2.1C371.6,410.8,371.9,411.4,371.2,412.5z"/>
	<path d="M378.3,415.3c-1-1.2-0.4-1.9,0.3-2.7C379.2,413.6,379.2,414.4,378.3,415.3z"/>
	<path d="M370.5,406.6c0.7,0.6,0.9,1.1,0.3,1.6C370.1,407.9,370.3,407.4,370.5,406.6z"/>
	<path d="M347.2,334.7c-0.5-1-0.7-1.5-1-2.1C347.7,332.5,347.5,333.2,347.2,334.7z"/>
	<path d="M363.4,406.5c0.8,0.7,0.8,1.3,0,2C362.6,407.8,362.7,407.2,363.4,406.5z"/>
	<path d="M356.3,388.8c-0.8-0.4-0.7-0.9-0.6-1.3C356.7,387.4,356.5,388,356.3,388.8z"/>
	<path d="M346,227.6c0.1,0.6,0.1,1.1-0.6,1.5C345,228.3,345.4,227.9,346,227.6L346,227.6z"/>
	<path d="M336,261.9c-1.1-0.4-1-1-0.8-1.7C336.1,260.6,336,261.1,336,261.9z"/>
	<path d="M350.2,268.8c-0.2,0.9-0.5,1.4-1.3,1.3C348.6,269.1,349,268.8,350.2,268.8z"/>
	<path d="M353.1,304.1c-0.1-0.2-0.3-0.4-0.3-0.6c0-0.5,0.3-0.6,0.7-0.3c0.2,0.1,0.3,0.4,0.2,0.6C353.6,304,353.3,304,353.1,304.1z"
		/>
	<path d="M349.4,478.7c0,0.2-0.1,0.4-0.1,0.6l0,0C349.3,479.1,349.4,478.9,349.4,478.7L349.4,478.7z"/>
	<path d="M393.5,471.3c0,0.6,0,1.3,0,2.1C392.8,472.5,393.5,472,393.5,471.3L393.5,471.3z"/>
	<path d="M411.1,338.6c0.6-4.7-0.7-8.9,1.2-12.9C414.2,329.6,413.8,335.8,411.1,338.6z"/>
	<path d="M412.7,310.6c1.1,3.9,0.5,7.6-0.4,11.4C412.3,318.2,411.6,314.4,412.7,310.6z"/>
	<path d="M407.5,354.3c0.6-4.2,2.3-7.5,3.2-11.7C411.2,346.1,409.9,350.7,407.5,354.3z"/>
	<path d="M422.1,320.2c-3.6,1.4-4.5,1.4-7.9-0.4c1.4-1.1,2.6-0.2,3.7-0.1C419.1,319.8,420.3,320,422.1,320.2z"/>
	<path d="M402.7,277.5c2.6-1.7,3.5-3.9,4.9-5.9C409,274.3,407.8,275.9,402.7,277.5z"/>
	<path d="M411.7,347.5c0.2,3.5,0.2,6.4-0.6,9.3C409.9,354.9,410,352.8,411.7,347.5z"/>
	<path d="M401.7,318c2.4,0,4.9-1.1,7.6,0.8C406.3,320.2,404.1,318.6,401.7,318z"/>
	<path d="M413.1,296.8c-1.2-2.6,0.5-4.4,0.7-6.3C414.2,292.5,414.7,294.5,413.1,296.8z"/>
	<path d="M373.9,278.5c-1.6,0-3.1-0.2-4-2.4C371.9,276.4,372.9,277.3,373.9,278.5z"/>
	<path d="M403.9,330.2c1.2-0.5,2.4-0.5,3.5,0.5C406,331.4,405,330.8,403.9,330.2z"/>
	<path d="M394.3,318.9c-1.4,0.8-2.3,0.5-3.4-0.1C392.2,317.7,393,318.2,394.3,318.9z"/>
	<path d="M371.6,291.5c-1.3-0.1-1.8-0.4-2.1-1.2C370.6,290.3,370.6,290.3,371.6,291.5z"/>
	<path d="M377.1,279.4c1-0.8,1.5-0.1,2.1,0.5C378.3,280.8,377.7,280.3,377.1,279.4z"/>
	<path d="M426.6,281.7c0.8-0.3,1.5-0.2,2,0.3c0.1,0.8-0.5,0.6-0.9,0.6C427.3,282.6,426.8,282.6,426.6,281.7z"/>
	<path d="M432.1,281.6c0.8-0.7,1.5-0.6,2.2-0.1C433.4,282.9,432.8,281.6,432.1,281.6z"/>
	<path d="M385.5,280.7c0.5-0.6,1-0.5,1.7,0.1C386.5,281.3,386,281.4,385.5,280.7z"/>
	<path d="M413.9,306.9c0.4,0.4,0.4,0.8-0.1,1.2C413.6,307.7,413.5,307.2,413.9,306.9z"/>
	<path d="M424.4,319.9c1.2-0.8,1.7-0.8,2.2-0.3C426.1,320.5,425.6,320.1,424.4,319.9z"/>
	<path d="M351.9,533.1c-2.7,1.6-3.1,4.5-5,7.1c0.3-4.2,2.4-6.7,5-9.1c1.5,0.5,2.1,1.4,1.4,2.9c-0.4,0.9-0.4,2-1,2.7
		c-3.3,4.7-3.5,9.9-2.5,15.3c0.5,3,0.2,6-1.4,8.6c-0.4,0.2-0.7,0.1-0.7-0.2c1.4-4.9,0.7-9.9,0.2-14.8c-0.2-2.1,0.6-4,1.6-5.9
		C350.6,537.8,351.6,535.7,351.9,533.1z"/>
	<path d="M374,502.5c-1.4,7.2-6.5,10.2-12.8,11.8c-3.3,0.9-6.3-0.4-8.9-2.7c0.8-0.9,1.5-0.5,2.1-0.2c6.8,3.2,11.5-0.6,16-4.9
		C371.7,505.4,372.8,503.9,374,502.5z"/>
	<path d="M362.1,519.4c-2.9,5.1-1.7,10.2-0.4,15.3C357.4,529.9,357.5,522,362.1,519.4z"/>
	<path d="M365.7,577.6c-1-2.8-1.1-5.6,0.2-8.3C366.4,572.1,365.7,574.8,365.7,577.6z"/>
	<path d="M375.2,507.3c1.8,1.2,1.4,2.7,1.5,4.1C375.8,510.4,374.3,509.7,375.2,507.3z"/>
	<path d="M343.4,550.6c0-0.5,0.1-0.9,0.1-1.4c0,0.5,0,0.9,0,1.4C343.5,550.6,343.5,550.6,343.4,550.6z"/>
	<path d="M342.8,557.3c0-0.5,0-0.9,0-1.4C342.8,556.4,342.8,556.9,342.8,557.3L342.8,557.3z"/>
	<path d="M352.9,622.1c0.7,1.1-0.4,1.8-0.5,2.6C352,623.8,351.7,622.9,352.9,622.1z"/>
	<path d="M352.2,616.7c0-0.7,0-1.3,0-2.2C352.7,615.4,352.6,616,352.2,616.7z"/>
	<path d="M366.9,560.9c0.3,0.8,0.3,1.6,0,1.6C366.3,562.3,366.7,561.7,366.9,560.9z"/>
	<path d="M452.6,385.6c-1-1.8,0.2-3.2,0.6-4.8C454.3,382.7,454.3,382.8,452.6,385.6z"/>
	<path d="M453.5,389.2c0.8,1.6,0.3,2.9-1,4.5C451.7,391.7,452.8,390.5,453.5,389.2z"/>
	<path d="M456.8,314.9c-0.7,1.2-1.6,1.9-3.3,1.9C454.1,314.8,455.5,314.8,456.8,314.9z"/>
	<path d="M452.8,409.5c-0.9-0.9-0.6-1.5-0.2-2.2C453.3,408.1,453.3,408.1,452.8,409.5z"/>
	<path d="M462.7,332.5c0.9,0.9,0.5,1.4-0.4,1.9C461.6,333.6,461.6,332.9,462.7,332.5z"/>
	<path d="M452.7,271.5c1.5,0.7,1.8,1.2,1.3,2C452.6,273.5,453.2,272.6,452.7,271.5z"/>
	<path d="M414.5,463.4c-2.3-6.1-6.1-11.7-6.5-18.6C409.7,451.1,413.3,456.8,414.5,463.4z"/>
	<path d="M425.1,434.7c7.1-1,11-5.6,13.2-12c4.4-13,2.5-25.2-4.8-36.6c-2.7-4.2-6.2-7.7-11.9-7.1c-4.9,0.5-7.8,3.7-10.2,7.5
		c-1.7,2.7-2.5,5.8-3,8.9c-0.2,1.3-0.1,2.7-1.4,4c0.6-8.1,2.6-15.3,9.3-20.2c3.5-2.6,8.5-3.1,12.8,0.4c5.7,4.7,9.1,10.7,10.9,17.7
		c2.9,10.9,3,21.5-3.5,31.3C433.9,432.5,430.4,435.5,425.1,434.7z"/>
	<path d="M416,400.9c0.9-0.7,1.6-0.3,2.3-0.8c3.3-2.1,5.6-1.4,7.2,2.2c1.8,3.8,1.9,7.6-1.3,10.8c-0.9,0.9-0.4,1.6-0.7,2.4
		c-2.5,0.9-4.7,0.7-6.5-1.6C413.9,409.8,414.4,405.4,416,400.9z"/>
	<path d="M407.6,411c0.8,1.8,0.8,3.1,0.4,4.4C407.6,414.2,406.9,413,407.6,411z"/>
	<path d="M420.5,433.8c1.2-0.5,2.1-0.4,2.9,0.7C422.2,435,421.4,434.7,420.5,433.8z"/>
	<path d="M407.1,403.6c-0.8-0.7-1-1.4-0.1-2.1C407.9,402.2,407.2,402.9,407.1,403.6z"/>
	<path d="M406.6,406.1c0.4,0.6,0.5,1.2,0,2C406.1,407.3,406,406.7,406.6,406.1z"/>
	<path d="M337,423.8c-3.3-3.5-3.8-13.9-0.9-17.1C339.8,409.9,340.4,421,337,423.8z"/>
	<path fill="#FFFFFF" d="M650.2,478.2c-0.1,1.6-0.9,2.6-2.5,2.6c-1.5,0-2.5-0.9-2.6-2.5s0.9-2.5,2.5-2.5S650,476.6,650.2,478.2z"/>
	<path fill="#FFFFFF" d="M659.4,477.7c-0.7,0.6-1.3,0-1.8,0.2c-1,0.5,0.4,1.7-0.7,2.2c-1.7-0.1-2.6-1.1-2.5-2.8c0-1.3,0.8-2.1,2-2.2
		C658.1,474.9,659.2,475.6,659.4,477.7z"/>
	<path fill="#FFFFFF" d="M641.3,476.3c-1,1.9-1.8,2-3,1.2C638.5,475.3,639.7,476.1,641.3,476.3z"/>
	<path fill="#FFFFFF" d="M797.2,129.4c0.9-1.2,1.8-2.5,3.5-1.9c1.8,0.5,2.2,2.1,2.4,3.7c0.4,3.9-1.3,6.8-4.8,8.4
		c-3.3-2.1-3.8-4.7-1.6-8.8c2.3-1.1,2.3-1.1,4.2,0.4c0.3,0.4-0.4,0.3,0,0.1c0.1-0.1,0-0.1-0.1-0.3
		C800,129.5,798.5,129.6,797.2,129.4z"/>
	<path d="M797.2,129.4c1.7-0.7,3.4-0.7,4.4,1.2c0.9,1.6-0.1,3.8-2.7,6.2c-1.1-2.1,2.7-4,0.2-6.1c-1.6,0.2-1.3,1.9-2.5,2.7
		c0-1,0-1.9,0-2.7C796.8,130.2,797,129.8,797.2,129.4z"/>
	<path fill="#FFFFFF" d="M794,137.7c-0.4-0.4-0.3-0.8-0.1-1.1c0.1,0.2,0.2,0.3,0.2,0.5C794.1,137.3,794,137.5,794,137.7z"/>
	<path fill="#FFFFFF" d="M626.3,410.4c-2.4-2.5-0.1-5.6-0.8-8.3C626.6,404.8,625.1,407.7,626.3,410.4L626.3,410.4z"/>
	<path fill="#FFFFFF" d="M626.2,410.4c0.1,0.9,1.2,1.7,0.2,2.7C625.4,412.2,625.9,411.3,626.2,410.4L626.2,410.4z"/>
	<path fill="#FFFFFF" d="M359,483.8c1.6,0.1,2.5,0.8,2.6,2.4c0,1.6-0.9,2.6-2.4,2.6c-1.5,0.1-2.5-0.9-2.6-2.5
		C356.4,484.8,357.4,484,359,483.8z"/>
	<path fill="#FFFFFF" d="M370.8,485.9c-0.7,0-1.3,0-1.8,0c-1,0.5,0.4,1.7-0.8,2.2c-1.7-0.1-2.6-1.1-2.5-2.9c0.1-1.3,0.8-2,2.1-2.2
		C369.5,483,370.6,483.7,370.8,485.9z"/>
	<path fill="#FFFFFF" d="M352.7,485.2c-1.6,1.1-2.7,1.9-3.6-0.6C350.4,483.8,351.4,483.7,352.7,485.2z"/>
	<path fill="#FFFFFF" d="M418.5,402.7c1.8-2.9,3.5-3.1,5.3-0.4c2.3,3.5,1.6,8-1.8,10.5c-4.2-1.5-5.5-5.3-3.4-10.1
		c0.8,1.5,2.9,0.1,3.3,1.1C421.4,402.7,419.4,404,418.5,402.7z"/>
	<path fill="#FFFFFF" d="M421,414.7c-2.1-0.1-2.9-1.1-3.9-3.1C418.6,412.8,419.5,413.6,421,414.7z"/>
	<path fill="#FFFFFF" d="M336.7,418.7c-1.5-2.8-0.5-5.8-0.1-8.7C336.6,412.9,336.6,415.8,336.7,418.7L336.7,418.7z"/>
	<path fill="#FFFFFF" d="M336.6,418.8c1.4,0.5,1,1.3,0.4,2.3C336.4,420.3,336.4,419.5,336.6,418.8L336.6,418.8z"/>
	<path d="M418.5,402.7c1.1,0.2,2.1-0.8,3.2-0.4c2.6,2.7,2.6,4,0.2,7.3c-1.3-1.6,1.2-4.3-1.4-5.5c-1.7,0.6-0.7,2.3-1.6,3.2
		c-0.8-1.6-0.2-3.1-0.2-4.7L418.5,402.7z"/>
</g>
</svg>
