<?xml version="1.0" encoding="utf-8"?>
<!-- Generator: Adobe Illustrator 19.1.0, SVG Export Plug-In . SVG Version: 6.00 Build 0)  -->
<svg version="1.2" baseProfile="tiny" id="Layer_2" xmlns="http://www.w3.org/2000/svg" xmlns:xlink="http://www.w3.org/1999/xlink"
	 x="0px" y="0px" width="900px" height="600px" viewBox="144 97 900 600" xml:space="preserve">
<g>
	<path d="M770.8,371.5c-2.1,1.2-3.6-1.7-5.6-0.9c-1.2,1-0.5,1.9,0,3c2.8,0.8,6.6-0.8,8.6,4c-1.4-1.1-2.3-1.8-3.2-2.5
		c-3.9,1.1-7.7-0.4-11.7-0.1c-3.8,7.2-4.6,14.7-3.4,22.7c3.4,0.2,5.9,0.3,8.5,0.4c-2,1.9-4.3,0.9-6.7,0.9c0.6,1.6,2.4,1.6,2.5,3.1
		c4.6-0.4,9-0.6,13.3-2c-2.4-1.3-5.1,0.8-7.3-1.1c0.8-0.9,2.2,0,2.9-1.1c0.1-0.1,0.1-0.3,0.2-0.5c0.9-0.8,2.1-1,3.2-1.3
		c4-1.1,5.3-3.1,4.6-7.4c-0.3-1.9-1.1-4,0.7-5.6c0.2,0,0.3-0.1,0.5-0.1c1.2,0.4,0.8,1.6,1,2.4c0.2,1.7,0.7,3.2,2.2,3.5
		c1.7,5-2.3,7-4.5,9.8c-1.3,1.6-2.8,2.9-3,5c-0.9-0.4-0.6-1.1-1-1.8c-3.2,1.5-6.8,0.8-10.2,1.7c5.3,12,7.5,24.4,7.4,37.3
		c-2.9-5.6-1.6-12.1-3.4-17.9c-1.9-5.8-1.8-12.1-5-17.6c-0.2,1.9-0.7,3.7-0.7,5.6c0.4,8.9,0.6,17.8,0.8,26.6c0,1.1,0.2,2.4-1.7,3
		c-0.6-9.3-1.3-18.4-0.9-28.3c-3.2,3.6-4.9,7-6.4,10.5c-0.6,1.4,0.2,2.8,0.2,4.2c-0.1,4.6,0,9.2,0,13.7c8.2,2.2,16.9,0.1,24.1,6.1
		c-2,0.7-3.4,0.1-4.8-0.7c-4.6-2.5-9.4-3.4-14.6-2.3c-1.9,0.4-4.2,0.8-6.2-0.4c-0.7-0.4-1.4-0.2-2,0.1c-2.5,0.9-5,1.3-7.7,1.8
		c-1.1,1.5-1.4,3.2-1.7,4.9l0,0c-2.8,5-5.6,10-9.2,14.4c-0.5,1.2,1.6,1.2,0.8,2.8c-0.1,0.1-0.6-0.2-1-0.1c0,0.4,0.1,0.4,0.1,0
		c-1.3-1.2-1.8-0.9-2.8,1.8c-2.3,4.5-5.8,8-9.9,10.8c-3.1,2.1-3.6,5.4-4.7,8.5c-0.7,1.9-1,3.9-1.8,5.8c-0.5,1.1-1.2,1.8-2.4,1.6
		c-1.3-0.3-1.5-1.3-1.5-2.5c0-1.6,0.4-3,0.9-4.6c-1.8,2.2-4,4-5.8,6.2c-0.8,1-2,1.3-3.2,1.1c-8.1-1.3-14.7-4.7-19-12.1
		c-2.6-4.6-4.9-9.4-8.2-13.7c-2.4-3.2-4-7-5.1-10.9c-1-3.8-2.8-6.8-7.5-6.6c-2.2,0.1-3.7-1.8-5.6-3c-0.1,2.1,0.4,4.1,0.8,6.1
		c1.4,8-0.1,15.5-3,22.9c-2.1,5.3-1.7,11.2-4.6,16.3c-0.8,1.4,0.1,2.8,1.6,3.5c4,1.9,7.9,3.7,12.5,3.5c2.5-0.1,3.8-1,3.6-3.7
		c-0.1-1.4-0.4-3.1,1.4-3.6c2.1-0.6,2.9,1.1,3.8,2.5c0.5,0.7,0.8,1.5,1,2.3c0.6,2,2,3,4,2.7c8.4-1.2,16.2,1.4,24.1,3.4
		c2.9,0.7,4.4,0,5.5-2.6c0.7-1.8,0.8-4.9,3.7-4.3c2.7,0.6,1.4,3.3,1.7,5.2c0,0.2,0.1,0.5,0.2,0.7c3.4,0.7,5.9-0.7,7.6-4.6
		c2.5-5.9,4.3-12.1,6-18.2c1.2-4.3,1.6-8.8,4-12.8c2.1-0.3,3,0.7,2.7,2.6c-1.1,8.2-2.5,16.4-6.3,23.9c-1.1,2.2-1.8,4.6-3,7.6
		c2.3-1.6,4.1-2.6,5.6-3.9c1.7-1.5,3.2-1.9,4.9,0.1c4.7-2.6,8.9-7.4,14.5-2.6c6.3-2.8,12.7-3.3,19.1-3.7c1.2-0.1,2.3-0.4,3.5-0.4
		c9.2-0.1,18.3,1.1,26.8,4.8c0.8,0.3,1.5,0.6,2.3,0.9c4.8,1.4,9.5,3,13.6,6c3,2.1,6.8,2.6,9.8,4.8c3.5,2.7,5.5,5.5,4.9,10.4
		c-1.4,10.2-4,20-7.7,29.5c-1.4,3.8-4,7.2-6.4,10.6c-3.4,4.7-6.8,9.4-10,14.3c-1.6,2.4-3.5,4.5-5.4,6.6c-4.5,4.6-8.5,9.5-12.4,14.6
		c-5.4,7.2-11.6,13.8-15.3,22.4c2.2,1.4,2,4.1,2.8,6.3c1.1,2.9,2.4,5.4,5.5,6.5c5.6,2,9.7,6.3,14.3,9.7c3.3,2.5,6.9,4.1,10.8,5.1
		c0.3,0.1,0.7,0.2,1,0.3c6.2,1.8,7.8,3.8,8,10c0.1,1.6,0,3.3,0,5.1c-6.8,2.8-13.9,3.6-21,4.9c-8.3,1.5-16-0.2-23.5-3.4
		c-0.4-0.2-1-0.3-1.3-0.6c-4.8-4.9-10.7-3.9-16.6-2.9c-5.8,0.9-10.9-1.4-16.1-3.4c-1.1-0.4-2-1.3-2.5-2.8c1.7-4.3,1.7-9.5,5.4-13.4
		c1-1,0.8-2.4,0.6-3.7c-0.6-3.6-0.7-7.1,1.3-10.3c0.9-1.4,0.2-2.7-0.1-4.3c2.1-1.1,3.2-3.9,6.3-3.1c0.5-0.6,0.2-1.9,1-2.1
		c2.9-0.6,3.3-3,4.2-5.1c3.4-8.2,6.2-16.7,11.2-24.1c3-4.6,4-9.7,4.2-14.9c0.3-7.7,3.1-14.2,7.3-20.4c0.3-0.5,0.7-1,0.8-1.8
		c-3.4,2.1-7.3,3.5-9.7,6.8c-4.3,5.8-9.9,10.1-15.3,14.7c-2.1,1.8-4.8,1.2-7.2,0.8c-5.7-0.9-11.4-1.9-17.1-3.2
		c-6.5-1.4-13.1-2-19.8-2.3c-4.1,12.3-9.8,23.5-20,32c0.5,4.2-2,7.6-3.2,11.4c-2.1,6.6-4.3,13.3-6.2,20.1c2.9,4.7,3.3,9.5,0.5,12.4
		c0.5-3.3,0.4-6.1-1.6-9c-4.6,3-9.5,2.7-14.4,0.8c-1.8,4-1.2,8.6-4.6,11.8c-1.5-0.9-3.8,0.1-4.6-2.4c0.4-1.4,2.1-1.8,2.3-3.3
		c-0.3,1.5-2,1.9-2.2,3.4c-2.3,1.8-3.3,4.1-3,7.1c0.6,5.8-1,11-4.3,15.8c-0.7,1-1.1,2.1-1.3,3.4c2.2,3.8,5.8,6,9.2,8.4
		c1.5-1-0.6-2.6,0.7-3.5c2.1,1.3,2.1,1.3,2.4,6.2c13.8,7.4,27.4,4.6,40.8-1.1c-6.2-2.1-11.8-0.4-17.5,3.3c2.2-4.9,13.4-8.9,20-7.5
		c0.3-2.1-0.2-3.8-2.2-4.7c-2-1-4-2.1-5.7-3.5c-1.7-1.5-3.2-3.2-4.8-4.9c-3.9,1.6-7.9,1.5-11.8,1.4c-0.7-0.8,0.3-1.4,0.1-2.1
		c-2.3-0.3-4.6,0-7-0.2c3.2-3.7,8-3.5,12.2-4.7c1.6-0.4,1.6-0.3,3.1,1.3c0,1.5-1.8,1.4-2.4,2.5c1.3,0.5,2.4-0.4,3.6-0.3
		c0.2-2.5-0.5-4.4-1.9-6.3c-5.4,1.3-11.1,1.4-16.6,3.2c3-6.5,9.7-4.5,14.8-6.3c-0.7-1.9-0.7-1.9-2.6-1.8c-4.3,0.3-8.2,2.5-12.3,3.4
		c-0.8,0.2-1.5,0.8-2.7,0.1c2.3-3.7,6.1-4.6,9.5-6.3c-3.3,0.2-6.3,1.3-9.2,3.4c-0.6-2.7,0.8-4,2.8-4.9c2.8-1.3,5.9-1.8,9-1.8
		c1.3,0,2.6,0,4.3,0c2.8,4.2,5.9,8.8,7.2,14.1c0.8,3.2,2.4,5.2,4.7,7.2c1.7,1.5,3.4,3.1,5.6,3.6c3.5,0.9,4.3,3.3,4.5,6.4
		c0.1,1.3,0,2.6,0,4c-0.9,0.8-2.5,1-2.3,3c0.1,1.2-1.5,1.6-2.7,1.9c-5,1.4-10,2.7-15.1,4.1c-4.6,1.3-9.2,0.8-13.7-0.2
		c-2.9-0.6-5.7-1.6-8.6-2.2c-2.9-0.6-5.2-1.7-5-5.4c-4-0.6-7.4-2.1-10-5.1c-2.1-2.5-2.9-5.1-1.4-8.2c2.6-5.4,4.4-10.9,4.2-17.1
		c-0.1-2.2,0.1-4.8,2.2-6.5c0.7-0.6,0.8-1.7,0.8-2.7c0.1-4.4,0.1-4.4,3.8-7.8c1.4,0,2.3,1.2,3.9,1.3c1.4-1.2,1.9-4,4.9-2.9
		c-0.1-3.5,0.8-6.3,1.8-9.8c0,3.8,0,6.9,0,10.2c3.6,2.2,6.8-0.7,10.1-0.4c0.3-0.6,0.6-0.9,0.6-1.2c-0.2-7.9,3.4-14.6,6.1-21.7
		c0.5-1.2,1.1-2.4,1.4-3.7c1-4.5,3.2-8.3,6.4-11.7c2.3-2.5,4.3-5.3,6.4-8c4.7-6,6.9-12.9,8.1-20.2c0.5-3,1.5-5.6,3.3-8.1
		c3.5-4.7,6.3-9.8,6.8-15.8c0.1-0.9,0.1-2.1,1-2.6c3.8-2.3,4.3-6.4,5.3-10.1c1-3.7-2-6.1-4.2-8.5c-6.8-7.6-16-9.8-25.6-10.8
		c-3-0.3-5.7-1.8-8.9-1.7c-6,0.1-9.1,3.9-12.1,7.9c-3.4,4.6-6.4,9.5-8.5,14.8c-2.6,6.4-1,12.8,0.8,19.1c0.4,1.3,1,2.6,1.8,4.5
		c1.6-4.4,4.4-7.5,6.8-10.9c2.8-3.9,9.9-5.1,13.6-2.1c1.1,0.9,1.7,2.5,3,3.4c-1.2,0.7-1.8-0.2-2.4-0.6c-4.7-2.5-13,0-15.6,5.1
		c-4.7,9.3-7.6,18.9-7.4,29.4c0.1,6-0.4,12.1-1,18.1c-1,10.3,0.3,20.7-1.2,31c-0.2,1.6,0.2,3.4-1.3,4.6c-1.6-0.4-1.6-1.7-1.4-2.8
		c1.9-13,0.6-26,1.3-39c0.3-6.2,0.7-12.4,0.6-18.7c-3-1.1-5.8-2.2-8.8-3c-7.1-1.9-12.5-6.6-17.6-11.5c-0.9-0.8-1.2-2.1-1.2-3.3
		c-0.2-3.9-1.9-7.1-4.3-9.9c-3.6-4.1-4.4-15.6-0.4-20c-1.5-9.6,2.9-14.1,11.8-22.7c-0.1-5.2,0.2-5.7,5.4-6.2c0.1,1.1,0,2.6,2.2,2.3
		c2.9-8.9,6-18.1,7.2-27.7c0.8-6.3,0.5-12.7-0.8-19c-1.8-9.2-2.6-18.4-0.1-27.7c1.3-4.6,1.8-9.3,2.9-13.9c1.1-4.7,2.1-9.4,3.1-14.1
		c1.3-7,5.7-11.9,12.8-13.6c1.8-0.4,2.9-1.4,3.9-2.8c1.8-2.6,4.2-4.5,7-5.9c8.1-4.1,15.4-9.2,21.1-16.5c2.9-3.7,3.8-9,1.8-13.2
		c-0.4-0.9-0.7-1.8-0.7-2.7c0-3.2-1.2-6-2.3-8.8c-0.2-0.4-0.6-0.9-0.5-1.3c1.2-4.3-2.1-7.8-2.3-11.9c-0.1-2.6,0.5-5.1,1.1-7.6
		c0.9-3.8,3.4-7.1,3.5-11.2c0,0,0.2-0.1,0.3-0.1c0.2,0.1,0.4,0.2,0.6,0.3c0.5-0.4,1,0.1,1.6,0c-0.5,0.2-1.1-0.5-1.6,0
		c0.5-2,0.9-4,2.5-5.7c-0.6-0.8-1.2-1.7-2-2.8c2.6-1.5,3.9,0.5,5.5,1.7c3.7,0.2,6.4-1.7,8.7-4.2c1.8-0.1,0.8,1.4,1.2,2
		c2.1,0.7,1.9-1.8,3.6-2.3c3.7,0.5,7.8-0.8,12,0.4c1.1,0.3,3.3-0.6,5-1.3c1.7-0.7,3.6-1.1,4.9,0.8c1.5-0.5,2.1-2,3.5-2.8
		c1.7,1.7,0.4,3.9,0.9,6c1.6-0.7,3.1-2.2,5.1-0.9c-0.2,2.2-2.7,1.9-3.5,3.4c1.7,0.2,3.2-0.8,4.8,0.1c0.3,1.1-0.9,2.3,0.1,3.3
		c-2.4,2.3-5.6,3-7.3,5.8c0.7,4,0.2,8.4,2.3,12.5c-0.7,2.5-1.4,5.1-2,7.6c-2.1,0.8-4,1.5-5.9,0.9c-1.1,1-0.2,2.4-1.1,3.3
		c-1.5-3.8-0.6-6.3,2.7-8c1.1-0.5,2.1-1.1,3.2-1.4c1.4-0.5,2-1.9,1.4-2.8c-2.1-3.4-1.8-7.3-2.3-11.4c-3.1,1.3-6.1,0.7-9.1,0.5
		c-2.9-0.2-6-1.1-9.1,0.4c-0.2,0.4,0.5,1.3-0.8,1.7c-0.7-1-1-2.6-2.5-2.9c-1.2-0.3-2.1-2.2-3.6-0.6c0.3,1.8,1.9,1,2.9,1.6
		c0.5,1,0.9,2,1.6,3.3c-1.8,0.4-2.5,2.5-4.6,2.2c-0.3,0-1,0.4-1.1,0.8c-1.2,4-4.6,6.8-5.8,10.9c-0.9,3-1.6,6.1-4.2,9
		c-0.4-2.3-0.5-4.3-2-5.7l-0.1-0.3l0.2,0.2c0.4,1.9-0.9,3.6-0.5,5.1c-0.8,1.3-1.7,0.6-2.5,0.9c0.1,1.9,1.4,2.4,3.4,2.4
		c-2.2,2.5-1.8,5-1.4,7.4c1.3,9.1-2.1,16.4-8.6,22.5c-2.8,2.7-6.1,4.9-9.4,7.6c5.5,3.3,10,7.7,14.2,12.6c3.6-0.7,7.2-0.3,10.7,1.2
		c-3,0-6,0-9.4,0c6.3,11.5,13.5,21.2,28.2,20.9c-0.8-1.8-1.7-3.6-2.5-5.4c-0.1-0.3,0.1-0.7,0.2-1.6c2.8,5.3,7.3,8.9,8.9,14.2
		c1.9,0.5,3.8,0.1,5.3,1.7c-2.1,0.7-3.9,0.1-5.6-0.4c-5.1,5.6-10.2,11.2-15.3,16.7c-1,1.1-2.1,2.2-2.9,3.5c-1.6,2.9-4.6,3.9-7.4,5.2
		c-6.1,2.8-12.2,5.7-18.2,8.6c-5.1,2.5-9.6,5.6-12.5,10.8c1.4-4.4,3.5-8.2,6.7-12.4c0,2.2-1.3,2.9-1.7,4.4c3.5-2.1,7-4,10.2-6.2
		c1.8-1.2,3.6-2.2,5.7-2.9c2.2-0.7,3.1-1.8,2.6-4.2c-0.6-2.9-0.6-5.9-2.2-8.5c-0.5-0.9-0.1-1.8-0.4-2.6c-2.3-2.1-5.3-3.7-6-7.1
		c2.8-1,7.5,2.5,9.8,6.5c2.2,4,0.6,8.4,1.8,12.4c7.9,0,11.1-6.5,15.4-11.1c4.3-4.5,7.8-9.8,12.7-14.1c-0.4-2-1.4-3.8-2.6-5.4
		c-13.8,1.5-22.5-5.4-28.9-16.5c-2.3-4-4.6-8.3-10.2-9.7c4.7,5.7,6.9,12,6.9,18.8c0,6.5-0.5,13-5.7,18.4c-0.8-1.7-0.4-3.4-1.5-4.3
		c0.4-1.4,1.7-0.5,2.3-1.6c-1-1.5-0.5-3.1-0.1-4.9c1.2-4.5,1.8-9.1,0.9-13.7c-0.9-5-2.6-9.4-7.1-12.5c-3.2-2.2-6.1-4.9-10.1-6.5
		c-3.2,2.5-7.4,3.7-10.3,7c-0.6,0.7-1.5,1.1-2.4,1.5c-5.2,1.9-7.5,6.1-9.2,11c-2,5.8-2.4,11.8-1.4,17.9c1.1,6.5,1.6,13.2,7.3,17.4
		c-0.3,1.1-1.4,1.3-1,2.2c2.5,6.3,1.8,13.5,5,19.5c3.5,6.8,5.3,14.2,9.9,20.7c2.4,3.5,5.4,7,6.5,11.5c0.6,2.5,3,4.5,5.7,5.5
		l-0.1-0.1c2.4,3.9,6.8,3.1,10.4,4.5c2.4-2.2,5-4.1,7-6.6c3.8-4.7,9-7.6,13.2-11.7c7.3-7.2,13.7-15.3,17.8-24.9
		c3.8-8.8,7.4-17.6,12.6-25.7c2.6-4,4.8-8.4,6.9-12.7c1.4-2.9,0.8-6.5-0.7-9.3c-4.4-8.5-2.9-16.6,0.5-24.8c0.3-0.7,0.9-1.4,0.5-2.3
		l-0.1,0.1c1.6-2.1,3.1-4.2,6.2-4.7c3.1-0.5,5.5,0.1,7.7,2.1L770.8,371.5z"/>
	<path d="M486.3,269.3c-4.7-2.1-9.2-4.8-14.7-4.5c-2.3,0.1-4.6,1.2-7,0.6c-4.4-1.3-8.4,0.9-12.8,1.3c-2.2,7.2-6,13.6-11,19.6
		c0.3,1,2.5,1.4,1.2,3.1c3.5,1.4,6.9,2.8,10.1,4.7c2.3,1.4,5.3,0.9,8,0.5c5.8-1,11.6-0.6,17.4-1.3c0.5-0.1,0.9,0,1.3,0.4
		c-0.2,1.4-1.4,1-2.2,1.1c-6.1,0.7-12.3,0.9-18.4,1.9c-3.2,0.5-6.4,0.1-9.2-2.4c-2-1.7-4.9-2.2-7.2-3.2c-1.3-0.8,0-2.6-1.9-3.2
		c-8.4,10.3-20.6,17.1-28.6,28c-9.2-0.9-16.2-4.7-20.4-13.8c-1.4,6.6-1.3,12.5-0.5,18.5c0.2,1.6,2.4,2.7,1.7,4.8l0.1-0.1
		c-0.8,0-0.6-0.9-1.3-1.3c0.5,4.1-1.9,7.7-1.2,11.7c7.9,4.5,16.5,7.2,25.5,8.1c7.5,0.8,14.8,3.2,22.5,3.3c7.6,0.1,15.2,1.4,22.6-1
		c2-0.6,4-0.9,5.5-2.8c0.9-1.1,2.9-1.3,4.7-2c-1.6-1.6-2-3.7-1.8-5.9c0.5-5.7,0.6-11.5-0.5-17c-1.4-7,1-13.6,0.9-20.4
		c0-0.3,0.3-0.6,0.5-0.8c1.6,0.1,1.5,1.3,1.8,2.3c0.2,0.7,0.4,1.4,0.3,2.1c-1.8,12.2,1.5,24.4,0.1,36.7c2.9,2.2,2.3,5.4,1.9,8.4
		c-0.3,2.3,0,4.3,0.7,6.5c1.9,6,2.6,12.3,3.8,18.4c1.7,9.2,2.2,18.5,4.3,27.6c1.4,5.9,1.8,12,2.2,18c1.2,16.5,2,33.1,6.7,49.2
		c1,3.3,0.6,6.8,2,10c-2.2,2.9-5.8,3.3-8.6,5.2c0,2.4,0,4.9-0.6,7.3c-0.3,1.3-0.5,3,0,4.2c2.2,5.3,0.8,10.4-0.3,15.6
		c-0.7,3.4-0.2,7.1-1.9,10.4c-0.4,0.7-0.3,1.9,0.3,2.4c2.4,2.2,2,5.2,2.5,7.9c1.8,10.7,1.4,21.5,0.7,32.3c-0.9,14.8-2.4,29.5-3,44.3
		c-0.1,3.9-0.7,7.7-0.1,11.6c0.3,0.1,0.5,0.3,0.7,0.3c4.8-1,7.2,1.3,6.3,6.4c-0.3,1.6-0.3,3.2-0.5,4.9c6.1,4,11.4,8.9,16.7,13.8
		c4.2,3.9,9.2,6.7,14.4,9c2.5,1.1,5,2.2,7.6,3c3.4,1.1,4.8,3.8,3.8,7.2c-0.4,1.4,0.1,2.8-0.1,4.3c-5,3.4-10.3,5.2-16.5,5.3
		c-8.9,0.2-17.4-1.3-25.4-5.3c-5.8-2.9-12-3.2-18.3-3.2c-4.8,0-9.3-1.6-13.7-3.3c-2.4-0.9-3.3-4.4-2-7.1c2.1-4.1,2.8-8.6,3.9-13
		c1.6-6.2,1.5-12.5,2.4-18.7c0.7-4.8,0.2-9.9-1.4-14.7c-1.4-4.3-1.6-8.9-1.7-13.4s-0.3-9-1.1-13.4c-0.7-3.7-2.6-7.2-5.2-9.9
		c-2.5-2.6-3.5-5.5-4.1-8.7c-0.9-5.1-3-10-2.8-15.3c0.1-3.4,0.1-6.9,1-10.2c1.9-6.5,3.2-13.1,3.8-20.2c-0.6-1-1.3-2.4-2.1-3.7
		c-2.2-3.4-3.4-7-3-11.1c0.7-5.9-1.8-11.1-3.2-16.5c-1.1-1.4-3.9,0.3-4.1-2.7c4.8-0.1,9.4,0.2,14.1,0.7c7.7,0.9,15.5,0.1,23.1-0.6
		c5.7-0.6,11.3-3.3,16.4-6c-3.6-12-7-23.6-7.9-35.9c-0.7-9.5-1.6-18.9-2.1-28.3c-0.3-5.8-1.7-11.5-2.4-17.2
		c-1.5-12.7-3.9-25.3-5.6-37.9c-0.3-2-0.5-4-1.8-5.8c-1.9,0.5-3.4,1.6-5.2,2.4c0.9,1.3,1.8,2.5,2.8,3.8c1.2-1-0.8-2.3,0.6-3.2
		c1.4,0.5,0.9,1.8,1.1,2.7c1.7,6.7,1.6,13.6,1.8,20.4c0.3,12.7,0.9,25.4,2.1,38c0.1,0.6,0,1.2,0,2.5c-1.8-3.6-1.6-6.8-1.9-9.8
		c-1.1-11.9-1.7-23.9-1.8-35.9c0-5.6,0.1-11-6.6-14.5c-9.4-0.2-19.9,0-30.6-1.7c1-1.7,2.3-1.3,3.3-1.1c4.8,0.8,9.7,1,14.5,0.9
		c5.8-0.1,11.7-1.1,16.4-5.3c0.6-0.5-0.5-1.3,0.2-1.9c-0.2-0.7-0.3-1.3,0-2c-0.3,0.7-0.3,1.3,0.1,2c-1.4,0.7-2.8,1.5-4.2,2.3
		c-0.9-0.4,0.4-1.6-0.6-2.1c-2.3,0.5-0.9,2.6-1.7,3.7c-1-0.5-0.7-1.8-1.2-2.8c-16.5,3.4-32.3-1-48.4-2.7c-1.5,1.3-0.2,2.9-0.5,4.7
		c-2-1.3-2-3.3-2.2-4.9c-0.7-0.8-1.4-0.6-2.2-0.6c-0.7,1.3,0.5,2.6-0.1,4c-1.2-0.3-1.3-1.4-1.7-2.3c-0.4-0.8,0.6-1.9-0.9-2.5
		c-1.4,1.1,0,2.9-1,4.3c-2-1.2-0.8-3.4-1.5-5.1c-1.7,0.5-0.6,2.2-1.4,3c-1.8-0.8-0.7-2.7-1.6-4.1c-1.5,0.9,0.1,2.5-0.7,3.4
		c-2.4-0.7-0.5-4.5-3.5-4.9c-0.4,1.5,0,2.9,0,4.6c4.4,2.4,9.1,4.5,13.8,6.5c-7.4-0.9-13.8-4.6-20-7.6c-1-1-0.4-2.1-0.8-2.9
		c-2.3,0.2,0.1,3.7-2.6,3.7l0.1,0.1c-1.3-3.8-1-7.1,1.2-10.8c1.7-2.9,2.6-6.8,2.2-10.2c-1-8.2-1-16.3,0.9-23.8
		c-3.2-7.6-8.4-13.5-10.5-21.3c-1.2-4.4-4-8.5-4.9-13.2c-0.5-2.3-0.4-4.7-1.2-7c-1.4-3.8-2.8-7.4-4.6-11.1c-4.1-8.5-5.1-17.5-4-27
		c0.6-5,1.4-9.7,4.2-14.1c1.1-1.7,2.2-3.1,4-3.8c2.5-0.9,4.7-2.8,7.7-2.6c-0.4,1.9-1.8,2.3-3,2.8c-5,1.9-7.3,6-9.1,10.7
		c-2.6,6.8-2.2,13.7-1.1,20.7c0.9,5.8,2.3,11.3,6.9,14.8c0,1.3-1.4,1.3-0.9,2.5c2.3,5.5,1.8,11.8,4.2,17.2
		c3.4,7.7,5.9,15.8,10.7,22.9c2.4,3.5,5.6,6.9,6.4,11.5c0.3,1.6,1.9,3.3,3.8,3.8c0.6-0.2,0.8,0,0.6,0.6c2.8,4.1,7.4,4.1,12.1,5.3
		c2.6-2.8,5.4-5.7,8.2-8.6c2.3-2.4,4.5-4.9,7.4-6.6c6.7-3.9,10.4-10.6,15-16.4c3.3-4.2,5.8-8.8,7.8-13.9c3.3-8.3,7.1-16.5,11.9-24.1
		c2.4-3.8,4.7-8,6.5-12.1c1.3-2.9,0.8-6.4-0.7-9.2c-4.5-8.6-2.8-16.9,0.6-25.2c0.5-1.1,0.8-2.2,1.1-3.4v0.1
		c2.9-4.2,9.1-4.7,12.6-1.1l0.1-0.1c-1.9,0.8-3.3-1.8-5.3-0.9c-0.8,1-0.6,1.9,0.3,2.9c1.9,0.8,4.2-0.2,6.1,1
		c0.4,0.3,0.7,0.6,0.8,0.9c-4.4,0.1-8.9-0.2-13.4-0.6c-0.9,1.3-1.1,2.7-1.5,4l0.1-0.1c-2.9,5.2-3.4,15.4-0.7,19.3c2.2,0,4.8,0,7.3,0
		c-2.1,1.7-4.4,0.9-6.9,1c1.7,2.3,3.4,3.4,6.1,2.8c2.6-0.6,5.4-0.7,8.1-1c0.8-0.1,1.4-0.2,1.7-1.1c-2.3-1-4.9,1-7.1-0.6
		c0.5-0.9,1.7-0.2,2-0.8c-0.3-6.4-0.6-12.7-1-19c2.8-1.3,5.6-1.3,8.6-1.6c0.7,1.6,1.8,2.8,2.1,4.5c-1.2,0.9-2.2,0.2-3.3-0.2
		c-2-0.9-3.3-0.1-3.5,2c-0.2,3.1-0.3,6.1,0,9.2c0.3,2.5,2.5,3.2,4.3,1.5c1.9-1.7,2.1-3.8,1.4-6.2c-0.7-2.2-1.6-4.6,0.9-6.4
		c1.3,0.8,1.4,2.1,1.4,3.4c0,1.7,0.5,3,2.1,3.3c1.5,5.2-2.6,7.4-5,10.3c-1.1,1.4-2.4,2.6-2.3,4.5c-1.3,0.2-0.9-0.9-1.4-1.6
		c-3.2,1.3-6.8,0.7-10,1.6c5.4,11.9,7.4,24.5,8,37.3c-1.6,0.3-1.6-0.7-1.7-1.5c-0.4-2.9-1-5.8-1.1-8.8c-0.2-6.7-2.8-12.9-3.9-19.5
		c-0.3-1.9-0.2-4.1-2.3-5.6c-0.3,2-0.8,3.7-0.7,5.6c0.4,8.9,0.6,17.7,0.8,26.6c0,1,0.1,2.1-1.4,3.1c-1.2-9.6-1.3-18.8-1.4-28.1
		c-2.9,4.4-6.7,8.2-6,14.2c0.5,4.6,0.1,9.2,0.1,13.7c8.1,2.3,16.9,0.2,23.7,5.8C487.3,268.6,486.4,268.8,486.3,269.3L486.3,269.3z"
		/>
	<path d="M411.8,116.8c1.3-1.4,0.6-3.9,2.6-4.9c-0.3-1.2-2.1-1.7-1.8-3.2c2.6-1.2,3.8,1.2,5.4,2.1c3.7-0.2,6.4-2,8.6-4.5
		c1.6,0.4,0.5,1.9,1.3,2.3c1.7,0.1,1.8-1.8,3.2-2.5c3.9,0.3,8.1-0.5,12.4,0.3c1.4,0.2,3.6-0.5,5.3-1.3c1.4-0.6,3.3-1.2,4.1,1.2
		c1.6-0.5,2.3-2.2,3.9-3.2c1.5,1.9,0.2,4.1,0.8,6c2.7-1.5,2.7-1.5,5-0.8c0.1,2.1-2.4,1.6-3,3.1c1.4,0.5,2.8-0.5,4.3,0.3
		c0,1.1,0,2.3,0,3.5c-2.2,2.2-5.4,2.8-7.1,5.8c1,3.6,0.5,7.7,2,11.6c1.1,2.7-1.2,5.4-1.4,8.2c-2.1,0.7-3.9,1.7-6,0.9
		c-1.1,0.7-0.5,2.2-1.4,3.1c-1-5.5-0.6-6,7.7-10c-1.2-4.2-2.4-8.5-2.4-13.4c-6.1,2.6-12.2-1.5-18.4,1.1c-0.3,0.3,0.6,1.3-0.5,1.5
		c-2.1-3.5-4.4-4.6-6.5-3c0.7,1.2,2.1,0.5,3.1,0.9c0.6,1.1,0.8,2.2,1.9,3.2c-2.1,1-3,3.3-5.3,2.6c-4.3,6.4-7.2,13.3-10.3,20.2
		c-0.5-1.6-0.7-3.1-1.8-4.4c-1.1,1.4-0.5,3.1-1,4.4c-0.6,0.8-1.5,0.5-2.2,0.7c-0.1,2,1.3,2.3,2.2,2.3c-0.6,8.2,0.2,16.3-1.8,24.1
		c-4,1.3-4.8,5.9-8.1,8c-3.1,2.1-5.9,4.7-9.1,7.2c5.5,3.4,10.1,7.7,14.1,12.6c3.6-0.6,7.1-0.2,10.6,1.2c-3,0-6,0-9.3,0
		c6.4,11.5,13.5,21.2,28.3,20.9c-0.9-2-2.3-3.9-2.4-6.3c2.8,4.6,7.3,8.1,8.8,13.4c1.8,0.6,3.8,0.1,5.3,1.7c-2,0.7-3.8,0.3-5.4-0.4
		c-5.3,5.8-10.6,11.5-15.9,17.3c-0.6,0.7-1.5,1.2-1.9,2.1c-1.2,2.7-3.4,4.1-6,5.3c-5.9,2.7-11.7,5.6-17.6,8.3
		c-6,2.8-11.7,5.8-15,12.7c0.1-3.8,4.4-11,7.7-13.5c-0.7,1.9-2.4,2.8-2.7,5c6.1-4.6,12.7-7.8,19.3-11.4c-1.3-5.8-1.6-11.4-6.5-15.5
		c-3.5-2.9-4.1-7.8-2.1-12c1.6,2.7,0.6,6,2.5,8.7c1.2-1.5,1.5-2.8,1.2-4.4c-1.6-9-2.8-18-5.4-26.8c-0.7-2.2-1.4-4.2-3.2-5.8
		c-3.9-3.3-7.8-6.6-12.5-8.6c-3,1.8-5.8,3.4-8.9,5.2c1.2-3.6,4.1-6.2,8.9-8.6c8.1-4.1,15.5-9.2,20.5-17.1c2.8-4.4,4.6-9,1.8-14.3
		c-1.2-2.1-0.4-4.9-1.4-7.2c-0.6-1.4-0.8-2.9-1.6-4.3c-0.3-0.5-0.8-1.2-0.6-1.6c1.4-3.2-0.8-5.6-1.6-8.3c-1-3.4-0.5-6.6,0.6-10.1
		c1.2-3.9,3.5-7.4,3.5-11.6C410.9,116.9,411.5,116.8,411.8,116.8c0.8,0.6,1.9,0.3,2.3,0.7C413.6,117.1,412.6,117.2,411.8,116.8z"/>
	<path d="M382.2,484.2c-0.6-0.8-1.9-0.3-2.4-1.5c1-1.4,2.5-0.8,3.8-0.7c8.8,1.2,17.6,2.5,26.4,3.8c6.3,0.9,12.8,0.8,19.1,1.3
		c1.3,0.1,2.6-0.2,4-0.8c0.7-5.3,3-10.2,4.7-15.4c1.1-3.4,1.7-7,2.3-10.6c1.6-9.6,2.4-19.5,7.1-28.4c2.6-4.8,2.9-10.5,5-15.5
		c0.9-2.2,1.9-4.3,3.5-6c-1,4.6-4.3,8.7-3.3,13.4c-2.2,2.6-2,6-3.4,8.7c-1.5,2.9-3.3,5.8-3.9,9.1c-0.6,3.4-1.2,6.7-1.9,10.3
		c1.9,2.1,3.3,4.5,4.7,7c1.3,2.3,2.6,4.7,3.6,7.1c-3.4-3.7-5-8.6-8.6-12.7c-0.7,2.8-1.5,5.2-1.1,7.6c0.3,2.1-0.1,4-0.9,5.8
		c-2.7,6.2-3.8,13-6.3,19.2c-0.3,0.7,0,1.6,0,2.5c-1.7,1.1-3.7,0.9-5.6,1.6c-0.4,6.1-2.1,11.8-6.9,16.1c-0.4,0.3-0.4,1.1-0.5,1.6
		c-1.2,5.2-3.1,10.2-4.1,15.4c-0.9,4.9-3.5,9.2-3.7,14.4c-0.1,1.7-1.3,4-3.3,5.2c2.2,9.3,0.6,18-3.8,26.2
		c-3.9,7.4-6.6,15.4-8.4,23.3c-2.3,10.7-5.5,21.4-4,32.7c0.3,2.3,0.6,5.3-0.9,7.7c-1.4-0.5-1.3-1.3-1.3-2.2c0.3-7.6,0.7-15.2,1-22.7
		c0.4-9.2,3.7-17.4,5.8-26.1c0.5-1.9,2-3.5,2.2-5.6c0.1-1.9,0.5-3.7,0.1-4.9c4.5-6.7,6.9-13.3,6.9-20.7c-1.4,2.1-1.4,4.7-2.2,7
		c-1.6-0.4-1-1.5-0.8-2.2c2.1-6.8,2.6-13.9,5.5-20.5c4-8.8,6.3-18.2,9-27.4c1.1-3.7,3.5-6.7,5-10.2c1.1-2.4,2-4.7,2.2-8.1
		c-13.3,0.3-26.1-2.2-39.1-4.6c-1.1,3.4-1.1,6.8-1,10.2c0,7.4-1.7,14.2-5.2,20.8c-3.7,7.1-5.8,14.8-7.5,22.5
		c-0.8,3.7-1.7,7.4-2.2,11.1c-0.9,7,0.5,13.9,0.2,20.9c-0.1,3.3,0.2,6.6-0.1,10c-0.1,1.1-0.3,2.3,0.8,3.3c1.1,0.9,0.4,2.2,0.3,3.4
		c-1.1,11-0.6,22,0.6,33c0.3,2.7,0.4,5.4-0.2,8.1c-0.1,0.6-0.3,1.2-0.1,1.8c0.8,3.2,0.8,6.5-0.2,9.8c1.8,0.8,3.3,0.4,4.7,0.6
		c2.3-6.5,2.9-6.9,10.1-6.8c2.5,0,4.9,0.4,7.2,1.8c0.4,2.2,0.2,4.4-0.3,6.5c-1.6-1.4-0.5-3.3-1.3-4.8c-3-1.3-6.1-1.5-11.5-0.8
		c-1.4,3.2,1.2,6.8-0.9,9.9c-4.4,0-4.4,0-13.2,5.1c0.1,8.8,0.5,17.9-3,26.6c3.1,1.7,5.7,4.3,9.7,3.4c1-0.2,1.9,0.2,2.6,0.9
		c3.7,3.9,8.7,4.6,13.5,5.7c4.8,1.1,9.8,1.4,14.8,0.7c3.9-0.5,7.9,0.8,11.9-1.9c0,3.1-1.5,3.7-3.3,3.9c-7.7,0.8-15.3,1.5-23-0.1
		c-4.5-0.9-13.1-4.1-16.6-6.9c-5.3,1.5-8.1-3.4-12.6-4.9c4.6-9.7,2.4-20.3,4.3-30.3c0.8-1.3,2.9-0.5,3.6-2.7
		c-0.2-1.1,0.1-2.9-1.1-4.1c0.3-1.4,1.5-1.3,2.3-2.3c0.3-7.6,0.5-15.4,0-23.2c-0.9-13.8-1.8-27.7-1-41.6c0.3-5.2-0.3-10.4-0.9-15.6
		c-0.6-5.1-0.2-10.1,0.9-15.2c1.7-7.3,3.3-14.5,5.6-21.6c1-3.1,2.2-6,3.7-8.8c2.8-5.5,5-11.1,4.7-17.5c-0.2-3.7,0.7-7.5,1.1-11.2
		C384.4,483.8,383.3,483.9,382.2,484.2L382.2,484.2z"/>
	<path d="M384.8,345.2c-0.2,1.2-0.4,2.3-0.6,3.8c3.3,1.8,1.6,5.4,2.5,8.9c2-3.6,2.6-7.3,5.1-10c1.3,0.5,1.1,1.4,0.8,2.2
		c-0.3,0.8-0.6,1.6-1.1,2.2c-3.3,4.7-6.4,9.5-3.7,15.5c-1.9,1-1.4-1.1-2.6-1c-1.4,5-1.7,10.3-2.5,15.5c-1.9,12.2-1.5,24.5-1.4,36.8
		c0,6.5-0.8,12.7-3.8,18.6c-0.8,1.5-0.8,3.2-0.6,4.9c0.2,1.7,0.6,3.5-0.8,5c-0.2-0.1-0.4-0.2-0.6-0.3c-2.2-4.4-1.5-10.1,1.7-13.6
		c1.7-1.5,1.3-3.6,1.2-5.3c0-7.5,0.4-15.1,0.2-22.6c-0.2-5.6,0.3-11.1,0.7-16.6c0.3-3.7,0.1-7.3-0.9-10.5c-1.8,10.3-1.2,21.2-2.5,32
		c-0.2,1.9,0,3.7,0.7,5.6c2.1,5.5,2.3,11.1,1.2,16.8c-1.7,1.2-2.3-0.2-2.7-1.4c-1.1-2.6-1.6-5.3-1.6-7.9c-0.6,5-0.9,10.3-1.8,15.5
		c-0.4,2.6-0.3,5.2,0.5,7.7c1.4,4,1.1,8.2,0.8,12.4c-0.1,0.1-0.3,0.2-0.4,0.4c-1.8-1.2-1.8-3.2-2.2-5c-0.5-2.3-0.6-4.6-1.7-7.6
		c-1.2,11.2-1.5,21.8-4.2,32.3c6.2,0.7,11.6,3.3,17.5,4.7l-0.1-0.1c0,0.3-0.1,0.7-0.2,1.5c-6.4-2.7-13.7-1.7-20-5.3
		c2.5-8.9,3.2-17.8,3.9-26.6c0.7-8.6,1.3-17.2,2.1-25.8c0.1-1.3,0.2-2.6,0.5-3.9c3.2-11.4,3-23.2,3.7-34.9c0.5-8.7,2.5-17,3.6-25.4
		c0.9-6.9,5.4-12,7.8-18.1C383.8,345.1,384.4,345.2,384.8,345.2L384.8,345.2z"/>
	<path d="M481,192.9c2.6-0.3,4.2,0.9,6.3,2.8c6.9,6.5,7.4,14.9,8.3,23.3c0.2,1.9-0.8,3.9-1.9,5.6c-1.5,2.4-1.8,4.8-1.5,7.7
		c0.8,8.6,4.1,16.1,8.7,23.3c2.8,4.4,5.4,8.8,9.6,12c0.5,0.4,1,1.1,1.3,1.7c2.8,6.2,4.6,12.5,1.4,19.2c-0.5,1-1.1,1.9-0.8,3
		c0.9,4-1.4,6.8-3.5,9.6c-1.3,1.8-3.1,3.3-4.1,5.3c-0.7,1.4-2,1.9-3.6,1.4c-1.7-0.5-3.6-0.6-5.1-1.2c-4.9-2-10.8-2.9-12-9.6
		c-0.3-1.7-1.3-3.4-3.8-3c1.1-2.4,3.3-3.5,5.5-5.8c-14.2,3.7-27.7,2.9-41.2,0.5c14.2,1.8,28.3,1.3,42.8-1.7c1-5.2-1.9-10.9,0.2-16.3
		c0.7,0,1,0.3,1,0.9c-0.6,3.9,0.1,7.9,0.8,11.7c0.5,3.2-0.5,5.2-2.8,7c-0.8,0.7-1.6,1.4-2.9,2.4c2.9,2.4,2.4,7,6,9.3
		c2.3-2,2.1-5.1,4.1-7.4c0.2,3-1.6,5.2-2.2,7.6c3.5,2.1,7.1,3.8,11.7,3.8c1.8-3.3,5.4-5.9,6.6-9.6c1.8-5.7,3.4-11.8,3.2-17.6
		c-0.2-4-2.8-8.2-5.9-11.8c-9.6-10.7-16.3-22.9-16.7-37.7c0-1.7-0.1-3.6,1-5.1c4.4-6.4,2.5-12.8,0.3-19.3c-1.2-3.6-2.9-6.8-6.3-9
		c-1.1-0.7-1.7-1.9-3.2-1.6C480.7,194.4,481.1,193.4,481,192.9L481,192.9z"/>
	<path d="M441.6,211.7c1.1-6.5,2.5-12.1,5.7-17.3c-2.4,1.3-7.5,7.3-8.2,9.4c-0.4,1.1,0.1,2.1,0.3,3.1c0.7,3.5,0.8,7-0.6,10.4
		c-1.5-0.4-1.4-1.2-1-2.2c0.7-1.8,0.4-3.3-0.4-5.2c-1.2-3.2-0.2-6.9,2-9.6c2.4-2.9,4.5-6.1,7.9-8c-0.5-1.3-1-2.5-2.5-3.4
		c-0.3,2.8-1.6,5-3.5,7c2.4-4.5,1.1-9.3,1.7-13.9c0.2-1.3,1.6-2.1,1.2-3.7c-2.3-0.8-5.2,0.5-7.8-2.3c3,0,5.4,0,7.7,0
		c5-0.1,5.7-0.8,7.4-5.4c1.8-4.9,3.1-9.8,3.4-15.1c0.2-4.3,2.2-8.4,1.8-12.8c1.4,3,2.4,6.2,1.2,9.2c-1.3,3.2-1.5,6.4-1.8,9.7
		c-0.4,4.9-3.5,9-4.7,13.7c-0.5,1.9-3.1,1.4-4.6,2.8c0.2,2.8,0,5.7-1.7,8.5c6.4,1.9,12.2,4.7,18.3,5.9c0.1,1-0.4,1-0.8,1.1
		c-6.4,0.3-10.8,4.4-11.6,10.8c-0.3,2.9-1,5.6-2.4,8.2c-0.5-8.5,1.7-14.1,7.8-20.3c-3.3-0.6-6,0.6-7.9,3.6
		c-2.2,3.5-3.4,7.5-4.7,11.5C443.6,208.7,443.5,210.2,441.6,211.7z"/>
	<path d="M731.2,375.2c-0.5-0.4-0.9-1-0.6-1.5c1.8-2.8,1.2-5.8,0.7-8.8c-0.3-2.1,1.4-3.7,1.6-5.9c-2.3-1.2-5.3,0.4-7.2-1.7
		c0.3-1.3,1.1-0.9,1.8-0.9c1.8,0.1,3.5,0.2,5.3,0.2c4.9-0.1,5.6-0.9,7.4-5.5c1.9-5,3.2-10.1,3.5-15.5c0.2-4.1,2-8.1,1.7-12.4
		c1.3,3.3,2.5,6.5,0.9,10c-0.7,1.5-1.3,3.1-1.2,4.8c0.5,6.3-3.3,11.5-4.7,17.3c-0.6,2.3-3.4,1.9-5,3.3c0.7,2.2-0.2,4.5-0.3,6.9
		c5.4,1.8,10.7,3.6,16,5.3c1.1,0.3,2.1,0.4,2.5,1.6l0.1-0.1c-0.4,0-0.7,0.1-1.1,0c-8.2-0.9-10.8,5.3-12.1,11
		c-0.5,2.3-0.9,4.6-1.6,6.9c-0.1,0.4-0.3,0.9-1.4,1.2c1-7.7,1.7-15.2,8.7-20.2c-3.4-0.8-6.4,0.5-8.3,3.6c-2.3,3.6-3.5,7.8-4.7,11.8
		c-0.4,1.2-0.6,2.5-1.8,3.3c0.6-5.8,2.1-11.3,5.2-16.8c-2.7,1.7-7,6.9-8,9c-0.6,1.4,0,2.5,0.3,3.8c0.7,3.4,0.8,6.6-0.7,9.9
		c-0.5-0.2-0.9-0.3-0.9-0.4c0.1-2.9,0.1-5.7-0.7-8.7c-0.8-3.3,0.7-6.7,3.3-9.3c0.7-0.6,1.4-1.3,1.6-2.3c0.4-1.1,1.3-1.9,1.8-2.7
		C732.6,373.3,732.2,374.5,731.2,375.2z"/>
	<path d="M409.1,668.1c-0.8,1.1,0.7,1.8-0.5,2.8c-1.5,0.7-3.1,0.7-3.8-1.7c-1.4-0.2-3-0.5-4.5-0.7c1.7-1.6,1.7-1.6,6-2.5
		c-0.5-1.6-1.2-1.5-2.5-0.8c-3.4,1.8-7.2,1.7-11.7,1.6c2.9-3.9,7.2-2.5,10.2-4c-0.1-1.4-0.6-2.4-1.2-3.4c-4.4,0.6-8.5,2.8-13.2,2.6
		c1.1-3.3,3.8-4.4,12.4-5.3c0.3-0.9-0.1-1.6-0.7-2.4c-5.1,0.7-9.9,3.5-15.9,2.5c3.9-5.2,9.7-4.4,14.8-5.8c0.5-2.6-2.1-4.5-1.8-7.4
		c1.8,0.4,2,1.9,2.4,2.9c1.5,3.9,2.9,7.8,4.2,11.7c0.5,1.4,0.9,2.8,2.1,3.7c6,4.1,10.5,10.2,17.5,13.2c2.2,0.9,2.5,3.6,2.4,5.9
		c0,1.2-0.2,2.6-0.9,3.8c-4.6-1.8-8.3,0.6-12.2,2.3c2.6-3.9,6.9-3.7,10.7-4.4c0.8-1.6,0.5-3.1,0.3-4.8
		C418,675.4,413.5,671.8,409.1,668.1z"/>
	<path d="M770.7,371.6c2.4-0.1,3.8,1,5.6,2.7c6.9,6.3,7.4,14.6,8.5,22.8c0.2,1.7-0.3,3.5-1.2,4.7c-4.3,6-2.1,12.3-0.6,18.4
		c1.4,5.3,4.3,9.9,7.3,14.5c2.7,4.2,5.2,8.3,9.1,11.5c2.1,1.8,2.6,4.6,3.4,7.2c1.1,3.6,1.6,6.9,0.6,10.5c-0.8,3.1-2.5,6-1.8,9.6
		c0.3,1.5-1.6,3.6-2.7,5.2c-1.6,2.4-3.7,4.3-5.2,6.7c-1.3,2.1-3.1,1.8-6.7-0.7c1.8-1.3,3.5,0.6,5.4-0.3c1.4-2.6,3.5-5,5.4-7.5
		c1.4-1.8,2.1-3.8,2.1-6.2c0-3.5,1.2-7,2.1-10.4c0.5-1.8,0.1-3.3-0.5-5.1c-1.7-5.1-5.6-8.6-8.5-12.8c-6.4-9.3-12.8-18.8-13.3-30.8
		c-0.2-4.2-0.1-8.1,2.3-11.8c2.3-3.8,0.7-7.9,0.3-11.8c-0.3-3.3-2-6.3-3.5-9.2c-1.3-2.7-4-4.9-7.1-6c-1.1-0.4-1.3-0.6-0.9-1.5
		L770.7,371.6z"/>
	<path d="M780.6,480.8c0.3,0.9,1.9,0.5,1.8,1.8c-5.8,0-6.8-0.7-8.9-6c-1.2-3-1.3-3.1-3.9-4c1-2.1,3.1-3.2,5.2-5.4
		c-14.2,3.6-27.8,2.9-41.3,0.4c7.1,0.1,14.2,1.2,21.3,0.9c7.2-0.2,14.3-1.5,21.8-2.5c0.4-5.5-1.7-11,0-16.4c1-0.1,1.1,0.4,1,0.9
		c-0.4,3.8,0,7.6,0.7,11.3c0.6,3.3-0.4,5.7-3,7.6c-0.8,0.5-1.5,1.2-2.6,2.1c2.9,2.5,2.4,7,6,9.4c2.2-2,2.3-5,4.1-7.7
		C782.9,476.3,781.4,478.5,780.6,480.8z"/>
	<path d="M441.3,361.8c1.4,0.8,1.1,2.2,1.1,3.4c0.1,9.8,0.8,19.7,1.2,29.5c0.1,1.5,0,2.9-1,4c-1.8,2-2,4.5-2.2,7
		c-0.3,7.1-0.7,14.2-1,21.3c0,1,0.1,2.1-1.3,3c0-1.7,0-3.3,0-5c0-7.2,0.5-14.4,1.4-21.6c0.1-0.5,0-1.1,0.2-1.4
		c3-3.9,1.5-8.2,1.2-12.3c-0.7-9.1-0.4-18.2-0.4-27.3C440.7,362.2,441.1,362.1,441.3,361.8z"/>
	<path d="M426.8,357.3c-3.7-1-7.2-1.5-10.4-2.9c-2.9-1.3-3.7-4.8-1.4-6.9c0.8,0.8,0.4,1.8,0.4,2.6c0,1,0.1,1.9,0.7,3
		c8,3.4,17.3,2.5,25.5,6.1c-4.1-0.6-8.2-1.1-12.4-1.7c-0.2,3.1-1.4,5.8-3.2,8.3c-1.8,2.5-3.5,4.9-5.7,7.1
		C422.3,367.9,424.4,362.8,426.8,357.3z"/>
	<path d="M453.8,318.5c1.1,7.1,1.6,14.2,0.2,21.4c-0.6-6.6-0.5-13.3-1.5-19.9c-1.1-7,2.7-13.3,2-20.2c1.8,0.2,1.6,1.2,1.6,1.9
		c0.1,4.4-0.6,8.7-1.6,13C454.1,316,453.6,317.3,453.8,318.5L453.8,318.5z"/>
	<path d="M730.1,467.6c3.8,1.9,7.8,3.3,11.5,5.4c2.6,1.5,6,0.7,9.1,0.2c5.8-0.9,11.7-0.6,17.9-1.3c-1,1.9-2.3,1.6-3.4,1.7
		c-5.8,0.7-11.5,0.9-17.3,1.7c-3.3,0.5-6.7,0.5-9.5-2.3c-1.4-1.4-3.8-1.8-5.8-2.5C731.1,470,730,469.3,730.1,467.6L730.1,467.6z"/>
	<path d="M456,407c0.3-2.7,0.4-5.4,1.1-8c1.4-5,1-10.1,0.6-15.1c-0.6-7.6-0.3-15.1,0.1-22.7c1.4,7.7,0.2,15.5,1.3,23.2
		c1.1,7.9-0.9,15.3-2.1,22.9C456.7,407.2,456.4,407.1,456,407z"/>
	<path d="M451.9,366.3c2.2,4.7,1.1,33.6-1.3,39.3C451.8,392.5,451,379.7,451.9,366.3z"/>
	<path d="M468.4,193.9c-0.6,1.1-2,0.6-2.8,1.3c0.2,0.5,0.4,1,0.7,1.5c-4.6,1.1-8.3,5.5-8.1,10.5c0.1,2.4-0.1,4.9-1.9,7
		c1.3-4.2,0-8.3,0-12.5c0-0.9,0.1-1.7,0.8-2.2c2.7-2,5.2-4.3,8.1-6C466.4,192.7,467.3,193.4,468.4,193.9L468.4,193.9z"/>
	<path d="M748.1,377.2c1.1-2.4,3.9-2.9,5.4-4.8l-0.1,0.1c3.1-0.8,3.4-0.7,3.3,1.7l0.1-0.1c-0.4-0.6-1-0.4-1.6-0.3
		c-0.9,0.7,0.7,1.1,0.2,1.8c-0.1,0.1-0.3,0.3-0.5,0.4c-3.4,0.6-6.6,3.8-7.2,7.3c-0.4,2.1-0.4,4.2-0.7,6.4c-0.2,1.2-0.4,2.4-1.6,3.3
		c1.1-4.7-0.3-9.3,0.2-13.8C746.2,377.9,747.3,377.7,748.1,377.2l0.2,0.3L748.1,377.2z"/>
	<path d="M402.1,523.3c-0.1-4.7-3.1-9.6,1.4-13.6c-1-1.7-1.8-3-2.5-4.4c-0.4-0.7-0.5-1.6-0.8-2.6c2-1,2.1-3.2,2.8-5.4
		c2,2.4,0,4.2-0.2,6.5c3.2,3.3,2.8,7-0.3,10.8C404,517.5,403.2,520.4,402.1,523.3z"/>
	<path d="M723.7,317.7c-1.6,0.2-2.5,1.8-4.2,1.2c5-4.2,12.8-3.7,14.1,0.6c-3.6,3.1-7.7,3.5-12.1,2.2c1.1-1.2,3.4-1.9,7.9-2.2
		C727.6,317.9,725.1,319,723.7,317.7z"/>
	<path d="M432.7,141c2.4-1.4,5.1-1.6,8.2-2c-2-1.5-4.4-0.6-5.7-1.8c-1.7,0.1-2.6,1.6-4.4,1.4c4.4-4.4,12.4-4,14.4,0.6
		c-1.4,0.5-3.4,0.2-3.6,2.2C438.5,141.9,435.6,141.7,432.7,141z"/>
	<path d="M696.9,463.3c-1,1.9-2.1,3.8-3.1,5.8c-0.5,1-2,1.5-1.2,3.3c0.4,0.9-3.3,3.1-4.9,2.5c-3.1-1.2-6.1-2.6-7.5-6
		c-0.2-0.4-0.1-0.9,0.5-1.5c1.4,0.4,1.6,2,2.6,2.9c3.1,2.9,5.4,2.7,7.9-0.6c1.7-2.2,3.2-4.5,4.8-6.8
		C696.4,463,696.6,463.1,696.9,463.3z"/>
	<path d="M768.4,398.1c-2-2.2-0.7-5-1-7.4c-0.5-3.7-0.7-7.4-0.4-11.1c3.1-1.2,5.4-1.6,8.5-1.3c0.6,1.7,2.1,3,2.2,4.9l0.1-0.1
		c-1.2,0.9-2.2,0.2-3.2-0.4c-2.8-1.3-3.9-0.5-3.7,2.6c0.2,2.8,0.1,5.7,0.1,8.5C770.9,395.8,770.2,397.3,768.4,398.1L768.4,398.1z"/>
	<path d="M397.5,293.6c2.6-0.1,4-2,5.4-4c1.3-1.9,2.7-3.8,4.4-6.1c0.2,2.1-1.1,3-1.4,4.3c-0.5,2.2-2.8,3.4-2.7,6.1
		c0,1.3-2.5,2.3-4.4,2.2c-2.4,0-7-3.7-7.7-6.1c-0.1-0.5,0-0.9,0.5-1.5C393.5,290.3,394.8,292.8,397.5,293.6z"/>
	<path d="M411.7,289.9c4.4-8.9,12.9-14,16.5-23.1c1.2,1.1,0.7,1.8,0.4,2.5c-2,5-5.3,8.9-9.2,12.4c-1.8,1.7-4.2,3-4.8,5.8
		C414.5,288.5,413.5,289.4,411.7,289.9z"/>
	<path d="M407.3,375c0.6-8.7-5.7-14.8-6.8-22.6C404.7,354.7,409.5,370.2,407.3,375z"/>
	<path d="M429.9,172.3c-4-2.8-8-5.7-11.9-8.4c0.6-3.5-2.8-6.8,0.3-10.1c0.1,3.6,1.4,6.9,2.5,10.5c3.3,2.1,7,4.2,9.8,7.1
		C430.4,171.7,430.2,172,429.9,172.3z"/>
	<path d="M677.6,382.8c2.9,4.5-0.7,8.3-0.6,12.6C673.5,392,673.8,385.9,677.6,382.8z"/>
	<path d="M706.5,344.5c0.7-3.6-2.7-6.9,0.5-10.2c-0.2,3.8,1.3,7.1,2.4,10.6c3.4,2,6.9,4.1,9.8,7.1c-0.2,0.3-0.4,0.6-0.6,0.9
		C714.6,350.2,710.6,347.4,706.5,344.5z"/>
	<path d="M381.9,651.3c3.3-3.6,12.8-4.2,16.2-0.8C392.3,650.2,387.2,651.7,381.9,651.3z"/>
	<path d="M388.3,204c3.3,4.4-0.9,8.3-0.4,12.7C384.3,213.6,384.6,207.1,388.3,204z"/>
	<path d="M405.1,475.6c-5.9,0.4-7.7-0.5-7.7-3.7c0-2.4,1.8-4.1,4.3-4C405,468.1,405.8,469.9,405.1,475.6z"/>
	<path d="M388.8,543.1c-0.1-4.2-0.9-8.4,0.7-12.6c1.9,3.2,0.3,15.8-2.3,19.8C385.8,547.2,386.1,546.1,388.8,543.1z"/>
	<path d="M704.2,463.4c3.2-4.1,7.2-7.5,9.9-11.9c1.1-1.9,2.4-3.7,3.6-5.7c0.6,4.6-5.9,13.3-13.2,18c-0.2,0.1-0.4,0.2-0.6,0.3
		C704,463.8,704.1,463.6,704.2,463.4z"/>
	<path d="M376.3,447.7c-0.5,6.1-2.3,12-3.1,18.1c-0.6,4.6-1.9,9-1.9,13.9c-1.5-1.2-1.2-2.4-1-3.8c0.9-5.3,2.2-10.6,2.5-16l-0.1,0.1
		c0.6-2.7,0.3-5.4,0.6-8.1C373.6,450.1,373.4,447.6,376.3,447.7L376.3,447.7z"/>
	<path d="M397.1,471.4c-1.8,3.5-3.2,4.3-5.7,3.6c-2.1-0.6-3.1-2.1-3-4.2c0.1-2,1.5-3.1,3.4-3.5C394.2,466.8,395.7,467.9,397.1,471.4
		z"/>
	<path d="M387.4,474.2c-1.4,0.3-1.7-0.2-2.1-0.8c-0.4-0.6-0.6-1.3-1.5-1.4c-1.5-0.1-0.4,2.1-2.2,2c-1-2.2-0.2-4.6-0.1-6.9
		c1.5-1.3,3-0.5,4.5-0.3c2,0.3,2.6,2.2,1.6,3.4C386.5,471.7,386.5,472.8,387.4,474.2z"/>
	<path d="M696.3,557.6c-2-0.3-2.6-1.5-2.3-3.3s-0.1-3.3-1.3-4.9c-1-1.3-1.7-3-0.4-4.8C696.3,548.3,695.5,553.1,696.3,557.6z"/>
	<path d="M672.4,398.6c-0.6-0.1-1.2-0.4-1.4-0.9c-1.8-4.6-2.4-9.3-1.3-14.2c1.6,2.3,1.1,4.9,1.1,7.4
		C670.8,393.6,671.7,396.1,672.4,398.6L672.4,398.6z"/>
	<path d="M479.3,270.6c-7.3,1.9-14.6,1.5-21.9,0.5C464.7,271.5,472,270.9,479.3,270.6z"/>
	<path d="M746.7,449.9c7.2,0.4,14.5-0.2,21.8-0.5C761.2,451.4,754,450.9,746.7,449.9z"/>
	<path d="M452.4,162.5c-4.1,0.3-8.1,1.3-12.2,0.6c0-0.4,0-0.8-0.1-1.2c4.1-0.3,8.2-0.6,12.2-0.9C452.3,161.5,452.4,162,452.4,162.5z
		"/>
	<path d="M675.1,666.7c2.5-1.8,5.9-2,8.1-0.5C681.2,668.1,678.7,668.3,675.1,666.7z"/>
	<path d="M680.3,558c3.8-0.3,7.2,2.2,8.2,6C685.9,561.8,683,560.1,680.3,558z"/>
	<path d="M741.4,343.3c-4.6-0.2-8.6,1.3-13.2,0.5C730.7,341.8,739.2,341.4,741.4,343.3z"/>
	<path d="M731.9,348.1c2-3.5,4.6-3.7,7.3-0.5C736.8,348.7,734.5,349.3,731.9,348.1z"/>
	<path d="M450.7,167c-2.4,1.3-4.6,1.5-7.2,0.5c0.3-1.7,1.2-2.8,2.8-2.7C447.8,164.8,449.8,164.6,450.7,167z"/>
	<path d="M422.5,307.2c2.8,2.4,4.7,9.5,4,14.4C424.5,316.7,424.7,311.7,422.5,307.2z"/>
	<path d="M382.3,219c-2.1-4.7-3-9.4-1.7-14.5C382.1,209.3,380.8,214.4,382.3,219z"/>
	<path d="M478.8,286c-0.4-4.4,0.4-8.6,0.6-13C480.7,277.4,479.4,281.7,478.8,286z"/>
	<path d="M427.5,178.9c0.9-0.2,1.7-0.3,2,0.8c0.8,3,1.7,6,1.4,9.2C428.4,186,428.3,182.3,427.5,178.9L427.5,178.9z"/>
	<path d="M720,367.8c-1.9-2.4-2-5.6-3.9-8C719.8,360.5,719.8,360.5,720,367.8z"/>
	<path d="M448.7,357.1c1.4,3.8-0.3,7.3-1,10.9C447.9,364.3,446.5,360.6,448.7,357.1z"/>
	<path d="M457.6,287.2c-0.2-4.5,0-9,1.6-13.4c-0.2,4.4-0.4,8.9-0.6,13.3C458.2,287.2,457.9,287.2,457.6,287.2z"/>
	<path d="M378.6,625c1.9,4.5,1.6,7.9-0.9,10.7C378,631.6,378.3,628.3,378.6,625z"/>
	<path d="M681.3,545.1c3.5-0.4,6,0,8.7,1.8C685.6,548,683.8,547.7,681.3,545.1z"/>
	<path d="M465.2,368c1.3,3.6,1.1,7.4,1.6,11.1c-0.3,0.1-0.6,0.1-0.9,0.2c-0.6-3.7-1.2-7.4-1.8-11.1
		C464.5,368.2,464.9,368.1,465.2,368z"/>
	<path d="M708.2,541.7c-1.3-1.5-0.7-3.2-1.7-4.4c1.1-1.7,2.9-2.8,2.8-5.4c2.2,2.6,0.2,3.8-0.7,5.4
		C708.2,538.6,709.2,540,708.2,541.7z"/>
	<path d="M684.5,424.6c2.3-4.4,4-5.3,6.6-3.9C688.8,422.1,686.7,423.3,684.5,424.6z"/>
	<path d="M691.7,543.1c0.5-2.2,1-4.5,1.4-6.8C695.8,537.9,695.5,540.1,691.7,543.1z"/>
	<path d="M768,464.8c-0.7-4.4,0.4-8.6,0.7-12.8C769.4,456.3,769.3,460.6,768,464.8z"/>
	<path d="M398.3,308.1c-0.2-0.2-0.4-0.4-0.6-0.6c0-0.3-0.1-0.7-0.1-1.4c2.5,1.4,4.9,2.7,7.4,4c1.4-0.4,2.2-1.9,3.9-2.5
		c-0.2,1.6-1.3,2.4-2.1,3.2C403.4,311.1,401.1,308.9,398.3,308.1z"/>
	<path d="M434,359.7c1.8,2.7,1.8,4.7,0,11.4C434,366.8,434,363.2,434,359.7z"/>
	<path d="M747.6,466.1c-0.9-4.5-0.9-8.9,0.8-13.2C748.2,457.3,747.9,461.7,747.6,466.1z"/>
	<path d="M688.6,402.3c-1.6-1.8-3.4-3.4-4.2-5.8C687.1,396.2,688.5,398,688.6,402.3z"/>
	<path d="M706,359.1c1.6,2.9,1.6,6.2,2.4,9.6C706.4,366.2,705.4,362.4,706,359.1z"/>
	<path d="M456.7,363.5c-3.4-2.5-3.6-3.9-0.9-6.2C457.8,359.2,455.2,361.6,456.7,363.5z"/>
	<path d="M427.5,324.4c2.1,2.2,2.3,4.1,0.9,8.6C426.7,330,427.9,327.1,427.5,324.4z"/>
	<path d="M418.7,189.4c-1.2-2.9-2.7-5.8-2.1-9.1C418.3,183.1,418.2,186.3,418.7,189.4z"/>
	<path d="M409.5,489.9c-1.8,2.6-4.6,3.3-7.5,3.8C404.1,491.5,406.6,490.3,409.5,489.9z"/>
	<path d="M499.9,274.3c-0.9-2.9-1.8-5.8-2.8-8.6c0.2-0.1,0.5-0.2,0.7-0.2c2.3,2.4,1.8,5.7,3,8.5C500.5,274,500.2,274.2,499.9,274.3z
		"/>
	<path d="M395.1,245.4c1.6-2.4,3.3-4.7,6.7-4.3C400.2,243.3,397.6,244.2,395.1,245.4z"/>
	<path d="M412.1,525.6c-2.2-1.4-4.4-2.9-6.5-4.3c3.1,0,5.6,0.9,7.2,3.4C412.5,525,412.3,525.3,412.1,525.6z"/>
	<path d="M427.5,178.8c-3-2.7-4.5-6.3-6.2-9.8C423.9,172,426.2,175.1,427.5,178.8L427.5,178.8z"/>
	<path d="M715.4,358.4c-2.6-2.4-4.1-5.5-6-8.6C711.6,350.7,711.7,350.9,715.4,358.4z"/>
	<path d="M740.5,335.4c-2.1,1.3-4.1,0.5-6,1.5C735.5,334,737.8,333.5,740.5,335.4z"/>
	<path d="M689,573.4c0.1-2.6-1.7-5.2,0-7.8C688.9,568.2,690.9,570.8,689,573.4z"/>
	<path d="M392,325.3c1.6,2.6,3.3,5.2,4.9,7.9C394.7,330.8,391.5,329.1,392,325.3L392,325.3z"/>
	<path d="M452,154.3c-1.8,2.2-4.1,0.5-5.9,2.1C446.9,153.5,448,153.1,452,154.3z"/>
	<path d="M744.5,415.4c-2.5,1.6-1.7,4.8-3.2,7.1C740.6,417.9,741.3,416.4,744.5,415.4z"/>
	<path d="M410.1,341.9c-2.6-1-5-2.4-7.1-4.3C405.9,338.1,408.3,339.4,410.1,341.9z"/>
	<path d="M402.2,542.2c-1.2-2.7-0.9-4.8-0.7-6.8C402.8,537.3,403.5,539.3,402.2,542.2z"/>
	<path d="M679.7,547.3c-0.5,1.3-1,2.4-1.6,3.9c-1.2-1.1-1.9-2.1-1.3-3.5C677.4,546.6,678.3,546.2,679.7,547.3z"/>
	<path d="M453.8,318.5L453.8,318.5c2.3-1.2,4.7-0.1,7.1,0.1C458.5,320,456.2,320.4,453.8,318.5z"/>
	<path d="M451.9,243.7c-0.4-3.5-0.2-6.2,3.2-7.5C453.4,238.2,453.5,241,451.9,243.7z"/>
	<path d="M786.9,444.4c2.8,2.1,1.8,5.4,2.7,8.1C788.4,450,786.7,447.5,786.9,444.4L786.9,444.4z"/>
	<path d="M695.1,516.8c2.6,1.1,4.7,2,6.9,3C699.8,521,698.3,520.4,695.1,516.8z"/>
	<path d="M409.8,359.1c-0.8-3.2-0.8-3.2,0.3-6.3C411.2,355.2,410.5,357.1,409.8,359.1z"/>
	<path d="M388.3,508.2c-1-2.1-1.3-4.2,0.6-6.5C389.1,504.2,389.5,506.3,388.3,508.2z"/>
	<path d="M686.3,526.8c-1.4-2.1-0.7-4.2-2-5.8C687,521.5,687.1,521.6,686.3,526.8z"/>
	<path d="M773.1,419.2c-0.3-2-1.4-3.9-1.2-6.3C773.6,415.1,773.8,416,773.1,419.2z"/>
	<path d="M422,200.3c-2.5-2.1-1-5.1-2.5-7c1.8,0.6,1.5,1.9,1.5,3.1C421,197.6,422.4,198.4,422,200.3z"/>
	<path d="M693.6,489.2c-1.8,0.2-3.1-1.6-4.9-1.5l0.1,0.1c-0.3-1.1-1.9-1.3-2-3.1C688.9,486.8,692,486.9,693.6,489.2L693.6,489.2z"/>
	<path d="M483.1,234.3c1,1.9,1.7,3.9,1.2,6.6C483,238.5,482.9,236.4,483.1,234.3z"/>
	<path d="M725.9,365.4c-0.1-1.2,0.7-1.6,0.9-2.2c1.4-0.2,1.6,0.2,2,2.6C727.8,366.4,726.9,366.3,725.9,365.4z"/>
	<path d="M704.5,463.7c0.2,2.4-1.1,3.8-3.4,4.6c1-1.7,2.1-3.3,3.1-5C704.3,463.5,704.4,463.6,704.5,463.7z"/>
	<path d="M468,200.1c2-0.6,4-1.3,6.2-0.4C472.3,200.8,470.2,201,468,200.1L468,200.1z"/>
	<path d="M758.2,379.3c2-1.2,2-1.2,5.1-1.1C761.8,379.6,761.8,379.6,758.2,379.3z"/>
	<path d="M687.3,513c2.1-1.3,3.6-0.2,5.9,1.3C690.6,514.2,689.1,512.6,687.3,513z"/>
	<path d="M484.3,248.8c-0.5-1.4-1.3-2.7-0.9-4.8C484.8,245.7,485.4,247.1,484.3,248.8z"/>
	<path d="M447.7,217.6c-1.4-2.4-1.4-2.4,0.7-3.5C449.2,215.5,448.5,216.5,447.7,217.6z"/>
	<path d="M693.5,489.3c1.9-0.1,2.7-2.1,4.3-2.7C696.8,489.9,696.5,490.1,693.5,489.3L693.5,489.3z"/>
	<path d="M688.8,575.6c1.6,1.6,0.7,3,0,4.4C688.8,578.6,688.8,577.1,688.8,575.6z"/>
	<path d="M737.3,392.6c1,1.6,0.5,2.6-0.3,3.9C735.3,395,735.7,393.9,737.3,392.6z"/>
	<path d="M397.9,489.8c1.8,0.2,2.7,1.1,2.7,3.2C399,492.3,398.6,490.9,397.9,489.8z"/>
	<path d="M421.2,502c-1.4-1-1.4-2.3-1.6-3.8C421.2,499.7,421.2,499.7,421.2,502z"/>
	<path d="M773.8,428.3c-1.3-1.9-1.3-3.3-1-5.2C774.2,424.6,774.4,426.1,773.8,428.3z"/>
	<path d="M732.8,395.8c-2-0.5-2.9-1.2-2.5-3.8C731.1,393.5,732.3,394.1,732.8,395.8z"/>
	<path d="M424.8,260c0,1.8-1.6,2.4-2.2,3.8C422.6,262.1,423.5,260.9,424.8,260z"/>
	<path d="M662.4,610.3c-0.1,1.5-0.2,2.9-0.3,4.4c-0.3,0-0.5-0.1-0.8-0.1C661.1,613.1,661.5,611.7,662.4,610.3L662.4,610.3z"/>
	<path d="M384.4,560.8c0.8,1.4,0.2,2.5-0.6,4.1C383.4,563.1,382.6,561.9,384.4,560.8z"/>
	<path d="M419.7,353.2c-1.8-1.7-1.7-2.8-0.6-4.1C420.1,350.4,419.3,351.5,419.7,353.2z"/>
	<path d="M401.1,530.7c-1.5-1.1-1.5-2.3-1.2-3.7C401.2,527.8,401.3,529,401.1,530.7z"/>
	<path d="M774.5,448.2c-0.6,1.6-1.8,2-3.6,1.8C772,448.6,773.3,448.6,774.5,448.2z"/>
	<path d="M440.9,184.9c-2,1-3,0.7-3.7-0.8C438.7,183.2,439.4,184.2,440.9,184.9z"/>
	<path d="M711.7,442.5c0.4-1.5,0.9-2.9,2.5-4C714.2,440.6,712.6,441.4,711.7,442.5z"/>
	<path d="M379.4,610.6c1,1.7,1.1,2.7,0.1,4C378.8,613.4,379.1,612.3,379.4,610.6z"/>
	<path d="M686.1,586.2c-0.3-1.4-0.2-2.2,0.9-2.9C687.4,584.6,687.3,585.5,686.1,586.2z"/>
	<path d="M774.4,437.8c0.4,1.5,1.5,2.4,0.8,4.1C774.9,440.4,774,439.5,774.4,437.8z"/>
	<path d="M486.2,269.3c-1.3,0.7-2.3,2.4-4.7,1.6C483.2,269.9,484.4,268.8,486.2,269.3L486.2,269.3z"/>
	<path d="M484,252.5c1.3,0.9,1.4,1.9,1.4,3.6C484.4,254.9,483.9,254.1,484,252.5z"/>
	<path d="M739.6,450.6c1.1-1.1,2.2-1.6,3.6-0.3C741.9,451.3,740.7,450.2,739.6,450.6L739.6,450.6z"/>
	<path d="M391.4,249.7c-0.4-1.5,0-2.4,1.9-2.8C393.1,248.4,392.7,249.2,391.4,249.7z"/>
	<path d="M682.3,425.7c0.1,1.7-0.7,2.3-1.8,3.1C680.3,427,680.7,426.1,682.3,425.7z"/>
	<path d="M461.7,229.4c-1.6-0.6-2-1.5-2-3.1C461.1,226.9,461.6,227.7,461.7,229.4z"/>
	<path d="M484.4,467.2c-1.5,0.4-2.4-0.5-3.9-1.1C482.4,465.4,483.3,466.5,484.4,467.2z"/>
	<path d="M749,405.1c1.4,0.7,1.9,1.5,1.9,3.1C749.3,407.6,749,406.7,749,405.1z"/>
	<path d="M688.9,403.4c1.5,0.8,2.2,1.5,1.7,2.8C689.3,406,689,405.1,688.9,403.4z"/>
	<path d="M746.5,396.9c-1.4,0.2-1.9-0.3-2.3-1.4C745.7,394.7,746.4,395.1,746.5,396.9z"/>
	<path d="M710,376c1,0.7,1.3,1.5,1.5,2.5c-0.9,0.5-1.3-0.3-1.7-0.7C709.5,377.4,709.3,376.9,710,376z"/>
	<path d="M432.8,193c1.2,1,1.4,1.9,1.2,3.2C432.6,195.5,432.8,194.4,432.8,193z"/>
	<path d="M722.2,371.8c0.8,0.9,1.7,1.9,0.9,3.5C721.8,374.2,722.1,372.9,722.2,371.8L722.2,371.8z"/>
	<path d="M708.8,371.7c1.5,0.8,1.4,1.7,1.1,3C709,373.9,708.4,373.2,708.8,371.7z"/>
	<path d="M457.8,353c-0.5-1.7,0.1-2.7,1.9-4C459.1,350.7,459.1,352,457.8,353z"/>
	<path d="M675.4,404.8c-0.9-0.9-1.3-1.5,0-2.2C676,403.2,676,403.9,675.4,404.8z"/>
	<path d="M776.3,407c-1.3,0.6-2.1,1-3.2,0C774,406.2,774.9,406.4,776.3,407z"/>
	<path d="M453.9,271.5c-1,0.7-1.7,0.2-3.2,0.2C452.2,270.3,453,270.7,453.9,271.5z"/>
	<path d="M427.9,334.8c0.8,1.4,1,2.2,0.6,3.3C427.1,337.3,427.4,336.4,427.9,334.8z"/>
	<path d="M719.1,436.1c-0.8-0.7-0.6-1.4,0-2.3C719.9,434.7,719.8,435.3,719.1,436.1z"/>
	<path d="M675.9,561c-0.1-1.2,0.6-1.5,1.4-1.6c0.7,0.5,0.5,0.9,0,1.4C677.1,561.1,676.7,561.2,675.9,561z"/>
	<path d="M384.5,262.6c-0.8,1.2-1.6,1.7-3.1,2.1C382.1,263.5,382.7,262.7,384.5,262.6z"/>
	<path d="M428.9,477.7c1.3,0.6,1.5,1.9,1.9,3C429.9,479.9,429,479,428.9,477.7L428.9,477.7z"/>
	<path d="M443,216.8c-1.5-0.6-2.4-1.3-1.6-3.4C441.7,214.9,443.5,215.1,443,216.8z"/>
	<path d="M455.3,216.4c1.5-0.4,2,0.2,2,1.5C456,218.5,455.3,218.1,455.3,216.4z"/>
	<path d="M478.8,227.5c1.7-0.5,2.6-0.6,4,0.1C481.4,228.1,480.4,227.8,478.8,227.5z"/>
	<path d="M485.5,260.4c0.5,0.8,1.3,1.5,0.6,2.5C485.2,262.3,485.2,261.4,485.5,260.4z"/>
	<path d="M447.4,318.9c0.7-0.8,1.2-1.1,1.8-1.1C449.2,319.3,448.3,318.5,447.4,318.9z"/>
	<path d="M386.5,554.4c1.2,1.3-0.1,1.7-0.5,2.6c-0.7-0.8-0.6-1.5-0.3-2.1C385.8,554.7,386.2,554.6,386.5,554.4z"/>
	<path d="M402.4,564.4c-0.8-1-0.2-1.6,0.6-2.2C403.4,563.1,403.6,563.9,402.4,564.4z"/>
	<path d="M430,255c0.6,0.9,0.3,1.6,0.1,2.4C429,256.7,429,256,430,255z"/>
	<path d="M671.2,443.2c0.4-1.2,1.1-1.8,2.4-1.7C673.1,442.8,672.1,442.9,671.2,443.2z"/>
	<path d="M774.6,434.5c-1-0.7-1.3-1.5-1.2-2.4c0.2-0.2,0.3-0.3,0.3-0.3C774.5,432.5,775,433.3,774.6,434.5z"/>
	<path d="M501.4,276.4c1.1,0.1,1.3,0.7,1.2,1.6C501.6,277.9,501.1,277.5,501.4,276.4z"/>
	<path d="M486.6,228.2c-0.9,0.6-1.8,0.9-2.9,0.1C484.9,227.2,485.8,227.7,486.6,228.2z"/>
	<path d="M768.8,406.2c1-0.6,1.9-0.5,3,0.1C770.7,407.1,769.8,406.7,768.8,406.2z"/>
	<path d="M478.9,448.4c0.6,1.3,0.9,1.9,1.2,2.5C479.1,450.8,479,450.2,478.9,448.4z"/>
	<path d="M664.4,586.2c-0.7-0.6-0.1-0.9,0.3-1.3C665.4,585.5,665.2,585.9,664.4,586.2z"/>
	<path d="M378.3,251.6c-0.6,1.2-1.1,0.8-1.6,0.2C377.3,250.8,377.8,251.2,378.3,251.6z"/>
	<path d="M409,275.7c-0.8-1.2-0.3-1.7,0.5-2.1C409.9,274.4,409.8,274.9,409,275.7z"/>
	<path d="M758.5,476c1.1-0.5,1.3,0.1,1.6,1C759.1,477.2,758.6,477,758.5,476z"/>
	<path d="M698.7,452.2c0.7,1.2,0.3,1.6-0.4,2.1C697.6,453.5,698,453,698.7,452.2z"/>
	<path d="M684.6,512.4c-1.3,0-1.7,0-2.3,0C682.8,511.7,683.3,512.1,684.6,512.4z"/>
	<path d="M784.5,435.3c0.8,0.3,1,0.8,0.7,1.2c-0.5,0.6-0.8,0-0.9-0.4C784.2,435.9,784.4,435.7,784.5,435.3z"/>
	<path d="M390.2,523.2c0.6,0.6,0.6,0.9,0.2,1.4C389.7,524.3,390,523.8,390.2,523.2z"/>
	<path d="M722.2,371.7c-0.5-0.5-0.9-1-1.6-1.7C721.9,370.3,721.8,371.2,722.2,371.7L722.2,371.7z"/>
	<path d="M427.3,341.3c-1.3-0.6-1-1.1-0.5-1.7C427.8,339.9,427.5,340.5,427.3,341.3z"/>
	<path d="M403.3,551.4c0.1-0.6,0.1-1.3,0.2-2.1c0.9,0.9,0.9,1.6,0.4,2.3C403.8,551.5,403.6,551.5,403.3,551.4z"/>
	<path d="M718.1,442.4c-0.4-0.2-0.3-0.6-0.1-0.8c0.5-0.4,0.5,0.1,0.4,0.4C718.4,442.2,718.2,442.3,718.1,442.4z"/>
	<path d="M786.9,444.4c-0.4-0.4-0.7-0.9-0.6-1.7C787,443.2,786.7,443.9,786.9,444.4L786.9,444.4z"/>
	<path d="M706.4,449.3c0,0.8,0,1.1-0.5,1.3C705.4,450.1,705.9,449.9,706.4,449.3z"/>
	<path d="M791.8,457c-0.8-0.3-1.4-0.6-1.1-1.8C791.4,455.4,792,455.6,791.8,457z"/>
	<path d="M697.1,472.4c-0.4,0.3-0.8,0.6-1.2,0.8C695.8,472.2,696.2,472.1,697.1,472.4z"/>
	<path d="M385.8,225.5c-0.3-0.5-0.4-1.1,0-1.6C387,224.4,386.9,225,385.8,225.5z"/>
	<path d="M423.4,469c-0.9,0-1-0.7-1.3-1.3C423.1,467.6,423.2,468.3,423.4,469L423.4,469z"/>
	<path d="M453.5,469.1c-0.4-0.2-0.7-0.4-0.6-0.8C453.2,468.5,453.5,468.7,453.5,469.1z"/>
	<path d="M426.7,204.6c-0.7,0.8-1.5,0.5-2.6,0.3C425.1,203.9,425.9,204,426.7,204.6z"/>
	<path d="M424.8,471.2c-0.9-0.4-1.5-1.1-1.4-2.2l-0.1,0.1C424.2,469.5,424.7,470.2,424.8,471.2L424.8,471.2z"/>
	<path d="M426.2,473.3c-1-0.4-1.5-1-1.4-2.1l-0.1,0.1C425.7,471.6,426.1,472.4,426.2,473.3L426.2,473.3z"/>
	<path d="M429,477.6c-1-0.3-1.5-1.1-1.4-2.1l-0.1,0.1C428.5,475.9,429,476.6,429,477.6L429,477.6z"/>
	<path d="M701.3,483.3c-0.2,1-0.3,1.6-1.1,1.6C699.8,484.1,700.4,483.9,701.3,483.3z"/>
	<path d="M427.6,475.5c-1-0.3-1.5-1.1-1.4-2.2l-0.1,0.1C427.1,473.8,427.5,474.5,427.6,475.5L427.6,475.5z"/>
	<path d="M425.5,350.2c1,0.3,0.9,0.9,0.5,1.7C425.3,351.4,424.9,351,425.5,350.2z"/>
	<path d="M408.6,292.9c-0.2,0.6-0.6,0.9-1.6,0.8C407.5,293.2,407.6,292.5,408.6,292.9z"/>
	<path d="M382.5,568.2c0.4,1.2-0.1,1.5-0.9,1.4C381.2,568.8,381.8,568.6,382.5,568.2z"/>
	<path d="M661.2,540.8c0.3-0.9,0.7-1.2,1.6-0.8C662.5,540.6,662.2,541.1,661.2,540.8z"/>
	<path d="M662.8,597.6c0.2,0.1,0.5,0.2,0.5,0.3c0.1,0.2-0.1,0.5-0.2,0.6c-0.2,0.2-0.5,0-0.5-0.2
		C662.6,598.1,662.8,597.8,662.8,597.6z"/>
	<path d="M713.6,383.5c0.7-0.7,1.4-0.7,2.3,0C715.1,384.1,714.4,384.3,713.6,383.5z"/>
	<path d="M672.3,398.7c0.5,0.6,1.7,0.8,1.3,2.2C672.3,400.4,672.7,399.4,672.3,398.7L672.3,398.7z"/>
	<path d="M503.5,279.9c0.9,0.2,1.1,0.6,0.7,1.2C503.6,281.1,503.1,280.9,503.5,279.9z"/>
	<path d="M662.5,610.3c-0.2-0.8-0.5-1.6,0.2-2.6C663.2,608.8,663.2,609.6,662.5,610.3L662.5,610.3z"/>
	<path d="M406.4,280.5c-0.1-0.8-0.1-1.3,0.5-1.2c0.6,0.1,0.6,0.5,0.2,0.9C407,280.3,406.8,280.3,406.4,280.5z"/>
	<path d="M390.2,519.3c-0.7-0.9-0.5-1.6-0.1-2.4C390.8,517.7,390.8,518.4,390.2,519.3z"/>
	<path d="M666.9,430c0.1,0,0.4,0.1,0.4,0.5s-0.2,0.7-0.6,0.6c-0.2,0-0.5-0.2-0.6-0.4C666,430.4,666.1,430.1,666.9,430z"/>
	<path d="M403.7,556.8c0.1,0.7-0.1,1-0.6,0.9C402.7,557.3,403,557.1,403.7,556.8z"/>
	<path d="M676.9,512.6c-0.1-1.4,0.6-1.1,1.1-1.5C678.2,512.5,677.4,512,676.9,512.6z"/>
	<path d="M379.5,618.7c0.2,0.4,0.3,0.8-0.1,1.2C379.2,619.5,379.2,619.1,379.5,618.7z"/>
	<path fill="#FFFFFF" d="M792.5,536.6c-8.7,4.5-18.3,7.2-26.3,13.3c-5.6,4.3-11.8,8.3-19.6,7.7c-1-0.1-1.8,0.3-2.5,1
		c-0.9,0.9-1,0.8-3.4,0.9c-0.7-9.1-0.4-18.1,4.6-26c3.9-6.2,7.1-12.9,11.7-18.8c3.9-5.1,7.8-10.2,12.8-14.2c0.5-0.4,1.1-0.9,1.4-1.5
		c2.1-3.9,2.3-3.7,6.5-3.3c9.8,0.8,18.5,5.7,27.9,7.9c4.7,3.9,11.1,4.6,15.6,8.8c2.1,2,3.2,3.9,2.5,6.8c-1.8,7.2-2.4,14.6-5.1,21.7
		c-2.4,6.3-5.3,12.2-9.6,17.3c-3.5,4.1-6.2,8.7-9.1,13.1c-1.8,2.8-3.8,5.4-6.2,7.7c-4.9,4.7-9,10.1-12.6,15.8
		c-0.6,0.9-1.1,1.9-1.9,2.6c-6.3,5.6-10.1,12.7-13,20.3c-6.2,2.1-11.8,0.5-17.3-2c5.7-11,9.6-22.7,15.5-33.5
		c1.7-3.1,1.7-6.9,1.8-10.4c0.4-9.7,4.6-17.4,11.6-23.8c1.3-1.2,2.4-2.6,3.5-3.9c1.3-1.6,2.9-2.6,5-3.1
		C788.7,540.4,790.9,538.8,792.5,536.6z"/>
	<path fill="#FFFFFF" d="M727.2,469.3c-0.1,9.5-3.8,18.2-6.5,27.1c-0.3,0.9-0.7,1.8-1.1,2.6c-2.7,6.9-5.9,9.1-13.8,9.1
		c1.4-2.6,2-5.3,1.8-8.2c-1.7,3-2.8,6.3-4.9,9.5c-5-3-11-2.8-16.4-4.8c-5.5-2-11.4,0.7-17.2-0.6c-0.1-3.3-0.7-6.1-3.4-8.6
		c-0.3,3.1,1.6,5.7,0.7,8.4c-9.1,1.2-16.1-0.7-23.6-6.4c2.6-3.5,4-7.4,4.7-11.9c0.7-4.6,2.4-9.1,4-13.6c1.3-3.7,1.5-7.4,1.1-11.2
		c-0.6-4.9-0.6-9.9-1.8-15.3c4.1,3.4,7.2,7.8,13.3,5.3c1.5,2.8,3.4,5.3,4.1,8.3c1.3,5,3.6,9.5,7,13.4c2.5,2.8,3.4,6.4,5.3,9.6
		c3.7,6.2,8.5,10.7,15.8,11.9c1.2,0.2,2.3,0.6,3.2,0.9c3.7-3.5,7.2-6.9,11-10.5c-0.4,3.9-2.2,7.3-1.8,11.1c1.2-4.8,3.1-9.3,4.2-14.1
		c4.7-3.3,9.4-6.7,13-11.3c0.3-0.4,0.7-0.6,1.2-0.4L727.2,469.3z"/>
	<path fill="#FFFFFF" d="M622.7,525.8c0.7,0.2,0.2,1.1,1.2,1.5c-0.2-2.1,0.7-3.9,0.8-5.9c0.4-7.7,4.2-13.7,9.4-18.9
		c1.9-1.9,2.8-3.7,2.8-6.2c0.6,0.4,0.6,2.7,0,7.1c1.7,0.4,2.2-1.7,3.9-1.5c0.6,0.6,1.2,1.5,1.5,2.8c-3.6,0.5-7.6-0.3-11.1,3.3
		c5.3,0.5,10.1-1.1,14.8,0.5c-1.4,1.2-1.4,1.1-7.8,1.4c-2.7,0.1-5.6,0.1-8.1,1.8c7.1,1.1,14.3,0.1,21.3,0.7c0-2-1.3-1.8-1.9-2.3
		c0-0.6,0.3-0.8,0.6-1c5.7-2.5,11.6-4.3,18.2-2.3c-11.6,10.2-18.5,22.3-15.9,38.5c1.6-1,0.6-2.2,1.2-3.5c1.2,4.8,1.9,9.6,5.2,13.2
		c-1.6,3.9-2.9,7.8-3.6,11.9c-1.1,0-10.9-2.4-12.3-3.2c-3.5-2-7.1-3.8-10-6.7c-2.1-2.1-4-4-3.8-7.6c0.2-2.7-1.6-5.1-3.3-7.3
		C622,537.5,621,531.8,622.7,525.8z"/>
	<path fill="#FFFFFF" d="M768.3,634.7c2,0.3,3.7-0.2,5.6-0.2c0.2,1.1-1.4,1.2-1.2,2.5c1.6,1.4,3.6,0.1,5.4,0.1
		c1.7,0.1,3.2-2.4,5.5-0.4c-2.1,1.1-4.6,0.9-6.1,3.1c2.9,2.2,5.5-1.1,8.7-0.6c-1,1.3-2.4,1.4-2.9,2.6c1.9,2.2,4.7-1.8,6.6,0.8
		c0.3,1.3-1.6,0.9-1.6,2.2c1.4,1,4.9-4.2,4.7,1.4c4.1-0.7,11,1.5,14.3,4.5c-0.6,2.8,0.3,5.9-0.6,9.1c-8.4,1.3-16.8,3.4-25.3,3.1
		c-5.2-0.2-10.3-1.5-14.8-5c-3.5-2.7-7.9-4.3-12.7-2.9c-6.7,1.9-13.1,0.3-19.5-1.8c-0.6-0.2-1.1-0.5-1.5-1.5
		c1.3-3.4,1.5-7.5,4.5-10.6c1.5-1.6,2.1-3.7,1.4-5.9c-1.5-4.6,1.5-8.7,1.4-13.2c0-0.8,1.1-1.4,2.3-1.5c0.5,1.8,0.9,3.6,1.4,5.4
		c1.3,4.4,8,7.7,12.2,6.1c1.6-0.6,1.9-2,2.3-3.3c0.6-2.5,0.8-5.1,1.9-7.7c2.6,0.2,5.1-0.9,8-0.5c0.4,2.5,1.1,5,2,7.5
		c-2.3,1.3-5.6,1.2-5.9,5.1c3.1-0.9,5.7-2.3,8.9-2.1C771.9,632.8,769,631.9,768.3,634.7z"/>
	<path fill="#FFFFFF" d="M769.9,495.7c-2.1,2.1-4,4.2-6.2,6.1c-6.6,5.7-11.6,12.4-14.9,20.5c-0.9,2.1-1.9,4.1-3.5,5.7
		c-3,3.2-4.7,7.1-6.4,11.3c-5.2,0.5-10.4,0.2-16.2,1.2c6.7-7.8,15.1-12.9,21.9-19.6c-0.2-0.3-0.5-0.6-0.7-0.8
		c-1.9,1.5-3.8,3.2-5.8,4.5c-5.3,3.6-10.2,7.8-14.4,12.7c-2,2.3-4.2,3.6-7.4,3.1c-1-0.1-2.1,0.1-3.1,0.2c-0.6-1.1-0.6-2.1,0.5-2.9
		c3.5-2.6,5.8-6,6-10.5c0.1-1.4,0.9-2.1,1.7-3c4.8-5.2,10.6-9.5,16-14c2.5-2.1,5.5-3.9,7.6-6.4c3.7-4.4,8.6-6.2,13.8-8
		c3.5-1.2,7.2,0.4,10.7-1C769.7,495.2,769.8,495.4,769.9,495.7z"/>
	<path fill="#FFFFFF" d="M713,542.2c8.6,1.3,16.8-0.8,25.4-1.2c-2,6.1-0.7,12,0.1,17.8c-1.5,1.7-3.9,1.1-5.8,2.5
		c2.2,0.7,3.7-0.5,5.7-0.6c0.8,3.2,1.8,6.5,4.8,8.8c-13.6-1-26.4-6-40.2-6c-0.1-3.3,0.6-6.1,2.6-8.1
		C709.3,551.7,711.7,547.4,713,542.2z"/>
	<path fill="#FFFFFF" d="M663.3,447.2c-4.7,1.9-6.9-2.7-10.2-3.4c-1-2.5-1.3-4.9-3.4-7.6c-0.6-7.2,2.4-15,2.9-23.5
		c1,1.3,0.9,2.6,1.2,3.7c0.9,4.8,2.7,9.2,5.1,13.5C661.5,435,662.6,440.7,663.3,447.2z"/>
	<path fill="#FFFFFF" d="M768.4,398.1c1.4-4.5,0.4-9,0.3-13.6c0-1.5-0.6-3,0.2-4.7c1.9,0,3.9,0,5.9,0c1.1,0.8,1.3,2.7,2.9,3.2
		c-0.3,2.1-0.3,4,0.8,6.1c1.6,2.9-1.9,8.5-5.2,8.9C771.7,398.3,770,398.1,768.4,398.1z"/>
	<path fill="#FFFFFF" d="M738.5,499c-7.2,6.9-14.5,13.8-20.8,21.5c-1.9-0.9-2.3-2.8-3.9-3.8c0.8-1.6,2.3-2.2,3.5-3.1
		c3.8-2.9,7.7-5.6,10.6-9.4c1.3-1.8,3.3-1.3,4.8-2.2C734.6,501,736.2,499.5,738.5,499z"/>
	<path fill="#FFFFFF" d="M756.8,620.3c0.5,3.5-0.7,6.1-1.5,8.7c-4.4,1.3-7.1-1.4-9.5-4c-1.3-1.4-1.7-3.5,0.4-4.8
		c0.8-0.5-0.1-1.1,0.9-1.6C750.1,618.6,753.2,620.5,756.8,620.3z"/>
	<path fill="#FFFFFF" d="M719.9,524.2c-1.4-0.4-1.5-1.5-2.3-2.5c8.7-6.9,17-14.1,24-23.1c0.5-0.2,1.1,0.7,1.8,1
		c0.6,0.3,1.2,0.6,2.4,1.2C736.8,508.4,727.3,515.2,719.9,524.2z"/>
	<path fill="#FFFFFF" d="M750.6,427.6c0,4.7,0,9.3,0,14.1c-2.7,1.3-5.6,1.6-8.9,2.6c2.9-5.9,5.7-11.3,8.4-16.7
		C750.2,427.6,750.4,427.6,750.6,427.6z"/>
	<path fill="#FFFFFF" d="M741.7,561.9c4.9,0.1,9.6-0.9,14.8-2.5c-1.5,2.5-3.1,4.3-4.8,5.8C747.4,569,743.5,567.7,741.7,561.9z"/>
	<path fill="#FFFFFF" d="M693.8,378.2c-4.8-0.8-8.2-3.5-12-5.3c0.6-1.4,2-1.6,3.1-2.5C688.1,372.5,691.2,374.7,693.8,378.2z"/>
	<path fill="#FFFFFF" d="M649,643.1c-0.2-1.9,0.6-3.7-0.1-5.6c-0.5-1.4,0.8-2.3,1.7-3.2c3.7,1.6,4,2.7,2.2,7.4
		C651.6,642.5,650,642,649,643.1L649,643.1z"/>
	<path fill="#FFFFFF" d="M719.4,509.2c-1.8,2.3-4,4.3-6.4,6.3c-1.3-0.9-2.5-1.9-4.2-3.1c3.7-1.1,7.2-1.8,10.3-3.5L719.4,509.2z"/>
	<path fill="#FFFFFF" d="M653.7,505.4c-1.4,0.6-2.7,1.1-3.9,1.5c-1.6-0.7-3.1-1.3-4.7-2C646.7,503,649.8,503.2,653.7,505.4z"/>
	<path fill="#FFFFFF" d="M700.4,298.1c0.9-0.4,1.7-0.7,2.6-1c2.2,1.9,2.2,1.9,4.5,1.6c0.6,0.8-0.1,1.2-0.8,2
		c-2.1-1.9-4.2-0.7-6.3,0.7c0-1.4,1.3-1.7,1.4-2.6C701.6,298.1,701,298,700.4,298.1L700.4,298.1z"/>
	<path fill="#FFFFFF" d="M719.2,509c2-2.3,3.8-4.8,6.9-6c-1.9,2.4-3.8,4.8-6.6,6.2L719.2,509z"/>
	<path fill="#FFFFFF" d="M700.1,322.6c1.2-0.1,1.5,0.7,2.1,1.3c-0.4,1.1-0.8,2.1-1.2,3.3C699.9,325.7,698.2,324.5,700.1,322.6z"/>
	<path fill="#FFFFFF" d="M705.6,323.4c-1.3-0.8-2.6-1.7-2.6-3.5C705.7,319.9,705.8,320.1,705.6,323.4L705.6,323.4z"/>
	<path fill="#FFFFFF" d="M715.3,298.1c-0.5,1.9-1.9,2.9-3.3,3.7C712.2,299.8,713.9,299.1,715.3,298.1z"/>
	<path fill="#FFFFFF" d="M729.7,290.9c-0.6,1.5-1.8,1.9-2.9,3.1C726.8,291.5,727.7,290.8,729.7,290.9z"/>
	<path fill="#FFFFFF" d="M703.9,311c-0.2,1.1-0.4,2.2-0.7,3.8C702.3,313,702.3,311.8,703.9,311z"/>
	<path fill="#FFFFFF" d="M748.1,296.4c-0.6-0.6-0.6-1.2-0.7-1.8c0.6-0.6,1.3-0.8,2.2-0.5C749.6,295.1,749.1,295.8,748.1,296.4z"/>
	<path fill="#FFFFFF" d="M745.2,319.7c-1.2,1-2,0.7-3,0.5C743,319.6,743.7,319.1,745.2,319.7z"/>
	<path fill="#FFFFFF" d="M709.4,314.2c-0.6-1,0.2-1.4,0.9-1.8c0.7,0.3,0.6,0.9,0.2,1.3C710.3,314,710,314.4,709.4,314.2z"/>
	<path fill="#FFFFFF" d="M716,306.6c0.9,1.6-0.2,1.9-0.6,2.7C714.9,308.2,715,307.5,716,306.6z"/>
	<path fill="#FFFFFF" d="M763,373.5c-1.3-0.6-1.5-1.3-0.6-2.5C763.1,371.7,763.1,372.5,763,373.5z"/>
	<path fill="#FFFFFF" d="M733.5,300.5c-0.8-0.1-1.5-0.3-1.9-1.1c1-0.4,1.6,0.2,2.2,0.7c0.1,0,0.1,0.2,0.1,0.2
		C733.7,300.4,733.6,300.4,733.5,300.5z"/>
	<path fill="#FFFFFF" d="M714.4,291.9c-0.6,1.5-1.2,1.9-2.1,1.7C712.5,292.4,713.3,292.3,714.4,291.9z"/>
	<path fill="#FFFFFF" d="M742.2,290.8c0.1-1.3,0.2-1.9,0.8-2.4C743.3,289.5,743.3,289.5,742.2,290.8z"/>
	<path fill="#FFFFFF" d="M701.3,330.9c-0.7,0.3-1,0.2-1.1-0.1c0-0.2,0.1-0.4,0.2-0.6C700.6,330.5,700.9,330.6,701.3,330.9z"/>
	<path fill="#FFFFFF" d="M711.2,309.6c-0.1,0.7-0.4,0.8-0.7,0.9C710.2,309.9,710.6,309.8,711.2,309.6z"/>
	<path fill="#FFFFFF" d="M708.2,312c-0.3,0.8-0.8,1-1.4,1.3C706.3,311.7,707.3,312,708.2,312z"/>
	<path fill="#FFFFFF" d="M480.3,523.4c1.7,5.3,2.4,10.7,2.7,16.2c0.7,15.8-0.6,31.5-1.6,47.2c-0.7,10.7-1.8,21.4-1.4,32.3
		c-2.2,1.4-6.2-1.4-7.2,3c-2.9,0.8-5.7,0.1-8.6-0.4c0.1-6.8-0.3-13.6-1.8-20.1c-1.6-7.4-1.4-15-2.5-22.5c-0.3-2.4-1.6-4.6-3.1-6.3
		c-6.1-7-7.6-15.5-8.9-24.2c-0.8-5-0.1-9.9,1.2-14.8c1.5-5.4,3.1-10.7,2.5-16.2c0.7-1.1,1.4,0.5,2-0.4c-0.8-2.3-2-4.3-3.4-6.2
		c-2.4-3.2-3.3-6.7-3.1-10.6c0.2-5.7-0.4-11.4-3.4-16.6c1.7-0.8,3.1,0.1,4.2,0.2c1.4,1.3,0.9,2.9,1.6,4.5c1.4-1.4,0.1-3,1.2-4.4
		c10.4,0.7,20.9-1.2,31.5-1.6c0.5,1.3,0.1,2.5-0.1,3.8c-0.3,2-0.6,4.1,0,6c1.6,5,0.6,9.8-0.2,14.7c-0.6,3.7-0.5,7.5-2,11.1
		c-0.7,1.7,0.4,3.5,0.6,5.2c-0.3,0.1-0.6,0.1-0.9-0.1C479.8,523.5,480.1,523.5,480.3,523.4z"/>
	<path fill="#FFFFFF" d="M510.6,650.5c5.8,2.6,11.6,5.2,17.9,7.5c-0.9,2.6,0.7,4.8,0.6,7.2c-1,1-2.4,1-3.6,1.4
		c-2.2,0.6-4.7,0.1-6.3,2.5c-0.3,0.5-1.8,0.6-2.7,0.4c-6.4-1.4-13-0.2-19.4-1.9c-4.6-1.2-8.6-3.9-13.1-5.4c-3.3-1.1-6.4-2-10-1.7
		c-4.9,0.4-9.6-1.5-14.3-2.6c-2.6-0.6-2.8-2.4-1.7-5c2.6-6,4-12.3,5.1-18.8c0.1-0.3,0.2-0.6,0.4-1.1c2.9,2.2,5.8,3.4,9.2,1.1
		c3.9-2.7,4.8-5.5,3.7-12.1c3-0.7,6-0.5,9.2-0.8c1.6,2.8,0.3,6,1.1,9.1c-2.5,1.2-5.4,1.9-7,5c4.1-0.8,7.7-1.5,11.3-2.1
		c0.1,0,0.3,0.3,0.6,0.7c-2.2,1.1-4.9,1.5-6.7,4c3.8,1.6,7.5-2,11.5,0.1c-2,1.8-4.8,1.4-5.9,3.9c3,1.7,5.4,0.1,8-1.2
		c0.9,0.3,1.8,0.8,2.4,1.9c-1.7,1-4,1-4.8,3.4c2.9,1.8,5.7-0.7,8.8-0.4c-0.8,2-3.2,1.5-3.8,3.3c2.4,1.3,4.7,1.2,6.8-0.8
		c1.1,0.7,2.4,0.9,2.9,2.4c-0.1,0.2-0.1,0.3-0.1,0.3s-0.1,0-0.1-0.1C510.5,650.6,510.5,650.5,510.6,650.5z"/>
	<path fill="#FFFFFF" d="M488,203.5c-0.6,3.8,2,7.1,1.6,10.8c-2.3,3.5-4.9,6.3-10,4.6c0-5.8,0-11.8,0-17.9c1.9,0,3.8,0,6,0
		c0.9,0.3,0.7,2.5,2.5,2.6L488,203.5z"/>
	<path fill="#FFFFFF" d="M461.5,248.7c0,4.7,0,9.4,0,14.1c-2.7,1.3-5.6,1.7-9,2.5c2.9-5.8,5.7-11.3,8.4-16.8
		C461.1,248.6,461.3,248.6,461.5,248.7z"/>
	<path fill="#FFFFFF" d="M463.2,624.1c3.9,0.5,7,0.9,10.2,0.1c0.6,1.9,0.2,3.7,1.2,5.4c-2,1.7-3.8,3.9-6.5,2.9
		C464.6,631.2,464.7,627.5,463.2,624.1z"/>
	<path fill="#FFFFFF" d="M390.9,340.5c-1.8,0.1-0.4,2-1.9,2.3c-0.2-1.6,0-3,0.7-4.4c1.1,0.1,1.8,0.7,2.7,1.5
		c0.1,1.4,0.2,2.9,0.3,4.6C390.6,343.6,391.8,341.7,390.9,340.5z"/>
	<path fill="#FFFFFF" d="M468.1,345.2c0.1-0.5,0.3-0.8,1.1-0.9c0.3,1.3,0.6,2.7,1,4.6C468.4,347.8,469.8,345.5,468.1,345.2
		L468.1,345.2z"/>
	<path fill="#FFFFFF" d="M473,191.8c1,1.2,0.7,1.8,0.8,2.6C471.9,194,472.6,193.2,473,191.8z"/>
	<path fill="#FFFFFF" d="M387.4,338.4c-0.4-0.5-0.5-1,0.1-1.4C388.6,337.5,388.5,338,387.4,338.4z"/>
	<path fill="#FFFFFF" d="M467.9,347.7c-0.4-0.4-0.9-0.7-0.9-1.4c0.2-0.6,0.7-0.8,1.2-1.1l-0.1-0.1
		C468,345.9,467.9,346.8,467.9,347.7L467.9,347.7z"/>
	<path fill="#FFFFFF" d="M417.3,255.5c2.2,0.1,4-0.6,6.2-0.9c-1.9-1.7-4.1-1.6-6.2-2.6c-0.3-3.2-1.4-6.3-4.1-8.6
		c-1.1-1-0.6-2.5-0.5-3.7c0.7-10.4-1.4-20.5-4.2-30.5c-0.8-2.9-2.2-5.4-4.9-7.9c5.7,1,7.7,5,9.9,8.6c1.9,3.3,3.7,6.6,6.5,9.2
		c6.3,5.8,13.2,10,22.5,8c1.7,1.3,2.2,3.4,3.1,5.4c-4.9,4.8-9.1,10.2-13.5,15.4c-3.9,4.6-8,9-14.4,10.1
		C417.2,257.5,417.3,256.7,417.3,255.5z"/>
	<path fill="#FFFFFF" d="M392.2,193.8c1.3-0.9,2.2-1.5,3.3-2.2c3.7,1.9,6.5,4.8,9.9,8.2C400.3,198.6,396.6,196.2,392.2,193.8z"/>
	<path fill="#FFFFFF" d="M411.8,116.8c1.5,0.4,3.5-1,4.7,1.3c0.4,0.9,1.7-0.7,2.5,0.1c0.3,0.7-0.1,1.1-0.8,1.8c-1.9-1.4-4-1.2-6,0.8
		c-0.3-1.4,1-1.8,1-2C413.3,117.1,412.1,117.4,411.8,116.8L411.8,116.8z"/>
	<path fill="#FFFFFF" d="M411.9,141.9c0.9,0.1,1.3,0.9,1.9,1.5c0.3,1.2-1.8,1.4-1.1,2.8C410.4,143.9,410.4,143.9,411.9,141.9z"/>
	<path fill="#FFFFFF" d="M417.6,142.9c-2-0.8-2.8-2-3.4-4.1C417.2,139,417.2,140.9,417.6,142.9z"/>
	<path fill="#FFFFFF" d="M426.6,117.5c-0.3,1.9-1.8,2.8-3.4,4.3C423.3,119.1,425.5,118.7,426.6,117.5z"/>
	<path fill="#FFFFFF" d="M461.3,113.3c-0.3,1.2-0.8,2-1.6,2.6c-1-0.6-0.5-1.4-0.8-1.9C459.6,113,460.4,113.4,461.3,113.3z"/>
	<path fill="#FFFFFF" d="M441.1,110.5c-0.7,1.3-1.6,1.8-2.4,2.4C438.7,110.9,438.7,110.9,441.1,110.5z"/>
	<path fill="#FFFFFF" d="M415.1,129.5c0.5,2.1-0.6,3-0.6,4.2C414.1,132.5,413.7,131.3,415.1,129.5z"/>
	<path fill="#FFFFFF" d="M442.9,118.7c1.1,0,2.2,0.2,3.1,1.1C444.5,120.6,443.9,119.1,442.9,118.7z"/>
	<path fill="#FFFFFF" d="M425.8,111.4c-0.4,1.4-1,1.9-2,1.7c-0.2-0.1-0.3-0.2-0.3-0.2C423.9,112,424.7,111.5,425.8,111.4z"/>
	<path fill="#FFFFFF" d="M422.3,131.4c0.2,1.7-0.6,2.1-1.5,2.5C420.1,132.5,421.1,132.2,422.3,131.4z"/>
	<path fill="#FFFFFF" d="M454.6,107.3c1.1,1.7,0.1,2.1-0.8,2.7C453.5,108.9,453.9,108.3,454.6,107.3z"/>
	<path fill="#FFFFFF" d="M426.6,128.7c-0.3-1-0.2-1.9,0.7-2.5C429,127.6,427,127.9,426.6,128.7z"/>
	<path fill="#FFFFFF" d="M456.3,139c-1,1.2-1.6,0.2-2.3,0.2C454.6,138.9,455.3,138.6,456.3,139z"/>
	<path fill="#FFFFFF" d="M417.5,133c0.5-1.3,0.7-2.2,2-1.6C419.4,132.6,418.5,132.4,417.5,133z"/>
	<path fill="#FFFFFF" d="M442.3,115.9c0.1,0.9-0.3,1-0.7,1.2C440.9,116.3,441.5,116.2,442.3,115.9z"/>
	<path fill="#FFFFFF" d="M372.8,644.5c1.5-2.6,3.8-1.5,5.9-1.2C377,644.7,375,644.9,372.8,644.5z"/>
	<path fill="#FFFFFF" d="M377.9,433.8c0.1-4.8-1.3-9.4-1.8-14.1c-0.1-1.3-0.3-2.7-2.3-2.8c1.8-15.1,0.5-30.2,4.7-45.1
		c2.9,8.1,3.5,15.9,2.3,24c-1,7.4-0.5,14.9-0.4,22.4c0,4.3-0.7,8.5-1.2,12.7C379,432.1,378.4,432.8,377.9,433.8L377.9,433.8z"/>
	<path fill="#FFFFFF" d="M376.3,447.8c-1.4,2.6-1.4,5.5-2.3,8.2c-0.4,1.3-0.4,2.8-1.4,3.9c-0.8-4.9-0.7-10-3.3-15.3
		c1.6-8,1.1-17.1,4.5-26.2c1.9,5.4,1.4,10.9,4,15.5l-0.1-0.1C376.1,438.3,376.3,443,376.3,447.8z"/>
	<path fill="#FFFFFF" d="M383.9,351.4c2.7,8.8-0.1,17.6-1.6,26.5C378.8,368.7,376.6,359.6,383.9,351.4z"/>
	<path fill="#FFFFFF" d="M448.8,190.7c1,0,1.5,0.1,1.7,0.8C449.6,192.7,449.2,192.1,448.8,190.7z"/>
	<path fill="#FFFFFF" d="M731.2,375.2c0.9-2.5,2.7-4.7,2.9-7.6c1.5,0.8,1.8,2,2.5,3.1c-1.8,1.6-3.5,3.2-5.2,4.7
		C731.4,375.3,731.3,375.2,731.2,375.2z"/>
	<path fill="#FFFFFF" d="M738.4,369.5c0.6,0.1,1.2,0.1,1.3,0.9c-0.3,0.8-0.8,0.7-1.3,0.3C738.1,370.4,737.9,369.9,738.4,369.5z"/>
	<path fill="#FFFFFF" d="M748.1,377.2c0.3,1.1-0.2,1.9-1.4,2.7C746.8,378.6,747.5,377.9,748.1,377.2L748.1,377.2z"/>
	<path fill="#FFFFFF" d="M404.1,472.3c-0.9,0.8-1.6-0.3-2.3,0.3c-0.9,0.4,0.5,1.3-0.5,1.8c-1.1,0-1.9-0.6-2.2-1.8
		c-0.3-1.4,0.1-2.7,1.6-3C402.9,469.1,403.7,470.3,404.1,472.3z"/>
	<path fill="#FFFFFF" d="M392.5,468.6c1.5,0.4,2.6,1.1,2.5,2.6s-0.9,2.5-2.4,2.5c-1.6,0-2.6-1.1-2.5-2.7
		C390.2,469.5,391.4,468.9,392.5,468.6z"/>
	<path fill="#FFFFFF" d="M386.4,469.1c-2.3,1.7-2.3,1.7-3.3-0.5C384.2,467.6,385.2,468.1,386.4,469.1z"/>
	<path d="M794.7,538c2.1,0.5,2.1,1.7,2.3,2.9c0.7,3.8,0.6,7.7,1.2,11.6c0.5,3-1.1,5.6-4,7.4C798.9,552.8,795.5,545.5,794.7,538z"/>
	<path d="M801.9,527.4c0.2-1.5,1.3-1.5,2.1-1.8c1.6-0.6,3-1.4,4.5-2.1c3.6-1.8,7-3.7,6.1-8.8c2.4,2.3,1.5,4.7,0.1,6.1
		c-3.2,3.2-6.8,5.9-11.3,7C802.9,528,802.5,527.9,801.9,527.4z"/>
	<path d="M792,562.6c-0.1,3.2-2.2,4.5-4.7,5.6C788.2,565.8,790.3,564.4,792,562.6z"/>
	<path d="M786.7,521.4c2.9,0.8,5.9,1.4,8.3,3.5C791.7,525,789.2,523.2,786.7,521.4z"/>
	<path d="M819.3,518.5c2.5,1.2,2.9,2.2,1.9,5.4C821.1,522,818.5,520.9,819.3,518.5z"/>
	<path d="M758.9,612.9c-0.4,1.2,0,3-2.2,3.2C757.2,614.1,757.2,614.1,758.9,612.9z"/>
	<path d="M817.4,536.8c-1.3,0.5-2.4,0.4-3.2-1C815.8,534.7,816.6,535.6,817.4,536.8z"/>
	<path d="M760.8,609.4c0-2.2,0.7-2.8,1.9-3.3C763.1,607.7,761.9,608.1,760.8,609.4z"/>
	<path d="M809.6,534c1.4,1.2,1.3,2.2,0.7,3.4C809.1,536.5,808.6,535.6,809.6,534z"/>
	<path d="M764.7,604.2c-0.1-1.5,0.4-2.2,1.6-2.8C766.5,602.7,765.8,603.3,764.7,604.2z"/>
	<path d="M784.7,571.7c0-1.2,0.8-1.3,2-1.9C786.2,571.3,785.8,571.8,784.7,571.7z"/>
	<path d="M813.7,512.3c-1.4,0.3-2,0.1-2.3-0.7C812.4,510.7,812.8,511.5,813.7,512.3z"/>
	<path d="M779.5,575.2c0.3-1,0.7-1.5,1.6-1.5C781.3,574.8,780.6,575,779.5,575.2z"/>
	<path d="M663.5,491.5c1.1,0.6,1.7,1.3,1.3,2.6C663.5,493.6,663.2,492.8,663.5,491.5z"/>
	<path d="M660.7,481.9c-0.7-0.8-1.3-1.6-0.5-3C661,480,661.3,480.8,660.7,481.9z"/>
	<path d="M661.5,485.6c0.8,1,1,1.6,0.6,2.5C661.3,487.5,660.9,486.9,661.5,485.6z"/>
	<path d="M632,532.6c-0.8-0.5-1.5,0.5-2.5-0.4c-0.9-2.4-2.9-4.8-4.4-7.4c1-1.7,2.7-2,4.1-3c0.4,1.6-1.3,2-1.6,3.2
		c1.7,4.3,5.9,6.8,9.3,9.4c2.7,2,6.9,1.9,10.3,3.2c1,0.4,2,0.5,3,1.6c-2.2,0.1-3.9-0.5-5.5-1.1c-1.9-0.7-3.7-1.2-5.9-0.9
		C635.6,537.4,633.8,534.8,632,532.6z"/>
	<path d="M770.9,649.4c-5.8,0.5-7.7-0.3-7.8-3.5c-0.1-2.5,1.7-4.2,4.2-4.1C770.6,641.9,771.5,643.7,770.9,649.4z"/>
	<path d="M762.9,645.2c-1.8,3.5-3.1,4.4-5.6,3.7c-2.1-0.6-3.2-2-3.1-4.1c0.1-2,1.4-3.2,3.3-3.6C759.9,640.6,761.4,641.7,762.9,645.2
		z"/>
	<path d="M752.8,648.2c-1.2,0.1-1.5-0.5-1.9-1.1s-0.7-1.2-1.5-1.2c-1.4,0.1-0.4,2.2-2.3,2c-0.6-2.4-0.2-4.9,0.2-7.1
		c1.5-0.7,2.7-0.3,3.8-0.1c2.4,0.4,3.1,1.8,2,4C752.6,645.8,752.5,646.7,752.8,648.2z"/>
	<path d="M723,528.2c9.2-10.3,19.7-18.8,29.7-28.1C751.9,504.2,730.4,524.7,723,528.2z"/>
	<path d="M707.8,558.8c4.2-1.4,8.3-2.8,13.1-4.3C717.2,557.4,711.1,559.6,707.8,558.8z"/>
	<path d="M715,561.4c0.5-0.5,1.1-0.4,1.8-0.1C716.2,561.8,715.7,561.9,715,561.4z"/>
	<path d="M473.1,506.4c1.8,1.6,2,3.7,0.4,6.4c-0.9-4.1-1.8-7.9-2.8-12c2.1-2.7,4.4-5.8,6.4-9c1.3,0.2,1.3,0.9,1.1,1.6
		c-0.4,1.1-0.8,2.3-1.5,3.2C474.7,499.3,472.8,502.1,473.1,506.4z"/>
	<path d="M465.8,546.6c-2.2-4.3-2.2-8.9-2.3-13.5C465.8,537.3,466.3,541.9,465.8,546.6z"/>
	<path d="M462.7,497.1c2.3,1.5,5.9,1.2,7.2,5.1C466,502.2,464.6,499.2,462.7,497.1z"/>
	<path d="M469.1,604.9c1.9-3.8,0.3-7.8,1.2-11.7c0.3,0,0.6,0,0.8,0c-0.2,3.9-0.5,7.8-0.7,11.8C470,605,469.6,604.9,469.1,604.9z"/>
	<path d="M466.4,556.1c-1.2-3.3-1.2-3.3,0-5.5C468.2,552.3,467.4,553.9,466.4,556.1z"/>
	<path d="M480.3,523.4c-0.1,0.4-0.2,0.9-0.4,1.7c-1.6-1.7-2.3-3.4-2.7-5.8c1.9,1.1,2,3.1,3.1,4.2V523.4z"/>
	<path d="M469.9,617.1c1.2,1.4,1.3,2.8,0.1,4.5C468.3,620,469.9,618.5,469.9,617.1z"/>
	<path d="M470.6,608.6c0.5,1.4,0.7,2.5-0.7,3.5C469.3,610.7,469.7,609.7,470.6,608.6z"/>
	<path d="M459.6,526.5c-0.9-0.7-1.4-1.7-1.6-3.1C459.4,524.2,459.7,525.3,459.6,526.5z"/>
	<path d="M466.6,558.6c-0.1,1.7-0.5,2.5-1.1,3.6C464.5,560.6,465.1,559.8,466.6,558.6z"/>
	<path d="M461.6,489.9c-1-0.3-1.2-0.7-1-1.6C461.5,488.3,461.8,488.8,461.6,489.9z"/>
	<path d="M461.7,494.1c-1-0.3-0.9-0.9-0.5-1.8C461.8,492.9,462.5,493.2,461.7,494.1z"/>
	<path d="M476.4,616.7c0.6,0,0.8,0.4,0.7,0.9c-0.1,0.3-0.5,0.4-0.8,0.2C475.8,617.4,476.1,617.1,476.4,616.7z"/>
	<path d="M510.6,650.5c0.3,0.4,0.9,0.8,0.7,1.6c-1.7,1.2-3.4,1.1-5.6,0.2c1.5-1.9,3.3-1.7,5-1.8H510.6z"/>
	<path fill="#FFFFFF" d="M769.8,646.1c-0.9,0.8-3.8-1-2.2,2.1c-2.2-0.2-2.8-1.2-2.7-2.9c0.1-1.3,1-2,2.1-2.1
		C768.6,643.2,769.6,644.1,769.8,646.1z"/>
	<path fill="#FFFFFF" d="M760.8,645c-0.2,1.7-1.1,2.6-2.5,2.6c-1.6-0.1-2.6-1.2-2.4-2.8c0.1-1.5,1.2-2.3,2.7-2.2
		C760,642.7,760.9,643.7,760.8,645z"/>
	<path fill="#FFFFFF" d="M752.3,643.2c-1.9,1.4-3,1.4-3.7-0.8C750.1,641.6,751.1,641.9,752.3,643.2z"/>
</g>
</svg>
