<?xml version="1.0" encoding="utf-8"?>
<!-- Generator: Adobe Illustrator 19.1.0, SVG Export Plug-In . SVG Version: 6.00 Build 0)  -->
<svg version="1.2" baseProfile="tiny" id="Layer_2" xmlns="http://www.w3.org/2000/svg" xmlns:xlink="http://www.w3.org/1999/xlink"
	 x="0px" y="0px" width="900px" height="600px" viewBox="144 97 900 600" xml:space="preserve">
<g>
	<path d="M704.4,123.3c0.1-2.4,1-4.3,2.5-6.5c-0.2-0.8-1.9-1.2-2-2.9c2.8-1.6,4.1,1,5.9,2.1c3.8-0.2,6.9-2,9.3-4.9
		c1.8,0.4,0.7,1.7,1,2.5c2.2,0.6,2.2-1.9,3.5-2.8c4,0,8.1-0.6,11.9,0.2c4.1,0.9,7.4-2.5,11.3-1.2c0.8,0.6-0.1,1.1-0.2,1.9
		c1.9-0.9,3.2-2.3,4.6-4c1.8,2.2,0.8,4.4,0.8,6.8c1.9-0.8,3.5-2.6,5.8-1.2c-0.2,2.3-2.8,2-3.6,3.5c1.7,0.4,3.3-0.6,5,0.2
		c0.3,1.2-0.8,2.5,0.1,3.6c-2.4,2.4-5.9,3.2-7.8,6.2c0.9,4.1,0.6,8.5,2.1,12.8c1,2.9-1.2,5.9-1.8,8.8c-2.3,0.7-4.3,1.7-6.4,0.8
		c-0.8,1.2-0.5,2.5-0.9,4.1c-2.3-6.7,0.2-8.2,7.8-11.2c-1-4.7-2.8-9.4-2.4-14.8c-5.2,2.4-9.9,0.6-14.6,0.2c-1.8-0.1-3.3,1.1-5,0.6
		c-0.4,0.8,0.7,1.8-0.8,2.3c-0.6-3-3.3-3.5-5.3-4.7c-0.9,0.2-1.3,0.7-1.4,1.4c0.8,1.2,2.2,0.6,3.3,1.1c0.6,1.1,1.1,2.2,1.3,2.6
		c0.8,2.7-3.2,1-1.9,4c-2.7-1.3-3.9-0.1-4.6,2.1c-0.7,2.2-1.9,4.3-3.5,6c-0.9,0.9-1.2,2.1-1.6,3.2c-0.8,2.5-1.7,5.1-2.7,7.5
		c-0.4,0.9-0.6,2.2-2.2,2.4c0-2.9-1.4-5.4-1.9-8.2c-0.2-1.2-1.1-2.2-2.7-1.5c-0.1,2.2,1.6,3.1,2.9,4.3c-0.2,1.9-0.5,3.7-0.7,5.4
		c-0.7,1.2-1.9,0.3-2.7,0.9c0.4,1.7,1.3,2.7,3.8,2.3c-2.3,2.9-1.8,5.8-1.5,8.5c0.3,3,0.1,6-0.5,8.9c-0.3,1.4-0.5,2.8-0.4,4.3
		c0.1,5-2,7.4-6.9,8.5c-1.1,0.2-2.1,0.6-3.2,1.4c0.2,4,2,7.6,3.4,11.3c1.4,3.6,2.6,7.3,4,11.3c6.7-0.4,13.4-0.5,19.9,1.9
		c-2.2-2.2-5.4-2.4-7.7-4.3c3.6,0.9,7.4,1.4,10.3,3.9c1.3,1,2.5,0.5,3.8,0.6c1,0,1.7-1.1,2.8-0.5c-0.3,1.9-0.3,1.9-3.6,3.5
		c5.6,4.9,9.5,10.8,9.6,18.7c1.7,0.1,2.7-0.6,3.4-2c1.1-2,1.7-4.1,1.9-6.3c1-8.9,1.3-17.7-1.8-26.3c-0.4-1-0.2-2.2-0.3-3.3
		c-0.6-0.7-1.3-1.4-2.3-1.8c0,1.6,0,3.2,0,4.8c-0.1,1.5,0,3.2-2.3,3.8c-1.2-5.8-1.4-11.5,0.2-17.3c-2.8-1.2-6.1,0.5-8.1-2.1
		c0.6-1.2,1.4-0.7,2.1-0.7c2.8,0.2,5.5,0.2,8.3,0c2.4-0.2,3.9-1.5,4.6-3.7c1.9-5.8,4.2-11.4,4.2-17.7c0-4.8,2.4-9.4,1.9-14.4
		c1.4,3.2,2.7,6.6,1.3,9.8c-1.2,3.1-1.7,6.2-1.9,9.4c-0.2,3.3-1.2,6.2-2.7,9.1c-0.8,1.7-1.3,3.5-1.8,5.4c-0.4,1.4-1.1,2.7-2.5,2.9
		c-4.1,0.6-4,3.5-4.2,6.7c2.2,0.2,3.3,1.9,4.6,3.3c3.4,3.4,7,6.6,12,7.2c0.9,0.1,1.3,0.8,1.9,1.2c2.5,1.4,4.8,2.8,7.9,3
		c2.8,0.2,5.8,1.8,7.9,4c4.7,4.6,9.3,9.2,11.6,15.7c0.8,2.4,1.5,4.6,1.1,7.1c-0.2,1.5-0.2,3-0.3,5c5.9-3,11.5-5.5,17.5-7.3
		c7.7-2.4,15.5-4.6,23.6-5.7c2.7-0.3,5.3-0.3,8,0.1c5,0.8,7.7,6.8,4.9,11.1c-2.1,3.1-5.3,5.1-8.5,6.7c-3,1.5-6,2.7-9.3,4.2
		c1.8,1.4,3.5,2.7,3.3,5c2.2,1.6,5.7,2.3,3.9,6.1c3.5,3.1,3.5,3.1,1.8,7.2c4.4,4.4,0.4,7.2-2.6,10.3c5.2-0.4,9.9-0.9,14.6-2
		c2.8-0.7,5.8-0.5,8.6-0.1c2.7,0.4,4.4,2.7,5,5.4c1,4.4-0.8,7.1-4.5,9.2c-9.3,5.2-19.4,8.2-29.7,10.7c-6.1,1.4-12.2,2.6-18.4,2.6
		c-1.4,0-2.9,0.1-4.3-0.4c-5.8,5.2-12.4,7.8-20.2,7.4c-1.5-0.1-3.2,0.1-4.6,0.6c-3.2,1.1-5.4-0.4-7.5-2.4c-1.8-1.7-3.5-3.7-5.8-6
		c-0.9,15-4.1,29.3-0.8,44.2c1.8,0.6,2.6,2.2,2.2,4.5c-0.5,3.2,0.8,5.9,2.2,8.8c3.3,7.1,7.7,13.7,8.6,21.9c1.1,10.6,2.5,21.2,4,31.7
		c0.6,4.6,1.1,9.2,2.8,13.6c1.3,3.3,0.7,7,1.1,10.5c0.8,7.1,1,14.2,1.8,21.2c1.1,9.8-0.2,19.5-0.4,29.3c-3.1,1.2-6.2-0.2-9.6,0.8
		c-0.4,4.4-3.6,8.4-3.1,13.4c0.3,2.5,0,5.1,0.1,7.7c0.1,1.9-0.3,3.5-1.8,4.5c-0.5,3.3,1.6,5.8,2,8.8c1.2,8.8,2.2,17.6,2.8,26.5
		c0.3,4.5-0.5,9.1-1.5,13.5c-1,4.6-1.4,9.2-1.6,13.9c-0.6,11.3-1.1,22.6-2.4,33.9c-0.5,4.1,1,8.1,0.6,12c1.8,0.8,3.6-0.1,4.9,1.4
		c0,7,3.1,12.6,8.2,17.4c2.7,2.6,5.1,5.5,7.4,8.5c2.1,2.7,4.3,5.4,6.9,7.7c2.7,2.3,3.9,5.4,4.3,8.7c0.3,2.9-2.2,2.8-4.3,3.3
		c-1.3,3.4-4.5,4.3-7.8,5.1c-6.4,1.6-12.8,1-19.2,0.2c-4.2-0.6-6.9-2.8-7.3-7.3c-1.4-0.8-2.8-1.5-4.4-1.4c-3.8,0.4-7.2-1-10.7-2
		c-3.9-1.2-5.7-4.9-8.2-7.7c-0.8-0.9-0.5-2.2,0.2-3.1c1.4-1.8,2.2-3.6,1.3-5.8c-0.4-1.1,0.4-2.1,0.8-3.1c1.8-4.2,3.9-8.1,2.8-13
		c-0.6-2.5,1.8-4.3,3.5-5.8c0.4-1-0.4-1.9,0.1-2.8c0.9-1.4,2.6-1.4,3.9-2.1c0.4-3.4-0.2-6.7,0.8-10.5c1.7,3.5,0.5,6.9,1.4,10.2
		c3.3-1,6.8-0.9,10.2-2.4c0.3,0.5,0.7,1.4,2.1,0.7c-1.1-9.3,1.2-18.6,1.6-28c0.6-14.1,1.6-28.2,3.7-42.1c0.3-2.3-0.3-4.4-0.6-6.6
		c-0.8-7.6-1.6-15.2-3.5-23.2c-1.2,2.7-1.5,5.1-2.3,7.8c-0.6-5.5-0.1-7.8,1.8-9.9c0.4-1.2-0.7-1.7-1.3-2.6c0.8-0.9,0.7-2,1.2-3
		c2-3.8,2.3-7.8,2.1-11.9c-0.1-2.4,0.2-4.7,1-6.9c0.6-1.7,0.2-3-0.9-4.5c-11.4,2.3-22.4-0.1-33.4-2c0-0.2,0-0.5,0-0.7
		c-0.7,0.6-1.5,1.1-2.2,1.7c0.1,3.7,0.7,7.1,2.2,10.6c1.8,4.1,2.1,8.8,2.9,13.3c1.2,7.1-0.2,13.9-1.3,20.8
		c-1.5,9.7-1.4,19.3,0.8,28.8c1.5,6.6,3.3,13.1,4.7,19.7c2.3,11,4.9,21.9,5.7,33.1c0.2,3,0.4,5.9-1.6,8.5c-1.2-0.3-1.2-1.2-1.2-1.9
		c0.5-11-2.3-21.6-4.3-32.3c-1.3-7.1-2.8-14.2-3.8-21.3c-0.4-2.6-1.3-5.2-2.1-7.7c-2.3-7.9-2.3-15.8-0.7-23.7
		c1.7-8.5,2.8-17.1,0.7-25.4c-1.4-5.7-3-11.3-4.1-17.1c-0.4-2.3-0.2-4.6-0.5-6.8c-0.7-0.7-1.4-0.6-2-0.7c-4.5-0.5-4.5-0.5-5-4.9
		c-0.5-4.2,0.6-8.4-0.3-12.6c-0.1-0.4,0-0.9-0.6-1.3c-1.6,2.5-1.8,5.4-2.3,8.2c-0.4,2.8-0.2,5.7-2.9,8c-1.4,1.2-2.4,2.5-4.4,2.2
		c-1.7-0.3-2.4,1.3-3.8,1.7c-1.3,4.7-2.8,9.3-5.4,13.5c-1.2,2-1.3,4.4-1.5,6.7c-0.6,8.5-3.8,15.9-10.8,21.2c-0.1,0-0.2,0-0.7,0
		c1-2.4,2.7-4.1,4.4-5.7c2.4-2.2,3.7-4.8,4-8.1c0.2-1.9,0.8-3.7,1.1-5.6c1-7.8,4.1-15,5.9-22.6c-0.7-0.7-1.6-0.4-2.4-0.3
		c-10.4,2.2-21,1.8-31.5,2.1c-2.1,0.1-3.8,0.5-5.4,2c0.4,2.9,0.5,5.8,1.6,8.6c0.4,1.1,0.4,2.4,0.4,3.6c0.6,9.3-1.6,18-5.2,26.5
		c-1.4,3.2-1.9,6.6-2.2,10.2c-0.3,4.1-1.1,8.3-1.5,12.5c-0.4,4.9-0.1,9.7,1.1,14.5c1.2,4.5,1.1,9.2,1.7,13.9
		c0.9,6.8,1.1,13.8,2.5,20.5c2,9.7,2.5,19.5,3,29.3c0,0.2,0.1,0.4,0.3,0.8c0.5,0,1,0.1,1.5,0c0.9-0.1,1.7-0.4,2.6-0.6
		c1.4-2.5,0.4-5.3,1.2-8.2c1.3,2.5,0.8,4.8,0.8,7.5c3.1-0.4,6.3-0.7,9.3-1.5c0.7-1.6-0.1-3-0.4-4.3c-1.3-6.7,0.1-13.3,0.4-19.9
		c0.2-3.8,0.4-7.5-0.1-11.2c-0.7-6-0.9-12.2,0.8-18.4c1.4,0.9,0.9,2.2,0.9,3.2c-0.2,4.7-0.5,9.3-0.5,14c0,2.7,0.4,5.5,0.7,8.7
		c1.6-6.6,3.5-12.6,5.5-18.5c1.4-4.2,1.9-8.7,3-12.9c2.3-8.5,1.3-17.2,1.3-25.8c0-4.3-0.2-8.6-0.6-13c-0.1-1.3-0.5-2.9,1.5-3.9
		c0.1,2.2,0.3,4.1,0.4,6.1c0.6,12,2.6,24,0,35.8c-1.9,8.6-3.3,17.4-6.8,25.7c-1.9,4.4-2.1,9-2.9,13.6c-0.7,4.2-1.1,8.4-1.8,12.5
		c-0.5,2.8,0.3,5.5,0.5,8.2c4.1-0.4,6.4,1.7,6.1,5.6c-0.2,2.9,0.1,5.9-1.4,8.7c-0.9,1.6-0.7,3.2,1.2,4.2c0.8,0.4,1.2,1.2,1.3,2.2
		c-0.7,0.6-1-0.9-1.8-0.1c2.3,4.5,4.4,9.2,6.4,14c0.9,2.3,2.1,4.4,2.5,6.9c0.1,0.9,0.7,1.5,1.5,2.2c2.1,1.9,2.8,4.7,3.5,7.4
		c0.3,1.1,0.2,2.5,1.5,3c-0.8,1.5-1.8,2.3-3,2.5c-8.3,1.6-16.6,2.9-25.1,1.3c-2.3-0.4-4.5-1.3-6.6-2.2c-2.2-1-4.1-2.4-4-5.4
		c0-1.6-1.5-2.7-2.7-3.6c-4.6-3.3-4.7-9.1-2.1-13c1.5-2.3,2.5-4.4,1.2-7.4c-0.9-2,0.2-4.3,0.9-6.4c0.5-1.5,0.9-2.9,0.3-4.5
		c-0.5-1.5,0-3.2,0.7-4.5c1.3-2.2,1.1-4.4,0.3-6.6c-0.7-1.8-0.3-3.7-0.4-5.6c-0.7-12.5-2.4-24.9-4.4-37.3
		c-1.6-9.7-2.7-19.6-3.8-29.4c-1.2-11,0.7-21.6,4.1-32c1.3-3.9,2.7-7.7,4.5-11.4c2-4.1,1.3-8.8,0-13c-1.5-4.8-1.4-9.7-2-14.8
		c-2-0.3-4-0.8-5.8,0.7c-1.9-1.2-0.9-2.8-0.9-4c0-3.1-0.4-6.4,1.9-9.1c0.4-0.5,0.3-1.8,0.1-2.6c-2.8-10.5-1.4-21-0.3-31.5
		c0.4-3.7,0.4-3.7-1.1-5.4c2.2-7.9,1.6-16,1.7-24.1c0.1-7.6,0.1-15.1,1.6-22.6c0.4-1.7,0.5-3.5,2.1-4.7c0.7-0.5,0.5-1.4,0.6-2.2
		c0.3-3.6,1-7,1.9-10.5c0.6-2.4,1.3-4.7,3.1-6.5c4.2-4.2,3.1-9.3,2.6-14.3c-0.3-2.7-0.5-5.3,1.9-7c-1.8-6.8-1.3-13.6-1.5-20.3
		c-0.1-3.7,0.1-7.3-0.1-11c-0.1-1.9,0.8-3.6,0.7-6.1c-2.1,2-4.4,2.9-6.2,4.6c-2.3,2.1-5.6,2.7-8.7,2.8c-3.5,0.1-6.7,1.1-10,2
		c-5.1,1.3-10.9-1.9-12.6-6.9c-1-2.8-1.9-5.7-1.7-8.8c0.2-3.2-1.7-5.9-2.4-8.9c-0.6-2.7-0.4-5.1,0.8-7.4c0.6-1.2,0.8-2.6,1.5-3.7
		c1.8-2.8,1.8-5.8,1.5-8.9c-0.6-6.2,1.1-11.9,4.3-17.1c2.2-3.6,2.5-7.3,1.9-11.5c-0.9-5.7-0.2-11.3,2.4-16.6c1-2.1,1.2-4.6,2.3-6.6
		c3.5-6,7.8-11.2,14-14.7c7.5-4.2,15.5-7.5,22.8-12.1c4.3-2.7,9.4-3.7,14-6c4.1-2.1,6-5,6.9-9c0.7-2.9,1-5.7-0.8-8.6
		c-1.5-2.4-0.6-5.6-1.8-8.4c-0.6-1.4-0.8-3-1.6-4.3c-0.4-0.7-0.9-1.6-0.7-2.2c1.2-3-0.4-5.3-1.4-7.8c-1.4-3.9-1.4-7.8,0.5-11.7
		c0.2-0.4,0.5-0.8,0.5-1.2c0.1-3.1,1.5-5.9,2.9-8.5c0.6-1.1,0.1-1.8,0-2.6C703.7,122.8,704.1,122.8,704.4,123.3
		c0.8-0.3,1.6-0.3,2.4,0C706,122.9,705.2,123,704.4,123.3z"/>
	<path d="M409.7,123.3c0.1-2.3,0.7-4.5,2.7-6.1c-0.3-1.3-2.3-1.7-2.1-3.4c2.7-1.3,4,1,5.8,2.2c3.8-0.2,7-1.8,9.2-4.9
		c1.9,0.4,1,1.6,1.1,2.5c2.2,0.7,2.2-1.7,4.1-2.8c3.4,0,7.6-0.6,11.5,0.2c4,0.8,7.3-2.6,10.9-1.3c0.9,0.8-0.4,1.3,0.1,1.9
		c2-0.7,3-2.6,4.7-3.8c1.7,2.1,0.4,4.4,0.7,6.7c1.8-0.9,3.3-2.5,5.5-1.3c0.2,2.5-2.5,2.1-3.6,3.7c1.7,0.3,3.3-0.4,5.1,0.1
		c0,1.3-0.4,2.7,0,3.9c-2.4,2.3-5.7,3-7.7,6.1c0.9,3.9,0.2,8.5,2.2,12.6c0.8,1.6-0.3,3.3-0.7,4.8c-0.4,1.4-0.4,2.9-1.3,4.3
		c-1.9,0.5-3.9,1.7-6.1,0.7c-0.9,1.2-0.6,2.4-0.8,4.1c-2.3-6.5-0.5-7.7,7.7-11.2c-0.5-4.7-3.2-9.2-2.2-14.7
		c-5.4,2.5-10.2,0.5-15,0.2c-1.7-0.1-3.1,1.2-4.8,0.6c-0.4,0.8,0.6,1.7-0.8,2.3c-0.8-2.8-3.2-3.7-5.5-4.7c-0.7,0.1-1.2,0.5-1.3,1.3
		c0.8,1.3,2.2,0.7,3.3,1.1c0.6,1.2,1.1,2.3,1.5,3c0.2,2.2-3.1,0.8-2.1,3.5c-2.8-1.2-3.9,0.3-4.7,2.5c-0.7,2.1-1.8,4.1-3.4,5.7
		c-1.1,1.1-1.3,2.5-1.8,3.9c-1.1,3.3-1.8,6.7-4.4,9.4c-0.2-2.8-1.6-5.2-2.1-7.9c-0.2-1.4-1-2.5-2.9-1.9c-0.1,2.2,1.5,3.1,2.9,4.4
		c-0.2,1.8-0.4,3.6-0.7,5.4c-0.6,1.2-1.8,0.4-2.7,0.8c0.2,2,1.6,2.6,3.9,2.5c-2.3,2.2-2,4.6-1.7,6.8c0.5,4,0.2,8-0.6,11.9
		c-0.2,0.9-0.2,1.8-0.2,2.6c0,5.3-1.8,7.5-7,8.7c-1,0.2-2.2,0.5-3,1.4c0,2.4,0.8,4.8,1.7,7c3.2,7.6,5.2,15.6,7.9,23.3
		c1.4,3.9,3.1,7.9,5.6,11.4c3.9,5.4,9.9,7.1,15.9,8.9c0.4-2.7,0.8-5.2,1.2-8.1c1.2,3,1.2,5.6,0.5,8.3c6.9,0.6,13.4-4,14.6-10.5
		c1.8-9.6,1.9-19.2-1.3-28.6c-0.3-1-0.3-2.2-0.4-3.5c-0.3-0.2-0.6-0.6-1.1-1c-0.4-0.3-0.8-0.8-1.4-0.7c0.4,6.9,0.4,7-2.2,8.5
		c-1.1-5.8-1.4-11.6,0.3-17.3c-3-1-6.1,0.5-8.2-1.9c0.4-1.2,1.2-0.8,2-0.8c2.9,0.2,5.8,0.3,8.6,0c2.2-0.2,3.7-1.4,4.3-3.5
		c1.8-5.7,4.3-11.1,4.2-17.3c0-5,2.6-9.7,1.9-15c1.5,3.3,2.7,6.7,1.4,10.1c-1,2.7-1.6,5.3-1.8,8c-0.2,3.4-0.8,6.7-2.6,9.8
		c-1,1.7-1.4,3.7-1.9,5.7c-0.4,1.5-1.2,2.6-2.7,3.2c-3.7,1.5-4,2.1-3.8,6.7c1.8,0.2,2.8,1.5,4,2.8c3.4,3.6,7.1,6.8,12.2,7.5
		c0.7,0.1,1.2,0.5,1.7,0.9c2.6,1.7,5.1,3,8.4,3.4c2.8,0.3,5.7,1.9,7.9,4c4.7,4.7,9.3,9.5,11.6,16c0.9,2.5,1.7,5,1.5,7.4
		c-0.5,5.9,1.5,11.9-0.2,17.8c-0.4,1.3,0.1,2.5,0.8,3.8c2.9,5.3,4.1,10.8,3,16.9c-1.2,6.9-1.7,13.9-0.5,20.9c0.2,1.5,0.9,2.7,1.5,4
		c0.9,1.9,1.5,4,1.6,6.1c0.1,4.7,1.4,9.5,0.3,14.2c2,1.8,2.6,4.1,2.8,6.6c0.3,3.1,0.5,6.1,1.5,9.2c0.6,2,0.9,4.2,0.6,6.3
		c-1,7.5,1.5,14.7,1.3,21.8c0.8,1.3,1.8,1.2,2.6,1.4c11.3,2.7,21.8,12.8,24.3,28.4c1.5,9.2,0.1,18-6.2,25.1
		c-7.2,8.2-16.4,11.6-27.5,9.7c-4.6-0.8-8.5-2.9-12.4-5.6c1.6,22.2,5.3,43.9,2.5,66c-1.3,1.3-2.9,0.6-4.4,0.6c-1.4,0-2.9,0-4.8,0
		c-0.5,4.6-3.5,8.5-3.2,13.3c0.2,2.9,0.1,5.8,0.1,8.7c0,0.9,0.2,1.9-0.5,2.5c-2.2,1.9-1.2,3.7-0.4,5.9c1.4,3.5,1.5,7.4,1.9,11.1
		c0.8,6.4,1.5,12.8,1.9,19.2c0.3,4.7-0.5,9.3-1.4,13.9c-1,4.8-1.4,9.6-1.6,14.5c-0.6,11.1-1.1,22.2-2.4,33.2
		c-0.5,4.1,1,8.1,0.5,12.1c1.7,0.9,3.5,0,4.8,1.4c0.1,7.2,3.2,12.9,8.7,17.8c2.8,2.5,5,5.6,7.3,8.6c1.6,2.1,3.3,4.3,5.2,6
		c3.4,2.9,5.3,6.4,5.7,10.8c-0.7,2.1-2.6,2.2-4.3,2.4c-1.5,3.3-4.2,4.3-7.4,5.1c-6.6,1.7-13.2,1.2-19.8,0.2c-4.6-0.7-5.8-2-7.3-7.4
		c-1.3-0.6-2.5-1.3-4-1.2c-3.6,0.3-7-1-10.4-1.9c-4.2-1.1-5.9-4.9-8.6-7.8c-1-1.1-0.4-2.5,0.5-3.7c1.1-1.5,1.8-3,1.1-4.9
		c-0.6-1.5,0.4-2.8,1-4.1c1.6-4,3.7-7.7,2.6-12.4c-0.6-2.6,1.8-4.3,3.6-6c0.4-1-0.4-2,0.3-3.1c0.8-1.1,2.5-1,3.9-2.1
		c0-1.6-0.1-3.3,0-5.1c0.1-1.6-0.3-3.3,0.9-4.9c1.3,3.2,0.4,6.5,1.1,9.9c3.4-1.1,7.1-0.8,10.3-2.5c0.3,0.5,0.6,1.5,1.8,0.9
		c0.1-0.1,0.3-0.3,0.3-0.4c-1.4-6.9,0.7-13.7,1-20.5c0.2-7.3,1.1-14.6,1.4-21.9c0.4-8.9,1.7-17.7,2.7-26.5c0.3-2.5-0.2-4.9-0.4-7.3
		c-0.8-7.6-1.6-15.2-3.8-22.8c-0.6,2.3-1.2,4.6-1.9,6.9c-0.8-3.5-0.5-5.4,1.5-9c0.7-1.3-0.1-2-0.9-2.7c0.7-3.8,3.5-7.1,3-11.1
		c-0.6-5.1,1.7-10.1,0.8-15.7c-11.3,2.7-21.8-0.2-32.4-1.2c-0.8-0.1-0.8-1.1-1.4-1.2c-1,0.2-1.2,1.5-2.3,1.4c0,3.9,0.7,7.3,2.2,10.8
		c1.8,4.1,2.1,8.8,2.9,13.3c1.3,7.1-0.2,13.9-1.3,20.8c-1.5,9.8-1.4,19.5,0.9,29.1c1.5,6.5,3.2,12.9,4.6,19.4
		c2.3,11,4.9,21.9,5.7,33.1c0.2,3,0.4,6-1.5,8.6c-1.4-0.3-1.3-1.3-1.2-2.1c0.4-9.8-1.8-19.2-3.6-28.7c-1.6-8.2-3.2-16.3-4.4-24.6
		c-0.4-2.8-1.4-5.6-2.2-8.4c-2.2-7.4-2.1-14.9-0.7-22.4c1.6-8.7,2.9-17.5,0.9-26.1c-1.4-5.7-3-11.3-4.1-17.1
		c-0.4-2.3-0.3-4.6-0.5-6.9c-0.9-0.7-1.9-0.6-2.9-0.7c-3.4-0.4-3.5-0.6-4-4.1c-0.7-4.4,0.5-8.9-0.4-13.3c-0.1-0.4-0.1-0.8-0.3-1.6
		c-1.2,1.4-1.6,2.9-1.9,4.4c-0.4,2.2-0.9,4.4-1,6.6s-1.4,3.6-2.6,5.3c-1.4,2-2.9,2.5-5,2.3c-1.4-0.1-1.8,1.6-3.1,1.6
		c-1.4,4.7-2.8,9.3-5.4,13.5c-1.2,1.9-1.4,4.3-1.5,6.7c-0.5,8.7-4,15.9-11.5,21.9c0.8-3.2,2.7-4.8,4.3-6.4c2.3-2.3,3.7-4.8,4.1-8.1
		c0.3-2.9,1.5-5.6,1.7-8.5c0.6-7,4.2-13.1,5.1-20c-0.7-0.4-1.5-0.3-2.2-0.1c-10.5,2.2-21.2,1.8-31.9,2.2c-2.7,0.1-2.7,0.1-5.2,2.1
		c0.4,2.9,0.6,5.9,1.7,8.7c0.4,1.1,0.4,2.4,0.4,3.6c0.3,8.9-1.3,17.4-4.9,25.5c-1.6,3.5-2.2,7.2-2.5,11.1c-0.2,3.9-1,7.9-1.4,11.9
		c-0.5,5.1-0.2,10.2,1.1,15.2c1.1,4.2,1,8.6,1.6,12.9c0.9,6.9,1.1,14,2.6,20.8c2.1,10,2.4,20.2,3.2,30.5c1.5,0.2,2.9-0.1,4.3-0.7
		c1.3-2.5,0.3-5.3,1.2-7.8c0.9,2.3,0.9,4.6,0.6,7.3c3.3-0.5,6.5-1,9.8-1.6c-0.9-5.1-1.7-9.9-1.2-14.8c0.5-4.9,0.9-9.7,1.1-14.6
		c0.2-5.1-1.1-10.1-0.9-15.3c0.1-3,0.5-5.9,1.2-9.2c1.6,1.6,0.9,3.2,0.8,4.7c-0.3,6.9-0.7,13.7,0.3,21.1c1.6-6.9,3.6-13.1,5.7-19.3
		c1.3-4,1.7-8.3,2.8-12.3c2.3-8.4,1.3-17,1.3-25.5c0-4.3-0.1-8.6-0.6-13c-0.1-1.3-0.4-2.8,1.4-4.2c0.2,2.9,0.5,5.3,0.6,7.7
		c0.2,8.1,1.3,16.1,0.9,24.3c-0.2,5.8-0.4,11.5-2.8,17c-0.3,0.6-0.4,1.3-0.5,1.9c-1.3,6.3-2.8,12.5-5,18.6
		c-2.5,6.8-2.5,14.2-3.7,21.3c-0.6,3.8-0.8,7.5,0.1,11.3c0.9,0.6,1.8-0.6,2.8-0.1c1.5,1.1,3.2,2.3,3.1,4.4c-0.2,2.9,0.4,5.9-0.9,8.8
		c-1,2.2-1.7,4.4,1.1,6c0.5,0.3,1.1,1.1,0.7,2c-0.6,0-0.8-0.8-1.7-0.4c3,5.5,5.6,11.2,7.6,17c2,5.9,6.8,10.3,7.3,16.8
		c-0.4,1.1-1.4,2-2.7,2.2c-8.4,1.5-16.9,2.9-25.4,1.2c-2.4-0.5-4.7-1.4-6.9-2.5c-1.9-1-3.2-2.5-3.3-4.9c-0.1-1.7-1.5-2.9-2.8-3.8
		c-4.4-3.3-4.6-9-1.9-13c1.5-2.2,2.5-4.2,1.2-7c-1-2.2,0.2-4.6,0.9-6.8c0.5-1.4,0.9-2.7,0.3-4.2c-0.6-1.7-0.1-3.4,0.8-4.8
		c1.1-1.7,1-3.4,0.6-5c-1.5-6.6-1.2-13.4-1.8-20.1c-0.4-4-0.9-7.9-1.6-11.9c-2.4-14.8-4.1-29.7-6.2-44.5c-0.7-5,0.7-9.9,1.2-14.9
		c0.8-7.8,3.4-15.1,6.2-22.4c0.8-2,2.1-3.8,2.4-6.1c0.6-4.4-0.4-8.4-1.4-12.6c-1-3.9-1.2-8.1-1.1-12.3c-2.1-0.7-4.2-0.7-6.2,0.6
		c-1.4-2.2-0.7-4.3-0.6-6.3c0.1-2.3-0.3-4.9,1.8-6.8c0.7-0.7,0.4-1.9,0.2-2.9c-2.7-10.2-1.4-20.5-0.4-30.8c0.3-3.3,0.4-6.6,0.6-9.8
		c-1-0.8-1.9-0.3-2.7-0.1c-9.7,2.4-17.8-0.8-24.6-7.5c-9.3-9.1-12.4-24.3-7.7-35.7c3.8-9.3,11.2-13.6,20.4-15.8
		c0.4-0.1,0.8-0.2,1.2-0.3c0.6-1.7,0.4-3.2-0.1-4.9c-2.4-8.3-5.5-16.6-6.5-25.1c-0.8-6.5-1.9-13-2.3-19.6
		c-0.4-5.3,0.9-10.4,1.1-15.6c0.1-1.9,0.1-3.8-0.4-5.6c-2-7.8,0-15.2,2.3-22.5c0.4-1.4,0.9-2.7,0.7-4.1c-0.4-3.4-0.2-6.9-0.4-10.3
		c-0.3-4.4,0.9-8.6,3.4-11.9c3.9-5.1,3.3-10.4,2.3-15.9c-0.6-3.4-0.7-6.6,0.1-9.9c0.7-3,1.4-6,2.1-9.1c1.2-5.5,4.9-9.5,9.7-12.2
		c8.4-4.7,17.2-8.7,25.5-13.4c4-2.3,8.6-3.3,12.8-5.5c3.7-1.9,5.6-4.4,6.6-8c0.9-3.2,1.4-6.3-0.6-9.6c-1.5-2.4-0.6-5.6-1.8-8.4
		c-0.6-1.3-0.7-2.8-1.5-4c-0.7-1.2-1.2-2.5-0.5-4.1c0.5-1.2,0.1-2.5-0.6-3.8c-2.5-4.7-2.8-9.5-0.4-14.3c0.1-0.3,0.3-0.6,0.3-0.9
		c0.1-3.1,1.4-6,2.9-8.5c0.7-1.2-0.1-1.9,0-2.6C409.1,122.8,409.5,122.8,409.7,123.3c1.1-0.3,2.1-0.4,2.9,0.5
		C411.8,122.8,410.8,122.9,409.7,123.3z"/>
	<path d="M445.2,146.9c-1.6,0.2-3.5,0-3.7,2.2c-3.3,0.7-6.5,0.1-9.7-0.4c2.7-1.5,5.7-2,9-2.1c-1.9-2-4.8-0.1-6-2.2
		c-2,0.1-2.9,1.8-5,1.6c1.4-1.7,3-2.9,4.9-2.9c2.4,0,4.9-0.4,7.4,0.2C443.8,143.6,445.1,144.4,445.2,146.9z"/>
	<path d="M726.3,148.6c2.8-1.5,5.7-2,9.6-1.9c-2.4-1.9-5.1-0.5-6.5-2.3c-1.9-0.1-2.9,2-5.1,1.4c2.3-1.9,4.2-3.3,7.2-2.8
		c1.7,0.3,3.4-0.2,5.1,0.2c1.9,0.5,3.2,1.3,3.3,3.6c-1.7,0.3-3.6,0.2-3.9,2.3C732.7,149.6,729.5,149.3,726.3,148.6z"/>
	<path d="M459.8,534.6c5.1,7.7,4.1,15.9,2.7,24.2c-0.3,0-0.7,0.1-1,0.1c-0.1-1.9-0.3-3.8-0.3-5.6c0-6-1.5-11.8-1-17.8
		C460.2,535.2,459.9,534.9,459.8,534.6h0.3H459.8z"/>
	<path d="M754.4,534.6c5.1,7.7,4.1,15.9,2.7,24.2c-0.3,0-0.7,0.1-1,0.1c-0.1-1.9-0.3-3.8-0.3-5.6c0-6-1.5-11.8-1-17.8
		C754.8,535.2,754.6,534.9,754.4,534.6h0.3H754.4z"/>
	<path d="M674.6,501.9c1.1-0.6,1.8-0.3,2.4,0c6.9,3.1,11.7-0.6,16.3-5c1.4-1.4,2.5-3,4.1-4.8c-1,6.3-5.1,9.4-9.9,11.6
		C683,505.7,678.6,505.6,674.6,501.9z"/>
	<path d="M380.3,501.4c2.6,0.7,5.3,1.3,7.6,1.9c6.3-2,10.8-5.8,14.4-10.9c-0.2,3.4-2,5.9-4.4,8c-2.7,2.3-6,3.9-9.4,4.5
		c-3.1,0.5-6-0.7-8.4-2.7C380.2,502,380.3,501.7,380.3,501.4z"/>
	<path d="M429,182.2c-4.3-3-8.5-6-12.7-9c0.5-3.8-3-7.4,0.2-11c-0.2,4.1,1.5,7.6,2.6,11.4c3.6,2.4,7.6,4.4,10.5,7.8
		C429.4,181.6,429.2,181.9,429,182.2z"/>
	<path d="M724.1,182.6c-4.8-3.4-9-6.4-13.3-9.4c0.6-3.8-3.1-7.4,0.4-11.6c0,4,0.9,7.2,2,10.4c0.5,1.3,1.1,2,2.2,2.6
		c2.5,1.5,4.9,3.1,7.1,4.9C723.2,180.1,724.1,180.5,724.1,182.6z"/>
	<path d="M674.8,522.8c0.3,0,0.7,0,1.2,0c-0.4,2.3-0.9,4.6-2.1,6.4c-2.6,3.8-2.8,7.8-2,12.1c0.7,3.7,0.6,7.5-1.4,10.9
		c-0.5,0-0.6-0.4-0.5-0.7c1.4-4.7,0.7-9.4,0.1-14.2c-0.3-2.6,0.7-4.8,1.8-6.9c1.1-2.1,2-4.2,2.2-6.6
		C674.1,523.3,674.3,523,674.8,522.8z"/>
	<path d="M380.1,522.7c0.3,0,0.6,0,1.2,0.1c-0.3,2.3-0.9,4.6-2.1,6.4c-2.6,3.8-2.8,7.8-2,12.1c0.7,3.7,0.6,7.5-1.4,10.9
		c-0.2-0.2-0.5-0.3-0.4-0.4c1.4-5.1,0.6-10.1,0.1-15.2c-0.2-2.3,0.8-4.3,1.9-6.3c1.1-2.1,2-4.2,2.2-6.6
		C379.5,523.3,379.6,523,380.1,522.7z"/>
	<path d="M422.9,211.3c3.9,1,8,1.5,11.1,4.4c2.1,0.4,3.9-0.4,6-1c-0.9,3.3-4.2,4.6-6.7,2.4C430.1,214.4,426.4,213.3,422.9,211.3z"/>
	<path d="M684.5,509.8c-3.1,5.3-1.4,10.5-0.3,15.8c-2.3-2-4.1-4.7-3.2-7.3C681.9,515.5,680.9,511.7,684.5,509.8z"/>
	<path d="M389.5,525.6c-2.4-2.3-4.4-5.3-3-8.2c1.2-2.5-0.5-6.3,3.5-7.6C386.8,515.1,388.3,520.3,389.5,525.6z"/>
	<path d="M455.9,506c1.9-1.4,4-1.2,6-1.8c2.9-0.8,6.2-0.7,6.8-5.6c1,3,0.8,4.4-1,5.2c-3.1,1.3-6.1,2.9-9.6,3.3
		C457.5,507.1,456.6,507.1,455.9,506z"/>
	<path d="M750.8,506.3c0-1,0.8-1,1.4-1.2c1-0.3,2-0.4,2.9-0.6c3.3-0.9,7.5-0.3,8.7-5.2c0.7,2.2,0.2,3.9-1.4,4.6
		c-3.1,1.3-6.2,3-9.7,3.3C752.1,507.1,751.2,507.2,750.8,506.3z"/>
	<path d="M471.8,529.1c0.3,2.5-0.2,4.7-1.7,6.5c-1.7,2.1-2.9,4.3-3,7.2c0,0.6-0.1,1.6-1.3,1.9c-0.1-3.1-0.2-5.9,1.9-8.4
		c1.2-1.4,1.9-2.9,2.4-4.7C470.4,530.7,470.4,529.6,471.8,529.1z"/>
	<path d="M766.5,529.3c0.2,2.2-0.3,4.4-1.6,6.1c-1.7,2.2-3.1,4.5-3.1,7.4c0,0.6-0.4,1.2-0.9,1.7c-0.6-2.4-0.7-4.9,0.7-6.9
		c1.7-2.4,3-4.9,3.8-7.6C765.5,529.5,765.8,529.2,766.5,529.3z"/>
	<path d="M734.5,171.1c4.5,0.3,8.8-1.1,13.8-0.9C746,172.4,736.3,173,734.5,171.1z"/>
	<path d="M453.1,171.6c-4.4,0.1-8.8,1.7-13.3,0.6c0-0.4,0-0.7,0-1.1c4.4-0.3,8.8-0.6,13.3-0.9C453,170.6,453.1,171.1,453.1,171.6z"
		/>
	<path d="M746.3,176.5c-3,1.2-5.4,1.6-8.1,0.6C739.7,173.3,742.7,173,746.3,176.5z"/>
	<path d="M451.6,176.5c-3,1.3-5.4,1.6-8.1,0.7C444.9,173.3,447.9,173,451.6,176.5z"/>
	<path d="M754.4,534.6c-0.5-2.9-2-5.4-2.7-8.1c-0.3-1.1-0.9-2.2-0.1-3.4C753.8,526.6,754.5,530.5,754.4,534.6L754.4,534.6z"/>
	<path d="M459.8,534.6c-0.5-2.9-2-5.3-2.7-8.1c-0.3-1.1-1-2.2-0.1-4.1C459.2,526.6,459.8,530.5,459.8,534.6L459.8,534.6z"/>
	<path d="M721.2,194.4c3.3,2.4,1.8,6.4,3,9.6C721.7,201.3,723,197.3,721.2,194.4z"/>
	<path d="M426,194.4c2.5,0.4,2.3-0.2,3.6,9.9c-1.7-1.5-1.6-3.4-1.9-5.1C427.4,197.6,427.1,195.9,426,194.4z"/>
	<path d="M714.5,178.5c2.6,2.8,4.1,6.4,6.4,9.7C718.5,186.9,715.4,182.3,714.5,178.5z"/>
	<path d="M425.9,188.1c-2.5-2.1-5.5-6.8-6-9.7C422.5,181.2,423.9,184.9,425.9,188.1z"/>
	<path d="M740.4,164.4c1.7-3,4.1-2.1,6.3-2.2C746.1,164.3,745.6,164.5,740.4,164.4z"/>
	<path d="M452.4,162.7c-1.2,3-4.5,0.2-5.8,2.6C446.3,162.2,448,161.6,452.4,162.7z"/>
	<path d="M753.1,497.5c-3.5-0.1-7.1,0.1-10.4-1.5C746.3,495.7,749.6,497.3,753.1,497.5z"/>
	<path d="M674.8,522.8c-0.2,0.4-0.4,0.7-0.5,1.1c-3,1.6-3.3,5-5.3,8c0.4-4.6,2.6-7.5,5.4-10.1C674.8,521.9,674.8,522.3,674.8,522.8z
		"/>
	<path d="M380.1,522.7c-0.2,0.4-0.4,0.7-0.6,1.1c-2.9,1.6-3.4,4.9-5.4,8.1c0.5-4.6,2.6-7.6,5.4-10.1
		C380.2,521.9,380.1,522.3,380.1,522.7z"/>
	<path d="M448.1,496c3.5-0.3,6.8,1.3,10.3,1.3C455.3,498,451.6,497.5,448.1,496z"/>
	<path d="M467.9,513c-0.4,3.2-2.2,4-5.4,2.3C464.4,514.4,465.9,513.3,467.9,513z"/>
	<path d="M756.9,515.2c2.2-0.8,3.7-2,5.6-2.3C762.3,516.1,760.6,516.9,756.9,515.2z"/>
	<path d="M688.6,561.1c0,2.8,0,5.6,0,9.1C686.7,566.7,687.7,563.9,688.6,561.1z"/>
	<path d="M393.9,570.2c-1.8-3.5-0.9-6.3,0-9.1C393.9,563.9,393.9,566.7,393.9,570.2z"/>
	<path d="M430.8,212.3c-1.7-1.8-1.5-3.5-1-5.2C431.4,208.6,431.7,210.1,430.8,212.3z"/>
	<path d="M724.3,206.4c1.7,2.1,1.9,3.7,1.5,5.8C723.6,210.7,723.9,208.9,724.3,206.4z"/>
	<path d="M461.3,567.6c0-2.4-0.9-5,1.1-7.2C462.3,562.9,462.7,565.4,461.3,567.6z"/>
	<path d="M756.1,567.6c0-2.4-1.1-5,1.2-7.8C757.3,562.8,757.1,565.2,756.1,567.6z"/>
	<path d="M752.5,604.1c0.7,1.8,0.5,3.6,0.1,5.4C751.9,607.8,752.1,605.9,752.5,604.1z"/>
	<path d="M441.5,213.9c2.2-1,4.4-0.3,6.7,0c-2.2,0.2-4.4,0.5-6.7,0.7C441.5,214.4,441.5,214.1,441.5,213.9z"/>
	<path d="M743.4,213.9c-2.6,0.3-4.9,0.5-7.3,0.8C737.9,213.1,737.9,213.1,743.4,213.9z"/>
	<path d="M405.6,502.4c-2.9-2.7-2.9-2.7-1.7-4.5C405.2,499,404.9,500.6,405.6,502.4z"/>
	<path d="M699.8,502c-1.1-1-2.5-2-2-4.1C700.3,498.6,699.1,500.7,699.8,502z"/>
	<path d="M457.8,604.1c0.7,1.8,0.5,3.6,0.1,5.4C457.2,607.8,457.6,605.9,457.8,604.1z"/>
	<path d="M456.8,595.4c0.8,1.3,0.4,2.5,0.3,3.8C455.9,597.9,456.1,596.6,456.8,595.4z"/>
	<path d="M751.4,595.4c0.8,1.2,0.5,2.5,0.6,4.2C750.3,598.1,751,596.7,751.4,595.4z"/>
	<path d="M435.2,229.6c-0.7-1.3-1.3-2.6-0.8-4.4C436,226.7,435.3,228.2,435.2,229.6z"/>
	<path d="M380.5,618.6c-1.3-1.8-0.9-2.7,0-4C380.5,615.9,380.5,616.9,380.5,618.6z"/>
	<path d="M675.4,615c-0.1,1-0.2,1.9-0.3,3C674.4,616.6,674.4,616.6,675.4,615z"/>
	<path d="M689.7,552c0.5,1.8-0.2,2.8-0.7,4C688.4,554.6,689.2,553.6,689.7,552z"/>
	<path d="M395,551.9c0.4,2-0.3,2.9-0.7,4.2C393.8,554.5,394.6,553.5,395,551.9z"/>
	<path d="M665,549c0-1.2,0-2.3,0-3.5h0.1C665.1,546.7,665.1,547.8,665,549C665.1,549,665,549,665,549z"/>
	<path d="M370.5,545.6c0,1.1,0,2.1,0,3.2h-0.1c0-1.1,0-2.2,0-3.2C370.4,545.6,370.4,545.6,370.5,545.6z"/>
	<path d="M380,607.1c0.7,0.5,0.3,1.2,0.2,1.8C380.1,608.3,379.6,607.8,380,607.1z"/>
	<path d="M665.7,540.2c0,0.4,0,0.9,0,1.3c0,0,0,0-0.1,0C665.7,541.1,665.7,540.7,665.7,540.2L665.7,540.2z"/>
	<path d="M371,541.4c0-0.4,0-0.9,0-1.3h0.1C371,540.6,371,541.1,371,541.4C371,541.5,371,541.5,371,541.4z"/>
	<path d="M732.2,196.8c0.1-0.9,0.6-1.3,1.5-1.4c0.7,0.6-0.1,0.9-0.4,1.3C733.1,197,732.6,197.2,732.2,196.8z"/>
	<path d="M675,608.5c-0.5-0.3-0.5-0.9-0.5-1.6C675.3,607.4,675.1,608,675,608.5z"/>
	<path d="M426.1,190.6c0.8-0.8,1.3-0.4,1.8,0.6C427,191.7,426.4,191.8,426.1,190.6z"/>
	<path d="M720.8,190.6c0.8-0.8,1.3-0.4,1.8,0.6C721.7,191.7,721.1,191.8,720.8,190.6z"/>
	<path d="M754.5,572.1c-0.3-0.5-0.4-1,0.3-1.3C755.4,571.4,755.2,571.8,754.5,572.1z"/>
	<path d="M459.8,572.3c-0.3-0.7-0.4-1.2,0.1-1.4c0.7-0.2,0.6,0.4,0.5,0.7C460.4,571.8,460.2,572,459.8,572.3z"/>
	<path d="M439.2,195.3c0,1.3-0.8,1.4-1.6,2.3C437.5,196,438.2,195.6,439.2,195.3z"/>
	<path fill="#FFFFFF" d="M725.9,465c1.8,1.9,1.4,4.5,2.1,6.7c0.6,1.9,0.7,3.9,2,6.1c-0.8-7.9-3.4-14.8-5.6-21.6
		c1.1-0.9,2-0.4,2.7-1.2c2.9,4.7,4.6,10,7.4,14.7c-1.1-4.9-3.2-9.4-5.6-13.7c-1.4-2.5-1.7-4.9-1.2-7.6c1.2-7.6,2.1-15.3,3.8-22.9
		c0.9-1.9,1.3-3.8,0.7-6c-0.9-3.4,0.1-7,1.3-10c2-5,0.9-9.8,1-13.5c1,5.1,0.4,10.6-1.7,12.2c-0.8-1.2-0.1-2.6-0.7-3.8
		c2.7,5.8-1.5,11.8,0.4,17.7c0.3,1-0.9,2.2-1.1,3.4c-1,0-1.1,0.9-1.4,1.6c-2.4,5.2-4.3,10.6-5.7,16.2c-0.9,3.4-2,6.8-2.8,10.3
		c-1,4.1-1.4,8.3-1.6,12.5c-0.1,5.4-1.2,10.5-3.8,15.9c-17.5,2.1-35.3,2.3-53.2,3c1-5.6,2.2-10.9,0.8-16.5c-2-7.8-0.7-15.7,0-23.5
		c0.6-6.2,1.1-12.4,1.1-18.6c0-9.7,0.1-19.5,0.6-29.2c0.2-4.4,1.1-8.8,2.6-13c0.8-2.4,1.6-4.9,2-7.4c0.7-4.5,1.7-8.9,4.8-12.5
		c1.7-2,1.4-4.9,3.1-6.9c0.9-1.1,0.9-3.4,3.4-2.9c0.3,0.1,0.8-1.4,1.3-2.2c1.5,0.2,0.2,2.2,1.7,2.5c1-0.5,0.2-1.8,0.7-2.3
		c2-1.6,3.1,0.7,4.6,0.7c0.3,0.6,0.6,1.2,0.3,1.9c0.3-0.7,0.1-1.3-0.4-1.8c0.4-2.8,2.4-1.1,3.9-1.2c-0.2-1.6-1-2-2.4-1.4
		c-1.3,0.5-1.9-0.7-2.9-1.8c-1.3,4-3.7-0.4-5.4,1.2c-0.7-0.7,0.2-2.1-1.2-2.4c-0.1,0-0.2-0.1-0.3,0c-1.5,1.5-0.5,4-2.5,5.5
		c-0.6-2.1-0.4-4-0.3-6.5c24.1,1.7,48.2,0.8,72.2,3.3c0.4,1.2-0.1,2.1-0.2,3.2c-2,0.9-2.8-0.3-3.3-1.8c-1.3,0-0.7,1.5-1.5,1.6
		c-2.3,0.5-1.9-1.6-2.5-2.7c-1.1,1.2-0.7,2.3-0.4,3.3c1,0.9,2.3,0.9,3.6,1.6c-0.6,6,1.1,11.5,5.6,16c-2.7-4.8-3.6-10-3.6-15.2
		c0.9-1.2,1.9-0.8,3.1-0.8c-0.3,5.2,4.8,5.9,7.1,9c-0.7-3.4-4.4-5.2-4.7-8.9c2.1-0.9,3.9,0.7,5.8,0.2c-1-1.6,0.2-2.8,0.6-4.5
		c2.8,6.4,7.7,11.6,7.2,19.5c1.2-1.4,0.5-2.6,1.1-3.7c1.1,1.3,1.9,2.7,2.1,4.2c1.1,5.8,2.5,11.6,2.8,17.6
		c0.7,14.3,3.7,28.3,5.9,42.5c1.6,10.8,3.5,21.7,4,32.7c0.2,4.7,0,9.3-0.7,13.9c-0.4,2.5,0.2,5.1-0.6,7.8c-1.9,0-3.8,0-5.8,0
		c-6.3,0.1-12.7,0.1-19,0.8c-8,0.9-15.3-1.8-22.9-3.5c-1.9-0.4-3.7-1.4-6.1-1.1C727.3,475.9,726.1,470.5,725.9,465L725.9,465z"/>
	<path fill="#FFFFFF" d="M671.4,244.3c0.5,0,1.1,0.1,1.6,0.1c3.6,6.1,5.7,12.4,4.4,19.6c-0.8,4.5-1.9,6-6.5,6.3
		c-5.6,0.4-11.3-0.1-16.9,1c-1.5,0.3-3.1-1.3-4.7-0.1c0.5,0.2,0.9,0.5,1.6,0.8c-3.2,0.9-5.2,2.9-6.7,5.7c6.9-4.3,14.6-4.6,22.3-4.6
		c5,0,9.6-0.9,13.8-3.9c2-1.4,4.4-2.2,6.7-2.9c6.7-2.1,9.1-7.3,10-13.5c0.4-3,1.1-6.2-0.3-9.4c-0.2,5.8-1.5,11.3-4.3,16.5
		c-3.2-0.9-6.5-1.5-9.5-3.6c-7.2-5.1-8.9-13-4-20.4c3.8-5.9,9.5-9.6,15.9-12.2c9.5-3.9,19.3-4.9,29.3-2.2c5.2,1.4,9.2,4.3,12.6,8.6
		c4,5.1,3.3,9.9,0.7,15c-0.7,1.4-1.5,2.7-2.3,4.1c-1.7,2.9-3.8,5.5-7.3,6.3c-0.6,0.1-1,0.5-0.9,1.2l0.1-0.1
		c-6.7,1.6-13.7,0.4-20.2,2.8c-6.3,2.4-12.4,4.9-17.3,9.6c-4.3,4.1-7.3,8.9-7.2,15.2c0,2.8,1.2,5.3,2.2,8c-4.5,5.4-9.4,10.4-15,14.6
		c-3.9,2.9-8.2,5.8-13.8,5.2c-2-0.2-4.2,1.2-6.3,1.8c-4.3,1.2-8.8-1.2-10.2-5.6c-0.5-1.7-1-3.4-1-5.2c-0.1-3.2-0.5-6.4-2.3-9.2
		c-1-1.5-0.5-3.3-0.3-4.9c0.4-3.6,0.1-7.6,3.4-10.3c0.7-0.5,0.8-1.5,0.7-2.4c-0.3-5-0.4-10.1,1-15c0.8-2.8,1.8-5.4,3.2-7.9
		c1.9-3.4,2.4-7,2-10.9c-0.8-6.8,0.4-13.2,4.5-19c3.7-5.2,7.2-10.6,12.5-14.5c0.5-0.3,0.9-0.6,1.4-0.8c4.7-1.9,9.3-3.9,13.5-7
		c3.6-2.6,8.1-4,12.3-6.1c0.9,2.7,1.4,5.4,1.9,8.2c-1.6,0.3-3.1-0.9-4.8,0.3c1.6,1.2,3.6,0.4,5.2,1.7c1,3.3,1.6,6.9,2.1,10.6
		c-1.3,1.3-3.2,1.5-4.7,2.3c-4.7,2.4-9,5.3-12.4,9.4c-3.1,3.8-5.1,8.1-4.5,13.2C673.1,242.3,672.1,243.1,671.4,244.3
		c-0.2,0.3-0.6,0.3-1,0.4C670.7,244.5,671.1,244.5,671.4,244.3z"/>
	<path fill="#FFFFFF" d="M768.9,259.8c-0.8,2.4-2.6,4.4-3.8,6.8c-1.8,0.1-3.5,0.7-4.9,2.1c1.2,0.6,2.3-0.1,3.5,0.2
		c-4.1,19-2.8,38.5-5.7,57.5c-1.4,0.9-3,0.2-4.8,1.2c1.9,0,3.2,0,4.8,0c-0.2,6.4,0.7,12.5,1,19.1c-27.1-3.1-54.2-0.1-81.4-1.6
		c1.1-7.2,0-14.6-0.3-22.4c6.9-1.1,13.5,0,20.1,0c-6.4-1-12.8-2-19.6-1.2c-0.4-5.8,0.3-11.7-0.6-17.3c2.8-2.7,5.5-5.4,8.2-8
		c9.1,11.2,21.4,12.2,34.5,9.9c3.4-0.6,6.7-1.5,10.1-0.3c0.8,0.3,1.7,0.5,2.4-0.5c-0.4-1.7-2-0.8-3.4-1.6c2.3-1.1,4.3-2.1,6.7-3.2
		c0,3,0,5.6,0,8.2c0.2,0,0.5,0,0.7,0c0.1-2,0.3-4,0.3-6c0-2.2,0.8-3.6,2.6-5c4.4-3.3,8.2-7.4,9.2-13c1.6-8.9-1-16.1-8.9-21.7
		c-2.2-1.6-4.7-2.5-7.5-3.7c-0.4-0.3,0.4-1.6-1-2.1c-1.2,1.4-2.9,1.9-4.8,1c0.1-0.4,0.2-0.8,0.4-1.2l-0.1,0.1
		c4.4,0.4,7.1-2.5,9.2-5.5c2.3-3.4,5.1-6.8,4.7-11.4c5.8-1.2,6.7-6.1,7.9-10.4c2.4-8.6,1.1-17.1-1.5-25.5c-0.3-1-1.2-1.9-0.8-3.1
		c1.4,0.5,1.4,1.7,1.7,2.7c2.8,9.8,5.1,19.7,7.6,29.6c1.6,6.4,3.1,12.9,5.9,19c1.3,2.8,3.2,5,5.2,7.3
		C767.5,260.5,768.2,259.8,768.9,259.8L768.9,259.8z"/>
	<path fill="#FFFFFF" d="M769,259.9c-2-2.7-4.1-5.4-5.5-8.5c-1.1-2.4-2.1-4.8-2.2-7.6c-0.1-2.3-0.7-4.6-1.5-6.8
		c-2.7-6.9-4-14-5.1-21.3c-0.6-3.6-1.9-7-3.2-10.8c2.8,1.2,4.7,3.2,7.6,3.4c-1.2,0.7-2.9-0.1-3.6,1.7c2,1.8,3.7-0.1,5.4-0.5
		c5.4,1.4,10.6,2.9,14.8,6.9c6.8,6.4,10.1,13.9,8.2,23.3c-0.7,3.6-1.4,7.1-2.4,10.6c-0.4,1.4-0.4,2.6,0.1,3.8
		c1.5,3.8,2,7.7,2.3,11.7c0.2,2.9,2.5,5.1,2.1,8.6c-1.4,1.3-3.2,2.9-4.9,4.5c2.5-0.7,4.6-1.9,6.8-3.6c1.6,0.6,3.6,0.5,5.4,1.8
		c3-2.2,7.2-2.5,9.1-6.6c-3.6-5.4,1.7-10.6,0.2-16.3c3.5-0.6,5.9-2.7,8.7-3.7c2,2.4,2.6,7.7,1,10.1c-0.9-0.6-1.8-1.3-2.5-1.8
		c-0.7-1.3-0.3-2.5-0.8-4.3c-0.7,1.4-1.1,2.4-1.5,3.2c0,2.2,1.8,2.8,3.1,3.8c-0.8,1.3-2.3,2-2.3,3.2c0.1,1.9,1.7,1.8,2.5,2.5
		c-0.1,1.4-1.7,1.6-1.8,2.8c1.1,3.1,1.2,3.1,4.7,3.3c0.8,2.9,3.7,4.9,3.7,8.3c-1.4,0.6-2.8,1.3-4.6,2.2c-0.4-2.3-2.6-2.4-4.1-3.5
		c-0.4-1.4-0.7-2.9-1.1-4.4c-0.7-0.8-1.7-1-2.6-1.3c-1.1,0.6-2.2,1.1-2.6,2.4c1.2,0.3,2.1-0.7,3.4-0.8c0.8,2.9,2,5.7,4.8,7.8
		c-3.3,1.7-6.4,3-9.3,4.7c-3,1.8-4.9,4.1-4.2,7.9c-0.2,0.2-0.4,0.4-0.7,0.5c0.3-0.1,0.5-0.3,0.6-0.6c0.8,1.6,1.5,3.1,2.3,4.6
		c-4.4,4.6-9.4,7-15.5,6.8c-3-0.1-6-0.2-8.6,1.3c-4.8-2.1-7.8-6.1-11.2-9.5c-0.3-4.5,3.3-8.5,1.3-13.2c1.9,0,2.6-1.1,2.7-2.7
		c-3.4-5.1-2.3-10.1-0.2-15.1c0.7-1.7,1.8-3.3,2.8-4.9c4.1-7.1,7.3-14.4,5.7-23c-0.4-2.2,0.9-4.5-0.1-7c-1.6,1.2-1.4,2.7-1.5,4
		C773.5,245.5,772.1,252.9,769,259.9L769,259.9z"/>
	<path fill="#FFFFFF" d="M709.3,305.6c-3.8,0-9.2-0.8-14.2-3.3c-10.7-5.3-12.9-15.7-4.9-24.7c6.6-7.5,15.4-11.1,25.1-12.6
		c7.7-1.2,15.3-0.7,22.5,2.6c2,0.9,3.9,2.2,5.5,3.7c4.7,4.5,5.7,10.2,3,16.1c-2.1,4.6-5.6,7.9-9.8,10.6
		C729,302.9,720,305.5,709.3,305.6z"/>
	<path fill="#FFFFFF" d="M741.9,655.5c1.6-2.3,2.5-4.7,1.8-7.5c-0.4-1.4,0.6-3,1.5-3.9c2.7-2.9,2.4-6.4,2.7-10.3
		c1.2,1.5,1.9,3.1,3.6,3.8c1.7,0.7,3.4,0,4.9-0.3c3-0.7,3-3.7,3.7-6.1c-0.8-1.3-2.3-2.2-2.4-4.2c4.7,0.4,9.3-0.3,13.8-0.1
		c1.6,2.2,0.8,4.9,2.2,7.1c-8.2-1.4-9.6-0.2-8.9,2.9c-1.5,0.5-3.1-0.4-5,0.4c0.4,3,3,2.1,4.8,2.6c-0.1,1.4-2.4,0.7-2.1,3.1
		c1.4,2,4.2,0,6.3,1c-0.3,3.4-0.3,3.4,7.6,2.7c-3.2,1.9-3.2,1.9-3.5,3.9c0.7,0.8,1.4,0.3,2.1,0.1c0.6-0.2,1.3-0.4,1.8-0.5
		c3.1,3.6,6.8,2.1,10.6,1.5c2.6,4.6,7.3,7.5,10.3,11.9c0.6,0.9,1,2,1.1,3.1c-2.1,3.2-5,4.8-8.7,5.6c-6,1.3-12,1.7-18.1,0.9
		c-3.1-0.4-5.9-0.9-6.6-5.1c-0.4-2.5-3.2-3.5-5.8-3.6c-2.1-0.1-4.2-0.2-6.3-0.5C748.3,662.9,744.7,660.1,741.9,655.5z"/>
	<path fill="#FFFFFF" d="M672.2,679.9c-0.1-3.6-2-6-4.3-8.1c-3.1-2.8-3.9-8.9-1-12c1.8-1.9,2.4-3.6,1.2-6c-0.2-0.4-0.4-0.9-0.3-1.3
		c1-3.4,0.2-6.9,0.9-10.8c1.4,1.6,2.7,3,4.8,1.8c2.2-1.2,3.6-2.8,3.2-5.6c-0.2-1.5,0-3.1,0-4.9c4.1-1.1,8.1-2.2,12-2.5
		c0.9,0.8-0.2,1.2,0.3,1.8c1.2,0.5,1.3-1.4,2.5-1c0.1,4.4-2.3,8.5-2.1,12.9c-4,0.6-7.9,0.3-12,1.7c1.5,2-0.4,3.8,0.8,6
		c0.9,1.7,1.8,2.3,3.4,2.3c3.8,0.1,7.5,1.3,11.3,0.5c1-0.2,1.4,0.5,1.6,1.6c-4.6,0.2-9.2-1.7-13.7-0.3c0.2,2.1,2,1.8,2.5,2.6
		c0.7,1.4-0.4,2.3-0.7,3.8c4.8,2.6,9.8,2.9,15.3,1.7c1.5,3.6,3,7.1,4.4,10.7c0.7-0.1,0-1,1-1.2c0.8,2.3,1.6,4.7,2.1,7.7
		c-10.1,0.5-19.9,4.3-29.7-0.3C674.5,680.5,673.1,680.2,672.2,679.9z"/>
	<path fill="#FFFFFF" d="M830.8,267.4c2.6,3.7,2.6,4.1-0.8,7.7c-2.8-0.7-5.4-1.6-8.3,0c-2.8,1.5-5.1,0.6-6-1.8
		c4.2-0.5,12-2.9,14-4.6c-2.8-0.3-5.2,0.7-7.4,1.7c-3,1.4-6.3,1.2-9.4,1.8c-2.1,0.4-2.4-1.4-2-3.1c4.4-4.3,11-2.9,15.8-6.2
		c-5.7-0.5-10.9,3.8-16.7,2.1c4-5.2,10.8-5,15.1-9.2c-3.3,0.4-6.3,1.7-9.4,3.5c-0.4-2.4-1.5-4.3-1.5-6.6c0-2.6-1.3-3.5-4.1-3.6
		c-0.4-1.1-0.8-2.2-1.2-3.5c2.6-2.6,6.3-2.2,9.4-3.5c1.9,2.5,2,5.2,2.4,7.8c-1.5,1.4-3.7,0.8-5.3,2c2.4,0.8,2.7,0.8,7.6-1
		c2.1,2.1,3.4,5.3,6,6.5c0.7,1.4-0.1,2.4,0.3,3.6c0.8,0.7,1.8,1.6,2.6,2.3C832,265,830.7,265.9,830.8,267.4z"/>
	<path fill="#FFFFFF" d="M840.5,236c-3.1,5-6.3,7.1-17.4,11c-1.5-1.5-1.5-3.6-2.4-5.6c-3.8-0.3-7.4,0.4-10.9,1.9
		c-3.1,1.4-3.8,3.8-2.2,6.7c-4.9,2.9-16.7,3.8-20.9,1.7c0.4-2.2,2.3-3.1,3.9-4.1c4.8-3,10.1-4.9,15.5-6.8c7.8-2.7,15.8-4.6,23.9-5.8
		C833.3,234.5,837,234.1,840.5,236z"/>
	<path fill="#FFFFFF" d="M854.9,287.1c-4.3,3.7-9.6,5.5-14.8,7.4c-10.2,3.8-20.8,6.4-31.7,7.3c-2.1,0.2-4.2,0.2-6.2-0.3
		c0-1.5,1.2-0.3,1.6-1c0.1-0.7-0.8-0.7-0.9-1.6c0.1-0.1,0.4-0.2,0.6-0.4c4.9-3.7,10.6-5.4,16.3-7.3c8.5-2.9,17.2-5,26.1-6.2
		c2.1-0.3,4.2-0.3,6.3-0.1c1.3,0.1,1.8,0.9,2.3,1.9c0.2-0.1,0.4-0.1,0.6-0.2C855,286.7,855,286.9,854.9,287.1z"/>
	<path fill="#FFFFFF" d="M798.9,297.9c-1.4-3.4-1-4.8,2.1-7c4.1-2.9,8.8-4.7,13.4-6.5c9.7-3.7,19.7-6.1,30-7.3
		c2.3-0.3,4.7-0.3,7-0.2c3.5,0.2,4.6,1.3,5.2,4.8C835.8,282,816.6,287.2,798.9,297.9z"/>
	<path fill="#FFFFFF" d="M840.2,233.4c-20.1-0.1-38.1,5.6-55,15.6c-1.1-3.2-0.5-5.2,2.6-7.2c4.4-2.9,9.2-4.8,14.1-6.6
		c8.2-2.9,16.5-5.1,25.1-6.4c3.3-0.5,6.6,0,9.9,0.3C839.5,229.3,839.9,231.3,840.2,233.4z"/>
	<path fill="#FFFFFF" d="M800.9,254.1c1.1,5.7-3,11.1-0.2,16.9c-1.9,1.4-3.9,2.8-5.9,4.3c-2.3-0.8-4.4-2.1-6.9-1.4
		c-1.4-7.6-1.4-15.3-3.8-22.7c1.6,3.1,4.1,3.7,7,3.4C794.4,254.4,797.7,254.3,800.9,254.1z"/>
	<path fill="#FFFFFF" d="M735.1,225.8c-15.6-14-53.5-6.3-60.7,15.8c-0.8-4.3,0.3-7.6,2.2-10.8c3.3-5.6,8.4-9.2,14.1-11.7
		c10.4-4.7,21.2-6.1,32.4-2.8C728.2,218,732.5,220.9,735.1,225.8z"/>
	<path fill="#FFFFFF" d="M683.8,286.6c-0.9-5.9,0.8-10.3,4.1-14.1c3-3.5,6.4-6.7,11.2-7.9c1.5-0.4,2.8-1.3,4.2-1.9
		c9.6-4.4,19.4-5,29.5-1.9c4.7,1.5,8.6,4,11.2,8.5c-10.6-7.1-22.1-7.7-34-4.6C698.2,267.9,688.3,273.5,683.8,286.6z"/>
	<path fill="#FFFFFF" d="M750.6,630.7c-0.8-0.6-1.1,0.2-1.8,0.1c-0.1-2.3,2.5-3.6,2-6.3c5.5-1,10.8-2.4,16.3-2.3
		c0.8,1.6-0.1,1.9-1.2,2c-2.2,0.2-4.4,0.4-6.6,0.5c-1.2,0.1-2.5-0.1-3.4,1.3c-0.5,2.1,1.5,3.4,2.3,5.1c-0.2,1.3-0.7,2.5-1.4,3.9
		c-1.5-1.3-3.1,0.2-4.7-0.4C750.2,633.9,750.1,632.3,750.6,630.7z"/>
	<path fill="#FFFFFF" d="M693.1,193.3c0.7-1,1.5-1.8,3.3-1.8c-0.6,2.7,0,5.3,0.9,7.8c1.6,4.7,3,9.5,4.5,14.2c-1,1.1-2.2,1.1-3.6,1.4
		C696.6,207.7,694.3,200.8,693.1,193.3z"/>
	<path fill="#FFFFFF" d="M681.8,257.4c3.1,1.7,5.7,3.1,9.1,3.4c-3.4,4.3-8.9,3.2-12.5,6.2C679.8,264,681.4,261.1,681.8,257.4z"/>
	<path fill="#FFFFFF" d="M669.2,637.5c2.2-0.6,0.9-2.4,1.6-3.8c0.8-1.1,2.2-1.7,3.8-1.3c1,6.4,0.8,7.1-3.1,9.1
		C670.2,640.5,670.2,640.5,669.2,637.5z"/>
	<path fill="#FFFFFF" d="M827.6,278.7c-2.7,0.3-5,1.9-7.7,2.2c-0.9-1-1-2.2-1.4-3.7c3.1,0.6,5.6-1.6,8.7-0.9
		C827.7,276.9,827.4,277.8,827.6,278.7z"/>
	<path fill="#FFFFFF" d="M704.4,123.3c0.8-0.6,1.7-1,2.6-1.1c1.2,0.3,1.4,1.5,2.3,2c0.9,0.3,1.6-0.8,2.6-0.4
		c0.5,0.9-0.1,1.5-0.9,2.3c-2.3-2.1-4.5-1-6.7,0.9c-0.1-1.8,1.5-2.1,1.6-3.2C705.5,123.2,704.9,123.3,704.4,123.3L704.4,123.3z"/>
	<path fill="#FFFFFF" d="M755.1,354c-1.2-0.6,0.1-1.6-0.8-2.2c-1.5-0.5-0.7,2.8-2.8,1.7c-0.4-1.1,0.7-1.9,0.6-3
		c1.4-0.1,2.6-0.2,3.9,0.4C756.1,352.1,755.5,353,755.1,354z"/>
	<path fill="#FFFFFF" d="M704.1,149.4c1.2,0.4,1.6,1.2,2.3,2c-0.8,0.9-1.6,1.8-1.3,3.2C703.8,153,701.6,151.7,704.1,149.4z"/>
	<path fill="#FFFFFF" d="M676.5,348.2c0.2,2.5,0.4,5,0.6,7.5C675.2,353.3,675.9,350.7,676.5,348.2z"/>
	<path fill="#FFFFFF" d="M720.2,123.3c-0.6,1.9-2,3.2-4,4.5C716.5,125.1,718.8,124.5,720.2,123.3z"/>
	<path fill="#FFFFFF" d="M755.2,121.6c-0.7-0.7-0.5-1.5-0.6-2.3c0.7-0.6,1.6-0.5,2.7-0.4C756.7,120,756.4,121.1,755.2,121.6z"/>
	<path fill="#FFFFFF" d="M732.6,118.6c-0.2-2.4,0.6-3.3,3-3C735,117.1,733.7,117.5,732.6,118.6z"/>
	<path fill="#FFFFFF" d="M781.3,649.7c2.2-2.3,3.5-1.8,4.8,0.2C784.4,650.5,783.2,649.2,781.3,649.7z"/>
	<path fill="#FFFFFF" d="M719.2,116.8c-0.6,1.8-1.8,2-3.3,1.8C716.8,117.8,717.6,116.9,719.2,116.8z"/>
	<path fill="#FFFFFF" d="M726,464.9c-0.7-1.3-3.2-2-1.4-4.3C725.7,461.8,726,463.4,726,464.9L726,464.9z"/>
	<path fill="#FFFFFF" d="M719.7,135.6c0.2-1.1,0.4-2,0.5-2.9C721.8,133.7,721.8,133.7,719.7,135.6z"/>
	<path fill="#FFFFFF" d="M690.3,648.4c-1.5-0.1-3.1-0.3-4.6-0.4C687.3,647.5,688.9,647,690.3,648.4z"/>
	<path fill="#FFFFFF" d="M707.4,137c0.8,1.4-0.5,2.5-0.3,3.9C706.5,139.5,706.4,138.2,707.4,137z"/>
	<path fill="#FFFFFF" d="M715.2,138.3c0.4,1.8-0.6,2.1-1.4,2.9C713.1,139.3,714.2,139,715.2,138.3z"/>
	<path fill="#FFFFFF" d="M749.9,112.7c1.3,1.4,0.1,1.9-0.9,2.6C748.8,114.2,749.6,113.5,749.9,112.7z"/>
	<path fill="#FFFFFF" d="M737.5,124.6c1.3,0,2.4,0.3,3.4,1.3C739.4,126.3,738.5,125.3,737.5,124.6z"/>
	<path fill="#FFFFFF" d="M855.4,284.2c1.8,0.9,1.8,1.1-0.5,2.9c-0.1-0.1-0.2-0.2-0.3-0.4C854.9,285.9,855.7,285.2,855.4,284.2
		L855.4,284.2z"/>
	<path fill="#FFFFFF" d="M749.4,146.7c0.7-0.5,1.5-0.8,2.5-0.4C751.2,147.9,750.2,146.8,749.4,146.7z"/>
	<path fill="#FFFFFF" d="M840.3,284.6c0.7-0.4,1.4-0.4,2.2-0.1C841.7,284.8,841.1,285,840.3,284.6z"/>
	<path fill="#FFFFFF" d="M769.3,636.7c-0.6,0-1.3,0.3-2-0.3c0.8,0,1.4,0,2.1,0C769.7,636.5,769.7,636.6,769.3,636.7z"/>
	<path fill="#FFFFFF" d="M714.6,147.9c-0.5,1.1-0.4,2-1.6,2.1C713,149.1,713.4,148.6,714.6,147.9z"/>
	<path fill="#FFFFFF" d="M696.1,660.1c-1.1,0.1-1.7-0.1-2.2-0.8C694.9,658.6,695.5,658.6,696.1,660.1z"/>
	<path fill="#FFFFFF" d="M695,662.6c0.5-0.5,1.1-0.5,1.9-0.1C696.3,663.2,695.7,663.1,695,662.6z"/>
	<path fill="#FFFFFF" d="M735.1,123.9c-0.7,0.6-1.2,0.2-1.7-0.3C734.4,122.5,734.7,123.3,735.1,123.9z"/>
	<path fill="#FFFFFF" d="M712.5,138.4c-0.3,0.7-0.8,1-1.6,1.1C710.8,138.1,711.3,137.8,712.5,138.4z"/>
	<path fill="#FFFFFF" d="M773.7,636.6c0.5-0.3,1.1-0.5,1.7-0.2C775,637.3,774.3,636.8,773.7,636.6z"/>
	<path fill="#FFFFFF" d="M739.6,201.9c0-0.5,0-0.9,0-1.5C740,201,740,201.4,739.6,201.9z"/>
	<path fill="#FFFFFF" d="M715.1,136.7c-0.2-0.6,0.1-0.9,0.5-1.1C716.1,136.2,715.4,136.4,715.1,136.7z"/>
	<path fill="#FFFFFF" d="M746.3,126.4c0.8-0.9,1.1-0.3,1.3,0.2C747.2,126.9,746.9,126.9,746.3,126.4z"/>
	<path fill="#FFFFFF" d="M727.8,114.4c-0.6,0.5-0.9,0.1-1-0.5C727.4,113.5,727.7,113.8,727.8,114.4z"/>
	<path fill="#FFFFFF" d="M709.5,117.2c1.1-0.5,1.1,0.1,1.4,0.7C709.9,118.3,709.8,117.7,709.5,117.2z"/>
	<path fill="#FFFFFF" d="M745,270.3c0.3,0.3,0.5,0.6,0.8,1C745.1,271.5,744.8,271.1,745,270.3z"/>
	<path fill="#FFFFFF" d="M772.2,490.3c-0.3-0.6-0.4-1.2,0.7-1.4C773.2,489.6,772.7,489.9,772.2,490.3z"/>
	<path fill="#FFFFFF" d="M855.4,284.2c-0.5,0-1.1,0-1.8,0C854.4,283.4,854.9,283.5,855.4,284.2L855.4,284.2z"/>
	<path fill="#FFFFFF" d="M716.5,122.6c0,0.9-0.4,0.9-0.7,1.2C715.4,122.9,715.9,122.8,716.5,122.6z"/>
	<path fill="#FFFFFF" d="M704.3,157.8c0.5,0.1,0.6,0.5,0.6,0.9C704.2,158.6,704.2,158.6,704.3,157.8z"/>
	<path fill="#FFFFFF" d="M712.3,153c-0.3-0.5-0.4-1,0.4-1.2C713.1,152.4,712.9,152.7,712.3,153z"/>
	<path fill="#FFFFFF" d="M436.8,425.7c-1.1,0-1.1,0.9-1.4,1.5c-2.3,5.3-4.4,10.6-5.7,16.2c-0.8,3.3-2,6.6-2.8,10
		c-0.9,4.3-1.5,8.5-1.6,12.8c-0.2,5.5-1.2,10.8-3.9,16c-17.5,2-35.3,2.3-53.1,3c1-5.8,2.2-11.4,0.7-17.3c-1.5-5.7-1.1-11.6-0.4-17.5
		c1-8.3,1.4-16.6,1.6-24.9c0-0.7-0.1-1.3,0.4-2.1c3.3,0.3,6.4,1.9,9.9,1.7c19.6-1,30.8-14.8,29-33c-1.1-11.6-6.5-20.8-16.1-27.5
		c1-3.6,1.9-7.1,2.8-10.4c-0.4-0.8-1-0.6-1.5-0.7l0.1,0.1c0.3-3,2.3-1.1,3.8-1.3c-0.1-1.6-0.8-2.1-2.3-1.5c-1.3,0.5-2-0.5-2.9-1.8
		c-1.5,3.8-3.9-0.3-5.7,1.2c-0.4-0.7,0.3-1.9-1-2.5c-2,1.2-0.5,4.3-2.9,5.5c0-2,0-3.9,0-6.4c23.9,1.6,48,0.8,72,3.3
		c0.6,1.2,0,2.2-0.1,3.2c-2.3,0.1-2.3,0.1-3.4-1.8c-0.6,0-0.6,0.5-0.8,0.9c-0.1,0.3-0.3,0.5-0.4,0.7c-2.3,0.6-1.9-1.5-2.5-2.7
		c-1.1,1.2-0.7,2.2-0.5,3.2c0.9,0.9,2.2,1,3.4,1.5c0.3,5.2-0.1,10.7,4.8,14.4c0.2,0.4,0-0.2,0.1,0.2c0,0.1,0,0-0.2-0.2
		c-1.5-4.4-2.7-8.9-2.5-13.5c0.7-1.3,1.8-0.8,3-0.9c-0.2,5.2,4.8,6,7.2,9.1c-0.8-3.4-4.6-5.2-4.7-9c2-0.6,3.7,0.7,5.7,0.3
		c-0.9-1.6,0.1-2.9,0.6-4.4c2.7,6.4,7.6,11.6,7.2,19.3c1.2-1.3,0.4-2.5,1-3.6c3.3,3.3,1.5,8.3,4.2,11.8c-7.9,15.4-2.1,28.5,6.7,41.9
		c-0.9,7.4,0.7,15.3,1.8,23.3c1.6,11.3,3.4,22.8,1.2,34.4c-0.4,2.2,0,4.6-0.4,7.1c-2,0-3.9,0-5.9,0c-6.3,0.1-12.7,0.1-19,0.8
		c-8,0.9-15.3-1.8-22.9-3.5c-1.9-0.4-3.8-1.2-6.1-1.3c-0.7-5.5-2-10.8-2-16.4l-0.1,0.1c1.8,1.9,1.4,4.5,2,6.8
		c0.5,1.9,0.9,3.8,1.8,5.6c-0.5-7.4-3.2-14.3-5.4-21.3c1.3-0.3,2.1-0.5,2.9-0.7c2.8,4.7,4.5,9.8,7.2,14.5c-0.9-4.3-2.7-8.4-4.9-12.2
		c-2-3.5-2.4-6.8-1.7-10.8C434.4,439.8,435.2,432.7,436.8,425.7c0.9-2,1.2-3.9,0.6-6.1c-0.9-3.4,0.1-6.9,1.3-9.9
		c2.1-5.2,1-10.2,1-13.3c0.2,2.7,1.2,7.4-0.9,12.6c-1.6-1.6-0.9-2.9-1.1-3.7C438.4,411.9,437.6,418.8,436.8,425.7z"/>
	<path fill="#FFFFFF" d="M474.2,259.8c-0.7,2.5-2.6,4.4-3.8,6.9c-1.8,0.1-3.6,0.4-4.8,2c1.1,0.6,2.2-0.1,3.5,0.2
		c-4.1,18.9-2.8,38.4-5.6,57.4c-1.4,1-3,0.3-4.7,1.2c1.7,0.1,3,0.1,4.6,0.2c-0.2,6.3,0.8,12.4,1,18.9c-27.1-3.1-54.3,0-81.5-1.7
		c1-3.5,0.5-7.2,0.6-11c0.1-3.6-0.9-7.2-0.7-11.2c3.3-1.3,6.7-0.6,9.9-0.6c3.3,0,6.6,0.3,10,0.3c-6.4-1.1-12.9-2-19.7-1.2
		c0.1-6.6-0.3-13-0.4-19.4c-0.1-4.5-1.8-8.4-3.3-12.4c-0.8-2.1-0.3-3.5,1.4-4.9c-1.8-3.1,1.4-5.7,1.3-9.1c2,0.9,2.4,2.9,4.1,3.6
		c0.5-0.4,0.1-0.8-0.1-1.1c-2.8-3.4-2.9-7.1-2-11.2c0.6-2.7,0.7-5.5,0.3-8.2c1-1.1,2.6-1,3.3-2.2c2.2,1.7,4.1,3.3,7.1,3.8
		c-1.2-2-3.3-2.4-4.3-4.5c5.6-2.6,8.3-7.9,11.5-12.5c4.7-17,1-33.4-3.9-49.4c0.9-1.5,1.7-2.4,3.1-2.3c0.6,8.9,4.6,16.9,6.9,25.3
		c2.3,8.5,7,15.9,11.6,23.3c1.2-0.4,0.2-1,0.5-1.5c0.3-0.3,0.6,0,0.8,0.2c5.7,3.4,11.7,5.9,18.5,5.1c5.7-0.7,9.8-4.1,12.2-9
		c2.4-4.8,3.6-9.8,3.1-15.4c-0.5-6.3-1.1-12.5-3.8-18.7c1.8,0.6,1.9,1.8,2.2,2.7c2.8,9.8,5.1,19.7,7.6,29.6c1.6,6.4,3.1,12.9,5.9,19
		c1.2,2.8,3.2,5,5.2,7.3C472.8,260.5,473.5,259.8,474.2,259.8L474.2,259.8z"/>
	<path fill="#FFFFFF" d="M347.3,310.2c1.2,1.9,1.3,3.8,2.7,5.3c0.6-1.2,0.2-2.2,0.1-3.2c-1-6.8-0.9-13.5,0.4-20.4
		c1-5.1,0.3-10.6,0.4-15.9c0-0.9,0-1.8,0-3.3c2.3,3.8,1.9,7.7,2.7,11.4c0.5-3.1,1.4-6.1-0.7-8.9c-0.4-0.6-0.2-1.5-0.4-2.2
		c-0.6-2.1-0.2-4.2-1.5-6.4c-1.2-2.1-0.2-5.2,0.8-7.7c1.1-3,2.6-5.9,3.9-8.8c1.8-4,1.5-8.1,0.8-12c-1.3-6.9-0.2-13.5,1.9-20
		c0.3-0.8,0.6-1.8,1.2-2.3c3.6-2.7,6.3-6.5,10.8-8c4.4-1.5,8.5-3.6,12.3-6.4c3.7-2.7,8.3-4.2,12.7-6.3c2.3,10,4.9,19.7,5.3,29.9
		c0.2,4.4,0.9,8.7-0.3,13.2c-1.9,6.9-6.6,11.4-11.9,15.5c-1.2-2.1-2.1-4.1-1.4-6.5c0.4-1.3-1.4-1.9-1.3-4c-2.2,3.6-3.4,6.7-3.3,10.5
		c0.3,11.3-1.7,22.2-5.6,32.8c-0.9,2.5-2.8,4.5-4.1,6.8c-1,1.7-2.4,3.1-2.6,5.2c-0.7-2.2,0.2-4.5-0.3-6.7c-0.7,0.1-0.8,0.7-0.8,1.1
		c-1.2,6.8-3.4,13.4-1.6,20.6c1.6,6.6,1.8,13.4,2.4,20.1c0.1,1.5,0.2,3.2-0.2,4.6c-1.8,7.3-2.3,14.9-4.1,22.2
		c-0.3,1-0.8,2.1,0.1,3.2c-3.1,2.4-6.7,4-9,6.9c-5.2-15.8-9.6-31.9-10.4-48.7c-0.1-1.5-0.2-3.1,0-4.7
		C346.4,315,346.8,312.8,347.3,310.2z"/>
	<path fill="#FFFFFF" d="M474.3,259.9c-1.9-2.7-4-5.2-5.4-8.1c-1.2-2.5-2.2-5-2.4-7.9c-0.1-2.3-0.7-4.6-1.5-6.8
		c-2.6-6.9-4-14.1-5.1-21.3c-0.6-3.6-1.8-7-3.5-11c5.4,3.6,10.8,5.1,16.1,6.7c4.8,1.5,8.3,4.6,11.4,8.3c6.3,7.4,8.1,16,6.5,25.6
		c-0.6,3.9,0.3,7.7,1.5,11.4c0.5,1.7,1.3,3.3,2,4.9c2.1,5,2.3,9.9,0.6,15.2c-1.8,5.5,0.3,11.1,0.4,16.7c0.1,4.6,2.1,8.7,3.1,13
		c0.7,2.9,0.5,5.7,0.5,8.6c0,3.1-1.1,6.5,2,8.9c0.3,0.3,0.2,1.1,0.3,1.6c0.5,4.6,1.1,9.3,1.9,13.9c0.3,1.6,0.3,3.3,0.2,5
		c-0.2,5.5-1.2,11.1,1.1,16.4c0.3,0.8,0.2,1.8-0.3,2.9c-3.8-0.4-7.5,1.3-11.2,2.3c-2.6-8.3-4.4-16.5-8.5-23.9
		c-3-5.3-3.5-11.4-3.7-17.4c-0.3-7.8-2.6-15.3-3.6-22.9c-0.1-1.2-0.4-2.4-2-2.7c-1-0.2-1.1-1.2-1.5-2.1c-1.9-5.1-3.8-10.3-3.7-15.7
		c0.1-6,1.9-11.8,5.3-16.9c3-4.4,4.8-9.2,6-14.3c0.6-2.9,1-5.7,0.2-8.6c-0.3-1.2,0.1-2.2,0.1-3.3c0.1-1.4,0.4-2.8-0.1-4.4
		c-1.8,0.9-1.5,2.4-1.6,3.5c-0.7,6.2-1.3,12.4-3.7,18.2C475.3,257.1,474.8,258.5,474.3,259.9L474.3,259.9z"/>
	<path fill="#FFFFFF" d="M408.2,395.9c0.1,2.7-0.4,6.2-1.6,9.6c-5.3,15.9-23,21.8-36.8,12.3c-12.3-8.4-17.9-25.1-13.1-39.2
		c5.2-15.1,22-21.1,35.5-12.7C402.1,372,408.1,383,408.2,395.9z"/>
	<path fill="#FFFFFF" d="M532.2,398.4c0.1,3.6-0.5,7.1-1.6,10.5c-5.3,15.7-22.7,21.7-36.5,12.5c-12.6-8.4-18.3-25.5-13.2-39.7
		c5.4-15,22.3-20.9,35.7-12.1C527,376.2,531.8,386.2,532.2,398.4z"/>
	<path fill="#FFFFFF" d="M465.5,631.2c-0.9-1.4-2.2-2.2-2.5-4.1c4.7,0,9.4,0,14.1,0c1.5,1.9,0.4,4.6,2.2,6.8
		c-3.3-0.2-6.2-1.8-8.9,0.3c-1,0.8,0,1.6-0.2,2.4c-1.5,0.7-3.1-0.2-4.5,0.3c-0.1,2.4-0.1,2.4,4.3,3c-0.4,1.2-2.1,0.8-2.4,2.7
		c1.7,2,4.3,0.5,6.7,1.2c-0.6,1.8-0.3,3.3,2.1,3.2c1.8-0.1,3.5-0.4,5.4-0.6c-1.2,1.3-3.8,1.3-3.6,3.8c1.6,1.3,2.8-0.4,4.1-0.2
		c3,3.5,6.7,2.1,10.7,1.4c2.7,5.7,9.5,8.3,11.4,14.8c-2.2,3.8-5.5,5.2-9.4,5.9c-5.7,1.1-11.4,1.7-17.1,0.8c-3.2-0.5-6.2-0.8-6.9-5.2
		c-0.4-2.5-3.2-3.5-5.8-3.5c-2.2-0.1-4.4-0.2-6.6-0.6c-5-0.8-8.4-3.6-11.1-8c1.5-2.4,2.4-5,1.7-8c-0.2-1,0.5-2.5,1.3-3.3
		c2.8-2.9,2.8-6.5,3-10.4c1.7,3.9,4.7,4.5,8.2,3.5C464.6,636.6,464.6,633.7,465.5,631.2z"/>
	<path fill="#FFFFFF" d="M407.7,675c0.2-0.7,0.3-1.1,0.6-2.1c1.1,2.9,1.9,5.4,2.4,8.3c-10.1,0.5-19.9,4.3-29.7-0.3
		c-0.6-0.3-1.3-0.4-1.9-0.7c-0.6-0.2-1.4-0.1-1.6-0.4c-0.1-3.7-2-6.1-4.3-8.2c-3.2-2.9-3.9-8.9-0.8-12.2c1.5-1.6,2.2-3.3,1.1-5.4
		c-0.2-0.5-0.6-1.1-0.4-1.6c1.1-3.5,0.1-7.1,0.9-10.8c1.4,1.5,2.6,3,4.7,1.8c2-1.1,3.6-2.4,3.3-5.2c-0.2-1.7-0.2-3.5,0.3-5.5
		c3.9-0.8,7.8-2.1,11.6-2.4c0.9,0.7-0.1,1.2,0.4,1.8c1,0.6,1.2-1.5,2.4-1c0,4.4-2.2,8.5-2.2,12.8c-4,0.6-7.9,0.3-11.9,1.7
		c1.5,2-0.3,3.8,0.8,5.9c0.9,1.7,1.8,2.3,3.4,2.4c3.8,0.1,7.5,1.3,11.3,0.5c1-0.2,1.4,0.4,1.7,1.6c-4.6,0.3-9.2-1.7-13.7-0.3
		c0.1,2.1,1.9,1.8,2.5,2.8c0.8,1.2-0.6,2-0.5,3.7c4.6,2.4,9.6,2.8,15.1,1.6C404.6,667.6,406.1,671.2,407.7,675z"/>
	<path fill="#FFFFFF" d="M354.4,374.4c-3.9,6.7-5.1,13.5-4.1,20.7c0.3,2.3-0.9,4.4-0.8,6.8s0.8,4.2,3,5c1.7,0.7,2.6,1.9,3.5,3.4
		c2.9,4.8,7,8.6,11.7,11.4c-0.2,2.6-0.3,5-0.5,7.6c-5.5,1.7-10.6,0.8-15.5-1.5c-14.6-6.9-21.4-27-14.3-41.4
		C340.8,379.4,347.3,374.7,354.4,374.4z"/>
	<path fill="#FFFFFF" d="M489.7,367.1c-3.8,2.4-7.6,4.3-10.1,8.6c-1.5-3-2.9-5.7-4.1-8.5c-0.7-1.6-1.1-3.4-2.1-4.9
		c-2.4-3.8-4.3-7.7-3.5-12.4c0.3-1.8-1.2-2.5-2.3-3.1c-3.6-17.5,1-34.6,1.6-51.9c4.4,7.9,6.2,16.4,6.1,25.2
		c-0.1,8.8,2.9,16.8,7,24.4C486.2,351.6,487.9,359.2,489.7,367.1z"/>
	<path fill="#FFFFFF" d="M381.1,344.2c-2.8,1.9-2.5,4.6-2,7.2c0.6,3.1,0.5,6.2-1.8,9.2c-3-0.1-5.7,1.9-9.1,2.3
		c-0.5-3.2-0.4-6.1,0.5-9c2.1-6.6,2.3-13.4,2.6-20.3c0.4-8.2-1.3-16-2.1-23.9c-0.3-2.8,0-5.7,0-8.3c3.8-2.9,5.5-6.9,8.8-10.2
		c0.2,3.5,1.5,6.5,1,9.8c-0.4,2.7,0.4,5.3,0.4,8c0.1,8.3,0.1,16.6,0.3,25C379.7,337.2,379.4,340.7,381.1,344.2z"/>
	<path fill="#FFFFFF" d="M482.9,374.3c-11.8,17-3.3,44.1,16.5,51.5c-6.5,0.5-16.6-8.7-20.2-16.4
		C473.4,396.9,474.7,382.7,482.9,374.3z"/>
	<path fill="#FFFFFF" d="M358.9,371c-12.5,19.1-1.8,44.8,16.4,51.9c-10.4-2.7-17.2-9.5-21.2-19.3C349.4,391.7,351.6,377.5,358.9,371
		z"/>
	<path fill="#FFFFFF" d="M354,430.6c-19.7-3.1-29.8-31.5-16.8-47.4c-4.8,8.8-5.4,17.9-2.2,27.3C338.3,420,344.5,426.8,354,430.6z"/>
	<path fill="#FFFFFF" d="M463.6,631.3c-0.4,1.1-0.8,2.3-1.2,3.7c-2-1.3-4.7,1.1-6.4-1.6c-0.6-0.9,0.2-2-0.3-2.9
		c-0.6-0.4-0.9,0.3-1.5,0.4c-0.1-1.3,0.3-2.3,1.2-3.1c0.9-0.9,0.5-2.1,1.1-3.4c5.3-1,10.6-2.5,16.1-2.3c0.7,1.4,0,1.8-1,1.9
		c-2.3,0.2-4.6,0.4-7,0.6c-1.2,0.1-2.5,0-3.3,1.4C460.8,628.3,462.8,629.5,463.6,631.3z"/>
	<path fill="#FFFFFF" d="M394.7,353.5c-0.7,3.4-1.5,6.9-2.2,10.5c-3.4-1.5-6.7-2.8-10.3-3.4c0-4.1,3.4-5.8,6.1-8.1
		c1,0.2-0.3,2.1,1.2,2.5c1-0.5,0.1-1.8,0.7-2.3C392.3,351.2,393.3,353.2,394.7,353.5L394.7,353.5z"/>
	<path fill="#FFFFFF" d="M376.3,641.5c-1.3-1.1-0.9-2.6-1.7-3.7c2.2-1.6,0.4-6.7,5.2-5.4C381.2,638.4,380.5,640.6,376.3,641.5z"/>
	<path fill="#FFFFFF" d="M409.7,123.3c0.8-0.6,1.7-1,2.7-1.1c1.1,0.2,1.3,1.5,2.1,1.9c0.9,0.3,1.6-0.8,2.7-0.3
		c0.5,0.9-0.1,1.5-0.8,2.1c-3-1.3-3-1.3-6.9,0.5c-0.1-1.3,1.5-1.5,1.6-2.7C410.9,123.2,410.3,123.3,409.7,123.3L409.7,123.3z"/>
	<path fill="#FFFFFF" d="M456.9,353.5c-0.4-1.1,0.7-1.9,0.5-2.9c1.3-0.5,2.5-0.2,3.9,0.2c0.2,1.2-0.3,2.1-0.9,3.1
		c-1.1-0.4,0.2-1.7-0.9-2.1C458.2,351.6,458.9,354.3,456.9,353.5z"/>
	<path fill="#FFFFFF" d="M410.4,154.6c-1.2-1.6-3.5-3-1.1-5.1c1.3,0,1.6,1,2.3,1.6C411.2,152.3,410,153.2,410.4,154.6z"/>
	<path fill="#FFFFFF" d="M347.9,287.6c0.8,3.8-0.4,6.5-0.9,9.4C346.3,294,346.7,291.1,347.9,287.6z"/>
	<path fill="#FFFFFF" d="M381.5,357.5c-0.3-3.5-0.6-6.4,0.3-9.2C381.3,351.1,383.4,353.9,381.5,357.5z"/>
	<path fill="#FFFFFF" d="M421.9,127.5c0.1-2.4,2.3-2.9,3.5-4.3C425.3,125.5,423.2,126.2,421.9,127.5z"/>
	<path fill="#FFFFFF" d="M460.7,121.7c-0.9-0.8-0.8-1.7-0.6-2.5c0.7-0.4,1.5-0.4,2.5-0.3C462.1,120,461.7,120.9,460.7,121.7z"/>
	<path fill="#FFFFFF" d="M441.1,115.7c-1,1.3-1.9,1.9-2.9,2.6C438.2,115.8,438.2,115.8,441.1,115.7z"/>
	<path fill="#FFFFFF" d="M491.6,650.3c-1.9-0.4-3.2-0.7-4.5-1C489.4,647.6,489.4,647.6,491.6,650.3z"/>
	<path fill="#FFFFFF" d="M424.6,116.7c-0.6,2.1-2,2.1-3.4,1.9C422.2,118,422.9,116.9,424.6,116.7z"/>
	<path fill="#FFFFFF" d="M431.3,464.9c-0.9-1.2-3-2.1-1.5-4.3C431,461.8,431.3,463.3,431.3,464.9L431.3,464.9z"/>
	<path fill="#FFFFFF" d="M353.1,405.4c-1.7-0.8-1.8-2.1-1.7-3.7C352.9,402.6,352.4,404.2,353.1,405.4z"/>
	<path fill="#FFFFFF" d="M412.3,140.8c-0.3-1.4-0.7-2.7,0.4-4.3C413.8,138.4,412.2,139.6,412.3,140.8z"/>
	<path fill="#FFFFFF" d="M425.7,132.1c2.1,1.8,0.4,2.5-0.6,3.3C425.2,134.5,425.4,133.6,425.7,132.1z"/>
	<path fill="#FFFFFF" d="M391.2,647.8c1.5-0.4,3-0.6,4.5,0.1C394.2,648.5,392.7,648,391.2,647.8z"/>
	<path fill="#FFFFFF" d="M446.4,126c-1.6,0.2-2.6-0.6-3.6-1.5C444,124.6,445.2,124.9,446.4,126z"/>
	<path fill="#FFFFFF" d="M419.1,141c-0.8-1.6,0.2-2,1.3-2.6C421.2,140,420.1,140.4,419.1,141z"/>
	<path fill="#FFFFFF" d="M455.5,112.8c0,1.5,0,1.5-1.5,2.6C454.4,114.2,454.6,113.3,455.5,112.8z"/>
	<path fill="#FFFFFF" d="M384,254.5c1.5,1,2,1.7,0.5,2.7C383.7,256.4,384.1,255.6,384,254.5z"/>
	<path fill="#FFFFFF" d="M457.6,145.9c-1.2,1.9-2,1-2.9,0.9C455.4,145.9,456.3,146.3,457.6,145.9z"/>
	<path fill="#FFFFFF" d="M475,636.5c-0.9,0.4-1.8,0.3-2.7,0C473.2,636.2,474.1,636.2,475,636.5z"/>
	<path fill="#FFFFFF" d="M417.8,150.3c0.6-1,1-1.6,1.3-2.1C419.4,149,419.4,149.7,417.8,150.3z"/>
	<path fill="#FFFFFF" d="M401.2,660c-0.8,0.4-1.4,0-1.9-0.6c0.2-0.7,0.8-0.5,1.3-0.4C401.1,659,401.3,659.4,401.2,660z"/>
	<path fill="#FFFFFF" d="M416,139.4c0.2-1.4,0.9-1.3,1.8-1.1C417.5,139.1,417,139.5,416,139.4z"/>
	<path fill="#FFFFFF" d="M400.3,662.6c0.5-0.5,1.1-0.5,1.7-0.2C401.6,663.5,401,662.9,400.3,662.6z"/>
	<path fill="#FFFFFF" d="M481,636.4c-0.6,0.7-1.2,0.2-2.5,0.5C479.7,636.2,480.3,636.1,481,636.4z"/>
	<path fill="#FFFFFF" d="M439.2,123c0.7-0.2,0.9,0.3,1.3,1C439.6,124.1,438.6,124.6,439.2,123z"/>
	<path fill="#FFFFFF" d="M444.9,202.5c0-1.1,0-1.5,0-2C445.4,201,445.2,201.4,444.9,202.5z"/>
	<path fill="#FFFFFF" d="M417.7,153c-0.3-0.5-0.4-1,0.4-1.2C418.5,152.4,418.2,152.7,417.7,153z"/>
	<path fill="#FFFFFF" d="M421.6,122.6c0.3,0.6,0,0.8-0.5,1c-0.1,0-0.2-0.1-0.2-0.1C420.8,122.9,421.2,122.8,421.6,122.6z"/>
	<path fill="#FFFFFF" d="M420.2,136.9c0-0.8,0.2-1.1,0.7-1.3C421.4,136.2,420.9,136.5,420.2,136.9z"/>
	<path fill="#FFFFFF" d="M415.9,118.1c-0.6,0.1-0.8-0.4-1.1-0.8c0.5-0.5,0.8-0.3,1.1,0.1C416.1,117.6,416.3,117.9,415.9,118.1z"/>
	<path fill="#FFFFFF" d="M432.1,113.6c0.5,0.2,0.8,0.2,0.9,0.4c0.2,0.3,0,0.6-0.4,0.6C432.4,114.6,432.2,114.4,432.1,113.6z"/>
	<path fill="#FFFFFF" d="M453.1,126.5c-0.6,0.4-0.9,0.3-1.3,0C452.3,125.5,452.6,126.2,453.1,126.5z"/>
	<path fill="#FFFFFF" d="M477.6,490.2c-0.3-0.7-0.4-1.3,0.7-1.2C478.4,489.7,478.1,490,477.6,490.2z"/>
	<path fill="#FFFFFF" d="M410.2,158.9c-1.1-0.1-0.8-0.6-0.8-1.1C410.1,158,410.2,158.3,410.2,158.9z"/>
	<path d="M675.4,377.2c-1.9,1-1.9,2.9-4.1,3.4c3.5-7.8,7.8-14.9,7.4-23.9c3.2,1.3,3.1,3.2,3,5.1c-0.4,4.3-2.2,8.1-4.4,11.7
		c-0.9,1.4-1.1,2.7-1.2,4.4c-0.3,7.2,0.2,14.4,1.3,21.6c0.3,2.2,0.2,4.4-0.8,6.5c-1.4,2.9-1.5,6-1.7,9.1s-0.5,6.2-1.6,9.1
		c-1.7,4.6-0.7,8.9,1,13.2c0.8,2.1,2,4.1,0.8,6.8c-0.8,1.7,1,4,0.8,6.5c-1.1-2.9-2-5.4-1.8-8.2c0.1-2.1-0.7-3.9-1.5-5.8
		c-1.7-4.2-1.9-8.4-0.4-12.7c1-3,1.5-6.1,1.6-9.1c0.2-3.6,0.7-7.1,2.3-10.3c0.5-1,0.7-2.1,0.5-3.2c-0.9-3.9-1.1-7.9-1.5-11.9
		C674.7,385.5,674.8,381.6,675.4,377.2z"/>
	<path d="M712.7,436.2c-0.8,2.6-2.4,4.7-4,6.8c-5,6.9-8,14.7-10.6,22.8c-1.3,3.9,0.2,7.9-0.8,11.9c-3,0.2-6.3,1.8-8.6-1.8
		c-1-1.7-1-3.4,0.2-5c1.8-2.4,4.2-2.5,7-1.4c0.7-2.6,1.4-5.2,2.1-7.7c2.6-9.5,7.9-17.5,13.9-25.1
		C712.1,436.4,712.4,436.4,712.7,436.2L712.7,436.2z"/>
	<path d="M731.5,425.7c0.4-2.6,0.5-5.2-0.3-7.8c-0.6-1.9,0.8-3.8,0.7-5.9c-0.1-3.5,0-7,0.3-10.5c1.1,1.9,0.5,3.9,1.2,5.7
		c1.2-6.3,0.5-12.5-0.5-18.8c2,2.8,2,6.1,2.3,9.2c0.6,5.2,0.1,10.4-1.8,15.4c-1.1,2.8-1.2,5.8-0.1,8.9
		C732.8,423.1,732.1,424.3,731.5,425.7L731.5,425.7z"/>
	<path d="M675.1,475.6c0.5,0.9,0.9,1.7,1.5,2.6c-2.8,1.1-2.6-2.9-4.7-2.5c-1,0.8,0.1,2-0.6,2.8c-0.5,0.3-1,0.4-1.8,0
		c-0.4-2.6-0.2-5.3-0.3-7.8c0.5-1.5,2.8-0.8,2.5-2.7c0.3,0.8,0.4,1.3,1.4,1.6C677.2,470.6,677.7,472,675.1,475.6z"/>
	<path d="M682.2,469.4c2.8-0.1,4.9,2,4.9,4.7s-2.2,4.8-4.9,4.8c-2.5,0-4.7-2.2-4.8-4.6C677.3,471.8,679.5,469.5,682.2,469.4z"/>
	<path d="M707.5,371.6c-0.1-6.3-1.7-12.6,0.3-18.9C709.2,359,708.5,365.3,707.5,371.6z"/>
	<path d="M735.6,417.4c6.5,6,13.3,11.5,20.1,17.1C748,429.9,740.9,424.7,735.6,417.4z"/>
	<path d="M732,432.9c1.2,7.4,5.1,13.2,6.6,20C735.3,448.4,731,436.3,732,432.9z"/>
	<path d="M713,354.4c0.7,4.9,1.4,9.7,2.2,14.6c-0.3,0.1-0.7,0.1-1.1,0.2c-0.1-5-2.9-9.6-2.1-14.7C712.4,354.5,712.7,354.4,713,354.4
		z"/>
	<path d="M719,450.1c0.7,3.7-0.6,7.1-1.9,10.5C716.8,457,718,453.6,719,450.1z"/>
	<path d="M695,361.9c1.4,2,1.2,2.8-2.8,9.5C692.3,367.8,695.2,365.4,695,361.9z"/>
	<path d="M757.2,374.6c1.3,3.4,2.7,6.8,4,10.1C759.1,381.6,757.1,378.5,757.2,374.6z"/>
	<path d="M732.5,354.5c0,4.1,0,8.2,0,12.3C732.2,362.7,731.6,358.6,732.5,354.5z"/>
	<path d="M689.4,353.5c0.4,0.1,0.8,0.1,1.5,0.2c-0.4,2.2-0.9,4.1-2.1,5.9c-0.7-2.2,0.3-4.2,0.7-6.2L689.4,353.5z"/>
	<path d="M705.2,352c-1.7,0.8-3.4,1.5-5.4,0.7C701.6,352.1,703.2,351.3,705.2,352z"/>
	<path d="M695.3,371.3c1,1.4,0.3,2.5-0.4,3.6C695.6,373.7,694.1,372.3,695.3,371.3z"/>
	<path d="M719.8,353c-1.7,0.9-3.3,1-5,0C716.5,353,718.1,353,719.8,353z"/>
	<path d="M727.6,420.4c-0.8,0.9-1.6,1.7-3.2,2.2c0.9-1.2,1.7-2.1,2.8-2.6c0.2-0.1,0.4-0.1,0.6-0.2
		C727.7,420,727.6,420.2,727.6,420.4z"/>
	<path d="M743.4,400.2c-1.3,0.2-2.1-0.5-3-1.3C741.6,398.8,742.7,399.1,743.4,400.2L743.4,400.2z"/>
	<path d="M738.3,350.6c0.8,1.1,0.2,1.6-0.5,2.4C737.4,352,737.1,351.3,738.3,350.6z"/>
	<path d="M734.2,352.6c-0.8-0.8-0.8-1.4,0.1-2.1C735.1,351.3,735,351.9,734.2,352.6z"/>
	<path d="M743.3,400.3c0.8-0.1,1.7-0.2,2.2,1C744.6,401,743.8,401.1,743.3,400.3L743.3,400.3z"/>
	<path d="M716.6,463.1c0,0.4-0.1,0.8-0.2,1.3C715.8,463.9,716.1,463.5,716.6,463.1z"/>
	<path d="M727.2,420c0.5-0.6,1-1.2,1.9-1.1c0.2,1.2-0.8,1.2-1.5,1.6C727.4,420.3,727.3,420.1,727.2,420z"/>
	<path d="M732.2,351.5c-0.9,0.9-1.3,0.4-1.8,0.4C731.2,350.5,731.4,351.7,732.2,351.5z"/>
	<path d="M672.3,465.3c0-0.3,0-0.5,0-0.8C672.7,464.8,672.4,465,672.3,465.3z"/>
	<path d="M712.7,436.2c-0.2-0.9,0.4-1.4,1.2-2.1C713.9,435.3,713.5,435.8,712.7,436.2L712.7,436.2z"/>
	<path d="M719.5,241.4c-0.2-0.2-0.5-0.7-0.2-0.8c1.9-0.4,3.8-1.2,5.8-0.4c1.6,4.3,0.9,6.5-3.1,9c0.9,2.4,1.5,4.9,0.5,8
		c-2.5-3.1-5.6-3.1-8.8-2.8c-2,0.2-4.1,0.5-5.9-1.3c4.3,0,8.6,0,12.8,0c0.4-1.2,0.2-1.9-0.3-2.5c-5.2-0.5-10.6,0.5-15.6-1.9
		c4.8-0.1,9.6,0.2,14.4,0.1c-0.1-5.4-0.4-5.8-5.6-5.7c-2.7,0.1-5.3,0.4-8,0.5c-1.3,0.1-2.6,0-3.6-1.7c2.6-0.1,4.9-0.2,7.1-0.3
		c2.2-0.2,4.4-0.4,6.8-0.6c-0.3-1.6-1.2-2-2.6-1.9c-1.4,0.1-2.9,0-4.3,0.2c-2.4,0.4-4.8,0.6-7-0.5c-1.7,0.8-1.9,2.7-3.3,3.5
		c-0.8-2,0.3-4.4,2.6-4.7c4.4-0.6,8.8-1.1,13.2-0.6c2.2,0.2,2.8,1.2,2.8,4C717.8,241.5,718.6,241.6,719.5,241.4c0,0.5,0.3,1,0.9,1.2
		C719.8,242.3,719.6,241.9,719.5,241.4z"/>
	<path d="M665,214.6c2.7-4.2,5.3-8.6,10.9-9.5c-0.7,2.9-3.7,3-5.3,4.9c-1.5,1.9-3.1,3.7-4.7,5.5C665.6,215.2,665.3,214.9,665,214.6z
		"/>
	<path d="M651.3,292.3c2.5-1.5,4.6-2.8,6.8-4.2C657.2,290.6,656.5,291,651.3,292.3z"/>
	<path d="M659.7,278.6c1.4-1.4,2.9-2.3,5.3-2.3C663.4,278.4,661.3,278,659.7,278.6z"/>
	<path d="M700.8,255c1.2,1,1.9,1.9,1.8,3.3C700.5,257.4,700.5,257.4,700.8,255z"/>
	<path d="M699.9,248.5c0.7,1.4,0.9,2.4,0.7,3.7C698.8,251.3,698.1,250.4,699.9,248.5z"/>
	<path d="M671.4,244.3c-1.1,0.9-2.3,1.6-4,1.1c0.9-1.9,2.5-1.2,3.8-1.3L671.4,244.3z"/>
	<path d="M700.1,246.6c-1.3-1.2-1.9-1.9-1-2.9C700.4,244.2,700,245.1,700.1,246.6z"/>
	<path d="M664.8,245.1c-0.5,1.4-1.2,1.2-2.1,1C663.2,245.3,663.8,245.1,664.8,245.1z"/>
	<path d="M657.4,247.5c-0.6,1.1-1.3,1.6-2.4,2C655.4,248.2,655.9,247.6,657.4,247.5z"/>
	<path d="M656.1,229.1c0.3,0.6,0,1-0.6,1.3C655.1,229.7,655.2,229.2,656.1,229.1z"/>
	<path d="M659.6,222c0.4,1,0,1.4-0.7,1.7C658.5,223,658.5,222.4,659.6,222z"/>
	<path d="M641.5,297.2c0.3-0.9,0.7-1.2,1.5-0.8C642.7,297.1,642.3,297.4,641.5,297.2z"/>
	<path d="M645.1,286.7c0.4-0.9,1-1.3,2.2-1C646.6,286.3,646.2,286.9,645.1,286.7z"/>
	<path d="M647.2,294.3c-0.3,1-0.9,1.1-1.6,1.2C645.7,294.4,646.4,294.5,647.2,294.3z"/>
	<path d="M651.4,253c-0.1-0.8,0.3-1.1,0.9-1.3C652.9,252.7,652.5,253.1,651.4,253z"/>
	<path d="M637.8,283.6c0.4,0.7,0.3,1.1-0.2,1.3C637.3,284.5,637.4,284.2,637.8,283.6z"/>
	<path d="M642.1,290.6c-0.3-0.7-0.1-1,0.8-1C643,290.2,642.7,290.6,642.1,290.6z"/>
	<path d="M687.9,215.4c-0.1,0.1-0.3,0.4-0.4,0.4c-0.4,0-0.6-0.2-0.5-0.6c0-0.1,0.4-0.2,0.6-0.2C687.7,215,687.8,215.2,687.9,215.4z"
		/>
	<path d="M736.4,311.7c1.5,8.3,1.2,11.2-1.8,13.3C735.6,320.5,733.8,316.1,736.4,311.7z"/>
	<path d="M734.9,333.3c-1.9,2.2-1.5,5.4-3.9,7.5c1.2-3.9,2.4-7.8,3.8-12.3C735.3,330.6,734.3,332,734.9,333.3L734.9,333.3z"/>
	<path d="M737.6,305.9c3.4-0.6,6,0.7,9.4,0.3C743.5,307.8,740.8,308,737.6,305.9z"/>
	<path d="M734.8,333.4c1,3.5,0.8,7-0.3,10.4C733.2,340.2,735.1,336.8,734.8,333.4L734.8,333.4z"/>
	<path d="M727.3,316.5c1.3-0.2,2.7-0.8,3.8,0.7C729.5,318.1,728.4,317.1,727.3,316.5z"/>
	<path d="M685.3,324.6c-0.8,0-1.7,0-2.5,0v-0.1C683.6,324.5,684.4,324.5,685.3,324.6C685.3,324.5,685.3,324.6,685.3,324.6z"/>
	<path d="M753,267.7c-1.3,0.8-1.9,0.4-2.6-0.5C751.4,266.8,752.2,266.8,753,267.7z"/>
	<path d="M755.7,267.1c1.3-1,2-0.7,2.8-0.2C757.7,268.2,757,267.4,755.7,267.1z"/>
	<path d="M691.5,325.2c-0.5,0-1,0-1.5,0l0,0C690.4,325.2,690.9,325.2,691.5,325.2L691.5,325.2z"/>
	<path d="M748.9,305.9c0.7-0.6,1.3-0.6,1.9,0C750.1,306.6,749.5,306.5,748.9,305.9z"/>
	<path d="M775.4,305.5c-1.2,0.9-2.3,1.1-3.7-0.1C773.2,304.4,774.3,305,775.4,305.5z"/>
	<path d="M796.6,296.7c-0.5,2.1-2.3,1.8-3.8,2C793.7,297.5,795.1,297,796.6,296.7L796.6,296.7z"/>
	<path d="M804.3,281.9c-1,1.8-2.2,1.9-4,2.3C801.4,282.7,802.6,282.5,804.3,281.9z"/>
	<path d="M773.2,228.7c1.8,1.2,1.7,2.2,1.5,3.6C773,231.5,773.7,230.3,773.2,228.7z"/>
	<path d="M800.9,278.7c-0.6,1.3-1.3,1.5-2.4,0.8C799.2,278.8,799.7,278.2,800.9,278.7z"/>
	<path d="M792.8,281.9c0.1,1.1-0.5,1.1-1.1,1.4C791.3,281.9,792.3,282.2,792.8,281.9z"/>
	<path d="M779.9,281c0.5,1.1-0.3,1.4-1,1.9C778.5,281.8,779,281.5,779.9,281z"/>
	<path d="M768.7,286.2c0.8,0.2,1.2,0.6,1,1.4C768.9,287.5,768.6,287.1,768.7,286.2z"/>
	<path d="M797.4,286.4c-0.1,0.7-0.5,0.8-1.1,0.8C796.2,286.2,796.7,286.1,797.4,286.4z"/>
	<path d="M767.7,289.1c-0.5,0.1-0.9-0.2-0.9-0.6c-0.1-0.4,0.2-0.6,0.6-0.4C767.9,288.3,768,288.7,767.7,289.1z"/>
	<path d="M777.8,291.1c0.3,0.7-0.1,1-0.8,0.9C776.8,291.2,777.1,291,777.8,291.1z"/>
	<path d="M727.6,300.2c2.4-1.9,4.6-2.7,6.6-3.8c4.4-2.3,7.6-5.7,9.6-10.2c2.2-4.8,0.6-10.3-3.7-13.3c-3.4-2.4-7.3-3.8-11.4-4.4
		c-11.6-1.6-22.5,0-32.3,7c-5.2,3.7-8.5,8.6-8.5,15.7c-1.4-3.7-0.2-8.3,2.7-11.8c6.9-8.2,16-11.6,26.2-12.6
		c6.7-0.6,13.3-0.2,19.6,2.6c2.5,1.1,4.8,2.4,6.7,4.2c3.2,3,4.3,7.8,2.4,11.9c-2.2,4.9-5.5,8.9-10.3,11.3
		C733.1,298.1,730.9,299.7,727.6,300.2z"/>
	<path d="M725.4,293.9c-2.8,2.1-6,2.7-9.4,2.3c-4.6-0.5-6.3-4-4.7-8.9c0.8-0.7,0.8,0.2,1.1,0.6c2.5-3.2,5.8-4.7,9.8-4.4
		c4.6,0.4,6.4,2.9,5.1,7.4C727.5,292.5,725.8,292.8,725.4,293.9z"/>
	<path d="M716.2,303.2c-1.2,0.5-2.4,1.2-4.1,0.6C713.6,302.5,714.9,302.9,716.2,303.2z"/>
	<path d="M725.4,293.9c0.3-1.2,1-2.2,1.9-3C728.2,293,726.3,293.1,725.4,293.9z"/>
	<path d="M724.1,301.6c0.6-1,1.5-0.8,2.4-1C726,302,724.9,301.4,724.1,301.6z"/>
	<path d="M688.8,294.2c1.4,0.2,1.4,1.3,2.2,2.6C689.1,296.3,689.4,295,688.8,294.2z"/>
	<path d="M719.6,303.3c0.8-1.2,1.7-1,2.7-1.1C721.7,303.3,720.8,303.3,719.6,303.3z"/>
	<path d="M819.8,262.6c-0.7-0.2-1.1-0.7-1-1.8C820,261,820.3,261.5,819.8,262.6z"/>
	<path d="M816.3,255.2c0.6-0.1,0.9,0.1,1,0.6C816.1,256.5,816.6,255.4,816.3,255.2z"/>
	<path d="M819.4,295.4c1.4-3.9,12.5-7,16-4.6C833.6,294.6,823.3,297.6,819.4,295.4z"/>
	<path d="M418,436.2c-0.8,2.7-2.5,4.9-4.1,7.1c-5.1,7.1-8.2,15.1-10.6,23.4c-1.1,3.6,0.5,7.2-0.6,10.9c-2.9,0.2-6.3,1.8-8.5-1.8
		c-1.1-1.7-1-3.4,0.2-5c1.8-2.4,4.2-2.5,7-1.4c0.7-2.4,1.3-4.7,1.9-7c2.5-9.6,7.8-17.7,13.8-25.5C417.3,436.5,417.5,436.1,418,436.2
		L418,436.2z"/>
	<path d="M436.8,425.7c0.4-2.7,0.4-5.4-0.4-8.1c-0.5-1.8,0.8-3.8,0.8-5.9c-0.1-3.4,0-6.8,0.3-10.2c1.1,1.9,0.5,3.9,1.2,5.8
		c1.1-6.3,0.5-12.5-0.5-18.8c2,2.8,2,6.1,2.3,9.2c0.6,5.2,0.2,10.4-1.8,15.4c-0.9,2.1-1.2,4.5-0.6,6.5
		C438.8,422.1,437.9,423.8,436.8,425.7L436.8,425.7z"/>
	<path d="M374.8,478.7c-0.4-2.8-0.3-5.6-0.2-8.3c0.7-0.9,2.3-0.6,2.4-2.2c0.4,0.5,0.2,1.1,1,1.4c4.8,1.4,5.1,2.3,2.6,6.2
		c0.1,1,1.4,1.5,1.1,2.7c-2.5,0.8-2.3-2.8-4.3-2.7C375.9,476.3,378.1,479.4,374.8,478.7z"/>
	<path d="M387.6,478.9c-2.6,0-5-2.4-4.9-4.9c0.1-2.6,2.4-4.7,5.1-4.6s4.6,2,4.6,4.6C392.5,476.7,390.3,478.9,387.6,478.9z"/>
	<path d="M412.6,372.6c0.5-6.6-1.6-13.4,0.6-19.9C414.4,359.4,414,366.1,412.6,372.6z"/>
	<path d="M461,434.5c-7.7-4.5-14.7-9.8-20.1-17.1C447.4,423.3,454.2,429,461,434.5z"/>
	<path d="M443.7,452.9c-2.5-6.4-6.4-12.3-6.8-19.4C438.6,440.2,442.5,446.1,443.7,452.9z"/>
	<path d="M418.4,354.4c0.7,4.9,1.4,9.7,2.2,14.6c-0.4,0.1-0.7,0.1-1.1,0.2c0-5-2.9-9.5-2.1-14.7C417.7,354.5,418,354.4,418.4,354.4z
		"/>
	<path d="M422.1,460.9c0.1-3.9,1.2-7.3,1.8-10.8C425.2,451.9,424.3,457.3,422.1,460.9z"/>
	<path d="M437.9,366.6c-0.4-4-0.9-8,0-12.1C437.9,358.6,437.9,362.6,437.9,366.6z"/>
	<path d="M462.7,374.7c1.1,2.9,2.2,5.7,3.4,8.9C463.5,380.5,462.6,378.2,462.7,374.7z"/>
	<path d="M379.8,440.7c-0.4,3.3,1.4,6.4,1.5,10.4C379.9,447.2,378.8,444.1,379.8,440.7z"/>
	<path d="M410.5,352c-1.7,0.7-3.4,1.6-6,0.9C406.9,352,408.6,351.4,410.5,352z"/>
	<path d="M445.7,398.9c1.9,0.1,3.5,1.1,5,2.1C448.9,400.8,447.2,400.1,445.7,398.9z"/>
	<path d="M434.7,419.3c-1.5,1.1-2.9,2.2-4.4,3.3c0.8-1.8,2.2-3,3.8-3.9C434.3,418.9,434.5,419.1,434.7,419.3z"/>
	<path d="M425,352.9c-1.6,0.9-3.2,1.1-4.8,0C421.8,352.9,423.4,352.9,425,352.9z"/>
	<path d="M443,352.8c-0.3-0.9-0.7-1.7,0.7-2.1C444.3,351.7,444,352.3,443,352.8z"/>
	<path d="M439.7,352.7c-1.1-1-0.8-1.6-0.1-2.2C440.5,351.3,440.1,351.9,439.7,352.7z"/>
	<path d="M421.9,463.1c0,0.4-0.1,0.8-0.2,1.3C421.2,463.9,421.5,463.5,421.9,463.1z"/>
	<path d="M437.2,351.9c-0.5,0.3-1,0.3-1.4-0.4C436.6,350.8,436.9,351.4,437.2,351.9z"/>
	<path d="M456,369.5c0.7,0.3,0.9,0.9,1.2,1.6C456.1,371,456,370.3,456,369.5L456,369.5z"/>
	<path d="M377.7,465.2c0-0.2,0-0.5,0-0.7c0,0,0,0,0.1,0C377.7,464.7,377.7,465,377.7,465.2L377.7,465.2z"/>
	<path d="M418.1,436.2c-0.2-0.9,0.3-1.4,1.2-2.2C419.2,435.2,418.9,435.8,418.1,436.2L418.1,436.2z"/>
	<path d="M440.1,324.9c0.6-4.4-0.7-8.7,1.4-12.9C443.4,317.2,442.9,323,440.1,324.9z"/>
	<path d="M386,265.7c1.7,2.9,3.4,5.8,6.5,7.4C387.3,272.5,385.1,270.1,386,265.7z"/>
	<path d="M440.2,333.3c-1.2,1-1.1,2.5-1.6,3.8s-0.7,2.7-1.6,3.9c-0.3-2.1,1.4-8.1,3.3-11.9C440.7,330.6,439.6,332,440.2,333.3
		L440.2,333.3z"/>
	<path d="M441.4,308.7c0-4.1,0-8.1,0-12.2c0.3,0,0.6,0,0.9,0C442.6,300.6,442.1,304.6,441.4,308.7z"/>
	<path d="M432.1,262.5c2.1-1.4,2.9-3.8,4.5-6C437.8,259.7,436.8,261,432.1,262.5z"/>
	<path d="M442.9,305.9c3.4-0.7,6,0.7,9.4,0.3C448.8,307.8,446.1,308,442.9,305.9z"/>
	<path d="M440.2,333.4c1.2,3.5,0.5,7-0.2,10.4C438.6,340.2,440.4,336.8,440.2,333.4L440.2,333.4z"/>
	<path d="M437.8,305c-2.9,1-5.6-0.1-8.2-1.2C432.3,304.1,435.2,303.5,437.8,305z"/>
	<path d="M443.1,275.8c0.2,2.1,0.8,4.4-1,6.9C441.1,279.8,442.7,277.9,443.1,275.8z"/>
	<path d="M402.2,263.8c-1.7,0.2-3.1-0.4-4.4-2C400.1,261.2,401,262.9,402.2,263.8z"/>
	<path d="M436.5,317.3c-1.6,0.7-2.7-0.1-4.6-0.9C433.9,316.3,435.3,315.8,436.5,317.3z"/>
	<path d="M419.2,304.5c1.6-0.3,2.6-0.5,3.7,0.6C421.5,305.9,420.6,305.7,419.2,304.5z"/>
	<path d="M390.7,324.6c-0.9,0-1.8,0-2.6,0v-0.1c0.8,0,1.7,0,2.5,0L390.7,324.6z"/>
	<path d="M386.9,281.8c1.2,0,1.6,0.8,2.2,1.8C387.8,283.4,387.3,282.8,386.9,281.8z"/>
	<path d="M396.2,276c-1.6-0.1-2.4-0.6-2.9-1.8C394.8,274.1,395.5,274.6,396.2,276z"/>
	<path d="M455.6,267.3c1.1-0.5,1.8-0.4,2.5,0.1c0,0.9-0.6,0.9-1.1,0.8C456.6,268,456.2,267.7,455.6,267.3z"/>
	<path d="M464.1,267.2c-1.3,0.5-2,0.3-3.1-0.2C462.4,266.2,463.1,266.3,464.1,267.2z"/>
	<path d="M400.1,277.2c-1.7,0-2.2-0.5-2.7-1.4C398.6,275.2,399,276.1,400.1,277.2z"/>
	<path d="M407.5,265.2c-0.9,0.5-1.6,0.6-2.1-0.5C406.3,264.1,406.9,265,407.5,265.2z"/>
	<path d="M415.7,266.2c-1,1-1.4,0.3-2-0.2C414.6,265.4,415.1,265.5,415.7,266.2z"/>
	<path d="M396.5,325.3c-0.4,0-0.8,0-1.2-0.1c0,0,0,0,0-0.1C395.7,325.2,396.1,325.2,396.5,325.3
		C396.5,325.2,396.5,325.3,396.5,325.3z"/>
	<path d="M443.1,292.4c0.4,0.6,0.4,1.2-0.1,1.8C442.7,293.6,442.6,293,443.1,292.4z"/>
	<path d="M456,305.8c-0.6,0.7-1.1,0.7-1.7,0.2C454.8,305,455.4,305.8,456,305.8z"/>
	<path d="M384.8,237c-0.7,3.4-2.6,6-5.2,7.7c-2.9,1.9-5.5,4-8.2,6.1c-0.7,0.6-1.5,1.2-2.9,1.3c1-2.8,3.2-4.2,5.3-5.4
		c2.2-1.3,4.2-2.8,6-4.6C381.5,240.5,382.2,237.9,384.8,237z"/>
	<path d="M351.5,332.4c-2.1-5.1-1.6-10.3-0.3-15.4C351.5,322,351,327.2,351.5,332.4z"/>
	<path d="M373.8,211.8c1.4-3.5,3.1-6.6,7.6-6.6C379.8,208.4,375.6,208.8,373.8,211.8z"/>
	<path d="M374.5,264.6c0.1-4,0.7-7.8,3-11.3C376.4,257.1,375.4,260.9,374.5,264.6z"/>
	<path d="M364.9,306.2c-1.5-1.6-1.7-3.4-1.5-6C365,302.4,364.8,304.4,364.9,306.2z"/>
	<path d="M369.9,219.6c-0.6-1.5-0.3-2.7,1-4.1C371.6,217.5,370.3,218.4,369.9,219.6z"/>
	<path d="M358.9,249.1c0.7,1,1.2,2.1,0.9,3.5C358.4,251.5,358.9,250.2,358.9,249.1z"/>
	<path d="M361.4,290.8c1.1,1.5,1.4,2.5,0.8,3.8C360.9,293.6,361.3,292.5,361.4,290.8z"/>
	<path d="M351.9,338.1c1.4,0.8,1.4,1.9,1,3.2C352.6,340.2,352.3,339.2,351.9,338.1z"/>
	<path d="M365.2,253.5c0.3,1.3-0.5,1.9-0.9,2.7C364,255.1,363.9,254.2,365.2,253.5z"/>
	<path d="M367.1,224.4c0.5,0.7,0.2,1.1,0.1,1.5C366.6,225.5,366.9,225.1,367.1,224.4z"/>
	<path d="M491.6,315.2c-0.5-2.1-2-3.7-2.9-5.5c-0.7-1.4-0.9-2.5,0.7-3.1c-0.5-2-2.9-3.2-1.8-5.6c2-0.1,2.2,1.6,2.8,2.8
		c1.6,3.1,1.4,6.6,2.4,9.9C493,314.5,492.6,315.1,491.6,315.2L491.6,315.2z"/>
	<path d="M489.3,288.5c0.2,6.1-3,13.1-8,12.7c1.4-2.1,3.6-2.8,5.2-4.4c0.9-2.6,0.7-5.5,2-8C488.4,288.6,488.8,288.6,489.3,288.5z"/>
	<path d="M487.9,254.2c0,4,0,8.1,0,12.1c-0.2,0-0.5,0-0.7,0C485.8,262.3,487.6,258.3,487.9,254.2z"/>
	<path d="M488.4,240.2c-0.8,2.2,0.1,4.7-1.6,7.3C486.6,244.4,486.6,242.1,488.4,240.2z"/>
	<path d="M491.5,315.1c1.9,1.7,1.7,4.1,1.6,6.4C491.8,319.6,491.7,317.4,491.5,315.1L491.5,315.1z"/>
	<path d="M491.2,282.3c-0.3,2.1-0.4,3.8-1.8,5.4C489.1,284.9,489.2,284.6,491.2,282.3z"/>
	<path d="M491.8,280c-1.5-1.7-0.7-2.7,0-4.2C492.3,277.3,492.1,278.4,491.8,280z"/>
	<path d="M493.9,340.2c-0.5,0-1-0.2-0.8-0.9C493.4,339.6,493.6,339.9,493.9,340.2z"/>
	<path d="M498.3,351.3c0-0.3-0.1-0.6-0.1-0.9C498.7,350.6,498.5,351,498.3,351.3z"/>
	<path d="M361.3,374.8c0.3,1-0.4,1.7-0.7,2.5c-7.1,15.3,1.9,30,11.2,36.6c3.9,2.7,8.2,4.2,13,4.8c7,0.8,11.6-3.2,15.5-8
		c2.2-2.8,4.2-6,4.9-9.7c0.5,1.2,0.2,2.4-0.3,3.5c-2,4.9-4.9,9.2-9.1,12.5c-3.7,2.9-8,3.7-12.6,3.1c-17.1-2.4-33-23-23.5-43.3
		C360.2,376,360.3,375.1,361.3,374.8L361.3,374.8z"/>
	<path d="M390.8,384c2.7,2,3.1,5.1,3,8.1c-0.1,3.1-4.4,6.1-8.3,6c-3-0.1-5.1-1.8-6.4-4.6c-1.4-2.9-1.6-5.9,0.5-8.5
		c1.8-2.2,4.2-3.1,7.1-2.2c0.4,0.1,0.9,0.1,1.3,0.1C389.3,382.5,389.7,384.2,390.8,384z"/>
	<path d="M390.8,384c-1.4,0.9-1.9-0.4-2.7-1c-3.8-3-6.8-0.5-10,1.9C380.6,379.6,386.6,379.4,390.8,384z"/>
	<path d="M406.3,397c0.1,0.3,0.2,0.6-0.2,0.7C405.9,397.4,406,397.1,406.3,397z"/>
	<path d="M361.4,374.9c-0.1-0.8,0.4-1.1,1.4-2.1C362.3,374,362.3,374.8,361.4,374.9L361.4,374.9z"/>
	<path d="M485.3,378.2c0.3,1-0.4,1.7-0.7,2.5c-7.1,15.2,1.8,30,11.2,36.6c3.9,2.7,8.2,4.2,13,4.8c7,0.8,11.6-3.2,15.5-8
		c2.2-2.8,4.2-6,4.9-9.7c0.5,1.2,0.2,2.4-0.3,3.5c-2,4.9-4.9,9.2-9.1,12.5c-3.7,2.9-8,3.7-12.6,3.1c-17.1-2.4-33-23-23.5-43.3
		C484.2,379.4,484.3,378.4,485.3,378.2L485.3,378.2z"/>
	<path d="M514.8,387.3c2.7,2,3.1,5.1,3,8.1c-0.1,3.1-4.4,6.1-8.3,6c-3-0.1-5.1-1.8-6.4-4.6c-1.4-2.9-1.6-5.9,0.5-8.5
		c1.8-2.2,4.2-3.1,7.1-2.2c0.4,0.1,0.9,0.1,1.3,0.1C513.3,385.8,513.7,387.6,514.8,387.3z"/>
	<path d="M514.8,387.3c-1.4,0.9-1.9-0.4-2.7-1c-3.2-2.1-4.5-2-9.8,1.5C504.6,382.9,510.6,382.7,514.8,387.3z"/>
	<path d="M530.3,400.3c0.1,0.3,0.2,0.6-0.2,0.7C529.9,400.7,530,400.5,530.3,400.3z"/>
	<path d="M485.4,378.2c-0.1-0.8,0.4-1.1,1.4-2C486.3,377.4,486.3,378.1,485.4,378.2L485.4,378.2z"/>
	<path fill="#FFFFFF" d="M693.8,476.3c-2.6,0-3.6-1.2-3.5-3.1c0-1.5,1-2.6,2.5-2.6c1.8-0.1,2.8,1,2.8,2.8c-0.3,1.3-1.4,0.2-1.9,0.8
		C692.9,474.8,693.6,475.4,693.8,476.3z"/>
	<path fill="#FFFFFF" d="M671.7,471.6c1.7,0,1.7,0,2.9,0.8c-0.2,1.8-1.5,1.4-2.5,1.5C671.2,473.3,671.3,472.6,671.7,471.6z"/>
	<path fill="#FFFFFF" d="M682.2,477c-1.7-0.2-2.8-1.3-2.7-3.1c0.1-1.6,1.1-2.8,2.8-2.7c1.8,0.1,2.8,1.3,2.7,3.1
		C685,475.9,684,476.9,682.2,477z"/>
	<path fill="#FFFFFF" d="M719.5,241.4c1.2,1.3,2.8-0.3,4.1,0.5c0.7,3.6,0.3,4.3-2.9,4.7C721,244.7,720,243.1,719.5,241.4
		L719.5,241.4z"/>
	<path fill="#FFFFFF" d="M718.6,293.2c-0.4,0-0.9-0.1-1.5-0.2c-1.6-0.3-3.1-0.9-3.5-2.6c-0.3-1.6,0.8-2.7,2.1-3.5
		c2.7-1.7,5.5-2.4,8.5-1.1c2.3,0.9,2.7,2.9,1.1,4.8C723.6,292.5,721.3,293.1,718.6,293.2z"/>
	<path fill="#FFFFFF" d="M716.4,294.6c-0.4,0.3-1.2,0.3-1.1,0C715.4,294,716,294.5,716.4,294.6z"/>
	<path fill="#FFFFFF" d="M829.9,292.8c-1.2,1.2-2.8,1.4-4.4,1.5l0.1,0.1C826.7,293,828.3,292.8,829.9,292.8L829.9,292.8z"/>
	<path fill="#FFFFFF" d="M825.5,294.3c-1.1,0.5-2.3,0.6-3.6,0.4C823,292.6,824.3,294.3,825.5,294.3L825.5,294.3z"/>
	<path fill="#FFFFFF" d="M830,292.9c0.6-1.2,1.5-1.8,3.2-1.4C832.1,292.5,831.1,292.8,830,292.9L830,292.9z"/>
	<path fill="#FFFFFF" d="M400.9,473.8c-1.6,0.1-3.1,0.1-1.8,2.3c-2.1,0.6-3.2-0.5-3.5-2.3c-0.3-1.6,0.6-2.9,2.3-3.1
		C399.8,470.3,400.9,471.5,400.9,473.8z"/>
	<path fill="#FFFFFF" d="M376.9,473.9c0.2-2.9,0.2-2.9,3-1.6C379.8,474.2,378.5,474,376.9,473.9z"/>
	<path fill="#FFFFFF" d="M387.7,477c-1.8-0.2-2.8-1.2-2.8-3c0-1.6,1.1-2.8,2.7-2.8c1.8,0,2.9,1.2,2.8,3
		C390.4,475.8,389.5,476.9,387.7,477z"/>
	<path fill="#FFFFFF" d="M390.3,390.6c0,3.1-2,5.6-4.5,5.5c-2.8,0-5.6-3.2-5.6-6.4c0-3.1,2-5.5,4.6-5.5
		C387.6,384.4,390.2,387.3,390.3,390.6z"/>
	<path fill="#FFFFFF" d="M392.5,391.9c-0.5-1.1-0.2-2.2-0.7-3.2c-0.4-0.9-0.6-1.8-0.8-2.7C392.6,387.7,393.2,389.7,392.5,391.9z"/>
	<path fill="#FFFFFF" d="M508.6,387.6c2.9,0,5.6,3,5.7,6.3c0,3.1-2,5.6-4.5,5.6c-2.8,0-5.6-3.2-5.7-6.3
		C504,390,506,387.6,508.6,387.6z"/>
	<path fill="#FFFFFF" d="M514.7,388.7c2,2.3,2.4,4.3,1.8,6.6C516.3,393.2,515.5,391.3,514.7,388.7z"/>
	<path d="M724.4,290.3c-1.4,1.2-2.9,1.9-4.9,1.8c0.8-1.3,2.4-0.9,3.1-2c-0.7-1.4-0.7-1.4-6.3-0.4c1.5-2.2,3.5-3.3,5.9-3.1
		C724,286.7,724.6,288.2,724.4,290.3z"/>
	<path d="M382.6,392c1.1,0.1,1.6,1.4,2.8,1.3c1.9-0.3,2.1-1.9,2.3-3.6c0.9,2.2,0.3,4.3-1.3,5C383.9,395.7,383.5,393.5,382.6,392z"/>
	<path d="M512,392.8c1.3,2.7,0,4.1-1.6,5.3c-1.2,0.8-1.9,0.2-4-2.8c1.4,0.1,2,1.7,3.2,1.4C511.4,396.3,511.6,394.7,512,392.8z"/>
</g>
</svg>
