<?xml version="1.0" encoding="utf-8"?>
<!-- Generator: Adobe Illustrator 19.1.0, SVG Export Plug-In . SVG Version: 6.00 Build 0)  -->
<svg version="1.2" baseProfile="tiny" id="Layer_2" xmlns="http://www.w3.org/2000/svg" xmlns:xlink="http://www.w3.org/1999/xlink"
	 x="0px" y="0px" width="900px" height="600px" viewBox="144 97 900 600" xml:space="preserve">
<g>
	<path d="M415.2,166.1c-1.2,1.7-2.1,3.4-2.1,5.8c-3-3.1-3.5-7.3-5.1-10.9c-1.6-3.6-4.5-6.6-5.7-10.7c-3.4,0.5-5.2-4.2-8.9-1.8
		c-0.4-1.2,1-1.1,1-1.9c-0.7-0.6-1.4-1.3-0.8-2.3c-6.1-2.2-12.4,2-18.8-0.9c-0.1,5.1-1.4,9.7-2.7,14.2c9.1,4.9,10.1,6.3,7.9,11.2
		c-1-0.9,0-2.3-1.1-3.4c-2,0.5-4-0.2-6.2-1c-1-2.3-1.4-5-2.2-7.5c-0.6-1.9,1.2-3.1,1.3-4.9c0.2-3.1,0.6-6.2,0.9-9.2
		c-0.8-1.6-2.1-2.5-3.5-3.4c-1.4-0.8-2.9-1.5-4.1-2.9c0.4-1.1,0-2.4-0.1-3.5c1.7-1.4,3.3-0.1,4.9-0.4c-0.7-1.5-3.1-1.2-3.5-3.3
		c2-2.4,3.7,0.1,5.5,0.5c0.5-2-0.9-4.4,0.9-6.3c1.5,0.6,1.8,2.3,3.6,2.7c1-1.3,2.8-1.6,4.2-0.9c3.6,1.7,7.5,1.1,11.2,1.2
		c2.8,0.1,5.5,0,8,0c1.6,0.4,1.6,2.3,3.3,2.7c0.5-1.6,1.2-3.2,4-3c0.3,0.1,0.5,1.2,1.3,1.6c1.1-0.3,1.5-1.9,3.1-1.7
		c1.7,1,0.9,3.8,3.1,4.8c1.3-1.3,2.7-2.5,4.9-1.9c0.6,1.9-1.3,2.3-1.7,3.7c0.8,0.9,1.9,1.7,3.1,2.2c-1,2.4-0.5,3.2,3.4,5.2
		c0,1.5-1.7,1.3-2.5,2.4c1.3,1.3,2.2,2.7,2.1,4.7c0,1.1,0.4,2.3,0.9,3.3c2.2,4.3,2,8.7,0.3,13.1c-0.8,2.1-1.6,4.3-0.9,6.6
		c0.3,1,0.2,2.1-0.4,3c-1.7,2.6-0.7,5.8-2,8.3c-3,5.8,0,12.1-1.9,17.8c0.3,1.2,1.1,1.8,2.1,2.5c3.5-2.9,6.4-6.6,10.2-9.2
		c3.7-2.7,7.5-5.3,11.9-7c2.5-9.1,4.7-18.3,8.2-27.1c2.1-5.3,4.4-10.6,8.2-14.7c4-4.3,5.2-9.4,6.1-14.7c0.3-1.8,0.6-3.6,1.1-5.4
		c1.2-4.3,2.6-8.5,1.8-13.1c-0.4-2.1-0.1-4.5,2.1-7c-0.2,6.6,1.5,12.5-0.8,18.4c-1.8,4.5-3.4,9.1-3.9,13.9c-0.2,1.7-0.6,3.4-1.7,4.8
		c-8.7,11.1-14.1,23.7-16.9,37.5c-1.6,8-3.2,16-4,24.2c-0.6,6-1.7,11.9-3.6,17.6c-0.5,1.4-0.5,2.8-0.1,5c2.7-4.2,5-7.8,7.4-11.5
		c-1.4,6.2-6.7,10.4-8.4,16.4c8.1-4.1,13.1-10.9,17.6-18.3c-1.5,6.1-5,10.9-9.7,15.2c1.5,1,3.3,0.3,4.3,1.8
		c-1.8,0.6-3.4-0.7-5.4-0.3c-1.7,0.7-2.7,3.5-5.5,2.9c-4.4,12.1-8.4,24.1-13.7,35.8c6.8,7.1,14.7,11.9,25,13.3
		c-0.1-2.1,0.9-3.5,1.8-4.9c5.2-8.9,8.7-18.3,8.8-28.8c0.1-7.2,2.5-13.7,6.5-19.7c2.9-4.4,5.8-8.9,7.5-14c0.4-1.3,1.2-2.6,2.1-3.6
		c7.2-8.3,9.4-18.3,10-28.8c0.4-7.2-0.2-14.3-1.6-21.3c-0.3-1.3-0.8-2.6,0.2-4.5c1.7,4,2.5,7.7,2.5,11.4c0,1.7,0.4,2.9,2.1,3.5
		l-0.1-0.1c-0.9,1.8-0.8,3.8-0.8,5.8c0,8.6-1,17-4.2,25.1c-1,2.5-2.2,4.8-3.8,6.9c-7.6,9.4-12.4,20.4-17.1,31.4
		c-0.8,1.8-1,3.9-0.8,5.8c1.1,11.9-3,22.2-9.4,31.9c-1.4,2.2-2.2,4.5-2.7,7c-1.9,10.7-3.6,21.4-7.9,31.5c-1.9,4.6-3.3,9.6-2.3,14.8
		c0.4,2.1-0.1,4.4-1.3,6.3c0.9,1.4,1.4,2.8,0.9,4.3c-0.1,0.4-0.2,1-0.1,1.4c2.2,5.7,1.4,11.8,2.4,17.7c0.3,2.1,1.6,3.9,1.7,5.9
		c0.1,3.4,0.8,6.4,2.6,9.2c0.7,1.1,0.4,2.7,0.2,4.1c-0.4,2.4-0.3,4.8,0.1,7.2c0.8,5.2,0.7,10.4,0,15.5c-1.3,10.2-1.1,20.5-2,30.8
		c-0.3,3.5-1.1,6.8-2.6,10c-2.3,5-3.5,10.2-3.6,15.7c-0.2,5-1.2,9.9-1.1,14.8c0,2.7-2.2,4.5-2.2,7.2c-7.2,3-14.5,0.1-21.8,0.5
		c-3.1,4.8-5.5,10.2-9.9,13.5c1.2,8.3-0.6,15.7-4.5,22.5c-1.9,3.3-2.6,6.4-2.3,10.1c1.1,15.4-1.9,30.1-8.5,44
		c-1.2,2.6-2.1,5.4-3.5,7.9c-1.6,2.9-1.8,6.9-5.6,8.2c-0.2,0.1-0.2,0.4-0.3,0.6c-5.9,10.2-13.1,19.6-18.7,29.9
		c-3.5,6.4-5.8,13.3-8.7,20c-1.1,2.5-0.2,5.5-2.5,7.4c2.1,2.6,2.2,5.8,2.2,8.7c0,2.5,0.1,4.8,1.2,7s0.7,3.6-1.5,5.2
		c-5.1,3.7-10.6,7.1-14.1,12.6c-0.4,0.7-1.2,1.3-1.3,2c-1.2,4.9-4.7,6.9-9.3,8.1c-4.9,1.3-9.9,2.5-14.5,4.5
		c-1.1,0.5-2.2,0.3-3.4,0.2c-3.3-0.2-6.7-0.7-10-0.5c-3.2,0.2-5.3-0.9-6.8-3.6c-0.7-1.3-1.6-2.5-2.5-3.9c-1.9,1.7-3.9,3.1-6.5,2.8
		c-8.3-0.9-17.7,1.7-23.4-8.4c1.7-5.8,4.1-12.1,9.5-16.8c1.7-1.5,3.5-3.1,5.3-4.4c1.6-1.2,2.6-2.8,3.8-4.3
		c4.5-5.5,6.7-12.7,12.8-16.9c0.2-1.4-0.7-2.5-0.9-3.7c-0.6-4.3-0.3-4.9,3.9-6c0.6-0.2,1.1-0.2,1.5-0.8c1.2-1.6,2.8-1.4,4.4-0.9
		c2.5,0.7,5.1,1.3,7.7,1.6c1.4-1.7,1.1-4,2.6-5.7c0.7,2.3,0.7,2.3,0.1,5.7c0.6,0.9,1.5,0.8,2.6,0.6c1.2-3,1.6-6.3,3.7-9.1
		c0.8,3.4-0.7,6.5-1.1,9.7c0.8,1.3,3,1.4,2.7,3.6c-2.1,0.6-3.8-1.2-6.3-1c1.4,1.8,0.6,3.3-0.6,4.7c-1.1,1.2-1.4,3.3-3.9,3.1
		c0.6-1.9,2.1-3.2,2.4-5.4c-4.6-1-8.9-3.7-14.1-1c-0.9,0-1-1.3-2-2c-0.4,2.8,0.8,5.2,0.3,7.8c4.3,0.6,8.6,0.6,12.9,3
		c-1.3,1.2-2.3,0.8-3.3,0.6c-3.2-0.5-6.4-1-9.6-1.5c-1.3-0.2-2.5-0.4-3.3,1.3c5.2,1.2,10.8,0.7,15.8,3.6c-1.3,1.9-2.9,0.9-4.1,1.3
		c0.2,1.4,2.4,1.5,2.1,3.4c-0.6,1.6-1.9,0.9-3.1,0.6c-4.9-1.2-9.9-2.3-14.8-3.5c-0.8,0.5-1.1,1.1-1.2,2.3c5.8-0.2,11.2,0.9,16.2,3.8
		c-0.2,2.6-2.1,1.9-3.6,2.3c0.3,2.3-1.3,2.6-3,2.6c-4.9,0.2-9.6-1-14.1-3.8c-1.8,3.8-5.1,5.8-8.1,8.1c-5.8,4.4-9,10.3-11,17.3
		c3.6,1.9,6.2,5.7,10.9,5.6c4.9-0.2,9.9,0.9,14.5-1.5c0.7-0.4,1.5-0.7,1.9-1.4c4.5-7.7,11.2-13.9,15.7-21.7
		c2.7-4.7,5.6-9.4,7.9-14.3c1.4-3,3.6-5.6,5.9-7.7c1.5-10.3,2.1-20.6,5.4-30.3c2-5.8,4.2-11.7,7.4-17.1c2.7-4.5,5.2-9,7.2-13.8
		c0.4-1,1.1-2,1.8-2.9c2.2-2.6,3.5-5.6,4.3-9c0.9-3.6,1.8-7.2,2.9-10.7c2.1-6.5,2.2-13.2,2.3-19.9c0.1-5.8,1.3-11.4,1.8-17.2
		c0.3-3.1,2-5.9,3.7-8.5c4.6-7.4,7.6-15.4,9.7-23.9c0.9-3.8,1.8-7.5,2.4-11.6c-1-0.9-2-2-1.7-3.6c-0.9-0.4-1.8-0.6-2.3-1.1
		c-4.1-4.3-9.7-5-15-6.3c-2.3-0.5-4.5-1.5-7.3-2.5c0.1,5.5-0.4,10.7,0.9,16.4c-2.4-2.9-3.9-10.4-3.8-17c-2.9-1.6-7-2.6-10.7-2.6
		c-0.4,2.1,0.2,4.1,0.6,6c1.3,6.4,2.8,12.8,2.8,19.3c0,2.1-0.4,4.2-1.9,5.8c-0.9,1-1.3,2.2-1.2,3.5c0.4,6.7-3.2,12.4-4.4,19.1
		c2.9,3.8-1.9,8.2,0.3,12.3c-1,0.9-1.2-0.5-1.7-0.4c-3.1,2.6-4.3,6-5.3,9.6c-2.2,8.6-3.2,17.5-5.9,26c-3.9,12.3-4,25-5.2,37.6
		c-0.8,8.6-1.6,17.2-4.2,25.6c-0.3,0.9-0.4,1.8-1.4,2.4c-1.2-1.3-0.7-2.8-0.4-4.2c1.2-5.6,2.4-11.3,3.2-17c0.9-6.3,0.7-12.7,1.2-19
		c1-13.9,3.8-27.4,6.5-41c3.2-4.5,3-10.2,5.3-15.1c0.8-1.8,1.9-3.4,3.1-4.9c3.3-4.4,3.1-9.6,3.3-14.7c0.1-1.8,0.3-3.5,1-5.1
		c1.6-3.6,2.8-7.3,2.3-11.4c-0.2-1.7,0.5-3.2,1.6-4.5c1.4-1.6,1.9-3.5,1.9-5.4c-0.1-4.2-0.1-8.5-2.1-12.5c-0.9-1.7-1.2-3.5-1.5-5.3
		c-0.9-6.4-1.2-12.7,0.2-19.3c1.7-8.2,5.1-16,5.8-24.5c0.2-2.7,1.2-5.4,2.5-7.9c3.4-6.3,4.9-13.4,8.2-19.8c0.8-1.6,0.9-3.4,0.5-5.4
		c-0.9-4.4-0.8-8.6,2-12.5c2.8-4,5.8-7.8,9.4-11.1c1.3-1.2,2.2-2.5,2.2-4.5c0-1.6,0.3-3.4,1.4-4.5c1-1,0.8-2.1,0.8-3.2
		c0.1-5.8-1-11.5-1.5-17.2c-0.9-9.1-0.8-18.2-2.8-27.2c-1.8-8.1-3.8-16.2-5.7-24.3c-0.7-2.8-1.4-5.6-1.3-8.5
		c0.1-2.5-1.5-4.2-2.1-6.4c-3-12.1-5.4-24.3-4.8-36.9c0-0.7,0.2-1.4,0.1-2.1c-0.3-2.9-0.1-6-3.3-7.8c-0.8-0.5-1.3-1.6-2-2.4
		c-3.9-4.7-7-9.9-11.1-14.5c-2.8-3.1-4.2-7.2-5-11.3c-1.1-6.4-2.9-12.6-4.1-18.9c-1-5.3-1.3-10.8-0.9-16.2c0.1-2,0-3.8-1.2-5.6
		c-0.7-1-1.3-2.4-1.2-3.6c0.3-3.3-1.8-5.8-2.7-8.7c-3.1-11.1-6.4-22.2-6.8-33.8c0-0.7,0-1.4,0.5-1.9c1.3-0.1,1.1,1,1.2,1.7
		c0.4,9.5,3.1,18.6,5.4,27.8c0.4,1.7,1.2,3.2,1.9,4.8c2,4.6,3.2,9.5,3.8,14.4c1.6,13.7,2.2,27.5,6.9,40.7c1.5,4.2,3.2,8.2,6.2,11.5
		c2.5,2.8,3.8,6.3,5.9,9.3c1.4,2,2.9,4,4.8,5.4c2.7,2,3.5,4.6,3.6,7.8c0.4,12,1.3,24,3.9,35.7c0.3,1.5,0.6,2.9,1.6,4.6
		c1.8-3.1,3.1-6.2,5-8.7c0.1-1.8-1-3.3-0.1-4.9c1.8,0,0.9,1.7,1.7,2.2c0.2-0.1,0.4-0.1,0.6-0.2c2.8-2.7,3.1-6.6,4.8-9.8
		c3.9-7.1,7.1-14.5,9.3-22.3c1.4-5,3.7-9.7,6.6-13.8c-1.8-5.5-3.1-11-6.1-15.9s-7.1-8.6-12.5-11.6c0.4,3.1-0.8,5.7-0.7,8.6
		c0.2,9.8-1.6,19.3-3.2,28.8c-0.9,5-0.9,10.1-0.2,15.2c0.7,5.5,1.9,11.1-0.3,16.6c-1.4-0.4-0.9-1.5-1-2.3c-0.4-6,0.1-12-1-17.9
		c-0.7-4-1.8-7.6-4.3-10.9c-3.5-4.6-4.1-10.2-4.1-15.9c1.9,6.6,4,13,8,19c0.4-2.9,0.4-5.7,1.3-8.2c2.5-7.4,1.7-15.1,2.5-22.6
		c0.3-3.1,0.5-6,1.4-9.1c1.3-4,0.1-8.3-1-12.3c-1.9-6.9-4.8-13.3-8.6-19.4c-3.3-5.2-7.6-9.2-12.9-12.2c-1.7-0.9-2.5-2.3-1.9-4.8
		c1.4,2.5,2.9,4.3,5.7,4.7c-0.8-12.4-1.5-24.7-8.2-36.1c3.2,1.6,6.6,8.3,8.9,17c1.7,6.4,1.5,13,1.6,19.7c4.8,3.3,7.8,8.1,10.1,13.3
		c2.5,5.6,6.3,10.5,7.4,16.7c0.2,0.9,0.5,1.9,0.4,2.7c-0.8,5.6,2.5,9,6.6,11.5c7.3,4.5,10.3,11.5,12.4,19.2c0.3,1.2,0.3,2.5,1.4,3.9
		c0.9-1.7-0.2-3.6,1.1-5c-2.1-1.4-2.8-3.4-3.6-5.4c-2.4-5.7-4.4-11.3-4.3-17.6c0-1.2-0.7-2.4-1.2-3.6c-1.6-3.8-0.2-7.3,0.8-10.9
		c1.9,12.3,2.3,24.8,8.2,36c5.5-0.3,10.8,0.7,15.9-1.3c-3.8,4.9-9,3.6-14.1,2.8c-0.6,4.1,1.1,8,0.4,11.9c-0.8,0.6-0.8-0.8-1.5-0.4
		c-2.8,4.3-4.4,8.8-3.6,14.3c0.8,5.1,0.6,10.4,0.9,15.6c0,0.1,0,0.2,0,0.3c0.2,2.4,5.2,6.1,9.5,6.7c2.4,0.3,3.9-1.2,4.8-3.2
		c1.7-3.5,3.3-7.1,5-10.7c1.9-4.2,3.7-8.5,6.9-11.9c1.1-1.2,1.6-2.7,1.8-4.5c-3.5,4.2-7,8.5-10.5,12.7c-0.2-0.1-0.4-0.3-0.6-0.4
		c1.9-3,3.8-6.1,5.8-9.1c1.8-2.6,3.6-5.1,5.5-7.5c1.7-2.1,3.1-4.2,6-5.2c3.2-1.1,4.5-4.7,6.9-7.2c-1.9-1.9-2-3.9-2-6.3
		c-0.1-5.9-0.1-11.8-0.3-17.6c-0.1-2.1-0.8-3.8-3.2-4.8c1.4-1.1,3.7-0.7,3.5-3.1c-0.6-0.4-1.7,0.4-2.5-0.8
		C415.9,170,414.7,168.1,415.2,166.1v-0.2V166.1z"/>
	<path d="M647.5,389.8c0.1,1.4-0.9,1.8-1.9,2c-2.3,0.5-4.3,1.6-5.7,3.5c-0.1,0.2-0.3,0.4-0.5,0.5c-6.5,2.5-12.2,7.2-19.5,7.2
		c-4.5,0-8.8-1.7-12.8-3.7c-1.1-0.6-2.2-1.5-2.5-2.8c-0.9-3.7-3.9-6.2-4.8-10.4c-1.6,2.8-2.8,5.2-4.1,7.5c1.8,0.7,3-0.8,4.5-0.5
		c-1.6,2.5-3.5,3.2-7.4,2.3c4.3-7.1,9.3-14.1,5.9-22.9c0.9-0.7,0.9,0.4,1.7,0.6c1.9-6.9,4.9-13.5,7.3-20.3c1.5-4.4,1-8.9,0.1-13.3
		c-1.1-5-1.7-10.1-2.1-15.4c0.5,0.2,0.8,0.3,0.9,0.4c2.4,7.7,3.9,15.7,4.9,23.7c0.4,3.1-0.6,6.2-1.8,9.1c-1.7,4-3.3,8.2-5.2,12.1
		c-3.2,6.5-2.4,13-0.1,19.5c0.8,2.4,2.6,4.4,1.9,7.1c3.6,3.2,8,3.8,12.1,4.2c2.9,0.3,5.4-1.9,6.6-4.8c2.4-5.9,4.3-11.9,5.7-18.1
		c0.3-1.3,0.2-2.5-0.1-3.7c-0.9-3.6-1.8-7.2-2.6-10.8c-0.4-1.8-0.7-3.6-0.3-5.6c1.7,0.3,1.1,1.9,1.9,2.8c-1.7-9.5,3.2-17.4,6.4-25.6
		c3.6-9.5,5.5-19.4,5.2-29.4c-0.2-7.4-2.4-14.7-4-22c-3.8-1.1-7.5-1-11.1-1.4c-2.5-0.3-7.1,3-7.7,5.5c-1.1,4.2-3.3,7.6-6.1,10.8
		c-4.8,5.4-7.2,11.4-6.7,18.7c0.1,1.9-0.5,3.9-0.3,5.8c0.2,2-1.9,2.6-2.7,4.1c-2,3.5-5.3,6-6.6,10.1c0.6-3.2,0.7-6.5,2.7-9.2
		c2.6-3.5,4.3-7.5,4.2-11.9c-0.2-7.6,1.6-14.4,7.4-19.6c-0.4-2.1-0.8-3.9-1.2-6.2c-1.6,2.3-0.5,4.9-1.9,7.3c-0.3-6.3-0.7-12.2-1-18
		c0.3-0.1,0.7-0.2,1-0.2c3.3,3.2,3.4,7.7,4.4,12.4c2.5-3.7,4.6-6.9,7.2-9.8c1.3-1.5,2.7-2.3,4.8-2.1c4.1,0.4,8.3-0.9,12.4,0
		c3,0.7,5,2.2,6.4,5.1c2.5,5.1,5.4,9.9,6.4,15.6c0.9,5,1.2,10.1,1.8,15.1c0.6,5.5,1.1,11,1.5,16.5c0.2,1.8,1.2,3.3,2.2,4.6
		c2.2,2.7,4.3,5.4,7.1,7.6c2.7,0.7,5.1,2,7.1,4c2.3,2.2,5.5,2.4,8.5,2.4c5.3,0,10.5,0,15.8-0.9c5.1-0.9,10.5-1.1,15.8-1
		c1.5,0,3.3,0,3.6,2.3c-3.1,2-6.5,1.2-9.2,1.4c3.5,0,7.4-0.4,11.4-2c4.5-1.7,9.5-2.9,14.6-1.9c2.6,0.5,5.3,0,7.8-0.9
		c3.5-1.2,6.6-3.2,10.2-4.5c-4.2-3.6-9.6-3.6-13.2-0.2c-1,1-2.1,1.9-3.7,1.3c-0.4-0.1-0.7-0.4-0.9-0.7c-0.1-0.2-0.3-0.4-0.3-0.6
		c-1.1-5.5-3.6-7.4-9.1-5.9c-6.3,1.8-13,1.9-19.1,4.5c-2.9,1.3-6.2,1.6-9.5,1.5c-6.7-0.3-13.3,1-19.9,1.9c-3.5,0.5-6.8,0.7-10.1-0.7
		c0.5-1.4,1.6-1.9,2.9-2.1c7.9-1.3,15.7-2.3,23.7-2.4c4.8-0.1,9.6-0.2,14.1-2.5c2.2-1.1,4.6-1.3,7.1-1.5c2.3-0.2,4.6-0.4,6.8-1.3
		c6.5-2.7,12.3-1.5,17.6,3.2c3.7-3.1,7.9-2.3,11.8-1.1c6.3,2,12.7,3.1,19.1,4.6c2.5,0.6,4.8,1.1,6.8,3c1.6,1.7,4,1.6,6,0.7
		c0.8-0.4,1.5-0.5,2.3-0.3c3.6,1.1,7.2,1.6,10.9,1.8c7.5,0.5,11.4,5.2,14.3,11.3c0.2,0.5,0.5,1.1,0.7,1.6c0,0.1,0.2,0.2,0.4,0.4
		c1.7-0.2,3.6-0.5,5.7-0.2c-1.7,1.3-3.7,0.7-5.4,1.2c-0.7,0.8-0.1,1.6,0,2.3c0.9,7.1-0.3,14.1-0.9,21.1c-0.5,5.6-1.5,11.2-2.9,16.7
		c-0.5,1.9-0.5,3.8,0.6,5.7c1.5,2.6,0.1,5.7,0.8,8.8c2,0,2.8,1.5,3.4,3.3c1.8,5,0.9,9.8-0.5,14.8c-2-0.8-1.5-2.4-1.2-3.7
		c0.7-4.1,1.2-8.2-0.4-12c-0.8-1-1.8-0.1-2.7-1.3c-0.9-1.8,0.1-4.3-0.4-6.9c-2.9,9.7-4.6,19.7-13.2,26.6c2.3-0.2,4.6-0.5,7-0.6
		c4-0.2,8.1-0.6,12,0.7c1,0.3,1.9,0.6,2.8,1.2c6.5,4,13.5,4.5,20.7,2.9c3.4-0.8,6.4-2.7,8.7-5.4c6.5-7.8,13.2-15.6,18-24.5
		c3.3-6,5.6-12.7,7.3-19.5c2.2-8.4-1-14.9-7.3-19.9c-4.6-3.7-10-6.2-15.3-8.8c-5.6-2.8-11.3-5.2-16.8-8c-1.6-0.8-3.1-1.4-4.8-1.9
		c-4.5-1.1-8.7-2.8-13.2-4.9c0.7,1.7,2.3,1.8,2.6,3.1l0.1-0.1c-2.3-1-4.6-2-6.7-3.3c-2.4-1.5-5.4-1-8.1-1.3
		c-5.3-0.6-10.5-1.5-16.5-1.6c2.5-2.1,5-2.1,7-1.8c8.1,1,16.5,0.9,24.2,3.9c6.2,2.4,12.8,3.7,18.5,7.4c3.9,2.5,8.5,3.4,12.7,5.2
		c7.6,3.2,14.3,7.9,20.9,13.4c0.6-13,2-25.7,4.1-37.9c-0.3-1.5-1.3-0.7-1.8-1.1c-0.8-1.9-1.1-3.8-0.9-6.1c1.9,1.1,1.2,3,2.3,4.5
		c1.3-3,2.8-5.6,3.4-8.7c1.9-9.5,3.8-19,6.7-28.3c-11.8-0.9-20.3-7.8-28.4-15.2c-5.6-5.2-9.6-11.7-10.8-19.3
		c-1.5-10-3.8-20-1.2-30.3c-2.2,7.2-8.1,12.2-10.6,19.2c-1.5,4.1-3.5,8-5.5,11.9c-0.8,1.5-1.8,2.7-3,3.8c-1,0.9-2.3,1.3-3.5,0.6
		c-2.3-1.3-4.8-1.5-7.2-2.2c-3.5-1.1-4.3-2.4-4.5-6c-0.3-5-0.6-9.9-1-14.9c0-0.6-0.1-1.2-0.8-1.5c-0.4,1.4-0.8,2.8-1.2,4.2
		c-0.3-0.1-0.6-0.2-0.9-0.3c0.9-7.2,3.9-13.8,7-20.4c-1.9,1.8-4.5,6.1-5.2,9c-2.6,10.9-7.9,20.7-12.9,30.5c-1.6,3.3-3.5,6.6-5.9,9.6
		c-1.5,1.9-2.5,4.2-3.4,6.4c-1.2,2.9-1.5,5.8-0.9,9.1c1.7,9.4,4.8,18.5,7,27.8c1.8,7.4,1.7,14.9,1.6,22.4c0,0.3-0.3,0.5-0.5,0.8
		c-1.5,0.3-1.7-0.7-1.7-1.6c0.1-15.6-4.9-30.2-8.1-45.2c-0.3-1.5-0.6-2.9-0.8-4.4c-0.3-2.8-1.2-5.5-2-8.2c-3.4-12.6-5.8-25.4-5-38.6
		c0.2-3.2,0.1-6.4-3.1-8.5c-1-0.7-1.7-1.9-2.5-2.9c-3.7-4.7-6.9-9.7-10.9-14.2c-2.5-2.8-3.9-6.4-4.5-10c-1.5-8.7-4.3-17.2-5.3-26.1
		c-0.5-4.6-0.1-9.1,0-14.1c1.8,1.3,1.6,2.9,1.6,4.4c0.4,11.6,2.2,23,5.6,34.1c1.5,4.9,3.6,9.5,7.1,13.3c2.3,2.5,3.3,5.8,5.2,8.5
		c1.4,2,2.9,4,4.8,5.4c3,2.2,3.6,5.1,3.7,8.4c0.5,12.7,1.3,25.4,4.5,37.7c0.2,0.6,0.1,1.4,0.8,1.9c3.2-4.3,4.5-7.6,5.2-13.2
		c1.8-0.3,0.9,1.5,1.6,2.2c0.2-0.2,0.5-0.3,0.7-0.5c2.2-2,2.2-5,3.5-7.4c4.2-7.6,7.8-15.4,10.2-23.8c1.5-5.2,3.7-10.2,6.7-14.4
		c-2.8-11.4-7-21.7-18.5-27.5c0.3,3.4-0.9,6.3-0.8,9.4c0.3,9.5-1.6,18.8-3.2,28.1c-0.9,4.9-0.8,9.9-0.1,14.8
		c0.7,5.1,1.4,10.3,0.3,15.4c-0.1,0.3-0.2,0.7-0.3,1c-0.1,0.2-0.4,0.2-0.9,0.5c-0.3-4.2-0.7-8.2-0.7-12.3c0.1-5.9,0-12.3-3.4-16.9
		c-3.7-5.1-5.1-10.4-6.1-16.2c-0.1-0.4-0.1-0.9-0.1-1.4c0-0.2,0.2-0.4,0.8-1.2c1.6,7.2,3.6,13.8,7.6,19.4c2.2-10.4,4-20.8,3.9-31.6
		c0-2.5,0.1-5,1.3-7.4c0.7-1.4,0.6-2.9,0.5-4.4c-0.2-8-3.2-15.4-6.7-22.3c-3.7-7.3-8.4-14.1-16.3-17.8c-1.9-0.9-2-1.6-1.6-4.7
		c1.2,2.4,2.4,4.4,5.4,4.3c-0.6-12.3-1.6-24.4-7.4-35.6c8,10.9,10.6,23.3,9.8,36.6c5.1,3.6,7.9,8.6,10.5,13.8
		c1.6,3.2,3.2,6.4,4.9,9.6c2,4,2.8,8.3,3,12.7c0.1,2.1,0.8,3.8,2.4,5.1c1.9,1.5,3.7,3.1,5.7,4.5c6.3,4.2,8.6,10.9,10.6,17.7
		c0.4,1.3,0.5,2.6,1.2,4.1c1.5-1.6-0.3-3.6,1.4-4.9c-2.2-1.5-2.9-3.6-3.8-5.8c-2.4-5.7-4.3-11.4-4.3-17.6c0-0.8-0.3-1.6-0.7-2.3
		c-2.3-4.3-1.1-8.5,0.7-12.6c2.2,0.8,2.3,2.7,2.3,4.5c0,5.5,1.6,10.8,1.4,16.4c-0.1,4.3,2.7,8.4,4.7,12.4c0.7,1.4,2.2,1.6,3.6,1.7
		c3,0.1,6,0,8.9-0.7c1.4-0.4,2.9-0.4,3.5,1.2c0.7,1.7-0.7,2.5-1.8,3.3c-2.1,1.7-4.5,1.7-6.9,1.7c-4.1,0.1-4.7,0.8-4.1,4.7
		c0.3,1.6,0.3,3.2,0.2,4.8c-0.1,1.5-0.6,2.8-2.1,3.3c-2.5,0.9-3.1,3.1-3.2,5.2c-0.5,6.7,0.8,13.3,0.8,20c0,2.8,3.3,4.8,7.6,5.5
		c2.7,0.4,3.7-1.4,4.6-3.3c2.8-5.6,4.9-11.6,8.8-16.7c1.1-1.4,2.6-2.6,3.3-3.9c-2.2,2.3-4.3,5.1-6,8.2c-0.7,1.1-1.6,1.8-2.9,1
		c-1.2-0.7-1.2-2.1-0.5-3.1c5.4-7.7,9.1-16.7,17.7-21.8c2.8-1.7,4.2-4,3.7-7.8c-0.9-5.7-0.2-11.5-0.3-17.3c0-2.8-0.1-5.5-2-7.8
		c-0.9-1-0.2-2.2-0.4-3.6c-3.6,0-4.8-2.6-5.5-5.5c-1.2-4.8-3.8-8.9-6.3-13c-1.6-2.8-4.6-3.6-7.4-4.7c-1.1-0.4-2.3-0.7-2.7-1.9
		c-0.8-2.4-2.4-2.6-4.6-2.4c-2.7,0.3-5.5,0.5-8.3,0.7c-2.2,0.2-3.1,1.1-3.3,3.1c-0.1,1-0.3,2.1-0.6,3c-1.1,2.9-0.2,4.7,2.5,6.2
		c4,2.2,5.2,5.2,4.4,8.9c-0.6,2.3-2.2,3-4,1.4c-1.6-1.4-3.2-2.9-5.1-3.9c-1.2-2.5-1.6-5.3-2.3-7.9c-0.1-0.5-0.3-1.3-0.1-1.7
		c2.2-4,1.3-8.6,2.4-12.7c-1.7-3.2-5.3-3.9-7.7-6.3c0.2-1.2,0-2.5-0.1-3.7c1.5-0.9,2.9-0.1,4.3-0.5c-0.5-1.5-2.9-1.2-2.8-3.3
		c2-1.8,3.6-0.2,5.4,1c0.3-2.2-0.5-4.5,0.5-6.7c1.9,0.5,2.4,2.6,4.2,3.1c0.7-2,2.4-1.6,3.9-1.3c1.1,0.2,2.2,0.7,3.3,1
		c5.4,1.1,10.9-0.5,16.3,0.5c1.4,0.3,1.3,2.5,3.3,2.5c1.1-0.3-0.3-1.4,0.8-2.2c0.4-0.2,1.4-0.5,2.2-0.9c1.1,0.3,1.3,1.4,2.1,1.9
		c1-0.5,1.4-2.2,3.3-1.7c0.9,1.3,0.9,3.3,2.6,4.6c1.5-0.9,2.9-2.9,5.3-1.7c0.5,1.7-1.5,2.2-1.8,3.5c1,0.6,1.6,1.9,3.1,1.9
		c-1.9,3.9,1.9,4.1,3.5,5.7c-0.2,1.2-1.7,1-2.1,1.7c2.3,7.7,6.5,14.8,2.4,22.9c-0.6,1.3-0.8,2.9-0.5,4.4c0.4,1.9,0.2,3.8-1,5.3
		s-0.1,3.1-0.6,4.6c-1.5,4.5-3,9-1.9,13.9c0.5,2.1,0,4.4-0.7,6.2c0.4,1.3,1.2,1.7,2.2,2.6c6.5-6.7,13.3-12.8,22-16.4
		c1.4-5,2.6-10.1,4.1-15c2.7-9,5.7-17.8,11.3-25.5c0.3-0.5,0.6-1,1-1.4c4.7-4,5.2-9.8,6.3-15.3c0.3-1.5,0.4-3,0.9-4.4
		c1.6-4.6,2.5-9.2,1.9-14.1c-0.2-1.9-0.1-4,1.9-6.2c0.5,7.6,1.3,14.5-1.7,21.2c-1.6,3.5-2.5,7.2-2.9,11c-0.2,1.7-0.6,3.4-1.7,4.8
		c-8.9,11.5-14.4,24.5-17.2,38.8c-1.6,8-3.1,16.1-3.9,24.2c-0.6,5.7-2.1,11.3-3.5,16.8c-0.4,1.4-0.4,2.9-0.6,5
		c3.2-3.7,4.7-7.6,7.5-10.7l0.2,0.2c-1.5,4-3.9,7.6-6.7,10.8c-1.2,1.4-1.8,2.6-1.3,4.6c7.7-4.5,13-11,17.1-19.3
		c0.3,3.9-1.3,6.6-9.1,16c1.2,0.4,2.2,0.8,3.7,1.4c-1.9,0.7-3.4,0-4.9-0.1c-1.9,0.9-2.9,3.6-5.9,3.1c-2,6.2-3.9,12.4-6.6,18.3
		c-2.6,5.7-3.1,12.3-7.3,17.1c7.5,8.2,18.5,13.9,25.3,13.2c0.2-1.5,0.8-2.9,1.7-4.3c5.5-9.1,8.9-19,9-29.8
		c0.1-6.8,2.5-12.8,6.1-18.4c3-4.7,6-9.3,7.9-14.6c0.6-1.6,1.6-3.1,2.7-4.4c6-7.2,8.3-15.7,9.1-24.9c0.7-8.1,0.3-16.1-1.3-24
		c-0.4-2.2-0.4-2.3,0.2-4.6c1.7,3.8,2.3,7.5,2.5,11.2c0.1,1.5,0.2,2.7,1.5,3.6h-0.1c0,6.5-0.2,12.9-1.3,19.3
		c-1.4,8.2-3.8,15.9-10.2,21.9c-1.9,1.8-2.2,4.5-3.5,6.7c-3.7,6.4-7.2,12.9-9.9,19.8c-0.9,2.3-1.5,4.7-1.3,7.1
		c0.8,10.5-1.6,20.3-7.6,28.9c-3.6,5.2-4.6,11-5.6,16.9c-1.3,8.4-3.2,16.5-6.6,24.3c-1.2,2.7-0.5,5.7-0.9,8.5
		c-1.5,9.9-2.7,19.9-3.5,29.9c-0.5,6.4-0.9,12.7,2.7,18.5c1.2,1.9,0.5,3.8,0.2,5.7c-2,13.8-8.1,25.6-17,36.2c-1.7,2-3.1,4.3-4.6,6.5
		c-5.2,7.5-12.2,11.5-21.5,11.9c-4.7,0.2-8.9-0.9-13.1-2.7c-5.2-2.3-10.6-3.9-16.4-3.1c-2.7,0.4-5.5,0.5-8.1-0.7
		c-3.7,2.1-3.7,2.1-6.9-0.9c-1.3-1.2-2.7-2.1-4.6-2.1c-5.3,0-10.3-1.4-15.3-2.6c-5.7-1.4-11.4-3-17.1-4.4c-1.8-0.5-3.5-1-5.2-1.9
		c-3.2-1.8-6.1-3.4-7-7.7c-1-4.4-3.2-8.6-4.1-13.5c-7.9,1.4-15.4-1.5-23.2-1.3c0.5-0.9,1.5-0.1,2.1-0.8c0.1-1-0.7-0.9-1.3-1.1
		c-4-1.4-7.2-4.1-10.8-6.1c-7.3-4-15.4-5.5-23.6-6.2c-3.2-0.3-6.5-0.3-9.7-0.7C656.1,386.5,651.7,387.6,647.5,389.8
		c-3.5-4-3.9-7.2-1.4-12.2c2.1-4,4-8,7.1-11.4c1.4-1.6,2.5-3.4,2.7-5.5c0.3-4.1,1.7-7.9,3-11.9c-3.2-0.5-5.3-2.8-7.5-4.7
		c-2.4-2-4.1-4.5-3.4-8.6c0.6-3.7-0.2-7.9-0.8-11.9c-0.9-6.6-1.8-13.2-2.4-19.9c-0.5-5.4-2.5-10.5-4.1-14.9
		c2.2,4.6,2.3,10.3,3.3,15.8c0.7,4.2-0.3,8.5-0.8,12.7c-1.4,10.1-4.7,19.7-8.5,29.1c-2.9,7.2-3.5,14.7-1.4,22
		c2.5,8.7-1.2,16-3.8,23.7c-0.5,1.4-1.5,2.6-1.8,4.1c4.3-2.3,8.9-3.8,12.6-7C643.4,386.7,645,387.1,647.5,389.8z"/>
	<path d="M606.4,277.3c-3.2-1.7-6.4-1.8-9.6-1.9c-2.4-0.1-4.1,0.5-5.7,2.3c-3.7,4.1-7.8,7.9-11.2,12.3c-4.7,6.1-6.9,13.1-7.1,20.5
		c-0.4,18.3,0,36.7,1,55c0.3,4.9-0.8,9.9,0.2,14.8c0.7,3.3,1.5,6.6,3.7,9.2c1.2,1.4,1.6,3,2.1,4.6c4.2,1.4,8.8-0.6,12.6,1.9
		c-0.3,1.7-1.3,1.5-2.2,1.6c-3.1,0.3-6.2-0.2-9.3-0.2c-2.7,0-3.9-2.9-5.1-4.7c-3-4.4-5.1-9.2-4.1-14.9c0.5-2.7-0.4-5.5-0.6-8.3
		c-1-12.8-1.9-25.5-0.7-38.3c0.1-1.4,0-2.8-0.1-4.1c-1-10,1.2-19.7,2.8-29.5c0.5-3,2.9-4.6,4.1-7c2.4-4.4,5.7-8.1,8.7-12
		c4.8-6.3,13.2-5.8,19-4.4C606,274.3,606.9,275.2,606.4,277.3z"/>
	<path d="M729.7,115.3c1.2,0.9,0.9,2.1,1,3.2c0.4,9.8,3,19.2,6,28.3c1.6,4.9,3,9.8,4.5,14.6c0.3,1,1.2,2.1-0.4,3.2
		c-2.5-1.8-2.8-4.6-2.7-7.2c0-1.3-0.2-2.3-1-3.4c-1.9-2.8-2.9-6-3.5-9.3c-0.8-5.1-2.2-10.1-3.4-15.1c-1-4.1-1-8.2-1.4-12.3
		C728.7,116.6,728.7,115.9,729.7,115.3z"/>
	<path d="M345.6,195.2c-6.1-3.7-9-9.4-10.5-16.2c-1.2-5.4-2.2-10.8-2.6-16.4c-0.1-1.8-0.5-3.5-1.3-5.7c2.7,0.7,2.9,2.6,3.3,4.1
		c1.1,4.8,1.9,9.7,2.3,14.7c0.5,7.2,4.2,12.7,8.7,17.9c0.3,0.3,0.4,0.8,0.5,1.2C345.8,195,345.7,195.1,345.6,195.2z"/>
	<path d="M768.1,204.7c-4.1-1.3-5.6-4.9-7-8.3c-2.9-7.4-3.9-15.4-4.7-23.3c-0.1-1.4-0.5-2.8-0.9-4.5c2.4,0.4,2.5,2.2,2.9,3.6
		c1.1,4.5,1.9,9,2.1,13.6c0.3,5.6,2.3,10.5,5.5,15C766.9,202.1,768,203.2,768.1,204.7L768.1,204.7z"/>
	<path d="M500.6,101.2c3.6,15.3,0.1,28.9-5.9,42.6c-1.4-1.7-1.3-3.1-0.4-4.6c4-7.5,6.2-15.4,5.6-24.1
		C499.6,110.6,499.2,106.1,500.6,101.2z"/>
	<path d="M924.6,113.6c3.8,14.6,0.1,28-5.9,41.9c-1.1-2.1-1.2-3.4-0.4-4.8c4.3-7.6,6.2-15.7,5.8-24.5
		C923.8,122,923.6,117.8,924.6,113.6z"/>
	<path d="M353.1,487.1c0.5,1.2-0.5,1.9-0.6,3.3c-1.5-1.1-2.8-2.4-4.5,0.1c-0.4,2.1-1.5,4.9-0.8,8c0.3,1.4-0.1,2.8-1,3.9
		c-2.5,2.9-5.5,5.5-6.8,9.4c-0.7-3.4-0.1-6.2,2.5-8.4c2.1-1.9,2.8-4,2.9-7c0.1-3.5,0.2-7.6,4.7-9.1
		C350.6,486.9,351.8,486.4,353.1,487.1z"/>
	<path d="M401.1,161.6c-2.3,0-3.4-1.3-5-1.8c-1.6,1.2-3.9,1-6.6,1.6c3.7,0.9,6.8,0.7,9.4,2.5c-3.1,0.9-6.2,1.1-9.6,0.6
		c-0.7-1.3-1.7-2.8-3.9-1.9C386.4,157.2,395.1,156.5,401.1,161.6z"/>
	<path d="M399.3,205.4c1.1-2.5,2.1-5,3.1-7.4c-0.4-0.7-1.3,0.1-1.5-1c0,0-0.1-0.3,0.1-0.4c2.8-3.1,6.5-5.1,10-7.4
		c1.3-3.4,2.5-7,2.7-10.8c1.1,3.3,0.7,6.7,0.5,10.2c-0.2,0.1-0.4,0.4-0.7,0.6c-5.1,3.3-9.9,6.9-11.4,13.3c-0.3,1.3-1.2,2.4-2.2,3.3
		C399.7,205.6,399.5,205.5,399.3,205.4z"/>
	<path d="M349.2,525.6c-6.8,8.2-8.7,18.9-15,27.4c2.5-8.4,6.8-15.9,10.3-23.9C345.3,527.3,347.1,526.2,349.2,525.6z"/>
	<path d="M322.1,150c-0.6-1.5,0.7-2.2,1.8-2.6c6.3-2.3,6.4-7.6,5.1-12.8c-0.8-3.1-2.2-6-1.4-9.4c1.2,4.2,2.8,8.4,3.5,12.7
		c1.1,6-1.9,10.4-7.6,12.5C323.1,150.6,322.7,150.5,322.1,150z"/>
	<path d="M745.9,161.4c0.4-2.2,2.2-2.6,3.5-3.4c4-2.5,5.1-5.1,4.2-9.9c-0.7-3.8-2.4-7.4-2.1-11.4c1,5.3,4.1,9.8,3.7,15.7
		c-0.4,5.1-2.9,7.1-6.6,9c-0.4,0.2-0.9,0.4-1.3,0.4C746.8,161.9,746.5,161.6,745.9,161.4z"/>
	<path d="M915.8,181.3c0.6-8.1,0.8-16.2,1.4-24.2C918.8,165.3,919.3,173.4,915.8,181.3L915.8,181.3z"/>
	<path d="M845,387.9c3.2,9.6,4,19.5,4.1,29.6C846.9,407.8,846.7,397.7,845,387.9z"/>
	<path d="M846.6,386.6c3.2-0.5,6-0.1,8.5-0.8c0.6-1.6-0.9-2.9-0.1-4.3c1.1,1,0.8,2.6,1.6,3.7c1.9,1.1,3.8-0.6,6,0.1
		c-2.1,1.8-4.5,1.4-6.8,2c0.5,3.9,2.3,7.4,1.7,11.4c-1.2-3.8-2.3-7.6-3.5-11.5C851.5,387.4,849.2,387.6,846.6,386.6z"/>
	<path d="M294.4,660.8c-1.7,5.1-9,4.5-13.9-1C285.5,659,289.8,662.8,294.4,660.8z"/>
	<path d="M593,341.6c-1.6,9.4,4,16.7,4.9,25.4C593.9,358.1,588.7,345.6,593,341.6z"/>
	<path d="M492.3,169.6c-1.1-1.9-0.4-3.8-0.3-5.8c0.3-4.9,0.6-9.9,0.5-14.8c0-1.1-0.3-2.3,1.1-3.9
		C494.9,153.8,494.6,161.7,492.3,169.6L492.3,169.6z"/>
	<path d="M359.5,487.2c3-3.8,5.4-7.9,7.7-12.2C369.5,478.5,365.9,484.2,359.5,487.2z"/>
	<path d="M809.4,298.2c-0.1,3.5-1.6,6.6-2.2,10c-0.6,3.4-0.5,6.8-0.6,10.5C804.1,314.8,805.8,302.6,809.4,298.2z"/>
	<path d="M377.2,187.3c1.1-2.3,2.3-1.8,3.4-1.7c3.4,0.3,6.9,0.7,10.3,1c0,0.5-0.1,0.9-0.1,1.4C386.4,188.6,382.1,187.3,377.2,187.3z
		"/>
	<path d="M912.7,162.1c1.4-4.1,2.4-8.3,2.6-12.8C918.1,151.9,916.7,158.6,912.7,162.1z"/>
	<path d="M809.5,337.7c-1.2,1.2-1.6-0.1-1.9-0.8c-2.5-4.9-3-10-0.9-15.9c1.9,3.3-1,5.9-0.1,8.8C807.5,332.4,808.2,335.2,809.5,337.7
		L809.5,337.7z"/>
	<path d="M491.6,138.1c2.2,3.5,0.7,9.5-3.5,13.4C489.9,146.7,491.1,142.5,491.6,138.1z"/>
	<path d="M387.4,192.6c-2.9,1.1-5.4,0.7-7.9-0.4c0.6-2.7,2.6-2.6,4.4-2.8C385.8,189.3,386.7,190.6,387.4,192.6z"/>
	<path d="M493.9,128.9c1.3-6.7,3.1-13.3,2.4-20.2C497.4,116.5,496.7,123.7,493.9,128.9z"/>
	<path d="M440.3,238.9c1.4,3.8-0.2,7.4-0.5,11.1C437.8,246.2,439.5,242.5,440.3,238.9z"/>
	<path d="M605.4,353.7c-1.6-3.7,0.3-7,0.9-10.9C608.1,347,606.4,350.3,605.4,353.7z"/>
	<path d="M918.3,140.2c0.7-5.9,2.4-11.8,2.6-18.6C921.4,128.5,920.4,134.4,918.3,140.2z"/>
	<path d="M863.8,261.2c-1.3-2.9-1.3-3.9,0.3-10.8C865.5,251.7,865.3,256.8,863.8,261.2z"/>
	<path d="M833.5,409.8c-0.3-6.5-0.2-13.1-0.8-19.6C834.6,396.6,834,403.2,833.5,409.8z"/>
	<path d="M793,338.7c3.9-0.5,7.9-0.9,11.8-1.4C801.1,340.1,797.1,339.9,793,338.7z"/>
	<path d="M814.6,297.4c1.9,0.3,3.7,0.1,5.9,1.4c-2.6,0-4.5,0-6.7,0c-0.5-1.6-1.9-2.7-3.6-3.7C812.5,293.8,812.5,293.8,814.6,297.4z"
		/>
	<path d="M837.5,387.7c2.2,2.5,4.5,9.6,4.4,14.5C840.3,396.8,838.5,392.3,837.5,387.7L837.5,387.7z"/>
	<path d="M336.3,203.9c5.1,3.4,6.7,5.3,6.8,8C340.2,209.5,338.1,206.8,336.3,203.9z"/>
	<path d="M378.2,178.1c2.9-1.2,5.1,0,7.6,0.7C383.9,180.7,380.3,180.4,378.2,178.1z"/>
	<path d="M791.3,322.7c3.9-4.8,8-2,12.3-2.4c-2.2,2.4-4.3,1.2-6.1,0.9C795.4,320.8,793.9,322.2,791.3,322.7z"/>
	<path d="M767.4,222.7c-3.2-1.7-5.1-4.5-6.9-7.5C763.2,217.3,766,219.3,767.4,222.7z"/>
	<path d="M905.7,140.9c-2.4,2.8-3.4,5.4-3.6,8.4C900.4,145.5,901.3,143.4,905.7,140.9z"/>
	<path d="M463.1,201.8c0.3,3.6-2,6.1-3.7,8.9C459.6,207.3,462.1,204.9,463.1,201.8z"/>
	<path d="M347.5,226c1.2,2,3.1,3.4,4.8,5.4C348.5,231.5,347.3,230.2,347.5,226z"/>
	<path d="M776.4,242.8c-4,0-4.9-1-5.3-6.1C772.8,239,774.2,240.8,776.4,242.8z"/>
	<path d="M350.1,508.9c1.7-2.7,1.8-5.4,2.7-8.4C354.3,504.5,353.5,506.9,350.1,508.9z"/>
	<path d="M337.3,464.4c-0.8,2.9-1.6,5.7-2.4,8.6c-0.3-0.1-0.7-0.2-1-0.3c0-3.2,1.2-6,2.8-8.7C337,464.2,337.1,464.3,337.3,464.4z"/>
	<path d="M340.3,496.9c0.5-2.8,0.6-5.7,1.4-8.5C343,491.6,341.2,494.2,340.3,496.9z"/>
	<path d="M794.2,299.5c3.4-1.9,6.3-1.5,9.1-0.8C800.7,300.5,797.8,299.6,794.2,299.5z"/>
	<path d="M860.1,306.8c0,3.5-0.7,4.3-4.9,5.5c-0.1-1.6,1.2-1.9,2-2.7C858,308.8,858.9,308,860.1,306.8z"/>
	<path d="M809.6,337.7c0.5-0.5,1.1-1,1.8-0.6c2.6,1.2,5.4,1.4,8.2,1.8C816,340.4,812.7,339.1,809.6,337.7L809.6,337.7z"/>
	<path d="M887.1,213.1c0.6,3.8-2.1,6.2-3.6,9.2C883.3,218.7,886.6,216.4,887.1,213.1z"/>
	<path d="M399.4,209c-1.3,2.6-2.2,4.4-3.2,6.5C395.1,212.1,395.7,210.6,399.4,209z"/>
	<path d="M827.2,322.2c-2.9,0-5.5-0.9-7.7-2.6C822.2,319.7,824.9,320.2,827.2,322.2z"/>
	<path d="M343.7,522.5c-2.3,2.1-4.9,2.7-6.4,5.3C337.7,523.8,338.8,522.9,343.7,522.5z"/>
	<path d="M859.1,289.7c1.3,3.9-0.7,5.5-3,7.1C857,294.6,857.9,292.5,859.1,289.7z"/>
	<path d="M809.4,389.5c-1.5,2.5-3.4,4.7-4.3,7.5C804.5,393.9,805.6,392.1,809.4,389.5z"/>
	<path d="M848.8,303.1c1.6-1.3,3.2-2.6,4.8-3.9C854.4,301.1,854.4,301.1,848.8,303.1z"/>
	<path d="M807.9,318.1c2.9,0.7,5.8,0.4,8.7,0C813.8,319.6,810.9,320.3,807.9,318.1z"/>
	<path d="M477.9,137.6c-1.2-4.2-0.6-5.5,3.4-7.9C479.4,132.4,478.2,134.8,477.9,137.6z"/>
	<path d="M836.1,345.3c3.9,0,7.7,0,11.6,0C843.9,345.7,840,346.8,836.1,345.3L836.1,345.3z"/>
	<path d="M848.3,388.6c2.1,2,3.2,4.6,4,7.4C850.4,393.9,849.3,391.3,848.3,388.6z"/>
	<path d="M485.8,154.9c-0.4,2.4-0.8,4.9-1.2,7.3c-1.2-2.7-0.6-5.2,1-7.5L485.8,154.9z"/>
	<path d="M811.5,283.6c0.4,2.6,0.6,4.5-0.3,6.9C810,287.7,810,287.3,811.5,283.6z"/>
	<path d="M823.5,386.5c3,1,5.6,0.8,8.1,0.9c-1.2,0.1-2.5,0.2-3.7,0.1C826.6,387.5,825.2,387.8,823.5,386.5z"/>
	<path d="M840.5,382.9c-1-2.1-2-4.2-3-6.3c2,1.7,2.9,3.9,3.8,6.2C841,382.8,840.7,382.8,840.5,382.9z"/>
	<path d="M791.5,334.6c1.8-0.8,3.6-0.8,5.5-0.2C795.3,335.2,793.4,335,791.5,334.6z"/>
	<path d="M345.5,520.8c1.5-1.7,3.1-3.3,4.6-5C349.8,518.7,347.9,520,345.5,520.8z"/>
	<path d="M864.3,267.3c-0.8-1.4-1.3-2.8-0.6-4.5C865,264.9,865,264.9,864.3,267.3z"/>
	<path d="M842.8,341.4c-2.9-0.2-5.7-0.3-8.6-0.5C837.1,340.8,840,340,842.8,341.4L842.8,341.4z"/>
	<path d="M842.7,341.4c2.9-0.4,5.6,0.5,8.2,1.8C848.2,342.6,845.5,342,842.7,341.4L842.7,341.4z"/>
	<path d="M319.5,617.4c-0.4-1.7,0.2-3.2,1.2-4.6C321.2,614.5,320.5,616,319.5,617.4z"/>
	<path d="M332.9,559.5c-0.5-2.2-0.2-3.7,1.5-5.2C335,556.5,333.8,557.7,332.9,559.5z"/>
	<path d="M439.8,251.5c1.2,1.3,1.1,2.8,0.8,4.7C438.9,254.7,439.2,253.1,439.8,251.5z"/>
	<path d="M909.3,167.5c0.7,2.1-0.6,3.8-0.5,6.1C907.7,170.5,907.7,170.2,909.3,167.5z"/>
	<path d="M859.3,320c1-1.9,1.8-2.9,3.2-4C862.8,318.5,861.6,319.2,859.3,320z"/>
	<path d="M842.9,365.2c-1.8-0.1-3.3-0.9-4.6-2.1C840,363.5,841.6,363.9,842.9,365.2z"/>
	<path d="M893.7,157.9c0.3-1.6,1.3-2.6,3.2-3.8C896,156.1,895,157.1,893.7,157.9z"/>
	<path d="M754.4,163c1.7,1.3,2.4,2.3,1.3,4C754.5,165.4,754.5,165.4,754.4,163z"/>
	<path d="M862.2,320c1.7,1.1,1.7,2.4,1.5,4.3C862.5,323,861.8,321.9,862.2,320z"/>
	<path d="M797.6,247.6c0.6,1.6,0,2.7-0.8,4.4C796.4,250.1,796.4,248.8,797.6,247.6z"/>
	<path d="M847.2,288c-0.4-1.9-0.3-3.1,1.5-4C849.3,285.8,848.3,286.7,847.2,288z"/>
	<path d="M331.8,156c-1.7-1.4-1.4-2.7-1.8-4.1C332.4,152.7,332.1,154,331.8,156z"/>
	<path d="M354,490.9c1.2-1.4,2-2.1,3.6-1.5C356.9,490.8,355.9,491.1,354,490.9z"/>
	<path d="M472.6,142.8c-0.8,2-1.7,3-3.1,3.5C469.9,144.9,470.7,143.9,472.6,142.8z"/>
	<path d="M790.7,323.6c-0.3,1.3-1,1.9-2,2.3c-0.9-0.7,0-1.1,0.3-1.5C789.4,323.9,789.8,323.5,790.7,323.6z"/>
	<path d="M327.1,529.4c0.9,2.1,0.9,2.1,0.2,4.6C327,532.3,326,531.2,327.1,529.4z"/>
	<path d="M843.5,338.2c-1.3,0-2.7,0-4,0c0-0.1,0-0.1,0-0.2c1.3,0,2.6,0,3.9,0C843.5,338.1,843.5,338.1,843.5,338.2z"/>
	<path d="M811,276.1c-0.7-1.4-0.8-2.3,0.4-3.5C811.9,274.1,812.1,275,811,276.1z"/>
	<path d="M392.7,237.7c0-1.4,0.5-2.4,1.8-3.4C395,236.3,393.5,236.8,392.7,237.7z"/>
	<path d="M877.6,235c1.4-0.3,2.1,0.5,2.6,1.9C878.9,236.7,878,236.2,877.6,235z"/>
	<path d="M345.1,480.4c1.8,0.8,1.6,2.2,2,4C345.8,483,345.1,482.1,345.1,480.4z"/>
	<path d="M825.6,340.9c-1.1,0-2.2,0-3.4,0v-0.1c1.1,0,2.2,0,3.4,0C825.6,340.9,825.6,340.9,825.6,340.9z"/>
	<path d="M389.8,246.3c-0.5-1.5-0.4-2.4,0.6-3.4C391.3,244.2,390.7,245,389.8,246.3z"/>
	<path d="M872,226.2c0.1-1.3,1-2.1,1.7-3c-0.2,1.2-0.6,2.3-1.5,3.2L872,226.2z"/>
	<path d="M495.5,131.8c0.7,1.1,0.5,1.8-0.5,2.6C494.7,133.4,494.5,132.6,495.5,131.8z"/>
	<path d="M770.1,206.9c1.7-0.4,1.7,0.9,2.4,2.5C770.8,208.8,770.4,207.9,770.1,206.9L770.1,206.9z"/>
	<path d="M904,153.3c-0.3-1.2-0.2-2.2,1.1-3C905.3,151.7,904.8,152.6,904,153.3z"/>
	<path d="M485.7,154.8c-0.1-1.2,0.3-2.2,1.7-2.9c0.2,1.6-0.2,2.5-1.6,3L485.7,154.8z"/>
	<path d="M911.3,163.3c0.5,1.8-0.3,2.5-1.7,3.5C909.7,165.2,910.1,164.2,911.3,163.3z"/>
	<path d="M345.9,194.9c1.3,0.4,2.3,1,2,2.8c-1.4-0.4-1.5-1.8-2.2-2.5C345.7,195.1,345.8,195,345.9,194.9z"/>
	<path d="M313.3,620.1c-0.2-1.1-0.3-1.8,0.7-2.2C314.4,618.7,314.3,619.4,313.3,620.1z"/>
	<path d="M807,342.7c-1.3-1.3-1-2.1-0.3-3.3C807.5,340.5,807.1,341.4,807,342.7z"/>
	<path d="M851.3,314.6c0.8-1.3,1.5-1.2,2.3-0.8C853.2,315.4,852.3,315,851.3,314.6z"/>
	<path d="M847.7,314.1c0.6-0.6,1.3-0.8,1.9,0.1c-0.1,0.8-0.7,0.8-1.2,0.8C847.9,314.9,847.5,314.7,847.7,314.1z"/>
	<path d="M834.5,350.4c-1.5-0.3-3.2,0.3-4.6-0.9l-0.1,0.1C831.4,349.9,833.1,349.2,834.5,350.4L834.5,350.4z"/>
	<path d="M834.5,350.4c1.2-0.3,2.5-0.1,3.7,0.2C836.9,350.9,835.7,351,834.5,350.4L834.5,350.4z"/>
	<path d="M480.4,138.8c0.8,1.6,0.4,2.5-0.3,3.4C478.8,140.8,480.2,140.2,480.4,138.8z"/>
	<path d="M906.9,139.5c-0.4-1.3,0-2.1,0.9-2.8C908.4,137.9,907.6,138.6,906.9,139.5z"/>
	<path d="M394.5,221.2c-0.3-1.7,0.2-2.3,1.6-2.7C396.1,219.7,395.5,220.3,394.5,221.2z"/>
	<path d="M483.8,125.1c0.2,1.3,0,2-0.7,2.7c-0.2,0-0.3,0.1-0.3,0C482.4,126.7,482.9,126,483.8,125.1z"/>
	<path d="M456.1,225.5c-1.5-0.5-2.4-0.8-2.8-2C454.9,223.1,455.4,223.9,456.1,225.5z"/>
	<path d="M831.9,337.4c0.4,0,0.9,0,1.3,0c0,0.1,0,0.1,0,0.2c-0.4,0-0.8,0.1-1.2,0.1C832,337.6,831.9,337.5,831.9,337.4z"/>
	<path d="M332.3,534c0.4,1.3,0,1.8-0.6,2.2c-0.6-0.2-0.5-0.6-0.3-1C331.6,534.9,331.9,534.6,332.3,534z"/>
	<path d="M333.5,531.2c0.3-0.9,0.3-1.8,1.6-2.1C335,530.2,334.9,531,333.5,531.2z"/>
	<path d="M821,306.1c-1.3-0.5-1.9-0.8-2.6-1C819.4,304.2,820,304.6,821,306.1z"/>
	<path d="M387.7,214.6c0.1,0.8,0.1,1.3,0.1,1.9C387.2,216,387.5,215.5,387.7,214.6z"/>
	<path d="M770.2,206.8c-1.3-0.1-1.9-0.9-2.1-2.1l-0.1,0.1C769.6,204.6,770.1,205.5,770.2,206.8L770.2,206.8z"/>
	<path d="M324.8,110.9c-0.5-0.8-0.5-1.3-0.3-1.9C325.5,109.3,325.5,109.9,324.8,110.9z"/>
	<path d="M748.8,120.3c0.7,0.6,0.6,1.3,0.3,1.9C748.2,121.6,748.5,120.9,748.8,120.3z"/>
	<path d="M333.3,131.6c-1.4-0.7-0.9-1.5-1-2.1C332.6,130,332.8,130.5,333.3,131.6z"/>
	<path d="M825.7,348.9c1.4,0.1,2.9,0,4.2,0.6l0.1-0.1C828.5,349.6,827,349.8,825.7,348.9L825.7,348.9z"/>
	<path d="M332,564.5c-0.5-1-0.3-1.6,0.7-2C333.3,563.5,332.7,564,332,564.5z"/>
	<path d="M331.6,570.3c0.3,1.2-0.5,1.8-0.6,3.2C330.1,571.8,330.3,571,331.6,570.3z"/>
	<path d="M321.7,610.3c-0.2-1.3,0.3-1.8,0.7-2.4C323,608.9,322.4,609.4,321.7,610.3z"/>
	<path d="M756.7,141.4c0.2,0.5,0.5,1,0,1.6C756.2,142.4,756.4,141.9,756.7,141.4z"/>
	<path d="M350.6,200.2c-1,0-1.4-0.6-1.5-1.7C350.2,198.6,350.7,199,350.6,200.2z"/>
	<path d="M316.4,611.5c0.4,0.6,0.2,1-0.3,1.3C315.3,612.1,316,611.9,316.4,611.5z"/>
	<path d="M774.7,211.5c-1.2,0.4-1-0.8-1.7-0.9c0.6-1.1,1-0.5,1.4-0.2C774.6,210.7,775,211,774.7,211.5z"/>
	<path d="M330.3,578.1c0.1,0.8-0.1,1.2-0.6,1.2C329.2,578.7,329.7,578.4,330.3,578.1z"/>
	<path d="M394.4,223.3c0,1.2-0.4,1.6-1.1,1.8C393.2,224.2,393.2,224.2,394.4,223.3z"/>
	<path d="M484,133.6c-0.3-0.7-0.3-1.3,0.1-1.4c0.9-0.3,0.5,0.3,0.4,0.7C484.5,133,484.3,133.2,484,133.6z"/>
	<path d="M908.4,143.4c0.4,0.8,0.2,1.2-0.1,1.7C907.6,144.5,908,144.1,908.4,143.4z"/>
	<path d="M919.5,143.4c0.6,0.7,0.5,1.4,0.1,2.1C918.4,144.9,919,144.2,919.5,143.4z"/>
	<path d="M858.5,376.1c-0.6-0.3-0.8-0.9-0.8-1.5C858.6,374.8,858.9,375.3,858.5,376.1z"/>
	<path d="M810.3,349.7c0.9-0.1,1.5,0.3,1.9,1.1C811.2,350.9,810.8,350.2,810.3,349.7L810.3,349.7z"/>
	<path d="M836.2,345.3c-0.8,0-1.6,0-3.2,0C834.6,344.8,835.4,344.9,836.2,345.3L836.2,345.3z"/>
	<path d="M823.7,338.2c0.6-0.4,1.2-0.6,1.9,0C824.9,338.6,824.3,338.9,823.7,338.2z"/>
	<path d="M858.3,320.7c-0.3,1-0.9,1.3-1.9,1.1C856.8,320.7,857.2,320.3,858.3,320.7z"/>
	<path d="M797.5,304.9c-0.4,0.8-0.9,1-1.6,0.5C796.3,304.8,796.7,304.4,797.5,304.9z"/>
	<path d="M847.5,304.7c-0.6,0.8-1.1,1.1-1.8,0.4C846,304.2,846.5,304.2,847.5,304.7z"/>
	<path d="M790.8,298.5c-0.6,0.7-1,0.2-1.7,0.2C789.9,297.9,790.3,298.7,790.8,298.5z"/>
	<path d="M782.6,283.1c-1.2-0.5-1.5-1-1.1-2.1C782.6,281.2,782.8,281.8,782.6,283.1z"/>
	<path d="M783.5,286.3c-1-0.2-1-0.6-0.8-1.4C783.6,285,783.8,285.4,783.5,286.3z"/>
	<path d="M767.1,228.7c0.8,0.2,1,0.5,0.7,1.1C767.3,229.7,767,229.5,767.1,228.7z"/>
	<path d="M837.5,387.6c-0.5,0-1-0.1-1.6-0.1C836.5,387,837,387.5,837.5,387.6L837.5,387.6z"/>
	<path d="M811.1,384c0.1,0.4-0.1,0.6-0.6,0.6C810.4,384.1,810.5,384,811.1,384z"/>
	<path d="M750.6,132.4c-0.1,0.3-0.4,0.4-0.6,0.2c-0.1-0.1-0.2-0.4-0.3-0.6c0.2-0.1,0.5-0.3,0.6-0.2
		C750.5,131.9,750.6,132.2,750.6,132.4z"/>
	<path d="M835.9,373.2c0.3,0.2,0.6,0.4,0.5,0.8C836,374,835.8,373.7,835.9,373.2z"/>
	<path d="M331.7,102.5c-0.2,0.1-0.4,0.2-0.6,0.1c-0.1-0.1-0.2-0.4-0.3-0.5c0.2-0.1,0.4-0.2,0.6-0.2
		C331.5,102,331.6,102.3,331.7,102.5z"/>
	<path d="M825.7,348.8c-1,0-2,0.2-2.7-0.8h-0.1C823.9,348.4,824.9,348.1,825.7,348.8L825.7,348.8z"/>
	<path d="M823.1,348c-0.5,0-1.1,0-1.7,0C822,347.4,822.5,348.1,823.1,348L823.1,348z"/>
	<path d="M783.5,292.4c0.8,0.4,0.7,0.9,0.4,1.6C783.2,293.5,783.1,293.1,783.5,292.4z"/>
	<path d="M334,504.4c-0.4,0.6-0.7,0.9-1.2,0.5c-0.1-0.1-0.2-0.5-0.1-0.6C333,503.9,333.4,504,334,504.4z"/>
	<path d="M788.4,308.5c-0.5-1,0.1-1.1,0.6-1.3C789.6,308.2,788.7,308.2,788.4,308.5z"/>
	<path fill="#FFFFFF" d="M361.2,363.3c2.1,0.3,3.9,1.1,5.5,2.4c-1.3,1.6-3.1,2.4-3.8,4.5c2-1.1,3.9-2.1,5.8-3.1
		c1.3,0.3,2.1,1.6,3.5,1.4v-0.1c2,3,4.6,5.1,8.2,6.2c-4.4,7.2-7.5,14.4-4.8,22.8c0.7-7.7,2.4-15.1,6.8-22.2c0.1-0.1,0.7,0,1.3,0
		c0.4,0,0.9,0.1,1.3,0.2c1.3,2.6,0.6,5.4,1.5,8.1c0.7-2.1,1.4-4.2,2.2-6.6c1.9-0.2,4.1,0,5.9-1.3c0.1-1.1,0.2-2.3,0.8-3.4
		c1.3,0.1,0.8,1.9,1.9,2.1c2.3,0.1,0.7-2.1,1.9-2.9c1.3-0.3,0.7,1.9,1.8,1.7c1.8-0.3,0.5-1.9,1.3-2.4c1.1,0,1,1.6,2.5,1.6
		c1.3-0.3,0.6-2,1.6-3.2c4-0.4,8.2-0.9,12.6-1.3c-0.5,1.7-2.3,1.1-3.1,2.6c4.1-0.5,7.9-0.8,11.6-1.6c2.6-0.5,4.2,0.5,5.5,2.5
		c1.4,2.3,2.5,4.7,3,7.7c1.3-4,0.2-7.2-2-10.5c2.1-0.2,3.9-0.4,5.7-0.7c1.1,2,1.5,4.4,3.9,6.6c-0.6-2.6-1-4.5-1.4-6.4
		c0.9-0.5,1.8-0.6,2.7-0.4c0.1,0.2,0.4,0.4,0.4,0.5c-0.7,1.9,0.1,3.6,1,5.2c0.6,1.2,1.4,2.5,1.1,3.9c-0.7,3.5-0.3,6.9,0,10.3
		c0.8,7.5-0.8,14.9-1.4,22.4c-0.6,7-0.9,14-1.3,21.1c-0.2,3.5-0.8,6.9-2.2,10.1c-2.3,5.4-3.6,10.9-3.7,16.8c0,4.9-0.8,9.9-1,14.8
		c-0.1,1.9-1.1,3.2-2.4,5.1c-5.2-2.9-11.2-2.9-16.9-3.6c-3.6-0.5-7.7-0.3-11.5,0.4c-1.4,0.3-2.7,0.1-4.1-0.2
		c-6.9-1.8-14.1-2.5-21.2-3.4c-3.2-0.4-6.4,0.1-9.7,0.3c-1,0.1-2.2,0.5-2.3-1.2c1.9-3.4,0.8-7.3,1.7-10.9c0.6-2.1,0.6-4.4,1.8-6.4
		c0.8-1.2,0.9-2.6,0.6-4c-0.8-3.4-1.3-6.8-0.5-10.1c-1.9-1.4-3.6-2.3-5.2-3.5c1.5,1.1,3.2,2,4.7,3.1c0.5,1.2,0.3,2.4,0.1,3.7
		c-0.2,1.7-0.3,3.4,0.6,5.1c0.7,1.5,0.7,3.4,0,4.9c-2.3,4.5-2.3,9.5-2.8,14.3c-0.1,1.4-0.1,2.7-1,3.8c-2.9-3.8-6.6-6.7-11.3-7.8
		c-4.4-1-8.7-2-12.9-3.7c-4.2-1.7-8.6-2.7-13.1-3.2c-1.1-0.1-2.3-0.1-3.5-1.1c0.4-2.9,0.9-5.9,1.2-9c0.5-4.8,1.5-9.5,3.6-13.9
		c1.1-2.3,1.5-4.9,1.7-7.4c0.4-5.1,2.3-9.8,4.2-14.5c2.7-6.5,5.4-12.9,8.5-19.7c5.6,5.2,9.6,11.7,13.4,18.4
		c-0.1,0.1-0.2,0.2-0.3,0.3c-1.9-0.3-2.3-2.1-3.3-3.3c-2.6-2.9-5.1-5.9-7.2-7.4c4.2,2.7,7.1,8.4,11.8,12.4c0.1,0,0.3,0,0.4,0.1
		c1.9,2,2.7,4.7,4.5,7c0.2-4.2-15-26.7-19.2-29.1c-2.9-4.9-1-8.9,1.5-12.9c2.3-3.6,4.8-7,7.5-10.3
		C358.5,364,359.7,363.3,361.2,363.3c0.1,0.2,0.1,0.5,0.1,0.8C361.3,363.9,361.2,363.6,361.2,363.3z"/>
	<path fill="#FFFFFF" d="M366.7,357.4c-2.2-0.9-3.1-2.4-2.9-4.8c0.1-1.8-0.1-3.7-0.4-5.5c-2.1-14.5-1.5-29.2-4.3-43.6
		c-0.5-2.4-1.2-4.8-2-7.6c1.7,1.3,2.4,3.2,4.9,3.8c-1.4-2.6-2.7-4.7-4.5-6c-1.2-0.9-1.6-1.8-2-2.9c-1.5-5.3-2.4-10.8-3.6-16.2
		c-0.4-1.8,0.1-3.4,0.6-5.1c1.2-3.8,3.3-7.1,5.3-10.4c7.2-11.8,13.4-24,17.3-37.4c0.9-3.2,2.2-6.2,4.6-8.7l0,0
		c-1.5,4-3.1,8.1-4.5,12.1c-0.9,2.5-1.8,5.1-1.4,8.1c1.7-1.6,0.7-3.9,2.3-5.5c0.5,5.8,1,11.3,1.3,16.9c0.2,4,1.3,5.6,5.3,6.4
		c1.9,0.4,3.8,0.7,5.6,1.7c1.7,1,3.3,0.6,4.7-0.7c1.3-1.2,2.2-2.6,3-4.2c2.6-5.5,4.9-11.2,7.8-16.6c2.4-4.3,5.7-8,7.6-12.7
		c0,0.7,0,1.4,0,2.1c-0.1,0.8-0.3,1.6-0.4,2.4c-1,9.3,0.5,18.4,2.5,27.4c1.7,7.8,6.6,14,12.5,19.1c3.6,3.2,7.6,6,11.8,8.4
		c4.2,2.4,8.8,4.5,14.2,4.4c-2.9,9.6-4.9,19.2-6.8,28.7c-0.6,2.7-0.8,5.5-2.8,7.6c-0.1,0.2-0.4,0.3-0.6,0.4
		c-0.7-1.3-0.4-2.9-1.6-4.1c-1.3,0.7-0.7,1.8-0.5,2.7c1.4,4.8,0.2,9.7,0.4,14.6c-2.3,0.7-4.5,1.4-6.8,1.7c0.1,0,0,0,0.1,0
		c2.3-0.4,4.5-0.9,6.7-1.8c1.5,1.7-0.1,2.7-0.7,3.9c-3.5,0.6-6.8,1.2-10.2,1.8c3.6,0.6,7.1,0.8,11.3,0.1c1.5,7.9,1.9,15.7,2.5,23.7
		c-1.6,0.4-3,0.4-4.6-0.1c0.7-1.2,2-0.6,2.7-1.2c0.1-0.5-0.3-0.7-0.6-0.7c-1,0.1-2.1,0-3.1,0.4c-11.3,4.2-23.1,5.9-35.1,6.9
		c-5,0.4-10,1.2-15.1,1.6c-0.7,0-1.5,0.1-2-0.1c-4.3-1.8-8.6-3.8-12.6-6.4c-0.8-0.5-0.9-1.5-1.1-2.4c-1.5-9.1-3-18.2-4.6-27.2
		c0.7,9.2,1.4,18.4,3.8,27.8C368.7,359.5,367.6,358.5,366.7,357.4c0.7-2.1-0.7-3.8-0.8-5.7c-0.3-0.3-0.4-0.7-0.4-1
		c0,0.1,0,0,0.1,0.1c0,0.6,0.5,1,0.6,1.5C365.8,354,367.5,355.6,366.7,357.4z"/>
	<path fill="#FFFFFF" d="M331.2,628.7c2.4-4.6,4-9.1,7-13.1c7.8-10.4,11.1-22.7,13.9-35.1c1.7-7.8,3.7-15.5,5.1-23.3
		c1.5-8.2,5.6-15.3,9.6-22.9c0.3-0.4,1.1,1.1,1.7-0.6c-0.6-3.3,1.1-7,1.8-10.7c1.7-9.1,0.6-18.4,2.6-27.4c0.3-1.3-0.1-2.9,2-3.1
		c-1.3-6.5-3.9-12.7-1.9-19.4c4.4-0.2,8.8-0.3,13,0.6c0.6,1.8-1.1,2.5-1.2,4.1c2.3-0.2,2.8-2.5,4.9-3.5c4.8,0.5,9.8,1.5,14.7,3
		c2.1,3.5-3.6,4.6-2.1,8.2c2.2-2.8,4.5-5.3,6-8.3c1.8-0.5,3.5-0.4,5.2-0.1c-0.4,4-0.9,5.1-6.9,13.4c-1.8-1-2.7,0.1-3,1.7
		c-0.3,1.5-1.3,2.1-2.3,2.9c-1,0.9-2.1,1.7-1.3,3.6c2.2-0.9,2.5-3.2,4.3-4.4c0.5,1.1,0.6,2.1,0.4,3.2c-1.5,8.1-2.9,16.1-6.6,23.5
		c-0.8,1.7-0.8,3.6-0.9,5.4c-0.1,2.4-0.2,4.8-0.2,7.3c0.2,14.5-4.5,27.6-10.9,40.3c-6.1,11.9-13.5,23.1-20.7,34.3
		c-5.6,8.8-10.2,18.1-12.9,28.2c-0.3,1.2-0.5,2.5-1.9,3.6C345.1,634.9,339.2,630.3,331.2,628.7z"/>
	<path fill="#FFFFFF" d="M293.1,683.4c1.1-1.3,1.6-2.8,2.3-4.2c0.7-1.5,1.5-2.8,3.2-3.4c1.2-0.4,2-1.5,2.9-2.4
		c3.5-4,6.4-8.4,8.7-13.3c5.2,1.1,9.9,5,15.6,2.5c-3.5-3.5-8.1-3.3-12.7-3.5c0.1-1.2,0.8-2,1.7-3c4.4,2,9,3.5,13.9,3.1
		c0.6-0.1,0.6-0.1,2-1.8c-0.9-2-3.3-1.2-4.6-2.5c2.7-1,6.6,2.7,8.4-2.2c1.2-0.4,2.8,0.7,4-1c0.1-2.1-1.7-2.7-3.2-3.3
		c-4.9-2-9.9-3.6-15.5-3.8c2.5-1.9,2.5-1.9,20.5,4.7c2.2-2,0.3-3.3-1.1-4.2c-4.1-2.5-8.5-4-13.3-4.6c-0.8-0.1-1.6-0.1-2.3-0.1
		c-0.6-3.1,1.9-5.7,0.9-8.7c4.1-0.3,9.5,1.7,14.9,5.4c0.5,2.1-1.7,3.6-1.8,5.9c3.6-0.9,3.6-3.9,4.6-6.5c2.9,1.3,4.6,4.2,7.1,5.9
		c-0.1,1.3-1.5,2-1.3,3.2c0.5,1.2,1.7,0,2.1,0.4c1.4,5.5-0.3,11,2.5,16.2c-5.1,3.2-9.5,7.2-13.8,11.2c-0.7,0.6-1,1.3-1.2,2
		c-2.8,9.1-10.2,12.2-18.4,14.2c-6.1,1.5-12.3,1.5-18.5,0.9c-1.1-0.1-2-0.6-2.8-1.3C296,687.7,294.4,686,293.1,683.4z"/>
	<path fill="#FFFFFF" d="M425.3,265.7c-6.1-6.3-9.5-14-10.7-22.8c-0.9-7-1.2-14-0.9-21c0.2-5.4,2.4-9.6,6.1-13.5
		c6.1-6.5,12.3-12.8,19.6-17.9c1.4-1,2.6-2.3,4.9-2.4c-1,4.8-0.5,9.5-0.9,14.2c-0.2,2.5-1.8,4.5-2.5,6.7c-1.5,4.7-2.6,9.6-2.8,14.5
		c-0.2,5.4-1,10.9-2.4,16c-1.3,4.8-3.2,9.6-5,14.3C429,257.8,428.9,262.4,425.3,265.7z"/>
	<path fill="#FFFFFF" d="M370.5,487.2c2.7,3.4,1.4,6.4,0.2,9.2c-1.9,4.7-2.4,9.5-1.9,14.5c0.3,3.3-0.2,6.8-0.6,10.2
		c-1,7.2-4.7,12.8-8,18.9c-3.5,6.3-5.1,13.2-6.4,20.3c-0.6,3.6-1.1,7.3-2.1,10.9c-2.7,10.3-5.5,20.5-8.5,30.7
		c-1.2,4.2-3.6,8-5.9,11.7c-3.1,5.1-6.4,10.1-8.7,15.6c-1.3,0.5-2.3,0.7-3.7,0.1c-0.1-2-0.3-4,0.1-6c3.1-13.7,7.4-26.9,15-38.8
		c1.6-2.5,3.4-4.9,5-7.4c3.8-6.1,5-13,7.1-19.7c3.4-11.3,3.1-22.8,3.2-34.3c0-3,0.7-5.7,2.4-8.2c3.5-5.3,5.9-11.2,9.1-16.7
		C368.6,494.8,369.5,491.1,370.5,487.2z"/>
	<path fill="#FFFFFF" d="M381.4,371.7c1.1,0.1,1.3-0.8,2-1c1,0.5,0.9,1.4,1.2,2.4c-2.7,0.4-4.9-0.5-7-1.6c-1.9-1-4.2-1.9-2.8-4.9
		c1.5,0.1,2.6,0.6,2.5,2.3c0.9,0.4,1.5-0.7,2.7,0.1C380.7,369.4,380.4,370.9,381.4,371.7z"/>
	<path fill="#FFFFFF" d="M438.9,366.1c0.3-0.4,0.5-0.8,0.7-1.1c1.5,1.7,3.5-1.3,5.1,0.4c-3.5,2.1-10.3,2.1-11.3,0
		c1-0.5,1,1.2,1.7,0.9c1.3-0.1,0.5-1.4,1.3-1.8C437.5,364.4,437.6,365.7,438.9,366.1z"/>
	<path fill="#FFFFFF" d="M430.5,479c-4,0.4-7.9-0.6-12.3-0.8C420.7,476.8,426,477.1,430.5,479z"/>
	<path fill="#FFFFFF" d="M317.3,649.4c1.6-2.2,2.4-2.1,8.6,1C322.6,649.5,320.1,649.6,317.3,649.4z"/>
	<path fill="#FFFFFF" d="M291.9,653c-2.5,0.1-4.7-1-7.2,0C286.9,650.4,287.8,650.4,291.9,653z"/>
	<path fill="#FFFFFF" d="M420.3,169.8c-0.2-0.6-0.4-1.2-0.7-1.7c-0.2-0.4-0.6-0.7-0.8-1c0.4-1.1,1-1.8,2.2-1.9
		C423,167,421.4,168.3,420.3,169.8z"/>
	<path fill="#FFFFFF" d="M390.4,372c1.2,0.7,1.7,1.7,2.2,3c-1.1,0.7-2.1,0.4-3.2,0.1C389.3,373.9,389.5,372.8,390.4,372z"/>
	<path fill="#FFFFFF" d="M415.2,166.1c-0.4-2-0.1-3.6,2.4-4.5C418,164.2,416.5,165,415.2,166.1L415.2,166.1z"/>
	<path fill="#FFFFFF" d="M408.5,142.6c-1.7-0.6-2.6-2.2-3.8-3.4C407.1,140,407.1,140,408.5,142.6z"/>
	<path fill="#FFFFFF" d="M392.7,134c-1.3-1.1-2.1-1.8-3.3-2.7C392,131.5,392,131.5,392.7,134z"/>
	<path fill="#FFFFFF" d="M368.2,134.3c2.3-0.3,2.9,0.5,2.1,2.4C369,136.6,368.9,135.3,368.2,134.3z"/>
	<path fill="#FFFFFF" d="M367,360.7c1.4,1.6,0.9,2.7,0.7,3.9C365.9,363.5,366.6,362.4,367,360.7z"/>
	<path fill="#FFFFFF" d="M405.1,150.8c-0.8-0.9-2.2-1.3-0.8-2.7C405.3,148.8,405.2,149.6,405.1,150.8z"/>
	<path fill="#FFFFFF" d="M418.2,155.9c-0.4-1.1-1.2-2.2-0.8-3.7C418.9,153.3,418.2,154.7,418.2,155.9z"/>
	<path fill="#FFFFFF" d="M393.2,372.5c-0.5-0.4-0.9-0.7-0.9-1.4c0.4-0.9,1.1-0.4,1.7-0.5C394,371.6,393.8,372.1,393.2,372.5z"/>
	<path fill="#FFFFFF" d="M388.2,139.6c-1.3,1.5-2.4,1.5-3.8,2.2C385.4,140.3,386.5,140.2,388.2,139.6z"/>
	<path fill="#FFFFFF" d="M375.2,128.1c1,0.6,0.9,1.4,1.2,2.3C375.2,130,374.7,129.5,375.2,128.1z"/>
	<path fill="#FFFFFF" d="M369.5,363c1.3,1.1,0.7,2,0.8,3.1C368,365.3,369.6,364.2,369.5,363z"/>
	<path fill="#FFFFFF" d="M315.7,653.2c0.6-1,1.2-0.7,2-0.4C317.2,653.5,316.6,653.8,315.7,653.2z"/>
	<path fill="#FFFFFF" d="M409.7,154.3c1.4-0.1,1.6,0.6,1.8,1.8C410.2,155.9,409.8,155.4,409.7,154.3z"/>
	<path fill="#FFFFFF" d="M414.4,155.1c-0.8-0.2-1.4-0.5-1.8-1.1c0.2-0.6,0.7-0.5,1.1-0.3C414.1,153.8,414.3,154.3,414.4,155.1z"/>
	<path fill="#FFFFFF" d="M363.6,358.5c-1.2-0.7-2.1-1-1.6-2.3C362.9,356.6,363.3,357.2,363.6,358.5z"/>
	<path fill="#FFFFFF" d="M408.2,133.8c-1.3,0.3-1.7-0.4-2.1-1.6C407.2,132.5,407.9,132.8,408.2,133.8z"/>
	<path fill="#FFFFFF" d="M424,367.3c-0.8,1.3-1.8,0.8-2.8,0.7C422,367.5,422.8,366.9,424,367.3z"/>
	<path fill="#FFFFFF" d="M373.8,162c0.8-0.5,1.5-0.2,2.4,0.2C375.2,162.5,374.5,162.9,373.8,162z"/>
	<path fill="#FFFFFF" d="M428.1,367.3c-1,0.4-1.6,0.4-2.3-0.1C426.5,365.7,427.2,366.2,428.1,367.3z"/>
	<path fill="#FFFFFF" d="M413.2,139.1c0.9,0.4,1.6,0.9,1.4,2.3C413.3,140.9,412.9,140.3,413.2,139.1z"/>
	<path fill="#FFFFFF" d="M372.2,368.5c0-1,0-2,0-3.3C373.1,366.5,372.7,367.5,372.2,368.5L372.2,368.5z"/>
	<path fill="#FFFFFF" d="M365,361.5c-0.8-0.9-0.6-1.4-0.3-2C365.6,360.2,364.9,360.7,365,361.5z"/>
	<path fill="#FFFFFF" d="M430.7,365.8c0.5-0.1,0.7,0.2,0.6,0.7c0,0.1-0.4,0.2-0.5,0.1C430.5,366.4,430.4,366.1,430.7,365.8z"/>
	<path fill="#FFFFFF" d="M385.1,135c0.8-0.1,1,0.2,1.2,0.7C385.7,136.1,385.4,135.7,385.1,135z"/>
	<path fill="#FFFFFF" d="M387.1,373.2c-0.1,0.2-0.1,0.5-0.3,0.5c-0.3,0.1-0.6-0.1-0.7-0.4c0-0.2,0.1-0.5,0.3-0.5
		C386.8,372.7,387,372.9,387.1,373.2z"/>
	<path fill="#FFFFFF" d="M441.2,214c-0.3-0.5,0.1-0.7,0.4-1C442,213.6,441.8,213.9,441.2,214z"/>
	<path fill="#FFFFFF" d="M361.9,408.3c0.7,0.6,1.2,1.2,1.3,2.1c-0.1,0.1-0.2,0.2-0.3,0.2c-1.2-0.2-1.8-0.8-1.4-2.1
		C361.6,408.5,361.8,408.4,361.9,408.3z"/>
	<path fill="#FFFFFF" d="M379.7,213.1c-0.2-0.6,0.2-1,0.6-1.6C380.7,212.5,380.4,212.9,379.7,213.1L379.7,213.1z"/>
	<path fill="#FFFFFF" d="M411.1,163.8c0.5,0.6,0.8,0.9,1.1,1.3C411.3,165.4,411,165,411.1,163.8z"/>
	<path fill="#FFFFFF" d="M765.5,393.1c-1.9-1.7-3.8-3.3-5.8-5.2c2.3-2.2,4.6-4.2,6.4-6.8c-2.1-0.7-3.2,0.7-4.4,1.7
		c-10.2,7.8-21.3,13.8-33.8,16.8c-3.9,1-8,1.2-12,1.1c-2.2-0.1-4.1-1.2-6.1-1.9c-9.1-3.1-17-9-26.3-11.4c-5.9-1.6-12.1-1.7-18.1-2.5
		c-3.1-0.4-6.2-0.5-9.3-0.8c1.4-2.1,4.1-2.9,7.4-1.6c3.1,1.3,5.9,0.9,9.6-0.7c-5.1-0.9-9.7,0.5-13.9-2c1.7-5.3,4.7-10.2,4.5-16
		c3.8-1.4,6.8,2.9,10.8,1.5c-3.1-2.8-7.5-2-10.6-4.6c-0.4-2.8-0.8-5.6-1.2-8.4c1.2-1.1,2.3-0.3,3.4,0c6.7,1.9,13.6,2.7,20.5,1.6
		c2.4-0.4,4.8-0.2,7.2,0.3c6.8,1.3,13.6,0.3,20.3-1.1c10-2.1,20-3.6,30.2-2.3c1.9,0.2,3.9,0,5.9-0.2c-2.7-0.3-5.4-0.7-8.2-1
		c5.1-3.4,10.7-5.2,16.9-4.7c0.6,0.7-0.8,1-0.4,1.6c6.9-1.8,13.9,0.6,21.2-0.9c-1.2,1.6-3.1,0.4-4,1.6c3.3,2.2,4.9,2.2,9.1-0.2
		c1.8,0.4,3.8,0.7,5.7,1.1c7.9,1.5,11.6,5.9,12.6,14c0.8,6.4,0.2,12.7-0.4,19c-0.6,6.4-1.6,12.8-3.3,19.1c-0.4,1.6,0,3.2-0.1,4.8
		c-0.5,7.7-3.1,14.8-6.7,21.8c-2.7-2.2-5.4-3.6-8.1-5c-6-3.1-10.3-8-13.7-13.6c-4-6.5-9.1-12.1-14.6-17.5c0.5-0.9,1.5-1.2,2.6-1.7
		c2.4,1.2,4,3.7,6.7,4.5c0.2,0.1,0.3,0.1,0.3,0.1c0.1,0,0.1,0,0.1-0.1C765.6,393.2,765.5,393.1,765.5,393.1z"/>
	<path fill="#FFFFFF" d="M797.1,176.4c2-0.6,4,1.4,6.1-0.1c0.3,1.5,0.5,2.6,0.9,4.2c2.1-5.9,1.1-7.4-7.5-11.3
		c0.1-4.6,3-9.1,1.9-14.6c6.7,2.9,13-1.3,19.2,1.1c-0.8,1.3,1.9,2.5-0.9,4.1c3-0.4,5.4-1.3,6.5,1.8c0.7,0.6,1.6-0.6,2.6,0.1
		c4.7,6.6,7.5,14.3,11,21.7c0.8-1.6,0.8-3.2,1.9-4.8c0.9,1.6,0.7,3.2,0.8,4.4c0.6,1.3,1.7,1,2.5,1.4c0.1,1.3-0.5,1.8-3.3,2.5
		c3.3,1.8,3.3,4.8,3.3,7.8c0,5.7,0.1,11.3-0.1,17c-0.1,1.9,1.3,2.8,2.2,4.5c-1.7,2-3.1,4.9-5.4,6c-7.4,3.6-10.4,10.9-15,16.8
		c-1.5,1.9-2.5,4-3.5,6.2c4-4,7.6-8.3,11.1-12.7c-0.4,1.6-0.6,3.2-1.8,4.4c-3.7,4-5.7,8.9-7.9,13.7c-1.4,3.2-2.8,6.3-4.5,9.4
		c-1.8,3.4-3.1,3.7-6.6,2c-0.1-0.1-0.2-0.1-0.3-0.2c-6.9-0.9-8.2-5.4-7.7-11.4c0.2-2.6-0.2-5.3-0.5-7.9c-0.7-5.8-0.3-11.3,3.8-16.3
		c0.2-0.1,0.3,0.5,0.5,0.8c0.2,0.2,0.4,0.5,0.7,1c0.5-4.4-0.8-8.6-0.6-13c5,0.4,10.3,2.2,14.3-2.9c-5.1,2-10.3,1.1-16,1.3
		c-0.1-0.1-0.4-0.5-0.5-0.9c-1.9-5.9-5.1-11.4-5.1-17.8c0-3.1-0.4-6.2-1.6-9.1c-0.9-2.2,0.3-4.5-0.2-6.8
		C797.5,177.6,797.6,176.9,797.1,176.4L797.1,176.4z"/>
	<path fill="#FFFFFF" d="M647.5,389.8c-3.6-2-6.2,0.4-8.5,2.5c-1.5,1.3-3,2.4-5,2.9c-2.7,0.7-4.9,2.5-7.4,3.7
		c-1.1,0.6-2.2,1.4-3.6,1.1c5.5-7.1,7.8-15.4,9.7-23.9c0.5-2.3-0.5-4.5-1.1-6.8c-1.9-7.9-1.4-15.7,1.4-23.3c1-2.8,2.1-5.6,3.2-8.4
		c3.8-9.5,5.9-19.4,6.2-29.6c0.2-7.8-1.7-15.5-3.4-23.2c-0.2-0.7-0.5-1.3-0.1-2.2c3.4,6.9,7.4,13.3,7.8,21.2
		c0.4,7.1,1.5,14.2,2.5,21.3c0.5,3.2,0.2,6.4,1,9.5c0.3,1.1-0.3,2-0.7,3c-0.4,0.9-1.1,1.9,0.2,2.8c1.6,0.2,1.5-1.8,2.9-2.3
		c1.8,1.9-2.6,4.2,0.4,5.9c1.6,0.2,1.8-1.5,3.1-2.4c-0.6,1.9-1.2,3.6,0.3,5c1.5,0.7,2.3-0.6,3.4-1.3c1,1.1,2.1,2.1,3.3,3.4
		c-2,0.3-2.4,2-3.6,2.9c0.1,1.2,1.6,1.7,1,3.1c-0.5,0.5-0.7-1-1.4-0.4c-0.9,1.3-1,3.1-1.1,4.7c-0.3,3.5-1.4,6.5-3.9,9
		c-3.1,3.2-4.8,7.3-6.8,11.2C645.5,382.7,646.2,386.3,647.5,389.8L647.5,389.8z"/>
	<path fill="#FFFFFF" d="M868.4,198.9c-1.1,5.8,0,11.1-1.2,16.2c-0.8,3.3-2.7,6.2-3.5,9.7c-1.5,6.4-1.7,13-2.6,19.5
		c-1,7.5-4.4,14.3-6.6,21.4c-1.2,4-1.8,8.4-5.2,11.8c-3.1-4.8-7.1-9.1-8.7-15.1c-2-7.4-2.5-15-2.9-22.5c-0.4-8.3,1.4-15.5,7.7-21.6
		c6.3-6,12.2-12.2,19.4-17.1C865.7,200.4,866.7,199.9,868.4,198.9z"/>
	<path fill="#FFFFFF" d="M661.2,343.5c6.7,0.2,13.2-1.8,19.9-2.3c2.6-0.2,5.3-0.6,7.9-0.5c5.2,0.1,10.4-0.6,15.1-3.1
		c1.2-0.6,2.5-0.6,3.7-0.7c4-0.3,8-1.3,11.8-2.5c3.6-1.2,6.8,0.3,10,1.5c1.7,0.7,2.2,2.3,1.3,4.1c-0.4,0.8-1.2,1.5-1.2,2.5
		c0.1,0.4-0.1,0.8-0.3,1.2c0.2-0.3,0.3-0.7,0.8-0.7c2.1-0.9,3.1-2.7,3.4-4.7c7-1.3,13.2,0.2,19.4,4.7c-5.6,1.2-10.4,2.5-14.6,5.5
		c-0.7,0.5-1.5,0.6-2.3,0.5c-7.7-0.7-15.1,1.1-22.6,2.5c-5.9,1.1-11.8,1.6-17.8,0.8c4.9-1.8,10.2-0.3,15.1-2.2
		c-6.8,0.4-13.6,0.1-20.4,1.4c-6.9,1.3-14,1.1-20.9-0.5c-0.8-0.2-1.4-0.6-1.9-1.3C665.8,347,663.5,345.2,661.2,343.5L661.2,343.5z"
		/>
	<path fill="#FFFFFF" d="M764.6,404.2c4.2,8.4,12.4,14.7,13.5,24.8c0.1,0.4,0.1,0.9,0.3,1.7c-10.9,0.1-20.7-4.6-31.1-5.8
		c-0.2-1,0.5-1,1-1.2c4.2-1.6,6.6-5.4,5.8-9.8c-1.2-6.4,1.5-11.4,5.1-16.6c1.8,2.3,3.5,4.3,5.1,6.4c-0.6,1.1-0.3,2.4-0.4,3.6
		C764.1,406.3,763.5,405.1,764.6,404.2z"/>
	<path fill="#FFFFFF" d="M742.8,424.2c-4.6-1.3-7.8-3.6-9.2-8.5c-1.1-4.2-3-8.2-4.5-12.2c1.2-1.1,2.1-1.5,3.2-0.5
		c4.4,4,9.7,6.4,15.5,8c-3.1-4.6-8.7-6-13.2-9.8c6.8-2.6,12.5-6.7,18.8-9.7c2,1.2,3.1,2.7,4.5,4.4c-2.6,2.6-4.8,5.5-5.9,9.1
		c-0.9,2.8-1.2,5.5-0.7,8.5c0.7,4.4-0.4,6.3-4.3,8.3C745.6,422.5,744.3,423.3,742.8,424.2z"/>
	<path fill="#FFFFFF" d="M778.8,421.6c4.8,2,8.3,4.6,12.9,5.5c-0.8,2.2-2.1,3.4-3.7,4.4c-1.5,1-2.4,2.5-4,4
		C780.7,431.6,780.8,426.6,778.8,421.6z"/>
	<path fill="#FFFFFF" d="M660.4,365c-0.6,5.4-2.3,10.2-4.8,14.3c-1.3,1-2.6,0.2-3.6,0.9c-1,0.9,0.3,1.3,0.5,2.1
		c-1,0.9-2.2,1.8-2.4,3.9c-1-2-1.2-3.4-0.3-5C652.8,375.5,656.2,370.1,660.4,365z"/>
	<path d="M764.6,404.2c0,2.7,0,5.5,0,8.7c-1.9-3.2-1.9-7.1-0.3-9.1C764.4,403.9,764.5,404.1,764.6,404.2z"/>
	<path fill="#FFFFFF" d="M844.8,176.4c2.4,2,0.4,3.3-0.8,5.5c0-1.9-0.7-2.8-1.2-3.6C843.3,177.4,843.9,176.9,844.8,176.4z"/>
	<path fill="#FFFFFF" d="M761.8,342.7c-1.3,0.1-2.5,0.1-3.8,0.2c-1.8,0.2-3.1-0.4-3.9-2.4C756.9,341,759.3,341.7,761.8,342.7
		L761.8,342.7z"/>
	<path fill="#FFFFFF" d="M838.8,177.5c0.4-2.1,0.4-3.9,3.1-4.4C841.9,175.3,840.9,176.4,838.8,177.5z"/>
	<path fill="#FFFFFF" d="M829.3,150.4c1.4,1,2.9,1.8,3.6,3.5C830.7,153.2,830.7,153.2,829.3,150.4z"/>
	<path fill="#FFFFFF" d="M794,148.6c-0.7-1.1-1.1-1.8-1.5-2.5c0.8-0.5,1.5-0.2,2.2,0C795.1,146.9,794.7,147.6,794,148.6z"/>
	<path fill="#FFFFFF" d="M761.7,342.8c1.4-0.1,2.7-0.2,4.1,1C764.2,343.8,762.8,344,761.7,342.8L761.7,342.8z"/>
	<path fill="#FFFFFF" d="M813.4,142.6c2.3-0.1,3.3,0.3,3.1,2.4C815.5,144.2,814.7,143.6,813.4,142.6z"/>
	<path fill="#FFFFFF" d="M841.9,167.5c-0.2-1.1-0.4-2.3-0.7-4C842.9,165,842.1,166.4,841.9,167.5z"/>
	<path fill="#FFFFFF" d="M836.4,165.4c1.7-0.9,1.8,0.3,2.2,1C837.6,166.7,837.2,165.9,836.4,165.4z"/>
	<path fill="#FFFFFF" d="M797.7,173.6c1.1-1.1,1.8-0.2,2.9,0.1C799.4,174.1,798.7,174.3,797.7,173.6z"/>
	<path fill="#FFFFFF" d="M835,167.5c-0.7-0.4-1.4-0.8-0.8-2.1c0.6,0.4,1.2,0.7,1.2,1.6C835.2,167.2,835.1,167.4,835,167.5z"/>
	<path fill="#FFFFFF" d="M799.4,139.3c0.6,1.2,0.9,1.8,1.3,2.7C799.3,141.7,798.7,141.2,799.4,139.3z"/>
	<path fill="#FFFFFF" d="M831.7,145.2c-0.9,0-1.3-0.4-1.5-1.3c0.9-0.3,1.3,0.3,1.7,0.8C831.8,144.8,831.8,145,831.7,145.2z"/>
	<path fill="#FFFFFF" d="M836.9,150.5c1.4,0.6,2.1,0.9,1.7,2.1C837.4,152.6,837.3,151.8,836.9,150.5z"/>
	<path fill="#FFFFFF" d="M828.4,159.5c0.7,0.8,0.8,1.3,0.5,1.9C827.7,161.2,827.5,160.7,828.4,159.5z"/>
	<path fill="#FFFFFF" d="M814.5,150.8c0.2-0.8,0.6-1,1.2-0.5C815.4,150.9,815.1,151.3,814.5,150.8z"/>
	<path fill="#FFFFFF" d="M835.7,176.9c-0.3-0.4-0.5-0.8-0.8-1.1C836,175.5,836,176.1,835.7,176.9z"/>
	<path d="M370.1,470.2c-0.5-6.3-0.3-12.4,2.5-18.2c0.2-0.5,0.3-1.1,0.2-1.7c-0.6-3.9-0.7-7.8-0.1-11.4c-3.6-2.2-6.9-4.2-10.2-6.2
		c0.1-0.2,0.2-0.4,0.3-0.6c4.5,0.3,7.2,4.4,11.4,5.8c0.1,2.2-0.3,4.5,0.1,6.8c0.9-0.5,0-1.9,1.3-2.3c1.8,2.4-1.5,5.8,1.5,8.2
		c-2.4,1.6-3.6,4.2-3.9,7.2s-0.7,5.9-1.1,8.9C371.9,468.1,372.1,469.9,370.1,470.2L370.1,470.2z"/>
	<path d="M379,436.2c1.3-2.6,2.4-4.5,3.3-6.6c1.7-3.9,2.9-8,4-12.1c0.6-2,1.5-3.6,3.3-4.7c2.8-1.6,3.9-4,3.5-7.3
		c-0.2-1.7-0.4-3.4,0.4-5.1c0,3.1,0,6.1,0,9.2c0,0.4,0,1-0.3,1.3c-3.1,3.2-3.4,7.5-4.7,11.4c-1.4,3.9-2.8,7.8-5.3,11.2
		C382.4,434.7,381.6,436.1,379,436.2z"/>
	<path d="M357.2,390.9c-2-2.8-1.2-5.5-0.4-8.1c1.9-6,3.4-7.3,12.3-10.7c0.8,1.7-0.8,2.1-1.6,2.3c-3.6,1.1-4.8,3.6-5.7,7
		C360.2,388.4,360.1,388.4,357.2,390.9z"/>
	<path d="M422,375.1c-5.3,2.7-6.4,8.8-10.1,12.8c-3.6,3.9-4.8,9.3-5.5,14.8c-1.7-0.7-1.4-2-1.2-3.1c0.8-5.2,2.5-10.1,6.2-14
		c1.3-1.4,2.2-2.8,2.9-4.6C415.8,377.1,418.1,375.3,422,375.1z"/>
	<path d="M435.6,434.9c-1-0.8,0.5-1.7-0.3-2.6c-2.2,0.8-3.9,2.5-5.8,3.9c0.7-2,2-3.6,3.8-4.5c3.8-1.8,4.2-5,4.5-8.8
		c-2.3-0.4-4.5-0.8-7.5-1.3c1.7-0.9,2.9-0.7,4-0.7c1.2,0,2.5,0.4,3.9-0.1c1-3.4,2-6.9,3.3-11C442.2,413.8,437.7,432,435.6,434.9z"/>
	<path d="M380.4,416.5c0.9-4.1,2.7-7.2,2.8-10.7c0.1-3.1-0.1-6.2-1.4-9.1c-1-2.3-2.1-4.6-1.2-7.7C383.8,398.2,386.9,407,380.4,416.5
		z"/>
	<path d="M361.5,408.6c0.2,0.9,0.7,1.5,1.4,2.1c0.1,1.2,1.4,2.1,1.1,4.2c-4.8-7.4-9.7-14-16.8-19.2c2.7,0.4,4.2,1.5,8.1,5.6
		C357.5,403.6,359.5,406.2,361.5,408.6z"/>
	<path d="M393.5,416.4c4.2-4.2,9.4-6.2,15.4-6.8c-5,2.5-9.9,5-14.9,7.5C393.8,416.9,393.7,416.7,393.5,416.4z"/>
	<path d="M445.1,377.3c1.5,7.2,1.7,13.9,0.4,20.8c-1.3-2.2-1.1-2.4-0.9-5c0.5-4.6,0.2-9.2-0.1-13.7
		C444.5,378.8,444.2,378.3,445.1,377.3z"/>
	<path d="M366.3,390.1c-1.8-3.4-1.1-8.4,1.9-9.8c2-1,3.2-2.5,4.6-3.8c0.6-0.5,1.1-1.1,2.3-1.1c-0.5,2.7-2.6,4.1-4.4,5
		c-3.5,1.7-4.2,4.5-4.1,7.9C366.7,388.8,366.9,389.4,366.3,390.1z"/>
	<path d="M376.9,423c-0.7,4.2,1.6,9-2.1,12.7c0.2-2.2,1.3-4.3,0.9-6.6C375.3,427,375,424.9,376.9,423z"/>
	<path d="M430.7,387.2c-3.6,2.4-6.9,5.4-11.3,6.5C423.2,391.4,426,387.6,430.7,387.2z"/>
	<path d="M428.9,464.7c-0.4-2.2,0.8-4.2,0.4-6.4c-1.7-1-3.4-0.7-5.4-0.3c0.7-1.6,1.8-1.7,3-1.7c1.1,0,2.2,0.8,3.3-0.7
		C431.5,459.1,428.6,461.6,428.9,464.7z"/>
	<path d="M425.2,401.6c-1.5,1.2-2.8,1.5-4,1.8c-3.1,0.7-6.2,1.3-9.4,1.6C415.8,402.6,420.3,402.5,425.2,401.6z"/>
	<path d="M370.6,452.8c-3.7,1.4-6.9-1.1-10.4-1.3C363.8,451.1,367.2,451.3,370.6,452.8z"/>
	<path d="M357.6,443.5c4.1,0,8-1.5,12.1-0.6C365.8,444.4,361.6,443.3,357.6,443.5z"/>
	<path d="M407.2,371.6c3.3,1.2,4,3.5,2.3,8C408.8,376.8,408.1,374.5,407.2,371.6z"/>
	<path d="M371.8,426.5c-3.1-1.9-6.2-3.9-9.3-5.9C366.4,421.5,369.6,423.1,371.8,426.5z"/>
	<path d="M349.4,382.7c0.9-3.5,2-4.6,5.4-6.3C353.4,378.9,352.2,381,349.4,382.7z"/>
	<path d="M414.9,391.4c-1.9,1.8-2.8,3.8-4.1,5.9C410.3,394,411.1,392.8,414.9,391.4z"/>
	<path d="M429.8,444.6c2.8,0.3,4.9,1.4,7.1,0C434.8,447.5,433,447.6,429.8,444.6z"/>
	<path d="M361.2,363.3c0.4,0.7,1.5,0.8,1.3,2c-0.9,1.2-2.8,0.8-4.2,2.7C358.6,365.4,360.2,364.5,361.2,363.3L361.2,363.3z"/>
	<path d="M345.8,406.6c2.5,0,4.2,0.8,5.8,2.1C349.6,408.9,347.9,408,345.8,406.6z"/>
	<path d="M398.6,402.6c-0.2-2.1,0.5-3.6,2.8-4.8C400.8,400,400.1,401.6,398.6,402.6z"/>
	<path d="M431.8,450.6c-1.6-0.7-2.4-2.1-3.1-3.6C430.5,447.6,431.7,448.7,431.8,450.6z"/>
	<path d="M422.2,470.4c-0.5,1.2-1.4,1.4-2.6,0.8C420.1,469.5,421.4,470.5,422.2,470.4z"/>
	<path d="M442.4,400.6c1-0.4,1.7,0.4,2.5,0.8C444,401.4,443.1,401.7,442.4,400.6z"/>
	<path d="M389,396.7c-0.8-0.5-0.8-1.3-0.7-2.1c0.8-0.2,0.9,0.4,1,0.9C389.4,395.9,389.5,396.4,389,396.7z"/>
	<path d="M444,386.2c-1.5,1-2.4,0.6-3.3,0.5C441.5,386,442.4,385.9,444,386.2z"/>
	<path d="M423.6,473.3c0.8-0.3,1.6-0.5,2.4-0.1C425.2,473.6,424.4,473.7,423.6,473.3z"/>
	<path d="M434.1,400.5c-0.5,0.2-0.9,0.4-1.4,0C433.1,400.3,433.6,400.2,434.1,400.5z"/>
	<path d="M433.3,409c-0.4,0.1-0.8,0.3-1.3,0.4C432.1,408.5,432.8,408.7,433.3,409z"/>
	<path d="M367.4,459.1c0.6-0.8,1.2-1,1.8-0.4C368.8,459.4,368.4,459.7,367.4,459.1z"/>
	<path d="M435.5,464.4c-0.4,0-0.8,0-1.4,0C434.6,463.9,435,464,435.5,464.4z"/>
	<path d="M377.1,435.4c0.3-0.3,0.5-0.7,0.8-1C378.5,435.2,377.8,435.4,377.1,435.4z"/>
	<path d="M387.8,343.1c-1.6-3.8-2.3-7.9-1.2-11.9c0.6-2.3,0.3-3.9-0.5-5.9c-1.4-3.4-1.6-6.9-0.5-10.5c0.1-0.3,0.3-0.6,0.5-0.9
		c0.1-0.2,0.4-0.2,1-0.6c0.5,10,1,19.8,1.6,29.5C388.5,343,388.2,343.1,387.8,343.1z"/>
	<path d="M385.7,308.6c-2.7-5.1-2.7-10.4-0.9-15.8C385.5,298,384.9,303.4,385.7,308.6z"/>
	<path d="M397.2,287.7c-2.9,0-5,0-7.2,0c-0.7-1.8-2.2-3-4.3-4.4c3.6-1.5,3.7,1.5,4.9,2.6C392.5,286.7,394.7,285.9,397.2,287.7z"/>
	<path d="M379.2,287.4c-2.8,2-5.8,0.7-8.7,0.5C373.4,286.6,376.2,286,379.2,287.4z"/>
	<path d="M430.5,301c1.3-2.6,4.1-3.2,4.9-6.2C436.5,298.5,435.3,299.8,430.5,301z"/>
	<path d="M370.3,306c2.3-2,4.7-3.8,7.8-4.1C376.1,304.3,373.1,305.1,370.3,306z"/>
	<path d="M434.9,278.7c1.2,2.9,0.4,4.9-3,6.8C433.2,283.4,433.7,281,434.9,278.7z"/>
	<path d="M390.3,321.5c4.1-0.6,8.1-0.5,12.1,0.6C398.3,321.5,394.2,322.3,390.3,321.5z"/>
	<path d="M430.5,287.6c-0.5,4.1-3.6,3.2-5.5,4.2C426.7,290.6,427.8,288.7,430.5,287.6z"/>
	<path d="M440,332.2c-2.4,2-5.4,1.8-8.2,2.2l0.1,0.1C434.3,332.8,437.2,332.6,440,332.2L440,332.2z"/>
	<path d="M387,272.4c0.7,2.1,0.9,4.1-0.3,6.2C385.7,276.5,386.8,274.4,387,272.4z"/>
	<path d="M389.2,359.1c-1.7-1.6-1.5-3.4-1.6-5.2C389,355.3,389.6,356.9,389.2,359.1z"/>
	<path d="M435.7,307.9c0.7-1.1,1.1-2.5,2.9-2.8C438.5,307.1,437.6,308,435.7,307.9z"/>
	<path d="M438.2,309c1.6,0.7,1.5,2.1,2,3.9C438.1,311.7,438.2,310.3,438.2,309z"/>
	<path d="M424.5,272.6c0.8,1.7-0.4,2.7-1.2,4C422.9,274.4,422.9,274.4,424.5,272.6z"/>
	<path d="M373.4,236.4c0.4,1.3,0.1,2.4-0.5,3.6C372.4,238.7,372.6,237.5,373.4,236.4z"/>
	<path d="M365.8,351.8c1,1.7,1.8,3.5,0.8,5.6l0.1,0.1C366.7,355.4,365.6,353.7,365.8,351.8L365.8,351.8z"/>
	<path d="M360,302.2c1.1,0.4,1.6,1.2,1.8,2.3C360.1,303.9,360.1,303.9,360,302.2z"/>
	<path d="M364.4,311.5c-0.9-1.4-0.5-2.2,0.5-3.2C365.3,309.6,365.3,310.5,364.4,311.5z"/>
	<path d="M387.1,264.5c-0.7-0.9-0.9-1.8-0.1-3C388.3,262.5,387.5,263.5,387.1,264.5z"/>
	<path d="M357.2,269.2c1.3,0.7,1.8,1.3,1.1,2.4C357.3,271.2,357,270.6,357.2,269.2z"/>
	<path d="M434.2,308.8c0,1.4-0.8,1.6-1.7,1.7C432.2,309,433.2,309.2,434.2,308.8z"/>
	<path d="M429.7,302.6c-0.8,1.1-1.5,1.4-2.5,0.3C427.9,302.2,428.6,302,429.7,302.6z"/>
	<path d="M360.2,282.9c-1-0.4-1.1-0.9-1-1.8C360.5,281.3,360.1,282.1,360.2,282.9z"/>
	<path d="M373.2,354.5c0,0.2,0,0.5,0,0.7c0,0,0,0-0.1,0C373.2,355,373.2,354.7,373.2,354.5L373.2,354.5z"/>
	<path d="M365.8,351.7c-0.8-1-0.6-2.3-0.7-3.4l-0.1,0.1C366,349.3,365.8,350.5,365.8,351.7L365.8,351.7z"/>
	<path d="M394.1,338.7c0.3,0,0.7,0.1,1.7,0.1c-1,0-1.4,0-1.7,0C394.1,338.8,394.1,338.8,394.1,338.7z"/>
	<path d="M431.8,334.4c-0.7,0.2-1.4,0.7-2.4,0.1C430.4,334.5,431.1,334.5,431.8,334.4L431.8,334.4z"/>
	<path d="M387,259.8c-0.2-0.8,0-1.1,0.6-1.4C388.1,259.1,388.1,259.5,387,259.8z"/>
	<path d="M423.2,293.1c-0.1,0.9-0.5,1.2-1.6,0.7C422,293,422.3,292.5,423.2,293.1z"/>
	<path d="M358.4,273.5c1.2,0,1.4,0.5,1,1.3C358.5,274.9,358.4,274.4,358.4,273.5z"/>
	<path d="M366.7,287.7c-1,0.1-1.5-0.2-1.7-0.8C365.9,286.3,366.2,286.9,366.7,287.7z"/>
	<path d="M387.8,350.5c-0.1,0.3-0.1,0.6-0.1,0.9c-0.1,0-0.2-0.1-0.2-0.1C387.4,351,387.3,350.7,387.8,350.5z"/>
	<path d="M365.1,348.3c-0.4-0.4-0.5-1-0.2-1.6C365,347.2,365,347.8,365.1,348.3L365.1,348.3z"/>
	<path d="M425.4,302.8c-0.6,0.8-1.2,1-2,0C424.1,302.3,424.7,302,425.4,302.8z"/>
	<path d="M398.3,500.5c2.5,2.1,2,4.5,1,6.6c-1.2,2.6-2.4,5.1-2.9,8c-0.1,0.6-0.4,1.1-1.2,1.3c-1.8-1.9-1.5-4.5-0.7-6.3
		C395.9,506.9,397.6,504,398.3,500.5z"/>
	<path d="M373.1,506c1.4,4.5,3.1,8.6,0.6,13.1c-0.9,1.6-0.4,3.4-0.4,5.1c0,1.4,0.7,3-1.1,4.2c-1.5-3-1-6-0.1-8.7
		c1.2-3.4,1.3-6.7,0.5-10.1C372.5,508.5,372.2,507.4,373.1,506z"/>
	<path d="M397.3,478.3c-2.6,6.2,0.7,12.6-1.6,18.5c-0.4,0-0.9,0-1.3,0c0-5.3-0.1-10.7,0-16C394.5,479.5,394.8,478.1,397.3,478.3z"/>
	<path d="M391.4,508.1c-3.1,2.6-0.5,7.9-5.1,9.7C388.1,514.6,386.6,509.8,391.4,508.1z"/>
	<path d="M352.5,627.4c-0.7,3.5-3.4,6-4.9,9.8C346.6,634.2,348.1,631.5,352.5,627.4z"/>
	<path d="M360.9,553.8c0.3-4.1,1.7-7.8,3.8-11.3C364.8,546.7,362.7,550.2,360.9,553.8z"/>
	<path d="M387.4,525.4c-3.1,1.9-5.7,4.4-9.3,6.8C379.7,528.6,384.7,525,387.4,525.4z"/>
	<path d="M359.3,557.1c-0.2,4.1-1.3,7.9-2.8,11.7C356.6,564.7,357.8,560.9,359.3,557.1z"/>
	<path d="M390.1,523.6c1.7-1.8,3.6-3.8,5.7-6C395.5,521,393.4,523,390.1,523.6z"/>
	<path d="M392.5,505.3c-0.4-3.3-0.4-3.3,0.7-5.5C393.7,502.6,393.7,502.7,392.5,505.3z"/>
	<path d="M382.6,481.4c-1.1,2.2-2.6,3.8-4.9,4.7c0.9-2.2,3.2-3.2,4.6-4.9C382.4,481.2,382.5,481.3,382.6,481.4z"/>
	<path d="M367.6,536.2c0,2.4,0,3.9-1.6,5.2C365.6,539.5,366,538.1,367.6,536.2z"/>
	<path d="M353.5,619c-0.6,2.2-1.1,3.6-3.1,4.7C350.6,621.5,351.7,620.4,353.5,619z"/>
	<path d="M398.1,518.4c-1.7-2.2-0.7-3.1,0.7-4.4C399,515.6,398.7,516.7,398.1,518.4z"/>
	<path d="M355.5,617.6c-0.2-1.3,0.6-1.7,1.2-2.5C357.1,616.6,356.5,617.1,355.5,617.6z"/>
	<path d="M382.3,481.1c0.3-1-0.4-2.3,1.1-3.7c0.2,1.8,0,2.9-0.8,4C382.5,481.3,382.4,481.2,382.3,481.1z"/>
	<path d="M377.5,533.2c0,1.4-0.5,1.8-1.2,1.6C375.9,533.8,376.8,533.8,377.5,533.2z"/>
	<path d="M374.7,536.8c-0.5,1-0.9,1.6-1.9,1.6C372.9,537.2,373.4,536.8,374.7,536.8z"/>
	<path d="M338.7,661.4c0.1,4.6-1.7,5.8-6.5,4.7c-1,1.7,1.5,1.4,1.4,2.6c-1,1.2-2.1-0.4-3.1,0.2c-1.2,0.8,1.2,1.9-0.5,2.7
		c-2-1.1-2.9-3.2-4.4-5c1.7-1.6,3.1-3.3,5.7-2.5c1.2-4.6,2.9-5.5,6.8-3.6C338.5,660.6,338.7,660.9,338.7,661.4z"/>
	<path d="M313.1,666.3c-0.6-1.1-2.3-0.9-2.8-2.2c3.2-1.9,10.1-0.8,13.1,2c-0.6,1.8-2,1.6-3.3,1.4C317.7,667,315.4,666.6,313.1,666.3
		L313.1,666.3z"/>
	<path d="M338.7,661.4c-0.2-0.3-0.5-0.6-0.7-0.9c-0.7-2.2-0.5-4.2,1.7-5.4c1.5-0.8,3-0.7,4.1,0.5c0.8,0.8,1.3,1.8,1.9,2.8
		C344,660.9,341.9,662.4,338.7,661.4z"/>
	<path d="M313,666.2c0.7,0.9,2.4,0.2,2.8,1.9c-2.3,2-3.4-0.2-4.8-1.2C311.5,665.7,312.5,666.6,313,666.2L313,666.2z"/>
	<path d="M784.4,353.3c-2.1,1.2-4.2,1.9-6.6,1.4c-5.1,3.5-5.4,3.5-9.5-0.7c-1.2-0.4-2.8,0.4-4-1.3c1.8-0.5,3.7,0.5,4.9-1.2
		c0.9,0.8,1.7,1.3,2.3,2c1.2,1.2,2.5,1.4,4.1,0.7C778.4,353.1,781.5,353.6,784.4,353.3z"/>
	<path d="M782.4,389.1c-2.7-0.8-4.8-2.3-7-4.1c-1.9-1.6-5.2-1.1-7.8-3.3C774.6,381,778.8,384.5,782.4,389.1z"/>
	<path d="M757.7,359.8c-6.3-1.8-12.7-2-19.2-1.5C745,357.1,751.5,356.1,757.7,359.8z"/>
	<path d="M761.4,358.5c3.9,2,8.1,3.2,13,4.9C769.3,363.8,763.6,361.6,761.4,358.5z"/>
	<path d="M777.6,359c3.6,0.7,6.5,1.3,9.7,2C783.6,361.9,780.7,361.3,777.6,359z"/>
	<path d="M776.4,348.9c0.5,1.3,0.2,1.8-0.1,2.3c-0.2,0.1-4.2-2-5.1-2.8C773.2,347.6,774.7,349.4,776.4,348.9z"/>
	<path d="M792.1,353.5c-1.8,1.1-3.3,0.5-4.9-0.4C788.9,352.4,790.5,353.2,792.1,353.5z"/>
	<path d="M681.6,382.7c-2.1,0-4.3,0-6.4,0C677.4,381.8,679.6,381.9,681.6,382.7z"/>
	<path d="M730.2,360.2c1.1-0.9,2.2-1.1,3.7,0C732.4,360.9,731.3,360.7,730.2,360.2z"/>
	<path d="M679.5,364.7c-1.7,1.2-2.8,1.1-4-0.3C676.8,363.8,677.9,364,679.5,364.7z"/>
	<path d="M727.1,362.4c-1.5,0.4-2.8,0.6-4.9,0C724.4,362.4,725.8,362.4,727.1,362.4z"/>
	<path d="M682.6,364.7c1.2-0.9,2-0.7,2.8-0.4C685.7,365.3,685.2,365.4,682.6,364.7z"/>
	<path d="M785.3,393.6c-1.2-0.7-1.9-1.5-1.8-3C784.9,391.2,785.4,392.1,785.3,393.6z"/>
	<path d="M690.7,364.6c1.3-0.8,2.3-0.6,3.6-0.1C692.9,365.3,692,365.4,690.7,364.6z"/>
	<path d="M724.2,360.2c-1,1.1-2.1,1.2-3.5,1C721.7,359.9,722.8,359.9,724.2,360.2z"/>
	<path d="M789.3,399.8c-1.2-0.3-1.7-0.8-1.9-2.1C788.5,398,789,398.5,789.3,399.8z"/>
	<path d="M799.2,363.1c0.9-0.6,1.3,0.4,2.1,0.4c-0.4,1-0.9,0.6-1.4,0.5C799.6,363.9,799.2,363.6,799.2,363.1z"/>
	<path d="M759.7,371.4c0.4-0.6,1-0.8,1.7-0.4C760.7,371.6,760.7,371.6,759.7,371.4z"/>
	<path d="M716.6,362.2c-1.2,0.9-2.1,1-3,0.5C714.7,362,714.7,362,716.6,362.2z"/>
	<path d="M694.7,383.2c0,0-0.2,0-0.4,0.1C694.5,382.8,694.7,383.2,694.7,383.2z"/>
	<path d="M781.5,369.3c0.4-0.3,0.7-0.2,1.1,0.1C782.2,369.6,781.8,369.6,781.5,369.3z"/>
	<path d="M765.5,393.1c0.6,0.1,1.1,0.3,1.4,1c-0.8,0.2-1.2-0.2-1.6-0.8L765.5,393.1z"/>
	<path d="M813.2,176.2c-0.4-2.1-2-2.4-3.8-2.1c-0.1-2.4,0.8-3.6,2.7-3.9c4.5-0.7,9-1.5,12.5,2.7c-3.5-1.8-6.8-1.1-10.6,0.2
		c3.2,0.9,6.3,0.5,8.8,2.5C819.8,176.5,816.8,176.4,813.2,176.2z"/>
	<path d="M828.7,207.1c-0.6,3.8-2.3,7-5,10.4c0-3.2,2-5.2,2.5-7.7c0.2-1-1.3-0.5-1.2-1.5c0.1-0.1,0.2-0.5,0.4-0.7
		c1.7-1.4,3.3-3.1,5.2-4c5.1-2.4,6.3-6.9,6.8-11.8c0.1-0.7,0.1-1.4,0.1-2.2c1.7,3.3,0.7,6.7,0.8,10.2
		C835.6,202.6,832,204.4,828.7,207.1z"/>
	<path d="M801.7,197.2c4.4-0.5,8.7,1.1,13.6,0.6c-1.7,1.9-1.7,1.9-6.8,1.5c-2.3-0.2-4.6-0.4-6.9-0.7
		C801.6,198.1,801.7,197.7,801.7,197.2z"/>
	<path d="M803.1,203.6c3.5-3.7,6.3-3.5,8.3,0.3C808.7,205.5,806.2,204.6,803.1,203.6z"/>
	<path d="M802.2,189.7c2.9-1.9,5.1,0.1,7.7,0.4C808.1,192,804.6,191.8,802.2,189.7z"/>
	<path d="M823,221c-0.9,1.9-1.8,3.8-2.7,5.8C818.9,224.3,819.5,222.6,823,221z"/>
	<path d="M816.8,248.9c0.1-1.2,0.4-2.3,1.9-2.9C818.9,247.7,817.9,248.4,816.8,248.9z"/>
	<path d="M814.8,254.6c0.5,0.9,0,1.5-0.5,2.1c-0.8-0.1-0.6-0.8-0.5-1.2C813.8,255.1,813.9,254.6,814.8,254.6z"/>
	<path d="M818.7,232.7c-0.4-1.8,0.1-2.4,1.1-2.8C820.5,231.2,819.4,231.6,818.7,232.7z"/>
	<path d="M816.9,236.6c0-1.3,0.6-1.6,1.4-1.8C818.6,235.9,818.1,236.4,816.9,236.6z"/>
	<path d="M643.1,349.1c-0.8-1.7-2.1-0.5-3.2-0.3c-0.5-2.2,1.9-2,2.1-3.4c-0.1-1.3-1.9-0.7-2.2-2.1c2.5-0.7,4.9-0.2,7.4,0.1
		c0.2,2.6,0.2,5-2.3,6.4c2.4,3.1,2.5,5.4,0.4,7c-1.8,1.3-4.5,0.7-5.6-1.3C638.3,353.1,639.5,351,643.1,349.1z"/>
	<path d="M638.9,365.4c-0.5-2.9-1.1-5.5,2-7.2c1.7-0.9,2.9-0.3,4,0.8c1.4,1.3,1.7,3,0.8,4.7C644.2,366.8,641.5,365.6,638.9,365.4z"
		/>
	<path d="M727.5,340.7c-1.5,2.2-3.7,2.4-5.9,3.7C723.5,340.7,724.7,339.9,727.5,340.7z"/>
	<path d="M730.2,342.9c-0.1,0.6-0.6,1.4,0.4,1.7c0.8,0.2,1.2,0.6,1.4,1.3c0.1,0.3,0.1,0.7,0.1,1c-0.9,0.2-1.7,0.4-2.5,0.6
		c-1.3-0.7-1.3-3,0.1-5.1C729.9,342.6,730.1,342.7,730.2,342.9z"/>
	<path d="M720,340c-1.2,2.3-3.3,0.7-4.5,1.8C716.4,339.8,717.9,339.4,720,340z"/>
	<path fill="#FFFFFF" d="M335.1,661c1.1,0.2,2,0.7,2.1,1.8c0.2,1.4-0.7,2.2-2,2.2c-1.2,0.1-1.9-0.7-1.9-1.9
		C333.2,661.9,334,661.3,335.1,661z"/>
	<path fill="#FFFFFF" d="M330.5,665.9c-0.6,1.5-1.2,2.1-2.6,1.5C328.1,665.7,329,665.6,330.5,665.9z"/>
	<path fill="#FFFFFF" d="M342.9,657.1c-0.9,0.7-1.2,1.8-0.5,2.8c-1.7,0.7-2.5,0.1-3-1.1c-0.4-0.8,0-1.6,0.6-2.1
		C341,655.9,341.9,656.1,342.9,657.1z"/>
	<path fill="#FFFFFF" d="M643.3,355.7c-1.6,0-2.6-0.6-2.6-2c0-1.5,1-2.3,2.4-2.2c1.2,0.1,2.2,0.7,2.1,2.2
		C645.2,355.1,644.3,355.6,643.3,355.7z"/>
	<path fill="#FFFFFF" d="M644.8,347.7c-1.6-2.2-1.6-2.2,0.8-2.8C646.2,346,645.8,346.8,644.8,347.7z"/>
	<path fill="#FFFFFF" d="M642.2,364c-0.7-0.4,0.1-1.1-0.3-1.5c-0.4-0.9-1.4,0.1-1.9-0.6c-0.1-1.3,0.8-1.9,1.8-2.1
		c1.2-0.2,2.4,0.2,2.6,1.6C644.8,363.2,644,364.1,642.2,364z"/>
</g>
</svg>
