<?xml version="1.0" encoding="utf-8"?>
<!-- Generator: Adobe Illustrator 19.1.0, SVG Export Plug-In . SVG Version: 6.00 Build 0)  -->
<svg version="1.2" baseProfile="tiny" id="Layer_2" xmlns="http://www.w3.org/2000/svg" xmlns:xlink="http://www.w3.org/1999/xlink"
	 x="0px" y="0px" width="900px" height="600px" viewBox="144 97 900 600" xml:space="preserve">
<g>
	<path d="M703,561.1c17.6-8.7,34.7-5.4,51.7,2.2c1.4,0.6,2.8,1.6,4.2,2.3c11.7,6.1,18.9,16.2,24.8,27.5c0.1,0.3,0.4,0.4,0.7,0.7
		c0,0.2,0.1,0.4,0.2,0.6c-0.1-0.1-0.2-0.3-0.3-0.5c-1.9-9.4-5-18-11.7-25.2c-2.5-2.7-3.8-6.3-6.4-9.1c-3.1-3.2-5.8-6.7-8.7-10.1
		c-1.5-1.7-2.8-3.3-2.2-5.6c-2.9-2.8-7-3.6-9.1-7.1c2.9,1.1,5.2,3.4,8.7,4.4c-0.6-1.8-1.8-2.5-2.8-2.8c-4.1-1.2-6.7-4.3-9.6-6.9
		c-4.3-3.9-9.4-5.3-14.8-6.1c-6.1-0.9-11.4-2.6-15.3-8c-4.1-5.6-10.6-7.5-16.9-9.5c-1.7-0.5-3.4-1-5.1-1.4c-0.3,0.6,0.7,1-0.1,1.6
		c-7.3-3.8-15.1-6.6-22.9-9.3c-1.1-0.4-2.1-0.7-3.3-0.5c-0.7,0.1-1.8,0.1-2.3-0.4c-2.9-2.9-6.9-2.5-10.4-3.5c-1-0.3-2-0.6-2.7-1.4
		c-3.3-4-8-5.3-12.6-6.9c-2.7-0.9-5.4-1.8-8-2.8c-0.9-0.3-1.9-0.8-2.4-2.1c1.5-1.2,3.2-0.9,4.7-0.3c5.7,2.4,11.7,4.3,17,7.6
		c4,2.6,8.8,3.5,13.4,2.7c4.3-0.8,7.9,0.2,11.3,2.4c3.8,2.5,8,4.2,11.8,6.8c3,2,7.1,2.2,10.6,3.5c6.3,2.4,13,4.2,18,9.3
		c1.6,1.7,3,3.4,4.3,5.3c1.4,2.1,3.1,3,5.7,3c4.6,0.2,9.1,1,13.6,2.7c4,1.5,7.1,3.9,10.1,6.7c3.6,3.4,7.7,6,11.5,9
		c6.5,5.2,12.9,10.5,18.2,16.9c4.5,0.1,6.3,2.3,6.3,7.6c-2.1-1.2-2.6-3.4-3.8-5.2c-2.6,0.3-4.2-1.3-5.9-3.1
		c-4.7-5.2-10.3-9.5-15.7-14.5c1.9,6.5,6.5,10.7,10.3,15.3c3,3.6,6,7.1,8.6,11c1.6,0.5,3,0.2,4.3-0.9c-1.4-1.8-2.8-3.7-3.2-6.6
		c2.5,1.8,2.5,4.7,4.8,6.2c2.9-0.3,6-0.7,8.7-2.6c1.9-1.4,4.2-1.4,6.6-1.3c0.9-1.7,1.1-3.5,1.3-5.3c0.9-7.3,6.3-10.2,12.8-6.7
		c5.7-1.7,6-1.7,8.9,0.2c1.1-0.1,1.1-1.8,2.4-1.9c1.3,0.4,2.6,0.8,3.8,1.1c4.1-4,4.6-3.9,9.5-0.4c2.9,2,6,3.6,9.2,5.5
		c3.1-2.7,6.2-1.9,9.3-0.2c3.3,1.7,6.5,3.6,10.4,3.8c1.6-3.4,2.7-7,5.1-10.3c3.6,0.9,8.1-1.9,11,2.3c-0.1,2.1-1.7,3.3-1.8,5.1
		c1.2,0.2,1.5-1.6,3-0.8c0.2,1.4,0.7,3,2.4,3.8c-1,2.1-2.9,2.3-4.6,3.2c0.6,1.4,2.6,0.9,3.1,2.3c0.9,4,0.8,8-0.5,12
		c1.1,0.3,1.8-1.4,3.4,0.2c0.4,0.5-0.2,1.6-0.8,2.5c-2.3,3.6-3.5,7.4-2.5,11.8c0.4,1.8-0.1,3.8-0.9,5.6c-0.5,1-1,2-0.7,3.2
		c0.6,0.9,1.6-0.6,2.3,1c0.2,1.4-1.8,1.7-2.9,2.9c-1.4,4.5-1.8,9.7-6.7,12.3c-0.5,1.3,1.2,1.7,0.8,2.8c-0.5,1.3-1.9,1-2.2,1.2
		c-1.2,3.3-3.1,5.2-4.9,6.9c-1.9-0.3-1.2-2.1-2.3-2.6c-1-0.3-1.4,0.5-1.9,1.1c-0.8,0.9-1.9,1.6-3,1.5c-5.6-0.3-11.3,1.1-16.9,0.1
		c-1.7-0.3-3.3-0.5-5-1.1c-2.2-0.8-4.5-1.3-7-1.3c-3.3-0.1-6.5-0.9-9.6-2.2c-5.9-2.4-11.7-5.5-18.2-5.6c-1.8-2.2,0.3-3.7,0.8-5.8
		c-2.7-0.2-5-0.4-7.5,0.2c-2.4,0.6-4.9,1-7.3,1.4c-1.1-2.5,0.7-2.7,2.3-3.1c4.5-1,9-0.9,13.6-0.7c2.9,0.2,5.7-0.2,7.5-2.9
		c1-1.4,2.8-0.6,4.1-1.6c-0.6-2-2-3.6-2.3-5.6c-0.4-2.8,0.5-3.7,3.6-3.4c0.5,1.3-1.4,1.4-1.4,2.5c0.7,5.1,4.9,8.2,7.3,12.4
		c0.3,0.4,0.9,0.7,1.4,0.9c2.9,1.3,9.2-1.2,10.9-4.4c-3.2,1.6-7,1.2-9.3,4.2c-1.9-0.9-3-2.3-3.8-4.2c1.9-0.4,2.8,3,4.8,0.5
		c-0.9-1.8-3-2-5-3.2c2.5-0.8,4.3-0.2,5.7,1c1.4,1.2,2.6,1,4,0.3c-0.1-1.2-1-1.8-1.8-2.8c-2.7,1.3-5.5,0.3-8.4-0.2
		c-0.9-3.3-0.6-4.1,2-5.7c1.1,0.3,1.8,1.1,1.8,2.2c-0.1,1.5,0.5,2.4,2,2.6c1.7,0.2,1.7-1.4,2-3.1c1.9,2.5,3.4,4.5,5.1,6.8
		c-0.4-4.4-1.9-7.5-6.1-9c-1.3-0.5-2.3-1.7-3.4-2.5c0.1-0.9,0.6-1.2,1.2-1c0.6,0.1,1.1,0.3,1.5-0.5c0.2-1.2-1.4-2.2-0.9-3.6
		c0.3,0,0.5-0.1,0.5,0c3.4,4.2,7.5,3.2,11.6,1.3c5-2.3,9.2-5.8,13.3-9.5c2.1-1.9,3.9-4.2,7.1-4.5c0-3-0.3-5.9,2.4-7.8
		c0.9,0.2,0.3,1.2,1,1.6c1.1-1.5,1.3-3.3,2.2-5.1c-0.4-1.2-1.7-2.1-1.2-3.6c-3.9-0.7-7.3-2-10.5-3.9c-2.3-1.4-4.4-2-6.9-0.3
		c-2.1,1.4-4.2,0.2-6-1.1c-2.5-1.9-5-3.9-7.8-5.5c-3.1-1.7-3.9-1.3-4.4,2.1c-0.4,2.7-0.4,3.2,0.4,4.7c-1,1.1-2,0.9-2.9,0
		c-1.3-1.4-1.1-2.9,0-4.4c-1.3-0.4-2.5-0.8-3.5-1.1c-3.5,0.8-2.6,5.3-5.7,6.4c-1.7-2.3,1-3,1.3-4.5c-0.8-1.9-2.2-2.2-3.8-1.3
		c-2.2,1.3-4.1,0.7-6.2-0.2c-3.6-1.5-5.3-0.6-6.9,2.9c-1.6,3.5-1,7.4-2.5,10.9c0.1,0.4,0,0.5-0.4,0.4c-2.7-1.7-5.4-2.1-8.2-0.1
		c-2.4,1.7-5.3,2-7.9,3c-0.2,2.1,0.9,3.9,0.6,6.1c-0.8-0.4-1.6-0.9-2.6-1.4c1.8-1.2,1.3-2.6,0.4-4c-1.1-0.2-2.2-0.3-3.8,0.1
		c1.6,2.8,3.1,5.5,4.6,8.2c0.9-0.3,0-1.1,0.9-1.6c1.1,1.1,1.4,2.6,1.2,4.1c-0.3,2.6,0.3,4.9,1.4,7.2c1.5,3.4,1.9,7,2,10.7
		c0.1,2,0.7,4.1,0.6,6c-0.2,3.2-0.1,6.5-1.7,9.6c-0.8,1.5-2.5,0.9-3.3,2.4c-1.6,2.9-3.2,5.8-4,9c-2.3,9.3-10.9,16.6-20.6,16.9
		c-2.9,0.1-5.9,1-8.9-0.3c-1.5-0.6-3.1,0.7-4.3,1.7c-4.8,4-10.2,6.1-16.6,6.1c-2.2,0-4.1,2-5.7,3.4c-5.9,5.2-13,7.8-20.2,10.3
		c-1.7,0.6-3.5,1.1-5.3,0.3c-2.6,5.3-6.5,5.6-16.2,1.4c-3,2-5.4,4.8-6.7,8.2c-1.9,4.7-4.8,8.8-7.9,12.7c-2.4,3.1-5.6,4.6-9.9,3.7
		c-3.9-0.8-7.7-1.8-11.7-1.9c-1.9-0.1-4.1-0.2-5.5-2.2c-0.6-0.8-1.6-0.5-2.6-0.3c-2.6,0.5-5.2-0.2-7.8-0.3c-1.3-0.1-2.3-0.9-2.8-2.4
		c0.3-0.9,0.6-1.9,0.9-2.9c1-0.8,2-0.9,3-0.8c4,0.5,6.4-1.7,8.3-4.9c1.7-2.9,3.4-5.9,4.9-8.9c2.6-5.3,6.1-9.9,12.4-11.3
		c1.9-0.4,3.6-1.4,5.1-3.2c1.6-1.9,4.3-2.4,6.4-3.8c5.1-3.3,9.3-7.6,13.7-11.7c3.5-3.3,7.7-5.6,11.9-7.8c3.8-2,7.9-3.4,11.4-5.8
		c1.1-0.8,2.3-1.4,3.1-2.7c-1.1-0.8-2.4-1.3-3.6-1.7c-10.2-3.3-18.7-9.1-25.6-17.3c-5.7-6.8-13.1-11.6-20-16.9
		c-5.7-4.4-10.5-9.6-14.9-15.2c-2.4-3-4.9-6-8-8.6c-2.7,1.4-4.8,0.6-6.4-2.1c-0.7-1.1-2-1.5-3.3-2c-3.2-1.3-5.7-3.7-7.7-6.7
		c-3.8,1.4-5.9-2.8-9.3-3.3c-1.2,3.3-1.2,3.4-5.2,3c-2.8-0.2-5.6-0.5-8.4-1.2c-4.5-1-9.1,0-13.5,0.8c-6.2,1.1-12.4,0.9-18.6,1.6
		c-1.6,0.2-3.4-0.5-4.9-1.2c-7.1-3.2-14.7-5.6-21.3-9.9c-1.7-1.1-3.6-2-5.7-1.9c-0.9,0-1.9-0.2-2.5-0.9c-4.5-4.3-10.2-7-14.8-11.3
		c-2.6-2.4-6.2-3.3-9.7-3.8c-9-1.5-18-2.6-26.9-4.6c-6.7-1.5-13.5-2-20.1-3.5c-1.2-0.3-2.5-0.3-3.7-1.3c-0.6-1.7-0.7-3.7-0.6-5.5
		c0.5-7.4,0.3-14.8,0.4-22.1c0-3.6-3-4.7-5-7.3c0.4,3.1,0.6,5.7,1.2,8.2c1.8,8.9-1.1,16.9-5.1,24.5c-3.3,6.4-7.6,12.4-10.8,18.9
		c-6,11.9-11.5,24-11.5,37.8c0,1.7-0.3,3.4,0.9,5.3c4.6,1.2,6.3,4.5,6,9.3c-0.2,2.5,0.5,5,1.2,7.4c1,3.5,2.2,6.9,2.6,10.5
		c0.3,2.7,1,5.3-0.1,8c2.2,2.5,3.1,5.3,3.2,8.5c0.1,1.8,1,3.5,1.9,5.1c1.4,2.6,1.1,3.4-1.7,4.6c-3.2,1.4-6.5,2.2-10.2,2.1
		c-4.7-0.1-9.5,0.8-14.2,1.3c-8.4,0.9-16.7,1.5-25.1,0c-4.7-0.9-9.2,1.1-13.8,1.6c-3,0.3-5.8,0.6-8.8-0.2c-1.3-0.4-2.7-0.3-4.1-0.1
		c-7.7,0.7-15.2-0.2-22.7-1.6c-5.1-1-10.3-1.2-15.4-2.8c-7.9-2.5-11.9-8.2-14.2-15.8c0.8-0.9,1.9-1.5,1.7-3.2
		c-0.3-3.4,0.9-6.1,4.4-7.6c1.4-0.6,3-1.6,3.2-3.8c0.2-1.8,2.1-2.1,3.7-2.3c6.5-0.8,13-1.3,19.5-2.5c5.6-1,10.8-3.4,16.4-4.4
		c2-0.4,2.7-2.6,4.3-3.7c4.5-3.4,9.9-4.8,14.8-7.4c0.5-0.3,1-0.5,1.6-0.9c1-7.6,7.5-11.1,12.1-16.2c-0.2,3.5-1.8,6.5-2.2,9.8
		c1.6,0.4,1.6-0.6,1.9-1.5c2.1-6.5,3.4-13.2,3.8-20c0.4-5.7,0.8-11.3,0.3-17c-1.3-13.7-0.7-27.5,0-41.2c0.3-6,2.6-11.5,3.9-17.2
		c1.4-6.1,2.9-12.1,2.7-18.5c-0.1-4.2,1.8-8.2,3.3-12.1c1.6-4.3,2.9-8.6,3.9-13c0.1-0.3,0-0.8,0.2-1c3.4-4.5,6-9.8,12.5-10.8
		c1.7-0.3,3.2-0.8,4.5-2.2c2.4-2.6,5.3-4,9.1-3.3c2.6,0.5,5.2,0.3,7.6-1c4.5-2.3,9.1-1.7,13.7-0.8c6.6,1.4,13.3,2.9,19.9,4.3
		c6.9,1.4,13.5,4.1,20.4,5c9.4,1.2,18,5.4,27.3,6.9c5.3,0.9,9.6,4.1,14.1,6.6c5.8,3.1,11.1,7.1,16.4,11.1c2.5,1.9,4.9,4,6.5,6.9
		c1.1,2.1,3.4,2.8,5.6,3.6c11.1,3.7,22.5,6.6,32.4,13.1c3.9,2.6,8.3,4.5,11.6,8.2c1.7,1.9,4.6,2.6,6.9,2.4c3.3-0.2,5.8,1.3,8.7,2.2
		c0.6,0.2,1.3,0.4,2.1,0.7c0.1,2.5-1.1,4.6-1.8,6.8c-3.5,10.3-5.4,21.1-8.6,31.5c-1,3.4-1.6,6.9-2.9,10.1c-2.1,5-2.4,10.3-3.1,15.5
		c-0.2,1.4,0.8,2,0.9,2.9c3.1,1.2,6.2,1.1,9.3,2c1.3-3.4,2.6-6.9,3.9-10.4c0.3,0,0.6,0.1,0.8,0.1c0.3,4.3-2.3,8.7-0.1,13.3
		c2.7-3.4,3.1-7.4,5.1-10.7c-0.2,4.2-2.4,7.9-3,12.3c3-0.4,3.6,2.7,5.6,3.9c2.5-1.7,3.4-4.9,6.3-7c0,3-2.5,4.4-2.7,6.6
		c10.5,11.5,20.4,23.8,34,32.6c-0.3-1.7-0.8-3.3-0.6-5.6c1.2,1.5,1.5,2.7,1.7,3.8c0.5,3.4,2.6,5.6,5.1,7.7
		c5.2,4.5,9.6,9.9,15.5,13.7c2.9,1.8,5.7,3.5,8.9,5c-3.3-2.8-4.8-6.7-7.2-10c-8.9-12.2-3.2-34.3,9.5-40.1
		C702.4,561.6,702.7,561.3,703,561.1L703,561.1z"/>
	<path d="M588.3,298.7c-0.2,3.7-0.2,3.7-4,4.2c-1.7,0.2-3.3,0.2-4.3,2.1c-0.3,0.6-1.6,0.8-2.5,1c-8.2,2.2-16.6,2.8-25,1.1
		c-1.4-0.3-2.7,0-4.1,0c-8.8,0.5-17.5,0.5-26.2-0.1c-8.5-0.5-14.9-4.7-20-10.9c-5.7-6.8-10.9-14-16.3-21c-3.5-4.6-7.1-9-10-14.1
		c-3.7-6.5-8.9-12-14.2-17.4c-5.7-5.7-11.4-11.4-16.6-17.4c4.3-8.3,10.9-14.6,16.9-21.2c-0.6-2.2-1.2-4.3-1.8-6.5
		c-5.8,8.5-14.1,14.1-20.9,21.3c-8.2,8.7-16,17.7-21.5,28.4c-0.2,0.5-0.4,1-0.6,1.7c4.6,1.3,6.4,4.1,6.2,8.8
		c-0.2,3.5,0.6,7.1,2,10.3c1.5,3.6,1.5,7.5,2.4,11.3c0.4,1.6,0.1,3.2-0.8,4.8c4.9,4.2,1.9,11.4,6.7,15.7c-3.1,3.4-6.7,4.6-10.3,4.7
		c-6,0.1-12,0.9-18,1.5c-7.9,0.7-15.8,1.5-23.8,0c-5-0.9-9.7,1-14.5,1.5c-3,0.3-5.8,0.6-8.8-0.2c-1.3-0.4-2.7-0.3-4.1-0.1
		c-7.7,0.7-15.2-0.3-22.7-1.6c-3.8-0.7-7.6-1-11.4-1.7c-9.7-1.8-15.7-7.6-18-16.9c0.3-1.2,1.3-0.6,1.7-1c-0.5-4.4,0.2-8.1,4.9-10
		c1-0.4,2.3-1.3,2.5-2.9c0.3-1.8,1.6-2.6,3.4-2.8c4.5-0.5,8.9-1.3,13.4-1.7c4.6-0.3,9-1,13.3-2.8c0.5-0.2,1.1-0.4,1.6-0.5
		c4.5-1.2,9.1-1.7,12.7-5.6c3.5-3.7,8.9-4.8,13.4-7c1.9-0.9,3.5-1.7,3.4-4.1c0-0.6,0.4-1.3,0.7-1.9c2.9-4.6,6.9-8,10.7-11.9
		c2.8,1.9,0.5,3.4,0,4.7c-0.6,1.7-1.5,3.3-2.4,5.1c1.1-0.1,1.9-0.9,2.8-0.6c8-11.7,12.8-24.4,16-37.9c3.6-15.1,7.5-30.2,14.9-44.1
		c2.5-4.7,5.5-9.1,8.2-13.7c1.3-2.3,2.7-4.5,3.3-7.1c1.3-5.9,4.6-10.6,8.1-15.2c2.7-3.5,5.2-7.2,7.4-11c1.4-2.6,3.6-4.5,6.3-4.7
		c4.3-0.3,7.3-2.9,10.7-4.8c3.2-1.8,6.2-3.1,10-1.8c1.2,0.4,2.5,0.3,3.7,0.5c5.9,1.2,11.1,3.1,14.9,8.5c3,4.3,7.4,7.7,11.3,11.3
		c6.4,6,13,12.2,16.7,20.1c5.3,11.3,13.3,20.9,19.3,31.6c5.6,10.1,11.2,20.3,15.3,31.1c1.1,3,3.9,5.2,4.3,8.6c3.8-0.4,4.3,0,6.3,4.5
		c7.9-1.7,10.1-0.2,14.3,7.1c4.5,0.5,9,1,13.5,1.4c1.5,0.1,3.4,0.1,4.7-0.7c5.2-3.2,10.8-2.2,16.8-2.7c1.8-2.4,4.4-3.2,7.8-1.9
		c2.2,0.8,4.8,0.3,7.1-0.3c13.1-3.7,26.4-3.4,39.9-2c6.5,0.7,13.2,0.7,19.6-0.8c6.8-1.6,13.3-0.7,19.9,0.7c1.6,0.3,3.1,0.5,4.7,0.7
		c17.8,2.4,33.7,9.9,49.5,18.7c2.4-1.4,4.2-0.3,6.1,2.1c2.8,3.6,6.1,5.7,11.1,3.4c3.4-1.5,7.5-1.7,10.8-3.9c1.4-1,3.3-0.7,5.1-0.5
		c1-1.8,1.2-3.8,1.4-5.6c0.8-6.9,6.2-9.9,12.3-6.6c0.2,0.1,0.4,0.1,0.8,0.2c2.7-1.2,5.6-2.4,8.5,0.4c1.6-3.1,4-1.7,6-0.9
		c4.4-4.1,4.8-4,9.6-0.6c2.9,2.1,6.2,3.8,9.4,5.7c2.7-2.8,5.6-2,8.5-0.7c3.6,1.7,6.9,3.9,11.1,4.2c1.7-3.4,2.8-7,5-10
		c3.1-0.8,6.3,0.1,9.3-0.1c1,0.7,1.5,1.5,1.9,2.5c-0.1,1.8-1.7,3.2-1.9,5c1.2,0.1,1.4-1.6,2.9-1.2c1.1,1,0.4,3.5,2.6,3.8
		c-1,2.4-3.1,2.4-4.5,3.4c0.7,1.2,2.3,1,2.7,1.6c1.5,4.5,1.1,8.5,0,12.6c1,0.3,1.8-1.1,2.7-0.3c0.9,0.8,0.6,1.7,0.1,2.4
		c-2.7,4.2-3.8,8.6-2.9,13.6c0.5,2.6-1.2,5-1.9,7.3c0.6,1.6,1.8,0,2.3,0.8c0.4,0.5,0.4,1.1,0,1.3c-2.7,1.6-3.3,4.4-4,7.1
		c-0.8,3.2-2.4,5.9-5.4,7.4c-0.4,1.3,1.2,1.8,0.8,2.8c-0.5,1.5-2.1,1-2.9,1.8c0.2,0.5,0.3,1,0.5,1.8c-2.6,0.5-2.6,3.8-5,4.6
		c-1.7-0.1-1-2.2-2.7-2.9c-1.8,3.2-4.9,2.5-8,2.9c-6.5,0.7-12.9,0.7-19.2-1.3c-1.7-0.6-3.5-0.8-5.3-0.9c-3.8-0.2-7.3-1.1-10.9-2.6
		c-5.6-2.3-11.1-5.2-17.2-5.2c-1.9-2.2,0.2-3.7,0.6-5.8c-2-0.5-4-0.5-6-0.2c-4.8,0.7-9.5,1.9-13.9,4c-0.7,0.3-1,0.9-1.4,1.4
		c-2.1,3-3.6,6.3-4.3,9.9c-0.3,1.6-0.8,3.1-1.7,4.4c-5.1,6.9-11.3,11.9-20.4,11.6c-2.4-0.1-4.7,0.8-7.2-0.3
		c-1.5-0.7-3.1,0.6-4.3,1.6c-4.8,4-10.2,6.2-16.5,6.1c-2.2,0-4.1,2-5.7,3.4c-5.9,5.2-13,7.8-20.2,10.3c-1.7,0.6-3.5,1.3-5.2,0.3
		c-2.7,5.4-6.4,5.7-16.3,1.5c-3,2-5.3,4.8-6.7,8.2c-1.9,4.7-4.8,8.8-7.9,12.7c-2.4,3.1-5.6,4.6-9.9,3.7c-3.9-0.8-7.7-1.9-11.7-1.8
		c-1,0-2.3,0-3-0.6c-3.6-3.1-7.9-1.4-11.9-2.1c-1.6-0.3-3.1-0.6-3.9-2.5c0.3-0.9,0.6-2,0.9-3c0.9-0.8,2-0.9,3-0.8
		c4.1,0.6,6.4-1.7,8.4-4.9c1.8-2.9,3.4-5.9,4.9-8.9c2.6-5.3,6-10,12.4-11.3c2.6-0.5,4-2.9,6.1-4c3-1.5,5.6-3.5,8.3-5.3
		c5.9-3.9,10.1-9.6,16-14.3c-11.4,0.4-22,1.2-32.7-0.2c-1.3-0.2-2.8-0.3-4-0.9c-6.6-3.5-14.1-3.4-21.2-4.6
		c-10.8-1.8-21.6-3.2-32.4-4.7C590.2,299.2,589.4,298.2,588.3,298.7z"/>
	<path d="M844.9,576.9c-0.5-1.6-0.4-2.9,0.5-3.8c2.1-2.1,2.1-4.6,1.8-7.3c-0.2-1.2-0.1-2.5,0-3.7c0.1-1.5,1-2.2,2.5-1.9
		C852.3,564.8,850.1,573,844.9,576.9z"/>
	<path d="M840.5,570.2c0.6-2.7-0.9-5.7,1.6-8.2c1,0,2.1,0.6,3.5,0.1C844.8,565.6,843.7,568.4,840.5,570.2z"/>
	<path d="M807.3,586c1.8,4.5,6.1,5.6,9.9,7.6C812.6,596,807,591.6,807.3,586z"/>
	<path d="M614.8,543.4c-0.5-3.3-1-6.5,0.7-9.6C615.4,537,617,540.3,614.8,543.4z"/>
	<path d="M804.4,584.7c-3.1-1.1-5.6-3.1-8.2-5.3C799.3,579.5,802.7,581.6,804.4,584.7z"/>
	<path d="M803.1,602.5c-3.6,0-6.5-1.1-8.3-4.4C797.5,599.6,800.5,600.6,803.1,602.5z"/>
	<path d="M726.9,530.5c2.9-2.5,5.9-0.8,9,0C734,531.3,729.7,531.5,726.9,530.5z"/>
	<path d="M659.5,564.8c3.3,2.7,4,7.3,7.3,9.9C663.8,573.9,662.3,571.8,659.5,564.8z"/>
	<path d="M629.3,526.1c-1,2.9-2,5.8-3,8.7c-0.5-3.4,0.5-6.3,2-9C628.7,525.9,629,526,629.3,526.1z"/>
	<path d="M703.1,561c-3,0-4-1-4.9-5.5C700.3,557.4,702.1,558.9,703.1,561L703.1,561z"/>
	<path d="M788.7,591.6c2.9,0.8,4.2,2.1,5.2,4.5C791.2,595.7,790,594.3,788.7,591.6z"/>
	<path d="M651.9,502.4c2.1-1.4,4.2-2.7,6.8-2.8c0.1,0.2,0.2,0.4,0.3,0.7c-2.3,0.9-4.6,1.9-6.9,2.8C652,502.8,652,502.6,651.9,502.4z
		"/>
	<path d="M659.1,562.6c-2-1.3-2.9-3-2.5-5.9C658.4,558.5,658.6,560.6,659.1,562.6z"/>
	<path d="M697.9,551.8c-1.1-2.1-1.8-4.4-3.2-6.6C697,546,697,546,697.9,551.8z"/>
	<path d="M667.5,506.7c1.1-1.9,2.6-3.3,4.9-3.6C671.1,504.8,669.5,505.9,667.5,506.7z"/>
	<path d="M798.7,565.7c2.1,1.1,0.9,3.3,1.6,4.9c-1.6-1.1-1.4-3-1.9-4.5C798.4,566,798.6,565.8,798.7,565.7z"/>
	<path d="M638.1,489.6c-1.4-0.5-2.8-0.8-3.9-1.9C636.5,487.8,636.5,487.8,638.1,489.6z"/>
	<path d="M688.5,565.4c-2-0.4-2.3-2.1-2.6-3.7C687.4,562.4,688,563.8,688.5,565.4z"/>
	<path d="M793.9,578.4c-1.3,0.2-2.3,0-3.2-1.3C792.3,576.5,793.2,577.3,793.9,578.4z"/>
	<path d="M669.8,556.3c1.1,0.8,0.9,1.9,0.9,2.9C669.1,558,669.1,558,669.8,556.3z"/>
	<path d="M719.3,536.3c-0.2-1.4,0.4-2.2,1.6-3.3C721.4,534.9,720.2,535.5,719.3,536.3z"/>
	<path d="M719.7,544.4c1,0.9,1,1.8,0.2,2.8C718.6,546.3,719.8,545.3,719.7,544.4z"/>
	<path d="M684,536.6c0.8,1.7,1,3,1.1,5.2C684,539.9,683.5,538.6,684,536.6z"/>
	<path d="M775.9,577.4c-1.6-0.9-1.8-2-2.4-3.3C775.1,574.6,775.4,575.6,775.9,577.4z"/>
	<path d="M790.4,606.8c1-1.2,1.9-1.7,3.3-1.2C792.8,606.5,792,606.9,790.4,606.8z"/>
	<path d="M631.3,543.4c0.2,1.4-0.5,2.4-1.2,3.5C630,545.5,630.4,544.4,631.3,543.4L631.3,543.4z"/>
	<path d="M821.9,579.7c1.2,0.4,1.3,1.2,1.4,2.1c-0.3,0.1-0.6,0.3-0.7,0.2C821.8,581.6,821.4,580.9,821.9,579.7z"/>
	<path d="M825,586.3c-1.4-0.2-1.4-1.1-1.3-2.2C824.9,584.8,824.9,584.8,825,586.3z"/>
	<path d="M684.4,559.4c-1.5-0.2-1.3-1.3-2-2.5C684.2,557.5,684.7,558.1,684.4,559.4z"/>
	<path d="M631.4,543.4c-0.2-1.2,0.1-2.1,1.4-3C633,542,632.3,542.8,631.4,543.4L631.4,543.4z"/>
	<path d="M647.8,504.8c0.2-0.7,0.5-0.9,1.2-0.6C648.6,504.4,648.2,504.6,647.8,504.8z"/>
	<path d="M715.1,555.4c-0.4-0.1-0.5-0.4-0.4-0.7c0-0.1,0.3-0.3,0.5-0.2c0.4,0,0.6,0.3,0.4,0.6C715.6,555.3,715.3,555.3,715.1,555.4z
		"/>
	<path d="M693.1,511.6c0.4-0.2,0.6,0,0.7,0.4C693.2,512.3,693.4,511.6,693.1,511.6z"/>
	<path d="M685.7,508.3c-1.5-0.5-2-0.7-1.6-1.6C684.9,506.6,684.9,507.3,685.7,508.3z"/>
	<path fill="#FFFFFF" d="M611.6,484.7c-0.1,0.4-0.1,0.9-0.2,1.4c0.5,1,1.5-0.4,2,0.5c-0.5,2.2-0.8,4.5,0.1,6.7
		c1.2-2.1,0.4-4.6,1.8-6.9c2.3,1.4,3.7-0.2,5.7-1.8c-2-0.6-4-0.2-5.4-2.2c2.7-0.1,4.8,1.7,7.4,0.5c-1.9,6.1-3.5,11.6-5.2,17.1
		c-0.8,2.5-1.7,4.9-2.4,7.1c-1.3,1-2.4-0.4-3.5,0.4c0.2,1.4,1.9,1.1,2.5,2.1c0.4,2.6-1.9,0.9-2.7,1.6c-0.1,1.3,1.8,0.9,1.8,2.4
		c-1.1,1.3-2.7-0.4-4.1,0.5c-0.1,0.8,1.3,1.4,0.4,2.3c1.2,0.6,1.7-1.1,2.9-0.2c-1,4.6-2.5,9.2-4.2,13.7c-1.1,2.9-1.9,5.8-1.7,8.9
		c0,0.8,0.3,1.9-0.7,2.5c-1.2-1.2-4-0.4-3.9-2.6c0,2.2,2.7,1.4,4,2.5c-0.1,1.2-0.2,2.5-1.3,3.7c-0.2-1.4-0.5-2.6-2.2-2.2
		c-0.5,0.8,0.9,0.9,0.5,1.7c-6.7-1.6-13.5-2.8-20.4-1.3c-6.7,1.5-13.5,1.4-20.3,2.1c-1.2,0.1-2.3-0.2-3.3-0.7
		c-8.4-3.7-17.4-5.9-25.4-10.6c-2.1-1.3-3.9-2.3-4.3-5.1c-0.5-3.5-2.9-5.6-6.6-5.7c-2-0.1-3.6-1-5.2-2.2c-4.6-3.3-9.9-4.9-15.5-5.6
		c-15.5-2.1-31.1-4-46.5-7.2c-1.4-3.8,5.8-73.1,8.9-86.1c2.6-0.8,5.1,0.2,7.6,0.6c7,1.2,14,3,21,4.1c7.3,1.1,13.8,4,20.7,5.9
		c8.4,2.4,15.5,7.5,23.4,10.9c4.4,1.9,8.8,3.8,13.2,5.4c0.8,0.3,1.7,0.8,2.9,0.1c-1.1-1.8-3-2.3-4.7-3c-6.6-2.7-13.4-5.3-19.3-9.3
		c-7.2-4.8-15.1-8-23.4-10c-9.9-2.4-19.8-5-30-6.3c-2.2-0.3-4.4-0.8-7-1.3c0.9-1.9,1.7-3.5,2.5-5.1c8.8,0.5,17,3.2,25.1,5.7
		c8.9,2.8,18,4.8,26.8,7.7c7.3,2.4,14,6.4,20.3,11c6.4,4.7,12.8,9.4,18.8,14.6c4.2,3.6,9.5,4.8,14.6,6.4c8.9,2.8,16.9,7.2,24.9,11.7
		c1.5,0.8,2.9,1.7,3.8,3.3c0.7,1.3,1.9,1.9,3.3,2.2c2.2,0.5,4.4,1,6.7,1.5C615.2,480.9,614,483.3,611.6,484.7
		c-2.1-1.5-5.4-1.3-6.4-4.4c0.9-1.4-0.1-2.3-0.9-3.1c-1.2-1.2-2.2-2.5-3.1-3.5c1,2.2,4.3,3.1,4.2,6.3c-0.8,0.9-1.6,0.6-2.3,0
		C605.6,482,608.6,483.3,611.6,484.7z"/>
	<path fill="#FFFFFF" d="M695.4,573.5c1.1-4.1,4.3-6.2,7.4-8.4c1.3,0,0.5,2.2,2,1.7c0.8-0.8,0.1-1.6-0.1-2.5
		c2.2-3,13.2-5.9,15.8-4.1c0.8-0.3,0.6-1.7,2-1.6c16.3,0.2,31.3,4.6,43.7,15.3c5.7,4.9,10.3,11.2,13.9,18c2.8,5.3,4.1,10.9,2.3,17
		c-2.4,8.5-6.6,16.2-10.9,23.8c-3,5.2-10.7,7.5-16.1,5.5c-0.8-0.3-0.4-1.3-1.5-1.7c-0.9,0.1-2.1,0.2-3.4,0.4
		c-0.1-0.2-0.2-0.3-0.2-0.3c0-0.1,0-0.1,0.2,0.2c-0.3,1.1-0.7,1.9-2.1,2.2c-2.6,0.5-4.8,1.8-6.9,3.6c-3.3,2.8-7.2,4.2-11.7,4.4
		c0-3.3,0.7-6.7-0.7-9.9c-0.2,0.2-0.3,0.2-0.3,0.3c0.2,8.1-5.2,12.4-11.3,15.9c-5.3,3.1-10.8,5.8-16.8,7.4c-1.7,0.5-3.2,1.1-4.9,2
		c-3.2-1.7-5.1-5.5-9.1-6.3c-1.6-4.5-4.8-7.2-9.3-8.2c-0.2-1,1.1-1,0.9-1.9c-1.4-0.8-1.9,0.5-2.6,1.3c-1.5-0.2-2.9-0.5-4.7-0.8
		c5.4-4.5,10.5-9,15.5-13.5c2.9-2.6,6.7-3.8,10.2-5.4c3.4-1.6,6.5-3.6,9.5-5.9c9.6-7.2,17.6-16.4,28.7-21.6c1.3-0.6,2.5-1.6,4-1.9
		c2.2-0.4,3.7-1.6,4.4-3.6c3.1-0.7,6.1-1.3,8.7-3.3c-2-1.2-2-1.2-6.5-0.4c1.4-1,2.9-1.7,3.8-3.3c1.2-2.3,0.2-4.4-2.4-4.1
		c-3.1,0.3-4.7-0.6-5.1-3.8c-0.2-1.5-1.7-2.2-3.1-2.2c-3-0.1-4.7-1.8-6.1-4.2c-1.1-1.9-2.4-3.9-4.1-4.6c-1.6-0.4-1.5,1.1-2.7,0.9
		c0.7-4.1-2.8-5.7-5.1-8.9c-0.5,2.5,1,3.6,1.5,5.1c0.5,1.5,0.6,3,0.9,4.7c3.8,0.2,4.1,4.6,7.2,5.7c-2.5,0.4-3-2.4-5.3-2.8
		c0,2,0.8,3.6,1.6,5.1c1.8,3.6,4.9,6.2,6.9,9.7c0.7,1.2,2.1,1.2,3.3,1.5c3.3,0.9,4,1.9,3.6,5.2c-11.9,5.8-23.4,12.4-32.2,23.2
		c-0.8-2.4-1.8-3.7-2.9-5c-6.1-6.8-8.9-15.4-12.2-23.6c-0.5-1.3-0.8-2.6-2.5-2.7C691,581.9,692,577.2,695.4,573.5
		c0.2,0,0.2,0.1,0.2,0.1C695.6,573.7,695.6,573.7,695.4,573.5z"/>
	<path fill="#FFFFFF" d="M418.2,576.5c-4.2,3-8.3,1.6-12.3,1c-0.4-1,0.7-1.6,0-2.4c-1.7-0.8-2.7,0.4-3.7,1.6
		c-5.1-1.3-9.4-4.2-13.5-7.3c-0.3-1.4,0.2-2.4,0.7-3.4c4.4-8.3,5.9-17.3,6-26.6c0.1-11.3-1.2-22.6-0.9-34
		c0.3-12.3,1.3-24.5,4.9-36.4c1.6-5.3,2.6-10.8,1.9-16.4c-0.4-3.2,1-6.2,2.1-9.2c0.5-1.2,1.6-1.5,2.6-2.1c1.1-0.6,2.6-0.9,3-2.6
		c-1.5-0.8-2.4,1.1-4.2,0.8c1.8-5,3.2-10.1,4.4-15.2c0.2-0.8,1.1-1,1.7-1.5c3.9-3.2,7.7-6.4,13.4-5.7c5.4,0.7,10.9,1.8,16.2,1.6
		c7.1-0.2,13.3,2.5,20.3,3c-1,8.8-4,16.7-5.1,24.4c-0.6,1.4-1.6,0.3-1.9,1c-0.3,1.3,1.2,1.3,1.4,2.2c-1.4,8.3-2.3,16.6-2.6,25.1
		c-3.2-4.4-8.4-6.7-11.4-11.1c-0.7-1.1-2-1.4-3.3-0.9c0,1.7,1.1,2.9,1.9,4.1c2.6,3.8,3.9,8,4.4,12.4c1.4,12.7-0.1,24.9-7.3,35.9
		c-4,6.1-7.2,12.7-10.1,19.2c-2.9,6.7-5.5,13.6-7.4,20.8c-0.4,1.4-0.1,2.7,0,4C419.1,564.7,417.6,570.6,418.2,576.5z"/>
	<path fill="#FFFFFF" d="M359.7,593.9c1,0,1.9,0.9,3.2,0.6c1-1.9,0-3.5-0.9-5.6c2,1.1,3.4,3.1,5.5,2.8c1.5-0.8,0.3-2,0.7-2.8
		c1,0,1.9,0.6,2.9-0.1c0.9-0.7,0-1.8,0.1-2.6c0.5-0.6,1.5-0.1,1.8-1c-0.6-1.4-2.3-2.1-2.5-4c1.3-0.2,1.3,0.9,1.8,1.5
		c0.6,0.7,1.1,1.5,1.8,2c0.7,0.6,1.6,0.9,2.6,0c0.3-2.2-0.8-3.9-2.3-5.7c1.7-2.2,4.5-4.2,5-7c0.4-2.6,1.9-4.2,3.4-5.9
		c0.1-0.1,0.2-0.1,0.5-0.2c-1.1,3.6-2.1,7.1-3.1,10.6c3.5,6,8.7,10.2,14.2,14.1c4.6,3.3,12.6,1.9,16.4-2.3c2.4-2.7,4.8-5.5,7.8-7.6
		c2.3-1.6,3.6-4,4.3-7c2.2,1.6,2.9,3.5,2.9,5.5c0,4.6,1.2,8.9,2.6,13.3c1.2,3.9,2.4,8,1,12.3c-0.4,1.2,0,2.3,0.9,3.1
		c1.3,1.2,1.9,2.8,2.1,4.6c0.3,3,0.8,5.8,2.8,8.6c-2.7,1-5.2,1.9-7.5,2.9c-1.2,0.5-2.2-0.5-3.4-0.4c-7.5,0.1-14.9,1.3-22.4,2
		c-5.1,0.5-9.7-0.9-14.5-1.3c-3.4-0.3-6.5,0-9.8,0.8c-1.5,0.4-3.1,1-4.7,0.9c-14-0.5-28.2,0.5-42.1-2.5c-3.2-0.7-6.5-0.9-9.6-2
		c-4.9-1.8-7.2-3.9-10.6-9.7c0.3-2.2,0.6-4.5,0.9-6.8c0.6-3.8,1.7-4.8,5.7-4.8c6.7-0.1,13.4-0.6,20.3-2.1c-0.3,1.2-1.2,2.4,0,3.3
		c1.3,1,2.6,2.1,4.5,1.7c-1.7-3.7-1.1-5.5,2.2-7.4c1.7,3.5,1.7,3.5,4.2,4.3c1.9-2.2-0.7-3.9-0.7-5.9c0.8-0.9,1.8-0.9,2.9-1.3
		c0.6,2.6,2.3,4.1,5,4.7c0.6-0.7,1.2-1.5,2.5-1.5C359,595.9,360.3,595.6,359.7,593.9L359.7,593.9z"/>
	<path fill="#FFFFFF" d="M638.3,676.7c4-4.1,5.7-8.4,7.7-12.6c1.7-3.8,4.5-6.4,8.6-7.6c3.1-0.9,5.7-2.4,8.2-5
		c2.4-2.6,6.8-3.3,10.6-2.3c4.4,1.2,9.2,2.3,11.6,7.2c-0.9,0.3-2.2,0.5-3,2.4c6.2-2.6,8.7,3.1,13.2,4.8c-1,2.2-3,2.4-4.8,2.6
		c-1.9,0.2-3.7-0.2-5.2-1.3c-2.9-1.9-5.9-2.2-9.2-1.2c-1.1,1.4-2.2,2.9-3.6,4.9c2.4-0.7,3-2.7,4.8-3.2c-5.4,6-7,14.2-12.5,20
		c-2.2,2.3-4.4,3.8-8.1,2.9c-3.8-0.9-7.5-2.2-11.6-1.7c-2.2,0.2-4.1-1-5.5-2.8c-0.8-1-0.8-1.8,0.1-2.8c2.1-0.5,4.1,0.8,6.4,0.5
		c0.5,1.1,0.9,2,1.4,3.1c1.3-0.1,0.2-1.7,1.3-2c3.9-0.8,3.9-0.8,8.2,1.3c1.5-0.8,1.5-0.8,4-1c0.1-0.1,0.2-0.1,0.2-0.2
		c0.3-0.7-0.4-1-0.7-1.5c0.6-1.1,2-1.4,2.4-2.9c-2.9-0.6-3.3,3.3-6.1,3c-2.8-2.7-7.3-2.2-10.8-4.1c-0.7-0.4-1.7,0.4-2.8,1.9
		C641,679.4,640.7,676.7,638.3,676.7z"/>
	<path fill="#FFFFFF" d="M382.1,576.3c1.7-1.9,3.2-3.6,4.9-5.4c3.6,3.2,7.3,6.2,11.8,7.9c4.4,1.7,9,2.4,13.8,2.9
		c-1.5,2.9-3.5,5.5-6,6.9c-3.5,2-8,2-11.4-0.4C390.6,584.8,386,581.1,382.1,576.3z"/>
	<path fill="#FFFFFF" d="M466.2,419.1c-9.5-1.5-18-4.4-26.9-5.6c-2.6-0.4-4.9,0.3-7.4,0.5c-1.8,0.1-3.6-0.1-5.8-0.2
		c1.1-1.4,1.9-1.8,3.4-1.6c4.8,0.7,9.4,0,14-1.9c3.6-1.5,7.6-0.4,11.5-0.1c4.5,0.3,8.6,2,13.1,2.7
		C468.1,415.1,466.3,416.7,466.2,419.1z"/>
	<path fill="#FFFFFF" d="M318.4,597.3c-0.5-3.1,0.9-4.2,3.2-3.9c5.9,0.9,11.7-0.2,17.5-1.1c1.6-0.2,2.6,0.1,3.5,1.5
		C334.9,597.3,326.6,596,318.4,597.3z"/>
	<path fill="#FFFFFF" d="M680.4,501.5c-6.1-1.6-11.6-4.6-17.7-6.1C665.2,493.7,673.3,496.4,680.4,501.5z"/>
	<path fill="#FFFFFF" d="M874.1,551.2c-2.1,1.3-3.4,3.3-4.6,5.3c-1.2,2-1.4,4.6-3.5,6.1C865.7,558.8,870.1,552.5,874.1,551.2z"/>
	<path fill="#FFFFFF" d="M627.1,683c3.6-3.3,5.1-3.1,8.2,0.9C632.6,683.6,630.1,683.3,627.1,683z"/>
	<path fill="#FFFFFF" d="M637.1,682.7c-1.3-0.5-1.9-1.1-2.3-2.3c0.7-1.5,1.8-2.1,3.7-1.6C638.1,680.2,637.2,681.3,637.1,682.7z"/>
	<path fill="#FFFFFF" d="M359.8,593.9c-2.6,0.6-3.4-1.9-5.1-2.8c0.6-1.1,1.7-1.2,2.9-2C357.4,591.3,358.6,592.6,359.8,593.9
		L359.8,593.9z"/>
	<path fill="#FFFFFF" d="M866.9,569.4c0.5,2.1-0.5,3.7-1.3,5.4C865.1,572.8,866.2,571.1,866.9,569.4z"/>
	<path fill="#FFFFFF" d="M865.2,610c-0.3,0.1-1,0.3-1.9,0.5c-0.2-1.2-0.4-2.3-0.5-3.4c0.2-0.1,0.3-0.2,0.5-0.3
		C863.9,607.9,864.5,608.9,865.2,610z"/>
	<path fill="#FFFFFF" d="M856.3,582.1c-1.2,1.4-1.9,3.2-4.1,3.6c1.3-1.5,2.5-2.8,3.7-4.2C856,581.7,856.2,581.9,856.3,582.1z"/>
	<path fill="#FFFFFF" d="M877,567.3c-0.9-0.4-1.8-0.8-2.8-1.3c0.5-1.3,1.1-2.2,2.9-1.7C876.8,565.4,876.6,566.4,877,567.3L877,567.3
		z"/>
	<path fill="#FFFFFF" d="M862.7,599.3c0.6,0.6,1.4,0.8,1.5,1.6c-0.7,0.7-1.5,1.4-2.7,0.8C860.9,600.5,861.7,599.9,862.7,599.3z"/>
	<path fill="#FFFFFF" d="M864.1,586.7c0.4,1.3,2,2.4,1.3,4C864.7,589.4,863.2,588.4,864.1,586.7z"/>
	<path fill="#FFFFFF" d="M862.4,578.3c-0.5,1.4-1.6,2.1-3.1,3.2C859.8,579.6,861.1,579,862.4,578.3z"/>
	<path fill="#FFFFFF" d="M843.1,620.8c0.4-1.1,1.2-1.7,2.4-1.5c0.6,1-0.1,1.3-0.7,1.6C844.3,621.3,843.8,621.3,843.1,620.8z"/>
	<path fill="#FFFFFF" d="M617.1,479.6c1.1,0.4,2.1,0.9,3.5,1.4c-1.7,0.4-2.7-0.3-3.7-0.8C616.9,480.1,617,479.9,617.1,479.6z"/>
	<path fill="#FFFFFF" d="M876.9,567.4c0.7-0.3,1.3,0,1.8,0.2c0.5,1-0.1,1.7-0.6,2.5C877.7,569.1,877.3,568.2,876.9,567.4
		L876.9,567.4z"/>
	<path fill="#FFFFFF" d="M818,608c2,0,2.2,1,3,2.1C819.6,609.8,818.9,609.2,818,608z"/>
	<path fill="#FFFFFF" d="M838,606c1,0.2,1.2,0.7,0.8,1.6c-0.7,0.5-1,0.1-1.3-0.5C837.4,606.7,837.5,606.2,838,606z"/>
	<path fill="#FFFFFF" d="M878,580.6c0.2-0.6,0.6-0.9,1.3-0.8c0.3,0.5,0.3,1.1-0.3,1.4C878.6,581.4,878.2,581,878,580.6z"/>
	<path fill="#FFFFFF" d="M847.7,612.2c-1.3-0.3-1.7-0.9-1-2.3C847.9,610.5,847.4,611.5,847.7,612.2L847.7,612.2z"/>
	<path fill="#FFFFFF" d="M346.3,590.5c-0.6,1-1.3,1.4-2.2,1.9C344,590.8,345,590.6,346.3,590.5z"/>
	<path fill="#FFFFFF" d="M785.9,609.9c-0.2,1.4-0.8,1.5-1.5,1.6C784.1,610.1,784.8,610.1,785.9,609.9z"/>
	<path fill="#FFFFFF" d="M840.7,612.8c0.6-0.6,1.1-0.6,1.6,0.2C841.6,613.8,841.1,613.6,840.7,612.8z"/>
	<path fill="#FFFFFF" d="M784.2,593.8c0.5,0.9,0.3,1.9,0,2.9C784.3,595.7,784.3,594.8,784.2,593.8L784.2,593.8z"/>
	<path fill="#FFFFFF" d="M837.5,622.2c0.8-0.7,1.2-1.1,2.1-0.5C839.3,622.8,838.5,622.6,837.5,622.2z"/>
	<path fill="#FFFFFF" d="M862.4,617.1c-0.4,0.8-1,0.8-2,0.4C861.1,617,861.5,616.5,862.4,617.1z"/>
	<path fill="#FFFFFF" d="M868.7,615.3c-0.3,0.5-0.7,0.8-1.2,0.3c-0.1-0.1,0-0.5,0.1-0.6C868.1,614.5,868.4,614.7,868.7,615.3z"/>
	<path fill="#FFFFFF" d="M826.4,613.4c-0.6,0.9-1,0.3-1.4,0.1C825.4,612.3,826,613.7,826.4,613.4z"/>
	<path fill="#FFFFFF" d="M874.5,611.6c-0.2-0.9,0.2-1.3,0.8-1.5C875.7,610.9,875.6,611.3,874.5,611.6z"/>
	<path fill="#FFFFFF" d="M880.8,558.7c-0.2,1-0.8,1-1.5,1C879.5,558.7,880,558.4,880.8,558.7z"/>
	<path fill="#FFFFFF" d="M851,593.4c-0.1,0.9-0.5,1.1-1.1,1C849.7,593.4,850.3,593.4,851,593.4z"/>
	<path fill="#FFFFFF" d="M843,596.7c-0.1,0.6-0.5,0.5-1,0.4C842.2,596.5,842.5,596.2,843,596.7z"/>
	<path fill="#FFFFFF" d="M846.9,598.3c0.2-0.7,0.5-0.9,1-0.8c0.3,0.1,0.4,0.5,0.2,0.8C847.7,598.8,847.3,598.7,846.9,598.3z"/>
	<path fill="#FFFFFF" d="M835.1,599.6c0.2,0.3,0.4,0.6,0.7,1C835.1,600.7,834.9,600.4,835.1,599.6z"/>
	<path fill="#FFFFFF" d="M863.9,580c0.4-0.1,0.6,0.2,0.6,0.5c0,0.1-0.2,0.3-0.3,0.4c-0.3,0.1-0.6,0-0.6-0.5
		C863.6,580.3,863.8,580.1,863.9,580z"/>
	<path fill="#FFFFFF" d="M876.4,573.4c0.1-0.7,0.3-1.1,0.6-0.9C877.6,572.9,877.1,573.2,876.4,573.4z"/>
	<path fill="#FFFFFF" d="M859.8,621c-0.3,1.1-0.9,0.6-1.5,1.1C858.8,621,859.2,621.1,859.8,621z"/>
	<path fill="#FFFFFF" d="M829.7,618c-0.6,0.6-1.2,0.5-1.7,0.3C828.5,617.3,829,617.8,829.7,618z"/>
	<path fill="#FFFFFF" d="M847.7,612.3c0.4,0.5,1.3,0.7,1.2,1.8C847.9,613.7,847.8,612.9,847.7,612.3L847.7,612.3z"/>
	<path fill="#FFFFFF" d="M550.1,219.3c0.4,2.1,2.1,2.1,3.7,2.4c2.7,0.4,5.2,1.1,6.3,4.1c0.1,0.3,0.5,0.5,0.8,0.6
		c6.4,2.2,10.1,7.5,14.3,12.5c-1.5,1.8-3.4,3.6-2.9,6.5c1.6-1.6,2.6-3.8,4.7-4.9c1.1,2.3,0.6,4.9,2.7,7.2c-0.4-2.7-0.6-4.9-1-7.4
		c2.5,0.4,4-0.9,5-3.1c-1.6-0.7-3.4,0.5-5.1-0.7c2.1-1.2,4.6,0,6.8-1.8c0,9,0,17.3-0.7,25.5c-1,1.2-2.5,0.2-3.5,1.1
		c0.7,1.4,2.3,0.7,3.3,1.3c1,2-1.1,1.8-1.8,2.4c0.2,1.4,2.3,0.2,2,2.1c-0.8,1.3-2.8,0-3.7,1.3c0.5,0.7,1,1.3,1.5,2
		c0.9,0.2,1.1-1.1,2.1-0.9c0.1,0.3,0.3,0.6,0.3,0.9c-0.1,5.2-0.1,10.5-0.3,15.7c-0.1,1.5-0.1,3,0.3,4.4c1,2.9,1.1,5.8,0.5,9.2
		c-3.4-0.8-5.7,1.3-8.4,3.1c-5.5,3.8-11.9,3.5-18.1,2.8c-4.4-0.5-8.8-0.6-13.3-0.5c-7.6,0.3-15.2,0-22.8-0.6
		c-8.7-0.8-15.1-5.1-20.3-11.8c-4.7-6-9.2-12.2-14-18.1c-3.4-4.3-6.8-8.5-9.1-13.5c-1-2.2-2.6-4.3-4.2-6.2
		c-5.5-6.3-10.4-13.2-16.9-18.7c-3.4-2.9-6.4-6.5-9.6-9.8c4.5-5.3,8.3-10.9,13.3-15.5c2.8-2.6,4.5-5.9,5.6-9.6
		c3-10.1,7.2-19.6,13.5-28.1c0.8-1.1,1.4-2.3,2.2-3.6c3.3,3,5.1,6.9,7.5,10.4c-1.1-4.5-3.9-8.1-6.9-11.5c0.8-2.1,2.2-3.7,3.9-5.1
		c5.6-4.7,11.1-9.4,16.5-14c1.3,0.1,1.7,1,2.3,1.6c5.3,5.9,10.3,12,14.6,18.8c6.2,9.9,12.1,20,18.3,30c3.3,5.3,6,11,8.1,16.9
		C548.1,217.8,548.2,219.4,550.1,219.3L550.1,219.3z"/>
	<path fill="#FFFFFF" d="M689.3,265.7c-7.3,7.2-8.3,16.3-7.2,25.9c0.4,3.6,2.1,6.7,4.8,9.2c1.4,1.3,2.8,2.6,4.5,4.1
		c-2.5,1.6-5.1,2.1-7.8,2.3c-11.4,1-22.7,0.7-34-0.8c-3.5-0.5-6.8-1.8-10.3-2.4c-9.5-1.7-19-3.2-28.5-4.8c-3.5-0.6-6.9-1.2-10.4-1.8
		c-3.8-0.7-7.6-1.5-11.7-1.1c-0.4-4.8-1.9-9.3-1.7-14.1c0.5-14.1,0.4-28.2,0.6-42.2c0-2.6,0-5.2,0-8c2.7-0.1,5-0.2,7.6-0.8
		c0.3,1.8-1.3,3.3-0.5,4.9c1.2-2,2.3-4,3.7-6.3c1.4,0.1,3-0.5,4.5-0.7c1.7,1.2,0.3,2.9,1,4.5c1.6-1.3,0.5-3.4,1.9-4.6
		c1.6-0.4,3.4,0.1,5.1,0.3c0.9,1.8-0.2,3.7,0.7,5.6c1.7-2.6,0.4-6.2,3-8.7c5.6,0.8,2.8,6.6,5.7,9.3c0.5-2.7,0.2-5.3-0.1-7.8
		c7.5-2.7,15.2-3.5,23-4c8.9-0.6,17.7-0.5,26.5,0.7c5,0.6,10-0.1,14.9-1.1c6.1-1.3,12.2-1.6,18.2-0.1c9.1,2.2,18.6,2.9,27.5,6.5
		c2.6,1,4.4,2.4,5.1,4.9c0.6,2.4,2.1,3.6,4,4.8c9.1,6,18.4,11.7,26.4,19.3c4.6,4.4,7.8,9.5,10.8,15.1c-3.8-4.2-8.8-7-13-10.6
		c-9.5-8.2-21.1-10.2-32.6-11c-10.1-0.7-20.4,1.1-29.9,5.3c-4.2,1.9-7.5,5.1-11,7.9c-0.5-0.3-1-0.3-1.5-0.4
		C688.7,265,689.1,265.3,689.3,265.7z"/>
	<path fill="#FFFFFF" d="M401.3,256.5c0.7-2.1,1.6-3.9,1.6-6.9c-2,2.3-3.7,3.9-4.8,6.2c-5.4-1.2-9.7-4.2-13.8-7.5
		c0.2-1.7,1-2.8,2-3.7c6.7-6.7,10.6-14.9,13.3-23.8c3.4-11.2,5.6-22.7,9.3-33.8c3.8-11.2,8.1-22.1,14.7-32.1
		c3.1-4.7,5.7-9.7,6.7-15.5c0.5-3.1,2.8-5.6,4.8-8.1c0.8-1,2-0.9,3.1-1.1c1.2-0.3,2.7-0.2,3.5-1.7c-1.6-0.9-3,0.5-4.6-0.2
		c3.1-3.9,5.8-8.1,8.2-12.5c0.6-1,1.4-1.9,2.5-2.1c4.2-0.9,8.4-2.1,12.7-0.5c14.4,5.2,26.6,13.4,35,26.6c0.7,1.2,1.6,2.2,2.7,3.1
		c1.5,1.2,2.9,2.5,4.4,3.8c0.2,0.1,0.2,0.4,0.5,0.7c-11.7,9-23.7,17.8-29.6,32.3c-2.5-4.9-2.5-10.8-7.5-14
		c1.8,5.8,3.5,11.7,5.1,17.6c-2.3,4.3-4.4,8.8-6.2,13.5c-0.7-3.4-1.2-6.6-1.6-9.9c-1.3-9.8-1.5-20-6.2-29.1
		c-0.3-0.6-0.5-1.3-1.5-1.6c0,2.2,1.4,3.8,1.7,5.8c1.3,8.9,2.7,17.8,1.5,26.7c-0.9,7-4.1,13.4-9.5,18.1c-6.4,5.6-12.6,11.6-18,18.1
		c-5.6,6.7-11.5,13.5-15.1,21.7c-0.8,1.9-1.7,3.6-0.7,5.8c0.7,1.5-0.5,3-1.9,3.9C410.6,257.9,406.7,258.1,401.3,256.5z"/>
	<path fill="#FFFFFF" d="M692,268.4c3.6-4.7,8-8.3,13.6-10.2c15.5-5.3,31.4-5.5,46.3,0.8c10.3,4.4,20.1,10.8,25.6,21.5
		c2,3.9,3,7.5-0.3,11.9c-3.1,4.1-5,9.3-6.9,14.2c-1.9,4.9-5.4,8.5-10.2,10.9c-3.3,1.6-6.4,0-9.5-0.4c-0.3,0,0.1-0.9-0.9-1.2
		c-1.8,1.2-3.4-2.2-5.7-1c0,1.5,2.1,0.8,1.8,2.6c-1.9,1-4.5,1.2-6.5,2.7c-1.9,1.4-3.8,2.9-5.9,4.1c-2.5,1.4-5.3,1.3-8,2.1
		c0.5-3.5,0.6-6.9-0.6-10.2c0,8.7-5.7,13-12.3,16.7c-5.3,3-10.9,5.6-16.9,7.2c-1.4,0.4-2.7,1.1-4.2,1.7c-3.1-1.9-5.1-5.5-9.1-6.3
		c-1.3-5.3-5.6-7.1-10.1-8.6c0.1-0.1,0.2-0.2,0.2-0.2c0.1,0,0,0-0.1,0.2c-1.8-0.3-3.5-0.6-5.5-1c5.3-4.4,10.3-8.8,15.2-13.3
		c2.9-2.7,6.7-3.9,10.1-5.5c3.4-1.6,6.5-3.5,9.6-5.8c9.6-7.2,17.6-16.4,28.6-21.6c1.7-0.8,3.3-1.9,5.2-2.4c2-0.6,3.6-1.6,2.8-3.9
		c-11-2.6-20.5-8.6-31.4-12.3c0.8,2.6,2,4.7,4,5.5c1.8,0.7,3.8,1.9,5.9,1.3c2.6,5.2,7.6,7,12.7,9.4c-3.8,2.4-7.3,4.6-10.8,6.7
		c-4.1,2.5-7.6,5.6-10.9,9.2c-4,4.3-8.4,8.2-13.8,10.6c-8.7-5.1-11.9-15.1-8.2-25.4c0.3,0.3-0.1-0.2,0.2,0.2c0.1,0.1,0,0-0.3-0.1
		C686.8,274.5,688.3,270.8,692,268.4c0.2,0.1,0.2,0.1,0.2,0.1C692.3,268.6,692.2,268.6,692,268.4z"/>
	<path fill="#FFFFFF" d="M355.8,273c0.9,0.5,1.7,1.2,2.7,0.8c1.1-1.5-0.3-2.9,0-4.4c1.6,0.4,2.8,2,4.4,1.7c1.5-0.7,0.4-1.9,0.8-2.8
		c0.9-0.2,1.9,0.8,2.8-0.1c1-0.8,0.1-1.7,0.2-2.7c0.7-0.5,2.3-0.3,1.9-1.9l-0.1,0.1c1,0.3,1.8,1.6,3.3,0.7c0.9-2.3-0.7-4.1-1.8-6.1
		c1.1-1.4,2.4-2.8,3.5-4.4c0.8-1.2,1.9-2.2,1.6-4.2c-0.2-1.6,2-2.8,3.5-4c-1,3.5-2,6.9-2.9,10.3c3.5,5.9,8.6,10,13.8,13.8
		c4.7,3.4,12.9,2.3,16.7-2c2.4-2.7,4.7-5.6,7.8-7.6c2.4-1.6,3.5-4.1,4.5-6.8c2,1.2,2.6,2.8,2.7,4.6c0.1,5,1.5,9.8,2.8,14.6
		c1,3.7,2.4,7.7,0.8,11.7c-0.5,1.2,0.1,2.3,0.9,3.1c1.3,1.3,2,2.9,2.1,4.5c0.1,3,1,5.8,2.7,8.6c-2.7,1-5.1,2.6-7.7,2.8
		c-2.2,0.1-4.5-0.3-6.7-0.1c-4.4,0.4-8.8,0.8-13.2,1.4c-6.7,0.9-13.3,0.6-19.9-0.8c-3.6-0.8-7-0.1-10.4,0.8
		c-1.8,0.5-3.5,0.9-5.4,0.8c-5.6-0.4-11.1-0.3-16.7-0.1c-7.9,0.2-15.6-1-23.4-2.2c-2-0.3-4-0.6-6.1-1c-6.8-1.2-12.1-4.5-15-11
		c0.8-2.2,0.4-4.6,0.9-6.9c0.9-3.8,1.7-4.6,5.5-4.6c6.7-0.1,13.4-0.6,20.3-2.1c-0.3,1.3-0.9,2.8,0.5,3.6c1.3,0.7,2.4,2,4.2,1.3
		c-1.8-3.2-1.4-4.5,2-7.4c1.2,1.6,1.4,4.2,4.1,4.5c2.2-2.2-0.4-3.9-0.5-5.9c0.5-1.1,1.8-0.7,2.7-1.4c0.9,2.4,2.3,4.2,5.2,4.7
		C351.5,274.2,355.6,276.3,355.8,273L355.8,273z"/>
	<path fill="#FFFFFF" d="M784.4,289.7c-1.2-8.7-4.4-16.6-9.9-23.5c-0.7-0.9-1.1-1.9-1.4-3c-0.6-2.8-0.9-3.4-2.8-5.1
		c-1.1,0.3,0.5,1.2-0.5,1.7c-8.3-9.4-19.1-15.7-29.3-22.6c-1.9-1.3-3.7-2.5-4.1-5.3c6.5,3.2,13.1,5.9,19.1,9.6c1.9,1.2,3.7,2,6,1
		c1.2,1.2,2.4,2.2,3.5,3.4c3.5,3.8,7.8,3.8,12.4,2.5c3.2-0.9,6.3-1.9,9.2-3.5c3.7-2.1,6.6-0.7,7.9,3.4c0.2,0.7,0.6,1.4,1.1,2.1
		c0.2-2.1,0-4.1-1.3-6c1.5-3.4,0.9-7.3,2.6-10.7c1.3-2.6,3.3-3.8,6-2.6c2.5,1.1,4.8,1.8,7.4,0.2c1.4-0.8,2.6-0.1,3.2,1.5
		c-0.2,1.5-2.6,2.1-1.5,4.5c3.5-0.7,2.4-5.6,5.9-6.3c0.9,0.3,2.1,0.6,3.3,1c-1.2,3.9-0.4,5.2,3.3,4.8c-1.6-1.7-0.8-3.5-0.6-5.3
		c0.4-2.9,1.4-3.4,4.1-2c2.5,1.3,4.8,3,7,4.8c2.6,2,5.2,3.7,8.6,1.2c1.4-1,3.2-0.2,4.8,0.7c3.4,2,7,3.7,11.2,4.2
		c0.1,1.1,0,2.5,1.2,3.4c-0.7,1.9-1.3,3.6-2,5.4c-1.2-0.1-0.3-1.2-1.2-1.8c-2.4,2-3,4.7-2.1,7.9c-3.7,0.4-5.7,3-8,5.1
		c-3,2.7-6.1,5.1-9.5,7.2c-1.3,0.8-2.5,1.6-3.9,2c-3.9,1.3-7.9,2.9-10.7-2.1c-1.3,1.8,0.6,2.8,0.2,4.1c-0.4,1.4-2-0.3-2.5,1
		c0,0.2,0,0.5,0.1,0.6c0.6,0.6,1.2,1,1.8,1.6c1.9,1.8,5.2,1.9,6.3,4.8c0.9,2.4,1.6,4.9,2.5,7.8c-2.2,1.1-4.5,2.5-6.8,3.4
		c-2,0.7-4.3,0.6-5.7-1.2c-2.3-2.9-4.4-6-6.3-9.2c-1-1.6-1.7-3.6,0.8-5c-2.9-1.1-3.8-0.5-4,1.9c-0.1,2.5,1.6,4.4,2.3,6.9
		c-2.3,0-3.7,1.2-5.3,2.6c-1.6,1.5-4,1.9-6.4,1.6C795,287.8,789.6,288.1,784.4,289.7L784.4,289.7z"/>
	<path fill="#FFFFFF" d="M656,357.7c-0.7,1.4-1.8,2.2-3.3,2.9c-3.2-2.9-7.5-2.6-11.1-4.3c-1.5-0.7-2.6,0.6-2.9,2
		c-2.2,0.1-2.5-2.4-5-2.1c4-4.1,5.8-8.7,8-13.2c1.7-3.5,4.3-5.9,8.2-7.1c3.1-0.9,5.9-2.2,8.2-5c2.3-2.7,6.5-3.2,9.8-2.5
		c4.8,1,9.9,2.3,12.5,7.3c-1,0.4-2.2,0.6-2.7,2.1c2.5-0.6,4.8-0.5,6.8,1c1.9,1.4,3.5,3.2,5.9,4c-2.4,3.1-6,3.7-10,1.3
		c-3-1.8-5.9-2.1-9.4-1.1c-0.3,1.6-2.2,2.5-3,4.6c2-0.6,2.6-2.5,4.4-3c-5.1,5.9-7,13.8-12.1,19.6c-2.3,2.6-4.7,4.3-8.6,3.3
		c-3.6-0.9-7.3-2.1-11.2-1.7c-2.9,0.3-4.8-1.5-6.3-3.8c0.8-1.9,0.8-1.9,7.1-1.3c1,0.7,0.6,2.1,1.6,3.1c1-0.3,0.1-1.8,1.1-2.1
		c2.4-0.5,4.7-1,7,0.8c1.8,1.4,3.4-1.6,5-0.2c1-1.1-0.1-1.5,0.1-2.2c0.6-1,1.9-1.3,2.2-2.6C657.4,356.6,656.7,357.5,656,357.7
		c-0.3-0.1-0.6-0.3-0.9-0.4C655.4,357.4,655.7,357.6,656,357.7z"/>
	<path fill="#FFFFFF" d="M509.8,139.3c-2.2,1.5-4.5,2.8-6,5.1c-2.9-2.3-5.3-4.5-7.3-7.4c-4.2-6.1-9.4-11.4-15.6-15.5
		c-3.7-2.5-7.6-4.5-11.1-7.2c-3.1-2.4-7.4-2.6-11.5-4.1c3.4-2.3,6.2-4.8,10.8-3.5c3,0.8,6.2,0.9,9.3,1.8c3.4,1,5.9,3,7.7,5.8
		c2.4,3.7,5.4,6.7,8.6,9.6C500.1,128.6,505.2,133.6,509.8,139.3z"/>
	<path fill="#FFFFFF" d="M550.1,219.3c-0.1-4.7-1.9-8.9-4.1-12.9c-10.3-18.4-20.4-37-34-53.3c-2-2.3-4.1-4.5-6.3-7
		c1.9-1.5,3.7-3,5.6-4.5c2.3,1.8,3,4.3,4,6.6c2,4.9,4.7,9.3,7.8,13.6c10.6,14.6,19,30.4,26.4,46.8c1,2.3,2.6,4.4,2.7,7.1
		C552.2,217.4,552.2,219,550.1,219.3L550.1,219.3z"/>
	<path fill="#FFFFFF" d="M408.4,261c-2,2.9-3.8,6-6.7,7.2c-3.8,1.6-8.1,1.5-11.6-1.3c-4.3-3.5-8.8-6.8-12.4-11.3
		c1.5-1.7,3.1-3.4,4.8-5.4c3.7,2.9,7.2,6.1,11.7,7.8C398.7,259.7,403.4,260.4,408.4,261z"/>
	<path fill="#FFFFFF" d="M338.4,273.2c-8,3.3-16.1,2.2-24,3.3c-0.2-0.6-0.4-0.8-0.4-1.1c0-0.7-0.1-1.4,0.8-2.5
		c6.9,0.4,14.1-0.1,21.4-1.3C336.9,271.4,337.5,272.3,338.4,273.2z"/>
	<path fill="#FFFFFF" d="M572.8,227.6c0.7,2.5,3,2.8,4.9,3.8c-1,0.8-0.5,2.6-2,3c0.2,0.9,1.7,0.8,1.3,2.4c-2.8-0.9-3.2-3.7-4.6-5.5
		c-0.8-0.7-1.2,0.4-2.1,0.2c-1.7-3.2-4.1-5.9-7.7-7.7c4.6-2.4,7.5-1.3,9.8,3.4c-0.2,0.2-0.4,0.4,0,0.6
		C572.5,227.9,572.7,227.8,572.8,227.6z"/>
	<path fill="#FFFFFF" d="M630.8,363.2c-2.6-0.3-5-0.6-7.4-0.9C625.3,358.7,627.9,359,630.8,363.2z"/>
	<path fill="#FFFFFF" d="M868.3,231.1c-3.4,2.8-3.8,7.6-7,10.5C862.9,237.6,864.2,233.4,868.3,231.1z"/>
	<path fill="#FFFFFF" d="M873.4,249.5c-0.1-2.7-1.7-3.6-3.7-4.2c0.6-1.3,1.1-2.3,2.8-1.8c-0.8,1.9,0.3,2.9,1.8,3.4
		C874.4,248,874.3,248.7,873.4,249.5z"/>
	<path fill="#FFFFFF" d="M355.8,273c-2.7,1-3.7-1.4-5.6-2.6c0.7-1.2,1.7-1.4,2.9-1.8C353.1,270.7,354,272.2,355.8,273L355.8,273z"/>
	<path d="M689.3,265.7c-2.8-0.2-4.3-2-5.3-4.4c2.1,1,4.4,1.8,5.9,3.7C689.7,265.2,689.5,265.5,689.3,265.7z"/>
	<path fill="#FFFFFF" d="M634.2,358.1c-0.7,1.3-1.2,2.4-1.7,3.5c-1.1-0.2-1.7-0.9-1.9-2C631.1,358,632.3,357.6,634.2,358.1z"/>
	<path fill="#FFFFFF" d="M557.4,218.2c1.1,0.6,1.7,1.5,2.2,2.9c-1.8-0.1-3.2-0.7-5-1.3C555.5,218.8,556.5,218.6,557.4,218.2z"/>
	<path fill="#FFFFFF" d="M861.3,288.5c-0.5,1.3-1.5,0.7-2.2,1.6c-0.3-1.5-0.6-2.5-0.9-3.9C860,286.4,860.1,288.1,861.3,288.5z"/>
	<path fill="#FFFFFF" d="M862.5,248.7c0.7,2.1-0.8,3.6-1.3,5.4C860.7,252.1,861.8,250.4,862.5,248.7z"/>
	<path fill="#FFFFFF" d="M859.8,266c0.3,1.4,2.1,2.3,1.2,4.6C860.2,268.7,858.7,267.7,859.8,266z"/>
	<path fill="#FFFFFF" d="M859.8,280.2c-0.9,0.7-1.6,1.7-2.9,0.6c-0.4-1.1,0.5-1.6,1.2-2.1C858.9,279,859.5,279.4,859.8,280.2z"/>
	<path fill="#FFFFFF" d="M851.4,261.3c-0.6,1.6-1.5,3-4,3.7C848.8,263.2,850,262.1,851.4,261.3z"/>
	<path fill="#FFFFFF" d="M841.8,298.7c-1,1.5-1.7,2.1-3,1.5C839.2,298.8,840,298.5,841.8,298.7z"/>
	<path fill="#FFFFFF" d="M579.3,233.2c1.2,0.2,2.4,0.3,3.6,0.5c-1.3,0.5-2.6,0.6-3.9,0.3C579.1,233.7,579.2,233.5,579.3,233.2z"/>
	<path fill="#FFFFFF" d="M861.4,261.7c-0.8-0.7-1.6-1.3-2.3-2C860.6,259.5,861,260.6,861.4,261.7z"/>
	<path fill="#FFFFFF" d="M858.4,257.8c-0.9,0.7-1.8,1.5-2.7,2.2c0.2-1.5,1.3-2,2.2-2.7C858.1,257.5,858.2,257.6,858.4,257.8z"/>
	<path fill="#FFFFFF" d="M814.2,287.4c1.4,0,1.8,1,2.7,2.4C815.4,289.2,814.6,288.6,814.2,287.4z"/>
	<path fill="#FFFFFF" d="M368.6,263.6c-1.9-0.1-1.9-1.8-2.5-2.9C367.7,261.1,367.9,262.5,368.6,263.6L368.6,263.6z"/>
	<path fill="#FFFFFF" d="M341.5,270.1c-0.6,0.6-1.2,1.3-1.9,2.1C339,270.2,340.3,270.2,341.5,270.1z"/>
	<path fill="#FFFFFF" d="M834.1,287.2c-1-0.5-1.3-1-0.7-2C834.7,285.5,835,286.1,834.1,287.2z"/>
	<path fill="#FFFFFF" d="M835.4,300.9c-0.7,1.1-1.3,0.8-2.2,0.8C833.7,300.6,834.3,300.4,835.4,300.9z"/>
	<path fill="#FFFFFF" d="M843,291.5c-0.7-0.6-1.6-1-1-2.2C843.4,289.6,842.9,290.7,843,291.5z"/>
	<path fill="#FFFFFF" d="M784.3,289.6c-0.8,0.6-1.6,1.2-2.4,1.8C782.2,289.6,782.2,289.6,784.3,289.6L784.3,289.6z"/>
	<path fill="#FFFFFF" d="M874.8,238.9c0.1-0.8,0.4-1.2,1.4-1C876.3,239,875.8,239.2,874.8,238.9z"/>
	<path fill="#FFFFFF" d="M836,292.2c0.8-0.8,1.3-0.5,1.8,0C837,293.3,836.7,292.4,836,292.2z"/>
	<path fill="#FFFFFF" d="M871.1,289c0.4,1.1-0.1,1.5-0.9,2C869.8,289.8,870.5,289.5,871.1,289z"/>
	<path fill="#FFFFFF" d="M858.1,296c-0.5,1.4-1.3,0.9-2.1,1.2C856.5,295.9,857.2,296.2,858.1,296z"/>
	<path fill="#FFFFFF" d="M820.7,292.6c0.5-0.4,0.9-0.3,1.3,0.1C821.5,293.8,821.1,292.9,820.7,292.6z"/>
	<path fill="#FFFFFF" d="M845.2,273.5c0.4-0.7,0.7-1.2,1.4-0.7C846.7,273.7,846.2,273.8,845.2,273.5z"/>
	<path fill="#FFFFFF" d="M357.3,267.8c-0.5-0.2-1.2-0.1-1.1-1C357.1,266.4,357,267.4,357.3,267.8z"/>
	<path fill="#FFFFFF" d="M862.8,294.8c0.2-0.8,0.7-1.1,1.4-0.4C864,295.2,863.5,295.3,862.8,294.8z"/>
	<path fill="#FFFFFF" d="M843.3,267c-0.2,1.1-0.5,1.5-1.3,1.1C842,267.5,842.5,267.3,843.3,267z"/>
	<path fill="#FFFFFF" d="M782.2,287.2c-0.8-0.7-0.7-1.1-0.6-1.6C782.3,286,781.9,286.4,782.2,287.2z"/>
	<path fill="#FFFFFF" d="M823.4,297.5c0.5-0.6,1.1-0.7,1.7-0.1C824.6,298,824,297.9,823.4,297.5z"/>
	<path fill="#FFFFFF" d="M778.4,276.9c0.3,0.4,0.9,0.7,0.6,1.4C778.4,278,777.9,277.7,778.4,276.9z"/>
	<path fill="#FFFFFF" d="M874.7,259c0.4,0.7,0.3,1.1,0,1.5C873.8,259.9,873.8,259.9,874.7,259z"/>
	<path fill="#FFFFFF" d="M842.4,277.6c0-0.5,0.2-0.8,0.7-0.8c0.3,0,0.5,0.4,0.3,0.7C843.2,278,842.8,277.9,842.4,277.6z"/>
	<path d="M489.4,470.4c5.2,1.1,10.4,2.5,15.2,4.9c7.1,3.5,14.7,5,22.4,7c-4.5-4.8-8.6-10-14.8-13.5c0.2-1.4,1.3-1.4,2.8-0.7
		c2.1,1,3.8,2.5,5.4,4.1c3.5,3.2,7,6.5,10.1,10.1c1.1,1.3,2.3,2,3.9,2.5c4.2,1.3,8.4,2.7,13,4.2c-1.2-4.5-4.3-7.9-4.9-12.5
		c1.5,0.3,1.6,1.6,2.1,2.4c2,3.4,3.9,6.9,5.8,10.4c0.6,1.1,1.4,1.7,2.5,1.8c-2.1,3.2,1.4,6.4,0.1,9.8c-2-0.5-2-2-2.4-3.4
		c-2-7.5-0.3-6.1-8.4-9c-2.5-0.9-5.1-1.5-7.9-2.1c5.4,6.8,10.1,14,14.8,21.2c0.1,0.1-0.3,0.6-0.5,1c-1.7-0.1-2.4-1.5-3.2-2.6
		c-4.5-6.1-8.8-12.4-13.5-18.4c-1.7-2.1-3.5-3.4-6.1-4c-3.5-0.9-7.1-1.7-10.5-2.8C506.4,477.8,498,473.9,489.4,470.4L489.4,470.4z"
		/>
	<path d="M480.3,496.3c1.2-2.9,3.4-2.4,5.7-1.4c7.4,3.2,14.1,7.3,18.7,14.2c0.9,1.3,2.3,2.6,0.7,4.6c-4.8-9.4-12.7-14.7-22.2-18.4
		c-1.4,2.9-3.8,3.1-6.4,3.1c-5,0-9.9,0.4-14.2,3.8c-1.3-1.9-0.6-2.9,0.9-3.8c2.7-1.6,5.7-2,8.8-2.1
		C474.8,496.3,477.3,496.3,480.3,496.3z"/>
	<path d="M586.2,502.3c8.2,1.9,14.9,6.8,22.5,11.6c-4.1,1.2-7.1-1.5-10.8-0.2c1-2.3,2.7-1.3,4.4-2
		C596.7,508.4,591.4,505.4,586.2,502.3z"/>
	<path d="M571.6,514.8c-0.3-6.4-0.8-12.8-3.3-18.8c3.5,5.7,6.3,11.6,4.8,18.5C572.6,514.6,572.1,514.7,571.6,514.8z"/>
	<path d="M528.3,524.1c-1.1-0.2-1.6-0.6-2-1.7c1.7-3.5,5.6-4.9,7.9-8.1C534.6,517,531.5,521.7,528.3,524.1z"/>
	<path d="M611.6,484.7c-0.6,0.4-1.2,0.7-1.9,0.4c-4.5-1.8-8.2-4.6-10.7-8.9c2.5,0.9,3.8,3.5,6.6,3.9l-0.1-0.1c1,1.4,2.6,1.5,4,2.2
		C610.4,482.8,611.9,483,611.6,484.7L611.6,484.7z"/>
	<path d="M521.7,507.1c0.7,3.6,2.3,7.2,0.1,10.7c-0.9,1.4-2,2.9-4,0.6C521.2,515.5,520.4,511,521.7,507.1z"/>
	<path d="M575.2,463.1c1.4,5.2-0.1,10.1-1.1,15.2C574.3,473.2,573.2,468.1,575.2,463.1z"/>
	<path d="M587.8,471.4c1.2,3.9,0.9,8,3,11.8c-1.9,0.4-2.3-0.8-2.8-1.9C586.8,478.1,586.3,474.8,587.8,471.4z"/>
	<path d="M605.5,480.1c-1.6-1.8-3.3-3.4-4.6-5.4c-1.3-1.9-3.6-2.6-5.1-5c2.8,0.5,4.6,2,6.2,3.5c1.4,1.3,2.6,2.8,3.8,4.3
		C606.4,478.4,607,479.4,605.5,480.1L605.5,480.1z"/>
	<path d="M606.2,541.3c-1.6,0.2-3.1,0.1-4.6-1.2c-0.6-1.9-0.2-3.9,0.4-6.1c0.4,1.9,2.2,1.4,3.2,2.3c-0.3,1.3-2.6,0.7-2,2.9
		C603.7,540,605.8,539.5,606.2,541.3L606.2,541.3z"/>
	<path d="M551.5,463.8c-1.1-1.7-1-3.5-1.1-5.2c-0.1-1.1,0.6-2.3,1.9-2.5c1.3-0.2,1.8,0.7,2.1,2C552.4,459.4,552.3,461.7,551.5,463.8
		z"/>
	<path d="M597.7,485c-2.7-1.9-3.6-5.4-2.6-8.9c2,1,1.7,2.8,1.7,4.3C596.8,482,597.3,483.4,597.7,485z"/>
	<path d="M593.3,529.8c1.3,2.6,0.4,4.3-1,5.8c-1.6,1.9-3.6,3-6.5,2c1.4-1.8,3.7-0.7,5.1-2.4C592.1,533.7,592.2,531.7,593.3,529.8z"
		/>
	<path d="M607.7,509.9c0.8-3.8,2.5-7.3,4.1-10.7C611.2,503.1,610,506.7,607.7,509.9z"/>
	<path d="M564,455.9c-2.6-0.5-4.7-1.4-7.1-2.4C559.1,453,561.1,453.7,564,455.9z"/>
	<path d="M604,524.5c-0.2-1.3-0.4-2.7,0.7-4.1C605.6,522.2,604.6,523.4,604,524.5z"/>
	<path d="M615.9,489.3c1.4-1.3,2.4-1.5,3.8-1.5C619,489.9,617.8,489.6,615.9,489.3z"/>
	<path d="M604,529.1c1.2,0.5,2.5,0.9,2.7,2.5C605.5,531.2,604.5,530.5,604,529.1L604,529.1z"/>
	<path d="M489.5,470.3c-1.4,0-2.9,0-4.3,0C486.6,469.8,488.1,469.5,489.5,470.3L489.5,470.3z"/>
	<path d="M604.1,529c-0.4,0-0.9,0.1-1.4,0.1c-0.7-0.8-0.4-1.5,0.2-2.3C604.1,527.3,603.7,528.3,604.1,529L604.1,529z"/>
	<path d="M619.6,491c-1.4,1-2.3,0.8-3.3,0.2C617.2,490.3,618.2,490.6,619.6,491z"/>
	<path d="M470.3,463.1c-0.9,0.5-1.3-0.1-2.3-0.4C469.2,462.2,469.7,462.7,470.3,463.1z"/>
	<path d="M605.4,517.1c0,0.4-0.2,0.6-0.6,0.6c-0.4,0-0.6-0.2-0.6-0.6c0-0.2,0.2-0.4,0.4-0.5C605,516.5,605.3,516.7,605.4,517.1z"/>
	<path d="M579.4,499.4c0.6-0.1,1,0.2,1.4,0.6c-0.4,0.4-0.8,0.1-1.1-0.1C579.5,499.8,579.5,499.6,579.4,499.4z"/>
	<path d="M707,624.8c-1.8,2.8-2.4,6.8-7,6.8C703.1,630,703.7,626.2,707,624.8z"/>
	<path d="M680.6,644.4c3.6-0.7,6.9-3,11-1.4c-3.6,0.8-7.2,1.5-10.9,2.3C680.8,645,680.7,644.7,680.6,644.4z"/>
	<path d="M767.7,614.6c2.4-2.5,5.9-3.6,8.4-6.1C775.4,611.2,772.8,613.2,767.7,614.6z"/>
	<path d="M739,623.1c-3.2,1.4-6.5,1.7-9.9,2C732.1,622.6,735.5,622.9,739,623.1L739,623.1z"/>
	<path d="M707.7,572.8c3.7,1.1,4.7,2.4,3.6,5.1C708.9,577,708.1,575,707.7,572.8L707.7,572.8z"/>
	<path d="M778.3,608.4c-0.7-1.8-0.9-3.4-2.2-4.8c1.8-0.6,2.6,0.4,3.2,1.4C780,606.1,780,607.3,778.3,608.4z"/>
	<path d="M700.5,577.1c2.1,0.3,3.8,1.3,5.8,3C702.9,580.8,701.7,578.7,700.5,577.1z"/>
	<path d="M707.8,572.8c-2.1-0.3-3.1-1.5-2.9-4.1C706.6,569.8,708,570.7,707.8,572.8L707.8,572.8z"/>
	<path d="M759.7,616.7c1.5-0.7,2.9-2.1,5.6-0.9C763.1,616.7,761.6,617.3,759.7,616.7z"/>
	<path d="M718.1,627.3c-1.8,1-3,1.1-4.4,0.7C715.1,626.7,715.1,626.7,718.1,627.3z"/>
	<path d="M709.1,628.6c-1.3,1.4-2.6,1.7-3.9,1.9C705.6,628.6,707,628.5,709.1,628.6z"/>
	<path d="M696.5,631.9c-0.7,2.4-1.8,2.5-3.4,2.3C693.8,632.6,695,632.8,696.5,631.9z"/>
	<path d="M750.7,636.9c-0.9,0.2-1.8,0.2-2.4-0.9c0.8-0.6,1.7-0.6,2.8-0.2C750.9,636.1,750.8,636.5,750.7,636.9L750.7,636.9z"/>
	<path d="M739.1,623.2c0.7-0.9,1.4-1.8,2.8-1C741.3,623.9,740,623.2,739.1,623.2L739.1,623.2z"/>
	<path d="M728.1,635c-1-0.6-0.9-1.3-1.1-2.3C728.4,633.1,728.3,633.9,728.1,635z"/>
	<path d="M690.9,634.5c-0.3,2.1-1.2,2.5-2.4,3.1C688.5,635.9,689.5,635.6,690.9,634.5z"/>
	<path d="M695.4,573.5c1.4-0.3,2,0.2,2,1.7C695.9,575.3,695.5,574.5,695.4,573.5L695.4,573.5z"/>
	<path d="M709.6,584.1c-1.1-0.4-1.1-1-0.8-2C710.1,582.6,710,583.3,709.6,584.1z"/>
	<path d="M717.6,562.4c-0.8-0.7-0.4-1.2-0.3-1.8C718.5,561.2,717.9,561.7,717.6,562.4z"/>
	<path d="M745.8,621.9c0,0.4-0.3,0.6-0.7,0.5c-0.2,0-0.4-0.3-0.4-0.4c0-0.4,0.2-0.6,0.7-0.5C745.6,621.5,745.7,621.8,745.8,621.9z"
		/>
	<path d="M748.5,620.1c0.2,0.1,0.4,0.1,0.5,0.2c0.2,0.3,0,0.6-0.3,0.7c-0.2,0-0.4-0.1-0.5-0.2C748.1,620.5,748.2,620.3,748.5,620.1z
		"/>
	<path d="M402,495.2c-2.5-14.7,3.7-26.9,11.1-38.7c1.9,0.9,1,2,0.6,2.8c-1.5,3.1-3.2,6.2-4.8,9.3c-0.7,1.3-1.4,2.6-2.1,3.9
		c-1.7,3-2.9,6-2.8,9.8C404,486.6,402.6,490.9,402,495.2z"/>
	<path d="M442.7,443.1c-0.3,0.6,0.8,1.1-0.2,2.1c-2-3.3-4.4-6.3-6.7-9.4c2.2,0.2,2.8,2.2,4,3.4c6.1-0.4,7.3,5.5,11.3,8.2
		C449.1,447.9,449.1,447.9,442.7,443.1z"/>
	<path d="M423.2,450.1c6.3,0.5,10.2,5.6,15.5,7.6c0.5,1.4,0,2.2-1.1,3.4C434.1,455.7,427.7,454.2,423.2,450.1z"/>
	<path d="M435,474.2c-3.5-4.8-6.1-10.3-10.4-14.5C429.8,463.3,433.7,467.8,435,474.2z"/>
	<path d="M413.1,425.4c3,3.4,2.4,8.2-1,10.8C412.5,432.6,412.8,429.4,413.1,425.4z"/>
	<path d="M437,478.1c2.1,3.7,3.7,7.6,2.7,12.1C438.9,486.2,437.5,482.3,437,478.1z"/>
	<path d="M403.9,499.3c1.7,2.7,0.6,5.6,1.4,8.1C402.8,505.2,402.2,502.2,403.9,499.3z"/>
	<path d="M408.9,554.9c0.7,3.5-0.6,6.6-0.6,9.9c-0.5-0.1-1-0.2-1.5-0.2C406.5,561.2,408.4,558.2,408.9,554.9z"/>
	<path d="M411.1,444.6c3.1,0.4,5.5,1.8,7.4,4.2C415.6,448,413.1,446.7,411.1,444.6z"/>
	<path d="M428.6,426.3c2.9,1.3,4.8,3.4,5.6,6.5C432.1,430.8,430.7,428.3,428.6,426.3z"/>
	<path d="M425.1,425.4c-2.1-0.3-4.4,0-6.5-1.7C421.5,422.3,423.2,424.2,425.1,425.4z"/>
	<path d="M406.8,565.9c0.8,1.8,0.6,2.9,0.6,4c-0.7,0.8-1.4,1.1-2.8,0.9C405.3,569.3,405.9,567.9,406.8,565.9z"/>
	<path d="M393.4,570.3c-0.5-4-0.4-4.3,1.6-7.6C394.6,565.4,394.8,567.6,393.4,570.3z"/>
	<path d="M407.1,452c-0.8,1.9-1.9,3.3-4.4,2.2C403.8,452.4,405.5,452.3,407.1,452z"/>
	<path d="M397.6,537.3c0.8,2.9,0.6,5.2,0.6,7.9C397,543,397,542,397.6,537.3z"/>
	<path d="M410.2,523.8c-1.8-1.9-1.2-3.4-1.5-5.3C411,520,410.1,521.7,410.2,523.8z"/>
	<path d="M399,531.1c-0.3-2.2-0.6-4.4,0-6.6C399.7,526.7,399.5,528.9,399,531.1z"/>
	<path d="M410,551.1c-0.1-2.1,0.6-3.6,1.7-5.2C411.9,548.7,411.9,548.7,410,551.1z"/>
	<path d="M407.2,514.5c-1.1-1.3-1.6-2.2-1.1-3.8C407.1,511.9,407.5,512.9,407.2,514.5z"/>
	<path d="M396.9,551.4c0.7,1.6,0.3,2.6,0.2,4C395.5,554,396.1,553,396.9,551.4z"/>
	<path d="M405,444.3c0.6,1.6,0.8,2.5-0.5,3.1C403.8,446.3,404.3,445.6,405,444.3z"/>
	<path d="M411.3,525.5c1,1.1,2,1.7,1.3,3.1C411,528.1,411.5,526.9,411.3,525.5z"/>
	<path d="M408.5,444.7c-0.4,0.4-0.8,0.5-1.1,0c-0.1-0.1,0.1-0.5,0.2-0.6C408.1,443.8,408.4,444.2,408.5,444.7z"/>
	<path d="M394.4,611.5c-4.1,0-8.4,1.2-10.2-4.5c-1.4,2.4-2.9,4-5.4,4c-1.7,0-3.1-0.5-4.3-1.7c-2-2.1-1.8-5.7,0.4-7.6
		c2.8-2.4,6.4-1.4,9.4,2.8c1.2-1.6,2.4-3,4.4-3.4c1.3-0.2,2.5,0,3.6,0.6C395.1,603,395.4,604.5,394.4,611.5z"/>
	<path d="M366.8,606.9c-1,2.3-1,2.3-3,2.8c-0.1-3.3,0-6.5,0.7-10c2.8,0.2,5.7-0.8,7.6,1.9c1.5,2.1,0,3.8-1.4,5.3c0.5,1.1,1,2,1.5,3
		C368.8,611.5,369.1,607.1,366.8,606.9z"/>
	<path d="M665.4,662.8c-1.8-1.1-1.7-3.1-2.2-4.7C664,659.6,665.1,661.1,665.4,662.8L665.4,662.8z"/>
	<path d="M656.3,663.6c0.3,1.1,0.4,2.2-0.4,3.3C654.9,665.4,655.7,664.5,656.3,663.6z"/>
	<path d="M670.5,664.1c0.8-1.3,1.6-1.9,3.2-1.9C672.9,663.5,672,664,670.5,664.1z"/>
	<path d="M660,678c-1.3,1.1-2.3,0.8-3.9,0.3C657.6,677.7,658.7,677.4,660,678z"/>
	<path d="M665.4,662.8c0.8,0.2,1.1,0.6,0.6,1.3C665.4,663.9,665.4,663.4,665.4,662.8L665.4,662.8z"/>
	<path d="M533.2,241.6c0.4,0.6,0.9,1.3,1.5,2.1c1.7-2.8,2.9-5.5,3.8-8c-0.2-1.8-1.8-1.2-2.4-2c0.8-0.7,1.7-0.5,2.6-0.3
		c1.3,0.3,1.9,1.2,1.9,2.5c-0.1,1.8-0.8,3.5-1.4,5.2c-1.2,3.1-2.9,6.1-2.1,9.9c1.3,1,3.1-0.5,4.4,0.9c2.8-3.2,4.5-6.8,8.4-8.6
		c-0.5,4.4-4.9,6.2-6.5,10.2c1.1,1.4,0.6,3.2,0.1,4.8c0.5,1.3,1.4,2,2.7,2.5c1.1-0.8,1.7-2.7,3.5-2.6c1.9,0.1,3.5,1,4.9,2.2
		c1.4,1.1,2.7,2.4,4.3,3.9c-0.3-3.3-1.4-6-2.1-8.7c-1.4-0.9-3.5-1.1-3.1-3.5c0.5,0.1,1,0.1,1.8,0.3c-1-3.8-3.1-7.1-3.2-11
		c2.7,0.1,2.7,0.1,8.5,12.1c4.3,1.4,8.9,2.6,11.7,7.2c2.3-4.7-1-9-0.7-13.9c4.7,5.3,4.7,12.3,0.3,19.1c-0.9-6.3-5.1-8.7-10.6-9.8
		c-0.5,3.6,3,7.9-2,10.5c2.2,1.8,3.3,2,4.8,0.8c2.2,2.4,5.2,3.2,7.9,2.2c0,0.7,0,1.3,0,2c0.9,0.8,2,0.4,2.9,0.5c1,0.1,2-0.4,3.2,0.8
		c-1.9,2-4.5,1.4-6.9,1.7c-0.4,2.3,0.9,4,1.7,5.7c2.2,1.6,5.7,0.8,6.8,4.8c-8-1-14.9-3.7-21.9-6.6c4.5-0.7,8.4,2.9,13.1,1.5
		c-0.5-1.9-1.7-3.6-1.4-5.5c-1.9-1.1-3.9-1.9-4.9-3.8c-0.2-0.4-0.7-0.8-1-0.8c-3.8-0.1-5.6-2.7-7.3-5.5c-1.1-1.7-2.8-2.9-4.8-3.8
		c-1-0.4-2.1-1.1-3.1,0.1c-1,4.4,0.9,8.3,1.9,12.4c0.6,2.3,1.8,4.7-0.1,7.6c-1.3-4.8-2.5-9-3.6-13.3c-0.7-2.6-1.1-5.3-3.6-7.1
		c-1.8-1.2-0.2-3.2-0.6-4.9c-1.6,0.1-1,2.3-2.5,2.4c-0.9-1.5,0.7-2.8,0.4-4.4c-1.6-0.7-3.7,0-5.2-1.8c-2.7,5.1-4.5,10.3-8,14.6
		c-0.3,0.4-0.9,0.7-1.4,1.1c-2.3-0.8-1.4-2.1-0.6-3.4c3.2-5.8,5.9-11.8,8.5-17.7c0.1-1.5-1.7-2.4-0.9-3.9c-0.1-0.2-0.1-0.4-0.2-0.6
		C532.9,241.5,533,241.5,533.2,241.6z"/>
	<path d="M532.9,242c-1.1-1.4-2.3-2.8-3.6-4.5c-1.1,3.9-1,7.9-3.5,11.1c0.7-3.4,0.9-6.9,1.3-10.3c0.4-2.9-0.6-5.1-2.8-6.8
		c-1.1-0.9-2-1.8-3.1-2.7c-1.8-1.5-3.3-3.2-3.3-6.5c-1.8,3.8-1.6,7.4-3.9,11c0-3.7,0.8-6.5,1.7-9.1c2-5.7,0.8-10-3.9-13.9
		c-3.7-3-6.6-6.8-8.2-11.6c-2.1,8.9-3.4,17.7-7.8,25.7c2.3-7.2,3.3-14.8,4.7-22.2c0.2-0.9,0.2-1.8,0.5-2.7c1-3,0.4-5.4-2-7.7
		c-2.4-2.4-2.8-5.8-3.8-9c2.9,2.8,2.5,7.6,6.5,9.8c1-2.4,0.2-5,0.9-7.8c1.9,1.3,1.8,3,1.6,4.4c-1.5,7.8,2.4,13.5,7.4,18.7
		c1.8,1.9,3.8,3.6,5.6,5.3c0.9-1.1,0.2-2.8,1.5-4.6c-0.2,9.2-1.4,18.4,8.5,23.3c-0.2-2-0.4-4.1-0.6-6c0.8-0.3,1.2-0.2,1.4,0.2
		c0.3,0.6,0.8,1.3,0.7,1.9c-0.5,5.1,1.6,9.4,4.4,13.4C533.1,241.7,533,241.8,532.9,242z"/>
	<path d="M491.2,273.5c-4.9-15.5-4.3-31.9-7-48.3c1.9,3.2,1.9,6.4,2.2,9.5C487.3,247.7,488.4,260.6,491.2,273.5z"/>
	<path d="M514.3,272.3c-4.4-9.9-8.9-19.8-13.2-29.8C506.6,252,511,261.9,514.3,272.3z"/>
	<path d="M574.5,297.8c1.1-2.6,3.2-3.8,5-5.7c0.6-0.7-1-1.8,0.4-2.6c0,2.2,2.3,0.6,3.2,1.6c0.1,1.2-2.6,1-1.8,2
		c1.1,2.1,2.9,0.5,3.5,2c-0.4,1.1-1.4,1.2-2.2,1C579.7,295.3,576.9,295.3,574.5,297.8z"/>
	<path d="M501.6,275.3c2.3,4.6,2.7,9.9,4.6,14.6C503.8,285.3,502.3,280.4,501.6,275.3L501.6,275.3z"/>
	<path d="M555.6,231c2.1,2.3,3,5.1,3.7,8.1C557.6,236.6,555.3,234.4,555.6,231z"/>
	<path d="M578.3,266.5c-0.5-4.8,0.7-8.7,0.5-13C580.1,256,580,259.2,578.3,266.5z"/>
	<path d="M571.9,287.2c-2.8,2.8-5.3,4.1-8.4,4.6C565.9,289.4,569.3,287.5,571.9,287.2z"/>
	<path d="M558.4,277.3c0.1-3.2,0.2-3.3,1.8-4.8C561.7,274.5,561.5,275.1,558.4,277.3z"/>
	<path d="M571.5,294.4c0.7,3.5,0.3,4.2-3,5.8c0.2-1.4,1.4-1.8,1.9-2.7C571,296.5,571.3,295.4,571.5,294.4z"/>
	<path d="M555.7,303.7c1.9-0.9,3.6-0.7,5.6-0.8C559.6,304.9,559.1,304.9,555.7,303.7z"/>
	<path d="M501.1,272.4c-1.7-3.1-1.6-6.6-2.2-10l0,0.1C500.1,265.7,500.7,269,501.1,272.4L501.1,272.4z"/>
	<path d="M578.9,280.5c-1.1-1.7-0.9-2.9-0.8-4.5C579.7,277.3,579.7,278.6,578.9,280.5z"/>
	<path d="M583.5,240.7c0.1,1.9-0.9,2.1-2.5,1.9C581.5,241.2,582.6,241,583.5,240.7z"/>
	<path d="M583.7,286.4c-1.6,0.1-1.9-1-3.1-1.7C582.2,284.7,583.3,284.6,583.7,286.4z"/>
	<path d="M496.4,242.3c-1-1.2-0.6-2.5-0.5-3.9C496,239.7,496.2,241,496.4,242.3L496.4,242.3z"/>
	<path d="M496.3,242.3c0.4,1.4,0.5,2.8,0,4.2C496.4,245.1,496.4,243.7,496.3,242.3L496.3,242.3z"/>
	<path d="M581.5,244.3c0.8-0.8,1.7-0.8,3-1.3C583.3,244.5,583.3,244.5,581.5,244.3z"/>
	<path d="M582.2,298c1.1-0.4,2-0.6,3,0.5C583.8,299.5,583.1,298.7,582.2,298z"/>
	<path d="M497.3,249.9c0,0.7,0,1.5,0,2.2c-0.1,0-0.1,0-0.2,0c0-0.7-0.1-1.4-0.1-2.1C497.1,250,497.2,249.9,497.3,249.9z"/>
	<path d="M498.8,262.4c0-0.7-0.6-1.4,0-2.4C498.8,261,498.8,261.7,498.8,262.4L498.8,262.4z"/>
	<path d="M498,255.2c0,0.4,0,0.7,0,1.1c-0.1,0-0.2,0-0.2,0c0-0.4,0-0.7-0.1-1.1C497.8,255.2,497.9,255.2,498,255.2z"/>
	<path d="M501.6,275.3c-0.7-0.9-0.6-1.9-0.6-2.9l-0.1,0C501.7,273.3,501.7,274.3,501.6,275.3L501.6,275.3z"/>
	<path d="M611.6,269c4.2,2.4,7.9,5.2,10.9,9c0.9,1.2,2,2.4,0.8,4.9c-3.6-5.3-8.4-8.9-12-13.6C611.5,269.1,611.6,269,611.6,269z"/>
	<path d="M640.5,237c1.1,2.3-0.6,2.9-1.9,3.6c-3.8,2-7.7,3.8-11.6,5.7c-1,0.5-1.9,1.2-3.7,1C628.6,242.3,635.3,241,640.5,237z"/>
	<path d="M658.3,224.6c-4.7,4.1-11,4.4-14.8,9.5C644.9,229.6,653.3,224.1,658.3,224.6z"/>
	<path d="M706.6,225.8c-2.6,0-5,0.7-7.5,0.9c-2.6,0.2-4.9,1-7.5,2.7C693.7,225.9,699.2,224.7,706.6,225.8z"/>
	<path d="M714.4,227.3c4.5,0.4,9.1,0.4,12.9,3.4C723,229.4,718.6,228.8,714.4,227.3z"/>
	<path d="M700.6,255.8c-3,0-3.2-2.5-4-4.5C698.5,252.2,699.6,253.8,700.6,255.8z"/>
	<path d="M607.5,266.5c-2.5-1.3-3.4-3.2-5.1-4.9C605.7,262.6,606.3,263.2,607.5,266.5z"/>
	<path d="M622.9,227.8c1.8,2.7,1.5,5.6,1.2,8.5c-0.3-1.4-0.6-2.8-0.8-4.2C623.1,230.7,623,229.2,622.9,227.8z"/>
	<path d="M694.7,252.7c-1.1-1.8-1.4-3.1-1-4.9C695.1,249.2,695.8,250.4,694.7,252.7z"/>
	<path d="M677.1,273.1c-2.1,0.2-2.7-1.5-3.6-2.9C675.2,270.5,676.3,271.7,677.1,273.1z"/>
	<path d="M680.7,253.9c0.8,1.1,1.6,2.3,2.4,3.4c-1.9-0.3-2.2-1.8-2.9-3c-0.1-0.2-0.1-0.4-0.2-0.6
		C680.3,253.7,680.5,253.8,680.7,253.9z"/>
	<path d="M592,251.5c1.9,0.7,2.7,1.2,3,2.6C593.2,254.2,592.8,253.1,592,251.5z"/>
	<path d="M694.2,245.2c-1.1-1.1-1.1-2-0.5-3.1C694.7,242.9,695,243.8,694.2,245.2z"/>
	<path d="M616.6,234c0.6,1.5,0.8,2.6,0.7,3.8C616.4,236.8,616.4,235.8,616.6,234z"/>
	<path d="M680.2,254.3c-0.9-0.6-1.9-1.1-2.3-2.7c1.8-0.1,2.3,1.1,2.7,2.3C680.5,254,680.4,254.2,680.2,254.3z"/>
	<path d="M599.1,258.9c-1.6,0.2-2.1-0.8-3-2.1C597.7,257.2,598.5,257.6,599.1,258.9z"/>
	<path d="M671.4,268.7c-1.1-0.4-1.8-0.8-1.8-2.2C670.8,266.9,671.7,267.1,671.4,268.7z"/>
	<path d="M692.9,232.5c0.7,0.9,0.5,1.4,0.1,2.1C692.3,233.7,692.3,233.7,692.9,232.5z"/>
	<path d="M611.4,269.2c-0.7-0.2-1.4-0.5-1.5-1.4c1-0.1,1.4,0.5,1.8,1.1C611.6,269,611.5,269.1,611.4,269.2z"/>
	<path d="M639.3,272c-0.5-0.2-0.5-0.6-0.3-1c0.2-0.5,0.5-0.2,0.7,0.1C640,271.6,639.7,271.9,639.3,272z"/>
	<path d="M618.4,248.1c0.1-0.6,0.4-0.8,1-0.5C619.2,248.1,619,248.4,618.4,248.1z"/>
	<path d="M418.3,181.2c-0.6-9.5,13-30,22.3-34.1c0.9,1.7-0.6,2.6-1.4,3.4c-3.3,3.4-6.7,6.7-10.1,10.1c-2.3,2.3-4.2,4.6-5.2,8
		C422.8,172.9,420.4,176.8,418.3,181.2z"/>
	<path d="M451.7,143.6c3.5,1,5.6,3.7,7.7,6.2c1.3,1.6,2.5,3.1,4,4.6c2.9,2.7,3.6,6.4,4.3,10.6c-1.9-0.8-2.7-2.2-3.3-3.5
		c-1.2-2.7-3.3-4.9-3.9-7.8c-0.2-1-1.2-1.3-1.8-2C456.1,149.3,453.5,146.9,451.7,143.6z"/>
	<path d="M449.7,117.7c1.4,3.7-0.5,7.9-4,9.5C446.1,124.5,448.1,119.5,449.7,117.7z"/>
	<path d="M455.7,166.3c2.4,5.2,1.6,10.4-0.1,15.7C456.4,176.7,456.9,171.5,455.7,166.3z"/>
	<path d="M407.5,239.8c0.3,2.9-2.5,8.3-4.6,8.7C404.4,245.6,405.9,242.7,407.5,239.8z"/>
	<path d="M417.7,193.3c-0.7-2.7-1.4-5.5,1.1-8.5C420,188.3,418.1,190.7,417.7,193.3z"/>
	<path d="M441.6,134.7c2.8,1.5,4.9,3.5,6,6.5C445.1,139.4,443,137.4,441.6,134.7z"/>
	<path d="M463.7,122.6c2.6,1.5,3.7,3.8,3.8,7.7C465.7,127.7,465.3,124.8,463.7,122.6z"/>
	<path d="M404.9,214.1c0.8-2.4,0.8-5,3-6.9c-0.7,2.4-1.5,4.7-2.2,7.1C405.4,214.3,405.2,214.2,404.9,214.1z"/>
	<path d="M455.4,117.2c2.8-0.4,4,1.6,5.4,3.4C458.8,119.7,456.7,119.2,455.4,117.2z"/>
	<path d="M400.2,227.3c-0.3-2.6,0.8-4.9,1.9-7.2C402.2,222.7,401.4,225.1,400.2,227.3z"/>
	<path d="M388.8,249.6c0.1-2.4,1.3-4.3,3-5.8C391.3,246,390.4,248,388.8,249.6z"/>
	<path d="M470.7,138.7c-1.7-1.2-2.1-3.2-2.4-5.1C470,134.8,470.5,136.7,470.7,138.7z"/>
	<path d="M436.2,140.9c-2.5,1.9-2.5,1.9-4.7,1.2C432.6,140.5,432.6,140.5,436.2,140.9z"/>
	<path d="M453.7,161.1c-1.2-1.7-1.7-3.7-2-5.7C453.2,157,453.8,158.9,453.7,161.1z"/>
	<path d="M413.2,232.3c-0.3,1.8-1.3,3.1-2.9,4C410.6,234.5,411.7,233.3,413.2,232.3z"/>
	<path d="M418.1,210.1c-1-1.6-0.4-3,0.2-5.2C419.8,207.3,418.6,208.7,418.1,210.1z"/>
	<path d="M471,140.1c1.3,1.6,1.6,2.7,1.4,4.4C470.9,143.3,470.8,142.1,471,140.1z"/>
	<path d="M396.1,237.1c-0.5-2.1,0.2-3.1,1.6-4.1C397.8,234.6,397.2,235.6,396.1,237.1z"/>
	<path d="M452.5,197.8c-0.3-1.3,0.2-2.2,1.2-3.2C453.8,196,453.3,197,452.5,197.8z"/>
	<path d="M418.1,200.3c-0.6-1-1.2-2-0.2-3.2C419,198.2,418.2,199.3,418.1,200.3z"/>
	<path d="M435.9,132.7c0.6,1.5,0.1,2.3-1.1,3.3C434.4,134.5,435.2,133.8,435.9,132.7z"/>
	<path d="M418.8,215.7c-0.9-1-0.6-1.7-0.1-2.7C419.8,214.1,420.2,214.9,418.8,215.7z"/>
	<path d="M439.1,134.4c-0.5,0.1-0.8-0.2-1-0.8C439,133.3,439.4,133.3,439.1,134.4z"/>
	<path d="M416.7,226.2c-0.4-0.6-0.4-1-0.1-1.4C417.1,225.1,416.9,225.5,416.7,226.2z"/>
	<path d="M695.5,311c3.4-1.5,3.7-5.8,7.2-7.5c0.2,2.2-1.9,3-2.3,4.8c1.3,0,2.5-0.9,4.1-0.3C702,310.7,698.2,309.4,695.5,311z"/>
	<path d="M763.2,294c2.3-2.8,5.8-3.7,8.5-6C770.1,291.6,766.6,292.7,763.2,294z"/>
	<path d="M676.3,323.7c3.6-0.9,7-2.9,11.1-1.5c-3.6,0.8-7.2,1.6-10.9,2.4C676.4,324.3,676.4,324,676.3,323.7z"/>
	<path d="M703.5,278.3c-2.9,0.7-3.7,0.2-5.4-3.3C700.5,275,702.3,275.7,703.5,278.3z"/>
	<path d="M724.7,304.1c3-1.7,6.1-2.5,9.3-1.1C730.7,302.4,727.9,305.1,724.7,304.1z"/>
	<path d="M773.7,287.7c-0.4-2.1-1-3.5-1.9-5.1C775.4,283.5,776.1,285,773.7,287.7z"/>
	<path d="M691.8,280.8c2.2-0.2,4,0.4,5.9,1.4C695.6,283.7,694.5,283.4,691.8,280.8z"/>
	<path d="M697.6,274.3c-2.5,0.7-2.5,0.6-3.7-2.5C695.5,272.2,696.8,272.8,697.6,274.3z"/>
	<path d="M755.2,296c1.6-0.7,3-2,5.3-1.2C758.7,296.4,756.9,296.4,755.2,296z"/>
	<path d="M708.7,307.1c1.6-1.2,3-1.3,5-0.5C711.9,307.6,710.6,307.8,708.7,307.1z"/>
	<path d="M688.5,313.3c1-1.4,2.2-1.2,3.2-1.7C691.4,313.3,690.3,313.7,688.5,313.3z"/>
	<path d="M703.8,260.3c1.3,0.9,1.7,1.8,1.6,3.2C703.8,262.9,703.5,262,703.8,260.3z"/>
	<path d="M683.8,317.1c0.4-1.8,1.2-2.3,2.3-3.2C686.2,315.9,685.2,316.2,683.8,317.1z"/>
	<path d="M737.6,301.3c-0.7,1.5-1.5,1.4-2.4,1.1C735.5,301,736.3,301.2,737.6,301.3z"/>
	<path d="M722.9,311.9c0.8,0.8,1.3,1.4,0.7,2.4C722.5,313.9,722.7,313.1,722.9,311.9z"/>
	<path d="M685.8,278.7c1,0.1,2.3-0.4,2.6,1.4C686.7,280.9,686.5,279.4,685.8,278.7L685.8,278.7z"/>
	<path d="M672.3,327.1c-0.5-1.6,0.6-1.6,1.9-1.7C673.9,326.7,673.1,326.9,672.3,327.1L672.3,327.1z"/>
	<path d="M692,268.4c1.7-0.3,1.4,0.7,1.3,1.8C691.8,270.2,691.9,269.3,692,268.4L692,268.4z"/>
	<path d="M741,300.7c0.3,0.2,0.5,0.4,0.3,0.8c-0.2,0.3-0.5,0.4-0.8,0.2c-0.1-0.1-0.2-0.4-0.2-0.5C740.4,300.8,740.6,300.6,741,300.7
		z"/>
	<path d="M743.5,312.4c-0.5,0.7-1,0.7-1.7,0.2C742.2,312,742.6,311.7,743.5,312.4z"/>
	<path d="M384.2,284.5c-2.7,3.5-4.8,4.4-7.6,3.4c-2.3-0.9-3.7-2.8-3.5-5.2c0.2-2.4,1.4-4,3.7-4.7c2.9-0.9,5,0.2,7.4,3.8
		c2.3-2.9,5-4.7,8.6-2.5c4,2.5,1.9,6.1,1.6,9.4C390.3,288.8,386,289.8,384.2,284.5z"/>
	<path d="M363.7,286.6c-0.1-3.2,0.1-6.3,0.7-9.7c2.8,0.2,5.7-0.8,7.6,1.8c1.5,2.1,0.1,3.8-1.2,5.1c0,1.4,1.3,2.1,1.1,3.4
		c-1,0-1.9-0.6-4.9-3.1C365.3,284.2,366.8,287.9,363.7,286.6z"/>
	<path d="M820.3,282.8c-0.3-1.9-2,0-2.9-1.2c-0.2-2-0.6-4.3,2-5.5c1.4,0.3,2.1,1.2,2.1,2.4c0,1.4,0.6,2.3,1.8,2.5
		c1.7,0.3,1.7-1.4,2.1-3c2.2,2.8,4.3,5,5.5,8.4c-3.1,1.4-6.6,1.2-8.8,3.9c-2-0.8-2.9-2.3-3.8-4.1c1.8-1,3,3.3,4.8,0.3
		c-1.1-1.6-3-1.9-4.5-2.7C818.9,282.6,819.8,283,820.3,282.8c1.1,0.7,2.4,0,3.5,0.7C822.7,282.8,821.4,283.4,820.3,282.8z"/>
	<path d="M840.5,255.9c-0.6-1.1-0.4-2.4,0.3-3.1c2.5-2.5,2.2-5.5,2-8.6c-0.1-0.9,0-1.8,0-2.7c0.1-1.6,0.9-2.2,2.4-2
		C848,244,845.5,252.9,840.5,255.9z"/>
	<path d="M837.7,241.2c1.1,0.2,2.1,0.3,3.3,0.5c-0.6,3.3-1.8,6-4.8,7.8C836.5,246.8,835.1,243.8,837.7,241.2z"/>
	<path d="M802.6,265.5c2.2,1.4,2.7,4,4.7,4.8c1.8,0.8,3.8,1.1,5.2,2.8C808.2,275.1,803.2,271.4,802.6,265.5z"/>
	<path d="M792.1,258.5c3.3,1,6.1,2.5,8,5.4C797,262.7,794.4,260.8,792.1,258.5z"/>
	<path d="M790.6,277.4c2.6,1.8,5.8,2.3,8.5,4.3C795.5,282.3,792.3,280.7,790.6,277.4z"/>
	<path d="M766.5,249.9c-2.6-1-4.4-2.8-5.9-5.5C762.7,245.3,765.3,247.8,766.5,249.9L766.5,249.9z"/>
	<path d="M766.4,250c2.4,1.7,4.2,3.7,4.4,6.8C769.2,254.6,767.2,252.7,766.4,250L766.4,250z"/>
	<path d="M784.5,270.8c2.7,0.9,4,2.2,5.2,4.4C786.8,275.1,785.6,273.6,784.5,270.8z"/>
	<path d="M786.3,256.3c1.5-0.5,2.4,0.3,3.8,1.3C788.1,258.1,787.2,257.6,786.3,256.3z"/>
	<path d="M818.8,261.6c-1.5-0.6-1.7-1.4-1.6-2.7C818.6,259.3,818.9,260.1,818.8,261.6z"/>
	<path d="M789,284.9c-0.8,0.7-1.6,1.5-2.9,1.1C786.8,284.8,787.8,284.7,789,284.9z"/>
	<path d="M819.1,263c1.6,0.5,2,1.2,1.7,2.6C819.1,265.3,819.3,264.2,819.1,263z"/>
	<path d="M778.1,265.5c1,0,1.5,0.2,1.4,1C778.7,266.9,778.4,266.4,778.1,265.5z"/>
	<path d="M782.3,269.2c1,0.1,1.3,0.4,1.5,1C782.9,270.7,782.7,270,782.3,269.2z"/>
	<path d="M775.7,253c0.5-0.7,1-0.6,1.6-0.1C776.9,253.8,776.3,253.5,775.7,253z"/>
	<path d="M659.2,338.7c1.2,1.1,1.7,2.7,2.3,4.2C660.4,341.8,659.2,340.6,659.2,338.7L659.2,338.7z"/>
	<path d="M656,357.7c-1.2,0.2-2.4,0.6-4.2-0.3C653.6,357.1,654.8,356,656,357.7L656,357.7z"/>
	<path d="M651.5,345.7c-0.7-1.1-0.6-2.1,0.3-3.1C652.9,343.8,651.5,344.7,651.5,345.7z"/>
	<path d="M666.3,343.1c0.7-1,1.4-1.6,2.6-1.6c0.3,0.9-0.4,1.1-0.9,1.4C667.5,343.1,667.1,343.7,666.3,343.1z"/>
	<path d="M659.3,338.7c-0.7-0.2-0.6-0.8-0.7-1.4C659.6,337.5,659.2,338.2,659.3,338.7L659.3,338.7z"/>
	<path d="M572.8,227.6c-0.2,0.8-0.3,1.6-1.4,1.6c-0.6-1.2,0-1.6,1-2C572.6,227.4,572.7,227.5,572.8,227.6z"/>
	<path fill="#FFFFFF" d="M381.5,605.8c-0.2,1.7-1.2,2.9-2.9,2.8c-1.9,0-2.9-1.3-2.8-3.2c0.1-1.6,1-2.8,2.8-2.8
		C380.6,602.8,381.3,604.1,381.5,605.8z"/>
	<path fill="#FFFFFF" d="M390.2,609.4c-2.4-0.2-3.3-1.4-3.1-3.4c0.2-1.6,1.1-2.5,2.7-2.5c2.2,0,2.8,1.4,2.8,3.5
		C391,607,388.5,606,390.2,609.4z"/>
	<path fill="#FFFFFF" d="M370.4,603.3c-2.9,1.8-3.2,1.7-3.7-0.9C368,601.9,369.1,602,370.4,603.3z"/>
	<path fill="#FFFFFF" d="M378.7,279.9c1.8,0.1,2.8,1.3,2.7,3.1c-0.1,1.7-1.1,2.7-2.8,2.8c-1.6,0.1-3-1.5-2.8-3.2
		C375.9,281.1,376.8,280,378.7,279.9z"/>
	<path fill="#FFFFFF" d="M392.6,284.3c-2.3-0.8-3.1,0-2.6,2.3c-2.4-0.3-3.3-1.7-2.9-3.8c0.3-1.4,1.2-2.2,2.7-2.1
		C392,280.8,392.7,282.1,392.6,284.3z"/>
	<path fill="#FFFFFF" d="M370.1,281.2c-1.9,0.6-3.5,1.5-3.5-1.6C368.1,279.3,369.4,278.8,370.1,281.2z"/>
	<path fill="#FFFFFF" d="M820.3,282.8c1.9-0.1,3.8,0.1,5.3-0.8c1.4,0.6,1.8,1.7,2.6,2.6C824.8,286.7,823,283.1,820.3,282.8
		L820.3,282.8z"/>
</g>
</svg>
