<?xml version="1.0" encoding="utf-8"?>
<!-- Generator: Adobe Illustrator 19.2.0, SVG Export Plug-In . SVG Version: 6.00 Build 0)  -->
<svg version="1.1" id="Layer_2" xmlns="http://www.w3.org/2000/svg" xmlns:xlink="http://www.w3.org/1999/xlink" x="0px" y="0px"
	 viewBox="0 0 900 600" style="enable-background:new 0 0 900 600;" xml:space="preserve">
<g>
	<path d="M353,182.5c-0.1,0.3-0.1,0.7-0.3,0.9c-1.6,1.5-3.1,3.1-4.8,4.5c-0.7,0.6-1.6,0.9-2.5,1.1c-3,0.7-5.9,1.8-9.1,2
		c-0.7,0-1.3,0.3-1.9,0.6c-1.5,0.8-3,1.7-4.5,2.6c-6,3.6-11.5,8-17.3,12c-3.7,2.6-7.5,4.9-11.5,7c-1.6,0.9-3.2,1.9-4.8,2.8
		c-0.4,0.2-0.9,0.4-1.1,0.8c-2.2,2.8-5.3,4.3-7.9,6.6c-3.2,2.8-6,5.7-7.5,9.8c2.3,1.5,2.4,4.2,3.2,6.5c0.1,0.3,0.1,0.7,0,1
		c-1.2,3.3-0.8,7.1-2.6,10.3c1.7,1.8,4,2.1,5.7,2.8c1,0.9,0,1.5,0.1,2.1c0.2,0.7,0.6,1.2,0.8,1.9c0.7,1.8,0.5,3.4-1,4.7
		c-0.3,0.3-0.7,0.6-1.1,1c0.2,0.6,0.1,1.5,0.6,1.8c1.4,1.3,1.3,2.8,1,4.4c0,0.3-0.2,0.7-0.3,1.1c-1.1,0.7-2.3,1.4-3.4,2.2
		c-0.5,0.4-1,0.9-1.3,1.5c-0.7,1.4-1.8,2-3.3,2c-4.4-0.1-8.7,0.1-13.1-0.6c-3-0.5-5.3-2.1-7.2-4.4c-0.4-0.5-0.6-1.2-0.9-1.9
		c-2-4.4-3.8-8.9-5.9-13.2c-0.9-1.9-2.4-3.7-3.6-5.4c-1.5-2.2-3-4.3-4.5-6.5c-2.2-3.1-3-6.7-2.8-10.4c0.1-1.4,0.1-2.8,0.1-4.1
		c0.1-1.9,0.8-2.7,2.7-2.9c0.9-0.1,1.8-0.1,2.8-0.1c0.4,0,0.9-0.2,1.5-0.3c0.2-1.1,0.3-2.2,0.5-3.3c0.4-2.1,1.3-2.8,3.4-2.3
		c1.2,0.3,2.3,0.1,3.3-0.3c1.9-0.9,3.7-1.8,5.6-2.7c2.1-1,4.2-1.7,6.9-1.3c2.5-1.9,5.1-3.9,7.6-6.2c4.3-4,8.5-8.1,12.8-12
		c2.7-2.4,4.7-5.3,6.5-8.4c1.6-2.7,3.2-5.3,4.7-8c0.7-1.2,1.5-2.3,2.6-3.2c1.5-1.3,3-2.5,4.5-3.7c1.5-1.1,2.9-2.2,4.5-3.2
		c0.9-0.6,1.9-1.3,3-1.6c4.8-1.4,9.2-3.7,13.8-5.4c2.9-1.1,5.7-2.4,8.6-3.6c0.3-0.1,0.6-0.3,1-0.4c2.5-1.1,2.7-1.3,3.8-3.7
		c1.6-1.3,3.1-2.4,4.5-3.6c3.1-2.4,6.2-4.8,9.3-7.2c1.6-1.2,3.1-2.4,3.9-4.3c0.3-0.8,1.1-1.5,1.8-2.1c2.6-2.2,5.3-4.4,8-6.5
		c2.5-2,5.1-3.9,7.6-5.9c0.5-0.4,1.3-1,1.3-1.5c0.2-2.1,1.8-3.1,2.8-3.9c1.5-3.6,3-6.7,4-10c2.5-8.3,8.8-13.2,15.4-17.9
		c1.3-0.9,3-1.3,4.5-1.6c2.5-0.5,5-0.8,7.5-1.2c1.1-0.2,2.2,0.1,3.2-0.7c0.7-0.5,2-0.3,3-0.2c2.2,0.3,4,0,5.6-1.7
		c0.9-1,2.3-1.4,3.5-2.2c2.2-1.4,4.3-3,6.1-4.9c1.2-1.2,2.7-2.1,4.1-3.2c1-0.8,2-1.5,3-2.3c1.9-1.4,3.3-3.1,4.3-5.3
		c1.8-4,4.3-7.6,6.9-11.1c0.8-1,1.6-2,2.5-2.8c3.1-2.9,6.4-5.6,9.6-8.4c1.4-1.3,3.3-2.2,5.1-2.9c3.1-1.2,5.6-3.1,8.1-5.2
		c1.3-1.1,2.6-2.2,4-3.3c1.8-1.5,3.9-2.4,6.2-2.9c1.2-0.3,2.5-0.4,3.7-0.2c4.2,0.6,8.5,0.8,12.5,2.2c1.8,0.6,3.8,0.9,5.7,1.1
		c2.5,0.3,4.4-0.9,5.9-2.8c0.4-0.4,0.5-1.1,1-1.4c2.6-2.1,3.9-5.1,5.7-7.7c0.3-0.4,0.4-0.9,0.7-1.2c3.6-3.2,6-7.5,9.9-10.5
		c1.8-1.4,3.7-2.8,5.6-3.9c0.8-0.5,2-0.4,2.9-0.6c0.1-0.6,0.2-1.1,0.2-1.7c0.2-0.1,0.5-0.3,0.6-0.3c1.2,0.5,2.8-0.1,3.7,1.2
		c0.1,0.1,0.4,0,0.6,0c1.3-0.5,1.5,0.6,2.2,1.4c2.3-0.1,4.3,0.9,6.1,2.4c1,0.9,2.3,0.9,3.7,1.2c-0.1,0.5-0.3,0.9-0.4,1.4
		c0,0.1,0.1,0.4,0.2,0.5c2,1.2,3.6,2.8,4.7,4.9c0.8,1.4,2.2,1.9,3.5,2.6c0.8,0.4,1.8,0.5,2.2,1.6c-0.4,0.2-0.7,0.5-1.1,0.7
		c0,0.2,0,0.4,0.2,0.6c0.7,0.7,1.4,1.5,2.2,2.1c1.1,0.8,1.1,2.2,1.7,3.2c0.2,0.3-0.2,1.1-0.3,1.8c0.9,0,1.8,0,2.5,0
		c0.2,0.2,0.4,0.3,0.4,0.4c0.1,0.8,0.3,1.5,0.4,2.5c-0.5,0.1-1,0.3-1.8,0.5c0.9,0.5,1.6,1,2.3,1.5c0.8,0.5,0.9,1.7,0.2,2.4
		c-0.7,0.7-1.4,1.5-2.3,2.1c-0.6,0.4-1.4,0.5-2.3,0.8c-1.7-0.8-3.4-1.7-5.4-2.6c-0.5,0.5-1.2,0.9-1.6,1.6c-0.8,1.3-1.4,2.6-2.1,4
		c-1.2,2.3-1.7,2.7-4.6,3.5c-0.7,1.9-1.5,3.9-2.2,5.9c-0.2,0.4-0.2,0.9-0.4,1.3c-0.5,1.3-1.3,2.1-2.9,1.9c-0.3,0-0.7,0-1,0
		c-1.2,0.4-1.4,2.4-3.1,1.8c-0.1,0-0.5,0.2-0.5,0.3c-0.7,1.9-2.2,2.5-4,2.9c-0.2,0.4-0.4,0.8-0.7,1.2c-1.5,2.3-3.6,2.9-5.9,1.4
		c-1.8-1.2-3.5-2.7-5.2-4c-0.4-0.3-0.7-0.6-1.1-1c-2.9,0.3-5.6,1.9-8.7,2.3c0,0.8-0.1,1.4-0.1,2.1c0,1.9,0,3.9-0.1,5.8
		c-0.1,1.5-0.1,3,0.4,4.4c0.5,1.4,0.9,2.9,1.3,4.3c1.5,4.7,3.2,9.4,4.6,14.1c0.6,2,1.4,3.9,3,5.3c1.4,1.2,2.4,2.9,2.6,4.7
		c0.3,1.9,1.1,3.5,1.7,5.2c1.1,2.9,2,5.9,1.9,9c0,0.6,0.1,1.2-0.1,1.7c-0.9,1.7-0.3,3.3,0.3,5c0.6,1.7,1.4,3.4,0.7,5.3
		c-0.1,0.2,0,0.5,0.1,0.7c1.3,4.1,1.6,8.6,3.8,12.5c0.7,1.4,1.2,2.9,1.7,4.3c1.4,0.6,2.5,0.3,3.6,0c1.5-0.4,3-0.3,4.3,0.5
		c2.2,1.4,4.8,1.6,7.3,1.6c2.5,0.1,5.1,0.2,7.6,0c2.8-0.2,5.2,0.8,7.4,2.4c1.2,0.9,2.4,1.8,3.7,2.5c6.5,3.7,12.5,8.2,18.6,12.5
		c3.2,2.3,6.4,4.5,9.5,6.8c1.1,0.8,2.2,1.6,3.3,2.5c1,0.8,1.9,1.5,3.2,2c1.8,0.7,3,2.1,3.6,4c0.3,0.8,0.5,1.9,0.2,2.7
		c-0.7,1.9-0.5,3.9-0.5,5.8c0,1.3,0,2.5,0,3.8c0,0.8-0.1,1.6-0.3,2.4c-0.6,2.3-1.7,3.8-4.4,4.1c-2.7,0.3-5.4,1.1-8.1,1.8
		c-5.1,1.2-10.2,1.7-15.4,2c-0.4,0-0.9,0.2-1.2,0.2c-0.2,0.4-0.3,0.6-0.3,0.8c-0.1,2.2-0.2,4.4-0.2,6.5c0,7.2-0.1,14.5,0.7,21.7
		c0.4,3.4,0.5,6.9,0.6,10.3c0.3,9.4,1,18.8,0.8,28.3c0,1.6-0.2,3.2-0.2,4.8c0.1,5,0.1,10.1,0.3,15.1c0.1,2,0.6,4.1,0.9,6.3
		c0.4,0.1,1,0.3,1.7,0.3c19,0,37.9,0,56.9,0c3.2,0,5.7,1.2,8.1,3.2c-0.3,1.1-0.6,2.1-0.7,3.1c-0.1,1,0,2.1,0.1,3.1
		c0.1,2.1,0.1,4.1,0.2,6.2c0,1,0.1,2.1-0.9,3.1c-0.5,0.1-1.2,0.2-1.8,0.2c-8.8,0.7-17.7,0.7-26.5,0.7c-7.4,0-14.7-0.1-22.1-0.3
		c-10-0.2-20-0.6-30-0.8c-5.4-0.1-10.8,0.1-16.2,0.1c-6.1,0-12.2-0.1-18.3-0.2c-2.6,0-5.3-0.1-7.9-0.1c-6.9-0.1-13.8-0.1-20.7-0.2
		c-2.5,0-5-0.6-7.6-1c-0.2-0.5-0.6-1-0.7-1.5c-0.8-4.8-0.9-9.6-0.8-14.4c0.3-0.3,0.5-0.6,0.8-0.7c0.8-0.5,1.7-1.3,2.6-1.5
		c1.6-0.4,3.2-0.5,4.8-0.5c2.8,0,5.5,0.1,8.3,0.2c2.6,0.1,5.3,0.2,7.9,0.2c10.8,0.3,21.6,1.1,32.4,0.8c2.5-0.1,5.1-0.1,7.6-0.2
		c1.2,0,2.5-0.3,3.7,0.2c0.3,0.7-0.2,0.9-0.6,1c-0.4,0.1-0.9,0.1-1.4,0.2c-9.2,0.7-18.4,0.9-27.6,0.6c-9.8-0.4-19.5-0.8-29.3-1.2
		c-1.7-0.1-3.4,0-5,0c-1.7,1.3-2.2,2.8-2.1,4.7c0.2,3.3,0.3,6.6,0.9,10.1c0.6,0.1,1.3,0.4,1.9,0.4c4.1,0.5,8.2,0.6,12.4,0.6
		c7.8,0,15.6,0.2,23.4,0.3c3.1,0,6.2,0,9.3,0c9.7,0,19.3-0.1,29,0.1c7.7,0.1,15.4,0.6,23.1,0.8c7.6,0.2,15.2,0.3,22.8,0.4
		c7.9,0.1,15.9,0.2,23.8,0.3c0.6,0,1.1,0,1.8,0c0.2-0.3,0.4-0.6,0.4-0.9c0.1-3.9,0.1-7.8,0.1-11.7c0-0.3-0.1-0.7-0.2-1
		c-1.6-1.7-3.5-2.3-5.9-2.3c-11,0.1-22.1,0.1-33.1,0c-7.4-0.1-14.7-0.4-22.1-0.6c-1.6-0.1-3.2-0.2-4.4,1c-1-0.4-1-1-1-1.8
		c0-3.6-0.1-7.1-0.1-10.7c-0.1-7.8-0.1-15.6-0.2-23.4c-0.1-7-0.5-14-0.7-21c-0.3-9.1-0.7-18.1-1-27.2c-0.1-3,0.2-6,0.2-9
		c0-1.1,0.3-2.3-0.4-3.5c-0.9,0-1.9-0.1-2.9-0.1c-7.3,0.2-14.5-0.4-21.6-1.8c-2.4-0.5-5-0.5-7.7-0.8c-0.1,0.8-0.3,1.5-0.3,2.1
		c0.1,3.2,0.2,6.4,0.3,9.7c0.2,5.9,0.4,11.7,0.5,17.6c0,0.8,0.1,1.6,0.1,2.6c0.7,0.2,1.3,0.5,1.9,0.4c4.6-0.1,9.2-0.2,13.8-0.4
		c0.3,0,0.6-0.2,1.1-0.4c0.4-2.4,0.1-4.8,0.2-7.2c0.1-2.3,0-4.6,0-6.9c0-2.4-0.1-4.8,0.1-7.2c0.1-2.3-0.3-4.6,0.4-6.7
		c0.7-0.2,1,0.1,1,0.6c0.1,1.5,0.1,3,0.1,4.5c0,5.9-0.2,11.7,0.1,17.6c0.3,6,0.5,11.9,0.4,17.9c-0.1,6.1-0.4,12.2-0.4,18.3
		c-0.1,5.5-0.3,11,0.4,16.5c0.2,1.5,0.4,2.9-0.2,4.4c-0.2,0.6-0.1,1.4,0,2c0.3,3.1,0.6,6.2,0.9,9.3c0.1,1,0.3,2.1-0.4,2.9
		c-0.6,0.1-0.9-0.2-1-0.7c-0.7-3.5-0.9-7.1-0.8-10.6c0-3.3-0.1-6.7-0.5-10c-0.6-5.7-0.6-11.5-0.2-17.2c0.2-4.1,0.2-8.3,0.3-12.4
		c0-0.4-0.1-0.9-0.2-1.5c-0.7-0.1-1.3-0.3-2-0.3c-4,0.1-8,0.2-12.1,0.4c-7.8,0.4-15.6,0.9-23.4,0.8c-5.1-0.1-10.1-0.4-15.2-0.6
		c-2.9-0.1-5.7,0-8.6,0c-1.3,0-2.5,0.2-3.7,0.6c-0.8,0.3-1.7-0.2-1.9-1c-0.3-0.9-0.6-1.8-0.6-2.7c0-2.1,0-4.1,0.2-6.2
		c0.2-2,1.1-3,3.1-2.9c7,0.1,14-0.7,21-0.7c3.8,0,7.6,0.3,11.4,0.4c0.8,0,1.6-0.1,2.4-0.1c0.1-0.6,0.2-1,0.2-1.5
		c-0.1-7.5-0.1-14.9-0.2-22.4c0-4.7-0.1-9.4,0-14.1c0-1.6-0.4-2.8-1.3-4.2c-6.2-9.8-12.3-19.7-18.4-29.6c-0.6-1-1.5-2.1-1.4-3.1
		c0.1-2.3-0.8-4.5-0.4-6.8c0.4-2,1.4-3.6,3.5-4.3c0.7-0.3,1.5-0.4,2.3-0.6c0.2-0.7-0.4-1-0.8-1.4c-1.3-1.6-2.7-3.1-4-4.7
		c-2.7-3.3-4.9-6.9-6.1-11.1c-0.5-1.7-1.2-3.4-2.3-4.9c-2.1-2.8-3-6.2-3.5-9.6c-0.2-1.5-0.8-2.6-1.6-3.7c-0.9-1.2-1.8-2.4-2.7-3.6
		c-2.6-3.4-5.3-6.6-7.2-10.6c-3.7,1-7.2,0.6-10.6-0.9c-1.5,1.3-3,2.6-4.4,3.9c-1.3,1.3-2.5,2.7-3.9,3.9c-0.9,0.8-1.9,1.7-3,2.2
		c-2.8,1.3-5.5,2.9-8.6,3.4c-0.7,0.1-1.5,0.6-2.1,1.1c-2.1,1.5-4.3,3.1-6.4,4.7c-2.2,1.7-4.5,3.2-7,4.4c-2.7,1.3-5.3,2.6-7.9,3.9
		c-1.2,2.1-2.1,4.2-4.4,5.2c-0.5-1.7,0.9-2.7,1.5-3.9c-1.6-5.4-1.6-5.4-3.5-7.3c-0.6,0.3-1.3,0.6-2.1,1c0.7,1,1.3,1.8,1.7,2.3
		c0.8,0.3,1.5-0.4,1.8,0.6c-0.3,0.4-0.6,0.9-0.9,1.3c-0.1,0.5,0.7,1,0.1,1.6c-1.3-0.6-1.9-1.8-2.6-3c-0.7-1.3-1.6-2.5-2.3-3.8
		c-0.7-1.1-1.3-2.3-2.1-3.7c1.2-0.4,2.1-0.8,3.1-1.1c-0.5,0.7-1.1,1.4-1.7,2.2c0.8,0.9,1.4,1.7,2.1,2.4c1-0.3,1.8-0.6,3-1
		c-1.2-1.4-2-2.7-3.4-3.6c0-1.3-0.9-2-1.5-2.7c-1.1-0.3-1.8,1.3-3,0.3c0.8-0.6,1.5-1.2,2.2-1.7c-0.9-1.8-0.9-1.8-2.7-1.9
		c0.3-0.5,0.6-0.9,1-1.5c-0.5-0.7-1-1.4-1.4-1.9c-0.8-0.2-1.3,0.7-1.8,0c0.3-0.5,0.6-0.9,0.9-1.3c-0.1-1.5-1.4-0.9-2.1-1.3
		c1.1-1.9,0.9-2.1-1.6-2.5c0.3-0.5,0.5-1,0.9-1.5c-0.3-0.5-0.6-1.1-0.9-1.7c-1.2,0.2-2.2,0.4-2.8,1.3c0.1,0.7,0.1,1.6-0.1,2.6
		c-2.2-2.6-3.3-5.4-4.2-8.4c0.1,0,0.2,0,0.3-0.1c0,0,0-0.1,0-0.2c-0.1,0.1-0.2,0.2-0.3,0.4c-4.3-0.2-8.4,0.8-12.4,2.2
		c-1,0.3-1.8,1-2.6,1.6c-3.4,2.6-6.5,5.5-9.1,8.9c-0.4,0.6-1.1,1.1-1.1,1.7c-0.1,1.9-1.5,3-2.2,4.5c-0.9,1.9-1.8,3.7-2.5,5.7
		c-0.7,1.8-1.1,3.7-1.7,5.6c1,1,2,1.9,3,2.8c1,1,2,1.9,2.9,3c0.8,1,1.9,2,1.5,3.8c-1.5-0.6-2.1-1.9-3.1-2.8c-1.1-1-2.1-2.1-3.2-3.2
		c-1-1-1.9-1.9-3.1-3.1c-0.5,2.3-1.9,3.7-3.4,4.9c-2.3,1.9-4.7,3.7-7.1,5.5c-1.9,1.5-3.9,2.8-5.8,4.4c-1.8,1.5-3.8,3-4.5,5.5
		c-0.2,0.6-0.8,1.1-1.3,1.6c-0.9,0.8-1.8,1.5-2.7,2.2c-2.6,2.1-5.3,4.1-7.9,6.1c-1.6,1.3-3.2,2.6-4.9,4.1c-0.5,0.9-0.3,2,0.2,3.1
		c1.8,4,3.7,7.9,6.4,11.4c0.4,0.5,1,0.8,1.6,1.3l-0.1-0.1c0.1,0.3,0.1,0.7,0.3,1c4.1,5.4,8.3,10.7,13.2,15.4c2.4,2.3,5.1,4.3,8,5.8
		c2.4-0.7,4.3-2.1,6.1-3.4c3.5-2.5,7.1-5,11-7.1c0.7-0.4,1.4-0.8,2-1.3c2-1.5,4.2-2.8,6.5-3.8c1.9-0.8,3.5-2.1,4.8-3.7
		c1.6-1.9,3.5-3.7,5.4-5.3c1.8-1.6,3.9-2.8,5.8-4.3c1.8-1.3,3.6-2.5,5.2-3.9c2.6-2.2,4.7-4.7,5.1-8.3c0.1-0.9,0.5-1.8,0.8-2.6
		c0.1-0.2,0.3-0.2,0.5-0.3l-0.1-0.1c-0.2,1-0.4,2-0.6,3c-0.1,0.5-0.4,1.1,0.4,1.5c0.4-0.5,0.9-1,1.3-1.5c0.6-0.9,1.3-1.9,1.8-2.9
		c1.1-2.6,2.2-5.3,3-8c1.1-3.7,2.6-7.3,3.3-11.2c0.1-0.4,0.3-0.9,0.6-1.2c0.3-0.3,0.8-0.3,1.2-0.4c0.1,0.7,0.3,1.4,0.2,2
		c-0.3,1.7-0.7,3.4-1.2,5c-0.8,2.7-1.7,5.5-2.6,8.2c-1.6,4.6-3.8,8.7-7,12.5c-3.6,4.3-7.8,7.7-12.5,10.7c-3,1.9-6,3.9-8.5,6.5
		c-0.6,0.6-1.4,1.4-1.6,2.2c-0.3,1.3-1.1,2-2.1,2.6c-0.6,0.4-1.2,0.7-1.8,1c-6.8,3.2-12.9,7.4-19.3,11.2c-2.7,1.6-5.3,3.1-7.8,4.6
		c-1.7,0.1-2.8-0.8-4-1.5c-4.4-2.8-8-6.6-11.3-10.5c-0.6-0.7-1.1-1.5-1.8-2.1c-0.4-0.3-1-0.4-1.5-0.6c-0.1-0.6-0.1-1.2-0.4-1.6
		c-0.8-1.1-1.6-2.2-2.5-3.3c-0.8-1.1-1.7-2.1-2.4-3.1c-1.6,0.3-2.4,2.1-4.2,1.5c0.3-1.9,2.2-1.9,3.1-3c-0.1-0.3-0.2-0.6-0.4-0.9
		c-2.1-3.3-3.9-6.8-5.1-10.5c-0.1-0.4-0.5-0.7-0.6-0.9c-3.1,1.4-6.1,2.6-9,3.9c-1.4,0.6-2.8,1.1-4.2,1.5c-3,0.9-6.1,1.4-8.7,3.1
		c-2.3,1.5-4.8,2.7-7.3,3.8c-2.5,1.1-4.6,2.6-6.5,4.5c-2.4,2.3-4.4,5-6.1,7.9c-1.3,2.2-2.5,4.4-3.7,6.6c-1.6,2.8-3.1,5.6-6.1,7.2
		c-3.6,3.8-8,6.9-11,11.4c-0.3,0.5-0.8,0.8-1.1,1.3c-0.8,1-1.6,1.9-2.6,3.1c-1.4,0.1-2.6,1.2-3.7,2.3c-1.2,1.2-2.5,2.3-3.8,3.5
		c-0.9,0.8-1.7,1.5-2.6,2.3c0,1.1,0,2.1,0,3.2c-0.1,2.3,1,4,2.7,5.3c0.8,0.6,1.7,1.1,2.6,1.7c1.4,0.9,2.9,1.8,4.5,2.9
		c1.1-0.6,2.5-1.4,3.7-2.1c1.8-4.1,4.1-7.2,7.6-10.4c1-0.9,2.1-1.8,3-2.9c1.7-2.1,3.7-3.8,5.9-5.2c3.1-1.9,6.4-3.7,9.5-5.6
		c2.1-1.2,4.1-2.5,6-3.9c6.1-4.4,12.1-9.2,18.6-13.1c2.7-1.6,5.7-2.3,8.4-3.8c0.3-0.2,0.7-0.1,1-0.2c2.5-0.5,4.9-1.1,7.4-1.7
		c1.2-0.3,2.4-0.8,3.4-1.6C349.8,184.5,351.4,183.5,353,182.5z M517.9,140.4c0.2,0.2,0.5,0.5,0.7,0.7c0,0.4,0.2,0.7,0.7,0.7
		c-0.1,0.9,0.5,1.5,1,2.1c1.6,1.7,3.2,3.3,4.7,5c1.1,1.2,2.3,2.4,2.9,3.8c1.4,2.9,3.3,5.2,6.1,6.7c0.4,0.2,1.1,0.5,0.9,1.2l0.1-0.1
		c-0.6,0.1-1.1-0.9-2-0.2c0.7,1.3,1.4,2.6,2.2,3.8c0.6,0.9,1.3,1.6,1.9,2.4c0.9,1.1,1.7,2.1,2.7,3.1c2.3,2.3,5,3.5,8.3,2.7
		c1.1-0.3,2.3-0.3,3.4-0.4c3.7-0.3,7.3-0.3,10.9-1.7c0.9-0.3,2-0.2,3-0.3c-0.7,1.6-2.2,1.9-3.6,2.3c-2.6,0.9-5.4,1.2-8.2,1.1
		c-1.4,0-2.7,0-4,0.7c-1.1,0.6-2.4,0.9-3.7,0.6c-4-0.9-7.6-2.6-10.2-5.9c-0.3-0.4-0.7-0.9-0.6-1.2c0.4-1.4-0.6-2.1-1.2-3
		c-0.7-0.9-1.5-1.8-2-2.8c-2-3.6-4.6-6.6-7.2-9.7c-0.5-0.6-1.1-1.1-1.6-1.6c-0.9,0.3-1.7,0.6-2.5,0.8c-1.5,0.4-2.4,1.5-2.5,2.9
		c-0.2,2.7-0.3,5.5,1.3,8c2.7,4.4,5.4,8.8,8.2,13.2c0.3,0.4,0.7,0.8,1,1.2c0.9-0.6,0.6-1.4,0.7-2c0.1-0.6,0-1.2,0.1-1.7
		c0.1-0.6-0.2-1.4,0.8-1.9c0.4,2.8-0.1,5.5-0.2,8.1c3.5,5.5,7.1,11,10.9,16.3c2.5,3.5,5.6,4.6,9.8,4.1c0.2-1.5,0.3-2.9,0.5-4.3
		c0.1-1.3,0.2-2.5,0.4-3.8c0.2-1.3-0.2-2.7,1-4c0.6,2.3-0.1,4.3-0.3,6.3c-0.2,2-0.3,4.1-0.5,6.3c0.6,0.2,1.1,0.5,1.7,0.6
		c3.6,0.6,7.2,1.3,10.9,1.7c10,1.1,20,0.5,29.9-0.1c0.6,0,1.1-0.2,1.7-0.2c4.4-0.5,8.5-1.9,12.7-3c0.6-0.2,1.2-0.5,1.8-0.7
		c0.5-2.3,1.1-4.4,1.4-6.5c0.3-2.3,0.2-4.6,0.1-6.9c0-0.8-0.5-1.5-0.9-2.4c-1.6-0.3-2.8-1.4-4-2.5c-2-1.8-4.2-3.6-6.3-5.3
		c-3.6-2.8-7.4-5.4-11-8.3c-6.7-5.5-14.1-9.9-21.5-14.3c-0.6-0.3-1.2-0.7-1.9-0.8c-0.9-0.1-1.8-0.1-2.8-0.1c-1.3,0-2.7-0.2-4.1,0.2
		c1.6,1.8,4.3,1.2,5.9,3c-0.4,0.6-0.8,0.9-1.5,0.7c-2.3-0.5-4.4-1.4-6.3-2.7c-1.2-0.8-2.4-1.4-3.8-1.4c-1.6-0.1-3.2-0.5-4.5-1.4
		c-1-0.7-2.1-0.8-3.3-0.7c-0.9,0.1-1.8,0.2-2.7,0.4c-0.2,0-0.3,0.3-0.5,0.5c0.2,0.3,0.4,0.7,0.5,0.9c1.5,0.1,2.7,0.3,3.9,0.4
		c0.5,0,0.9,0,1.4,0.2c0.5,0.2,1.1,0.3,1.5,0.7c1.2,1.2,2.8,1.5,4.4,1.9c1.7,0.4,3.3,1,4.7,2c1.3,0.9,2.8,0.8,4.3,1
		c1.3,0.2,1.9-0.9,3-1.3c0.2,0.5,0.5,0.9,0.4,1.1c-0.3,0.8-0.6,1.6-1.1,2.5c0.5,0.3,1.1,0.8,1.7,1c0.7,0.3,1.5,0.4,2.3,0.6
		c1.1,0.4,2.1,0.8,3.2,1.2c2.2,0.8,4.3,1.5,6.5,2.4c1.8,0.7,3.6,1.6,5.3,2.4c0.3,0.1,0.7,0.3,0.9,0.5c0.2,0.5,0.4,1.1,0.4,1.6
		c0,0.3-0.4,0.7-0.8,1.2c-0.4-0.8-0.6-1.2-0.8-1.5c-1.6-0.7-3.1-1.4-4.5-2c-0.7-0.3-1.4-0.9-2.2-0.7c-0.2-0.8-0.9-0.7-1.4-0.7
		c-0.5-0.7-1.3-0.6-2.1-0.7c-1.4-0.9-4.7-2.1-6.3-2.3c-1.1-0.1-2.2-0.4-3.4-0.5c-1.4-0.1-1.1-2-2.7-2.3c-2.8,1.2-6.2,1.2-9.3,2.6
		c-1.6,0.7-3.3,1-5.1,0.2c-0.5-0.9-1-1.7-1.4-2.7c-2.8-6.4-5.6-12.8-8.4-19.3c-0.3-0.7-0.6-1.5-0.7-2.3c-0.7-5.3-2.5-10.2-3.8-15.4
		c-0.1-0.5-0.3-1.1-0.6-1.6c-1.7-2.4-3.4-4.9-5.3-7.2c-1.3-1.6-2.1-3.2-2.2-5.3c-0.1-1.4-0.4-2.7-0.6-4.1c-0.9-4.6-2.8-8.7-5-12.8
		c-0.6-1.1-1.1-2.3-1.6-3.4c-0.4-1.2-0.6-2.5-1.1-3.6c-0.8-1.8-0.8-3.5-0.2-5.3c1.3-4.1,1.9-8.3,1.8-12.5c0-5-1.4-9.5-4.5-13.5
		c-1.1-1.3-2.3-2.5-3.5-3.9c0.5-0.2,1-0.4,1.5-0.6c-0.8-1.6-1-1.8-1.9-2.2c-2-0.9-4-0.9-6.1-0.5c-6,1.2-11.7,3.5-17.2,6
		c-2.2,1-4.1,2.5-5.9,4.2c-2.3,2.3-4.1,5-4.8,8.2c-1.2,5.8-0.5,11.4,2,16.8c0.2,0.5,0.6,1,0.7,1.5c0.4,2.1,1.7,3.8,2.6,5.6
		c0.4,0.7,1,1.2,2,1.1c0.3,0,0.8-0.1,0.9,0.1c1.3,1.5,3.2,1.1,4.8,1.5c0.5,0.1,1.2,0.1,1.5-0.7c-0.5-1.7-1.1-3.6-1.5-5.5
		c-0.4-1.9-0.6-3.8-0.9-5.7c-1-0.2-1.5,0.6-2.1,1c-1.3,0.7-2.7,1.3-4.2,1.3c-0.6,0-1.1-0.1-1.3-1c3.3-0.5,5.9-2.1,8.5-4.4
		c-0.2-1.9-0.3-3.9-0.7-6c-0.1-0.5,0.2-0.8,0.9-0.6c0.2,0.8,0.6,1.7,0.7,2.6c0.3,2.2,0.6,4.4,0.5,6.5c-0.2,4,0.6,7.8,2,11.5
		c0.5,1.3,0.9,2.6,1.3,3.9c1.4,3.9,3.1,7.6,5.8,10.8c1,1.2,1.9,2.6,2.9,3.8c2.6,3.3,4.4,6.9,4.9,11.2c0.1,0.8,0.5,1.5,0.9,2.2
		c0.5,1,1.1,2,1.6,2.9c1.9,0.7,3.5,1.6,4.7,3.2c-1,1.2-2-0.5-3,0.2c0.1,0.4,0.1,0.9,0.3,1.3c0.6,1.6,1.4,3.2,1.9,4.8
		c0.6,2,1.7,3.7,3.2,5.2C517.4,139.9,517.6,140.2,517.9,140.4z M566.8,30.1c-0.1-0.1-0.1-0.7-0.4-0.1
		C566.6,29.9,566.7,30,566.8,30.1c0,0.2,0,0.5,0,0.8c0,0.1,0.1,0.2,0.2,0.2c0.1-0.1,0.4-0.4,0.4-0.4C567.2,30.4,567,30.2,566.8,30.1
		z M566.1,39c0.1,0.9,0.8,0.8,1.4,0.7c1.1,1.2,2.3,0.9,3.6,0.2c-1.2-0.1-2.4-0.1-3.7-0.2C567.3,39,566.7,39,566.1,39
		c-0.6-1.1-1.7-1.3-2.8-1.3c-1.1-1-2.4-1.7-3.7-2.3c-0.4,0.7-0.9,1-1.5,0.6c-0.9-0.7-1.7-1.5-2.8-2.4c-1.7,1.1-3.6,0.4-5.5,0.4
		c-2.8,0-5.5-0.1-8.2,0.3c-2.5,0.3-5,1.2-5.8,4.1c0,0.1-0.3,0.2-0.4,0.2c-0.8-0.9-0.9-1-2.3-1.4c0.6-1.8,1.2-3.6,1.8-5.5
		c-0.5-0.8-1-1.6-1.6-2.6c-0.1,1.6-0.2,2.8-0.2,3.8c-0.8,0.2-1.5,0.2-2,0.5c-0.4,0.3-0.4,1-0.1,1.6c0.2,0.3,0.3,0.6,0.4,0.9
		c0.1,0.7-0.8,1.3-1.4,0.9c-0.6-0.4-1.2-1-1.7-1.5c0.3-0.7,0.5-1.2,0.7-1.8c0.3-0.2,0.5-0.4,0.8-0.6c0.6-0.3,1.2-0.5,1.8-0.9
		c0.8-0.6,1-1.4,0.3-2.3c-1.8,0.5-2,1.9-2,3.3c-0.3,0.2-0.5,0.4-0.8,0.6c-0.2-0.3-0.5-0.5-0.5-0.8c0.1-0.6,0.4-1.1,0.4-1.6
		c0.1-0.5-0.2-0.9-0.8-0.8c-0.3,0.4-0.6,0.9-1.1,1.6c0-1-0.1-1.8-0.1-2.6c2.1,0,4.1-0.7,6.4-2.2c-2.2,0.2-3.7,0.2-5.2,0.8
		c-0.7,0.3-1.1,0.7-1.1,1.5c-0.2,0.2-0.7,0.4-0.7,0.6c0,2.3-0.1,4.6,0.1,6.9c0.1,1.1,0.6,2.2,1.9,2.6c0.1,0,0,0.4,0,0.6
		c-0.6,0.6-1.3,0.5-1.8-0.1c-0.5-0.6-0.8-1.4-1-2.1c-0.3-0.7-0.5-1.5-0.7-2.1c-3-0.2-5.7,1.7-8.5,0.3c-1,0.5-1.8,0.9-2.6,1.4
		c-2,1.2-4.1,1.4-6.3,1c-0.9-0.2-1.8-0.4-2.7-0.6c-0.5-0.1-1.1-0.1-2.4-0.1c1.3,0.7,2,1.1,2.7,1.5c1.4,0.7,2.9,1.4,4.3,2.2
		c2.3,1.3,4.4,3,5.6,5.5c1,2.1,1.9,4.2,2.8,6.3c0.4,0.9,0.9,2,0.8,3c-0.3,2,0.8,3.5,1.4,5.3c3.1-0.2,5.9-1.2,8.9-1.8
		c1.7,1.3,3.3,2.7,5,4.1c0.8,0.6,1.6,1.2,2.5,1.8c1.1,0.7,2.2,0.5,3.1-0.4c0.3-0.3,0.6-0.7,0.8-1.1c0.6-1.2,1.4-2.1,2.8-2.2
		c0.3,0,0.6-0.3,0.9-0.5c0.6-0.4,0.6-1.4,0-1.8c-0.4-0.2-0.9-0.2-1.3-0.5c-0.5-0.3-0.5-0.7,0.2-1.1c0.5,0.3,1.1,0.6,1.7,0.8
		c2,0.9,2.2,0.8,3.6-1.3c-0.4-0.5-0.9-1-1.2-1.6c-0.3-0.7-0.2-1.4,0.6-1.6c0.9,0.9,1.6,1.9,2.5,2.7c0.6,0.6,1.7,0.4,2.1-0.4
		c0.4-0.7,0.7-1.5,0.9-2.2c0.4-1.3,0.7-2.7,1.1-4c0.4-1.5,1.2-2.7,3-2.9c1.1-0.1,1.7-0.9,2.3-1.9c1-1.9,2-3.8,3.2-5.7
		c0.4-0.6,0.3-1,0.3-1.5c0-0.2,0.3-0.5,0.5-0.7C563.8,39.1,564.9,39.2,566.1,39z M263.2,220.5c0.2,0,0.5,0.1,0.6,0
		c0.5-0.8,0.1-1.5-0.6-1.9c-0.2-0.1-0.7,0.1-1.1,0.2C262.5,219.4,262.9,220,263.2,220.5c-0.3,0.2-0.7,0.4-1.1,0.5
		c-0.1,0-0.1,0.3-0.1,0.3c0.2,0.1,0.4,0.2,0.5,0.2C262.7,221.1,263,220.8,263.2,220.5z M546,156.4c0.3-0.3,0.6-0.7,1-0.7
		c1.3-0.3,2.4,0.3,3.6,0.8c0.7,0.3,1.4,0.8,2.4,0.1c-0.2-0.4-0.4-1.3-0.5-1.3c-1.3,0.3-1.7-0.7-2.4-1.4c-0.4-0.4-0.9-0.7-1.4-0.9
		c-1.4-0.3-2.9-0.6-4.8-0.6c0.9,1.6,1.2,3,2.3,4c0.7,1.8,1.3,3.6,2.6,5.3c1.4-0.3,2.7-0.6,4-1c1.4-0.4,2.8-1,4.3-0.9
		c1,0,1.9-0.4,2.8-1.3c-1.5-1.4-3.1-2.2-4.9-2.7c-0.3,0.9-0.6,1.7-0.9,2.3c-1.6,0.7-2.8,0.2-4.1-0.3
		C548.6,157.2,547.3,156.9,546,156.4z M513.8,47.9c0,3,0.1,3.1,2.7,5.1C515.4,51.1,514.5,49.5,513.8,47.9c-0.7-2.3-2.5-3.5-4.4-4.6
		c-1.5-0.9-3.1-1.5-4.6-2.3c-1-0.5-2.2-0.9-3-1.6c-0.9-0.8-1.6-1.9-2.6-3.1c-2.5-0.3-5.3-0.3-7.9-0.9c-3.2-0.6-6,0.2-8.5,1.8
		c-3,1.9-5.9,4-8.7,6.1c-1.4,1.1-2.7,2-4.4,2.7c-3.9,1.7-7.1,4.1-9.8,7.4c-0.7,0.9-1.5,1.7-2.2,2.5c-0.6-0.1-1-0.2-1.8-0.3
		c-0.3,0.3-0.6,0.9-1,1.3c-3.4,3.6-6.2,7.7-8.5,12.1c-2.3,4.4-5.5,7.9-9.5,10.7c-2.2,1.6-4.4,3.3-6.3,5.4c-1,1.1-2.1,2-3.6,2.6
		c-1.3,0.6-2.6,1.5-3.6,2.6c-1,1-2,1.8-3.6,2.2c0.6,1.2,1,2.3,1.6,3.2c1.6,2.7,3.2,5.3,4.8,7.9c2.8,4.6,5.6,9.2,8.5,13.8
		c1.4,2.2,2.8,4.4,4.7,6.5c1.9-0.5,3.6-1,5.2-2c5.3-3.5,10.6-6.9,15.9-10.4c1-0.6,1.9-1.4,3-1.6c3.2-0.8,5.9-2.4,8.8-3.8
		c0.6-0.3,1.1-0.8,1.5-1.3c2.7-3.4,6.5-5.5,9.6-8.2c0.9,0.2,1.7,0.4,2.5,0.6c1.1,0.3,2.2,0.6,3.4,0.7c1.3,0.2,2.7,0.1,4-0.9
		c-0.6-1.6-1.1-3.1-1.7-4.6c-0.7-0.1-1.3-0.2-1.8-0.2c-2.2,0-4.3-0.6-6.4-1.2c-1.5-0.4-2.7-1.3-3.5-2.6c-0.9-1.6-1.9-3.1-2.8-4.6
		c-0.7-0.1-1.2-0.3-1.7-0.4c0.5-0.6,0.8-1.1,1.1-1.5c-1.3-3.4-2.3-6.9-2.5-10.4c-0.5-7.8,2.2-14.2,8.8-18.7c1.4-1,2.9-1.9,4.5-2.6
		c4.3-1.9,8.7-3.7,13.2-4.8c1.7-0.4,3.4-0.7,5.1-0.9c2.8-0.3,5.2,0.5,7.2,2.6C513,47.5,513.4,47.7,513.8,47.9z M260.4,221.6
		c-1,0.9-1.5,1.4-2,1.9c-0.5,0.4-1,1-1.6,1.2c-1.9,0.7-3.6,1.6-5.2,2.6c-0.8,0.5-1.7,0.8-2.6,0.9c-1.6,0.3-3.2,0.4-4.8,0.6
		c-1.9,0.2-2.4,0.7-2.4,2.6c0,2.2-0.2,4.4,0.8,6.4c0.2,0.4,0.3,0.9,0.1,1.3c-0.5,1,0,1.8,0.4,2.6c1.4,2.5,3,4.9,5,7
		c2.6,2.7,4.6,5.6,6.2,9c2,4.3,4.6,8.2,6,12.7c0.2,0.7,0.9,1.3,1.6,1.7c0.8,0.5,1.7,0.7,2.6,0.9c3.6,0.8,7.3,0.8,11,0.5
		c2.2-0.2,4.5-0.7,6.2-2.6c0.6-0.7,1.5-1,2.3-1.5c0.5-0.4,0.9-0.9,1.5-1.4c-0.5-0.7-0.9-1.3-1.3-1.8c-0.4-0.5-1.2-0.9-1.4-1.5
		c-0.9-2.4-2.8-2.3-4.8-2.1c-0.5,0-0.9,0.2-1.4,0.2c-0.4,0-0.7-0.2-1.7-0.5c1.3-0.6,2.1-1,3.1-1.5c-0.6-0.3-1.2-0.5-1.7-0.7
		c-0.5-0.2-1.2-0.1-1.2-1.1c0.5-0.3,1.1-0.5,1.6-0.9c0.5-0.4,0.6-0.9-0.1-1.5c-0.9,0.2-1.9,0.4-2.9,0.6c-0.8,0.1-1.5-0.3-1.6-1
		c-0.1-0.6,0.2-1.1,0.8-1.4c0.5-0.3,1.1-0.4,1.6-0.6c0.9-0.3,1.7-0.5,2.5-0.8c0.4-0.9,1.1-1.5,0.3-2.4c-1.4,0.5-2.8,1-4.2,1.4
		c-0.8,0.2-1.7-0.4-1.9-1.1c-0.2-0.8,0.1-1.4,0.7-1.8c1.3-0.9,2.7-1.3,4.2-1.4c0.9-0.1,1.8-0.1,2.7-0.3c0.8-0.2,1.1-0.7,0.7-1.5
		c-0.2,0-0.5-0.1-0.7-0.1c-2.5,1.1-5.1,1.2-7.7,1.8c-0.6,0.1-1.2,0.2-1.7,0.1c-0.4-0.1-0.8-0.4-1-0.8c-0.3-0.6,0.1-1.1,0.6-1.4
		c0.5-0.3,1-0.5,1.6-0.6c1.4-0.3,2.7-0.5,4.1-0.6c2-0.2,3.8-0.7,5.7-1.5c0.5-2.6,0.7-5.1-1.2-7.7c-3.4,1.7-6.6,3.7-10.1,4.8
		c-4.2-1.7-7.9-3.7-9.6-7.7C259.5,228.9,261,225.7,260.4,221.6z M548.8,239.1c-0.3-2.2-0.7-4-0.7-5.8c0.1-9.7-0.3-19.3-0.6-29
		c0-0.8-0.2-1.5-0.3-2.4c-2.1-0.4-3.6-2-5.8-2.4c-0.4,1.8,0,3.4-0.7,5c-0.2-1.7-0.2-3.4-0.2-5.2c0-0.8-0.4-1.3-1.2-1.4
		c-0.7,3-0.4,20.2,0.6,39.2c0.4,0.2,0.8,0.9,0.9,1.2c-2.8,0.3-5.7,0.6-8.6,0.8c-2.1,0.2-4.1,0.2-6.2,0.3c-0.8,0-1.6-0.2-2.3-0.3
		c0.7-0.4,1.5-0.5,2.2-0.6c0.8-0.1,1.6-0.1,2.4-0.2c0.7-0.1,1.4-0.2,2.1-0.3c0.8-0.1,1.6-0.1,2.4-0.2c0.6-0.1,1.3-0.2,1.9-0.3
		c-7-0.4-14-0.7-21,0c-2.4,0.2-4.8,0.5-7.2,0c-1.2-0.3-2.5,0-3.8,0.1c-1,0.1-1.6,0.6-1.5,1.1c0.2,0.7,0.8,0.7,1.4,0.7
		c1.7,0,3.4,0,5.1,0c0,0.1,0,0.3,0,0.4c-2,0.1-4,0.1-6,0.2c-0.9,1.9-0.8,3.8-0.6,5.8c1.4,0.5,2.6,0.2,3.9,0.3
		c6.9,0.1,13.8,0.1,20.7,0.4c7.8,0.4,15.6,0.4,23.4-0.1c5.4-0.3,10.8-0.5,16.2-0.3c0.5,0,1.1,0,1.6,0c0.6-3.4,0.5-6.4-0.2-9.5
		c-5.5,0-11.1,0-16.6,0c-0.3,0.7,0,1.1,0.5,1.1c1.6,0.1,3.2,0,4.8,0c0.9,0,1.8-0.3,2.7,0.5C555.2,238.9,552.1,237.9,548.8,239.1z
		 M525.5,98.9c-0.1,1.2-0.3,2-0.1,2.8c0.4,2.8,1,5.6,1.5,8.5c0.1,0.8,0.6,1.5,1.1,2.1c1.4,1.8,2.7,3.7,4.1,5.5
		c0.2,0.3,0.3,0.9,1.1,0.5c-0.3-1.5,0.4-3,0-4.6c-1.1-4.6-2.7-9-5.5-12.9c-0.5-0.7-1.2-1.5-1.5-2.3c-1.2-3.3-2.4-6.7-3.5-10.1
		c-1-3.2-1.7-6.4-2.5-9.6c-0.2-0.7-0.4-1.4-0.7-2.2c-0.3,0.3-0.6,0.4-0.7,0.5c-0.4,1.4-0.8,2.9-1.1,4.3c-0.1,0.7,0,1.6,0.3,2.3
		c1.6,3.8,2.5,7.8,4.6,11.5C523.5,96.5,524.1,98,525.5,98.9z M279.7,259.9c0.7,0.4,1.2,0.7,1.8,1c1.1,0.6,2,0.2,2.8-0.5
		c0.7-0.7,0.8-1.6,0.5-2.5c-0.8-2.5-2.5-4-4.9-4.7c-0.2,0.2-0.5,0.3-0.5,0.5C278.8,255.8,280.1,257.8,279.7,259.9z M261.3,229.6
		c0,0.9-0.1,1.7,0.1,2.2c0.9,1.7,2,3.4,4,4.1c1.5,0.6,3,1.1,4.5,1.6c0.2,0.1,0.5-0.2,1-0.5c-1.9-1.1-3.7-1.8-5.2-3
		C264.2,232.9,263,231.4,261.3,229.6z M250.2,225.5c1.6-0.8,2.7-1.3,3.8-1.9c1.1-0.6,2.6-0.6,3.4-2.4c-1.4,0.5-2.4,1.1-3.5,1.3
		c-1.2,0.2-2.4,0.2-3.7,0.3C250.2,223.7,250.2,224.3,250.2,225.5z M419.4,95.9c-0.7-1.1-1.2-0.7-1.7-0.5c-0.6,0.2-1.1,0.1-1.4-0.4
		c-0.1-0.1-0.3-0.1-0.6-0.2c0.1,1,0.2,1.8,1.3,2.3C417.7,96.8,418.5,96.4,419.4,95.9z M545.7,18.2c0.3-2.6,0.3-2.6-1.3-2.3
		C544.7,16.5,545,17,545.7,18.2z M558.3,32.2c1,0.7,1.3,1.1,1.7,1.3c0.3,0.2,0.6,0.8,1.1,0.2C560.6,32.8,559.9,32.5,558.3,32.2z
		 M552.7,24.6c0,0.5,0,0.8,0.1,1.1c0.1,0.4,0.2,0.8,0.4,1.7C553.5,25.6,553.5,25.6,552.7,24.6z M548.8,31.6c1.2,0.5,1.2,0.5,2.1,0
		C550.1,31.6,549.4,31.6,548.8,31.6z M547.7,21.7c0.3-0.4,0.6-0.7,0.7-1.1c0-0.1-0.5-0.6-0.5-0.6c-0.4,0.2-0.7,0.5-1,0.7
		C547.1,21.1,547.3,21.3,547.7,21.7z M567,31.9c-0.3,0.4-0.6,0.6-0.7,0.9c0,0.1,0.4,0.5,0.6,0.6c0.5,0.1,0.9-0.2,0.9-0.7
		C567.7,32.4,567.3,32.2,567,31.9z M531.9,18.7c0.2-0.1,0.5-0.2,0.8-0.4c0.1,0,0.1-0.3,0.1-0.3c-0.3-0.1-0.5-0.3-0.8-0.3
		c-0.2,0-0.4,0.4-0.6,0.6C531.5,18.4,531.7,18.6,531.9,18.7z M550.4,11.8c-0.1-0.1-0.3-0.3-0.4-0.4c0,0-0.2,0.1-0.2,0.1
		c0.1,0.1,0.2,0.3,0.4,0.4C550.2,11.9,550.3,11.8,550.4,11.8z M415.5,93c-0.1-0.2-0.1-0.5-0.3-0.5c-0.1-0.1-0.4,0.1-0.6,0.1
		c0.2,0.2,0.4,0.4,0.7,0.7C415.4,93.2,415.4,93.1,415.5,93z M417,92.4c0,0.1,0.1,0.2,0.1,0.2c0.2,0,0.4,0,0.6,0
		c0-0.1-0.1-0.3-0.1-0.3C417.4,92.3,417.2,92.4,417,92.4z M555.9,29.6c0.1,0,0.2,0,0.2,0c0-0.3,0.1-0.6,0.1-0.9
		c0-0.1-0.1-0.2-0.1-0.3C556,28.9,556,29.2,555.9,29.6z M529.2,19.4c-0.1-0.1-0.2-0.2-0.2-0.2c-0.2,0-0.4,0.1-0.6,0.2
		c0.1,0.1,0.2,0.2,0.2,0.2C528.8,19.6,529,19.5,529.2,19.4z M563.1,24.6c0-0.1,0-0.2,0.1-0.3c-0.1,0-0.3,0.1-0.4,0.1
		c0,0.1,0.1,0.2,0.1,0.3C562.9,24.7,563,24.6,563.1,24.6z M525.8,24.9c0-0.1-0.1-0.2-0.2-0.2c-0.1,0-0.2,0-0.3,0
		c0.1,0.1,0.1,0.2,0.2,0.3C525.6,25.1,525.7,25,525.8,24.9z M541.1,13.4c0.2-0.1,0.3-0.1,0.5-0.2c-0.1-0.1-0.1-0.2-0.2-0.2
		c-0.2,0-0.3,0.1-0.5,0.2C541,13.3,541.1,13.3,541.1,13.4z M538.2,12.5c0.1,0,0.2,0,0.3,0.1c-0.1-0.1-0.1-0.2-0.2-0.2
		C538.3,12.4,538.3,12.4,538.2,12.5z M544.6,11.8c0.1,0.1,0.1,0.2,0.2,0.2c0.2,0,0.3-0.1,0.5-0.2c-0.1-0.1-0.1-0.2-0.2-0.2
		C544.9,11.7,544.8,11.8,544.6,11.8z M533.9,26.4c-0.1,0.2-0.1,0.4-0.1,0.6c0,0.1,0.2,0.1,0.2,0.2c0.1-0.2,0.2-0.3,0.3-0.5
		C534.3,26.6,534.1,26.5,533.9,26.4z M536.7,21.5c-0.1,0.1-0.2,0.1-0.2,0.2c0,0.2,0.1,0.4,0.2,0.5c0.1-0.1,0.2-0.1,0.2-0.2
		C536.9,21.8,536.8,21.7,536.7,21.5z M553.5,31.1l0.3,0.1l0-0.2L553.5,31.1z M545.1,32.5c-0.1-0.1-0.1-0.2-0.2-0.2
		c-0.1,0-0.2,0-0.3,0c0.1,0.1,0.1,0.2,0.2,0.3C544.9,32.6,545,32.5,545.1,32.5z M533.3,23c0.1-0.1,0.2-0.1,0.2-0.2
		c0-0.1-0.1-0.1-0.2-0.2c-0.1,0.1-0.2,0.1-0.2,0.2C533.1,22.8,533.2,22.9,533.3,23z M571.1,33.9l0.2,0.1l0-0.2L571.1,33.9z
		 M525.9,28.3l-0.2-0.1l0,0.2L525.9,28.3z M541.6,27.8c0.1-0.1,0.2-0.1,0.2-0.2c-0.1-0.1-0.1-0.2-0.2-0.2c-0.1,0-0.2,0.1-0.2,0.2
		C541.5,27.7,541.5,27.7,541.6,27.8z M544.4,28.2l-0.1,0.2l0.2,0L544.4,28.2z"/>
	<path d="M467.5,442.6c-0.2,2.9-1.9,5.1-3.2,7.6c-1.1,2-2.3,4-3.5,5.9c-1.4,2.2-2.9,4.4-4.4,6.6c-0.6,0.8-1.3,1.6-2.1,2.3
		c-4.5,3.5-9,7.2-14.5,9.1c-2.7,0.9-5.4,2-8,3.1c-2,0.9-3.9,1.9-5.8,3c-0.6,0.3-1.3,0.8-1.5,1.3c-0.7,1.8-2.3,2.3-3.8,2.6
		c-4.2,0.7-8.2,2.3-12.2,3.6c-3.5,1.1-7,2.3-10.5,3.4c-2.8,0.9-5.7,1.8-8.4,2.6c-1.6-0.5-2.5-1.5-3.5-2.5c-3-3.2-5.4-6.8-7.5-10.7
		c-0.9-1.7-1.8-3.4-2.8-5.2c-1.1,0.6-1.9,1.1-2.8,1.6c-0.9,0.5-1.9,0.9-2.7,1.5c-1.1,0.8-2.2,1.2-3.5,1.2c-3.3,0-6.6,0.5-10,0
		c-1.5-0.2-3.2,0.3-4.7,0.8c-4.9,1.8-9.7,3.6-14.5,5.6c-6.6,2.7-13.1,5.6-20.1,7.2c-1.6,0.4-3.1,0.9-4.6,1.4
		c-0.5,0.2-1.2,0.3-1.6,0.6c-3.3,2.4-7.2,3.4-10.7,5.4c-3.2,1.9-6.1,4-8.3,7.2c1.9,2,1.5,4.6,1.7,7.1c0,0.3-0.1,0.7-0.3,1
		c-1.7,3.1-2.7,6.5-4.5,9.6c1.1,2,3.3,2.7,5.2,4.1c-0.3,0.6-0.5,1.2-0.8,1.9c0.8,4.3,0.7,4.6-3,6.9c-0.5,1.3,0.2,2.4,0.9,3.7
		c-0.4,1.2-0.8,2.4-1.2,3.6c-1.4,0.5-2.6,0.8-3.7,1.3c-0.7,0.3-1.4,0.6-1.9,1.3c-0.9,1.3-2.3,1.5-3.7,1.2c-3.9-1-7.8-2.1-11.6-3.2
		c-2.8-0.9-5-2.7-6.4-5.4c-0.5-0.9-0.7-1.9-0.9-2.9c-0.9-4.6-1.5-9.3-2.7-13.9c-0.8-3.1-2.3-6-3.4-9c-0.8-2.1-1.6-4.3-2.4-6.4
		c-0.9-2.6-0.7-5.2-0.2-7.8c0.3-1.8,0.9-3.6,1.4-5.3c0.5-1.6,1.4-2.3,3-2.2c0.7,0,1.4,0.2,2,0.3c0.6,0.1,1.1,0.2,1.7,0.2
		c0.2,0,0.4-0.1,0.9-0.2c0.4-1,0.8-2.2,1.4-3.3c0.7-1.4,1.8-2,3.1-1.3c2.2,1.1,4.3,0.5,6.4,0.1c1.1-0.2,2.2-0.6,3.3-0.9
		c2.6-0.6,4.4-0.5,7.4,0.3c2.8-1.4,5.8-2.8,8.7-4.4c4.8-2.7,9.5-5.6,14.3-8.3c3.6-2,6.5-4.6,9.3-7.6c1.6-1.8,3.4-3.5,4.9-5.3
		c2.1-2.4,4.7-4,7.6-5.3c2.6-1.2,5.3-2.3,7.9-3.4c0.7-0.3,1.5-0.5,2.3-0.5c5.2-0.3,10.2-1.6,15.3-2.3c2.5-0.3,5-0.8,7.5-1.3
		c0.9-0.2,1.8-0.3,2.7-0.5c2.3-0.5,2.4-0.6,3.9-2.5c2.1-1,3.9-1.9,5.8-2.8c3.5-1.7,7.1-3.3,10.6-4.9c1.6-0.7,3-1.6,4.2-2.9
		c1-1.1,2.3-1.9,3.6-2.6c3-1.5,6-2.8,9.1-4.2c2.4-1.1,4.8-2.2,7.2-3.3c1.1-0.5,2.2-1.1,2.7-2.5c0.3-0.7,1.1-1.3,1.8-1.5
		c1.5-0.5,2.1-1.6,2.8-2.8c1.2-2.1,2.7-4,4-6c0.3-0.5,0.8-0.9,1-1.4c1-2.6,3.1-4.2,5.2-5.9c3.9-3.3,8.5-5.5,13.2-7.3
		c0.7-0.3,1.6-0.4,2.4-0.5c3.4-0.1,6.9-0.2,10.3,0.5c0.6,0.1,1.2,0.4,1.7,0.3c1.9-0.8,3.6-0.1,5.3,0.4c1.6,0.5,3,0.3,4.6-0.5
		c2.1-1.1,4.5-1.7,6.7-2.5c0.5-0.2,1.2-0.3,1.6-0.6c1.6-1.2,3.4-1.9,5.3-2.4c0.2,0,0.4-0.1,0.6-0.2c3.2-1.8,6.4-3.6,9.7-5.5
		c-0.2-1.3-0.4-2.6-0.5-3.9c-0.1-1.2,0-2.5,0-4.2c0.3-0.3,0.9-1,1.6-1.6c5.7-4.3,12-7.3,19.2-7.9c1.7-0.2,3.4-0.4,5.1-0.6
		c4-0.5,8-0.4,12,0.5c2.2,0.5,4.3,0.4,6.4-0.4c3.8-1.5,7.8-1.7,11.9-1.5c1.4,0.1,2.7,0.4,4,0.8c1.1,0.3,2.2,0.8,3.2,1.3
		c2.4,1.3,4.9,0.7,7.4,0.9c1.2-0.7,2.4-1.3,3.6-2.1c1.3-0.9,2.5-2,3.8-2.9c1.2-0.9,2.5-1.7,3.7-2.6c0.6-0.4,1.1-0.8,1.5-1.4
		c2.3-2.7,4.9-5.1,8.1-6.8c0.9-0.5,1.7-1.1,2.5-1.8c2.6-2.4,5.7-3.8,9-5c0.4-0.2,0.9-0.2,1.3-0.4c0.7-0.3,1.4-0.8,2.1-0.9
		c0.7-0.1,1.5,0.2,2.4,0.3c0.2-0.6,0.5-1.2,0.8-1.8c1.5,0.1,2.6,0.9,3.7,1.6c0.3,0.2,0.6,0.5,0.8,0.5c1.4-0.1,1.3,1.1,1.6,1.8
		c3.1,1.2,3.2,1.1,5.3,3.6c1,1.2,2.3,1.8,3.7,2.4c-0.3,0.5-0.6,0.8-1,1.4c0.3,0.4,0.6,0.9,1,1.2c1.1,0.9,1.9,2.1,2.2,3.4
		c0.5,2.3,2,3.8,3.8,5.1c0.4,0.3,0.7,0.6,1.1,0.9c0.4,0.4,0.2,0.9-0.4,1.3c-0.2,0.1-0.4,0.2-0.7,0.4c0.6,0.9,1.1,2,1.9,2.8
		c0.8,0.8,0.4,1.7,0.6,2.6c0.3,1.1,0.3,1.2-0.3,2.6c0.5,0.1,0.9,0.2,1.3,0.3c0.4,0.1,0.9,0.2,1.4,0.4c-0.1,0.5-0.2,1-0.2,1.4
		c0,0.4-0.1,0.9-0.1,1.4c-0.4,0.1-0.8,0.2-1.3,0.3c0,0.1-0.1,0.2-0.1,0.2c0,0.1,0.1,0.2,0.2,0.3c2.5,2.4,2.4,2.6-0.4,4.3
		c-1.1,0.7-2.2,1.1-3.7,1.1c-1.4-1.2-3-2.4-4.6-3.7c-1.3,0.3-2.1,1.3-2.9,2.2c-0.8,0.9-1.5,2-2.4,2.9c-1.1,1.2-2.4,2.2-4.4,1.5
		c-1.1,1.6-2.3,3.3-3.5,5c-0.2,0.3-0.3,0.6-0.5,0.9c-1.5,2.5-1.8,2.6-4.8,1.7c-1,0.5-1.8,1.8-3.3,1.3c-0.1-0.1-0.5,0.1-0.6,0.3
		c-1.2,1.5-2.9,1.8-4.6,1.8c-0.4,0.4-0.7,0.7-1,1.1c-1.3,1.8-4.3,1.9-5.8,0.2c-1.4-1.5-2.7-3.2-4-4.8c-0.4-0.5-0.8-1.1-1.1-1.7
		c-1.2-0.5-2.3-0.3-3.5,0.2c-0.2,0.4-0.5,0.9-0.7,1.4c-0.9,2.3-2.3,4.1-4.8,5c-1.7,0.6-3.2,1.7-4.9,2.6c0.3-0.6,0.5-1.3,1-1.7
		c0.5-0.5,1.1-0.8,1.8-1c5.7-2.6,7.8-12.2,4.2-17c-0.5-0.6-1.1-1.3-1.2-2c-0.6-2.5-2.6-3.6-4.3-5c-0.9,0.5-0.1,1.8-1.4,1.9
		c-0.9-0.9-1.8-1.9-2.9-2.7c-1.1-0.9-2.3-1.6-3.4-2.3c-0.3-0.2-0.6-0.4-0.7-0.7c-0.1-0.5,0-1,0-1.5c-0.6-0.2-1.3-0.5-1.9-0.7
		c-0.6-0.2-1.1,0.2-1.5,0.6l0.1-0.1c-0.7-0.4-1.3-1-2.1-1.2c-0.8-0.2-1.8,0-2.6,0c-0.8-0.5-1.5-1.2-2.3-1.3
		c-2.3-0.2-4.6-0.4-6.8,0.2c-2.4,0.5-4.6,1.2-6.8,2.2c-3,1.4-6.2,2.2-9.6,2.1c-3.9-0.1-7.7,0.9-11.4,2.2c-2.7,0.9-5.4,2-8.1,2.8
		c-2.3,0.7-3.9,2.3-5.8,3.6c-1.4,1-2,2.7-1.8,4.6c0.2,2.2,1.1,3.9,2.9,5.5c0.8-0.2,1.9-0.2,2.6,0.7c0.6,0.9,1.9,1.5,1.5,2.9l0.1-0.1
		c-0.6-0.1-1.2-0.1-1.8-0.2c0,0.4-0.1,0.6,0,0.8c1.8,6,4.8,11.4,8,16.7c0.2,0.3,0.4,0.6,0.6,0.8c3.5,3.9,7,7.9,10.5,11.8
		c2.2,2.5,4.5,4.9,7.5,6.5c0.5,0.3,0.9,0.7,1.4,1c1.6,1.3,3.3,2.5,4.8,3.9c1.5,1.4,3.4,2.2,5,3.5c2.2,1.8,4.7,2.7,7.7,1.5
		c1-0.4,2.3-0.2,3.4-0.2c3.1-0.1,6.2-0.4,9.2-1.3c3.6-1.1,7.3-1.8,11-0.1c0.8,0.4,1.7,0.7,2.5,1c0.8,0.2,1.5,0.4,2.3,0.5
		c0.4,0,0.9-0.1,0.9-0.9c-1.4-0.6-2.8-1.1-4.3-1.7c-1.5-0.6-2.9-1.3-4.4-1.8c-1.5-0.6-3.2-0.2-4.6-1.4c2.4-0.2,5.2,0.3,7,1
		c2.1,0.8,4.1,2.1,6.5,2.1c0.5,0.6,1,1.2,1.6,1.9c0.7-0.3,1.3-0.5,2.7-1c-2-0.4-3.2-0.6-4.4-0.8c0-0.2,0-0.5-0.1-0.6
		c-1.5-1.1-3.1-2-4.9-2.3c-1.8-0.3-3.5-0.9-5.3-1.5c-0.4-0.1-0.7-0.5-1.3-1c3.1-0.4,5.7,1.1,9,1c-2.9-1.4-5.5-2.3-8.1-2.5
		c-3-0.3-3.1-0.3-5-2.7c-2.3,0.5-4.8,0.7-7,1.6c-2.7,1-5.4,1.8-8.3,2.4c-0.5-0.4-1.2-0.9-1.8-1.4c-2.3-2.2-5-4-6.1-7.2
		c-0.1-0.2-0.3-0.4-0.4-0.6c-2.5-3.4-4.5-7.2-6.5-10.9c-0.8-1.5-1.1-3-1.1-4.6c0-3-0.1-6-0.2-8.9c-0.1-3.6-0.7-7.1-2.5-10.3
		l-0.1,0.1c0.7-0.2,1.4-0.1,1.8,0.6c1.3,1.7,2.1,3.6,2.4,5.6c0.3,2,0.6,4.1,0.9,6.1c0.6,0.2,1.2,0.5,1.7,0.5
		c3.2,0.3,6.4,0.4,9.6-0.1c1-0.2,2-0.3,3.1-0.4c0.4,0,0.8,0.2,1.4,0.3c-1.2,1.7-2.8,2-4.3,2.4c-2.9,0.7-5.9,0.8-8.9,0.2
		c-0.8-0.2-1.7-0.7-2.7-0.1c-0.1,1-0.2,2-0.4,3c2,0.9,3.9,1.8,5.7,2.6c1.5,0.7,3,1.1,4.6,1.1c2.5,0,5,0,7.6-0.1
		c6-0.3,11.1-2.6,14.8-7.5c0.5,1.6,0.2,3.2-0.7,4.6c-1.7,2.6-3.5,5.1-5.2,7.7c-0.6,0.9-1.4,1.8-2.2,2.6c2.5,2,5.5,3.1,8.3,4.2
		c0.8,0.3,1.8,0.4,2.7,0.4c2.2,0.1,4.4,0.2,6.5,0.1c2.7-0.2,5,0.5,7.1,2.1c2.2,1.7,4.6,3,6.9,4.5c4.6,3.1,9.1,6.2,13.6,9.4
		c4,2.8,7.9,5.6,11.8,8.4c1,0.7,2,1.5,3,2.3c1.1,0.9,2.1,1.7,3.4,2.2c1.7,0.6,2.9,2,3.5,3.6c0.3,0.9,0.6,2.1,0.3,3
		c-0.7,2-0.5,4.1-0.5,6.1c0,1.1,0,2.3,0,3.4c-0.1,0.9-0.2,1.8-0.4,2.7c-0.5,2.3-2,3.4-4.3,3.8c-3.4,0.6-6.8,1.3-10.1,2.1
		c-4.1,1-8.2,1.3-12.3,1.4c-0.7,0-1.4,0.1-2.2,0.2c-0.1,0.7-0.3,1.3-0.3,2c0,6.6-0.2,13.1,0,19.7c0.1,5.1,0.6,10.1,0.9,15.1
		c0.6,11,1.2,22,1,33.1c-0.1,5-0.1,10.1-0.1,15.1c0,1.7,0.4,3.4,0.6,5.1c0.1,1.2,0.3,2.5,0.4,4c0.7,0.1,1.4,0.3,2.2,0.3
		c18.7,0.6,37.5,0.3,56.2,0c3.1,0,5.8,1,8.4,3.4c-0.2,0.9-0.6,1.9-0.7,2.9c-0.1,1,0,2.1,0.1,3.1c0.1,2.1,0.1,4.1,0.2,6.2
		c0,1,0.1,2.1-0.8,3.1c-0.5,0.1-1.1,0.3-1.8,0.3c-12.5,0.4-25,0.9-37.6,0.6c-10-0.2-20-0.7-30-0.9c-9.8-0.2-19.5-0.1-29.3-0.2
		c-10,0-20,0-30-0.1c-4.5,0-9-0.1-13.4-0.2c-2.3-0.1-4.6-0.4-6.9-0.7c-0.8-0.1-1.5-0.4-2.4-0.6c-1.3-5.2-1.3-10.5-1.3-15.9
		c0.5-0.3,1.2-0.4,1.5-0.8c1.5-1.9,3.6-1.8,5.7-1.8c5.9,0.1,11.7,0.2,17.6,0.4c2.8,0.1,5.5,0.1,8.3,0.3c7.8,0.4,15.6,0.7,23.4,0.5
		c2.4-0.1,4.8-0.2,7.2-0.3c1.7,0,3.4,0,5.2,0c-0.8-4.7-0.6-9.5-0.6-14.3c0-0.9-0.1-1.8-0.2-2.7c-0.8-6.8-0.9-13.5-0.6-20.3
		c0.2-4.5,0.5-8.9,0.2-13.6c-0.7-0.1-1.3-0.4-2-0.4c-4.9,0.1-9.9,0.1-14.8,0.4c-7.4,0.5-14.9,0.5-22.4,0.4c-7,0-14-0.7-21-0.4
		c-1.6,0.1-3.2,0-4.8,0.5c-0.5,0.2-1.1-0.1-1.6-0.2c-0.7-1.6-1.1-3.1-1-4.7c0.1-1.7,0.1-3.5,0.2-5.2c0.2-1.6,1.1-2.5,2.7-2.6
		c1.7-0.1,3.5-0.3,5.2-0.2c2.5,0.2,5-0.2,7.6-0.3c4.8-0.2,9.6-0.2,14.5-0.2c2.6,0,5.3,0.1,8.1,0.2c0-0.6,0.1-1.2,0.1-1.7
		c-0.1-2.1-0.3-4.1-0.3-6.2c0-9.9,0-19.8,0-29.7c0-1.9-0.4-3.5-1.5-5.1c-2.5-3.6-4.8-7.3-7.1-11c-4-6.5-7.9-13-11.8-19.4
		c-0.3-0.5-0.6-0.9-1-1.5c-2.2,0.7-4.6,0.4-6.5,2.1c-0.5,0.5-1.5,0.5-2.3,0.5c-7.8,0.2-15.6,0.1-23.3-1.8c-2.2-0.5-4.3-0.4-6.5,0.1
		c-3.4,0.7-6.7,1.5-9.8,2.3c-1.3,1.2-2.3,2.2-3.4,3.2c-0.5,0.5-1.2,0.7-1.9,0.4c0.1-0.4,0-1,0.2-1.3c0.6-0.7,1.3-1.3,1.9-1.8
		c-0.1-0.4-0.3-0.8-0.2-1.1c0.6-1.9-0.2-3.6-0.7-5.3c-0.2-0.7-0.5-1.3-1.3-1.3c-0.7,0-1.4,0-1.7,0.9c0.2,0.6,0.4,1.3,0.8,1.8
		c0.5,0.5,1.2,0.8,2.4,1.5c-2.2,0-1.5,1.6-2.2,2.5c-0.5-0.8-1.1-1.3-1.3-1.9c-0.7-2.2-1.4-4.3-2-6.5c-0.1-0.4,0-0.9,0-1.4
		c0.5,0.7,1.1,1.3,1.7,2.1c0.8-0.1,1.7-0.2,2.8-0.3c-0.3-1.2-0.8-2.1-1.8-2.5l0.1,0.1c0.2-0.8-0.1-1.5-0.8-2.1c0.1-1.1-0.3-2-1-2.8
		c-0.7,0-1.4-0.1-1.8,0.7l0.1-0.1c-0.5-0.2-1.2-0.1-1.1-0.9c0.8-0.4,1.6-0.8,2.3-1.1c0.3-1.9-0.8-2.1-2.1-2.3
		c0.4-0.5,0.8-0.9,1.2-1.4c-0.3-0.8-0.6-1.6-0.9-2.3c-0.8,0-1.3,0.1-2.2,0.1c0.7-0.7,1.2-1.1,1.6-1.5c0.2-1.5-1.3-1.2-2-1.7
		c0.2-0.2,0.3-0.3,0.5-0.5c0.8-0.9,0.7-1.3-0.1-1.9c-0.3-0.2-0.7-0.3-1.1-0.4c1.2-1.6,1.2-2.3,0.2-3.2c-0.7,0.2-1.6,0.4-2.4,0.5
		c-0.2,0.9-0.3,1.6-0.5,2.8c-0.5-0.7-0.9-0.9-1-1.3c-0.9-2.6-1.6-5.2-1.4-8.1c-3-0.2-6-0.5-9-0.6c-2.6-0.1-5.1,0.3-7.3,1.6
		c-2.9,1.6-5.8,3.2-8.6,5.1c-1.5,1-3.1,2-3.6,4c-0.1,0.5-0.7,0.8-1.2,1.2c-1.9,1.7-3.5,3.7-4.8,5.8c-1.1,1.8-2.1,3.7-3.2,5.6
		c1.3,1.9,2.6,3.7,3.6,5.6c0.7,1.3,1.2,2.7,1.7,4.1c0.1,0.3-0.1,0.7-0.3,1.4c-1.4-1.1-1.7-2.5-2.4-3.7c-0.8-1.3-1.6-2.5-2.4-3.8
		c-0.7-1.1-1.4-2.2-2.4-3.8c-0.6,2.3-2.2,3.1-3.7,3.9c-2.8,1.4-5.6,2.7-8.4,4c-2.8,1.3-5.6,2.6-8.4,3.9c-1.5,0.8-3,1.7-3.9,3.3
		c-0.4,0.6-1.1,1.1-1.8,1.5c-1,0.6-2.1,1-3.1,1.5c-5,2.3-9.9,4.7-14.7,6.9c-1,1.8-0.5,3.4-0.2,5c1,4.5,2.3,8.9,4.3,13
		c2.8,5.7,5.4,11.4,8.7,16.8c2,3.2,4.4,6.2,7.1,8.6c1.9,0.3,3.4-0.3,4.9-0.9c5.3-2.2,10.7-4.3,16.2-5.9c0.3-0.1,0.6-0.2,1-0.4
		c2-0.9,4.1-1.6,6.2-1.9c2.2-0.3,4.1-1.2,5.9-2.6c1.9-1.5,4-2.7,6.1-3.8c2.8-1.4,5.7-2.4,8.5-3.7c1.8-0.8,3.6-1.6,5.3-2.5
		c2.6-1.4,4.7-3.2,5.8-6.1c0.4-1.1,1-2.1,1.6-3c0.2-0.4,0.6-0.6,1-0.9l-0.1-0.1c-0.1,1.4-1.1,2.5-1.6,3.7c-0.2,0.5-0.6,1,0,1.5
		c1.7-0.9,3-2.1,4.1-3.6c1.6-2.2,3.2-4.5,4.6-6.9c2-3.4,4-6.9,5.9-10.5C465.7,443.2,466.5,442.7,467.5,442.6z M559.2,374.3
		c0.1,0,0.2,0.1,0.2,0.1C559.3,374.5,559.2,374.4,559.2,374.3c0-0.4-0.2-0.6-0.7-0.7c-0.2-0.3-0.5-0.7-0.7-1c0,0-0.3,0.1-0.5,0.2
		c0,0,0,0.3,0.1,0.3c0.4,0.2,0.8,0.3,1.2,0.4C558.8,373.9,559,374.1,559.2,374.3z M611,376.4c0,0.3-0.1,0.7,0.4,0.4
		C611.2,376.6,611.1,376.5,611,376.4c0-0.4-0.3-0.6-0.7-0.6c-0.1-0.4-0.2-0.8-0.7-0.6c0.1-0.3,0.1-0.6-0.4-0.4
		c0.2,0.1,0.3,0.2,0.5,0.3c0,0.5,0.2,0.7,0.7,0.6C610.2,376.2,610.4,376.5,611,376.4z M605.5,373c-0.2-0.1-0.3-0.3-0.5-0.4
		c-0.1,0-0.2,0-0.3,0c0.1,0.1,0.2,0.3,0.3,0.3C605.1,372.9,605.4,372.9,605.5,373c0.3,0.1,0.4,0.3,0.6,0.5c0,0,0.2-0.1,0.3-0.1
		c-0.1-0.1-0.2-0.3-0.3-0.3C605.9,373,605.7,373,605.5,373z M590.3,357.9c-0.5,0.4-0.8,0.9-0.3,1.8
		C590.1,359,590.2,358.4,590.3,357.9l0-0.2L590.3,357.9z M602,372.9c0.1,0.1,0.1,0.1,0.2,0.2C602.1,373.1,602,373,602,372.9
		c-0.6-0.9-1.4-1.3-2.6-1C600.2,372.8,601,373,602,372.9z M615,383.4c-0.1-1-0.8-1.6-1.7-2c-0.5-0.2-0.9,0-1.1,0.5
		c-0.1-0.1-0.4-0.3-0.4-0.4c0-1.6-0.9-2.4-2.3-2.9c-0.1-0.2,0-0.8-0.4-0.2c0.2,0.1,0.3,0.1,0.5,0.2c-0.8,0.7-1.6,0.3-2.1-0.3
		c-0.7-0.8-1.3-1.8-1.9-2.7c-0.7,0.1-1.2,0.2-1.8,0.1c-0.8-0.1-1.5-0.4-2.3-0.7c-3.2-1.1-6.3-1.9-9.7-2c-2.8-0.1-5.4,0.2-6.9,3.5
		c-0.1-1.6-0.7-2.2-2-2.3c0.6-2,2-3.5,3.2-5.2c0.1-0.3,0.2-0.5,0.1-0.2c0-0.3,0,0,0,0.3c-1.4-1.4-0.6-3.5-1.5-5.1
		c-2.1-0.3-4.2-0.6-6.3,0.2c-0.1-0.3-0.3-0.6-0.4-0.8c-0.2,0.1-0.3,0.2-0.5,0.3c0.2,0.1,0.5,0.2,0.7,0.3c0.1,0,0.2,0.1,0.3,0.1
		c0,0.3-0.1,0.5-0.1,0.8l0.1-0.1c-0.4,0.5-1,1-1.2,1.6c-0.4,1.8-0.7,3.6-0.9,5.4c-0.2,1.3,0,2.5,1.1,3.4c0.1,0.1-0.1,0.4-0.1,0.6
		c-0.6,0.4-1.2,0.1-1.5-0.4c-0.3-0.6-0.6-1.3-0.7-1.9c-0.1-0.9-0.1-1.8-0.2-2.7c-1.4-0.6-2.8-0.6-4.2-0.5c-1.7,0.2-2.8-0.8-4-1.3
		c-3.5,1.1-4.3,1.6-6.3,3.7c1.9,1.2,3.4,2.6,3.6,5.1c0.1,0.8,0.8,1.6,1.3,2.4c1.3,2.3,2.7,4.5,3.9,6.9c0.6,1.1,0.7,2.4,0.9,3.6
		c0.2,1.1,0.1,2.3,0.2,3.4c0,0.2,0.2,0.4,0.4,0.7c0.9,0,2,0,2.8,0c0.9,1,1.7,1.8,2.4,2.7c0.7,0.9,1.3,1.9,2,2.8
		c0.5,0.6,1.1,1.2,1.7,1.8c1,1,2.4,1.1,3.4,0.2c0.8-0.7,1.3-1.6,1.7-2.1c1.4-0.2,2.2-0.2,3-0.4c0.4-0.1,0.8-0.5,0.9-0.9
		c0.1-0.3-0.2-0.8-0.4-1.1c-0.3-0.4-0.7-0.5-1-0.9c-0.1-0.1,0.1-0.5,0.2-0.9c1.5,0.6,2.2,2.2,4.1,2.3c0.5-0.4,1.1-0.9,1.6-1.4
		c-1.1-2.1-1.1-2.1,0-3.4c0.2,0.5,0.3,1,0.6,1.5c0.3,0.6,0.7,1.2,1.2,1.7c0.7,0.9,1.6,0.9,2.3,0.1c0.6-0.7,1.1-1.5,1.6-2.3
		c0.5-0.9,1-1.8,1.5-2.7c0.9-1.6,1.8-2.9,4-2.5c0.6,0.1,1.7-0.4,2-1c1.6-2.4,3.9-4.2,5.7-6.4C613.2,382.3,614.1,382.8,615,383.4
		c0.3,0.9,1.3,1.2,2,1.6c0.7,0.4,1.5,0.6,2.4,0.1C617.9,384.5,616.5,383.9,615,383.4z M506.8,419.8c0,0,0.1,0.1,0.1,0.1
		C506.9,420,506.8,419.9,506.8,419.8c0-1.3-1.1-1.9-1.8-2.8c-3.5-4.2-6.4-8.6-7.4-14.2c-0.6-3-1.8-5.9-4.2-8.2
		c-0.9-0.8-1.3-2.1-1.8-3.3c-0.4-0.9-0.7-1.9-1-3.1c-1.8,0.9-3.4,1.8-5,2.6c-2.1,1-4.1,2.1-6.2,3c-2.1,0.9-4.2,1.8-6.1,3.1
		c-1.5,1-3,2-5,2.2c-1.3,0.2-2.7,0.7-3.8,1.5c-1.2,0.9-2.4,1.2-3.9,1.6c0.2,1,0.2,1.9,0.5,2.8c1.3,4,2.7,8.1,4,12.1
		c1.4,4.1,2.7,8.3,4.1,12.4c0.9,2.6,1.8,5.2,3.2,7.4c3.5,0.2,3.9,0.1,5.5-0.6c4.1-1.8,8.4-2.2,12.8-1.5c7.4,1.1,14.8,2.1,22.2,0.7
		c2.3-0.4,4.7-0.8,7-1.8c-4-4.3-7.8-8.4-11.7-12.6c-1.3-0.2-2.6-0.3-4.1-1.2C505.2,420,506,419.9,506.8,419.8z M577.2,439.9
		c-2-1.1-4-2.1-6-3.2c-0.1-0.1-0.4,0.1-0.9,0.2c1.7,0.9,3.1,1.9,4.7,2.6C575.6,439.8,576.4,439.7,577.2,439.9
		c0.1,0.1,0.1,0.4,0.1,0.6c0.1,0.2,0.3,0.4,0.4,0.6c0.5,1.5,0.2,2.2-1.2,2.6c-0.9,0.2-2.1-0.1-2.6,0.4c-1.7,1.7-3.4,1-5.1,0.5
		c-1.8-0.5-3.5-1.2-5.2-1.9c-1.3-0.6-2.6-0.9-3.9-0.7c-3.3,2-5.3,2.6-9.1,2.8c-1,0.1-2.1,0.1-3.1,0.1c-1.3-0.1-2.5,0.2-3.7,0.7
		c-3,1.3-5.9,0.5-8.5-0.8c-1.8-0.9-3.5-2.1-5.3-3.1c-1.7-1-3.1-2.7-4.6-4.1c-0.2-0.1-0.4-0.2-0.6-0.3c-0.1,0-0.1-0.1-0.2-0.1
		c0.1,0,0.2,0,0.3,0c-0.3,0.7,0.1,1.3,0.5,1.9c2.6,4.1,5.1,8.2,7.7,12.3c0.2,0.2,0.5,0.4,0.7,0.6c0.7-0.6,0.4-1.3,0.5-1.9
		c0.1-0.6,0-1.2,0.1-1.7c0.1-0.6-0.3-1.4,0.8-1.8c0.4,2.7-0.2,5.2-0.1,7.8c0,0.1,0.1,0.3,0.1,0.3c3.8,5.7,7.6,11.5,11.5,17.2
		c0.4,0.5,1,1,1.5,1.4c2.2,1.6,4.7,2.3,7.5,1.6c0.1-1,0.2-2,0.3-3c0.1-0.9,0.3-1.8,0.4-2.7c0.1-1,0.1-2.1,0.3-3.1c0.1-1,0-2,0.9-3.2
		c0.6,2.4-0.1,4.3-0.2,6.3c-0.1,2.1-0.6,4.3-0.4,6.6c5.1,1.1,10,2.1,15.1,2.3c7.2,0.3,14.5,0.2,21.7,0c7.2-0.2,14.1-1.9,20.9-3.8
		c0.3-0.1,0.6-0.4,0.9-0.7c0.6-3.8,1.6-7.5,1.4-11.5c-0.1-1.5-0.1-2.9-1.2-4.1c-1.2-0.7-2.3-1.4-3.4-2.2c-2.3-1.9-4.5-3.9-6.9-5.7
		c-3.6-2.8-7.5-5.4-11-8.3c-6.5-5.4-13.7-9.6-20.9-14c-0.8-0.5-1.7-0.9-2.5-1c-3-0.2-6-0.2-8.8-0.3c-1.9,2.3-2.4,2.5-5,2.2
		c-1.7-0.2-3.4-0.5-4.9-1.4c-0.6-0.4-1.2-1.1-2.2-0.7c0.1,0.9-0.1,1.7-0.9,2.4c-1.2,1.2-2.4,1.7-4,0.9c-0.7-0.4-1.5-0.6-2.2-0.9
		c-1.6-0.7-3.1-0.4-4.6,0.7c1.2,1.9,2.2,3.6,4.2,4.2c1.3-0.5,2.3-1,3.3-1.5c2.1-1,4.4-1,6.6-1.6c2.7-0.7,5.2-0.4,7.7,0.6
		c2.4,0.9,4.9,1.8,7.4,2.5c4.1,1.2,7.7,3.5,11.7,5c0.7,0.3,0.9,1,0.7,1.8c-0.1,0.5-0.4,0.8-1,0.7
		C578.6,440.6,578.5,439.4,577.2,439.9z M507.8,589.8c1.5,0.2,2.9,0.4,4.2,0.5c6.1,0.5,12.2-0.2,18.2,0.6c10.7,0,21.4,0,32.1,0
		c9.5,0,19.1,0.1,28.6,0.3c8.8,0.2,17.7,0.7,26.5,0.9c12.1,0.2,24.1,0.2,36.2,0.3c0.6,0,1.3-0.2,2-0.3c0.1-4,0.1-7.8,0.2-11.6
		c0-0.6-0.1-1.1-0.1-1.6c-1.9-1.8-4.1-2.4-6.7-2.4c-11.4,0.1-22.8,0.1-34.1,0c-6.5-0.1-13.1,0.1-19.6-0.6c-2.9-0.3-2.9-0.2-5.7,1
		c-0.2-0.5-0.4-1.1-0.4-1.6c0.2-7.2-0.6-14.5-0.3-21.7c0.1-1.6,0-3.2,0-4.8c-0.2-8.2-0.5-16.3-0.7-24.5c-0.3-7.4-0.6-14.7-0.9-22
		c-0.2-6-0.4-11.9,0-17.9c0.1-1.3,0.3-2.7-0.2-4.1c-1.7-0.5-3.3-0.2-4.9-0.2c-4.7,0-9.4-0.2-14.1-0.8c-4-0.6-7.9-1.7-11.9-1.6
		c-0.5,0-1.1,0.1-1.8,0.2c0.4,10.6,0.7,21,1.1,31.5c1.8,1.1,3.7,0.5,5.5,0.5c2,0,3.9-0.2,5.9-0.3c1.8-0.1,3.6,0.2,5.5-0.4
		c0-1.3,0.1-2.4,0.1-3.6c0-7.1,0.1-14.3,0.1-21.4c0-0.9,0-1.8,0.1-2.7c0-0.3,0.5-0.6,0.8-0.9c0.8,1.2,0.6,2.4,0.6,3.5
		c-0.2,8.3,0,16.5,0.3,24.8c0.5,10.2,0.3,20.5-0.2,30.7c-0.2,4.9,0,9.9,0.2,14.8c0.1,2.3,0.7,4.5-0.1,6.8c-0.1,0.4,0,0.9,0,1.4
		c0.3,3.1,0.5,6.2,0.8,9.3c0.1,1.1,0.4,2.3-0.2,3.2c-1.6,0.1-3,0.1-4.5,0.2c-1.8,0.1-3.7,0.3-5.5,0.4c-16.2,0.8-32.4-0.4-48.6-0.8
		c-0.7,0-1.4-0.1-2.1-0.2c-2-0.3-3.9-0.1-5.6,0.4c-0.9,1.1-1.7,2-1.6,3.5C507,582.2,507.1,585.8,507.8,589.8z M370.6,464.3
		c-1.1-4.6-2.1-8.9-3.1-13.4c-0.5,0.1-1.1,0.1-1.6,0.2c-4.5,0.9-9,1.9-13.6,2.1c-3,0.1-6,0.3-8.8,1.2c-1.7,0.6-3.5,1.1-5.3,1.4
		c-3.2,0.7-6.3,1.4-9,3.2c-2.2,1.4-4.4,2.9-6.3,4.8c-2.3,2.4-4.6,4.8-6.9,7.2c-2.2,2.4-4.3,4.7-7.6,5.6c-4.4,2.9-9.3,5-13.2,8.7
		c-0.4,0.4-0.9,0.7-1.4,1c-1,0.7-2,1.5-3.3,2.4c-1.3-0.1-2.7,0.5-4.1,1.4c-1.8,1.1-3.6,2-5.4,3c-0.8,0.4-1.6,0.9-2.3,1.3
		c-0.2,0.9-0.2,1.8-0.5,2.5c-0.8,2.5,0,4.5,1.5,6.4c0.7,0.9,1.6,1.6,2.4,2.4c1,1.1,2,2.1,3.2,3.4c0.9-0.2,1.9-0.5,3-0.8
		c0.8-0.2,1.4-0.6,1.9-1.3c2.4-3.1,5.5-5.5,9-7.4c1.1-0.6,2.3-1.1,3.2-1.9c2.7-2.2,5.9-3.6,9.1-4.7c2.4-0.8,4.8-1.4,7.2-2.2
		c2.4-0.8,4.8-1.4,7.2-2.4c3.2-1.3,6.3-2.7,9.4-4.2c4.4-2,8.9-3.6,13.5-5.1c0.8-0.2,1.5-0.5,2.3-0.6c3.3-0.4,6.6-1.1,9.9-0.8
		c1.5,0.1,3,0,4.5,0c3.1-0.1,5.7-1.5,8.4-2.9c0.4-0.2,0.6-0.7,0.9-1.1c-1.2-2.7-2.3-5.5-3.8-8c-2.4,0.9-2.4,0.9-4.2,0.8
		C367.6,464.6,369.5,465,370.6,464.3z M276.2,492.8c-0.3-0.2-0.4-0.3-0.5-0.3c-0.2,0-0.5,0-0.7,0.2c-1.6,1.2-3.4,1.9-5.4,2
		c-0.8,0-1.6,0.4-2.3,0.7c-1.4,0.6-2.9,0.8-4.4,0.7c-1.5-0.1-3-0.3-4.4-0.5c-1.6-0.2-2.5,0.3-2.8,1.8c-0.4,1.9-0.6,3.8-0.8,5.8
		c-0.1,0.6,0.3,1.3,0,1.7c-1.2,1.6-0.3,3.1,0.2,4.6c0.7,1.9,1.4,3.9,2.5,5.7c2.3,3.8,3.7,7.8,4.6,12.1c0.9,4.1,2.3,8.2,2.6,12.4
		c0.1,1,0.6,1.8,1.4,2.3c1,0.6,1.9,1.3,3,1.6c2.7,0.9,5.5,1.6,8.3,2.4c4.5,1.3,8.3-0.6,12-2.7c0.1,0,0.1-0.2,0.3-0.5
		c-0.1-0.4-0.2-1-0.5-1.5c-0.3-0.7-1-1.4-1.1-2.1c-0.4-2.5-2.3-2.9-4.3-3.2c-0.6-0.1-1.2,0-1.7-0.1c-0.2,0-0.4-0.3-0.9-0.7
		c1-0.4,1.8-0.7,2.5-1c-0.4-1-1.9-0.7-1.8-2.2c0.6-0.2,1.2-0.3,1.8-0.6c0.5-0.3,0.8-0.8,0.4-1.6c-1,0-2.2,0-3.3-0.1
		c-0.6,0-1.1-0.4-1.1-1.1c0-0.6,0.3-1.1,0.9-1.3c0.5-0.2,1.1-0.3,1.7-0.3c0.9-0.1,1.8,0,2.9,0c0.1-0.9,1.2-1.1,0.7-2.3
		c-0.7,0-1.3,0-2,0.1c-0.8,0.1-1.6,0.3-2.4,0.3c-0.8,0-1.6-0.7-1.7-1.4c-0.1-0.8,0.3-1.6,1.2-1.8c1.2-0.3,2.5-0.5,3.7-0.5
		c1,0,2,0.3,3.1,0.5c0.8,0.1,1-0.2,1.3-1.7c-3.1,0.6-6.2,0.3-9.3,0.1c-0.8,0-1.6-0.2-1.9-1.2c-0.2-0.7,0.7-1.5,1.9-1.6
		c0.8,0,1.6,0.1,2.4,0.1c2.1,0.1,4.1,0.2,6.2,0.2c0.8,0,1.5-0.2,2.2-0.3c1.4-3.9,1.4-3.9,0.5-7.3c-0.6,0-1.3,0-1.9,0.2
		c-2.2,0.5-4.5,1-6.7,1.7c-1.6,0.5-2.8,0-4.1-1c-3-2.2-5.1-4.9-6-8.4C273.5,499.2,275.5,496.2,276.2,492.8z M506.1,520.9
		c1.7,0.3,3.2,0.2,4.7,0.2c5.6-0.3,11.3,0,16.9,0.2c10.9,0.5,21.8,0.4,32.7-0.3c1.4-0.1,2.8-0.1,4.1-0.1c1.3,0,2.5-0.1,3.8,0
		c1.2,0,2.4,0.2,4,0.3c0-3.3,0.3-6.3-0.4-9.5c-1,0-1.9-0.1-2.8-0.1c-2.4,0-4.8,0.1-7.2,0c-2.1,0-4.1-0.3-6.2-0.3
		c-0.5,0-0.8,0.4-0.7,1.1c2.6,0.7,5.4-0.2,8.1,0.2c-0.1,0.2-0.1,0.4-0.1,0.4c-2.9,1.1-6.1,0-9.2,1.1c-0.4-2.6-0.9-4.9-0.8-7.3
		c0.2-9.4-0.2-18.8-0.6-28.2c0-0.5-0.1-0.9-0.2-1.4c-1.7-0.9-3.5-1.7-5.2-2.5c-0.1,0-0.2,0-0.5,0.1c-0.8,1.5,0,3.4-1,5.7
		c0-1.9,0-3.2,0-4.4c0-0.7,0.1-1.4-0.1-2.1c-0.1-0.5-0.6-0.9-1.3-1.7c-0.1,1.4-0.2,2.3-0.2,3.2c0.3,11.1,0.5,22.3,0.8,33.4
		c0.1,2.4,0.1,2.4,1.2,4.7c-2,0.1-3.9,0.1-5.9,0.3c-1.9,0.2-3.9,0.5-5.8,0.6c-2,0.1-4,0.2-6-0.6c4.8-0.6,9.5-1.1,14.3-1.7
		c-6.8-0.1-13.6-0.4-20.3,0.1c-3.8,0.3-7.5,0.9-11.3,0.3c-1.1-0.2-2.3,0-3.4,0.1c-0.3,0-0.7,0.2-0.9,0.4c-0.2,0.2-0.3,0.6-0.3,0.9
		c0,0.2,0.2,0.4,0.4,0.5c0.4,0.1,0.9,0.2,1.3,0.2c1.6,0,3.3-0.1,4.9,0.5c-2,0-4.1,0-6.1,0C505.9,516.9,506.1,518.7,506.1,520.9z
		 M526.8,411.9c0.7,1.4,1.1,2.7,1.8,3.9c2,3.4,4.1,6.8,6.2,10.3c0.8,1.4,2.2,2,3.8,1.5c1.7-0.6,3.4-1.4,5-2.2c0.4-0.2,0.7-0.6,1-0.9
		c1.3-1.5,2.6-2.9,3.8-4.4c1.8-2.1,3.6-4.2,5.3-6.3c0.3-0.3,0.6-0.7,0-1.2c-4.2,2-8.8,2.3-13.4,2.4c-3.6,0.1-7-0.6-10.3-2.3
		C529.4,412.2,528.5,411.5,526.8,411.9z M489.8,386.1c0.5-1,0.8-1.6,0.9-1.7c0.3-1.3-1.2-1.5-0.4-2.7c0.8,0,1.7,0.1,2.5-0.2
		c1-0.3,1.8-1.1,2.7-1.5c1.2-0.6,2.5-1.2,3.8-1.7c2.4-0.9,4.7-1.7,7.1-2.6c4.6-1.7,9.3-2.6,14.2-2.4c0.9,0,1.8-0.1,2.7-0.2
		c0.5-0.1,1.1-0.4,1-1.2c-4.3-0.8-6.4-0.9-9.9-0.4c-6,0.9-12,1.7-17.8,3.9c-2.8,1.1-5.4,2.5-7.8,4.4
		C489,381.9,488.4,383.8,489.8,386.1z M286.1,533.9c0.6,0.5,1.2,1,1.7,1.4c0.8,0.7,1.6,0.7,2.5,0.2c0.9-0.5,1.3-1.2,1.3-2.2
		c0-2.8-1.4-4.8-3.9-6.1C286.2,529.4,287.1,531.8,286.1,533.9z M548.3,423.8c2.4,0.9,4.6,1.7,6.7,2.4c1.4,0.5,2.9,0.6,4.9,0.3
		c-2.5-1.4-4.5-2.5-6.6-3.6c-0.3-0.2-0.6-0.4-0.9-0.4C550.8,422.3,549.4,422.1,548.3,423.8z M275.4,500.3c-0.8,0.9-0.9,1.8-0.5,2.9
		c1.3,3.7,4.1,5.6,7.5,6.8c0.1,0,0.2-0.1,0.5-0.4c-1-0.9-2.2-1.6-3.1-2.5c-1-1-2-1.9-2.7-3.1C276.4,502.8,275.9,501.5,275.4,500.3z
		 M265.6,493.5c2.1-0.4,4-0.7,5.9-1.2c0.5-0.1,1-0.6,1.5-0.8c-1.2-0.1-2.3,0.2-3.4,0.2c-1.2,0-2.4-0.3-3.6-0.5
		C265.4,491.9,265,492.5,265.6,493.5z M543.6,427.3c1,0.6,1.6,1,2.3,1.3c1.1,0.4,1.7-0.1,2-1.1C546.1,425.7,546.1,425.7,543.6,427.3
		z M455.9,406c2.4-0.1,2.4-0.1,3.1-1.1c-0.4-0.6-1-0.1-1.5-0.2c-0.6-0.2-1.1-0.5-1.8-0.8C455.8,404.4,455.8,405.1,455.9,406z
		 M277.4,492.3c2.6-0.3,2.6-0.3,2-2.7c-0.4,0-0.8,0.1-1.3,0.1c0.3,0.6,0.5,1,0.7,1.5C278.4,491.5,278,491.8,277.4,492.3z
		 M605.3,368.5c0.3-1.7,0.3-1.7-0.3-2.5C604.9,366.9,604.5,367.7,605.3,368.5z M600.6,355.6c-1.7,0.1-1.7,0.1-0.9,2.1
		C600.1,356.9,600.3,356.3,600.6,355.6z M602.1,361.2c-0.5-0.4-0.7-0.7-0.9-0.7c-0.4-0.1-0.9-0.1-0.9,0.5c0,0.2,0.3,0.6,0.6,0.7
		C601.2,361.7,601.5,361.5,602.1,361.2z M587.2,355.2c-0.4-0.3-0.6-0.6-0.8-0.6c-0.2,0-0.5,0.3-0.7,0.4c0.2,0.2,0.4,0.5,0.6,0.6
		C586.5,355.6,586.8,355.4,587.2,355.2z M618.6,377c-0.8-0.3-1.1-0.5-1.5-0.5c-0.2,0-0.5,0.3-0.7,0.4c0.2,0.2,0.3,0.6,0.6,0.7
		C617.2,377.7,617.5,377.5,618.6,377z M617.4,374.2c-0.1,0.2-0.2,0.4-0.2,0.6c0,0.3,0.2,0.5,0.3,0.8c0.2-0.1,0.4-0.3,0.4-0.4
		c0-0.3-0.2-0.6-0.3-0.9C617.7,374.2,617.5,374.2,617.4,374.2z M614.7,368.1c0.2,0.1,0.3,0.2,0.5,0.3c0,0,0.2-0.2,0.2-0.2
		c-0.1-0.2-0.2-0.3-0.3-0.5C614.9,367.9,614.8,368,614.7,368.1z M458.5,401.7c0-0.1,0-0.2-0.1-0.2c-0.2,0-0.4-0.1-0.6-0.1
		c0,0.1,0,0.3,0.1,0.4C458.1,401.8,458.3,401.7,458.5,401.7z M455.7,401.9c0.2-0.1,0.3-0.2,0.4-0.2c-0.2-0.2-0.5-0.4-0.7-0.6
		c-0.1,0.1-0.2,0.2-0.2,0.2C455.4,401.5,455.6,401.7,455.7,401.9z M593.8,366.4c-0.1-0.1-0.1-0.2-0.2-0.2c-0.1,0-0.2,0-0.3,0
		c0.1,0.1,0.1,0.3,0.2,0.4C593.6,366.5,593.7,366.5,593.8,366.4z M586.4,363.5c-0.1,0.2-0.2,0.4-0.2,0.6c0,0.1,0.1,0.2,0.2,0.2
		c0.1-0.1,0.3-0.3,0.3-0.4C586.7,363.8,586.5,363.7,586.4,363.5z M578.5,360.4c0.1-0.1,0.2-0.1,0.2-0.2c-0.2-0.1-0.3-0.2-0.5-0.2
		c-0.1,0-0.2,0.1-0.2,0.2C578.2,360.3,578.4,360.3,578.5,360.4z M586.4,360c0.1,0,0.2,0,0.2-0.1c0-0.1,0-0.2,0-0.3
		c-0.1,0-0.2,0-0.2,0.1C586.3,359.8,586.4,359.9,586.4,360z M583.1,355.4c-0.1-0.1-0.1-0.2-0.2-0.2c-0.2,0-0.3,0.1-0.5,0.2
		c0.1,0.1,0.1,0.2,0.2,0.2C582.8,355.6,583,355.5,583.1,355.4z M605.5,352.7c0-0.1,0-0.2-0.1-0.2c-0.1-0.1-0.2-0.1-0.3-0.1
		c0,0.1,0.1,0.3,0.1,0.4C605.3,352.8,605.4,352.7,605.5,352.7z M615.9,372.6l-0.3,0.1l0.3,0.1L615.9,372.6z M596.1,371.9
		c-0.2-0.1-0.4-0.1-0.5-0.1c0,0.1,0.1,0.2,0.1,0.2C595.8,372,595.9,372,596.1,371.9z M607.2,371.4c-0.1,0-0.2,0-0.2,0.1
		c-0.1,0.1-0.1,0.2-0.1,0.3c0.1,0,0.2-0.1,0.4-0.1C607.3,371.6,607.2,371.5,607.2,371.4z M621,379.7c0.1,0,0.1-0.1,0.2-0.2
		c-0.1-0.1-0.1-0.2-0.2-0.2c-0.1,0-0.1,0.1-0.2,0.2C620.8,379.5,620.9,379.6,621,379.7z M591.1,368.4l0.2,0.1l0-0.2L591.1,368.4z
		 M596.1,368c0.1-0.1,0.2-0.1,0.2-0.2c-0.1-0.1-0.1-0.2-0.2-0.2c-0.1,0-0.2,0.1-0.2,0.2C596,367.9,596,367.9,596.1,368z
		 M596.2,352.4l-0.1,0.2l0.2,0L596.2,352.4z M600.3,351.7c-0.1,0.1-0.2,0.1-0.2,0.2c0.1,0.1,0.1,0.2,0.2,0.2c0.1,0,0.2-0.1,0.2-0.2
		C600.4,351.8,600.4,351.8,600.3,351.7z M594,350.5l-0.1,0.1l0.2,0L594,350.5z"/>
	<path d="M567.7,304.1c-4.8-0.4-9.6,0.1-14.3,0.2c-6.3,0.2-12.6,0.2-18.9,0.3c-0.9,0-1.8-0.1-2.7-0.3c-0.2,0-0.4-0.4-0.8-0.8
		c1,0,1.8-0.1,2.6-0.1c5.2,0,10.3,0,15.5-0.1c2.6,0,5.3-0.3,7.9-0.4c3.2-0.1,6.4-0.3,9.6,0.4c0.4,0.1,0.8,0.4,1.2,0.6
		C567.8,303.8,567.7,303.9,567.7,304.1z"/>
	<path d="M571.2,231.5c-0.4-0.6-0.6-0.8-0.7-1.1c-0.6-6.4-0.2-12.8-0.2-19.2c0-0.9,0.4-1.7,0.6-2.6c0.9-0.1,1.2,0.4,1.1,1
		c-0.4,2.3-0.2,4.6-0.2,6.8c0,4.8-0.2,9.6-0.3,14.4C571.6,231,571.5,231.1,571.2,231.5z"/>
	<path d="M570.7,252c0.5,1,0.7,1.1,0.7,1.3c0.3,8.6,0.7,17.1,1,25.7c0,0.3-0.1,0.7-0.2,1.4c-0.4-0.8-0.7-1.3-0.8-1.7
		c-0.2-1.5-0.4-2.9-0.4-4.4c-0.2-6.6-0.3-13.3-0.4-19.9C570.5,253.8,570.6,253.3,570.7,252z"/>
	<path d="M614.2,304.1c1,0,1.9-0.1,2.9-0.1c4.5,0,8.9,0,13.4-0.1c2.5-0.1,5-0.3,7.5-0.5c2.6-0.1,5.2-0.3,8.4,0.1
		c-0.7,0.5-1,0.8-1.3,0.8c-5,0.2-10.1,0.5-15.1,0.6c-4.8,0.1-9.6-0.1-14.4-0.2c-0.4,0-0.9-0.1-1.3-0.2
		C614.2,304.3,614.2,304.2,614.2,304.1z"/>
	<path d="M507.9,303.6c0.2-0.6,0.7-0.6,1.1-0.6c4.8,0.1,9.6,0.2,14.3,0.5C520.3,304.1,511.3,304.1,507.9,303.6z"/>
	<path d="M594.2,305.2c-5.1,0.1-10.2,0.2-15.3,0.3c-0.3,0-0.6-0.2-1.1-0.3C580.4,304.7,589.5,304.5,594.2,305.2z"/>
	<path d="M571.9,301.9c-0.2-4.5-0.4-9.1-0.6-14c1.3,2.6,1,4.9,1.1,7.2c0.1,2.3,0,4.5,0,6.8C572.2,301.8,572,301.9,571.9,301.9z"/>
	<path d="M569.4,304.4c0.5-0.8,0.8-1.5,1.2-2.2c0.9,0.9,0.4,1.6-0.1,2.1C570.3,304.5,569.9,304.4,569.4,304.4z"/>
	<path d="M426.8,118.1c-1.8,2.1-4.1,3.7-6.3,5.6c-2.2,1.9-3.9,4.1-5.4,6.5c-1.2-0.5-1.6-1-1.3-1.6c0.5-1,0.9-2.1,1.6-3
		c2.7-3.3,6-6,9.7-8.1C425.8,117.1,426.4,117,426.8,118.1z"/>
	<path d="M392.8,152.8c-0.1,0.5-0.1,1.2-0.4,1.6c-4.2,5.8-7,12.4-9.8,18.9c-1.1,2.6-2.2,5.3-3.4,7.9c-0.6,1.3-1.4,2.6-2.2,4
		c-0.2-0.4-0.4-0.6-0.4-0.7c2.5-5.8,4.9-11.6,7.5-17.4c1.2-2.7,2.6-5.4,4.1-8C389.5,156.9,390.8,154.6,392.8,152.8L392.8,152.8z"/>
	<path d="M417.2,102.6c-3,2.7-6.4,3.8-8.6,6.5c0.2,0.5,0.3,0.9,0.6,1.5c-0.7,0.1-1.3,0.3-1.9,0.2c-0.9-0.2-1.2-1.2-0.8-1.9
		c0.4-0.6,0.7-1.2,1.3-1.6c2.6-1.7,5.2-3.3,7.8-4.8C415.9,102.4,416.3,102.5,417.2,102.6z"/>
	<path d="M397.8,177.4c-0.5-3.1,0.3-5.7,0.9-8.4c0.3-1.5,0.5-3.1,1.7-4.3c0.2,0.2,0.4,0.3,0.4,0.3c-0.7,3.8-1.4,7.6-2.2,11.3
		C398.4,176.7,398.2,176.9,397.8,177.4z"/>
	<path d="M369.2,155.9c2.3-2.5,5-4.6,8.1-6.5c-0.7,1.5-0.7,1.5-2,2.6c-1,0.8-1.9,1.6-2.9,2.4c-0.9,0.7-1.8,1.4-2.7,2.1
		C369.5,156.3,369.4,156.1,369.2,155.9z"/>
	<path d="M397.8,131.5c0-0.1-0.1-0.3,0-0.3c1.7-2.7,4-4.8,6.6-6.5c0.1,0,0.2,0,0.3,0l-0.1-0.1C402.4,127,400.3,129.5,397.8,131.5
		L397.8,131.5z"/>
	<path d="M403.9,100.4c1.9-2.2,4.3-3.2,7.2-3c-0.3,0.1-0.6,0.3-0.9,0.4c-1.4,0.6-2.7,1.2-4.1,1.7
		C405.4,99.9,404.7,100.2,403.9,100.4L403.9,100.4z"/>
	<path d="M415.6,136.8c1.5-3,1.9-3.3,3.8-3.7c-0.2,0.3-0.3,0.6-0.5,0.8C417.8,134.8,416.7,135.8,415.6,136.8z"/>
	<path d="M392.8,108.7c-0.5,1.9-1.9,3.1-3.4,4.2l0.1,0.1c0.1-0.4,0.1-0.9,0.4-1.2C390.9,110.7,391.9,109.7,392.8,108.7L392.8,108.7z
		"/>
	<path d="M426,146.6c0.1,1.8-0.4,3.4-1.3,4.9l0.1,0.1C424.4,149.8,425.3,148.3,426,146.6L426,146.6z"/>
	<path d="M417.2,141.9c0.1-1.7,1.5-2.5,2.6-3.6l-0.1-0.1C419.6,140,418.2,140.8,417.2,141.9L417.2,141.9z"/>
	<path d="M417.1,111.5c0-1.3,1.1-1.8,2.1-3.4C418.6,110.4,418.6,110.4,417.1,111.5L417.1,111.5z"/>
	<path d="M351.6,173c0.4-1.3,1.5-1.8,2.7-2l-0.1-0.1C353.5,171.7,352.9,172.8,351.6,173L351.6,173z"/>
	<path d="M404,100.5c-0.6,1.2-1.5,1.9-2.8,2l0.1,0.1C401.7,101.2,402.7,100.6,404,100.5L404,100.5z"/>
	<path d="M408.7,119.7c0.2,1.1-0.5,1.7-1.2,2.2l0.1,0.1C407.4,120.9,408.1,120.3,408.7,119.7L408.7,119.7z"/>
	<path d="M388,114.2c-0.2,0.6-0.5,1.2-0.8,2.1C387.2,115.1,387.2,115.1,388,114.2L388,114.2z"/>
	<path d="M415.6,143.1c-0.2,0.6-0.4,1.1-0.8,2.1C414.8,144,414.8,144,415.6,143.1L415.6,143.1z"/>
	<path d="M409.6,119.1c-0.1-0.8-0.2-1.6,0.6-2.1l-0.1-0.1C410.2,117.8,410.2,118.5,409.6,119.1L409.6,119.1z"/>
	<path d="M428.5,113.8c-0.1,0.1-0.1,0.2-0.2,0.2c-0.4,0-0.8,0-1.2,0c0,0,0-0.1,0-0.2c0.4-0.1,0.8-0.2,1.2-0.2
		C428.4,113.6,428.5,113.8,428.5,113.8z"/>
	<path d="M431.1,131.8c0-0.4,0.1-0.7,0.1-1c0.1,0.2,0.2,0.4,0.2,0.6C431.4,131.5,431.2,131.6,431.1,131.8z"/>
	<path d="M427.4,142.5c-0.2,0.7,0.4,1.6-0.8,1.9l0.1,0.1C426.9,143.9,427.2,143.2,427.4,142.5L427.4,142.5z"/>
	<path d="M426.6,144.4c0,0.8,0.3,1.7-0.6,2.2l0.1,0.1C426.3,146,426.5,145.3,426.6,144.4L426.6,144.4z"/>
	<path d="M351.5,172.9c-0.3,0.7-1,0.5-1.5,0.6l0.1,0.1C350.5,173.1,351,172.8,351.5,172.9L351.5,172.9z"/>
	<path d="M427.5,142.6c0-0.2,0.1-0.4,0.1-0.6c0-0.1,0.1-0.2,0.1-0.3c0.1,0.2,0.2,0.4,0.2,0.5C427.8,142.3,427.5,142.4,427.5,142.6
		L427.5,142.6z"/>
	<path d="M429.1,139.3c-0.5,0.5-0.6,0.6-0.7,0.7c0-0.1,0-0.2,0-0.3C428.4,139.6,428.5,139.6,429.1,139.3z"/>
	<path d="M429.1,138c0-0.1-0.1-0.2-0.1-0.3c0-0.1,0.2-0.1,0.3-0.2c0,0.1,0,0.2,0,0.3C429.3,137.9,429.2,137.9,429.1,138z"/>
	<path d="M430,135.6c0,0.1-0.1,0.2-0.1,0.3c-0.1-0.1-0.1-0.2-0.2-0.4c0,0,0.1-0.1,0.1-0.2C429.9,135.5,429.9,135.5,430,135.6z"/>
	<path d="M430.5,133.4c0.1,0,0.1,0,0.2,0c0,0.1,0,0.2,0,0.3c0,0.1-0.1,0.2-0.2,0.2C430.5,133.7,430.5,133.5,430.5,133.4z"/>
	<path d="M410.2,117.1c0-0.6-0.2-1.2,0.7-1.4l-0.1-0.1C410.9,116.2,410.9,116.8,410.2,117.1L410.2,117.1z"/>
	<path d="M411.6,115c0.2-0.8,0.8-0.7,1.4-0.6l-0.1-0.1C412.7,114.9,412.2,115,411.6,115L411.6,115z"/>
	<path d="M411.6,112.8c0.5-0.2,1-0.4,1.4-0.5l-0.1-0.1C412.4,112.4,412,112.6,411.6,112.8L411.6,112.8z"/>
	<path d="M428.2,130.1c0.2-0.2,0.4-0.5,0.6-0.7l-0.1-0.1C428.5,129.6,428.3,129.8,428.2,130.1L428.2,130.1z"/>
	<path d="M429.4,128.7c-0.2,0.2-0.5,0.5-0.7,0.7l0.1,0.1C429,129.2,429.2,129,429.4,128.7L429.4,128.7z"/>
	<path d="M429.5,128.8C429.4,128.7,429.4,128.7,429.5,128.8L429.5,128.8z"/>
	<path d="M405.3,123.9c-0.2,0.2-0.5,0.5-0.7,0.7l0.1,0.1C404.7,124.2,404.9,124,405.3,123.9L405.3,123.9z"/>
	<path d="M406,123.2c-0.2,0.2-0.5,0.5-0.7,0.7l0.1,0.1C405.4,123.5,405.6,123.3,406,123.2L406,123.2z"/>
	<path d="M406.1,123.3c0-0.5,0.2-0.7,0.7-0.7l-0.1-0.1C406.5,122.8,406.3,123,406.1,123.3L406.1,123.3z"/>
	<path d="M409.5,119.1c-0.1,0.4-0.3,0.7-0.8,0.6l0.1,0.1C409,119.5,409.3,119.3,409.5,119.1L409.5,119.1z"/>
	<path d="M406.8,122.6c0-0.5,0.2-0.8,0.7-0.7l-0.1-0.1C407.2,122.1,407,122.3,406.8,122.6L406.8,122.6z"/>
	<path d="M423.2,134.9c-0.2,0.2-0.5,0.4-0.7,0.7l0.1,0.1C422.9,135.4,423.1,135.2,423.2,134.9L423.2,134.9z"/>
	<path d="M423.3,135c0.2-0.2,0.5-0.5,0.7-0.7l-0.1-0.1C423.7,134.4,423.5,134.7,423.3,135L423.3,135z"/>
	<path d="M424.6,133.5c-0.2,0.2-0.5,0.5-0.7,0.7l0.1,0.1C424.2,134.1,424.5,133.8,424.6,133.5L424.6,133.5z"/>
	<path d="M425.3,132.8c-0.2,0.2-0.5,0.5-0.7,0.7l0.1,0.1C424.9,133.4,425.2,133.2,425.3,132.8L425.3,132.8z"/>
	<path d="M425.4,132.9c0.2-0.2,0.5-0.5,0.7-0.7l-0.1-0.1C425.8,132.4,425.5,132.6,425.4,132.9L425.4,132.9z"/>
	<path d="M426.1,132.2c0.2-0.2,0.5-0.5,0.7-0.7l-0.1-0.1C426.5,131.7,426.2,131.9,426.1,132.2L426.1,132.2z"/>
	<path d="M397.7,131.5c-0.1,0.2-0.2,0.3-0.3,0.5C397.1,131.5,397.4,131.5,397.7,131.5L397.7,131.5z"/>
	<path d="M426.8,131.5c0.2-0.2,0.5-0.5,0.7-0.7l-0.1-0.1C427.1,131,426.9,131.2,426.8,131.5L426.8,131.5z"/>
	<path d="M427.4,130.8c0.2-0.2,0.5-0.5,0.7-0.7l-0.1-0.1C427.8,130.3,427.6,130.5,427.4,130.8L427.4,130.8z"/>
	<path d="M413.7,111.5c0-0.1,0.1-0.2,0.1-0.3C413.8,111.3,413.7,111.3,413.7,111.5L413.7,111.5z"/>
	<path d="M392.9,108.7c0.1-0.1,0.2-0.2,0.3-0.3c0,0.1-0.1,0.2-0.1,0.2C393,108.7,392.9,108.6,392.9,108.7L392.9,108.7z"/>
	<path d="M401.2,102.5c-0.1,0.1-0.2,0.3-0.3,0.4c0-0.1,0-0.2,0-0.2C401,102.6,401.1,102.6,401.2,102.5L401.2,102.5z"/>
	<path d="M408.7,115.6C408.7,115.6,408.8,115.6,408.7,115.6L408.7,115.6z"/>
	<path d="M411.5,114.9c0.1,0.5-0.2,0.7-0.7,0.7c0,0,0.1,0.1,0.1,0.1C410.8,115.1,411.1,114.9,411.5,114.9
		C411.6,115,411.5,114.9,411.5,114.9z"/>
	<path d="M409.4,114.9c-0.2,0.2-0.5,0.5-0.7,0.7l0.1,0.1C409,115.4,409.3,115.2,409.4,114.9L409.4,114.9z"/>
	<path d="M410.1,114.2c-0.2,0.2-0.5,0.5-0.7,0.7l0.1,0.1C409.7,114.7,409.9,114.5,410.1,114.2L410.1,114.2z"/>
	<path d="M413,114.3c0-0.1,0.1-0.2,0.1-0.3C413,114.1,413,114.2,413,114.3L413,114.3z"/>
	<path d="M410.2,114.3c0.2-0.2,0.4-0.5,0.7-0.7l-0.1-0.1C410.5,113.7,410.3,114,410.2,114.3L410.2,114.3z"/>
	<path d="M388.1,114.3c0.2-0.2,0.5-0.4,0.7-0.7l-0.1-0.1C388.7,114,388.5,114.3,388.1,114.3L388.1,114.3z"/>
	<path d="M410.8,113.6c0.2-0.2,0.5-0.5,0.7-0.7l-0.1-0.1C411.2,113,411,113.2,410.8,113.6L410.8,113.6z"/>
	<path d="M389.5,112.8c-0.2,0.2-0.5,0.4-0.7,0.7l0.1,0.1C388.8,113.1,389,112.8,389.5,112.8L389.5,112.8z"/>
	<path d="M417,111.4c-0.1,0.2-0.1,0.4-0.2,0.5C416.3,111.5,416.8,111.6,417,111.4L417,111.4z"/>
	<path d="M413.6,111.4c-0.2,0.3-0.5,0.5-0.7,0.8l0.1,0.1C413.2,112,413.5,111.8,413.6,111.4L413.6,111.4z"/>
	<path d="M354.4,170.9c0.2-0.2,0.4-0.5,0.6-0.7c0,0-0.1-0.1-0.1-0.1C354.7,170.4,354.5,170.6,354.4,170.9L354.4,170.9z"/>
	<path d="M355.6,169.5c-0.2,0.2-0.5,0.4-0.7,0.7l0.1,0.1C355.2,170,355.5,169.8,355.6,169.5L355.6,169.5z"/>
	<path d="M355.7,169.5c0.2-0.2,0.4-0.5,0.6-0.7l-0.1-0.1C356.1,169,355.8,169.2,355.7,169.5L355.7,169.5z"/>
	<path d="M357,168.1c-0.2,0.2-0.5,0.4-0.7,0.7l0.1,0.1C356.6,168.6,356.8,168.3,357,168.1L357,168.1z"/>
	<polygon points="357,168.1 357.2,167.9 357,168.1 	"/>
	<polygon points="389.4,138.4 389.3,138.6 389.5,138.5 	"/>
	<path d="M420.4,137.6c0,0.5-0.2,0.7-0.7,0.7l0.1,0.1C420,138.2,420.3,137.9,420.4,137.6L420.4,137.6z"/>
	<path d="M389.5,138.5c0.2-0.2,0.4-0.5,0.6-0.7l-0.1-0.1C389.9,137.9,389.6,138.2,389.5,138.5L389.5,138.5z"/>
	<path d="M420.5,137.7c0.2-0.2,0.5-0.4,0.7-0.7l-0.1-0.1C421.1,137.4,420.9,137.7,420.5,137.7L420.5,137.7z"/>
	<path d="M390.8,137c-0.3,0.2-0.5,0.4-0.8,0.7l0.1,0.1C390.4,137.5,390.6,137.3,390.8,137L390.8,137z"/>
	<path d="M421.2,137.1c0.2-0.2,0.4-0.5,0.7-0.7l-0.1-0.1C421.9,136.7,421.6,137,421.2,137.1L421.2,137.1z"/>
	<path d="M390.8,137.1c0.1,0,0.1-0.1,0.2-0.1C391,137,390.9,137,390.8,137.1L390.8,137.1z"/>
	<path d="M422.6,135.6c0,0.5-0.3,0.7-0.7,0.7l0.1,0.1C422.2,136.1,422.4,135.9,422.6,135.6L422.6,135.6z"/>
	<path d="M392.9,152.9c0.1-0.1,0.2-0.2,0.4-0.2c0,0.1-0.1,0.1-0.1,0.2C393,152.8,392.9,152.8,392.9,152.9L392.9,152.9z"/>
	<path d="M416.4,142.5c-0.1,0.4-0.3,0.7-0.8,0.6l0.1,0.1C415.9,143,416.2,142.8,416.4,142.5L416.4,142.5z"/>
	<path d="M416.4,142.6c0-0.5,0.2-0.8,0.8-0.7l-0.1-0.1C416.9,142.1,416.6,142.3,416.4,142.6L416.4,142.6z"/>
	<path d="M576.5,165.2c0.2,0.8,0.7,0.8,1.4,0.7c1,1.5,2.7,1.9,4.2,2.7c0.6,0.3,1.2,0.6,1.6,1.1c0.7,0.7,0.3,2-0.6,2.3
		c-0.5,0.2-1.1,0.2-1.7,0.3c-0.5,0.1-1.3,0-1.6,0.3c-1.6,1.6-3.4,1.1-5.1,0.5c-1.8-0.6-3.6-1.4-5.5-2c-1.3-0.4-2.6-0.7-3.9-1.1
		c1.5-0.9,3-1,4.6-0.4c1.8,0.7,3.6,1.4,5.5,2c0.7,0.2,1.6,0.2,2.3,0.2c0.2,0,0.4-0.5,0.6-0.7c-2.5-1.1-4.8-2.2-7.3-3.3
		c-0.7-0.3-1.5-0.4-2.3-0.6c-1.2-0.3-2.4-0.6-3.5-1.1c2-0.4,4-0.2,6,0.5c2.1,0.8,4.3,1.7,6.4,2.5c0.6,0.3,1.2,0.6,1.7,1.1
		c0.8,0.7,1.6,0.6,2.7,0c-0.6-0.3-1.1-0.6-1.6-0.9c-0.7-0.3-1.5-0.6-2.2-1c-2-1.4-4.3-2.1-6.7-2.6c-1.5-0.3-3.1-0.6-4.6-1.8
		c1.3-0.7,2.4-0.2,3.5-0.1c1.4,0.1,2.7,0.3,4.1,0.4C574.9,165.4,575.8,165,576.5,165.2z"/>
	<path d="M525.5,125.2c-0.4-0.2-0.9-0.3-1.1-0.6c-1-1.3-2-2.7-3-4.1c-0.7-0.9-1.3-1.8-2-2.7c0-0.6,0.6-0.9,0.9-0.7
		c2.2,1.5,4.9,2.4,6.5,4.8l0.1-0.1c-1.2,0.7-2.1-0.7-3.4-0.4c0.6,0.8,1.2,1.5,1.6,2.3C525.2,124.2,525.3,124.7,525.5,125.2
		L525.5,125.2z"/>
	<path d="M500.1,87.1c0.3,0.2,0.7,0.2,0.8,0.5c0.3,0.5,0.5,1,0.7,1.6c0.7,1.9,2.1,2.9,4.1,3.2c1,0.1,2,0.3,3.1,0.5
		c0.6,0.1,1.1,0.3,1.3,1.1c-0.3,0.1-0.5,0.4-0.8,0.4c-1.6-0.2-3.2-0.3-4.7-0.7C501.6,92.8,500.2,90.8,500.1,87.1z"/>
	<path d="M516.3,129.6c0.6,0.7,1.2,1.3,1.8,2c0.5,0.5,0.9,1.1,1.5,1.3c1.3,0.3,1.9,1.3,2.5,2.2c0.9,1.6,1.9,3.1,3.3,4.4
		c0.1,0.1,0,0.4,0.1,0.6c-1,0.1-1.3-0.8-1.8-1.3c-1.7-2-3.2-4.1-5.5-5.5C517,132.6,516.2,131.4,516.3,129.6z"/>
	<path d="M513.1,75.4c1.6-3.1,1.5-6,1.3-9.7c0.7,1.1,1.1,1.4,1.2,1.9c0.5,2.5,0.1,5-1.1,7.3c-0.1,0.2-0.3,0.3-0.4,0.5
		C513.9,75.4,513.7,75.4,513.1,75.4z"/>
	<path d="M495,69.4c-1-0.4-1.7-1.1-2.1-2.1c-0.7-1.6-1.3-3.2-1.9-4.8c-0.1-0.3,0.1-0.6,0.2-1.2c0.4,0.5,0.7,0.8,0.9,1.2
		c0.9,2,1.8,3.9,2.7,5.9C495,68.8,494.9,69.1,495,69.4L495,69.4z"/>
	<path d="M504.6,48.8c2.1-0.3,3.5,0.3,5,1.7C507.5,51,506.2,50.1,504.6,48.8z"/>
	<path d="M519.1,121.5c-1.6-1-1.2-2.1-1.2-3.7C519.1,119,519,120.1,519.1,121.5z"/>
	<path d="M504.9,107.2c0.5,1.1,1.2,2.1,1,3.7C504.5,109.7,504.5,108.5,504.9,107.2z"/>
	<path d="M547.6,165.9c-1-1.1-0.5-1.8,0.1-2.7c0.3,0.2,0.6,0.2,0.7,0.4C548.7,164.5,548.4,165.2,547.6,165.9z"/>
	<path d="M494.9,69.5c1.4,0.1,2.1,1.1,2.6,2.3c-0.4,0.5-0.8,0.3-1.1-0.1C495.9,70.9,495.5,70.2,494.9,69.5L494.9,69.5z"/>
	<path d="M525.4,125.3c0.7,0.9,1.6,1.7,2.3,3.3C525.8,127.1,525.8,127.1,525.4,125.3L525.4,125.3z"/>
	<path d="M526.7,121.9c1.2-0.2,1.8,0.4,2.1,1.5c-0.4,0.5-0.8,0.4-1.1,0.1C527.4,122.9,527.1,122.3,526.7,121.9L526.7,121.9z"/>
	<path d="M517.8,140.5c-0.2-0.2-0.5-0.5-0.7-0.7c0.1-0.3,0.2-0.6,0.3-1.1c0.9,0.8,1.7,1.4,1.8,2.5c-0.3,0-0.5,0-0.8,0
		C518.2,141,518,140.7,517.8,140.5z"/>
	<path d="M503.6,101.7c0.6,0.9,1.1,1.5,0.8,2.5C503.3,103.2,503.3,103.2,503.6,101.7z"/>
	<path d="M511,95.1c0.7,0.5,1.3,0.9,2.5,1.7C511.7,96.9,511,96.4,511,95.1z"/>
	<path d="M529.4,130.9c0.8,0.1,1.2,0.5,1.2,1.3C529.5,132,529.5,132,529.4,130.9z"/>
	<path d="M487.3,66.2c-0.8-0.5-1.1-1.1-1-2.2C487.4,64.6,487.7,65.2,487.3,66.2z"/>
	<path d="M531,135.5c1,0.1,1.5,0.3,0.9,1.2C531.6,136.4,531.4,136.1,531,135.5z"/>
	<path d="M519.1,141.9c0-0.3,0-0.5,0-0.8c1,0.1,1.8,0.4,2.1,1.5l0.1-0.1C520.6,142.3,519.9,142.1,519.1,141.9z"/>
	<path d="M541.4,165.2c-0.8,0.2-1.3-0.3-1.5-1c0.5,0.4,0.9,0.8,1.4,1.1L541.4,165.2z"/>
	<path d="M498.6,73.8c0.2-0.1,0.4-0.3,0.5-0.2c0.3,0.2,0.6,0.5,0.8,0.8c0,0-0.2,0.2-0.2,0.2c-0.4-0.2-0.7-0.4-1-0.6
		C498.7,74,498.7,73.9,498.6,73.8z"/>
	<path d="M521.2,142.6c0.8-0.2,1.2,0.2,1.6,0.9C521.9,143.5,521.4,143.3,521.2,142.6L521.2,142.6z"/>
	<path d="M534.9,160.6c0.6-0.2,1.2-0.1,1.5,0.6l0.1-0.1C535.9,161.2,535.4,161,534.9,160.6L534.9,160.6z"/>
	<polygon points="513.7,98.1 513.4,98 513.7,98 	"/>
	<path d="M512.9,77.2c-0.1,0.1-0.2,0.2-0.4,0.3c-0.1-0.2-0.1-0.3-0.2-0.5c0-0.1,0.1-0.1,0.2-0.2C512.7,77,512.8,77.1,512.9,77.2z"/>
	<polygon points="515.4,100.9 515.4,100.7 515.5,100.7 	"/>
	<path d="M541.3,165.2c0.1,0.1,0.1,0.3,0.2,0.4c-0.1-0.1-0.2-0.1-0.2-0.2c0-0.1,0-0.2,0.1-0.3L541.3,165.2z"/>
	<path d="M536.4,161.2c0.1,0.1,0.2,0.2,0.3,0.3c-0.1,0-0.2-0.1-0.2-0.1C536.5,161.3,536.5,161.2,536.4,161.2L536.4,161.2z"/>
	<path d="M447,116.1c0.1-0.2,0-0.5,0.2-0.6c2.3-2,4.8-3.4,7.8-4.2c1.8-0.5,3.6-1.5,5.3-2.3c0.6-0.3,1.1-0.7,1.7-1
		c0.8,0.6,0.2,0.9-0.1,1.1c-1.6,1.4-3.4,2.4-5.5,2.8c-3,0.6-5.7,1.7-7.9,3.8C448.1,116.2,447.6,116.6,447,116.1z"/>
	<path d="M440.2,109.4c-0.1,3-0.9,6.9-2,8.8c-0.3,0.5-0.6,1-1.3,0.8c-0.1-0.2-0.3-0.4-0.3-0.5c1-3,1.9-6,2.9-9
		c0-0.1,0.2-0.1,0.3-0.1C440,109.3,440.1,109.4,440.2,109.4z"/>
	<path d="M463.5,61.6c0.2-2.8,0.9-5.1,2.6-7.1c0.4-0.5,0.8-1.2,1.8-0.6c-0.7,1.2-1.5,2.4-2.2,3.6C465,58.7,464.9,60.3,463.5,61.6z"
		/>
	<path d="M466.5,93.8c0.2-0.5,0.2-1.3,0.5-1.4c1.3-0.5,1.7-1.7,2.3-2.7c0.1-0.1,0.4-0.2,0.7-0.3C470.5,92,468.4,92.8,466.5,93.8z"/>
	<path d="M473.9,92.2c0.5-1.3,0.8-2.1,1.1-2.9c0.3-0.7,0.5-1.4,0.8-2.3c0.9,0.9,0.6,1.7,0.4,2.3C475.9,90.3,475.7,91.5,473.9,92.2z"
		/>
	<path d="M441.1,104.9c-1-0.7-1.1-1.4-0.5-2.2c0.1-0.1,0.4-0.2,0.6-0.2c0.2,0,0.5,0.3,0.5,0.4C441.5,103.6,441.3,104.2,441.1,104.9z
		"/>
	<path d="M442.2,119.2c0.5-0.3,1.1-0.6,1.7-0.9C443.9,119.6,443,119.3,442.2,119.2z"/>
	<path d="M463.3,63.3c-0.1,0.2-0.2,0.5-0.3,0.7c-0.1,0.1-0.4,0.1-0.5,0c-0.1-0.1-0.2-0.4-0.2-0.5c0.1-0.3,0.4-0.4,0.6-0.7
		C463,62.9,463.1,63.1,463.3,63.3z"/>
	<path d="M449,72.1c0-0.7,0-1,0.1-1.3c0-0.1,0.1-0.2,0.2-0.2c0.1,0.1,0.3,0.3,0.3,0.4C449.5,71.2,449.3,71.5,449,72.1z"/>
	<path d="M461.9,70.2c0.2,0.2,0.4,0.4,0.5,0.5c-0.2,0.2-0.4,0.4-0.6,0.5c-0.1-0.1-0.2-0.2-0.2-0.2C461.6,70.8,461.7,70.5,461.9,70.2
		z"/>
	<path d="M446.4,75.5c-0.1-0.9-0.1-0.9,0.5-1.4C447.1,74.8,447.1,74.8,446.4,75.5z"/>
	<path d="M468.3,85.9c-0.2-0.3-0.4-0.6-0.4-0.6c0.2-0.2,0.4-0.4,0.7-0.5c0.1,0,0.3,0.1,0.5,0.2C468.9,85.3,468.6,85.6,468.3,85.9z"
		/>
	<path d="M471.5,84.9c0.5-0.3,0.7-0.6,1-0.7c0.3-0.1,0.6,0,0.9,0c0,0,0.1,0.2,0,0.2c-0.2,0.2-0.4,0.5-0.7,0.6
		C472.4,85.2,472.1,85,471.5,84.9z"/>
	<path d="M440.3,120c-0.1,0.2-0.2,0.4-0.4,0.4c-0.2,0.1-0.4-0.1-0.6-0.1c0.1-0.2,0.2-0.4,0.3-0.5C439.9,119.9,440.1,120,440.3,120z"
		/>
	<path d="M483.6,94.5c-0.2,0.2-0.4,0.3-0.6,0.4c-0.1-0.2-0.3-0.4-0.4-0.7c0,0,0.2-0.2,0.2-0.2C483.1,94.1,483.4,94.3,483.6,94.5z"/>
	<path d="M462.5,66.8c-0.1,0.1-0.3,0.2-0.4,0.2c0-0.2-0.1-0.4,0-0.5c0-0.1,0.1-0.1,0.2-0.2C462.4,66.4,462.4,66.6,462.5,66.8z"/>
	<path d="M532,170.8c-2.4-2.4-3.7-5.1-6-7.5c-0.3,1.3-0.5,2.2-0.8,3.1c-0.1,0-0.3,0-0.4,0c0-1.1-0.2-2.3-0.1-3.4
		c0.1-1.3-0.3-2.4-1.1-3.5c-1-1.5-2-3.1-2.9-4.7c-0.2-0.3-0.1-0.8-0.2-1.4c0.4,0.4,0.6,0.5,0.8,0.7c3.6,5.3,7.1,10.6,10.7,16
		C532.1,169.9,532.1,170,532,170.8z"/>
	<path d="M590.7,188c1.9-1.5,3.5-1.3,4.9-1.5c1.5-0.3,2.9-0.5,4.4-0.8c1.5-0.3,2.9-0.7,4.3-1.1c1.4-0.3,2.8-1,4.2-1
		c0.2,1.1-0.6,1-1,1.2C602.3,186.7,597,187.9,590.7,188z"/>
	<path d="M582.8,187.8c-0.6,0.1-1.2,0.2-1.8,0.2c-3,0.1-6,0.1-9,0.1c-1.8,0-3.7-0.1-5.5,0.4c-0.7,0.2-1.6,0.3-2.1-0.9
		c4.8-0.7,9.6-0.4,14.4-0.6C580.2,187,581.5,187,582.8,187.8z"/>
	<path d="M595.5,199.5c-0.6-2.6-0.7-7.2,0-9.5c0.9,0.5,0.7,1.4,0.7,2.1c-0.1,2.4,0.7,4.9-0.3,7.3
		C595.8,199.5,595.6,199.5,595.5,199.5z"/>
	<path d="M606.1,196c-1.1-2.7-0.4-5.2,0.4-8c0.4,0.4,0.8,0.6,0.8,0.8c-0.1,1.7-0.3,3.4-0.6,5C606.6,194.6,606.3,195.3,606.1,196z"/>
	<path d="M555,186c-1.6-0.1-3.2-0.2-4.8-0.3c-0.3,0-0.5-0.3-1.2-0.7c1.2,0.2,1.9,0.3,2.7,0.3c0.8,0.1,1.6,0.1,2.4,0.2
		C554.5,185.6,554.7,185.9,555,186L555,186z"/>
	<path d="M574.2,193.3c0,1.1,0,2.1,0,3.2C573,195.3,573,194.7,574.2,193.3z"/>
	<path d="M555,186.1c0.9,0,1.8,0,2.7,0C556.7,186.5,555.8,186.7,555,186.1L555,186.1z"/>
	<path d="M568,189.9c0,0.4,0,0.8-0.1,1.2c-0.1,0-0.2,0-0.3,0c0-0.4,0-0.8,0-1.2C567.8,189.9,567.9,189.9,568,189.9z"/>
	<polygon points="534.4,175 534.5,175.1 534.5,174.9 	"/>
	<path d="M534.5,174.9c-0.2-0.2-0.5-0.5-0.7-0.7l-0.1,0.1C533.9,174.5,534.2,174.8,534.5,174.9L534.5,174.9z"/>
	<path d="M533.8,174.2c-0.1-0.1-0.3-0.1-0.4-0.2c0,0,0.1,0,0.1,0.1C533.6,174.2,533.6,174.2,533.8,174.2L533.8,174.2z"/>
	<path d="M318.7,187.1c-0.1-0.5-0.2-0.8-0.1-0.9c2.5-2.8,5.1-5.6,7.6-8.4c0.1-0.1,0.4,0,0.6,0.1
		C325.7,180.3,321.6,184.9,318.7,187.1z"/>
	<path d="M269.9,220c0.1,0.5,0.4,0.9,0.3,1.1c-1.1,2.1-2.5,4-4.4,5.4c-0.2,0.1-0.6-0.2-1.1-0.3C266.2,223.9,267.6,221.7,269.9,220z"
		/>
	<path d="M343,186.5c-0.2-0.1-0.4-0.2-0.5-0.4c-0.3-1.1-0.1-2,0.8-2.8c0.1-0.1,0.4-0.1,0.6-0.1c0.2,0.1,0.4,0.3,0.5,0.4
		c0.1,1.1-0.2,2-1,2.8C343.3,186.6,343.1,186.5,343,186.5z"/>
	<path d="M340.4,179.8c-0.3-0.1-0.6-0.3-0.6-0.3c0.1-0.3,0.2-0.6,0.3-0.8c0.2,0.1,0.5,0.3,0.7,0.4
		C340.7,179.3,340.5,179.5,340.4,179.8z"/>
	<path d="M315.2,190.9c0.5-0.7,0.7-1,0.9-1.2c0.1-0.1,0.4,0.1,0.6,0.1c-0.1,0.1-0.1,0.2-0.2,0.3C316.2,190.3,316,190.4,315.2,190.9z
		"/>
	<path d="M311.2,193.9c0.7-0.9,0.8-1.2,1-1.4c0.2-0.1,0.6-0.1,0.9-0.1c-0.1,0.3-0.1,0.6-0.3,0.8
		C312.7,193.4,312.3,193.5,311.2,193.9z"/>
	<path d="M271,217.9c0.4-0.3,0.8-0.5,1.1-0.7c0,0,0.2,0.2,0.2,0.2c-0.2,0.3-0.3,0.5-0.6,0.7C271.7,218.3,271.4,218.1,271,217.9z"/>
	<path d="M342.4,176.9c-0.1,0.2-0.1,0.5-0.3,0.5c-0.1,0.1-0.4-0.1-0.6-0.2c0.1-0.2,0.2-0.4,0.3-0.5
		C342,176.7,342.3,176.8,342.4,176.9z"/>
	<path d="M305,197.2c0.1,0,0.2-0.1,0.3-0.1c0,0.1,0.1,0.2,0.1,0.3c-0.1,0-0.2,0-0.3,0C305,197.4,305,197.3,305,197.2z"/>
	<path d="M548.4,38.9c1.4-0.4,2.2-0.3,3.1,0.2c1.9,1.1,3.4,2.6,4.8,4.3c0.1,0.2,0.3,0.4,0.2,0.6c0,0.3-0.1,0.7-0.3,0.9
		c-0.2,0.2-0.7,0.2-0.9,0.1c-0.5-0.4-1-0.9-1.4-1.4c-1.1-1.7-2.2-3.2-4.3-3.6C549.2,39.9,548.9,39.4,548.4,38.9z"/>
	<path d="M548.7,43.4c2.1-0.2,3.3,0.7,4.6,1.5c0.2,1-0.4,1.4-1.1,1.5c-0.5,0.1-1.1-0.2-1.5-0.6C550,45.2,549.5,44.3,548.7,43.4z"/>
	<path d="M526.1,48c0-1.3-0.1-2.5,0-3.8c0.1-1.6,0.2-1.7,2.3-3.2c0,0.4,0,0.7-0.1,1c-0.8,1.5-1.6,3-1.5,4.8c0,0.3-0.5,0.7-0.8,1
		L526.1,48z"/>
	<path d="M526,47.9c-0.1,0.2-0.1,0.4-0.2,0.6c-0.6-0.5,0.1-0.4,0.3-0.5L526,47.9z"/>
	<path d="M536.3,44.9c-0.1,0.1-0.1,0.1-0.2,0.2c0-0.1-0.1-0.1-0.1-0.2c0-0.1,0.1-0.1,0.2-0.2C536.2,44.8,536.2,44.8,536.3,44.9z"/>
	<path d="M535.4,42.4c-0.1-0.1-0.2-0.2-0.2-0.2c0-0.1,0.1-0.1,0.2-0.2c0.1,0.1,0.2,0.1,0.2,0.2C535.6,42.2,535.5,42.3,535.4,42.4z"
		/>
	<path d="M514.4,238.7c1.8-0.5,3.5-0.4,5.3-0.1C517.9,239.2,516.2,239,514.4,238.7z"/>
	<path d="M541.1,225.8c-0.3-1.2-0.2-2.4,0-3.7C541.1,223.4,541.1,224.6,541.1,225.8z"/>
	<path d="M562.7,238.1c2-0.5,2-0.5,3.7-0.1C564.9,238.6,564.9,238.6,562.7,238.1z"/>
	<path d="M431.1,117.3c-0.2,0.1-0.3,0.3-0.5,0.3c-0.1,0-0.2-0.2-0.3-0.3c0.1-0.1,0.2-0.2,0.2-0.2
		C430.7,117.1,430.9,117.2,431.1,117.3z"/>
	<path d="M461.4,428.3c-0.2,0.3-0.3,0.7-0.6,0.9c-1.1,0.6-2.2,1.2-3.3,1.8c-3.4,1.8-7,3.4-9.6,6.5c-0.2,0.3-0.8,0.3-1.2,0.3
		c-0.4-0.1-0.6-0.9-0.4-1.5c0.2-0.4,0.4-0.8,0.7-1.2c0.6-0.7,1.3-1.4,2-1.9c3.3-2.3,6.8-4.1,10.6-5.4c0.3-0.1,0.7-0.2,1-0.1
		C460.9,427.8,461.1,428.1,461.4,428.3z"/>
	<path d="M419.8,455.7c-0.2,0.4-0.4,0.8-0.7,1.1c-5.3,4.8-9.5,10.6-13.7,16.3c-2.1,2.9-4.3,5.7-6.5,8.5c-0.4,0.5-0.7,1.2-1.8,0.9
		c5.2-6.8,10.2-13.6,15.4-20.3c1.6-2.1,3.7-3.8,5.6-5.6C418.6,456.2,419.3,456.1,419.8,455.7L419.8,455.7z"/>
	<path d="M445.4,415.7c0.2,0.8,0.3,1.3,0.4,1.7c-0.7,0.5-1.4,0.3-1.9-0.1c-0.7-0.6-0.9-1.5-0.2-2.1c0.7-0.6,1.4-1.2,2.3-1.5
		c2.6-1,5.2-1.8,7.8-2.6c0.3-0.1,0.7,0.1,1.6,0.3c-1.8,1.4-3.5,1.6-5,2.2C448.8,414.3,447.2,414.9,445.4,415.7z"/>
	<path d="M419.8,479.7c0-0.5,0-1,0.1-1.4c1.2-2.8,2.5-5.7,3.8-8.5c0.3-0.6,0.8-1,1.3-1.5c0.2,0.2,0.3,0.4,0.3,0.4
		c-1.6,3.5-3.2,7.1-4.8,10.6C420.5,479.5,420.2,479.5,419.8,479.7z"/>
	<path d="M450.9,405.3c-1.2,0.1-2.5,0-3.7,0.3c-1.3,0.3-2.6,0.8-3.9,1.3c-1.2,0.4-2.3,0.9-3.9,1.6
		C442.4,405.4,446.9,404.2,450.9,405.3z"/>
	<path d="M396.8,452.9c2.4-2,5.3-3.2,8.1-4.4c0.4-0.2,0.8-0.1,1.6-0.3C403.9,450.1,399,452.5,396.8,452.9z"/>
	<path d="M446.1,444.1c0.7-1.6,2.4-1.9,3.8-2.7c0.2-0.1,0.6,0.1,1.2,0.2C449.3,442.7,448,444,446.1,444.1L446.1,444.1z"/>
	<path d="M465.4,426.1c-0.5,0.5-0.9,1-1.4,1.4c-0.5,0.4-0.7,0.9-0.6,1.5c-0.2-0.2-0.5-0.4-0.7-0.7c-0.2-0.2-0.3-0.6-0.5-0.9
		C463,426.3,464.4,426.6,465.4,426.1z"/>
	<path d="M430.2,435.1c0.9-1.6,2.4-2.4,4.1-2.8l-0.1-0.1C433,433.8,432.1,434.3,430.2,435.1L430.2,435.1z"/>
	<path d="M453.1,420.7c0.2-1.6,1.6-1.9,2.8-3C455.4,419.3,455.4,419.3,453.1,420.7L453.1,420.7z"/>
	<path d="M437.7,430.2c-0.8,1.2-1.9,2-3.4,2.1l0.1,0.1C435.2,431.1,436.4,430.6,437.7,430.2L437.7,430.2z"/>
	<path d="M378.5,464.1c-1,0.7-2,1.6-3.7,1.2C376.1,464.6,377.2,463.9,378.5,464.1L378.5,464.1z"/>
	<path d="M462.6,424c0.6,0.2,1.1,0.5,2.4,1.1c-1.3,0.1-1.9,0.2-2.6,0.3c0.2-0.6,0.3-1,0.4-1.4L462.6,424z"/>
	<path d="M444,426.1c-0.6,1.1-1.5,1.7-2.7,2l0.1,0.1C441.8,427,442.8,426.4,444,426.1L444,426.1z"/>
	<path d="M445.4,424c0.2-0.7,0.5-1.4,0.7-2.1L446,422c0.7,0,1.4,0,2.1-0.1l-0.1-0.1C447.3,422.9,446.4,423.5,445.4,424L445.4,424z"
		/>
	<path d="M447.4,448.8c-0.5,1.2-1.5,1.8-2.7,2.1l0.1,0.1C445.2,449.8,446.3,449.3,447.4,448.8L447.4,448.8z"/>
	<path d="M425.3,415.7c-0.4,1-1.3,1.4-2.2,2C423.5,416.4,424.2,415.9,425.3,415.7L425.3,415.7z"/>
	<path d="M428,413.6c-0.4,1.4-1.5,1.8-2.7,2.1l0.1,0.1C425.9,414.5,426.9,414.1,428,413.6L428,413.6z"/>
	<path d="M428.1,413.7c0.4-0.9,1.1-1.4,2.1-1.3l-0.1-0.1C429.7,413.2,429.1,413.7,428.1,413.7L428.1,413.7z"/>
	<path d="M452.9,458.5c0.3-0.8,0.5-1.6,1.5-1.9l-0.1-0.1C454.1,457.3,454,458.3,452.9,458.5L452.9,458.5z"/>
	<path d="M455,455.1c0.3-0.8,0.6-1.6,1.5-1.9l-0.1-0.1C456.2,453.9,455.9,454.7,455,455.1L455,455.1z"/>
	<path d="M459.9,447.5c-0.3,0.8-0.5,1.7-1.5,1.9l0.1,0.1C458.7,448.7,459,447.9,459.9,447.5L459.9,447.5z"/>
	<path d="M447.4,448.9c0.4-0.9,1.1-1.4,2.1-1.3l-0.1-0.1C449,448.3,448.4,448.8,447.4,448.9L447.4,448.9z"/>
	<path d="M455.6,443.3c-0.3,0.9-1.1,1.2-2,1.5l0.1,0.1C454,443.8,454.8,443.5,455.6,443.3L455.6,443.3z"/>
	<path d="M455.7,443.4c0.4-0.9,1.2-1.1,2-1.5l-0.1-0.1C457.5,443,456.6,443.3,455.7,443.4L455.7,443.4z"/>
	<path d="M445.3,423.9c0.1,1.1-0.4,1.7-1.3,2.2l0.1,0.1C444,425.2,444.6,424.5,445.3,423.9L445.3,423.9z"/>
	<path d="M439.3,429.7c0.2-1.1,1-1.4,2-1.4l-0.1-0.1C440.8,429,440,429.3,439.3,429.7L439.3,429.7z"/>
	<path d="M459.1,441.2c-0.2,0.8-0.8,0.8-1.4,0.6l0.1,0.1C458.2,441.7,458.7,441.5,459.1,441.2L459.1,441.2z"/>
	<path d="M460.6,440.6c-0.5,0.2-1,0.4-1.5,0.6l0.1,0.1C459.4,440.6,460.1,440.7,460.6,440.6L460.6,440.6z"/>
	<path d="M461.3,439.9c0.2-0.1,0.4-0.3,0.2-0.2C461.7,439.7,461.4,439.8,461.3,439.9L461.3,439.9z"/>
	<path d="M448.1,422c0.1-0.1,0.2-0.4,0.4-0.4c0.1,0,0.3,0.1,0.4,0.2c-0.1,0-0.2,0.1-0.3,0.1C448.5,421.9,448.3,421.9,448.1,422
		L448.1,422z"/>
	<path d="M439.2,429.6c-0.4,0.5-0.9,0.7-1.5,0.6l0.1,0.1C438.1,429.6,438.6,429.5,439.2,429.6L439.2,429.6z"/>
	<path d="M454.4,456.6c-0.1-0.6,0-1.2,0.6-1.5l-0.1-0.1C455,455.6,454.9,456.1,454.4,456.6L454.4,456.6z"/>
	<path d="M452.8,458.4c0.2,0.7,0.2,1.2-0.6,1.5l0.1,0.1C452.5,459.5,452.7,459,452.8,458.4L452.8,458.4z"/>
	<path d="M456.5,453.1c0.2-0.5,0.4-1,0.6-1.5l-0.1-0.1C457,452.1,457,452.7,456.5,453.1L456.5,453.1z"/>
	<path d="M380.5,462.6c0.4-0.2,0.9-0.4,1.3-0.6l0-0.1C381.4,462.2,380.9,462.4,380.5,462.6L380.5,462.6z"/>
	<path d="M444,451.6c-0.1,0.2-0.2,0.3-0.3,0.5c0,0-0.2,0-0.3,0c0-0.1,0.1-0.4,0.1-0.4C443.7,451.7,443.9,451.7,444,451.6L444,451.6z
		"/>
	<path d="M458.4,449.4c-0.2,0.5-0.4,1-0.6,1.5l0.1,0.1C458.1,450.5,458.3,450,458.4,449.4L458.4,449.4z"/>
	<path d="M460,447.6c0.2-0.5,0.4-1,0.6-1.5l-0.1-0.1C460.3,446.5,460.1,447,460,447.6L460,447.6z"/>
	<path d="M450.2,446.8c0.3-0.6,0.8-0.7,1.4-0.6l-0.1-0.1C451.3,446.7,450.7,446.8,450.2,446.8L450.2,446.8z"/>
	<path d="M450.1,419.2c-0.4,0.2-0.8,0.5-1.2,0.7l0.1,0.1C449.1,419.3,449.7,419.4,450.1,419.2L450.1,419.2z"/>
	<path d="M452.3,445.4c0.3-0.6,0.9-0.7,1.5-0.6l-0.1-0.1C453.3,445.3,452.8,445.5,452.3,445.4L452.3,445.4z"/>
	<path d="M461.9,444.1c-0.2,0.5-0.4,0.9-0.6,1.4l0.1,0.1C461.4,445,461.3,444.4,461.9,444.1L461.9,444.1z"/>
	<path d="M447.6,420.7c0.2-0.8,0.8-0.6,1.4-0.7l-0.1-0.1C448.4,420.2,448,420.4,447.6,420.7L447.6,420.7z"/>
	<path d="M446.1,421.3c0.3-0.7,0.9-0.6,1.5-0.6l-0.1-0.1c-0.5,0.2-1,0.4-1.5,0.6L446.1,421.3z"/>
	<path d="M446.1,421.9c-0.5,0-1-0.1-1.5-0.1l0.1,0.1c0.5-0.2,1-0.4,1.4-0.6l-0.1-0.1c0,0.3,0,0.6,0,0.8L446.1,421.9z"/>
	<path d="M462,444.1c0.2-0.5,0.4-1,0.6-1.4l-0.1-0.1C462.3,443.1,462.1,443.6,462,444.1L462,444.1z"/>
	<polygon points="381.9,462.1 382,461.9 381.9,462 	"/>
	<path d="M378.5,464.2c0-0.1,0.1-0.3,0.1-0.4c0,0,0,0.1,0,0.1C378.6,464,378.5,464,378.5,464.2L378.5,464.2z"/>
	<polygon points="380.5,462.6 380.4,462.7 380.5,462.6 	"/>
	<path d="M449.6,447.6c-0.1-0.5,0.2-0.7,0.6-0.8l-0.1-0.1C450.2,447.2,449.9,447.4,449.6,447.6L449.6,447.6z"/>
	<path d="M444.1,451.7c-0.1-0.5,0.2-0.7,0.7-0.8l-0.1-0.1C444.4,451.1,444.2,451.4,444.1,451.7L444.1,451.7z"/>
	<path d="M457.8,450.9c-0.3,0.2-0.6,0.4-0.8,0.6l0.1,0.1C457.3,451.4,457.6,451.2,457.8,450.9L457.8,450.9z"/>
	<path d="M420.5,455.1c0.1-0.1,0.1-0.2,0.2-0.2c0,0,0.1,0,0.2,0C420.7,454.9,420.6,454.9,420.5,455.1L420.5,455.1z"/>
	<path d="M420.4,455c0.1,0.5-0.1,0.7-0.6,0.8l0.1,0.1C419.8,455.3,420.1,455.1,420.4,455L420.4,455z"/>
	<polygon points="453,420.6 452.8,420.7 453.1,420.7 	"/>
	<path d="M444.6,421.8c0,0.1-0.1,0.3-0.1,0.4c0,0,0-0.1,0-0.1C444.5,422,444.6,422,444.6,421.8L444.6,421.8z"/>
	<path d="M430.3,412.4c0.1-0.2,0.1-0.4,0.2-0.5C431,412.3,430.3,412.2,430.3,412.4L430.3,412.4z"/>
	<polygon points="450.2,419.3 450.3,419.1 450.1,419.2 	"/>
	<path d="M460.6,440.7c0.2-0.3,0.4-0.5,0.6-0.8l-0.1-0.1C461,440.1,460.8,440.4,460.6,440.7L460.6,440.7z"/>
	<path d="M462.6,442.7c0.1-0.1,0.2-0.2,0.3-0.4c0,0.1,0,0.1-0.1,0.2C462.7,442.6,462.6,442.6,462.6,442.7L462.6,442.7z"/>
	<path d="M446,444c-0.1,0.1-0.1,0.2-0.2,0.3c0-0.1,0-0.1,0.1-0.2C445.9,444.1,446,444.1,446,444L446,444z"/>
	<path d="M452.2,445.3c0.1,0.5-0.2,0.7-0.6,0.8l0.1,0.1C451.5,445.7,451.9,445.5,452.2,445.3L452.2,445.3z"/>
	<path d="M460.5,446.1c0.3-0.2,0.6-0.4,0.8-0.6l-0.1-0.1C461,445.6,460.7,445.8,460.5,446.1L460.5,446.1z"/>
	<path d="M430.2,435c-0.1,0.2-0.1,0.3-0.2,0.5c-0.1-0.1-0.2-0.2-0.3-0.3C429.9,435.2,430,435.2,430.2,435L430.2,435z"/>
	<path d="M572.5,579.1c-2.1-0.5-4.2-0.2-6.2-0.1c-9,0.2-18.1,0.4-27.1,0.5c-1,0-2-0.2-3-0.7c0.4-0.1,0.7-0.3,1.1-0.3
		c9.3-0.2,18.5-0.4,27.8-0.6c1.7,0,3.4,0.1,5.1,0.1C571.1,578,572,578.2,572.5,579.1z"/>
	<path d="M619.1,579.2c1.4-0.6,2.9-0.4,4.4-0.3c2.2,0.1,4.4,0.2,6.5,0.2c5.7-0.2,11.5-0.5,17.2-0.8c0.9,0,1.8-0.1,2.7,0
		c0.3,0,0.5,0.3,0.9,0.4c-0.2,0.2-0.3,0.5-0.4,0.5C640.9,580.1,626,580.2,619.1,579.2z"/>
	<path d="M576.3,507.3c-0.5-0.9-0.8-1.2-0.8-1.5c-0.1-1-0.3-2-0.3-3.1c0-5.2,0-10.5,0-15.7c0-1.2,0.1-2.3,0.8-3.3
		c0.9-0.2,1.1,0.4,1,0.9c-0.4,2.3-0.4,4.5-0.1,6.8c0,0.5,0,0.9,0,1.4c-0.1,3.6-0.2,7.3-0.3,10.9
		C576.5,504.6,576.4,505.5,576.3,507.3z"/>
	<path d="M575.8,527.7c1,8.2,1.5,24.8,1.1,28c-0.3-0.9-0.6-1.4-0.6-1.9c-0.2-2.1-0.4-4.1-0.5-6.2c-0.2-4.5-0.3-9-0.3-13.4
		C575.4,532,575.7,529.8,575.8,527.7z"/>
	<path d="M530.6,578.1c-6.1,1.1-11.7,1.2-17.7,0.4c0-0.1-0.1-0.2-0.1-0.2c0.1-0.1,0.2-0.2,0.3-0.2c0.3-0.1,0.7-0.1,1-0.1
		C519.4,578,524.8,578.1,530.6,578.1z"/>
	<path d="M601.2,579.5c-6.1,1.1-12.3,1.1-19.2,1.1c0.9-0.4,1.2-0.6,1.4-0.6c4.8-0.1,9.6,0,14.4-0.5
		C598.9,579.4,600,579.5,601.2,579.5z"/>
	<path d="M574.8,579.8c-0.1-1.8-0.1-1.8,1.7-3.1c0-2.2,0.1-4.5,0-6.8c-0.1-2.2-0.2-4.3-0.4-6.6c0.9,0.6,0.9,1.4,0.9,2.1
		c0.1,3.2,0.1,6.4,0.2,9.6C577.2,577.1,576.3,578.5,574.8,579.8z"/>
	<path d="M508.3,388.5c0.2,0.5,0.4,0.7,0.4,0.9c-0.1,2.7,0.3,5.2,2,7.4c0.2,0.3,0.4,0.6,0.4,0.9c0.2,1,0.3,2,0.5,3.6
		c-2.9-3.9-4.5-7.5-4.1-11.7C507.6,389.2,508,388.9,508.3,388.5z"/>
	<path d="M549.9,395.5c1.4-1.1,1.4-1,4.8-1.2c1.7-0.1,3.4-0.2,5.6-0.4c-0.8,0.5-1.2,0.9-1.6,1.1C555.9,396.1,553,395.9,549.9,395.5z
		"/>
	<path d="M532.8,433.9c0.6,0,1.2-0.2,1.4,0c1.4,1.2,2.7,2.4,4,3.7c0.2,0.1,0.1,0.7,0,0.9c-0.2,0.2-0.7,0.3-0.9,0.2
		C535.5,437.5,533.7,436.3,532.8,433.9z"/>
	<path d="M551.2,406.4c-0.6,0.7-1.2,0-1.9,0.1c-0.5,0-1,0.5-1.4,0.7c-3.1-1.3-3.1-1.3-3.8-3.2c0.5,0.1,1,0.1,1.3,0.2
		c0.9,0.5,1.6,1.1,2.8,0.7C549.1,404.7,549.1,404.9,551.2,406.4z"/>
	<path d="M530,394.8c1.4-1.6,3-1,5-1.4c-1.2,1.9-2.6,2.1-4,2.2C530.7,395.5,530.4,395.1,530,394.8z"/>
	<path d="M531.6,377.9c1.4,0.4,2.8,0.9,4,1.7c0,0.8-0.5,0.9-0.9,0.8c-1.1-0.4-2.1-0.8-3.2-1.3C531.2,379,531.2,379,531.6,377.9z"/>
	<path d="M550.7,382.9c1.4-2.4,1.9-2.7,3.6-2.8C553.4,381.6,552.3,382.5,550.7,382.9z"/>
	<path d="M512.9,391.7c-2-2.6-2-2.9-0.8-4.7C512.3,388.5,512.5,389.7,512.9,391.7z"/>
	<path d="M526,377.8c-0.4-0.2-0.6-0.4-0.9-0.5c0.2-0.2,0.4-0.6,0.6-0.6c0.2,0,0.5,0.2,0.8,0.4C526.4,377.2,526.2,377.4,526,377.8z"
		/>
	<path d="M518.5,410.2c0.4,0.1,0.9,0.1,1.2,0.3c0.3,0.2,0.3,0.7,0.4,1.1c0,0.1-0.4,0.4-0.5,0.3c-0.4-0.2-0.8-0.3-1-0.6
		C518.5,411.1,518.6,410.6,518.5,410.2L518.5,410.2z"/>
	<path d="M515.5,394c-0.8,0.5-1.2,0.1-1.5-0.4c-0.1-0.1-0.1-0.4,0-0.6c0.1-0.1,0.5-0.2,0.5-0.1C514.8,393.2,515.1,393.6,515.5,394z"
		/>
	<path d="M543.3,393.6c0.5-0.1,0.9-0.3,1-0.2c0.2,0.1,0.2,0.5,0.3,0.8c-0.2,0.1-0.4,0.2-0.6,0.2C543.8,394.3,543.6,394,543.3,393.6z
		"/>
	<path d="M518.6,410.1c-0.2,0-0.5,0.1-0.7,0c-0.4-0.2-0.7-0.4-1-0.7c0,0,0.1-0.2,0.1-0.3c0.3,0.2,0.7,0.3,1,0.6
		C518.3,409.8,518.4,410,518.6,410.1L518.6,410.1z"/>
	<path d="M518.9,388.2c0.2-0.2,0.4-0.3,0.5-0.5c0.1,0.2,0.3,0.5,0.4,0.7c0,0-0.2,0.2-0.2,0.2C519.4,388.5,519.1,388.4,518.9,388.2z"
		/>
	<path d="M499.1,397.2c0.9-0.3,1.4-0.1,1.3,1.3C499.8,397.9,499.5,397.5,499.1,397.2L499.1,397.2z"/>
	<path d="M522,390.2c-0.3-0.1-0.6-0.2-0.8-0.3c-0.1-0.1-0.2-0.4-0.3-0.6C521.8,389,522,389.4,522,390.2L522,390.2z"/>
	<path d="M502.3,400.7c-0.1,0.1-0.3,0.2-0.3,0.2c-0.2-0.2-0.4-0.4-0.6-0.6c0,0,0.1-0.2,0.2-0.2C501.9,400.3,502.1,400.5,502.3,400.7
		z"/>
	<path d="M512.7,402.7c0.2,0.1,0.4,0.1,0.5,0.2c0.1,0.1-0.1,0.3-0.1,0.5c-0.2-0.1-0.4-0.1-0.5-0.3
		C512.5,403.1,512.7,402.9,512.7,402.7z"/>
	<path d="M529.9,377.3c0.1,0.1,0.1,0.1,0.2,0.2c-0.1,0.1-0.1,0.2-0.2,0.1c-0.1,0-0.1-0.1-0.2-0.2
		C529.7,377.4,529.8,377.4,529.9,377.3z"/>
	<polygon points="537.5,391.1 537.5,391.3 537.4,391.3 	"/>
	<path d="M521.9,390.3c0.5,0,0.7,0.3,0.6,0.8l0.1-0.1C522.4,390.7,522.2,390.4,521.9,390.3L521.9,390.3z"/>
	<path d="M549.5,373c0.1,0,0.2,0,0.3,0C549.7,373,549.6,373,549.5,373L549.5,373z"/>
	<polygon points="536.1,391.8 536.2,392 536,392 	"/>
	<path d="M546,384.4c-0.1,0.1-0.2,0.2-0.2,0.2c-0.1,0-0.1-0.1-0.2-0.2c0.1-0.1,0.2-0.2,0.2-0.2C545.8,384.2,545.9,384.3,546,384.4z"
		/>
	<path d="M588.1,462.5c-5.8,1.2-11.7,0.4-17.5,1c-0.4,0-0.8-0.2-1.2-0.2c0.2-0.8,0.8-0.7,1.2-0.8C574.1,462,584.3,461.9,588.1,462.5
		z"/>
	<path d="M613.4,458.6c-3.5,2.8-12.4,4.7-17.3,3.9c3.1-1.2,6-1,8.8-1.8C607.6,460,610.5,459.3,613.4,458.6z"/>
	<path d="M600.6,465.2c0.8,1.8,0.4,3.7,0.4,5.6c0.1,1.3,0.3,2.7-0.3,4c-0.4-0.2-0.6-0.3-0.7-0.4c-0.1-0.4-0.2-0.9-0.2-1.3
		c0-2.6,0-5.2,0-7.9C600.1,465.2,600.4,465.2,600.6,465.2z"/>
	<path d="M610.6,471.1c-0.9-2.7,0.2-5.2,0.5-8.1c0.5,0.3,1,0.4,1,0.6C612.1,466.2,611.7,468.7,610.6,471.1z"/>
	<path d="M554.4,460c2.3,0.3,4.5,0.6,6.8,0.9C558.8,461.4,556.5,461.1,554.4,460z"/>
	<path d="M579,468.3c0,1.1,0,2.2,0,4C578.2,470.5,578.3,469.4,579,468.3z"/>
	<path d="M572.7,465c0.1,0.3,0.2,0.5,0.2,0.8c0,0.1-0.2,0.3-0.4,0.5c0-0.5,0-0.9,0-1.3C572.6,465,572.6,465,572.7,465z"/>
	<path d="M350.9,463.8c-1.6,2.2-7.2,6.5-9.7,7.7c-0.2,0.1-0.6-0.1-1-0.2C341.9,469.6,347.7,465.4,350.9,463.8z"/>
	<path d="M286,493.2c-1.2,2.3-3.2,3.4-5,4.6c-0.3,0.2-0.8,0.3-1.3,0.3c-0.1,0-0.3-0.3-0.5-0.6c1.7-1.6,3.5-3.1,5.5-4.3
		C285,492.9,285.4,493.1,286,493.2z"/>
	<path d="M364.2,477.1c-0.5-1.9,0.1-2.9,1.2-3.6c0.1-0.1,0.5,0,0.6,0.1c0.2,0.1,0.4,0.4,0.3,0.5
		C366.1,475.3,365.6,476.2,364.2,477.1z"/>
	<path d="M331.7,476.7c0.9-0.8,1.2-1.1,1.5-1.3c0.2-0.1,0.5,0.2,0.8,0.3c-0.1,0.2-0.2,0.5-0.3,0.5
		C333.3,476.4,332.9,476.4,331.7,476.7z"/>
	<path d="M363.9,468.9c-0.2,0.2-0.5,0.3-0.7,0.5c-0.1-0.2-0.3-0.4-0.4-0.7c0.3-0.2,0.5-0.3,0.8-0.5
		C363.6,468.5,363.7,468.7,363.9,468.9z"/>
	<path d="M365.9,467c-0.1,0.1-0.2,0.4-0.3,0.4c-0.2,0-0.3-0.2-0.5-0.3c0.1-0.1,0.2-0.2,0.2-0.2C365.5,466.9,365.7,467,365.9,467z"/>
	<path d="M337.6,473.7c-0.1,0.2-0.3,0.4-0.5,0.6c0,0-0.2-0.1-0.3-0.1c0.1-0.1,0.1-0.3,0.2-0.4C337.3,473.7,337.5,473.8,337.6,473.7
		L337.6,473.7z"/>
	<path d="M325,478.7c0-0.1-0.1-0.2-0.1-0.2c0.1-0.1,0.2-0.1,0.3-0.2c0,0.1,0,0.2,0,0.3C325.1,478.7,325,478.7,325,478.7z"/>
	<polygon points="337.7,473.7 337.8,473.6 337.6,473.7 	"/>
	<path d="M288.1,491c0.1-0.2,0.1-0.3,0.2-0.5C288.7,491,288.3,490.9,288.1,491L288.1,491z"/>
	<path d="M288,490.9c-0.1,0.2-0.1,0.3-0.2,0.5c-0.1-0.1-0.2-0.2-0.3-0.3C287.7,491.1,287.9,491,288,490.9L288,490.9z"/>
	<path d="M515.5,431.8c-0.7,0.3-1,0.5-1.2,0.5c-2.9-0.1-5.6,0.3-8.2,1.9c-1.3,0.8-2.8,0.9-4.3,0.5c-0.9-0.2-1.8-0.4-3.2-0.6
		c1.9-0.5,3.2-0.2,4.5-0.4c0.7-0.1,1.5-0.1,1.9-0.5c1.7-1.7,4-1.5,6.1-1.7C512.4,431.4,513.7,431.6,515.5,431.8z"/>
	<path d="M476,422.8c0.3,0.5,0.4,0.6,0.4,0.7c-1,2.8-1.9,5.6-3.8,7.9c-0.3,0.4-0.8,0.6-1.5,1.1c-0.5-1.6,0.8-2.3,1.2-3.2
		c0.5-1.1,1.1-2.2,1.7-3.3C474.6,424.9,475.2,424,476,422.8z"/>
	<path d="M493.2,433.3c0.7,0,1.4-0.1,2.3-0.2C494.8,434.3,494.1,434.3,493.2,433.3z"/>
	<path d="M478.3,419c-0.9-0.9-0.7-1.6-0.1-2.2c0.1-0.1,0.4-0.2,0.6-0.1c0.2,0.1,0.4,0.4,0.3,0.5C478.9,417.8,478.6,418.4,478.3,419z
		"/>
	<path d="M478.1,433.5c-0.6,0.1-1,0.2-1.4,0.2c-0.1,0-0.3-0.2-0.4-0.4c0.1-0.1,0.2-0.2,0.3-0.2C477,432.9,477.5,432.8,478.1,433.5z"
		/>
	<path d="M490.4,432.8c-0.4,0.3-0.7,0.6-0.9,0.6c-0.2-0.1-0.4-0.4-0.6-0.6c0.2-0.1,0.3-0.3,0.5-0.3
		C489.7,432.4,489.9,432.6,490.4,432.8z"/>
	<path d="M473.5,434.2c-0.2-0.1-0.3-0.2-0.4-0.3c0.2-0.2,0.5-0.4,0.7-0.6c0,0,0.2,0.2,0.2,0.2C473.9,433.8,473.7,434,473.5,434.2z"
		/>
	<path d="M500.1,419.5c0,0.1-0.1,0.1-0.1,0.2c-0.1-0.1-0.1-0.2-0.2-0.3C500,419.5,500,419.5,500.1,419.5z"/>
	<path d="M578.6,366.8c0-0.7,0-1.4,0-2.2l-0.1,0.1c2,0.1,4,0.1,6.2,0.2c0.5,1.8-0.3,3.3-0.8,4.9c-0.4-0.2-0.7-0.5-1-0.5
		c-0.8-0.1-1.5,0.3-1.5,1c0,0.4,0.3,0.9,0.2,1.3c-0.1,0.4-0.3,0.9-0.6,1.1c-0.3,0.1-0.9,0-1.2-0.2c-0.5-0.4-0.8-1.1-1.3-1.8
		c0.7-0.6,1.4-1.2,2.1-1.8c0.2-0.2,0.4-0.5,0.7-0.7c0.8,0.3,1.6,0.4,2.1-0.5c0.3-0.4,0.5-1-0.1-1.5c-1.3,0-2,0.7-1.9,2
		c-0.5,0-0.8,0.2-0.6,0.8c-0.3-0.1-0.7-0.2-1.2-0.3c0.3-0.7,0.6-1.4,0.9-2C579.7,365.3,579.2,366.8,578.6,366.8L578.6,366.8z"/>
	<path d="M597.5,378.6c1.3,0.4,2.1,0.4,2.6,0.8c2,1.6,3.4,3.7,4.2,6.1c0.2,0.6-0.2,1.1-1,1.1c-1-0.3-1.2-1.2-1.5-2.1
		c-0.6-1.9-1.6-3.5-3.5-4.5C598.2,380,598.1,379.5,597.5,378.6z"/>
	<path d="M597.1,383.6c1.9,0,3.1,1.1,4.2,2.7c-0.6,0.4-1.2,0.7-1.6,1C597.9,386.6,598,384.8,597.1,383.6z"/>
	<path d="M574.6,382.6c-0.3-3.9,0-4.5,3-6.2c0.1,1.4-1,1.9-1.5,2.7C575.4,380,575.2,381.1,574.6,382.6z"/>
	<path d="M584.4,381.6c0.1,0.2,0.1,0.3,0.2,0.5c0,0.1-0.1,0.1-0.2,0.2c-0.1-0.1-0.2-0.2-0.2-0.2
		C584.2,381.9,584.3,381.8,584.4,381.6z"/>
	<path d="M584.6,379.4c-0.1,0.1-0.1,0.2-0.2,0.3c-0.1-0.2-0.2-0.4-0.2-0.6c0-0.1,0.1-0.2,0.2-0.3C584.5,379,584.5,379.2,584.6,379.4
		z"/>
	<path d="M573.4,382.8c0.1,0.1,0.2,0.2,0.2,0.2c0,0.1-0.1,0.1-0.2,0.2C573.4,383.1,573.4,383,573.4,382.8z"/>
	<path d="M578.5,366.7c-0.1,0.1-0.2,0.2-0.3,0.3c0-0.1,0-0.2,0.1-0.2C578.4,366.8,578.5,366.8,578.5,366.7L578.5,366.7z"/>
	<path d="M524.7,513.4c-1.8,0.4-3.5,0.5-5.3,0.1C521.1,513,522.9,513.1,524.7,513.4z"/>
	<path d="M568.5,513.2c0.9-0.8,1.8-0.7,2.8-0.5C570.8,513.8,570.8,513.8,568.5,513.2z"/>
	<path d="M545.9,502c-0.1-0.9-0.2-1.7-0.3-3.1C546.6,500.1,546.5,501,545.9,502z"/>
	<path d="M466,428.1c-0.2,0.4-0.4,0.8-0.6,1.1c0,0-0.4-0.1-0.5-0.2c0,0,0-0.3,0.1-0.3c0.4-0.2,0.8-0.4,1.2-0.6L466,428.1z"/>
</g>
</svg>
