<?xml version="1.0" encoding="utf-8"?>
<!-- Generator: Adobe Illustrator 19.1.0, SVG Export Plug-In . SVG Version: 6.00 Build 0)  -->
<svg version="1.2" baseProfile="tiny" id="Layer_2" xmlns="http://www.w3.org/2000/svg" xmlns:xlink="http://www.w3.org/1999/xlink"
	 x="0px" y="0px" width="900px" height="600px" viewBox="144 97 900 600" xml:space="preserve">
<g>
	<path d="M922.2,167.8c-2.2-0.8-4.5-1.5-6.7-2.3l0.1,0.1c-0.6-1.6,0.4-2.8,0.9-4.1c0.8-2,0.7-3.8-1.2-5.4c-2,1.9-4.1,3.6-6.8,4.9
		c2.6,4.8,4.6,9.4,6.2,14.2c0.6,1.8,2.4,2,3.8,2.4c8.3,2.2,13.1,10.2,13.7,18.4c0.9,12.1-2.2,24.1-0.6,36.2c0.5,3.7,1.4,7.4,2,11.1
		c0.8,5.2,2.2,10.5,2.2,15.7c0,4-2.1,7.9-3.9,11.6c-2.6,5.4-5.3,11.1-5,17c0.4,8-1,15.9-0.3,23.8c0.4,4.6-0.2,9.3-2.7,14.2
		c-1.2-3.2,1.1-5.3,1-7.7c-1.6,0.7-1.6,2.6-3,3.1c-1.2-3.5,0.5-6.3,2.4-9.3c-0.7,0.1-1.3,0-1.4,0.1c-2.6,5.3-7.3,8.9-10.4,13.8
		c-4.3,6.7-7.8,13.6-9.4,22c1.6-1.2,2.8-2.2,4-3.1c0.8,1.1-0.5,1.9-0.2,2.8l-0.2,0.2c-1.4,0.9-0.7,4.3-3.8,3.1
		c-0.9,1.8-1.3,3.7-1.1,5.6c0.5,4.2-1.6,8.2,0.1,12.5c2.3,5.7,6.2,10.1,10.3,14.4c1.9,2,4.9,2,7.8,2.4c0.3-1.6,1.4-2.5,3.1-2.8
		c4.6-1.1,9-2.6,11.6-7.1c6.2-2.4,7.8-8.7,11.1-13.5c2.9-4.1,3.9-9.2,6.2-13.5c2.8-5.2,3-10.6,3-16.2c0-2.1,0.3-4.3,1.8-6
		c0.4,0.2,0.8,0.4,0.8,0.4c-0.9,5.4,1.2,10.8,0.4,16.3c-0.2,1.4-0.3,2.7-1.2,4c-1.6,2.4-2.3,5.3-3.1,8.1c-0.9,2.9-2.2,5.6-3.4,8.4
		c5.4-4.6,8-11.2,12.3-16.6s8-11.3,12.4-16.6c4.5-5.4,7.1-11.9,11.3-18.2c-1.1-2.2-2.5-4.9-3.8-7.5c-1.5-0.2-1.4,2-2.8,1.8l0.1,0.1
		c1.5-3.1,1.2-6.2,0.5-9.8c-6.3-1.2-12.8-2.2-19.2-4c-0.7,1.6,0.1,2.6,0.5,3.7c1.9,6.1,2.4,11.8-0.6,18c-2.2,4.4-3.4,9.3-6.1,13.5
		c-0.5,0.8-0.8,1.8-2.1,2.2c-0.6-1.4,0.2-2.5,0.7-3.6c2-5.1,4.1-10.1,5.9-15.2c1.1-3.1,0.8-6.5,0.3-9.8c-0.6-3.9-0.4-7.9-2.1-12.6
		c3.9,1.2,6.8,2.4,10,2.9c2.4,0.4,4.7,1.1,7.1,1.3c4,0.4,7,2.4,9.6,5.1c-0.1,1.3-1,0.3-1.6,0.9c2,4.3,4,8.6,6,12.8
		c-3.2,8.9-8.6,16-13.8,23.3c-6.1,8.6-12.5,17-18.8,25.5c-0.4,0.5-0.7,1-1.2,1.4c-5.7,4.7-8.6,11.2-11.9,17.6
		c-0.5,1-0.9,2.3-2.2,2.8c-1.4-0.8,0.4-2-0.7-3.3c-7.2,7.1-14.5,14-19.6,22.7c17.4,42.9,40.7,83.2,54.6,127.1
		c14.9,3.5,29.5,5.2,43.9,7.8c0.2,0,0.5,0.1,0.7,0.1c5.8,0.6,9.7,3.2,11.7,9c1.2,3.5,3.7,6.5,5.6,9.8c0.5,0.8,1.4,1.6,0.1,2.4
		c-7-2.8-9.5-8.7-11.3-15.8c-4-1.1-8.6-0.9-13-1.7c-11.1-2-22.4-3.3-33.2-6.4c-5-1.4-9.5-0.1-14.2,0.3c-1.5,0.1-2.8-0.2-4.3-0.4
		c-0.7-2.4,0.7-3.7,2.3-4.8c1.5-1,3.5-0.9,4.6-2.3c0.3-0.7,0.5-1.3,0.3-1.7c-5.4-12.1-7.3-25.4-13.7-37.1
		c-4.8-8.9-8.9-18.4-12.5-27.9c-1.8-4.7-4.5-8.8-6.8-13.3c-5.6-10.9-10.8-22-14.7-33.7c-0.5-1.3-0.6-2.9-2.1-3.7
		c-3.2,1.4-3.9,3-2.9,6.6c2,7.8,5.5,15,8.9,22.3c5.8,12.3,12.9,24,18,36.6c3,7.5,5.7,15.2,9,22.7c2.5,5.6,5.5,10.8,8.8,15.9
		c1.5,2.2,2.9,4.5,3.5,7.2c0.5,2.1,0.1,3.8-2.8,3.1c-0.5-0.2-1-0.5-1.5-0.8c-5.3-6.7-9.5-14-13-21.8c-5.1-11.2-8.8-22.9-13.7-34.1
		c-3.1-6.9-7-13.3-10.3-20.1c-3.9-7.9-7.6-15.8-10.1-24.2c-0.6-2-0.7-2-2.4-3.6c-2,1.9-1.1,4-0.4,6c1.9,5.2,4.4,10.2,6.4,15.5
		c4.2,11.4,8.6,22.7,13.3,33.9c2.3,5.5,6.1,10.2,8.9,15.5c2,3.6,3.9,7.3,4.9,11.3c0.8,3.1,2.3,5.9,3.9,8.6c2.3,3.9,3.5,8.3,5.2,12.4
		c0.5,1.2,0.6,2.4-0.6,3.3c-1.3,0.9-2.6,0.4-3.6-0.6c-1.1-1.1-2.2-2.2-2.8-3.7c-5.5-12.3-9.9-25-16.9-36.6
		c-5.6-9.2-9.5-19.4-13-29.6c-2.7-7.8-5.6-15.5-8.6-23.2c-0.6-1.4-0.8-3.1-2.6-3.8c-1.9,0.1-2.6,1.6-3.5,2.8
		c-9.5,13.2-19.9,25.7-29.6,38.8c-3.7,5-7.9,9.6-11.8,14.4c-1.8,2.2-4.2,3.3-6.8,4.5c-6.2,3-12.6,5.9-17.2,11.3
		c-1.3,1.5-2.6,2.9-4.2,4c-1.7,1.2-3.5,2.5-2.9,5c0.7,2.9,1.7,5.6,5.1,6.5c4.5,1.1,9.1,1.5,13.6,2.3c8.8,1.7,17.7,2.9,26.5,4.9
		c3.2,0.7,6,0.4,9.1-1.1c7.9-3.9,16.5-4.2,25-3.1c12,1.6,23.9,3.9,36.1,4.8c1.6,0.1,3.1,0.4,4.2,1.8c0.9,1.1,2.1,1.3,3.6,0.9
		c3.9-1,7.8,0.6,10.3,4.2c-0.5,1.8-1.4,2.7-3.6,2.7c-7.1-0.1-14.3,0.1-21.4,0c-10-0.1-19.9-0.7-29.8-1c-18.7-0.5-37.3-2.6-55.6-6.6
		c-5.1-1.1-10.3-1.8-15.5-2.5c-3.4-0.5-5.1,0.5-5.1,3.9c0.1,8.5-2.2,16.5-3.3,24.8c-0.1,0.8-0.3,1.7,0.4,2.5c1.1,1,2.4,0.6,3.8,0.4
		c8.8-1.2,17.3-3.9,26.2-4.3c14.4-0.8,28.6-3.6,43.1-4.2c8.2-0.3,16.4-1.5,24.6-2.3c12.2-1.2,24.4-2.3,36.5-3.9
		c2.1-0.3,5.3-0.9,5.6,2.3c0.3,3.3-2.8,2.9-5,3.3c-4.3,0.7-8.7,1.3-13.1,0.6c22,3.1,43.9,7,65.8,10.8c0-5.1-2-7.9-6.7-8.6
		c-11.2-1.6-22.2-3.9-33.4-5.7c-4.1-0.7-7.8-2.4-11.9-3.3c-1.4-0.3-2.9-1.1-2.6-2.9c0.3-2,2-1.4,3.4-1.6c5.5-0.5,10.5,1.5,15.8,2.3
		c10.8,1.8,21.6,3.4,32.4,5.2c2,0.3,3.9,0.3,5.8-0.2c2.7-0.7,5.3-0.2,7.9,0.4c1,2.3-0.7,3-2,3.8c-3.9,2.5-4.1,3.1-2.2,7.3
		c2.4,5.2,3.1,5.5,8.6,4.2c2.3-0.6,4.5-1.1,6.7,0.4c0.2,1.7-1,2.4-2.3,2.8c-5.4,1.6-10.7,2.5-16.4,0.9c-7.7-2.2-15.7-3.3-23.6-4.5
		c-13.9-2.1-27.8-4.3-41.7-6.7c-3.1-0.5-6.3-0.9-9.2-1.8c-9.5-2.9-18.9-0.4-28.3,0.3c-9.1,0.7-18.2,1.4-27.2,2.5
		c-12.2,1.4-24.4,2.4-36.5,4.4c-9.1,1.5-18.6,2-27.5,5.8c-0.2,1.8-0.4,3.7-0.5,5.6c-0.6,11.9-3.5,23.8-2.1,35.8
		c0.2,1.3,0.2,2.7,0.3,3.9c1,0.7,2.1-0.5,2.8,0.5c1.2,1-0.1,2.1,0.3,3.1c0.1,0.1,0.3,0.5,0.4,0.5c2.5,0.1,3,2.1,3.6,4
		c1.4,4.7,0.9,9.7,2,14.4c0.1,0.6-0.1,1.3,0.3,2c2.5,4.6,1.5,9.6,0.9,14.4c-0.4,3.2-2.8,4.8-5.7,5.1s-4.9,1.4-6.6,3.8
		c-5.5,8-13.8,11.6-23,13.3c-6.8,1.2-13.7,2.3-20.6,2.1c-3.7-0.1-7.2-0.7-10.6-2.2c-0.9-0.4-1.7-0.7-2.7-0.7c-4.2,0-6.5-3.4-5.1-7.5
		c1.6-4.6,5.1-6.5,8.8-6.6c7.9-7.3,14.6-14.8,18.5-24.3c-0.7,0.1-0.8,1.2-2,0.8c1.4-4.2,3.6-8,6.4-11.7c-1.1-1.7-2.1-3.4-1.3-5.5
		c-5.9-2.3-12.1-1.8-17.4-4.7c5.9,0.7,11.7,1.5,17.7,2.9c2.1-2.4,4.4-4.4,8.6-4.3c-2.2-10.3,0.9-20.4-2.3-30.2
		c-3.1-9.6-6.1-19.1-11.3-28.1c-3,7.8-6.1,15.3-8.9,23c-2.8,7.6-5.4,15.3-8.3,23.4c-1.2-2.1,0.4-3.5-0.2-5.2
		c-2.3,2.2-2.9,5.8-6.6,7.8c0.8-5.7,5-9,6.7-14.2c-4.6,4.8-8.8,9.5-14.2,13c-1.3-2.2-3.4-2.4-5.3-2.6c-10-0.8-19.6-3.4-29.3-5.3
		c-5.4-1.1-11.3,1.7-15.8,5c-2.6,1.9-4.2,6.1-4.2,10.4c29.4,6.2,58.1,14.5,88,20.5c-2,1.9-3.4,1.2-4.7,1c-8.5-1.4-17-3.1-25.2-5.6
		c-7.9-2.3-16.3-2.7-24.1-5.7c-10.5-4.1-21.9-4.3-32.4-7.8c-1.4,1.8-0.9,3.6-1.2,4.7c-5,6.3-11.8,8.3-19,9.4
		c-2.9,0.4-5.8,0.7-8.7-0.2c-4.3-1.4-8.6-0.9-12.9,0.1c-7.4,1.8-14.9,3.1-22.1,5.7c-5.8,2.1-12.1,3.5-18.4,4.4
		c-4.4,0.6-8.4-0.8-11.4-4.3c-1.8-2-3.9-3.6-6.3-4.9c-2.4-1.3-3.4-3.1-3.4-5.9c0-2.5,0.5-4.8,1.5-7s2.6-3.3,5.1-3.3
		c4.9,0,9.1-2,13.1-4.7c4.2-2.9,8.7-5.3,13-8c4.9-3.2,9-7.4,12.3-12.1c-2.4-5,2.1-6.8,4.1-9.7c1.5-2.2,3.8-2.6,5.9-0.3
		c0.3-0.4,0.5-0.6,0.5-0.7c-1.1-11.2-0.4-22.5-2-33.7c-0.6-4.5-2.2-8.7-3.2-13.1c-3-13-5.2-26.2-5-39.6c0-2.4-0.3-4.8-0.8-7.2
		c-1-4.7-0.3-9.1,1-13.6c0.6-2.1,0.8-4.3,0.3-6.5c-0.9-3.8-1.5-7.5,2.8-9.8c0.3-0.2,0.6-0.5,0.7-0.8c1.8-5.8,7.1-7.3,11.8-9.4
		c11-4.9,21.6-10.5,31.9-16.6c4.6-2.8,9.7-4.4,14.6-6.6c7-3.1,14.4-4.9,21.9-6.3c2-0.4,2.9-2.6,5.4-2.2c2.7,0.5,5.5,1,8.2,1.7
		c1.9,1,4.1,1.1,5.9,2.6c1.2,1.1,2,2.1,1.2,3.7c-1.5,1.3-2.9,0.7-4.4,0c-7.7-3.5-15.4-3.9-23.1,0c7.3,7.8,9.6,18.2,13.7,27.7
		c2.2,5.1,5.1,9.6,9.1,13.4c2.1,2,4.2,4.1,6,6.3c2.1,2.6,4.5,5,1.9,9.1c4.4-2,5-3.6,3.1-6.9c-4.2-7.5-8.1-15.2-11.8-23
		c-1.7-3.7-4.3-6.9-4.7-11.2c-0.2-2.2-2.3-3.3-4.1-4.4c-1.5-1-3.2-1.8-4.6-3c-0.9-0.8-1.4-1.8-0.7-2.9c0.6-1.1,1.7-1.2,2.9-0.8
		c1.5,0.5,2.8,1.5,4.2,2.2c2.5,1.1,3.8,0.5,3.9-2.2c0.1-2.5,1.1-3.6,3.5-3.5c2.6,0.1,4.4-0.6,6.6-2.6c3.1-2.8,7.7-3.3,11.9-2.8
		c3.7,0.5,7.3,1.3,10.9,2.5c4.2,1,8.2,2.4,12,4.3c5.6,2.8,7.4,8.4,9.3,13.7c0.4,1.1-0.6,2.1-1.2,3c0.9-1.1,1.8-2.3,2.6-3.5
		c3.7-5.9,8.9-9,15.8-10.3c7.9-1.5,15.3-1.5,22.8,1.6c0.8,0.3,1.6,0.6,2.2,1.3c0.7,0.7,1.3,1.4,1.1,2.5c-0.3,1.2-1.2,1.7-2.4,1.9
		c-1.6,0.2-3.2,0-4.7-0.5c-5.5-1.5-11-1.3-16.6-1.5c-6.9-0.3-10.6,3.6-13.6,9.1c1.5,1,2.8,0.5,4,0.3c1.4-0.2,2.9-0.5,4.3-0.5
		c5.1-0.1,10-0.5,14,4.1c2.1,2.5,5.7,3.7,8.3,5.8c7.6,6.2,8.8,14.8,8.3,23.7c-0.4,7-2.1,13.9-5.5,20.2c-1.9,3.6-4.5,6.6-7.3,9.4
		c-1.8,1.7-1.5,3.5,0,5c1.8,1.8,3.3,0.3,4.6-0.9c2.1-1.7,4-3.7,5.4-6c3.8-8.4,7.4-16.9,10.9-25.4c0.4-0.9,0.7-1.8,1.1-2.7
		c0.5-1.2,1.4-2.2,2.8-1.8c1.6,0.4,2,1.9,1.6,3.2c-1.2,4.2-2.2,8.5-4.6,12.2c3.4-1,5.8-4.2,9.7-4.8c-3.1-1.4-3.6-2.4-2.4-5.7
		c2.6-7.5,3.8-15.3,3.6-23.2c-0.1-3.3-0.7-6.3-2.8-9.2c-1.5-2-4.2-4.4-1.2-7.3c-2.9-4-6.6-7.3-9.9-10.8c-4.5-4.7-10.2-6.3-16.5-5.8
		c-1.1,0.1-2.2,0.3-3.2-0.3c-0.3-0.1-0.7-0.2-1-0.3c-5.8-1.2-11.8-0.8-17.5-2.7c-2.7-0.9-4.9-2.5-7.7-3.1c-4.5-1-8.9-0.5-13.4-0.8
		c-2.8-0.2-5.5-0.7-8-2c-2.2-1.2-4.6-2.2-7-0.6c0,0.3-0.1,0.6-0.3,0.9c-1.8,1.6-3.9,0.8-6,1.2c5.5,1.4,10.8,2.9,16.2,4.3
		c1.8,0.5,3.5,1,5.2,1.7c1.6,0.6,2.9,1.7,2.3,3.5c-0.7,2.1-2.6,1.5-4,0.8c-3.7-1.7-7.6-3.1-11.5-4.1c-7.4-2.6-15.3-2.4-22.7-4.4
		c-1.6-0.4-3.1,0.1-4.6,0.7s-2.8,0.4-4-0.8c-0.4-1.3,0.3-2.1,1.4-2.6c4.5-1.9,9.1-3.3,14.2-2.1c2.8-2.5,6.5-2.5,10.1-2.7
		c2.3-0.1,4.2-0.7,5.8-2.5c1.3-1.5,2.8-3.1,5-3.3c1.2-0.1,1.7-1.3,2.4-2.1c2.5-3.1,5.4-5.9,8.4-8.6c0.5-0.5,1.2-0.9,1.6-1.5
		c5.3-7.9,12-15,14.3-24.6c1.4-5.7,4.9-10.4,7.8-15.4c0.6-1,1.7-1.7,2.7-2.4c4.6-3.1,8.9-6.7,14.3-8.5c0.8-0.3,1.5-0.7,2.1-1.1
		c0.6-1.7,0.3-3.1-0.5-4.4c-10.2-16.9-14.8-35.2-14.1-54.8c0.3-7.8-0.9-15.5-0.7-23.2c0.1-4.5-1.5-9.1-2.6-13.5
		c-0.8-3.4-1.2-6.6-0.6-10c1.6-9.4,5.7-18,8.8-26.9c1.3-3.6,2.6-7.2,3.9-10.9c-0.5-0.3-0.8-0.5-1.1-0.6c-11.3-0.5-18-6.5-22.4-16.7
		c-5-11.5-1.5-21.1,4.6-30.8c3-4.7,6.2-8.7,11.7-10.8c10.2-3.8,18.7-0.7,26.8,5.8c3.1-2.2,6.6-4.1,10.5-5.2c1.3-0.4,2.7-0.6,3.9-0.3
		c8.3,1.8,15.1,5.3,19.3,13.3c6.3,12,5.5,23.9,0.1,35.7c-3.1,6.7-8.5,11.7-15.4,14.2c-4.6,1.6-9.7,1.1-14.6-0.1
		c-0.6-0.1-1.1-0.3-2-0.5c-1.3,7.3-4,14.3-1.6,21.8c2.3,7.4,3,15.2,4.3,22.9c0.5,3.2-0.1,6.4-1.1,9.3c-1.1,3.6-1,7.1-0.9,10.7
		c0,1,0.6,2.1-0.6,3.2c-1.5-0.6-1.4-2-1.5-3.2c-0.1-2.9,0-5.8,0.6-8.7c1.7-7.9,0.2-15.7-1.1-23.5c-0.7-3.9-1.4-7.9-2.4-11.8
		c-1.4-5.4,0.4-10.5,1.4-15.7c0.4-2,0.8-4.1,0.6-6.1c-4.3-4-9.5-7.1-11.5-13.5c-1.4,2.4-1.7,4.5-2.1,6.4c-1.3,5.7-3.7,10.9-6.1,16.2
		c-2.2,4.7-4.2,9.6-5.8,14.5c-0.1,0.3-0.4,0.7-0.4,1c-0.1,9.5-2.8,19,1.4,28.3c0.1,0.2,0,0.5,0,0.3c0,1.4-1.3,0.9-1.5,1.9
		c1.1,3.1,1.1,6.5-0.1,9.8c-0.8,2.3,0.1,4.3,0.2,6.4c0.7,8.3,0.4,16.7,1.3,25.1c1.2,10.4,3.2,20.6,8.5,29.8c2.4,4.1,4,8.5,6.1,13
		c2.3-1.1,3.2-3.5,5-5c-1.3-2.6-3.9-3.9-5.5-6.9c3.2,1.3,5.2,3.1,7.2,5.1c9.5-7.4,20.5-6.3,31.5-6.3c-2.6-2.9-7.5-3.9-8.1-9.2
		c-3.5,0-5.3-4.1-9.1-3.9c-1-1.1-0.9-2.5-1.1-3.8c-0.7-7-2.2-13.9-3.8-20.7c-1.3-5.6-4.1-10.6-6.6-15.7c-2.5-5.2-6.2-9.8-7.2-15.7
		c-0.1-0.6-0.5-1.1,0.4-1.8c0.7,1.7,1.3,3.4,2,5c1.8,4.1,5,7.3,7.3,11.2c2.8,4.9,5.2,9.8,6.3,15.4c1.5,7.7,4,15.3,4.2,23.4
		c3.5,0.5,6.3,2.1,9,4c2.3,1.5,5.6,2.7,4.6,6.6c2,1.6,2.6,4.8,5.8,5.1c0.5,1.4,0.1,3.2,1.6,4.3c3.6-0.7,7.5,0.2,11.5-1.2
		c1-1.1,1.9-3,4.2-3.5c-0.8-2.1-0.5-4.2-1.1-6.3c-0.4-1.5-0.1-3.3,1-4.5c1.7-1.9,2.6-4.1,3.3-6.4c1-3.4,3.3-5.5,6.6-6.4
		c-1.1-7.3-1.1-7.3,4.1-9.6c1-0.7,0.5-2,1-3c1.9-0.5,3.6-0.9,5.4-1.4c0.6,2.2,1.2,4.6-0.7,6.4c-1.7,1.7-4.5,1.1-6.5,2.7
		c-0.7,1-0.5,2.4-0.5,3.7c0,1.3-0.3,2.4-1.1,3.5c0.8,1,1.9,1.3,3,1.8c1.4,0.6,2.3,1.5,1.7,3.1c-0.6,1.5-2,1.8-3.4,1.4
		c-1.8-0.6-3.6-1.4-5.5-2.2c-3.8,4.7-4.1,10.5-5.3,16c-0.3,1.5,1.5,1.9,1.8,3.3c-0.3,2.8-3.4,1.9-4.5,3.6c3,1,5.6-1.2,8.4-1
		c0.4-3.7,3.4-1.9,4.9-2.5c-1.1,0-2.6,0.2-4,0.1c-1.5-0.1-3.1-0.2-4.5-1.1c-1.1-0.8-2.6-1.3-2.2-2.9c0.4-1.6,1.9-1.4,3.3-1.4
		c6.4-0.1,12.8,1.4,19.2,0.2c5-0.9,5.6-1.5,5.7-6.6c0-3.5-0.1-7,0.1-10.6c0.1-2.6-0.4-4.5-3.2-5.3c-1.6-0.5-2.9-1.6-2.7-3.5
		c0.5-3.6,3-2.4,5.6-2c-2-0.3-3.5-1.1-5-1.6c-1.3-0.4-1.9-1.4-1.7-2.8s1.2-2,2.5-2.3c1.1-0.2,2.2,0.2,3.2,0.3
		c4.4,0.4,7.1-2.6,6.8-7.4c-0.3-0.5-0.6-1-1-1.4c0.4,0.6,1,1.2,1.2,2c0.2,1.5-0.7,2.4-1.9,2.7c-3.7,0.9-6.7,3.3-10.2,4.5
		c-1.7,0.6-2.6,0.5-3.6-0.8c-0.2-1.6,1.1-2,2.1-2.6s2.2-0.9,3.2-2.1c-0.4-1.6-2.5-1.8-3-3.1c0.3-1.5,1.3-0.2,1.9-0.9
		c0.5-1.6-0.5-3.5,0.5-5.1c1.8-0.9,3,0.7,4.6,1.3c0.1-2-2.7-2.1-2-4.3c2.3-0.3,4.3,1.2,6.1,1.5c1.4,1.2,0.7,3.2,2.4,3.9
		c0.6-2.8-1.5-4.4-3.1-6.6c2.8-0.1,3.4,2.1,4.9,3.2c0.5-0.8-0.7-1.9,0.4-2.5c1.8-0.1,1.3,2.4,2.9,2.8c1.2-4.9-0.3-9.6-1-14.3
		c-0.9-6-2.7-11.8-3.4-17.8s-0.3-11.9,0.6-17.8c1-6.4,1.3-12.8,0-19.4c-2.8-1-3.2-4.5-6-6c-2.4,1.6-4.7,3.6-6.6,6
		c-1.8,2.3-4.1,3.2-7,2.8c-3.9-0.5-7.6-1.8-10.9-3.8c-2.8-1.7-3.5-5.1-5.1-7.6c-4.5-7.2-3.3-15.3-3-23.2c0.2-5.4,3.8-9.6,5.1-14.6
		c0.5-1.9,1.5-3.6,2.1-5.4c2.5-6.7,7.9-9.6,14.3-11c5.8-1.3,9.2,3.2,12.7,6.4c4.1,3.8,5.5,8.2,6.2,16.2c1.2,0.6,2.3,1,3.7,0.3
		c1.3-0.7,2.3-0.1,2.9,1.2c-0.8,1.3-1.4,2.6-1.9,4.1c-0.5,1.6-1.2,3.3-3.1,3.9c-2.2,0.2-2.2-1.3-2-2.7c0.2-1.2,0.7-2.4-1-2.8
		c-0.3-0.1-0.6-0.3-0.9-0.5c-2.1-1.7-2.8,0.1-3.4,1.5c-0.7,1.6-0.4,3.3-0.4,5.1c0.1-0.5,0,0.3,0,0.2c0.6-3,1.4-5.4,4.7-2
		c0.1,0.1,0.1,0.2,0.2,0.3c0.6,1.2,1.5,1.5,2.7,1c2-0.6,2.8-2.3,3.2-3.9c0.4-1.5,1.2-2.8,1.8-4.2c1.7-4.7,4.3-8.8,7.1-12.9
		c3.9-5.8,12.4-8.5,18.3-5.4c-1.1,1.1-2.3,0.6-3.4,0.5c-5.4-0.7-9,2.2-12.5,5.9c-6.5,7-8.4,15.9-9.9,24.7
		c-1.7,10.4,0.9,20.3,7.6,28.8c3.2,4.1,9.8,4.9,14.5,2.6c8.7-4.3,12.3-11.8,14.3-20.8c-3.8-1.6-8-0.9-11.6-2.7
		c-2.6-3.8-2-7.1,1.3-10.2c3.6-0.4,7.3,0.4,11.4,0.5c0-6.6-1-12.9-3.6-18.8c-0.6-1.3-1-2.7-1.9-3.9c-3.2-3.8-5-4-9.4-2
		c-8.8,4-12.2,11.8-14.7,20.2c-2.3,7.7-2,15.7-0.6,23.4c1,5.7,3.9,10.7,10.1,13.2c-3.5,0.2-5.4-0.6-7.3-3.3
		c-4.4-5.9-6.4-12.4-6.4-20c0-6.1,0.5-11.8,2.6-17.5c1.6-4.3,3.9-8.1,6.6-11.7c2.9-3.9,7.4-5.3,11.7-7c1.1-0.5,2.4-0.3,2.8-1.8
		c3.9,1.6,6.4,4.1,7.6,7.7c2.3,6.7,5.6,13.2,5.3,20.7c0,0.3,0.3,0.7,0.4,0.9c5,0.7,6.3,1.5,7.1,4.7c0.7,2.9,0.5,5.6-2.7,7.4
		c-1.8-0.4-3.9-0.6-5.9,0.1c-2.8,13.7-8.6,24.3-25.5,23.5c0.8,5.1,1.8,9.9,3.9,14.4c4.8,10.6,6.4,21.8,6.7,33.2
		c0.2,7.3-0.2,14.5-1.4,21.7c-0.9,5.4-0.8,11.1-1.1,16.7c-0.1,1.3,0.2,2.7-1.1,3.7c-1.6-0.5-1.2-2-1.2-3c0.1-7.9,0.9-15.7,1.7-23.5
		c1-10.2,0.9-20.4-1.2-30.4c-1.4-6.9-3.1-13.7-5.7-20.3c-1.5-3.9-2.4-8.1-2.7-12.5c-3-1.1-5.8-2.7-7.7-6.6c-0.3,3,1.3,5,0.8,7.2
		c-1.6-3.1-3.8-5.9-2.9-9.9c0.4-1.9-1.4-3.6-2.3-4.2c-0.8-5.9-2.1-11.2-2.5-16.4c-1.3-0.6-2.3-0.6-3.4,0.2c1.2,1.7,2.3,3.5,3.7,5.5
		c-2.2,0.3-2.6-1.2-3.3-2.3c-0.5-0.8-0.8-1.7-1.9-2c-2-0.6-4.6,0.3-5.6-2.5C922.8,167.4,922.5,167.6,922.2,167.8L922.2,167.8z"/>
	<path d="M584.4,556.8c0.7,1.6-0.4,2.3-1.6,2.7c-5.2,1.6-10.5,2.7-16,1.1c-7.5-2.1-15.2-3.3-22.8-4.5c-14-2.2-28.1-4-42-6.8
		c-5.2-1-10.7-0.6-15.5-3.3c-0.6-0.4-1.7-0.1-2.5,0c-21.7,2.6-43.5,3.5-65.2,7c-5.4,0.9-11,0.4-16.3,1.7c-8.9,2.1-18.3,2-26.9,5.8
		c-0.7,1.6-0.6,3.2-0.7,4.7c-0.6,12.1-3.5,24-2.2,36.2c0.1,1.3,0.1,2.6,0.5,3.9c0.8,0.6,2-0.4,2.6,0.5c0.9,1.1-0.2,2.2,0.4,3.5
		c2.5-0.2,3.2,1.7,3.8,3.7c1.4,4.7,1,9.6,2,14.4c0.1,0.7,0,1.4,0.4,2.1c2.5,4.4,1.4,9.1,0.9,13.7c-0.4,3.5-2.5,5.1-6.1,5.6
		c-2.4,0.3-4.3,1.1-5.7,3.2c-5.6,8.2-13.8,12-23.2,13.6c-6.2,1.1-12.4,2.1-18.8,2c-4.2,0-8.2-0.6-12-2.4c-0.8-0.4-1.5-0.5-2.4-0.5
		c-4.3-0.1-6.5-3.4-5-7.5c1.4-4,4.6-6.2,8.9-6.2c6.3-6.9,13.4-12.9,16.8-22.2c-1.6-1.8,0.4-3.5,1.1-5.4c0.4-2.1,0.2-4.2,1.2-6.3
		c1.1-2.6-0.3-4.9-3.3-5.8c-2.7-0.8-5.5-0.9-8.2-1.7c-2-0.5-4.4-0.7-5.4-3.1c0.3-2.2,1.9-2.4,3.5-2.1c3.4,0.5,6.7,0.9,10,1.7
		c3,0.7,5.8,0.6,8.2-1.5c1-0.9,2.4-0.9,3.4-1.4c0.6-0.6,0.8-1.3,0.6-1.8c-1.5-4.5-0.7-9.1-0.5-13.7c0.4-12.8-5.7-23.6-10.4-35.3
		c-1.8,1.8-2.2,3.7-3,5.4c-4.5,10.6-7.9,21.7-11.9,32.5c-0.8,2.1-1.5,4.4-4.6,2.8c-0.6,0.1-0.5,0.7-0.8,1.1
		c-1.1,1.4-2.5,2.2-4.1,1.1c-1.8-1.2-1.4-3-0.3-4.5c1.9-2.7,4.1-5.1,6-7.9c1.3-1.1,0.4-2.3,0.1-3.5c5.5-9.8,8.1-20.8,12.7-30.9
		c1.4-3.2,1.7-6.5,0.8-10c-2.1-8.3-1.5-16.6-0.2-25c0.6-3.6,0.1-6.9-1.5-10.2c-4.9-10.2-11.6-19.4-17.3-29.1c-1.6-2.7-3.6-3.1-6-0.9
		c-4.3,3.7-9.7,4.1-14.7,5.8c-2.4,0.8-4.8-0.2-7-1.3c-5.4-2.8-11.2-2.7-17-2.5c-6.4,0.2-12.8,0.7-19.2-0.5c-2.2-0.4-4.3-0.5-6.5,0.3
		c-3.7,1.3-4.6,2.8-3.4,6.7c1.9,5.9,2.6,12.1,4,18.1c2.2,9.6,0.6,19.2-3.3,27.8c-4.6,10.1-3.6,20.1-2.9,30.3
		c0.3,3.7,1.1,7.4,1.2,11.2c0.1,2.2,0.9,3.7,3.2,4.7c4.8,2.2,5.7,6.9,6.2,11.6c0.2,2.1-0.1,4.4,1.8,5.7c0.6,0,0.9,0,1.1-0.2
		c4.3-6.8,12.1-6.3,18.4-8.7c1.5-0.5,3.1,0,4.7,0.5c9.7,2.9,19.7,4.2,29.7,5.6c2.2,0.3,4.1-0.4,5.6-1.9c1.8-1.8,3.9-3.3,5.8-4.9
		c1.2-1.1,2.5-2,4.2-0.8c0.4,0.6,0.3,1.1-0.1,1.6c-2.3,3.3-4.8,6.6-7.5,9.6c-2.5,2.7-5.1,4.5-9.2,2.4c-2.5-1.3-5.7-1.2-8.6-1.5
		c-6.6-0.8-13.2-2.1-19.6-3.9c-5.5-1.6-10.1,1.2-15.1,2.4c-1.2,0.3-2,1.7-2.7,2.8c-2.6,3.9-1.8,5.9,2.6,7.2c3,0.8,6.1,1.8,9.2,2.2
		c7.9,1,15.3,4,22.9,5.7c11.3,2.5,22.4,5.5,33.7,7.8c3.6,0.7,7.1,1.6,10.7,2.3c2.3,0.5,3.4,1.7,2.8,4.1c-10.2-1.4-20.3-3.6-30.2-6.4
		c-6.9-2-14.2-2.2-20.9-4.8c-10.5-4.1-21.8-4.6-32.5-7.8c-0.4-0.1-0.9,0-1.6,0c-0.7,7.1-5.9,9.6-11.6,11.6
		c-6.2,2.2-12.5,3.1-18.9,1.1c-3.5-1.1-7,0.1-10.4,0.7c-12.5,1.9-24.2,6.8-36.5,9.4c-5.9,1.2-11,0.5-15.1-4.4
		c-1.4-1.7-3.2-3.1-5.2-4c-3.2-1.5-3.7-4.2-3.7-7.2c0.1-2.5,1-4.7,2.2-6.9c1-1.6,2.5-2.1,4.4-2.1c4.8,0,9-1.8,12.7-4.7
		c3.2-2.5,6.9-4.1,10.3-6.2c5.8-3.5,10.6-8,14.6-13.3c-1.7-5.3,2.4-7.7,5-10.7c1.5-1.8,3.5-1.1,5.5,1c-0.1-2.5-0.2-4.2-0.3-6
		c-0.6-10-0.2-20.1-2-30c-1.2-6.8-3.9-13.3-4.8-20.2c-1.4-10.2-3.7-20.3-3-30.7c0.2-2.5-0.6-5-1-7.5c-0.6-3.8-0.3-7.6,0.7-11.2
		c0.9-3,1.1-5.9,0.5-8.9c-0.7-3.2-1-6.3,2.6-8.2c0.4-0.2,0.8-0.6,1-1.1c2.1-6.3,8-7.6,13.1-10c10-4.6,19.9-9.7,29.3-15.4
		c4.5-2.7,9.4-4.5,14.2-6.6c7.2-3.1,14.8-5.3,22.5-6.5c1.6-0.3,2-2.2,3.6-2.1c3.7,0.2,7.4,0,10.6,2.8c1.8,1.6,4.2,2.6,5.9,4.6
		c-4.9-2.4-10-4.2-15.3-4.3c-5.3-0.1-10.3,2.4-15.6,3.5c5.5,4,8.7,9.3,10.7,15.4c1.7,5.1,3.7,10,5.7,14.9c1.8,4.4,4.4,8.4,8,11.5
		c3.8,3.2,6.6,7.4,9.8,11.1c-0.1,0.9-0.8,0.4-1.3,0.9c0.4,2.2,0.5,4.7-0.8,7.3c2.3,0.1,4.1-0.7,4.9-2.3c1.1-2.1,2.8-3.2,5.1-4.2
		c-0.7-1.2-1.3-2.4-2-3.4c-4-6.5-7.7-13.2-10.8-20.2c-0.4-1-0.8-2.1-1.5-2.9c-3.5-4.1-4.5-9.1-4.9-14.4c-4.6-2.9-9.1-5.7-13.6-8.5
		c4.9,1.3,8.9,4.5,13.7,6.8c0.4-3,2.4-5.1,3.4-7.5c1.3-1,2.7-0.7,3.9-1.5c8.9-6.6,18.5-6.1,28.3-2.2c4.2,1.7,8.1,3.8,11.3,7.1
		c2.5,2.6,3.2,6.2,5.2,9.4c-3,2.1-1,5.3-2.3,7.7c0.2,0.1,0.5,0.2,0.7,0.3c2.2-3,4.6-5.8,6.7-8.9c4.1-6.1,10-8.6,17-9
		c6-0.3,11.9,0,17.7,1.6c1.5,0.4,3,0.7,3.7,2.7c-2.3,1.2-4.4,0.2-6.4-0.3c-6.7-1.7-13.4-2-20.2-1.2c-2.9,0.3-5.3,1.3-7.1,3.8
		c-2.4,3.3-5,6.5-8.1,10.6c6.6-2.1,12.5-2,18.5-2.5c2.3-0.2,4.7-0.7,5.7,2.3c0.3,0.8,1.2,1.1,2,1.5c2.1,1.3,4.2,2.5,6.2,3.8
		c6,3.7,9.2,9.1,9.7,16.2c0.8,11.1-1.3,21.5-7.4,30.9c-1.2,1.9-2.7,3.4-4.4,4.8c-0.1,0.1-0.2,0.2-0.4,0.2c-0.7,0.2-1.4,0.4-2.3,0.7
		c1,3,2,6,2.9,9.1c2.6-0.1,4.4-1.5,5.9-2.9c2.9-2.7,5.7-5.4,7.3-9.2c3.5-8.4,7.1-16.7,10.7-25.1c0.2-0.5,0.6-0.9,1.1-1.3
		c-0.6,6.1-3.7,11.3-5.7,17.4c5.1-3,9.7-5.7,14.2-8.3c1-1.7,0.5-3.5,1.4-5.6c-2,1.4-1.6,4.2-4.1,4.2c-1-1.7,0-3.2,0.5-4.5
		c2.9-7.9,3.6-16,3.6-24.3c0-5.5-2.3-7.8-5.8-13.1c0.3-1.5,1.8-0.6,3-1.4c-4.8-5-8.7-10.7-14.1-14.8c-3.5-2.7-7.5-4.8-12.4-3.7
		c-1.8,0.4-3.9,0.1-5.8,0.1l0.1,0.1c-1.9-1-4-1.1-6-1.2c-4.6-0.1-9.4-0.9-13-3c-7.2-4.3-14.8-2.6-22.2-3.5c-1.9-0.2-4.1,0.2-4.6-2.4
		c-4.3-0.5-8.2,0.6-12.3,0.9c2.1,0.4,4.3,0.8,6.8,1.3c-5.1,1.1-10.2-2.4-14.8,1.4c9.5,3.5,19.3,4.7,28.5,8.4
		c-0.8,1.1-1.4,0.8-1.9,0.7c-11-2.6-21.7-6.1-32.7-8.6c-3.1-0.7-5.5-0.6-8.1,0.8c-0.6,0.3-1.3,0.8-2,0.4c-0.1-3.4,8.9-6.1,14.9-4.3
		c2.3-2.6,5.7-2.6,8.9-2.8c3-0.2,5.4-0.7,7.3-3.2c1-1.3,2.4-2.5,4.2-2.7c0.4-0.1,1-0.3,1.3-0.6c6.9-8.1,15.5-14.8,20-25.2
		c-2.1-5.5-5-11.1-6.1-17.4c-1.9-11-3.1-22.1-1.7-33.3c0.7-6,1.5-12,0.4-18.2c-6,0.7-11.1-1.9-15.9-4.9c-6.8-4.1-9-10.9-10.2-18.4
		c-2-12.2,3.9-20.7,12.3-28.2c2.9-2.6,5.4-5.5,9.5-6.5c10.8-2.4,19.7-0.4,28.3,11.6c3.5-1.1,7-2.1,10.8-2.1c2.3,0,4.3,0.5,6.2,1.7
		c12.4,7.5,17.4,22.2,12.3,35.9c-1.2,3.2-2.5,6.3-4.2,9.3c-5,8.8-13.1,13.3-22.8,15.3c-1.3,0.3-2.5-1.1-4-0.3
		c-0.6,3.5-0.6,7,1.9,9.9c2.6,3,4.4,6.3,5.3,10.2c0.2,0.7,0.6,1.3,1,2.1c2.5-1.1,4.9-2.3,7.3-3.3c3.5-1.5,6.4-3.6,9-6.5
		c4.5-5.3,10.4-8.1,17.5-8.3c4-0.1,8-0.9,12-0.8c2.5,0.1,4.9,1.1,7.3-0.5c1,1.5,0.1,3.5,2,4.6c4.9-1.1,11.4,1.7,14.9-5.8
		c-0.5-3.5-1.8-7.7,1.8-12c2.7-3.2,2.3-8.9,7.6-9.8c0.7-1.2,0.3-2,0.1-2.8c-0.8-3.9-0.5-4.8,3-6.2c1.8-0.7,2.2-2,2.5-3.7
		c4.4-0.2,6.6-4.1,10.2-5.5c-0.2-1.9-2.2-2-2.8-3.5c0.1-1.4,1.4,0,1.9-0.9c0.4-1.6-0.6-3.5,0.4-5.1c1.7-0.3,2.9,0.6,4.5,1.7
		c0.1-2.1-2.5-2.3-2.1-4.3c2.4-0.9,4.2,1.2,6,1.2c1.5,1.2,0.6,3.6,2.7,4c0.3-2.7-1.6-4.4-3.3-6.6c2.6-0.2,3.3,1.8,4.7,2.8
		c0.9-0.5-0.5-1.7,1-2.1c1.2,0,1.1,1.4,1.8,2.2c1.2,1.5,2.3,3.1,4.7,2.4c1.1-0.4,1.7,0.6,2.6,1.1c1.3,0.7,1.8,2.3,3.7,2.6
		c2.1-2.1,4.5-4.1,7.2-5.7c5.7-3.5,9.4-3.3,14.6,0.6c1.5,1.2,3.1,2.3,4.5,3.6c4.7,4.2,4.5,10.2,5.9,15.8c1,0.5,2.2,0.9,3.5,0.2
		c1.1-0.6,2.1-0.3,2.6,1.1c-1,1.6-1.5,3.5-2.2,5.2c-0.6,1.3-1.4,2.5-2.8,2.9c-2.1,0.2-1.8-1.5-2.2-2.7c-2,0.7-3.5,0.1-4.6-1.8
		c-0.7,1.5-0.4,2.9-0.8,4.5c1.6-3.3,2.7-3.5,4.9-1c0.8,0.9,1.3,1.7,2.6,1c3.6-1.6,3.4-5.5,5-8.2c2.1-4.2,4.2-8.3,6.9-12.2
		c3.6-5.2,11.1-8.4,17.2-6.7c0.5,0.1,0.9,0.4,0.9,1c-0.1,0.4-0.4,0.6-0.7,0.6c-8.6-1.7-13.5,3.4-17.7,9.8c-0.4,0.6-0.8,1.2-1.1,1.9
		c-5,11.7-8.3,23.6-3.8,36.3c0.9,2.4,2.1,4.6,3.2,6.9c2.2,4.7,6.2,6.5,10.9,7.5c1,0.2,2.1,0.4,3.2-0.1c7.4-3.4,12.9-8.5,15.3-16.5
		c0.5-1.7,1-3.5,1.5-5.5c-3.7-1.4-7.8-0.9-11.4-2.5c-2.6-4.8-2.5-6,1.1-10.1c3.6-0.3,7.3,0.4,11.2,0.6c0-7.6-1.3-14.6-4.6-21.2
		c-2.2-4.2-5.9-5.1-10.1-3.2c-8.5,3.9-11.8,11.4-14.3,19.6c-2.4,7.7-2.1,15.7-0.7,23.4c1,5.6,3.9,10.4,9.9,13.1
		c-3.3,0.2-4.9-0.5-6.8-2.8c-4.6-5.8-6.7-12.3-6.7-19.9c0-6,0.3-11.9,2.6-17.5c1.9-4.7,4.3-9.2,7.9-13c2.7-2.9,6.4-3.8,9.8-5.4
		c1.2-0.5,2.6-0.6,3.3-1.9c4,1.7,6.4,4.4,7.6,8.1c2.3,6.7,5.4,13.3,5,21c3.8-0.7,6.3,0.7,7.2,4.1c0.8,2.8,0.7,5.6-2.4,7.5
		c-1.9-0.2-3.9-0.4-5.9,0.1c-3.5,22.1-21.4,28.2-33,20.3c-0.5,0.2-0.7,1.1-1.5,0.9c-2.6-3.2-1-8.1-4.6-10.9c-0.8-0.6-1.9,0.1-3-0.1
		c0.2-1.5,1.8-1.4,2.7-2.4c-1.6-4.5-1.9-9.4-2.5-14.2c-1.2-0.7-2.3-0.6-3.7,0.1c1.5,1.8,2.9,3.4,3.5,5.7c-2.7-2.2-5.1-4.3-8.6-5.6
		c-3.3-1.2-6.3-1.8-9.9-2.3c-0.1-3,4.6-6.2,0.7-10.2c-2,1.9-4.1,3.7-6.8,5c2.6,4.6,4.5,9.1,6,13.8c0.4,1.3,1.6,1.6,2.7,2.2
		c8,3.8,13.2,10.1,15.6,18.5c0.7,2.3,2.1,4.1,2.6,6.6c1.2,6.2,1,12.6,2.1,18.8c0.8,4.8,1.9,9.5,2.7,14.3c0.6,3.2,0.2,6.5,0,9.7
		c-0.3,0-0.5,0.1-0.8,0.1c-1.1-6.6-2.3-13.1-3.4-19.5c-3.9-1.5-7.4-2.8-10.7-4.6c-2.3-1.3-4.8-0.6-7.1-0.4c-4.6,0.5-9-0.4-13.5-1.1
		c5-1.8,10.1-0.6,15.2-1c5.4-0.4,10.1,2.2,15.4,3.9c-1.2-8.6-0.6-17.1-3.8-26.1c-5.2,5.8-9.6,11.2-12,17.4c-0.2,1.9,1.6,2.1,1.2,3.5
		c-1.4,0.8-2.2-0.3-3-1.1c-2.1-2.1-4.1-4.2-6.1-6.3c-4.3-4.6-9.7-7.1-15.9-7.9c-6.6-0.9-12.7-4-19.4-4.8c-0.6-0.1-1.1-0.8-2-1.5
		c-4.7,7.6-10,14.8-13.1,23.6c1.8,0.1,3.2-0.6,4.5-1.5c2.3-1.6,4.7-2,7.3-0.9c1.2,0.5,2.4,0.7,3.5,0.7c4.6-0.1,8.6,2.9,13.3,2.3
		c0.5-0.1,1.1,0.5,1.2,1.3c-0.2,1.4-1.4,1.4-2.5,1.5c-2.7,0.1-5.3-0.6-7.9-1.2c-4.3-0.9-8.6-2.6-13.1-0.6c-1.1,0.5-2.1-0.3-3.2-0.5
		c-1.3,0.9-2.4,2.4-4.3,1.8c-2.1,5.7-4.6,11-1.8,17c2.3,4.9,5.8,9,9.5,12.8c1.9,2,4.9,1.8,7.8,2.6c0.2-1.4,0.8-2.6,2.4-2.8
		c5.4-1,10-3.3,13-8.2c0.3-0.5,0.9-0.8,1.4-1.2l-0.1-0.1c0.3,1.5-0.5,2.8-1.1,4.4c11-2.8,18,4.4,25.7,9.9c0.5,0.3,0.9,0.8,1.5,1
		c8.4,3.4,17.1,6.1,25.8,8.7c0.3,0.1,0.7,0,1.3-0.1c-2.7-2.1-6.3-2.8-8.2-6.4c3,0.1,5,1.7,6.8,3c4.1,3,8.3,4.1,13.2,2.2
		c1.2-0.5,2.6-0.5,3.9-0.7c4.9-0.6,7.6-3.2,8.2-8.1c0.4-3.1,0.6-6.3-0.1-9.4c-1.2-4.9-2.3-9.9-2.8-15c-0.5-5.2-2.9-10-5.4-14.6
		c-2.6-4.7-5.1-9.4-7.2-14.3c-0.4-1-1.4-2.1-0.7-3.4c1.5-0.3,1.8,1.1,2.2,1.9c4.3,9.1,9.1,17.9,12.6,27.4c2,5.5,2.3,11.1,3.2,16.7
		c0.7,4.1,0.8,8.2,0.3,12.3c-0.5,4.4-3,7.2-7,8.4c-8.8,2.6-17.5,4.3-26.7,0.7c-6.4-2.5-13.2-4-19.7-6.5c-5.7-2.2-11.1-4.7-15.2-9.6
		c-2-2.4-5.3-1.4-7.6-2.8c-6.9,7.4-14.4,13.9-19.1,22.6c17.1,42.2,40,82,53.8,125.3c12.7,2.9,25.1,4.7,37.4,6.6
		c4.2,0.7,8.4,1.4,12.5,2.6c1.4,0.4,2.4,0.9,3,2.3c2.6,5.6,5.8,10.8,9.1,16.2C585.1,556.3,584.7,556.6,584.4,556.8
		c-6.6-3-9.4-8.6-10.3-15.4c-6.8-0.9-13.5-1.9-20.2-2.9c-9.9-1.4-19.6-3.7-29.3-5.7c-2.3-0.5-4.5-0.2-6.8,0.3
		c-2.7,0.7-5.6,1.4-8.3-0.4c0.6-2.9,1.9-4.6,4.7-5.2c1.8-0.4,3.6-1.4,2.5-3.5c-2.9-5.8-4.1-12.2-6-18.3c-3.5-11.6-10-21.9-14.3-33.1
		c-6.1-15.8-15.1-30.2-21.5-45.8c-1.8-4.3-3.4-8.6-4.9-12.9c-0.5-1.3-0.6-2.9-2.2-3.6c-3.2,1.8-3.8,3.2-2.7,7.2
		c2.6,8.8,6.6,17,10.5,25.2c5.4,11.2,11.9,21.8,16.3,33.4c2.2,5.7,4.2,11.4,6.6,17c3.3,7.4,6.9,14.8,11.4,21.5
		c1.1,1.6,1.9,3.4,2.5,5.2c0.9,2.6,0.1,3.5-3,3.6c-0.5-0.2-1.1-0.4-1.6-0.7c-7.8-11.5-13.9-23.9-18.7-36.9
		c-4.3-11.7-9.1-23-15.3-33.8c-5-8.9-9.1-18.3-12.2-28c-0.4-1.3-0.4-2.9-2.3-3.6c-1.8,1.2-1.5,2.9-0.8,4.4c6,13.4,10.8,27.3,16.2,41
		c3.7,9.5,9.4,17.8,13.7,26.9c4.5,9.5,8.7,19.2,12.4,29.1c0.7,1.9,0.4,3.3-1.9,4.1c-2.6-1.3-4.2-3.4-5.5-6.2
		c-5.3-11.4-9.1-23.5-15.9-34.3c-5.7-9.2-9.5-19.4-13.1-29.6c-2.6-7.6-5.5-15.1-8.3-22.6c-0.6-1.5-1-3.3-2.8-4.6
		c-3.5,2.3-5.8,5.8-8.1,9.1c-8.7,12.7-19,24.3-27.9,36.9c-6,8.4-14.1,13.7-22.9,18.5c-3.6,2-7.1,4.2-9.5,7.7c-0.7,1-1.6,1.8-2.6,2.5
		c-2.1,1.5-4.3,2.9-3.4,6.1c0.9,3.6,2.9,5.6,6.7,6.2c10.2,1.6,20.4,3.3,30.5,5.1c1.3,0.2,2.6,0.4,3.9,0.8c4.9,1.5,9.3,1.2,14-1.2
		c7.2-3.6,15.3-3,22.9-2.2c11.3,1.2,22.5,3.9,33.9,4.4c2.8,0.1,5.5,1,7.5,3.4c3.8-2,7-0.5,10.2,1.4c1.1,0.7,2,1.6,1.4,3
		c-0.5,1.2-1.3,2-2.8,1.9c-11-0.3-22.1,0.7-33.1-0.5c-5.8-0.6-11.6-0.3-17.5-0.7c-7-0.4-14-1.1-21.1-1c-9.6,0.1-18.7-3-28-4.5
		c-7-1.1-13.9-2.3-20.9-3.4c-4.6-0.7-5.6,0.1-5.6,4.6c0,6.9-1.4,13.6-2.7,20.4c-0.3,1.7-1.1,3.5-0.3,5.3c1.2,1.3,2.7,1,4.1,0.7
		c18.4-4.1,37.2-5.4,55.9-7.4c17.5-1.9,35-3.2,52.6-4.7c7-0.6,13.9-1.9,21-2.4c2-0.1,3.9-0.3,4.3,2.1c0.4,2.5-1.7,2.8-3.5,3.2
		c-4.9,1-9.7,1.7-14.6,0.9c22.6,3.4,45.2,6.6,67,11.2c-0.2-0.3-0.9-1.2-1.2-2.3c-1.6-5.5-5.9-6.8-10.9-7.5
		c-13.6-1.8-27.1-3.8-40.3-8c-2.1-0.7-3.7-1.3-2.9-4.1c3.3-0.7,6.7-0.7,10,0.1c13.3,2.9,26.8,4.7,40.2,6.8c4.5,0.7,9.1-0.8,13.6,0.2
		c1.6,2.4-0.1,3.5-1.9,4.2c-4,1.4-3.8,3.3-2.2,6.8c0.4,0.8,0.8,1.5,1.1,2.3c1.2,2.7,3,3.4,5.8,2.6
		C579,556.2,581.7,554.7,584.4,556.8z"/>
	<path d="M906.9,347c5.2-3.5,9.3-8.3,14.2-12.2c1.5-1.2,2-3,2.5-4.7c0.7-2.5,2-4.1,4.9-3.3c0.4-1.3-1.2-2.8,0.8-3.5
		c2.3,2.5,2.7,4.5,1.4,7.2c-1.3,0.7-2.2-0.9-3.8-0.5c0.5,4.6-3.1,7.4-5.3,11c-0.3,0.5-0.8,1.2-1.3,1.2c-3.8,0.5-5.8,3.9-8.9,5.6
		c-1.7,0.9-3.3,1.6-4.7-0.5L906.9,347z"/>
	<path d="M377.5,413.5c9.6,3,14.4,10.4,18.1,18.9c3.8,8.8,5.3,22.5,2.8,26.2C397.2,440.7,393.6,424.2,377.5,413.5z"/>
	<path d="M785.8,600.4c3.4,0.8,6.9-0.4,9.5,2.1c0,0.3-0.1,0.6-0.1,0.9c-4.1-0.6-8.2-1.2-12.1-1.8c3.1-7.7,5.6-15.4,10.8-21.8
		c0.7,4-1.8,7-3.2,10.4C789.2,593.6,788.1,597.1,785.8,600.4z"/>
	<path d="M767.6,597.9c7.6-8.6,16.3-15.9,25.9-22.3C785.7,583.9,776.2,590.4,767.6,597.9z"/>
	<path d="M826,268.4c2.2,2.3,3.1,5.3,3.8,8.1c1,4,3.7,7.7,2.8,12.1l0.1-0.1c-3.4-3.8-4.3-8.8-5.9-13.4c-0.4-1.2-0.6-2.6-1.2-3.7
		C824.9,270.3,824.5,269.2,826,268.4L826,268.4z"/>
	<path d="M504.1,371.9c-6.1-2.9-10.9-7.7-16.3-11.7C491,359.3,499.5,365.5,504.1,371.9z"/>
	<path d="M479.3,358.5c0.8-0.2,1.6-0.6,2.5-0.1c5.5,3.3,11,6.6,14.9,11.8c0.4,0.5,0.9,1.1,0.4,2.5c-3.8-5.9-9.7-8.7-15.3-11.8
		C480.7,360.4,479.8,359.7,479.3,358.5L479.3,358.5z"/>
	<path d="M933.2,371.4c-3,5.2-8.1,7.9-13,11c2.5-5,7.8-7.2,10.9-11.5C931.6,370.3,932.3,370.5,933.2,371.4z"/>
	<path d="M385.3,427.1c4.2,6.1,7.1,12.8,9,20c-3.3-6.5-6.2-13.3-10.8-19.2C384.1,427.7,384.7,427.4,385.3,427.1z"/>
	<path d="M373.7,410.2c0,1.1-0.6,1.3-1.6,1.4c-3.9,0.2-7,2.4-10.5,3.8c-1.2,0.5-0.5,1.3-0.7,2.2c-1.8-1.1-3.3,0-5,0.4
		C361.2,413.5,366.5,409.7,373.7,410.2L373.7,410.2z"/>
	<path d="M524.7,381.4c-6.2-2.9-12.5-5.8-19-7.9C513.6,372.5,518.8,377.8,524.7,381.4z"/>
	<path d="M941,353.7c-1,6-2.8,11.3-6.8,16.3C934.7,365.8,939.2,354.8,941,353.7z"/>
	<path d="M729,598.6c5.7,0,21.4,3.1,27.9,5.4c-0.4,0.6-1,0.4-1.5,0.3c-8-1.8-16-3.7-24.1-4.9C730.5,599.3,729.6,599.4,729,598.6
		L729,598.6z"/>
	<path d="M972.1,317.2c-0.1-1.4-1.6-2.4-1.2-4c1.7-0.4,1.3,1.8,2.4,2c1.4-0.4,0.8-2.2,2.3-2.8c1.3,0.7,1.5,2.8,3.9,2.7
		c-1.8,1.9-2.7,0-3.9,0.3c-3.3,2.2,0.2,4.3,0.3,6.6c-1.8,0.2-1.8-1.7-2.9-2.3c-1.2,0.1-1.2,1.7-2.5,1.9
		C970.5,320,971.8,319,972.1,317.2z"/>
	<path d="M373.3,492.9c0.1-0.1,0.2-0.2,0.4-0.2c1.4,0.7,2.7,0.6,4.2,0.1c2.4-0.8,4.8-1.3,7.5-1.3c-1.1,2.2-7.5,4.1-12.3,3.9
		C372,494.5,373,493.7,373.3,492.9z"/>
	<path d="M965.4,330.5c0-2.4,1.5-3.1,1.9-4.6c-0.1-1.2-1.5-1.9-1.1-3.3c3.1-0.6,5,1.7,6,7.4c-1.9-0.3-2.1-2.6-3.9-3.1
		C967.5,328,966.7,329,965.4,330.5z"/>
	<path d="M951.6,225.7c0.9,4.9,2.7,8.9,1.5,13.4c-0.7,2.5,1.2,5.3,0.3,8.9c-1.2-3.2-1.8-5.9-1.3-8.5c0.6-3.1-0.1-5.9-0.8-8.8
		C951,229.4,950.1,228,951.6,225.7z"/>
	<path d="M953.4,267c0.2-4.9-0.2-9.8-1.2-15.4C955.4,256.3,955.9,263.6,953.4,267z"/>
	<path d="M724.5,597.9c-6.3-0.3-12.3-2.4-18.3-4C712.5,594,718.6,595.6,724.5,597.9L724.5,597.9z"/>
	<path d="M832.5,288.7c3.6,4.6,5.1,8.7,4.4,12.4C835.3,297,833,293.1,832.5,288.7L832.5,288.7z"/>
	<path d="M928.5,310.2c-2.1-4.5-1.9-8,0.7-11.4C929.2,302.3,929.6,305.9,928.5,310.2z"/>
	<path d="M533.6,381c0.2,4,2.3,6.8,5.2,9.4C533.6,389.6,531,385,533.6,381z"/>
	<path d="M930.9,322.1c-0.6-3.1-1.1-6.1-1.7-9.2c2.3,2.7,3.3,5.6,2.7,8.9C931.6,321.9,931.3,322,930.9,322.1z"/>
	<path d="M825,300.7c-4.4-2.8-3.5-6.4-3.8-9.6c0.2-0.1,0.5-0.2,0.7-0.2C822.8,293.9,823.8,296.9,825,300.7z"/>
	<path d="M979.6,306.1c-0.2,2.3,2.1,3.7,2.3,6.1c-1.5-0.1-1.4-2-2.7-2c-0.5,0.3-0.2,1.1-0.6,1.5c-0.8-1.2-1.3-2.5-1.6-3.6
		C977.5,306.5,979.1,307.1,979.6,306.1L979.6,306.1z"/>
	<path d="M349.6,417.8c-3.8,3.5-6,4.3-7.9,2.9C343.9,419.1,346.5,418.4,349.6,417.8z"/>
	<path d="M519,381.2c3.2,1.9,5.2,4.1,7.3,7.6C523.6,387.4,519.7,383.2,519,381.2z"/>
	<path d="M821.8,258.9c0.5-4.4-2-8.1-2.3-12.4C821.4,248.6,822.7,254.9,821.8,258.9z"/>
	<path d="M825.3,304c3.2,3.4,3.5,4,4.5,7.1C827.3,310.2,825.6,307.7,825.3,304z"/>
	<path d="M479.4,358.4c-1.3,0.9-2.7,1.3-4.2,1.7c-0.1-0.1-0.2-0.2-0.3-0.3c1.7-2.7,1.7-2.7,4.2-4.1
		C480.8,356.5,480.3,357.5,479.4,358.4L479.4,358.4z"/>
	<path d="M535.7,331c1.6,1.8,2.9,3.8,3.1,6.3C537.4,335.4,535.5,333.7,535.7,331z"/>
	<path d="M947.1,340.6c-1,2.3-2,4.5-3.1,6.8c-0.2-0.1-0.5-0.2-0.7-0.3c0-2.8,1.4-4.9,3.5-6.7C946.8,340.4,946.9,340.5,947.1,340.6z"
		/>
	<path d="M830,231.6c1.1,1.6,2.4,3.1,2.8,5.7C830.3,235.6,830.1,233.6,830,231.6z"/>
	<path d="M942.1,268.6c0.6,2.4,0.6,2.4-0.5,5.7C940.7,271.9,940.7,271.5,942.1,268.6z"/>
	<path d="M826.1,268.5c-1.3-1.6-2.1-3.4-2.2-6.3C825.5,264.4,826.9,266,826.1,268.5L826.1,268.5z"/>
	<path d="M939.4,251.8c1.7,1.5,1.2,3.1,0.3,5.5C938.7,255,939,253.4,939.4,251.8z"/>
	<path d="M833.6,212.5c-0.2,2.9-0.4,4.9-0.5,6.9C832.5,217.3,831.3,215.2,833.6,212.5z"/>
	<path d="M292,437.7c-2.4,0-4.5-1.2-6.6-2.2C287.8,435.7,290.1,436.3,292,437.7z"/>
	<path d="M961.9,333c0.7,2.2,1.5,3.7,0.6,5.8C961.4,337,960.5,335.6,961.9,333z"/>
	<path d="M946.7,340.3c1-1.9,1.2-4.3,2.9-5.9c0.2-0.1,0.4-0.2,0.6-0.2c-0.1,0.2-0.1,0.4-0.2,0.6c-1.1,1.9-1,4.3-3,5.8
		C946.9,340.5,946.8,340.4,946.7,340.3z"/>
	<path d="M486,374.6c0-2.2,1.2-2.6,3.4-2.3C488.6,373.9,487.4,374.5,486,374.6L486,374.6z"/>
	<path d="M546.2,387.2c0.6-1.4,1.9-2,3-3.6C548.4,386.6,548.4,386.6,546.2,387.2z"/>
	<path d="M547.5,371.7c-0.8,1.7-1.6,2.5-3.1,2.9C544.6,372.8,545.7,372.4,547.5,371.7z"/>
	<path d="M464.5,362.2c1-1.2,1.7-1.5,2.7-1.2C467.7,362,467.4,362.1,464.5,362.2z"/>
	<path d="M558.4,366.2c0.3,1-0.3,1.6-0.7,2.8C557.4,367.7,557.6,366.9,558.4,366.2z"/>
	<path d="M344.5,409.7c0.8,0,1.6,0,2.4,0c0,0.1,0,0.2,0,0.2c-0.8,0-1.7,0-2.5,0C344.5,409.8,344.5,409.7,344.5,409.7z"/>
	<path d="M550.4,367.2c-0.1,0.8-0.3,1.3-1.2,1.7C549.1,368.1,549.5,367.7,550.4,367.2z"/>
	<path d="M915.5,165.5c0.3,0.5,0.5,1.1,0.8,1.6c-1.2,0.5-1.6-0.3-1.9-1.1C914.7,165.5,915.1,165.4,915.5,165.5L915.5,165.5z"/>
	<path d="M729.1,598.5c-1.6,0.2-3.1,0-4.6-0.6l-0.1,0.1C726,598.1,727.6,597.6,729.1,598.5L729.1,598.5z"/>
	<path d="M475.2,360.1c-0.4,0.8-0.4,1.9-1.9,2c0-1.2,1.1-1.5,1.6-2.3C475,359.9,475.1,360,475.2,360.1z"/>
	<path d="M831.4,224.6c-0.5-0.7-0.5-1.3,0-2C831.9,223.3,831.9,223.9,831.4,224.6z"/>
	<path d="M493.2,352.4c0.5-1.2,0.9-0.9,1.6-0.5C494.3,353.1,493.8,352.5,493.2,352.4z"/>
	<path d="M550.4,383.1c-0.3-0.7-0.1-1,0.6-1C551.1,382.5,550.9,382.9,550.4,383.1z"/>
	<path d="M949.6,334.5c0.3-0.6,0.4-1.3,1.3-1.4c0.1,0.8-0.4,1.3-0.9,1.7C949.9,334.7,949.8,334.6,949.6,334.5z"/>
	<path d="M272.5,413.9c0.5-0.3,0.8,0.1,1,0.4C273,414.6,272.6,414.6,272.5,413.9z"/>
	<path d="M922.1,167.7c-0.1,0.7-0.2,1.5-1.2,0.9C921,167.6,921.7,167.8,922.1,167.7L922.1,167.7z"/>
	<path fill="#FFFFFF" d="M1037.4,557.7c-4.5,0.4-8.6,2.2-12.9,3.6c-1.9-2.1-2.7-4.7-3.9-7.1c-1.2-2.3-2.1-4.6-3.3-7.2
		c2.7-1.6,6.1-2,8.8-4.5c-2.5-0.4-4.6-0.1-6.7,0.6c-2.5,0.8-5,0.8-7.6,0.4c-11.2-1.9-22.5-3.7-33.8-5.5c-4.2-0.7-8.3-1.7-12.4-2.7
		c-1.3-0.3-2.7-1.3-4.6,0.5c8.8,3.7,17.7,4.9,26.5,6.6c8.8,1.7,17.7,3,26.8,4.3c2,4.3,4,8.5,6,12.9c-25.1-5.9-50.8-8.7-76.3-13.9
		c7.9-1.1,15.5-2.1,23.4-3.2c-1.2-2.3-2.8-1.5-4.1-1.4c-8.7,0.9-17.4,1.9-26.1,2.8c-15.6,1.6-31.2,2.9-46.8,4.3
		c-13.1,1.1-26.1,2.6-39.1,4.2c-7.3,0.9-14.6,2.4-21.8,3.8c-1.7,0.3-2.4,2.6-4.8,1.8c1-12.6,5.2-24.9,4.3-37.8c1-1,2.1-0.5,3.1-0.3
		c13.5,2.4,27.1,4.2,40.5,7.2c7.8,1.7,15.7,1.5,23.5,2c18.3,1.2,36.6,2,55,1.8c3.2,0,6.4-0.3,9.8,0c-2.1-2.1-4.4-3.4-7.1-4
		c-6.5-1.5-13-2.7-19.7-3c-8.6-0.3-17-2.7-25.6-3.8c-6.9-0.9-13.8-0.9-20.6,1c-1.9,0.5-4,0.9-5.3,2.2c-2,2-4.2,2-6.7,1.5
		c-15.7-3.4-31.5-5.7-47.5-8.5c-0.7-3.8-2.2-7.2-3.9-10.6c4.1-2.4,7.8-4.6,10.3-8.7c1.6-2.6,4.9-3.9,7.6-5.4
		c4.1-2.4,8.2-4.6,12.4-8.2c-0.6,1.3-0.9,1.9-1.2,2.5c0.2,0.2,0.3,0.3,0.5,0.5c1.7-1.8,3.5-3.5,5.1-5.5c8.3-9.9,15.8-20.4,23.9-30.3
		c7.3-9,13.4-19,21.4-27.9c1,0.9,1.3,2.2,1.8,3.4c4.2,10.9,8,21.9,12.2,32.7c4.3,11,8.6,22.1,15.3,32.1c2.3,3.4,4.2,7.1,5.1,11.2
		c0.5,2.2,1.5,4.3,2.6,6.4c2.1,3.9,4.2,7.9,5.3,12.3c0.7,3,1.6,3.8,3.8,4.4c0.4-0.4,0.7-0.8,0.4-1.3c-2.5-4.9-3.6-10.3-6.6-14.9
		c-1.9-3-3.1-6.3-3.9-9.7c-1.4-5.8-5.2-10.4-8.1-15.4c-1.8-3-3.7-6-5.1-9.3c-7.7-17.7-13.4-36.2-21.6-53.6c1.1-3,3.7-4.6,5.2-7.6
		c1,1.2,1.2,2.3,1.5,3.4c3.9,14.1,10.2,27.2,17.3,40c5.6,10,9.3,20.8,13.4,31.5c4.5,11.8,10.2,23,17.4,33.4c0.1,0.5,0.3,0.8,0.8,0.8
		c0.4,0.2,0.8,0.6,1.5,0.3c-0.8-2.7-1.9-5.4-3.6-7.8c-6.6-9.7-11.4-20.3-15.3-31.3c-4.2-11.6-9.6-22.5-15.3-33.3
		c-6.4-12.2-12.5-24.6-16.3-38.5c2-2.6,4.1-5.3,6.4-8.2c1.4,1.6,1.8,3.5,2.3,5.2c4.2,12.7,9.3,25.1,15.8,36.7
		c7.1,12.6,11.5,26.4,18.1,39.2c3.4,6.6,6.1,13.4,8.7,20.4c0.8,2.1,1.1,4.2,1.6,6.3c1.5,5.9,4.1,11.3,6.8,17
		c-4,0.6-8.1,0.5-11.2,3.6c2.9,1.9,4.9,1.4,10.7-2.2c17.8,5.1,36.4,6.7,54.5,10.8C1029.5,547.1,1032.2,553.3,1037.4,557.7
		L1037.4,557.7z"/>
	<path fill="#FFFFFF" d="M752.9,592.7c-4.3-2.4-8.9-2.1-13.3-2.7c-7.1-1-14.1-2.5-20.9-4.6c-1.6-0.5-3-0.5-4.6,0.1
		c-4.5,1.5-9,2.9-13.6,4.3c-1.2,2.5-2,5.2-3.9,7.6c-2.8-1.5-3.8-4.1-4.1-7c-0.4-3.1-0.5-6.3-1.6-9.3c-0.8-2.2-1.8-4.3-4.2-4.9
		c-1.3-0.1-1.6,1.2-2.6,1.8c-1.9-8.5-2.6-16.8-3.2-25.1c-0.1-1.6-0.1-3.2-0.2-4.7c-0.6-6.3,0.2-12.2,2.7-18.1
		c4.2-9.8,6.4-20.2,4.1-30.9c-1.3-6.1-2-12.5-4.2-18.4c-0.8-2.1-0.8-4.3,0.4-6.6c2.3-0.7,4.8-1.6,7.4-2.1c1.5-0.3,3.4-1,4.7,0.7
		c0.2,0.3,0.9,0.3,1.4,0.3c5.7,0,11.4,0.3,17-0.2c4.4-0.4,8.7,0.4,13,0.3c2.6,0,5,2.7,7.9,3.4c0.9,0.2,2,0.9,2.8,0.7
		c5.4-1.8,11.5-2,15.9-6.3c1.5-1.4,3-2.4,4.9-2.6c1.2,0.4,1.5,1.4,1.9,2.2c4.5,7.8,9.3,15.3,14.2,22.9c2.5,3.9,4.7,8,6.2,12.3
		c1.2,3.4,0.5,7.2,0.1,10.8c-1,8.6-1.3,17.2,1.2,25.6c0.3,1,0.1,1.8-0.1,2.7c-1.3,5.3-3.9,10.2-5.8,15.3c-1.8,4.6-3.5,9.3-5,14
		c-0.8,2.7-2.3,4.8-4.3,6.6C762.5,584.8,757.8,588.6,752.9,592.7z"/>
	<path fill="#FFFFFF" d="M812.8,359.7c-4,2.2-7.9,4.5-11.9,6.7c1.5-3.7,3.8-7,4.7-10.8c0.8-3.6,1.6-7,3.6-10.1
		c1.4-2.1,2.6-4.4,4.5-6c0.6,0.2,0.2,1.3,1.3,1.1c3.3-4.1,7.6-7.1,12.4-9.5c2.9-1.4,5.8-2.9,7.9-5.6c1.2-1.4,3-2.9,5.6-1.9
		c-0.2-2.3,1.2-3.4,2.7-4.7c4.9-4.1,10.9-3.6,16.6-4.4c2.4-0.4,4.8-0.5,7.2,0.4c1.6,0.6,3.3-0.4,5.3-0.5c0.3,1.1,0.5,2.2,0.8,3.4
		c5,2,11.1,0.7,15.7,4.6c0.2,0,0.5-0.1,0.9,0c7.3,0.5,13.2-4.2,20.1-5.3c1.7-0.3,3.2-2.1,4.9-3c1.6-0.8,3.3-1.4,5.6-1.7
		c-1.6,2.6-3.3,4.4-5.2,6.2c-8.7,8.2-12.3,18.8-14.5,30.2c-1,5.1-1.6,10.2-1.5,15.4c0.1,3.3,1.1,6.4,2.7,9.3
		c2.8,5.2,6.5,9.6,11.6,12.4c0.2,0.4,0.2,0.7-0.1,0.7c-6,0.4-10.3,3.5-13.7,8.4c-2.4,3.5-6.2,5.7-10.1,8.1
		c0.4-5.7,1.2-10.7,3.4-15.5c2.2-4.7,7.1-7.3,8.8-12.2c-8.9,7.6-15.9,16.1-13.4,28.6c-5,4.4-10.9,6.7-15.7,11.1
		c-2-3.1-4.2-5.8-8.3-7.6c2.4,3.6,4.3,6.6,6.3,9.5c-5.2,3.1-5.2,3.1-4.5,7.6c-1.5,0-1.3-1.9-2.5-2c-0.8,0.8,1.1,1.7-0.4,2.7
		c-2.2-3.3-4.6-6.3-8-8.5c2.1,3.4,5.4,6,6.9,10.1c-2.8,0.5-1.4,3.6-3,5.6c-0.2-2.8-1.3-4.9-2.8-6.8c-5.2-6.6-10.3-13.5-17.2-18.1
		c-4-2.6-9-5-14.2-4.9c-3.9,0.1-7.7,0.2-11.5-0.9c-1.7-0.5-3.3,0.9-5.2,0.5c-1.2-4.3-4.4-5.9-8.6-6.3c-6.5-0.5-13.1-0.1-19.7-0.4
		c11.5-2.2,23.2-3.7,33.9-9c-1-1.2-1.9-0.3-2.6-0.1c-8.9,2.8-18.1,4.7-27.3,6.3c-2.2,0.4-4.5,0.4-6.2,2.5c-0.8,1-2.4,0.5-3.4,0.4
		c6.8-8.2,16-14.3,21.5-23.8c1.2-2.2,3-3.5,5.4-4.5C805.7,365.6,809.6,363.1,812.8,359.7z"/>
	<path fill="#FFFFFF" d="M654,579.2c-0.2-5.3-0.5-10.2-0.7-15.2c-0.3-9.1-0.6-18.2-0.9-27.3c-0.1-3.2-0.5-6.3-1.4-9.3
		c-3.4-11.5-4.6-23.3-5.9-35.1c-0.7-6.1-1.5-12.1-2.3-18.2c-0.6-4.6,0-9.2,1-13.7c0.5-2.6,0.7-4.9,0-7.5c-0.8-2.6,0.5-4.6,1.9-6.9
		c4.6-7.5,13-8.4,19.8-12c3.7-1.9,7.7-3.6,11.6-5.3c3.2-1.4,6.2-4.2,9.2-6.3c7.1-5,15.3-7.3,23.2-10.4c2.6-1,4.6,0.6,6,2.4
		c3.8,5.1,7.5,10.5,9.1,16.8c3,11.4,8.6,21,18,28.3c1,0.7,1.9,1.6,2.8,2.3c0.4,1.2,0,2.4,0,3.7c-15.3,6.2-31.3,4.6-47.2,3.7
		c8.1-3.6,16.9-4.8,25.3-7.4c-15.1,0.5-28.7,7.8-43.7,9.2c-0.6,2.5-2.9,3.8-3.7,6c1.2,1.3,1.8-0.6,2.6-0.2c3.7,10,6.1,20.2,6.6,30.8
		c0.1,3.2-0.2,6.4-1.7,9.8s-1.6,7.6-3.5,11c-2.5,4.3-2.7,8.9-2.8,13.7c-0.2,10.3,0.7,20.6,2.2,30.8c0.4,2.8,1.3,5.4,3.2,8.5
		c-3-0.5-4.8,2.2-7.5,1.9c-1.9-2.4-0.8-5.4-1.7-8.4c-1.5,1.4-1,2.7-1.1,3.9c-0.1,1.3-0.1,2.6-0.2,4.4
		C666.1,583.6,660.6,580,654,579.2z"/>
	<path fill="#FFFFFF" d="M823.6,482.7c1.8-1.7,3.7-3.4,6.2-5.8c-1.9,4.8-4.1,8.5-6.2,12.3c-0.7,1.3-1.5,1.3-3.7,1.2
		c-2.2-2.7-3.3-5.7-1.9-9.2c0.4-0.3-0.2,0.1,0.2-0.2c0.1,0,0,0-0.1,0.2c-2.6,0.2-2.2,2.4-1.9,3.8c1.5,8.8,3.1,17.6,7.2,25.7
		c2.3,4.5,2.8,9.3,2.5,14.4c-0.5,10.1-3.5,19.8-3.9,29.9c-0.5,11.8-3.3,23.3-3.3,35.1c0,6,1.1,11.8,2.1,17.9
		c-1.7,1.2-3.4,2.5-5.2,3.7c-2.2,0.1-4.2-0.3-5.3-2.4c-1.7-3.4-4.5-4-7.9-3.8c-1.2,0.1-2.4,0.5-3.7-0.2c0.5-3.3,1.6-6.5,1.8-9.9
		c0.4-5.5,0.3-10.9-1.9-16.1c-3.8-8.8-4.9-18.5-8.9-27.3c-1.4-3.2-2.6-6.5-3.8-9.8c-3.5-9.7-2.5-19.6-1.3-29.5c0.5-4.2,1-8.4,0-12.7
		c-0.2-1,0.3-1.9,0.2-2.7c-3.5-5.1-5.4-10.5-4.4-16.6c0.5-3.2-0.4-6-1.5-8.8c-0.9-2.2-1.4-4.4-1.8-6.7c-1.1-6.8,2.4-12,6.2-16.8
		c3.6-4.5,8.3-8.1,12-12.2c6.3-1.4,12.4-0.8,18.4-1.9c2.4,2.9,5.5,4.9,8.5,6.9c8.4,5.4,12.4,14.6,10.4,24.4
		c-0.3,1.7-0.7,3.3-1.3,4.7c-3.6,4.4-7.2,8.8-10.8,13.1c0.9,1.3,1.5,0.4,2.1,0.2C823.1,483.7,823.5,483.4,823.6,482.7z"/>
	<path fill="#FFFFFF" d="M768.2,401.1c-1-1.1-2.6-0.5-4.3-1.4c4.4-0.3,8.2-1,12.4-0.8c1.1,2.5,3.6,2.4,6,2.5
		c4.2,0.1,8.5,0.3,12.7,0.6c2.9,0.2,5.4,1.3,8,2.6c3.7,1.8,8,2.7,12.2,3.2c2.6,0.3,5.3,0.1,7.8,1.3c-5,0.8-9.7,2.5-13.1,4.9
		c3.3-2.4,8-3.9,13-4.9c4.4,0.5,8.8-1.1,13.1,0.8c2.7,1.2,5.3,2.4,7.4,4.5c4.5,4.7,8.9,9.6,13.6,14.9c-1.8,0.1-2.8-2-4.3-0.3
		c0.2,1.9,1.9,3.8,2.9,4.8c2.4,2.4,2.7,5.2,2.9,7.9c0.4,8.7-0.4,17.2-3.5,25.4c-0.8,2-0.8,2-0.6,4.7c2.5,0.2,2.2-2.4,3.4-3.5
		c0.8,3.3-0.8,4.9-3.5,6.7c-3.7,2.4-8.2,3.6-11.7,7.3c2-6.6,5.6-12.3,5.9-19c-2.3,5.2-4.5,10.4-6.8,15.6c-2,4.7-3.7,9.7-6.5,14.1
		c-0.2,0-0.3,0-0.5-0.1c-2.8-0.4-5.4,0.5-7.9,1.3c-1.5,0.4-2.7,1-3.7-0.7c0-0.2-0.1-0.3-0.1-0.5c11-11.9,14-25.9,11-41.4
		c-0.9-4.8-4.2-8.1-8-10.9c-1.9-1.3-3.8-2.7-5.8-3.7s-3.7-2.2-4.6-4.6c-7.6-0.2-15,0.3-22.9,2.2c3.1-4.6,6-8.6,9.3-12.2
		c1.6-1.8,4.1-2.1,6.4-2.2c6.6-0.4,13.1-0.5,19.5,1.3c2,0.6,4.2,1.3,6.5,0.6c0.1-2-1.4-2.4-2.7-2.7c-8.3-2.5-16.7-2.6-25.2-0.8
		c-3.8,0.8-6.8,3.1-9.2,6.1c-2.7,3.5-5.4,7-8.7,11.3c0.5-3.4-1-6.3,1.6-8.4c-2.2-8.9-8.4-13.9-16.5-17c-1.1-0.4-2.4-0.4-3.2-1.5v0.1
		c4.9,0.4,9.5,2.4,14.5,2.8c-9-4.4-19.1-5.4-28.5-9c1.1-1.7,2.6-2.1,4.5-1.9C763.4,401.2,765.8,401.4,768.2,401.1h0.2H768.2
		L768.2,401.1z"/>
	<path fill="#FFFFFF" d="M661.2,591.2c-3-3.7-7.7-3.4-11.4-5.2c0.8-1.9,2.1-2.1,3.7-0.9c0.5-1.1,0.9-2,1.6-3.3
		c7.4,2.4,14.6,5.5,22.4,4.3c1.1,1.2,1.9,2.3,0.9,3.4c-1.3,1.6-3,3-5.3,2.6c-2.1-0.3-4.1-0.5-6.1,0.2c-1.7-1.1-2.9-2.6-3.7-4.4
		c-1.4-3-4.9-4.5-7.9-3.7c-0.2,0.5,0,1.1,0.4,1.2c3.5,1.1,5.6,3.4,7.3,6.6c1,1.8,2.7,3.4,4.6,4.1c1.4,0.1,1.3-1.1,1.9-1.6
		c0.3,0,0.5-0.2,0.8-0.1c3.8,0.9,7.5,1.3,10.1-2.5c2.1-3,5.4-5.4,4.9-9.7c-0.1-0.8,0.4-1.4,1.3-1.8c2,3.4,1.5,7.5,2.8,11.1
		c0.9,2.6,1.7,5.3,3.7,7.4c2.3,2.4,0.9,5.9,2.8,8.3c-2.4,4.7-6.4,6.8-11,7.9c-6.1,1.5-12.2,2-18.4,0.8c-1.7-0.3-3.4-0.3-5.1-0.1
		c-8.3,0.9-16.4,2.6-24.5,5.1c-6.7,2.1-13.7,3.1-20.6,4.5c-1.1,0.2-2.4,0.2-3.6-0.4c0.1-0.6,0.2-1.1,0.3-1.7
		c-6.2-0.2-11.7-1.3-13.6-8.3c-0.8-2.8,0.5-4.9,2.1-6.8c9.9-1.3,17.7-7.2,26.8-11c3.3,2.6,6.6,6.2,11.7,6.4c0.9,0,0.9-0.1,2.4-1.8
		c0-2.3-2.4-1.7-3.6-3.1c3.3-0.9,7.6,1.2,9.2-3.2c2-0.5,4.5,0.5,5.8-2.4c-4.2-3.9-9.9-3.5-14.9-5.3c0.6-1.9,1.7-1.9,3.3-1.1
		c5.1,2.6,10.9,3.4,16.2,5.3C659.5,592.5,660.4,592.5,661.2,591.2z"/>
	<path fill="#FFFFFF" d="M850.1,186.2c0.2-0.8,0.9-1,1.7-1.4c-4.8-0.9-8.4-3-10.8-7.5c-4.3-8-7.1-16.2-5.8-25.4
		c1.3-8.3,5.4-14.8,12.2-19.9c3.4-2.5,6.8-3.9,10.9-3.8c7.7,0.2,12.7,4.2,15.6,11.1c0.6,1.6,1.2,3.2,1.9,4.7c4.6,9.7,3,19.1-1,28.4
		c-1.3,3.1-3.6,5.7-5.8,8.3C864,187.2,857,186.7,850.1,186.2L850.1,186.2z"/>
	<path fill="#FFFFFF" d="M762.8,661.8c-0.2-1.3-0.4-2.3,0.1-3.6c1.2-0.5,2.5-1,3.8-1.6c1.8-0.8,3.4-1.8,4.2-3.7
		c0.9-2.1,2.8-3.6,4.8-4.2c1.6-0.5,2.6-1.6,3.8-2.5c5.4,2.9,6.3,3,8.7,0.3c-2.5-0.6-4.9-1.1-7.6-1.8c0.9-2.9,2.8-4.9,4.1-7.4
		c1.6,0,2.9,0.1,4.2,1.5c2.9,3.1,14.6,3.5,17.8,0.8c-0.7-1.9-2.5-1.4-4.1-1.8c-0.5-0.8-1.1-1.7-1.6-2.5c2.7-1.3,5.7,2.2,8.1-0.5
		c0.4-1.6-0.8-2.2-1.5-3c2-0.7,3.4,1.5,5.2,0.8c1.1-1.4-0.7-2.8,0-4.2c0.6-0.9,1.9,0.4,2.7-1.1c-3-3.3-7.8-3.5-11.2-6.2
		s-8.1-2.6-12.2-4.3c0.5-1.9,0.9-3.3,1.4-4.6c0.7-2.1,2-3.5,4.5-3.3c1.9,0.1,3.9-0.3,5.8-0.4c1.2-0.1,2.4-0.2,3.3,1
		c0.6,0.9-1,0.9-0.6,2c0.8,0.5,1.8,1,2.7,1.5c1,1.6,0.7,3.2,0.9,4.6c2.6,2.4,6.1,2.6,8.9,4.6c3.2-1.9,3.7-6.3,7.3-7.8
		c0.1,0.7,0.5,1.6,0.3,2.3c-2,5.1-0.4,10,1.9,14.3c2.2,4.2,1.6,7.6-0.1,11.4c-0.3,0.6-0.9,1.2-0.7,2.1c1.5,0.4,1.2-1.6,2.3-1.7
		c0.1,0.1,0.4,0.3,0.3,0.5c-0.6,3.7-1.2,4.7-5.1,4.7c-4.5,0-6.6,2.6-8.7,5.9c-2.5,3.8-5.8,6.7-10.3,8.2c-10,3.4-20.2,4.9-30.8,4.4
		C771.1,666.2,766.9,664.7,762.8,661.8z"/>
	<path fill="#FFFFFF" d="M761.1,464.4c0.6,0.4,1.2,0.8,1.8,1.2c-7.2-13-18.3-23.9-22-38.8c17.6-2.5,31.6,4.2,44.4,15.2
		c-1.5,1.5-2.8,2.9-4.2,4.2c-1.4,1.2-2.4,2.7-3,4.4c-3.1,8.2-4.8,16.4-1,24.9c1,2.3,1,4.8,0.8,7.2c-0.4,4.3,0.6,8.2,2.5,11.9
		c0.5,0.9,0.6,1.8,0.4,3c-2.3-1.9-2.9-4.6-4.2-6.8C771.1,482.1,766.1,473.2,761.1,464.4L761.1,464.4z"/>
	<path fill="#FFFFFF" d="M913.9,388.8c2-1.8,4.4-2.1,6.9-2.5c4.1-0.6,7.8-2.8,11.4-5.3c-5.1,5.5-8.4,12.3-13.8,17.5
		c-3.5,3.4-6,7.9-8.8,12c-5.4,7.7-10.8,15.5-16.9,22.7c-0.7,0.9-1.2,1.8-1.7,2.8c-1.1,2.3-2.6,4.3-4.5,6.1c-4.9-3.4-9.7-6.6-14.6-10
		c-2.1,2.5-3.6,5.4-6.2,7.8c-1.5-1.9-2.8-3.7-4.3-5.6c1.7-3,2.4-6.5,6.4-7.6c2-0.6,2.1-1.8,1.2-5.3c0.2-0.2,0.4-0.6,0.7-0.7
		c2.6-1,4.9-2.1,6.3-4.9c0.9-1.9,2.9-3.1,5-3.9c4.7-1.8,8.6-4.9,12.5-8.1c1-0.8,2.1-1.6,3.2-2.3c1,0.7-0.4,1.4,0.4,2.2
		c3-1.5,3.8-5,6-7.1l-0.1,0.1c1.8-0.3,2.8-1.7,3.2-3.1C907.3,389.4,910.6,389.1,913.9,388.8l0.3,0.2L913.9,388.8z"/>
	<path fill="#FFFFFF" d="M804.2,142.3c-1.7,6.1-2.3,12.2,0.1,18.2c0.6,1.6-0.6,2.7-0.2,4.2c1,4.4,3.4,7.6,7.3,9.5
		c0.6-0.2,0.7-0.4,0.5-0.6c-3.5-3.3-6-6.9-6.1-12.3c-0.1-4.3-0.8-8.7-0.2-13c1.1-7.8,4.6-14.2,10.5-19.8c4.2-4,8.3-3.8,13.1-2.8
		c4.5,1,9,2,12.2,6.1c-3.7,3.3-6.9,6.8-8.9,11c-4.2,1.7-7.6,4.1-9.4,7.9c-1.5,3.3,1.5,9.4,5.6,12.7c1.3,5.4,0.2,7.1-3.9,17.1
		c-1.8,0.5-3.5-0.1-5.1-0.9c-2.1-0.9-4-2-6.6-2.2c-2.7-0.2-5-2.9-6.6-5.3c-6.1-9.6-8.1-19.6-2.4-30.2L804.2,142.3z"/>
	<path fill="#FFFFFF" d="M907,189.8c-5.6-7.2-5.8-15.1-7-22.9c-1.8-12,2.1-21.9,10.5-30.4c3.7-3.8,6.9-5,9.7-3.1c3.2,2.3,6,5,7,9
		c0.5,2,1,4,1.5,6.3c-2.8,0.4-5.2,1.8-8.1,1.2c-2.1-0.5-2.7,1.7-3.8,2.8c-5.2-1.5-7.1-0.2-6.7,4.2c-4.1,4.1-4.2,4.5-1.5,10
		c0.6,1.2,1.2,2.5,1.4,3.7c0.6,4.8,3.4,7.4,7.8,8.9c0.8,0.3,1.4,0.9,2.2,1.5c-0.7,2.7-2.1,5-4,6.9c-4.3,4.3-12.4,3.5-16.8-1.5
		c-3.7-4.2-5.4-9.3-5.9-14.6c-0.8-9,0.5-17.9,3.4-26.5c2.5-7.2,7.9-11.8,14.4-15.2c0.8-0.4,1.7-0.9,2.8,0.1
		c-7.4,4-11.2,11-15.2,17.9c-1.1,1.9-1.4,4.2-1.5,6.4c-0.5,8.7-0.4,17.4,2,25.9c0.6,2,1.3,3.9,2.1,5.8
		C902.3,188.6,904.4,188.8,907,189.8z"/>
	<path fill="#FFFFFF" d="M927.1,267c1.2-0.1,1.6,0.9,2.1,1.8c-1.1,3-2.4,6-3.1,9.6c-3.2-2.5-6.7-2.8-10.4-1.9
		c2.9,2.1,6.4,2.8,9.7,4.2c0.6,1.1-0.1,2-0.6,3.2c-2.4-1.1-4.8-2.8-7.8-2.1c0.9,4.2,5.1,2.1,7.4,4.3c-1.5,7.4-0.7,15.1-0.7,22.7
		c-9.8,3.6-19.5,1.4-29.2,1.6c5,2.3,10.1,4.2,15.9,2.4c-1.4,1.6-3.2,1.2-4.8,1.3c-1.8,0.1-3.6-0.1-5.4,0.8c1.1,1.2,2.5,0.2,3.6,0.9
		c-5.6,2.2-11,5.3-17.2,2.3c1.8-0.7,3.1-2.2,4.1-3.6c1.3-0.9,2.4,0,3.2-0.4c0.4-0.2,0.5-0.5,0.2-0.7c-0.8-0.5-1.2-1.1-1.1-2.1
		c0.2-2.4,0.1-4.8-0.6-7.1c-0.4-1.2,0.2-2.4,0.9-3.4c1.3-1.7,2.5-3.4,2.7-5.8c0.1-2,2.1-2.5,4.7-1.6c2.1,0.8,4.2,1.8,6.7,1.3
		c-2.7-1-4.9-3.3-8.4-3.5c3.5-1.6,4.6-3.9,3.8-7.4c-0.6-2.4,1.1-3.2,3.1-3.6s4.1-0.3,5.7-1.9c-1.2-1.4-2.3,0.4-3.6-0.1
		c0.7-2,3.6-2,3.9-4.2l-0.1,0.1c2.4,0.6,4.2-0.9,5.9-2.1c2.3-1.6,4.7-2.8,7.5-3.2C926.3,268.7,927.7,268.7,927.1,267L927.1,267z"/>
	<path fill="#FFFFFF" d="M770.6,409c-1,0.2-1.9,0-2.9-0.3c-8-2.3-15.3-0.8-22.1,3.8c-1.9,1.3-4,1.6-6.2,1.1c-0.1,1,1.2,0.8,1.2,1.9
		c-0.9,1.9-2.6,3.8-2.9,6.5c-3.7-2.1-7-3.9-10.3-5.8c-0.1,0.2-0.3,0.4-0.4,0.6c3.1,2.7,6.9,4.2,10.4,6.7c0.1,2.1,1.3,4.2,0.9,6.6
		c-0.2,0.9,0.3,1.7,0.8,2.4c5.3,7.6,8.2,16.5,13.2,24.3c1.7,2.7,3.2,5.4,4.9,8.2c-1.6,1.2-3.9,1.6-4.8,3.7c-0.9,2-2.7,3-5.4,3.2
		c2-2.7-0.2-6,2.1-8.4c-3.3-4-6.3-8.2-10.3-11.7c-5.1-4.3-7.3-10.4-9.8-16.3c-2.7-6.3-3.8-13.3-8.1-19c-1.8-2.4-3.5-4.9-6.4-6.4
		c16-4.7,15.7-5.7,31.5,0.8c-1.6-3.2-5.6-3.3-6.9-6.2l0.2-0.2c0.4,0,0.8,0.2,1.1,0c4.3-3.1,8.8-1.8,13.3-0.6
		C759.3,405.6,765,406.9,770.6,409L770.6,409z"/>
	<path fill="#FFFFFF" d="M786.2,434.4c-1.5,0.4-3.1,0.6-4.2,1.8c-12.2-8.5-25.2-13.6-40.6-12.2c2.9-5.8,5.2-11.1,12.4-12.9
		c9.3-2.3,17.2-0.5,24.6,5.1c2.7,2,6,3.3,7.1,7.2c-1.2,2.5-2.4,5.2-2.9,8.3c3.1-0.8,2.1-3.9,3.5-6.6
		C786.6,428.6,786.4,431.5,786.2,434.4L786.2,434.4z"/>
	<path fill="#FFFFFF" d="M872.2,433.7c4.4,3.4,8.9,6.2,13.7,9.3c-8.7,10.1-15,21.8-25.1,30.9c-0.2-7.4,3-13.8,4.1-20.3
		c1.3-1,1.6,0.8,2.5,0.2C863.7,445.9,869,440.2,872.2,433.7z"/>
	<path fill="#FFFFFF" d="M886.8,525.2c5.9-2.3,11.8-3.6,18.2-2.9c8.9,1,17.6,3.2,26.6,3.8c4.4,0.3,8.7,0.6,13.1,0.8
		c0.8,0.1,1.7-0.3,2.2,0.8C944.5,529.5,897.7,527.7,886.8,525.2z"/>
	<path fill="#FFFFFF" d="M978.4,172.2c-4.1-0.4-7.5-0.6-10.9-1c-5-0.6-6.1-2.9-3.4-7.5c5,0,9.9,2.2,15.2,1.3
		C976.7,166.9,976.9,169.3,978.4,172.2z"/>
	<path fill="#FFFFFF" d="M932.2,159.6c-0.6,0.9,0.1,1.9-0.2,3c-1,1-2,2-3.7,0.6c-0.5-1.7,0.1-3.7-1.4-5.3c-0.5,2.4-0.9,4.9,0.8,7.9
		c-1.9-1.3-2.9-2.7-4.4-3.1c-0.9-8.4-0.9-11.3,5.4-12c1.1,0.5,0.5,1.5,0.6,2.3c-0.2,0.2-0.2,0.4-0.1,0.6c0.2,0.2,0.3,0.1,0.5-0.2
		c1.1-1,2.2-1.9,4-1c0,1.6-0.7,3.1-1.5,4.6C931.6,157.9,931.1,158.8,932.2,159.6L932.2,159.6z"/>
	<path fill="#FFFFFF" d="M835.4,492.9c-3,4.3-6.2,8.5-11.9,10.2c-1.1-3.2-2.1-6.2-3.1-9.2c0.8-1.1,1.9-0.4,2.7-0.9l-0.1-0.1
		c0.8,1.8,2.1,1.8,3.7,1.3C829.5,493.3,832.3,492.1,835.4,492.9L835.4,492.9z"/>
	<path fill="#FFFFFF" d="M645.5,585.4c0-1.3,1.7-1.8,1-3.2c-2.1-0.3-1.7,3.7-4.6,2.4c2.2-4.5,4.7-8.7,5.9-14.2c2.5,4,1.9,7.7,2,11.8
		C648.8,583,648.8,586,645.5,585.4z"/>
	<path fill="#FFFFFF" d="M836.5,140.5c-6.6,13.2-5.4,25.9,2.6,38.6C831.6,172.7,827.1,151.2,836.5,140.5z"/>
	<path fill="#FFFFFF" d="M731.4,472.6c4.9-0.6,9.6-0.7,13.8-4.7C743.2,474.5,737.2,476.3,731.4,472.6z"/>
	<path fill="#FFFFFF" d="M812.6,614.3c1.6-0.5,3,0.6,4.6,0.2c1.4-0.3,2.5-1.6,4.2-1c-0.4,2.1-2,3.5-2.8,5.2
		C813.3,618.1,812.7,617.6,812.6,614.3z"/>
	<path fill="#FFFFFF" d="M922.8,152.3c-2.8,1.8-0.7,5-2.4,7.4c-1.8-1.2-1.7-3.2-2.8-4.6C918.7,153,919.6,151,922.8,152.3z"/>
	<path fill="#FFFFFF" d="M789.9,624.1c6.6,0.2,13.3,0.6,19.4,3.7C803,625.9,796.4,625.2,789.9,624.1z"/>
	<path fill="#FFFFFF" d="M839.2,490.7c1.3-4.8,4.6-7.5,7.9-10.1C844.6,483.9,843.9,488.5,839.2,490.7z"/>
	<path fill="#FFFFFF" d="M790.6,398.5c8.9-1.2,13-0.4,15.8,3.4C801.2,399.3,795.9,399.3,790.6,398.5z"/>
	<path fill="#FFFFFF" d="M858.1,476.5c-2.8,3.2-6.4,5.4-9.9,7.6C850.9,480.7,853.9,477.8,858.1,476.5z"/>
	<path fill="#FFFFFF" d="M982.1,172.9c-3.7-1.6-2.4-4.1-2-6.5C982.6,167.8,982.9,168.9,982.1,172.9z"/>
	<path fill="#FFFFFF" d="M937.4,151.6c0.1,3.1-1.6,5.6-2.8,8.3c-0.9,0.5-1.6-0.2-2.4-0.3l0.1,0.1c1.2-1.6,2.2-3.4,2.7-5.4
		C935.3,152.9,936,152,937.4,151.6L937.4,151.6z"/>
	<path fill="#FFFFFF" d="M861.2,439.9c2.6,3.3,2.7,4.8,0.3,11C861.6,447.2,861.5,443.6,861.2,439.9z"/>
	<path fill="#FFFFFF" d="M946.2,369.7c-1.6,2.8-3.2,5.5-4.7,8.3c-1.1,0-1.5-0.9-2.4-1.4C942.1,374.6,943.4,371.4,946.2,369.7
		L946.2,369.7z"/>
	<path fill="#FFFFFF" d="M917.9,164.2c0.4-1.9,1.7-2.4,3.3-2.9c-0.3,1.8,1.1,2.7,2.5,3.8C921.3,165.7,919.6,165.4,917.9,164.2z"/>
	<path fill="#FFFFFF" d="M829.7,149.6c-0.6,3.2-1.1,6.4-1.7,9.8C825.9,156.1,826.6,152.5,829.7,149.6L829.7,149.6z"/>
	<path fill="#FFFFFF" d="M786.1,434.4c0.6,2,0.5,4,0.4,6.7c-1.3-1.6-2.2-2.7-3.6-4.3C784.1,436,785.1,435.2,786.1,434.4L786.1,434.4
		z"/>
	<path fill="#FFFFFF" d="M799.1,621.8c-2.9-0.3-5.1-0.5-7.5-0.8C793.5,619.4,795.3,619.6,799.1,621.8z"/>
	<path fill="#FFFFFF" d="M813.7,226.4c0.4,2.7,0.8,5.4,1.2,8C813,232,813.9,229.1,813.7,226.4z"/>
	<path fill="#FFFFFF" d="M927.2,267c-1.5-1.7-4.1-2.2-4.7-4.9C924.6,263.2,926.5,264.5,927.2,267L927.2,267z"/>
	<path fill="#FFFFFF" d="M791.9,628.7c-2.3,0.8-3.3,2-3.7,3.7C788.5,628.9,788.5,628.9,791.9,628.7z"/>
	<path d="M961.5,522.8c-0.1,1.3,1.4,2.2,0.9,3.6c-2.2-1.4-2.4-2-1.8-4.4C961,522.3,961.3,522.6,961.5,522.8z"/>
	<path d="M823.6,482.7c0.3,0.1,0.7,0.2,1.3,0.3c-0.5,1.6-1.6,2.4-3,3.1c-0.4-1.1,0.3-1.7,0.6-2.4
		C822.9,483.5,823.2,483.1,823.6,482.7z"/>
	<path fill="#FFFFFF" d="M803.9,142.1c0.3-2.1,1.4-3.7,2.9-5.1c-0.9,1.8-1.8,3.6-2.7,5.3L803.9,142.1z"/>
	<path fill="#FFFFFF" d="M826.5,149.3c-0.5,1.3-0.9,2.6-2.8,3.7C824.3,151,825.4,150.1,826.5,149.3z"/>
	<path fill="#FFFFFF" d="M903.2,396.7c-1.7-2.3,1.5-2.5,1.7-4C905.3,394.5,903.2,395.2,903.2,396.7L903.2,396.7z"/>
	<path fill="#FFFFFF" d="M682.2,584.6c-0.3,1.1-0.9,1.9-1.8,2.6C680.1,585.4,680.1,585.4,682.2,584.6z"/>
	<path fill="#FFFFFF" d="M638.2,593.1c-1.7,0.5-2.8,0-4.2-0.4C635.7,591.3,636.6,592.6,638.2,593.1z"/>
	<path fill="#FFFFFF" d="M633.2,596.3c-1.2-0.4-1.7-0.6-2.3-0.8C632.1,594.6,632.1,594.6,633.2,596.3z"/>
	<path fill="#FFFFFF" d="M829.7,149.7c-0.1-1.1-0.4-2.3,0.7-3.5C831.2,147.8,830.3,148.7,829.7,149.7L829.7,149.7z"/>
	<path fill="#FFFFFF" d="M934.1,163.7c0.2,0.7,0.2,1.4-0.6,1.7C933.2,164.4,933.2,164.4,934.1,163.7z"/>
	<path fill="#FFFFFF" d="M817.2,405c-0.8,0.4-1.6,0.2-2.4,0C815.7,404.8,816.4,404.7,817.2,405z"/>
	<path fill="#FFFFFF" d="M918.9,265.8c0.5-0.7,0.9-1.1,1.5-1c0.1,0,0.3,0.7,0.2,0.9C920.2,266.4,919.7,266.1,918.9,265.8z"/>
	<path fill="#FFFFFF" d="M850.1,186.2c-1,0.7-1.7,0.1-2.5-0.6C848.7,185.2,849.5,185.5,850.1,186.2L850.1,186.2z"/>
	<path fill="#FFFFFF" d="M792.5,435.1c-0.4,1.3-0.7,1.8-1.4,1.8C790.9,436.1,791.6,435.9,792.5,435.1z"/>
	<path fill="#FFFFFF" d="M946.2,369.7c-0.1-0.8,0.4-1.3,1.3-2C947.3,368.8,947,369.4,946.2,369.7L946.2,369.7z"/>
	<path fill="#FFFFFF" d="M761,464.5c-0.7-0.3-1.1-0.8-1.3-1.6C760.7,462.9,761,463.6,761,464.5L761,464.5z"/>
	<path fill="#FFFFFF" d="M510,522.5c0.4,0.1,0.9,0.3,1.6,0.5c-0.7-2.8-1.7-5.2-3.2-7.4c-6.3-9.3-11.1-19.4-14.8-29.9
		c-5.1-14.7-12.7-28.3-19.7-42.1c-4.8-9.6-9.3-19.5-12.1-30.2c2-2.6,4.1-5.2,6.3-8c1.4,1.6,1.7,3.5,2.3,5.2
		c4.1,12.5,9.2,24.6,15.5,36c6.9,12.3,11.2,25.8,17.6,38.2c3.5,6.7,6.3,13.6,8.8,20.7c1.6,4.5,1.9,9.2,4,13.5c1.5,3,2.7,6.1,4.1,9.3
		c-5.5,0.4-8.8,1.6-10.5,3.7c2.2,1.7,4.5,1.2,10-2.1c10.8,2.4,21.4,4.8,32.2,6.5c6.6,1,13.2,1.8,19.7,3.6c0.9,0.3,2,0.1,2.2,1.4
		l0.1-0.1c-4.6,0.1-9,2.3-13.6,1.5c-15.9-2.7-32-4.3-47.6-8.5c-0.9-0.2-1.9-0.6-2.9,0.2c0.3,1.7,1.8,1.7,2.9,2
		c6.8,2.2,13.9,3.6,20.9,4.8c9.3,1.6,18.7,3.1,28.1,4.7c2.3,4,3.6,8.7,6.4,12.8c-25-6.1-50.4-8.7-75.5-13.8
		c7.5-1.1,15.1-2.2,22.9-3.3c-1.1-2.1-2.4-1.4-3.5-1.3c-10.3,1.1-20.5,2.3-30.8,3.3c-12.9,1.2-25.9,2.5-38.8,3.5
		c-13.9,1.1-27.8,2.8-41.6,4.5c-7,0.8-14.1,2.3-21.1,3.6c-1.7,0.3-2.4,2.7-4.7,1.7c1.1-12.5,5.1-24.7,4.2-37.9
		c5.2,0.8,10.1,1.5,14.9,2.4c11.8,2,23.6,4.4,35.5,6.1c6,0.9,12.1,0.9,18.2,1.2c17.2,0.8,34.5,2,51.7,1.6c3.2-0.1,6.4-0.1,9.7,0
		c-1.9-1.8-4-3.1-6.5-3.8c-6.9-1.7-14-3-21.1-3.3c-8.1-0.3-15.8-2.6-23.7-3.5c-7.2-0.8-14.3-0.9-21.3,1.2c-1.3,0.4-2.8,0.6-3.7,1.5
		c-3,2.9-6.3,2.2-9.8,1.5c-14.6-3.1-29.4-5.3-44.2-7.8c-1-3.6-2-7-3.9-10.3c2.3-1.7,5.3-2.5,6.8-4.7c4.2-6.2,10.8-9.2,16.8-12.9
		c2-1.2,3.8-2.6,5.6-4c0.4,0.2,0.3,1,1.4,0.9c16.9-19.6,32.1-40.9,48.3-62c3.9,9.4,7.3,18.5,10.6,27.6c5,14.2,10.5,28.2,18.7,40.9
		c2,3.1,3.6,6.3,4.4,9.9c0.5,2.5,1.7,4.8,2.9,7c2,3.7,4,7.5,5,11.7c0.5,1.9,1.1,3.9,3.1,4.7c1-0.4,1.3-1,1-1.6
		c-2.6-5.6-4.2-11.6-7.7-16.8c-0.6-0.9-1.1-1.9-1.3-3c-1.6-8-6.2-14.4-10.3-21.1c-1.8-2.9-3.2-6-4.6-9.1
		c-4.7-10.5-8.3-21.5-12.5-32.2c-2.6-6.5-5.3-13-8.1-19.7c1.6-2.1,3.3-4.3,5.2-6.6c0.9,0.6,1,1.6,1.2,2.4
		c3.6,13.6,9.4,26.2,16.3,38.4c5.7,10.1,9.7,20.9,13.7,31.7c4.5,12.1,10.4,23.5,17.6,34.2c-0.2,0.2-0.3,0.4-0.1,0.6
		C509.4,522.7,509.7,522.8,510,522.5z"/>
	<path fill="#FFFFFF" d="M317.9,580.7c-3.1,1.2-5.1,3.9-7.7,5.9c-1.8,1.4-3.5,3-5.3,4.5c-8-2.6-16.4-2.2-24.4-4.5
		c-1.6-0.5-3.4-0.5-4.9-1.2c-5.2-2.3-10.1-1.4-15.1,0.5c-2.5,1-5,1.7-7.7,2.6c-1,2.5-2.1,5-3.7,7.5c-3.2-1.9-4.1-4.8-4.3-8.1
		c-0.2-3.8-0.7-7.5-2.8-10.8c-1.6-2.5-2.8-2.6-5.2-0.6c-2-7.1-2.3-14.4-3.1-21.6c-0.3-2.8-0.4-5.6-0.5-8.4
		c-0.3-5.7,0.4-11.2,2.7-16.7c4.7-11.3,6.7-22.9,3.2-35.2c-1.4-4.9-1.8-10-3.6-14.8c-0.7-1.9-0.4-3.8,0.9-5.5c2-0.6,3.9-1.4,5.9-1.8
		s4-1.1,5.9,0.4c0.5,0.4,1.4,0.4,2.1,0.3c5.5-0.4,11.1,0.7,16.6-0.2c4-0.6,8,0.8,12,0.1c0.8-0.1,1.7,0.8,2.6,1.2
		c4.6,2.5,9.2,4.4,14.4,1.1c1.1-0.7,2.5-0.8,3.8-1c2.2-0.5,4.1-1.4,5.6-3.2c1.3-1.6,3-2.4,5-2.7c1.5,0.7,1.9,2.2,2.6,3.4
		c4.1,7.2,8.7,14,13,21.1c2.4,3.9,4.5,8.1,6.3,12.3c1,2.3,0.7,5,0.4,7.6c-1.2,9.7-1.9,19.3,1,28.9c0.5,1.8-0.4,3.4-1,4.9
		c-3.6,9.4-7.5,18.7-10.6,28.3c-0.7,2.1-2.7,3.4-3.8,5.3C318.4,580.6,318.3,580.8,317.9,580.7z"/>
	<path fill="#FFFFFF" d="M365.2,387.5c-10.4,2.9-20.8,5.3-31.3,7c-1.5,0.2-3.2,0.4-4.2,1.9c-1,1.4-2.5,0.4-4.2,1
		c5.5-5.2,9.9-10.6,15.1-15.1c3.1-2.6,4.8-6.4,7.1-9.7c1.1-1.5,2.4-2.5,4.1-3.3c4.3-1.8,8.2-4.3,11.5-7.8c-3.8,2.1-7.7,4.3-11.5,6.4
		c1.8-4,4.3-7.6,4.9-11.6c0.8-5.6,3.8-9.8,6.9-14.1c0.1-0.2,0.3-0.3,0.5-0.5c1-0.4,0.5,0.8,1.5,1c4.2-5.7,10.9-8.4,16.9-12.2
		c2.8-1.8,5.3-4.2,7.8-6.4c4.3-3.7,8.8-6.7,14.9-6.7c4.3,0,8.6-1.5,13-0.3c1.3,0.3,2.8-0.2,4.4-0.4c0.8,0.9,0.1,2.3,1.1,3.3
		c11.2,2.9,22.7,4.6,34.4,3.7c3.2-0.2,6.2,2.4,9.6,0.5c-2.8,5.6-7,10.3-9.9,15.7c-2.8,5.1-5.4,10.3-7.2,15.9
		c-4,12.3,0.8,22.8,11.2,30.4c0.6,0.4,1.2,0.7,1.8,1.1c-0.7,1.2-1.8,0.8-2.7,1c-3.6,0.6-6.6,1.9-8.9,5c-3.8,5.2-7.8,8.3-12.4,10.6
		c0.8-4.5,0.9-9,2.7-13.2c1.5-3.5,3.9-6.4,6.5-9.1c1.4-1.4,3-2.7,3-5.4c-8.5,8-15.8,16.2-13.1,28.6c-4.8,4.6-10.9,6.7-15.5,11.2
		c-2.1-3-4.2-5.7-7.8-7.4c1.7,3.5,3.9,6.3,5.9,9.2c-1.2,1.3-3.2,1.3-4.3,2.7c-1.2,1.5-0.2,3.2-0.2,5c-2-0.9-2.1-3.1-3.9-3.7
		c-0.1,1.6,1.9,2.3,1.2,4.4c-2.9-3.7-5.3-7.4-9.3-9.5c2.7,3.5,6.1,6.5,8.1,11c-3,0.2-1.5,3.4-3.2,5.1c-0.3-3-1.7-5.2-3.4-7.2
		c-4.9-6.2-9.7-12.7-16.3-17c-4.3-2.8-9.5-5.4-15.3-4.9c-3.3,0.3-6.5,0.1-9.7-0.8c-1.9-0.6-3.5,0.9-5.5,0.4
		c-1.2-4.3-4.4-5.9-8.6-6.2c-5.3-0.4-10.7-0.2-16-0.1c-1,0-2.1,0.3-3.2-0.5C343.2,394.7,354.7,393,365.2,387.5z"/>
	<path fill="#FFFFFF" d="M297.6,462.5c0,1.2,0,2.2,0,3.4c-15.1,6.3-30.9,4.6-46.6,3.7c7.9-3.8,16.7-4.5,25.5-7.4
		c-2.4-0.7-4.2-0.4-5.8,0.2c-1.7,0.7-3.4,1.2-5.3,1.2c-5.9,0.1-11.1,3-16.8,4.3c-4.2,1-8.2,2.7-12.7,2.6c-1.5-0.1-3.4,0.4-4,2.5
		c-0.5,1.6-2.7,2.4-2.7,4.3c1.2,0.9,1.6-0.6,2.6-0.4c3.9,11.7,7.7,23.6,6,36c-0.8,5.9-2.7,11.9-5.7,17.3c-0.9,1.7-1.3,3.3-1.4,5.2
		c-0.8,11.6,0.1,23,1.7,34.5c0.4,3.4,1.4,6.6,3.3,10.3c-3.3-1.3-4.5,2.6-7.5,1.6c-1.5-2.3-0.7-5.3-1.7-7.8c-1.5,2.4-0.6,5.1-1.2,7.6
		c-1,0.8-2.1,0.3-3.1,0.2c-4.6-0.7-8.8-2.9-13.3-3.6c-1.9-0.3-1.9-1.9-2-3.4c-0.3-9.3-0.7-18.7-0.8-28c-0.1-8.3-0.4-16.5-2.8-24.5
		c-2.5-8.4-3.2-17.2-4.2-25.8c-0.8-7.3-1.6-14.6-2.7-21.8c-0.7-4.9,0.2-9.7,1.1-14.4c0.4-2.2,0.7-4.3-0.1-6.4
		c-1-2.9,0.4-4.9,1.9-7.5c4.4-7.2,12.5-8,18.9-11.4c3.8-2,7.8-3.6,11.7-5.3c3.5-1.6,6.8-4.6,10.2-6.9c6.8-4.6,14.7-6.8,22.3-9.7
		c2.2-0.8,3.9,0.6,5.1,2c4,4.6,7.3,9.8,9.1,15.6c1.8,5.7,3.7,11.3,6.5,16.6c2.7,5.1,7.4,8.6,11.5,12.6
		C295.5,460.7,296.5,461.6,297.6,462.5z"/>
	<path fill="#FFFFFF" d="M371.5,606.5c-1.8,1.3-3.4,2.4-5.2,3.7c-1.8,0.1-3.9,0-5-2.2c-1.8-3.6-4.9-4.4-8.6-4
		c-0.9,0.1-1.9,0.4-2.9-0.3c-0.1-2.8,1.1-5.4,1.5-8.1c1-6.4,0.4-12.6-2.1-18.5c-3.5-8-4.4-16.9-8-24.9c-1.4-3-2.4-6.1-3.6-9.1
		c-3.7-9.2-3.3-18.9-1.9-28.4c0.8-5.7,0.7-11.3,0.4-17c0-0.7-0.4-1.1-0.8-1.6c-2.9-4.5-4.3-9.5-3.6-14.9c0.4-3-0.1-5.8-1.2-8.5
		c-0.9-2.1-1.5-4.4-1.8-6.6c-1.1-6.9,2.3-12.2,6.2-17.1c3.2-4,7.1-7.3,10.7-10.9c0.8-0.8,1.6-1.3,2.8-1.3c5.4-0.4,10.9-0.9,16.3-1.4
		c2.4,2.8,5.4,4.9,8.5,6.8c4.7,3,7.6,7,9.3,12.5c1.7,5.6,1.2,10.7-0.3,15.8c-4.1,5.1-8.6,9.8-12,15.5c3-2.6,6-5.2,9-7.8
		c0.2,0.1,0.4,0.3,0.6,0.4c-2.3,4.1-3.6,8.8-6.9,12c-2.8,0.4-2.8-1.8-3.8-3c-1.4-1.6-0.8-3.1-0.7-4.7c0.1-1.8,3-1.9,2.5-4
		c-3.6,2-4.3,3.6-3.9,7c1.2,10.1,4.5,19.5,8.6,28.7c1.1,2.4,1.3,4.9,1.1,7.5c-0.5,6.6-1.1,13.3-2.4,19.8c-1.3,6-1.5,12-2,18.1
		c-0.5,6.4-1.5,12.8-2.3,19.2c-0.5,4.6-0.8,9.2-0.5,13.8C369.8,597.4,370.3,601.9,371.5,606.5z"/>
	<path fill="#FFFFFF" d="M317.5,582.3c-0.9,3.2-3,5.7-4.6,8.6c-0.7,1.2-1.7,2.3-1,4.2c3.2-1.7,3.7-5.2,6-7.3
		c0.7,1.7-0.9,3.2,0.2,5.2c5.5-15.5,10.8-30.7,17-45.7c0.8,0,0.7,1,1,1.5c5,9.1,7.7,19,11,28.8c1,3,0.5,6,0.6,9c0.1,5.9,0,11.8,0,18
		c-3.1,0.4-5.7,1.8-7.5,4.4c-6-1.6-12-2.1-17.9-3.1c2.5,1.9,5.5,2.1,8.4,2.7c2.8,0.6,5.7,1,8.7,1.9c-0.1,2,0.1,4,1.6,5.6
		c-1.6,2.5-3.3,4.7-4.5,7.3l0.1,0.1c0.1-1.9-1.4-2.1-2.7-2.3c-14.5-2.4-28.5-7.1-43-9.5c-6.2-1-11.9-4.2-18.2-5.1
		c-7.4-1-14.7-3.1-21.9-4.8c-0.8-4.7,2.7-10.5,6.8-12.2c6.7-2.7,13.1-3.9,20.3-1.3c6.6,2.4,13.7,2.9,20.8,3.5c2,0.2,4.1,0.3,5.4,2.4
		C309.6,591,313,586,317.5,582.3L317.5,582.3z"/>
	<path fill="#FFFFFF" d="M470.8,266.7c0.3-0.5,0.5-1.1,0.9-1.8c2.2,0.9,3.3,2.8,4.6,4.4c1.6,2,3.4,3.3,5.9,4c3.5,1,3.9,2.2,2.9,5.6
		c-1.7,5.8-2.6,11.8-1.7,17.9c0.2,1.7-0.1,3.4-1,4.9c-0.7,1.2-1.1,2.4-0.3,3.8c0.7-0.2,1.3-0.3,2.1-0.5c0.3,1.6,0.6,3.1,0.8,4.6
		c-0.7,1.1-3,0.2-2.7,2.6c1.2,0.2,2.2-0.8,3.8-0.3c1.4,7.4,6.6,10.9,13.7,12.8c4.2,1.1,7.6,0.3,11-2c1,0.1-0.2,1.5,1,1.5
		c1.4-1.2,0.5-3.9,2.9-4.6c1.2,0.7,1.4,2.5,2.9,3.1c0.5-2.1-2.5-3.6-1-6.1c3.5,2.4,4.8,6.5,7.7,9.5c-5.2,5.5-9.3,11.9-13.8,18.2
		c-2.7-2.5-5.3-4.8-8-7.3c1.6-2.4,3.1-4.8,4.9-7.5c-3,1.5-4.8,4-7.1,6.2c-5-3.3-10.7-3.2-16.3-4.5c-1.2-2.4-3.7-3.9-5.6-5.9
		c2-3.7,6.1-4.3,8.8-6.6c0.3-1.2-0.3-2.1-0.6-3c-2.7-1.4-6.4-0.5-8.3-3.9c-0.8,2.9-0.8,2.9,4.7,5.5c-2,2.2-4,4.4-6.2,6.8
		c-4.3-3.1-9.1-1.1-14.1-0.7c-1.2-1.4-3-1.2-4.8-1.2c-7.1,0.1-14.3,0.2-21.1-0.9c1.3-1.4,2.6-2.8,4.4-4.8c0.5-0.3,1.5,1.1,2.8,0.1
		c-1.5-0.8-1.8-2.2-1.6-3.8c0.2-1.7,0.1-3.3-0.4-4.9c-0.4-1.4-0.3-2.9,0.7-4.2c1.3-1.7,2.4-3.4,2.6-5.8c0.2-2.2,2.4-2.3,4.4-1.6
		c2.2,0.8,4.4,2,7,1.3c-2.8-0.9-5-3.1-8.3-3.7c3.5-1.3,4.3-3.7,3.7-6.8c-0.4-2.2,0.6-3.4,2.8-3.8c1.9-0.4,4.1-0.3,5.8-2
		c-1.3-1.1-2.3,0.3-3.6,0.1c2.3-3.4,6.3-3.9,9.2-6c3-2.2,6.5-3,10.2-4.1C475,269,473.5,267,470.8,266.7L470.8,266.7z"/>
	<path fill="#FFFFFF" d="M239.2,579c1.3,2,1.6,3.9,1.9,5.8c0.7,4.7,1.7,9.2,5,13.1c1.9,2.3,0.9,5.7,2.5,7.9
		c-2.5,4.6-6.4,6.7-10.9,7.8c-5.9,1.5-12,1.9-18,0.8c-1.8-0.3-3.6-0.3-5.4-0.1c-8,0.9-15.8,2.4-23.4,5c-6.6,2.3-13.7,3.1-20.6,4.5
		c-1.2,0.2-2.4,0.1-3.4-0.2c-0.6-0.8,0.5-1.2,0-1.9c-5.9-0.1-11.3-1.4-13.2-8.1c-0.8-2.7,0.2-5,2-6.8c9.8-1.4,17.5-7.1,26.4-10.9
		c2.4,2.3,5.2,4.6,8.6,5.9c3,1.2,4.2,0.6,5.2-2c-0.4-0.9-1.2-1.1-2-1.4c-0.7-0.2-1.5-0.2-1.7-1.4c3.4-0.2,7.5,1.7,9.4-2.8
		c2-0.4,4.2,0.5,5.6-2.2c-4.1-3.9-9.7-3.6-14.5-5.3c-0.4-1.2,1-1.1,1.2-1.9c6.5,3,13.2,4.6,20.1,5.7c-2.4-4.4-7.1-4-10.8-5.8
		c1.6-1.7,1.6-1.7,3.6-1.1c1.1-0.6,0.5-2.2,2.3-2.9c6.5,2.3,13.6,5.1,21.2,3.9c1.1,1.2,2.1,2.4,0.9,3.6c-1.4,1.5-3,3-5.3,2.5
		c-1.9-0.4-3.8-0.7-5.7,0.3c-3.9-2.8-4.8-9.6-11.5-8.4c0.1,0.5,0,1.1,0.2,1.1c4,1.3,6,4.5,8.2,7.7c0.9,1.4,2.2,2.6,4.1,3.3
		c1.3-1.7,3.1-1.9,5.2-1.3c2.4,0.8,4.3,0,5.9-1.8c3-3.3,6.4-6.4,6.2-11.5C238.3,580.1,238.6,579.8,239.2,579z"/>
	<path fill="#FFFFFF" d="M354.1,305.1c1.3,0.1,2,1.4,3.2,0.8c0.3-0.1,0.3-0.4,0-0.6c-4.2-2.3-6.4-6-7.3-10.7
		c-2.1-10.4-1.9-20.4,4.4-29.6c3.4-4.9,8-7.8,13.3-10.2c4.1-1.8,7.9-2.2,12.2-0.8c7.2,2.4,10.7,7.5,11.6,14.8c0.3,2.5,0.8,5,0.9,7.6
		c0.3,10.4-3.5,19.1-11,26.2c-0.4,0.4-1,0.7-1.4,1.1c-6.5,6.4-14,6.9-22.1,3.4C356.8,306.7,355.1,307,354.1,305.1z"/>
	<path fill="#FFFFFF" d="M357.7,607.3c1.1,1.1-0.4,1.4-0.2,2.4c2.9,0.9,4,3.2,3.5,6.1c2.6,2.4,6,2.5,8.7,4.6
		c3.2-1.8,3.7-6.1,7.2-7.6c0.6,0.6,0.7,1.7,0.4,2.5c-1.8,4.9-0.4,9.5,1.7,13.6c2.3,4.4,1.8,8-0.4,11.9c-0.2,0.4-0.3,0.9-0.4,1.3
		c0,0.1,0.1,0.2,0.2,0.3c1.4,0.3,1.1-1.8,2.4-1.8c-0.3,3.9-0.7,4.8-4.2,5c-4.6,0.3-7.3,2.5-9.6,6.4c-2.1,3.6-5.5,6.3-9.8,7.7
		c-9.9,3.3-20,4.8-30.4,4.3c-4-0.2-7.5-1.7-11-3.5c-2-1-1.6-2.7-1.4-4.5c2.7-1.5,6.3-1.8,7.8-4.9c1-2.1,2.7-3.5,4.6-4.5
		c1.5-0.8,3.1-1.2,4-2.9c2.2,1.2,4.1,2.8,6.7,2.5c0.8-0.1,1.6-0.5,2-1.7c-2.2-1.5-5.1-0.8-7.4-2.1c1.1-2.5,2.7-4.8,4.3-7.3
		c1.5,0.4,3.2,0.1,4.2,2c0.3,0.6,1.4,1,2.2,1.2c4.1,0.7,8.1,1.4,12.3,1c1.3-0.1,2.4-0.5,2.8-1.9c-0.9-1.7-2.6-1.1-4-1.7
		c-0.5-0.8-1.2-1.6-1.8-2.5c2.8-0.9,5.6,2.2,8.1-0.1c0.7-1.5-0.5-2.1-1-3c1.8-0.6,3,1.3,4.5,0.9c1-0.8,0.5-1.4,0.4-2.1
		c-0.2-0.7,0-1.4,0-2.1c0.7-0.8,1.8,0.1,2.7-1.3c-2.9-3.2-7.6-3.3-10.9-6c-3.3-2.8-8.2-2.5-12.1-4.6c0.5-1.7,0.8-3.1,1.3-4.5
		c0.7-2,1.9-3.3,4.3-3.1C352,607.4,355,606.3,357.7,607.3z"/>
	<path fill="#FFFFFF" d="M325.9,251.1c-4.2,5.7-6.6,11.9-6.1,19.1c0,0.8-0.1,1.6-0.4,2.5c-1.8,4.8-0.1,9.7,4.3,12.9
		c0.3-0.1,0.4-0.3,0.2-0.6c-2.6-3.9-3.9-7.8-2.8-12.9c1-5,1.8-10,4-14.6c3.1-6.4,8-10.9,14.3-14.4c5-2.8,8.8-1.4,13,0.7
		c4.1,2,8,4.2,10.1,8.9c-4.3,2.3-8.5,4.8-11.5,8.5c-1.2,0.5-1.7-0.7-2.7-0.4c-1,0.6-1.9,1.4-3,1.9c-6.3,2.9-7.9,5.7-5.2,11.7
		c2.7,6,1.7,12.2,2.5,18.3c0.3,2.4-1.2,3.8-4,3.4c-3.6-0.4-7.1-1.5-9.9-4c-1.4-1.2-2.2-3.6-4.9-2.9c-0.8,0.2-1.2-1-1.8-1.6
		c-6.2-6.9-6.5-20.8-2.6-27.9C321.2,256.6,323.2,253.6,325.9,251.1z"/>
	<path fill="#FFFFFF" d="M313.4,465.5c0.6,0.1,0.8,0.9,1.8,0.6c-7.6-12.8-18.8-23.6-22.5-38.6c17.3-2.3,31.2,4.2,43.7,15
		c-1.1,1.8-2.7,2.9-4.1,4.2c-1.3,1.2-2.2,2.5-2.9,4.1c-3.2,8.2-4.9,16.4-1,24.9c1,2.2,1,4.8,0.8,7.2c-0.4,4.1,0.5,7.9,2.4,11.6
		c0.5,1,0.8,2,0.2,3.5c-5.8-11.2-12.8-21.4-18.6-32.2L313.4,465.5z"/>
	<path fill="#FFFFFF" d="M455.3,396.4c0.5-4.4,3.4-6.1,7.8-6.3c1,0.9,2.7,1.1,4.2,3c-0.6-2-1.6-2.8-3.2-4c6.2-1.6,12.3-2.2,17-6.4
		c-3.5,5-6.5,10.2-10.6,14.3c-6.7,6.5-11.3,14.5-16.6,21.9c-4.7,6.5-10.4,12.4-14.1,19.7c-0.9,1.8-2.1,3.6-4,4.6l0.1,0.1
		c-1.5-2.4-4.1-3.3-6.3-4.8c-2.4-1.8-4.9-3.5-7.6-5.3c-2,2.6-3.9,5.1-6.1,7.9c-1.6-2.1-3-3.9-4.4-5.8c1.8-2.9,2.5-6.4,6.6-7.6
		c2.5-0.7,1.6-3.1,0.8-4.9c0.3-0.4,0.5-0.8,0.8-0.9c2.6-0.9,4.9-2.1,6.2-4.9c1-2,3-3,5.1-3.8c4.8-1.8,8.5-5.5,12.9-8.1
		c0.1,0.8-0.2,1.6-0.3,2.3c0-0.8,0.5-1.5,0.2-2.3c0.5-1,1.3-1.6,2.3-1.8c0.6,0.5-0.2,1.2,0.7,1.9
		C449.9,402.4,451.6,398.3,455.3,396.4c0.6,0.7,1.6,1,2.2,1.8C456.9,397.4,456,397,455.3,396.4z"/>
	<path fill="#FFFFFF" d="M521.7,281.4c-2.8,0.4-5.2,1.5-8,1.1c-1.9-0.3-2.4,1.7-3.6,2.7c-5.1-1.4-7.5,0.3-6.8,4.5
		c-3.5,3.2-3.7,4.5-1.6,8.8c0.7,1.4,1.5,2.8,1.7,4.4c0.7,4.5,3.1,7.4,7.5,8.7c0.9,0.3,1.8,0.8,2.4,1.9c-0.8,2-1.9,4.1-3.3,5.8
		c-4.1,4.9-12.7,4.4-17.2-0.8c-3.6-4.1-5.3-9.1-5.8-14.3c-0.9-9,0.5-18,3.5-26.5c2.5-7,7.9-11.5,14.4-14.8c0.8-0.4,1.7-1,2.6,0.1
		c-5.3,3.1-8.9,7.8-12.2,12.8c-5,7.4-4.8,15.6-4.2,23.8c0.3,4.2,0.2,8.5,1.8,12.5c0.8,2,1.4,4.1,2.2,6.1c0.8,2.1,2.8,2.3,4.6,2.9
		c-6.1-9.4-6.3-20-6.4-30.4c0-8,4.2-14.8,9.6-20.7c0.8-0.9,1.7-1.7,2.4-2.7c2.2-2.7,6.3-2.9,9.1-0.7
		C519.1,270.6,521.3,275.4,521.7,281.4z"/>
	<path fill="#FFFFFF" d="M344.3,296.3c2.8,5.7,6.3,10.7,12.7,13c0,1.8,0,3.5,0,5.7c1.7-1.5,0.7-3.4,1.7-4.6c1.9-0.1,2,1.4,1.7,2.5
		c-1.3,4.3,0.5,8,2.9,10.7c3.1,3.5,3.8,7.7,5.7,11.7c-2.2,1.5-4.2,3-6.3,4.4c-2.2,1.4-2.4,4.2-4.3,5.9c-2.4-0.2-4.2,0.9-5.6,3.4
		c1.6,0.2,2.4-1.4,4.4-1.1c-3.4,5.4-4.6,11.4-7.3,17.8c-1.9-4.4-2.9-8.4-3.9-12.3c-3.6-13.6-3.5-27.3-2.2-41.2
		c0.4-4.7,0.4-9.6-0.3-14.3C343.3,297.2,343.3,296.8,344.3,296.3z"/>
	<path fill="#FFFFFF" d="M336.6,423.9c-1.1,3-2.8,5.5-3,8.9c3.1-1.2,2.2-4,3.6-5.8c0.3,2.5,0.5,4.9,0.1,7.3
		c-1.1,1.6-3.1,1.1-3.9,2.7c-12-8.6-25-13.5-39.9-12.2c3.4-9.6,10.7-14.4,20.4-13.8c8.2,0.5,14.5,4.9,20.6,9.8
		c0.5,0.4,0.8,0.9,1.2,1.4C335.9,422.7,336.2,423.2,336.6,423.9z"/>
	<path fill="#FFFFFF" d="M435.7,443c-0.9,2.6-3.2,4.2-4.8,6.4c-6,8.1-11.4,16.6-18.8,23.6c-0.3,0.3-0.5,0.8-1.4,0.8
		c0.9-3.6,0.2-7.3,2.3-10.9c1.4-2.4,0.7-6.1,2.4-9.1c0.8-0.7,1.1,1.2,1.9,0.6c-3.7-7.7,1.4-13.4,4.6-19.7
		C426.7,437.4,430.6,441.3,435.7,443L435.7,443z"/>
	<path fill="#FFFFFF" d="M495.6,528.4c-19.8-0.6-39.6-1.4-59.3-3.5c3.8-1.5,7.6-2.8,11.6-3c6.2-0.4,12.4,0.7,18.4,1.9
		c8.7,1.7,17.5,2.4,26.4,2.7C493.8,526.5,495.6,525.7,495.6,528.4z"/>
	<path fill="#FFFFFF" d="M574.2,541.4c1.8,1.7,2.2,4.2,3.4,6.2c1.9,3.3,4.3,6.2,6.7,9.2l0.1-0.1c-4.2,0.6-8.2,2-12.3,3.6
		c-3.1-4.4-4.7-9.4-7.2-14C568,544.5,571.9,544.3,574.2,541.4L574.2,541.4z"/>
	<path fill="#FFFFFF" d="M571.5,297.5c-2.3,2-2.1,4.2-0.6,6.8c-4.7-0.2-8.8-0.4-12.9-1.3c-3-0.6-3.4-3.3-1.2-7.2
		c2.4,0.4,4.9,0.7,7.4,1.1C566.6,297.4,569,297.6,571.5,297.5z"/>
	<path fill="#FFFFFF" d="M525.2,292.1c0,1.9,0.4,4-2.5,4.2c-2.2-1.5-0.8-4.3-2.4-6.4c-1.1,2.8-0.9,5.2,0.3,7.8
		c-1.5-0.9-2.6-2.2-4.2-2.6c-1.1-9.4,0.6-11.8,5.7-11.4c1.1,2.3-2.6,3.1-1.7,5.6c2.8-0.2,2-6,6.2-4.2c0.1,1.8-0.7,3.3-1.5,4.7
		C524.7,290.5,524.4,291.3,525.2,292.1L525.2,292.1z"/>
	<path fill="#FFFFFF" d="M195.2,583.3c2.2-4.3,4.4-8.6,5.9-13.5c2.8,3.3,1.3,7.1,2,10.9c-1.1,1-1.2,4.1-4.4,3.4
		c0-1.3,1.5-1.7,1.3-3.1C197.7,580.2,197.9,584.8,195.2,583.3z"/>
	<path fill="#FFFFFF" d="M352.6,263c-1.5,3.7-3.5,7.1-4.8,10.9c-2.4,6.8-2,13.3-0.3,20c0.2,0.8,0.4,1.6,0.5,2.5
		c0,0.1-0.1,0.2-0.2,0.3c-1.1-1-1.8-2.5-1.9-3.8c-1.2-10.1-1.5-20.2,5.4-28.8C351.6,263.6,351.9,263,352.6,263L352.6,263z"/>
	<path fill="#FFFFFF" d="M363.3,612.2c3.2,1.3,5.8,0.3,8.8-0.8c-0.3,2.5-2,3.9-2.7,5.6C364.5,616.6,363.6,615.9,363.3,612.2z"/>
	<path fill="#FFFFFF" d="M283.7,473c4.5-0.6,9-1,13.2-4.7C294.9,474.6,289.7,476.2,283.7,473z"/>
	<path fill="#FFFFFF" d="M341.2,622.3c6.4,0.5,13,0.4,18.9,3.7C353.9,624.2,347.5,623.3,341.2,622.3z"/>
	<path fill="#FFFFFF" d="M516.2,284.8c-2.7,2-1.3,4.7-2,7c-2.7-0.3-1.4-3.3-3.4-4C512.1,285.9,512.6,283.6,516.2,284.8z"/>
	<path fill="#FFFFFF" d="M357,402.5c-5-2.1-10.4-2-15.5-3C346.8,399.7,352.5,397.7,357,402.5z"/>
	<path fill="#FFFFFF" d="M397.3,480.7c-2.4,3.1-2.9,7.8-7.4,9.7C390.7,485.6,394.5,483.5,397.3,480.7z"/>
	<path fill="#FFFFFF" d="M408.5,476.4c-2.7,3.4-6.4,5.5-9.9,7.9C401,480.6,404.4,478,408.5,476.4z"/>
	<path fill="#FFFFFF" d="M525.3,292.1c1.5-1.4,2.3-3.3,2.8-5.2c0.4-1.4,1.2-2.2,2.3-2.9l-0.1-0.1c0.6,3.3-1.5,5.7-2.5,8.3
		C526.8,292.7,526.1,292,525.3,292.1L525.3,292.1z"/>
	<path fill="#FFFFFF" d="M574.6,304.9c-3.1-1.5-3.3-2.6-1.4-6.5C575.1,300.3,575.4,302.4,574.6,304.9z"/>
	<path fill="#FFFFFF" d="M346.8,266.7c-1.4,2.9-2.7,5.9-4.1,8.8C341.4,272,343,268.8,346.8,266.7L346.8,266.7z"/>
	<path fill="#FFFFFF" d="M411.8,450.6c-0.2-3.3-0.2-6.7-0.9-10.4C414.8,443.6,412.7,447.1,411.8,450.6z"/>
	<path fill="#FFFFFF" d="M511.3,296.5c0.2-1.8,1.6-2.2,2.9-2.7c0.5,1.3,1.1,2.7,3.1,3.2C514.6,298.3,512.9,297.6,511.3,296.5z"/>
	<path fill="#FFFFFF" d="M334.6,438.2c0.6-1.1,1.4-1.7,2.7-2.7c0.6,2,0.5,3.8,0.6,6.4C336.4,440.3,335.5,439.3,334.6,438.2z"/>
	<path fill="#FFFFFF" d="M349.5,619.8c-2.2-0.2-4.4-0.4-6.7-0.5c0-0.3,0.1-0.6,0.1-1C345.3,617.7,347.4,618.4,349.5,619.8z"/>
	<path fill="#FFFFFF" d="M477.3,327c1.6,0.6,2.8,1.8,3.8,3.2c-1.8-0.4-2.9-1.6-3.9-3.1L477.3,327z"/>
	<path fill="#FFFFFF" d="M341.9,627c-1.2,0.8-2.3,1.7-2.5,3.4C339.3,628.6,339.3,626.9,341.9,627z"/>
	<path d="M510,522.5c0.1,1.2,1.5,2.1,0.8,3.9c-1.3-1.5-2.9-2.5-1.5-4.6C509.6,522,509.8,522.3,510,522.5z"/>
	<path fill="#FFFFFF" d="M232.9,585.7c-0.6-2,1-2.2,2.1-3.7C234.9,584.2,233.9,584.9,232.9,585.7z"/>
	<path fill="#FFFFFF" d="M451.9,397c0.7-1,1.5-2,2.7-3.6c-0.2,2.2-1.2,3.1-2.2,4C452.2,397.6,452.1,397.5,451.9,397z"/>
	<path fill="#FFFFFF" d="M343.9,265.6c-0.7,1.1-1.4,2.3-3.4,2.6C341.5,266.5,342.6,266,343.9,265.6z"/>
	<path fill="#FFFFFF" d="M352.6,263c0.3-1.8,1.7-2.5,3.1-3.3C355.1,261.2,354,262.3,352.6,263L352.6,263z"/>
	<path fill="#FFFFFF" d="M470.7,266.6c-1.1,0.6-0.6,1.9-1.1,2.6c-0.6,0-1-0.1-1.4-0.6C469.1,268,469.5,266.7,470.7,266.6
		L470.7,266.6z"/>
	<path fill="#FFFFFF" d="M190.3,591.8c-0.8-0.1-1.6-0.1-2.5-0.2C188.9,590.6,188.9,590.6,190.3,591.8z"/>
	<path fill="#FFFFFF" d="M346.9,266.8c-0.1-1.2,0.5-2.1,1.6-3.3C348.5,265.3,347.7,266,346.9,266.8L346.9,266.8z"/>
	<path fill="#FFFFFF" d="M186.2,594.1c-0.6,0.7-1.2,0.6-1.8-0.3C185.1,593.3,185.7,592.9,186.2,594.1z"/>
	<path fill="#FFFFFF" d="M477.2,327.2c-1.2-0.1-1.9-0.9-2.9-2.1c1.7,0.2,2.4,1,3,1.9L477.2,327.2z"/>
	<path fill="#FFFFFF" d="M526.3,297.6c-0.2-0.8,0.1-1.1,0.5-1.2c0.5-0.2,0.5,0.2,0.5,0.6S527,297.7,526.3,297.6z"/>
	<path fill="#FFFFFF" d="M368,406.4c-0.4,0-0.9,0-1.3-0.1c0-0.1,0-0.1,0-0.2c0.5,0,0.9,0,1.4,0C368,406.2,368,406.3,368,406.4z"/>
	<path fill="#FFFFFF" d="M317.9,580.7c0.1-0.2,0.3-0.3,0.4-0.5c0.9,1.1,0.1,1.5-0.7,2h0.1C317.7,581.8,317.8,581.3,317.9,580.7z"/>
	<path fill="#FFFFFF" d="M313.1,465.7c-0.5-0.5-0.9-1-1.5-1.7c1.3-0.1,1.5,0.7,1.8,1.4L313.1,465.7z"/>
	<path d="M792,381.7c1.4-2.3,3.8-3.1,6-4.1c5.1-2.5,10.5-4.5,15.2-7.8c3.5-2.5,7-4.7,8.7-9c0.5-1.2,1.4-2.5,3.2-3.3
		c-2.8,5.5-6.1,10-11.1,13.4C807.1,375.4,799.2,377.9,792,381.7z"/>
	<path d="M865.8,419.5c-5.3-3.1-8.7-8.3-13.8-11.7c4.4,1.3,7.2,4.6,10.4,7.5c-2.5-4.7-6.8-7.9-10.2-11.8
		C858.4,407.6,864,412,865.8,419.5z"/>
	<path d="M861.4,388.3c-5.5-10-11.7-19.8-12.5-31.7C851,368,856.9,377.8,861.4,388.3z"/>
	<path d="M848.6,412.4c-5.7-5.9-13.2-7.9-20.6-11.6C835.8,401.4,847.5,408,848.6,412.4z"/>
	<path d="M891.4,369.3c-5.3,4.6-10.7,9-17,12.3C879.6,376.8,885.2,372.6,891.4,369.3z"/>
	<path d="M861.3,418.7c0.5,0.6,1,1.3,1.8,2.4C861.8,420.5,861.2,419.9,861.3,418.7z"/>
	<path d="M881.8,337c1.4,0.6,2.4,0.7,2.7,1.8C883.4,338.8,882.8,338.3,881.8,337z"/>
	<path d="M661.3,497.2c1.6,3.8,2.6,6.9,2.1,10.7c-0.4,2.8,0.7,5.9,2.9,8.2c1.8,1.9,3.8,3.8,4.5,6.5c0.4,1.6,0.4,1.6-1.5,3
		c-2-0.5-2.9-2.4-3.3-4c-1.1-4.5-5.7-7.9-4.8-12.9c0.4-2.4,0-4.5-0.3-6.7C660.7,500.6,660.1,499.2,661.3,497.2z"/>
	<path d="M688.9,454.6c-2.9,4.2-6.6,6-10.8,7.2c-1.3,0.4-2.7,0.3-3.9-0.5c-1.5-0.9-1.7-2.8-0.1-3.5
		C678.7,455.8,683.2,453.7,688.9,454.6z"/>
	<path d="M717.7,446.7c-5.7,1.5-10.5,5.2-16.4,5.6c-2.5,0.2-4,2.3-6.3,3.2c0.7-2.6,2.7-3.8,5.1-4c3.5-0.4,6.5-1.4,9.2-3.7
		C711.6,445.8,714.7,446,717.7,446.7z"/>
	<path d="M654.8,497.4c1.6,2,2.2,3.8,1.9,5.2c-0.7,2.9,0.2,5.5,0.8,8.1c1,4.6-0.2,9.3,0.8,13.9C656.1,515.9,655.7,507,654.8,497.4z"
		/>
	<path d="M659.3,450.7c4.2,2.3,7,5.5,10.4,7.5C665.1,457.7,661,454.9,659.3,450.7z"/>
	<path d="M656.5,456.1c-1.6,0.9-2.6,2-2.7,3.8c-0.1,1.4-0.2,2.8-1.8,4.1c-0.7-2.8-0.7-5.1,0.7-7.3
		C653.6,455.3,654.8,455.2,656.5,456.1z"/>
	<path d="M653.2,466.1c0.5,2.5,0.7,4.9-1.9,6.9C650.1,469.9,651.8,468,653.2,466.1z"/>
	<path d="M656.5,441.8c0.3,0.5,0.5,0.7,0.5,0.9c-0.5,2-1,4.1-1.5,6.3C653.9,445.7,654.1,443.8,656.5,441.8z"/>
	<path d="M661.9,495c-2.1-3.5-2.1-5,0-8.9C661.9,489.2,661.9,491.7,661.9,495z"/>
	<path d="M666.6,557.1c-1.3-1.7-1-3.7-1.2-5.5C666.8,553.2,667.3,555,666.6,557.1z"/>
	<path d="M662.5,464.5c1-1.6,2.1-2.1,3.9-2.4C665.7,464.2,665,465.2,662.5,464.5z"/>
	<path d="M657.1,484c1,2.6,0.9,4.1-0.7,5.9C655.9,487.8,656.7,486.4,657.1,484z"/>
	<path d="M728.2,460.5c1.1-0.6,2.3-1.5,4-0.7C731,461.2,729.6,460.9,728.2,460.5z"/>
	<path d="M659.8,530.2c1.5,0.8,1.8,1.7,1.7,3.1C659.9,532.9,659.9,531.7,659.8,530.2z"/>
	<path d="M662.3,482.9c-0.5-0.1-1-0.3-0.9-0.9C662.2,481.7,662.2,482.4,662.3,482.9z"/>
	<path d="M786.1,485.6c-2.5-1.9-3.8-4.3-3.8-7.4c0-1-0.1-1.8-0.6-2.8c-2.7-4.8-1-10.6,3.9-13.6c0.9,0.9,0,1.4-0.4,2.1
		c-1.3,2-2.8,3.9-3.2,6.4c-0.2,1.1-0.5,2.3,0.1,3.2c2.3,3.5,1.5,8.1,4.3,11.3C786.4,485,786.2,485.3,786.1,485.6z"/>
	<path d="M802.2,463.8c2.6,1.3,2.1,3.3,2,4.9c-0.1,2-4.5,10.7-6.1,12.5c-0.2-2.2,0.1-5.2,1.4-7.3
		C801.2,470.8,802.8,467.8,802.2,463.8z"/>
	<path d="M797,570.6c-2.1-7.4-2.8-15.2-4.3-22.7C795.8,555.1,797.1,562.7,797,570.6z"/>
	<path d="M818,606.6c-4-3.4-6-11.7-4-16.7C813.4,595.8,817.3,600.6,818,606.6z"/>
	<path d="M797.2,500.5c-1.1-1.1-1-1.9-0.6-2.5c1.9-3.1,1-5.9-0.2-8.9c-1-2.4,0-4,2.4-5.1c-2,2.6-0.8,5,0.3,7.4
		c0.9,1.8,0.8,3.5-0.3,5.1C798.1,497.7,797.5,498.9,797.2,500.5z"/>
	<path d="M791.3,520.6c0.3,6.3,1.9,12.5,0.6,18.8C792.3,533.1,790.2,526.9,791.3,520.6z"/>
	<path d="M818.6,472.9c-1.8,2.5-1.3,5.2-2.6,7.5C813.6,477.9,814.6,474.8,818.6,472.9z"/>
	<path d="M820.4,472.1c0.1-2.8,2.1-3.6,4.9-4.7C824.6,470.6,821.9,470.7,820.4,472.1z"/>
	<path d="M790.8,516c-0.8-2.8-1.3-5.2-1.3-7.9C791.2,510,791.7,512.7,790.8,516z"/>
	<path d="M815.6,578.4c-1.7-2.5-2-5.1-0.4-7.8C815.4,573.2,815.5,575.8,815.6,578.4z"/>
	<path d="M818,481.3c-0.5-1.8,1-2,2.4-3.2C820.1,480.2,819.5,481.2,818,481.3L818,481.3z"/>
	<path d="M848.4,457.7c-1.5-17.8-5.1-34.4-21.7-45.1C839.4,413.1,854.4,444.2,848.4,457.7z"/>
	<path d="M823,409c0.2,1.3-0.6,1.4-1.7,1.5c-4,0.2-7.3,2.5-10.8,4c-0.7,0.3-0.3,1-0.2,1.8c-1.8-0.5-3.4-0.3-5.1,0.6
		C810.4,412.4,815.8,408.6,823,409L823,409z"/>
	<path d="M834.5,426.5c4.8,5.8,7.4,12.6,9.6,19.6C842.6,444.5,834.1,427.6,834.5,426.5z"/>
	<path d="M835.4,492.9c-4.4,1-8.6,2.7-13,3c-0.9-1.7,0.1-2.3,0.5-3c3.3,1.1,6.2-1,9.4-1.2C833.7,491.5,835.1,490.8,835.4,492.9z"/>
	<path d="M798,417.1c-4.2,3.5-5.3,3.9-7.4,2.7C792.7,417.9,795.5,417.7,798,417.1z"/>
	<path d="M792.8,408.6c1.4-0.3,2.4-0.3,4,0.1C795.2,409,794.1,409.1,792.8,408.6z"/>
	<path d="M768.2,401.1c0.9-0.2,1.8-0.2,3.1,0.3C770,401.8,769.1,401.7,768.2,401.1L768.2,401.1z"/>
	<path d="M674.2,607.7c-3.1,0.7-6,2-8.1-1.3c-1.1-1.7-0.8-3.3,0.5-4.7c1.4-1.6,3.3-2,5.3-1.1C675.1,602,674.3,604.9,674.2,607.7z"/>
	<path d="M660.4,600.9c2.3,0,4.2,1.7,4.3,4c0.1,2.4-1.8,4.4-4.3,4.4c-2.4,0.1-4.5-1.8-4.5-4.2C655.9,602.8,657.9,600.9,660.4,600.9z
		"/>
	<path d="M648.2,602.2c1.4-0.1,2.6-0.3,3.8-0.2c2.6,0.1,3.4,1.4,2.6,3.8c-0.4,1.4-0.4,2.1,0.2,3.6c-2.1,1.1-2.2-2-3.9-1.7
		c-1.2,0.4-0.1,1.9-1.2,2.3C648.1,610,647.7,607.8,648.2,602.2z"/>
	<path d="M622.3,604.3c0.4-1.3,1.3-1.3,2.3-1c2.7,0.6,5.3,1.2,8,1.9c-0.6,2.7-1.7,3.3-4.2,2.6c-2.1-0.6-3.5-2.5-5.6-3.1
		c-0.2,0.1-0.4,0.2-0.6,0.3C622.2,604.7,622.3,604.5,622.3,604.3z"/>
	<path d="M622.7,604.6c-0.1,1.6,0.3,3.7-2,4.1c-2.3,0.4-3.7-1.2-4.9-3.2c2.1-1.5,5,1.9,6.5-1.2C622.5,604.4,622.6,604.5,622.7,604.6
		z"/>
	<path d="M853.9,155.8c0.2-4.3,3.2-6.9,7.2-5.7c2.4,0.7,4.9,1.1,7.4,1.8c3.7,0.9,4.8,3.2,3.4,6.8c-2,5.3-3.7,6.2-9.3,4.6
		c-2-0.5-4-0.7-5.8-2C854.9,159.9,853.7,158.3,853.9,155.8z"/>
	<path d="M785.6,642.6c3.6-1.4,6.9-0.4,10.2-0.4C794.4,645.4,791.4,645.5,785.6,642.6z"/>
	<path d="M893.5,426.3c-3.7-1.2-6.3-3.7-8.7-6.6C888.4,421,890.7,424.1,893.5,426.3z"/>
	<path d="M885.8,418.6c-0.2-2.9,0.5-5,3.4-6.7C888.6,414.7,888.6,417.2,885.8,418.6z"/>
	<path d="M894.6,404.6c0.6,2.4-0.3,4.3-2.7,6.2C892.2,408,892.8,406.1,894.6,404.6z"/>
	<path d="M878.8,423.2c-0.5,1.9-0.9,3.9-3,5.4C875.4,425.7,877.2,424.5,878.8,423.2z"/>
	<path d="M890.1,415.8c1.8,0.9,2.6,2.6,3.2,4.4C891.6,419.3,891.2,417.3,890.1,415.8z"/>
	<path d="M906.1,395.4c1.7,0.2,2.3,1,3.3,2.5C907.7,397.5,906.8,397,906.1,395.4z"/>
	<path d="M892.1,414.4c-0.5-0.3-1.1-0.6-1-1.3C891.8,413.3,892.3,413.6,892.1,414.4z"/>
	<path d="M913.9,388.8c1.1-0.5,2.1-0.6,3,0.9C915.6,390,914.8,389.5,913.9,388.8L913.9,388.8z"/>
	<path d="M908.3,287c-1.8,0-3.6,0.1-4.2-2.4C906.5,283.8,907,286.3,908.3,287z"/>
	<path d="M901.5,296.3c-1.4,0.5-2.7,0.9-4.5,0C898.9,294.9,900.2,294.9,901.5,296.3z"/>
	<path d="M733.3,434.6c2.4,0.5,4.8,0.8,6.8,2.4C737.6,436.9,735.5,435.7,733.3,434.6z"/>
	<path d="M720.8,413.5c1.5,0,2.9,0.5,3.7,2C723.2,414.8,722,414.1,720.8,413.5z"/>
	<path d="M763.5,412.3c-1.4,3.6-2.9,7.2-4.3,10.8c-1.7-4.9,2.5-7.4,3.5-11.2C762.9,412,763.2,412.2,763.5,412.3z"/>
	<path d="M766.3,419.9c-0.1,1.6-0.6,3.1-2.3,4.3C763.8,422,765.1,421,766.3,419.9z"/>
	<path d="M750.4,416.8c-1.6,1.9-2.7,3.2-4.1,4.8C746.9,418.6,746.9,418.6,750.4,416.8z"/>
	<path d="M929.6,153.3c0,1.6-0.9,2.6-2.3,3.7c-0.6-2.3,0.5-3.3,1.9-4.1C929.4,153,929.5,153.2,929.6,153.3z"/>
	<path d="M415.7,420.5c-4.9-3.2-8.4-7.9-13.2-11.3c3.6,0.9,5.9,3.5,8.6,5.7c-1.8-3.9-5.6-6.1-8-9.5
		C408.9,409.1,414.1,413.2,415.7,420.5z"/>
	<path d="M343.1,383.3c3.5-3.8,8.2-5.1,12.5-7.3c3.1-1.6,6.3-3.1,9.1-5.2c3.1-2.3,6.3-4.4,7.7-8.4c0.2-0.7,0.8-1.4,2.2-1.9
		c-1.7,3.4-3.2,6.3-5.8,8.6c-4.8,4.2-10.4,7-16.1,9.7C349.6,380.3,346.4,381.8,343.1,383.3z"/>
	<path d="M410.9,389.8c-4.6-9.5-10.5-18.4-11.4-29.3c1.5,5.1,3.1,10.2,5.5,15c2.3,4.6,4.5,9.3,6.8,13.9
		C411.5,389.5,411.2,389.6,410.9,389.8z"/>
	<path d="M398.8,412.6c-5.6-5-13-6.9-19.3-10.6C386.8,404,393.9,406.5,398.8,412.6z"/>
	<path d="M425.2,382.4c4.9-4.3,9.9-8.5,15.8-11.5C436.2,375.4,430.9,379.2,425.2,382.4z"/>
	<path d="M456.1,337.2c-1.9-2.9-3.8-5.9-5.9-9.1C453.8,330,456.2,333.5,456.1,337.2z"/>
	<path d="M449.5,352.8c-2.2,2.2-2.7,2.2-6.9,0.3C445.2,352.2,445.7,352.1,449.5,352.8z"/>
	<path d="M435.5,341.8c-1.6-0.7-2.5-0.9-2.9-2C433.7,339.8,434.4,340.4,435.5,341.8z"/>
	<path d="M436.4,353.1c0.6-1.2,1.3-1.4,2.2-0.6C438.2,353.7,437.5,353.7,436.4,353.1z"/>
	<path d="M429.2,409.8c-0.9-0.1-0.8-0.8-1.1-1.3c-0.1-0.2,0.1-0.4,0.4-0.2C429.1,408.7,429.1,409.2,429.2,409.8z"/>
	<path d="M376.8,358.6c-0.9,0.5-0.7,1.4-1.4,0.9C375.2,359.3,375.5,358.8,376.8,358.6z"/>
	<path d="M221.6,525.4c-2.8-5.4-7-10.3-7.3-16.6c-0.1-2.6-0.2-5.2-0.5-7.8c-0.1-1.1-0.8-2.4,0.6-3.5c1.5,3.2,2.4,6.3,2,10
		c-0.3,2.9,0.7,5.9,2.9,8.3c1.7,1.9,3.5,3.6,4.4,6.2C224.2,523.4,224.3,524.6,221.6,525.4z"/>
	<path d="M225.8,460c2.3-3.4,10.4-5.8,15.1-4.7C237.2,461.6,229.3,464.1,225.8,460z"/>
	<path d="M269.9,447.3c-5.6,1.2-10.2,5-16,5.5c-2.5,0.2-4.1,2.2-6.7,3.8c1-3.5,3.2-4.4,5.5-4.6c3.2-0.4,6-1.2,8.6-3.4
		C263.7,446.5,266.8,446.6,269.9,447.3z"/>
	<path d="M208.4,498.2c1.5,8.6,2.7,17.2,3,26.6c-1.3-2.4-2-4.4-1.8-6.6c0.2-3.7-0.5-7.2-1.1-10.8C207.9,504.4,209,501.3,208.4,498.2
		z"/>
	<path d="M222.7,458.6c-4.4-0.4-8.2-2.9-9.9-6.7C216.6,453.4,219.2,456.6,222.7,458.6z"/>
	<path d="M205.2,464.5c-1.3-5.7,0.1-8.4,4.2-8.2C206.3,458.2,207.6,461.9,205.2,464.5z"/>
	<path d="M204.6,472.8c-1.1-2.6,0.1-4.5,1.8-7C207.1,469,206.5,471.1,204.6,472.8z"/>
	<path d="M208.3,449.3c-0.8-2.4-1.5-4.9,1.3-7.2C210.6,445.1,208.5,447.1,208.3,449.3z"/>
	<path d="M215.4,486.3c-0.4,2.8-0.5,5.3-0.4,8C212.6,491.7,212.7,489.3,215.4,486.3z"/>
	<path d="M219.5,556.2c-1.1-1.6-1.1-3.4-1-5.2C219.8,552.5,220.2,554.2,219.5,556.2z"/>
	<path d="M210.1,485c1.4,1.7,0.5,3-0.2,5.2C208.8,487.9,210,486.5,210.1,485z"/>
	<path d="M219.4,462.3c-0.7,2.3-1.6,3.3-3.6,2.5C216.2,463.1,217.5,462.9,219.4,462.3z"/>
	<path d="M212.9,530c1.4,0.4,1.7,1.4,1.7,2.8C212.9,532.4,213.3,530.9,212.9,530z"/>
	<path d="M284.4,460c-1.5,1.5-2.8,1.3-4.7,1.2C281.2,459.9,282.4,459.7,284.4,460z"/>
	<path d="M337.2,462.1c-0.1,2.1-1.6,3.1-2.4,4.5c-1.7,3.1-2.4,5.9-0.5,9.5c1.5,2.8,1.2,6.5,3.6,9.2c-0.9,0.6-1.2,0.1-1.5-0.2
		c-1.6-1.6-2.5-3.4-3-5.7c-0.9-5-3.7-10.1,0.6-14.9C335,463.6,335.5,462.3,337.2,462.1z"/>
	<path d="M353,464.1c2.7,1.5,2.6,3.4,2.1,5c-1.5,4.4-3.3,8.7-6.1,13c-0.1-2.8,0.4-6.5,1.5-8.2C352.2,471,353.9,468.2,353,464.1z"/>
	<path d="M347.5,569.7c-1.2-7.2-2.4-14.5-3.6-21.7c3,6.9,4.5,14.1,4.7,21.6C348.2,569.6,347.8,569.6,347.5,569.7z"/>
	<path d="M364.9,588.4c-0.7,5.8,2.9,10.6,3.9,16.5C364.7,602.1,362.6,593.2,364.9,588.4z"/>
	<path d="M348.1,500.5c-1.1-1.1-0.9-2.3-0.3-3.2c1.5-2.5,1.1-4.8,0-7.2c-1.1-2.5-0.9-4.6,1.9-6.1c-1.6,2.9-0.6,5.4,0.6,8
		c0.6,1.3,0.5,2.6-0.2,3.8C349.2,497.3,348.7,498.8,348.1,500.5z"/>
	<path d="M342.9,539c0.4-6.4-1.7-12.7-0.5-19.1C342.5,526.3,344.4,532.6,342.9,539z"/>
	<path d="M368.9,473.4c-1.5,2.1-0.7,4.9-2.2,7.1C364.5,478,365.3,475.4,368.9,473.4z"/>
	<path d="M365.9,569.3c-0.2,2.7,0.6,5.3,0.1,7.9C364.5,574.5,364.4,571.9,365.9,569.3z"/>
	<path d="M375.5,468.4c-0.6,2.4-2.8,2.8-4.5,3.8C371.4,469.6,373.2,468.7,375.5,468.4z"/>
	<path d="M342.1,515.4c-1.1-2.5-1.4-4.8-1.3-7.5C342.5,510.5,342.7,511.3,342.1,515.4z"/>
	<path d="M372.1,486.2c1-1.7,1.8-2.6,3.6-3.4C374.9,484.7,374,485.5,372.1,486.2z"/>
	<path d="M337.3,598.7c3.1,1.2,6.8-0.3,9,3.2c-4-0.6-8.1-1.3-12-1.9c3.2-7.5,5.4-15.2,10.7-21.4c0.7,3.9-1.8,6.9-3.1,10.1
		C340.4,592.1,339.1,595.4,337.3,598.7z"/>
	<path d="M344.8,574.7c-8.1,7.8-17.2,14.5-25.5,22.3C319.6,593.7,338.1,577.4,344.8,574.7z"/>
	<path d="M280.9,597.3c5.3-0.4,21.4,2.8,26.9,5.3C298.9,600.8,290,598.7,280.9,597.3z"/>
	<path d="M258.6,592.6c6.6-0.2,12.7,2.3,18.9,4C271.1,596.1,264.9,594.2,258.6,592.6z"/>
	<path d="M444,313.1c8.6-0.2,17.1,1.3,25.6,0c-4.2,1.8-8.8,1.5-13.1,2.6C451.7,317,448.2,313.9,444,313.1z"/>
	<path d="M464.4,280c4.8-2.2,10-0.2,15.3,5.6C474.7,283.7,469.7,281.9,464.4,280z"/>
	<path d="M473.8,288.2c-2.5-1-5.9,0.6-7.5-2.7C469,284.2,471.3,284.9,473.8,288.2z"/>
	<path d="M461.5,316.9c-3.7,1.2-7.6,0.9-11.3,1.3c0-0.4-0.1-0.7-0.1-1.1c3.8-0.3,7.5-0.6,11.3-0.9
		C461.4,316.4,461.5,316.6,461.5,316.9z"/>
	<path d="M476.8,316.6c-3.3,0.2-6.4,1.4-9.8,0.9C470.5,316.2,472.5,316,476.8,316.6z"/>
	<path d="M454.1,287c1.7,0.2,2.5,1.6,4,2.4C454.9,289.9,454.5,289.7,454.1,287z"/>
	<path d="M451.5,299.1c-1.8,0.5-3.2,0.7-5-0.1C448.4,297.6,449.8,297.3,451.5,299.1z"/>
	<path d="M513.3,331.1c-1.3-0.8-2.2-1.7-2-3.7C513.1,328.3,513.2,329.7,513.3,331.1z"/>
	<path d="M466.4,320.2c0.5-0.4,1-0.6,1.5-0.1C467.5,320.7,467,320.7,466.4,320.2z"/>
	<path d="M169.6,603.7c2-0.7,3.2,0.6,4.1,0.5c1.9-0.4,1.9-1.9,3.1-2.4c3.2-0.4,6,1.7,9.3,1.6c-1,4.1-2.4,4-9.3,0
		c-0.9,1.3-0.4,3.9-2.9,3.8C171.8,607.1,170.5,605.8,169.6,603.7z"/>
	<path d="M227.8,606c-3.1,0.7-6,2-8.1-1.3c-1.1-1.7-0.7-3.3,0.5-4.7c1.4-1.6,3.3-2,5.3-1.1C228.8,600.4,227.9,603.2,227.8,606z"/>
	<path d="M214.1,599.2c2.3,0,4.2,1.8,4.2,4.1c0.1,2.4-1.9,4.3-4.4,4.4c-2.4,0-4.5-1.9-4.4-4.3C209.6,601,211.6,599.2,214.1,599.2z"
		/>
	<path d="M208.3,607.8c-1.2,0.3-1.6-0.3-2.1-0.8c-0.4-0.4-0.7-1-1.4-1.1c-1.6,0.1-0.2,2.2-2,2.4c-1.8-2.2-1.1-4.9-1.1-7.4
		c1.3-0.7,2.5-0.6,3.7-0.6c2.8,0.1,3.6,1.3,2.8,4C207.7,605.6,207.7,606.1,208.3,607.8z"/>
	<path d="M367.9,280.5c0.5-1.9,0.7-4.6,3.1-5.6c2.1-0.8,4.4-0.6,6.5,0.8c1.9,1.3,4.1,2.1,6,3.3c2.9,1.7,3.3,4,1.5,6.7
		c-3.3,5-5.2,5.4-10.4,2.4c-1.5-0.8-3.1-1.5-4.3-2.7C368.8,284.1,367.9,282.3,367.9,280.5z"/>
	<path d="M336.8,640.4c3.6-1.1,6.7-0.3,9.8-0.4C345.8,643.4,342.7,643.6,336.8,640.4z"/>
	<path d="M443.1,427c-3.7-0.9-6.1-3.7-8.6-6.3C438,421.8,440.1,425,443.1,427z"/>
	<path d="M438.3,413.4c0.1,3-0.1,3.5-2.2,5.9C434.9,417.4,435.7,415.3,438.3,413.4z"/>
	<path d="M443.9,405c1.6,2.8,0.3,4.7-2.2,6.7C441.6,408.9,443,407,443.9,405L443.9,405z"/>
	<path d="M425.6,429.4c-0.3-2.7,1.1-4,2.9-5.1C428.2,426.2,427.7,428,425.6,429.4z"/>
	<path d="M439.5,417c2.1,0.8,2.9,2.5,3.2,4.5C441.6,420,440.6,418.5,439.5,417z"/>
	<path d="M440.6,413.5c0.7,0.8,1.5,1.6,2.6,2.9C441.5,415.7,440.8,414.9,440.6,413.5z"/>
	<path d="M455.3,396.4c1.3,0.5,2.6,0.8,3.1,2.6C456.6,398.7,455.7,397.8,455.3,396.4L455.3,396.4z"/>
	<path d="M356.6,322.5c-0.5,2.3-1.3,4.5,0,6.8C354.2,327.2,354.2,325.4,356.6,322.5z"/>
	<path d="M351.4,351.9c-0.5,1,0.5,2.3-1,3.5C349.2,353.7,349.4,352.7,351.4,351.9z"/>
	<path d="M310.5,423.9c-1.6-4.8,2.8-7.2,4-11C313.9,416.9,311.7,420.2,310.5,423.9z"/>
	<path d="M315.4,425.5c-0.1-2.7,1.5-3.6,2.4-4.9C317.8,422.4,317.1,423.7,315.4,425.5z"/>
	<path d="M297.9,422.1c0.3-1.9,1.5-3.2,3.7-4.5C300.7,419.9,299.3,421.1,297.9,422.1z"/>
	<path fill="#FFFFFF" d="M670.4,606.9c-2.1-0.1-3-1.1-2.9-2.8c0.1-1,0.7-1.8,1.8-2c1.8-0.4,2.7,0.5,3.2,2.5
		C670.9,604.4,669.3,604.6,670.4,606.9z"/>
	<path fill="#FFFFFF" d="M660.1,602.6c1.6,0.2,2.5,0.9,2.5,2.6c0,1.4-0.8,2.3-2.1,2.4c-1.5,0.1-2.6-0.7-2.7-2.3
		C657.7,603.7,658.8,603,660.1,602.6z"/>
	<path fill="#FFFFFF" d="M649.8,605.4c0.4-2.5,1.7-1.8,3.2-1.3C652.4,606,651.2,605.8,649.8,605.4z"/>
	<path fill="#FFFFFF" d="M863.1,160.3c0-2.8,0.7-5,3.5-5.7c1.6-0.4,3.2,0,3.8,1.8c0.7,2-0.1,3.7-1.4,4.9
		C867,163,865.1,162.1,863.1,160.3z"/>
	<path fill="#FFFFFF" d="M859.6,152.3c1.6,0.1,2.8,0.4,4,1.3c-1.7,1.9-2.5,4.1-2.9,6.7c-2.1-0.3-3.6-1.4-3.9-3.2
		C856.4,155,857.7,153.5,859.6,152.3z"/>
	<path fill="#FFFFFF" d="M223.8,605.2c-1.9-0.3-2.7-1.2-2.7-2.7c0.1-1.2,0.8-2.1,2-2.2c1.5-0.2,2.5,0.5,2.9,2.4
		C224.5,602.7,223.4,603.5,223.8,605.2z"/>
	<path fill="#FFFFFF" d="M216.3,603.3c0,1.7-1,2.6-2.5,2.5c-1.3-0.1-2.3-0.9-2.4-2.3c-0.1-1.5,0.9-2.6,2.4-2.6
		S216.3,601.8,216.3,603.3z"/>
	<path fill="#FFFFFF" d="M206.8,602.5c-0.9,1.9-2,1.5-3.3,1.3C203.9,601.2,205.2,601.9,206.8,602.5z"/>
	<path fill="#FFFFFF" d="M375.8,285.5c0.8-2.6,2-4.6,4.9-4.6c1.5,0,2.8,0.8,3.1,2.5c0.3,2.3-1.1,3.8-2.8,4.6
		C378.7,289.1,377.2,287.6,375.8,285.5z"/>
	<path fill="#FFFFFF" d="M373.4,285c-3.9-3.8-3.5-5.7,1.3-8c1.2,0.5,2.4,1,3.4,2.4C375.9,280.5,374.8,282.7,373.4,285z"/>
</g>
</svg>
