<?xml version="1.0" encoding="utf-8"?>
<!-- Generator: Adobe Illustrator 19.1.0, SVG Export Plug-In . SVG Version: 6.00 Build 0)  -->
<svg version="1.2" baseProfile="tiny" id="Layer_2" xmlns="http://www.w3.org/2000/svg" xmlns:xlink="http://www.w3.org/1999/xlink"
	 x="0px" y="0px" width="900px" height="600px" viewBox="144 97 900 600" xml:space="preserve">
<g>
	<path d="M717.4,151.8c1.9-1.6,0.7-4.3,2.1-6.3c1.2,1.4,1.2,1.4,1.7,4.7c1.8-1.1,0.2-3.1,1.5-4.4c1,0.2,2.3,0,3.2-0.7
		c1.4,0.7,2.1,2.4,4,1.8c0.9-0.3,1.5,0.7,2,1.5c1.2,1.9,2.4,3.8,3.6,5.6c5.4,1.4,10.5,9,10.1,15.2c2.1,1.1,3.7,2.5,2.9,5.3
		c-0.1,0.4,0.4,1,0.7,1.5c1.2,1.9,2,4,2.3,6.3c0.1,1.4,0.4,3,1.1,4.2c1.9,3.8,3.3,7.6,3.3,11.9c0,1.7,0.4,3.4-0.3,5
		c-1.3,3,0.1,6.2-0.6,9.4c-0.3,1.2,0.9,2,2.1,2.2c0.7,0.1,1.4,0.1,2,0.1c29,0,58,0,87-0.1c0.7,0,1.3,0,2.1,0c0.5-1.3,1-2.4,1.4-3.4
		c3.7-2.5,7.5-3.6,12.1-3.7c5.4-0.1,10.4,1.6,15.7,1.5c3-0.1,3.5,2.8,4,5.1c1.3,0.7,2.7,0.4,4,0.4c48.7,0,97.4-0.1,146.1-0.1
		c1.7,0,3.8-0.8,4.6,1.6c-0.4,2.1-1.9,2-3.4,2c-4.8,0-9.5,0-14.3,0c-44.2,0.1-88.4,0.1-132.5,0.2c-1.2,0-2.5,0-3.5,0
		c-1.3,0.8-0.4,2.1-1.4,3.2c-1.3,0.6-2.7,2.5-4.8,0.3c-1.2,0.9-1.8,2.2-2.7,3.6c1.4,0.7,2.7,0.4,4,0.4c50.9,0,101.7,0,152.6,0
		c1.2,0,2.5,0,3.7,0.1c1,0.1,1.7,0.7,1.7,1.8c0,1.1-0.8,1.6-1.7,1.8c-1.1,0.2-2.3,0.1-3.4,0.1c-49.8,0-99.7,0-149.5,0
		c-1.5,0-2.9,0-4.4,0c-2.1,4.4-2.9,9.2-6.2,12.7c-0.4,0.5-0.2,1.1-0.3,1.6c-0.7,8,0.3,15.9,3.5,23.3c3,7.1,4.3,14.2,3.2,21.9
		c-0.3,2.1-0.2,4.3,0,6.4c0.6,6.5-1.2,12.5-3.2,18.6c-0.7,2.1-1.6,4-3.5,5.7c1.5,2,1.3,4.1,0.3,6.3c-0.9,2.1-0.1,4,1,5.8
		c2,3.5,3.9,7.2,6.8,10.1c5.8,6.1,9.3,13.5,12,21.4c2.1,6.2,4.2,12.4,6.9,18.4c2.4,5.3,4,11.1,3.9,16.8c-0.1,6,0.3,12.2-1.2,18.2
		c-0.8,3.3,0.1,6.8-1,10.1c-0.2,0.7,0.3,1.3,0.7,1.9c3.9,6.3,5.4,13.4,7.1,20.4c0.3,1.1,0.1,2.3,0.2,3.4c0.4,3.7,0.9,7.2,3.7,10.2
		c4.6,5,6.2,11.5,7.8,17.8c2.9,11.1,5.6,22.3,8.4,33.5c0.4,1.6,0.4,3.4,0.8,5c2.7,10.5,2.9,21.5,5.5,32c0.2,0.9,0.5,1.8,0.3,2.7
		c-0.8,3.9,0.3,7.6,0.8,11.4c0.2,1.6,0.4,3.1,0.6,4.8c1.4,1.3,2.8,2.7,4.5,4.3c4.6-2.8,8.6-6.5,13.2-9.3c5.1-3.1,10.7-4,16.6-3.8
		c2.3,0.1,3.8,2,5.3,3.4c5.6,5.8,8.8,12.8,9.3,20.9c0.2,3.7,1.3,7.3,0.1,11.1c-1.3,4.2-3.2,8.1-5.6,11.5c-2.1,3-6,4.4-9.1,6.4
		c-6.9,4.5-12.4,10.1-17.1,16.7c-4.3,6-10.1,9-17.7,8.8c-4.2-0.1-8.3-0.1-12.5-0.5c-2.8-0.2-5.3-0.8-7.5-3
		c-2.5,3.8-6.3,4.3-10.1,4.9c-3,0.5-6,0.9-9,1.5c-1.4,0.3-2.9,0.5-4,1.7c-0.5,0.6-1.4,0.8-2.2,0.8c-3.4,0.1-6.8,0.3-10.2,0.3
		c-2.7,0-3.3-0.8-3.1-3.6c0.6-8.3-2.5-16-4-23.9c-0.2-1-1.2-1.9-1.8-2.9c-1.3-2.2-1.9-4.5-0.5-7.1c1.3,4.7,5.9,7.4,6.5,12.5
		c0.6,5,2.5,9.8,3.2,15c3.7-2.4,7.2-4.9,11-7c2.8-1.6,3.4-4.9,4.4-7.8c0.4-1.1,0.5-2.2,0.9-3.3c0.4-1,0.8-0.3,1.1,0.1l0-0.1
		c-0.4,1.7-0.6,3.6-1.2,5.2c-1.5,3.6-3.1,7.1-7.2,8.9c-2.5,1.1-4.7,3.1-7,4.8c-2.1,1.6-2.4,3.9-2.6,6.5c3.5,0.6,6.9,0,10.5,0.3
		c2.2-3.4,5.7-3.7,9.2-4.2c2.8-0.4,5.6-0.6,8.4-0.9c2.6-0.3,4.8-1.4,5.6-4.2c2.4-8.8,8.3-14.9,15.1-20.3c6.1-4.7,9.2-10.9,10.8-18.2
		c1.2-5.4,0.9-10.8,0.5-16.2c-0.4-5.5-8.4-10.3-13.8-9c-4.4,1.1-7.8,3.7-11.4,6.3c-2.1,1.5-4,3-5.4,5.3c-0.7,1.1-2,1.5-3.2,1.8
		c-2.7,0.6-5.5,0.8-8.2,2c-0.2-1.9,0.9-2.9,1.4-4.1l0.1-0.3l-0.3,0.1c-2.5,0.7-5.1,1.1-6.7,3.6c-0.6-3.1,0.1-4.1,4-6
		c0.7-0.8-0.8-1.6,0-2.4c0.7-1.1,1.9-0.4,2.8-0.8c-0.2-1.9-4-4.2-5.9-3.4c-2.9,1.2-5.9,2.3-8.9,3.3c-1.5,0.5-2.6,1.7-2.7,3.2
		c-0.3,2.9-1.2,5.7-0.3,8.7c0.7,2.2,0.3,4.5-0.2,6.7c-0.6,2.6-1.8,5-1.7,7.9c0.1,2.3-2.4,4.4-4.7,4.7c-1.6,0.2-3.2-0.3-5,0.8
		c0-2.5,1.9-3.2,2.6-4.8c-0.5-2.4-1-4.9-1.5-7.6c0.9-1.2,1.8-2.5,2.5-3.5c-3.5-10-11.2-16.9-16.7-25.3c-1.3-2-2.7-3.9-3.7-6.1
		c-2.1-4.2-5.7-7.2-8.7-10.8c-2.3-2.7-5.2-4.8-7.2-7.7c-7.1-10.4-15.6-20-19.3-32.4c-0.1-0.4-0.3-0.9-0.5-1.3
		c-5-8.4-5.2-17.7-4.9-27c0.1-3.6,0.1-7.2-0.2-10.9c-0.2-2.6-0.5-5.2-2.7-7.1c-0.5-0.4-0.8-1.1-1-1.7c-2.6-6.9-6-13.4-7.2-20.8
		c-0.7-4.6-4-7.9-6.2-11.9c0.1,4.1,3.2,6.7,4.8,10.3c-0.8,1.2-2.2,2.1-3,0.4c-1.7-3.4-5.1-4.6-7.5-7.1c-3.8-4.1-7.1-8.4-9.5-13.5
		c-3.1-6.5-6.8-12.6-13.9-15.5c-1.1-0.5-2.6-0.9-2.7-3.2c6,0.9,10.4,4,14.4,7.8c3.8,2.4,5.7,6.1,7.3,10.1c1.3,3.3,3.1,6.5,6.2,9.1
		c1-2,0.7-3.6-0.2-5.2c-1.3-2.6-3-5.1-5.1-7.2c-2.6-2.6-4.2-5.8-5.7-8.7c-0.1-0.8-0.5-0.4-0.1-0.5c0.1,0,0.1,0.1,0.1,0.3
		c0.1,0.9,0.2,1.7-0.4,2.4c-0.8,0.9-1.6,0.6-2.2-0.3c0.1-4.6,0.2-9.1-2.2-13.4c-1.9-3.3-1.7-7.2-2.5-10.8c-0.9-4.2-2.8-7.9-5.5-11.1
		c-3.8-4.5-7.5-9-10.9-13.8l0.1,0.1c-0.1-0.2-0.1-0.4-0.2-0.6c-5.8-10.5-9.3-21.7-10.9-33.5c0-0.3-0.2-0.6-0.5-1.1
		c-2.7,2.2-3,5-3.1,8.1c-0.4,8.3,2.6,15.7,5.4,23.2c1.3,3.4,2.1,6.9,2.2,10.6c0,3.1,1.5,5.7,3.2,8.1c4.3,6.2,6.8,13.3,10.1,19.9
		c0.8,1.6,2.1,2.9,2.4,4.6c-1.2,0.8-1.5-0.1-2.1-0.6c-4.3-4.2-6.8-9.5-9-15.1c-1.6-4.2-4.4-7.9-6.3-11.9c-0.4-0.9-1.1-1.8-1.2-2.8
		c-0.4-8.4-4.5-15.9-5.8-24c-1.3-7.9-2.8-16.1,3.3-23.1c1.2-1.4,1.9-3.1,1.7-5c0-0.4-0.1-1.1,0.1-1.3c2.1-1.6,1.3-3.6,1.1-5.5
		c-0.1-0.8,0-1.6,0-2.4c-7-3.5-14.6-3.3-22.1-3.7c-8.2-0.4-16.5-0.8-24.5-3.1c-3.4-1-6.6-2.4-9.2-5.9c-1.1,9.3-7.1,15.4-11.5,22.3
		c-2.4,3.8-6.2,6.6-9.8,9.3c-3.8,2.9-7.5,5.8-10.5,9.6c-3.2,4.1-7,6.2-12.5,6.1c-4.6-0.1-9.2,0.6-13.8-0.5c-3.7-0.9-4.3-1.6-5.1-5.3
		c-1.7-7.8-2.2-15.6-2.4-23.6c-0.1-2.2-1.1-4.4-1.2-6.7c-0.1-2.2-1-4.4,0.8-6.4c0.4-0.5,0.2-1.5,0.2-2.3c-0.1-6.1,0.9-12.1,2-18.2
		c1.4-7.3,3.1-14.6,3.5-22.1c0.3-5.3,2-10.1,4.8-14.5c-2.5-3.8-3.1-8-3.8-12.5c-9.7,0-19.4,0-28.7,0c-1.1-1.2-1.1-2.2-0.8-3.8
		c15.3,0,30.7,0,46.5,0c-0.9-2.5-1.6-4.3-2.5-6.6c-2.1,1.8-3.9,1.6-5.6,0.1c-1.2-1-2.6-0.7-3.9-0.7c-10.3,0-20.6,0-30.9,0
		c-1.2,0-2.5,0-3.5,0c-1.1-1-0.9-2-0.7-3.6c10.8,0,21.7,0,33,0c-0.5-1.9-0.9-3.3-1.2-4.6c2.5-3.7,4.3-4.1,7.7-1.8
		c0.6,0.4,1.1,0.7,1.7,1.1c2.9,0.5,3.9,3.1,5.3,5.2c1.2,1.7,1.9,3.8,3.2,5.6c1.1-2.7,0.4-5.5-1.7-7.2c-2-1.7-4.3-2.9-6.8-3.4
		c0-1.7,0.5-3.1,2.3-3.9c2.1,0,3.3,2.1,5.3,2.5c2.1-3.3,6.1-4.6,9.1-0.6c0.8-1.7,2-2.8,3.9-2.5c1.9,0.3,2.9,1.7,3.3,3.5
		c0.4,1.7,0.7,3.5,1.2,5.6c13.7,0,27.3,0,41.1,0c-3.2-3.8-4.8-8.6-8.3-12.3c-3.1-3.4-3.6-8.3-3.9-12.7c-0.2-2.9,1.9-5.7,3.3-8.4
		c2.2-4.3,3.5-9,5.4-13.5c2-4.8,4.9-8.6,9.6-10.8C714.1,154.9,714.7,152.6,717.4,151.8c0.6,0.4,0.4,0.8,0.2,1.3
		C717.8,152.7,718,152.2,717.4,151.8z"/>
	<path d="M312.9,359.6c0.3,1.4,0.1,2.7-0.6,3.7c-1.1,1-2.1,0.3-3,0.3c-0.3,0.3-0.3,0.6-0.1,0.9c2,3.7,5.7,5.7,8.5,8.6
		c0.7,0.8,2.2,0.4,3.3,0.4c6.4,0.3,12.6,1.2,18.3,4.4c0.3,0.2,0.6,0.3,0.9,0.4c3.5,0.5,6.8,1.2,9.9,3c1.7-2.2,1.8-4.8,3.4-7.1
		c0.6,2.5-0.3,4.4-0.5,6.4c0.9,0.1,1.7,0.4,2.6,0.4c1.1,0.1,1.5,0.8,1.9,1.9c3.5-0.7,6.6-2.5,10.2-3c-2.4-0.7-4.9-0.6-7.8-0.5
		c0.9-1.9,2.1-2.1,3.4-2c6.8,0.5,13.3-0.2,19.6-2.8c2.1-0.8,4.5-0.5,6.8-0.3c1.3-1.3,3-2.1,4.6-2.8c5.3-2.3,9.6-6.4,15.2-8.1
		c1.9-0.6,3.8-1.4,5.9,0.9c-8.2,1.6-14.4,6.7-22,10.2c3.2,2.9,6.3,5.1,9.6,7c2.2,1.3,5.4,5.9,6.2,8.4c0.3,1,1.4,1.7,2,2.7
		c1.8,3.1,3.5,6.3,5.2,9.5c1.3,2.4,2.4,4.8,6,4.6c1.7,0,2.4,2.2,3.2,3.7c4.8-4.2,1.1-9.2,1.2-14.4c1.6,1.3,1.4,2.8,2.2,4.2
		c0.8-4.3,4.6-5.8,7.1-8.5c4.1-4.6,9-8.3,12.8-13.1c3.9-5,7.4-10.2,9.6-16.3c3.5-9.7,6.1-19.6,8.5-29.6c0.4-1.7,1.6-2.6,3.1-2.8
		c-2.2,11.3-3.7,22.7-8.4,33.4c-3.7,8.4-8.8,15.8-15.4,22.1c-3.6,3.4-6.9,7-10.1,10.8c-4.3,5-6.1,10.9-8.7,16.5
		c-1.4,3.1-1.7,6.4,0.5,9.6c0.8,1.1,2.3,2.8,0.1,4.5c-2.7-1.8-2.2-5.2-3.8-7.3c-1.8-2.5-1.3-5-0.9-7.5c-4.5-3.1-9.4-5.4-13.1-10.3
		c2.6-0.1,1.9,2.8,4,2.3c0.1-1.9-1.2-3.3-2-4.8c-3.3-7.2-7.9-13.3-14.6-17.7c-2.2-1.5-4.2-3.4-5.9-5.6c-9.5,2.3-19.2,3.5-28.1,9.2
		c-0.3,0.5,1.6,1,0.9,2.1c-0.9,0.4-1.8-0.1-2.5-0.5c-3.5-1.8-7.2-1.7-10.9-1.2c-8.1,1.1-15.2-1.8-21.6-6.2c-2.3-1.6-4.6-2.1-7.6-2.3
		c4.9,7.8,6.1,15.3,0,23.1c5.4-0.5,10.1-1.7,14.9-1c-4.7,2-9.5,3.1-14.7,2.1c-1.3,0.5-1.7,1.8-2.4,2.8c2,1.7,4.5,0.5,6.6,1.4
		c2,0.9,4.1,1.7,4.7,4.4c-3.9-2.1-8.3-2.6-12.4-4.4c-3.5,4.4-7.4,8.2-9.1,13.6c-0.7,2.2-1.7,4.2-2.9,6.1c-2.1,3.1-4.2,4.3-9,4.7
		c5,7.5,10.5,14.1,19.1,19.2c3.5,0.5,8.1,2.1,12.6,4.1c0.7-2.1-2.3-2.7-1.6-5.4c3,4.1,6.8,6.5,10.4,9.3c1.5,1.2,3,2.4,3.9,4.2
		l0.2,0.3l-0.2-0.2c-0.5-2.3,0.4-2.9,2.5-2.2c1.2-0.6,0.6-2.4,2.7-3.2c-2,3.5-1.5,7.2-3.4,10.3c1.2,1.2,2.3,2.4,3.8,4
		c0.2-4.2,2.5-6.7,5.1-8.7c2.4-1.9,3.4-5.8,7.9-6c-1.4,3.1-3.9,4.3-5.9,6c-2.1,1.8-4.1,3.6-5.2,5.2c-1.3,5.5,2.7,8.8,3.3,13.2
		c-1.8-1.3-2.1-3.5-3.9-5.2c-1.5,3.8,0.2,7.3-0.1,10.9c-2.6-2.9-3.4-6.3-2.7-10.1c0.9-4.6,0.3-5.9-4.5-8.2c-1.8,2.4-1.3,5.2-0.9,7.8
		c0.5,3.9,1.8,7.6,3.3,11.3c1.7,4.3,4.7,7.4,7.7,10.5c7.9,8.2,15.2,16.8,20.4,27c1,2,2.6,3,4.6,3.7c3,1,6,2.1,9.1,3.3
		c0.7-0.7-0.1-1.6-0.4-2.3c-1.1-2.8-1.2-5.5,0-8.2c0.6-1.3,1-2.8-0.3-3.8c-4.2-3.1-6.1-8.1-10.3-11.1c-2.8-2-5.3-4.3-8-6.3
		c-2.6-1.9-4.5-4.4-6.1-7.2c-0.1-0.2-0.1-0.4-0.2-0.6c0.2,0.1,0.4,0.2,0.6,0.2c3,4,7.1,6.8,11.4,10.4c-1.5-5.9-2.5-11.2-3-16.5
		c0.2,0,0.5-0.1,0.7-0.1c1.3,5.9,2.6,11.7,4,17.8c2.6,2.4,5.7,4.5,7.5,8c0.8,1.5,2.5,2.5,4.5,3.5c1.7-10.4,4.4-20.7,12.8-27.3
		c8-6.2,17.3-10.9,28.5-10.4c-3.3-2.7-5.3-6.1-7.8-9.1c0.3-0.5,0.6-1,1.1-1.9c-8.7-8.6-18.9-14.9-31.1-18c2.7-1.8,4.3-2,7.1-1.3
		c4.7,1.2,8.6,4,12.4,6.8c2.4,1.7,4.6,3.6,7,5.4c3,2.3,5.6,4.9,7.4,8.3c1,1.9,2.3,3.6,4.2,4.9c-0.1-5.3,0.5-10.6-1.7-15.6
		c-0.3,2.3,1,4.4,0.8,6.9c-1.4-0.4-1.3-1.4-1.5-2.2c-0.8-4.2-2.7-7.8-4.8-11.4c-0.9-1.5-1.1-3.2-1.9-4.7c-1.8-3.6-4.8-6-7.7-8.4
		c0-0.2-0.1-0.4-0.1-0.6c0.2,0.1,0.4,0.1,0.6,0.2c4.6,2.4,7.6,6.1,9.5,11c1.1,3,2.4,6,5.4,7.9c1.7,1.1,2.9,2.9,2.6,4.9
		c-0.8,4.7,1.2,9,1.2,13.6c0,1.4,0.4,2.7,1.8,3.4c1.3-0.6,1-2,1.4-3c1.3-3.8,1.8-7.9,4-11.5c0.5-0.8,0.2-1.8,0.3-2.7
		c0.2-5.8,3-9.5,8.5-11.1c1.8-0.5,3.7-1,5.6-1.4c1.8-0.4,3.7-0.8,6.1-1.3c-1.5,2-3.1,2.4-4.6,2.8c-1.8,0.5-3.7,1.1-5.6,1.4
		c-5.4,0.9-6.9,4.7-8.4,9.3c-1.8,5.5-2.8,11.3-4.5,16.8c-0.3,0.9-0.8,1.5-1.8,2c2.4,2.1,4.6,3.9,7.4,5.6c1.7-7,2.9-14,7.5-19.7
		c0.1,0.1,0.2,0.2,0.3,0.3c-2.4,5.3-3.9,10.8-3.7,16.7c0.1,2.1-1.4,3.9-1.3,6.2c0.1,1.1,0.2,1.9,1.6,2.6c2.6-6.3,7.3-10.8,11.9-15.5
		c0.1,0.1,0.2,0.2,0.3,0.3c-3.9,5.5-8.6,10.5-10.7,17.5c1.1,1,2.6,2.2,3.9,3.3c1.9-12.3,19.1-26.2,31.2-26.5
		c2.6-0.1,5.1-0.6,7.7-0.4c5.4,0.4,9.2,3.3,12.9,6.8c0.9,0.9,1.6,2.2,3.5,2.3c-2.4-4.4-5.4-8-9.3-10.7c-7.5-5-14.8-10.3-23.3-13.9
		c-5.8-2.5-12.5-4.7-15.7-10.7c-2.3-4.2-5.8-6.7-9-9.9c-2,0.7-4.1,0.3-6.2,1.9c-3.1,2.5-9.4,1.6-12.6-1.2c2.3-2.4,4.9,2.2,7.1-0.6
		c0.1-0.4-0.6-1.1,0.2-1.7c0.1-0.1,0.5-0.4,0.7-0.3c3.1,0.6,6.1,0.2,9.1-0.4c1-0.2,2.2-0.4,2.9,0.3c2.9,2.7,6.7,4.2,9.1,7.6
		c0.5,0.6,1.2,1.4,1.1,2c-0.4,3.8,2.4,5.2,5,6.5c4.6,2.3,9.2,4.8,14,6.9c10.8,4.9,20.8,11,28,20.9c2,2.8,3.8,5.7,1.2,9.1
		c-0.2,0.3-0.1,0.9,0,1.3c1,4.1,0.4,8.1-1,12.1c1.6,2.4,3.2,4.8,3.2,7.7c0,0.4,0.2,1,0.5,1.2c3.6,2.7,4.6,7.4,8.1,10.3
		c6.8,5.6,13.1,11.8,18.9,18.4c1.4,1.6,3.6,3,6.2,3.4c5,0.6,8.8,2.5,10.8,7.9c1.6,4.4,4.1,8.5,5.5,13.1c0.8,2.7,0.4,5.7,1.9,8.4
		c1.4-1.7,2.2-3.7,2.8-5.7c2.6-7.6,7.1-14.2,12.7-19.9c5.7-5.7,13.8-5.1,19.3,0.6c6.9,7.2,10.8,16.3,14.2,25.6
		c1.8,4.9,0.3,9.5-1.1,13.9c-1.6,5.3-3.3,10.8-6.3,15.6c-2.1,3.3-4.3,6.7-6.9,9.6c-2,2.2-3.1,4.7-3.8,7.4c-0.5,2-0.9,4-1.4,6
		c-1.5,7.4-5.7,13.3-11,18.3c-4.5,4.3-10.1,5.8-16.2,5.5c-1.5-0.1-2.9-0.1-4.4-0.1c-6.9,0-8.6-1.9-8.1-9c1.2,0.1,0.9,1.1,1,1.8
		c0.5,2.8,2.6,4.4,4.9,4.5c5,0.3,10,0.9,15-1.2c5.5-2.3,9.2-6,12.1-10.9c1.5-2.6,2.8-5.3,3.2-8.4c0.9-6.3,3.4-11.9,6.6-17.3
		c0.3-0.5,0.5-1.1,0.9-1.4c4.5-2.9,6.7-7.3,8.4-12.2c1.8-5.4,4.4-10.6,5-16.4c0.1-1.4,0.1-2.7-0.3-4c-1.9-5.8-4.2-11.4-7.1-16.9
		c-0.5-0.9-1.1-1.4-1.9-1.8c-1.2-0.6-2-1.5-2.5-2.7c-1.1-3.2-3.7-4.4-6.8-4.8c-1.1-0.2-2.2-0.4-3.4-0.7c-3.3,1.8-5.4,5.5-9.1,6.7
		c2.7-3.3,5.7-6.2,9-8.2c1.8-0.3,2.7,1.3,4,0.5c-2.8-1.8-8-0.9-11,2.3c-5.2,5.4-10.4,10.9-12.7,18.5c-0.8,2.5-1.5,5.3-4.4,6.3
		c1.5,12.4-2.3,23.5-8.1,34c-0.6,1.2-1.6,2.2-2.3,3.3c-2.9,4.8-2.5,9.8-1.6,15.1c1.2,6.7,0.7,13.2-3.9,18.8c-3.7,4.4-8,7.9-13.8,9.3
		c-6.2,1.4-11.6-1.4-16.8-3.6c-3.4-1.4-4.6-5.9-6.3-9.3c-1.9-4-2.8-8.7-7.1-11.2c-0.4-0.2-0.6-0.6-0.9-1c-2.3-2.6-4.1-5.2-1.3-8.6
		c-1.7-1.4-4.3-1.1-4.8-3.5c-0.2-1,0.9-1.2,1.4-2c-2.3-1.2-3.7-3.4-6.1-4.6c-6.6-3-13.1-6.2-19.9-8.8c-0.7-0.3-1.4-0.7-1.9-1
		c-0.5-0.9,0.4-1.4,0.3-2c-9.6-4.3-18.9-8.7-27.8-13.7c-3.2-1.8-6.6-3.9-8-7.2c-1.3-3.1-2.9-6-4.1-9.1c-2-5.3-4.3-10.4-5.6-16
		c-6.4,0.3-12.3-1.5-18.4-1.6c-4.1-0.1-7.5-2.1-10.1-5.5c-2.3-2.9-5.5-4.6-8.9-6c-3.2-1.3-6.6-2.2-10-3.2c-2.7-0.8-4.7-2.2-6.1-4.9
		c-4.4-8.2-10.1-15.5-16.4-22.4c-3.7-4-7.7-7.8-10.6-12.4c-3.7-6-6.2-12.5-5.6-19.8c0.2-2.2,1.6-4,1.7-6.2c0.1-1.2,0.4-2.4,0.1-3.9
		c-2.3-1-4.4-2.4-6.3-4.3c-0.5-0.5-1-0.8-1.7-1c-7.3-1.4-14.1-4.5-20.4-8.1c-7.1-4-12.2-10.3-15.9-17.6c-1.4-2.8-2.4-5.8-3.7-8.7
		c-1-2.3-2.1-4.4-5-5c-2.6-0.6-3.2-3.3-4.8-5c-4.1-4.3-6.5-9.5-8-15.1c-0.3-1.1-0.6-2.2,0-3.2c-8.3-7.8-11.6-17.8-11.8-28.8
		c-0.2-7.7,0.1-15.4,0.8-23.1c0.1-1.4,0.3-2.6,1.3-3.3c-1.9-10.3-8.5-18.7-10.1-28.9c-1.3-8.1-3.4-16.1-3.9-24.4
		c-0.5-8.4-0.7-16.7-0.6-25.1c0-1.8-0.1-3.6,0.6-5.3c0.6-1.4,0-2.9-0.6-4.3c-0.7-1.8-0.8-3.5,1.7-5.2c0,3,1.3,5.6,0.9,8
		c-0.7,3.6,0,7,0.2,10.4c0.6,8.7,0.5,17.4,1.3,26.1c1.2,13.3,3.3,26.5,10.1,38.4c2.2,3.8,2.7,7.7,1.5,12.2c-0.7,2.8-1.5,6.2,0.3,9.2
		c0.2,0.3,0.1,0.9,0,1.3c-1.2,7.9,0.2,15.8,0.2,23.7c0,3,1.6,5.8,3.2,8.4l-0.1-0.1c0.9,3.1,2.5,5.7,4.8,8c2.3,2.3,4.6,4.6,6.1,7.6
		c1.6,3,3.9,5.5,5.7,8.4c-4.3-2.6-7.1-6.4-9.1-11.1c-1.1,1.2-0.4,2-0.1,2.7c1.7,3.7,3.6,7.3,6.4,10.4c2.5,2.7,4.3,5.9,7.1,8.3
		c2.5,2.2,3.5,5.7,5.6,8.4c2.1,2.7,4.4,3.2,7.1,1.1c1.2-0.9,2-2.2,2.5-3.6c2.1-5.7,4-11.5,7.7-16.4c-1-0.9-2.5,0.1-3.1-1.6
		c1.2-2.4,4.8,0.4,6-2.7c-1.7-0.4-3.3-0.7-4.8-1.1c-5.4-1.7-7.1-4.7-6.1-10.2c0.3-1.4,0.6-2.9,0.8-4.3c0.4-3.1,1.3-6.2-0.6-9.2
		c-0.5-0.8-0.4-2-0.1-3c3,3.3,3.5,13.7,1,20.1c3.1,3.2,6.6,5.4,11.3,5.7c1.4-2.4,2.8-4.8,4.2-7.3c1.2-2.4,0-5.5,2.3-7.5
		c-0.7-1.6-1.3-3-2.1-4.4c-1.2-2.3-2.7-4.2-5.7-4.7c-3.8-0.7-7-2.5-7.9-6.8c-0.1-0.7-0.6-1.5-1.4-1.8c-0.8,1.5,1.2,3.2-0.4,4.9
		c-1.6-0.9-2.3-2.3-2.8-3.9c-3.5-11.6-9.2-22.3-14.3-33.3c-1.1-2.4-0.6-5-1-7.5c-0.8-4.4,0-8.9-1-13.3c-1.8-7.9-4.9-15.3-7.7-22.8
		c-2.7-7.5-4.6-15.4-8.1-22.4c-3.5-6.8-2.9-13.9-4-20.9c-0.4-2.7,1.6-4.4,3.7-5.6c3.1-1.8,6.2-3.7,9.9-5.1
		c-0.5-3.9,2.4-7.5,0.5-11.7c-2.4-0.5-4.9-2.2-7.5-0.4c0,5.7,0.4,6.1,5.7,6.7c-2.1,2.5-4.4,2-7.5-1.5c-4.3-1.6-7.4,0.8-10.5,3.1
		c-0.7-1.8,1.4-1.8,1.2-3.3c-5.1,0-10.2,0-15.3,0c-0.6,5.2,1.8,9.5,3.1,14c-4.8-3.4-5.1-8.7-5.9-13.7c-1.4-0.9-2.8-0.6-4.1-0.6
		c-26.3,0-52.6,0-78.8,0c-1.7,0-4.4,0.8-4.4-1.7c-0.1-2.9,2.8-2,4.5-2c31.6-0.1,63.2,0,94.8-0.1c1.5,0,2.9,0.3,4.4-0.3
		c-0.1-1.9-1.1-3.4-1.8-5.4c-2.1,1.3-4.1,1.2-6.2-0.3c-1.1-0.8-2.6-0.4-4-0.4c-30.6,0-61.2,0.1-91.7,0.1c-2.2,0-4.4,0.2-5.3-2.7
		c0.7-1.8,1.7-2.9,3.7-1.6c0.8,0.5,1.7,0.6,2.6,0.6c29.3-0.1,58.7-0.2,88-0.3c0.3,0,0.7-0.1,1.1-0.2c-0.1-2.1-2.4-4.3,0.4-6.4
		c2.8-2.1,5-0.9,7.2,1c2.5-4,2.5-4,8.2-0.7c1.2-2,2.9-3.2,5.4-3.2c1.7,0,2.6,1.2,3.6,2.5c1.1-1.5,2.2-3,4.3-2.5
		c2.2,0.5,2.9,2.4,3.3,4.3c0.4,1.5,0.5,3.1,0.8,4.9c67.9,0,135.6,0,203.5,0c0.9-0.4,0-1.3,0.5-1.9c0.8-0.3,1.7-0.7,2.8-1.2
		c1.5,1.8,2.2,4.1,4.1,6c-1.3,1.1-0.6,3-2.2,4c-2.7-1.8-5.8-1.6-8.9-1.6c-36.8,0-73.6,0-110.4,0c-10.2,0-20.4-0.3-30.6,0.1
		c-18.2,0.6-36.4,0.6-54.6,0.6c-1.5,0-2.9,0.2-4.4,0.3c-2.1-0.5-2.9-1.8-3.1-3.9c-0.2-1.7-0.5-3.3-1.3-4.9c-0.4,5.2,0.2,6.4,4.2,8.7
		c0.8,0.1,1.7-0.2,2.4,0.3c4.4,2.9,9.4,2.2,14.2,2.2c55.9,0,111.8,0,167.7,0.1c6.4,0,12.7-0.4,18.7-2.4c2.2-0.7,4.2-0.8,6.1,0.5
		c-0.3,0.9,0.3,1.3,1,1.4c1.2,0.1,1.9,0.5,2.7,1.5c0.9,1.1,2.2,1.5,2.1-0.8c4.9-2.4,6.1-7.2,2.3-12.1c0.2,4.6,3.7,9.5-2.3,12.1
		c-0.5,0.2-1,0.6-1.9-0.3c3.3-4.9,0.5-9.5-0.6-14.3c-5.2-1.2-7.8,2.6-11.3,5.2c-0.5-2-0.2-3.5,1.1-4.2c3.3-2,6.5-4.3,10.7-3.1
		c0.8,0.2,1.6,0,2.3-0.2c2.1-0.5,4-0.5,5.7,1.2c3-1.6,5.8,0.8,8.8,0.3c1.6-0.2,2.7,1.4,3.1,3.1c0.2,1,0.1,2.1,0.9,3.2
		c10.9,0,22,0,32.8,0c1.1,1.1,0.7,2.1,0.5,3.5c-10.9,0-21.8,0-32.5,0c-2.2,3.8-3.5,4.3-6.8,3.1c-0.8,1.1-1.7,2.3-2.9,4
		c14.3,0,28.1,0,41.7,0c0.9,1.6,0.6,2.6-0.2,3.8c-12.5,0-25.2,0-37.7,0c-2.2,3.3-2.3,7.2-4.6,10c-6,7.2-7.5,15.9-9.1,24.8
		c-1.8,10.7-2.8,21.5-6.9,31.8c-1.2,3.1-1.8,6.5-3,9.7c-1.7,4.6-4.2,8.7-7.3,12.6c-1.9,2.4-4.1,4.8-3.7,8.4c0.1,1.3-1,2.6-3,3.6
		c0.6-4.3,0.8-8.3,3.3-11.3c7.4-8.8,9.9-19.7,13.5-30.1c0.6-1.9,1-4,1.1-6c0.7-8.4,2.9-16.5,4-24.8c0.9-6.4,2.9-12.4,7.5-17.5
		c2.6-2.9,3.6-6.9,5.2-10.8c-3.9-0.5-7.8-0.9-11.3,0c-2.4,0.6-4.9,1.8-7.4,2.9c-1.6,0.7-2.6,0.2-3.1-1.6c2.4-1.1,5.5-1.1,7.4-3.4
		c-1-1.9-4.1-3.6-6.1-3.4c-2.4,0.2-4,2-5.8,3.1c-1.7,1-1.3,3.5-2,5.1c0.5,1.1,1.7,1.3,2.4,2.1c1.5,1.6,2.3,3.3,1.7,5.5
		c-2.3,10-5.2,19.6-11,28.3c-1.6,2.4-2.1,5.8-3.7,8.4c-2.7,4.4-5.4,8.9-8.1,13.3c-3,5-5.5,10.3-6,16.4c1.1-0.4,0.8-1.7,2.4-2.2
		c-1.5,3-0.7,6.3-3.4,8.5c-0.6,0.5-0.6,1.7-0.8,2.6c-0.4,1.6-1.3,3-2.6,3.8c-10.5,5.9-16.8,15.3-22.1,25.7
		c-2.9,5.7-4.9,11.9-8.4,17.4c-1,1.6-0.6,3.6-1.8,5.4c2,0.7,2.7,2.1,1.9,3.9c-1,2.2-2.1,4.4-2.1,7c0,1.4-0.9,2.8-2.3,3.6
		c-1.2-0.5-1.1-1.5-0.7-2.3c1.7-3.4,1.4-7,1.7-10.6c0.4-4.8,2.1-9.1,4-13.5c2.5-5.7,5.1-11.3,7.7-17c4.7-9.9,12.2-17,22.1-22
		c0.8-2.1,1.3-4.5,1.6-7c0.6-4.9,0.8-10.1,3.2-14.5c2.4-4.3,4.2-9,6.7-13.3c3.3-5.6,6.5-11.4,9.7-17.1c2.4-4.2,4.2-8.8,5.8-13.4
		c1-2.9,1.9-5.8,3.1-8.6c1.7-4,1.8-6.2-2.4-8.4c-0.5-0.3-0.9-0.7-1.1-0.7c-0.4-1.6,0.6-2.6,0-4.1c-63.4,0-127,0-190.6,0
		c-0.9,0.9-0.9,2-1,3.1c-0.3,3.5-2.2,5.8-5.2,7.4c-2.1,1.1-4.2,2.2-6.3,3.3c-2.7,1.4-4,4.1-2.5,6.4c1.1,1.6,1.4,3.3,1.6,5
		c1,7.1,3.5,13.8,5.5,20.6c2.7,9.1,6.8,17.7,10.3,26.5c1.4,3.6,1.8,7.4,2.2,11.3c0.7,6.9,0.2,13.8,1.9,20.6c0.1,0.4,0,0.9,0.3,1.2
		c2.7,2.6,3.5,6.3,5.3,10.1c1.3-5.1,3.9-9.1,5.6-13.5c2.2-6,3.7-12.5,9.4-16.5c0.9-0.7,1.7-1.5,2.9-1.7c0.7-2.7,1.7-5.1,4.6-6.1
		c0.5,1-0.1,1.7-0.5,2.5c-0.1,0.1-0.2,0.3-0.3,0.4c-0.1,0.2-0.1,0.1,0.1-0.1c0.5-0.9,1.4-1.6,0.7-2.7c1.4-1.7,0.1-4.3,2-6
		c1.5,1.4,0.2,3.4,1.5,5c1.2-1.2,0.1-2.9,1.2-4.4c0.8-0.7,2.4,0.7,3-0.5c5.1,1.1,8.1,4.2,9.8,8.5c5.5,1.3,9.9,7.7,10.7,15.5
		c1.8,0.9,3.2,2.1,2.6,4.4c-0.1,0.3-0.1,0.8,0,1c3.8,4.8,3.1,11.2,6.1,16.4c1.9,3.5,1.9,7.9,0.9,11.9c-0.8,3.3,0.1,6.5-0.5,9.8
		c-0.2,1,0.8,1.5,1.4,2.2c1.2,1.6,2.1,3.4,2.1,5.8c-3.4-1-3-4.8-5.4-5.7c-0.2-3.8,0.5-7.2-1-10.7c2.5-1.6,2.5-4,1.9-6.8
		c-0.6-2.5-0.3-5-1.5-7.5c-3-6.1-9.5-7.3-14.2-2.3c-0.2,0.2-0.4,0.5-0.6,0.7c-0.9-0.1-1.3-0.5-1.4-1.3c5.4-4,8.4-4.6,13.5-3
		c0.5-4.4-3-7.7-3.3-12c-2.2-1.7-4.6-3-7.6-3.1c0.8-2.2,2.3-0.8,3.4-1.3c-0.2-1.4-1-2.3-2.3-2.9c-3.3-1.5-6.8-2.5-10.1-4
		c-3.2-1.5-9.7,1-11.9,3.9c-0.7,0.9-1.3,1.8-1.9,2.7c-3.1-0.1-4.6,1.1-4.3,4c0.7,6.4-0.5,12.8-0.3,19.2c0,2,0.6,3.6,2.9,7.4
		c-1.8,1.8-3,0.1-4.2-0.9c-2.9-2.3-2.9-2.4-5.5-1.1c1.4,1.1,3.2,1.2,4.8,2.1c-0.3,1.1-1.2,2.1-0.1,3.4c-1.4,0.5-2.4,0.9-3.1,1.1
		c-2.7,0.1-2.4-2.4-3.7-3.7c0,4.1,1.1,5.1,6.5,5.9c0.9-0.7-0.1-2.1,0.9-2.8C312.3,358.4,312.4,359.5,312.9,359.6L312.9,359.6z"/>
	<path d="M344,453.4c3.1-1.4,6-2.7,9-4c0.1,0.3,0.3,0.5,0.4,0.8c-2.8,2.5-6.2,4-9.9,5c-0.7,0.7-0.3,2.1-1.5,2.4
		c-0.1-0.1-0.3-0.2-0.3-0.3c1.2-7.3,3-14.3,10.5-18c2.2-1,2.3-1,4.9,0.1c-0.2-2.9,1.4-4.1,3.9-4.4c1.6-0.2,3-0.6,4.1-1.9
		c1-1.2,2.5-1.4,4.1-1.3c6.6,0.5,13-1.3,19.5-2.3c2.2-0.3,4-1.6,5.8-2.5c3-1.6,5.3-1.5,7.6,1.4c5-6.8,11.4-4.1,17.2-2.6
		c4.5,1.1,8.8,2.7,13.5,2.7c0.5,0,0.9,0.3,1.1,0.7c-1.1,1.1-1.1,1.1-7.5,1.4c-0.3,1.3,1.2,2.7,0.1,4.1c-0.9,0.6-1.8,0.2-2.5-0.3
		c-2.4-1.7-4.5-3.8-7.6-4.3c-1.3-0.2-1.1-1.8-1.7-2.5c-4.9-2.1-8.7-0.6-11.5,3c-2.1-0.2-2.7-1.9-4.7-2.5c-4.9,2.7-10.6,4.1-16.6,4.8
		c-3.9,0.5-7.8,1.1-11.8,1c-2.1-0.1-3.4,0.6-3.9,2.8c-0.7,3.1-2.9,4.5-5.9,4.8c-1.9,0.2-3.9,0.6-5.7,0.3c-2-0.2-3.1,0.6-4,1.8
		c-1.9,2.4-3.4,5-5.8,7C343.9,451.1,343.6,452.1,344,453.4z"/>
	<path d="M402.9,442.9c-15-2.8-29,1-43.3,2.5c4.2-4.6,11.4-1.9,15.1-7c1.2,0.9,0,1.4,0.2,2.3c4.8,0,9.5-1.2,14-1.4
		c1.2-0.5,0.8-1.6,1.3-2.1c0.8-0.4,0.9,0.6,1.5,0.7c2-2.8,4.3-5,8.7-4.8c-2.3,2.1-4.2,3.9-6.3,5.9
		C396.9,440.5,400.8,439,402.9,442.9z"/>
	<path d="M432.6,462.6c-3.4-4.6-2.2-12.8,2.2-17c6.3-6,15.7-8.7,19.6-5.6c-0.9,1.3-2.4,1.2-3.7,1.2c-8.7-0.6-13.1,4.6-16,11.8
		C433.6,456,432.1,458.9,432.6,462.6z"/>
	<path d="M443.6,358.2c-0.9,2.6-2.9,4.2-5.2,5.1c-4.9,1.9-8.4,5.6-12.1,9.1c-1,1-1.7,2.5-3.4,2.4c-0.9-0.7-0.6-1.4-0.2-2.1
		c0.4-0.6,0.8-1.1,1.2-1.6c5.3-5.2,11-9.7,17.6-13C442.2,357.9,442.7,357.6,443.6,358.2z"/>
	<path d="M562.8,578.9c0.7,1.8,0.3,3,0.2,4.3c-0.2,3.5-0.4,6.8,0.3,10.4c0.8,4,0,8.6-2.6,12.3c-2.8,3.9-6.7,6.9-8.9,11.3
		c-0.5-1.6,0.6-2.6,1.2-3.7c1-1.6,2.2-3.2,3.6-4.5c4.7-4.6,5.6-10.3,5.2-16.4C561.6,588.2,561.3,583.8,562.8,578.9z"/>
	<path d="M589.6,571.2c-1.2,1.7-0.9,3-1.1,4.1c-0.4,2.6-2.7,4.3-5.1,3.9c-2.6-0.5-4.2-2.8-3.7-5.5c0.5-2.6,2.7-4,5.3-3.5
		C586.3,570.4,587.4,571.3,589.6,571.2z"/>
	<path d="M314.3,414.1c0.5-1.5,1.6-1.4,2.6-1.5c1.8,0,3.7-0.3,5.4,0c3.7,0.8,6.9-0.6,10.1-2.1c2.4-1.1,4.7-2.6,7.7-1.9
		C336.8,412.4,318.8,416.2,314.3,414.1z"/>
	<path d="M582.4,591.8c0.9-0.3,1.7-0.5,2.6-0.8c0.8,2.9-3.1,2-3,4.2c0.4,0.9,1.8,0.5,2.6,2c-3.2,1.3-5.9-0.5-8.9-0.8
		c0.4-2.5-0.1-4.9,2.3-6.4C579.3,589.2,580.2,589.7,582.4,591.8z"/>
	<path d="M582,580.3c2.5,0,4.5,2,4.5,4.5c0,2.5-1.9,4.6-4.3,4.7c-2.6,0.1-4.7-2-4.6-4.7C577.6,582.2,579.5,580.3,582,580.3z"/>
	<path d="M896.1,618.4c1.1-1.6,1.1-3.6,1.7-5.4c0.9-3,1.9-5.8,5-7.2c0.8-7.7,5.9-12.5,10.9-17.3c0.2,1.4-0.9,2.1-1.7,2.9
		c-3.7,4-7.1,8.2-8.1,13.8c-0.1,0.4-0.2,1.1-0.5,1.2c-4.1,2.2-3.7,6.6-5.1,10.2c-0.3,0.8-0.4,1.7-1.1,2.5
		C896.9,618.7,896.5,618.5,896.1,618.4L896.1,618.4z"/>
	<path d="M291.4,370.6c5.5,2.6,9.1,13.2,6.8,19c-2.6-1.9-2.2-4.8-2.2-7.3c0-2.5-0.2-4.9-1.3-7.2
		C293.9,373.5,292.4,372.6,291.4,370.6z"/>
	<path d="M335.7,325.8c2.5-1.2,3.9,0.7,5.4,2c1.7,1.5,4.1-0.1,5.8,1.9c-2.2,2.5,0.6,4.6,1.1,7c-5.9,1.3-3.2-3.8-4.6-5.9
		C340.3,330.2,338.8,326.8,335.7,325.8z"/>
	<path d="M322.8,429.6c-4.1-2.4,1.3-5-0.7-7.5c-0.5-0.2-1.3,1.6-2.3,0c0.8-2.1,3.2-1.7,4.8-2.8c1.1-1.5,0-4.5,3.3-5
		c-0.3,2.1-0.3,4.1-1.6,5.9C324.7,422.3,322.9,427.2,322.8,429.6z"/>
	<path d="M354.1,355.9c-9.6,1.5-18.8,4.7-28.6,7.5c0.6-1.2,1.2-1.4,1.9-1.6c6.9-2.1,13.8-4.2,20.8-6.2
		C350.1,355,352,354.5,354.1,355.9z"/>
	<path d="M382,504.8c-3.1-7.3-4.6-14.8-2.8-22.8c-0.2,7.8,1.4,15.3,4.2,22.6C382.9,504.7,382.4,504.7,382,504.8z"/>
	<path d="M319.4,333.6c0.4-5.5,6.9-10.1,11.6-8.2c-0.2,1.6-1.6,1.9-2.7,1.9c-3.7,0.2-5.9,2.5-7.7,5.3c-0.2,0.3-0.4,0.6-0.6,0.8
		C319.8,333.6,319.6,333.6,319.4,333.6z"/>
	<path d="M384.5,447.9c-3.8-0.7-7.4,0-11,1c-3.4,0.9-6.7,2.1-10.1,3.1C368.5,447.6,380.8,445.1,384.5,447.9z"/>
	<path d="M383.6,407.8c-3.4-3-5.5-6.6-9.4-8.7C378.1,397.3,381.9,401,383.6,407.8z"/>
	<path d="M381,525.5c-3.4-2.7-6.6-10.6-7.5-17.8C376.1,513.6,378.1,519.7,381,525.5z"/>
	<path d="M297.1,419.5c-1.7-2.8,2.4-13.1,6.3-16.4C302,408.7,296.4,412.9,297.1,419.5z"/>
	<path d="M934.9,581.1c-1.1,0.2-1.6-0.3-2.2-0.6c-3.6-1.5-6.9-1.5-9.9,1.5c-1.6,1.6-3.7,2.9-6.1,4.7
		C920.8,578.8,930.4,576.1,934.9,581.1z"/>
	<path d="M433.9,380.7c-1.7,2.7-2.9,5.7-5.8,7.8C427.2,384.5,428.8,382.1,433.9,380.7z"/>
	<path d="M489.8,252.3c0.4-3.6,1.4-6.9,2.3-10.2C495,243.6,493.8,248.7,489.8,252.3z"/>
	<path d="M352.4,395.7c-0.6,0.9-12.5,3.1-13.8,2.9C343,394.9,348.1,397.3,352.4,395.7z"/>
	<path d="M454.9,314.1c0.1-2.7,1.7-4.5,3.5-6.2c0.1-2.5-0.5-5.1,1.5-7.4C460.9,306.2,458.3,310.3,454.9,314.1z"/>
	<path d="M273.5,303.7c2.1,5.7,4.1,11.5,3.1,17.8C275.8,315.5,274.9,309.6,273.5,303.7z"/>
	<path d="M323.4,333.5c1.6-4.1,3.8-5.1,8.8-4.2C329.9,332,326.2,331.7,323.4,333.5z"/>
	<path d="M472.8,310.1c-0.1,3.3,0.5,6.7-2.1,9.9C469.6,317.3,470.3,313.8,472.8,310.1z"/>
	<path d="M278.3,356.8c3.1,3.1,5.5,6.5,6.4,10.9C281.7,364.7,280.5,360.4,278.3,356.8z"/>
	<path d="M407.6,429.2c3.6-0.9,5.7,0.2,7.3,3.6C413.1,433.9,413.1,433.9,407.6,429.2z"/>
	<path d="M404.7,391c-0.1,1.7-2.1,1.5-1.5,3.3c-4-0.8-7.7-0.2-11.6-0.8C395.8,391,400.5,393.5,404.7,391z"/>
	<path d="M436.6,378.2c1.8-4,2.4-8.7,5.8-11.9C441.4,370.8,439.2,374.6,436.6,378.2z"/>
	<path d="M575.6,551.6c-4.1,3.3-3.9,9.2-7.8,12.6C570,559.8,570.6,554.4,575.6,551.6z"/>
	<path d="M261.9,251.5c1.8,3,1.8,6.3,1.9,9.6C261.8,258.2,261.4,254.9,261.9,251.5z"/>
	<path d="M294.9,414.8c-3.4-1.8-5-5.4-3.8-8.7C292.4,409.2,293.5,411.7,294.9,414.8z"/>
	<path d="M264.5,264.9c1.8,1.8,3,5.8,3.2,10.3C266,273.3,264.5,268.3,264.5,264.9z"/>
	<path d="M384.9,416.8c-4.2,1.4-8.6,1-13,1.6C376.1,416.7,380.5,416.7,384.9,416.8z"/>
	<path d="M279.6,338.1c-0.3-2.8-0.3-2.8,5.5-6.4c0.7,0.6,0.3,1.7,0,1.8C282.9,334.3,281.6,336.5,279.6,338.1z"/>
	<path d="M256.8,232.5c-2.4-0.5-5.1,0.6-7.3-1.2C252.1,230.3,254.6,230.5,256.8,232.5z"/>
	<path d="M764.5,373.7c0.8,5-0.3,9.9-0.9,14.9C763.2,383.6,765.3,378.8,764.5,373.7z"/>
	<path d="M350.5,345c-2.5,1.3-5.2,0.3-7.6,1.3C344.9,343.5,348.6,342.9,350.5,345z"/>
	<path d="M490,253.2c0.4,3.4-0.9,6.3-2.6,9.1C487.6,259.1,488.3,256,490,253.2z"/>
	<path d="M262.1,246.3c-3,1.9-5.8,0.8-8.7-0.1C256.3,246.5,259.2,246.6,262.1,246.3z"/>
	<path d="M271.7,374.9c-0.2,1.9-0.5,3.7-0.7,5.6c-0.2,1.4-0.9,2-2.2,1.7l0.1,0.1c0.3-1.5,0.5-3.1,0.9-4.6c0.3-1.1,0.2-2.6,1.7-3.1
		C271.5,374.7,271.6,374.8,271.7,374.9z"/>
	<path d="M484.5,238.3c2.4-0.5,3.5,1.8,5.8,2.1C486.9,242.1,485.3,241.5,484.5,238.3z"/>
	<path d="M293.5,394.6c0.8,2.9-0.2,5.3-1.4,7.8C291.6,399.6,292,397,293.5,394.6z"/>
	<path d="M343.5,410.7c2.6-1.9,5.1-0.2,7.7,0c0,0.3,0,0.5,0,0.8c-2.5,0.1-5.1,0.3-7.6,0.4C343.5,411.5,343.5,411.1,343.5,410.7z"/>
	<path d="M409.6,415.4c-2.6,0.8-5.3,1.2-8,0.9C404.2,414.9,406.9,414.5,409.6,415.4z"/>
	<path d="M384.2,409.7c4.3,0,5.3,0.8,6.2,4.3C388.2,412.4,386.2,411.1,384.2,409.7z"/>
	<path d="M444.9,357.5c0.1-2.9,2.8-3.4,4.2-5.3C449.1,355.4,448.2,356.5,444.9,357.5z"/>
	<path d="M360.4,491.9c-1.1-1.1-2.2-2.3-3.4-3.2c-1.1-1-2.8-1.4-3-3.7c3.3,1.4,5.4,3.6,6.8,6.6C360.7,491.6,360.5,491.7,360.4,491.9
		z"/>
	<path d="M472.8,308.3c-0.4-2.7,0.4-4.9,2.5-7.3C475.5,304.2,474.4,306.3,472.8,308.3z"/>
	<path d="M327.5,368.8c3.4,0.8,6.1,2,9,3.4C333.2,372.4,329.7,371.1,327.5,368.8z"/>
	<path d="M365.1,388.3c2.6-0.3,4.5,1.1,6.3,2.5C368.8,391.4,367,389.7,365.1,388.3z"/>
	<path d="M354.5,395.3c2.7-1.3,5.6-1.9,8.5-1C360.3,395.6,357.4,395,354.5,395.3z"/>
	<path d="M416.8,398.2c1.6,1.7,3,3.4,2.7,6C418,402.4,416.5,400.7,416.8,398.2z"/>
	<path d="M350.2,373c-2.5-2.1,0.1-5.3-2.5-6.9C350.5,367.1,350.6,367.5,350.2,373z"/>
	<path d="M343,334.9c-0.7,1.5-1.9,1.9-2.7,2.7c-1-0.1-1.4-0.8-0.9-1.4C340.1,335,341.1,334,343,334.9z"/>
	<path d="M410.6,436.2c-1.8-1.6-2.2-4.5-4.8-5.5c3.4,0,3.8,3,5.3,5C411,435.9,410.8,436,410.6,436.2z"/>
	<path d="M269.1,333.5c-2.3-1.3-2.2-3.9-3.8-5.4C267.7,329.6,268.3,330.6,269.1,333.5z"/>
	<path d="M413.9,464c-1.5-1.1-3.4-1.4-4.8-2.5C411.1,461.5,413.1,461.6,413.9,464z"/>
	<path d="M312.9,359.7c2.7-0.9,4.2,1.1,6,2.4C316.6,361.9,314.8,360.8,312.9,359.7L312.9,359.7z"/>
	<path d="M290.8,370.8c-2.4-0.6-2.9-2.2-3.8-3.4C288.8,367.6,289.7,368.9,290.8,370.8z"/>
	<path d="M343.5,375.9c-1.4-1-3.1-1.5-4.4-2.6C341.1,373.4,342.9,373.5,343.5,375.9z"/>
	<path d="M357.9,450.6c1.2-1.4,2.6-2.6,4.7-3c-1.3,1.2-2.7,2.5-4,3.7C358.3,451,358.1,450.8,357.9,450.6z"/>
	<path d="M426.6,395.5c-1.4-1.7-0.8-3.1-0.8-4.5C427.3,392.1,427.8,393.4,426.6,395.5z"/>
	<path d="M754.8,359.7c-0.6,2.1-1.6,4-3.6,5.1C752.2,363,752.8,360.9,754.8,359.7L754.8,359.7z"/>
	<path d="M465.8,471c-1.4,0.9-2.7,1.8-4.3,2.8C462.8,471.4,462.8,471.4,465.8,471z"/>
	<path d="M352.7,363c0.5,1.5,0.1,2.8-1.5,4.6C351,365.3,351.8,364.1,352.7,363z"/>
	<path d="M271.3,374.6c0-1.3,0.6-2.4,1.8-3.6c0.6,2,0.3,3.3-1.5,3.9C271.6,374.8,271.5,374.7,271.3,374.6z"/>
	<path d="M484.7,225.6c0.5,1.5,0.3,2.7,0.1,3.9C483.2,228.1,483.2,228.1,484.7,225.6z"/>
	<path d="M499.1,241.2c-1.3,1.4-2.4,1.3-3.7,0.9C496.6,240.7,496.6,240.7,499.1,241.2z"/>
	<path d="M565.4,570.8c-0.1,1.2-0.3,2.5-0.4,3.7C563.8,573.1,564.5,571.9,565.4,570.8z"/>
	<path d="M416.1,453.1c-0.7-1-1.2-2-0.8-3.3C416.8,450.8,416.6,451.9,416.1,453.1z"/>
	<path d="M402.9,447.1c-1.9,0-2.9-0.7-4.3-1.5C400.3,445.3,401.5,445.8,402.9,447.1z"/>
	<path d="M321.3,438.8c1,0.7,1.8,1.5,1.8,2.9C321.5,441,321.5,441,321.3,438.8z"/>
	<path d="M452.4,349.1c-0.4,1.7-0.8,2.6-2.4,2.6C449.7,350.1,450.8,349.8,452.4,349.1z"/>
	<path d="M455,343c-0.9-1.5-0.8-2.5,0.5-3.5C456,340.7,456,341.6,455,343z"/>
	<path d="M365.2,421.6c0.2-1.8,1.4-2,2.8-2C367,420.3,366.1,421,365.2,421.6z"/>
	<path d="M394.7,415.9c-1.1,0.5-2.1,1.4-3.5,0.4C392.3,414.9,393.6,415.4,394.7,415.9z"/>
	<path d="M272.3,298.2c1.4,1.2,1.2,2.3,1.2,3.9C272.5,300.8,272.3,299.8,272.3,298.2z"/>
	<path d="M320.2,367.8c-1-0.3-2.1-0.6-3.1-1.5c1.7-0.5,2.5,0.3,3.4,1.1C320.6,367.5,320.5,367.7,320.2,367.8z"/>
	<path d="M382.3,392.5c0.9,0.2,1.8,0.3,2.7,0.5C383.9,393.9,383,393.7,382.3,392.5z"/>
	<path d="M452.6,348.3c-0.2-1.5,0.3-2.2,1.7-2.7C454.4,347,454,347.7,452.6,348.3z"/>
	<path d="M456.2,338.1c-0.8-1.3-0.3-1.9,0.6-2.6C457.4,336.6,457.2,337.3,456.2,338.1z"/>
	<path d="M260.3,236.8c1.2,0.9,1.2,1.6,0.6,2.6C259.6,238.7,259.9,237.8,260.3,236.8z"/>
	<path d="M411.4,384.6c1.1,1.5,0.4,2-0.7,2.7C410.4,386.2,410.7,385.5,411.4,384.6z"/>
	<path d="M456.3,473.9c0.4-0.8,1.1-1.3,2.3-1.8c-0.4,1.3-1.2,1.7-2,2.1C456.5,474.1,456.4,474,456.3,473.9z"/>
	<path d="M486.5,266.8c0.7,0.9-0.2,1.3-0.4,1.8C485.6,268,485.5,267.4,486.5,266.8z"/>
	<path d="M412.1,389.8c0.4-1.3,0.9-1.9,1.8-2.3C414,388.9,413.3,389.3,412.1,389.8z"/>
	<path d="M275.9,353.7c1.1,0.3,1.2,0.9,1.1,1.8C275.9,355.3,275.5,354.9,275.9,353.7z"/>
	<path d="M325.5,445.5c1.5,0.2,1.2,0.9,1,1.7C325.5,446.8,325.6,446.3,325.5,445.5z"/>
	<path d="M447.4,463.6c0.1-0.8,0.4-1.4,1.3-1.8c0.3,1-0.4,1.5-1,2.1C447.6,463.8,447.5,463.7,447.4,463.6z"/>
	<path d="M269.8,281c0.8,0.3,1,0.7,0.9,1.3C269.8,282.4,269.4,282.1,269.8,281z"/>
	<path fill="#FFFFFF" d="M853.4,437.3c-3.1-2.5-4.5-5.4-4.5-9.8c0-8,1.5-16.4-3.1-23.8c0.4-4.2-1.6-7.9-2.5-11.9
		c-0.6-2.8-2.9-4.9-2.8-8.1c4.1-3.8,7.9-8.1,12.5-11.7c4.4-3.5,8.7-7.2,11.3-12.5c-7.2,8.3-16.8,14-24,23.3c0-2,0-3,0-3.8
		c5.8-3.5,8.2-9.5,11.2-15.1c-4.9,2.6-8,7.2-11.4,12c-1-6-3-11-6.8-15.1c-1.4-1.4-0.6-3.8-1.9-5.6c-1.5,0.4-2.6-0.7-3.9-1.5
		c-4.6-2.8-9.5-4.9-15.2-4.9c5.8,2.9,12.5,4.3,17.7,9c0,2.5,1.4,4.7,3.1,6.9c2.6,3.4,3.8,7.5,4,11.7c0.2,4.5,1.3,8.7,4,12.4
		c-1.1,3.3,0.9,6.2,1.1,9.4c-3.9,0.6-7.8-0.8-11.8-0.4c-2.2,0.2-4.2,0.7-5.9,2.2c-2,1.8-4.6,2.4-7.1,3c-6.3,1.5-12.1,4.4-18,6.9
		c-2.3,1-3.8,2.8-4.6,5.2c-0.6,1.8-1.2,3.6-2.1,6.1c-2.5-3.6-5.3-6.3-7.5-9.4c-3.3-4.5-6-9.6-8.9-14.4c-1.7-2.9-2.5-6-2.9-9.3
		c-0.7-6.4-3.2-12-7.4-16.8c-5.5-6.4-10.9-12.8-14.3-20.5c-2.2-5-3.3-10.5-4.9-15.8c-1.2-3.9-0.9-8.1-2.3-12
		c1.5-3.2,2.8-6.4,3.9-9.9c8-1.9,16.1-0.6,24.2-0.5c-6.7-2.6-13.8-2.7-20.9-2.4c0-0.4-0.1-1-0.1-1c1.9-0.2,3.5-1.7,5.3-1.9
		c3.6-0.3,6.8-1.2,10.1-3c3.7-2,7.9-4.3,12.3-4.1c3.4,0.2,6.7-0.5,10-0.4c0.6,0.3,1.2,0.4,1.8,0.7c-0.6-0.2-1.2-0.4-1.8-0.6
		c0.3-1.3,1.3-1.6,2.3-1.3c2.8,0.9,5.5,0.3,8-0.4c3.8-1,6.4,0.9,8.8,4.2c0.6,0.8,0.5,2.1,2.1,2.1c0.7-2.6-1.9-4.1-2.2-6.4
		c0.7-0.7,1.7-0.4,2.5-0.7c4.9-1.9,9.3-1.2,14.3,0.8c4.7,1.9,9.9,3.5,15.2,3.5c1.4,0,2.7-0.1,4-0.4c0.9-0.2,1.9-0.5,2.7,0
		c3,2.2,6.5,2.4,9.9,3.2c1.4,0.3,3,0.6,3.7,2.4c-2.4-0.5-4.6-1.3-6.9-1.5c-2-0.2-4.4-1.6-6.1,1.5c4.9,0.8,9.5,1.6,14.2,2.5
		c3,4,2.2,10,7.2,13.2c-3.2,5.4-0.8,9.6,2.3,13.8c3.7,5,7,10.3,10.9,15.2c2.4,3,2.7,6.9,4.1,10.3c2.9,7.1,4.9,14.5,8.2,21.7
		c-11.8-4.9-23.5-6.1-34.5,1c-5.6,3.6-11,8-13.5,15c1.9,0.3,2.3-0.9,2.8-1.6c3.6-4.7,8.1-8.2,12.8-11.6c2.6-1.9,5.7-2.7,8.9-2.9
		c4.5-0.2,9-0.5,13.6-0.6c5.7-0.2,10.6,3.9,11.4,9.4c1.2,8.2,1.8,16.3,0.2,24.6c-1.3,6.5,0.5,12.8,3.2,18.8c2.3,5.1,3.4,10.6,4.1,16
		c0.5,3.9,1.3,7.7,3.6,10.8c4.5,6.3,6.1,13.6,7.8,20.8c1.6,6.8,3,13.7,5.3,20.3c2.2,6.4,2.8,13,4.1,19.6c2,10.3,4.3,20.6,5.4,31.1
		c0.5,4.8,0.7,9.6,2.7,14.8c-3.9-1-7.3-1.5-10.7,0c-3.2,1.4-6.8,1.8-8.1,6.1c-4-7.6-8.6-14.3-10.1-22.6c-1.3-7.5-5.7-13.9-10.7-19.4
		c-6.2-6.8-9.6-14.6-11.4-23.4c-1.7-8.2-2.3-16.6-3.9-24.8c-1.1-5.5-2.5-11.1-5.3-16.2c-2.5-4.6-5.3-8.8-8.7-12.8
		c-3.8-4.5-6.2-9.9-8.1-15.4C855,439.4,854.3,438.2,853.4,437.3c0.2-0.3,0.5-0.6,0.4-0.9c-1.5-3.6-2.2-7.5-1.9-9.9
		c0,2.4,0.3,6.2,2,9.9C854,436.7,853.7,437,853.4,437.3z"/>
	<path fill="#FFFFFF" d="M736.5,301.3c-0.8,0.9-1.9,0.6-2.9,0.4c-6-1.1-12.2-1-18.3-1.2c-3.9-0.1-7.6-0.9-11.8-2.6
		c5.3-5.2,6.6-11.3,4-18.2c3.2-0.4,5.1,1.4,7.9,2.3c-1.9-2.9-4.4-4-7.1-5c-0.7-5.2-1.1-10.5-0.9-15.8c0.1-2.8,1.9-5.2,2.3-8.1
		c0.8-5.7-0.7-10.7-3.6-15.6c4.8-2.8,9.7-5.4,16-5.4c-1.5-2.3-3.1-1.5-4.3-1.4c-4,0.1-7.6,1.7-10.8,3.7c-5.1,3-10.6,3-16.1,3.1
		c-9.4,0.1-20,5.7-25.1,13.8c-1.3,2-2.9,3.8-4,5.9c-3,5.6-3.1,11.5-2.2,17.6c-2.5,2.3-4.3,5.2-6.3,8.6c-1.3-3.8-1.7-7-1.6-10.2
		c0.1-4.1,0.1-8.1,0.1-12.2c0-5.3,0.8-10.3,3.7-14.9c0.8-1.3,1.8-2.2,3.3-2.7c1.5-0.5,2.8-1.5,4.2-2.2c3.8-1.8,6.5-4.4,6.6-9
		c0-0.6,0.4-1.3,0.7-2.1c22.8,0,45.6,0,68.4,0c-4.3,0-8.4,1.4-12.7,1.3c0,1.3,0.8,1.3,1.6,1.4c7,0.6,14,0.8,20.9,2
		c2,0.3,4.2,0.1,6-0.8c6-2.9,11-0.4,15.8,2.7c3.2,2,3.1,2.2,7,1.5c-3.2-0.8-5.3-3.2-8-4.8c0.8-1.4,2.3-1.2,3.2-1.8
		c0.6-1.1-1-0.8-0.9-1.6c23.9,0,47.7,0,71.6,0c0.8,1.4-0.4,2.7-0.3,3.9c0.5,1.2,1.6,1.7,2.6,2.2c1.2,0.7,2.1,1.7,2.1,2.9
		c-0.1,3.3,1.6,6.3,1.5,9.7c-0.1,2.2,0.3,4.4-0.1,6.7c-0.5,2.5-0.7,5.3-0.3,7.8c0.9,5.8-1.3,11.1-2.3,16.6c-0.1,0.8-0.2,1.9-1.5,2.4
		c-1.2-2-1.5-4.5-3.2-6.4c-4.1-4.5-9-7.9-13.9-11.4c-3.1-2.2-5.3-5.2-8-7.8c-2.2-2.1-3.9-4.7-6.6-6.3c-1.1-0.7-1.5-1.6-2-2.6
		c-2.4-4.7-5.5-8.8-9.4-12.3c-3.3-3-7.3-4.1-11.7-4.2c-0.1,2,1.2,2,2.1,2.1c2.2,0.3,4.2,0.9,6.2,1.8c2.7,1.3,4.9,3.1,6.2,6
		c1.1,2.5,2.7,4.7,3.9,7.1c1.1,2.2,3.4,3.1,4.9,5c3.3,4.3,7.1,8.2,9.6,13.1c1.7,3.4,5.2,5.3,7.6,8.2c3.9,4.8,6.5,10.3,8.7,16
		c0.8,2.1,1.6,4.2,2.6,6.6c-5.2-1.2-10.2-2.8-15.2-3.7c-4-0.7-8.1-1.3-12.2-1.1c-6.4,0.2-12.9-0.6-19.3,0.1
		c-8.3,1-16.6,2.2-24.9,3.2c-5.4,0.6-10.7,1.5-15.7,4.1c-2.3,1.2-4.6,2.5-6.6,4.2c-2,1.7-4,2.1-6.4,0.2
		C740.1,302.9,738.2,302.2,736.5,301.3c-0.4-0.3,0,0.3-0.2-0.1C736.3,301.1,736.3,301.1,736.5,301.3z"/>
	<path fill="#FFFFFF" d="M885.7,572.7c-1.3,0.9-2.4,1.7-3.9,2c-2.8,0.6-4.4,2.8-5.1,5.4c-0.6,2.1-0.9,4.2-1.3,6.3
		c-0.2,1-0.1,2.3-1.3,2.9c-3.3-9.5-11.4-15.6-16.5-23.9c-0.9-1.4-2.2-2.6-3-4.1c-3.2-6.8-8.6-11.8-13.9-17c-1.9-1.8-3.7-3.7-5.5-5.6
		c-1.8-1.9-3.4-3.9-4-6.6c-0.2-1-0.8-1.9-1.4-2.7c-3.7-4-5.2-9.1-7.5-13.8c-0.9-1.8-1.7-3.7-2.7-5.5c-4.7-8.5-5.7-17.8-6.1-27.2
		c-0.2-4.5,0.4-9.1-0.5-13.5c-0.2-1.1,0.7-1.6,1-2.2c-4.3-8.1-8.7-15.8-11-24.6c-1.4-5.3-5.1-9.2-7.4-14c-0.3-0.6-0.9-1-2.1-0.9
		c2.7-3.8,3.4-7.8,4.5-11.7c0.6-2.3,2-4.2,4.2-5c4.6-1.8,8.9-4.3,13.9-5c4.2-0.6,8-2,11.3-5.1c2.2-2,8.3-1.6,11.5,0.5
		c0.8-0.1,0.1-0.7,0.5-1.3c1,0.1,2.1,0.2,3.4,0.4c0.6,5.5,2.9,10.4,3.5,15.7c0.6,5.2,0.7,10.3,0,15.5c-0.6,4.5-0.9,8.9,0.8,13.4
		c2.1,5.5,1,11.4,1.3,17.2c0.3,7.1,0.6,14.2,3.3,21c0.3,0.8,0.8,1.7,1.4,2.3c5.4,4.5,6.8,11.3,9.8,17.2c2.7,5.3,4.2,11.1,4,17
		c-0.2,8.1,2.9,15.3,6,22.4c1.7,3.8,4.3,7.2,5.4,11.2C880,560.1,884.4,565.6,885.7,572.7z"/>
	<path fill="#FFFFFF" d="M656.2,323c2.4-2.9,2.7-6.4,2.7-9.8c0.1-7.7-1.6-15.1-4.4-22.2c-1.7-4.4-1.1-7.5,2.9-10.1
		c1.5-1,2.6-2.5,3.1-3.4c0.6-7.9,1.1-15,5.1-21.4c4.1-6.4,9.5-11.2,16.3-14.3c2.3-1,4.7-1.7,7.2-1.8c4.7-0.2,9.4-1.2,14.5-1.8
		c2.7,3.4,4.1,7.3,3.8,11.9c-0.3,4.7-3.2,8.7-3.3,12.7c-8.8,4.8-18.9,2.1-27.4,6.8c1.2,0.4,23.3-0.1,25-0.6c1.5-0.6,0-2.3,1.3-2.9
		c1.1,0,1,0.7,1,1.4c0.3,6.5,0.3,13.1,1.2,19.6c0.6,4.4-2.8,6.8-4.9,10c-4.1-1-7.5-2.6-10.1-5.6c-0.7-1.5,0.7-3.2-0.8-5
		c-0.8,2.4-1.6,4.5-2.1,6.7c-2.2,9.7-7.3,17.7-14.2,24.6c-3.4,3.3-7.2,6.3-10.9,9.2c-2.5,1.9-4.4,4.3-6.2,6.7
		c-3.1,4.1-7.1,5.9-12.2,6c-4.3,0.2-10.5-0.3-14.9-2c-1-3.2-1.7-6.7-1.6-10.2c0.1-4.8,0.1-9.6-1.1-14.1c-2.9-10.6,0.4-20.7,1.8-31
		c0.4-3.4,1.4-6.6,2.2-9.9c0.4-1.6,0.5-3.1-1.3-3.9c1.9-5.3,3-10.4,3.1-15.8c0.1-3.7,2.4-6.6,4.5-10.1c-2-3.6-3.8-7.7-3.4-12.6
		c4.9,0,9.8,0,14.9,0c0.7,1.1-1.4,1.3-0.8,2.9c3.1-2.4,6.4-4.2,10.8-2.6c2.8,2.9,4.5,3.3,7.6,1.2c-1.7-0.7-3.8,0.1-5-1.5
		c-1.1-1.4-0.6-3.3-1.1-4.8c0.6-1.3,1.6-1.7,2.8-1.3c1.7,0.5,3.7,0,5.1,1.5c0.6,0.7,0.9,1.6,0.6,2.5c-0.8,2.8-1.2,5.6-1.6,8.6
		c-2.4,1.3-4.9,2.7-7.4,4c-6.7,3.4-9.3,9.5-10.1,16.3c-1.7,13.6,0.6,26.8,4.5,39.8c0.7,2.5,1.5,5,2.2,7.5c1.2,4.6,2.6,9.1,0.9,13.9
		C655.9,319.6,655.8,321.4,656.2,323c-0.9,1-0.1,2.2-0.4,3.2C656.1,325.2,655.4,324,656.2,323z"/>
	<path fill="#FFFFFF" d="M940.5,577c3.9-2.8,7.7-5.5,11.5-8.2c4.3-3.2,9.2-4.6,14.5-5c1.5-0.1,2.6,0.3,3.7,1.2
		c6,4.9,9.2,11.3,10.3,18.9c0.4,2.6,0.5,5.2,0.7,7.8c0.5,7.7-2.5,13.7-8.9,18.1c-2.8,1.9-5.7,3.6-8.7,5.3c-4.9,2.8-9,6.5-11.5,11.7
		c-3.6,7.5-9.4,11.1-17.8,11.2c-4.5,0.1-9,0.2-13.5-0.3c-3.2-0.3-5.7-3.7-5-6.9c0.5-2.3,2-4,3.7-5.5c5.1-4.6,10.3-9.2,14.6-14.6
		c1.6-2.1,3-4.3,3.8-6.8c2.6-7.8,4-15.8,3.3-24C941.1,578.9,940.8,578.1,940.5,577z"/>
	<path fill="#FFFFFF" d="M911,576.9c-1.2,1-2.5,2.1-4.1,3.5c-1.9-0.9-4.4-2-6.8-3.1c-2.3-5.7-6.1-7.5-12.2-5.9
		c-0.1-3.7-2.2-6.6-3.7-9.7c-1.8-3.9-4.5-7.4-5.7-11.4c-1.8-6.1-4.9-11.6-6.7-17.7c-1.2-3.8-1.2-7.8-1.4-11.8
		c-0.4-9.4-4-17.8-7.8-26.2c-2.4-5.3-5.2-10.3-9-14.7c-1.5-1.8-2-3.9-2.3-6.2c-1-6,0.3-11.9-0.2-17.9c-0.4-4.6-0.5-9.2-3.1-13.8
		c2.1,0.6,3.7,1.1,5.4,0.8c3.2,6.1,5.3,12.8,9.9,17.8c3,3.3,5.2,7.1,7.5,10.8c2.1,3.4,2.2,7.6,3.1,11.4c2,8.3,1.3,16.9,3.3,25.2
		c2.1,8.9,5.7,17.2,11.3,24.4c4.1,5.3,7.9,10.7,10.8,16.8c1.2,2.6,2.2,5.3,2.8,8C903.5,564.3,907.9,570.2,911,576.9z"/>
	<path fill="#FFFFFF" d="M752.1,205.4c1.5,3,1.3,6.2,0.8,9.2c-1.2,0.6-2.2,0.4-3.2,0.3c-1.4-1.8,0.2-4.9-3-6c0.8,2,1.6,3.8,0.4,5.9
		c-6.9,0.7-13.9,0.7-20.9-3.1c0.8,2.3,2.4,2.3,3.3,3.3c-5.7-0.7-11.7,1.9-17.2-1.7c-0.1-2.1-0.5-4-1.9-5.6c1-1.9,2.3-3.8,0.1-5.6
		c-1.5,0.6-0.6,2.2-1.4,2.9c-5.5-1-6.5-1.9-6.1-5.6c1.4,0.9,0.6,3.5,2.4,3.4c1.5,0.2,2.2-1,3.2-0.6c1.1-1.3-0.4-2.8,1.2-3.8
		c-1.8-0.7-3.3-1.3-5-2.1c4.3-2.9,5.6,3.5,9.1,2.5c0.7-0.7,0.6-1.5-0.1-2c-1.8-1.2-2.1-3.1-2.1-4.8c0.2-2.8-0.6-5.7-0.1-8.4
		c0.8-4,0.5-7.9,0.3-11.8c-0.2-3,1.1-4.2,4.3-4.2c2-4,5.3-6.4,10-6.7c2.1-0.1,3.9-0.1,5.8,0.9c2.3,1.2,4.8,1.9,7.3,2.8
		c1.6,0.6,2.8,1.4,3.1,3.2c-1.1,0.5-2.3-0.4-3.7,1.2c3,0.5,5.5,1.4,7.7,3.2c0.3,4.2,3.8,7.5,3.6,12.1c-4.8-2.1-9.2-0.1-13.4,2.7
		c-0.2,0.9,0.2,1.3,1.1,1.6c2.4-3,5.6-4,9.5-3.5c1.7,0.2,3.3,0.9,3.9,2.3c1.3,2.7,3.2,5.2,2.9,8.5c-0.1,0.9,0,1.8,0.2,2.7
		c0.6,2.2,0.4,4-1.6,5.4C752,204.4,752.1,204.9,752.1,205.4c-0.9,1-1.2,2.2-1.5,3.4C750.9,207.6,751.4,206.4,752.1,205.4z"/>
	<path fill="#FFFFFF" d="M844.6,290.5c3.6-5.9,4.2-12.6,6.3-18.8c0.9-2.9-0.1-5.8-0.1-8.8c0-1.5-0.6-3.2,1.3-3.9
		c-1-5-0.2-9.9-0.4-14.7c-0.2-5-2.3-8.2-6.3-10.8c0.4-2.2,0.9-4.4,1.9-6.6c2.9,0.2,5.1-3.5,8.1-1.7c1.4,0.9,4.2,0.6,3.9,3.7
		c-2.1,1.7-4.8,1.9-7.3,2.6c0,1,0.4,1.6,1.4,2.3c2.5-1.2,5.8-0.7,8-3.2c0.5-0.6,1.2-0.6,1.8-0.6c3.4,0,6.8,0,10.4,0
		c-1.4,6-4.7,10.5-8.1,15c2,2.3,1.9,3.2-0.5,4.4c-0.7,2.8-0.3,5.6,0,8.4c0.1,1,0.2,2.4,1.7,2.5c0.5,0.1,0.6,0.5,0.8,1
		c2.1,7,6,13.5,6.4,21c0.7,12.3,1.1,24.5-4.4,35.9c-0.1,0.3-0.3,0.6-0.7,1.2c-1.6-1.1-2.5-2.5-2.6-4.4c-0.3-3.5-2-6.4-3.7-9.4
		c-1.4-2.5-4-3-6.4-3.4c-2.7-0.5-5.3-1-7.7-2.4c-1-0.6-2.1-0.7-3.3-0.5c-1,0.1-1.8,0-1.7-1.4c1-0.9,1.4,0.9,2.5,0.4
		c0.9-2.1,0.3-4-1.1-5.7c-1.5,0-1,1.2-1.6,1.9c-3.1-5.2-4.1-11.4-7.5-16.5c-3.4-5.1-8.8-8.3-12.3-13.3c1-0.6,1.5-0.1,1.8,0.3
		c3.7,5,9,8.3,13.1,12.8c2.9,3.2,5.7,6.4,5.3,11.1c0,0.4,0.2,0.9,0.3,1.3C844.1,290.2,844.3,290.3,844.6,290.5z"/>
	<path fill="#FFFFFF" d="M856.1,222.4c-3.6,1.5-7.7,1.4-11.2,3.4c-0.7,0.4-1.8,0.2-2.7,0.2c-56.3,0-112.7,0-169,0
		c-0.9,0-1.8-0.1-2.9-0.1c-0.6-2-2.2-3-4.1-3.5c-0.8-0.2-1.2-0.6-1.1-1.4l-0.1,0.1c0.8-0.6,1.7-1.1,2.5-1.7
		c-0.1-0.2-0.2-0.4-0.4-0.6c62.6,0,125.2,0,187.9,0C856.2,219.8,856.1,221.1,856.1,222.4L856.1,222.4z"/>
	<path fill="#FFFFFF" d="M775.9,408.7c0.7,0,1.3-0.1,1.3-1.1c-0.1-1.7-0.2-3.4-0.4-5.4c1.9,1.4,2.7,3.4,3.7,5.2
		c3.1,5.9,8.5,10,11.6,16.3c-0.4,2.3,0.2,5.2-0.9,8.1c-3.5-2.6-6.4-5.8-8.2-9.7C780.9,417.5,778.4,413.1,775.9,408.7L775.9,408.7z"
		/>
	<path fill="#FFFFFF" d="M641.2,210.3c1.4,0.4,1.7-1.2,2.7-1.6c2.1,1.1,3.7,3,6,3.7c1.2,0.3,1.3,1.6,1.7,2.7c1,3.5,0.9,7.1,0.3,10.8
		c-1.2-0.7-1.1-3.2-3.4-2.3C647.5,218.3,643.8,214.6,641.2,210.3L641.2,210.3z"/>
	<path fill="#FFFFFF" d="M862.9,225.3c-0.2,0.6-1.1,1-1.3,0.7c-1.4-2-4.3-1.4-5.6-3.5l0,0.1c2.5,0.2,2-1.7,1.9-3
		c-0.3-2.3-1.3-4.5-2.7-6.6c-1.1,0.3-2.1,0.5-3.1,0.8l0.1,0.1c1.7-3.1,2.7-3.6,8.2-3.6c1.1,4.8,4,9.4,0.7,14.2
		C861.6,225.5,862.4,225,862.9,225.3L862.9,225.3z"/>
	<path fill="#FFFFFF" d="M655.2,223.6c-1.2-5.1-1.6-10.3-4.4-14.7c1.3-1.1,2.6-0.6,3.8-1c1,0.9,1.9,1.7,2.6,2.4
		c1.1,3.9,0.9,8,2.2,11.6c-0.5,0.9-1,1.8-1.6,2.9C657,224.5,656,224,655.2,223.6z"/>
	<path fill="#FFFFFF" d="M863,225.3c0-1.2,0.7-2.1,1.1-3.2c0.7-2.1,1-4.1-0.3-6.1c-1-1.6-0.9-3.5-1.3-5.3c1-0.8,2.2-1,3.3-1.1
		c2.2,1.8,4,7.9,3.2,10.3c-0.1,0.3-0.3,0.6-0.4,0.9C867.1,225.1,867.1,225.1,863,225.3L863,225.3z"/>
	<path fill="#FFFFFF" d="M665.1,221.1c-1.4-0.4-2.7,1.3-4.5,0.2c-0.4-3-0.3-6.3-1.4-9.3c-0.3-0.8-0.1-1.8,0.2-2.7
		c0.3-0.8,0.7-1.4,1.6-1.5c1.1-0.1,1.7,0.5,1.9,1.5c0.5,2,1,3.9,1.4,5.9C664.7,217.2,664.8,219.2,665.1,221.1L665.1,221.1z"/>
	<path fill="#FFFFFF" d="M642.3,218.7c-3-2.3-6.9-3.5-8.7-7c0.9-1.5,2.1-2.1,3.4-2.6C641.1,210.9,641.1,215.1,642.3,218.7z"/>
	<path fill="#FFFFFF" d="M873.2,604.2c-0.4-2.8-0.9-5.3-1.9-7.8c2.5-1.6,3.4-4.7,6.3-6c-0.5,2.5-1.7,4.7-2.1,7.2
		C875.1,599.7,876.7,602.8,873.2,604.2z"/>
	<path fill="#FFFFFF" d="M870,210.9c1.7-0.8,2.8-0.5,3.1,1c0.5,2.2,1.1,4.4,1.3,6.6c0.3,2.4-1.2,4.2-4.6,5.5
		C872.6,219.4,870.6,215.1,870,210.9z"/>
	<path fill="#FFFFFF" d="M875.5,211.2c2.4-0.3,3.5,0.7,3.5,2.9c0,1.9,0.2,3.8,0.3,5.9c-0.4,1-1.3,1.2-2.6,1
		C876.7,217.8,875.4,214.8,875.5,211.2z"/>
	<path fill="#FFFFFF" d="M782.1,296.7c3.5-0.6,7-1.3,10.6-2C791.9,296,787.6,296.9,782.1,296.7z"/>
	<path fill="#FFFFFF" d="M739.9,231.7c8.2-0.9,8.2-0.9,11.4,0.7C747.2,233.2,743.6,231.5,739.9,231.7z"/>
	<path fill="#FFFFFF" d="M748.4,310.4c-1.3-2.1-1.4-4.1,1.2-6C749.3,306.8,748.3,308.5,748.4,310.4z"/>
	<path fill="#FFFFFF" d="M851.3,439.2c-1.3-0.2-1.9-0.3-2.7-0.5c-0.2-0.9-0.4-1.8-0.7-3.5C849.2,436.7,850,437.7,851.3,439.2z"/>
	<path fill="#FFFFFF" d="M752.1,230c2,0,4,0,5.9,0c0,0.1,0,0.2,0,0.3c-2,0-3.9,0-5.9,0C752.1,230.2,752.1,230.1,752.1,230z"/>
	<path fill="#FFFFFF" d="M757,302.5c0.7-0.9,1.4-1.2,2.2-1.4c0.1,0.2,0.4,0.3,0.4,0.4C759.5,303.5,758.6,303.7,757,302.5z"/>
	<path fill="#FFFFFF" d="M805.7,294.8c-1.5,1.1-2.9,0.2-4.3,0.4c0-0.2,0-0.4,0-0.7C802.9,294.6,804.3,294.7,805.7,294.8z"/>
	<path fill="#FFFFFF" d="M807.1,295.6c1.6-1,2.7-0.9,4.1-0.6C809.9,296,808.8,295.8,807.1,295.6z"/>
	<path fill="#FFFFFF" d="M837.6,299.3c1.4-1,2.2-0.3,3.2,0.2C839.8,300.2,838.9,299.9,837.6,299.3z"/>
	<path fill="#FFFFFF" d="M717.4,151.8c2.3,1.3-0.2,2-0.2,3.2C716.4,153.7,717.8,152.8,717.4,151.8L717.4,151.8z"/>
	<path fill="#FFFFFF" d="M771.1,298.8c-0.7,0.9-1.3,1.6-2.6,0.3C769.4,298.5,770.1,298.4,771.1,298.8z"/>
	<path fill="#FFFFFF" d="M700.1,184.7c-0.3-0.9,0.1-1.4,0.9-1.7c0.7,0.4,0.5,0.9,0.2,1.3C701,184.6,700.6,184.9,700.1,184.7z"/>
	<path fill="#FFFFFF" d="M897.5,581.9c0.7-0.5,1.3-1,2.2-1.7c-0.1,1.5-1.2,1.5-2,1.9L897.5,581.9z"/>
	<path fill="#FFFFFF" d="M766.1,232.1c0.3-0.6,0.8-0.7,1.4-0.5c0.3,0.5,0.4,1-0.4,1.1C766.7,232.8,766.3,232.6,766.1,232.1z"/>
	<path fill="#FFFFFF" d="M765.1,301.7c-1.2,1-1.6,0.8-1.9,0.1C763.8,300.8,764.2,301.6,765.1,301.7z"/>
	<path fill="#FFFFFF" d="M720.6,160.2c-0.2,0.7-0.6,1.1-1.7,1.1C719.4,160.5,719.5,159.7,720.6,160.2z"/>
	<path fill="#FFFFFF" d="M705,185c0.8,0.2,1.1,0.6,0.5,1.4C704.4,186.2,704.5,185.6,705,185z"/>
	<path fill="#FFFFFF" d="M852.1,213.7c-0.2,0.7-0.3,1.6-1.5,1C850.8,213.8,851.3,213.5,852.1,213.7L852.1,213.7z"/>
	<path fill="#FFFFFF" d="M715.1,163.2c0.3,0.6,0.3,1-0.4,1.3C714.4,163.9,714.7,163.5,715.1,163.2z"/>
	<path fill="#FFFFFF" d="M705.2,198.6c-0.6,0.4-0.8,0-1.1-0.4C704.7,197.8,705,197.9,705.2,198.6z"/>
	<path fill="#FFFFFF" d="M709,183.5c0.4,0.4,0.3,0.8,0.2,1.3C708.4,184.4,708.4,184,709,183.5z"/>
	<path fill="#FFFFFF" d="M728.1,156.8c0.5,0,0.8,0.3,0.7,0.8c0,0.1-0.4,0.3-0.6,0.2C727.6,157.5,727.7,157.1,728.1,156.8z"/>
	<path fill="#FFFFFF" d="M836.3,298.9c0,0.4-0.2,0.6-0.6,0.6c-0.3-0.1-0.6-0.3-0.5-0.7c0-0.2,0.3-0.4,0.4-0.4
		C836.2,298.2,836.2,298.5,836.3,298.9z"/>
	<path fill="#FFFFFF" d="M753.1,305.2c-0.3-0.8-0.5-1.3,0.2-1.7C754.4,304.1,753.6,304.5,753.1,305.2z"/>
	<path fill="#FFFFFF" d="M388.6,528.9c-1.1-2.2-2.2-4.5-0.6-7.2c3,1.4,6.2,1.8,10,1.4c-3-2.6-6.2-3.8-9.4-5.6
		c1.2-6.5,1.6-13.1,4.9-19.1c6.6,3.2,11.6,9.1,18.8,11.3c-2.9-2.1-5-5.2-9-6.2c-1.9-3.1-4-6.5-8.1-7.8c1.4-3.8,3.5-6.3,7.2-7.8
		c5.6-2.3,11-5.2,16.7-7.4c4.2-1.6,8.6-1.2,12.7,1.1c3.3,1.9,6,4.4,8.2,7.4c1.8,2.4,4,4.6,6.2,6.8c4,3.9,6,8.7,6.8,14.1
		c0.7,4.7,3.4,8.6,4.3,13.2c1.1,5,2.3,10.1,3.9,14.9c1,2.9,3.2,4.9,5.3,7c4.2,4.1,8.1,8.5,12.2,12.8c-2.2-1.3-4.4-2.7-6.7-4
		c1.9,2.8,4.6,4.6,7.4,6c1.6,0.8,2.8,1.7,3.9,3c3,3.1,6.1,6.1,9.2,9.1c0.7,0.7,1.5,1.4,2.9,1.4c-7.8-9.7-15.2-19.6-24.1-28.5
		c4.5-2.1,9.7-2.9,13.1-7.6c3.2,3.3,5.5,6.8,7.2,10.8c3.5,8.5,9.3,15.2,16.5,20.7c1.9,1.5,4.3,2.2,6.1,4.2c-0.9,2.2-2.3,3.5-4.9,3.2
		c-2.4-0.3-4.3,1.2-6.4,2.2c-2.7-0.6-4.8-2.6-8-4.2c1.5,2.9,3.8,3.7,5.7,5.1c0.3,0.9-0.8,1.5-0.6,2.7c3,3.9,4.5,8.4,2.3,13.5
		c-0.8,0.4-1.1-0.8-2-0.5c-1.3,3.7-0.9,7.9-2,12c-4.2-4.1-9.7-5.8-14.7-8.5c1.5-0.7,2.7,1.1,4.3,0c-3.7-2.3-7.4-4.2-11.2-5.6
		c-10.4-3.7-19.9-9.1-29.7-14c-2.5-1.3-5.3-2.5-6.8-4.9c-5.6-8.5-11.7-16.7-13.9-26.9c-0.3-1.2-0.5-2.4-1.7-3.2
		c-0.4-0.2-0.7-0.7-0.8-1c-1-6.2-6.6-7.3-10.9-9.8c-0.9-0.6-2-0.4-2.5,1c1.7,1.8,4.3,2.1,6.2,3.9c-3.8-0.2-7.5-0.9-11.1-2.5
		c-4.7-2-9-4.7-13.8-6.4C390.4,528.3,389.3,527.4,388.6,528.9L388.6,528.9z"/>
	<path fill="#FFFFFF" d="M515.3,641.4c-2.1-1.3-3-3.6-3.6-5.6c-0.7-2.9-2.4-5.3-3.2-8.1c-0.6-2-2.4-3.2-4-4.5c-1.9-1.5-4-3-4.6-5.9
		c0.9-0.7,2.3-0.1,3-1.1c0.7-0.9,1-2,1.3-3.1c0.5-1.9,0.7-3.8,0.7-5.7c0-2.9-2-5.9,0.7-8.5c-0.9-5.8,1.2-12.1-3-17.4
		c1.1-2.5,3.7-1.9,5.4-2.9c1.1,0.4,0.5,1.9,1.5,2c0.9,0.4,1.6,0.1,2-0.5c1.6-2.2,3.4-4.3,4.7-6.6c2.5-4.7,4.1-9.7,5.8-14.8
		c1.7-5.2,3.7-10.2,5.9-15.2c1.6-3.6,5.3-4.3,8.5-4.5c3.4-0.2,7,0.5,10.3,1.7c2,0.7,3.7,1.8,4.2,4.1c0.1,0.3,0.2,0.7,0.4,0.9
		c6,8.2,6.2,18,7.8,27.4c0.8,4.4-0.8,8.7-1.8,12.9c-1.3,5.6-3.3,11-7.1,15.5c-3.5,4.2-4.2,9.1-3.3,14.4c0.4,2.4,0.2,5,1.2,7.4
		c0.2,0.5,0.2,1.1,0.1,1.6c-0.8,3.3-1.4,6.6-2.6,9.8c-3,8.2-14.8,14.3-23.6,10.2c-1.2-0.6-2.6-0.8-3.9-1.1c-1.1-0.3-2.2-0.6-2.4-2
		c0.2-0.2,0.4-0.4,0.1-0.7C515.6,641.1,515.4,641.3,515.3,641.4z"/>
	<path fill="#FFFFFF" d="M522.8,547.4c-3.4-4.2-7.7-6.3-12.1-8.4c3,4.3,7.1,7.6,11.2,10.9c-2.2,6.5-4.4,13-6.6,19.4
		c-11.3-5.5-18.1-14.5-22.7-25.6c-2.1-5.1-5.5-8.5-10.8-10.9c-7.1-3.2-14.8-5-22-9.9c-0.8-3.7-3.9-7.8-3.8-12.9
		c0-2.1-0.5-4.3-1.5-6.2c-2.4-4.8-1.8-9.5,0.5-14c6.7-12.8,17.3-19.4,31.9-20c4.4-0.2,7.3,2,10.2,4.4c1.2,1,1.5,3.2,2.3,4.8
		c2.3,4.9,4.2,9.9,5.3,15.4c-1.7,0.2-3.6-1.6-5.1,1.1c4.6,2.2,7.7,5.8,8.6,11.5c3.4,2.3,4.6,7.1,8.5,9.9c6,4.4,10.5,10.5,16.1,15.5
		c0.8,0.7,1.7,1.5,2,3.2C528.4,536.9,524,540.4,522.8,547.4z"/>
	<path fill="#FFFFFF" d="M489.3,222.3c-4,0.7-8.1,1.2-11.8,3.3c-1.4,0.8-2.9,0.5-4.3,0.5c-51.5,0-102.9,0-154.4,0
		c-11.3,0-22.6,0-34.1,0c-0.8-1.7-2.3-2.7-4.1-3.2c-1-0.2-1.6-0.9-1.5-1.9l-0.1,0.1c2.1-1.9,4.7-1.5,7.2-1.5
		c65.8-0.1,131.6-0.2,197.4-0.3c1.3,0,2.7-0.2,3.9,0.2C488.6,220.2,488,221.8,489.3,222.3L489.3,222.3z"/>
	<path fill="#FFFFFF" d="M481.7,535.8c-3.7,3.1-7.7,5-11.5,7.8c-5-4.6-8.7-9.5-9.7-17C467.1,531.3,474.7,532.2,481.7,535.8z"/>
	<path fill="#FFFFFF" d="M388.5,528.9c3.9,3.4,8.5,5.4,13.1,7.6c5.7,2.6,11.6,4.4,17.8,3.3c1.2,1.2,2,2.3,2.2,3.8
		c-2.2,1-4.3-0.1-6.3-0.3c-2.6-0.2-5.1-0.6-7.7-0.6c-4.4-0.1-8.2-1.4-10.9-5.1c-1.4-1.8-3.3-3.2-5.3-4.1
		C389.3,532.4,388.5,531,388.5,528.9L388.5,528.9z"/>
	<path fill="#FFFFFF" d="M256.2,211.1c0.6-0.7,1.2-1.4,1.7-2c0.2,0.1,0.5,0.1,0.6,0.2c1.7,1.2,3.3,2.7,5.4,3.4
		c1.4,0.4,1.8,1.7,1.9,2.9c0.3,2.6,1.7,5.2,0.3,7.9c-0.3,0.5,0,1.3,0.1,2.9c-0.8-2-2.1-2.3-3.6-2.3
		C262.1,218.9,258.2,215.7,256.2,211.1z"/>
	<path fill="#FFFFFF" d="M273.8,222.1c-0.6,1.1-1,1.9-1.5,2.9c-1.1,0-2-0.6-2.9-1c-1.2-4.9-1.2-10-4.4-14.2c0.7-2.1,2.5-1.1,3.8-1.4
		c2.8,1.5,3,4.1,3.6,6.7C273,217.4,272.2,220,273.8,222.1z"/>
	<path fill="#FFFFFF" d="M495.1,224.5c1.6-3.1,2.7-6.1,0.7-9.5c-0.7-1.3-0.8-3-1.1-4.5c3.9-1.8,4.8-1.1,5.9,2.9
		c0.9,3.1,1.2,6.1-0.3,9c-0.5,1-0.8,2.1-2.3,2.6C497.2,224.9,496.1,224.6,495.1,224.5L495.1,224.5z"/>
	<path fill="#FFFFFF" d="M279.1,221c-1.2,0.5-2.3,1.5-4.1,0.7c0.1-4.3-2.3-8.5-1.1-13c2-1.1,3.1-0.5,3.5,1.3
		C278.1,213.7,279.5,217.3,279.1,221L279.1,221z"/>
	<path fill="#FFFFFF" d="M251.2,209.3c3.8,2.3,4.8,5.7,5.1,9.6c-2.9-2.3-6.8-3.3-8.6-7C248.6,210.6,249.8,210,251.2,209.3z"/>
	<path fill="#FFFFFF" d="M350.4,383.2c-7.4,0.8-13.8-2.1-20.2-5.2C337,379.7,344,380.1,350.4,383.2z"/>
	<path fill="#FFFFFF" d="M502.6,210.5c1.3-0.5,2.5-0.4,2.8,1.2c0.5,2.2,1.2,4.4,1.3,6.6c0.1,2.5-1.1,4.5-3.7,5.5
		c-1.3-2.5,1.7-4.4,0.7-6.8C502.9,214.9,502.1,212.8,502.6,210.5z"/>
	<path fill="#FFFFFF" d="M508.9,220.6c0.2-3.3-1.4-6.2-1.1-9.6c2.2-0.5,3.4,0.3,3.4,2.7c0,2,0,4,0,6.5
		C511,220.6,510.3,221,508.9,220.6z"/>
	<path d="M515.3,641.4c-1.2-3-1.2-3-0.4-5.3c0.4,2.4,1.6,4.3,2.9,6c-1,1.1-1.6,0.2-2.3-0.3C515.5,641.7,515.4,641.6,515.3,641.4z"/>
	<path fill="#FFFFFF" d="M501.1,608.4c-0.2,1.4-0.4,2.8-0.6,4.2c-1.1,0.3-1.4-0.4-1.8-1.2c0.7-1,1.4-2.1,2-3.2
		C500.8,608.3,500.9,608.3,501.1,608.4z"/>
	<path fill="#FFFFFF" d="M341.7,461c0.9,1.2,1.9,2.4,0.3,4.3C341.4,463.6,341.5,462.3,341.7,461L341.7,461z"/>
	<path fill="#FFFFFF" d="M320.4,318.2c0.2-1.4,0.7-1.6,1.6-1.5C321.9,317.7,321.2,317.8,320.4,318.2z"/>
	<path fill="#FFFFFF" d="M318.4,310.8c-0.2,1,0.2,2.2-1,3.7C317.7,312.8,317.7,311.8,318.4,310.8L318.4,310.8z"/>
	<path fill="#FFFFFF" d="M302.5,339.6c0.4,0.8,0.5,1.5-0.6,1.7C301.2,340.4,301.6,339.9,302.5,339.6z"/>
	<path fill="#FFFFFF" d="M316.7,319.5c0.2,0.6,0.3,1.1-0.5,1.4C315.6,320.2,316.1,319.9,316.7,319.5z"/>
	<path fill="#FFFFFF" d="M329,314.4c-0.1-0.5,0.1-0.8,0.6-0.9c0.3,0,0.5,0.4,0.4,0.6C329.8,314.7,329.4,314.7,329,314.4z"/>
	<path fill="#FFFFFF" d="M306.3,341.5c0.7,0.3,1.1,0.6,0.8,1.2c-0.1,0.1-0.4,0.3-0.5,0.3C306,342.7,305.8,342.3,306.3,341.5z"/>
	<path fill="#FFFFFF" d="M310.7,340c0.1,0.7,0,1.1-0.6,1.2C309.6,340.7,309.6,340.2,310.7,340z"/>
	<path fill="#FFFFFF" d="M319.2,308c0.8,1.2,0.8,2.2-0.8,2.8l0.1,0.1C318.2,309.8,319.2,309,319.2,308L319.2,308z"/>
	<path fill="#FFFFFF" d="M340,315.4c-0.1,0.1-0.3,0.3-0.4,0.3c-0.4,0-0.6-0.3-0.4-0.6c0-0.1,0.4-0.2,0.5-0.2
		C339.8,315,339.9,315.3,340,315.4z"/>
	<path fill="#FFFFFF" d="M360.4,438.4c0.7-0.8,1.4-1.3,2.5-1.7C362.4,438,361.7,438.5,360.4,438.4z"/>
	<path fill="#FFFFFF" d="M586.8,574.7c-0.7,2.2-2,2.7-3.6,2.2c-1.2-0.3-1.9-1.2-1.8-2.5c0.2-1.8,1.4-2.3,3.3-2.2
		C584.9,573.5,583.7,575.8,586.8,574.7z"/>
	<path fill="#FFFFFF" d="M577.7,594.3c0.1-1.2,0.2-2.2,1.5-2.6c1.4,0.8,0.9,1.9,0.6,3C579,595.1,578.4,595,577.7,594.3z"/>
	<path fill="#FFFFFF" d="M584.7,584.9c-0.3,1.7-1.3,2.5-2.8,2.3c-1.5-0.1-2.6-0.9-2.4-2.6c0.1-1.6,1.2-2.4,2.7-2.2
		C583.7,582.6,584.6,583.5,584.7,584.9z"/>
	<path d="M839.2,368.1c0.6-1.5,1.2-3.2,2-4.8c2.6-5.2,4.6-10.6,6.1-16.1c1.2-4.4,2-5.4,4.9-7.2c0.8,0.6,0.3,1.5,0.3,2.2
		c-1,8.1-3.2,15.7-7.7,22.6c-0.8,1.2-1.8,2.3-2.8,3.4C841.3,368.8,840.4,369.4,839.2,368.1z"/>
	<path d="M873.7,430.2c-0.8-0.9-2.1-0.8-2.7-1.7c-0.1-0.1-0.1-0.2-0.2-0.5c1.8-0.2,3.5,0.6,5.2,0.1c0.3,3.1,1.3,6,1.2,9
		c-0.1,1.1,1,1.7,1.8,2.3c3.3,2.7,6.3,5.6,8,9.7c1.2,2.6,3.5,4.8,5.4,7.3c-1,1-2.1,1-3-0.2c-2.3-3.2-5.8-5.8-5.7-10.4
		C875,443.8,874.4,436.9,873.7,430.2z"/>
	<path d="M834.5,355.7c7.4-5.2,9.9-13,11.4-21.6c4.4,5.4-1,18.1-9.3,22.8c-0.2,1.3,1.3,2.4,0.3,4
		C834.7,359.9,835.1,357.8,834.5,355.7z"/>
	<path d="M791.9,341.2c1.1-2.2,3.2-2.9,5.2-3.6c6.7-2.3,13.7-3,20.8-2.2c3.1,0.4,5.9,1.7,8,4.1c0.9,1,2,2.1,1.7,3.8
		c-0.4-0.1-0.7-0.1-0.7-0.2c-3.8-6.4-9.9-6.8-16.3-6.1c-5.9,0.6-11.6,1.8-17,4.4C793.1,341.7,792.7,341.8,791.9,341.2z"/>
	<path d="M828.9,311.9c6.4-3.3,13.5-3.4,20.4-3.3C847.2,312.1,833,314.9,828.9,311.9z"/>
	<path d="M877.8,426.7c1.8-5.3,4.1-10.4,4.7-16.1c0.6-5.6,0.7-11.2,0.4-17.3C886.8,399.5,884.8,422.1,877.8,426.7z"/>
	<path d="M865.6,326.4c-3.5,1.9-16.7,6.3-18.1,6.1C848.8,328.7,859.3,325,865.6,326.4z"/>
	<path d="M811.5,337.4c4.8,2.3,10,3.3,13.7,7c1.7,1.6,3.3,3.3,2.8,5.9c-0.9,0.3-1.3,0-1.6-0.6c-1.7-4-5-6-8.8-7.4
		c-1.5-0.6-3-1-4.5-1.6C811.9,340.2,810.6,339.6,811.5,337.4z"/>
	<path d="M827.7,324.8c2,3.8,4,7.5,2.7,11.9c-0.4,1.3,0.4,2.4,0.9,3.5c1.2,2.7,2.5,5.3,2.7,8.3c0.1,1.3,0.4,2.7-1.2,4.4
		c0.1-5.4-2-9.7-3.1-14.2C828.5,334.3,829.4,329.3,827.7,324.8z"/>
	<path d="M787.3,315.3c5.5,0.1,10.8,1,16.3,0.7c5.4-0.3,10.6-1.4,15.8-2.6C813.8,318,795.7,318,787.3,315.3z"/>
	<path d="M899.2,534.4c-0.3-0.5-0.7-0.8-0.7-1.1c0.1-4.8,2.1-9.3,1.8-14.6C903.2,522.7,902.6,530.6,899.2,534.4z"/>
	<path d="M838.9,316.1c6.4,1.1,12.9,1,19.4,1.4c3,0.2,3.3,0.4,4.6,2.8c-4.2-1.8-8.4-1.2-12.4-1.7
		C846.5,318.1,842.5,317.9,838.9,316.1z"/>
	<path d="M893.3,427c2.8,2.3,3.3,5.2,3.2,8.1c-0.1,2.9-0.4,5.8,0.6,9.2c-2-1.2-2.5-2.5-2.4-3.9c0.6-4.3-0.4-8.2-1.8-12.2
		C892.8,428.1,893,427.8,893.3,427z"/>
	<path d="M764.4,314.3c-5.4,0.7-10.2,3.5-16,4.6C749.8,316.1,759.3,313.5,764.4,314.3z"/>
	<path d="M853.7,355.2c2.2-6.9,7.3-11.2,13.1-14.9C862.3,345.2,856.9,349.2,853.7,355.2z"/>
	<path d="M853.4,437.3c-1.5-3.4-2.7-6.9-2.1-10.8c0.3-1.9-1.8-2.8-2.1-5.3c2,1.5,3,3.1,3.2,4.8c0.3,3.3,0.7,6.5,2,9.6
		C854.9,436.6,854.7,437.2,853.4,437.3L853.4,437.3z"/>
	<path d="M834.2,379.9c-3.8-6.6-10.6-9.1-17.7-12.4C823.3,368.4,833.1,374.2,834.2,379.9z"/>
	<path d="M818.9,302.5c5.8,3.7,12,14.8,10.6,18.3C828.1,313.5,823,308.4,818.9,302.5z"/>
	<path d="M899.8,517.5c0-3.7-1.7-6.7-1.2-10.3C901.1,509.5,901.8,514.5,899.8,517.5z"/>
	<path d="M916.4,522c-2.3-4.2-3.7-8.7-3.5-13.6C915.1,512.6,914.9,517.5,916.4,522z"/>
	<path d="M906.2,466.1c1.1,2.7,0.4,5.3-0.3,7.8C904.8,471.2,904.9,468.9,906.2,466.1z"/>
	<path d="M916.1,558.1c1,3.3,3.4,6.1,2.9,9.8C917.2,564.9,916.7,561.5,916.1,558.1z"/>
	<path d="M842.3,384.4c2.2,0.3,4.1-0.3,5.9-1.2c-0.7,1.9-2.1,3.1-3.9,3.5C843.3,386.9,842.5,386.1,842.3,384.4z"/>
	<path d="M907.5,484.5c-1.9-1.9-1.6-4.1-1-6.4C908.7,480,907.2,482.4,907.5,484.5z"/>
	<path d="M889.5,435.7c-0.9,1.4-2,2-3.2,2.7c-1.5-1-1.5-1-1.5-2.8C886.3,435.1,887.8,434.8,889.5,435.7z"/>
	<path d="M891.4,415.6c-2.2-2.1-4.5-4.2-4.7-7.6C888.7,410.2,890.6,412.6,891.4,415.6L891.4,415.6z"/>
	<path d="M830.9,301.6c-2.3,1.5-4.3,2.7-6.6,4.1C824.7,302.7,826.4,301.7,830.9,301.6z"/>
	<path d="M814.7,308.1c-1.3,2.7-3.4,3.8-7.3,4C810.2,310.5,812.4,309.3,814.7,308.1z"/>
	<path d="M789.3,300.1c2.4-0.8,4.1,0,5.3,2.6C792.1,302.8,790.7,301.5,789.3,300.1L789.3,300.1z"/>
	<path d="M770.8,303.9c1.2,2.4,2,4.2,3.8,5.3C771.2,308.6,770.2,307.5,770.8,303.9z"/>
	<path d="M891.3,415.6c3.1,0.3,2.8,2.8,3.3,4.8C892.8,419.3,892.7,417.1,891.3,415.6L891.3,415.6z"/>
	<path d="M789.6,306.4c-1.9-0.8-3-1.7-3.7-3C787.7,302.5,787.7,302.5,789.6,306.4z"/>
	<path d="M913.3,552.3c-0.1-1.4-0.2-2.8-0.3-4.2c0.2,0,0.5-0.1,0.7-0.1C914.3,549.4,915.4,550.7,913.3,552.3z"/>
	<path d="M897,467.1c-1.9-1.2-2.2-3.2-2.4-5.2C896.5,463.1,896.9,465.1,897,467.1L897,467.1z"/>
	<path d="M909.7,494.2c-0.6-1.2-2-2.4-0.3-4.1C910,491.6,910.2,492.9,909.7,494.2z"/>
	<path d="M894.3,495.6c1.4,1.4,1.4,2.8,1.7,4C894.5,498.8,893.6,497.8,894.3,495.6z"/>
	<path d="M866.2,450.8c-0.5,1.1-0.7,2.3-2.2,2.8C864,451.5,864,451.5,866.2,450.8z"/>
	<path d="M891.8,490.2c1.3,0.6,2,1.5,1.9,3.3C892.3,492.7,891.8,491.6,891.8,490.2z"/>
	<path d="M911.4,500.4c1.1,1,1.4,2.2,1,3.8C910.8,503.1,911.2,501.7,911.4,500.4z"/>
	<path d="M780.7,337.5c1.8-1.2,2.8-0.7,4.2,0.2C783.4,338.3,782.3,338.2,780.7,337.5z"/>
	<path d="M891.5,488.4c-1.1-1-1.8-1.7-1.1-2.9C891.7,485.9,891.9,486.8,891.5,488.4z"/>
	<path d="M862.1,423.4c1.9,0.3,2.8,0.7,3.1,2.2C863.8,425.6,863.3,424.6,862.1,423.4z"/>
	<path d="M819.1,360.9c-1.5,0.4-2.2-0.3-3.2-0.6C817.2,359.5,818,360.3,819.1,360.9z"/>
	<path d="M759.3,351.4c0.4,0.8,0.9,1.4,0.5,2.5C758.7,353,759,352.2,759.3,351.4z"/>
	<path d="M891.8,444.6c-0.3,1-0.8,1.2-1.7,0.2C890.6,444.1,891.1,443.8,891.8,444.6z"/>
	<path d="M861.4,422.1c-1.5-0.6-1.8-1.4-1.9-2.6C860.7,420,861.3,420.6,861.4,422.1z"/>
	<path d="M896.9,467.1c0.6,0.5,0.9,1.1,0.9,2C896.8,468.7,897,467.8,896.9,467.1L896.9,467.1z"/>
	<path d="M857,417.2c-0.4-0.5-0.6-0.9,0.1-1.4C857.8,416.3,858.2,416.8,857,417.2z"/>
	<path d="M882.8,389.3c0.7-0.1,0.7,0.5,1.1,0.7c-0.6,0.7-0.9,0.5-1.2,0.2C882.5,389.9,882.6,389.6,882.8,389.3z"/>
	<path d="M790.1,262.6c-1.3-1.3-2-3-2.8-4.6c-1.9-3.9-4-7.6-7.2-10.5c-0.4-0.4-0.8-0.8-0.6-1.5C783.7,245.6,790.7,256.7,790.1,262.6
		L790.1,262.6z"/>
	<path d="M735.6,249.3c5.6-2.8,11.8-3,18.4-4.5C750.4,247.3,738.1,250.3,735.6,249.3z"/>
	<path d="M723,287.9c-0.1-0.7-0.2-1.3-0.3-2c0.1-0.1,0.2-0.2,0.3-0.3c3.9,1.9,7.3,4.2,8.6,8.7C728.2,292.7,726.5,289.1,723,287.9
		L723,287.9z"/>
	<path d="M722.7,285.9c-4.5-3.3-5.6-9.6-2.1-15.2c0.4,5.4-1.4,10.7,2.4,14.8C722.9,285.7,722.8,285.8,722.7,285.9z"/>
	<path d="M758.4,263.7c4.3,2.8,4.9,7.2,5.1,11.8c-2.3-1.3-1.9-3.8-2.4-5.8C760.5,267.5,759.1,265.8,758.4,263.7z"/>
	<path d="M821,276.2c4.6,2.3,9.7,8.3,10.2,12.4C828.4,284,824.3,280.4,821,276.2z"/>
	<path d="M801.5,276.4c1.1,0.6,2.9-0.6,3.2,1.7c-1.6,1.6-3.6,0.4-5.2,0.8c-0.8-1.1,0-1.4,0.5-1.8c-0.2-1.4-1.8-2.3-1.3-4.3
		C799.7,274.1,800.5,275.2,801.5,276.4z"/>
	<path d="M760.9,240.3c1.9-2.8,4.6-2.2,7.2-2.8C765.9,240.5,763.7,241.4,760.9,240.3z"/>
	<path d="M715.8,265.5c-0.2-3.2,2.7-6.5,5.8-6.9c-0.9,1.8-0.9,1.8-3.6,3.6C717.1,263.2,717.9,265.3,715.8,265.5z"/>
	<path d="M806.9,264.2c-3.4,0.7-6.8,0.8-10.3,1.7C797.9,263.7,803.6,262.8,806.9,264.2z"/>
	<path d="M790,262.7c0.4,0,1.1-0.2,1.3,0c2,2.3,4.3,4.3,5.6,7.1C793.6,268.4,791.8,265.6,790,262.7L790,262.7z"/>
	<path d="M720.4,270.5c-0.1-4.4,0.9-6,4.5-7.6C723.4,265.4,722,267.7,720.4,270.5z"/>
	<path d="M714.7,258.1c-2.2,1.6-3.4,4.7-6.4,5.1C709.6,260.5,712.2,259.4,714.7,258.1z"/>
	<path d="M722.9,287.8c-0.5,1.9-1.7,1.2-2.5,0.4c-1.4-1.4-2.7-2.9-4.1-4.4c2.1-1.4,1.8,1.4,2.8,1.9
		C720.5,286.2,721.7,287.1,722.9,287.8L722.9,287.8z"/>
	<path d="M779.8,290.2c-3-1-5.5-2.9-7.8-5C775.1,286.1,777.7,287.8,779.8,290.2z"/>
	<path d="M769,281.6c-2-0.6-3.7-1.6-4.4-4C767.3,277.8,767.6,280.3,769,281.6z"/>
	<path d="M812.9,267.3c-1.9-1.8-3.8-3.5-5.8-5.3c3.1,0.4,4.5,2.8,6.2,4.8C813.2,266.9,813.1,267.1,812.9,267.3z"/>
	<path d="M804.6,275.8c1.7-1.1,3.4-2,5.8-1.4C808.4,275.9,806.5,275.9,804.6,275.8z"/>
	<path d="M755.7,244.3c0.6-2.7,2.5-2.7,3.8-3.6C758.7,242.2,757.8,243.4,755.7,244.3z"/>
	<path d="M720.6,254.9c1.1-1.3,2.6-1.8,4.4-1.8c-1.3,0.8-2.6,1.6-4,2.4C720.9,255.3,720.7,255.1,720.6,254.9z"/>
	<path d="M714.5,270.8c-0.9-1.8,0.1-2.8,0.5-4.4C715.7,268.7,715.7,268.7,714.5,270.8z"/>
	<path d="M783.9,235.6c-1.1,0.5-2,1.7-3.7,1.1C781.2,235,782.6,235.3,783.9,235.6z"/>
	<path d="M817.4,272.5c-0.9-1.1-1.8-2.1-2.7-3.2C816.2,269.8,817.2,270.9,817.4,272.5z"/>
	<path d="M786.3,266.8c1.4-0.8,2.7-1.2,4.9-0.6C789.2,267.4,787.6,266.3,786.3,266.8L786.3,266.8z"/>
	<path d="M770.8,269.5c0.8-1,1.9-1,3.6-1.7C773.1,269.4,771.9,269.4,770.8,269.5z"/>
	<path d="M804.8,283.3c-1.7-0.8-2.4-1.7-3.1-3C803.6,280.4,804,281.5,804.8,283.3z"/>
	<path d="M807.7,287.6c-0.9-0.5-1.8-0.8-1.6-2.1C807.2,285.7,807.9,286.2,807.7,287.6z"/>
	<path d="M786.2,266.8c-0.6,0.1-1.1,0.6-1.8,0C785.1,266.8,785.7,266.8,786.2,266.8L786.2,266.8z"/>
	<path d="M732,295.9c0.6,0.4,1,0.7,0.8,1.4C731.9,297.3,731.7,296.9,732,295.9z"/>
	<path d="M736.5,301.3c-0.9,0.2-1.3-0.3-1.7-1.2C736,299.9,736.3,300.5,736.5,301.3L736.5,301.3z"/>
	<path d="M816.9,458.3c5.7-1.2,22.9,9.5,26.8,16.6c-4.6-2.6-8.3-6.5-12.5-9.6C826.8,462.1,822.2,459.5,816.9,458.3z"/>
	<path d="M837,418.5c-4.3-3.2-9.2-5.6-11.9-10.5c-0.7-1.3-1.8-2.9,1-4C830.3,408.2,831.7,414.9,837,418.5z"/>
	<path d="M838.5,462.7c-6.6-4.5-12.4-9.3-11.6-18.2c1.4,2.3,2.1,4.9,3.3,7.3c1.1,2.2,2.4,4.1,4.4,5.4
		C836.5,458.5,837.7,460.3,838.5,462.7z"/>
	<path d="M827.1,442.5c-2-3-4.4-5.7-6.7-8.4c-1.9-2.2-2.9-4.6-2-7.4c0.5-0.3,0.8-0.3,0.8,0c0.1,4.3,3.1,6.8,5.8,9.4
		C826.9,437.9,827.5,440,827.1,442.5z"/>
	<path d="M843.1,437.7c-1.8-0.9-2.3-2.3-2.1-3.8c0.6-3.3-0.5-6-2.8-8.3c-0.5-0.5-0.8-1.1-0.3-1.8
		C842.5,425.3,843.8,428.8,843.1,437.7z"/>
	<path d="M856.1,510.7c2.2,1.4,3.1,3.8,4.4,5.9c2.4,3.7,4,7.8,6.1,11.7c0.4,0.8,0.9,1.5,0.1,3.2C863,524.2,859.6,517.5,856.1,510.7
		L856.1,510.7z"/>
	<path d="M820,406.9c1.3,5.3-1.6,9.1-4.7,12.8C816.8,415.4,818.2,411.1,820,406.9z"/>
	<path d="M829.8,436.3c2.6-0.9,4.5-1.5,6.4-2.2c1.2-0.4,2.3-0.6,2.9,0.8c0.7,1.6-0.6,2.3-1.8,2.7
		C834.8,438.4,832.5,437.7,829.8,436.3z"/>
	<path d="M827.7,509.3c2.4,6.1,4.5,12.2,7.8,17.9C832.4,524.9,827.4,513.9,827.7,509.3z"/>
	<path d="M846.3,546.6c-2.6-3.5-4-7.6-6.4-11.8C842.8,536.7,846.3,543.3,846.3,546.6z"/>
	<path d="M824.6,498.9c2.5,2,2.3,4.9,2.8,7.7C824.5,504.8,823.2,501.2,824.6,498.9z"/>
	<path d="M883.5,569.3c-2.1-2.2-3.7-4.7-5.5-7.6C880.8,563.5,882.6,566,883.5,569.3z"/>
	<path d="M809.3,448.6c-1.8-2.2-1.7-2.4,1.9-5.4C810.6,445.2,811,447.1,809.3,448.6z"/>
	<path d="M822.6,492.6c-1-1.7-2-3.4-1.8-5.6C822.7,488.4,823,489.3,822.6,492.6z"/>
	<path d="M812.7,425.1c0.4,2.2,0.2,4.4-0.5,7.4C810.7,429.4,811.5,427.3,812.7,425.1L812.7,425.1z"/>
	<path d="M814,458c-1,2.7-1,2.7-2.8,1.2C811.6,457.9,812.4,457.4,814,458z"/>
	<path d="M854.9,508.5c-1.2-1.4-1.3-3.2-1.8-4.8C854.8,504.8,856,506.2,854.9,508.5L854.9,508.5z"/>
	<path d="M839.7,420.1c2.4,1.7,2.4,1.7,3.5,4C841.2,423,841.2,423,839.7,420.1z"/>
	<path d="M851.7,499.8c-1.4-0.9-2-1.6-1.6-3C851.5,497.3,851.6,498.3,851.7,499.8z"/>
	<path d="M839.1,533.1c-1.4-0.7-1.9-1.3-1.8-2.4C838.8,530.5,838.5,531.7,839.1,533.1z"/>
	<path d="M871.3,552c-1.1-0.5-1.4-1.3-1.7-2.5C871,550.1,871.1,551.1,871.3,552z"/>
	<path d="M836.2,447.8c0.8-1.2,1.5-1.4,2.5-0.9C838.4,448.2,837.6,448.3,836.2,447.8z"/>
	<path d="M848.7,492.2c-1-0.7-0.9-1.4-0.6-2.2c0.8-0.2,0.8,0.5,1,0.9C849.3,491.3,849.2,491.8,848.7,492.2z"/>
	<path d="M846.7,485.1c-0.8-0.2-0.8-0.6-0.4-1.2C846.7,484.2,847.3,484.4,846.7,485.1z"/>
	<path d="M856.1,510.7c-0.9-0.5-1.3-1.2-1.2-2.2l-0.1,0.1C855.3,509.2,856.1,509.8,856.1,510.7L856.1,510.7z"/>
	<path d="M812.8,425.2c-0.2-0.8-0.7-1.7,0.8-2.2C813.8,424,813.3,424.6,812.8,425.2L812.8,425.2z"/>
	<path d="M669.6,299.4c7.8-3.2,11.5-10.6,16.7-16.1c2.1,0.5,2.3,1.5,1.5,2.8c-2.7,4.3-5.5,8.6-10.5,10.5c-1.5,0.6-2.2,2-3.5,2.5
		C672.4,299.6,671.2,300.1,669.6,299.4z"/>
	<path d="M636.6,288.8c2.3,2,4.5,9.3,5.1,16.5C638.9,300.1,638.4,294.2,636.6,288.8z"/>
	<path d="M643.3,264.6c-1.5-2.7-2.1-5.5-0.2-8.3C644.7,259,644.3,261.8,643.3,264.6z"/>
	<path d="M642.8,245.4c1.6,3.3,0.5,5.9,0.2,8.9C641.1,251,641,248.4,642.8,245.4z"/>
	<path d="M637.3,247.5c0.7,2.7-0.3,4.7-0.4,7.2C634.8,251.2,634.9,250.1,637.3,247.5z"/>
	<path d="M656.2,323c1,3.5,0.7,4.8-2,7C655.4,327.5,653.9,324.8,656.2,323L656.2,323z"/>
	<path d="M642.4,232.1c-2.3-0.6-4.9,0.7-7.7-1.1C637.9,230,640.3,230.1,642.4,232.1z"/>
	<path d="M636.4,255.6c-0.4,1.6-0.7,3-1.1,4.6C633.8,257.4,633.9,257,636.4,255.6z"/>
	<path d="M692.7,243.4c1-1.2,1.8-2.7,3.9-3.5C695.7,242.1,694,242.6,692.7,243.4z"/>
	<path d="M643,267.5c0.6,1.7,0.5,2.9,0.2,4.4C641.7,270.5,641.9,269.3,643,267.5z"/>
	<path d="M648.7,245.9c-1,0.4-2,1.4-3.3,0.3C646.5,245.1,647.7,245.7,648.7,245.9z"/>
	<path d="M689,248.2c0.1,1,0.1,2-1.2,2.8C687.6,249.5,688.1,248.8,689,248.2z"/>
	<path d="M643.1,313.6c-1.3-1.3-1.4-2.3-1-3.8C643,310.9,643.5,311.8,643.1,313.6z"/>
	<path d="M669.8,270c-1.1,1.8-2.1,2-3.4,1.9C667,270.5,668,270.2,669.8,270z"/>
	<path d="M665.3,302.9c0.7-2,1.9-1.8,3.1-2.3C667.9,302.7,666.5,302,665.3,302.9z"/>
	<path d="M642.4,322.7c1.2,0.7,1.1,1.5,0.8,2.4C641.8,324.6,642,323.8,642.4,322.7z"/>
	<path d="M661.6,306.3c0.6-1.4,1.4-1.9,2.8-1.7C663.7,305.6,663.1,306.2,661.6,306.3z"/>
	<path d="M674.8,269.7c-0.4,1.5-1.3,1.1-2.4,1C673,269.3,673.7,269.2,674.8,269.7z"/>
	<path d="M646.8,239.5c-1-1.3-1.2-2-0.8-3.1C647.3,237,646.9,238,646.8,239.5z"/>
	<path d="M642.9,279.3c0.8,0.7,1,1.4,0.4,2.1C642.5,281,642.5,280.3,642.9,279.3z"/>
	<path d="M635,262.4c0.1,0.8,0,1.1-0.6,1.2C633.8,262.9,634.2,262.6,635,262.4z"/>
	<path d="M688.7,276.1c0.9,0.9,0.3,1.4-0.1,2C687.8,277.3,688.1,276.7,688.7,276.1z"/>
	<path d="M966.1,597.7c-1.6,2.5-2.5,5.9-6.5,5.2c-2.1-0.4-3.4-1.8-3.7-3.9c-0.3-2.1,0.7-3.8,2.6-4.7
		C962.2,592.5,963.9,595.7,966.1,597.7z"/>
	<path d="M951.2,612.3c0.8,0.4,1.8,0.1,2.6,0.9c-0.8,2.3-3.1,0.3-4.2,1.4c-0.9,1.4,1.8,1.8,0.5,3.7c-2.5-1.1-4.4-3.2-6.9-5.1
		c1.6-1.8,2.3-4.3,5.1-4.4C949.7,608.7,950.4,609.8,951.2,612.3z"/>
	<path d="M954.4,611.2c-2.4,0-4.5-2.1-4.6-4.5c0-2.4,2-4.6,4.4-4.7c2.6-0.1,4.8,2.1,4.7,4.7C958.9,609.1,956.8,611.2,954.4,611.2z"
		/>
	<path d="M974.8,573.4c-0.2,0-0.5,0.1-0.6,0c-4.2-4.4-8.6-3.6-13.4-0.8c-3.2,1.8-6.4,3.5-9.1,6c3.6-5.3,8.9-8.1,14.7-9.9
		C969.1,567.9,973.4,570.5,974.8,573.4z"/>
	<path d="M943.5,586.6c1.7-2.4,3.6-4.6,6-6.3C948,582.8,946.5,585.5,943.5,586.6L943.5,586.6z"/>
	<path d="M943.5,586.6c0.4,0.4,0.7,0.8,1.1,1.1c-0.2,1.1-0.9,1.6-1.8,1.9C942.2,588.4,943.4,587.7,943.5,586.6L943.5,586.6z"/>
	<path d="M740.9,171.9c1.8,0.3,3.5-0.4,4.9,1.2c-2.5,2.5,0.2,4.5,1.1,6.9c-1.7,0.4-3.1,0.6-4.1-1.1c-0.8-1.4,0.2-3.1-0.7-4.7
		c-3.1-0.7-4.8-3.8-8.2-5.2C736.9,168.7,736.9,168.7,740.9,171.9z"/>
	<path d="M753.5,199.5c-10.4,1.2-19.6,4.4-28.9,6.9C728.6,203.3,750,198,753.5,199.5z"/>
	<path d="M718.1,176.9c1.1-6.1,7.3-10.3,11.6-8c-1.5,2.6-4.6,1.4-6.6,2.7C721.1,173,719.9,175.3,718.1,176.9z"/>
	<path d="M721.6,177c2.6-4.5,4.7-5.4,9.4-4.3C728.3,175.1,724.9,175.4,721.6,177z"/>
	<path d="M749.6,188.3c-2.9,1.5-5.6,0.4-8.6,1.9C743.1,187.1,746.9,186.3,749.6,188.3z"/>
	<path d="M712.2,202.7c2,0.6,4.3,1,6.1,3.4C715.6,205.3,713.7,204.4,712.2,202.7z"/>
	<path d="M738.1,181.2c-0.2-2.7,1-3.2,3.1-3.4C741.2,180,739.6,180.3,738.1,181.2z"/>
	<path d="M752.1,205.4c-0.7,1.5-0.2,3.6-2.2,5.2C750,208.2,750.3,206.5,752.1,205.4L752.1,205.4z"/>
	<path d="M719.4,211.2c-1.3,0-2.2-0.7-3.6-1.3C717.9,209.8,717.9,209.8,719.4,211.2z"/>
	<path d="M858.9,279c-1.1-8.1,2.6-15.8,0.7-23.5c1.3-0.6,1.9,0,1.8,0.6c-0.4,2.9,0.3,5.7-0.3,8.7c-0.8,3.7-1.8,7.5-1.1,11.4
		C860.3,277.2,860.3,278.2,858.9,279z"/>
	<path d="M860,241.9c2.5,2.7,2.6,7.9,0.3,11.4C859.4,249.5,858.2,246,860,241.9z"/>
	<path d="M852,294.5c-2.5-2.7-2.7-5.8-0.6-8.5C851.6,288.9,851.8,291.6,852,294.5z"/>
	<path d="M858.2,240.9c-3.9,1.4-4.9,1-6-2C854.7,238,855.8,240.6,858.2,240.9z"/>
	<path d="M856.3,301c-3-0.9-3.4-1.3-4-5.6C853.8,297.6,855,299.2,856.3,301z"/>
	<path d="M862.6,242.2c1.5-1.5,2.6-1.5,4.3-0.6C865.4,242.9,864.3,243,862.6,242.2z"/>
	<path d="M852.4,229.9c-1.5-1.3-1.4-2.5,0-4.2C853.1,227.4,852.6,228.7,852.4,229.9z"/>
	<path d="M866.8,264.4c-0.6-0.9-1.4-1.9-0.5-3.4C867.4,262.3,867.3,263.3,866.8,264.4z"/>
	<path d="M866.6,265.9c1.2,1.2,1,2.1,0.5,3.1C865.8,268.1,866.5,267.2,866.6,265.9z"/>
	<path d="M866.6,273.7c-0.4-1.5-0.5-2.4,0.7-3C867.8,271.8,867.5,272.6,866.6,273.7z"/>
	<path d="M430.1,512.6c-4.3-0.8-7-3.4-8.9-7c0.3-1.8,1.5-3.3,1.6-5.3c1.4,1.3,0.7,2.7,0.6,3.9c2.4,3.2,5.3,5.2,8.6,6.6
		c2.6,4.7,4.5,9.7,9.7,12.2c2,1,2,3.7,4.2,5.4c-2.1-0.1-3.1-0.9-3.4-2.1c-0.5-1.9-1.8-2.8-3.4-3.4c-4.3-1.4-5.9-5.4-8.1-8.7
		C430.6,513.8,430.5,513.3,430.1,512.6z"/>
	<path d="M444,496.4c-4.7,2.4-13.5,0.6-16.6-3.9C433.4,493.9,438.3,497.2,444,496.4z"/>
	<path d="M442.6,498.8c4.5,0.5,7.9,6.2,6.2,10.8C447.7,505.1,444.5,502.6,442.6,498.8z"/>
	<path d="M444.5,506.4c1.6,0,2.3,0.5,2.4,1.5c0.1,1.2-0.8,1.8-1.8,2.1c-2.2,0.8-4.3-0.2-7-0.3C440.2,507.6,443.9,509.9,444.5,506.4z
		"/>
	<path d="M441.1,529.7c3.8,0.2,7.6,0.5,11,2.3c-0.1,0.3-0.1,0.6-0.2,0.9c-3.6-0.8-7.3-1.7-10.9-2.5C441,530.1,441,529.9,441.1,529.7
		z"/>
	<path d="M439.1,564.2c2.3,2.5,5.5,3.8,7.9,6.1C443.7,569.1,440.4,567.9,439.1,564.2z"/>
	<path d="M452.2,517.4c-3.2-1.9-4-3.6-3.3-7C450.1,512.9,451,514.9,452.2,517.4z"/>
	<path d="M490,597.2c2,1,4.5,1.1,6,3.8C493.1,600.6,491.7,598.6,490,597.2z"/>
	<path d="M399.4,523.5c1.8-0.6,3.2,0,4.6,1.3C401.8,526.2,400.5,525,399.4,523.5z"/>
	<path d="M448.9,571.7c1.9,0.1,3,1.4,4.2,3.1C450.4,574.9,450,572.8,448.9,571.7z"/>
	<path d="M436.5,561c-1.8-1.2-3.7-2.1-4.7-4.8C434.5,557.3,435.3,559.4,436.5,561z"/>
	<path d="M418.3,510.3c-1.8,0.8-2.8,0.2-4-0.7C416,508.5,416.7,509.9,418.3,510.3z"/>
	<path d="M446.8,519.2c0.8-1.1,1.5-1.7,2.6-1.8C449.1,519.3,449.1,519.3,446.8,519.2z"/>
	<path d="M454.2,575.4c1.3,0.3,2,1,2.6,1.9C455.2,577.1,455.2,577.1,454.2,575.4z"/>
	<path d="M461,581c1.5-0.5,1.8-0.1,2,0.5C462.3,582.1,462,581.4,461,581z"/>
	<path d="M432.1,526.8c-1.4-0.2-2.1-0.6-2.7-1.6C430.6,525,431.4,525.4,432.1,526.8z"/>
	<path d="M464.9,549.1c-0.9-0.1-1.1-0.6-0.9-1.4C464.8,547.9,465.3,548.2,464.9,549.1z"/>
	<path d="M461.9,545.4c-1.3,0-1.6-0.7-2.1-1.7C461.1,543.8,461.5,544.3,461.9,545.4z"/>
	<path d="M515.3,631c0.6-2.6,1-5.3,1.8-7.8c1.2-3.6,1.2-7.3,1.7-11c0.3-1.8-0.1-3.6-0.8-5.3c-1.3-3.2-1.9-6.5-2.3-9.9
		c-0.2-1.6-0.2-3.1,0.8-4.4C520.7,605.6,521.3,618.4,515.3,631z"/>
	<path d="M543,541.7c-2.3,0.5-4,0.7-5.6,1.2c-3.2,1.1-5.4,3.1-6.8,6.1c-0.9,2-1.8,4.1-2.8,6.1c-0.4,0.8-0.5,2-1.7,2.3
		C526.1,550,535.4,538.4,543,541.7z"/>
	<path d="M524.1,560.7c-0.9,7.5-3.9,14.4-5.4,21.7C519.2,574.8,521.7,567.7,524.1,560.7z"/>
	<path d="M486.5,491.2c0.3,1.4-0.3,2.5-1,3.7c-1.2,2-2.5,3.9-2.5,6.3l0,0c-1.1,1.1-1.1,2.9-2.4,3.9c-0.9-0.5-0.9-1.3-0.7-2.1
		c0.6-3.9,1.9-7.5,4.3-10.8c0.6-0.8,1.1-1.4,2.1-1.4C486.3,491,486.4,491.1,486.5,491.2z"/>
	<path d="M482.9,501.2c2-1.8,2.7,0,3.5,1.3c1.2,2.1,2.2,4.5,5.1,4.5c0.5,1,0.5,1.9,0.5,2.8c-0.3,0.1-0.8,0.3-0.9,0.2
		c-1.4-1.1-2.9-1.9-4.5-2.5C483.6,506.4,482.8,504.6,482.9,501.2L482.9,501.2z"/>
	<path d="M478.3,505.7c-2.1,3.1-8.3,2.6-11.2-0.9C470.7,506.8,474.5,505.5,478.3,505.7z"/>
	<path d="M494.5,506.6c3.3-2,6.7-3.2,10.8,0.1C501.2,507.6,497.8,505.7,494.5,506.6z"/>
	<path d="M512.6,520.6c-3.3-1.2-6.3-0.9-8.7-3.4C507.1,516.3,510.2,517.5,512.6,520.6z"/>
	<path d="M491,492.7c3,0.1,5.8,0.4,8.7,0.3C496.6,494.3,493.6,495.3,491,492.7z"/>
	<path d="M493.2,514.8c3.3,1,6.2,2.2,9.3,2.1C499.1,518.6,495.4,517.8,493.2,514.8z"/>
	<path d="M486.2,490.9c-0.7-2.4-1.4-4.9-2-7.3c0-0.1,0.1-0.2,0.3-0.4c1.7,1.7,2.4,3.9,3.1,6.1c0.3,0.9,0.2,1.8-1.1,1.9
		C486.4,491.1,486.3,491,486.2,490.9z"/>
	<path d="M508.6,509.6c-1.6,2.5-3.5,2.5-5.3,2.4C504.5,510.6,505.8,509.5,508.6,509.6z"/>
	<path d="M497.2,512.4c-1.4,0-3.1,1-4.6-0.9C494.5,510.8,495.8,511.7,497.2,512.4z"/>
	<path d="M509.6,538.6c-2.2,1.2-2.8-0.4-3.8-1C507.3,536.9,508.2,537.7,509.6,538.6z"/>
	<path d="M503.8,536.9c-1.3,0.4-2.2,0.7-3-0.5C501.8,535.8,502.7,535.7,503.8,536.9z"/>
	<path d="M465.5,506.2c-1,1-1.7,0.9-2.7,0C463.6,505.6,464.4,505.6,465.5,506.2z"/>
	<path d="M479.8,476.8c1.4,0.3,1.8,1,2.1,2.2C480.7,478.7,480.2,478.1,479.8,476.8z"/>
	<path d="M495.6,534c-1.4,0.2-2,0.1-2.3-0.8C494.3,532.2,494.7,533,495.6,534z"/>
	<path fill="#FFFFFF" d="M962,596.4c0.3,1-0.9,1.1-0.8,2c-0.2,1,1.4,0.6,1.4,1.5c-0.7,1.2-1.8,1.4-2.9,0.9c-1.5-0.6-2.3-1.7-1.7-3.4
		C958.5,595.9,959.5,595.7,962,596.4z"/>
	<path fill="#FFFFFF" d="M948.3,610.8c1.3,1.4,0,2.1-0.7,3C945.7,612.3,945.7,612.3,948.3,610.8z"/>
	<path fill="#FFFFFF" d="M954.6,609.2c-1.8-0.2-2.9-1.2-2.9-2.8c0-1.4,0.9-2.3,2.3-2.4c1.7,0,2.8,0.9,3,2.6
		C957.1,608.2,956.1,609,954.6,609.2z"/>
</g>
</svg>
