<?xml version="1.0" encoding="utf-8"?>
<!-- Generator: Adobe Illustrator 19.1.0, SVG Export Plug-In . SVG Version: 6.00 Build 0)  -->
<svg version="1.2" baseProfile="tiny" id="Layer_2" xmlns="http://www.w3.org/2000/svg" xmlns:xlink="http://www.w3.org/1999/xlink"
	 x="0px" y="0px" width="900px" height="600px" viewBox="144 97 900 600" xml:space="preserve">
<g>
	<path d="M454.5,638.1c1.8,3,0.6,6.6,1.4,10.4c2.1,1.4,4,3.5,5.7,6c1.6,2.3,4.6,3.2,7.1,4.3c4.2,1.9,8.7,3.2,13.2,4.3
		c1.8,0.4,3.5,1.1,5.1,2.2c0.5,2.5,1,5,1.5,7.7c-0.8,1-1.6,2.3-1.3,3.9c-1.7,1.4-3.6,2.1-5.5,2.1c-7.9,0.1-15.6,1.2-23.2,2.8
		c-2.4,0.5-4.7,0.1-7.1-0.4c-6-1.1-12.1-1.4-18.1,0.2c-3.2,0.9-6-0.3-9.1-0.4c-1.2-0.1-2.3-0.8-3.5-0.5c-0.6,0.5-0.4,1.1-0.3,1.7
		c1.2,6.7-0.8,7.6-6.4,9.2c-4.2,1.3-8.7,2.7-12.9,2.3c-6.7-0.7-13.6,1.8-20.2-1.3c-2.5-1.2-5.4-1.4-8.2-1.6
		c-6.1-0.5-11.9-2.4-17.9-3.8c-0.8-0.2-1.6-0.6-2.1-1.6c0.6-2.2,2.6-4,2.9-6.5c0.4-3.3,1.1-6.6,1.6-9.9c0.1-0.4,0-0.8,0.2-1.1
		c1.5-2.9,2-6,2.5-9.2c0.4-2.2,1.5-4,3.4-5.4c2.3-1.8,3.2-4.3,3.8-7.2c1.9-10.7,3.1-21.5,5.4-32.1c1.3-5.9,1.4-12.1,1.1-18.3
		c-0.4-10.8,3.5-19.8,11.3-27.2c2.8-2.6,4-5.7,3.7-10c-5.2,5.2-10.6,2.8-15.6,0.9c-3.1-1.1-5.3-4.1-7.3-6.9c-3-4.3-5.9-8.7-9.6-12.6
		c0.5-4.3-2.5-6.8-5.1-9.4c-1-1-2.1-1.7-2.5-3.1c-1.1-3.6-3.4-6.1-6.6-8.1c-1.8-1.1-3.3-2.6-4.5-4.2c-0.7-1-1.8-2.2-1.4-3.3
		c1.2-3.3-0.9-5.7-1.8-8.5c-2.6-8.1-3.5-16.2,0.7-24.1c0.4-0.8,0.3-1.7,0.5-2.5c0.9-4.6,3-8.5,6-12c1.2-1.4,2.6-2.8,4.3-1.4
		c5.6-1.7,7.8-6.8,11.5-10.9c-1.2-7.1,2.1-13.1,5.6-19.4c3.3-5.9,6.7-12,7.4-19.3c0.9-9.9,0.8-19.8,0.3-29.6c-0.3-6,0-12,2.1-17.7
		c0.4-1.2,0.6-2.6,1.9-3.4c1.3,0.3,1.1,1.2,0.9,2c-2,9.1-1.5,18.2-1.1,27.4c0.1,2.9,1,4.2,3.8,4.2c5.5,0,10.9-0.8,16.2-2.5
		c2.3-5.8,0-12.3,3-17.8c0.4,5.6-2.4,11.2,0.3,17c2.3-0.5,4.4-2,6.6-3.7c-1.3-6.2-3.2-12.2-3.6-18.5c3.6,1.2,3.4,4.5,4.3,7.2
		c0.9,2.8,1.5,5.6,2.3,9c3.6-2.8,7.2-4.9,8.5-9.3c1.1-3.8,2.2-7.5,2.9-11.4c0.7-3.7,0.9-7.5,0.6-11.4c-2.6-2.4-7.1-1.9-9-5.6
		c2.9,0.7,5.4,2.4,8.7,2.9c-0.5-1.7-0.9-3.1-1.2-4.4c-1.8-1.5-4.6-0.4-5.8-2.8c1.6-1.7,3.1,0.3,4.8-0.2c-0.1-2.4-0.9-4.6-2-6.8
		c-2.1,0.1-3.8,1-5.7,1.6c0.2,2.9,3.3,5.4,1.1,8.4c-0.9,0.2-1.4-0.1-1.8-0.7c-2.1-3.4-2.7-7.6-6.1-10.3c-0.7-0.6-0.6-2.3-0.9-3.5
		c-1-5.4-1.3-10.9-4.9-16.2c4.6-1,6.9-4.4,10-6.8c3.6-2.7,7.8-1.5,10.3,2.7c-1,1.3-1.2,7.4,0,8.6c3,3,4.6,6.5,3.6,11.6
		c2.4-3.1,2.5-3.4,1.7-5.9c-0.9-2.5-0.3-4.6,0.4-7.1c1.4-4.8,2.4-9.7,0.6-14.6c-0.7-1.9-0.8-3.8-0.1-5.7c0.5-1.2,0.1-2.4-0.3-3.6
		c-1.2-4.1-1.8-4.4-5.4-2.4c-1.9,1.1-3.9,0.9-6,0.6c-8.2-1.3-16.4-2-24.7-0.6c-2.8,0.5-5.2,2.1-7.9,3c-1.4,0.5-2.7,1.4-4.1,1.4
		c-3,0.2-4.4,1.9-5.2,4.3c-0.7,2.1-2.1,3.5-3.7,4.3c-0.7,1.4-0.2,2.4,0.2,3.5c0.6,1.8,0.7,3.6,0.4,5.4c-1.7,10.3,1.1,19.8,5.2,29
		c0.5,1,1.2,1.9,0.2,3.1c-1.8-0.1-2.4-1.5-2.9-2.8c-2.6-7.2-5.6-14.3-6.7-22c-0.2-1.2-0.3-2.5,0.1-3.6c1-3.3,1.6-6.6,1.5-10.1
		c-0.1-1.5,0.5-2.7,1.8-3.7c1.2-1,1.9-2.4,2.4-4c0.9-2.9,2.7-5.1,6.1-5.6c2.7-0.4,5.1-1.8,7.4-3c6.7-3.6,13.9-3.3,21.1-2.4
		c3.4,0.4,6.8,0.9,10.1,1.8c1.6,0.4,3.4,0.6,4.5-1.4c0.9-1.6,2.6-0.1,3.9-1.3c1.2-4.7,3.2-9.5,5.7-14.7c0-0.7-1.5-1-1.5-2.3
		c0-0.5,0.4-0.7,0.7-0.6c0.7,0,1.5,0,2.1,0.3c4.6,2.2,6,2,9.7-1.6c0.3-0.3,0.6-0.8,1.2-0.7c1.3,0.1,0.5,1.5,1.2,2
		c1.5,0,1.5-1.9,2.3-2.1c6.3-1,12.4,1,18.3-1.4c1.1-0.5,1.7-0.1,3.8,0.9c0.8-0.8,1.7-1.6,2.7-2.5c1.6,1.7,0.8,3.6,0.7,5.6
		c1.7,0.1,3.3-2.5,5-0.5c0.1,1.9-2.1,1.6-2.6,2.9c1.2,0.4,2.4-0.6,3.6,0.4c0.8,1.1-0.6,2.3,0.3,3.3c-2,2.3-5.2,2.8-6.8,5.7
		c0.5,3.6,0.2,7.5,1.9,11.2c0.8,1.8-0.9,3.7-0.8,5.8c1.7,0.8,3.5,0.7,5.3,0.5c7.5-0.8,15-0.2,22.2,1.7c5.1,1.4,10.1,3.5,15.3,5
		c1.9,0.6,2.9,1.9,3.4,3.9c2.1,7.9,1.5,13.3-6.6,19.4c-3.2,2.4-6,5.4-7.7,9.2c-0.8,1.7-1.9,3.1-3.3,4.3c-6,5.3-12.7,9.5-20.1,12.4
		c-4.4,1.7-8.5,3.6-11.9,7c-1.5,9.6-2.5,19.4-4.8,28.9c-1.9,7.7-4.3,15.3-6.6,22.9c-0.3,1.1-1.3,2.1-1.7,3.2
		c-1.2,2.9-2.6,5.7-2.3,9.1c0.3,3-0.8,5.8-2.8,8.1c-0.1,0.1-0.2,0.2-0.2,0.3c-3,8.5-10.7,12.7-16.8,18.4c-3.5,3.3-6.4,6.9-9.3,11.1
		c1.8,0.8,3.8,0.1,5.1,1.9c0.8,2.1-1.1,4.5-0.3,7.1c2.4,0.3,5,0.7,4.2,4.4c2.6-0.2,4.1,1,5.6,2.6c4.1,4.3,9.1,7.7,13.9,11.2
		c2.2,1.6,4.1,3.9,6.1,5.7c4.8,4.3,8.9,9.3,12.1,14.7c2.5,4.2,4.4,8.9,6.8,13.3c0.8,1.5,1.6,3,2.7,4.2c5.1,5.8,9.2,12.2,11.6,19.6
		c0.6,1.8,0.3,3.4-0.4,5c-1.6,3.5-2.3,7.2-1.5,11c0.5,2.4-0.2,4.6-1,6.8c-3,9-5.1,18.4-9.2,27c-2.9,5.9-5.8,11.9-10,17
		C461.4,624.8,457,630.8,454.5,638.1z"/>
	<path d="M726,112.8c0.9-1.5,0.7-3.6,2.2-4.7c-0.3-1.2-1.6-1.7-1.5-3.1c3-1.9,4.3,2.7,7.2,1.7c2.5-0.9,4.4-2.3,6.2-4
		c1.7,0,0.6,1.7,1.4,2.1c1.6,0,1.6-1.8,3.1-2.3c3.5,0.2,7.4-0.4,11.3,0.3c1.6,0.3,3.5-0.7,5.2-1.2c1.7-0.4,3.3-0.8,4.6,0.7
		c1.5-0.2,1.8-2,3.4-2.4c1.3,1.6,0,3.7,0.7,5.4c1.6-0.3,3.1-2.2,4.8-0.4c-0.2,1.8-2,1.7-3.1,2.9c1.5,0.3,2.9-0.7,4.2,0.3
		c0,1,0,2.1,0,3.3c-1.8,2.3-5.3,2.7-6.8,5.6c0.9,3.6,0.2,7.6,2,11.3c0.8,1.7-0.9,3.5-0.6,5.6c1.4,1,3.1,0.8,4.8,0.6
		c7.5-0.8,14.9-0.2,22.2,1.6c5.3,1.3,10.3,3.6,15.6,5.1c1.8,0.5,2.7,1.7,3.3,3.6c2.3,7.8,2.1,12.9-6.3,19.5c-3.3,2.6-6,5.6-8,9.4
		c-2.6,4.9-7.3,7.7-11.8,10.7c-5.8,3.9-12.3,6.3-18.6,9c-1.7,5.2-0.7,10.2,0.7,15c2.5,8.5,2,17.1,2,25.7c0,3.7,0.1,7.3,0.1,11
		c0.1,11.3-1.5,22.1-8,31.7c-0.6,0.9-1,1.9-1.3,3c-2.2,8.7-3.8,17.4-3.3,26.5c0.2,3.8-0.5,7.6,1.2,11.2c0.4,0.8,0.1,1.6-0.5,2.4
		c-3.2,4.7-3,8.2,0.7,12.2c1.2,1.3,2.1,2.7,3.4,3.8c5.8,4.8,7.1,11.2,6.4,18.2c-0.4,4.6,0.1,9,0.8,13.5c1.2,7.5,4.1,14.5,5.6,21.9
		c0.7,3.3,0.9,6.5,0.2,9.8c-0.1,0.5-0.3,1-0.2,1.4c0.3,9.8-0.2,19.5-1.1,29.6c-1.1,1.4-3.1,0.3-5,1.2c0.7,4.7-0.2,9.4-2.9,13.6
		c-0.9-4.4,1.1-8.8-0.4-13.4c-12.9-0.3-25.5,3.3-38.2,4.3c-0.3,1.7,0.4,2.8,0.9,3.8c0.9,1.6,1.6,3.4,2.7,4.8
		c7.6,9.6,7.4,20.5,5.5,31.7c-2.1,12.7-0.1,24.6,7.9,35c3.2,4.2,5,8.9,5.9,14c1,5.4,2.3,10.8,3.9,16c2,6.7,2.5,13.6,3.8,20.5
		c0.2,1.1,0.4,2.1,0.7,3.3c5.4,4.1,11.4,3.3,17.3,2.8c0.6-1.4,0.2-2.3-0.1-3.2c-3.3-8.2-3.4-17-4-25.6c-0.9-14.9-1.5-29.8-1.8-44.7
		c-0.1-3.1-0.4-6.4-1.4-9.4c-1.3-4.2-1.7-8.4-1.5-12.6c0.1-3.2-0.2-6.3-0.7-9.5c-0.3-1.6-0.3-3.3,0.4-4.7c1.8-3.7,0.9-7.1-1-10.4
		l0.1,0.1c0.2-0.6,0.2-1.2,1.4-1.6c1.4,3.8,4.6,7.3,2.1,11.9c-1.2,2.1-1.5,4.3-0.7,6.7c0.6,1.7,0.6,3.6,0.5,5.4
		c-0.4,6.6,1.5,12.8,2.7,19.1c0.2,1,0.5,1.9,0.5,2.9c-0.2,8.6,1,17,1.2,25.6c0.2,12.5,0.4,24.9,1.9,37.3c0.4,3.4,2,6.8,3.1,10.2
		c1-0.5,0.7-1.9,1.9-2.4c1.8-0.4,3.1,0.9,4,2.3c2.5,3.8,3.6,7.9,1.2,12.1c-1.2,2.1-1,3.8,0.3,5.7c2.5,3.8,3.7,8.3,4.9,12.6
		c2,7.2,6.4,12.8,10.6,18.6c2.6,3.7,1.7,9.1-2.3,11.3c-1,0.6-2,0.5-3.1,0c-4.8-2.2-9.8-3.7-14.8-5.1c-7.2-2.1-12.8-6-17.3-12
		c-3.1-4.1-6.6-7.9-11.8-10.1c-6.5-2.8-11.7-7.9-16.5-13.2c-1-1-1.5-2.5-2.1-3.9c-0.5-1.3-0.1-2.2,1.5-2.1l-0.1-0.1
		c1.6,5,6,7.6,9.7,10.7c3.5,2.9,6.9,5.7,11.3,7.3c2.4,0.9,4,3.1,6,4.7c4.9,4.2,7.8,10.6,14.1,13.5c4.5,2.1,9.3,3,13.8,4.8
		c2.7,1.1,5.5,1.8,8.4,2.7c3.5-3.8,3.3-3.8,0.6-8.1c-3-4.6-6.7-8.7-8.9-13.8c-0.2-0.6-1.3,0-1.5-0.8c0.3-0.5,0.6-1,0.9-1.4
		c-0.4-0.9-1.5,0.5-2-1.1c-0.2-0.6,1.5-0.4,1.3-1.7c-1.7,0.4-3.4,1.5-5.4,0.4c0.8-2.1,2.6-2.4,4.5-3c-1.7-3.1-4.4,1.2-6.1-1.7
		c0.4-2,3.3-1.8,4.8-3.7c-2.1-0.5-3.9,0.6-5.6-0.3c0.9-1.5,0.9-1.5,3.8-3.3c-2.1-0.6-4.3,1-6.1-0.8c0.7-1.7,2.6-1.5,3.7-2.4
		c0.4-4.9,3.8-10-0.9-14.9c-1,1.8-2.2,3.5-2.9,5.5c-0.6,1.7-1.8,2.7-3.1,3.4c-6,3.6-16.7-0.9-18.8-7.5c-0.9-3-0.4-6.4-2.6-9.1
		c1.1-1.6,1-3.4,0.5-5.2c-2.5-9.2-4.9-18.4-7.4-27.6c-0.1-0.2-0.2-0.5-0.3-0.7c-0.7-6-4.1-10.7-7.2-15.7c-5.9-9.6-8.3-20.2-6.6-31.6
		c0.7-4.9,1.3-9.9,1.8-14.9c0.4-3.7-1.1-6.9-2.9-10.1c-3-5.2-5.6-10.5-7.3-17c-1.3,6-4,10.7-7.2,15.2c-1.7,2.4-2.8,5.4-3,8.2
		c-0.3,7.1-3.1,13-7.9,18.3c2,1.4,0.3,3.1,0.4,4.6c0.9,11.4-2.3,22.3-4.6,33.2c-2.8,13.2-4.2,26.5-5.2,39.9
		c-0.3,4.6,0.3,9.3,0.6,13.9c0.1,1,0.3,1.9-1.2,2.4c-1.1-0.9-1.2-2.2-1.3-3.5c-1.2-15-0.7-30.1,2.5-44.8c1.8-8.5,3.9-16.9,5.2-25.4
		c0.8-5.2,0.9-10.5,1.1-15.7c0-2.1,0.5-3.8,1.6-5.8c2.1-3.5,3.8-7.4,4.9-11.4c1.3-4.8,3.3-9.3,5-14c0.5-1.3,0.6-2.5,0.2-3.9
		c-0.5-2.1-1-4.2-0.6-7c3.3,1.8,1.7,4.5,1.8,7.4c2.6-5.8,5.8-10.7,4.8-17c-4-0.9-7.9-0.3-11.7-0.3c-2.1,2.8-3.6,6.1-7.2,7.3l0,0
		c1-2.5,3-4.4,4.5-7.3c-7.5-0.6-14.7,1-22-1c0.1,3.4,0.1,6.3,1.3,8.8c2.6,5.7,2.3,11.4,0,17.1c-1.2,2.9-2.3,5.8-2.4,8.8
		c-0.2,4.5-2.7,7.7-5.2,10.9c-1.6,2.1-2.6,4.3-3.4,6.8c-4.2,12.7-2.8,25.6-1.1,38.5c0.9,6.5,2,13,2.8,19.6c0.3,2.3,2.3,3.7,2.5,6
		c0,0.5,0.3,0.9-0.2,1.4c-1.6,0.2-0.4-1.7-1.7-2c0.6,3.1-0.2,6.2,1.6,9.2c1.2,2,0.7,4.6,0.2,6.8c-0.7,3.3-1.5,6.6-2.3,9.9
		c2.4,2.2,2.5,2.3,7.3,2c0.9-1.5-0.4-3.7,1.5-5c1.2,2-0.5,5,2.6,6.3c2.8-0.6,5.9-1.2,9-1.8c3.7-0.7,6.8,2.2,6.3,5.9
		c-0.3,2.7-0.7,5.3-2.1,7.8c3.7,7.9,4.4,16.7,6.4,25.1c0.9,3.8,2.6,7.4,3.9,11c1.3,3.4,0.9,6.7,0.4,10.1c-0.2,1.4-1.2,2.4-2.6,2.8
		c-1.3,0.4-2.6,1-3.9,0.8c-7.5-0.8-15-2.1-21.9-5.4c-7.9-3.8-11-10.9-11.8-19.3c-0.5-4.8-1.2-9.3-5.9-12.2c-5.6-3.5-6.8-9.5-7.4-15
		c2.2-4.5,5.4-7.2,9.1-9.7c2-1.4,3.5-4.1,4.2-6.7c0.6-2.4,1.5-4.3,4.2-5.2c-0.3-9.3-1-18.3-2.6-27.4c-1.6-9.3-3.7-18.5-4.4-27.9
		c-0.9-11.6,0.7-22.6,7.1-32.6c2.6-4.1,5.2-8.1,5.7-13.2c0.4-3.8,1.9-7.5,2.5-11.4c1.1-7.2-2.3-13.6-2.2-20.6
		c-3.7-0.2-6.5,1.6-10.2,2.3c1.5-3,0.6-5.3,0-7.6c-0.9-4,0-8-0.2-12c-0.3-6.8-0.1-13.7-0.7-20.5c-0.2-2.1-0.4-4.1-0.4-6.2
		c0.1-10.6-0.9-21.3-0.8-31.9c0.1-13.1,2.2-25.9,11.3-36.3c0.7-0.8,0.9-2.2,3.1-1.6c-2.4,5-6,9.1-8.1,14.1
		c-2.1,5.2-2.1,10.8-3.1,16.1c-1.1,5.5-1.3,10.9-0.2,16.5c2.3,0.5,4.4,1.3,6,4.1c-2.2-0.8-3.6-2.1-5.9-2.5c0.4,9.1,0.7,18,1.1,26.8
		c0.4,8.5,0.9,17.1,1.3,25.6c0,0.6,0.1,1.4-0.3,1.8c-2.8,3.4-0.6,6.3,0.5,9.8c5.7-2.7,11.4-1.3,17.1-1.2c7.4,0.1,14.9-0.1,22.3-0.3
		c3.1-0.1,6.3,0.9,9.6,0.3c0.3-4.4-0.5-8.6-1-12.8c-0.6-5.6,1.7-10.1,5-14.2c0.5-0.7,0.6-1.3,0.6-1.9c0.2-3.8,2.9-5.6,5.6-8
		c0.5,3.1-1.5,4.5-2.5,6.5c4.7,2.2,9.7,4.1,13.4,8.2c-4.6-2.6-9.6-3.8-14.7-5.9c-0.6,2.8-1.2,5.4-1.8,7.8c2.8,6.3,3.7,13,6.5,19.1
		c-0.4,0.2-0.7,0.3-1.1,0.5c-1.4-3.5-2.8-6.9-4.3-10.4c-0.6-1.4-0.5-3.3-2.8-3.3c0-2.4,0-4.4,0-6.4c-2.1,2.5-2.1,5.4-1.9,8.3
		c0.2,3,0.7,6.1,0.7,9.1c0,2.8,0.6,5.9-2.3,7.9c-0.1,0.1,0.1,0.7,0.2,1.6c15.4-1.2,30.7-4.5,46.1-4.2c2.1-8.6,1-16.7,0.7-24.9
		c0-0.8-0.5-1.6-0.2-2.5c2.3-6.8,0.4-13.3-1.6-19.7c-2.9-9.3-5.1-18.6-4.3-28.4c0.4-5.6-0.1-11.1-4.9-15.1c-0.6-0.5-1-1.1-1.9-1
		c-0.1-0.1-0.1-0.2-0.1-0.2c0-0.1,0,0,0.2,0.1c0.2,1.2-0.5,0.8-1,0.4c-2-1.8-4-3.7-4.2-6.6c-2.2-1.5-5.3-2-5.8-5.8
		c2.1,0.9,2.5,3.5,4.7,3.5c0.3-1.3,0.2-1.1-3.7-4.5c-2-1.7-4.3-1.3-6.5-2.4c-0.4,1.7-0.7,3.2-1.2,5.2c-1-2.1-0.8-3.8-0.8-5.5
		c-0.4-0.9-1.6-0.9-2.3-1.6c-0.8-0.8,0.7-1.6,0.1-2.4c-1.3-0.5-1.5,1.3-2.5,1.4c-0.9-0.8,0.6-1.5,0-2.5c-1.7,0.7-3.8-0.8-5.6,0.3
		c0.1,1.3,1.2,0.8,1.7,1.4c-0.1,0.1-0.2,0.3-0.4,0.3c-2.6,0.3-2.2-1.5-2.3-3.1c-2-1.1-3.7-0.4-5.5,1.3c0.2-1.1,0.4-1.6,0.5-2.4
		c-4,0-7.5-2.9-11.9-1.8c-0.9-1.6-3-2.5-5.4-2.7l0.1,0.1c-2.3-1.4-4.7-0.6-7.3-0.6c0.1,1.3,0.1,2.5,0.2,3.6c0.8,0.4,1.8-0.1,2.2,1
		c-1.7,5.7-4.5,8.1-10.1,8.5c1.9-2.8,5.7-3.4,7.1-6.7c-2.2-1.6-4.6,0-6.7-0.7c-0.9-1.1-0.4-2.5-0.9-3.7c-2,2.1-1.4,5.9-4.7,7
		c-0.2,0.1-0.4,0.1-0.6,0.2c0.1-0.2,0.1-0.4,0.2-0.6c0.4-0.6,0.9-1.1,1.3-1.6c-0.5-0.5-1.3-0.3-1.3-1.2c1.5-2.3,2.8-4.8,2.3-7.3
		c0.6-1.7,2.2-1,2.9-2.2c0.3-9.6-0.9-19.3-2.6-28.9c-1.4-7.7-1.9-15.5-3.6-23.2c-1.3-5.9-3.7-11.4-5.6-17c-2.7-8.2-3.3-16.5-2.4-25
		c0.6-6,0.2-11.9-0.9-17.9c-0.3-1.5-0.9-2.7-1.6-4.1c-2.6-4.8-5.6-9.5-4.3-15.5c0.2-0.8-0.4-1.6-0.8-2.4c-2.1-3.6-4.2-7.1-6.2-10.8
		c-5.5-10-7.8-20.6-6.8-32.1c0.2-2.4-0.4-5,0.3-7.5c1-3.4,3.2-6.2,4.4-9.5c0.6-1.6,2.5-2.2,4.4-1.9c2.1,0.3,4,0.4,6.2-0.7
		c2.3-1.1,5.3-0.6,7.9,0.1c7.7,1.9,15,4.3,20.6,10.4c1.8,2,4.5,3.3,7,4.6c2.2,1.1,4.6,1.9,6.5-0.8c0.9-1.3,2.3-0.2,3.8-1
		c0.1-3.2,3-5.8,2.7-9.4C725.1,113.1,725.7,112.9,726,112.8c0.7,0.2,1.4,0.2,2,0.5C727.3,113.1,726.6,113,726,112.8z"/>
	<path d="M724.3,689.1c-4,4-12.5,4.6-18.4,1.1c2.7-1.4,5.2,0.8,7.5-0.4c2.2-1.2,4.7-1,7.1-1.1c0.7-0.8-0.4-1.4,0.3-2.4
		c2.7,0.9,3.9-0.5,3.6-3.1c1.3-0.7,2.4-0.6,3.4-0.3c4.3,1,8.7,0.8,13.1,0.8c3.6,0,7.1,0.3,10.5-1.9c2.1-1.3,5.2-1.3,7.8-1.6
		c8-0.7,16.1-1.1,24.1-1.1c13.5,0,27,1.1,40.6,0c6.6-0.6,13.4,0.1,20,1.2c1.5,0.2,2.9,0.6,3.8-0.3c1.6,0.3,0.8,1.6,1.6,2.1
		c5.7-0.1,5.5-0.2,6.8,2.6c-0.3,2.2-2,2.8-3.8,3.2c-3.2,0.7-6.3-0.3-9.5-0.3c-1.6,0-3.2-0.3-4.7-0.1c-7.4,0.9-14.8-0.8-22.1,0.2
		c-8.3-3.3-15.9,2.1-24,1.8c-3.6-0.1-7.4,1.8-10.9,0.6c-5.4-1.9-10.5-0.4-15.8,0.1c-2.7,0.3-5.3,1-7.9-0.5c-1.2-0.7-2.4,0.1-3.5,0.4
		c-5.7,1.7-11.3,1.6-17-0.1c-1.1-0.3-2.2-0.3-3.3-0.3C730.6,689.5,727.4,689.7,724.3,689.1z"/>
	<path d="M681.7,377.2c3,0.6,3.4,3,5.5,4.1c0.4-8.6-0.4-17.1,2.6-25.3c-2.2,10.1-0.7,20.1,0.7,30c0.6,3.9-0.1,7.5-0.5,11.1
		c-0.4,3.8-0.8,7.7-2.4,11.4c-1.7,4-0.8,8.1,1.1,12c0.8,1.7,1.8,3.4,0.6,5.1c-5.6-8.8-1.6-18.3-3.3-27.4c0.4,0,0.8-0.1,1.1-0.1
		c0.1,1.6,0.2,3.2,0.2,4.8c1.9-4.5,1.1-9.1,1-13.7C688.3,384.3,683,382.3,681.7,377.2z"/>
	<path d="M747.5,352.4c4.3-2.7,9-2.7,13.7-3c-4.4,1.9-9,3.4-12.6,6.3c-0.5,1.1-0.2,2-0.2,2.8c0,0.7,0,1.5-0.9,1.9
		c-1.1-0.5,0.2-1.5-0.6-2.2c-0.6-0.4-1.5,0.8-2.3-0.2c-1-2,1-3.2,1.4-5.1c-2.1-6.2-3.3-12.6-1.3-19.3c-3.8-2.9-3.3-6.8-3.3-10.7
		c0.2-0.1,0.5-0.1,0.7-0.2c0.5,2.1,1.1,4.1,1.5,6.2c0.2,1.1,0.2,2.2,1.1,3c1.3,1.1,1.1,2.5,0.9,4
		C744.8,341.6,745.3,346.9,747.5,352.4z"/>
	<path d="M739.6,579.5c-0.9-1.1-0.6-2,0.5-2.8c1.4-1,2.9-1.8,4.5-2.4c4.7-2.1,8.2-5.4,9.6-10.6c0.4-1.7,1.2-3.4,4-4.2
		c-2,3-1.9,5.6-1.8,8.4c0.1,2.6-2.1,3.9-4,4.8C748,574.8,743.7,577.1,739.6,579.5L739.6,579.5z"/>
	<path d="M744.7,384.7c0.7-7.6,13.6-14.5,20.1-10.8c-3.7,2.3-7.9,2.1-11.4,3.7C749.8,379.1,747.5,382.2,744.7,384.7z"/>
	<path d="M703.2,348.8c7.1-2.9,28.3,4,32,10.6C725.1,353.2,714.8,348.9,703.2,348.8z"/>
	<path d="M773.1,590.5c0.9-0.3,1.8-0.8,2.8-0.8c1.9-0.1,3.3,0.8,4.1,2.5c0.8,1.6,0.5,3.1-0.5,4.4c-0.7,0.9-1.9,1.5-2.3,2.7
		c-5.7-3.2-5.9-3.5-4.8-7.8C772.1,590.7,772.4,590.4,773.1,590.5z"/>
	<path d="M745,361.6c0.6,2.2-0.6,3.5-0.3,5.2c4.7-2.3,9.5-3.5,14.7-2.7c-3.1,1-6.4,1.2-9.4,2.4c-2.9,1.1-5.7,2.5-8,4.8
		C742.4,368.2,743.4,365.1,745,361.6z"/>
	<path d="M773.1,590.5c-0.2,0.3-0.5,0.6-0.7,0.9c-1,1-2.1,1.6-3.6,1.5c-2.2,0-4-1.5-4.3-3.6c-0.3-2,1.2-4.1,3.2-4.7
		c2-0.5,4.3,0.6,5,2.7C773,588.3,773,589.4,773.1,590.5z"/>
	<path d="M762.1,587.8c-2-0.8-0.3-2.7-2-4.1c-0.6-0.4-1.3,2.4-2.8,0.5c1.1-2.1,2.8-3.9,4.3-5.8c1.8,0.1,2.8,1.2,3.7,2.3
		c1.3,1.4,1.2,3.2-0.5,4C763.2,585.3,762.5,586.4,762.1,587.8z"/>
	<path d="M770.2,448c0.2,2-1.3,3-2.4,4.3c1.3,2.9,2.2,5.8-0.1,8.7c-2.2-2-2.9-6.8-1.1-9.3C767.6,450.4,767.5,447.7,770.2,448
		L770.2,448z"/>
	<path d="M377.2,361.2c4.7-1.1,7.2-4.9,10.3-8.3C387.3,358.9,381.5,363.7,377.2,361.2z"/>
	<path d="M706,459.8c-1.8-2.2,2.1-5.2-1.8-7c1.5-1.7,0-3.3-0.1-5.1c0.9-0.8,1.8-0.3,2.8,0C706.4,451.7,709.9,455.9,706,459.8z"/>
	<path d="M371.6,349.6c2.1,3.8,2.2,7.8,3,11.8C371.1,360.7,369.9,355.7,371.6,349.6z"/>
	<path d="M403.7,356.6c-1.3-4.4-0.8-8.2-0.9-12.2C405.5,346.2,405.8,350.1,403.7,356.6z"/>
	<path d="M739.2,387.2c-4.2-4.2-3.5-9.3,1.7-12.4C739.8,379,736.5,382.6,739.2,387.2z"/>
	<path d="M705.1,461c-0.5,4.3,2.4,7.6,2,11.7C703.9,470.6,702.7,463.9,705.1,461z"/>
	<path d="M696.2,452.4c-0.9-4-0.9-7.2-0.5-10.8C698.3,445.5,698.6,449.1,696.2,452.4z"/>
	<path d="M766.7,503.3c0.7,2.9,1.3,5.9,2.2,8.8c1,2.9,1.5,5.7,0.4,8.8C768.2,515,766.5,509.3,766.7,503.3z"/>
	<path d="M755.9,448.9c2,3.3,4.6,5.3,9,4.3c-1.6,2-3.3,2.4-5.5,1.8C756.2,454.1,756.5,451.3,755.9,448.9z"/>
	<path d="M686.5,497.7c-1.7-5.4,1.3-9,2.3-13C689.3,489,688.4,493,686.5,497.7z"/>
	<path d="M722.4,400.9c4.1-3.4,8.1-6.9,13.6-9.1c-0.5,2.8-2.7,2.7-4,3.6c-1.5,1.1-3,2.1-4.5,3.1s-3.1,1.9-4.7,2.8
		c-0.2,0.1-0.4,0.1-0.6,0.2C722.2,401.2,722.3,401.1,722.4,400.9z"/>
	<path d="M708.7,338.4c-4.1,0.6-8.2,1.1-12.3,1.7c3.8-2.3,7.9-3.2,12.3-2.6C708.6,337.8,708.6,338.1,708.7,338.4z"/>
	<path d="M375.3,333c2.4,2.5,2.9,5.7,2.9,9.1C375.2,339.8,375.9,336.2,375.3,333z"/>
	<path d="M403.5,357.8c0.4,4.4-0.5,8.1,0.6,12.6C401.5,367.5,401.3,361.7,403.5,357.8z"/>
	<path d="M697.8,486.8c-0.3-2.4,0.2-4.7,1.4-7.4c0.7,1.6-0.6,2.6,0.1,4.2c1.3,1,2.2,2.9,2.6,5.3c-1.8-0.4-1.5-2.3-2.6-3
		C698.8,486.1,698.9,487.2,697.8,486.8z"/>
	<path d="M686.2,500.9c-0.4,4.3-0.8,8.5-1.1,12.8c-1-4.4-0.2-8.6,0.4-12.8C685.7,500.9,686,500.9,686.2,500.9z"/>
	<path d="M756,505.5c0.9,5.2,0.1,7.4-3.4,8.6C753.1,510.7,755.6,508.5,756,505.5z"/>
	<path d="M692.5,344.8c-4,0.9-7.9,1.6-12.4-1c2.9-0.8,4.7,0.8,6.8,0.8C688.8,344.6,690.7,343,692.5,344.8z"/>
	<path d="M713.8,456.4c-2.3,2.5-2.6,2.5-4.9,0.1C710.5,453.9,711.4,453.8,713.8,456.4z"/>
	<path d="M381,353.7c-2.6-3.4-2.8-4.7-1-8.7C380.7,347.8,379.8,350.9,381,353.7z"/>
	<path d="M691.6,472.2c1.5,3.3,0,6.1-1.5,8.9C689.9,478,691.4,475.2,691.6,472.2z"/>
	<path d="M747.3,457.6c1.8,3.8,3.4,7.1,2.2,11.7c-1-2.4-0.4-4.3-1.2-6.1C747.5,461.6,746.3,460,747.3,457.6z"/>
	<path d="M391.5,360.4c2.7,2.1,3.4,5.3,4.4,8.3C393.4,366.5,392.7,363.3,391.5,360.4z"/>
	<path d="M739.8,320.8c-1.4,2.5-2.9,5.1-4.3,7.6c-0.2-0.1-0.5-0.3-0.7-0.4c1.7-2.5,1.7-5.8,4.1-7.8
		C739.2,320.4,739.5,320.6,739.8,320.8z"/>
	<path d="M691.2,561.6c-2.9-2.2-1.1-5.2-1.2-7.8C691.2,556.3,690.8,559,691.2,561.6L691.2,561.6z"/>
	<path d="M749.1,436.2c0.3,3.6-0.9,6.4-1.8,9.6C746.7,442.8,747.2,440,749.1,436.2z"/>
	<path d="M707.2,437.8c0,0.5,0.1,1,0,1.4c-0.7,1.8-1.5,3.5-2.3,5.4C703.5,441.2,704.4,438.8,707.2,437.8L707.2,437.8z"/>
	<path d="M722.7,315.2c-3.2,1.6-6.5,0.9-9.8,0.2C716.1,314.1,719.4,315.9,722.7,315.2z"/>
	<path d="M691.8,337.2c-0.2-3.3-0.5-6.6-0.7-10c0.3,0,0.6,0,0.9-0.1C692.9,330.5,692.7,333.9,691.8,337.2z"/>
	<path d="M770.6,567.4c-1.8-2.5-1.5-4.8-1.5-7.1C770.8,562.2,771.2,564.3,770.6,567.4z"/>
	<path d="M762,489.9c0.9,3,1.7,6,2.6,9.1C762.8,497,761.8,493.8,762,489.9z"/>
	<path d="M702.5,491.7c0.6,2.4,1.1,4.9,1.7,7.4c-2.5-1.9-2.1-4.7-2.7-7.1C701.8,491.8,702.1,491.8,702.5,491.7z"/>
	<path d="M378.8,305.3c2.1,1.9,2.6,3.9,0.8,6.6C379.3,309.4,379.1,307.4,378.8,305.3z"/>
	<path d="M396.8,295.5c-3,1.5-5.2,2.3-7.7,2.6C390.9,295.9,393.3,295.5,396.8,295.5z"/>
	<path d="M698.5,475c-1.5-1.5-2.1-3.2-1.7-5.6C699,471.1,698.4,473.2,698.5,475z"/>
	<path d="M394,313.6c-1.7-1.7-1.5-3.9-1.9-5.9C394,309.3,394,311.5,394,313.6z"/>
	<path d="M690.7,468.4c-0.8-2.1-0.9-4.1,0.7-6.5C692.4,464.5,691,466.4,690.7,468.4z"/>
	<path d="M767.1,463.8c1.8,1.7,2,3.4,2.4,5.1C767.8,467.9,767,466.4,767.1,463.8z"/>
	<path d="M757.5,497.6c1.3,1.7,1.7,3.3-0.2,4.9C756.5,500.7,757.2,499.1,757.5,497.6z"/>
	<path d="M389,350.1c0-2.8,2.7-2.9,4.1-4.4C392.8,348.2,389.8,348.1,389,350.1z"/>
	<path d="M707.8,322.6c0.1-1.5,0.1-3,1.8-4.2C710.3,320.5,708.1,321.1,707.8,322.6z"/>
	<path d="M373.2,330.6c-1.6-1.3-2.3-3-2.1-5C371.8,327.3,372.5,328.9,373.2,330.6z"/>
	<path d="M754.2,480.4c-0.9-1.3-1.1-2.6-0.7-4.3C755.1,477.4,755,478.9,754.2,480.4z"/>
	<path d="M374.5,301.3c2.2,0,3.1,0.9,3.8,2.6C376.3,304.2,375.4,303.4,374.5,301.3z"/>
	<path d="M386.4,300.2c2.3,1.1,2.7,2.7,3.7,4.9C387.9,303.8,387.1,302.4,386.4,300.2z"/>
	<path d="M764.5,541.8c-0.8-1.4-1.5-2.9-1.5-5.1C764.5,538.4,764.1,540.2,764.5,541.8z"/>
	<path d="M725,323.8c1.2-0.9,2.3-2,4.5-1.7C728.1,323.8,726.6,324,725,323.8z"/>
	<path d="M722.3,323.6c-1.1-1.1-1.4-2.2-0.1-3.3C724.1,321.4,722.3,322.6,722.3,323.6z"/>
	<path d="M691.2,561.7c1,1.4,1.7,2.9,0,4.7C690.4,564.6,690.7,563.1,691.2,561.7L691.2,561.7z"/>
	<path d="M401.8,365.7c-2.4-1-2.5-2.5-3.1-3.9C400,362.5,400.9,363.6,401.8,365.7z"/>
	<path d="M710.3,469.9c-1.6,0.1-2.4-0.3-2.3-1.9C709.5,467.7,709.8,468.7,710.3,469.9z"/>
	<path d="M772.3,395.2c1.8-0.4,2.5,0.2,2.9,1.6C774,396.9,773.2,396.3,772.3,395.2z"/>
	<path d="M687.4,326.1c-0.2-1.4,0.5-2.3,0.8-3.4c1.1,0.6,0.6,1.3,0.4,1.9C688.5,325.2,688.3,325.8,687.4,326.1z"/>
	<path d="M707.1,310.3c0.3,1.6,0.3,1.6-1,2C705.5,311.4,706.1,310.8,707.1,310.3z"/>
	<path d="M416.6,300.5c-1.7,1-2.4,0.3-3.3-0.2C414.3,299.3,415.1,299.9,416.6,300.5z"/>
	<path d="M717.4,434.5c-0.9-0.9-0.6-1.4-0.2-2.1C718.3,433,718.3,433.6,717.4,434.5z"/>
	<path d="M696.5,439c-1-1.8-0.7-3-0.2-4.6C697.3,436,697.2,437.2,696.5,439z"/>
	<path d="M756.1,491.8c1.3,0.5,1.1,1.5,0.9,2.6c-0.9,0.2-0.9-0.5-1.1-1C755.6,492.8,755.5,492.3,756.1,491.8z"/>
	<path d="M754.9,484.2c0.6,0.6,0.7,1.1,0.3,1.8c-1.1-0.3-1-1-0.9-1.7C754.5,484,754.7,484,754.9,484.2z"/>
	<path d="M687.2,472.5c0.2,1.4-0.5,2.1-1.2,2.8C685.8,474.2,685.7,473.2,687.2,472.5z"/>
	<path d="M383.2,321.7c0.7,1,0.3,1.4-0.6,1.9C382.3,322.8,382,322.2,383.2,321.7z"/>
	<path d="M685.1,479.5c0.4,1.3,0.2,2.1-1,2.6C683.8,481,684.1,480.3,685.1,479.5z"/>
	<path d="M708.4,329.1c0,1-0.6,1.1-1.4,1.4C707.1,329.6,707.3,329.1,708.4,329.1z"/>
	<path d="M381.3,314.5c0.8,0.7,0.6,1.2,0.1,1.6C380.4,315.6,380.8,315.2,381.3,314.5z"/>
	<path d="M711.4,310c0.4,0.8,0.9,1.5-0.2,2.3C709.9,311.3,710.7,310.7,711.4,310L711.4,310z"/>
	<path d="M722.7,401.2c-0.5,0.8-1.1,1.5-2.3,2c0.2-1.4,1-1.9,1.9-2.4C722.5,401,722.6,401.1,722.7,401.2z"/>
	<path d="M419.8,304.6c-0.6,0.6-1.2,0.7-1.8-0.1C418.6,303.9,419.2,303.9,419.8,304.6z"/>
	<path d="M691.2,318.4c-0.3,0.6-0.9,0.8-1.5,1c-0.2-1,0.5-1.1,1.1-1.4C690.9,318.1,691.1,318.2,691.2,318.4z"/>
	<path d="M754,445.2c-1-1.1-0.6-1.6-0.3-2.2C754.5,443.6,754.3,444.2,754,445.2z"/>
	<path d="M688.7,537c0-0.7,0-1,0.5-1.1C689.3,536.2,689.4,536.6,688.7,537z"/>
	<path fill="#FFFFFF" d="M466.6,305c0.6-0.4,1.1-1.2,1.9-0.7c2.3,1.5,4.9,1,7.4,1c8.5,0,17.1-0.4,25.2,3.5c2.1,1,4.5,0.8,6.7,1.9
		c4.5,2.2,6.6,6.9,4.6,11.7c-1.2,2.8-2.7,5.5-5.4,7.3c-3.5,2.4-6.2,5.6-8.2,9.2c-2.7,4.7-6.5,8.2-11.1,10.9c-4,2.3-8,4.7-12.5,6.1
		c-3.5,1.1-6.7,2.9-10,5.8c1.1-6.9,0.6-13.1,2.1-19.3c-2.2,2.2-3.5,5.2-3.1,7.7c0.6,4.2-1,7.8-1.6,11.8c-3-7-6.6-13.6-9.9-20.4
		c-0.4,0.2-0.9,0.4-1.3,0.6c1.8,3,2.7,6.3,4.2,9.4c4.1,8.4,6.4,17,5,26.4c-1.4,9.7-3.5,19.1-6.7,28.4c-3,8.8-6.8,17.5-8.8,26.8
		c-1.6,7.5-5.8,13.5-12.7,17.6c-4,2.4-7.3,5.8-10.4,9.2c-1.7,1.8-3.3,3.5-3.9,6.1c-0.4,1.6-1.6,2.9-3.4,3.6
		c-3.3,1.4-6.3,3.7-10.1,4.1c-1.3,0.1-2.6,0.5-3.8-0.1c-0.5-1.4,1-2.1,0.5-3.5c-1.6,0.3-1.8,2.1-3,2.9c-2.8-0.9-5.7-1.8-8.8-2.8
		c0.2-3.3,0.4-6.6-2.8-9.5c-0.3,2.9,0.7,5.4-0.2,8c-2.1,0.2-3.8-0.7-5.3-1.9c-7.5-6.4-18.2-8.7-23.2-17.7c2.3-7.2,6.8-12.5,9.5-18.8
		c1.3-3.1,2.8-6.2,4.7-9.1c1.7-2.5,2.4-5.6,1-8.7c-0.7-1.4,0.2-2.9,0.1-4.3c-0.1-2.8,0-5.6,0-8.8c6.9,1.6,13.1-0.6,19.3-1.6
		c1,0.8-0.6,1.6,0.4,2.8c2.5-4.7,7.7-5.4,11.3-8.4c0.9-0.1,1.2,1,2.2,0.6c0.1-0.1,0.4-0.2,0.4-0.4c0.1-1.8,1-3.1,2.5-4.2
		c9.6-6.9,11.7-17.1,12.5-28c0.5-6.7-2.4-12.6-4.2-18.8c-0.4-1.2-1.4-2.3-0.8-3.6c1.3-0.5,1.8,0.3,2.2,1c2.6,4.4,6.1,8.2,7.9,13.1
		c0.4,1.1,0.9,2.3,1.5,3.4c1.2,2.3,2.1,4.6,2.6,7.3c1,6.3,5.4,10.8,9.9,15c2.2,2.1,6.2,1.4,8.1-1.2c2.7-3.8,4.6-8.2,4.9-12.9
		c0.3-5.2-0.1-10.5-2.1-15.5c-0.5-1.3-1.1-2.3-2.8-3.3c0.4,3-1,4.4-2.7,6.1c-2.4,2.3-3,5.8-3.5,9.1c4.5-2.1,3.4-7.7,6.8-10.5
		c3.8,7.6,2.8,17.9-2.6,26.4c-2.9,1-5.2,0.1-7-2.3c-1.6-2-3.3-3.9-4.4-6.3c-0.8-1.8-0.4-3.8-1.2-5.8c-3.1-7.8-6.8-15.1-11.7-21.9
		c-1.4-1.9-3.2-3.4-5-5c-4-0.3-7.4,1.7-11,3.5c-1.1-0.8-2.1-1.5-3.3-2.4c-0.2-5.5-0.2-11.2-3.7-16.2c3.3-1.3,6-3.1,7.7-6.1
		c1.7,0,3.3,0,5,0c1.3,1.5,2.2,3.4,1.9,5.3c-0.5,2.5,0.7,4.2,2,6c1.5,2,2.5,4.2,2,6.8c-0.3,1.6,0.3,2.8,1.5,3.7
		c1.7,0.7,2.3-1.4,4-1.2c1.3,0.2,1.7-1.7,1.6-3.2c-0.2-4.2,1.2-8.2,1.3-12.4c0.1-1.7,1.1-2.8,2.6-3.7c-0.8-1.3-2.7-0.6-2.7-2.7
		c0.2-0.7,1.6,0.4,2.1-0.5c0.2-1.7,0.4-3.3,0.6-4.9c-0.8-1.4-2.7-2-2.2-4.7c3.1,2.7,2.5,6.3,4.1,9.5c2.5-2.9,2.9-6.5,4.2-9.7
		c1.3-3.3,4.2-5.7,5-9.4c2.1-0.3,3.8-1.3,5.2-2.7c0.4-1.4-1.2-2.1-1.1-3.1c-1-0.9-2.4-0.1-3.1-1.2c2.2-1.2,3.9-0.3,6.2,3.2
		c0.6-2.4,2.7-2.9,4.3-2.6c2.4,0.5,4.9-0.1,7.2,0.7c1.9,0.7,3.8,0.1,5.8-0.9c1,3.9,0.4,7.7,2.5,10.9c0.5,0.8,0,2.1-1.3,2.6
		c-0.8,0.3-1.5,0.7-2.3,1.1c-3.9,1.9-4.6,3.4-3.5,8.1c1.2-0.8,0.5-2.2,1.3-3.1C463.5,305.7,465,304.9,466.6,305
		c1.1,3.4,1.6,6.9,0.3,10.4c-1.1,3.2,0,6.5-1,9.7c-0.3,1.1-5,12.1-5.7,12.9c-3.8,1.4-8.8-1.3-11.3,3.4c-0.5,0.6,0.4,0.3-0.1,0.2
		c0.8-0.8,1.2-1.9,2.3-2.8c2.8,0.3,5.7-0.8,8.5-0.4c1.8-1.1,2.3-2.8,2.7-4.4c0.8-3.5,2.7-5.9,5.5-8.1c3.8-3,6.9-5.2,12.3-3.3
		c3.9,1.4,8.6,0.6,12.5,3.1c-5.6-3.4-12.1-2.2-18.1-4.3c-1.9-0.7-4.1-1.4-6.4-1.5c-2.7-0.1-2.3-2.3-1.6-4.1
		C468.2,312.1,467.9,308.5,466.6,305z"/>
	<path fill="#FFFFFF" d="M426.4,547.6c6.1,2.6,12.9,2.9,19.3,4.6c4.6,1.2,7.5,6.2,5.5,10.5c-1.6,3.3-3,6.6-5.2,9.7
		c-4.1,5.6-4.1,12.2-3.5,18.7c0.6,7-0.6,13.6-2.6,20.2c-2.1,6.6-4.5,13.2-6.7,19.8c-1.2,3.5-1.9,7.1-2.6,10.8
		c-3.4-0.6-3.3,2.3-4.2,4.2c-3.5-1-7.6,3.2-6.5,7.1c0.6,2.2,0.4,4-0.7,5.9c-0.3,0.5-0.7,1.1-0.7,1.7c0.1,5.3-3.3,9.5-4.6,14.8
		c-9.4-3.6-15.3-11.5-22.9-16.8c2.2-6.1,2-6.6-3.3-8.2c4-13.1,5.8-26.9,13.3-38.8c5.2-8.2,9.9-16.7,14.4-25.4
		c2.4-4.5,2.9-9.6,3.5-14.5c0.4-3.2,1.4-6.1,3-8.8c0.8-1.4,1.7-2.8,1.3-4.5C422.2,554.3,423,550.7,426.4,547.6z"/>
	<path fill="#FFFFFF" d="M407.6,596.7c-0.6-1.7,1.3-2.9-0.3-4.6c-9,19.1-19.2,37.4-21.8,58.1c-2.9,2-5.7,1.7-8.4,2.6
		c1.1-4.6,0.2-9.2,0.6-13.8c-1.9,4.2-1.2,8.9-2.5,13.4c-2.4,0.8-5,1.4-8,0.8c2.7-4.4,2.9-9,3.4-13.8c0.8-7.8,2.8-15.3,4.4-22.9
		c1.1-5.3,1.4-10.7,1-15.9c-0.4-6.2-0.4-11.8,3-17.5s7.4-10.9,10.5-16.7s2.2-8.9-1.9-12.3c-3.2-2.6-6.4-5.2-9.5-7.7
		c1-6.4,3.3-11.7,7.7-16.7c4.9-5.7,10.7-6.3,17.2-6.6c1.5,1.1,1.2,3.5,3.1,4.3c1.1-1.9-1-2.6-1.2-3.9c5.6-2.9,11.6,0.5,12.3,7.4
		c0.4,3.9,1.1,7.3,3.9,10.3c1.7,1.8,1.9,4.4,1.1,7c-1.2,3.6-1.9,7.1-1.8,11.1c0.1,3.2-1,6.5-2.3,9.5c-2,4.6-3,9.5-4.5,14.3
		C412.1,587.6,410,592,407.6,596.7z"/>
	<path fill="#FFFFFF" d="M461.3,616.2c-1.3,5.9-5.4,10.8-7.4,16.6c-1.7,5-5.3,8.2-9.2,11.3c-3.1-2.1,0.2-4.9-1-7.2
		c-2.2,1.4-2.2,4.1-3.7,5.9c-2,0.3-4.1-0.2-6.5-0.3c0.4-4.5,1.5-8.7,3.8-12.4c1.8-2.9,2.6-6,3.3-9.2c1.4-6.4,3.8-12.6,4.8-19.1
		c0.2-1.3,0.6-2.7,0.4-4c-1.4-7.3,1.2-14.3,2-21.4c0.1-1.3,0.8-2.3,1.4-3.4c1.4-2.7,3.1-5.2,4.2-8.1c2.9-7.3,3-7.2-2-12.9
		c0.8-1.4,2,0.8,2.8-0.3c0-0.2,0.1-0.6,0-0.6c-0.9-0.5-1.9-0.9-2.8-1.7s-2.3-1.5-3.4-1.3c-6.5,1.4-12.4-1.7-18.6-2.6
		c-1.6-0.2-3.8-0.4-4.2-3.6c7.6-1.6,14.1-5.8,20.7-9.9c6.6-4.2,12.6-9.2,18.7-14c1.4,0.4,1.7,1.7,2.3,2.8
		c3.7,7.1,8.1,13.9,13.2,20.2c3.6,4.4,6,9.7,5.5,15.8c-0.1,1.2-0.5,2.1-1.1,3c-0.7,1.3-1.2,2.6-1.3,4.2
		c-0.6,13.3-4.9,25.5-10.3,37.5c-2.6,5.7-6.2,10.7-10.2,15.4C462.2,616.8,462.4,615.8,461.3,616.2z"/>
	<path fill="#FFFFFF" d="M415.4,474.7c-2.9,2.3-5.7,4.8-4.9,9c-1.9,1.6-4,1.4-6,1.6c-1.9,0.2-3.8-0.7-5.8-0.2
		c1.5,2.9,3.5,3.4,11,2.8c0.3,1.4-1.2,2-1.4,3.1c2.4-0.1,3-0.6,6.5-4.7c0-0.9-0.8-0.7-1.4-1c-0.4-5.6,4.8-7.6,7.1-12
		c1.5,2.1,1.8,3.8,2,5.7c3.7,0,3.9,6,8.4,4.5c1.1,1.6,2.6,2.6,4.1,4c-2.3,0.7-4.4,1.4-6.4,2.1c0,0.1,0,0.2,0,0.3
		c0.7-0.1,1.5-0.1,2.2-0.2c4.4-1.2,8.1-0.1,11.4,3c4.2,4.1,8.5,8.1,12.6,12.3c2.9,3.1,5.5,6.5,8.2,9.7c-9.7,9.8-8.8,10.5-38.8,25.4
		c-4.2-1.9-2.4-5.8-3.2-9.2c2.7-0.4,5.3-0.5,7.4-2.6c-2.4,0.3-4.8,0.6-7.3,0.9c-1.8-3.6-4.1-6.8-7.4-9.5c2.6-0.2,5.1-0.2,7.6-0.7
		c2.4-0.5,4.7-1.1,7.1-1.8c-5.8-0.5-11.6,1.1-18.4-0.6c-1.5-1.1-2.1-4.2-4.8-7c3.8,0.3,5.6-4.5,9.2-1.7c1.2-3.9,5-2.7,7.6-3.7
		c2.9-1.1,6.2-1.1,9.5-2.4c-3.9-0.8-7.4,0-10.8,0.8c-3.9,0.9-8.1,1.1-11.7,3.3c-0.3,0.2-0.7,0.2-1,0.3c-3.2,2.1-3.2,2.1-5-1.5
		c1.5-1.3,3.9-1.1,5.3-3.3c-2.3-0.6-4,0.2-5.8,0.6c-3-2-3.9-5.2-5.9-8.6c5.1,2.5,9.8,4.9,15.4,2.9c-1.1-1.9-2.6-1.6-3.8-1.5
		c-4.9,0.2-9.8-1.3-12.9-4.5c-4.7-4.8-11-6.3-16-10.2c-1.6-1.3-3.6-2-5.8-2.1c-2.3-0.1-4.5-0.1-5.8,2.7c-2.3-3.4-5.2-5.6-9-4.8
		c-2.8,0.5-5.4,0.1-8-0.1c-3.6-0.3-7-0.1-10.5,0.7h0.1c0.8-4.4,1.7-8.3,6.7-10.2c3.7-1.4,7.3-3.5,8.5-7.7c1.1-0.6,1.7,0.5,2.6,0.4
		c0.2,0,0.3-0.1,0.5-0.1c1.3-0.2,2.4,0.3,3.1,1.4c1.2,1.8,3.1,3,4.9,4c0.1,0.2,0.1,0.3,0.2,0.5c5,4.5,14.1,8.3,18.2,7.5
		c2.4,1.6,4.8,4.3,8.3,2.1c1.8,3.2,4.5,4.5,8.4,4.5c-0.9-1.6-2.6-0.5-3.3-1.8c2.5-1.1,5.2,0,7.7-1.2c0.9,1.1-0.8,1.8,0.1,3
		c3.3-0.8,5.9-3.3,9-4.7C415.2,474.4,415.3,474.5,415.4,474.7z"/>
	<path fill="#FFFFFF" d="M361.8,517c-2.5,4.2-2.8,9.1-3.8,13.7c-0.3,1.3-0.5,2.6-1,4.7c-1.9-3.3-3.9-5.9-5-8.8
		c-1.4-3.6-3.4-6.4-6.5-8.4c-2.4-1.5-3.6-3.5-4.3-6c-1-3.4-2.5-6.6-3.8-9.9c-2.3-5.7-2.2-11.6-1.8-17.5c3.6-2.4,7.4-3,11.3-4.4
		c0.3,2.8-0.5,4.5-2.7,5.7c-2.4,1.4-4.6,3.2-6.1,5.7c-1.5,2.6-1.2,4.1,1.8,6.6c-2.3-4.2,0.1-6.4,2.6-8.4c5.4-4.2,11.8-6.8,18-9.6
		c1.4-0.6,2.8-0.2,3.8,0.7c3.6,3,7.5,3.9,12.3,3.7c5-0.3,9.3,2.8,13.8,4.3c1.6,4.6,4.9,7.9,7.5,11.7c0.7,1.1,1.8,2.1,2.3,3.4
		c2.1,6.1,5.2,11.5,11.1,16.1c-2.4,0.1-4,0.7-5.4,0.2c-5.2-1.7-10.1,0.2-14.7,1.7c-5.1,1.7-8.7,6-11.3,10.9c-1,1.9-1.9,4-3.1,6.6
		c-2.3-4.2-5.4-7.2-7.8-10.8c-0.8-1.2-0.6-2.6-0.4-3.9c0.2-1.9,0.8-3.8,0.4-6c-2.2,1.2-1,3.3-1.9,5.1c-2.1-4.4-3.5-9-6.7-12.5
		c-3.2-3.5-7.4-5.9-10.4-9.8c3.2-3.3,7-5.8,9.5-9.7c-5.1,3.1-9.3,7.4-14.3,10.7c1.4,1.1,2.4-0.2,3.8-0.2c2.2,2.5,4.5,5.1,7.2,8.2
		c-1.2,2.1-3.1,4.9-3.6,8.3c2.4-2.1,2.9-5.5,5.1-8C359.5,512.7,361.6,514.2,361.8,517L361.8,517z"/>
	<path fill="#FFFFFF" d="M389.9,654.5c0.5,2-0.8,3-1.4,4.5c-2.9,0.4-5.9,0.9-8.5,2.6c0.7,1.4,1.9,0.3,2.7,1
		c-0.4,1.4-2.5,0.8-2.8,2.5c4.6,1.6,9.2-0.3,13.8-0.2c-3.2,1.6-7.3,0.1-10.2,2.9c0.2,2.1,4,0.4,2.7,3.6c4.1-1,8-0.7,11.2-3.7
		c5.6,5,11.8,9.4,19.6,10.8c0.3,1.7,0.7,3.4,0.9,5c0.5,3.3-0.8,5.7-4.1,5.6c-8.5-0.1-16.6,2.5-25.1,2.4c-3.5,0-6.5-1.8-9.9-2.4
		c-7.7-1.1-15.5-1.9-23-4.6c2-3.8,1.9-8.3,4.4-11.9c0.6-0.9,0.2-1.9-0.1-2.8c-0.6-2.2-0.4-4.2,1.8-5.7c1.3,0.9,2.8,1.7,4.8,2.4
		c2.9-1.6,5.4-4.8,9.5-4.3c1.3-2.3,4.7-3.2,3.9-6.6C383.6,655.3,386.5,653.6,389.9,654.5z"/>
	<path fill="#FFFFFF" d="M483,675.7c-9.1,0.5-18,1.6-27,2.3c-5.4,0.4-10.9-0.1-16.4-0.3c-2.3-0.1-4.6-0.2-6.8,0.7
		c-3.7,1.4-10.9-0.2-15.9-3.2c0.8-1.9,1.1-4,2.9-5.6c1.2-1.1,1-2.7,0.9-4.2c-0.1-2.7,0.2-5.4,1.8-7.7c1.4-2,0.8-3.9-0.5-5.7
		c0.5-1.6,1.7-2.4,2.4-3.7c1.7,1.1,1.7,3,2.7,4.3c1.7,2.4,2.9,2.9,5.5,1.6c1.5-0.7,3-1.6,4.4-2.7c4.6-3.6,9.6-6.4,14.9-9.7
		c-0.3,3,1.5,5.3,0.6,8c-1,1.2-2.9,1.4-3.3,3.1c0.5,0.8,1.5,0.1,2.1,0.8c-1,0.9-2.7,1.1-3.4,3c3,0.1,5.5,1.5,8.2,2.6
		c0.8,0.5-0.6,0.6-0.2,1.5c0.9,1.3,2.6,0.2,3.9,0.9c0.3,0.4-0.5,1.1,0.2,1.6c2.2-0.4,4.6-0.2,6.2-1.8c1.6,1.3-0.3,2.2,0.2,3.4
		c6.1-0.6,12,1.1,18.5,2.5C486.3,669.9,484.1,672.6,483,675.7z"/>
	<path fill="#FFFFFF" d="M361.7,517.1c3.1,3.6,4.5,8,4.9,12.6c0.2,3.2-0.5,6.5-0.5,9.9c0.8-2.7,1.6-5.5,1.7-9.3
		c3.4,3.9,7.2,7.3,7.5,11.5c0.4,4.1-1.2,8.7-4.6,12.4c-3.2-6.1-7.1-11.5-12.8-15.6C358.7,531.2,362.3,524.5,361.7,517.1L361.7,517.1
		z"/>
	<path fill="#FFFFFF" d="M376.8,549.9c3.4,2.2,6.6,4.2,9.7,7.1c-4.5,3.5-9,1-13.4,1C372.6,554.1,375.3,552.4,376.8,549.9z"/>
	<path fill="#FFFFFF" d="M439.3,646c-2.8,3-5,5.7-8.7,6.5c-1.2-0.5-1.6-1.6-2.1-2.9c0.6-1.3,1.3-2.7,2-4.1
		C433.3,645.6,436,646.3,439.3,646z"/>
	<path fill="#FFFFFF" d="M375.8,659.3c-3.7,0.4-7.5,1.2-10.6,4.2c-1.5-2.8-0.3-4.6,0.8-6.7c3.5,0.5,6.8,0.1,10-1.4
		C376.5,656.6,376.7,657.6,375.8,659.3z"/>
	<path fill="#FFFFFF" d="M357.9,479.1c-3.8,1.7-6.9,3.2-10.1,4.6C348,478.9,350,477.9,357.9,479.1z"/>
	<path fill="#FFFFFF" d="M340.2,476.6c1.6,1.3,3.7,0.6,6.2,1.5c-3.8,1.5-6.8,2.7-10,4C337.7,480.3,339,478.4,340.2,476.6
		L340.2,476.6z"/>
	<path fill="#FFFFFF" d="M365.4,460.6c3,2.2,6.1,4.4,9.7,7c-3.7,0.4-5.2-3.4-8.2-2.7l0.1,0.1c-1.5-1-3.6-1.6-2-4.1
		C365.1,460.8,365.2,460.7,365.4,460.6z"/>
	<path fill="#FFFFFF" d="M425.9,280.1c2,1.6,3.4,2.6,5.3,2.5c-1.9,1.5-4.7-0.9-6.4,1.7C425.2,283,426.2,282.1,425.9,280.1z"/>
	<path fill="#FFFFFF" d="M423.7,326.9c-0.8-1.9-0.7-3.9,0.5-6.3C425,323.2,424,325,423.7,326.9z"/>
	<path fill="#FFFFFF" d="M417.5,473.1c-0.2-0.9,0.1-1.6,0.5-2.5c1.2,0.2,2.4,0.3,3.5,0.4C420,471.4,418.7,472.1,417.5,473.1
		L417.5,473.1z"/>
	<path fill="#FFFFFF" d="M360.9,456.9c2.2,0.3,3,2.4,4.4,3.7v-0.1c-3,1.3-3.8,0.8-4.7-3C360.8,457.3,360.9,457.1,360.9,456.9z"/>
	<path fill="#FFFFFF" d="M358.1,459.2c0.6-2.4,1.4-3,2.9-2.2l0.1-0.1C360.5,458.2,360.4,460.2,358.1,459.2L358.1,459.2z"/>
	<path fill="#FFFFFF" d="M426.7,296.9c-0.2-1.3-0.6-2.2,0.5-3.1C428,295,426.7,295.7,426.7,296.9z"/>
	<path fill="#FFFFFF" d="M422.6,291.1c1.2,0.1,1.5,1,1.6,2c-0.4,0.5-0.7,0.3-1.8-1.5c-0.1-0.1-0.1-0.2-0.1-0.3
		C422.4,291.2,422.5,291.2,422.6,291.1z"/>
	<path fill="#FFFFFF" d="M451.8,275c-0.4,1-1,1.4-1.6,1.8C450.1,275.4,450.1,275.4,451.8,275z"/>
	<path fill="#FFFFFF" d="M454.1,282.7c0.9-0.1,1.5,0.3,2.1,0.8C455.3,284,454.6,283.6,454.1,282.7z"/>
	<path fill="#FFFFFF" d="M437.2,283.2c-0.3,0.9-0.7,1.5-1.4,1.7c-0.7-0.4-0.3-0.7,0-1.1C436.1,283.4,436.4,283.1,437.2,283.2z"/>
	<path fill="#FFFFFF" d="M425.1,305.6c0.9,0.6,1.4,1.2,0.1,2.2C424.9,307.1,424.5,306.5,425.1,305.6z"/>
	<path fill="#FFFFFF" d="M439.3,290.2c0.5,1.3-0.2,1.5-0.9,2C438.2,291.2,438.3,290.7,439.3,290.2z"/>
	<path fill="#FFFFFF" d="M471,278.2c-0.1,0.6-0.4,1.1-0.9,1.5c-1-0.2-0.6-1-0.9-1.5C469.9,277.8,470.4,277.7,471,278.2z"/>
	<path fill="#FFFFFF" d="M464.8,272c1,1.1,0.6,1.5-0.1,2C463.9,273.4,464.7,272.8,464.8,272z"/>
	<path fill="#FFFFFF" d="M411.9,473.2c-0.6,0.6-1,1.1-1.8,1.1C410.1,473.4,410.6,473,411.9,473.2z"/>
	<path fill="#FFFFFF" d="M417.5,473c0.1,1.5-1.1,1.4-2,1.7c-0.1-0.1-0.2-0.2-0.3-0.4C415.8,473.6,416.4,472.9,417.5,473
		C417.5,473.1,417.5,473,417.5,473z"/>
	<path fill="#FFFFFF" d="M431.6,295.1c-0.3,0.6-0.5,1-1.3,0.8C430.3,294.9,430.7,294.7,431.6,295.1z"/>
	<path fill="#FFFFFF" d="M435.9,277.2c0.3-0.9,0.6-1.4,1.3-1.2C437.4,276.8,436.9,277,435.9,277.2z"/>
	<path fill="#FFFFFF" d="M464.6,302.6c0.8-0.5,1.3-0.5,1.9-0.2C465.8,303,465.3,302.7,464.6,302.6z"/>
	<path fill="#FFFFFF" d="M769,136.8c0.3-0.2,0.7-0.7,0.7-0.7c2.9,1.9,6.1,1.1,9.2,1c6-0.1,12.1-0.2,17.8,1.5
		c5.4,1.6,11.1,2.9,16.1,5.5c3.6,6.7,1.8,12.6-4.3,17.4c-3.2,2.5-6,5.4-8,9c-2.9,5.2-7.2,8.9-12.3,11.7c-3.9,2.2-7.9,4.2-12.2,5.8
		c-4.8,1.8-10.1,3.5-8.5,11c-1.7-7.1-7.1-11.6-10.2-17.5c-1.2-2.3-0.3-5.2-2.5-7.1c-0.4-0.3-0.5-0.8-1.4-0.7c-0.8,1.7,1.1,2.6,1.5,4
		c-0.2,0.6-1.1,0.5-1.1,1.1c2.2,5.6,6.7,9.8,8.7,15.4c0.4,1.1,1,2.3,1.2,3.5c0.9,4.9,3.3,9.3,5.6,13.6c1.7,3.3,2,6.6,2,10.2
		c0.2,7.9-0.4,15.9,0.5,23.7c0.4,3.2-0.2,6.3-0.6,9.5c-0.2,1.7-0.8,3.3-1.1,5c-0.6,3.6-1.8,6.9-3.7,10.2c-3.4,5.6-5.6,11.9-7.8,18.2
		c-0.7,2.1-1.2,4.2,0.1,6.4c0.7,1.2,0.1,2.6,0.1,4c-0.3,5.2-1.1,10.5,1.3,15.5c0.5,1,0.5,2.1-0.3,3.4c-11.8-1.7-23.5-4.7-35.3-6.8
		c0.4-3.8,0-6-1.9-9.4c-0.9,2.9,0.3,5.5-0.4,8.7c-7.4-2.4-14.8-5.1-23.1-3c0.3-7.4-0.5-14.1-1.5-20.7c-1.8-11.4-2.4-23.1-5.1-34.4
		c-0.6-2.7-1.5-5.4-2.7-8c-3.5-7.4-4.2-15.5-4.9-24.1c2.3,0.7,4.4,1,6.1,2c5.5,3.2,10.6,1.9,15.6-0.8c0.5-0.3,0.9-0.9,1.8-0.7
		c-0.5,2.8-0.7,5.7-1.9,8.6c2.3-1.4,3.9-3.5,4.3-7.1c0.5-4.1,2-7.5,4.8-10.5c2.9,0.8,3.2,4.7,6.6,5.5c-1.2-3.2-3.7-5.5-4.7-8.9
		c2.6-3.5,4.5-7.6,6.2-11.7c2-4.7,2.7-9.6,1-14.7c-1-2.9-1.8-5.8-2.2-8.9c-0.1-0.9-0.1-2-1.3-2.4c-1.6,0.4,0.1,1.8-1,2.4
		c-4-3.9-8.1-7.9-13-11.5c-0.5,2.1,0.9,2.7,1.7,3.5c3.5,3.1,7,6.1,10.6,9c1.7,1.3,2.3,3,2.7,5c1.8,9.4-2,17.2-6.6,24.9
		c-1.5-0.7-1.3-1.9-1.2-3.1c0.9-8.4,0.1-16.6-3.1-24.4c-0.7-1.9-0.7-1.9-2.9-2.9c-0.4,2.6,0.6,4.9,1.8,6.9c1.6,2.6,2,5.2,1.5,8
		c-1,5.9-0.7,11.6,1.3,17.3c0.9,2.4-1,5.1-4,6.4c0,2.4-0.4,4.6-3,6c-3.4,1.8-6.8,4-10.7,2.6c-3.4-1.3-7-2.1-10.6-3.6
		c-0.3-4.6-0.2-9.3,0.5-13.8c0.3-1.9,1.1-3.7,0.7-5.6c-0.3-1.4-0.5-2.9-3.2-2.5c2.5-2.7,5.1-4.2,6.6-6.8c1.3-2.3,3.7-4.3,2.8-7.5
		c-3.4,3.5-5,8.2-8.7,11.8c-2.1-3.9-4.1-7.6-5.8-11.5c-1.3-2.9-1.2-6-1.7-8.9c-0.6-3.7-2-7.1-3.9-10.2c-6.3-9.8-8.1-20.9-9.2-32.1
		c-0.5-5.7,0.8-9.1,5.4-16.6c3.6,0,7.1-0.2,10.9-1.2c3.6-1,7.8,1.4,11.7,2.3c3.1,0.8,5.8,2.4,8.2,4.6c3.7,3.4,8.2,5.7,12.6,8
		c2.3,1.3,4.9,1.1,7.3-0.4c2.8-1.8,3.7-1.4,4.7,1.7c0.6,1.8,1,3.5,0.3,5.4c-0.4,0.9-0.6,2-0.2,2.9c1.8,4.6,1.5,9.3,0.6,14
		c-0.2,1-0.2,1.9-0.7,2.8c-1.2,2.1-1.3,4.4-0.5,6.7c0.5,1.3,0.6,2.5-0.6,3.8c-0.4-4.3-2.7-7.4-5.6-10.3c0.8-2.3,0.1-4.4-0.3-6.5
		c0.4-0.4,1.3,0,1.5-1c-1.6-3.3-4.6-5-7.8-6.5c-1.3-0.6-2.8-0.9-4.2-1.2c-4-0.9-8.1-1.5-11-4.8c-0.8-0.4-1.8-0.7-2.6-1.1
		c0.8,0.5,1.7,0.8,2.6,1.1c-0.7,1.8,0,3.3,1.2,4.6c4.8,4.9,7,10.7,6.6,17.6c-0.1,2.1-0.4,4.4,1.5,7c1.2-8.1,2.4-15.4-3.1-22.5
		c4.7,0.9,8.5,1.9,12.4,3.4c0.7,3.4,3.4,6.3,1.8,10.1c3.1,3.7,5.6,7.4,4,12.7c-0.7,0.6-2.3,0.8-2.3,2.5c1.3,1.3,2.5-0.3,4.1,0.1
		c1.3,1,3.1,2.1,4.1,3.9c-0.3,0.9-1.6-0.1-1.8,1.3c0,0,0,0.5,0.2,0.6c5,2.1,7.2,6.7,9.7,11.1c3.1,5.5,6.7,10.5,12.7,13.2
		c1.1,5,1.3,10,3.9,14.4c0.3-4.3-0.8-8.5-1.1-12.9c2.1-0.1,4.3,0.9,6.5-0.9c-0.1-6.7-2-13.4-2.5-20.3c-0.1-0.9-1-1.6-2.8-2.2
		c0.6,7.1,1.8,13.8,2,20.6c-1.6,0-3-0.3-4.5-1.3c0.5-3.9-3.4-5.2-5.2-7.9c-3-4.2-6.1-8.6-10.6-11.5c-1.3-0.8-2.1-2.3-3.1-3.6
		c-1.7-2.3-3.5-4.4-6.2-5.5c0.1-0.4,0.2-0.8,0.3-0.8c3.9-0.6,4.1-3.4,4.1-6.6c0-3.3,1.2-6.5,1.2-9.8c0-1.9,1.5-2.9,2.6-4
		c-0.6-1.1-2.1-0.4-2.5-1.5c-0.1-0.2-0.2-0.4-0.3-0.8c0.4-1,1.6-0.1,2.3-1.3c0.3-0.9-0.1-2.4,0.8-3.8c1.2,1.1,1.1,2.4,1.3,3.9
		c1.7-0.3,2-1.7,2.3-2.9c1.3-5.3,4.3-9.7,6.7-14.5c0.5-1,1-2,2.4-1.8c1.7,0.1,1.9-1.9,3.3-2.1c0-1.5-0.8-2.5-1.3-3.6
		c-1.1-0.1-2.1-0.3-3.2-0.4c0.1-0.9,0.8-1.2,1.4-1.5c2.1,0.9,4,1.9,4.9,4.3c1.3-2.4,3.1-2.9,5.3-2.5c2.5,0.4,5.1,0,7.6,0.8
		c1.6,0.5,3-0.8,4.9-0.6c0.3,4.2,1.2,8.3,2.4,12.3c-4.2,2.1-9.4,3.2-7.4,9.6c1,0.1,0.6-0.7,0.7-1.2c0.1-0.5,0.2-0.9,0.3-1.7
		C765.3,137.6,767.2,136.9,769,136.8c1.8,7.2-2.1,14-1.3,21.2c-2.7,3.7-2.9,8.6-6,12.3c-3-0.5-5.8,1-8.4,0.2
		c-1.5,0.7-1.6,2.2-2.4,2.9c0.6-0.7,1-1.8,1.9-2.7c2.2-0.3,4.5-0.5,6.7-0.5c2.5,0,3.9-1,4.2-3c0.8-5.4,4.9-8,8.5-11.2
		c2.7-2.4,5.1-3,8.7-1.7c3.8,1.4,8.3,0.2,11.5,2.2c1,0.3,0.3,0.7,0.5,0.2c0.1-0.1,0-0.1-0.3-0.2c-5.4-2-11.2-1.4-16.6-3.3
		c-2.4-0.9-4.9-1.1-8.1-1.8C769.3,146.5,770,141.6,769,136.8z"/>
	<path fill="#FFFFFF" d="M714.9,631.7c-1.1,1.1-2.4,1.3-3.6,1.3c-7.9-0.4-15.5-1.7-22.5-5.5c-6.3-3.4-9.5-8.9-9.6-16.1
		c-0.1-2.3-0.5-4.6-0.9-6.9c-0.4-2.4-1.6-4.2-3.5-5.8c-3.4-2.6-6.3-5.7-8-9.8c-1.4-3.3-0.4-6.5,1.8-8.4c3.4-3.1,7.7-5.1,10.5-9.2
		c-0.3,2-0.4,3.9-0.7,5.7c-0.5,4,1.1,6,5.3,5.5c3-0.4,5.9-1.6,8.8-1c2-1,1.7-3.1,3-4.7c3.2,0.5,6.6-2.5,10.1,0.1
		c-0.3,3.4-1.4,6.3-0.7,9.4c-4.3,1-8.7,0.1-12.5,2.7c4.2,2,8.7-0.4,13,0.9c-3.7,2-8.5,0.4-12.4,3.6c4.7,1.4,8.8-0.1,13,0.1
		c-3.9,1.7-8.4,0.9-12.2,3.1c1.1,2.1,3.3,0.7,4.6,1.6c0.1,1-1.5,0.3-1.3,1.7c3.4,0.9,6.9,0.7,10.6,0.7c-3,1.2-6.5,0.2-10.1,2.2
		c3.8,2.1,7.5,1.1,11.8,1.4c-3.7,2.4-8-0.3-10.8,3.2c3.6,1.5,6.8,1.2,10.5-0.3c1.1,6.4,3.7,12.1,5.8,18
		C715.5,627.3,714.9,629.5,714.9,631.7z"/>
	<path fill="#FFFFFF" d="M782.4,568.9c-3.4,7-13.5,6.5-17.7,0.5C770.6,570.5,776.4,571.7,782.4,568.9z"/>
	<path fill="#FFFFFF" d="M681.5,574.4c3.8,1,7.9,0.1,11.2,2.6c-0.8,2-4.3,3-11.3,2.9C681.1,578.1,681.1,576.4,681.5,574.4z"/>
	<path fill="#FFFFFF" d="M738,186.1c2.8,2.6,4.9,5.9,8.2,8C742.9,193.8,738.7,189.6,738,186.1L738,186.1z"/>
	<path fill="#FFFFFF" d="M726,112.8c2.6-0.6,4.3,1.8,7.4,1.4c-2.2,2.4-4.5-1.2-6,2.2C727.3,114.3,728,112.9,726,112.8L726,112.8z"/>
	<path fill="#FFFFFF" d="M726.1,153c0.2,2.3,0.1,4.1-0.8,5.9C725,157,724.3,155.1,726.1,153z"/>
	<path fill="#FFFFFF" d="M755.6,319.3c0.8,1.8,0.4,3.1,0.3,4.4C753.8,322.6,753.8,322.6,755.6,319.3z"/>
	<path fill="#FFFFFF" d="M698.8,309.6c0.1,1.3,1.1,2.7-0.5,4.3C697.3,312.1,698,310.9,698.8,309.6z"/>
	<path fill="#FFFFFF" d="M728.4,134c2.4,0.5,2.7,1.8,2.8,3.6C729.5,137,728.9,135.9,728.4,134z"/>
	<path fill="#FFFFFF" d="M737.2,116.8c0.4-1.6,1.7-2.3,2.9-3.1C739.7,115.3,738.6,116.2,737.2,116.8z"/>
	<path fill="#FFFFFF" d="M747.2,318.3c-1.2,2.3-2.1,2-3.2,1.1C744.6,317.7,745.8,318.8,747.2,318.3z"/>
	<path fill="#FFFFFF" d="M701,312.9c0.1-1,0.2-2.1,0.3-3.1c0.4,1.1,0.7,2.3,0.4,3.4C701.5,313.1,701.3,313,701,312.9z"/>
	<path fill="#FFFFFF" d="M771.3,111.8c-0.6-1.6-0.2-2.3,1.5-2C772.8,110.7,772.4,111.4,771.3,111.8z"/>
	<path fill="#FFFFFF" d="M751.4,109.1c0-1.9,0.7-2.4,2.3-2.2C753.2,107.9,752.4,108.3,751.4,109.1z"/>
	<path fill="#FFFFFF" d="M679.7,568.9c-0.6-1.3,0.1-2,0.5-3.3C680.8,567,680.8,567.9,679.7,568.9z"/>
	<path fill="#FFFFFF" d="M740.5,124.1c-0.5-0.9-0.3-1.5,0.2-2.2C742.1,123.1,741,123.4,740.5,124.1z"/>
	<path fill="#FFFFFF" d="M726,125.9c-0.8-1.1-1.4-1.8-2.5-3.1C725.6,123.4,726.1,124.2,726,125.9z"/>
	<path fill="#FFFFFF" d="M726.5,137.3c1.1,0.5,1.3,1.2,0.9,2.3C726.3,139,726.4,138.2,726.5,137.3z"/>
	<path fill="#FFFFFF" d="M749.6,319.3c0.2,0.8,0.2,1.4-0.8,1.6C748.5,319.8,748.5,319.8,749.6,319.3z"/>
	<path fill="#FFFFFF" d="M758.1,323.1c-0.3-0.5-0.2-1,0.1-1.6C758.5,322,758.3,322.5,758.1,323.1z"/>
	<path fill="#FFFFFF" d="M735.8,127.5c0,1.1-0.3,1.5-1.2,1.5C734.3,128.1,734.8,127.7,735.8,127.5z"/>
	<path fill="#FFFFFF" d="M733.4,127c-0.2,0.6-0.5,1-1.2,1C732,127,732.2,126.5,733.4,127z"/>
	<path fill="#FFFFFF" d="M738,186.1c-0.8,0-0.7-0.8-1.1-1.2C737.7,184.9,738,185.3,738,186.1L738,186.1z"/>
	<path fill="#FFFFFF" d="M768,134.4c-0.4,0.5-0.8,0.3-1.3,0.1C767.2,134,767.6,133.8,768,134.4z"/>
	<path fill="#FFFFFF" d="M728.7,127.4c-0.5-0.4-0.5-1.1-0.1-1.2c0.9-0.5,0.6,0.3,0.5,0.7C729.1,127.1,728.8,127.3,728.7,127.4z"/>
	<path fill="#FFFFFF" d="M737.7,108.8c0.1-0.7,0.7-1.2,1.1-0.9c0.6,0.4-0.1,0.7-0.4,1C738.3,109,738,108.9,737.7,108.8z"/>
	<path fill="#FFFFFF" d="M752.3,319.8c0.4,0.4,0.3,0.9-0.1,1.2c-0.3,0.2-0.7,0-0.8-0.4C751.4,320.1,751.8,319.8,752.3,319.8z"/>
	<path fill="#FFFFFF" d="M763.6,337.4c-0.3-0.6-1.1-0.9-1.1-1.9C763.4,335.9,763.7,336.5,763.6,337.4L763.6,337.4z"/>
	<path fill="#FFFFFF" d="M777.8,595.5c-1.2-0.9-2.4-1.7-2.8,0.6c-1.7-1.4-1.5-2.7-0.3-4c0.7-0.8,1.7-1.1,2.6-0.5
		C778.7,592.4,778.9,593.6,777.8,595.5z"/>
	<path fill="#FFFFFF" d="M768.9,591.2c-1.6,0-2.5-0.8-2.5-2.2c0-1.5,0.9-2.5,2.4-2.7c1.5-0.1,2.3,0.9,2.3,2.2
		C771.1,590,770.3,591,768.9,591.2z"/>
	<path fill="#FFFFFF" d="M764.7,582.7c-2,1.1-2.7,0.4-3.3-0.8C763.1,579.9,763.6,581.4,764.7,582.7z"/>
	<path d="M466.6,305c2.6,2.9,2.4,6.4,1.7,9.9c-0.2,1.1-1.3,2.1-0.7,3.7c5,0.2,9.8,2.1,14.8,2.8c5,0.7,9.6,2.7,15.3,3.3
		c-3.3,2.3-5.8,1.6-8.3,0.6c-2.1-0.9-4.1-1.7-6.6-0.9c-1.7,0.6-3.7,0-5.3-0.8c-2.7-1.4-4.6-0.5-6.3,1.6c-0.8,0.9-1.7,1.8-2.4,2.7
		c-0.9,1.3-1.9,2.2-4,1.1c-1,7.4-4.3,12-11.9,10.4c-2.7,1.8-4.1,4.3-5.6,6.7c-1.5-3.3,2.2-5.4,1.2-8.6c3.8,0,7.5,0,11.6,0
		C465,327.3,466.3,316.2,466.6,305L466.6,305z"/>
	<path d="M414.8,460c-1.9-3.1-5-1.3-7-3.5c2.6-0.7,4.8-0.4,7-0.4c2.7-1.9,5-4.1,6.4-7.5c-1.5-0.5-3.4,0.3-4.9-0.9
		c2.7-0.8,5.4-1.7,8-2.5c2.3-0.7,4-2,5.1-4.3c1.6-3.5,3.6-6.7,5.2-10.2c-0.8,5.3-0.9,10.9-6.4,13.5c0,1.9,1.8,1.7,2.1,2.9
		c-1.3,0.8-2.5,0.3-3.4-0.3C423,451,418.3,454.5,414.8,460z"/>
	<path d="M450.6,301.6c-1.4-0.3-3-0.2-3.9-0.9c-1.7,0.1-2.6,1.6-4.2,1.2c4.1-4.3,11.8-4,13.6,0.4c-3.5,3.4-7.6,3.1-12.2,2.4
		C445.6,301.8,449,303.8,450.6,301.6z"/>
	<path d="M430.7,416.1c-7.6-0.3-14.9-1.4-20.7-7.1c1-1.2,1.9-0.7,2.7-0.2c1.1,0.7,2.1,1.7,3.2,2.4c2.5,1.7,4.8,3.3,8.3,2.4
		C426.5,413.1,428.9,414.4,430.7,416.1z"/>
	<path d="M374.2,440.1c3.5,6.8,0.4,14.1,2.2,21.1c-3-0.1-1.5-3.7-4.4-3.7C376.2,451.8,374.5,445.9,374.2,440.1z"/>
	<path d="M430.3,326.1c-0.3-2.6-0.7-5.2-0.1-7.9c0.2,0.1,0.4,0.2,0.4,0.3c0.6,5.8,3.6,9.8,8.8,12.4c1.1,0.6,2.3,1.3,2.7,2.8
		C440.1,333.5,436.3,331.1,430.3,326.1z"/>
	<path d="M494.6,336.6c0,5.3-1.7,8-5.6,8.6c1.2-2.7,2.3-5.2,3.5-7.6C492.9,336.7,493.7,336.4,494.6,336.6L494.6,336.6z"/>
	<path d="M465.4,334.3c2.6,1.8,4.3,3.8,4,7.1C464.6,339.3,463.2,336.9,465.4,334.3z"/>
	<path d="M440.8,410.3c-0.3-5.1,0.8-10,1.9-14.9C443,400.5,441.8,405.4,440.8,410.3z"/>
	<path d="M454,329.7c2.6-3.6,4.4-3.7,7.4-0.8C459.2,330.7,456.9,330.4,454,329.7z"/>
	<path d="M462.9,324.1c-3.9,1.1-7.7,2.1-11.6,0.7C455.2,324,459,323.3,462.9,324.1z"/>
	<path d="M442,391c-0.7-3.6-0.9-7.2-0.4-10.8C443,383.8,442.5,387.4,442,391z"/>
	<path d="M439.4,340.9c-1.6-2.9-2-5.4-2.5-8.7C439.7,334.8,439.9,337.4,439.4,340.9z"/>
	<path d="M462.6,317c-1.8,1.9-3.9,0.9-5.9,1.8C457.9,316,459.2,315.6,462.6,317z"/>
	<path d="M393.7,409.1c1.6,2,2.5,4.3,5,5.9C394.3,414,393.3,412.7,393.7,409.1z"/>
	<path d="M494.6,336.7c0.1-2.4,0.6-4.7,2.3-6.5C498.1,332.9,496.1,334.7,494.6,336.7L494.6,336.7z"/>
	<path d="M399.5,423.5c-2.4-0.5-4.9-0.7-6.6-3.1C395.1,421.3,397.6,421.7,399.5,423.5z"/>
	<path d="M384.6,426.6c-2.6-0.1-3.1-2.1-3.7-4C383.1,423.2,383.7,425.1,384.6,426.6L384.6,426.6z"/>
	<path d="M407.7,418.9c-2.2-0.8-4.9,0-7.2-3.1c3.1,1,5.4,1.7,7.7,2.4C408,418.4,407.8,418.6,407.7,418.9z"/>
	<path d="M384.6,426.7c0.9,0.5,1.4,1.6,2.8,1.1c1.2-0.3,1.9,0.6,2.5,2.5C388,428.5,384.3,430.9,384.6,426.7L384.6,426.7z"/>
	<path d="M413.2,459.7c-0.6,2.1-1.6,2.8-3.1,3.7C410.2,461.4,411.1,460.6,413.2,459.7z"/>
	<path d="M442.9,413.9c1.4-1.3,2.8-1.6,4.8-1.7C446.1,413.5,445.1,414.9,442.9,413.9z"/>
	<path d="M390.8,419.2c-1.6-0.6-2.6-1.5-2.9-3.5C390.1,416.3,390.1,418,390.8,419.2z"/>
	<path d="M415.1,417.5c-1.2,1.3-2.3,1.1-3.6,0.9C412.5,417.3,413.6,417.1,415.1,417.5z"/>
	<path d="M407.9,446.3c-1.7-0.1-2.7-0.2-3.1-1.5C406.1,444.3,406.7,445,407.9,446.3z"/>
	<path d="M501.6,324.1c-1.1,0.8-1.9,1.2-3,1C499.6,324,499.6,324,501.6,324.1z"/>
	<path d="M393.9,429.5c-0.4,1.1-0.9,1.9-2.2,1.7c-0.5-1,0.1-1.4,0.7-1.7C392.9,429.2,393.4,428.8,393.9,429.5z"/>
	<path d="M389.2,406.3c-0.1-1.4,0.1-2.1,1.2-2.6C390.9,404.9,390.3,405.4,389.2,406.3z"/>
	<path d="M383.6,410.9c0.8-1.1,1.3-1.9,2.5-1.6C385.9,410.5,385.1,410.8,383.6,410.9z"/>
	<path d="M378,415.2c0.3-1.7,1.2-1.6,2.3-2.2C380.1,414.7,379.1,414.6,378,415.2z"/>
	<path d="M403.5,434c1.3,1.3,1.9,2.3,2.5,4C404.3,437,403.6,436.1,403.5,434z"/>
	<path d="M485.1,346.1c0.2,1.5-0.7,1.6-1.9,2.3C483.5,347,484,346.5,485.1,346.1z"/>
	<path d="M504.4,323.2c-0.2,1-0.8,1.1-1.7,0.7C503.1,323.2,503.4,322.5,504.4,323.2z"/>
	<path d="M408.3,400.3c1,0.6,1,1,0.7,1.8C408.8,401.5,408.6,401.1,408.3,400.3z"/>
	<path d="M405,422.3c0,1.5-0.8,1.7-1.7,1.9C403.1,422.9,404,422.7,405,422.3z"/>
	<path d="M459.3,341c0.1,0.8-0.2,1.2-0.6,1.2c-1,0-0.4-0.5-0.1-0.8C458.6,341.3,458.9,341.2,459.3,341z"/>
	<path d="M439.8,345.1c-0.5-0.8-0.7-1.3,0-1.7C440.7,343.8,440.7,344.3,439.8,345.1z"/>
	<path d="M478.1,349.6c0.3-1,0.7-1.6,1.6-1.2C479.8,349.4,479.1,349.4,478.1,349.6z"/>
	<path d="M376.4,433.4c-1.5-0.4-1.9-0.7-1.7-1.4C375.9,431.5,375.6,432.4,376.4,433.4z"/>
	<path d="M404.3,590c-2.3-3.3-0.9-7.7-3.1-11.1c-0.7-0.6-0.9,0.8-2-0.1c0.8-4.1-0.1-8.3-3.2-11.8c2.2-1.3,3.4-1,3.7,1.1
		c0.3,2.9,1.9,5.1,2.8,7.6c1.5,4.5,1.9,9.3,2.8,14C405,589.8,404.6,589.9,404.3,590z"/>
	<path d="M405.3,551c3.5,2.1,4.5,5.6,4.8,9.1c0.1,1.9,0.5,3.5,1.5,5.1c1.1,1.6,1.7,3.4,0.9,5.5c-2-2.9-3.2-6.2-3.7-9.6
		C408.4,557.4,405.1,554.9,405.3,551z"/>
	<path d="M383,587.7c-2.9,5.2-1.9,11.6-4.8,17.4C376.3,601.2,379.6,589.9,383,587.7z"/>
	<path d="M408.7,530.9c0,2.4-0.3,4.8-0.7,7.2c-0.7,3.7-3,4.6-6.5,4.8c0.4-2.4,1.9-3.2,3.8-3.3c1.6-2.2,0.9-4.4,1.1-6.6
		c0.1-1.1-0.4-2.6,1.5-2.8C408.5,529.9,408.7,530.2,408.7,530.9z"/>
	<path d="M412.8,580.5c-0.6,3.6-1.8,7-4.6,9.9c1.2-3.4,2.4-6.8,3.6-10.2C412.1,580.2,412.4,580.3,412.8,580.5z"/>
	<path d="M418.7,559.1c-3.4,4-4,4.2-7.4,1.6C414.2,560.6,416.6,560.1,418.7,559.1z"/>
	<path d="M399.3,562.1c-2.5-0.1-4.1-0.9-4.1-3.9C397.8,558.6,398.7,560.2,399.3,562.1z"/>
	<path d="M411.4,553.4c1.5-1.8,3.2-2.9,5.9-1.5C415.5,554.4,413.4,553.7,411.4,553.4z"/>
	<path d="M408.7,530.9c-0.3-0.2-0.6-0.5-0.9-0.7c0-0.5,0.1-0.9,0.1-1.6c2.9,0.1,3.9,2.6,6,4C411.5,533.2,410.3,531.3,408.7,530.9z"
		/>
	<path d="M404.9,561.3c-0.7,1.6-1.6,2.1-3.4,1.6C402.2,561.3,403,560.4,404.9,561.3z"/>
	<path d="M383.1,585c-0.4-1.8-0.1-2.8,1.3-4C384.9,582.7,384.3,583.7,383.1,585z"/>
	<path d="M392.8,561.2c1.4,0.6,1,1.4,1,2.4C392.4,563.1,392.3,562.4,392.8,561.2z"/>
	<path d="M386.8,574.2c1.1,1.5-0.2,2.1-0.4,3.3C385.1,575.8,386.1,575.1,386.8,574.2z"/>
	<path d="M377.9,635.2c1.1,1,0.4,1.5-0.1,2.1C377,636.5,377.1,635.9,377.9,635.2z"/>
	<path d="M378.3,629.1c0.4,0.5,0.3,0.9,0,1.3C377.2,630,377.6,629.5,378.3,629.1z"/>
	<path d="M399.6,581.7c0.7,0.1,1.1,0.3,0.8,1.1c-0.1,0.1-0.4,0.3-0.6,0.2C399,582.8,399.1,582.3,399.6,581.7z"/>
	<path d="M458.8,545.5c3.8,0.8,7.4,2.4,11.5,1.6c4-2.4,5.1-6.2,4.1-10.9c3.7,6.1,2.9,10.9-1.9,13.7c-0.7,0.4-1.7,1.1-2.3,0.8
		c-3.6-1.3-7.4-1.6-10.9-3.4C458.6,546.9,458.4,546.2,458.8,545.5L458.8,545.5z"/>
	<path d="M476.2,549.1c4.9,1.1,6.5,4.4,5.2,10.4C480.4,555.7,478.6,552.3,476.2,549.1z"/>
	<path d="M477.7,569.1c-1.5-3.1-4.4-5.6-5.2-9.2C475.8,560.2,479,566.1,477.7,569.1L477.7,569.1z"/>
	<path d="M457.9,594.8c1.1-4.4,1.6-5.1,4.2-6.1C461.3,591.4,460.8,593.9,457.9,594.8L457.9,594.8z"/>
	<path d="M464.6,572.9c-0.4-2.4,0.3-4.4,1.5-6.2C466.9,569.1,467.1,571.4,464.6,572.9z"/>
	<path d="M458.8,545.4c-3.5,0.5-5.2-0.4-7.5-4.4C454.7,541.7,456.5,544.1,458.8,545.4L458.8,545.4z"/>
	<path d="M462.4,587.2c-0.8-2.8-0.2-4.7,1-6.4C463.9,582.8,464.3,584.8,462.4,587.2z"/>
	<path d="M452.5,619.3c0-1.9,0.5-3.6,2.2-5.1C454.8,616.6,453.8,618,452.5,619.3z"/>
	<path d="M457.8,594.8c0.4,2.4-1.1,3.2-3.3,4.3C455.1,596.8,456,595.4,457.8,594.8L457.8,594.8z"/>
	<path d="M466.6,564.4c-2.1-0.9-1.1-2.4-1.7-3.9C467,561.9,467,561.9,466.6,564.4z"/>
	<path d="M447.3,628.6c0.4,2.5-0.4,3.7-1.6,5.3C444.8,631.5,446.2,630.6,447.3,628.6z"/>
	<path d="M477.6,569.2c2.6,0,1.9,1.8,2,3.3C478.3,571.7,477.7,570.6,477.6,569.2L477.6,569.2z"/>
	<path d="M448.6,626.4c-0.2-1.8,0.5-2.5,1.6-3.4C450.5,624.7,449.8,625.4,448.6,626.4z"/>
	<path d="M451.5,601.5c0.3-1.6,0.9-1.9,2.1-1.7C453.6,601,452.8,601.1,451.5,601.5z"/>
	<path d="M456,611.2c0.3-1.2,0.3-2.2,1.6-1.8C457.8,610.4,457.2,610.8,456,611.2z"/>
	<path d="M464.2,577.4c-0.7-1.1-0.4-1.6,0-2.3C465.5,575.9,464.8,576.5,464.2,577.4z"/>
	<path d="M449.6,602.5c-0.2,0.8-0.5,1.1-1.2,0.9C448.2,602.2,448.6,602.1,449.6,602.5z"/>
	<path d="M466.5,607c0.4,0.8,0.1,1.1-0.2,1.4C465.8,607.9,466,607.5,466.5,607z"/>
	<path d="M471.6,531.7c-0.7-0.3-1.1-0.8-0.6-1.7C471.9,530.3,472.2,530.8,471.6,531.7z"/>
	<path d="M352.4,464.6c2.9-1.4,4.7-0.6,6,0.7c2.6,2.5,5.6,3.8,9.1,4.2c1,0.1,1.9,0.5,2.6,1.2c3.2,3.3,7.5,4.5,11.6,5.9
		c3.8,1.3,7.6,2.6,10.9,5.1c1.2,0.9,2.7,1.7,3,4.1c-6.3-4.8-13.5-5.7-20.1-8.3c-2.6-1-5.3-2-6.6-4.8c-0.4-1-1.4-1.5-2.3-1.6
		C361.4,470.3,357.7,466.6,352.4,464.6z"/>
	<path d="M358,459.1c1.5,0,1.6-2.1,3-2.2c1.3,1.4,2,3.6,4.4,3.7c0.4,1.5,0.2,3.3,1.5,4.5c-2.8,0.2-4.8-1.5-6.4-3.4
		C359.7,460.6,358.8,459.9,358,459.1z"/>
	<path d="M348.4,467.4c4,0,11.4,3.9,12.8,7.4C356.4,472.2,351.6,471.2,348.4,467.4z"/>
	<path d="M425.2,481.8c-1.4,3.3-4.4,4.7-7.1,6.5C419.3,484.8,422.1,483.1,425.2,481.8z"/>
	<path d="M427.1,521.4c4.3,2.2,8.3,4.7,11.8,8.1C434.6,527.4,430.6,524.8,427.1,521.4z"/>
	<path d="M420.5,490.7c3-3.2,6.5-5.2,9.8-5.1C427.3,487.9,424.1,489.6,420.5,490.7L420.5,490.7z"/>
	<path d="M418.1,481.6c0.3-1.8,1.2-2.2,2.9-1.9C420.4,481.2,419.8,482.2,418.1,481.6z"/>
	<path d="M420.4,490.6c-0.3,0.9-1.1,1.2-1.9,1.4C418.7,490.8,419.5,490.6,420.4,490.6L420.4,490.6z"/>
	<path d="M402.1,512.9c-1.3-1.4-2.6-2.8-3.9-4.1C400.4,509.3,401.8,510.6,402.1,512.9z"/>
	<path d="M346.1,489.5c0,0.5,0,1-0.1,1.8C345.8,490.5,345.7,490,346.1,489.5z"/>
	<path d="M346.4,498.6c-0.4-0.7-0.1-1.1,0.5-1.4c0.1-0.1,0.5,0.2,0.5,0.2C347.2,497.9,347.2,498.6,346.4,498.6z"/>
	<path d="M343.5,510.6c-0.2-1.6,0.6-1.9,1.7-2.3C345.1,509.4,344.5,509.9,343.5,510.6z"/>
	<path d="M398.8,669.6c1.2,1.5,1.1,2.9,1.7,4.2c-3.8,2.9-7.3-1.1-11,0C391.9,670.4,396.1,672.1,398.8,669.6z"/>
	<path d="M445.7,665.1c2.5-2.7,4.4-3.3,6.6-2.1c2.1,1.1,2.3,2.4,1.5,7.4c-5.6,0.7-5.6,0.7-8.4-2.7c-1.5,1.2-3,2.9-5.3,2.4
		c-1.2-0.3-2.3-0.8-3-2c-1.2-1.9-0.8-4.2,1-5.5C440.6,660.8,443.2,661.7,445.7,665.1z"/>
	<path d="M435.3,669.3c-2.1,0.1-2-2-3.4-2.4c-1.6-0.2-0.6,2-2,2c-1.3-0.3-1.3-3.7-0.1-7.7c1.3-0.6,2.6-0.2,3.9,0.1
		c2.2,0.5,3.3,2.3,1.9,3.9S435.5,667.9,435.3,669.3z"/>
	<path d="M769,136.8c2.1,4.5,2,8.9-0.3,13.5c10.3,1.7,20.1,4.2,30.7,6.5c-2.6,1.7-4.6,1.7-6.7,0.9c-2.8-1.1-5.5-2.2-8.8-1.4
		c-2.4,0.6-5-0.8-6.9-1.7c-4.7,0.8-5.3,6.8-10.6,6.8c-0.9,6.8-4.1,11.4-11.9,9.8c-2.7,2-4.3,4.5-6,7.9c-0.1-2.3,0.1-3.7,0.6-5.1
		c0.5-1.4,1.9-2.6,0.7-4.6c4,0,7.7,0,12,0c1.7-4.9,4.2-9.7,4.8-15.3C767.4,148.4,768.3,142.6,769,136.8L769,136.8z"/>
	<path d="M745.3,136.3c2.7-2.2,5.6-1.3,8.5-2.6c-3.5-0.6-6.4-1.8-9.4,0.1c2.2-3.6,5.7-2.8,8.9-2.7c2,0,4.3,0.3,4.5,3.1
		C754.3,137.1,750.3,137.6,745.3,136.3z"/>
	<path d="M755.4,265.8c-0.4-6.5-0.7-13.1-1.1-19.6c0-0.2,0.5-0.5,1.3-1.2c1.7,7.2,1.9,14,0.8,20.9
		C756.1,265.9,755.7,265.9,755.4,265.8z"/>
	<path d="M732.7,241.4c0.6,1.1,0.5,2.1,0.1,2.1c-2.4-0.2-4.4,1.5-6.9,0.9c-6.4-1.7-10.5-6.2-9.4-11.3c3.2,1.9,1.8,7.3,6.3,8.1
		C726,241.9,729.3,243.8,732.7,241.4z"/>
	<path d="M740.7,269.4c1.3-5.5,7.9-15.3,11.3-16.6C749.2,259.4,744.5,264.1,740.7,269.4z"/>
	<path d="M732,158.1c-0.2-3.1-0.9-6.1,0.6-9.2c0,3.5,1.1,6.5,2.2,9.5c3.1,2.3,6.7,3.8,8.8,7.4C739.5,163.6,735.7,161,732,158.1z"/>
	<path d="M796.7,167.8c-0.2,2.5-0.5,5.1-2,7.3c-0.9,1.4-1.8,2.6-4.4,1.9C793,173.9,792.6,169.5,796.7,167.8L796.7,167.8z"/>
	<path d="M770.9,173.4c-4.9-2.9-5.7-4.3-4.2-6.9C770.1,167.9,771,169.4,770.9,173.4z"/>
	<path d="M769.2,173.7c0.2,4.4-2.7,7.5-1.3,11.2C765,182.2,765.5,178.1,769.2,173.7z"/>
	<path d="M753.1,156.8c3.9-0.7,7.8-1.7,11.8-0.7C760.9,157.2,757.1,158.1,753.1,156.8z"/>
	<path d="M755.2,230.3c-1.3-4.9-2.7-9.9-4-14.8c0.4-0.1,0.7-0.2,1.1-0.3c1.1,5,3,9.8,3.8,14.9C755.8,230.1,755.5,230.2,755.2,230.3z
		"/>
	<path d="M756,161.6c2.2-3.6,4.6-3.7,7.1-0.6C760.9,162.5,758.7,162.5,756,161.6z"/>
	<path d="M701.8,242.7c-1.8-2.8-0.2-7.7,3.7-11C703.8,235.2,701.8,238.6,701.8,242.7z"/>
	<path d="M752.9,272.7c-1.2,4.1-1.8,8.4-3.5,12.3C749.7,280.7,750.5,276.4,752.9,272.7z"/>
	<path d="M680.2,134.8c-2.6-4.1-3.3-8.6-2-11.4C678.9,127.5,679.5,131.1,680.2,134.8z"/>
	<path d="M687,156.3c-1.2-2.9-2.4-5.9-3.6-8.8c0.3-0.1,0.6-0.3,1-0.4c2,2.6,3.2,5.7,3.5,9C687.5,156.2,687.3,156.2,687,156.3z"/>
	<path d="M699.4,178.4c1.2,2.7,2.3,5.3,3.5,8c-3.1-1.8-4.7-4.3-4.6-7.6C698.6,178.7,699,178.6,699.4,178.4z"/>
	<path d="M716.5,248.8c-4-1.3-5.1-2.8-4.5-6.1C713.9,244.4,714.5,246.7,716.5,248.8z"/>
	<path d="M740.9,172.5c-1.5-2.5-1.5-5.1-2.6-8.1C741.3,166.6,741.9,168.7,740.9,172.5z"/>
	<path d="M708.2,252.8c2.2,1.6,4.5,3,7.2,4.5C712.1,258,709.7,256.6,708.2,252.8z"/>
	<path d="M764.3,149c-1.7,2.3-4,0.2-5.5,1.9C759.7,148,761,147.6,764.3,149z"/>
	<path d="M695.6,133.1c-3.5,0.1-5.1-1.1-6.1-5C690.8,130.7,693.7,131.2,695.6,133.1L695.6,133.1z"/>
	<path d="M796.7,167.8c-0.2-2.2,0.3-4.2,2.1-5.8C799.6,164.5,798.7,166.3,796.7,167.8L796.7,167.8z"/>
	<path d="M704.5,127.4c3.4,0.4,5.7,1.1,7,3.8C709.1,130.5,707.1,129.3,704.5,127.4z"/>
	<path d="M728.1,221.3c-1.5-0.7-2.2-2-2.9-3.4C727.6,218,727.9,219.7,728.1,221.3z"/>
	<path d="M737.1,274.2c-0.5,1.8-1.1,3.6-2.8,5.3C734.5,277,735.1,275.3,737.1,274.2z"/>
	<path d="M673.6,115c0.9,1.5,1.8,3,2.7,4.5c-2.1-0.7-3.2-2.1-3.5-4.2C673.1,115.2,673.3,115.1,673.6,115z"/>
	<path d="M687.7,162.3c-1-1.4-0.3-2.8-0.4-4.8C689.5,159.5,688.3,160.9,687.7,162.3z"/>
	<path d="M702,172.7c-1.1-1.7-1.3-2.8-0.8-4C702.2,170.2,702.2,170.2,702,172.7z"/>
	<path d="M726.4,250.6c-1.4,0.5-2.7,0.5-3.6-1.1C724.4,248.7,725.4,249.8,726.4,250.6z"/>
	<path d="M687.7,172.7c1.6,1.6,0.9,2.8,0.1,4.8C687.1,175.7,687,174.5,687.7,172.7z"/>
	<path d="M687.6,166c0.8,1.5,0,2.4-0.7,3.7C686.4,167.8,686.4,167.8,687.6,166z"/>
	<path d="M701.5,173.7c0.6,1.4,1.1,2.3,0.4,3.8C700.9,176.4,700.2,175.5,701.5,173.7z"/>
	<path d="M748.2,296.8c-0.1-1.6-0.2-2.7,0.3-4C749.8,294.3,749.6,295.4,748.2,296.8z"/>
	<path d="M720.4,297.9c-1.1-1.2-1.8-2.2-1.5-3.9C720.4,294.9,721.1,295.8,720.4,297.9z"/>
	<path d="M720.3,250.2c-1.2,0-2.2-0.3-3-1.5C719.2,248,719.7,249.2,720.3,250.2z"/>
	<path d="M764.7,259c-1.1-0.9-2-1.7-1.7-3.4C764.7,256.5,764.5,257.8,764.7,259z"/>
	<path d="M714.7,131.9c1.6-0.1,2.6-0.5,3.2,0.8C716.7,133.6,716,132.7,714.7,131.9z"/>
	<path d="M800,156.9c1-1.4,1.9-1.1,2.9-0.9C802.2,156.7,801.5,157.4,800,156.9z"/>
	<path d="M741.9,175.4c0.5,0.5,0.6,1,0.1,1.5C740.6,176.4,740.5,175.9,741.9,175.4z"/>
	<path d="M709.2,283.1c1.3,0.3,1.6,0.8,1.8,2.1C709.7,285,709.2,284.5,709.2,283.1z"/>
	<path d="M785.3,179.9c0-1.1,0.4-1.6,1.6-1.6C787,179.5,786.3,179.8,785.3,179.9z"/>
	<path d="M781.8,180.3c-0.4,0.9-0.9,1.1-1.7,1.3C780.1,180.5,780.5,180.1,781.8,180.3z"/>
	<path d="M806.1,155.2c-0.3,1-0.8,1.1-1.6,0.6C804.8,155,805.2,154.5,806.1,155.2z"/>
	<path d="M715.4,290.4c1,0.3,1.1,1,1.2,2.2C715.1,292.1,714.8,291.5,715.4,290.4z"/>
	<path d="M732.5,224.3c0.6,0.2,1.2,0.3,0.7,1.2C732.2,225.5,731.9,225.2,732.5,224.3z"/>
	<path d="M761.1,173.1c0.1,0.7-0.3,1-0.7,1.2c-0.1,0-0.5-0.2-0.5-0.3C760,173.5,760.4,173.2,761.1,173.1z"/>
	<path d="M681.9,141.5c0.6,0,0.9,0.3,0.7,0.9c0,0.1-0.5,0.3-0.6,0.2C681.5,142.3,681.5,141.9,681.9,141.5z"/>
	<path d="M699.9,609.7c3-0.2,5.4-0.3,8.1-0.4C706.5,612.5,703.2,612.7,699.9,609.7z"/>
	<path fill="#FFFFFF" d="M467,324.5c-0.5-1.2-0.4-2.2,0.1-3.2c1.4-0.5,2.5,0.1,3.9,0.3c-0.2,1.3-1.3,1-1.9,1.6
		C468.5,323.6,467.8,324,467,324.5z"/>
	<path fill="#FFFFFF" d="M443.3,666c-0.2,1.7-1.1,2.6-2.6,2.5s-2.4-1.2-2.2-2.8c0.1-1.4,1.1-2.2,2.4-2.2
		C442.4,663.6,443.3,664.5,443.3,666z"/>
	<path fill="#FFFFFF" d="M452.5,667.4c-1.9-0.8-2.9-0.3-2.5,1.7c-2-0.3-2.5-1.4-2.3-3c0.2-1.3,1.1-1.9,2.3-1.9
		C451.5,664.3,452.5,665.1,452.5,667.4z"/>
	<path fill="#FFFFFF" d="M431.1,663.3c1.2-0.7,2.2-0.5,3.1,0.5C432.4,665.2,432.4,665.2,431.1,663.3z"/>
	<path fill="#FFFFFF" d="M768.9,152.7c1.5,0.5,2.9,0.1,4,1.3c-1.6,0.7-2.9,1.6-4.3,3C768,155.4,768.6,154.3,768.9,152.7z"/>
</g>
</svg>
