<?xml version="1.0" encoding="utf-8"?>
<!-- Generator: Adobe Illustrator 19.1.0, SVG Export Plug-In . SVG Version: 6.00 Build 0)  -->
<svg version="1.2" baseProfile="tiny" id="Layer_2" xmlns="http://www.w3.org/2000/svg" xmlns:xlink="http://www.w3.org/1999/xlink"
	 x="0px" y="0px" width="900px" height="600px" viewBox="144 97 900 600" xml:space="preserve">
<g>
	<path d="M974.8,571.3c-2.9,1.1-4.8,3.7-7.7,4.7c-0.5,0.2-1,0.7-1.8,0.1c-0.2-1.4,1.8-2,1.7-3.9c-2.3,2.2-4.5,3.9-7.9,4.8
		c1.1-3.8,3.8-6.3,5.7-9.3c-0.7-0.7-1-1.2-1.9,0.2c-2.8,4.4-6.6,7.5-11.9,9.3c-0.4-3.5,2.7-5,3.9-7.8c-3.1,2.3-5.9,4.4-8.7,6.5
		c1.5-5.1,4-9.5,7.8-13.2c-2.1-2.9-2.6-6.3-4-9.9c-0.4,1.4-0.8,2.3-0.9,3.4c-0.6,5.2-2.8,9.6-6.3,13.5c-2.8,3.2-4.8,6.9-7.2,10.4
		c-2.3,3.4-6.8,5.6-10.8,4.7c-4.5-1-8.4-3.2-11.2-6.9c-0.9-1.2-3.2-0.8-2.4-3.3c-1.7,0.9-0.9,2.7-2.2,3.2c-1.9-2.5-1.1-7.7,1.5-10.2
		c-1.9-4.2-4-8.4-5.6-12.8c-4.6-12.6-10.8-24.5-16.4-36.6c-0.2-0.5-0.6-1-1-1.5c-7.8-8.7-13.8-18.7-20.3-28.3
		c-4.2-6.2-5.1-13.4-6.1-20.7c-1.1-8.1,1.6-15.8,1.8-24c-2.6,1.6-4,3.7-4.4,6.8c-1.5,10.9-2.8,21.9-6.6,32.4
		c-0.3,0.9,0.6,1.6-0.3,2.7c-4.7,1.1-10.2-1-15,1.9l0.1-0.1c-6.3,0.4-12.6,1.2-19.2,2.8c4.8,54.6,9.7,109.2,14.5,163.7
		c-0.4,0-0.9,0.1-1.3,0.1c-1.6-7.5-1.6-15.3-2.4-22.9c-0.9-7.8-1.4-15.7-2.1-23.5c-0.7-7.8-1.4-15.7-2.1-23.5
		c-0.7-7.8-1.4-15.7-2.1-23.5c-0.7-7.8-1.4-15.7-2.1-23.5c-0.7-7.8-1.4-15.7-2.1-23.5c-0.7-7.8-1.4-15.6-2.1-23.6
		c-6.5,0.4-12.7,0.6-18.9,1.2c-10.2,1-20.3,1.6-30.5,2.7c-9.1,1-17.8,0.9-26.2-3c-2.4-1.1-5.1-1.9-7.6-2.6
		c-7.3-2.1-13-6.4-17.7-12.2c-1.5-1.8-3.2-3.1-5.2-4.2c-3.8-2.3-6-5.8-7.5-9.9c-3-7.8-4.4-16.1-6-24.2c-3.3-0.4-65.8,1.9-69.6,2.6
		c0.9,8.8,1.7,17.7,2.6,26.5c0.9,8.9,1.7,17.8,2.5,26.7c0.8,8.8,1.7,17.6,2.6,26.3c0.9,8.9,1.8,17.8,2.6,26.7
		c0.9,8.9,1.7,17.8,2.5,26.7c0.9,8.9,1.7,17.8,2.6,26.7c0.9,8.8,1.8,17.5,2.6,26.3c0.7,8.7,2.1,17.4,2.2,26.3
		c-2.9-0.4-2.7-1.8-2.8-3.1c-1.6-16.9-3.3-33.7-4.9-50.6c-2.2-23-4.5-46.1-6.7-69.2c-2-20.6-4-41.2-6-61.8
		c-0.8-8.2-1.6-16.4-2.4-24.6c-0.1-1-0.1-2.1-0.8-3.2c-2.1-0.2-4.3-0.2-6.9,0.2c6.9,70.7,13.7,141.3,20.6,212
		c-2.2-0.2-1.8-1.5-1.9-2.4c-1-9.9-1.9-19.9-2.9-29.8c-2.3-23.4-4.6-46.8-6.8-70.2c-1.8-18.2-3.5-36.5-5.2-54.7
		c-1.8-18.4-3.5-36.7-5.3-55.1c-0.1-0.8-0.4-1.6,0.2-2.7c29.3-1,58.7-2,88.2-3.2c29.3-1.2,58.7-1.5,88.3-3.7
		c-0.3-6.6-0.7-12.6-1-19.3c-2.9,1.1-5.6,0.5-8.3,1c-4.2,0.6-8.4,0.8-12.6-0.3c-0.6-0.1-1.2-0.4-1.7-0.3c-4.4,1.7-9.3,1.1-13.7,3.1
		c-2,0.9-4.2,1.6-6.3,2.3c-2.3,0.7-4.6,0.9-7.1,0c-4-1.4-8.4-1-12.6-1c-9.8-0.1-19.5-0.3-29.3,0c-5.9,0.1-11.7,0.9-17.5,1.6
		c-6.9,0.9-13.9,0.2-20.8,1.1c-4.9,0.7-9.6,1-14.7,0.5c-7.3-0.7-14.7,0.6-22.1,0.9c-3.6,0.1-7.2,0.7-11.1-0.3
		c-8.1-83.2-16.2-166.5-24.2-249.7c0.5-0.1,1-0.1,1.5-0.2c1.7,13.6,2.7,27.2,4.1,40.9c1.4,13.8,2.7,27.6,4.1,41.4
		c1.3,13.9,2.6,27.8,4,41.8c1.3,13.8,2.7,27.6,4.1,41.4c1.4,13.8,2.7,27.6,4.1,41.4c1.3,13.8,2.6,27.6,4,41.9
		c7.7-0.3,15.1-0.6,22.4-0.8c0-0.2,0-0.4,0-0.5c-4.9,0-9.7,0-15.1,0c-8.1-83.1-16.1-166.2-24.1-249.2c2.4-1,2.7-0.8,3,1.9
		c0.7,6.9,1.4,13.8,2.1,20.7c2.3,23.5,4.6,47,6.8,70.6c2.2,23.2,4.4,46.3,6.7,69.5c2.5,25.5,5,51,7.5,76.5c0.3,2.7,0.2,5.4,1.1,8.6
		c3.4-1.1,7-0.3,10.7-0.9c-0.5-3.8-0.4-7.4,0.1-11c0.9-7,5.7-11.8,12.8-12.5c2.7-0.3,5.4-0.3,8.3-0.4c-0.3-1.9-1.4-3.3-2.2-4.7
		c-1.9-3.1-2.5-6.5-3.2-10c-1.6-7.7-4.1-15.2-5.2-23c-1.8-12.5-2.6-25,1.2-37.4c1.1-3.6,0.9-7.4,0.1-11.2
		c-2.4-11.8-0.5-22.8,6.7-32.4c3.2-4.3,7.6-7.6,11.5-11.4c0.8-0.8,1.9-1.4,2.3-2.6c1.1-3.5,3.9-4.8,7-5.7c7.5-2,14.6-5.1,21.5-8.6
		c0.7-0.4,1.3-1,2-1.5c0.6-6.7-0.5-13.2-1.5-19.7c-0.7-4.6-3.7-8.3-4.3-12.9c-0.3-2-1.6-3.9-0.5-6.1c0.5-0.9-0.2-1.8-0.8-2.6
		c-0.8,0.6,0.2,1.7-0.9,2.3c-1.4-1.8-1.9-3.9-2-6.2c-0.1-2.2-0.5-4.2-2.3-5.7c-1-0.9-1.6-2-1.7-3.4c-0.3-5.1-1.7-10.2,1-15.2
		c0.6-1.1-0.2-3,1.1-4c-1.1-1.6-3.5-2.7-2.1-4.9c1.4-2.2,3.5-1,5.4-0.6c0.9,0.2,1.7,0.9,2.8,0.6c-0.7-1.7-1-3.4-0.6-5.4
		c2.3,0.3,2.9,3,5.2,3.3c2.7-3.3,7-4.8,10.4-7.3c2.8-2,6.1-2.6,9.7-2.2c3.5,0.5,6.7-1.2,9.6-3.2c1.3-0.9,2.5-2.2,4.1-1.5
		c1.2,1.3-0.1,2.1-0.3,3.4c4.3-1.3,8.6-2.6,13-1.4c1.5,0.4,1.7,2.2,2.8,3.5c1.1-1.9,1-4.3,3.2-5.5c1.3,1.4,2.5,2.9,4.4,2.1
		c0.9,2-0.9,2.3-1.2,3.7c2.1-0.2,3.4-1.9,5.2-2.5c3.2,0.5,3.2,2.7,3.5,5.4c0.2,2,0.1,4.1,0.6,6.2c-1.8,2-4.4,2.9-6.9,4.7
		c3.1,7.5,9.2,14.3,6.5,23.6c-0.4,0.1-1.1,0.4-1.9,0.7c0.1,0.4,0.2,0.8,0.3,1.1c1.4,2.6,3,5,4.9,7.3c3.1,4,3,5-0.7,8.4
		c-0.3,0.3-0.5,0.8-0.7,1.1c0.3,2.4,2.3,3.9,2.8,6.4c-0.8,1.4-1.7,3.1-0.9,5c0.3,0.7,0.3,1.5-0.3,2c-2.4,2.2-1.4,4.6-0.7,7.2
		c1.1,4.2-2.5,8.8-6.7,8.9c-2.5,0.1-4.8-0.8-7.4-0.2c-2.5,5.5-3.1,11.6-4.4,17.8c-2.6-2.5-2-6.4,2.7-18c-6.5-1.8-12.6-4.5-19.4-4.5
		c0.1-1.6,0.8-1.6,1.5-1.5c7.6,1,15.5,1,22.8,3.9c2.3,0.9,4.8,0.2,6.8-0.8c1.9-0.9,3.1-2.8,2.4-5.3c-1.4-4.7-1.3-4.7,1.1-8.6
		c-0.1-1-0.8-1.6-1.3-2.1c-2.9-0.5-5.4,2.1-8.8,0.3c3.1-3.2,7.4-1.7,10.3-4c-0.9-2.8-2.3-5.4-2.3-8.7c-1.5,0.5-2.9,2.8-4.3,0.2
		c0.9-1.8,2.7-2.3,4.6-1.9c1,0.2,1.9,0.3,2.5-0.5c0.8-1,0.4-2.1-0.3-2.9c-1.8-2.6-3.9-5-5.5-7.8c-2-3.6-1.7-5.3,1.9-7.5
		c-1.5-3-1.6-6.6-3.1-9.6c-1.5-2.9-2.8-5.9-4.3-9c-2.6,0.5-5.5,3.5-7.5-0.7c4.6-0.7,7.7-4.2,10.5-5.9c-2.8,1.8-5.9,5.1-10.4,6
		c-2,1.5-4.4,2.1-6.7,3.5c0.5,1.3,1.9-0.3,2.3,1c-2,2.5-4.7,3.4-8.1,2.8c-1.3,6.2-6.5,9.7-9.3,14.7c-2,3.6-4.4,7-5.4,11
		c-1,4-1.3,8,3.7,10.3c-2,1.3-3.3-0.6-4.7,0c-1.1,0.6,0.4,2.1-0.8,2.8c-0.2-0.1-0.7,0-0.9-0.2c-0.7-0.6-1.6-1.2-1.9-2
		c-2.4-6.3-8-7.1-13.9-8c-1.9,2-1.5,5.6-4.3,7.3c2.1,8.8,10,10.1,16.3,13.3c1.4-0.3,1.5-1.9,2.5-2.1c0.7,0.3,1,0.8,0.9,1.4
		c-0.1,1.4-0.6,2.5-2.1,2.8c-1.9,0.3-3.7-0.1-5.5-0.9c-0.9-0.4-1.7-1.3-3.2-0.7c0.3,2.1-0.3,3.7-1.9,5.4c-1.5,1.7-0.6,4.3-0.4,6.5
		c0.2,1.6,1,3.2,0.3,4.8l0.1-0.1c-0.6-1.1-1.3-2.2-2.1-3.5c-1.1,1.8-0.1,4-1.5,5.7c-1.3,1.4-2.5,2.7-5.1,3.3c1.3,0.7,2,1.1,2.8,1.5
		c6.4,3.3,12.5,7.2,17.8,12c2.9,2.6,5.9,4.8,10.1,5c-0.8,2.2-2.3,0.3-3.3,1.2c2.7,2.5,5.3,4.9,7.9,7.4c6.2,5.7,11.8,12.2,17.7,18.2
		c2.3,2.4,4.8,4.5,8.3,5c1.4,0.2,2.7,1.2,4.5,2c-1.1-4.1-3.2-7.4-3.7-11.3c2.3,3.5,4,7.4,5.4,11.2c0.9,0.9,2,0.9,3.2,0.7
		c1.1-1.8,1.7-3.8,1.4-5.9c-1.1-6.4-2.6-12.6-5.9-18.4c-2.4-4.1-5.1-7.9-8-11.6c-1.9-2.5-3.7-5.1-5.4-7.5c0.4-0.9,1.1-1.2,1.5-0.8
		c3.4,3.9,8.7,3.8,12.7,6.5c3,2,6.5,3.2,9.4,5.5c5.2,4,7.7,9.7,10.5,15.2c1.8,3.8,3.5,7.7,5.2,11.6c2.2,5,3.1,10,1.8,15.4
		c-0.7,2.8-0.4,5.5,0.8,8.2c1.8,3.9,1.6,8.2,1.7,12.8c1.8-1.5,2.4-3.4,3.2-5.1c2.4-1,4.6-0.4,7.3,0.5
		c-4.5-51.5-9.1-102.6-13.6-153.7c0.5,0,1-0.1,1.6-0.1c2.5,25.7,4.6,51.4,7,77.1c2.4,25.7,4.5,51.5,6.8,77.2c1,1.7,3.3,2,4,4.2
		c-0.1,3.6-3.1,6.9-2.7,11.2c6.4,0.9,12.5,3,19.3,2.8c-5.1-57.5-10.2-114.6-15.2-171.8c2,1.9,7,55.1,9.4,85.7
		c2.2,28.7,5,57.3,7.6,86c9.2-2.4,18.4-3.2,27.3-6.8c0.6-2.8,3.4-4.1,5.8-5.7c1.1-0.7,2.2-1.3,2.9-2.4c2.7-4.2,4.2-4.6,8.8-2.9
		c0.7,0.2,1.3,0.5,1.9,0.8c1.7-1.9,1.1-4.9,3.6-7.2c0.7,3.8-1.2,6.3-2.1,9.1c2.6,2.5,3.1,6.1,4.6,9.2c1.6,0.5,3.2-0.4,4.8,0.6
		c-1.1,1-2.4,0.6-3.5,0.9c-3.6,4.7-5,4.8-10,1c-2.1,2-2,2.5,1.3,4.1c0.5,1.8-1.4,1.8-2.1,2.7c6.1,3.7,11.6,4.4,15.4,1.5
		c-2.9-0.8-5.7-0.7-8.4-1.1c-2.1-0.3-4.2-0.6-5-3.1c0.8-1,1.7-0.9,2.9-0.7c3.5,0.6,6.9,1,10.4,1.5c1.5,0.2,2.7-0.6,4-0.8
		c2.1-7,1.3-9.6-3.3-10.5c-0.2,0.7,0.8,0.7,0.7,1.6c-0.8,1.3-2.7,1-4.2,1.8c1.2-4.5,2.4-8.7,3.6-13.2c-2.6-1.4-6.9,0.2-7.7-4.4
		c2.5-0.2,4.7,0.4,6.8,1.4c1.8,0.8,2.6,2.2,2,4.3c-0.6,1.9-0.8,3.9-1.2,5.7c0.6,1,1.5,1.1,2.2,1.4c2.5,1,3.5,2.8,3.3,5.6
		c-0.1,2.4-0.5,4.8,0.2,7.2c0.7,2.4-1,3.9-2.4,5.3c1.1,6.3-4.2,10-5.5,15.7c7.3-0.5,14.6,0.8,21.9,0.6c2.8-0.1,5.3,0.4,7.4,2.6
		c0.7,0.7,1.7,1.2,2.7,1.7c8.9,4.4,14.4,11,14.3,21.4c-0.1,5.3,2.2,10.2,3.5,15.2c2.1,8.5,5.2,16.8,7.3,25.3
		c2.3,9,2.8,18.3,3.1,27.6c0.3,8.3,0.6,16.6,2.9,24.8c0.9-1.2-0.2-2.7,1-4c1.6,2.6,1.2,5.5,1.6,8.2c1.5,10.1,2.8,20.3,5.7,30.1
		c1.5,4.9,3.6,9.6,5.4,14.5c0.5,1.4,1.4,2.8,0.9,4.4c-1.6,0.9-2.7,0.2-3.5-1.2c-1.3-2.2-2.6-4.4-3.4-6.9c-1.7-5.8-5.2-11.1-5.8-17.3
		c-1-10.7-5.3-20.7-7.3-31.2c-1-5.1-1.7-10.2-1.6-15.4c0.2-14-1.6-27.7-5.6-41c-3.9-12.7-7.1-25.5-9.3-38.6c-0.8-4.4-4.1-7-7.3-9.6
		c-2.2-1.8-4.9-3-7-5c-0.8-0.7-2-1.1-3.2-1c-8.1,1-16.2-0.7-24.3-0.6c-5,0-10.1,0.7-15.1-0.1c3.7,0.6,7.5,0.5,11.2,0.2
		c1.9-0.1,3.9-0.4,5.6,0.2c7.7,2.8,16.5,2.9,22.9,9.1c4.8,4.6,8.1,9.9,7.9,16.6c-0.1,5.6,1.5,10.1,5.4,14c1.3,1.3,1.8,3,2.9,4.4
		c0.9,1.2,1.5,2.5,0.4,3.8c-1,1.3-2.3,0.7-3.5,0.3c-0.4-0.2-0.9-0.3-1.4-0.6c-1.3,9.8,0.2,19.3,2.9,28.5c1.6,5.6,2.5,11.2,3.1,16.9
		c0.8,6.7,2.5,13.2,3.7,19.7c0.7,4.1,2.5,8.1,1.1,12.4c-0.4,1.4,0.3,3,0.7,4.5c3.1,10.1,5.3,20.5,10.1,30c1.6,3.2,2.6,6.8,3,10.5
		c0.2,1.4,0.1,2.7-1.3,3.3c-1.6,0.6-2.7-0.2-3.5-1.6c-0.4-0.6-0.7-1.2-1-1.9c-3.6-11.2-9.1-21.6-11.6-33.2
		c-1.7-7.8-3.1-15.6-3.8-23.6c-0.7-7.8-2.3-15.6-4.3-23.2c-1.5-5.5-1.1-11.2-2.7-16.6c-1.6-5.5-1.9-11.1-2.8-16.7
		c-0.3-2-0.5-3.9-0.2-6c0.6-4-0.3-8-1.5-11.8c-0.6-2-0.7-4-0.6-6.1c0.3-8.6-2.6-15.9-9.4-21.3c-3.5-2.7-7.9-2.8-12-4
		c-4.6-1.3-9.2-3.3-14.2-1.1c-1.3,0.6-2.8-0.2-4.2-0.3c-3.5-0.2-5.5,1-6.2,4.4c-1.5,7.1-2.3,14.4-1.8,21.7c0.1,2,1.1,3.1,3.2,2.7
		c0.8-0.1,1.6-0.4,2.4-0.3c1.1,0,2.2,0.3,2.6,1.4c0.5,1.2-0.2,2-1.1,2.7c-1.4,1.1-2.8,2.1-4.2,3.2c-2.9,2.4-3.7,5.6-2.6,8.9
		c0.8,2.5,1.4,4.9,0.5,7.5c-0.2,0.5-0.1,1.2,1,1.9c1.3-3.4,4.1-5.8,5.9-8.8c0.9-1.5,1.9-3,3.8-2c1.8,1,1,2.7,0.3,4.1
		c-7.1,14.3-7.8,29.6-6.2,45.1c1,10.5,6.6,19.2,12.7,27.6c4.7,6.5,10.2,12.6,13,20.3c0.2,0.5,0.5,1.1,0.9,1.5
		c7.4,7,9.5,16.9,13.2,25.8c3,7,5.7,14.1,8.7,21.1c0.6,1.3,1,2.6,2.3,3.4c2.2,0,3.4-1.6,4.8-2.8c6.4-5.5,10.9-12.6,16-19.1
		c0.3-0.4,0.4-0.9,0.8-1.2c1.4-1,2.6-2.6,4.6-2c2.1,0.7,2.1,2.6,2,4.4c0.6-2.4-1.3-4.1-1.7-6.3c-0.2-0.9-0.5-1.8-0.6-2.8
		c-0.3-1.5-0.1-3,1.6-3.4c1.5-0.4,2.2,0.8,2.9,2c1.1,2.1,0.8,5,3.5,6.5c3-1.6,4.3-5.7,8.1-6.2c2-1.4,3.1-3.3,2.8-5.7
		c-0.3-3,1-4.7,3.6-5.6c1.6,0.4,1.9,1.7,2.2,3c1.1,5.5,4.6,9.4,8.5,13.1c0.2,0.2,0.4,0.3,0.5,0.5c3.1,3.9,7.1,5.3,12.1,4.8
		c4.6-0.5,8.9,1.7,13.6,1.4c6.7-0.4,13.3-0.8,19.8-2.3c3.6-0.8,6.5-0.3,9.4,2.1c6.2,5.1,7.3,8.1,2.3,14.3c-5,6.3-9.3,13.1-14.8,19
		c-0.1,0.1-0.1,0.2-0.3,0.5c1.1,2-0.1,3.5-1.5,5c-5,5.6-10.7,10-17.9,12.6c-3.9,1.4-7.7,3.4-11.6,5.1c-5.6,2.5-11.3,4.5-17.5,5
		c-6.9,0.5-13.2,3-19.7,5.1c-5.2,1.7-10.5,3.5-15.9,4.6c-8,1.6-16.1,1.2-24.1-0.1c-0.7-0.1-1.4-0.2-2.1-0.4
		c-3.9-0.6-5.2-1.7-3.8-5.2c1.7-4.3,0.6-8.5,1.2-12.7c0.6-4.1,0.5-8.2,1.8-12.2c1.1-3.1-0.3-6-0.6-9c-0.1-1.6-0.7-3.2,0.7-4.6
		c1.9,1.1,1.1,3,1.5,4.5c1.3,4.1,1.1,8.2,0.4,12.5c-0.8,5-2.1,10.1-0.7,15.3c0.4,1.3-0.2,2.5-0.6,3.8c-0.5,1.2-1.3,2.3-0.7,4
		c3.2,2.1,7,1.1,10.6,1.5c12.8,1.4,24.6-2.7,36.3-6.9c5.5-1.9,11-3.2,16.8-3.7c3.3-0.3,6.5-1.1,9.5-2.2c8-3,15.9-6.5,23.6-10.2
		c3.2-1.6,6.2-3.6,8.3-6.5c3.1-4.3,5.8-8.8,9.2-12.9c2.2-2.7,3.1-6.2,1.8-9.9c-1.1-3.2-1.9-6.5-3-10.4c-9.3,5.3-19.1,8.2-29.4,10.9
		c-0.6,1.7-1.6,3.8-3.2,5.2c-1.9,0-1.5-1.4-1.8-2.3c-2.2,0.4-3.4,2.6-5.5,2.9c-1.4-0.5-1.2-1.7-1.3-2.7c0-0.2,0-0.3,0-0.5
		c0.1-2-1.1-2.6-2.8-2.7c-1.3,0.5-1.2,2-2.1,2.7C975.4,571.3,975.1,571.4,974.8,571.3z"/>
	<path d="M330.6,158.6c-1.9,1.5-4.4,2-6.6,3.5c0.5,1.2,1.9-0.4,2.3,0.9c-2,2.8-5,3.2-8.6,3c0,4-2.8,6.3-5,9.1
		c-2.8,3.6-5.3,7.4-7.4,11.5c-0.6,1.2-1.1,2.3-1.5,3.6c-1.2,4.4-2.3,8.8,3.1,11.7c-1.9,1.3-3.2-0.5-4.7,0c-1.1,0.5,0.4,2-0.9,2.7
		c-0.2-0.1-0.6-0.1-0.9-0.3c-0.7-0.6-1.6-1.2-1.9-2c-2.4-6.4-8.1-6.9-13.8-7.9c-1.8,2.2-1.6,5.6-4.3,7.4c2.1,8.9,10,10.1,16.3,13.3
		c1.4-0.3,1.5-1.9,2.6-2.1c1.2,2.6,0.7,3.9-1.7,4.2c-1.8,0.2-3.5-0.2-5.1-0.9c-0.9-0.4-1.7-1.3-3.2-0.7c0.4,2.1-0.3,3.7-1.9,5.4
		c-1.5,1.7-0.6,4.3-0.4,6.5c0.2,1.6,1,3.2,0.3,4.8l0.1-0.1c-0.6-1.1-1.3-2.2-2.3-3.9c-0.2,4.6-1.4,8-6.4,9.4c1.2,0.7,2,1.1,2.7,1.5
		c6.4,3.3,12.5,7.2,17.8,12c2.9,2.6,5.9,4.8,10.1,5c-0.8,2.2-2.3,0.3-3.3,1.2c2.5,2.3,5,4.6,7.4,6.9c6,5.6,11.5,11.7,17.2,17.7
		c2.7,2.8,5.4,5.6,9.6,6.1c1.3,0.2,2.5,1.1,4.2,1.9c-1.1-4.1-3.2-7.5-3.7-11.3c2.3,3.5,4,7.4,5.4,11.2c0.9,0.9,1.9,0.9,3.2,0.7
		c1.1-1.7,1.7-3.8,1.4-5.9c-1.1-6.4-2.7-12.6-5.9-18.4c-3.7-6.6-8.9-12.1-13-18.4c-0.2-0.3-0.3-0.6-0.4-0.8c0.3-0.6,0.8-1.1,1.1-0.8
		c3.7,3.7,9.1,4,13.3,6.7c2.9,1.9,6.2,3.1,9.1,5.3c5.2,4,7.7,9.7,10.5,15.2c1.8,3.8,3.5,7.7,5.2,11.6c2.2,5,3.1,10,1.8,15.4
		c-0.7,2.8-0.5,5.5,0.8,8.2c1.8,3.9,1.6,8.2,1.7,12.8c1.8-1.5,2.4-3.4,3.2-5c2.5-1.1,4.8-0.2,7.3,0.3c-2.3-25.9-4.7-51.5-6.9-77.1
		c-2.2-25.5-4.7-51-6.6-76.5c0.5,0,1-0.1,1.5-0.1c2.5,25.7,4.6,51.4,7,77.1c2.4,25.7,4.5,51.5,6.8,77.2c1,1.7,3.3,2,4,4.2
		c-0.1,3.6-3.2,6.8-2.6,11.2c6.3,0.9,12.4,3,19.2,2.8c-5.1-57.5-10.2-114.6-15.2-171.8c2.1,2,6.9,53.2,9.4,85.8
		c2.2,28.7,5,57.3,7.6,86c9.2-2.4,18.4-3.2,27.3-6.8c0.4-1.8,1.9-3.2,3.7-4.4c2.3-1.5,4.6-2.9,6.2-5.6c1.1-1.8,3.3-2.6,5.6-1.8
		c1.3,0.5,2.6,0.9,4,1.4c1.5-1.9,1.2-4.7,3.4-7.2c1,3.8-1.1,6.3-2,9.2c2.7,2.4,3,6.1,4.7,9.2c1.5,0.3,3-0.4,4.7,0.5
		c-1.1,1.1-2.5,0.7-3.6,0.9c-3.6,4.6-5,4.8-10,1c-2.1,2-2,2.5,1.3,4.1c0.5,1.8-1.4,1.8-2.2,2.9c5,2.2,9.8,4.7,15.3,1.6
		c-2.6-1-5.4-1-8.1-1.4c-2.1-0.3-4.2-0.6-5-3.1c0.9-1.2,2-0.8,3.2-0.6c3.5,0.6,6.9,1.1,10.4,1.4c1.1,0.1,2.3-0.4,3.3-0.7
		c2.6-6.3,1.6-9.7-3-10.6c-0.3,0.7,0.8,0.7,0.6,1.6c-0.8,1.3-2.7,1-4.1,1.7c1.2-4.4,2.4-8.7,3.6-13.2c-1.6-0.9-3.4-0.6-4.9-1
		c-1.6-0.5-2.5-1.6-2.8-3.4c2.4-0.2,4.5,0.5,6.6,1.3c1.9,0.8,2.9,2.2,2.3,4.5c-0.6,1.9-0.8,3.9-1.2,5.6c0.7,1.1,1.7,1.2,2.6,1.6
		c2.2,1,3.1,2.7,3,5.1c-0.2,2.5-0.4,5.1,0.2,7.6c0.6,2.4-1,4-2.6,5.4c0.5,1.5,0.7,2.8,0,4.2c-1.7,3.3-3.3,6.7-5.1,10
		c-1,1.8-2.6,2.6-4.8,1.7c-1.1-0.4-2.3-0.6-3.9-0.9c-1.7,8.2-4.4,16-7.1,23.7c1.2,0.8,2.2-0.3,2.8,0.3c1,0.8,1.5,1.7,1.6,2.6
		c0.5,3.7,0.9,7.5,1.3,11.2c0.3,2.2-0.7,3.5-2.8,4.2c-6.7,2.3-13.5,4-20.6,3.8c-5.8-0.1-11.4,0.5-17.7,0.9
		c3.6,40.3,7.2,80.4,10.7,120.6c3.5,40,7.2,80,10.6,120c-0.5,0-1.1,0.1-1.6,0.1c-7.2-80-14.2-160.1-21.4-240.3
		c-1.8,0-3.3-0.7-5.5,0.3c7.3,79.4,14.7,159,22,238.6c-0.3,0-0.6,0.1-0.9,0.1c-7.4-79.9-14.7-159.9-22.1-240
		c11.9-3.4,24.7-0.4,37.2-3c0.3-5-1.1-9.7-0.4-14.5c-2.7-0.5-5,0.9-7.1-0.3c0-0.3,0-0.6,0-0.9c3.1,0,6.1,0,9.2,0
		c1.5,2.4,1.6,5,1.7,7.7c0,1.9,0.2,4.2,2.9,3.9c2.5-0.3,2.6-2.3,2.3-4.3c-0.1-0.8-0.2-1.6-0.2-2.4c-0.1-2-1-3.1-3.2-2.7
		c-1.9,0.4-2.9-0.4-3.5-2.1c0.7-1.5,2.8-1,4.1-2.7c-4.7,1.2-9.1,1.8-13.2,1.2c-4-0.6-7.5,0.5-11.2,1.3c-0.7,0.5,0.9,1.3-0.7,1.9
		c-1.8-0.1-3.9,0.4-5.9,1.3c-1.6,0.8-3.2,0.6-5,0.3c-3.1-0.5-6.4-0.4-9.5,0c-6.2,0.8-12.4-0.1-18.6,0.3c-2.9,0.2-5.9,0.1-8.7,0.7
		c-1.8,0.4-3.7,0.4-5.8,0.2c-1.7,3.1-2.3,6.5-2.6,10c1.3,0.8,2.5-0.4,4-0.1c1.3,0.8,3.1,1.6,3.1,3.6c6.1,0,12-1.1,17.7-0.1
		c1.5,1.6,1.3,3.4,1.5,5.1c1.8,20,3.5,40,5.3,60.1c2,22.4,4,44.7,6,67.1c1.8,20,3.5,40,5.3,60.1c1.3,14.4,2.6,28.8,3.9,43.2
		c0.2,1.9,0.5,3.9-0.4,5.8c-2.1-9.8-2.5-19.7-3.5-29.6c-1-9.9-1.7-19.9-2.6-29.9c-0.9-10.1-1.8-20.1-2.7-30.2
		c-0.9-9.9-1.8-19.9-2.7-29.8c-0.9-10.1-1.8-20.1-2.7-30.2c-0.9-10-1.7-19.9-2.6-29.9c-0.9-10.1-1.8-20.1-2.7-30.2
		c-0.9-9.9-1.8-19.8-2.7-29.8c-5.7-0.9-11,0.3-16.7,0.3c0,5.7,1.2,11.1,0.6,16.7c-4.5,1.6-9,2.7-13.5,2.9
		c-19.9,0.9-39.7,1.5-59.6,2.2c-14.1,0.5-28.2,1-42.3,1.5c-15.8,0.6-31.6,1.2-47.4,1.8c-1.1,0-2.4-0.2-3.5,0.6
		c6.1,70.5,14.3,140.9,19.7,211.5c0,0.2-0.5,0.4-0.8,0.5c-1.6-0.3-1.6-1.6-1.7-2.8c-2.1-21.6-4.2-43.3-6.3-64.9
		c-2.2-23.2-4.5-46.3-6.7-69.5c-2-20.7-4-41.4-6-62.1c-0.4-4.2-0.8-8.4-1.3-12.6c-2.4-0.6-4.6-0.2-7.4-0.2
		c6.9,70.8,13.7,141.4,20.6,211.9c-0.8,0.2-0.9,0.2-1,0.2c-0.1,0-0.2-0.1-0.3-0.2c-0.7-0.6-0.5-1.5-0.6-2.3
		c-6.9-70.7-13.7-141.4-20.6-212.4c29.9-1.1,59.3-2,88.8-3.2c29.3-1.2,58.7-1.5,88.2-3.7c-0.3-6.6-0.6-12.6-0.9-18.9
		c-2.6,0.1-5.3,0.2-7.8,0.5c-4.6,0.6-9.1,0.9-13.6-0.3c-0.5-0.1-1.2-0.2-1.7,0c-5,1.7-10.5,1.2-15.3,3.9c-1.2,0.7-2.7,0.9-4,1.3
		c-2.5,0.7-4.8,1-7.5,0c-3.4-1.2-7.2-0.9-10.8-0.9c-10.7-0.1-21.4-0.3-32.1-0.1c-5.3,0.1-10.5,0.9-15.8,1.5
		c-7,0.9-14.1,0.3-21.1,1.1c-5,0.6-9.8,1.3-15,0.6c-7.1-0.9-14.5,0.5-21.8,0.9c-3.6,0.2-7.2,0.6-11.3-0.2
		c-2.7-27.6-5.4-55.4-8.1-83.2c-2.7-27.8-5.4-55.7-8.1-83.5c-2.7-27.7-5.4-55.4-8-83.1c0.5-0.1,1.1-0.1,1.6-0.1
		c4.1,41.4,8.1,82.7,12.1,124.1c4,41.4,8.1,82.7,12.2,124.6c7.7-0.3,15.1-0.6,22.4-0.9c0-0.2,0-0.4,0-0.6c-4.9,0-9.8,0-15.1,0
		c-8.1-83.2-16.1-166.2-24.2-249.4c2.3-1.3,2.9,0.1,3.1,2.2c0.7,6.9,1.4,13.8,2,20.7c2.3,23.4,4.5,46.8,6.8,70.2
		c2.2,23.2,4.4,46.3,6.7,69.5c2.2,23.1,4.5,46.1,6.7,69.1c0.5,5.2,1,10.5,1.6,16.3c3.8-1.1,7.4-0.4,11-1c-0.4-3.8-0.4-7.4,0.1-11.1
		c0.9-7,5.7-11.8,12.8-12.5c2.7-0.3,5.4-0.3,8.1-0.4c0.1-0.3,0.2-0.6,0.1-0.7c-6.7-12.4-8.4-26.2-10.9-39.8
		c-1.4-7.6-1.9-15.4-0.9-23.2c0.4-2.9,1.1-5.8,1.8-8.6c1.4-5.6,1.1-11,0.2-16.7c-1.4-9.2,0-18.2,5.1-26.4c3.6-5.8,9.1-9.7,13.7-14.6
		c0.8-0.9,1.9-1.4,2.3-2.6c1.1-3.5,3.9-4.8,7.1-5.7c7.5-2,14.6-5.1,21.5-8.6c0.7-0.4,1.3-1,2-1.5c0.6-6.7-0.4-13.2-1.6-19.7
		c-0.8-4.8-3.7-8.8-4.5-13.5c-0.3-1.8-1.3-3.5-0.3-5.5c0.5-0.9-0.2-1.8-0.8-2.5c-0.8,0.5,0.2,1.7-0.9,2.2c-1.4-1.8-1.9-3.9-2-6.2
		c-0.1-2.2-0.5-4.2-2.3-5.7c-1-0.9-1.6-2-1.7-3.4c-0.3-5.1-1.7-10.2,1-15.2c0.6-1.2-0.5-3,1.1-3.9c-1.1-1.7-3.5-2.7-2.1-5
		c1.4-2.2,3.5-1,5.4-0.6c0.9,0.2,1.7,0.9,2.8,0.6c-1.1-1.7-0.6-3.4-1-5.5c2.7,0.4,3.2,3,5.6,3.4c2.7-3.3,7-4.8,10.4-7.3
		c2.8-2,6.1-2.6,9.7-2.2c3.5,0.5,6.7-1.2,9.6-3.2c1.3-0.9,2.5-2.2,4.2-1.4c1.2,1.3-0.1,2.1-0.3,3.4c4.3-1.3,8.6-2.6,13-1.4
		c1.7,0.3,1.6,2.3,2.9,3.3c0.9-1.7,1-3.9,2.9-5.3c1.4,1.2,2.9,2.5,4.8,2.2c0.8,1.7-1,2.1-1.3,3.5c2.1-0.2,3.4-1.9,5.2-2.5
		c3.2,0.5,3.2,2.7,3.5,5.4c0.2,2,0.1,4.1,0.6,6.2c-1.8,2-4.4,2.9-6.7,4.6c1.2,4.2,4.3,7.5,5.5,11.7c1.2,3.8,2.7,7.7,0.7,12.2
		c-0.2,0.1-0.9,0.3-1.7,0.6c0.1,0.4,0.2,0.8,0.3,1.1c1.5,2.7,3.2,5.2,5.1,7.6c2.9,3.6,2.7,5.1-0.9,8.2c-0.3,0.2-0.4,0.6-0.7,0.9
		c0,2.5,2.2,4,2.7,6.6c-0.8,1.4-1.7,3.1-0.9,5c0.3,0.7,0.3,1.5-0.3,2c-2.4,2.2-1.4,4.6-0.7,7.2c1.1,4.2-2.5,8.8-6.7,8.9
		c-2.5,0.1-4.8-0.8-7.4-0.2c-2.5,5.5-3.1,11.6-4.4,17.7c-2.6-2.6-2-6.4,2.7-18c-6.5-1.8-12.7-4.4-19.4-4.6c0.1-1.4,0.8-1.5,1.5-1.4
		c7.7,1,15.5,1.1,22.8,3.9c2.3,0.9,4.8,0.2,6.8-0.8c1.9-0.9,3.4-2.9,2.3-5.3c-1.5-3.2-1.6-6.1,1.2-8.2c-0.1-1.4-0.8-2-1.3-2.5
		c-2.9-0.7-5.4,2.2-8.3,0.3c0.9-2.7,3.2-1.8,4.8-2.4c1.6-0.7,3.6-0.1,5-1.7c-0.9-2.7-2.3-5.3-2.3-8.6c-1.5,0.5-2.9,2.8-4.3,0.1
		c0.8-1.7,2.5-2.3,4.2-2c1.2,0.2,2.4,0.6,3-0.7c0.6-1.2-0.1-2.3-0.8-3.2c-1.8-2.3-3.6-4.6-5.1-7.2c-2.1-3.6-1.7-5.3,1.6-7.3
		c-1.4-6.6-4.1-12.7-7.3-18.8C335.4,159.7,332.5,162.7,330.6,158.6c4.6-0.8,7.6-4.2,10.4-5.9C338.2,154.5,335.1,157.7,330.6,158.6z"
		/>
	<path d="M306.7,450.1c-5.4,1.7-11,0.3-16.5,1c-4.5,0.6-9,0.1-13.5-0.3c-3.8-0.3-7.4-1.4-10.6-4.1c-0.4,1.6-1.5,2.6-2.7,3.5
		c-4.8,3.4-6.7,8.1-5.3,13.8c1.4,5.7-0.2,11.2-0.8,16.8c-0.8,6.9-0.3,13.8-0.1,20.7c0.1,2.4,0.2,4.6-0.2,7
		c-0.7,3.9-0.2,7.8,0.8,11.5c2,7.2,3.7,14.6,6.3,21.6c1.9,5.1,2.8,10.4,3.8,15.7c1.4,7.5,2.5,15.1,3.8,22.6
		c0.6,3.6,1.4,7.1,2.7,10.5c2.4,5.9,2.5,11.9,1.4,18.2c13.1,3.4,26.3,1.3,39.4,0.5c13.4-0.8,26.1-4.6,38.4-10.2
		c-1-8.8-1.9-17.7-2.9-26.8c-1.1-0.1-1.8,1.6-3.1,1.2l0.1,0.1c4.7-3.2,4.4-8,4.1-12.8c-0.1-2.5,0-5.1,0.2-7.6c1.1,2.9,1.1,6,1.3,9
		c0.2,3.3,0.3,6.6-0.6,9.8c-0.5,1.8-0.4,3.8,0,5.6c1.5,5.3,1.1,10.9,2.5,16.3c1.2,4.6-0.1,6.5-4.3,8.7c-2.3,1.2-4.8,1.9-7.3,3.1
		c-0.4,3.4-1,6.8-2.3,10.1c-0.5,1.3,0,2.5,0.3,3.8c1.7,6.3-1,14.5-7.1,19.4c-1-1.5-0.2-2.7,0.5-3.9c1-1.7,2.1-3.4,3.1-5.1
		c1.6-2.9,2.2-6,1.2-9.2c-0.8-2.6-0.8-5,0-7.6c0.6-2,1.3-4,1.1-6.5c-6.4,2.3-12.8,3.4-19.2,5.2c1,3.1,3.1,5.3,4.1,8.2
		c-3.2-1.9-5.8-4.2-6.6-7.9c-11.5,0.6-22.6,2.5-34.1,1.2c-0.6,6.3,1.9,12.6,0.2,18.9c-1.7,6.1-3.5,12.1-3.4,18.2
		c-0.9,0.3-1.4,0.1-1.4-0.2c-0.5-4.2-1.7-8.6,0-12.5c3.6-8,2.7-16,1.3-24.3c-2-1.3-4.4-1.1-6.8-1.6c-1.2-2.1-1.5-4.2-1-6.6
		c0.7-3.1,0.8-6.3-0.2-9.4c-1.4-4.6-2.1-9.3-4.3-13.7c-1-1.9-1.1-4.3-1.4-6.5c-1.2-8.6-2.7-17.2-4.6-25.7c-2-9.2-5.3-18-7.2-27.2
		c-1.1-5.2-1.8-10.3-1.3-15.7c0.3-3.4-0.3-6.8-0.3-10.2c-0.1-5.5,0.3-11,1.2-16.5c0.9-5.3,0.4-10.6-0.1-15.8
		c-0.6-5.8,0.9-10.6,5.5-14.3c1.5-1.2,2.7-2.8,2.7-4.8c0.1-4.5,1.9-8.9,1.1-13.5c-0.1-0.9-0.1-1.9,0.4-2.7c0.7-0.6,1.5-0.6,2.6,0
		c0.6,2.7,0.2,5.6,0.2,8.5c6.5,1.8,13,2.3,19.5,3c11,1.2,22,0.7,33,1.4c5.7,0.4,11.5-0.4,17.3-0.4c6.3-0.1,12.1-2.9,18-4.5
		c1.8-0.5,3.5-1.2,5.3-1.9c1.4-3.1,0.7-6.5,1.3-9.6c1.7-0.4,2.5,0.3,2.5,1.7c0,1.5,0.1,3.1-0.3,4.6c-1.7,5.4-0.3,10.5,3,14.4
		c5.1,6,6.1,12.9,5.6,20.1c-0.5,7.2,0.1,14.1,3.3,20.8c2.2,4.6,3,9.6,3,14.7c0,5.9,1,11.7,3.8,17c1.7,3.1,1.1,6.4,0.6,9.7
		c-0.5,2.8-1,5.5,0.1,8.3c0.5,1.4,0.1,2.8-0.4,4.1c-1,2.7-1.1,5.5-0.8,8.3c0.3,3.6,0.1,7.2-1.2,10.8c-1.3,3.3-1.6,6.8-1.5,10.4
		c0.2,5,0,10,0,14.8c-0.7,1.1-1.7,0-2.4,0.5c0.1,0.4,0.1,0.8,0.2,1.1c1.7,2.4,1.9,5,0.8,7.7c-0.7,1.7-0.6,3.4-0.5,5.2
		c0.6,5.2,0.3,10.2-2.4,15c-2.2,4-2.2,8.8-4.2,13.3c-1.3-1.4-1.2-3.1-0.9-4.6c0.8-3.3,1.3-6.8,2.7-9.8c2.3-5,2.8-10.1,2-15.4
		c-0.2-1.4-0.1-2.8,0.4-4.1c0.9-2.3,0.6-4.6-0.4-7c-3.4,0.8-6.8,1.8-10.2,2.3c-3.2,0.5-6.4,2.4-9.8,0.3c7-3.2,14.8-3.5,22.2-6.5
		c0-4,0.1-8.3,0-12.6c-0.1-3.8,0.2-7.5,1.6-11.1c1.5-3.8,1.4-7.6,1-11.5c-0.1-0.8-0.4-1.7-0.1-2.4c2.2-6.4,0.2-13.3,2-19.7
		c0.8-2.8,0-5.5-1.5-8.1c-2.3-4-3.8-8.5-3.7-13.1c0.2-7.1-1.7-13.7-4.1-20.2c-0.9-2.3-1.6-4.7-2.4-7c-0.5-1.6-0.7-3.2-0.5-4.9
		c1.1-8.3,0.8-16.3-4.2-23.5c-1.3-1.8-2.3-3.8-2.9-6.3c-1,1.1-1,2.4-1.9,3.1c-1,0.2-0.9-0.9-1.8-1.5c0.2,3.2,3.7,4,3.9,6.7
		c0.2,2.7,0.1,5.2-1.1,7.9c0.7-5.4-1.5-9.6-5.2-13.3c-0.7-0.4,0,0.9-0.7,1.3c-0.8,0.4-0.7-1.2-1.9-0.7c-1.7,4.5,2.9,6.6,4.1,9.9
		c-3.1-0.1-4.9-1.8-7.2-6.5c-0.3-1.4,1.5-1.3,1.7-2.2c-0.2-0.3-0.2-0.5-0.3-0.5c-2.9,0.1-5.7,1.3-8.6,1.1c-0.9-0.1-0.7,1.1-0.8,1.3
		c-5.6-0.5-10.7,1.2-16,1.2c-5.3,0-10.6-0.4-15.8-0.5c-0.1-0.1-0.2-0.2-0.3-0.4c-0.5-1.4,0.7-2.1,1.2-3.1
		c-7.4-1.5-14.8-1.3-21.9-1.3c2.8-0.7,6,0.1,9.1,0.3c2.1,0.1,5.4,1.6,7.2,4C306.8,449.8,306.8,450,306.7,450.1z"/>
	<path d="M567.1,170.8c1.1,0.6,1.3,1.3,1.4,2.2c16,160.6,32.7,321.1,48.1,481.7c0,0.4-0.5,0.8-1.3,0.9c-1.6-0.6-1.3-2.4-1.5-3.7
		c-1.3-12.5-2.5-25-3.8-37.5c-2.2-22.2-4.5-44.4-6.7-66.7c-2.2-22.3-4.5-44.7-6.7-67c-2.2-22-4.4-44-6.6-66
		c-2.3-22.5-4.5-44.9-6.8-67.4c-2.2-22-4.4-44-6.6-66c-2.3-22.5-4.5-44.9-6.8-67.4c-1.3-13.1-2.7-26.2-4-39.3
		C565.7,173.2,564.9,171.6,567.1,170.8z"/>
	<path d="M151.3,160.9c1.7,0.5,1.6,1.8,1.7,2.9c2.3,23.3,4.7,46.5,7,69.8c2.2,22.1,4.5,44.2,6.7,66.3c2.2,22.1,4.4,44.2,6.7,66.3
		c2.2,22.1,4.4,44.2,6.7,66.3c2.2,22.3,4.5,44.7,6.8,67c2.3,22.3,4.5,44.7,6.8,67c2.2,22,4.4,44,6.6,66c0.3,3.4,0.7,6.8,1,10.2
		c0.1,1.2,0.4,2.4-1.2,2.9c-1.9-0.5-1.6-2.2-1.7-3.4c-1.1-10.3-2.1-20.6-3.1-30.9c-2.2-22.3-4.5-44.7-6.8-67
		c-2.2-22.1-4.4-44.2-6.7-66.3c-2.2-22.2-4.5-44.4-6.7-66.7c-2-19.9-4-39.8-6-59.6c-2.2-22.1-4.4-44.2-6.7-66.3
		c-2.2-22.2-4.5-44.4-6.7-66.7c-1.8-18-3.6-36-5.5-54C150.1,163.4,149.4,161.9,151.3,160.9z"/>
	<path d="M836.6,487.6c1.6-0.1,1.5,1.1,1.6,2.1c0.9,10.4,1.9,20.8,2.8,31.2c2,22.7,4.1,45.4,6.1,68.1c1.5,17.2,3,34.4,4.5,51.6
		c0.3,3.7,0.7,7.5,1,11.2c0.1,1,0.6,2.1-0.5,3.2c-1.2-0.6-1.1-1.9-1.2-2.9c-1.5-17.1-3-34.2-4.5-51.3c-2-22.5-4-44.9-6-67.4
		c-1.3-14.2-2.5-28.3-3.7-42.5C836.5,489.9,836.6,488.7,836.6,487.6L836.6,487.6z"/>
	<path d="M802.1,173.2c5.2,56.8,10.5,113.5,15.7,170.3c-0.3,0-0.6,0.1-0.9,0.1c-5.2-56.8-10.5-113.5-15.7-170.3
		C801.5,173.2,801.8,173.2,802.1,173.2z"/>
	<path d="M401.3,333.6c-5.2-56.8-10.4-113.5-15.7-170.3c0.3,0,0.6-0.1,0.8-0.1c5.2,56.8,10.5,113.5,15.7,170.3
		C401.9,333.6,401.6,333.6,401.3,333.6z"/>
	<path d="M831.3,490.4c5,54.4,10,108.8,15.1,163.2c-0.3,0-0.6,0.1-0.9,0.1c-5-54.4-10-108.8-15-163.2
		C830.7,490.5,831,490.5,831.3,490.4z"/>
	<path d="M339.6,509.3c-2.8-0.9-3.5-3-4-5.2c-0.7-3.2-1.4-6.4-2-9.6c-0.9-4.7-3.2-8.8-6-12.6c-0.7-0.9-1.4-1.8-2.7-2
		c-6.4-0.9-9-5.9-12-11.5c1.9,0.6,2.2,1.8,2.7,2.7c2.4,3.9,5,7.5,10.3,7.4c1.4,0,2.2,1.2,3.2,2c6.3,5.5,8.6,13,10.1,20.8
		C339.6,503.7,340.3,506.2,339.6,509.3z"/>
	<path d="M713.4,216.5c-0.8,3.2-3.5,2.8-6,3c-0.2-3.2-2.6-6.1-0.7-9.2c-1-1.3-2-1.9-3.2-2.3c-0.7,0.9-0.5,1.9-0.7,2.8
		c0.5,1.3,1.9,2,2.4,3.4c0.4,1.2,1,2.4,0.5,3.9c-1.4-1.5-1.9-3.5-3.5-4.6c-1.1,1.2-1.1,1.2,0.8,5.1c-2.3-0.7-3.7-1.9-4.9-3.8
		c2.4-2.7,2.6-6.2,3.2-9.6c4.1,0.5,6.4,3.2,9.3,4.5c-0.1,0.9-0.3,1.2-0.7,1.2c-1.4-0.2-1.9,0.7-1.9,1.9c0.1,1.2,1,1.7,2.1,1.9
		C712.1,215,712.1,215.1,713.4,216.5z"/>
	<path d="M285.4,195.4c4.1,0.3,6.4,3.2,9.3,4.4c-0.1,1.3-0.7,1.2-1.3,1.2c-1.2,0-1.2,1-1.2,1.8c0,1.3,1,2,2,1.9
		c1.6-0.1,2.7,0.3,3.5,1.7c-1.1,2.9-2,3.3-6,2.9c-0.2-3-2.4-5.8-0.7-8.9c-0.8-1.3-1.9-1.9-3.1-2.3c-0.7,1-0.6,2-0.7,3.2
		c1.9,1.8,3.3,3.9,3,7.6c-1.6-2.2-2-4.2-3.7-5.4c-1,0-1.2,0.8-1.4,1.5c0.2,1.4,2.2,1.6,2,3.5c-2.1-0.5-3.4-1.8-4.8-3.5
		C284.5,202.3,284.9,198.8,285.4,195.4z"/>
	<path d="M336.9,599.2c4.8-0.6,9.2-2.6,13.9-4.5c0,1.6-1.1,1.7-1.8,2c-5.4,2.3-11.2,3.2-17,3.9c-2.7,0.3-5.2-1.7-5.5-4.3
		c-0.3-2.4,1.7-4.8,4.3-5.1c2.7-0.3,4.8,1.6,5,4.6C335.9,597.1,335.8,598.2,336.9,599.2z"/>
	<path d="M286.9,535.6c0,4.2-0.1,8.3,0,12.5c0.1,3.6,0.3,7.3,1.6,10.7c0.1,0.3,0.4,0.7,0.3,1c-0.7,8.3,3.4,15.8,4.4,23.7
		c0.8,6.4,4,10.5,9.2,13.6c0.4,0.2,0.7,0.6,1.1,0.9c0.1,0.1,0,0.2,0,0.3c-4.4-0.2-10.2-7.2-11-11.4c-0.9-4.5-1.9-8.9-2.9-13.4
		c-0.1-0.3-0.2-0.7-0.3-1c-1.2-6-0.9-12.3-2.4-18.3C285.4,548.2,286.5,541.8,286.9,535.6z"/>
	<path d="M338.5,177.2c-0.9,1.1-1.9,1-2.5,0.6c-3.1-1.8-6.1-0.7-9.2,0.1c-3,0.8-5.9,1.7-9,2.2c2.5-4.6,8.6-3.5,11.8-7.7
		C332.4,173.9,336.1,173.9,338.5,177.2z"/>
	<path d="M733.3,189.5c2.7-4.2,8.8-3.1,11.9-7.3c2.9,1.5,6.6,1.6,8.8,4.7c-0.7,1.3-1.8,1.1-2.5,0.6c-2.9-1.6-5.7-0.8-8.5,0
		c-3.1,0.9-6.2,1.8-9.3,2.6C733.6,190,733.4,189.8,733.3,189.5z"/>
	<path d="M352,547.3c-1.9-3-4.1-6-0.7-9.3c-1.2-2.9-3.1-1.9-5.1-1.5c1.1-0.9,2.3-1.7,2.3-3.1c1.2-0.5,1.9,0.8,3.4,0.2
		c2.2-3,4.6-6.4,3.9-11c-0.4-2.8,1.7-4.3,3.4-6.1c0.2,0.3,0.4,0.6,0.4,0.7c-1.8,2.8-2.6,5.7-2.8,9.1c-0.2,3.3-2.2,6.1-4.5,8.9
		c1.8,1.8,1.6,3.6,0,5.5C350.5,542.8,351.7,545,352,547.3z"/>
	<path d="M279.5,481.3c-0.7-2.3-0.7-2.3,0.3-7c-0.2,3.3-0.4,6,2.2,7.9c0.4,0.3,0.7,1,0.9,1.5c2.6,9.7,6.2,19.2,4.4,29.7
		c-1.2-0.5-1.1-1.5-1-2.4c0.7-8.6-2.1-16.7-3.8-24.9c-0.4-1.8-1.2-3.6-2.8-4.7L279.5,481.3z"/>
	<path d="M963.4,589.7c-1.4,0.7-2.4,1.4-3.6,1.9c-2.5,1.1-5.1,0-6.1-2.5c-1-2.6,0.3-5.4,2.9-6.2c2.5-0.8,5.1,0.6,5.7,3.2
		C962.6,587.3,962.9,588.3,963.4,589.7z"/>
	<path d="M292.6,547.7c9.7,11.4,22.7,15.8,36.9,17.6C314.6,565.2,301.9,560.1,292.6,547.7z"/>
	<path d="M325.9,598c0,2.6-2.1,4.7-4.8,4.7c-2.4,0-4.7-2.4-4.6-4.8c0.1-2.3,2.2-4.4,4.6-4.5C323.7,593.3,325.9,595.4,325.9,598z"/>
	<path d="M948.5,595.6c-2.5,0.1-4.7-2.2-4.7-4.7c0-2.4,2-4.5,4.5-4.6c2.5-0.1,4.8,1.9,4.9,4.5C953.2,593.2,951,595.5,948.5,595.6z"
		/>
	<path d="M300.1,218.5c0.4-0.6,0.7-0.4,1.2-0.3c0.2-1.3-1.3-2.8,0.3-4c2.1,1.4,2.4,3.9,3.6,5.7c1.2,1.8,3.7,2.3,5.5,4.3
		c-3.6,0.8-5.5-1.6-8.1-3.1c0.8,2.6,2.2,4.7,1.9,7.3C303.1,225.1,301.6,221.9,300.1,218.5z"/>
	<path d="M718.1,230.7c1.2,2.9,2.2,5.1,2.1,7.6c-1.5-3.3-2.9-6.6-4.4-9.8c2.2-1-0.4-3.2,1.7-4.5c2.6,3.4,4,8.1,8.7,9.9
		C722.8,234.8,720.9,232.7,718.1,230.7z"/>
	<path d="M311.7,601.5c-1.3,0.6,0,2.2-1.7,2.9c-1.9-2.4-1.5-5.4-2.2-8.3c2.5-0.7,4.8-2,6.9-0.1c1.5,1.3,0.8,3,0,4.4
		c0,1.2,1.6,1.4,1.5,2.7C314,604.5,313.4,601.2,311.7,601.5z"/>
	<path d="M373.7,590.1c1.6,2.9-0.1,4.6-1.8,6.2c-1.9,1.7-4.1,3.1-6,4.8c-2.6,2.3-7.7,2.1-9.9-0.3c3.6-1.2,7.8,0.7,10.7-2.2
		C369.3,596.1,372.6,594.1,373.7,590.1z"/>
	<path d="M935.3,591.2c2.1-0.9,4.1-2.5,6.3-1.2c2,1.1,1.1,3,0.8,4.8c0.7,0.6,1.4,1.2,2.2,1.9c-2,1.8-3.1-0.8-4.6-0.8
		c-1.7,0.8,0.3,2.2-0.7,3.1C937.3,598.1,936.9,597.4,935.3,591.2z"/>
	<path d="M974.8,571.3l0.2-0.1c2.4-4,2.8-4.2,6.4-2.8c0.7,1.3-0.2,2.2-0.8,3.1l0.1-0.1c-2.9,1.9-5.2,4.9-9.2,5.8
		C971.5,574.5,973.4,573.1,974.8,571.3z"/>
	<path d="M751.1,194.3c-3.2,0-6.2,1.2-9.5-0.4c1.7-3.9,5-3.5,8.1-4.2C750,191.4,750.5,192.7,751.1,194.3z"/>
	<path d="M326,184.1c1.7-3.9,5.1-3.4,8.2-4.3c0.2,1.8,0.8,3.1,1.9,5C332.4,184.5,329.4,185.7,326,184.1z"/>
	<path d="M297.8,561.1c2.4,1,2.7,2.9,3.3,4.5c1.7,4.8,3.5,9.7,6.4,14c1.3,1.9,2.8,3.6,3.9,5.6C303.4,579.3,301.6,570,297.8,561.1z"
		/>
	<path d="M359.7,606.3c-0.2,3.8,1.8,6.4,4.1,8.9c0.7,0.8,1.1,1.9-0.1,2.7C358.6,616.5,356.2,610.3,359.7,606.3z"/>
	<path d="M333.1,452.2c4,4.1,2.1,9.7,4.7,13.9c-2-1-5.4-7.8-6.1-11.6C331.6,454,331.6,454,333.1,452.2z"/>
	<path d="M301.2,493.9c4.4,7.3,12.5,8.9,19.5,12.2C312.7,504.4,305.1,502.1,301.2,493.9z"/>
	<path d="M289.2,522.2c2.8,6.4,3.1,13.3,4.7,20.2c-1.7-0.5-2-1.7-2.2-2.9C290.8,533.7,290,527.9,289.2,522.2z"/>
	<path d="M265.8,462.2c0.6-3,2-5.9,1-8.9c0.8-1.2,1.8-1.6,2.8-0.8c1,0.7,1,1.8,0.7,2.8C269.4,457.9,267.8,460.1,265.8,462.2z"/>
	<path d="M307.7,614.5c-1.2,5.8-1.5,11.3-0.7,16.9c-1.8-0.2-2.6-1.1-2.3-2.3c1.1-3.9-0.1-8,1.2-11.9
		C306.2,616.3,305.9,615.2,307.7,614.5z"/>
	<path d="M344.7,460.4c1.5,5,2.7,9.9,3.1,15.7C345.6,471.6,344.1,464.3,344.7,460.4z"/>
	<path d="M330.2,635.3c-4.1-2.7-5.4-5.5-3.9-8.5C328.8,629,329.5,631.8,330.2,635.3z"/>
	<path d="M371.5,513.4c-1.7,1.9-7,5.3-9,5.9C363.4,516.1,366.8,513.9,371.5,513.4z"/>
	<path d="M348.7,543.2c-3.6,3.7-8.3,4.6-13.1,5.5C340.1,547.1,344.3,545,348.7,543.2z"/>
	<path d="M366.9,554.4c4.3-2.8,8.5-4.6,11.3-8.4C376.7,550.1,372.8,553.1,366.9,554.4z"/>
	<path d="M734.8,245c-2.7-1.9-6.1-6.4-6.8-9.1C731.6,238.6,733.4,241.6,734.8,245z"/>
	<path d="M312.5,226.9c3.4,1.8,5.4,4.8,6.7,8.2C316,233.2,314.7,229.6,312.5,226.9z"/>
	<path d="M357.6,535.3c2.9-2.6,6.9-2.7,10.2-4.4C364.7,533.1,361.6,535.3,357.6,535.3z"/>
	<path d="M336.4,525.5c-2.3,1.8-5,1.1-7.6,1.3C330.9,524.1,333.8,525.6,336.4,525.5z"/>
	<path d="M361.8,502.1c-0.7,2.9-1.9,5.5-2.6,8.4C358.1,507.5,359.1,504.6,361.8,502.1z"/>
	<path d="M322.5,261.4c3.8,0.7,7.4,1.9,9.9,5.2C329.2,264.6,325.7,263.2,322.5,261.4z"/>
	<path d="M747.9,276.5c-3.1-2-6.6-3.3-9.7-5.2C741.9,272.1,745.5,273.1,747.9,276.5z"/>
	<path d="M365.7,548.9c-2.8,1.8-5.9,2.5-9,2.6c-0.1-0.3-0.1-0.6-0.2-0.9C359.5,550.1,362.6,549.5,365.7,548.9z"/>
	<path d="M365.1,489.6c-0.8,2.6-1,5.5-4,7.9C361.6,493.8,363.1,491.6,365.1,489.6z"/>
	<path d="M286,453.2c0.3,2.6-1.3,3.8-3.2,4.9C283.4,456.2,284.4,454.5,286,453.2z"/>
	<path d="M361.2,543.6c-2.6,0.5-5.3,1.5-7.5-0.5c0.1-0.3,0.1-0.6,0.2-1C356.3,542.6,358.8,543.1,361.2,543.6z"/>
	<path d="M360.5,627.8c-0.4-2.4,0.6-4.3,1-6.8C362.9,623.5,362.6,625.4,360.5,627.8z"/>
	<path d="M350.5,483.3c2.2,2.1,3.4,4.7,4.5,7.5c-2.1-2.1-3.6-4.6-4.7-7.3L350.5,483.3z"/>
	<path d="M364.2,415.3c1.3,1.3,1,2.9,1,5C363.2,418.5,364,416.8,364.2,415.3z"/>
	<path d="M779.8,425.1c1.3,1.3,1,2.9,1,5C778.8,428.4,779.7,426.7,779.8,425.1z"/>
	<path d="M307.6,238.3c-2.2-1.1-1.9-3-1.3-5C306.7,235,307.1,236.7,307.6,238.3L307.6,238.3z"/>
	<path d="M723.2,248.2c-2.2-1.1-1.9-3-1.3-5C722.3,244.9,722.7,246.6,723.2,248.2L723.2,248.2z"/>
	<path d="M344.6,521c1.8,0.2,3.6,0.4,5.5,1.6C347.7,523,346.2,521.8,344.6,521z"/>
	<path d="M703.1,242.2c3.2-0.1,2.1,2.3,2.7,4.2C703.1,245.7,704.4,243.2,703.1,242.2L703.1,242.2z"/>
	<path d="M309.7,457.3c-0.1-1.8-0.4-3.2,0.5-4.5C311.4,454.6,311.4,454.6,309.7,457.3z"/>
	<path d="M365.7,565.9c-1.2,1.6-2.7,2.6-5.4,3C362.1,567,364,566.6,365.7,565.9z"/>
	<path d="M364.3,409c-1-1.8-1.3-3-0.8-4.6C365.3,405.7,364.5,407.1,364.3,409z"/>
	<path d="M779.8,418.1c-0.9-1.1-1.1-2.3-0.8-4C780.8,415.5,780,416.9,779.8,418.1z"/>
	<path d="M287.5,232.3c2.4,0.6,2.4,0.6,2.3,4.1C287.5,235.8,288.8,233.3,287.5,232.3L287.5,232.3z"/>
	<path d="M746.3,287.4c1.6,0,3.2,0,4.8,0c0,0.1,0,0.2,0,0.2c-1.6,0-3.2,0-4.8,0C746.3,287.6,746.3,287.5,746.3,287.4z"/>
	<path d="M300,460.1c-0.4-1.8-0.5-3.1,0.9-4.2C301.3,457.5,301.2,458.7,300,460.1z"/>
	<path d="M330.8,277.5c1.6,0,3.2,0,4.8,0c0,0.1,0,0.2,0,0.2c-1.6,0-3.2,0-4.8,0C330.8,277.7,330.8,277.6,330.8,277.5z"/>
	<path d="M279.5,481.3l0.1,0c-0.1,0.9,0.5,1.9-0.2,3.2C278.6,483.2,278.5,482.2,279.5,481.3z"/>
	<path d="M727.6,215.9c-1.4,0.2-2.4,0.1-3.1-1.3C726.1,213.9,726.9,214.4,727.6,215.9z"/>
	<path d="M308.9,204.7c1.8-0.1,1.8-0.1,3.1,1.2C310.5,206.3,309.6,206.1,308.9,204.7z"/>
	<path d="M732.5,217.7c-1.9,0.4-2.7,0.1-3.2-1.4C730.7,215.8,731.5,216.4,732.5,217.7z"/>
	<path d="M316.6,207.6c-1.3,0.9-2,0.2-2.9-0.8C315.1,205.7,315.8,206.5,316.6,207.6z"/>
	<path d="M311.6,450.1c-1.6,1.5-3.3,1.7-4.9,0l0,0.1C308.4,448.2,310,448.5,311.6,450.1L311.6,450.1z"/>
	<path d="M335.5,263.2c0.2-1.6,1-2.2,2.4-2.7C337.6,262,336.9,262.7,335.5,263.2z"/>
	<path d="M401.7,403.7c1.6-0.8,2.3-0.6,3,0.3C403.8,404.7,403.1,404.3,401.7,403.7z"/>
	<path d="M753.4,270.3c-0.2,1.6-1,2.1-2.1,2.9C751.1,271.5,752.1,271,753.4,270.3z"/>
	<path d="M470.1,333.8c-1.2-0.1-1.2-0.9-1.6-1.8C469.9,332.1,470.1,332.7,470.1,333.8z"/>
	<path d="M198.3,425c0-0.5,0-1,0-1.5c0-0.3,0.2-0.4,0.3-0.1c0,0.5,0,1.1,0,1.6C198.5,425,198.4,425,198.3,425z"/>
	<path d="M614,434.9c-0.1-0.7-0.3-1.3,0.1-1.9C614.2,433.6,614.4,434.3,614,434.9z"/>
	<path d="M885.7,343.7c-1.2-0.4-1.5-0.9-1-1.9C885.8,342.1,885.7,342.8,885.7,343.7z"/>
	<path d="M723.2,248.3c0.7,0.7,1.4,1.5,1.3,2.9C722.8,250.5,722.8,249.5,723.2,248.3L723.2,248.3z"/>
	<path d="M307.5,238.4c0.7,0.7,1.4,1.5,1.3,2.9C307.2,240.6,307.1,239.6,307.5,238.4L307.5,238.4z"/>
	<path d="M293,239c-1.1-0.1-1.8-0.5-1.7-1.7C292.4,237.3,292.9,237.9,293,239z"/>
	<path d="M708.8,248.9c-1.4,0-1.9-0.5-2.1-1.7C707.9,247.1,708.4,247.7,708.8,248.9z"/>
	<path d="M200.5,408.3c0.5-0.4,1-0.4,1.6-0.1C201.6,408.7,201.1,408.4,200.5,408.3z"/>
	<path d="M618,417.9c-0.9,0.6-1.4,0.5-2,0.3C616.6,417.5,617.2,417.9,618,417.9z"/>
	<path d="M753.6,282.8c0.5,0.5,1,1,1.1,1.7c-1,0.1-1.2-0.7-1.5-1.3C753,282.8,753.2,282.6,753.6,282.8z"/>
	<path d="M347.6,573.6c0,0.9-0.9,0.9-1.4,1.7C346.2,573.9,346.9,573.7,347.6,573.6L347.6,573.6z"/>
	<path d="M350.3,483.5c-0.4-0.4-0.7-0.8-1.2-1.4c1.2-0.1,1.3,0.5,1.4,1.1L350.3,483.5z"/>
	<path d="M337.5,273.3c-0.6-0.3-1-0.7-1-1.4c1.1-0.3,1.3,0.4,1.5,1c0,0.2,0.1,0.4,0.1,0.6C337.9,273.4,337.7,273.4,337.5,273.3z"/>
	<path d="M338,272.9c0.5,0.5,1,1,1.1,2.2c-0.9-0.5-1.3-1.1-1.6-1.7C337.7,273.2,337.8,273,338,272.9z"/>
	<path d="M753.2,283.2c-0.6-0.3-1.2-0.6-0.9-1.5c1-0.3,1.1,0.4,1.3,1C753.5,282.9,753.3,283,753.2,283.2z"/>
	<path fill="#FFFFFF" d="M651.8,367c-2.5-6.4-3.1-13.1-4.2-19.8c-0.6-3.8-0.5-7.7-0.6-12c1.9,1.9,3,4,4.3,5.9c0.7,1,0.9,2.5,2.6,2.5
		l0.2,0.2l-0.2-0.2c-0.8-4.9-4.9-8-6.7-12.8c0.2-5.3,1.3-10.9,3.2-16.4c1.6-4.4,0.5-9-0.4-13.4c-1.2-5.9-1.2-11.6,0.4-17.4
		c1.3-5,3.8-9.3,7.9-12.6c2.6-2.1,5.1-4.4,7.1-7.3c1.3-1.9,3.4-2.8,5.6-3.4c1.8-0.4,3.7-0.4,5.3-1.6c-2.4-0.9-4.5,0.8-6.8,0.6
		c5.1-3.4,10.5-5.8,16.6-6.6c22.9,13.1,40.6,39,37.5,63.8c-2-2.9-5.6-2.4-7.4-5.6c-0.6-1.1-2.9-1.7-4.5-2.4
		c-2.4-1.1-4.9-1.9-7.1-3.6c-2-1.6-4.5-1.1-6.4,0.6c-0.8,4.3-1.1,8.5-0.4,12.8c0.9,5.8,0.3,11.7,0,17.6c-0.2,2.6-0.8,5-2.3,7.3
		c-1.5,2.4-2.4,5.1-2.2,8.1c-3,0.1-6,0.3-9.5,0.4c1.2,1.5,2.3,1.8,3.4,1.8c6.3,0,12.3,1.9,18.3,3.2c4.6,1,9.5,1.1,13.9,3
		c0.9,0.4,2.1,0,3.1-0.1c9.4-0.6,18.5-2.9,27.8-4.2c2.5-0.4,4.9-0.4,7.4-0.4c3.4,0,6.9-0.1,9.3-3.1c0.1-0.2,0.4-0.3,0.6-0.4
		c5.4-1.4,9.4-5.1,13.7-8.4c1.8-1.4,3.6-1.1,5.8-0.3c-1.2,1.4-2.7-0.8-3.7,1c5.5,4.8,11.1,9.7,18.2,12.3c-0.8,2.2-1.3,3.8-1.3,5.6
		c1.6-0.1,1.5-1.7,2.6-2.4c1.6,1.3,2.6,3.3,4.7,4.3c1.5,0.7,1.5,2.4,1,3.8c-0.3,1.1-1,2.1-1.5,3.2l0.1-0.1c-3-0.7-3.8-4.3-7.1-5.5
		c1.5,4.4,5.8,5.8,7.8,9.1c-0.3,2.2-1.1,3.9-2.7,5.1c-4.1,0.4-5.6-4-9.6-4.8c1.2,2.3,3,3.5,4.3,5c3.1,3.5,3.2,4.6-0.1,8.5
		c-2.8-1.5-6.3-1.5-8.9-3.7c0,3.8,3.2,3.6,5.8,4.7c-0.7,1.4,0.4,2.8-0.3,4.2c-1.5,1.1-2.9,0.9-4.4,0.4c-3.1-1.1-6.3-1.5-9.6-1.8
		c-3.5-0.3-7-1.7-9.7-3.9c-3.4-2.7-7-5.2-10.5-7.7c-2.9-2-6.3-3-10-2.6c-1.8-1.9-7.3-2.9-9.1-2.2c2.5,0.2,6.2-0.8,9.1,2.2
		c-4.3,2.6-9.2,3.8-13.9,5.5c-0.7,0.3-1.7,0.1-2,1.4c4.8-1.1,9.5,0.5,14.3,0.4c6.8-0.1,11.3,3.8,14.6,9.3c0.5,0.9,0.9,1.9,1.4,2.8
		c2.1,4.1,3.8,8.2,0.1,13.2c-2.4,1-6,0.8-9.4,1.7c-1.9,0.5-3.9,0.9-5.7,1.8c-4.2,2.2-8.6,2.2-13.2,1.5c-4.5-0.7-9.1-0.8-13.7-1
		c-6.7-0.2-13.4-0.3-20.1-0.6c-6.2-0.3-12.4,0.7-18.6,1.4c-6.7,0.7-13.4,0.9-20.1,1.2c-4.2,0.2-8.5,0.3-12.5,1.7
		c-1.3,0.4-2.5,0.5-3.8,0.2c-2.2-0.6-4.4-1-6.6-0.7c-2.3,0.2-4.1-0.5-5.6-2.2c-0.5-4.8,0.4-9.6,0.6-14.4c0-0.9,0.5-1.6,1.1-2.1
		c3.4-2.5,6.5-5.6,11.6-4.1c3.8,1.1,7.7-0.4,11.5-0.8c12.6-1.3,25.2-2.7,37.7-4.2c4.9-0.6,9.7-1.5,14.6-2c5.3-0.6,10.5-0.8,15.8-0.9
		c1.3,0,2.8,0.1,4.6-1.6c-5.8-0.6-11.1-0.6-16.4-0.7c5.1-1.9,10.1-3.7,15.9-5c-1.8-1.2-3.3-0.5-4.3-0.1c-5.1,2-10.8,2.4-15.4,5.6
		c-0.4,0.2-0.9,0.3-1.3,0.3c-11.9,1.1-23.8,2.8-35.5,5c-5.2,1-10.6,0.4-15.8,1.3c-0.9,0.1-1.8-0.3-2.4-0.4
		C653.4,383.8,652.7,375.4,651.8,367L651.8,367z"/>
	<path fill="#FFFFFF" d="M960.2,540.5c-2.6,3.3-5.7,6.2-7.6,10.2c-5.3-2.3-3.7-8.3-7.2-12.3c0.4,6.4,4.4,12,0.2,18.2
		c0.3-3.7,0.5-7-2.2-10.3c-8,11.1-15.9,21.6-27.3,30c0-6.2-3.3-10.3-5.1-14.9c-1.7-4.3-4.3-8.3-4.9-13.1c-0.4-2.6-1.9-5-3.2-7.4
		c-2-3.7-3.9-7.5-4.6-11.7c-0.4-2.3-2.7-3.1-3.7-5c-3.8-7.4-9-14.1-13.7-20.9c-2.5-3.6-5.2-7-7.5-10.6c-7.3-11.4-9.5-23.8-8.3-37.1
		c0.6-6.4,1.3-12.8,2.5-19.2c0.5-3,2-5.7,3.5-8.5c0.8-1.5,1.6-3,2.1-4.7c-3.1,2.7-5.6,5.8-7.1,9.6c-0.9,2.5-2.6,4.1-5.4,5.3
		c-0.1-3.6-1.1-7,1-10c-3.3-3.6-1.1-7.9-1.8-11.7c3.6-2,6.1-5,9.5-6.9c-3.4-0.6-6,1.5-9.5,2.6c0.1-6.6-0.3-12.9,0.5-19.2
		c0.4-3.3,0.9-6.5,1.6-9.7c1.1-5.2,2.6-6.2,7.8-5.6c3.1,0.4,6.1,0.3,9.1-0.1c3.8-0.5,7.5,0.6,11.1,1.7c1.6,0.5,3.1,1.1,4.7,1.4
		c5.9,1,9.5,4.6,12.6,9.5c2.6,4.1,3.7,8.2,3.3,13c-0.3,3.3,0.4,6.5,1.7,9.6c1.3,3.2,1.7,6.7,1.5,10c-0.6,8.4,0.9,16.5,2.4,24.7
		c2.4,12.9,5.4,25.7,7.3,38.7c0.8,5.5,0.7,11.2,2.1,16.6c2.1,8.4,4,16.9,7.3,25c2.1,5.2,4.9,10.1,6.1,15.7c0.3,1.2,0.9,2.4,2.7,2.8
		c-0.5-4.7-1.6-9.1-3.6-13.2c-1.6-3.3-3.2-6.6-4.3-10c-2.9-9-5.6-18.2-7.5-27.4c0.6-0.9,1.1,0.3,1.9-0.5c-1-4.7-2-9.6-3.1-14.4
		c-1.9-7.7-2.6-15.5-3.7-23.3c-0.4-2.7-1.6-5.1-2.1-7.8c-1.1-5.2-2.4-10.3-3-15.6c-0.4-3.3-0.9-6.6-0.1-10c0.7-2.9-0.8-5.8-0.5-8.7
		c2.4,0.3,2.9,2.2,3.7,4.1c0.9,0.4,2,0.8,3,1.2c-0.9-2.3-1.8-4.8-3.3-6.3c-4.9-4.5-6.4-9.8-6.3-16.3c0.1-5.4-2.6-10.1-6.5-14
		c-3.4-3.4-7.3-5.7-12.2-6.3c-2.3-0.3-4.5-1.3-6.6-2.2c-3-1.2-6.3-1.6-9.7-1.1c-3.8,0.5-7.7,1-10.9-1.5c-1.7-0.1-3.2,2-4.7-0.4
		c3.9-0.9,7.7-1.6,11.7-1.7c10.6-0.3,21.1,0.8,31.7,0.5c0.9,0,2,0,2.7,0.5c5.7,3.3,11.3,6.6,15.6,11.9c1.9,2.4,1.7,5.3,2.2,8
		c1.6,7.7,2.9,15.4,5.5,22.9c0,0.1,0.1,0.2,0.1,0.3c3.7,13.5,7.5,27.1,8.6,41.2c0.2,3.2,0,6.3,0,9.5c0,10.2,1.6,20.1,4.9,29.8
		c2.1,6.2,3.1,12.5,4.2,18.9c0.7,4.3,1.8,8.4,4,12.3c2,3.4,2.2,7.6,4.4,11C958.4,539,958.7,540.4,960.2,540.5L960.2,540.5z"/>
	<path fill="#FFFFFF" d="M729.5,448.2c3.5-3.7,6.8-7.5,9.4-12c1.4,0,2.8,0,4.5,0c-0.7,5.6-4.1,10.1-5.2,15.5c2.6-5,5.4-9.8,7.2-15.5
		c7.9-1,16-1,24.1-1c7.9,0,15.6-1.2,23.3-3.4c0.7-7-0.4-13.8-1.4-20.5c-0.9-0.7-1.7-1.3-2.4-1.8c-1.4-0.4-2.6,0.6-4.1,0.3
		c-0.2-5.1,2.4-9.6,3.2-14.7c3,0.3,6.2,2.4,9-0.1c1.4-1.2,1.9-2.9,1.3-5c3.4-0.1,4.8-2.2,5.6-5.2c6.8-1.8,13.7-2.8,20.7-3.6
		c7.9-0.9,15.9-1,23.7-3c4.1-1.1,8.1-1.2,12.3-0.9c-2.5,10.7-4.8,21.2-4,32.3c-4.6,0.4-8.8,1-12.7,2.9c4.1-0.1,8-1.6,12-1.4
		c3.6,24.3-0.9,47.8-5.8,71.6c-11.8,0.1-23.1,3.2-34.6,4.4c-0.2-0.9,0.3-1.1,0.6-1.4c13.9-12.9,26.2-27,33.4-44.8
		c1.6-3.9,2.4-8.1,3.2-12.2c0.3-1.4,0.9-3.3-0.9-4.4c-1.2,0-1.6,0.8-1.8,1.6c-4.2,13.7-11.5,25.6-19.7,37.2
		c-4.4,6.2-8.3,12.8-12.8,19c-2.8,3.9-6.1,5.8-11.1,5.9c-8.1,0-16.1,1.4-24.2,2.3c-4.8,0.5-9.5,1.2-14.4,0.5
		c-1.8-0.3-3.2,1.3-5.1,1.3c-7.7,0-15.2-0.6-22.4-3.7c-5.8-2.5-12.3-3.2-17.4-7.4c-0.7-0.6-1.5-1.1-2.8-2.2c4.6,0.8,8,2.7,11.6,4.2
		c-0.5-1.8-2.1-2.3-3.5-2.9c-4.2-1.9-8.1-4.2-12-6.7c-2-1.3-3.9-2.6-4.5-4.8c-1-0.9-1.7,0.4-2.7,0.1c-6.5-9.1-8.4-19.9-11.1-30.7
		c12.9-0.5,25.5-0.9,38.7-1.4c-2.1,4.5-5.8,7.6-7.7,11.8C729.2,448.3,729.2,448.3,729.5,448.2z"/>
	<path fill="#FFFFFF" d="M712.5,262.5c9.9,7.3,17.9,16.6,26.3,25.4c0.3,0.3,0.6,0.7,0.9,1.1c5.1,6,10.6,11.7,18.9,13.2
		c1.7,0.3,3.1,1.1,3.3,3.8c0.8-1.6,1-2.8,2.6-2.4c2,0.5,3.1-0.8,3.6-2.6c0.8-2.8,1.4-5.7,0.4-8.6c-1.2-3.8-1.6-7.8-3.2-11.6
		c1.4,0.1,1.5,1.1,2,1.8c7.7,11.1,12.8,23.4,16.6,36.3c0.8,2.7,0,5.1-1.1,7.1c-2.1,3.7-1.8,7.4-1.4,11.3c0.1,0.7,0.2,1.4,0.2,2
		c-5.8,5-12,9.2-19.1,11.8c-0.8,0.3-1.6,0.6-2.4,0.6c-7.8-0.5-15.1,1.8-22.6,3.3c-4.5,0.9-9,1.4-13.6,2.1c-0.3,0.1-0.7,0.1-1.1,0.1
		c-7.2-1-14-3.4-21.4-3.8c3.2-2.4,7.3-1.7,10.3-4.3c2.7-2.4,4-6.5,8.2-7.4c0.2-0.9-0.8-1.8-0.2-3.1c3-6.1,5-12.6,6.1-19.8
		c1.9,2.2,3.9,2.7,6.5,0.7c-2.3-0.7-4.2-1.4-6.1-2c1.6-29.9-13.4-50.3-37-66c1-0.7,1.9-1.4,3.1-2.3
		C699.4,253.1,706.3,257.1,712.5,262.5c-0.5,0.7-1.2,0.5-1.9,0.4C711.2,263,711.9,263.2,712.5,262.5z"/>
	<path fill="#FFFFFF" d="M806.8,370.6c2.4-0.3,2.4-0.3,4.2-3c1.4-0.7,3-0.4,4.8-0.8c-1.5-1.8-3.4-1.2-4.8-1.6
		c-2.8-5.1-9.2-7-10.9-13.1c0.9-2.2,2-4.6,2.5-7.4c8.5,1.2,16.7,4.7,25.1,2.9c8.1-1.8,16.3-3.1,23.5-5.9c1.9,0.5,1.1,2.2,2.4,2.5
		c0.2-0.1,0.5-0.3,0.5-0.3c-0.5-4.4,1.6-7,5.5-8.6c1.6-0.6,3-1.6,3.8-3.5c1.3-3.2,2-3.5,5.3-2.3c0.7,0.2,1.4,0.3,1.9,0.9
		c0.1,1-1.4,0.3-1.2,1.7c0,0,0.4,0,0.7-0.1c2.8-0.5,4.1,0.7,4.7,3.4c0.5,2.1,1.5,4.2,2.2,6.2c-0.5,1.3-1.4,2.2-2.7,1.7
		c-1.7-0.6-3.5-1.1-4.5-3c-1-2.2-2.3-4.3-3.5-6.3c-1,0.1-1.6,0.3-2,1c0.1,2.7,3.5,3.2,3.7,6.1c-0.5,0.7-1.4,1.7-1,3.2
		c-2.7,1.4-6,2.4-4.9,6.5l0.1-0.1c-2.2,1.9-2.3,3.9-0.6,6.2c0.6,0.8,1,1.7,0.7,2.9c-0.9,3.5-1.6,7.1-2.5,10.6
		c-1.8,1.1-4,0.6-5.8,1.7c-3.8-4.1-8.7-3.7-13.5-4.3c5.1-1.1,9.8-3,14.3-5.5c1.7,0.2,2.8,2.7,5.1,1.4c-1-1.7-3.3-1.9-3.8-4.2
		c-8.9,4.6-18.6,5.8-27.4,9.8c-2.7,1.3-6.2,1.3-9.3,0.7c-2.6-0.5-5.1,0.3-7.7,0.3c-0.6,0-1.1,0.4-1.1,1.1c0.1,0.6,0.6,0.8,1,0.8
		c6.4-0.4,12.9-0.3,19.4-0.3c1.5,0,2.9,0,2.7-2c6.5-0.3,12.6-0.7,18.4,3c-4.8,2.7-10.1,2.1-14.9,3.4c-5.1,1.3-9.9-0.7-14.9-1.6
		c0.7,2.1,2.8,0.8,3.6,2.4c-6.3,1-12.5,1.9-19.1,3.6c1.4-1.6,2.6-3,2.8-5.1C809.6,373.3,808.5,371.9,806.8,370.6L806.8,370.6z"/>
	<path fill="#FFFFFF" d="M954.3,557.6c2.2,0.4,3.4-1.1,4.5-2.6c3.9-5.4,7.1-11.1,7.9-18.2c1.2,1.4,1,2.9,1.6,4.1
		c0.6,1.2,1,2.7,2.8,2.4c-2.2,4.4-4.3,8.7-6.4,13c1.2,0.8,1.8-0.6,2.8-0.5c0.5,1.2-1.1,1.9-0.7,3.4c5.1-1.2,8.9-4.4,12.9-7.6
		c-1.6,2.3-3.2,4.5-4,7.5c4.2-0.6,6.8-3.9,10.1-5.6c-0.9,1.7-3.1,2.7-2.2,5.3c2.1-1.4,4.6-2.1,6-4.7c1.1,0.3,2.2,0.5,3.5,0.9
		c-0.8,2.1-2.6,3.6-2.5,6.3c3-1.4,4.7-4.1,7.2-5.8c0.1,1.6-1.8,1.8-1.9,3.5c1.5-0.5,3.1-0.8,3.8,1.1c2.4-0.1,4.5-1.2,5.9-2.5
		c2.7-2.4,5.8-2.8,9-3.1c3.4-0.3,6.6-1.2,9.9-2.1c2.3-0.6,4.1-0.4,5.6,1.6c1.4,2,4.4,2.2,5.4,5c-2.1,3.4-4.2,6.9-6.6,11
		c-1.2-4.4-2.4-8.3-3.4-12.3c-0.8-3-1.8-3.6-4.8-2.9c-2.5,0.6-4.8,1.9-7,3.2c-5.7,3.2-12.1,4.4-18.2,6.2c-4.7,1.4-10,0.7-15,0.1
		c-1.8-0.2-3.5-0.5-5.2-0.1c-5.2,1.3-10.3,0-15.3-1.1C956.9,562.3,955.2,560.3,954.3,557.6L954.3,557.6z"/>
	<path fill="#FFFFFF" d="M719.6,317.5c1,0.3,2,0.7,3.4,1.2c-0.9,4.7-1.7,9.4-4.2,13.7c-0.1-0.2-0.2-0.2-0.2-0.2
		c-0.1-0.1,0,0,0.3,0.2c-0.8,3.1-1.3,6.3-4.8,8.2c-0.8,4.9-4.4,8.5-18,9.9c-0.2-1.9,0.2-3.6,1-5.3c1.4-3,3.1-5.8,3.8-9.1
		c0.7-3.1,0.8-6.3,1.1-9.6c2.1,0.6,3.9,2.3,6.5,1.4c-1.6-2.8-4.9-3.4-6.8-5.9c-0.4-2.3-0.9-4.8-1.4-7.6c5.1,1.1,9.8,3,15,2.7
		c1.5,1,2.7,2.6,4.7,2.4C720.6,318.6,719.5,318.1,719.6,317.5L719.6,317.5z"/>
	<path fill="#FFFFFF" d="M785.3,315.8c-5.1-19.6-17-35.4-27.6-52c5.9,3.3,13.1,4.6,16.5,11.5c1.2,2.3,2.5,4.5,3.7,6.8
		c2.6,4.6,4.6,9.5,6.8,14.3C787.5,302.5,786.8,309.2,785.3,315.8z"/>
	<path fill="#FFFFFF" d="M942.5,551.3c1.4,2.5,0.9,5.1,2.7,6.5c-1.4,4.4-3,8.3-7.3,10.3c0.4,1.6,0.5,3-0.6,4.3c-1.6,1.9-2.9,4-4.2,6
		c-2,3-5.3,4.2-8.7,3.3c-2.4-0.7-4.5-1.9-6.3-3.5C928.1,571.1,935.2,561.4,942.5,551.3z"/>
	<path fill="#FFFFFF" d="M804.7,333c-3,6.2-4.3,12.3-6.6,18c-4.4,0-6.2-3.9-9.4-6c0.9-5.4,3.9-10,5.3-15.4
		C797.5,330.7,800.3,333.6,804.7,333z"/>
	<path fill="#FFFFFF" d="M782.8,406.9c-2.1,1.1-4.2,0.5-6.3,1.7c1.8,1.2,3.9,0.1,6,1.2c-4.2,2.7-8.3,0.5-12,1.1
		c-1.3-2.4,1.2-10,5.8-18.2c3.1,1.4,6.5,1.3,10.1,1.9C785.3,398.9,783.5,402.8,782.8,406.9z"/>
	<path fill="#FFFFFF" d="M745.4,382.6c4.6-1.8,8.2-4.3,12.6-2.2c0.6,0.3,1.3,0.4,1.9,0.9c4.2,4.3,9.7,6.9,14.6,10.7
		c-1.5,2.8-2.9,5.5-4.6,8.9C765.6,389.7,758.9,382.1,745.4,382.6z"/>
	<path fill="#FFFFFF" d="M862,350.7c3.4,1.2,6.8,2.3,10.1,3.8c3,1.3,6.2,1.2,9.3,1.6c1.9,0.2,3.2-1.2,4.8-2
		c-0.4,7.1-4.3,8.4-8.4,7.5c-3.9-0.8-7.7-2.2-11.6-3c-2.1-0.4-3.6-1.6-4.6-3.2C861.3,353.6,862.6,352.2,862,350.7L862,350.7z"/>
	<path fill="#FFFFFF" d="M870.5,346.5c5.9,1.7,11.8,2.4,17.9,1.7c-0.2,2.5-4.1,6-7,6.2c-6.4,0.4-11.9-2.6-17.7-4.6
		c0.1-2.9,1.5-3.6,3.7-3C868.6,347.2,869.7,347.4,870.5,346.5L870.5,346.5z"/>
	<path fill="#FFFFFF" d="M787.3,320.2c1.1,6.6,3.7,13.1,0.7,19.6c-1.6,0.2-2.8-0.4-4.3-0.8c0.8-3.2,0-6.4,0.3-9.6
		C784.3,326.1,786.4,323.4,787.3,320.2z"/>
	<path fill="#FFFFFF" d="M883.1,363.3c-0.9,1.8-1.5,3.4-3.4,4.2c-4.3-1.4-9.2-1.8-13.6-3.9c-0.3-1.2-0.6-2.3-0.9-3.6
		C871.3,360.8,876.7,364,883.1,363.3z"/>
	<path fill="#FFFFFF" d="M863.4,363.2c2.5,3,6,2.9,9.5,4.4c-3.8,1.3-7,1.6-10.8,2.4C862.6,367.7,862.9,365.7,863.4,363.2z"/>
	<path fill="#FFFFFF" d="M954.4,557.5c-0.5-1.3-0.9-2.6-1.5-4.2c2.8-2,5.2-4.4,7.7-6.8C959.1,550.6,956.2,553.8,954.4,557.5
		L954.4,557.5z"/>
	<path fill="#FFFFFF" d="M746.2,168.5c4.4-3.1,10-4.5,12.7-10.1C758.6,163.1,751,168.9,746.2,168.5L746.2,168.5z"/>
	<path fill="#FFFFFF" d="M980.6,571.6c0.1-1,1.2-2.2-0.2-3.1c-1.2-0.8-2.2,0.1-3.1,0.7c-0.8,0.6-1.6,1.3-2.4,2
		c-0.1-1.5,1.4-2.5,0.8-3.9c1.5-0.8,2.8-0.2,4-0.1c1.2,0.1,2.3,0.3,3.8,0.5C982.8,569.3,981.6,570.4,980.6,571.6z"/>
	<path fill="#FFFFFF" d="M976.3,548.2c-1.6,1.2-2.9,2.3-5,3.9c0.9-2.6,1.6-4.4,2.3-6.3C974.7,546.4,975.3,547.2,976.3,548.2z"/>
	<path fill="#FFFFFF" d="M803.4,331.3c-2.9-0.4-5.6-1.3-7.7-3.5C798.6,328.3,801.4,329.1,803.4,331.3z"/>
	<path fill="#FFFFFF" d="M695.8,175.3c-0.3-1.2-0.1-2.1,0.5-3.2c1.2,0.9,2.3,1.7,3.5,2.7C698.2,176.2,697,174.3,695.8,175.3z"/>
	<path fill="#FFFFFF" d="M691.6,168.5c-1.9,1.1-3.6,1.2-4.9-1.4C688.6,166.9,690.1,167.7,691.6,168.5z"/>
	<path fill="#FFFFFF" d="M739.9,167.9c-2,0.7-3.7,2.3-6,1.9C735.8,168.7,737.6,167.3,739.9,167.9z"/>
	<path fill="#FFFFFF" d="M727.7,180.6c-1.3,1.6-2.6,3.1-4,4.9C723.9,182.7,723.9,182.7,727.7,180.6z"/>
	<path fill="#FFFFFF" d="M716.3,171c2.4-0.9,3.5,1,5.5,0.5C720.2,173.1,720.2,173.1,716.3,171z"/>
	<path fill="#FFFFFF" d="M743,159.6c-0.9-0.4-0.8-1.2-0.9-1.9c0.7-0.5,1.4-1.1,2.4-1.1C745.3,158.3,744.5,159.2,743,159.6z"/>
	<path fill="#FFFFFF" d="M753.8,262c1.9,1,2.4,3.1,3.4,4.8C755.7,265.5,754.4,264,753.8,262z"/>
	<path fill="#FFFFFF" d="M705.3,176.6c-1.1-1.8,0.2-2.5,0.4-3.5c1.1,0.3,1.3,1.2,2,1.6C707.2,176,706.4,176.4,705.3,176.6z"/>
	<path fill="#FFFFFF" d="M727.6,177.1c0.8-1.5,1.6-2.9,3.2-4.3C730.3,175,729,176.2,727.6,177.1z"/>
	<path fill="#FFFFFF" d="M741,156.5c-1-0.1-1.9-0.6-3.5-0.1c1.1-1.4,2-1.6,3-1.7C741.2,155.2,741.5,155.8,741,156.5z"/>
	<path fill="#FFFFFF" d="M728,172.5c-0.8-0.9-1.5-1.8-2.3-2.6C727,170.2,728.2,170.8,728,172.5z"/>
	<path fill="#FFFFFF" d="M694.5,192.2c1.3-0.1,2.2-0.3,3.3,0.6C696.2,194.1,695.5,193.1,694.5,192.2z"/>
	<path fill="#FFFFFF" d="M702,223.4c-1.9,0.1-1.9-1.4-2.6-2.1C700.5,221.5,701.5,221.7,702,223.4z"/>
	<path fill="#FFFFFF" d="M958.2,565.6c0.2,1.5-0.9,1.9-1.9,2.3C956.8,567,957,565.9,958.2,565.6z"/>
	<path fill="#FFFFFF" d="M700.2,201.8c1.1-1.1,1.7-0.6,2.5,0.1C701.7,202.9,701,202.6,700.2,201.8z"/>
	<path fill="#FFFFFF" d="M725.8,155.6c0.7-0.5,1.3-0.6,1.8-0.4C727,156.5,727,156.5,725.8,155.6z"/>
	<path fill="#FFFFFF" d="M985.5,568.4c0.8-0.7,1.5-0.8,2.7-0.1C987.1,568.5,986.5,569.7,985.5,568.4z"/>
	<path fill="#FFFFFF" d="M1001.9,557.2c0-0.8-0.1-1.3,0.3-1.6c0.4-0.3,0.8-0.3,1.3,0C1003.4,556.5,1002.8,556.9,1001.9,557.2z"/>
	<path fill="#FFFFFF" d="M750.4,151.7c0.6,1.5-0.2,1.7-0.9,1.9C749,152.8,749.4,152.3,750.4,151.7z"/>
	<path fill="#FFFFFF" d="M721.4,190c-0.1,0.9-0.4,1.4-1.2,1.8C720,190.8,720.2,190.3,721.4,190z"/>
	<path fill="#FFFFFF" d="M969.3,569.4c-0.1-1,0.2-1.6,1.6-1.5C970.5,568.8,970.2,569.4,969.3,569.4L969.3,569.4z"/>
	<path fill="#FFFFFF" d="M710.8,190.6c0,0.8-0.2,1.2-0.7,1.2c-0.4,0-0.6-0.4-0.5-0.7C709.7,190.5,710.2,190.5,710.8,190.6z"/>
	<path fill="#FFFFFF" d="M714.9,186.9c0.4,1-0.1,1.3-0.7,1.6C713.8,187.8,713.8,187.2,714.9,186.9z"/>
	<path fill="#FFFFFF" d="M969.3,569.4c0.1,0.7-0.2,1.2-1,1.4C968.4,570.1,968.6,569.6,969.3,569.4L969.3,569.4z"/>
	<path fill="#FFFFFF" d="M694.1,198.3c0.9-0.2,1,0.1,1.2,0.6C694.5,199.2,694.5,198.6,694.1,198.3z"/>
	<path fill="#FFFFFF" d="M719.7,317.4c-0.7,0-1.4-0.3-1.9-1.1C718.9,316,719.1,317,719.7,317.4L719.7,317.4z"/>
	<path fill="#FFFFFF" d="M735.1,157.8c-0.2-0.8,0-1.1,0.7-1C736.2,157.6,735.5,157.6,735.1,157.8z"/>
	<path fill="#FFFFFF" d="M863.1,440c-0.4-0.8,0.3-1.1,0.6-1.5C864.4,439.4,863.9,439.8,863.1,440z"/>
	<path fill="#FFFFFF" d="M736.8,172c-0.3,0.1-0.5,0.4-0.8,0.4c-0.2,0-0.4-0.3-0.2-0.4c0.2-0.2,0.5-0.2,0.8-0.4
		C736.7,171.8,736.8,171.9,736.8,172z"/>
	<path fill="#FFFFFF" d="M966.1,532.3c-0.2,0.5-0.4,0.8-1,0.5C965.1,532,965.5,531.9,966.1,532.3z"/>
	<path fill="#FFFFFF" d="M238.3,333.8c-0.8-4.9-4.9-8-6.7-12.8c0.2-5.2,1.3-10.8,3.2-16.3c1.5-4.4,0.5-9-0.4-13.4
		c-1.2-5.9-1.2-11.6,0.4-17.4c1.3-5,3.8-9.3,7.9-12.6c2.6-2.1,5.1-4.4,7.1-7.3c1.3-1.9,3.4-2.8,5.6-3.4c1.8-0.5,3.7-0.3,5.9-1.8
		c-3-0.8-5.1,1-7.5,1c3.6-3.1,9.7-5.6,16.7-6.8c22.6,12.9,40.5,38.7,37.5,63.3c-2-1.3-3.9-2.6-6.1-3c-1.4-3.5-4.8-3.8-7.5-5.2
		c-1.5-0.8-3.2-1.2-4.6-2.4c-2.3-2-4.4-1.8-7.3,0.2c-0.7,4.1-1.2,8.1-0.5,12.3c1,6,0.4,12.2,0,18.3c-0.2,2.4-0.7,4.6-2.1,6.6
		c-1.6,2.5-2.6,5.2-2.4,8.7c-3,0-6,0-9.6,0c1.2,1.6,2.3,1.9,3.4,1.9c6.3,0.1,12.3,1.9,18.3,3.2c4.6,1,9.5,1.1,13.9,3
		c0.9,0.4,2.1,0,3.1-0.1c9.4-0.6,18.5-2.9,27.8-4.2c2.5-0.4,4.9-0.4,7.4-0.4c3.4,0,6.9,0,9.3-3.1c0.1-0.2,0.4-0.3,0.6-0.4
		c5.4-1.4,9.4-5.2,13.7-8.4c2-1.4,2.3-1.4,5.6-0.2c-1,1.4-2.8-1.3-3.5,1c5.7,4.5,11,9.7,18.2,12c-0.7,2.3-1.3,3.9-1.3,5.7
		c1.6-0.1,1.5-1.7,2.6-2.4c1.6,1.3,2.6,3.3,4.7,4.3c1.5,0.7,1.5,2.3,1.1,3.8c-0.3,1.1-1,2.1-1.5,3.2l0.1-0.1c-3-0.8-3.9-4.1-7.2-5.8
		c1.6,4.7,5.9,6.1,7.9,9.4c-0.3,2.2-1.1,3.9-2.7,5.1c-4.1,0.5-5.6-4.1-9.6-4.8c1.2,2.3,3,3.5,4.3,5c3.1,3.5,3.1,4.6-0.1,8.5
		c-2.9-1.3-6.2-1.7-9.3-4.2c0.2,4.4,3.7,4,6.1,5.3c-0.7,1.3,0.5,2.7-0.3,4.2c-1.2,0.8-2.4,1-3.7,0.5c-3.4-1.2-7-1.6-10.7-2
		c-3.4-0.4-6.7-1.7-9.3-3.8c-3.4-2.8-6.9-5.4-10.5-7.6c-3.3-2.1-7-3.7-11.5-1.6c-4.2,1.9-8.6,3.8-13.2,4.7c-0.5,0.1-0.8,0.4-1,1.2
		c4.8-1.1,9.5,0.6,14.2,0.4c5.8-0.2,10,2.8,13.3,7.2c2.4,3.1,3.7,6.8,5,10.4c0.9,2.6-1.2,4.7-1.1,7.2c-3.4,1.5-7.1,1.3-10.4,2.2
		c-1.9,0.5-3.9,0.9-5.7,1.8c-4.2,2.2-8.6,2.3-13.2,1.5c-4.5-0.7-9.1-0.8-13.7-1c-6.7-0.2-13.4-0.3-20.1-0.6
		c-6.2-0.3-12.4,0.7-18.6,1.4c-6.4,0.7-12.9,0.9-19.3,1.1c-4.6,0.2-9.2,0.3-13.5,1.9c-1.3,0.5-2.5,0.2-3.8,0
		c-2.1-0.4-4.2-0.8-6.3-0.7c-2.3,0.1-4.1-0.5-5.7-2.3c-0.5-4.7,0.4-9.5,0.6-14.3c0-0.9,0.5-1.7,1.1-2.1c3.4-2.5,6.5-5.6,11.6-4.1
		c3.8,1.1,7.7-0.4,11.5-0.8c12.6-1.3,25.2-2.7,37.7-4.2c4.9-0.6,9.7-1.5,14.6-2c5.3-0.6,10.5-0.8,15.8-0.9c1.3,0,2.9,0.3,4.4-1.7
		c-5.7-0.4-10.9-0.6-16.2-0.6c5.1-1.9,10.1-3.7,15.9-5c-1.8-1.2-3.3-0.5-4.3-0.1c-5.1,2-10.8,2.4-15.4,5.6c-0.3,0.2-0.9,0.3-1.3,0.3
		c-11.9,1.1-23.8,2.8-35.5,5c-5.2,1-10.6,0.4-15.8,1.3c-0.9,0.1-1.8-0.3-2.4-0.4c-6.1-7.1-6.8-15.6-7.7-24l0.1,0.1
		c-2.5-6.4-3.1-13.1-4.2-19.8c-0.6-3.8-0.5-7.7-0.6-12c1.9,1.9,3,4,4.3,5.9C236.4,332.2,236.7,333.8,238.3,333.8l0.2,0.1
		L238.3,333.8z"/>
	<path fill="#FFFFFF" d="M321.7,274c25.3,20,25.9,19.4,27.2,19.7c1.8,0.4,2.9-0.7,3.5-2.3c0.9-2.8,1.5-5.7,0.6-8.6
		c-1.2-3.9-1.7-8-3.5-12.3c1.4,0.6,1.7,1.5,2.1,2.2c7.7,11.1,12.8,23.5,16.6,36.4c0.8,2.7,0,5.1-1.2,7.1c-2.1,3.6-1.8,7.2-1.4,10.9
		c0.1,0.8,0.2,1.6,0.3,2.4c-5.7,4.9-11.8,9-18.8,11.6c-1,0.4-2,0.8-3,0.7c-6.2-0.4-12.2,0.8-18.1,2.4c-5.5,1.5-11.1,2-16.6,2.9
		c-2,0.3-4,0.4-5.9-0.3c-4.8-1.5-9.8-2.5-14.9-2.7c-0.9,0-1.7-0.5-3.1-0.8c3.6-2.2,7.8-1.5,10.8-4.1c2.7-2.4,4-6.4,8.3-7.4
		c0-1-0.8-1.9-0.2-3.1c2.9-6,4.9-12.4,6.1-19.4c2,1.4,4,2.6,6.5,0.4c-2.2-0.7-4.1-1.4-6-2c1.6-29.9-13.4-50.3-37-66
		c1-0.7,1.9-1.4,3-2.3c6.9,3.6,13.4,7.9,19.6,12.7c10.4,8.1,19.4,17.7,28.1,27.6c5.1,5.8,10.5,11,18.5,12.6
		C344.7,292.6,346,293.4,321.7,274c-25.4-20.7-26-20.8-26.7-21C295.6,253.1,296.3,253.3,321.7,274z"/>
	<path fill="#FFFFFF" d="M446.5,340.8c-2.2,1.9-2.3,3.9-0.6,6.2c0.6,0.8,1,1.7,0.7,2.9c-1.8,6.8-2.7,13.8-5.1,20.8
		c-1.5-3.9-2.2-8-5.5-10.4c-3.3-2.4-7.4-1.7-11.2-2.4c5.1-1.1,9.8-2.9,14.3-5.4c1.7,0.2,2.8,2.7,5.1,1.4c-1-1.7-3.1-2.1-4.1-4.1
		c-8.7,4.5-18.4,5.6-27.1,9.7c-2.8,1.3-6.4,1.2-9.7,0.7c-2.6-0.4-5.1,0.3-7.7,0.4c-0.5,0-0.8,0.4-1,1.4c7.4,0,14.8,0,22.5,0
		c0.7-0.1,0.2-1.4,1.2-1.9c5.3-0.3,10.8-0.5,16,1.9c2,0.9,3.1,2.2,3.8,4.2c0.9,2.3,1.2,4.8,1.8,7.2c0.4,1.5-0.3,2.5-1.2,3.8
		c-2.6,3.4-6.3,4.6-10.3,5.3c-1.4,0.2-3.1,0.3-4,1.1c-4.2,3.5-9,2.5-13.7,2.5c-7.9,0-15.7,0.1-23.6,0.2c-5.1,0.1-9.9,1.8-14.9,1.7
		c-0.2-1.1-0.1-1.9,0.3-2.8c2.4-0.2,4.5,2,7.1,0.9c2.7-1.2,3.6-3.1,3.2-5.8c4.6-1.2,5.8-3.4,5.1-8.6c6.2-2.1,7.5-6.4,3.2-10.9
		l-0.1,0.1c2.5,0.5,3.2-1.4,3.9-2.8c1.6-0.9,3.2-0.4,4.9-1.1c-1.4-1.6-3.3-1-4.7-1.5c-2.8-5.1-9.2-7-10.9-13
		c0.9-2.4,1.8-4.8,2.8-7.5c8.3,1.2,16.4,4.7,24.9,2.9c8.1-1.8,16.3-3.2,23.7-5.9c1.7,0.5,1,2.2,2.2,2.5c0.2-0.1,0.5-0.3,0.5-0.4
		c-0.6-4.4,1.6-7,5.6-8.6c1.6-0.7,3-1.6,3.8-3.5c1.3-3.2,2-3.5,5.3-2.3c0.7,0.2,1.4,0.3,1.9,0.9c0,0.9-1.4,0.4-1.3,1.3
		c0.1,0.4,0.5,0.4,0.8,0.4c2.8-0.5,4.1,0.7,4.7,3.4c0.5,2.1,1.5,4.2,2.2,6.2c-0.5,1.3-1.3,2.2-2.7,1.8c-1.8-0.5-3.5-1.1-4.5-3
		c-1-2.2-2.3-4.3-3.5-6.3c-1,0-1.6,0.3-2.1,1c0.2,2.6,3.4,3.2,3.8,5.9c-0.6,0.9-1.5,1.8-1.1,3.3
		C448.6,335.7,445.3,336.7,446.5,340.8L446.5,340.8z"/>
	<path fill="#FFFFFF" d="M303.2,322.4c-0.8,3.1-1.3,6.4-4.8,8.2c-0.8,5-4.5,8.5-18,9.9c-0.3-1.9,0.2-3.7,1-5.3
		c1.4-3,3.1-5.8,3.8-9.1c0.7-3.1,0.8-6.3,1.1-9.6c2.1,0.6,3.9,2.4,6.5,1.4c-1.6-2.8-4.9-3.4-6.8-5.8c-0.4-2.3-0.9-4.8-1.4-7.7
		c5.1,1.1,9.9,3,15,2.7c1.5,1,2.7,2.6,4.7,2.4c0.7-0.9-0.4-1.4-0.2-2.1l-0.1,0.1c1,0.3,2,0.7,3.4,1.2
		C306.5,313.5,305.7,318.2,303.2,322.4c-0.2-0.1-0.3-0.2-0.3-0.2C302.9,322.2,303,322.2,303.2,322.4z"/>
	<path fill="#FFFFFF" d="M369.6,306c-5.1-19.6-17-35.5-27.7-52.1c6,3.3,13.1,4.7,16.5,11.5c1.1,2.3,2.5,4.5,3.7,6.8
		c2.6,4.6,4.6,9.5,6.8,14.3C371.9,292.7,371.2,299.4,369.6,306z"/>
	<path fill="#FFFFFF" d="M449.8,380.3c-3.5-3.8-6.4,0.6-10,0.4c3.3-8.9,6.1-17.6,7.9-26.9c2.7,2.1,5.7,2.7,8.9,3.5
		C454.8,365,452.1,372.3,449.8,380.3z"/>
	<path fill="#FFFFFF" d="M378.3,319.7c3.7,1.1,6.4,4.1,10.9,3.3c-3.1,6.2-4.3,12.4-6.7,18.2c-4.4-0.3-6.3-4-9.3-6.1
		C374,329.6,377.1,325,378.3,319.7z"/>
	<path fill="#FFFFFF" d="M367.1,399.9c-4.3,2.6-8.4,0.5-12,1.1c-1.4-0.9-1.5-2-0.9-3.2c2.4-4.8,3.4-10.2,6.6-15
		c3,1.4,6.4,1.4,10,1.9c-1,4.3-2.9,8.2-3.5,12.3c-2,1.1-4.3,0.5-6.4,1.8C362.8,399.9,364.8,398.9,367.1,399.9z"/>
	<path fill="#FFFFFF" d="M358.9,382.2c-1.5,2.9-3,5.6-4.7,8.8c-4.3-11.1-10.9-18.8-23.5-18.2c5.2-3.7,11-4.2,15.7,0.6
		C349.9,376.9,354.8,378.9,358.9,382.2z"/>
	<path fill="#FFFFFF" d="M446.4,340.8c3.4,1.2,6.8,2.3,10.1,3.8c3,1.3,6.2,1.2,9.3,1.6c1.9,0.2,3.2-1.2,4.8-2
		c-0.1,5.8-3.1,8.3-8.4,7.4c-4.2-0.7-8.1-2.2-12.2-3.2c-1.9-0.4-3-1.7-3.9-2.9C445.7,343.7,447,342.3,446.4,340.8L446.4,340.8z"/>
	<path fill="#FFFFFF" d="M454.9,336.6c6.7,1.9,13.1,2.5,17.9,1.6c-0.2,2.6-4.1,6.1-7,6.3c-4.2,0.3-13.5-2.3-17.7-4.9
		c0.1-2.5,1.5-3.2,3.7-2.6C453,337.3,454,337.5,454.9,336.6L454.9,336.6z"/>
	<path fill="#FFFFFF" d="M446.5,385.1c2.2,0.7,2.2,0.7,7.3-1c1,2.7,1.8,9.3,1.4,13.1c-1,1-2.5,1.2-3.8,1.6c-1.3,0.4-2.7,0.7-4.2,1.1
		C446.8,394.9,445.8,390,446.5,385.1L446.5,385.1z"/>
	<path fill="#FFFFFF" d="M368.3,329.3c0-6.8-0.2-13.2,3.7-19.4c0.9,6.9,3.3,13.3,0.5,20C370.9,330.3,369.6,329.5,368.3,329.3z"/>
	<path fill="#FFFFFF" d="M450.5,353.9c-0.5-1.3-1-2.3-0.8-3.7c5.9,0.7,11.3,3.9,17.6,3.2c-0.8,1.7-1.4,3.3-3.3,4.2
		C459.6,356.2,454.8,355.9,450.5,353.9z"/>
	<path fill="#FFFFFF" d="M330.6,158.6c4.4-3.1,10-4.5,12.7-10.1C343,153.2,335.4,159,330.6,158.6L330.6,158.6z"/>
	<path fill="#FFFFFF" d="M380.2,317.9c2.8,0.6,5.6,1.2,8.1,3.8C385,321.1,382.2,320.3,380.2,317.9z"/>
	<path fill="#FFFFFF" d="M318.3,159.9c1.9-1.1,3.6-2.5,6-2C322.5,158.9,320.7,160.2,318.3,159.9z"/>
	<path fill="#FFFFFF" d="M284.1,165c-1.6,1.3-2.8-0.5-4,0.4c-0.2-1.3-0.1-2.2,0.6-3.2C281.8,163.2,282.9,164,284.1,165z"/>
	<path fill="#FFFFFF" d="M276.4,158.4c-3.1,1.4-3.4,1.4-5.1-1.3C273.1,157.1,274.6,157.8,276.4,158.4z"/>
	<path fill="#FFFFFF" d="M312,170.8c-1.3,1.6-2.6,3.1-4.3,5.2c0.2-3.4,2.3-4.3,3.8-5.7C311.6,170.4,311.8,170.6,312,170.8z"/>
	<path fill="#FFFFFF" d="M327.3,149.7c-0.8-0.4-0.6-1.2-0.8-1.9c0.7-0.4,1.3-0.8,2-1.2C329.2,148.5,329.2,148.5,327.3,149.7z"/>
	<path fill="#FFFFFF" d="M300.7,161c2.2-0.7,3.4,1.1,5.2,0.6C304.6,163.4,304.6,163.4,300.7,161z"/>
	<path fill="#FFFFFF" d="M292.1,164.9c-0.6,1-1.1,1.8-2.3,1.7c-1.6-1.3,0-2.2,0.1-3.3C291,163.4,291.3,164.3,292.1,164.9z"/>
	<path fill="#FFFFFF" d="M341.7,257.5c-1.7-1.8-2.9-3.3-3.9-5.3C339.7,252.8,340.1,253.4,341.7,257.5z"/>
	<path fill="#FFFFFF" d="M315.2,163.7c-0.8,1.4-1.7,2.8-3.6,3.4c1-1.3,2-2.6,3-4C314.8,163.3,315,163.5,315.2,163.7z"/>
	<path fill="#FFFFFF" d="M325.8,146.5c-1.4,0.2-2.3-0.6-3.3-0.2C324.5,144.7,324.5,144.7,325.8,146.5z"/>
	<path fill="#FFFFFF" d="M282.1,182.5c-1.4,1-1.4,1-3-0.1C280,182,280.8,182.2,282.1,182.5z"/>
	<path fill="#FFFFFF" d="M310.2,159.9c1.1,0.5,2.2,1.1,3,2.7C311.3,162.3,311.2,160.6,310.2,159.9z"/>
	<path fill="#FFFFFF" d="M286.3,213.7c-1.7-0.3-1.9-1.4-2.6-2.2C285,211.5,285.9,211.9,286.3,213.7z"/>
	<path fill="#FFFFFF" d="M287.1,192.1c-1.2,0.8-1.7,0.6-2.5,0C285.4,190.7,286.1,191.2,287.1,192.1z"/>
	<path fill="#FFFFFF" d="M312.3,145.4c-0.7,1.5-1.3,1.8-2,0.4C310.8,145.1,311.4,145.1,312.3,145.4z"/>
	<path fill="#FFFFFF" d="M333.7,143.9c-0.2-1.1-0.1-1.8,1-1.8C335.4,143.1,334.7,143.5,333.7,143.9z"/>
	<path fill="#FFFFFF" d="M305.7,179.6c-0.1,1.5-0.2,2.1-1.1,2.2C304.2,180.9,304.9,180.6,305.7,179.6z"/>
	<path fill="#FFFFFF" d="M294.7,181.9c-0.4,0-0.6-0.2-0.7-0.5c-0.1-0.4,0.2-0.6,0.5-0.7c0.4-0.1,0.7,0,0.7,0.4
		C295.3,181.5,295.1,181.8,294.7,181.9z"/>
	<path fill="#FFFFFF" d="M299.3,177.1c0.2,0.9-0.1,1.2-0.8,1.6C298.3,177.9,298,177.3,299.3,177.1z"/>
	<path fill="#FFFFFF" d="M304.1,307.5c-0.7,0-1.4-0.3-1.9-1.1C303.3,306.1,303.5,307.2,304.1,307.5L304.1,307.5z"/>
	<path fill="#FFFFFF" d="M279.6,189.3c-0.7-0.3-1-0.4-0.8-1C279.3,188.3,279.6,188.5,279.6,189.3z"/>
	<path fill="#FFFFFF" d="M321.2,162.2c-0.3,0.1-0.5,0.4-0.8,0.4c-0.2,0-0.4-0.3-0.2-0.4c0.2-0.2,0.5-0.2,0.8-0.4
		C321.1,161.9,321.1,162,321.2,162.2z"/>
	<path fill="#FFFFFF" d="M319.1,147.9c0.1-0.8,0.4-1.1,1-1C320.3,147.6,320.2,148,319.1,147.9z"/>
	<path fill="#FFFFFF" d="M311.7,450.2c-1.7-0.5-3.3-0.4-5,0c-1.9-1.5-4.1,0.8-6.1-0.6c-1-0.9,0.3-2.8-1.4-3.6c-2.2,1,0,2.3-0.3,3.6
		c-1.3-0.1-2.5-0.3-3.7-0.4c-0.9-1,0-2.5-1.3-3.2c-1.6-0.2-1,1.7-1.5,1.8c-0.6,0.2-0.7,0.4-0.8,0.3c-2.1-0.4-4-1.7-6.1-1.3
		c-0.9-1.3,0-2.3-0.7-3.8c11.3,2.3,22.3-0.1,33.1,2.5c0.2,1,0,1.9-0.7,2.6C315.6,449.5,312.4,446.7,311.7,450.2z"/>
	<path fill="#FFFFFF" d="M355,444.6c-0.1-1.2,0.4-1.7-0.3-2.2c-1.8-0.1-0.9,3.8-3.7,2.6c-0.7-0.4-0.1-1.6-0.5-2.3
		c-2.3,0,0.4,3.6-2.4,3.2c-0.8-1.2,1-2.1,0.1-3.3c4.6-1.6,8.9-3.1,13.9-4.8C359.9,440.7,356.6,441.3,355,444.6z"/>
	<path fill="#FFFFFF" d="M334.4,448.1c0.8-2.1-1.8-2.2-2-4.5c3.6,2.2,7,0.5,10.5,0.1c-0.2,1.3-0.1,2.3-0.9,3.3
		C339.7,446.8,337.5,448.1,334.4,448.1z"/>
	<path fill="#FFFFFF" d="M329.2,446c0.1,0.8,0.8,1.4,0.5,2.6c-3.4,0.5-6.9,0.1-10.4,0c-0.5-0.8,0-1.3,0.3-1.7
		c0.9-0.5,1.1,0.7,1.8,0.7c0.9-0.4,0.5-1.5,1.2-2.2c1.4-0.5,3-0.6,4.7-0.6c0.7,0.9-0.7,1.8,0.2,2.7
		C328.4,447.5,328.3,445.9,329.2,446L329.2,446z"/>
	<path fill="#FFFFFF" d="M282.3,446.6c-0.6-2-1.1-2.8-2.1-3.6c-1.6,0.2-0.7,2.1-1.9,2.8c-0.7-0.9,0.1-2.1-0.7-2.9
		c-0.5-1.7-2.6,1.8-2.8-1.2c2.8-0.2,5.5,1,8.6,1.1C283,444.1,282.8,445.1,282.3,446.6z"/>
	<path fill="#FFFFFF" d="M345.5,446.5c-1.6,0-1.4-0.7-1.1-1.5C345.4,444.9,345.5,445.5,345.5,446.5z"/>
	<path fill="#FFFFFF" d="M286.5,448.7c-0.1,0.2-0.2,0.4-0.4,0.4c-0.4,0.1-0.6-0.2-0.6-0.6c0-0.1,0.4-0.3,0.5-0.3
		C286.2,448.3,286.3,448.6,286.5,448.7z"/>
	<path fill="#FFFFFF" d="M278.2,448.2c-0.2,0-0.4,0.1-0.5,0.1c0,0-0.1-0.2-0.1-0.3c0.1-0.1,0.3-0.2,0.4-0.3
		C278.1,447.9,278.2,448.1,278.2,448.2z"/>
	<path fill="#FFFFFF" d="M329.3,446c0.3-0.5-0.2-1.5,1-1.4C330.8,445.8,329.6,445.5,329.3,446L329.3,446z"/>
	<path fill="#FFFFFF" d="M333.7,595.6c-0.6,0.8-1.5-0.1-2,0.7c-0.9,0.7,0.7,1.4-0.2,2.2c-1.7,0.1-2.8-0.7-2.9-2.5
		c-0.1-1.3,0.4-2.3,1.8-2.6C332.1,592.9,333.2,593.7,333.7,595.6z"/>
	<path fill="#FFFFFF" d="M959.7,589.8c-2.7,0.7-3.6-0.3-4.1-1.9c-0.4-1.3,0-2.4,1.2-3c1.4-0.8,2.4,0,3.4,1.4
		C959.2,587.1,957.4,588,959.7,589.8z"/>
	<path fill="#FFFFFF" d="M321.1,595.3c1.7,0,2.6,1,2.8,2.5c0.2,1.6-0.8,2.7-2.4,2.8c-1.6,0.1-2.6-0.9-2.7-2.5
		C318.6,596.5,319.5,595.6,321.1,595.3z"/>
	<path fill="#FFFFFF" d="M950.9,590.8c0,2-0.9,2.9-2.4,2.8c-1.8-0.1-2.6-1.5-2.5-3.2c0.1-1.4,0.8-2.3,2.2-2.2
		C950,588.3,950.9,589.5,950.9,590.8z"/>
	<path fill="#FFFFFF" d="M310.7,599.5c-0.1-2.4-0.1-2.4,2.5-2C312.7,599,312.7,599,310.7,599.5z"/>
	<path fill="#FFFFFF" d="M937.8,592.1c1.1-0.7,2-1.1,3-0.2c0.5,1.4-0.5,1.9-1.5,2.1C938,594.2,937.8,593.3,937.8,592.1z"/>
	<path d="M751.9,377.5c-2.9-0.4-5.8-0.8-8.5-2c-1.8,1.8-3.7,3.4-7.2,2.7c2.5-1.3,4.5-2.2,6-3.8c3.9,1,8.1-0.9,11.9,0.9
		C754,377.1,752.4,376.8,751.9,377.5L751.9,377.5z"/>
	<path d="M660.7,364.8c0.7,0.9,0,1.8-0.2,2.6c-0.6,2.4,0.2,3.4,2.6,3.8c2,0.3,3.9,0.6,6,0.9c-4.5,2.3-9.1,1.6-10.7-1.5
		C657.3,368.3,658.2,365.9,660.7,364.8z"/>
	<path d="M699.9,295c-2.7,6.9-8.2,10.9-14.9,13.5C690.3,304.4,696.2,301,699.9,295z"/>
	<path d="M661.6,278c-1.1,5.3,0.7,10.2,1.6,15.4C659.1,288.6,658.3,280.9,661.6,278z"/>
	<path d="M653.2,348.7c0.4,3.2,0.2,6.3-0.4,10.1C651.3,355.9,651.4,351.1,653.2,348.7z"/>
	<path d="M703.4,390.5c4.6-0.2,9.3-1.7,14-0.2C712.8,390.3,708.2,391.2,703.4,390.5z"/>
	<path d="M682.8,347.7c-1.6-2.5-1.6-5.2-1.3-7.9C683.5,342.2,683.9,344.8,682.8,347.7z"/>
	<path d="M677.8,382.5c-4.3-0.2-8.5-0.8-12.2-3.4C669.5,380.7,673.8,381,677.8,382.5L677.8,382.5z"/>
	<path d="M684.4,261.7c-2.8,0.3-4.9-0.9-7.3-0.9C678.8,258.4,680.6,258.6,684.4,261.7z"/>
	<path d="M744.2,402.2c-2-2.5-2.5-5.8-4.3-8.5C741.6,396.4,745.2,398.1,744.2,402.2L744.2,402.2z"/>
	<path d="M695.2,380.6c-2.8,2.2-4.4,2.7-8.3,2.3c1.8-0.6,3.1-1,4.3-1.3C692.4,381.2,693.6,380.3,695.2,380.6z"/>
	<path d="M680.3,334.7c-1.5-1.1-1.1-2.4-1-3.8c0.1-1.2-0.2-2.5-0.3-4.2C681.8,329.4,679.8,332.2,680.3,334.7z"/>
	<path d="M685.2,260.8c0.3-2.4,0.4-2.5,3.9-3.1C688,259.8,687.9,259.9,685.2,260.8z"/>
	<path d="M791.6,381.3c0.3-2.5,1.6-3.5,3.1-5C795.1,379,794.3,380.4,791.6,381.3z"/>
	<path d="M682.4,352.2c-1.7,1.9-4,1.8-5.7,2.9C678.3,353.8,679.5,352,682.4,352.2z"/>
	<path d="M791.4,372.7c-2.6,0.9-4,0.2-5.6-1.6C787.9,371,789.3,371.6,791.4,372.7z"/>
	<path d="M678.5,372.4c-2,0.9-3.9,1.4-6.3-0.2C674.7,371.2,676.6,372.4,678.5,372.4L678.5,372.4z"/>
	<path d="M744.2,402.2c1.8,1.5,1.9,3.3,0.9,5.3C744.9,405.8,743.8,404.1,744.2,402.2L744.2,402.2z"/>
	<path d="M664.1,305.1c-1-2.1,0.1-4,0-6.1C664.5,301,664.6,303.1,664.1,305.1z"/>
	<path d="M653.9,343.7c0.4-0.2,0.8-0.5,1.4-0.9c0.5,1.9-0.5,2.9-1.5,4C652.9,345.5,653.8,344.6,653.9,343.7L653.9,343.7z"/>
	<path d="M795.7,372.6c0.6-2,1.3-2.9,2.3-3.8C798.1,370.7,798.1,370.7,795.7,372.6z"/>
	<path d="M664.3,266.8c0,2-0.5,2.9-1.6,3.9C662.5,269.2,663.1,268.3,664.3,266.8z"/>
	<path d="M777.7,387.8c-1.8,0.2-2.7-0.7-3.3-2.4C776.1,385.5,776.7,387.1,777.7,387.8z"/>
	<path d="M772.4,383.1c-1.5,0-2.5-0.6-4.1-2.1C770.6,381.2,771.6,382.2,772.4,383.1z"/>
	<path d="M786.1,380.9c-2.2,0.4-3.4,0.3-4.3-1.1C783.3,379.3,784.5,379.9,786.1,380.9z"/>
	<path d="M678.7,310.7c-0.8,1.8-1.7,2.2-3,1.7C676.3,311.4,677.2,311.1,678.7,310.7z"/>
	<path d="M678.6,372.5c1.6-0.2,1.6-0.2,3.2,0.8C680.4,373.6,679.5,373.1,678.6,372.5L678.6,372.5z"/>
	<path d="M652.6,362.8c-1.1-1.1-0.9-1.8-0.5-2.6C653.4,360.8,652.9,361.6,652.6,362.8z"/>
	<path d="M677.7,382.6c1-0.3,2,0,3.1,0.2C679.7,383.1,678.7,383.1,677.7,382.6L677.7,382.6z"/>
	<path d="M680.8,336.8c0.5,0.2,0.6,0.7,0.3,1.1c-0.2,0.3-0.7,0.3-0.8-0.1C680.1,337.4,680.2,336.9,680.8,336.8z"/>
	<path d="M782.1,367.4c-0.9,0.2-1.5,0.2-1.5-0.7C781.3,366.3,781.6,366.8,782.1,367.4z"/>
	<path d="M793.1,361.6c0.5-0.2,1-0.5,1.4,0.2C793.9,362.7,793.5,362.3,793.1,361.6z"/>
	<path d="M732.5,390.7c-0.4,0-0.8,0-1.4,0C731.6,390.2,732.1,390.3,732.5,390.7z"/>
	<path d="M676.7,324c0.4-0.2,0.6,0,0.7,0.4C677,324.5,676.8,324.5,676.7,324z"/>
	<path d="M695.1,391.3c-0.2,0-0.4,0-0.6,0c0-0.1,0-0.1,0-0.2c0.2,0,0.4,0,0.6-0.1C695,391.2,695.1,391.3,695.1,391.3z"/>
	<path d="M788.3,388.8c0.3,0.7,0,1-0.6,1.3C787,389.3,787.2,388.9,788.3,388.8z"/>
	<path d="M731.3,381.6c-0.5,0.7-1,0.9-1.2,0.4C729.9,381.7,730.5,381.5,731.3,381.6z"/>
	<path d="M651.8,367c-0.2-0.7-0.2-1.4,0.3-2.1C652.7,365.7,652.6,366.4,651.8,367L651.8,367z"/>
	<path d="M748.7,359.4C748.3,359.4,748.5,359.4,748.7,359.4C748.5,359.4,748.3,359.5,748.7,359.4z"/>
	<path d="M888.6,469.6c-0.5-3.6-2.2-7.2-0.6-11c0.2-0.4,0.1-1-0.1-1.4c-2.3-5.2-0.2-10.5-0.5-15.7c-0.1-1,0.1-2.1,1.4-2.5
		c1.5,0.6,1.5,2,1.5,3.2c0,2.5-0.1,4.9-0.4,7.4c-0.6,4.6-1,9.2-0.2,13.8C890,465.5,889.7,467.6,888.6,469.6z"/>
	<path d="M927.8,563.4c-3.4-5.1-3.7-10.5-5.1-15.6C926,550.9,929.1,559.9,927.8,563.4z"/>
	<path d="M915.7,452.6c-3.7-7.4-6.9-15-8.8-22.9C910.9,436.9,913,444.9,915.7,452.6z"/>
	<path d="M889,475.6c1.9,4.1,0.6,8.5,1,12.7c0.3,4.2,1.9,8.5,0.3,12.9C888.7,492.8,888.7,484.2,889,475.6z"/>
	<path d="M888.3,384.5c-4.4-1.2-8.3-3.6-12.5-5C880.5,379.6,884.4,382.1,888.3,384.5z"/>
	<path d="M896.9,415c3.1,2.2,5,5.5,6.7,8.8c-0.2,0.1-0.4,0.3-0.5,0.4c-2.3-2.9-4.6-5.8-6.9-8.7C896.4,415.4,896.6,415.2,896.9,415z"
		/>
	<path d="M909.5,380.5c-0.9-1.8-1.7-3.6-2.6-5.4c3.4,0.6,2.9,3.2,3.3,5.3C910,380.4,909.7,380.5,909.5,380.5z"/>
	<path d="M887,435.8c-2.3-2.5-1.4-5.2-1.8-7.5C887,430.3,886.7,432.8,887,435.8z"/>
	<path d="M894.1,516.4c1.6,1.7,1.8,3.7,1.7,6.2C893.7,520.7,893.9,518.5,894.1,516.4z"/>
	<path d="M943.3,531.3c-0.5-2.1-0.9-4.1-1.4-6.2C943.6,527,944.3,529,943.3,531.3z"/>
	<path d="M887.1,414.6c1.5,1.3,1.6,3.2,2.2,4.9C888,418.1,887.3,416.5,887.1,414.6z"/>
	<path d="M863.8,427.1c1.1-2.1,2.1-2.7,4-2C867,426.5,865.7,426.6,863.8,427.1z"/>
	<path d="M874.8,409.2c-1.2,1.6-2,2.1-3.2,1.1C872.1,408.8,873.3,409.3,874.8,409.2z"/>
	<path d="M916.1,530.3c1.1,0.9,1.1,1.7,0.8,2.6C915.7,532.4,915.6,531.5,916.1,530.3z"/>
	<path d="M908.3,406.2c-0.4-1.7-0.6-2.8-0.9-4.1C908.5,403.4,908.5,403.4,908.3,406.2z"/>
	<path d="M940.9,522.2c-1.2-0.6-1.5-1.4-1-2.9C940.5,520.2,941.1,520.9,940.9,522.2z"/>
	<path d="M919.8,540.1c1.2,0.6,1.1,1.4,1.3,2.5C919.7,542,919.6,541.2,919.8,540.1z"/>
	<path d="M913.1,519.4c0.7,0.6,0.9,1.2,0.6,2C912.8,520.9,912.6,520.3,913.1,519.4z"/>
	<path d="M891.9,506.7c1.4,0.6,1.4,1.4,1,2.4C892.1,508.6,891.9,507.8,891.9,506.7z"/>
	<path d="M871.6,460.4c0.7,0.8,0.5,1.6,0.2,2.5C871,461.9,871.5,461.1,871.6,460.4z"/>
	<path d="M881.9,412.3c-1.2,0.5-1.9,0.8-2.3,0C880.1,411.1,880.7,411.7,881.9,412.3z"/>
	<path d="M874.4,419.4c-0.3-1.3,0.1-1.6,0.7-1.8C875.6,418.4,874.8,418.6,874.4,419.4z"/>
	<path d="M834.4,416.4c2.3,2.1,1.2,4.4,0.3,6.4c-2,4.6-4.6,9-7.7,13c-8.7,11-17.3,21.9-28.2,30.9c-2.7,2.2-5.6,4.1-8.7,5.3
		c-0.5-0.3-0.5-0.5-0.2-0.7c12.2-8,21.1-19.3,30.2-30.3c4.3-5.3,8.1-10.9,11.7-16.7C833.2,421.9,834.2,419.3,834.4,416.4z"/>
	<path d="M805.9,420.3c-2.6,6.2-5.2,12.5-7.8,18.7c-2.3,5.6-5.1,10.8-9,15.5c-1.9,2.3-4.1,4.1-7.2,4.7c2.4-2.1,4.2-4.7,5.9-7.3
		c5.1-7.8,8.7-16.3,12.9-24.6c1.3-2.6,2.7-5.1,4.1-7.6C805.1,419.8,805.5,420,805.9,420.3z"/>
	<path d="M822.5,421.4c0.6,5.5-18.6,34.5-27.4,41.4c-0.3-1.2,0.7-1.7,1.1-2.4c6.6-9.1,13.3-18.2,19.8-27.3c2.4-3.3,4.5-6.8,5.1-11
		C821.3,421.6,821.8,421.2,822.5,421.4z"/>
	<path d="M841.8,470.1c2.1-7.1,4.8-14,6-21.3C848,456,844.9,467.3,841.8,470.1z"/>
	<path d="M820.7,411.9c0.2-4.4,0.5-8.8,0.7-13.1C821.7,403.2,823.8,407.7,820.7,411.9z"/>
	<path d="M846.5,394.4c-1,4.5-1.5,9.2-3.3,13.6C844.2,403.5,843.6,398.5,846.5,394.4L846.5,394.4z"/>
	<path d="M808,413.3c0.9-3.6,1.8-7.2,2.6-10.7c0.6,3.9-0.4,7.5-1.9,10.9C808.5,413.4,808.2,413.3,808,413.3z"/>
	<path d="M752.5,473.3c1.9-2.2,4.5-3.5,7.2-4.5c-1.8,2.3-4.4,3.5-6.9,4.8C752.7,473.5,752.6,473.4,752.5,473.3z"/>
	<path d="M817,418.1c-2.2,0.3-4.3,1.3-7.4,0.7C812.5,418.3,814.6,417.6,817,418.1z"/>
	<path d="M833.4,406.5c0.3,1.4,1.6,2.5,1,4.4C832.9,409.5,833.3,408,833.4,406.5z"/>
	<path d="M795.7,407.9c-0.4,1.9-0.4,3-2,3.5C793.7,410,794.6,409.3,795.7,407.9z"/>
	<path d="M729.5,448.2c-0.2,1.1-0.9,1.8-2.1,2.7c0.2-1.5,1-2.3,1.9-2.9L729.5,448.2z"/>
	<path d="M788.2,469.2c0.8-1.2,1.1-1.6,1.7-1.6C789.9,468.4,789.3,468.5,788.2,469.2z"/>
	<path d="M846.6,394.5c-0.2-1.1,0-2,1-2.8C847.6,392.9,847.3,393.7,846.6,394.5L846.6,394.5z"/>
	<path d="M828.9,415.2c0.3-1,0.9-0.9,1.5-0.8C830.1,415.2,829.6,415.1,828.9,415.2z"/>
	<path d="M850.6,405.6c0.4,0.6,0.4,1.1-0.4,1.4C849.8,406.4,850,406,850.6,405.6z"/>
	<path d="M752.8,473.6c-0.5,0.6-1,1.2-2,1c0.3-0.9,1-1.2,1.7-1.4C752.6,473.4,752.7,473.5,752.8,473.6z"/>
	<path d="M771,319.4c-3.5,2.8-4.9-1.5-7.6-1.5c-0.9,0.2-1,2.1-3,1.6c2.8-3.3,1.4-7.3,2.1-11.4c1.8,2.2,0.8,4.6,1.6,6.7
		C766.6,315.8,769.3,316.6,771,319.4z"/>
	<path d="M727.6,333.1c-1.4,0.9-2.5,1.1-4.3,0.2C724.8,331.8,726,332.1,727.6,333.1z"/>
	<path d="M712.5,262.5c-0.7,2.3-1.8,0.3-2.8,0C710.6,262.5,711.5,262.5,712.5,262.5L712.5,262.5z"/>
	<path d="M734,319.4c1.2-0.6,1.9-0.5,2.3,0.6C735.4,320.6,734.7,320.7,734,319.4z"/>
	<path d="M774.1,320.1c-0.7,0.4-1.1,0.3-1.3-0.1c-0.2-0.3,0.1-0.7,0.4-0.7C773.8,319.1,774,319.5,774.1,320.1z"/>
	<path d="M722.8,341.6c-0.1,0.1-0.3,0.4-0.4,0.4c-0.4,0-0.6-0.2-0.5-0.6c0-0.1,0.4-0.3,0.5-0.2C722.6,341.1,722.7,341.4,722.8,341.6
		z"/>
	<path d="M839.6,360c3.2-2.8,7.5-2.8,11.3-3.9c0.8-0.2,1.6-0.3,2.4-0.7c0.5-1.6-0.3-3.4,0.9-5.5c1.2,2.9,0.8,5.4,0.9,7.8
		C849.6,357,844.6,358.7,839.6,360L839.6,360z"/>
	<path d="M838.7,351.5c4.8-2.4,9.6-0.6,13.9-2.1c-0.7,1.9-3.6,1.6-2.9,4.2c-0.1-0.6-0.3-1.2-0.4-1.9
		C846,350.7,842.7,353,838.7,351.5z"/>
	<path d="M834,375.1c1.2-1.3,2.4-1.9,4.4-1.8C836.8,374.3,835.8,375.3,834,375.1z"/>
	<path d="M817.6,366.7c1-0.8,1.9-0.8,3.1-0.3C819.8,367.3,819,368.1,817.6,366.7z"/>
	<path d="M826.9,353.4c-1,0.2-2.1,0.4-3.6,0.8C824.6,352.3,825.8,352.9,826.9,353.4z"/>
	<path d="M839.6,359.9c-1.5,0.7-3,0.9-5.3,0.4C836.5,359.1,838.1,359.8,839.6,359.9L839.6,359.9z"/>
	<path d="M858.9,350c-1.5-0.1-1.9-0.4-2.3-1.1C857.6,348.6,857.9,349.2,858.9,350z"/>
	<path d="M815.8,374c-0.6,1.1-1.2,0.6-1.9,0.6C814.5,373.5,815.1,373.9,815.8,374z"/>
	<path d="M844.2,372.9c-0.4,0.1-0.7,0.1-1.1,0.2C843.5,372.5,843.8,372.7,844.2,372.9z"/>
	<path d="M828.9,360.9c-0.4,0.4-0.8,0.4-1.2,0.1C828,360.5,828.4,360.4,828.9,360.9z"/>
	<path d="M707.5,329.8c2.4-1.6,5.1-0.9,7.8,1.8C712,333.3,709.9,332.9,707.5,329.8z"/>
	<path d="M703.4,337c3.6-0.1,5.8,2.3,8.7,2.2c-0.1,1.4-1.2,1.7-1.5,1.3C708.8,338.6,705.2,340.6,703.4,337z"/>
	<path d="M718.9,332.3c-0.8,0.1-1.7,0.8-2.8-0.4C717.3,330.8,718.1,330.5,718.9,332.3L718.9,332.3z"/>
	<path d="M773,408.9c0.8-1.3,1.5-1.1,2.3-0.5C774.7,409.6,774,409.3,773,408.9z"/>
	<path d="M338.3,365.8c-3.6,2.7-7,0.8-10.7-0.1c-1.6,1.6-3.5,3.3-7,2.7c2.1-1.5,4.3-2,5.6-3.9C330.3,365.4,334.5,363.7,338.3,365.8z
		"/>
	<path d="M253.5,362.2c-4.5,2.3-9.1,1.6-10.7-1.5c-1.2-2.3-0.3-4.7,2.2-5.8c0.7,0.9,0,1.7-0.2,2.6c-0.6,2.4,0.2,3.4,2.6,3.8
		C249.5,361.6,251.5,361.9,253.5,362.2z"/>
	<path d="M284.3,285.1c-2.8,6.9-8.2,10.9-14.9,13.5C274.7,294.5,280.7,291,284.3,285.1z"/>
	<path d="M246.2,267.7c-1.5,5.9,0.7,10.7,1.3,16.1C243.4,277.7,242.7,271.4,246.2,267.7z"/>
	<path d="M329.3,398.2c-0.7-5.4-2.4-10-5.8-14.7C328.3,387.1,331,394,329.3,398.2z"/>
	<path d="M236.8,348.2c-1.2-4.4-1-7.2,0.7-9.5C238.2,341.9,237.7,345.1,236.8,348.2z"/>
	<path d="M301.8,380.5c-4.7-0.3-9.5,0.9-14.2,0.1C292.4,380.5,297.1,378.9,301.8,380.5z"/>
	<path d="M265.8,329.9c2.1,2.4,2.7,5,1.4,8.6C265.4,335.4,265.7,332.7,265.8,329.9z"/>
	<path d="M262.2,372.6c-4.3-0.2-8.6-0.7-12.2-3.5C253.9,370.9,258.2,371.1,262.2,372.6L262.2,372.6z"/>
	<path d="M260.9,250.9c2.8-2.3,4.9-1.9,7.6,0.9C266,252.1,263.9,250.9,260.9,250.9z"/>
	<path d="M279.4,371.2c-2.3,1.4-4.7,2.6-8.2,1.8c3.1-1,5.6-1.8,8-2.5C279.3,370.7,279.3,371,279.4,371.2z"/>
	<path d="M263.6,317.4c2.4,2.2,0.9,5,0.9,7.5C262.6,322.6,264.3,319.8,263.6,317.4z"/>
	<path d="M273.6,247.9c-1,1.6-2.2,2.7-4.7,3.4C269.7,248.3,271.6,248,273.6,247.9z"/>
	<path d="M378.9,367c0.4,2.1-0.3,3.5-2.6,4.3C375.8,368.9,377.7,368.1,378.9,367z"/>
	<path d="M261.1,345.2c1.6-1.2,2.9-3.1,5.9-2.9C265.1,344.2,262.8,344.2,261.1,345.2z"/>
	<path d="M262.9,362.6c-2,1.2-3.9,1-5.8,0C259.1,361.3,261,362.6,262.9,362.6L262.9,362.6z"/>
	<path d="M374.9,362.8c-1.9,1-3.3,0.4-4.7-1.6C372.2,361.2,373.6,361.7,374.9,362.8z"/>
	<path d="M248.8,289.3c0,2,0,3.9,0,5.9C247.1,293.2,248.9,291.2,248.8,289.3z"/>
	<path d="M238.3,333.8c0.4-0.2,0.8-0.5,1.4-0.9c0.6,1.9-0.7,2.8-1.4,4.2C237.3,335.6,238.2,334.7,238.3,333.8L238.3,333.8z"/>
	<path d="M380.7,362.1c-0.1-1.5,0.8-2.3,1.8-3.6C383.1,360.8,382,361.5,380.7,362.1z"/>
	<path d="M356.8,373.3c-1.4,0-2.5-0.6-3.7-1.9C355.1,371.2,356,372.2,356.8,373.3z"/>
	<path d="M359.3,375.3c0.9,0.8,1.8,1.6,2.8,2.4C360.3,378.1,359.3,377.3,359.3,375.3z"/>
	<path d="M369.9,370.8c-1.4,0.6-2.7,0.6-3.7-0.8C367.6,369.3,368.7,370.2,369.9,370.8z"/>
	<path d="M248.8,257c-0.3,1.8-0.7,2.9-2.1,4C247,259.3,247.4,258.3,248.8,257z"/>
	<path d="M263,301c-0.6,1.6-1.5,2-3,1.6C260.7,301.5,261.6,301.2,263,301z"/>
	<path d="M262.9,362.6c1.3-1.2,2.1,0.1,3.1,0.5C264.8,363.7,263.8,363.2,262.9,362.6L262.9,362.6z"/>
	<path d="M236.5,352.7c-0.5-0.9-0.6-1.6,0.2-2.5C237.5,351.2,237.7,351.9,236.5,352.7z"/>
	<path d="M265.1,326.8c0.9,0.6,0.6,1,0.3,1.5C264.4,328,264.4,327.6,265.1,326.8z"/>
	<path d="M262.1,372.7c1-0.2,2,0,3.1,0.2C264.1,373.2,263.1,373.2,262.1,372.7L262.1,372.7z"/>
	<path d="M366.3,357.4c-0.7,0.4-1.2,0.4-1.4-0.6C365.7,356.5,366,356.9,366.3,357.4z"/>
	<path d="M316.9,380.7c-0.5,0.3-0.9,0.2-1.3,0C316,380.4,316.4,380.4,316.9,380.7z"/>
	<path d="M278.3,381.3c0.4,0,0.7,0,1.1-0.1c0,0.1,0,0.1,0,0.2c-0.4,0-0.7,0-1.1,0C278.3,381.4,278.3,381.3,278.3,381.3z"/>
	<path d="M377.3,351.8c0.6-0.4,1-0.4,1.4-0.2C378.6,352.8,378.1,352.4,377.3,351.8z"/>
	<path d="M333.2,349.6C333,349.6,332.8,349.6,333.2,349.6C332.8,349.6,333,349.6,333.2,349.6z"/>
	<path d="M261.2,314.1c0.2,0.1,0.5,0.1,0.6,0.2c0.2,0.2,0,0.4-0.3,0.3C261.1,314.5,261,314.3,261.2,314.1z"/>
	<path d="M371.9,380.3c-0.5-1,0-1.3,0.6-1.5C373,379.8,372.4,380,371.9,380.3z"/>
	<path d="M315.5,371.8c-0.2,0.5-0.6,0.6-1.1,0.4C314.6,371.7,314.9,371.5,315.5,371.8z"/>
	<path d="M236.2,357.1c-0.2-0.7-0.2-1.4,0.3-2.1C237.1,355.9,237,356.5,236.2,357.1L236.2,357.1z"/>
	<path d="M346.9,298c1.5,2.6,1,4.8,1.4,6.9c2.6,1,5.3,1.9,7.1,4.4c-3.3,3.3-4.9-1.4-7.9-1.2c-0.6,0.1-0.6,2-2.6,1.6
		C347.7,306.4,346.3,302.5,346.9,298z"/>
	<path d="M312.3,323.4c-1.9,0.6-3,1-4.3,0.3C309.5,322.3,309.5,322.3,312.3,323.4z"/>
	<path d="M297.4,252.5c-1.6,1.8-2.4,0.7-3.4,0.3C295,252.7,295.9,252.6,297.4,252.5z"/>
	<path d="M320.7,310.1c-1,0.6-1.8,0.7-2.3-0.4C319.3,308.7,319.9,309,320.7,310.1z"/>
	<path d="M358.5,310.1c-0.5,0.5-0.9,0.5-1.3,0c-0.2-0.3-0.1-0.6,0.2-0.8C358,309.1,358.3,309.5,358.5,310.1z"/>
	<path d="M306.8,331.2c0.1,0.1,0.4,0.3,0.4,0.4c0,0.4-0.3,0.5-0.6,0.4c-0.1-0.1-0.3-0.4-0.2-0.5
		C306.3,331.4,306.6,331.3,306.8,331.2z"/>
	<path d="M424,350.1c3.2-2.8,7.5-2.8,11.3-3.9c0.8-0.2,1.6-0.3,2.3-0.6c0.7-1.6-0.4-3.5,1-5.4c1.2,2.7,0.8,5.2,0.8,7.7
		C434,347.1,429,348.8,424,350.1L424,350.1z"/>
	<path d="M437.3,340.2c-1.2,1.1-3.8,1.1-3.2,3.5c-0.1-0.6-0.3-1.3-0.4-2c-3.4-1.1-6.7,1.8-9.9,0.1
		C425.7,340.3,434.4,339.2,437.3,340.2z"/>
	<path d="M417.1,374.9c-0.8-6.2-5.2-8.3-10.6-9.2C413.3,364.6,418.4,368.9,417.1,374.9z"/>
	<path d="M418.7,384.7c-0.9-2.1-1.1-4.3-1-7.4C419.4,380.2,419.8,382.3,418.7,384.7z"/>
	<path d="M422.3,363.8c-1.3,0.7-2.5,1.5-4.5,2.6C419,364,420.6,363.7,422.3,363.8z"/>
	<path d="M411.4,343.4c-1,0.2-2.1,0.5-3.6,0.8C408.9,342.4,410.2,343,411.4,343.4z"/>
	<path d="M402,357c1.1-1,2-1,3.1-0.4C404.2,357.5,403.4,358.2,402,357z"/>
	<path d="M424,350.1c-1.5,0.7-3,1-5.2,0.3C420.9,349.3,422.5,350,424,350.1L424,350.1z"/>
	<path d="M440.9,339c1.1-0.3,1.4,0.2,1.8,0.8C441.9,340.3,441.5,339.7,440.9,339z"/>
	<path d="M400,364.2c-0.3,0.8-0.9,0.7-1.4,0.5C398.7,363.4,399.5,364.3,400,364.2z"/>
	<path d="M427.4,363c0.4-0.1,0.7-0.1,1.1-0.2C428.2,363.3,427.9,363.2,427.4,363z"/>
	<path d="M413.3,351c-0.4,0.3-0.8,0.4-1.3,0.1C412.4,350.6,412.8,350.5,413.3,351z"/>
	<path d="M291.8,320.1c2.1-1.8,4.5-1.3,7.8,1.5C296.8,323.5,294.6,323.1,291.8,320.1z"/>
	<path d="M296.4,330.3c-2.8-0.4-5.8-0.4-8.7-2.4C290.3,327.3,292.8,327.9,296.4,330.3z"/>
	<path d="M303.2,322.4c-0.8,0.1-1.7,0.8-2.8-0.4C301.6,320.9,302.5,320.6,303.2,322.4L303.2,322.4z"/>
	<path d="M359.8,398.7c-0.9,0.9-1.6,0.8-2.3,0.1C358.1,397.9,358.7,397.7,359.8,398.7z"/>
</g>
</svg>
