<?xml version="1.0" encoding="utf-8"?>
<!-- Generator: Adobe Illustrator 19.1.0, SVG Export Plug-In . SVG Version: 6.00 Build 0)  -->
<svg version="1.2" baseProfile="tiny" id="Layer_2" xmlns="http://www.w3.org/2000/svg" xmlns:xlink="http://www.w3.org/1999/xlink"
	 x="0px" y="0px" width="900px" height="600px" viewBox="144 97 900 600" xml:space="preserve">
<g>
	<path d="M947.6,489.3c-3.2,1.7-6.1,3.9-9.5,5.3c-3.4,1.5-6.7,1-10.1,0.3c-1.1-0.2-1-1-0.7-2.2c-3.2,1.4-5.1,0.1-6.3-2.9
		c-0.5,3.7-0.4,6.9,2.6,9.3c1.6-1.2,0-3.4,1.9-4.5c1.7,2.3,0.8,4.9,0.7,7.1c-0.7,14.8-2.4,29.6-4.5,44.3c-1.1,7.6-2.3,15.1-4.7,22.3
		c-1.1,3.3-0.7,6.8-1.1,10.2c-0.8,7.5-1.8,15-3.4,22.3c-1.1,4.7-3.7,9.1-5,13.8c-1.6,5.8-4,11.1-7,16.2
		c-6.9,11.6-15.2,21.9-25.9,30.2c-5.2,4.1-9.7,9-15,13c-2.5,1.9-5.1,3.4-8.3,3.5c-0.2-0.9,0.6-1.2,1.1-1.5
		c7.3-3.5,11.8-10.5,18.4-14.9c1.6-1,3-2.3,4.5-3.5c5-3.9,8.7-9,13-13.5c4.2-4.5,7.8-9.1,10.5-14.6c6.1-12.6,10.8-25.6,13.5-39.4
		c1.8-9.5,2.5-19,3.3-28.5c0.1-1.8,0.6-3.5,2-5.1c1.7-2.1,1.3-5.2,1.7-7.9c1.6-12.3,2.4-24.7,3.2-37.7c-3.1,5.9-8.9,8.9-12,14.3
		c-3.9,6.7-7.6,13.5-11,20.5c-0.6,1.4-1.5,2.6-2.3,3.8c-4.6,6.3-10.3,11.7-14.5,18.4c0.9-3,2.6-5.5,4.2-8.1
		c5.7-9,12.1-17.6,16.7-27.1c4.4-9,10.8-16.4,15.9-24.7c0.8-1.3,1.5-2.6,1.7-4.1c-0.3-1.3-1.4-2.1-2.4-3c0.7-2.9,0.2-6-0.1-8.9
		c-0.4-3.8-0.8-8.3-5.4-10.6c-2.3,1.9-3.2,4.7-4.6,7.1c-3,5.2-5.9,10.6-8.5,16c-1.6,3.4-4.5,6.1-6,9.8c1.1,0.7,2,1.6,2.8,2.5
		c1.5,0,1.3-1.8,2.5-2.2c1,2.2-2.9,3.7-0.8,5.8c-0.9,0.7-1.2-0.5-2.1-0.2c-2.5,2.7-5.1,5.5-7.5,8.9c2.6,1.9,4.7,4.1,6.4,6.8
		c-2.8-1.2-4.1-4.5-7.5-5.2c-3.9,6.4-7.1,13-7.9,20.6c-0.2,1.6-0.6,2.9-1.6,4.3c-2.3,3.1-4.3,6.5-6.4,9.7c-0.2,0.3-0.5,0.6-0.5,0.9
		c-0.2,5-3.3,6.8-7.6,8.3c-2.8,0.9-3.9,4.3-6.2,6.3c1.1,3,2.2,5.8,3.8,8.5c-3-1.2-3.2-4.5-4.7-6.8c-4.8,3.1-4.9,3.2-2.9,10.9
		c1.7-1.3,0.2-3.3,1.4-4.9c0.3,2.6,0.6,5-0.6,7.1c-1.1,0.8-1.4-0.4-2.3-0.3c0.3,2,0.4,4,1.2,5.9c3.8-0.7,6.3-2,8.1-6
		c2.6-5.8,6-11.5,11.5-15.4c1.4-1,2.5-2.3,4.2-3.2c-1.9,2.7-3.6,5.5-5.6,8c-3.4,4.1-6.4,8.3-7.9,13.5c-0.6,2.2-2.2,3.7-4.3,4.6
		c-3.3,1.5-6.4,3.5-10.3,4c-0.5,7.1-1.1,13.8-1.5,20.6c-0.3,5.1-0.4,10.3-0.8,15.4c-0.8,9-2.6,17.8-4,26.7c-0.3,1.9-0.7,3.6,0.9,4.9
		c-0.5,1.3-0.5,2.6-2.3,2.8c-1.1-2-0.4-4.1-0.1-6.1c1.8-18.3,3.7-36.5,5.5-54.8c0.3-2.7,0-5.4,0-8.4c-6.5-0.2-13.4,3.2-19.1-2.3
		c-1.2-0.3-1.8,1-2.8,0.9c-3.6-1.7-7.3-2-11-1.5c-6.6,0.8-12.3-0.9-17.2-5.4c-1-0.9-1.9-2.1-3.7-2c-1.6,1.7-3.9,1.9-6.4,1.5
		c-5.5-0.8-11.1-1.5-16.6-2.4c-5.3-0.9-10.6-1.5-16-0.9c-2.6,0.3-5.2-0.3-8.1-1c0.2,2.6,0.3,4.8,0.5,7c0.7,8,1.3,15.9,2.1,23.9
		c0.2,1.9-0.5,2.7-2,3.8c-3.9,3-8.6,4.7-12.6,7.3c1.2,14.2,5,27.7,6.3,42.3c-2.5-2-3.2-4.4-3.5-6.6c-1.2-8.1-3.2-16.1-3.4-24.4
		c-0.1-3.3-0.5-6.6-1.6-10.3c-5.1,2.4-9.1,5.8-13.3,9.2c0.3,5.4,1.5,10.6,2.8,15.8c1.2,5.1,1.7,10.2,1.3,15.5
		c-4.3-13.9-6.7-28.1-7.4-42.5c1.2-0.5,1.2,0.4,1.9,0.7c-1.4-16.3-2.1-32.7-4.2-48.8c-8-3.1-8.9-4.4-7-10.4
		c-6.2-6.4-8-14.6-9.6-22.9c-0.3-1.7-0.8-3.3-1.2-5c-1.8-0.3-2.7,1.3-4.4,1.6c1.3,1.6,2.4,3,4.1,5c-12-2.4-23.9-1.2-34.5-7.1
		c7,1.8,14.1,2.9,21.4,2.8c-7.1-2.2-14.7-2.5-21.4-5.9c11.7,1.2,23.2,5.7,34.8,1.3c-9.9-32.3-15.9-65.3-12-99.9c0,0,0.4-0.1,0.9-0.1
		c0.4,0,0.9,0.3,1.3-0.3c0.5-2,0.4-4.2,0.4-6.4c0-0.8,0.2-1.6-0.3-2.3c-2.5-0.4-3.2,1.5-4.3,3.7c-0.7-1.5-0.8-2.7-2.4-3.1
		c-6.2-1.7-9.5-6.5-12-11.9c-3.3-7-4.4-14.3-1.9-22.2c-7.5,0.6-13.5,4.2-19.5,7.4c-5.9,3.1-12.2,5.5-17.8,9.3
		c-4.7-1.4-9-4.2-13.9-5.7c-4.3-1.3-6.9-6.3-6.4-10.8c0.3-2.6,0.2-5.2,0.7-7.8c1.1-6.2,3.2-11.7,7.6-16.5c2.1-2.3,3.6-5.2,5.4-7.9
		c2.1-3.1,4.8-5.4,7.7-7.1c1.6,0.5,1.4,1.5,1.5,2.4c0.3,0.9,0.1,1.6-0.6,2.2c-2,1.8-3.8,3.7-5.7,5.7c-0.4,0.3-0.9,0.4-1.3,0.3
		c-7.9,7.9-12.3,17.5-13.1,28.6c-0.4,5.3,1.9,8.1,8,10.4c2.4,0.9,5,1.5,7.5,2.2c1.8,0.6,4.3,1.2,5.7-1.4c0.3-0.6,1.3-0.9,2.1-1.1
		c7.5-2.5,14.3-6.4,20.4-11.5c1.8-1.5,4.1-1.2,6.2-2c1.4-2.4,2.7-5.4,6.4-4.7c1-1.5,1.9-3.3,4-2.5c2.6,1,1.9,3.2,1.1,6
		c2.2-2,2.3-4.6,4.4-5.3c2.8-0.9,3.4,1.4,4,3.5c2.1-0.5,2.8-2.3,4.1-3.5c1-1,1.9-2.3,3.5-1.5c1.8,0.9,1.1,2.5,0.4,4.1
		c6.2-1.5,10.2-4.7,11.9-11c0.9-3.3,2.2-6.6,4.7-9.3c2.8-2.9,5.9-3.6,9.6-2.6c0.5,0.1,1.1,0.3,1.6,0.5c0.1,0,0.2-0.1,0.5-0.1
		c0.5-2.6,0.7-5.4,0-8c-1.8-6.8-3.2-13.7-6.1-20.3c-2-4.6-2.7-9.8-3.9-14.8c-0.2-0.8-1.1-1.6-0.5-2.6c0.8-0.8,1.4-0.4,2,0.2
		c0.7,0.8,1.3,1.7,1.4,2.7c0.3,6.7,4.8,12,5.9,18.4c1.4,8.1,5.3,15.7,4.1,24.2c1.5,1,3.1,0.6,4.5,0.5c7.6-0.3,15.2-0.7,22.8-1
		c1.1,0,2.3-0.1,3.4,0.1c1.7,0.3,3.1,1.1,2.3,3.6c4.3-3.9,10.3-4.1,14.7-7.7c1.6-1.3,3.1-2.6,3.8-4.3c-2.2-6.6-0.6-12.6,2.7-18
		c3.2-5.3,7.6-9.7,13-12.8c1.9-1.1,3.6-2.2,5.2-0.1c7.3-1.6,14.4-2.4,21.6-0.7c4.6,1.1,7.7,5,7.5,9.7c0,0.3,0.1,0.7,0.1,1.3
		c2.3,0.9,2.5,2.8,2.5,5.1c0.1,5.1,1.2,10.2,0.1,15.3c-0.2,0.8,0.3,1.8,0.4,2.7c0.9,4.7,2,9.4,1.6,14.3c1.7,0.4,3.1-0.2,4.6-0.3
		c4.5-0.1,8.9-0.2,13.2,1.2c1.6,0.5,2.9,0.5,4-1c0.1-1.3-1.8-1.3-1.7-2.4c0-0.7,0.3-1.2,0.7-1.2c3-0.3,4.7-2.5,6.6-4.4
		c6.5-6.7,13-13.5,21-18.5c4.5-2.8,8.1-7,13.3-8.9c1.4-0.5,2.1-2.1,3.2-3.1c3.1-2.6,6.7-3.2,10.5-3.5c2.2-0.2,4.4-0.4,6.5-0.3
		c5.3,0.2,10.5-0.8,15.6-1.4c4.7-0.6,9.5,0.4,14.6-1c1.3-1.9,0.7-4.9,2.3-7.1c0.7-1,1.1-2.3,1.9-3.2c2.3-2.5,4.3-5.1,5.5-8.5
		c1.3-3.7,4.7-5.5,8.5-6c2.2-0.3,4.2-1,6-2.3c2.8-2.1,5.9-3.5,9.4-3.2c1.2-1.3,0.8-2.8,1.3-4c0.5-1.3,1.1-2.8,2.8-2.2
		c1.6,0.5,1.1,2,0.8,3.2c-0.1,0.4-0.4,0.8-0.1,1.4c1.4,0.2,2.8-1.5,4.4-0.5c0.9,0.6,0.7,1.6,1.1,2.7c3.1-1.9,5.6-0.1,7.3,2.1
		c2,2.6-0.2,4.9-1.7,7c0.4,1,1.4,1.1,2.2,1.5c5.9,3.4,8.2,8.9,7.8,15.3c-0.2,3.9-0.3,7.7,0.4,11.6c0.9,5.2-1.7,8.9-4.9,12.5
		c-1.2,1.4-3-0.2-4.1,1.7c2.6,2.4,5.6,4.4,8.1,7.1c1.3,1.4,2,2.7,1.6,4.5c-3,2-3.6-1.4-5.3-2.4c-0.2-0.2-0.5-0.5-0.7-0.7
		c-2.1-2.5-4.5-3.4-7.9-2.4c-8,2.5-16,0.9-24-0.6c-6.5-1.2-13.1-1.6-19.6-2.8c-2.2-0.4-4,0-3.7,2.9c0.1,1.1-0.3,1.9-0.9,2.9
		c-0.7,1-1.2,2-2.6,1.8c-1.2-0.2-2.2-0.9-2.5-2.1c-0.7-2.2-1.6-4.3-0.1-6.5c-2.7-1.9-5.2-2.1-7.7-0.8c-2.4,1.2-4.8,2.1-7.4,2.8
		c-1.2,0.3-2.5,0.9-3.4-0.5c-0.8-1.3,0-2.4,0.8-3.4c0.4-0.4,0.8-0.8,1.1-1.4c-0.7-0.5-1.2,0.1-1.8,0.1c-1.5,0.2-3.1,0.5-3.9-1.2
		c-0.8-1.6,0.4-2.5,1.5-3.4c1.7-1.4,1.8-2.9,0.2-4.3c-1.2-1-1.5-2.5-2.3-4.1c-4.4,0.6-8.6,0.2-12.9,2.8c-7.3,4.4-14.5,9.1-21,14.6
		c-2.7,2.3-5.5,4.4-8.6,6.2c-2.9,1.7-5.3,4.1-7,7c-1.8,3-5.1,4.9-6.7,8.6c3.9,0,7.5,1.2,11.2,0.2c0.9-0.2,2.1,0.1,2.4,1
		c0.9,2.9,3.6,2.9,5.7,3.5c3.4,1,6.4,2.5,9.3,4.5c2.2,1.6,4.5,2.6,7.2,3.1c4.1,0.7,7.2,3.1,10.1,5.9c0.7,0.7,1.4,1.5,1.9,2.4
		c4.7,7.3,11.5,13.2,14.5,21.7c2.6,7.4,3.7,14.9,3.6,21.6c0.1-1.6-0.2-4.3-0.3-7c-0.2-2.5-0.7-4.9-1.2-7.3c-0.3-1.4-0.7-3,1.3-3.4
		c1.8-0.4,2.4,1.1,2.5,2.5c0.3,3.3,1.4,6.4,1.6,9.7c0.4,5.3-0.5,10.5-1.3,15.7c-0.4,2.4-1.6,4.4-3.7,5.8c-3.3-0.7-2.4-3.7-3-5.7
		c-0.5-1.8,0.4-3.8,0.3-5.7c-0.5-6.1-1.6-12.2-3.1-18.1c-0.6-2.5-1.7-5-2.1-7.6c-0.3-1.9-1.4-3.4-3-4.3c-1.2-0.3-1.6,0.6-2.3,1.2
		c-0.3,0.2-0.6,0.3-0.9,0.4c-2.2-0.4-2.2-2.2-2-3.7c0.4-2.7-0.1-4.8-2-6.9c-1.2-1.3-1.7-3.4-2.5-5.2c-1.7-3.5-6.3-6.2-10-6
		c-0.9,1.8,0.3,3.3,0.7,4.9c0.6,2.7,1.6,5.3,0.4,8c-0.6,1.4-1.4,2.4-3,2.3c-1.7-0.1-2.2-1.4-2.3-2.9c-0.3-4.6-1.9-8.9-3.1-13.3
		c-1.5-5.8-7-8.5-12.8-6.6c-1.1,0.4-2.2,0.3-3.3-0.1c-7.3-2.6-14.6-5.2-22.2-6.8c-3.3-0.7-6.6-0.8-9.8-1.3c-2.4-0.3-3.9,0.8-4.1,3.4
		c-0.3,4.6-2.2,8.8-4.1,12.9c-1.6,3.3-1.3,6.9-1.7,10.4c-0.3,2.2-0.5,4.3-1,6.4c-0.4,2-1.7,3.7-3.9,3.7c-2.4,0-3.7-1.7-3.9-4
		c-0.3-4.1-0.1-8.2-0.7-12.3c-0.4-2.3-0.2-4.7-1.6-6.9c-1-1.5-0.4-3.3,0.5-4.9c1.6-3,3.7-5.5,6.2-7.7c2.2-2,3.1-4.2,3.1-7.2
		c-0.1-7.2,0.1-14.4-0.7-21.5c-0.3-2.6-1.2-5.1,0.1-7.7c-1.8,2.2-3.8,4.2-5.5,6.4c-1.3,1.8-3.5,1.8-5.3,0.8c-1.8-1-0.9-2.8-0.3-4.3
		c1.4-3.1,3.2-6.1,5.2-8.8c1.4-2,1.4-1.9,0.6-4.3c-7.7-2.6-15.5-2.5-23.3-1.7c-3.4,0.3-6.1,2.7-8.3,5.1c-4.7,5.5-8.2,11.4-7.5,19.2
		c0.4,4.1-1.7,7.4-5.2,9.8c-6,4.1-11.9,8.5-17.6,13.1c-4.4,3.6-7.2,8.7-9.8,13.8c-3.5,6.8-2.5,13.6-0.6,20.3c1.4,5,5.9,9.5,12.4,8.4
		c4.5-0.8,8-2.8,10.7-6.4c0.3-0.1,0.7-0.2,1-0.2c2.5-0.5,5-1.1,7.7-0.1c1.7,0.7,3.4-0.2,4.5-1.7c0.7-0.9,1.3-1.9,1.9-2.8
		c0.8-1.1,1.7-2.2,2.8-3c1-0.7,10.5-0.6,11.5,0.1c2.1,1.4,1.5,3.3,0.9,5.1c0-0.6,0.5-1.3,0.5-2.1c0-1.6,0.7-2.9,2.3-3.4
		c1.8-0.6,3.2,0.4,4.1,1.7c2.6,3.6,2.7,5.7,0.4,8.9c-3.2,4.5-6.1,9.5-3.2,15.7c1.4,3,0.6,6.6-0.4,9.8c-1.7,5.5-1.2,11-1,16.6
		c0.2,3.9-0.2,8.1-4.6,9.9c-5,11.4-4.5,22.9-2.3,34.7c1.5,8.3,2.6,16.7,4,25c0.3,1.6,0.7,3.1,1.5,4.5c1.5,2.7,1.8,5.6,0.9,8.3
		c-2.4,7.9-3.3,15.8-2.5,24c0.4,3.5,0,7.1-2.1,10.3c3.6,5.8,8.6,9.7,14.6,12.5c0.7,0.3,1.6,0.4,2.2,0.9c3.3,3,6.3,2,9.8,0
		c4-2.3,8-4.2,10.8-8.1c2.4-3.4,6.5-4.9,9.9-7.3c2.3-1.7,4-3.5,5-6.3c1.5-4.2,2.7-8.5,4.8-12.4c0.9-1.8,0.6-3.3-0.7-4.7
		c-1.5-1.7-2.8-3.5-3.7-5.6c0.1,1.8-0.4,3.4-0.7,5.1c-0.2,1.1-0.9,1.9-2.1,1.9c-1.2,0-2-0.7-2.1-1.9c-0.2-3.1-1.1-6.1-0.5-9.2
		c2.3-11.6,5-23.2,8.2-34.6c1.7-6,0.4-10.5-1.5-15.7c-2.7-7.1-5.2-14.4-7.5-21.6c-3.2-9.8-6.4-19.6-8.6-29.7
		c-2.8-13.1-5.4-26.4-7-39.7c-0.2-2-0.3-3.9,2.1-4.3c2.2-0.3,2.4,1.7,2.8,3.2c0.9,3.4,1.7,6.9,2.8,10.2c0.8,2.2,2.2,3.3,4.6,3.3
		c2.4-0.1,4.8-0.1,7.2,0.1c1.4,0.2,2.5,0.8,2.6,2.3c0.1,1.7-1.3,2-2.6,2.2c-1.9,0.2-3.9,0-5.8,0.2c-1.9,0.2-2.8,1.1-2.6,3.2
		c0.5,5.7,1.7,11.3,2.9,16.8c1.2,5.8,4.2,8,10.2,8.1c4,0,8-0.1,12,0.7c1.7,0.3,3,0.9,3.8,2.4c0,1.4-0.8,1.9-1.9,2.1
		c-0.9,0.2-1.8,0.2-2.7,0.2c-5.5,0.1-10,1.7-12.7,7.1c-0.8,1.6-1.8,3.6-4.3,2.5c-1.6-3.3,1.4-5.5,1.7-8.2c-1.3-2-4.1-1.7-5.4-3.9
		c1.8,3.1,2.2,6.4,3.1,9.6c2.5,7.9,4.7,15.9,8.6,23.2c2.3,4.4,3.7,9.4,7.7,12.8c0.4,0.4,0.5,1,0.5,1.6c-0.4,8.6,0.3,17.4-3.5,25.6
		c-1,2.3-1.1,2.5-3.7,2.1c-0.1-2.1,1-3.9,1.1-6.1c-1.5,5.8-0.8,11.9-3,17.4c-0.7,1.7,0,3.4,0.7,4.9c2,4,4.8,7.3,8.9,9.1
		c2.7,1.2,5.3,2.7,7.4,4.9c1.8,1.8,3.4,1.6,4.9-0.3c1.7-2.1,3.6-4.4,3.5-7.3c-0.2-8.7,4.4-15.6,8.7-22.6c2.1-3.3,4.2-6.5,5.5-10.2
		c2.9-8.5,7.5-16.1,11.5-24.1c4.1-8.3,8.5-16.4,13.7-24.1c0.6-0.8,1.2-1.8,1.2-2.8c0.4-5.5,4.6-8.5,7.9-12.1
		c0.2-0.2,0.5-0.5,0.7-0.7c1.1-0.6,2.3-0.9,3.2-1.9c0.9-1.1,2.4-1.8,3.5-0.4c1.1,1.4,0.1,2.5-1.1,3.5c-2.6,2.1-5.2,4.1-7.2,6.8
		c-0.7,1-1.5,2-1.8,3.3c-0.4,1.8-1.7,3.7,0.7,5.2c1.9,1.2,5.3,0.9,7.1-0.6c0.6-0.5,0.9-1.3,1.6-1.8c1.2-0.8,2.3-0.9,3.5-0.1
		c1.1,0.8,1.9,1.9,1.4,3.2c-0.7,1.7-1.1,3.5-1.6,5.2c-0.5,1.5-2.1,2.5-3.2,1.3c-3.1-3.4-7.3-0.6-10.7-2.6c2.4,3.9,2.9,8.7,7,11
		c3.5,1.9,7.3,2.2,11.3,1c9.3-2.9,16.5-8.4,22.6-15.9c3.8-4.6,7.9-8.9,12.8-12.3c1.9-1.3,2.9-3.1,3.3-5.3c0.7-3.3,1-6.6,0.5-9.9
		c-0.8-4.8,0-9.3,1.6-13.7c0.4-1.1,1.2-2.3,0.4-3.7c-1.6-0.9-2.6,0.3-3.5,1.3c-4,4.3-9,6.9-14.5,8.6c-3.5,1-6.7,2.8-9.4,5.5
		c-2.3,2.3-5.5,3.2-8.3,4.7c-1.8,1-3.7,1.8-5.4,2.9c-1.5,0.9-3.4,1.9-4.5-0.2c-1.1-2,0.6-2.9,2.2-3.8c3.6-2.1,7.3-3.8,10.8-6
		c5.1-3.2,6.8-7.3,5.2-13c-0.7-2.4-0.4-4.7,0.6-6.9c1.9-0.9,2.9,0,3.3,1.7c0.3,1,0.4,2,0.8,3c2.5,5.7,6.2,6.9,11.5,3.5
		c2.4-1.6,4.5-3.5,6.7-5.7c-2.7,0.1-5.2-0.4-7.8-0.2c-1.6,0.1-3-0.4-3.2-2.3c-0.2-1.7,0.9-2.5,2.4-2.9c4.6-1.2,9.4-1.8,14.1-2.7
		c4.2-0.8,8.3-1.7,11.5-4.8c1.3-1.3,2.9-1.5,4.3-0.1c1.2,1.3,1.2,2.6,0.1,4.3c-2.3,3.7-5.5,5.7-9.6,6.3c0.1,0,0,0.1,0.1,0.2
		c0.6,1.3,0.5,2.6-0.1,3.7c-5.4,11.4-3.3,23.1-0.9,34.7c0.6,2.6,2.7,4.7,4,7c2.5,4.6,3.4,9.4,4,14.4c0.5,4.5,1.5,9,2.1,13.5
		c0.3,1.9,1.1,3.5,2.5,4.7c5.8,4.9,15.5,7.1,22.5,0.8c3-2.7,5-6,6.8-9.4c2.9-5.6,1.8-11.1-2.7-15.5c-1.8-1.8-2.8-3.9-2.3-6.5
		c2.4-11.6,1.5-22.9-2-34.1c-0.3-1.1-0.8-2.3-0.5-3.4c1.3-5.2,0.1-10.5,1.3-15.7c1.3-5.6,0.6-11.1-2-16.3c-0.5-1-0.6-1.9-0.7-3
		c-0.6-5.2-2.5-9.9-5.2-14.3c-1.4-2.3-3.3-4-6-4.8c-2.5-0.8-4.8-2.1-7.1-3.4c-1.6-0.9-2.8-2.2-1.3-4.2c4.2,0.8,8,2.5,11.8,4.1
		c3.5,1.5,6,4.3,7.5,7.7c3.8,8.3,6.7,16.9,8,26c0.8,5.5,0.1,10.6-1.5,15.8c-0.6,1.9-0.1,4-1.6,5.7c-0.5,0.5-0.4,2,0.3,2.9
		c3.6,4.2,4.1,9.5,4.5,14.7c0.3,3.9,0,7.8,0,11.6c0,2.4-0.2,4.8-1.4,7c-1,1.8-0.6,3.7-0.9,6c2.3-0.9,3.4,0.2,4.3,1.8
		c2.8,5.2,5.4,10.7,3,16.6c-1.8,4.4-4.6,8.3-8.3,11.5c-2.7,2.3-5.2,4.8-8.3,6.6c-3.4,2-6.4,3.2-10.2,1.4c-1.1-0.5-2.3-1-3.5-1.5
		c-7.6-2.8-13.2-11.5-12.3-20c0.2-2,0.2-3.8-1.1-5.5c-0.4-0.5-0.6-1.3-0.7-1.9c-0.2-8.2-5.7-14.2-8.4-21.9
		c-6.5,6.8-13.6,12.4-19.1,18.7c-1.3,14.4-4.5,28-5.9,41.8c-1.7-13.3,2.3-26.2,4-39.2c-0.2-0.1-0.4-0.2-0.6-0.3
		C954,483.4,950.7,486.4,947.6,489.3L947.6,489.3z"/>
	<path d="M455.1,464c-1,1.3-1.2,2.8-1.3,4.4c-0.2,5.3-0.6,10.6-1,15.9c-1.4,0.6-2.4,1-3.7,1.5c0.5-28.7,5.5-56.9,6.9-85.8
		c-3.8,0.7-7,0.9-10.4,2c-1-2.7-5.8,0-6.2-4.2c-3.1,1.4-5.1,3.5-7.9,4.1c-0.7,12-1.5,23.8-3.1,35.6c-0.9,7-0.3,14.1-1.4,21.1
		c-0.8,5.1-1.4,10.2-2,15.3c-0.2,2-0.3,4.1,0,6.1c0.7,5.6-0.3,11.2-1,16.7c0,0.3-0.3,0.6-0.9,0.6c-0.6-2-0.9-4-0.6-6.2
		c0.3-3.1,0.8-6-0.7-9.2c-1-2.1,0-5.1,0.4-7.7c0.9-6.6,0.8-13.5,2.4-19.9c1.8-7,2.1-13.9,1.5-21c-0.1-1.5,1.3-2.2,1.5-3.7
		c0.7-8.6,1.5-17.3,2.3-25.9c0-0.3-0.1-0.7-0.2-1.1c-1.6-0.1-2,1.1-2.6,2.2c-3.7,7.5-7.7,14.6-13.4,20.8c-2.9,3.1-5.8,6.6-7.4,10.9
		c-0.7,1.8-2.8,3.2-4.5,4.6c-1.3,1.1-2.2,2.3-2.5,3.9c-0.6,3.2-1.9,6.1-3.3,9c-1.1,2.3-2.7,4.5-2.4,7.3c0.1,0.9-0.5,1.8-1.1,2.5
		c-3.1,3.7-7,6.5-11.1,9c-0.8,0.5-1.9,0.7-2.7,1.4c-2.7,2.5-6,2.3-9.5,2.1c-2,2.2-3.7,4.5-5.2,7.3c4,1.9,8.2,2.9,12.3,3.8
		c1.5-0.3,1.5-0.3,1.9,0.5c0.8,0.9,1.9,1.1,3,1.5c7.6,2.6,15.3,5.3,23,7.9c2,0.7,3.8,1.3,5.5,3.4c-10.7-3.6-21-6.8-31-10.8
		c-1.7-0.7-3.1,0.5-4.9-0.3c-2.7-1.4-5.8-2-8.4-3.7c-2.3-1.4-2.9-1-4.3,1.9c2.9,1.4,5.5,3.6,8.8,2.7c1.4,0.7,0.6,1.6,0.9,2.4
		c11.5,6.2,24.5,8.2,36.7,13.2c3.5-2,6.6-4.8,10.6-6.6c0.2,3.9-6.5,7.4-12,9.4c1.9,0.8,3.5,0.7,5,0.7c5.6-0.1,11.2,0.1,16.7,1.4
		c1.5,0.4,2.9,0.6,2.9,2.6c-1.3,1.2-2.8,0-4.1,0.6c1,1.2,3,1.1,3.7,2.8c1.2-0.5,0.7-2.6,2.5-2.5c2.6,1.7,1.9,8.6-1.4,12.8
		c-1.2-1.5-1.2-1.5-1.3-7.6c-9.7-4.8-20.8-6.2-31.1-11.3c2.5-0.9,4.7,1.4,6.4-0.7c-0.3-1-1.2-1-1.9-1.2c-5.9-1.8-11.8-3.5-17.7-5.2
		c-3.8-1.1-7.5-2.8-11.1-4.6c-3.5-1.7-7.1-3.2-10.6-4.7c-0.4-0.1-0.8-0.2-1.2-0.3c0.4,0.1,0.9,0.2,1.3,0.2c-0.1,0.5-0.2,1.1-0.4,1.6
		c-2,0.4-3.3-1.1-5.2-1.4c-2.7,2.5-3.4,6.2-5,9.6c1.8,2.1,2,4.6,1.7,7.3c2-2.5,2.9-5.2,1.5-8.3c-0.7-1.5-1.4-3.1,0.4-4.6
		c3.8,4,4.6,8.1,2.5,12.5c-1.4,3-2.8,6-3.8,9.1c-0.1,0.2,0.1,0.4,0.1,0.7c1.3-0.4,0.8-2.5,2.5-2.5c1.2,0.6,0.6,1.6,0.4,2.4
		c-2.4,9.5,0,18.3,3.8,26.9c0.9,2.2,2,4.4,2.1,6.8c0,1.5,0.8,2.6,1.7,3.7c1,1.2,2.2,2.4,3.2,3.6c2.9,3.4,3.3,8,0.9,11.7
		c-0.9,1.5-0.8,3.4-2.4,4.7c-1.2-0.2-2.5-0.4-4,0.1c-2.4,0.9-4.7-0.3-7-1c-1.6-0.4-3.1-1-4.1,0.4c-4.2-1.3-7.7-3.8-12.2-4.3
		c-3.6-0.4-6.6-2.9-9.6-5.1c-3.2-2.4-6.4-4.8-9.3-7.5c-1.1-1-1.9,0.1-3.2-0.9c-2.4-3.9-4.9-8.4-9.4-11.2c-2.9-1.8-5.6-3.9-8.5-5.8
		c-4-2.5-7.4-5.7-10.3-9.5c-1.5-2-2.9-4-4.6-6c-2.4-2.7-3-6.1-2.7-10c3.2-3.6,6.4-7.6,12-8.8c2.1-4.2,5.8-7,9.2-10.3
		c3.6-3.6,6.6-7.8,9.6-12c1.4-2,3.6-2.7,5.4-4.1c1-0.8,1.5,0.6,2.5,0.7c2.4-3.8,6.1-6.7,7.4-11.6c-3-1.4-5.8-3.1-8.9-4.2
		c-5.3-1.9-10.7-3.3-16-5c-5.6-1.8-11.5-1.9-17.1-3.4c-3.1-0.8-6.2-1.5-9.1-3.9c2.5-0.4,4.4,0.3,6.2,0.8c11,2.9,22.1,5.8,33.1,8.6
		c3.5,0.9,6.9,2.3,10.3,3.4c10,3.2,20.4,4.9,30.5,7.7c1.1,0.3,2.6,0.1,3.2,1.9c-5.2,1-9.8-1.3-14.4-2.4c-4.7-1.1-9.5-0.8-14.2-2.5
		c-2.2,5.7-5,10.7-11,13c0.9,1.2,2,0.9,3,1.1c2.9,0.6,5.9,1,7.7,3.9c0.2,0.3,0.5,0.6,0.8,0.7c6.5,2.8,11.3,8,16.9,12.2
		c0.1,0,0.2,0,0.7-0.1c3.1-9.4,7.7-18,15.1-24.8c-0.1-1.4-1.8-1-1.5-2.9c-0.1,0.2,0.2-0.3,0.7-0.1c1.8,0.4,3.6,0.6,5.4,0.4
		c2.6-0.2,5.3-0.3,6.9-3.1c0.2-0.4,1.5-2.3,2.9-0.5c0.4,0.5,1.2-0.3,1.8-0.7c2.6-1.9,5.1-3.9,7.7-5.8c2.6-1.9,2.8-5.1,3.8-7.8
		c1.1-2.8,1.9-5.6,3-8.3c0.6-1.5,1.1-3-0.1-4.4c3-3.4,1.7-7.3,1.4-10.9c-0.3-5.1-2.5-9.6-6.3-13.2c-2.9-2.7-8.3-3.5-11.7-1.5
		c-3,1.7-6.6,2.4-9,5.8c-0.3-1.7,0.6-2.4,1.3-3c3.9-3.1,7.7-6.5,13.6-5.4c-0.7-1.6-3-1.2-3-3.3c1.8-1.7,3.4,0.1,4.6,1
		c6.4,4.6,12.6,9.3,13.1,18.1c0.1,2.3-0.9,4.5-0.7,7.1c1.9-1.3,3.1-3,4.2-4.7c2.8-4.3,5.7-8.5,9.4-12.2c4.3-4.3,6.6-9.8,9.2-15.2
		c1.7-3.4,3.3-6.9,4.1-10.8c0.6-3.1,0.8-6,0.7-9.1c0-3.3,1-5.1,3.7-6.5c2.6,3.2-0.8,5.3-1.5,7.8c3,3.9-0.9,7.8-0.2,11.8
		c2.1,0.7,3.8,0,5.4-1.2c2.8-2.2,5.5-4.2,6.6-7.9c1.4-4.3,4-8,8-10.4c1.5-0.9,1.8-3.6,4.3-2.9c0.7-2.4,1.4-4.7,2.2-7.2
		c-3.6-1-6.2-3.3-9.2-5.5c-1.8,2.9-1.8,6.2-3.9,8.5c1.8,5.3-0.4,11.1-5.3,13.7c-1.9,1-2.3,1-3.9-0.8c0-1.2,1-1.7,1.8-2.4
		c3.3-2.5,4.9-5.9,5.3-10c0.6-4.9,1.3-7.3,3.6-11.4c-2.5-3.2-4.7-6.6-6.7-10.2c-1.2-2.2-3.3-3.2-5.7-3.3c-5.9-0.3-11.8-0.4-17.7,0.2
		c-2.8,0.3-5.8-0.8-8.9-0.1c-1.7,4.5-2.1,9.3-3,14.4c1.8-0.2,3.2-1.5,5.5-0.6c-4.8,2.4-7.4,6.6-10.8,10.1c-2.4,2.5-4.2,5.6-6.7,8.1
		c-3.5,3.5-7.1,6.8-11.2,9.5c-4.3,2.9-7.5,6.9-10.9,10.8c-1.2,1.4-2.6,2.4-4.2,3.9c4.7,1.1,9.1,2.1,13.2,4.4c-1.1,1.1-2,0.7-2.9,0.4
		c-9.8-3.5-20.1-4.2-30.2-5.7c-1.5-0.2-3-0.3-4.4-0.9c-5.7-2.4-11.9-2.9-17.8-4.6c-5.3-1.6-10.8-1.7-16.2-2.1
		c-6.8-0.5-13-3.5-19.6-4.7c-9.4-1.8-18.7-4.2-28.2-5.5c-0.4-0.1-0.9-0.1-1-0.7c0.1-0.6,0.8-0.4,1.2-1.1c-3.2,0.2-5.9-1.4-9-1.1
		l0.1,0c-3.4-0.5-6.7-0.9-10.1-1.4c-3.5-0.5-7-1-10.4-2.1c-6.8-2.2-11.9,1.3-16,5.9c-3.6,4-7.3,8.2-9,13.6
		c-1.2,3.8-2.3,7.6-3.1,11.8c1.5-0.2,2.3,0.3,2.4,1.7c0.2,1.9,0.6,3.8,0.9,5.7c0.8,6.3,4.5,10.7,9.9,13.5c5.4,2.7,11,5,17.1,5.8
		c1.1,0.1,1.9,0.8,2.8,1.2c7.6,4,15.3,7.7,23.5,10.3c4.7,1.5,9.7,0.9,14.3,2.6c1,0.4,2.2,0.4,3.1,1.4c-7.1,2.2-13.4-2.2-20.3-2.4
		c-1.8,1-2.8,3-4.2,4.6c-1.4,1.7-4.1,0.3-4.9,2.6c-0.8-0.3-1.3-0.6-1.4-1.5c1.2-1.4,2.3-3.1,3.8-4.3c0.9-0.1,1.1,0.6,1.6,0.9
		c1.1-0.7,2.2-1.5,3.4-2.9c-5.2-1.2-9.6-3.7-14.2-5.8l0.1,0.1c-4.2-2.5-8.4-4.6-13.4-4.9c-2.3-0.1-4.5-1.3-7.1-2.1
		c0.6,2.8,1.1,5.1,1.6,7.4c1.2,0.7,0.7-1.3,2.3-0.8c0,3.1,1.2,6.3,0.9,10.6c-5.8-5.1-4.6-12.2-7.3-18c-2.8-1.2-6.2-2.1-9.2-4.3
		c1.3-1.5,0.5-3-0.6-4.2c-2.1-2.5-3.6-5.2-4.5-8.3c-0.5-1.8-2.9-3-1.5-5.5c-4.9-1.1-9.3-2.2-14-3.2c-0.7-1.3-1.7-2.6-3.1-3.6
		c-2.1-1.6-3.1-4-2-6.4c1.9-4.1,4.2-8.1,8.3-10.5c2.5-1.5,3.4-1.4,6.4-0.2c-1-8-2-15.8-3-23.6c3.3,7.4,3.3,15.5,5.2,23
		c1.9,1.3,4,1.7,5.6,3c2.7-2.5,4-6,6.5-8.5c2.5-2.5,5.4-4.6,8.8-6.2c3.4-14.6,10.5-27.6,17.1-41c1.1-2.3,1.3-5.4,5.4-6.5
		c-3.6,8.1-7.2,15.6-10.3,23.3c-3.2,7.8-7.7,15-11,23.5c5-2.2,9.1,0.7,13.4,0.8c1.8-2.2,2-5.2,4.6-7.1c0.1,2.9-2.1,4.7-2.5,7.3
		c3,1.1,6.1,1.4,9.1,0.5c3.8-3.9,4.2-9.6,7.5-13.8c1.4-1.7,1.9-4.1,2.9-6.1c1.8-3.7,2.9-7.6,5.6-10.9c2.1-2.6,2.2-6.2,3.8-9.2
		c-2.3-0.7-4.7-0.9-6.9-2.8c4-0.6,7.1,1.3,11.3,1.5c-2.7-4.5-2.6-8.6,0.3-12.5c2.7-3.5,5.7-6.6,10.3-8c-3.9-0.9-7.7-1.9-11.6-2.6
		c-5.3-1-10.4-2.7-15.2-5.1c-0.8-0.4-1.4-1-2-1.7c0.2-0.3-0.8,0.1-0.3,0.2c-0.1,0.3,0,0.7-0.6,0.7c-2-2.3-1-5.4-1.9-8
		c-7.7-0.6-15.1-2.9-22.6-4.8c-0.5-0.1-0.4-0.2-0.5-1.7c7,1.3,14.1,2.6,21.3,3.9c3.1-9.3,2.4-19.3,6.5-27.3c0.3-1.9-1.2-1.9-1.2-3.1
		c1.8-0.6,2.6,0.6,3.7,1.9c-2.6,7.6-4.5,15.5-4.1,23.3c4,2.3,7.7,0.8,11.8,1.3c0.3,1,1.8,1.7,3.4,2.4c5.3,2.5,11.1,3.4,16.5,5.8
		c9.7,4.5,19.9,8.1,29.2,13.5c1.1,0.6,2,1.4,2.8,2.4c3.5,4.2,6.7,8.6,9.6,13.3c1.4,2.4,1.5,4.8,1.8,7.4c-1.6,0-1.8-1.2-2.1-2
		c-2.4-6.8-6.7-12.5-11.3-17.8c-2.4-2.8-6.2-3.8-9.4-5.5c-3.6-1.9-7.5-3.3-11.3-4.7c-3.6-1.3-7.1-2.9-10.6-4.5
		c-5.2-2.5-10.8-4.4-16.1-6.7c-0.9-0.4-1.7-0.5-2.6,0.1c-3.1-3.8-7.2-2.9-11.3-2.6c-1.3,3.7-0.7,7.3-0.8,11
		c5.3,2.1,10.3,4.2,15.4,6.2c1.8,0.7,3.5-0.7,5.5-0.2c5.1,1.2,10,3.2,14.9,5c6.6,2.5,13.5,4,19.7,7.6c1.6,0.9,3,1.8,4.3,3.2
		c3.8,4.4,7.2,9.1,8.9,15.2c7.5-2.9,15.5-3.4,21.6-8.9c-1.1-1.7-1.4-3.6-2.1-5.4c-1-2.5-0.7-5.5-3.6-7.5c-1.5-1-1.7-3.9-2.5-5.9
		c-1.1-3-2.2-6-3.3-9c-2.7-7.5-8.2-13-13.6-18.6c-1.2-1.2-2.7-2.2-4.2-2.9c-8.2-3.8-16.7-6.7-25.2-9.6c-6.8-2.3-13.7-4.3-20.8-5.7
		c-0.3-0.1-0.6-0.3-1-0.6c1.9-0.8,1.8-0.7,8.2,0.6c2.8,0.6,5.5,1.3,8.6,2.2c-5.8-8.6-14.5-11.1-23.5-13.3c1.7-1.4,3.6-1.4,5.2-0.7
		c4.4,2.1,9.4,2.6,13.7,5.2c4,2.5,6.9,5.6,8.7,10.2c6.4,1.3,12.4,4.4,18.8,6.4c9.2,2.9,15.6,9.2,21.5,16.2c5.9,6.9,9.5,15,12,23.6
		c1.1,3.7,2.1,7.5,3.2,11.2c0.3,1,0.4,2.1,1.3,2.6c1.3,0.2,1.6-1.1,2.2-1.5c1.2-0.1,1.4,0.6,1.9,1.2c1-0.7,1.9-1.4,3-2.1
		c-2.9-2.3-2-5.8-2.5-8.7c-1-6.4-1.5-12.9-1.4-19.5c0.1-6.6-2-13.1-2.4-19.7c-0.7-11.2-2-22.3-2.7-33.5c-0.7-10-2.1-20-2.7-30
		c-0.6-10.1-1.2-20.3-1.8-30.4c-0.8-13.5-1.8-26.9-2.6-40.3c-0.3-5.4-0.3-10.7-0.4-16.1c0-0.5-0.1-1.1,0.6-1.4c1.4,0.6,0.9,2,0.9,3
		c0.5,24.3,3.1,48.5,4.3,72.8c0.3,7,0.8,13.9,1.2,20.8c0.2,4.7,1,9.3,1.4,14c1.1,12.1,2,24.1,2.9,36.2c0.5,6.4,1.2,12.7,2.9,18.9
		c0.5,1.6,0.5,3.1,0.5,4.7c0,6.4,0.2,12.7,1.5,19.1c1-2.9,2.8-5.3,3.8-8.3c1.7-5.3,3.7-10.9,7.7-15.1c5.1-5.4,9.7-11.2,14.1-17.1
		c1.8-2.3,2.8-5.2,3.4-8c1.1-5.7,3.9-10.7,5.8-16c0.2-0.5,0.5-1,0.6-1.6c3.1-13,12.7-21.6,21.2-30.9c0.9-1,2-2.4,3.4-1.2
		c2.2-2.1,4.3-4,6.4-5.9c4.8-4.7,10.2-7.9,17.2-8.2c5.6-0.2,11.1-1.4,16.6-2.4c2.4-0.4,4.6-1.5,7.1-2.4c-0.4-1.3-1.9-1.4-1.9-3
		c5.4-1.6,8.5-6.5,12.3-10.4c6.3-6.5,14.1-10.8,20.9-16.4c1.8-1.4,4-2.4,5.6-4c2.7-2.6,6.2-3.3,9.7-3.4c6.8-0.2,13.6-0.8,20.4-1.6
		c3.8-0.4,7.7,0.2,11.4-0.7c1.6-1.4,0.8-3.4,1.6-5.1c4.5-8.7,11.5-14.3,20.6-17.4c2.8-1,5.5-2.1,8-3.8c1.7-0.2,2.7,1.1,4,1.7
		c4.5-2.3,5.3-2,6.8,2.5c3.1,1.3,3.1,1.3,2.7,4.1c7.4,3.4,9.7,9.4,8.6,17.2c-0.4,2.5,0.1,5,0.5,7.5c0.9,4.7-1.5,7.8-4.4,10.9
		c-1.1,1.1-2.4,0.4-3.5,0.6c-1-0.9-2.4-1.3-3.3-2.3c0.9,1,2.2,1.5,3.4,2.2c-0.2,1.4,1,2,1.9,2.6c2.2,1.5,3.8,3.5,5.8,5.2
		c1,0.9,1.5,2,0.5,3.2c-0.1,0.1-0.3,0.2-0.4,0.3c-10.7,1.6-19.9,6.3-27.2,14.3c-3.6,4-7.6,8-9.3,13.4c-1.7,5.2-3.9,10.2-2.3,15.9
		c0.3,1.2-0.1,2.9-1.8,3.2c-1.8,0.3-2.6-1.1-3-2.6c-2.6-9.1-0.8-17.4,4.8-24.9c2.6-3.5,5.5-6.7,8.4-9.9c5.6-6.1,12.8-9.5,19.7-11.8
		c-11,0.8-22.7,0.4-34.3-0.2c-0.3,0-0.7-0.1-1-0.1c-4.1-1.5-8.5-2.1-12.6-3.8c-4.1-1.8-8.2-3.5-12.4-5.3c-3.6-1.5-4.5-4.9-5.5-8.2
		c-0.3-0.9,0-1.8-0.9-3c-4.2,0.8-8.4,0.6-13,3.1c-9.6,5.1-17.1,12.9-26.1,18.7c-4.6,3-7.6,8-11.3,13c4.3-0.8,7.8,0.7,11.5-0.3
		c1,2.5,3.1,3.2,5.3,3.9c3.1,1,6.2,1.9,8.8,4.4c1.9,1.8,4.8,1.9,7.3,2.7c5.2,1.7,8.8,5.1,11.4,9.7c1.3,2.2,2.8,4.1,4.5,6
		c5,5.1,7.3,11.5,8.3,18.4c0.1,0.9,0.2,1.8,0.5,2.4c-0.7-1.5-0.5-3.3-1-5.1c-0.3-1.2,0.1-2,1.3-2.3c1.1-0.2,1.8,0.4,2,1.4
		c0.6,2.8,1.1,5.6,1.4,8.5c0.4,4.1-0.4,8.4,0.6,12.3c2.1,1,3.3,0,4.6-1c1.4-1.1,2.9-2.4,5-1.7c0.3,0.2,0.5,0.4,0.7,0.7
		c0.7,1.8-0.6,2.7-1.8,3.6c-3.1,2.3-4.7,5.1-3.4,9.1c0.7,2.1-0.4,4-0.7,6c0.3,1,1.7,1.2,1.8,2.8c-0.7,3.1-4.8,2.5-6.3,4.6
		c-1,1.6,0.7,3.2-0.4,4.5c-0.1,0.1-0.3,0.2-0.4,0.3c-2.5,0.7-2.5-1.8-3.6-2.9c-0.9,0.7,0.3,1.4-0.1,2.3c-2.8,1.4-3.1,4.9-5,7.2
		c0,1.3,0.8,1.9,1.8,2.7c1.9-2.7,3.3-5.8,5.2-8.6c0.4,4.6-4.5,7.4-4,12c-3.4-0.2-2.8,4.2-5.8,5.2c1.3-2.4,2.5-4.6,3.6-6.7
		c-0.1-1-0.6-1.7-1.8-2.2c-1.8,3.9-5.2,7.4-2,12.2c-1.3,0.2-1.5-1-2.5-1.1c-1.1,1.4-1.9,2.9-2.2,4.7l0.1-0.1
		c-1.7,1.6-2.1,3.9-3.3,5.7c0.4,1.1,0.8,2,1.3,3.3c-3.6,5.8-6.2,12.5-11.1,17.8c-0.5-2.6,1.6-4.1,2.4-6.2c0.5-1.2,1.5-2.2,2-3.3
		c0,0.1,0,0-0.1,0.1c-1.5,2.4-3,4.8-4.2,7.3c-0.3,0.7-1,1.3-0.2,2.1c-2.9,4.9-5,10.1-7.1,15.4c-1.3,3.5-4,6-6.7,8.9
		c1.8,2.7-1.7,3.8-2,6c-1.4,0.9-3,1.2-4.4,1.8c-2.4,0.9-4.2,2.2-4.4,5.1c-0.1,1.2-0.6,2.3-2,2.3c-1.2,0-1.7-0.9-1.9-2
		c-0.1-1.3-1.2-2.2-1.2-3.5c-1.3-0.2-2.7-0.3-3.2-0.6c2.2,0.9,2.6,1.6,1.5,4.1c-0.9,2-1.2,4.1-1.4,6.3c-0.1,1.3-0.4,2.7-2,2.7
		c-1.7,0-2.2-1.3-2.5-2.8c-0.2-1.4,0.4-3-1.4-4.3c-1.9,2.6-1.7,5.5-1.9,8.6c4.7,0.1,9-0.1,13.1-1.3c1.7-0.5,2.9-1.8,3.9-3.2
		c2.4-3.5,5.2-6.7,6.1-11c0.2-1,0.8-1.6,1.6-2.1c1.3,0.2,1.6,2.1,3.9,1.2c-1.7,2.3-2.8,4-4,5.5c-1.9,2.4-3.2,5-4,7.8
		c-1.3,4.4-5.6,4.9-8.9,6.7c-1.2,0.6-2.6,0.9-4.2,1.4c-0.4,6-0.9,11.9-1.3,17.9c-0.2,2.8,0,5.7-0.4,8.5c-0.5,3.8-0.9,7.5-1.8,11.3
		c-1.3,5.1-1,10.6-1,15.9c0,2.8,0.3,5.7,0.4,8.5C453.9,462.9,453.6,464.1,455.1,464L455.1,464z"/>
	<path d="M587.5,192.6c2.9,1,5.8,1.9,8.7,2.9c6.6,2.3,9.2,7.6,11.2,13.3c2.1,6.2,4.3,12.5,4.7,19.2c0.2,2.8,0.1,5.5-0.6,8
		c-0.8,2.8-0.7,5.8-2.3,8.4c-0.5,0.8-0.4,2,0.3,2.9c3,3.6,3.5,8.1,3.8,12.5c0.3,3.7,0,7.5,0.1,11.3c0.1,3.1-1.9,5.6-1.8,8.6
		c0,0.5,0,0.9-0.1,1.4c0.9,0.6,2.1,0.4,3,1.4c4.4,4.9,4.7,13.4,1.2,19.1c-3.4,5.4-8,9.5-13.2,12.8c-2.7,1.7-5.7,2.4-8.7,0.6
		c-0.8-0.5-1.6-0.8-2.5-1.1c-6.6-2.2-11.7-10-10.9-17.5c0.2-1.7,0.2-3.4-0.9-4.9c-0.4-0.5-0.6-1.3-0.6-1.9
		c-0.1-7.1-5.1-12.3-7.3-18.9c-5.7,5.9-11.9,10.9-16.9,16.7c0.1,6-1.5,11.5-2.2,17.1c-0.9,7.5-1.9,14.9-2.7,22.4
		c-2.1,20.3-3.4,40.7-9,60.5c-2,7.3-2.8,15-5.3,22.3c-3.7,10.8-8.4,21.2-13.4,31.5c-4.6,9.6-12.2,16.6-18.4,24.9
		c-7.4,9.9-17,17.5-26.3,25.3c-5.9,4.9-11.6,10.1-16.5,15.9c-5.7,6.6-13,11-19.2,16.8c-2.2,2-4.6,3.8-6.3,6.2
		c-1.3,1.8-3.2,2.8-4.7,4.5c-2.6,0.3-5.3-0.3-7.8-1.2c-5.9-2.2-12.2-2.9-18.2-4.9c-2.8-0.9-5-3-7.6-4.3c-1.5-0.7-2.1-3.2-2.2-5.1
		c-0.2-2.7-0.1-5.5-0.1-8.2c0-1.6,0.8-2.6,2.8-2.8c2.8,3.8-0.2,8.1,0.8,12.9c9.8,4.5,20.1,9.2,31.6,11.4c1.6-0.9,3-2.3,3.7-4.6
		c0.5-1.6,1.5-3,3.7-2.9c1.4,0,2.4-1.3,3.2-2.3c2.2-2.8,4.7-5.3,7.4-7.5c10.3-8.6,19.6-18.2,29.2-27.5c1-0.9,1.7-2.6,3.6-1.8
		c0.5,0.2,0.9-0.5,1.3-0.9c6.5-6.7,14.1-12.3,19.6-20c1.6-2.3,3.8-4.2,5.7-6.3c7.1-8.2,12.6-17.3,16.9-27.2
		c5.3-12.1,10.5-24.2,13-37.3c2.5-13.4,5.7-26.8,6.9-40.4c0.9-11,3-21.9,4-32.9c0.9-10,2.7-19.9,4.5-29.8c0.1-0.6,0.2-1.1,0.4-2.4
		c-3.3,2.9-6.1,5.4-8.9,7.8c0.2,3.1,0.4,6.1-1.1,9.2c0.1-2.8,0.6-5.4,0.3-8.4c-5.3,3.4-10.5,7-17.2,4.2c-0.5-0.6,0.1-1.2,0.3-1.8
		c0.1-0.2,0.2-0.3,0.3-0.5c4.1-1,8.3-1.3,12.1-3.4c1.3-0.7,2.7-1.3,3.8-2.3c7.9-6.9,16-13.5,22.7-21.7c3.2-3.9,3.8-8.1,4-12.7
		c0.1-3.5-0.5-7.1,0.6-10.5c0.3-0.9,0.5-1.8,0.9-2.6c0.7-1.3,1.6-2.4,3.2-2c1.8,0.5,1.4,2,1,3.4c-1.9,7.1-0.6,14,0.7,21
		c0.5,2.4,0.5,4.8,2.9,6.3c0.2,0.3,0.4,0.6,0.5,0.9c4.1,8.4,4.7,17.5,6.1,26.5c0.3,1.9,1,3.6,2.5,4.7c5.6,4.1,12.3,6,18.5,1
		c5-4,8-8.8,7.8-15.4c-0.1-2.8-1.3-4.8-3.4-6.4c-2.3-1.8-2.9-4-2.2-6.7c2.2-9.4,1.3-18.6-1.4-27.7c-0.9-3-0.6-6-0.7-9
		c-0.1-6.5,3-12.8,0.7-19.2c-2-5.8-2.7-12-5.7-17.5c-1.6-2.9-3.6-5.2-6.8-6.4c-2.1-0.8-4.2-1.9-6.1-3.1
		C587,195.3,586.2,194.2,587.5,192.6L587.5,192.6z"/>
	<path d="M238.5,443.5c0.9,1.5,0.3,2.8-0.4,4.2c-1.4,3.2-4.3,5.3-6.4,8.2c3.9,3.2,9.3,3.3,12.8,6.9c3.4,3.5,6.7,7.1,9.4,11.7
		c1.8-4.3,3.4-8.3,5-12.3c0.1-0.1,0.2-0.2,0.3-0.3c2-3,3.4-6.4,6.5-8.6c1.4,0.6,1.2,1.4,0.5,2.3c-3.4,4.3-5,9.4-7.3,14.3
		c4.9,0.7,7.5,4,5.3,8.1c-2,3.8-2.9,7.6-3.8,11.7c3.9,2.7,3.8,3-2,8.4c-0.2,3.1-0.5,6.3-1.2,9.4c-0.5,2.3,0.5,4.3,1.4,6.2
		c1,2.3,2.5,4.4,2.5,7c0,0.5,0.3,1.2,0.7,1.5c2.8,2,2.3,4.6,1.4,7.4c-0.4,1.3-0.6,2.7-1,4c-0.8,3.3-3.6,5-7,4.2
		c-4.2-1-7.9-2.7-11.2-5.5c-3.7-3.1-8.3-4.8-12.1-7.7c-0.5-0.4-1.3-0.5-2.1-0.8c-0.6,3.6-0.3,6.8,1.5,10.2
		c-6.3,3.6-12.2,7.1-17.4,11.6c-1-0.2-1.4-0.9-1.7-2c5.6-3.6,10.7-8.2,16.9-11.2c-0.9-2.3-1.2-4.3-1.2-6.4c0-2.3-0.6-4.5-2.9-5.9
		c-1.6-0.9-2.5-2.6-3.7-3.8c-6.5-6.5-15.1-9.7-21.9-15.5c-3.5-3-7.3-6.3-7.5-11.6c0-0.6-1-1-0.7-2c0.6-1.4,2.4-1.6,3.6-2.7
		c3.9-3.6,6.9-7.8,9.6-12.3c4.7-7.9,11.2-14,19.3-18.5c1.6-0.9,2.6-0.2,3.1,1.4c-0.6,2.2-1.9,3.8-3.8,4.9
		c-4.6,2.6-7.8,6.6-11.3,10.4c-2.8,3-5.9,5.7-8.1,9.2c-1.3,2.1-2.7,4-0.9,6.5c0.3,0.4,0,1.1-0.1,1.6c6,0.7,10.1,4.4,13.9,8.5
		c2.6,2.8,5.5,5,8.7,7.1c8.9,5.7,17.8,11.4,25.7,18.6c3.1,2.8,4.2,6.7,6.3,10.1c0.5,0.9,0.2,1.8-0.4,2.6c-0.6,0.7-1.3,0.8-2.1,0.3
		c-1.3-0.8-2.7-1.6-3.4-2.8c-4.1-7.5-11-11.9-18.2-15.4c-7.3-3.5-13.2-8.5-18.9-13.9c-4.8-4.6-9.8-8.9-15.9-10.3
		c-0.9-0.6-0.9,0.1-0.7-0.3c2.3,1.3,3.9,3.4,6.2,4.6c0.9,1.1,1.7,2.3,3,2.9c1.7,1.8,3.6,3.4,5.7,4.7c3.1,2,6.1,4.3,8.7,7.1
		c2.6,2.9,5.8,5,9.3,6.8c6.2,3.2,12.3,6.3,17.9,10.6c2,1.6,2.9,4.2,5.3,5.5c1.1,0.6,2.1,1.6,3.2,0.1c1.3-6.4,2.4-12.8-2.5-18.4
		c-0.8-1-0.6-2.4-0.6-3.7c-0.1-4.3,0-8.7,0-13c0-3.4,0.6-6.9-1.6-9.9c-0.6-0.9,0.1-2-0.1-3.1c-4.7-2.5-8.3-6.6-12.8-9.4
		c-1.6-1-2.5-2.5-2.1-4.7c0.3-2-0.4-4.1-0.5-6.1c-0.1-1.7-1.3-2.6-2.8-3.2c-2.2-1-4.3-2.1-6.2-3.7c-1.3-1.1-2.1-2.4-0.9-4.1
		c1.2-1.2,2.5-0.6,3.8,0.1c1.2-3.6,2.7-6.7,4.2-9.7C235.7,443.9,236.6,442.7,238.5,443.5L238.5,443.5z"/>
	<path d="M199.9,119.1c0.9,1.3,0.2,2.3,0,3.4c-3.4,15.1-8,30-10.8,45.3c-0.4,2.4-0.9,4.7-1.2,7.1c-0.5,4.4-2.2,8.6-3.3,12.8
		c-3.4,13.7-8.1,27.1-11.3,40.9c-1.9,8.2-5.4,16.1-6.3,24.5c-0.9,8.5-3.4,16.5-6.1,24.5c-1.7,5-1.2,10.2-1.3,15.3
		c-0.3,12.7,0.3,25.3,1.4,38c1.1,12.5,3,24.9,6.8,36.9c1.6,5.3,1.2,10.9,2.1,16.3c0.9,5.2,1.3,10.4,2.8,15.5
		c1.5,4.8,1.4,9.9,1.9,14.9c0.7,7.7,1.9,15.4,3,23.1c0.1,0.8,0.2,1.6,0.5,2.3c2.6,5.3,2.1,11.1,3.2,16.7c0.3,1.3,0.2,2.7,0.1,4.1
		c-0.8,11.4,0.6,22.6,3,33.7c0.9,4.3,3.3,8.3,3.5,12.8c0.4,6.3,1.7,12.7,0.7,19c-0.2,1.2,1,2.4,0,3.7c-1.2-2.2-1.5-4.9-3.7-6.1
		c-0.4-1.8,1.4-3.2,0.3-4.9c-4.3,1.7-7.9,4.5-11.5,7.4c3-4.7,6.3-9.1,11.7-11.1c0.3-5.2-0.8-10-1.6-14.8
		c-2.5-13.8-4.3-27.7-5.2-41.8c-0.3-5.5-1.5-11-2.9-16.4c-2-7.2-2.2-14.7-3.5-22c-2-10.9-3.8-21.8-5.4-32.7
		c-1.2-8.2-1-16.7-3.1-24.8c-3.8-15-4.7-30.4-6.6-45.7c-0.8-6.1-1.7-12.2-0.6-18.3c0.3-1.8,0.7-3.9-0.8-5.5
		c-0.4-0.5-0.2-1.1-0.1-1.6c1.1-4.9,1.1-10,1.9-14.9c0.6-4.1,2-8.2,3.6-12.1c1.4-3.4,2.3-6.9,2.9-10.5c1.5-10.2,3.8-20.2,7.2-29.9
		c4.3-12.5,6.4-25.7,11.6-38c1.8-4.2,2-8.6,2.6-12.9c0.3-2,0.6-4.1,1.1-6c2.3-8,5-15.9,6.8-24c1.5-6.8,3.7-13.4,4.7-20.3
		C198.3,121.5,198.1,119.9,199.9,119.1z"/>
	<path d="M659.4,531.3c0,1.7,0.4,3,0.8,4.3c2.1,1.3,4.6,1.2,6.9,1.6c6,1,12,1.4,18,2.7c1.3,0.3,2.7,0.6,3.9,1.3
		c1.1,0.6,1.9,1.3,1.5,2.6c-10-3.2-20.6-2.3-30.3-5.5c-1.7,1.8-0.5,5.2-3.7,5.8c3.7,5.8,4.3,12.4,7.1,18c-7.3,8.6-14.2,17-21.9,24.5
		c-0.4,0.9,0.5,1.2,0.5,1.7c-1,8.5,2,16.4,3.4,24.5c2.3,13.1,5.9,26,8.1,39.2c0.8,4.5,1.3,9.1,1.2,13.6c-0.1,2,0.8,3.9,0.4,6
		c-1.9-0.4-2.2-1.8-2.3-3.1c-2.9-23.1-9.6-45.6-12.2-68.7c-0.4-3.7-1.8-7.2-0.8-11.3c-10.1,8.3-19.2,17.1-29.6,24.8
		c-1.2-1.5,0.1-2.5,1.2-3.3c4.1-2.9,7.8-6.3,11.6-9.6c3.5-3,6.8-6.1,10-9.4c4.3-4.4,8.6-8.8,13.3-12.8c5.4-4.6,9.5-10.5,14.4-16
		c-2.3-5.8-4.3-11.7-7.1-17.4c-4.2,1.1-8.1,3.7-13,2.2c-0.3-0.4-0.1-1.6-1.5-1.9c-9-1.8-17.8-5-27-6.2c-1.4-0.2-2.7-0.6-4.1-0.6
		c-3.8,0-7.2-0.8-9.9-4.4c10.4,1.8,20.7,2,31.2,5.2c-2-4.8-1.6-9.1-0.5-13.8c-2.9,1.6-4,4-5.4,6.3c-6-2.2-12.5-1.3-19.1-3.3
		c1.5-1,2.5-0.1,3.5-0.9c-0.7-1-2.3-0.5-2.9-1.8c1.1-2,2.7-1.1,4.1-0.6c4.5,1.8,9.1,2.8,13.8,3.7c0.6-1.4-1.9-2.8,0.2-4
		c1.2-0.4,0.7,1.4,1.7,1.3c1.2-0.8-0.4-1.9,0.4-2.9c1.9,0,3.1-2.1,5-2.4c1.5,0.7,0.4,1.7,0.5,2.3c5.1,2.3,10.9,2.2,16,4.7
		c2-2.3,4.7-2,6.9-1.1c6.9,2.9,14.3,3.7,21.5,5.8c2.1,0.6,4.3,1.2,6.1,2.7C673.7,535,666.8,532.9,659.4,531.3z"/>
	<path d="M257.5,255.3c-6.9,1.2-13.1,3.4-19.4,5.1c-2.7,0.7-5.3,1.6-7.9,2.9c-6.9,3.6-11.4,9.7-16.4,15.3c-2.3,2.6-5.1,4.9-6.5,8.2
		c-0.4,0.7,0.7,1,0.6,1.9c0,0.8-1.5,0.4-1.3,1.4c2.4,11,8.7,20.6,12.1,31.9c3,4.2,8.2,6.7,12,10.9c-2.7-0.7-5.4-1.5-7.6-3.2
		c-6.2-4.5-10.6-10.4-13-17.6c-1.5-4.4-2.8-8.9-3-13.7c-0.1-3.3-2.1-6.2-2.3-9.6c-0.9-0.8-2-1-3.5-1.3c-0.8,3.9-2.2,7.3-2,11.5
		c0.4,7.2,1.3,14.3,1.2,21.5c0,6.3,0.6,12.5,1.6,18.7c2.1,12.6,4.3,25.2,5.5,37.9c0.2,2.3,1.8,4.6-0.3,7c-1.6-1.7-1.3-3.9-1.8-5.8
		c-1.2-3.9-1.3-8-2.5-12c-1.2-3.8-0.9-8.3-1.4-12.5c-1.2-10.4-2.3-20.9-3.3-31.3c-0.2-1.8-0.3-3.7-0.1-5.5c0.8-4.6,0.6-9.3-0.4-13.6
		c-1.5-6.5,1.3-12,2.4-18c0.3-1.8,1.6-2.1,3.1-1.4c0.8,0.4,1.5,1,2.4,1.5c3.5-5.8,8.4-10.5,12.5-15.7c3.8-4.9,8.8-8.7,14.4-10.8
		c6.7-2.6,13.9-4.4,21.1-5.5C255.1,253.5,256.2,254.2,257.5,255.3z"/>
	<path d="M513.4,376.2c0.8-5.6,2.7-11.1,2.7-16.9c0-0.5,0.2-1.2,0.5-1.6c3.3-5.3,2.8-11.3,3.5-17.1c1-8.1,1.4-16.3,2-23.9
		c-10.2,8.3-15.6,20.4-21.9,32c2.7-5.8,3.7-12.3,7.7-17.6c5.2-6.9,9.8-14.3,14.4-21.6c1.1-1.8,1.4-3.8,1.6-5.9
		c0.1-0.7-0.3-1.7,1.1-2c1.4,1.8,0.6,4,0.5,5.8c-0.5,12.1-1.9,24.1-3.5,36.1c-1,7.8-2.5,15.5-4.6,23.1c-1.3,4.7-1.2,9.7-1.7,14.6
		c-0.3,2.3-0.6,4.5-1,6.8c-0.6,4.2-1.3,8.2-3.2,12.2c-1.7,3.7-2.6,7.7-4,11.5c-2.6,6.9-6.5,13.2-11.1,19.2
		c-7.7,10.1-17.8,17.6-27,26.1c-2.9,2.6-6.5,4.2-9.4,7.1c-1.6-1.9-3.2,0.3-4.9,0.1l0.1,0.1c0.6-1.3,1.9-1.5,3-2.1
		c1.5-0.8,3-1.6,3.1-3.4c1.3-0.6,2.1,0.8,3.1,0.3c2.8-4.2,7.3-6.6,10.8-10.2c0.7-0.7,2.1-1.1,1.4-3c1.8,1.1,2.7-0.2,3.7-1
		c3.4-2.6,6.3-5.6,9-8.9c4.2-5.2,9.1-9.7,12-16c5-10.7,9.2-21.6,11.5-33.1c0.7-3.6,1.3-7.1,2-10.6
		C514.1,375.7,513.7,376.2,513.4,376.2L513.4,376.2z"/>
	<path d="M705.5,667.8c-1.2-2.1-0.5-4.7-1.9-6.8c-0.5,3,1.1,5.9,0.2,9.2c-1.8-1.7-2.3-3.7-2.6-5.7c-1.6-11.2-3.1-22.4-4.8-33.5
		c-1.4-8.9-1.8-17.9-2.1-26.9c-0.1-2.2-0.4-4.3-0.5-6.5c-0.1-0.9-0.4-1.8-0.1-2.7c1-3.5,0.4-4.7-3.2-5.3c-4.6-0.7-9.1-2-13.6-3.4
		c-7.3-2.2-14.4-4.8-21.5-7.6c4.7,0.1,9.4,0,13.8,1.9c6.6,2.9,13.6,4.5,20.6,6.3c1.8,0.5,3.4,2.6,5.5,0.7c1.4,6.8,1.3,13.5,2.3,20
		c2.3,14.5,4.9,29,7.5,43.5C706.1,656.4,706.6,662,705.5,667.8z"/>
	<path d="M954.2,522.5c-0.7,5.9-1.5,11.7-2,17.6c-1.3,15.3-3,30.5-6.8,45.3c-2.8,11.2-4.1,22.7-8,33.6c-4.3,12-9.4,23.7-15.1,35.2
		c-3.8,7.7-9.1,14.1-14.4,20.5c-0.8,0.9-1.4,2.1-2.9,1.7c-0.5-1.1,0.2-1.7,0.7-2.2c12-13.7,19.3-29.9,26-46.6
		c4.4-10.9,7.3-22,9.4-33.4c1.3-7.3,3.6-14.4,4.6-21.8c1.2-8.8,2-17.7,3.2-26.5C949.8,537.9,950.2,529.8,954.2,522.5z"/>
	<path d="M654.4,581.1c2.2,1.8,2.3,4.2,2.3,6.5c-0.1,9.5,0.4,18.9,2.2,28.3c1.4,7.4,2.9,14.8,3.6,22.3c1,10,2.6,19.9,4.7,29.7
		c0.3,1.6,0.3,1.6-0.6,4c-1.4,0.1-2.3-0.7-2.2-1.9c0.2-3.7-1.3-6.9-2.4-10.2c-3.6-10.8-5.2-21.9-6-33.2c-0.9-12.6-1.5-25.3-2.1-38
		c-0.1-1.2-0.5-2.5-0.6-3.7C653.3,583.6,652.9,582.2,654.4,581.1z"/>
	<path d="M628.7,368.7c0.5-0.5,0.9-0.9,1.4-1.4c4-4.4,9.4-6.4,14.7-8.4c1.7-0.7,3.8,0.1,5.6-0.8c0.7-0.4,1.7-0.3,2.1-1
		c1.7-2.6,4.7-4.1,6.2-6.9c4.2-8.2,10.7-14,18.4-18.7c2.2-1.4,4.5-2.7,6.6-4.2c2.9-2,5.9-3.3,9.5-1.8c1.1,0.5,2.5-0.2,3.7-0.3
		c2.4-0.1,4.7,0.4,6.8,2.5c-5.6,2.1-11.4-0.4-15.8,2.6c-1.4,0-0.4-1.1-1.7-1.3c-2.5,1.6-5.3,3.5-8.1,5.4c-0.4,0.3-0.7,0.6-1.1,0.8
		c-7.3,3.8-12.3,10-16.9,16.6c-1.5,2.1-3.4,3.9-5,6c-2.2,3-5.5,4.4-9.3,4.3c-6.3-0.2-10.7,3.2-14.6,7.5c-2.9,3.1-6.4,5.4-9.1,8.9
		c-0.8-1.5,0.7-2,0.4-2.9c0.2-0.2,0.3-0.4,0.5-0.5C624.7,372.8,627,371.1,628.7,368.7z"/>
	<path d="M380.3,258.2c-3-35.8-6.6-71.5-7.7-107.4c0.3,0,0.6,0,0.8-0.1c0.8,8.3,1.5,16.7,2.4,25c1.2,10.9,2.3,21.8,3,32.7
		c0.3,5.1,0.5,10.3,0.7,15.4c0.3,7.9,0.8,15.7,1.6,23.5C381.5,251,381.3,254.6,380.3,258.2z"/>
	<path d="M364.5,280.9c0.8-6.5-0.6-12.4-1.3-18.2c-1.5-12.5-1.3-25-2.1-37.6c-1.2-18.3-2.7-36.7-3.3-55c-0.4-11.9-1.2-23.7-1.8-35.6
		c-0.1-1.2,0-2.4,0-4.2c2.2,15.6,2.8,30.8,3.2,46c0.3,10.2,1.9,20.2,3,30.3c0.5,4.2,0.6,8.4,0.6,12.7c0,11.8,0.4,23.5,1.3,35.3
		c0.6,7.4,1.4,14.7,2,22.1C366.2,277.9,366.6,279.4,364.5,280.9z"/>
	<path d="M208.3,252.1c0.2-1.2,0.2-2.5,0.6-3.7c3.5-11.6,5.7-23.5,9-35.1c3.8-13.3,7.1-26.7,10.5-40c0.2-0.6,0.2-1.4,1-1.9
		c0.6,1.3,0.2,2.6,0,3.9c-2.3,14.3-6.2,28.2-10,42.2c-2.9,10.5-4.8,21.4-9.4,31.4C209.5,250,209.3,251.2,208.3,252.1L208.3,252.1z"
		/>
	<path d="M209.5,545.8c-12.9-5-25.5-10-38.2-15c-0.1-2.8,1-4,3.6-3c4.2,1.6,8.6,2.8,12.6,5.1c5.2,3,11,4.8,16.9,6.4
		c2,0.6,3.9,1.4,5.2,3C210.7,543.7,210.8,545,209.5,545.8z"/>
	<path d="M819.2,611.3c-0.7,20.9-4.3,41.5-4.8,62.4c-1.1,0.7-1.9,0.8-3.4-0.2c1.3-20.7,5.3-41.3,6.5-62.3
		C818.1,611.2,818.7,611.3,819.2,611.3z"/>
	<path d="M230.1,166.9c1.2-7.6,1-15.4,3.5-22.8c2.2-6.4,3.4-13,4.9-19.5c0.5-2.5,1.3-4.8,2.3-7.1c0.6-1.6,0.7-1.6,3.4-2
		c-1,3.5-2,6.8-2.9,10.1c-0.8,3.3-1.5,6.7-2.1,10c-0.5,3.3-2.7,6.3-1.9,9.8C233.4,152,233.1,159.9,230.1,166.9z"/>
	<path d="M185.9,330.2c-1.7-4.3-1.4-8.9-2.2-13.4c-1-5.6-0.6-11.4-1.3-17c-0.1-1.1,0.3-2.2,0.5-3.4c2.7-14.2,6.3-28.3,9.9-42.3
		c0.4-1.7,0.7-3.6,2.1-5c0.8,0.7,0.2,1.4,0,2.1c-1.2,4.5-2.1,9.1-2.5,13.8c-0.4,5.4-2.3,10.5-4.1,15.5c-3.3,9.2-4.2,18.6-3.7,28.2
		C185,315.9,185.5,323.1,185.9,330.2L185.9,330.2z"/>
	<path d="M600.7,577.3c-1,1.4-0.2,2.6,0.2,3.9c2.2,7.1,4.6,14.1,6.8,21.2c0.8,2.5,3.6,3.5,3.9,6.1c-3.1,2.1-15.8-0.5-20.5-4.4
		c5.9,2.6,12.4,2.4,18.7,3.8c-6.4-4.4-6.3-11.7-8.5-17.9c-1.1-3.2-1.8-6.5-3.2-9.6c-1.4,0.1-1.8,1.6-3.3,1.6c0.1-1.3,1.7-1.4,2-2.8
		c-3.5-2.2-8-1.7-11.6-3.8c5.1-0.1,10.1,0.9,15,1.6C600.5,577.2,600.6,577.2,600.7,577.3z"/>
	<path d="M439.5,494.8c0.8,0.5,1.9,0.2,1.7,1.6c1.8-0.6,2.5-2.5,4.7-2.3c-3,2.9-6.1,5.2-9.5,7.7c-2.1-0.5-4.1-2.4-6.9-2.1
		c-1.2,0.1-2.2-1.3-1.6-2.4c0.8-1.5-0.3-1.9-0.8-2.7c0.4-1.1,1.1-1.8,2.2-2.3c3.1,0.8,2.8,3.4,3,5.8c1.7,1.9,3.4-1.6,5.1,0.2
		c0.9-1.7,0.5-3.2,0.5-4.6c0.1-5,0.1-10,0.6-15c0.3-2.6-0.3-5.4-0.4-8.1c-0.1-3.7,1-7.1,2.4-10.5
		C440.1,471.7,439.5,483.3,439.5,494.8z"/>
	<path d="M264.7,317.5c0.5,1,2.2,0.6,2.5,2.4c-10.1-1.4-19.7-4.9-29.4-6.7c-4.5,6.8-4.2,9.7,1.7,15.3c-1.5,0.8-2.7-1.6-3.6-0.7
		c-4.3-4.3-4.3-9.1-1.2-14.4c3.1-2,6.7-2.6,10.8-1c5.7,2.2,11.9,1.8,17.8,3c0.5,0.1,1.1,0.3,1.5,0.4
		C265.7,316.5,265.1,317,264.7,317.5z"/>
	<path d="M361.3,437.3c-1.5,3.6-2.9,7.3-3.3,11.6c-1.5-4.2-5.1-4.1-8.4-4.8c-8.2-1.6-16.4-2.9-24-6.5c-0.8-0.4-1.6-0.8-2.4-1.3
		c-0.2-0.1-0.3-0.5-0.8-1.4c11.4,3.8,22.8,5,34.1,8.8C357.5,441.8,358,438.5,361.3,437.3L361.3,437.3z"/>
	<path d="M505.4,448.7c1.1-2.8,2.6-4.5,4-6.2c6-7.1,10.8-14.9,14.2-23.7c2.6-6.9,5.7-13.5,7-20.8c0.3-1.4,0.9-2.7,2.1-4.1
		C531.5,406.6,522.4,433.5,505.4,448.7z"/>
	<path d="M600.4,577.1c4.2-5.7,9.2-10.7,14.5-15.4c4.8-4.3,9.2-8.9,14-13.1c1.3-1.2,1-3.3,3-4.1c1.3,2.3-0.4,3.7-1.5,5
		c-3.5,3.8-7,7.6-10.8,11c-5.6,5-11.1,10.2-16.6,15.3c-0.7,0.6-1.5,1.1-2.2,1.6C600.6,577.2,600.5,577.2,600.4,577.1z"/>
	<path d="M601.4,538.3c-2.8,8.6-7.8,15.5-15.1,20.7c3-4.1,5.7-8.3,9.1-12c-3.8,3-7,6.6-10.2,10.2C588.8,549.3,595.4,544,601.4,538.3
		z"/>
	<path d="M213.8,541.2c-2-1.1-1.4-3.4-3.4-4c2-2.8,1.3-5.3,0.8-7.9c-0.8-4.9-2.3-9.8-2.4-14.8c0-2.3-1.5-4.2-2.1-7.2
		c2.9,1.9,3.9,4.2,4.4,6.7c0.5,2.5,0.9,4.9,1.1,7.4c0.4,5.3,1.7,10.6,1,16C213.1,538.6,213.6,539.7,213.8,541.2z"/>
	<path d="M921,639.5c-2.1,5.5-5.1,10.7-9.1,14.7c-6.3,6.1-11.4,13.2-17.6,19.4c-1.3,1.2-2.4,2.7-5.1,3
		C900.1,664,912.5,653.5,921,639.5z"/>
	<path d="M421.3,486.3c-11.9-4-24.1-6-34.9-12.2c3,0.1,5.9,1.2,8.6,2.3c5.7,2.1,11.5,3.7,17.3,5.2c2.1,0.6,4.1,1.5,6.1,2.2
		C419.6,484.2,420.6,484.8,421.3,486.3z"/>
	<path d="M228,121.1c-3.5,11.4-6.3,23.1-11,34.1C219.3,143.4,221.9,131.7,228,121.1z"/>
	<path d="M657,375.4c-5.4,15-17.5,24-29.6,33.3c-0.3-1.5,0.6-1.8,1.2-2.2c5.3-4.5,10.5-9.1,15.9-13.5c1.7-1.4,2.7-3.1,3.9-4.7
		C651.2,384,654.1,379.7,657,375.4z"/>
	<path d="M934.6,598.6c0.1,9.1-7.2,29.9-11.7,37.1C927.4,623.5,930.8,610.9,934.6,598.6z"/>
	<path d="M831.8,643.9c1.3,1.9,1.8,4,1.2,6.1c-1.8,7.1-1.2,14.5-2.4,21.7c-0.2,1.1,0.2,2.6-1.8,3.6
		C828.5,664.5,831.3,654.3,831.8,643.9z"/>
	<path d="M471.6,479.2c-10,9.3-19.3,19.4-30.8,26.9C451.2,497.3,460.5,487.2,471.6,479.2z"/>
	<path d="M666.1,562.8c11.3,1.4,22.7,2.8,33.5,6.6C688.5,567.1,677,566.5,666.1,562.8z"/>
	<path d="M661.1,370.7c4.6-9.1,12.4-13.7,20-18.6c2.1-1.4,3.6-3.4,6.1-4.3c-1.2,2-2.9,3.5-4.7,4.8c-4.1,2.9-7.8,6.2-12.2,8.7
		c-1.9,1-3.1,2.6-4.1,4.5C665.1,367.8,663.4,369.2,661.1,370.7z"/>
	<path d="M378.3,488c-0.6-0.2-1.3-0.4-1.9-0.5c-0.1-0.3-0.3-0.6-0.5-1.2c12,3.2,23.9,6.1,35.3,10.9c-1.2,0.4-2.3-0.1-3.4-0.4
		c-8.4-2.6-16.7-5.1-25.1-7.7C381.3,488.5,379.9,487.9,378.3,488z"/>
	<path d="M310.8,429.6c-7.6,1.2-14-3.2-21-2.9C292.4,424.3,307.2,426.1,310.8,429.6z"/>
	<path d="M429.6,360.7c1.6,5.7-2.6,10.4-0.9,15.7C424.5,372.1,424.9,366,429.6,360.7z"/>
	<path d="M381.4,423.6c1.2,6.7,3.6,12.3,3.8,18.7C381.7,440.2,379.4,428.9,381.4,423.6z"/>
	<path d="M341.9,154.8c-1.5-8.4-2.3-16.7-1.4-25.2c1.4,2.6,0.9,5.4,1,8.2c0.1,2.9,0.5,5.7,0.6,8.5
		C342.1,149.1,343.2,152,341.9,154.8z"/>
	<path d="M906.1,498.5c1.5-2.4,2.2-4.8,3.2-7.1c0.9-2.2,1.3-4.5,2.7-6.7c1.2,1.6,1.2,1.6-4.1,12.7c2.9,3.3,5.8,6.6,8.8,9.8
		c-0.2,0.2-0.4,0.4-0.5,0.6C912,505.5,910.1,501,906.1,498.5z"/>
	<path d="M209.4,251.1c5.9,3.1,11.1,5.9,16.8,8.1c-1.2,1.7-2.5,1-3.8,0.7C216.7,258.2,210.9,254.5,209.4,251.1z"/>
	<path d="M605,611c-6.5,0.4-12.6-0.8-18.3-3.9C592.8,608.5,599.1,608.8,605,611z"/>
	<path d="M416.5,523.4c-0.2,1.4-1.1,2.6-2.6,2.4c-1.6-0.3-4-0.1-4.1-2.6c-0.1-1.9,1.5-2.7,3.2-2.8
		C414.6,520.2,416.5,521.9,416.5,523.4z"/>
	<path d="M945.5,519.7c-0.3,9.5-1.5,19-3.1,28.4c-1.1-1.2-0.7-2.5-0.5-3.8c1.5-7.7,2.3-15.5,3-23.4
		C945,520.6,945.3,520.2,945.5,519.7L945.5,519.7z"/>
	<path d="M205.3,259.3c1.9-0.5,2.7,0.2,2.3,1.4c-1.6,5.7-3.5,11.4-5.4,17.7c-1-1.8-0.1-2.8,0.1-3.8c0.9-3.6,1.9-7.2,3-10.8
		C205.7,262.4,206.1,260.9,205.3,259.3z"/>
	<path d="M947.5,489.4c1.1,2.2,0.8,4.5,0.5,6.7c-0.5,3.6-0.5,7.3-1.9,11.4c-1.3-1.9-0.6-3.4-0.3-4.7
		C946.7,498.4,946.5,493.8,947.5,489.4L947.5,489.4z"/>
	<path d="M358,455.8c0.7,4.9,3.5,8.8,6.1,12.9C359.7,467.8,356.3,460.8,358,455.8z"/>
	<path d="M408.5,377.6c0.4-1.2,1.5-1.8,2.6-2.1c2.2-0.7,4.2-1.7,6-3.1c0.5-0.4,1-0.4,1.5,0c-0.8,3.1-3.7,4.8-9.8,5.5
		C408.7,377.8,408.6,377.7,408.5,377.6z"/>
	<path d="M237,410.8c5.1,1.2,9.5,3.7,13.8,6.4C245.9,415.7,241.3,413.5,237,410.8z"/>
	<path d="M201.9,221.6c-0.5,4.6-1.8,9-3.7,13.1C198.6,230.2,199.8,225.8,201.9,221.6z"/>
	<path d="M210.7,175c1.2-5.3,2.4-10.5,4.9-15.3C214.5,165,213.1,170.2,210.7,175z"/>
	<path d="M353,488.1c0,2.5-1.5,4.4-2.5,6.8C348.3,491.7,349.3,489.3,353,488.1L353,488.1z"/>
	<path d="M419,405.4c0.1,4.1-2,6.9-4.9,9.4C415.8,411.7,417,408.4,419,405.4z"/>
	<path d="M276.3,423.2c-3.6,1.2-7.3,0.6-9.7-1.7C269.9,422,273.1,422.6,276.3,423.2z"/>
	<path d="M410.7,351.7c0.2,2.5-0.3,4.8-2.5,6.6C407.6,355.7,408.6,353.5,410.7,351.7z"/>
	<path d="M370.6,138c-1.2-4.1-1.5-8.2-0.9-12.3C370.5,129.7,371.1,133.8,370.6,138z"/>
	<path d="M386.6,454.4c-1.3,3.9-5,5.8-6,9.4C380.4,461,383.6,456,386.6,454.4z"/>
	<path d="M426.5,504.9c0.3-1.6,1.4-2.1,2.8-1.8c0.9,0.1,1.4,0.7,1.5,1.6c0.1,0.9-0.4,1.6-1.2,1.8C428.1,507,427.1,506.2,426.5,504.9
		z"/>
	<path d="M697,337.8c1.6-2.7,3.2-5.4,5.8-7.3C701.8,333.6,699.8,336,697,337.8z"/>
	<path d="M481.9,373.6c1-3.8,3.4-6.8,5.7-9.8C486.3,367.4,484.4,370.7,481.9,373.6L481.9,373.6z"/>
	<path d="M526.5,299.5c-3.9,1.3-4.5,0.9-6.2-4.1l-0.1,0.1C523.3,294.4,526.1,296.3,526.5,299.5L526.5,299.5z"/>
	<path d="M253.6,461.5c2.9,3.4,3,4.8,0.4,7.2C253.9,466.2,253.7,464,253.6,461.5z"/>
	<path d="M433.4,351.4c0.1,2.5-0.9,4-2.6,5C428.5,354.6,428.7,354.1,433.4,351.4z"/>
	<path d="M536.2,366.3c-0.5-2.8-0.2-5.5,1.4-8.1C537.9,361.4,537.5,364.4,536.2,366.3z"/>
	<path d="M683.8,536c3.3-1.5,4.8-1.2,6.9,1.2C688.4,537.3,686.4,536.8,683.8,536z"/>
	<path d="M506.6,327.6c-1.6-0.7-2.6-1.7-1.8-3.6c0.7-1.6-1.6-2.4-1-3.9l-0.1,0.1c0.3-0.2,0.5-0.4,1-0.8
		C506,322.1,506.1,324.9,506.6,327.6L506.6,327.6z"/>
	<path d="M397,386.2c2.4-1.8,4.2-4.5,7.3-5.4C402,382.7,400.7,386.1,397,386.2z"/>
	<path d="M242.9,361c0.2-3.3-0.1-6,2.5-8.3C244.7,355.5,245,358.2,242.9,361z"/>
	<path d="M373,444.3c2.1-1.3,4.1-1.7,6.5,0.2C377,445.2,375,444.1,373,444.3z"/>
	<path d="M353.1,488.1c-0.5-2,0.3-3.7,1.2-5.3c0.9-0.3,1.9-0.6,2.8-0.9l-0.1-0.1C355.8,483.9,354.7,486.2,353.1,488.1L353.1,488.1z"
		/>
	<path d="M637.6,573.4c0.8,2.1,0.4,4-0.9,5.7C635.8,577.1,637.2,575.3,637.6,573.4z"/>
	<path d="M905.5,516.6c-1.1-1.6-2.1-3.1-3.3-4.9C905,512.2,905.7,513.3,905.5,516.6z"/>
	<path d="M443.3,428.9c-1-2.8,1.8-4.9,1.2-7.7C444.7,423.9,445,426.6,443.3,428.9z"/>
	<path d="M481.4,472.3c1.4-1.6,2.7-3.4,4.9-4.1C485.1,470.1,483.5,471.5,481.4,472.3z"/>
	<path d="M342.2,473.7c-0.4,1.5-1.7,1.7-2.4,2.6c-1.5-0.7-1.4-1.6-0.6-2.5C340.1,472.9,341.1,472.4,342.2,473.7z"/>
	<path d="M259,462.1c-2.9-1.2-0.8-3.6-1.8-6c2.9,1.7,1.7,3.9,2.1,5.7C259.2,462,259.1,462.1,259,462.1z"/>
	<path d="M369.1,472.6c-2,0.3-3.5-0.2-4.2-2.7C367,470.2,368,471.5,369.1,472.6z"/>
	<path d="M414.1,363.3c2-0.6,3.7-0.3,4.6,1.6C416.8,365.1,415.6,363.7,414.1,363.3z"/>
	<path d="M255.8,258.5c-2.4,0.8-4.1,0-6.3-0.1C252.4,257.3,252.4,257.3,255.8,258.5z"/>
	<path d="M259.1,324.5c1.7-0.1,3.4-0.8,5,0.7C261.9,325.7,261.9,325.7,259.1,324.5z"/>
	<path d="M249.2,382.3c0.6,1.2,2.4,0.4,3.1,1.8c-1.3,0.4-2.3-0.4-3.6-0.4C248.9,383.1,249.1,382.7,249.2,382.3L249.2,382.3z"/>
	<path d="M204.9,464c-0.2,1,0.8,1.8,0.3,3.3C204.6,466,202.6,465.3,204.9,464L204.9,464z"/>
	<path d="M361.3,437.4c-0.2-1.2-0.3-2.4,0.7-4C363.3,435.4,362.6,436.4,361.3,437.4L361.3,437.4z"/>
	<path d="M250.2,343.2c-0.1,2-0.6,2.9-2,3.7C248.2,345.3,248.7,344.3,250.2,343.2z"/>
	<path d="M243,321.8c-1,0.7-1.9,0.8-3.2,0.2C240.9,320.9,241.8,320.5,243,321.8z"/>
	<path d="M631.5,412.7c-1.2,1.1-2.1,1.7-3.4,1.1C628.8,412.4,629.7,411.9,631.5,412.7z"/>
	<path d="M336,479.2c0-1.9,1-2.4,2.9-1.9C338.2,478.7,337.2,479.1,336,479.2L336,479.2z"/>
	<path d="M246,322.4c1-0.6,1.8-0.4,2.6,0c0,0.2,0.1,0.5,0,0.6C247.6,323.8,246.8,323.2,246,322.4z"/>
	<path d="M407.3,421c-0.3,1.1-0.4,2.4-1.6,3.7c-0.3-1.9,0.2-3,1.3-3.9C407.1,420.8,407.2,420.9,407.3,421z"/>
	<path d="M208.2,252c0.3,1.2,0.2,2.4-0.8,3.4C207.7,254.3,208,253.2,208.2,252L208.2,252z"/>
	<path d="M513.3,376.1c0.2,1.3,0.2,2.6-1,3.6C512.7,378.6,513,377.4,513.3,376.1L513.3,376.1z"/>
	<path d="M379.1,409c1.2,0.2,2,0.5,2.2,1.6C379.9,410.8,379.6,410,379.1,409z"/>
	<path d="M253.8,337.7c-0.1-1.4,0.4-2,1.1-3.1C255.6,336.2,255.2,337,253.8,337.7z"/>
	<path d="M332.4,480.8c0.2,1.4-0.4,1.9-1.7,2C330.9,481.8,331.2,481.1,332.4,480.8z"/>
	<path d="M408.8,377.9c-0.3,0.7-0.4,1.6-1.6,1.7c-0.5-1.3,0-1.9,1.3-2C408.6,377.7,408.7,377.8,408.8,377.9z"/>
	<path d="M407,420.7c0.4-1,0.9-1.8,2.1-2.6c-0.2,1.5-0.9,2.3-1.8,2.9C407.2,420.9,407.1,420.8,407,420.7z"/>
	<path d="M335.9,479.1c-0.4,0.7-0.6,2.2-1.9,0.8C334.4,478.7,335.4,479.4,335.9,479.1L335.9,479.1z"/>
	<path d="M185.9,330.2c0.3,0.9,0.5,1.9,0.1,2.9C185.9,332.2,185.9,331.2,185.9,330.2L185.9,330.2z"/>
	<path d="M624.3,410.6c-0.1,1-0.4,1.5-1.5,1C622.8,410.5,623.3,410.3,624.3,410.6z"/>
	<path d="M357.1,481.8c0.5-0.8,0.8-1.8,2.2-1.8C359,481.4,358.3,482,357.1,481.8L357.1,481.8z"/>
	<path d="M916.3,487.2c-1.3-0.4-1.5-1.1-0.9-2.3C916.2,485.4,916.6,486,916.3,487.2z"/>
	<path d="M205,464.1c-0.1-0.5,0-0.8,0.4-1.1c0.9,0.3,1.2,0.8,0.9,1.7C205.6,464.9,205.4,464.3,205,464.1L205,464.1z"/>
	<path d="M945.5,519.8c0-0.5,0-1,0-1.5c0.1,0,0.1,0,0.2,0C945.6,518.7,945.6,519.2,945.5,519.8L945.5,519.8z"/>
	<path d="M678.7,473.3c0.1,0.1,0.3,0.3,0.4,0.4c-0.1,0.1-0.3,0.2-0.4,0.3c0,0-0.2-0.2-0.2-0.2C678.5,473.6,678.6,473.5,678.7,473.3z
		"/>
	<path d="M492.5,361c-0.4-0.7,0-0.9,0.5-1.2C493.2,360.4,492.8,360.7,492.5,361z"/>
	<path d="M260.3,508.2c-0.2,0.6-0.5,1-1.2,0.8C259,507.9,259.4,507.7,260.3,508.2z"/>
	<path d="M481.9,373.6c0,0.7-0.1,1.2-1,1.3C481,374.2,481.2,373.7,481.9,373.6L481.9,373.6z"/>
	<path d="M506.6,327.6c0.7,0.1,0.8,0.6,1,1.1C506.5,328.9,506.7,328.2,506.6,327.6L506.6,327.6z"/>
	<path d="M904.6,501.8c0.1-0.7,0.3-1.1,0.8-1.2C905.8,501.2,905.6,501.6,904.6,501.8z"/>
	<path d="M206.8,201c0,0.4,0,0.7,0,1.1C206.2,201.7,206.5,201.4,206.8,201z"/>
	<path fill="#FFFFFF" d="M923.4,457.9c-1.7,2.8-4.7,4.2-7.1,7.1c1.3,5.1-2.3,8.8-4.9,12.9c-2,3.2-4.3,6.2-5.8,9.7
		c-3.3,7.5-7.5,14.6-11.4,21.9c-1.1,2.1-2.2,4.3-2.8,6.6c-2.2,7.6-6.4,14-10.9,20.4c-2.8,4-4.9,8.6-4.8,13.7c0.1,4.4-1.3,8-4.1,11.3
		c-1.3,1.5-2.5,2.9-3.9,4.6c-3-4.1-7-6.8-11.5-8.9c-5.6-2.6-8.5-7.7-10.7-13.4c2.9-7.5,4.2-15.5,6.2-23.6c0.5,3.7-0.9,6.9-0.9,10.3
		c2.8-8.4,7.3-16.5,3.6-25.5c0.3-1.3,1.7-1.3,1.7-2.4c-0.5-1.5-1.5-0.2-2.3-0.5c-4.7-9.8-10.3-19.1-13-29.7
		c-1.6-6.2-4.5-12-4.8-18.6c0-0.8-0.2-1.6,0-2.6c1.3,6.4,7.1,5,11.2,6.9c-2.5,2.7-4.9,5.3-6,8.7c1.3,0.8,1.3-0.3,1.7-0.7
		c0.5-0.5,0.8-1.1,1.1-1.7c2.6-5.2,6.8-7.8,12.6-7.6c1.5,0.1,2.9-0.1,4.8-0.2c-0.8-1.3-1.9-1.2-3-1.4c-4.4-0.7-8.9-0.3-13.3-0.6
		c-6-0.3-9.3-3.3-10.3-9.3c-0.6-3.7-1.7-7.4-2.1-11.1c-0.3-3.7-1.4-7.2-1.9-10.9c2.5,0,4.8,0,7,0c2.1,0,4.2,0,6.3,0c0-0.3,0-0.7,0-1
		c-4.3-2.1-8.9,0.1-13.7-0.1c-2.2-5.9-4.1-12-5.2-18.3c-1.4,0.3-1.2,1.3-1.1,2.2c0.3,2.8,0.3,5.7,1,8.5c3.8,15,4.8,30.6,9.3,45.6
		c1.6,5.3,3.6,10.6,4.7,16.1c0.5,2.5,1.5,5.1,2.6,7.4c2.8,5.8,4.2,12,6.9,17.8c1.4,3,2.1,6.3,2.5,9.9c-1.6,0.2-2.3,1.4-2.5,2.9
		c-2.1,11.9-6.1,23.4-7.9,35.4c-0.5,3-0.2,6.2,0.8,9.3c1.4-3.6,1.4-7.4,2.3-11.8c1.7,5.6,4.3,9.7,8.3,12.7c0,1.4-0.3,2.5-1,3.5
		c-3.2,4.6-4.5,9.9-6,15.2c-0.3,0.9-0.4,1.8-1.3,2.3c-3.1,2.1-6.2,4.2-9.4,6.2c-1.6,1-3.3,1.9-4.2,3.5c-2.2,4-6.1,5.7-9.8,7.6
		c-2.3,1.2-4.8,2.2-7.2,3.3c-4.6-2.4-9.7-3.8-14.1-7c-3.4-2.4-5.1-6-7.9-8.9c-0.7-0.7-0.8-2.1-0.3-3.3c1.4-3.5,1.9-7.1,1.2-10.7
		c-1.3-7.1,0.1-13.8,2-20.6c1-3.6,1.4-7.2-1.5-10.3c-0.4-0.4-0.4-1-0.5-1.6c-1.4-10.2-2.8-20.3-4.6-30.4
		c-1.8-10.3-1.5-20.4,2.3-30.3c0.7-1.9,1.4-3.8,1.6-6c1.2,0.8,0,2.2,1.2,3.1c2.6-1.5,0.4-5.1,2.9-6.4c-1-5.4-1.9-10.5-0.2-15.8
		c0.9-2.7,1.4-5.5,1.6-8.4c0.1-2,0.1-3.9-1.1-5.6c-1.3-1.9-0.2-4.1-1-5.9c0.5-1.3,2.3-1.4,2.5-2.7c0.4-1.1-0.7-1.7-0.7-2.5
		c1.8-2.3,3.6-4.5,5.3-6.7c-0.8-1.6-1.4-3.1-2.2-4.4c-0.6-1-1.6-1.7-2.9-1.2c-1.1,0.4-1.7,1.4-1.4,2.5c0.8,2.9-0.8,5-2,7.2
		c-1.1,0.4-1.8,0.1-2.6-0.8c1.5-2.2,0.8-5.1,2.4-7.3c-1.8-2.3-1.8-2.3-6.4,0.7c-0.6-1.2-1-2.9-2.8-2.8c-1.6,0.1-2.6,1.3-3.5,2.5
		c-1.1,1.5-1.9,3.1-2.4,4.8c-3.4,2.5-6.8,2.4-9.9,0.3c-1.6-0.6-2,2.2-3.6,0.9c2-3.8,5.6-6,8-7.9c-2.4,2-6.1,4-8,8
		c-2.9,1.2-2.9,4.7-5.2,6.4c-1,0.6-0.7-0.7-1.6-1.1c-3.2,1.6-6.8,2.1-10.6,1.4c-0.4-0.1-1.1,0.1-1.3-0.1c-2.6-2.7-5.9-4.9-7.2-8.7
		c-0.4-1.2-0.3-2.5-0.7-3.7c-3.2-10.4,0.7-18.9,6.6-27.2c3.5-4.9,8.2-8.2,12.9-11.5c3.7-2.6,7.3-5.5,11-8.2c2.7-2,4.3-5.2,3.5-9.3
		c-0.8-4.3,0.9-8.4,3.1-12.2c3.1-5.4,7.4-9.4,11.6-11.8c10.5-1.3,19.8-0.2,29.1,0.8c0.3,2-1.1,3.2-0.9,4.7c0.5,0.2,0.8-0.3,1.6-0.2
		c-3.6,4.2-7.4,8.4-8.9,14.1c1.1-0.1,2.2-0.2,3.3-0.3c2-3.8,6.6-5.8,7.1-11.3c1.6,3.9,1.7,6.5,0.6,9.5c1.4,1.2,1.7,2.6,1,4.5
		c-0.7,2.1,0.5,4.2,0.5,6.4c-0.1,6.7,0,13.4,0,20.1c-4.5,2.4-7.5,6.5-9.8,11c-1,2,0.2,3.2,2.2,3.6c-0.9,2.9-1.1,5.6,0,8.5
		c0.8,2.3,0.3,4.8,0.1,7.1c-0.2,2.3,0.2,4.3,2,5.9c1.9-0.2,2.6-1.6,2.9-3.3c0.6-4.2,1.5-8.3,1.1-12.5c-0.1-1.1,0.4-1.8,0.9-2.5
		c2.1-2.9,2.4-6.5,4.1-9.6c0.7-1.3,0.8-3.8,0.6-5.8c-0.4-3,0.2-3.9,3-3.8c3.5,0.1,7.1,0.1,10.6,0.8c6.8,1.5,13.6,3.1,20,5.7
		c2,0.8,4.3,0.9,6.1,2.4c1.6-0.8,2.7-2.8,4.8-2c2.9,1.1,6.2,1.5,8.4,4.2c1.5,1.9,2.7,3.8,3.1,6.3c0.4,2.4,1.2,4.8,2,7.2
		c0.8,2.4,0.6,4.9,0.8,7.3c1.7,0.2,2-0.8,2.2-1.8c0.6-2.5,0-5-0.8-7.4c-0.9-2.8-1.9-5.6-2-8.9c3.9,1.2,7.7,2.2,10.7,4.6
		c1.9,1.5,4.4,2.4,4.5,5.8c0,1.2,1.8,3.1,2.9,4.5c1.4,1.8,2.1,3.6,1.3,6c-0.5,1.4-0.6,2.9,0.3,4.3c0.6,1.2,1.5,1.9,2.8,2.1
		c-1.3-0.1-2.2-1-2.9-2c-0.5-2.4,0.4-4.4,2.1-6.5c2.3,2.8,3.8,5.6,5.1,8.7c3.3,8.1,5.2,16.5,5.1,25.3c0,4.1-0.4,8.2,1.9,12.4
		c4.7-11.2,4.8-22.1,1.1-33.1c-0.4,3.8,0.9,7.6,0.7,11.4c-0.2,3.9-0.4,7.7-1.2,11.6c0.2-14.4-3.2-27.7-12.2-39.8
		c-1.3-0.3-2.4-1.7-3.2-3.6c-2.9-6.6-8.3-10.3-15-12.3c-3.5-1-6.7-2.3-9.5-4.9c-3.6-3.3-8.7-3.5-13.1-5.3c-0.5-0.7,0.9-1.1,0.3-1.8
		c-5.3-0.8-10.9,0.6-16.2-0.6c2.3-4.3,6-7,8.5-10.5c2.5-3.5,5.4-6.4,9-8.7c6.1-3.8,11.4-8.6,17-13.1c1.6-1.3,3.2-2.5,5.1-3.4
		c2.8-1.3,6.1-2.1,7.9-5.1c0.5-0.8,1.6-0.8,2.5-0.9c4.3-0.4,8.6-0.8,13.2-1.2c-0.3,1.5-1.9,2.3-1.4,4.1c1.7,1.5,3.9,3,4.8,5.8
		c-1.8,1.2-3.7,2.4-6.3,4c3.7,0.5,6.1-1,8.4-2.3c1.1,0.1,1.6,1,2.8,1.4c-2.7,2-5.3,3.8-7.4,6.9c4.1-1.5,8-1.9,11.1-4.4
		c0.4-0.3,1.1-0.8,1.5-0.7c3.1,0.6,6.3,0.8,9.2,2.8c-1,1.3-2.6,1.9-2.8,3.8c1.7,1.1,0.4,3.7,2.5,5.3c0.3-1.5,0.9-2.6,1.6-3.4
		c-0.3-1.7-1.9-1-2.5-2c0.8-1.7,3.3-1.9,3.8-4.2c10.8,2.7,21.8,2.7,32.5,5.3c5.4,1.3,10.9-0.2,16.2-1.5c0.7-0.2,1.2-1,2.1-1.8
		c1.8,2,3.7,4.1,5.5,6.2c-7.4,3.1-15.2,5.7-21.6,10.6c-9,6.9-16.8,15.1-20.8,26.1c-1.5,4.2-1.7,8.6-1.4,13c0.1,0.5,0.5-0.3,0.1,0
		c-0.1,0.1-0.2,0-0.2-0.3c-0.7-9.2,2.2-17.3,8-24.3c6-7.3,12-14.6,21.1-18.5c5-2.1,9.9-4.4,14.8-6.7c2.2,0.3,2.5,3.2,4.8,3.4
		l-0.1-0.1c-0.4,1.5,0.9,2.1,1.8,2.6c2,1.1,4,2.6,6.2,2.9c3.9,0.6,6,3.2,7.8,6c3,4.5,5.3,9.4,5.4,14.9c0,1.9,1.8,2.4,2,3.9
		c1.2,6.4,2.3,12.8,0.1,19.3c-0.3,1-0.8,1.9-0.5,3.1c0.4,0.1,1,0.3,1.5,0.5c-0.2,1-0.3,2-0.8,3c-1.8,3.8-0.7,7.5,0.3,11.2
		c2.7,9.8,3.9,19.6,1.7,29.7c-0.6,2.7-0.9,5.2,2.1,7.7c5.6,4.6,5.7,13.5,1.2,19.9c-2.1,2.9-4.2,5.7-6.9,7.9
		c-4.1,3.3-8.7,5.1-14.2,3.2c-4.4-1.5-9-2.5-12.2-8.2c-0.8-5.5-1.9-12.6-3-19.6c-0.8-5.3-2.4-10.4-5.4-15
		c-3.1-4.6-3.6-10.1-4.2-15.4c-0.9-7.6-0.6-15,3.4-21.9c1-1.7,1.2-3.8-1.3-4.9l0.1,0.1c2.8-1.5,6.2-1.5,8.7-3.8
		c0.9-0.8,2-1.6,2.7-2.6c1-1.4,0.8-2.5-0.9-3.3c-0.3,0.1-0.8,0.1-0.9,0.3c-2.9,4.1-7.5,5-11.9,5.8c-5,1-10.1,1.8-15.2,2.7
		c-0.7,0.1-1.4,0.1-1.8,1.4c2.2,1.8,4.9-0.3,7.2,0.5c2.4,0.8,5-0.3,7.6,0c-5.3,4.2-9.1,10.4-16.6,11.5c-3,0.4-5.3-0.9-6.3-3.7
		c-0.9-2.5-2.5-4.8-2.2-8.3c-1.9,2.2-1.4,4-0.8,5.7c0.6,1.9,1.2,3.7,0.2,5.4c0.6,1.3,1.8,1.7,2.7,2.6c-2.2,1.8-5.3,2.8-5.7,6.2
		c-5.6,3.1-11.1,6.1-16.7,9.1c0.9,1.3,1.6,0.6,2.2,0.2c4.3-2.7,8.9-4.7,13.4-6.9c0.4-0.2,1-0.3,1.2-0.6c3.4-5.1,9.2-6,14.3-8
		c2.5-1,4.7-2.1,6.7-3.9c2.7-2.5,5.3-5.3,8.9-7c1.6,2,1.5,4.1,0.8,6.1c-0.5,1.6-1.2,3.2-1.8,4.8c-0.9,3-1.7,5.9-0.9,9.1
		c1.1,4.4,0,8.8-0.4,13.2c-0.3,2.4-2.2,3.7-3.9,4.9c-4.7,3.4-8.9,7.5-12.6,12c-2.7,3.3-5.7,6.3-8.9,9c-5.3,4.6-11.7,7.5-18.4,8.1
		c-7.3,0.6-11.2-1.3-13.9-9c-0.4-1.2-1.4-1.7-2.2-2.5c-1.6-1.8-2.9-3.6-1.5-6.1c8.3,3,8.5,3,13.5,1.1c1,1.3-0.2,3.1,1,4.6
		c1.3-1.2,0.6-2.8,0.9-4.2c0.2-1.4,0.3-2.7,2.6-2.8c-1.4-0.9-2.2-1.5-3-2c-3.7,5.6-7,6-14.7,1.7c2.1-3.1,1.8-7.2,4.9-10.2
		c2.7-2.7,5.8-4.9,8.6-8C926.5,455.1,925.5,457.6,923.4,457.9c-0.7-1.1-0.4-2.3-0.1-3.4c1.6-6.1,0.4-12.2-0.5-18.2
		c1,6.2,2.1,12.3,0.5,18.6C923.1,455.8,922.8,456.9,923.4,457.9z"/>
	<path fill="#FFFFFF" d="M707.6,579.9c4.3-1.7,7.1,2.6,10.8,2.6c1.4,0,2.3-1.2,3.8-1.4c-5.4-1.6-10-4.3-14.2-7.9
		c-3-2.6-5.2-5.7-6.6-9.4c-1-2.6-1.9-5.1-2.9-7.7c-0.5-1.2-0.5-2.4-0.2-3.7c0.4-1.8,0.6-3.6,0.9-5.4c0.2-1.4,0.3-3.2-0.7-3.9
		c-2.9-2.4-2.2-5.8-2.9-8.8c-1.1-4.7-2.4-9.3-4.2-13.7c-2.6-6.4-3.6-13.2-4.3-20c-0.7-7.1-1-14.4-1.1-21.5
		c-0.1-8.4,0.3-16.9,1.3-25.3c1-9.2,1.3-18.4,0-27.7c-0.1-0.8-0.2-1.6-0.4-2.3c-0.3-0.7-0.7-1.4-1.1-2c1.1-5.4,0.9-6.3-1.7-7.9
		c1.7-0.5,3.3-0.8,4.8-1.5c2.6-1.1,4.7-2.8,6.2-5.5c1.1-2.1,3.1-4.1,5.1-5.4c3.3-2.1,4.6-5.5,6.3-8.6c1.7-3.1,4.2-5.2,6.7-7.6
		c-0.5,3.5,0.6,6.8,0.1,10.1c-0.4,2.4-1.7,4.5-3.9,6.1c-3.3,2.5-3.9,6.2-1.4,9.6c1.8-3.5,2.9-7.3,6.9-8.8c2.6,9.2,4.6,18.7,6.8,28.1
		c1.1,4.7,2,9.5,3.5,14.2c1.1,3.7,3.3,6.7,5.6,9.6c4.4,5.6,8.3,11.5,8.2,19c0,1.9,1.9,2.1,2.1,3.7c0.5,4.5,2.1,8.9,2.1,13.5
		c0,10.3-0.3,20.5-1.5,30.8c-0.2,1.6-0.1,3.2-0.2,4.8c-0.1,1.2-0.3,2.5-0.4,3.7c-0.2,1.9-2.3,3.1-2,5.3c0.3,1.9,0.4,3.9,0.5,6.1
		c1.3-0.2,2.5,1.5,4.3,0.5c0.1-2.6-0.7-5-0.9-7.5c-0.2-2.6-0.2-4.9,1.4-7.3c2.8,0.5,3.5-1.9,4.6-4c-1.5-0.9-2.3,0.7-3.7,0.9
		c0.3-2.8,0.6-5.6,1.3-8.5c6.4,0.8,12.5,1.9,17.3,6.5c5,4.8,9,10.3,11.9,16.6c0.5,1.1,0.9,2.4,1.1,3.6c0.5,2.8-0.8,4.7-3.6,5.3
		c-4,0.8-8,1.5-11.6,3.7c-1.3,0.8-2.6,1.5-3,3.3c0.7,2.2,2.3,2.3,4.3,1.4c3-1.4,6-2.8,8.3-5.4c1.5,0,2.9,0,4.4,0
		c0.5,1,0.5,1.9-0.3,2.8c-3.8,4.5-7.8,8.6-13.5,10.7c-3.3,1.2-4.1,2.6-3.5,5.2c-1.4,1.4-2.9,2.8-2.6,5.2c0.1,0.8-0.4,1.5-1,2.1
		c-5.9,5.3-12.5,8.8-20.7,7.9c-3.3-0.4-5.8-2.5-8.5-4.1c-0.4-0.2-0.7-0.5-1-0.6c-2.5,0.4,0.1,3.9-3,4c8,1.6,15.8,5.3,23.8,1.7
		c3.3-1.5,6.1-4.1,9.2-6.3c0.7-0.5,1.4-1.3,2.2-1.6c6.5-2.4,11-7.6,16.2-11.8c3.5-2.9,4.5-6.6,5.3-10.7c0.1-0.3,0.1-0.6,0.2-1
		c0-0.1,0.1-0.2,0.2-0.3c0.7-0.7,1.4-0.5,2.2-0.2c3,0.8,5.6,2.5,8.5,3.6c1.7,0.7,2,2.1,1.9,3.7c-0.4,4.8-0.8,9.5-1.2,14.3
		c-0.1,0.7-0.2,1.4-0.6,1.9c-1.8,2.5-1.8,5.4-0.7,7.8c1.3,3,0.8,6.3,2.2,9.2c0.7,1.4-0.9,2.7-3.1,2.5c-6.8-0.5-13.6-1.2-20.4-2.1
		c-5.6-0.8-11.3-1.4-17-1.3c-3.3,0.1-7-0.2-9.2-3.5c-0.6-0.9-1.6-0.9-2.5-0.9c-2.6,0-5.2-0.1-7.9,0c-5.5,0.2-10.4-1.9-15.4-3.6
		c-1.9-0.7-4.1-0.5-5.7-2C709,581.9,708.1,581.4,707.6,579.9z"/>
	<path fill="#FFFFFF" d="M746.7,511.9c0.3-8.4,0.5-16.3,0.8-24.2c0-0.7,0.3-1.4,0.7-1.9c2.6-3.7,3.9-8,5.6-12.1
		c2-4.7,4.2-9.2,8.2-12.8c3.3-2.9,5.6-6.9,8.1-10.7c7.5-0.2,14.7,2.6,22.5,1.2c-1.6,4.2-1.1,8.2-1.1,12.1c-1.4,0.7-2.3-1.2-3.8-0.5
		c0.5,1.8,2.7,1.5,3.7,3.2c0.5,1.4,0.2,3.2-1,4.4c-2.9,3-3.7,7-5,10.7c-0.2,0.5-0.4,1-0.8,1.8c-1.6-3.2-3.4-6-6-8
		c-0.2,0.1-0.5,0.2-0.7,0.4c2.1,3.8,4.2,7.6,6.5,11.8c-0.5,3-0.4,6.6-1.9,9.8c-1,2.2,0.4,4.1,0.5,6.2c0,3.8,0.4,7.5,0.7,11.3
		c0.6,7.2,2.1,14.2,4.5,21c0.4,1.1,0.9,2,2,2.8c1.5,1.2,2.1,3.4,2.4,5.5c0.4,2.4,0.2,4.8-0.3,7.2c-0.7,3.3-3.2,4.4-6.2,2.6
		c-0.9-0.5-1.7-1.2-2.5-1.8c-4-2.8-5.1-5.1-3.6-9.6c0.8-2.5,0.3-4.4-0.8-6.5c-1.3-2.5-2.6-5.1-4.6-7.2c-1.6-1.7-1.7-4.1-3.2-6
		c-5.5-7.1-12.8-10.4-21.6-10.8C748.9,511.9,748,511.9,746.7,511.9z"/>
	<path fill="#FFFFFF" d="M716.5,378.6c-3.3,0.1-5.2,3.1-8.2,4.7c-0.3-2.1,0.4-3.8,0.9-5.2c1.4-0.8,2.1,0.3,3,0.1
		c1.2-0.3,0.5-1.7,1.4-2.3c2.5,2,5.4,0.8,8,1.3c7.5,1.2,15-1.7,22.5,0.1c0.7,0.2,1.6-0.1,2.3-0.3c1.4-0.2,2.5,0.1,3.2,1.5
		c-1,1.8-3.4,2-4.4,3.6c-2,3.2-4.9,5.6-7.3,8.4c-2.8,3.2-3.8,7.1-3.9,11.4c-0.1,6.1,1,12.1,0.8,18.1c0,2.1,1.3,3.9,2.9,5.3
		c1.9,1.6,3.8,3.2,5.8,4.8c4.8,3.8,10.1,3.6,15.5,1.9c2.5-0.8,5-1.6,7.1-3.6c1.3,1.3,2.6,0.8,4.1,0.2c3.7-1.5,7.5-1.7,11.4-1.3
		c1.9,0.2,3.9,0.6,5.2,2.2c0.9,1.1,2.3,0.9,3.2,1.2c4.5,6,3.9,12.4,2.4,19c-12.5-2.6-25.6-1.6-38.3-4.4c-6.3-1.4-12.7-1.2-19.1-1.7
		c-1.6-0.1-3.2-1.2-5.2-0.3c3.5,3.8,8.2,3.3,12.5,4.5c0.5,5.1-0.5,10.3,0.9,15.7c-3.3-2.7-4.8-6.2-6.9-9.2c-1.5-2.1-3.1-3.8-5.3-5.2
		c-1.7-1.1-3.3-2.3-3.3-5c0-1.9-1.2-4.1-1.8-6.1c-2.7-8.1-2.6-16.8-5.4-24.9c-2.7-7.7-3.8-15.7-4-23.9
		C716.4,385.7,716.5,382.3,716.5,378.6z"/>
	<path fill="#FFFFFF" d="M722.6,639.1c1.6,0.8,2.3-0.3,3.6,0.1c-2.1,1.2-3.7,2.5-6,3.1c-0.4-3.1,0.1-6.1-1.1-9.1
		c2.1-0.4,1.7-1.9,1.6-3.1c-0.7-7.6-1.7-15.2-3.2-22.7c-1.3-6.4-0.6-12.9-1.4-19.6c5.8,0.4,10.5,3,15.9,2.8c0.7,3.3,1.1,6.5,1,9.8
		c-0.3,9.5,1.3,18.9,2.7,28.2c0.2,1.4,1.2,2.4,1.8,3.6C733,635.3,728.1,637.5,722.6,639.1z"/>
	<path fill="#FFFFFF" d="M937.4,356.9c1.4-2,4.2-2.2,5.5-5c-3.7,0.6-5.7,2.8-7.8,4.6c-2.9,0.1-5.4-1-8-1.6c0.2-1.6,1.3-2,2.4-2.5
		c3.9-1.9,8-3.3,12.2-4.5c1.1-0.3,2.6-0.1,3.1-1.7c-2.8-2.4-13.5,0.9-22.1,6.9c-4.2-0.8-6-4.8-9.2-7c-0.5-1.3,1-2.4,0-3.6
		c11.4-2.6,23.7-2.8,28.7-0.5c-0.1,0.9-1.6,0.5-1.4,1.8c4.8,0.3,9.8-1.6,14.7,0.7c-0.5,1.4-1.9,0-2.6,1.4c2.3,2.2,5.5,2.7,8.3,3.8
		c3.2-2.7,7.7-2.4,12.1,0.8c-3.6,0.5-6.9-2.3-10.8,0.3c7.4,3.5,15.6,4.2,22.2,10c-6,0.7-11.2,1.8-16.9,0.3
		c-7.3-1.9-14.8-2.6-22.4-2.8C942.7,358.4,940.1,357.7,937.4,356.9z"/>
	<path fill="#FFFFFF" d="M667,404c1.9-1.1,3.6-0.8,5.1,0.6c3.1,2.8,6.2,5.7,9.4,8.5c0.3,0.3,0.7,0.6,0.8,1c1.1,3.8,2.2,7.6,3,11.5
		c0.4,2,0.4,4.1,0.8,6.1c0.5,2.5-0.3,3.6-2.8,4.1c-1.8,0.4-3.4,0-4.9-1c-3.9-2.7-6.8-6.1-8.7-10.3c-2.8-6.1-4.1-12.5-3-19.2
		C666.8,404.8,666.9,404.4,667,404z"/>
	<path fill="#FFFFFF" d="M739.7,631.4c-1.4-0.9-1.2-2.2-1.4-3.4c-1.4-9.5-1.6-19.3-4.6-28.5c-0.3-1-0.6-2-0.2-3
		c0.7-1.7,1-3.4,0.4-5.3c-0.3-0.8,0.5-1.2,1.4-1.5c2.9,1.1,4.6,4.7,8.1,4.6c1.2,1.4,1.1,3,1.2,4.4c0.3,7.8,0.9,15.6,2.6,23.3
		c0.6,2.7,0,4.9-2.5,6.5C742.9,629.5,741.5,630.9,739.7,631.4z"/>
	<path fill="#FFFFFF" d="M743.7,447.5c7.3,0.9,13.9,0.9,20.9,2.1c-7,8.9-15,16.5-18.8,27.1C745.2,467,743.5,457.5,743.7,447.5z"/>
	<path fill="#FFFFFF" d="M852.4,601.5c-4.8,1.4-9.4,2.8-14.1,3.6c-3.6,0.6-8.1-1.3-10-4.4c-1.4,0.2-2.8,1.7-4.5,0.3
		c4.5-3.2,9.7-5.4,13.9-9c0.7-0.6,1.5-0.3,2.3-0.4c3.5-0.5,7-0.7,10.4-3.1C850.7,593,850.5,597.2,852.4,601.5z"/>
	<path fill="#FFFFFF" d="M861.1,574.3c-3.9,3.1-6.7,7.1-9.9,10.6c-2.9,3.1-5.7,3.5-9.6,4c1.4-2.1,3.3-2.8,4.6-4.3
		c3.1-3.7,5.3-7.9,7.6-12.1c1.8-3.4,2.9-3.6,5.3-0.7C859.6,572.5,860.2,573.2,861.1,574.3z"/>
	<path fill="#FFFFFF" d="M703.1,387.1c0.2,7.2-4.2,11.3-8.7,15.2c-2.9,2.5-5.5,5.6-9.9,6.3c0.4-1.7,2.2-1,2.3-2.1
		c0.5-1.3-0.8-2-0.2-3.8c2.8-1.6,6.8-2.1,9.5-5.2C698.8,394.4,701.5,391.4,703.1,387.1z"/>
	<path fill="#FFFFFF" d="M818.4,395c0.7,4.9-0.8,9.4-2.6,14.4c-2.2-5.4,2.5-9.7,1-14.5c1.1-1.3,2.2-2.5,3.7-4.2
		C820.3,392.8,820.2,394.5,818.4,395z"/>
	<path fill="#FFFFFF" d="M856.6,567.4c0.9-1.5,1.5-2.5,2.1-3.6c3,1.8,4.7,4.6,6.3,7.5c-2,1.9-3.2,0.3-4.5-0.8
		C859.4,569.4,859,567.4,856.6,567.4z"/>
	<path fill="#FFFFFF" d="M893.6,515.6c1.5,0.8,2.1,1.7,2.5,2.9c-2.1,2.4-4.2,4.9-6.4,7.3C891.1,522.6,893.2,519.6,893.6,515.6z"/>
	<path fill="#FFFFFF" d="M787.8,529.8c-1.9-4.3-2.7-8.9-2.8-13.6l-0.1,0.1C786.6,520.6,787.4,525.2,787.8,529.8L787.8,529.8z"/>
	<path fill="#FFFFFF" d="M771,563.2c-2.3,1-3.4,3.6-5.8,4.5l0.1,0.1c1-2.1,2.8-3.5,4.1-5.4c0.7-0.9,1.4-0.4,1.9,0.4
		C771.4,563.1,771.3,563.2,771,563.2z"/>
	<path fill="#FFFFFF" d="M765.2,567.7c-1.3,1-2.7,2-4.5,3.3c0.6-1.5,0.5-2.7,0.5-3.8C762.9,566.4,763.9,568,765.2,567.7L765.2,567.7
		z"/>
	<path fill="#FFFFFF" d="M953.6,333.6c-1.2,1.9-2.3,3.2-4.3,3.4C950.8,334.1,950.8,334.1,953.6,333.6z"/>
	<path fill="#FFFFFF" d="M628.7,368.7c-1.3,2.6-3.6,4.4-5.7,6.2C624.1,372.2,626.2,370.3,628.7,368.7z"/>
	<path fill="#FFFFFF" d="M958.1,335.1c1.8-1.7,1.8-1.7,3.6-1.6C961.5,335.8,959.8,334.8,958.1,335.1z"/>
	<path fill="#FFFFFF" d="M988.4,354.7c-0.5-0.3-0.8-0.7-0.9-1.3c0.4-0.9,1.3-1.2,2.1-1.4C990.6,352.6,990.3,353.3,988.4,354.7z"/>
	<path fill="#FFFFFF" d="M949.3,340.7c-0.7,0.9-1.5,0.4-2.5,0.5C948.2,339.1,948.2,339.1,949.3,340.7z"/>
	<path fill="#FFFFFF" d="M984.3,356.7c1.2-0.3,2.2-0.3,3.1,0.6C986.1,358,986.1,358,984.3,356.7z"/>
	<path fill="#FFFFFF" d="M680.7,408.2c1.5,0.1,1.9,1.3,2.8,1.7C681.4,409.7,681.4,409.7,680.7,408.2z"/>
	<path fill="#FFFFFF" d="M976.8,316.9c-0.5,2.1-1.3,2.2-2.5,0.8C974.8,316.5,975.5,316.3,976.8,316.9z"/>
	<path fill="#FFFFFF" d="M975.9,335.6c1,0.8,1.5,1.4,1.4,2.4c-0.3,0.1-0.5,0.3-0.6,0.3C975.3,337.8,975.3,337,975.9,335.6z"/>
	<path fill="#FFFFFF" d="M979,319.2c0.3-1.8,0.5-2.7,2-1.6C980.8,318.9,979.9,318.6,979,319.2z"/>
	<path fill="#FFFFFF" d="M943.4,329.7c0.1-1.1,0.8-1.6,1.8-2.4C945.5,329.2,943.9,329,943.4,329.7L943.4,329.7z"/>
	<path fill="#FFFFFF" d="M967.9,319.2c0.4-0.7,1-1.1,1.8-0.8C969.6,319.8,968.7,319.3,967.9,319.2z"/>
	<path fill="#FFFFFF" d="M982.5,421.6c-0.7,0.5-1.1,1.8-2.6,0.6C980.8,421.5,981.7,421.6,982.5,421.6L982.5,421.6z"/>
	<path fill="#FFFFFF" d="M989.3,356.9c0.2-1.3,0.8-1.6,1.6-2C990.7,355.8,990.4,356.5,989.3,356.9z"/>
	<path fill="#FFFFFF" d="M971.1,331.4c0.4-1,0.8-1.4,1.7-0.5C972.4,331.8,971.9,331.8,971.1,331.4z"/>
	<path fill="#FFFFFF" d="M980.4,331.2c-1.2-0.7-1.7-1.3-0.5-2.2C980.9,329.7,980.1,330.4,980.4,331.2z"/>
	<path fill="#FFFFFF" d="M975,346.8c-0.8,0.1-1.2-0.3-1.6-0.9c0.9-0.7,1.3,0,1.7,0.4C975.3,346.5,975.2,346.7,975,346.8z"/>
	<path fill="#FFFFFF" d="M946.9,338.2c-0.3,0.7-0.7,1.1-1.4,0.4C945.7,337.6,946.3,337.9,946.9,338.2z"/>
	<path fill="#FFFFFF" d="M965.7,338.9c-0.5-0.4-0.9-0.9-0.2-1.7C966.6,337.6,966.3,338.2,965.7,338.9z"/>
	<path fill="#FFFFFF" d="M771,563.2c0.1-0.1,0.2-0.3,0.2-0.5c0.6,0.7,0.6,0.7-0.2,1.5C770.6,563.9,770.9,563.6,771,563.2z"/>
	<path fill="#FFFFFF" d="M784.9,516.2c-0.4-0.4-0.7-0.9-0.5-1.6C785.1,515.1,784.7,515.7,784.9,516.2L784.9,516.2z"/>
	<path fill="#FFFFFF" d="M974.5,333.2c0.5,0.4,1.3,0.7,0.3,1.3C974,334.2,974.2,333.8,974.5,333.2z"/>
	<path fill="#FFFFFF" d="M943.3,329.6c0,0.6,0,1.3-0.9,1.4C942.5,330.4,942.5,329.8,943.3,329.6L943.3,329.6z"/>
	<path fill="#FFFFFF" d="M787.7,529.9c0.8,0.3,0.4,1.1,0.8,1.8C787.4,531.1,787.7,530.4,787.7,529.9L787.7,529.9z"/>
	<path fill="#FFFFFF" d="M686.2,552.2c0.7-0.3,1.3-0.4,1.3,0C687.5,552.6,686.9,552.4,686.2,552.2z"/>
	<path fill="#FFFFFF" d="M397.6,342.9c-1.4-3.7-3.9-6.9-5.8-10.4c-1.5-2.8-2.4-5.9-4.1-8.7c-3.5-5.9-8.7-10.2-13.6-14.8
		c-1.2-1.2-2.8-1.1-4.5-0.9c-1.8,0.3-3.7,1.3-5.5,0.4c-2.7,1.3-4.6,4.5-8.4,3.3c1.1-2.7,2.1-5.3,3.1-7.8c0.5-1.3,1.4-2.1,2.6-3
		c3.7-2.6,7.9-4.4,11.7-7c-3.6,0.7-6.7,2.4-10.5,4.1c0.8-1.7,1.9-2.2,2.9-2.9c2.9-2,5.7-4,7.3-7.4c1.3-2.7,3-5.1,5.1-7.2
		c1.3-1.3,1.5-3,1.9-4.7c1.3-5.7,2.6-11.3,5.1-16.7c0.7-1.6,1.5-3,3.7-1.6c-0.1-1.5,0.5-1.9,1.8-2.1c4.8-0.7,9.5-1,14.3-1.3
		c1.6-0.1,3.4-0.1,4.7-1.5c-7-1-14,0-21.1,0.9c0.4-2.8,2.8-4.3,3.5-6.5c0.1-1-1.1-0.9-1.1-1.8c0.3-1.1,0.9-2.2,1.8-2.8
		c4.3-2.6,6.9-6.8,10.5-10.1c5.9-5.2,11.2-11.1,17.1-16.3c3.8-3.3,8.6-5.1,13.7-5.7c5.7-0.6,11.3-1.4,16.9-2.9
		c3.1-0.8,5.9,0.4,8.7,0.9c2.7,0.5,5.3,0.2,7.9,0.3c3.5,0.2,6.8,1.8,10.1,3c1.1,0.4,2.4,0.6,3.4,1.7c-1.7,0.4-3.1-1.1-5.3-0.1
		c3.6,1,6.7,1.8,9.7,2.9c3,1.1,6.1,2,9,3.4c5.8,2.8,7.3,8.7,10.6,14.2c0.1,0.1,1.2-0.8,1.9,0.5c2.7,5.1,5.9,10,5.7,16.2
		c0,0.1,0,0.2,0,0.3c3.2,7.5,3.8,15.7,6.5,23.3c1.3,3.8,1.2,6.8-1.8,9.2c-3,2.4-4,6.3-7.2,8.4c-0.2,0.1-0.2,0.6-0.3,1
		c-1.4,5.8-3.4,11.4-5.7,16.9c-3.6,8.6-7.8,17-12.8,24.9c-4.1,6.4-7.5,13.1-9.6,20.4c-1.3,4.6-3.2,9-4.7,13.6
		c-0.4,1.1-1.1,1.7-2.2,2.2c-2.1-1.8-4.8-2.3-7.4-2.9c-4.2-0.9-8.1-2.3-12.2-3.4c-1.3-0.4-3-0.8-3.7-1.7c-2.5-3.5-6.8-5.7-8.3-9.9
		c-2.4-7.1-7.7-9.5-14.5-9.5c-6.3,0.1-12.6,0.4-18.8,0.6c-1.2,0-2.5,0-4.2,0c1.7-5.5,0.8-11.2,3.2-16.4c1.1-2.3,1.1-5.1,1.6-7.6
		c1.5-7.5,4.4-14.5,7.8-21.1c3.2-6.2,4.1-12.7,6.3-19c0.1-0.3-0.1-0.6-0.1-1.2c-1.9,2-2.5,4.5-3.7,7c-2.7-2.1-5.7-1.6-8.7-0.8
		c-2.3,0.6-4.7,1.1-6.4,3.2c4.8-0.4,9.5-2.3,14.6-0.7c-0.6,2.1-1.3,4.3-1.7,5.8c-8.5,6.7-17.2,12-25.9,18.2
		c4.4-0.7,16.5-7.5,23.9-13.2c-0.5,4.7-2.9,8.9-6.6,11.7c-1.8,1.4-2.1,3.5-2.3,5.5c-1,8.1-2.7,16.2-4.6,24.2
		C402.4,343.3,401.9,343.5,397.6,342.9z"/>
	<path fill="#FFFFFF" d="M526.5,299.5c-2.1-1.4-4.1-2.7-6.2-4.1c-0.3-1.9-2-3-2.8-4.8c1.8-3.7,6.8-2.1,9-5.3
		c-1.6-0.5-2.8,0.9-4.6,0.5c3-3.5,3.6-7.4,2.1-11.7c-0.5-1.4,0.2-2.9,1.3-4.3c1.7-2.2,4.4-3.2,6-5.4c1.1-1.9,3.1-2.5,4.8-3.4
		c4.1-2.1,8-4.4,11.5-7.4c2.9-2.4,6.8-3.4,10.3-4.7c3.3-1.2,5.9-2.9,8.2-5.4c2.1-2.2,4.4-4,7.8-4.6c-0.6-4.8,3.8-4.1,6.2-5.6
		c-5.2,2.3-11,2.6-16.1,3.5c1,0.5,2.4-0.5,3.9-0.6c1.4-0.1,2.8-0.2,3.3,1.4c0.6,1.6-0.6,2.5-1.7,3.1c-1.7,0.9-3.1,2.1-4.2,3.5
		c-2.6,3.3-6.3,4.2-9.9,5.4c-2.1,0.7-5.3-1.1-5.6-3.3c-0.3-1.7-1.2-3.2-1.5-4.5c1.3,1.8,1,4.5,2.5,6.6c0.7,1,0.2,2.2-0.8,3
		c-4,3.1-7.7,6.5-12.4,8.6c-2.3,1.1-5,1.9-6.4,4.3c-3.4,0.7-5.8,3-8.6,5.1c-1.8-0.9-2.7-2.4-2.8-4.3c-0.2-2.4-0.7-4.7-0.3-7.3
		c0.8-4.4-0.7-8.8-2.1-13.1c-0.6,3.7,1.1,7.3,0.3,11.3c-1.3-1.7-1.8-3.6-2.2-5.4c-1.8-7.9-4.4-15.3-10.6-21.1c-0.6-0.5-1-1.3-1.3-2
		c-2.3-5.5-6.5-9-12-10.9c-1.9-0.7-3.9-1.3-5.9-1.8c-1.3-0.4-2.4-0.8-3.2-2.2c-1.1-2-3.5-2.4-5.5-3.2c-2.1-0.9-4.3-1.5-6.3-2.2
		c-0.7-0.6,0.3-1.4-0.7-2c-2.9,0.7-6-0.5-9.1-0.1c0.2,1,1,0.7,1.8,1.4c-1.8,0-3.1,0.9-4.5,0.5c-1.1-0.6-1-1.8-1.9-2.7
		c1.8-0.8,2-2.9,3.3-4.1c2-1.9,3.7-3.9,5.4-6.2c1.8-2.3,4-4.3,6.6-5.9c5.2-3.1,9.7-7.2,14.4-10.9c2-1.6,3.9-3,6.3-4
		c2.1-0.9,4.3-1.6,5.6-3.7c0.4-0.8,1.3-1,2.1-1c4.1-0.1,8.1-1.1,12.7-0.9c-2.2,3.3-0.1,6,0.8,8.7c0.7,2.1,2.9,2.8,4.7,3.7
		c6.7,3.1,13.6,5.7,20.8,7.6c0.9,0.2,1.8,0.4,2.3,1.3c-0.2,0.1-0.3,0.3-0.5,0.4c0.1-0.1,0.3-0.3,0.4-0.5c1.4-0.9,2.9-0.6,4.3-0.5
		c7.2,0.5,14.4,0.7,21.6,0.7c3.9,0,7.8,0.1,11.4-1.9c1.6-0.9,3.1-0.1,4.3,1.4c-3.6,3.1-8.3,3.8-12.4,5.7
		c-5.9,2.8-10.9,6.5-15.1,11.6c-3.8,4.7-8.4,8.8-10.2,14.8c-1.7,5.4-2.5,10.9-0.1,16.4c0.2,0.6,0.2,1.5,1.2,1.4
		c0.4-0.1,0.7-0.3,0.6-0.7c-2.5-11.9,2-21.4,10-29.8c2.4-2.6,4.4-5.6,7.3-7.7c3.9-2.9,8.4-4.7,12.8-6.5c2.4-1,4.7-2.2,6.8-4
		c1.7,0.1,1.9,2.4,3.6,2.6c1.1,3.5,4.7,4,7.3,4.9c2.6,0.9,4.3,2.3,6,4.2c0.9,1,1.7,2.2,2.2,3.5c3.3,8.4,6.6,16.8,6.2,26
		c-0.1,1.9-0.5,3.6-1.1,5.3c-0.4,1.2-1.1,2.7,1.3,3.1c-2.6,4.6-1.6,8.8-0.4,13.4c2.2,8.3,3.3,16.7,1.1,25.3c-0.6,2.4-0.5,4.5,2,6.5
		c4.1,3.3,5,8.4,3,13.1c-2.8,6.7-6.9,12.6-14.7,14.5c-0.9,0.2-1.8,0.5-2.7,0.3c-4.7-1.2-9.6-2.1-13-6.1c-0.7-0.8-0.8-1.6-0.8-2.5
		c-0.4-4.9-2-9.5-2.3-14.4c-0.3-4.9-2.3-9.5-3.8-14.1c0.3-0.2,0.5-0.3,0.7-0.5c-0.2,0.2-0.4,0.4-0.6,0.6c-2.5-1.5-3-4.2-3.7-6.7
		c-1.6-6-2.2-12.1-1.5-18.3c0.2-2,0.9-3.9,1.5-6.2c-1.8,1.1-2.3,2.5-2.7,4.1c-1.3,5.6-1.4,11.3-1.3,17c0,2.1-0.5,3.7-1.9,5.2
		c-1.8,1.8-3.5,3.6-5,5.6c-5.8,7.7-13.4,13.3-20.8,19.1C538.1,298.8,532.6,301.2,526.5,299.5z"/>
	<path fill="#FFFFFF" d="M341.3,385.9c-1,4.4-0.2,8.9-0.5,13.5c-1.4,0.1-2.5-0.6-3.5-1.2c-0.6-1.4,0.2-2.6,0.1-3.8
		c-0.1-1.2,0.3-2.6-1.2-3.3c-2,1.5-2,1.5-1.3,6.6c-4.1-1.2-8.3-1.4-12.4-2.2c-10.7-2-21.3-3.9-31.9-5.9c-1.1-0.2-2.3-0.1-2.9-1.4
		c-0.3-0.6-1.1-0.9-1.8-0.9c-9.1-0.4-17.5-4.4-26.3-5.9c-4.3-0.7-8.4-1.8-12.9-2.7c1.1-2.5,3.3-4.1,3.4-6.6c0.6-0.9,1.1,0.5,1.7-0.4
		c0.3-1-0.2-2.3,0.3-3.5c2.5-6,4.7-12.1,8.2-17.7c2.3-3.7,4.4-7.7,5.5-12.3c2.6,1.3,5.7,1.6,8.5,2.9c5.1,2.3,9.7,1,12.1-3.3
		c-5.3,4.4-10-0.4-15-0.7c-1.2-0.1-1.8-1.2-2.1-2.4c-1.2-5.6,2.4-12.2,7.7-14.2c3-1.1,8.3,0.5,9.8,3.8c2.1,4.5,3.7,9.2,1.7,14.3
		c-0.8,2.1-2.4,3.4-3.5,5.3c2.8-1.5,5.6-2.9,6.9-6.2c1.2-3,1.9-5.9,0.8-9.2c-1.1-3.2-3.2-5.7-4.9-9.1c5.7,1.8,10.9,3.3,16.1,5
		c2.6,0.8,4.5,2.4,6,4.8c2.8,4.2,5.6,8.3,7.3,13.2c-0.1,0.7-0.8,1-1.4,1.1c-4.5,1.1-7.2,4.5-10.3,7.6c-2.5,2.5-5.1,4.8-8.7,5.7
		c-1.7,0.4-3.3,1.5-4.5,3c-3.2,4-6.9,7.6-11,10.7c-2.4,1.8-4.3,4.1-5,7.1c-0.5,1.9-2.5,2.9-2.7,5.1c1.4,1.3,2,0.2,2.6-0.8
		c4.1-7,10.8-11.7,16.2-17.4c1.3-1.4,4.1-1.9,6.1-3.2c4.5-3,9-5.9,12.9-9.6c4.7-4.4,10.7-5.9,16.5-7.9c7.8-2.7,15.5-5.6,21.6-11.4
		c1.6-1.5,4-2.8,2.6-5.8c1.6-1.2,3.1-2.3,4.6-3.4c0.6,0.5,0.2,1.5,1.3,1.9c0.7-7.9,4.4-13,13.4-12.7c1.5,0.8,2.6,2.4,3.8,3.6
		c0.7,1.1-0.6,1.9,0,2.8c0.9,0.5,1.1-0.6,2.1-0.9c6.3,8.7,13.1,17.3,17,27.5c-1.9,2.4-4.4,2.3-6.7,2.8c-3.6,0.8-6.9,2-9.2,5
		c0.6,2.3,2,2.5,3.5,1.9c1.8-0.8,3.5-1.6,5.1-2.7c2.9-1.9,2.9-2,7.3-2.2c-2.9,5.1-6.7,8.7-11.7,11.3c-0.9,0.5-1.9,0.8-2.8,1.3
		c-1.6,0.9-2.6,2.1-1.9,4c-3.8,4.6-8.8,7.6-13.7,11.2c3.5,1.1,4.1,0.9,12.7-5.2c2.6,1.7,5.9,2.3,8.2,4.5c2.4-1,3.2-3.2,4.4-4.9
		c2.1-2.9,3-6.5,5.9-9.1c1.8-1.6,1.1-4.8,1.5-7.2c0.4-2.6,1.3-4.8,3.9-6.4c-1,5.3-0.7,10.6-1.8,15.6c-0.2,0.7-0.3,1.3-0.8,1.8
		c-5.2,4.9-10.1,10.2-15.6,14.8c-5.8,4.7-10.1,10.8-15.4,16c-1.7,1.7-3.4,3.6-4.1,6.1c-1.1-7.4-0.6-14.9-2.2-22.1
		c-0.7,7.3,0.4,14.6,0.5,21.7c-2.1,1.3-3.5-1.2-5.2-0.2c-1.9-6-0.8-12.2-2.6-18.9c-1.6,2.4-0.4,4.3-0.4,6.1c0.1,2.1,0.1,4.1,0.3,6.2
		c0.2,2,0.6,4,0.9,6.3c-4-0.9-7.9-0.7-11.5-2.5c0-3.8,0.1-7.6,0-11.3C342.6,387.8,343.2,386.2,341.3,385.9c-0.5-3,1.8-2.9,3.7-3
		c4.1-0.1,8.2-0.7,12-2.4c-4.1,1.8-8.5,2.5-13,2.2c-1.1-0.1-2.4-0.2-2.9-1.4c-0.7-1.5,0.6-2.2,1.3-3c0.9-1,2.2-1.6,2-3
		c0,0.2,0.1,0.7-0.1,0.9c-4.3,5.2-7,11.9-14,14.6c-0.4,0.2-0.7,0.5-1.1,0.8c2.8-1.9,5.7-3.8,8.5-5.8
		C339,385,340.2,384.4,341.3,385.9z"/>
	<path fill="#FFFFFF" d="M363.3,566.5c-7.1,1-11.8-3.1-16.7-6.4c1,3.1,4.2,4.8,9.2,6.8c3.7,1.5,7.4,1.8,11.4,2.4
		c-0.2,1.1-0.3,2.2-0.5,3.3c-1.1,1.1-2.2,1.3-3.7,0.8c-6.4-2-13-3.4-19.7-4.1c-0.8-0.1-1.5-0.5-2.1-1c-1-0.8-2-1.3-3.4-1
		c-1.6,0.3-3.5-0.5-4.2-1.8c-1.4-2.5-3.7-3.6-6-4.9c-4.6-2.6-8.4-6.2-10.5-10.9c-1.4-3.3-3.6-4.4-6.5-5.9
		c-8.7-4.4-16.1-10.8-22-18.6c-0.8-1.1-1.3-2.4-1.8-3.7c-1.2-3.6-1.2-3.8,2-6.4c1.3,1.2,3.1,1.8,4.7,2.6c4.7,2.2,8.7,5.3,12.4,8.9
		c3.2,3.1,6.9,5.8,10.3,7.1c9.6,10.6,17.9,21.5,29.3,29.2c-1.4-2.5-2.5-5-4.9-6.8c-3.9-3-8.3-5.6-10.5-10.4
		c-0.5-1.2-1.6-2.2-2.6-3.2c-7.3-7.9-15.1-15.5-23-22.9c-3.7-3.5-8.4-5.4-13.5-6.3c0.7-1.9,1.4-3.3,3.7-3c1.5,0.2,2.1-0.9,2.8-2
		c3.3-5.1,6.9-9.9,11.7-13.7c0.4-0.3,0.9-0.7,1.2-1.2c2-3.4,4.6-6.2,7.5-9c2.2,1.8,4.8,2.6,7.7,2.9c4.4,0.5,6.8,3.8,6.9,8.3
		c0,1.4,0.1,2.7,0,4.1c-0.4,4.8,2,7.8,6.3,9.3c4.4,1.6,8.6,3.5,13.3,3.9c0.6,0.1,1.3-0.1,2.1-0.2c-0.1,2.8,0.1,5.4,1.1,8
		c0.7,1.9-0.3,4.2,0,6.3c0.5,3.6,0.6,7.3,1.3,10.9c0.8,4.7,2.1,9.4,4.7,13.4c2.2,3.4,3.5,7.6,7.5,9.8c1.8,1,2.8,2.8,1.4,4.9
		c-1.2,1.8-3.6,2.3-5.8,1.2C363.7,566.9,363.3,566.5,363.3,566.5z"/>
	<path fill="#FFFFFF" d="M545.7,183.2c-5.1,3.7-10.3,0.7-15.9-0.4c1.1-1.6,4.2-1.5,2.8-4.2c5-2.1,9.8-4,14.6-6
		c-1.4-2.8-1.8-2.7-8.1-0.1c-0.9-0.5,0.3-1.5-1-2.4c-2.6,4.7-6.4,8.2-10.8,11.1c-1.2,0-2.1-0.5-3-1.2c-0.3-1.9,1.5-3.7,0.2-6.3
		c-1,2-1.8,3.6-2.7,5.2c-1.7-0.3-3-1.1-4.4-2.2c0.6-3-3.3-5.7-0.4-9.1c1.7-1.2,4.1-0.9,6.3-1c4-0.2,7.9-0.3,11.9-0.2
		c2,0.1,4.1,0.4,5.1,2.5c2.3,0.5,4.1-1.6,6.5,0.1c1,2.9,4.4,3.7,7.3,5.2c1.2,0.7,2.5,0,3.8-0.8c2.2-1.5,3.9-1.1,6.2,1.2
		c-2.1,0.3-4.3-1.1-6.7,0.8c3.8,2.4,7.9,2.7,11.5,4.3c3.7,1.6,7.1,3.9,11,5.3c-11.1,3.1-22.1,0.6-32.9,0.8
		C545.8,184.8,547.2,183.7,545.7,183.2z"/>
	<path fill="#FFFFFF" d="M475.1,377c0.4,2.1-0.1,4-1.1,5.9c-1.7,3.5-4.1,6.6-6.4,9.7c-1.2,1.6-2.9,2.5-4.9,2.8
		c-2,0.3-4.1,0.7-6.1,0.6c-3.1-0.1-5.7,1.2-9.1,2.5c0.7-5.3,2.3-9.9,2.4-14.8c1.9-0.8,3.7-0.2,5.6-0.2c0.2,2.9-1.1,5.7,0.4,9
		c1.5-3.6-0.5-7.8,3.5-9.8c-0.8-0.6-1.7-1.1-1.8-2.1c-1.3-0.3-0.9,1.6-2,1.6c-1.3-0.2-2.7-0.4-4.1-0.5c2.1-3.5,2.6-3.8,6.3-2.8
		c2.4,0.6,4.7,0,7.1-0.1c-0.3,1.3-1.9,1.4-2.4,2.7c1,0.9,0.6,2.6,1.6,3.9c1.5-1.6,0-3-0.1-4.4C467.4,378.8,470.3,375.1,475.1,377
		L475.1,377z"/>
	<path fill="#FFFFFF" d="M197.7,407.2c0.9,1.2,1.4,2.7,0.9,4.4c-3.1-1.3-5.9-3-9.1-3.9c-3.2-0.9-5.7-5.2-4.4-8.3
		c1.2-2.8,2.5-6,6-7.5c3.1,1.3,6.4,3.1,10.9,2.7C199.5,398.8,199.5,403,197.7,407.2z"/>
	<path fill="#FFFFFF" d="M335.8,504.1c1.3-3.3-0.9-6.4-0.2-10.1c5,3.5,9.2,7.5,14,10.1c0.8,1.3,0.1,2.3,0,3.2c0.8,0,1.3-0.1,1.9-0.1
		c-0.1,1.2-0.3,2.3-1.5,3.1C345.7,507.7,340.4,506.9,335.8,504.1z"/>
	<path fill="#FFFFFF" d="M384.8,364.4c0.1,2.3-0.9,3.8-0.5,5.6c2.2-4.8,2.3-10.8,8.3-13.3c0,6.4-4.6,10.7-7.2,16.3
		c-2.2-1-4.1-2-6.2-3c0.7-1.7,1.8-3.2,1.5-5.1C382.2,364.7,383.5,366.5,384.8,364.4z"/>
	<path fill="#FFFFFF" d="M448.1,383.7c-0.4,4.9-0.8,9.3-1.2,13.6c-2.1,0.2-3.8-1.1-6-1.4C444.1,392.4,443.5,387,448.1,383.7z"/>
	<path fill="#FFFFFF" d="M458,375.9c-1.4-2.4-0.4-4,0.3-6.2c4.2,1.7,8.4,2.5,12.6,3.2c-1.9,1.4-4.1,1.5-6.2,2.1
		C462.5,375.6,460.2,374,458,375.9z"/>
	<path fill="#FFFFFF" d="M579.4,181.5c-2.6,0-4.3-1.8-6.9-3c2.2-0.5,2.7-3,5-3c0.1,1.1-1.4,1.3-1.2,1.9
		C576.6,179.6,579.1,179.8,579.4,181.5L579.4,181.5z"/>
	<path fill="#FFFFFF" d="M497.2,334.6c-1.3,3.3-3.5,6.1-5.1,9.2c-0.5,1-1.5,1.8-1.2,3.1l0.1-0.1c-0.3,0-0.6,0-1.3,0
		c1.9-4.5,4.2-8.7,7.3-12.4L497.2,334.6z"/>
	<path fill="#FFFFFF" d="M579.3,178.9c-0.5-1.8,0.2-2.6,2.1-2.7C581.5,178,580.1,178.3,579.3,178.9z"/>
	<path fill="#FFFFFF" d="M364.2,492c-1.9,0.3-3.3-0.6-4.3-2.3C361.4,490.5,362.8,491.2,364.2,492L364.2,492z"/>
	<path fill="#FFFFFF" d="M549.1,160.2c-0.7,1.3-1.8,1.3-2.9,2.2C546.5,160.5,547.5,160.1,549.1,160.2z"/>
	<path fill="#FFFFFF" d="M539.8,157.3c0.3-1.2,1-2,2.3-2.8C542,156.4,540.2,156.3,539.8,157.3z"/>
	<path fill="#FFFFFF" d="M333.9,313.2c-1.3-1.4-1.2-3.4-1.8-5.1C333.6,309.6,333.7,311.4,333.9,313.2L333.9,313.2z"/>
	<path fill="#FFFFFF" d="M570,164.5c-1.3-0.8-1.8-1.3-1.3-2.6C569.9,162.3,570.1,163,570,164.5z"/>
	<path fill="#FFFFFF" d="M555.9,166.2c-1.3-0.2-1.7-0.9-1.2-2.1C555.7,164.8,555.7,164.8,555.9,166.2z"/>
	<path fill="#FFFFFF" d="M333.8,313.2c0.9,0.9,1,2.1,1.4,3.6C333.9,315.6,333.8,314.5,333.8,313.2L333.8,313.2z"/>
	<path fill="#FFFFFF" d="M556.7,160.2c-0.7,1.2-1.6,1.2-2.6,0.6C554.7,159.5,555.4,159.3,556.7,160.2z"/>
	<path fill="#FFFFFF" d="M556.1,147c0.4-1.3,1.3-1.3,2.4-1.9C557.8,146.3,557.5,147,556.1,147z"/>
	<path fill="#FFFFFF" d="M567.7,146.4c0.1-1.3,0.8-1.3,1.5-1.3C569.2,146.4,569.2,146.4,567.7,146.4z"/>
	<path fill="#FFFFFF" d="M572.5,157.8c-1.2-1-0.7-1.5,0.1-2C573.2,156.5,573.1,157.1,572.5,157.8z"/>
	<path fill="#FFFFFF" d="M571.9,147.2c-0.2-0.8-0.2-1.4,0.4-1.5c0.2-0.1,0.7,0.2,0.7,0.5C573.3,146.8,572.6,146.9,571.9,147.2z"/>
	<path fill="#FFFFFF" d="M559.7,164.5c-0.2-0.4-0.4-0.8-0.1-1.2C560.9,163.7,560.6,164.1,559.7,164.5z"/>
	<path fill="#FFFFFF" d="M569.7,174.9c-1.4,0.3-1.5-0.4-2-0.6C568.8,173.8,568.6,174.7,569.7,174.9z"/>
	<path fill="#FFFFFF" d="M565.1,158c0-0.5,0.2-0.8,0.7-0.7c0.1,0,0.3,0.4,0.3,0.5C565.8,158.3,565.5,158.3,565.1,158z"/>
	<path fill="#FFFFFF" d="M496.9,334.4c0.1-0.7,0.5-1.2,1.1-1.6c0.3,0.9-0.4,1.3-0.8,1.8L496.9,334.4z"/>
	<path fill="#FFFFFF" d="M567.6,159.7c0.7,0.1,0.6,0.5,0.5,1C567.4,160.6,567.2,160.3,567.6,159.7z"/>
	<path fill="#FFFFFF" d="M581.7,179.2c0.1,0.7-0.3,1-0.8,1.3C580.5,179.6,581,179.4,581.7,179.2z"/>
	<path fill="#FFFFFF" d="M402.6,525.8c2.6-1,3.8,0.8,5.3,1.5C406.2,527.4,404.6,526.8,402.6,525.8z"/>
	<path fill="#FFFFFF" d="M257,534.6c-3.5-7.9-8.3-14.5-16.1-18.8c-3-1.6-6.1-3-8.3-5.9c-0.4-0.5-1-0.9-1.6-1.2
		c-7.3-4.1-13.9-9-19.6-15.1c-3.4-3.6-8.4-4.8-13.3-5.9c1.3-1.9,2.7,0.6,4-0.4c-0.6-1.9-2.9-1.6-3.9-3.1c8.4-10.8,17-21.5,28.8-28.9
		l-0.1-0.1c0.6,3.5,4,3.9,6.3,5.6c0.8,0.6,1.9,0.7,2.9,1.1c2.1,0.7,3.4,2,2.6,4.4c-0.6,2,0.4,3.5,0.9,5.1c0.2,1.2-1.1,1.6-1.1,2.5
		c0.1,0.3,0.1,0.6,0.3,0.7c3.6,2.7,7.5,5,10.8,8.2c2.5,2.4,4.5,2.8,6.6,2.2c0.5,1,0.3,2,0.1,3c-0.9,0.6-1.7-0.7-2.5-0.2
		c-0.3,1,0.3,1.6,0.9,2.1c1.3,1.2,1.7,2.8,1.5,4.4c-0.6,6.8-0.1,13.7-0.3,20.5c5.7,6.9,5.9,14.6,1.5,20.2L257,534.6z"/>
	<path fill="#FFFFFF" d="M203.3,498.6c-3.9-2.4-6.6-5.9-9.7-9.2c1.5,0.9,3.2,1.1,4.8,1.5c5.4,1.4,10.1,3.8,14.1,7.8
		c4.6,4.4,8.9,9.2,14.3,12.6c3.1,2,6.4,3.5,9.6,5.2c4.5,2.3,8.3,5.6,12.2,8.7c1.8,1.4,2.5,3.5,3.3,5.5c0.9,2.2,2.2,4,4.9,3.9
		l0.2,0.2c-0.2,0.6-0.5,1-1.3,1.4c-2.1-1-4.2-2.2-6-4c-2.4-2.4-5.2-4.3-8.2-6c-5-2.7-10-5.5-15-8.2c-4.8-2.6-7.8-7.4-12.2-10.4
		c-3-2-5.8-4.2-8.8-6.3C206,499.4,204.6,499.1,203.3,498.6z"/>
	<path fill="#FFFFFF" d="M242.6,466.3c1.4,1.5,2.7,2.8,3.9,4.1c2.2,2.5,4.2,5.1,6.8,7.1c1.6,1.2,2.6,2.7,2.6,4.9
		c-2.2-1.6-4.6-2.8-6.6-4.7c-1.4-1.4-3.6-2-5.2-3.4C241.5,472.1,240.8,469.9,242.6,466.3z"/>
	<path fill="#FFFFFF" d="M256.5,473.3c1.1,0.7,1.8,1.2,2.6,1.7C256.9,476.3,256.7,476.2,256.5,473.3z"/>
	<path d="M203.3,498.6c1.1-0.5,1.2-0.6,1.7,0.1c0.6,0.7,2.3,1.2,0.7,2.6C204.9,500.4,204.1,499.5,203.3,498.6z"/>
	<path fill="#FFFFFF" d="M259.4,478.9c-0.9-0.6-0.8-1-0.1-1.4C259.9,477.8,259.8,478.3,259.4,478.9z"/>
	<path fill="#FFFFFF" d="M258.3,494.6c-0.3-0.2-0.4-0.5-0.3-0.8c0.1-0.1,0.4-0.3,0.6-0.2c0.4,0.1,0.5,0.4,0.3,0.8
		C258.7,494.5,258.5,494.6,258.3,494.6z"/>
	<path fill="#FFFFFF" d="M648,539.6c-0.5-2.5,1.5-3.4,2.3-5c-2.7-0.4-5,1.6-5.3,4.3c-0.3,2.6,1.7,3.9,7.2,4.2c-2.3,1-4.2,1.8-6,2.6
		c-6.2-3.5-7.8-10-4-16.2c2.4,0.1,4.8,1.2,7.4-0.3c1.2-0.7,3.1-0.4,4.8,0.8c-1.5,1-3.7,1.5-2.9,3.8c1.4,0.5,1.3-1.4,2-1.2
		c1.7,0,2.4,0.8,3.2,1.6c-1.2,2.3,2.2,6-1.9,7.2C652.2,542.2,649.9,540.9,648,539.6z"/>
	<path fill="#FFFFFF" d="M640.1,528.7c-1.9,6.6-1.9,7.7-0.1,14.2c-2.3-1.6-4.7-2.4-7.2-3.1c-1.1-0.3-2-0.8-2.5-2.1
		c-0.9-2.4-0.4-8.7,1-11.4C634.1,527.5,637.2,527.9,640.1,528.7z"/>
	<path d="M876.7,539c-0.7-6.6-1.4-13.2-2.2-20.2c-1.2,1.4-1.5,2.9-2,4.2c-2.1,5.1-4.9,9.8-8,14.3c-1,1.4-1.3,2.8-1,4.5
		c0.6,3.4,0.4,7,1,10.6c-2.8-2.1-2.9-5.6-3.9-8.8c-2.1,1.7-2.9,4.1-5.6,5.9c0.8-2.7,2.2-4.2,3.4-5.7c1.3-1.6,1.7-3.1,1.5-5.3
		c-1.2-9.7-2.1-19.5-1.6-29.4c0.1-1.8-0.1-3.9,2.5-5.4c-0.3,11.3,1.1,22,2.2,33.4c5.2-7,8.9-14,10.9-21.6c1.3-4.8-0.3-9.7-0.9-14.6
		c-0.4-3.2-1-6.4-1.3-9.7c2.5,5.9,2.8,12.3,3.7,18.7c3.1-8.5,9.8-14.8,13.4-23.8c0.6,2.3-0.2,3.4-0.7,4.6c-1.5,3.5-3.6,6.6-5.8,9.7
		c-2.2,3.2-3.9,6.7-5.4,10.3c-2.2,5.2-0.6,10.4-0.4,15.5C876.7,530.3,877.5,534.5,876.7,539z"/>
	<path d="M992.8,367.5c-1.8,2.4-4.5,3.4-7.1,4.5c-4.9,2.2-10.2,3.7-14.3,7.3c-8.2,7.3-16.1,15.1-19.5,25.9
		c-1.6,5.2-2.9,10.6-1.1,16.1c0.2,0.6,0.3,1.3-0.6,2.3c-1.8-2.5-2.5-5.3-2.8-8.1c-0.9-7.7,1.7-14.6,6-20.9c3.2-4.6,7.2-8.6,11-12.6
		c5.1-5.3,11.7-8.3,18.2-11.3c1.9-0.8,3.8-1.6,5.7-2.4C989.7,367.7,991.2,366.8,992.8,367.5L992.8,367.5z"/>
	<path d="M1007,419.7c-4.6,0.1-7.8-1.9-11.4-2.2c0.1-4.5,1.3-9.1,0.6-13.8c-0.1-0.9,0-1.8,0-2.7c0.1-4.3,1.6-5.1,5.9-2.7
		c-3.1,3.8-1.9,8.7-3.7,12.9c2.6,4.4,2.6,4.4,7.2,4.8C1006.7,417.1,1005,418.5,1007,419.7z"/>
	<path d="M905.5,396.2c4.8,4,9.4,7.3,13.4,11.3c5.7,5.6,10.2,12.3,13.8,19.4c2.1,4.1,2.5,7.7,1.4,11.4c-0.5,0-0.9-0.2-0.9-0.7
		c-0.5-8.7-5.5-15.3-10.3-21.9c-4.6-6.3-10-11.8-16.1-16.7C906.1,398.6,905.3,398.3,905.5,396.2z"/>
	<path d="M824.2,539.5c-1.2-1.1-1.4-2.5-1.2-3.7c0.8-4.5-0.1-8.8-1.2-13.2c-0.7-2.9-0.1-5.9,0-8.8c0.1-3.8-0.6-7.9,1.1-12.1
		c2.3,2.4,1.7,4.9,1.5,7.3c-0.1,1.7-0.2,3.3,0.8,4.9c0.9,1.5,1.2,3.4,0.5,5c-1.5,3.6-0.7,7.2-0.2,10.8
		C826.1,533.2,824.8,536.3,824.2,539.5z"/>
	<path d="M779.6,411.1c6.4-7.2,10.4-15.8,14.8-24.2c1.8,1.4,1.9,2.9,1.3,4.6c-2.4,6.9-6.8,12.6-11.3,18.1
		C783.2,411,781.3,410.7,779.6,411.1z"/>
	<path d="M840,494.8c3.6,1.2,3.4,4.2,3.9,6.5c1.2,5.3,0.2,10.8,0.3,16.1c0.1,2.8-0.9,5.4-2.7,7.5c-0.4,0.4-0.8,0.8-2,0.5
		c-1-3.3,2.1-6.2,1.7-9.7c-0.3-3.4,0.5-6.9,0.3-10.4C841.3,502,840.5,498.6,840,494.8z"/>
	<path d="M957.1,457.9c-1.9,1.2-3.4,2.1-4.9,3.1c-1,2.8-0.2,5.8-1.8,8.4c0-2.2,0-4.3,0-6.8c-3,1-4.6,3.6-7.7,4.3
		c3.1-6.2,9-8.2,13.8-11.1c1.1-1.2,0.1-2.6,0.9-3.6c1.3-0.3,0.9,1.1,1.7,1.5c2.1-1.2,3-4,5.8-4.6c0.6,1.4-1.1,1.8-1.4,3.3
		c0,0.6,0.8,1.7,0.5,3.2c-1.3-0.5-0.9-2-1.9-2.6c-2.7,1.8-4,4.1-3.4,7.5c0.4,2,0.5,4,0.1,6.4C957,464,957.9,461,957.1,457.9z"/>
	<path d="M923.4,457.9c-1.7-0.3-1.8-1.5-1.5-2.9c1-5.2,0.6-10.5,0.2-15.7c-0.1-1.9-0.7-3.5-1.3-5.3c-0.3-0.9-1.4-2-0.1-3
		C925.4,434.1,926.9,449.7,923.4,457.9L923.4,457.9z"/>
	<path d="M919.1,424.2c-0.9,0.7-1.4,0.3-1.7-0.1c-5.2-8-13.4-13.5-19-21.1c1.4-1.1,2-0.6,2.6,0C907.1,409.9,914.9,415.5,919.1,424.2
		z"/>
	<path d="M828.1,557.9c-0.4-1.4-1.6-1.5-1.8-2.9c1.1-2.5,2.6-5.1,4.6-7.5c0.7-0.8,1.4-0.5,2,0.4c-0.1,1.8-2,2-3.1,3.2
		c1.1,1.8,0.2,3.4-0.9,4.7c1.9,4.6,1.3,7.7-2.1,10.9c-1.6,1.5-1.6,1.5-3.9,0.5C825.4,564.4,827.7,561.6,828.1,557.9z"/>
	<path d="M930.7,445.8c-4.2-11.5-5.5-24.3-15.2-33.6c1.9-0.3,2.8,0.9,3.8,1.9c3.1,3,4.8,6.9,6.5,10.8
		C928.6,431.6,929.7,438.6,930.7,445.8z"/>
	<path d="M797.7,431.7c3.7-0.7,7,0.9,10.1-0.8c3.1-1.7,3.3-5.6,6.2-7.5c1.2,2-0.7,6.6-3.5,8.9C806,435.7,801.6,435.7,797.7,431.7z"
		/>
	<path d="M832.8,570.2c0.9-1.5,1.8-1.2,2.5-1.6c0.7-0.8-0.2-1.8,0.5-2.6c0.4-0.2,0.8,0,0.8,0.3c0,3.2,0.4,6.4-0.7,9.5
		c-0.9,2.6-3,4.1-5.5,5.7c-0.3-2.5,0.2-4.4,1.2-6.2C832.6,573.7,832.6,571.7,832.8,570.2z"/>
	<path d="M983,381.1c-1.5,1.9-3.6,3.2-4.5,5.6c-0.3,0.9-1.6,1.4-2.6,1.5c-3,0.5-6.1,0.4-9.5,1.4c1.4-3.2,4.3-3.3,5.9-4.9
		c1.2-0.3,1.1,0.7,1.6,1.2c1.1,0.1,1.9-0.6,2.6-1c0.8-0.8-0.6-1.5,0.2-2.5C978.7,382,980.9,381.6,983,381.1L983,381.1z"/>
	<path d="M863,453.1c1.7,1,3.4,2.1,5.1,3.1c4.2-2.5,8.5-4.8,12-8.4c-1.4,3.9-2.8,7.6-7.2,9.4c-4.8,2-7.1-1.6-10.4-3.1
		C862.7,453.8,862.8,453.4,863,453.1z"/>
	<path d="M795.1,478.8c3.5,2.2,5.3,13.8,2.8,18.4C796.7,490.6,794.6,484.9,795.1,478.8z"/>
	<path d="M935.8,424.9c4.7,4.2,6.9,13.7,4.4,17.5c-0.9,0.1-1.4-0.6-1.4-1.2C938.4,435.7,936.7,430.3,935.8,424.9z"/>
	<path d="M1020.8,489.9c-0.3,2.6,3.4,5.3-0.2,8.2c0.2-3.3-4.4-4.7-2.2-8.7c3.9-1.3,3.2-5.9,4.8-9.1
		C1026.2,482.5,1024.9,487,1020.8,489.9z"/>
	<path d="M886.3,387.7c9.5,3.2,19.5,4.9,28.4,9.4c0.2,0.1,0.3,0.5,1,1.5C905.7,394.1,895.4,392.3,886.3,387.7z"/>
	<path d="M984.5,436c-0.5-2.5,0.9-4.2,1.7-5.9c-0.2-0.6-0.8-0.3-0.8-0.5c-0.3-2.6,1.8-6.1,4.2-6.8c1.8-0.5,2.8-2.4,4.7-2.3
		c0.8,0.8,0.2,1.4-0.3,1.7c-3.2,2.2-5.4,5.2-6.7,8.9C986.7,432.8,985.5,434.3,984.5,436z"/>
	<path d="M840.4,530.4c2.8,4.8-3.1,15.6-8.1,15.5C837.7,542.4,837.6,536,840.4,530.4z"/>
	<path d="M887,358.2c6.3-1.2,12.6-1.9,19.3-2.5c-0.5,1.7-1.8,2.9-3.7,2.3c-3.1-1-5.5,0.1-8.2,1.2C890.9,360.8,889.2,360.5,887,358.2
		z"/>
	<path d="M890.6,482.6c6.9-4.9,11.6-11.7,19.8-14.3c-0.4,1.5-1.1,2.6-2.4,3.1c-4.7,1.9-8,5.5-11.8,8.7
		C894.8,481.3,893.3,482.7,890.6,482.6z"/>
	<path d="M862,407c0.7,6.2,4.3,11.8,4,18.2c-2.1,0.2-2.2-1.1-2.5-2.2C862.3,417.7,861.4,412.4,862,407z"/>
	<path d="M839.5,484.1c-1.4-0.4-2.1-1.1-2.1-1.8c-0.1-6.5-4.9-11.8-4.7-18.5c1.5,3.3,3.4,6.6,3.9,9.9
		C837.2,477.2,841.5,479.7,839.5,484.1z"/>
	<path d="M912.5,448.3c1.2,2.8-0.6,4.9-0.5,7.2c0.1,2.2,0,4.5,0.7,6.9C908.4,460.7,908.4,452.2,912.5,448.3z"/>
	<path d="M883.1,418.1c2.5,1.5,2.5,3.6,2,4.9c-1.8,4.9-0.9,10.2-2.3,15.1c-0.2,0.8-0.3,1.6-1.2,2.5
		C882.8,433.1,883.1,425.9,883.1,418.1z"/>
	<path d="M899.6,373c3.7-3.4,7.1-7.1,11.7-9.8C911.5,365.8,904.5,371.8,899.6,373z"/>
	<path d="M969.1,446.9c-0.7-0.4-1.3,0.7-2,0.1c-0.8-1.6,2.2-4.1,6.6-5.4c-0.5,1.6-2,2.2-2.9,3.7c0.5,3.2,0.8,6.7,0.2,10.2
		C969.7,452.9,970.6,449.7,969.1,446.9z"/>
	<path d="M851.3,412.4c-2.1,5.3-0.6,11-1.9,16.4c-2-2.1,0.9-5.6-2.8-7.1C849.7,419.2,848.1,414.8,851.3,412.4z"/>
	<path d="M765.2,423.8c0-0.3-0.1-0.7,0-1c2.7-5.3,7.7-8,12.5-10.7C774.6,417.1,768.8,419.2,765.2,423.8L765.2,423.8z"/>
	<path d="M881.2,389.7c-5.4-0.1-10-2.8-15.1-4.1C869,384.8,878.6,387.5,881.2,389.7z"/>
	<path d="M868.3,380.9c-4.3,1.9-8.8,1.9-13.3,2.3C859.2,381.3,863.7,380.7,868.3,380.9z"/>
	<path d="M797.7,509.5c-1.9-3.6-1.6-7.7,1.2-10.9C798.3,502.6,798.8,506,797.7,509.5z"/>
	<path d="M1004.7,501.5c-1.7-3.4-1.6-3.9,0.9-6.4C1008.2,498.5,1007.9,500.6,1004.7,501.5z"/>
	<path d="M1011.3,463.7c0-3.3,2-5.4,4.4-7.5c1.6,1.7,2.8-0.2,4.7-0.7c-0.2,2.1-1.4,3-2.8,3c-3.1,0-4.4,1.8-5.3,4.3
		C1012.2,463.2,1012,463.6,1011.3,463.7z"/>
	<path d="M988.9,467.5c-3.1-2.1-3.3-5-3.8-8.2c2.1,0.3,2.4,1.6,2.8,2.7C989.3,465.8,989.4,466.3,988.9,467.5z"/>
	<path d="M861.2,396.9c-0.2,1.9-2.5,2.2-2.9,4c-0.4,1.7-1.4,3-3.1,4C857.7,397.9,856.5,398.4,861.2,396.9z"/>
	<path d="M840.6,494.8c-1.8-3.1-2.8-5.6-0.7-8.9C840.8,489,842,491.3,840.6,494.8z"/>
	<path d="M883.7,392c4.2,0.3,8.2,1.2,11.9,3.2C891.5,394.7,887.4,394.4,883.7,392L883.7,392z"/>
	<path d="M820.1,455.6c0.8,4.7,0.2,9.6,1.4,14.4C819.8,465.4,820.3,460.5,820.1,455.6z"/>
	<path d="M801.3,428.9c3,0.1,5.7-0.8,7.9-3C808,429.9,805.6,430.8,801.3,428.9z"/>
	<path d="M933.8,472.2c1.8-2.8,4.1-3.6,6.5-4.2C938.8,470.2,937.4,472.5,933.8,472.2z"/>
	<path d="M871,425.6c1.1-2.9,3.7-4.6,5.3-7.1C875.3,421.4,874.4,424.4,871,425.6z"/>
	<path d="M926.3,411.4c2.1,1.6,3.3,3.5,4.3,5.7C928,416.7,927.1,415.5,926.3,411.4z"/>
	<path d="M937.1,412.8c1.9,0.3,4.2-0.7,5.7,1.7C940.1,416.3,938.7,414.1,937.1,412.8z"/>
	<path d="M938.6,369.3c-0.6,1.5-2.1,2.5-1.8,4.7c-3.1-2.2,0.8-3.7-0.9-5.2C937.1,368.4,938,368.1,938.6,369.3z"/>
	<path d="M793.4,583.1c2.9,1.2,2.6,3.5,2.9,5.5C795.1,587,792.7,586,793.4,583.1z"/>
	<path d="M1002.7,405.9c-1.1-2.2,0.2-3.4,0.9-5.1C1005.3,403.9,1005.2,404.1,1002.7,405.9z"/>
	<path d="M875.1,376c2.1-0.3,4.3-0.6,6.2,1.9C878.8,377.7,876.8,377.4,875.1,376z"/>
	<path d="M902.1,423.6c1.7,1.4,3.9,1.5,6.1,2.1C906.1,427.6,903.9,426.7,902.1,423.6L902.1,423.6z"/>
	<path d="M1009.6,423.7c-2.4-2.4-2.4-2.4-0.9-4.2C1010.3,420.4,1009.6,421.9,1009.6,423.7z"/>
	<path d="M805.3,569.8c1.4,2.5,0.3,3.6-0.8,5C802.5,572.7,804.6,571.8,805.3,569.8z"/>
	<path d="M901,381.9c1-1.2,1.5-3.1,3.7-3C904.5,380.5,904.5,380.5,901,381.9z"/>
	<path d="M799.6,371.3c-0.8,1.5-1.6,3-2.7,5.1C796.4,373.4,797.6,372.1,799.6,371.3z"/>
	<path d="M956.6,419.5c2.7-0.1,2.8-0.1,4.8,1.7C959,421.3,958.8,421.2,956.6,419.5z"/>
	<path d="M955.9,417.5c-1.7,1.1-2.6,0.2-3.8-0.4C953.8,415.3,954.7,416.4,955.9,417.5z"/>
	<path d="M1007.9,484.7c0.8,1.1,0.8,2.1,0.3,3.5C1006.7,486.9,1007.3,485.7,1007.9,484.7z"/>
	<path d="M821.4,559.6c-0.3-1.4-0.1-2.4,0.2-3.4C822.7,557.8,822.7,557.8,821.4,559.6z"/>
	<path d="M869.6,474.7c0-1.7,0.3-3.2,1.5-4.5C871.1,471.9,870.6,473.4,869.6,474.7z"/>
	<path d="M797.3,522.9c1.3,1.3,0.8,2.2,0.4,3.5C796.4,525.4,796.4,524.4,797.3,522.9z"/>
	<path d="M823.4,496.4c-1.2-1.1-0.7-2-0.5-3.1C824.2,494.2,824.3,495.1,823.4,496.4z"/>
	<path d="M965.1,391.7c0.9-1.2,1.4-2,3-1.5C967.7,391.8,967,392.3,965.1,391.7z"/>
	<path d="M797.9,513.5c0.5,1.6-0.3,2-1.3,2.4C796.1,514.6,796.4,513.9,797.9,513.5z"/>
	<path d="M821.8,484c1.2,0.6,1.8,1.4,0.9,2.7C821.4,486.1,822.1,484.8,821.8,484z"/>
	<path d="M821.4,475c1.5,1.1,2.4,1.9,1.2,3.6C821.5,477.7,821.7,476.5,821.4,475z"/>
	<path d="M812.6,598.6c0.2-1.4,0.9-1.8,1.8-2C815.2,597.2,815,597.5,812.6,598.6z"/>
	<path d="M832.8,459.2c-1.1-0.6-0.6-1.6-1-2.3C832.9,457.4,833.1,458.1,832.8,459.2z"/>
	<path d="M983.1,381.2c0.6-1.3,0.6-1.3,2-1.4C984.9,381.1,983.7,380.7,983.1,381.2L983.1,381.2z"/>
	<path d="M990.9,377.3c-0.7,1.7-1.4,1.9-2.6,1.3C988.8,377.4,989.7,377.5,990.9,377.3z"/>
	<path d="M850.8,437.1c1,0.7,1.3,1.4,1.2,2.4C850.7,439.1,850.9,438.2,850.8,437.1z"/>
	<path d="M882.6,361.6c-0.3-1,0.2-1.3,1.1-1.4C884,361.3,883.6,361.7,882.6,361.6z"/>
	<path d="M858.4,448.2c0.7-0.1,1.3,0.1,1.4,1.2C859,449.3,858.1,449.6,858.4,448.2z"/>
	<path d="M849.7,432c0.4,0.6,0.5,1.1,0,1.7C849.4,433.1,849.1,432.6,849.7,432z"/>
	<path d="M985.6,438.8c-0.6-0.2-0.8-0.7-0.5-1c0.6-0.7,0.7,0,0.7,0.4C985.9,438.4,985.7,438.6,985.6,438.8z"/>
	<path d="M856.9,446.7c-1.3,0.5-1.5-0.2-1.9-0.9C856,445.4,856.5,445.8,856.9,446.7z"/>
	<path d="M883.8,392c-0.6,0-1.2,0.2-1.8-0.3C882.7,391.3,883.3,391.6,883.8,392L883.8,392z"/>
	<path d="M739.7,506.8c0.2,3.1-0.3,5.6-2.4,7.4c0.5,6.4-3.7,13-8.2,12.9c-0.6-0.5-0.7-1.2-0.5-1.8
		C729.3,523.2,738.3,507.9,739.7,506.8z"/>
	<path d="M734.3,563.8c2.1,3.2,2,6.1-0.3,9c-1.8,2.3-4,4-7.6,4.2c0.9-3.4,3.9-4.1,5.3-6.3C733,568.7,732.7,566,734.3,563.8z"/>
	<path d="M707.7,469.1c1.5,0.2,1.7,0.9,1.9,1.7c0.9,4.7,0.4,14.8-1.2,18.4C707.6,482.1,707.2,475.7,707.7,469.1z"/>
	<path d="M711.5,516.1c-3-7.4-1.8-15.1-2.4-22.7c1.2,3.7,2.1,7.5,1.7,11.4C710.5,508.7,711.9,512.4,711.5,516.1z"/>
	<path d="M724.8,524.6c-1.7,3.3-7.3,7.6-9.9,7.9C715.3,529.8,716.3,529.1,724.8,524.6z"/>
	<path d="M709.1,412.3c1.9,4.3-0.9,7.9-1.7,11.9C707.9,420.2,707.1,416.1,709.1,412.3z"/>
	<path d="M706.4,434.2c1.7,4.3-0.2,8.6,0.3,12.9C704.9,442.9,705.9,438.5,706.4,434.2z"/>
	<path d="M709.6,567.1c2.6,1.1,4.8,2.9,7.7,2.9C714,571.9,711.2,570.8,709.6,567.1z"/>
	<path d="M748.2,544.1c-2.5-2.7-2.5-2.9-1.7-5.2C749.5,539.9,749.9,541.1,748.2,544.1z"/>
	<path d="M732.9,555.6c2.4,1.9,1.1,4.2,1,6.4C732.4,560.1,733.2,557.8,732.9,555.6z"/>
	<path d="M704.4,553.3c-0.3-1.8-0.2-3.6-0.2-5.5C705.6,549.6,706.6,551.3,704.4,553.3z"/>
	<path d="M711.3,563.9c1.7,1.5,3.5,1.9,3.9,4.3C712.7,567.9,711.6,566.7,711.3,563.9z"/>
	<path d="M753.2,517.9c-0.3,1.9-0.3,1.9-2.2,2.5C751,518.4,751,518.4,753.2,517.9z"/>
	<path d="M740.2,542.4c1.2,0.9,1,2.4,2.1,3.9C739.2,545.1,739.1,545,740.2,542.4z"/>
	<path d="M739.9,500.9c1.3,1.4,1.4,2.4,0.5,3.7C738.7,503.4,739.4,502.4,739.9,500.9z"/>
	<path d="M709.1,460c1.3,1.1,1.8,1.9,1.1,3.4C709.1,462.5,708.7,461.6,709.1,460z"/>
	<path d="M740.8,485c1.2,0.9,1,1.5,0,2C739.9,486.4,740,485.8,740.8,485z"/>
	<path d="M739.4,497.7c-0.8-0.6-0.7-1.1,0.2-1.7C740.2,496.7,740.2,497.2,739.4,497.7z"/>
	<path d="M692.8,453c0.3,0.3,0.2,0.7-0.1,0.8c-0.4,0.1-0.6-0.2-0.4-0.6C692.3,453.2,692.6,453.1,692.8,453z"/>
	<path d="M735.3,550.4c0.7,0.7,0.6,1.2-0.1,1.8C734.3,551.5,734.2,550.9,735.3,550.4z"/>
	<path d="M754.9,557.5c-0.1,1-0.4,1.2-1.1,1C753.7,557.8,754.1,557.6,754.9,557.5z"/>
	<path d="M790,540.4c0.4,0.1,0.2,0.5,0.2,0.7c-0.1-0.1-0.2-0.3-0.3-0.4C790,540.6,790,540.5,790,540.4z"/>
	<path d="M928.1,345.2c-0.3,1.2-0.6,2-1.6,2.2C925.9,345.9,925.9,345.9,928.1,345.2z"/>
	<path d="M448,338.1c3,5.7,6.5,11.1,11.7,15.8c1.4-4.8,2.3-9.6,5.2-13.6c-3.5-2.6-7.9-4-9.5-8.6c3.7,1.8,6.7,4.9,11.2,5.6
		c3.8-5.9,10.9-9.6,11.6-17.7c1.1,1.2,1.1,1.2,0.7,2.5c-0.8,2.5-1.9,4.9-3.6,6.9c-2.4,2.7-4.7,5.6-7.2,8.6c2.6,1.7,5.9,0.9,8,3
		c2.1,2,2.7,4.8,4.3,7.2c-4.3-3-8.3-6.3-14.1-6.7c-3.1,4-3.9,9.2-4.8,13.7c0.2,1.9,1.6,2.2,2.1,3.3c-1,0.2-1.2-0.8-2.2-0.7
		c-0.8,1.4-1.5,3.4-4,3.7c0.3-2,3-2.9,1.7-5.8C454.4,350.6,449.7,345.3,448,338.1z"/>
	<path d="M489.2,319.4c-2,0-2.5-1.7-3.1-3.1c-1.6-3.3-3.2-6.5-5.9-9.2c-1.4-1.4-2.9-2.5-4.7-3.4c-2.3-1.1-4.7-1.7-6.7,0.6
		c-1.3-2.3-0.9-3.5,1.2-4.2c2.6-1,5.2-0.4,7.6,0.8c6.8,3.2,10,9.4,12.7,15.9C490.6,317.9,490.4,318.9,489.2,319.4z"/>
	<path d="M507.3,275.1c-0.4-4.9,0-9.6,0.9-14.5c1-0.8,1.9-1.9,3.2-2.2c2.2,1.6,2.2,1.6,4.4,12.3c-2.6-1.2-3.6-2.4-6.1-7.5
		C509.1,267.4,508.9,271.4,507.3,275.1z"/>
	<path d="M483.5,301.9c0.5-2.4,2.1-3.9,3.9-5.3c2.6-2,5.2-4,8-5.8c1.7-1.1,2.6-2.4,3.2-4.2c1.9-5.9,3.3-11.8,4.6-17.8
		c0.3-1.3,0.2-2.7,1.9-3.9c-0.6,5.8-2.4,10.8-3.3,16c-1.1,6.2-4,10.9-9.6,14.1C488.9,296.8,486.1,299.2,483.5,301.9z"/>
	<path d="M440.2,267.6c-4.4,6.4-10.6,11.4-14.5,18.2C424.4,281.5,433.5,270.3,440.2,267.6z"/>
	<path d="M497.8,295.5c3.8-6.9,11.9-12.5,15.8-10.6C508,288.3,502.4,291.1,497.8,295.5z"/>
	<path d="M434.4,228.9c-0.6-1.8,0.1-3.1,1.3-4c4.8-3.5,9.4-7.6,15.2-9.6c0.6-0.2,1.3-0.4,2.1,0.2C445.8,218.4,439.8,223,434.4,228.9
		z"/>
	<path d="M414.9,243.9c5.2,2.5,10.5,4.6,14.1,9.5C423.3,251.8,419.5,247.3,414.9,243.9z"/>
	<path d="M426.1,261.6c-4.3-5-10.1-7.6-16-10.5C416.4,251.1,425.5,256.9,426.1,261.6z"/>
	<path d="M413.8,259.4c-4.2,0.6-7.7,0.5-11.3-0.8C406.2,256.5,411,256.7,413.8,259.4z"/>
	<path d="M457.2,259.4c7,1.4,12.5,5.6,18.2,9.5C469.1,266.2,463.6,261.9,457.2,259.4z"/>
	<path d="M432.5,233.2c1.4,4.6,3.1,9.2-0.3,13.6C433,242.3,432.5,237.7,432.5,233.2z"/>
	<path d="M359.2,306.2c3.3-3.2,7.6-4.7,11.5-7c0.2,0.2,0.3,0.5,0.5,0.7c-3.7,2.5-7.5,4.9-11.2,7.4
		C359.7,306.9,359.5,306.5,359.2,306.2z"/>
	<path d="M438.8,262.8c3.2-0.8,6.1-0.3,9.1,0.6C446,264.6,440.9,264.3,438.8,262.8z"/>
	<path d="M478.9,279.9c-2.8-2.2-5.7-4.5-8.5-6.7c-0.1-0.1,0-0.4-0.1-1.2C473.7,274.4,476.9,276.4,478.9,279.9z"/>
	<path d="M431.9,261c0.5-2.2,0.5-2.2,2.7-2.5c0.9,0.9,0.6,2,0.8,3.4C434.1,261.8,433,261.7,431.9,261z"/>
	<path d="M402.5,337.2c-0.4,1.8-1.1,3.3-3.7,2.9C399.7,338,401.5,338.2,402.5,337.2z"/>
	<path d="M444.6,259.3c-1.6,0.3-3.2,2.3-5.3,0C441.3,259.3,442.9,259.3,444.6,259.3z"/>
	<path d="M464.4,214.2c1-0.6,1.8-1,2.7-0.8c0,0.3,0,0.6-0.1,0.7C466.2,214.4,465.4,215.2,464.4,214.2z"/>
	<path d="M457.8,215c0.8-1.3,1.7-1.5,3-0.8C460,215.3,459,215.4,457.8,215z"/>
	<path d="M426.2,272.9c0.3,1.5,0,2.4-0.9,3.3C424.6,274.9,424.9,274,426.2,272.9z"/>
	<path d="M486.9,258.2c-1.1-0.2-1.6-0.4-1.3-1.2C486.5,256.7,486.7,257.2,486.9,258.2z"/>
	<path d="M531.4,264.6c-0.1-0.5-0.3-1.1-0.5-1.7c4.9-2.4,9.6-4.8,14.4-8.1c0.4-2.2,2.6-3.6,4.5-4.7c-0.8-4-2.7-7.6-2-11.7
		c1.1,2,1.7,4.2,2.6,6.3c1.4,2.9,2.9,4,5.9,3.4c3.1-0.6,5.7-1.9,8.1-4.1c2.1-1.9,3.9-4,6.2-5.8c-4.4,0.5-8.6-0.2-13,0.1
		c0.2-1.6,0.9-1.7,1.6-1.8c3.8-0.7,7.6-1.4,11.5-2c4.8-0.8,9.5-1.5,12.7-5.8c2.4,1.1,1.9,2.4,0.7,3.7c-2.2,2.5-5.2,3.6-8.5,4.4
		c0.1,1.8,1.3,3.6-0.2,5.1c-1.1,0.1-1.1-1.6-2.3-1.4c-3.9,2-7.9,3.9-10,8.2c-3.2,0.2-5.8,1.7-8.1,3.5c-0.5,0.4-1.2,1-1.7,1
		c-4,0-6.8,2.4-9.7,4.6C539.8,260.8,535.5,262.7,531.4,264.6L531.4,264.6z"/>
	<path d="M507.1,215.9c11.4,5.4,29.1,27.7,25.1,36c-0.5,0.1-0.9-0.1-0.9-0.6c-0.4-7.5-4.7-13.2-8.8-18.9c-4-5.5-8.8-10.4-14.2-14.7
		C507.8,217.2,506.8,216.9,507.1,215.9z"/>
	<path d="M592,217.1c-3.1,3.4-1.7,7.8-3.5,11.2c0.8,1.2,1.4,2.1,2.2,3.2c1.3,0.3,2.8,0.7,4.4,1.1c0.1,1,0.1,2,0.2,3.3
		c-3.3-0.8-6.3-1.5-9.2-2.2c0.5-3.6,0.9-7.3,0.8-11c0-1.1-0.1-2.3-0.1-3.4c0-1.2-0.1-2.6,1.2-3.3C589.4,215.1,590.6,215.9,592,217.1
		z"/>
	<path d="M549.5,268.9c0.8,3.8,1.7,6.8,0.2,9.8c-1-2-0.3-4.4-1.4-6.7c-1.9,1.6-3.6,3.1-5.5,4.7c0.5,4.3,1.2,8.7,0.4,13
		c-0.2,0-0.5,0-0.7,0.1c-0.6-3.9-1.3-7.9-2-12.3c-2.3,1.7-4.4,3.2-6.4,4.6c-0.2,1.9-0.4,3.7-0.7,5.4c-0.2,0-0.4,0-0.5,0
		c-0.2-1.7-0.5-3.4-0.8-5.3C537.9,277.8,543.5,273.5,549.5,268.9z"/>
	<path d="M505.7,203.8c0.2-8.3,6.6-11.3,12.1-15.2c1.9,1.9,0.4,2.9-0.6,3.8c-2.3,2.2-4.8,4.1-7.2,6.3c-1.1,1.1-2.7,1.8-2.5,3.9
		C507.7,203.3,506.5,203.9,505.7,203.8z"/>
	<path d="M520.2,245.6c4.5,3.5,5.9,17.3,2.3,23C521.6,260.7,522.8,253,520.2,245.6z"/>
	<path d="M518.7,239.8c-5.4-6.8-12.5-12-17.8-18.8c0.3-0.3,0.7-0.6,1-0.9C508.1,226,514.8,231.6,518.7,239.8z"/>
	<path d="M529.1,258.5c-3.5-10.1-4.7-21.3-13.1-29.4C521.7,229.3,528.2,245.5,529.1,258.5z"/>
	<path d="M575,201.4c-2.6,3.3-4.2,7.9-9.9,7c-1.5-0.2-3.1,0.2-3.4,2.3c-0.1,0.6-1,0.8-1.8,0.5c0.2-3.8,3.6-4.6,6.1-6.4
		c1.2,1.4,2.4,1.4,3.6,0.1c0.4-0.6-0.7-1.2,0-1.9C571.4,202.5,573.3,202,575,201.4L575,201.4z"/>
	<path d="M534,240.2c2.4,4.8,6.3,9.3,3.7,16c-2.5-2.7-1.8-5.7-2.3-8.2C534.9,245.4,533.4,243,534,240.2z"/>
	<path d="M606.1,296.9c1.3-0.7,2.5-1.8,3-3.5c0.4-1.5,0.2-3.2,1.5-4.4c2.5,2,1.5,5.4-2.2,8.3c-0.2,2.3,2.9,4.5-0.1,7.1
		C608.2,301.6,604.8,300.4,606.1,296.9z"/>
	<path d="M490.3,207.6c7.9,2.4,15.9,3.9,23.3,7.4c0.6,0.3,1.3,0.5,2,1.8C506.9,213.3,498.3,211.3,490.3,207.6z"/>
	<path d="M576.4,249.9c-0.5-0.6-0.4-0.9-0.3-1.3c0.9-2.1,1.9-4.1,1.8-6.5c-0.1-2.3,1.2-3.8,3.6-4.2c1.3-0.2,2-1.9,3.9-1.4
		c-0.8,2.9-4.5,3.3-5.2,6.1C579.6,245.3,577.9,247.4,576.4,249.9z"/>
	<path d="M564.8,257.9c-1.2,2.4-3.3,3.9-5.2,5.6c-0.4,2.2,1.1,4.1,0.4,6.3c-1.5-1.4-1.1-3.5-2.1-5.1c-1.8,0.1-2.2,2.2-3.8,2.6
		C554.4,265.6,560.3,260.3,564.8,257.9z"/>
	<path d="M472.7,205.4c4.6,0.6,9,1.4,13,3.7C481,209.3,477,206.8,472.7,205.4z"/>
	<path d="M462.9,203.4c3.7-1.4,7.6-2,11.8-2.3C473,202.8,468,203.8,462.9,203.4z"/>
	<path d="M594.1,307.5c-1.2-2.1-1.4-4,0.7-5.6C597.4,304.7,597.2,306.4,594.1,307.5z"/>
	<path d="M485.8,210.7c4.3,1,8.8,1.2,12.7,3.5C494,214,489.9,212.4,485.8,210.7z"/>
	<path d="M607.9,267.3c-1.9,3.3-7.4,2.2-7.7,7.1c-0.3-3,1.3-4.8,3.4-6.6C605,268.2,606.5,268,607.9,267.3z"/>
	<path d="M542.5,233.2c-3.4,2.8-4.9-1-7.2-1.4C538.5,231,540.3,231.4,542.5,233.2z"/>
	<path d="M567,263.3c-1.2-3.2,1.4-6.2-0.4-9.3C569.4,254.5,569.4,258.6,567,263.3z"/>
	<path d="M577.9,275.5c0.3-1.7-1.3-3.1-0.6-4.9c1.9,1.1,3.6,4.7,3.2,6.7C579.1,277.4,578.9,275.7,577.9,275.5L577.9,275.5z"/>
	<path d="M541.5,189.1c-0.7,2.8-1,3.1-3.5,4C537.9,189.9,538.1,189.7,541.5,189.1L541.5,189.1z"/>
	<path d="M525.3,228.8c2,0.9,3,2.6,3.9,5C526.4,232.9,526.1,230.7,525.3,228.8z"/>
	<path d="M518.5,183.1c-1.2,2.3-3.4,2.9-5.7,3.2C514.4,184.6,516.4,183.9,518.5,183.1z"/>
	<path d="M592.6,223.7c-1.1-2.1-0.2-3.2,1-4.6C594.5,220.9,594.6,222.3,592.6,223.7z"/>
	<path d="M485.3,198.5c-1.7,0.1-3.4,0.1-5.3-1.5C482.3,196.9,484,196.9,485.3,198.5z"/>
	<path d="M506.6,187.9c-0.4,1.7-1.6,2.5-3.8,3.1C503.7,188.9,505,188.3,506.6,187.9z"/>
	<path d="M552.2,235.3c1.6-0.1,2.9,0.3,4.3,1.6C554,236.9,554,236.9,552.2,235.3z"/>
	<path d="M598,235.5c0.9,1.2,0.7,2.1,0.3,3.1C596.3,237,596.3,237,598,235.5z"/>
	<path d="M524.5,185.6c-0.9,1.9-1.9,2.4-3.7,2C521.6,186.2,522.6,185.5,524.5,185.6z"/>
	<path d="M547.9,233.1c1.7-1.2,2.5-0.4,3.4,0.6C549.9,234.7,549.1,234,547.9,233.1z"/>
	<path d="M596.9,292.3c1,1.2,1.1,2.1,0.2,3.2C596.1,294.5,596.4,293.6,596.9,292.3z"/>
	<path d="M579.8,199.7c0.5-1.5,1.3-1.1,2.1-1.2C581.6,199.9,581,200.1,579.8,199.7z"/>
	<path d="M575.1,201.5c0.3-0.7,0.5-1.5,1.6-1.2C576.9,201.9,575.8,201.4,575.1,201.5L575.1,201.5z"/>
	<path d="M576.9,251.3c0.7,0.3,0.9,0.6,0.6,1.1C577,252.3,576.7,252.1,576.9,251.3z"/>
	<path d="M341.3,385.9c-2.9,0.6-4.9,2.8-7.3,4.3c-2.4,1.5-4.8,3.1-7.2,4.7c-0.9,0.6-1.7,0.8-2.5-0.7c2.2-2.2,4.5-4.5,7.3-6.3
		c3-1.9,6.2-3.6,7.6-7.4c0.7-2,2.8-3.2,4.4-4.5c0.6-0.9-0.6-1.3-0.1-2.4c0.9-1.1,2.3-1.7,4.8-1.4c-3.2,2.4-3.8,6-6.9,8.4
		c7.3,1.3,13.5-0.9,19.5-3.5c1.1,2.3-0.4,2.9-1.3,3.5c-3.4,2.4-7.2,3.3-11.2,3.7C346,384.6,343.3,384,341.3,385.9L341.3,385.9z"/>
	<path d="M365.6,360.8c-3.7,2.1-4.4,6.1-6.4,9.2c-1.5,2.4-3.5,4.5-6,5.9c-1.2,0.7-2.5,1.2-3.6-0.6c2.2-2,4.4-3.9,6.4-5.9
		c1.9-1.8,3.8-3.4,4.8-6C361.5,361.8,363.3,360.7,365.6,360.8z"/>
	<path d="M312.5,368.8c3.2-2.7,7.4-3.8,10.4-6.8C322.1,366.4,317.9,369.2,312.5,368.8z"/>
	<path d="M364.7,331.9c-1.8,2.8-4,5.4-6.2,7.9c-1,1.1-2.5,1.5-4.4,0.3c3.5-3,6.8-5.8,10.1-8.6C364.3,331.6,364.5,331.7,364.7,331.9z
		"/>
	<path d="M333.6,353.6c-0.2,4.6-5.2,9-9.4,8.2C327.8,359.7,329.9,355.9,333.6,353.6z"/>
	<path d="M344,348.4c-2.7-1.9-5.9-2.3-9.5-3.2C338.8,344.1,342.6,345.5,344,348.4z"/>
	<path d="M302.7,376.4c2.1-2.4,4.8-3.8,7.6-5.2C308.3,373.6,305.8,375.4,302.7,376.4z"/>
	<path d="M380.8,343.2c-1.8,2.2-3.6,4.5-6.9,4.6c2.2-1.7,4.3-3.5,6.5-5.2C380.5,342.8,380.7,343,380.8,343.2z"/>
	<path d="M352.9,367.6c-0.5,2.6-1,4.5-3.2,5.2C348.8,371,348.8,371,352.9,367.6z"/>
	<path d="M356.5,386c1.8,1.5,1,3.3,1.4,5C355.4,389.3,355,388.2,356.5,386z"/>
	<path d="M369.9,325.4c-0.6,2.1-1.5,3.4-3,4.2C365.9,327.2,366.1,326.9,369.9,325.4z"/>
	<path d="M358.3,394.9c1.4,1,1.3,2.1,0.5,3.1c-0.8,0.9-1.7,1.1-2.5-0.2C356.3,396.5,357.1,395.7,358.3,394.9z"/>
	<path d="M371.4,323.9c-0.1-1.6,0.6-2.3,2.3-2.4C373.8,323.3,372.8,323.7,371.4,323.9z"/>
	<path d="M371.7,358.5c0.6-1.4,1.8-1.6,3.4-2C374.2,358.4,373.1,358.7,371.7,358.5z"/>
	<path d="M337.2,351.7c-0.6,1.5-1,1.8-1.8,1.3C335.2,351.7,336.1,352.1,337.2,351.7z"/>
	<path d="M352.3,350.8c-0.9,0-0.9-0.8-1.3-1.2c0.6-0.7,1-0.3,1.2,0.1C352.5,350,352.9,350.4,352.3,350.8z"/>
	<path d="M339.9,528c1.1-0.5,2.2-1.1,3.5-1.2c2.4-0.1,4.7,1.3,5.7,3.6c1,2.4,0.5,4.8-1.7,6.4c-1.1,0.8-2,1.8-2.9,2.7
		c-6.6-4-7.4-5.6-5.1-11C339.5,528.2,339.7,528.1,339.9,528z"/>
	<path d="M339.9,528c-0.2,0.2-0.3,0.3-0.5,0.4c-0.7,0.3-1.4,0.7-2.1,1c-2.5,1-5.1,0.2-6.7-1.9c-1.6-2.1-1.5-5,0.1-6.9
		c1.6-1.8,4.3-2.5,6.5-1.5c2.5,1.1,4,3.8,3.4,6.4C340.5,526.3,340.2,527.2,339.9,528z"/>
	<path d="M324.5,517.3c-1.4,0.2-2.2,3.1-3.9,0.4c1.8-2.8,4.5-4.9,7-7.6c2,2,5,3.1,4.9,6.5c0,1.8-1.5,2.8-4.8,3.4
		c-0.8,0.9-0.2,2.3-1.1,3.2C323,522.3,327.2,518.6,324.5,517.3z"/>
	<path d="M330.7,500.5c1.5,0.8,1.1,1.9,0.8,3.2C329.8,502.9,329.8,501.9,330.7,500.5z"/>
	<path d="M548.7,182.6c2.8-1.9,5.6-3.8,9.2-2.2C555.1,182.3,551.8,182,548.7,182.6z"/>
	<path d="M522.4,173.7c0-1.3-0.5-2.7,1.5-3.7C525.2,172,523.4,172.7,522.4,173.7z"/>
	<path d="M535.7,168.7c0.1-0.2,0.2-0.4,0.3-0.5c0.4-0.2,0.6,0.1,0.6,0.4c0,0.2-0.1,0.5-0.2,0.5C536.1,169.2,535.8,169.1,535.7,168.7
		z"/>
	<path d="M461.1,386.2c-0.7-1.7-0.7-2.8-0.5-4.6C461.8,383.2,461.4,384.4,461.1,386.2z"/>
	<path fill="#FFFFFF" d="M574.1,237.5c-0.3,0.6-0.7,1.2-1.4,0.5C572.9,237.1,573.5,237.2,574.1,237.5z"/>
	<path fill="#FFFFFF" d="M345.6,535.1c-1-0.5-0.5-2-1.9-1.9c-1.4,0.1-0.8,1.4-1.4,1.9c-1.9-1.8-2.2-3.3-0.8-4.8
		c1.2-1.4,3.3-1.6,4.6-0.3C347.7,531.7,347.6,533.4,345.6,535.1z"/>
	<path fill="#FFFFFF" d="M338.4,524.4c-0.1,1.8-2,3.4-3.7,3.2c-1.7-0.2-3-1.8-2.7-3.6c0.3-1.9,1.5-3,3.5-3
		C337.2,521,338.5,522.6,338.4,524.4z"/>
	<path fill="#FFFFFF" d="M330.1,516.5c-2.1,1.8-2.8,0-3.8-0.9c0.2-1.2,0.8-1.7,1.8-2C329.1,514.2,330,514.9,330.1,516.5z"/>
</g>
</svg>
