<?xml version="1.0" encoding="utf-8"?>
<!-- Generator: Adobe Illustrator 19.1.0, SVG Export Plug-In . SVG Version: 6.00 Build 0)  -->
<svg version="1.2" baseProfile="tiny" id="Layer_2" xmlns="http://www.w3.org/2000/svg" xmlns:xlink="http://www.w3.org/1999/xlink"
	 x="0px" y="0px" width="900px" height="600px" viewBox="144 97 900 600" xml:space="preserve">
<g>
	<path d="M806.6,450.2c-2.3,1.2-2.3,3.8-3.5,5.9c1.8,3.1,0.5,7.1,3.1,10.2c-3.1,4-6.9,7.8-7.4,14.2c-2-3.3-0.5-5.6,0.2-7.8
		c0.7-2.4,2.3-4.2,3.9-6.3c-0.9-2.9-0.5-6-1.6-8.9c-0.6-1.8,0.3-3.5,0.8-5.4c-1.1-0.5-1.3,0.9-2.1,0.9c-1.2-0.4,0.1-1.3-0.4-1.8
		c-2.5-0.8-5-0.1-7.2,0.3c-1.3-0.6-1.2-1.7-1.6-2.6c-0.9-0.3-1.8-0.6-2.7-1c-5.8,1.7-11.9,2.2-18,2.8c-2,0.2-4-0.2-6.5-1.5
		c4.6-0.6,8.4-1,12.4-1.5c-0.8-1.6-2.5-1.2-3.6-2.1c-1.7,0.8-3.5,0.9-5.3,0.7c-4.2-0.4-8.3-1.7-12.6-0.8c-0.6,0.1-1.4-0.4-2.1-0.6
		c-2.6-0.7-5.1-1.5-7.7-2.2c-1.2-0.3-2.3-0.8-3.8,0.2c-1,2.1-2.2,4.5-3.5,7.3c5.2,6.3,7,14.1,9.1,21.8c2.7,0.6,4.7-0.8,7.6-1.5
		c-2.2,2.8-4.7,3.9-7.5,4.8c3.5,8.3,4.8,16.7,3.4,25.5c-0.4,2.6-0.6,5.3-2.3,7.9c-0.8-1.4-0.4-2.6-0.3-3.7c0.3-3.4,0.8-6.8,1-10.2
		c0.3-5.1-0.4-10.1-2.3-15.3c-0.6,1.7-0.1,2.8,0.1,4c1.4,10.9-1.4,20.5-9.5,28.2c-0.2,0.2-0.4,0.3-0.5,0.5c-1.4,2-2.8,4-4.5,5.7
		c-1.6,1.7-3.5,2.8-5.7,4.5c3.5,0.3,6.3-0.4,9.2-0.8c2.9-0.3,5.2-2.3,8.5-2.7c-1.6,2.3-4.3,2.1-5.8,4c9-1.4,17.4-4,27.3-7.2
		c5.3-3.2,8.2-10.2,12.5-16.1c-4.5,4.1-9.4,7.6-14.5,10.8c-4,2.5-8.4,3.1-12.8,3.6c-1,0.1-2,0.1-2.6-1c-0.4-1.1,0.4-2,0.4-2.9
		c1.5-0.4,0.7,1.1,1.5,1.3c4,0.1,7.8-0.5,11.4-2.7c5.2-3.2,10.3-6.5,14.7-10.8c1.7-1.6,3.6-3.2,4.4-6c-3.1,0.5-5.8,0.3-8.4-1.2
		c4.4-0.5,8.7-1.1,13-1.1c4.4,0,8.8,0.7,13.4,0.6c-0.2-3-1.3-5.6-1.1-8.4c1.7-0.1,1.9,1.1,2.2,2.1c1.5,4,3.1,7.9,4.3,12
		c0.9,3.2,2.6,5.4,6.1,6.3c3.7-3.1,8.3-3.3,13.1-2.6c-1-1.8-3-1.7-3.5-4c2.1,0.9,3.8,1.4,5.4,2.5c-2.3,3.8-3,4-7.8,2.6
		c-1.4,0.2-2,1.3-2.9,2.1c-3,2.7-6.8,2.6-9.1-0.8c-2-2.9-4.5-5.4-5.6-8.8c-2.4-1.1-2.4-1.1-6.4-0.4c0.4,2.6,0.4,5.3,0.2,7.9
		c-0.3,4.2-1.8,8-4.1,11.5c-1.6,2.4-3,4.9-4.5,7.4c-0.1-1.5-0.2-2.9,0.7-4.2c4.7-6.8,4.9-14.6,4.9-22.4c0-0.2-0.2-0.4-0.4-0.7
		c-1.4-0.5-3,0.4-4.7-0.6c-1,3.9-3.9,6.7-4,10.6c-0.4,0.8-1.2-0.3-1.9,0.5c-3.1,4.1-6,8.2-9.5,11.9c1.4,0.8,2.6-1.1,4.5,0.6
		c-4.6,0.5-7.8,3.1-11.6,4.2c-1.1,0.3-1.8-0.5-2.9-0.5c-2,1.1-4.1,2.3-6.2,3.5c-0.4,9.3-0.7,18.4,3.4,27c0.6,1.2,0.9,2.5,1.2,3.8
		c0.5,1.9,0.3,3.8-0.2,5.7c-2.1,7.4-3.7,14.6-2.4,22.5c1.4,8.3,1.3,16.7,1.4,25.1c0.1,8.3,1.1,16.5,2.6,24.7
		c0.4,2.1,0.9,4.4,0.8,6.5c-0.2,2.5,0.4,4.8,0.9,7.2c1.1,5.2,3.3,10.2,2.4,15.6c1.1,0.6,2.2,1.8,2.9,1.6c1.8-0.5,2.8,0.6,3.9,1.4
		c1.7,1.3,3.4,1.7,5.3,1.1c0.5-0.8,0.4-1.5,0-2.3c-1.2-0.7-2.7-1.2-3.7-2.3c-1.2-0.1-1.9,1.4-3.1,0.6c0.4-2.6,2.2-2.3,3.8-1.9
		c0.8-1.3-0.1-2.3,0.3-3.4c2,0.9,1.6,2.6,1.6,4c0.9,0.4,1.5,1.2,2.5,0.8c0-0.5,0.1-0.9,0.1-1.6c1.4,0.1,2.6-0.9,3.6-0.6
		c1,0.6,0.5,1.3,1.4,1.5c1.5-0.3,3.3-0.6,4.6-1.5c0-0.8-0.9-1.2-0.1-1.8c1.2-0.1,1.2,1.4,2.2,1.7c3.9,1.1,7.9,0.3,11.9,1.6
		c3.8,1.2,7.3,3.5,11.6,3.1c-3-2-5.6-4.5-9.2-5.5c-2.1-0.6-4-1.8-5.8-3c-2.2-1.5-4.4-2.5-7.4-1.8c-2.9,0.7-6.1,0.5-9.1,0.1
		c-2.1-0.3-4.1-0.9-5.3-2.9c0.2-1.5,0-3-1.4-4.2c-1.1,0.5-2.1,1-3.5,1.6c0.7-1.7,1.8-2.5,2.5-3.5c1.8-4.6,0.9-9.4,0.8-14.1
		c0-3,0-6.1,0.6-9.1c1.4-7.7,2.4-15.6,5-23.1c1.7-4.9,2.8-10,4.3-15.1c1.3-4.7,1.7-9.6,1.7-14.5c0-2.6,0-5.4-3.1-7.3
		c0.7-12.8,0.6-25.8,0.4-38.2c0.7-1.5,1.6-2,2.4-2.6c0.3,3.6,0.2,7.3,0,10.9c-0.1,2.6,0,5.1,0.4,7.6c0.7,5,0.6,10-0.1,14.9
		c-0.4,3,0,5.4,1.7,8.2c2.6,4.1,2.6,8.9,1.8,13.8c-1.6,9.8-5.2,19-7.7,28.5c-2.5,9.7-4.4,19.5-3.7,29.5c0.1,2-0.4,3.9-1.2,5.7
		c-0.4,1-1,1.9-1,3.7c0.1,1.9,2.5,3.7,2.4,6.3c2.1,1.3,4.2,1.5,6.4,1.6c2.4,0.1,4.8-0.2,7.3,0c1.7,0.2,3.2,0.5,4.7,1.5
		c1.4,0.9,3.3,1.5,5.1,1.5c4.8,0,9,1.2,13.1,3.7c2.1,1.3,4.4,2,6.8,2.7c1.5,0.5,2.7,1.1,2.7,3.2c-1.6,1.9-3.7,2.1-6.1,1.5
		c-2.1-0.5-4.1-0.8-5.4,1.2c-3.4-0.1-6.3-1.5-9.2-2.7c-6.2-2.7-12.4-3-18.9-1.3c-1.8,0.5-3.6,0.6-5.4,0.1c-0.8,1.5,0.3,3.3-1.1,5
		c-2.1,1-4.5,1-6.9-0.4c-1.3-0.7-2.4-1.3-4-1.5c-2.9-0.3-3.9-3-4.7-5.3c-0.4-1.2-0.3-2.6-0.4-4c-0.2-1.7-0.3-3.3-1.5-4.8
		s-1.5-3.4-1.4-5.2c0.2-7.1-1.7-14-2.5-21c-0.4-3.1-0.9-6.3-1-9.4c-0.4-12.4-1.4-24.8-1.6-37.2c-0.1-4.6-0.1-9.2,0.5-13.8
		c0.2-1.7,0.3-3.3,1.3-4.8c1-1.6,0.7-3.6,0.1-5.3c-2.7-7.4-3.4-15.1-4.8-22.8c-0.4-2.2-0.3-4.6-1-7.1c-1.1,0.2-2.3,0.4-3.4,0.7
		c-1.9,0.5-3.8,0.5-5.7-0.2c-2-0.7-4.1-0.9-6.1-0.3c-4.1,1.3-8.3,1.6-13.1,0.9c-0.3,3.7-1.6,7.1-1,11c0.7,4.7-0.2,9.5-0.8,14.2
		c-0.6,5.3-1.8,10.6-4.3,15.4c-0.8,1.5-0.6,3-0.3,4.6c1.7,9.7,1.6,19.4-0.6,29c-0.2,0.8-0.5,1.6-0.7,2.5c-0.1,0.5-0.5,1.1-0.3,1.4
		c1.3,2.4,0,4.5-0.7,6.6c-3.2,9.3-5.9,18.8-7.7,28.5c-1.7,9.2-2.2,18.6-1,28c0.1,0.7,0.4,1.4,0.6,2c5.6,2.5,11.3,3.5,17.2,3
		c3.5-0.3,6.5,0.6,8.8,3.3c1.8,2,4.4,2.6,6.7,3.4c2.1,0.7,4,1.5,5.8,2.9c2,1.6,4.6,2.2,7,3c1.5,0.5,3.1,0.7,4.1,2
		c-0.1,1.3-1,1.4-1.8,1.6c-3.3-2.1-7.1-2.8-10.6-4.5c-0.7-1.3-1.6-2.2-3.4-2c1,1.2,1.9,2.1,3.3,2.1c1.6,2,4,2.6,6.2,3.5
		c1.2,0.5,2.6,0.8,2.8,2.4c-3.9,3.8-8.1,3.8-14.8,0.3c-2.4,0.2-3.7,2.9-6.3,2.4c-2.4-0.4-4.8-0.7-7-1.8c-2.1-1-4.3-1.7-6.3-2.4
		c-6.9,1.3-13.7,2.3-20.5-0.3c-2.9-1.1-4.7-3-4.9-6.2c-0.8-8.8-3.8-17.1-5.3-25.7c-0.5-2.6-2-5-2.7-7.5c-1.2-4.6-2.1-9.2-2.5-14
		c-1-10.5-0.1-20.9,0.2-31.4c0.1-4.6,1.3-9.1,2.1-13.9c-1.5-4.6-1.8-9.5-0.2-14.4c1.5-4.7,1.6-9.5,0.5-14.4
		c-1.4-6.3-2.7-12.6-2.4-19.1c0-0.4,0-0.7-0.1-1.1c-0.6-3.7-1.1-7.4-0.8-11.1c0-0.7,0.2-1.5-0.5-2.2c-1.8,0.2-3.7,0.5-5.6,0.7
		c-1.8,0.2-3.7,0.6-5.4,0.2c-4.5-1.1-8.6,0.1-12.9,1.3c-2.4,0.7-5,1.4-7.5,0.4c-2.2,0.9-4.3,2.6-6.8,0.8c-0.4-0.3-1.1,0.9-1.8,0.6
		c-1.2-0.5-2.1-1.1-2.9-1.9c-4.4-4.5-9.6-8.2-14.2-12.6c-1.8-1.8-3.7-3.5-5.4-5.5c-2.4-2.9-5.4-4.8-8.7-6.3
		c-1.9-0.8-3.2-2.6-5.1-3.5c-2.5-1.2-4.9-2.6-7.5-4c-1.6,0.6-3.1,1.1-4.7,2.4c2.4,0.9,4.6,1.5,6.7,2.3c3.3,1.3,6.4,3.1,9,5.5
		c1.1,1,2,2.2,2.6,3.5c0.6,1.2,0.5,2.3-0.6,3.2c-1.9-3.9-5.2-6.2-8.7-8.3c-3.5-2.1-7.1-3.6-11-4.5c-2,1.3-4,2.5-6.5,4.1
		c1-2.3,2.9-2.8,4-4.1c-1.1-1.2-2.5,0.1-3.6-0.8c1.6-2.6,4.1-1.2,6.2-1.3c1.5-0.8,2.8-2.2,4.8-2.5c-1.4-1.6-3.3-1.5-4.6-3.1
		c2.1-0.2,3.4,1.4,5.1,1.4c1.1-2.1,1-4.1,0.1-6.3c3,1.8,1.3,4.5,1.8,7c1.8,1.3,4.2,1.7,6.9,3.3c-1-2.3-2.2-3.9-2.2-5.5
		c-0.2-4-2.1-7.4-3-11.1c-0.9-3.8-0.2-7.4,1.2-11.5c-5,1.5-9.6,3.1-14.3,4c-1.2,0.2-1.8,1.2-2.4,2.1c-2.4,3.3-5.5,5.8-9.1,7.7
		c-2.7,1.4-5.1,3.3-7.4,5.3c-2.9,2.6-5.8,5.2-9,7.5c-1.5,1-2.3,2.5-3.2,3.9c-6.1,9.9-6.7,20.4-3.3,31.3c2.1,6.8,5.6,12.9,9.4,18.9
		c1.2,1.8,1.8,3.8,2.6,5.8c1.2,3.2,3,6.1,5,8.9c2.1,3,4.9,5.5,7,8.4c6.7,9.3,16.2,15.3,25.1,22c3.8,2.9,7.6,5.7,10.7,9.4
		c1.2,1.4,2.6,2.6,4,3.7c2,1.5,4.2,2.2,6.8,2.1c12.6-0.1,24.1-3.9,35.1-9.6c1.6-0.8,3.1-1.9,4.6-3c-1.5-5.6-4.4-10.6-6.3-16.1
		c-0.2-0.6-0.5-1.1-0.9-1.6c-5.3-6-8-13.6-11.9-20.4c-1.5-2.8-3.1-5.5-5.1-8c-1.6-2.1-3.5-4.2-3.4-7.1c0-0.8-0.4-1.5-1-1.9
		c-1.5-1-2.2-2.5-2.5-4.4c-4.8,1.3-8.5-0.4-11.8-3.5c4.2,1.1,8.3,2.2,12.3,1c1.7,0.9,1.5,2.5,2.3,4c1.7-1.7,3.2-3.1,3.8-5.2
		c-0.5-1.2-1.5-1.4-2.4-1.8c-0.9-0.4-1.5-1.1-1.9-2.1c-5.9,1.4-11.5,0.6-17-1.5c-3.6-1.4-6.9-3.2-7.7-7.9c7.5,4.2,15.3,7.8,24.3,7
		c1.1,1.5,2.5,2.1,4.2,2.4c1.7,0.3,3.3,1,3.8,3.1c-0.4,3.7-3,6.1-5.7,8.6c0.6,2.3,1.5,4.4,3,6.1c5.8,6.6,9,14.7,13.1,22.2
		c0.5,1,0.9,2,1.6,2.9c5.7,7,9,15.2,10.9,23.9c0.5,2.1,1.5,4.1,2.6,6c3,5,4.6,10.4,4.2,16.3c-0.1,1,0.1,1.9,0.4,2.9
		c1.4,4.4,0.3,8.3-2.5,11.9c-1.5,1.9-3,3.8-4.3,5.9c-2,3.3-5.2,4.7-8.6,5.4c-2.9,0.5-5.8,1-8.6,1.2c-3.6,0.3-7.2,0.3-10.8-0.2
		c-10.3-1.4-20.1-4.5-30.1-7.4c-8.4-2.5-15.8-6.8-23.1-11.4c-6.1-4-12.8-7-18.8-11.2c-0.6-0.4-1.3-0.6-2-0.7
		c-4.6-0.3-9.2-0.9-14.3-0.8c0.9,1.5,0.4,2.6-0.2,3.8c-1.9,3.5-3.7,7.1-5.6,10.6c-0.4,0.7-0.8,1.6-1.4,2.1c-3.5,2.5-4.5,6.2-5,8.6
		c0.9,7.9,6.5,11,10.7,14.8c-0.7,4-0.9,7.6-2.9,10.7c-1.2,0.1-0.7-0.9-1.2-1.2c-0.2-0.1-0.5-0.2-0.6-0.1c-5.5,2-11,1.6-16.5-0.2
		c-4.4-1.5-8.8-2.9-13.2-4.2c-3-0.9-4.8-3.3-6.4-5.7c-1.8-2.9-3.4-5.9-4.9-8.9c-2.4-5.1-2.6-10.4-0.2-15.5c1.6-3.4,1.2-7.2,2.2-10.7
		c-3.1-5-6.3-9.9-7.2-15.8c-0.9-5.8,0.2-11.4,0.7-17.3c1.9-1.2,1.8-3.7,3.2-5.2c0.4-0.2,0.6-0.4,0.8-0.4c6,0.4,11.8-1.1,17.8-0.9
		c1.5,0.1,2.9,0.3,4.4,0.4c3.3,0.3,6.5,0.9,9.8,0.3c3.4-0.5,4.3,0.4,5,4.2c3.8,1,7.8,2.1,12.4,3.3c-2.9-3.8-5.2-7.1-8.6-9.4
		c-1.7-1.1-1.4-3.4-3.2-4.3c-5.8,0.1-11.8,3.9-17.7,0.6c-4.6,1.8-9.2,2-13.9,1.9c-2,0-3.8,0.2-5.7,0.7c-5.5,1.6-11.3,1.7-16.9,3
		c-4.4,1-8.9,1.1-13.4,1.2c-7.7,0.2-15.3,1.1-23,1.1c-4.5,0-8.6,0.7-12.8,2.1c-3.7,1.2-7.5,2-11.4,2.2c-1,0.1-2,0-3,0.9
		c0,1,1.5,1.4,1.4,2.6c-0.1,1.1-0.1,2.2-0.3,3.3c-0.4,2-0.8,4.1-1.4,6c-0.6,1.8-1.1,3.5,0.3,4.9c-1.6,6.4-4.5,12.1-4.8,18.8
		c0.1,1.3,2.5,2.2,1.5,4.3c-2.3,0.4-2.9-2.2-4.9-2.7c-2.8,0.5-6,1.5-9.5,0.7c0.9-1.5,2.8-1,3.6-2.1c0.6-1.3-0.9-2-0.7-3.1
		c2.7-1.2,5.1-0.3,6.7,2.6c0.3-2,1-3.9,0.9-6c-2.7-0.5-5.9,2.2-7.9-1.2c1.7-3.4,3.9-3.5,8.4-0.5c0.3-0.8,0.4-1.6,0.1-2.6
		c-2.8-0.8-6.5,0.3-8.3-3.2c0.2-1.8,1.3-2.1,2.9-1.8c2.1,0.4,4.1,1.3,7,1c-3.1-2.1-6.8-1.3-8.6-4.3c0.6-2.7,1-3,3.3-2.4
		c1.1,0.3,2,0.8,3.1,1.1c0.9,0.3,1.8,0.8,2.9,0.5c1-2.2,0.2-4.5,0.4-6.8c0.1-2.2,0.3-4.3,1.2-6.3c-3-0.7-5.9,0-8.7-0.9
		c-1.7,1-4,1.2-5.6,2.9c-2.4-1.3-5-2-6.5-4.5c-0.7-1.2-2.6-1.6-3.9-2.5c-1.9-1.3-4.3-2.3-5-4.6c-0.7-2.6-0.4-5.3-0.2-7.9
		c0.1-0.9,1.1-1.7,0.5-2.9c-2.8,2.5-6,4-9.2,5.6c-3.4,1.7-6.6,4-10.1,5c-1.5,2.2-1.3,4.1-1.1,6.2c0.5,5.2,2,10,5.2,14.1
		c0.7,0.9,0.8,2,1.1,3.1c1.2,0.5,2.4,1.1,3.6,1.5c0.8-0.1,0.7-1,1.6-1.4c3.2,1.5,5.3,4.4,7.5,7.1c0.1,2.7,0.2,5.3,0.1,7.8
		c0,2.6-0.4,5-1.2,7.3c0.4,3.9,2.5,6.9,4.6,9.9c0.3,0.5,0.8,1,1.3,1.2c3.9,1.9,7.5,4.4,12.2,4.3c3.4-0.1,6.8,0.6,10.2,0.2
		c2.9-0.3,5.8-0.5,8.6-1.5c2.1-2.6,2.1-2.6,0.7-8.4c-1.4-1.5-3.9-1.3-5-3.3c0.2-0.3,0.3-0.7,0.4-0.7c3.6-0.9,8.6,1.8,8.9,5.2
		c0.3,2.8-0.6,5.5-1.8,8c-0.7,1.5-2.2,1.8-3.7,2.1c-4.4,1-8.9,1.3-13.4,1.2c-2.5-0.1-5.1-0.5-7.7-0.2c-0.6,0.1-1.2-0.1-1.8-0.3
		c-4.9-2.2-9.7-4.7-13-9.1c-2-2.6-2.9-5.7-2.9-8.9c0-3-0.1-6.1,0.9-9s0.7-5.5-2-7.6c-0.6-0.2-0.5,0.5-0.9,0.8
		c-0.6,0.3-1-0.3-1.5-0.5c-10.1-3.1-13.2-11.3-14.9-20.4c-0.5-2.6-0.7-5.3,0.1-8c0.6-1.9,1.4-3.4,3.4-3.9c3.1-0.9,5.7-2.9,8.5-4
		c4.3-1.6,7.9-4.1,11.3-7.1c2.6-2.3,5.5-1.3,8.2,0c0.7,0.4,1.3,1.1,1.8,1.6c6.4-1.1,12.7-1.7,18.8-3.1c2.9-0.6,5.6-1.5,8.2-2.9
		c2.9-1.5,6.1-2.3,9-3.8c5.5-2.9,10.7-6.2,15.9-9.6c1.9-1.2,3.9-2,6-2.5c5.3-1.3,10.7-2.4,16.2-1.7c3.2,0.4,6.3-0.6,9.4-1.1
		c4.9-0.9,9.9-1.3,14.9-1.7c4.8-0.4,8.8-2.6,12.7-5.2c1-0.7,0.8-1.7,1.1-2.1c4.7-3.4,9.7-5.5,14.2-8.4c2-1.3,4.1-2.6,6.4-3.4
		c1.1-0.4,2.1-1,2.6-1.9c1.5-2.6,4-3.7,6.8-4.6c0.6-0.2,1.1-0.4,1.6-0.6c2.8-4.4,3-4.6,6.4-6c1.3-4.1,3.2-8.1,5.8-11.9
		c5.4-7.9,12.2-14.1,20.6-18.6c3-1.6,5.9-3.3,7.8-6.4c0.8-1.3,2.1-1.9,3.6-2.2c6-1.2,11.7-3.1,17.6-4.8c1.9-0.5,3.7-1.1,4.6-3.1
		c3.5-0.3,6.8-0.1,9.9,0.8c2.4,0.7,4.5,0.4,6.7-0.4c2.7-1,5.4-2.3,7.9-3.8c5.4-3.2,11.1-5.5,17.1-7.3c9-2.6,17.9-5.4,26.6-8.9
		c6.5-2.6,13.6-3.8,20.6-4.5c6.4-0.6,12.8-1.1,19.3-1.7c2.3-0.2,4.6-0.7,6.8-1c6.1-0.8,12.1-0.9,17.9,1.6c2.9,1.2,6.1,1.6,9.1,2.5
		c1.2,0.3,2.4,0.1,3.6-0.3c4.8-1.4,9.5-1.7,14.3,0.2c2.6,1,5.3,1.8,7.9,2.7c1.9,0.7,3.8,1.7,5.1,3.2c1.7,0.2,3.2-0.2,4.8-0.5
		c1.2-0.2,2.2-0.9,2.4-1.9c0.4-2.2,2.1-2.9,3.8-3.4c2-0.6,3.3-1.7,4.6-3.4c2.2-2.9,5.2-5.1,6.9-8.4c0.4-0.8,1.5-1.3,2.3-1.8
		c4.8-3,9.2-6.4,13.4-10.1c2-1.9,4.7-2.9,6.3-5.3c0.6-0.9,1.9-1.1,2.9-1.4c2.2-0.6,4.5-1.1,6.7-1c1.4-1.2,2.6-2.4,3.2-3.7
		c1.8-0.2,2,1.1,2.8,1.8c1.1-0.1,0.7-1.4,1.8-1.9c1,0.4,2.3,1.3,3.5,0.5c1.3,0.5,0.9,1.6,1.4,2.3c2.2,0,4.4-3.4,6.7-0.4
		c0,2.6-2.5,2.6-3.7,4c3.6,3.1,8.2,3.9,12.4,6.3c-2.3,0.7-2.3,0.7-5.7,0.1c2.2,1.4,3.3,1.7,6.2,1.5c3.1,4.9,6,10.1,7.7,15.9
		c1.2,4.1,2.3,8.2,3.2,12.4c0.5,2,1,4,2.5,5.6c-0.7,1.4-1.3,2.8-2,4.3c1.1,2.9,2.6,6-1,8c-0.7,1.8,0.2,2.8,1,3.7
		c-0.4,0.9-1.3,0.4-1.7,1c0.9,1.8,3.3,2.3,4,4.4c-1.4,2.4-3.1-0.8-4.5,0.4c0.6,1.2,2.6,0.7,2.9,2.6c-2.4,2.1-4.7-0.4-7.6-0.3
		c-1.3,0.9-3.2,0.7-4.9-0.4c-1.8-1.1-3.9,0-5.5-1.3c-4.1,2.4-5.5,7.8-10.6,8.4c-3.8,4.4-4.3,10.6-8.5,14.8c-2-0.7-2.9-2.6-4.9-2.9
		c-2,0.2-3.1,3.7-6.2,1.4c1.8-0.4,3.3-0.8,4.1-2.2c0-0.9-1-1.8,0.3-2.8c1.2,2.5,4,2.8,6.3,4.7c2.3-4.8,4.6-9.3,6.9-14.1
		c-2.8-3.1-5.8-5.9-10.2-6.5c1.6-1.3,2.5-1.5,4.5-0.6c2.7,1.2,4.8,3.3,7.1,5.1c0.5,0.3,0.7,1,1.7,1.1c2.9-1.8,4.9-4.7,7.5-7.6
		c-4.5-3.3-6.8-8.3-10.3-12.3c-2.1-2.4-4.3-3.9-7.6-2.9c-0.8,0.2-1.7,0.3-2.5,0.3c-7.3,0.1-14.1,1.8-20.8,5.3c1.7-2.7,3.3-5.4,5-8.1
		c-1.4-2.7,0.1-5.6-1.1-8.6c-2.8-1-5.7-2-8.5,0.7C807.5,450.1,807.1,450.2,806.6,450.2z M594.6,597.8L594.6,597.8
		c-3.2-1.8-6.7-2.5-10.4-2.3c-5.8,0.4-11.7,0.4-17.5-0.8c-2.9-0.6-5.8-0.9-8.7-1.1c-5-0.4-9.9-1.4-14.7-2.7
		c-3.2-0.9-6.3-1.7-9.6-2.3c-2.9-0.6-5.5-0.1-7.9,1.3c-0.6,2.9-1.2,5.8-1.6,7.8c0.5,5.6,3.9,8.4,7,11.5c1.5,1.5,3.4,2.8,4.1,4.7
		c1.1,0.6,1.9,0.7,2.8,0.5c3.3-0.7,6.6-0.5,9.8-0.2c5.8,0.5,11.7,0.9,17.1,3.4c7,3.3,14,6.8,20.3,11.4c3.6,2.6,7.2,5.1,11.3,6.6
		c12.8,4.6,25.9,8.4,39.4,10.7c1.5,0.3,2.9,0.2,4.4-0.1c2.2-0.5,4.3-0.6,6.5-0.7c4.3-0.1,8.4-0.8,12.3-2.8c1.7-2.6,3.5-5.3,5.2-7.9
		c2.5-3.7,3.8-7.5,2.3-12c-0.7-2.1-0.9-4.3-1.3-6.4c-0.9-5.3-3-10.2-4.7-15.4c-3.2,3.7-7.2,5.7-11.3,7.6c-8.4,3.9-19.5,5.9-28.6,5.1
		c-0.4,0-1-0.3-1.2,0.5c0.8,1.8,2.9,2.9,3.5,5.8c-3.2-2.9-5.8-5.4-8.6-7.7c-2.4-2-4.5-4.5-7.1-6.2c-3.1-2.1-6.2-4.3-9.3-6.5
		C597.1,598.7,596.1,597.6,594.6,597.8z M719.4,521c4-3.1,9-3.8,12.7-7.1s6.8-6.9,9.1-11.6c-0.7-1.5-0.4-3,0.7-4.4
		c0.4,0.2,0.6,0.7,0.9,0.2c0.6-1.1,0.8-2.3,1-3.5c1.1-7.4-0.4-14.5-2.3-21.6c-1-3.6-3-6.3-6.1-8.3c-3.2-2.1-6.6-3.7-9.7-5.7
		c-2.9-1.8-5.7-2.5-9-2.3c-4,0.2-7.9,1.1-11.9,1.7c-5.4,0.8-10.2,2.1-14.7,5.4c-5.8,4.2-10.7,9.1-15.1,14.7
		c-2.2,2.9-3.6,6.3-6.2,8.9c-1.4,1.4-2.2,3.7-1.5,6.3c5.8,0.4,11.4-0.5,17.2-1c-0.2-3,0.5-5.5,0.4-8.2c-0.2-4.4,1.4-8.5,4.9-11.6
		c-0.5,2.6-1.1,5.2-1.9,7.7c-1.1,3.6-1.9,7.4-1,11.1c1,4.1,0.9,8.1,0,12.2c-0.8,3.7-1.6,7.3-2.8,10.9c-0.9,2.5-2.1,4.9-2.4,7.3
		c0.2,1.1,1.3,1.1,1.3,2.1c-0.4,0.5-1,1.2-1.6,2c1.7,11.1,1.1,22.5,4.3,33.5c0.7,2.5,1.2,5.1,0.5,7.6c-1.3,4.4-1.6,9.1-3.5,13.3
		c1.6,5.8,2.1,11.5,0.5,17.3c-0.4,1.4-0.5,2.9-0.7,4.3c-0.1,0.8-0.4,1.9,0,2.5c1.1,1.8,0.7,3.5,0.4,5.3c-0.6,4.2-0.6,8.5-0.4,12.8
		c0.2,4.3,0.6,8.5,0.6,12.8s0.8,8.4,2.2,12.5c3,8.4,4.7,17.1,7.3,25.6c0.5,1.7,0.7,3.4,0.2,5.3c-0.8,2.9,1.1,5.6,4.1,6.2
		c2.8,0.6,5.8,1.4,8.6,1.3c3.2-0.1,6.5,0,9.4-1.2c5.2,1.8,10.1,4.3,15.8,4.3c-0.6-1.5-1.6-2.4-3.1-2.8c-2-0.5-4.4-0.7-5.8-2
		c-2.2-2-4.8-3.3-7.2-4.9c-0.5-0.3-1-0.7-0.8-1.5c0.8-0.8,1.5-0.2,2.3,0.2c2.8,1.6,5.6,3.5,8.6,4.7c5.1,2.2,10.6,3.5,15.7,5.9
		c2.1,1,4.4,0.9,7-0.4c-4.4-2.1-8.9-3.1-11.4-6.8c-7.8-1.4-9.2-2-10.5-4.6c2.8,0.2,5.1,1.8,7.9,1.7c-0.9-1.3-2.5-1.3-3.4-2.3
		c-2.2-2.5-5.1-2.9-8.1-2.8c-6.3,0.2-12.4-0.2-17.8-4.1c-0.6,1-0.4,2.8-2.6,2.5c1.5-1.2,1.6-2.7,1.2-4.1c-1.7-5.8-1.7-11.7-1.3-17.7
		c0.8-13.6,4.2-26.6,8-39.6c0.8-2.8,2-5.5,2.2-8.5c0.5-9.4,1-18.7,1.4-28.1c0-1,0-2-0.3-2.9c-0.7-1.7-0.3-3.3,0.1-5
		c2.3-9.6,4-19.3,4.8-29.1C717.8,532.3,718.7,526.6,719.4,521z M676.7,514.3c-7-2.8-11.1-8.3-12.8-15.7c-1,0.6-1,1.7-2.1,2
		c0.1-2.3,1.7-3.9,1.9-5.9c0.5-4.8,2.6-8.8,5.8-12.2c1.6-1.7,2.9-3.6,4-5.6c3.6-6.8,8.4-12.5,15.4-16c0.9-0.4,1.7-1,2.4-1.6
		c1.1-0.9,2.3-1.4,3.6-1.6c6.7-1.2,13.4-2.5,20.1-3.6c4.1-0.7,8-0.3,11.3,2.8c1,0.9,2.2,1.5,3.4,2.2c2.4,1.5,4.7,3,7,4.5
		c1.8,1.2,3.4,2.7,4.1,5c0.4,1.1,1.1,2.1,1.8,3.1c0.7,0.9,0.7,2.4,2.3,3.3c-1.6-9.2-4-17.5-9.7-24.4c1.1-3.2,1.9-6.2,4.3-8.8
		c-2.5,0.1-4.7-0.9-6.9-1.4c-2.3-0.5-4.7-1.8-7.1-1.3c-6.2,1.3-12.6,1.2-18.8,2.3c-10.7,1.9-21.2,4.4-32,5.6
		c-1.1,0.1-2.1,0.6-3.1,1.1c-5,2.6-10.2,4.6-15.6,6.2c-9.6,2.8-18.9,6.2-27.6,11.3c-3.2,1.9-6.8,3.3-10.7,3.2c-1.3,0-2.7,0.4-3.8,1
		c-2,1.3-4.2,2.4-6.3,3.5c-0.2,1.7,0.1,3.1,0.4,4.5c1.1,5.6,2.7,11.1,4.3,16.6c0.3,1.2,1,2.4,0.9,3.5c-0.6,4.7,2,7.8,4.8,10.9
		c2.6,2.9,5.5,5.5,8.5,8c3,2.6,6.2,5.1,8.5,8.4c1.1,1.6,2.7,2.7,4,3.4c3.1-0.4,5.5-2.4,8-2.1c4,0.4,7.7-0.6,11.4-1.7
		c2.3-0.7,4.4-0.8,6.8-0.4c4.6,0.8,9.2,0.7,13.9-0.4c-0.2-3.5,1.2-6.7,1.4-10C679.2,513.5,678.1,514.2,676.7,514.3z M507.2,539.9
		c-5,4.2-10.7,6-17,6.2c-2.8,0.1-5.6,0.4-8.3,0.9c-4.9,0.9-9.9,1.2-14.9,1.2c-8.1,0-15.5,1.9-22.2,7c-5.5,4.2-11.7,7.4-18.2,10
		c-9,3.7-18.4,5.5-28,6.5c-1.4,0.2-2.9,0.1-4.1,1.2c-0.1,1.7,0,3.4-0.3,5.1c-0.4,2.9,0.9,5,3.1,6.5c1.6,1.1,3.3,2.1,4.9,3.2
		c2.3,1.6,4.6,1.7,7.2,0.7c4.4-1.7,9-3.1,13.8-3.2c1.7,0,3.4-0.4,5-0.8c5.8-1.4,11.5-2.8,17.5-3c5.9-0.2,11.9-0.9,17.8-1.1
		c5.5-0.2,11,0.2,16.4-1c2.6-0.5,5.3-0.8,7.9-1.2c1.2-0.2,2.3-0.6,3.4-0.9c2.9-0.6,5.9-1.8,8.9-1.2c2,0.4,3.9,0.3,5.8,0.1
		c3.2-0.4,6.5-0.2,9.6-1.5c6.2,1.2,12.4-0.2,18.5-1.1c2-0.3,4.1-0.3,5.9-1.6c-1-2.4-2.1-4.6-2.5-7c-0.9-5-3.8-8.6-8.2-11.1
		c-1.9-1.1-4-1.8-6-2.7C517.6,548.5,511.7,545.5,507.2,539.9z M530.4,616.8c-1.8-3.3-4.3-6.1-7.9-7.9c-2.1-1.1-3.6-2.9-4.7-5
		c-1.1-2.3-1.5-4.6-0.7-7.3c0.9-3.4,3.2-5.7,5-8.1c3.8-1.2,7.5-2.4,11.1-3.6c-0.4-1.7-1.4-1.3-2.3-1.1c-1.9,0.4-3.8,0.9-5.8,0.6
		c-4.9-0.9-9.9-1.1-14.9-0.9c-3.7,0.2-7.3,1.7-10.8,0.9c-4.9,5.8-3.4,12.4-3.5,18.8c-0.1,7.1,4.4,12.1,8.4,17.5
		c-1.6,1.6-1.9,3.4-1.8,5.4c0.1,2.1-0.4,4.2-1.5,6c-2.1,3.4-1.9,7-0.9,10.5c1.3,4.7,3.7,9,6.5,13c1.1,1.6,2.6,2.9,4.6,3.5
		c4.2,1.2,8.4,2.5,12.5,4c5.8,2.1,11.4,1.8,17.1-0.9c0.3-1.5,1.1-3.1,1.1-5.1c-4.3-3-7.9-6.9-10.8-11.3c-3.8,0.9-4.8,0.3-4.2-2.3
		c1.4-0.2,2.3,1.4,3.7,0.9c0.6-0.6,0.4-1.3,0.1-2.1c-2.3-0.8-5.8,0.2-6.4-3.6c1.3-1.1,2.6-0.5,3.7-0.5c1.2,0,2.3,0.8,3.6,0.4
		c0.4-0.7,0.8-1.5,1.1-2.2c0.1-0.2-0.1-0.4-0.1-0.6c-6.6,0.7-9.6-0.7-9.7-4.6c0.8-1.1,1.9-0.9,2.9-0.5c3,1.3,6.2,0.9,9.3,1.3
		c1.2,0.2,1.6-0.6,1.9-1.6c-7.9,1-11.4-0.2-12-4c1.8-1.1,1.8-1.1,3.9-1c1.1-2.9,1.6-3.3,4.4-3c2.4,0.2,4.7,0.7,7,1.8
		c1.5-2.5,2.9-4.7,4.5-7.3C540,616.3,535.3,617.7,530.4,616.8z M569.9,574.3c-2.8-3.4-5.5-6.5-7.5-10.1c-2-3.7-3.9-7.5-5.9-11.3
		c-9.2-0.6-17.8-3.2-26.2-6.8c4.4,0.8,8.6,2.1,13,2.8s8.7,1.6,13.8,2c-2.9-3.1-4.9-6.1-7-9.3c-4.7-1.6-9.6-3.2-14.1-5.8
		c4.2,1.3,8.4,2.6,13.1,4.1c-2-4.6-3.7-8.7-4.3-13.1c-0.6-4.5-0.2-9,0.4-14.1c-2.3,1.8-3.5,3.6-4.5,5.4c-3.5,1.3-7,2.5-8.8,6.1
		c-0.4,0.8-1.5,1.2-2.3,1.7c-6.9,4.1-13.9,8.1-20.8,12.2c1.9,2.7,4.3,4.5,6.9,6.1c3.9,2.3,7.8,4.4,12,6c6.1,2.2,10.9,6,12.5,12.7
		c0.9,3.6,2.2,6.9,3.8,10.2c1.2,2.5,2.2,5.1,3.4,7.7c0.7,1.5,0.9,2.8-0.7,3.9c0.7,0.8,1,1.6,2.2,2.2
		C555.8,583,563.1,579.3,569.9,574.3z M591,593.9c-7-5.2-12.8-11.2-19-17.3c-7.3,5.1-15,9.2-23.8,12.8c2.1,0.4,3.5,0.8,4.9,1
		c3,0.4,6,0.9,9,1.2c6.2,0.7,12.3,2,18.5,1.6c2.2-0.1,4.3-0.2,6.5,0.7C588.2,594.5,589.4,594.5,591,593.9z M684.9,496.6
		c-1-0.6-1.9-0.3-2.6-0.1c-2.8,0.6-5.6,0.3-8.3-0.5c-2.4-0.7-4.7-0.5-7,0c0.1,4.2,1.2,7,3.3,10.4c2.8,4.3,7,4.5,11.5,4.6
		C683.1,506,684.3,501.3,684.9,496.6z M612.2,503.9c-2-2.9-0.9-6.3-3.1-9c-0.7,1.2-1.2,2.1-1.8,3.2c-1.1-1.2-0.3-2.2,0.2-3.1
		c0.7-1.2,1.2-2.6,0.8-3.8c-1.4-5-2.3-10.1-2.7-15.4c-2.4,1.3-4.4,2.4-6.3,3.4c-0.1,1.2,0,2.1,0.8,3c1.4-1.4,2.6-3,4.8-3.5
		c0.2,3.5-5.2,2.8-4.2,6.5c1.8-0.4,2.6-2.8,4.9-2.4c-0.4,2.3-2.8,2.3-3.8,3.9c1,1.5,0.9,3.2,0.2,4.9
		C604.2,496.5,606,501.6,612.2,503.9z M395.6,587.2c-0.3-0.2-0.5-0.5-0.8-0.7c-3.4-2.5-4.8-5.7-3.7-9.9c0.5-1.7-0.2-3.2,0-5.1
		c-5.4,2.5-3.5,6.9-3.9,10.6C389.7,584.5,392.4,586.2,395.6,587.2z M523,591.7c-2.9,2.6-5.2,5.5-4.1,9.7c0.8,2.9,4,5.8,6.9,6.2
		C522.7,602.7,521.1,597.6,523,591.7z M545.8,583.4c-1.8-3.5-3.2-6.3-4.7-9.1c-1.1,0-2,0.1-2.9,1C541,577.5,542.5,580.7,545.8,583.4
		z M811.2,658.9c2.5,1.4,4.7,3.9,9,3.3C816.7,660.8,814.2,659.3,811.2,658.9z M605.6,473.9c-1.7-0.8-2.9,0.1-4.1,0.6
		c-1.1,0.5-3,0.5-2.1,2.8C601.5,476.2,603.5,475,605.6,473.9z M843.9,428.7c-0.7-0.8-0.8-1.6-1.9-1.8c-0.8,0.5-1.7,1.2-3.2,2.2
		C840.9,428.9,842.1,428.8,843.9,428.7z M866.8,451.2c1.7,2.6,2.1,2.8,5,3.2C870.1,453.3,869.2,451.9,866.8,451.2z M865.7,469.9
		c0.5,2.6,1.6,3.3,3.9,3.5C868.4,471.8,867.4,471,865.7,469.9z M790.1,443c-0.9,0.2-1.6,0.3-1.7,1.2c1.3,0.1,1.4,2.4,3.4,1.7
		C791.2,444.9,790.6,444,790.1,443z M854.2,452c0.8-0.6,1.6-0.9,2-1.8c-1-1.1-2-1.5-3.1-0.2C853.5,450.7,853.8,451.4,854.2,452z
		 M846,416.7c0.9-1.5,0.8-2.5-0.7-2.8c-0.6-0.1-1.1,0.3-1.4,0.9C844.5,415.4,845.2,415.9,846,416.7z M607.3,466.5
		c1.6,0.5,2.3,1.2,3.1,1.8c0.6-0.7,0.9-1.2,0.9-1.9C610.2,466.1,609.1,465.8,607.3,466.5z M839.5,422.1c0.5-2.3,0.5-2.3-0.3-3.5
		C838.7,419.6,838.6,420.6,839.5,422.1z M847.1,453c-0.4-1.4-0.8-2.7-2.2-3.4c-0.4,0.3-0.6,0.6-1.1,1
		C845.2,451.1,845.8,452.3,847.1,453z M835,426.6c-1.2-1.5-1.2-1.6-2.5-1.1c-0.5,0.2-0.7,0.6-0.7,1.1
		C832.8,426.8,833.7,426.8,835,426.6z M802.9,446.5c-1.9,0.5-3,0.8-4.2,1.1C800.4,449.2,800.4,449.2,802.9,446.5z M853.6,465
		c0.4,1.6,1.4,2.7,3.3,3.8C855.6,467.3,854.6,466.1,853.6,465z M832.2,411.6c-0.4,0.1-0.5,0.3-0.3,0.5c0.8,0.9,1.5,1.7,3.1,1
		C834.2,412,833.1,412.1,832.2,411.6z M863.3,430.3c-0.6,0.6-1.7,0.3-1.7,1.7c0.8,0.2,1.7,0.3,2.5,0.5
		C864.4,431.6,864,431.1,863.3,430.3z M805.8,447.6c0.8-0.6,2.3-0.1,2.5-1.8C807,445.9,806.2,446.5,805.8,447.6z M599.6,472.8
		c1.5,0.1,2.3-0.3,3.2-1.2C601.5,471.6,600.8,472,599.6,472.8z M845,456.3c1-0.2,1.5,1.1,2.3-0.2c-0.2-1-0.7-1.5-1.7-0.9
		C845.6,455.4,845.5,455.5,845,456.3z M846.1,446.1c0.8,1.5,1.7,1.5,3.4,0.7C848.1,446.6,847.5,445.9,846.1,446.1z M759.2,442.7
		c0.8,0.1,1.8,0.6,2.7,0C761,442.2,760.1,442.4,759.2,442.7z M833.4,432.6c-0.6-1.4-0.6-1.4-2.1-0.9
		C831.7,432.5,832.4,432.6,833.4,432.6z M825.3,429.2c-1.3,0.5-2.2,0.2-2.7,1.1C823.5,430.4,824.3,430.4,825.3,429.2z M609.1,469
		c-1.3,0.2-1.8,0.8-2.3,2.6C608,470.5,608.8,470.2,609.1,469z M825.9,413.4c1.1,0.3,1.9,0.6,2.5-0.4
		C827.5,412,826.9,412.8,825.9,413.4z M820.3,420.1c0.5-0.4,1.6-0.4,1.5-1.6C820.8,418.8,820.4,419.3,820.3,420.1z M842,438.9
		c-0.5,0.4-1,0.5-0.6,1.1c0.1,0.2,0.5,0.3,0.6,0.3C842.4,439.9,842.3,439.5,842,438.9z M827.9,443.2c-0.2,1.1,0.2,1.1,1,0.8
		C828.8,443.3,828.6,443,827.9,443.2z M417.3,591.9c-0.2-0.1-0.4-0.2-0.5-0.3c-0.1,0.2-0.2,0.4-0.3,0.6c0.2,0.1,0.4,0.3,0.5,0.2
		C417.2,592.3,417.2,592,417.3,591.9z M600.5,470.6c0.9,0,1.4-0.3,1.8-1.2C601.3,469.2,600.9,469.6,600.5,470.6z"/>
	<path d="M608.1,179.5c0.4-0.6,0.8-1.1,1.2-1.7c-0.2-0.7-1.4-0.6-1.3-1.8c2.4-1.4,5.2-1.9,8.1-2.3c1,0.6,1.9,1.1,3,1.7
		c1-0.2,2.1-0.5,2.9-1.3c3-3,6.6-5,10.1-7.1c4.8-3,9.2-6.4,13.6-9.9c4-3.1,8.4-5.8,12.4-9c5.4-4.4,11.6-6.4,18-8.3
		c5.6-1.7,11.2-3.3,16.8-4.9c1.8-0.5,3.6-0.8,5.4-0.8c4.6,0,9.3-0.2,13.9,0c4.5,0.2,9-0.5,13.4-1s8.7-0.4,12.9,1.2
		c4.1,1.6,8.5,2,12.4,3.5c1.9-0.5,3.6-1,5.2-1.3c3.6-0.6,7.2-0.9,10.8,0.6c2.7,1.1,5.5,1.8,8.3,2.8c2.2,0.8,4.3,1.7,5.6,3.6
		c1.7-0.2,3.1-0.5,4.6-0.6c1.3-0.1,2.3-0.9,2.5-1.8c0.4-2.4,2.2-3.1,4.1-3.7c1.9-0.6,3.2-1.6,4.3-3.2c2.1-3,5.2-5.1,7-8.4
		c0.4-0.9,1.6-1.4,2.5-2c4.6-3,9-6.3,13.1-9.9c2.1-1.9,4.8-3.2,6.7-5.5c1.1-1.4,3.3-1.4,5.1-1.8c1.4-0.3,2.9-0.4,4.5-0.5
		c1.3-0.9,2.2-2.5,3.4-3.6c1.5-0.1,1.8,1.4,2.8,1.8c0.4-0.6,0.8-1.2,1.4-2c1.2,0.9,2.7,1,3.9,0.7c1,0.7,0.8,1.7,1.1,2.3
		c2.4-0.2,4.5-3.4,6.8-0.4c0,2.5-2.5,2.6-3.8,3.9c3.7,3,8.3,4,12.5,6.2c-2.2,1.9-4.1-0.3-6.2,0.1c2.2,1.6,4.5,1.7,6.7,1.7
		c4.2,6.3,7.2,12.9,8.9,20c0.8,3.3,1.8,6.6,2.3,9.9c0.3,1.6,1.7,2.4,2,4.2c-0.3,1.1-1.6,2.2-1.9,4.1c1.3,2.8,2.5,5.8-1.2,7.8
		c-0.4,1.7,0.1,2.8,1.2,3.5c-0.3,1.2-1.4,0.5-1.8,1.3c1.1,1.6,3.2,2.2,3.9,4c-0.3,1.3-1.2,1.3-2.1,1.3c-0.6-0.8-1.2-1.3-2.3-0.6
		c0.6,0.9,1.3,0.7,2,0.9c0.2,0.5,0.9,0.8,0.7,1.8c-2.3,1.8-4.4-0.5-7.3-0.4c-1.3,0.7-3.4,0.7-5.2-0.5s-3.9,0.2-5.4-1.3
		c-4,2.6-5.6,7.8-10.7,8.5c-3.7,4.3-4.2,10.5-8.3,14.6c-2.1-0.6-3-2.6-5.1-2.8c-1.4,0.4-2.2,2-3.5,2.4c-1.2,0.3-1.9-0.4-2.9-0.7
		c-2,2.7-4.6,3.7-7.6,1.9c-1.6,0.1-2.3,1.2-3.2,2c-3.2,3-7,2.8-9.4-0.7c-2-2.9-4.5-5.4-5.6-8.7c-2-1.6-4.1-0.7-6.4-0.8
		c0.4,2.7,0.4,5.2,0.3,7.7c-0.2,4.5-1.7,8.5-4.2,12.2c-1.5,2.3-2.7,4.8-4.4,6.9c-0.2-1.6,0.1-3,1.2-4.4c1.3-1.6,2.1-3.5,2.6-5.6
		c1.3-4.6,1.8-9.3,2-14.1c0-0.9,0.2-2-0.7-2.9c-1.4,0-3,0-4.8,0c-0.8,3.6-3.8,6.4-3.9,10.3c-1.4-0.4-1.9,0.6-2.6,1.4
		c-3,3.4-5.2,7.5-8.6,10.5c1.3,1.2,2.5-0.9,4.3,0.7c-4.7,1-8.3,3.5-12.2,4.7c-0.9,0-1.4-0.9-2.9-0.4c-1.5,0.8-3.6,2-5.6,3.2
		c-0.1,1.5-0.2,2.7-0.2,3.9c-0.1,7.8,0,15.6,3.5,22.8c0.6,1.3,1,2.7,1.3,4.2c0.5,1.9,0.2,3.8-0.3,5.7c-2,7.2-3.7,14.4-2.4,22.1
		c1.4,8.1,1.3,16.5,1.4,24.8c0.1,8.7,1.1,17.2,2.7,25.7c0.4,1.9,0.9,3.9,0.7,5.8c-0.3,2.8,0.5,5.3,1,7.9c1,5,3.3,9.7,2.3,15.1
		c2.8,1.8,6.3,1.9,8.8,4.2c0.8,0.7,2.3,0.5,3.4,0c0.4-0.8,0.4-1.5-0.1-2.4c-1.2-0.5-2.6-1.3-3.8-2.2c-1.1-0.2-1.9,1.5-3.1,0.3
		c0.5-2.4,2.3-2,3.6-1.8c1.3-1.2-0.2-2.3,0.4-3.3c2.3,0.7,1.3,2.9,1.9,4.3c0.8,0.1,1.3,0.8,2.1,0.5c0.6-0.4,0-0.9,0.2-1.4
		c1.3-0.2,2.6-1.3,4.1-0.7c0.4,0.4,0.2,1.3,1.1,1.3c1.6,0,3-0.8,4.3-1.1c0.6-0.9-1-1.3,0.1-2.2c1.6,2.2,4.2,2.5,6.6,2.4
		c4.1-0.1,7.9,1.2,11.6,2.6c1.5,0.5,3,1.1,4.5,1.6c0.9,0.3,1.8,0.7,3-0.1c-2.9-1.6-5.2-4-8.4-5c-2.6-0.8-4.9-2-7.1-3.6
		c-2.1-1.5-4.4-2.2-7.2-1.6c-3.2,0.7-6.5,0.6-9.8-0.1c-1.7-0.4-3.3-1-4.5-2.6c-0.2-1.4,0-3.2-1.4-4.4c-1.1-0.1-1.8,1.4-3,0.7
		c0.2-1.5,1.8-1.9,2.1-3.3c0.6-3,1-5.9,0.7-9c-0.4-4.7-0.4-9.5,0.5-14.2c1.3-7.5,2.4-15.1,4.9-22.3c1.6-4.7,2.5-9.6,4.1-14.4
		c1.5-4.8,1.9-9.8,2-14.8c0-2.7,0.1-5.7-3.1-7.8c0.6-12.7,0.6-25.7,0.3-38.4c1-1.1,1.7-1.9,2.4-2.7c0.6,6.9-0.5,13.8,0.5,20.7
		c0.7,4.7,0.3,9.5-0.4,14.2c-0.4,2.5,0.2,4.5,1.6,6.8c2.7,4.2,2.9,9.1,2,14.1c-1.6,9.9-5.3,19.2-7.8,28.8
		c-2.5,9.5-4.3,19.2-3.6,29.2c0.1,2-0.4,3.9-1.1,5.7c-0.4,1-1,1.9-1.1,3.1c0.3,2.5,2.4,4.4,2.7,7c1.7,1.5,3.8,1.3,5.9,1.5
		c2.5,0.2,5.1-0.3,7.6,0.2c1.8,0.3,3.4,0.8,5,1.6c2,1,4.4,1.7,6.8,1.6c3.2-0.1,6.1,0.5,8.9,2.4c2.6,1.7,5.7,2.8,8.7,3.7
		c1.6,0.4,3,1.1,2.7,3.4c-1.8,1.9-4.2,1.9-6.6,1.2c-2.1-0.6-3.7-0.2-5.1,1.3c-3.3,0-6.2-1.4-9-2.7c-6.1-2.6-12.2-2.8-18.5-1.3
		c-1.9,0.4-3.8,0.8-5.8,0.1c-0.1,1.6-0.2,2.9-0.2,4.4c-2.2,2.1-4.7,1.6-7,0.6c-1.6-0.7-3.1-1.5-5-1.8c-2.5-0.5-3.6-3-4.3-5.4
		c-0.3-1.1-0.2-2.4-0.3-3.6c-0.1-1.8-0.3-3.6-1.5-5.1s-1.4-3.4-1.4-5.2c0.2-7.1-1.7-14-2.6-21c-0.4-3.1-0.9-6.3-1-9.4
		c-0.4-12.4-1.3-24.8-1.6-37.2c-0.1-4.8,0-9.5,0.6-14.2c0.2-1.4,0.3-2.8,1.1-4.2c1.2-1.8,0.8-3.9,0.2-5.7
		c-2.7-7.4-3.4-15.2-4.8-22.8c-0.4-2.2-0.3-4.6-1-7.1c-3.7,1.4-7.2,1.4-10.8,0.3c-1.9-0.5-3.8-0.1-5.7,0.4
		c-3.7,1.1-7.4,1.4-11.7,0.4c-0.3,3.8-1.6,7.3-1,11.3c0.7,4.6-0.2,9.2-0.8,13.8c-0.6,5.3-1.7,10.6-4.2,15.4
		c-0.7,1.4-0.8,2.8-0.5,4.3c1.9,10.7,1.7,21.3-1.1,31.8c-0.1,0.5-0.5,1.1-0.3,1.4c1.4,2.9-0.3,5.4-1.1,8
		c-3.5,10.8-6.7,21.6-8.1,32.9c-0.9,7.4-1.2,14.8-0.2,22.2c0.1,0.7,0.4,1.4,0.6,2.1c5.5,2.6,11.2,3.4,17.1,3
		c3.5-0.2,6.5,0.6,8.8,3.3c1.9,2.1,4.5,2.8,7.1,3.6c2,0.7,3.8,1.4,5.5,2.8c2.2,1.8,5,2.4,7.7,3.3c1.3,0.4,2.8,0.6,3.5,2
		c-0.2,1.3-1.3,1.2-1.8,1.6c-4.3-2.9-9.8-3.1-13.5-7c-0.2,1.2,0.5,1.6,1.1,2c2.4,1.4,4.8,2.9,7.4,3.9c1.3,0.5,2.9,0.8,3.4,2.4
		c-3.2,3.9-8.3,4-15.1,0.5c-3.3,2.5-7.1,3.1-11.2,1.6c-2.8-1.1-5.7-2.2-8.6-3.4c-0.3-0.1-0.4,0.5-0.7,0.5c-6.7,1-13.4,2-20-0.9
		c-2.5-1-4.1-2.8-4.3-5.4c-0.7-8.2-3.5-15.9-4.9-23.9c-0.6-3.3-2.1-6.4-3.1-9.6c-1.4-4.3-2.1-9-2.6-13.6c-1-11-0.2-21.9,0.3-32.8
		c0.2-4.2,1.2-8.4,1.9-13.2c-1.6-4.5-1.7-9.6,0-14.8c1.5-4.5,1.4-9,0.4-13.7c-1.4-6.4-2.6-12.9-2.5-19.5c0-2.3-0.6-4.5-0.9-7
		c-3.3,1.7-6.6,2.5-10,2.3c-2.1-0.1-4,0.9-5.9,1.8c-3.2,1.4-6.4,2.5-10,2.8c-4,0.3-8,1.9-11.3,4.6c-3.9,3.1-9.1,3.6-13.2,0.8
		c-2.6-1.8-5.4-3.2-8.1-4.8c-4-2.4-5.7-4-7.9-7.6c2.9,0.9,4.2,3.6,6.8,3.9l-0.1-0.1c1.9,2.5,5,2.7,7,4.3c1.5,0.1,2.4-0.5,3.4-1
		c0-0.6-0.2-1-0.7-1.1c-1.2-0.2-2.4,0.5-3.8-0.2c0.4-0.8,1.4-0.6,2.3-1.4c-4.4-4.8-10.8-7.3-14-12.5c-1.2-0.3-1.8-0.1-2.2,0.3
		l0.1-0.1c-1.5-0.2-3.1,0.5-4.6-0.2c1.3-1.5,3.3-1,4.9-1.7c0.2-0.9-0.3-1.4-1-1.7l0.1,0.1c-0.3-0.8-0.4-1.6-1.4-2.4
		c-1,0-2.1,0-3.6,0c0.9-1.2,2.2-0.9,3.1-1.7c-0.3-1.4-0.8-2.9-1-4.4s-0.2-3.1-0.8-4.5c1.7-1.4-0.1-2.8,0.8-4.8
		c-2.1,0.9-3.4,1.5-5.5,2.5c1.4-2.2,3.4-2.4,4.5-3.9c0.4-1.5,0.2-3,0.1-4.5c-1.1-0.5-1.7,1.1-2.8,0.5c0.5-1.5,2.1-1.9,3-3.2
		c0.3-0.8,0.5-1.9,0.2-3.1c-1.5-0.2-2.5,1.3-4,1.3c1-2.3,3.9-2.3,5.1-4.6c-1.6-0.3-2.8,0.4-4,0.8c-0.6,0.2-1.1,0.6-1.3-0.4l-0.1,0.1
		c1.5-1.4,3.5-2.1,5.3-3c0.3-0.2,0.3-0.4,0-0.5c-0.9-0.5-1.8,0.9-2.8,0.2c0.7-1.8,2.9-1.5,4-3.3
		C610.2,179.4,609.1,179.4,608.1,179.5L608.1,179.5z M809.1,145.9c-3,1-2.8,4-4.1,6.2c1.8,3.3,0.4,7.4,3.2,10.4
		c-2,1.8-3.4,4-4.8,6.1c-1.4,2.1-2.7,4.4-2.7,7.6c-1.9-3.5-1-6.2,4-14c-0.1-0.6-0.4-1.3-0.4-2c-0.1-4-2.5-8-0.3-12.1
		c0-0.1-0.2-0.3-0.3-0.3c-1.1-0.1-1,1.7-2.2,1.2c-0.5-0.7,0.4-1.2-0.1-1.8c-2.5-0.8-4.9,0-7.1,0.3c-1.6-0.6-1.1-1.9-1.5-3
		c-1.2,0.7-2.1-0.5-3-0.5c-3.8,1.3-7.7,1.7-11.6,2.2c-2.3,0.3-4.6,0.5-6.9,0.6c-1.8,0.1-3.6-0.1-5.3-1.4c4.1-0.6,8-1.1,12.6-1.8
		c-2-0.9-3.3-1.4-4.6-1.9c-1.2,0.7-2.4,1-3.6,0.8c-7.4-1.2-15-0.3-22.2-3.1c-0.6-0.2-1.1-0.4-1.7-0.6c-1.2-0.3-2.4-0.6-3.7,0.3
		c-1.1,2.3-2.2,4.7-3.4,7.1c0.4,0.6,0.6,1.2,1,1.7c3.1,4.5,5,9.4,6.4,14.6c1.5,5.4,2.4,10.9,4.1,16.2c2.5,7.8,1.9,15.9-0.2,23.8
		c-0.2,0.8-0.2,1.8-1.7,1.8c0.4-4.9,1-9.7,1.3-14.5c0.3-4.9-0.9-10.9-2.7-13.8c0,0.5,0,0.8,0,1.2c0.1,0.7,0.2,1.4,0.3,2.2
		c1.1,8.5,0,16.5-5.2,23.6c-2.9,3.9-6.3,7.3-9.3,11.2c-1,1.2-2.3,2.1-3.6,3.1c-0.6,0.4-1.6,0.5-1.6,1.8c2.9-0.5,5.8-0.7,8.7-1.1
		c2.8-0.5,5.2-2.3,8.8-2.7c-1.8,2.2-4.4,2.2-5.9,4c9.1-1.3,17.4-4.1,26.6-6.9c2-1.7,5-3.7,6.8-6.8c1.7-2.9,3.8-5.7,5.8-8.5
		c-4.2,3.1-8.4,6-12.5,8.9c-4.2,2.9-8.9,3.9-13.7,4.5c-1,0.1-2,0.2-2.8-0.5c-0.3-0.2-0.4-0.6-0.8-1.1c0.5-0.7,0.1-1.8,1.1-2.4
		c1.1,0,0.4,1.7,1.7,1.7c0.4,0,1,0.1,1.4-0.6l-0.1,0.1c2.7,0.2,5.4-0.2,7.7-1.5c6.2-3.4,12-7.4,17.1-12.3c1.4-1.4,3-2.8,3.8-5.2
		c-3.6,0-6.9,0-10.7,0c4.8-2.5,9.8-1,14.2-3c0.2-0.1,0.5,0.1,0.7,0.1c3.7,1.1,7.5,0.4,11.2,0.8c0.8,0.1,1.9,0.3,2.6-0.6
		c-0.1-2.6-1.5-5.2-0.8-8.1c1.6,0.7,1.8,1.8,2.1,2.8c1.4,3.8,2.9,7.5,4,11.3c1,3.3,2.7,5.7,6.1,6.5c1.9-1.1,3.8-2.5,6.1-2.8
		s4.6,0.4,7.1,0c-1.1-1.6-3.2-1.3-3.4-3.4c1.5,0.1,2.8,0.9,4,1.5c2.3,1.1,4.2,1,5.8-1.2c0-0.9-1.1-2,0.4-3c0.9,2.9,4,2.8,6.2,4.8
		c2.4-4.9,4.6-9.5,7-14.4c-3.2-2.8-6.1-5.8-10.9-6.4c3-2.1,5.1-0.7,7.1,0.6c2.3,1.5,4.4,3.4,6.6,5.1c3.1-2,5.2-4.8,7.6-7.7
		c-2-1.8-4-3.5-5.3-5.7c-1.5-2.7-3.7-4.8-5.5-7.2c-1.6-2-3.5-2.8-6-2.5c-3.9,0.5-7.7,0.8-11.6,1.1c-1.5,0.1-2.8,0.5-4.1,1.2
		c-2.6,1.4-5.6,2-8.2,3.5c1.3-3.2,3.5-5.6,4.8-8.6c-1.7-2.5,0.3-5.5-1.3-8.3C814.9,144,811.8,143.4,809.1,145.9L809.1,145.9z
		 M615.3,177.4c0.2-0.4,0.3-0.8,0.5-1.2c-0.6-0.3-1.1-0.4-1.4,0.2c0.2,0.5,0.6,0.7,1,0.9c-0.1,0.6,0,1.2-0.2,1.8
		c-2.3,6.5-3,13.3-3.9,20c-1.2,9.4,1.3,17.4,8.5,23.6c5.6,4.9,11.4,9.5,17.1,14.3c2.1,1.7,4.4,2.4,6.8,1.2c3-1.5,6.6-1.5,9.1-4.2
		c0.5-0.5,1.4-0.7,2.1-0.4c2.1,0.9,3.4-0.3,4.9-1.4c1.8-1.4,3.8-2.7,5.7-4c0.8,1.5-0.7,1.9-0.6,3.1c3-1.5,6.1-1.5,9.2-1.4
		c2.4,0,4.8-0.5,7-1.9c0-1.1,0-2.2,0-3.3c-0.1-5.3,0.5-10.4,2-15.5c1.2-4,2-8,2.9-12.1c0.3-1.6,0.9-3.2,0.5-5
		c-3.2,0.7-6.3,1-9.2,0.3c-2.8-0.7-5.6-1.2-8.4-0.4c-0.3,7,3.5,12.7,10.1,15.1c1.1,0.4,2.4,0.6,2.8,2c-2.7,1.6-4.7,1.3-7.8-1.2
		c-4-3.2-7-7.1-7.9-12.3c-0.1-0.3-0.3-0.6-0.5-0.9c-1,0.5-0.8,1.9-2.5,2.3c1-2.2,2.3-4.1,2.5-6c0.5-5.4,3-9.6,6.6-13.3
		c1-1.1,1.9-2.2,2.5-3.6c4.1-9.1,11.4-15,19.8-19.7c0.7-0.4,1.6-0.4,2.4-0.6c6.9-1.7,13.9-2.6,20.8-3.8c2.7-0.5,5.6-0.5,7.8,1.1
		c4.3,3.1,9.2,5.5,13.4,8.8c1.6,1.2,2.9,2.5,3.6,4.5c0.4,1.2,1.3,2.4,2,3.4s0.6,2.5,2.2,3.2c-1.5-9.2-4.1-17.5-9.7-24.6
		c1.2-3.1,2-6,4-8.6c-3.1-0.3-5.8-1.3-8.6-2.1c-2.9-0.8-5.7-0.8-8.6-0.2c-3.9,0.8-7.9,1-12,1.1c-8,0-16.1-0.3-23.8,2.6
		c-10.3,3.8-21.2,6.3-30.2,13.2c-4.1,3.2-8.8,5.7-13,8.7c-5.6,4.1-11.5,7.8-17.3,11.5c-1.4,0.9-3.1,1.3-4,3
		c-0.5,0.9-1.9,1.4-2.9,1.3C618.7,176.6,617.1,177.5,615.3,177.4z M691.5,168.8c-0.2,3.1-1.2,5.3-1.8,7.5c-1.1,3.8-2,7.6-1.1,11.5
		c1,4.1,0.8,8.1,0,12.2c-1,5.2-2.5,10.1-4.4,15c-0.9,2.4-1.3,4.9-1.1,7.5c0.3,3.2,0.6,6.3,0.9,9.5c0.7,8.2,1,16.5,3.4,24.5
		c0.3,0.9,0.4,1.9,0.4,2.9c0.1,1.3,0.4,2.8,0,4c-1.4,4.4-1.5,9.1-3.5,13.2c1.8,9.2,2.1,9.4,0.5,17.4c-0.2,1.2-0.5,2.4-0.6,3.6
		c-0.1,1.1-0.6,2.4-0.1,3.2c1.2,1.9,0.7,3.8,0.4,5.7c-0.5,4.2-0.6,8.5-0.4,12.8c0.2,4.4,0.6,8.8,0.6,13.1c0,3.8,0.7,7.5,2,11.1
		c3.1,8.6,4.9,17.6,7.5,26.3c0.5,1.7,0.8,3.4,0.2,5.3c-0.8,2.7,1,5.4,3.8,6.1c4.2,1.1,8.5,2,13,1.1c0.9-0.2,2.1-0.5,2.9-0.1
		c1.3,0.6,1.5-0.9,2.2-0.9c5.3,1.7,10.1,4.6,16,4.2c-1.2-2.9-3.9-2.9-6.1-3.7c-0.9-0.3-2.2-0.1-2.7-0.9c-1.7-2.5-4.5-3.2-6.8-4.8
		c-0.7-0.5-1.5-0.9-0.7-2c1-0.3,1.6,0.5,2.3,0.8c3.3,1.4,6,4,9.6,5.2c4.7,1.5,9.5,3,14,5.2c2.3,1.1,4.6,1.1,7.1-0.3
		c-3.8-2.3-8.6-2.7-10.8-6.6c-9.6-2.5-9.6-2.5-11-4.6c2.7-0.4,5,1.8,8.2,1.2c-2.1-1.1-4.1-1.7-4.6-2.9c-3.5-2.1-6.8-1.9-10.1-1.8
		c-5.3,0.1-10.4-0.8-15-4.3c-0.3,1.6-0.7,2.9-2.9,3.1c2.1-2,2.1-4.1,0.9-6.3c-0.2-0.4-0.2-0.9-0.3-1.4c-0.1-4.8-0.8-9.6-0.4-14.6
		c0.9-13.3,4.1-26.2,7.9-38.9c0.9-3.1,2.2-6.2,2.4-9.5c0.5-9.1,0.9-18.2,1.4-27.4c0-1.1,0-2.3-0.4-3.2c-0.7-1.7-0.2-3.3,0.2-5
		c2.2-9.5,3.9-19,4.8-28.8c0.5-5.8,1.4-11.6,2.1-16.9c1.3-1.4,2.6-1.9,3.8-2.4c1.8-0.8,3.9-1.3,5.5-2.5c5.1-3.6,9.7-7.7,12.4-14.1
		c-0.7-1.2-0.4-2.8,0.8-4.2c0.3,0.3,0.5,0.5,0.7,0.6c0.7-1.2,1-2.5,1.2-3.8c1.2-7.3-0.3-14.3-2.1-21.3c-1-4-3.2-7-6.7-9.2
		c-3.2-2-6.6-3.7-9.8-5.7c-3-1.9-6-2.4-9.4-2.1c-3.7,0.4-7.4,1.1-11.1,1.7c-5.4,0.8-10.1,2.3-14.7,5.5c-7.8,5.6-14,12.4-18.8,20.5
		c-0.4,0.6-0.7,1.3-1.3,1.7c-2.3,1.9-2.8,4.3-2.9,7.3c6,0.6,11.7-0.2,17.5-0.9c-0.3-3,0.5-5.5,0.3-8.2
		C686.4,176.4,687.8,172.4,691.5,168.8z M822,358.3c-3.5-1.6-6.5-3-9.7-3.7C815.3,355.9,817.6,358.9,822,358.3z M854.7,160
		c2,3.7,2.2,3.9,3.9,4.4C857.5,163,856.1,161.5,854.7,160z M632.4,240.3c3.2,1.5,3.2,1.5,5.3,0.8
		C636.4,239.5,634.7,240.2,632.4,240.3z M866.9,129.4c-1-1.5-0.9-2.6-1.9-3c-0.7,0.3-1.7,0.3-1.9,1.7
		C864.2,128.2,865.3,128.5,866.9,129.4z M872.9,150.7c-0.9-1.4-2-2.6-4.2-3.5C869.5,149.8,871.5,149.9,872.9,150.7z M846.2,145.9
		c0.9,1.1,1.8,2.2,2.8,3.4c-0.7-2.4-0.7-2.4-2.3-3.8C846.4,145.8,846.1,146,846.2,145.9z M867.7,166.1c0.1,2.5,1.4,2.9,3.5,3.3
		C870.3,167.7,869.2,167,867.7,166.1z M841.3,124.6c1.7,0.3,2.8,0.3,4.1-0.2c-0.5-0.6-0.5-1.4-1.6-1.6
		C843.2,123.2,842.5,123.7,841.3,124.6z M856,148.1c0.7-0.8,1.7-0.9,1.9-1.9c-1.4-0.9-1.4-0.9-2.9-0.2
		C855.2,146.6,855.5,147.2,856,148.1z M789.6,140.4c0.5,0.6,1.5,0,1.9,0.8c0.5,0.8,1,1.4,2,0.6c-0.6-0.9-1.2-1.8-1.7-2.6
		C790.9,139.2,790.3,139.5,789.6,140.4z M841.1,114.2c-0.6,1.7-0.7,2.7,0.3,4C841.9,116.7,842,115.7,841.1,114.2z M800.5,143.9
		c1.8,1.3,1.8,1.3,3.3-0.7C802.7,142.8,801.7,143.2,800.5,143.9z M845.7,110.5c0.6,0.9,1,1.8,2.2,1.8c0.4-0.6,0.7-1.2,0.2-1.8
		C847.5,109.8,846.7,109.9,845.7,110.5z M850.9,143.1c-1.1-0.9-1.9-1.1-2.9-1C848.5,143.5,849.3,143.9,850.9,143.1z M833.8,122.3
		c1-0.1,2,0.9,3.1-0.2C835.7,120.6,834.7,121.1,833.8,122.3z M833.5,107.2c1.6,1.9,1.6,1.9,3.5,1.6
		C835.8,108.3,834.9,107.9,833.5,107.2z M810.4,141.7c-1.3,0.1-2.1,0.6-3.1,2.3C808.8,143.1,809.9,143.2,810.4,141.7z M833.3,127.9
		c0.7,0,1.1,1.5,2.1,0.4C835.1,126.4,834.2,127.1,833.3,127.9z M824.1,126.4c1.1,0.1,1.8-0.4,2.7-0.7
		C825.8,125.5,824.9,125.5,824.1,126.4z M760.6,138.9c1.3,0.2,2.2,0.4,3.7-0.2C762.8,138.6,761.9,138.5,760.6,138.9z M847.2,151.7
		c0.5,1,1.1,1,2.2,0.3C848.6,151.2,848.2,150.5,847.2,151.7z M831.4,140.3c-0.9-0.8-0.9-1.4-1.7-1.1
		C829.4,140,829.8,140.2,831.4,140.3z M822.4,115.6c0.9,0.3,1.3-0.1,1.5-0.9C822.9,114.3,822.6,114.9,822.4,115.6z M841.8,111.9
		c0.2-0.1,0.4-0.1,0.6-0.3c0.2-0.2,0.1-0.5-0.2-0.6c-0.4-0.1-0.7,0-0.7,0.4C841.4,111.6,841.6,111.8,841.8,111.9z M865.5,145.8
		c0.8,1.2,1.1,1.8,2,1.1C866.9,146.6,866.6,146.4,865.5,145.8z"/>
	<path d="M606.8,177.2c-6.4,2.5-13.2,3.1-20,3.3c-4.2,0.1-8.1,1.1-11.8,3.2c-4.5,2.5-9,4.7-13.9,6.4c-1.1,0.4-2.2,1.1-3.2,1.7
		c-1,0.6-2,0.9-3.3,1c-2.7,0.2-5.3,1.8-5.8,4.7c-0.7,3.7-2.3,6.6-5.6,8.5c-0.4,0.2-0.6,0.8-0.4,1.7c4.7,0,9.5,0,14.6,0
		c-3.3,3.6-13.4,4.1-16.9,1.2c-1.5,0.6-2.9,1.2-4.4,1.7c-3.2,1.1-6.2,2.6-9.1,4.4c-9.4,5.9-19.3,10.7-30.1,13.7
		c-2.5,0.7-4.9,1.4-7.2,2.6c-5.4,2.9-10.9,5.3-16.7,7.3c-1.2,0.4-2.4,1.1-4,1.7c4.6,11.7,7.5,23.9,11.8,35.8
		c-1.3,3.2-0.7,6.4,0.8,9.4c2.7,5.6,4.2,11.6,6.7,17.3c0.8,1.9,1.8,3.7,3.6,5.1c2.4-2.4,5.4-3.3,8.4-4.1c19.1-4.8,37.3-12.5,56-18.8
		c0.8-0.3,2-0.4,2.2-1.6c0.2,0.5,1,0.8,0.9,1.7c-7.8,4.3-16.6,6.8-25.2,10.6c4.1,2.1,7.7,4.2,12.2,4.6c2.4-1.5,5-3.1,7.5-4.8
		c8.4-5.8,17-11.3,26.8-14.6c1.8-0.6,3.6-1.4,5.3-2.4c3.1-1.7,6.4-3.2,9.1-5.5c-2.7,0.6-5.4,1.3-8.1,2c-9.1,2.5-18.4,4.7-27.4,7.7
		c0.3-0.7,0.9-1,1.6-1.3c4.9-2.2,9.8-4.3,14.9-5.9c10.1-3,20.2-6.3,30.5-8.8c2.4-0.6,4.1-2.1,5.8-3.6c5.9-5.1,11.9-10,18-14.9
		c1.6-1.3,3.3-2.5,4.9-3.7c0.9,0.9,0.3,1.5-0.2,2c-1.2,1.2-2.3,2.5-3.6,3.6c-5.8,5.2-11.7,10.3-17.5,15.5c-2.1,1.9-4.4,3.4-7.3,3.8
		c-1.2,0.2-2.3,0.7-3.5,0.9c-2.4,0.6-4.4,1.7-6.3,3.3c-5.4,4.5-11.4,7.9-18,10.2c-7.5,2.5-13.9,7-20.5,11.1
		c-2.7,1.7-5.4,3.4-7.8,5.4c-3.4,2.8-7,2.3-10.6,1c-3.1-1.1-6-2.7-9-4.5c-12.3,4.7-24.8,9.2-37.7,11.7c-1.1,0.8,0,2.4-1.6,3.1
		c-1.4,0.2-2.3-1.1-3.2-2.1c-3-3.3-4.2-7.6-5.8-11.7c-0.7-1.8-1.2-3.7-2-5.4c-1.8-4.2-3.5-8.5-4.1-13.5c-3.9,1.2-7.8,1.8-11.8,1
		c-3.7-0.7-7.5-0.8-11.2-1.1c-2.2-0.1-4.3,0.1-6.5,0.6c-7.5,1.7-15.2,1.9-22.8,3.1c-3.4,0.5-6.7,1.3-9.7,3.2c0.5,0.5,0.9,1,1.4,1.6
		c-0.5,0.5-0.9,0.9-1.5,1.4c0.9,3.1-0.6,5.5-2.7,7.7c-2.4,2.6-3.9,5.6-4.7,9.2c-0.7,3.3-2.3,6.4-2.7,9.8c-0.1,0.8-0.2,1.7-0.3,2.2
		c0.3,1.7,2.4,2.6,1.6,4.4c-4.5-0.6-5.2-2.3-4.1-10.2c-1.3-0.6-2.6,0.2-3.8,0.4c-1.4,0.2-2.7,0.2-3.7-1c-0.5-0.6-0.5-1.4,0-2
		c0.9-1.3,2.3-1.2,3.6-1.1c1.8,0.1,3.1,1.1,4.4,2.4c0.7-1.3,1.4-2.2,1.6-3.4c-5.7,0.7-8.1-0.1-9.8-3.1c0.3-1.3,1.2-1.8,2.4-1.6
		c1.6,0.3,3.1,0.7,4.6,1c1.4,0.3,2.8,0.8,3.8,1.6c1-0.5,0.7-1.1,0.6-1.8c-3.5-1.5-8.1-0.6-10.5-4.3c0.2-1.4,0.8-2.1,2-2.5
		c2.8,0.6,5.5,2,9,2.6c1.2-3.7,6.4-4.8,6.4-10c-3.3-0.6-6.4-1.2-9.5-1.7c-0.9,1.1-1.8,2.1-2.7,3.2c-1.2-0.4-1.9-1.5-3.2-1.3
		c-2.1,0.2-3.4-1.1-3.9-3.3c-7.9,0.9-15.6,2-23.1,4.2c-0.3,3.8,0.5,7.2,1,10.5c0.2,1.2,1,2.2,1.8,3.1c0.9,1,1.7,2.1,2.5,3.1
		c1.6,2,1.9,4.1,1.1,6.5c-0.6,1.8-0.8,3.8-1.5,5.6c-0.9,2.3-0.3,4.3,0.4,6.4c2.5,6.5,7.7,9.7,14,10.8c5.6,1,11.4,1,17.1,0.1
		c5.5-0.8,5.5-0.9,8.2-5.3c1.4,3.8,0.2,6.3-3.6,7.1c-5.4,1.2-10.8,1.7-16.3,1.2c-1.7-0.2-3.4-0.6-5.1-0.1c-0.4,0.1-1,0-1.4-0.2
		c-5.4-2.2-10.4-4.9-13.8-9.8c-2.1-3.1-2.9-6.7-2.4-10.5c0.3-2.7,0.6-5.3,1.6-8.2c-3.4-5.7-6.8-11.6-5.6-19.4
		c-2.6,0.8-4.2,2.2-6.1,3.4c0.9,1.2,2.7,0.7,3.6,2.5c0.6,3.2-0.2,6.4-3.1,9c-1.2,1.1-1.7,2.4-2.1,4.1c-0.8,3.8-2.1,7.5-3.2,11.2
		c-0.3,1.1-1.6,1.5-2.2,2.8c-0.1,1.7-1.1,3.7-0.1,5.7c1.1,0.8,2.4,0.3,3.6,0.7c1.9,1.5,4,2.9,6.3,4.2c4.1,2.3,4.8,5.3,3.1,10.8
		c-1.4,0.8-2.8,1.7-4.3,2.6c-6.3,3.8-13.3,3.6-20.2,2.9c-7.3-0.8-13.5-3.9-18.6-9.1s-7.8-10.9-6.2-18.7c1.4-6.8,0.9-13.9-3.4-19.9
		c-3.7-5.2-4.7-10.8-3.6-17c0.6-3.2,1.7-6.3,1.8-9.4c2.7-1.9,5.7-1.4,8.3-2.5c5.4-2.3,11.2-3.3,16.7-5.1c3-1,6.1-1.7,9.3-0.5
		c1.6,0.6,2.9,1.3,3,3.2c1.4,0.1,2.5-0.3,3.6-0.7c9-2.6,18-5.2,26.8-8.4c3.7-1.3,7.2-3,10.5-5c4.5-2.6,9-5.3,13.6-7.7
		c9.9-5.2,20.7-6.8,31.8-6.9c6.9-0.1,13.9,0.9,20.6-1.5c2.7-1,5.4-1.5,8.5-1.5c0.8-1.5,2.4-2.3,4.1-2.9c7.3-2.7,14.5-5.6,21.5-9.2
		c0.6-0.3,1.4-0.6,2.1-0.7c10.5-2.2,19.9-7.1,29.5-11.6c1.6-0.8,3.1-1.8,4.5-3c1.5-1.2,3.5-2,5.4-2.8c5.7-2.4,11.3-5.2,13-12.2
		c1-4.2,4.5-5.7,8.1-6.4c2.3-0.4,4.1-1.3,5.9-2.6c5.6-4.2,12.1-6.6,18.6-9.2c2.6-1,5.4-1.2,8.3-1.2c4.1-0.1,8.3-0.1,12.4-0.8
		c2.7-0.4,5.3-1.3,7.8-2.2c0.7,1.1-0.4,1.5-0.4,2.2L606.8,177.2z M440.8,278.1c1.6-2.7,4.4-3,7.2-3.7c-0.9,1.9-3.1,1.7-4.1,3.5
		c3-0.4,5.7-0.7,8.7-1.1c1.5,1.1,3.3,1.6,5.3,1.4c4-0.5,8-0.7,12-0.2c0.5,0.1,0.9-0.1,1.4-0.2c0.7-0.3,0.5-1.5,1.4-1.4
		c0.2,0.5,0.4,0.9,0.6,1.4c1.3-0.3,2.6-0.6,3.9-0.2c0.3-2.1-0.5-3.5-1.4-5.3c-2.5,1.9-4.9,1.6-7.1,0.4c-1.5,0.3-2.2,1.9-3.8,1.5
		c1-1.4,2.1-1.9,3.8-1.9c2.3,0,4.6-0.3,6.7-2c-2.7-9.5-5.4-19.1-8.2-28.7c-2.9,0-5.5,0.5-8,1.5c-2.1,0.9-4.4,2-6.6,1.8
		c-3.9-0.3-7.8,0.2-11.7,0.1c-11-0.3-21.5,2.2-31.9,5.3c-0.6,0.2-1.1,0.4-1.7,0.7c-5,3-10,6-15,9.1c-4.5,2.8-9.2,5-14.3,6.2
		c-2.4,0.5-4.7,1.3-7,2c-6.9,2.3-13.9,4.6-20.9,6.5c-1.2,0.3-2.3,1-3.1-0.5c-0.3-1.1,1.3-1.1,1-2.1c-0.9-0.7-1.8-1.3-2.5-1.9
		c-1.5-0.3-2.8-0.1-4.1,0.4c-5.5,1.9-11.3,3.1-16.6,5.5c-1.1,0.5-2.4,0.5-3.6,0.7c-2,0.3-4.1,0.2-6,1.3c-0.2,2.7-0.9,5.3-1.5,7.9
		c-1,4.5-1.2,9.2,1.6,13c2.2,3,3.4,6.4,5,9.6c2.2,4.3,1.7,9.2,0.8,13.6c-1.6,7.5-0.4,13.2,5.4,17.8c6.7,5.3,14.3,8.2,23,7.7
		c3.5-0.2,7-0.5,10.6-0.2c1.7-1.2,3.3-2.4,5-3.6c0-0.7,0-1.3,0.1-1.9c0.5-2.9-0.5-4.9-3.3-6.1c-1.2-0.5-2.2-1.4-3.5-2.3
		c-2.9,1.5-5.2-1.4-8.2-1.1c-2.9,0.3-5.2-1.8-7.7-3.4c1.8-0.4,3.5-0.9,4.7-1.7c1.6,0.2,2.5,1.6,4.2,1.5c-0.7-1.8,0-3.3,0.6-4.8
		c-4.5,0.4-4.6,0.3-5.7-2.6c2.4-1.9,4.6-1.1,7,0.2c0.8-1.2,1-2.4,0.8-3.7c-3.6-0.1-7.1-0.1-9.1-3.5c0.5-1.8,1.5-2,2.9-1.5
		c2.2,0.7,4.4,1.4,6.7,2c0.5-1.1,0.9-2.2,0.9-3.4c-3.7-0.2-7.4,0.1-9.9-3.4c0.3-0.4,0.6-1,0.8-0.9c3.6,0.4,7.1,0.8,10.9,1.3
		c0.2-2.1,2.9-2.3,3.5-4.2c0.5-1.8,1.9-3.3,2.1-5.2c-2.7-1.4-5.8-1-7.8-3.1c-2.4,0.8-4.3,2.1-6.1,3.6c-1.3,1.2-2.8,1.4-4.4,0.8
		c-6.9-2.5-10.7-9-9.6-16.2c0.2-1.5,0.8-2.8,2.1-3.6c2.7-1.6,4.4-4.1,5.8-6.9c0.4-0.8,0.6-2,2.2-1.7c0.8,2.2,0.5,4.6,0.5,7
		c4.2-1.1,8.1-3.2,12.6-2.7c-4.9,1.1-9.1,3.3-13.2,6.1c-0.1,4.9,0.7,5.9,8.4,11.2c1.6-0.7,3.1,0,4.7,0.6c5.7-4.8,12.4-7.3,19.5-9
		c6-1.4,12.2-2.2,18.4-2.7c8.4-0.8,16.8-2.1,25.3-2.6C427.9,279.6,434.2,278.9,440.8,278.1z M350,295.7c-1.3-1.1-2.4-1.9-3.4-2.8
		c-1.8-1.7-3-3.8-3.1-6.4c-0.1-2.2-0.2-4.5-0.4-7.5c-1.5,2.4-3.5,3.1-4.9,4.7c-0.3,2.2-0.6,4.5-0.9,6.8c2.2,4.1,3.8,5.4,10,7.8
		C348.1,297.5,349,296.7,350,295.7z M404.5,284.2c1.5,1.1,2.9,1.1,4.4,1.1c0.6-0.6,1.3-1.2,2.3-2.1
		C408.7,283.6,406.8,283.9,404.5,284.2z M399,284.9c-1.6,0.2-2.9,0.1-4,1.2c1.7-0.1,3.3,0.9,5.4,0.7
		C399.9,286,399.5,285.5,399,284.9z"/>
	<path fill="none" d="M559.6,282.9c9-3,18.2-5.2,27.4-7.7c2.7-0.7,5.3-1.5,8.1-2c-2.8,2.3-6,3.8-9.1,5.5c-1.7,0.9-3.5,1.8-5.3,2.4
		c-9.8,3.2-18.4,8.7-26.8,14.6c-2.5,1.7-5.1,3.3-7.5,4.8c-4.5-0.3-8.1-2.4-12.2-4.6c8.6-3.9,17.3-6.4,25.2-10.6
		c0.1-0.9-0.7-1.1-0.9-1.7C558.9,283.4,559.2,283.2,559.6,282.9z"/>
	<path d="M806.6,450.2c0.5,0,0.9-0.1,1.2-0.5c2.1,0.8,4.6-1,6.6,1.1c0.2,2.1,0.6,4.2,0.2,6.1c-1,1.3-2.4,1.3-3.4,1.9
		c-0.7,1.1,0.5,2.5-0.8,3.7c-0.7,0.3-1.7,0.6-2.8,0.3c-0.9-1.7-0.9-1.7-1-5.3c1.6-2.5,3.7-2.1,6.1-0.8c0.8-1.9,0.2-3.7,0.2-5.3
		c-0.9-0.6-1.5-0.5-2.1,0.1c-0.6,0.7,0.6,1.3,0.2,2c-1.8,0.2-1.7-1.7-2.5-2.5c-0.6,0.1-1,0.2-1.5,0.3
		C806.6,451.2,806.8,450.6,806.6,450.2z"/>
	<path d="M595,246.4c3.1-1.8,6.2-3.7,9.3-5.5c2.3-1.3,4.6-2.7,6.7-4.4c1.2-1,2.5-1.8,2.2-3.6c1.1-0.3,1.7,0,2.2,1.1
		c-0.2,1.8-1.5,3.2-2.9,4.5c-2.3,2.2-5.1,3.7-8,5c-2.9,1.4-6.2,1.9-8.9,3.9C595.3,247.1,595.2,246.8,595,246.4z"/>
	<path d="M567.1,505.3c5,1.7,9.8,3.7,15.1,5c0.4,0.9,0,2-0.1,3c-0.5,4.2,0.1,8.2,1.8,12.1c0.6,1.5,1.6,3.1,0.3,4.8
		c-2.1-6.2-5.2-12.1-2.9-19C576.4,509.1,570.8,509.4,567.1,505.3z"/>
	<path d="M555.4,523.1c8.7,6.4,18.6,10.3,28.7,14c0.9,0.3,1.8,0.7,2.8,1.1c-1.1,0.7-1.9,0-2.8-0.3c-7.6-2.3-14.9-5.2-21.8-9.1
		c-2.6-1.5-5.3-3-7.4-5.3C555.1,523.4,555.2,523.2,555.4,523.1z"/>
	<path d="M567.1,220.3c-1.5,1.4-3.5,0.5-5.2,0.9c-9.1,2.2-18.3,3.7-27.4,6.1c-0.6,0.2-1.2,0.3-1.8,0c2.5-1.4,5.2-1.9,7.9-2.5
		c6.4-1.4,12.9-2.5,19.3-3.9C562.4,220.4,564.8,220.7,567.1,220.3L567.1,220.3z"/>
	<path d="M413.2,329.9c-0.1-1-0.2-1.7-0.3-2.3c-1.7-2-4.8-1.8-6.3-4c0.3-1.1,1.1-1.1,1.8-1c1.5,0.4,3.1,0.7,4.5,1.3
		C416.3,325.2,416.5,327.2,413.2,329.9z"/>
	<path d="M558,544.7c8.7,3.2,17.3,6.3,26,9.5c-9.1-1.9-17.7-5.4-26.2-8.8C557.8,545.2,557.9,544.9,558,544.7z"/>
	<path d="M592.2,492.4c-4.1-3.4-7.8-6.4-11.4-9.5c0.2-1.1,0.9-1.4,1.6-0.9c2.8,2.2,5.6,4.5,8.4,6.9
		C591.5,489.6,592.3,490.4,592.2,492.4z"/>
	<path d="M604,217.7c-2.9-6.2-4.9-12.4-2.7-19.2C600.8,205.1,602.3,211.4,604,217.7z"/>
	<path d="M832.6,481.8c2.7,1.1,4.9,3.2,8.2,2c0.1,1.6-0.8,2.2-1.9,2.8c-1.2-0.4-2.6-0.8-4.1-1.3C834.1,484.1,833.4,483,832.6,481.8z
		"/>
	<path d="M566.4,496.6c3.7-2.3,7.6-3.2,11.8-1.5C574.4,496,570.4,495.7,566.4,496.6z"/>
	<path d="M602.7,185.2c-4.5,0.3-9,0.4-13.7-0.8C591.7,183.6,598.3,183.9,602.7,185.2z"/>
	<path d="M554.5,197.5c3.4-3.1,6.2-0.4,9.1-0.4C560.7,198,557,198.1,554.5,197.5z"/>
	<path d="M796.8,474.9c-0.4,3.2-2.4,4.8-4.7,6.5C792.4,478.5,793.6,476.9,796.8,474.9z"/>
	<path d="M605.2,186c-0.4,0.3-0.7,0.6-1.4,1.1c0.4-3.6,1.8-6.7,2.9-9.9l-0.1,0.1c0.5,0.1,0.8,0.3,0.8,0.9c0,0.6,0.1,1.1,0.7,1.4
		l-0.1-0.1C606.2,181.3,605.4,183.6,605.2,186L605.2,186z"/>
	<path d="M570.8,207.3c-3.7,1.8-5.2,1.7-8.1-0.3c1.6-0.8,2.8,0.4,4.2,0.3C568.2,207.2,569.5,207.3,570.8,207.3z"/>
	<path d="M622.3,545.7c2.9-0.5,5.8-0.6,8.5,0.7C627.9,546.8,625.1,547,622.3,545.7z"/>
	<path d="M397.7,319.4c-1.9,2.2-4.2,0.8-6.6,1.1C393.8,318.3,395.4,318.1,397.7,319.4z"/>
	<path d="M600.7,191.8c-3.3,0.3-6.5,0.6-10.2,0.9c3.4-2,6.8-1.5,10-1.9C600.6,191.1,600.7,191.4,600.7,191.8z"/>
	<path d="M393.9,315c2.3-1.1,3.9,0.3,5.9,0.7C396.6,317.6,395.9,317.5,393.9,315z"/>
	<path d="M607.2,256c2-2.3,4.4-4.3,7-6c-1.9,2.5-4,4.7-6.6,6.4C607.4,256.3,607.3,256.1,607.2,256z"/>
	<path d="M769.5,488.4c-2.8,0.9-2.8,0.9-6.2,0.1C765.5,486.9,767.5,487.7,769.5,488.4z"/>
	<path d="M603,230.3c-0.3,2.5-2.1,3.6-4.1,4.6C599.9,233,602,232.1,603,230.3z"/>
	<path d="M598.6,515.9c-1.7,0.1-2.8-0.7-4.1-2.3C596.7,513.7,597.8,514.7,598.6,515.9z"/>
	<path d="M779,468.3c0.6-1.6,1.1-3.1,3.1-4C782.2,466.8,780.1,467.2,779,468.3z"/>
	<path d="M790.5,455.7c-0.7,1.7-1.9,2.8-3.3,3.9C788,456.6,788.5,456.1,790.5,455.7z"/>
	<path d="M516.8,235.1c1.5-1.5,3.5-1.9,5.3-2.6C520.5,233.7,518.9,234.9,516.8,235.1L516.8,235.1z"/>
	<path d="M758.1,447.8c-2.1,0.8-3.4-0.4-4.9-0.7C755.4,446.9,755.4,446.9,758.1,447.8z"/>
	<path d="M753,508c-0.2,1.4-1.1,2.1-1.9,3.2C751.2,509.2,751.2,509.2,753,508z"/>
	<path d="M623,599.7c-1.2-0.7-2.2-1.6-2.6-2.9C621.6,597.4,622.5,598.4,623,599.7z"/>
	<path d="M597.3,197.8c-0.4,1.8-1.6,2.4-3.2,2.4C595.2,199.4,596.3,198.6,597.3,197.8z"/>
	<path d="M607.6,256.4c-0.8,1.1-1.9,2-3.8,2.8c1.3-1.6,2.2-2.5,3.4-3.2C607.3,256.1,607.4,256.3,607.6,256.4z"/>
	<path d="M605.2,213.6c1.5-1.1,2.4-1.8,3.7-0.8C608.1,214.2,606.9,213.8,605.2,213.6z"/>
	<path d="M621.3,229.2c-1.3,0.8-2.2,1.1-3.4,1.1C618.7,229.1,619.5,228.8,621.3,229.2z"/>
	<path d="M747.4,516.3c-0.7,1-1,1.9-2.1,1.8c-0.4-0.2-0.5-0.6-0.2-0.9C745.5,516.5,746.1,516,747.4,516.3z"/>
	<path d="M621.3,233.6c0.6-1.9,2-1.5,3.9-1.8c-1.4,1.6-2.7,1.5-4,1.7L621.3,233.6z"/>
	<path d="M579,249c-0.9,1.1-2.1,1.4-3.4,1.8c0.7-1.1,1.8-1.8,3.1-2.1C578.8,248.8,578.9,248.9,579,249z"/>
	<path d="M582.7,246.9c-1,1.1-2.2,1.8-3.7,2.1c-0.1-0.1-0.2-0.2-0.3-0.3c1-1.1,2.2-1.8,3.7-2.2C582.5,246.7,582.6,246.8,582.7,246.9
		z"/>
	<path d="M787.5,485.4c0.7-1.4,1.5-1.8,2.8-2.1C789.8,484.8,789,485.1,787.5,485.4z"/>
	<path d="M555,523.5c-1.1-0.4-1.9-1-2.8-2.5c1.7,0.4,2.5,1.2,3.3,2C555.2,523.2,555.1,523.4,555,523.5z"/>
	<path d="M612.6,218.3c-0.9,0.7-1.9,1.2-3.5,1.2C610.2,217.7,611.4,218.1,612.6,218.3L612.6,218.3z"/>
	<path d="M604.3,532c1.3,0.5,2,0.7,2.4,1.4C605.7,533.8,605.1,533.2,604.3,532z"/>
	<path d="M576.3,563.5c1.3,0.3,2.4,0.8,2.9,2.2l0.1-0.1C578,565.4,576.8,564.9,576.3,563.5L576.3,563.5z"/>
	<path d="M617.2,592.8c1.2,0.4,1.6,1.4,2,2.4C618.2,594.6,617.4,593.9,617.2,592.8L617.2,592.8z"/>
	<path d="M757.8,468.9c0.4-1.2,1.3-1.1,2.2-1c0.1,0.9-0.5,1-1,1.3C758.6,469.4,758.2,469.3,757.8,468.9z"/>
	<path d="M506.2,239.1c0.9-0.5,1.6-1.1,2.7-0.9C508.2,238.9,507.4,239.3,506.2,239.1z"/>
	<path d="M516.8,235c-0.8,1-1.8,1.3-3.3,1.4C514.7,235.5,515.7,235,516.8,235L516.8,235z"/>
	<path d="M764.8,464.8c-0.6,1.1-0.9,1.8-1.7,1.9C762.5,465.1,763.6,465.3,764.8,464.8z"/>
	<path d="M567.2,220.4c0.5-0.9,1.2-1.3,2.4-1.2C568.7,219.8,568.1,220.4,567.2,220.4L567.2,220.4z"/>
	<path d="M594,556.4c0.6,0.5,1.3,0.7,1,1.5C594.4,557.8,594,557.5,594,556.4z"/>
	<path d="M591.2,553.6c-0.2-0.4-0.8-0.5-0.6-1.1C591,552.7,591.5,552.8,591.2,553.6z"/>
	<path d="M582.4,246.5c0.4-0.7,1.1-1.1,1.9-1.4c0.1,1.3-0.8,1.4-1.6,1.7C582.6,246.8,582.5,246.7,582.4,246.5z"/>
	<path d="M757.8,498.3c-0.1-1.1,0.2-1.5,0.9-1.9C759.2,497.3,758.7,497.8,757.8,498.3z"/>
	<path d="M613.2,221.9c0.4-0.1,0.9-0.3,1.3,0.2c-0.3,1-0.9,1.1-1.9,0.9C612.8,222.6,613,222.2,613.2,221.9L613.2,221.9z"/>
	<path d="M581.4,567.2c0.9-0.1,1.4,0.4,2.1,1.2C582.3,568.4,581.7,568,581.4,567.2L581.4,567.2z"/>
	<path d="M615.9,590.4c-0.8-0.2-1-0.7-1.1-1.5C615.4,589.3,615.7,589.8,615.9,590.4L615.9,590.4z"/>
	<path d="M615.8,590.5c0.9,0.5,1.5,1.2,1.4,2.3l0.1-0.1C616.3,592.2,615.8,591.5,615.8,590.5L615.8,590.5z"/>
	<path d="M597.8,235.4c-0.4,1.2-0.9,1.4-1.5,1.6C596.3,236,597,236.1,597.8,235.4z"/>
	<path d="M582.6,539.1c0.2,0.7,0.4,1.3-0.1,1.9C582.3,540.4,582.1,539.8,582.6,539.1z"/>
	<path d="M581.5,567.1c-1.1,0.1-1.8-0.5-2.2-1.4l-0.1,0.1C580.3,565.7,581,566.1,581.5,567.1L581.5,567.1z"/>
	<path d="M586.5,570.6c-0.4-0.3-0.7-0.5-1.1-0.8C586.2,569.2,586.4,570.1,586.5,570.6z"/>
	<path d="M576.4,563.4c-0.9,0.2-1.4-0.4-1.9-1.2C575.5,562.2,576,562.7,576.4,563.4L576.4,563.4z"/>
	<path fill="none" d="M719.4,521c-0.7,5.6-1.7,11.2-2.1,16.9c-0.8,9.8-2.6,19.5-4.8,29.1c-0.4,1.6-0.8,3.2-0.1,5
		c0.4,0.9,0.4,1.9,0.3,2.9c-0.4,9.4-0.9,18.7-1.4,28.1c-0.2,3-1.3,5.7-2.2,8.5c-3.9,12.9-7.2,26-8,39.6c-0.3,6-0.3,11.9,1.3,17.7
		c0.4,1.4,0.2,2.9-1.2,4.1c2.3,0.3,2-1.5,2.6-2.5c5.4,3.9,11.5,4.3,17.8,4.1c3-0.1,5.9,0.2,8.1,2.8c0.9,1,2.5,0.9,3.4,2.3
		c-2.8,0.1-5.1-1.5-7.9-1.7c1.4,2.6,2.8,3.2,10.5,4.6c2.4,3.7,7,4.7,11.4,6.8c-2.6,1.3-4.9,1.4-7,0.4c-5.1-2.4-10.5-3.7-15.7-5.9
		c-3-1.3-5.7-3.1-8.6-4.7c-0.7-0.4-1.4-1.1-2.3-0.2c-0.1,0.7,0.3,1.1,0.8,1.5c2.4,1.6,5,2.8,7.2,4.9c1.4,1.3,3.8,1.4,5.8,2
		c1.5,0.4,2.5,1.3,3.1,2.8c-5.7,0.1-10.6-2.5-15.8-4.3c-3,1.2-6.3,1.1-9.4,1.2c-2.9,0.1-5.8-0.7-8.6-1.3c-3-0.7-5-3.3-4.1-6.2
		c0.5-1.9,0.3-3.6-0.2-5.3c-2.6-8.5-4.3-17.2-7.3-25.6c-1.5-4-2.3-8.1-2.2-12.5c0-4.3-0.4-8.5-0.6-12.8c-0.2-4.3-0.1-8.5,0.4-12.8
		c0.2-1.8,0.7-3.5-0.4-5.3c-0.4-0.6-0.1-1.7,0-2.5c0.2-1.4,0.3-2.9,0.7-4.3c1.6-5.8,1.1-11.5-0.5-17.3c1.9-4.2,2.2-8.9,3.5-13.3
		c0.7-2.5,0.2-5.1-0.5-7.6c-3.2-11-2.5-22.4-4.3-33.5c0.7-0.8,1.2-1.4,1.6-2c0-1-1.1-1.1-1.3-2.1c0.3-2.4,1.5-4.8,2.4-7.3
		c1.3-3.6,2.1-7.2,2.8-10.9c0.8-4.1,1-8.1,0-12.2c-0.9-3.7-0.1-7.5,1-11.1c0.7-2.5,1.4-5.1,1.9-7.7c-3.5,3.1-5.1,7.2-4.9,11.6
		c0.2,2.7-0.6,5.2-0.4,8.2c-5.8,0.5-11.4,1.5-17.2,1c-0.6-2.6,0.1-4.9,1.5-6.3c2.6-2.6,4-6,6.2-8.9c4.4-5.6,9.3-10.4,15.1-14.7
		c4.5-3.3,9.3-4.6,14.7-5.4c3.9-0.6,7.8-1.5,11.9-1.7c3.3-0.2,6.1,0.5,9,2.3c3.2,2,6.6,3.7,9.7,5.7c3.1,2,5.2,4.7,6.1,8.3
		c1.9,7.1,3.4,14.2,2.3,21.6c-0.2,1.2-0.3,2.4-1,3.5c-0.3,0.6-0.5,0.1-0.9-0.2c-1.1,1.4-1.4,2.9-0.7,4.4c-2.3,4.6-5.3,8.3-9.1,11.6
		C728.4,517.2,723.4,518,719.4,521z M703.3,517.6c0.4,1.1,0.8,2.3,2.7,2.7c-0.9-1.3-1.2-2.5-2.5-2.9c-1.1-2.2-2.2-4.5-4.6-6.8
		C699.6,514,701.6,515.8,703.3,517.6z M698.4,546.5c1-0.6,1.2-1.3,0.9-2c-1-1.9-1.9-4.1-3.1-5.5c-3.1-3.4-6.1-6.9-8.7-10.7
		c-0.6-0.9-1.4-1.4-2.4-0.6c-0.5,1.2,0.2,2.1,0.8,3c2.3,3.9,4.9,7.5,8.7,10.1C696.5,542.2,698.3,543.7,698.4,546.5z M698.6,570
		c-6.4,3.7-6.2,9.2,0.4,13.4c0.6,1.1,0.2,2.9,1.7,3.7c1.5-2.6,1.5-3-0.7-5.7c-0.5-0.2-1.1,0.7-1.9-0.4c-0.5-1.8-0.7-4.1-1.6-5.6
		C696.2,572.8,698,571.7,698.6,570z M692,496.2c-1.8,4.5,1.6,12,6.2,13.7c-1.8-2-2.9-4.3-3.9-6.6C693.4,501,693.8,498.3,692,496.2z
		 M717.5,464.5c-1.4,1.1-0.9,1.7-0.1,2.1c3.6,2.1,4.9,5.5,5.5,9.3c0.1,0.8-0.1,1.9,0.9,2.5c1.5-3,1-6.3-1.4-9
		C721,467.7,718.8,466.5,717.5,464.5z M723.7,481.8c-2,1.1-0.9,2.7-0.9,4s0.2,2.6,0.3,4c0.1,1.3-0.2,2.6,0.4,4.4
		C725.7,489.2,725.8,485.1,723.7,481.8z M694.3,614.2c-0.5-5.2-0.6-10.4-0.5-15.6C691.3,603.9,692.8,609,694.3,614.2z M693.7,583.4
		c-2,3.2-2.2,4.9-1.5,11.6C691.9,591.2,694.3,587.8,693.7,583.4z M733.6,484.3c-2.6-3.8-4.4-4.3-6.7-2.3c0.8,1.2,2.2,0.9,3.3,1
		C731.3,483.1,732.2,484,733.6,484.3z M720.5,506.1c1.5-2.4,1.4-4.6,1.8-6.7C720.7,501.2,720.1,503.2,720.5,506.1z M712.1,538.8
		c-0.3,1.4-0.2,2.7,0.7,4.4C713.9,541.2,713.4,540,712.1,538.8z M700.9,587.6c-0.4,1.7-0.5,2.7,0.8,3.6
		C702.2,590,702.4,588.9,700.9,587.6z M699.5,555.8c0.4-1.2,1.7-1.6,1.2-2.8c-0.5-0.3-0.8,0-0.9,0.3
		C699.5,553.9,699.1,554.5,699.5,555.8z M707,676.9c0.5-0.3,1.7,1.7,3,0C708.6,676.9,707.4,676.9,707,676.9z M694.1,466.2
		c-1.7,0.8-2.4,1.6-3.2,3.2C692.7,468.8,693.4,467.9,694.1,466.2z M706.9,682.2c-0.4,0.9-0.3,1.7,0.7,2.3
		C708,683.4,707.8,682.7,706.9,682.2z M699.5,549.8c0.8,0,1.1-0.4,1.2-0.9c0.1-0.5,0.4-1.1-0.5-1.3
		C699.6,548.1,699.1,548.7,699.5,549.8z M696.5,625.3c0.2-1,0.2-1.7-1.1-2.4C695.5,624.1,695.3,624.9,696.5,625.3z M735,505.6
		c-1.3,1.1-1.9,1.8-2.1,2.9C734,508.1,734.7,507.4,735,505.6z M701.6,594.8c1-0.3,1.4-0.8,0.7-1.7
		C701.3,593.3,701,593.9,701.6,594.8z M717.3,511.3c0.5-0.5,1.9-0.4,1.1-1.7C717.7,509.9,717.1,510.3,717.3,511.3z M737.6,496.2
		c-0.7,0.6-0.9,1.2-0.6,2.2C738,497.8,738,497.1,737.6,496.2z M684.7,525.1c0.7-0.6,1.3-1,0.3-1.7
		C684.3,523.8,684.5,524.3,684.7,525.1z M696.6,463.3c-0.6,0.9-1.5,0.8-0.8,2.2C696.2,465,696.8,464.8,696.6,463.3z"/>
	<path fill="none" d="M676.7,514.3c1.3,0,2.4-0.8,4-0.2c-0.2,3.3-1.6,6.4-1.4,10c-4.8,1.1-9.4,1.2-13.9,0.4
		c-2.4-0.4-4.5-0.3-6.8,0.4c-3.7,1.1-7.4,2.1-11.4,1.7c-2.5-0.3-4.9,1.8-8,2.1c-1.3-0.7-2.8-1.9-4-3.4c-2.4-3.3-5.5-5.8-8.5-8.4
		c-2.9-2.5-5.9-5.1-8.5-8c-2.7-3.1-5.4-6.2-4.8-10.9c0.2-1.1-0.5-2.3-0.9-3.5c-1.6-5.5-3.3-11-4.3-16.6c-0.3-1.4-0.5-2.8-0.4-4.5
		c2.1-1.1,4.3-2.2,6.3-3.5c1.1-0.7,2.5-1,3.8-1c3.9,0,7.5-1.3,10.7-3.2c8.7-5.1,18-8.6,27.6-11.3c5.4-1.5,10.6-3.6,15.6-6.2
		c1-0.5,2-0.9,3.1-1.1c10.8-1.3,21.3-3.8,32-5.6c6.2-1.1,12.6-1,18.8-2.3c2.5-0.5,4.8,0.7,7.1,1.3c2.2,0.5,4.3,1.5,6.9,1.4
		c-2.4,2.6-3.1,5.7-4.3,8.8c5.7,7,8.1,15.3,9.7,24.4c-1.6-0.9-1.6-2.3-2.3-3.3s-1.5-2-1.8-3.1c-0.7-2.2-2.3-3.7-4.1-5
		c-2.3-1.6-4.7-3-7-4.5c-1.1-0.7-2.4-1.3-3.4-2.2c-3.3-3.1-7.2-3.4-11.3-2.8c-6.7,1.1-13.4,2.4-20.1,3.6c-1.3,0.2-2.6,0.7-3.6,1.6
		c-0.7,0.6-1.6,1.2-2.4,1.6c-7.1,3.5-11.8,9.2-15.4,16c-1.1,2.1-2.4,3.9-4,5.6c-3.2,3.4-5.3,7.4-5.8,12.2c-0.2,2-1.8,3.6-1.9,5.9
		c1.1-0.3,1-1.3,2.1-2C665.6,506,669.7,511.4,676.7,514.3z M656.9,461.4c2.1-1.2,4.2-2.4,6.2-3.7c0.7-0.4,1.3-1.2,0.3-2.2
		c-2.8,1.2-5,3.1-6.8,5.5c-0.9,0.4-1.8,0.9-1.9,2.2C655.8,462.8,656.4,462.2,656.9,461.4z M631.8,501.4c-1.2,0.1-2.2,0.7-2.6,1.6
		c-1.2,2.6-3.4,4-5.5,5.6c-0.6,0.4-1.4,0.6-1.3,1.6c3,1,5.3-0.9,7.2-6.1C630.3,503.3,631.9,503.2,631.8,501.4z M663.6,522.5
		c-1.2-3.3-1.4-3.5-3.9-3.9C660.5,520.5,660.8,522.5,663.6,522.5z M641.7,521.8c0.8,1.7,1.1,4,4.2,3.6
		C644.9,523.4,643.2,522.7,641.7,521.8z M639.5,466.1c1.1-1.1,2.7-2,2.8-4.5C640.4,462.9,639.6,464.3,639.5,466.1z M720.3,446.5
		c1.8-1.7,3.4-2.4,4.4-4.8C722.4,443,721.3,444.1,720.3,446.5z M653,469.7c-1.6,1.3-2.6,2.3-1.8,4
		C651.3,472.3,652.8,471.7,653,469.7z M660.1,508.7c-1.5-0.3-1.6,0.6-1.9,1.8C659.3,510,659.9,509.6,660.1,508.7z M654.6,512.7
		c0.2,1,0.6,1.6,1.3,2.1c0.4,0.3,0.6,0,0.8-0.6C656.4,513.6,656,512.9,654.6,512.7z M662.1,493.9c0.2-1.5-0.6-1.3-1.6-1
		C660.9,493.6,661.3,493.9,662.1,493.9z M657.4,490.8c-0.2-1.1-0.8-1.1-1.6-0.8C656.1,490.9,656.5,491.3,657.4,490.8z M660.4,504.9
		c-0.2-0.1-0.3-0.2-0.5-0.3c-0.6,0.4-1.1,0.9-0.5,1.8C660.2,506.2,660.4,505.6,660.4,504.9z M639.2,470.4c-0.8,0.2-1.9,0.6-1,1.8
		c0.2-0.3,0.5-0.6,0.7-0.9C639,471,639.1,470.7,639.2,470.4z"/>
	<path fill="none" d="M594.6,597.8c1.5-0.2,2.5,0.8,3.6,1.6c3.1,2.1,6.1,4.4,9.3,6.5c2.6,1.8,4.7,4.2,7.1,6.2
		c2.8,2.3,5.4,4.8,8.6,7.7c-0.6-2.8-2.7-4-3.5-5.8c0.2-0.8,0.7-0.5,1.2-0.5c9.1,0.8,20.2-1.2,28.6-5.1c4.1-1.9,8.1-4,11.3-7.6
		c1.8,5.3,3.8,10.2,4.7,15.4c0.4,2.2,0.6,4.4,1.3,6.4c1.5,4.5,0.2,8.3-2.3,12c-1.8,2.6-3.5,5.3-5.2,7.9c-3.9,2-8,2.7-12.3,2.8
		c-2.2,0.1-4.4,0.2-6.5,0.7c-1.4,0.3-2.9,0.4-4.4,0.1c-13.5-2.3-26.5-6.1-39.4-10.7c-4.2-1.5-7.8-4-11.3-6.6
		c-6.4-4.6-13.3-8.1-20.3-11.4c-5.3-2.5-11.3-3-17.1-3.4c-3.3-0.3-6.6-0.5-9.8,0.2c-0.9,0.2-1.7,0.1-2.8-0.5
		c-0.7-1.9-2.5-3.1-4.1-4.7c-3.1-3.1-6.5-5.9-7-11.5c0.4-2,1-4.8,1.6-7.8c2.4-1.4,5.1-1.9,7.9-1.3c3.2,0.6,6.4,1.5,9.6,2.3
		c4.8,1.3,9.7,2.4,14.7,2.7c2.9,0.2,5.8,0.6,8.7,1.1c5.8,1.1,11.6,1.2,17.5,0.8C587.9,595.3,591.4,596,594.6,597.8
		c-2.2-0.2-4.4-0.9-7.3-0.4c3,1.4,4.6,1.7,7.3,1.4C594.6,598.5,594.6,598.2,594.6,597.8z M572.7,607.8c1.5,4.8,8.9,9.9,14.5,10.2
		c-2.6-1.6-4.9-3.1-7.2-4.5C577.5,612,575.8,609.5,572.7,607.8z M654.3,625.6c-1.2,3.6-2.2,6.4-3.3,9.7
		C655.2,632.1,656.2,629.3,654.3,625.6z M537.5,594.6c-2.2-0.9-8.1-1.7-9.1-1.4c-0.2,0.1-0.3,0.6-0.5,1
		C530.9,596.7,534,594.6,537.5,594.6z M596.7,622.4c-1.6-1.1-2.9-1.9-5.2-1.4C593.2,622.3,594.7,622.7,596.7,622.4z M542.1,594.8
		c-1.2-0.8-2-1-3-0.2C540,595.8,540.8,595.7,542.1,594.8z M550.2,595.4c1,0.7,1.8,1,2.9-0.2C552,594.7,551.2,594.4,550.2,595.4z
		 M546.9,594.9c-0.6-0.8-1.1-1-1.9-0.3C545.5,595.6,546,595.7,546.9,594.9z M662.2,628.2c0.9-0.6,0.9-1.3,0.7-2.4
		C662.6,626.8,661.8,627.3,662.2,628.2z M624.8,622.2c-0.1,0.9,0.3,1.2,1.2,1C625.8,622.4,625.7,621.9,624.8,622.2z M606.6,625.2
		c-0.5-0.8-0.9-1.2-1.6-0.7C605.2,625.1,605.6,625.3,606.6,625.2z M609.4,625.9c1,0.5,1,0.5,1.6,0.1
		C610.7,625.7,610.2,625.7,609.4,625.9z M617.1,626.8c-0.7-0.7-1.4-0.9-2.2-0.2C615.6,627.2,616.3,627.5,617.1,626.8z M569.7,602.8
		c0.3-1-0.2-1.4-1-1.8C568.5,602,568.7,602.6,569.7,602.8z"/>
	<path fill="none" d="M507.2,539.9c4.5,5.6,10.4,8.6,16.3,11.4c2,0.9,4.1,1.6,6,2.7c4.3,2.5,7.3,6,8.2,11.1c0.4,2.4,1.6,4.6,2.5,7
		c-1.8,1.2-3.9,1.3-5.9,1.6c-6.1,0.9-12.2,2.3-18.5,1.1c-3.1,1.3-6.4,1.2-9.6,1.5c-1.9,0.2-3.8,0.3-5.8-0.1c-3-0.6-6,0.5-8.9,1.2
		c-1.1,0.2-2.3,0.7-3.4,0.9c-2.6,0.4-5.3,0.7-7.9,1.2c-5.4,1.1-10.9,0.7-16.4,1c-6,0.2-11.9,0.9-17.8,1.1c-6.1,0.2-11.7,1.6-17.5,3
		c-1.7,0.4-3.3,0.8-5,0.8c-4.8,0.1-9.4,1.5-13.8,3.2c-2.6,1-4.9,0.9-7.2-0.7c-1.6-1.1-3.3-2.1-4.9-3.2c-2.2-1.6-3.5-3.6-3.1-6.5
		c0.2-1.7,0.2-3.4,0.3-5.1c1.2-1.1,2.7-1.1,4.1-1.2c9.6-1,19-2.8,28-6.5c6.4-2.7,12.7-5.8,18.2-10c6.6-5.1,14.1-7,22.2-7
		c5,0,10-0.4,14.9-1.2c2.7-0.5,5.6-0.8,8.3-0.9C496.5,545.8,502.2,544.1,507.2,539.9z M483.6,559c-0.2-0.2-0.4-0.5-0.6-0.7
		c-3.9,2.4-7.8,4.9-11.7,7.3C475.6,563.6,480.3,562.5,483.6,559z M496.8,569.9c5.8-0.2,5.8-0.2,8.1-1.9
		C503.4,567.4,500.6,568,496.8,569.9z M394.8,577.8c0.4,0.6,0.5,1,0.7,1.2c0.8,0.6,1.6,0.3,2.4,0.1c1.3-0.4,2.7-0.7,3.5-2.2
		C399.4,577.7,397.2,576.7,394.8,577.8z M491.2,574.9c2.7,0.1,3.9-0.8,4.7-2.8C493.6,572.1,493.6,572.1,491.2,574.9z M487.2,551
		c3.4-1.2,3.4-1.2,4.3-3.7C489.7,548.4,488.3,549.2,487.2,551z M506.5,570.7c2.4,1.7,2.4,1.7,4.4,1.6
		C509.6,571.4,508.6,570.7,506.5,570.7z M405.2,576.7c1.2,0.2,2.4,0.4,3.1-1.1C406.8,575.1,405.9,575.6,405.2,576.7z M466.4,567.1
		c-2.5,0.2-2.5,0.2-3.6,1.3C464.1,568.3,465.1,568.2,466.4,567.1z M454.1,569c0.8,0.2,1.2,0,1.2-0.6
		C454.7,568.1,454.4,568.3,454.1,569z"/>
	<path fill="none" d="M784.6,519.6c-0.8,0.6-1.6,1.1-2.4,2.6c0.2,12.4,0.3,25.4-0.4,38.2c3.1,1.9,3.1,4.7,3.1,7.3
		c0,4.9-0.4,9.7-1.7,14.5c-1.4,5-2.5,10.2-4.3,15.1c-2.6,7.5-3.6,15.3-5,23.1c-0.5,3-0.6,6.1-0.6,9.1c0.1,4.7,1,9.5-0.8,14.1
		c-0.7,1-1.9,1.8-2.5,3.5c1.4-0.6,2.5-1.2,3.5-1.6c1.4,1.2,1.6,2.7,1.4,4.2c1.3,2,3.3,2.7,5.3,2.9c3,0.4,6.2,0.6,9.1-0.1
		c3-0.7,5.2,0.4,7.4,1.8c1.8,1.2,3.7,2.4,5.8,3c3.6,1,6.2,3.5,9.2,5.5c-4.3,0.4-7.8-1.9-11.6-3.1c-3.9-1.3-8-0.5-11.9-1.6
		c-0.9-0.3-0.9-1.7-2.2-1.7c-0.8,0.6,0.1,1,0.1,1.8c-1.4,0.9-3.1,1.2-4.6,1.5c-0.8-0.2-0.4-0.9-1.4-1.5c-0.9-0.3-2.2,0.6-3.6,0.6
		c0,0.7-0.1,1.2-0.1,1.6c-1,0.4-1.5-0.4-2.5-0.8c0-1.4,0.3-3.1-1.6-4c-0.3,1.1,0.5,2.2-0.3,3.4c-1.6-0.4-3.4-0.7-3.8,1.9
		c1.2,0.9,2-0.6,3.1-0.6c0.9,1.1,2.5,1.6,3.7,2.3c0.4,0.9,0.6,1.5,0,2.3c-1.9,0.6-3.7,0.2-5.3-1.1c-1.1-0.9-2-2-3.9-1.4
		c-0.7,0.2-1.8-0.9-2.9-1.6c0.9-5.4-1.4-10.4-2.4-15.6c-0.5-2.4-1.1-4.7-0.9-7.2c0.2-2.1-0.4-4.3-0.8-6.5
		c-1.5-8.2-2.5-16.3-2.6-24.7s0-16.9-1.4-25.1c-1.3-7.9,0.3-15.2,2.4-22.5c0.5-1.9,0.7-3.8,0.2-5.7c-0.3-1.3-0.6-2.6-1.2-3.8
		c-4.1-8.6-3.8-17.7-3.4-27c2.1-1.2,4.2-2.4,6.2-3.5c1.1,0,1.8,0.9,2.9,0.5c3.8-1.2,6.9-3.8,11.6-4.2c-1.9-1.7-3.1,0.2-4.5-0.6
		c3.6-3.7,6.5-7.9,9.5-11.9c0.6-0.9,1.4,0.2,1.9-0.5c0.1-3.9,3-6.7,4-10.6c1.7,1,3.3,0.1,4.7,0.6c0.2,0.3,0.4,0.5,0.4,0.7
		c0,7.8-0.2,15.6-4.9,22.4C784.4,516.8,784.4,518.2,784.6,519.6L784.6,519.6z M760.2,534.8c0.8-3.5,1.5-6.5,2.1-9.6
		c0.2-1.1-0.1-1.9-1.4-2C758.5,526.2,758.2,530.2,760.2,534.8z M778,562.7c-2.3,2.1-4.4,4.4-6,8.2c3.4-2.2,6-4,7.3-6.8
		C779.1,563.2,778.7,563,778,562.7z M764.4,646c1.6-2.8,0.9-5.8,0.7-8.8C763.6,640,764.2,643,764.4,646z M766,570.4
		c-2.5-4-3.6-4.5-5.4-2.8C762.1,569.3,764.2,569.6,766,570.4z M778.9,506.5c-1.5,1.6-3,3.3-4.6,5.1
		C777.2,511.6,777.9,510.9,778.9,506.5z M777.5,515.8c-1-1.4-1.7-2-3.2-1.4C774.5,516.5,775.7,516.3,777.5,515.8z M768.8,576.6
		c1.1-1.4,1.1-1.4,0.6-3.2C768.3,574.3,768.3,575.3,768.8,576.6z M769.9,653.7c-1.3-0.9-2.4-0.6-4.1,0.5
		C767.6,654.1,768.7,654.6,769.9,653.7z M760,537.5c-0.5,0.2-0.8,0.6-0.8,1c0,0.5-0.4,1.2,0.3,1.7
		C759.5,539.2,760.3,538.5,760,537.5z M781.9,518.1c-0.4-1.3-0.7-2-1.8-0.9C780.2,517.9,780.7,518.1,781.9,518.1z M760.9,549.2
		c0.4-1.4-0.1-1.6-1.1-1.6C759.8,548.5,760.1,548.9,760.9,549.2z M766.6,622.2c0.6-0.7,0.5-1.3,0.1-2.1
		C766.1,621,766.1,621.6,766.6,622.2z"/>
	<path fill="none" d="M530.4,616.8c4.9,0.9,9.6-0.4,14.7,0c-1.6,2.6-3,4.8-4.5,7.3c-2.2-1.1-4.6-1.6-7-1.8c-2.8-0.3-3.4,0.1-4.4,3
		c-2.1-0.1-2.1-0.1-3.9,1c0.6,3.8,4.1,5,12,4c-0.3,1.1-0.7,1.8-1.9,1.6c-3.1-0.5-6.4,0-9.3-1.3c-1.1-0.5-2.1-0.6-2.9,0.5
		c0.1,4,3.1,5.3,9.7,4.6c0,0.2,0.2,0.5,0.1,0.6c-0.3,0.8-0.7,1.5-1.1,2.2c-1.3,0.4-2.4-0.4-3.6-0.4c-1.2,0-2.4-0.6-3.7,0.5
		c0.6,3.8,4.1,2.8,6.4,3.6c0.4,0.8,0.5,1.5-0.1,2.1c-1.4,0.4-2.4-1.1-3.7-0.9c-0.5,2.7,0.4,3.2,4.2,2.3c2.9,4.5,6.5,8.3,10.8,11.3
		c0,2-0.8,3.5-1.1,5.1c-5.7,2.7-11.3,3-17.1,0.9c-4.1-1.5-8.3-2.7-12.5-4c-2-0.6-3.5-1.9-4.6-3.5c-2.8-4-5.1-8.3-6.5-13
		c-1-3.6-1.2-7.1,0.9-10.5c1.1-1.8,1.6-3.8,1.5-6c-0.1-2,0.2-3.8,1.8-5.4c-4-5.4-8.4-10.4-8.4-17.5c0.1-6.4-1.4-13,3.5-18.8
		c3.5,0.8,7.1-0.7,10.8-0.9c5-0.3,10,0,14.9,0.9c2,0.3,3.9-0.2,5.8-0.6c1-0.2,2-0.6,2.3,1.1c-3.6,1.2-7.3,2.4-11.1,3.6
		c-1.9,2.4-4.1,4.7-5,8.1c-0.8,2.7-0.4,5,0.7,7.3c1,2.1,2.6,3.9,4.7,5C526.1,610.7,528.5,613.5,530.4,616.8z"/>
	<path fill="none" d="M569.9,574.3c-6.7,5-14.1,8.7-21.1,12.5c-1.2-0.5-1.5-1.4-2.2-2.2c1.6-1,1.4-2.4,0.7-3.9
		c-1.2-2.5-2.2-5.1-3.4-7.7c-1.5-3.3-2.9-6.7-3.8-10.2c-1.6-6.7-6.4-10.5-12.5-12.7c-4.3-1.6-8.2-3.7-12-6c-2.6-1.6-5-3.4-6.9-6.1
		c7-4.1,13.9-8.2,20.8-12.2c0.8-0.5,1.9-0.9,2.3-1.7c1.8-3.6,5.3-4.8,8.8-6.1c1-1.8,2.2-3.6,4.5-5.4c-0.5,5.1-1,9.6-0.4,14.1
		s2.3,8.6,4.3,13.1c-4.7-1.4-8.9-2.8-13.1-4.1c4.5,2.6,9.3,4.3,14.1,5.8c2.1,3.2,4.1,6.2,7,9.3c-5.1-0.4-9.4-1.4-13.8-2
		c-4.4-0.7-8.6-2-13-2.8c8.4,3.6,17,6.2,26.2,6.8c2,3.8,3.8,7.6,5.9,11.3C564.3,567.8,567.1,570.9,569.9,574.3z M540.9,524.4
		c-0.7-1.8-1.4-2.5-2.3-3C538.7,522.6,539.3,523.3,540.9,524.4z"/>
	<path fill="none" d="M591,593.9c-1.6,0.5-2.9,0.5-3.9,0.1c-2.1-0.9-4.3-0.8-6.5-0.7c-6.3,0.3-12.4-1-18.5-1.6c-3-0.3-6-0.8-9-1.2
		c-1.4-0.2-2.7-0.6-4.9-1c8.8-3.7,16.5-7.7,23.8-12.8C578.2,582.7,584,588.7,591,593.9z"/>
	<path fill="none" d="M684.9,496.6c-0.6,4.7-1.8,9.4-3.1,14.3c-4.5,0-8.7-0.2-11.5-4.6c-2.2-3.4-3.3-6.2-3.3-10.4
		c2.3-0.5,4.6-0.7,7,0c2.7,0.8,5.5,1,8.3,0.5C683,496.3,683.9,495.9,684.9,496.6z"/>
	<path fill="none" d="M612.2,503.9c-6.2-2.3-8-7.5-10.3-12.4c0.7-1.6,0.9-3.4-0.2-4.9c1-1.6,3.5-1.6,3.8-3.9c-2.3-0.3-3,2-4.9,2.4
		c-1-3.7,4.5-3,4.2-6.5c-2.2,0.5-3.5,2.2-4.8,3.5c-0.8-0.9-0.9-1.8-0.8-3c1.9-1,3.9-2.1,6.3-3.4c0.5,5.3,1.4,10.4,2.7,15.4
		c0.3,1.2-0.1,2.6-0.8,3.8c-0.5,0.8-1.3,1.9-0.2,3.1c0.6-1.1,1.1-2,1.8-3.2C611.2,497.7,610.2,501,612.2,503.9z M605.5,486.3
		c-0.9,1.5-1.4,2.5-1.3,3.9C606.3,488.5,606.3,488.5,605.5,486.3z"/>
	<path fill="none" d="M395.6,587.2c-3.2-1-5.9-2.7-8.3-5.1c0.4-3.7-1.5-8.1,3.9-10.6c-0.3,1.9,0.4,3.4,0,5.1
		c-1.1,4.2,0.3,7.4,3.7,9.9C395.1,586.7,395.3,587,395.6,587.2z"/>
	<path fill="none" d="M523,591.7c-1.9,5.9-0.3,11,2.8,15.9c-2.9-0.5-6.1-3.3-6.9-6.2C517.8,597.1,520.1,594.2,523,591.7z"/>
	<path fill="none" d="M545.8,583.4c-3.3-2.7-4.8-5.9-7.5-8.1c0.8-0.9,1.7-1,2.9-1C542.6,577,544,579.8,545.8,583.4z"/>
	<path fill="none" d="M811.2,658.9c3,0.4,5.5,2,9,3.3C815.9,662.7,813.7,660.2,811.2,658.9z"/>
	<path fill="none" d="M605.6,473.9c-2,1.1-4,2.3-6.2,3.5c-0.9-2.3,1-2.4,2.1-2.8C602.7,474,603.9,473.1,605.6,473.9z"/>
	<path fill="none" d="M843.9,428.7c-1.7,0.1-3,0.2-5.1,0.4c1.5-1.1,2.4-1.7,3.2-2.2C843.1,427.1,843.2,427.8,843.9,428.7z"/>
	<path fill="none" d="M866.8,451.2c2.3,0.7,3.3,2.1,5,3.2C868.9,454,868.5,453.8,866.8,451.2z"/>
	<path fill="none" d="M865.7,469.9c1.7,1.1,2.8,1.9,3.9,3.5C867.3,473.2,866.1,472.5,865.7,469.9z"/>
	<path fill="none" d="M790.1,443c0.5,0.9,1.1,1.9,1.7,2.9c-2,0.7-2.1-1.5-3.4-1.7C788.5,443.3,789.2,443.2,790.1,443z"/>
	<path fill="none" d="M854.2,452c-0.4-0.7-0.7-1.3-1.1-2c1.1-1.3,2-1,3.1,0.2C855.8,451.2,854.9,451.5,854.2,452z"/>
	<path fill="none" d="M846,416.7c-0.9-0.8-1.5-1.3-2.1-1.9c0.3-0.7,0.7-1.1,1.4-0.9C846.9,414.2,846.9,415.2,846,416.7z"/>
	<path fill="none" d="M607.3,466.5c1.9-0.7,2.9-0.4,4,0c0,0.7-0.4,1.1-0.9,1.9C609.6,467.7,608.8,467,607.3,466.5z"/>
	<path fill="none" d="M839.5,422.1c-0.9-1.5-0.7-2.5-0.3-3.5C839.9,419.8,839.9,419.8,839.5,422.1z"/>
	<path fill="none" d="M847.1,453c-1.2-0.6-1.9-1.9-3.3-2.4c0.5-0.5,0.8-0.7,1.1-1C846.3,450.2,846.6,451.6,847.1,453z"/>
	<path fill="none" d="M835,426.6c-1.3,0.2-2.2,0.2-3.1,0c-0.1-0.5,0.2-0.9,0.7-1.1C833.7,425,833.7,425,835,426.6z"/>
	<path fill="none" d="M802.9,446.5c-2.5,2.7-2.5,2.7-4.2,1.1C799.9,447.3,801,447,802.9,446.5z"/>
	<path fill="none" d="M853.6,465c1,1.1,1.9,2.2,3.3,3.8C855.1,467.7,854.1,466.7,853.6,465z"/>
	<path fill="none" d="M832.2,411.6c0.8,0.4,2,0.3,2.8,1.5c-1.6,0.8-2.4-0.1-3.1-1C831.8,411.9,831.9,411.8,832.2,411.6z"/>
	<path fill="none" d="M863.3,430.3c0.8,0.9,1.1,1.3,0.8,2.2c-0.8-0.2-1.7-0.3-2.5-0.5C861.5,430.6,862.6,430.9,863.3,430.3z"/>
	<path fill="none" d="M741.4,683.3c-1.5,0.1-2.3-0.9-3.3-2.1C739.9,681.1,740.8,682,741.4,683.3L741.4,683.3z"/>
	<path fill="none" d="M805.8,447.6c0.5-1.1,1.2-1.7,2.5-1.8C808.1,447.5,806.5,447,805.8,447.6z"/>
	<path fill="none" d="M599.6,472.8c1.2-0.8,2-1.2,3.2-1.2C601.9,472.5,601.1,473,599.6,472.8z"/>
	<path fill="none" d="M845,456.3c0.5-0.8,0.5-0.9,0.6-1.1c1-0.6,1.5-0.1,1.7,0.9C846.5,457.4,846.1,456.1,845,456.3z"/>
	<path fill="none" d="M846.1,446.1c1.4-0.2,2,0.5,3.4,0.7C847.8,447.7,846.9,447.7,846.1,446.1z"/>
	<path fill="none" d="M759.2,442.7c0.9-0.3,1.8-0.5,2.7,0C760.9,443.3,760,442.8,759.2,442.7z"/>
	<path fill="none" d="M833.4,432.6c-1.1,0-1.7-0.2-2.1-0.9C832.9,431.2,832.9,431.2,833.4,432.6z"/>
	<path fill="none" d="M825.3,429.2c-1,1.1-1.8,1.2-2.7,1.1C823.1,429.5,824,429.7,825.3,429.2z"/>
	<path fill="none" d="M609.1,469c-0.3,1.3-1.1,1.6-2.3,2.6C607.3,469.7,607.9,469.1,609.1,469z"/>
	<path fill="none" d="M825.9,413.4c1-0.6,1.5-1.3,2.5-0.4C827.9,414,827,413.7,825.9,413.4z"/>
	<path fill="none" d="M820.3,420.1c0.1-0.8,0.5-1.3,1.5-1.6C821.9,419.7,820.8,419.7,820.3,420.1z"/>
	<path fill="none" d="M842,438.9c0.4,0.6,0.4,1.1,0,1.4c-0.1,0.1-0.5-0.1-0.6-0.3C841,439.4,841.5,439.2,842,438.9z"/>
	<path fill="none" d="M827.9,443.2c0.7-0.2,0.9,0.1,1,0.8C828.1,444.4,827.7,444.3,827.9,443.2z"/>
	<path fill="none" d="M417.3,591.9c-0.1,0.2-0.1,0.4-0.3,0.5c-0.1,0.1-0.3-0.1-0.5-0.2c0.1-0.2,0.2-0.4,0.3-0.6
		C417,591.7,417.2,591.8,417.3,591.9z"/>
	<path fill="none" d="M600.5,470.6c0.4-1,0.9-1.4,1.8-1.2C601.9,470.3,601.4,470.6,600.5,470.6z"/>
	<path fill="none" d="M691.5,168.8c-3.7,3.6-5.1,7.5-4.9,11.6c0.2,2.7-0.6,5.3-0.3,8.2c-5.8,0.8-11.5,1.5-17.5,0.9
		c0.1-3,0.7-5.5,2.9-7.3c0.5-0.4,0.9-1.1,1.3-1.7c4.9-8.2,11.1-15,18.8-20.5c4.6-3.3,9.3-4.7,14.7-5.5c3.7-0.6,7.4-1.3,11.1-1.7
		c3.4-0.3,6.4,0.2,9.4,2.1c3.2,2,6.6,3.6,9.8,5.7c3.5,2.2,5.7,5.2,6.7,9.2c1.8,7,3.3,14,2.1,21.3c-0.2,1.3-0.5,2.6-1.2,3.8
		c-0.2-0.2-0.4-0.3-0.7-0.6c-1.2,1.4-1.5,2.9-0.8,4.2c-2.7,6.4-7.3,10.5-12.4,14.1c-1.6,1.1-3.7,1.6-5.5,2.5c-1.2,0.5-2.5,1-3.8,2.4
		c-0.7,5.4-1.6,11.1-2.1,16.9c-0.9,9.7-2.6,19.3-4.8,28.8c-0.4,1.6-0.8,3.2-0.2,5c0.4,1,0.4,2.2,0.4,3.2c-0.4,9.1-0.9,18.2-1.4,27.4
		c-0.2,3.3-1.5,6.4-2.4,9.5c-3.7,12.7-6.9,25.5-7.9,38.9c-0.3,4.9,0.3,9.7,0.4,14.6c0,0.5,0,1,0.3,1.4c1.2,2.2,1.2,4.3-0.9,6.3
		c2.2-0.2,2.6-1.6,2.9-3.1c4.6,3.5,9.7,4.3,15,4.3c3.3,0,6.6-0.3,10.1,1.8c0.5,1.3,2.5,1.8,4.6,2.9c-3.2,0.6-5.4-1.6-8.2-1.2
		c1.4,2.1,1.4,2.1,11,4.6c2.2,3.9,7,4.3,10.8,6.6c-2.5,1.4-4.8,1.4-7.1,0.3c-4.5-2.2-9.2-3.7-14-5.2c-3.5-1.1-6.2-3.7-9.6-5.2
		c-0.7-0.3-1.3-1.1-2.3-0.8c-0.8,1,0.1,1.5,0.7,2c2.3,1.6,5.1,2.3,6.8,4.8c0.5,0.8,1.8,0.5,2.7,0.9c2.2,0.9,4.9,0.8,6.1,3.7
		c-5.9,0.4-10.7-2.5-16-4.2c-0.6,0.1-0.9,1.5-2.2,0.9c-0.8-0.3-1.9-0.1-2.9,0.1c-4.4,0.9-8.7,0-13-1.1c-2.8-0.7-4.6-3.4-3.8-6.1
		c0.6-1.9,0.3-3.6-0.2-5.3c-2.6-8.7-4.4-17.7-7.5-26.3c-1.3-3.6-2-7.2-2-11.1c0-4.4-0.4-8.8-0.6-13.1c-0.2-4.3-0.1-8.5,0.4-12.8
		c0.2-1.9,0.7-3.7-0.4-5.7c-0.5-0.8,0-2.1,0.1-3.2c0.1-1.2,0.4-2.4,0.6-3.6c1.7-8,1.3-8.2-0.5-17.4c1.9-4.1,2.1-8.8,3.5-13.2
		c0.4-1.2,0.1-2.7,0-4c-0.1-1-0.1-2-0.4-2.9c-2.4-8-2.7-16.3-3.4-24.5c-0.3-3.2-0.6-6.3-0.9-9.5c-0.2-2.6,0.2-5.1,1.1-7.5
		c1.9-4.9,3.4-9.9,4.4-15c0.8-4.1,0.9-8.1,0-12.2c-0.9-3.8,0-7.7,1.1-11.5C690.3,174.1,691.3,171.9,691.5,168.8z M700.2,242.9
		c1.2-1.3,1.2-2.3,0.6-3.1c-2.1-2.6-3-6-5.8-8.1c-1.7-1.3-2.8-3.3-4.1-5.1c-0.6-0.9-1.2-1.8-1.9-2.6c-0.6-0.7-1.3-1-2.2-0.2
		c-0.5,1,0.1,1.9,0.6,2.7c2.3,3.9,4.9,7.5,8.7,10.2C698.1,238.1,700.2,239.6,700.2,242.9z M698.1,271.2c0.1-2.3,1.7-3.5,2.8-5.7
		c-7,3.8-6.8,9.5-0.1,13.9c0.5,1.2,0.2,2.7,1.5,3.6c1.8-2.2,1.8-2.4-0.2-5.4c-0.6-0.8-1.3,0.7-2.1-0.5
		C699.2,275.3,699.3,272.8,698.1,271.2z M719.2,160c-0.6,2.1-0.6,2.2,0,2.6c3.9,2.2,5.2,5.9,5.7,10.1c0.1,0.7-0.1,1.5,0.9,1.7
		c1.5-3,0.9-6.4-1.7-9.1C722.5,163.5,720.4,162.4,719.2,160z M725,189.8c2.8-4.8,2.7-9.9,0.1-11.6c-0.2,0.2-0.5,0.3-0.5,0.4
		C724.7,182.3,724.8,186,725,189.8z M698.7,204.8c-2.6-3.8-3.1-8.4-4.7-13.1C692.2,196,694.4,202,698.7,204.8z M695.4,294.8
		c-2.2,5.3-0.9,10.3,0.7,15.3C695.4,304.9,695.7,299.8,695.4,294.8z M695.6,279.2c-2,3.4-2.3,5.9-1.6,11.4
		C694,287,695.9,283.6,695.6,279.2z M708.1,217.1c-0.9-2.7-2.5-3.9-3.6-5.5c-1-1.5-1.6-3.3-3.5-4.7
		C701.7,209.8,704.4,213.7,708.1,217.1z M728.2,178.2c2.7,0.7,4.9,0.8,6.9,1.8C732.5,176.4,731.3,176,728.2,178.2z M714.1,234.7
		c-0.3,0.1-0.5,0.1-0.8,0.2c0.3,1.3,0.6,2.7,1,4C715.4,236.6,715.4,236.6,714.1,234.7z M724.1,195.5c-1.4,1.7-2.2,3.6-1.8,6.2
		C723.9,199.7,723.3,197.4,724.1,195.5z M733.3,205.4c2.2-0.6,3.2-2.1,3.6-4.2C735.7,202.6,734.5,204,733.3,205.4z M711.6,373.8
		c0.1-0.2,0.3-0.5,0.4-0.7c-1.3-0.2-2.7-0.3-4-0.5C709.1,373.7,710.4,373.7,711.6,373.8z M703.6,287.5c0.3-1.6,0.6-2.7-0.9-3.7
		C702.3,285.2,702.2,286.2,703.6,287.5z M696.1,162.4c-2,0.5-2.7,1.5-3.4,3.2C694.5,164.9,695.1,163.9,696.1,162.4z M701.3,251.4
		c0.7-0.7,1.5-1.3,1-3C701.5,249.5,700.8,250.1,701.3,251.4z M702.3,243.1c-0.9,1.1-1.5,1.7-0.8,2.7
		C702.5,245.4,702.7,244.6,702.3,243.1z M709.3,380.5c0.4-1.1,0.3-1.9-0.7-2.4C708.3,379,708.4,379.7,709.3,380.5z M698.3,321.4
		c0.4-1,0.3-1.8-0.8-2.3C697,320.2,697.3,320.9,698.3,321.4z M704.2,289.1c-1.2,0.4-1.3,1-0.6,2
		C704.1,290.5,704.9,290.3,704.2,289.1z M738.7,194.3c0.7-0.8,0.7-0.8,0.5-1.8C738.9,193.1,738.2,193.5,738.7,194.3z M720.6,205.6
		c-1.1,0.3-1.7,0.6-1.6,1.5C720,207.4,720.3,206.8,720.6,205.6z"/>
	<path fill="none" d="M615.3,177.4c1.8,0.1,3.5-0.9,5.3-0.6c1,0.1,2.4-0.3,2.9-1.3c0.9-1.7,2.6-2.1,4-3c5.9-3.7,11.7-7.4,17.3-11.5
		c4.2-3.1,8.9-5.5,13-8.7c9-6.9,19.9-9.4,30.2-13.2c7.8-2.9,15.8-2.6,23.8-2.6c4,0,8-0.2,12-1.1c2.9-0.6,5.7-0.6,8.6,0.2
		c2.8,0.8,5.5,1.8,8.6,2.1c-2,2.7-2.8,5.5-4,8.6c5.7,7,8.3,15.4,9.7,24.6c-1.6-0.7-1.5-2.2-2.2-3.2c-0.8-1.1-1.6-2.2-2-3.4
		c-0.7-1.9-2-3.3-3.6-4.5c-4.2-3.3-9.1-5.6-13.4-8.8c-2.2-1.6-5.1-1.6-7.8-1.1c-6.9,1.2-13.9,2.1-20.8,3.8c-0.8,0.2-1.7,0.2-2.4,0.6
		c-8.4,4.8-15.7,10.6-19.8,19.7c-0.6,1.4-1.5,2.5-2.5,3.6c-3.6,3.7-6.1,7.9-6.6,13.3c-0.2,1.9-1.5,3.7-2.5,6
		c1.6-0.4,1.5-1.9,2.5-2.3c0.2,0.3,0.4,0.6,0.5,0.9c0.9,5.2,3.9,9.1,7.9,12.3c3,2.5,5,2.8,7.8,1.2c-0.4-1.4-1.7-1.6-2.8-2
		c-6.6-2.4-10.4-8-10.1-15.1c2.8-0.8,5.6-0.3,8.4,0.4c3,0.8,6,0.4,9.2-0.3c0.4,1.8-0.2,3.4-0.5,5c-0.9,4-1.7,8.1-2.9,12.1
		c-1.5,5.1-2.1,10.2-2,15.5c0,1.1,0,2.2,0,3.3c-2.2,1.4-4.6,2-7,1.9c-3.1,0-6.3,0-9.2,1.4c-0.2-1.2,1.4-1.6,0.6-3.1
		c-1.9,1.3-3.9,2.6-5.7,4c-1.5,1.1-2.8,2.4-4.9,1.4c-0.7-0.3-1.6-0.1-2.1,0.4c-2.5,2.7-6.1,2.7-9.1,4.2c-2.4,1.2-4.7,0.6-6.8-1.2
		c-5.7-4.8-11.5-9.4-17.1-14.3c-7.2-6.3-9.7-14.2-8.5-23.6c0.9-6.8,1.6-13.5,3.9-20c0.2-0.6,0.2-1.2,0.2-1.8L615.3,177.4z
		 M679.9,221.5c-2.3-0.2-10.7,3.5-13.2,5.9C672.8,227.1,678.5,224.5,679.9,221.5z M657.3,220.8c4.3,3.5,4.5,3.6,6.9,2.7
		C662.1,221.8,659.7,221.5,657.3,220.8z M623,180c1.4-1.1,3.6-1.7,4-4.3C624.9,176.7,623.8,178.2,623,180z M655.3,158.3
		c-1.4,1.7-2.8,3.4-4.1,5.1C653.1,162.2,655,161,655.3,158.3z M649.3,194.2c1-1.5,2.5-2.8,1.9-5.3
		C649,190.3,649.7,192.4,649.3,194.2z M726.3,138.7c-0.2-0.2-0.4-0.4-0.7-0.6c-1,0.9-2.4,1.5-2.9,3.9
		C724.3,140.6,725.3,139.6,726.3,138.7z M642.6,188c1.2,0.9,1.2,0.9,2.3,0C644.2,187.5,643.4,187.5,642.6,188z M646.4,232.3
		c-0.7-2.1-1.8-2.7-3.3-3.9C643.7,230.4,644.4,231.3,646.4,232.3z M661.9,188.6c0,0.5,0.4,0.8,0.8,0.9c0.5,0.2,1,0.6,1.4-0.2
		C663.5,188.6,662.8,188.2,661.9,188.6z M651.6,182.7c0.6,1.1,1.2,1.7,2.3,0.8C653.5,182.5,652.9,182.1,651.6,182.7z M632.6,188.7
		c0.8,0.4,1.5,0.5,1.8-0.6C633.5,187.5,633,187.9,632.6,188.7z M660.1,206.5c1-0.6,1.7-1.1,1.7-2.2
		C660.6,204.6,660.2,205.2,660.1,206.5z M660.9,202.3c1.4-0.1,1.5-0.8,1-1.9C661.1,200.8,660.8,201.4,660.9,202.3z M648.7,201.1
		c-0.5,0.2-0.9,0.4-0.6,1c0.1,0.2,0.5,0.4,0.6,0.3C649.1,202,649,201.5,648.7,201.1z M651.1,167.5c-0.5,0.2-0.7,0.3-0.9,0.4
		c-0.3,0.3-0.8,0.9-0.2,1.1C650.5,169.2,651,168.6,651.1,167.5z"/>
	<path fill="none" d="M753.6,207.2c-0.4,0.6-1,0.5-1.4,0.6c-1.3,0-0.6-1.7-1.7-1.7c-1,0.6-0.5,1.8-1.1,2.4c0.4,0.5,0.5,0.9,0.8,1.1
		c0.8,0.7,1.8,0.6,2.8,0.5c4.9-0.6,9.5-1.6,13.7-4.5s8.3-5.8,12.5-8.9c-1.9,2.8-4,5.6-5.8,8.5c-1.9,3.2-4.8,5.1-6.8,6.8
		c-9.2,2.7-17.5,5.6-26.6,6.9c1.5-1.8,4.1-1.8,5.9-4c-3.6,0.5-6,2.3-8.8,2.7c-2.9,0.5-5.8,0.6-8.7,1.1c-0.1-1.3,1-1.4,1.6-1.8
		c1.3-0.9,2.6-1.8,3.6-3.1c3-3.8,6.4-7.2,9.3-11.2c5.2-7.1,6.2-15.1,5.2-23.6c-0.1-0.7-0.2-1.4-0.3-2.2c0-0.4,0-0.7,0-1.2
		c1.7,2.9,3,8.9,2.7,13.8c-0.3,4.8-0.8,9.6-1.3,14.5c1.5-0.1,1.4-1,1.7-1.8c2.1-7.9,2.8-15.9,0.2-23.8c-1.7-5.3-2.6-10.8-4.1-16.2
		c-1.4-5.2-3.4-10.1-6.4-14.6c-0.3-0.5-0.6-1-1-1.7c1.1-2.4,2.3-4.8,3.4-7.1c1.3-0.8,2.5-0.5,3.7-0.3c0.6,0.1,1.2,0.3,1.7,0.6
		c7.1,2.8,14.8,1.9,22.2,3.1c1.2,0.2,2.4-0.1,3.6-0.8c1.3,0.5,2.6,1.1,4.6,1.9c-4.6,0.7-8.4,1.2-12.6,1.8c1.7,1.3,3.5,1.5,5.3,1.4
		c2.3-0.1,4.6-0.3,6.9-0.6c3.8-0.5,7.7-0.9,11.6-2.2c1-0.1,1.8,1.1,3,0.5c0.4,1.1-0.1,2.4,1.5,3c2.1-0.3,4.6-1.1,7.1-0.3
		c0.5,0.6-0.4,1.1,0.1,1.8c1.2,0.5,1.2-1.3,2.2-1.2l0.3,0.3c-2.2,4.1,0.2,8.1,0.3,12.1c0,0.7,0.2,1.4,0.4,2c-5,7.7-5.9,10.5-4,14
		c0-3.2,1.2-5.4,2.7-7.6c1.4-2.1,2.7-4.3,4.8-6.1c-2.7-3-1.4-7.1-3.2-10.4c1.3-2.2,1.1-5.2,4.1-6.2c-0.2,0.4-0.3,0.9-0.5,1.2
		c0.5,0.7,1.2,0,1.5,0.2c1.1,0.8,1.1,2,2.1,2.4c0.3,0.1,0.7,0.3,0.9-0.1c0.1-0.7-0.9-1.1-0.5-2.1c0.6-0.1,1.2-0.6,2.1-0.1
		c0,1.7,0.6,3.4-0.2,5.4c-2.3-1.4-4.4-1.7-6.2,0.8c0.5,1.7-0.4,3.6,0.9,5.2c1.2,0.3,2.4,0.3,3.3-0.6c0.9-1-0.1-2.2,0.4-3.3
		c1-0.8,2.6-0.6,3.5-2c0.4-2.1,0.2-4.4-0.5-6.7c-2.4-0.5-4.6-0.6-6.9-0.3c2.9-2.6,6-1.9,9-1c1.6,2.8-0.4,5.8,1.3,8.3
		c-1.2,3.1-3.5,5.5-4.8,8.6c2.7-1.5,5.6-2,8.2-3.5c1.3-0.7,2.7-1.1,4.1-1.2c3.9-0.3,7.8-0.6,11.6-1.1c2.6-0.3,4.5,0.5,6,2.5
		c1.8,2.4,4,4.5,5.5,7.2c1.3,2.2,3.2,3.9,5.3,5.7c-2.4,2.9-4.5,5.7-7.6,7.7c-2.2-1.7-4.3-3.6-6.6-5.1c-2-1.3-4.1-2.8-7.1-0.6
		c4.9,0.5,7.7,3.5,10.9,6.4c-2.4,4.9-4.6,9.5-7,14.4c-2.2-2-5.3-1.9-6.2-4.8c-1.5,1-0.4,2.1-0.4,3c-1.6,2.1-3.5,2.3-5.8,1.2
		c-1.2-0.6-2.5-1.4-4-1.5c0.2,2.1,2.3,1.8,3.4,3.4c-2.6,0.5-4.9-0.2-7.1,0c-2.3,0.3-4.2,1.7-6.1,2.8c-3.5-0.9-5.2-3.2-6.1-6.5
		c-1.1-3.8-2.6-7.6-4-11.3c-0.4-1-0.6-2.1-2.1-2.8c-0.8,2.9,0.6,5.4,0.8,8.1c-0.7,0.9-1.8,0.7-2.6,0.6c-3.7-0.4-7.5,0.3-11.2-0.8
		c-0.2-0.1-0.5-0.2-0.7-0.1c-4.4,1.9-9.4,0.4-14.2,3c3.8,0,7.2,0,10.7,0c-0.8,2.4-2.4,3.8-3.8,5.2c-5.1,5-10.9,9-17.1,12.3
		c-2.4,1.3-5,1.7-7.7,1.5c-0.2-1.3,1.8-1.9,1.2-3.6c-1.2,0.9-2.2,1.7-2.1,3.3C752.9,207,753.2,207.1,753.6,207.2z M842.7,179.5
		c-3.5,2-5.5-1.2-8.7-2.2c1.2,1.8,2,2.9,2.7,4c1.4,0.5,2.7,0.9,3.9,1.2C841.7,182.1,842.6,181.5,842.7,179.5z M793.9,177
		c2.4-1.3,4.4-3,4.7-6.6C796.1,172.4,794.5,174.3,793.9,177z M756.8,169.3c-1.5,1.4-3.8,1.7-5.4,3.4
		C754.3,173.7,755.3,173,756.8,169.3z M758.4,192.9c-1.5,1.2-2.7,2.7-3.4,5.2C757.6,196.8,757.8,194.8,758.4,192.9z M791.9,151.4
		c-1.6,1-2.7,2.4-3.6,4.9C790.4,154.6,791.8,153.4,791.9,151.4z M783.7,160.7c-1.7,0.7-2.7,1.9-2.8,3.7
		C782,163.3,783.8,162.7,783.7,160.7z M760,144.1c-1.8-1.7-3.4-0.9-4.8-0.9C756.7,143.2,757.8,144.6,760,144.1z M746.3,214
		c2.2,0.1,2.4-1.2,3-2.1C748.2,212.2,747.1,212.4,746.3,214z M769.7,187.8c-3.5,0.9-3.5,0.9-4.2,2.9
		C766.8,189.8,767.9,189,769.7,187.8z M789.3,181.5c1.2-0.4,2.2-0.5,2.6-1.6c-0.4-0.5-0.8-0.5-1.1-0.3
		C790.3,180,789.7,180.3,789.3,181.5z M776.9,168.2c0.2-0.5,1.5-0.3,0.9-1.3C777.1,166.9,776.9,167.5,776.9,168.2z M773.4,171.5
		c0.8,0.1,1.2-0.1,0.9-1C773.8,170.8,773.4,171,773.4,171.5z"/>
	<path fill="none" d="M786.5,215.1c-0.7,0.8-1.4,1.6-2.4,2.7c0.3,12.7,0.3,25.7-0.3,38.4c3.2,2.1,3.1,5.1,3.1,7.8c0,5-0.4,10-2,14.8
		c-1.5,4.8-2.4,9.7-4.1,14.4c-2.5,7.3-3.6,14.8-4.9,22.3c-0.8,4.7-0.9,9.5-0.5,14.2c0.3,3.1-0.1,6-0.7,9c-0.3,1.4-1.9,1.8-2.1,3.3
		c1.2,0.7,1.9-0.8,3-0.7c1.5,1.2,1.3,3,1.4,4.4c1.2,1.6,2.8,2.2,4.5,2.6c3.3,0.7,6.6,0.8,9.8,0.1c2.8-0.6,5.1,0.1,7.2,1.6
		c2.2,1.6,4.5,2.9,7.1,3.6c3.2,1,5.5,3.3,8.4,5c-1.2,0.9-2.1,0.4-3,0.1c-1.5-0.5-3-1-4.5-1.6c-3.8-1.4-7.5-2.6-11.6-2.6
		c-2.4,0-5-0.2-6.6-2.4c-1.2,0.9,0.4,1.4-0.1,2.2c-1.3,0.4-2.7,1.1-4.3,1.1c-0.9,0-0.6-0.9-1.1-1.3c-1.5-0.5-2.8,0.5-4.1,0.7
		c-0.2,0.5,0.4,1-0.2,1.4c-0.8,0.3-1.3-0.4-2.1-0.5c-0.6-1.5,0.3-3.6-1.9-4.3c-0.6,1,0.8,2-0.4,3.3c-1.3-0.1-3.1-0.5-3.6,1.8
		c1.1,1.1,1.9-0.5,3.1-0.3c1.1,0.9,2.5,1.7,3.8,2.2c0.5,0.9,0.5,1.6,0.1,2.4c-1.1,0.4-2.6,0.7-3.4,0c-2.5-2.3-6-2.4-8.8-4.2
		c1-5.3-1.3-10.1-2.3-15.1c-0.5-2.6-1.3-5.1-1-7.9c0.2-1.9-0.3-3.9-0.7-5.8c-1.6-8.5-2.6-17-2.7-25.7c-0.1-8.3,0-16.6-1.4-24.8
		c-1.3-7.8,0.4-14.9,2.4-22.1c0.5-1.9,0.8-3.8,0.3-5.7c-0.3-1.4-0.7-2.9-1.3-4.2c-3.5-7.3-3.6-15-3.5-22.8c0-1.2,0.1-2.4,0.2-3.9
		c2-1.1,4.1-2.3,5.6-3.2c1.5-0.5,1.9,0.4,2.9,0.4c4-1.1,7.5-3.6,12.2-4.7c-1.8-1.5-3.1,0.6-4.3-0.7c3.4-3,5.6-7.1,8.6-10.5
		c0.7-0.8,1.2-1.8,2.6-1.4c0.1-4,3-6.7,3.9-10.3c1.9,0,3.4,0,4.8,0c0.9,0.9,0.8,1.9,0.7,2.9c-0.2,4.7-0.7,9.4-2,14.1
		c-0.6,2-1.4,3.9-2.6,5.6c-1.1,1.4-1.4,2.8-1.2,4.4L786.5,215.1z M763,219.2c-2.8,2.5-3.2,7.3-1.1,11
		C764.5,220.9,764.5,220.9,763,219.2z M779.8,258.7c-2.3,2.2-4.5,4.4-5.8,7.9c4.2-2.5,6.7-4.9,7-6.7
		C781.1,259.4,780.7,259.1,779.8,258.7z M767,332.9c-1.3,3.1-1.5,6.2-0.5,9.5C767.9,339.1,767,336,767,332.9z M780.8,202.4
		c-1.5,1.6-3,3.3-4.6,5C778.8,207.8,779.7,207,780.8,202.4z M762.2,262.4c1.3,3.1,3.6,3.2,5.8,3.6
		C766.4,264.7,765.5,262.4,762.2,262.4z M779.3,211.8c-0.9-1.2-1.6-1.9-2.8-1.5C776.6,212.2,776.6,212.2,779.3,211.8z M768,350.1
		c1.9,0.2,1.9,0.2,3.4-0.4C769.7,349,769.7,349,768,350.1z M771.5,269.4c-1,1.5-1,1.5-0.5,3C772.2,271.6,772,270.6,771.5,269.4z
		 M762,233.5c-1.3,0.7-1.3,1.8-0.8,3.2C761.5,235.6,761.8,234.6,762,233.5z M768.5,318.5c0.2-0.9,0.5-1.7-0.3-2.6
		C768.1,316.8,767.7,317.6,768.5,318.5z M783,214.1c0.1-0.2,0.3-0.3,0.5-0.7c-0.4-0.5-0.6-1.1-1.5-0.7
		C781.6,213.7,782.4,213.9,783,214.1z M762.6,245.1c0.7-1,0.2-1.4-0.6-1.8C761.2,244.5,761.9,244.8,762.6,245.1z"/>
	<path fill="none" d="M605.2,186.1c0.3-2.5,1.1-4.8,2.9-6.7c1.1,0,2.1,0,3.6,0c-1.1,1.7-3.3,1.4-4,3.3c1,0.7,2-0.7,2.8-0.2
		c0.4,0.2,0.4,0.4,0,0.5C608.7,184,606.7,184.7,605.2,186.1z"/>
	<path fill="none" d="M822,358.3c-4.4,0.6-6.7-2.4-9.7-3.7C815.6,355.2,818.5,356.7,822,358.3z"/>
	<path fill="none" d="M854.7,160c1.4,1.5,2.7,3,3.9,4.4C856.9,163.9,856.7,163.7,854.7,160z"/>
	<path fill="none" d="M632.4,240.3c2.3-0.2,4-0.8,5.3,0.8C635.6,241.8,635.6,241.8,632.4,240.3z"/>
	<path fill="none" d="M866.9,129.4c-1.6-1-2.7-1.2-3.8-1.3c0.2-1.4,1.2-1.3,1.9-1.7C866.1,126.8,866,128,866.9,129.4z"/>
	<path fill="none" d="M872.9,150.7c-1.5-0.8-3.5-0.9-4.2-3.5C870.9,148,872.1,149.2,872.9,150.7z"/>
	<path fill="none" d="M846.2,145.9c-0.1,0.1,0.2-0.1,0.4-0.3c1.7,1.4,1.7,1.4,2.3,3.8C848,148.1,847.1,147,846.2,145.9z"/>
	<path fill="none" d="M867.7,166.1c1.5,0.9,2.6,1.6,3.5,3.3C869.1,169,867.8,168.6,867.7,166.1z"/>
	<path fill="none" d="M841.3,124.6c1.2-0.9,1.9-1.4,2.5-1.8c1.1,0.3,1.1,1.1,1.6,1.6C844.1,124.9,843,124.9,841.3,124.6z"/>
	<path fill="none" d="M856,148.1c-0.5-1-0.8-1.5-1.1-2c1.5-0.8,1.5-0.8,2.9,0.2C857.7,147.3,856.7,147.4,856,148.1z"/>
	<path fill="none" d="M789.6,140.4c0.7-0.9,1.3-1.2,2.3-1.2c0.5,0.8,1.1,1.7,1.7,2.6c-1,0.8-1.5,0.2-2-0.6S790.1,141,789.6,140.4z"
		/>
	<path fill="none" d="M841.1,114.2c0.9,1.5,0.8,2.5,0.3,4C840.4,116.9,840.5,115.9,841.1,114.2z"/>
	<path fill="none" d="M800.5,143.9c1.3-0.7,2.2-1.1,3.3-0.7C802.3,145.2,802.3,145.2,800.5,143.9z"/>
	<path fill="none" d="M845.7,110.5c1-0.6,1.7-0.7,2.4-0.1c0.6,0.7,0.2,1.2-0.2,1.8C846.7,112.3,846.3,111.3,845.7,110.5z"/>
	<path fill="none" d="M850.9,143.1c-1.6,0.8-2.4,0.4-2.9-1C849,142,849.8,142.2,850.9,143.1z"/>
	<path fill="none" d="M833.8,122.3c1-1.2,2-1.7,3.1-0.2C835.7,123.2,834.7,122.2,833.8,122.3z"/>
	<path fill="none" d="M833.5,107.2c1.5,0.7,2.3,1.1,3.5,1.6C835,109.2,835,109.2,833.5,107.2z"/>
	<path fill="none" d="M810.4,141.7c-0.5,1.5-1.6,1.4-3.1,2.3C808.3,142.3,809,141.8,810.4,141.7z"/>
	<path fill="none" d="M833.3,127.9c0.9-0.7,1.9-1.4,2.1,0.4C834.4,129.4,834,127.9,833.3,127.9z"/>
	<path fill="none" d="M824.1,126.4c0.8-1,1.7-1,2.7-0.7C825.9,126,825.1,126.6,824.1,126.4z"/>
	<path fill="none" d="M760.6,138.9c1.3-0.5,2.2-0.4,3.7-0.2C762.8,139.3,761.9,139.1,760.6,138.9z"/>
	<path fill="none" d="M847.2,151.7c1-1.1,1.5-0.5,2.2,0.3C848.3,152.7,847.6,152.7,847.2,151.7z"/>
	<path fill="none" d="M874.6,173.1c-0.7-0.2-1.4,0-2-0.9c1-0.7,1.7-0.2,2.3,0.6C874.8,172.9,874.7,173,874.6,173.1z"/>
	<path fill="none" d="M831.4,140.3c-1.6-0.1-2.1-0.2-1.7-1.1C830.5,138.8,830.5,139.5,831.4,140.3z"/>
	<path fill="none" d="M822.4,115.6c0.2-0.7,0.5-1.3,1.5-0.9C823.6,115.5,823.2,116,822.4,115.6z"/>
	<path fill="none" d="M841.8,111.9c-0.1-0.2-0.4-0.4-0.4-0.5c0.1-0.4,0.4-0.5,0.7-0.4s0.4,0.3,0.2,0.6
		C842.2,111.8,842,111.8,841.8,111.9z"/>
	<path fill="none" d="M615.4,177.3c-0.4-0.2-0.9-0.3-1-0.9c0.3-0.7,0.8-0.5,1.4-0.2c-0.2,0.4-0.3,0.8-0.5,1.2L615.4,177.3z"/>
	<path fill="none" d="M865.5,145.8c1.1,0.6,1.5,0.8,2,1.1C866.6,147.6,866.2,147,865.5,145.8z"/>
	<path fill="none" d="M440.8,278.1c-6.6,0.8-12.9,1.5-19.2,1.9c-8.5,0.5-16.8,1.9-25.3,2.6c-6.2,0.5-12.3,1.3-18.4,2.7
		c-7,1.7-13.7,4.2-19.5,9c-1.5-0.6-3.1-1.3-4.7-0.6c-7.8-5.4-8.5-6.4-8.4-11.2c4.1-2.8,8.3-5,13.2-6.1c-4.5-0.6-8.3,1.6-12.6,2.7
		c0-2.4,0.3-4.8-0.5-7c-1.6-0.2-1.8,0.9-2.2,1.7c-1.3,2.8-3.1,5.2-5.8,6.9c-1.4,0.8-1.9,2.1-2.1,3.6c-1.1,7.2,2.7,13.7,9.6,16.2
		c1.6,0.6,3.1,0.3,4.4-0.8c1.7-1.6,3.6-2.8,6.1-3.6c2,2.1,5.1,1.7,7.8,3.1c-0.2,1.9-1.6,3.4-2.1,5.2c-0.6,2-3.2,2.1-3.5,4.2
		c-3.8-0.5-7.4-0.9-10.9-1.3c-0.2,0-0.4,0.5-0.8,0.9c2.4,3.5,6.2,3.2,9.9,3.4c0,1.2-0.4,2.3-0.9,3.4c-2.3-0.7-4.5-1.3-6.7-2
		c-1.4-0.5-2.4-0.2-2.9,1.5c2,3.4,5.4,3.4,9.1,3.5c0.3,1.3,0,2.5-0.8,3.7c-2.4-1.3-4.7-2.1-7-0.2c1.1,2.9,1.2,2.9,5.7,2.6
		c-0.6,1.6-1.4,3-0.6,4.8c-1.8,0.1-2.6-1.2-4.2-1.5c-1.2,0.9-2.9,1.4-4.7,1.7c2.5,1.6,4.9,3.7,7.7,3.4c3-0.3,5.3,2.6,8.2,1.1
		c1.3,0.8,2.3,1.8,3.5,2.3c2.8,1.2,3.8,3.2,3.3,6.1c-0.1,0.6-0.1,1.2-0.1,1.9c-1.7,1.2-3.3,2.4-5,3.6c-3.6-0.3-7.1,0-10.6,0.2
		c-8.7,0.5-16.3-2.3-23-7.7c-5.9-4.7-7-10.4-5.4-17.8c0.9-4.4,1.4-9.2-0.8-13.6c-1.6-3.2-2.8-6.6-5-9.6c-2.9-3.8-2.6-8.5-1.6-13
		c0.6-2.6,1.2-5.2,1.5-7.9c1.9-1.1,4-0.9,6-1.3c1.2-0.2,2.4-0.2,3.6-0.7c5.3-2.4,11.1-3.6,16.6-5.5c1.3-0.5,2.6-0.7,4.1-0.4
		c0.8,0.6,1.6,1.2,2.5,1.9c0.3,1-1.3,1-1,2.1c0.7,1.5,1.9,0.8,3.1,0.5c7.1-1.9,14-4.2,20.9-6.5c2.3-0.8,4.6-1.5,7-2
		c5.2-1.2,9.9-3.4,14.3-6.2c5-3.1,10-6.1,15-9.1c0.5-0.3,1.1-0.6,1.7-0.7c10.4-3.1,20.9-5.6,31.9-5.3c3.9,0.1,7.7-0.4,11.7-0.1
		c2.2,0.2,4.5-0.9,6.6-1.8c2.5-1,5.1-1.5,8-1.5c2.7,9.6,5.5,19.2,8.2,28.7c-2.1,1.7-4.5,1.9-6.7,2c-1.7,0-2.8,0.4-3.8,1.9
		c1.6,0.5,2.3-1.1,3.8-1.5c2.2,1.1,4.6,1.5,7.1-0.4c1,1.7,1.8,3.1,1.4,5.3c-1.3-0.4-2.6-0.1-3.9,0.2c-0.2-0.5-0.4-0.9-0.6-1.4
		c-0.9,0-0.7,1.1-1.4,1.4c-0.5,0.1-1,0.2-1.4,0.2c-4-0.5-8-0.2-12,0.2c-2,0.2-3.8-0.3-5.3-1.4c-3,0.4-5.7,0.7-8.7,1.1
		c1-1.8,3.2-1.6,4.1-3.5C445.2,275.2,442.4,275.4,440.8,278.1z M445.5,252.2c-4.5-1.3-8.8-0.3-13,1.5
		C436.8,252.8,441.4,254.2,445.5,252.2z M461.8,247.1c-3.1-0.1-5.4,1.3-6.9,4C457.2,249.9,459.5,248.6,461.8,247.1z M429.4,253.7
		c-1.9-0.8-3.1-0.7-4.6,0.6C426.5,254.6,427.7,254.2,429.4,253.7z M368.7,272.5c1.2,0.8,1.7-0.1,2.3-0.8c0.2-0.2,0.1-0.5-0.3-0.7
		C369.8,271,369.1,271.4,368.7,272.5z M449.6,251.6c1.3,0.1,2.6,0.8,4.4-0.3C452.2,251.1,450.9,251.1,449.6,251.6z M363,275
		c0.8,0.4,1.2,0.3,1.6,0c0.3-0.3,0.8-0.6,0.3-1.1C363.9,273.6,363.4,274.1,363,275z M420,255c0.8,0.5,1.3,0.2,1.8-0.6
		C420.8,253.9,420.3,254.3,420,255z"/>
	<path fill="none" d="M350,295.7c-1.1,1-1.9,1.8-2.8,2.6c-6.1-2.4-7.8-3.7-10-7.8c0.3-2.2,0.6-4.5,0.9-6.8c1.4-1.6,3.5-2.3,4.9-4.7
		c0.2,3.1,0.3,5.3,0.4,7.5c0.1,2.6,1.3,4.7,3.1,6.4C347.6,293.9,348.7,294.6,350,295.7z"/>
	<path fill="none" d="M404.5,284.2c2.3-0.3,4.2-0.6,6.6-1c-1,0.9-1.6,1.5-2.3,2.1C407.4,285.3,406,285.3,404.5,284.2z"/>
	<path fill="none" d="M399,284.9c0.5,0.6,0.8,1.1,1.4,1.8c-2,0.3-3.6-0.8-5.4-0.7C396.1,285,397.4,285,399,284.9z"/>
	<path d="M698.4,546.5c-0.1-2.8-1.9-4.3-3.9-5.7c-3.8-2.6-6.5-6.2-8.7-10.1c-0.5-0.9-1.3-1.8-0.8-3c1.1-0.8,1.9-0.3,2.4,0.6
		c2.6,3.8,5.6,7.3,8.7,10.7c1.3,1.4,2.2,3.6,3.1,5.5C699.6,545.2,699.4,545.9,698.4,546.5z"/>
	<path d="M698.6,570c-0.6,1.7-2.3,2.8-2.1,5.4c1,1.5,1.2,3.8,1.6,5.6c0.8,1.1,1.4,0.2,1.9,0.4c2.2,2.7,2.2,3.1,0.7,5.7
		c-1.5-0.8-1.1-2.5-1.7-3.7C692.3,579.2,692.1,573.7,698.6,570z"/>
	<path d="M692,496.2c1.8,2.1,1.4,4.8,2.4,7.1c1,2.3,2,4.6,3.9,6.6C693.6,508.2,690.2,500.7,692,496.2z"/>
	<path d="M717.5,464.5c1.3,2,3.5,3.2,5,5c2.3,2.7,2.9,6,1.4,9c-1.1-0.6-0.8-1.7-0.9-2.5c-0.6-3.8-2-7.2-5.5-9.3
		C716.6,466.1,716.1,465.5,717.5,464.5z"/>
	<path d="M723.7,481.8c2.1,3.3,2,7.4-0.2,12.3c-0.6-1.7-0.3-3.1-0.4-4.4c-0.1-1.3-0.3-2.6-0.3-4C722.8,484.5,721.7,483,723.7,481.8z
		"/>
	<path d="M694.3,614.2c-1.4-5.2-3-10.3-0.5-15.6C693.7,603.8,693.8,609,694.3,614.2z"/>
	<path d="M693.7,583.4c0.5,4.4-1.9,7.8-1.5,11.6C691.6,588.3,691.8,586.6,693.7,583.4z"/>
	<path d="M733.6,484.3c-1.4-0.3-2.3-1.2-3.4-1.3c-1.1-0.1-2.4,0.2-3.3-1C729.2,480,731,480.6,733.6,484.3z"/>
	<path d="M720.5,506.1c-0.4-2.9,0.2-4.9,1.8-6.7C721.8,501.5,721.9,503.7,720.5,506.1z"/>
	<path d="M703.3,517.6c-1.8-1.8-3.7-3.5-4.4-7c2.4,2.3,3.5,4.6,4.6,6.8L703.3,517.6z"/>
	<path d="M712.1,538.8c1.3,1.1,1.8,2.4,0.7,4.4C712,541.6,711.8,540.2,712.1,538.8z"/>
	<path d="M700.9,587.6c1.5,1.3,1.3,2.3,0.8,3.6C700.4,590.3,700.4,589.3,700.9,587.6z"/>
	<path d="M699.5,555.8c-0.3-1.3,0-1.9,0.3-2.5c0.2-0.3,0.4-0.6,0.9-0.3C701.2,554.1,699.9,554.6,699.5,555.8z"/>
	<path d="M707,676.9c0.5,0,1.6,0,3,0C708.6,678.6,707.4,676.6,707,676.9z"/>
	<path d="M694.1,466.2c-0.8,1.7-1.4,2.6-3.2,3.2C691.7,467.8,692.4,467,694.1,466.2z"/>
	<path d="M706.9,682.2c0.9,0.5,1.1,1.2,0.7,2.3C706.5,683.9,706.5,683.1,706.9,682.2z"/>
	<path d="M699.5,549.8c-0.3-1,0.1-1.6,0.7-2.2c0.9,0.2,0.6,0.8,0.5,1.3C700.5,549.3,700.3,549.7,699.5,549.8z"/>
	<path d="M696.5,625.3c-1.2-0.4-1.1-1.2-1.1-2.4C696.8,623.6,696.8,624.3,696.5,625.3z"/>
	<path d="M735,505.6c-0.4,1.8-1,2.6-2.1,2.9C733.1,507.4,733.7,506.6,735,505.6z"/>
	<path d="M703.6,517.3c1.3,0.4,1.5,1.6,2.5,2.9c-1.9-0.4-2.3-1.6-2.7-2.7L703.6,517.3z"/>
	<path d="M701.6,594.8c-0.6-0.9-0.3-1.5,0.7-1.7C703,594.1,702.7,594.6,701.6,594.8z"/>
	<path d="M717.3,511.3c-0.2-1,0.3-1.4,1.1-1.7C719.2,510.9,717.8,510.8,717.3,511.3z"/>
	<path d="M737.6,496.2c0.4,0.8,0.4,1.5-0.6,2.2C736.7,497.4,736.9,496.8,737.6,496.2z"/>
	<path d="M684.7,525.1c-0.3-0.8-0.4-1.4,0.3-1.7C686,524.1,685.4,524.6,684.7,525.1z"/>
	<path d="M696.6,463.3c0.2,1.5-0.4,1.7-0.8,2.2C695.1,464.1,696,464.2,696.6,463.3z"/>
	<path d="M631.8,501.4c0.1,1.8-1.5,1.9-2.2,2.7c-1.9,5.1-4.1,7-7.2,6.1c-0.1-0.9,0.7-1.2,1.3-1.6c2.2-1.5,4.3-3,5.5-5.6
		C629.7,502.1,630.6,501.5,631.8,501.4z"/>
	<path d="M656.6,461c1.9-2.4,4.1-4.3,6.8-5.5c1.1,1,0.4,1.8-0.3,2.2c-2,1.3-4.1,2.4-6.2,3.7C656.8,461.3,656.7,461.1,656.6,461z"/>
	<path d="M663.6,522.5c-2.8,0-3.1-2.1-3.9-3.9C662.2,519,662.4,519.2,663.6,522.5z"/>
	<path d="M641.7,521.8c1.6,0.9,3.3,1.6,4.2,3.6C642.8,525.8,642.5,523.5,641.7,521.8z"/>
	<path d="M639.5,466.1c0.1-1.9,0.9-3.3,2.8-4.5C642.2,464.1,640.6,465,639.5,466.1z"/>
	<path d="M720.3,446.5c1-2.4,2.1-3.5,4.4-4.8C723.7,444.1,722.1,444.8,720.3,446.5z"/>
	<path d="M653,469.7c-0.1,2-1.7,2.6-1.8,4C650.4,472,651.4,471,653,469.7z"/>
	<path d="M660.1,508.7c-0.2,0.9-0.8,1.4-1.9,1.8C658.4,509.3,658.6,508.3,660.1,508.7z"/>
	<path d="M654.6,512.7c1.4,0.1,1.8,0.9,2.1,1.5c-0.2,0.6-0.5,0.8-0.8,0.6C655.2,514.4,654.9,513.7,654.6,512.7z"/>
	<path d="M662.1,493.9c-0.8,0-1.2-0.3-1.6-1C661.5,492.6,662.3,492.3,662.1,493.9z"/>
	<path d="M657.4,490.8c-0.8,0.5-1.3,0.1-1.6-0.8C656.6,489.8,657.2,489.8,657.4,490.8z"/>
	<path d="M656.9,461.4c-0.5,0.8-1.1,1.5-2.2,1.8c0.1-1.3,1-1.8,1.9-2.2C656.7,461.1,656.8,461.3,656.9,461.4z"/>
	<path d="M660.4,504.9c0,0.7-0.2,1.3-1,1.5c-0.6-0.9-0.1-1.4,0.5-1.8C660.1,504.7,660.3,504.8,660.4,504.9z"/>
	<path d="M639.2,470.4c-0.1,0.3-0.2,0.6-0.3,0.9c-0.2,0.3-0.4,0.6-0.7,0.9C637.3,470.9,638.3,470.6,639.2,470.4z"/>
	<path d="M572.7,607.8c3.1,1.7,4.8,4.2,7.3,5.7c2.3,1.5,4.7,2.9,7.2,4.5C581.6,617.7,574.2,612.6,572.7,607.8z"/>
	<path d="M654.3,625.6c1.9,3.6,0.9,6.4-3.3,9.7C652.2,632.1,653.1,629.2,654.3,625.6z"/>
	<path d="M537.5,594.6c-3.6,0-6.6,2.2-9.7-0.4c0.2-0.5,0.3-0.9,0.5-1C529.5,592.8,535.4,593.7,537.5,594.6z"/>
	<path d="M594.6,597.8c0,0.4,0,0.7,0,1.1c-2.6,0.3-4.3,0-7.3-1.4C590.2,596.9,592.4,597.6,594.6,597.8L594.6,597.8z"/>
	<path d="M596.7,622.4c-2,0.3-3.5-0.1-5.2-1.4C593.8,620.5,595.1,621.2,596.7,622.4z"/>
	<path d="M542.1,594.8c-1.3,0.9-2.1,1-3-0.2C540.1,593.7,540.9,594,542.1,594.8z"/>
	<path d="M550.2,595.4c1-0.9,1.8-0.7,2.9-0.2C552,596.4,551.2,596.1,550.2,595.4z"/>
	<path d="M546.9,594.9c-0.9,0.8-1.4,0.7-1.9-0.3C545.8,593.9,546.3,594.1,546.9,594.9z"/>
	<path d="M662.2,628.2c-0.5-0.9,0.3-1.5,0.7-2.4C663.2,626.9,663.1,627.7,662.2,628.2z"/>
	<path d="M624.8,622.2c0.9-0.3,1,0.2,1.2,1C625.1,623.3,624.7,623.1,624.8,622.2z"/>
	<path d="M606.6,625.2c-1,0.2-1.4-0.1-1.6-0.7C605.6,624,606,624.4,606.6,625.2z"/>
	<path d="M609.4,625.9c0.8-0.2,1.2-0.2,1.6,0.1C610.5,626.4,610.5,626.4,609.4,625.9z"/>
	<path d="M617.1,626.8c-0.8,0.8-1.5,0.4-2.2-0.2C615.7,625.9,616.4,626.1,617.1,626.8z"/>
	<path d="M569.7,602.8c-1-0.2-1.2-0.8-1-1.8C569.5,601.4,570,601.8,569.7,602.8z"/>
	<path d="M483.6,559c-3.3,3.5-8,4.7-12.2,6.6c3.9-2.4,7.8-4.9,11.7-7.3C483.2,558.5,483.4,558.7,483.6,559z"/>
	<path d="M496.8,569.9c3.9-1.8,6.6-2.4,8.1-1.9C502.6,569.7,502.6,569.7,496.8,569.9z"/>
	<path d="M394.8,577.8c2.4-1,4.6-0.1,6.7-0.9c-0.8,1.5-2.2,1.8-3.5,2.2c-0.8,0.2-1.6,0.5-2.4-0.1
		C395.3,578.7,395.2,578.4,394.8,577.8z"/>
	<path d="M491.2,574.9c2.3-2.8,2.3-2.8,4.7-2.8C495.2,574.1,493.9,575.1,491.2,574.9z"/>
	<path d="M487.2,551c1.1-1.8,2.5-2.6,4.3-3.7C490.6,549.8,490.6,549.8,487.2,551z"/>
	<path d="M506.5,570.7c2.1,0,3.1,0.7,4.4,1.6C508.9,572.5,508.9,572.5,506.5,570.7z"/>
	<path d="M405.2,576.7c0.7-1.1,1.6-1.5,3.1-1.1C407.5,577,406.3,576.9,405.2,576.7z"/>
	<path d="M466.4,567.1c-1.3,1.1-2.3,1.2-3.6,1.3C463.9,567.3,463.9,567.3,466.4,567.1z"/>
	<path d="M454.1,569c0.4-0.7,0.7-0.9,1.2-0.6C455.2,569,454.9,569.2,454.1,569z"/>
	<path d="M760.2,534.8c-2.1-4.6-1.7-8.6,0.8-11.5c1.3,0.1,1.6,0.9,1.4,2C761.7,528.3,761,531.3,760.2,534.8z"/>
	<path d="M778,562.7c0.7,0.2,1.1,0.5,1.3,1.3c-1.3,2.9-3.9,4.7-7.3,6.8C773.6,567.1,775.7,564.8,778,562.7z"/>
	<path d="M764.4,646c-0.2-3-0.8-6,0.7-8.8C765.3,640.2,766,643.2,764.4,646z"/>
	<path d="M766,570.4c-1.8-0.9-4-1.1-5.4-2.8C762.4,565.9,763.6,566.5,766,570.4z"/>
	<path d="M778.9,506.5c-1.1,4.5-1.8,5.1-4.6,5.1C776,509.7,777.5,508.1,778.9,506.5z"/>
	<path d="M777.5,515.8c-1.8,0.5-3,0.7-3.2-1.4C775.7,513.8,776.5,514.4,777.5,515.8z"/>
	<path d="M768.8,576.6c-0.5-1.3-0.5-2.3,0.6-3.2C770,575.1,770,575.1,768.8,576.6z"/>
	<path d="M769.9,653.7c-1.2,0.9-2.3,0.4-4.1,0.5C767.5,653.1,768.5,652.8,769.9,653.7z"/>
	<path d="M760,537.5c0.3,1-0.5,1.7-0.5,2.7c-0.7-0.5-0.4-1.2-0.3-1.7C759.2,538.1,759.5,537.7,760,537.5z"/>
	<path d="M781.9,518.1c-1.2,0-1.6-0.2-1.8-0.9C781.1,516.1,781.4,516.8,781.9,518.1z"/>
	<path d="M760.9,549.2c-0.8-0.2-1.2-0.7-1.1-1.6C760.8,547.6,761.3,547.8,760.9,549.2z"/>
	<path d="M766.6,622.2c-0.5-0.6-0.5-1.2,0.1-2.1C767,621,767.2,621.6,766.6,622.2z"/>
	<path d="M540.9,524.4c-1.5-1.1-2.2-1.8-2.3-3C539.5,522,540.2,522.6,540.9,524.4z"/>
	<path d="M605.5,486.3c0.8,2.2,0.8,2.2-1.3,3.9C604.1,488.8,604.6,487.8,605.5,486.3z"/>
	<path d="M700.2,242.9c0-3.3-2.1-4.8-4.1-6.2c-3.8-2.6-6.4-6.3-8.7-10.2c-0.5-0.8-1.1-1.6-0.6-2.7c0.8-0.8,1.6-0.5,2.2,0.2
		c0.7,0.8,1.3,1.7,1.9,2.6c1.2,1.8,2.3,3.8,4.1,5.1c2.9,2.1,3.7,5.5,5.8,8.1C701.4,240.6,701.4,241.6,700.2,242.9z"/>
	<path d="M698.1,271.2c1.3,1.6,1.2,4.1,1.9,5.9c0.8,1.2,1.5-0.2,2.1,0.5c2,3,2,3.2,0.2,5.4c-1.2-0.9-1-2.4-1.5-3.6
		c-6.7-4.4-6.9-10.1,0.1-13.9C699.8,267.7,698.2,268.9,698.1,271.2z"/>
	<path d="M719.2,160c1.2,2.4,3.3,3.5,4.9,5.2c2.6,2.8,3.2,6.1,1.7,9.1c-1-0.2-0.8-1-0.9-1.7c-0.5-4.1-1.8-7.8-5.7-10.1
		C718.5,162.2,718.6,162.1,719.2,160z"/>
	<path d="M725,189.8c-0.1-3.7-0.3-7.4-0.4-11.2c0-0.1,0.3-0.3,0.5-0.4C727.6,179.8,727.8,185,725,189.8z"/>
	<path d="M698.7,204.8c-4.3-2.7-6.5-8.8-4.7-13.1C695.6,196.4,696.1,201,698.7,204.8z"/>
	<path d="M695.4,294.8c0.2,5.1-0.1,10.2,0.7,15.3C694.5,305,693.2,300,695.4,294.8z"/>
	<path d="M695.6,279.2c0.3,4.5-1.6,7.8-1.6,11.4C693.3,285.1,693.6,282.6,695.6,279.2z"/>
	<path d="M708.1,217.1c-3.6-3.4-6.4-7.4-7.1-10.2c1.9,1.4,2.6,3.2,3.5,4.7C705.6,213.2,707.1,214.5,708.1,217.1z"/>
	<path d="M728.2,178.2c3.1-2.2,4.3-1.8,6.9,1.8C733.1,179,730.9,178.9,728.2,178.2z"/>
	<path d="M714.1,234.7c1.3,1.9,1.3,1.9,0.2,4.2c-0.3-1.3-0.6-2.6-1-4C713.6,234.9,713.9,234.8,714.1,234.7z"/>
	<path d="M724.1,195.5c-0.8,1.9-0.2,4.2-1.8,6.2C721.9,199.1,722.7,197.2,724.1,195.5z"/>
	<path d="M733.3,205.4c1.2-1.4,2.4-2.8,3.6-4.2C736.5,203.3,735.5,204.8,733.3,205.4z"/>
	<path d="M711.6,373.8c-1.2-0.2-2.5-0.1-3.6-1.2c1.3,0.2,2.7,0.3,4,0.5C711.9,373.3,711.8,373.6,711.6,373.8z"/>
	<path d="M703.6,287.5c-1.4-1.2-1.3-2.3-0.9-3.7C704.2,284.8,703.9,285.9,703.6,287.5z"/>
	<path d="M696.1,162.4c-1,1.5-1.7,2.5-3.4,3.2C693.5,163.8,694.1,162.9,696.1,162.4z"/>
	<path d="M701.3,251.4c-0.4-1.2,0.2-1.8,1-3C702.8,250.1,702,250.6,701.3,251.4z"/>
	<path d="M702.3,243.1c0.4,1.5,0.2,2.3-0.8,2.7C700.8,244.8,701.4,244.2,702.3,243.1z"/>
	<path d="M709.3,380.5c-1-0.8-1.1-1.5-0.7-2.4C709.7,378.6,709.7,379.4,709.3,380.5z"/>
	<path d="M698.3,321.4c-1-0.5-1.3-1.2-0.8-2.3C698.6,319.6,698.7,320.4,698.3,321.4z"/>
	<path d="M704.2,289.1c0.7,1.2-0.1,1.4-0.6,2C702.9,290.1,703,289.5,704.2,289.1z"/>
	<path d="M738.7,194.3c-0.5-0.8,0.2-1.3,0.5-1.8C739.4,193.5,739.4,193.5,738.7,194.3z"/>
	<path d="M720.6,205.6c-0.3,1.2-0.6,1.8-1.6,1.5C718.9,206.1,719.5,205.9,720.6,205.6z"/>
	<path d="M679.9,221.5c-1.4,3.1-7.1,5.6-13.2,5.9C669.1,225,677.5,221.3,679.9,221.5z"/>
	<path d="M657.3,220.8c2.3,0.7,4.8,1.1,6.9,2.7C661.8,224.4,661.6,224.3,657.3,220.8z"/>
	<path d="M623,180c0.7-1.8,1.8-3.3,4-4.3C626.6,178.3,624.5,178.9,623,180z"/>
	<path d="M655.3,158.3c-0.3,2.6-2.2,3.9-4.1,5.1C652.6,161.7,653.9,160,655.3,158.3z"/>
	<path d="M649.3,194.2c0.4-1.7-0.2-3.8,1.9-5.3C651.8,191.3,650.3,192.7,649.3,194.2z"/>
	<path d="M726.3,138.7c-1,0.9-2,1.8-3.5,3.3c0.5-2.4,1.9-3,2.9-3.9C725.9,138.3,726.1,138.5,726.3,138.7z"/>
	<path d="M642.6,188c0.8-0.5,1.6-0.5,2.3,0C643.8,188.9,643.8,188.9,642.6,188z"/>
	<path d="M646.4,232.3c-1.9-1-2.7-1.9-3.3-3.9C644.6,229.6,645.7,230.2,646.4,232.3z"/>
	<path d="M661.9,188.6c0.9-0.4,1.6,0.1,2.2,0.7c-0.3,0.8-0.9,0.5-1.4,0.2C662.4,189.3,662,189.1,661.9,188.6z"/>
	<path d="M651.6,182.7c1.3-0.6,1.9-0.2,2.3,0.8C652.8,184.4,652.2,183.8,651.6,182.7z"/>
	<path d="M632.6,188.7c0.4-0.8,0.8-1.2,1.8-0.6C634.1,189.2,633.5,189.1,632.6,188.7z"/>
	<path d="M660.1,206.5c0.1-1.3,0.5-1.9,1.7-2.2C661.7,205.5,661.1,205.9,660.1,206.5z"/>
	<path d="M660.9,202.3c-0.1-0.9,0.2-1.5,1-1.9C662.5,201.6,662.3,202.2,660.9,202.3z"/>
	<path d="M648.7,201.1c0.4,0.5,0.4,0.9,0,1.3c-0.1,0.1-0.5-0.1-0.6-0.3C647.7,201.4,648.2,201.2,648.7,201.1z"/>
	<path d="M651.1,167.5c-0.1,1.1-0.6,1.7-1.1,1.5c-0.6-0.2-0.1-0.8,0.2-1.1C650.4,167.8,650.6,167.7,651.1,167.5z"/>
	<path d="M809,145.9c2.3-0.2,4.5-0.2,6.9,0.3c0.7,2.3,0.9,4.5,0.5,6.7c-0.9,1.4-2.4,1.3-3.5,2c-0.5,1.1,0.5,2.2-0.4,3.3
		c-0.9,0.9-2.1,0.9-3.3,0.6c-1.3-1.6-0.4-3.5-0.9-5.2c1.8-2.4,3.9-2.2,6.2-0.8c0.8-2,0.2-3.8,0.2-5.4c-0.9-0.5-1.5,0-2.1,0.1
		c-0.4,1,0.7,1.3,0.5,2.1c-0.3,0.4-0.6,0.2-0.9,0.1c-1-0.4-1-1.6-2.1-2.4c-0.3-0.2-0.9,0.6-1.5-0.2
		C808.7,146.7,808.9,146.3,809,145.9L809,145.9z"/>
	<path d="M842.7,179.5c-0.1,2-1,2.6-2.1,3c-1.2-0.4-2.4-0.8-3.9-1.2c-0.7-1.1-1.5-2.2-2.7-4C837.2,178.3,839.2,181.5,842.7,179.5z"
		/>
	<path d="M793.9,177c0.6-2.7,2.3-4.6,4.7-6.6C798.3,174,796.3,175.7,793.9,177z"/>
	<path d="M756.8,169.3c-1.4,3.7-2.5,4.4-5.4,3.4C752.9,171,755.2,170.7,756.8,169.3z"/>
	<path d="M758.4,192.9c-0.5,1.9-0.8,3.9-3.4,5.2C755.7,195.5,756.9,194.1,758.4,192.9z"/>
	<path d="M791.9,151.4c-0.1,2-1.5,3.2-3.6,4.9C789.3,153.8,790.3,152.4,791.9,151.4z"/>
	<path d="M783.7,160.7c0.1,2-1.7,2.6-2.8,3.7C781,162.6,782,161.4,783.7,160.7z"/>
	<path d="M760,144.1c-2.2,0.5-3.4-0.9-4.8-0.9C756.7,143.2,758.2,142.4,760,144.1z"/>
	<path d="M746.3,214c0.8-1.6,1.9-1.9,3-2.1C748.7,212.9,748.5,214.2,746.3,214z"/>
	<path d="M769.7,187.8c-1.8,1.2-2.9,2-4.2,2.9C766.3,188.7,766.3,188.7,769.7,187.8z"/>
	<path d="M753.6,207.2c-0.3-0.1-0.7-0.1-1.1-0.2c0-1.6,0.9-2.4,2.1-3.3c0.6,1.7-1.4,2.3-1.2,3.6L753.6,207.2z"/>
	<path d="M789.3,181.5c0.4-1.1,1-1.5,1.6-1.9c0.3-0.2,0.7-0.3,1.1,0.3C791.5,180.9,790.6,181.1,789.3,181.5z"/>
	<path d="M776.9,168.2c0-0.7,0.2-1.3,0.9-1.3C778.5,167.9,777.1,167.7,776.9,168.2z"/>
	<path d="M773.4,171.5c0-0.6,0.4-0.8,0.9-1C774.7,171.5,774.2,171.6,773.4,171.5z"/>
	<path d="M763,219.2c1.5,1.7,1.5,1.7-1.1,11C759.8,226.5,760.3,221.8,763,219.2z"/>
	<path d="M779.8,258.7c0.9,0.4,1.4,0.7,1.3,1.2c-0.3,1.8-2.8,4.1-7,6.7C775.3,263.1,777.5,260.9,779.8,258.7z"/>
	<path d="M767,332.9c-0.1,3,0.9,6.2-0.5,9.5C765.5,339.1,765.7,336.1,767,332.9z"/>
	<path d="M780.8,202.4c-1.1,4.6-2,5.4-4.6,5C777.8,205.7,779.3,204,780.8,202.4z"/>
	<path d="M762.2,262.4c3.3-0.1,4.2,2.2,5.8,3.6C765.8,265.6,763.5,265.5,762.2,262.4z"/>
	<path d="M779.3,211.8c-2.6,0.4-2.6,0.4-2.8-1.5C777.6,209.8,778.3,210.6,779.3,211.8z"/>
	<path d="M768,350.1c1.7-1.1,1.7-1.1,3.4-0.4C769.9,350.3,769.9,350.4,768,350.1z"/>
	<path d="M771.5,269.4c0.5,1.2,0.7,2.2-0.5,3C770.4,270.9,770.4,270.9,771.5,269.4z"/>
	<path d="M762,233.5c-0.3,1-0.5,2-0.8,3.2C760.7,235.4,760.7,234.3,762,233.5z"/>
	<path d="M768.5,318.5c-0.8-1-0.5-1.7-0.3-2.6C769,316.8,768.8,317.6,768.5,318.5z"/>
	<path d="M783,214.1c-0.6-0.2-1.4-0.4-0.9-1.4c0.9-0.4,1.1,0.2,1.5,0.7C783.3,213.8,783.2,213.9,783,214.1z"/>
	<path d="M762.6,245.1c-0.7-0.3-1.3-0.6-0.6-1.8C762.7,243.8,763.3,244.1,762.6,245.1z"/>
	<path d="M445.5,252.2c-4.2,2-8.7,0.6-13,1.5C436.7,251.9,441,250.9,445.5,252.2z"/>
	<path d="M461.8,247.1c-2.3,1.4-4.6,2.8-6.9,4C456.4,248.4,458.6,247,461.8,247.1z"/>
	<path d="M429.4,253.7c-1.7,0.6-2.9,0.9-4.6,0.6C426.3,252.9,427.5,252.9,429.4,253.7z"/>
	<path d="M368.7,272.5c0.3-1.1,1.1-1.5,2-1.5c0.4,0.2,0.5,0.4,0.3,0.7C370.5,272.4,369.9,273.3,368.7,272.5z"/>
	<path d="M449.6,251.6c1.3-0.5,2.6-0.4,4.4-0.3C452.2,252.3,450.8,251.7,449.6,251.6z"/>
	<path d="M363,275c0.4-0.9,0.9-1.4,1.9-1.1c0.5,0.5,0,0.9-0.3,1.1C364.2,275.4,363.7,275.4,363,275z"/>
	<path d="M420,255c0.4-0.7,0.9-1.1,1.8-0.6C421.3,255.2,420.8,255.4,420,255z"/>
</g>
</svg>
