<?xml version="1.0" encoding="utf-8"?>
<!-- Generator: Adobe Illustrator 19.1.0, SVG Export Plug-In . SVG Version: 6.00 Build 0)  -->
<svg version="1.2" baseProfile="tiny" id="Layer_2" xmlns="http://www.w3.org/2000/svg" xmlns:xlink="http://www.w3.org/1999/xlink"
	 x="0px" y="0px" width="900px" height="600px" viewBox="144 97 900 600" xml:space="preserve">
<g>
	<path d="M824,309.3c0.5-0.1,1-0.3,1-0.8c0-0.4-0.3-0.9-0.6-1.2c-5.2-6.7-6.3-14.7-6.7-22.8c-0.1-2.4,0-4.9-2.1-6.5
		c0.5-1.6,1.2,0.1,1.9-0.6c1.6-10,5-19.9,5.2-30.4l-0.1,0.1c7.1,4.8,14.5,9.1,19.3,16.9c1.7-5.6,1.7-11.3,1.9-16.8
		c-1-0.6-1.6,0.7-2.7,0.2c-3.2-5-4.2-10.5-2.1-16.4c0.9-2.5,0.9-5,0.2-7.6c-0.1-0.3-0.3-0.8-0.2-1c1.9-3.9,0.8-8.7,4.1-12.1
		c2.9-3,5.1-6.6,9.1-8.6c1.9-1,3.7-1.5,6.7-0.7c2-0.9,3-3.3,5-4c1.8,0.3,1.7,1.7,2.1,2.8c1.4-3.3,1.8-3.6,4.4-4.1
		c0.6,1.2-0.8,1.8-0.7,3.2c1.5-0.7,2.9-1.4,4.4-2.1c1.2,1.2,1.5,3.2,3.5,3.6c-0.5,1.2-1,2.2-1.4,3.1c0.9,1,1.1,2.6,3,2.5
		c1,0,1.5,1.1,1.8,2c2.3,5.8,4.2,11.7,3.9,18.1c0,0.8-0.5,1.5-0.6,2.1c0.1,1.2,1,1.5,1.5,2.1c2.6,3,2.8,7,0.6,10.3
		c-0.5,0.8-1.3,1.7-1.2,2.5c0.4,2-0.2,3.2-2.3,3.5c-0.8,0.1-1.4,0.8-1.3,1.5c0.2,2.7-1.7,5.1-0.9,7.9c0.5,2.1-0.1,4.2-0.4,6.3
		c-0.3,2.1,0.4,3.6,2.4,4.5c2.9,1.3,5.7,2.8,8.5,4.3c0.9,0.5,2,0.9,2.6,1.7c3.3,4.1,7.8,4,12.4,4.3c5.4,0.4,10.2,2.8,14,6.7
		c5.9,6.1,9.7,13.2,9.6,22.1c-0.1,3.7,1.6,7.2,3.9,10c5,6.2,7.7,13.4,9.3,21.1c0.2,1.2,0.8,1.9,1.5,2.7c2.7,2.7,5.1,5.9,8.8,7.4
		c0.8,0.3,1,1.2,1.4,2c3.2,7.2,6.2,14.5,7.6,22.3c0.6,3.3,1.3,6.7,3.7,9.4c0.8,0.9,1.1,2.1,1,3.3c-0.8,6.1,1.8,11.5,4,16.9
		c0.6,1.4,0.8,2.5,0.2,4c-0.5,1.4-0.8,3-1,4.5c-0.7,4.5-2.9,7.2-7.3,8.1c-1,0.2-1.7,0.6-2.3,1.3c-2.2,2.8-4.9,3.4-8,1.9
		c-1.7,0.8-2.9,2.3-4.2,2.5c-1.9,0.1-1.9-1.6-3.4-1.4c0.6-1.4,1.1-2.4,1.6-3.5c1.1-2,2.8-3.7,3.3-5.6c-0.6,1.9-1.9,3.8-3.5,5.5
		c-1.3,0.8-2,2.3-3.6,3c-1.3-0.2-1.7-1.6-2.8-2.4c0.7-2.8,1.4-5.5,2.1-8.5c-1.9,1.6-3.3,3.5-5.9,2.9c-0.8-1.7-0.3-3.2,0.3-4.8
		c1.3-3.4,2.4-6.9,2.4-10.6c0-1.9,1-3.3,2.1-4.7c2.2-2.6,4.3-5.3,5.8-8.1c-11.8-5-18-14.2-20.3-26c-14-10.2-14-10.2-20.3-21.7
		c-2.7,4.5-2.7,9.5-3.2,14.3c-0.9,8.2-1.5,16.4-2.3,24.6c-0.1,1.2-0.2,2.3,0.8,3.2c0.9,0.8,0.5,2,0.4,3c-0.3,3.2-0.7,6.3-1,9.5
		c-0.3,2.8-0.4,5.5,0.6,8.3c1.3,3.8,0.7,8,0.5,11.9c-0.2,3.1,0,6.1,1.9,8.1c5.7,6.2,6.3,14,7.3,21.7c1.1,8.8-0.5,17.8,1.6,26.4
		c2.5,10.1,1.8,20.6,4.5,30.7c1.5,5.5,0.4,11.5,1.6,17.2c0.6,2.7,1.8,5.4,1.4,8.3c-0.1,1,1.3,0.9,1.4,1.9c-0.8,1.4-2.7,1.1-4.3,2.7
		c-0.4,5.3-0.8,11.1-0.2,17c0.5,4.9,3,9,4.8,13.2c4.7,10.8,4.2,21.9,2.7,33c-0.8,5.6-1,11.3-2.6,16.7c-2.2,8.1-3.8,16.3-4.8,24.6
		c-0.3,2.2-0.4,4.4-0.2,6.6c5.1,2.9,5.8,5,2.7,8.6c-1.9-1.6-0.1-4.2-1.8-5.9c-2.2-0.4-4.3,0.6-6.4,0.4c-1,1.8,0.6,3.2-0.1,5.1
		c-2.3,1.9-6.4,0.3-8.1,3.1c-1.8,0.3-1.9-1.1-3.3-1.7c1,6.4-2.9,11.5-4,17.7c3.8,2.4,7.6,5.3,13,5.8c0.3,9.4,6.7,12.7,14.6,14.7
		c0.8-3.5,5.7-4.8,12.2-3.4c-3,0.6-5.9-0.6-8.5,1.6c3.4-0.1,6.4-0.1,9.5,0.4c-0.4,1.5-1.8,1.6-2.8,1.7c-4.4,0.3-8.9,1.1-13.3,0.8
		c-0.5,0-0.9-0.1-1.4-0.3c-4-1.5-7.4-4.2-10.3-7.2c-1.5-1.5-2.2-3.8-1.5-6.4c-2.1-0.7-4.1-1.4-6.1-2.1c-2-0.7-3.9-1.7-5.5-3.1
		c-1.8-1.5-1.9-3-1.4-5.5c0.9-4.5,4.1-8.5,3.4-13.4c-0.2-1.6,0.9-2.9,2.3-3.9c0.3-1.5-0.9-3.6,1.5-4.3c-1.6-3.2-0.5-6.3-0.4-9.3
		c0.2-6.5-0.2-12.9-2.6-19.1c-1.7-4.3-4-8.5-4.1-13.4c0-1.1-0.9-2.1-1.4-3.2c-2.9-5.8-3.8-11.9-4.4-18.4c-0.7-7.5,0.9-14.8,1.4-22.1
		c0.1-1.7-0.6-3.1-0.3-4.7c1.9,2.4,2.6,5.1,2.4,8c-0.2,3-0.6,6.1-0.7,9.1c-0.2,5.7-0.5,11.6,0.9,17.2c2,8.1,4.4,16.1,7.6,23.8
		c2.9,7,3.6,14.6,3.3,22.2c-0.1,3.1-0.2,6.3-0.9,9.5c4.9,2.2,8-2.8,12.4-2.3c-0.8-2.7-0.3-5-0.1-7.4c0.8-8.5,3.9-16.5,5.1-24.9
		c1.9-13,4.2-26,2.4-39.2c-0.8-6.2-3.3-11.7-6.2-18c-0.7,4.7-2.1,8.3-4.2,11.7c1.2-4.3,1.1-8.9,3.5-13.6c-2.6-5.9-1.1-12.8-0.7-19.9
		c-9.5,3.2-18.6,6.7-29.3,4.3c1,6.1,2.3,11.6,3.9,17.2c-5.4-4.4-6.3-10.3-5.1-17.2c-8.7-0.6-17.1,0.8-25.5,0
		c-1.4-10,0.1-19.8-2-29.6c-0.8,3.1-1.1,6.3-2.7,9.2c-1.7,3-1.6,6.8-2.7,10.1c-1.1,3.3-1.2,6.9-3.4,10.3c-5.7-2.4-10.7,1.9-16.8,1.4
		c0.3,5.5-2.2,9.9-4.6,14.3c-2.6,4.8-1.5,9.6-0.9,14.5c1.2,11.4,0.9,22.5-4.6,33c-1.7,3.3-1.4,7.3-3.2,10.7
		c-5.2,10.2-5.1,21.1-3.8,32.1c0.3,2.4,0,5.2,2.2,7.1c0.4,0.3,0.6,1.1,0.5,1.6c-0.9,4.7,2.8,8.4,2.9,12.9c0,1,0.8,1.9,1.3,3.1
		c-2.7,5.8-8.6,6.3-13.7,8.3c0.7,4.2-1.3,7.1-4.7,9.3c-0.6,0.4-1.3,0.7-1.8,1.2c-2.8,2.8-6.1,3.8-10,3.5c-3.5-0.3-7-0.5-10.5-0.8
		c-1.1-0.1-2-0.5-2.9-1.6c3.3,0,6.3-1.2,9.5-0.4c-1.8-1.7-4-1.8-6.3-1.8c3.7-1.6,6.9,0.2,9.9,1.4c0.8,0.6-0.3,1.2,0.4,1.7
		c4.3,0.6,7.1-2.5,10.4-4.3c4-2.2,3.5-6.4,4.6-10c5.1-0.4,8.9-3.4,12.9-5.7c-0.8-6.1-4.9-11-4.1-17.1c-1.3-0.4-1.5,1.3-3.2,0.8
		c-1.9-1.9-5.4-1.7-7.9-2.7c-0.9-1.9,0.4-3.3,0.1-5c-2.2-0.8-4.5-0.7-6.8-0.7c-1.3,1.8-0.2,4.1-1.6,5.8c-3.3-3-2.5-6.1,2.5-8.5
		c0.3-7-0.6-14.1-2.4-20.8c-2.9-10.6-4.3-21.4-5.7-32.3c-0.8-6.2-1-12.6,0.3-18.7c1.1-5,2.9-10,5.2-14.6c1.9-4,2.7-8,2.9-12.2
		c0.2-4-0.6-8-0.3-11.6c-1.1-1.5-2.7-1.4-3.6-3c-0.4-1.1-0.1-2.6,0.2-4.1c1.2-6.1,1.1-12.2-0.5-18.2c-1.6-5.8-0.1-11.5,1.2-17.1
		c3.4-14.8,7.1-29.6,10.6-44.3c0.2-1,0.8-1.9,0-3c-0.8-1,0-2,0.3-3c2.5-7.6,4.6-15.3,7.9-22.6c0.4-0.9,1.2-1.4,1.5-2.3
		c-0.2-4.1-1.1-7.9-2-11.8c-1.3-5.3-1.2-10.9-0.5-16.2c1.1-8.1,0-15.9-1.4-23.8c-0.2-1.2-0.4-2.3-0.1-3.5c2.2-9.5-0.4-18.2-3.5-27.1
		c-3.3-9.3-6-18.8-6.9-28.8c-0.4-4.5,1.7-8.7,0.4-13.2c-0.4-1.5-0.6-3.3-1.3-4.7c-2.3-4.9-3.8-10.1-6.3-14.9
		c-4.6-8.9-5.1-18.5-4.9-28.2c0.1-5,1-10,0.5-15.1c-0.2-2.7-1.5-5.2-1.8-7.7c-0.4-4.2-1.4-8.3-2-12.4c-1.8-11.4-1.3-22.8-0.8-34.2
		c0.4-10,0.9-20,3.7-29.9c-3.7-3.5-5.6-7.7-5.5-12.8c0.1-3.9,1.2-6.8,4.9-8.6c2.9-1.3,5.1-3.9,8.3-4.5c0.6-4.3,1.8-5.3,6-5.7
		c2.3-0.2,4.7-0.8,6.9-1.5c1.6-0.5,2.9-0.7,4.9,0.9c-4.2-0.4-5.8,2.4-7.7,4.6c-0.6,0.7-0.4,1.8,0.5,2.5c1.5-0.2,2-1.5,2.9-2.4
		c0.6-0.6,0.9-1.4,1.5-1.9c1.9-1.4,3.4-4,6.3-2.9c3.1,1.2,4.7,3.5,4.5,6.8c9.4,5.8,12.1,21.9,9.2,28.6c-0.5-2.8-1-5-0.7-7.7
		c0.5-5.8-4-16.3-9.2-18.6c-0.2,3.8-1.6,7.3-1.6,11.3c2.4,1.1,3,3.5,3.4,6c0.5,3-1.3,5-4.4,4.5c-4.3-0.7-8,0.9-11.8,2.2
		c-1.3,11.7-0.3,22.9,3,34c3,1.1,5.7,1.3,8.4,0.2c3.7-1.5,7.7-2.2,11.2-4.2c2.8-1.6,4.6-3.8,5.1-7.1c0.6-4.6,1.1-9.1-0.2-13.7
		c-0.6-2.1-1.9-3.7-3-5.4c1-1.1,1.6-0.3,2.1,0.3c1.9,2.2,3.1,4.8,3.6,7.6c0.4,2.3,0.4,4.7,0.4,7c-0.1,8.2-4.9,13-12,15.7
		c-4.5,1.8-9.1,3.8-14.4,1.9c1.4,11,3.7,21.3,2,32.3c-1.7-1.2-1.5-2.7-1.4-4c0.5-8.7-0.9-17.2-2.9-25.5c-0.5-2-0.9-4-2.3-5.8
		c-1.2-1.6-0.7-3.9-0.9-5.8c-0.5-6.7-2.6-13.2-1.7-19.9c-3.4-2.9-4.1-5.3-2.3-8.4c1,1,0,2.3,0.5,3.3s0.3,2.4,1.4,3.2
		c1.2-2.1,1.3-4.8,0.4-9.2c-0.7-0.5-0.7,1-1.4,0.5c-0.4-1.1-0.5-2.2,0.1-3.2c0.7-0.5,0.9,0.8,1.6,0.3c0.1-1.1-1.3-1.6-1.2-2.8
		c1.2-0.5,1.7,0.9,2.9,1.1c2-2.2,5-2.6,7.8-3.2c2.8-0.6,4.3-2.1,4.5-5c0-0.8,0-1.7,0.4-2.4c2.4-4.6,0-6.8-4-8.4
		c-2.8,2.4,3.1,5.1-0.6,7.7c1-2.9-2.5-4.4-1.5-7.3c0.4-2,1.5-3.3,3.5-3.6c-2,0.4-3.2,1.5-3.5,3.6c-2.3,0-4,1.3-6,2.5
		c-2-2.5-5.5,1.1-7.2-2c-3.5,1.4-6.6,3-9.6,4.8c-5.4,3.3-6.9,10.9-2.8,15.9c0.4,0.5,0.8,1.2,1.4,2c1.6-5.6,1.6-5.6,0.2-8.1
		c0.4-0.9,0.9-1.8,1.2-2.8c0.9-2.9,2.8-4.5,5.8-5c2.4-0.4,4.6-1.3,6.9-2.2c3.4-1.4,6.8,0.2,10.1,1.5c-4.2,0.2-8.9-2.1-12.2,2.3
		c-4.7-1.5-8,0.4-10,5.9c1.5,0.9,1.5,2.2,1.2,3.9c-1.9,11.5-4.2,22.9-4.6,34.6c-0.4,10.8-0.7,21.7,0.2,32.5
		c0.5,5.4,1.3,10.7,1.9,16.1c0.2,1.4,1.1,2.6,1.5,3.8c2.2,6.1,0.9,12.1,0.5,18.2c-0.6,8.9,0.2,17.7,3.5,26c2.2,5.6,3.9,11.4,7,16.6
		c1.3,2.2,1.8,4.8,1.7,7.5c-0.7,10.5,2.1,20.5,4.6,30.6c0.4,1.6,1.4,3,2.2,4.7c4.6-3.3,9.1-6.6,13-10.7
		C823.8,310.6,824.4,310,824,309.3L824,309.3z"/>
	<path d="M346.5,641.1c2.6,1,5.1,0.9,7.3-0.9c1.8-1.4,4-1.2,6.1-1.8c-1.1-1.6-1-3.3-0.8-5c0.7-9.6,3.8-18.9,5-28.4
		c1.8-14,4.1-28.1,1-42.2c-1.2-5.6-3.5-10.9-6.4-15.9l0.1,0.1c-1.8-5.5-3.2-11-1.7-16.9c0.4-1.7-0.7-3.6,0-5.7
		c-9.7,3.8-19.2,7.2-30.1,5.3c1.5,6.2,2.5,11.8,4.5,17.4c-2.4-2.2-4.5-4.5-5.4-7.6s-0.3-6.3-0.5-9.9c-8.7-0.6-17.4,1.5-25.9,0.6
		c-1.6-10.4-0.2-20.6-2.8-30.5c0.4,5.5-2.9,10-3.9,15.2c-0.9,5.2-1.6,10.6-4.2,15.6c-4.1-0.5-8-0.6-11.8,1.4
		c-1.4,0.8-3.4,0.5-5.6,0.8c0.6,6.8-3.8,12-5.6,18.1c-1.1,3.8,0.2,7.5,0.6,11.2c1.4,11.7,1.3,23.2-4,34.2c-1.7,3.5-1.4,7.8-3.1,11.4
		c-5,10.5-4.4,21.5-2.9,32.6c0.3,2.3-0.1,5.2,2.4,6.9c0.2,0.2,0.4,0.7,0.4,1c-0.9,4.6,2.7,8.1,3,12.4c0.1,1.7,1.3,3,1.9,4.9
		c-2.6,5.7-8.5,6.5-13.9,8.6c0.9,4.6-1.4,7.7-5.1,10c-0.4,0.2-0.8,0.5-1.2,0.8c-2.8,2.9-6.2,4.2-10.2,3.9c-3.5-0.2-7-0.3-10.5-0.6
		c-1.1-0.1-2.3-0.3-3.3-1.7c3.5-0.2,6.6-1.2,10.2-0.2c-2.5-2-2.6-2-10.1-1.4c4.9-2.3,9.2-1.4,13.9,0.9c0.5,0.3-1.1,1,0,1.7
		c9-1.7,14.8-6.6,15.1-16.7c2.7,1.7,9.1-1.2,12.8-5.2c-1.1-5.9-5.3-10.9-4.4-17.4c-1.4,0-1.4,1.5-3.1,1.5c-2.2-1.9-5.8-1.7-8.6-2.9
		c-0.8-1.9,0.4-3.4,0-5.1c-2.3-0.7-4.7-0.7-7.1-0.5c-1.2,1.9-0.1,4.1-1.2,5.9c-3.7-2.8-2.9-6.1,2-8.7c0.8-4.8-1-9.4-1.4-14.2
		c-0.6-6.9-3.6-13.2-4.8-19.9c-1.8-10.9-4.1-21.7-4-32.9c0.1-7.7,2.9-14.7,5.7-21.7c1.7-4.2,2.5-8.3,2.7-12.6
		c0.1-4-0.8-7.9-0.5-11.7c-4.3-3.1-4.4-3.1-3.6-8.1c0.6-3.7,0.4-7-1.3-10.6c-3.8-8.1-2.9-16.3,1.2-24.1c0.9-1.8,1-3-0.4-4.4
		c-0.3-0.3-0.6-0.7-0.9-1.1c-5.9-7.8-2.3-17.6,4.8-22.2c1.6-1.1,2.6-2.1,2.9-4c0.7-4.3,2.4-8.4,2.3-12.8c0-1.4,0.9-2.4,1.1-3.2
		c-1.5-8.2-5.7-14.8-8.9-21.8c-4.6-10.1-8.1-20.6-8-32c0-2.1-0.3-4.2-1.2-6.2c-1-2.4,0-5.1-0.8-7.7c-0.9-2.8-0.8-5.9-1.7-8.6
		c-2.1-6.2-2.4-12.7-3-19c-0.8-8,1.6-15.8,2.9-24.1c-1.8-3.2-0.8-7.2-0.7-11.1c0-2.8,0.5-5.6,1.1-8.4c1-4.4,1.9-8.7,6.1-11.8
		c3.2-2.4,5.7-5.9,8.9-8.5c3-2.4,6.5-3.3,10.3-3c3,0.2,5.9-0.3,8.5-1.8c6-3.4,12.1-6.8,18.7-9.2c1.7-0.6,2.9-1.9,3.3-3.5
		c0.7-3.7,1.6-7.3,0.9-11.2c-0.7-3.6-1.1-7.2-1.6-10.8c-1.3-0.3-1.6,1.5-3.5,0.9c-1.1-2.6-3.1-5.4-3.3-8.8c-0.2-2.9,0.1-5.8,1.4-8.6
		c0.9-2,0.5-4.5,0-6.3c-0.5-1.6-0.5-2.8,0.1-4.2c0.2-0.4,0.5-0.9,0.5-1.3c-0.5-6.1,3.5-10.2,7.3-13.9c2.9-2.9,6.2-6.7,11.5-4.6
		c2.1-1.1,2.9-3.7,5.1-4.3c1.8,0.3,1.7,1.6,2,2.7c1.1-2,1.8-4.2,4.5-4.7c0.6,1.9-1,2.7-1.5,4.3c2.1-0.7,3.4-2.5,5.4-2.7
		c1.3,1,1.3,3.2,3.3,3.2c0.3,1.4-0.7,2.2-1,3.5c0.8,0.6,0.8,2.4,2.4,2.4c1.5,0,2.1,0.9,2.6,2c2.6,5.9,4.6,12.1,4.6,18.7
		c0,0.9-1,1.4-0.6,2.7c1.4,1.6,3.3,3.3,3.6,6.1c0.2,2.2,0.5,4.1-1.2,5.9c-1.3,1.3-1.5,3.1-1.1,4.4c-0.7,2.1-2.6,1.4-3.7,3.2
		c-0.3,7.6-0.5,15.7,2,23.7c0.6,1.9,2,2.6,3.7,2.8c5.4,0.9,10.4,2.7,15.4,4.9c3.3,1.4,6.9,2.4,10.6,2.3c4.6,0,7.8,2.4,10.8,5.6
		c9,9.3,11.3,21.1,12.7,33.3c0.3,2.2,0.7,4.4,1.7,6.4c3.9,7.9,6.2,16.3,5.3,25.2c-0.2,2.1,1,3.6,2,5.1c4.8,7.3,9.1,15,10.7,23.7
		c1.9,9.8,3.1,19.8,4.5,29.7c0.4,2.9-0.7,5.8,0.4,8.7c0.6,1.6,1,3.4,2,4.9c1.2,1.8,1.4,3.6,0.9,5.7c-0.7,3.2,0.3,6.3,0.7,9.4
		c0.7,5.2,1.2,10.5,2.6,15.6c0.1,0.4,0.2,1.1,0,1.4c-2.5,3.3-2.2,8.2-5.6,10.9c-5.2,4-10.9,7.3-17.4,8.6c-2.9,0.6-2.9-2.5-5-3.5
		c6.8-1.3,11.5-4.3,13.6-10.7c0.6-2,1.8-3.8,2.5-5.8c0.6-1.8,1.8-2.2,3.9-2.3c-2.5,2.7-3.5,5.5-4.6,8.3c-2.1,5.4-5.4,9.6-11.4,11.6
		c2.4,0.5,8.5-1.4,10.7-3.3c1.9-1.6,3.7-3.1,4-6c0.2-2,3.4-8.6,4.2-9.5c1.6,4.5-2.8,7.5-2.7,11.6c1.4,0,2.2-0.6,2.5-2
		c0.5-2.6,1.5-4.9,2.4-7.4c0.8-2.1,0.6-4.4,0.1-6.6c-1.1-4.8-2.2-9.6-2.7-14.6c-0.3-2.4-0.9-4.9,0-7.3c0.3-0.9-0.1-1.8-0.5-2.7
		c-3-5.7-4.4-11.8-3.8-18.3c0.2-2-0.7-4.2-1-6.3c-0.7-4.3-1.4-8.5-2.2-12.8l0.1,0.1c-0.1-7.1-2.6-13.6-5.4-20
		c-1.5-3.3-3.5-6.4-5.5-9.4c-1.8-2.6-2.6-5.5-2.8-8.6c-0.4-7.6-1.9-14.9-4.9-21.9c-1-2.3-3-3.9-3.9-6.2c2-3.9,0.8-7.8,0.3-11.7
		c-0.8-6.6-3.4-12.3-7.9-17.4c-2.8-3.1-4.7-7-9-8.3c-1.3-0.4-2.8-1.5-3.5,1.2c-0.6-2.2-2.2-3-3.7-2.9c-5,0.2-9-2.4-13.4-4.1
		c-0.9-0.3-1.7-0.6-3.2-1.2c0.4,9.4,0.8,18.5,0.7,27.4c1.5,0.9,2.4-0.9,3.7-0.2c-0.5,1.2-1.9,1.1-2.7,1.9c0.8,5.1,3.5,10,5.7,10.4
		c0.2,0.8-0.9,0.7-0.9,1.5c2.1,4,4.9,7.8,7.5,11.7c0.5,0.8,1.1,1.2,2.1,1l-0.1,0.1c-0.3-1.8,0.1-3.4,1.1-5c1.3-2.2,2.3-4.6,3.6-6.9
		c0.6-1.1,1.1-2.3,2.4-2.9c0.7,4.5-2.1,8.4-1.4,13c-0.6,0.8-0.9-1-1.9-0.2c-0.9,3,0.3,6.3,1.2,9.5c0.6,2.3,1.6,4.4,2,6.8
		c1,5.5,2.9,10.6,6.8,14.8c1.2,1.3,2.6,3,1.3,5.3c-2.3-1.8-8.5-11.4-10.6-16.5c-0.3,2.2-0.5,3.7-0.8,5.2c-0.5,2.9-1,5.9-2.6,8.4
		c-2,3.2-2.6,6.8-3,10.4c-0.7,8-1.3,16-2,23.9c-0.2,1.8,0.1,3.4,0.7,5.1c1.6,4.3,1.1,8.8,1,13.2c0,3.1,0.2,6.2,2.2,8.4
		c3.8,4,5.4,8.7,6.5,13.8c1.4,6.4,2,12.8,2.1,19.3c0.1,7.8,0.8,15.5,3.1,23c0.9,2.9,0.8,6,1,9.1c0.3,4.6,1.3,9.1,2.5,13.5
		c0.6,2.3,1,4.6,0.9,7c-0.1,5.6,1.1,11,2.4,16.4c0.4,1.7,1.1,3.4,0.1,5.1c-2.2,0.2-3.2-1.1-3.8-3c-0.7-2.3-1.3-4.5-1.2-7.1
		c-2.1,0.8-3.4,0.3-3.4-2.2c0.1-4.4-1.8-8.2-3.8-12c-1.9-3.4-2.5-7.3-4.4-10.7c-0.2-0.4-0.4-1-0.2-1.4c2.3-3.7,0.9-7.8,1.5-11.7
		c0.2-1.2,0.4-2.3,1.9-2.6c1.8,0.3,2,1.8,2,3.2c0.1,8.3,1.1,16.4,4.5,23c-2-7.2-3.4-15.6-3.8-24.2c-0.2-5.2-2.3-10.2-3.3-15.2
		c-1.5-7.2-0.4-14.5-0.8-21.7c-0.2-4.6-1.8-9-1.9-13.5c0-1.1-0.8-1.9-1.6-2.5c-2.2-1.5-3.8-3.5-5.6-5.4c-1.5-0.4-3,0.1-4.5,0.2
		c-4.1,0.3-8.2,1.2-12.3,1.5c-1.9,0.1-2.9-0.8-2.5-2.8c0,0-0.1-0.1-0.2-0.1c-2.4,0.1-1.4-2.7-3.6-3.6c1.2,1.1,1.5,2,1.1,3
		c-0.5,1.1-1.4,1.7-2.5,1.7c-2.7,0.2-5.3,1.2-7.9,0.1c-2,2-0.6,3.7-0.1,5.4c1.1,3.4,0.5,5.6-2.6,8.3c-3.3-3.4-1.5-8.7-4.3-12.3
		c-2,0.6-4,0.7-6.1,0.1c-1.9-0.5-4.2-1-6.1,0.5c-0.4,0.3-0.9,0.3-1.3,0.4c-4.9,0.5-4.8,0.5-5.3,5.4c-0.2,2.1-0.2,4.5-2.4,5.8
		c-2.1-0.2-2.2-1.7-2.3-3.1c-0.1-2.5-0.1-4.9,0.2-7.4c0.3-2.6-1.2-4.3-3.8-4.3c-2.6,0-5.1,0-7.7-0.1c-2.8,0-4.8-1.3-6.7-3.9
		c1.6,1.8,1.6,3.7,2.7,5.1c0.2,0.3,0.3,0.6,0.3,1c0,3.9,0.8,7.7,2.4,11.3c1.2,2.5,2.3,4.9,2.8,7.6c0.4,2,1.5,3.5,3.6,3.9
		c3.4,0.7,6.1,3,9,4.8c1.1,0.7,2.2,1.6,2.4,3c0.4,3.7,2.6,6.8,3.1,10.4c0.3,2.1,1.3,3.8,2.7,5.3c1.4,1.5,1.7,2.9,0.8,4.8
		c-1.2,2.7-0.8,5.1,1.8,6.8c1.1,0.7,1.6,1.8,1.2,3.1c-0.4,1.2-1.3,1.6-2.5,1.6c-0.4,0-0.7,0-1.1,0.1c-1.6,0.4-2.4,1.5-2.3,3.1
		c0.1,1.5,1.2,1.7,2.5,2c3.9,0.8,4.5,2.4,2.2,5.4c-0.5,0.7-1,1.3-0.9,2.2c0.4,4.4-0.8,8.6-1,13c-0.2,2.9-1.7,5.4-3.1,7.9
		c-3.9,6.9-9.7,10.9-17.2,12.7c-6.6,1.6-13.3,1.1-20,0.4c-1.9-0.2-3.5-1.2-5-2.5c-0.7-0.7-1.4-1.7-2.8-1.2c-0.1,1.8,1.3,2.3,2.6,2.7
		c9.6,3.5,19.6,5,29.7,5.8c4.4,0.3,8.6-1.2,13-1.6c1.5-0.1,2.6-1.2,3-2.7c0.9-3.1,2-6,2.3-9.6c-1.8,0.4-2.8,1.9-4.1,2.7
		c-1.5,0.9-3.1,1.4-4.5-0.2c-1.3-1.5-0.2-2.8,0.7-3.9c2-2.6,4.3-5.2,7.1-6.9c2.4-1.5,3.7-3.5,4.3-6.2c0.5-2.4,1.5-4.7,2.2-7.1
		c0.5-1.7,1.5-2.7,3.4-1.6c0.3,0.3,0.5,0.6,0.7,0.9c2.6,4.9,3.3,10.3,3.4,15.7c0.1,4.4,0.7,8.7,0.9,13c0.1,3.5,1.3,4.5,4.8,4.7
		c9.9,0.4,19.7,0.3,29.6-0.1c5.7-0.2,10.9-2.8,16.3-4.5c2.6-0.8,5.1-1.5,7.8-0.6c0.8,0.1,1.7,0.1,2,1.1c-0.9,1.4-2.7,1.3-4.3,2.8
		c-0.2,5.7-0.7,11.8,0.2,18c0.7,4.8,3.3,8.8,5.2,13c5.1,11,4.7,22.4,3.4,33.9c-0.6,5.7-0.8,11.5-2.3,17.1
		c-2.1,8.1-3.5,16.3-4.3,24.6c-0.2,2.5-0.2,4.9-0.1,7.3c5.3,2.6,6.1,5.1,3,8.8c-1.9-1.5-0.3-4.2-2-6.1c-2.1,0.2-4.4,0.4-6.6,0.7
		c-0.8,1.8,0.6,3.2,0.2,5.1c-2.6,1.9-6.7,1.1-8.7,3.6c-1.6,0.2-1.7-1.4-3.1-1.2c1.1,6.2-2.7,11.4-3.7,17.7c3.8,2.4,7.7,5.3,13.2,5.6
		c1.7,3.1,0.6,7.9,4.9,10.2c3.5,1.8,6.4,4.9,10.9,4.4c0.9-0.5-0.2-1,0.1-1.7c4.1-2.3,8.4-3.5,13.8-1.3c-2.3-0.2-3.9-0.3-5.5-0.4
		c-1.7-0.1-3.1,0.7-4.6,1.7c3.3-0.8,6.5,0.3,10-0.1c-0.4,1.5-1.5,1.8-2.4,1.9c-5,0.8-10.1,2.1-14.9,1.2c-5.6-1.1-10.5-4.5-13.4-9.9
		c-0.7-1.2,0.2-2.5-0.2-3.9c-2.2-0.7-4.4-1.3-6.6-2c-2.3-0.7-4.3-2-6-3.6c-1-0.9-1.9-2.1-1.2-3.4c1.9-3.3,1-7.5,3.4-10.7
		c0.6-0.8,0.3-1.8,0.2-2.8c-0.2-1.9-0.2-3.8,1.5-5.2c1.4-1.1,0.3-2.4,0.6-3.8C345.2,642.2,345.9,641.6,346.5,641.1L346.5,641.1z"/>
	<path d="M662.7,482.3c-0.1,0.7-0.1,1.6-0.4,2c-1.5,1.7-3.1,3.4-4.1,5.6c-0.4,0.9-1.6,1.5-2.7,1.6c-1.5,0.2-2.9,0.4-4.2,1.3
		c-1.6,1.1-3.2,0.2-4.4-1.1c-1.2-1.5-2.5-2.9-4.4-3.3c-0.2-1.7,0.3-3.2-0.1-4.7c-0.4-1.6,0.2-2.9,1.3-4.2c4.2-5.1,4.2-5.6,0.3-11
		c-2.5-3.4-4.6-6.8-4.7-12c-5.4,5.6-11,9.5-18,11.4c0.7,2.3,1.7,4.1,0.7,5.9c3.6,5.4,7.6,10.3,10,16.3c3.6,8.6,7.4,17,9.1,26.3
		c0.5,2.8,2,5.3,0.8,8.5c-0.5,1.4,0.5,3.4,1.2,5.1c2.2,5.1,3.3,10.3,2.2,15.8c-0.3,1.5,0.1,2.8,0.5,4.1c2.5,7.8,5.5,15.4,5.5,24
		c0,11.1-0.4,22.1-2.5,33c-1.7,8.9-2.9,17.9-4.4,27c4.5,2.5,2.9,6.2,1.7,9.9c2.6,2.7,3.9,6.1,5.6,9.3c2.6,5.1,4.2,10.7,7.4,15.6
		c2.3,3.5,2.3,7.6-0.6,10.9c-6.9,2.8-14,1.2-20.8,2.1c-4.7,0.6-8.4-1.7-11.1-5.6c-1.2-1.8-1.7-3.7-0.9-5.7c0.4-1.1,0.4-2,0.1-3.2
		c-2.4-1-4.6-2.4-6.1-4.6c-1.5-2.1-2.1-4.2-0.3-6.4c2.5-3.3,3.6-7,4-11c0.2-2,0.7-4.2,3-5c1.5-3.2,0.5-6.8,2.1-10.1
		c0.5-1.1,0.1-2.3-0.1-3.5c-2.1-9.5-3-19.3-6.9-28.4c-0.3-0.8-0.4-1.6-0.8-2.3c-6.5-10.9-5.4-22.8-4.8-34.6c0.1-2.5,1-5.1,1.6-7.6
		c0.7-2.9,0-5.2-2.5-7c-4.3-3.2-7.6-7.4-10.8-11.6c-2.6-3.4-5.5-6.4-8.6-9.5c-5.2,0-10.4,0-15.8,0c-0.4,0.9-1,2.4-1.7,3.7
		c-1.5,3-3.9,5-7.2,5.7c-6.1,1.3-11.9,0.5-17.4-2.3c-4.2-2.1-5.8-5.9-6.4-10.3c-0.1-1-0.1-2-0.6-3.2c-0.6,1.4-1.5,2.7-1.9,4.1
		c-1,3.5-3.5,4.4-6.7,4.3c-1.4,0-2.8-0.2-4.3-0.7c-1.7,2.9-3.3,5.7-3.8,9c-0.3,2.1-1.1,3.8-2.4,5.4c-2.9,3.5-6.7,6.1-10.3,9.1
		c6.4-8.6,13.3-16.9,15.8-28.1c-2.7-1.7-5.9-3.9-9.5-3.9c-9.6-0.2-19.3-0.1-28.9,3.6c-1,4.2-2.2,8.5-0.9,12.9c1.2,4,1.4,7.8,0,11.7
		l0.1-0.1c-1-0.5-1.3-1.4-1.4-2.3c-0.3-7.2-2.2-14.5-0.2-21.7c2.6-9.5,1.5-19.6,4.8-29c1-2.9,1.3-6,2.9-8.7c0.9-1.6-0.9-2.8,0-4.4
		c1.3-2.2,2.4-4.6,3.9-6.7c1-1.5,2.1-2.8,1.8-4.8c-0.1-1,0.4-1.8,1.1-2.5c4.1-3.7,6.5-8.1,5.9-13.9c-0.3-2.4,0.5-4.2,3.3-4.4
		c0.5-2.3,0.9-4.6,1.2-6.9c0.6-3.9,3.1-6.5,6.7-8c1.1-0.5,2.1-0.8,2.9-1.8c4.1-5.1,9.7-8.3,15.4-11c5.2-2.4,9.6-5.8,14.4-8.9
		c2.5-1.6,4.9-3.1,7.5-4.5c0.6-1.9,0.5-3.8,1.7-5.4c0.7-1,0.2-2-0.2-3c-0.9-2.2-1.1-4.5-0.5-6.9c0.8-4,1.4-8.1,2.3-12.1
		c0.2-0.9-0.7-1.5-0.4-2.1c2.9-3.7,7.7-4.4,10.6-7.9c-1-1-2.9-0.9-3.2-2.8c0.8-0.6,1.7-1.3,2.5-2c1.2,0,1.2,1.4,2.3,1.9
		c0.3-3.3,4.6-1.2,4.8-4.3c3.2,0.9,1,2.9,1.5,4.3c8.5-3.7,14.2,2.3,20.4,6.1c2.8,1.7,5.6,2.1,8.9,2.4c-0.3,1.5-0.6,3.2,1.4,3.2
		c0.3,1.5-0.8,1.8-1.2,2.5c0.3,0.7,1.5,0,1.6,1.1c-0.1,1.5-1.8,1.9-2.6,3.2c1.1,3.6,2.6,7.1,2,11.2c-0.2,1.8,1.6,3.5,3.8,3.8
		c3.2,0.3,6.2,1.2,9,2.9c1.9,1.1,4,1.1,6.1,1.4c3.3,0.4,6.6,0.9,8.9,3.6c0.6,0.7,1.4,0.9,2.2,1.1c12.5,2.8,17.7,14.6,15.2,25
		c-0.1,0.5-0.5,0.9-0.4,1.3c1,3.8-0.9,6.8-2.9,9.8c0.4,0.6,0.8,1.2,1.3,1.8c1.7,2.2,2.4,4.3,2.1,7.4c-0.5,3.9-0.1,8-0.8,11.9
		c-0.4,2.3-0.7,4.6-0.5,7.2c3.5,1,2.8,4.6,4,7.1C664.3,481.5,663.8,482.4,662.7,482.3c-5.6-6.5-8.6-8.8-5-18c0.4-1,0.4-2,0.1-3
		c-0.5-1.5-0.5-3-0.2-4.5c0.7-3.1,0.2-5.8-2-8.2c-0.9-1-1.1-2.1-0.5-3.4c-1.6,3.3-5.2,4.2-7.8,6.4c-4.4,4-5.2,7.8-1.8,12.8
		c1.4,2,2.9,4,3.9,6.3c0.9,2.1,1.5,4.2,1.3,6.5c-0.1,1.8-0.6,3.2-2.5,3.9c-2.2,0.7-2.6,2.3-1.9,4.2c0.7,1.9,2,3.8,4.4,3.4
		s4.7-0.8,6.3-3.3C658.2,483.5,659.8,481.3,662.7,482.3z"/>
	<path d="M493.5,549.6c-0.5,6.2-2.4,11.9-4.7,17.7c-2.8,6.9-2,14.1-0.7,21.3c1.8,9.8,3.5,19.6,7.1,29.1c2.4,6.3,2.6,13.4,4.6,19.9
		c0.2,0.5,0.3,1.1,0.4,1.7c2.2,0.6,4.3,0.2,6.2,0.9c1.2-1.5-0.2-3,0.7-4.3c2.6,2.1,0.5,4.9,1,6.9c1.3,1.1,2,0,3,0.2
		c0-0.6,0-0.9,0-1.3c-2.2-12.2-1.6-24.3,0.7-36.4c1.2-6.3,3.1-12.3,5-18.3c2.2-7.2,2-14.4,0.5-21.7c-0.9-4.4-1.5-8.8-0.2-13.4
		c1.3,0.6,1.2,1.7,1.4,2.6c0.9,6.2,1.9,12.3,2.7,18.5c0.8,6.5,0.3,12.8-2.6,19c-1.9,4.1-2.8,8.7-3.5,13.3c-0.4,2.8-1,5.6-1.8,8.3
		c-2,7.1-1.6,14.1-0.9,21.3c0.4,4.4,1.9,8.1,3,12.2c1.5,5.3,3.3,10.2,6.2,14.8c1.5,2.3,0.8,4.8-0.9,6.5s-2.9,4-5.4,4.7
		c-0.1,1.7,0.8,2.9,1.3,4.2c1.7,4.8-1.7,10.2-6.7,10.6c-5.3,0.4-10.5,0.8-15.8,1c-6.8,0.2-9-1.9-9.6-8.7c-0.6-6.7,2.8-12.2,4.7-18.2
		c1.8-5.5,5-10.8,3.3-17.1c-0.8-3,0.7-4.3,5.4-5.8c-2.8-7.5-2-15.7-4.9-23.2c-4.1-10.7-6.2-21.9-7.8-33.3c-0.8-6.2-0.2-12.3,2-18.1
		c1.7-4.5,4.4-8.7,4.5-13.8C491.6,549.3,492.5,548.9,493.5,549.6L493.5,549.6z"/>
	<path d="M373.7,449.3c6.4-2.1,6.6-8.1,9.2-12.4c4.7,7.5,0,20.2-8.3,22.8c-0.8-0.9-0.1-1.5,0.5-2.1c1.3-1.4,2.6-2.7,3.9-4.1
		c4.4-4.4,4.8-5.3,4-12.1c0,5.3-3.3,8.1-7.5,10c-1.7,0.8-3.2-0.1-4.5-1.5c1.1-2.4,1.6-5,3.1-7.3c1-1.5,1.5-3.2,1.6-5
		c0.4-6.3,1.3-12.5,6.7-16.8c-3.3-9.4-6.1-18.6-12.1-26.5c-3.7-4.8-6.6-10-7.7-16.1c-0.5-3.1-1.9-6.1-2.8-9.1
		c-1.2-4.2-1.4-8.5-1.8-13c2.2,0.5,2.2,2.2,2.5,3.4c1.1,6.3,4,12,5.6,18.2c0.8,3.2,2.4,6.1,4.1,8.9c5.6,9.7,10.8,19.6,13.4,30.6
		c0.2,0.9,0.8,1,1.3,1.3c-0.2,2.4-1.3,4.3-2.9,5.9c-3,3-2.9,7.1-3.8,10.8c-0.8,3.8-1.1,7.6-3.5,10.8
		C374.3,446.8,374.2,447.8,373.7,449.3z"/>
	<path d="M346.6,641c-1.6-1.1-1.5-2.8-1.3-4.5c0.5-5.9,0.3-11.7-0.7-17.6c-0.8-4.6-3.6-8.5-4.7-12.9c-1.5-6.3-4.4-12.1-6.7-18
		c-0.7-1.9-1.1-3.9-1.3-5.9c-0.6-8.2-1.5-16.4,0.1-24.6c0.5-2.7,0.8-5.5-0.5-8.3c3.3,1.5,1.3,5.9,4.4,7.5c-0.6,0.5-1.3,0.4-1.4,1.4
		c-0.6,8.8-1.3,17.7,0.9,26.4c2,8.2,4.8,16.2,8.2,24c3.1,7.2,4.2,15,3.9,22.8C347.4,634.6,348,637.9,346.6,641L346.6,641z"/>
	<path d="M243.8,656.1c-4.4,1.2-8.2-0.8-11.9,0.4c2.9,1,6.1,0,8.9,1.9c-3.3,1.7-6.7,0.8-10.2,0.7c2.7,1.2,5.9,0.4,8.5,2.1
		c0.1,1.8-2.8,1.6-1.7,3.6c-3.3,0.3-5.9,0.5-8.7-0.9c2.2-1.9,4.6-0.6,7.5-1.3c-2.8-0.6-5-0.8-7.2-1.9c-1.9,3.1-4.2,5.7-6.6,8.3
		c-2.5,2.7-3.3,6.2-4,9.7c-0.3,1.7,1.1,3,1.8,4.3c-1.7,1.3-2.4,0.2-2.8-0.9c-1-2.2-1.3-4.5-0.6-6.9c0.8-2.9,2-5.7,4.3-7.6
		c4.4-3.7,6.7-8.7,9.1-13.6c1.1-2.2,2.4-4.3,4-6c4.4,0.6,9.2-1.7,12.7,3c-4.3,0.2-8.3-1.2-12.3-0.3c3.4,1,7.2-0.2,10.4,1.9
		c-3.9,1.1-7.9-0.4-11.7,1C236.5,654.8,240.4,653.1,243.8,656.1z"/>
	<path d="M792.7,646.8c4.1,0.7,8.7-1.2,12.2,3.3c-4.3,0.1-8.3-1.5-12.3-0.4c3.5,0.4,7-0.1,10.9,1.8c-4.3,1.9-8.6-1.1-12.3,1.2
		c3,0.1,6,0,8.9,0.9c0.5,0.2,0.8,0.5,1.2,1.4c-3.7,1.2-7.4-1-11,0.2c2.7,0.9,5.7,0.2,9,2c-3.8,1.8-7.3,0.1-10.7,0.8
		c2.8,0.5,5.7,0.4,8.5,1.8c-0.5,1.5-2.1,2.1-2.3,3.5c-4.3,0.4-5.3,0.2-7.9-1.5c1.9-1,3.8-0.1,5.9-0.7c-2.1-0.7-3.9-1.2-5.8-1.8
		c-1.9,2.9-4.2,5.3-6.6,7.8c-2.4,2.4-3.2,5.7-4,8.9c-0.5,1.9,0.7,3.3,1.8,4.8c-2.4,0.9-2.9-0.6-3.3-1.9c-1.6-5.3,0.5-9.7,4.2-13.1
		c4.2-3.9,6.8-8.6,9.4-13.5C789.8,650.3,791,648.3,792.7,646.8z"/>
	<path d="M373.5,660.3c-3.6,0.8-6.7,2.8-11,1.5c3-2.7,6.3-2.1,9.2-3c-3.4-0.7-6.9,1.4-10.2-0.5c2.7-1.7,5.9-1.3,9.1-1.9
		c-2-2.3-4-0.3-5.8-0.4c-1.9-0.1-3.8,1-5.9,0.2c1.6-2,1.6-2,10.2-2.9c-3.9-1.6-8,0.6-12.1-0.2c1.6-1.9,5.5-2.7,11-2.1
		c-2-2.6-4.2-0.6-6.2-0.6c-2.1,0-4.3,0.6-7.1,1c3.7-4.8,8.5-3.2,12.8-3.9c3.8,3.3,5.2,8.2,8.1,12.2c1.6,2.3,3.3,4.5,5.5,6.4
		c4.1,3.5,6.3,7.9,5.3,13.5c-0.3,1.5-0.6,3.3-3,2.7c2.1-4.7,0.8-10.8-3.4-14.7C377.5,665.3,375.4,663,373.5,660.3z"/>
	<path d="M922.4,660.6c-2-0.3-4.2,0.9-6.4-1.2c3.1-1.6,6.2-0.7,9.8-1.5c-4.3-1.9-8.1,0.8-12.4-0.6c3.5-2.7,7.2-1.8,10.5-2.2
		c-3.8-1.7-7.8,0-11.8-0.6c1.8-2,2.8-2.2,10.4-2.1c-1.6-1.1-1.6-1-5.6-0.4c-2,0.3-4.1,0.4-6.7,0.7c3.5-4.6,8.2-2.8,12.5-3.4
		c3.6,3.1,4.8,8.1,7.5,12c1.6,2.2,3,4.4,5.1,6.2c3.9,3.5,6.1,7.8,5,13.2c-0.3,1.5-0.6,3.3-3.1,2.7c3.2-5.7,0.4-10.1-2.8-14.1
		c-2-2.5-4.3-4.6-6.1-7.3c-3.4,0.4-6.4,2.5-10,1.4C918.3,660.4,921.5,662.3,922.4,660.6L922.4,660.6L922.4,660.6z"/>
	<path d="M822.7,247c-0.3-0.6-0.8-1.3-0.8-1.9c0.1-7.2-2.5-13.8-3.8-20.7c-0.8-4.2-2.2-8.1-3.8-12c-0.5-1.2-1.3-2.5-0.5-3.9
		c0.7-0.1,1.1,0,1.3,0.5c4.2,8.9,7.1,18.2,8.1,28C823.5,240.3,823.5,243.7,822.7,247L822.7,247z"/>
	<path d="M343.3,535.7c0.6,3,0.8,6,3,8.4c1,1.1,1,2.8-0.3,4.3c-1.5-3.8-5.7-6.6-3.5-11.4c-1.6-2-4.7-0.6-5.9-3.3
		c2-0.5,3.9-0.6,5.7-0.3c1.7-0.9,2.4-3.1,4.8-3.2C347.3,533.2,344.5,534,343.3,535.7z"/>
	<path d="M900.4,537.5c1.5-1,2.4-2.7,4.5-3.2c0.4,3-2,3.8-3.6,5.4c0.7,2.6,0.4,5.5,2.5,7.9c1.4,1.6,1,2.6-0.4,4.9
		c-1.3-4.1-5.1-7.1-3-11.8c-1.7-1.5-4.2-0.7-5.6-2.8C896.8,537.1,898.7,537.4,900.4,537.5z"/>
	<path d="M509.1,543.8c-2.3,0.6-1.5,3.7-3.7,4.3c0-5.1,0-10.2,0-15.3C506.2,536.7,507.2,540.4,509.1,543.8z"/>
	<path d="M371.5,372.1c-0.5-5.2-2.3-10.4,0.2-16C372.6,357.7,372.6,368.2,371.5,372.1z"/>
	<path d="M351.5,330.8c2.5,4.7,2.1,10.4,4.7,15c-3.9-4.1-4.4-9.6-6.4-14.5C350.4,331.1,351,331,351.5,330.8z"/>
	<path d="M804.5,264.6c4.7,3.1,7.1,6.8,6.3,9.8C809.4,273.3,806,268.1,804.5,264.6z"/>
	<path d="M358.7,546.8c-0.2,4.3-1.9,8.2-3.4,12.2c-1.1-0.5-0.9-1.4-0.7-1.9c1.1-2.9,1.5-5.9,1.9-8.9
		C356.8,547.1,357,545.7,358.7,546.8L358.7,546.8z"/>
	<path d="M806.6,204.2c1.8-5.8-1.3-10.4-1.7-16.2C808.4,193.1,809.3,201.1,806.6,204.2z"/>
	<path d="M804,220.3c1.7,3.8,1.6,7.8,0.8,11.8C803.4,228.3,803.6,224.3,804,220.3z"/>
	<path d="M510.5,574.4c0.4-4,1.2-7.8,3.2-11.4C514.1,567.2,513.2,571,510.5,574.4L510.5,574.4z"/>
	<path d="M807.9,241.4c-3-2.5-3.7-5.1-2.6-8.3C807.8,235.4,808.1,238,807.9,241.4z"/>
	<path d="M365.6,324.1c-1.4-1.3-1.5-3.1-1.8-4.8c-0.4-2.2-0.4-4.4-2.5-6.5c2.2-0.2,3.2,0.4,3.4,2.1c0.3,3,1.3,5.9,1.2,9
		C365.8,324,365.7,324,365.6,324.1z"/>
	<path d="M502,561.7c-1.3-3.4-1.9-6.8,1.3-9.6C502.7,555.3,502.7,558.5,502,561.7z"/>
	<path d="M364.5,662.8c3.5,0.2,6.3-1.2,9.4,0C370.5,664.9,367,665.1,364.5,662.8z"/>
	<path d="M347.8,543.6c2.4-2.9,4.5-3.1,7.9-1.4C353.3,543.4,350.9,543.5,347.8,543.6z"/>
	<path d="M365.9,323.9c2.5,2.4,1.9,5.7,2.4,8.7c-1-2.8-3.4-5.2-2.7-8.5C365.7,324,365.8,324,365.9,323.9z"/>
	<path d="M928.5,664.5c-3.8,1.8-6.9,1.8-9.1-0.1C922.6,664.1,925.4,663.4,928.5,664.5z"/>
	<path d="M344.5,575.5c-1.7-2.6-2.4-5.4-2.2-8.5C344.4,569.5,343.9,572.7,344.5,575.5z"/>
	<path d="M389.8,377c0,2.8,0,5.7,0,8.5c-0.4,0-0.8,0-1.2,0c-0.2-2.7-0.3-5.4-0.5-7.8C388.8,376.6,389.4,377.2,389.8,377L389.8,377z"
		/>
	<path d="M913.3,546.5c-2.3,0.9-4.5,1.1-6.9,1.1C907.4,544.9,910.2,544.4,913.3,546.5z"/>
	<path d="M901.7,579c-1.5-2.7-2.4-5.5-1.9-8.6C901.7,573,901.4,576,901.7,579z"/>
	<path d="M810.7,205.2c-1.2,2.8-2.5,5.5-6.3,7.1C806.7,209.4,808.3,206.9,810.7,205.2z"/>
	<path d="M902.3,587.2c1.3,2.8,2.5,5.5,0.8,8.5C902.8,592.9,902.5,590.1,902.3,587.2z"/>
	<path d="M345.1,584.2c1.6,2.8,2.4,5.8,1.1,9C345.9,590.3,345.7,587.2,345.1,584.2z"/>
	<path d="M793.8,140.3c-0.9-2.4-0.9-4.6,0.6-6.7C794.8,135.9,794.9,138.2,793.8,140.3z"/>
	<path d="M493.6,549.7c0-1,0-2,0.1-3l-0.1,0.1c2.4,2.6,1.6,6,2.2,9.1c-1.3-0.7-1.8-1.8-1.5-3C494.6,551.6,494.2,550.6,493.6,549.7
		L493.6,549.7z"/>
	<path d="M393,433.2c-1.8-3-0.8-6.5-1.7-9.6C393.3,426.6,392.2,430.1,393,433.2z"/>
	<path d="M798.9,208.7c-1.4,2.8-3.4,3.6-5.8,3.7C794.7,211,796.1,209.2,798.9,208.7z"/>
	<path d="M234.2,666.5c-2.4,1.5-4.1,1.5-6.1-0.6C230.4,666.1,232.1,665.1,234.2,666.5z"/>
	<path d="M335.8,279.7c-2.2,1.2-4.5,2.6-7.9,2.5C330.7,280.4,333.2,279.9,335.8,279.7z"/>
	<path d="M368.8,358c-0.2-2.4,0.6-4.4,2-6.4C371.9,353.6,371.7,354.5,368.8,358z"/>
	<path d="M496.3,545.8c1.6-0.4,3.2-1.4,5.7-0.3C499.7,547.5,498,547.1,496.3,545.8z"/>
	<path d="M373.9,664.9c-1.4,2.3-3.1,2.7-5.4,1C370.2,664,372.3,666.3,373.9,664.9z"/>
	<path d="M815.1,283.5c-2.2,1-4.1-0.5-6.4-0.5C811.7,281.1,812.6,281.2,815.1,283.5L815.1,283.5z"/>
	<path d="M928.4,666.6c-1.5,2.1-3.1,2.4-5.3,0.6C924.9,665.8,926.8,667.5,928.4,666.6z"/>
	<path d="M363,359.1c2.4-1.4,2.4-1.4,4.3-0.1C364.9,360.3,364.9,360.3,363,359.1z"/>
	<path d="M817.2,291.4c-1.9-2.3-1.9-5.1-2.1-7.9l-0.1,0.1C817.2,285.8,816.9,288.7,817.2,291.4L817.2,291.4z"/>
	<path d="M786.1,663.9c2.3,0.6,4-0.1,6,0.7C790,666.4,788.4,666.3,786.1,663.9z"/>
	<path d="M905.7,557.2c-3.2-1.1-3.2-1.1-2.7-4.2C904,554.6,904.8,555.9,905.7,557.2z"/>
	<path d="M510.4,574.3c1,1.7,0.4,3.1-1.1,4.8C508.8,577,508.6,575.4,510.4,574.3L510.4,574.3z"/>
	<path d="M348,553.6c-2.3-0.4-3.4-1.6-2.9-3.9C346.2,550.8,347,552.3,348,553.6z"/>
	<path d="M345,274.4c-1,1.8-2.4,2.4-3.7,3C341.5,275.5,342.7,274.7,345,274.4z"/>
	<path d="M349.6,322.6c1.1,1.9,1.7,3,0.8,4.7C349.1,326.1,349.1,324.8,349.6,322.6z"/>
	<path d="M804.7,263.6c-1.5-0.6-1.7-1.7-2.3-3.4C804.2,261,805.1,261.7,804.7,263.6z"/>
	<path d="M496,533.8c-0.1-1.6,0.8-2.8,1.9-3.8C497.5,531.4,497.2,532.8,496,533.8z"/>
	<path d="M495.8,562.8c-1.1-1.3-1.3-2.4-0.9-4.1C496.2,560.1,496.6,561.1,495.8,562.8z"/>
	<path d="M806.1,279.5c0.1-1.2,0.3-2.3,1.8-3C808.4,278.3,807.2,278.9,806.1,279.5z"/>
	<path d="M907,642.3c-0.3-1.6-0.3-2.7,0.7-3.6C908.2,640.4,908.2,640.4,907,642.3z"/>
	<path d="M811.6,256.4c-0.5-1.7-0.7-2.7-0.1-3.9C812.5,253.9,812.5,253.9,811.6,256.4z"/>
	<path d="M372.6,374.4c1.6,1,0.9,2.3,1.3,3.2C372.5,377.1,371.8,376.2,372.6,374.4z"/>
	<path d="M799.7,256.9c-1.4-0.7-1.2-1.9-1.7-3.7C799.9,254.4,799.8,255.7,799.7,256.9z"/>
	<path d="M393.5,439c-1.1-1.5-0.9-2.5,0.2-3.6C394.4,436.6,394.6,437.6,393.5,439z"/>
	<path d="M824.4,143c1.6-0.3,2.6-0.2,3.3,1C826.4,144.5,825.5,144.1,824.4,143z"/>
	<path d="M352.1,637.2c0.4,1.1,0.9,2.3-0.8,3.4C350.8,639.2,351.4,638.2,352.1,637.2z"/>
	<path d="M390.6,393.9c-1-1.5-1.7-2.5-1.1-4C390.7,390.9,390.7,392,390.6,393.9z"/>
	<path d="M338.7,561.5c1.2,0.8,1.7,1.5,1.6,2.7C339.3,563.6,338.9,562.9,338.7,561.5z"/>
	<path d="M822.5,141.7c-1.2-0.3-1.9-0.9-1.7-2c0.2-0.1,0.4-0.4,0.6-0.4C822.9,139.6,822.1,140.9,822.5,141.7z"/>
	<path d="M792.7,146.6c0.5,1.5,0.4,2.1-0.7,2.4C791.3,148,792,147.5,792.7,146.6z"/>
	<path d="M362.4,309.2c1.5,0,1.9,0.7,1.9,2C363.2,311,362.4,310.7,362.4,309.2z"/>
	<path d="M385.4,416c-0.9-0.7-0.5-1.4-0.2-2.3C386.4,414.4,386.7,415.1,385.4,416z"/>
	<path d="M913,567.8c0.7,1.2,0.2,1.8-0.7,2.3C911.8,569.1,912.1,568.5,913,567.8z"/>
	<path d="M375.4,383.5c-0.7-0.3-1-0.8-0.8-1.6C375.5,382.4,375.5,382.4,375.4,383.5z"/>
	<path d="M355.6,564.1c1,0.9,0.5,1.6-0.2,2.4C354.7,565.5,355,564.9,355.6,564.1z"/>
	<path d="M807.9,243.6c1.1,0.3,1.6,0.9,1.1,1.9C807.6,245.5,807.8,244.5,807.9,243.6z"/>
	<path d="M495.9,567.9c-0.7-0.2-0.9-0.6-0.7-1.1c0.1-0.3,0.5-0.4,0.8-0.2C496.4,567,496.4,567.4,495.9,567.9z"/>
	<path d="M508.8,582.7c0.5,0.9,0.6,1.5-0.2,2.3C507.8,584.1,507.7,583.5,508.8,582.7z"/>
	<path d="M495.9,615.1c-0.7-0.8-0.7-1.3-0.1-1.7C496.5,613.8,496.3,614.3,495.9,615.1z"/>
	<path d="M351.9,618c0.8,0.8,0.4,1.5,0.4,2.8C351.5,619.6,351.6,618.9,351.9,618z"/>
	<path d="M908,622.4c-0.5-0.6-0.5-1.3,0.1-2.2C908.5,621.1,908.7,621.8,908,622.4z"/>
	<path d="M795,216.2c-0.5-1.1,0-1.4,0.6-1.8C796.1,215.3,796,215.8,795,216.2z"/>
	<path d="M513.2,544.9c-0.4,0.7-0.9,1.2-1.9,0.8C511.5,544.7,512.1,544.6,513.2,544.9z"/>
	<path d="M908.8,552.3c0.2-0.7,0.5-1,1.1-0.8c0.1,0.1,0.3,0.4,0.3,0.6C909.9,552.5,909.5,552.6,908.8,552.3z"/>
	<path d="M907.6,669.1c-1,0.1-1.1-0.4-1.1-1.1C907.1,667.8,907.4,668.3,907.6,669.1z"/>
	<path d="M806.3,183.5c-0.7-0.7-0.4-1.1-0.3-1.8C806.7,182.4,806.4,182.8,806.3,183.5z"/>
	<path d="M506.7,527.5c0.2-0.1,0.3-0.4,0.5-0.4c0.5,0,0.5,0.3,0.4,0.7c-0.1,0.3-0.3,0.4-0.5,0.2
		C506.9,527.9,506.8,527.7,506.7,527.5z"/>
	<path d="M348.5,320.5c1.5,0.2,0.9,0.9,1.1,1.5C348.3,321.7,348.7,321.1,348.5,320.5z"/>
	<path d="M806.8,175.8c0.5,0.6,0.6,1.1,0,1.9C806.2,177,806,176.4,806.8,175.8z"/>
	<path d="M250.1,667.9c-0.2-0.8,0.3-1,0.9-1.1C251.3,667.8,251,668,250.1,667.9z"/>
	<path d="M897.2,566.1c0.6,0.1,0.7,0.6,0.8,1C896.9,567.4,897,566.8,897.2,566.1z"/>
	<path d="M352.7,547.8c-0.6,0.7-1,0.9-1.5,0.2C351.4,547.2,351.9,547.3,352.7,547.8z"/>
	<path d="M817.1,291.4c0.5,0.4,0.5,0.9,0.4,1.6C816.9,292.5,817.2,291.9,817.1,291.4L817.1,291.4z"/>
	<path d="M507.4,591.3c-0.8-0.8-0.8-1.2-0.1-1.6C508,590.1,507.7,590.6,507.4,591.3z"/>
	<path d="M366.3,307.3c-0.8-0.6-0.4-1.1-0.3-1.7C366.8,306.3,366.6,306.7,366.3,307.3z"/>
	<path d="M824.1,309.2c-0.4-0.4-0.7-0.8-1.2-1.3C824.3,307.7,824,308.6,824.1,309.2L824.1,309.2z"/>
	<path d="M360.3,309.5c-0.7,0.8-1.1,0.5-1.5,0C359.1,308.5,359.6,309,360.3,309.5z"/>
	<path fill="#FFFFFF" d="M914.4,510c1.3,0.6,1.4,1.7,1.6,2.9c0.8,4,1.6,8.1,2.5,12.4c-10.3,2.9-20.3,8-31.7,5.5
		c-7.9,2.1-15.9-1.9-23.8,0.4c-0.4,0.1-0.9-0.1-1.8-0.1c-0.3-6-0.9-11.9-1-17.9c-0.1-5.9-0.7-11.7-2.5-17.4c1.6-0.1,2.5,1.4,4,1.6
		c-1.4-0.2-2.4-1.7-4-1.6c-0.8-0.2-1.4,0.1-1.4,1c0,1.1-0.5,2.1-0.7,3.1c-1.2,6-4.1,10.7-9.7,13.6c-2.2,1.1-4.3,2.9-5.3,5.9
		c4.9,0.2,6.8-4.6,10.8-5.9c-0.6,6.3-2.6,12-4.4,17.7c-17.4,2.9-33.8-0.2-49.8-6.7c-0.7-1.7-0.1-3.5,0.2-5.2
		c0.8-5.5,0.8-11-0.7-16.4c-1.2-4.1-0.8-8.1,0.1-12.2c3.3-14.6,6.5-29.2,9.8-43.8c1.6-7.2,3.3-14.4,5-21.7c1-4.2,3.1-7.9,4.7-11.7
		c1.5-3.4,2.2-6.9,1.3-10.3c-2-7.3-2-14.7-1.7-22.1c0.3-6,0.3-12-0.9-17.9c-0.2-0.8-0.1-1.6-0.2-2.4c0.9-0.6,1.4,0.8,2.7,0.1
		c-3-2.3-3-5.3-2.7-8.7c0.5-5,0.1-10.3-1.5-15c-1.5-4.2-0.8-8.5-2.8-12.6c5.8-3.7,10.7-8,15-12.4c1.3-0.4,1.6,0.6,2.3,0.7
		c0.1-0.1,0.2-0.2,0.2-0.2c-0.6-6,4.5-9.6,6-14.8c1.5-5.3,3.4-10.5,4.9-15.8c0.9-3.1,2.4-6,2.4-9.4c0-1.1,0.3-2.6,1.7-3.6
		c0.1,2.3-0.1,4.4-0.7,6.4c-2.5,8.7-0.9,17.3,0.9,25.8c1,4.7,5.7,7.2,11.8,7c4.2-0.1,8.4-0.5,12.6-0.7c3.7-0.2,6.2-2.5,8.8-4.8
		c6.5-5.9,10.2-13,10.2-22c0-2.5,0.8-5.1,1.2-7.6c1.3-0.2,2.1,0.7,2.9,1.2c-3.7,17.3-7.9,34.6,0.3,51.6c-1.2,1.3-2.8,0-4.5,1.5
		c6.5-0.3,8.4,4.5,11.1,8.3c1,1.4,2.2,2.8,3.6,4.5c-0.4,3.5-0.9,7.3-1.4,11c-2.6,2.2-5.8,2.9-8.3,4.9c2.8,0.2,5.1-1.4,8-2.5
		c-0.3,4.3-0.4,8.4-0.8,12.4c-0.4,4.1-0.7,8.2,0.2,12.3c0.4,1.9-0.3,3.7-0.5,5.6c-0.7,7,0.2,14.1-1,21.1c-0.3,1.7,2.4,3,0.3,5
		c-1.2,0.1-2.7,0.5-4.2,0.4c-12.5-0.8-24.9,1.3-37.4,0.6c-5.6-0.3-11.2-0.8-16.9-0.1c-2.2,0.3-4.4-0.2-6.5-1.2
		c-3.8-1.7-7.9-2-12.4-2.1c1.5,2.5-1,4.4-0.3,6.7c1.6,0.7,3.7-0.5,5,1.6c1.5-0.3,3.1-3.4,4.5,0.3c1.3-1.1,2.7-2.8,3.9,0.3
		c1.1-1.4,2.4-1.7,3.8-1.1c0.8,0.6,0.3,1.6,0.8,2.3c1.1-0.2,1.2-2.7,3.1-1.2c-1.9,4.3-2,8.8-1.8,13.8c0.5-1.3,0.9-2.1,1.1-3
		c0.2-0.9,0.3-1.9,0.3-2.8c0.1-2.7,0.9-5.1,3.4-6.9c1,0.6,1.6,2.3,3.2,2.8c1.3-0.4,0.5-2.5,2-2.9c1.4-0.4,2.2,1.3,3.5,1.3
		c1.4,0.4,1.7-1.7,3-1.4c1.5,0.4,0.4,2.4,2,2.9c0.9-0.7-0.2-1.9,0.6-2.8c1-0.4,2.1-0.1,3.6,0.2c1.4,4.3,2.5,8.8,2.7,13.7
		c0.8-1.1,0.2-2.3,0.7-3.4c0.2-0.4,1.1,1,1.2-1.2c-0.3-2.2-1.9-5-2.8-8.3c4.5-0.9,9.1,0.5,13.9-1.3c-2-1.5-4.4,0.6-5.5-2
		c2.2-0.5,4.2-1.8,6.4-1c1,1.2,0.1,2.7,1.1,3.7c1.1-0.2,0.6-1.8,1.7-2l0.1,0.1c0.9,1.2,2.6,0.5,3.6,1.5l-0.1-0.1
		c-1.2,1.3-3.5,0.5-4.9,2.9c6.8-1,13.2-0.8,19.7-2c2,2.7,4,5.3,6.4,7.8c0.5,0.5,0.6,1.2,0.7,1.9c1.1,9.6,2.3,19.1,2,28.8
		c-0.2,5.4,0.5,10.8,2.2,16c0.8,2.6,1.2,5.2,1.2,8c0,5.5,0.8,11,2.3,16.4c0.9,3.2,0.9,6.4,0.7,10.1c-5.3-8.1-7.1-16.8-7.3-25.8
		c-0.3,0-0.5,0.1-0.8,0.1c0.1,1.3,0.3,2.5,0.4,3.8c0.1,1.4,0.2,2.8,0.3,4.2c0,0.7,0.3,1.6-1,1.2l0.1-0.1c1.1,3.8,1.9,7.6,3.9,11.1
		c1.4,2.5,2.3,5.3,3.4,7.9c0.1,0.5,0.1,1.1,0.1,1.6C914.4,511.1,914.3,510.5,914.4,510z"/>
	<path fill="#FFFFFF" d="M924.8,352.7c-8.3-4.2-13.7-10.9-17.2-19.4c-0.5-1.3-0.9-2.6-0.6-4.1c0.4-2,1.2-3.8,0.6-6.1
		c-0.3-1.2,0.6-2.9,1.8-4c1.8-1.6,2.6-3.8,2.7-6.3c-3.5,2-4.1,6.5-7.4,8.5c-3.3,2-6.6,4.1-10.7,3.7c-4.8-7.2-5.6-21.7-2.5-39.6
		c0.6-1,1.9-0.9,2.7-1.6c-0.3-1.3-1.6,0.1-2.1-1.3c0-0.2,0-1.1,0.1-1.9c0.2-1.7,0.5-3.4,0.9-5.5c3.8,2.5,8.1,3,12,4.2
		c0.3,0.9-0.9,1.3-0.4,2.1c0.2,0.1,0.4,0.3,0.6,0.3c4.7-1.8,9-1.1,12.4,3.3c3.2,4.1,6.9,8.1,7.9,13.6c0.1,0.7,0.4,1.4,0.4,2.1
		c0.2,6.8,3,12.8,6.7,18.3c3.2,4.8,5.9,9.7,7.1,15.2c1,4.7,3.6,8.4,7.2,11c7.9,5.8,10.4,14.2,12.3,23c1,4.6,1.5,9.3,5.1,12.9
		c0.8,0.8,0.8,2,0.8,3c-0.4,5.7,1.4,10.9,3.7,16c0.8,1.8,1,3.2,0.5,5c-0.7,2.3-1.1,4.6-0.9,6.9c-1.4,1.4-3,2.1-5.1,3.4
		c2-4.8,2.8-9.3,5.2-13.6c-2.4,0.2-3,1.7-3.5,3.2c-0.8,2.6-1.4,5.3-2.3,7.8c-1.4,3.8-4,6.5-8.5,7c2.7-2.6,3.8-5.9,4.9-9.3
		c1-3.4,1.4-7,3.3-10.7c-2.1,0.9-2.5,2.3-2.9,3.7c-0.8,3-1.5,5.9-2.3,8.9c-1.4,4.9-5.6,6.7-9.7,8.8c4.2-6.1,6.7-12.5,6.8-19.9
		c-2.8-0.6-2.9,1.5-3.4,2.8c-1,3.3-2.1,6.5-3.9,9.5c-1.1,1.9-2.5,3.6-5,5.2c0.9-6.2,2.4-11.6,4.2-16.9c0.6-1.7,1-3-0.6-4.6
		c-2.1,5.2-2.6,11.2-8.4,15.1c1.1-3.9,3.2-6.8,3.2-10.1c0.1-4.7,1.8-8.6,5-12c1.9-2,2.6-5,5-6.6c0-2.8-0.2-5.3-3.2-7.3
		c0.7,2.2,0.8,4,0.8,6c-7.2-1.4-11.2-6.5-14.5-12.2c-0.9-1.6-1.7-3.4-2.1-5.2c-1-4.6-3.2-8.5-6.3-12L924.8,352.7z"/>
	<path fill="#FFFFFF" d="M811.4,531.9c5.7,1,11.5,2,17.3,3c-0.8,5.7-2.4,11-5.1,16c-0.1-0.1-0.2-0.2-0.2-0.2c-0.1-0.1,0,0,0.2,0.1
		c-1.5,4-1.1,8.1-0.6,12.2c1.9,13.2-0.5,25.8-5.2,38c-2.9,7.6-5.6,15.2-6.1,23.4c-0.3,4,0.4,8,0.3,11.9c0,1.4,0.4,2.8-0.2,4.2
		c-4.5,1.4-7.4-3.4-12.1-2.5c1.3-2,1-3.8,0.8-5.6c-0.9-9.3-4.1-18.1-5.5-27.3c-2-13.5-4.5-27.2-1.9-40.9c1.1-5.6,3-11.1,6.2-16
		c1.8,2.7,0.6,6.3,2.8,8.9c-2.2-2.6-1.1-6.2-2.8-8.9c0.2-3.5,1.4-6.8,1.6-10.4c0.2-3.3-2.1-6.6,0.2-10.1
		C804.7,529.1,808.3,529.9,811.4,531.9c-0.6,2.8,2.4,3,3.3,5c-0.7,2,0,4.6-0.8,6.4c1.1-1.7-0.3-4.4,1.1-6.3
		C813.9,535,810.7,534.9,811.4,531.9z"/>
	<path fill="#FFFFFF" d="M851.6,215.8c0.8-0.2,0.7,0.5,1,0.8c2.3-2.4,5.4-2.9,8.5-1.1c1.7,1,2.9,0.9,4.8,0.2c2.5-1,5.2-2,8.3,0.5
		c1.9,1.5,3.5,3,3.7,5c0.7,5.2,3.3,10,3.3,15.4c0,4.2,1.1,8.2-2.4,11.9c-2,2-2.3,5.3-3.1,8.2c-0.7,2.7-2.1,5-4.3,6.7
		c-1.6,1.3-3.1,2.4-5.4,1.5c-0.9-0.3-2.2-0.2-3.1,0.1c-3.9,1.2-6.9-0.2-9.4-3.1c-2.8-3.1-6-6.1-5.9-10.9c0-1.7-0.6-3.5-1.4-5.1
		c-2.2-4.7-1.9-9.8-1-14.5c0.7-4.3,2.7-8.5,5.1-12.3C850.8,218,851,216.8,851.6,215.8z"/>
	<path fill="#FFFFFF" d="M848.1,280c1.2-1.9-0.1-3.5-0.9-4.8c-4-6.1-1.6-12.7-2.1-18.9c3.3,3.1,6.4,6.1,9.7,9
		c1.3,1.2,2.7,2.4,4.7,1.7c1.2-0.4,1.5,1,2.2,1c2.8-2.4,6.4-0.4,9.4-2.3s4.3-4.8,6.7-7.2c0.7,1.7,0.9,3.1,0.2,4.9
		c-1.1,3-2.2,6-0.8,9.2c0.4,1-0.7,2-0.1,3.3c3.2-2.9-0.5-7.1,2.4-10c1.5,2.5,4.1,3.9,6.8,5.6c-1.9,9.5-2.8,19.2-9.6,27.1
		c-2.4,2.8-5.1,4.8-8.4,6.2c-2,0.8-3.8-0.3-5.9,0.1c-3.7,0.8-7.7,0.9-11.6,0c-3.1-0.7-5.1-2.4-5.6-5.6c-1-7-2.2-13.9-0.5-21
		c0.2-1,0-2.1,0-3.6c2,1.5,2.8,3.4,3.5,5.2c-0.4,1.3,1,1,1.3,1.7l-0.1-0.1C848.9,281.1,847.7,281.2,848.1,280z"/>
	<path fill="#FFFFFF" d="M826.7,307.3c-2.8-5.6-5.5-10.5-6.4-16.4c-0.8-5.4-1.1-10.6,0.3-16c2.1-7.8,3.3-15.8,3-24.3
		c6.2,4,12.1,7.6,15.6,14.2c0.9,1.8,1.3,3.2,0.6,5.3c-2.3,6.3-3.7,12.8-5.2,19.3C833,295.7,830.1,301.4,826.7,307.3z"/>
	<path fill="#FFFFFF" d="M818.6,127.5c3.4,2.5,3.8,3.6,2.8,7.5c-5.1-1.3-9.7,0.6-14.7,1.7c-0.2-1-0.4-2-0.6-3
		C809.2,129.5,814.8,130.6,818.6,127.5z"/>
	<path fill="#FFFFFF" d="M901.4,337c-2.1-2.9-3.5-5.9-5.7-8.4c2.8-1.5,5.7-2.1,8.7-2.4C903.4,329.8,902.5,333.2,901.4,337z"/>
	<path fill="#FFFFFF" d="M829.8,411.2c8.3,1.3,16.2,3.2,25.1,3.1C851.2,416.9,833,414.3,829.8,411.2z"/>
	<path fill="#FFFFFF" d="M813,112.6c-0.4-0.4-0.8-0.9-1.3-1.5c1.9-1.4,3-4.3,6.2-3.5c1.9,0.5,2.7,2,3,3.9c-1.7,0.4-2.2-1.7-4.3-1.2
		C814.9,110.8,814.2,111.9,813,112.6L813,112.6z"/>
	<path fill="#FFFFFF" d="M811.9,643.2c1,1.2,1.2,2,0.6,2.9c-0.1,0.1-0.2,0.2-0.3,0.2c-2.1-0.6-4.1-1.7-6.2-1.4
		c-1-0.8-0.1-1.4-0.3-2.3C807.9,642.9,809.8,644,811.9,643.2z"/>
	<path fill="#FFFFFF" d="M909.5,647.1c-2.3,0.2-4.4,0.8-6.2,1.7c-1.5-0.7-0.9-1.7-0.4-2.8c2-0.2,4.2,0.2,5.8-0.9
		C909.6,645.7,909.7,646.2,909.5,647.1z"/>
	<path fill="#FFFFFF" d="M894.3,417.4c0.9-2.2,1-4.2,3.3-4.9c1.1,0.9,1.5,2.3,2.7,2.6c-0.1,1.4-0.8,1.7-1.8,1.8
		c-1.2-0.6,0.7-3-1.5-3.1C895.3,414.4,897.1,416.9,894.3,417.4z"/>
	<path fill="#FFFFFF" d="M889,413.8c1.7,0,2.9,0,4.3,0c0.5,1.2-0.4,1.9-0.9,2.8c-0.6-0.5-0.5-1.4-1.9-1.3c-0.9,0.1-0.1,2.5-2.1,2.1
		C888.6,416.3,888.8,415.2,889,413.8z"/>
	<path fill="#FFFFFF" d="M946.5,418c1.9-3,3.2-6.3,4.8-9.5c-0.5,3.7-1.3,7.3-4.6,9.7L946.5,418z"/>
	<path fill="#FFFFFF" d="M822.3,410.7c1.9-0.5,3.3-0.5,4.8,0.1C826.2,412.4,823.6,412.4,822.3,410.7z"/>
	<path fill="#FFFFFF" d="M802.7,112.8c0.8-1.8,1.4-3.7,3.7-5.2C805.1,109.8,804.8,111.8,802.7,112.8z"/>
	<path fill="#FFFFFF" d="M802.3,108.4c-0.6,1.9-1.5,2.9-3.6,3.5C798.6,109.1,800.1,108.7,802.3,108.4z"/>
	<path fill="#FFFFFF" d="M885.1,417.5c-0.2-1-0.9-1.9-0.6-3.1c0.6-0.7,1.4-0.5,2.4-0.2C887.1,415.7,887.1,417.1,885.1,417.5
		L885.1,417.5z"/>
	<path fill="#FFFFFF" d="M861.7,415.7c-2.2,0.1-3.8,0.6-6-0.9C858.1,414.7,859.8,414,861.7,415.7z"/>
	<path fill="#FFFFFF" d="M883.9,241.7c-0.6-2.7,1.4-3.4,1.8-4.9C886.8,239.1,884.6,239.8,883.9,241.7z"/>
	<path fill="#FFFFFF" d="M840.8,241.9c1.7,0.3,2.3,1,1.4,2.6C841,244,841.4,242.7,840.8,241.9z"/>
	<path fill="#FFFFFF" d="M839.9,236.2c1.8,1.3,0.5,2.2,0.1,4C839.3,238.3,839.7,237.3,839.9,236.2z"/>
	<path d="M914.4,510c0.2,1.7,0.7,3.4-1,4.8c0.3-1.6,0.6-3.2,0.8-4.8L914.4,510z"/>
	<path fill="#FFFFFF" d="M881.4,415.9c-0.3-0.5-0.7-0.9-0.5-1.6c0.7-0.5,1.4-0.7,1.8,0.3C883,415.5,882.7,416.1,881.4,415.9
		L881.4,415.9z"/>
	<path d="M924.8,352.7c0.3-0.7,0.5-1.7,1.6-0.6c0,0.9-0.8,0.6-1.3,0.8L924.8,352.7z"/>
	<path fill="#FFFFFF" d="M840.9,232.9c1,0.2,0.8,0.8,0.8,1.4C840.9,234.1,840.5,233.8,840.9,232.9z"/>
	<path fill="#FFFFFF" d="M879.8,213.7c-0.4,0.7-0.9,0.7-1.7,0.4C878.7,213.4,879,212.8,879.8,213.7z"/>
	<path fill="#FFFFFF" d="M861.5,212.4c-0.3-0.6-0.3-1,0.4-1.3C862.3,211.8,862.3,212.2,861.5,212.4z"/>
	<path fill="#FFFFFF" d="M884.8,231.3c-0.2,0.7-0.4,1.1-1.1,1.3C883.5,231.9,883.5,231.4,884.8,231.3z"/>
	<path fill="#FFFFFF" d="M846.3,417.9c0.2-0.1,0.3-0.3,0.5-0.3c0.4,0,0.6,0.3,0.5,0.7c-0.1,0.1-0.4,0.3-0.6,0.2
		C846.5,418.3,846.4,418,846.3,417.9z"/>
	<path fill="#FFFFFF" d="M257,401.9c-0.4-7.6-1.7-14.5-4.1-21.2c-0.9-2.6-1.1-5.3-0.9-8c0.1-1.4,0.4-2.9,0.2-4.2
		c-1-6.3,0.9-12,2.9-17.8c0.6-1.7,0.1-3.5,0.6-4.4c0.8-1.7,1.7-0.3,1.8-0.6c-1.2-6.4,1.1-12.5-1.2-18.8c2.5,0.7,4.1,1.2,6,1.7
		c-1.5-2-3.8-2.1-5.5-3.5c-0.7-1-0.7-2.1-0.7-3.3c5.4-7.1,10-14.7,12.6-23.2c1.8-5.8,3.1-11.9,2.2-18.1c-0.6-4.3,0.4-8.5,0.2-12.7
		c-0.1-1.6,0.8-2.4,2.4-2.4c0.7,1.4,0.1,2.7-0.3,4.1c-2.4,9.4-0.4,18.1,4.7,26c3.7,5.7,9.5,8.4,16.3,8.3c2.7,0,5.4-0.3,8.1,0
		c5.3,0.5,8.9-2.4,12.1-6c5.3-6,8.4-12.7,7.6-21c-0.3-3.7-0.1-7.5-0.1-11.1c1.5-0.3,2.4,0,3.2,0.8c-2.8,23.4,2.3,44.4,18.4,62.2
		c-0.4,10.6-1.6,21.1-6.2,31.3c1.2,0.4,0.9,1.6,0.8,2.7c-0.7,6-1.4,11.9-1.7,17.9c-0.1,1.5-0.3,3.1,0,4.6c0.4,2.5,0.2,4.9,0,7.4
		c-0.2,2.6-1.3,5.5,0.9,8c0.3,0.4,0.1,1.1-0.4,1.9c-1.3,0.6-3,0.9-4.6,0.9c-12.7-0.7-25.4,2.1-38.1,1.4c-6.8-0.4-13.6,0.2-20.4,0.1
		c-0.6,0-1.2,0.1-1.8-0.1C267.3,402.6,262.3,402,257,401.9z"/>
	<path fill="#FFFFFF" d="M320.5,409.6c0.5,1.1,2.2-0.3,2.7,1.2c-1,1.3-3.6,0.3-4.3,2.9c6.7-1.2,13.3-1.1,19.9-2.5
		c2,2.7,4.2,5.3,6.6,7.7c0.6,0.6,0.9,1.3,1,2.2c1.1,9.2,2.6,18.4,2.5,27.7c-0.1,6.5,0.7,13,3,19.1c1.5,3.9,0.9,7.9,1.5,11.9
		c0.5,3.6,1.1,7.2,2,10.7c1.1,3.8,1.3,7.6,1.3,11.6c-3-4.5-5.8-9.4-6.8-14.7c-1-5.2-1.8-10.7-1.6-16.1c-0.8,4.7-0.1,9.3,0.5,13.9
		c-1.7,0.4-1.3-1.5-2.4-1.7c-0.3,0.4,0,0.7,0.2,0.9c2.8,5.6,4.6,11.6,7.5,17.1c1.4,2.6,1.4,5.4,0.6,8.9c2.1-1.8,1.5-3.6,1.3-5.3
		c0.3,0,0.5,0,0.8,0c1,4.1,1.9,8.1,3,12.2c0.3,1.1,0.1,2.8,1.9,3h-0.1c-6.9,1.8-13.4,4.9-20.5,6.4c-3.2,0.7-6.5,0.9-9.8,0.6
		c-2.6-0.3-5.1-0.5-7.7,0.4c-1.2,0.4-2.6,0.2-3.8,0.1c-5.4-0.8-10.7-1.3-16.1,0.1c-0.4,0.1-0.9,0-1.3,0c-1-1-0.8-2.3-0.9-3.4
		c-0.6-7.7-0.9-15.5-1.7-23.2c-0.3-3.2-1.5-6.3-2.3-9.5c1.4-0.2,2.1,1.3,2.8,1.3c-0.6-0.1-1.3-1.5-2.7-1.2c-0.8-0.1-1.4,0-1.5,1
		c-0.3,3.7-2.2,6.9-2.7,10.6c-0.3,1.8-1.6,2.7-3.1,3.5c-4.1,2.2-7.8,5.8-9.7,9.3c2.6,1.1,3.8-1,5.4-2.2c1.7-1.3,3.3-2.6,5-4
		c0.4,4.1-1.5,12.6-3.9,18.3c-17.7,3.6-34.6,0.6-51.1-5.7c-0.6-1.2-0.3-2.5,0-3.8c0.2-1.3,0.3-2.6,0.5-4c1.6,0.4,2.5,1.6,3.5,2.7
		c2.9,3.3,6.5,5.1,10.9,4.9c6.3-0.2,12.7,0.5,18.8-2.1c9.2-3.8,14.5-10.5,15.6-20.4c0.2-2,0.3-4,0.2-6c-0.1-1.2,0-2.3,1.5-3.1
		c-2.3-0.6-2.6-2.1-2.7-3.6c1.6-0.9,3.8-0.4,4.9-2.6c-2-2.1-4.4,0.2-6.6-0.8c-0.4-0.8-0.9-1.9-1.5-2.9c0.9-2.2,1.9-4.3,2.8-6.4
		c1.9-0.7,3.4,0.9,5.3,1c-0.6-2.9-3.1-2.4-4.8-3.5c0.4-2.9-0.3-6.1,1.5-9.1c-2.5-2.5-3.8-5.6-4.4-9.5c-1.5-9.2-6.4-13.3-16-14.8
		c-1.1-1-1.5-2.4-1.7-3.8c-0.4-3.6-2-6.7-3.5-9.9c-1.6-3.4-1.9-6.9-1.9-10.6l0.1,0.1c-1.6-3.1-1.7-6.5-1.4-9.9
		c0.9,1.4,0.1,3,1.2,4.6c1.1,1.5,3.4-0.7,3.5,1.8c3.4-2.3,3-2.4,4.8,0.2c1.2-1.3,2.4-3,4,0c0.9-1,1.9-1.7,3.3-1.3
		c1.2,0.3,1,1.5,1.5,2.2c0.9-0.4,1.3-2.3,3.1-0.9c-1.1,2-1.5,4.4-1.6,6.8c-0.2,2.5,0,4.9,0,7.5c1-2.2,1.5-4.4,1.4-6.8
		c-0.1-2.7,1.4-4.5,3.1-6.4c1.3,0.6,1.9,2.2,3.5,2.7c1.1-0.8,0.5-2.8,2.4-3.3c1.2,0.1,2,1.7,2.9,1.5c1.9-0.1,2-1.7,3.4-1.6
		c1.3,0.5,0.2,2.6,2,3.1c0.1-1,0.1-2,0.2-2.9c1.3-0.4,2.6-0.3,4.1,0.3c1.3,4.4,2.9,8.9,2.8,14.4c1-1.6,0.3-2.9,0.7-4
		c0.5-0.6,0.8,0.5,1.4-0.2c-0.1-3.3-2.2-6.1-3.1-9.7c4.7-1,9.4,0.4,14.1-1.9c-2.1-1.3-4.7,1.3-5.6-1.8c2.1-0.5,4.1-1.8,6.3-1.3
		c1.3,1.1,0.2,2.8,1.2,4c1.4-0.3,0.6-1.9,1.6-2.4C320.4,408.6,320.7,408.8,320.5,409.6z"/>
	<path fill="#FFFFFF" d="M277.8,482.3c1.1,1,2.2,1.1,2.7,2.3c2.5,6.3,1.9,23.1-4.4,28.9c-0.4,0.4-0.8,0.9-1.3,1.2
		c-6,3-12,6.3-19.1,5c-3.2-0.6-6.4-0.6-9.5-2.1c-9.2-4.4-11.9-12.5-13-21.5c-0.5-4.6,2.3-8.6,2.8-12.6c1-1.1,2.1,0.6,2.8-1
		c-0.8-2.1-2.5-3.9-4-5.8c-6.2-8.1-3.8-13.6,3.3-19.6c1.2-1,2.8-1.7,4.4-2.7c0.8,2,1.5,3.8,2.4,5.7c-2.8,2.6-7.2,4.3-6.2,9.1
		c0.8,3.8,2.1,7.6,6,10.6c-0.1-4.1-4.1-6.1-3.4-9.4c0.7-3,0.8-6.7,4.9-8.1c1.7,2.2,3.7,4.2,7,2.9c0.3-0.1,1,0.1,1.3,0.4
		c1.7,1.4,3.3,1.7,4.9,0c1.4,1,2.5,1.9,4,2.9c2.9-3,7.4-1.8,11-3.7c1.1,1.3,1.9,2.9,0.8,5c-3,0.2-6-1.1-9.1-0.4
		c2.8,0.8,5.5,1.6,8.2,2.3c0.7,1.1,0.2,1.9-0.3,3c-4.8-1.5-9.8-2.3-14.8-1.7c-4.7,0.6-9.7,0.4-14.1,3.3c1.6,2,3.1,1.2,4.5,0.9
		c4.5-0.9,9-1.7,13.6-1.7c3.2,0,6.3,0.2,9.3,1c0.7,0.4-0.1,1.5,0.8,1.8c5.7-5.8,6.2-11.5,1.2-16.3c-0.1-3.4,0.7-6.4,4-8.2
		c-0.4-1.2-1.2-1.4-2.3-1.4c-1.2,1.5-2.4,3.1-2.8,5.1c-0.4,1.9-0.4,4-1.4,6c-2.7,0.7-6-0.2-8.2,2.3c-1.6-0.2-2.3-1.5-3.4-2
		c-1.1-0.3-1.8,0.6-2.8,0.9c-2.2-1.3-4.7-1.9-7.1-1.3c-5.2-3.9-6.9-9.5-4.6-15.3c0.7-1.7,0.5-3.8,2.5-4.8c0.7-0.4,0.7-1.4,0.5-2.3
		c-2.6-7.8-4.6-16-9.1-22.9s-7.1-14.3-9.4-21.9c-1.6-5.4-2.9-10.9-2.5-16.6c0.1-1.1-0.5-2.4,0.9-3.2c3.8,2.4,5.8,6,6.2,10.4
		c0.3,4.1,2.5,7.4,4.4,11.1c0.6-2.4,0.8-2.6-0.4-3.7c-1.4-1.3-1.7-2.8-1.7-4.4c0-3.2-1-6.3-2.1-9.3c-1-2.8-4.2-3.7-5.1-6.5
		c-1.9,0.3-3.4,0.7-3-2.1c0.5-3.4-0.7-6.8-0.8-10.1c-0.2-5.5-2.5-10.7-2.9-16.3c3.6-0.3,4.5,2.5,5.7,5c0.4-2.3-0.3-4.1-2.1-5.1
		c-4.8-2.7-5.5-7-4.8-11.8c0.6-4.5,0.6-9.1,2.8-13.3c0.6-1.1,0.4-2.5,0.5-3.8c0.1-1.4-0.4-2.8,1-3.6c-7.8-15.5,9.3-36.9,20.2-38
		c0.7,0.9-0.9,1.3-0.5,2.2c1.1,0.8,2.7-0.5,3-2.6c3.4-0.2,6.8-0.6,10-2.6c2.9-1.8,6.1-3,9.7-4.6c-1.3,12,1.2,24.2-6.2,34.7
		c-0.8,1.2-1.2,2.5-1.5,3.9c-0.9,4.7-3.8,8.5-6,12.3c-1.6,0.1-1.7-0.9-2-1.8c-0.8,1.1-0.6,2.2-0.3,3.4c1.7,6.6,1.7,13.2,0.8,20
		c-1.2,8.9-3.3,17.6-4.7,26.4c-0.1,0.8-0.5,1.5-0.9,2.5c-1.9-2.2,0.2-5.4-2.3-7.1c-1.2,0.4-0.9,1.3-0.7,2c1.2,6.1,2.6,12.2,5.4,17.8
		c0.8,1.5,0.8,3.2,1.1,4.8c2.2,11.6,3.8,23.2,5.3,34.9c0.3,2.3,1.3,4.3,2.2,6.3c1.4,3.1,2.5,6.3,3.5,9.6c0.7,2.3,2.3,3.6,4.6,3.7
		c3.5,0.2,6.1,2.2,8.9,3.9c0.8,0.5,1.4,1.3,1.4,2.3c0.2,2,0.6,3.9,1.9,5.6c0.3,0.4,0.5,1.1,0.3,1.3c-1.9,2.8,0.4,4.7,1.3,7
		c1.6,4.6,1.3,9.3,0,13.9C280.1,477.2,279.7,480,277.8,482.3z"/>
	<path fill="#FFFFFF" d="M251.1,529.8c5.8,0.9,11.6,1.7,17.5,2.6c-0.9,6.1-2.3,12-5.5,17.4c-0.1-0.1-0.1-0.2-0.1-0.2
		c0-0.1,0,0,0.2,0.1c-0.8,4.7,0.1,9.3,0.5,14c0.7,8.1,1,16.2-1.2,24.2c-1.9,7.1-4.1,14-6.5,20.9c-2.6,7.3-3.1,14.9-2.7,22.7
		c0.2,3.2,0.9,6.5,0.6,9.7c-4.8,1.6-7.9-3.2-12.2-2.4c1.1-5.4-0.8-10.2-1.5-15.1c-0.8-6.3-3.8-12.2-4.7-18.5
		c-1.9-13.9-5.1-27.8-2.8-41.9c0.9-5.4,3-10.3,5.5-15.3c0.9,3.8,2.3,7.4,4.4,10.7c-1.2-4.2-1.1-8.7-3.7-13.4
		c2.4-5.6,0.7-12.4,0.4-19.8C243.8,526.8,247.7,527.8,251.1,529.8c-0.3,3.1,2.1,3.5,3.9,4.6C253.2,533.3,250.8,532.8,251.1,529.8z"
		/>
	<path fill="#FFFFFF" d="M313.4,243.7c-0.2,5.7,1.6,11.1,2.1,16.7c0.1,1.4,1.1,2.1,2.1,2.7c2.2,1.2,2.7,3,2.6,5.3
		c-0.2,3.5-0.1,7.1-0.2,10.6c-0.2,4.7-3.1,8.3-4.7,12.4c-0.6,1.4-1.5,2.7-2.4,3.9c-3.9,5.5-9.3,6.6-15.6,5.2
		c-1.2-1.3,0.3-3.5-1.5-4.9c-1.1,1.4,0,3.3-0.9,4.6c-7.3,0.5-14.9-2.7-16.9-11.1c-1.8-7.5-3.5-14.9-2.3-22.7
		c0.1-0.9-0.1-1.9,1.3-2.8c1.2,3.6,0.2,8.2,4.8,10.3c-3.4-2.9-2-7.1-3.3-10.7c3.6-3.9,3.3-9.1,4.1-13.9c2.9,1.3,4.7,3.6,6.5,5.9
		c2.1,2.6,5.5,0.7,7.5,2.7c0.9-0.3,1-1.4,2.2-1.5c8.9-0.7,11.6-3,14.3-11.6C313,244.5,313.2,244.1,313.4,243.7z"/>
	<path fill="#FFFFFF" d="M284.7,204.3c0.6,0.5,0.9,0.8,1.2,1.1c1.9-2.5,5.3-3.4,8.2-1.6c1.9,1.1,3.2,1.4,5.3,0
		c2-1.3,4.8-1.4,7.4-0.7c0.9,0.2,0.1,1.4,0.8,1.6c1,0.4,1.1-1,1.5-0.6c3.8,3.6,2.4,9,4.9,13.2c1.6,2.8,1,6.4,1.6,9.6
		c0.7,3.8,0.2,7.2-2.6,10.5c-1.9,2.2-2.3,5.6-3,8.6c-0.7,2.7-2.1,5-4.2,6.8c-1.5,1.2-2.9,2.3-5.1,1.6c-1.2-0.3-2.7-0.3-3.8,0.2
		c-3.7,1.3-6.5-0.1-8.9-2.6c-3.2-3.3-6.6-6.3-6.8-11.5c-0.1-2.2-1.1-4.3-1.9-6.4c-1-2.5-1.2-4.9-1.3-7.5c-0.2-7.4,2.2-13.7,6.1-19.7
		C284.5,206.4,284.4,205.4,284.7,204.3z"/>
	<path fill="#FFFFFF" d="M292.1,408.5c-8.8,3.1-16.7-0.9-24.9-2.6C275.5,406.8,283.8,408,292.1,408.5z"/>
	<path fill="#FFFFFF" d="M247.9,643.2c2.1,1,4.1,1,6.1,0.8c0.9,1,1.1,1.9,0.2,3.1c-2.2-0.8-4.4-1.7-6.8-1.5
		C247,644.8,247.4,644.2,247.9,643.2z"/>
	<path fill="#FFFFFF" d="M354.3,645.7c-2.5,0-4.7,0.7-6.6,1.9c-1.3-1-1-1.9-0.3-3c2-0.2,4.1-0.1,5.9-1.2
		C354.1,643.9,354.3,644.5,354.3,645.7z"/>
	<path fill="#FFFFFF" d="M244.6,439c1.4,3.9,1.4,3.9-2,12c-0.1-2.3,0.7-4.2,1.1-6.3C244,442.8,244.3,440.9,244.6,439z"/>
	<path fill="#FFFFFF" d="M327.6,406.9c1.8-0.2,3.2-0.3,4.6-0.4c0.4,1.3-0.5,2.1-0.8,3c-1,0.1-0.7-1.6-2.6-0.9
		c-0.4,0.2,0.4,2.2-1.6,2.1C326.7,409.4,327.8,408.3,327.6,406.9z"/>
	<path fill="#FFFFFF" d="M259.4,405c1.5-0.4,3.2-0.4,4.9,0.2c-0.7,2.7-3.3-0.2-4.2,1.7C259.6,406.4,259,406.1,259.4,405z"/>
	<path fill="#FFFFFF" d="M335.3,405.9c2.8-1.7,2.1,2.6,4.1,1.8c-0.3,1.6-1,1.9-2.2,1.8c-0.6-1,0.5-3.2-1.7-3.5L335.3,405.9z"/>
	<path fill="#FFFFFF" d="M325.6,407.2c0.4,1.1-0.1,2-0.7,3.1c-1.6-0.4-1.8-1.6-1.9-2.8C323.8,406.7,324.7,406.7,325.6,407.2z"/>
	<path fill="#FFFFFF" d="M294.2,408.8c1.6-0.6,3.2-0.8,5.5,0C297.5,409.9,295.9,409.7,294.2,408.8z"/>
	<path fill="#FFFFFF" d="M320.3,225.4c0.8,2.3-1.3,3.3-2.1,5.5C317.4,228.2,319.6,227.1,320.3,225.4z"/>
	<path fill="#FFFFFF" d="M335.5,406.1c-0.9,1.2,0.1,3.1-1.6,4c-0.2-1.6,0-3.1,1.3-4.2L335.5,406.1z"/>
	<path fill="#FFFFFF" d="M273.3,225.6c1.5,1.5,0.6,2.5-0.3,4.2C272.6,227.8,272.6,226.8,273.3,225.6z"/>
	<path fill="#FFFFFF" d="M320.5,409.6c-0.3-0.3-0.6-0.5-0.9-0.8c-0.2-0.5-0.6-1-0.3-1.6C321.3,407.5,321.3,407.5,320.5,409.6z"/>
	<path fill="#FFFFFF" d="M274.8,231.7c1.8,0.9,1.4,1.7,0.8,2.7C274.7,233.7,274.6,232.9,274.8,231.7z"/>
	<path fill="#FFFFFF" d="M309.4,409.8c-0.5,0.4-0.9,0.5-1.4,0C308.5,408.9,308.9,408.8,309.4,409.8z"/>
	<path fill="#FFFFFF" d="M284.8,412.5c-0.5,0.1-0.8-0.2-0.8-0.7c0-0.4,0.3-0.6,0.7-0.4C285,411.6,285.1,412.1,284.8,412.5z"/>
	<path fill="#FFFFFF" d="M311.8,202.4c0.4-1.1,1-1.1,1.8-0.8C313.1,202.6,312.5,202.4,311.8,202.4z"/>
	<path fill="#FFFFFF" d="M343.1,320.5c1-0.2,1.5,0.2,1.1,1.2C343.3,321.7,343.2,321.1,343.1,320.5L343.1,320.5z"/>
	<path fill="#FFFFFF" d="M274.1,222.4c0.9,0.1,1.1,0.5,0.7,1.3C274,223.6,273.7,223.3,274.1,222.4z"/>
	<path fill="#FFFFFF" d="M318.7,219.5c0.7,1-0.2,1.2-0.5,1.8C317.4,220.2,318.1,220,318.7,219.5z"/>
	<path fill="#FFFFFF" d="M294.6,201.1c0-0.7-0.1-1,0-1.3s0.4-0.3,0.5,0C295.3,200.1,295.3,200.5,294.6,201.1z"/>
	<path fill="#FFFFFF" d="M289.4,199.9c-0.6,0.1-0.9-0.1-0.9-0.5c0-0.1,0.2-0.4,0.4-0.4C289.3,199,289.4,199.3,289.4,199.9z"/>
	<path fill="#FFFFFF" d="M582.1,509.2c-1.5-1.9-3.6-3.1-5.7-4c-1.9-0.9-3.3-2.2-4.4-3.8c0.3-1.7,1.3-3.2,1.1-4.9
		c-0.9,0.3-1,1.5-1.9,1.9c-3.3-2.2-7.5-1.2-11.3-2.7c-0.2-3.1-1.6-5.8-3.9-8.2c0.7-1.5,0.8-3,2.5-4.3c4.7,0.6,9.6,1.4,14.6,3.5
		c0-2.6-1.7-2.7-3-3.3c-1.8-0.8-4-0.3-5.6-1.7l-0.1,0.1c2.9,0.6,5.8-1,8.5,0.5c3.1-1.4,6.1-2.8,9.4-4.2c0.2,1.5-1.4,2.3-0.6,4.3
		c2.9-4.3,6.8-6.9,10.9-9.3c1.6-0.7,3.6-0.3,5.8-1.7c-3.7-1.3-6.7,0.4-9.8,0.9c1.6-3.4,1.9-3.6,5.4-3.7c0.1,0.8-1.2,0.7-1,1.8
		c1.6,0.4,3.2-0.4,3.7-1.5c0.8-1.8,2.3-2.1,3.8-2.8c5.2-2.3,10-5.3,14.6-8.5c2.1-1.4,4.3-2.8,4-6.3c-0.2-2.1,1.7-4.5,2-7
		c1.1-9-0.5-17.8-2.5-26.6c-0.5-2.1-0.7-4.2-1.6-6.1c-0.6-1.1-0.3-2.3,1.2-3.6c5.6,16.9,8.4,34.3,14.9,51c-2.4,2.4-5.1,5.4-8.5,6.2
		c-5,1.2-9.8,3.6-15.1,4c-2.7,0.2-5.3,0.9-7.9,1.7c5.1,0.1,10-0.5,15-1.3c1.1,0.6,1.3,1.5,1.2,2.7c-0.4,0.1-0.7,0.3-1,0.3
		c-5.7-0.5-11.3-1.3-16.9,1.1c-6.1,2.6-11.2,6.6-16.6,10.3c-1.6,1.1-2.7,2.8-3.2,4.7c0.6,0.4,1,0.5,1.2,0.2
		c5.4-7.3,13.8-10.5,21.2-14.9c1.5-0.9,3.2-0.4,4.8,0c3.3,0.8,6.5,0.6,10,0.1c1.2,1.6,3.7,1.7,4.8,3.7c-0.5,1.3-1.5-0.7-2,0.7
		c3.8,2,6.4,5.4,8.7,9.6c-1.3-0.1-2.4-0.1-3.5-0.2l0.1-0.1c4.2,1.1,5.4,4.3,6.8,8.1c3,7.9,5.2,16.1,7.4,24.3c0.1,0.5,0.6,1,0,1.9
		c-6-2.1-12.2-3.7-18.8-3.4c-4.5,0.2-8.9,0.8-13.3,1.7c-7.9,1.6-16.1,1.8-24,4c-0.6,0.2-1.1-0.1-2-0.7c-0.6-5.2-2.1-10.6-4.2-16.1
		c1.9,0.4,3,2,4.6,2.5c0.2,0.1,0.4,0.1,0.6,0.2C582.3,509.6,582.2,509.4,582.1,509.2z"/>
	<path fill="#FFFFFF" d="M557.9,437.8c1.2,0.7,1.3,2.1,1.9,3.1c0.2,1.4-1.7,0.8-1.7,1.9c0.8,1.1,2.1,0.1,3.3,1.2
		c3,5.1,6.6,10.7,8.8,16.6c2.9,7.5,2.1,14.2-5.3,18c-0.9,0.5-1.1,2-2.5,1.6c-0.8-0.7,0.8-1.5-0.2-2.3c-2.9,2-5.9,4-8.5,6.7
		c-3.1-0.3-5.8-2.5-9.7-1.2c3.5,1.2,6.3,2.1,9.3,3c0,2.1-2.5,3.8-1.7,6.5c1.6-0.8,1.7-2.8,3.7-3.3c3,5.1,3.9,11.9,10.5,14.8
		c2.2-0.5,4.7-1.7,7,0.5c2.9,2.7,2.7,6.7-0.8,8.5c-1.6,0.9-3.3,1.8-4.6,3.4c-1.9-1.9-4.2-1.6-6.7-2.1c-1.2-4.5-5.2-5.4-9.1-7
		c-6.5-2.7-13-5.5-17.7-11.3c-1.5-1.9-2.8-3.9-3.8-6.2c1.3,0.8,2.5,1.6,3.8,2.4c-0.7-2-2.2-3.4-3.9-4c-4.4-1.5-6.8-4.6-8-8.9
		c-1.3-4.5-2.7-9.1-0.7-14.1c1.8,10.7,9.3,14.5,18.7,16c-4.7-2.1-9.7-3.9-13.5-7.7c-4.3-4.2-2-9.9-4-15.2c-2-2.3-6.6-3-8.2-7.3
		c2.4-0.7,4.2-0.7,5.3,0.8c1.6,0.3,1-1.5,2.2-1.3c1.4,0,0.7,1.7,1.6,2.5c1.6-1.8,2-4.1,1.5-6.1c-0.5-2.1,0.1-3.8,1.1-5.3
		c1.9-2.7,3.1-5.9,6.6-7.5c4.2-2,7.3-5.9,11.8-7.6c0.2-0.1,0.3-0.6,0.4-0.9l-0.1,0.1c2.1-0.3,3.3-2.1,5.4-3.2
		C554.5,427.1,555.6,432.8,557.9,437.8c-0.8,0.7-1.1,1.8-1.7,2.1C556.8,439.5,557.2,438.6,557.9,437.8z"/>
	<path fill="#FFFFFF" d="M590.5,466.2c0.2-0.8,0.3-1.5-0.9-1.8c-1-0.2-1.9-0.8-2.8-1.2h0.2h-0.1c-4.2-0.6-6.5-3.5-8.5-6.7
		c-2.4-3.7-4.7-7.5-7.1-11.3c0.3-0.2,0.6-0.4,1.3-1c-4.9-1-5.5-5-7.1-7.8c0.4-1.8,1.8-2.3,2.6-3.6c-1.4-0.3-1.9,1.4-3.6,0.8
		c-2.3-6.1-1.9-13-2.7-19.6c0.8-1.1,1.6-2.1,2.5-3.3c1.4,1.9,3.3,3.4,3.1,6.2c-0.9,0.6-1.9,1.1-3.3,2c3.1,1.4,6,0.2,8.8,0.6
		c1.9,3.7,2,8,4.5,11.5c-2.5-3.4-2.4-7.8-4.6-11.4c0-0.1,0-0.3,0-0.3c-3.2-1.6-3.8-5.2-5.8-7.8c-1.3-1.7-1.5-3.5-1.1-5.6
		c1.1,0,1.7,0.5,2.2,1.2c0.2,0.8-0.7,1.1-0.9,1.9c1.5,2.9,3.1,5.7,6.6,6.6c0.9-1.3,1.1-2.8,1.1-4.2c-0.2-6.2,3.5-10.5,7.1-14.9
		c1.2-1.4,2.8-1.9,4.6-2.3c5.1-1.1,10.3-1,15.3-2.1c2.4-0.5,4.6,1,7.1,0.5c2.9,3.7,5.1,7.6,4.5,12.5c-0.1,1-0.2,2.1,0,3.2
		c0.9,9.5-1.7,18.4-5,27.1c-0.1,0.3-0.3,0.6-0.4,1c-1.9,6.2-4.4,8.2-10.6,8.5c-3.2,0.2-5.5-1.8-8-3.3c-2.7-1.6-5.2-3.5-8-5
		c0.4,2.2,2.5,3.1,3.8,4.5c0.4,0.8-0.6,1.3-0.4,2.1c1,0.6,1.2-0.8,2.4-0.6c1.2,1.7,5.1,1.2,4.9,5.3c1.2-0.8,2.3-1.3,3.7-1.3
		c7.6,0,10.3-1.3,13.3-8.4c3.3-8,5.1-16.4,6.5-25.7c1.5,4.7,2.1,8.8,2.2,13c0.2,6.6,0.6,13.2,0.3,19.8c-0.2,6-1.9,10.7-8,13.2
		c-4.1,1.6-7.3,5.3-12.2,5.2C596.4,466.8,593.1,465.6,590.5,466.2L590.5,466.2z"/>
	<path fill="#FFFFFF" d="M642.6,544.2c-0.9-1.2-0.4-2.7-2.2-3.7c0.1,3.9,0.6,7.5-0.1,10.9c1.9,0.6,1.7-1.3,3-1.2
		c1.7,5.4,3.3,11.1,4.4,16.8c2.8,14.1,0.6,27.9-2,41.7c-1.5,7.7-2.5,15.5-3.4,23.4c-1.8,0.5-3.3,0.9-4.9,0.9c-1-1.2-0.3-2.7-1.1-4.1
		c-1.5,1.1-0.7,2.8-1.3,4.2c-0.4,0.8-1.8,0.5-2.1,1.5c-0.5,1.3,0.8,2.5,0.1,4c-0.8,0.7-2,1-3.3,1.1c1.8-4.4,1.7-8.9,1.2-13.3
		c-0.7-5.1-2.1-10-2.7-15.2c-0.8-6.4-3.3-12.8-6.5-18.5c-1.7-3-2.6-6-2.8-9.3c-0.5-7.3-0.8-14.5-0.1-21.9c0.3-3.9,1.1-7.8,0.2-11.8
		c-0.2-0.9,1.2-1.2,0.6-2.7c-8.8-6-14.4-15.9-23.4-23.2c4-0.9,5.4,2.7,8.4,3.2c-0.6-1.6-2.5-2.2-2.9-4c6.2-0.8,12.1-2.7,18.4-2.8
		c5.7,0,11.2,0.8,16.6,2.7c1.3,0.5,2.8,0.8,3.2,2.5c1,4.5,3,8.7,3.4,13.3C643.5,540.5,643.6,542.3,642.6,544.2z"/>
	<path fill="#FFFFFF" d="M543.2,518.6c0.7,2.4-1.6,3.9-1.7,6.7c-3.3-2.9-6.9-4.3-10.2-6.2c-5.9-3.3-12.2-3-18.6-2.4
		c-4.3,0.4-8.7-0.4-12.6,1.3c-1.3-1.7-0.1-3.8-1.8-5c-0.8,1.7,0,3.2-0.1,4.8c-0.5,0.8-1.1,1.2-2,1c-0.1-0.2-0.3-0.4-0.3-0.6
		c-0.7-10.3,1.9-20.1,4.7-29.8c1.4-4.8,3.7-9.1,5.9-13.4c1.2-2.3,0.8-4.6,1.3-7.1c1.8-0.5,3.3-1.5,3.3-3.7c2.7,1.1,5.7,0.9,8.2,2.3
		c0.1,1.2-0.4,2.3-0.9,3.6c-2.3-1.2-4.7-1.6-7.3-1.5c2.2,1.5,4.3,2.9,6.9,3.5c0.6,0.9,0.6,2,0.8,3c1,4.9,2.4,9.5,6.9,12.6
		c2.6,1.9,4,4.9,5.8,7.5c1.7,2.4,3.6,4.6,5.4,7c-0.2,1.1-1.4,0.5-2.4,1.4c3.5-0.7,5.8,0.6,8.3,2.4c-4.4,1.3-8.5,2.5-12.6,3.7
		c4.4,0,8.7-1.1,12.9-2.3c2-0.6,3.4-0.5,4.2,1.8c-2.4,1.2-5.2,0.8-8.1,2.4c3.3,0.6,5.9-0.6,8.6-1c0.9-0.1,1.9-1.3,2.8,0l0.1-0.1
		C547,512.1,545.4,515.7,543.2,518.6L543.2,518.6z"/>
	<path fill="#FFFFFF" d="M635.4,457.1c-1.7-1.4-2.2-2.8-2.6-4.5c-2.3-10.8-4.4-21.7-7.5-32.3c-1.3-4.3-3.1-8.4-4.9-12.5
		c-0.4-1-1.3-1.6-2.2-2.2c0-1.1,0-2.1,0-3c0.1-0.5,0.3-0.5,0.6-0.4c6,2.1,12.1,3.6,18.2,5.3c7.1,1.9,13.6,5.7,19.1,11
		c1.6,1.6,1.7,3.5,2.2,5.4c1.1,3.8,1.8,7.5,0.9,11.5c-0.5,2-0.8,3.9-3.1,4.8c-0.7,0.3-1.1,1.2-1.6,1.8c-2.8,2.8-5.7,5.6-9.5,7.2
		C641,450.7,638.4,454,635.4,457.1z"/>
	<path fill="#FFFFFF" d="M649.9,655.7c1.2,0.9,1.5,2.3,2.1,3.6c1.5,3.1,2.5,6.3,4.6,9.1c1.7,2.1,2,4.7,1.6,7.3
		c-3,3.7-7.2,3.3-11.1,3.3c-2.8,0-5.6,0-8.4,0.3c-4,0.5-7.2-0.9-9.5-4.1c-1.3-1.9-2.1-3.7-1.3-6.2c1.1-3.7,1-7.3-1.7-10.6
		c0.1,2.1,0.2,4.2,0.3,6.6c-2.7-1.2-4.3-3.1-5.9-5.3c2.4-4.8,6.4-9,4.9-15.2c2.5,0.7,3.4,2.9,5.9,2.1c1.5-0.9,2.3-3.1,4.2-3.9
		c0.6-2.2-0.6-4.2-0.2-6.2c3.3-1.2,6.4-0.6,9.4,1.2c0.2,2.4-1.7,4.9,0.3,7.3c-3.4,0.7-6.9-0.4-9.8,2c3.6,1.1,7.3,0.4,11.1,0.8
		c-3.7,0.4-7.4,0.9-11.2,1.3c0,0.3,0,0.6,0,1c4.1,2.3,8.8,0.4,13.2,1.1c-4.3,1-8.8,0-12.8,2.3c4.5,1.8,9.1,1.8,13.7,0.3
		C649.8,654.2,650,655,649.9,655.7c-2.4,1.8-5.2,1.4-7.9,1.5C644.7,657,647.5,657.7,649.9,655.7z"/>
	<path fill="#FFFFFF" d="M662.7,482.3c-1.8,1.9-4.3,3-5.2,5.9c-0.6,1.9-2.9,2-4.6,1.5c-1.3,0.5-1.7,1.8-3,1.9
		c-2.7-0.6-3.1-3.9-5.5-4.8c-0.2-1.8-0.4-3.4-0.6-5c0.7-1.5,2-2.4,2.9-3.5c0.9,0,0.8,1.1,1.8,1.3c0.3-2,0.9-3.7,0.3-5.5
		c-0.8-2.6-1.8-5.1-3.6-7.2c-2.7-3.2-4.4-6.7-3.5-11c0.2-0.9-1.1-0.4-0.9-1.5c4.8-5.5,13.4-6.9,17.2-14.2c0.1,2.3-1.5,3.9-2.1,5.8
		c2.3,2.5,4.5,5,3.7,9c-1,5.2-0.7,10.6-1.7,15.8c-0.4,1.9,0,3.7,0.7,5.2c0.9,1.2,1.3-0.3,2.3,0.1
		C662.1,477.9,662.5,480.1,662.7,482.3L662.7,482.3z"/>
	<path fill="#FFFFFF" d="M550.8,510.8c6.9-0.4,8.4,4.4,8.9,10c1.7-1.1,1.4-2.7,2.1-3.8c3.2,2.2,3.4,3.9,0.8,6.6
		c1.2,1.3,2.7-0.6,3.7,0.5c2-2-0.1-3.3-0.5-4.8c0.9-1.2,2.1-0.1,3.3-0.9c1.3-3,6-2.3,7.1-6.4c3.4,6,2,11.4-0.9,16.4
		c-1.8,3.2-4.9,4.9-8.9,4.9c-3.3,0-6.5-0.4-9.7-1.4c-3.6-1.2-5.8-3.6-7-6.9c-1.4-4.2-2-8.5,0.5-12.6
		C550.7,511.9,550.7,511.3,550.8,510.8L550.8,510.8z"/>
	<path fill="#FFFFFF" d="M590.5,466.2c-2.3,0.6-2.6,2.9-3.5,4.5c-1.4,2.4-3.3,4-5.8,4.8c-3.6,1.1-6.7,3.4-10.6,3.6
		c-0.5,0-1.1,0-1.9,0c0.4-0.6,0.5-0.9,0.8-1.1c5.8-5.4,6.9-12.2,2.7-19.2c-6.2-10.2-11.4-21-16.5-31.8c-0.9-2-2.6-3.3-3.9-5
		c-0.3-0.7,0.8-1.2,0.3-2c-1.6,0.6-3.1,1.2-4.7,1.8l0.1,0.1c4-3.6,7.9-7.1,13.4-10.2c-1.6,2.5-1.9,4.3-0.7,6.5
		c1.1,2-0.3,4.5,0.1,6.9c1.5,9.2,5.7,17,10.8,24.6c2,3,4.2,6,6.1,9.1C580.1,463.5,583.9,467.5,590.5,466.2L590.5,466.2z"/>
	<path fill="#FFFFFF" d="M545.1,426c-0.6-0.5-1.2-0.9-1.9-0.7c-4.8,1.4-9.4,3.1-11.7,8.1c-4.2,0.3-7.2,5.7-8.2,14.8
		c-1.1,0.4-1.7-0.6-2.4-1c-0.8-0.5-1.8-0.6-2.2-1.6c0.4-2.2,2.1,0.2,2.8-0.8c0-1.1-1.3-1.2-1.7-1.8c0.5-3.7,2.4-6.3,5.5-7.9
		c0.6-0.3,1.3-0.7,1.7-1.2c4.7-6.8,12.5-8.8,19.3-12.1c0.3-0.1,0.7,0,1,0l-0.1-0.1C548,423.9,545.9,424.6,545.1,426L545.1,426z"/>
	<path fill="#FFFFFF" d="M520.9,459.4c0.4,1.2,0.6,2-0.1,3.1c-2.5,0.2-5.2-0.4-8.1,1c0.6-2.8,2.3-4.5,2.7-7.2
		C517.3,457.6,518.6,459.7,520.9,459.4z"/>
	<path fill="#FFFFFF" d="M561.7,497.8c3.1,0.4,6,0.7,8.9,2c-1.4,1.7-3.8,0.6-4.9,2.5C564.3,500.7,563,499.3,561.7,497.8z"/>
	<path fill="#FFFFFF" d="M628,642.4c1.9-0.6,3.5-1.1,5.7-1.8c-0.9,1.9-2.1,2.9-3.3,3.8C629.3,644.3,628.6,643.7,628,642.4z"/>
	<path fill="#FFFFFF" d="M534.2,525.9c-0.1-1,0.4-1.6,0.9-2.2c1,0.3,1.9,0.8,2.7,1.7C536.6,525.7,535.4,526.2,534.2,525.9z"/>
	<path fill="#FFFFFF" d="M615.4,407.8c-0.2-1.6-0.4-2.7,0.1-3.9C616.7,405.2,616.5,406.3,615.4,407.8z"/>
	<path fill="#FFFFFF" d="M583.2,373.4c-1,0.2-2,0.3-2.9,0.5C581.1,372.7,582.2,372.4,583.2,373.4z"/>
	<path fill="#FFFFFF" d="M569,386.7c0.6,0.6,0.5,1,0.1,1.3c-0.3,0.3-0.7,0.1-0.8-0.2C568,387.3,568.3,387,569,386.7z"/>
	<path fill="#FFFFFF" d="M568.5,404.6c1,0.1,1.6,0.7,2.3,1.5C569.3,406.4,568.9,405.5,568.5,404.6L568.5,404.6z"/>
	<path fill="#FFFFFF" d="M568.5,404.7c-0.7-0.1-1.6,0.1-2-1.1C567.6,403.3,568.1,403.8,568.5,404.7L568.5,404.7z"/>
	<path fill="#FFFFFF" d="M567.7,397.3c-0.5-0.8-0.7-1.2-1-1.6C567.9,395.3,567.8,396,567.7,397.3z"/>
	<path fill="#FFFFFF" d="M564.5,481.5c-1,0.2-2,0.5-3.1-0.1C562.6,480.7,563.5,481.3,564.5,481.5L564.5,481.5z"/>
	<path fill="#FFFFFF" d="M571.1,410.1c0.4,0.6,0.5,1.1-0.3,1.3c-0.2,0.1-0.5-0.1-0.6-0.3C569.9,410.4,570.4,410.2,571.1,410.1z"/>
	<path fill="#FFFFFF" d="M592.4,375.8c-0.7,0.6-1.3,0.5-2-0.3C591.4,374.9,591.9,375.2,592.4,375.8z"/>
	<path fill="#FFFFFF" d="M579.5,389.8c-0.4-0.7-0.6-1.3,0.6-1.3C580.6,389.3,580.1,389.5,579.5,389.8z"/>
	<path fill="#FFFFFF" d="M615.9,399.8c0.5,0.6,0.3,1-0.3,1.3C615.3,400.6,615,400,615.9,399.8z"/>
	<path fill="#FFFFFF" d="M573.1,385.6c0.7,0.5,0.6,1.1,0.1,1.7C572.5,386.8,572.7,386.2,573.1,385.6z"/>
	<path fill="#FFFFFF" d="M492.9,685.4c4.7-0.9,9.4-1.2,14.2-0.2c-0.2,0.3-0.2,0.7-0.3,0.7c-4.8,0.3-9.6,0.8-14.4,0.9
		c-3.6,0.1-5.7-2-6-5.6c-0.2-3.9,0.5-7.7,1.5-11.5c0.6-2.2,3.7-2.2,3.9-4.5c1.2-0.2,2.1-0.1,3.2,0.5c-0.4,1-2,0.7-2.2,1.9
		c0.2,1.1,1.2,0.9,1.9,1.2c0,0.8-1.5,0.8-0.8,2.2c2.2,0.1,4.7,1.7,6-2c0.3-0.8,2-0.5,2.6-1.7c0.3-1.2-0.7-1.4-1.7-1.8
		c0.4-0.9,2-0.8,1.9-2.3c-1.5-1.7-3.4,0-5.1-0.2s-3.5,0.2-5.2,0.3c-1.8-1.9,0.2-3.4,0.4-5.1c4.3-1.2,8.8-0.2,12.8-2.2
		c-4.1-2.1-8.1-0.4-12,0.4c-0.7-1,0.1-1.7,0.2-2.5c4.5-0.6,8.9-0.5,13.6-0.7c-1.6-2.1-1.6-2.1-12.3-1.8c0.3-2.9,0-5.7-0.2-8.6
		c3.8-1.3,7.3-0.5,11.3-0.1c-0.1,5.9,2.4,9.9,8.3,11.5c1.4,2.5,2.7,5.1,4.3,7.5c1.5,2.2,1.1,3.9-0.3,5.8c-1,1.3-2.1,2.5-3.2,3.9
		c-1.1-0.3,0.1-1.9-1.5-2.2c-0.7,2.8-0.8,5.5,0.1,8.4c1.3,4.1-0.4,7.2-4.1,8C505.7,682.5,497.4,682.3,492.9,685.4z"/>
	<path fill="#FFFFFF" d="M511.6,650.2c-0.9-0.4-1.9-0.8-2.9-1.3c0-0.7-0.1-1.3-0.1-1.9c1.1-1,2.4-1.1,3.5-1.5
		C513.7,647.8,513.7,647.8,511.6,650.2z"/>
	<path fill="#FFFFFF" d="M922.4,660.6c1.2-0.4,2.4-0.7,3.7-0.3C924.8,661,923.6,660.8,922.4,660.6L922.4,660.6z"/>
	<path d="M902.8,521.6c-2.6,3.2-5.3,3.9-7.3,2c-1.6-1.5-1.7-3.8-0.4-5.4c1.9-2.2,4.4-2,7.4,0.8c1.6-2.2,3.4-4,6.4-2.7
		c2.9,1.3,2.3,4,2.2,6.6C908.1,524.1,905.1,524.7,902.8,521.6z"/>
	<path d="M849.6,489.1c-7.6,3.3-15,1-22.4-0.6C830.8,487.7,848.4,488,849.6,489.1z"/>
	<path d="M850,479.6c-8-1.6-15.4-4.1-22.9-6.9c2,0.3,3.9,0.5,5.9,0.8c4.7,0.8,9.2,2.7,14,3.4C848.3,477.1,849.7,477.6,850,479.6z"/>
	<path d="M887,423.1c1.7-1.4,1.7-1.4,3.7-0.6c-1.4,4.5,3.6,7.6,2.8,12.1c-1.2-2-3.1-3.4-4.1-5.4C888.5,427.2,887.8,425.1,887,423.1z
		"/>
	<path d="M893.9,524.6c-2.4,1-2.7-1.7-4.2-1.7c-1.5,0.1-0.3,2.1-2,2.3c-1.3-2.1-0.5-4.7-1.1-6.9c1.4-0.9,2.9-0.7,4.2-0.7
		c1.9,0.1,3.1,1.4,2.3,3.1C892.4,522.3,892.7,523.4,893.9,524.6z"/>
	<path d="M808.1,455.9c-0.5,8.3-4.3,15.7-6.6,23.5c-0.7-4.3,2-7.8,3-11.7C805.5,463.7,806.9,459.9,808.1,455.9z"/>
	<path d="M830.1,372c6.1-3.8,12.3-7.5,18.4-11.3c0.2,0.3,0.3,0.5,0.5,0.8c-6.1,3.9-12,8-18.3,11.4
		C830.5,372.7,830.3,372.4,830.1,372z"/>
	<path d="M861.9,356.8c5.5,4.2,9,10,12.2,16.1C869.9,367.7,866.5,361.9,861.9,356.8z"/>
	<path d="M860,489.8c5.1,0.2,10.1,1.2,14.8,3C869.7,492.6,864.7,491.9,860,489.8z"/>
	<path d="M838.9,364.1c4.2-3.8,8.6-7.3,12.2-11.9C850.3,355.8,843.9,362.1,838.9,364.1z"/>
	<path d="M859.5,374.4c0.4,4.4-1.9,8.7-0.3,13.1C855.6,383.1,858,378.7,859.5,374.4z"/>
	<path d="M905.9,444c0.2-6-2.2-11.6-2.6-17.5C905,432.2,906.8,437.9,905.9,444z"/>
	<path d="M846.4,455.4c-4.7,0.8-9.2-1.2-13.7-2.2c4.6,0.5,9.1,0.9,13.7,1.4C846.4,454.9,846.4,455.2,846.4,455.4z"/>
	<path d="M860.6,370.5c-3.8-3.2-4.7-7-2.8-10.7C857.7,363.4,858.9,366.7,860.6,370.5z"/>
	<path d="M805.8,508.6c-2.8-2.7-5.6-5.4-6.2-9.7C800.9,499.3,804.8,505.7,805.8,508.6L805.8,508.6z"/>
	<path d="M847.2,494.7c-3.3,2.3-7.2,3-10.4,5.4C837.7,497.3,843.6,494.2,847.2,494.7z"/>
	<path d="M856.9,395c0.1,3.8-0.7,7,0.3,10.1C854.4,403,854.2,399.7,856.9,395z"/>
	<path d="M876.8,422.4c-1,3.6,1.6,7.3-0.7,10.7C877.9,429.6,873.7,425.7,876.8,422.4z"/>
	<path d="M821.9,352.5c-2.1-2-5-3.3-5.7-6.4c0.2-0.2,0.4-0.4,0.6-0.5c1.9,2.1,3.8,4.2,5.8,6.3C822.4,352.1,822.1,352.3,821.9,352.5z
		"/>
	<path d="M866.6,480.7c-4.3,0.6-7.8-0.4-11.3-1C859,479.1,862.5,479.8,866.6,480.7z"/>
	<path d="M868.5,426.1c-2-2.1-1.7-5.1-3.8-7C867.4,419.1,868.2,420.8,868.5,426.1z"/>
	<path d="M874.5,518.3c-2-2.7-2.8-5.8-3.4-9C873,512,873.8,515.2,874.5,518.3z"/>
	<path d="M854.8,491c-1.8-2.9-1.7-6.3-2.1-9.5C854.6,484.3,854.3,487.7,854.8,491z"/>
	<path d="M846.9,467.7c-3.2-1-6-2.9-8.8-4.9c3,1.4,6.1,2.8,9.1,4.2C847.2,467.3,847.1,467.5,846.9,467.7z"/>
	<path d="M896.9,420.6c1.4,2.3,3.7,3.9,4.4,6.5C899.4,425.1,897.1,423.5,896.9,420.6z"/>
	<path d="M858,495.8c3.5-0.6,5.5,2,7.8,3.8C863.1,498.4,860.2,497.6,858,495.8L858,495.8z"/>
	<path d="M805.8,508.6c0.4,3,2.7,5.3,2.9,8.4C806.1,514.7,805.6,511.7,805.8,508.6L805.8,508.6z"/>
	<path d="M870.9,466.6c1.9-0.3,3.8-0.7,5.7-1c-1.7,1.2-3.6,1.6-5.6,1.8C870.9,467.1,870.9,466.8,870.9,466.6z"/>
	<path d="M834.6,424.3c-0.7-1.7-1.8-3.4-0.9-5.5C835.4,420.7,834.8,422.5,834.6,424.3z"/>
	<path d="M819,451.5c-2-1.3-3.6-3.1-5.1-4.9c2.2,1.1,3.9,2.6,5.5,4.5c0.1,0.2,0.2,0.4,0.2,0.6C819.4,451.6,819.2,451.6,819,451.5z"
		/>
	<path d="M819.9,422.9c0.7-2.1,0.2-4.6,2.3-6.2C821.8,419,821.8,421.3,819.9,422.9L819.9,422.9z"/>
	<path d="M878.5,325.7c1.8-0.3,3.3-0.6,4.8,0.7C880.8,327.1,880.8,327.1,878.5,325.7z"/>
	<path d="M880.8,443.8c-1.7,0.1-3.2,0.6-5.6,1C877.5,443.4,879.2,443.5,880.8,443.8z"/>
	<path d="M823.3,455c-1.7-0.9-3-2.1-4.3-3.5c0.1-0.1,0.3-0.3,0.4-0.4c1.6,0.9,3,2.1,4.2,3.6c0.1,0.2,0.2,0.4,0.2,0.6
		C823.7,455.2,823.5,455.1,823.3,455z"/>
	<path d="M854.8,450.2c0-1.4,0-2.8,0-4.2c0.1,0,0.1,0,0.2,0c0,1.4,0,2.8,0,4.2C854.9,450.2,854.9,450.2,854.8,450.2z"/>
	<path d="M908,474.7c-0.7-1.5-0.5-2.7-0.2-4.3C908.9,472,909.3,473.1,908,474.7z"/>
	<path d="M872.6,325c1-1.1,1.8-1.2,2.7-0.7C874.7,325.4,873.8,325.5,872.6,325z"/>
	<path d="M823.6,454.7c1.3,0.8,2.7,1.5,3.3,3.1l0.1-0.1c-1.6-0.4-2.7-1.5-3.7-2.6C823.4,454.9,823.5,454.8,823.6,454.7z"/>
	<path d="M854.2,455.5c0-0.8,0-1.5,0-2.3c0.1,0,0.1,0,0.2,0c0,0.7,0,1.5,0,2.2C854.3,455.5,854.2,455.5,854.2,455.5z"/>
	<path d="M811.1,443.9c1-0.1,1.3,0.7,1.6,1.4c-0.6,0.7-0.9,0.3-1.3-0.2C811.2,444.7,810.9,444.4,811.1,443.9z"/>
	<path d="M907,490.9c-0.8-0.3-1.1-0.9-1.2-1.8C906.7,489.5,906.7,490.3,907,490.9L907,490.9z"/>
	<path d="M823,487.9c-0.4,0-0.8,0-1.3,0v-0.1c0.4,0,0.8,0,1.3,0C823,487.8,823,487.8,823,487.9z"/>
	<path d="M829.5,317c0.4-0.1,0.4,0.2,0.6,0.4C829.7,317.6,829.6,317.2,829.5,317z"/>
	<path d="M819.8,422.9c0.1,0.7,0.1,1.4-1.1,1.4C819.1,423.7,819.5,423.3,819.8,422.9L819.8,422.9z"/>
	<path d="M818.2,471.4c0.2,0,0.3,0,0.4,0c0,0,0,0.1,0.1,0.1C818.6,471.5,818.5,471.5,818.2,471.4z"/>
	<path d="M907.3,467.9c-0.4-0.2-0.2-0.5-0.2-0.7c0.1,0.1,0.2,0.3,0.2,0.4C907.4,467.7,907.4,467.8,907.3,467.9z"/>
	<path d="M826.2,376c0-0.6,0.3-0.7,0.8-0.8C827.1,375.8,826.7,376,826.2,376z"/>
	<path d="M826.9,457.7c0.6-0.1,1.1,0.1,1.4,0.7C827.6,458.7,827.2,458.2,826.9,457.7L826.9,457.7z"/>
	<path d="M897.5,363.2c-0.3,1-0.8,1.2-1.6,1C896,363.2,896.4,362.8,897.5,363.2z"/>
	<path d="M910.3,325.1c2.3,7,2.2,14.6,7.4,20.3C912.4,342.6,907.5,329.6,910.3,325.1z"/>
	<path d="M936.9,359.7c0-4-2.2-8.1,0.6-12c0.3,0,0.7,0,1,0c-0.2,4-0.5,8-0.7,12C937.5,359.7,937.2,359.7,936.9,359.7z"/>
	<path d="M938.3,339.6c-0.1,3.2-1.8,5.7-4,7.9C935.1,344.6,935.9,341.7,938.3,339.6z"/>
	<path d="M929.3,321.1c3.1,1.3,4.8,3.6,5,7C932.9,325.5,930.7,323.6,929.3,321.1z"/>
	<path d="M925.1,307.1c-1.8,1.2-2.8,1.1-3.7-0.6C922.8,305.6,923.8,305.8,925.1,307.1z"/>
	<path d="M952,400.4c0.5-2.2,1.4-3,3.2-3.1C954.8,399,953.7,399.5,952,400.4z"/>
	<path d="M937.2,336.6c-1-1-1.1-2.1-1.2-3.6C937.7,334,937.7,335.2,937.2,336.6z"/>
	<path d="M930.2,352.7c1.1-0.5,2.1-1.5,3.6-0.9C933.1,353.8,931.7,353.3,930.2,352.7z"/>
	<path d="M958.8,375.8c1.3,0.4,1.6,1.2,1.9,2.1c-0.3,0.2-0.5,0.5-0.6,0.4C958.9,378,958.6,377.1,958.8,375.8z"/>
	<path d="M921.3,311.9c-1,0.9-1.7,1.1-2.4,0.3C919.4,311.2,920.1,311.1,921.3,311.9z"/>
	<path d="M937.6,364.8c1.4,0.3,1.3,1.1,0.9,2.1C937.4,366.5,937,365.9,937.6,364.8z"/>
	<path d="M957.1,370.7c1.2,0.8,1.7,1.4,1.1,2.5C957,372.9,957.1,372,957.1,370.7z"/>
	<path d="M926.3,314.9c1.7,0.1,2,0.5,1.7,1.4C927.1,316.5,927.2,315.6,926.3,314.9z"/>
	<path d="M955,395.5c-0.8-0.9-0.4-1.5,0.5-2.1C955.9,394.3,956.1,395,955,395.5z"/>
	<path d="M958.7,390.5c1.2,0,1.2,0.6,1.1,1.4C958.8,392,958.7,391.5,958.7,390.5z"/>
	<path d="M929.5,319.7c-0.7,0-1.1-0.1-1.1-0.7c0-0.1,0.2-0.4,0.4-0.4C929.4,318.5,929.5,319,929.5,319.7z"/>
	<path d="M811.4,531.9c1,1.1,2,2.3,3,3.3c2.2-0.3,4-0.7,6.1,0.1c-1.4,1.9-3.5,1.7-5.6,2.7c1.5,4.5-1.5,7.9-3.2,12
		c-1.6-1.7-1.5-3.5-0.5-4.6c2.1-2.4,2.2-5.2,2.7-8.1c-1-1.2-2.7-1.9-3.5-3.3C809.7,532.7,809.7,531.9,811.4,531.9L811.4,531.9z"/>
	<path d="M799.4,548.2c0.5,0,1.1-0.1,1.2,0.4c0.9,3.7,1.7,7.4,2.2,11.2C800.9,556.2,798.8,552.6,799.4,548.2L799.4,548.2z"/>
	<path d="M809.5,544.9c-2.9,0.6-5.1-0.4-8-0.3C804.5,542,806.7,542.1,809.5,544.9z"/>
	<path d="M815.2,568c0.6,3.2-0.3,6.1-1.8,8.9C813.4,573.7,813.8,570.7,815.2,568z"/>
	<path d="M812.1,593.2c-1.4-2.9-0.7-5.7,0.8-8.4C812.6,587.7,812.5,590.5,812.1,593.2z"/>
	<path d="M811.9,550.8c0.8,2.8,0.8,2.8-2.4,4.5C809.7,553.2,812.1,552.8,811.9,550.8z"/>
	<path d="M806.8,617.5c1.1,1.1,0.7,1.8,0.1,3.1C806.5,619.4,806.4,618.6,806.8,617.5z"/>
	<path d="M807.3,636.1c0.9,1.3,1.3,2.2,1,3.3C807.2,638.4,807.2,638.4,807.3,636.1z"/>
	<path d="M823.6,550.9c-0.9,0.6-1.8,1.6-3.3,0.6C821.3,550.4,822.2,549.8,823.6,550.9L823.6,550.9z"/>
	<path d="M822.7,546.1c0.7-1.1,1.3-1.5,2.5-1.2C824.9,546.6,824,546.4,822.7,546.1z"/>
	<path d="M818.6,563.1c0,0.8-0.5,1.2-1.1,1.8c-0.5-1,0.2-1.5,0.6-2C818.2,562.7,818.5,562.8,818.6,563.1z"/>
	<path d="M802.3,567.2c-0.3-0.6-0.9-1.1,0-1.7c0.9,0.3,0.7,1,0.6,1.7C802.8,567.4,802.6,567.4,802.3,567.2z"/>
	<path d="M806.4,549.4c-0.5,0.6-0.8,0.6-1.2,0.2c-0.1-0.1-0.1-0.4,0-0.5C805.6,548.7,805.9,549,806.4,549.4z"/>
	<path d="M812,595.9c0.2,0.1,0.5,0.1,0.5,0.3c0.2,0.3,0.1,0.6-0.3,0.7c-0.2,0-0.5-0.1-0.5-0.2C811.6,596.3,811.7,596,812,595.9z"/>
	<path d="M877.6,232.8c-3.9,0.6-8,2-11.1-1.8c1.9-3.8,8.1-4.2,12.7-0.8c-1.6,1-2.5-0.9-4.1-0.7c-0.9,0.9-2.8,0.1-4.3,1.2
		C873.1,231.6,875.6,231.3,877.6,232.8z"/>
	<path d="M860.4,230.8c-3.1,2.9-6.8,3.3-11.4,2.2c2.3-1.9,4.9-1.5,7.4-2.4c-2.9-1.1-5.6-1.3-8.3,0
		C851.8,226.7,858.8,226.9,860.4,230.8z"/>
	<path d="M868.8,256.6c-3.4,0.7-6.3,0.1-9.4,0c0-1.9,0.7-2.8,2.2-3C863.8,253.1,867.3,254.3,868.8,256.6z"/>
	<path d="M871.3,252.2c-5,0.7-10-0.4-15,0.1C858.8,250.3,868,250.2,871.3,252.2z"/>
	<path d="M866.5,246.5c-2-0.4-3.5-1.2-5,0c-0.5-2,0.4-2.4,1.5-2.5C864.6,243.8,865.8,244.2,866.5,246.5z"/>
	<path d="M861,294.9c-1.7-3.3,0.6-7.4,3.5-6.8c3.5,0.7,6.4-0.6,9.5-1.2c2-0.4,4-1,6.2-0.7c-2.8,2.1-6.1,2.5-9.3,3.2
		c-0.8,0.2-1.6,0.2-2.4,0.3C865.2,290.2,862.1,291,861,294.9z"/>
	<path d="M860.5,295.2c0.1,2.7-0.6,5.2-2.4,8c-2.1-2.9-0.8-5.8-1.5-8.4c2-0.7,1.4,1.1,2.3,1.4C859.8,296.5,859.1,294.8,860.5,295.2z
		"/>
	<path d="M864.1,274.9c1.2,0.5,2.4,0,3.2,1c-2.3,2.2-4.2,1.1-6.4-3.6C863.4,271.5,863.4,273.7,864.1,274.9z"/>
	<path d="M851.8,283c0.3,0.6,0.9,1.1,0.4,2.4c-1.5-1.5-3-2.8-4.4-4.2c-0.5-0.5-0.1-0.8,0.3-1l-0.1-0.1c0.8,1,1.9,1.5,3,2.2
		C851.5,282.3,851.7,282.5,851.8,283z"/>
	<path d="M854.4,270.1c-1.9-1-3.1-2.6-3.5-5c1.3,1.5,2.7,2.9,4,4.4C854.7,269.8,854.5,269.9,854.4,270.1z"/>
	<path d="M852,273.9c-2.1-0.6-2.7-1.4-2.4-3.1C851.1,271.1,851.2,272.4,852,273.9z"/>
	<path d="M848.7,264.9c1,0.9,0.8,1.8,0.6,3C848.8,266.9,848.3,266.1,848.7,264.9z"/>
	<path d="M857.7,289.1c-1.3,0.1-2-0.3-2.7-1.3C856.1,287.6,856.9,287.7,857.7,289.1z"/>
	<path d="M851.8,283c-0.3-0.3-0.5-0.5-0.8-0.8c0.1-0.4,0.1-1.1,0.8-0.6C852.3,282,852.4,282.5,851.8,283z"/>
	<path d="M872.7,279c0-0.8,0.3-1.1,0.9-1.2C874,278.9,873.3,278.8,872.7,279z"/>
	<path d="M876,279.5c0.3-0.7,0.5-1.2,0.9-0.6C877.1,279.1,876.6,279.3,876,279.5z"/>
	<path d="M266.6,365.7c5.9-4.3,11.8-8.6,18.4-11.8C279.1,358.3,273.2,362.7,266.6,365.7z"/>
	<path d="M298.3,349c4.1,2,11.7,11.8,13.6,17.5C307.3,360.2,303.4,354.2,298.3,349z"/>
	<path d="M287.6,344.7c-3.1,5.3-7.2,9.7-12.8,12.6C279.2,353.2,283.6,349.2,287.6,344.7z"/>
	<path d="M296.4,380.4c-4-4.3-1.2-9-0.2-13.5C297.3,371.3,294.2,375.9,296.4,380.4z"/>
	<path d="M294.1,388.7c0.3,3.3-0.4,6.6,0.7,9.9C291.8,396.4,291.6,393.4,294.1,388.7z"/>
	<path d="M292.9,324c-1.2,3.8-4.8,5.5-11,5.3C285.6,327,290.1,327.3,292.9,324z"/>
	<path d="M297.1,362.6c-3.7-3.5-4.5-6.5-2.9-10.6C294.3,355.8,295.6,359.2,297.1,362.6z"/>
	<path d="M338.1,342.3c-1.5,3.1-5.5,5.1-9.9,5.2C331.9,345.6,335,343.9,338.1,342.3z"/>
	<path d="M300.5,328.5c-1.8-0.8-3.3-1.8-3.7-4c1.2,1.3,2.8,2.3,4.1,3.5c0.1,0.2,0.1,0.4,0.2,0.6
		C300.9,328.6,300.7,328.5,300.5,328.5z"/>
	<path d="M320.7,329.4c0.8-1.6,1.8-1.1,3-0.8C322.7,328.8,322.1,329.9,320.7,329.4z"/>
	<path d="M293.1,321.2c-0.4-1-0.6-1.7,0.2-2.1C293.9,319.8,293.7,320.4,293.1,321.2z"/>
	<path d="M300.9,328c0.6,0.4,1.2,0.7,1.8,1.1c-1.1,0.8-1.6-0.2-2.2-0.6C300.6,328.3,300.8,328.2,300.9,328z"/>
	<path d="M263.7,348.7c0.8-0.6,1,0,1.4,0.2C264.3,349.6,264.2,348.9,263.7,348.7z"/>
	<path d="M333.5,355.5c0.3-0.9,0.7-1.4,1.7-0.8C334.9,355.7,334.4,356.1,333.5,355.5z"/>
	<path d="M350.8,519.4c-3.1,0.9-6,1.9-8-1.4c-3,3.3-5.6,3.9-7.6,1.9c-1.5-1.5-1.6-3.8-0.2-5.4c1.9-2.1,4.4-1.9,7.4,1
		c1.4-2.2,3.2-3.9,6.1-2.8C351.6,514,351,516.7,350.8,519.4z"/>
	<path d="M333,428.3c-3.4-3.9-6.3-7.6-6.9-12.4c1.2-1.5,2.3-1.1,3.6-0.2C328.2,420.3,333.6,423.3,333,428.3z"/>
	<path d="M333.6,521.3c-2.4,0.4-2.7-1.8-3.8-1.9c-1.8,0.1-0.6,2.1-2.2,2.3c-1.5-2.1-0.6-4.7-1.2-6.9c1.4-1,2.8-0.8,4.2-0.7
		c1.9,0.1,3.1,1.4,2.3,3C332.2,518.7,332.6,519.9,333.6,521.3z"/>
	<path d="M299.6,485.4c5.4,0.2,10.7,0.9,15.8,3C310,488,304.7,487.3,299.6,485.4z"/>
	<path d="M345.7,437.1c-0.1-6-2.5-11.6-3.2-17.5C344.4,425.3,346.4,431,345.7,437.1z"/>
	<path d="M315.1,415.8c-0.3,3.7,1.2,7.4-0.1,11C316,423.1,312.7,419.3,315.1,415.8z"/>
	<path d="M294.4,486.8c-2.3-2.8-1.8-6.4-2.3-9.7C293.7,480.1,294.1,483.5,294.4,486.8z"/>
	<path d="M311.5,504.4c2,3.3,2.7,6.6,4.2,10C313.3,512.4,311.7,508.5,311.5,504.4z"/>
	<path d="M294.6,475.1c3.7-1.1,7.3,0.3,11,0.6C301.8,476.3,298.2,476,294.6,475.1z"/>
	<path d="M307,420.2c-2-2.7-2.1-5.4-3.9-7.4C305.6,412.6,306.4,414.1,307,420.2z"/>
	<path d="M297.8,491.5c3.4-0.8,5.3,1.8,7.6,3.3C302.6,494.2,300,493.2,297.8,491.5L297.8,491.5z"/>
	<path d="M272.3,419.8c-1.1-2.4-1.8-4.2-1-6.3C272.1,415.2,272.8,417.1,272.3,419.8z"/>
	<path d="M339.4,419c-3.6-3.5-3.6-3.5-3.4-6.2c1.4,2.2,2.6,4,3.8,5.9c0.1,0.2,0.1,0.4,0.2,0.6C339.8,419.1,339.6,419,339.4,419z"/>
	<path d="M293.1,440.7c0.6,2.3,0.5,4.7,0,7C293.1,445.4,293.1,443.1,293.1,440.7z"/>
	<path d="M348.5,468.9c-0.7-1.5-0.5-2.6-0.1-4.5C349.3,466.2,350,467.2,348.5,468.9z"/>
	<path d="M315.5,460.4c-1.5,1.3-3.3,1.5-5.8,1.6C311.9,460.7,313.7,460.5,315.5,460.4L315.5,460.4z"/>
	<path d="M316.1,438.6c1.3-1.2,2.8-1.5,4.6-0.9C319.1,438,317.6,438.3,316.1,438.6z"/>
	<path d="M285.5,450.1c-1.8,0.6-2.9,0.8-4.5-0.2C282.7,449,283.9,449.2,285.5,450.1z"/>
	<path d="M315.5,460.5c1.1-0.4,2.2-0.8,4.1-1.4C317.9,460.5,316.7,460.5,315.5,460.5L315.5,460.5z"/>
	<path d="M347.1,459.9c0.5,0.7,0.9,1.1,0.6,1.8C347.1,461.3,346.9,460.8,347.1,459.9z"/>
	<path d="M258.5,414.1c-0.4-1.1-0.6-2.1,0.7-3.3C259.8,412.4,258.7,413.1,258.5,414.1L258.5,414.1z"/>
	<path d="M339.8,418.6c0.5,0.3,0.8,0.8,1,1.4c-0.9,0.2-1.1-0.5-1.4-1.1C339.5,418.9,339.7,418.7,339.8,418.6z"/>
	<path d="M236.9,338.3c4.5,3.5,7.1,9.6,5.1,13.8C241.4,346.6,238.8,342.6,236.9,338.3L236.9,338.3z"/>
	<path d="M254.2,307.4c0.8,4.3-3.1,10.7-7.6,12.3C250.6,316.2,252.1,311.9,254.2,307.4z"/>
	<path d="M230.8,387.5c-1.6-2.7-1.8-5.5-1.6-8.5C231.4,381.6,230.5,384.7,230.8,387.5z"/>
	<path d="M232,391.6c0.3,2.8,2.3,5.2,1.3,8.2C232.8,397,231.6,394.4,232,391.6z"/>
	<path d="M256.8,277.5c-2.4,1.4-2.5,1.3-4.5-1.9C254.3,274.9,255.6,275.5,256.8,277.5z"/>
	<path d="M253,293.4c1.3,1.9,1.8,3.9,1.3,6.1C253.2,297.5,252.2,295.6,253,293.4z"/>
	<path d="M236,283.3c-0.3,2.5-2,4.1-3.5,5.8C233.1,286.8,234.4,285,236,283.3z"/>
	<path d="M243.3,404.9c-2-1-2.1-3-2.6-4.8C242.6,401.2,242.4,403.3,243.3,404.9z"/>
	<path d="M232.7,330.6c-0.7-1.4-1.4-2.9-2-4.3C232.9,327,232.7,328.8,232.7,330.6z"/>
	<path d="M231.3,304.1c-0.9-1.6-0.7-3.1-0.5-5.5C231.9,300.9,231.5,302.5,231.3,304.1z"/>
	<path d="M271.4,479.2c1.2,1.5,0.8,2.6,0.9,3.9C270.5,482.1,270.7,481,271.4,479.2z"/>
	<path d="M244.8,317.9c-0.3,1.8-0.9,2.5-2.4,2.5C242.6,319.3,243.3,318.8,244.8,317.9z"/>
	<path d="M245.7,410.4c-1.5-0.9-1.7-1.8-1.9-3C245.1,407.9,245.1,409,245.7,410.4z"/>
	<path d="M244.7,480.5c1,0.7,1,1.3-0.1,2.1C244,481.8,243.9,481.2,244.7,480.5z"/>
	<path d="M254.9,302.7c0.7,0.6,0.6,1.1-0.1,1.6C253.6,303.7,254.1,303.2,254.9,302.7z"/>
	<path d="M234.8,334.3c-1.1-0.4-1.5-0.9-1-2.1C234.5,332.6,235,333,234.8,334.3z"/>
	<path d="M237,338.2c-0.9-0.7-1.5-1.5-1.6-2.9C237.3,335.9,237.3,337,237,338.2L237,338.2z"/>
	<path d="M249,430.4c-1.3-0.5-1.6-1.2-2-2.2C248.5,428.3,248.8,429.1,249,430.4z"/>
	<path d="M258.9,467.9c0.3,0,0.6,0.1,0.9,0.1c-0.3,0-0.6,0-0.9,0C258.9,467.9,258.9,467.9,258.9,467.9z"/>
	<path d="M232.2,309.7c-0.6-0.3-0.8-0.7-0.4-1.3C232.3,308.7,232.6,309.1,232.2,309.7z"/>
	<path d="M258.3,278.3c1-0.4,1.5,0.1,1.9,0.9C259.2,279.6,258.8,278.9,258.3,278.3z"/>
	<path d="M230.8,353.5c0.1-0.2,0.2-0.3,0.3-0.5c0.2,0.2,0.5,0.3,0.7,0.5c0,0-0.2,0.4-0.3,0.5C231.1,354,230.8,353.8,230.8,353.5z"/>
	<path d="M246,354.1c-0.6-0.7-0.5-1.2-0.2-1.7C246.7,352.7,246.3,353.3,246,354.1z"/>
	<path d="M275.5,484.8c0.5-0.7,0.8-0.8,1.2-0.4c0.1,0.1,0.1,0.5,0.1,0.6C276.3,485.5,275.9,485.3,275.5,484.8z"/>
	<path d="M251.1,529.8c0.6,1.3,2,1.9,3,3.1c1.8-0.3,3.7-0.5,5.7-0.1c-1.2,1.7-1.2,1.7-5.5,2.9c-1.7-1.6-4.4-2.4-5-5.1
		C249.8,529.6,250.6,529.9,251.1,529.8L251.1,529.8z"/>
	<path d="M252.9,540.3c0.3-1.5-0.6-2.8,0.5-3.9c2.4,2.5,2,4.8-2.1,11.6C249.6,545.3,249.8,544.3,252.9,540.3z"/>
	<path d="M253.6,576.1c0.2-3.7,0.4-6.7,1.7-10C256.5,568.8,255.9,571.9,253.6,576.1z"/>
	<path d="M241.5,542.4c2.9-2.1,5.2-1.8,7,0.6C246.1,543.8,243.8,542.9,241.5,542.4z"/>
	<path d="M253,592.5c-1.9-3.1-0.6-5.9,0.7-8.8C253.2,586.6,253.2,589.6,253,592.5z"/>
	<path d="M249,553.4c1-1.6,2.3-2.7,2.8-4.8C252.9,551.8,252.5,552.4,249,553.4z"/>
	<path d="M249.9,640.8c-1.2-2.3-1.2-2.3-0.9-4.1C249.9,638.3,249.9,638.3,249.9,640.8z"/>
	<path d="M248,617.4c1.2,1.2,0.9,2,0.5,3C247.2,619.6,247.9,618.6,248,617.4z"/>
	<path d="M263.2,549.6c-0.9-0.1-1.7,0.8-2.8,0c0.3-1.2,1.4-1.2,2.1-1.5C263.4,548.6,263.2,549.2,263.2,549.6L263.2,549.6z"/>
	<path d="M243.3,566.8c-1.4-0.9-1.6-1.5-1.1-2.6C243.1,564.7,243,565.6,243.3,566.8z"/>
	<path d="M265.4,542.9c-0.7,1.5-1.6,1.2-2.9,1.3C263.4,542.9,264,542.2,265.4,542.9z"/>
	<path d="M258.8,560.9c0.2,1.4-0.5,1.8-0.7,2.4c-0.9-0.3-0.6-0.8-0.4-1.1C257.9,561.8,258.3,561.5,258.8,560.9z"/>
	<path d="M244.5,547.8c0.7-0.8,1.2-0.6,1.5,0C245.6,548.6,245.2,548.4,244.5,547.8z"/>
	<path d="M302.4,266c-2.6,2-4.7,0.9-6.9-3.8c2.6-0.9,2.6,1.6,3.3,2.6C299.9,265.7,301.3,264.8,302.4,266z"/>
	<path d="M310.2,267.8c0.8-2.5,1.5-4.9,2.5-8C313.7,263.3,313.2,265.2,310.2,267.8z"/>
	<path d="M289.8,284.8c2.8,1.5,5.2,3.4,5.4,7C293.5,289.3,291.7,287,289.8,284.8z"/>
	<path d="M293.4,284.9c1.5,0.7,3.7-0.9,5.2,1.3C296.2,287.1,294.6,286.7,293.4,284.9z"/>
	<path d="M289,259.9c-2.3-0.6-3.4-2.5-4.3-4.5C286.7,256.3,287.6,258.4,289,259.9z"/>
	<path d="M299.8,288.2c1.4-1.5,3.2-1.8,5.1-2.2C303.5,287.3,301.8,287.9,299.8,288.2z"/>
	<path d="M286.2,264.1c-2.1-0.6-2.8-1.4-2.2-3.4C285.4,261.4,285.7,262.6,286.2,264.1z"/>
	<path d="M315.6,268.5c-0.9-1.3-0.6-2.2-0.2-3.5C316.5,266.2,316.4,267.2,315.6,268.5z"/>
	<path d="M282.6,254.9c1.4,0.9,0.8,1.9,0.6,2.8C283.1,256.9,282.9,256.1,282.6,254.9z"/>
	<path d="M308.7,281.1c0.8-1.2,1.1-2.1,2.3-2.3C310.5,279.8,310.1,280.5,308.7,281.1z"/>
	<path d="M284.9,282c-1.1,0.5-1.5,0-1.7-0.8C284,280.7,284.4,281.2,284.9,282z"/>
	<path d="M282.3,222.3c2.4-2.2,5.1-1.3,7.2-2.8c-1.6-0.3-3.1-0.1-4.1-0.7c-1.8-0.3-2.5,1.8-4.2,1c3.9-4,10.8-4,12.9,0
		C290.9,222.8,287.1,223.3,282.3,222.3z"/>
	<path d="M300.2,219.9c2.2-4.2,9.5-4.6,13-0.9c-1.5,0.6-2.3-0.9-3.9-1c-1.1,1.1-3.2,0.2-4.6,1.6c2.5,0.7,5.1,0.1,7.4,1.7
		C307,222.9,303.8,222.6,300.2,219.9z"/>
	<path d="M306.1,241.3c-2.3,0.8-14,0.9-15.8,0.3C292.4,239.8,301.9,239.5,306.1,241.3z"/>
	<path d="M293.5,246.3c0.3-2.4,1.3-3.5,2.9-3.1c2.2,0.5,5.3-1.2,6.6,2.6C299.8,247.1,296.8,245.9,293.5,246.3z"/>
	<path d="M300.5,235.7c-2-0.4-3.4-1.2-5,0.2c-0.3-2.3,0.7-2.7,1.9-2.8C298.8,233.1,300.1,233.4,300.5,235.7z"/>
	<path d="M623.5,509.8c1.9-2.2,4.2-3.1,6.9-1.9c2,0.9,2,2.7,1.6,4.7c-2.7,0.5-5.4,1.3-8.1-1.1c-1.5,1.9-3.4,2.7-5.8,2.3
		c-1.5-0.3-2.7-1-2.8-2.7c-0.1-1.5,1-2.3,2.4-2.7C619.8,507.6,621.7,508.2,623.5,509.8z"/>
	<path d="M592,487c-4.4,2.5-9.2,4-13.8,6.9c2.2,3.6,4,7.2,4.5,11.3c-2.2-3.9-2.8-8.8-7.6-11.6C580.4,489.7,586,487.7,592,487z"/>
	<path d="M585.5,509.3c1.3,1,2.6,1.6,4.4,1.6c4.6,0.2,9.2,0.7,13.7,2.1c-5.3,0.2-10.4-0.9-15.9-1.5c1.2,2.2,2.2,4.1,3.5,6.4
		C589,516.2,586.4,512.3,585.5,509.3L585.5,509.3z"/>
	<path d="M614.3,509.9c0.1,1.7-1.4,2.9,0.1,4.2c-1.8,0.8-2.4-1.1-3.8-1c-1.1,0-0.6,1.9-2.2,1.5c-0.8-1.5-0.3-3.4-0.7-5.3
		C610,508.8,612.1,508.1,614.3,509.9z"/>
	<path d="M571.6,491.8c-4.2-1.1-8.4-2.1-12.6-3.2c4.5,0.3,9,0.1,13,2.4C571.8,491.3,571.7,491.5,571.6,491.8z"/>
	<path d="M589.3,496.2c-2.9,0.4-5.8,1.2-8.8-1.6C583.9,495.2,586.6,495.7,589.3,496.2z"/>
	<path d="M592.2,504.1c-2.1,1.2-4.4,2-6.8,2.2C587.4,504.5,589.9,504.5,592.2,504.1z"/>
	<path d="M583.7,499c1.7-1.4,3.3,0,4.9,0C587,499.6,585.3,499.6,583.7,499z"/>
	<path d="M574.6,491.7c-0.7-1.5-0.4-2.8,0.4-4.1C575.9,489,574.8,490.3,574.6,491.7z"/>
	<path d="M582.1,509.2c0.6,0.1,1,0.5,1.3,1.1c-0.9,0.4-1.2-0.3-1.6-0.8C581.9,509.4,582,509.3,582.1,509.2z"/>
	<path d="M625.2,487.4c-0.6,0-1.1,0.1-1.7-0.4C624.3,486.5,624.8,486.7,625.2,487.4L625.2,487.4z"/>
	<path d="M585.5,509.3c-0.8-0.2-1.1-0.6-1.1-1.5C585.3,508,585.5,508.6,585.5,509.3L585.5,509.3z"/>
	<path d="M536.5,457.8c-4-0.8-4.4-1.2-4-4.6c0.2-2.5,0.7-5,2.1-7.6c1.4,1.9,0.5,3.1,0.1,4.3C533.6,452.8,533.4,455.6,536.5,457.8z"
		/>
	<path d="M547.5,478.1c-1.7-1.1-3.2-2.3-3.9-4.2C545.3,475,547.6,475.5,547.5,478.1z"/>
	<path d="M543.1,457.5c1.5-1.2,3-2.3,4.5-3.5C548.6,456.4,548.6,456.4,543.1,457.5z"/>
	<path d="M542.5,462.3c-0.1,2.3,0.2,4.4,0.1,6.6C541.3,466.7,541.2,464.5,542.5,462.3z"/>
	<path d="M550.3,444.6c2.2-1.6,4-1.4,5.8-0.8C554.4,444.4,552.9,445.8,550.3,444.6z"/>
	<path d="M557.9,437.8c-0.7,1.9-1.8,3.4-4.5,4.1C554.8,439.7,556.3,438.7,557.9,437.8L557.9,437.8z"/>
	<path d="M529.7,459c0.1-1.4,0.5-1.9,1.7-2C531.5,458.1,530.7,458.5,529.7,459z"/>
	<path d="M577.9,413.1c5-4.1,10.5-2.4,15.6-2.9C589.2,415,583.9,414.6,577.9,413.1z"/>
	<path d="M599.2,409.8c3.9-0.8,7.4-2.6,11.5-3c0.1,1.2,0.1,2.2,0.2,3.3c-1.7,0.6-3.1,2.2-4.8,1.8
		C603.8,411.3,601.6,410.3,599.2,409.8z"/>
	<path d="M572.8,419.4c2.1,0.9,2,3,2.8,4.7c0.8,1.8,0.9,3.9,2,5.6c1,1.6,2.3,2.9,3.6,4.3c-1.6,1.7-2.3,0.5-3.2-0.6
		C574.7,429.3,573.3,424.5,572.8,419.4L572.8,419.4z"/>
	<path d="M607.8,433.1c-5.1,1.1-10,2.2-15.1,1.6c4.5-1.4,9.3-1.3,13.6-3.2C606.9,431.3,607.4,431.8,607.8,433.1z"/>
	<path d="M604,424.1c0.8,3.3-1.7,3.2-3.4,3.8c-1.8,0.7-6-0.8-6.8-2.2C597.2,425.1,601.2,428.8,604,424.1z"/>
	<path d="M577.3,445.8c4.7,1.8,9.4,3.6,14.1,5.4c-0.1,0.3-0.2,0.6-0.4,0.9c-4.9-1.4-9.6-3.2-14-5.6
		C577.1,446.3,577.2,446.1,577.3,445.8z"/>
	<path d="M605.4,436.2c-1.5,2.9-5.6,3.9-9.2,2.1C599.6,437.5,602.7,437.6,605.4,436.2z"/>
	<path d="M596.1,458.9c1.7-1.6,3.6-0.9,5.3-1.5C599.8,458.2,598.3,459.3,596.1,458.9z"/>
	<path d="M599.2,453c-1,1-2,2.1-3.9,2.6c0.7-2,2.1-2.4,3.4-3.1c0.2,0,0.4-0.1,0.7-0.1C599.3,452.6,599.3,452.8,599.2,453z"/>
	<path d="M594.6,461c0.3,1.8-0.3,2.8-1.1,4.2C593.2,463,593.2,463,594.6,461z"/>
	<path d="M586.8,463.3c1.2-0.4,2.2-1.5,4.1-1.2C589.6,463.8,588.1,463.4,586.8,463.3L586.8,463.3z"/>
	<path d="M607.3,456.6c1.1-0.9,1.9-1.1,3-0.7C609.5,456.8,608.6,457.1,607.3,456.6z"/>
	<path d="M608.2,446.6c-0.3,1-0.8,1.3-1.6,1.8C606.8,447.4,607.4,447.2,608.2,446.6z"/>
	<path d="M595.1,456.5c0.6,0.9,0.5,1.5-0.4,1.9C594,457.6,594.4,457.1,595.1,456.5z"/>
	<path d="M598.7,452.5c0.4-0.5,1-0.8,2-1c-0.3,0.9-0.8,1.3-1.5,1.5C599,452.8,598.9,452.7,598.7,452.5z"/>
	<path d="M611.5,532.8c2.1,6.9,7.2,8.6,12.4,9.9c1.9-1.4,1.8-3.8,3.5-5.2c0.3,3-0.1,3.6-3.6,6.5
		C616.9,542.5,610.5,538.4,611.5,532.8z"/>
	<path d="M635.6,549.5c-7-0.3-9.1-4.2-6.4-11.2c1.4,0.5,1.1,1.8,0.9,2.6c-0.9,2.9,0.4,4.7,2.8,6.1
		C633.9,547.6,634.6,548.5,635.6,549.5z"/>
	<path d="M627.3,565.1c3.3,3.3,2.9,6.8,3.1,10.3C627.8,573.8,626.8,570.8,627.3,565.1z"/>
	<path d="M633.6,527.7c-1.8,2.5-2.3,5.7-4.5,7.8c-1,0-1.4-0.5-1.6-1.4C629.9,532.4,630.8,529.2,633.6,527.7z"/>
	<path d="M641,562.9c0.4-3,0.2-6,1.5-9C643.5,556.2,643,559.6,641,562.9z"/>
	<path d="M626.1,564c-1-1.3-2.5-2.4-2.8-4.3C625.7,560.5,625.7,560.5,626.1,564z"/>
	<path d="M640.5,569.1c0,1.5,0,2.9,0,4.8c-1.5-1.7-1.2-3.2-0.7-4.8C640,569.1,640.3,569.1,640.5,569.1z"/>
	<path d="M630.7,582.3c-0.8-1.8-1.7-2.9-1.1-4.7C631.1,578.7,631.5,580,630.7,582.3z"/>
	<path d="M640.3,534.7c-1.9-0.3-2.8-0.8-3.7-1.8C638.3,532.2,638.9,533.5,640.3,534.7z"/>
	<path d="M630.9,585.6c1,1,0.8,1.6,0.3,2.4C630.1,587.4,630.3,586.7,630.9,585.6z"/>
	<path d="M639.7,579.9c0.6,0.6,0.6,1.1-0.1,1.9C639.2,581.1,638.9,580.5,639.7,579.9z"/>
	<path d="M630.5,592.7c0.6,0,0.8,0.3,0.5,0.8c-0.1,0.1-0.5,0.2-0.5,0.1C630.1,593.4,630.1,593,630.5,592.7z"/>
	<path d="M631.1,602.8c0.1,0.4-0.2,0.6-0.5,0.6C630.4,602.9,630.6,602.7,631.1,602.8z"/>
	<path d="M502.7,487c0.2,2.2-0.5,4.1-1.8,5.9C500.8,490.7,501.7,488.9,502.7,487z"/>
	<path d="M502.9,503.2c-1.2-1.6-3.4-2.5-2.8-5.2c1.1,1.6,2.2,3.2,3.4,4.8C503.3,502.9,503.1,503,502.9,503.2z"/>
	<path d="M543.2,518.6c-0.4,0.3-0.9,0.7-1.3,1C541.9,518.5,542.5,518.5,543.2,518.6L543.2,518.6z"/>
	<path d="M641,425c-0.9-2.3,0.3-3.9,0.5-5.8C643.6,421.7,643.5,422.8,641,425z"/>
	<path d="M645.6,429.7c1.8,1.3,2.5,3.2,3.3,5C646.4,434,645.4,432.2,645.6,429.7z"/>
	<path d="M629.7,409.6c-2.5,0.4-4.4-0.6-7.1-1.3C626.3,407.9,627.3,408.1,629.7,409.6z"/>
	<path d="M632.5,410.5c2-0.2,3,0.3,4.3,1.7C635.1,412,633.9,411.7,632.5,410.5z"/>
	<path d="M652,436.5c0.8-0.1,1.7-0.4,2,0.7C652.9,438.2,652.5,437.2,652,436.5L652,436.5z"/>
	<path d="M652,436.4c-0.7,0-1.3-0.1-1.3-1.1C651.9,435.1,652,435.8,652,436.4L652,436.4z"/>
	<path d="M649.9,655.7c0.1,1.4-0.5,2.2-1.9,2.5c-3.8,0.9-7.6,0.7-11.1-1.5C641.2,655,645.6,655.6,649.9,655.7L649.9,655.7z"/>
	<path d="M647.1,663.2c-1.9,0.9-3.1-0.2-4.6-0.3c-0.4-0.8-0.8-1.7-1.3-2.8c2.2-1,4.5-0.9,6.8-0.7C648.4,661,647.5,662,647.1,663.2z"
		/>
	<path d="M651.7,676.9c-4.6,1.1-9.2-2.8-13.7,1.5c-0.1-3,1.5-3.8,3.4-3.8C645,674.6,648.3,676,651.7,676.9z"/>
	<path d="M656,477.2c-1.2-0.6-1.2-1.5-0.9-2.6C656.4,475.1,656.4,476,656,477.2z"/>
	<path d="M653.5,449.4c-0.6,1.4-1.2,1.7-2.1,1.6C651.4,449.8,652.2,449.6,653.5,449.4z"/>
	<path d="M656.1,462.2c0.9,0.8,0.2,1.1,0,1.7C655.4,463.1,655.7,462.7,656.1,462.2z"/>
	<path d="M554.5,419.4c0.5-0.6,0.7-0.8,1-1.1C556,418.9,555.9,419.3,554.5,419.4z"/>
	<path d="M505,659c-2,2.4-7.9,2.8-12.8,1.1C496.8,658,500.9,658.6,505,659z"/>
	<path fill="#FFFFFF" d="M898.3,518.4c1.3,0.1,2.2,0.7,2.3,2.1c0.1,1.3-0.5,2.2-2,2.4c-1.5,0.1-2.5-0.7-2.5-2.2
		C896,519.3,896.9,518.5,898.3,518.4z"/>
	<path fill="#FFFFFF" d="M907.2,522.1c-1.9,0-2.4-0.9-2.4-2.3c0-1.1,0.6-1.8,1.6-2c1.5-0.3,2.5,0.3,2.9,2.2
		C907.6,519.6,906.8,520.4,907.2,522.1z"/>
	<path fill="#FFFFFF" d="M888,520.2c1.6-1,2.5-1.1,3.5-0.3C890.5,521.6,889.6,521.3,888,520.2z"/>
	<path fill="#FFFFFF" d="M340.4,516.9c-0.1,1.4-0.6,2.3-2.1,2.4c-1.4,0.1-2.3-0.6-2.5-1.9c-0.2-1.5,0.7-2.5,2.2-2.5
		C339.4,514.8,340.2,515.6,340.4,516.9z"/>
	<path fill="#FFFFFF" d="M347.1,518.6c-2.2-0.3-2.6-1.3-2.5-2.6c0.1-1.1,0.8-1.7,1.8-1.8c1.4-0.2,2.2,0.5,2.7,2.1
		C347.6,516.3,346.5,516.7,347.1,518.6z"/>
	<path fill="#FFFFFF" d="M328.1,516.4c1.3-0.8,2.2-0.7,3.3-0.1C330.3,517.8,329.4,518.2,328.1,516.4z"/>
	<path fill="#FFFFFF" d="M616.8,511c1.9-2,3.4-2.2,4.9,0C620.2,513.3,618.7,513.1,616.8,511z"/>
	<path fill="#FFFFFF" d="M630.2,510.2c-1.4-0.1-1.9,1.1-2.5,1.7c-1.1-0.3-1.9-0.7-1.8-2.2C627.5,508.3,628.9,508.2,630.2,510.2z"/>
	<path fill="#FFFFFF" d="M609.4,510.7c1.3-0.6,2.1-0.8,2.9-0.1c-0.1,0.2,0,0.6-0.1,0.6C611.2,511.6,610.3,512,609.4,510.7z"/>
</g>
</svg>
