<?xml version="1.0" encoding="utf-8"?>
<!-- Generator: Adobe Illustrator 19.1.0, SVG Export Plug-In . SVG Version: 6.00 Build 0)  -->
<svg version="1.2" baseProfile="tiny" id="Layer_2" xmlns="http://www.w3.org/2000/svg" xmlns:xlink="http://www.w3.org/1999/xlink"
	 x="0px" y="0px" width="900px" height="600px" viewBox="144 97 900 600" xml:space="preserve">
<g>
	<path d="M999.2,457.5c1.1,5.5,2.3,10.8,0.4,16.5c-1.2,3.8-0.6,7.9-0.2,11.9c0.1,1.3,0.4,2.5,0.1,3.8c1.4,1.4,3.4,1.9,4.6,3.6
		c2.3,3.3,3.8,6.6,3.6,10.8c-0.2,4.4-0.7,8.9-0.1,13.5c5.4,0.5,10.4,2.4,15.8,2.9c6.2,0.6,10.3,4,12.1,10c1.4,4.6,1.6,9.5,2.4,14.2
		c0.3,1.8-0.9,2.7-2.2,3.5c-9.4,5.4-18.9,10.9-29,15c-3.1,1.3-6.3,2-9.5,3c-2.7,0.8-5.1,2-7.3,3.9c4,11.2,6.2,22.8,10,34
		c-0.4,0.1-0.9,0.3-1.3,0.4c-3.4-11-9.4-21.1-11.3-33.3c-5.6,4.1-12.6,5.3-17.2,10.3c2.6,5.2,3.4,10.3,4.1,15.3
		c0.7,5,1.9,9.8,4.1,14.3c-3.5-1.6-8-13.6-10.1-25.7c-6,5.8-15,5.5-20.7,11.5c-0.5,0.5-1.3,1-2.2,0.5c-0.3-2.5-0.3-2.5,3.5-5.6
		c0.8-6.4,2.9-12.5,3.3-19.1c-3.5,3.3-5.4,8.2-10.6,8.9c2.4-2.7,5.1-5.1,7.8-7.6c2.9-2.7,4.4-5.7,4-9.7c-0.1-0.9,0-1.8,0.4-2.7
		c1,9.4,0,18.6-2.6,28.3c6-2.4,12.6-2.9,16-9.1c2.2-3.9,3.2-8.3,3.9-12.7c0.4-2.4,0.6-4.9,1.2-7.4c1.5,2.1-0.3,4.5,0.6,6.9
		c1.3-1.4,2.4-2.8,3.7-4c3-2.9,6.7-4.8,10.8-5.8c4.3-1.1,7.4-3.4,8.8-7.8c0.5-1.4,1.1-2.8,2-4c5.4-8.1,6.9-17.4,6.9-26.6
		c0-7.4,0.2-15.1-1.7-22.5c-0.6-2.5-2.1-4.3-4.5-4.6c-2.3-0.3-4.1-1.1-5.7-2.9c-6.2,14-17.3,17.1-31.1,14.6
		c8.6,2.9,16.1,7.5,22.3,14c0.6-0.9,1.1-1.6,1.7-2.3c0-0.1,0.2,0,0.6,0c-0.3,1.1-0.6,2.2-0.8,3.1c1,2.3,3,3.6,4.3,5.7
		c-1.6,0.9-2.1-1.1-3.5-1c-0.8,0.5-0.8,2.1-2.2,2.7c-0.4-1.6,1.2-2.6,1-4.2c-6.2-6.9-13.6-12.2-22.6-15.4c-3.6-1.3-7.1-2.7-10.8-3.6
		c-5.3-1.3-10.5-1.8-15.9-0.6c-4.7,1.1-9.4,2.3-13.8,1.3c-1.4,0.7-1.8,1.6-2.2,2.6c2.1,0.4,4.5-1,6.3,1.4
		c-7.3,0.3-13.3,3.9-19.6,6.7c-1.7,0.7-2.5,2.2-3.3,3.8c-1,1.9-1.8,3.9-3.9,4.9c-1.2-0.7-1.2-1.8-0.8-2.5c1.7-2.6,3.2-5.3,5.5-7.7
		c4.1-4,9.4-5.8,14.5-8.6c-13.4-2.3-26.5-3.6-40-4.1c-0.1,14.7,2.4,29.3,1,43.9c-2.5-14.7-1.2-29.6-3.6-44.8
		c-9.9-1.7-19.9-5.4-31.3-5.7c2.2,34.7,3.5,69.3,4.1,104c-0.9,0.3-1.2-0.4-1.3-1.1c-0.2-1.7-0.6-3.4-0.6-5.1
		c0.2-4.6-0.2-9.1-0.6-13.6c-0.5-5.2-0.5-10.5-0.8-16.1c-11.2,0.5-22.2,0-33.1-1.8c-10.9-1.8-20.8-6.8-31.7-8.9
		c4.9,4.1,9.9,8.1,14.7,12.3c6.9,6,13.6,12.2,20.4,18.4c0.3,0.3,0.7,0.6,0.9,1c2.2,5.6,7.1,8.5,11.8,11.5c2.5,1.6,4.9,3.4,7.2,5.2
		c0.9,0.7,2,1.4,2.2,3.1c-5-0.4-8.2-3.9-12.3-6c-4.4,2.4-9.2,3.4-14,4.5c-6.2,1.5-12.4,3.2-18.6,4.9c-3.7,1-3.7,1.1-8.4-0.2
		c1.3-1.9,3.2-2.5,5.2-3.1c6.9-2.1,14.1-3.2,21.1-4.8c3.7-0.8,7.3-1.7,11.4-3.2c-2.1-1.9-4.2-3.4-5.8-5.7
		c-6.6,2.2-12.9,4.8-19.6,6.2c5.7-3.2,11.6-5.8,17.6-8.1c-0.1-1.7-1-2.5-2-3.4c-10.3-9.6-20.7-19.1-31-28.7
		c-4.5-4.2-9.7-7.7-14.6-11.4c-5.5-4.1-12.8-3.4-18,0.9c-4.7,3.9-9.1,8-13.2,12.5c-1.4,1.5-3.1,2.6-5,3.5c-6.2,3.2-12,7-16.9,12.2
		c-3.8,4.1-3.9,9.4-4.4,14.5c-0.3,2.7,0.3,5.5,1.2,8.1c0.4,1.2,0.7,2.4,0.9,3.7c0.6,4-0.9,5.3-5.2,4.5c-0.2-1.4,1.3-2.1,1.6-3.7
		c-1.4-5.8-0.8-12-0.7-18.1c0.2-5.6,2.8-9.7,7.1-13.5c4.5-3.9,9.8-6.2,14.4-9.8c3.4-2.7,6.3-6,9.6-8.8c4.5-3.9,9.1-7.5,14.4-10.4
		c1.5-0.8,3.2-2.3,3.8-3.8c1.9-4.5,6-6.5,9.5-9.1c1.8-1.3,3.6-2.4,5-4c2.5-2.8,6.1-3.9,9.3-5.8c2.2-1.3,4.4-2.2,5.6-4.8
		c0.8-1.7,2.7-2.5,4.4-3.1c7.1-2.2,12.5-6.7,17.1-12.4c0.1-0.2,0.3-0.3,0.5-0.5c3.8-2.9,8.4-4.3,12.5-7.5c-0.1,2.8-0.1,2.8-5,6.1
		c8.3,1.6,16.4,2.5,23.3,7.3c-1.4,0.5-2.4-0.1-3.3-0.6c-6.6-3.1-14-3.5-20.9-5.4c-1.9-0.5-3.3,0.6-4.6,2.1
		c8.7,6.7,19.5,7.2,29.7,10.6c-5.9,0.6-21.7-4.2-30.5-9.2c-2.1,2.2-4.3,4.5-7.1,6.2c10.3,1.1,20,3.5,29.6,6.9
		c-6.2-1.3-12.3-2.5-18.5-3.9c-3.7-0.8-7.7-1.5-11.2-1c-5.2,0.7-10.6,2.4-14,7.2c-0.6,0.9-1.3,1.8-2.3,2c-3.3,0.5-5.8,2.5-8.7,4
		c-2,1-3.8,2.3-5.3,4.2c-2.1,2.8-5.5,4-8.2,6.2c-2.6,2.1-4.4,4.9-6.8,7.4c7.3-1.2,12.4,2.4,17.1,7c0.4,0.4,0.9,0.7,1.3,1.1
		c1.9,1.6,4,2.3,6.6,2.5c7.1,0.6,13.9,2.6,20.9,4.1c9.1,2,18.2,3.5,27.5,4c5.1,0.3,10.2,1.2,15.4,1.3c0-3.8,0-7.4,0-11.5
		c-20.8-1.6-41-6.2-61.8-6.6c20.6-1.2,40.8,2.2,61.5,4.5c-0.2-5.2-0.5-10.3-0.7-15.5c-8.2-1.5-16.5-2.2-24.3-5
		c-7.8-2.8-14.6-7.4-21.6-11.7c7.2,3,14.1,6.9,21.6,9.1c7.7,2.3,15.7,3.2,24,4.8c0-11.2-1.4-22-1-33c-4.7-1.1-9.4-1.9-14-2.7
		c-3.3-0.6-6.1-2.5-9.5-2.9c-14.8-1.9-29.5-4-44.4-4.9c-3.3-0.2-6.6-0.7-9.8-1.6c-4.4-1.3-8.9-1.7-13.4-1.7
		c-7.7,0-15.4-0.5-22.9-2.2c-3.9-0.9-7.3-3.3-11.4-3.2c-0.8,0-1.4-0.8-1.9-1.4c-5.4-7.2-8.5-15.6-9.7-24.3c-0.9-6.4,0-13.1,3.5-18.9
		c1.6-2.7,3.3-5.5,5-8.3c-2.1-8.2-3.8-16.8-5.2-25.3c-1.7-9.9-0.9-19.9-1.1-29.8c-0.2-6.9,1.3-13.7,1.8-20.5
		c0.2-3.4,0.9-6.8-0.7-10.4c-2.4,0-4.8-0.1-7.2,0c-16.2,0.5-28.1-7-36.7-20.2c-13-19.9-11.2-48.2,3.9-65.8
		c8.5-10,19.3-15.2,32.5-15.2c10.1,0,13.4,0.6,23.2,4.8c5.4-2.5,11.2-3.8,17.2-5.1c3.2-0.7,6.7-2,9.7-3.8c3.2-2,4.8-5.3,5.4-8.8
		c0.3-2.2,0.9-4.2,2.1-6.1c3.3-5.1,6.6-10.2,10.4-14.9c1.6-2,3.3-3.9,5.9-5c2-0.9,3.9-2.6,5.1-4.5c1.7-2.6,4.2-4.1,6.7-5.2
		c4.9-2.2,9.7-4.6,14.8-6.7c-0.1-1.5-3.3-2.6-1.1-4.4c1.6-1.3,2.4,1.1,3.9,1.8c0.8-1,0.5-2.9,2.4-3.5c1.3,0.8,2.9,0.7,4.3,0.1
		c2.3,0.9,1.9,2.8,2.2,4.8c2.4-1,3.3-3.5,5.1-4.8c1.9,0.7,1.1,2.2,1.1,3.6c2.2-0.6,4.1-1.6,6.4-1.9c0,2,0,3.9,0,5.8
		c5,3.7,9.9,7.3,14.5,11.1c2.6,2.1,3.7,5.4,5.4,8.3c5.7,9.8,10.2,20.4,16.7,29.8c1.7,2.4,0.6,5.6,2.9,7.7c2.8,2.6,4.5,6.4,8.1,8.3
		c1.1,0.6,2.1,1.3,3,2.2c1.1,1.1,2.4,2.2,4.2,1.1c0.7-0.4,1.3,0,1.9,0.2c3.6,1.2,7.2,0.7,10.9,0.5c6.1-0.3,12.2-2.1,18.4-1.2
		c2.5,0.4,4.7,1.3,6.7,2.5c2.7,1.8,5.5,2,8.5,1.9c7.4-0.2,14.2,2,20.5,5.7c3.1,1.8,5.3,4.6,7.9,7c8.8,8.1,8.6,18.8,9.4,29.3
		c0.1,0.9,0,1.7,0.6,2.6c7.3,10.8,9.6,23.2,11.1,35.7c1.5,12.5,3.7,24.9,6.6,37.2c0.6,2.7,1.3,5.3,0.9,8.1c-0.1,0.9,0.1,1.8,0.2,2.7
		c0.5,3.1,1.4,6.1,1.6,9.3c0.1,2.7,2.2,5.3,3.4,8.1c2.7,6.4,3.9,13.1,4.6,20c0.6,6.5,1.1,13,3,19.3c0.7,2.4,1,4.9,0.6,7.4
		C998,449.6,999.7,453.6,999.2,457.5c-1.1,0.3-1.2-0.5-1.3-1.3c-0.3-2.5-0.6-5-0.4-6.5c0.5,5.1,0.3,11.2-0.1,17.4
		C998.1,463.8,996.2,460.2,999.2,457.5z"/>
	<path d="M581,465.7c1.1,5.5,2.3,10.8,0.4,16.5c-1.2,3.8-0.5,7.9-0.2,11.9c0.1,1.2,0.2,2.5,0.4,4c1.2,1.2,3.1,1.7,4.4,3.3
		c3.6,4.3,4.3,9.2,3.6,14.5c-0.4,3.2-0.6,6.4-0.2,9.6c1,0.7,2.1,0.9,3.3,0.6c7.9-2,14.8,0,20.9,5.3c0.7,0.6,1.4,1.2,2.1,1.8
		c0.6,6,1.8,11.8,3.9,17.5c1.7,4.7,0.6,7.6-3.7,10.4c-7.2,4.8-15.4,7.6-23.2,11.1c-6.4,2.8-12.6,5.9-19.2,9.1
		c1.8,5.6,0.4,11.6,2.3,17.2c-2.7-4.9-4.2-10.3-5.2-15.9c-5.5,1.4-10.2,4.2-15.9,5.4c0.5-2.9,2.5-3.4,4.2-4.1c5.2-2.1,10.5-4,15.7-6
		c0.7-0.3,1.4-0.7,2.3-1c-1.6-1-2.6,0.9-4.1,0.5c0.6-1.2,1.9-1.3,2.8-1.5c6.4-1.7,12.6-4,18.6-6.9c3.4-1.7,7.2-2.9,10.8-4.4
		c4.2-1.7,8-4,11.4-6.9c2.3-1.9,2.4-3.1,0.8-5.6c-1.7-2.6-1.8-5.6-2.4-8.5c-0.7-3.4-1-7-1.5-10.5c-7.4-4.3-15.6-4.1-23.7-4.2
		c-1.1,5-2.1,16.7-1.5,18.1c-2.6,1.5-3.1,4.3-4.2,6.8c-1.2,2.7-2.4,5.5-3.4,8.3c-1.2,3.4-3.8,5.4-6.9,6.7c-1.9,0.8-3.9,1.3-5.8,2.1
		c-4.9,1.9-8.8,4.9-10.7,10c-1,2.6-2.7,4.7-3.9,7.2c-0.8,1.8-1.1,3.4-0.6,5.3c1.1,4.6,0.6,9.4,2.2,13.9c0.2,0.6,0,1.1-1.1,1.8
		c-1.9-4.8-3.4-9.4-4.6-14.7c-3.2,3.5-7.5,4.2-11.4,5.6c-3.9,1.4-6.7,4.7-10.8,6.5c-0.7-3.8,2.2-4.6,3.7-6.4
		c0.8-6.2,2.8-12.3,3.3-19c-3.4,3.4-5.4,8.1-10.5,9.5c-0.5-1.6,0.6-1.7,1.1-2.2c2.6-2.2,5-4.7,7.5-7c2.1-2,3-4.2,2.9-7
		c-0.1-1.4,0-2.9,0.5-4.3c1,9.5,0,18.8-2.6,28.3c3.7-1.2,7.2-2.2,10.3-3.6c3.3-1.5,5.7-4.4,7-8c2.1-5.6,3-11.5,3.8-17.4
		c1.5,2-0.2,4.6,0.8,7.2c4-6.3,10-9,16.4-10.9c2.8-0.8,4.8-2.5,5.9-5.3c0.9-2.3,2-4.6,3.4-6.8c4.1-6.4,5.5-13.6,6-20.9
		c0.5-9,0.3-18-1.3-26.9c-0.5-2.6-2.4-4.5-5-4.9c-2.7-0.5-2.7-0.5-5.1-2.4c-0.8,0.1-0.7,0.8-0.9,1.3c-2.2,6.3-7.4,10.1-12.9,12.5
		c-4.1,1.8-9.1,1.6-13.8,0.9c-1.1-0.2-2.2-0.6-4-0.2c9,2.9,16.4,7.3,22.5,13.6c1.4-0.2,0.9-1.9,2.3-2.2c0.5,1.2-0.6,2.1-0.4,3.5
		c0.8,2,3,3.3,4.2,5.6c-1.6,0.2-2.3-1.1-3.4-1.5c-1.1,0.9-1.1,2.4-2.5,3c-0.5-1.5,1.2-2.4,1.1-4.1c-6.1-6.9-13.5-12.1-22.4-15.4
		c-3.8-1.4-7.5-2.8-11.5-3.8c-5.1-1.3-10.1-1.6-15.3-0.5c-4.8,1.1-9.6,2.3-14.5,1.3c-0.7,1-1.2,1.7-1.8,2.6c2.2,0.4,4.7-1,6.5,1.4
		c-7.6,0.5-13.8,4.1-20.3,7.2c-1.5,0.7-2.1,2.4-2.8,3.8c-1,1.7-1.7,3.7-3.7,4.5c-1.1-0.8-1.1-2-0.6-2.6c1.8-2.5,3.3-5.3,5.6-7.6
		c4.1-4.1,9.5-5.5,14.3-8.6c-13.3-2.2-26.4-3.6-39.9-4c0.1,14.7,2.3,29.2,1.1,43.8c-2.6-14.7-1.2-29.7-3.6-44.6
		c-1.5-0.4-3-1.6-5-0.9c-1,0.4-1.8-0.3-2.6-0.6c-7.2-2.5-14.6-3.6-22.2-4.3c-0.3,0-0.7,0.1-1.6,0.2c2.2,34.6,3.5,69.2,4.1,103.9
		c-1.2,0-1.2-0.8-1.4-1.6c-1.2-4.4,0.2-8.9-0.5-13.3c-1.1-6.9-0.6-13.9-1.4-21.1c-11,0.5-22,0-32.8-1.8c-10.9-1.8-20.9-6.8-31.8-9.5
		c0.2,1.3,1.1,1.6,1.8,2.1c11.5,9,22,19,32.8,28.7c0.5,0.5,1.1,0.9,1.4,1.5c2.1,5.2,6.5,8.1,11,10.9c2.7,1.7,5.2,3.7,7.8,5.6
		c1,0.7,1.9,1.6,2.7,3.2c-5.4-0.2-8.6-4.1-12.8-5.9c-6.3,3.7-13.5,4.4-20.3,6c-6.6,1.5-13,5.3-20.5,3.6c1.2-2.4,3.3-2.9,5.3-3.5
		c6.8-2.1,13.8-3.2,20.7-4.8c3.8-0.9,7.5-1.8,11.7-3.3c-2.3-1.9-4.3-3.5-5.9-5.7c-6.6,2.3-12.9,4.9-19.6,6.3
		c5.7-3.2,11.7-5.9,17.7-8.1c-0.3-1.7-1.2-2.5-2.1-3.4c-10.1-9.5-20.2-19-30.5-28.3c-4.7-4.2-9.9-7.8-14.9-11.6
		c-5.5-4.2-12.9-3.6-18.3,0.8c-4.6,3.8-8.9,7.9-13,12.3c-1.5,1.6-3.3,2.7-5.3,3.7c-6.3,3.1-12.2,6.9-16.8,12.3
		c-4.7,5.6-4.9,12.6-4,19.6c0.3,2.1,1.2,4.2,1.5,6.3c0.7,4.1-0.7,5.3-5.5,4.8c3.1-3.5,1-7.3,1.1-11c0.1-4.7-0.1-9.4,0.6-14
		c0.7-4.1,3.2-7.1,6.3-9.9c5.7-5.2,13.2-7.7,18.5-13.4c5.2-5.5,11-10.4,17.4-14.4c2.1-1.3,4.8-2.2,5.9-4.4c2.8-5.5,8.2-8,12.6-11.7
		c4.5-3.9,9.5-6.7,14.5-9.6c0.5-0.3,1.2-0.5,1.4-1c2.4-4.6,6.9-6.2,11.3-7.7c4.9-1.6,7.7-5.6,10.8-9.1c3.9-4.3,9.6-5.4,14-8.6
		c0.2,3.4-3,3.5-4.7,5.8c8.1,1.4,16.2,2.4,23,7.2c-0.5,0.5-1,0.3-1.4,0.1c-7-3.3-14.7-4.1-22.2-6c-2.2-0.6-3.7,0.4-5.2,2
		c8.7,6.7,19.6,7.2,29.3,10.9c-10.3-1.9-21-2.9-29.9-9.5c-2.3,2.4-4.6,4.6-7.3,6.4c10.3,1.1,20.1,3.4,29.7,6.9
		c-6.3-1.3-12.7-2.6-19-4c-3.6-0.8-7.5-1.4-10.9-0.9c-5.2,0.8-10.6,2.4-13.9,7.3c-0.6,0.9-1.3,1.8-2.3,1.9c-4,0.7-7,3.3-10.5,5
		c-0.5,0.3-1.1,0.5-1.4,0.9c-3,4.4-8.1,6.2-11.8,9.9c-1.8,1.8-3.5,3.8-5.7,6.3c7.6-1.5,12.6,1.8,17.2,6.3c2.6,2.6,5.6,3.8,9.4,4.2
		c6.8,0.6,13.5,2.6,20.2,4.1c8.8,2,17.8,3.4,26.8,3.9c5.2,0.3,10.4,1.2,15.7,1.3c0-3.8,0-7.4,0-11.5c-20.8-1.6-41-6.1-61.7-6.6
		c20.6-1.1,40.8,2.2,61.5,4.5c-0.2-5.2-0.5-10.3-0.7-15.9c-17-1-32.2-6.4-45.8-16.6c7.1,3.3,14,7.1,21.6,9.3
		c7.7,2.3,15.6,3.2,23.9,4.8c0-11.2-1.4-21.9-0.9-32.9c-4-0.8-8-1.8-12-2.4c-4-0.6-7.5-2.7-11.5-3.3c-14.7-2-29.5-4-44.3-5
		c-3.1-0.2-6.2-0.6-9.2-1.4c-8.6-2.3-17.3-3-26.1-3.8c-2.9-0.3-5.2,0.6-7.8,1.6c-7.2,2.8-14.3,6.1-21.7,9.4
		c1.7,5.8,2.3,11.9,1.5,17.9c-3,23-13.1,41.7-33.1,54.3c-12.9,8.1-27.2,5-38.3-3c-7.4-5.3-9.7-13.6-10.5-22.3
		c-0.4-4.2-0.2-8.5,0.5-12.6c-0.5-1.2-1.7-1.2-2.3-1.7c-1,0.2-1.4,0.8-1.9,1.2c-5.7,5.2-12.1,9.1-19.5,11.1
		c-5.8,1.6-11.2,0.3-16.9-1.3c-13-3.8-20.4-12-21.9-25.6c-2-18.4,4.3-34.5,14.8-49.1c5.5-7.6,12.3-13.8,20.9-17.9
		c8-3.8,16.4-4.8,24.7-1.8c11.8,4.2,19.2,12.5,20.9,25.3c0.2,1.9,0.5,3.8,0.8,5.7c4,1.6,8.3,2,12.1,4.1c9.5-5.2,17.7-11.9,24.1-20.8
		c6-8.3,12.6-16,19.9-23.1c2-2,4.2-3.9,6.5-5.5c3.6-2.3,5.8-5.6,8.1-9c5.3-7.8,9.4-16.5,15.3-24c0.9-1.2,1.4-2.6,1.8-4
		c2.2-7.3,5-14.3,8.9-20.8c2.4-3.9,5.4-7.4,9.2-10c0.5-0.4,0.9-1,1.4-1.7c-2.5-3.1-2.7-7-2.9-10.7c-0.5-8.9-0.5-18,3.7-25.9
		c6-11.3,14.6-20.4,28-23.4c2.7-0.6,5.1-2,7.5-3.3c0.8-0.4,1.4-1.3,2.5-0.7c0.8,1.1,0,1.7-0.7,2.2c-1.8,1.6-4.2,2.2-6.4,3.3
		c-12,5.8-22.5,13.1-28.8,25.4c-1.5,2.8-1.9,5.9-2.2,8.9c-1.1,8.8-0.6,16.6,1.3,21.8c1.2-0.2,1.7-1.4,2.7-2.1
		c0.9-0.6,1.6-1.7,2.9-1.3c0.3,0.4,0.5,0.7,0.2,1c-10.9,9.7-17.7,22-23.2,35.3c-2,4.9-3.9,9.7-4.9,14.9c-0.6,2.9-1.8,5.8-2.6,8.7
		c-0.8,3-2.8,5.6-5.5,7.3c-6.3,3.8-11.1,9.5-17.3,13.4c-1.3,0.8-2.7,1.8-3.7,3.1c-6.3,8-13.9,14.9-20,23.1
		c-3.4,4.7-7.1,9.2-12.3,12.5c15.2-1.3,26.3,4.8,33.6,17.8c21.7-5.6,38.1-18.5,49.9-37c1.7,0.4,1,1.2,1.1,1.8
		c0.1,0.5,0.3,1.1,0.4,1.6c3.2-1.8,5.8-3.6,7.1-7.1c1.4-3.7,4.9-6,6.8-9.4c7.4-12.9,15.4-25.5,22-38.8c1.8-3.6,3.2-7.3,4.8-11
		c0.6-1.5,0.7-3.5,3-3.3c0.4-2.7,0.7-4.9-0.8-7c-1-1.4-0.8-3,0-4.5c1.6-2.9,2.9-5.8,1.7-9.4c-0.7-2.1,0-4.3,1.3-6.1
		c-3.2-3.3-6.5-6.2-9-9.7c-0.8-1.1-1.9-1.1-3-1.4c-1.8-0.5-3.9-0.5-5.2-2c0.2-1.5,1.2-1.5,2.1-1.4c3.2,0.3,6,1.4,8.3,3.8
		c1.7,1.7,3.4,3.4,5.8,4.9c-0.3-6.6,2.1-12.3,3.8-18.2c2.2-8.1,4.6-16.1,4.1-24.6c-0.1-1.6,0.4-3.2,0.6-5c-3.9-1-5.6-4.6-8.1-7.3
		c-1.5-0.8-3.3,0.1-4.8-0.8c-0.8-1-1.1-2.2-0.5-4c1.1,2.2,2.6,2.5,4.6,2.3c3.2-0.2,4.4,2.7,5.8,4.8c1.1,1.6,2.1,2,3.8,2.3
		c8.5,1.2,14-3.6,19-9.4c2.5-2.8,4.6-5.9,8.4-8.1c-0.6,3.1-2.9,4.9-4.1,7.2c0.4,1.5,2.3,0.9,3,2.4c-1.7,0.2-3.4-0.8-4.8,0.1
		c-1.3,0.8-2.4,2.1-3.9,3.4c4.1,2,6,5.3,7.9,8.6c-2.2-0.2-2.9-2.5-4.9-3.2c-1.9-0.7-3.8-1.5-5.5-3c-1.9,1.1-3.1,3.2-5.1,3.5
		c0,3.3,0.1,6.4,0,9.5c-0.3,8.2,2.2,15.5,7.1,22.1c0.9,1.3,1.8,2.6,2.7,4c0.8,1.2,2.1,2.2,1,3.7c5.3,5,12.2,3.5,16.5-2.2
		c2.7-3.7,5.7-7.2,8-11.1c4.2-7,7.5-14.3,9-22.5c2.1-11.4,6.9-22,11.8-32.5c2.8-6.1,5.8-12.2,9.2-18.4c-3.4-0.1-6.4-1.3-9.6-1.1
		c-1.6,0.1-3.1-0.7-4.5-1.6c-3.4-2.5-7.3-4.3-10.6-7c-1.8-1.4-1.9-1.3-4.4,0.6c-2.2-0.2-2.4-2.6-4.3-3.6c-1.8,0-3.9-0.1-5.9-0.7
		c-1.1,6.1-4.8,10.6-8,16.5c1.6,4.3,2.1,9.7-0.6,15.8c-1.1-2-0.7-3.3-0.3-4.4c1.2-3.2,0.7-6.2-0.9-9.2c-0.6-1.1-1-2.3-1.5-3.8
		c-0.3-1,1.9-1.6,0.7-2.9c1.1-0.5,1.6,0.6,2.6,0.4c0.1-2.8,1.6-5.1,3.3-7.3c2.8-3.8,1.9-8.4-1.9-11.1c-1.6-1.1-3.2-2.2-4.7-3.4
		c-1.6-1.4-3.1-1.1-4.6,0.2c-1.8,1.5-3,3.4-4.3,5.7c1,4.5,3.8,8.8,3.3,13.8c-2,0.4-2.5-1-3.2-1.9c-1.4-1.8-2.8-3.6-4.6-5.1
		c-2.2-1.9-4.4-3.6-7.6-3.1c-1.7,0.3-3.4-0.5-4.7-1.7c-3.5-3.1-7.8-3-12-2.8c-2.9,0.1-5.8,1.2-8.8,2c-1,1.7-2.1,3.6-3.3,5.5
		c-7.1,1.6-10.8,8.6-17.4,10.3c-0.6,2,1,3.3,0,4.7c2.7,2.1,5.7,3.1,7.6,4c8.8-2.1,16.4-6,25.3-5.2c-1.8,1.7-2.4,3.8-2.7,5.8
		c-6.1,3.6-7.3,3.5-12.3-1.2c-2.2,0.3-4.3,1.4-6.6,1.4c1.6,6.3,3.3,12.5,4.9,18.8c2.2,0.1,4.2-0.6,6.5-0.2c-0.7,3.2,2.4,4.3,3.5,6.5
		c4.5-0.5,8.5-3.5,13.8-2.1c-2.3,3.2-5.3,1-7.6,2.3c-2.2,1.2-4.8,2.4-7.6,1.4c-1.3-1.7-2.5-3.4-3.8-5.2c-2-0.3-4.2,0.3-6.1-0.9
		c-1.3-3-1.9-6.3-2.9-9.4c-1-3.1-1.4-6.5-3-9.2c-5-2.1-11.1-2.3-12-9.1c-4.5-1.1-8.9,0.9-13.2,0.1c-0.3-2.1,1.5-1.4,2-2.4
		c-1.6-1.2-3.6-1.3-5.3-2.1c-1.7-0.8-3.2-1.8-4.3-3.2c-3,0.1-6.3,1.8-9.2-1.8c3.3-1.7,7.2-0.9,9.6-3.7c-1.5,0-2.6,1.6-4.6,0.8
		c2.3-3.1,4.6-6,7.2-9.4c-3,0.9-5.5,1.2-8.6,0.4c2-1.8,3.9-1.9,5.7-2.5c5.4-1.7,7.8-5.6,8.5-10.9c0.2-1.9,0.9-3.5,1.9-5.1
		c3.3-5.2,6.7-10.4,10.6-15.2c1.6-2,3.2-4,5.9-5c1.6-0.6,3-2.1,4.1-3.5c3.2-4.1,7.6-6.4,12.4-8.2c3.4-1.3,6.5-3.3,10-4.5
		c-0.2-1.5-3.1-2.6-1.3-4.3c1.8-1.7,2.6,1,4.2,1.6c0.8-1,0.5-2.9,2.4-3.5c1.3,1,2.9,0.5,4.3,0.1c2.2,1,2,2.8,2.1,4.9
		c2.4-1.2,3.4-3.5,5.1-5c2,0.7,1.1,2.2,1.1,3.6c2.2-0.5,4.1-1.7,6.4-1.8c-0.1,1.9,0.4,3.6,0,5.3c3.7,4,8.4,6.5,12.4,9.8
		c3,2.4,4.9,5.3,6.7,8.5c6.1,10.7,11.2,21.9,18,32.2c1.3,2,0.4,4.9,2.4,6.8c2.8,2.7,4.5,6.4,8.1,8.3c1.1,0.6,2.1,1.3,3,2.3
		c1.1,1.1,2.4,2.2,4.2,1.1c0.7-0.4,1.3,0,1.9,0.2c3.1,1.1,6.3,1,9.5,0.7c4.9-0.5,9.7-1.2,14.6-1.7c4.2-0.4,8.3,0.5,11.8,2.8
		c2.7,1.8,5.5,2,8.5,1.9c7.4-0.2,14.2,2,20.5,5.8c3,1.8,5.2,4.4,7.7,6.7c8.9,8.1,8.8,19,9.6,29.6c0.1,0.8-0.2,1.6,0.4,2.3
		c6.6,9.4,9.1,20.2,10.6,31.2c1.7,12.5,3.1,25,6.3,37.2c1.9,7.2,2.1,14.7,3.4,22c0.7,4.1,2.5,7.6,3.9,11.3c2.3,6.2,3.7,12.4,4.4,19
		c0.6,6.7,1.2,13.4,3.1,20c0.7,2.4,1,4.9,0.6,7.5C579.8,457.9,581.6,461.8,581,465.7c-1.1,0.3-1.2-0.5-1.3-1.3
		c-0.3-2.5-0.5-5-0.4-6.5c0.6,5.2,0.2,11.3-0.1,17.3C580,472.2,578,468.5,581,465.7z"/>
	<path d="M515.9,611.3c3.7-1.3,5.6-4.4,8.8-6.2c-0.3,4.1-8.2,10.9-12.5,10.8c1.8-3.7,1.4-7.7,2.5-12.1c-2.7,2.1-4.8,3.7-6.9,5.3
		c-0.2-0.2-0.4-0.3-0.6-0.5c3.3-4,5.9-8.4,8.7-13.2c-2.1-9.4-6.9-17.3-15.4-23.3c-4.4-3.1-8.9-4.6-14.1-5.2c-8-1-15.7,0.3-23.5,1.6
		c-1.5,0.2-2.2,1.2-2.8,2.1c-5.2,7.4-11.1,14.3-16.7,21.3c-1,1.2-1.6,2.5-1.9,4c-0.9,4.1-1.9,8.2-2.9,12.4c-0.5,2-0.9,4.1-3.3,4.6
		c-1.7-0.6-1.5-2-1.4-3.2c0.2-1.8,0.5-3.6,1.2-5.3c3.7-9.3,7.8-18.4,15.4-25.3c4.2-3.8,6.4-9.2,10.6-13c1.2-1.1,1.1-2.9,1-4.6
		c-0.1-1.9-0.2-3.8-0.4-6.2c1.8,1.8,0.7,3.5,1.6,5.5c2.1-5.4,4.9-10,7.7-14.6c0.5-0.8,0.9-1.6,1.4-2.4c2.8-4.6,7.3-8.5,6.3-15
		c2.2,1.9-0.6,4.5,1.9,5.9c-6.1,10.4-13.6,19.8-17.4,31.5c4.6,0.5,8.8-1.7,13.2-1.8c6.6-0.2,13.3-0.8,19.5,2.3
		c3.2,1.6,6.5,2.8,9.6,4.4c6.1,3.2,9.9,8.8,12.3,15.1c2.2,5.8,3.2,11.7,0.3,17.7C516.9,606,516.6,608.6,515.9,611.3z"/>
	<path d="M930.3,607.8c1.9-3.9,1.4-7.8,2.6-12.3c-2.8,2.1-4.8,3.7-6.9,5.3c-0.2-0.2-0.4-0.3-0.6-0.5c3.4-4,6-8.6,8.8-13.3
		c-1.9-5.7-3.8-11.8-8.1-16.8c-8.9-10.3-20.4-13.1-33.4-11.8c-3.5,0.4-7,1.3-10.5,1.6c-1.9,0.2-3.2,1-4.1,2.4
		c-5,7.3-10.7,14-16.3,20.8c-1.2,1.4-1.9,3.1-2.3,4.9c-0.9,4-1.9,8-2.8,12c-0.7,2.9-1.1,3.4-3.6,4.3c-1.4-0.8-1.2-2.1-1.1-3.3
		c0.2-1.8,0.6-3.6,1.3-5.3c3.8-9.3,7.8-18.3,15.5-25.2c4.2-3.8,6.4-9.2,10.6-13c1.1-1.1,1-2.8,0.9-4.2c-0.1-1.9-0.2-3.8-0.4-6.1
		c2,1.5,0.6,3.4,1.6,5.1c2.5-6.5,6.1-12.2,9.8-17.8c2.8-4.3,6-8.2,5.4-14.4c2.7,2.3-0.9,5.2,2.1,6.3c-6.2,10.6-13.8,20-17.4,31.6
		c4.4,0.4,8.2-1.5,12.3-1.8c8.6-0.5,16.9-0.4,24.8,4.4c3.8,2.3,8.4,3.5,11.3,7.2c6.4,8.2,10.6,16.9,6.4,27.6c-0.9,2.4-1.4,5-2.1,7.7
		c3.5-1.3,5.5-4.3,8.6-6.1C942.9,600.6,935.2,607.4,930.3,607.8z"/>
	<path d="M375.2,366.1c-1.6,5.7-0.9,11.4-0.7,18c-10.3,12.3-19.9,26.2-33.6,37.3c0.3-2.9,3.7-4,2.4-6.7c3.8-2.6,6.7-6,9.7-9.3
		c4.9-5.6,10.1-10.9,14.5-16.9c3.1-4.2,5.4-8.9,5-14.6C372.4,371.2,373.2,368.4,375.2,366.1z"/>
	<path d="M421.5,318.5c1.1,0.9,2.5,1,3.8,1.4c1.7,0.5,3.5,1.1,4.7,2.6c1.8,2.2,3.4,2.6,5.9,1.4c1.5-0.8,2.9-1.7,4.3-2.5
		c1.7-3.5-0.3-6.5-1.5-9.2c-1.2-2.6-2.3-5.3-2.5-8.1c-0.3-4.7-2.9-8.3-5.6-11.7c-3.3-4-4.5-8.5-4.3-13.8c2.1,0.5,1.9,2,2.1,3
		c0.9,4.6,2.5,8.7,5.6,12.3c2.1,2.4,3.5,5.2,3.7,8.6c0.4,5.4,2.6,10.3,4.7,15.2c2.6-0.7,4.6-2.5,7.2-1.8c0.2,0.8-0.1,1.2-0.6,1.3
		c-4.4,1-6.8,5.3-10.9,6.9c-0.5,0.2-0.6,0.6-0.9,1c-1.8,2.3-5.3,3-7.1,0.9c-1.6-2-3.7-2.8-5.7-4.1
		C423.3,321.1,421.6,320.5,421.5,318.5L421.5,318.5z"/>
	<path d="M524.5,512.5c6.8,4.3,12.9,9,17.9,15c4.9,5.9,9.5,11.9,14.4,18.5c-2.4-0.4-3.9-1.5-5.2-2.9c-2.9-3.4-6-6.6-8.6-10.2
		c-4.8-6.6-10.9-11.7-17.3-16.6C524.9,515.6,523.4,515.1,524.5,512.5z"/>
	<path d="M974.6,537.3c-3.2-0.2-5-2.5-6.9-4.6c-2.3-2.7-4.7-5.4-6.7-8.2c-4.6-6.6-10.8-11.5-17-16.4c-1.3-1-1.3-1-1.8-2.9
		c1.1-0.9,2,0,2.7,0.5c5.3,3.6,10.5,7.4,14.6,12.4c4.2,5.1,8.6,10.1,12.3,15.6C972.7,535,973.5,536.2,974.6,537.3z"/>
	<path d="M422.2,245c-1.4,2.2-3-0.2-4.7,0.4c0,1.2,0.9,2.2,1.4,3.3c1.7,0.8,4,0.4,4.8,2.3c1.6,0,0.5-1.8,2.1-1.8
		c0.7,0.6,0.9,1.7,1.3,2.8c-1.2,1.4-2.2,2.8-1.8,4.7c-1.4,0.5-1.2-1.1-1.6-1.1c-1.3-0.2-2,1-3.1,0.3c-1.6-1.1,0-2.6-0.2-4.2
		c-2.1-0.6-3.3-2.2-4.4-4.2c-1.2-2.3-0.5-3.9,0.7-5.7c1.8-2.4,3.5-2.6,5.6-0.4c1.5,1.6,2.9,3.2,5.1,4c0.9,0.3,1.6,1.2,1.5,2.4
		C425.8,249,424,246.9,422.2,245c-0.2-0.2-0.4-0.5-0.6-0.8C421.9,244.5,422,244.7,422.2,245z"/>
	<path d="M744,593c2.7-0.4,5.5-0.8,8.2-1.1c8.4-1,15.7-4.5,22.6-9.2c3.5-2.3,7.2-4.4,10.9-6.6c0.8,1.4-0.1,1.9-0.8,2.3
		c-7,4.6-13.9,9.3-21.5,12.8C757.3,594.1,750.8,595.1,744,593z"/>
	<path d="M368.1,584.4c-0.2,2-1.3,2.4-2.1,2.9c-5.8,3.9-11.7,7.6-17.8,10.9c-7,3.7-14.4,5.4-22.3,3c2.7-0.3,5.4-0.7,8.2-1
		c8.6-0.8,15.9-4.6,22.9-9.3C360.4,588.6,363.9,586.3,368.1,584.4z"/>
	<path d="M452.3,532.2c1.3,1.2,1.9-0.8,3-0.2c0.5,1.7-1.7,2-1.8,3.3c0.1,1.6,1.9,0.5,2.5,2.1c-2.3,1.1-4.7,0.7-7,0.7
		c-1.1-3.7-1-3.9,0.7-6.4c-2.6-3-2.9-5.7-0.8-7.4c1.6-1.3,3.8-1.2,5.2,0.4C456.1,526.9,455.6,528.9,452.3,532.2z"/>
	<path d="M868.6,524.7c-2.6-2.8-3-5.4-1-7.1c1.7-1.5,4-1.3,5.5,0.4c1.9,2.3,1.3,4.4-1.9,7.1c0.9,0.3,2,0.2,2.9-0.1
		c0.8,1.9-1.8,2.2-1.7,3.6c0.3,1.5,2.1,0.4,2.4,1.9c-2.1,1.4-4.5,0.6-6.9,0.9C866.7,528.9,866.6,526.6,868.6,524.7z"/>
	<path d="M329.6,431c-5.6,5.5-12.2,8.1-20.2,9.6C313.6,436.9,327.3,430.4,329.6,431z"/>
	<path d="M371.7,399.9c3.5-5.6,5.6-11.9,7.9-18.7C382.5,386,377.7,396.5,371.7,399.9z"/>
	<path d="M721.5,600.4c-1.4-4.5,0.1-9,3-10.9c2.9,1.6,3.2,4,0.6,6.5C723.8,597.1,722.4,598,721.5,600.4z"/>
	<path d="M453.6,514.7c0.6,2.6,2.1,5.3-1,7.3c-1.5,0.9-3,0.8-4.4-0.4c-1.6-1.4-1.8-3.2-1-5C448.5,513.8,451.1,514.5,453.6,514.7z"/>
	<path d="M303.1,607.9c-1.1-3.9,0.4-8.4,3.2-10.2c2.9,1.7,3.1,4,0.5,6.5c-0.6,0.6-1.5,1.1-2.1,1.7
		C304.2,606.5,304.3,607.5,303.1,607.9z"/>
	<path d="M872.4,507.7c0.7,2.7,2.1,5.4-1,7.4c-1.5,0.9-3,0.8-4.4-0.3c-1.6-1.4-1.8-3.2-1.1-4.9C867.3,506.9,870,507.7,872.4,507.7z"
		/>
	<path d="M324.5,410c5,2.6,5.6,4.2,3.6,9.1c-0.5,1.2-0.6,2.4-1,3.6c-0.3,1-0.1,2.4-1.6,2.7c-1.2-2.3-1.1-2.9,1.5-9.9
		C326.6,413.5,324.5,412.2,324.5,410L324.5,410z"/>
	<path d="M830.4,582.1c4.7-1.7,9.5-3,14.3-4.2c1.1,1.5,0,2.3-1,2.6c-4.3,1.1-8.7,2-13,2.9C830.6,583,830.5,582.6,830.4,582.1z"/>
	<path d="M411.6,590.6c5.4-1.7,10.1-3.3,15.1-4.4c0.7,1.9-0.6,2.6-1.9,2.9c-4,0.9-8,1.6-11.9,2.4
		C412.8,591.5,412.6,591.3,411.6,590.6z"/>
	<path d="M307.5,441c-6,4.4-13.6,5-19.7,8.9C289.1,448,304.8,440.7,307.5,441z"/>
	<path d="M914.2,522.2c-3.9,0.7-7.2,3.7-11.6,3.4C903.8,522.6,909.8,520.8,914.2,522.2z"/>
	<path d="M484.2,533.3c2.4-2.7,8.3-4.2,11.8-3.1C491.2,532.7,486.9,533.9,484.2,533.3z"/>
	<path d="M555.3,553c-2.8,4.7-6.6,8.7-9.4,14C545.6,562.8,548.8,558.2,555.3,553z"/>
	<path d="M542.4,586.4c0.6-7.2,1.3-14.4,1.9-21.4c0.7,7.1,0.8,14.3-1.1,21.4C542.9,586.4,542.6,586.4,542.4,586.4z"/>
	<path d="M964,558.2c0.7-6.2,5.4-9.6,9.4-13.5C970.7,549.5,966.8,553.5,964,558.2z"/>
	<path d="M962.4,556.6c0.7,7.2,0.8,14.4-1.1,21.5c-0.2,0-0.5,0-0.7,0C961.2,571,961.8,563.9,962.4,556.6z"/>
	<path d="M862.7,539.7c-1.3-6.3-2-12.5-0.8-18.9C862,527.1,863.3,533.4,862.7,539.7z"/>
	<path d="M443.8,529.1c0,6.3,1.4,12.6,0.8,18.9C443.2,541.8,442.7,535.5,443.8,529.1z"/>
	<path d="M449.4,288.3c0.2,6.1-1.5,13.8-3.7,15.7C446.5,298.6,446.8,293.5,449.4,288.3z"/>
	<path d="M322.4,439.9c0,3.7-4.1,7-11.1,9.3C314.8,446,319,443.6,322.4,439.9z"/>
	<path d="M340.6,451.9c2.3-3.7,2.8-7.4,5.3-10.7C347,445.4,344.4,451.1,340.6,451.9z"/>
	<path d="M444.3,577.6c0-6.8,0-13.5,0-21.1C446,564.1,445.6,570.9,444.3,577.6z"/>
	<path d="M862.5,549.2c1.5,6.7,1.3,13.4,0,20.1C862.5,562.6,862.5,555.9,862.5,549.2z"/>
	<path d="M861.2,500.3c0,4.7,0,9.3,0,14c-0.2,0-0.3,0-0.5,0c0-4.7,0-9.3,0-14C860.9,500.3,861,500.3,861.2,500.3z"/>
	<path d="M442.4,522.6c0-4.6,0-9.3,0-14.1C443.6,510.5,443.8,518.4,442.4,522.6z"/>
	<path d="M496.2,620.9c3.1-3.2,3.3-8.8,8.1-10.9c0.9,1.6-0.3,2-0.9,2.5c-1.8,1.7-3.8,3.2-4,6.1C499.3,620,498,620.8,496.2,620.9z"/>
	<path d="M923,602.2c-0.3,1.7-1.6,2.3-2.4,3.1c-1.4,1.3-2.5,2.5-2.8,4.5c-0.2,1.7-1.4,2.7-3.2,3.2
		C915.6,608.4,920.1,602.5,923,602.2z"/>
	<path d="M534,514.8c2.9,0.3,10.3,4.5,13,7.1C542.5,519.8,537.4,519,534,514.8z"/>
	<path d="M965.2,513.5c-4.6-1.9-9.7-2.8-13.1-7.1C957.1,507.6,961,510.8,965.2,513.5z"/>
	<path d="M937.9,515.1c-3.8,0.5-7.6,1.1-11.3,1.6c0-0.3-0.1-0.6-0.1-1c3.5-2.4,7.7-0.7,11.4-1.7
		C937.8,514.4,937.8,514.7,937.9,515.1z"/>
	<path d="M519.8,523.3c-3.8,0.5-7.5,1.1-11.4,1.7C509.5,522.7,513.5,522,519.8,523.3z"/>
	<path d="M558.6,543.3c0.7,1.6,2.3,2.7,1.2,4.7c-0.4-1.7-1.1-3.2-2.6-4.3c1.5-3.4,3.6-5.9,6.2-8.1
		C562.6,538.5,560.2,540.5,558.6,543.3z"/>
	<path d="M976.8,534.9c0.3,1.7,2.6,2.8,0.9,4.9c0.3-2-1.2-3-2.2-4.7c1.3-3.1,3.4-5.7,6.1-7.8C980.6,530.3,978.3,532.4,976.8,534.9z"
		/>
	<path d="M455.6,275c0.4,4.3-3.1,6.9-4.7,10.3C450.9,281.2,454.6,278.7,455.6,275z"/>
	<path d="M731.1,588.3c3.2,1.5,6.6,2.6,9.5,4.9C737.9,593.9,734.6,592.2,731.1,588.3z"/>
	<path d="M322.1,601.9c-3.7-0.4-6.4-2.7-9.5-4.9C315.3,597.2,319.6,599.3,322.1,601.9z"/>
	<path d="M794,595.5c-2.7,1.7-5.3,3.4-8.5,3.6C787.9,597,790.4,595,794,595.5z"/>
	<path d="M367.4,607.4c2.5-2.1,5-4.1,8.5-3.8C373.4,605.8,370.5,606.8,367.4,607.4z"/>
	<path d="M608.7,535.3c-1.7,3.4-4.9,3.5-7,5.5C602.3,538.2,604.4,536.5,608.7,535.3z"/>
	<path d="M728.1,575.7c0.3,3.9,0.5,7,0.7,10.5C726.9,583.7,726.4,578.4,728.1,575.7z"/>
	<path d="M310,594.1c-0.6-3-1.9-6-1-9.8C310.3,586.5,310.6,588.9,310,594.1z"/>
	<path d="M525.1,573c1.7,2.5,1.8,5,1.7,7.6C525,578.3,524.4,576.1,525.1,573z"/>
	<path d="M943.2,565.1c1.6,2.2,1.8,4.7,1.6,7.4C943.2,570,942.7,568.1,943.2,565.1z"/>
	<path d="M349.1,433.9c0.5-2.6,2.2-4,5.1-4.7c-0.9,2.7-2.9,3.8-4.7,5c-0.2,0.1-0.4,0.2-0.5,0.2C349,434.3,349.1,434.1,349.1,433.9z"
		/>
	<path d="M349.5,434.2c-0.7,2.1-1.6,4-3.8,5.1c-0.2-2.7,1.9-3.9,3.5-5.5C349.3,434,349.4,434.1,349.5,434.2z"/>
	<path d="M382.9,285.6c0.6,0.7,0.9,1.1,0.6,2c-1.7,0.8-3.5,1.6-5.9,1.5C379,286.6,381.6,287.1,382.9,285.6z"/>
	<path d="M375.8,363.6c-0.9-1.9-0.9-1.9,0.2-6.4C377.8,359.6,376.3,361.6,375.8,363.6z"/>
	<path d="M301.9,455.5c1.6-2,3.6-2.5,5.4-3.5C306.4,454,304.8,455.2,301.9,455.5z"/>
	<path d="M452.1,603.3c-0.1-2.8,0.9-4.4,2.1-6C454,599.2,454.2,601.3,452.1,603.3z"/>
	<path d="M870.6,594.3c-0.3-2,0.5-3.7,1.9-5.1C872,590.9,872.4,593,870.6,594.3z"/>
	<path d="M371.1,401.6c0.1,2.6-1.9,3.5-3,4.9C368.4,404.6,369,402.9,371.1,401.6z"/>
	<path d="M421.5,318.5c-2-0.3-3.4-1.5-4.6-2.9C418.8,316,420.9,316,421.5,318.5L421.5,318.5z"/>
	<path d="M324.6,410c-2.6-1.3-2.8-1.8-0.9-4.6C324,407.1,324.2,408.5,324.6,410L324.6,410z"/>
	<path d="M339.2,418.6c-2.3,1.4-3.2-0.6-4.6-0.9C336.1,417.6,337.6,417.2,339.2,418.6z"/>
	<path d="M382.7,377.3c-0.8-2.1,0.2-2.8,1.5-3.6C384.4,375.1,383.8,376,382.7,377.3z"/>
	<path d="M323.5,404.2c-1.4-1.6-1.4-2.7-0.2-4.1C324.1,401.5,324.1,402.6,323.5,404.2z"/>
	<path d="M348.5,356.3c0.8-1.7,1.9-1.6,3.4-2C350.9,355.8,350.2,356.4,348.5,356.3z"/>
	<path d="M363,413.9c0-1.3,0.5-1.9,1.7-2.2C364.7,413,364.1,413.5,363,413.9z"/>
	<path d="M593.1,545.1c-0.2,1.1-0.9,1.3-2,1.1c-0.3-0.8,0.3-0.9,0.7-1.2C592.2,544.7,592.7,544.6,593.1,545.1z"/>
	<path d="M370.2,350.6c-0.8,1.2-1.4,1-2.1,0.4C368.5,350,369.2,350.1,370.2,350.6z"/>
	<path d="M361.3,351.9c0.2-0.7,0.6-1.1,1.4-0.8c0.4,0.5,0.1,0.8-0.3,1C362,352.4,361.6,352.2,361.3,351.9z"/>
	<path fill="#FFFFFF" d="M952.4,394.9c4-0.9,7.4-3.3,10.4-5.7c2.6-2.1,5-3.8,8.6-3.9c-0.5-1-1.2-0.9-1.8-0.9
		c-0.6-0.1-1.1-0.1-1.8-0.1c0.3-1.3,1.2-1,1.8-0.8c8,2.8,14.2,7.7,17.6,15.7c3.2,7.5,3.6,15.6,5,23.4c1.9,10.8,1.6,21.7,0.9,32.6
		c-0.4,5.7,0.5,11.4-0.1,17.2c-0.7,6.5-1,13-4.3,19c-2.4,4.4-6,7.8-9.2,11.6c-1.5-0.4-2.9-0.4-4.4-0.4c-7.6,0.3-15.3,1.3-22.8-1.1
		c-6-1.9-12.1-2.1-18.3-0.6c-1.7,0.4-3.3,0.5-5-0.1c-2-0.6-4.1-0.1-6.1,0.3c-4.9,0.9-9.9,0.8-14.7,0.2c-3.6-0.4-7.3-0.8-10.9-1.4
		c-5.9-1-11.9,0.4-18-0.7c-0.7-0.3-0.6-1.2-0.9-2c0.3-0.1,0.6-0.3,1-0.2c6.4,0.6,12.5-0.7,18.6-2.6c2.4-0.8,4.9-1.1,7.4-1.7
		c9.2-2.1,16.3-7.4,22-14.9c8.3-10.8,14.6-22.7,20.7-34.7c4.1-8.1,8.9-15.7,13.4-23.6c1.6-2.9,3.4-5.7,4.5-8.8
		c0.7-1.9,2-3.6,3.9-4.6c4.2-2.2,4.8-6.3,5.6-10.5c-0.6,0.3-0.9,0.3-1,0.4c-1.4,4.6-4.5,7.8-7.7,11.3c-7.1,7.7-11.3,17.4-16.5,26.4
		c-2.4,4.2-3.9,8.9-6.6,12.8c-5.5,8.2-9.2,17.3-14.8,25.3c-7.1,10.4-17.3,17.1-29.2,20.5c-4.9,1.4-10.4,1.4-15.5,2.3
		c-5.7,1-11.2,0.7-16.9,0.2c-10.2-1-20.4-2.5-30.6-3.6c-3.7-0.4-7.1-2.2-10.8-3c-10.3-2.3-20.9-2.7-31.3-4.5
		c-7.2-1.2-14.6-1.5-21.9-2c-2.3-0.2-3.8-1.8-6-2.2c-10.3-1.6-20.6-3.2-31-2.6c-2.6,0.1-5.2-0.4-7.7-1.5c-1.8-0.8-3.6-1.7-5.5-2
		c-3.9-0.6-5.8-3.1-7.6-6.2c-2.9-5.4-4.5-11.3-6.4-17c-0.3-0.9-0.5-2.1-0.2-3c2-6.9,4.1-13.8,7.7-20.2c1.5,1.8,1.8,3.8,1.6,5.9
		c-0.2,2-0.2,4.1,0.5,6.1c0.4,1.1,0.6,2.5,2.1,2.7c0.6-0.2,0.9-0.7,0.8-1.1c-1.4-7.2-1.5-14.6-2.5-21.8c-0.3-1.8-0.5-3.6-1.3-5.3
		c-1.2-2.8-2.2-5.6-1.5-8.8c0.4-2.1-0.2-4.3-1.7-6.1c-0.8-1-0.8-2.1-1-3.2c-1.7-12.8-1.1-25.6,0.6-38.3c0.9-6.4,1-12.8,0.6-19.2
		c-0.1-1.4-0.1-2.9-0.7-4c-2.9-5.3-2.7-11.3-4.6-16.8c-0.1-0.2,0.1-0.4,0.3-0.9c5.8,8.3,12.9,14.8,22.4,18c1.6,2.6,1.7,5.8,3.8,8.7
		c0.4-2.8-0.6-4.8-1-7c1.2-0.8,2.4-0.2,3.6,0.1c1.6,2.2,1.1,4.9,1.7,7.3c2.4,8.6,6.4,16.4,10.6,24.1c3.5,6.3,6.9,12.6,9.5,19.6
		c-0.8,0.9-1.8,1.7-1.4,3.4c1.9,8.1,1.9,16.3,0.9,24.6c0,0.3,0.2,0.6,0.3,0.9c2.8-2.7,3.7-13.4,2.3-25.8c-1-9-5.2-16.7-8.8-25
		c3.9-5.2,8.1-10.5,13.4-15.4c-3.4-0.6-4.3,2.2-6.4,3.2c-2.4-5.5-1.7-11.3-1.7-17.1c20.2-5.9,30.4-20.3,34.6-39.8
		c1.2-1.6,4-1.8,4.3-4.3c-1.4-1.3-2.2,0.4-3.5,0.3c0-2.1,0-4.3,0-6.7c2.1,1,2.6,3.4,4.1,4.7c0.9,0.4,1.9,0.5,2.8,0.3
		c3.7-1,7.3-2.7,11.2-2.4c0.2,0,0.4-0.5,0.6-0.7c-2-1.7-2-1.7-13.2,1.4c-1-2.2-4.2-3.1-3.4-6.4c-0.6-0.6-1.6,0-2.3-1
		c-0.5-6.2-2.1-12.4-4.3-18.2c1.7-2,2.8-0.2,3.2,0.5c1.8,3.4,4.4,2.6,7.1,1.6c1.2-0.4,2.4-0.8,3.6-1.8c0.7-1.8,0.8-4.3,3.8-5.8
		c-7.1-1.4-12.6,1.5-18.7,3c-2.1-3.6-4.3-7.3-7.1-10.5c4.2-4.5,4.2-4.5,9.4-6.3c0.5-0.9,1.1-1.9,1.7-2.8c0.5-0.9,1-1.8,1.7-2.8
		c4.7-0.3,9.3-2.9,14.4-1.5c2.4,0.7,4.9,0.9,6.8,2.9c1.1,1.2,2.9,1.7,4.5,1.4c3-0.5,5,1,7.1,2.7c1.8,1.6,3.4,3.4,4.9,5.3
		c0.7,0.9,1.2,2.3,3.2,2.1c0.8-5-2.1-9.1-3.2-13.8c1.1-2.1,2.5-4.2,4.5-5.8c1.4-1.2,2.8-1.4,4.3-0.1c1.5,1.2,3.1,2.3,4.7,3.4
		c4,2.8,4.8,7.3,1.9,11.3c-0.8,1.1-1.7,2.2-2.3,3.4c-0.5,1.1-0.7,2.4-1.1,3.7c-0.8,0.4-1.3-0.8-2.4-0.5c1.1,1.3-0.8,1.9-0.8,3.5
		c3.6,4.7,3.3,10.4,2.3,16.2c3.2-5.2,2.6-10.5,0.6-16.1c2.1-1.1,3.6-2.6,3.8-5.1c0.1-0.8,0.7-1.7,1.3-2.4c1.9-2.3,3.1-4.8,3.1-8
		c2.1,0.1,4.1,1.2,5.9,0.5c2,0.8,2.3,3.1,4.4,3.8c2.1-2.2,3.9-1.2,6.1,0.5c2.9,2.3,6.1,4,9.2,6c1.7,1,3.5,1.7,5.5,1.5
		c2.8-0.2,5.3,1.2,8.4,0.9c-4.1,7.6-7.6,15-11,22.5c-4.9,10.6-9,21.3-10.9,32.8c-1.1,6.5-4.6,11.9-7.7,17.5c-2.3,4.1-5.4,7.7-8,11.5
		c-2.8,4-6.4,5.2-10.6,5.8c-3.5,0.5-4.8-1.1-6.1-4.6c-0.8-2.3-2.5-4.3-4-6.4c-4.7-6.5-7.3-13.7-7-21.8c0.1-3.1,0-6.2,0-9.6
		c1.7-0.4,3-2,4.8-3.5c3.3,2.3,7.6,3,10.5,6.5c-1.7-3.5-3.5-6.8-7.2-8.6c3-4,3-4,8.1-4c-0.5-1.4-2.4-0.8-3-2.2
		c1.3-2.2,3.3-4.1,4.4-7.4c-2.9,1.6-4.8,3.3-6.3,5.4c-3.1,4.5-7.1,8.1-11.8,10.8c-3.7,2.1-7.8,1.8-11.7,0.9
		c-1.7-0.4-2.1-2.8-3.4-4.1c-1.5-1.6-2.9-3-5.3-2.4c-1.7,0.4-2.4-0.8-3.2-2.2c-1,1.6-0.5,2.7,0.1,3.7c1.5,1,3.2,0.2,4.8,0.8
		c2.7,2.5,4.2,6.4,8.4,7.3c-1,3.4-0.9,6.7-0.8,10c0,5-1.5,9.7-2.7,14.5c-0.9,3.8-2.1,7.5-3.2,11.2c-1.1,3.8-2.4,7.6-1.8,12.3
		c-5.5-3.6-9-10.1-16.8-8.4c1.5,2.6,3.6,2.6,5.4,2.9c1.7,0.3,2.8,1,3.9,2.4c2.4,3.1,5.2,5.8,8.1,8.5c-1.2,4.9-5.1,8.3-7.2,12.9
		c4.1,1.4,4.1-3.1,6.5-3.8c0.5,2.5-1,4.5-2,6.4c-1,1.9-1.1,3.6,0,5.1c1.4,1.9,1.2,3.7,0,5.4c-2.3,3.4-3.5,7.4-5.1,11.2
		c-1.2,2.7-2.4,5.4-4.4,8.2c-0.1-3,1.2-5.5,0.2-8.2c-0.6,2.7-1.3,5.3-1.6,8c-1.1,7.8-5.7,13.6-10.7,19.2c-7.2,8.1-15,15.8-22,24.1
		c-2.2,2.5-5,4.2-8.7,3.8c-3.5-0.3-7-0.9-10.5-1.7c-2.1-0.5-4.2-0.7-6.1-0.2c-2.7,0.6-5,0.1-7.3-1.1c-1.9-1-4.1-0.9-6-2
		c1.5,3.1,3.7,5.1,7,6c1.9,0.5,3.8,1,5.7,1.4c0.7,0.2,1.6,0.5,2,0.2c3.9-2.6,7.7-0.1,11.5,0c1.8,0.1,4-0.7,4.9,1.7
		c2.7-1.1,5.1-2.1,7.5-3.1c1.1-0.4,1.8-1.3,2.6-2.2c7.5-9.1,14.4-18.8,22.9-27c7.3-7,11.4-15.6,15-24.7c1.1-2.6,2.3-5.2,3.5-7.8
		c1.2,0.3,1.4,1.5,2.1,2.2c2.7,2.6,5.2,4.7,9.6,3.2c2.8-0.9,6.2-1.2,9.4-0.3c5.6,1.6,11.3,1.8,16.9-0.2c1-0.4,2-0.3,3,0.1
		c6,2.5,12.2,4.3,18.2,7.1c7.3,3.4,15.5,3.9,23.3,5.6c5.5,1.2,11.1,1.9,16.7,0.9c3.5-0.6,6.9-1.6,10.3-2.5c1.2-0.3,2.5-0.6,3.7-0.5
		c6.1,0.9,11.5-1.2,16.9-3.6c1.6-0.7,3-1.2,4.8-0.5c2.2,0.8,4.5-0.5,6.7-1c1-0.2,1.8-1.1,2.9-0.8c-0.4-0.6,0-1.2,0.3-1.7
		c0.6-0.7,1.3-0.7,2.1-0.7C952.1,394.9,952.3,394.9,952.4,394.9z"/>
	<path fill="#FFFFFF" d="M950.2,396.3c-0.2,0.3-0.4,0.6-0.6,1c-0.5-0.5-0.6-1.6-1.3-1.5c-8.6,1.1-15.9-3.8-24-5
		c-1-0.1-1.1-0.1-3.1,1.1c3.9,2.1,8.3,2.3,12.1,4.7c-3.8,1.3-7.6,2.1-11.3,2.5c-6.7,0.7-13.2,2.9-19.9,3.3c-4.4,0.3-8.7-0.3-13-1
		c-3.8-0.6-7.7-1.6-11.6-1.5c-10.7,0.1-20-4.3-29.5-8.9c2.2-3,5.9,0.2,7.8-2.2c0.4,0.1,0.6,0.1,0.6,0.2c2.7,3.8,6.8,4.1,10.9,4.7
		c4.1,0.6,8.2,0.7,12.3,0.3c1.4-0.1,2.7,0.7,4.2-0.1c-0.3-1.1-1.2-1.1-2.1-1.2c-5.7-0.5-11.3-1-17-1.3c-2-0.1-3.4-0.5-4.7-2.1
		c-1.5-1.9-3.4-2.9-6.3-2.1c-2,0.6-4.2-0.6-6.2-1.3c-0.9-0.3-1.8-1.2-2.9-0.6c-1.4,1.5,0.5,2.1,0.9,3.3c-4.9,2.3-9.8,3.8-15.2,2.4
		c-2-0.5-4.1-0.6-6.1-0.8c-2.9-0.3-5.6-1-8-2.8c-1.1-0.8-2.4-1.2-3.7-1.8c-0.9-0.4-1.8-0.3-2.2,1c1.3,1.5,3.8,1.6,4.8,3.5
		c-3,1.3-4.6,0.6-7.5-2.9c0.1-5.1,1.6-9.8-1-14.3c-0.1-1.2,0.9-1.8,1.4-2.6c1.1-1.8,1.8-3.7,1.4-5.9c-0.9-6-0.4-7,4.9-10.1
		c0.3,0.4,0.7,0.8,1.1,1.1c-0.4-0.3-0.8-0.7-1.2-1.1c0.5-2,2.2-3.1,3.4-4.6c1-1.2,2.8-1.3,4.2-0.5c5.2,2.9,10.3,1.1,15.2-0.7
		c4.1-1.5,6.4-1.2,8.8,2.4c2.3,3.6,5.6,6.4,7.9,9.9c1.9,2.9,5.1,3.5,8.1,3.8c5.1,0.5,10.3,0.4,15.4-0.8c4.8-1.1,8.5-3.6,11.4-7.8
		c0.1-0.5-0.7-0.4-1.1-0.8c0.4-0.3,0.6-0.6,0.9-0.8c9.2-5.7,18.5-10.9,28.8-14.4c1.6-0.6,3.5-1.1,3.9-3.8c-5.2,0.9-9.9,2.3-14.8,4.1
		c-2.9-4.3-1.9-8.6-0.5-12.8c0.7-2.3,1.9-4.4,2.7-6.6c0.4-1,1-2.2-0.4-3c-1.2,0.2-1.3,1.2-1.6,2c-0.7,2.1-1.8,3.9-3.1,5.7
		c-2.8,3.8-4.2,7.9-2,12.5c-2.5-2.1-4.5-4.4-5.9-7.3c-2-4.3-3.6-8.8-5.4-13.2c-2.2-5.3-2-10.8-1.1-16.2c2.1-12.8,5.2-25.3,9.1-37.7
		c1.1-3.4,1-7,2.3-10.5c4.9-1,10.4-2.1,14.5,0c7,3.5,14.3,2.4,21.4,3.5c1.3,0.2,2.5,0.4,3.6,1c6.5,3.3,12.2,7.8,17.3,12.9
		c1.6,1.6,2.4,3.9,2.9,6.1c0.9,4.8,2.1,9.6,2.4,14.6c0.3,4.3,1.2,8.3,3.7,12.1c3.7,5.6,5.2,12.2,6.2,18.8c0.2,1.5,1,3,0.6,4.8
		c-4.7-9.6-9.3-19.1-12.6-29.1c-0.5-1.4-0.2-2.7,0-4c0.5-2.9,1.1-5.8,0.3-8.8c-1.3,0.2-1.8,1.1-2.1,2.1c-1.4,4.3-1.9,8.2-0.5,13.1
		c2.5,8.6,6.1,16.7,9.1,25.1c2.6,7.3,2.9,15,3.1,22.7c0.1,5.6,0.3,11.1-2.5,16.4c-1.6,3.1-1.8,6.7-1.1,10.4c1.3,6.3-2.5,10.3-7,14
		c-2.4,2-5.4,3.4-7.2,6.2l0.1-0.1C951.8,395.4,951,395.8,950.2,396.3z"/>
	<path fill="#FFFFFF" d="M751.1,237.2c11,0.2,20.8,5.2,28.5,14.4c15.6,18.6,15.6,48.7,0.1,67.4c-16.2,19.6-44.1,19.1-59.7-1
		c-14.5-18.6-14.5-46.7-0.1-65.3C727.6,243,737.5,237.6,751.1,237.2z"/>
	<path fill="#FFFFFF" d="M722.5,240.9c-0.2,1-1,1.3-1.6,1.7c-5.6,4.3-10.2,9.6-13.4,15.9c-2.7,5.2-6.7,9.2-11.3,12.6
		c-2.3,1.7-3.3,4-4.6,6.5c-3.3,6.4-1.3,11.5,2.6,16.7c2.5,3.4,4.9,6.9,7.2,10.4c2.8,4.3,4.7,9.1,5.5,14.3c0.8,4.7,1.6,9.4,2.9,14.3
		c-4.7,0.8-8.9-0.1-13-1.3c-8.8-2.7-15.8-8-21.2-15.6c-13.8-19.5-12.6-47.4,2.7-65.5c10.8-12.7,28.3-17.1,42.9-10.7
		C721.5,240.4,722,240.7,722.5,240.9z"/>
	<path fill="#FFFFFF" d="M896.2,253.5c-4,8.8-5.5,18.3-8.6,27.2c-4.8,14.1-5.5,28.2,0.5,42.2c0.9,2,1.5,4.1,2.4,6.1
		c2.4,5.4,5.1,10.5,11,13.6c-7.6,3.9-13.3,9.5-18.9,15.3c-2.7,2.8-6.5,3.2-10.2,3.2c-3.6,0-7.1,0-9.8,1.8c-6.4-1.9-7.8-8.1-11.4-12
		c-1-0.2-1.2,0.5-1.6,1c-1.5-1.4-1.7-3.4-3.9-5.2c8.6-1.4,11.4-8.2,15.4-13.6c5.4-7.4,9.6-15.5,11.8-24.2c2.7-10.5,7-20.3,11.2-30.1
		c3.2-7.7,5.4-15.8,8.9-23.4C893.6,254.2,893.7,252.7,896.2,253.5z"/>
	<path fill="#FFFFFF" d="M974.3,575.2c2.2-7.5,7-11.5,13.7-13.4c1.6-0.5,3.2-1.1,4.8-1.8c2.6-1.2,4.6-2.9,5.7-5.7
		c2.7-7.5,7-14.4,8.1-22.5c0.5-3.7,0.7-7.5,1.1-11.9c7.7,2.4,15.4,3.1,22.8,5.1c3,6.6,3.6,13.4,4.9,20.2c-7,5.3-14.7,9.1-22.6,12.7
		c-5.4,2.5-11,4.4-16.8,6c-4.7,1.3-8.4,4.6-12.7,6.6C980.3,571.8,977.5,573.5,974.3,575.2z"/>
	<path fill="#FFFFFF" d="M837.3,345.1c-4.8,0.7-8.7,1.6-13.1,1.2c-4-0.3-9.1-0.6-11.2,4.8c-0.4,1.1-1.2,2-2.4,2.1
		c-2.2-2-2.5-3.3-1-6.9c2.4-5.5,4.3-11.1,5.7-16.9c1.4-5.9,1.9-12,1.4-18c-0.3-3.1-0.3-6.1,0.5-9.3c1.9,0.1,3.8-0.1,5.8-0.5
		c0,4,0,7.9,0,11.8c0,6.1,0.9,12,3.9,17.5c0.5,0.9,0.9,1.9,1.7,2.6C832.2,336.5,833.7,341.2,837.3,345.1z"/>
	<path fill="#FFFFFF" d="M975.5,347.1c2.6,13.4,5.9,26.7,8,40.6c-4.4-2.8-7.9-6.6-13.6-6.8c1.2-5.3-0.9-10.4,1-15.5
		C972.9,359.5,973.9,353.2,975.5,347.1z"/>
	<path fill="#FFFFFF" d="M683,242.6c-26,20.2-26.3,65.2-0.5,85.2c-9.1-3.3-22.2-20.1-22.5-41.2C659.7,267.7,669.9,247.9,683,242.6z"
		/>
	<path fill="#FFFFFF" d="M725.6,327.9c-15.4-10-22.3-24.7-22.2-42.6c0.1-18,6.8-33,22.8-42.9c-13,11.2-19.3,25.5-19.4,42.6
		C706.7,302.1,712.8,316.5,725.6,327.9z"/>
	<path fill="#FFFFFF" d="M755,336c0.5,6.4-0.3,12.9,3.3,18.9c-2.2,2-4.5,4-6.9,6.2c-4.7-7.9-7.6-16.3-10.6-25.1
		C745.6,336,750.1,336,755,336z"/>
	<path fill="#FFFFFF" d="M702.8,268.7c-2.7,10.7-2.9,21.2,0.1,32c-2.5-2.2-7.5-9.1-8.5-11.5c-1.7-4-0.8-8-0.4-12.1
		c0.1-0.7,0.6-1.5,1.2-2C697.7,272.9,700.4,271.1,702.8,268.7z"/>
	<path fill="#FFFFFF" d="M999.2,457.5c-1,5.1,0.2,10.6-1.8,15.8c-1.8-1-1.2-2.3-1.2-3.4c0.3-7.1,0.7-14.1,1-21.2
		c0.1-1.5,0-2.9,0.1-4.4C998,448.7,997.2,453.4,999.2,457.5L999.2,457.5z"/>
	<path fill="#FFFFFF" d="M803,259.2c-3.2,3.6-7.1,4.4-9.9,1.9C796,259.2,799.2,258.2,803,259.2z"/>
	<path fill="#FFFFFF" d="M993.8,487.7c-0.1-1.5,0.4-2.6,0.9-3.9c2.2,1.2,1.6,3.1,1.7,4.9C995.2,489,994.6,488.3,993.8,487.7z"/>
	<path fill="#FFFFFF" d="M762.6,225.4c-1,2.5-1.8,4.3-3.7,5.5C759.5,228.8,759.8,226.7,762.6,225.4z"/>
	<path fill="#FFFFFF" d="M811.5,188.8c-2,1.5-3.4,1.2-5.3-0.6C808.3,187.9,809.7,187.7,811.5,188.8z"/>
	<path fill="#FFFFFF" d="M876.5,498.4c-2-0.3-4-0.6-6-0.9c2.2-1.1,4.1,0.1,6.1,0.1C876.5,497.9,876.5,498.1,876.5,498.4z"/>
	<path fill="#FFFFFF" d="M767.4,232.8c0.5-2.1,1.5-3,2.9-3.9C770.1,231.4,770.1,231.4,767.4,232.8z"/>
	<path fill="#FFFFFF" d="M774.3,201.8c1-1.3,1.5-3.4,4.1-2.7C777.4,200.8,775.9,201.2,774.3,201.8z"/>
	<path fill="#FFFFFF" d="M776.5,240.9c-0.4-2.1,0.9-3,2.6-3.5C778.2,238.6,777.3,239.8,776.5,240.9z"/>
	<path fill="#FFFFFF" d="M796.1,198c-1.2-1.8-1.2-3.2-0.9-4.7C796.8,194.5,796.5,195.9,796.1,198z"/>
	<path fill="#FFFFFF" d="M995.9,477.8c0.9,1.8,0.8,2.9,0.4,4.1C994.4,480.9,995.4,479.7,995.9,477.8z"/>
	<path fill="#FFFFFF" d="M857.7,234.8c0.9,0.8,1.8,1.6,2.7,2.4C858.8,237,858.8,237,857.7,234.8z"/>
	<path fill="#FFFFFF" d="M781,232.9c0.2-1.3,0.3-2.7,2.2-3C782.9,231.5,782,232.2,781,232.9z"/>
	<path fill="#FFFFFF" d="M814.1,185.4c1.5-0.6,2.3-0.3,2.9,1.7C815.8,186.5,814.7,186.6,814.1,185.4z"/>
	<path fill="#FFFFFF" d="M766.2,213.1c0-1.3,0.3-2.3,2-2.7C767.9,211.7,767.2,212.4,766.2,213.1z"/>
	<path fill="#FFFFFF" d="M791.5,228.4c-0.4,1.5-1.5,1.3-2.8,1.6C789.5,228.7,790.2,228.3,791.5,228.4z"/>
	<path fill="#FFFFFF" d="M843.8,210.3c0.7,0.7,1.3,1.4,1,2.6C844,212.2,843.2,211.6,843.8,210.3z"/>
	<path fill="#FFFFFF" d="M765.4,234.5c0.1,1.3-0.7,1.8-1.7,2.2C764,235.6,764.6,234.9,765.4,234.5z"/>
	<path fill="#FFFFFF" d="M804,188c-0.9,0.1-1.4-0.3-1.7-1.1C803.4,186.4,803.9,186.8,804,188z"/>
	<path fill="#FFFFFF" d="M798.5,214.2c0.7,0.1,1,0.6,1.4,1.1c0.3,0.4,0.1,0.6-0.3,1C798.4,216.1,798.4,215.2,798.5,214.2z"/>
	<path fill="#FFFFFF" d="M819.5,190.9c-0.7-0.3-1.1-0.8-0.9-1.8C819.7,189.4,820.2,189.7,819.5,190.9z"/>
	<path fill="#FFFFFF" d="M831,188.9c0.9-0.3,1.4,0.3,2,0.8C832.2,190,831.5,189.9,831,188.9z"/>
	<path fill="#FFFFFF" d="M831.2,233.9c-1.2-0.4-1.4-1.1-1.6-2C830.7,232.3,830.9,232.9,831.2,233.9z"/>
	<path fill="#FFFFFF" d="M818.4,222.9c-1.4-0.4-1.7-1-1.6-1.9C817.8,221.2,817.6,222,818.4,222.9z"/>
	<path fill="#FFFFFF" d="M811.7,205.4c0.7,0.1,1,0.6,1.3,1.7C812.3,206.4,811.5,206.4,811.7,205.4z"/>
	<path fill="#FFFFFF" d="M785.9,240.4c0.4-1,0.9-0.9,1.5-0.7C787.1,240.3,786.7,240.5,785.9,240.4z"/>
	<path fill="#FFFFFF" d="M716.1,419.3c-0.1-0.5-0.3-1,0.1-1.5C716.3,418.3,716.6,418.8,716.1,419.3z"/>
	<path fill="#FFFFFF" d="M800.2,189.3c-0.1,0.2-0.2,0.5-0.3,0.5c-0.3,0.1-0.6,0-0.7-0.4c0-0.2,0.1-0.5,0.3-0.5
		C799.9,188.7,800.2,189,800.2,189.3z"/>
	<path fill="#FFFFFF" d="M821.6,231.3c-0.1,0.8-0.3,1-0.8,0.9C820.5,231.6,820.7,231.4,821.6,231.3z"/>
	<path fill="#FFFFFF" d="M716.8,424.3c0-0.4,0-0.7,0-1.1C717.1,423.6,717.3,423.9,716.8,424.3z"/>
	<path fill="#FFFFFF" d="M534.3,403.2c4-0.9,7.4-3.3,10.4-5.7c2.6-2.1,5-3.8,8.6-3.9c-0.5-1-1.2-0.9-1.8-0.9c-0.6,0-1.1,0-1.8,0
		c0.3-1.4,1.2-1.1,1.8-0.8c8,2.8,14.2,7.7,17.6,15.7c3.1,7.5,3.6,15.6,5,23.4c1.9,10.8,1.6,21.7,0.9,32.6
		c-0.4,5.7,0.5,11.4-0.1,17.2c-0.7,6.5-1,13-4.3,19c-2.4,4.4-5.9,7.8-9.3,11.6c-1.5-0.3-2.9-0.4-4.3-0.3c-8,0.5-16,1.2-23.8-1.3
		c-5.5-1.8-11-1.9-16.6-0.4c-2,0.5-4,0.9-6.1,0c-0.8-0.3-1.8-0.2-2.7,0c-5.6,1.1-11.2,1.1-16.8,0.6c-3.9-0.3-7.7-1-11.6-1.5
		c-6-0.8-12.1,0.3-18.2-0.7c-0.7-0.4-0.8-1.2-0.9-2.1c0.3-0.1,0.6-0.2,0.9-0.2c6.3,0.5,12.3-0.7,18.3-2.5c2.4-0.7,4.9-1.2,7.3-1.7
		c9.4-2.1,16.5-7.4,22.3-15c8.3-10.8,14.6-22.7,20.7-34.7c4-7.9,8.7-15.3,13-23c1.7-3.1,3.7-6,4.9-9.4c0.7-1.9,2-3.6,4-4.6
		c4.2-2.2,4.7-6.2,5.6-10.3c-0.6,0-0.8,0-0.8,0c-1.3,6.1-6.4,9.4-10,13.8c-2.5,3.1-4.5,6.6-6.5,10.1c-4.9,8.8-9.5,17.8-14.4,26.5
		c-4.9,8.6-9.2,17.5-14.8,25.7c-7,10.3-17.1,16.9-28.9,20.4c-5,1.5-10.6,1.5-15.9,2.4c-5.7,1-11.2,0.7-16.9,0.2
		c-10.1-0.9-20.2-2.5-30.3-3.5c-3.9-0.4-7.4-2.3-11.2-3.1c-10.2-2.3-20.7-2.7-30.9-4.4c-7.3-1.3-14.8-1.3-22.2-2.2
		c-2.9-0.3-5.4-2.1-8.4-2.4c-8.3-0.7-16.5-2.5-24.9-2.6c-0.2-1.3,1-1.2,1.5-1.6c6.8-4.4,12.6-9.9,17.2-16.6c0.8-1.2,1.7-1.6,3-2
		c3.1-0.9,6.2-2.7,7.2-5.4c1.7-4.7,5.7-7.4,8.3-11.3c2.6-4.1,4.2-8.6,7-12.6c3.2-4.5,6-9.2,9-13.8c4.4-6.8,7.7-14,9.9-21.8
		c0.7-2.4,1.6-4.7,2.4-7c1.1,0.3,1.5,0.8,1.7,1.7c0,0.2,0.1,0.4,0.1,0.5c2.3,5,5,6.1,10.2,4.5c2.8-0.9,5.8-0.4,8.6,0.2
		c6.1,1.4,12,1.8,18-0.3c0.9-0.3,1.8-0.4,2.6,0c6.4,3.4,13.6,4.5,19.9,8.1c2.4,1.4,5.4,1.8,8.3,2c3.4,0.2,6.8,0.9,10.1,1.7
		c9.4,2.4,18.8,2.6,28.1-0.4c2.3-0.7,4.7-1,7.1-0.9c4.8,0.2,9.3-1.1,13.6-3c2.6-1.1,5.1-1.7,7.9-1.3c2.2,0.3,4.5,0.5,6.6-0.8
		c0.7-0.4,1.3-0.8,2-1.3c0.7-0.4,1.5-0.3,2.3-0.2C534,403.1,534.1,403.1,534.3,403.2z"/>
	<path fill="#FFFFFF" d="M532,404.5c-0.4,0.3-0.8,0.7-1.1,1c-0.3-0.7-0.9-0.8-1.4-0.6c-4.9,1.4-9.5,0.3-13.9-1.8
		c-2-0.9-4.2-1.4-6.3-2.2c1.5,0.6,3.1,1.1,4.7,1.6c1,0.4,2.1,0.9,2.1,2.2c0.1,1.4-1,2-2.1,2.4c-3.6,1.3-7.3,1.9-11.1,2.2
		c-7.8,0.6-15.2,3.6-23.2,3.2c-6.1-0.3-12-2.2-18-2.4c-11-0.4-20.6-5.3-30.5-9.1c-1.3-0.5-2.3-1.2-1.8-2.8c0.4-1.4,1.4-2.1,2.9-1.9
		c1.7,0.3,3.2,0.2,4.9-0.3c1.8-0.5,3.3,0.9,4.3,2.3c1.1,1.5,2.5,1.9,4.3,2.1c4.7,0.6,9.4,1.1,12.2,1.1c-2.8-0.1-7.3-0.4-11.9-1.1
		c-1.9-0.3-3.4-0.5-4.7-2.2c-1.3-1.8-3.2-3-5.6-1.8c-1,0.5-1.9,0.1-2.9-0.1c-1.1-0.2-2.3-0.3-3.2,0.3c-6.6,4.8-13.9,4.5-21.3,2.9
		c-1.8-0.4-3.7-0.7-5.5-0.7c-2.1,0-3.7-0.7-5.2-2c0.8,2.7-0.8,3.4-2.9,3.4c-2.4,0-5.8-3.6-6.2-6.2l-0.1,0.1c0.5-0.3,1.5-0.3,1.4-1.2
		c-0.6-4,1.5-8.4-1.8-12.2c2-2.8,4.1-5.5,3-9.1c-0.3-1-0.2-1.9-0.2-3c0-3.7,2.7-5,5.3-6.4c0.3,0.4,0.7,0.8,1.1,1.1
		c-0.4-0.3-0.8-0.7-1.2-1.1c0.5-2,2.2-3.1,3.4-4.6c1-1.2,2.8-1.2,4.1-0.5c5.3,2.9,10.3,1.1,15.2-0.7c4.1-1.5,6.4-1.2,8.8,2.5
		c2.3,3.6,5.6,6.4,7.9,9.9c1.9,2.9,5.1,3.5,8.1,3.8c5.1,0.5,10.3,0.4,15.4-0.8c4.8-1.1,8.5-3.6,11.4-7.8c0.1-0.5-0.7-0.4-1.2-1
		c9.2-5.8,18.4-11,28.5-14.6c2-0.7,4.5-1.1,5.3-4.3c-5.3,0.9-10,2.4-14.9,4.1c-2.9-4.3-1.9-8.6-0.5-12.8c0.7-2.3,1.9-4.4,2.7-6.6
		c0.4-1,1-2.2-0.4-3c-1.2,0.2-1.3,1.2-1.6,2c-0.7,2.1-1.8,4-3.1,5.7c-2.9,3.8-4.1,7.9-1.5,13.2c-2.9-2.7-4.9-5-6.3-8
		c-2-4.3-3.6-8.8-5.4-13.2c-2.2-5.3-2-10.8-1.1-16.2c2.1-12.8,5.2-25.3,9.1-37.7c1.1-3.4,1-7,2.3-10.5c4.9-1,9.8-0.7,14.6-0.3
		c6.5,4.6,14.1,2.7,21.3,3.8c1.5,0.2,2.9,0.6,4.2,1.3c6.1,3.2,11.5,7.5,16.4,12.3c1.8,1.7,2.6,4,3.1,6.4c0.9,4.8,2.1,9.6,2.4,14.6
		c0.3,4.3,1.2,8.3,3.7,12.1c3.6,5.5,5.1,12,6.2,18.4c0.3,1.6,0.5,3.1,0.5,4.8c-1.8-4.5-4.5-8.4-6.3-12.8c-2.1-5.1-4.2-10.1-5.9-15.4
		c-0.5-1.7-0.5-3.1-0.2-4.6c0.6-2.9,1-5.8,0.3-8.8c-1.4,0.2-1.9,1.2-2.1,2.1c-1.3,4.3-3.4,8.6-0.2,13c1.4,8.9,5.8,16.8,8.8,25.2
		c2.6,7.3,2.9,15,3.1,22.7c0.1,5.6,0.3,11.1-2.5,16.4c-1.6,3-1.9,6.5-1.1,10.1c1.5,6.5-2.4,10.6-6.9,14.3c-2.4,2-5.4,3.4-7.2,6.2
		l0.1-0.1C533.6,403.6,532.8,404.1,532,404.5z"/>
	<path fill="#FFFFFF" d="M222.3,541.6c1.5-20.8,10.4-39.4,28.8-53.1c4.5-3.3,9.5-5.5,15-6.4c9.8-1.7,18,2.2,22.7,11
		c3.7,6.8,4.6,14.2,3.9,21.7c-2,20.5-10.8,37.4-27,50.2c-5,4-10.6,6.7-17,7.6c-9.4,1.4-17.5-2.5-22.1-10.9
		C223.4,555.9,222.5,549.7,222.3,541.6z"/>
	<path fill="#FFFFFF" d="M230.5,478c-3.8-0.1-7.1,0.9-10.4,1.5c-2.4,0.5-4.6,0.1-6.7-0.9c-5.1-2.5-10.1-1-15,0.2
		c-2.1,0.5-3.4,2.4-3.2,4.8c0.2,2.9-0.2,5.4-2.2,7.8c-2.5,3-3.3,6.4-1.5,10.2c1,2.2-0.3,4.5-0.9,6.6c-1,3.5-0.1,6.9,0.7,10.1
		c0.7,2.9,3.8,3.9,6.5,4.2c1.6,0.2,2.7,0.5,3.6,2c1.6,2.7,4,4,7.2,3.8c0.2,1.2-0.8,1.7-1.4,2.2c-7.1,6.1-14.8,10.8-24.6,10.8
		c-7.7,0-13.4-3.4-17.5-9.8c-3.1-4.8-4.7-10.3-4.8-15.9c-0.3-24.9,9.6-44.8,29.8-59.4c6-4.3,12.8-6.5,20.4-5.8
		c3.8,0.3,7.2,1.6,10.1,4C227.9,460.5,230.2,468.6,230.5,478z"/>
	<path fill="#FFFFFF" d="M478,261.8c-4.1,8.8-5.5,18.3-8.6,27.3c-4.8,14.1-5.5,28.2,0.6,42.2c1.4,3.3,2.6,6.6,4.2,9.8
		c2,4,4.7,7.3,8.7,9.6c-0.5,1.2-1.8,1.4-2.7,1.9c-5.2,3.2-9.9,7.1-13.9,11.7c-3.3,3.9-7.5,5.1-12.2,5.1c-3.5,0-6.9,0-9.6,1.8
		c-6.6-1.7-7.8-8.2-11.7-12.1c-0.4,0.1-0.7,0.1-0.8,0.3c-0.2,0.2-0.4,0.5-0.7,1c-1-1.7-2-3.3-3.2-5.3c8.7-1.6,11.4-9.2,15.7-15.1
		c4.8-6.6,8.6-14,10.5-21.8c3.7-15.1,11.3-28.7,16.1-43.3c1.3-3.9,2.8-7.7,4.4-11.5C475.5,262,475.9,261.1,478,261.8z"/>
	<path fill="#FFFFFF" d="M167,537.3c-9.8-4.6-14.4-13.1-14.8-23.3c-1.1-25.3,9-45.5,29.3-60.6c7.4-5.5,16-7,25.1-6
		c0.8,0.1,1.6,0.1,2.3,0.8c-12.2,0.5-21.7,6.3-29.6,14.9c-13.7,14.9-21.6,32.2-20.7,52.8C159,524,161.4,531.2,167,537.3z"/>
	<path fill="#FFFFFF" d="M228.8,568.6c-10.6-5.4-14.4-15-14.7-26.1c-0.4-15.9,4.8-30.1,14.2-42.8c4.9-6.6,10.6-12.3,17.7-16.5
		c7.7-4.5,15.6-5.8,24.8-4c-0.1,0.2-0.1,0.5-0.2,0.5c-9.5,0.3-17.6,4.3-24.5,10.4c-15.8,14.1-24.6,31.7-25.4,52.9
		c-0.4,9.3,1.8,18,8.3,25.1C229.2,568.3,229.1,568.5,228.8,568.6z"/>
	<path fill="#FFFFFF" d="M418.7,353c-4.2,1-8.1,1.9-12.4,1.6c-4.2-0.3-9.3-0.6-11.5,4.9c-0.5,1.2-1.2,1.9-2.6,2.1
		c-2.8-2-1.7-4.7-0.7-7c2.3-5.5,4.3-11.1,5.7-16.9c1.4-5.9,1.9-11.9,1.4-18c-0.3-3-0.3-5.9,0.5-9c1.8-0.2,3.7-0.4,5.8-0.7
		c0,4.1-0.1,8.2,0,12.2c0.2,8.4,1.7,16.3,8.2,22.5C415.4,346.9,416,350.6,418.7,353z"/>
	<path fill="#FFFFFF" d="M228.9,496c-1.9-0.8-3.7-0.9-5.5-0.6c-1.6-5.3-3.8-5.9-10.2-2.9c-0.8-0.1-1.3-0.7-2.1-1.5
		c1.2-1.7,2.6-3.4,1.9-5.8c-0.6-2.2-2.1-3.4-4.1-4.2c-0.8,1.1,0.3,1.5,0.6,2.1c1.3,2.2,1.1,4.2-0.3,6.4c-1.5,2.4-3.8,3.9-6.2,3.6
		c-2.7-0.3-4.8-2.7-6-5.2c-0.9-2-0.3-4.3,0.8-6.2c0.3-0.5,0.8-0.9,1.3-1c4.4-0.6,8.9-2.5,13.4,0c2.8,1.6,5.8,1.2,8.7,0.7
		c7.1-1.2,14.1-1,21.4,1.8C237.4,486.8,233.1,491,228.9,496z"/>
	<path fill="#FFFFFF" d="M551.9,389.1c-0.1-7.6-0.2-14.5,2.4-21.3c1.5-4,1.9-8.4,3-12.6c2.6,13.4,5.8,26.7,8,40.8
		C560.8,393,557.3,389.3,551.9,389.1z"/>
	<path fill="#FFFFFF" d="M208.7,526.9c-1.6-1.5-2.5-2.6-4.5-2.7c-1.8-0.1-3.7-4.5-3.5-6.5c0.2-1.3,0.6-2.5,1.3-3.5
		c3.9-6.5,7.4-13.1,11.9-19.2c2.2-2.9,5.2-2.8,7.3,0.3c-3.3,5.1-7.6,9.7-9.7,15.5c-0.2,0.7-1,1.2-1.5,1.9c-1.5,2-2.3,4.2-1.7,6.7
		C209,521.6,208.9,523.9,208.7,526.9z"/>
	<path fill="#FFFFFF" d="M211,494.6c-4.5,8.6-11.6,15.6-13,25.6c-5.2-0.9-6.2-2.8-5.7-8.2c0.6-6.4,3.6-10.9,8.8-14.2
		c1.9-1.2,3.7-2.8,5.8-3.6C208.3,493.6,209.6,493.3,211,494.6z"/>
	<path fill="#FFFFFF" d="M227.2,498.1c-6.5,9.3-11.3,19.2-13.7,30.2c-0.5-0.3-0.9-0.4-1.1-0.6c-2.2-2.6-2.5-11.2-0.5-14
		c1.2-1.6,2-3.4,2.8-5.2c1.6-3.6,4.2-6.8,6.7-9.9C222.7,497.3,224.9,496.7,227.2,498.1z"/>
	<path fill="#FFFFFF" d="M316.9,406.8c-0.6,7.7-4,12.8-12,18.5C309.1,419.6,312.3,413.2,316.9,406.8z"/>
	<path fill="#FFFFFF" d="M581,465.7c-1,5.1,0.2,10.6-1.8,15.9c-1.8-1-1.2-2.4-1.2-3.4c0.3-7.2,0.7-14.3,1-21.5
		c0.1-1.4,0-2.7,0.1-4.1C579.9,457,579,461.6,581,465.7L581,465.7z"/>
	<path fill="#FFFFFF" d="M193.8,500.6c-1-3.8-0.9-6.9,2.5-9.2c1.6,1.2,3.1,2.3,4.8,3.6C198.7,496.8,196.4,498.6,193.8,500.6z"/>
	<path fill="#FFFFFF" d="M385,267.5c-3.6,3.6-7.1,4.2-10,2.1C379.1,266.9,379.6,266.8,385,267.5z"/>
	<path fill="#FFFFFF" d="M578.3,497.3c-1.3-0.4-2.2-0.7-2.7-1.5c-0.2-1.3,0.5-2.4,0.8-3.7C578.8,493.3,578.1,495.2,578.3,497.3z"/>
	<path fill="#FFFFFF" d="M340.2,239.5c1.1-2.4,1.6-4.4,3.6-5.7C343.4,236.8,343,237.3,340.2,239.5z"/>
	<path fill="#FFFFFF" d="M393.1,197.1c-1.6,1.5-3,1.1-4.9-0.3C390.1,196,391.6,195.9,393.1,197.1z"/>
	<path fill="#FFFFFF" d="M458.4,506.4c-2-0.5-4.1,0.1-6.6-1.1C454.5,504.7,456.4,505.6,458.4,506.4z"/>
	<path fill="#FFFFFF" d="M349.2,240.7c0.8-1.7,1.8-2.5,3-3.7C351.9,239.9,351.7,240.2,349.2,240.7z"/>
	<path fill="#FFFFFF" d="M360.5,207.3c-1.4,1.7-2.8,2.2-4.3,2.7C357.2,208.7,357.7,206.7,360.5,207.3z"/>
	<path fill="#FFFFFF" d="M376.9,201.8c1.7,1,1.4,2.4,1,4.1C376.3,204.7,377.2,203.1,376.9,201.8z"/>
	<path fill="#FFFFFF" d="M357.8,249.8c0-2.7,1.3-3.5,3.1-4C360,246.9,359.1,248.1,357.8,249.8z"/>
	<path fill="#FFFFFF" d="M578,490.2c-1.7-1-0.9-2.2-0.4-3.8C578.7,487.8,578.4,488.9,578,490.2z"/>
	<path fill="#FFFFFF" d="M439.4,243.3c1.1,0.6,1.9,1.4,2.8,2.2C440.4,245.9,440.1,244.3,439.4,243.3z"/>
	<path fill="#FFFFFF" d="M362.8,241.1c0.2-1.2,0.2-2.6,2.2-3C364.8,239.6,364,240.4,362.8,241.1z"/>
	<path fill="#FFFFFF" d="M395.4,193.8c2-0.7,3-0.5,3.4,1.2C397.5,195.1,396.8,194.5,395.4,193.8z"/>
	<path fill="#FFFFFF" d="M350.1,218.6c-0.4,1.4-1.2,2-2.1,2.9C348,220,348.3,219,350.1,218.6z"/>
	<path fill="#FFFFFF" d="M352.5,258.9c0.6-1.9,1.5-2.3,2.8-2.9C354.9,257.5,354.1,258.1,352.5,258.9z"/>
	<path fill="#FFFFFF" d="M425.7,217.8c0.6,1.5,1.3,2.2,1,3.3C425.9,220.4,425,219.8,425.7,217.8z"/>
	<path fill="#FFFFFF" d="M373.5,236.6c-0.8,1.4-1.7,1.3-3.2,1.7C371.4,237.1,372,236.5,373.5,236.6z"/>
	<path fill="#FFFFFF" d="M347.2,242.7c0.2,1.4-1,1.7-1.8,3.2C345.6,243.9,346.5,243.4,347.2,242.7z"/>
	<path fill="#FFFFFF" d="M381.9,224.7c-1.7-0.3-1.7-1.1-1.5-2.2C381.3,222.8,381.8,223.3,381.9,224.7z"/>
	<path fill="#FFFFFF" d="M386.1,196.2c-1.2,0.1-1.8-0.2-2-1.2C385.1,194.6,385.6,195.2,386.1,196.2z"/>
	<path fill="#FFFFFF" d="M415,197.8c-1,0.7-1.5,0.1-2.2-0.4C414,196.5,414.3,197.9,415,197.8z"/>
	<path fill="#FFFFFF" d="M401.4,199c-0.9-0.2-1.1-0.7-1.1-1.7C401.4,197.6,402,197.9,401.4,199z"/>
	<path fill="#FFFFFF" d="M413.1,241.9c-1.5,0.2-1-1.2-1.6-1.5C412.5,240.4,412.7,241.2,413.1,241.9z"/>
	<path fill="#FFFFFF" d="M341,254.9c0.7-0.4,1.2-0.9,2-0.8C342.5,254.8,341.9,255.2,341,254.9z"/>
	<path fill="#FFFFFF" d="M400.2,231.1c-1.3-0.4-1.6-1-1.6-1.8C399.7,229.4,399.5,230.3,400.2,231.1z"/>
	<path fill="#FFFFFF" d="M394.9,215.3c-0.8-0.5-1.5-0.8-1.3-1.7C394.4,213.8,394.7,214.3,394.9,215.3z"/>
	<path fill="#FFFFFF" d="M369.7,247.7c-0.8,0.7-1.2,1.3-1.8,0.8C367.9,247.6,368.5,247.9,369.7,247.7z"/>
	<path fill="#FFFFFF" d="M335.2,254.7c-0.3,0.9-0.6,1.5-1.6,0.6C333.9,254.3,334.5,254.4,335.2,254.7z"/>
	<path fill="#FFFFFF" d="M403.3,239.8c0.1,0.5-0.2,0.8-0.7,0.7c-0.1,0-0.2-0.4-0.1-0.6C402.7,239.6,403,239.5,403.3,239.8z"/>
	<path fill="#FFFFFF" d="M336.3,247.7c0.1-0.6,0.7-0.8,1.3-1.2C337.5,247.5,336.9,247.6,336.3,247.7L336.3,247.7z"/>
	<path fill="#FFFFFF" d="M336.2,247.6c-0.2,0.7-0.6,1.1-1.4,1.1C335,247.9,335.6,247.8,336.2,247.6L336.2,247.6z"/>
	<path fill="#FFFFFF" d="M357.3,254.3c-0.1,0.6-0.3,1-0.9,0.8C356.5,254.5,356.9,254.4,357.3,254.3z"/>
	<path fill="#FFFFFF" d="M381.5,198.1c-0.4-0.1-0.6-0.3-0.4-0.7c0.1-0.2,0.3-0.3,0.5-0.3c0.4,0,0.5,0.4,0.4,0.7
		C382,198,381.7,198,381.5,198.1z"/>
	<path fill="#FFFFFF" d="M422.2,245c-1.1-1-2.9-0.5-4.1-2.1C420.9,241.4,421.4,243.4,422.2,245L422.2,245z"/>
	<path fill="#FFFFFF" d="M453.6,527.4c-0.2,1.2-0.8,2.1-2.1,2.2c-1.3,0.1-2.2-0.6-2.3-1.9c-0.2-1.6,0.7-2.4,2.2-2.5
		C452.6,525.2,453.3,526.2,453.6,527.4z"/>
	<path fill="#FFFFFF" d="M451.2,536.8c-1.8-1.1-1.5-2.1-0.7-3.3C451.5,534.8,451.5,534.8,451.2,536.8z"/>
	<path fill="#FFFFFF" d="M869.9,522.8c-1.2-0.2-1.9-0.9-1.9-2.3c0-1.4,0.9-2.1,2.2-2.1c1.5,0,2.3,1,2.2,2.4
		C872.2,522.1,871.3,522.8,869.9,522.8z"/>
	<path fill="#FFFFFF" d="M869.7,526.5c1,1.2,1.1,2.1,0.1,3.4C868.6,528.8,868.3,527.9,869.7,526.5z"/>
	<path fill="#FFFFFF" d="M450.7,516.4c-0.6,2,0.7,2.1,2.1,1.9c-0.2,1.8-1.1,2.5-2.6,2.4c-1-0.1-1.7-0.7-1.8-1.7
		C448.3,517.5,448.8,516.6,450.7,516.4z"/>
	<path fill="#FFFFFF" d="M869.6,509.3c-0.7,2.2,0.7,2.2,2.1,2.1c-0.2,1.8-1.1,2.5-2.6,2.4c-0.9-0.1-1.5-0.6-1.7-1.4
		C867,511,867.4,510,869.6,509.3z"/>
	<path d="M839.7,310.3c1.1,0.9,2.5,1,3.8,1.4c1.8,0.5,3.5,1.1,4.7,2.6c1.8,2.2,3.4,2.6,5.8,1.4c1.5-0.8,2.9-1.7,4.3-2.5
		c1.7-3.5-0.3-6.5-1.5-9.2c-1.2-2.6-2.3-5.3-2.5-8.1c-0.4-4.7-2.9-8.3-5.6-11.7c-3.3-4-4.5-8.5-4.3-13.8c2.1,0.5,1.9,2,2.1,3
		c0.9,4.6,2.5,8.7,5.6,12.3c2.1,2.4,3.5,5.2,3.7,8.6c0.3,5.4,2.8,10.2,4.6,15.3c2.6-0.9,4.7-2.4,7.3-2c0.2,0.9-0.1,1.3-0.5,1.4
		c-4.4,1-6.8,5.3-10.9,6.9c-0.5,0.2-0.6,0.6-0.9,1c-1.8,2.3-5.3,3-7,0.9c-1.6-2-3.7-2.8-5.7-4.1
		C841.4,312.8,839.7,312.2,839.7,310.3L839.7,310.3z"/>
	<path d="M798.8,351.5c1.6,0.8,1.1,2.2,1.2,3.4c0.2,5.9-0.5,11.6-1.8,17.3c-0.6,2.8-1,5.6-1.1,8.5c-0.1,4.9-2.2,8.4-6.7,10.7
		c-3,1.5-5.4,4-9.2,4.6c1.4-1.4,2.6-2.9,4.1-4.1c5.7-4.9,9.1-11.1,10.4-18.6c1.1-6.5,2.1-13.1,1.8-19.7
		C797.5,352.8,797.6,351.9,798.8,351.5z"/>
	<path d="M967.7,410.6c4.4-2.6,8.4-6,13.5-7.4c-2.4,3.2-6,4.8-9.5,6.9c1.8,1.3,3.9,1.1,6.1,2.4c-2.9,0.9-5.2,0.6-7.6,0
		c2,16.7,4.1,33.2,1.8,49.8C972.2,444.9,971.3,427.5,967.7,410.6z"/>
	<path d="M840.4,236.7c-1.4,2.2-3-0.2-4.7,0.4c0,1.3,0.9,2.2,1.3,3c0.9,1,2.1,0.5,3,1c0.8,0.4,1.5,1,2.3,1.6c1.3,0,0.1-1.8,1.6-1.8
		c0.8,0.6,0.9,1.7,1.4,2.8c-1.2,1.4-2.2,2.8-1.8,4.7c-1.4,0.5-1.2-1.1-1.6-1.1c-1.3-0.2-1.9,1-3.1,0.3c-1.6-1.1,0-2.6-0.2-4.1
		c-1.8-0.7-3.2-1.9-4.2-3.9c-1.2-2.3-0.8-4.1,0.6-6c1.8-2.4,3.5-2.6,5.7-0.4c1.5,1.6,2.9,3.2,5.1,4c0.9,0.3,1.6,1.2,1.5,2.4
		C843.9,240.7,842.2,238.6,840.4,236.7c-0.2-0.2-0.4-0.5-0.6-0.8C840,236.2,840.2,236.5,840.4,236.7z"/>
	<path d="M771.6,462.9c-7.7-0.5-15.5,0-22.9-3.1c7.4,1.8,15,0.4,22.4,1.8C771.6,461.7,771.7,462.2,771.6,462.9z"/>
	<path d="M942.5,401.4c-4.9,7.9-9.5,15.9-14.2,23.9C931.8,416.6,936.4,408.5,942.5,401.4z"/>
	<path d="M714.8,364.7c0.9,5.9,1.4,12.6,0.2,19.3C713.8,377.3,714.5,370.7,714.8,364.7z"/>
	<path d="M864.4,295.4c0.3-5,0.5-10.1,3.1-14.6C866.9,285.7,866.8,290.8,864.4,295.4z"/>
	<path d="M814.1,467.3c7.9,1.4,15.7,3.4,23.6,4.7C829.6,471.7,821.9,469.3,814.1,467.3z"/>
	<path d="M778.9,461.9c7.8,0.1,15.2,1.5,22.6,3.7C793.9,464.4,786.4,463.1,778.9,461.9z"/>
	<path d="M860.4,474.1c7.7-1.2,14.7-0.7,21.7-0.8c0,0.3,0,0.5,0,0.8C875.1,474.1,868.1,474.1,860.4,474.1z"/>
	<path d="M873.7,266.7c0.4,4.3-2.9,7.1-4.6,10.5c-0.6-2.3,0.8-3.9,1.9-5.5C872.1,270.2,872.7,268.5,873.7,266.7z"/>
	<path d="M973.1,464.1c-0.4,3.7-0.5,7.5-1.8,11.1c-0.9-3.8,0.2-7.5,0.5-11.2C972.3,464,972.7,464,973.1,464.1z"/>
	<path d="M759,420.4c-0.2,4.4,1.3,9.2-2.6,12.9C757.8,429.1,758.9,424.8,759,420.4z"/>
	<path d="M717.7,392.8c-0.3,3.2,1.2,6.4,0.5,9.6c-0.3,0-0.6,0-0.9,0.1c-0.2-3.2-0.5-6.4-0.7-9.6C717,392.8,717.4,392.8,717.7,392.8z
		"/>
	<path d="M734.3,411.5c-2.6-3.9-5.8-7.5-7.7-11.8c2.6,3.9,6.5,6.9,8,11.6C734.5,411.3,734.4,411.4,734.3,411.5z"/>
	<path d="M768.8,350.1c-0.7-1.2-1.1-2-2.1-2.6c2.2-2.1,5.3-0.3,7.5-1.9C772.6,347.3,770.4,348.1,768.8,350.1z"/>
	<path d="M734.6,411.2c1.5,2.6,3.7,4.5,6,6.5c0.9,0.7,1.9,1.3,2.3,2.4c0.1,0.2,0.1,0.4,0.2,0.6c-0.2-0.1-0.4-0.1-0.6-0.2
		c-2.1-1.9-4.3-3.9-6.4-5.9c-0.9-0.9-1.5-1.9-1.7-3.2C734.4,411.4,734.5,411.3,734.6,411.2z"/>
	<path d="M784.3,406.6c-0.2-3,1.1-5.6,2-8.3C786.9,401.4,785.5,404,784.3,406.6z"/>
	<path d="M742.2,353.7c-2-2-3.6-4.2-4-7.1C740.4,348.5,741.3,351.1,742.2,353.7z"/>
	<path d="M726.3,457.8c2.8-0.9,5.4,0.2,8.4,0.4C732.2,459.3,729.1,459.1,726.3,457.8z"/>
	<path d="M801.8,279.3c-1.8,0.7-3.6,1.7-6,1.4c1.1-2.5,4-1.6,5-3.4C801.7,277.8,802,278.4,801.8,279.3z"/>
	<path d="M758.1,437.2c0.9,1.8-0.3,2.8-1.2,4C755.4,439.2,755.6,438.7,758.1,437.2z"/>
	<path d="M973.8,437.8c2-1.8,4.6-2,7-2.7C978.6,436.4,976.7,438.3,973.8,437.8z"/>
	<path d="M917.4,443.1c-1.9,2.2-3.8,4.5-5.7,6.7c1.2-2.9,2.3-5.8,5.5-6.9L917.4,443.1z"/>
	<path d="M984.4,455.1c-2.1,0.5-4.2,1.3-6.3,0.4C980.1,454.4,982.3,454.4,984.4,455.1z"/>
	<path d="M781.6,415.9c-0.3,2.1-1.4,4-2.7,5.6C779,419.4,780.3,417.7,781.6,415.9z"/>
	<path d="M961.1,495.3c-1.4,1.3-3.3,1.7-5,3.3C957.6,495.8,957.8,495.7,961.1,495.3z"/>
	<path d="M769.1,422.9c0.7,2.4-0.6,4.2-2,6C767.1,426.7,768.4,425,769.1,422.9z"/>
	<path d="M839.7,310.3c-2-0.3-3.4-1.5-4.6-2.9C836.9,307.8,839.1,307.8,839.7,310.3L839.7,310.3z"/>
	<path d="M717.9,455.1c-1.5-0.3-2.9-0.8-4-2.2C716.3,453.2,716.3,453.2,717.9,455.1z"/>
	<path d="M772,398.5c-0.5,1.5-1.5,2.1-3.2,2.7C769.3,399.1,770.4,398.4,772,398.5z"/>
	<path d="M967.6,487.2c-0.1,1.7-1.1,2.6-2.5,3.4C965.4,489.2,966.3,488,967.6,487.2z"/>
	<path d="M917.3,442.9c1.2-1.1,0.1-3.2,2.4-4.4c-0.6,1.9-0.6,3.6-2.3,4.6L917.3,442.9z"/>
	<path d="M714.1,387.4c1.1,1.7,1.2,2.7,0.2,4.3C713.6,390.2,713.7,389.1,714.1,387.4z"/>
	<path d="M893.3,468.4c1.1-1.3,2.5-2.2,4-2.9c0.1,0.1,0.2,0.2,0.3,0.3C896.4,467.1,895.1,468.2,893.3,468.4L893.3,468.4z"/>
	<path d="M734.4,396.5c-0.8-0.4-1.6-0.9-2-1.9C733.4,395,733.9,395.7,734.4,396.5z"/>
	<path d="M776.1,398.3c1.1-0.8,1.7-1.7,3-1.7C778.8,398.1,778,398.6,776.1,398.3z"/>
	<path d="M711.8,450.3c-1.6-0.8-2-1.7-1.9-3C711.1,447.9,711.5,448.7,711.8,450.3z"/>
	<path d="M977.4,477.8c0.5-1,1.4-1,2.5-0.8C979.2,477.9,978.5,478.5,977.4,477.8z"/>
	<path d="M786.2,343c0.5-1.2,1.1-1.1,2-0.6C787.8,343.7,787,343.2,786.2,343z"/>
	<path d="M897.3,465.6c0.7-1,1.6-1.7,2.7-2.1c0.2-0.1,0.4-0.1,0.6-0.2c-0.1,0.2-0.2,0.4-0.2,0.6c-0.8,0.9-1.6,1.6-2.8,2
		C897.5,465.7,897.4,465.6,897.3,465.6z"/>
	<path d="M899.9,463.4c0.7-0.9,1.6-1.4,2.9-2.1c-0.3,1.7-1.4,2-2.5,2.5C900.2,463.7,900.1,463.5,899.9,463.4z"/>
	<path d="M779.4,343.7c0.2-1,0.7-1.2,1.6-0.7C780.9,344.1,780.3,344.1,779.4,343.7z"/>
	<path d="M742.9,420.1c0.6,0.6,1.2,1.3,2.2,2.4c-1.7-0.3-2.2-1-2.7-1.9C742.6,420.4,742.8,420.2,742.9,420.1z"/>
	<path d="M893.3,468.4c0,0.8-0.8,0.8-1.4,1.7C892.1,468.7,892.7,468.6,893.3,468.4L893.3,468.4z"/>
	<path d="M909.6,451.9c-0.2-0.5,0.2-0.4,1-0.9C910,451.6,909.8,451.7,909.6,451.9z"/>
	<path d="M950.2,396.3c0.6-0.8,1.2-1.4,2.3-1.4C952,395.8,951.3,396.3,950.2,396.3z"/>
	<path d="M899.7,286.2c1.2,1.2,0.7,2.5,0.6,3.7c-0.4,6.4,0.4,12.6,2.1,18.7c0.7,2.7,3.6,4,5.1,6.3c0.5,0.7,1.6,1,1.5,2.3
		c-2,0.5-3.1-1.3-4.3-2.1c-3.1-2.1-5.9-4.1-6.2-8.7c-0.1-2.3-1.8-4.8-2.1-7.4c-0.5-3.7,0.2-7.3,1.4-10.8
		C898,287.2,898.2,286.2,899.7,286.2z"/>
	<path d="M917.3,374.4c2.5-0.1,4.8-1.1,7.2-0.3c1.4,0.5,2.3-0.8,3.4-1.1c5-1.5,6.8-5.1,6.8-10c0-1.4,0-3.1,1.8-3.6
		c1.1,0.2,1.5,0.9,1.7,1.9c0.6,3,0.3,5.9-0.3,8.8c-0.3,1.6-1.2,3-2.8,3.7c-5.2,2.2-10.7,2.8-16.2,2
		C918.2,375.7,917.7,375.5,917.3,374.4z"/>
	<path d="M956.3,275.8c1.6,2.5,0.4,9.4-2.2,14.3c-3.5,6.3-13,13.2-18.7,13.3c1.2-2,3.1-2.8,4.9-3.2c1.7-0.3,2.8-1.3,4-2.3
		c6.3-5.3,9.1-12.4,10.8-20.2c0.1-0.4,0.2-0.9,0.4-1.3C955.6,276.1,955.9,276,956.3,275.8z"/>
	<path d="M951.8,392.3c2.2-9.3,6.9-17.6,11.7-26.4c1.5,2.7,1.2,5-0.3,6.6c-4.2,4.2-6.1,9.7-9,14.6
		C953.2,388.8,953.5,390.9,951.8,392.3z"/>
	<path d="M909.4,265.7c0.5-5.6,6.9-9.9,11.1-7.2C916.1,260.1,912.4,262.2,909.4,265.7z"/>
	<path d="M958.5,361.6c1.2-3.7,2-7.6,4-11c0.4,4.2-0.8,8-2.7,11.4C959.3,361.8,958.9,361.7,958.5,361.6z"/>
	<path d="M923.5,333.3c-1.7-3.2-1-4.7,2.8-6.6C924.9,328.9,926.3,331.9,923.5,333.3z"/>
	<path d="M923,259.8c3.5-1.2,6.2,1,9,2.3C928.8,262.3,926,260.8,923,259.8z"/>
	<path d="M930.8,318.8c-0.9,2.1-1.5,4.4-3.6,5.8C926.2,321.5,929.4,320.6,930.8,318.8z"/>
	<path d="M828.7,359.3c-3.2,0.4-5.4-1.7-8-3C823.8,356.2,825.9,358.6,828.7,359.3z"/>
	<path d="M812.7,361.9c1.9,0.1,3.8-0.2,5.6,0.8C815.5,364.4,814.5,364.3,812.7,361.9z"/>
	<path d="M963.2,339.4c0.5,2.2,0.8,4.4-0.9,6.6C961.7,343.5,962.4,341.4,963.2,339.4z"/>
	<path d="M902.8,391.3c-0.1,1.1-0.9,1.7-1.8,1.4c-1.5-0.6-2.8,0.1-4.6,0.6C898.2,390.2,900.8,391.8,902.8,391.3L902.8,391.3z"/>
	<path d="M921.2,308.7c0.4-2.2,1.6-3.3,4.2-2.8C924.1,307.4,922.1,307.3,921.2,308.7z"/>
	<path d="M814.2,354.3c1.6,0.4,3.2,0.5,4.4,1.7C817,355.8,814.5,357.7,814.2,354.3L814.2,354.3z"/>
	<path d="M963,330.5c1.8,1.6,1.6,3.1,0.8,5C962.2,333.9,962.9,332.3,963,330.5z"/>
	<path d="M899.7,375c1.9-0.8,3-2,4.7-1.1C903.4,375.4,902.2,376,899.7,375z"/>
	<path d="M913,256.3c-1.4,0.6-2.5-0.2-4.1,0.8C911,254.4,911,254.4,913,256.3z"/>
	<path d="M817.2,373.2c-1.2,0.5-2.5,1.7-3.8,0C814.7,371.5,816,372.8,817.2,373.2z"/>
	<path d="M921.5,335.8c1.2-1,2.5-1.3,4.6-0.9C924.2,335.9,923,336.5,921.5,335.8z"/>
	<path d="M819.6,363.5c1.3-1.3,2.4-1,3.6-0.4C822.1,364.3,821.1,364,819.6,363.5z"/>
	<path d="M889.1,392.9c1.5-0.6,3.1-0.6,4.7,0.5c-1.6,0.1-3.2,0.1-4.7,0.2C889.1,393.4,889.1,393.2,889.1,392.9z"/>
	<path d="M897.7,284.4c-1.6-1.3-1.3-2.4-0.7-3.7C898.5,281.6,898.5,282.8,897.7,284.4z"/>
	<path d="M913.1,374.7c-1.8,1.4-2.8,0.7-4.1-0.2C910.4,374,911.4,374.2,913.1,374.7z"/>
	<path d="M936.4,358.8c-1.2-1.2-0.4-2-0.4-3.2C937.6,356.8,937.5,357.6,936.4,358.8z"/>
	<path d="M931.7,304.2c-1,0.7-1.6,0.9-2.1,0.3C930,303.7,930.6,303.8,931.7,304.2z"/>
	<path d="M902.9,391.4c0.4-0.4,0.7-1.1,1.8-1.1C904.1,391.1,903.6,391.5,902.9,391.4L902.9,391.4z"/>
	<path d="M733.3,324.8c-2.7-1.1-5-2.5-6.9-4.5c-11.4-11.9-16.6-25.8-13.1-42.4c2.7-12.8,8.7-23.6,19.4-31.4
		c6.5-4.8,13.7-7.8,22.1-6.4c4.1,0.7,7.7,2.3,11.1,4.3c6.3,3.7,12.1,8.3,15.5,15.1c0.2,0.4,0.3,0.9,0.4,1.3c0,0.1-0.1,0.2-0.5,0.7
		c-2.1-5.4-6.5-8.6-10.7-11.8c-8.6-6.5-20.8-10.4-31.7-4.2c-12.8,7.3-19.8,18.4-23,32.2c-2.9,12.7-1.2,24.6,6.3,35.4
		c2.6,3.7,5.5,7.3,9.4,9.9C732.3,323.3,733.1,323.5,733.3,324.8z"/>
	<path d="M766.9,291.3c-2.8,3.1-6,5.3-10.5,4.6c-0.9-0.1-1.8-0.3-2.6-0.6c-5.5-2.3-8.2-9.4-6.2-16.1c1.7-5.7,6.7-8.7,12.8-7.7
		c0.6,0.1,1.1,0.2,1.7,0.3c0.7-0.3,1.2,0,1.8,0.2c1.4,0.8,2.6,2.1,3.8,3.2c0.2,0.3,0.4,0.5,0.6,0.8c1.5,4.1,2.3,8.3,0.8,12.6
		C768.7,289.8,768.5,291.1,766.9,291.3z"/>
	<path d="M766.9,291.3c0.4-0.7,0.8-1.3,1.2-2c1.5-4.7,1.9-9.3-1.4-13.5l0.1,0.1c-0.9-1.4-2-2.5-3.4-3.4c-0.5-0.2-0.9-0.5-1.4-0.7
		c1.2-1.7,2.7-1,3.8,0c1.4,1.3,3,2.7,3.8,4.3c3.8,7.9,0.3,20.3-8.9,22.5c-5.5,1.3-10.2-0.7-12.7-6.3c3.5,4.3,7.9,5.8,13.2,4.3
		C764,295.8,766.3,294.4,766.9,291.3z"/>
	<path d="M783.2,263.4c1.4,1,1.6,2.2,1.7,3.6C783.6,266.1,783.2,264.8,783.2,263.4z"/>
	<path d="M746.4,328.5c-1.2,1.2-2.2,0.6-3.7,0.8C744,328.1,745,327.8,746.4,328.5z"/>
	<path d="M787.7,282.7c0.7,1,0.6,1.7-0.5,2.4C786.6,284.1,786.6,283.3,787.7,282.7z"/>
	<path d="M736.5,326.8c-0.8,0.2-1.3,0.1-1.4-0.8C735.9,325.8,736.4,326,736.5,326.8z"/>
	<path d="M786.4,273c-0.4-0.6-0.5-1.2-0.2-2.4C786.6,271.7,786.9,272.3,786.4,273z"/>
	<path d="M787.1,279c-0.3-0.5-0.4-1,0-1.5C787.4,278,787.6,278.5,787.1,279z"/>
	<path d="M749.8,328.5c-0.2,0-0.4,0-0.5,0.1c0-0.2,0-0.3,0.1-0.5c0,0,0.2-0.1,0.3,0C749.7,328.1,749.7,328.3,749.8,328.5z"/>
	<path d="M1027.9,526.6c-3.6,2.9-8.4,3.1-12.5,5c3.8-2.5,7.2-6,12-6.3C1027.5,525.7,1027.7,526.2,1027.9,526.6z"/>
	<path d="M1009.8,533.5c-0.5,1.5-1.4,1.8-2.8,1.9C1007.5,533.9,1008.2,533.4,1009.8,533.5z"/>
	<path d="M388.5,394.1c2,2.9,4.2,5.4,8.5,4.7c-0.8-2.6-3.8-2.5-5.1-4.2c1.4-2,3.1-1,4.1-0.3c5.6,4.5,12.5,4,19,5.1
		c4.3,0.7,8.3-1,12.3-2.8c0.1-1.2-2.1-1.7-0.8-3.3c0.9-0.7,1.8,0.2,2.7,0.5c1.6,0.5,3.4,1.6,4.9,1.3c4.1-0.7,6.5,1.2,9.5,3.6
		c2,1.6,5.9,1.3,8.9,1.3c3.5,0,7,1,10.6,0.7c0.9-0.1,2.1-0.1,2.7,1.5c-6.2-0.4-12.2,0.2-18.4-0.8c-3.9-0.6-6.7-1.9-8.9-4.6
		c-1.8,0.3-3,1.5-4.6,1c-1.3-0.4-2.7-0.5-4.1,1.2c3.3,1.5,6.5,3.1,9.8,4.5c6.1,2.7,12.5,4.3,19.3,4.4c6.9,0.1,13.5,2.2,20.4,2.7
		c2.7,0.2,5.4,0.3,7.9-0.3c8.4-2,17-2.6,25.3-4.7c0.9-0.2,1.7-0.5,2.9-0.8c-3.8-2.4-8.2-2.8-11.9-4.6c0.6-2,1.9-1.5,2.9-1.3
		c3.5,0.6,7,1.4,10.3,2.8c4.1,1.7,8.3,2.4,12.7,2c1.2-0.1,1.6,0.6,1.6,1.7c-1.6,0.5-3.3,1-4.9,1.4c-2.1,0.6-4.3,1-6.1-0.3
		c-2.5,1-4.8,2-7.1,2.9c-3.6,1.5-7.4,2.4-11.4,1.9c-2.5-0.4-5.1,0.2-7.4,1c-9,3.2-17.9,2.5-27,0.6c-9.9-2-19.7-3.7-28.7-8.6
		c-3.3-1.8-7.3-1.9-10.6-3.8c-1.1-0.6-2.2-0.1-3.3,0.2c-4.7,1.4-9.5,1.6-14.2,0.4c-4.6-1.2-9.2-0.9-13.8,0.3
		c-2.6,0.7-8.7-3.7-9.1-6.4C387,394.1,387.8,394.1,388.5,394.1z"/>
	<path d="M549.6,418.8c4.5-2.6,8.4-6,13.4-7.3c-2.4,3.3-6.1,4.8-9.5,6.9c1.7,1.4,4,1,6.1,2.6c-2.9,0.5-5.2,0.6-7.6-0.3
		c1.9,16.8,4.1,33.2,1.8,49.9C554.1,453.2,553.1,435.9,549.6,418.8z"/>
	<path d="M524.3,409.7c-4.9,7.9-9.5,15.9-14.2,23.9C513.7,424.8,518.3,416.8,524.3,409.7z"/>
	<path d="M383.4,473.8c-7.6-1.2-15.2-2.5-22.7-3.7C368.4,470.2,376,471.6,383.4,473.8z"/>
	<path d="M442.8,482.3c7-1.2,14.1-0.6,21.1-0.7c0,0.2,0,0.5,0,0.7C456.9,482.3,450,482.3,442.8,482.3z"/>
	<path d="M398.2,476c5.4,0.6,10.6,2.3,16,3.2c1.8,0.3,3.7,0.1,5.9,1.4C412.2,479.7,405.1,478.5,398.2,476L398.2,476z"/>
	<path d="M552.9,483.7c-0.5-4.2,0.2-7.9,1-11.9C555.1,474.3,554.6,479.9,552.9,483.7z"/>
	<path d="M555.6,446.4c0.1-1.1,0.6-1.3,1-1.4c2-0.6,4.1-1.3,6.2-1.6C560.5,444.7,558.5,446.5,555.6,446.4z"/>
	<path d="M499.3,451.3c-1.7,2-3.5,4-5.2,6c0.9-2.8,2.1-5.2,5-6.2L499.3,451.3z"/>
	<path d="M559.9,463.6c2.1-0.9,4.3-1.1,6.5-0.3C564.2,463.9,562.1,464.7,559.9,463.6z"/>
	<path d="M543,503.6c-1.4,1.4-3.4,1.6-4.7,2.9C539.6,504,539.8,503.8,543,503.6z"/>
	<path d="M479.1,473.8c1.5-1.7,3.3-2.9,5.4-3.8c-1.4,1.7-3.1,3.1-5.1,4C479.3,474,479.2,473.9,479.1,473.8z"/>
	<path d="M499.1,451.1c1.2-1.1,0.1-3.2,2.4-4.4c-0.6,1.9-0.6,3.6-2.3,4.6L499.1,451.1z"/>
	<path d="M546.6,498.6c0.8-1.1,1.6-2.2,2.4-3.3c0.2,0.1,0.4,0.3,0.6,0.4c-0.4,1.4-1.4,2.4-2.4,3.4
		C547,498.9,546.8,498.8,546.6,498.6z"/>
	<path d="M479.4,474.1c-0.9,1.2-2.1,1.8-3.5,2.3c0.8-1.2,2-2,3.2-2.6C479.2,473.9,479.3,474,479.4,474.1z"/>
	<path d="M561.8,485.2c-0.7,1-1.4,1.4-2.5,1C559.7,485,560.6,485.2,561.8,485.2z"/>
	<path d="M349.9,470.6c-1.7,0.8-2.4,0.5-3.6,0C347.6,470,348.3,470.8,349.9,470.6z"/>
	<path d="M398.2,475.9c-0.8,0.1-1.7,0.2-2.5-0.3C396.7,475.3,397.5,475.3,398.2,475.9L398.2,475.9z"/>
	<path d="M491.5,460.1c-0.2-0.2-0.2-0.3,0.2-0.5c0.1,0,0.2,0,0.3,0C491.8,459.8,491.6,460,491.5,460.1z"/>
	<path d="M532,404.5c0.6-0.8,1.2-1.4,2.3-1.4C533.9,404.1,533.1,404.6,532,404.5z"/>
	<path d="M490.9,325.3c-5.2-1-9.6-5.9-10.5-10.3c-0.5-2.6-2-5-2.3-7.8c-0.4-3.7,0.2-7.3,1.4-10.8c0.3-0.9,0.5-2.1,2-1.9
		c1.1,0.7,0.7,1.8,0.6,2.8c-0.3,6.1,0.3,12,1.6,18c0.8,3.6,3.8,5,5.4,7.6C489.7,323.7,490.7,324,490.9,325.3z"/>
	<path d="M518.4,367.5c1.4,0.6,1.5,1.6,1.7,2.6c0.6,2.8,0.1,5.5-0.4,8.1c-0.3,1.6-1.2,3-2.8,3.7c-5.2,2.2-10.7,2.8-16.2,2
		c-0.3,0-0.7-0.2-1-0.3c-0.2-0.1-0.3-0.3-0.6-0.8c1.9-1,4.2-1.1,5.9-0.8c4.2,0.8,6.9-2,9.7-3.8c2-1.3,1.3-4.4,1.8-6.7
		C516.7,370.1,516.3,368.2,518.4,367.5z"/>
	<path d="M537.8,283.5c2.2,3.3,0.8,10.3-2.6,16.2c-3.4,5.7-13.2,12.1-18,11.3c5.5-2.5,10.6-5.4,14.1-10.5
		C534.8,295.5,535.6,289.6,537.8,283.5z"/>
	<path d="M533.6,400.5c2.4-9.3,6.9-17.7,11.9-26.4c1.4,2.9,1.1,5.4-0.6,7c-4.3,4.1-5.9,9.8-8.9,14.6
		C534.9,397.2,535.4,399.3,533.6,400.5z"/>
	<path d="M491.1,273.9c0.2-4.2,3.2-6.2,6.4-7.8c1.4-0.7,3.1-1.6,4.7,0.8C497.8,268.3,494.2,270.6,491.1,273.9z"/>
	<path d="M540.3,369.7c1.2-3.7,2.3-7.3,3.7-11.7C545.1,362.5,543.3,368.3,540.3,369.7z"/>
	<path d="M507.8,335.4c-1.1,1.9,0.4,4.6-2.1,6C503.4,339.2,504.1,337.1,507.8,335.4z"/>
	<path d="M504.9,268.1c3.5-1.2,6.2,1,9,2.3C510.7,270.5,507.8,269.1,504.9,268.1z"/>
	<path d="M512.8,327.2c-1.1,2-1.5,4.4-3.5,5.9C508.1,331,508.4,330.5,512.8,327.2z"/>
	<path d="M410.6,367.6c-3.3,0.7-5.3-2.1-8.1-2.9C405.6,364.6,407.9,366.7,410.6,367.6z"/>
	<path d="M394.4,369.8c2.1,0.5,4.1,0,6,1.3C396.5,372.6,395.9,372.5,394.4,369.8z"/>
	<path d="M545.2,347.1c0.7,2.7,0.3,4.8-0.8,7.6C543.8,351,543.8,351,545.2,347.1z"/>
	<path d="M484.6,399.6c-0.1,1.1-1,1.7-1.9,1.4c-1.5-0.7-2.8,0.3-4.4,0.4C480.1,398.4,482.7,400,484.6,399.6L484.6,399.6z"/>
	<path d="M396,362.5c1.5,0.5,3.3,0.3,5.1,2.1C398.8,364.1,396.4,365.9,396,362.5L396,362.5z"/>
	<path d="M503.1,317.1c0.3-2.4,1.5-3.4,4-3C506.1,315.8,503.6,315.1,503.1,317.1z"/>
	<path d="M545.5,343.4c-1.2-1.3-0.7-2.8-0.5-4.2C546.6,340.4,546.3,341.8,545.5,343.4z"/>
	<path d="M486.5,381.8c-2,2-2,2-4.4,1.5C483.2,382.1,484.4,381.7,486.5,381.8z"/>
	<path d="M399,381.4c-1.2,0.5-2.5,1.8-3.8,0C396.5,379.7,397.8,381.1,399,381.4z"/>
	<path d="M491.2,264.6c1.1-1.5,2.2-2.2,3.7-0.1C493.5,265.2,492.3,264.7,491.2,264.6z"/>
	<path d="M507.3,343.2c-1.2,0.8-2.3,1.9-4.3,0.9C504.4,342.8,505.8,343,507.3,343.2z"/>
	<path d="M471,401.2c1.6-0.6,3.2-0.7,4.8,0.5c-1.6,0.1-3.2,0.1-4.8,0.2C471,401.7,471,401.4,471,401.2z"/>
	<path d="M401.5,371.8c1.3-1.3,2.3-1,3.6-0.4C404,372.6,402.9,372.2,401.5,371.8z"/>
	<path d="M494.8,383.2c-1.6,1.1-2.6,0.5-3.9-0.4C492.3,382.4,493.3,382.3,494.8,383.2z"/>
	<path d="M479,289.2c1.2,0.9,1.3,2,0.8,3.3C477.8,291.6,478.5,290.3,479,289.2z"/>
	<path d="M518,366.9c-0.8-1.1-0.5-1.9,0.3-2.8C519.3,365.2,519.6,366.1,518,366.9z"/>
	<path d="M513.3,312.5c-0.7,0.6-1.3,0.7-1.9,0.2C511.8,312,512.4,311.9,513.3,312.5z"/>
	<path d="M484.7,399.6c0.4-0.4,0.7-1.1,1.8-1.1C486,399.4,485.5,399.8,484.7,399.6L484.7,399.6z"/>
	<path d="M289.6,514.4c-0.5-3.4-0.1-6.8-0.9-10.2c-1.7-6.8-4.1-13.2-11.2-16.3c-3.4-1.5-6.9-2-10.7-1c-8,2.2-14.5,6.7-20.2,12.6
		c-10.6,11-17.8,23.8-19.5,39.2c-0.6,5.3-0.6,10.6,0.8,15.7c1.2,4.2,3.7,7.8,6.8,10.8c0.6,0.6,1.6,1,2,1.9c-2.3-0.4-3.9-1.8-6-4.6
		c-5.6-7.6-6.4-16.4-5.1-25.3c3-19.6,12.9-35.2,29.1-46.7c3.9-2.8,8.5-4.3,13.1-5.8c8-2.6,17.2,3.7,19.6,10.5c1.8,5,3,10.1,3.1,15.4
		C290.7,511.9,290.5,513.3,289.6,514.4z"/>
	<path d="M272.3,533.1c-1.3,1.2-2.6,2.6-4,3.7c-2.3,1.8-4.8,2.7-7.7,1.4c-3-1.3-4-4-3.9-7c0.1-6,2.5-10.9,7.5-14.2
		c5.2-3.5,10.5-0.6,10.8,5.6c0.1,1.6-0.1,3.2-0.1,4.8c0.8,0.7,0,1.4-0.1,2.1c-0.6,1.2-1,2.6-2.1,3.5
		C272.6,533,272.4,533,272.3,533.1z"/>
	<path d="M274.3,529c0.2-0.5,0.4-1.1,0.6-1.6c0.4-0.9,0.8-1.8,1.2-2.7c0.3,0.2,0.7,0.2,0.7,0.3c0.3,4.2-5.1,14.2-9.5,15.6
		c-4.2,1.4-6.7,1.1-10.4-2.7c3.3,0.5,5.9,3.5,9.1,1.5c2.6-1.6,5.3-3.2,6.2-6.4l-0.1,0.1C273.2,531.9,273.7,530.4,274.3,529z"/>
	<path d="M289.6,517c-0.7,3.3-1.4,6.6-2.1,9.8c-0.2,0-0.5-0.1-0.7-0.2c0.6-3.3,1-6.7,2.1-9.9C289.1,516.8,289.4,516.9,289.6,517z"/>
	<path d="M278.9,545.1c-0.3,2-1.2,3.7-3.2,5.3C276.2,547.9,277.5,546.5,278.9,545.1z"/>
	<path d="M255.3,533.7c0.7,1,1.7,1.8,1.5,3.5C255.2,536.3,255.3,535,255.3,533.7z"/>
	<path d="M242.6,569.2c1.3-0.8,2.3-0.3,3.5,0.6C244.6,570.6,243.6,569.5,242.6,569.2z"/>
	<path d="M286.2,530.5c0,1.1-0.2,2.2-1.5,3.1C284.9,532.2,285.2,531.2,286.2,530.5z"/>
	<path d="M282.5,539.9c0.1-0.9,0.5-1.7,1.2-2.3c0.4,1.1-0.4,1.7-0.7,2.5C282.9,540.4,282.6,540.2,282.5,539.9z"/>
	<path d="M240.1,568.4c-0.8,0.6-1.2,0-1.7-0.4C239.4,567.7,239.4,567.7,240.1,568.4z"/>
	<path d="M276.7,521.4c0.5,0.7,0.5,1.2,0.2,1.7C275.5,522.6,275.9,522.1,276.7,521.4z"/>
	<path d="M272.4,514.8c0.5-0.2,0.8-0.1,0.9,0.2c0.1,0.1-0.1,0.5-0.2,0.5C272.8,515.6,272.5,515.4,272.4,514.8z"/>
	<path d="M204.2,484.3c-0.1,1.9-0.3,3.8-0.4,5.8c-1.5-2-1.6-3.9-0.4-5.8C203.6,484.3,203.9,484.3,204.2,484.3z"/>
	<path fill="#FFFFFF" d="M840.4,236.7c-1.1-1-2.9-0.5-4.1-2.1C839,233.1,839.6,235.2,840.4,236.7L840.4,236.7z"/>
	<path fill="#FFFFFF" d="M749.9,283.2c0.3-5.1,4.4-9.4,8.6-8.9c4.6,0.5,8.1,6.1,7.1,11.2c-1,4.8-4.6,8-8.3,7.6
		C753.2,292.6,749.6,287.9,749.9,283.2z"/>
	<path fill="#FFFFFF" d="M766.7,275.8c3.3,2.8,3.9,8.9,1.4,13.5C768.7,284.7,769.2,280.1,766.7,275.8z"/>
	<path fill="#FFFFFF" d="M763.4,272.5c2.2,0.1,2.7,1.8,3.4,3.4C765.7,274.8,764.5,273.6,763.4,272.5z"/>
	<path fill="#FFFFFF" d="M273,524.4c-0.5,4.1-2.2,7.9-6,10.7c-1.6,1.2-3.4,2.1-5.4,1.1c-2.2-1-2.7-3.1-2.7-5.2
		c0.1-4.5,1.9-8.4,5.4-11.4c1.8-1.5,4-2.6,6.3-1.4C272.8,519.4,273,521.7,273,524.4z"/>
	<path fill="#FFFFFF" d="M274.3,529c-0.1,1.7-0.6,3.2-2.1,4.2C272.6,531.6,273.4,530.3,274.3,529z"/>
	<path d="M753.3,283.2c-1-3.2,0.7-6.8,2.8-7.3c2.7-0.5,6,2.9,6.6,7.1c-2.1-1.2-2.2-4.2-4.8-4.4C755.2,278.5,754.5,281.1,753.3,283.2
		z"/>
	<path d="M763.5,283.7c0.7,1.2,0.4,1.7-0.6,2.1C762.3,285,762.3,284.4,763.5,283.7z"/>
	<path d="M753.3,285.7c-0.6-1.1-0.4-1.7,0.7-1.9C754.7,284.6,754.5,285.2,753.3,285.7z"/>
	<path d="M271.6,523.2c0.3,2.6-1.2,4.7-2.5,6.9c-0.3-1.8,0.7-3.3,1.1-4.9c-2.1-2.2-3.8-1.9-4.6,0.8c-0.6,1.9-1.2,3.8-2.5,6.2
		c-1.1-4-0.5-7.2,1.5-9.7C266.6,520,268.5,520,271.6,523.2z"/>
</g>
</svg>
