<?xml version="1.0" encoding="utf-8"?>
<!-- Generator: Adobe Illustrator 19.1.0, SVG Export Plug-In . SVG Version: 6.00 Build 0)  -->
<svg version="1.2" baseProfile="tiny" id="Layer_2" xmlns="http://www.w3.org/2000/svg" xmlns:xlink="http://www.w3.org/1999/xlink"
	 x="0px" y="0px" width="900px" height="600px" viewBox="144 97 900 600" xml:space="preserve">
<g>
	<path d="M869.8,476.7c-1.7,2.3-4.3,3.7-6.8,4c-3.1,0.4-3.4,2.2-3.9,4.4c-1.3,5.4-1.4,10.8-1.4,16.2c0,0.9,0,1.8-0.3,2.7
		c-2.7,7.3-1.1,14.4,0.7,21.6c0.8,3.2,1.2,6.4,0.5,9.6c-0.5,2.2,0,4.5-0.2,6.7c-0.5,6.1-1.7,12-4,17.6c-1.8,4.3-2.2,8.6-2.1,13.1
		c0.2,9.3,0,18.5,0.5,27.8c0.2,5.2,1.9,10.2,4.7,14.8c2,3.2,1.2,7.2,2.7,10.6c0.6,1.4-0.7,3-2.5,3.4c-3,0.7-5.4,2.5-8.1,3.8
		c0.2,6.5-2.4,10.7-7.4,12c-1.3,0.3-2.7,0.5-3.9-0.1c-2.7-1.2-5.5-1.1-8.2-0.4c-2.8,0.7-5.5,0.9-8.3,0.4c-2-0.3-4-1.2-4.5-3.1
		c-1-3.6-2.1-7.8-0.2-11.1c3.4-5.7,6.5-11.4,9.2-17.4c1.3-2.9,3.5-5.5,5.2-8.2c-1.3-5.6-0.9-6.2,5.7-8.9c0.8,1.6,2.3,1.3,3.7,1.3
		c1.8,0,3.6,0.2,5,1.6c1.5,1.5,3.1,1.4,4.8,0.8c0.9-2.9-0.2-5.7-0.2-8.4c-0.1-4.5,0-9-0.3-13.4c-0.6-8.5,1.3-16.7,3.2-24.8
		c1.9-8.1,3-16.3,2.4-24.6c-0.5-5.9-0.6-11.8-2.1-17.6c-0.3-1.1-0.3-2.3,0.1-3.3c1.7-4.1,1.6-8.5,1.7-12.8c0-3.8,0.8-7.5,1.6-12
		c-5.5,1.2-9.4,5.9-15,5.3c0.5,3.5,3.1,5,5.3,6.3c3.1,1.8,3.9-3.1,6.9-3.2c0.2,2.3-2.3,3.3-2.4,5.2c-1.3,0.9-2.6,0.6-3.8,0.8
		c0.7,4.9,0.3,6.2-2.7,7.5c-0.7-0.8-0.1-1.5,0.2-2.2c1.6-3.2,0.5-5.8-1.5-8.3c-0.4-0.5-1.1-0.9-1.3-1.5c-2.4-6.3-8.4-6.5-13.5-8.5
		c-0.4,1.5-0.2,2.7,0.3,3.9c0.6,1.2,0.8,2.6,0.7,3.9c-0.1,6.3-0.5,12.6-2,18.9c-1.3,5.4-1.1,11.2-1.3,16.8
		c-0.6,16.7,3.2,32.9,7.1,48.9c1.4,5.6,3.6,11.1,2.9,17.1c-0.8,0.1-1-0.6-1.1-1c-3.9-12.6-7.8-25.3-9.1-38.4c-0.9-8.6-3-17.2-2-25.9
		c0.9-7.8,0.3-15.8,2.8-23.6c1.1-3.4,0-7.4-0.1-11.2c-0.1-2.2-0.7-4.5-0.6-6.7c0-2.8-1.4-3.8-3.9-3.9c-1.5-0.1-2.9-0.3-4.3-0.8
		c-2.3-0.8-3.4-2.6-2.9-4.6c1-4.4-0.6-8.6-0.7-12.9c-0.1-2-0.7-4,0.1-6c0.3-0.7,0.2-1.3,0.1-2c-1.4-9.4-0.7-18.7,0.7-28
		c0.9-6.3,1-12.7,1.6-19c0.4-4.3,0.9-8.6,0-13c-0.3-1.3-0.4-2.8,0.2-4c3.5-7,2.8-14.9,4.4-22.3c0.8-3.7,1-7.5,3.5-10.7
		c1.1-1.3,2.5-2.3,3.6-3.4c0.5-2.7,1-5.3,1.5-7.9c0.2-0.8,0.1-1.7-0.4-2.2c-3.1-3.7-2.9-8.4-3.3-12.8c-0.5-5.8-2.9-11.2-3.2-17
		c-0.5-7.7-1.8-15.3-3.6-22.8c-0.4-1.9-0.8-3.7-2-5.2c-1.2-1.5-0.9-3.4-1.4-4.9c0.7-0.9,1.2,0.1,2.6,0.5
		c-5.7-7.1-7.1-15.4-11.4-22.6c-3.6-1.6-7.7-2-11.8-2.4c-6.1-0.6-12.2-0.8-18.3-2.3c-7.3-1.8-13.9-4.8-19.9-9.2
		c-6.5-4.8-11.9-10.8-19.1-15.1c1.2-2.2,2-4.4,3.4-6.3c3.9-5.2,6.7-11.1,10.6-16.3c2.1-2.8,4.4-5.4,7.2-7.5c3.5-2.6,7-5.3,10.8-7.4
		c5.2-2.9,8.7-7.6,13.6-11.5c-4.7-0.9-9.4,0-13.4-3.3c-1.1,2.7-3.5,4-5.9,4.4c-2.4,0.4-4.9-0.4-7.1-1.5c-3.4-1.7-6.9-3.3-10.8-3.5
		c-1.8-0.1-2.6-1.6-3.2-3c-13.1-2.4-26.3-3.3-39.2-6.1c-0.2,0-0.3-0.6-0.4-0.8c0.9-1.6,2.2-0.9,3.3-0.7c11.3,1.6,22.6,3.2,33.9,4.8
		c1.7,0.3,3.2,0.3,4.6-1.1c1.8-1.8,4.2-1.3,6.4-1.3c2.9,0,5.7,0.1,8.6-0.6c5.5-1.2,8.3,0.6,10,5.1c6.2,0,12.4-0.1,18.5,0.1
		c2,0.1,3.8-0.2,5.4-1.3c4.4-3,9.6-4.1,14.3-6.4c3.8-1.9,6.1-0.6,7.5,3.4c0.6,1.8,1.6,3.1,3,4.3c2.6,2.2,2.7,3.3,0.9,6.3
		c0.1,1.1,1.3,1.8,1.2,3.4c-2.4,2-5.3,3-8.7,2.7c-2.2-0.2-4.1,0.1-5.7,1.9c-1.6,1.7-3.8,1.7-6,1.1c-1-0.2-1.9-0.7-3-1.1
		c-4.2,3.3-8.2,6.8-11,11.5c-3.4,5.8-5.6,12.1-7.8,18.5c-0.4,1-0.8,2-1.2,3c0.3,0.4,0.7,0.3,1,0.2c5.7-2.9,11.4-2.2,16.6,1
		c3.8,2.3,7.4,1.6,10.7-0.4c4.3-2.7,8.8-3.2,13.5-2.4c4.6,0.8,9.4,0.8,13.9,2.8c3.3-2.7,7.8-2.4,11.1-5.1c0.3-6.3,1.4-12.6-1.1-18.7
		c-0.3-0.8-0.5-2.2-1.1-2.3c-4.8-0.9-3.6-5.9-5.9-8.6c-1.7-1.9-0.5-5.6,1.4-8.1c0.5-0.6,1.3-0.9,1.5-1.8c-2-7.4,0.4-14.2,2.6-21.1
		c0.3-1,0.9-2.1,2-2c1.9,0.1,1.7-1.8,2.7-2.5c-0.5-1-1-1.9-1.5-2.9c1.2-1,2.5-2.1,2.9-3.8c2.3,0,3.7,1.6,5.8,2.4
		c-0.2-1.5-2.1-2.2-1.5-4c2.7,0,3.5,2,4.5,4.4c0.4-1.3,0.2-2.7,1.9-3.1c2.1,0.3,3,2.7,5.2,3.7c5-2,8.4,1.5,12,4.3
		c1.9,1.5,3.4,3.5,5,5.4c1.1,1.2,1.8,2.6,2,4.2c0.3,2,0.5,4,1.7,5.7c0.4,0.6,0.5,1.3,0.3,1.9c-1,2.9-0.5,5.6,0.5,8.4
		c2.2,5.7,1.2,11.1-1.5,16.1c-1.5,0.7-2-0.7-2.9-0.8c-0.2,0.1-0.4,0.2-0.5,0.4c-1.2,4.7-1.1,9.4,0.1,14c0.8,3,2.5,5.7,5.6,7.6
		c3.3,2,7,3.5,9.9,6.2c0,0.3-0.1,0.6-0.3,0.9c-1.3,1.4-3.3,0.2-4.9,1.2c-1.1,1.9-0.9,4-0.2,6c0.5,1.4,0.5,2.5-0.2,3.8
		c-1.4,2.8-1.6,5.8-1.1,8.8c1.5,8.4,3.6,16.6,6,24.8c1.8,6.2,6.7,10.4,12.4,14.2c2.3-3.5,4.8-6.5,6.1-10.2c1.5-4.3,2.5-8.8,3.9-13.2
		c0.9-2.7,2.3-4.3,5.4-5.4c7.1-2.5,14.5-2.6,21.7-4.2c7.5-1.6,14.6-4.6,20.5-9.5c4.8-4,10.2-7.3,14.9-11.4c0.8-0.7,1.8-1.4,2.6-2.1
		c3.4-3.3,3.5-5,0.2-8.4c-1.2-1.3-2.4-2.6-3.4-4.1c-6.6-9.5-15.3-16.8-24.7-23.2c-1-0.7-2.2-1.1-3.4-1.5
		c-8.4-3.2-16.3-7.4-23.2-13.2c-2.1-1.8-5.4-1.5-7.2,0.5c-1.1,1.3-1.4,2.6,0.1,3.8c1,0.8,2.1,1.7,1.3,3c-0.9,1.5-2.6,1.3-4,1.1
		c-1.2-0.2-2.2-1-2.9-2.1c-0.4-0.7-0.8-1.4-1.9-1c2.6,2.6,5.6,3.9,9.4,2.9c1.2-0.3,2.5-0.1,3.6,0.6c6.1,3.9,12.8,7.4,16.7,13.7
		c2.2,3.5,4,7.4,5.8,11.2c1.7,3.5,3.8,6.5,7.3,8.5c0.9,0.5,1.7,1.1,1.7,2.3c0,0.3-0.2,0.6-0.4,0.9c-1.1,1-2.2,0.9-3.4,0.3
		c-9.4-4.6-17.9-2.1-25.9,3.6c-1,0.7-1.8,1.8-3.2,1.6c-0.4-0.1-0.7-0.2-0.9-0.5c-1.4-2.8,0.6-3.8,2.6-4.7c0.2,0,0.3,0,0.5-0.1
		c5.9-5,12.4-8,20.8-5c-3.3-7.6-6.8-14.2-11.3-20.1c-2.8-3.7-6.9-6.4-10.9-8.7c-2-1.1-4.5-0.6-6.9-0.6c-0.8,0-1.7,0.4-2.3-0.1
		c-3-2.5-6.7-3.7-10.7-4.9c0.8-1.8,1.6-3.4-0.1-4.8c-2.4,0.4-0.9,2.1-1,3.6c-1.1-0.4-1.5-1.2-1.9-2.1c-0.1-1.1,0.8-1.8,1.1-2.9
		c-0.5-0.8-1.1-1.6-1.7-2.6c1.6-2.1,2.4-4.7,5.3-5.6c1-0.3,1.4-1.4,2-2.2c1.7-2.5,3.3-3.1,6.3-2.4c2.5,0.6,4.9,1.6,6.8,3.4
		c1.8,1.7,3.8,2,6.1,1.8c5.2-0.6,10.3-1.9,15.6-2.2c3.2-0.2,6.3-0.8,9.4,1.4c1.8-5.6,6.4-5.8,10.9-5.9c2.6,0,5.1-0.1,7.6-0.7
		c3.1-0.7,6.2,0.5,7.8,2.9c-1.9,0.7-3.4-1.3-5.4-0.8c-4.3,1.1-8.8,0.5-13.9,0.9c5.3-0.2,10-0.2,14.6-0.8c1.6-0.2,3.1,0.3,4,1.8
		c0.2,2.2-1.1,3.2-2.7,3.7c2.1-0.1,2.2-2.7,3.9-3.6c-0.5-0.3-0.9-0.6-0.6-1.3c3.9-3,8.4-1,12.6-1.7c5.6-0.9,11.2-2.2,16.8-3.4
		c8.9-1.8,17.7-3.7,26.6-5.5c1-0.2,2.2-0.8,3.2,0.4c-0.1,2.1-2,1.8-3.2,2c-7.8,1.7-15.6,3.2-23.3,4.8c-7.7,1.6-15.4,2.9-23,4.9
		c-3.9,1-8.2,1.5-11.4,4.6c-1.1,1-2.5,1.5-4,1.4c-2.2-0.1-4.1,0.9-5.9,2.1c-5.7,3.9-9,3.6-13.9-1.8c-6.5,3.1-13.4,4.6-20.9,4.3
		c0.3,1.7,1.7,2.1,2.7,2.7c4.8,2.6,9.7,5.1,14.8,7.1c9.4,3.6,17,9.7,23.5,17.4c4.2,4.9,8.2,10,12.8,14.5c2.8,2.7,2.7,5.6-0.1,8.3
		c-2.1,2-3.9,4.3-5.9,6.5c-2.2,2.4-4.7,4.5-7.7,5.9c-1.3,0.6-2.2,1.5-3.2,2.5c-6.1,6.1-13.5,10-21.8,11.9c-6.5,1.5-13.1,3-19.8,3.4
		c-4.9,0.3-6.3,1.6-7.7,6.2c-2.3,7.4-4.7,14.7-9.1,21.2c-1.4,2-1.9,4.3-2.6,6.5c-2.3,7.4-3.7,15-5.2,22.5c-0.2,1-0.3,2-0.1,3
		c1.2,7.4-0.7,14.6-1,22c-0.2,3.9-0.9,8,1.3,11.7c0.2,0.4,0.3,0.9,0.3,1.3c-0.1,3.5,1.3,6.3,3.3,9.2c2.1,3.1,2.4,7.1,3.3,10.8
		c2.8,11.8,4.2,23.8,4.9,35.9c0.4,7.5,2.1,14.8,3,22.3c1.1,9,2.8,17.9,5.5,26.6c1.1,3.5,0.1,7.3,0.8,11c0.3,1.6,0.5,3.3,1,5
		c-4.8,4.1-11.2,5.4-16.6,8.7c-0.4,2.7-1,5.6-1.3,8.4c-0.3,2.7-0.4,5.4,1.8,7.5c0.5,0.5,0.6,1.2,0.8,1.8c1.5,7.6,3.3,15.1,4.3,22.7
		c1.4,11.5,1.6,23-1.1,34.3c-1.5,6.3-1.2,13-3,19.2c-2,6.9-1.3,13.9-1.7,20.9c-0.1,0.9,0.2,1.8,0.4,2.6c0.4,1.6,0.6,3-0.7,4.4
		c2.5,2.6,3.7,5.7,4.6,8.9c0.3,1,0.5,2,1.1,2.8c4.3,5.4,5.3,11.9,7,18.3c0.9,3.2-0.3,7.2-3.1,7.5c-3.2,0.3-6,2.2-9.3,1.7
		c-2.7-0.4-5.3,0.1-7.9,0.9c-3.9,1.1-6.6,0.5-8.8-1.8c0.1-0.2,0.2-0.5,0.3-0.5c6.3,1.3,12-3,18.3-1.8c3.4,0.6,6.4-0.5,9-3.1
		c-2.9-6.7-2.5-14.7-7.9-20.2c-3.6,1.9-7.9,0.8-11.8,1.7c-0.6-1-1.7-1.7-2.5-1.9c-0.8-1.2,0.1-2.1,0.6-3.1c-0.5-1-1.5,0.2-2-0.5
		c0.9-2.5,0.9-2.5,8.4-4.2c-2.2-0.5-2.2-0.5-4.2,0c-1.5,0.4-2.9,0.8-4.5,1.3c0.8-3.7,4.4-5.1,10.4-4.3c-0.2-4.5-0.3-4.7-4.7-5
		c-1.4-0.1-2.8-1-4.7-0.2c1.2,3.7-0.9,6.5-2.9,9.3c-0.8,1.2-2.2,1.5-2.9,3c-1.5,3.3-1.1,6.6,0.1,9.5c1.4,3.2,1.1,6.4,1.2,9.5
		c0.1,3-0.7,6.1,0.7,9.2c-2,0.1-2.2-1-2.6-1.9c-0.7-1.9-1-3.9-0.6-5.9c0.2-1.4,0.3-3.1-0.4-3.9c-3.8-4.7-2.1-9.9-1.1-14.8
		c1-5,2.3-9.9,0.8-15.1c2.6-1.5,2.4-4,2.5-6.3c0.3-7.9-1-15.7-3.1-23.3c-1-3.8-1.8-7.6-1.9-11.6c-0.1-2.5-0.9-4.7-2.2-6.9
		c-2.9-5-3.8-10.5-3.7-16.3c0.1-7.8,0.8-15.6,1.1-23.4c0.1-3-0.7-5.7-1.7-8.4c-1.4-4-2-8-1.1-12.3c-1.7-2.2-2.2-5.1-3.5-8.1
		C874.7,480.5,869.8,482,869.8,476.7c-2.1-1.4-2.3-3.6-2.4-5.9c-0.2-4.9,0.3-9.9,0.9-14.7c0.9-7.8-1-15.2-1.4-22.8
		c-0.9-17.7-5-35.2-4.1-53.1c0.1-1.9-0.5-4.1,1.4-5.6c0.4-0.2,0.8-0.1,1.2,0.2c1.1,1.5,0.7,3.3,0.7,4.9c0.1,8.3,0.3,16.6,1.3,24.9
		c0.5,4.7,1.6,9.3,2.4,13.9c0.1,0.4,0.2,0.7,0.2,1.1c0.7,8.8,2.3,17.5,2.8,26.3c0.3,6.8,0.9,13.6,0.1,20.4c-0.3,2.6,0.4,5.3,0.3,8
		c-0.1,2.3,1.8,3.1,3.7,2.9c7-1,14.1-0.2,21.1-0.8c2.3-0.2,4.7-0.8,7-0.4c5.4,1,9.8-1.2,14.4-3.4c2.5-1.2,3.4-3,3.4-5.9
		c-0.1-6.2-1.5-12.2-3.2-18.1c-0.9-3.1-1.3-6.4-1.6-9.6c-0.4-4.8-1.6-9.5-2.6-14.2c-0.6-2.9-1.9-5.7-1-8.7c-4.3-2.7-4.5-3.2-1.8-7.2
		c2-3,1.2-6.3,0.9-9.5c-0.7-7.3-3.2-14.4-4.1-21.7c-0.7-5.1-2.3-9.9-3.7-14.4c-0.1,0.5-0.1,1.6-1.5,2.1c-2,0-3.1-1.8-4.1-3.2
		c-1.3-1.9-3-2.6-5.1-2.4c-1.3,0.1-2.6-0.1-3.9-0.5c-2.2-0.7-4.5-0.6-6.6,0.8c-1.2,0.9-2.7,1.6-4.1,1.2c-4.7-1.3-9.3,1-13.9,0.3
		c-1.4,1.3-1.7,3.2-2.9,4.6c-1,1.1-1.9,2.5-3.6,2c-1.9-0.6-1.3-2.3-1-3.7c0.1-0.4,0.1-0.9-0.2-1.6c-1.7-1.5-3.9-1.2-6.1-0.8
		c-0.3,0-0.7,0-1,0c-2.1-0.8-3.5-3.3-6.3-2.3c-0.5,0.2-1.2,0.1-1.6,0.4c-4.3,4-8.7,1.5-13,0.2c-4.5,1.2-4.7,4.8-4.8,8.4
		c-0.3,7.8-0.8,15.6-4.5,22.7c-0.7,1.5-1,2.8-0.1,4.4c1.3,2.2,1.1,4.8,0.7,7.2c-1.6,10.2-1.4,20.5-2.9,30.6c-1,7-0.7,14.3,0.1,21.4
		c0.1,0.4,0.2,0.9,0.1,1.3c-1.6,6.3,1,12.4,0.4,18.7c-0.2,2.3,0.8,3.7,3.2,4c5.7,0.7,11.1,2.6,16.5,4.2c2.6,0.8,5.2,0.5,7.5-0.8
		c5.9-3.2,12.6-4,18.5-6.9C867.1,475.1,868.7,475,869.8,476.7z"/>
	<path d="M414.2,384.8c0.2,14.2,1.1,28.4,4,42.3c0.5,2.6,0.5,5.3,0.5,8c0.1,3.5,1.1,6.9,1.3,10.3c0.7,9,1.5,17.9,0.8,26.9
		c-0.3,3.6,0.5,7.1-0.4,10.7c-0.5,2.2,2.1,4.2,4.5,3.7c4.4-0.9,8.9-0.9,13.3-0.7c4.5,0.2,8.9-0.4,13.4-0.8c0.9-0.1,1.8-0.3,2.7-0.1
		c6.3,1.5,11.4-1.9,16.8-4.2c1.4-0.6,2.3-1.7,3.1-2.5c0.1-8.5-1.8-16.3-3.8-24.2c-1.3-5.1-1.6-10.4-2.5-15.6
		c-0.6-3.3-1.4-6.5-2.3-9.7c-0.4-1.2-0.3-2.4-0.3-3.6c0-2.1,0-4.2,0-6.4c-2,0-1.4,3.1-3.9,2.9c0-1.8,1-3,2.1-4
		c1.6-1.4,1.9-3.1,1.7-5.1c-0.6-5.2-1-10.4-2.3-15.6c-1.5-5.9-2.9-11.9-3.1-18.1c0-1-0.5-1.9-0.9-2.9c-0.7-1.7-1.8-3.1-1.7-5.4
		c0.1-2.3-2.6-3.4-3.8-5.3c-0.9-0.1-1.5,0.4-2.1,0.7c0.5,2.3,2.3,3.8,2.8,5.9c-2.2-1.9-4.2-3.9-5.2-7.1c-5.4,1.4-10.7,0.7-16-1
		c-2.2,1.6,1.2,1.3,0.7,3c-6.5-0.1-13.2,0-20,1.4c-0.4,2.7-1.7,5.1-4.5,7.4c0.6-3,2.5-4.9,2.1-7.6c-3.3-0.7-6.7-0.3-10.6,0.6
		c1-1.7,0.7-2.8-0.2-3.8c-1-0.7-1,1.2-1.4,0.9c-1.3-0.4-1.4-1.3-1.9-1.9c-0.9,0.5-0.6,1.7-1.3,2.2c-1.3-0.2-0.7-1.9-1.9-2.1
		c-0.9,0.5-0.4,1.4-0.6,2.2c-2.5,0.6-4.8-1-7.4-0.5c1.6,0.8,3.8,0.3,4.7,2.4c-3.2,1.2-5.8-1.5-8.7-0.5c-0.6-1.6,1.2-1.8,1.1-3
		c-0.4-0.2-0.9-0.5-1.3-0.7c-0.9,0.1-1,1-1.5,1.3c-4.3,2.6-5.9,6.6-6.1,11.5c-0.2,5.3-1.4,10.4-2.2,15.6c-0.3,2-0.8,4-2.1,5.6
		c-1.6,2.1-2.1,4.4-1.6,6.9c0.8,0.7,1.1-0.8,2.2,0.2c-0.4,5-0.9,10.4-1.4,15.8c-0.2,2.3-0.4,4.7-0.5,7c-0.2,3.5-0.5,6.9-1.1,10.3
		c-1.4,8.1-1.2,16.2-0.3,24.4c0.1,1,0.4,2.1,0.1,3c-1.4,4-0.1,7.7,0.6,11.5c0.6,3.2,0.6,6.4,0.3,9.7c2.5,1.3,4.9,1.8,7.7,2.1
		c3.1,0.3,6.3,1.4,9.2,2.7c5.1,2.2,9.8,1.7,14.7-0.8c5.8-3,12.5-4,18.4-6.8c0.1-0.1,0.4,0.2,1,0.5c-2.8,2.4-5.7,3.9-9.1,4.3
		c-0.9,1-1.2,2-1.4,3.1c-0.5,4.6-2.2,9-1.4,13.9c0.5,3-0.5,6.2-1.4,9.2c-1,3.3-0.7,6.9-0.2,10.3c0.5,3,1.4,5.9,2,8.8
		c0.4,1.7,0.6,3.6,0.6,5.3c-0.3,10.7-1.3,21.2-5.8,31.1c-1.4,3.1-0.9,6.4-0.8,9.6c0.2,9.3,0.2,18.5,0.4,27.8
		c0.1,5.4,2.2,10.3,4.8,15.1c1.8,3.3,1.4,7.1,2.5,10.6c0.5,1.6-1,2.8-2.7,3.3c-2.9,0.7-5.2,2.4-8,3.8c0.3,2.6-0.1,5.1-1.4,7.4
		c-2.2,3.9-6.5,5.6-10.8,4.1c-2.9-1.1-5.8-0.5-8.6,0.2c-1.7,0.4-3.3,0.6-5,0.5c-5.4-0.4-6.9-2.5-7.5-7.8c-0.5-4.8,1.2-8.5,4-12
		c1.2-1.5,2.1-3.1,2.8-5c1.9-5.6,4.8-10.6,8.6-15.2c-0.2-0.6-0.4-1.3-0.5-1.9c-0.8-4.7,2.1-7.4,6.7-6.3c1.7,0.4,3.4,0,5,0.4
		c1.4,0.3,2.7,1.1,4.1,2.4c0.2-1.7,0.3-3,0.5-4.7c1.8,1.5,1,3.2,1.1,4.6c0.8,0.5,1.6,0.4,2.5-0.3c-0.3-5.3,0-10.8-0.6-16.2
		c-1.2-10.7,0.6-20.9,3.2-31.2c1.8-7.2,2.6-14.6,2.3-22c-0.3-6.3-0.8-12.7-2.2-19c-0.3-1.3-0.4-2.5,0.1-3.6
		c1.7-3.8,1.7-7.8,1.6-11.9c-0.1-2.9,0.6-5.8,0.9-8.7c0.1-1.2,0.3-2.4,0.5-4.1c-5.4,0.9-9.1,5.6-14.6,5c0.1,3.5,2.8,5,4.9,6.3
		c3.2,1.9,4.1-3.1,7.2-3.1c0,2.3-2.7,3.1-2.3,5c-1.4,0.9-2.5,0.9-3.7,1.1c-0.3,2.7,0.8,5.9-2.6,7.5c-1-0.8-0.4-1.6-0.1-2.2
		c1.8-3.3,0.4-6-1.7-8.6c-0.4-0.4-0.9-0.8-1.1-1.3c-2.4-6-8-6.8-13-8.3c-0.9,0.4-0.8,1.1-0.6,1.5c1.6,4.6,1.1,9.2,0.9,13.9
		c0,1.7,0,3.4-0.4,5c-3.9,16.3-3.4,32.7-0.5,49.1c1.9,10.6,4.5,21,7.1,31.4c0.8,3.1,0.5,6.2,0.8,9.3c-2-3.4-2.8-7.2-3.9-10.8
		c-2.5-8.7-4.9-17.5-6-26.5c-1.6-13.2-3.8-26.3-1.7-39.7c0.7-4.4,1-8.8,2-13.2c0.6-2.8,0.3-6.1,0.1-9.2c-0.3-3.8-0.8-7.5-1.3-11.2
		c-1.6-1.2-3.4-1.2-5.2-1.5c-4.5-0.5-5.2-2-5.1-6.6c0.1-4-0.6-8-1.1-12c-0.2-1.9-0.5-3.7,0.1-5.6c0.6-1.9-0.6-3.7-0.6-5.6
		c-0.1-8.2,0-16.3,1.4-24.4c0.7-4,0.7-8.2,1-12.4c0.5-7,1.8-14,0.6-21c-0.1-0.8-0.1-1.9,0.3-2.6c3.3-6.7,2.8-14.2,4.2-21.3
		c0.8-3.9,0.9-8.1,3.6-11.4c0.1-0.2,0.2-0.5,0.4-0.6c4.4-2.5,3.6-7.3,4.9-11.2c0.3-0.9,0-1.7-0.5-2.2c-2.2-2.3-2.4-5.3-2.6-8.1
		c-0.4-6.2-2.4-12-3.3-18c-1.2-8.4-1.8-16.9-3.9-25.2c-0.6-2.4-1.1-4.7-2.5-6.9c-1-1.6-1.8-3.6-0.1-5.5c0,0.1,0.1,0.2,0.2,0.3
		c0,0-0.1-0.1-0.1-0.1c0,0-0.1-0.1-0.1-0.1c-1-3.6-3.9-6.3-4.8-9.9c-0.3-1.2-0.8-2.3-1.1-3.3c0.2-1.2,1.2-1.1,1.9-2
		c2.6,6,5,11.5,7.6,17.6c2.7-4.4,5.6-8.1,6.7-13c0.6-2.9,1.8-5.7,2.8-8.5c0.7-1.8,1-3.6,1-5.5c-0.2-7,0.7-13.9,2.4-20.6
		c0.9-3.6,1.3-7.1,1.8-10.8c-0.9,0-1.8,0.4-2.8-0.1c-11.1-4.8-22.2-5.1-33.2,0.7c-1.3,0.7-2.9,0.9-4.1,2c0.6,1.3,2.4,1.4,2.9,3
		c-1.6,0.1-2.6-0.8-3.5-1.7c-1-1-2.1-1.6-3.2-1c-3,1.5-6,0.4-8.9-0.1c-2.2-0.4-4.4-0.8-6.6-0.5c-5.4,0.8-11,0.1-15.9,3.2
		c-1.5,0.9-3.7,0.9-5.5,1.3c-1.4,0.3-2.3-0.5-3.2-1.5c-6.3-7-13.6-12.9-21.8-17.6c-3.9-2.2-7.9-4.2-10.1-8.5c-0.6-1.2-1.9-2.2-3-3.1
		c-2.9-2.2-4.8-5.2-6.2-8.5c-2.5,0.9-1.4-2.5-3.2-2.2c0.7-1.7,2.4-1,3.8-2.3c0.2-7.1,1.6-14.7-1.7-22.6c-2.3,2.1-2.3,3.9-1.4,5.8
		c0.7,1.5,1.3,3,0.1,5.5c0.1-5-3.3-7.2-5.6-10.3c1.4-0.4,2,0.9,3,1.5c1-1.1,1.7-2.5,3.5-3.2c2.2,1.6,3.8,3.8,3.8,6.7
		c0,3.4-0.1,6.7,0.5,10c0.5,2.4-0.4,4.7-1.2,6.8c-0.8,2-0.5,3.6,0.6,5.3c4.5,7,10.2,13,17.5,17.1c7.1,4.1,13.2,9.6,19.5,14.8
		c1.2,1,2,2.4,3,3.6c3,0.7,5.7-0.1,8.7-1.2c7.2-2.6,14.7-4.5,22.4-1.7c3.9,1.4,7.4,0,11-1.3c1.5-0.5,2.9-1.1,4.3-1.8
		c8.8-4.6,17.9-5,27.3-2.2c2.5,0.7,5,1.3,7.8,2c3-2.6,7.9-2,11.1-5.1c0.2-7,1.3-14.1-2.5-20.9c-1.9-0.5-4-1.1-3.4-4
		c0.1-0.4-0.4-1-0.7-1.5c-3.3-5.4-3-7.9,1.2-12.9c-2-4.7-0.6-9.4,0.3-14.1c0.4-2.1,1.1-4.1,1.8-6.1c0.5-1.3,0.9-2.8,2.8-2.9
		c1.3-0.1,1.3-1.6,2.1-2.4c-0.4-0.9-0.9-1.8-1.4-3c1.5-0.8,2.6-2.1,2.9-3.9c2.3,0.5,3.9,1.7,5.8,2.7c-0.3-1.6-1.9-2.2-1.8-3.7
		c2.3-0.4,2.8-0.1,4.8,3.6c0.5-0.8-0.1-2.1,1.9-2.7c2-0.2,2.8,2.8,5.1,3.7c2.8-0.7,5.2-0.3,8.1,1.4c3.6,2.1,5.9,5.4,8.8,8
		c1.3,1.2,2,2.9,2.2,4.8c0.2,1.7,0.4,3.3,1.4,4.8c0.5,0.7,0.7,1.5,0.5,2.2c-1,3.1-0.5,5.9,0.6,8.9c2,5.2,0.9,10.3-1.1,15.2
		c-0.1,0.4-0.6,0.6-0.8,0.7c-1.3,0.3-1.7-0.8-2.6-1c-2.1,1.2-1.1,13.2,1.1,17.4c3.1,5.8,9.6,6.9,14.3,10.6
		c10.7-7.3,22.1-6.8,33.7-3.4c2.8,0.8,5.6,1.6,8.4,2.5c1.5,0.4,2.9,0.3,4.3-0.1c8.9-2.5,17.8-2.5,26.8-0.2c6.3,1.6,9.9-0.1,13.6-5.5
		c3.1-4.5,7.4-7.7,12.1-10.4c4.1-2.3,7.9-5.2,11.2-8.4c3.7-3.6,6.6-7.9,9.9-11.9c0.9-1.1,1.6-2.4,2.6-3.5c1.5-1.6,1.6-3,0.8-5.1
		c-1.7-4.1,0-7.8,1.7-11.5c1.5,0.6,1.1,1.5,0.6,2.5c-1.7,3.4-2.3,6.7-0.6,10.3c0.7,1.4,0.2,2.8-0.6,4.1
		c-7.6,11.3-16.6,21.1-28.5,27.9c-3.3,1.9-5.8,4.6-8,7.6c-4.3,5.9-9.5,7.8-16.4,6c-8.2-2.2-16.4-1.8-24.5,0.8
		c-0.2,0.1-0.4,0.2-0.6,0.2c-4.1,0.2-8.1,0.7-12.4,2.2c0.7-2.8,3.2-2.3,5-4.1c-3.2,0.8-5.3-0.5-7.7-1c-8.7-2-17.3-3.3-26,0.3
		c-5.9,2.4-6.9,2.3-13.1-0.8c-0.2,3.6-0.4,6.9-0.6,9.7c0.2,1.7,1.5,1,1.7,1.7c0.2,0.6-0.2,0.9-0.5,0.9c-1,0.2-1.6,0.7-1.6,1.8
		c-0.1,3.1-0.7,6.2,0,9.4c1.5,6.3,2.8,12.7,4.6,18.9c1,3.5,2.3,6.7,3.9,10c2.8,5.6,8.5,8.2,12.1,12.7c5.2-8.4,9-17.2,11-26.6
		c0.2-0.9,0.6-1.7,0.9-2.5c0.2-0.5,0.5-1,0.8-1.6c1.3-0.6,2.9-0.5,4.1-1.8c0.9-1.1,2.5-0.7,3.8-0.5c13.1,1.8,26.1,2.2,38.5-3.4
		c8.1-3.6,16.7-5.7,25.5-6.6c1.8-0.2,2.8-0.9,3.7-2.4c1-1.7,2.4-3.3,4-4.5c4.9-4,8.7-9,12.2-14.2c4.7-7,8.5-14.4,11.3-22.4
		c1.5-4.1,3.6-8,6.1-11.5c1.4-2,1.9-4.5,3.6-6.3l0,0c0.3,2.2-0.5,4.2-1.6,6.1c-4.8,8.2-8.2,17.1-12.4,25.7
		c-2.4,4.9-5.4,9.2-8.7,13.5c-3.8,5-8.2,9.4-12.4,14.1c-2.8,3.2-6.3,5.3-10.7,5.4c-7.3,0.2-13.9,2.9-20.4,6.1c-7.3,3.5-15,5-23,4.8
		c-5.5-0.1-10.9-1.3-16.3-1.9c-3.1-0.4-5.1,0.8-5.9,3.9c-1.7,6.5-3.4,13.2-7,18.8c-6.7,10.8-8.4,22.9-10.9,34.9
		c-0.1,0.6-0.2,1.4-0.1,2c1.4,7.5-0.6,14.9-0.9,22.4c-0.1,3.9-1.1,8,1.3,11.7c0.3,0.4,0.3,1.1,0.4,1.6c0.1,3.3,1.3,6,3.2,8.8
		c2.1,3.1,2.4,7.1,3.3,10.8c3.3,13.2,3.9,26.8,5.4,40.2c1.7,14.5,3.2,29.2,7.7,43.2c0.8,2.6,0.7,5.3,0.8,7.9
		c0.2,3.2,0.2,6.5,1.3,9.5c-5,4-11.1,5.5-16.5,8.6c-0.4,3-1.4,6.1-1.5,9.4c-0.1,2.5-0.1,4.9,2,6.8c0.4,0.3,0.6,1,0.7,1.5
		c1.4,7.2,3.2,14.4,4.1,21.7c1.7,12.6,1.6,25.2-1.4,37.6c-1.4,5.9-0.9,12.1-2.7,17.9c-2.1,6.5-0.8,13.1-1.6,19.6
		c-0.1,1.1,0.1,2.3,0.5,3.3c0.6,1.6,0.5,3-0.8,4.3c2.6,2.5,3.6,5.5,4.6,8.6c0.8,2.6,1.9,5,3.6,7.1c1.8,2.2,2.5,4.7,2.9,7.4
		c0.3,2.3,0.9,4.6,1.7,6.8c1.4,4.2-0.6,7-5.1,7.4c-1.4,0.1-2.3,1.2-3.7,1.4c-4.5,0.5-9,0.6-13.5,1.4c-5.7,1-7.7-0.7-9.2-8.2
		c-0.3-1.3,0.1-2.7,0-4c-0.1-1.2,0.2-2.6-0.6-3.6c-2.8-3.1-2.1-6.6-1.5-10.2c0.8-4.3,1.9-8.7,2.4-13c0.2-1.8-0.6-3.7-0.9-5.7
		c2.2-1.9,2.2-4.5,2.3-7.3c0.5-9.1-2.4-17.5-3.8-26.3c-1.2-7.3-2.9-14.3-6-21.1c-1.9-4.3-0.9-9-0.9-13.5c0-6.1,0.4-12.3,0.9-18.4
		c0.3-3.4-0.4-6.4-1.5-9.5c-1.5-4.1-2.1-8.2-1.3-12.6c-1.6-2.3-2.2-5.2-3.4-8c-0.3-0.1-0.7-0.3-1.1-0.4c-6.2-1.3-6.4-1.7-6.9-8.3
		c-0.3-3.7,0.2-7.3,0.5-11c0.5-5.8,0.1-11.6-0.3-17.4c-0.8-11.1-1.2-22.3-2.9-33.3c-1.6-10.2-2-20.5-2.3-30.7
		C413.6,387.1,413.3,385.8,414.2,384.8L414.2,384.8z"/>
	<path d="M246.2,177c0.9-1.7,3.1,0,3.9-1.7c5.7,4.1,7.7,9.4,5.5,13.6c-0.7-0.9-2.8,0.3-2.5-1.6c-3.4,2-6.2,5.6-11,5.1
		c0.9,1.7,2.2,3.6,3.7,5.4c2.3,2.9,3,6.7,4.8,9.9c4.5,7.9,8.7,16.1,12.1,24.6c3,7.5,8.6,13.3,14.4,18.8c3.2,3.1,6,6.5,9.9,8.9
		c2.2,1.4,4.5,2.6,6.8,2.3c2.9-0.4,5.5,0.5,8.2,0.6c7,0.3,13.7,2.2,20.5,3.5c2.5,0.5,5,1.3,7.4,2c5.1,1.4,10.3,1.7,15.6,1
		c4.7-0.6,9.5-1.1,14.2,0.3c1.7,0.5,2.4,1.5,3.2,2.6c0.9,1.4,0.3,2.3-1.3,2.6c-1.1-0.4-0.9-1.8-2-2.8c-1.1-0.2-2.6-0.6-4.2-0.7
		c-3-0.1-6.1-0.3-9,0.1c-9,1.3-17.5-1.2-26.1-3.1c-7.8-1.8-15.7-3-23.8-3.5c-6-0.4-12.4-2-16.6-7.8c-2.2-3-5.3-5.4-8.2-7.9
		c-5.6-4.8-9.1-10.9-11.8-17.7c-2.5-6.2-4.5-12.7-8.5-18.1c-2.1-2.9-2.8-6.6-4.4-9.7c-1.9-3.7-5.1-6.7-6.3-10.6
		c-1.9-6.5-7.6-6.9-12.6-7.7c-4.8-0.8-12.8-3.5-16.6-6.5c-2.8,3-5.4,3.3-8.8,1.1c-2.7-1.8-5.4-3.5-8.1-5.3c0-1,0-1.9,0-2.8l0.1,0
		c-1.6,0.1-0.1,1.6-0.9,2.1c-1.5,1-2.9,0.9-3.9-0.7c-1.3-2.2-3.3-2.8-5.6-3.3c-11.1-2.6-22.2-5.3-33.3-8c-1.2-0.3-2.8-0.2-3.3-1.8
		c0.8-1.6,2.1-0.9,3.2-0.6c10.9,2.6,21.7,5.2,32.6,7.8c2.3,0.5,4.6,1.1,6.9,0.1c0.5-0.2,1.2-0.4,1.6-0.1c3,1.6,6.2,0.6,9.2,0.4
		c5-0.3,9.3-0.1,10.4,5.9c6.9,1.7,13.8,0.2,20.4,2.2c1.6,0.5,3.4,0.5,4.9,1.2C239.9,178.1,243,178.7,246.2,177
		c0.5,1.3-0.9,1.5-1.4,2.2c-2.2,1.4-4.5,0.8-6.8,0.1c-7.6-2.4-15.4-3.7-23.6-2.2c1.4,2.6,3.9,3.4,6.2,3.8c6.4,1.2,12.3,3.9,18.6,5.2
		c1.1,0.2,1.6,1.2,2.3,1.8c0.9,0.8,1.9,1.5,3.4,1.4c1.4-1.5,1.3-3.1-0.9-3c-7.5,0.3-14-3.5-21-5c-2-0.4-4.4-0.1-5.6-2.3
		c-0.1-0.3-0.1-0.6,0-1c1.9-2.7,4.9-2,7.3-1.6c4.6,0.8,9.4,1,13.8,3c1.6,0.7,3.5,0.8,5.2,0.3c0.2-0.1,1.5,0.9,1-0.6
		c4-2.3,5.2-2,7.5,1.7c-1-2-2.3-3.5-4.9-3C246.7,178.1,246.4,177.5,246.2,177z"/>
	<path d="M576.7,179.1c0.5-0.2,1.1-0.2,1.4-0.9c-0.3-2.3-2.5-3.5-2.9-6.1c-0.4-2.5-0.8-4.4,1.2-5.9c0.6-1.1-0.6-1.2-0.7-1.8
		c0.2-0.2,0.3-0.4,0.5-0.4c3.7-0.7,7.2,1.1,10.8,1.2c1.4,0.1,1.6,2,2.5,3c1.2,2,2.8,0.8,4.2,0.4c4.8-1.3,9.6-2.8,14.5-3.9
		c1.7-0.4,3.4-0.5,4.9,0.5c0.6,1.7-0.3,2.5-1.5,3c-2.8,1.1-5.7,2.2-8.7,2.7c-6,0.9-11.5,3.3-17.5,4.5c0.4,1.4,1.1,2.2,2.1,1.2
		c4.3-4.1,10-4.5,15.4-5.7c3.2-0.7,6.3-1.8,9.4-3c0.8-0.3,1.7-0.6,1.9-1.9c-0.1-1.4-1.1-1.4-2.3-1.5c-4.6-0.5-8.7,1.7-13,2.6
		c-2.2,0.5-4.3,1.2-6.4,1.8c-1.2,0.3-2.2,0.5-3-0.7c3.2-2.3,7.1-2.4,10.7-3.6c1.8-0.6,3.7-0.9,5.5-1.5c2.3-0.8,4.7-1.3,7.2-0.6
		c1.5,0.4,3.1,0.5,4.6,0c1.7-0.6,2.9,0.3,3.4,1.8c0.6,1.6-0.6,2.5-1.8,3.2c-5.8,3.3-12,5.6-18.8,6.4c-3.2,0.3-6.2,1.8-9,3.8
		c-0.1,5.5-2.9,9.6-7.1,12.8l0,0c-0.5-1.9,0.7-3.1,1.9-4.3c1.5-1.4,2.7-2.9,2.4-5.2c-0.2-0.1-0.4-0.3-0.6-0.3
		c-4.2,0-8.2-0.3-7.8-6.5c2-3.4,6.5-1.2,9.6-3c-1.5-2.5-4.3-1.4-6.2-2.4l0.1-0.1c0.5,1.6,2.7,0.9,3.4,2.5c-2.5,0.5-4.9-2.5-7.3,0.3
		c-2.1,2.4-2.1,4.7,0,6.8c-1.6,2.3-5.8,2-3.8,6.4c-2.3-1.1-2.7-2.1-1.6-3.4C575,180.5,576,179.8,576.7,179.1L576.7,179.1z"/>
	<path d="M656.1,156.1c-9.1,1.1-16.2,6.2-23.9,9.9c-2,1-4,1.6-6.1,1.1c-1.9-0.4-3.6-0.8-3.5-3.7c0-1.8-1-3.6,0-5.6
		c1.6-2.8,4-4.2,7.1-4.3c5.1-0.3,10.2-1.5,15.3-1.6c2.6,0,4.9-1.4,7.3-1.7c1.1,0.6-0.2,2.9,2.3,2.2c0.6-0.3-0.8-1,0.2-1.7
		c10.9-2.7,21.9-6.2,33.1-9.4c1-0.3,2.2-1,2.9,0.6c-0.5,1.8-2.2,1.7-3.5,2c-8.5,2.5-16.9,5-25.5,7.4
		C659.3,152.1,657.2,153.3,656.1,156.1z"/>
	<path d="M896.8,223.9c1.4-0.8,2.7-1.8,4.1-2.5c9.3-4.3,18.4-3.5,27.3,1.4l0,0c-2.6,1.7-5.3,1.9-8.2,1c-4.1-1.2-8.4-0.6-12.6-0.6
		c-1.3,0-2.2,0.9-3.1,1.8c-2.4,2.2-5.1,4-7.8,5.7c-1.3,0.8-2.8,1.3-3.9-0.2c-1.2-1.6,0.1-2.6,1.1-3.7c0.8-0.9,2.2-1.1,2.8-2.3
		C896.5,224.2,896.7,224,896.8,223.9z"/>
	<path d="M471.5,251.9c0.3,1.3-0.4,2-1.3,2.8c-4.2,3.7-7.8,7.8-10.8,12.6c-2.5,4-6.1,7.4-10.2,10.1c-0.9,0.6-1.8,1.4-3,0.9
		c0.1-0.7,0.5-1.1,0.9-1.4c4.3-2.8,7-7.1,10.7-10.4c0.7-0.6,1.4-1.3,1.7-2.1c1.8-6.2,6.6-9.6,11.5-13c0.2-0.1,0.4-0.1,0.6-0.2
		C471.6,251.4,471.6,251.7,471.5,251.9z"/>
	<path d="M394.4,486.3c-3.2,0.5-6.1,0.9-7.6-2.6c-3.3,2.7-5.7,2.9-7.5,0.8c-1.4-1.7-1.1-4,0.6-5.3c2.2-1.7,4.7-1,7,2.2
		c1.5-2.1,3.5-3.2,6-2C396,480.9,394.6,483.7,394.4,486.3z"/>
	<path d="M419,426.9c5,0.5,10-1.2,15-0.5c8.2,1.1,14.9,5,19.5,11.9c-0.2,0.3-0.3,0.5-0.5,0.8c-1.3-1-2.7-1.9-4-3
		c-3.6-3.3-7.9-5.5-12.3-7.4c-3.5-1.5-7.5-0.8-11.3-0.7C423.2,428.2,421,428.4,419,426.9z"/>
	<path d="M418.5,424.6c-1-18.2-3.3-36.4-1.9-55c1.2,0.7,0.8,1.4,0.8,1.9c0,0.6,0,1.1-0.1,1.7c-0.4,1.9-0.4,3.8-0.3,5.7
		c0.7,10.8,0.4,21.6,2.2,32.3c0.7,4.3,0.1,8.9,0.1,13.4C419.1,424.5,418.8,424.6,418.5,424.6z"/>
	<path d="M485.1,245.8c3.1-1.9,6.1-2.1,9-2.1c6.5,0,12.9-0.3,19-2.8c0.2-0.1,0.6,0.1,1,0.2C510.6,244.3,489.3,247.9,485.1,245.8z"/>
	<path d="M912.6,622.3c-1,1.3-1.9,1.6-3,1.5c-0.9-0.1-1.9-0.1-2.6-0.5c-1.6-1.1-3.1-2.4-4.9-3.8c3.4-2.2,6.8-1.8,10.3-2.3
		C912.1,619.2,911.1,620.8,912.6,622.3z"/>
	<path d="M391.3,369.8c5.1,4.8,1.7,12.6-5,15.9C389.4,380.9,391.7,375.8,391.3,369.8z"/>
	<path d="M352.2,250.9c-8.9,0.5-17.7,0-26.4-1.8c8.8,1,17.8-1.5,26.5,0.4C352.3,250,352.3,250.4,352.2,250.9z"/>
	<path d="M351.9,258.9c0.3-1.9,1.9-2.1,3-2.3c3.5-0.7,6.8,0,9.2,2.7c2.5,2.9,4.8,6.1,6.5,9.8c-1.7-0.8-1.8-0.8-3.2-3
		C363.8,260.4,358.8,257.8,351.9,258.9z"/>
	<path d="M400.2,464.6c2.8-9.4,7.1-18.1,13.3-25.7C409.3,447.6,404.3,455.9,400.2,464.6z"/>
	<path d="M395.9,540.4c-3.2-6.5,0.6-11.8,2.1-17.5C398.8,525.4,397.2,537.8,395.9,540.4z"/>
	<path d="M397.6,390.1c-0.4-9.9,1.4-18,4.8-21c1,1.6,0.4,3-0.2,4.4C400.1,378.8,398.1,384.3,397.6,390.1z"/>
	<path d="M846.4,532.6c-1.2-3.9-2.1-7.3,0.1-10.8c0.8-1.2,0.7-3,1-4.5c0.2-0.8,0.4-1.7,1.4-2.4c0.9,2.4-0.6,4.1-0.8,5.9
		c-0.2,1.9,0.1,3.9,0.1,5.9C848.2,528.8,847.6,530.7,846.4,532.6z"/>
	<path d="M432.8,476.3c-0.2-6.4-2.4-12.6-2.5-18.9c-0.1-3-1.6-5.4-3-7.9c2.7,1.1,4,3.4,4.1,5.9c0.2,6.5,2,12.8,1.6,19.4
		C433,475.3,432.9,475.8,432.8,476.3z"/>
	<path d="M449.4,394.2c-2.9-3.2-5.7-6.2-8.4-9.3c0.6-0.7,1.1-0.4,1.4,0c2.4,2.6,4.9,5.2,7.3,7.9c0.5,0.6,0.9,1.3,0.7,2.1
		c-0.7,4.9-1.5,9.9-2.4,14.8C447.4,404.6,448.7,399.6,449.4,394.2z"/>
	<path d="M371.9,484.7c-0.5-2.3-0.2-4.5,0.2-6.7c1.4-0.9,2.7-0.4,4-0.2c2.1,0.3,2.8,2,1.7,3.4c-1,1.4-0.8,2.5-0.1,3.7
		c-2.2,0.5-2.1-1.9-3.3-2C372.8,482.8,373.7,484.9,371.9,484.7z"/>
	<path d="M836.7,510.9c2.2,2.9,3.5,6.1,3.9,9.7c0.2,1.7,0.5,3.4-0.5,5c-0.7-3.4-0.3-7-1.9-10.2c-1.5-3.2-4.4-5.5-5.4-9.8
		C835.2,507.2,835.1,509.8,836.7,510.9L836.7,510.9z"/>
	<path d="M435.2,367.3c2.9,5,2.1,13.9-1.6,17C436.1,378.4,435.5,372.8,435.2,367.3z"/>
	<path d="M382.4,379.1c-0.8,4.8-3.3,8.6-2.6,13.5C377.2,388.4,378.4,381.9,382.4,379.1z"/>
	<path d="M395.6,401.9c-3.7,6-7.3,12.1-11,18.1c-0.2-0.1-0.5-0.3-0.7-0.4c3.4-6.2,7.1-12.2,10.8-18.2
		C395.1,401.5,395.3,401.7,395.6,401.9z"/>
	<path d="M386.6,519.1c2,2.9,3.1,6,3.5,9.5c0.2,1.6,0.4,3.3-0.5,4.9c-0.4-3.5-0.4-7.2-2-10.4c-1.5-3.1-4.4-5.5-5.3-9.5
		C384.8,515,384.5,518,386.6,519.1L386.6,519.1z"/>
	<path d="M471,251.4c1.8-3.5,3.5-7,5.4-10.8c1.1,3.3-1.3,8.2-5,11.2C471.3,251.7,471.2,251.6,471,251.4z"/>
	<path d="M254.3,195.6c-0.3-2.1-0.3-2.1-3.7-4.8c3.7,0.4,5.7,1.6,5.4,3.4c-0.3,1.9-0.7,4.1-3.5,4.5
		C252.4,197.1,254,196.9,254.3,195.6z"/>
	<path d="M379.5,233.9c-5.6-0.7-11.3-1.8-16.9,0.3C368.2,230.8,373.8,232.7,379.5,233.9z"/>
	<path d="M846.7,536.2c0,3.7,0,6.9,0,10.3C844.7,543.6,844.5,538.5,846.7,536.2z"/>
	<path d="M386.7,504.4c-0.4,3,0.2,5.8,2,8.5C384.5,511.5,383.9,508.9,386.7,504.4z"/>
	<path d="M838.9,505c-3.9-1.9-4.4-3.9-1.7-8.3C837.2,499.6,837.4,502.4,838.9,505z"/>
	<path d="M473.3,255.7c-1.5,3.7-4.9,4.9-8.2,6.2C467.4,259.3,470.3,257.4,473.3,255.7L473.3,255.7z"/>
	<path d="M396,544.1c0,3.4,0,6.5,0,9.8C394.1,550.5,394,546.3,396,544.1z"/>
	<path d="M426.2,370.2c0,2.6,0.2,4.7-0.8,6.9C423.9,373.9,424,371.5,426.2,370.2z"/>
	<path d="M398.3,568.3c-1.8-3.5-2.3-6.3-1.9-11.2C396.9,560.9,397.2,564.7,398.3,568.3z"/>
	<path d="M414.3,465.5c0.7-3.6,1.4-7.1,2.2-10.7c0.8,3.9-0.5,7.4-1.4,10.9C414.8,465.7,414.6,465.6,414.3,465.5z"/>
	<path d="M847,549.5c0,3.9,1.1,7.5,1.7,11.3C846.6,557.2,847.1,553.3,847,549.5z"/>
	<path d="M840.1,595.1c-0.7-2.2-0.7-4.4-0.1-6.7C841.2,590.7,841.1,592.9,840.1,595.1z"/>
	<path d="M429.7,438.8c-1.8-1.2-4.8-0.3-5.4-3.2C426.5,435.9,428.3,437.1,429.7,438.8z"/>
	<path d="M377.2,370.5c0.9,0.7,1.3,1.2,1.4,2.1c-0.7,0.9-1.5,1.9-2.5,3C374.5,373.4,376.6,372.2,377.2,370.5z"/>
	<path d="M389.4,603.2c-0.5-2.5-0.3-4.8-0.1-7.3C390.7,599,390.7,600,389.4,603.2z"/>
	<path d="M573.6,167.8c-0.4,1.7-0.8,3.3-1.3,5.2c-2-2.4-0.7-4,1-5.5c0.2-0.1,0.4-0.2,0.6-0.3C573.7,167.4,573.6,167.6,573.6,167.8z"
		/>
	<path d="M836.8,511c0.1-1.4-0.1-2.9,1.5-4c0.8,1.5-0.1,2.8,0,4.1C837.6,511,837.2,511,836.8,511L836.8,511z"/>
	<path d="M847.6,595.6c1.1,1.3,0.9,2.7,0.2,4.8C846.6,598.4,846.9,597,847.6,595.6z"/>
	<path d="M567.7,199.5c0.4-1.8,1.4-3.3,3.1-5.2C570.5,197,568.8,198.1,567.7,199.5z"/>
	<path d="M438.9,412c-0.1,1.6,0.3,3.2,0.2,4.8C438.2,415.2,437.5,413.7,438.9,412z"/>
	<path d="M476,252.8c2,1.4,2.7,2.9,3,4.7C477.3,256.6,476.4,255.1,476,252.8z"/>
	<path d="M439.3,367.8c0.9,1.8-0.3,3.2-0.5,5.4C438.1,369.8,438.1,369.8,439.3,367.8z"/>
	<path d="M386.7,519.1c-0.3-2.5-0.3-2.5,1.4-4.4C387.6,516.5,389.1,518.4,386.7,519.1L386.7,519.1z"/>
	<path d="M395.7,587.2c1.2,1.6,0.9,2.6,0,4.2C395.2,589.7,395.2,588.7,395.7,587.2z"/>
	<path d="M419.8,372.9c0.9,1.6,0.2,3.1-0.1,4.6C418.8,375.9,419.6,374.4,419.8,372.9z"/>
	<path d="M550.3,243c-1,1.8-2.3,2-4.1,1.9C547.3,243.4,548.5,243,550.3,243z"/>
	<path d="M274.2,220.2c2,1.3,2.7,2.5,2.9,4.8C275.8,223.3,274.8,222.2,274.2,220.2z"/>
	<path d="M476.6,250.2c-0.1-1.4-0.3-2.8,1.1-3.9C478.5,248,477.6,249.1,476.6,250.2z"/>
	<path d="M287.6,256.8c-1.4,0.5-2.6,0.3-3.9-0.3C285.5,255.4,285.5,255.4,287.6,256.8z"/>
	<path d="M536.4,229c-0.2-1.9,0.7-2.8,1.8-4.1C538.1,226.7,537.7,227.7,536.4,229z"/>
	<path d="M257.6,203.9c-1.5-0.4-1.9-1.4-1.9-3.1C257.5,201.4,257.6,202.7,257.6,203.9L257.6,203.9z"/>
	<path d="M396.4,595.7c1.1,1.5,1.1,2.2,0,2.9C395.6,597.8,396.2,597,396.4,595.7z"/>
	<path d="M576.8,179.1c-1.1-0.7-1.8-1.7-1.8-3.5C576.8,176.4,576.6,177.8,576.8,179.1L576.8,179.1z"/>
	<path d="M530.6,249c0.7-1.5,1.9-1.5,3.6-2C532.9,248.4,532.1,249,530.6,249z"/>
	<path d="M528.9,232.7c1.5-0.2,2.1,0.4,2.5,1.4C530.2,234.5,529.6,233.9,528.9,232.7z"/>
	<path d="M573.9,189.9c-0.2,1.3-0.5,2-1.6,2.2C572.5,191.1,572.6,190.4,573.9,189.9z"/>
	<path d="M541,222.5c0.5-2,1.4-2.6,2.9-3.5C543.4,220.8,542.4,221.4,541,222.5z"/>
	<path d="M294.2,248.5c-0.3-1.1-0.6-2,0-3.2C294.8,246.5,294.6,247.6,294.2,248.5z"/>
	<path d="M260,208c0.8,0.5,1.1,1.3,1.5,2C260.8,210.7,260.8,210.7,260,208z"/>
	<path d="M254.6,199.7c-0.1,1.1-0.6,1.6-1.5,1.9C252.9,200.5,253.5,200.1,254.6,199.7z"/>
	<path d="M292.5,236.6c0.8-0.1,1.1,0.5,1.4,0.9C293.1,237.8,292.7,237.3,292.5,236.6z"/>
	<path d="M573.2,167.5c0-0.9-0.1-1.9,1.3-2.3c0.3,1.2-0.2,2-0.9,2.6C573.4,167.7,573.3,167.6,573.2,167.5z"/>
	<path d="M847.1,590.8c-0.6-0.9-0.4-1.6,0.2-2.5C847.8,589.3,847.9,590,847.1,590.8z"/>
	<path d="M846.6,582.8c-0.8-0.8-0.7-1.7-0.3-2.7C847.6,580.9,846.7,581.9,846.6,582.8z"/>
	<path d="M473.3,255.7c0-0.9-0.5-1.9,1-2.7C474.3,254.2,474,255,473.3,255.7L473.3,255.7z"/>
	<path d="M414.3,384.8c-0.2-1.1-0.2-2.1,0.2-3.4C414.8,382.8,414.8,383.8,414.3,384.8L414.3,384.8z"/>
	<path d="M575.4,186.5c1.3,0.3,1.7,1,2.1,2.2C576.1,188.4,575.4,188,575.4,186.5z"/>
	<path d="M842.5,508.6c-0.4-0.6-0.4-1,0-1.2c0.3-0.2,0.6,0,0.7,0.3C843.4,508.2,843.1,508.5,842.5,508.6z"/>
	<path d="M375.8,277.5c-0.9-0.1-1.4-0.4-1.4-1.4C375.1,276.2,375.7,276.3,375.8,277.5z"/>
	<path d="M319.5,248.7c-1.1,0.2-1.4-0.1-1.6-0.8C319,247.4,319.2,247.9,319.5,248.7z"/>
	<path d="M278.8,231.4c-0.6-0.4-0.9-0.7-0.7-1.2C279.1,229.9,279.1,230.5,278.8,231.4z"/>
	<path d="M515.1,241.2c0.3-0.7,0.7-1,1.4-0.5C516.3,241.7,515.8,241.6,515.1,241.2z"/>
	<path d="M553.2,241c-0.3,0.7-0.6,1.1-1.3,1.2C551.6,240.8,552.3,240.9,553.2,241z"/>
	<path d="M354.6,245.9c0.5,0.1,0.8,0.4,0.7,1.1C354.5,247,354.1,246.8,354.6,245.9z"/>
	<path d="M407.2,428.2c0.2,0.8-0.3,0.9-0.6,1.2C406,428.7,406.3,428.5,407.2,428.2z"/>
	<path d="M543.8,245.9c-0.1,0.6-0.3,0.9-1,0.7C543,246.2,543.2,245.8,543.8,245.9z"/>
	<path d="M257.6,203.9c0.9,0,1.1,0.6,1.1,1.3C257.4,205.4,257.5,204.6,257.6,203.9L257.6,203.9z"/>
	<path d="M321.9,248.6c0.7-0.5,1.2-0.4,1.6,0.1C323.1,249.4,322.6,249.1,321.9,248.6z"/>
	<path d="M451.5,378.8c-0.1-0.6,0.2-1,0.4-0.9C452.4,378.2,452,378.5,451.5,378.8z"/>
	<path d="M563.6,205.4c0.3,0.8-0.1,1.1-0.6,1.4C562.4,206,563.5,205.9,563.6,205.4z"/>
	<path d="M290.7,235.1c-0.5,0.3-0.7-0.2-1.1-0.5C290.3,234.2,290.5,234.7,290.7,235.1z"/>
	<path d="M372.1,272.4c0.8,0.4,1.4,0.8,0.9,1.9C372.1,273.9,371.5,273.5,372.1,272.4z"/>
	<path fill="#FFFFFF" d="M869.1,419.6c-1.5-5.8-2.7-11.7-3.1-17.6c-0.5-9.1-1.7-18.2-0.9-27.3l0.1,0.1c-1.2,1.7-0.8,3.6-0.8,5.5
		c-0.3,12.5,1.5,24.9,2.8,37.3c1.6,14.8,3.2,29.7,2.6,44.7c-0.1,2.7-1,5.2-0.7,8c0.2,2.2,0.2,4.4,0.7,6.6l0.1-0.1
		c-1.4-0.6-2.6,0.2-3.8,0.7c-6.3,3.1-13.4,4.1-19.7,7.5c-2.3,1.2-4.9,1.1-7.5,0.3c-3-1-6.1-1.7-8.9-2.9c-3.5-1.5-7.7-0.2-11.1-3.2
		c0.6-5.3-1.7-10.9-1.4-16.4c0.5-10.2-1.5-20.5,0.4-30.6c1.5-8.1,1.2-16.2,2.2-24.3c0.4-3.4,1-6.9,0.8-10.3c-0.7-0.8-1.2,0.3-1.9,0
		c-0.2-1.8-0.6-3.9,0.6-5.5c3-3.8,3.2-8.5,3.9-13c0.7-4.2,1.3-8.4,1.6-12.6c0.2-2.9,1.4-5.1,3.6-6.8c0.9-0.8,1.9-1.5,2.7-2.4
		c0.9-1,1.5-0.3,2.3,0.1c0,1.2-1.6,1.4-1.2,2.7c2.9-0.3,5.6,1.6,8.7,1.2c0.1-1.6-1.4-1.6-2.3-2.4c1.7-0.3,3.1,0.3,4.7,0.4
		c1.1-0.5-0.5-2.1,1.1-2.4c1.1,0.1,0.4,1.9,1.5,2.1c1.3-0.2,0.4-1.6,1.3-2.1c1,0.1,0.5,1.5,1.3,1.6c1.1,0.4,1.1-1.1,2-0.9
		c0.8,1,1.8,1.9,0.6,3.3c-0.2,0.2,0.6,0.4,1,0.6c0.7,2.3-1,4-1.5,6c-0.9,3.4-1.9,6.8-2.4,9.5c0.9-3.9,1.8-8.7,3.9-13.2
		c0.3-0.7,0.3-1.5-0.1-2.2c3.1-1.2,6.2-0.9,9.5-0.6c0,2.6-0.9,4.7-2.6,6.9c2.9-0.9,4-2.4,5-6.6c6.6-1.6,13.4-1.7,20.2-1.7
		c0.5-1.8-2.9-0.8-1.1-2.8c5.2,1.8,10.6,2.4,16.3,1c0.6,3.2,3,5,4.9,7.2c-0.3-2.1-2.1-3.5-2.6-5.6c0.2-0.9,1-0.9,1.8-1.1
		c1.3,1.5,3.7,2.6,3.7,4.5c0,3.6,3.2,6.2,2.9,9.5c-0.3,3.6,1.6,6.7,1.6,10.1c0,2.4,0.5,4.7,1.3,6.9c2.2,6.1,1.9,12.5,2.7,18.8
		c-1.1,2.3-4,3.4-3.8,6.5c2.2-0.1,1.9-2.7,3.5-3.3c0.7,0.6,0.4,1.4,0.3,1.9c-0.6,5.7,0.8,11,2.3,16.4c0.7,2.4,0.9,4.8,1.2,7.3
		c0.5,5.4,1.3,10.7,3,15.8c2,5.9,2,12,2.5,18.3c-1,1.4-2.3,2.4-4,3.2c-2.8,1.2-5.6,2.2-8.2,3.7c-1.1,0.7-2.4,0.7-3.6,0.3
		c-1.2-0.4-2.4-0.5-3.7-0.3c-9.1,1-18.3,0.5-27.4,1.1c-1.2,0.1-2.4,0.5-3.6,0.7c-3.2-1.7-3.2-2.3-3.1-5.8c0.2-9.7,0.6-19.4-0.1-29.1
		C870.5,436.1,868.2,427.9,869.1,419.6c5.3,0,10.6-0.3,15.9,0.1c4.4,0.3,8.2,2.8,11.9,5.2c1.2,0.8,2.4,1.7,3.5,2.8
		c-3.4-3.1-7.3-5.2-11.5-7c-1.7-0.7-3.3-1.1-5.2-1C878.8,419.7,873.9,419.5,869.1,419.6z"/>
	<path fill="#FFFFFF" d="M909.1,289.9c-1.8,0.9-2.1,2.2-2.4,3.7c-2.1,9.4-3.6,18.8-3,28.5c0.2,3.8-1.3,7.4-1.5,11.3
		c-0.2,5.2-0.1,10.5,0,15.7c-8.1,3-34.2,6.3-41.3,5.6c0.5-3.9,0.1-7.7-0.2-11.6c-0.3,3.8-0.6,7.6-1,11.9c-9.1-0.5-17.7-2.3-25.8-5.9
		c-0.3-0.9-0.4-1.7-0.8-2.3c-3.3-6.2-4-12.9-4.3-19.7c-0.1-1.9-0.7-3.7-1.1-5.6c-0.4-2-0.9-3.9,1.1-5.8c-1,0.2-1.4,0.2-1.9,0.3
		c-0.9-2.9-0.9-5.9-1.4-8.9c-0.7-4-1.1-8.1-2.6-12c-1.4-3.7-1.4-7.5,1.6-11.2c3-3.6,4.4-8.2,6-12.7c3.8-10.7,4.3-21.9,6.1-32.9
		c0.6-4,0.7-8,2-11.9c0.4-1.1,0.3-2.5,2.3-3c-1.3,5.5-0.5,10.7,1.4,15.7c2.5,6.6,5.1,13.1,10.5,18.1c3.3,3,4.9,3.4,8.8,1.2
		c1.2-0.7,2.4-1.2,3.6-1.8c10.3-5.5,16.4-14.2,19.7-25.1c0.6-2,0.7-3.9,0.4-6c-0.2-1.5-0.3-3.1,0.3-4.6c1.5,0.5,1.1,1.7,1.1,2.6
		c0,4.5-0.1,8.9-0.5,13.3c-0.6,5.5,1,10.9,1.9,16.3c1.3,7.6,3.1,15.1,6.7,21.9c1.6,3,3.8,5.6,6.3,8.1
		C903.4,285.3,905.8,287.8,909.1,289.9z"/>
	<path fill="#FFFFFF" d="M896.4,224.3c0.6,0.2,1.2,0.4,2.1,0.6c-2,1.6-4.3,2.6-5.4,5c4.3-1.6,7.9-4.2,11.7-7.9
		c4.9-0.7,10.6-1.4,16.1,0.2c2.4,0.7,4.8,0.7,7.3,0.5c-1.2,1.4-2.2,2.9-2.7,4.7c-0.1,0.1-0.2,0.2-0.2,0.2c-0.1,0.1,0,0,0.1-0.3
		c3.1-2.7,6.7-4.8,10.4-6.7c2.2-1.2,4.5-2.5,7.3-1.4c0.4,0.2,0.9,0,1.3-0.1c3.6-0.7,7-0.5,10.2,1.8c1,0.7,2.3,1.4,3.8,1.2l-0.1,0.1
		c-3-2.3-6.7-3.7-8.3-7.4c-2-4.7-5.4-8.6-7-13.5c-0.7-2.1-2.7-3.8-4.4-5.4c-4-3.5-8.2-6.6-12.7-9.3c-4.3,0.8-8.4,1.1-11.9-2.2
		c-1.4-1.3-3.4-0.9-5-1.5c0.1-1.7,1-2.7,2.3-3.6c0.8,0.6,1.6,1.1,2.5,1.8c1.4-0.3,2.8-0.5,3.6-2c-0.3,1.7-0.9,3.6,1.1,4.7
		c1.3,0.7,2.7,1.4,4.5,0.2c-1.5-1.3-3.7-0.4-4.4-2.3c-0.5-1.5,0.6-2.8,0.4-4.1c4.4-2.9,5-3.1,9-3.7c7.4,7.6,16.8,11.9,26.4,15.8
		c5,2.1,9,6,13.3,9.4c5.8,4.5,9.8,10.6,14.5,16.1c1.5,1.7,2.9,3.4,4.6,4.9c2.3,1.9,2.4,3,0.8,5.5c-0.8,1.2-1.7,2.4-2.8,3.3
		c-6.8,5.9-14,11.1-21.3,16.3c-8.9,6.4-19.5,8.1-30.1,9.2c-2.9,0.3-5.8,1-8.4,2.2c-1.2,0.6-2,0.4-2.9-0.1c-1.3,1.2-1.5,2.8-2,4.3
		c-0.9,2.9-1.6,5.8-2.5,8.7c-1.1,3.7-1.9,7.5-4.6,10.6c-1.7,2-2.3,4.8-3.2,7.3c-0.6,0.1-0.9-0.2-1.2-0.5
		c-13.5-12-12.7-12.1-17.8-31.3c-0.4-1.4-0.5-2.9-0.9-4.3c-1.5-5.1-2.3-10.2-1-15.5c0.2-1,1.5-0.7,2-1.5c-0.2-0.9-1.2-0.3-1.6-0.9
		c0-3.5,0-7,0-10.8C891.9,222.9,893.9,224.6,896.4,224.3z"/>
	<path fill="#FFFFFF" d="M790.7,193.8c-5.7,8.2-10.5,16.8-12.7,26.6c-0.8,3.5-4.2,4.7-6.6,6.9c-0.9,0.8-2,1.4-3.3,2.2
		c2.5,1.1,4-2.3,6.3-0.5c1-2.7,2.8-3.9,5.6-3.7c0.8,0.1,1.8-0.3,2.6-0.7c4.8-2.9,9-0.9,13.2,1.5c6.6,3.8,11,9.3,14,16.2
		c1.8,4.2,4.2,8.1,5.8,12.4c1,2.7,3,4.9,5.1,7.2c-1.2-6.5-13.4-29-18.3-33.9c7.6-4.3,15.6-5.6,24.4-3.2c1.2,2.5,5,3.2,6.3,6.5
		c1.8-2.2-0.5-3-1.4-4.6c1.6,0.5,2.9,0.1,4.1-0.8c-0.1,4.6-1.4,8.7-2.2,13c-0.9,4.5-1.9,9-1.7,13.6c0.2,5.4-1.1,10.6-2.7,15.7
		c-1.8,5.7-4.1,11.2-8.1,16.2c-0.4-1-0.7-1.7-1-2.5c-2.6-7.6-7.1-14.4-10.2-21.8c-1.3-3.1-4.8-3-7.6-3.4c-4.5-0.7-9.1-1-13.7-1.3
		c-16.2-0.8-29-8.3-40.1-19.4c-2.2-2.1-5.3-3-7.1-5.7c1.3-3.5,4-6.1,5.8-9.3c5.4-9.8,12.5-18.2,22.6-23.7
		c6.5-3.5,11.6-8.7,16.3-14.4c3.2-0.5,6.5,0.3,9.7-0.6c0-0.3,0-0.7,0-1c-3.4,0-6.7,0-10.1,0c-3.3,0-6.5-0.5-9.7-0.9
		c-1.8-0.2-3.3-0.7-3.7-2.8c0.9-1.3,2.6-1.1,3.5-0.5c3,1.9,6.3,1.4,9.4,1.6c4.8,0.3,9.6,0.1,14.4,0.7c1.4,0.2,2.8,0,4.1-1
		c1.9-1.5,4.3-1.5,5.4-0.2c1,1.2,0.7,2.5-1.5,5.1c-3-0.2-6-2.1-9.3-0.9c2.7,0.6,5.5,1,6.4,3.9c3.5-0.1,5.5-2.8,8.4-3.8
		c1.8-0.6,2.5-2.7,2.1-4.8c1.2,0.6,1.1,1.6,1.3,2.3c-0.6,2.2-4.3,2.6-2.5,6c-2.8-0.2-5,0.2-7,1.7c-1.4,1.1-3.4,1.5-5.1,0.8
		c-3.2-1.2-5.6,0.1-7.8,2.3c-0.9,0.9-1.9,1.9-3.2,2.4C790.8,193.4,790.7,193.5,790.7,193.8z"/>
	<path fill="#FFFFFF" d="M889.9,492.2c0.3,0.5,0.7,0.9,0.5,1.5c-0.9,4.1-0.3,4.9,3.8,5.6c-3.4-5.5-3.4-5.5,0.9-11
		c1.8-2.3,3.6-4.6,3.8-7.8c3.2-0.5,6.4-1,9.7-0.2c0,0.6,0.1,1.1,0,1.5c-2.2,6.2-1.3,12.1,0.6,18.4c3.6,12.1,5.6,24.6,5.9,37.3
		c0.1,4.8-0.9,9.6-1.7,14.3c-1.4,8.3-2.7,16.5-3.6,24.9c-0.2,1.4-0.4,3-1.1,4.2c-1.7,2.8-1.3,5.6-0.8,8.5c0.5,2.5,0.1,5.1,0.7,7.9
		c-5-1.5-9.8-1.6-15,0.8c1.4-5.6,1-10.4,3.1-14.9c0.9-1.9,0.5-4.1,0.3-6.9c-1.1,2.5,0.4,4.9-1.7,6.5c-1.7-5-1.5-10.4-3.4-15.3
		c-1.1-2.8-1.4-5.9-1.2-8.9c0.2-2.9-0.5-5.6-2.1-8c-5.5-8.4-4.6-17.8-3.9-27c0.4-5.2,0.5-10.5,0.9-15.7c0.1-0.8,0-1.6-0.2-2.3
		c-1.9-5.5-3.7-11-1.8-17c-3.8-1.4-3.4-4.7-4.4-7.7c6-1.7,11.8,0.7,17.9,0.1C894.8,484.9,892.8,488.9,889.9,492.2
		c-0.2,0-0.2-0.1-0.2-0.1C889.6,492,889.7,492,889.9,492.2z"/>
	<path fill="#FFFFFF" d="M848.4,166.5c0.6,0.4,0.9,0.6,1.3,0.8c1.7-2.3,5.9-3.3,8.6-1.6c2,1.3,3.2,0.9,5-0.2
		c1.9-1.1,4.1-1.3,6.4-0.8c1.2,0.3,1,1.1,1.2,1.6c1.1,0.2,0.9-0.7,1.4-0.9c0.2,0.1,0.5,0.3,0.5,0.4c-0.3,2,1.7,2.7,2.4,4.1
		c3.1,6.1,5.8,12.3,5.6,19.3c0,1.2-0.3,2.4-0.7,3.6c-0.9,3.3-1.5,6.7-2.2,10.1c-1,5.4-4.8,9.2-9.3,12.2c-0.9,0.6-2.2,0.4-3.3,0.3
		c-1.6-0.1-3.2-0.5-4.7-0.1c-2.1,0.6-3.9,0.3-5.6-1c-2.2-1.6-4-3.6-4.9-6.2c-1.2-4-2.7-7.8-5.4-11c-2.3-2.8-1-6.2-1.2-9.4
		c-0.3-5.4,2.4-10.4,2.5-15.7C846.3,169.9,848.7,168.8,848.4,166.5z"/>
	<path fill="#FFFFFF" d="M842.6,223c7.6-2.2,5.5-8.5,5.5-14c3.6,6.2,8.4,10,16.2,8c-0.4,2-1.5,3.2-1.4,4.5c-1.1,1.2-2.8,0.3-3.6,1.6
		c0.6,1.4,1.7,1.3,2.7,0.7c2.4-1.3,3.8-3.3,3.8-6.4c7.1,0.8,8.9-5.6,12.8-9.8c0.4,1.7,0.6,3.1,1,4.4c0.7,2.2,0.8,4.6,3,6
		c0.6,0.4,0.8,1.1,0.8,1.8c-0.1,4.8,0.1,9.5-2.2,14.1c-4.8,9.4-12.1,16.5-20,23.2c-2,1.7-3.6,1.4-5.7-0.2
		c-5.7-4.2-8.6-10.1-10.4-16.7C843.8,234.8,841.8,229.4,842.6,223z"/>
	<path fill="#FFFFFF" d="M826.6,618.9c4.1,0.4,8,0.8,12.1,1.2c-0.5-3.5-1.5-3.8-10.8-3.8c1.1-1.3,1.1-1.3,3.7-1.2
		c1.5,0.1,2.9,0.2,4.3,0.3c1.5,0.1,2.9,1.3,4.5,0.3c-1-2.1-1-2.1-5.5-3.4c2.3-0.6,2.3-0.6,6.9,1.1c-0.3-1.3-0.5-2.2-0.8-3.2
		c0.8-0.2,1.7,1,2.6,0.1c1-1.5-3.3-3.6-9.3-4.3c-1.4-1.6-0.4-3.4-0.3-5.4c3.3-0.6,6.5-0.1,9.6,0.1c1,2.2-0.4,4.3,0.6,6.3
		c1.4,0.8,3.3,0.6,4.5,1.9c1.1,1.2,2.4,1.9,3.5,2.1c3.8,4.5,4.2,9.9,6,15.2c-3.4,1.9-7,3.8-10.8,5.9c-0.1,1.5,0.9,3.4-0.6,5.5
		c-2.1,3-4.1,5-8.1,4.4c-5.9-0.9-11.7,1.4-17.7,1.2c-2.3-1.4-2.8-3.2-3.1-6c-0.4-4.1,1.2-6.8,3.5-9.6
		C823.7,624.9,823.9,621.4,826.6,618.9z"/>
	<path fill="#FFFFFF" d="M815,170.4c-1.8-1-3.3-0.6-4.8-0.7c0.2,1.5,1.7,0.9,2.1,1.8c2.2,7.7,2.2,7.7-0.2,10.3c0-3-1.6-5.1-3.4-7.4
		c-1.9,1.5-4.7,1.6-6.1,3.7c-3.3,0.6-6.3-0.5-9.4-0.5c5.2-4.3,11.5-5.9,17.2-8.9C811.9,168,813.9,167.6,815,170.4z"/>
	<path fill="#FFFFFF" d="M960.5,171c0.3,0,0.6,0.1,0.9,0.1c0.5-1.2-0.9-1.8-0.7-3.5c5.8,0.2,11.6-1,17.7-1.2c-0.1,2-1.4,2.3-2.3,2.4
		c-3.6,0.3-6.5,2.2-9.5,3.8c-1.9,1-3.8,1.9-5.8,0.5c-0.8,0.4-0.3,1.1-0.7,1.6c-1,0-1.4-0.7-2-1.4C959,172.3,960.3,172.1,960.5,171
		L960.5,171z"/>
	<path fill="#FFFFFF" d="M960.6,170.9c-4.1-0.2-7.7,1.7-11.4,3.1c-5.3,1.9-10.7,2-16.2,1.5c2.4-0.4,4.8-0.8,7.1-0.9
		c3.5,0,6.6-0.8,9.4-3.6c-2.7-2.9-6.4-0.5-10-1.8c3.9,0,7.1-1.1,10.5-0.6c2.9,0.4,5.7,1.8,8.8,0.9
		C959.7,169.3,960.1,170.3,960.6,170.9L960.6,170.9z"/>
	<path fill="#FFFFFF" d="M749.8,175.3c1-0.8,2.1-0.2,3.1-0.3c2.8-0.1,5.4,0.1,8.1-1.5c1.7-1,3.9-1.1,5.2,1.6
		c-0.8,1.1-1.6,2.4-0.8,3.9c-1.6,1-3.2,0.8-4.4,0c-2.7-1.9-5.7-2.2-8.9-2.5C751.3,176.5,750.1,176.7,749.8,175.3z"/>
	<path fill="#FFFFFF" d="M937.2,169.8c-1.7,0.9-3,1-4.3,1.2c-4.4,0.6-8.8,1.2-12.6,3.8c-1.7,1.2-3.8,1.2-5.8,0.1
		c-0.1-1.1-0.2-2.3-0.3-3.5c1.5-2.2,3.7-2.1,5.6-1c2.6,1.4,5.1,1.1,7.7,0.6C930.5,170.2,933.6,170,937.2,169.8z"/>
	<path fill="#FFFFFF" d="M981.2,164.9c1.7,1.5,3.3,1.1,4.5-0.5c0.9,0.4,0.7,1,0.8,1.6c-1.5,1-3.2,1.4-5.1,1.1
		c-1.7,3.4-4.6,4-8.7,3.6c2.4-0.5,4.2-0.6,5.7-1.6c1.1-0.7,1.8-1.4,1.4-2.7c-0.4-1.3-1.3-1.7-2.6-1.6c-3.2,0.2-6.4,0.9-9.6,0.9
		c-3.3-0.1-6.7-0.3-9.4,2.4c-0.1,0.1-0.6,0-1-0.1C959.4,164,973,162.3,981.2,164.9L981.2,164.9z"/>
	<path fill="#FFFFFF" d="M924.6,170.2c-3,0.2-4.9-2.2-7.6-2c-2.7,0.2-3.9,2.6-6.2,3.6c1.1-1.7,2.1-3.5,3.2-5.2
		c0.8-1.1,2-1.5,3.3-0.9C919.8,166.8,922.4,167.8,924.6,170.2z"/>
	<path fill="#FFFFFF" d="M929.6,173.4c5.8-1.5,11.2-2.5,16.8-2.4c-1.2,2.1-1.3,2.2-4.8,2.1c-2.1-0.1-3.9,0.8-6,0.6
		C933.8,173.5,931.9,174.8,929.6,173.4z"/>
	<path fill="#FFFFFF" d="M753.3,178.7c3.3-0.5,5.5,1.6,8.1,2.5c2.7,1,4.9-1.1,7.4-1.5C765.4,183.6,761.3,183.2,753.3,178.7z"/>
	<path fill="#FFFFFF" d="M747.8,177.3c-1.1,0.4-1.8,0-2.2-0.7c1-3.5,1.8-4.2,5.2-4.3c2.6,0,5.3,0,7.9,0.3c-2.4,0.8-4.8,0.8-7.2,0.7
		C748,173.2,747.2,173.9,747.8,177.3z"/>
	<path fill="#FFFFFF" d="M893.9,606.3c-1.1-2.3-0.4-4.2-0.3-6c0.8-0.9,1.7-0.7,2.5-0.7c1,0.9,0.6,2.2,1.2,3
		C896.1,603.9,895.2,604.9,893.9,606.3z"/>
	<path fill="#FFFFFF" d="M846.3,605.2c-0.3-1.1,0-1.9,0.3-2.6c1.3-0.6,2.6-0.1,3.9-0.2c1,1.6,0.6,3.3,1.1,5.3
		C849.8,606.2,848.2,605.4,846.3,605.2z"/>
	<path fill="#FFFFFF" d="M877.5,357.1c1.2-0.4,2.5-0.8,3.6,1.1c-3.6-0.3-6.9-0.6-10.2-0.9c0-0.2,0-0.5,0-0.7
		c2.2-0.3,4.4-0.8,6.4-1.5C878.3,355.8,877.2,356.4,877.5,357.1z"/>
	<path fill="#FFFFFF" d="M820.5,184.7c-2.6,1.4-2.6,1.4-5.1-0.8c0.5-1.1,1.2-2,2.7-1.6C819.4,182.6,820.7,182.9,820.5,184.7z"/>
	<path fill="#FFFFFF" d="M903.4,351.4c0.8,1.6,0.3,3,0.4,4.5c-0.9,0.7-1.9,0.1-2.9,0.6c-0.2-1.3-0.3-2.3-0.4-3.1
		c0.2-0.2,0.3-0.3,0.3-0.3c0.7,0.3,0.1,1.3,1,1.7C903.4,354.2,901.9,352.3,903.4,351.4z"/>
	<path fill="#FFFFFF" d="M790.5,177.1c-2.7,0.4-5.4,0.8-8.5,0.2C785,176.4,787.8,176.4,790.5,177.1z"/>
	<path fill="#FFFFFF" d="M818.9,181c-1.6-1.5-1.4-3.4-2.2-5.2C819.8,177.7,820.3,178.8,818.9,181z"/>
	<path fill="#FFFFFF" d="M841.4,193.4c-0.9-2.3-2.9-3.1-2.6-5.9C840.2,189.3,841.8,190.4,841.4,193.4z"/>
	<path fill="#FFFFFF" d="M842.1,355c0.2,0.7,0.4,1.4,0.6,2.2c-1.2,0.5-2.1-0.2-3-0.5c-0.2-0.9,0.1-1.5,0.8-2.1
		C841,354.8,841.6,354.9,842.1,355L842.1,355z"/>
	<path fill="#FFFFFF" d="M770,175.4c-3.2,0.6-1.8-2.4-3.2-2.8C768.6,172.6,769,173.9,770,175.4z"/>
	<path fill="#FFFFFF" d="M912.4,611.5c-2.2-0.6-1-3.1-2.5-4.1C912.1,609,912.1,609,912.4,611.5z"/>
	<path fill="#FFFFFF" d="M833.5,353.2c0.2,0.5,0.5,1,1.2,1c0.6,0,0.7,0.4,0.6,1.1c-1.3,0.8-2.2-0.4-3.6-0.8
		C832.5,354,833,353.6,833.5,353.2L833.5,353.2z"/>
	<path fill="#FFFFFF" d="M911.4,177c-1.6,0-2-1.3-2.6-2.4c0.4-0.4,0.8-0.7,1.6-1.5C910.4,174.8,910.9,175.9,911.4,177L911.4,177z"/>
	<path fill="#FFFFFF" d="M885.5,188.6c-1.1-0.9-1.6-1.9-0.4-3.2C886.1,186.4,885.6,187.5,885.5,188.6z"/>
	<path fill="#FFFFFF" d="M911.3,177.1c1.2,0.7,3.1-0.5,4.3,1.7C913.4,179.4,912.4,178.2,911.3,177.1L911.3,177.1z"/>
	<path fill="#FFFFFF" d="M890.2,353.9c1.8-0.9,3-0.6,4.4-0.7C893.4,354.5,892,353.9,890.2,353.9z"/>
	<path fill="#FFFFFF" d="M907.3,172.2c-0.1,1.7-0.9,2.7-0.1,4.6C905.2,174.6,905.2,174.6,907.3,172.2z"/>
	<path fill="#FFFFFF" d="M884.2,191.4c0.3,1.3-0.5,1.9-0.5,3C882.4,193,882.1,192,884.2,191.4z"/>
	<path fill="#FFFFFF" d="M891.9,624.9c-1.2-0.9-0.6-1.7-0.7-2.7C892.8,623,892.4,623.8,891.9,624.9z"/>
	<path fill="#FFFFFF" d="M767,177.4c1.1-0.5,2.1-0.5,3.2,0C769.1,178,768.1,177.9,767,177.4z"/>
	<path fill="#FFFFFF" d="M880.4,355.6c0.5-0.5,1-0.4,1.5-0.2C881.5,356.9,881,356.3,880.4,355.6z"/>
	<path fill="#FFFFFF" d="M861.7,357.7c0.7-0.8,1.2-1,1.9,0.1C862.9,358.6,862.4,358.5,861.7,357.7z"/>
	<path fill="#FFFFFF" d="M840.2,182.2c0.7,0.4,1.2,0.7,1.1,1.4C840.1,183.9,840.2,183.2,840.2,182.2z"/>
	<path fill="#FFFFFF" d="M908.4,177.5c0.8-0.2,1,0.2,1.5,0.6C909.2,178.4,908.7,178.5,908.4,177.5z"/>
	<path fill="#FFFFFF" d="M883.5,183.7c-0.4-0.8-0.3-1.2,0.5-1.4C884.7,182.9,884.4,183.3,883.5,183.7z"/>
	<path fill="#FFFFFF" d="M967.6,173.5c-0.7,1.2-1.1,1.5-1.7,1.4C965.9,174.1,966.6,174.2,967.6,173.5z"/>
	<path fill="#FFFFFF" d="M834.3,608.8c0.5-0.4,0.9-0.3,1.4,0C835.2,609.1,834.8,609.1,834.3,608.8z"/>
	<path d="M790.7,193.8c-0.4,0-0.8-0.2-0.6-0.7c0.1-0.2,0.4-0.3,0.7-0.5c0.1,0.3,0.2,0.5,0.3,0.8
		C790.9,193.5,790.8,193.6,790.7,193.8z"/>
	<path fill="#FFFFFF" d="M862.6,162.7c-0.7-0.4-0.9-0.9-0.6-1.2c0.5-0.6,0.7,0,0.7,0.4C862.8,162.1,862.7,162.3,862.6,162.7z"/>
	<path fill="#FFFFFF" d="M833.5,353.2c0.3-0.8-0.4-1.3-0.8-2C834.7,351.4,834,352.3,833.5,353.2L833.5,353.2z"/>
	<path fill="#FFFFFF" d="M886.3,354.7c-0.5,0.9-0.9,1.3-1.5,0.4C885.1,354.4,885.6,354.6,886.3,354.7z"/>
	<path fill="#FFFFFF" d="M854.8,358.8c-0.3,0.5-0.6,0.7-1,0.3c-0.1-0.1-0.1-0.5,0-0.5C854.3,358.1,854.5,358.5,854.8,358.8z"/>
	<path fill="#FFFFFF" d="M865.9,356.7c0.4-0.3,0.7-0.4,1.1-0.1C866.7,357.6,866.3,357.6,865.9,356.7z"/>
	<path fill="#FFFFFF" d="M892.4,356c-0.1,0.1-0.3,0.3-0.4,0.3c-0.4,0-0.6-0.3-0.4-0.6c0.1-0.1,0.4-0.3,0.5-0.2
		C892.2,355.5,892.3,355.8,892.4,356z"/>
	<path fill="#FFFFFF" d="M846,164.8c-0.7,0.6-1.1,0.4-1.5-0.2C845.1,164,845.6,164.1,846,164.8z"/>
	<path fill="#FFFFFF" d="M890.3,356c-0.1,0.1-0.3,0.3-0.4,0.3c-0.4,0-0.5-0.2-0.4-0.6c0.1-0.1,0.4-0.2,0.5-0.2
		C890.1,355.6,890.2,355.8,890.3,356z"/>
	<path fill="#FFFFFF" d="M898.8,355.7c-0.8-0.1-0.8-0.5-0.4-1C899,354.8,899.3,355.1,898.8,355.7z"/>
	<path fill="#FFFFFF" d="M867.7,161.1c0.3-0.8,0.6-0.8,1.1-0.6C868.7,161,868.4,161.2,867.7,161.1z"/>
	<path fill="#FFFFFF" d="M842.2,355.1c0.1-0.5-0.1-1.1,0.7-1.1c0.1,0,0.4,0.3,0.4,0.4C843.2,355.2,842.6,355.1,842.2,355.1
		L842.2,355.1z"/>
	<path fill="#FFFFFF" d="M451.8,357c-13.7,3.4-27.3,5.4-41.5,5.5c0.8-4.8,0.2-9.2,0.3-13.7c-0.3,4.4-1.4,8.7-1.1,13.7
		c-9.2-0.4-17.7-2.2-25.7-5.7c-3.8-7.1-5.3-14.4-5.5-22c0-2.1-0.6-4.2-1.2-6.2c-0.6-2-0.5-3.7,1.2-5.4c-0.9-0.4-1.3,0.7-2,0.2
		c-0.7-5-1.5-10.2-2.3-15.4c-0.2-1.5-0.8-3-1.3-4.5c-1.4-4.1-2.3-8.3,1.3-12c2.2-2.3,3.1-5.4,4.5-8.2c0.4-0.8,0.3-2.1,1.9-2
		c-0.1-1-0.8-2-0.4-3.1c4.5-12.5,4.9-25.8,6.8-38.8c0.3-2.3,1-4.6,1.5-6.9c0.2-0.7,0.7-1.4,1.9-1.5c-1.8,9.2,1.7,17.1,5.5,25
		c1.8,3.7,4.5,6.6,7.4,9.4c2.5,2.4,4.5,2.5,7.5,0.7c1.2-0.7,2.6-1.3,3.9-2c10.8-5.8,17.2-15,20.2-26.7c0.3-1.3,0.5-2.6,0.1-4
		c-0.2-0.8-0.2-1.8-0.2-2.7c0-0.8-0.3-1.7,0.3-2.6c1.4,0.5,1.2,1.7,1.3,2.8c0.1,4.6-0.5,9.1-0.5,13.6c-0.1,7.5,1.4,14.9,3.2,22.2
		c1.1,4.7,2.2,9.6,4.4,13.9c3.4,6.9,8.8,12.2,15.1,16.7c-2.8,3.4-3.1,7.6-3.6,11.7c-1,7-2.1,13.9-1.4,21c0.3,3-1.3,5.9-1.3,8.9
		C451.8,345,451.8,351,451.8,357z"/>
	<path fill="#FFFFFF" d="M440.3,501.5c2.4-4,6.2-7,8.1-11.4c0.2,0.2,0.5,0.3,0.7,0.4c-0.2-0.2-0.5-0.3-0.8-0.4
		c0.1-0.6,0.2-1.3,0.3-2c3.3-0.6,6.4-1.2,9.7-0.2c0.1,2.3-1,4.2-1.4,6.3c-0.6,3.8-0.1,7.3,1,10.9c4,13,6.3,26.3,6.6,39.9
		c0.2,6.3-1.4,12.4-2.3,18.6c-1,6.8-2,13.7-2.9,20.5c-0.1,0.7-0.1,1.4-0.4,2c-2.8,5.6-1.2,11.4-0.9,17.1c0,0.4,0.1,0.9,0.1,1.6
		c-4.9-1.2-9.6-1.7-14.2,0.6c-0.6-7.6,3.2-14,2.6-21c-1.2,1.6,0.3,3.7-1.1,5.5c-1.3-0.9-1.6-2.3-1.5-3.6c0.3-3.9-1.4-7.4-2.3-11.1
		c-0.7-2.7-1.3-5.4-1.1-8.3c0.2-3-0.4-5.9-2-8.4c-5.6-8.6-4.8-18.1-4.1-27.6c0.4-5.6,0.8-11.1,0.8-16.7c0-0.4,0.1-0.9-0.1-1.3
		c-2.1-5.4-3.5-10.8-1.7-16.6c-3.8-1.7-3.6-4.8-4.3-8c6.1-0.9,11.9,0.4,18.6,0c-2.9,4.2-5.4,7.7-7.8,11.2c-0.3-0.3-0.6-0.5-1.1-0.6
		c0.4,0.1,0.8,0.3,1.1,0.6C439.5,500.3,439.9,501,440.3,501.5c-0.2,0.8-0.4,1.5,0,2.2C439.9,503,440.1,502.3,440.3,501.5z"/>
	<path fill="#FFFFFF" d="M397.6,173.8c0.5,0.4,1,0.8,1.5,1.2c1.8-2.5,5.7-3.3,8.8-1.4c1.8,1.1,3.1,1,4.5-0.2
		c1.4-1.2,3.2-1.2,4.7-1.3c1.4-0.1,3.3,0.2,3.5,2.1c1.1,0,0.6-1,1.5-1.2c0,2,1.6,3.1,2.5,4.7c3.2,5.9,5.8,12,5.6,19
		c-0.1,4-2.4,7.5-2.4,11.4c-0.1,6.3-4,10.2-8.2,13.9c-1,0.9-2.1,1.4-3.3,1.3c-2.9-0.2-5.8,0.1-8.6-0.1c-3.9-0.2-6.4-3.5-7.7-7.1
		c-1.5-4.1-2.9-8.1-5.7-11.6c-2-2.5-0.7-5.8-0.9-8.8c-0.4-5.8,2.4-11,2.7-16.7c0.1-1.1,0.8-1.7,1.5-2.5
		C398.1,175.6,397.5,174.8,397.6,173.8z"/>
	<path fill="#FFFFFF" d="M392.1,230.8c3.8-1.6,6.3-4,5.5-8.5c-0.1-0.8-0.1-1.6-0.1-2.3c0-1.6,0-3.1,0-4.6c2.9,7.4,7.8,11.3,16.5,9.3
		c-0.8,2-1.4,3.5-1.9,5c-1,0.7-2.3,0.1-3.3,1c0.6,1.3,1.4,1.5,2.6,1c2.2-0.9,3.9-3.7,3.8-6.7c7.4,1.3,9.1-5.5,13-9.6
		c1,2.5,0.8,4.8,1.8,6.8c0.6,1.3,0.7,2.8,2.2,3.5c0.6,0.3,0.8,1,0.8,1.8c0,5.1,0.1,10.2-2.5,15c-4.9,9.1-12.1,16-19.8,22.6
		c-1.6,1.4-3.3,1.4-5.2,0c-4.6-3.3-7.6-7.8-9.3-13C393.9,245.2,391.3,238.5,392.1,230.8z"/>
	<path fill="#FFFFFF" d="M376.1,626.7c4.2,0,8.2,1.4,12.7,0.8c-1.8-2.9-1.8-2.9-11.4-4c4.1-1.8,8.3,0.6,12.8,0.2
		c-1.1-3.3-3.9-2.8-6.6-3.7c2.9-1,5-0.1,6.8,1.1c1.8-1,0.5-2,0.3-2.9c0.8-0.7,1.7,0.8,2.8-0.5c-2.3-3.4-6.3-3.3-9.8-4.3
		c-0.7-1.6-0.5-3.3,0.2-5.4c3.2-0.1,6.5-0.3,9.6,0.4c0.8,2.2-0.9,4.2,0.5,6.4c3.3-0.2,5.2,3.2,8,3.9c3.9,4.3,3.9,9.9,6,15
		c-3.5,1.9-7,3.8-10.8,5.9c-0.2,1.5,0.8,3.5-0.6,5.6c-2,2.8-3.7,5.1-7.8,4.4c-5.2-1-10.4,1-15.6,1.1c-4.1,0.1-5-1.5-5.4-5.6
		c-0.4-4.2,1-7.3,3.6-10.2C373.3,632.5,373.4,629,376.1,626.7z"/>
	<path fill="#FFFFFF" d="M471.3,643.4c-2.7,2.7-5.7,3.4-9.1,3.3c-3.8-0.1-7.7-0.6-11.3,1.7c-1.7,1.1-4.4,0.1-6.4-0.5
		c-2.3-4.3-0.4-8.7-0.7-12.9c-0.2-1.8-0.4-3.4-1-5.2c-1.2-3.3-1.8-6.8-0.4-10.4c0.8-1.9,2.7-2.4,3.7-4.1c1.6-2.6,3.1-4.9,1.8-8.5
		c3.2,0.2,6,0.2,8.6,1.1c0.9,1.4,1.1,2.8,1.2,4.5c-3.2-0.7-6.2-0.5-9,1.2c-0.9,0.6-1.8,1.3-1.6,2.9c2.9-0.7,5.7-2,8.7-1.4
		c-3,1.1-6.9,0.5-8.7,4.1c0.8,1,1.6,0.1,2.6,0.3c-0.2,1.1-1.9,2.1-0.9,3.5c0.7,1,1.4-0.4,2.1-0.2c0,0.6-0.1,1.1-0.1,1.5
		c0.8,0.9,10.8-0.2,12.3-1.1C468.7,628.8,468,636.8,471.3,643.4z"/>
	<path fill="#FFFFFF" d="M395.6,612.9c-0.2-1.1,0.2-1.9,0.6-2.8c1.3-0.4,2.5,0,3.7,0c1.1,1.6,0.7,3,0.8,4.7
		C398.9,614,397.4,613,395.6,612.9z"/>
	<path fill="#FFFFFF" d="M443.4,614c-1.4-2.1-0.1-4.2-0.4-6c1-0.8,1.8-0.9,2.7-0.5c0.6,1,0.7,2.1,0.6,3.2
		C445.4,611.8,444.5,612.8,443.4,614z"/>
	<path fill="#FFFFFF" d="M430.2,365.9c-3.3-0.3-6.5-0.7-9.7-1c2-1.1,4.1-1.1,5.8-1.8c1.2,0.2,0.5,0.9,0.8,1.4
		C427.9,365.1,429.7,363.7,430.2,365.9z"/>
	<path fill="#FFFFFF" d="M451.6,362.5c0.7-0.9-0.2-2.3,1.2-3.2c0.6,1.5,0.3,2.8,0.3,4c-0.7,1-1.6,0.2-2.2,0.9
		c-0.8-0.9-1.1-1.8-0.9-2.9C451.2,360.8,450.6,362.5,451.6,362.5z"/>
	<path fill="#FFFFFF" d="M391.6,363c0.1,0.6,0.6,1.2,0.1,1.9c-1,0.4-1.9-0.1-2.8-0.6c0.2-1.7,0.8-2.6,2.5-1.4L391.6,363z"/>
	<path fill="#FFFFFF" d="M390.9,200.8c-1-1.7-3-2.8-2.3-5C389.2,197.4,391.6,198.2,390.9,200.8z"/>
	<path fill="#FFFFFF" d="M459.3,614.8c1,1.2,3.2,2,2.1,4.6C460.6,617.6,459.9,616.2,459.3,614.8z"/>
	<path fill="#FFFFFF" d="M384.7,362.6c-1.2,0.8-2.3,0.5-3.2-0.4C382.8,360.5,383.7,362.1,384.7,362.6z"/>
	<path fill="#FFFFFF" d="M432.7,201.8c-1.3-2.1,0.3-2.6,1.7-3.6C433.9,199.6,433.9,200.9,432.7,201.8z"/>
	<path fill="#FFFFFF" d="M434.6,193.2c0.7,1.1,0.5,2.1,0.4,3.2C433.9,195.4,433.2,194.5,434.6,193.2z"/>
	<path fill="#FFFFFF" d="M441.3,632.6c-1.1-1-0.8-1.8-0.5-2.5C441.6,629.8,441.7,630.2,441.3,632.6z"/>
	<path fill="#FFFFFF" d="M412.3,366.4c-0.9-0.4-1-0.9-0.9-1.5C412.8,365,412.8,365,412.3,366.4z"/>
	<path fill="#FFFFFF" d="M393.7,172.2c0.8-0.7,1.3-0.4,1.8,0.4C394.8,173.1,394.2,173.1,393.7,172.2z"/>
	<path fill="#FFFFFF" d="M434,362.9c0.5-0.5,0.9-0.8,1.6-0.5C435.6,363.4,435.2,363.7,434,362.9z"/>
	<path fill="#FFFFFF" d="M416.8,364.4c-0.7,0.9-1.2,0.8-1.7,0.3C415.5,363.7,416.1,363.9,416.8,364.4z"/>
	<path fill="#FFFFFF" d="M389.4,190c1.3,0.1,1.2,0.8,1.5,1.6C389.6,191.5,389.6,190.8,389.4,190z"/>
	<path fill="#FFFFFF" d="M440.7,361.3c0.6-0.1,1.2-0.5,1.7,0.2c-0.6,0.7-1.2-0.1-1.6,0.2C440.4,361.4,440.4,361.3,440.7,361.3z"/>
	<path fill="#FFFFFF" d="M391.6,363l-0.1-0.1c0-0.6,0.2-1.1,1-1C392.8,362.8,392.3,363,391.6,363z"/>
	<path fill="#FFFFFF" d="M448,362.4c0.6,0.3,0.8,0.6,0.3,1.2C447.5,363.4,447.7,362.9,448,362.4z"/>
	<path fill="#FFFFFF" d="M386.4,360.7c-0.2,0.1-0.3,0.3-0.5,0.3c-0.4,0-0.5-0.2-0.3-0.6c0.1-0.1,0.4-0.3,0.5-0.2
		C386.2,360.2,386.3,360.5,386.4,360.7z"/>
	<path fill="#FFFFFF" d="M367.1,289.9c0.8,0.4,1.1,1.2,1.4,1.9l0.1-0.1C367.6,291.5,367.1,290.9,367.1,289.9
		C367.2,289.9,367.1,289.9,367.1,289.9z"/>
	<path fill="#FFFFFF" d="M368.5,291.9c0.3,0.4,0.7,0.8,1.1,1.3C368.6,293.1,368.5,292.5,368.5,291.9L368.5,291.9z"/>
	<path fill="#FFFFFF" d="M382.9,616.7c0.4,0,0.7,0.1,1,0.1c0,0.1-0.1,0.2-0.1,0.2C383.4,616.9,383.1,617.1,382.9,616.7z"/>
	<path fill="#FFFFFF" d="M437.5,364.1c-0.2,0.1-0.3,0.3-0.5,0.3c-0.4,0-0.6-0.3-0.3-0.6c0.1-0.1,0.4-0.3,0.6-0.2
		C437.3,363.6,437.4,363.9,437.5,364.1z"/>
	<path fill="#FFFFFF" d="M446.2,363.3c-0.1,0.1-0.2,0.3-0.3,0.4c-0.1-0.1-0.2-0.3-0.3-0.4c0,0,0.1-0.2,0.1-0.2
		C446,362.9,446.1,363,446.2,363.3z"/>
	<path fill="#FFFFFF" d="M244.8,179c0.5,0.8,1.4,0.7,2.1,0.6c1.4-0.3,2.1,0.2,2.7,1.9c-2.2-1.4-4.2-1.2-6.3-0.8
		c-2.3,0.4-4.5,0-6.7-0.9c-4.1-1.7-8.6-2.1-12.9-2.8c-2-0.4-4,0.2-5.7,1.4c-0.3-0.3,0.1,0.2-0.2-0.2c0-0.1,0,0,0.2,0.1
		c0.2,1.4,1.4,1.8,2.4,2c5.3,1,10.3,3,15.4,4.5c2.8,0.8,5.5,0.2,8.3,0.4c1.7,0.1,2.9,0.8,3,2.5c0.1,1.7-0.9,2.9-2.6,3.5
		c-1.2,0.4-2.4-0.1-3-1c-2.5-3.9-6.7-4.5-10.6-5.7c-4.3-1.3-8.6-2.2-12.9-3.4c-1.9-0.5-3.9-0.9-4.9-3c-0.6-1.2-2.4-0.6-3-1.8
		c1.3-1,2.8-1.1,4.4-0.5c0.9,0.3,2,0.3,3,0.3c7.4-0.3,14.6,0.8,21.7,3.2C241,179.6,243,179.3,244.8,179L244.8,179z"/>
	<path fill="#FFFFFF" d="M239.7,182.4c2.1-1,4.8-0.2,7.2-1.2c1.5,1.7,2.9,3.3,4.3,4.8c0.1,0.9-0.3,1.4-1.3,1.6
		c-0.7-3.4-3.5-4.3-6.3-3.7c-4.1,0.7-7.7-0.4-11.4-1.5c-4-1.2-8-2.7-12.1-3.9C226.7,179,233.4,179,239.7,182.4z"/>
	<path fill="#FFFFFF" d="M195.9,173.2c0-1.2,0.3-2.1,1.2-2.1c3.8,0.2,7.8-0.7,11.6,1.4c-0.7,1.4-2.5,2.6-0.1,4.3
		C203,178.4,199.6,175.3,195.9,173.2z"/>
	<path fill="#FFFFFF" d="M244.8,179.1c0.1-0.9,1.4-1.1,1.4-2.1l-0.1,0.1c1.5,1.3,3-0.3,4.9,0.2c1.5,2.4,4.1,4.6,4,8.2
		c-2.5-1.9-4.1-4.4-5.8-6.7C247.5,178,246.2,179.4,244.8,179.1L244.8,179.1z"/>
	<path fill="#FFFFFF" d="M202.6,178.5c2.7-0.2,5,0.9,6.9-1.1C208.5,180.1,207.2,180.2,202.6,178.5z"/>
	<path fill="#FFFFFF" d="M207.9,170c-2-0.6-4.1-0.3-6.1-0.7C203.9,169.1,206,168.5,207.9,170z"/>
	<path fill="#FFFFFF" d="M194.5,171.7c-0.2-0.6-0.2-1.3,0.4-2.3C194.9,170.5,195.1,171.2,194.5,171.7L194.5,171.7z"/>
	<path fill="#FFFFFF" d="M589.5,168.3c3.4,0.8,6.2-1.1,9.3-1.9c5-1.3,9.8-2.9,15.1-2.8c1.4,0,2.5,0.3,2.9,1.6
		c0.5,1.5-0.5,2.3-1.6,2.9c-4.6,2.6-9.8,3-14.8,4c-4.8,1-9.5,2.6-12.9,6.7c-1.5,0.1-2.9-1-4.3-0.7c-1.5-3-1-4,1.9-4.5
		c8.3-1.5,16.8-2.7,24.6-6.1c1-0.4,2.2-0.4,2.8-1.7c-2.2-0.8-4.2-0.6-6.4,0c-4.9,1.5-9.9,2.8-14.8,4.2
		C590.4,169.8,589.7,169.3,589.5,168.3L589.5,168.3z"/>
	<path fill="#FFFFFF" d="M576,169.1c1-1.4,2.1-2.7,3.1-4.1c1.8,0.9-0.3,1.9,0.8,2.7C578.5,168.5,577.1,168.5,576,169.1z"/>
	<path fill="#FFFFFF" d="M618,163.7c1.6,0.8,1.8,1.5,0.5,2.5C617.7,165.5,617.6,164.8,618,163.7z"/>
	<path fill="#FFFFFF" d="M588.2,167.9c-0.8,0.5-1.3,0.3-1.8,0.2C586.9,167.6,587.2,166.5,588.2,167.9z"/>
	<path fill="#FFFFFF" d="M583.7,168.8c-1,0.5-2,0.1-3.3,0.1C581.7,167.8,582.7,168.4,583.7,168.8L583.7,168.8z"/>
	<path fill="#FFFFFF" d="M582.9,165.9C582.5,165.9,582.7,165.9,582.9,165.9C582.7,165.9,582.5,166,582.9,165.9z"/>
	<path fill="#FFFFFF" d="M644.6,155.5c-1.3,1-3,1.4-4.5,2c-2.3,0.9-4.4,1.8-6.2,3.6c-1.6,1.6-3.8,2.7-6.6,2.2c0-1.4-0.3-2.7-1.7-3.8
		C631.6,155,638.3,156.3,644.6,155.5L644.6,155.5z"/>
	<path fill="#FFFFFF" d="M648.2,154.7c-1.5-1.1-2.4,0.7-3.6,0.9l0.1,0.1c-0.1-1.2-0.8-1.4-1.8-1.1c-2,0.4-4.1,0.4-6.9,0.1
		c4.8-0.7,9-1.3,13.1-1.8C649.3,153.7,647.9,153.8,648.2,154.7L648.2,154.7z"/>
	<path fill="#FFFFFF" d="M633.8,163.1c3.2-3.3,7.4-4.2,11.4-5.6C641.4,159.3,637.7,161.5,633.8,163.1z"/>
	<path fill="#FFFFFF" d="M623.1,161.4c1.4-4.6,2.4-5.4,6.2-5.5C626,156.4,625.4,159.8,623.1,161.4z"/>
	<path fill="#FFFFFF" d="M629.3,165.3c-1.8,0.6-3.4,0.5-5.8-0.3C626.1,163.9,627.7,165.7,629.3,165.3z"/>
	<path fill="#FFFFFF" d="M653.9,154.6c-1.2,0.3-2.3,0.7-3.4-0.3C652.3,153.4,652.3,153.4,653.9,154.6z"/>
	<path fill="#FFFFFF" d="M648.2,154.7c0,0.5,1,1.1-0.2,1.4C647.2,155.5,648.2,155.2,648.2,154.7L648.2,154.7z"/>
	<path fill="#FFFFFF" d="M382.5,484.4c-1.5-0.2-2.3-1-2.3-2.4c0-1.4,1-2.2,2.4-2.1c1.2,0.1,2,0.9,2,2.2
		C384.7,483.5,383.9,484.2,382.5,484.4z"/>
	<path fill="#FFFFFF" d="M393.1,482.9c-1.9,0.4-1.9,0.4-2.4,2c-1.8-0.1-2.2-1.2-2-2.7c0.1-1,0.9-1.6,1.9-1.6
		C392.2,480.5,393.1,481.2,393.1,482.9z"/>
	<path fill="#FFFFFF" d="M373.4,479.9c1.2-1.1,2-0.4,3-0.1C375.1,481.4,375.1,481.4,373.4,479.9z"/>
	<path d="M836.3,476.2c-3.3,2.8-5.8,3-7.5,0.8c-1.4-1.7-1.1-4,0.6-5.3c2.2-1.7,4.7-0.9,7,2.3c1.5-2.1,3.5-3.2,6-2
		c3.2,1.6,1.8,4.3,1.6,6.8C841,479.3,838.1,480,836.3,476.2z"/>
	<path d="M869.1,419.6c0-0.5,0.2-0.9,0.8-0.9c4.6,0.7,9.2-0.3,13.7,0c8,0.5,14.2,4.2,19.2,10.2c0.5,0.6,0.8,1.3,0.7,2.5
		c-1.4-1.1-2.9-2-4.2-3.2c-3.6-3.3-8.1-5.1-12.3-7.4c-1-0.5-2-0.4-2.9-0.4c-3.6,0-7.2,0-10.8,0C871.8,420.4,870.4,420.1,869.1,419.6
		L869.1,419.6z"/>
	<path d="M869.5,416.8c-1.5-18.3-3.7-36.6-1.9-55C866.2,380.2,870.2,398.4,869.5,416.8z"/>
	<path d="M837.1,378c2.9-4.9,5.2-9.8,4.4-15.9c2.4,1.4,3.3,3.1,2.9,6.4C843.8,372.9,840.9,375.8,837.1,378z"/>
	<path d="M850.6,457.2c2.9-9.5,7.1-18.3,12.9-26.3c0.4,0.2,0.8,0.4,1.2,0.6C859.7,439.9,854.8,448.4,850.6,457.2z"/>
	<path d="M852.3,361.1c1.8,0.7,1.3,2.1,0.9,3.4c-0.9,2.7-2,5.4-2.9,8.1c-1,3.1-1.4,6.2-2.2,9.4C847.6,374.6,848.8,367.6,852.3,361.1
		L852.3,361.1z"/>
	<path d="M882.9,468.1c0.1-5.8-1.7-11.3-1.9-17c-0.1-3.3-1.1-6.4-3.3-9c1.1-0.8,1.5,0.2,2,0.7c1.3,1.4,2.1,3.1,2.3,5.1
		c0.6,5.9,1.2,11.8,1.7,17.7c0.1,0.9-0.1,1.8-0.1,2.6C883.4,468.2,883.1,468.1,882.9,468.1z"/>
	<path d="M900,386.5c-3-3.3-5.8-6.3-9-9.9c2.1,0.2,2.7,1.6,3.7,2.3c5.2,4.1,7.3,9.1,5.3,15.6c-0.8,2.5-0.3,5.3-1.6,7.8
		C898.1,397.1,899.1,391.9,900,386.5z"/>
	<path d="M827,477.7c-2.1,0.2-2-2-3.1-2.2c-1.6,0-0.7,2-2.5,1.8c-0.7-2.2-0.3-4.5,0.1-6.8c1.3-0.8,2.5-0.4,3.7-0.1
		c2.1,0.4,3.2,2.1,1.9,3.5C826,475.3,826.9,476.3,827,477.7z"/>
	<path d="M884.2,376c1.6-2.6,1.7-5.3,1.7-8.1c0-2.8,0-5.5,0-8.2C888.9,362.6,887.8,374.6,884.2,376z"/>
	<path d="M832.9,371.6c-0.3,2.6-1.3,4.5-1.9,6.5c-0.6,2-1.1,4.1-0.9,6.8C827.9,379.3,829,373.9,832.9,371.6z"/>
	<path d="M835.3,410.7c3-6,6.6-11.5,10.4-16.9c-2.9,6-6.1,11.9-10.1,17.3c-0.2,0.1-0.4,0.2-0.6,0.3
		C835.1,411.1,835.2,410.9,835.3,410.7z"/>
	<path d="M864.9,457.5c0.7-3.5,1.4-7,2.1-10.5c0.8,3.7-0.5,7.1-1.3,10.6C865.5,457.6,865.2,457.6,864.9,457.5z"/>
	<path d="M826.5,368.1c-1.1-2.5,0.7-3.5,1-5c1.2,0,1.5,0.7,1.9,1.7C828.5,365.7,827.7,366.7,826.5,368.1z"/>
	<path d="M875.7,369.1c-0.4-2.1-1.4-4.4,0.3-6.4C876.9,364.8,876.7,367,875.7,369.1z"/>
	<path d="M880.3,431c-2-0.8-4.5-0.4-6.3-3.3C877.1,427.7,878.6,429.6,880.3,431z"/>
	<path d="M870,369.7c-0.3-1.5-0.5-3.1,0.4-4.6C871.4,366.6,870.5,368.2,870,369.7z"/>
	<path d="M888.8,365.1c-0.1-1.9,0-3.4,0.6-5.1C890.2,362.3,890.2,362.3,888.8,365.1z"/>
	<path d="M889.5,404.3c-0.8,1.5,0.8,3,0,4.7C888.5,407.3,888.1,405.8,889.5,404.3z"/>
	<path d="M865.1,374.7c0-0.7,0-1.5,0-2.2C865.6,373.3,865.5,374,865.1,374.7L865.1,374.7z"/>
	<path d="M835.6,411c-0.1,0.6-0.5,1.1-1.1,1.4c-0.1-0.9,0.3-1.3,0.8-1.8C835.4,410.8,835.5,410.9,835.6,411z"/>
	<path d="M902.1,371.1c0-0.3,0-0.6,0-1C902.7,370.3,902.5,370.7,902.1,371.1z"/>
	<path d="M845.7,326.9c-2,7.6-3.6,15.4-8.2,22.1C839,341.1,843.1,334.3,845.7,326.9z"/>
	<path d="M898.6,347.4c-3.4-1.2-8.2-10.3-10.2-18.6C892.5,334.7,894.5,341.2,898.6,347.4z"/>
	<path d="M900.5,333.8c-4.1-5.7-6.7-12.1-9.6-18.5C894.8,321.2,898.2,327.2,900.5,333.8z"/>
	<path d="M835.3,311.2c-1.4,3.9-2.3,8.4-5,12.1c1.2-4.4,2.3-8.7,4.5-12.7C835,310.3,835.2,310.4,835.3,311.2z"/>
	<path d="M858.1,273.5c2.7,0.5,4.3,1.4,6.5,2.8C861.8,276.3,859.8,276.1,858.1,273.5z"/>
	<path d="M888.5,273.9c1,1.4,2,2.7,2.2,5.1C889.2,277.2,888.8,275.6,888.5,273.9L888.5,273.9z"/>
	<path d="M837.2,276.4c1.1-1.2,1.7-0.8,2.3-0.4C838.9,276.9,838.3,276.6,837.2,276.4z"/>
	<path d="M888.5,273.9c-0.3-0.5-0.6-1.1-0.9-1.6C888.5,272.6,888.5,273.2,888.5,273.9L888.5,273.9z"/>
	<path d="M885.6,302.2c0,0.4,0,0.7,0,1.1C885.3,302.9,885.2,302.6,885.6,302.2z"/>
	<path d="M896.7,270.2c4.5-3,7.5-7.5,11.4-11.1c1.2-1.1,2.1-2.3,2.6-3.8c0.9-2.7,2.4-5.1,4.7-6.8c3.5-2.5,4.6-6.1,5.3-9.9
		c0.3-1.7,0.1-3.8,1.7-5.1c1.4,0.7,1,1.8,0.8,2.7c-1.5,5.9-3.2,11.6-7.8,16c-4,3.8-5.9,9.2-10.1,12.8c-1.8,1.5-3.3,3.3-5.3,4.6
		C899.1,270.1,898.2,270.8,896.7,270.2z"/>
	<path d="M932.2,247.9c-4,1.8-8-0.2-12.6,1.1c1.5-3.5,3.9-3.4,6.1-3.5C928.2,245.5,929.5,248.4,932.2,247.9z"/>
	<path d="M953.8,226.2c-1.8,5-5.4,8-10.7,9C946.6,232.1,950.8,229.9,953.8,226.2z"/>
	<path d="M929.8,186.7c-1.6-0.3-3.2-0.5-4.3-2.1C927.7,183.9,928.8,185.4,929.8,186.7z"/>
	<path d="M926,181c0.2,1.4-0.3,2.3-1.8,2.8C923.9,182.1,925.1,181.6,926,181z"/>
	<path d="M976.2,210.6c0.3,1.4,0.3,2.7,0,4C976.2,213.3,976.2,212,976.2,210.6z"/>
	<path d="M941.9,235.8c-0.7,1.3-1.6,1.4-2.8,0.8C939.9,235.4,940.7,235,941.9,235.8z"/>
	<path d="M925.4,227.4c0.4,1.3-0.4,1.9-1.7,2.7C923.8,228.5,924.2,227.7,925.4,227.4L925.4,227.4z"/>
	<path d="M907.7,222.9c-1.3,0.6-2,1.1-3,0.5C905.4,222.4,906.2,222.4,907.7,222.9z"/>
	<path d="M904.7,268.1c0.7,0.8,0.1,1.1-0.7,1.6C903.8,268.9,903.7,268.4,904.7,268.1z"/>
	<path d="M922.4,255c-1.3-0.2-1.1-1.1-0.9-2c0.8-0.3,0.9,0.4,1.2,0.8C922.9,254.2,923,254.7,922.4,255z"/>
	<path d="M932.6,188.3c-1,0.2-1.4,0-1.7-0.9C931.8,187,932.2,187.4,932.6,188.3z"/>
	<path d="M941,248c0.6-0.6,1.1-0.5,1.9,0C942.2,248.6,941.6,248.9,941,248z"/>
	<path d="M937.7,247.9c-0.5,0.7-1.2,0.7-2,0.4c-0.2-0.9,0.5-0.8,0.9-0.9C937,247.3,937.5,247.4,937.7,247.9z"/>
	<path d="M901.5,275.6c-0.1-0.1-0.4-0.2-0.4-0.4c-0.1-0.4,0.2-0.6,0.5-0.6c0.1,0,0.4,0.2,0.4,0.4C902,275.2,901.9,275.5,901.5,275.6
		z"/>
	<path d="M958.3,222.1c0.5,0.1,1,0.2,1.9,0.3C959.2,222.9,958.8,222.3,958.3,222.1L958.3,222.1z"/>
	<path d="M930.8,239.8c-0.1-0.2-0.4-0.3-0.4-0.5c0-0.4,0.4-0.4,0.7-0.3c0.1,0.1,0.3,0.4,0.2,0.5C931.2,239.7,931,239.7,930.8,239.8z
		"/>
	<path d="M935.6,238.3c-0.3,0.9-0.8,0.8-1.6,0.4C934.4,238,934.8,237.6,935.6,238.3z"/>
	<path d="M918.6,253.8c-0.5-0.3-0.7-0.8-0.8-1.4c0.9-0.3,1,0.4,1.2,1c0.1,0.2,0.1,0.4,0.2,0.6C918.9,254,918.8,253.9,918.6,253.8z"
		/>
	<path d="M919,253.5c0.5,0.4,0.9,0.9,1,2c-0.9-0.3-1.3-0.8-1.4-1.6C918.7,253.7,918.8,253.6,919,253.5z"/>
	<path d="M922.2,232.4c-0.1-0.7,0.2-1,0.8-1.2C923.7,232.2,923.3,232.6,922.2,232.4z"/>
	<path d="M784.7,243.9c7.1,0.5,14.1-0.1,21.6-1.5c-2.2,2.3-7.2,3.8-10.8,2.9C791.9,244.5,788,247.2,784.7,243.9z"/>
	<path d="M807.4,251.1c4.6-0.1,5,0.1,6.8,3.4C811.8,252.9,809.2,253.4,807.4,251.1z"/>
	<path d="M789.9,189.9c1.3-2.3,3.5-3.7,5.6-5.2C794.9,187.7,792.4,188.8,789.9,189.9L789.9,189.9z"/>
	<path d="M803.9,181.9c0.4-2.3,1.1-3.4,2.5-3.1c1.3,0.2,2.1,1.2,1.5,2.9C806.7,182.1,805.6,180.6,803.9,181.9z"/>
	<path d="M798.9,187.5c-1.2,0.1-2.1-1.1-3.2,0.1c0.7-1.2,0.5-2.4,0.9-3.5C798.3,184.7,798.5,186.1,798.9,187.5z"/>
	<path d="M817.1,225.5c2.2-1.1,4.7-0.8,7.1,0C821.8,225.5,819.5,225.5,817.1,225.5z"/>
	<path d="M781.9,243.7c-2.1-0.2-3.5-1.7-5.2-2.8c0.1-0.2,0.2-0.4,0.3-0.6c1.7,0.9,3.4,1.8,5.1,2.7
		C782.1,243.3,782,243.5,781.9,243.7z"/>
	<path d="M798.4,250.3c0.7-1.2,1.9-0.6,2.9-0.6c0.3,0.7-0.4,0.5-0.6,0.6c-0.3,0.2-0.6,0.2-1,0.3C799.3,250.8,798.9,251,798.4,250.3z
		"/>
	<path d="M766.4,246c-1.4,0.4-2.9,0.8-4.6-0.1C763.5,245.4,764.9,245.7,766.4,246z"/>
	<path d="M789.8,189.8c-0.5,1.2-1.4,1.7-2.6,2.1C787.9,190.9,788.2,189.6,789.8,189.8L789.8,189.8z"/>
	<path d="M756.7,230.9c-1,1.1-1.8,1.6-3.3,1.8C754.3,231.3,755.2,231,756.7,230.9z"/>
	<path d="M823.6,266.6c-1-0.3-1.3-1-1.4-1.8c0.7-0.5,1,0,1.3,0.4C823.7,265.6,824.1,266,823.6,266.6z"/>
	<path d="M796.2,250.6c-1.8,0.6-2.9,0.8-4.3-0.1C793.4,249.8,794.6,249.9,796.2,250.6z"/>
	<path d="M778.4,199.8c0.4-1.3,0.9-1.7,2-2.4C779.9,198.5,779.4,199.1,778.4,199.8z"/>
	<path d="M783.9,194.7c-0.3,1-0.8,1.4-1.8,1.7C782.4,195.4,782.9,195,783.9,194.7z"/>
	<path d="M805.8,252.9c-0.3,1.1-0.7,1.7-1.8,1.7C804.1,253.6,804.3,253,805.8,252.9z"/>
	<path d="M767.3,230.1c0.1,1.1-0.6,1.1-1.1,1.5C765.9,230.2,766.6,230.2,767.3,230.1z"/>
	<path d="M761.2,229.1c0.1-0.9,0.5-1.1,1.3-0.7C762.3,229.1,762,229.5,761.2,229.1z"/>
	<path d="M773.4,232.7c-0.5,0-0.8-0.3-0.8-0.6c0-0.4,0.4-0.5,0.7-0.4C773.6,231.8,773.6,232.2,773.4,232.7z"/>
	<path d="M826.4,269.6c-1.2,0.3-1.3-0.3-1.6-0.9C825.8,268.2,826.1,268.8,826.4,269.6z"/>
	<path d="M900.8,489.7c3.3,5,3.2,8.4-0.4,11.8C900.7,497.2,901.5,493.5,900.8,489.7z"/>
	<path d="M889.9,492.2c-2.2,0.2-3.8-0.6-4.8-2.8C888.5,489.2,889.3,489.6,889.9,492.2L889.9,492.2z"/>
	<path d="M893.6,524.9c-1-2.2-1.6-3.9-0.7-5.8C894.8,520.3,895,521.2,893.6,524.9z"/>
	<path d="M902.7,515.9c-0.3-3.1-0.5-5.5,0.6-8.1C904.6,510.5,904.5,512.4,902.7,515.9z"/>
	<path d="M906.8,565.1c1.6,2.3,1.3,4.2,0.9,6.8C906.5,569.5,906.5,567.6,906.8,565.1z"/>
	<path d="M910.8,514.2c-1.7-1.8-1.5-4.2-2.5-6.2C910.3,509.6,910.5,511.9,910.8,514.2L910.8,514.2z"/>
	<path d="M892.6,517.7c-0.8-1.2-1.5-2.5-1.5-4.3C893.4,514.7,892.5,516.4,892.6,517.7z"/>
	<path d="M902.3,517.1c0,1.5-0.1,3-1.5,4.3C900.6,519.5,901.2,518.2,902.3,517.1z"/>
	<path d="M899.7,482.5c1.3,0.7,1.6,2.1,2.4,3.1C900.1,484.7,900.1,484.8,899.7,482.5z"/>
	<path d="M894.8,530c-0.5-0.8-0.5-0.8-0.6-1.9c0.8-0.3,0.9,0.3,1,0.8C895.3,529.3,895.2,529.8,894.8,530z"/>
	<path d="M897.7,530.3c0.5,0.8,0,1.5-0.5,2.1c-0.7-0.3-0.5-0.8-0.3-1.3C896.9,530.7,897.1,530.3,897.7,530.3z"/>
	<path d="M897.8,570.9c0.4,0.9,0.3,1.5-0.5,2.1C896.9,572.1,897,571.5,897.8,570.9z"/>
	<path d="M910.8,514.2c0.1,0.9,0.3,1.7,0.4,2.6c0,0-0.1,0-0.1,0C911,515.9,910.9,515.1,910.8,514.2L910.8,514.2z"/>
	<path d="M894.6,534.9c-0.7-0.8-0.6-1.2,0.2-1.5C895.3,533.9,895.3,534.3,894.6,534.9z"/>
	<path d="M898.9,506.6c-0.5-0.5-0.4-1,0.1-1.6C899.4,505.6,899.4,506.1,898.9,506.6z"/>
	<path d="M896.6,538.8c-0.8-0.8-0.6-1.1-0.4-1.5C896.8,537.7,896.3,538.1,896.6,538.8z"/>
	<path d="M846.5,183.9c2.4-2.1,5-1.5,7.2-2.6c-1.5-0.7-3.3-0.3-4.4-1.1c-1.5,0.2-2.2,1.5-3.7,1.2c3.1-4.1,10.6-4.1,12.6,0.1
		C855.2,185.4,851.1,184,846.5,183.9z"/>
	<path d="M876.2,182.6c-4.9,0.9-4.9,0.9-11.8-1.5c1.3-4.2,8.6-4.8,12.5-1c-1.4,0.7-2.2-0.8-3.7-0.9c-1.2,0.9-2.9,0.5-4.9,1.4
		C871,181.3,873.4,181.1,876.2,182.6z"/>
	<path d="M857,207.4c2.2-4.2,7.4-4.6,9.7-1C863.6,207.4,860.6,207.3,857,207.4z"/>
	<path d="M869.4,202.2c-5,0-10,1.1-15,0.8C856.5,201.1,865.9,200.5,869.4,202.2z"/>
	<path d="M859.3,196.6c1.5-3,2.8-3.1,4.9-0.6C862.6,196.4,860.9,196.1,859.3,196.6z"/>
	<path d="M877,217.4c-0.3,3.2-1.9,5.8-4.1,8.1c-0.2-0.1-0.5-0.2-0.7-0.3c1.3-2.7,2.6-5.5,3.9-8.2C876.5,217.1,876.8,217.2,877,217.4
		z"/>
	<path d="M873,234.6c-2.6,1.2-5.1,2.6-8.1,2.1C867.4,235.1,870.2,234.7,873,234.6z"/>
	<path d="M853.4,234.8c-2.5,0.2-4.9-0.3-7.9-1.6C848.7,232.9,851.1,233.6,853.4,234.8z"/>
	<path d="M854.5,235.3c1.5-0.1,2.8,0.5,4.7,1.4C856.9,237.5,855.6,236.6,854.5,235.3z"/>
	<path d="M863.2,235.8c-1.1,2-2.2,2.6-4,2.4C860.2,236.9,861.3,236.4,863.2,235.8z"/>
	<path d="M877.4,212.5c0.4,0.8,0.1,1.4-0.6,1.9C876.5,213.6,876.6,212.9,877.4,212.5z"/>
	<path d="M859.2,245.6c-0.7-0.6-0.6-0.9-0.2-1.4C859.8,244.5,859.6,244.9,859.2,245.6z"/>
	<path d="M869.6,231.3c0,0.6-0.4,1-1,1.1C868.3,231.5,868.7,231.2,869.6,231.3z"/>
	<path d="M858.6,252.2c0.3,0.7,0.4,1.3,0,1.3C858.2,253.6,858.3,252.9,858.6,252.2z"/>
	<path d="M825.8,625.1c0.4-1.6,2-1.2,2.6-2.2c-0.8-0.8-2.3,0.1-2.9-1c2.4-2.5,7.2-2.5,9.8,0.1c-1.3,1.3-1.3,1.3-4.1,1.3
		c0.6,0.7,2.1,0,2.2,1.4C830.3,627.2,828.9,627.3,825.8,625.1z"/>
	<path d="M847.7,629.9c-1.2-1.7-0.4-2.7,0.4-4.1C848.5,627.4,848.3,628.5,847.7,629.9z"/>
	<path d="M917.5,171.1c0.7,1.4,0.3,2.1-0.3,2.8c-0.3,0-0.5,0-0.7-0.1C915.4,172.5,916.3,171.9,917.5,171.1z"/>
	<path d="M387,356.6c1.5-7.8,5.4-14.6,8.1-21.9C393.4,342.3,391.4,349.9,387,356.6z"/>
	<path d="M440.2,322.8c4,5.8,7.3,12.1,9.9,18.7C445.5,336,443.4,329.1,440.2,322.8z"/>
	<path d="M438.7,338.2c3.7,5.1,5.6,11.2,9.2,16.7C444.8,354.1,439.9,345.1,438.7,338.2z"/>
	<path d="M379.3,330.8c1.3-3.4,2.5-6.8,3.8-10.1c0.2-0.6,0.6-1.2,1-2C384.3,322,381.7,329,379.3,330.8z"/>
	<path d="M413.3,283.7c-2.6,0.5-4.3-0.1-5.7-2.6C409.9,281.7,411.5,282.4,413.3,283.7z"/>
	<path d="M434.4,309.4c0.7,0.6,1.2,1.3,0.8,2.6C434.9,310.9,434.7,310.2,434.4,309.4z"/>
	<path d="M387.1,283.6c0.7-0.6,1.3-0.6,1.8,0.3c-0.5,0.8-1.1,0.5-1.7,0.5C387.2,284,387.1,283.8,387.1,283.6z"/>
	<path d="M438.4,283c1.3,1,1.6,1.9,1.7,3.4C438.8,285.4,438.7,284.4,438.4,283z"/>
	<path d="M450.3,497.3c3.3,5.7,3.1,8.6-0.7,12.2C450.6,505.1,450.5,501.2,450.3,497.3z"/>
	<path d="M440.3,501.5c0.8,2,2.2,3.5,3.8,5.5c-2.4,0-3.8-0.7-4.7-2.4C438.7,503.3,439.1,502.3,440.3,501.5L440.3,501.5z"/>
	<path d="M452.9,515.8c1.4,2.5,0.7,4.9-0.6,7.3C451.6,520.6,451.8,518.2,452.9,515.8z"/>
	<path d="M439.7,499.5c-2.4,0.9-4-0.1-5.4-2.9C437,496.9,438.8,497.3,439.7,499.5L439.7,499.5z"/>
	<path d="M442.2,526.6c3.1,1.2,1,3.6,1.1,5.5C441.8,530.5,441.4,528.6,442.2,526.6L442.2,526.6z"/>
	<path d="M456.8,579.2c-0.3-1.9-1.2-3.8-0.5-6.5C457.8,575.2,457.8,577.2,456.8,579.2z"/>
	<path d="M459.8,521.5c-0.7-1.9-1.4-3.8-2.1-5.6c2.2,1.2,1.9,3.5,2.7,5.3C460.2,521.3,460,521.4,459.8,521.5z"/>
	<path d="M442.3,526.6c-1-1.6-1.5-3.3-1.4-5.2C442.8,522.8,442.4,524.7,442.3,526.6L442.3,526.6z"/>
	<path d="M451.8,524.4c0.2,2-0.4,3.4-1.6,4.6C450.2,527.5,450.4,526,451.8,524.4z"/>
	<path d="M448.3,490.3c1.8,0.6,1.8,0.6,3.4,3.5C449.6,493.1,449.4,491.3,448.3,490.3L448.3,490.3z"/>
	<path d="M448.2,514.4c-0.5-0.7-0.4-1.2,0.5-1.8C448.8,513.4,449.3,514,448.2,514.4z"/>
	<path d="M446.8,580.6c-0.3-0.9-0.4-1.7,0.6-1.9C448.1,579.7,446.8,580,446.8,580.6z"/>
	<path d="M445.4,548c-0.2-0.6-0.4-1.3,0-1.9C445.9,546.7,445.5,547.3,445.4,548z"/>
	<path d="M446.7,539.8c-0.6-0.7-0.5-1.2,0.2-1.8C447.6,538.8,447,539.3,446.7,539.8z"/>
	<path d="M443.9,535.6c0.9,0.8,0.8,1.5,0.2,2.3C443.4,537.2,443.3,536.5,443.9,535.6z"/>
	<path d="M407.8,189.2c-3.3,3.8-7.3,2.6-11.2,2.1c2-1.3,4.4-1.5,7-2.2c-1.6-1-3.5-0.1-4.6-1.2c-1.6-0.1-2.4,1.6-4,1.1
		C398.7,185.2,405.7,185.2,407.8,189.2z"/>
	<path d="M426.3,188.1c-2.8-1.6-5.4-0.5-8.4,0.1c2.4,1.2,5.2,0.3,7.5,2.3c-4.3,0.8-8.1,1.5-11.4-2
		C414.8,184.8,421.6,184.1,426.3,188.1z"/>
	<path d="M416.1,214.3c-3.1,0.3-6.1,1.4-9.3,0.4c0.8-4,4.1-2.5,6.2-3.1C414.5,211.1,415.6,212.2,416.1,214.3z"/>
	<path d="M418.8,209.7c-5,0.3-10.1,1.2-15.1,1.3c0-0.4,0-0.9,0-1.3C408.7,209.1,413.7,208.1,418.8,209.7z"/>
	<path d="M413.8,204.1c-1.9-0.3-3.3-0.1-4.9,0.5c-0.5-2,0.8-2.4,1.9-2.6C412,201.7,413.2,202,413.8,204.1z"/>
	<path d="M421.3,233.6c1.6-3.4,2.9-6,4.3-9C426.7,227.6,425.2,230.7,421.3,233.6z"/>
	<path d="M414.4,244.4c2.6-1.3,5.3-2.1,8.3-2C420,243.5,417.4,244.9,414.4,244.4z"/>
	<path d="M403.3,243c-2.5-0.2-5-0.7-7.3-1.9C398.6,241.1,401.3,240.5,403.3,243L403.3,243z"/>
	<path d="M408.8,244.9c-2.2,0.4-3.9-0.6-5.6-1.8l-0.1,0.1C405.4,242.6,407.3,243.1,408.8,244.9L408.8,244.9z"/>
	<path d="M408.7,244.9c1.2,0.2,2-1.2,3.5-1.1c-0.3,1.7-1.5,2.1-2.7,2.2C408.7,246.2,408.8,245.4,408.7,244.9L408.7,244.9z"/>
	<path d="M426.4,220.4c0.8,0.7,0.2,1.3,0.5,2.2C426.1,221.7,426.4,221.2,426.4,220.4z"/>
	<path d="M408,260.2c0.6,0.6,0.3,0.8,0.1,1.2C407.6,261,407.6,260.7,408,260.2z"/>
	<path d="M417.7,239.9c0.3-0.4,0.6-0.8,1.1-1.5C419.1,239.9,418.6,240,417.7,239.9z"/>
	<path d="M420.4,235.6c0-0.5,0.3-0.8,0.8-1C421.7,235.6,421.3,235.8,420.4,235.6z"/>
	<path d="M381.9,631.3c-2.2-0.9-4.9-0.2-7-1.7c2.7-2.6,7.4-2.5,9.9,0.2C384.3,631.5,382.9,631.1,381.9,631.3L381.9,631.3z"/>
	<path d="M381.8,631.2c0.4,0.4,0.8,0.7,1.2,1.1c-3,2.7-4.6,2.8-7.9,0.5C377,630.3,379.6,631.3,381.8,631.2L381.8,631.2z"/>
	<path d="M396.9,638c-0.4-2-0.7-3.2,0.7-4.4C398.3,635.2,397.5,636.2,396.9,638z"/>
	<path d="M461.9,625.4c-0.8,1.5-1,3.1,0.1,4.5c-2.6,2.2-4.9,2-6.2-0.5c-1.4-0.4-3.6,0.2-3.8-2.3
		C454.5,625.4,457.7,624.9,461.9,625.4z"/>
	<path d="M243.5,188.5c-0.3-0.7-1.3-0.2-1.7-1.3c1.1-0.9,2.1-1,3,0.3C244.7,188.5,244.2,188.6,243.5,188.5L243.5,188.5z"/>
	<path d="M218.1,178.3c-0.6,0.1-1.3,0.2-1.6-0.7C217.4,177.2,217.6,178,218.1,178.3L218.1,178.3z"/>
	<path d="M243.4,188.4c0,0.5,0.5,1.1-0.4,1.2c-0.1,0-0.4-0.2-0.5-0.3C242.3,188.5,243.1,188.7,243.4,188.4L243.4,188.4z"/>
	<path d="M585.9,174.4c0.4,2.4-0.1,3.2-2.3,2.4C583.3,174.9,584.1,174.3,585.9,174.4z"/>
	<path fill="#FFFFFF" d="M834.2,474.5c-0.2,1.7-1,2.5-2.4,2.4c-1.4-0.1-2.2-1.1-2-2.5c0.1-1.3,1-2,2.2-2
		C833.4,472.5,834.2,473.4,834.2,474.5z"/>
	<path fill="#FFFFFF" d="M842.8,475.6c-2,0.3-2,0.3-2.5,1.9c-1.6-0.1-2-1.1-2-2.5c0.1-1.1,0.7-1.7,1.7-1.8
		C841.5,472.9,842.4,473.7,842.8,475.6z"/>
	<path fill="#FFFFFF" d="M826.2,472.7c-1.9,1.1-1.9,1.1-3.2-0.3C824,471.5,824.9,471.8,826.2,472.7z"/>
</g>
</svg>
