<?xml version="1.0" encoding="utf-8"?>
<!-- Generator: Adobe Illustrator 19.1.0, SVG Export Plug-In . SVG Version: 6.00 Build 0)  -->
<svg version="1.2" baseProfile="tiny" id="Layer_2" xmlns="http://www.w3.org/2000/svg" xmlns:xlink="http://www.w3.org/1999/xlink"
	 x="0px" y="0px" width="900px" height="600px" viewBox="144 97 900 600" xml:space="preserve">
<g>
	<path d="M243.9,441.8c0.3-0.7,0.7-1.5,1.1-2.3c-0.6-2.4-2.3-3.4-4.3-3.9c-3.8-1.1-6-3.5-7.4-7.1c-2.2-5.6-3.7-11.3-4.2-17.3
		c-0.2-2.8-0.7-5.7-1.1-8.5c-1-7.5-0.4-14.7,2.5-21.7c1.4-3.3,3.1-6.4,6.2-8.7c1.3-3.9,3.1-7.9,2.4-12.1c-0.9-5.6-0.8-11.1-0.9-16.7
		c-0.2-11.4-3.1-22.4-4.9-33.5c-1.3-7.7-4.2-14.9-5.8-22.5c-3-14.7-3.7-29.5-1.2-44.3c0.6-3.3,1.6-6.5,3.2-9.4
		c2.1-3.8,3.7-7.7,5.4-11.7c3-7,6.8-13.6,11.2-19.8c2.5-3.5,5.7-6.4,9.9-7.9c2.2-0.8,3.1-2.2,3.8-4.3c1.5-4.8,2.5-9.8,1.3-14.8
		c-0.9-3.9-1.1-7.9-1.4-11.9c0-0.5-0.1-1-0.3-1.4c-1.8-3.3-1.6-7.1-2.5-10.7c-0.6-2.3-0.1-4.7,0.1-7.1c0.1-1.6,0.1-3.1-0.1-4.6
		c-0.9-6-0.2-11.8,1.9-17.5c0.1-0.3,0.3-0.6,0.4-1c0.7-3.9,0.7-3.9,3.2-6.1c0.2-1.6-2.1-1-2.1-2.5c0.8-2.3,4-1.4,4.6-3.5
		c0.9-0.4,1.2,0.5,2,0.4c0.7-0.6,0.5-2,1.9-2.4c0.9-0.2,1.2,1,2.3,1.2c3-3.8,7.7-3.8,11.8-4.2c1.7-0.6,2.1-2.4,3.8-2.3
		c1,0.8-0.5,1.5,0.4,2.6c4.2-1.2,8.6-0.9,12.8,0.8c1.9-0.8,4-0.6,5.8-1.5c1.1-0.5,2.4-1.3,3.5-0.3c0.7,1.3-1,1.6-0.9,2.7
		c3.9-0.3,7.8-0.6,11.7,1.9c0.4,0.4,0.2,1.6,0.8,2.8c1.5-1,1.7-3.2,3.9-3.6c0.8,1,1.2,2.8,3.1,2.2c0.2,1.8-1.4,1.9-2,3.1
		c1.9,0.1,3.3-1,5-1.1c1.1,0.2,1.8,1,2.1,1.8c0.6,2-1.4,3.8,0,5.6c-0.2,0.8-1.1,1-1.5,1.5c-0.1,0.5,0.7,0.7,0.2,1.4
		c-2.8,1.5-6.3,2-9.8,2.9c-0.7,3,0.6,5.9,1.4,8.8c0.4,1.5,1.2,2.9,1.1,4.5c0,2.6-0.2,3-2.4,5.1c1.2,3.1,2.3,6.4,3.8,9.4
		c2.2,4.7,2.2,5.2-1.9,8.2c-0.5,1.2,0.4,2.3,0.3,3.1c-0.2,1.5-1.4,1.6-2.2,2.5c2,2.9,0.4,5.4-1.4,8.2c1.9,2.8,0.8,5.7-0.5,8.8
		c-3.5,1.4-7.6,1.1-11.5,1.5c-2.3,0.2-3.8,1.1-4.8,3.4c0.3,2.7,0.6,5.7,1,8.7c1.8,1,3.5,2,5.2,2.9c5.9-2.3,11.8-1.6,17.5-0.1
		c5.7,1.5,10.8,4.3,14.9,8.8c3.2,0,6.3,0.1,9.4,0c3-0.1,5.8-0.9,8.6-2.1c5.6-2.4,11.5-2.9,17.5-2.5c4.4,0.3,8.7,1.1,13,2.3
		c7.8,2.1,15.9,2.9,23.9,4.4c4.2,0.8,8.4,1.8,12.5,2.7c6.5,1.5,13.1,2.3,19.7,3.1c10.8,1.4,21.1-0.7,31.4-2.6
		c4-0.7,7.5-0.1,10.6,2.5c0.6,0.5,1.3,0.6,2,0.8c5.6,1.2,11.2,2.2,17,1.3c2.1-0.4,4.1-1.1,6.3-1c0.9,0,1.6,0,2.2,0.5
		c0.8,0.8,0.4,1.7,0.2,2.6c2.3,0.7,5-0.1,6.3,2.7c-0.4,1.6-1.8,2.5-2.5,3.9c-0.9,1.7-2.9,2.1-4.6,2.2c-1.4,0.1-2.5,0.3-3.6,1.2
		c-0.5,0.4-1.3,0.8-2,0.8c-4.4-0.4-8.6,1.7-13,0.7c-3.4-0.7-6.3,0.6-9.2,1.8c-1.4,0.6-2.6,0.9-4.1,0.9c-1.8,0-3.6-0.1-5.3,0.3
		c-4.7,1.1-9.4,1.2-14.3-0.4c-0.9,1.7-2.4,2-4.1,2.3c-6.6,1.1-13.3,1.3-19.8,2.4c-10.1,1.7-20.3,2.3-30.4,4.2
		c-2.8,0.5-5.7,0.8-8.5,0.4c-4-0.6-7.8,0.5-11.7,0.8c-5.8,0.4-11.6,0.5-17.4-0.1c-7.2-0.7-14.4-2-21.7-1.7c-0.7,0-1.4,0-2.1,0
		c0.1-0.6,0.2-0.9,0.4-1.4c-5.1-0.4-8.8,3-13.3,4.3c0.7,2.3,1.2,4.4,1.3,6.5c0.4,6.2-1.1,11.8-5.3,16.5c-1.4,1.5-2,3.2-2.3,5.1
		c-0.7,4.5-1.5,8.9-1.4,13.5c0.1,9.5-1.8,18.7-4.8,27.7c-2.6,7.9-2.5,15.9-2.9,24c-0.2,5.1-1.1,10.2-0.7,15.3
		c-2.1,3.8,0.3,6.8,1.6,9.7c0.8,0.5,1.4,0.2,2,0.2c4.5-0.3,6.3,1.2,8.4,5.1c2.3,4.3,5.6,7.9,10.6,9.4c6.9,2.1,12.7,6,17.4,11.4
		c9.9,11.2,20.1,22.3,30.2,33.4c4,4.4,8.6,8.3,12.8,12.4c1.4,1.4,3,2.7,4.5,4.1c-0.8,2-1.5,3.6-1.1,5.6c1.2,0.6,2.2,1.7,2.7,3.3
		c0.3,1.1,1.2,1.7,2.1,2.4c2.2,1.7,3.7,4,4.5,6.7c0.5,1.7,0.8,3.5,1.7,5.1c0.8,1.4-0.2,2.8,0.1,4.3c2.1,2.4,4.9,4,7.5,5.8
		c6.2,4.3,10.9,10.1,14.7,16.4c5.8,9.6,12.8,18,20.4,26.1c3.7,3.9,7,8.1,10.5,12.1c1.2,1.4,2.4,2.8,1.4,4.8c4.2,5.1,9.6,8.4,15,11.3
		c1.8-0.7,2.1-2,2.5-3.2c8.1,1,16.1,0.4,23.3-3.1c6.8-3.3,13.4-7.2,19.2-12.2c0.6-0.5,1.3-1,2-1.5c2.1-1.5,4.3-2,6.7-0.9
		c1.5,0.7,3.1,1.2,4.1,1.6c1.3,0.9,1,1.9,1.4,2.6c1.2,1.3,3.2,1.7,3.9,3.5c-3.6,13.7-11.3,24.8-21.3,34.4
		c-4.5,4.3-9.1,8.4-13.1,13.1c-0.5,0.5-1,1.1-1.2,1.7c-1.3,3.7-4.2,6.6-5.7,10.2c-0.6,1.5-1.9,2.7-3.2,3.8c-5.2,4.3-11.3,7-17.4,9.6
		c-0.5,0.2-1.1,0.2-2.1,0.4c-1.2-4.1-4.3-6.9-6.5-10.4c-1.2-1.8-1.8-3.9-2.2-6c-0.6-3.1-1.9-5.5-4.6-7.3c-2.2-1.5-3.7-3.6-4.6-6.2
		c-0.6-1.8-1.6-3.4-2.5-5.2c0.3-0.8,0.5-1.5,0.8-2.3c-0.6-0.7-1-1.5-1.6-2c-5.1-4.6-9.9-9.6-15.4-13.9c-3.6-2.8-7.5-4.8-11.8-6.4
		c-2.2-0.8-4.2-2.5-6.5-3.6c-7.4-3.6-14.7-7.2-21.7-11.6c-9.4-5.8-16.2-13.8-18.9-24.8c-0.8-3.1-1.6-6.2-2.9-9.2
		c-1-2.3-1.6-4.7-2-7.4c-1.8-1-3.6-2.1-5.7-3.4c-2.9,2.9-5.3,6.3-7.5,9.8c-1,1.6-1.9,3.3-2.9,4.9c-0.8,1.3-1.8,2.3-2.9,1.9
		c-7.3-7.2-14.4-13.6-22.4-18.8c-1,0.8-0.7,1.7-0.7,2.5c0.1,7.1-0.3,14.3,1.1,21.3c0.4,2,0.3,4.1-1.3,5.5c-0.2,2.3-0.2,4.2,1.6,6.1
		c-3,3.3-7.3,2.7-10.7,4.1c-0.6,0.9-0.3,1.9-0.1,2.8c0.8,4.5-0.3,8.5-3.8,11.7c-1.5,1.4-2.4,3.2-3.3,5c-1.3,2.6-2.7,5.1-4,7.7
		c-2.6,5.4-3.1,11.2-4.1,16.9c-1.2,7.1-2.2,14.3-4.6,21.2c-2.5,7-4.2,14.4-5.3,21.8c-0.4,2.8-1,5.6-1.7,8.4c-1.7,7.3-2,14.6-0.6,22
		c1,0.4,1.3-1.3,2.4-1c3.2,1.6,5.5,4.5,8.2,6.8c3.1,2.6,6.1,5.1,8.7,8.4c2.7,3.3,6.6,5.4,10.4,7.5c2.1,1.1,4.3,2,6.3,3.3
		c3.4,2.2,7.4,2.4,11.2,3.4c2.6,0.7,4.6,1.9,6,4.3c-0.5,2.1,0.2,4,0.9,6.1c1.2,3.3,0.4,5.4-2.6,6.8c-4.9,2.2-9.7,4.6-14.9,5.8
		c-4.4,1-8.8,2-13.3,1.2c-0.7-0.1-1.4,0-2.1,0c-9.5,0.3-18.8-0.6-27.9-3.3c-2.7-0.8-5.3-1-8.1-0.5c-1.4,0.3-2.8,0.3-4.3,0.3
		c-3.1-0.1-6.2,0.2-9.3,0.4c-4.9,0.4-9.7,0-14.4-2c-1-4-0.7-7.9,0.2-11.8c1.4-5.6,2.4-11.4,5.2-16.6c1.2-2.2,1-4.6,0.7-7
		c-0.4-2.8,0-5.5,1-8.1c0.8-2,1.9-3.6,4.2-3.6c1.4-8.3,0-16.5-0.1-24.6c-0.1-4.2-1.6-8.4-2.2-12.6c-1.5-10.4-3.2-20.7-2.5-31.3
		c0.1-2.2,0.1-4.4,1.5-6.5c0.8-1.3,0.6-3.2,0.9-4.8c1.6-8.3,4.7-16,9-23.2c2.1-3.5,3.9-7,4.7-11.1c-1.1-0.7-2.5-0.7-3.7-0.9
		c-4.2-0.8-8.1-2.6-12-4.5c-4.1-2.1-5.6-5.9-6.7-10c-1.2-4.7-1.9-9.6-2.2-14.5c-0.1-1.2-0.2-2.4-0.5-3.5c-3-11.3-5.4-22.7-9.4-33.7
		c-1.5-4.1-3.2-8.2-4.8-12.3c-0.3-0.7-0.7-1.2-1.3-1.6C244.7,444,244.1,443.1,243.9,441.8z M339.3,667l0.1,0.1
		c-0.3-1-0.9-1.6-2.1-1.5c-1.1,0.7-0.9,2.8-2.8,2.9c-1.6-1-0.2-2.3-0.4-3.7c-0.7-0.4-1.3-1.2-2.3-1.2c-1.4,0.8-2.7,1.7-4.3,2.6
		c-0.5-2.2,1.3-3.4,1.1-5c-0.4-0.6-0.9-1.1-1.9-1.2c-1.5,1.6-3.3,2.7-5.9,2.8c0.3-2.5,2.1-3.8,3.2-5.3c-0.2-0.7-0.6-1-1.3-1.1
		c-1.8,1.9-4,3.6-6.8,4.9c-0.3-2,0.5-3.3,1.2-4.6c0.7-1.3,2.7-1.8,2.7-4.2c-2.2,1.2-3,3.3-4.8,4.1c-1.8,0.8-3.4,2-5.5,2
		c0.8-4,3.9-6.1,6.1-9.1c-1.8-1.9-3.6-3.8-5.4-5.7c-1.9,0.2-2.8,1.4-3.7,3c-1.6,2.9-3.3,5.7-5.7,8.1c-3.9,3.8-8.9,4.9-13.9,6
		c-2.4,0.5-4.4,0-6.1-2c-1.4-1.6-3.1-2.9-4.1-4.6c-0.6-4.3-1.2-8.3-2.8-12c-0.9,0.3-1.5,0.7-1.4,1.1c0.2,2-0.5,4.1,0.1,6
		c1.6,4.8,0.1,9.1-1.9,13.3c-0.6,1.2-1.3,2.3-1.9,3.4c-0.4,0.8-1,1.7-1.2,2.6c-1.1,4.8-1.2,9.8-1.8,14.6c1.7,0.6,2.9,1.5,4.5,1.6
		c7.1,0.4,14.3,0.6,21.4-0.4c2.2-0.3,4.2-0.3,6.3,0.5c6.9,2.5,14,3.7,21.3,3c5.7-0.5,11.3,0.8,17,0.2c6-0.6,11.8-1.5,17.1-4.6
		c1.5-0.9,3.7-0.4,4.6-2.7c0.2-1.9-1.2-3.6-1.5-5.6c-0.4-2.4-1.7-3.7-4.1-4.2C347.9,670.2,343.5,669.1,339.3,667z M274.2,143.8
		l0.1,0.1c-0.3-0.8-1-0.9-1.8-0.7c-1,1.3-2,2.6-3,4c-2.4,3.2-2.1,5.8,0.8,8.5c1.1,1,2.4,1.7,3.1,2.9c1.4,2.2,3.5,3,5.7,3.9
		c1,0.1,1.1-1.4,2.2-0.9c0.5,1.4-0.2,2.2-1.3,2.8c-3.7,0.6-5.4-3.4-8.7-3.6c-0.5,0.8,0.9,2.3-1,2.4c-0.4-0.3-0.5-0.8-0.5-1.3
		c0-0.6,0-1.2-0.8-1.2c-1.5,2.9-2.6,5.8-1.6,8.9c-0.7,1.1-1.3,1.9-1.7,2.5c0,6.9,0.7,13.7-2.8,20.5c3.6-1.4,7-0.4,10.2-1.5
		c2.1-0.7,4.2-0.8,6.3-0.9c4.3-0.2,8.5,0.2,12.8,2c-0.5-3.5-2.4-5.9-3.7-9.2c3.6,3.1,4.1,4,5.8,9.9c2.5,1.1,4.9,2.3,7.7,3
		c0.5-4.5-1.4-9.2,3.1-12.3c-1.4-0.8-2.9-1-4.1-2.5c2.1,0.3,3.7,1,5.1,2.2c3.2-0.8,6.4,0.3,9.6-0.5c3.7-1,4.6-2.2,3.8-6.1
		c-0.4-1.9-0.6-3.7,0.9-5.4c0.4-0.5,0.6-1.3,0.8-1.9c-0.3-0.9-0.8-1.6-1.6-1.9c-1.3,0.1-2.2,2.1-4,0.7c1.2-3,5.7-1.1,6.6-4.5
		c-0.1-0.4-0.2-1-0.2-1.6c-0.1-0.6,0.2-1.2-0.4-1.6c-3.1,0.6-4.1,0-4.2-2.3c0-0.3,0.4-0.5,0.5-0.8c1-0.1,1.1,1,2.1,1.1
		c1.5-1.2,4.7,1.7,5.6-2.2c-0.5-1.2-0.8-2.4-1.4-3.6c-1.1-2.3-2.2-4.5-3.3-6.7c-0.8-1.7-1.3-3.5,0.2-5c2-2,1.6-3.9,0.8-6.2
		c-1.2-3.2-2-6.6-1.9-10.2c-0.7-0.4-2.2-0.1-2.1-1.7c4.2,0.6,7.6-1.5,11-3.3c1-0.5,1.5-1.6,1.8-3.6c-2.5,3.3-5.3,4.4-8.4,5.1
		c-1.6,0.4-3.2,0.8-4.3,2c-2.3-0.2-4.3,0.5-6.3,1c0,1.1,1.6,0.4,1.2,1.5c-2.3,1.7-4.7,1.3-7,0.6c-0.8,1.2-1.3,2.4-2.1,3.2
		c-0.9,0.9-2,1.6-3.1,2.4c-3.2,2.4-6.2,5.2-8.9,8.2c-2.5,2.8-4.4,5.9-4.7,9.3c0.2,1.9,1.6,2.8,2.2,4.2c-1.7,0.6-2.3-1.6-3.7-1
		c-0.7,0.4,0,1.7-1.3,2c-2.1-2.2-2.2-5.6-4-8.1c-0.9-0.4-1.9-0.9-2.8-1.4C276.4,144.8,275.5,143.8,274.2,143.8z M297.9,652
		c2.8-1.6,4.1-4.5,5.9-7c-0.4-2.8-0.8-5.6-0.9-8.5c-0.3-6.8,0.1-13.5,0.6-20.3c0.8-11.5,3.1-22.6,7.3-33.3c1-2.4,1.8-4.9,2.1-7.5
		c0.5-3.4,0.9-6.8,1.7-10.2c1.6-6.7,2.2-13.6,3.5-20.4c0.1-0.5,0.2-1,0.1-1.4c-0.6-2.4,0-4.9-0.2-7.4c2.4,2.2,0.2,5.9,3,7.8
		c1.6-3.8,2.5-7.8,6.5-9.8c2.3-3.5,3.3-7.3,3.6-11.5c-3-1-5.9-1.3-8.8-0.3c-3.8,1.3-7.7,1.6-11.6,2c-2.7,0.3-5.5,0.6-8,1.4
		c-3.2,1-6.3,0.8-9.5,0.7c-1.2,0-2.2-0.8-3.4-0.4c-1,1.8-1.1,3.9-2.3,5.6c-3.6,5.5-6.1,11.6-9.4,17.2c-0.4,0.7-0.7,1.5-0.9,2.3
		c-2.5,7.6-3.9,15.5-3.9,23.5c0,9.8,1,19.5,2.9,29.1c2.5,12.1,3.2,24.3,3,36.5c0,2.5,0,4.9,0,7.7c6.3,1,12.3,3,18.6,2.8
		C297.9,651.3,297.9,651.7,297.9,652c-1.4-0.2-2.7,0.4-4,1c-3.5,1.6-7.2,1.5-10.8,0.5c-1.4-0.4-2.7-1.1-4.1-1.7
		c-0.1,0.1-0.2,0.2-0.3,0.3c2,1.8,4.1,3.7,6.3,5.7c3.3-0.4,6.7-1.1,9.9-2.2C296.4,655,297.6,653.8,297.9,652z M315,206.1
		c-1.3-0.3-2.6-0.4-3.8-0.9c-2.5-1-4.7-2.3-5.1-5.4c-0.9-0.4-1.9-1-2.9-1.3c-3-1.1-5.8-2.9-9.2-3.1c-4.1-3.4-8.9-3-13.6-2.6
		c-8.7,0.8-17,3.3-25.2,6.3c-3.9,1.4-7.1,3.8-8.7,7.9c-0.4,1-1.1,1.8-1.8,2.7c-3.4,4.3-5.4,9.2-6.5,14.5c-0.9,4.5-0.3,9-0.8,13.5
		c-0.7,6.2,0.3,12.1,2.6,17.8c0.5,1.3,1,2.8,2,3.8c3.1,3.1,5.6,6.7,8.9,9.7c6.7,5.9,14.7,8.5,23,9.4c1.2-0.5,1.2-1.7,2.2-1.7
		c1.3,0,1.4,1.6,2.7,2c1.3-0.3,2.9-0.8,4.6-0.9c3.1-0.2,5.1-2.1,6.5-4.5c3.6-6,6.6-12.3,8.8-19.1c0.5-1.7,1-3.4,0.4-5.5
		c-2.6-0.6-5.3-0.8-7.9-1.7c-2.6-0.9-4.8-2.6-7.8-3.9c1.9,5.3,3.7,10,5.4,14.7c2.6,0.4,4.6,1.6,5.5,4.5c-2.3-0.2-4.2-0.9-5.9-2.4
		c-0.1-2-1.4-3.5-2.9-4.9c-1.8-1.7-2.8-3.8-3.7-6c-0.4-0.8-0.2-2-1.4-2.4c-1,1.2-2,2.3-3,3.5c-0.9,1.1-1.9,2.1-2.9,3.2
		c-0.9,1-1.5,2.5-2.9,3.2c-0.4-0.9-0.3-1.3,0.1-1.7c1.8-2.1,3.1-4.5,4.1-7.1c1.4-3.4,4.1-5.3,7.3-7.1c4.9,2.4,10.1,3.6,15.2,5
		c6.7,1.9,13.7,2.4,20.5,1.4c10-1.5,19.7-4.5,28.9-8.8c0.5-0.2,1.3-0.8,1.6-0.6c2,1.1,3.1-0.5,4.3-1.4c0.8-0.6,1.4-1.3,2.6-0.6
		c-1.5,1.7-2.9,3.3-4.6,5.2c4,0,7.6,0.1,11.1,0.6c3.8,0.5,7.6,1.2,11.4,0.8c4.9-0.5,9.8-0.3,14.6-0.8c5.3-0.5,10.7-0.4,15.7-2.8
		c7.5-3.6,15.7-4.7,23.8-5.7c7.4-0.9,14.9-1.1,22.5-1.6c0.7-0.3,0.9-1.6,2.3-1.5c0.8,0.3,1.9,0.8,3,1.2c2.3,0.8,4.6,1.4,7,1
		c4.1-0.6,8.1-1.8,12.2-2.2c1.6-0.2,3.3-0.6,4.8-1.3c1.6-0.8,3.2-0.9,4.8-0.5c1.6,0.3,3.3,0.7,4.9,1c4.6,0.8,9.1,0.7,13.8,0.6
		c-0.4-0.9-0.9-0.9-1.3-1c-6.2-1.4-12-4.6-18.5-4.7c-0.9,0-1.8-0.4-2.7-0.8c-0.6-0.3-1.3-0.7-0.9-1.9c10,0.8,19.4,3.7,28.9,8.3
		c0.8-0.1,2-0.4,2.9-1.6c-1-0.8-1.9-0.4-2.8-0.5c-1.6-0.2-3.1-0.4-4.4-1.4c-3.2-2.4-6.8-3.3-10.6-3.7c-2.7-0.3-5.5-0.4-8.1-1.4
		c-0.8-0.3-1.8-0.6-1.7-1.8c1.6-1.3,3.2,1.3,4.9,0.1c-0.8-0.4-1.6-0.8-2.3-1.2c-3.1-1.8-6.3-2.2-9.9-1.3c-5.8,1.4-11.6,2.6-17.6,2.5
		c-0.2,0-0.4,0.2-0.7,0.2c-0.4,0.7,0.3,1.7-1.1,2.3c-2.5,0-5-1.9-8-1.9c-1.4,1.3-3.1,1-4.9,0.7c-5.9-1.1-11.9-1.1-17.7-3
		c-10-3.2-20.5-5-30.8-6.6c-4.1-0.6-8.2-1.1-12.3-1.7c-7.7-1.2-15.4-1.6-22.9,1.3c-2.2,0.9-4.6,1.2-7,1.3c-8.3,0.2-16.6,0.4-24.8-2
		c-7.2-2.1-14.2-0.7-21,1.4c-2.1,0.7-4.2,1.2-6.6,1.6c1.2-1.5,3.2-1.1,4.2-2.2c1.7-2,4.2-2.6,6.5-3.6c0.9-0.4,1.9-0.3,2.5-1.2
		c0.5,0,1,0.2,1.4,0.1c5.1-1.3,10.1-0.6,15.1,0.6c1.4,0.4,2.9,1.2,4.6,0.6c-7.3-4.2-15-6.1-23.9-5.4c1.3,1.1,2,1.7,2.7,2.3
		C315.6,204.8,315.3,205.4,315,206.1z M265.1,366.2c-2-0.6-1.2-2.6-2-3.9c-1.3,0.1-2.4,0.2-3.5,0.2c-0.4,1.3-0.8,2.3-1.1,3.4
		c-1.8-0.7-0.9-2.2-1.1-3.3c-1.3-0.1-2.4-0.1-3.5,0.5c0.1,1.4,1,2.9,0.2,4.3c-1.1,0.4-1.4-0.8-2.3-0.9c-0.7,0.4-0.9,1.4-2,1.6
		c-1.7-1.2-3.3,0.3-5.1,0.5c-0.5-1-0.4-2.3-1.4-3.2c-0.9,0.9-1.5,1.8-1.7,3c-1.4,6.5-4.2,12.4-7.3,18.2c-0.8,1.5-1.3,3-1.3,4.7
		c-0.5,11.2,2.6,21.6,6.6,31.9c0.1,0.3,0.2,0.7,0.4,1.1c-0.3,0.5-0.6,1-1,1.5c0.8,2,1.6,4.1,2.4,6.2c1.1,0.5,2.2,1,3.2,1.5
		c2.5-0.4,4.9-0.7,7.8-0.6c-2.1,1.2-4.2,0.8-5.8,2.2c1,2.2,2.6,4.4,0.4,6.9c2.2,1.4,1.9,4,3,6c2.8,5,4.6,10.4,6.2,15.9
		c3.3,10.7,5.8,21.6,9.9,32c1.4,3.6,1.9,7.1,0.5,10.5c0.7,2.9,1.3,5.5,1.9,7.9c3.6,2.5,7.5,3.6,11.3,5.1c6.1,2.4,12.4,3.3,18.9,3.1
		c2.3-0.1,4.4-1.1,6.6-1.5c6.2-1,12.5-1.5,18.6-3.4c1.7-0.5,3.6-0.4,5.3,0c3.8,0.7,7.2-0.3,10.6-1.3c0.1-4.8,1.3-9.1,0.4-13.5
		c-0.6-3-0.5-5.9-0.5-8.9c0-3.3,0-6.7,0-10c0-2.1,0.1-4.3-1.9-6c1.5-1.3,1.4-2.9,1-4.4c-1.5-5.4-2.6-10.9-4.6-16.1
		c-3.3-8.6-5-17.3-4.8-26.5c0.1-4.7,0.8-9.2,1-13.9c0.1-1.4,0.1-3,1.6-4.2c0.2,0.6,0.4,0.9,0.4,1.2c0,4.6,0,9.2-0.2,13.8
		c-0.4,9.6,1.8,18.6,5.1,27.5c0.4,1.1,0.9,2.2,1.2,3.4c1.3,6,3.9,11.7,4.4,18c8.3,5.3,16.1,11.2,22.2,18.9c0.2-0.1,0.3-0.1,0.4-0.2
		c0.3-0.4,0.5-0.8,0.7-1.2c3.1-6,7.3-11.2,12.3-15.6c2-1.8,4.2-3.5,6.3-5.3c1.1-0.9,2.5-1.8,2.7-3.2c0.5-3.4,2.8-5.7,4.6-8.4
		c4.3-6.5,8.7-13,13-19.6c-1.5-1.5-2.8-3.5-4.7-4.3c-2.1-0.9-3.6-2.2-5.1-3.7c-6.7-6.6-12.9-13.7-19.2-20.7
		c-6.2-6.9-12.1-14-18.4-20.9c-4.4-4.8-9.5-8.9-15.8-10.6c-5-1.3-7.7-5-10.4-8.5c-3-3.8-6.5-6.6-11.3-5.9c-7.2,1-14.2,0.5-21.2-0.9
		c-7.8-1.5-15.6-1.6-23.4-0.3c-3.6,0.6-7.3,0.7-11.2,1c0.5-0.7,0.7-1.1,1-1.5c0.9-0.2,1.9,0.3,2.7-0.4c-0.2-1.2-0.5-2.5-0.7-3.6
		c-1-0.2-1.6,0.1-1.7,1C265.2,364.1,265.2,365.2,265.1,366.2z M314,359.3c0.9-3.2,2.4-6,2.6-9.1c0.4-6.4,0.8-12.8,1.2-19.2
		c0.5-8.3,1.5-16.6,4.2-24.5c2.8-8.2,4.3-16.5,4-25.2c-0.1-3.4,0.1-7.3,2.2-10c2.8-3.6,3.7-7.7,4.4-11.9c0.6-4.1,1.4-8.2,0.5-12.4
		c-1.8,0-3.3,0.6-5.2,1c0.5,4.6,0,9-2.1,13c0.7-4.2,1.1-8.3,0.5-12.8c-8.1,1.6-15.9,0.5-23.5,1.1c0.6,13.6-5.9,23-16.3,30.2
		c-2.5,0.2-4.8,0.4-7.1,1.4c0.7,1.5,1.3,2.7,2,4.4c-2.6-0.7-3.5-2.9-5.2-4c-0.9,0-1.8,0-2.6,0c-12.6-0.1-22.6-5-29.5-15.7
		c-0.8-1.2-1.6-2.4-2.6-3.4c-5.5-5.6-7.8-12.4-7.9-20.1c0-1.5,0-2.9,0-4.4c-1.3,2.9-2,5.9-3,8.8c-3.9,11.3-3.1,22.7-1.2,34.2
		c0.1,0.8,0.3,1.6,0.9,2.3c1.1,1.1,1.3,2.5,1.6,3.9c2.6,11.4,5.6,22.6,7.8,34.1c1.3,6.8,2.8,13.6,2.6,20.5
		c-0.2,6.2,1.4,12.3,1.3,18.5c0,0.2,0.3,0.3,0.4,0.5C267.3,358.2,290.6,359.2,314,359.3z M417.2,470.7c-1.9-2.6-3.2-5.3-5.2-7.4
		c-1.3,0.9-2.6,1.8-4.2,2.3c0-1.5,1-2.1,1.3-3.1c0.4-1.2,2-1.2,2.5-2.3c-0.8-2.8-4.7-9.2-6.9-11.4c-0.2,0.3-0.5,0.5-0.7,0.8
		c-3.2,6.3-6.8,12.3-10.9,18c-0.5,0.7-0.9,1.4-1,2.2c-0.6,3.2-2.6,5.6-4.9,7.7c-1.7,1.5-3.3,3-5,4.6c3.2,2.2,6.3,4.2,9.5,6.4
		c-1.6,0.4-2.9-0.7-4.2,0.4c0.1,0.4,0.2,0.9,0.3,1.3c0.8,3.5,2.7,6.6,3.7,10c2.3,7.8,6.4,14.3,11.9,20c1.5,1.5,3,3,4,4.7
		c4.9,1.6,9,4.3,13.1,6.9c4.8,3,9.7,5.7,14.9,7.6c5.3,1.8,9.8,4.6,14.3,7.8c4.1,2.9,8,6,11.7,9.4c2.8,2.6,6.2,4.8,7.8,8.5
		c2.2-1.1,3.8-2.9,6.2-2.3c2.1-1.5,3.7-3,5.2-5c1.7-2.3,4.5-3.8,6.8-5.6c0.1-1,0.6-2.1-0.1-3.3c-2.1-1-4.4-1.8-6.4-3.4
		c-7.7-6.2-13.8-13.8-20-21.3c-8-9.6-15.5-19.6-22.6-29.8c-5.8-8.3-12.2-15.8-20.1-22.1c-0.7,0.4-1.1,1.5-2.2,1.2
		c-0.4-0.1-0.6-0.2-0.7-0.7C415.3,471.7,416.3,471.4,417.2,470.7z M487.4,600.6c3.9-1.8,7.8-3.4,11.5-5.2c1.8-0.9,3.4-2.2,5.1-3.3
		c1.1-0.8,1.6-1.9,2.2-3.1c2.6-4.9,5.4-9.7,8.3-14.5c0.6-1,1.5-1.8,2.4-2.7c2-2.1,4.2-3.8,6.5-5.6c1.4-1.1,2.7-2.3,3.8-3.7
		c6.7-8.2,12.8-16.8,17.8-26.2c0.8-1.5,1.6-2.9,1.4-4.8c-1.4-1.1-2.9-2.3-4.4-3.4c-3.3-2.5-4.9-2.5-8.2,0.2
		c-5.2,4.1-10.5,8.1-16.4,11.7c-0.2,0.5,0.6,1.3-0.4,1.9c-1.4,0-3.1-1.2-4.5,0.6c-0.5,0.8,0.6,2.3-1,3c-1.5,0.1-1.8-1.8-3.2-1.9
		c-0.6,0.1-1.2,0.2-1.6,1.1c0.3,1.2,0.7,2.8-0.3,4.1c-2.5,0-2.7-2.7-4.3-3.8c-0.4,2.9,1.6,5.9-1.5,8.2c-3.2-1.3-3-4.6-4.5-7.3
		c-1.8,0.5-3.7-0.2-6,0.1c1.7,1.2,1.5,2.6,1.3,4c-0.2,1.2-0.6,2.3-0.3,3.5c0.8,3.7,0.5,7.6,0.9,11.4c0.4,3.6-1.1,6.5-4.8,7.9
		c-1.7,0.6-3.3,1.3-5,1.9c-5.1,1.9-9.7,1.2-14-3.7c0.8,3.8,2.5,6.1,5.1,7.6c3.3,1.9,5.1,4.9,5.7,8.2c0.6,3.3,2.2,5.7,4.3,8
		C484.9,596.2,485.8,598.3,487.4,600.6z M469.9,569c2.5,2.2,2.5,2.2,4.1,2.2c3.3,0.1,6.7,0.1,9.7-1.5c4.4-2.4,5.9-7.1,4.6-14.2
		C483.4,561.4,477,565.5,469.9,569z M409.2,240.7c15.8-1.9,31.5-4.5,47.4-5.6c-0.1-0.3-0.1-0.4-0.2-0.5c-1-0.4-1.9-0.8-2.9-1.3
		C438.5,234,423.7,236.1,409.2,240.7z M269.5,361.7c-0.4,1.5-0.7,2.6,0.4,3.7c0.2-1.3,0.2-2.4,1.4-2.5c1.3,0.1,0.6,2,2.1,1.9
		c1.2,0,1.1-1.7,2.2-1.6c6,0.1,12-1,17.9,0.2c0.3,0.1,0.7-0.1,1-0.2c0.1,0,0.2-0.1,0.3-0.2c0-0.5,0.1-0.9-0.8-1.6
		C286.2,361.6,277.9,360.4,269.5,361.7z M519.4,225.6c-6.5,0-11.6-3.1-17.4-3.5c3,0.8,5.2,3.3,8.5,3.4c2.1,0,3.7,0.6,4.2,2.7
		C516.6,228.4,517.8,227.6,519.4,225.6z M477,232.4c2.4,1,3.7,0.1,5.2-0.1c1.3-0.2,2.8,1.2,4.3-0.6c-1.4-0.5-2.6-0.9-3.8-1.3
		C481,231,479.4,231.6,477,232.4z M307.5,361.7c-0.7,0-1.5-0.4-2.2,0.7c0.1,0.7-0.4,1.6,0.3,2.7c0.8,0,1.8,0.7,2.7-0.3
		C308.1,363.9,308.3,362.8,307.5,361.7z M313.2,110.9c2.2,0.7,3.3,2.2,3.6,4.2c1.6-0.4,2.3-1,1.9-2.7c-0.5-0.3-1.3,0.5-1.9-0.1
		c-0.6-0.5-0.2-1.7-1.3-1.9C314.8,110.3,314.1,110.2,313.2,110.9z M274.5,118.6c1.4-0.8,2.2,1.3,3.9,0.2c-0.8-1.1-1.6-2-2.4-3.1
		C275.3,116.5,274.8,117.2,274.5,118.6z M311.9,365.6c0.2-3.7,0.2-3.7-1.6-3.9c0.3,1.2,0.3,2.4,0.1,3.7
		C310.9,365.4,311.3,365.5,311.9,365.6z M302.4,364.8c0.3-1.3,0.8-2.3,0.1-3.2c-0.5-0.1-1-0.2-1.6,0.3
		C301.1,362.8,300.1,364.2,302.4,364.8z M300.5,128.8c-4.3,1.3-4.3,1.3-4.7,3.6C297.4,131.1,299,130,300.5,128.8z M282.5,121.5
		c1.1,0,1.7-0.4,2.3-1c-0.1-0.8-0.4-1.5-1.4-2C282.8,119.3,281.6,119.9,282.5,121.5z M312.7,120.9c-1.8-0.6-3.5-0.4-5.2,0.6
		C309.3,122,311,121.8,312.7,120.9z M292.5,119.1c1.3,1.1,2.3,1.9,3.2,2.7c0.6-0.3,0.9-0.6,1-1.4
		C295.3,120.6,294.8,118.4,292.5,119.1z M298.5,361.8c-0.6-0.6-1.2-0.6-1.8,0.1c-0.1,1,0,1.9,1.4,2
		C298.5,363.2,298.7,362.6,298.5,361.8z M269.5,130.6c0.3,1.3,1.2,2.1,2.1,2.8c0.7,0.5,1,0.1,1.3-0.8
		C271.6,132.2,270.5,131.5,269.5,130.6z M270.1,158.9c-0.6-1.8-0.6-1.8-2.4-3C268.6,157.2,268.8,158.4,270.1,158.9z M264.3,132.2
		c-1.8,0.4-2.3,1.1-2.2,2.6C263.4,134.6,264,133.9,264.3,132.2z M301,125.9c1.5-0.2,2.4-1.1,3.6-2.9
		C302.7,123.8,301.8,124.7,301,125.9z M300.6,119.8c0.5,0.9,0.6,2.2,2.2,3C302.5,121,301.6,120.3,300.6,119.8z M305.3,108.2
		c-0.7-0.5-1.2-0.5-1.7,0c-0.2,0.5,0,0.9,0.4,1.2C304.8,109.4,305.1,109,305.3,108.2z M273.2,140.8c0.2,1.3,1,1.1,1.9,1.4
		C275,140.2,274.4,140.1,273.2,140.8z M520.9,223.6c-1.7-0.4-2.5-1-3.7-0.1C518.3,224.1,519.2,223.9,520.9,223.6z M277.5,107.1
		c-1.1-0.4-1.9-0.5-2.2,0.6C276.2,108.7,276.7,107.7,277.5,107.1z M270.5,113.8c1.1-0.6,1.1-0.6,0.7-1.6
		C270.7,112.5,270.3,112.8,270.5,113.8z M269,138.6c0.8-1.3,0.8-1.3-0.2-1.9C268.5,137.3,268.5,137.8,269,138.6z M268.5,117.7
		c-0.4,0.6-1.4,1-0.5,2.4C268.5,119.1,269.2,118.6,268.5,117.7z M284,133.4c-1.1,0.4-1.3,0.8-0.7,1.6
		C284,134.8,284.4,134.5,284,133.4z M291.6,137c0.9-0.3,1.4-0.7,1.4-1.5C292,135.3,291.6,135.8,291.6,137z M266.1,150.7
		c-0.5,0.9-0.4,1.6,0.6,2.1C267.2,151.8,266.7,151.2,266.1,150.7z M261.1,137.5c-1.1,0.4-1.4,1-0.8,2.1
		C260.9,139.1,261.6,138.7,261.1,137.5z M262.7,147.1c-0.8,0.7-0.8,1.4-0.3,2.2C263,148.6,263.6,148,262.7,147.1z M324.6,109.7
		c-1.2,0.4-1.6,0.9-1.4,2C323.9,111.3,324.8,111.3,324.6,109.7z M288.4,131.4c-1,0.2-1.4,0.6-1,1.5
		C288.1,132.9,288.7,132.6,288.4,131.4z M263.7,121.1c0.7-0.6,1.5-0.8,0.8-1.7C263.9,119.6,263.6,120,263.7,121.1z M251.1,363.5
		c-0.9,0.6-0.9,1.1-0.1,1.7C251.6,364.7,251.7,364.2,251.1,363.5z"/>
	<path d="M641.8,656.5c3.7-5,8.4-9.2,12.6-13.9c-0.9-5.4,2.2-9.2,4.9-13c-0.2-0.1-0.4-0.4-0.5-0.4c-4.1,1.3-8.3,1.9-12.7,1.5
		c-2.1-0.2-4.2,0.6-6.3,1c-8.7,1.4-16.3-0.9-23.6-5.6c-7.6-4.9-14.3-10.7-20.7-16.9c-3.8-3.7-5.9-8.2-6.8-13.4
		c-1-5.8-1.9-11.5-1.5-17.4c0.1-2.1-0.7-4.2-1.3-6.2c-0.9-2.8-0.4-5.4,0.6-8c0.3-0.9,0.8-1.7,2.1-1.9c1.7,1.7-0.7,3.2-0.3,4.4
		c-0.1,1.4,1,1.3,1.2,1.9c0.6,8.9,2.6,17.7,3.9,26.5c0.9,5.8,3.8,10,7.9,13.8c4.5,4.2,8.5,9,11.2,12c6.7,2.4,10.8,5.2,15.5,6.5
		c4.7,1.2,9.4,1.2,14.2,1.9c1.1-0.6,1.8-1.8,3.4-1.6c5,0.5,9.7-1,14.2-2.7c2.6-0.9,5-2.1,7.5-3.1c0.4-0.7-0.5-1.4-0.2-1.7
		c1.1-1.6,2.5-1.8,3.6-2.3c5.5-2.6,10.9-5.2,16-8.6c4.9-3.2,10.1-4.9,16-5.3c8-0.5,15.9-1.3,23.9-1.2c0.8,0,1.7-0.1,2.4-1
		c-0.5-2.2-1.6-4.5-2.5-6.8c-1.7-4.2-4.3-7.6-7.5-10.9c-2.3-2.3-3.8-5.7-3.1-9.5c0.5-2.6,0.9-5.1,2.2-7.5c1.1-2.2,2.1-4.6,2.6-7
		c0.8-3.8,2.9-6.8,5.8-9.2c3.6-3.1,7.4-6,11.1-9c2.5-2,4.8-4.2,6.8-6.7c-0.5-0.8-1.3-0.8-2-0.8c-4.2-0.2-8.3-0.4-12.5-0.4
		c-7.1,0-14.3,0.1-21.4,0.2c-7.8,0.1-15.6,1.1-23.2,3.2c-10.4,2.8-20.7,6.4-31.5,8c-1.9,0.3-3.7,1-5.5,1.5c-2.7-2.2-6.4-1.3-9.4-2.7
		c-3,2.6-6,5.1-9.8,7.2c-0.9-3.4-0.3-6.6-0.9-10.4c2.1,2.5,2.4,4.9,3.1,7.6c2.5-1.8,3.9-4.5,6.5-6.4c4.3,0.7,8.8,1.4,13.7,2.1
		c5.1-2.4,10.4-5.1,16.4-6.4c-0.5-2.9,0.7-5.2,2.2-7.4c1.6-2.5,2.8-5.2,3.6-8.1c0.7-2.5,1.8-5,3.3-7.1c4.3-6.2,7-13.1,8.8-20.5
		c1.8-7.4,3.5-14.8,6.8-21.7c0.5-1,1.6-0.3,2.3-1c2.6-4.9,6.5-9.2,9.1-14.3c1.2-2.3,2.5-4.6,2.2-7.5c-3.6,0.2-7.3,1-11.1,0.2
		c-3.6-0.8-7.1-1.7-11-2.6c0.7,12.6-3.1,23.1-13.2,30.7c-0.9,0-0.5-1-1.2-1.3c-1.4,0.4-2.6,1.3-4,2.1c-4.2,2.2-8.6,3.5-13.3,3.5
		c-4.4,0-8.4-1.2-11.7-4.2c-0.5-0.4-1-0.6-1.4-0.5c-2-2.5-2.5-5.6-4-8.3c-6-10.9-8.1-22.5-6.4-34.8c1-7.4,2.9-14.4,6.6-21
		c0.4-0.7,0.9-1.4,0.9-2.7c-2.4,1.8-4.6,3.4-6.7,5.1c-4.7,4-8.7,8.6-12.1,13.9c-6.1,9.6-10.1,20-14,30.6c-1,2.7-1.4,5.5-1.4,8.4
		c-0.1,6.7-1.5,13.2-2.3,19.8c-1,7.4-1.7,14.9-1.9,22.4c-0.1,2.7-0.5,5.4-1.3,8c-0.8,2.6-0.9,5.4-1.4,8.1c-0.6,4-1.4,8-2,12
		c-0.4,2.8-0.6,5.7-0.9,8.5c-0.1,1-0.2,1.9-1.4,2.2c-1.5-0.2-1.8-1.4-1.6-2.7c0.6-4.1-0.1-8.3,0.9-12.4c0.8-3.5,1.3-7,2-10.5
		c0.7-3.8,1.1-7.5,0.8-11.4c-0.4-4.5,0.1-9.1,0.6-13.5c0.8-7,0.5-14,1.4-21c1.4-10.6,4.2-20.7,9.2-30.2c1.2-2.3,2.4-4.7,3.3-7.1
		c2.5-6.5,6.4-12.1,10.6-17.7c2.7-3.7,6.4-6.3,9.7-9.3c3.6-3.4,6.9-6.8,9.9-10.7c2.6-3.5,5.8-6.3,10-7.8c1.9-0.7,2.8-1.9,3.4-3.8
		c1.6-5.1,2.8-10.2,1.4-15.4c-1.1-3.8-0.8-7.7-1.3-11.5c-0.1-0.6-0.1-1.2-0.3-1.7c-2.4-6.2-3.2-12.6-2.2-19.2
		c0.2-1.2-0.2-2.6-0.4-3.9c-0.6-5.6-0.1-11.2,2-16.5c0.1-0.2,0.3-0.5,0.3-0.6c-0.6-3.1,1-5.1,3.4-6.5c-0.1-1.6-2-1.2-2.1-2.6
		c0.8-2.1,3.9-1.5,4.5-3.6c0.9-0.3,1.1,0.6,1.8,0.5c0.9-0.5,0.6-2.1,1.9-2.4c0.9,0,1.3,0.9,2.3,1.5c3-4.2,7.9-4,12.2-4.5
		c1.4-0.7,1.9-2.2,3.4-2.3c1.2,0.6-0.3,1.5,0.2,2.2c0.3,0.4,0.8,0.5,1.3,0.4c3.4-1,6.8-0.8,10.1,0.3c2.7,0.9,5-0.2,7.5-0.9
		c1.2-0.4,2.4-1.3,3.6-0.3c0.8,1.2-0.8,1.6-0.8,2.7c2.4-0.3,4.8,0.5,7.3-0.3c1.1,1.1,2.2,2,3.5,1.6c1.3,1,0.9,2.4,1.6,3.4
		c1.5-0.9,1.6-3,3.6-3.6c0.8,1.1,1.8,2.4,3.4,2.6c0,1.6-1.7,1.5-1.9,2.8c1.8,0.1,3.3-1.2,5.1-1.1c0.9,0.3,1.5,1,2,1.8
		c0.6,1.8-1.6,3.6-0.1,5.4c0,1-1.3,1-1.5,2c0.1,0.3,0.5,0.7-0.1,1.3c-2.9,1.4-6.3,1.9-9.6,2.8c-0.3,3.5,0.8,6.6,1.8,9.8
		c0.5,1.5,0.8,3,0.7,4.5c-0.1,1.6-0.3,3.1-2.2,3.6c1.3,5.1,4,9.5,5.3,13.9c-0.4,2.4-2,3.1-3.1,3.8c-0.7,1.6,0.3,2.9-0.2,4.4
		c-0.2,0.9-1.6,0.8-2,1.7c1.3,1.9,1.4,3.9,0,5.8c-0.7,1-1.4,2.1-0.9,3.3c0.9,2.2,0.7,4.1-0.5,6.1c-0.3,0.5,0.1,1.2-0.2,1.5
		c-3.9,1.6-7.9,1.2-11.7,1.7c-3.7,0.5-5,2-4.6,5.7c0.2,2.1,0.5,4.2,0.8,6.5c1.8,1,3.5,1.9,4.8,2.6c12.8-2.9,23.4,0.2,32.9,8.8
		c4.4,0.2,9,0.6,13.6-0.4c0.7-0.1,1.4-0.2,2.1-0.5c8.6-4.3,17.8-4.6,26.8-2.5c11.4,2.6,22.9,4.3,34.3,6.5c6.5,1.3,12.9,3.2,19.5,4.2
		c2.6,0.4,5.3,0.3,7.8,0.7c10.8,1.8,21.3-0.5,31.7-2.5c4-0.8,7.5,0,10.6,2.5c0.6,0.5,1.3,0.6,1.9,0.8c5.6,1.2,11.2,2.2,17,1.2
		c2.1-0.4,4.1-1,6.3-1c0.9,0,1.7,0,2.3,0.6c0.7,0.8,0.2,1.6,0,2.4c2.2,0.6,4.9-0.2,6.2,2.6c-1.7,3.7-3.9,6.6-8.5,6.2
		c-0.7-0.1-1.1,0.4-1.5,0.8c-0.8,0.6-1.7,1.2-2.6,1.1c-4.8-0.3-9.5,1.7-14.4,0.6c-2.8-0.6-5.3,0.9-7.8,1.9c-1.2,0.5-2.4,1-3.7,0.9
		c-2.9-0.1-5.7,0.2-8.5,0.9c-3.8,0.8-7.6,0.2-11-0.7c-1.2,0.1-1.3,1.3-1.9,1.6c-7.4,1.6-14.8,1.7-22.1,2.9
		c-10.2,1.7-20.6,2.4-30.8,4.2c-2.1,0.4-4.3,0.7-6.4,0.4c-4.6-0.5-9,0.2-13.5,0.7c-5.9,0.6-11.8,0.6-17.8,0
		c-7.1-0.7-14.2-1.9-21.3-1.7c-0.8,0-1.6,0.2-2.3-0.3c0-0.4,0-0.7,0-1.1c-1.6-0.1-3.1-0.1-4.5,0.6c-3.4,1.7-6.9,3.1-10.7,3.8
		c-0.6,0.1-1.2,0.4-1.7,0.4c-4.3-0.3-8.5,0.8-12.8,0.7c2.5-0.6,5-1.2,7.4-1.9c2.6-0.7,5.3-1.4,7.9-2.1c2.5-0.7,5-1.6,7.5-2.4
		c2.6-0.9,5.1-2,7.5-3.3c3.1,1.8,4.3-2.8,7.4-2.1c-1.7,1.8-3.2,3.4-5.1,5.4c6.7-0.4,12.9,1.3,19.2,1.3c7.5,0,15-0.6,22.4-1
		c5.5-0.3,10.4-2.3,15.4-4c6.3-2.2,12.9-3.3,19.5-4.1c7.4-0.8,14.9-1.1,23.2-1.7c0.2,0,0.4-1.4,1.8-1.5c0.3,0.1,0.9,0.2,1.4,0.5
		c4.4,2.4,9,2,13.5,1c2.1-0.5,4.2-0.9,6.3-1.2c1.5-0.2,3.2-0.2,4.5-1c3.6-2,7.1-1,10.7-0.2c4.7,1,9.3,0.9,14.5,0.7
		c-1.4-1.1-2.6-1.3-3.7-1.6c-2.4-0.6-4.8-1.2-7.1-2.4c-1.8-1-3.9-0.8-5.9-1.2c-1.4-0.3-2.8-0.3-4.2-0.6c-1.2-0.2-2.5-0.6-3.1-2
		c4.1-1.5,23.8,3.9,28.4,7.7c1.3,0,2.5-0.3,3.5-1.5c-0.6-0.9-1.5-0.6-2.2-0.6c-1.8-0.1-3.5-0.5-5-1.6c-3-2.1-6.4-3.1-10-3.5
		c-2.7-0.3-5.4-0.5-8.1-1.3c-1-0.3-1.9-0.7-2.1-1.9c1.7-1.3,3.2,1.1,4.8,0.1c-1.8-1.5-4.1-1.9-6-3c-1.1-0.6-2.3-0.3-3.5,0
		c-3.2,0.6-6.3,1.2-9.5,1.8c-3.6,0.8-7.3,1.1-10.7,1.1c-1,0.7-0.4,1.9-1.7,2.5c-2.4,0.4-4.7-2-8.1-1.6c-1.1,0.8-3,0.7-5.1,0.5
		c-4.7-0.5-9.4-1.6-14.2-1.7c-1.7,0-2.9-1.4-4.5-1.8c-6.7-1.7-13.4-3.3-20.2-4.5c-9.2-1.6-18.4-2.9-27.7-4
		c-5.5-0.7-10.9-0.3-16.2,1.7c-4.3,1.6-8.8,1.8-13.4,1.7c-7-0.1-14-0.7-20.8-2.5c-6.8-1.8-13.5-0.2-20,1.9c-2.3,0.8-2.3,0.9-4.8,0.7
		c3.7-2,6.9-5,11.8-5.7c-3.6-1.8-8-1.8-8.5-6.8c-3.9-1.1-7.3-4.1-11.8-4.1c-0.2,0-0.4-0.2-0.5-0.4c-3.7-3.1-8.2-2.9-12.6-2.6
		c-9.3,0.7-18.2,3.4-26.9,6.7c-0.9,0.3-1.7,0.9-2.6,1.4c-1.8,5.4-3.5,10.8-5.5,16.2c-1.3,3.5-2.2,7-2.9,10.7
		c-2,11.6-1.4,23,1.3,34.4c0.9,3.7,2.1,7.3,4.3,10.5c0.6-0.2,1.2-0.4,1.7-0.5c0.8,0.5,0.2,1.1,0.4,1.8c2.4,1.4,4.8,3.1,8,3.2
		c4,0.1,7.9-0.1,11.7-1.1c3.2-0.8,6.4-1.7,9.5-3.1c1.9-0.9,3.3-2.2,4.1-4.2c0.7-1.6,1.5-3.2,2.2-4.8c-1.7-2.7-6-2.7-5.8-6.5
		c-2.6-2.1-5.6-3.4-7.7-6.1c-3.5,2.7-5.8,6.5-9.3,8.9c-3.5,2.4-7.3,4.3-10.3,7.4c-0.4-0.8,0.1-1.1,0.3-1.4
		c3.6-4.6,7.1-9.2,10.8-13.8c2.8-3.5,6.4-6,10.4-8c1.4-0.7,2.7-1.5,4-2.3c1.9-1,3.7-1.4,5.8-0.5c4.3,2,9,2.9,13.6,4.3
		c3.6,1,7.2,1.6,10.9,1.5c2.5,0,5,0.1,7.2,0.4c1.4,1.7,1.3,3.4,0.9,5c-1.8,6.1-4,12-9.7,15.7c-4.5,3-6.4,7.1-7,12.4
		c-0.6,5.5-2.2,11-3.2,16.5c-1,5.7-3.5,10.5-7.3,14.8c-2.3,2.6-3.1,6.1-4.1,9.4c-0.8,2.7-1.9,5.1-3.7,7.2c-1.5,1.8-2.5,4-3.4,6.5
		c6.1-1.5,12-2.9,17.8-4.4c4.3-1.2,8.7-1.6,13.1-1.6c10,0,20,0.2,30,0.4c3.9,0.1,7.8,0.4,11.8,0.7c2.4,0.2,3.2,0.6,5,2.2
		c0.3,0.9-0.3,1.3-0.9,1.7c7.4,3,14.6,6.3,21.6,9.9c0,2,0.7,3.3,1.6,4.6c3.2,4.7,4.3,10.3,5.7,15.7c0.3,1.3-0.4,2.5-0.5,3.7
		c1.1,0.8,2.2,0.6,3.2,0.8c1.8,0.3,3.6,0.5,5.1,1.6c6.6,4.8,14,7,22.2,7.8c5.2,0.5,10.4,1.1,15.4,2.8c9.8,3.3,19.7,6.5,28.3,12.4
		c6.3,4.3,13.4,6.2,20.5,8.3c3.6,1.1,7.3,1.9,10.9,3.3c3.2,1.3,6.7,1.6,10.2,2c0-1-1.3-1-1.3-2.1c0.3-1.6,1.9-1.8,3.2-2
		c4.3-0.7,8.7-1.2,13.1-1.8c3-0.4,5.8-1,8.7-1.7c3.8-1,7.7-1.5,11.4-2.6c8.1-2.4,16.2-4.9,23.2-9.8c1.6-1.1,3.2-1.5,4.9-0.3
		c2.1,1.4,4.3,2.5,6.3,4c2,1.4,2.7,3.4,2.1,5.9c-2,8.1-5.5,15.4-11.2,21.5c-4.6,5-9.4,9.8-15.5,13c-2.5,1.3-4.3,3.4-5.5,5.9
		c-1.2,2.5-2.7,4.7-4.6,6.8c-1.5,1.6-2.6,3.7-3.8,5.6c-2.6,4.3-6.1,7.6-10.6,9.7c-1.6,0.8-3.1,1.8-4.5,2.6c-1.1-0.1-1.6-0.7-1.8-1.7
		c0.4-1.5,1.7-2.1,3.1-2.7c4.8-1.8,8-5.3,10.6-9.6c3-4.8,6.3-9.5,9.5-14.3c1.6-2.4,3.9-4.1,6.4-5.6c8.4-5.1,14.3-12.8,20.4-20.2
		c2.6-3.2,3.5-6.9,4.1-10.9c0.2-1.6-0.7-3-0.7-4.5c-1.9-1.7-4.5-1.7-6.4-3.4c-3.6,2.8-7.4,5-11.7,6.2c-4.2,1.2-7.6,4.3-11.9,4.6
		c-0.7,0.7,0.1,1.3-0.2,1.8c-2.2,3.1-5-1-7.4,0.5c0,1.3,1,2,1.2,3.1c-0.3,1.2-1.3,1.5-1.7,1.6c-3.3,0.1-4.3-3.4-7.6-2.7
		c1.4,2,3.8,3.3,3.7,5.9c-3.2,1.3-3.7,1-9.4-5c-3.5,0.4-7.3,0.8-11.8,1.3c5.8,2.6,8.4,6.8,10.1,11.9c-2.3,1.7-3,3.7-3.3,6
		c0,0.4-0.1,0.7-0.2,1.1c-1,4.4-2.6,8.2-7.9,8.7c-1.3,0.1-2.5,0.7-3.7,1.1c-2.1,0.7-4.1,1.5-6.1-0.3c-4.7-0.4-9.2-2-14-2
		c-9,0-18.1,0-27.1-0.9c-7.8-0.7-15.4-0.3-23.2,0.2c-6.5,0.4-12.8-0.1-18.8-2.9c-5.4-2.5-11.2-3.8-16.6-6.4c-4.1-2-8-4.2-11.9-6.5
		c-3.4-2-7-3-10.8-3.1c-5-0.2-10-0.1-14.9-1c-0.2,0-0.4,0.2-0.7,0.3c-1,4.2,1.3,8.5,0.4,12.7c-3.3,0.8-6.2,0.8-9.2,0.6
		c-4.6-0.3-9.3-0.2-13.8-1.5c-2.2-0.7-4.4,0.2-6.2,1c-8.1,3.4-16.1,7.1-21.9,14.4c2.1,0.4,3.6,1.3,4.9,3.5c2.7,4.4,5.5,8.8,9.8,12
		c3.4,2.5,7.5,3.3,11.6,4c4.9,0.8,9.8,2.1,14.2,4.4c2.6,1.4,3.4,6.2,1.9,8.9c-3.3,5.9-8.4,9.1-15.1,9.9c-3.5,0.4-7.1,0.8-10.5,1.9
		c-10.1,3-19.9,2.2-29.7-1.5c-2.3-0.9-4.6-1.9-6.9-2.9c-4-1.7-8.1-2.9-12.4-2.7c-3.9,0.2-7.3-1.2-10.8-2.8c-3.9-1.8-6.1-4.7-8.4-7.9
		C641.8,664.3,641.1,660.6,641.8,656.5z M668.6,647.2c0.7,0.8,1.5,1.6,2.8,0.9c-0.6-1-1.6-1-2.5-1.3c-1.3-1.3-2.6-2.5-4.4-4.2
		C665.1,645.5,666.8,646.4,668.6,647.2z M696.7,384.7c1.9,0,3.8-0.3,5.7,0c2,0.2,3.8-0.3,5.6-0.6c2-0.3,2.7-1.6,3.1-3.4
		c0.2-1-0.1-1.9-0.3-2.8c-0.6-1.8-0.4-3.5,0.9-5c0.5-0.5,0.7-1.2,0.8-2c-0.2-0.8-0.6-1.5-1.4-1.8c-1.4-0.1-2.4,2.3-4.3,0.6
		c1.5-2.8,5.8-1,6.8-4.4c-0.1-0.5-0.3-1.1-0.4-1.7c-0.1-0.5,0.1-1.2-0.5-1.6c-3.4,0.7-4.3-0.1-3.4-3.5c1,1.5,2.2,1.6,3.7,1.4
		c1.5-0.1,3.1,0.7,3.8-1.7c-0.7-3.2-2.3-6.2-4-9.2c-1.6-2.9-2.1-5.6,1.2-8.1c-0.3-4.8-3.3-9.3-2.7-14.5c-0.8-0.6-2.3-0.3-2.6-1.8
		c4,0.9,7.3-1.3,10.7-2.8c1.3-0.6,2-1.7,2.5-4c-2.5,3.1-5.3,4.3-8.2,4.9c-1.7,0.4-3.3,1-4.8,1.9c-2.2-0.2-4.1,0.8-6.1,0.9
		c0.2,1.4,1.5,0.5,1.6,1.5c-2.2,1.8-4.7,1.5-7.3,0.6c-1,2.9-3.1,4.4-5.2,5.9c-2.9,2.1-5.4,4.6-7.9,7.2c-2.9,3-5,6.3-5.4,9.9
		c0.2,2.2,1.5,3.1,2.2,4.4c-1.7,0.7-2.3-1.5-3.5-1c-1,0.5-0.2,1.8-1.4,2.1c-1.6-1.5-2.1-3.5-2.8-5.5c-1-2.8-2-4.4-2.9-4.7
		c0.1,0.5,0.9,0.7,0.7,1.5c-1.8-0.2-3.1-1.6-4.8-2l0.1,0.1c-0.6-0.7-1.3-1-2.2-0.7c-1,1.3-2,2.6-3,3.9c-2.3,3.1-2,6,0.9,8.5
		c1,0.9,2.2,1.5,2.9,2.6c1.5,2.2,3.6,3.3,5.5,4.1c1.3,0,1.5-1.4,2.7-0.9c0.2,1.2-0.3,2.1-1.3,2.8c-3.7,0.7-5.4-3.3-8.7-3.5
		c-0.7,0.7,0.8,2.3-1.1,2.4c-1.2-0.4-0.2-2-1.4-2.6c-1.4,3-2.9,5.8-1.5,9c-0.7,1-1.3,1.9-1.8,2.6c0,2.8,0.2,5.5,0,8.1
		c-0.3,4.1,0.1,8.4-3,12.3c4.6-1,8.9-1,13.1-1.8c4.9-0.9,9.9-1,14.7,1c0.5,0.2,1.1,0.4,1.6-0.2c-0.6-2.8-2.1-5.3-3.3-7.9
		c3.5,2.2,4.6,5.9,5.6,9.5c2.6,1.1,5.1,2.1,8.1,3.3c-0.9-3.2,0-6-0.4-8.1c0.6-2.6,2.4-3.6,3.5-5.1L696.7,384.7z M698.1,632.8
		c0.5-0.4,0.9-0.9,1.4-1.3c0.5-0.2,1.1-0.4,1.6-0.6c3-1.5,5.6-3.5,8.5-5.2c4.5-2.6,9.3-4.8,13.9-7.3c3.7-1.9,7.4-3.9,10.8-6.3
		c8.8-6.2,17.2-12.8,23.9-21.3c3-3.8,6.4-7.4,10.2-10.4c1.6-1.3,3.2-2.9,3.7-5.2c0.4-2.1,1.2-4.1,2.1-5.9c-0.8-2.1-1.4-4-1.9-6
		c-0.9-4-2.1-8-4.1-11.7c-1.9-3.6-4-6.4-8.2-7.2c-0.8-0.1-1.6-0.6-2.3-1.1c-4.1-2.7-8.9-3-13.6-4.6c-5,5.6-11,9.9-16.6,14.7
		c-1.5,1.3-2.8,2.8-3.3,4.6c-1.5,5.3-4,10.2-5.6,15.4c-0.5,1.6-0.7,3.2-1,4.8c0.6,1.1,0.9,2.1,1.9,2.8c2.3,0.4,4.6-0.2,6.9-0.9
		c2.2-0.6,4.6-0.4,6.5-2.4c0.8-0.9,2.5-1,4.5-0.3c-5.8,2.2-10.5,5.5-16.5,6.8c6,5.9,11.7,11.4,12.4,19.9c-1.6,2.3-4.1,2.4-6.2,2.4
		c-4.4-0.1-8.8,0.1-13.2,0.3c-5.7,0.2-11.2,1.8-16.9,2.3c-0.2,0-0.4,0.2-0.6,0.4c-1.2,1.4-1.8,3.4-3.6,4.6c-0.7-1.5,1.3-2.4,0.5-3.9
		c-5.1,3-10.3,5.8-14.3,10.5c-3,3.6-6.5,7-10.3,9.8c-2.1,1.5-3.3,3.6-3.7,5.9c3.2,4.4,7,7.9,11.9,10.6c4.5-0.9,9.2-2.5,14-4.4
		c-0.3-1.5,1.5-2.7,0-4.3C693.7,636.8,695.8,634.7,698.1,632.8z M890.3,628.5c2.6-3.7,3.9-8.1,5.6-12.2c0.5-1.3,0.3-2.6-0.7-3.7
		c-1.4-0.1-2.8-0.2-4.2-0.4c-5.5-0.6-10.6-2.4-15.9-3.8c-9.2-2.5-18.1-5.7-27-9.2c-3.9-1.5-7.7-3.3-10.7-6.2c-0.6-0.6-1.3-1-2.1-1.3
		c-6.2-2.5-12.3-5.2-18.9-6.3c-6-1-11.8-3-17.7-4c-1.3-0.2-2.5-0.8-3.7-1.3c-1.9-0.8-3.8-2.2-6-2c-2.3,0.2-3.9-0.7-5.5-1.9
		c-2.5-2-5.4-2.7-8.4-3.3c-1.1,1.2-1.5,2.6-2,3.9c-0.6,1.4-1.2,2.8-2.3,4c-2.3,2.4-4.2,5.2-6.2,7.8c-1.1,1.4-2.2,2.9-3.7,3.8
		c-2.3,1.4-3.8,3.5-5.5,5.5c-1.2,1.5-2.5,2.9-3.7,4.4c-1.6,2-3.9,3.5-5.2,5.7c1.9,3,4.6,2.9,7.5,2.8c3.3-0.1,6.7-0.1,9.9,0.4
		c2.1,0.3,4.1,0.7,6.2-0.3c2.9,3.2,6.1,5.7,9.7,7.8c6.6,3.9,14.1,5.6,21.1,8.6c1.6,0.7,3.5,0.6,5.3,0.9c3.6,0.6,7.4,0.5,11,1
		c7.6,1,15.2,0.9,22.7,0.3c4.5-0.4,9-0.8,13.5-0.5c2.4,0.1,4.2,1.3,6.5,1.6c4.6,0.6,9.3,0.1,13.9,0.5c4.2,0.3,8.5,0.8,12,3.6
		c0.5,0.4,1.1,0.2,1.8-0.2c0.7-1.9,2.2-3.5,2.7-5.6L890.3,628.5z M643.1,660.1c2,3.1,3.9,6.2,6.3,9c3.5,4,7.6,6.3,13.1,6
		c4.3-0.2,8.6,0.5,12.6,2.1c3.4,1.4,6.9,2.6,10.4,3.7c6.2,1.9,12.6,2.8,19,2.6c6-0.2,12-1.5,17.7-3.8c2-0.8,4-1.5,6.2-1.7
		c2.8-0.4,4.5-2.2,5.4-4.6c0.5-1.3,1.3-2.5,1.5-4.2c-2.3-3.8-6.8-3.1-10.2-4.4c-2.8-1.1-6-0.9-9.1,0.1c-0.6-1.9-2-2.6-3.8-2.7
		c-1.9,3.8-2.4,4.2-5,3.6c-0.1-2.3-0.1-2.3,1.8-5.5c-0.4-0.6-0.8-1.1-1.7-1.1c-3.3,4-4.9,4.6-7.4,2.8c0.8-2.6,3.4-3.7,4.9-5.7
		c-0.2-0.6-0.6-0.9-1-1c-3.4,2.1-6.5,4.9-11.4,3.4c1.9-4.2,6.8-4.1,9.2-7c0-0.5-0.2-0.9-0.8-1c-9.6,5.3-10.2,5.6-13.7,5.1
		c3-4.5,8.1-5.7,12.1-8.7c-1.3-1.5-2.4-2.4-3.8-3.1c-0.5,0.1-1,0-1.4,0.3c-6.7,4-14.1,6.2-21.7,7.6c-1.8,0.3-3.3,0.1-4.7-0.9
		c-2.7-2-4.3-4.9-5-7.9c-0.8-3.4-0.9-7.1,0.9-10.5c0.4-0.8,0.7-1.7,0.1-2.8c-2.9,3.8-5.4,7.6-6,12.1c-2.3,3.3-4.8,6.2-7.4,9
		C647.4,653.9,644.7,656.6,643.1,660.1z M740.6,611.5c-5.1,3.2-9.5,7.1-14.4,10.2c5.5,1,11,1.8,16.8,1.6c-0.6-4-0.5-7.5-0.4-11.1
		C741.9,612,741.4,611.8,740.6,611.5z M674.2,458.1c1.9,1.3,1.8,4,3.4,5.5c2.5-2.6,4.8-12.6,3.7-16.7c-2.1,0-4.1-0.7-6.2-2.3
		c0.6,2.1-1.2,2.3-1.8,3.1C673.1,451.2,674.9,454.3,674.2,458.1z M800.8,442.2c15.6-1.8,31.2-4.5,47.2-5.6c-1-1.2-2.3-1.1-2.6-1.3
		C829.8,435.5,815.1,437.5,800.8,442.2z M727,408.9c-7-4.4-14.6-6.1-23.4-5.5c1.5,1.6,3.1,2.3,3.3,4.4
		C713.9,405.5,720.4,407.8,727,408.9z M898.1,631.6c1.1-4.5,2.2-8.9,3.3-13.3c-0.5-1-0.9-1.9-1.4-2.7c-0.4-0.7-0.5-1.7-1.4-1.8
		c0.1,6.8-2.6,12.8-5.7,18.8C894.5,632.1,896,632.2,898.1,631.6z M910.5,427.5c-3.3-0.7-6.2-1.3-9.1-2c-2.8-0.6-5.2-2.7-8.3-1.8
		c3,0.6,5.3,3.1,8.5,3.2c2.2,0.1,3.9,0.6,4.4,2.8C908,429.9,909.2,429.1,910.5,427.5z M667.7,627.6c2.4-2.5,5.2-4.6,7.7-7.8
		c-4.6,1.1-7.4,4-10.7,6.5C666.1,625.9,666.7,627,667.7,627.6z M868.8,434.1c1.7,0.9,3.1,0.2,4.4-0.3c1.4-0.5,3.1,1.6,4.4-0.7
		c-1.3-0.5-2.5-0.9-3.6-1.2c-0.9,0.3-1.7,0.6-2.4,0.9C870.7,433.3,869.7,433.1,868.8,434.1z M710.1,313.7c-0.7,0.1-1.2,0.7-2,0.1
		c-0.3-0.5-0.7-1.2-1-1.9c-1-0.1-1.8-0.2-2.6,0.2c2.5,1.7,2.5,1.7,3.6,4.5C709.6,316.3,710.4,315.6,710.1,313.7z M667.2,317
		c-0.6,1.2-1.4,1.9-1.2,2.9c0.6,0.2,1.2,0.2,1.7,0.5c0.5,0.2,0.9,0.8,1.7-0.1C668.8,319.3,668.2,318.3,667.2,317z M698.7,323.1
		c1.8,0,3.8,0.6,5.8-0.6C702.1,321.3,700.4,322.6,698.7,323.1z M674.2,323.5c0.6-0.8,1.7-0.7,1.9-1.9c-0.3-0.5-0.7-1-1.2-1.8
		C674.1,320.8,672.6,321.4,674.2,323.5z M688,322.2c-0.8-0.6-1.6-1.2-2.4-1.8c-0.8-0.6-1.2-0.3-1.6,0.8c1.3,0.3,1.9,1.4,3,2
		C687.5,323,687.8,322.7,688,322.2z M691.4,327.8c2.6-0.8,2.6-0.8,4.1-3.3C693.8,325.6,692.6,326.5,691.4,327.8z M686.9,333.6
		c1.4-0.8,3-1.5,3.8-3C689,331,687.4,331.6,686.9,333.6z M659.7,357.9c0.3,1,0.2,2.3,2,2.6C661.6,359,660.7,358.4,659.7,357.9z
		 M666.3,343.4c0.2-0.8-0.1-1.2-0.5-1.4c-0.6-0.3-1.1-0.1-1.3,0.6C664.9,343.4,665.3,343.9,666.3,343.4z M695.6,311
		c0.4-0.4,1.1-0.6,0.8-1.4c-0.5-0.3-1.1-0.4-1.6,0C694.7,310.3,695,310.7,695.6,311z M653.2,336.4c1.7-0.4,2.3-1,1.8-2.4
		C653.6,334.1,653.3,334.9,653.2,336.4z M694,324.2c-0.3-1.7-1-2.4-2-2.8C692.4,322.3,692.4,323.5,694,324.2z M908.1,424.9
		c1.2,0.8,2.2,0.6,3.2,0.3C910.5,424.5,909.6,424.2,908.1,424.9z M652.5,338.9c-1.1,0.5-1.6,1.1-1.1,2.3
		C652.5,340.8,652.6,340.1,652.5,338.9z M654,348.5c-0.8,0.8-1.1,1.5-0.4,2.6C654.2,350.3,654.8,349.7,654,348.5z M661.6,333.5
		c1.4,1.6,1.4,1.6,2.7,0.9C663.5,333.9,662.9,333.4,661.6,333.5z M678.4,334.3c1-0.2,1-0.2,1.2-1.2
		C678.6,332.9,678.6,333.6,678.4,334.3z M715.9,311.7c-1,0.1-1,0.1-1.8,2.1C715,312.7,716,312.9,715.9,311.7z M669.2,308.4
		c-1.4-0.1-2.2-0.3-2.5,0.9C667.8,309.9,668.2,309,669.2,308.4z M682.8,338.5c0.9-0.2,1.3-0.6,1.7-1.7
		C683.3,337.1,682.7,337.3,682.8,338.5z M675.4,335.3c-0.8-0.4-1.3-0.1-1.3,0.6c0,0.4,0.3,0.7,0.6,0.7
		C675.2,336.4,675.5,336,675.4,335.3z M662.7,313.7c-1,0.3-1.4,0.7-0.7,1.6C663,315.3,663.2,314.8,662.7,313.7z M675.6,339
		c-0.4,1-1.2,1.3-0.6,2.3C675.5,341,676,340.6,675.6,339z M657.8,352.3c-0.2,0.1-0.4,0.1-0.7,0.2c-0.5,0.8,0.1,1.3,0.6,1.7
		C658.3,353.6,658,352.9,657.8,352.3z M660.4,339.9c0.7-0.7,0.8-1.3-0.2-1.9C660,338.7,659.7,339.1,660.4,339.9z M654.7,322.5
		c0.5-0.2,0.8-0.2,0.9-0.4c0.3-0.3,0.6-1,0.1-1.1C655.1,321,654.9,321.7,654.7,322.5z M660,318.9c-0.7,0.6-1.4,1.1-0.9,2.2
		C659.9,320.8,660.3,320.3,660,318.9z M657.8,318.2c-0.1-0.3-0.2-0.4-0.5-0.3c-0.1,0-0.2,0.2-0.2,0.2c0.1,0.2,0.2,0.3,0.3,0.5
		C657.6,318.5,657.7,318.4,657.8,318.2z M657.6,347c1-0.2,1.3-0.6,0.8-1.3C657.9,345.8,657.7,346.2,657.6,347z"/>
	<path d="M622.8,555.9c-5.4,0.3-10.7,0.9-15.9,1.5c4.1,0.5,8.1,0.5,12.2,0.2c-10,4.7-20.4,4.1-31.2,3.1c3-2.3,0.6-5.6,1.8-8.1
		c2.2-0.9,4.2-1.2,6.4-0.8c6.7,1.2,13.5,1.6,20.2,2.3c3.1,0.3,6.3,0.7,9.7,1.1c-1,2.8-3.8,3.5-4.8,6
		C620.1,558.6,621.6,557.4,622.8,555.9z M597,555.7c-0.5,0.5-0.5,1-0.1,1.7c0.7,0.2,1.5,0.6,2.4,0
		C598.8,556.3,598.2,555.6,597,555.7z M593.9,555c-0.4,0.5-1,0.9-0.7,1.7c0.5,0.4,1,0.4,1.5-0.1C594.6,556.1,594.6,555.5,593.9,555z
		"/>
	<path d="M886.4,642.9c-2.5-2.3-6.1-2.7-6.8-6.1c0.4-0.6,0.8-0.7,1.1-0.6c2.7,1.5,5.4,2.9,8,4.6c1.9,1.2,3.5,2.7,3.7,5.1
		c0.6-0.1,1.1-0.1,1.4-0.2c4.8,3.7,8.5,8.2,11.5,13.5c-0.1,0.7-0.7,1.1-1.6,1.4c-2.8-1.8-4.9-4.2-6.3-7c-0.6-1.2-1.4-2.1-2.4-2.9
		c-2.2-1.6-4.4-3.3-6.6-4.8C887.2,645.2,886.5,644.2,886.4,642.9z"/>
	<path d="M645.7,587.6c6.1,1,12.2-1.1,18.3,1.1c-2.5,0.7-4.5-0.3-6.6-0.3c-3.6,0-7.3,0.4-10.9-0.1c-4.5-0.6-8.6,1.4-12.7,2.8
		c-2.8,1-5.6,1.9-8.7,1.6c-1.7-0.2-3.3,0.2-4.6,1.1c-3-0.2-5.5-1.3-7.9-2.5c-1.7-0.9-3.1-2.1-4-3.9c-0.7-1.4-0.6-2.7,1.1-3.9
		c-0.2,4.1,2.4,5.7,5.4,6.9c2.5,1,5,2.2,7.9,0.9c0.8-0.4,1.9-0.1,2.8-0.1c2.4,0.1,4.7-0.5,6.9-1.3c2.4-0.9,5-1.5,7.4-2.4
		c1.2-0.4,2.3,0.1,3.7,0c1.5-3.2,3.3-6.4,6.4-9.6C649.2,581.8,646.3,584,645.7,587.6z"/>
	<path d="M760.6,419c-2.5,1.4-5,2.8-7.1,4.7c-2.5,2.2-5.5,3.3-8.9,1.8c-1-0.4-2-0.8-2.4-1.9c1.3-0.7,2.6,0,3.8-0.2
		C750.4,420.5,754.9,417.7,760.6,419z"/>
	<path d="M600.2,563.3c2.9-0.6,4-0.1,5,2c0.7,1.5,1,3.2,0.9,4.9c0,1.4-0.1,2.9,0.9,4.3c2.9,1.7,7.1,0.3,9.5,3.5
		c0.1,2.1-1.4,2.6-3,3.4c-0.3-1.3,1.2-1.6,0.9-2.7c-1.8-0.9-4-1-6.1-1.3c-3.2-0.6-4-1.5-4.4-4.7c-0.1-0.5,0-1,0-1.4
		C603.9,568.1,603.6,565.1,600.2,563.3z"/>
	<path d="M686.7,605.6c0.8-2.5,2.3-3.6,4-4.4c2.2-1.1,4.5-2.2,7-2.6c3.7-0.7,7-2.3,9.9-4.6c1.8-1.4,3.9-2.7,3.6-5.6
		c1.6,0.8,1.3,1.6,0.9,2.6c-1.4,3-3.9,4.8-6.4,6.5c-1.5,1-3.1,1.8-4.8,2.3C695.9,600.8,691.4,602.7,686.7,605.6z"/>
	<path d="M664.9,536.3c-1.1-0.1-1.5-0.7-1.5-1.2c-0.1-1.1,3-9.5,4.1-11c1.5,2,0.8,4.2,0.4,6C667.4,532.4,667.1,535,664.9,536.3z"/>
	<path d="M646.7,498.2c-2.2,0.1-4-0.8-5.5-2.2c-1.9-1.7-3.6-3.7-5.4-5.7c-0.6-0.7-1.2-1.6,0.1-2.7c4.2,2.8,6.7,7.4,10.6,10.6
		L646.7,498.2z"/>
	<path d="M636.6,569.3c-1.2,2.1-3.4,2.6-5.3,3.4c-2.8,1.2-5.8,2.1-8.4,3.8c-0.9,0.6-1.7,0.8-2.4-0.5c0-1.5,1.2-1.8,2.3-2.2
		C627.4,572.2,632,571.1,636.6,569.3z"/>
	<path d="M709.4,427.4c-2.5,4.5-6.5,6.2-11.6,5.2c-0.7-1.1,0.1-1.7,0.9-1.8C702.3,430.3,705.7,429.2,709.4,427.4z"/>
	<path d="M612.7,452.7c-1.7-4.6-0.1-8.7,1.2-12.9c1.5,0,1.9,0.8,1.8,1.6c-0.1,1.2-0.4,2.3-0.8,3.4
		C613.7,447.4,612.9,449.9,612.7,452.7z"/>
	<path d="M667.5,521.5c3.2-4.5,4.8-9.7,6.8-14.6c1.2,0.3,1.2,1.1,1,1.8C674.4,513.6,671.6,518.4,667.5,521.5z"/>
	<path d="M642.6,549.4c-0.8,5.4-3.2,10.1-4.3,15.6c-0.6-2-0.7-2.5-0.3-4.2c0.8-3.2,1.8-6.4,2.8-9.6
		C641,550.5,641.3,549.7,642.6,549.4z"/>
	<path d="M641.2,511.6c-5.5-0.7-7.4-1.9-8.1-4.9C635.4,506.4,636,506.7,641.2,511.6z"/>
	<path d="M641.5,431.5c3.5,2.8,7.3,4.8,11.3,6.6c0.1,1.4-0.9,1.1-1.4,0.9C647.2,437.7,644,435,641.5,431.5z"/>
	<path d="M666.9,400c3.3-1.3,5.5,0.5,7.9,0.9C670.1,401.5,670.1,401.5,666.9,400z"/>
	<path d="M675.1,577.5c2.2-2,4.3-4.1,6.5-6.1c-1.6,2.6-3.5,4.9-5.9,6.7C675.5,577.9,675.3,577.7,675.1,577.5z"/>
	<path d="M614.5,461.2c2.3,1.7,1.5,3.6,1.2,5.4C614.8,465,613,463.7,614.5,461.2z"/>
	<path d="M765,436.9c-1.7,0.8-3.5,1.2-5.6,0.3C761.4,435.5,763.2,436.2,765,436.9z"/>
	<path d="M609.2,566.8c2.6-2.1,2.6-2.1,5-2.4C612.9,566.3,611,566.5,609.2,566.8z"/>
	<path d="M695.7,587.3c1.1-1.7,2.3-3.4,3.7-5.5c-0.1,2.9-1.3,4.6-3.1,5.9C696.1,587.6,695.9,587.5,695.7,587.3z"/>
	<path d="M663.2,577.9c-1,2.3-2.5,4.1-4.6,5.4c1.3-2,2.4-4.2,4.3-5.7C663,577.7,663.1,577.8,663.2,577.9z"/>
	<path d="M646.6,498.3c1.5,0.9,3,1.8,4,3.3C647.8,501.5,647.3,501.1,646.6,498.3L646.6,498.3z"/>
	<path d="M644,511.6c2.6,0.3,3.7,1.5,5.1,3.3C646.7,514.7,645.4,513.6,644,511.6z"/>
	<path d="M757.8,427.9c1.6-1.6,3.1-1.1,5.1,0C760.9,428.5,759.4,428.6,757.8,427.9z"/>
	<path d="M710.3,427.5c0-2.3,1-3,2.8-3.6C712.9,425.8,712.3,426.7,710.3,427.5z"/>
	<path d="M775.7,428c-1.7,0.3-3.1,0.4-4.6-0.5C773.5,426.8,773.5,426.8,775.7,428z"/>
	<path d="M654.7,516.1c-1.2,1-2.4,0.7-3.6,0C652.9,514.8,652.9,514.8,654.7,516.1z"/>
	<path d="M810.2,419.3c1.7-0.4,3.3-0.6,4.9,1C813.2,420.5,811.6,420.1,810.2,419.3z"/>
	<path d="M656.5,490.4c-1.5,0-2.6,0-3.4-1.1C654.6,488.4,654.6,488.4,656.5,490.4z"/>
	<path d="M640.3,523.5c1.4-0.3,2.3,0,3.4,0.2C641.5,525.6,641.5,525.6,640.3,523.5z"/>
	<path d="M626.1,488.2c0.8-1.6,1.9-2.6,4.2-2.9C629.1,487.2,627.6,487.7,626.1,488.2z"/>
	<path d="M634.9,481.6c0.1,1.7-0.8,2.5-2.4,3.3C632.5,482.8,633.6,482.1,634.9,481.6z"/>
	<path d="M684.1,480.1c0.7-1.2,0.7-2.8,2.3-3.8C686.8,478.5,685.2,479.2,684.1,480.1z"/>
	<path d="M619.7,471.2c-2,0.2-2.5-0.7-3-2C618.6,468.5,619,469.6,619.7,471.2z"/>
	<path d="M629.3,537c1.1,0.5,1.6,1.3,1.3,2.6C628.8,539.2,629.5,537.9,629.3,537z"/>
	<path d="M763.2,418.9c0.7-2.1,0.7-2.1,2.6-1.2C765.3,418.5,764.5,418.8,763.2,418.9z"/>
	<path d="M778.6,436.4c-1.8,0.7-2.9,1-4.6,0.3C775.5,436,776.5,435.3,778.6,436.4z"/>
	<path d="M627.1,527.7c0.9,1.3,1.3,2.1,0.1,2.9C626.2,529.7,626.5,528.9,627.1,527.7z"/>
	<path d="M683.4,582.9c1,0,2.1,0,3.1,0c0,0,0,0.1,0,0.1c-1,0-2,0-3,0C683.5,583,683.4,583,683.4,582.9z"/>
	<path d="M780.5,427.2c1.4-0.7,2.4-0.5,3.4-0.1C782.6,427.9,782.6,427.9,780.5,427.2z"/>
	<path d="M770,418.3c0.5-0.9,1.2-0.7,2.1-0.5c0.3,0.9-0.4,0.9-0.9,1C770.7,419,770.2,418.9,770,418.3z"/>
	<path d="M658.1,595.9c1.4,0.6,1.7,1.4,2.3,2.4C659,597.7,658.7,596.9,658.1,595.9z"/>
	<path d="M653.3,502.2c1.3-0.4,1.8,0.1,2.3,0.8C654.5,503.6,653.8,503.2,653.3,502.2z"/>
	<path d="M749.2,437c1-1.2,1.4-0.3,2.3,0.2C750.5,437.7,749.9,437.9,749.2,437z"/>
	<path d="M681.1,609.4c-0.3,0.6-0.9,0.9-1.8,0.8C679.8,609.4,680.2,609,681.1,609.4z"/>
	<path d="M659.8,503.6c-0.4-0.7-0.3-1.1,0.2-1.3c0.3-0.1,0.7,0.1,0.8,0.4C660.8,503.3,660.4,503.5,659.8,503.6z"/>
	<path d="M718.4,421c0-1.6,0.9-1.1,1.6-1.4C720,420.8,719.3,420.9,718.4,421z"/>
	<path d="M803.6,419c0.6-0.7,1-0.3,1.5,0C804.4,420,804.1,419.5,803.6,419z"/>
	<path d="M790.4,426.6c-0.8,0.8-1.4,0.3-2.6,0.4C789,426,789.6,425.9,790.4,426.6z"/>
	<path d="M781.4,435.9c-0.1-0.7,0.2-1,0.8-0.8C782.5,436,781.7,435.8,781.4,435.9z"/>
	<path d="M662.9,577.5c0.1-0.7,0.6-1.1,1.3-1.6c0.2,1-0.3,1.5-1,1.9C663.1,577.8,663,577.7,662.9,577.5z"/>
	<path d="M799.4,419.4c-0.9,0.6-1.4,0.4-1.9,0.1c-0.1-0.8,0.5-0.6,0.8-0.6C798.6,419,798.9,419.2,799.4,419.4z"/>
	<path d="M638.6,427.1c-1,0-1.2-0.5-1.1-1.5C638.2,425.8,638.7,426,638.6,427.1z"/>
	<path fill="none" d="M265,366.1c-0.3,0.4-0.5,0.8-1,1.5c4-0.3,7.6-0.4,11.2-1c7.8-1.3,15.6-1.2,23.4,0.3c7,1.4,14.1,1.9,21.2,0.9
		c4.8-0.7,8.3,2.1,11.3,5.9c2.7,3.5,5.4,7.2,10.4,8.5c6.3,1.7,11.5,5.8,15.8,10.6c6.3,6.9,12.2,14,18.4,20.9
		c6.3,7,12.4,14.1,19.2,20.7c1.5,1.5,3,2.8,5.1,3.7c1.8,0.7,3.1,2.8,4.7,4.3c-4.4,6.6-8.7,13.1-13,19.6c-1.8,2.6-4.1,5-4.6,8.4
		c-0.2,1.4-1.6,2.3-2.7,3.2c-2.1,1.8-4.2,3.5-6.3,5.3c-5,4.5-9.2,9.6-12.3,15.6c-0.2,0.4-0.5,0.8-0.7,1.2c-0.1,0.1-0.2,0.1-0.4,0.2
		c-6.1-7.7-13.9-13.5-22.2-18.9c-0.5-6.2-3.1-11.9-4.4-18c-0.3-1.1-0.8-2.2-1.2-3.4c-3.3-8.9-5.5-17.9-5.1-27.5
		c0.2-4.6,0.2-9.2,0.2-13.8c0-0.3-0.2-0.6-0.4-1.2c-1.5,1.2-1.5,2.8-1.6,4.2c-0.2,4.6-1,9.2-1,13.9c-0.1,9.2,1.5,17.9,4.8,26.5
		c2,5.2,3.1,10.7,4.6,16.1c0.4,1.5,0.5,3.1-1,4.4c2,1.7,1.9,3.8,1.9,6c-0.1,3.3-0.1,6.7,0,10c0,3-0.1,5.9,0.5,8.9
		c0.9,4.4-0.3,8.8-0.4,13.5c-3.4,1-6.8,2.1-10.6,1.3c-1.8-0.3-3.6-0.5-5.3,0c-6.1,1.9-12.4,2.3-18.6,3.4c-2.2,0.4-4.3,1.4-6.6,1.5
		c-6.5,0.2-12.8-0.7-18.9-3.1c-3.7-1.5-7.7-2.6-11.3-5.1c-0.6-2.4-1.2-5.1-1.9-7.9c1.4-3.4,0.9-7-0.5-10.5
		c-4.1-10.4-6.6-21.4-9.9-32c-1.7-5.5-3.4-10.9-6.2-15.9c-1.1-1.9-0.7-4.6-3-6c2.2-2.5,0.6-4.8-0.4-6.9c1.6-1.4,3.7-1,5.8-2.2
		c-2.9-0.1-5.3,0.1-7.8,0.6c-1-0.5-2.1-0.9-3.2-1.5c-0.8-2.1-1.6-4.2-2.4-6.2c0.4-0.5,0.7-1,1-1.5c-0.1-0.4-0.3-0.7-0.4-1
		c-4-10.2-7.1-20.7-6.6-31.9c0.1-1.7,0.5-3.2,1.3-4.7c3.1-5.8,5.9-11.7,7.3-18.2c0.3-1.2,0.9-2.2,1.7-3c0.9,0.9,0.9,2.2,1.4,3.2
		c1.9-0.2,3.5-1.7,5.1-0.5c1.1-0.2,1.4-1.2,2-1.6c0.9,0.1,1.2,1.3,2.3,0.9c0.8-1.4-0.1-2.9-0.2-4.3c1.1-0.7,2.1-0.6,3.5-0.5
		c0.2,1.1-0.7,2.6,1.1,3.3c0.3-1,0.7-2.1,1.1-3.4c1.1-0.1,2.3-0.2,3.5-0.2c0.7,1.3,0,3.3,2,3.9L265,366.1z M368.8,464.6
		c-1.1-1.4-2.6-2.1-4.2-2.5c1.1,1.2,2.4,2.1,3.9,2.8c3,3.5,6,7,10.4,8.9C375.3,471,372.6,467.2,368.8,464.6z M288.4,519.6
		c-0.4-1.7-0.7-2.9-0.9-4.1c-1.3-6.2-2.8-12.3-5.3-18.1c-1.2-2.7-2-5.6-2.2-8.6c-0.3-3.4-1.2-6.7-2.3-10c-1.1-3.3-2.9-6.3-3.8-9.6
		c-2.5-9-5.7-17.9-6.7-27.3c-0.1-0.7-0.3-1.4-1.2-1.7c-0.6,1.1-0.3,2.3,0,3.4c2.1,10.6,4.7,21.1,8.8,31.2c1.9,4.7,3.7,9.5,4,14.7
		c0.1,1.5,0.6,3,0.9,4.5c0.7,3.4,2.5,6.4,3.4,9.7c1.2,4.4,2.3,8.7,3.2,13.2C286.5,517.9,286.5,519,288.4,519.6z M266.9,437.9
		c1.8-3,0.5-4.9-0.9-6.4c-3.3-3.6-6.2-7.5-9.7-10.9c-2.1-2-3.2-4.5-3.5-7.5c-0.3-2.8,0-5.6-0.9-8.8c-0.6,2.2-0.6,4-0.4,5.7
		c0.5,4.1,0.8,8.3,3.6,11.7c2.6,3.1,5.1,6.3,7.7,9.3C264.5,432.9,266,434.8,266.9,437.9z M300.1,371.6c-2.4,1-2.3,2.6-2.3,3.9
		c-0.2,4,1.4,7.7,2.6,11.4c0.3,0.8,1,1.6,2.3,1.2C301.2,382.7,301.8,377.1,300.1,371.6z M280.2,367.8c-0.5-0.2-1.1-0.1-1.2,0.4
		c-1.9,6.4-3.2,12.9-4.5,19.5C278.3,382.2,281.3,371.4,280.2,367.8z M253.2,396.3c1.1-9.2,2.1-17.7,3.1-26.3c-1.6,0.2-1.9,1.1-2,2.2
		c-0.7,6.3-1.4,12.7-2,19C252.2,392.7,252,394.3,253.2,396.3z M347.8,442.1c5.4-3.8,12-4.6,17.9-7.1
		C359.3,436.3,352.8,437.3,347.8,442.1z M326.9,403c-1.3-4.5-2.7-8.8-5.3-12.8c1.1,4.3,2.7,8.5,4.2,12.6
		C326,403.2,326.3,403.3,326.9,403z M344,412.3c-4.8,0.7-7.4,1.8-8.8,3.6C338.6,415.3,341.5,414.2,344,412.3z M247.3,376.5
		c-3.1,2.1-4,5.2-2.6,8.1C245,382,246.5,379.7,247.3,376.5z M250.9,436c3.4,1.3,3.9,1.3,8.5-0.5C256.6,435.7,254.1,435.1,250.9,436z
		 M318.9,380c0.8-4.5,0.7-5.3-1.5-7.4C318.7,374.9,318.7,377.5,318.9,380z M325.2,380.1c1.8-0.2,3.7,0.7,6.2-0.1
		C328.8,378.3,327,380,325.2,380.1z M370.9,455c-1.8,0.6-3.7,0.4-5.4,1.2C367.4,456.7,369.2,456.3,370.9,455z M254.6,445.4
		c-1.6-1.1-2.8-1.7-4.5-1C251.4,445.1,252.5,445.4,254.6,445.4z M360.2,457.6c0.5,0.6,1,1.3,1.9,2.3
		C361.9,458.3,361.2,457.8,360.2,457.6z M358.3,455c0.1-0.5-0.2-0.8-0.6-0.9C357.5,454.6,358,454.7,358.3,455z"/>
	<path fill="none" d="M314.9,206c-0.6,0.9-1.7,0.8-2.5,1.2c-2.3,1-4.7,1.5-6.5,3.6c-1,1.2-3,0.8-4.2,2.2c2.4-0.4,4.5-0.9,6.6-1.6
		c6.9-2.1,13.9-3.5,21-1.4c8.1,2.4,16.4,2.2,24.8,2c2.4-0.1,4.8-0.5,7-1.3c7.5-2.9,15.2-2.5,22.9-1.3c4.1,0.6,8.3,1.1,12.3,1.7
		c10.4,1.6,20.8,3.4,30.8,6.6c5.8,1.9,11.8,1.8,17.7,3c1.8,0.3,3.5,0.6,4.9-0.7c3.1,0,5.5,1.9,8,1.9c1.4-0.6,0.7-1.7,1.1-2.3
		c0.2-0.1,0.4-0.2,0.7-0.2c6,0.1,11.9-1.1,17.6-2.5c3.6-0.9,6.8-0.4,9.9,1.3c0.7,0.4,1.5,0.8,2.3,1.2c-1.7,1.2-3.2-1.4-4.9-0.1
		c-0.1,1.2,0.8,1.5,1.7,1.8c2.6,1,5.3,1.1,8.1,1.4c3.8,0.4,7.4,1.4,10.6,3.7c1.3,0.9,2.8,1.2,4.4,1.4c0.9,0.1,1.9-0.2,2.8,0.5
		c-0.9,1.2-2.1,1.5-2.9,1.6c-9.4-4.6-18.9-7.5-28.9-8.3c-0.4,1.2,0.3,1.7,0.9,1.9c0.9,0.4,1.8,0.8,2.7,0.8
		c6.6,0.1,12.3,3.3,18.5,4.7c0.4,0.1,1,0.1,1.3,1c-4.7,0.1-9.3,0.2-13.8-0.6c-1.6-0.3-3.3-0.6-4.9-1c-1.7-0.3-3.2-0.2-4.8,0.5
		c-1.5,0.7-3.2,1.1-4.8,1.3c-4.1,0.4-8.1,1.6-12.2,2.2c-2.4,0.3-4.7-0.3-7-1c-1.1-0.4-2.2-0.9-3-1.2c-1.5-0.1-1.6,1.2-2.3,1.5
		c-7.6,0.5-15.1,0.7-22.5,1.6c-8.1,1-16.3,2.1-23.8,5.7c-5,2.4-10.4,2.3-15.7,2.8c-4.9,0.4-9.7,0.3-14.6,0.8
		c-3.8,0.4-7.6-0.3-11.4-0.8c-3.6-0.5-7.1-0.6-11.1-0.6c1.7-1.9,3.1-3.6,4.6-5.2c-1.2-0.8-1.8,0-2.6,0.6c-1.3,0.9-2.3,2.5-4.3,1.4
		c-0.3-0.2-1.1,0.3-1.6,0.6c-9.2,4.3-18.9,7.3-28.9,8.8c-6.8,1-13.8,0.6-20.5-1.4c-5.1-1.5-10.4-2.6-15.2-5
		c-3.2,1.7-5.9,3.6-7.3,7.1c-1,2.5-2.4,4.9-4.1,7.1c-0.3,0.4-0.5,0.8-0.1,1.7c1.4-0.7,2-2.1,2.9-3.2c1-1.1,1.9-2.1,2.9-3.2
		c1-1.2,2-2.3,3-3.5c1.2,0.4,1,1.6,1.4,2.4c1,2.2,1.9,4.4,3.7,6c1.5,1.4,2.8,2.9,2.9,4.9c1.8,1.5,3.6,2.1,5.9,2.4
		c-0.9-2.9-2.9-4.1-5.5-4.5c-1.8-4.8-3.5-9.4-5.4-14.7c3,1.3,5.2,3,7.8,3.9c2.6,0.9,5.3,1.1,7.9,1.7c0.6,2.1,0.1,3.8-0.4,5.5
		c-2.1,6.7-5.2,13-8.8,19.1c-1.4,2.4-3.4,4.2-6.5,4.5c-1.6,0.1-3.2,0.6-4.6,0.9c-1.4-0.4-1.4-2-2.7-2c-1.1-0.1-1,1.2-2.2,1.7
		c-8.3-1-16.3-3.5-23-9.5c-3.3-2.9-5.8-6.6-8.9-9.7c-1-1-1.5-2.4-2-3.8c-2.3-5.7-3.3-11.7-2.6-17.8c0.5-4.5-0.1-9,0.8-13.5
		c1.1-5.3,3-10.2,6.5-14.5c0.7-0.8,1.4-1.7,1.8-2.7c1.6-4.1,4.8-6.5,8.7-7.9c8.2-3,16.5-5.5,25.2-6.3c4.7-0.4,9.6-0.7,13.6,2.6
		c3.4,0.2,6.2,2,9.2,3.1c1,0.4,1.9,0.9,2.9,1.3c0.4,3.1,2.6,4.4,5.1,5.4c1.2,0.5,2.5,0.6,3.8,0.9L314.9,206z M350.9,222
		c0.4,1.2,1.3,1.5,2.2,1.9c3.7,1.7,6.8,0.3,9.4-2c1.7-1.5,3.6-2.6,5.7-3.5c0.4-0.2,0.9-0.2,1-0.8c-3.8-1.4-7-0.4-14.6,4.3
		C353.5,221.9,352.3,221.5,350.9,222z M306.3,230.2c3.7,2.4,9.2,0.4,11.4-4C314.2,228.3,310,228.5,306.3,230.2z M276.3,198.6
		c2.3,1.7,5,1,7.5,0.9C281.4,198.8,279.1,197.2,276.3,198.6z M272.3,236.6c-1.7-2.8-3.3-3.3-5.2-1.6c0.8,0.2,1.6,0.5,2.4,0.7
		C270.3,236,270.9,236.9,272.3,236.6z M373.9,235.5c-3.9-1.2-4-1.2-5.5,0.8C370.4,236.2,372.2,236.4,373.9,235.5z M269,258.2
		c-1.2,1.9-2.4,3.2-3,5.3C270,260.9,270,260.9,269,258.2z M371.1,226.6c-2.2-1.7-2.8-1.7-4.6-0.1
		C368.1,227.4,369.5,226.9,371.1,226.6z M322.1,222.5c-2.1,0.4-3,1.2-3,3.1C321.2,225.5,321.5,224.2,322.1,222.5z M379.5,225.6
		c1.5,1.5,3,1.1,4.9,0.9C382.8,225,381.3,225.3,379.5,225.6z M418.5,217.7c1.9,0.9,3.3,1.3,5.2,0.9
		C422.1,217.3,420.6,217.3,418.5,217.7z M387.1,235c-1.8-1.4-2.9-0.6-4.1,0.2C384.4,235.9,385.5,235.5,387.1,235z M371.9,217.3
		c1.3,0,2.1-0.4,2.7-1.1C372.8,215.3,372.8,215.3,371.9,217.3z M262,235.4c-0.9-0.7-1.5-0.7-2.2-0.3
		C260.3,235.9,260.9,236.2,262,235.4z M378.7,216.6c0.3,0.8,0.8,0.9,1.2,0.7c0.5-0.1,1.2-0.2,0.9-1C380.1,216,379.5,216,378.7,216.6
		z M261.3,266c-1,1.1-2.1,1.6-1.8,3.1C260.6,268.4,261.5,268,261.3,266z M392.9,225.9c-1.3-0.7-2.3-1-3.4-0.1
		C390.5,226.5,391.5,226.5,392.9,225.9z M360.2,235.7c-1-0.5-1.6-1.7-2.1,0.1C358.7,236.2,359.2,236.2,360.2,235.7z M391.1,233.6
		c-0.8-0.3-1.2,0-1.4,1C390.5,234.4,391,234.5,391.1,233.6z M399.1,225.1c-0.7-0.7-1.4-0.8-2.1-0.1
		C397.7,225.7,398.4,225.8,399.1,225.1z M327.1,220c0.8-0.9,1.7-0.7,1.6-1.7C327.9,218,327.3,218.1,327.1,220z M413.6,217.6
		c-0.1-0.2-0.2-0.5-0.4-0.5c-0.2-0.1-0.6,0-0.6,0.2c-0.1,0.4,0.1,0.6,0.5,0.7C413.2,218,413.4,217.7,413.6,217.6z M288.8,200.8
		c0-0.2,0-0.4-0.1-0.5c-0.3-0.4-0.9-0.7-1-0.2C287.5,200.5,288,201.1,288.8,200.8z M257.4,269.3c-1-0.6-1.1,0-1.3,0.7
		C257,270.3,257.3,269.9,257.4,269.3z M256.9,234.8c-0.1-0.2-0.1-0.5-0.3-0.5c-0.1-0.1-0.5,0-0.6,0.1c-0.3,0.3-0.1,0.6,0.3,0.7
		C256.5,235.1,256.7,234.9,256.9,234.8z"/>
	<path fill="none" d="M297.9,652c0-0.4,0-0.7-0.1-1.4c-6.3,0.2-12.3-1.9-18.6-2.8c0-2.7,0-5.2,0-7.7c0.2-12.3-0.5-24.5-3-36.5
		c-2-9.6-2.9-19.3-2.9-29.1c0-8,1.3-15.8,3.9-23.5c0.3-0.8,0.5-1.6,0.9-2.3c3.3-5.6,5.8-11.7,9.4-17.2c1.2-1.7,1.2-3.8,2.3-5.6
		c1.2-0.4,2.2,0.4,3.4,0.4c3.2,0.1,6.4,0.3,9.5-0.7c2.6-0.8,5.3-1.2,8-1.4c3.9-0.4,7.8-0.8,11.6-2c2.9-1,5.8-0.7,8.8,0.3
		c-0.3,4.2-1.3,8.1-3.6,11.5c-4,2-4.9,6.1-6.5,9.8c-2.7-1.9-0.6-5.7-3-7.8c0.2,2.6-0.4,5,0.2,7.4c0.1,0.4,0,0.9-0.1,1.4
		c-1.3,6.8-1.8,13.6-3.5,20.4c-0.8,3.3-1.2,6.8-1.7,10.2c-0.4,2.6-1.2,5.1-2.1,7.5c-4.2,10.7-6.5,21.8-7.3,33.3
		c-0.5,6.8-0.9,13.5-0.6,20.3c0.1,2.9,0.5,5.7,0.9,8.5C301.9,647.5,300.7,650.4,297.9,652L297.9,652z M296.9,537.7
		c-1.2,6-1.4,11.9-1.6,17.9c0.8-2.9,1.5-5.9,2-8.9C298.5,540.5,298.5,539.5,296.9,537.7z M282.4,639.3c-0.7,2.2-0.2,5.3,0.8,7.2
		C284,645.2,284,645.2,282.4,639.3z M294.4,564.1c1.9-3.5,2.1-4.7,0.9-6.4C293.8,559.7,294.8,562,294.4,564.1z M281.9,626.2
		c1.6-2,1.5-2.5-0.4-4.8C280.9,623.2,281.2,624.7,281.9,626.2z M282.3,637.3c0.7-1.2,1-2.4-0.1-3.9
		C281.2,634.9,281.3,636.1,282.3,637.3z M282.1,627.6c-1.4,1.3-1.2,2.3-0.1,3.7C282.9,630,283,628.9,282.1,627.6z M292.5,578.5
		c0.9-1.6,0.9-1.6,0.9-3.4C292.4,576.6,292.4,576.6,292.5,578.5z M289,600.9c1.3-0.9,1.2-1.8,0.8-2.8c0,0-0.2,0-0.3,0.1
		C288.9,598.8,288.6,599.6,289,600.9z M295.4,535.2c0.5-0.8,0.4-1.3-0.4-1.8C294.3,534.3,294.5,534.8,295.4,535.2z M312,531.6
		c0.1-1.1-0.3-1.3-1-1.2C311,531.1,311.4,531.3,312,531.6z M291.9,583.6c-0.6,0.7-1.1,1.2-0.2,1.8
		C292.3,584.9,292.4,584.4,291.9,583.6z"/>
	<path fill="none" d="M417.2,470.7c-0.8,0.7-1.8,1-1.9,2.1c0.1,0.4,0.4,0.6,0.7,0.7c1.2,0.3,1.6-0.8,2.2-1.2
		c7.9,6.3,14.3,13.8,20.1,22.1c7.1,10.2,14.6,20.3,22.6,29.8c6.3,7.5,12.4,15.1,20,21.3c2,1.6,4.3,2.4,6.4,3.4
		c0.6,1.3,0.2,2.3,0.1,3.3c-2.3,1.8-5.1,3.3-6.8,5.6c-1.5,1.9-3.1,3.5-5.2,5c-2.3-0.6-4,1.2-6.2,2.3c-1.7-3.8-5-5.9-7.8-8.5
		c-3.7-3.4-7.6-6.5-11.7-9.4c-4.5-3.1-9-5.9-14.3-7.8c-5.2-1.8-10.2-4.6-14.9-7.6c-4.1-2.6-8.2-5.3-13.1-6.9c-1-1.7-2.5-3.2-4-4.7
		c-5.5-5.7-9.7-12.2-11.9-20c-1-3.4-2.9-6.5-3.7-10c-0.1-0.4-0.2-0.9-0.3-1.3c1.3-1,2.6,0.1,4.2-0.4c-3.2-2.2-6.2-4.2-9.5-6.4
		c1.7-1.6,3.3-3.1,5-4.6c2.3-2.1,4.3-4.4,4.9-7.7c0.1-0.8,0.6-1.6,1-2.2c4.1-5.7,7.7-11.7,10.9-18c0.2-0.3,0.5-0.5,0.7-0.8
		c2.2,2.2,6.1,8.6,6.9,11.4c-0.5,1-2.1,1.1-2.5,2.3c-0.3,0.9-1.4,1.6-1.3,3.1c1.7-0.5,2.9-1.4,4.2-2.3
		C414,465.4,415.3,468.1,417.2,470.7z M401.6,461.4c-1.5,0.5-1.9,1.4-1.7,2.6c0.4,2.7,3.9,5.6,6.9,6
		C407.5,466.4,406,464,401.6,461.4z M424.2,505.1c-2.2-3.5-5.2-6.3-8.2-9.1c-1-0.9-2.3-1.7-3.5-2.4c-0.7-0.4-1.5-0.7-2.3,0.5
		C415.2,497.3,419.8,501.1,424.2,505.1z M430.1,513.9c-0.5-4-0.6-4.2-3.4-5.2C427.2,511,429.4,512,430.1,513.9z M456.7,546
		c-1-1.4-0.9-3.9-3.9-3.6C453.3,544.5,454.8,545.5,456.7,546z M473,560.7c-0.2-2-1.6-2.7-3.1-4c0.6,1.4-0.4,2.4,0.3,3.3
		C470.9,560.6,471.8,560.8,473,560.7z M392.2,487.5c1.3,1.5,3.1,1.5,5.4,2.5C394.3,486.3,394.3,486.3,392.2,487.5z M460.8,548.7
		c-0.6-1.4-1.3-2-2.9-1.4C458.6,548.4,459.2,549.4,460.8,548.7z M462.9,551.2c0.4,1.2,0.9,1.8,2.3,1.2
		C465,551,464.3,550.7,462.9,551.2z M468.6,556.1c-0.1-1.3-1-1.3-2-1.5C467,555.9,467.4,556.5,468.6,556.1z M405.9,489.5
		c-1.1-0.8-1.1-0.8-2-0.2C404.4,490,405,489.9,405.9,489.5z M402.5,489.5c-0.4-0.7-0.9-1.4-1.9-0.5
		C401.1,489.9,401.7,490.1,402.5,489.5z M401.1,496.1c0.8,0.4,1.4,0.6,2.1-0.4C402.4,495.4,401.8,495.4,401.1,496.1z M434.3,523.5
		c0.6-1.2,0.2-1.5-0.7-1.7C433.2,522.7,433.6,523,434.3,523.5z M436.2,528.9c0.1-0.9,0-1.5-1-1.4
		C435.1,528.2,435.2,528.6,436.2,528.9z"/>
	<path fill="none" d="M317.9,123.2c-0.2,1.6,1.4,1.3,2.1,1.7c-0.1,3.6,0.7,7,1.9,10.2c0.9,2.3,1.2,4.2-0.8,6.2c-1.5,1.5-1,3.3-0.2,5
		c1.1,2.2,2.3,4.4,3.3,6.7c0.6,1.2,0.9,2.4,1.4,3.6c-0.9,3.9-4.1,0.9-5.6,2.2c-1-0.1-1.1-1.2-2.1-1.1c-0.2,0.2-0.6,0.5-0.5,0.8
		c0.1,2.4,1.1,2.9,4.2,2.3c0.5,0.4,0.3,1.1,0.4,1.6c0.1,0.6,0.2,1.2,0.2,1.6c-0.9,3.4-5.4,1.5-6.6,4.5c1.8,1.4,2.7-0.7,4-0.7
		c0.9,0.3,1.3,1,1.6,1.9c-0.3,0.6-0.4,1.4-0.8,1.9c-1.5,1.6-1.3,3.5-0.9,5.4c0.8,3.9-0.1,5.1-3.8,6.1c-3.2,0.9-6.4-0.2-9.6,0.5
		c-1.4-1.2-3-1.9-5.1-2.2c1.2,1.4,2.6,1.7,4.1,2.5c-4.5,3.2-2.7,7.9-3.1,12.3c-2.7-0.7-5.2-1.9-7.7-3c-1.7-5.9-2.2-6.8-5.8-9.9
		c1.3,3.3,3.2,5.8,3.7,9.2c-4.3-1.9-8.5-2.2-12.8-2c-2.1,0.1-4.3,0.2-6.3,0.9c-3.2,1.1-6.6,0.1-10.2,1.5c3.5-6.8,2.8-13.6,2.8-20.5
		c0.5-0.7,1-1.5,1.7-2.5c-1-3.1,0.1-6,1.6-8.9c0.8,0,0.8,0.6,0.8,1.2c0,0.5,0.2,0.9,0.5,1.3c1.9-0.1,0.6-1.6,1-2.4
		c3.3,0.1,5,4.1,8.7,3.6c1-0.6,1.8-1.4,1.3-2.8c-1.1-0.5-1.3,1-2.2,0.9c-2.1-0.9-4.2-1.7-5.7-3.9c-0.8-1.2-2.1-1.9-3.1-2.9
		c-2.9-2.7-3.2-5.2-0.8-8.5c1-1.3,2-2.6,3-4c0.8-0.1,1.4-0.1,1.8,0.7c-0.9,0.2-1.5,0.7-1.7,1.6c-0.5,2.4-2,4.2-3.8,5.9
		c0.6,1.6,1.5,2.8,3.1,3.6c0.5-1.6-1.4-2.1-0.9-3.6c0.3-0.3,0.6-0.9,1.3-0.7c1.3,1.2,1,3,2,4.9c1.3-2.8-0.3-4.6-0.9-6.7
		c0.2-0.9,0.4-1.8,1.3-2.6c0.7,0.8,1.4,1.6,2.1,2.3c-0.2,1.4-1.2,2.4-1.2,3.8c-0.1,1.4,1,2.7-0.3,4c3.8,1.2,3.9,1.2,5.5-1.1
		c-0.1-2.4-3.8-1.1-3.7-3.7c0.1-0.7,0.5-1.2,1-1.7c0.6-0.1,1.3,1,1.7-0.5c-1.9-1.8-3.8-3.7-5.7-5.6c1.3,0,2.2,0.9,3.2,1.4
		c1,0.4,1.9,0.9,2.8,1.4c1.9,2.5,1.9,5.9,4,8.1c1.3-0.3,0.6-1.6,1.3-2c1.4-0.6,2,1.5,3.7,1c-0.6-1.4-2-2.3-2.2-4.2
		c0.3-3.4,2.1-6.6,4.7-9.3c2.7-3,5.6-5.7,8.9-8.2c1-0.8,2.2-1.5,3.1-2.4c0.8-0.8,1.3-2,2.1-3.2c2.3,0.7,4.8,1.2,7-0.6
		c0.4-1.1-1.3-0.3-1.2-1.5c2-0.5,4.1-1.2,6.3-1L317.9,123.2z M283.3,169.8c-0.5-0.1-0.9-0.1-1.2,0.8c0.5,1,0.6,2.3,2.1,3.9
		c-0.5-1.8-0.7-3.1-0.7-4.4c1.5,0.5,2.2,2.7,4.5,2.1c-1.4-1.5-2.5-2.9-3.7-4.2c-0.1-2-0.5-3.7-1.5-5.5
		C281.5,165.2,281.5,166.2,283.3,169.8z M318.4,137.9c-5.2-2.8-12.5-1.8-15.4,2c2.6,1.3,4.5-1.7,7.1-1.2c2.4,0.5,4.8,1.3,7.2,1.2
		C318,139.5,318.4,139,318.4,137.9z M315.6,141.5c-3,0.3-5.7,0.7-7.6,3.2c2.5-0.2,5.1,1.8,7.7-0.4
		C314.9,143.5,315.8,142.7,315.6,141.5z M271.3,172.2c-1,1.2-1.3,2.5-0.2,4C272,174.7,271.7,173.5,271.3,172.2z M272.3,185.6
		c0.3,1.3,0.2,2.5,2.1,3.4C273.7,187.5,274,186.3,272.3,185.6z M272.2,182.2c0-1.8,0.3-2.9-1-3.7C271,180.2,271,180.2,272.2,182.2z
		 M293,158c-0.5-1.3-0.9-2-2.1-1.6C291,157.6,291.8,157.7,293,158z M293.9,158.7c1,1,1.2,2,2.5,1.4
		C296.1,159.2,295.6,158.8,293.9,158.7z M286.7,181.3c0.4-0.2,0.4-0.6,0.2-0.9c-0.2-0.3-0.4-0.9-1-0.4
		C285.8,180.6,286,181.1,286.7,181.3z"/>
	<path fill="none" d="M487.4,600.6c-1.6-2.3-2.5-4.3-4.1-6c-2.1-2.3-3.7-4.7-4.3-8c-0.6-3.4-2.4-6.4-5.7-8.2
		c-2.6-1.5-4.3-3.8-5.1-7.6c4.2,4.9,8.8,5.6,14,3.7c1.7-0.6,3.3-1.3,5-1.9c3.7-1.4,5.1-4.3,4.8-7.9c-0.4-3.8,0-7.6-0.9-11.4
		c-0.3-1.2,0.1-2.4,0.3-3.5c0.3-1.4,0.5-2.8-1.3-4c2.3-0.3,4.2,0.4,6-0.1c1.4,2.6,1.2,6,4.5,7.3c3.2-2.2,1.2-5.3,1.5-8.2
		c1.6,1.2,1.7,3.8,4.3,3.8c1-1.3,0.6-2.8,0.3-4.1c0.4-0.9,1-1,1.6-1.1c1.4,0.1,1.7,2.1,3.2,1.9c1.6-0.6,0.5-2.2,1-3
		c1.5-1.8,3.2-0.6,4.5-0.6c1-0.6,0.2-1.5,0.4-1.9c5.9-3.6,11.2-7.6,16.4-11.7c3.4-2.6,4.9-2.7,8.2-0.2c1.5,1.1,3,2.3,4.4,3.4
		c0.2,1.9-0.6,3.4-1.4,4.8c-5,9.4-11.1,18-17.8,26.2c-1.1,1.4-2.4,2.6-3.8,3.7c-2.3,1.7-4.5,3.5-6.5,5.6c-0.8,0.9-1.8,1.7-2.4,2.7
		c-2.8,4.8-5.7,9.6-8.3,14.5c-0.6,1.2-1.2,2.3-2.2,3.1c-1.7,1.2-3.3,2.4-5.1,3.3C495.2,597.2,491.3,598.8,487.4,600.6z"/>
	<path fill="none" d="M469.9,569c7.1-3.6,13.4-7.6,18.4-13.4c1.3,7.1-0.1,11.8-4.6,14.2c-3,1.6-6.4,1.6-9.7,1.5
		C472.5,571.2,472.5,571.2,469.9,569z"/>
	<path fill="none" d="M409.2,240.7c14.4-4.6,29.2-6.7,44.3-7.4c1,0.4,1.9,0.8,2.9,1.3c0.1,0,0.1,0.2,0.2,0.5
		C440.7,236.2,425,238.8,409.2,240.7z"/>
	<path fill="none" d="M315,206.1c0.3-0.7,0.5-1.3-0.2-1.9c-0.7-0.6-1.4-1.2-2.7-2.3c9-0.7,16.6,1.1,23.9,5.4
		c-1.8,0.6-3.2-0.2-4.6-0.6c-5-1.2-10-2-15.1-0.6c-0.4,0.1-0.9,0-1.4-0.1L315,206.1z"/>
	<path fill="none" d="M269.5,361.7c8.4-1.3,16.7-0.1,24.6-0.4c0.9,0.6,0.8,1.1,0.8,1.6c-0.1,0.1-0.2,0.2-0.3,0.2
		c-0.3,0.1-0.7,0.3-1,0.2c-5.9-1.2-11.9-0.1-17.9-0.2c-1.1-0.1-1,1.7-2.2,1.6c-1.5,0.1-0.8-1.7-2.1-1.9c-1.2,0.1-1.2,1.2-1.4,2.5
		C268.8,364.3,269.1,363.2,269.5,361.7z"/>
	<path fill="none" d="M297.9,652c-0.2,1.8-1.5,3.1-3,3.6c-3.2,1.1-6.6,1.8-9.9,2.2c-2.2-2-4.3-3.9-6.3-5.7c0.1-0.1,0.2-0.2,0.3-0.3
		c1.4,0.6,2.7,1.3,4.1,1.7c3.6,1,7.3,1.1,10.8-0.5C295.1,652.4,296.4,651.8,297.9,652L297.9,652z"/>
	<path fill="none" d="M519.4,225.6c-1.6,2.1-2.8,2.9-4.7,2.6c-0.5-2.1-2.1-2.7-4.2-2.7c-3.2,0-5.5-2.6-8.5-3.4
		C507.8,222.5,512.9,225.6,519.4,225.6z"/>
	<path fill="none" d="M317.9,123.3c1.2-1.2,2.8-1.6,4.3-2c3-0.7,5.9-1.8,8.4-5.1c-0.3,2-0.9,3.1-1.8,3.6c-3.4,1.9-6.8,3.9-11,3.3
		L317.9,123.3z"/>
	<path fill="none" d="M477,232.4c2.3-0.8,4-1.4,5.7-2c1.2,0.4,2.4,0.8,3.8,1.3c-1.4,1.8-3,0.4-4.3,0.6
		C480.8,232.5,479.4,233.5,477,232.4z"/>
	<path fill="none" d="M307.5,361.7c0.8,1,0.6,2.1,0.8,3.2c-0.9,0.9-1.9,0.3-2.7,0.3c-0.8-1.1-0.2-2-0.3-2.7
		C306,361.4,306.8,361.8,307.5,361.7z"/>
	<path fill="none" d="M313.2,110.9c0.9-0.7,1.6-0.5,2.3-0.5c1.1,0.2,0.8,1.4,1.3,1.9c0.5,0.7,1.3-0.1,1.9,0.1
		c0.5,1.7-0.3,2.4-1.9,2.7C316.5,113.1,315.4,111.6,313.2,110.9z"/>
	<path fill="none" d="M265.1,366.2c0.1-1.1,0.2-2.1,0.3-3.2c0.1-0.9,0.6-1.2,1.7-1c0.2,1.2,0.5,2.4,0.7,3.6
		c-0.8,0.7-1.8,0.2-2.7,0.4L265.1,366.2z"/>
	<path fill="none" d="M274.5,118.6c0.3-1.4,0.8-2.1,1.5-2.9c0.8,1.1,1.6,2,2.4,3.1C276.7,119.9,275.9,117.7,274.5,118.6z"/>
	<path fill="none" d="M311.9,365.6c-0.6-0.1-0.9-0.1-1.5-0.2c0.1-1.2,0.1-2.4-0.1-3.7C312.1,361.9,312.1,361.9,311.9,365.6z"/>
	<path fill="none" d="M302.4,364.8c-2.3-0.6-1.3-2-1.6-2.9c0.6-0.6,1.1-0.4,1.6-0.3C303.2,362.6,302.7,363.5,302.4,364.8z"/>
	<path fill="none" d="M300.5,128.8c-1.5,1.2-3.1,2.3-4.7,3.6C296.3,130.1,296.3,130.1,300.5,128.8z"/>
	<path fill="none" d="M282.5,121.5c-0.9-1.6,0.3-2.2,0.9-3c1,0.5,1.3,1.2,1.4,2C284.2,121.1,283.6,121.6,282.5,121.5z"/>
	<path fill="none" d="M312.7,120.9c-1.7,0.9-3.4,1-5.2,0.6C309.1,120.5,310.9,120.3,312.7,120.9z"/>
	<path fill="none" d="M292.5,119.1c2.2-0.7,2.8,1.5,4.3,1.3c-0.1,0.7-0.4,1-1,1.4C294.8,121,293.8,120.2,292.5,119.1z"/>
	<path fill="none" d="M298.5,361.8c0.2,0.7-0.1,1.4-0.4,2.1c-1.4-0.1-1.5-1-1.4-2C297.3,361.2,297.9,361.2,298.5,361.8z"/>
	<path fill="none" d="M269.5,130.6c1,0.9,2.1,1.6,3.4,2c-0.3,0.9-0.6,1.4-1.3,0.8C270.7,132.7,269.8,131.9,269.5,130.6z"/>
	<path fill="none" d="M270.1,158.9c-1.3-0.5-1.6-1.7-2.4-3C269.6,157.1,269.6,157.1,270.1,158.9z"/>
	<path fill="none" d="M264.3,132.2c-0.3,1.8-0.8,2.4-2.2,2.6C261.9,133.3,262.4,132.6,264.3,132.2z"/>
	<path fill="none" d="M301,125.9c0.7-1.1,1.6-2.1,3.6-2.9C303.5,124.8,302.5,125.6,301,125.9z"/>
	<path fill="none" d="M300.6,119.8c1.1,0.5,1.9,1.2,2.2,3C301.2,122,301.1,120.7,300.6,119.8z"/>
	<path fill="none" d="M305.3,108.2c-0.2,0.8-0.6,1.2-1.2,1.2c-0.4-0.3-0.6-0.6-0.4-1.2C304.1,107.7,304.6,107.7,305.3,108.2z"/>
	<path fill="none" d="M273.2,140.8c1.2-0.7,1.8-0.6,1.9,1.4C274.2,141.9,273.4,142.2,273.2,140.8z"/>
	<path fill="none" d="M520.9,223.6c-1.7,0.4-2.6,0.5-3.7-0.1C518.4,222.5,519.2,223.2,520.9,223.6z"/>
	<path fill="none" d="M277.5,107.1c-0.8,0.6-1.3,1.6-2.2,0.6C275.7,106.6,276.4,106.7,277.5,107.1z"/>
	<path fill="none" d="M270.5,113.8c-0.2-1,0.2-1.3,0.7-1.6C271.6,113.2,271.6,113.2,270.5,113.8z"/>
	<path fill="none" d="M269,138.6c-0.5-0.8-0.4-1.3-0.2-1.9C269.8,137.3,269.8,137.3,269,138.6z"/>
	<path fill="none" d="M268.5,117.7c0.6,1,0,1.4-0.5,2.4C267.1,118.7,268.1,118.2,268.5,117.7z"/>
	<path fill="none" d="M284,133.4c0.4,1.1,0,1.4-0.7,1.6C282.6,134.2,282.9,133.8,284,133.4z"/>
	<path fill="none" d="M291.6,137c0-1.3,0.4-1.7,1.4-1.5C293,136.4,292.5,136.7,291.6,137z"/>
	<path fill="none" d="M266.1,150.7c0.6,0.5,1.1,1.1,0.6,2.1C265.7,152.3,265.5,151.6,266.1,150.7z"/>
	<path fill="none" d="M261.1,137.5c0.4,1.2-0.2,1.6-0.8,2.1C259.7,138.5,260,137.9,261.1,137.5z"/>
	<path fill="none" d="M262.7,147.1c0.9,0.9,0.3,1.5-0.3,2.2C261.9,148.5,261.9,147.8,262.7,147.1z"/>
	<path fill="none" d="M324.6,109.7c0.3,1.6-0.7,1.6-1.4,2C323,110.6,323.4,110.1,324.6,109.7z"/>
	<path fill="none" d="M288.4,131.4c0.3,1.2-0.2,1.4-1,1.5C287,132,287.4,131.7,288.4,131.4z"/>
	<path fill="none" d="M263.7,121.1c-0.2-1.1,0.2-1.5,0.8-1.7C265.2,120.3,264.4,120.5,263.7,121.1z"/>
	<path fill="none" d="M251.1,363.5c0.6,0.7,0.5,1.2-0.1,1.7C250.2,364.6,250.2,364.1,251.1,363.5z"/>
	<path fill="none" d="M890.4,628.4c-0.5,2.1-1.9,3.8-2.7,5.6c-0.7,0.4-1.4,0.5-1.8,0.2c-3.5-2.8-7.7-3.3-12-3.6
		c-4.6-0.4-9.3,0-13.9-0.5c-2.3-0.3-4.1-1.5-6.5-1.6c-4.5-0.2-9,0.2-13.5,0.5c-7.6,0.6-15.2,0.7-22.7-0.3c-3.6-0.5-7.4-0.4-11-1
		c-1.8-0.3-3.7-0.2-5.3-0.9c-7-2.9-14.5-4.7-21.1-8.6c-3.6-2.1-6.8-4.6-9.7-7.8c-2.1,1-4.1,0.6-6.2,0.3c-3.3-0.5-6.6-0.4-9.9-0.4
		c-2.9,0.1-5.6,0.2-7.5-2.8c1.3-2.2,3.6-3.6,5.2-5.7c1.2-1.5,2.5-2.9,3.7-4.4c1.6-2,3.1-4.1,5.5-5.5c1.5-0.9,2.6-2.4,3.7-3.8
		c2-2.6,3.9-5.4,6.2-7.8c1.1-1.1,1.7-2.6,2.3-4c0.6-1.3,0.9-2.7,2-3.9c3,0.6,5.9,1.3,8.4,3.3c1.6,1.3,3.3,2.1,5.5,1.9
		c2.1-0.2,4,1.2,6,2c1.2,0.5,2.4,1.1,3.7,1.3c6,1.1,11.7,3,17.7,4c6.6,1.1,12.7,3.8,18.9,6.3c0.8,0.3,1.5,0.8,2.1,1.3
		c3.1,3,6.8,4.7,10.7,6.2c8.8,3.5,17.7,6.7,27,9.2c5.3,1.4,10.4,3.3,15.9,3.8c1.4,0.1,2.8,0.3,4.2,0.4c1,1.1,1.2,2.4,0.7,3.7
		c-1.7,4.1-3,8.5-5.6,12.2c-0.2-0.7-0.3-1.4-1.2-1.5c-2.8-0.2-5.6-0.4-8.4-0.6C883.7,628.3,887,628.9,890.4,628.4z M785.7,604.2
		c3.8-1.1,7.5-0.6,11.3-0.7c3.9-0.1,7.8,0,11.6,0c0-0.2,0-0.5,0-0.7c-4.8-0.7-9.5-1.4-14.4-1.4C791.1,601.4,788,601.4,785.7,604.2z
		 M782.8,585.1c-4.4,0-8.6-1.2-11,3.3C774.6,591.1,777.7,590.2,782.8,585.1z M812.5,605.2c2.7,1.5,5.6,1.1,9.1,1.7
		c-2.9-1.7-5.2-3-8-3.3C813,603.6,812.5,604.1,812.5,605.2z M864.9,626.5c3.6,1.5,7-0.3,10.2,0.5c-1.8-2.5-3.9-0.9-5.5-0.6
		C867.9,626.4,866.7,624.9,864.9,626.5z M831,609.3c1.6,0.6,2.6,1.4,4.2,0.1C833.8,609,832.8,607.7,831,609.3z M777.8,578
		c-1.1,0.7-2,1.5-1.9,2.9C776.9,580.1,778,579.5,777.8,578z M829.1,608.5c-1.3-1.6-2.3-1.9-3.6-1.2
		C826.2,608.6,827.3,608.4,829.1,608.5z M863.1,625.7c-1-0.9-1.9-1-2.8,0.3C861.3,626.4,862.2,626.7,863.1,625.7z M777.7,605.2
		c1.1,0.8,1.1,0.8,2.2,0.3C779.3,605,778.7,604.6,777.7,605.2z M785,580.4c-0.2,0.2-0.6,0.3-0.7,0.6c-0.3,0.4-0.2,0.8,0.5,1.1
		C785.5,581.7,785.7,581.2,785,580.4z M837.9,610.2c0.7,0.3,1.3,0.7,1.6-0.2C839,609.8,838.5,609.5,837.9,610.2z"/>
	<path fill="none" d="M698.1,632.8c-2.2,1.9-4.4,4-7.2,5.7c1.5,1.5-0.3,2.7,0,4.3c-4.8,1.9-9.5,3.4-14,4.4c-5-2.8-8.7-6.2-11.9-10.6
		c0.3-2.3,1.5-4.3,3.7-5.9c3.9-2.8,7.3-6.2,10.3-9.8c3.9-4.7,9.1-7.5,14.3-10.5c0.8,1.5-1.1,2.3-0.5,3.9c1.8-1.2,2.4-3.2,3.6-4.6
		c0.2-0.1,0.4-0.4,0.6-0.4c5.6-0.6,11.2-2.1,16.9-2.3c4.4-0.2,8.8-0.4,13.2-0.3c2,0,4.6-0.1,6.2-2.4c-0.7-8.4-6.3-13.9-12.4-19.9
		c6-1.3,10.7-4.6,16.5-6.8c-1.9-0.7-3.7-0.5-4.5,0.3c-1.8,2.1-4.3,1.8-6.5,2.4c-2.3,0.7-4.6,1.3-6.9,0.9c-1.1-0.7-1.3-1.8-1.9-2.8
		c0.3-1.5,0.5-3.2,1-4.8c1.7-5.2,4.1-10.1,5.6-15.4c0.5-1.8,1.9-3.3,3.3-4.6c5.6-4.8,11.6-9.1,16.6-14.7c4.6,1.7,9.5,1.9,13.6,4.6
		c0.7,0.5,1.5,0.9,2.3,1.1c4.2,0.8,6.3,3.6,8.2,7.2c1.9,3.8,3.2,7.7,4.1,11.7c0.5,2,1,3.9,1.9,6c-0.9,1.8-1.7,3.8-2.1,5.9
		c-0.4,2.2-2,3.8-3.7,5.2c-3.8,3.1-7.2,6.6-10.2,10.4c-6.7,8.5-15.1,15.2-23.9,21.3c-3.3,2.4-7.1,4.3-10.8,6.3
		c-4.6,2.4-9.4,4.6-13.9,7.3c-2.9,1.7-5.5,3.7-8.5,5.2c-0.5,0.3-1.1,0.4-1.6,0.6c-0.2-0.5,0.7-1-0.1-1.7
		C698.5,630.6,696.7,630.9,698.1,632.8z M670,638.4c2.3-1.9,4.2-4.6,5.7-7.5c-2.6,1.9-6,2.9-7.4,6
		C668.5,637.7,668.8,638.2,670,638.4z M742,582.4c-0.4,3.7-3.2,6.3-3.8,10.2C742.6,586.9,743.4,584.8,742,582.4z M762.2,566
		c2-1,4.8,0.5,6.3-1.8c-0.3-0.7-0.8-1-1.2-0.8C765.6,564.1,763.5,564.3,762.2,566z M689.6,617.2c-2.4,1-2.4,1-2.5,3.2
		C688,619.1,688.8,618.2,689.6,617.2z M682.8,623.7c-1.5-0.1-1.9,0.5-1.8,1.8C682,625.2,682.4,624.6,682.8,623.7z M679.2,627.7
		c-1.3,0-1.7,0.4-1.8,1.3C678.6,629.4,679.1,628.9,679.2,627.7z M752.5,564.5c0.3,1,0.7,0.8,1.2,0.2
		C753.2,564.2,752.9,564.2,752.5,564.5z M733.3,599.2c0.1,0.3,0.3,0.4,0.5,0.2c0.7-0.4,1.1-0.8,0.6-1.6
		C733.5,597.9,733.5,598.6,733.3,599.2z M702.9,627.7c0.6-0.8,1.3-1.1,0.5-2C703.1,626.2,702.6,626.5,702.9,627.7z M745.8,575.1
		c-0.7-0.3-1.2-0.5-1.6,0.3C744.7,575.9,745.2,575.9,745.8,575.1z"/>
	<path fill="none" d="M665.9,345.4c1.7,0.4,3,1.8,4.8,2c0.2-0.7-0.5-1-0.7-1.5c0.8,0.4,1.9,2,2.9,4.7c0.7,2,1.2,4,2.8,5.5
		c1.2-0.3,0.4-1.6,1.4-2.1c1.2-0.4,1.8,1.8,3.5,1c-0.7-1.3-2.1-2.3-2.2-4.4c0.4-3.6,2.6-6.9,5.4-9.9c2.5-2.6,5-5.1,7.9-7.2
		c2.1-1.5,4.3-3,5.2-5.9c2.6,0.9,5.1,1.2,7.3-0.6c-0.1-1-1.4-0.1-1.6-1.5c2-0.1,4-1.1,6.1-0.9l-0.1-0.1c0.2,1.5,1.8,1.3,2.6,1.8
		c-0.6,5.2,2.4,9.7,2.7,14.5c-3.2,2.5-2.8,5.2-1.2,8.1c1.6,3,3.3,6,4,9.2c-0.7,2.4-2.3,1.6-3.8,1.7c-1.5,0.2-2.7,0.1-3.7-1.4
		c-0.8,3.4,0,4.2,3.4,3.5c0.6,0.4,0.4,1.1,0.5,1.6c0.1,0.6,0.3,1.1,0.4,1.7c-1,3.3-5.3,1.6-6.8,4.4c1.8,1.7,2.8-0.6,4.3-0.6
		c0.8,0.3,1.2,1,1.4,1.8c0,0.8-0.3,1.5-0.8,2c-1.3,1.5-1.5,3.1-0.9,5c0.3,0.9,0.5,1.8,0.3,2.8c-0.3,1.8-1.1,3.1-3.1,3.4
		c-1.9,0.3-3.7,0.8-5.6,0.6c-1.9-0.2-3.8,0-5.7,0c-0.8-1.7-2.5-1.5-3.9-1.7c1.1,1,2.3,2,4,1.6c-1.1,1.6-2.9,2.5-3.5,5.1
		c0.4,2.1-0.6,4.9,0.4,8.1c-3-1.2-5.5-2.3-8.1-3.3c-1-3.7-2-7.3-5.6-9.5c1.2,2.6,2.7,5.1,3.3,7.9c-0.5,0.7-1.1,0.5-1.6,0.2
		c-4.8-2.1-9.9-2-14.7-1c-4.2,0.8-8.5,0.8-13.1,1.8c3-3.9,2.6-8.2,3-12.3c0.2-2.6,0-5.2,0-8.1c0.5-0.7,1.1-1.6,1.8-2.6
		c-1.4-3.2,0.2-6,1.5-9c1.2,0.6,0.2,2.2,1.4,2.6c1.9-0.1,0.4-1.7,1.1-2.4c3.3,0.2,5,4.2,8.7,3.5c1-0.6,1.6-1.5,1.3-2.8
		c-1.3-0.5-1.4,0.9-2.7,0.9c-1.9-0.7-4.1-1.8-5.5-4.1c-0.7-1-1.9-1.7-2.9-2.6c-2.8-2.5-3.1-5.4-0.9-8.5c1-1.3,2-2.6,3-3.9
		c0.9-0.3,1.6,0.1,2.2,0.7c-0.8,0.1-1.8,0.2-2,1.1c-0.6,2.6-2.3,4.5-3.9,6.5c0.8,1.5,1.6,2.8,3.2,3.3c0.2-1.4-1.2-2-1-3.1
		c0.1-0.7,0.6-1,1.2-1.2c1.5,1,1.2,3.1,2.3,4.6c0.8-2.5,0-4.5-1.2-6.2c0.5-1,0.5-2,1.4-2.6c0.9,0.8,1.9,1.5,2.2,2.9
		c-2.1,2-0.6,4.8-1.3,7.2c3.5,1.1,3.6,1.1,5.4-1.1c-0.3-1-0.8-1.8-1.9-1.7c-1.3,0-1.5-0.9-2-1.7c0.1-0.7,0.4-1.3,0.9-1.9
		c0.6-0.4,1.4,0.8,1.9-0.2C669.8,349,667.3,347.7,665.9,345.4z M674.4,371.1c1.5,1,2.4,3.2,4.9,2.6c-3.7-2.1-3.8-6.1-5.5-10.2
		C672.6,366.8,673.2,369,674.4,371.1c-0.3,0.2-0.8,0.1-1.2,0.8c0.5,1,0.5,2.4,1.7,3.3C675.3,373.7,674.5,372.4,674.4,371.1z
		 M693.9,341.5c2.9,1.2,4.9-1.6,7.4-1.2c2.4,0.4,4.8,1.3,7.2,1.2c0.9-0.5,1.2-1.1,1.1-1.9C705.2,336.6,697.7,337.4,693.9,341.5z
		 M707,343.1c-3.1,0-5.7,0.8-7.9,2.8c2.1,1.1,5.7,1.1,7.9-0.1C706.2,345,707,344.2,707,343.1z M662.2,377.9c1-2.3,1-2.3,0.2-4.4
		C661.5,374.8,661.4,376.1,662.2,377.9z M662.7,380c-0.4,2.2-0.4,2.2,1,3.4C663.8,382.1,663.6,381,662.7,380z M664,387.2
		c-0.5,1.3-0.2,2.2,1,3C665.5,388.9,664.9,388.1,664,387.2z M681.8,357.9c0.7,1.2,1.3,1.6,2.5,1.6
		C683.9,358.4,683.5,357.6,681.8,357.9z M685.7,360.6c0.4,0.9,0.8,1.4,2.2,1C687.2,360.9,687,360,685.7,360.6z M678,382.7
		c0.1-1.1,0-1.6-1-1.5C677,381.9,677.3,382.3,678,382.7z"/>
	<path fill="none" d="M740.6,611.5c0.7,0.3,1.3,0.5,2,0.7c-0.1,3.5-0.2,7.1,0.4,11.1c-5.9,0.2-11.3-0.6-16.8-1.6
		C731.2,618.6,735.5,614.7,740.6,611.5z"/>
	<path fill="none" d="M674.2,458.1c0.6-3.8-1.1-6.8-0.8-10.2c0.6-0.9,2.4-1.1,1.8-3.1c2.1,1.5,4.1,2.2,6.2,2.3
		c1,4.1-1.2,14-3.7,16.7C676,462,676.1,459.4,674.2,458.1z"/>
	<path fill="none" d="M800.8,442.2c14.3-4.7,29-6.6,44.6-6.9c0.3,0.2,1.6,0.1,2.6,1.3C832,437.7,816.5,440.3,800.8,442.2z"/>
	<path fill="none" d="M727,408.9c-6.6-1.1-13.2-3.4-20.1-1.1c-0.2-2.1-1.8-2.9-3.3-4.4C712.4,402.8,720,404.5,727,408.9z"/>
	<path fill="none" d="M898.1,631.6c-2.1,0.5-3.6,0.5-5.1,1.1c3.1-6.1,5.8-12,5.7-18.8c0.9,0,0.9,1.1,1.4,1.8
		c0.5,0.8,0.9,1.7,1.4,2.7C900.3,622.7,899.2,627.2,898.1,631.6z"/>
	<path fill="none" d="M910.5,427.5c-1.3,1.6-2.5,2.4-4.5,2.3c-0.5-2.1-2.2-2.7-4.4-2.8c-3.2-0.1-5.4-2.6-8.5-3.2
		c3.1-1,5.6,1.1,8.3,1.8C904.3,426.2,907.2,426.8,910.5,427.5z"/>
	<path fill="none" d="M667.7,627.6c-0.9-0.6-1.5-1.7-3-1.2c3.2-2.5,6-5.4,10.7-6.5C672.9,623,670,625,667.7,627.6z"/>
	<path fill="none" d="M708.8,324.7c1.5-1,3.1-1.5,4.8-1.9c3-0.7,5.8-1.8,8.2-4.9c-0.4,2.2-1.2,3.4-2.5,4
		C716,323.3,712.7,325.5,708.8,324.7L708.8,324.7z"/>
	<path fill="none" d="M868.8,434.1c0.9-1.1,1.9-0.9,2.7-1.3c0.7-0.4,1.5-0.6,2.4-0.9c1.1,0.4,2.3,0.8,3.6,1.2
		c-1.3,2.3-3,0.2-4.4,0.7C871.9,434.3,870.4,435,868.8,434.1z"/>
	<path fill="none" d="M710.1,313.7c0.4,2-0.5,2.6-2,2.9c-1-2.8-1-2.8-3.6-4.5c0.8-0.4,1.6-0.4,2.6-0.2c0.3,0.6,0.7,1.3,1,1.9
		C708.9,314.3,709.3,313.7,710.1,313.7z"/>
	<path fill="none" d="M667.2,317c0.9,1.4,1.6,2.4,2.2,3.3c-0.8,0.8-1.2,0.3-1.7,0.1c-0.5-0.2-1.1-0.3-1.7-0.5
		C665.8,318.8,666.6,318.2,667.2,317z"/>
	<path fill="none" d="M698.7,323.1c1.8-0.5,3.4-1.8,5.8-0.6C702.5,323.7,700.5,323.1,698.7,323.1z"/>
	<path fill="none" d="M674.2,323.5c-1.6-2-0.1-2.6,0.7-3.6c0.5,0.7,0.8,1.3,1.2,1.8C675.8,322.8,674.8,322.6,674.2,323.5z"/>
	<path fill="none" d="M668.6,647.2c-1.8-0.8-3.5-1.7-4-4.6c1.8,1.7,3.1,3,4.4,4.2C668.9,646.9,668.7,647.1,668.6,647.2z"/>
	<path fill="none" d="M688,322.2c-0.2,0.5-0.5,0.8-1,1c-1.1-0.6-1.8-1.7-3-2c0.4-1.1,0.8-1.3,1.6-0.8
		C686.4,321,687.2,321.6,688,322.2z"/>
	<path fill="none" d="M691.4,327.8c1.2-1.3,2.4-2.2,4.1-3.3C694,327,694,327,691.4,327.8z"/>
	<path fill="none" d="M686.9,333.6c0.5-2,2.1-2.6,3.8-3C689.9,332.1,688.3,332.8,686.9,333.6z"/>
	<path d="M698.1,632.8c-1.4-1.9,0.4-2.2,1.3-3c0.8,0.7-0.1,1.2,0.1,1.7C699,631.9,698.5,632.3,698.1,632.8z"/>
	<path fill="none" d="M659.7,357.9c1,0.5,1.9,1.1,2,2.6C659.9,360.2,660,358.9,659.7,357.9z"/>
	<path fill="none" d="M666.3,343.4c-1,0.4-1.4-0.1-1.8-0.7c0.2-0.8,0.7-0.9,1.3-0.6C666.3,342.3,666.5,342.7,666.3,343.4z"/>
	<path fill="none" d="M695.6,311c-0.6-0.3-0.9-0.7-0.8-1.4c0.6-0.4,1.1-0.3,1.6,0C696.7,310.4,696,310.6,695.6,311z"/>
	<path fill="none" d="M653.2,336.4c0.1-1.5,0.4-2.3,1.8-2.4C655.5,335.4,654.9,336,653.2,336.4z"/>
	<path fill="none" d="M694,324.2c-1.6-0.8-1.6-1.9-2-2.8C693,321.9,693.7,322.5,694,324.2z"/>
	<path fill="none" d="M908.1,424.9c1.5-0.7,2.3-0.4,3.2,0.3C910.3,425.5,909.4,425.6,908.1,424.9z"/>
	<path fill="none" d="M669,646.8c0.9,0.3,1.8,0.3,2.5,1.3c-1.3,0.7-2.1-0.1-2.8-0.9C668.7,647.1,668.9,646.9,669,646.8z"/>
	<path fill="none" d="M652.5,338.9c0.1,1.2,0,1.9-1.1,2.3C650.9,340,651.4,339.4,652.5,338.9z"/>
	<path fill="none" d="M654,348.5c0.8,1.3,0.2,1.8-0.4,2.6C652.9,349.9,653.2,349.3,654,348.5z"/>
	<path fill="none" d="M661.6,333.5c1.3-0.1,1.9,0.4,2.7,0.9C663,335,663,335,661.6,333.5z"/>
	<path fill="none" d="M678.4,334.3c0.2-0.6,0.2-1.4,1.2-1.2C679.4,334.1,679.4,334.1,678.4,334.3z"/>
	<path fill="none" d="M715.9,311.7c0.1,1.1-0.9,1-1.8,2.1C714.9,311.9,714.9,311.9,715.9,311.7z"/>
	<path fill="none" d="M669.2,308.4c-0.9,0.6-1.4,1.5-2.5,0.9C667,308.1,667.8,308.3,669.2,308.4z"/>
	<path fill="none" d="M682.8,338.5c-0.1-1.2,0.5-1.5,1.7-1.7C684.1,337.9,683.7,338.3,682.8,338.5z"/>
	<path fill="none" d="M675.4,335.3c0.1,0.7-0.2,1.1-0.7,1.2c-0.3,0.1-0.7-0.3-0.6-0.7C674.2,335.2,674.6,334.9,675.4,335.3z"/>
	<path fill="none" d="M662.7,313.7c0.5,1.1,0.3,1.5-0.7,1.6C661.3,314.5,661.7,314,662.7,313.7z"/>
	<path fill="none" d="M675.6,339c0.5,1.6,0,1.9-0.6,2.3C674.4,340.4,675.2,340.1,675.6,339z"/>
	<path fill="none" d="M657.8,352.3c0.2,0.6,0.5,1.3-0.1,1.9c-0.5-0.5-1.1-0.9-0.6-1.7C657.4,352.4,657.6,352.3,657.8,352.3z"/>
	<path fill="none" d="M660.4,339.9c-0.7-0.7-0.4-1.2-0.2-1.9C661.2,338.6,661.2,339.1,660.4,339.9z"/>
	<path fill="none" d="M654.7,322.5c0.2-0.9,0.5-1.6,1-1.4c0.5,0.1,0.2,0.8-0.1,1.1C655.5,322.3,655.2,322.3,654.7,322.5z"/>
	<path fill="none" d="M660,318.9c0.3,1.4-0.1,1.9-0.9,2.2C658.6,320,659.3,319.6,660,318.9z"/>
	<path fill="none" d="M657.8,318.2c-0.1,0.1-0.3,0.3-0.4,0.4c-0.1-0.2-0.3-0.3-0.3-0.5c0,0,0.1-0.2,0.2-0.2
		C657.6,317.8,657.8,317.9,657.8,318.2z"/>
	<path fill="none" d="M657.6,347c0.1-0.8,0.2-1.2,0.8-1.3C658.9,346.4,658.6,346.8,657.6,347z"/>
	<path fill="none" d="M597,555.7c1.2,0,1.9,0.7,2.3,1.7c-0.9,0.7-1.7,0.2-2.4,0C596.5,556.7,596.5,556.1,597,555.7z"/>
	<path fill="none" d="M593.9,555c0.6,0.4,0.7,1,0.8,1.6c-0.4,0.5-0.9,0.5-1.5,0.1C592.9,555.9,593.5,555.5,593.9,555z"/>
	<path d="M288.4,519.6c-1.9-0.6-1.9-1.7-2.1-2.7c-0.9-4.4-2-8.8-3.2-13.2c-0.9-3.3-2.8-6.3-3.4-9.7c-0.3-1.5-0.8-3-0.9-4.5
		c-0.3-5.2-2.1-10-4-14.7c-4.1-10.1-6.7-20.5-8.8-31.2c-0.2-1.1-0.5-2.3,0-3.4c0.9,0.3,1.1,1,1.2,1.7c1.1,9.4,4.2,18.3,6.7,27.3
		c0.9,3.3,2.7,6.3,3.8,9.6c1.1,3.3,2,6.6,2.3,10c0.3,3,1.1,5.9,2.2,8.6c2.5,5.8,4,11.9,5.3,18.1
		C287.8,516.7,288.1,517.9,288.4,519.6z"/>
	<path d="M266.9,437.9c-0.9-3.1-2.4-5-4.1-6.9c-2.7-3-5.2-6.2-7.7-9.3c-2.8-3.4-3.1-7.6-3.6-11.7c-0.2-1.7-0.2-3.5,0.4-5.7
		c0.9,3.2,0.6,6,0.9,8.8c0.3,3,1.4,5.6,3.5,7.5c3.6,3.4,6.4,7.3,9.7,10.9C267.4,433,268.7,434.9,266.9,437.9z"/>
	<path d="M300.1,371.6c1.7,5.5,1.2,11.1,2.5,16.5c-1.3,0.4-2-0.4-2.3-1.2c-1.2-3.7-2.7-7.4-2.6-11.4
		C297.8,374.1,297.7,372.6,300.1,371.6z"/>
	<path d="M280.2,367.8c1.1,3.7-1.9,14.5-5.7,19.8c1.3-6.5,2.6-13.1,4.5-19.5C279.1,367.7,279.7,367.6,280.2,367.8z"/>
	<path d="M253.2,396.3c-1.3-2-1.1-3.6-0.9-5.1c0.6-6.4,1.3-12.7,2-19c0.1-1.1,0.4-2,2-2.2C255.3,378.6,254.3,387.1,253.2,396.3z"/>
	<path d="M347.8,442.1c5-4.8,11.5-5.9,17.9-7.1C359.8,437.5,353.2,438.3,347.8,442.1z"/>
	<path d="M326.9,403c-0.6,0.2-1,0.2-1.1-0.2c-1.5-4.2-3-8.3-4.2-12.6C324.2,394.2,325.6,398.6,326.9,403z"/>
	<path d="M368.8,464.6c3.8,2.5,6.5,6.4,10.1,9.2c-4.4-1.9-7.4-5.4-10.4-8.9C368.6,464.8,368.7,464.7,368.8,464.6z"/>
	<path d="M344,412.3c-2.5,1.9-5.4,3-8.8,3.6C336.6,414.1,339.2,413,344,412.3z"/>
	<path d="M247.3,376.5c-0.8,3.3-2.3,5.5-2.6,8.1C243.3,381.6,244.2,378.5,247.3,376.5z"/>
	<path d="M250.9,436c3.2-0.9,5.6-0.3,8.5-0.5C254.8,437.3,254.3,437.3,250.9,436z"/>
	<path d="M318.9,380c-0.2-2.5-0.2-5.1-1.5-7.4C319.6,374.7,319.7,375.5,318.9,380z"/>
	<path d="M325.2,380.1c1.9-0.1,3.7-1.8,6.2-0.1C328.9,380.9,326.9,379.9,325.2,380.1z"/>
	<path d="M370.9,455c-1.7,1.3-3.5,1.6-5.4,1.2C367.2,455.5,369.1,455.6,370.9,455z"/>
	<path d="M368.5,464.9c-1.5-0.7-2.8-1.6-3.9-2.8c1.6,0.4,3.1,1.1,4.2,2.5C368.7,464.7,368.6,464.8,368.5,464.9z"/>
	<path d="M254.6,445.4c-2-0.1-3.2-0.4-4.5-1C251.7,443.8,253,444.3,254.6,445.4z"/>
	<path d="M360.2,457.6c1,0.2,1.7,0.7,1.9,2.3C361.2,458.9,360.7,458.2,360.2,457.6z"/>
	<path d="M358.3,455c-0.3-0.3-0.8-0.4-0.6-0.9C358,454.2,358.3,454.4,358.3,455z"/>
	<path d="M350.9,222c1.4-0.5,2.6-0.1,3.6-0.1c7.6-4.8,10.8-5.7,14.6-4.3c0,0.6-0.6,0.6-1,0.8c-2,0.9-3.9,2-5.7,3.5
		c-2.7,2.3-5.8,3.7-9.4,2C352.3,223.5,351.3,223.2,350.9,222z"/>
	<path d="M306.3,230.2c3.7-1.7,7.9-1.9,11.4-4C315.5,230.6,310,232.6,306.3,230.2z"/>
	<path d="M276.3,198.6c2.8-1.4,5.1,0.3,7.5,0.9C281.2,199.6,278.6,200.2,276.3,198.6z"/>
	<path d="M272.3,236.6c-1.4,0.3-2-0.7-2.9-0.9c-0.8-0.2-1.6-0.4-2.4-0.7C268.9,233.3,270.6,233.8,272.3,236.6z"/>
	<path d="M373.9,235.5c-1.7,0.9-3.5,0.8-5.5,0.8C369.8,234.3,370,234.2,373.9,235.5z"/>
	<path d="M269,258.2c0.9,2.7,0.9,2.7-3,5.3C266.7,261.4,267.9,260.1,269,258.2z"/>
	<path d="M371.1,226.6c-1.6,0.2-3.1,0.7-4.6-0.1C368.3,224.9,368.9,224.9,371.1,226.6z"/>
	<path d="M322.1,222.5c-0.6,1.7-0.9,3-3,3.1C319.1,223.6,320,222.9,322.1,222.5z"/>
	<path d="M379.5,225.6c1.8-0.3,3.3-0.6,4.9,0.9C382.5,226.7,381,227.1,379.5,225.6z"/>
	<path d="M418.5,217.7c2.1-0.4,3.6-0.4,5.2,0.9C421.8,219,420.4,218.6,418.5,217.7z"/>
	<path d="M387.1,235c-1.7,0.5-2.7,0.9-4.1,0.2C384.3,234.4,385.3,233.6,387.1,235z"/>
	<path d="M371.9,217.3c0.9-2.1,0.9-2.1,2.7-1.1C374,216.9,373.2,217.3,371.9,217.3z"/>
	<path d="M262,235.4c-1.1,0.8-1.7,0.5-2.2-0.3C260.4,234.7,261.1,234.6,262,235.4z"/>
	<path d="M378.7,216.6c0.7-0.6,1.4-0.6,2.1-0.3c0.3,0.8-0.4,0.9-0.9,1C379.5,217.5,379.1,217.4,378.7,216.6z"/>
	<path d="M261.3,266c0.2,2-0.8,2.4-1.8,3.1C259.3,267.6,260.3,267.1,261.3,266z"/>
	<path d="M392.9,225.9c-1.4,0.7-2.4,0.6-3.4-0.1C390.6,224.9,391.6,225.2,392.9,225.9z"/>
	<path d="M360.2,235.7c-1,0.6-1.6,0.5-2.1,0.1C358.6,233.9,359.2,235.1,360.2,235.7z"/>
	<path d="M391.1,233.6c-0.1,0.9-0.6,0.9-1.4,1C389.9,233.6,390.3,233.3,391.1,233.6z"/>
	<path d="M399.1,225.1c-0.7,0.7-1.4,0.6-2.1-0.1C397.7,224.3,398.4,224.4,399.1,225.1z"/>
	<path d="M327.1,220c0.2-1.9,0.7-2.1,1.6-1.7C328.9,219.4,327.9,219.1,327.1,220z"/>
	<path d="M413.6,217.6c-0.2,0.1-0.3,0.4-0.5,0.3c-0.4,0-0.6-0.3-0.5-0.7c0-0.1,0.4-0.2,0.6-0.2C413.4,217.2,413.5,217.4,413.6,217.6
		z"/>
	<path d="M288.8,200.8c-0.7,0.3-1.3-0.3-1.1-0.7c0.2-0.5,0.7-0.2,1,0.2C288.8,200.4,288.7,200.6,288.8,200.8z"/>
	<path d="M257.4,269.3c-0.1,0.6-0.5,1-1.3,0.7C256.3,269.3,256.5,268.7,257.4,269.3z"/>
	<path d="M256.9,234.8c-0.2,0.1-0.4,0.3-0.6,0.3c-0.3-0.1-0.5-0.4-0.3-0.7c0.1-0.1,0.4-0.2,0.6-0.1
		C256.8,234.4,256.8,234.7,256.9,234.8z"/>
	<path d="M312.4,355.4c-0.2-2.8-0.6-5.6-0.6-8.3c-0.1-4.5-0.3-9-2.1-13.3c0-0.1-0.1-0.2-0.1-0.3c0-3.2,0.4-6.2,1.4-9.3
		c0.8,1.4,1.2,3,0.8,4.4c-0.9,3.5,0,6.9,0.7,10.2c1,4.7,0.9,9.4,1.3,14.2C313.8,353.8,314.1,355,312.4,355.4z"/>
	<path d="M305.8,299c1-3.1,3.2-5.4,4.6-8.3c1.9-3.8,4.5-7.1,6.2-11.3c1,1.3,0.3,2-0.1,2.7c-2.8,5.3-5.9,10.5-9.3,15.5
		C306.9,298.2,306.6,298.9,305.8,299L305.8,299z"/>
	<path d="M277.5,295.3c-2.5-1.4-5.5-2-7.2-4.6c0.5-1.9,1.6-1.9,2.9-1.1C275.4,290.9,276.3,293.2,277.5,295.3z"/>
	<path d="M311.6,316.4c1.4-4.2,1-8.8,2.2-13.5C315,308.4,314.1,313.8,311.6,316.4z"/>
	<path d="M253.1,290.1c1.8-3.1,1.2-7.3,4.5-9.8C257.8,282.8,255.5,288.1,253.1,290.1z"/>
	<path d="M320.6,267.1c2.9-3.1,2.9-3.1,5-3C324.9,266.3,323.1,266.5,320.6,267.1z"/>
	<path d="M274.1,311.8c-4.1,0.2-4.2,0.2-3.4-2.1C272.3,309.6,272.8,311.3,274.1,311.8z"/>
	<path d="M289.7,301.2c-2.4,1.2-3.7,0.1-5.5-0.9C286.3,299.3,287.8,299.9,289.7,301.2z"/>
	<path d="M297.2,317.6c-0.1-2.7-0.5-5.6,2.6-7.2C297.7,312.3,298.2,315.2,297.2,317.6L297.2,317.6z"/>
	<path d="M282.5,299.7c-2.1-0.9-3.5-1.4-4.1-3.5C280.6,296.3,281.4,297.5,282.5,299.7z"/>
	<path d="M316.1,297c-0.1-1.3-0.6-2.7,0.2-4.5C317.4,294.3,316.9,295.6,316.1,297z"/>
	<path d="M275.8,312.4c2-1.2,3-0.1,4.7,0.6C278.6,314.1,277.3,313.7,275.8,312.4z"/>
	<path d="M272.5,349.8c-0.5-1.3-0.9-2.7-1.6-4.7c2.2,1.4,2.3,2.9,2.7,4.3C273.2,349.6,272.8,349.7,272.5,349.8z"/>
	<path d="M282.6,286.1c1.5,0.3,2,1.2,2.3,2.3C282.5,287.9,282.5,287.9,282.6,286.1z"/>
	<path d="M268.8,342.7c-1.1-0.9-1.6-1.6-1.6-3C268.6,340.4,268.9,341.2,268.8,342.7z"/>
	<path d="M262.5,333.1c0.8,0.6,1.4,1.1,0.9,2.2C262.4,334.8,262,334.1,262.5,333.1z"/>
	<path d="M297.1,317.5c0,0.7-0.1,1.5-0.2,2.6C296.6,318.9,296.3,318.2,297.1,317.5L297.1,317.5z"/>
	<path d="M304.3,301.1c0,0.7-0.3,1.3-1,1.6C303.3,301.9,303.7,301.4,304.3,301.1L304.3,301.1z"/>
	<path d="M305.7,299c0,1.1-0.5,1.7-1.4,2.2l0.1,0.1C304.3,300.1,304.8,299.4,305.7,299L305.7,299z"/>
	<path d="M250.9,299.2c0-1.5,0-1.5,0.7-2C251.5,297.6,251.3,298,250.9,299.2z"/>
	<path d="M296.9,537.7c1.5,1.8,1.6,2.8,0.4,9.1c-0.6,3-1.3,5.9-2,8.9C295.5,549.6,295.7,543.6,296.9,537.7z"/>
	<path d="M282.4,639.3c1.6,5.9,1.6,5.9,0.8,7.2C282.1,644.6,281.7,641.5,282.4,639.3z"/>
	<path d="M294.4,564.1c0.4-2.1-0.6-4.4,0.9-6.4C296.5,559.4,296.3,560.6,294.4,564.1z"/>
	<path d="M281.9,626.2c-0.7-1.6-1-3-0.4-4.8C283.4,623.8,283.5,624.2,281.9,626.2z"/>
	<path d="M282.3,637.3c-1-1.2-1.1-2.4-0.1-3.9C283.3,634.9,283,636.1,282.3,637.3z"/>
	<path d="M282.1,627.6c0.9,1.3,0.8,2.4-0.1,3.7C280.8,629.9,280.7,628.8,282.1,627.6z"/>
	<path d="M292.5,578.5c-0.1-1.9-0.1-1.9,0.9-3.4C293.4,577,293.4,577,292.5,578.5z"/>
	<path d="M289,600.9c-0.4-1.3-0.1-2.1,0.5-2.8c0.1,0,0.3-0.1,0.3-0.1C290.2,599.1,290.3,600,289,600.9z"/>
	<path d="M295.4,535.2c-0.9-0.4-1.1-0.9-0.4-1.8C295.8,533.9,295.9,534.4,295.4,535.2z"/>
	<path d="M312,531.6c-0.6-0.3-1-0.6-1-1.2C311.7,530.3,312.1,530.5,312,531.6z"/>
	<path d="M291.9,583.6c0.5,0.8,0.4,1.3-0.2,1.8C290.8,584.8,291.3,584.3,291.9,583.6z"/>
	<path d="M401.6,461.4c4.4,2.6,5.9,5,5.3,8.6c-3.1-0.4-6.5-3.4-6.9-6C399.8,462.8,400.2,461.9,401.6,461.4z"/>
	<path d="M424.2,505.1c-4.4-4-9-7.8-14-11c0.8-1.3,1.6-0.9,2.3-0.5c1.2,0.7,2.5,1.5,3.5,2.4C419,498.7,422,501.5,424.2,505.1z"/>
	<path d="M430.1,513.9c-0.7-1.9-3-2.9-3.4-5.2C429.5,509.7,429.6,509.9,430.1,513.9z"/>
	<path d="M456.7,546c-2-0.5-3.4-1.5-3.9-3.6C455.8,542.1,455.7,544.6,456.7,546z"/>
	<path d="M473,560.7c-1.2,0.1-2.1-0.1-2.8-0.6c-0.7-1,0.3-1.9-0.3-3.3C471.4,558,472.8,558.6,473,560.7z"/>
	<path d="M392.2,487.5c2.1-1.2,2.1-1.2,5.4,2.5C395.4,489,393.5,489,392.2,487.5z"/>
	<path d="M460.8,548.7c-1.6,0.7-2.2-0.3-2.9-1.4C459.4,546.7,460.2,547.3,460.8,548.7z"/>
	<path d="M462.9,551.2c1.4-0.5,2.1-0.3,2.3,1.2C463.8,553,463.3,552.5,462.9,551.2z"/>
	<path d="M468.6,556.1c-1.2,0.4-1.6-0.2-2-1.5C467.6,554.8,468.4,554.8,468.6,556.1z"/>
	<path d="M405.9,489.5c-0.9,0.4-1.5,0.5-2-0.2C404.8,488.6,404.8,488.6,405.9,489.5z"/>
	<path d="M402.5,489.5c-0.8,0.5-1.4,0.4-1.9-0.5C401.7,488.2,402.1,488.8,402.5,489.5z"/>
	<path d="M401.1,496.1c0.7-0.7,1.2-0.7,2.1-0.4C402.5,496.6,401.9,496.5,401.1,496.1z"/>
	<path d="M434.3,523.5c-0.7-0.5-1.1-0.8-0.7-1.7C434.4,522,434.8,522.4,434.3,523.5z"/>
	<path d="M436.2,528.9c-1-0.3-1.1-0.8-1-1.4C436.2,527.4,436.3,528,436.2,528.9z"/>
	<path d="M274.2,143.8c1.9,1.9,3.9,3.8,5.7,5.6c-0.4,1.5-1.1,0.4-1.7,0.5c-0.5,0.5-0.9,1.1-1,1.7c-0.1,2.6,3.6,1.4,3.7,3.7
		c-1.6,2.3-1.7,2.3-5.5,1.1c1.2-1.3,0.2-2.6,0.3-4c0.1-1.4,1.1-2.4,1.2-3.8c-0.7-0.7-1.4-1.5-2.1-2.3c-0.8,0.8-1.1,1.7-1.3,2.6
		c0.6,2,2.2,3.9,0.9,6.7c-1-1.9-0.7-3.7-2-4.9c-0.7-0.2-1,0.4-1.3,0.7c-0.6,1.4,1.3,2,0.9,3.6c-1.6-0.8-2.5-2-3.1-3.6
		c1.7-1.7,3.2-3.5,3.8-5.9c0.2-0.9,0.9-1.4,1.7-1.6L274.2,143.8z"/>
	<path d="M318.4,137.9c0,1-0.4,1.6-1.2,2c-2.4,0.1-4.8-0.7-7.2-1.2c-2.5-0.5-4.4,2.5-7.1,1.2C305.8,136.1,313.2,135.1,318.4,137.9z"
		/>
	<path d="M315.6,141.5c0.2,1.2-0.7,2,0.1,2.8c-2.6,2.3-5.2,0.2-7.7,0.4C309.9,142.2,312.6,141.8,315.6,141.5z"/>
	<path d="M283.3,169.8c-1.8-3.7-1.8-4.7-0.4-7.2c1,1.8,1.4,3.5,1.5,5.5c1.2,1.3,2.3,2.6,3.7,4.2c-2.3,0.6-3.1-1.6-4.5-2.1
		C283.5,170,283.4,169.9,283.3,169.8z"/>
	<path d="M283.3,169.8c0.1,0.1,0.2,0.2,0.2,0.3c0,1.3,0.2,2.5,0.7,4.4c-1.5-1.5-1.6-2.9-2.1-3.9
		C282.4,169.7,282.8,169.8,283.3,169.8z"/>
	<path d="M271.3,172.2c0.4,1.3,0.7,2.5-0.2,4C270,174.6,270.3,173.4,271.3,172.2z"/>
	<path d="M272.3,185.6c1.8,0.7,1.5,1.9,2.1,3.4C272.4,188.1,272.6,187,272.3,185.6z"/>
	<path d="M272.2,182.2c-1.2-2-1.2-2-1-3.7C272.5,179.3,272.2,180.4,272.2,182.2z"/>
	<path d="M293,158c-1.2-0.3-2-0.4-2.1-1.6C292.1,156,292.5,156.7,293,158z"/>
	<path d="M293.9,158.7c1.7,0.1,2.3,0.5,2.5,1.4C295.1,160.7,294.8,159.7,293.9,158.7z"/>
	<path d="M286.7,181.3c-0.7-0.2-0.9-0.6-0.9-1.3c0.7-0.5,0.8,0.2,1,0.4C287.1,180.7,287.1,181,286.7,181.3z"/>
	<path d="M339.3,667c-0.2,0.7,0.1,1.7-1.1,2c-0.8-0.1-1.2-0.6-1-1.4c0.6-1,1.5-0.3,2.2-0.4L339.3,667z"/>
	<path d="M785.7,604.2c2.3-2.9,5.4-2.9,8.6-2.8c4.8,0,9.6,0.7,14.4,1.4c0,0.2,0,0.5,0,0.7c-3.9,0-7.7,0-11.6,0
		C793.2,603.6,789.4,603.2,785.7,604.2z"/>
	<path d="M782.8,585.1c-5.1,5.1-8.2,6-11,3.3C774.3,583.8,778.5,585.1,782.8,585.1z"/>
	<path d="M812.5,605.2c0.1-1.1,0.5-1.7,1.1-1.6c2.7,0.2,5.1,1.5,8,3.3C818.1,606.3,815.1,606.7,812.5,605.2z"/>
	<path d="M890.4,628.4c-3.4,0.5-6.7-0.1-9.7-1.9c2.8,0.2,5.6,0.4,8.4,0.6c0.9,0.1,1,0.8,1.2,1.5L890.4,628.4z"/>
	<path d="M864.9,626.5c1.8-1.6,3-0.1,4.6-0.2c1.6-0.2,3.7-1.9,5.5,0.6C871.9,626.2,868.5,628,864.9,626.5z"/>
	<path d="M831,609.3c1.8-1.6,2.8-0.3,4.2,0.1C833.7,610.7,832.6,609.9,831,609.3z"/>
	<path d="M777.8,578c0.2,1.5-0.9,2.1-1.9,2.9C775.7,579.5,776.6,578.7,777.8,578z"/>
	<path d="M829.1,608.5c-1.7,0-2.9,0.1-3.6-1.2C826.8,606.6,827.8,606.9,829.1,608.5z"/>
	<path d="M863.1,625.7c-0.9,1-1.7,0.7-2.8,0.3C861.2,624.7,862,624.8,863.1,625.7z"/>
	<path d="M777.7,605.2c1-0.6,1.5-0.2,2.2,0.3C778.8,606,778.8,606,777.7,605.2z"/>
	<path d="M785,580.4c0.8,0.8,0.6,1.3-0.2,1.7c-0.7-0.3-0.8-0.7-0.5-1.1C784.4,580.7,784.7,580.6,785,580.4z"/>
	<path d="M837.9,610.2c0.6-0.8,1.1-0.4,1.6-0.2C839.2,611,838.6,610.6,837.9,610.2z"/>
	<path d="M670,638.4c-1.1-0.2-1.4-0.7-1.7-1.5c1.4-3.1,4.8-4.1,7.4-6C674.1,633.8,672.3,636.5,670,638.4z"/>
	<path d="M742,582.4c1.5,2.4,0.6,4.5-3.8,10.2C738.8,588.7,741.5,586.2,742,582.4z"/>
	<path d="M762.2,566c1.3-1.7,3.3-1.9,5.1-2.6c0.5-0.2,0.9,0.1,1.2,0.8C767.1,566.5,764.3,565,762.2,566z"/>
	<path d="M689.6,617.2c-0.8,1-1.5,2-2.5,3.2C687.1,618.2,687.1,618.2,689.6,617.2z"/>
	<path d="M682.8,623.7c-0.4,0.9-0.8,1.5-1.8,1.8C680.9,624.1,681.3,623.5,682.8,623.7z"/>
	<path d="M679.2,627.7c-0.2,1.2-0.6,1.7-1.8,1.3C677.5,628.1,678,627.7,679.2,627.7z"/>
	<path d="M752.5,564.5c0.4-0.4,0.8-0.3,1.2,0.2C753.1,565.3,752.8,565.6,752.5,564.5z"/>
	<path d="M733.3,599.2c0.2-0.6,0.2-1.3,1.1-1.4c0.4,0.8,0,1.3-0.6,1.6C733.6,599.6,733.4,599.5,733.3,599.2z"/>
	<path d="M702.9,627.7c-0.3-1.2,0.2-1.5,0.5-2C704.2,626.5,703.5,626.9,702.9,627.7z"/>
	<path d="M745.8,575.1c-0.6,0.8-1.1,0.8-1.6,0.3C744.6,574.6,745.1,574.8,745.8,575.1z"/>
	<path d="M665.9,345.4c1.4,2.3,3.9,3.6,5.3,5.9c-0.6,1.1-1.3-0.2-1.9,0.2c-0.4,0.5-0.8,1.1-0.9,1.9c0.5,0.8,0.7,1.7,2,1.7
		c1.1,0,1.6,0.8,1.9,1.7c-1.8,2.3-1.9,2.3-5.4,1.1c0.6-2.4-0.9-5.1,1.3-7.2c-0.3-1.4-1.3-2.1-2.2-2.9c-0.9,0.6-0.9,1.6-1.4,2.6
		c1.2,1.7,1.9,3.7,1.2,6.2c-1.1-1.6-0.8-3.6-2.3-4.6c-0.6,0.2-1.1,0.5-1.2,1.2c-0.2,1.1,1.3,1.7,1,3.1c-1.6-0.6-2.4-1.8-3.2-3.3
		c1.6-2,3.4-3.8,3.9-6.5c0.2-1,1.2-1,2-1.1L665.9,345.4z"/>
	<path d="M693.9,341.5c3.8-4,11.3-4.8,15.7-1.9c0.1,0.8-0.2,1.4-1.1,1.9c-2.4,0.2-4.7-0.7-7.2-1.2
		C698.8,339.8,696.8,342.7,693.9,341.5z"/>
	<path d="M707,343.1c0.1,1.1-0.8,1.9,0,2.7c-2.2,1.1-5.8,1.2-7.9,0.1C701.3,343.9,703.8,343.1,707,343.1z"/>
	<path d="M674.5,371.2c-1.3-2.2-1.9-4.4-0.6-7.7c1.7,4.1,1.8,8.1,5.5,10.2C676.8,374.3,676,372.1,674.5,371.2L674.5,371.2z"/>
	<path d="M662.2,377.9c-0.7-1.8-0.7-3,0.2-4.4C663.2,375.6,663.2,375.6,662.2,377.9z"/>
	<path d="M674.4,371.1c0.1,1.3,0.9,2.6,0.5,4c-1.2-0.9-1.2-2.3-1.7-3.3C673.6,371.2,674.1,371.3,674.4,371.1L674.4,371.1z"/>
	<path d="M662.7,380c0.9,1,1.1,2.1,1,3.4C662.3,382.2,662.3,382.2,662.7,380z"/>
	<path d="M696.8,384.7c-1.7,0.4-2.9-0.6-4-1.6C694.2,383.2,695.8,383.1,696.8,384.7L696.8,384.7z"/>
	<path d="M664,387.2c0.9,0.9,1.5,1.7,1,3C663.8,389.5,663.5,388.6,664,387.2z"/>
	<path d="M681.8,357.9c1.7-0.3,2.1,0.5,2.5,1.6C683.1,359.5,682.5,359,681.8,357.9z"/>
	<path d="M685.7,360.6c1.3-0.6,1.5,0.3,2.2,1C686.6,362,686.1,361.5,685.7,360.6z"/>
	<path d="M678,382.7c-0.8-0.4-1-0.8-1-1.5C678,381.1,678.1,381.6,678,382.7z"/>
</g>
</svg>
