<?xml version="1.0" encoding="utf-8"?>
<!-- Generator: Adobe Illustrator 19.1.0, SVG Export Plug-In . SVG Version: 6.00 Build 0)  -->
<svg version="1.2" baseProfile="tiny" id="Layer_2" xmlns="http://www.w3.org/2000/svg" xmlns:xlink="http://www.w3.org/1999/xlink"
	 x="0px" y="0px" width="900px" height="600px" viewBox="144 97 900 600" xml:space="preserve">
<g>
	<path d="M745.2,604.7c0.1-0.2,0.2-0.5,0.3-0.7c0.8-0.9,1.6-1.8,1.4-3.3c-1-7.4-0.6-14.8-1-22.2c-0.4-8.7-1.3-17.4,1.1-26
		c0.6-2,1.8-4.4,0.7-6.4s-0.2-3.2,1.5-5.1c-4.6,0.9-8.5,0.8-12.2,1.4c-7,1.1-14.4,1-20.2,6.1c-1.8,1.5-3.6,0.9-5.2-0.5
		c-1.4-1.2-3.2-2.1-4.9-0.8c-2.5,2-5.6,3.7-5.8,7.6c-0.1,1.2-0.4,2.4-1.5,3.5c-1-2.9,0.7-5.5,0.6-8.2c-1.4-0.6-2.5-0.6-3.5,0.3
		c-1.3,15.6-0.2,31.6-6.8,46.4c5-15.4,3.4-31.5,5.1-47.2c-2.5-2-4.5,1.4-6.9,0.3c-0.5,4-1.1,7.5-1.5,11.1
		c-1.7,15.4-4.5,30.7-4.7,46.2c0,3.7-0.8,7.4-1.7,11c-0.4,1.6-1,2.8-2.9,1.7c-0.4,2.1-0.6,3.9,1.2,5c-1.8,2.5-1.8,2.5-2.5,6.7
		c-2.3,1.7-5.1,0.6-7.6,1.2c-1.7,1.7-3.5,3.5-5.3,5.2c-4.3,4.1-9.1,7.2-14.7,9.1c-3.1,1-6.5,1-9.1-0.1c-4-1.5-7.7-1.7-11.6-0.7
		c-4.1,1-8.1,1.6-12.3,1.3c-9.6-0.6-18.8-3.1-28.5-5.2c-0.9,1.3-2.5,1.3-4.2,1.1c-5.2-0.6-10.5-0.3-15.8-0.1
		c-6.9,0.3-13.2-1.4-19-4.8c-1.9-1.1-3.9-1.7-5.9-1.5c-3.1,0.4-6.3,0-9.4,1.1c-2.1,0.7-4.4,0.3-6.4-0.8c-1.8-1-3.6-2-5.7-3.1
		c-4.4,1.6-10.3-0.1-13.2,5.5c-3.2-1.1-1.5-4.7-4.2-6.7c-8.5,1.4-15.9-2.8-22.7-7.8c-8.8,2.2-24.4,0.5-32-5.9
		c-1.6-1.3-2.7-3.2-4.5-4.2c-7.1-4.1-14.7-7.3-22.9-8.2c-13.5-1.4-26.8-4.1-40.3-5.4c-8.3-0.8-17-1.7-24.1-5.4
		c-6.6-3.4-13.3-4.6-20.2-5.7c-3.3-0.5-6.5-1.2-9.8-1.8c-4.1-0.7-8.2-1.5-12.3-0.1c-4.5,1.6-9.2,1.9-13.9,1.4
		c-1.9-0.2-3.6,0.1-4.7,1c-1.9,2.4,1.5,3.2,1,5c-1.4,1.7-3.2,0.5-4.8,1c-2.8,4.9-7.9,7.1-12.7,8.8c-8.9,3-11.5,11.8-17.7,17.1
		c1.4,4.1,4.7,7.4,2.1,11.6c3.5,5.4,3.8,7.7,0.5,11.8c-4.2,5.1-9.5,7.8-16.4,6.7c-1.3-0.2-2.9-0.5-4.1-0.1c-2,0.7-3.8,0.2-5.6-0.3
		c-3.5-1-6.4-2.9-9.3-5.1c-4.6-3.5-7.2-8.1-7.5-13.3c-0.5-8.8-1.9-17.6-0.1-26.4c1.7-8.5,4.9-16.3,10.5-23c1.7-2,3.3-4.4,3.3-7
		c0.1-4.4,1.7-8.1,3.5-11.8c1-2.1,1.3-4.2,0.4-6.4c-1.3-3.4-1.2-6.4,1.7-9.1c1.2-1.1,1.9-2.7,2.5-4.3c2-5.7,5.7-10.4,8.1-15.8
		c1.6-3.6,5.1-5.3,8.2-4c3.5,1.6,7,1.1,10.5,1.4c4.4,0.4,9,0.9,12.8,3.2c7.1,4.4,15.5,6.5,21.6,12.4c0.6,0.9-0.8,1.8,0.3,2.7
		c2.6,0.4,5.6-2.2,7.7,1c-0.8,2.1-2.9,0.9-4.1,2.1c10.6,2,21.2,2.1,31.7,3.4c11.1,1.4,22.3,1.7,33.2,4.2c1.2,0.3,2.5,0.1,3.7-0.1
		c7.1-1,14.2-2,21.4-2.3c12.4-0.4,24.6,0,36,6c1.3,0.7,2.9,1.3,4.3,1.4c9.3,0.3,17.3,4.4,25.4,8.4c1.9,0.9,3.8,1.6,3.7,4.6
		c6.8-1.3,13.1-2.5,19.6-2.1c6.5,0.5,13,0.3,19.4,1.6c0,1.7-0.8,2.3-1.2,2.6c-9.6-1.3-19-1.1-28.4-1.2c-0.8,0-1.5,0.6-2.3,0.8
		c-4.7,1.2-9,0.6-13-2.3c0.7-1.2,1.8-0.4,2.5-1.2c-7.6-3.3-14.7-7.8-23.3-8.3c-4.2-0.2-8.1-1.9-11.9-3.6c-3.2-1.4-6.5-2.1-10-2.7
		c-10.9-1.7-21.8-0.7-32.7,0.6c-5.3,0.6-10.5,1.6-16,0.3c-6-1.4-12.3-2.5-18.5-2.5c-9.2,0-18.2-1.3-27.3-2.2c-7-0.7-14-1.4-20.8-2.1
		c-1.6,1.9-2.1,3.7-1.2,5c-3.8,4-6.5,8.3-8.9,12.6c-3.5,6.3,0.4,12.8,0,19.4c1.8-1.4,3.7-1.9,5.6-2.3c8.6-1.8,17.2-3,26.2-2.9
		c7.6,0,14.6,1,21.3,3.8c15.7,6.7,32.4,8.8,49.1,11.5c14.5,2.4,29.4,3.2,43.1,9.5c2.9,1.3,6,2.5,8.2,4.7c4.1,4.3,8.9,7,14.6,8.1
		c5.4,1.1,10.8,2.1,16.7,0.2c-4.2-2.8-7.3-6.1-10-9.7c-1.7-2.3-3.7-4-6.8-4.2c-1.4-0.1-2.9-0.6-3.3-2.8c4.8,0.3,8.2,2.9,11.8,5.1
		c0.3,0.2,0.6,0.7,0.6,1c-0.1,2.2,1.6,2.7,3.1,3.4c1.6,0.8,3.3,1.5,4.9,2.3c2.2,1.1,4.1,2.4,2.8,4.8c6.1,6.2,13,9.1,21.4,7.8
		c-3.4-13-1.1-25.9,0.5-39.2c-5.7,1.7-10.9,2-15.8-1.5c3.1-2.2,6.6-2.6,10-3.1c1.3-0.2,2.6-0.5,3.9-1.1c5.7-2.6,5.7-8.1,6.5-13
		c0.7-4.2,1.1-5.2,5.4-5.2c5.3,0,10.5-0.2,15.6-1.6c7.2-2,14.3-4.3,21.7-5.2c8.8-1.1,17.4-3,25.5-6.9c2.4-1.2,4.5-2.6,6.2-4.6
		c3.4-4,7.1-8,11.9-10.2c13.2-6.1,26.4-11.1,41.8-9.6c13.8,1.3,24.9,7.4,36.4,14.6c2.8,0,6.4-2.7,9.3,1.5c1.4-1.5,2.8-1.2,4.1-0.2
		c4.1,2.8,9.1,1.4,13.5,2.8c0.9,0.3,2.4-0.1,3.1-0.8c3.8-3.7,7.7-3.8,11.9,0c3.6-4.9,8.9-5,13.9-6.3s10-1.6,15.2-1.7
		c0.5-3.8-0.5-7.2-0.8-10.6c-0.5-4.9,0.4-6.3,4.7-8.4c5.1-2.4,10.7-2.8,16.1-3.4c10.7-1.2,21.3-0.2,31.6,2.9
		c9.1,2.7,18.5,3.7,27.9,2.6c11.7-1.3,20.9,3.3,30.3,10c3.7,0.6,8.1,1.1,12.5,1.9c3.8,0.7,7.6,1.7,10.1,5.1c3.7,4.8,7.1,10,9.2,15.7
		c1,2.6,2.7,5.2,1.6,8.3c2.2,1,4.6,1.3,6,3.1c0.1,1.8-1.5,2.6-1.7,3.9c0.6,0.7,1,1.7,2.1,2c1.5-0.6,3.2-0.6,4.8-0.9
		c6.3-1.4,12.6-2.7,18.1-6.7c2.5-1.8,4.3-4.5,7.5-5.6c7-2.4,14.4-2.8,21.3-1.9c6.3,0.9,13.4,0.9,18.4,5.3c1.6-0.1,2.4-1.3,3.9-0.9
		c0.8,1.1,2.1,1.9,3.6,2.1c1.5,0.2,2.4-2.6,4.3-0.9c0.1,1.9-2.6,2.7-1.8,4.7c2,1.4,5.1-0.7,6.6,2c-0.8,2.2-3,1.4-4.4,2.4
		c3.8,4.3,4.6,10.2,8.1,14.7c1.6,2,2.2,4.7,2.6,7.4c0.3,2.5,0.4,4.9-2.1,6.6c1.6,1.4,3.9,1.3,4.1,2.7c0.2,2.3-2,2.3-1.9,4.4
		c0.2,1.2,0.9,3.1,0.7,5c-0.2,2.2-1.7,3.1-4.2,3.2c2.1,1.9,4.9,2.3,5.1,5.3c-0.5,1.1-1.5,1.7-2.5,2.3c-2.1-0.4-2.9-2.6-5.3-3.7
		c1.4,2.9,3.8,4.2,3.9,7c-2.4,0.5-3.1-2.1-5-2.5c1.3,4.2,5.4,5.7,7.7,9.2c-2.4,1.8-1.5,4.1-1.5,6.4c0,2.6-4,3.1-3.2,6.1
		c-3.1,0.5-5.7,1.4-8.8,0.6c-4.2-1.1-6.9-4-9.4-7l0.1-0.1c0.2,0.7,0.3,1.3-0.4,1.8c-1.5,0.2-1.7-1.8-3.2-1.8
		c-2.6,1.6-5.3,3.2-8.1,4.8c-2.6,1.5-5.3,2.8-8.6,2c-2.6-0.6-4.9,0.2-7.2,2c-3.7,3.1-7.7,5.8-12,7.1c-2.2-0.4-1.8-2.7-3.2-3.2
		c-1.3-0.3-2.3,0.2-3.4,0.6c-1,0.4-1.9,1.2-3.1,0.9c-1.3-0.3-1.8-1.7-2.9-2.3c-1.1-0.1-1.9,1.1-3.1,0.8c-2.9-2.7-2.9-2.7-8-1.1
		c-6.2,2-12.4-3-12.2-9.4c0.1-4.4,0.4-8.8-0.5-13.7c-7.2-0.7-13.1-5.2-20.3-6c-3.6-0.4-7-1.2-10.6-0.2c-2.6,0.7-5,1.9-7.9,1.5
		c-1.4-0.2-3.1,0.6-4.3,2c-1.6,1.8-3.1,3.7-5.6,4.4c-1-1.2-2.8-1.1-3.9-2.6c-0.8-2.9,0.6-5.7,1.5-8.6c0.5-1.4,1.3-2.8,1.4-4.3
		c0.4-3.2,2.2-5.4,4.8-6.9c3.1-1.8,6.1-3.7,9.6-4.8c10.8-3.2,17.9-10.4,22.2-20.5c1.4-3.3,3.3-6.5,5.4-9.4c1.9-2.6,4.8-5,2.2-8.1
		c-0.2,1.7-0.5,4-1.6,6.1c-2.9,5.5-5.6,11.1-8.6,16.5c-4,7.2-9.8,12.1-17.7,14.6c-7.3,2.3-14.7,3.8-22.2,5
		c-4.1,0.6-8.5,0.2-12.2-1.7c-4.1-2.1-8.2-2.5-12.6-2.5c-3.2,0-5.2,1.1-6.7,3.8c-3.9,7.1-4,14.8-3.5,22.6c0.2,2.2,1.8,3,3.9,2.8
		c1.7-0.2,3.1-1.1,4.3-2.3c4.2-4.2,9.2-7.1,14.1-10.1c3.9-2.3,8.3-4,10.4-8.5c0.6-1.4,2.1-1.9,3.6-1.3c1.4,0.6,2,1.8,1.9,3.3
		c-0.1,3.6-1.1,6.4-4.9,7.8c-5.5,2-10.3,5.3-15.2,8.4c-1.1,0.7-2.5,1.2-2.5,2.9c3.8,0.5,6.8-0.9,9.6-2.6c5.8-3.4,11.2-3.2,16.7,0.4
		c0,2.7-2.1,2.4-3.8,2.6c-2.9,0.3-6-0.8-8.6,0.7c-7.2,4.2-14.9,5.6-23,4.8c-2.8-0.3-5.5-0.2-8.1,0.6c-1.3,7.5,0.2,14.6,3.3,21.5
		c2.5,0.7,5,2.1,8,2.2c5.6,0.2,11.2,0.8,16.8,1.3c4.1,0.4,8.1,1.6,12.2,1.8c4.1,0.2,8.3,0.4,12.4,0.9c3,0.4,5.4,1.4,7,3.9
		c1.4,2.2,3.4,3.2,5.6,3.8c3.5,1,7,2.3,10.2,4.2c-1.5,1.9-5.2,2.7-5.7,1.1c-0.8-2.4-2.8-1.9-4.2-2.6c-1.9-0.9-4.1-1.2-5.5-2.8
		c-5.1-6-12.1-5.3-18.9-5.8c2.6,0.9,5,2.5,7.9,2.9c1.5,0.2,3.2,0.3,4.5,1.8c2.4,2.9,5.7,4.3,9.1,5.4c1.9,0.6,4.1,0.8,5.4,2.7
		c-2.1,2.6-4.3,3.4-8,2.9c-2.3-0.3-4.6-0.9-7-0.6c-4-2.3-8.5-3.4-12.5-5.8c-1.9-1.1-4-1.4-6.2-1.2c-2.6,0.3-5.2,0.8-7.7-0.1
		c-1.6-0.5-3.3-1.1-3.2-3.2c0.1-2.4,2.1-2.6,3.8-3c0.7-0.2,1.4,0,2.1,0.1c5.7,0.9,11.3,1.6,16.8,3.8c4.1,1.6,7.4,4.3,10.4,5.9
		c-2.9-0.9-5.5-4.1-9.4-5.5c-4.5-1.6-9.3-2.2-13.6-3.9c-5.7-2.2-11.5-3.8-17.6-4c-5.2-0.1-10.1-1.3-15.1-2.2
		c-1.8-0.3-2.9-1.5-3.4-3.2c-1.5-4.6-3.1-9.2-2.7-14.2c0.6-7.6-1.1-15.1-1-22.7c0.1-7.3,1.3-14.1,4.6-20.3
		c4.7-8.8,7.7-17.7,4.9-27.8c-0.5-1.7-0.9-3.8,1.4-4.6c2.4-0.9,3.4,0.9,4.3,2.7c2.2,4.5,2.6,9.3,2.2,14.2c-0.2,2.8,0.9,4.2,3.8,4.1
		c3-0.2,6.1-0.1,9.1-0.5c3.8-0.5,7.6-1.4,11.5-1.8c2.1-0.2,3.9,0.4,4.5,2.7c0.6,2.4-0.7,3.9-2.8,4.9c-1.7,0.8-3.5,1.3-5.4,1.7
		c-0.2,0.1-0.3,0-0.3-0.1c0.2-0.5-0.5,0.1,0.4,0c5.4,0.9,10.8-0.7,16.3-1.9c8-1.7,15.1-5.1,20.6-11.7c6.2-7.4,10.1-16.1,11.9-25.2
		c2.1-10.8-0.4-14.2-9.5-17.7c-5.6-2.2-11.3-1.9-17.1-1.9c-5.1,0-10.3,1.4-15-2.3c-5.1-4-11.4-4.8-17.7-4c-5.5,0.7-11,1.5-16.4,2.3
		c-6.4,0.9-12.9,0.4-19.2,2.8c-6.3,2.4-12.6,5-19.1,7c-8.3,2.6-9.1,3.5-10.1,12.2c-0.1,1.2-0.2,2.5-0.1,3.7
		c0.4,10.2,0.5,20.4,2.1,30.5c1.1,6.5,1.6,13.1,3.6,19.5c7,21.5,18,41,30.4,59.7c1.9,2.8,4.5,4.2,7.9,4.8c9.2,1.6,18.4,1.9,27.6,0.1
		c3.4-0.7,7.1-1.8,10.4-0.4c5,2,9.9,4.3,14.7,6.5c0.5,3.5-2.1,2.5-3.7,2.3c-5.1-0.8-9.8-2.7-14-5.5c-5.6,1.8-11.1,2.5-16.8,3
		c-4.6,0.4-9.3,0.1-13.9,0.5c-6.5,0.6-13.4-0.4-17.4-7.1c-5.3-8.9-10.6-17.7-15.8-26.6c-2.1-3.7-3.6-7.7-5.8-11.1
		c-2.7,0.3-5.4,1.9-7.3,0.9c-4-2.1-7.8-0.7-11.7-0.7c-5.2,0-10.5,1.2-15.6-0.4c-6.1-1.9-12.5-2.5-18.8-2.9
		c-3.8-0.2-7.6-0.3-11.5,0.8c-3,0.8-6.5,1.7-9.2-0.5c-2.9-2.4-5.9-4.2-9.7-4.6c0.2-1.7,0.9-2.1,2-1.9c2,0.4,4.2,0.7,5.8,2
		c2.9,2.3,5.6,2,9.3,1.6c9.6-1,19.4-1.2,28.9,1c5.6,1.3,11.2,1.5,16.7,0.7c3.2-3.4,5.5-7.6,9.8-9.8c-0.4,4-4.3,5.8-5.2,10.4
		c5.1-3.2,9.7,2.5,14.5-0.4c-0.3-2.6-2.9-4.1-3.3-6.2c-1.4-7.3-5.7-13.4-8-20.3c-0.4-1.1-0.1-3-2.2-2.8
		C745.6,604.6,745.4,604.7,745.2,604.7z"/>
	<path d="M273.7,406.2c-0.4,0.4,0.1-0.1-0.3,0.3c-0.9,0.3-1.8,0.5-2.7,0.9c-8.3,2.9-16.5,3.7-24.9-0.3c-4.7-2.2-8.3-5.2-11.6-9
		c-5.6-6.5-11.4-12.7-14.4-21.1c-2-5.5-1-11.3-2.7-16.8c-1.3-4.5-3.1-8-6.6-11c-3.3-2.8-6.1-6.6-6.6-11c-0.4-3.5-1.1-6.8-2.6-9.9
		c-1.4-3-1.6-6.1,0.2-9.1c1.1-1.8,1.3-3.9,0.6-6c-0.3-1.2-0.4-2.5-0.4-3.7c0.1-4.6,2-6.6,6.5-6.8c1.9-0.1,3.9,0,5.8,0.3
		c2.4,0.4,4.5-0.1,6.7-1.2c5.7-2.9,11.7-4.7,18.2-5.1c5.1-0.3,10.2,0.1,15.4-1.3c12.9-3.4,26.2-5.6,39.3-8.2
		c2.6-0.5,5.2-0.7,7.7-1.7c3.9-1.7,7.9-2.3,12.1-2.7c7.6-0.6,15-1.8,21.8-5.7c3.8-2.2,8-3.7,12.2-5.2c11.5-4.3,23.2-7.3,35.7-5.1
		c1.3,0.2,2.8,0.3,4.1,0c8.5-2.4,17-1.2,25.5,0.2c2.2,0.4,4.3,0.5,5.6,3c5.8-3.1,11.4-6,17.7-7.5c6-1.4,11.9-3.8,18.3-4
		c0,2.8-1.7,2.7-3.1,3.1c-6.1,1.7-12.3,3.3-18.4,5.1c-2.9,0.8-5.7,1.8-8.3,3.6c-3.6,2.4-7.8,2.9-12.1,1.5c0-1.3,1.4-1,1.8-1.8
		c-9-1.6-17.7-2.8-26.6-0.5c-1.9,0.5-4.1,0.2-6.2,0c-5-0.6-9.9-0.4-14.9,0.5c-6.3,1.1-12.2,3.5-18.2,5.6c-9.3,3.2-17.6,9.1-27.9,9.9
		c-8.1,0.7-15.9,3-23.9,5c-13.1,3.2-26.5,5.6-39.8,8.1c-3.2,0.6-4.7,1.8-4.2,5.2c2.7-0.1,5.3-1.4,8.2-0.6c-3.1,3.6-8.8,2-11.5,6.3
		c5.3,9.1,10.4,17.9,21,21.6c1.8-2.6,4.3-4.1,7.1-5.5c4.3-2.1,8.8-3.1,13.2-4.6c3.2-1,6.2-2.2,9.6-2.3c5.4-0.2,10.8-0.3,16.2,0.2
		c8.2,0.7,16.3,0.4,24.4-1c9.8-1.6,19.7-3.1,29.5-4.6c10.4-1.6,20.7-3.3,31.3-2.1c3.1,0.4,6.4,0.5,9.2,2c10.6,5.6,20.7,3.3,30.9-1.3
		c-4.9-1.6-8.9-4.5-13-7.2c-1.7-1.1-3.7-1.9-5.9-1.2c-1.6,0.5-2.8,0.1-3.9-1.4c4.3-1,8.4-0.2,12.5,1.4c0.2,0.1,0.4,0.4,0.5,0.6
		c0.6,1.9,2.2,1.9,3.7,2.1c1.8,0.3,3.6,0.5,5.3,0.7c2.5,0.3,4.1,1.4,4,3.7c7.4,3.7,14.6,4.7,22,0.8c-7-11.1-8.5-23.9-11.1-36.6
		c-4.7,3.3-9.4,5.3-15,3.2c2.5-2.7,5.6-4.4,8.8-5.9c3-1.4,5.4-3.7,5.6-7c0.3-3.9,0.6-8-1.4-11.5c0.9-2.8,3-3.4,5.1-4.1
		c4.5-1.3,8.9-3.1,12.9-5.7c7.4-4.9,14.7-9.8,22.8-13.5c7-3.2,13.1-7.6,18.7-12.9c1.1-1.1,2.2-2.1,2.7-3.6
		c3.4-8.9,9.2-15.8,16.6-21.8c11.4-9.4,24.3-14.6,38.9-15.6c9.2-0.6,18,2.1,27.1,4.4c1.8-0.7,3.7-2.9,5.7-2.5
		c3.5,0.7,6.8-0.5,10.2-0.1s6.9-0.9,10.4-1.6c0.9-0.2,2-0.8,2.4-1.5c2.4-4.5,6-5.8,10.5-3.8c2.1-2,2.8-4.8,5.1-6
		c5.7-3,10.9-7.3,17.4-8.7c9.4-2,17.5-7.4,26.5-10.7c6.9-2.5,13.6-5.2,20.7-7c6.3-1.6,12.9-2,18.8-4.7c3.6-1.6,7.2-2.9,11.1-3.2
		c4.4-0.3,9-2.2,13.2-0.7c9.7,3.4,20,4.1,29.7,7.5c1.6,0.6,3.2,0.7,4.9,0.6c6.4-0.3,7.4,0.7,7.5,7.4c2,1.9,4.5,3.4,7.5,4.3
		c1.9-1,3.9-1.8,6.1-2.3c1.9-0.5,3.8-1.8,4.4-3.5c0.9-2.5,3-3.1,4.8-4.1c5.5-3.1,10.9-6.2,14.8-11.7c2.4-3.4,4.1-7.4,8.4-9.2
		c6.7-2.8,13.2-6.3,20.7-6.4c3.7,0,7.3-2,11-0.7c2.2,0.8,4.1,0.4,5.6-1.7c3.1,2.9,5.4,0.1,7.7-1.3c1.3,2-1.3,3.6,0,5.3
		c2.3,1,4.6-2.4,6.8,0c0.2,2.4-2.6,1.9-3.1,3.8c4.7,2.9,7.2,8.1,11.7,11.3c2,1.4,3.3,3.7,4.4,6c1,2.1,1.8,4.3,0,6.5
		c1.8,0.8,4,0.1,4.9,2.4c0.2,1.1-1.3,1.6-1.2,3.1c0.9,1.6,2,3.3,2.4,5.4c0.5,2.4-1.1,3.4-3.8,3.7c2.9,1.4,6.1,0.6,7.2,4.1
		c-0.8,0.7-0.7,2.3-2,2.5c-2,0.1-3.1-1.7-5-1.4c1.5,2,4.2,2.4,5,4.9c-2.3,1.2-3.7-1.1-5.6-0.9c-0.3-0.3-0.7-0.5-1.2-0.8
		c-0.1,0,0,0-0.1,0c0.4,0.3,0.9,0.5,1.3,0.8c2.1,3.8,7,3.6,10,6.8c-2.3,2.6,0.6,4.8,0.6,7.4c-1,1.6-2.6,3.2-1.5,5.2
		c-3.4,2.7-7.1,4-11,3c-3.6-0.9-7.1-2.3-11-2.6c-4.6,5.5-8.7,12.1-17.1,12c-3.7,5.2-6.9,10.3-11.7,13.5c-1.9-0.1-2.2-2.1-3.7-2.2
		c-2.5,0.2-3.5,2.8-5.8,3.3c-1-0.5-2.1-1-3.1-1.5c-0.9,0.6-1.4,1.6-3,1.8c-2.4-2.5-4.6-0.7-7,1c-5.6,4-12.4,1.6-14.4-4.9
		c-1.1-3.7-2.1-7.4-3.7-11c-8.5,0.1-16.9-0.6-25.3,1.4c-0.7,1.8-2.4,3.4-2.5,5.8c-0.4,5.9-2.8,11-6.3,15.6c-3.3,4.4-7,8.5-10.6,12.9
		c0,5.8,1.3,11.8-1.5,17.1c3.1,8,5,16,3.8,24.2c-0.5,3.5,0.2,6.4,1.5,9.5c2,4.6,3,9.5,2.6,14.6c-0.2,2.4-0.2,4.9-2.3,6.6
		c-0.9-0.5-0.8-1.1-0.8-1.6c0.4-8.3-0.3-16.3-3.9-23.9c-0.5-1-0.5-2.1-0.2-3.2c1.7-6.8,0.1-13.4-1-19.8c-1.6-0.4-1.7,1.9-3.3,0.9
		c-1.1-3,0.1-5.8,1.7-8.3c0.9-1.4,1.5-2.7,1.4-4.2c-0.2-6.5-0.4-13.1-1-19.6c-0.3-3.1-1.8-5.7-4.4-7.7c-4.6-3.3-7.2-8-8.4-13.4
		c-0.3-1.2-1.5-2.7-0.1-4.4c1.4,1.1,1.8,2.7,2.5,3.9c1.9,3.4,3.3,7.2,5.9,9.9c4.2,4.3,7,9.2,7.8,15.4c2.9-5.3,5.9-10.4,9.1-15.3
		c3.6-5.5,4.5-11.5,4.1-17.9c-0.2-2.9-0.5-5.8-0.7-8.7c-0.1-1.1-0.2-2.3,1.1-2.4c1.3,0.1,0.6,1.6,1.6,1.7
		c0.3-12.8-7.7-26.2-16.9-28.3c1.8,5.5,1.8,5.5,0.4,7.8c-1.2-1-1.1-2.5-1.5-3.8c-2.1-6.7-8.9-10.3-15.7-8.5
		c-5.2,1.4-10.1,3.1-14.8,5.9c-9.9,6-20,11.4-27.4,21c-4.7,6-6.8,12.3-7.6,19.3c9.3,4.3,18.7,3.1,28.2,2.8c-0.6-5-2.3-9.3-1.7-14.1
		c2.3,0.8,2.3,2.4,2.5,3.6c0.8,4.3,1.2,8.8,2.5,13c1.3,4.4,0.6,8.4-0.9,12.5s-3.2,7.9-3.3,12.6c-0.2,10-1.1,19.9,1.6,29.6
		c1.1,4,1.7,8,1.8,12.2c0.1,5.4,1.6,10.6,5.1,15c0.9-1.2-0.6-2.9,1.3-3.9c1.8,2.9,1.8,6,1.2,9c-0.4,2.2-0.5,4.4-0.1,6.6
		c0.6,3.7,0.4,7.4,0.4,11.2c-0.1,6.7-0.6,13.2,0.6,20.1c2.2,12.2,5.3,24.3,7.8,36.5c0.7,3.4,2,6.6,3.7,9.7c4,7.6,7.1,15.6,9.9,23.6
		c2.9,8.5,8,15.6,11.9,23.5c1.2,2.3,3.1,3.3,5.8,3.2c6.2-0.2,12.4,0.3,18.6,0.7c4.7,0.3,9.5,1.2,14-1.6c3.7-2.3,7.3-1.2,10.8,1
		c1.5,1,3.1,1.8,4.7,2.7c2,1.1,4.1,1.3,6.4,0.1c-2.2-1.4-4.7-2.2-6.1-4c-4.5-5.5-10.4-6-16.8-5.4c-0.4,0-0.9-0.1-1.2,0
		c-2.3,0.8-3.4-0.9-4.7-2.5c3.4,1.6,6.9,1,10.3,0.7c4.5-0.4,8.2,0.9,11.7,3.9c6.6,5.8,11,6.6,17.9,4.6c-5.7-3.3-13-3-17.9-7.9
		c2.4-0.3,4.3,1.3,6.6,1.5c-1-3-3.3-4.1-5.9-3.7c-8.5,1.4-16.8,0.1-25.1-1.6c-5-1-10.2-1.2-15.1-2.3c-1.8-0.4-2.6,1.3-3.9,1.1
		c-1-0.7,0.1-1.8-0.2-2c-1.5-1.2-2.6,0.2-3.6-0.5c-0.6-3.1,0-6.1-0.6-9.2c-1.9-11-3.1-22.2-3.8-33.3c-0.6-9.4-0.2-18.8-0.3-28.2
		c0-1.1-0.5-2.5,0.3-3.2c2.3-2.1,1.2-4.6,1.2-7c0-2.1-0.6-4.1-0.1-6.2c1.3-5.5,0.5-10.7-1.6-15.8c-0.4-1-1.4-2.2,0.4-3.4
		c3,3.4,4.4,7.4,4.2,11.8c-0.2,4.1-0.6,8.3-0.5,12.3c0.3,9.3-1.1,18.4-1.1,27.7c0.1,7.6,0.3,15.1,1.3,22.6c0.8,0.4,1.2,0.8,1.8,0.9
		c8.4,1.1,16.6,3.3,25.1,3.7c7.5,0.3,14.8,1.6,22.2,2.7c4.4,0.6,8.7,2.3,12.6,5.3c-1.7,2.1-5.1,2.2-5,5.8
		c-8.3-1.7-16.3-1.8-24.3-1.5c-1.1,0-2.2-0.4-3.2,0.3c-3.9,2.7-7.9,1.5-11.9,0.1c-3.2-1.1-6.3-1.9-9.7-1.7c-1.4,0.1-3,0.3-4-1.7
		c4.7-0.6,9.2-1.3,13.2,0.9c2.6,1.4,5.2,1.4,7.9,1.6c1.9,0.2,2.7-0.9,2.8-2.9c-3.5-0.3-6.8-1-9.8-2.9c-2.9-1.8-5.8-3.1-9.3-2.3
		c-0.6,0.1-1.4-0.1-1.3-1.3c3-1.1,5.9-0.6,8.8,0.4c3.9,1.4,7.4,3.6,11.7,3.8c0.7,0,1.4,0.3,1.8,0.9c1.1,1.8,2.9,2.1,4.7,2.1
		c5.9,0.1,11.7,0,17.8,0c-1.6-1.2-3.4-1.5-5.1-1.5c-7.3,0.2-14.3-2-20.9-4.4c-6.8-2.5-14-3-20.7-5.3c-1.5-0.5-2.6,0.5-4,0.9
		c1.5,8,2.4,16,0.9,23.9c1.5,1.3,2.8,2.5,4.2,3.8c1.7-0.2,3.5-0.3,5.3,0.1c5.5,1,11.1,1.7,16.6,3c5.9,1.4,12.3,1.8,18.5,0.7
		c2.8-0.5,5.9-0.8,7.7,1.6c2.7,3.5,6.5,4,10.2,4.8c4.3,0.9,7.8,3.8,12.7,4.3c-1.9,2.3-3.4,1.8-5,1.1c-1.2-0.6-2.4-1.3-3.6-2h0.1
		c-0.7,1.4,1.3,2.1,0.8,3.5c-1.9,1.5-4.2,1.8-6.6,1.7c-2.5,0-4.9,0.2-7.2,1.6c-3.1,1.9-6.3,1.4-9.3-0.5c-2.7-1.7-5.3-3.5-8.7-4.7
		c-7,4.4-15.1,4.1-23.1,3.7c-4.6-0.2-9.1-0.8-13.7-0.6c-4.8,0.2-8-1.9-9.8-6.1c-1.6-3.7-4.1-6.9-6.4-10.1c-2.3-3.1-3.8-6.4-4.7-10
		c-0.8-3.2-1.7-6.4-3-9.4c-3.6-8.2-7.6-16.3-10.5-24.8c-4.1-11.8-5.2-24.3-7.8-36.4c-1.2-5.7-2.1-11.2-0.8-17c0.1-0.5,0.1-1.1,0-1.6
		c-1.1-4.9-0.9-10-0.6-14.9c0.3-4.6-1-8.4-3.7-11.9c-2.9-3.8-4.1-8.1-3.8-12.8c0.2-3.6-0.5-7.1-1.1-10.7c-1.1-7-3-13.8-3.6-20.8
		c-0.2-2.8,0.9-5.7,0-8.5c-5.6,1.1-8.2,1.2-12.7-1.1c-3.5-1.8-6.9-1.6-10.4-0.5c-4,1.2-7.9,2.7-11.2,5.2
		c-6.2,4.6-12.8,8.7-19.7,12.3c-1,0.5-1.7,2.1-3.3,1.6c-0.1-1.7,2-1.7,2-3.4c-3.6,0.8-7.1-0.1-10.7-0.2c-1.9-0.1-3.9-0.3-5.7,0.6
		c-5.6,2.7-12.5,2.3-17.4,7.1c-1.9,1.8-4.8,0.8-7,2.1c-3.1,1.8-6.3,1.8-9.6,0.5c-0.2-0.1-0.5,0.1-0.7,0.2c-0.8,1.1,0.9,2.4-0.2,3.6
		c-0.4,0.6-1.1,1.2-1.9,1.3c-4.1,0.6-5.8,3.6-7.3,7c-2.6,5.6-6.5,10.2-11.4,14c-2.5,1.9-5.8,3-8.3,2.8c-4.8-0.4-8.5,0.9-12.3,3.3
		c-3.1,2.1-6.6,3.5-10.3,4.3c-9.1,2.2-18.3,2.6-27.9,3.4c-0.2,1.5-1.4,1.9-2.8,2.2c-5.6,1-10.9,3.2-16.2,5
		c-5.1,1.7-10.5,2.6-15.5,1.1c-5.7-1.7-10.5,0.3-15,2.8c-3.8,2.1-7.2,2.5-11.1,1.4c-1.7-0.5-3.1-0.4-4.7,0.4
		c-3.9,1.9-7.8,3.6-9.3,8.3c-2.6-1.2-2.6-4.1-5.4-5.3c-7.5,4-15.5,2.1-22.9-0.4c-10.4,4.7-20.5,7.5-31.4,3.9c-1.9-0.6-3.7-2-5.7-2.5
		c-8.3-2-16.7-2.3-25.1-0.8c-6,1.1-11.9,2.3-18,3.1c-9.6,1.3-19,3.5-28.6,4.7c-7,0.9-14.2,2.2-21.3-0.3c-1.9-0.7-4.2-0.8-6.1,0.2
		c-2.3,1.2-4.8,1.3-7.2,1.6c-9.1,0.9-18.2,1.6-26.4,6.9c-0.7,2.9-3.8,4.4-6.5,7.6c2.1-1,3.4-0.9,4.6-0.9c1.7-0.9,1.8-4,5.3-3.2
		c-3.3,5.5-6.3,10.6-9.4,15.9c0.3,0.5,0.6,1.3,1.1,2.3c-2.2,1.4-1.8,3.5-1.3,5.8c0.7,3.3,0.8,6.5,0.2,9.9c-0.3,1.9-2.5,3.1-1.7,5.6
		c2.1,2,2.5,5.5,5,7.9c3.5,0.7,7.1,1.5,10.5,2.2c1.2,2.9,2.3,5.4,3.5,8.2c2.1-1.2,2.8,0.4,3.3,2.1c0.8,2.3,0.7,4.7-0.6,6.8
		c-3,4.8-7.7,7-13.1,7.8c-1.3,0.2-2.5-0.1-2.8-1.7C273.7,406.1,273.8,406.1,273.7,406.2z"/>
	<path d="M775,353.2c0.5,7.7,2.3,15.3,1.5,23.1c-0.4,3.8,0.2,7.5,2.3,11.1c2.9,4.8,4,10.2,4.8,15.7c0.2,1.4,0.6,3.1-1.6,3.5
		c-1.6-0.9-1.7-2.5-2.1-3.9c-1.2-3.5-2.1-7.2-3.5-10.6c-2.2-5.1-2.4-10.5-2.2-15.8c0.3-9.1,0.2-18.1-2.9-26.8
		c-0.6-1.7-0.7-3.5,0.6-5.4C773,347,774.8,350,775,353.2z"/>
	<path d="M779.7,321c1.7,3.7,2.7,7.6,2.5,11.7c-1.4-0.1-1.7-0.9-1.7-1.5c0.1-4.3-2.9-7.2-4.6-10.7c-0.8-1.6-1.6-3.4-1.5-5.1
		c0.1-3.1-1-5.9-0.8-8.7c-6.6-6.3-6.7-6.3-4.7-9c4.3,4.8,9.6,8.3,13.4,13.5c-1.9-1-3.4-2.4-6.2-2.6C776.5,313.2,778,317.1,779.7,321
		z"/>
	<path d="M686.7,602.4c-0.2,4.7-0.5,9.4-1.6,14c-0.4,1.7-0.6,3.5-3.2,4.9c1.7-5.1,2-9.8,2.2-14.4c0.3-6.6,0.4-13.3,0.9-19.9
		c0.4-6.7,1.6-13.4,4.6-19.5C687.3,579,687.1,590.7,686.7,602.4z"/>
	<path d="M746.2,554.6c-3.5,2.2-7.8,2.7-11.5,4.3c-3.9,1.7-7.9,3.2-11.7,5.2c-3.9,2.1-7.5,4.7-11.1,7.2c-3.5,2.4-6.5,5.6-10.6,7.1
		c12.8-11.8,26.8-21.4,44.1-25.5C745.5,553.6,745.8,554.1,746.2,554.6z"/>
	<path d="M760.3,340.5c-0.1,4.3-0.7,8.5,0.8,12.7c2.5,7,3,14.3,3.9,21.6c0,0.3-0.3,0.8-1.3,0.5c-0.3-1.6-0.6-3.4-0.9-5.3
		c-0.8-5.6-1.6-11.1-4-16.4c-2.8-6.1-0.5-12.7-0.3-19.1C760.6,336.1,760.3,338.4,760.3,340.5z"/>
	<path d="M757.4,237c3,9.3,7.8,17.4,15.3,23.8c2,1.7,1.4,3.2-1.6,4.1c-1.7-4.6-4.2-8.8-7.9-12c-4.3-3.8-6.4-8.5-7.7-13.8
		c-0.2-1-0.3-1.9,0.9-2.7C757,236.7,757.3,236.8,757.4,237z"/>
	<path d="M759.5,294.4c-0.2,2.9-0.7,6,1.9,8.5c0.9,0.9,1,2.3-0.6,3.1c-2.2-0.8-2.6-3.5-4.4-4.6c-4.1-2.5-4.1-2.4-3.5-7.1
		c1.3,1.3,2,3,3.9,3.6c-0.3-3.8-0.8-7.3,0.2-11.1C759.4,289.2,759.6,291.7,759.5,294.4z"/>
	<path d="M388,581.2c11.7,0.6,23.1,3.6,35.5,3C419.6,587.1,392.4,584.7,388,581.2z"/>
	<path d="M348.9,298.2c10.3-1.7,20.7-2.9,31.3-6.6c-1.3,2.9-3.3,3.3-5.3,3.8c-9.4,2.1-18.8,3.8-28.7,5
		C346.8,298.8,347.9,298.4,348.9,298.2z"/>
	<path d="M748.3,160.1c2,6.4-5,18.9-10.9,19.9C740.8,173.2,747.1,168,748.3,160.1z"/>
	<path d="M769.2,333.8c-8.1-2.2-10.7-11.9-4.9-17.2C763.4,322.8,764.7,328.4,769.2,333.8z"/>
	<path d="M713.9,615.8c5.6-11.7,13.3-21.5,24.9-27.7c-9.1,6.5-16.1,14.9-21.8,24.4c-0.8,1.3-1.4,2.7-2.7,3.6
		C714.1,616,714,615.9,713.9,615.8z"/>
	<path d="M745.9,604.6c-7.9,6.8-16.2,13-25.7,17.3c8.5-5.8,16.7-12,25.3-17.8C745.6,604.2,745.7,604.4,745.9,604.6z"/>
	<path d="M745.3,205.9c0.1-6.9,1.6-13.9-1-20.7C748.4,189.2,749,201.8,745.3,205.9z"/>
	<path d="M701.1,592.3c-0.9,9.6-3,18.8-7.8,27.3C695.8,610.4,698.9,601.5,701.1,592.3z"/>
	<path d="M304.6,557.5c1.2-2.1,2.7-1.5,4.1-1.3c6.3,1,12.2,4,18.8,2.3C319.8,560.6,312.4,558.6,304.6,557.5z"/>
	<path d="M279.9,297.5c-4.9,4.4-11.4,2.3-16.9,4.3c-0.1,0-0.3-0.4-0.5-0.7c0.7-1.7,2.3-1.5,3.7-1.8
		C270.7,298.4,275.5,299.2,279.9,297.5L279.9,297.5z"/>
	<path d="M430.9,583.1c5.2-0.1,10.2-2.4,15.6-1.2C441.4,583.9,436.2,583.9,430.9,583.1z"/>
	<path d="M401,283.4c-4.6,2.7-9.5,4.3-14.5,5.5C395.4,283.5,399,282.2,401,283.4z"/>
	<path d="M724.3,549.6c-2.5,3.9-5.9,7-9.9,9.1C717.3,555.3,720.2,551.8,724.3,549.6z"/>
	<path d="M748.2,249.1c1.6-3.1,1.9-7,5.4-9.1C752.5,243.4,751.3,246.8,748.2,249.1z"/>
	<path d="M452.1,609.7c-3-0.4-5-2.3-6.3-4.9C448,606.1,451.6,605.8,452.1,609.7z"/>
	<path d="M486.6,590.6c-2.9,1.7-5.4,0.6-7.8-0.7C481.3,589.3,484,587.1,486.6,590.6z"/>
	<path d="M440.3,278.9c-2.1,2.9-4.7,2.1-7.3,1.8C435.1,279,437,277,440.3,278.9z"/>
	<path d="M406.8,304.5c2.6,0,5.5-0.9,7.2,2.4C411,307.6,408.9,306.1,406.8,304.5z"/>
	<path d="M705.5,567.8c-0.5-3.3-0.5-6.6,1.8-9.4C706.6,561.5,706.7,564.8,705.5,567.8z"/>
	<path d="M417.1,284.7c2.3-1.3,4.2-3,7.3-1.1C422.2,286.6,419.9,285.9,417.1,284.7z"/>
	<path d="M469.2,590.3c-3.4,1.2-3.4,1.2-6.7-1.5C464.7,588.8,467.5,587.1,469.2,590.3z"/>
	<path d="M809.4,417.2c1.2-0.1,2.7-0.5,4.2,1.2c-3.5,0.8-6,0.7-8.2-2C807,415.9,808,417.3,809.4,417.2z"/>
	<path d="M770.3,331.3c1.5,2.3-0.7,5,1,7.1C768.8,335.7,768.7,335,770.3,331.3z"/>
	<path d="M475.8,590.6c-1.9,2-3.6,0.6-5.8,0.1C472.3,589,474,588,475.8,590.6z"/>
	<path d="M425,283.3c2-1.1,3.2-3.3,5.5-1C429,284.2,427.4,284.6,425,283.3z"/>
	<path d="M345.5,298.9c-2,1.5-3.6,2.3-6.3,1.4C341.3,298.5,342.9,297.6,345.5,298.9z"/>
	<path d="M337.5,300.1c-2.4,1.4-2.4,1.4-5.4,0.6C335.3,298.8,335.3,298.8,337.5,300.1z"/>
	<path d="M379.7,579.2c-2.4,0.8-4.1,0.7-5.7-0.9C375.9,577.3,377.7,577.1,379.7,579.2z"/>
	<path d="M386.8,580.8c-1.9,0.4-3.7,0.7-5.8-0.8C384.9,578.6,384.9,578.6,386.8,580.8z"/>
	<path d="M742.5,262.9c1-2.1,0.6-4,2.8-4.8C745.2,259.9,745.4,261.8,742.5,262.9z"/>
	<path d="M458,573.9c-2.2-0.7-3.8-0.7-5.4-2.8C455,571.3,456.6,571.2,458,573.9z"/>
	<path d="M714.3,616.1c-0.6,2-1.6,3.7-3.2,5c0.7-2,1.2-3.9,2.8-5.4C714,615.9,714.1,616,714.3,616.1z"/>
	<path d="M395.6,270c0,0-0.1,0.2-0.2,0.6c-0.9,0.1-1.9,0.7-3.4-1C393.6,269.6,394.7,268.8,395.6,270z"/>
	<path d="M403.5,271.1c2.1-0.8,3.3-1.4,5.1,0.3C406.8,272.2,405.6,272.2,403.5,271.1z"/>
	<path d="M442.2,566.8c1.3,0.1,2.8-0.2,3.9,1.8C444.3,568.3,443,568.2,442.2,566.8z"/>
	<path d="M769.5,387.7c-0.4-1.1-1.3-2-0.2-3.5C769.8,385.6,770.3,386.6,769.5,387.7z"/>
	<path d="M745.2,254.2c0.8-1.8,0.3-3.3,2.5-4.1C747.6,252,747.1,253.1,745.2,254.2z"/>
	<path d="M259,316.5c1.3-0.9,2.2-1.6,3.8-1.1C261.7,316.3,261,317.5,259,316.5z"/>
	<path d="M754.7,234.5c0.1,0.6,0.4,1.3-0.9,1.7c-0.9-1.3-0.8-2.5,0.7-3.7C754.5,233.2,754.6,233.8,754.7,234.5z"/>
	<path d="M279.9,297.5c1.2-0.8,2.4-1.6,4-1.3C282.6,296.9,281.4,297.8,279.9,297.5L279.9,297.5z"/>
	<path d="M766.2,376.5c0.8,0.8,1.4,1.5,0.5,2.7C765.8,378.5,765,378,766.2,376.5z"/>
	<path d="M308.9,592.7c1.7,0.9,1.5,1.7-0.2,2.7C307.8,594.2,307.7,593.4,308.9,592.7z"/>
	<path d="M756.1,326.3c-0.1-1-1.4-1.4,0.1-2.7C756.7,324.4,757.4,325,756.1,326.3z"/>
	<path d="M757.5,332.9c-0.8-0.4-0.8-1-0.2-1.8C758.5,331.8,758.7,332.4,757.5,332.9z"/>
	<path d="M754.7,228.6c-0.1,0.2-0.6,0.4-0.7,0.3c-0.8-0.5-0.6-1.1-0.1-1.7C754.8,227.3,755.1,227.8,754.7,228.6z"/>
	<path d="M758.1,285.7c-0.8-0.4-1.4-0.8-0.6-2C758.8,284.3,758.7,284.9,758.1,285.7z"/>
	<path d="M757.4,280.3c0,0.2-0.3,0.5-0.4,0.5c-0.6,0-0.8-0.5-0.8-1.3C757.1,279.4,757.5,279.6,757.4,280.3z"/>
	<path d="M783.1,407.6c0.2,0.1,0.5,0.1,0.7,0.3c0.3,0.4,0.1,0.7-0.3,0.7c-0.2,0-0.4-0.2-0.6-0.4C782.9,408.1,783,407.8,783.1,407.6z
		"/>
	<path d="M787.1,414.7c-0.7-0.1-1.3-0.2-1-1.5C787.1,413.4,787.6,413.7,787.1,414.7z"/>
	<path fill="#FFFFFF" d="M640.4,642.6c-4.5-1.3-8.5-0.4-12.6,0.2c-3.5,0.5-6.7,2.6-10.4,2c-3.9-0.7-8-0.8-11.9-1.7
		c-11.2-2.8-22.4-5.2-33.9-2.3c-6.5,1.7-11.8-0.8-17.3-2.7c-0.6-1.1,1.1-1.8,0.1-2.8c-4.3-1.6-14.6-1.7-19.9,0.3
		c-2.9,1.2-5.4,0.6-7.9-0.7c-1.5-0.8-2.9-1.6-4.3-2.5c-2.6-1.7-5.3-1.7-8.3-1.1c-2.4,0.5-3.7,3-6.5,2.7c-2.3-6.6-4-13.1-3.2-20.2
		c1.7-14.4,4.2-28.6,7.1-42.9c1.1-0.6,2.4-0.3,3.6-0.3c3.8,0,7.6,0.1,11-1.4c6.7-3,13.9-3.6,20.9-4.9c6.2-1.2,12.6-1.7,18.7-3.8
		c9.4-3.3,18.5-7.3,25.6-14.7c1.6-1.7,3.6-3,5.6-4.2c14.2-8.7,29.5-10.9,45.9-8.2c7.9,1.3,14.4,5.6,21.3,8.8c2.2,1,4,2.3,4.4,4.5
		c-1.5,2.7-1.6,5.3-1.5,8.3c2.6-0.8,5.1,1.6,7.4-0.6c0.4-0.9-1-0.8-0.9-1.5c0.6-1.1,2.6-0.5,2.7-2.3c-1.9-0.7-3.8,1.1-5.6-0.1
		c1.6-1.4,3.8-0.6,5.1-1.4c1.3-1-0.2-1.3,0.1-2c0.8-0.2,1.6-0.4,2.6,0.4c-1.4,5.5-1.5,11.3-3.5,16.8c-0.5,1.3-1.4,3.1-0.6,3.9
		c1.9,1.9,0.9,3.8,0.8,5.7c-0.2,4.7-0.8,9.4-0.7,14.1c0.3,13.2-0.6,26.4-0.4,39.8c-3.4,0.9-7.2-0.8-9.9,2.2
		c-0.4,4.6-14,13.2-20.7,12.7c2-4.4,3.7-8.6,7-12.1c3.3-3.6,8.2-4.1,11.5-7.5C649.1,623.3,644.2,632.4,640.4,642.6z"/>
	<path fill="#FFFFFF" d="M848.6,682.4c-4.6-0.3-9.1-1.3-13-3.7c-2.5-1.5-4.9-2-7.4-1.3c-9.2,2.5-18.5,3-27.9,1.6
		c-5.5-0.8-11.3-0.9-14.6-6.9c-5.5-9.9-11.8-19.3-17.2-29.3c-10.6-19.5-16.8-40.1-18-62.2c-0.6-11.5-2-22.9,2-34.5
		c0.2-0.3,1-0.5,1.8-0.7c4.1-1.1,8.3-1.7,12.3-3.3c9.3-3.7,18.5-8.3,29-7.3c0.5,0.1,1.1-0.2,1.6-0.3c7.1-1.1,14.2-2.6,21.3-3
		c5.9-0.3,12.1-0.1,17,4.5c2,1.9,4.5,2.6,7.3,2.4c5-0.2,9.9,0.6,14.9,0.2c3.5-0.3,6.9,0.6,10.2,1.6c9.2,3,12.6,9.3,10.8,18.8
		c-0.5,2.8-2.6,4.7-3,7.4c-1.6,10.1-7.3,18-14.6,24.3c-8.6,7.4-19.7,8.9-30.6,10c-5.5,0.5-7.8-0.6-10-2.7c4.8-1.3,10.3-0.8,13.7-5.9
		c-5.2-1.4-10.1,0.9-15.2,1.2c-5.2,0.3-10.5-0.1-16.2,2c0.6-4.6,2.3-8.5,1.8-12.6c-0.5-4-1.2-8-4.1-11.3c-1,1.5-0.4,2.6,0,3.5
		c2.6,7.2,1.1,14-1,20.9c-1.5,5-4.4,9.4-6.2,14.2c-2.8,7.2-1.2,14.1-1.8,21.1c-0.4,5.2,0.5,10.7,0.6,16.1c0.1,5.1,1.8,9.9,3.5,15.4
		c2.5-2.2,4.5-0.7,6.4,0.1c2.3,0.9,4.7,1.8,7.2,1.6c4.1-0.3,8,0.7,11.9,1.4c3.6,0.7,7.9-0.7,10.3,3.6c5.2,0.7,9.9,3.6,15.4,3.6
		c3.1,4,7.5,6.2,13.2,7.8c-7.2,0.5-8.3,0.1-13.1-2.9c-6.2-3.9-12.5-7.6-20.4-6.2c-1.2,0.2-2.5-0.3-3.7-0.4c-1.4-0.1-2.7,0-3.1,1.9
		c3.6,1.4,7.2,1.4,10.7,1.1c3.6-0.2,6.8,0.7,9.8,2.6c2.3,1.5,4.6,3,7.3,4C848.4,680.9,848.9,681.5,848.6,682.4L848.6,682.4z"/>
	<path fill="#FFFFFF" d="M246.6,648.4c-0.5-0.1-1.1,0-1.6,0.3c-2,1.1-3.9,0.6-6-0.2c-2.7-1-5.1-2.4-7.5-4.1
		c-4.7-3.4-6.3-7.8-6.4-13.1c-0.1-4.2-0.7-8.2-1.5-12.3c-0.4-2.3-1.6-4.5-0.8-6.9c3.2-9.4,5.1-19.4,11.9-27.4
		c2.3-2.7,3.7-6.1,4.4-9.7c0.2-1.1,0.6-2.2,1.1-3.1c3.1-5.1,4.5-10.3,1.5-16c-0.1-0.2,0-0.5,0-0.5c5-8.3,10-16.3,13.9-25.5
		c3.5,2.9,7.1,2.2,10.5,2.4c5.3,0.3,10.7,0.6,15.2,3.5c4,2.6,8.3,4.3,12.6,6.2c2.1,0.9,4.1,1.9,6.2,2.9c-1.3,1.9-2.7,3.1-4.5,4
		c-4.6,2.4-8.7,5.4-10,10.9c-0.5,2-1.9,3.4-3.4,4.6c-3,2.5-4.6,5.8-5.4,9.5c-0.8,3.6-0.5,7.1,0.1,10.6c-0.5,1.4-2.2,1.5-2.3,3
		c0.9,2.3,6.1,7.4,8.6,8.4c1-1.3-1.3-2.2-0.5-3.7c1.3,2,3.2,3.1,5.1,4.3c-2,2-4.4,2.8-5.8,3.3c-3.9-3.4-7.5-6.5-10.9-9.7
		c-1.7-1.6-3.3-2.9-5.2-1.8c-2.2-1-2.9-3.6-5.1-3.3c-0.9,0.4-1.4,0.9-1.3,1.4c0.8,4.1,5.3,5.4,6.8,9.3c-2.6-0.8-5-3.3-7.7-1.1
		c-2.4,1.9-0.4,4,0,6.1c-6.5,1.1-7.4,2-3.2,9.8c-0.5,0.6-1.3,0.3-1.9,0.4c-4.2,0.6-5.6,3.4-3.5,7.1c1,1.9,2.7,3.1,4.5,4.1
		c1,0.5,2.5,0.7,2.4,2.6c-2.4,0.3-5.3-1.8-7.5,1.1c2.6,4.2,6.9,5,10.9,6c0.6,1.4-0.9,2.5-0.3,3.9c2.4,1.9,2.3,4.6,1.8,7.8
		C257.2,646.3,252.7,649.8,246.6,648.4z"/>
	<path fill="#FFFFFF" d="M897.3,621.1c0,0.2,0.2,0.2,0.5,0c4.3-4.1,11.2-3.9,15.5-9c-1.4-0.3-2.4-0.5-3.4-0.7
		c1.4-1.5,2.6-2.9,3.7-4.1c2,1.9,5,1.4,6.1,3.9c1.9-1.1,1.9-3.1,3.4-4.3c3.2-0.3,6.8,0.2,10.1-2.1c0,2.2-2.4,3.2-1.8,5.1
		c1.2,0.3,1.6-0.5,2.2-1c0.5-0.4,0.7-1.4,2.2-0.7c-5.5,4.7-12,7.6-17.4,11.8c1.5,2.6,3.6,1.7,5.1,1.4c3.5-0.7,7-0.1,9.6,1.6
		c2.7,1.7,4.7,1.4,7,0.6c2.8,3.2,6.2,3.1,9.5,2.6c3.5,0.7,3.1,5.8,7.3,5.1c0.5,2.2,0.8,4.2,1.3,6.4c-4.1,2.2-7.5,5.2-12,6.8
		c0.3-7.1-4.1-13.7-8.8-13.2c3,3.4,5.5,7,5.3,11.7c-7.8-0.2-12.1,6.8-18.7,9.6c-0.8-2.6-1-5-1.1-7.3c1-0.7,2.3,0.5,3.1-0.7
		c-1.2-2.1-2.6-1.4-4-0.7c-2.3,1.1-2.1,3.2-1.7,5.1c-1.9,0.8-3.6,1.4-5.3,2.1c-1.9-2.1-1.1-6.3-4.9-6.9c-1.3,1.9,1.2,2.8,0.3,4.1
		c-1.2,1.3-2.1,0.6-3-0.1c-1.9-1.4-3.8-1.2-5.9-0.4c-6,2.3-10.3-0.5-10.5-6.9c-0.1-2.3-0.1-4.7-0.1-7c-0.1-6.8-3-10.3-9.7-11.5
		c-1.5-0.3-2.9-0.8-4.3-1.5c-5.5-3.1-11.7-3-17.6-3.5c-5.9-0.5-11.5,2.1-17.1,4.2c0.9-8.5,6.8-14.4,13-13.3
		c3.7-2.9,6.9-6.5,10.8-8.9c5.5-3.4,8.9-8.1,11.4-13.7c2.1-4.9,5.4-8.9,8.6-13.1c0.2-0.3,0.7-0.3,1.2-0.5c1,0.4,1.9,1,2.6,1.9
		c0.4,1.2-0.2,2.7,0.5,3.8c1.1,0.6,1.8-1.8,3,0.1c-1.3,2-3.1,3.3-5.9,3.4c1.6,1.4,3.6,1.2,4.8,2.8c-1.4,3.7,1.8,5.4,3.8,7.6
		c3.3-1,5.9-0.1,8.6,1.5c3.7,2.1,7.1,5.4,12.2,3.9c-3.4,5.7-8.2,10.1-10.5,16.1c-0.3,0.8-1.5,1.6-2.2,1.7c-3.9,0.2-5.2,3.2-6.8,5.8
		C897.4,620.7,897.3,620.9,897.3,621.1z"/>
	<path fill="#FFFFFF" d="M838.8,629.2c-0.4-0.1-0.8-0.1-1.2-0.2c-5.3-0.5-10.4-1.5-15.4,2.1c-4.5,3.3-10.1,3.2-16.5,2.5
		c1.8-1.7,2.8-2.9,4-3.8c6.1-4.5,12.5-8.7,19.6-11.5c4-1.6,5-4.5,2.9-9.6c-1.1,6.7-6.3,8.5-10.8,11.2c-6.4,3.8-13.1,7.1-17.5,13.5
		c-3.1-0.3-6.1,0-9,0.4c-0.5-12.6-1.2-24.7,7.7-35c3.1,1.3,6.6,1.9,10.3,1.4c1.6-0.2,2.9,0.4,4.3,1.1c6.6,3.4,13.4,3.8,20.5,1.8
		c4-1.1,8.1-1.5,12.1-2.7c4.6-1.3,9.3-2.8,13.5-5.2c1.8-1,3.6-2.3,3-3.9c8.1-10.5,12.8-21.8,16.1-34.1c1.2,3.7,0.2,8.8,7.3,9.2
		c-7.7,4.3-11.1,10.7-14.2,17.1c-5,10.5-13.2,16.9-23.9,21c-3.2,1.2-6.1,3.2-9,5c-1.2,0.7-2.6,2-2.4,3.2c0.5,2.7-1.2,4.4-2,6.6
		c-0.9,2.5-1.9,4.9-1.8,7.7C837.1,627.7,838.8,627.6,838.8,629.2L838.8,629.2z"/>
	<path fill="#FFFFFF" d="M799.5,524.6c-11.4,3.2-22.7,6.7-33.7,11c-5.9,2.3-12.5,2.5-19,2.6c-0.5-4.5,0.5-8.9-1.4-12.9
		C754.9,517.8,784.6,518.4,799.5,524.6z"/>
	<path fill="#FFFFFF" d="M282.1,586c0-2.4-0.6-4.7-0.7-7c-0.2-4.2,0.4-8.2,3.6-11.5c1.5-1.6,2.4-3.7,3.6-5.5
		c2.6-4.2,5.7-8.2,11.1-10.5c-1.6,4.9-3.8,8.7-6.5,12.1c-3.9,4.9-6.1,10-4.9,16.4c0.6,3.3,0.9,6.8,0.6,10.2
		C285.6,591.1,282.2,589.1,282.1,586z"/>
	<path fill="#FFFFFF" d="M681.6,547.3c1.8-0.3,3.1,0.3,4.4,1.7c-2.3,12.3-4,24.8-5.4,37.3C677.5,573.1,676.9,560.1,681.6,547.3z"/>
	<path fill="#FFFFFF" d="M834.7,531.1c-7.5-3.1-15.3-4.3-23.5-2.7c-5.4,1-10.9,1.3-16.4,2c3.2-1.4,6.2-2.8,9.7-3.1
		c6.2-0.5,12.5-0.3,18.6-1.2c8.9-1.4,16.1,2.1,23.3,6.1C842.3,533,838.5,532.7,834.7,531.1z"/>
	<path fill="#FFFFFF" d="M929.9,599.4c-4.6-1.3-8.5-0.3-11.7,3.5c2.1,0.8,2.1,0.8,4.9-0.9c0.5,0.6,1,1.2,1.8,2.2c-3.1,0-4.5,2-5.7,4
		c-1.8-0.8-3.3-1.5-4.5-2.8c0.7-1.1,1.3-2.3,2.1-3.5c2.5-3.7,7.1-5.6,11.4-4.6C929.4,597.6,930.2,598.1,929.9,599.4L929.9,599.4z"/>
	<path fill="#FFFFFF" d="M954.7,562c0.2-0.2,0.4-0.5,0.7-0.7c3.4,2.4,6.8,4.8,10.4,7.3c-1.6,1-2.8,1.9-4.5,1.6
		C958,568.3,958.8,563.3,954.7,562z"/>
	<path fill="#FFFFFF" d="M963,619c3,0.2,2.4,2.2,1.9,3.8c3.6,4.4,7.7,7.8,12.7,10.2C970.7,632.1,964.3,625.8,963,619z"/>
	<path fill="#FFFFFF" d="M945.7,588.7c-2.9,1.5-4.5-0.5-6.4-2.2c1.8-2.1,4,0.6,5.9-1.2C945.8,586.9,946,587.8,945.7,588.7z"/>
	<path fill="#FFFFFF" d="M967.6,638.4c1.3,0,1.7-0.1,1.8,0c2.3,1.9,4.6,3.8,6.9,5.6C972.6,643.7,970.2,641.7,967.6,638.4z"/>
	<path fill="#FFFFFF" d="M980.3,587.5c0.2,1.1,1.3,1.8,0.9,3.4c-1.5-1.5-2.3,0.3-3.5,0.6c-1.1-0.6-2.1-1.2-3.2-1.7
		C976.7,590.2,978.2,588.2,980.3,587.5z"/>
	<path fill="#FFFFFF" d="M678.7,601.5c0,4.1,0,8.2,0,12.2c-0.3,0-0.6,0-0.9,0c0-4.1,0-8.2,0-12.1
		C678.3,601.2,678.6,601.2,678.7,601.5z"/>
	<path fill="#FFFFFF" d="M955.6,605.9c2.1,1.3,4.8,0,6,3.1C957.6,609.1,957.6,609.1,955.6,605.9z"/>
	<path fill="#FFFFFF" d="M958.2,575.9c0,0.3,0,0.6,0,0.9c-2,0-4,0-6,0C954.2,575.4,956.2,575.1,958.2,575.9z"/>
	<path fill="#FFFFFF" d="M979.1,604.7c-1.8-0.9-3-2.5-4.6-4.8C977.3,601.2,978.6,602.6,979.1,604.7z"/>
	<path fill="#FFFFFF" d="M900.3,573.7c-1.6,1.2-2.4,3.3-5.2,1.7C896.8,574,898.3,573.6,900.3,573.7z"/>
	<path fill="#FFFFFF" d="M964.4,598.8c-1.8-0.8-3.3-1.1-2.7-4C963.1,596.3,964,597.1,964.4,598.8z"/>
	<path fill="#FFFFFF" d="M956.1,604.1c1.5-0.6,2.6-0.9,3.9,0.4C958.4,605.2,957.4,605.2,956.1,604.1z"/>
	<path fill="#FFFFFF" d="M970.7,609.9c1.2,0.6,2.4,1.2,3.2,2.5C971.5,612.8,971.3,611.1,970.7,609.9z"/>
	<path fill="#FFFFFF" d="M933.2,570.7c1.4-1.4,2.9-1.3,4.5-0.9C936.4,570.7,935.1,571.3,933.2,570.7z"/>
	<path fill="#FFFFFF" d="M934.1,574.5c1.4-1.1,2.7-0.9,4-0.6C937,574.8,935.9,575.3,934.1,574.5z"/>
	<path fill="#FFFFFF" d="M925.1,601.6c1.2-0.8,2.3-1.1,3.5-0.3C927.6,601.8,926.5,602.2,925.1,601.6z"/>
	<path fill="#FFFFFF" d="M937.2,606.5c0.7,0.2,1.5,0.4,2.5,0.6c-0.7,0.4-1.2,0.7-1.7,0.9c-0.6,0.2-1-0.2-1.1-0.8
		C937,607,937.1,606.8,937.2,606.5z"/>
	<path fill="#FFFFFF" d="M902.5,573c2.5-0.7,1.8,1.1,1.7,2.7C903.1,574.7,902.3,574.1,902.5,573z"/>
	<path fill="#FFFFFF" d="M898.9,588.3c-1.2-0.7-1.2-1.7-0.9-3.1C898.9,586.3,899.6,587.1,898.9,588.3z"/>
	<path fill="#FFFFFF" d="M941.8,619c-0.7,0.4-1.2,1.4-2.4,0.7c0.7-0.8,1.3-1.3,2.2-1.2C942,618.5,942.1,618.8,941.8,619z"/>
	<path fill="#FFFFFF" d="M978.9,637c0.9,0.2,1.2,0.8,1.6,2C979.4,638.6,978.4,638.6,978.9,637z"/>
	<path fill="#FFFFFF" d="M980.6,611.5c0.2,0.7,1,1.3,0.5,2.3c-0.9-0.7-1.4-1.6-1.8-2.6C980.1,611,980.5,611.1,980.6,611.5z"/>
	<path fill="#FFFFFF" d="M938.3,610.3c-1,0.4-1.4,1.1-2.4,0.9C936.2,610.2,936.9,610,938.3,610.3z"/>
	<path fill="#FFFFFF" d="M257.4,618.1c0.7-0.6,1.3-0.5,1.9,0C258.7,619.2,258,619.8,257.4,618.1z"/>
	<path fill="#FFFFFF" d="M963.3,639.2c-0.9-0.6-1.9-1.1-1.2-2.9C962.5,637.6,962.9,638.5,963.3,639.2L963.3,639.2z"/>
	<path fill="#FFFFFF" d="M935.6,619.1c-0.7,0.3-1.3,0.1-2.2-0.3C934.3,618.4,935.1,618,935.6,619.1z"/>
	<path fill="#FFFFFF" d="M975.3,620.8c-0.4-0.6-1.1-0.6-1.1-1.8C975.2,619.4,975.8,619.6,975.3,620.8z"/>
	<path fill="#FFFFFF" d="M929.9,599.5c1-0.3,1.5,0,1.7,1.4C930.9,600.3,930.4,599.9,929.9,599.5L929.9,599.5z"/>
	<path fill="#FFFFFF" d="M943,601.2c0.3,0.1,0.6,0.3,0.9,0.5c0.1,0.1-0.1,0.5-0.2,0.6c-0.4,0.2-0.7,0-0.9-0.4
		C942.8,601.7,942.9,601.5,943,601.2z"/>
	<path fill="#FFFFFF" d="M963.5,612.7c-1,0-1.2-0.4-0.8-1.3C963.2,611.7,963.7,612,963.5,612.7z"/>
	<path fill="#FFFFFF" d="M950.1,614.2c0.1,0.2-0.1,0.6-0.2,0.7c-0.6,0.3-0.9-0.1-1.2-0.8C949.4,613.6,949.9,613.6,950.1,614.2z"/>
	<path fill="#FFFFFF" d="M927.6,617.9c-0.5,0.6-1,0.7-1.8,0.1C926.4,618.1,926.7,616.3,927.6,617.9z"/>
	<path fill="#FFFFFF" d="M587.4,285.7c-3.7,1.8-6.6,5-10.9,5.6c-3.3,0.4-6.5,1.3-9.8,1.6c-10.9,0.8-21.9,1.4-31.5,7.3
		c-5.8,3.6-11.9,3.5-18.2,3.1c-0.9-0.7,0.6-2-1.5-2.8c-5.5,0.4-11.4,2.2-16.3,5.7c-3.9,2.8-7.5,3.1-11.6,1.8
		c-5.4-1.7-9.7-0.4-13,4.3c-0.5,0.6-1.1,1.3-2.2,1.1c-4.1-5.6-7.5-11.6-8.9-18.8c-2.6-13.5-4.2-27.2-5.8-41c1.2-0.9,2.8-1,4.2-1.5
		c4.1-1.4,8-3.2,11.2-6.1c2.3-2.1,4.9-3.6,7.6-5c5.9-3,12-5.8,17.7-9.1c10.2-5.9,19.2-13,24.9-23.6c4.9-9.1,12.5-15.8,21.1-20.6
		c15.1-8.4,31.4-10,48.2-5.3c2,0.6,3.6,1.3,3.2,4.2c-0.3,1.9,0.6,4,1.1,6.7c2.2-2.1,5.5,0.1,6.9-3.1c-0.1-0.7-0.9-0.5-1.3-0.9
		c0.3-1.2,2.1-1.2,2-2.8c-1.8-0.6-3,1.6-5.1,1c1.8-1.1,3.3-2,4.6-2.8c0.5-1-0.8-0.8-0.6-1.5c0.6-0.3,1.1-0.9,1.7-0.6
		c2.9,7.8,1.6,16.1,4.5,24.2c3.6,9.9,6.2,20.3,9,30.6c2,7.2,4.2,14.4,6.3,21.8c-3,1.3-6.5,1.3-8.3,4.4c0.9,4.5-9,16.5-15.3,18.2
		c-0.2-10,3.5-17.7,12.2-22.8c3.1,1.1,6.2,1,9.1-1.2c-1.1-3.1-3.5-0.4-5-1.5c0.3-1.4,2.3-1.8,1.8-3.9c-0.2-0.9-1.2-1.5-2.6-1.6
		c-0.6,3.1-2.4,5.5-5.1,6.7c-7.3,3.3-11.4,8.9-12.6,16.7c-0.4,2.6-0.7,5.2-1,8C593.8,282.6,590.6,284.1,587.4,285.7z"/>
	<path fill="#FFFFFF" d="M625.8,251.1c2.3-1.5,1.6-3.6,1.4-5.5c-0.2-2.3-0.4-4.7-1.1-7c-2.9-9-4.3-18.3-6.1-27.5
		c-1.8-9.6-3.6-19.3-5.5-29.4c2.7,0.6,3.6-2.8,6.4-1.8c3.4,15.3,9.3,30.2,9.1,46.3c2.3-16.2-4-31.2-7.1-46.4
		c1.1-0.8,1.9-1.2,3.1-0.8c0.7,2.2,0.3,4.8,1.8,7.3c0.9-2,0.2-3.6,0.3-5.1c0.1-5.3,3.9-8.5,9-7.3c1.9,0.4,3.4-0.1,4.3-1.7
		c3.5-6,9.6-8.5,15.4-10.6c9.7-3.6,18.8-8.4,28.5-11.8c8.5-3,17-6,26-8.1c-1,1.6-3.2,1.1-3.6,2.9c0.6,0.8,1.3,0.6,1.9,0.3
		c4.1-1.5,8.3-3.1,12.4-4.7c3.6-1.4,7-3.6,10.7-4.4c10.3-2.3,20.8-3.5,31.2-0.1c7.6,2.5,15.4,4.3,23.4,4.3c0.8,0,2-0.4,2.5,0.7
		c-0.1,0.9-0.9,1.4-1.5,2c-5.1,4.6-4.9,6.1-0.5,11.2c7.7,9,12.6,19.1,12.2,31.5c-0.2,5.2-2.8,9.1-5.1,14.2c-0.7-2.5-0.8-4.2,0.3-5.5
		c1.2-1.5,1.5-3.3,1.6-5c0.2-3.9,0-7.8-0.9-11.5c-2.5-9.7-8.2-17.1-16.8-22.1c-4.3-2.5-9-4-13.8-5.2c-1.4-0.3-2.6-0.3-4,0.1
		c-8,2.5-15.8,4.9-22.9,10c-8.1,5.8-16.8,10.4-23.2,18.4c-2.6,3.3-4.7,6.4-5.3,10.5c-0.5,3.4-0.9,6.8-1.4,9.9
		c-1.2,0.9-2.7-0.1-3.3,1.7c3,1.1,3.6,4,4.9,6.5c2.3,4.7,4.7,9.6,9.6,12.2c4.8,2.6,9.6,5.7,15.8,4.5c0.2,2.2-0.2,4-1.1,5.8
		c-3.6,0.6-7.2,0.5-10.8-0.1c-3.1-0.5-6.7-1.8-9.3-1.2c-6.6,1.5-13.3,3.5-18.8,8c-5.3,4.3-11.4,7.3-18.4,7.7
		c-6.2,0.3-12.5-1.9-19.5,1.4c2.4-16.2,6.5-30.6,15.7-43.1c-11.7,12-14.4,27.5-17,43.7c-6.5,0.9-11.1,6.8-18.2,6.7
		c-3.7,3.2-7.6,2.5-11.8,0.4C625.7,252.7,625.2,251.5,625.8,251.1z"/>
	<path fill="#FFFFFF" d="M248.2,339.4c-1.2-0.3-2.1,0.5-2.2,2c1.1,2.4,4,1.9,6.1,3.3c-3.9,0.4-7.9-2.5-11.3,0.7
		c0.4,2.6,2.4,2.6,2.9,2.9c2.1,5.5,2.6,10.9,8.8,13.1c-3.5,3.2,0.2,4.6,1.3,6.6c-0.6,1-2,1.4-1.4,3.2c2.2,2.5,5.8,2.1,8.9,2.8
		c2.7,0.6,4,2.1,4.5,4.8c-2.5-1.1-4.9-2.1-8.1-3.5c0,3.5,2.1,4.4,4.3,4.8c3.1,0.5,6.3,0.8,9,2.5c3,1.9,6.3,2.7,9.6,3.4
		c1.5,2.6,3,5.1,3.1,8.5c-4.5,2.6-9.2,4.8-13.5,7.8c-6,4.2-13.1,4.1-19.9,3c-3.1-0.5-6.8-1.8-8.8-4.4c-5-6.6-11.1-12.3-15.6-19.4
		c-1.8-2.8-3.9-5.6-4.1-8.9c-0.4-5.3-0.4-10.5-2.4-15.8c-1.5-4.2-3.3-7.3-6.8-9.8c-2.9-2.1-5-5-4.9-8.8s-0.7-7.4-2.6-10.7
		c-1.4-2.4-1.6-4.7-0.2-7.4c1.5-2.9,1.8-6.1,0.5-9.2c-0.6-1.4-0.5-2.7,0.3-3.9c1.4-1.1,2.9-1,4.4-0.7c5.1,0.8,9.8-0.5,14.4-2.5
		c5.1-2.1,10.3-4,16.2-3.4c-0.2,2.7-0.8,5.3,0.1,7.6c-5.4,8.2-5.3,11.7,0,19.7c1.6,2.4,3.8,4.1,6.1,5.5c7.1,4.5,14.3,9.2,23.4,7.3
		c0.2,0,0.4,0.2,0.6,0.4c-0.2,1.1-0.7,2.1-1.4,3.1C262.6,340.7,255.2,341.1,248.2,339.4z"/>
	<path fill="#FFFFFF" d="M841.5,167.1c-0.1,1-0.4,1.9,1.1,2.8c1.6-0.6,3.5,0.1,5.2,0.9c1.2-1.7,0.8-3.6,1.9-4.9
		c2.9-1.6,6.9-1.4,8.3-5.5c1.6,2.5-2.4,5.1,1,6.9c-3.5,4.2-6.8,8.2-10.1,12.2c0.2,0.3,0.4,0.7,0.5,1c5.7-0.5,11.2-4.8,17-1.5
		c2.1-1.5,4-2.7,6.4-4.4c-0.4,1.4-2,1.8-0.9,3.1c2.7-0.1,5.5,0.1,7.8-1.7c3.5-0.3,4.7,4.5,8.3,3.1c1.1,1.9,2,3.5,3,5.3
		c-3.4,3-5.4,7.1-9.2,9.7c-1.9-6.6-7.4-11.2-12-9.7c3.4,2.6,7.3,4.7,8.1,9.4c-7.2,2.4-9.2,10.1-14.4,14.6c-1.2-2.4-2.2-4.4-3.1-6.3
		c0.4-1.6,2.3-0.2,2.6-1.9c-1.2-1.5-2.3-0.7-3.4,0.1c-2.1,1.7-1.9,3.7-0.5,5.6c-1.6,1.3-3,2.4-4.4,3.6c-2.3-1.6-2.8-5.4-6.3-5.1
		c-1.1,2,2,2.5,1.1,4.1c-0.5,0.8-1.2,1-1.9,0.7c-2.7-1.2-4.7-0.2-6.8,1.6c-4.1,3.5-9.3,1.9-11.1-3.2c-0.8-2.3-1.6-4.7-2.4-7.1
		c-0.8-2.3-1.9-4.6-3.9-6.2c-8.1,0.7-16.1-0.8-24.5,1.2c8.2-19.4-1.5-33.6-12.1-47.4c1.1-1.1,2.2-1.6,3.3-1.7
		c3.2,2.9,6.1,6.3,11.2,5c4-1,8.5-0.7,11.6-5.2c0.4,3.9-1.8,5-4.3,6.1c1.9,1.1,3.7,0.1,5.3,1.2c0.1,3.5,3.1,4.7,5.9,6.2
		c2.7-2.3,5.6-1.8,8.8-1.1c3.9,0.9,7.8,2.6,12.3-0.1c-0.7,1.9-1.2,3.2-1.6,4.5c-1.2,3.9-2.9,7.8-3.4,11.8c-0.2,1.9-0.7,3.1-1.9,4.1
		c-3.3,2.9-4.3,4.4-4.9,9.3c2-6.4,9.5-8.2,12.1-13.7c-0.9-1.7-2.3,0.2-3-1.2C839.5,171.4,840.5,169.3,841.5,167.1L841.5,167.1z"/>
	<path fill="#FFFFFF" d="M250.9,299.7c-1,2.2-1.6,4.4-2.8,6.1c-1.4,2.1-1.7,4.1-0.4,6.2c4.7,7.6,8.6,15.8,17,20.3
		c0.7,0.4,1.5,0.7,1.9,1.7c-1.7,2.8-4,3.7-7.2,2.4c-1.9-0.8-3.9-1.5-5.8-2.2c-6.6-2.4-9.6-8-12.3-13.8c-1.2-2.7-1-5.5,1.1-8.1
		s3.1-5.8,1.9-9.3c-0.3-0.8-0.2-1.6,0.4-3.2C246.7,299,248.6,299,250.9,299.7z"/>
	<path fill="#FFFFFF" d="M735.8,222.1c-3.3-1.1-6.2-2-9.3-2.7c-7.3-1.5-13-8-14.8-15.2c9.1,3.4,18.5,3.7,28.6,1.8
		C739.8,211.8,737,216.5,735.8,222.1z"/>
	<path fill="#FFFFFF" d="M619.2,218.4c-7.2-10.3-11.5-25.4-10.8-37c1.4-0.6,2.8-0.7,4.6,0.3C614.4,193.8,616.4,205.7,619.2,218.4z"
		/>
	<path fill="#FFFFFF" d="M263.8,370.2c-1-0.3-8-5.2-9.5-6.7c2.1-1.1,4.1-0.3,6-0.2c4,0.4,4.7-0.2,5.6-4.1
		C266.4,363.1,264.7,366.5,263.8,370.2z"/>
	<path fill="#FFFFFF" d="M841.5,167.2c0.6-8.7,3.6-9.5,9.2-11.4c1.2-0.4,2.4-0.4,2.9,1c-4.4,0.9-8.4,2.2-9.9,7.3
		c2.6,0.9,2.7-1.5,4.1-2.6c1.6,1.1,3.5,1.2,5.4,0.9l-0.1-0.1c-2.9,1.2-6.7,1.4-6.7,5.9C844.5,168.1,842.9,168.1,841.5,167.2
		L841.5,167.2z"/>
	<path fill="#FFFFFF" d="M865.5,114.8c0.1-0.3,0.3-0.5,0.4-0.8c3.8,1.3,7.7,2.6,11.8,3.9c-1.3,1.4-2.2,2.5-4,2.8
		C870.5,119.7,869.7,115.1,865.5,114.8z"/>
	<path fill="#FFFFFF" d="M889.7,165.7c1.3-0.5,2.9-0.1,2.8,0.8c-0.3,2.9,2,3,3.5,3.9c3.4,2.2,7.3,3,11.1,4.2
		C900.4,173.8,893.4,173,889.7,165.7z"/>
	<path fill="#FFFFFF" d="M845.7,392.3c-5.2-2.7-11.2-1.1-17-3.7C835,387.8,842.9,389.4,845.7,392.3z"/>
	<path fill="#FFFFFF" d="M858.3,142.4c1.5-2.3,4.1-1.1,5.4-2.7c0.4,0.6,0.7,0.9,0.9,1.2c0.3,0.5,0.5,0.9,0.7,1.3
		C862.9,144.8,860.8,143.2,858.3,142.4z"/>
	<path fill="#FFFFFF" d="M901.1,181.6c2.8,1.1,5.6,2.2,9.2,3.7c-4.3,0.6-7.1-0.7-9.6-2.7C900.8,182.3,900.9,181.9,901.1,181.6z"/>
	<path fill="#FFFFFF" d="M265.1,354.8c-3.3-1.4-6.7-1.7-9.8-3.8C262.9,352,263.9,352.4,265.1,354.8z"/>
	<path fill="#FFFFFF" d="M896.7,131.2c0.6,1,1.6,1.3,1.6,2.4c-2,0.4-3.6,3.6-6.3,0.7C894.1,134.2,895,132.3,896.7,131.2z"/>
	<path fill="#FFFFFF" d="M885.4,156.8c-2.2,1-4,1.5-6-1.4C881.7,156.1,884.1,153.6,885.4,156.8z"/>
	<path fill="#FFFFFF" d="M873.3,127.7c-1.9,0.9-3.9,1.3-5.9,1.4C871.2,126.8,871.2,126.8,873.3,127.7z"/>
	<path fill="#FFFFFF" d="M900.5,147.6c-2-0.6-3.8-1.6-6-3.7C897.6,144.5,899.3,145.6,900.5,147.6z"/>
	<path fill="#FFFFFF" d="M624.1,244.9c-0.6-2.5-1.2-5-1.8-7.4C623.6,239.7,624.6,242.1,624.1,244.9z"/>
	<path fill="#FFFFFF" d="M258.6,345.6c2.6,0.5,5.4,0.2,7.7,1.8C263.6,347.4,261.1,346.9,258.6,345.6L258.6,345.6z"/>
	<path fill="#FFFFFF" d="M818.8,141.3c-0.6,2.1-1.8,3.5-4.9,4C815.5,142.8,817.2,142.1,818.8,141.3L818.8,141.3z"/>
	<path fill="#FFFFFF" d="M894,154.6c1.6,0.1,3,1.2,4.6,1.2C896.4,157.5,895.3,155.9,894,154.6z"/>
	<path fill="#FFFFFF" d="M884.7,146.2c-1.4,0.1-2.6,0-3.1-1.7C883.5,144.6,883.5,144.6,884.7,146.2z"/>
	<path fill="#FFFFFF" d="M861.1,160.4c1.2,1.5,2.6,0.9,4.2,1c-0.6,0.5-1.1,1.1-1.8,1.8C862.2,162.3,861.5,161.6,861.1,160.4z"/>
	<path fill="#FFFFFF" d="M818.9,141.3c1.1-0.3,1.7-1.9,3.1-1.5c0.3,0.9,0.8,1.6,0.4,3C821.4,141.6,820.3,141,818.9,141.3
		L818.9,141.3z"/>
	<path fill="#FFFFFF" d="M853.1,126.7c-1.7,1.6-3,2.3-4.7,2.4C849.6,128,850.7,126.9,853.1,126.7z"/>
	<path fill="#FFFFFF" d="M878.8,153.5c1.4-0.3,2.2-2,3.7-0.2C881.4,153.2,880.3,154.7,878.8,153.5z"/>
	<path fill="#FFFFFF" d="M850,132.9c0.9-1.7,2.1-2.1,4.3-2.5C853,132.2,851.7,132.5,850,132.9z"/>
	<path fill="#FFFFFF" d="M853,159.1c0,0,0,0.2,0,0.4c-0.9,0.4-1.7,1.2-3.3,0.8C850.7,159.2,851.7,158.5,853,159.1z"/>
	<path fill="#FFFFFF" d="M819.9,153c1,0.8,1.7,1.5,2,3.1C820.4,155.3,819.9,154.5,819.9,153z"/>
	<path fill="#FFFFFF" d="M870.5,171.3c-0.3,1-1,1.7-2.6,2.3C868.8,172.2,868.9,171,870.5,171.3z"/>
	<path fill="#FFFFFF" d="M854.7,176c0.5-1.1,0.9-2.1,2.3-1.3C856.5,175.7,855.8,176,854.7,176z"/>
	<path fill="#FFFFFF" d="M258.7,345.6c-1,0-1.9,0-2.9,0c0-0.2,0-0.3,0.1-0.5C256.8,345.3,257.7,345.4,258.7,345.6L258.7,345.6z"/>
	<path fill="#FFFFFF" d="M857.6,424.5c-0.8-0.2-1.8,0.2-2.9-0.9C856,424,856.7,424.3,857.6,424.5L857.6,424.5z"/>
	<path fill="#FFFFFF" d="M864.5,173.4c-0.5,0.8-1.1,1.1-2,0.6C863,173.2,863.6,172.9,864.5,173.4z"/>
	<path fill="#FFFFFF" d="M903,163.8c-1.1,0-2.1-0.1-2.6-1.5C901.7,162.3,902.4,162.9,903,163.8L903,163.8z"/>
	<path fill="#FFFFFF" d="M904.2,154.6c-0.7-0.1-1.2-0.4-1.4-1.4C904,153.3,904.6,153.5,904.2,154.6z"/>
	<path fill="#FFFFFF" d="M883.5,120.2c-0.8,0.3-1-0.1-1.1-0.9C882.8,119.6,883.1,119.9,883.5,120.2z"/>
	<path fill="#FFFFFF" d="M827,144.9c-0.4-0.2-0.7-0.4-0.7-1C827.3,143.8,827.3,144.2,827,144.9z"/>
	<path fill="#FFFFFF" d="M888.5,159.4c-0.9,0.3-1.2,0-1.1-0.9C888,158.6,888.3,158.9,888.5,159.4z"/>
	<path fill="#FFFFFF" d="M884.1,160.1c0,0.2-0.4,0.4-0.6,0.4c-0.4,0-0.8-0.2-0.6-0.7c0.1-0.2,0.4-0.3,0.5-0.5
		C883.9,159.3,884.1,159.7,884.1,160.1z"/>
	<path fill="#FFFFFF" d="M853.2,162.3c0.2-0.9,0.8-1.4,2-1.7C854.7,161.9,853.8,162,853.2,162.3L853.2,162.3z"/>
	<path fill="#FFFFFF" d="M860,164.9c-0.1-0.7,0.1-1.3,1-1.5C861.2,164.3,861,164.8,860,164.9z"/>
	<path fill="#FFFFFF" d="M905.5,165.5c-1-0.3-2.1-0.6-2.5-1.7l-0.1,0.1C904,164.1,904.9,164.6,905.5,165.5
		C905.5,165.6,905.5,165.5,905.5,165.5z"/>
	<path fill="#FFFFFF" d="M876.6,165c0.1,0.1-0.1,0.6-0.2,0.6c-0.6,0.3-0.9,0-1.1-0.6C875.7,164.6,876.2,164.4,876.6,165z"/>
	<path fill="#FFFFFF" d="M910.8,177.7c0.3,0.2,0.6,0.6,0.1,0.8c-0.3,0.1-0.7,0-1.2-0.1C910,177.6,910.4,177.5,910.8,177.7z"/>
	<path fill="#FFFFFF" d="M273.4,406.4c0.4-0.9,1-1.3,2.1-1.3C275.1,406.4,274.3,406.5,273.4,406.4L273.4,406.4z"/>
	<path d="M579.2,570.7c-0.1,0.2-0.2,0.4-0.3,0.7c-1.3,1.8-3.2,3-4.8,4.5c-2.5,2.2-5.2,4.2-7.1,6.9c-5.4,7.7-12.7,13-21.5,16
		c-3.8,1.3-7.6,2.5-11.5,3.6c-6.6,1.9-10.9,6.3-13.3,12.6c-0.9,2.3-1.7,4.7-2.8,6.9c-1.3,2.6-3.3,4.3-7,4.1c3-5.4,5.7-10.5,8.5-15.5
		c2.9-5.2,7.3-8.6,12.9-10.5c3-1,6.1-1.9,9.2-2.6c9-2.1,16.9-6.5,22.9-13.4c4.3-4.9,9-9.3,14.2-13.1
		C578.7,570.8,579,570.8,579.2,570.7z"/>
	<path d="M591.4,549c0.5-0.2,1-0.3,1.5-0.5c8.2-2.3,16.9-3.1,23.5-9.5c0.7-0.7,2-1,3-1.3c6.7-1.9,13.6-2.2,20.5-2c1.4,0,3,0.1,3.5,2
		c-1.6,0.9-3.1,0.2-4.6,0.3c-9.4,0.2-18.7-0.6-27,6.2c-4.9,4.1-12,4.6-18.3,6c-0.8,0.2-1.6,0.3-2.6-0.4
		C591.2,549.4,591.2,549,591.4,549z"/>
	<path d="M628.1,556.7c9.8,7.8,21.1,10.7,33.7,11.9C654.4,573.3,631.9,564.9,628.1,556.7z"/>
	<path d="M671.9,625.5c-3.2,2-6.8,1.2-9.4-2c0.7-3.2,5.3-2.7,5.6-6.2c3.2,2.8,3.1,3.1-0.5,5.9C669,624.4,671.3,623.3,671.9,625.5z"
		/>
	<path d="M654.9,555.5c1.9,0.6,3.6,1.5,5.2,2.5c1.6,1,3,2.3,4.5,3.4c0.7-0.5,0.1-2.2,1.9-1.6c0.1,3,0.9,6.1-0.9,9.2
		C665,562.1,658.7,559.8,654.9,555.5z"/>
	<path d="M669.9,606.5c3,1.4,0.7,2.8,0.4,4.1c0.5,1.2,2.1,1.5,2,3.2c-0.8,0.8-1.6,1.7-3.4,1.2c0.3-2-1.9-2.7-2.5-4.3
		C667,608.5,669.3,608.3,669.9,606.5z"/>
	<path d="M645,614.9c4.3-0.3,7.6-3.7,12-3.7C655,614.1,648.5,616,645,614.9z"/>
	<path d="M546.7,626.2c4.8-1.3,8.8-3.6,12.7-6.1C556.7,624.8,550.9,627.5,546.7,626.2z"/>
	<path d="M672.9,558.3c-0.8,1.4-2.4,2.4-2.2,4.4c-0.6-0.8-2.6-0.7-1.5-2.3c1.4-1.9-1.8-1.3-0.9-3.4
		C669.7,556.7,671.3,556.5,672.9,558.3z"/>
	<path d="M667.3,580.2c-3.4-0.7-1.3,3.4-4.3,3.4c-2.1-2.6,1.1-4.4,0.8-7.5C665.2,577.7,666,578.6,667.3,580.2z"/>
	<path d="M582.8,567.7c2.6-3.1,6.2-4.5,10-5.7c-3.2,2-6.5,4-9.7,6C583,567.9,582.9,567.8,582.8,567.7z"/>
	<path d="M667,588.9c1.4,1.2,1.5,2.7,1.3,4.4C665.6,591.6,665.6,591.6,667,588.9z"/>
	<path d="M662.3,614.5c1.4,2.2,0.5,3.6-0.4,5.1C661.5,618,661.2,616.4,662.3,614.5z"/>
	<path d="M672.4,566.7c-1.7-0.3-3.5-0.1-3-2.8C670.2,565,672,564.9,672.4,566.7z"/>
	<path d="M670.1,569.3c-1,1-0.7,2.2-0.5,3.7C668,570.6,668,570.6,670.1,569.3z"/>
	<path d="M669.4,595.5c-1,1.2-2,1.9-3.7,2.3C666.2,595.4,667.4,595,669.4,595.5z"/>
	<path d="M578.5,570.9c1.1-1.4,2.5-2.6,4.2-3.2c0.1,0.1,0.2,0.2,0.3,0.3c-1.1,1.4-2.5,2.5-4.1,3.3
		C578.8,571.2,578.7,571,578.5,570.9z"/>
	<path d="M670.6,600.3c-0.8,1-1.4,1.8-3.2,1C668.3,599.8,669.2,599.4,670.6,600.3z"/>
	<path d="M668,576.2c-0.3-0.7,0.2-0.8,1.1-1.3C668.9,575.8,668.6,576.2,668,576.2z"/>
	<path d="M760.3,568.2c0.6-3.4,1.1-6.8,1.9-10.1c1-3.9,3.7-6.4,7.6-7.5c1.6-0.5,3.1,0,3.7,1.8c0.6,1.6-0.5,2.7-1.9,3.1
		c-4.5,1.1-5.5,4.4-5.8,8.4c-0.3,4.3-1.4,8.5-2.7,13.6C761.4,573.8,759.7,571.3,760.3,568.2z"/>
	<path d="M773.9,619.1c1-7.1-0.9-14.2-0.7-21.4c0.1-4.3-1.2-8.7-1.6-13.1c-0.4-4,0.2-7.8,2.9-11.3c0.9,1.4,0.4,2.5,0.1,3.5
		c-1.3,4.2-0.9,8.5-0.5,12.7c0.4,3.8,2,7.5,1.5,11.5c-0.5,4.2-0.2,8.3,0.5,12.4c0.5,2.6,0.1,5.1-2,8.3
		C774,620.2,773.8,619.6,773.9,619.1z"/>
	<path d="M831.2,579.2c3.9,2.9,8.4,4.6,12.1,7.7c1.4,1.2,2.7,2.7,3.9,4.3c1.1,1.5,1.3,3-1.1,4.2
		C840.8,590.2,835.6,585.1,831.2,579.2z"/>
	<path d="M788.7,574c-8-5.1-10.2-11.6-5.6-18.4C785.4,562.1,785.5,568.6,788.7,574z"/>
	<path d="M842.1,547.6c-3.9,4-5.1,9.4-7.5,14.9C830.6,557.2,834.7,549.6,842.1,547.6z"/>
	<path d="M835.6,542.1c3,3.8-0.3,10.4-6.8,13.4C832.7,551.9,831.1,545.5,835.6,542.1z"/>
	<path d="M805.3,539.1c1.7,3.8,1.6,3.9-5.6,8C800,542.5,801.7,540.2,805.3,539.1z"/>
	<path d="M787.3,656.6c1.6,1.6,3,3.6,4.4,5.5c1.1,1.4,1.4,2.7-1.4,3.6c-2.5-4.5-5.3-8.9-5.6-14.7C787.5,652.3,785.8,655,787.3,656.6
		z"/>
	<path d="M768.2,588.3c0.2-5.8-2.5-11.4-0.9-17.2C769.5,578.4,769.8,585.4,768.2,588.3z"/>
	<path d="M795.7,558.3c-1.1-2.8-0.5-5.5,2.9-10.8C799.1,554.9,798.7,556.5,795.7,558.3z"/>
	<path d="M775.6,567.5c1.6-4.2,1.3-8.4,2.5-12.6C780.8,558.8,779.8,563.9,775.6,567.5z"/>
	<path d="M768.4,590.7c4,3.7,4.9,9.4,2.3,14.1C771,599.9,769.7,595.3,768.4,590.7z"/>
	<path d="M789.8,587.9c-0.3-4.7,1.4-8.8-1.1-12.4C792.9,578.1,793.3,581.8,789.8,587.9z"/>
	<path d="M850.2,540.7c3.6,0,7.1,0,10.7,0C860,541.5,852.2,541.4,850.2,540.7z"/>
	<path d="M776.8,627.7c1.7,2.3,1.5,4.9,2,7.4C775.7,630.1,775.7,630,776.8,627.7z"/>
	<path d="M846.9,541.8c-1.5,1.4-2.9,2.8-4.5,4.3C842.5,542.5,843.5,541.7,846.9,541.8z"/>
	<path d="M797.3,564.5c0.7,1.7,3.1,2.8,1.3,5.8C796.9,568.3,796.6,566.5,797.3,564.5z"/>
	<path d="M824.1,558.6c0.5-1.3,0.9-2.5,2.9-2.9C826.7,558.8,826.7,558.8,824.1,558.6z"/>
	<path d="M815.8,668c2.4-0.1,4.1-0.7,6,1.7C819.2,670.2,817.7,669.6,815.8,668z"/>
	<path d="M810.4,667.9c-2.1,0.1-3.5-0.5-5.2-2.2C807.7,665.3,809.1,665.8,810.4,667.9z"/>
	<path d="M818.4,561.7c1-1.6,1.2-3.1,3.7-3C821.9,560.7,821.2,561.7,818.4,561.7z"/>
	<path d="M814,667.9c-0.7,0.8-1.4,1.1-2.4,0C812.5,666.8,813.2,666.7,814,667.9z"/>
	<path d="M781.7,646.2c-0.1-0.7-0.9-1.1-0.2-2C781.9,644.8,782.5,645.2,781.7,646.2z"/>
	<path d="M266.5,564.5c-1.2,2.5-4.2,3.5-6.7,2.1c-3.1-1.7-3-4.8,0.7-10C266.6,559,268.1,561.1,266.5,564.5z"/>
	<path d="M247.2,582.3c0.9-2.3,2.6,0,3.3-1.1c0.7-1.6-1.8-2.7-0.1-4.8c0.9,1.6,2.2,2.2,4.2,2.2c2.4,0,3.3,1.8,2.5,4
		c-0.4,1.1-1.1,2.2-1.9,3.8C252.2,585.3,249.4,584.2,247.2,582.3z"/>
	<path d="M252.3,572.4c0-2.7,2.4-5,5.1-4.9c2.7,0.1,4.7,2.2,4.7,4.8c-0.1,2.8-2.3,4.9-5,4.9C254.4,577,252.3,575,252.3,572.4z"/>
	<path d="M883.2,620.2c8.8-0.9,14.5-8.3,22.4-10.9C900.3,615.9,887.5,622.1,883.2,620.2z"/>
	<path d="M940,640.8c-2.1,2.5-4,2-6,0.2c1.1-2.1,1-4.3,0.3-6.7C937.8,635.3,936.5,639.9,940,640.8z"/>
	<path d="M875.9,604.2c1.9-3.6,5.2-4.7,10.7-3.8C882.6,601.8,879.5,602.9,875.9,604.2z"/>
	<path d="M900.2,595c-2.3,0.7-3.7,2-5.9,1.8C896.6,594.2,896.6,594.2,900.2,595z"/>
	<path d="M890,599.6c0.6-1.4,1.6-1.6,3.3-1.5C892.2,599.4,891.5,600.3,890,599.6z"/>
	<path d="M897.8,621.1c-0.4,0.7-0.7,1.6-2.1,1.4c0.4-1,0.9-1.5,1.8-1.8C897.6,620.9,897.7,621,897.8,621.1z"/>
	<path d="M805.7,614.3c1-6.5,4.6-10.5,9.4-10.1C810.4,606.2,808.1,610.4,805.7,614.3z"/>
	<path d="M524.2,227.8c-0.2,1.6-1.4,2.6-2.2,3.9c-3.2,5.3-7.2,10.3-9.3,16.1c-3.2,9.1-8.3,16.4-16.1,22c-3.2,2.4-6.6,4.6-9.8,6.9
		c-4.8,3.5-7.1,8.3-7.5,14.2c-0.2,2.6-0.4,5.2-0.7,7.9c-0.4,2.9-1.9,5-5.3,6c0.9-5.3,2.2-10.1,2.9-15c1-6.9,4.6-12.4,10.5-16.3
		c3.8-2.5,7.8-4.8,11.3-7.7c5.9-4.7,10.3-10.6,13.2-17.7C514.4,240.8,518.7,233.9,524.2,227.8L524.2,227.8z"/>
	<path d="M525.8,209.1c7.3-4.6,15.4-8.2,19.9-16.3c0.4-0.8,1.4-1.3,2.2-1.8c5.7-3.8,12.1-6,18.5-8c1.3-0.4,2.9-0.9,3.9,0.9
		c-1.2,1.2-2.7,1.1-4,1.5c-5.3,1.6-10.5,3.3-15.5,5.7c-1.7,0.8-3.6,1.7-4.5,3.5c-4.1,7.9-11.9,11.2-18.8,15.6
		c-0.6,0.4-1.5,0.8-2.6,0C525.3,209.7,525.5,209.3,525.8,209.1z"/>
	<path d="M573,208.8c3.8,0.5,7.7,0.4,11.6,0.3c3.7-0.2,7.2-1.6,11.6-1.5c-6.4,6-27.7,5-34.3-1.3C565.5,207.5,569.2,208.3,573,208.8z
		"/>
	<path d="M596.8,199.6c0.5-0.9-0.8-1.9,1-2.3c0.8,2.9,3,5.5,1.9,9.1c-2.7-6-8.7-6.6-13.7-9.3C590,196.7,593.4,198.5,596.8,199.6z"/>
	<path d="M615.1,239.6c2.3,2,1,5.6,4.2,6c-0.5,1.6-1.2,2.5-2.9,2.6c-0.6-1.6-2.2-2.2-3.6-3.1C612.9,242.6,614.9,241.8,615.1,239.6z"
		/>
	<path d="M605.1,249.2c-2.8,3.2-6.8,4.8-10.7,6.4c3.7-1.9,6-5.8,9.6-7.8C604.3,248.2,604.7,248.7,605.1,249.2z"/>
	<path d="M506.3,294.5c4.5-2.4,7.2-6,10.3-9.8C516,289.7,510.8,294.6,506.3,294.5z"/>
	<path d="M601,214c1.2,0.8,2.1,1.3,3.4,2.1c-2.1,0.7,0.1,4.1-3.3,4.4C600,218.3,600.6,216.2,601,214z"/>
	<path d="M598.8,194.7c1.3-1.3,2.8-1.5,4.9-0.4c-0.7,1.4-1.8,2.8-0.7,4.5c-2.1-0.6-2.1-0.6-2-2.6
		C599.8,196.2,598.7,196.4,598.8,194.7z"/>
	<path d="M608.9,228.7c-2-1-2.6-2.3-2.4-4.8C608.2,225.3,609.5,226.3,608.9,228.7z"/>
	<path d="M601.7,200.4c1.3,0.4,2.4,0.8,3.5,1.1C602.8,202.4,602.8,202.4,601.7,200.4z"/>
	<path d="M610.2,249.6c1.7,1.6,1.4,3.2,1,4.7C610.7,253,609.2,251.7,610.2,249.6z"/>
	<path d="M524.2,227.8c0.4-2.2,2.1-3.2,3.7-4.3C526.9,225.1,526,226.9,524.2,227.8L524.2,227.8z"/>
	<path d="M611.1,230c-0.7,1.1-1.1,2.4-2.8,2.8C608.1,230.4,609.6,230.2,611.1,230z"/>
	<path d="M603.6,205.7c0.3,0.9,0.8,1.8,0.5,2.9C602.6,207.8,601.9,207,603.6,205.7z"/>
	<path d="M611.4,235.9c-0.1-1.8,0.9-2,3-2.3C613.3,234.9,612.9,236.1,611.4,235.9z"/>
	<path d="M691.8,152.3c-5.7,5.5-11.4,10.9-18.1,15.2c-13.6,8.8-25.8,19.1-34.3,33.2c-1,1.6-2.3,3-3.5,4.5c0.5-2.3,1.7-4,2.8-5.7
		c7.5-12.2,16.9-22.5,28.8-30.5c7.3-4.9,15-9.5,21.4-15.7c1.5-1.5,3.1-2.9,5.3-5C693.8,150.6,692.7,151.4,691.8,152.3z"/>
	<path d="M628,227.1c1.5,5.6,3.2,11.1,3.8,16.9c0.2,1.8,0.7,3.7-1.2,5.6c-0.8-9.6-3.9-18.2-6.2-27c-2-8-4-16.1-2.7-24.5
		C622.7,208.1,625.5,217.6,628,227.1z"/>
	<path d="M686.3,213c-3.5,7.2-8.7,13.3-13.6,19.6c-1.9,2.5-3.8,5.2-6.8,6.7c7.1-8.6,13.3-17.8,20.2-26.5L686.3,213z"/>
	<path d="M639.9,245.1c0-8.2,0-16.4,0-24.9c2.2,8.4,1.6,16.6,1.2,24.8C640.7,245.1,640.3,245.1,639.9,245.1z"/>
	<path d="M692.9,200.4c-1.6-2.5-4.2-2.2-6.6-2.3c-2.1,0-4-0.1-5.2-2.3c3.7-1,7.1-0.6,10.4,0.4C693.7,196.9,694.9,198.2,692.9,200.4
		L692.9,200.4z"/>
	<path d="M768.7,149.8c-0.9-4.5-4.4-6.9-7.5-9.8C768.3,140.4,770.1,142.8,768.7,149.8z"/>
	<path d="M696.5,223.3c1.5-3.9,1.2-8.5,4.3-11.7C700,215.7,699.3,219.9,696.5,223.3z"/>
	<path d="M648.5,171.1c-1,4.1-2.9,7.6-6,10.5C644,177.9,645.5,174.1,648.5,171.1z"/>
	<path d="M694.5,197.5c4-0.5,5.9,0,8.7,2.7C700.1,200.2,696.9,200.6,694.5,197.5z"/>
	<path d="M636.9,193.4c-2-2.7-2.7-5.6-1.4-8.9C636,187.5,636.4,190.4,636.9,193.4z"/>
	<path d="M673,192.8c1.7-0.9,2.9-0.4,4.5,1C675.2,195,673.9,194.9,673,192.8z"/>
	<path d="M691.2,203.7c0.1,1.8-0.9,3.2-2.2,4.4C689.6,206.6,689.6,204.8,691.2,203.7L691.2,203.7z"/>
	<path d="M692.8,200.3c-0.1,1.3-0.5,2.6-1.6,3.4l0.1,0.1C691.1,202.4,691.5,201.1,692.8,200.3L692.8,200.3z"/>
	<path d="M628.3,189c0-0.2,0-0.4,0-0.6c0.1,0,0.1,0,0.2,0c0,0.2,0,0.5,0,0.7C628.5,189.1,628.4,189.1,628.3,189z"/>
	<path d="M686.1,212.8c0.1-0.9,0.4-1.7,1.4-2c0.2,1.2-0.5,1.7-1.2,2.2L686.1,212.8z"/>
	<path d="M230.8,328.2c1.1,2.6-0.3,5.5-2.9,6.4c-3.5,1.1-5.3-0.7-6.7-7.3C226.8,324.6,229.5,324.9,230.8,328.2z"/>
	<path d="M229.9,345.6c-2.5-0.1-4.7-2.3-4.8-4.8c-0.1-2.6,2.4-5,5.1-4.8c2.6,0.1,4.5,2.3,4.4,5C234.6,343.6,232.5,345.7,229.9,345.6
		z"/>
	<path d="M232.4,347.2c1.4-2,3.7-1.2,4.9,1.1c0.6,1.3,1.4,2.7,1,4.6c-2.7,0.4-5,2.4-7.9,2c-0.9-1.9,1.9-1.7,1.2-3.4
		c-0.7-1.2-3-0.6-3.5-3C229.5,348.1,231.1,349.2,232.4,347.2z"/>
	<path d="M816.4,190.2c7.6-3.8,11-11.9,17.5-16.9C830.2,181.6,821.2,190.2,816.4,190.2z"/>
	<path d="M867.5,187.7c3.7,0.5,4,4.9,7.4,4.7c-1.1,3.2-3,3.2-5.7,1.9C870.3,191.8,868.4,190.2,867.5,187.7z"/>
	<path d="M813.1,171.1c-2.9,2.2-5.8,4.4-8.7,6.6c-0.3-0.4-0.5-0.7-0.8-1.1c2.4-2.9,5.2-5.3,9-6.2
		C812.7,170.7,812.9,170.9,813.1,171.1z"/>
	<path d="M824.5,161.5c-1.6,1.4-2.9,2.5-4.1,3.6C821.4,162,821.4,162,824.5,161.5z"/>
	<path d="M807,153.4c-1.4,0.8-1.4,0.8-3.1,0.6C804.8,152.8,805.7,152.7,807,153.4z"/>
	<path d="M818.9,166.7c-0.1,1.5-0.7,2.2-2.8,2.3C817,167.6,817.6,166.9,818.9,166.7z"/>
	<path d="M802.3,153.5c-1.1,0.8-1.9,0.7-2.7,0C800.5,152.7,801.4,152.6,802.3,153.5z"/>
	<path fill="#FFFFFF" d="M264.3,564.2c-0.7,1-1.8,1.2-2.9,0.7c-1.7-0.8-2.5-2-1.4-4.2c1.7,2.2,2.3,0.5,3.1-1
		C265.1,561.2,265.6,562.5,264.3,564.2z"/>
	<path fill="#FFFFFF" d="M252.6,582.6c0.1-1.2,0.4-2.1,2.2-2.2C254.7,583.1,254.7,583.1,252.6,582.6z"/>
	<path fill="#FFFFFF" d="M260,572.3c0.1,1.5-0.9,2.6-2.5,2.7c-1.8,0.1-2.9-1-3-2.7c-0.1-1.6,0.9-2.5,2.6-2.8
		C258.7,569.6,259.9,570.7,260,572.3z"/>
	<path fill="#FFFFFF" d="M229.1,329.5c0.3,1.3-0.4,2.2-1.5,2.7c-1.5,0.6-3,0.6-4-1.4c1.4-0.5,2.8-1.1,1.7-3
		C227.6,327.3,228.8,327.8,229.1,329.5z"/>
	<path fill="#FFFFFF" d="M232.7,340.7c0,1.6-1.1,2.4-2.6,2.6c-1.6,0.2-2.8-0.6-2.9-2.2c-0.1-1.8,1.1-2.6,3-2.9
		C231.5,338.4,232.7,338.9,232.7,340.7z"/>
	<path fill="#FFFFFF" d="M234.1,348.4c1.8,0.3,1.8,1.5,1.8,2.9C233.4,351,233.4,351,234.1,348.4z"/>
</g>
</svg>
