<?xml version="1.0" encoding="utf-8"?>
<!-- Generator: Adobe Illustrator 19.1.0, SVG Export Plug-In . SVG Version: 6.00 Build 0)  -->
<svg version="1.2" baseProfile="tiny" id="Layer_2" xmlns="http://www.w3.org/2000/svg" xmlns:xlink="http://www.w3.org/1999/xlink"
	 x="0px" y="0px" width="900px" height="600px" viewBox="144 97 900 600" xml:space="preserve">
<g>
	<path d="M614.8,497.9c1.8-1.3,2.1-3.5,2.8-5.4c6-4.3,13-6,20.3-7.5c-0.5-4.8,0-9.4,0.4-13.9c0.1-0.7-0.1-1.4-0.3-2
		c-3.4-12.1-3.1-24.2-1.2-36.5c1.1-7,2.9-13.9,5-20.7c1.5-4.9,6-8.3,11.2-8.5c4.8-0.3,9.6-0.5,14.3,0.6c2.2,0.5,4.6,0.5,6.8,0.4
		c9.5-0.5,18.1,2,26.1,7.1c3.1,2,5.6,4.7,7.6,7.7c1.6,0,3.1,0.1,4.6,0c9.8-1.1,18.5,2,26.6,7.3c1.5,1,2.5,2.2,3.3,3.8
		c1.1,2.2,2.5,4.4,3.8,6.5c0.7,1.1,1.7,1.8,3.1,1.9c5.9,0.4,11,2.9,15.7,6.4c3,2.2,6.1,4.5,9.4,6.4c3.1,1.9,6.5,3.3,9.8,5
		c3.7-1,7.6-1.7,10.6-4.4c0.7-0.6,1.6-0.9,2.4-1.2c0.7-0.3,1.6-0.5,2-1.2c1.7-2.8,4.7-4.3,6.9-6.6c1.8-1.9,4.1-2.9,6.4-4
		c1.8-0.9,3.4-1.9,4.9-3.1c4.7-3.8,10-6.3,16-7.6c0.1,0,0.3,0,0.3,0c2.5-2,5.2-1.8,7.9-0.8c0.1,0,0.2-0.1,0.3-0.2
		c0.9-0.8-0.6-2,0.8-3c2.2-0.5,3.3,2.9,5.5,2.2c1,0.6,0.1,1.5,0.9,2.1c0.9,0.3,1.9-0.7,3,0.4c0.7,0.7-0.5,1.5-0.1,2.4
		c5.5,1.9,5.5,1.9,10.7,8.6c1.2,0.7,3,0.4,3.8,1.8c0,1.3-1.3,0.6-1.8,1.3c-0.2,1.1,0.7,1.7,1.4,2.4c1.8,1.8,3.1,3.8,3.6,6.4
		c0.6,3.3,2.8,5.5,5.4,7.5c1,0.8,2.2,1.3,2.5,2.6c-0.4,2.1-2.2,0.3-3,1.1c1.5,2.3,2.9,4.6,4.2,6.6c0.4,0.9-0.3,1.3-0.4,2
		c0,0.8,1.2,1,1.1,1.9c0,1.5-1.6,1.8-2.3,3.2c1.8,0.6,3.9-0.5,5.5,1.3c-0.7,1.3-1.6,2.7-0.5,4c-1.4,1.3-2.4-0.7-3.6,0.2
		c0.9,1.7,2.9,2.2,3.7,3.9c0.1,1-0.2,1.8-0.7,2.6c-1.5,1.3-4.1,0.8-5.1,3c-1.2-0.5-2.2-0.5-3,0.5c-3-2.1-5.5-4.6-8-7.4
		c-3.5,1.8-5.9,4.8-8.3,7.8c-2.1,2.6-4.4,3.9-7.6,2.5c-2.4,2.7-4.5,5.7-6.4,8.6c-2.7,4.1-3.6,5.1-8.2,2.7c-1.4,0.2-1.9,1.6-2.4,2
		c-1.7,0.8-2.4-0.4-3.7-0.5c-0.6,1.7-2.2,2.6-4,3.3c-0.8-0.1-1.7-0.2-2.2-0.2c-2.5,0.2-3,2.5-4.7,3.3c-1.6,0.7-3.4,0.4-4.6,1.4
		c-3.9-3.1-6.2-7.1-8.5-11.2c-1-1.8-2.1-3.6-4.4-4.5c-4.2,0.6-8.7,0.5-13.4,0.5c1,10.8-5.7,17.8-11.6,25.3
		c0.9,8.3,1.1,16.5,0.6,24.8c-0.2,2.7-0.4,5.5-1.3,8.1c-0.8,2.5-0.5,5.2,0.4,7.4c3.4,8.3,2.8,16.6,0.7,25
		c-2.2,9.1-4.6,18.2-5.7,27.6c-0.9,8.3-1.2,16.7-0.3,25.1c0.3,2.5,1.6,4.5,3.2,6.3c0.9,1,1.8,2,2.9,3.2c4.4,0.3,8.7,1.3,10.7,6.3
		c1.2,0,2.5,0,3.8,0c1.1-2.1,2.1-4.2,3.3-6.5c4.8-0.9,9.5-1.3,14.2-1c2.6,1.2,3.5,4.2,6.1,5.1c0.6,5.5-0.1,11.1,1.2,17.1
		c-1.7,2.4-2.4,5.9-5.4,8c-0.4-1,0-1.8,0.4-2.6c1-1.9,2-3.8,3.1-5.9c-1.9-5-1.3-10.2-0.9-15.2c-0.9-1.4-2-2-3.4-2.4
		c-1.3,2.3-2.6,4.5-4,7c0.2,3.3,0.4,6.7,0.6,10c2.6,2.8,2.6,2.8,3,4.9c-3.4-2.4-5.5-5.4-5.2-9.8c0.2-2.5,0-5,0-7.2
		c2.7-1.7,3.5-4.1,4.3-6.8c-4.5-0.8-8.6,0.3-12.8,0.2c-1.3,2.8-2.7,5.2-4.3,7.4c-0.3,6.5-0.9,12.8,3.4,18.2c0.3,0.3,0.3,0.9,0.7,1
		c4.7-1.2,9.3-1,13.9-1c0.8,0.6,0.3,1.8,1.2,2.1c-0.8,1.1-1.8,1.6-3.2,1.4c-3.1-0.4-6.2-0.6-9.2-0.9c-1.1-0.1-2.2-0.5-3.5,0.1
		c-5.2-6.1-6-13.3-5.2-20.9c-1.5,0-1.6,1.6-2.8,1.4c0.6,1,1.1,1.9,1.7,2.9c-0.1,1.1-0.8,2.5,0.5,3.7c-3.5,1.9-7.1,1.2-10.6,1.6
		c-3.5,0.4-7.1,0.3-10.6,1.6c-1.8-0.7-3.8-1.5-5.7-2.3c-1.2,0.9-0.8,2.3-1.2,3.5c-3.4,1.2-3.7,5-6.5,6.8c1.2,0.8,2.4-0.1,3.3,1
		c-1,1.5-2.5,1.3-3.9,1c-3.8-0.9-7.4-0.5-11.1,0.6c-2.1,0.7-3.9,0.1-4.9-2c-0.9-1.8-2.1-3.3-3.3-4.8c-1.5-1.7-2.2-3.6-2.3-5.9
		c0-2.6-0.4-5.3-0.6-7.9c-0.1-1.4-0.1-2.8,1-3.8c2.2-2.1,3.5-4.7,5.1-7.4c4.7,0,9.5-1.1,14.2-0.5c0.5,0.4,0.4,0.8,0.3,1.3
		c-0.9,0.7-0.7,1.9-1.1,2.8c-0.6,1.9-1.1,3.9-2.4,5.5l0.1,0.1c-0.1-2.5,1.2-4.9,0.8-7.4c-1-0.4-1.2,0.9-2,0.9
		c-1.6-1.3-2-1.4-8.5-0.4c-1.2,1.6-2.4,3.4-3.8,5.4c3.6,0.1,6.9-1.8,10.8,0.1c-4.5,1.4-8.4,1-12.5,1.4c0,4.8,0.5,9.2,0.8,13.6
		c1.6,2.1,3.2,4,5,5.4c4.9,0.7,9.4-0.7,13.8-0.7c1.3-1.5,2.1-3.2,3.5-4.5c1.3-1.2,2.3-2.7,2.3-4.5c-1.2-1.1-1.8,0.7-2.7,0.1
		c-2.8-0.7-3.8-2.8-3.9-5.4c-0.1-1.8,0.4-3.5,2.2-4.4c1.7,1.2,0,2.3,0.7,3.9c0.5,0.8,1.3,2.1,2.1,3.5c0.3-1.1,0.6-2.1,1.5-2.7
		c2.1,0.1,3.6-1.2,5.5-1.7c-0.5-1.1-1.9-2-0.2-2.9c1.7,0.8,1.6,2.3,1.5,3.7c8.6,0,8.6,0,9.8,1.6c-1.3,1.7-3.4,0.8-5,1.5
		c0.3,1.2,0.4,2.2,1.5,2.9c1.1,0.3,2.2,0.5,3.5,0c-0.4-1.9,1.5-2.4,2.5-3.5c-0.7-1.5-2.1-2.8-0.9-5.3c1.4,2.3,2.6,3.8,4,5.2
		c-0.8,1.5-3.4,0.8-3.4,3.2c3,0.1,5.9,0.1,8.7-1.1c0.7-3.4-1.9-6.1-2-9.3c0-1.5-1.7-2.4-2.4-3.5c-2.8-0.6-5.6-0.7-8.2-2
		c-0.5-1-1.2-1.8-2-2.7c-2.1-2.2-3.2-5-3.8-7.9c-0.8-3.9-0.7-8-0.2-12c0.3-2.9,1.1-5.9,0.7-8.9c-0.4-2.6-0.2-5.2-0.3-7.8
		c0.6,0.1,0.4,0.9,1.3,0.9c0.9-6.5,2.2-13,4.2-19.3c1.3-4.1,1.4-8.3,1.5-12.5c0.2-4.9,0.1-9.8-0.8-14.7c-0.5-2.8-1.4-5.6-1.3-8.5
		c0.2-5.4,0.5-10.7,0.7-16.1c0.2-4.7,0.2-9.4,0.4-14.1c0.1-2.4,0.7-4.5,2.2-6.4c4.6-6.1,6.4-13.3,8.2-20.6c0.3-1.4,0.3-1.4-0.5-3.4
		c-1.7,7-3.9,13.6-8.5,19.2c-5.2,6.3-10.9,11.4-19.3,12.6c-2,0.3-4,0.9-6.1,0.8c-0.9,0-1.8,0-2.9,1.3c-2.2,12.9-3,26.1,2.5,38.8
		c-2.6,5.4-3.9,10.8-3.9,16.5c0,4.2,0.1,8.5,0.9,12.7c0.2,0.9,0.6,1.9,0.1,2.7c-1.1,1.5-0.6,3.1-0.3,4.6c0.9,5.9,3.1,11.5,5.5,16.9
		c1.5,3.5,2.9,6.9,3.6,10.7c0.8,5.1,1.6,10.2,1.6,15.4c0,1.9-0.2,3.8-1.3,5.5c-2.3-1.2-2.9-3.3-3.6-5.4c0.4,0.2,0.8,0.3,1.6,0.6
		c-0.1-3.9-0.1-7.6-1-11.3c-0.7-2.7-1.3-5.3-0.6-7.8c-2.3-5.2-4.6-10-6.1-15.2c-1.6-5.4-1.8-10.8-1.8-16.3c0-2.5-0.2-5-0.8-7.5
		c-1.4-6.1-1-12,1.1-17.9c0.6-1.6,1.8-2.6,2.4-4.2c-0.2-2.4-0.6-4.8-1.6-7.2c-1-2.3-0.8-5-1.5-7.4c-0.9-3.1-1.2-6.3-1.2-9.5
		c0-5.3,1.3-10.4,2.8-15.5c-1.1-0.8-2.4-0.8-3.6-0.8c-8.4-0.3-16.7-1.4-24.7-4c-2.1-0.7-4.1,0-5.8,1.3c-4.4,3.3-9.2,5.5-14.4,7
		c-7.7,2.2-15.1,5.5-22.9,7.2c-1.3,0.3-2.4,0.6-2.8,2.1c-6.3,0.3-12,2.4-17.8,4.2c-3,0.9-6.1,1.6-8.9,3.2c-2.2,1.3-4.9,2.2-7.5,0.7
		c-5.2,5-10.4,9.9-14.8,15.5c-3.2,4-7.3,6.5-11.8,8.7c-1.7,0.9-3.5,1.7-5.3,2.6c-1.7,0.8-3.1,1.9-4.4,3.2
		c-4.7,4.2-9.6,8.2-14.7,11.9c-2.5,1.8-4.7,4-7.1,5.8c-5.3,3.9-10.7,7.9-16.5,11.1c-3.7,2.1-7.4,4.2-10.8,6.2c-2.6-0.5-3.1-3-5-4.2
		c-0.9,0.5-2,0.9-3,1.5c-5.6,3.5-11.6,6.4-16.6,10.9c-1.1,1-2.3,2.4-4.4,1.9c-1.8-2.9-4.3-5.4-5.5-8.8c-0.3-0.8-0.8-1.4-1.3-2
		c-4.6-4.3-8.5-9.3-12.3-14.8c-2.4,1-4.9,1.8-7.2,3c-5.3,2.8-10.7,3.2-16.3,1.5c-2.4-0.7-5-0.3-7.3-1.5c-0.7-0.3-1.8,0.1-2.7,0.3
		c-5.8,1.3-11.6,2.7-17.4,4.1c-3.6,0.9-7.3,0.7-10.8,1.8c-0.3,0.1-0.6,0.2-1,0.4c0.6,0.8,1.6-0.2,2,0.5c0.6,0.8,0.3,1.6,0.1,2.4
		c-0.9,3.5-2.2,6.8-4.3,9.7c-2.8,3.8-3.1,8.3-3.7,12.7c-0.3,2.2,1.2,4,2.8,5.3c1.6,1.3,2.8,3,4.3,4.4c2.5,2.3,2.6,5,0.3,7.6
		c-2.3,2.6-5.2,3.6-8.6,2.5c-1.5,1.6-3.6,1.7-5.6,1.9c-6.3,0.5-12-1.2-17.3-4.6c-1.8-1.2-2.9-2.9-3.5-4.9c-1.2-4.1-1.2-8.4-1.3-12.6
		c0-1.2,1-1.7,1.4-2.8c-0.8-3.5-0.8-7.1,0.9-10.6c-0.7-2-2.7-2.9-3.2-5.1c-4.2,1.2-8.1,2.6-12.1,3.3c-10.4,1.8-18.9,7.2-27.3,13.5
		c-0.3,2.9-0.8,5.8-2.7,8.3c-0.4,0.6-0.4,1.3-0.4,2c0,3.4-1,6.6-2.4,9.6c-1.5,3.2-2.1,6.5-1.7,10c0.3,2.5-0.2,5,0.4,7.6
		c1.2,0.8,2.4,1.6,3.7,2.4c2.6,1.6,3.3,3.8,2.8,6.8c-0.8,4.1-2.8,7.1-6.6,9c-3,1.5-6.1,2.3-9.5,2.5c-6.9,0.4-13.7-0.3-20.6-2.4
		c-1.9-2.7-4.2-5.5-6.4-8.3c-4.7-5.8-5.7-12.3-4.8-19.4c0.4-3.1,1.3-6.1,1.3-9.2c0-1.6,0-3.2-0.5-4.9c-4.1-3.5-7.3-7.7-9.2-12.9
		c-1-2.6-1.6-5.3-1.5-8.1c0-1.3,0.1-1.3,1.8-3.2c0.1,10.2,5.9,17,12.3,22.8c0.5,1.4-0.5,1.6-0.8,2.4c1,3.4,1,7,0,10.6
		c-0.2,0.7-0.1,1.6-0.1,2.4c0.1,2.4,0.3,4.7,0,7.1c-0.4,2.9,0.4,5.7,2.4,8c1.4,1.7,2.8,3.4,4.2,5c1.1,1.2,2.1,2.4,2.6,3.8
		c3.6,2.2,7.2,3.1,11.3,2.6c2.7-0.3,5.5-0.4,8.2-0.3c4.6,0.2,8.4-1.7,12-4c0.8-2,1.2-3.9,1.6-5.7c-0.2-1.1-0.7-2-1.5-2.3
		c-3.5-1.2-5.3-4.2-7.3-6.9c-2.7,0-5.4,0.2-6.8-2.7c1.6-2.4,3.7-2.6,7.8-0.8c0.7-0.7,0-1.5,0-2.2s-0.1-1.3-0.2-2.3
		c-3.4,0.5-6.7,1.3-9.7-0.8c-1-0.7-1.6-1.6-1.3-3.1c1.3-2.5,3.7-1.5,5.8-1.7c2.1-0.2,4.3-0.1,6.4,0.2c-0.1-1.6-0.9-1.3-1.5-1.3
		c-2.4-0.2-4.8-0.1-7.1-1c-1.5-0.6-3-1.1-3.4-2.9c0.6-1.8,1.9-2,3.4-1.7c3.6,0.8,7.3,0.4,10.9,1.1c0.9-1.1,1.2-2.2,1.5-3.6
		c-1.5-0.6-2.7,0.2-3.9,0.7c-3.2,1.2-6.5,1.5-9.8,0.4c-2.1-0.7-2.7-1.3-3.6-3.7c0.8-1.5,2.1-1,3.3-0.7c5.3,1.1,10.4-0.3,15.6-1.4
		c0.5-1.8,1-3.5,1.5-5.1c-0.7-0.7-1.9,0.1-2.4-1c-0.3-0.7,0.3-1.3,0.3-2c-1.1-0.4-1.8,0.2-2.7,0.5c-2.4,0.9-4.8,1.5-7.3,2.1
		c-4.3,1-8,0.1-11.1-2.9c-3.7-3.6-6.3-7.8-5.7-13.3c1,0,1.3,0.7,1.6,1.5c0.6,1.8,1.3,3.7,2.2,5.4c2.5,5,7.4,9.4,15.7,5.5
		c-5.8-1.7-8.3-6.1-10.8-10.7c1.5-2.8,1.1-6.6,3.9-8.8c1.5,0.5,0.5,1.5,1,2.1c1.8,0.7,3.6-0.6,5.8-0.2c-1.6,1.8-3.6,2.1-5.6,3
		c-0.4,1.5-1.6,2.8-2.2,4.4c2.9,4.7,8,6.2,11.8,9.4c2.5-0.2,5-0.4,7.6-0.7c6.1-4.8,13-8.2,20-11.2c2.2-0.9,4.6-1.4,6.8-2.4
		c4.9-2.2,10-3.9,15.4-4.8c1.7-0.3,3.4-0.6,5-1.2c5.5-2,11.3-2.8,17.1-3.5c7.5-0.9,15.1-0.9,22.5-1.8c8.1-1.1,16.2-2.7,24.2-4.2
		c1.9-0.3,3.8-1,5.7-1.5c0.7-0.2,1.5-0.6,2.4,0.3c-2.6,2.1-6,1.7-9.4,3.5c4.7,0,8.7-0.1,12.7,0c2.1,0,4.1-0.3,6-1.2
		c2.7-1.2,5.5-2.3,8.4-3.1c-0.1-1.1-0.6-1.7-1.3-2.2c-2.5,0.5-4.6,2.5-7.4,1.2c1.1-3.1,4.1-2.6,6.1-3.9c-6-9.2-11-18.7-14.1-28.9
		c-9.4,3.3-18.6,4.2-28.1,3.3c-3.2-0.3-6.4-0.4-9.6,0c-9.7,1.1-18.7,4.3-27.5,8.3c-0.7,0.3-1.5,0.7-2.1,1.2
		c-9.2,8.7-21,13.4-31.8,19.5c-4.2,2.4-8.9,3.6-13.3,5.6c-7,3.2-14.2,5.7-21.6,8c-0.6,0.2-1.3,0.5-2,0c-0.9-0.4-0.3-1.5-0.9-2.1
		c-1.5,0.7-1.5,0.7-4.6,5.1c-2.6,0.3-7.5,3.1-9.4,5.3c-0.7,0.1-1.4,0.2-2.1-0.5c0.2-2.8,3-3,4.7-4.1c1.8-1.2,3.8-2.2,6.1-2.4
		c-0.1-1.1-0.2-2.1-0.3-3.1c-0.3-0.1-0.7-0.2-1-0.2c-2.4,0.1-4.8,0.2-7.2,0.3c-1.9,0.1-3.8,0.4-5.6,1.3c-1.2,0.6-2.6,0.9-3.9,1.1
		c-4.2,0.7-8.2,2.2-12.3,2c-2.4,2.9-4,6-5.5,9.2c-0.1-3.8,0.4-7.5,2.9-10.5c1-1.2,2.5-1.6,4-1.6c3.9,0.1,7.7-1.3,11.6-1.5
		c0.3,0,0.7-0.1,1-0.2c4.7-2.5,9.8-2,14.8-2.3c2.4-0.1,4.8-0.2,7.1-0.9c1.6-0.4,2.7-0.1,3.4,1.4c8.3-2.1,16-5.6,23.9-8.7
		c5-1.9,10.2-3.6,14.4-7.2c0.9-0.8,2.2-1.3,3.3-1.8c6.8-2.8,13-6.7,19.3-10.6c3.6-2.2,7.2-4.5,10.7-6.8c6.7-4.3,14.4-5.8,22.2-6.3
		c8.4-0.5,16.7-0.4,25.1-0.5c4.5,0,8.9-0.9,13.1-2c0.7-0.7,0.1-2,1.7-2.4c2.2,5.1,3.9,10.5,6.9,15.3c2.3-0.7,4.5-1.3,6.6-1.9
		c-1.6,1.8-4,2-6,3.4c4.4,7.6,9,15,13.9,22.2c4.2-1.2,7.5-4.1,11.8-4.9c-3.5,2.1-7.1,4.2-10.8,6.4c2.5,3.2,4.9,6.1,7.2,9.1
		c1.5,1.9,2.8,3.8,3.9,6c1,2.1,2.7,3.9,4.1,5.8c2.4-1.1,4.5-2.3,6.7-3.1c1.5-0.6,1.9-2.1,3.1-3c5.3-3.6,10.9-6.7,16.7-9.6
		c7.4-3.7,14.6-7.8,21.4-12.4c4.1-2.7,8.3-5.4,12.8-7.5c5.3-2.4,9.5-6.3,14.4-9.4c0.5-0.3,1-0.9,1.3-1.5c3.5-6.9,8.2-13,12.9-19
		c0.9-1.2,1.7-2.4,2.6-3.6c0.3-0.4,0.7-0.9,1.8-0.7c-4.6,8.1-11.2,14.6-16.1,23.2c7.7-3.8,15-6.7,20.2-13.4
		c3.7-4.7,7.8-9.3,13.1-12.4c-0.4-2.6-0.4-2.6-2.8-5.1c-8.1,3.7-11.8,11.3-16.1,18.3c1.2-8,8.2-17.2,15.4-19.9
		c-3.4-5.7-6-11.8-8.2-18c-1.7-1.1-3.6-2-5.1-3.7c-1.5,0.8-3,1.7-5,2.7c0.8-2.1,3-2.2,3.6-3.9c-2.9-2-2.4-5.4-3-8.3
		c-0.3-1.8,0-3.7-0.8-5.6c-3.2,1-6.5,0.9-9.6,2.3c0.9-1.6,0.9-1.6,4.4-3c1.7-0.7,3.4-1.3,5.3-2c-0.4-2.6,1-4.6,2.2-6.7
		C614.1,499.5,614.8,498.8,614.8,497.9L614.8,497.9z M873,469.6c-0.8-0.4-0.8-1.8-2.2-1.7C871.1,469.4,872.2,469.4,873,469.6
		c-0.5,1.1,0.9,2.1,0.3,3.3c-0.1,1.2-1.6,1.5-1.7,2.7c1,1.2,2.1,1.4,3.3,0.4c0.1-0.1,0.2-0.4,0.2-0.5c-0.4-0.4-1.2-0.2-1.3-1.1
		c-0.1-1,1.6-1.3,1.2-2.7C874.5,471,874,470.1,873,469.6z M578.3,596.9c-0.9-0.1-1.5,0.5-2.2,1c-8.3,5.4-16.9,10.1-25.8,14.4
		c-0.9,0.4-1.9,0.7-2.6,1.6c0.6,0.9,1.2,1.6,2.4,2c3.3-1.9,6.8-3.7,10.3-5.3c6.9-3.3,12.5-8.3,18-13.5c0.7,0,1.2-0.4,1.6-1.8
		C579.2,596.2,578.5,596.1,578.3,596.9z M824.1,460.1c-1.1-0.9-0.7-2.1-0.8-3.2c-0.2-1.7-0.1-3.4-1-5.2c-1.9,0-3.8-0.3-5.7-0.5
		c-3.4-0.3-5.9,1.8-6.5,5.3c-0.2,1.2-0.1,2.7-0.6,3.7c-1.4,2.5-0.8,5.1-0.7,7.2c0.5,1.4,1.9,0.9,2.2,1.9c-1.4,0.8-1.4,0.8-3,0.7
		c-0.6-0.5-1.2-1.3-1.2-2c0-3.6-1.1-7.3,1.3-10.6c0.3-0.4,0.4-1.1,0.5-1.6c0.1-0.3-0.1-0.6-0.1-0.9c-1,0.3-0.9,1.7-2,1.9
		c-0.9-0.5-1.7-1-2.6-1.5c-2.5,0.3-4.8,0.2-7,0c-0.3,0.1-0.5,0.1-0.6,0.2c-0.7,0.4-1.4,0.8-2.1,1.2c-4.5,3-9.1,3.2-13.8,0.5
		c-3.2-1.8-6.6-3.3-10.2-5.1c-1.5,8.1-5.2,15.2-8.9,22.3c-2.5,4.8-3.5,10.2-4.3,15.5c-0.7,4.6,0,9.4,1,14c0.3,1.2,0.8,2.4,1.5,3.5
		c2.7,4.5,8.9,5.5,12.6,1.7c2.6-2.7,4.4-6,6-8.7c-0.1-1.4-1.7-0.3-1.5-1.7c1.9-0.3,3.7-1.1,5.7-0.9c6.3,0.7,12.5,1,18.6,0
		c3.3,2.2,4,3.2,5.4,6.3c1.7,3.8,3.5,7.5,7.3,9.4c2.1-0.2,3.7-0.8,4.9-2.3c1.2-1.4,2.7-2.3,4.8-2c2.2,0.3,2.4-0.2,3-2.6
		c-0.8-1.2-3-0.9-2.8-3.4c3.1,0,4.1,4.2,7.5,3.6c0.8-0.6,1.8-1.5,2.9-2.3c-2.1-2-2.4-3.2-1.3-4.4c0.5-0.6,1.3-1,2.1-0.3
		c0.4,0.7-0.6,1.2-0.3,2.2c1.9,0.7,1.1,4.5,4.6,4.2c2.7-2.3,4.2-5.6,6-8.6s3.8-5.3,7.7-3.6c4.4-2.9,6.7-8,11.6-10.2
		c0.1-1-1.2-2.2,0.2-3.1c1.8,4.1,5.6,6.1,9.2,8.2c0.9,0.5,1.2,0.3,3.2-0.4c-3.9-1-5.5-1.9-8.3-4.9c-1.2-1.2-2.5-2.2-4.1-2.8
		c-1.1-1.9-2.6-3.5-4.3-4.8c-0.9,0.8,0.6,1.4-0.3,2c-2.8-0.9-3.8-3.3-4.5-6c-3.2,0.8-5.7-0.7-8.4-1.5c-2.5-0.8-5-1.7-7.5-2.4
		c-5-1.3-10.1-2.1-15,0.3c-1.2,1.2-1.5,2.8-2.3,4.1c-1.6-1.2,0.1-2.7-1.1-3.8c-0.8-0.8-1.7,1.3-2.6,0.1c-0.1-0.5,0.2-0.8,0.3-1.3
		C820.2,464.6,822.8,462.8,824.1,460.1c1.1-0.3,1.4-1,0.9-2.1C824.5,458.6,824.1,459.3,824.1,460.1z M663,542.7
		c1.7-0.3,3.4-0.7,5.4-1.1c-4.1-2.7-6.5-6.2-7.9-10.5c3.2,2.9,5.2,6.9,9,9.2c3.9-1.8,8-2.7,11-5.9c1.7,1.4-0.5,2.6,0.2,4
		c2.7-0.4,5.4-1.1,7.8-2.7l-0.1,0.1c5-1.3,9.6-3.6,14.4-5.5c0.3-0.1,0.7-0.3,0.9-0.5c1.6-2,4-2.6,6.2-3.4c2.8-0.9,5.4-0.9,8.4,0.1
		c5.5,2,11.2,3.3,17.2,3c3-0.2,6,0,8.9,0.3c9.4,1.3,17.4-1.4,24.1-8.1c2.9-2.9,5.6-6,8-9.4c1.1-1.6,2.3-3,2.1-5.5
		c-0.9,1.4-1.7,2.5-2.4,3.6c-3.5,0.9-6.4,3.2-10.1,3.6c-3.3,0.4-5.9-0.4-7.8-3.1c-2.4-3.4-4-7.1-4.6-11.3c-0.7-4.3,0.3-8.4,0-12.6
		c-0.1-1.4,0.6-2.7,1.3-3.9c3.3-5.9,6-12.1,8.4-18.4c1.8-4.7,3.6-9.3,5.5-14.2c-1-1.1-2.3-1.9-3.9-2.7c-0.7,3-1.3,5.7-2.5,8.3
		c-1.7,3.7-3.2,7.5-5.3,11.1c-1.2,2-2.4,3.8-4.3,5.2c-5.1,4-10.8,7-16.6,9.7c-8.5,3.9-17.3,5-26.5,2.9c-0.8-0.2-1.5-0.5-2.4-0.4
		c-3.9,0.7-7.6,0.4-11.1-2.1c-1.3,3.5-2.6,6.8-3.9,10.3c-1.8-5.2-0.8-9.8,0.7-13.9c-2.7-6.9-3.1-13.4-0.8-20.4
		c-4.2-1.1-8.5-1.6-12.2-3.6c-2.6,2.6-5.3,4.5-7.6,7.2c-3.1,3.7-6.9,7-10.8,9.9c-0.4,6.8-0.6,13.5-1.6,19.9c3.3,3.5,7.8,3.6,11,5.7
		c0.8-0.1,1.1-0.9,1.9-0.5c0.2,1-0.9,2.4,0.7,3.1c4.1-3.3,4.2-3.4,9.3-3.2c2.4,0.1,4.8,0,7.2,0c0.7-0.5-0.4-1.9,1.2-2.2
		c0.9,1,0.5,2.2,0.4,3.4l0.1-0.1c-0.7,0.8-1.6,0.7-2.5,0.7c-3.5,0-7.1,0.2-10.5-0.6c-2.8,2.6-5.3,5.2-7,8.8
		c-0.6,5,0.1,10.6-1.7,15.8c4.9,7.2,11.7,7.9,19.5,6c1.4-2.3,4-3.4,6.7-4.5c0.9-4.5,0.6-9,1.1-13.4c1.8,4.5,1.7,9,0.4,13.3
		c-2.1,1.7-4.3,2.9-5.8,4.7c-1.3,1.5-2.6,2.1-4.4,2.2c-1.5,0.1-3,0.2-4.5,0.4c-4.5,0.6-8.3-1.1-11.7-4c-2.2-1.9-4.1-4-2.5-7.1
		c-1.8-0.8-2.6,1-3.9,1c-3.4-1.9-4.7-4.5-3.8-7.9c0.6-2.4,1.3-4.9,2-7.3s2.7-3.6,5.4-3.6c1.1,0.4-0.1,1.5,0.8,2c0.7-1,1.2-1.9,1.3-3
		c-0.8-2.5-3-3-4.9-3.6c-3.3-1.1-5.8-3.1-8.1-5.4c-0.2-1.7,0-3.1,0.5-4.5c0.3-1,0.6-1.9,0.4-3c-0.6-3.4-0.4-6.9-0.1-10.3
		c0.5-5.8,1.5-11.6,4-17c0.7-1.4,1.7-2.8,2.2-4.3c1.7-5.5,3.4-10.9,4.4-16.5c-1.9-2.5-2.3-5.2-2.4-8.4c1.3,1.3,1.6,2.8,2.1,4.2
		c0.3,0.7,0.4,1.8,0.9,2.1c2,1.2,1.7,3.1,1.7,4.9c0,1.5-0.2,2.9-0.3,4.5c3.1,3.3,6.6,6,10.8,7.7c5.8,2.3,11.5,5.2,17.9,5.4
		c0.2,0,0.4,0.2,0.7,0.4c1.7,2.7,1.1,6.1,2.1,8.8c-1.3,4.3-4.3,7.6-5.4,11.7c2.5,2.2,10.7,3.4,19.4,3c14.9-0.8,27.1-7.6,38.4-16.3
		c-0.8-2.4-2.1-4.2-2.3-6.7c1.8,1.5,2,3.8,3.9,5.5c2.6-5.9,5.9-11.3,5.5-18c-5.6-3-11.2-5.7-17.4-6.8c-1.8-2.6-3.7-5-5.3-7.7
		c-1.1-1.9-2.5-3.2-4.4-4.1c-6.6-3.3-13.3-6-20.8-5.9c-2.7,0-5.3-1-8.2-0.7c-3-3.6-6.7-6.3-10.9-8.3c-4-2-8.1-3.8-12.1-5.7
		c-1.5-0.7-2.9-1-4.6-0.8c-5.5,0.7-11,0.9-16.4-0.5c-3.6-1-7.3-0.3-10.9-0.3c-0.5,0-1.1,0.2-1.6,0.5c-1.9,1.1-3.7,2.3-5.5,3.4
		c-1.3,6.5-2.6,12.9-5.1,19c-0.3,0.8-0.5,1.8-0.6,2.7c-0.7,6-1.2,12.1-0.6,18.2c0.5,4.6,0.7,9.1,1,13.7c0.2,2.6-0.3,5.3,1.2,7.7
		c0.2,0.3,0.2,0.9,0.2,1.3c-0.1,5.4,0.5,10.7-2,16.1c-3.4,7.4-4.1,15.4-2.3,23.6c0.6,2.8,1.3,5.6,0,8.6c4,0.7,7.4,2.1,10.7,4.1
		c3-3.5,6.1-2,8.7-0.7c3.7,0.1,7-1.5,10.4-0.4c-0.4,1.5-1.2,2-2.1,2.1c-3.9,0.1-7.8,2.2-11.7-0.5c-0.7-0.5-2-0.3-3.1-0.4
		c-1.5,1.5-3.3,2.6-5.2,1.2c-2.2-1.6-4.9-1.9-6.8-3.5c-0.8,0.2-1.3,1.1-2.4,0.4c-1-8.2-2.5-16.4-1.2-25.1c-2.5,2.5-4,5.4-6.7,7.2
		c1-3.7,4.3-6,6.1-9.2c-2.4-0.9-9.6-0.7-14.4,0.3c-1.2,3.4-3.5,6.3-5,9c-0.3,6,0.6,11.3,1.6,16.5c2.1,1.7,4.2,3.4,6.3,5.1
		c5.2,0.1,10.3-1,15.8-2.9c-1.6,5-6.2,3.1-9,4.9c1.7,2.7,3.3,5.4,4.7,8.1c2.2,4.3,5.6,7.8,9.2,10.9c1.6,0,3.2,0.1,4.8,0
		c3.4-0.2,6.9,0,9.8-2.5c0.6-0.5,1.5-0.6,2.3-0.7c1.4-0.2,2.6-0.7,3.7-1.6L663,542.7z M429.2,624.9c-2.5-0.6-4.6-0.8-5-3.1
		c1.8-1.4,1.8-1.3,3.7-1.2c2.9,0.2,5.9,0.4,8.9,0.6c0.9-1.5,1.6-3,2.1-4.7c-1.5-0.1-2.7,0.6-4,0.3s-2.7-0.7-4-1.1
		c-0.9-0.3-1.8-0.3-2.7-0.2c-5.1,0.7-10.2,1.3-15.3,2.1c-2,0.3-3.9,0.9-5.8,1.7c1.1,1.9,3.1,2.8,3.6,5.1c-1.8,3.6-2.4,7.7-2.4,11.8
		c0,1.4,0.2,2.8-0.1,4.1c-0.6,2.8,0,5.4,0.5,8.1c0.6,3.2,2.6,4.8,5.3,6.1c5.7,2.8,11.7,2,17.7,2c0.8,0,1.6,0,2.4-0.2
		c2.5-0.6,4.7-1.8,5.3-4.7c-1.2-2.9-4.1-4.2-5.7-6.9c-1.5-2.6-2.2-5.4-2.8-8.3c-1.7,0.5-3.1,0.8-4.6,0.1c-1.1-0.5-2-1.3-1.8-2.6
		c0.2-1.2,1.1-1.7,2.2-1.8c1.6-0.1,3.1-0.3,4.6-0.4c0.1-0.6,0.4-1-0.1-1.3c-2.8,0-6.1,2-8.1-1.6
		C423.9,625.6,426.7,626.2,429.2,624.9z M663,466.6c3-5.9,8.6-9.1,13.9-12.9c-2.5-1.6-4.4-3.5-6.2-5.9c-1.6,3.7-3.3,6.6-5.1,9.5
		C664.1,460.2,663.3,463.3,663,466.6z M694.3,459.5c-0.5,5-1.1,9.9,0.8,14.8c1.3-1.8,2.5-3.5,3.8-5.1c3.3-4,3.3-4,1-8.5
		c-0.1-0.3-0.4-0.5-0.6-0.7C697.6,460,696,459.8,694.3,459.5z M664.5,517.6c1.4,0.1,2.9,0.1,4.7,0.2c0-4-0.2-7.7,0.5-11.4
		c-1.2-0.1-2.1-0.5-3.6,0.1c-1.2,2.6-1.5,5.8-2.6,8.8C663.4,516,663.6,516.7,664.5,517.6z M637.4,486.9c-1.2-0.1-1.9,0.1-2.2,0.7
		c-1.2,2.1-3.1,2.8-5.4,3.1c-1.3,0.2-2.5,0.8-3.7,2.1c3.1,0.5,6.3-0.8,8.6,1.9C636.5,492.2,636.8,489.6,637.4,486.9z M762.3,665.7
		c-1.5,2.8,0.1,4.4,5.2,5.4c-0.4-1.2,0.3-2.5-0.9-3.9C765.2,667.1,763.9,666.1,762.3,665.7z M624.5,528.2c-0.6,2-0.2,3.2,2.4,8.2
		c0.6-0.7,1.5-1.1,1.5-2.3c-1.1-0.7-2.6-1.2-3.1-2.4S625.5,529.4,624.5,528.2z M637.7,547.9c1,1,0.4,1.7,0.8,2.4
		c0.8,0.4,1.6,1.4,2.8,0.4c-1.4-2.1-3.6-3.3-5.2-5c-0.7,0.2-1.2,0.4-1.3,1.1C635.7,547.5,637.1,547.1,637.7,547.9z M864,476
		c0.4-1.9-0.3-2.8-1.2-3.4c-0.8-0.6-0.9-2.3-2.9-1.8C861.3,472.5,862.5,474,864,476z M846.5,443.6c1.5-0.9,1.4-2.4,2.4-4
		c-1.6,0.5-2.6-0.3-3.4,0.5C845.8,441.3,846.1,442.4,846.5,443.6z M846.9,448.7c0.4,1,1.3,1.3,2.3,1.6c0.2-0.8,1.2-1.2,0.7-2.4
		C848.9,447.7,847.7,447.2,846.9,448.7z M845,466.1c1.6,1,3.1,2,5.6,2.3C848.8,466.5,847.2,465.6,845,466.1z M854.5,456.1
		c-0.2,2-0.3,3.2-0.4,4.4c0.6,0.4,1,0.6,1.4,0.3C855.6,457.8,855.6,457.8,854.5,456.1z M831.8,441.8c-0.7,1.3-1.4,2.5-1.4,4
		c0,0.7,0.6,0.8,1.7,0.3C831,444.8,832,443.4,831.8,441.8z M852.7,467.3c1.2,1.2,2.6,1.8,4.4,1.6
		C855.9,467.8,854.5,467.2,852.7,467.3z M633.9,544.3c-1.1-0.7-2-1-3.2-0.8c0.1,1.1,0.5,1.8,1.4,2.1
		C632.8,545.4,633.4,545,633.9,544.3z M823.6,438.1c1.6,0.8,2.6,1.5,3.6,0C825.7,437.4,825.7,437.4,823.6,438.1z M858.4,463.7
		c-0.4,1.1-1.8,1.6-1.4,3.1C858.1,466.1,858.6,465.1,858.4,463.7z M630.9,538.9c-1-0.5-1.9-0.6-3.3-0.5c0.6,0.8,0.6,1.6,1.5,1.9
		C629.7,540,630.5,539.9,630.9,538.9z M824.6,450.9c-0.7,1.2-0.6,2,0.6,2.5C826.2,452.5,826.1,451.7,824.6,450.9z M880.2,480
		c-0.1-1.4-0.9-1.5-1.8-1.3c-0.1,0-0.2,0.3-0.3,0.4C878.4,480,879,480.3,880.2,480z M843.3,434.5c-1.3-0.5-2.1-0.7-2.7,0.5
		C841.7,435.5,842.4,435.3,843.3,434.5z M870.3,460c-0.8,0.4-1.1,0.9-0.7,1.4c0.4,0.5,1.1,0.9,1.7,0
		C871.3,460.9,871,460.4,870.3,460z M636.1,549.7c-0.6-0.9-1.3-0.8-2.1-0.3C634.6,551,635.3,550.7,636.1,549.7z M836.9,432
		c0.8,0.7,1.4,0.7,2.1-0.1C838.2,431.1,837.6,431.1,836.9,432z M855.1,435c0.2,1.3,0.9,1.6,1.9,1.4
		C856.8,435.4,856.4,434.8,855.1,435z M821.3,438.8c-1.2-1.2-1.9-0.7-2.6,0.2C819.5,439.6,820.2,439.5,821.3,438.8z M839.5,459.3
		c0.1,0.6,0.6,0.6,1,0.7c0.7,0.1,0.7-0.4,0.6-0.9C840.5,458.6,840,458.4,839.5,459.3z M810.5,452.1c1.1-0.5,1.9-0.8,1.9-1.9
		C811,450.1,810.7,450.9,810.5,452.1z M840.5,465.6c-0.7-1-1.3-1.1-2.1-0.6C838.8,465.9,839.4,466.2,840.5,465.6z M813.6,445.2
		c-1.2-0.4-1.8,0.1-2.4,1.1C812.3,446.3,813.1,446.4,813.6,445.2z M758.9,666.8c-0.7,0.7-0.8,1.2,0.2,1.9
		C759.2,668.1,759.4,667.5,758.9,666.8z M831.4,459.7c0.8,0.4,1.4,0.7,1.9-0.3C832.7,458.8,832.1,458.9,831.4,459.7z M837.1,456.6
		c-0.6-1-1.1-0.9-1.7,0.1C836,457.4,836.5,457.5,837.1,456.6z M848.9,433.8c-0.7-0.4-1.2-0.5-1.4,0.2c-0.1,0.2,0.2,0.7,0.4,0.7
		C848.4,434.9,848.9,434.7,848.9,433.8z M826.5,445c-1,0-1.6,0.2-1.6,1.2C825.8,446.5,826.3,446.3,826.5,445z"/>
	<path d="M741.4,364.1c1.3,1.6,1.5,3.5,1.7,5.2c1.5,1.3,3,0.8,4.5,0.9c0.4-2.3,0.4-4.5,1.1-6.5c1.5,1.1,1.5,1.1,0.9,6.8
		c1.5,0.7,3,1.5,5,0.2c0.7-3.5-0.5-7.8,2.6-11.3c0.9,1.9-0.4,3.4-0.2,5.1c1.6-0.2,3.2-0.4,5.1-0.7c-0.2-2.4-0.5-4.6-0.2-6.9
		c-1.2-0.7-2.5-0.1-3.6-0.3c-1.1,0.3-0.4,1.6-1.4,1.8c-1.2-0.2-2.6-4.8-2.3-7.7c1.8,0.2,1.2,2.3,2.4,3c0.5,0.2,1,0.1,1.7-0.2
		c-0.5-1.5-1-3-1.5-4.5c-5.1-2.5-10.9-3.1-15.3-6.7c-0.8-0.1-0.9,0.8-1.4,0.9c-1.4-0.4-2.1-1.3-2.3-2.7c-0.3-2.2-0.9-4.3-0.5-6.5
		c0.4-2.5,0-5,0-7.5c-0.4-11.3-1-22.7-0.7-34c0.2-7.1,1.1-14.2,1.6-21.2c0.2-2.9,0.4-5.7,0.5-8.6c0.1-3-0.1-5.9-1.3-8.8
		c-1.4-3.5-1.3-7.2-0.8-10.9c0.7-5.2,1.6-10.4,2.4-15.6c0.4-2.6,0-5.3-0.2-7.9c-0.2-3-0.3-5.9-0.1-8.8c1-0.8,2.1,0.1,3-0.6
		c0.2,0.3,0.5,0.6,0.5,0.9c0.1,0.7,0.1,1.4,0,2.1c-0.8,10.7,1.1,21,4.8,31c0.5,1.4,0.5,1.8-0.7,7.4c-0.4-2.1-0.6-3.5-1-4.9
		c-0.4-1.5,0.1-3.2-0.8-4.6c-0.8-1.3-1.5-2.8-2.5-4.7c-1.1,8-2.5,15.4-0.5,22.9c0.7-3.4,0.7-7,2.3-10.3c1.2,0.5,1.1,1.3,0.9,1.9
		c-1,3.6-0.8,7.2-0.8,10.8c-0.1,7.7,0,15.4,1.3,23c0.7,4.3,2.5,8.3,3.9,12.4c0.4,1.1,0.8,2.1,1.3,3.2c4.3,8.2,4.8,17.1,5.1,26
		c0.1,1.8-0.2,3.6-1.2,5.4c-2.3-1-3-2.8-3.5-4.9c0.5-0.1,0.9-0.2,1.4-0.3c-0.3-4.1-0.2-8.2-1.4-12.2c-0.6-2.2-1-4.5-0.2-6.5
		c-5.1-10.1-8.5-20.3-9.1-31.4c-1.2,0-0.9,0.9-1.1,1.5c-1.1,4.8-1.4,9.7-1.4,14.7c0,9.1-0.2,18.1,0,27.2c0.1,5.9,0.2,11.9,0.9,17.8
		c1.3,1.2,2.7,2.1,4.5,3.1c-0.3-2.5-0.7-4.7-0.6-7c0.1-1.5,0-3,1.4-4l-0.1-0.1c0.3,3.9-0.4,7.8,1,12c2.9,1,5.9,2.3,9.1,3.1
		c3.2,0.8,4.6,2.8,5,5.7c0.2,1.1,0.5,1.9,1.1,3.2c0.9-2.7,2.5-4.6,2.9-7.3c-1.2-0.4-2.5-0.9-3.6-1.7c-0.3,0.6-0.5,0.9-1.1,0.9
		c-0.7-0.4-1.5-0.8-2.2-1.4c-1-0.9-1.6-2.1-1-3.4c0.4-1,1-1.7,2.6-1.5c1.2,0.1,2.4-1.5,3.9-1.3c0.1-1.2-1.8-2-0.2-3.3
		c1.7,0.8,1.9,2.2,1.5,3.8c3.3,0.4,7-1.6,10.1,1.1c-1.4,2.1-3.5,1.4-5.1,2c-0.1,1.1,0.4,1.9,0.8,2.6c1.2,0.5,2.3,0.8,3.6,0.7
		c0.6-1.3,0.8-3.1,2.7-3.3c-0.1-1.9-2.2-3.1-1.1-5.2c2.1,1,2.5,3.4,4.3,4.4c-0.7,1.7-3.3,0.9-3.4,3.3c3,0.3,5.8-0.1,8.5-0.9
		c1.3-2.7-1.1-4.6-1.2-7c-0.2-2.4-1.2-4.4-3-6c-1.8-0.3-3.7-0.7-5.6-1.1c-0.8-0.2-1.5-0.5-2.4-0.8c-0.5-1.1-1.4-1.9-2.1-2.9
		c-2-2.6-3.5-5.6-3.9-8.9c-0.5-4-0.5-8,0.2-12c0.7-4.1,0.4-8.2,0.2-12.3c0-1.1,0-2.3,0-3.5c0.7,0.2,0.2,1.1,1,1.4
		c0.8-2,0.8-4.1,1.2-6.2c1.2-5.6,2.4-11.2,4.2-16.6c0.1-0.3,0.2-0.7,0.2-1c0.4-8.8,1.1-17.7-1.1-26.3c-1-4-0.5-8-0.4-11.9
		c0.2-6.8,0.6-13.5,0.5-20.3c-0.1-4.1,1-7.7,3.5-11.2c4.2-5.9,5.8-12.9,7.2-19.9c0.1-0.7,0.3-1.6-0.4-2.3c-1.5-0.3-1.3,0.8-1.5,1.7
		c-0.6,4.1-1.2,8.4-3.4,11.8c-5.2,8-10.9,15.6-21.1,17.8c-1,0.2-2,0.3-3.1,0.4c-2.8,0.2-5.7,0.4-8.3,1.8c-0.9,0.5-2.1,1.1-3-0.1
		c0.1-0.8,0.6-1.1,1.2-1.1c3,0,5.8-1.3,8.6-2c10-2.4,17.2-8.8,23-16.9c2.9-4,2.8-4,3.1-6.4c-0.9,0.4-1.1,1.1-1.4,1.7
		c-0.3,0.6-0.7,1.2-1,1.8c-1.6,3-4.1,4.9-7,6.4c-1,0.5-2,1.2-3.3,0.1c-0.8-2.6-0.1-5.3,0.6-7.9c1.3-5.1,0.9-10.2,1.3-15.3
		c0.1-0.7-0.1-1.4-0.4-2c-1.6-4.3-3.1-8.6-5-12.8c-3.8-7.9-7.4-16.1-15.7-20.6c-0.4-0.2-0.8-0.5-1.1-0.8c0.4-1.9,1.7-2.6,2.7-4
		c-0.9-0.7-2.5-0.4-3.1-1.7c1.9-0.4,3.6,0.5,5.4,0.8c1.1,0.1,2.2,0.6,3.4,0.3c3-0.8,5.9-0.2,8.7,0.9c2.9,1.1,6.1,0.4,9.1,1.1
		c-2.4-1.5-4.9-2.7-7.8-2.8c-5.4-0.3-10.7-0.7-16.1-1.7c-1.9-0.3-3.8-0.7-5.8-0.3c-0.5,0.1-1.2,0-1.7-0.1
		c-5.8-1.7-11.7-1.7-17.6-0.6c-5.3,1-10.7,1.5-16,2.2c-1.6,0.2-3.1,0.7-4.6,1.4c-8,3.7-15.8,7.8-23.5,12.1
		c-3.3,1.8-6.6,3.7-10.1,5.2c-5.8,2.5-10.8,6-15.6,9.9c-3.4,2.8-6.7,5.5-10.2,8.2c-3.8,2.9-8.1,4.7-12.8,5.6c-0.8,0.2-1.6,0.2-2.5,0
		c-0.6,2.2-0.8,4.3-1,6.5c-0.5,6.3-0.4,12.6,0,18.9c0.3,4.6,1.8,8.9,4.9,12.6c0.2,0.3,0.5,0.5,0.6,0.8c1.1,5.1,4.7,8.5,8.1,12
		c1.5,1.5,2.5,3.1,2.3,5.6c-1.8-0.9-2.6-2.6-4.3-3c-0.6-1-1.2-1.9-2.4-2.1c-0.6,0.2-1.1,0.5-1.2,1.3c1.2,0.3,2.4,0.5,3.6,0.8
		c-0.1,2.4,1.3,4.2,2.4,6.2c-1.5,1.8-3.4,0.5-5.2,0.5c-4.8,4.6-9.7,9.3-14,14.5c-3,3.6-6.4,6.5-10.6,8.6c-2,1-3.9,1.9-5.9,2.9
		c-2.3,1.1-4.3,2.6-6.2,4.3c-4.5,4.1-9.2,7.9-14.2,11.4c-2.6,1.9-5,3.9-7.4,6c-2.7,2.4-5.9,4.3-9,6.3c-5.2,3.5-10.7,6.6-16.2,9.7
		c-0.8,0.4-1.6,1-2.6,0.9c-2-0.6-2.5-2.9-4.4-4c-8.1,4-15.6,9.1-23.1,15.1c-2.2-3-4.4-5.4-5.7-8.4c-0.8-1.8-1.8-3.1-3.2-4.4
		c-4.1-4-7.6-8.6-11-13.6c-2.5,1.1-5.1,2-7.5,3.2c-5.1,2.6-10.3,2.9-15.7,1.4c-1.6-0.4-3.1-0.9-4.7-0.7c-1.2,0.2-1.8-0.6-2.8-1.2
		c-10.6,2.3-21.2,5.6-32.2,6.7c0.8,0.9,1.8,0.1,2.7,1.4c0.2,0.3-0.2,1.1-0.4,1.8c-1,3.6-2.4,7-4.5,10c-2.7,3.8-2.9,8.2-3.4,12.5
		c-0.3,2.1,1.3,3.9,2.9,5.2c1.6,1.3,2.8,3,4.3,4.4c2.2,2,2.3,4.3,0.7,6.8c-1.6,2.6-5.9,4.6-9,3.1c-2.5,1.9-5.4,2.3-8.3,2.1
		c-4.6-0.2-9-1.5-13.1-3.8c-2.8-1.5-4.5-3.7-5.3-6.8c-1-4-0.9-8-1-12c0-1.1,0.9-1.5,1.4-2.6c-0.8-3.5-0.8-7.1,0.8-10.6
		c-0.6-2-2.7-2.9-3.1-4.9c-2,0.1-3.7,0.9-5.5,1.4c-2,0.5-3.9,1.3-6,1.6c-10.6,1.8-19.5,7.2-28,13.7c-0.3,2.8-0.8,5.7-2.6,8.2
		c-0.4,0.6-0.4,1.3-0.4,2c0,3.4-0.9,6.6-2.4,9.6c-1.5,3.2-2,6.5-1.8,10c0.2,2.5,0,5,0,7.4c1.7,1.1,3,2,4.4,2.8
		c2.3,1.5,3,3.5,2.6,6.2c-1.2,6.8-7.1,11.6-14.8,11.7c-6.8,0.1-13.5,0.5-20.1-1.8c-0.5-0.2-1.1-0.2-1.7-0.3
		c-2.2-2.9-4.4-5.8-6.6-8.6c-4.7-5.8-5.7-12.3-4.8-19.4c0.4-3.1,1.3-6.1,1.3-9.2c0-1.6-0.2-3.2-0.3-4.7c-4.7-4-8-8.7-9.8-14.4
		c-0.7-2.2-1.1-4.4-1.1-6.8c0-1.1,0.2-2.2,1.6-3.1c0.7,3.1,0.6,6,1.8,8.7c1.3,2.9,2.9,5.4,4.7,7.9c1.8,2.4,4.2,4.2,6,6.3
		c0.6,1.3-0.7,1.5-0.9,2.3c1,3.3,0.5,6.6,0.2,10.1c-0.5,4.5-0.2,9.1,0,13.6c0.1,2.5,1.9,4.3,3.4,6.2c1.8,2.3,4.3,4.2,5.5,7.1
		c3,1.7,6.1,2.8,9.7,2.6c3.7-0.3,7.3-0.2,11-0.3c4-0.2,7.5-1.9,10.7-4c0.9-1.9,1.2-3.8,1.6-5.7c-0.2-1.1-0.7-2.1-1.7-2.5
		c-3.3-1.1-4.9-4-7-6.7c-2.5-0.2-5.6,0.2-7-3.2c2.7-2.8,5.4-1.1,8.2-0.4c-0.1-1.4-0.3-2.8-0.4-4.4c-2.3,0.3-4.5,0.7-6.7,0.4
		c-3-0.4-3.9-1.4-4.3-4.6c3.7-2.7,8.1-1,12.3-1.7c-4.1-1.5-9.2-0.1-12.2-4.4c0.6-2,1.8-2.2,3.5-2c3.6,0.5,7.3,0.9,11,0.9
		c0.8-1.1,1.3-2.4,1.5-4.1c-1.4,0.4-2.6,0.7-3.7,1.2c-2.9,1.2-5.8,1.3-8.8,0.8c-2.3-0.4-4.4-1.3-5-4.1c1.5-1.5,3.1-0.7,4.5-0.5
		c5,0.8,9.7-0.6,14.5-1.6c0.5-1.8,0.9-3.3,1.3-4.9c-0.4-1.1-1.8-0.2-2.2-1.2c-0.5-0.7,0.1-1.3,0.2-1.9c-0.5-0.4-0.9-0.4-1.4-0.2
		c-3,1.2-6.1,2-9.2,2.7c-4.1,0.9-7.6-0.3-10.4-3c-3.6-3.5-6.2-7.6-5.7-12.9c1.7-0.4,1.5,1.1,1.8,1.9c1.1,3,2.2,6,4.5,8.4
		c3.7,3.8,7.9,4.4,12.9,1.7c-5.6-1.7-8.1-6.1-10.6-10.8c1.4-2.9,1.3-6.4,3.6-8.7c1.9,0,0.6,1.6,1.3,1.9c2.1,0.5,3.8-0.2,5.7-0.4
		c-0.5,1.3-1.5,1.6-2.4,2.1c-1,0.6-2.3,0.5-3.1,1.4c-0.8,1.4-1.5,2.8-2.3,4.2c2.9,4.5,7.9,6.2,11.8,9.2c4.7,0.2,8.8-0.7,12.4-3.8
		c1.5-1.3,3.3-2.1,5-3c7.1-4,15-6.3,22.4-9.4c5.8-2.4,12.2-3.1,18.2-4.7c6.8-1.9,13.9-3,21-3.2c5.5-0.2,11-0.4,16.4-1.3
		c8.3-1.4,16.8-2.4,25-4.5c1.6-0.4,3.1-0.8,4.7-1.2c0.6-0.1,1.1-0.4,1.6,0.6c-2.4,1.7-5.5,1.6-8.4,3c9.4,0.9,18.1,0.6,26.1-4.3
		c-0.4-0.7-0.7-1.5-1.6-1.7c-2.3,0.7-4.4,2.4-7.2,1.1c1.1-3,3.8-2.8,6.2-3.7c-6-9.2-11-18.8-14.2-29.2c-7.7,3.4-22.5,4.5-29.8,3.2
		c-1.7-0.3-3.4-0.3-5.1-0.1c-9.5,0.8-18.4,3.6-27.1,7.2c-1.8,0.8-3.8,1.3-5.2,2.6c-9.5,8.9-21.6,13.8-32.8,19.9
		c-3.6,2-7.6,3.1-11.4,4.7c-7.3,3.3-14.9,6-22.5,8.4c-0.7,0.2-1.3,0.3-2-0.2c-1-0.5,0.1-1.7-0.5-2.2c-3.2,0.5-3.1,3.6-4.8,5.2
		c-3.7,0.4-6.3,3-9.4,4.7c-0.2,0.1-0.1,0.6-0.1,1c-0.8-0.2-1.6-0.1-2.1-1c1-2.5,4.9-4.9,10.6-6.6c0.8-1-0.9-1.9,0.4-2.9
		c-0.7-0.2-1-0.3-1.3-0.3c-1.9,0.1-3.9,0.3-5.8,0.3c-2.7,0-5.1,0.6-7.7,1.5c-4.2,1.5-8.6,2.4-13,2.7c-2,0.1-3.4,0.7-4.5,2.6
		c-1.3,2.2-2.5,4.5-3.6,7.2c-0.6-2-0.1-5.5,0.8-7.7c1.3-3.2,3.5-4.7,7.1-4.8c4.9-0.2,9.8-0.7,14.4-2.8c1.4-0.6,2.9-0.7,4.4-0.7
		c5-0.2,10.1-0.2,15-1.3c1.5-0.3,2.3,0.5,3.1,1.4c7.2-1.8,13.8-4.7,20.5-7.3c3.1-1.2,6.2-2.5,9.3-3.6c2.1-0.7,4.1-1.7,5.7-3.1
		c2.7-2.1,5.6-3.5,8.7-4.8c5.5-2.4,10.5-5.6,15.6-8.8c3.9-2.4,7.8-4.7,11.6-7.3c5.1-3.5,11.1-4.9,17.1-5.8c4.5-0.7,9.1-0.7,13.7-0.8
		c6.6-0.1,13.3-0.2,19.9-0.4c3.3-0.1,6.5-1.2,9.8-1.8c0.8-0.6,0.1-1.9,1.2-2.3c0.5-0.1,0.9,0.2,1,0.7c1.4,3.8,2.8,7.5,4.6,11.1
		c0.6,1.1,0.9,2.3,2,3.4c2-0.4,3.9-1.6,6.4-1.5c-1.9,1.6-4.1,1.6-5.9,3c4.3,7.6,9,14.9,13.8,22.2c4.1-1.2,7.4-4.1,11.7-4.8
		c-3.5,2-6.9,4.1-10.6,6.3c2.5,3.1,4.7,5.9,7,8.8c1.6,2,3.1,3.9,4.1,6.3c0.9,2.2,2.8,3.8,4.4,5.9c2.2-1.2,4.2-2.5,6.5-3.3
		c1.6-0.5,1.9-2.1,3.2-3c5.1-3.5,10.5-6.5,16.1-9.3c8-4,15.8-8.4,23.2-13.4c3.5-2.4,7.1-4.6,11-6.4c5.5-2.5,10-6.5,15-9.7
		c0.8-0.5,1.2-1.4,1.6-2.2c4.2-8.1,10.1-15,15.5-22.3c0.3-0.4,0.6-0.7,1.6-0.4c-4.6,8.1-11.2,14.6-15.5,22.8
		c6.7-3.3,13.8-5.6,18.7-11.9c3.9-5,8.3-9.8,13.8-13.4c0.6-2.4-1.4-3.6-2.3-5.2c-5.1,1.9-8,5.7-10.9,9.5c-1.5,2-2.4,4.4-4.5,5.9l0,0
		c2.3-7.6,6.3-13.8,14.3-17.1c-7.5-12-10.6-25.8-13.7-39.9c-4,4.3-9.6,3.5-14.4,5.3c-0.5-0.6,0.2-0.8,0.4-1s0.6-0.3,0.9-0.5
		c2.5-1,5.1-2.1,7.7-3.1c1.7-0.6,3.2-1.4,3.5-3.2c0.8-0.2,1.2,0.4,1.9,0.5c1-4,0.3-8.2,1.3-12c4.2-3,8.8-4.9,13.8-5.9
		c1.2,0.3,2.1,1.2,2.9,1.2c0.8,0.6,0.3,1.3,0.4,1.7c0.3-0.1,0.5,0,0.7-0.1c3.8-1.9,7.2-4.4,10.5-7.1c3.8-3,7.6-5.9,11.8-8.3
		c1.9-1.1,3.5-2.6,5.3-3.8c7-4.8,14.7-8.5,22.4-12.1c5.5-2.6,11.2-4.8,16.9-6.8c5.4-1.9,11.1-2.6,16.8-3.3c1-0.1,2-0.3,3.1-0.4
		c6.6-1.1,13.2-1.1,19.5,1.5c0.8,0.3,1.6,0.3,2.4,0.2c7-0.6,14,0.5,20.9,1.1c4.8,0.4,9.1,2.9,13,6c0.8,0.7,1.2,1.5,1.4,2.9
		c4.8-2.8,10.6-2.9,14.7-6.7c0.7-0.6,1.5-1.2,2.3-1.4c2-0.6,3.1-2.1,4.5-3.5c3.7-3.5,7.5-7.1,12.3-9.1c1.2-0.5,2.2-1.2,3.2-2
		c5.1-4.1,10.6-7.2,17.1-8.3c0.2,0,0.5,0,0.7-0.1c2.3-2.2,4.9-1.9,7.2-0.5c1.8-0.8,0-2.4,1.4-3.4c2.3-0.5,3.5,2.8,5.9,2.3
		c0.5,0.7-0.2,1.3,0.3,1.9c1,0.5,2-0.6,3,0.1c1,0.8,0.1,1.7,0.1,2.8c5.3,0.6,7.9,4.8,10.7,8.5c1.4,0.7,3.2,0.3,3.9,1.9
		c-0.2,1.2-1.6,0.3-2,1.5c0.2,0.9,1,1.6,1.9,2.4c1.6,1.5,2.8,3.4,3.1,5.6c0.5,3.5,2.8,5.8,5.3,7.9c1,0.9,2.4,1.4,2.6,2.9
		c-0.6,1.8-2.1,0.3-3.2,1c1.9,2,2.8,4.6,4.3,6.4c0.5,1.1-0.3,1.5-0.4,2.1c0.2,0.8,1.4,1,1.3,1.5c-0.1,1.9-1.6,2.3-2.5,3.6
		c1.9,0.5,4-0.4,5.6,1.4c-1,1.3-0.9,2.9-0.8,4.4c-1.3,0.7-2.1-0.7-3.4-0.3c0.8,1.7,2.8,2.3,3.7,3.8c0.3,1-0.1,1.9-0.6,2.8
		c-1.4,1.5-4.1,0.6-4.8,2.9c-1,0.6-2.4-1.3-2.9,0.8c-3.4-1.9-5.7-4.8-8.6-7.4c-3.5,1.8-6,4.9-8.5,8c-2.1,2.6-4.2,3.2-7.3,2.2
		c-3.9,3.6-5.9,8.8-9.4,12.1c-2.5,1-3.9-0.3-5.2-0.9c-1.6,0.3-2.1,2-3.3,2.4c-1.2,0.2-1.7-0.8-2.6-1c-0.2,0.1-0.5,0.1-0.6,0.3
		c-0.9,2.2-2.7,3.1-4.9,3c-1.5-0.1-2.9,0-3.7,1.2c-1.2,1.8-2.9,2.5-4.9,2.6c-0.8,0-1.2,0.6-1.8,0.9c-3.7-3.2-6.3-7.1-8.5-11.4
		c-0.8-1.6-2-3-3.9-4.3c-4.4,0.1-9,0.6-14,0.2c1.1,11-5.7,18-11.5,25.5c0.9,8.2,1,16.3,0.6,24.5c-0.2,3-0.5,5.9-1.3,8.8
		c-0.8,2.5-0.4,5.1,0.5,7.4c2.9,7.3,2.9,14.7,1.2,22.3c-1.8,8-4,16-5.4,24.1c-1.7,10.1-2.2,20.3-1.2,30.5c0.3,2.6,1.5,4.8,3.2,6.7
		c0.9,1,1.8,2,3,3.3c4.3,0.2,8.6,1.1,10.5,6.3c1.2,0,2.4,0,3.8,0c1-2,2.1-4.2,3.2-6.4c4.8-1.2,9.7-1.1,14.4-1c2.5,1.4,3.4,4.1,6,5
		c0.5,5.6-0.1,11.2,1.2,17.1c-1.8,2.9-3,7-6.8,9.3c-4.8,0.2-9.6-1-14.6-1.1c-3.8-4.2-5.6-9-5.2-14.7c0.1-1.9,0-3.8,0-5.6
		c-1.5-0.6-0.9,2.2-3.1,0.3c1.1,1.8,1.6,2.7,2.2,3.8c0.1,1.1-0.9,2.5,0.3,3.5c-0.5,0.9-1.2,1.1-1.9,1.1s-1.4,0-2,0.5
		c0.6,1.2,1.9,0.6,2.6,1.2c0.2,0.9-1.3,0.6-0.9,1.6c5.3,9.1,5.3,9.1,3.8,11c0,3.5,1.1,7-0.5,11.1c-1.7-4.4-1.6-8.3-1.7-12.1
		c-0.1-2.7-0.9-4.8-2.8-6.7c-1.2,1.2-1.2,3.1-2.5,4.3c-0.2-2.5,1.6-4.5,1.4-7.3c-5.4,0.2-10.8,0.3-15.9-0.2
		c-2.1,1.5-2.7,3.6-2.9,5.8c-0.2,2.4-0.1,4.8-0.2,7.2c-0.1,1.9,0.7,4-1.1,5.7c-0.3,0.3-0.1,1.1,0,1.7c0.7,3,1.2,6.1,2.6,9.1
		c5.6,0,11.3,0,17.1,0c1.4-2.5,2.8-4.9,4.3-7.4c1.3,1.6,1.3,1.6-2.1,7.3c0.3,0.5,0.6,0.9,0.9,1.4c0,0.1-0.1,0.2-0.1,0.3
		c-0.2,0.2-0.3,0.5-0.5,0.5c-7.7-0.1-15.5,2.1-22.9,0c-0.6-0.6-0.5-0.8-0.3-1.1c0.2-0.2,0.4-0.5,0.7-0.8c-1.6-3.6-1.9-7.4-2.1-11.5
		c-1.4-0.1-2.6-0.1-3.7-0.2c-0.9,1.4-0.2,2.8-0.3,4c-3.1,3.6-4.4,3.8-8.6,1.5c-4.1,1.7-7.9,0.4-12.5-1.4c-0.1,0-0.6,0.8-1.4,1
		c-1.7,0.6-3.2,0.2-4.3-1.3s-2.5-2.7-3.3-4.4c-0.4-0.8-1-1.5-1.8-2.1c-2.2-1.4-2.5-3.5-2.3-6c0.3-3.6,0.3-7.3-0.3-10.9
		c-2.5-1.1-2.5-1.1-6.1,1.3c-0.9,5,0.3,10.2-1,15.6c-1.3-1.7-1.3-3.4-1.3-5c0.2-3.1,0.5-6.2,0.7-9.3c0.1-1.5,1.1-2.4,2.1-3.6
		c-3.9-0.1-7.7,0-11.2-0.6c-1.1,0.7-1.6,1.4-1.7,2.4c2.4,0.9,5.1-1.5,7.9,1c-3.3,0.9-6.1-0.5-9,0.7c-1.3,1-1.7,2.6-1.7,4.4
		c-0.1,2.2-0.2,4.4-0.7,6.5c-0.2,1-0.3,2-1.2,2.7c-1.3-2.9-0.8-13,1.1-14.9c1.3-1.2,2.3-2.8,3.7-4c5.8,0,11.6-0.8,17.2-0.4
		c1-0.1,1.2-1.3,2.2-1.2c2.8,2.6,3.5,10.3,1.5,16.8c2.2,2.9,4.5,5.9,6.8,8.8c0.7,0.9,1.7,1.1,2.8,0.5c0.6-1.6-0.9-3-0.3-4.4
		c-0.5-0.8-1.4-0.3-1.8-1.2c1.1-1,2.5-0.8,3.7-0.8c0.9,0.9,0.1,1.3-0.3,1.8c0.4,1.3,1,2.5,1.1,3.6c1.2,1.3,2.5,1.6,4,1.8
		c0.4-1.6-0.3-3.1-0.5-4.6C740.5,364.7,741,364.4,741.4,364.1L741.4,364.1z M873.6,147.9c-0.7,0.6-1.6,1.1-2,2.2
		c1,1.3,2.1,1.6,3.5,0.2c-0.6-0.6-1.6-1.1-1.3-2.3c0.8-0.1,1.1-0.6,1.4-1.3c-0.3-0.9-0.7-1.7-2-2.1
		C873.3,145.8,873.4,146.8,873.6,147.9z M625.2,206.4c-0.1,1.7,1,3,1.7,4.7c0.5-0.6,0.8-0.9,1.1-1.2s0.6-0.6,0.4-1.3
		C627.3,207.9,626.2,207.2,625.2,206.4c-0.3-1.7,0.4-3.7-1.3-5.2c-0.3-0.3-0.1-1.1-0.1-1.6c0.5,0.4,0.8,1,1.7,0.7
		c-0.6-1.9-0.6-3.9-1.7-5.6c-0.6-1-2-1.4-2.4-2.6c0.2-0.9,1.2-1.5,0.9-2.6c-0.8,0-1.7-0.3-2.6,0.4c-0.1,1.7,0.6,3.4,1.2,5.2
		c1.1-0.2,2.1-0.3,3-0.5c0.2,1.5-1.1,1.8-2,2.3c-0.3,0.2-0.3,0.6-0.1,1c0.7,0.5,1-1.2,1.9-0.3c0.4,0.4,0,1.2,0.1,1.8
		c-0.6,0.1-1,0.4-1.2,1.2C623.6,202.4,623.5,204.8,625.2,206.4z M809.7,145.1c-2.3-0.4-3-2-2.9-4c0.1-3.4-0.6-6.9,1.7-9.9
		c0.3-0.4,0.4-1.1,0.1-1.6c-1.1,0.1-0.9,1.6-1.3,1.6c-4.9-1.5-9-2-13.3,0.2c-9.9,4.9-20,5.4-30.2,0.8c0.6,0,1.1-0.1,1.7-0.1
		c0.6,0.6,1.3,0.5,2,0.2c-0.7,0-1.4-0.1-2.1-0.1c-1.9-1.1-4.1-1.2-5.5-1.9c-1.3-0.1-1.1,0.9-1.8,0.9c-3.3-1.9-6.5-0.3-10,0
		c1.1,1.5,2.3,2,3.3,2.8c3.7,2.8,7,6.1,8.6,10.5c1.6,4.3,3.7,8.4,5.4,12.6c1.9,4.5,3.8,9,4.5,13.8c0.9,1,2.3,0.5,2.9,1.6
		c-1.1,0.6-2-0.7-2.6-0.4c-1.5,1.5,0.2,2.9-0.4,4.1c-0.7,1.4-0.6,2.9-0.7,4.4c-0.1,1.6,0.2,3.2-1.2,4.8c-0.8,0.9-0.9,2.8-0.2,4.4
		c2.7-1.4,5.4-2.6,6.9-5.4c1.6-3.2,4.3-5.9,4.6-9.3c-0.7-1.3-2.3-0.2-2.7-1.8c2.7-0.6,5.3-1,8.1-0.7c5.4,0.7,11,0.6,16.6-0.2
		c2.3,1.4,4.2,3.2,5.2,6c1.1,2.8,2.4,5.4,4.6,7.6c2.8,2.7,4.6,2.8,7.5,0c1.5-1.4,2.9-2.4,5.1-2.2c2.2,0.2,2.4-0.2,2.9-2.8
		c-0.9-0.9-2.7-0.9-2.9-2.5c0.2-0.8,0.8-0.8,1.6-0.7c1.7,1.4,3,3.7,5.8,3.8c1-0.8,2-1.6,3-2.5c-2-2.1-2.4-3.3-1.3-4.5
		c0.6-0.6,1.3-0.9,2.2-0.2c-0.2,0.5-0.3,1-0.5,1.8c2,0.9,1.3,4.4,4,4.5c1.6-0.3,2.1-1.3,2.6-2.1c1.5-2.3,3-4.6,4.4-6.9
		c2.2-3.6,3.2-4,7.7-3.3c4.2-2.7,6.5-7.9,11.3-10.1c0.3-0.9-1.1-1.7,0.1-2.6c2.1,3.2,5.1,5.3,8.2,7.2c2,1.2,2.6,1.1,4.5-0.2
		c-3,0-5.2-1.4-7.1-3.2c-3-2.9-6.7-5.2-9.2-8.7c-0.2-0.2-0.5-0.4-0.9-0.3c-0.8,0.7,1,1.4,0,2.1c-2.8-1-3.9-3.3-4.6-6.1
		c-3,0.7-5.4-0.5-7.8-1.4c-4.1-1.5-8.3-2.8-12.6-3.5c-3.7-0.7-7.3-0.4-10.5,1.2c-1.3,1.2-1.4,2.9-2.5,4c-1.3-1.2,0.4-2.7-0.9-3.7
		c-0.9-0.7-1.8,1.4-2.8-0.2c1.5-3.8,4.9-6.4,7.2-10.3c-1.3,0.2-1.2,1.4-2.1,1.2c-0.6-2.5,0.2-5.2-1.3-7.5c-2.1-0.2-4-0.4-5.9-0.5
		c-3.5-0.1-5.6,1.8-6.2,5.2c-0.2,1.4-0.1,2.9-0.7,4c-1.3,2.6-0.7,5.1-0.5,7.2c0.6,1.2,1.9,0.6,2,1.6c-0.1,0.9-1.1,0.8-1.4,1.5
		L809.7,145.1z M436.9,295.7c0.6-1.4,1.7-2.7,1.7-4.8c-2.9,0.7-5.6,0.2-8.1-0.9c-0.8-0.3-1.6-0.1-2.4,0c-3.2,0.4-6.4,0.8-9.6,1.2
		c-3.8,0.5-7.6,1-11.3,2.6c1.2,1.8,3,2.8,3.6,4.9c-3.1,7-2.6,14.5-2.5,21.9c0.1,4.4,2.1,7.7,6.7,8.9c1,0.3,2,0.7,2.9,1
		c5.4,1.9,10.8,0.6,16.2,0.4c2.5-0.1,4.7-1.8,5.3-5c-3.7-4.2-8.3-8.1-8.2-14.7c-1.7,0.1-3.2,0.6-4.7,0c-1.1-0.5-2-1.2-1.9-2.5
		c0.1-1.2,1-1.8,2.1-1.9c1.2-0.2,2.5-0.2,3.8-0.3c0.6,0,1.1-0.2,1.2-1.1c-2.7-0.8-6.7,2.4-8.3-2.2c0.7-2.8,3.3-2.4,5.3-3.3
		c-3.6-1.5-3.6-1.5-4.6-3.9C428.3,294.4,432.4,295.6,436.9,295.7z M813.2,348.6c-1.8-5.2-1.4-10.4-0.9-15.5c-1-1.3-2-2.1-3.1-2.2
		c-5.1,5-4.5,10.9-3.6,17c1,1.4,2.8,2.5,3.2,5c-3.5-2.7-5.8-5.3-5.5-9.6c0.2-2.6,0-5.3,0-7.8c2.9-1.1,3.1-3.9,4.5-6.5
		c-4.7-0.8-8.9,0.4-13,0c-1.3,3-2.8,5.4-4.3,7.6c-0.3,6.6-0.8,13,3.6,18.5c0.1,0.2,0.3,0.3,0.6,0.7c2.4-1.2,5-0.8,7.6-1
		c2.4-0.2,5-1.3,7.2,0.9C810.3,353.4,811.7,351,813.2,348.6z M549.9,290.4c3.8-1.9,7.3-3.8,10.9-5.5c3.5-1.7,6.8-3.9,9.8-6.4
		s5.9-5,8.9-7.6c-0.1,0-0.1-0.1-0.2-0.1c-10.4,5.8-20.9,11.7-31.3,17.5C548.2,289.3,549,289.8,549.9,290.4z M622.8,186
		c-0.8-0.8-1.5,0.9-2.2-0.3c0.5-1.1,1.9-1.6,2.4-3c0-1,0.3-2.2-0.1-3.4c-0.6,0-1,0.3-1.2,0.7c0,0.7,0.9,1.1,0.3,2.4
		c-0.3,1.7-2.6-0.3-3.6,1c-0.8,1.9,1,3.2,1,5c1.5-0.1,2.6-0.8,3.7-1.1C623.1,186.9,623.2,186.5,622.8,186z M762.7,339.7
		c-1.4,2.1-1.4,2.1-1.2,2.4c1.2,2.4,3.7,2.7,5.9,3.6c0-1.5,0.4-2.9-0.7-4.1C765.4,341.3,763.8,341.3,762.7,339.7z M618.5,177.7
		c-0.1,1.4-0.5,2.7,0.2,4.8c1-2.2,2.8-3.3,2.2-5.5c0.7-0.7,2.3-0.5,2.5-2.5C621.5,175.5,620.1,176.4,618.5,177.7z M619.3,172.2
		c-0.5,1.1-0.6,2.1-0.1,3.4c1.8-1.7,3.4-3.1,5.3-5C622.2,170.8,620.8,171.5,619.3,172.2z M845,114.5c1.4,1.1,0.5,2.8,2,3.7
		c0.6-1.3,1.1-2.5,1.6-3.7C847.5,114.2,846.7,114.3,845,114.5z M863.6,150c0.2-0.1,0.4-0.3,0.7-0.4c-0.4-2.2-2-3.4-4.2-4.2
		C861.2,146.9,862.4,148.4,863.6,150z M844.6,140.6c2.1,1.2,3.8,2.1,6.5,2.5C849,141.3,847.4,139.9,844.6,140.6z M850.1,122.6
		c-0.8-0.5-1.6-0.7-2.5-0.3c-0.4,0.2-0.6,0.6-0.6,1.3c0.7,0.4,1.2,1.2,2.2,1.1C849.7,124.1,850.2,123.6,850.1,122.6z M855.4,135.4
		c-0.3-1.4,1.3-3.2-1.1-4.8C854.8,132.5,853.1,134.2,855.4,135.4z M630.4,217.6c0.3,1.3,0.7,2.1,1.5,2.5c0.8-0.3,1.7-0.4,1.8-1.7
		C632.8,218.2,631.8,217.9,630.4,217.6z M624.2,168.1c-4.1,0.6-4.1,0.6-4.8,2.8C620.9,170,622.4,169.1,624.2,168.1z M827.4,112.6
		c-1.4-1.2-2.3-1.1-3.4,0.1C825.1,113.6,826,113.9,827.4,112.6z M832.1,116.5c-1.8,2.4-1.9,3.3-0.4,4.6
		C831.6,119.4,831.7,117.9,832.1,116.5z M857,143.4c-1.3-0.9-2.7-1.8-4.9-1.8C853.8,143.1,855.3,143.4,857,143.4z M824.6,125.3
		c-0.6,1.3-0.6,2,0.6,2.6C826.3,126.9,826,126.2,824.6,125.3z M628.9,214.7c0.8-0.1,1.5-0.4,1.9-1.2c-0.9-0.5-1.8-1-2.9-0.6
		C628,213.8,628.4,214.3,628.9,214.7z M856.4,141.1c1.8-0.3,2.1-0.7,2-3.2C857.7,139,857.2,139.8,856.4,141.1z M818.5,113.7
		c1.2,0.5,2,0.4,2.6-0.6C820,112.3,819.3,112.6,818.5,113.7z M857.4,111.4c-0.6-0.7-0.7-2.2-2.3-1.8
		C855.3,111.1,856.6,111,857.4,111.4z M812.5,124.9c-0.6-0.3-1-0.3-1.3,0.1s-0.9,0.7-0.4,1.4C811.7,126.2,812.4,125.8,812.5,124.9z
		 M811.1,120.9c1.3,0,2.1-0.1,2.5-1.4C812.5,119.3,811.8,119.7,811.1,120.9z M840.3,109.3c1.3,1,2,0.6,2.7-0.2
		C842.2,108.5,841.4,108.6,840.3,109.3z M878.1,153.6c1.1,1,1.1,1,2,0.2C879.5,153,878.8,153.1,878.1,153.6z M870.4,134.5
		c-0.9,0.4-1,0.9-0.8,1.5c0.6,0.4,1.2,0.7,1.7,0C871.3,135.3,871,134.9,870.4,134.5z M826.5,119.6c-1.2,0-1.7,0.3-1.7,1.2
		C825.9,121.1,826.3,120.7,826.5,119.6z M837.1,131.1c-0.6-1.1-1.1-0.9-1.7,0C836,131.9,836.5,132,837.1,131.1z M860.3,148.6
		c-0.3-1-0.6-1.5-1.5-1.7C858.8,147.9,859.1,148.3,860.3,148.6z M833.4,133.8c-0.8-0.4-1.3-0.5-1.7,0.3
		C832.4,134.8,832.8,134.6,833.4,133.8z M838.3,139.9c0.8,0.4,1.4,0.8,2.2,0C839.8,139.6,839.5,138.5,838.3,139.9z M759.6,343.4
		c-0.6-1,0.1-1.7-0.8-2.1C758.5,341.9,758.1,342.5,759.6,343.4z M634.1,224c0.9,1.1,0.9,1.1,1.8-0.2
		C635.3,223.7,634.7,223.4,634.1,224z M354.3,344.9c-0.1,1.2,0.7,1.1,1.6,1.7C355.4,345.6,355.5,344.8,354.3,344.9z M841.1,134.2
		c-0.6-0.8-0.6-0.8-2-0.2C840.1,134.2,840.5,134.9,841.1,134.2z M849,108.4c-0.7-0.5-1.1-0.6-1.5,0.1c-0.1,0.1,0.1,0.5,0.2,0.6
		C848.3,109.6,848.6,109.2,849,108.4z M837.1,106.4c0.6,0.6,1.2,0.5,1.8,0C838.2,105.7,837.7,105.6,837.1,106.4z M434.8,298.6
		c-0.6,0.5-1.4,0.1-1.1,1.4C434.3,300,434.7,299.8,434.8,298.6z M872.1,143.5c-0.2-0.8-0.4-1.2-1.3-0.8
		C871.1,143.2,871.2,143.6,872.1,143.5z M623.4,191.4c-0.7,0.1-0.9,0.4-0.9,0.9c0.3,0.1,0.6,0.3,0.8,0.4
		C623.7,192.4,623.9,192,623.4,191.4z M631.8,165.3c0.5,0.1,1,0,0.9-0.6C632.4,164.9,632.1,165.1,631.8,165.3z"/>
	<path d="M744.2,203c0.2-0.8,0.6-1.4,1.3-1.9c4.9-3.7,8.7-8.4,12.7-13.1c1.6-1.8,2.5-3.9,2.6-6.2c0.1-4.7,0.3-9.4-0.5-13.9
		c-1.1-1.7-3.4-1.6-4.4-3.2c1.1-1.5,2.2,0.1,3.5-0.4c-0.9-2.6-1.8-5.1-3.3-7.3c-5.7-8-13.4-13.4-22.1-17.5c-2.7-1.3-5.6-1-8.4,0
		c-5,1.8-9.1,4.7-12.9,8.7c0.4,1,0.2,2.1-0.4,3.3c-3.9,7.8-5.8,16.1-6.4,24.8c-0.3,4.4-1.1,8.6-2.5,12.9c-3.2,10.2-4.3,20.8-2,32.1
		c1,0.8,1.4,2.5,1.8,4.3c1.4,5.9,3.3,11.7,5.3,17.4c0.3,1,0.8,1.9,0.8,3c0,3.6,0,7.3,0.2,10.9c0.2,3.2-0.6,6.6-1.2,9.9
		c-2,10.1,0.3,19.6,3.3,29c0.3,1.1,0.6,2.2,1.1,3.2c4.2,8.3,5.2,17.5,6.5,26.5c0.8,5.4,1.7,10.6,3.7,15.6c0.1,0.2-0.1,0.4-0.2,0.8
		c-1.2,0.7-1.9-0.1-2.3-1.1c-0.9-1.9-1.2-3.9-1.7-5.9c-2.4-10.7-3.7-21.7-6.9-32.2c-1.3-4.4-3.1-8.6-4.1-13.1
		c-1.3-5.7-1.8-11.4-1.3-17.3c0.5-6.1,0.8-12.3,0-18.4c-0.3-2-0.6-4.1-0.2-6.2c0.1-1-0.2-1.8-0.5-2.7c-2.1-5.7-3.5-11.6-4.9-17.5
		c-0.2-1-0.6-2-0.9-2.9c-3.8-10.2-3.7-20.5,0-30.6c1.4-3.9,1.9-8,4.2-11.8c-3.4-0.3-6.4-0.6-9.4-0.9c-1.2,2.6-2.4,5.2-3.6,7.8
		c-0.8,1.7-0.2,3.1,0.6,4.5c1.1,1.8,2.6,3.2,4.2,4.5c0.6,0.5,1.4,0.9,0.8,1.9c-6.3-0.5-10.7-7.2-8.5-13.1c1.1-3,1.1-3,0.8-6.3
		c-1.1-1-2.6-0.7-4.2-1.2c1.7-0.4,3.1-0.7,4.4-1.1c0.9-1.5,0.6-3.2,1.1-4.7c2.9-10.8,9.3-19.3,17.9-26.2c1.7-1.4,4-1.7,5.4-3.5
		c0.5-0.6,1.3-1,1.2-1.9c0.7-0.1,1.2-0.2,1.7-0.4s0.9-0.7,1.5-0.9c5.3-2.8,10.4-4.4,16.7-2.3c9.2,3,16.6,7.9,21.9,16.1
		c1.5,2.4,3.5,4.5,4.6,7.2c1.7,4.1,1.5,8.3,1.6,12.5c0.1,3.1,1.3,5.8,1.9,9.3c-0.7,3.4-2.5,6.8-5.4,9.6c-4.4,4.2-9.9,6.9-15.1,10
		L744.2,203z M703.7,179.4c-0.6-9.5,0.7-18.1,5.2-26.2c-6.1,7.7-12,15.4-15.5,24.9C696.7,178.5,699.9,178.9,703.7,179.4z
		 M690.9,185.8c-0.2,0.5-0.7,1.1,0.2,1.5C691.4,186.7,691.4,186.2,690.9,185.8z"/>
	<path d="M541.9,531c2.8-1.5,4.5-3.8,4.4-6.8c0.5-0.9,1.2-1.1,1.9-1.2c3.2-0.5,5.3-2.6,6.7-5.3c1.8-3.3,3.6-6.6,5.9-9.6
		c4.2-5.4,10-9.1,14.2-13.3c1.6-0.8,1.8,0.3,2.9,0.6c14-9.4,30.1-9.4,46.3-8.9c0.3,1.4-0.5,1.6-1.1,1.7c-1,0.2-2.1,0.3-3.1,0.3
		c-11.7-0.6-23,1.9-34.2,4.8c-1.3,0.3-2.7,0.7-3.9,1.2c-3.9,1.4-7.4,3.3-10.4,6.4c-4.1,4.2-7.8,8.7-11,13.6
		c-2.1,3.2-5.1,5.6-7.4,8.5c-1.1,1.3-2.8,0.9-4.2,2c-0.8,2.8-0.2,5.9-1.1,8.9c-0.7-1.4-0.3-2.9-0.8-4.5c-1.7,0.3-2.9,1.6-4.4,2.6
		C542.3,531.4,542.1,531.1,541.9,531L541.9,531z"/>
	<path d="M548.7,199.6c-0.3,2.8-0.1,5.7-1,8.9c-0.2-1.8-0.4-3.2-0.6-4.7c-2,0.1-2.9,1.8-4.6,2.3c1.6-2.5,4.5-4.3,3.8-7.6
		c0.5-0.4,0.7-0.7,0.9-0.7c4.1-0.7,6.7-3.2,8.4-6.8c3-6.3,7.3-11.6,12.8-15.9c2.6-2,5-4.4,7.2-6.3c1.1-0.1,1.3,0.5,1.9,1
		c7.2-3.9,14.6-7.4,23-8.2c7.8-0.7,15.5-1.3,23.3-0.8c0.3,0,0.5,0.4,0.7,0.5c-0.1,1.1-0.8,1.2-1.5,1.3c-1.2,0.1-2.5,0.4-3.8,0.3
		c-10.1-0.5-19.8,1.5-29.5,3.8c-2.4,0.6-4.9,1.2-7.3,2c-4,1.4-7.6,3.3-10.7,6.4c-4.2,4.3-8,8.8-11.2,13.9c-2.1,3.2-5.1,5.6-7.5,8.5
		C551.9,198.7,550,198.1,548.7,199.6z"/>
	<path d="M541.9,530.9c-2,0.4-3.4,1.8-4.9,2.9c-6.9,5.1-13.7,10.3-21.3,14.5c-5.8,3.2-11.6,6.4-17.1,10.2c-3.6,2.5-8,3.1-11.7,5.2
		c-1.5-1.3-0.9-2.2,0.1-2.6c1.9-0.8,3.6-2.1,5.6-2.5c1.6-0.3,3.1-1.1,4.4-2c6.2-4.5,13.2-7.9,19.8-11.8c5.2-3,10.2-6.2,15-9.7
		c2.9-2.1,5.8-4,9-5.5C541.7,529.8,541.5,530.6,541.9,530.9L541.9,530.9z"/>
	<path d="M541.6,204.1c-0.2,1-0.5,1.3-0.9,1.6c-10.8,7.8-21.4,15.8-33.3,21.8c-1.9,1-3.8,2.2-5.6,3.4c-1.7,1.1-3.3,2.5-5.2,3.3
		c-3.3,1.3-6.6,2.4-9.6,4.1c-1.4-1.2-1-2.2,0.1-2.6c1.8-0.8,3.4-2,5.3-2.4c1.7-0.4,3.3-1.1,4.7-2.1c6.4-4.6,13.3-8,20.1-11.9
		c5.8-3.3,11.2-7.1,16.7-10.9C536.1,206.8,538.4,205,541.6,204.1z"/>
	<path d="M694.8,210.6c1.1,1.5,0.3,2.1-0.3,2.8c-1.6,1.7-3.7,2.7-5.9,3.3c-2.9,0.8-5.9,1.2-8.8,0.9c-2.4-0.2-4.6,0.1-7,1.1
		c-3.6,1.4-7.5,2.1-11.2,3.2c-3.3,1-6.5,2.1-9.8,3.1c-1.9,0.6-3.9,1.2-6.2,0.1c1.6-1.7,3.5-2.1,5.3-2.7c7.4-2.7,15.2-4.3,22.9-6
		c4.6-1,9.1-2,13.8-2.7C690.1,213.2,692.5,212.1,694.8,210.6z"/>
	<path d="M699,366.4c2.6,2.6,4.8,5.4,6.7,8.3c4,1.2,7.9,1.1,12.3,0.4c-1.8-3.3-3.6-6.4-4.3-10.6c2.3,1.6,2.5,3.7,3.5,5.3
		c1,1.6,1.9,3.3,2.9,5c1.8-0.4,2.6-1.3,3-3c0.5-2.1,0.7-4.5,2.3-6.4c0.4,2.6-0.7,7.7-2.1,10.6c-2.1-0.5-4.1-0.1-6.1,0.6
		c-1.7,0.6-3.3,0.8-5,0.9c-4.1,0.1-8-0.3-10.3-4.6c-0.8-1.5-2-2.8-3.1-4.1C698.1,368.2,698,367.5,699,366.4z"/>
	<path d="M721,253.5c0.8,0.2,1.3,0.6,1.5,1.3c1.7,5,5.7,9,6.4,14.4c-1.4-1.3-2.7-2.7-2.8-4.5c-0.8-0.9-1.8-0.9-2.6-1.3
		c-2.7-1.3-4.4-4.3-4.2-7.3C719.4,254.9,719.7,253.8,721,253.5z"/>
	<path d="M614.8,542.6c-2,1.8-4.7,2.2-6.8,3.8c-3.3,2.5-6.5,5.1-9.2,8.3c-2.3,2.7-5.2,4.4-9.4,4.9c0.8-0.5,1.2-0.8,1.6-1
		c0.4-0.2,0.8-0.3,1.3-0.5c2-0.9,3.9-2.1,5.3-3.7c3.5-4,7.7-7.2,11.9-10.4c4-3,8.3-5.7,11.6-9.6c0.1-0.1,0.4,0,0.9,0
		c-0.2,1.4-1.4,2-2.2,2.9c-1.6,1.8-3.9,2.7-5.3,4.8C614.4,542.3,614.5,542.5,614.8,542.6z"/>
	<path d="M614.3,217.5c-6.3,2.9-11.5,7.3-16.2,12.4c-2.5,2.7-4.4,3.6-7.8,3.7c4.4-1.3,7.2-4.6,10.2-7.8c3.3-3.4,7.2-6,11-8.8
		c3.4-2.5,6.9-4.9,9.6-8.2c0.1-0.1,0.4,0,0.8,0c0,1.3-1.1,1.9-1.8,2.7c-1.2,1.5-3.2,2.2-4.1,4l0.1-0.1
		C615.1,215.6,614,215.9,614.3,217.5z"/>
	<path d="M575.7,565.8c-9.2,6.2-18.6,12.3-29.3,15.8C556.6,577.1,565.8,570.8,575.7,565.8z"/>
	<path d="M334.6,337.5c-0.8-1.5-1.4-2.5-1.8-3.5c-0.8-2,0.1-4,2-4.9c1.9-0.8,4,0,5,1.8c1,2,0.3,4.2-1.6,5.3
		C337.1,336.9,335.7,336.3,334.6,337.5z M336.6,335c1.8-0.7,2.6-1.7,2-3.3c-0.4-1.1-1.5-1.5-2.6-1.1c-1.5,0.4-2.3,1.3-1.9,2.9
		c0.8,0.6,1.5-0.9,2.2,0C336.4,333.9,336.5,334.4,336.6,335z"/>
	<path d="M333.1,661.6c-0.5-1-1.1-2-1.5-3c-0.9-2.1,0.1-4.3,2.1-5.1s4.3,0.3,5,2.3c0.7,2.1-0.2,4.3-2.3,5
		C335.3,661.2,334.2,661.4,333.1,661.6z M332.8,658.3c0.8-0.3,1.3-0.5,1.7-0.6c0.9,0.3,0.1,1.4,1,1.7c1.4-0.6,2.3-1.5,1.7-3.1
		c-0.3-1-1.1-1.4-2.2-1.3C333.7,655.1,333.1,655.9,332.8,658.3z"/>
	<path d="M738.6,150.1c2.8,3.9,3.4,12.8,1,16.7C739.8,160.8,738.1,155.6,738.6,150.1z"/>
	<path d="M726.6,294.8c-2.3-7.3-2.2-21,0-24.9c0.9,2.9-0.3,5.6-0.3,8.2c0,2.9-0.5,5.7-0.2,8.6C726.4,289.3,726.4,292.1,726.6,294.8z
		"/>
	<path d="M573.6,241.6c-0.2,0.3-0.3,0.6-0.6,0.8c-8,5-15.9,10-24.7,13.4c-0.4,0.2-0.9,0.3-1.3-0.1c0.1-0.1,0.1-0.2,0.2-0.2
		c9-3.8,17.1-9.2,25.6-13.9c0.2-0.1,0.4-0.1,0.7-0.1L573.6,241.6z"/>
	<path d="M754,186.4c1.8-5,2.4-10.1,2.2-15.2c2.6,4,2,8.2,0.8,12.4C756.4,185.7,756.1,185.9,754,186.4z"/>
	<path d="M332.1,645c2.1,0,3.9,1.8,3.9,3.9c0,2.1-1.7,3.9-3.8,3.9c-2.1,0-3.8-1.8-3.9-3.9C328.2,646.8,329.9,645,332.1,645z
		 M332.4,646.7c-1.3,0-2.5,1-2.6,2.2s0.9,2.2,2,2.3c1.4,0.1,2.8-1.1,2.8-2.4C334.6,647.6,333.6,646.7,332.4,646.7z"/>
	<path d="M333.6,320.6c2.1,0.1,3.8,1.9,3.8,4s-1.8,3.8-4,3.8c-2.1-0.1-3.8-1.9-3.8-4C329.7,322.2,331.4,320.5,333.6,320.6z
		 M335.9,324.2c-0.1-1.2-1.1-2-2.3-2c-1.3,0.1-2.5,1.1-2.5,2.3c0,1.3,1.2,2.4,2.5,2.2C334.9,326.6,336,325.4,335.9,324.2z"/>
	<path d="M333.4,313.2c0.6,1.8,1.6,3.2,1.2,5c-1.8,1.5-1.8,1.5-4.2,1.1c-0.8,0.2-0.9,1.3-1.8,1.4c-1.1-1.6,1.1-2.4,0.9-3.1
		c-0.5-2.2-2.5-0.1-2.9-2.1C328.7,314.5,330.9,313.7,333.4,313.2z M330.7,316.1c0.3,1,0.4,2.2,2.2,2.2c0.6-1.3,0.4-2.2-0.5-3
		C331.7,315.3,331.1,315.3,330.7,316.1z"/>
	<path d="M333.2,643c-2,1.2-2,1.2-4.7,0.8c-0.2,0.4-0.6,1.1-1.1,2.2c-0.3-1-0.5-1.3-0.5-1.6c0-1.1,1.4-1.8,1.2-2.6
		c-0.7-1.7-2.2,0.1-2.9-1.5c1.8-1.6,4.2-1.7,6.5-2.7C332.7,639.3,333.5,640.9,333.2,643z M329.4,639.9c0.4,1.8,0.4,1.8,1.7,2.8
		c1.4-1.1,0.7-2.1,0.1-3.2C330.5,639.7,330.1,639.8,329.4,639.9z"/>
	<path d="M731.6,205.7c-0.6,0.7-1.3,0.4-1.8-0.1c-3-2.7-5.3-5.8-6.6-9.8C726,197,730.7,202.6,731.6,205.7z"/>
	<path d="M673.6,178.4c2.8-0.9,5.7-1.4,8.6,0.4c-0.9,2.2-1.7,4.4-2.8,6.9c-0.5-2.5-0.5-2.5,0.5-5.6c-3.6-2.2-8-0.4-12.1-2.1
		C670,176.8,671.6,178.2,673.6,178.4z"/>
	<path d="M730.7,323.8c-1.9-2.8-4-15.6-3.5-20.7C728.4,309.8,730,316.5,730.7,323.8z"/>
	<path d="M659.8,213.8c-5,2-10,4-15.2,5.3c-0.7-1.5,0.3-1.8,1-2C650.2,215.8,654.9,214.5,659.8,213.8z"/>
	<path d="M745.6,330.4c-0.2-0.6,0.2-1.1,0.4-1.6c0.3-0.5,0.5-1,0.8-1.7c-1.7-0.7-3.8,0.5-5.4-1.5c3.3-0.8,6.3-1.5,9.8-1.2
		c-0.4,2.1-2.3,1.8-3.1,3C747.5,328.5,747,329.9,745.6,330.4L745.6,330.4z"/>
	<path d="M709.8,210.4c1.8,3,2.5,6.4,5.3,9.3c-3.4-0.3-4.5-2.4-5.5-4.5C708.4,213,708.5,212.4,709.8,210.4z"/>
	<path d="M614.2,172.6c-3.2-2.8-7.6-1.7-10.9-3.8c3-0.5,6,0,9,0.6c1,0.2,2,0.6,2.5,1.6C615,171.6,614.8,172.2,614.2,172.6z"/>
	<path d="M614.8,497.8c-0.1,0-0.3,0.1-0.3,0.1c-3.1-2-6.8-1.8-10.1-3.1c-0.2-0.1-0.3-0.3-0.5-0.5l-0.1,0.1c3-0.4,5.9-0.2,8.9,0.6
		C614.1,495.4,615.2,496.1,614.8,497.8L614.8,497.8z"/>
	<path d="M727,228.5c-1.2-0.2-1.6-1.2-2.2-2c-0.5-0.7-0.7-1.7-1.5-2.3c-1.9-0.9-4.8-0.5-5.4-3.9c3,0.1,4,3.4,6.6,3.3
		C725.6,225.2,726.8,226.6,727,228.5L727,228.5z"/>
	<path d="M781.4,360.5c-0.1,4.5,0,8.4,0.7,12.2C779.7,369.8,779.3,364,781.4,360.5z"/>
	<path d="M637,214.5c2.6-1.2,4.8-2.3,7.4-3.4C642.1,215.1,639.6,216.3,637,214.5z"/>
	<path d="M727,228.5c0.1,0,0.3,0,0.3,0c1.3,2.1,1.9,7.7,1,9.9C727.4,236.2,726.7,231.1,727,228.5L727,228.5z"/>
	<path d="M768.9,354.3c3.2-1.4,6.4-2,9.6-0.5C775.3,354.4,772.1,354,768.9,354.3z"/>
	<path d="M768.7,371.4c3.9-1.1,7-1.5,10.4-1.2C777.1,371.7,775.7,371.9,768.7,371.4z"/>
	<path d="M541.8,258.8c-2.5,2.8-4.7,5.9-7.9,8.1C536.6,264.1,537.9,260.2,541.8,258.8L541.8,258.8z"/>
	<path d="M614.2,205.3c-1.9,2.7-5,3-7.8,3.7C608.6,207.1,611.7,206.8,614.2,205.3z"/>
	<path d="M739,169.2c0.5,2.5,0.3,3.3-1.4,7.6C737.3,173.2,737.6,171.4,739,169.2z"/>
	<path d="M605.6,534.4c3.2-1.6,6-2.3,8.6-4C613.2,532.8,610.2,534.2,605.6,534.4z"/>
	<path d="M710.5,364.1c-2.3,1.1-4.6,0.9-7.2,0.1C705.8,363.3,707.3,363.3,710.5,364.1z"/>
	<path d="M759.6,251.5c1.5-1.6,3-3.3,4.6-5C764.9,248.7,764.1,249.7,759.6,251.5z"/>
	<path d="M765.8,274.5c1,2.8,1.2,5.7,0.3,8.5C765.1,280.2,765.5,277.3,765.8,274.5z"/>
	<path d="M741.5,364.2c1.1-2,3.3-1.7,5.3-3.1c-0.2,2.1-1.3,2.6-2.4,2.8C743.5,364.1,742.4,364,741.5,364.2L741.5,364.2z"/>
	<path d="M615.2,226.2c1.1-1.3,2.4-2.1,3.9-2.4c1.1,1.2-0.1,1.7-0.4,2.8C617.5,225.4,616.4,225.9,615.2,226.2z"/>
	<path d="M533.3,592.4c1.6-1.7,3.2-3.4,4.7-5.1c0.2,0.2,0.3,0.3,0.5,0.5C537.2,589.7,535.9,591.7,533.3,592.4z"/>
	<path d="M753.4,249.5c-1.6-0.7-3.3-1.4-3.8-3.9C752.1,246.1,752.6,247.9,753.4,249.5z"/>
	<path d="M619.4,549.7c0.5,1.1-0.5,1.5-0.8,2.1c-0.9,0.3-0.7-0.6-0.6-0.6c-1.4,0-1.9,0.9-2.7,0.7C616.7,550,616.9,549.9,619.4,549.7
		z"/>
	<path d="M744.1,202.9c0.4,0.7,0.3,1.3-0.2,1.8c-1,1-2,1.9-3.2,2.7c0.7-1.8,1.6-3.6,3.6-4.5H744.1z"/>
	<path d="M734.6,126.3c-2.3,0.2-4.4,1-6.7,0.7C730.8,125.9,730.8,125.9,734.6,126.3z"/>
	<path d="M614.8,542.6c-0.3-0.1-0.4-0.3-0.2-0.6c1.1,0,1.8-0.8,2.7-1.3c0.7-0.4,1.5-0.6,2.3,0.3
		C618.3,542.6,616.4,542.3,614.8,542.6z"/>
	<path d="M721.6,250.7c-0.4-2.3,1.2-2.9,2.1-4.2C723.8,249.2,723.8,249.3,721.6,250.7z"/>
	<path d="M616.1,215.5c1.1,0.4,2.2-1.5,3.4,0.1c-0.9,1.8-3,0.8-4.3,1.6C615.5,216.6,615.8,216,616.1,215.5L616.1,215.5z"/>
	<path d="M612,201.8c0.8-1.8,2.5-2.3,3.4-3.6c0.9,0.7,0.8,1.2,0.2,1.5C614.5,200.5,613.2,201.2,612,201.8z"/>
	<path d="M651.4,201.4c-0.6,1.3-1.3,2.2-2.3,3C648.7,202.1,648.7,202.1,651.4,201.4z"/>
	<path d="M716.3,293.5c-0.3-1.4-0.4-2.6-0.1-4.1C717.3,291.7,717.3,291.7,716.3,293.5z"/>
	<path d="M665,212.5c1.4-0.8,2.8-0.5,4.8-0.4C667.8,213.2,666.4,213.3,665,212.5z"/>
	<path d="M532.4,239.1c-1.4,1.1-3.2,1.5-4.9,1.7C528.8,239.5,530.5,239.3,532.4,239.1z"/>
	<path d="M550.6,527.3c2.3-0.1,2.7,1.2,3.6,2.7C552.4,529.6,551.6,528.9,550.6,527.3z"/>
	<path d="M526.5,566.4c1.6-0.9,3.2-1.6,5.6-1.7C530.1,565.9,528.4,566.4,526.5,566.4z"/>
	<path d="M551.1,202.1c1.7-0.4,2.2,0.8,3,2.1C552.3,204.3,551.7,203.2,551.1,202.1z"/>
	<path d="M758.6,336.5c0,0.3-0.1,0.7-0.1,1.3c-1.4-0.4-2.5-0.9-3.1-2.4c1.6-0.8,2.1,1.3,3.3,1.2L758.6,336.5z"/>
	<path d="M742.4,349.6c1.5,1.7,1.5,1.7,1.3,3.4C742.6,352.3,742.3,351.3,742.4,349.6z"/>
	<path d="M645.2,209.4c-0.2-2,1.1-2.5,2.5-3.6C647.5,207.7,646.9,208.7,645.2,209.4z"/>
	<path d="M669.5,189.6c0.8,1.3,0.3,2.3,0.2,3.3C668.7,191.4,668.7,191.4,669.5,189.6z"/>
	<path d="M730.2,271.1c1.6,1.2,0.2,2.1-0.1,3.1C729.9,273.2,728.6,272.2,730.2,271.1z"/>
	<path d="M541,585.4c0.6-1.5,1.8-2.4,3.5-2.4C543.3,583.7,542.1,584.5,541,585.4z"/>
	<path d="M758.7,336.6c0.1-0.9-0.4-2,0.5-2.8C760.1,335.4,760.1,335.4,758.7,336.6L758.7,336.6z"/>
	<path d="M751.1,161.3c0.7,0.1,1,0.3,1.2,0.7c0.2,0.6,0.8,1.1,0.3,2C751.5,163.4,750.9,162.7,751.1,161.3z"/>
	<path d="M678,210.2c-1.1,1-2.2,1.1-4.1,1.1C675.6,210.4,676.6,209.7,678,210.2z"/>
	<path d="M541.9,258.8c0.5-1.5,2-1.4,3-2C544.1,257.8,543.2,258.6,541.9,258.8L541.9,258.8z"/>
	<path d="M723.2,319.8c-1.1-0.6-0.9-1.6-1-2.6c0.8,0,0.8,0.6,1,1C723.6,318.7,723.6,319.2,723.2,319.8z"/>
	<path d="M759.6,325.8c0.8,1.3,1.2,2.1,0.7,3.4C758.9,328.4,759.3,327.3,759.6,325.8z"/>
	<path d="M735.6,147.9c-1.3-0.3-1.9-0.7-2.5-2.1C734.3,146.6,735.1,146.8,735.6,147.9z"/>
	<path d="M735.6,358.8c-1.3-0.7-1.1-1.4-0.7-2.2C736.1,356.9,736.1,357.7,735.6,358.8z"/>
	<path d="M615.5,238.1c0.1,1.2-0.4,2.1-1.2,3.3C614.1,239.9,614.5,238.9,615.5,238.1L615.5,238.1z"/>
	<path fill="none" d="M616.3,215.4c-0.3,0.6-0.6,1.2-0.9,1.8c-0.3,0.1-0.7,0.2-1,0.3C614,215.9,615.1,215.6,616.3,215.4z"/>
	<path d="M679.1,194.6c0.5,1.5,0.1,2.1-0.7,2.6C677.8,196.2,678,195.5,679.1,194.6z"/>
	<path d="M717.5,191.5c-1.4-0.4-2.2-0.7-2.5-2.1C716.2,189.7,716.8,190.2,717.5,191.5z"/>
	<path d="M678.5,191.8c-0.5-0.9-0.9-1.8,0.2-2.8C679.6,190.2,678.6,191,678.5,191.8z"/>
	<path d="M661.2,177.3c-0.9,0.2-1.6,0.4-2.1-0.6C659.8,176.3,660.5,176.5,661.2,177.3z"/>
	<path d="M715.1,135.6c-0.5-1-0.6-1.6-0.1-2.2C715.6,134,715.8,134.6,715.1,135.6z"/>
	<path d="M765.7,263.3c0.5,1,0.5,1.6,0.3,2.3C765.3,265.1,765.6,264.4,765.7,263.3z"/>
	<path d="M746.5,357.3c0.9-0.2,1.4,0.3,1.5,1C746.7,359.1,746.9,357.7,746.5,357.3z"/>
	<path d="M718.8,192.6c1.1,0,1.8,0.5,1.7,1.1c-0.1,0.5-0.7-0.1-1.1-0.3C719.2,193.3,719.1,193.1,718.8,192.6z"/>
	<path d="M654.6,175.9c-1.2,0.2-1.8-0.2-2.3-0.9C653.3,174.4,654,174.9,654.6,175.9z"/>
	<path d="M759.1,317.3c-0.6-0.5-0.6-0.9,0.1-1.3C760.1,316.5,760,316.9,759.1,317.3z"/>
	<path d="M719.1,305c-0.3-0.5-0.5-1-0.1-1.6C719.4,303.9,719.5,304.4,719.1,305z"/>
	<path d="M759.7,322.5c-0.4-0.5-0.5-1-0.3-1.4c0.1-0.1,0.5-0.2,0.5-0.2C760.3,321.4,760.5,321.9,759.7,322.5z"/>
	<path d="M603.9,494.4c-0.7-0.1-1.5-0.1-2.4-0.2C602.5,493.8,603.2,493.9,603.9,494.4L603.9,494.4z"/>
	<path d="M743.8,137.9c-0.4-0.7-0.5-1.2,0.2-1.6C744.9,136.8,744.6,137.3,743.8,137.9z"/>
	<path d="M715.4,137.3c0.1,0.1,0.4,0.3,0.4,0.4c0,0.4-0.1,0.6-0.6,0.4c-0.1-0.1-0.3-0.4-0.3-0.5C715,137.5,715.3,137.4,715.4,137.3z
		"/>
	<path d="M573.4,241.5c0.3-0.8,1-0.9,2-1.4c-0.5,1.1-1.1,1.5-1.9,1.5L573.4,241.5z"/>
	<path d="M754.2,166.7c0.5,0.4,0.8,0.7,0.5,1.1c-0.1,0.1-0.5,0.2-0.5,0.2C753.9,167.7,753.8,167.3,754.2,166.7z"/>
	<path fill="none" d="M691.9,498.5c0.1-1.2,0.5-2.4-0.4-3.4c-1.6,0.3-0.5,1.7-1.2,2.2c-2.4,0-4.8,0.1-7.2,0c-5-0.1-5.2-0.1-9.3,3.2
		c-1.5-0.7-0.5-2.2-0.7-3.1c-0.9-0.4-1.1,0.4-1.9,0.5c-3.2-2.1-7.7-2.2-11-5.7c1-6.4,1.2-13.1,1.6-19.9c3.9-3,7.7-6.2,10.8-9.9
		c2.2-2.7,5-4.6,7.6-7.2c3.7,2,8,2.5,12.2,3.6c-2.3,6.9-1.9,13.4,0.8,20.4c-1.5,4.1-2.5,8.7-0.7,13.9c1.3-3.6,2.6-6.8,3.9-10.3
		c3.5,2.4,7.2,2.7,11.1,2.1c0.8-0.1,1.6,0.2,2.4,0.4c9.2,2.1,18,1,26.5-2.9c5.8-2.7,11.5-5.7,16.6-9.7c1.8-1.4,3.1-3.2,4.3-5.2
		c2.1-3.6,3.5-7.4,5.3-11.1c1.2-2.6,1.9-5.4,2.5-8.3c1.6,0.8,2.9,1.6,3.9,2.7c-1.9,4.8-3.7,9.5-5.5,14.2c-2.5,6.3-5.1,12.5-8.4,18.4
		c-0.7,1.2-1.3,2.5-1.3,3.9c0.3,4.2-0.7,8.4,0,12.6s2.2,7.9,4.6,11.3c1.9,2.7,4.6,3.5,7.8,3.1c3.6-0.4,6.5-2.7,10.1-3.6
		c0.7-1.1,1.4-2.2,2.4-3.6c0.3,2.6-0.9,3.9-2.1,5.5c-2.4,3.4-5.1,6.5-8,9.4c-6.7,6.7-14.7,9.4-24.1,8.1c-2.9-0.4-6-0.5-8.9-0.3
		c-6,0.3-11.7-1-17.2-3c-2.9-1.1-5.6-1.1-8.4-0.1c-2.2,0.8-4.6,1.3-6.2,3.4c-0.2,0.3-0.5,0.4-0.9,0.5c-4.8,1.9-9.4,4.2-14.4,5.5
		c2.4-1.9,5.4-2.8,7.7-4.9c1-0.9,2.2-1.7,2.7-3.4c-1.2,0.4-14.9,8.7-15.9,9.6c2.1,0,3.7-1.5,5.7-1.4c-2.4,1.7-5,2.3-7.8,2.7
		c-0.7-1.4,1.5-2.6-0.2-4c-3,3.2-7.1,4.2-11,5.9c-3.7-2.3-5.7-6.4-9-9.2c1.3,4.3,3.7,7.8,7.9,10.5c-2,0.4-3.7,0.7-5.4,1.1
		c-0.1-0.4-0.1-0.8-0.2-1.5c-3.8,0-7.4,0.5-10.7,1.9c0,0.3,0.1,0.5,0.1,0.8c3.6-0.5,7.3-0.9,10.9-1.4c-1.1,0.9-2.3,1.3-3.7,1.6
		c-0.8,0.1-1.7,0.2-2.3,0.7c-2.9,2.5-6.4,2.3-9.8,2.5c-1.6,0.1-3.2,0-4.8,0c-3.7-3.2-7.1-6.6-9.2-10.9c-1.4-2.8-3-5.4-4.7-8.1
		c2.8-1.8,7.4,0.1,9-4.9c-5.5,1.8-10.5,3-15.8,2.9c-2.1-1.7-4.2-3.3-6.3-5.1c-1-5.3-1.8-10.6-1.6-16.5c1.5-2.7,3.8-5.6,5-9
		c4.9-1,12.1-1.2,14.4-0.3c-1.8,3.2-5,5.5-6.1,9.2c2.7-1.8,4.2-4.7,6.7-7.2c-1.3,8.8,0.2,16.9,1.2,25.1c1.1,0.7,1.6-0.2,2.4-0.4
		c1.9,1.6,4.6,2,6.8,3.5c1.9,1.4,3.7,0.3,5.2-1.2c1.1,0.1,2.4-0.1,3.1,0.4c3.8,2.7,7.8,0.6,11.7,0.5c0.9,0,1.7-0.6,2.1-2.1
		c-3.4-1.1-6.6,0.4-10.4,0.4c-2.6-1.3-5.7-2.8-8.7,0.7c-3.3-2-6.7-3.4-10.7-4.1c1.4-3,0.7-5.8,0-8.6c-1.8-8.1-1.1-16.2,2.3-23.6
		c2.5-5.4,1.9-10.7,2-16.1c0-0.5,0-1-0.2-1.3c-1.5-2.4-1.1-5.1-1.2-7.7c-0.3-4.6-0.6-9.2-1-13.7c-0.6-6.1-0.1-12.1,0.6-18.2
		c0.1-0.9,0.3-1.8,0.6-2.7c2.4-6.1,3.8-12.5,5.1-19c1.8-1.1,3.6-2.3,5.5-3.4c0.5-0.3,1.1-0.5,1.6-0.5c3.6,0,7.3-0.6,10.9,0.3
		c5.4,1.4,10.9,1.2,16.4,0.5c1.7-0.2,3.2,0.1,4.6,0.8c4.1,1.9,8.1,3.8,12.1,5.7c4.2,2,7.9,4.7,10.9,8.3c2.8-0.3,5.4,0.8,8.2,0.7
		c7.5-0.1,14.3,2.6,20.8,5.9c1.9,0.9,3.3,2.2,4.4,4.1c1.5,2.7,3.5,5.1,5.3,7.7c6.2,1.1,11.8,3.8,17.4,6.8c0.4,6.7-2.9,12.1-5.5,18
		c-1.9-1.7-2.1-4-3.9-5.5c0.3,2.5,1.6,4.3,2.3,6.7c-11.4,8.7-23.6,15.6-38.4,16.3c-8.6,0.4-16.9-0.8-19.4-3c1.1-4.1,4-7.4,5.4-11.7
		c-1-2.8-0.4-6.1-2.1-8.8c-0.3-0.2-0.5-0.4-0.7-0.4c-6.5-0.2-12.1-3.1-17.9-5.4c-4.3-1.7-7.7-4.4-10.8-7.7c0.1-1.5,0.3-3,0.3-4.5
		c0-1.8,0.3-3.7-1.7-4.9c-0.5-0.3-0.7-1.4-0.9-2.1c-0.5-1.4-0.8-2.9-2.1-4.2c0,3.1,0.4,5.9,2.4,8.4c-1,5.5-2.7,11-4.4,16.5
		c-0.5,1.5-1.5,2.8-2.2,4.3c-2.5,5.4-3.5,11.1-4,17c-0.3,3.4-0.5,6.9,0.1,10.3c0.2,1.1-0.1,2-0.4,3c-0.5,1.4-0.7,2.9-0.5,4.5
		c2.3,2.3,4.8,4.4,8.1,5.4c1.9,0.6,4.1,1.1,4.9,3.6c-0.1,1.1-0.6,2-1.3,3c-0.8-0.5,0.3-1.6-0.8-2c-2.7,0-4.7,1.2-5.4,3.6
		s-1.4,4.8-2,7.3c-0.9,3.4,0.4,6,3.8,7.9c1.3-0.1,2-1.9,3.9-1c-1.6,3.1,0.3,5.2,2.5,7.1c3.3,2.9,7.1,4.5,11.7,4
		c1.5-0.2,3-0.2,4.5-0.4c1.7-0.2,3.1-0.7,4.4-2.2c1.5-1.8,3.7-3.1,5.8-4.7c1.3-4.3,1.4-8.8-0.4-13.3c-0.5,4.4-0.3,8.9-1.1,13.4
		c-2.7,1.1-5.3,2.2-6.7,4.5c-7.8,1.9-14.6,1.2-19.5-6c1.8-5.2,1.1-10.8,1.7-15.8c1.8-3.7,4.2-6.3,7-8.8c3.4,0.9,6.9,0.6,10.5,0.6
		C690.4,499.2,691.3,499.2,691.9,498.5c1.1,3.7,5.2,10.4,7.2,11.7C699.1,507.2,695.4,501.2,691.9,498.5z M697.4,433.8
		c1.4-0.9,1.4-0.9,1.2-2.5c-1.1,0.6-1.1,1.6-1.1,2.6c-1.4,0.5-1.4,0.5-1.1,1.8C697.3,435.4,697.2,434.5,697.4,433.8z M729.2,427.6
		c-1.3-0.5-2.5-1.8-4.2-1C726.3,427.6,727.8,427.6,729.2,427.6c-0.3,1,0.6,1.3,1.2,1.7c2.9,2.2,5.6,4.6,7.6,7.7c0,0.1,0.4,0,0.7-0.1
		c0.7-1.7-0.4-2.8-1.4-3.8C734.9,430.8,732.3,428.9,729.2,427.6z M704.4,519.9c4.9,4.9,18,4.1,23-1.5c-2.8,0.6-5.4,1.1-7.9,1.7
		c-2.5,0.5-5,0.6-7.5,0.5S707.2,518.5,704.4,519.9z M655.6,412c2.9-1,5.4,0.9,8,1.2c0.4-0.5,0.4-0.9,0.1-1.2c-1.9-2.3-5.4-0.9-7.1-3
		c-5.8,1.6-10.1,8.5-7.7,12.3c1.2-1.6,1.5-3.6,2.8-5.1C653,414.9,654,413.2,655.6,412z M630.3,521c-0.9-5.1-1.8-10.3-2.7-15.4
		c-0.8,5.8-0.3,11.5,2.1,16.8c1.4,0.8,2.8,1.5,4.5,0.8C633.3,521.9,631.6,522.3,630.3,521z M698.6,451.9c1.6,5.1,7.3,7.9,14.7,7.2
		c-3.1-0.9-5.7-1.5-8.1-2.7C702.7,455.3,701.3,452.8,698.6,451.9z M680.8,481.7c-2.6,4.1-2.2,9.6,0.8,13.1c0.1-2.3-0.8-4.2-0.8-6.2
		C680.7,486.4,681.7,484.4,680.8,481.7z M735.5,513.3c4.9-1.4,11.7-6.8,13-10.8C744.1,506.8,739.9,510.2,735.5,513.3z M686.3,509.3
		c-1.7,3.4-1.5,11.1,0,14.2C686.3,518.6,686.3,514,686.3,509.3z M644.1,450.3c-0.9,5.3-1,10.3-0.1,15.5c0.4-0.2,0.7-0.4,0.7-0.5
		c0.1-4.8-0.2-9.5,0.3-14.3C644.9,450.9,644.6,450.7,644.1,450.3z M712.9,461.5c3.8,2.1,8.5,1.8,12-0.7
		C721.2,461.9,717.3,460.6,712.9,461.5z M617.7,520.6c4.6,1.2,8.2,1.1,10.2-0.2c0-0.7-0.5-1-1.1-1.1
		C624,519.3,621.2,519.9,617.7,520.6z M647.2,503.2c-0.7,0.4-1,0.9-0.8,1.3c0.8,2.4,0.7,4.9,0.2,7.4c-0.1,0.7,0.2,1.3,1.1,1.3
		C648.9,511.2,648.8,507.4,647.2,503.2z M695.8,448.2c0.9-2.7,0.4-5.4-1.4-7.8C694.2,443.1,694.2,445.5,695.8,448.2z M693,426.3
		c-1.2-3.5-2.4-4.4-5.6-4.2C689.6,422.7,690.3,425.2,693,426.3z M655.1,507.8c-0.4,1.8-1.6,3.7,0.2,5.8
		C656.6,511.5,656.5,509.7,655.1,507.8z M643.6,468.9c-0.6,2.8-1.9,5.6,0,8.9C643.6,474.5,643.6,471.7,643.6,468.9z M677.3,507.7
		c2,0,4.1,0,6.1,0C681.4,506.1,679.4,506.8,677.3,507.7z M748.5,455.4c2,1.9,3.2,0.7,5.1-0.5C751.5,454.4,750.1,453.7,748.5,455.4z
		 M618.8,503.7c2.5,0.5,4.3,0.6,6.1-0.2C623.1,502.4,621.3,502.5,618.8,503.7z M641.9,515.6c0.9-1.9-0.2-2.4-0.5-3.2
		c-0.3-0.9,0.5-2.1-1-2.6C638.6,512.2,641.2,513.2,641.9,515.6z M655.4,520c1.2-1.7,1.2-3-0.3-4.6
		C654.7,517.1,653.5,518.3,655.4,520z M678.2,525c1.9-0.1,3.9,1,6.4-0.1C682,523.5,680.2,525.3,678.2,525z M688,505.9
		c1.6-1.2,2.9-2.6,3.5-4.5C689.8,502.5,688.7,504,688,505.9z M655.2,502c-1.7,2.8-1.7,2.8,0,4.5C655.6,505,655.8,503.8,655.2,502z
		 M649.6,541.7c-0.9-1.3-1.7-2.7-3.6-3.3C647.6,541.3,647.6,541.3,649.6,541.7z M649.9,517.2c0.3-1.6-0.5-2.2-2-2.8
		C648.1,515.9,648,517.1,649.9,517.2z M672.3,490.2c1.1-1.1,1.3-2,0.9-3.6C671.9,487.7,671.8,488.7,672.3,490.2z M647.3,434.8
		c-0.9,0.8-1.5,1.6-1.1,3C647.3,436.9,647.6,435.9,647.3,434.8z M708.7,472.2c-0.4-1.1-1-1.6-1.6-2c-0.4-0.2-0.6,0-0.7,0.4
		C706.7,471.6,707.5,471.8,708.7,472.2z M673.8,493.2c-1.1,0.5-2,1-1.1,2.7C673.2,494.8,673.5,494,673.8,493.2z M647.1,432.9
		c1-0.5,1.1-1,0.6-2C647.1,431.6,646.6,431.9,647.1,432.9z M728.5,460c0.9,1,1.3,0.7,1.8,0C729.7,459.3,729.2,459.3,728.5,460z
		 M738.2,457.7c1,0.4,1.5,0.4,1.6-0.6C739,456.4,738.6,456.9,738.2,457.7z M700,518.1c0.8,0.4,0.9,1.6,2,0.7
		C701.6,518.3,701.6,517.4,700,518.1z M648.6,426.4c-0.9,0.2-1,0.6-0.3,1.2C648.9,427.4,649.1,427,648.6,426.4z"/>
	<path fill="none" d="M333.3,622.5c1.9-2.2,6.9-5,9.4-5.3c3-4.4,3-4.4,4.6-5.1c0.6,0.5,0,1.6,0.9,2.1c0.6,0.5,1.3,0.2,2,0
		c7.3-2.3,14.6-4.8,21.6-8c4.4-2,9.1-3.2,13.3-5.6c10.8-6.1,22.6-10.8,31.8-19.5c0.6-0.5,1.3-0.9,2.1-1.2c8.8-4,17.8-7.2,27.5-8.3
		c3.2-0.3,6.4-0.3,9.6,0c9.4,0.9,18.7,0,28.1-3.3c3.2,10.2,8.1,19.7,14.1,28.9c-2,1.3-5,0.8-6.1,3.9c2.8,1.3,5-0.7,7.4-1.2
		c0.7,0.5,1.2,1.2,1.3,2.2c-2.9,0.8-5.6,1.9-8.4,3.1c-1.9,0.8-3.9,1.2-6,1.2c-4-0.1-8,0-12.7,0c3.4-1.8,6.9-1.5,9.4-3.5
		c-0.8-0.9-1.6-0.5-2.4-0.3c-1.9,0.5-3.7,1.1-5.7,1.5c-8.1,1.5-16.1,3.2-24.2,4.2c-7.5,1-15.1,1-22.5,1.8
		c-5.8,0.7-11.6,1.5-17.1,3.5c-1.6,0.6-3.3,0.9-5,1.2c-5.3,0.9-10.4,2.6-15.4,4.8c-2.2,1-4.6,1.4-6.8,2.4c-7.1,3-14,6.4-20,11.2
		c-2.6,0.2-5.1,0.4-7.6,0.7c-3.8-3.2-8.9-4.7-11.8-9.4c0.6-1.5,1.8-2.8,2.2-4.4c2-0.9,4-1.2,5.6-3c-2.1-0.4-4,0.9-5.8,0.2
		c-0.4-0.6,0.5-1.7-1-2.1c-2.8,2.2-2.4,6-3.9,8.8c2.5,4.6,5.1,9.1,10.8,10.7c-8.3,3.9-13.2-0.5-15.7-5.5c-0.9-1.7-1.5-3.6-2.2-5.4
		c-0.3-0.8-0.6-1.5-1.6-1.5L333.3,622.5z M467.3,586.7c-3.6,0.2-12.8,4.1-15,6.1C456.4,591.8,464.1,588.8,467.3,586.7z M439.7,595
		c-3.7,1.1-7.2,2.3-10.6,4.1C434.5,598.4,437.7,597.2,439.7,595z M483.1,572.6c-5.5-1.1-5.5-1.1-8.1,0.8
		C477.9,574.6,480,572.7,483.1,572.6z M354.8,616.3c2.5,0,2.5,0,4.9-1.9C357.5,614,356,614.6,354.8,616.3z M422.2,600.4
		c-1.4-0.2-2,0.7-2.9,1.2C420.4,601.6,421.5,601.8,422.2,600.4z M366,612.3c-1.4-0.3-2.2-0.2-2.6,1
		C364.4,613.6,365.1,613.1,366,612.3z M369.5,611.5c1.2-0.8,2.2-0.4,2.5-1.9C371.1,609.8,370.3,609.8,369.5,611.5z M408.5,604.4
		c0.9,0.3,1.5,0.2,1.9-0.7C409.6,603.4,409.1,603.8,408.5,604.4z M402.1,606c-0.8-0.5-1.2-0.3-1.6,0.4
		C401,606.6,401.5,606.8,402.1,606z"/>
	<path fill="none" d="M864.7,480.6c-1.4,0.9-0.1,2.1-0.2,3.1c-4.9,2.2-7.1,7.3-11.6,10.2c-3.9-1.7-5.9,0.6-7.7,3.6s-3.3,6.3-6,8.6
		c-3.5,0.3-2.7-3.5-4.6-4.2c-0.3-1,0.6-1.5,0.3-2.2c-0.8-0.6-1.6-0.3-2.1,0.3c-1.1,1.3-0.8,2.4,1.3,4.4c-1,0.8-2.1,1.7-2.9,2.3
		c-3.4,0.6-4.4-3.6-7.5-3.6c-0.2,2.5,2,2.3,2.8,3.4c-0.6,2.4-0.8,2.9-3,2.6c-2.1-0.2-3.6,0.6-4.8,2c-1.3,1.5-2.9,2.2-4.9,2.3
		c-3.8-2-5.6-5.7-7.3-9.4c-1.4-3.1-2.1-4.1-5.4-6.3c-6,1-12.3,0.7-18.6,0c-2-0.2-3.8,0.6-5.7,0.9c-0.2,1.4,1.3,0.3,1.5,1.7
		c-1.6,2.7-3.4,6-6,8.7c-3.7,3.8-9.9,2.8-12.6-1.7c-0.6-1.1-1.2-2.2-1.5-3.5c-1.1-4.6-1.7-9.4-1-14c0.8-5.3,1.8-10.7,4.3-15.5
		c3.7-7.1,7.4-14.2,8.9-22.3c3.6,1.8,7,3.3,10.2,5.1c4.8,2.7,9.3,2.5,13.8-0.5c0.7-0.4,1.4-0.8,2.1-1.2c0.1-0.1,0.2-0.1,0.6-0.2
		c2.1,0.2,4.5,0.3,7,0c0.9,0.5,1.7,1,2.6,1.5c1.1-0.2,1-1.6,2-1.9c0.1,0.3,0.2,0.6,0.1,0.9c-0.1,0.6-0.2,1.2-0.5,1.6
		c-2.4,3.3-1.2,7-1.3,10.6c0,0.8,0.5,1.5,1.2,2c1.6,0.1,1.6,0.1,3-0.7c-0.3-1.1-1.7-0.5-2.2-1.9c-0.1-2.1-0.7-4.7,0.7-7.2
		c0.6-1,0.4-2.5,0.6-3.7c0.6-3.4,3-5.6,6.5-5.3c1.9,0.2,3.8,0.5,5.7,0.5c0.9,1.8,0.8,3.5,1,5.2c0.1,1.1-0.3,2.4,0.8,3.2l-0.1-0.1
		c-1.2,2.8-3.8,4.6-5,7.3c-0.2,0.4-0.5,0.8-0.3,1.3c0.9,1.2,1.8-0.9,2.6-0.1c1.2,1.1-0.5,2.6,1.1,3.8c0.8-1.3,1.1-2.9,2.3-4.1
		c4.9-2.4,9.9-1.6,15-0.3c2.5,0.7,5,1.6,7.5,2.4c2.7,0.8,5.2,2.4,8.4,1.5c0.7,2.8,1.8,5.1,4.5,6c0.9-0.6-0.6-1.2,0.3-2
		C862,477.2,863.6,478.7,864.7,480.6L864.7,480.6z M821.7,452.7c-3,1.1-5.8,1-8.5,0.3c-1.3,1.4-1.8,2.8-1.5,4.5
		c1.4-0.4,1.1-2.1,2.5-2.6c0.4,0.2,1.2,0,1.4,0.9c-0.4,1.7-2.1,2.5-3.4,4.4c3-0.8,4.3-2.5,5.5-4.6c0.9,0.1,1.8-0.8,2.9,0
		c0,1.2-0.3,2.2-1.1,3.3c-2.9-0.3-4.8,1.9-7.3,3.2c0.8,1.8,1.1,4,3.7,4c2.2-1.3,0.4-3,0.6-4c0.6-1.5,1.4-1.9,2.7-1.7
		c0.2,0.2,0.4,0.4,0.6,0.7c0.2,0.4,0.3,0.9,1.1,0.7C821.4,459,822.8,456.3,821.7,452.7z M841.2,476.1c1,1.9,1.6,3.1,2.9,3.7
		c2,0.9,2.8,2.5,3.4,4.4c0.6,1.8,1.3,3.6,2.2,5.1c1.1,0.5,1.9,0.5,2.8-0.9C850.3,483.5,848.5,478,841.2,476.1z M768.8,492.1
		c-0.2-5.9-2-11.3-5.9-16.8C763.7,480.8,766.9,490.5,768.8,492.1z M770,502.8c1.8-0.6,3.5-0.8,3.8-2.6c-0.5-1.6-2.1-1.6-2.9-2.9
		c-0.7-0.9-0.3-3.1-2.7-3.1C767.2,497.4,770,499.6,770,502.8z M847.4,488.7c-1.7-2.3-3.6-4.4-6.5-5.2c-0.2,0.3-0.5,0.6-0.4,0.7
		c0.8,1.7,1.6,3.4,2.5,5c0.4,0.6,1.1,1.2,2,1.2c0.3-0.2,0.7-0.5,1-0.7C846.4,489.4,847.2,489.7,847.4,488.7z M810.8,471.3
		c-2.7,0.1-3.2,0.5-6.3,4.6c0.6,1.7-1.3,3.7,0.8,5.5c0.6-2.1,1.2-4.1,1.7-5.8c0.9-0.7,1.8-1.1,2.2-1.9
		C809.6,472.9,810.8,472.5,810.8,471.3z M805.3,485.6c-1.8,4-1.2,8.4,1.4,12C806.4,493.8,806.2,490,805.3,485.6z M793.7,487.2
		c4.8-1.6,6.1-2.5,7-5C797.8,483.5,795.5,485.1,793.7,487.2z M791,488.4c-1.8,0.2-3.4,0.8-4.5,2.4C788.1,490.1,790,490.3,791,488.4z
		 M775.8,494.1c1.2-0.5,2.9,0,3.8-1.7C777.8,492,776.7,492.8,775.8,494.1z M798.9,467.3c1.7,0.4,3,0.1,4.5-0.9
		C801.6,465.8,800.3,466.2,798.9,467.3z M820.5,479.3c-0.9,1.1-0.8,1.8-0.1,2.7C821.4,481.1,821.4,480.4,820.5,479.3z M820.4,477.5
		c1.2-0.3,1.2-1.1,0.7-2c-0.1-0.1-0.3-0.2-0.5-0.3C819.6,475.9,819.9,476.7,820.4,477.5z M784,491c-0.3-0.4-0.7-0.1-0.9,0
		c-0.3,0.2-0.8,0.5-0.4,1C783.3,492,784.1,491.9,784,491z"/>
	<path fill="none" d="M747.6,661c1.3-1.6,1.8-3.6,2.4-5.5c0.3-0.9,0.2-2.1,1.1-2.8l-0.1-0.1c0.6,2.1,1.2,4.2,3.6,5.4
		c1.2-1.7,1.3-3.6,1.3-5.5c0-5.2-0.7-10.3-1.6-15.4c-0.6-3.8-2.1-7.2-3.6-10.7c-2.4-5.4-4.6-11-5.5-16.9c-0.2-1.5-0.7-3.1,0.3-4.6
		c0.5-0.7,0-1.8-0.1-2.7c-0.7-4.2-0.8-8.4-0.9-12.7c0-5.7,1.3-11.1,3.9-16.5c-5.5-12.7-4.7-25.9-2.5-38.8c1-1.2,1.9-1.3,2.9-1.3
		c2.1,0.1,4.1-0.5,6.1-0.8c8.4-1.2,14.1-6.3,19.3-12.6c4.7-5.6,6.8-12.2,8.5-19.2c0.8,2,0.9,2,0.5,3.4c-1.8,7.2-3.6,14.5-8.2,20.6
		c-1.4,1.9-2.1,4-2.2,6.4c-0.1,4.7-0.2,9.4-0.4,14.1c-0.2,5.4-0.5,10.7-0.7,16.1c-0.1,2.9,0.8,5.7,1.3,8.5c0.9,4.9,0.9,9.8,0.8,14.7
		c-0.1,4.2-0.2,8.4-1.5,12.5c-2,6.3-3.3,12.8-4.2,19.3c-0.9,0-0.6-0.8-1.3-0.9c0.1,2.6-0.1,5.2,0.3,7.8c0.4,3-0.4,5.9-0.7,8.9
		c-0.4,4-0.6,8.1,0.2,12c0.6,2.8,1.7,5.6,3.8,7.9c0.8,0.8,1.5,1.7,2,2.7c2.6,1.3,5.4,1.4,8.2,2c0.7,1.1,2.4,2,2.4,3.5
		c0.1,3.2,2.7,5.9,2,9.3c-2.8,1.2-5.7,1.1-8.7,1.1c0-2.4,2.6-1.7,3.4-3.2c-1.3-1.4-2.6-3-4-5.2c-1.2,2.6,0.2,3.8,0.9,5.3
		c-0.9,1.1-2.8,1.6-2.5,3.5c-1.4,0.5-2.5,0.2-3.5,0c-1-0.7-1.2-1.7-1.5-2.9c1.6-0.7,3.7,0.2,5-1.5c-1.2-1.7-1.2-1.7-9.8-1.6
		c0.1-1.4,0.1-2.9-1.5-3.7c-1.7,0.9-0.3,1.8,0.2,2.9c-1.9,0.5-3.4,1.8-5.5,1.7c-0.9,0.6-1.2,1.6-1.5,2.7c-0.9-1.4-1.7-2.7-2.1-3.5
		c-0.7-1.6,1-2.7-0.7-3.9c-1.8,0.9-2.3,2.7-2.2,4.4c0.1,2.6,1.1,4.7,3.9,5.4c0.9,0.6,1.5-1.2,2.7-0.1c0,1.8-1,3.2-2.3,4.5
		c-1.4,1.3-2.2,2.9-3.5,4.5c-4.5-0.1-8.9,1.4-13.8,0.7c-1.7-1.4-3.3-3.3-5-5.4c-0.3-4.4-0.8-8.8-0.8-13.6c4-0.4,8,0,12.5-1.4
		c-4-1.9-7.2,0-10.8-0.1c1.4-2,2.7-3.8,3.8-5.4c6.5-1,6.9-1,8.5,0.4c0.8,0,1-1.3,2-0.9C748.9,656.2,747.6,658.5,747.6,661
		c-0.6,0.1-0.4,0.6-0.4,1.1c0.2,3.6,0.5,7.2,1.2,10.8c0.5,2.4,0.6,2.7,3.6,4.1c-0.8-1.3-1.5-2.3-2-3.1
		C749,669.5,749.5,665,747.6,661z M746.2,675.2c-3.1-1.5-5.9,0.3-8.9,0.7C740.3,675.7,743.4,676.7,746.2,675.2z M766.1,608.7
		c1-3,0.7-5.9-0.2-8.8C765.5,602.9,765.1,605.8,766.1,608.7z M764.9,571.6c-2.6,1.8-3.7,3.9-5.1,5.7
		C761.6,575.9,764.5,575.5,764.9,571.6z M750,570.8c0.4,2.8,0.7,3.2,3.8,4.1C752.7,573.4,752,571.9,750,570.8z M746.5,560.2
		c-0.1,3.6,0.3,4.6,2.2,5.7C748.5,563.7,747.4,562,746.5,560.2z M769.2,554c0.6-1.7,0.9-3.4-0.6-5.2
		C768.4,550.8,768.4,552.4,769.2,554z M758.1,663.2c-0.6-1.8-0.6-1.8-2.7-2.4C755.8,662.3,756.9,662.8,758.1,663.2z M759.4,659
		c-0.9,2.1-0.9,2.6,0,2.6C760.2,660.9,760.2,660.2,759.4,659z M759.7,651.3c-0.6,1.6-0.7,2.6,0.2,3.5
		C761.1,653.7,760.3,652.8,759.7,651.3z M766,591.5c0.3-0.8,0.3-1.5-0.2-2.2C765.4,590.1,765.5,590.7,766,591.5z M759,641
		c-0.2,0.8-0.7,1.4,0.2,1.8C760,642.4,760,642,759,641z M768.6,541.4c0.1,0.5-0.6,1.1,0.3,1.5C769.1,542.3,769.1,541.8,768.6,541.4z
		"/>
	<path fill="none" d="M429.2,624.9c-2.5,1.3-5.3,0.6-5.8,3.9c2,3.6,5.2,1.6,8.1,1.6c0.5,0.3,0.2,0.8,0.1,1.3
		c-1.5,0.1-3.1,0.3-4.6,0.4c-1.1,0.1-2,0.6-2.2,1.8c-0.2,1.3,0.7,2.1,1.8,2.6c1.4,0.7,2.9,0.4,4.6-0.1c0.6,3,1.3,5.7,2.8,8.3
		s4.5,4,5.7,6.9c-0.6,2.9-2.7,4-5.3,4.7c-0.8,0.2-1.6,0.2-2.4,0.2c-6,0-12,0.8-17.7-2c-2.8-1.4-4.8-3-5.3-6.1
		c-0.5-2.7-1.1-5.3-0.5-8.1c0.3-1.3,0.1-2.7,0.1-4.1c0-4.2,0.6-8.2,2.4-11.8c-0.4-2.3-2.5-3.2-3.6-5.1c1.9-0.8,3.8-1.4,5.8-1.7
		c5.1-0.7,10.2-1.4,15.3-2.1c0.9-0.1,1.8-0.1,2.7,0.2c1.3,0.4,2.6,0.8,4,1.1c1.2,0.3,2.4-0.5,4-0.3c-0.5,1.7-1.2,3.2-2.1,4.7
		c-3-0.2-6-0.4-8.9-0.6c-2-0.1-2-0.2-3.7,1.2C424.6,624.2,426.7,624.3,429.2,624.9z M431.2,641.5c-1.9-1.2-3.4-0.8-5-0.2
		C428.1,643.6,428.6,643.6,431.2,641.5z"/>
	<path fill="none" d="M809.7,682.3c-0.9-0.3-0.4-1.5-1.2-2.1c-4.6,0-9.3-0.2-13.9,1c-0.4-0.1-0.4-0.7-0.7-1
		c-4.3-5.4-3.7-11.8-3.4-18.2c1.6-2.2,3-4.7,4.3-7.4c4.2,0.1,8.3-0.9,12.8-0.2c-0.8,2.7-1.6,5.1-4.3,6.8c0,2.2,0.2,4.7,0,7.2
		c-0.3,4.4,1.8,7.3,5.2,9.8c-0.5-2-0.5-2-3-4.9c-0.2-3.3-0.4-6.7-0.6-10c1.4-2.4,2.7-4.7,4-7c1.4,0.4,2.5,1,3.4,2.4
		c-0.4,4.9-1,10.2,0.9,15.2c-1.1,2.1-2.1,4-3.1,5.9C809.7,680.6,809.2,681.4,809.7,682.3L809.7,682.3z M801,660.5
		c-3.2-0.8-5.4,0.4-7.6,1.2C795.8,661.4,798.3,661.9,801,660.5z M795.5,675.1c5.8,0.7,6.3,0.7,7.8-1
		C800.8,674.4,798.5,674.7,795.5,675.1z"/>
	<path fill="none" d="M578.4,597.1c-5.4,5.2-11,10.3-18,13.5c-3.5,1.7-7,3.4-10.3,5.3c-1.1-0.4-1.8-1.2-2.4-2
		c0.6-0.9,1.7-1.2,2.6-1.6c8.9-4.3,17.5-9,25.8-14.4c0.7-0.4,1.3-1,2.2-1L578.4,597.1z"/>
	<path fill="none" d="M663,466.6c0.3-3.3,1.1-6.4,2.7-9.2c1.7-3,3.5-5.9,5.1-9.5c1.8,2.4,3.7,4.3,6.2,5.9
		C671.6,457.6,666.1,460.8,663,466.6z"/>
	<path fill="none" d="M694.3,459.5c1.8,0.2,3.3,0.4,5,0.6c0.2,0.2,0.5,0.4,0.6,0.7c2.3,4.5,2.3,4.4-1,8.5c-1.3,1.6-2.4,3.2-3.8,5.1
		C693.1,469.4,693.8,464.6,694.3,459.5z"/>
	<path fill="none" d="M664.5,517.6c-0.9-1-1.2-1.6-0.9-2.3c1-3,1.4-6.1,2.6-8.8c1.4-0.6,2.4-0.3,3.6-0.1c-0.7,3.7-0.5,7.4-0.5,11.4
		C667.5,517.8,665.9,517.7,664.5,517.6z"/>
	<path fill="none" d="M637.4,486.9c-0.7,2.7-0.9,5.3-2.7,7.7c-2.4-2.7-5.5-1.4-8.6-1.9c1.1-1.2,2.3-1.9,3.7-2.1
		c2.3-0.3,4.2-1,5.4-3.1C635.5,487.1,636.3,486.8,637.4,486.9z"/>
	<path fill="none" d="M762.3,665.7c1.6,0.4,3,1.4,4.3,1.5c1.2,1.4,0.5,2.7,0.9,3.9C762.4,670,760.8,668.5,762.3,665.7z"/>
	<path fill="none" d="M864.6,480.7c1.6,0.7,2.9,1.6,4.1,2.8c2.9,3,4.4,3.8,8.3,4.9c-2,0.7-2.4,0.9-3.2,0.4
		C870.3,486.7,866.5,484.8,864.6,480.7L864.6,480.7z"/>
	<path fill="none" d="M873,469.6c0.9,0.5,1.5,1.4,2,2.1c0.4,1.4-1.4,1.6-1.2,2.7c0.2,0.8,1,0.6,1.3,1.1c-0.1,0.2-0.1,0.4-0.2,0.5
		c-1.2,1-2.3,0.8-3.3-0.4c0.1-1.2,1.6-1.6,1.7-2.7C873.9,471.7,872.5,470.7,873,469.6L873,469.6z"/>
	<path fill="none" d="M624.5,528.2c1,1.2,0.2,2.3,0.8,3.5c0.5,1.2,2,1.7,3.1,2.4c0,1.3-1,1.6-1.5,2.3
		C624.3,531.4,623.9,530.1,624.5,528.2z"/>
	<path fill="none" d="M637.7,547.9c-0.6-0.7-2-0.4-2.8-1.2c0.1-0.7,0.6-0.9,1.3-1.1c1.6,1.7,3.8,2.9,5.2,5c-1.3,1-2,0-2.8-0.4
		C638.2,549.6,638.8,548.8,637.7,547.9z"/>
	<path fill="none" d="M864,476c-1.5-1.9-2.7-3.5-4.1-5.3c2-0.5,2.1,1.2,2.9,1.8C863.7,473.2,864.5,474.1,864,476z"/>
	<path fill="none" d="M846.5,443.6c-0.4-1.3-0.7-2.3-1-3.5c0.9-0.8,1.9,0,3.4-0.5C847.9,441.3,848,442.7,846.5,443.6z"/>
	<path fill="none" d="M846.9,448.7c0.7-1.5,1.9-1,3-0.8c0.5,1.2-0.5,1.6-0.7,2.4C848.2,450,847.4,449.7,846.9,448.7z"/>
	<path fill="none" d="M845,466.1c2.2-0.6,3.7,0.4,5.6,2.3C848.1,468.1,846.6,467.1,845,466.1z"/>
	<path fill="none" d="M854.5,456.1c1.1,1.7,1.1,1.7,1.1,4.7c-0.5,0.3-0.9,0.1-1.4-0.3C854.2,459.4,854.3,458.1,854.5,456.1z"/>
	<path fill="none" d="M831.8,441.8c0.2,1.6-0.8,3,0.3,4.2c-1.1,0.6-1.7,0.5-1.7-0.3C830.4,444.4,831.1,443.1,831.8,441.8z"/>
	<path fill="none" d="M852.7,467.3c1.7-0.1,3.2,0.5,4.4,1.6C855.3,469.1,853.9,468.4,852.7,467.3z"/>
	<path fill="none" d="M633.9,544.3c-0.5,0.7-1,1.1-1.9,1.3c-0.9-0.3-1.2-1-1.4-2.1C631.9,543.3,632.8,543.5,633.9,544.3z"/>
	<path fill="none" d="M823.6,438.1c2.1-0.7,2.1-0.7,3.6,0C826.2,439.6,825.2,439,823.6,438.1z"/>
	<path fill="none" d="M858.4,463.7c0.2,1.4-0.4,2.4-1.4,3.1C856.6,465.3,858,464.7,858.4,463.7z"/>
	<path fill="none" d="M630.9,538.9c-0.5,1-1.2,1.1-1.8,1.4c-0.9-0.3-0.9-1.1-1.5-1.9C629,538.3,629.9,538.4,630.9,538.9z"/>
	<path fill="none" d="M824.6,450.9c1.5,0.8,1.5,1.6,0.6,2.5C824,452.9,824,452.1,824.6,450.9z"/>
	<path fill="none" d="M880.2,480c-1.2,0.2-1.8,0-2.2-0.8c0.1-0.2,0.2-0.4,0.3-0.4C879.3,478.6,880.1,478.6,880.2,480z"/>
	<path fill="none" d="M843.3,434.5c-0.9,0.9-1.6,1.1-2.7,0.5C841.2,433.8,842,433.9,843.3,434.5z"/>
	<path fill="none" d="M870.3,460c0.6,0.4,1,0.9,1,1.5c-0.6,0.8-1.2,0.5-1.7,0C869.3,460.9,869.5,460.4,870.3,460z"/>
	<path fill="none" d="M636.1,549.7c-0.8,1-1.4,1.2-2.1-0.3C634.8,548.9,635.5,548.9,636.1,549.7z"/>
	<path fill="none" d="M836.9,432c0.7-0.9,1.3-0.9,2.1-0.1C838.3,432.6,837.7,432.6,836.9,432z"/>
	<path fill="none" d="M855.1,435c1.3-0.1,1.7,0.4,1.9,1.4C855.9,436.5,855.3,436.3,855.1,435z"/>
	<path fill="none" d="M821.3,438.8c-1.1,0.7-1.8,0.8-2.6,0.2C819.4,438.1,820,437.6,821.3,438.8z"/>
	<path fill="none" d="M839.5,459.3c0.4-0.9,1-0.7,1.6-0.2c0.1,0.5,0,0.9-0.6,0.9C840.1,459.9,839.6,459.9,839.5,459.3z"/>
	<path fill="none" d="M810.5,452.1c0.3-1.3,0.6-2,1.9-1.9C812.4,451.3,811.6,451.6,810.5,452.1z"/>
	<path fill="none" d="M824.1,460.1c0-0.8,0.3-1.5,0.9-2.1C825.6,459.1,825.2,459.8,824.1,460.1L824.1,460.1z"/>
	<path fill="none" d="M840.5,465.6c-1.1,0.5-1.7,0.3-2.1-0.6C839.2,464.5,839.8,464.6,840.5,465.6z"/>
	<path fill="none" d="M813.6,445.2c-0.5,1.3-1.3,1.2-2.4,1.1C811.9,445.2,812.4,444.7,813.6,445.2z"/>
	<path fill="none" d="M873.1,469.5c-0.9-0.2-2-0.1-2.3-1.6C872.3,467.8,872.2,469.2,873.1,469.5L873.1,469.5z"/>
	<path fill="none" d="M758.9,666.8c0.5,0.7,0.3,1.2,0.2,1.9C758.2,668,758.3,667.5,758.9,666.8z"/>
	<path fill="none" d="M831.4,459.7c0.7-0.8,1.2-0.9,1.9-0.3C832.8,460.3,832.2,460.1,831.4,459.7z"/>
	<path fill="none" d="M837.1,456.6c-0.6,0.8-1.1,0.8-1.7,0.1C836,455.7,836.5,455.7,837.1,456.6z"/>
	<path fill="none" d="M848.9,433.8c0,0.9-0.5,1.1-1,1c-0.2,0-0.4-0.5-0.4-0.7C847.7,433.3,848.2,433.3,848.9,433.8z"/>
	<path fill="none" d="M826.5,445c-0.1,1.3-0.7,1.5-1.6,1.2C824.9,445.2,825.5,445,826.5,445z"/>
	<path fill="none" d="M578.3,596.9c0.2-0.8,0.9-0.7,1.7-1.7c-0.5,1.4-0.9,1.8-1.6,1.8L578.3,596.9z"/>
	<path fill="none" d="M333.3,297.4c0-0.3,0-0.9,0.1-1c3-1.7,5.6-4.3,9.4-4.7c1.6-1.6,1.6-4.7,4.8-5.2c0.7,0.5-0.4,1.7,0.5,2.2
		c0.6,0.5,1.3,0.4,2,0.2c7.6-2.5,15.2-5.2,22.5-8.4c3.8-1.7,7.8-2.8,11.4-4.7c11.2-6.2,23.2-11,32.8-19.9c1.4-1.3,3.4-1.9,5.2-2.6
		c8.7-3.7,17.6-6.4,27.1-7.2c1.7-0.1,3.4-0.2,5.1,0.1c7.3,1.3,22.2,0.3,29.8-3.2c3.2,10.5,8.3,20,14.2,29.2
		c-2.4,0.9-5.1,0.7-6.2,3.7c2.8,1.2,4.9-0.5,7.2-1.1c0.9,0.2,1.2,1,1.6,1.7c-8,4.9-16.7,5.3-26.1,4.3c2.9-1.4,6-1.3,8.4-3
		c-0.4-1-1-0.8-1.6-0.6c-1.5,0.4-3.1,0.8-4.7,1.2c-8.2,2.1-16.6,3.1-25,4.5c-5.4,0.9-10.9,1.1-16.4,1.3c-7.1,0.3-14.2,1.4-21,3.2
		c-6.1,1.7-12.4,2.3-18.2,4.7c-7.5,3.1-15.3,5.4-22.4,9.4c-1.7,1-3.5,1.8-5,3c-3.6,3.1-7.8,4.1-12.4,3.8c-3.9-3.1-8.9-4.7-11.8-9.2
		c0.8-1.4,1.5-2.8,2.3-4.2c0.8-0.9,2.1-0.8,3.1-1.4c0.9-0.5,1.9-0.8,2.4-2.1c-1.9,0.2-3.6,1-5.7,0.4c-0.7-0.3,0.6-1.9-1.3-1.9
		c-2.3,2.3-2.2,5.8-3.6,8.7c2.5,4.6,5,9.1,10.6,10.8c-5,2.7-9.2,2.1-12.9-1.7c-2.3-2.4-3.4-5.4-4.5-8.4c-0.3-0.8-0.1-2.3-1.8-1.9
		H333.3z M452.7,266.7c4.4-0.4,12.5-3.7,13.9-5.8C461.9,262.5,457.2,264.2,452.7,266.7z M439.8,269.6c-3.7,1.1-7.3,2.1-10.6,4.1
		C432.9,272.8,436.8,272.3,439.8,269.6z M475,247.9c3.1,1.1,5.1-0.4,7.3-1.2C480,246.7,477.4,245.5,475,247.9z M354.8,290.9
		c2.3,0.1,2.6,0,4.8-2C356.4,288.9,356.4,288.9,354.8,290.9z M410.5,278.3c-1.1-0.4-1.8,0-2.4,0.8
		C409.1,279.5,409.8,279,410.5,278.3z M420,275.9c0.9,0,2,0.6,1.7-1.1C421,275,420.4,275.2,420,275.9z M365.8,286.7
		c-1-0.5-1.7-0.1-2.2,0.8C364.6,287.9,365.3,287.8,365.8,286.7z M372.1,284.4c-1.2-0.2-1.8,0-2.2,1.1
		C370.8,285.5,371.4,285.2,372.1,284.4z M400.5,281.1c0.9,0.2,1.4,0.1,1.3-0.8C401.2,280.1,400.7,280.1,400.5,281.1z"/>
	<path fill="none" d="M765.5,132.1c-0.6,0-1.1,0.1-1.7,0.1c10.2,4.5,20.4,4.1,30.2-0.8c4.3-2.2,8.4-1.6,13.3-0.2
		c0.4,0,0.2-1.5,1.3-1.6c0.3,0.6,0.2,1.2-0.1,1.6c-2.4,3-1.6,6.5-1.7,9.9c-0.1,2,0.6,3.6,2.9,4c-1.8,1.6-3.9,2.9-5.3,5.2
		c0.9,1.6-1.2,3.8,0.8,5.8c0.6-2.2,1.2-4.2,1.7-6.1c1.7-1.1,3-2.5,3.9-4.1c-0.4-0.5-0.8-0.7-1.2-0.7c0.3-0.6,1.3-0.5,1.4-1.5
		c-0.1-1-1.4-0.4-2-1.6c-0.2-2.1-0.9-4.6,0.5-7.2c0.6-1.2,0.5-2.7,0.7-4c0.6-3.4,2.7-5.3,6.2-5.2c1.9,0,3.9,0.3,5.9,0.5
		c1.5,2.3,0.7,5,1.3,7.5c0.9,0.2,0.8-1,2.1-1.2c-2.2,3.9-5.7,6.5-7.2,10.3c1,1.6,1.9-0.6,2.8,0.2c1.3,0.9-0.5,2.5,0.9,3.7
		c1.1-1.1,1.1-2.8,2.5-4c3.2-1.6,6.8-1.9,10.5-1.2c4.3,0.8,8.5,2,12.6,3.5c2.5,0.9,4.8,2.1,7.8,1.4c0.7,2.7,1.8,5.1,4.6,6.1
		c1-0.7-0.8-1.4,0-2.1c0.4-0.2,0.7,0,0.9,0.3c2.5,3.5,6.1,5.8,9.2,8.7c1.9,1.9,4.2,3.2,7.1,3.2c-1.9,1.3-2.5,1.4-4.5,0.2
		c-3.1-1.9-6.1-4-8.2-7.2c-1.2,1,0.2,1.7-0.1,2.6c-4.8,2.2-7.1,7.4-11.3,10.1c-4.5-0.7-5.5-0.2-7.7,3.3c-1.4,2.3-2.9,4.7-4.4,6.9
		c-0.6,0.8-1.1,1.8-2.6,2.1c-2.7-0.1-2-3.6-4-4.5c0.2-0.8,0.4-1.3,0.5-1.8c-0.8-0.7-1.6-0.5-2.2,0.2c-1.1,1.2-0.8,2.4,1.3,4.5
		c-1,0.8-2,1.7-3,2.5c-2.8-0.1-4.1-2.4-5.8-3.8c-0.8-0.1-1.4,0-1.6,0.7c0.2,1.6,2,1.6,2.9,2.5c-0.5,2.6-0.7,2.9-2.9,2.8
		c-2.2-0.2-3.7,0.8-5.1,2.2c-2.9,2.9-4.7,2.7-7.5,0c-2.2-2.1-3.5-4.8-4.6-7.6c-1.1-2.7-2.9-4.6-5.2-6c-5.6,0.7-11.1,0.8-16.6,0.2
		c-2.8-0.3-5.4,0-8.1,0.7c0.4,1.6,2,0.4,2.7,1.8c-0.3,3.5-2.9,6.2-4.6,9.3c-1.5,2.8-4.2,4-6.9,5.4c-0.7-1.6-0.6-3.5,0.2-4.4
		c1.3-1.6,1-3.2,1.2-4.8c0.1-1.5,0-2.9,0.7-4.4c0.6-1.1-1.1-2.5,0.4-4.1c0.7-0.4,1.5,1,2.6,0.4c-0.7-1.1-2.1-0.6-2.9-1.6
		c-0.7-4.7-2.6-9.3-4.5-13.8c-1.8-4.2-3.8-8.3-5.4-12.6c-1.6-4.4-4.9-7.7-8.6-10.5c-1-0.7-2.2-1.3-3.3-2.8c3.6-0.3,6.7-1.9,10,0
		c0.7,0,0.5-1,1.8-0.9C761.4,131,763.6,131.1,765.5,132.1L765.5,132.1z M820.3,129.7c0.2,1.8,0.2,1.8-0.9,3.8c-3-0.5-4.6,2.2-7.3,3
		c0.9,2.1,1.3,4.3,4,4c1-0.9,1-1.7,0.7-2.8c-0.5-2-0.1-2.4,2.4-2.5c0.8-0.1,0.3,1.5,1.8,0.9c0.1-2.8,2.3-5.5,0.5-8.8
		c-2.9,1.2-5.7,0.8-8.5,0.3c-0.8,1.4-1.7,2.7-1.1,4.4c1.3-0.5,1-2,2.1-2.4c0.7-0.2,1.3-0.1,1.6,0.7c-0.3,1.8-2.3,2.5-3.2,4.6
		c2.8-1.1,4.3-2.8,5.3-4.7C818.7,130,819.5,129.8,820.3,129.7z M852.2,163.6c-0.6-6.1-5.5-11.8-10.6-12.5c0.7,1.4,1.3,2.7,2.8,3.4
		c1.7,0.7,2.5,2.3,3,3.9c0.7,2,1.3,4.1,2.6,5.7C850.9,164.4,851.5,164.3,852.2,163.6z M840.6,157.9c-0.7,2.2,1.8,3.1,1.7,4.9
		c0,1,1.3,1.7,2.5,2.2c0.7-0.8,1.7-1,2.6-1.5C845.9,160.8,843.7,159,840.6,157.9z M805.5,160.6c-0.4,0.1-0.7,0.1-1.1,0.2
		c-0.5,4-0.4,7.9,1.7,11.5c0.3,0,0.5-0.1,0.8-0.1C806.5,168.3,806,164.5,805.5,160.6z M772.5,137.4c1.5,0.1,2.9,0.3,4.4,0.3
		c1.4,0,3,0.7,4.7-0.9C778.1,135.7,775.2,136.1,772.5,137.4z M801.3,157.3c-3,0.2-5.8,2-7.1,4.6C796.6,160.7,799,159.7,801.3,157.3z
		 M791,163c-1.9-0.2-3.3,0.9-5.2,2.2C789,164.7,789,164.7,791,163z M779.3,167.2c-1.5-0.5-2.6,0.1-4,1.5
		C777.2,168.6,778.4,168.3,779.3,167.2z M799.5,141.6c1.2,0.1,2.6,0.5,3.9-0.6C801.8,140,800.7,141.1,799.5,141.6z M820.9,149.6
		c-1.3,0.6-1,1.4-0.3,2.6C821.5,151.3,821.7,150.6,820.9,149.6z M820.6,154c-0.9,0.8-0.9,1.5-0.1,2.6
		C821.3,155.8,821.5,155.1,820.6,154z M782.8,166.5c0.6-0.2,1.4-0.1,1-1.1C783.2,165.4,782.8,165.7,782.8,166.5z M759.3,135.1
		c-0.7-1.1-1.2-0.7-1.7,0.1C758.2,135.7,758.7,135.6,759.3,135.1z M764.1,135.8c-1-0.5-1.7-0.5-2.3,0.2
		C762.4,136.6,763.1,136.6,764.1,135.8z M767.4,136.9c0.3,0.9,0.8,0.9,1.5,0.4C768.6,136.6,768.2,136.2,767.4,136.9z"/>
	<path fill="none" d="M436.9,295.7c-4.5-0.1-8.6-1.3-12.8,0.1c1.1,2.4,1.1,2.4,4.6,3.9c-2,0.9-4.6,0.5-5.3,3.3
		c1.6,4.5,5.6,1.3,8.3,2.2c0,0.9-0.5,1.1-1.2,1.1c-1.3,0.1-2.5,0.1-3.8,0.3c-1.1,0.2-2,0.7-2.1,1.9c-0.1,1.4,0.8,2.1,1.9,2.5
		c1.4,0.6,2.9,0.1,4.7,0c-0.1,6.6,4.5,10.5,8.2,14.7c-0.6,3.2-2.8,4.9-5.3,5c-5.4,0.2-10.9,1.5-16.2-0.4c-1-0.3-1.9-0.7-2.9-1
		c-4.6-1.2-6.6-4.5-6.7-8.9c-0.1-7.4-0.6-14.9,2.5-21.9c-0.6-2.1-2.4-3.1-3.6-4.9c3.7-1.6,7.5-2.1,11.3-2.6c3.2-0.4,6.4-0.8,9.6-1.2
		c0.8-0.1,1.6-0.4,2.4,0c2.6,1.2,5.2,1.6,8.1,0.9C438.5,293,437.5,294.2,436.9,295.7z M431,316.1c-1.7-1.2-3.2-1.2-5-0.1
		C428.5,318,428.8,318,431,316.1z"/>
	<path fill="none" d="M813.2,348.6c-1.5,2.4-2.9,4.7-3.8,7.1c-2.1-2.2-4.8-1.1-7.2-0.9c-2.6,0.2-5.3-0.2-7.6,1
		c-0.3-0.3-0.4-0.5-0.6-0.7c-4.3-5.5-3.9-11.9-3.6-18.5c1.5-2.2,3-4.7,4.3-7.6c4.1,0.4,8.3-0.8,13,0c-1.4,2.6-1.6,5.4-4.5,6.5
		c0,2.6,0.2,5.2,0,7.8c-0.3,4.3,2.1,6.9,5.5,9.6c-0.4-2.5-2.2-3.6-3.2-5c-0.9-6-1.5-11.9,3.6-17c1.1,0,2.1,0.8,3.1,2.2
		C811.8,338.2,811.4,343.5,813.2,348.6z M800.4,335.1c-2.6-0.8-4.8,0.1-6.9,1.3C795.7,335.6,798.2,336.4,800.4,335.1z M803.3,348.8
		c-2.3,0.4-4.7-0.1-7,0.8C798.7,349.7,801.1,350.6,803.3,348.8z"/>
	<path fill="none" d="M549.9,290.4c-0.9-0.6-1.6-1.1-1.9-2c10.5-5.8,20.9-11.7,31.3-17.5c0.1,0,0.1,0.1,0.2,0.1
		c-3,2.5-5.9,5.1-8.9,7.6s-6.2,4.7-9.8,6.4S553.6,288.5,549.9,290.4z"/>
	<path fill="none" d="M622.8,186c0.4,0.4,0.3,0.9,0.1,1.4c-1.1,0.3-2.2,1-3.7,1.1c0-1.8-1.8-3.1-1-5c1.1-1.3,3.3,0.7,3.6-1
		c0.7-1.4-0.2-1.8-0.3-2.4c0.2-0.4,0.6-0.7,1.2-0.7c0.4,1.2,0.1,2.4,0.1,3.4c-0.5,1.5-1.9,1.9-2.4,3C621.3,187,622,185.2,622.8,186z
		"/>
	<path fill="none" d="M762.7,339.7c1.1,1.5,2.7,1.5,4,1.9c1.1,1.3,0.7,2.6,0.7,4.1c-2.2-0.9-4.7-1.2-5.9-3.6
		C761.3,341.8,761.3,341.8,762.7,339.7z"/>
	<path fill="none" d="M618.5,177.7c1.6-1.4,3-2.2,4.9-3.2c-0.2,2-1.8,1.8-2.5,2.5c0.5,2.1-1.2,3.3-2.2,5.5
		C618,180.5,618.4,179.1,618.5,177.7z"/>
	<path fill="none" d="M623.9,194.7c-1,0.1-2,0.3-3,0.5c-0.6-1.8-1.3-3.4-1.2-5.2c0.9-0.8,1.8-0.4,2.6-0.4c0.3,1.2-0.7,1.7-0.9,2.6
		C621.8,193.3,623.1,193.7,623.9,194.7L623.9,194.7z"/>
	<path fill="none" d="M619.3,172.2c1.4-0.7,2.9-1.4,5.2-1.6c-2,1.8-3.5,3.3-5.3,5C618.7,174.3,618.8,173.3,619.3,172.2z"/>
	<path fill="none" d="M623.8,194.7c1.1,1.7,1.2,3.7,1.7,5.6c-0.9,0.3-1.2-0.4-1.7-0.7l0,0c-0.1-0.7,0.3-1.4-0.1-1.8
		c-0.9-1-1.2,0.8-1.9,0.3c-0.2-0.4-0.2-0.8,0.1-1C622.8,196.4,624,196.2,623.8,194.7L623.8,194.7z"/>
	<path fill="none" d="M845,114.5c1.7-0.2,2.5-0.3,3.6,0c-0.5,1.2-1,2.4-1.6,3.7C845.5,117.2,846.4,115.5,845,114.5z"/>
	<path fill="none" d="M623.8,199.6c0,0.6-0.2,1.4,0.1,1.6c1.7,1.5,1.1,3.4,1.3,5.2l0.1-0.1c-1.7-1.6-1.6-4-2.7-5.6
		C622.8,200,623.2,199.6,623.8,199.6L623.8,199.6z"/>
	<path fill="none" d="M863.6,150c-1.2-1.5-2.4-3.1-3.6-4.6c2.2,0.8,3.8,2,4.2,4.2C864,149.7,863.8,149.8,863.6,150z"/>
	<path fill="none" d="M625.1,206.5c1.1,0.7,2.2,1.4,3.2,2.1c0.3,0.6-0.1,0.9-0.4,1.3c-0.3,0.3-0.6,0.7-1.1,1.2
		C626.2,209.4,625.1,208.1,625.1,206.5L625.1,206.5z"/>
	<path fill="none" d="M873.7,148c-0.3,1.2,0.7,1.7,1.3,2.3c-1.4,1.4-2.5,1-3.5-0.2c0.4-1,1.3-1.5,2-2.2L873.7,148z"/>
	<path fill="none" d="M844.6,140.6c2.8-0.7,4.4,0.7,6.5,2.5C848.4,142.7,846.7,141.8,844.6,140.6z"/>
	<path fill="none" d="M850.1,122.6c0.1,0.9-0.5,1.5-0.9,2.1c-1,0-1.5-0.8-2.2-1.1c0-0.7,0.2-1.1,0.6-1.3
		C848.5,122,849.3,122.2,850.1,122.6z"/>
	<path fill="none" d="M855.4,135.4c-2.3-1.2-0.6-2.9-1.1-4.8C856.6,132.2,855.1,134,855.4,135.4z"/>
	<path fill="none" d="M630.4,217.6c1.3,0.3,2.3,0.6,3.3,0.8c0,1.3-1,1.4-1.8,1.7C631.1,219.6,630.7,218.9,630.4,217.6z"/>
	<path fill="none" d="M624.2,168.1c-1.8,1-3.2,1.9-4.8,2.8C620.1,168.7,620.1,168.7,624.2,168.1z"/>
	<path fill="none" d="M827.4,112.6c-1.3,1.3-2.3,0.9-3.4,0.1C825.1,111.6,826,111.4,827.4,112.6z"/>
	<path fill="none" d="M832.1,116.5c-0.4,1.4-0.4,2.9-0.4,4.6C830.2,119.8,830.3,118.9,832.1,116.5z"/>
	<path fill="none" d="M857,143.4c-1.7,0.1-3.3-0.3-4.9-1.8C854.4,141.5,855.7,142.4,857,143.4z"/>
	<path fill="none" d="M824.6,125.3c1.4,0.8,1.7,1.6,0.6,2.6C824,127.4,824,126.6,824.6,125.3z"/>
	<path fill="none" d="M628.9,214.7c-0.6-0.4-1-0.9-1-1.7c1.1-0.4,2,0,2.9,0.6C630.4,214.4,629.7,214.6,628.9,214.7z"/>
	<path fill="none" d="M638.3,222.2c-1.2-0.3-2.4-0.5-3.6-0.8c0-0.8,0.5-1,1.2-1.3C637,220.4,637.6,221.3,638.3,222.2L638.3,222.2z"
		/>
	<path fill="none" d="M856.4,141.1c0.8-1.3,1.4-2.2,2-3.2C858.4,140.4,858.2,140.8,856.4,141.1z"/>
	<path fill="none" d="M873.6,147.9c-0.1-1.1-0.3-2.1-0.4-3.3c1.2,0.4,1.6,1.2,2,2.1c-0.3,0.7-0.7,1.2-1.4,1.3L873.6,147.9z"/>
	<path fill="none" d="M818.5,113.7c0.8-1,1.5-1.4,2.6-0.6C820.5,114.1,819.7,114.1,818.5,113.7z"/>
	<path fill="none" d="M857.4,111.4c-0.9-0.4-2.2-0.3-2.3-1.8C856.8,109.2,856.9,110.6,857.4,111.4z"/>
	<path fill="none" d="M812.5,124.9c-0.2,1-0.8,1.3-1.7,1.5c-0.5-0.7,0.1-1,0.4-1.4C811.5,124.6,812,124.5,812.5,124.9z"/>
	<path fill="none" d="M811.1,120.9c0.7-1.3,1.3-1.6,2.5-1.4C813.3,120.8,812.4,120.9,811.1,120.9z"/>
	<path fill="none" d="M840.3,109.3c1.1-0.7,1.9-0.8,2.7-0.2C842.3,109.9,841.6,110.3,840.3,109.3z"/>
	<path fill="none" d="M878.1,153.6c0.8-0.5,1.4-0.6,2,0.2C879.2,154.6,879.2,154.6,878.1,153.6z"/>
	<path fill="none" d="M870.4,134.5c0.6,0.4,0.9,0.8,0.9,1.5c-0.6,0.7-1.2,0.4-1.7,0C869.4,135.3,869.5,134.8,870.4,134.5z"/>
	<path fill="none" d="M826.5,119.6c-0.2,1.1-0.6,1.5-1.7,1.2C824.8,119.9,825.3,119.6,826.5,119.6z"/>
	<path fill="none" d="M837.1,131.1c-0.6,0.9-1.1,0.7-1.7,0C836,130.2,836.5,130,837.1,131.1z"/>
	<path fill="none" d="M860.3,148.6c-1.2-0.3-1.5-0.7-1.5-1.7C859.6,147,859.9,147.6,860.3,148.6z"/>
	<path fill="none" d="M833.4,133.8c-0.6,0.8-1,0.9-1.7,0.3C832,133.4,832.6,133.4,833.4,133.8z"/>
	<path fill="none" d="M838.3,139.9c1.2-1.3,1.5-0.3,2.2,0C839.7,140.7,839.1,140.3,838.3,139.9z"/>
	<path fill="none" d="M759.6,343.4c-1.5-0.9-1.1-1.4-0.8-2.1C759.7,341.7,759,342.4,759.6,343.4z"/>
	<path fill="none" d="M634.1,224c0.6-0.6,1.2-0.3,1.8-0.2C635,225.1,635,225.1,634.1,224z"/>
	<path fill="none" d="M354.3,344.9c1.2-0.1,1.1,0.7,1.6,1.7C355,346,354.2,346.1,354.3,344.9z"/>
	<path fill="none" d="M841.1,134.2c-0.7,0.6-1.1-0.1-2-0.2C840.6,133.5,840.6,133.5,841.1,134.2z"/>
	<path fill="none" d="M765.5,132.2c0.7,0,1.4,0.1,2.1,0.1C766.8,132.6,766.1,132.7,765.5,132.2L765.5,132.2z"/>
	<path fill="none" d="M849,108.4c-0.3,0.8-0.7,1.1-1.3,0.6c-0.1-0.1-0.3-0.4-0.2-0.6C847.8,107.8,848.3,107.9,849,108.4z"/>
	<path fill="none" d="M837.1,106.4c0.6-0.8,1.2-0.7,1.8,0C838.3,107,837.7,107,837.1,106.4z"/>
	<path fill="none" d="M434.8,298.6c-0.1,1.1-0.5,1.3-1.1,1.4C433.5,298.8,434.3,299.2,434.8,298.6z"/>
	<path fill="none" d="M872.1,143.5c-1,0.1-1.1-0.3-1.3-0.8C871.7,142.3,872,142.7,872.1,143.5z"/>
	<path fill="none" d="M623.4,191.4c0.5,0.6,0.3,0.9-0.1,1.3c-0.3-0.1-0.6-0.3-0.8-0.4C622.6,191.8,622.8,191.5,623.4,191.4z"/>
	<path fill="none" d="M631.8,165.3c0.3-0.2,0.5-0.4,0.9-0.6C632.8,165.3,632.3,165.4,631.8,165.3z"/>
	<path fill="none" d="M703.7,179.4c-3.8-0.5-7-0.8-10.3-1.2c3.4-9.5,9.3-17.3,15.5-24.9C704.5,161.2,703.1,169.9,703.7,179.4z"/>
	<path fill="none" d="M690.9,185.8c0.5,0.5,0.5,1,0.2,1.5C690.3,186.9,690.7,186.3,690.9,185.8z"/>
	<path fill="none" d="M336.6,335c-0.1-0.7-0.2-1.1-0.3-1.5c-0.7-0.9-1.4,0.6-2.2,0c-0.4-1.6,0.4-2.5,1.9-2.9c1.1-0.3,2.1,0,2.6,1.1
		C339.2,333.3,338.5,334.3,336.6,335z"/>
	<path fill="none" d="M332.8,658.3c0.2-2.4,0.8-3.2,2.3-3.4c1-0.1,1.8,0.3,2.2,1.3c0.6,1.6-0.3,2.5-1.7,3.1c-0.9-0.3-0.1-1.4-1-1.7
		C334.1,657.8,333.6,658,332.8,658.3z"/>
	<path fill="none" d="M332.4,646.7c1.2,0,2.2,0.9,2.2,2.1c0,1.3-1.4,2.5-2.8,2.4c-1.2-0.1-2.1-1.2-2-2.3
		C329.8,647.7,331,646.7,332.4,646.7z"/>
	<path fill="none" d="M335.9,324.2c0.1,1.2-1,2.4-2.3,2.5c-1.3,0.2-2.5-0.9-2.5-2.2c0-1.2,1.1-2.3,2.5-2.3
		C334.8,322.2,335.8,323,335.9,324.2z"/>
	<path fill="none" d="M330.7,316.1c0.4-0.8,1-0.8,1.6-0.8c1,0.8,1.2,1.7,0.5,3C331,318.3,331,317,330.7,316.1z"/>
	<path fill="none" d="M329.4,639.9c0.7-0.1,1.1-0.2,1.7-0.3c0.7,1.1,1.4,2.1-0.1,3.2C329.8,641.8,329.8,641.8,329.4,639.9z"/>
	<path d="M704.4,519.9c2.8-1.4,5.1,0.7,7.6,0.7c2.5,0.1,5,0,7.5-0.5c2.5-0.6,5.1-1.1,7.9-1.7C722.4,523.9,709.3,524.7,704.4,519.9z"
		/>
	<path d="M655.6,412c-1.6,1.2-2.6,2.9-3.9,4.3c-1.3,1.5-1.6,3.5-2.8,5.1c-2.4-3.8,1.9-10.8,7.7-12.3c1.8,2.1,5.2,0.6,7.1,3
		c0.2,0.3,0.2,0.6-0.1,1.2C661,412.9,658.5,411,655.6,412z"/>
	<path d="M688.5,535.7c-1.9,0-3.5,1.4-5.7,1.4c1-0.9,14.6-9.3,15.9-9.6c-0.5,1.7-1.7,2.5-2.7,3.4c-2.3,2.1-5.3,3-7.7,4.9
		L688.5,535.7z"/>
	<path d="M630.3,521c1.3,1.3,3,0.9,4,2.2c-1.7,0.7-3.1,0-4.5-0.8c-2.5-5.4-2.9-11-2.1-16.8C628.5,510.7,629.4,515.9,630.3,521z"/>
	<path d="M698.6,451.9c2.6,0.9,4.1,3.4,6.5,4.5c2.5,1.2,5.1,1.7,8.1,2.7C705.9,459.8,700.3,457,698.6,451.9z"/>
	<path d="M691.9,498.5c3.5,2.7,7.2,8.7,7.2,11.7C697.1,509,693,502.2,691.9,498.5L691.9,498.5z"/>
	<path d="M680.8,481.7c0.9,2.7,0,4.8,0,6.8c0,2.1,0.9,4,0.8,6.2C678.6,491.2,678.2,485.8,680.8,481.7z"/>
	<path d="M735.5,513.3c4.4-3.1,8.6-6.5,13-10.8C747.2,506.5,740.4,511.9,735.5,513.3z"/>
	<path d="M729.2,427.6c3.1,1.3,5.8,3.2,8.1,5.6c1,1,2.1,2.1,1.4,3.8c-0.3,0-0.7,0.1-0.7,0.1c-2-3.1-4.6-5.5-7.6-7.7
		C729.8,428.9,728.8,428.6,729.2,427.6L729.2,427.6z"/>
	<path d="M686.3,509.3c0,4.7,0,9.3,0,14.2C684.8,520.5,684.6,512.7,686.3,509.3z"/>
	<path d="M644.1,450.3c0.5,0.4,0.8,0.6,0.8,0.7c-0.4,4.8-0.2,9.5-0.3,14.3c0,0.1-0.3,0.2-0.7,0.5
		C643.1,460.6,643.2,455.6,644.1,450.3z"/>
	<path d="M663.1,542.5c-3.6,0.5-7.3,0.9-10.9,1.4c0-0.3-0.1-0.5-0.1-0.8c3.4-1.4,6.9-2,10.7-1.9c0.1,0.6,0.2,1.1,0.2,1.5
		L663.1,542.5z"/>
	<path d="M712.9,461.5c4.4-0.8,8.3,0.4,12-0.7C721.4,463.2,716.7,463.6,712.9,461.5z"/>
	<path d="M617.7,520.6c3.4-0.7,6.2-1.3,9.1-1.2c0.6,0,1.1,0.4,1.1,1.1C625.9,521.7,622.3,521.8,617.7,520.6z"/>
	<path d="M647.2,503.2c1.5,4.2,1.7,7.9,0.5,10c-0.9,0-1.2-0.7-1.1-1.3c0.5-2.5,0.6-4.9-0.2-7.4C646.2,504.1,646.5,503.7,647.2,503.2
		z"/>
	<path d="M695.8,448.2c-1.6-2.7-1.6-5.1-1.4-7.8C696.2,442.8,696.7,445.5,695.8,448.2z"/>
	<path d="M693,426.3c-2.7-1.1-3.4-3.5-5.6-4.2C690.6,421.9,691.8,422.7,693,426.3z"/>
	<path d="M655.1,507.8c1.3,1.8,1.5,3.6,0.2,5.8C653.6,511.5,654.7,509.6,655.1,507.8z"/>
	<path d="M643.6,468.9c0,2.8,0,5.6,0,8.9C641.8,474.5,643,471.7,643.6,468.9z"/>
	<path d="M677.3,507.7c2-0.9,4.1-1.6,6.1,0C681.4,507.7,679.4,507.7,677.3,507.7z"/>
	<path d="M748.5,455.4c1.6-1.8,3.1-1,5.1-0.5C751.7,456.1,750.5,457.3,748.5,455.4z"/>
	<path d="M618.8,503.7c2.5-1.2,4.3-1.3,6.1-0.2C623.2,504.3,621.3,504.3,618.8,503.7z"/>
	<path d="M641.9,515.6c-0.7-2.3-3.2-3.4-1.5-5.8c1.6,0.5,0.7,1.8,1,2.6C641.7,513.2,642.8,513.7,641.9,515.6z"/>
	<path d="M655.4,520c-1.9-1.7-0.6-2.9-0.3-4.6C656.5,517,656.5,518.3,655.4,520z"/>
	<path d="M678.2,525c2,0.4,3.8-1.5,6.4-0.1C682.2,526,680.2,524.9,678.2,525z"/>
	<path d="M688,505.9c0.7-1.9,1.8-3.4,3.5-4.5C691,503.4,689.6,504.7,688,505.9z"/>
	<path d="M655.2,502c0.7,1.7,0.5,3,0,4.5C653.5,504.9,653.5,504.8,655.2,502z"/>
	<path d="M649.6,541.7c-2-0.5-2-0.5-3.6-3.3C648,539,648.7,540.4,649.6,541.7z"/>
	<path d="M649.9,517.2c-1.9-0.1-1.8-1.3-2-2.8C649.4,515,650.2,515.6,649.9,517.2z"/>
	<path d="M729.3,427.5c-1.5,0.1-2.9,0.1-4.3-0.9C726.7,425.8,727.9,427.1,729.3,427.5L729.3,427.5z"/>
	<path d="M672.3,490.2c-0.5-1.5-0.4-2.5,0.9-3.6C673.6,488.1,673.4,489.1,672.3,490.2z"/>
	<path d="M647.3,434.8c0.3,1.2,0.1,2.1-1.1,3C645.7,436.3,646.4,435.5,647.3,434.8z"/>
	<path d="M697.5,433.9c0-1,0-2,1.1-2.6c0.2,1.6,0.2,1.6-1.2,2.5L697.5,433.9z"/>
	<path d="M708.7,472.2c-1.2-0.4-2.1-0.7-2.3-1.7c0.1-0.4,0.3-0.6,0.7-0.4C707.8,470.6,708.4,471.1,708.7,472.2z"/>
	<path d="M673.8,493.2c-0.3,0.8-0.6,1.5-1.1,2.7C671.7,494.2,672.7,493.7,673.8,493.2z"/>
	<path d="M647.1,432.9c-0.5-1,0-1.4,0.6-2C648.2,431.9,648.1,432.5,647.1,432.9z"/>
	<path d="M728.5,460c0.7-0.7,1.2-0.7,1.8,0C729.8,460.7,729.4,461,728.5,460z"/>
	<path d="M738.2,457.7c0.4-0.8,0.8-1.3,1.6-0.6C739.7,458.1,739.1,458.1,738.2,457.7z"/>
	<path d="M697.4,433.8c-0.2,0.7-0.1,1.5-1,1.9c-0.3-1.3-0.3-1.3,1.1-1.8L697.4,433.8z"/>
	<path d="M700,518.1c1.6-0.7,1.6,0.2,2,0.7C700.9,519.7,700.9,518.5,700,518.1z"/>
	<path d="M648.6,426.4c0.5,0.6,0.3,1-0.3,1.2C647.5,427,647.7,426.6,648.6,426.4z"/>
	<path d="M467.3,586.7c-3.2,2.2-10.9,5.2-15,6.1C454.6,590.7,463.7,586.9,467.3,586.7z"/>
	<path d="M439.7,595c-2,2.2-5.2,3.3-10.6,4.1C432.5,597.3,436,596.1,439.7,595z"/>
	<path d="M483.1,572.6c-3.1,0.1-5.2,2-8.1,0.8C477.6,571.5,477.6,571.5,483.1,572.6z"/>
	<path d="M354.8,616.3c1.2-1.7,2.7-2.3,4.9-1.9C357.3,616.3,357.3,616.3,354.8,616.3z"/>
	<path d="M422.2,600.4c-0.7,1.4-1.8,1.3-2.9,1.2C420.1,601,420.8,600.1,422.2,600.4z"/>
	<path d="M366,612.3c-0.9,0.8-1.5,1.3-2.6,1C363.7,612,364.6,612,366,612.3z"/>
	<path d="M369.5,611.5c0.8-1.6,1.6-1.7,2.5-1.9C371.7,611.1,370.7,610.7,369.5,611.5z"/>
	<path d="M408.5,604.4c0.5-0.6,1.1-1,1.9-0.7C410.1,604.5,409.4,604.7,408.5,604.4z"/>
	<path d="M402.1,606c-0.6,0.8-1.1,0.6-1.6,0.4C400.9,605.8,401.3,605.6,402.1,606z"/>
	<path d="M821.7,452.7c1.1,3.6-0.3,6.3-0.9,9c-0.9,0.2-0.9-0.3-1.1-0.7c-0.2-0.3-0.4-0.5-0.6-0.7c-1.3-0.1-2.1,0.3-2.7,1.7
		c-0.2,1.1,1.6,2.8-0.6,4c-2.6,0-2.9-2.2-3.7-4c2.5-1.4,4.4-3.6,7.3-3.2c0.8-1.1,1.2-2.1,1.1-3.3c-1-0.8-2,0.1-2.9,0
		c-1.2,2.1-2.5,3.8-5.5,4.6c1.3-1.9,2.9-2.7,3.4-4.4c-0.2-0.9-1-0.7-1.4-0.9c-1.4,0.5-1.1,2.2-2.5,2.6c-0.3-1.8,0.2-3.2,1.5-4.5
		C815.9,453.8,818.7,453.8,821.7,452.7z"/>
	<path d="M841.2,476.1c7.3,2,9.1,7.4,11.3,12.4c-0.9,1.4-1.7,1.4-2.8,0.9c-0.9-1.5-1.6-3.3-2.2-5.1c-0.6-1.9-1.4-3.6-3.4-4.4
		C842.8,479.2,842.3,477.9,841.2,476.1z"/>
	<path d="M768.8,492.1c-1.9-1.6-5.1-11.2-5.9-16.8C766.8,480.7,768.6,486.1,768.8,492.1z"/>
	<path d="M770,502.8c0-3.2-2.8-5.4-1.8-8.6c2.4,0,2,2.2,2.7,3.1c0.8,1.3,2.4,1.3,2.9,2.9C773.4,502,771.8,502.2,770,502.8z"/>
	<path d="M847.4,488.7c-0.2,0.9-1,0.6-1.4,0.9c-0.4,0.2-0.7,0.5-1,0.7c-0.9-0.1-1.7-0.6-2-1.2c-0.9-1.6-1.7-3.3-2.5-5
		c0-0.1,0.2-0.4,0.4-0.7C843.7,484.4,845.7,486.4,847.4,488.7z"/>
	<path d="M810.8,471.3c0,1.2-1.2,1.6-1.6,2.4c-0.4,0.7-1.3,1.2-2.2,1.9c-0.5,1.8-1.1,3.7-1.7,5.8c-2-1.8-0.1-3.8-0.8-5.5
		C807.6,471.8,808,471.4,810.8,471.3z"/>
	<path d="M805.3,485.6c0.9,4.4,1.2,8.2,1.4,12C804,494.1,803.5,489.6,805.3,485.6z"/>
	<path d="M793.7,487.2c1.9-2.1,4.1-3.7,7-5C799.8,484.7,798.5,485.6,793.7,487.2z"/>
	<path d="M791,488.4c-1,1.9-2.9,1.8-4.5,2.4C787.6,489.2,789.2,488.6,791,488.4z"/>
	<path d="M775.8,494.1c0.9-1.3,2-2.1,3.8-1.7C778.7,494.2,777,493.6,775.8,494.1z"/>
	<path d="M798.9,467.3c1.4-1.1,2.7-1.5,4.5-0.9C801.9,467.4,800.6,467.7,798.9,467.3z"/>
	<path d="M820.5,479.3c0.9,1.1,0.9,1.8-0.1,2.7C819.7,481.1,819.6,480.4,820.5,479.3z"/>
	<path d="M820.4,477.5c-0.5-0.8-0.8-1.6,0.2-2.3c0.2,0.1,0.5,0.1,0.5,0.3C821.6,476.4,821.6,477.2,820.4,477.5z"/>
	<path d="M784,491c0.1,0.9-0.7,0.9-1.3,1.1c-0.4-0.5,0.1-0.8,0.4-1C783.3,490.9,783.6,490.6,784,491z"/>
	<path d="M747.6,661c1.9,4,1.4,8.5,2.4,12.9c0.5,0.8,1.2,1.8,2,3.1c-2.9-1.5-3.1-1.8-3.6-4.1c-0.7-3.6-0.9-7.2-1.2-10.8
		C747.2,661.6,747,661.1,747.6,661L747.6,661z"/>
	<path d="M746.2,675.2c-2.9,1.5-5.9,0.5-8.9,0.7C740.3,675.5,743.1,673.6,746.2,675.2z"/>
	<path d="M766.1,608.7c-1-2.9-0.6-5.9-0.2-8.8C766.7,602.8,767,605.7,766.1,608.7z"/>
	<path d="M764.9,571.6c-0.4,3.9-3.3,4.2-5.1,5.7C761.2,575.5,762.3,573.4,764.9,571.6z"/>
	<path d="M750,570.8c2,1.1,2.7,2.6,3.8,4.1C750.7,574,750.3,573.6,750,570.8z"/>
	<path d="M746.5,560.2c0.9,1.8,2,3.5,2.2,5.7C746.8,564.8,746.5,563.8,746.5,560.2z"/>
	<path d="M769.2,554c-0.9-1.6-0.9-3.2-0.6-5.2C770.1,550.7,769.9,552.3,769.2,554z"/>
	<path d="M758.1,663.2c-1.2-0.4-2.3-0.9-2.7-2.4C757.5,661.4,757.5,661.4,758.1,663.2z"/>
	<path d="M759.4,659c0.8,1.2,0.8,1.9,0,2.6C758.6,661.6,758.5,661.1,759.4,659z"/>
	<path d="M759.7,651.3c0.5,1.5,1.3,2.4,0.2,3.5C759.1,653.8,759.2,652.9,759.7,651.3z"/>
	<path d="M766,591.5c-0.5-0.7-0.5-1.4-0.2-2.2C766.3,590,766.3,590.7,766,591.5z"/>
	<path d="M759,641c1,0.9,1,1.4,0.2,1.8C758.4,642.4,758.8,641.9,759,641z"/>
	<path d="M768.6,541.4c0.5,0.4,0.5,0.9,0.3,1.5C768,542.5,768.7,541.9,768.6,541.4z"/>
	<path d="M431.2,641.5c-2.6,2.1-3.1,2-5-0.2C427.8,640.7,429.3,640.3,431.2,641.5z"/>
	<path d="M801,660.5c-2.8,1.5-5.3,0.9-7.6,1.2C795.7,660.9,797.9,659.6,801,660.5z"/>
	<path d="M795.5,675.1c3-0.4,5.3-0.7,7.8-1C801.7,675.7,801.3,675.8,795.5,675.1z"/>
	<path d="M452.7,266.7c4.4-2.5,9.1-4.2,13.9-5.8C465.2,263,457.1,266.3,452.7,266.7z"/>
	<path d="M439.8,269.6c-3,2.7-6.9,3.2-10.6,4.1C432.5,271.7,436.1,270.7,439.8,269.6z"/>
	<path d="M475,247.9c2.4-2.4,5-1.2,7.3-1.2C480.1,247.5,478,249,475,247.9z"/>
	<path d="M354.8,290.9c1.6-2,1.6-2,4.8-2C357.4,290.9,357.1,291,354.8,290.9z"/>
	<path d="M410.5,278.3c-0.7,0.7-1.4,1.2-2.4,0.8C408.7,278.3,409.4,277.9,410.5,278.3z"/>
	<path d="M420,275.9c0.4-0.7,1.1-0.9,1.7-1.1C422,276.5,420.9,275.9,420,275.9z"/>
	<path d="M365.8,286.7c-0.5,1.1-1.2,1.2-2.2,0.8C364.1,286.6,364.8,286.2,365.8,286.7z"/>
	<path d="M372.1,284.4c-0.6,0.8-1.3,1.1-2.2,1.1C370.2,284.4,370.9,284.2,372.1,284.4z"/>
	<path d="M400.5,281.1c0.2-1,0.7-1,1.3-0.8C401.9,281.2,401.4,281.3,400.5,281.1z"/>
	<path d="M820.3,129.7c-0.8,0.2-1.6,0.3-2.5,0.5c-1,1.9-2.5,3.6-5.3,4.7c0.9-2.1,2.9-2.9,3.2-4.6c-0.3-0.8-1-0.9-1.6-0.7
		c-1.1,0.4-0.9,1.9-2.1,2.4c-0.6-1.7,0.3-3,1.1-4.4c2.8,0.5,5.6,0.9,8.5-0.3c1.8,3.3-0.3,6-0.5,8.8c-1.4,0.5-0.9-1-1.8-0.9
		c-2.5,0.2-3,0.5-2.4,2.5c0.3,1.2,0.3,2-0.7,2.8c-2.7,0.2-3.1-2-4-4c2.6-0.8,4.3-3.5,7.3-3C820.5,131.5,820.5,131.5,820.3,129.7z"/>
	<path d="M852.2,163.6c-0.7,0.7-1.3,0.8-2.2,0.5c-1.3-1.6-1.9-3.6-2.6-5.7c-0.6-1.7-1.3-3.2-3-3.9c-1.5-0.7-2.1-2-2.8-3.4
		C846.8,151.8,851.6,157.5,852.2,163.6z"/>
	<path d="M840.6,157.9c3.1,1.1,5.2,2.9,6.8,5.6c-0.9,0.5-2,0.7-2.6,1.5c-1.2-0.4-2.5-1.1-2.5-2.2C842.4,161,840,160.1,840.6,157.9z"
		/>
	<path d="M809.6,145.2c0.5,0.1,0.9,0.2,1.2,0.7c-0.9,1.6-2.2,3-3.9,4.1c-0.5,1.9-1.1,3.9-1.7,6.1c-2-2,0.1-4.2-0.8-5.8
		C805.7,148,807.8,146.7,809.6,145.2L809.6,145.2z"/>
	<path d="M805.5,160.6c0.5,3.8,0.9,7.7,1.4,11.5c-0.3,0-0.5,0.1-0.8,0.1c-2.1-3.6-2.2-7.5-1.7-11.5
		C804.8,160.8,805.2,160.7,805.5,160.6z"/>
	<path d="M772.5,137.4c2.7-1.2,5.6-1.7,9.1-0.6c-1.7,1.6-3.3,0.9-4.7,0.9C775.4,137.7,774,137.5,772.5,137.4z"/>
	<path d="M801.3,157.3c-2.3,2.4-4.6,3.5-7.1,4.6C795.5,159.3,798.2,157.5,801.3,157.3z"/>
	<path d="M791,163c-1.9,1.6-1.9,1.6-5.2,2.2C787.7,164,789.1,162.8,791,163z"/>
	<path d="M779.3,167.2c-1,1.1-2.1,1.4-4,1.5C776.7,167.3,777.8,166.6,779.3,167.2z"/>
	<path d="M799.5,141.6c1.2-0.5,2.2-1.7,3.9-0.6C802.1,142.1,800.8,141.7,799.5,141.6z"/>
	<path d="M820.9,149.6c0.8,1,0.6,1.7-0.3,2.6C819.9,151,819.6,150.3,820.9,149.6z"/>
	<path d="M820.6,154c0.9,1.1,0.7,1.8-0.1,2.6C819.7,155.5,819.6,154.8,820.6,154z"/>
	<path d="M782.8,166.5c-0.1-0.8,0.4-1.1,1-1.1C784.3,166.3,783.4,166.3,782.8,166.5z"/>
	<path d="M759.3,135.1c-0.6,0.5-1.1,0.5-1.7,0.1C758.1,134.4,758.6,134,759.3,135.1z"/>
	<path d="M764.1,135.8c-1,0.9-1.7,0.8-2.3,0.2C762.4,135.3,763.1,135.3,764.1,135.8z"/>
	<path d="M767.4,136.9c0.7-0.6,1.2-0.3,1.5,0.4C768.3,137.8,767.7,137.7,767.4,136.9z"/>
	<path d="M431,316.1c-2.2,1.9-2.5,1.9-5-0.1C427.8,314.9,429.3,314.9,431,316.1z"/>
	<path d="M800.4,335.1c-2.2,1.3-4.7,0.5-6.9,1.3C795.6,335.2,797.9,334.3,800.4,335.1z"/>
	<path d="M803.3,348.8c-2.2,1.8-4.6,0.9-7,0.8C798.5,348.7,800.9,349.3,803.3,348.8z"/>
</g>
</svg>
