<?xml version="1.0" encoding="utf-8"?>
<!-- Generator: Adobe Illustrator 19.2.0, SVG Export Plug-In . SVG Version: 6.00 Build 0)  -->
<svg version="1.1" id="Layer_2" xmlns="http://www.w3.org/2000/svg" xmlns:xlink="http://www.w3.org/1999/xlink" x="0px" y="0px"
	 viewBox="0 0 900 600" style="enable-background:new 0 0 900 600;" xml:space="preserve">
<g>
	<path d="M632,276.8c0.5-0.1,1-0.3,1.3-0.1c0.5,0.2,1,0.7,1.2,1.2c0.4,1,0.5,2,0.8,3.1c0.3,1.1,0.9,2,2.1,2.2
		c1.2,0.2,2.1,0.9,3.1,1.6c2.6,1.8,5.1,3.8,7.8,5.5c1.8,1.1,3.1,2.6,4,4.4c1.3,2.5,2.7,5,3.7,7.6c0.7,1.8,1.1,3.9,1.3,5.8
		c0.2,2.5,0,4.9-0.1,7.4c-0.1,4.1-0.3,8.2-0.5,12.4c-0.1,2.1-0.4,4.2-0.5,6.3c-0.1,0.8-0.1,1.6,0,2.5c0.1,1.5,0.4,3-0.4,4.5
		c-0.3,0.5-0.1,1.4-0.1,2.1c0.1,0.9,0.4,1.9,0.4,2.8c0,0.8-0.4,1.5-0.8,2.8c0.1,0.6,0.4,1.9,0.7,3.3c-0.8,0.3-1.5,0.6-2.2,0.9
		c-0.1,0.2-0.2,0.5-0.1,0.7c0.7,1.8,1.4,3.5,2.2,5.2c0.4,0.9,0.4,0.9,0.1,2.9c-0.7-0.1-1.5-0.1-2.3-0.2c-0.1,0.1-0.2,0.4-0.2,0.5
		c0.3,0.9,0.8,1.7,1,2.6c0.3,1-0.7,1.9-1.7,1.7c-0.9-0.2-1.8-0.6-2.6-1c-1.3-0.6-2.5-1.3-3.8-2c-0.7,0.2-1.5,0.7-2.2,0.7
		c-0.7,0-1.3-0.4-2-0.6c-2-0.7-3.9-1.5-5.9-2.2c-0.1-0.1-0.1-0.8-0.5-0.2c0.2,0,0.4,0.1,0.6,0.1c0,0.3,0,0.7,0,1
		c-0.2,1.4-0.7,1.8-2.1,1.6c-0.3,0-0.7-0.2-1.3-0.4c-1,0.8-2.1,1.7-3.1,2.7c-1.5,1.7-3.3,2.1-5.4,1.9c-1.3-0.1-2.6-0.3-3.9-0.4
		c-2.6,2-4.4,4.6-5.7,7.5c-0.8,1.7-1.6,3.4-3.2,4.5c-3-0.2-3-0.2-5.7-3.2c-0.1,0.2-0.3,0.4-0.3,0.5c2.8,23.8,5.6,47.5,8.4,71.3
		c0.1,0.6,0.4,1.1,0.6,1.8c0.9,0.2,1.8,0.3,2.8,0.5c0.2,0.3,0.5,0.5,0.6,0.8c1.2,4.4,2.4,8.9,3.4,13.4c1.4,6,3.2,11.8,6.1,17.3
		c0.8,1.4,1.2,3,2.2,4.4c1.4,1.9,1.1,4-0.5,5.9c0.9,1.3,2.3,1.7,3.6,2.3c1.3,0.6,2.5,1.1,3.7,2c0.9,0.8,2.3,1,3.6,1.4
		c0.8,0.3,1.6,0.3,2.4,0.5c0.9,0.2,1.5,0.7,1.9,1.4c0.5,0.8,0.3,1.2-1,2.2c-0.9-0.5-1.5-1.9-2.9-1.3c-0.2-0.1-0.5-0.3-0.3-0.2
		c-0.2,0,0,0,0.3,0.1c0.2,0.4,0.3,0.8,0.6,1.4c-1.9,0.3-3.5,0.2-5-0.5c-2-1-4.1-1.8-6.2-2.6c-2.1-0.8-4.3-0.7-6.7-0.7
		c0.2,0.6,0.3,0.9,0.5,1.2c0.5,0.5,0.9,1.1,1.5,1.5c1.9,1.3,3.9,2.6,5.9,3.9c0.6-0.3,1.2-0.8,1.9-0.9c0.7-0.1,1.4,0.2,2.1,0.2
		c1.5,0.1,3.1,0.3,4.6,0.2c1.2-0.1,2.5-0.5,3.9-0.8c0.1,0.3,0.4,0.9,0.3,1.1c-0.3,0.6-0.7,1.2-1.3,1.6c-0.4,0.3-1.1,0.3-1.7,0.3
		c-2.6,0-5.2,0.2-8-0.9c0.3,0.6,0.4,0.7,0.5,0.8c1.3,1,1.4,1.8,0.2,2.7c-0.7,0.6-1.6,1-2.4,1.6c-3.1,0.4-6-0.4-8.8-1.8
		c-1.2-0.7-2.5-1.4-3.7-2.1c-2.3-1.3-4.7-2.2-7.6-2.3c-1.9,1.7-4.8,1.7-7.2,3c-0.9,0.5-1.9,0.9-2.7,1.5c-2.3,1.8-5,1.5-7.5,0.9
		c-1.8-0.4-3.1-2.1-3.9-3.9c-0.2-0.4-0.3-0.9-0.4-1c-2.3-0.9-4.5-1.6-6.5-2.5c-3-1.3-4-3.3-3.4-6.6c0.2-1,0.5-2.1,0.8-3.1
		c0.7-2.4,0.8-4.9,0.3-7.4c-1-5.7-2.1-11.4-3-17.1c-0.5-2.8-0.7-5.6-1-8.4c-0.1-0.9-0.4-1.8-0.8-2.7c-1-2.3-2.2-4.5-3.2-6.7
		c-2.8-5.8-3.8-11.9-3.3-18.2c0.2-2.1,0.1-4.2,0.2-6.4c0.1-1.2-0.2-2.3-0.9-3.3c-1.4-2-2.1-4.1-1.8-6.6c0.2-2.5-0.2-4.9,0.5-7.4
		c0.1-0.5,0.1-1.2-0.1-1.7c-0.5-1.9-1.1-3.8-1.7-5.8c-0.4,0.1-0.8,0-1,0.2c-5.3,4.2-11.5,5.9-18,6.6c-0.1,0-0.2,0-0.4,0
		c-2.9,0.1-5.4,1-7.8,2.7c-3.3,2.4-7.2,3.5-11.1,4.3c-2.6,0.5-5.4,0.8-8.1,1c-2,0.1-4,0.5-5.9,1.1c-3.9,1.2-7.8,2.6-11.9,3.9
		c-0.6,1.1-1.2,2.2-1.8,3.4c-3.4,6.9-7.6,13.3-11.9,19.7c-1.4,2.1-3,3.9-4.8,5.6c-1.6,1.5-3,3.4-4.4,5.1c-0.5,0.6-1,1.3-1.6,1.9
		c-0.3,0.2-1,0.3-1.2,0.1c-0.2-0.2-0.3-0.9-0.2-1.2c0.3-0.7,0.8-1.4,1.4-2c1.6-1.8,3.1-3.5,4.8-5.2c1.7-1.7,3.1-3.5,4.3-5.6
		c3.1-5.4,6.2-10.8,9.5-16.2c1.1-1.9,2.3-3.7,2.9-5.9c0.5-1.9,1.8-3.6,2.7-5.4c0.9-1.8,1.3-3.7,1.5-5.7c0.4-3.7,1.2-7.4,2-11.1
		c0.3-1.7,1.2-3,2.6-4.1c2-1.5,3.8-3.2,6.2-4.1c0.5-0.2,1-0.6,1.4-1.1c1.5-2,3.1-3.9,4.4-6c0.5-0.8,0.2-2.1,0.6-2.9
		c0.4-0.8,1.5-1.2,1.9-1.9c1.5-2.5,2.8-5.2,4.2-7.8c0.3-0.6,0.6-1.3,1-1.9c2.5-3.8,4.3-7.9,5.6-12.2c2-7.2,2.8-14.6,1.4-22
		c-0.5-2.7-1.6-5.2-2.8-7.6c-0.4-0.8-0.7-1.7-0.9-2.6c-0.1-0.3,0.4-0.8,0.7-1c0.2-0.1,0.7,0,1,0.1c0.4,0.3,0.7,0.6,0.9,1
		c2.8,4.8,4.6,9.8,4.8,15.4c0.2,6,0.1,12-2,17.8c-0.2,0.7-0.4,1.4-0.5,2.1c-0.3,1.9-1,3.6-2.1,5.2c-2.1,3-4.2,6-6.3,9
		c-0.9,1.2-2.1,2.3-2.1,4c0,0.4-0.4,0.8-0.6,1.2c-2.5,4.5-5.6,8.4-8.7,12.4c-0.3,0.4-0.9,0.8-1.4,1.1c-2,1.4-4,2.8-6.1,4.3
		c-0.9,5.4-1.7,10.7-2.6,16.2c0.5,0.2,1.1,0.5,1.6,0.5c4-0.1,8-0.4,12-0.5c4.1-0.2,8.2-0.8,12.2-2.1c7.9-2.7,14.3-7.2,18-15
		c0.2-0.3,0.8-0.7,1.1-0.6c0.3,0.1,0.8,0.7,0.8,1c-0.2,1-0.4,2.1-0.9,3c-1.1,1.9-2.4,3.8-3.7,5.8c0.6,0,1.1,0.1,1.6,0
		c2.2-0.5,4.3-1.1,6.5-1.7c3-0.8,5.7-2.3,8.1-4.2c6.4-4.9,11.4-10.9,14.4-18.5c0.2-0.4,0.4-0.9,0.6-1.3c0.2-0.3,0.5-0.5,0.8-0.8
		c-0.2-0.5-0.5-1-0.8-1.7c-0.5,0.3-1,0.4-1.3,0.7c-3.5,3.6-7.9,6-12.4,8c-2.5,1.1-5,2-7.9,1.4c-0.6-0.1-1.3,0.2-2,0.3
		c-0.2-0.3-0.4-0.6-0.5-0.9c-0.7-2-1.7-3.8-3.1-5.4c-2.4-2.8-4.2-6-5.5-9.4c-0.3-0.9-0.7-1.8-1-2.6c-0.6-0.4-1.2-0.7-1.8-1
		c-0.3-1,0.7-0.9,1-1.9c0-0.1-0.1-0.7-0.2-1.2c-0.7-3.2-1-6.5-0.9-9.8c0.1-7.4,0.1-14.9,0.1-22.3c0-4.1-0.1-8.2-1.7-12.2
		c-1-2.5-0.6-5.1,1.2-7.3c0.3-0.4,0.6-0.7,0.8-1.1c1.1-2,2.9-3.1,5-3.7c4.1-1.2,8.3-1.8,12.5-2.1c3.1-0.3,6.1-0.5,9.2-0.7
		c0.9-0.1,1.9,0.1,2.8,0.3c1.7,0.3,3.3,0,4.5-1.6c-0.5-0.3-0.8-0.6-1.2-0.7c-1.4-0.1-2.8-0.2-4.2,0c-14.7,2-29.4,4.1-44.1,6.2
		c-1.7,0.2-3.5,0.4-5,1.6c-2.5-0.7-4.9-0.6-7.5,0.7c1.4,0.5,2.5,0.9,3.5,1.4c3.6,1.5,7.1,3.1,10.7,4.7c1.2,0.5,2.2,1.4,3.2,2.2
		c0.6,0.5,0.5,1.3-0.2,2c-0.9-0.6-1.9-1.2-2.9-1.7c-6.3-3.2-12.9-5.8-19.9-7.1c-1.9-0.4-4-0.4-6-0.3c-2,0.1-3.9,0.8-5.5,2.1
		c-5.1,4.2-9.9,8.8-13.3,14.5c-1,1.6-2.1,3.1-3.2,4.7c-3.3,5.1-5.9,10.5-7.3,16.4c-1,4.1-1.7,8.3-2.2,12.5c-0.9,7-1.5,14.1-2.2,21.1
		c-0.6,6.1-1.2,12.2-1.8,18.3c-0.6,5.8-1.1,11.5-1.6,17.3c-0.6,6-1.1,12-1.7,18c-0.6,6.1-1.2,12.2-1.8,18.3
		c-0.6,6.5-1.2,12.9-1.8,19.4c-0.6,6.5-1.2,12.9-1.9,19.4c-0.2,2.3-0.5,4.7-0.7,7c-0.1,0.7,0,1.4,0,2.1c0.8,0.2,0.8-0.4,0.9-0.7
		c2.6-6.1,5-12.2,7.2-18.5c1-3,2.2-6,3.5-8.9c1.9-4.5,3.2-9.1,3.3-14c0-2.1,0.4-4.2,0.7-6.3c0.1-0.5,0.4-1,0.6-1.4
		c0.9,0,1,0.5,1.1,0.9c0.1,0.8,0.1,1.6,0.1,2.5c-0.1,3.1-0.3,6.1-0.4,9.2c-0.1,1.5-0.2,3-1.1,4.4c-0.5,0.7-0.6,1.5-0.9,2.3
		c-2.9,7.9-5.5,15.8-8.7,23.6c-2.7,6.7-4.9,13.5-7,20.4c-0.4,1.5-0.7,2.9-0.9,4.5c1,0.5,1.7,1,2.4,1.1c1.9,0.3,3.1,2,4.8,2.7
		c0.6,0.3,1,1.2,1.3,2c1.6,3.9,3.2,7.9,4.8,11.8c1.6,4,3.1,8.2,5.2,12c0.6,0.3,1.3,0.6,1.9,0.9c1.9,0.8,3.5,1.8,4.9,3.4
		c2.5,2.7,5.8,4.4,9.1,6.2c0.2,1,0.5,2.1,0.7,3.2c-1.3,1.7-3,1.9-4.8,1.8c-1.2-0.1-2.3-0.4-3.4-0.7c-1.1-0.3-2.2-0.8-3.5-1.3
		c-0.5,1-0.8,2-1.4,2.7c-0.7,0.8-1.6,1.3-2.5,1.9c0.4,1.2,1.4,1.7,2.3,2.2c1.5,0.9,2.8,2.2,3.7,3.7c0.6,1.1,1.5,2.1,2.4,3.1
		c1.6,1.8,3.1,3.6,4.3,5.6c-0.1,1-0.2,1.9-0.3,2.8c0,0.2-0.2,0.4-0.4,0.8c-0.3,0.1-0.8,0.3-1.2,0.3c-2.7-0.3-5.3-1-7.7-2.5
		c-2.6-1.6-5.1-3.3-6.8-6c-0.5-0.8-0.5-0.8-2.6-1.6c-0.7,0.3-0.6,1-0.5,1.5c0.2,1,0.7,2,1,3c0.5,1.3,1.2,2.7,1.3,4
		c0.1,2.4,1.1,4.3,2.2,6.3c0.4,0.8,1.1,1.6,0.6,2.7c-1,0.3-2.1,0.7-3.2,0.9c-0.5,0.1-1.2,0-1.7-0.2c-1.8-0.6-3.5-1.5-4.7-3.1
		c-0.4-0.5-0.7-1.3-1.6-1.1c-0.2-2.1-1-3.8-2.8-5c0.1-0.9-0.4-1.4-1.3-2.1c0,1.1,0.2,1.9,1.3,2c0.4,1.1,0.7,2.2,1.2,3.3
		c0.4,0.7,1.1,1.2,1.6,1.7c0.4,1.1,0.7,2.2,1.1,3.3c-1.3,0.3-2.6,0.7-3.8,0.9c-2.1,0.3-4-0.1-5.6-1.5c-0.8-0.7-1.6-1.3-2.4-2.1
		c-1.5-1.4-2.8-2.8-3.4-4.9c-0.2-0.7-0.6-1.3-1.1-2.2c-0.5,1.5-0.9,2.6-0.5,3.9c0.1,0.4,0.1,0.9,0.1,1.4c0.1,2.1-0.9,3.2-2.9,3.1
		c-1.4-0.1-2.8-0.2-4.2-0.5c-0.5-0.1-1.1-0.6-1.3-1.1c-0.3-0.9-0.5-1.8-0.6-2.7c-0.1-2-0.5-4-1.5-5.9c-0.6,0-1.3-0.1-2,0
		c-1.2,0.3-2.5,0.8-3.7,1.3c-1.3,0.6-2.7,0.7-4.1,0.7c-1.6-0.1-2.7-0.9-3.2-2.3c-0.8-2-1.2-4.1,0.3-6c0.3-0.3,0.4-0.8,0.5-1.3
		c0.8-2.6,1.5-5.2,2.3-7.8c0.4-1.2,0.4-2.2,0.3-3.4c-0.2-2.2-0.1-4.5,0-6.7c0.1-1.3,0.3-2.6,1.6-3.3c0.3-0.2,0.5-0.8,0.7-1.2
		c0.1-0.3,0.2-0.7,0.2-1c0.4-5.9,0.8-11.8-0.3-17.6c-0.7-3.8-1.5-7.6-1.3-11.6c0-0.4,0-0.7,0-1.1c1-6.6,0.2-13.2,0.4-19.8
		c0.1-3.4,0-6.8,0.1-10.3c0.1-2.1,0.2-4.3,0.8-6.3c1-3.4,1.4-6.9,1.9-10.4c0.5-4.7,2.1-9.2,3.7-13.6c0.4-1,1-1.5,1.9-1.9
		c0.3-2.2,0.7-4.4,0.9-6.6c0.1-1.6,0.6-3,1.2-4.4c1.1-2.5,2.2-5,3.1-7.5c0.4-1.1,0.6-2.3,0.6-3.4c0-1.7,0-3.3,0.6-4.9
		c0.1-0.2,0.2-0.5,0.2-0.7c-0.2-3.8,1.6-7.1,2.7-10.5c0.3-1.1,1.1-2.1,0.7-3.5c-0.4,0.2-0.7,0.3-1,0.5c-2.9,2.5-5.7,4.9-8.5,7.4
		c-0.8,0.7-1.8,1.1-2.9,1.2c-2.4,0.2-4.7,0.4-7.1,0.5c-1.3,0.1-2.6,0-4,0c-2,1.9-4.5,2.9-7.2,3.3c-1.6,0.2-3.2,0.4-4.9-0.1
		c-1.2-0.3-2.6-0.3-3.8-0.2c-3,0.4-6.1,0.9-9.1,1.6c-1.4,0.3-2.8,0.3-4.2,0.3c-6.3,0.1-12.5-0.4-18.7-1.1c-2.1-0.2-4.2-0.5-6.3-0.9
		c-1.8-0.4-3.7-0.7-5.6-0.7c-3.4-0.1-6.8,0-10.3-0.1c-1.6,0-3.3-0.3-5-0.4c-0.5-0.9-0.8-1.8-1.4-2.5c-0.5-0.6-1.2-1.1-1.9-1.6
		c-4.2-3.8-7.8-8.2-11.3-12.7c-1.3-1.7-2.7-3.3-4-4.9c-0.7-0.9-1.4-1.9-2.3-3c-1.7-0.3-3.7-0.1-5.7-0.1c-1.2,0-2.3-0.2-3.2-1.1
		c-0.6-0.6-1.4-0.9-2.1-1.4c-1.7-1.1-3.4-2.1-5.5-3.5c-1.2,0.1-3,0.2-4.8,0.3c2.3,6.1,2.9,13.4,0.3,20.4c0.3,0.6,0.5,1.3,0.8,1.9
		c0,0.1,0,0.2-0.1,0.4c-0.5,0.9-1.4,1.1-2.4,1.3c-1.5,0.2-3,0.4-4.2,1.7c-0.8,0.8-2,0.6-3,0.7c-2.1,0.1-2.1,0.1-3.9,1.1
		c-6.6-0.3-11.4-4-15.9-8.3c-1.2-1.2-1.8-2.8-1.9-4.5c0-2,0-4,0.2-6c0.3-2.7,0.6-5.4,1.1-8.1c0.3-1.7,0.1-3.3-0.6-4.8
		c-0.5-1.1-1-2.2-1.5-3.2c-0.2-0.3-0.7-0.5-1-0.8c-1,0.9-0.4,1.9-0.8,2.7c-0.3,0.9-0.6,1.8-1,2.6c-0.6,1.5-1.2,3.1-2.1,4.5
		c-1.1,1.9-1.6,3.9-1.3,6.1c0.2,1.4,0.3,2.8,0.6,4.2c0.3,1.5,0.6,3,1.3,4.4c1.3,2.5,2.8,4.9,4.1,7.4c1.3,2.4,2.5,4.8,3.7,7.2
		c0.6,1.2,0.2,2.2-0.8,3.1c-2.4,2.5-5.3,3.5-8.6,3.2c-1.7-0.2-3.3,0-4.9,0.1c-3.3,0.3-6.6,0.4-9.8-0.5c-2.4-0.6-4.8-1.2-7.2-1.9
		c-3.1-0.9-5.5-2.6-6.7-5.8c-0.4-1.1-1.2-2-1.8-3c-1.2-2.2-1.2-4.5-0.5-6.9c0.1-0.3,0.4-0.4,0.7-0.6c0.9,0.4,0.8,1.2,0.8,1.9
		c0,2.2,0.7,4.1,2.1,5.9c0.6,0.7,1.1,1.6,1.4,2.4c0.7,1.6,1.9,2.7,3.5,3.2c6.5,2.2,13.1,3.8,20.1,2.2c0.8-0.2,1.6-0.1,2.4,0
		c3,0.4,3.7,0.2,6.5-2c-1.3-3.3-2.6-6.7-4.6-9.7c-2.1-3.2-3.1-6.8-3.4-10.7c-0.1-0.6-0.1-1.2-0.2-1.7c0-0.1-0.1-0.2-0.2-0.3
		c-1.7,1.5-2,1.8-3.6,2c-2.2,0.2-4.5,0.3-6.7,0.2c-1.1,0-1.7-0.9-1.6-1.9c0.1-0.8,0.7-1.5,1.7-1.6c0.9-0.1,1.9,0,2.8-0.1
		c2.2-0.1,4.4-0.1,6.8-0.2c-0.2-0.8-0.3-1.3-0.5-2c-3.2,0.9-6.4,1-9.6,1.1c-1.1,0-2.1,0-3.2-0.1c-1-0.1-1.6-0.7-1.7-1.6
		c-0.1-0.9,0.6-1.7,1.8-1.8c0.8-0.1,1.6-0.1,2.5-0.1c2,0,4,0,6-0.1c1.4-0.1,2.8-0.4,4.2-0.7c0.4-0.1,0.7-0.5,1.4-1.1
		c-0.9,0-1.3-0.1-1.7,0c-4,1.2-8.1,1.3-12.2,0.4c-0.9-0.2-1.8-0.6-2.5-1.1c-0.3-0.2-0.5-0.8-0.4-1.2c0.1-0.6,0.6-1,1.2-1.1
		c0.5,0,1,0,1.4,0.1c3,1,6.1,0.8,9.1,0.7c1,0,2.1-0.3,3.1-0.6c1.8-0.5,1.8-0.6,3.7-0.2c2-1.9,0.4-4.6,1.9-6.7
		c-2.8-1.1-5.5-0.9-8.1-1.1c-0.2,2.5-0.3,2.6-2.2,3c-0.6,0.1-1.2,0.1-1.9,0.2c-0.2,1.4-0.9,2.1-2.4,1.8c-0.9-0.2-1.8-0.5-2.7-0.9
		c-1.4-0.6-2.6-1.6-4.3-1.4c-0.4,0.1-1.1-0.5-1.5-0.9c-2.6-2.7-3.8-5.9-3.1-9.7c0.2-1.1,1-1.1,1.8-1.5c-0.6-1.1-0.4-2.2,0.1-3.3
		c1.3-2.8,2.2-4.2,3.8-5.2c0.5,0.4,0.3,0.8,0.1,1.2c-1.1,1.7-2.2,3.4-3.2,5c0.4,1.1,0.8,1.9,0.9,2.8c0.3,2.2,1.6,3.6,3.3,4.8
		c0.9,0.6,1.8,1.1,2.7,1.7c0.4,0.3,0.8,0.8,1.1,1.1c-0.5,1.1-1.3,1-1.9,0.7c-1.5-0.9-3-1.9-4.4-2.9c-0.7-0.6-1.3-1.4-2-2.2
		c-0.6,1.7,0.5,2.7,1.1,3.9c0.9,2.2,3.2,2.2,5,3.2c2.5-1.5,5.2-0.7,7.9-1c-0.4-0.2-0.9-0.5-1.3-0.5c-1-0.2-2.1-0.2-3.1-0.4
		c-0.2,0-0.4-0.3-0.5-0.4c-0.2-0.9,0.4-1.4,1.2-1.4c1.8-0.1,3.5-0.2,5.3,0c4.9,0.5,9.8,1.4,14.7,1.7c6,0.4,11.5,2.6,17.2,4
		c1.7,0.4,3.3,1.2,4.9,1.9c2.4,1.1,4.9,1.7,7.5,1.9c0.6,0,1.4,0,1.7-0.3c1.4-1.8,2.8-0.9,4.3-0.2c-0.1,0.7-0.1,1.3-0.2,1.8
		c0.2,0.2,0.4,0.4,0.6,0.5c2.4,0.7,4.7,1.5,6.7,3.1c0.4,0.4,1,0.6,1.6,0.6c1.9,0.1,3.7,0.1,5.7,0.1c0.4-1.7,0.2-3.2,0.2-4.7
		c0-1.7,0.1-3.3,1-4.8c0.5-0.9,0.5-1.8,0.5-2.7c0-1.7,0-3.3-0.1-5c-0.2-6.7-0.2-6.7,1.4-13c-1.1-1.2-3.1,0.2-4.1-1.3
		c-0.1-0.6,0.3-0.9,0.8-0.9c1.5-0.1,3.1-0.2,4.6-0.2c1.1-0.7,1.8-1.7,2.9-3c-1.7,0-3,0-4.2,0c-4.8,0.2-9.4-0.7-13.5-3.4
		c-2.6-1.7-5.5-2-8.4-2.5c-6.6-1.2-13.2-1-19.7,0c-1.9,0.3-3.7,0.9-5.5,1.5c-0.6,0.2-1.3,0.6-1.8,1.1c-1.7,1.6-3.7,2.5-5.8,3.2
		c-3.7,1.3-7.4,2.4-11,3.8c-3.3,1.2-6.7,1.3-10.1,1.4c-0.7,0-1.4-0.3-2-0.5c-0.4-0.1-0.5-1-0.1-1.2c0.6-0.4,1.2-0.7,1.9-1.1
		c-1.4-1.2-2.9-1.7-4.6-1.5c-1.5,0.1-3,0.5-4.5,0.9c-2.3,0.7-4.5,1.6-6.7,2.1c-1.5,0.4-3,0.6-4.2,1.7c-0.5,0.4-1.2,0.6-1.9,0.9
		c-0.8,2.3-1,4.7-1,7c-0.1,3.5,0.4,6.8,1.9,9.9c0.3,0.5,0.6,1.1,0.6,1.6c-0.1,2.3,1.3,3.8,2.7,5.1c1.3,1.2,1.8,2.6,2.3,4.2
		c1.5,4.7,1.1,9.3,0.2,14c-0.1,0.6-0.4,1.1-1.3,1.1c-0.6-1.7-0.8-3.6-0.8-5.5c0-1.8,0-3.5,0.1-5.3c0.1-2.8-0.8-5.3-2.6-7.5
		c-1.4-1.7-2.5-3.7-3.7-5.6c-0.8-1.3-1.2-2.8-1.1-4.4c0.1-0.9-0.2-1.9-0.3-2.8c-0.5-3.1-0.5-6.1-0.2-9.2c0.1-0.9,0.4-1.8,0.7-2.7
		c0.1-0.4,0.4-1.1,0.7-1.2c2.3-0.7,3.4-3.4,6.2-3.6c2.2-0.2,4.3-0.9,6.4-2c4.6-2.5,10.1-1.8,14.4,2.1c0.3,0.2,0.4,0.6,0.7,0.9
		c4.2-0.3,7.8-2,11.8-3.2c0.1-0.8,0.1-1.5,0.2-2.1c0.1-0.6,0.1-1.2,0.3-1.7c1.5-6.2,6.8-8.1,12.7-6.8c2.7,0.6,5.4,1.6,8.2,2.4
		c1.3-0.4,2.7-0.8,4-1.2c2.9,1.6,5.9,1.2,8.9,0.8c1.7-0.3,3.5-0.7,5.2-1.1c0.8-0.2,1.6-0.4,2.3-0.8c3.5-2,7.3-2.6,11.2-3.2
		c3.4-0.5,6.8-0.9,10.2-1.1c2-0.1,4,0.2,5.9,0.6c2.5,0.6,5,1.4,7.5,2.1c4.6,1.3,9.3,2.7,13.9,4c1.5,0.4,3,0.7,4.5,0.6
		c1,0,2.1,0.3,3.1,0.5c5.8-1.5,10.5-5.1,15.1-8.9c0.9-0.8,1.8-1.5,2.6-2.4c1-1,2.2-1.7,3.6-2.1c2.2-0.5,4-1.9,5.8-3.3
		c4.2-3.2,8.7-6.1,13.4-8.5c3.4-1.7,7-1.7,10.7-1.2c4.6,0.7,9.1,0.8,13.7-0.1c3.2-0.6,6.3-0.6,9.4,0.6c2.7,1,5.4,1.8,8.2,1.9
		c1.2,0,2.3,0.5,3.2,1.3c0.3,0.3,0.4,0.8,0.6,1.1c-0.3,0.2-0.5,0.5-0.7,0.5c-3.8-0.4-7.7-0.7-11.3-2.2c-3.2-1.3-6.4-1.4-9.7-0.9
		c-5.1,0.7-10.1,0.6-15.3-0.8c-1.1,0.6-2.4,1.1-3.8,1.1c-1.5,0.1-3.1,0.3-4.5,0.9c-4,1.7-7.8,3.8-10.9,7c-2.4,2.5-5,4.6-8.6,5.2
		c-1.1,0.2-1.9,0.8-2.8,1.5c-2.1,1.7-4.3,3.3-6.4,5c-2.9,2.3-6.2,3.9-9.4,5.5c-0.9,0.4-2,0.5-3.1,0.6c-1.5,0.2-3.1,0.2-4.5,0.6
		c-6.4,1.6-13,2.5-19.6,2.7c-0.8,0-1.6,0.1-2.6,0.2c-2,2-4,3.9-5.9,6c-1.9,2-3,4.5-3.5,7.2c-0.3,1.8-0.5,3.7-0.5,5.6
		c-0.1,2.8-0.1,5.7-0.2,8.5c-0.1,1.3-0.4,2.6-0.5,3.8c-0.1,2.7-0.2,5.4-0.2,8.1c0,0.6,0.3,1.4,0.7,1.9c2.8,3.6,5.8,7.2,8.6,10.8
		c3.1,3.9,6.5,7.4,10.6,10.9c2.2,0,4.7,0,7.2,0.1c3.2,0,6.4-0.1,9.5,0.6c1.3,0.3,2.6,0.5,3.8,0.8c5.7,1.7,11.6,2,17.5,2.6
		c0.5,0,0.9-0.1,1.3-0.1c0.3-0.7,0-0.9-0.4-1.2c-4.2-2.8-8.9-4.3-13.7-5.5c-6.1-1.5-12.1-2.9-18.2-4.4c-0.4-0.1-0.7-0.5-1.1-0.7
		l-0.1,0.1c0.7,0,1.4-0.1,2.1,0.1c6.4,1.4,12.9,2.7,19.3,4.2c3.6,0.8,7,2.1,10.2,3.9c1.8,1,3.5,2.3,5.5,3.5c1-0.2,2.2-0.2,3.3-0.6
		c4.5-1.4,9.2-1.8,13.9-2c1.3-0.1,2.6-0.2,3.8-0.7c3.3-1.4,6.5-2.8,9.6-4.4c1.8-0.9,3.4-2.1,4.5-3.9c0.2-0.3,0.5-0.4,0.8-0.6
		c1,0.4,0.9,1.2,0.5,1.8c-0.6,0.9-1.4,1.6-2.1,2.3c-0.7,0.7-1.6,1.3-2.3,1.9c0.2,0.9,0.8,0.6,1.2,0.6c0.9,0,1.9,0,2.8-0.1
		c5.2-0.3,5.2-0.3,9.3-3.4c5.3-4,7-5.6,9.6-8.8c-0.1-0.8-0.8-0.8-1.3-0.7c-1.7,0.3-3.5,0.5-5.2,0.9c-4.5,1-8.9,0.7-13.4,0.1
		c-1.2-0.1-2.3-0.5-3.4-0.9c-2.9-1.3-5.9-2.3-9-3.2c-2.1-0.6-3.9-1.7-5.5-3.1c-0.9-0.8-1.6-1.7-1.7-3c-0.1-0.9-0.5-1.8-0.7-2.7
		c-0.7-2.8-1.8-5.7-1.9-8.6c-0.1-2.6,0.1-5.3,1-7.9c0.5-1.3,0.4-2.5,0.2-3.8l-0.1,0.1c0.4-0.7,0.9-1.3,1.6-2.4
		c-0.9-0.4-1.6-0.8-2.4-1.1c0.1-0.2,0.2-0.3,0.3-0.5c0.3,0,0.7-0.2,0.9-0.1c1.1,0.4,1.5-0.1,1.6-1.3c-0.8-0.3-1.6-0.6-2.4-0.8
		c-0.3,0.2-0.5,0.4-0.6,0.5c-0.6,0.9-0.5,2.3-1.8,3c-0.2-3.4,1.8-5.8,3.1-9c0.5,0.7,0.8,1.3,1.2,1.7c0.6,0.4,1.3,0.5,2,0.7
		c0.9-0.8,1.4-1.9,1.7-3.1c-1-0.2-2-0.4-3.2-0.7c1.3-1.7,2.7-0.8,4.2-0.8c1.3-1.8,2.6-3.7,3.9-5.6c-1.2-0.7-2.2-0.6-3,0.2
		c-1.3,1.2-2.6,2.4-4.2,3.9c0.1-0.8-0.1-1.3,0.1-1.6c0.7-1.1,1.5-2.2,2.4-3c2.5-2.2,5.1-4.2,7.5-6.1c1.6-0.1,2.9-0.2,4.2-0.2
		c0.1-0.8,0.3-1.4,0.4-2.3c-2-1.1-4.1-1.6-6.3-1.9c-2.5-0.3-4.9-0.5-7.4-0.7c-0.7-0.1-1.4-0.2-2-0.3c-0.2-0.7,0.1-1.1,0.6-1.2
		c0.9-0.2,1.9-0.4,2.8-0.4c3.5,0.1,7,0.5,10.5,1.6c1.3,0.4,2.4,0.8,3.2,2.2c2.4-1.5,4.7-3,7-4.4c0.4-0.2,0.6-0.6,1-1l-0.1,0.1
		c3.2-0.4,3.2-0.4,5.2-1.9c4.1-0.7,7.9-1.3,12-2c1.2-1,2.7-2.1,4.1-3.4c0.6-0.5,1.2-1.1,1.6-1.8c1.3-2.4,3.4-4.2,5.4-6
		c2.8-2.4,5.6-4.7,8.4-7.1c1-0.8,1.8-1.8,2.8-2.7c1.1-0.9,2.1-1.9,3.3-2.6c4.7-2.9,9.7-5.4,14.9-7.3c1.5-0.6,3-1.3,4.5-2
		c1.2-0.6,2.4-0.9,3.7-1c5.3-0.5,10.5-1,15.8-1.6c1.3-0.1,2.6-0.3,3.9-0.5c2.2-0.3,4.4-0.7,6.4-1.8c3.9-1.9,8-2.6,12.3-2.7
		c2.2-0.1,4.5-0.2,6.7,0.1c3.5,0.5,6.8-0.4,10.2-0.6c0.6,0,1.2-0.2,1.7-0.5c3.5-2,7.3-1.6,11.1-1.3c2.9,0.3,5.8,0.8,8.6,1.7
		c2,0.6,3.6-0.2,5-1.7c0.2-0.3,0.5-0.5,0.6-0.8c1.2-2.6,3.5-4.3,5.5-6.3c1.2-1.2,2.3-2.3,3.5-3.5c0.5-0.5,1.1-1.3,1.6-1.3
		c2.8,0.1,4.3-2.2,6.6-3.1c0.4-2.9,2.6-3.7,5-4.2c0.9-0.2,1.9-0.3,2.8-0.4c3-0.3,6.1-0.7,9.1-0.9c1.5-0.1,3,0.1,4.6,0.2
		c0.7,0,1.3,0.5,2.2-0.1c0.2-1.1-0.2-2.4-0.5-3.6c-0.3-1.3,0.1-2.2,0.9-2.3c1-0.1,1.4,0.7,1.6,1.5c0.2,0.5,0.4,1.1,0.7,1.7
		c2.9-1.4,4.6-4.3,7.7-4.9c0.2,0,0.4,0.1,0.6,0.2c0.5,0.8,0,1.3-0.4,1.9C633,274.8,631.8,275.5,632,276.8c-1.2,0.5-2,1.4-2.1,2.9
		c-0.1,0-0.2,0-0.3,0.1c0,0,0,0.1,0,0.2c0.1-0.1,0.2-0.3,0.2-0.4C631.3,279.2,631.8,278.1,632,276.8z M644.8,290.3l-0.1-0.1
		L644.8,290.3c0.2,0.2,0.4,0.5,0.6,0.8c1,0.9,1.9,1.8,2.9,2.7c0.3,0.2,0.5,0.5,0.8,0.7c0.2,0.2,0.5,0.5,0.7,0.7c0,0.1,0,0.2,0.1,0.3
		c0,0,0.1,0.1,0.2,0.1c-0.1-0.1-0.2-0.2-0.4-0.3c-0.2-0.2-0.5-0.5-0.7-0.7c-0.3-0.2-0.5-0.5-0.8-0.7c-0.3-1.5-0.8-2.9-2.8-2.7
		C645.2,290.9,645,290.6,644.8,290.3z M605.8,282.4c0.1-0.1,0.2-0.1,0.3-0.2C606,282.3,605.9,282.4,605.8,282.4c0,0.2,0,0.2,0,0.3
		C605.8,282.6,605.8,282.5,605.8,282.4z M616.5,288.3l-0.2,0L616.5,288.3l0.1-0.3L616.5,288.3z M606,302.5c-0.3,0.2-0.5,0.5-0.8,0.7
		c-3.3-0.1-3.5,0-5.2,2.3c2.2,0.1,3.8-0.8,5.1-2.4C605.4,302.9,605.6,302.7,606,302.5C606.1,302.3,605.9,302.5,606,302.5z
		 M639.2,353.3c0,0.2,0,0.4,0.1,0.6c0,0.1,0.1,0.2,0.1,0.3c0.1-0.2,0.2-0.4,0.2-0.4C639.5,353.6,639.3,353.5,639.2,353.3
		c-0.1-0.5,0-1.1-0.8-1.3c0.2-2-0.9-3.6-1.8-5.2c-0.4,2.1,0.5,3.7,1.9,5.1C638.5,352.4,638.5,353,639.2,353.3z M611.6,308
		c0.2-0.5,0.4-1,0.5-1.5c0.3-0.1,0.7-0.1,0.9-0.3c1.1-1,2.1-2.1,3.2-3.3c0.3-1,0.6-2.3,0.9-3.5c0.9,0.3,1.9,0.5,3.3,0.9
		c-0.4-2-0.2-3.8-1-5.6c-1.7,1.4-1.5,3.3-2.2,4.8c-1,1.1-1.9,2.3-3,3.3c-1.2,1-1.9,2.2-2,3.8C611.6,306.9,611.7,307.5,611.6,308
		c-0.2,0.3-0.5,0.6-0.7,0.8c-0.2-0.4-0.6-0.7-0.6-1.1c0-0.8,0.9-1.4,0.1-2.5c-1.6,2-4.2,2.9-5.6,5.4c1.6,0,3,0,4.4,0
		c0.6-0.6,1.1-1.3,1.6-1.9C611.1,308.5,611.3,308.3,611.6,308z M443.7,546.7c0.2-0.5,0.4-1,0.6-1.5c0.6-0.3,0.6-0.9,0.7-1.4
		c0.3-0.2,0.6-0.3,0.8-0.5c1.5-2.1,3-4.2,4.4-6.4c2-2.9,3.1-3.7,7-4.7c0.2,0.5,0.6,1,0.7,1.5c0.4,2.5,1.8,4.6,3.2,6.6
		c1.7,2.5,3.4,5.1,4.9,7.7c2,3.3,3.4,6.7,3.7,10.5c-0.6,0.9-1.3,1.7-1.8,2.6c-0.5,0.9-0.5,1.9,0.2,2.6c1.5,1.5,2.9,3.1,4.8,3.9
		c2.9-1.6,2.8-1.6,2.1-4.7c-0.1-0.4-0.2-0.9-0.2-1.4c0.1-2.3-0.8-4.4-2-6.3c-3.4-5.4-6-11.2-8.3-17.2c-1.1-2.7-2.3-5.4-3.4-8.2
		c-0.7-1.8-2.6-2.6-3.6-4.1c-0.2-0.3-0.9-0.3-1.3-0.3c-0.5,0-1,0.1-1.4,0.3c-1.9,0.9-3.8,1.9-5.6,2.9c-0.4,0.2-0.8,0.6-0.9,1
		c-0.7,2-1.7,3.9-1,6.1c0.2,0.7,0,1.6-0.2,2.4c-0.6,1.9-1.4,3.7-2.2,5.6c-0.2,0.5-0.5,1-0.7,1.4c-0.2,0.5-0.4,1-0.6,1.5
		c-0.3,0.2-0.6,0.4-0.9,0.6c-3.5,4-6.4,8.4-9.1,13c-1.6,2.6-3.4,5.1-3.8,8.3c0,0.3-0.2,0.7-0.5,0.9c-1.7,1.5-2.2,3.5-2.9,5.5
		l0.1-0.1c-1.8,1.8-1.7,4-1.4,6.2c0.2,1.3,0.8,1.9,2.1,1.8c2.7-0.1,5.2-1.1,7.8-2.2c-0.9-2.7-0.9-5.7-3.7-7.5c0.5-1.2,1-2.3,1.4-3.3
		c1.8-4.1,3.7-8.1,5.5-12.2c0.4-0.9,0.8-1.7,1-2.6c0.1-1,0.7-1.7,1.1-2.5c1-1.7,2.4-3.2,2.2-5.4
		C443.2,547.1,443.4,546.9,443.7,546.7z M619.4,303.2c-0.2,0.4-0.4,0.8-0.2,0.4C619.2,304,619.2,303.6,619.4,303.2
		c0-0.3,0.1-0.5,0-0.3C619.5,302.6,619.5,302.9,619.4,303.2z M632.1,497c0.1,0.6,0.3,0.7,0.9,0.3C632.6,497.3,632.3,497.2,632.1,497
		c-0.9-0.9-2-0.5-3-0.5c-0.2-0.2-0.3-0.6-0.5-0.7c-1.1-0.5-2.3-0.8-3.5-1.3c-0.3-0.1-0.6-0.6-0.9-0.9c0.7-0.9,1.6-0.7,2.3-0.8
		l0.1,0.2l-0.2-0.1c-1.3-1.1-2.9-1.5-4.5-1.7c-2.4-0.2-4.6-1.2-6.5-2.4c-2.4-1.5-5-1.7-7.7-2.2c-2,3.3-3.2,6.7-4.4,10.1
		c-0.3,1-0.5,2.1,0.3,3.1c1.5,0.1,3-0.7,4.5,0.3c0.3,0.5,0.6,1.1,0.9,1.7c1.5,0.3,2.8,0.7,4.2,0.8c2.3,0.1,4.3,1,6.3,2
		c1.4,0.7,2.7,1.5,4,2.2c2.6,1.4,5.2,1.6,8.2,0.4c-0.8-0.5-1.4-0.9-2-1.2c-2.3-1.1-4.5-2.6-6.3-4.5c-1-1.1-2.2-1.6-3.7-1.8
		c-2.1-0.4-4.1-1-6.1-1.5c-0.6-0.2-1.4-0.4-1.4-1.6c0.5,0,1.1-0.1,1.6,0c2,0.3,3.9,0.7,5.9,1c0.1,0,0.3-0.1,0.5-0.2
		c-0.7-0.6-1.3-1.2-1.9-1.8c0.6-1,1.3-0.8,1.9-0.6c2.9,0.9,6,1,9,1.4C630.1,497.1,631.1,497.1,632.1,497z M632.8,356.9
		c-0.1-0.1-0.1-0.1-0.2-0.2C632.7,356.8,632.8,356.8,632.8,356.9c0,0.8,0,1.6,1.5,1.9C633.7,358,633.3,357.5,632.8,356.9z
		 M589.6,334.2c0.9,0.1,1.8-0.2,2.3-1C590.1,332.5,590.1,332.5,589.6,334.2c0,0.1-0.1,0.2-0.2,0.3
		C589.5,334.4,589.5,334.3,589.6,334.2z M603.7,295.2c-1.2,0.1-1.9,0.9-2.6,2c1.6,0.1,2.7-0.1,2.8-1.8c0.4-0.1,0.6-0.2,0.2-0.6
		C603.9,294.9,603.8,295,603.7,295.2z M627,306.7c0-1.2,0-2.5,0-3.7C626.8,304.2,626.3,305.5,627,306.7c0.1,1.3-0.1,2.7,0,4.1
		c0,0.5,0.6,1,0.9,1.6c0.1-1.8-0.1-3.6-0.4-5.3C627.5,307,627.2,306.9,627,306.7z M625.6,338.5c0-0.2,0.1-0.4,0-0.6
		c0-0.1-0.2-0.2-0.3-0.3c0,0.2-0.1,0.4-0.1,0.6C625.3,338.3,625.5,338.3,625.6,338.5c0,1.3,0.5,2.4,1.3,3.5c0.2,0.3,0.6,0.7,1.3,0.2
		C627.5,340.9,627.3,339.2,625.6,338.5z M590.3,322.8c0.1,0.3,0.2,0.5,0.1,0.3C590.6,323.3,590.4,323.1,590.3,322.8
		c-0.1-1.1-0.1-2.2-0.1-3.3c-0.8-0.4-1.5-0.7-2.4-0.3C588.7,320.6,589.5,321.7,590.3,322.8z M631.3,284.7c-0.1-0.3,0-0.8-0.5-0.2
		C631,284.5,631.2,284.6,631.3,284.7c1,2.2,1.6,2.7,4.3,3.1C634.7,286,633.3,284.9,631.3,284.7z M609.4,318.7
		c-1.7,0.5-2.7,1.5-2.2,3.5c0.1,0.4-0.4,1-0.6,1.5l-0.2,0l0.2-0.1c0.7,0,1.5-0.1,1.7-0.8C608.8,321.4,609.7,320.2,609.4,318.7
		l0.1-0.2L609.4,318.7z M609.4,294.5c1.2,0,1.9-0.8,2.5-1.6c0.8-1.1,1.6-2.2,2.4-3.3c0.1-0.1,0.2-0.1,0.3-0.2c0,0,0-0.1,0-0.2
		c-0.1,0.2-0.1,0.3-0.2,0.5c-0.2,0-0.5-0.2-0.7-0.1C611.9,290.4,610.4,292.2,609.4,294.5c0,0.1-0.1,0.2-0.2,0.3
		C609.3,294.7,609.4,294.6,609.4,294.5z M637,285.4c0-0.1,0-0.2-0.1-0.3c0-0.1-0.1-0.1-0.2-0.1C636.8,285.1,637,285.2,637,285.4
		c1.6,1.8,3.3,3.5,5.4,4.8c0.4-0.5,0.7-0.8,1-1.2C641.3,287.6,639.6,285.7,637,285.4z M534.3,306.6c-3,0.3-6.1,0.5-9.1,0.8
		c-4.4,0.5-8.9,1-13.3,1.6c-0.3,0-0.6,0.3-0.9,0.5c-0.5,0-0.9-0.2-1.4-0.1c-3.7,0.4-7.5,0.9-11.2,1.4c-0.7,0.1-1.5,0.2-2,0.6
		c-1.8,1.3-3.8,2.3-5.3,4c-1,1.1-2.1,2.2-3.3,3.2c-3.5,3.1-6.3,6.7-8.6,10.7c-2.4,4.1-4.7,8.1-6.9,12.4c-2,3.9-3.7,7.9-4.4,12.3
		c-0.9,5.7-1.5,11.5-2.1,17.2c-0.6,6.1-1.1,12.2-1.7,18.3c-0.9,9.6-1.8,19.2-2.7,28.9c-0.5,5.6-1,11.3-1.6,16.9
		c-0.8,8.6-1.7,17.1-2.5,25.7c-0.8,8.7-1.5,17.4-2.4,26.1c-1.1,11.3-2.2,22.5-3.3,33.8c-0.1,1.1-0.5,2.3,0.3,3.6
		c0.5-0.2,1-0.4,1.5-0.7c0.1-1.5,0.2-2.8,0.3-4.1c0.7-6.7,1.3-13.4,2-20.1c0.6-6,1.2-12,1.7-18c0.8-8.1,1.6-16.2,2.4-24.3
		c0.6-6.2,1.2-12.4,1.8-18.7c0.9-9.2,1.8-18.3,2.7-27.5c0.6-6.1,1.2-12.2,1.8-18.3c0.6-5.8,1-11.5,1.7-17.3c0.6-5,0.5-10.1,1.9-15.1
		c0.4-1.3,0.3-2.8,0.4-4.2c0.2-1.8,0.3-3.5,0.7-5.2c1.2-4.6,2.7-9,5.5-13c0.4-0.6,0.7-1.2,1.1-1.8c1.8-3.2,3.6-6.4,5.5-9.5
		c2.6-4,5.9-7.3,9.5-10.5c2.4-2.1,5-4,7.8-5.4c0.7,0.1,1.4,0.5,2,0.4c2.8-0.4,5.6-0.9,8.4-1.4c0.1,0,0.2-0.4,0.3-0.6
		c2.2,0,4.4,0.1,6.6-0.1c3.3-0.4,6.6-1.1,10-1.3c2-0.1,3.9-0.5,5.9-0.8C533.7,307,533.9,306.7,534.3,306.6c1.2-0.1,2.4-0.1,3.6-0.1
		C536.7,306.1,535.4,305.7,534.3,306.6z M642.1,360.3c0,0.1,0,0.2,0,0.3c0,0.1,0.1,0.1,0.2,0.1C642.2,360.7,642.1,360.5,642.1,360.3
		c-0.5-0.5-0.8-1.1-1.3-1.6c-2-2.3-4-4.5-5.9-6.8c-0.7-0.8-1.2-1.6-1.7-2.3c0.4-1.4,1.1-0.7,1.7-0.5l0.1,0.1l-0.2-0.1
		c-0.1-0.4-0.1-0.8-0.2-1.4c-1.3,0.1-2.4,0.2-3.5,0.3c1.4,3.4,3.6,5.9,6,8.4c1,1,1.9,2,3,3C640.5,359.9,641.1,360.6,642.1,360.3z
		 M601.6,286.1c-0.8,0.4-1.7,0.7-2.5,1.2c-3.9,2.7-7.7,5.4-11.6,8.1c-1.6,1.2-2.9,2.6-3.8,4.4c0.8,0.3,1.1-0.3,1.5-0.7
		c2.7-2.3,5.5-4.5,8.5-6.2c2.9-1.7,5.1-4.1,7.6-6.3C601.5,286.5,601.5,286.2,601.6,286.1c0-0.2,0.1-0.2,0.2-0.3
		C601.7,285.9,601.7,286,601.6,286.1z M598.8,505.6L598.8,505.6c-0.4-0.4-0.9-0.9-1.5-1.3c-2.5-2.2-2.7-4.2-1-7.4
		c0.2,0.1,0.5,0.1,0.6,0.3c0.3,0.4,0.4,0.8,0.6,1.2c0.5,1.2,0.9,2.4,1.3,3.6c0.5,1.3,1.6,2,2.7,2.7c1.3,0.7,2.5,0.2,3-1.3
		c0.1-0.3,0.1-0.7,0.1-1.2c-1.4-0.4-2.9-0.8-4-2.4c0.1-0.8,0.1-1.9,0.2-2.9c0.4-2.6,1.1-5,2.2-7.4c1.9-4.2,3.3-8.6,4-13.2
		c0.4-2.3,0.9-4.6,1.4-6.9c0.8-3.8,2.2-7.5,3.9-11c0.3-0.6,0.8-1,1.3-1.5c1.5,0.8,1.7,2.2,2.1,3.4c2.2,6.2,3.6,12.7,4.9,19.2
		c0.4,2.1,0.9,4.1,0.9,6.3c-0.8,0.6-1.7,1.2-2.6,2c2.1,2.1,4.6,2.1,7,2.5c0.7,0.1,1.7-0.8,1.8-1.5c0.1-0.8-0.3-1.6-1.2-1.9
		c-0.7-0.3-1.5-0.5-2.2-0.8c-0.2-1.8,1.8-1.4,2.3-2.5c-3.4-4.8-5.5-10.1-7-15.8c-0.6-2.5-1.2-5-1.8-7.6c-0.6-2.6-1.2-5.2-1.8-7.9
		c-2.1-0.1-4-0.3-5.6,0.5c-0.7,2.7-1.1,5.2-1.9,7.5c-0.7,2.2-1.7,4.4-2.6,6.6c-3.3,7.7-6.2,15.6-8.3,23.7c-0.4,1.4-0.8,2.7-1.2,4.1
		c-0.1,0.3-0.6,0.5-1.3,1.1c0.1-1.7,0.1-2.9,0.3-4c0.4-4.4,1.6-8.6,3-12.7c0.6-1.7,1.1-3.3,1.1-5.2c0.1-9.4,0.3-18.9,0.4-28.3
		c0-0.6,0.1-1.3-0.2-1.7c-1.4-1.8-0.9-3.9-0.7-5.8c0.5-5.4,1.4-10.8,2.7-16c0.8-3.1,0.7-6.3,0.7-9.5c0-0.8-0.2-1.7-0.6-2.4
		c-0.7-1.5-1.5-2.9-2.5-4.2c-1.6-2-2.5-4.2-2.7-6.8c-0.4-4.6-0.7-9.2-0.8-13.8c0-2-0.2-4-0.9-5.8c-2.1-0.9-2.6,1.3-4,2
		c-1.6-0.9-3.5,0-5.4-0.6c-1.9-0.6-3.8-1.2-6-1c-3.1,6.9-6.4,13.7-12.2,18.6c0.9,2.8,1.7,5.3,2.5,7.8c-1.2,3.9-0.9,7.8-0.5,11.7
		c0.1,1.2,0.4,2.3,1.5,3.1c0.6,0.5,0.9,1.1,0.9,1.8c-0.1,3.7-0.1,7.3-0.4,10.9c-0.3,2.4-0.3,4.7,0.5,7c0.9,2.7,1.8,5.4,2.9,8
		c1.2,2.7,2.1,5.5,2.9,8.3c0.9,3.1,1.6,6.1,2,9.3c0.1,0.7,0.3,1.4,0.4,2.1c1.1,5.5,2.3,11.1,3.4,16.6c0.7,3.3,0.5,6.5-1.3,9.6
		c-1,1.6-0.6,3.6,0.8,4.9c1.4,1.3,3,2.4,5,2.3c2.2-0.1,3.5,1,4.2,3c0.2,0.6,0.6,1.3,1.1,1.7c1.3,1.3,4.7,1.5,6.3,0.5
		c0.4-0.3,0.5-0.8,0-1.2C599.5,505.9,599.1,505.8,598.8,505.6z M618.6,366.7c3.2-0.6,6.4-1.2,9.8-1.8c1-1.3,2.1-2.7,3.1-4
		c-0.8-2.8-1.5-5.4-2.2-7.9c-0.4-1.3-1.9-3.5-3.3-5c-0.4,2.8,0,5.4,1.4,7.8c0.5,0.8,1,1.6,1.3,2.5c0.1,0.3,0,1-0.2,1.2
		c-0.3,0.2-0.9,0.2-1.3,0.1c-0.3-0.1-0.6-0.4-0.8-0.6c-1.5-2.1-2.7-4.5-2.7-7.2c0.1-2.9-0.4-5.5-1.8-8.1c-0.8-1.6-1.6-3.1-2.8-4
		c-2.4-0.7-4.6-1.2-6.7-2c-3-1.3-6.1-1.8-9.3-1.7c-1.8,0.1-3.5,0-5.3,0.1c-0.7,0-1.5,0.1-2.1-0.1c-1.9-0.7-3.7-0.2-5.5,0.2
		c-0.8,0.2-1.6,0.4-2.5,0.6c-0.3-0.7-0.6-1.3-0.9-1.8c1.2-2.9,3.9-4.9,4.1-8.1c-0.5-0.1-0.8-0.1-1.2-0.2c-0.8-2.7-1.3-5.6-4.4-6.8
		c-0.2-0.1-0.3-0.3-0.5-0.4c-0.1,0-0.2,0-0.3,0c0.1,0.1,0.2,0.3,0.3,0.4c0.2,0,0.4,0,0.6-0.1c0,0.2-0.2,0.5-0.1,0.7
		c1.1,2.5,0.7,5.1,0.6,7.7c-0.1,1.3-0.8,2.7-1.4,3.9c-0.2,0.5-0.8,0.8-1.5,0.4c0.2-0.5,0.4-1,0.7-1.8c-1.3,0.1-2.4,0.2-3.4,0.3
		c-0.6,0.5-0.6,1.5-1.6,1.3c-0.5-1-0.9-2-1.4-3.1c0.2-0.4,0.2-0.8,0.4-1c0.7-0.9,1.1-1.7,0.7-2.9c-0.3-0.8,0.5-1.3,1.2-1.5
		c0.9-0.3,1.6-0.1,1.9,0.8c-0.8,1.5-1.6,2.8-2.5,4.4c2,0.2,3.8,0.8,5.4-1.1c0-1.4,0-3.1,0-4.7c0-2-0.5-2.4-2.6-2.4
		c-1.8,0-3.2,1.1-5,1.4c-0.2,4.6,0.3,9.1-0.9,13.5c0.5,0.6,0.9,1,1.2,1.5c0.4,0.6,0.4,1.1-0.4,1.6c-0.7-0.3-1.6-0.7-2.4-1
		c-0.1,0-0.1-0.2-0.2-0.4c0-0.3,0-0.6,0.2-0.9c0.9-2.5,1.2-5,1-7.6c-0.1-1.5,0-3.1-0.1-4.6c-0.1-1.8,0.6-3.2,1.8-4.4
		c0.7-0.7,1.5-1.2,2.6-2c-1.2,0-2,0-2.8,0c-0.5,0-1.1,0-1.3-0.3c-1.1-1.5-2.8-1-4.2-1.5c-0.3-0.1-0.6-0.3-0.7-0.3
		c0.2-0.9,1.1-1.1,0.6-1.9c-0.7-0.2-1.5-0.4-2.1-0.6c-0.5-0.5,0-1.4-0.9-1.5c-1.5,0.1-2.8,1.1-4.6,0.8c0.8-1.4,2.1-1.8,3-2.7
		c0.9-0.9,2.4-0.9,3.3-2.2c-0.5-0.2-0.8-0.4-1-0.4c-4.1,0.2-8.2,0.5-12.6,0.8c0.9,1.1,1.6,1.9,2.2,2.7c0.3,0.5,0.4,1.1-0.5,1.4
		c-1.5-0.9-2.7-2.1-3.8-3.5c-2.5-0.1-4.9,0.6-7.2,1.4c-0.7,0.2-1.4,0.5-1.8,1c-2.2,2.7-3.9,5.6-2.7,9.3c1.3,4.3,1.7,8.8,1.7,13.3
		c0.1,7.6,0.1,15.1,0.2,22.7c0.1,4.2,0.8,8.2,2.3,12c1,0.5,1.9,0.8,2.7,1.3c0.9,0.5,2.1,0.6,2.4,1.8c-0.1,0.1-0.1,0.3-0.2,0.3
		c-1.2,1.1-2.3-0.8-3.6,0c1.5,4.4,4.7,7.9,5.9,12.3c2.6,1.2,5,0.5,7.3-0.4c5.2-2,9.7-5.3,14.3-8.4c0.2-0.1,0.2-0.4,0.4-0.6
		c-1.4-4.9-4.9-8.7-6.6-13.4c-1.2-0.1-2.3,0.1-3-0.3c-1.7-1.1-3.6-1.5-5.8-2.3c0.7-0.4,1-0.8,1.4-0.9c1.1-0.2,2.2,0,3,0.7
		c1.3,1.1,2.6,0.7,4.2,0.5c0-1,0-1.8,0-2.6c0-1.3,0-2.6,0.1-3.9c0-0.3,0.5-0.6,0.9-0.9c0.9,1.4,0.7,2.7,0.6,4
		c-0.2,2.3,0.3,4.4,1.3,6.5c0.8,1.7,1.7,3.3,2.6,5c0.5,1,1.1,2.1,1.6,3.1c1,2,1.9,4,2.7,5.8c1.6,0.8,2.8,1.5,4.1,2.1
		c3,1.3,6,2,9.2,0.3c0.6-0.3,1.4-0.3,2-0.5c0.5-0.2,1-0.4,1.5-0.6c-1.2-1.1-2.3-1.9-3.3-2.9c-0.1-0.1-0.1-0.5,0-0.6
		c0.1-0.2,0.4-0.4,0.6-0.3c0.4,0.1,0.9,0.2,1.3,0.5c1.5,0.9,3,1.8,4.5,2.7c1.3-0.8,2.5-1.5,3.7-2.2c-0.1-0.7-0.3-1.3-0.4-1.8
		c0-0.2,0-0.5,0-0.7c0.1-1.2,0.6-1.5,2.3-1c-0.1,0.6-0.3,1.3-0.5,2c1.7,1.5,3.9,2.6,5,4.8c0.5,0.9,2.1,0.8,2.8-0.1
		c0.5-0.7,0.9-1.4,1.2-2.1c1.2-2.8,2.8-5.5,4.7-7.8C618.1,367.2,618.3,367,618.6,366.7z M446.6,345.7c-3.5-0.6-6.7,0.6-10,1.7
		c-0.3,0.1-0.7,0.3-0.9,0.5c-0.2,0.3-0.8,0.4-0.6,0.9c5.4-1.4,5.4-1.4,6.7,0.4c-2.5-0.1-4.2,1.1-6.1,1.9c-3.1,1.3-5.9,2.9-8.6,4.9
		c-6.3,4.7-11.2,10.4-14.2,17.7c-1.1,2.7-2.2,5.5-3.3,8.2c-2,4.8-1.8,9.7-0.8,14.6c0.5,2.3,1.4,4.5,2.5,6.6c0.7,1.4,1.9,2.7,3,3.9
		c0.5,0.6,1.3,1.2,2.2,0.9c1.3-0.4,2.3,0.2,3.3,0.7c3.4,1.7,6.8,3.3,10.7,3.4c3.4,0.1,6.8-0.1,10.2-0.7c2.2-0.4,4.4-0.7,6.6-1
		c0.5-0.1,1.1-0.3,1.9-0.4c-0.1-5.2,0.2-10.2,1.3-15.2c-0.4-1.5,0.3-2.8,0.6-4.1c1.3-4.8,3.3-9.3,5.5-13.8c0.6-1.1,1.3-2.2,1.5-3.6
		c-2.7-2-3.5-4.9-4-8c-0.5-3.1,0-6.1,0.1-9.2c0.2-4.3,1.4-8.4,3.1-12.3c1-2.3,2.4-4.4,4.1-6.1c0.9-0.9,2-1.6,3.1-2.3
		c0.4-0.3,0.9,0,1,0.8c-0.8,0.7-1.7,1.4-2.5,2.2c-3.1,3.1-4.8,7-5.7,11.2c-1.2,4.9-0.9,9.9-0.6,14.8c0.1,1.7,1,3.4,1.6,5
		c0.1,0.4,0.5,0.6,1,1.1c0.8-1.2,0.5-2.5,1-3.6c0.1-0.3,0.5-0.6,1.2-1.3c-0.1,4.2-0.2,7.8-2,11.2c-2.9,5.4-5.1,11.1-6.8,17.1
		c-0.6,2.2-1,4.4-1,6.6c0,2.9,0,5.9,0,8.8c0,1.8,0.1,3.5-1.3,5c-0.5,0.6-0.6,1.5-0.8,2.3c-1.1,3.5-2.2,7-3.3,10.4
		c-0.3,1-0.7,2-0.8,3.1c-0.3,3-0.6,6.1-0.8,9.2c-0.1,1.9,0.1,3.8-1.7,5.1c-0.2,0.1-0.2,0.4-0.3,0.6c-1.6,4.4-3.5,8.8-3.5,13.6
		c0,0.9-0.1,1.9-0.2,2.8c-0.1,0.5-0.3,1.1-0.5,1.6c-0.7-0.1-1.3-0.1-1.9-0.2c-2.4,5.4-3.7,10.9-4.1,16.7c-0.1,1.9,0,3.9-0.7,5.6
		c-1.1,2.4-1.1,4.8-1.1,7.2c0,6.6,0.2,13.2,0.2,19.8c0,2.2-0.3,4.5-0.7,6.7c-0.7,4.1-0.3,8.2,0.3,12.3c0.1,0.6,0.3,1.2,0.6,1.6
		c0.7,0.9,0.7,1.9,0.8,3c0,1.4,0,2.8,0.1,4.2c0,0.9,0.2,1.8,0.9,2.6c0.5,0.5,0.6,1.5,0.6,2.3c0,1.9,0,3.8-0.2,5.7
		c-0.3,2.6-1.3,4.9-3.7,6.3c-0.5,1.4-0.8,2.8-0.4,4.5c0.4-0.4,0.7-0.6,0.9-0.8c3-5.4,6.7-10.3,10.2-15.3c2.5-3.7,4.8-7.6,5.2-12.2
		c0-0.5,0.3-0.9,0.3-1.4c0.3-2.5,1.5-4.4,3.8-5.6c0.2-0.1,0.3-0.4,0.4-0.6c0.2-2.2,0.3-4.4,0.5-6.6c0.8-8.8,1.7-17.6,2.6-26.4
		c0.9-9.4,1.8-18.8,2.7-28.2c0.2-1.8,0.1-3.5,0.2-5.3c0.1-1.8,0.4-3.6-0.4-5.4c-0.6-1.4,0.1-3.1,0.7-4.4c0.9-2,1.2-4,1.4-6.2
		c1-10.8,2.1-21.6,3.1-32.4c0-0.5-0.1-0.9-0.1-1.6c-2.5-0.8-4.2-2.5-5.2-4.9c-1-2.3-1.9-4.7-0.6-7.3c1.1,0.5,1,1.5,1.1,2.2
		c0.4,2.4,1.6,4.4,3.4,6.1c0.4,0.4,0.8,0.9,1.7,0.4c0.4-1.1,0.5-2.4,0.6-3.6c0.3-3.5,0.6-7.1,0.9-10.6c0.7-6.9,1.4-13.8,2-20.8
		c0.4-5.3,1.4-10.5,1.6-15.8c0-0.8,0.3-1.6,0.5-2.4c1.1-5.1,3.7-9.6,6-14.3c0.4-0.8,1-1.6,1.3-2.5c0.2-1,0.2-2,0.2-2.9
		c0.3-0.2,0.5-0.4,0.7-0.5c2.1-0.8,2.3-1.1,2-3.2c-0.2-1,0.1-1.9,0.5-2.7c1.1-2.3,2.9-4,5.1-5.2c1.4-0.7,2.7-1.4,3.4-2.9
		c0.1-0.1,0.2-0.1,0.3-0.2c0,0,0-0.1,0-0.2c-0.1,0.1-0.1,0.3-0.2,0.4c-0.6,0.1-1.2,0-1.7,0.3c-2.5,1.5-5.1,2.9-7.5,4.7
		c-2.6,1.9-4.9,4-7.4,6.1c-1.9,1.6-3.9,3.1-5.6,4.8c-4.3,4.4-8.9,8.4-13.7,12.2c-2.3,1.8-4.4,3.9-6.7,5.8c-0.9,0.8-1.8,1.6-2.8,2.1
		c-1.4,0.7-2.9,1.5-4.3,1.4c-1.5-0.1-3,0.1-5.3-0.3c3-1.1,5.2-1.9,7.4-2.8c1.2-0.5,2.4-1.1,3.4-1.9c1.8-1.5,3.5-3.2,5.2-4.8
		c0.1-0.1,0.3-0.3,0.4-0.4c-0.1,0-0.2-0.1-0.3-0.1C446.7,345.3,446.7,345.5,446.6,345.7z M470.3,594.3c-1.8-5.5-3.4-10.4-5-15.4
		c-0.6-0.6-1.4-1.2-2-1.9c-1.1-1.3-2.1-2.6-3-3.9c-0.4-0.6-0.6-1.3,0.1-2c1.6,0.4,2.1,2.2,3.1,2.7c1,0.1,1.8,0,2.4,0.3
		c1.8,0.8,3.6,1.7,5.4,2.6c0.6,0.3,1.3,0.7,1.6,1.3c1.3,2.3,3.4,3.6,5.2,5.2c1.7,1.5,3.7,1.9,6.2,1.7c-0.5-0.9-0.9-1.7-1.3-2.3
		c-1.6-2.2-3.1-4.4-4.8-6.6c-0.7-0.9-1.6-1.8-2.6-2.4c-3.8-2.3-5.8-6.1-8.4-9.4c-0.3-0.3-0.3-0.9-0.4-1.3c-0.6-2-0.2-4,1.1-5.6
		c-0.5-1.2-0.9-2.3-1.2-3.2c-1.9-1.1-3.5-2-5.4-3.2c-2.4-0.2-5.2-0.4-8-0.5c-1,0.2-1.2,1.9-2.6,1.3c-0.3-0.8,0.1-1.7-0.3-2.6
		c-0.4-0.8-0.1-1.8-0.1-2.8c0-0.9,0.1-1.9,0-2.8c0-0.4,0.2-0.9-0.6-1.1c-1.7,2.3-3.1,4.9-4.3,7.4c0.5,0.6,0.9,1.2,1.4,1.8
		c-0.6,0.4-1.1,0.8-1.6,1c-1.3,0.5-2,1.5-2.6,2.8c-2.5,5.7-5,11.4-7.4,16.9c0.6,1.6,1.1,3.2,1.7,4.7c0.9,2.5,1.9,5.1,2.9,7.6
		c0.6,1.7,1.1,3.4,0.7,5.2c-0.1,0.4,0.2,0.9,0.4,1.3c1.2,0.2,2.3,0.4,3.6,0.6c0-0.7,0.2-1.1,0.1-1.6c-0.5-2.3-1-4.6-1.6-6.9
		c-0.5-2.4-1.1-4.8-1.6-7.2c-0.1-0.6,0.2-1.1,1.2-1.1c2.4,2.6,4.3,5.7,6.2,8.8c1.2,1.9,2.3,3.9,2.2,6.3c1.2,0.9,2.4,1.6,3.5,2.5
		c1.6,1.4,3.4,1.3,5.4,0.8c-1.1-3.2-3.2-5.7-4.5-8.5c-1.4-2.9-2.8-5.9-4.1-8.8c0.6-0.7,1.2-0.2,1.7-0.2c1.9,0,3,1,4,2.4
		c1.6,2.4,3.1,4.7,4.7,7.1c0.3,0.5,0.5,1.1,0.9,1.5c1.1,1.1,1.9,2.4,2.3,3.9c0.3,1.1,1,1.9,2,2.3
		C467.6,593.4,468.7,593.7,470.3,594.3z M303.8,420.5c1.3-4.5,1.8-8.9,1.2-13.4c-0.2-1.6-0.2-3.3-1-4.8c-0.6-1-0.3-2-0.1-3
		c-3.2-1.2-3.6-1.1-6.5-0.9c-2.2,0.2-4.5,0.3-6.7,0.3c-0.8,0-1.7-0.2-2.4-0.6c-0.4-0.2-0.7-0.9-0.8-1.4c-0.1-0.6,0.7-1.3,1.5-1.2
		c1,0,2.1,0.2,3.7,0.3c-4.9-2.1-12.3-3.9-14.9-3.6c0.5,1.2,1,2.4,1.4,3.6c0.5,1.5-0.5,11-1.2,12.6c0,0.1-0.1,0.2-0.2,0.3
		c-1.4,2.7-0.8,5.5,1,7.6c2.2,2.5,4.8,4.9,8.1,6.1c0.9,0.3,1.7,0.6,2.7,0.5c1.6-0.2,3.3-0.2,4.9-0.3
		C297.9,422.3,300.9,421.5,303.8,420.5z M310,358.6c0.8,0.4,1,0.6,1.4,0.7c3,0.8,5.8,1.8,8.5,3.3c0.5,0.3,1.1,0.4,1.6,0.6
		c4.6,1.8,9.5,1.5,14.3,1.3c0.9,0,1.9-0.4,2.6-0.9c1.2-0.7,2.3-0.9,3.7-1c3.3-0.2,6.6-0.4,9.8-0.8c1.5-0.2,3-0.5,4.5-0.8
		c0.2,0,0.3-0.3,0.4-0.4c-0.1-0.2-0.2-0.5-0.4-0.5c-5.2-1.6-10.3-3.1-15.5-4.6c-5-1.4-10.1-2-15.3-0.9c-1,0.2-2.1,0.5-3,1
		c-2.1,1.2-4.3,1.9-6.7,2.2C314.2,358,312.3,358.2,310,358.6z M602.4,467.7c0.3-0.3,0.6-0.5,0.7-0.8c1.2-3.1,2.4-6.1,3.5-9.2
		c0.7-2,1.3-4,1.9-6.1c-0.4-3.2-0.8-6.5-1.1-9.8c-0.4-3.4-0.5-6.8-1.1-10.2c-0.5-3.2-0.2-6.5-1.6-10.3c-0.7,3.7-1.2,6.7-1.8,9.7
		c-0.8,3.9-1.5,7.9-0.9,11.9c0.1,0.6,0,1.2,0,1.8C602.2,452.2,602.3,459.9,602.4,467.7z M612.7,450.3c-0.3-2.5-0.5-4.6-0.7-6.7
		c-0.8-7.1-1.7-14.3-2.6-21.4c-0.8-6.9-1.6-13.8-2.4-20.7c-0.8-7.1-1.7-14.3-2.6-21.4c-0.1-1-0.3-2.1-0.5-3.1c0-0.2-0.3-0.3-0.5-0.5
		c-0.3,0.1-0.6,0.3-1,0.4c0,0.8-0.1,1.6,0,2.4c2.5,23.3,5,46.6,7.5,69.9c0,0.3,0.3,0.6,0.4,1C611,450.3,611.7,450.3,612.7,450.3z
		 M608.4,484.9c2.5,0.7,5.3,0.1,7.6,1.7c1.4-1,2.6-1.9,3.8-2.8c-1.4-5.8-2.7-11.4-4.1-17c-0.4-1.5-0.9-2.9-1.4-4.4
		c-0.2-0.5-0.6-0.8-1-1.5c-1.7,3.5-2.6,6.9-3.1,10.4c-0.7,4.3-1.3,8.6-1.9,12.9C608.2,484.4,608.3,484.5,608.4,484.9z M603.1,406
		c0.2,0,0.4-0.1,0.6-0.1c-1-9.2-2-18.4-3-27.7c-1.2-0.2-2.2-0.3-3.5-0.4c0,0.7-0.2,1.2,0,1.7c0.3,1.3,0.8,2.5,1,3.7
		c0.6,5.9,1,11.7,1.6,17.9C600.7,402.6,601.9,404.3,603.1,406z M463.5,548.3c-1.7-3-3.5-5.6-5.3-8.2c-0.6-0.9-1.3-1.7-1.8-2.6
		c-0.4-0.9-0.6-2-1-3.2c-1.1,1.1-2,2.1-2.4,3.5c-0.4,1.6-0.2,8.2,0.2,10.6C456.5,549.2,459.8,548.2,463.5,548.3z M274.8,359.5
		c-0.5,1-1.1,2.2-1.6,3.4c-0.2,0.5-0.4,1.1,0,1.3c4.1-1.7,8-3.3,12-5C281.9,357.2,278.6,357.6,274.8,359.5z M488,564.1
		c-0.3-0.4-0.5-0.8-0.8-0.8c-1.6-0.1-2.9-1-4-2c-0.8-0.7-1.6-1.4-2.4-2.1c-1.4-1.2-2.9-2.3-4.6-3.3c-0.5,1.5,0.3,2.3,1,3.3
		c0.7,0.9,1,2,1.5,3c1.4,0.6,2.7,1,4,1.6C484.4,564.5,486.1,564.5,488,564.1z M643.7,316.6c0.2,1.8,0.4,3.4,1.2,4.8
		c0.4,0.7,0.9,1.3,1.9,1.1c0-1.3,0-2.6,0-3.7C646,317.7,645.1,317,643.7,316.6z M645.7,360.1c1.5,0.9,2.9,1.8,4.3,2.6
		c0.4,0.2,0.8,0.5,1.1-0.2c-0.8-2.2-2.7-3-4.6-4.1C646.1,359.2,645.9,359.6,645.7,360.1z M509,415.9c-1.7-0.4-2.5-0.7-3.3-0.8
		c-0.6-0.1-1.1,0-1.6,0c-0.6,0.9-1.3,1.6-0.5,2.7C505.2,417.2,506.7,416.7,509,415.9z M628.8,297.1c-0.8-3.7-1-4.4-2.7-6.8
		c-0.6,1.6-0.2,3.1,0.9,4.4C627.5,295.4,628.1,296.2,628.8,297.1z M593,327.9c0.6-1.3,1.3-3.3,1-4.1c-0.2-0.7-0.1-1.8-1.3-1.7
		c0,1.7,0,3.5,0,5.2C592.7,327.5,592.9,327.7,593,327.9z M609.2,292.3c-0.2-0.2-0.3-0.3-0.5-0.5c-0.7,0.6-1.5,1-2.1,1.7
		c-0.8,0.9-1.6,1.9-2.2,3.7C607.1,296,607.9,294,609.2,292.3z M593.6,305.8c-2.5,0.9-4.8,1.7-7,2.5c-0.1,0-0.1,0.4-0.1,0.5
		c2.4,0.5,4.1-1.4,6.3-1.6c0.2,0,0.4-0.2,0.6-0.3c0.1-0.1,0.1-0.2,0.2-0.3C593.6,306.6,593.6,306.5,593.6,305.8z M609.6,331
		c1.9,1,3.3-0.1,4.8-0.6c0.5-0.2,0.6-0.9-0.1-1.5C612.8,329.5,611,329.7,609.6,331z M581.9,315.5c1.5,0.3,2.7,0.5,3.8,0.6
		c0.1,0,0.3-0.2,0.5-0.4c-0.4-0.6-0.8-1.1-1.2-1.6C583.8,314.1,582.8,313.9,581.9,315.5z M642.1,309.3c0.3,2.7,0.3,2.8,0.7,3.4
		c0.7,0.8,1.4,1.3,2.7,1.7C644.4,312.8,643.5,311.3,642.1,309.3z M420.7,356.3c-0.9,0.8-1.8,1.4-2.5,2.1c-0.1,0.1-0.1,0.4-0.1,0.6
		c0.2,0.1,0.4,0.3,0.6,0.3c1.3-0.2,2.2-1,2.7-2.2C421.3,357,421,356.7,420.7,356.3z M609,287.1c1.9-0.1,2.2-0.2,3-1.2
		c0.3-0.4,0.2-1,0.3-1.9C610.7,285,609.7,285.8,609,287.1z M406.9,373.5c1.2,0.3,2.3,0.6,3.4-0.6c-1.1-0.4-2-0.6-3.1-1
		C407.1,372.5,407,373,406.9,373.5z M614.1,324.5c1,0.4,1,0.4,1.1,0c0.2-1.2,0.4-2.5,0.6-3.7c-0.1,0-0.2-0.1-0.3-0.1
		C614.9,322,614.5,323.2,614.1,324.5z M607.3,305.4c1.3,0,1.3,0,3.1-2.1C608.5,302.8,607.9,304,607.3,305.4z M619.7,326.5
		c-0.6,1.9,0.4,2.9,1.8,4.4C621.3,328.9,620.6,327.8,619.7,326.5z M654.2,313.3c0,1.6,0,1.6,0.8,3.1
		C655.4,313.9,655.4,313.9,654.2,313.3z M654.3,328.9c-0.6,1.4-0.6,2.5,0.1,3.8C654.8,331.3,655.1,330.3,654.3,328.9z M620.5,332.1
		c-0.4-0.3-0.7-0.4-0.9-0.6c-0.1,0.2-0.2,0.4-0.2,0.6c0,0.2,0.2,0.4,0.3,0.6C619.9,332.6,620.1,332.4,620.5,332.1z M614.7,294.8
		c-0.3,0.4-0.6,0.7-0.7,1c-0.1,0.1,0.1,0.4,0.1,0.6c0.2-0.1,0.4-0.2,0.5-0.3C614.9,295.7,615.2,295.4,614.7,294.8z M638,305.2
		c0.1,0,0.2,0,0.2,0c0-0.5,0-1,0-1.6c-0.1,0-0.2,0-0.2,0C638,304.1,638,304.6,638,305.2z M543.4,305.5c-0.9-0.1-1.2-0.2-1.4-0.1
		c-0.2,0-0.4,0.1-0.6,0.1c0.2,0.1,0.4,0.2,0.6,0.2C542.3,305.7,542.5,305.7,543.4,305.5z M590.5,317.1c0-0.2,0-0.4,0-0.6
		c-0.7,0.1-1.3,0.1-2,0.2c0,0.1,0,0.3,0,0.4C589.2,317.1,589.9,317.1,590.5,317.1z M573.1,312.7c0.3,0.1,0.4,0.2,0.5,0.2
		c0.4,0.1,0.9,0.2,1.1-0.3c0-0.1,0-0.2,0-0.3c-0.4-0.6-0.8-0.1-1.1,0C573.4,312.3,573.4,312.4,573.1,312.7z M621.6,314.7
		c0.2,0,0.4-0.1,0.6-0.1c-0.1-0.5-0.2-1-0.3-1.5c-0.1,0-0.3,0-0.4,0.1C621.5,313.6,621.5,314.1,621.6,314.7z M620,335.5
		c-0.2-0.2-0.4-0.3-0.6-0.5c0,0-0.2,0.2-0.2,0.2c0.1,0.3,0.3,0.5,0.4,0.8C619.7,335.9,619.8,335.7,620,335.5z M647.4,344.6
		c-0.1,0-0.1,0-0.2,0c0,0.4,0,0.7,0,1.1c0.1,0,0.1,0,0.2,0C647.4,345.4,647.4,345,647.4,344.6z M627.2,285c-1.1-0.1-1.4-0.2-1.7-0.2
		c-0.1,0-0.2,0.1-0.2,0.2c0.1,0.1,0.2,0.3,0.3,0.3C625.9,285.3,626.2,285.2,627.2,285z M575.3,310.4c-0.2-0.3-0.5-0.5-0.7-0.7
		c-0.1,0-0.3,0.2-0.5,0.2c0.2,0.3,0.3,0.5,0.6,0.7C574.8,310.7,575.1,310.5,575.3,310.4z M577.2,311c0,0.2,0,0.4,0.1,0.6
		c0.4-0.1,0.8-0.2,1.2-0.2c0-0.1,0-0.2,0-0.3C578,311,577.6,311,577.2,311z M633.9,312.2c0,0-0.1,0-0.1,0c0,0.3,0,0.6-0.1,0.9
		c0,0,0.1,0,0.1,0C633.9,312.8,633.9,312.5,633.9,312.2z M606.6,300.3c0.2-0.2,0.5-0.5,0.6-0.7c0-0.1-0.2-0.3-0.3-0.5
		c-0.2,0.2-0.5,0.4-0.7,0.7C606.1,299.8,606.4,300,606.6,300.3z M646.6,325.5c0,0.1-0.1,0.2-0.1,0.2c0,0.1,0,0.2,0.1,0.3
		c0-0.1,0.1-0.2,0.1-0.2C646.7,325.6,646.7,325.5,646.6,325.5z M598.6,333.7c0,0.1,0,0.2,0.1,0.2c0.1,0,0.2,0,0.3,0
		c0-0.1-0.1-0.2-0.1-0.3C598.7,333.7,598.6,333.7,598.6,333.7z M646.8,339c-0.1-0.1-0.1-0.2-0.2-0.2c-0.1,0.2-0.2,0.3-0.2,0.5
		c0,0.1,0.1,0.2,0.2,0.2C646.6,339.3,646.7,339.1,646.8,339z M633.1,309.6l0.1,0l0-0.3L633.1,309.6z M650.2,353.8
		c-0.1,0-0.2,0-0.2,0.1c0,0.1,0,0.2,0,0.3c0.1,0,0.2-0.1,0.3-0.1C650.3,354,650.2,353.9,650.2,353.8z M628.9,346.2
		c0.1-0.1,0.1-0.2,0.2-0.3c-0.2-0.1-0.4-0.2-0.5-0.3c0,0-0.2,0.1-0.2,0.2C628.5,346,628.7,346.1,628.9,346.2z M637.4,301.9
		c0-0.1,0.1-0.2,0.1-0.3c0,0-0.1-0.1-0.1-0.1c0,0.1-0.1,0.2,0,0.3C637.3,301.8,637.4,301.8,637.4,301.9z M633.1,279.9l-0.1,0.2
		l0.2,0L633.1,279.9z M631.9,282.2l-0.2-0.1l0,0.2L631.9,282.2z"/>
	<path d="M472.1,233.6c0.6,3.2,1.8,6.3,3.1,9.3c0.5,1.1,1.3,2,1.2,3.4c-0.6,0.6-1.2,1.2-1.8,1.9c-1,1.1-1.8,1.4-3.1,0.8
		c-1.4-0.7-2.8-1.7-4.3-2.7c-1.2,0.5-0.4,2-1.2,3.2c-2.3,1.3-4.8,0.6-7.3,0.6c-2.7-3.6-5.3-7-7-11.1c-0.5-1.2-1.1-2.3-1.8-3.5
		c-0.2-0.3-0.5-0.5-0.9-0.9c-0.7,0.3-1.6,0.7-2.4,1.1c0.2,2.1,1,3.8,1.9,5.4c0.9,1.6,2.2,3,3.4,4.6c-0.3,0.6-0.6,1.1-0.8,1.6
		c-0.6,1.8-2,2.2-3.7,2c-2-0.2-3.6-1-4.7-2.8c-1.5-2.4-2.8-4.9-3.4-7.7c-0.4-1.5-0.8-3-1.9-4.2c-2.7,0.8-5.4,1.4-8,2.5
		c-1.1,0.4-2.3,0.6-3.4,0.6c-1.8,0-3.2-0.9-3.8-2.7c-0.6-1.9-1-3.9,0.5-5.7c0.3-0.3,0.4-0.8,0.5-1.3c0.7-4.1,2.2-8,4-11.7
		c1.2-2.4,1.2-4.7,0.1-7.1c-1.7-3.6-3.3-7.3-4.8-11c-2-4.9-3.8-9.9-4.5-15.2c-0.1-0.9-0.5-1.8-0.9-2.7c-1.1-2.8-2.3-5.7-3.5-8.5
		c-2.4-6.1-3.5-12.5-4.2-18.9c-0.5-5.3-0.5-10.6-0.2-15.9c0.1-1.6,0.4-3.3-0.2-5.1c-2.9,1.3-5.6,0.2-8.3-0.5
		c-8.2-2.1-16.4-4.4-24.4-7.3c-6.5-2.3-12.6-5.4-18.3-9.2c-0.9-0.6-1.7-1.3-2.2-2.3c-0.6-1.3-1.3-2.5-2-3.7
		c-3.3-6.1-7.6-11.4-12.7-16c-1.4-1.3-2.9-2.4-4.3-3.5c0.6-3.3,0.6-3.3-1.4-4.9c-2.8,0.5-2.7,0.3-5.5-0.4c-3-0.8-5.3-2.3-6.9-5
		c-0.7-1.1-1.6-2-2.4-3c-0.7-0.9-1.5-1.8-2.4-3c-5.4-1.3-11-3.1-16.5-5.2c-5.6-2.1-10.6-5-15-9.1c-0.6-0.5-1.3-0.9-2-1.4
		c-0.2-0.3-0.5-0.5-0.7-0.8c-1.8-1.8-3.6-3.7-5.4-5.5c-0.4,0.1-0.8,0.1-1.1,0.1c-3.9,1-7.7,0.7-11.5-0.4c-0.7-0.2-1.3-0.5-1.9-0.8
		c-0.6-0.3-0.9-1.2-0.7-1.8c0.2-0.6,0.8-0.9,1.4-0.9c0.8,0,1.7,0.1,2.4,0.3c2.4,0.7,4.9,0.6,7.4,0.4c0.3,0,0.6-0.3,0.8-0.4
		c-0.2-1.1-0.8-1-1.6-0.9c-4.2,0.5-7.8-1.2-11.3-3.3c-0.5-0.3-0.8-0.9-0.4-1.5c0.4-0.6,0.9-0.7,1.5-0.5c0.8,0.2,1.6,0.5,2.4,0.7
		c1.6,0.5,3.2,0.8,4.9,1c-1.8-2.6-2.4-3.3-3.9-3.4c-3.9-0.4-6.4-2.7-8.6-5.6c-0.3-0.3-0.6-0.8,0.1-1.2c1.7,1,3.1,2.7,5.6,3.2
		c-3.1-3.1-3.8-5.1-3.2-8.7c0.4-2.2,1-4.4,2.2-6.3c0.5-0.8,1-1.6,1.7-2.3c0.5-0.6,1.2-0.8,1.8,0c0,1.2-0.9,2.1-1.4,3.2
		c-1.1,2.2-1.9,4.5-1.9,7.1c0,2,0.6,3.6,2.3,4.9c5.3,4,10.1,8.6,14.2,13.7c2.9,3.6,6.2,6.8,9.6,9.9c3.7,3.4,7.9,6,12.5,7.8
		c4.6,1.8,9.3,3.5,13.9,5.2c4,1.4,7.5,3.4,9.7,7.1c0.5,0.8,1.1,1.5,1.7,2.2c1.1,1.2,2.4,1.5,3.9,1.1c-0.6-0.9-1.3-1.7-1.8-2.6
		c-0.4-0.6-0.4-1.4,0.8-1.8c2.2,1.2,3.4,3.9,6.2,5.1c0-1.7-0.1-3.1,0-4.5c0.1-2.1,0.2-4.2,0.6-6.3c0.9-5.5,2.6-10.8,5.1-15.7
		c0.5-0.9,0.8-2,1.1-2.9c0.8-1.1,2.4-1.5,2.8-3.2c-2.2-0.3-4.3-0.6-6.4-0.9c-2.5-0.3-5-0.6-7.1-2c-1.3-0.9-2.7-0.6-3.4-0.7
		c-2.3-2.1-4.2-3.9-6.1-5.7c-3-2.9-6.1-5.5-10.3-6.6c-1-0.3-2-0.8-2.9-1.3c-2.2-1.2-4.5-2.1-6.9-2.8c-3.6-1.1-7.2-2.3-10.5-4.1
		c-0.8-0.4-1.8-0.6-2.7-0.8c-2-0.4-4-0.6-5.9-1.2c-4.6-1.4-9.2-2.9-13.7-4.7c-1.7-0.7-3.3-1.1-5.1-1.1c-0.7,0-1.4,0-1.8-0.8
		c1,0,2,0,3.7,0c-1.1-0.6-1.6-1.1-2.2-1.3c-0.7-0.3-1.1,0.1-1.4,1.4c-2.8,0.1-3,0.3-3.5,2.8c-0.1,0.3,0,0.7-0.2,1
		c-1.2,2.7-2.2,5.5-2.7,8.4c-0.1,0.5-0.7,0.9-1,1.3c-1.6-0.9-1.5-2.2-1.3-3.5c0.4-2.8,1.7-5.4,2.9-7.9c1.1-2.2,2.1-4.5,5.1-5.5
		c-0.9-0.4-1.3-0.6-1.7-0.7c-4.5-1.3-11.1,2.1-13.1,6.2c-0.6,1.2-1.2,2.3-1.3,3.6c-0.1,4,0,8,0.6,12c0.1,0.7,0.4,1.4,0.8,1.9
		c2.5,3.2,3.9,7,4.9,10.9c0.9,3.6,1.1,7.2-0.1,10.8c-0.7,2.3-0.5,4.6,1.2,6.6c3.3,4,6.5,8.1,9.8,12.1c1.4,1.7,2.9,3.1,5.4,2.9
		c0.7-0.1,1.4,0.3,2.1,0.4c1.3,0.2,2.6,0.4,3.8,0.4c1.2,0.1,2.4-0.3,3-1.5c0.5-1,1.3-1.6,2.2-2.3c0.8-0.7,1.7-1.3,2.4-2.1
		c2.1-2.1,2.8-4.5,1.3-7.4c-1.3-2.6-1.6-5.4-1.5-8.3c0-1.1,0.6-1.7,1.6-2.1c0.2,0.3,0.5,0.5,0.7,0.8c-0.3,1.9,0,3.7,0.5,5.6
		c0.7,2.6,1.1,5.3,1.6,8c0.2,1.1-0.1,2.1-0.8,3c-0.7,0.9-1.5,1.8-2.3,2.6c-1,1-2.1,1.8-2.5,3.3c-0.3,1.3-1.5,2.1-2.9,2.4
		c-1.4,0.3-2.8,0.5-4.2,0.4c-4.9-0.4-9.5-1.7-13.9-3.8c-1.4-0.7-3.2-1.2-2.8-3.5c-1-1.5-2-2.9-2.8-4.5c-1.4-2.6-2.7-5.3-4-7.9
		c-0.8-1.4-1-2.9-1-4.4c0-2.2,0.1-4.5,0.1-6.7c0-2.2-0.2-4.5-0.2-6.7c0.1-2.4-0.7-4.4-2-6.3c-2-2.8-2.9-5.8-2.7-9.3
		c0.1-1.6-0.3-3.3-0.4-4.9c-0.1-1.1-0.1-2.1-0.2-3.2c-0.3-4.3,1.6-7.3,5.2-9.3c2.3-1.4,4.7-2.4,7.6-2.4c3.2,0,6.3,0.4,9.4,1.2
		c0.7,0.2,1.4,0.3,2.3,0.5c0.3-0.5,0.7-1.1,1.2-1.8c0.6,0.4,1.1,0.7,1.6,1c0.5-2.2,2.1-3.4,4-4.1c1.5-0.6,3.1-1,4.7-1.5
		c1-0.3,2-0.2,3,0.4c0.7,0.4,1.5,0.6,2.3,0.8c1,0.3,2.1,0.4,3.1,0.8c1.6,0.7,3.2,1.3,5.1,1.3c1.5,0,2.5,0.8,2.9,2.1
		c0.5,1.5,1,3.1,1.3,4.7c0.2,1.3,0.8,2.2,2.1,2.5c3.2,0.8,6.4,1.7,9.6,2.5c0.2,0.1,0.5,0.1,0.7,0.1c2.8-1,5.6,0.1,8.4,0
		c2.8-0.1,5.7-0.1,8.5,0c2.2,0.1,4.5,0.4,6.7,0.6c3.9,0.4,7.7,0.9,11.6,1.3c3.7,0.4,7.1,1.8,10.2,3.8c1.8,1.2,3.4,2.5,5.2,3.7
		c1.4,0.9,2.7,1.9,4.2,2.6c2.4,1.1,4.4,2.7,6.4,4.4c4.1,3.4,8.6,6.2,13.2,8.7c3.4-1.2,6.7-2.4,10-3.5c2-0.7,4.1-0.9,6.3-1
		c4.5-0.1,9,0.1,13.4-0.7c0.6-0.1,1.3-0.2,1.8,0c2,0.8,3.7-0.1,5.4-0.6c2.7-0.8,5.5-1.5,8.2-2.4c1.7-0.5,3.3-1.3,5-1.8
		c1.1-0.3,2.3-0.7,3.4-0.7c6,0,12,0.2,17.7,2.6c0.6,0.3,1.3,0.6,2,0.6c2.6,0.3,5,1.4,7.3,2.6c3.9,2,7.8,4,11.7,5.9
		c0.7,0.4,1.5,0.6,2.3,0.7c2.6,0.2,4.4,1.5,5.9,3.5c1.8,2.4,2.8,5.2,2.8,8.2c0,0.8,0,1.6,0,2.5c2.9,1.7,5.9,2.3,9.2,1.9
		c1.3-0.2,2.6-0.3,3.9-0.3c2.4,0,4.8-0.3,6.9-1.3c5.1-2.3,10.6-3,16.1-4c6.9-1.2,13.8-1.8,20.8-1.8c2.1,0,4-0.5,5.8-1.4
		c3.1-1.5,6.3-2.5,9.7-3.1c0.7-0.1,1.4-0.3,2.1-0.5c3-0.8,5.9-1.6,9.1-1.5c2.3-2.2,4.9-4,7.8-5.3c3.4-1.5,6.9-1.8,10.4-1
		c3.7,0.8,7.3,1.9,10.8,3.5c3.2,1.5,6.1,3.6,8.5,6.3c0.8,0.9,1.5,2.1,2.5,3.6c1.1,0.5,2.6,1.7,4.7,1.1c0.4-0.1,1.1,0.3,1.6,0.6
		c1.7,1.4,3.5,2.8,5.1,4.4c0.8,0.8,1.2,2,1.6,3.1c0.3,0.8,0.3,1.6,0.3,2.4c-0.3,4.5,0.7,8.9,0.7,13.4c0,0.3,0.1,0.7,0.2,1
		c4.4,2,11,2.7,14.9,1.8c0.7,0.5,1.4,1.1,2.2,1.7c0.3-0.2,0.7-0.4,0.8-0.7c0.3-0.7,0.4-1.5-0.3-1.9c-0.7-0.4-1-0.9-1.1-1.7
		c-0.1-0.9-0.2-1.9,0.7-2.5c0.7-0.4,1.6,0.4,2.2,1.8c0.2,0.6,0.4,1.3,0.6,1.9c1.3-0.3,1.4-2.7,3.2-1.6c0.1,1.6,0.1,3.2,0.2,4.9
		c1,0.1,1.9,0,2.5,0.4c0.6,0.4,0.7,1.3,1.2,2.4c1,0.2,2.4,0.5,3.9,0.8c0.2,1.9,1.6,3,2.6,4.4c1,1.4,1.8,3,2.8,4.5
		c0.6,0.8,1.3,1.6,2.2,2.8c0.3,2.3,1.2,4.9,2.1,7.6c1.8,5,2.7,10.3,2.8,15.6c0.1,5.2,0.1,10.4-0.1,15.6c-0.1,3.1-0.9,6.1-2.5,8.9
		c0.5,2.3,1,4.8,1.4,7.2c0.4,2.7,0.6,5.4,0.9,8.1c0,0.2,0,0.5-0.1,0.7c-0.1,0.3-0.4,0.7-0.6,0.7c-0.2,0.1-0.7-0.3-0.7-0.5
		c-0.2-0.8-0.2-1.6-0.3-2.4c-0.3-2.5-0.5-4.9-0.8-7.4c0-0.2-0.2-0.4-0.5-1c-0.1,3.6-0.1,6.9,0.2,10.1c0.2,1.5,0.3,3,0.4,4.6
		c0.1,0.8-0.1,1.5-0.9,2.2c-0.4,0.3-0.2,1.3-0.4,1.9c-0.1,0.3-0.5,0.6-1,1c-1.3-2.1-0.6-4.6-2.1-6.4c-1,0.5-0.6,1.3-0.6,1.9
		c0,0.7,0,1.4,0,2.1c0,0.7-0.1,1.3-0.2,2.4c-1.4-0.9-2.5-1.7-3.8-2.6c-0.9,1.1-1.8,2.3-2.7,3.4c-2.5-1.6-5.1-3-6.2-5.7
		c-1-0.4-1.6-0.1-2,0.6c-0.3,0.6-0.7,1.2-1.1,1.9c-2.4-1-4.7-1.6-6.5-3.5c-3-0.1-6,0.3-8.7-1.6c-1.9,1-3.7,1.8-5.4,2.9
		c-1.9,1.3-3.9,1.5-6,1.1c-1.1-1.4-1.2-3.5-3.3-4.6c-2.4-0.2-5.2-0.3-7.9,0.8c-2.5,1-5.1,0.6-7.7,0.3c-1-0.1-2-0.7-2.8-1.4
		c-4.4-4.2-8.2-8.8-10.8-14.3c-0.5-1.1-0.3-2-0.1-3.3c-3.7-1.3-7.4-2.9-11.4-3.4c-0.8-0.1-1.7-0.1-2.4,0.3c-2.2,1.1-4.5,1.3-6.8,1.8
		c-3.3,0.7-6.3,2-8.8,4.2c-2,1.7-4.2,3.1-6.8,3.7c-5.1,1.3-10.3,2.5-15.5,3.6c-3.8,0.9-7.7,1.2-11.6,1.3c-4.6,0-8.9-1-13.1-2.6
		c-2.3-0.9-4.6-1.7-7-2.5c-4.2-1.4-8.1-3.2-11.3-6.4c-1.8-1.8-4-2.8-6.7-2.7c-1.9,0.1-3.8,0.1-5.7,0c-1.9-0.1-3.7-0.5-5.5-0.7
		c-1.7,2.2-11.5,22.3-14.8,30.3c0.3,0.5,0.6,1.4,1.1,1.6c1.7,0.4,2.2,1.7,2.7,3c2,5,4,10.1,6.1,15.1c1.6,3.8,3.2,7.6,5.1,11.3
		c1.4,2.6,3.4,4.8,6.6,5.4c1.5,0.3,2.6,0.9,3.5,2.2c1.3,1.9,2.8,3.5,5.1,4.1c0.2,0.1,0.4,0.2,0.6,0.3c1.3,0.9,1.4,2.8,0,3.5
		c-2.2,1.2-4.4,2-7.1,1.3c-2.5-0.7-5.1-0.9-7.5-2.9c0.1,0.7,0.1,1.1,0.2,1.2c1,0.8,2.1,1.5,2.5,2.9c0.1,0.5,0.7,0.9,1.2,1.2
		c1.5,0.9,2.2,2.3,3.1,3.8c1,1.7,2.1,3.5,3.5,4.8c1.8,1.8,2.8,3.7,2.8,6.2c-1.1,2.3-3,2.8-5.3,2.3c-1.6-0.3-3.2-0.8-4.4-2.1
		c-1.3-1.5-2.8-2.9-4.1-4.4C474.3,235.2,473.6,234,472.1,233.6c-0.1,0-0.1-0.1-0.2-0.2c0,0-0.1,0-0.2,0
		C471.8,233.5,472,233.5,472.1,233.6z M498.2,138.1c0.5,0.2,1.1,0.4,1.6,0.6c1,0.7,2,1.6,3.1,2.1c2.2,1.1,4.5,2,6.8,3
		c3.6,1.6,7.3,2.6,11.3,2c0.4-0.1,0.8,0.2,1.1,0.3c-0.1,1-0.7,1.1-1.2,1.3c-2.9,0.8-5.8,0.8-8.7-0.1c-6-1.8-11.8-4-16.9-7.9
		c-3,1.5-6.3,2-9.6,1.9c-2.9,0-5.9-0.2-8.8-0.2c-0.6,0-1.2,0-1,0.9c2.2,1.1,4.6,1.2,6.9,1.1c3.7-0.2,7,0.7,10,2.8
		c0.8,0.5,1.5,1.1,2.3,1.6c1.5,1,2.9,2.2,4.5,2.9c5.8,2.5,11.7,5,18,6.2c3.9,0.7,7.8,0.8,11.6,0.2c4.4-0.7,8.8-1.7,13.2-2.3
		c3.8-0.5,7-2.1,9.9-4.4c4.2-3.2,7.7-7,8.8-12.4c0.3-1.4,0.7-2.7,1.1-4.1c1.2-4.5,1.3-9.1,0.7-13.7c-0.5-3.8-1.8-7.3-3.8-10.5
		c-4.4-7.2-10.4-12.4-18-16c-5.4-2.6-11.1-4.7-16.8-6.6c-3.2-1-6.5-1.4-9.8-1.4c-1,0-2,0.1-3,0.6c0.3,0.3,0.5,0.5,0.7,0.6
		c0.6,0.9,0.4,1.7-0.5,1.8c-1.3,0.1-2.6,0.3-3.9,0.2c-1.8,0-3.2,0.6-4.5,1.7c-1.4,1.1-2.5,2.4-3.4,4c-1,1.7-2.1,3.4-3.3,5
		c-1.5,1.9-2.7,3.9-3.7,6c-2.2,4.6-4.4,9.2-6.5,13.7c-0.3,0.7-0.6,1.5-0.9,2.2c1.9,2.8,2.3,3.8,2.1,5.4c-1.8-0.2-2.1-2-3.1-3
		c-2.1,3.5-6,11.8-6.7,14.5c1.2,0.5,2.5,0.6,3.8,0.6c1.8,0,3.5,0,5.3,0.1c3.2,0.1,6.3-0.5,9.1-2.5c-0.8-0.7-1.6-1.4-2.3-2.2
		c-0.7-0.8-1.5-1.6-0.5-2.7c1.9,0.8,6.5,4.1,8.9,6.3c0.2,0.2,0.2,0.6,0.4,1.1c-1,0-1.7,0-2.5,0c-0.5-0.2-1.1-0.4-1.6-0.6
		c-0.2-0.2-0.3-0.4-0.2-0.3C497.7,137.8,497.9,138,498.2,138.1z M635,135.9c0,0.2,0,0.4,0,0.6c0,0.1,0.1,0.2,0.1,0.3
		c0.1-0.1,0.3-0.3,0.2-0.4C635.2,136.2,635,136.1,635,135.9c-0.1-0.2,0-0.4-0.1-0.6c0-0.1-0.2-0.2-0.4-0.3c0,0.1-0.2,0.2-0.1,0.3
		C634.6,135.5,634.8,135.7,635,135.9z M661.8,116.1c0.1,0,0.2,0.1,0.3,0.1C661.9,116.2,661.8,116.2,661.8,116.1
		c-0.1-0.1,0-0.3-0.1-0.5c0-0.1-0.2-0.1-0.4-0.2c0,0.1,0,0.2,0,0.3C661.5,115.8,661.6,116,661.8,116.1z M656.8,162.2
		C656.9,162.3,656.5,161.9,656.8,162.2c0.2,0.1,0.3,0.4,0.5,0.6c0-0.1,0.1-0.3,0.1-0.3C657.2,162.4,657,162.3,656.8,162.2z
		 M652.5,163.7c0.1-0.6,0.1-1.2-0.6-1.6c-0.3-1-0.5-2-0.9-2.9c-0.2-0.5-0.6-0.5-1.1,0c0.7,0.9,0.7,2.3,2.1,2.8
		C651.9,162.7,652,163.2,652.5,163.7c0.2,0.2,0.3,0.5,0.4,0.8C653.3,163.9,653,163.7,652.5,163.7z M445.1,194.7
		c0.2-0.5,0.4-1,0.6-1.5c0.8-0.1,1.1-0.8,1.4-1.4c1.1-1.8,2.5-3.4,3.8-5.1c1.4-1.8,3.3-2.3,5.4-3c0.3,0.7,0.7,1.2,0.8,1.7
		c0.4,2.3,1.5,4.1,2.8,6c1.8,2.6,3.5,5.3,5.1,8c1.7,2.8,3,5.9,3.6,9.1c0.3,1.3-0.4,2.2-0.5,3.3c0.7,1.1,1.3,2,1.9,3.1
		c0.7,1.3,2,2,3,2.9c0.4,0.4,1.4,0,1.4-0.5c0.3-2.7,0.7-5.3-0.9-7.8c-4.3-6.6-7.7-13.8-10.4-21.2c-0.8-2.2-1.8-4.4-2.7-6.5
		c-0.3-0.6-0.6-1.5-1.1-1.7c-1-0.4-1.4-1.2-1.9-2c-0.7-1-1.6-1.3-2.8-0.8c-2.3,0.9-4.5,2-6.4,3.4c-0.6,1.5-1.1,2.8-1.6,4.1
		c-0.2,0.6-0.5,1.5-0.3,2c0.6,1.6,0,3-0.4,4.5c-0.2,0.7-0.2,1.4-0.3,2C445,193.5,445.1,194.2,445.1,194.7c-0.2,0.3-0.5,0.5-0.8,0.7
		c-0.2,0.5-0.4,1-0.6,1.5c-0.2,0.5-0.4,1-0.7,1.5c-0.5,0.4-1.1,0.8-1.5,1.3c-1.7,2.4-3.4,4.8-5.1,7.2c-2,2.8-3.7,5.7-5.2,8.8
		c-0.8,1.8-1.6,3.6-2.8,5.3c-1,1.5-1.7,3.3-2.3,5.1c1.6-0.1,2.8,0.1,3.4,1.5c0.8,1.7,0.7,3.3-0.4,5c-1.1-1.8-0.9-4.6-3.8-5
		c-0.3,0.6-0.9,1.2-1,1.8c-0.1,1.3,0,2.6,0.1,3.9c0.1,1.3,0.9,1.8,2.2,1.7c0.7,0,1.4-0.2,2.1-0.3c2.2-0.6,4.5-1.3,6.7-2
		c-2.2-1-3.1-3.2-4.4-4.7c-0.5-2.5,0.3-4.5,1.3-6.5c3.6-7.7,7.1-15.4,10.6-23.1c0.2-0.5,0.4-1,0.7-1.5c0.2-0.5,0.4-1,0.6-1.5
		C444.6,195.1,444.8,194.9,445.1,194.7z M459.3,60.9c0.5-0.1,1.1-0.1,1.8-0.2C460.2,60,459.7,60.1,459.3,60.9
		c-0.7,0.1-1.6-0.3-2.1,0.7c-1.3-0.5-2.6,1.1-4.4,0.1c0.6-0.3,0.9-0.5,1.2-0.7c3.2-1.4,6.4-2.6,10.2-3.2c-0.6-0.7-1-1.1-1.4-1.5
		c-2.8-2.5-5.9-4.7-9.4-6.3c-2.5-1.1-5-2-7.5-3.1c-0.5-0.2-1.2-0.2-1.2-1c0.8-0.8,1.8-0.5,2.6-0.3c6.5,1.5,12,4.8,16.8,9.3
		c0.6,0.6,1.1,1.1,1.6,1.6c4.7,0,9.1,0,13.6,0c1,0,2.1,0.2,3.1,0.4c0.6,0.1,1,0.6,0.8,1.4c-0.5,0.1-1,0.3-1.6,0.3
		c-0.5,0-1.1,0-1.8-0.1c0.8,1.2,0.8,1.2,2.3,0.8c1.2,0.4,2.2,1.9,4,1c0-3-0.8-5.7-2.6-8.2c-1.1-1.5-2.5-2.4-4.4-2.6
		c-1-0.1-2.1-0.4-3-0.9c-4-2-8-4-12-6c-1.3-0.6-2.5-1.2-3.1-2.5c-1.3-0.1-2.3,0-3.4-0.2c-1.2-0.2-2.3-0.6-3.4-0.9
		c-5.1-1.6-10.4-1.9-15.7-1.7c-0.9,0-1.9,0.3-2.7,0.6c-6.5,2.1-13,4.2-19.5,6.3c-0.2,0.1-0.4,0-0.7-0.1c-0.3-0.3-0.6-0.7-1-1.1
		c-3.2,0.2-6.5,0.4-9.8,0.5c-7.4,0.3-7.4,0.2-14.3,3.1c-1.1,0.4-2.2,0.8-3.2,1.4c-1.3,0.7-2.6,1.5-4,2.3l0.1-0.1c-0.5,0-1,0.2-1,0.7
		c0,0.6,0.1,1.1,0.2,1.8c-0.8,0.2-1.5,0.5-2.1,0.4c-1.3-0.2-2.5-0.6-3.7-1c-1.4-0.4-2.7-1-4.1-1.1c-3.7-0.3-7.2-1-10.8-2
		c-0.8-0.2-1.6-0.4-2.4-0.3c-3.4,0.4-6.7,1.1-9.9,2.4c-1.1,0.5-2,1.1-2.7,2.1c-1.5,2-2.7,4.2-3.6,6.5c-3.2,8-4.7,16.3-3.7,24.9
		c0.2,1.3,0,2.6,0,3.7c1.8,1.6,3.4,2.9,4.9,4.4c5.3,5.2,9.8,11.1,13.4,17.7c0.8,1.5,1.9,2.6,3.3,3.5c5.5,3.5,11.4,6.2,17.6,8.1
		c4.6,1.4,9.2,2.8,13.9,4.1c3.9,1.1,7.8,2,11.7,2.9c1.8,0.4,3.5,0.2,5.1-0.7c0.1-0.4,0.2-0.8,0.2-1.1c0.2-5.2,0.5-10.4,0.7-15.6
		c0-0.6,0-1.2,0.2-1.8c0.6-2.1,1.3-4.3,2.1-6.4c0.6-1.6,1.4-3,2.9-4c1.2-0.2,2.5-0.3,3.7-0.6c1.3-0.2,2.5-0.6,3.8-0.9
		c0.2-0.1,0.3-0.3,0.6-0.6c-0.2-0.6-0.3-1.3-0.5-1.9c0.6-1.4,1.2-2.8,1.8-4.1c-0.3-0.4-0.5-0.8-0.8-1.1c0.8-0.5,1.8-0.6,1.7-1.8
		c-0.3-0.3-0.6-0.6-1-1.1c1.8-0.1,2.8-1,3-2.7c-0.5-0.4-1-0.9-1.4-1.2c0.3-1.2,0.6-2.2,0.9-3.2c1.2-4.5,2.6-8.9,5-12.8
		c0.9-1.4,2-2.6,3-3.9c0.1-0.2,0.5-0.2,1.3-0.3c-1.3,1.9-2.4,3.4-3.3,5c-0.9,1.6-1.8,3.3-2.4,5.1c-0.6,1.7-1.6,3.3-1.2,5.4
		c1.5-0.2,1.9-1.5,2.9-2.1c1-0.7,2.7,0,3.4-1.6c-0.2-0.4-0.5-0.9-0.7-1.3c2.5-1.8,4.9-3.5,7.1-5.1c-0.1-0.7-0.2-1.1-0.3-1.5
		c1.5-0.8,1.5-0.8,4.5-0.7c0.5-0.6,1-1.2,1.6-1.9c1.6,0.2,3-0.1,4.2-1.2c0.5-0.4,1.3-0.5,1.9-0.7c0.9-0.4,2.1-0.5,2.6-1.6
		C458,61.7,458.7,61.7,459.3,60.9z M625,121.1c-0.4,0.3-0.8,0.6-1.3,1.1C624.9,122.3,625,121.8,625,121.1c0-0.1,0.1,0,0.2-0.1
		c0.1,0,0.1-0.1,0.2-0.2C625.2,120.9,625.1,121,625,121.1z M566.9,63.8c-0.7,0.1-1.7-0.5-2,0.7c-0.8-0.1-1.7-0.4-2.2,0.6
		c-0.6,0-1.2,0-1.7,0.1c-2.7,0.8-5.4,1.7-8,2.6c-5.6,1.9-11.1,3.8-16.8,5.6c-7.9,2.5-15.7,4.9-23.6,7.4c-1.2,0.4-2.4,0.9-3.6,1.4
		c-3.7,1.7-6.8,4.3-9.9,6.8c-2.6,2.1-5.2,4.4-6.7,7.6c-0.4,0.8-1,1.6-1.5,2.4c-1.2,1.9-2.6,3.6-2.9,6c-0.1,0.6-0.5,1.1-0.7,1.6
		c-8.1,16.9-16.2,33.8-24.3,50.8c-2.5,5.3-5,10.7-7.5,16c-0.1,0.1,0.1,0.4,0.2,0.7c0.4,0,0.9,0.1,1.3,0.1c0.3,0,0.7-0.1,1.2-0.2
		c0.5-1,1.1-2,1.6-3.1c1.8-3.7,3.6-7.5,5.3-11.2c3-6.3,5.9-12.6,8.8-18.9c1.5-3.1,3.1-6.1,4.5-9.2c4.8-10,9.5-20,14.3-30
		c0.4-0.7,0.7-1.5,1.2-2.2c2.3-3,4.6-5.9,7-8.9c0.9-1.2,2-2.3,3.3-3.1c2.5-1.5,5-3.1,7.5-4.7c2.7,0.5,5.2,0.1,7.6-0.9
		c4.8-1.9,9.7-3.7,14.5-5.5c8.9-3.4,17.9-6.7,26.8-10.1c0.7-0.3,1.7-0.2,2-1.3c0.8,0.2,1.6,0.1,2.2-0.6c0.8,0,1.5-0.1,2-0.8
		c0.3-0.1,0.7-0.1,1.1-0.2C567.4,63,567.1,63.3,566.9,63.8z M615.1,128.9c-0.3,0.3-0.6,0.6-0.9,0.9c-0.1,0.2-0.2,0.5-0.4,1.3
		c0.6-0.6,0.9-0.8,1-1C615,129.8,615,129.3,615.1,128.9c0-0.1,0-0.2,0.1-0.3C615.2,128.8,615.1,128.9,615.1,128.9z M649.1,162.8
		c0,0.1,0,0.2,0,0.3c0,0,0.2,0,0.2,0.1C649.3,163.1,649.1,163,649.1,162.8c0.2-1-0.4-1.7-1.3-2.8C647.7,161.6,648,162.4,649.1,162.8
		z M608.7,92.7c1-0.1,2.1-0.1,3.1-0.3c0.3-0.1,0.9-0.2,0.6-1.1C611.2,91.8,609.8,91.7,608.7,92.7c-0.4,0.1-1,0.2-1.5,0.2
		C607.8,93.3,608.3,93.1,608.7,92.7z M645.6,112.5c0,0.2,0,0.4,0,0.6c0,0.1,0.1,0.2,0.2,0.3c0.1-0.2,0.3-0.4,0.2-0.5
		C645.9,112.8,645.7,112.7,645.6,112.5c-0.4-2-0.4-2-2.4-3.1C644,110.8,644.1,112.2,645.6,112.5z M627.8,86.4
		c2.2,1.3,4.5,1.7,7.2,1.1c-2.1-0.5-4-1-6-1.5C628.7,85.9,628.3,86.3,627.8,86.4c-1.9-0.2-3.7,0.1-5.8,1c0.7,0.5,1.1,0.8,1.4,1
		c1-0.4,1.9-0.6,2.7-1C626.7,87.1,627.3,86.7,627.8,86.4z M465.7,243.5l0.1,0.3L465.7,243.5c-0.4-3.1-1.3-5.1-3.6-7.2
		c0.8,2.8,2,5,3.3,7.1C465.4,243.5,465.6,243.5,465.7,243.5z M644.1,166.3c0,0.2,0,0.4,0.1,0.6c0,0.1,0.1,0.2,0.1,0.3
		c0.1-0.2,0.2-0.4,0.2-0.5C644.4,166.6,644.2,166.5,644.1,166.3c0.1-1.7-0.6-3-1.7-4.3c-0.6,0.3-1.1,0.6-1.7,1
		c0.5,0.9,0.8,1.7,1.3,2.5C642.5,166.2,643.3,166.5,644.1,166.3z M615.8,85.6c3.1,0,6-0.7,8.9-1.7c-0.1-0.5-0.3-0.9-0.3-1.4
		c-0.4-4.6-0.9-9.1-1.2-13.7c-0.2-2.3-0.9-4.1-2.7-5.5c-1-0.8-2-1.7-3-2.5c-1.9,0.2-3.7-0.5-5.4-1.2c-2.3-0.9-4.6-1.8-7-2.5
		c-3.7-1.1-6.9-0.8-10.3,0.8c3.3,1.6,5.6,4.5,9.2,5.6c0,1.1,0.5,2,1.4,2.9c2.7,2.8,5,5.9,7,9.3C614,78.9,615.5,82.1,615.8,85.6
		c0,0.1-0.1,0.1-0.2,0.1c-0.1,0-0.1,0.1-0.1,0.2C615.6,85.8,615.7,85.7,615.8,85.6z M446.6,232.1c0.1,0.3,0.1,0.6,0.2,0.9
		c0-0.1,0.2-0.2,0.1-0.3C446.9,232.6,446.7,232.4,446.6,232.1c0.1-0.3,0.2-0.7,0.4-1.1c0.4,0.1,0.7,0.1,0.9,0.2
		c2.1,1.3,3.8,3,4.9,5.4c2,4.4,4.4,8.6,8.4,11.8c1.1-0.1,2.4,0.4,3.7-0.5c0-0.4,0.1-0.9-0.1-1.3c-0.6-1.2-1.1-2.4-1.9-3.4
		c-1.4-1.7-2.3-3.5-2.9-5.6c-0.4-1.6-1.3-3-2.7-4c-1.1-0.8-2-1.9-3-3c-0.3-0.3-0.3-0.7-0.5-1.2c1.8-0.6,2.5,1.1,3.8,1.3
		c0.6-0.8,1.4-0.5,2.1,0.1c0.8,0.7,1.5,1.5,2.3,2.2c3.3,2.6,4.7,6.4,7,9.7c0.1,0.2,0.2,0.5,0.2,0.7c-0.3,2.2,1.4,2.8,2.9,3.4
		c0.7,0.3,1.4,0.2,1.8-0.5c-1.1-3.2-2.2-6.3-3.4-9.3c-0.6-1.7-1.4-3.1-3-4.2c-2.4-1.6-3.8-4.1-5.1-6.6c-0.2-0.4,0-1,0-2
		c0.8,0.6,1.3,0.9,1.7,1.3c1.5,1.3,2.8,3,4.6,3.8c2.5,1.1,4.6,2.9,6.9,4.2c1,0.6,1.9,1.2,2.3,2.5c0.5,1.3,4.3,4,5.7,4.5
		c1.5,0.6,2.5,0.1,3.3-1.3c-0.5-0.7-1.1-1.4-1.7-2.1c-1.2-1.6-2.4-3.2-3.4-5c-1.2-2.2-2.5-4.2-4.6-5.7c-0.6-0.4-1.1-0.9-1.5-1.5
		c-1.1-1.8-2.7-2.8-4.5-3.1c-1.1-1.9-2.1-3.5-3-5.2c-0.9-1.7-2.7-2.9-3.2-4.7c0.2-1.4,2-1.3,1.8-2.8c-1.3-0.8-2.7-1.3-4.2-1.5
		c-2.7-0.3-5.3-1-7.8-2c-1.7-0.7-3.5-1.3-5.4-2c-0.2-0.6-0.5-1.4-0.8-2.2c-0.2-0.7-0.3-1.4-0.5-2.1c-0.2-0.7,0-1.6-0.8-2.3
		c-0.5,0.7-1,1.3-1.3,1.9c-1.9,3.9-3.9,7.8-5.7,11.8c-2.1,4.5-4.1,9-6.2,13.5c-0.3,0.7-0.6,1.5-0.9,2.1c0.7,1.9,2.2,3,3.5,4.2
		c0,0.7,0,1.4,0,2c2,1.9,3.6,3.9,4.2,6.6c0.2,0.7,0.6,1.3,0.9,1.9c1.2,2.5,3.4,4.2,5.2,6.2c0.4,0.4,1.1,0.4,1.5-0.1
		c0.4-1.3-0.2-2.3-0.8-3.3c-1.4-2.1-2-4.5-2.8-6.8C444.3,234.5,444.9,233.2,446.6,232.1z M559.1,146.5c0.5,0,1,0.1,1.4-0.1
		c1.7-0.8,3.5-1.2,5.4-1.5c2.9-0.4,5.9-0.5,8.5-2.2c0.4-0.3,1.2-0.2,1.7,0c2.5,0.7,5,1.4,7.5,2.1c0.6,0.2,1.3,0.3,2,0.4
		c0.3-1.7,0.5-3.2,0.8-4.7c0.5-2.6,0.5-2.6,1.9-3.8c0.1,0.1,0.2,0.2,0.2,0.2c-0.5,3.8,0,7.5,0.4,11.2c0.3,3.6,1.8,6.5,3.9,9.3
		c0.6,0.8,1.3,1.7,2,2.4c2.6,2.8,5.5,5,9.4,5.7c1.1,0.2,2.1,0.5,2.6-0.9c0.1-0.2,0.6-0.4,0.9-0.4c1.4,0,2.7-0.6,4.1,0.3
		c1.1,0.7,2.5-0.1,3.5-0.2c0.8-0.8,0.6-2.1,2-2c1,0.7,0,1.5,0.4,2.7c0.9,1.2,2,2.8,3.1,4.3c3-0.1,3-0.1,6.8-3.8
		c-3.5-1-6.4-2.7-9.2-4.7c-0.6-0.4-1.3-0.5-2-0.8c-0.4-0.2-0.9-0.3-1.3-0.6c-0.3-0.3-0.6-0.7-0.6-1.1c-0.1-0.4,0.8-1.1,1.3-0.9
		c1.4,0.5,3,0.8,4.2,1.7c1.9,1.3,3.6,3,6.1,3.3c0.2,0,0.4,0.2,0.6,0.4c0.8,1,2,1.2,3.2,1.3c1.2,0.1,2.2,0.4,3.1,1.3
		c1.2,1.2,2.2,1.1,4,0.4c-1-2.5-2.1-5-3.1-7.5c-0.2-0.5-0.5-1.1-0.8-1.5c-0.2-0.2-0.6-0.2-1-0.2c-0.2,0-0.5,0-0.7,0
		c-0.7-1.9-1.7-3.5-3.2-4.9c-0.7-0.6-1.2-1.5-1.8-2.2c-0.6-0.6-1.1-1.3-1.8-1.6c-0.7-0.3-1.6,0-2.4,0.1c-0.8-1-1.6-2-2.2-2.8
		c-2.1-0.3-4-0.3-5.8-0.8c-2.2-0.6-4.4-0.8-6.6-0.6c-1.1,0.1-2.4,0.4-3.4-0.5c-0.3-1.2-0.5-2.4-0.8-3.5c1.1-2,3.1-2.3,4.5-3.5
		c1.6-3,2.5-6.1,2-9.5c-0.5-0.2-1-0.3-1.6-0.6c0,1.3,0,2.5,0,3.6c0,0.6,0.1,1.3-0.2,1.7c-1,1.6-2.3,3-4,3.9c-1,0.5-1.9-0.1-2-1.2
		c-0.1-0.9,0-1.8,0-3c-1.1,1.4-3,0.7-3.7,2.3c-0.2,0.5-1.4,0-1.5-0.8c-0.1-1.2,0.3-1.8,1.5-2c1.6-0.3,3.2-0.5,4.9-0.8
		c0.2-1.5-0.2-2.7-0.9-3.7c-0.9-0.1-1.7-0.2-2.6-0.3c1.6-1.6,1.6-1.6,4.4,0.1c1.3,2.2,1.4,4.3,0,6.4c-0.1,0.2,0,0.6,0.1,1
		c2.4-1.3,3.1-3.2,2.8-5.7c-0.1-1.3-0.7-2.2-1.7-2.9c-2.2-1.5-4.6-1.7-7.2-0.7c-1.6,1.9-2.4,4.2-2.9,6.6c-0.1,0.6-0.2,1.2-0.4,1.7
		c-0.1,0.2-0.6,0.6-0.8,0.5c-0.4-0.1-0.8-0.5-0.9-0.9c-0.1-2.4,0.9-4.5,2-6.6c0.8-1.6,1.9-2.6,3.6-3.2c0.6-0.2,1.3-0.5,2.1-0.7
		c-1.1-1.1-2.5-1.5-3.8-2c-2-0.7-3.5-2-4.5-3.8c-0.7-1.3-0.9-2.9-1.4-4.3c-1.1-3-1.5-6.1-2.8-9c-0.2-0.4-0.1-0.9-0.1-1.4
		c0.1-0.9,0.3-1.8,0.5-2.9c0.4-0.2,1.1-0.4,1.4-0.8c1.3-2,3.3-2.8,5.3-3.6c3.6-1.4,7.1-3.2,10.9-3.9c0.5-0.1,1-0.5,1.7-0.9
		c-0.9-0.5-1.4-0.9-2.1-1.2c-2.1-0.9-4.1-1.8-6.2-2.6c-2.3-0.9-4.6-1.9-6.6-3.3c-1.9-1.2-3.9-2.2-5.9-3.2c-4.3-2.1-8.9-2.2-13.5-1.4
		c-1.1,0.2-2.3,0.7-3.2,1.4c-1.3,1-2.4,2.2-3.5,3.2c-0.1,0.9-0.2,1.5-0.3,2.2c-0.7,0-1.2,0-2,0c-0.1,0.7-0.3,1.4-0.1,2
		c0.5,2.2,1,4.3,1.9,6.4c3.2,6.9,5.1,14.2,5.3,21.9c0.1,3.8,0,7.6-0.1,11.3c0,0.9-0.1,1.9,0.2,2.8c0.2,0.5,0.9,0.9,1.4,1.5
		c-0.8,1.2-1.8,2.1-2.2,3.3c-0.5,1.3-0.6,2.8-0.9,4.1c-0.3,1.1-0.7,2.2-1.2,3.3c-0.3,0.7-0.9,1.4-1.4,2c-0.3,0.3-0.8,0.6-1.4-0.2
		c1.4-2.1,2.8-4.4,2.8-7.3c-0.4-0.3-0.7-0.6-1.3-1c1.8-1.4,2.1-3.3,2.2-5.3c0.4-5,0.2-9.9-0.1-14.9c-0.5-8-2.5-15.6-6.2-22.7
		c-0.8-1.6-1.3-3.5-1.7-5.3c-0.3-1.4,0-2.9,1-4c2.9-3,6-5.7,10.2-6.6c5.5-1.2,11-1.2,16.2,1.5c1.7,0.9,3.4,1.7,4.9,2.8
		c1.9,1.3,3.9,2.2,6,3c1.4,0.6,2.9,1.1,4.3,1.6c2.4,0.9,4.8,2,6.5,4.1c1.2-0.6,2.2-1.1,3.2-1.6c-0.8-3.7-2.3-6.9-4.2-9.9
		c-2.1-3.3-4.6-6.3-7.2-9.2c-1.6-1.8-3.4-3.2-6.1-2.8c-1.2,0.2-2.6-0.3-3.8-0.7c-0.3-0.1-0.6-0.7-0.6-1.1c0-0.2,0.4-0.6,0.7-0.7
		c0.8-0.3,1.8,0.1,3-0.6c-2.6-1-4.1-2.7-5.5-4.5c-2,0.7-3.7,1.9-5.8,1.6c-0.3,0-0.7,0.2-1,0.4c-11.7,4.4-23.4,8.8-35.1,13.2
		c-0.5,0.2-0.9,0.5-1.8,1c4.3,1.6,8.7,1.7,12.2,5c-0.7,0.3-1.1,0.6-1.5,0.5c-1.3-0.3-2.5-0.8-3.7-1.1c-4-1-8-1.9-12.1-2.8
		c-7,2.7-14,5.3-21.6,8.2c1.2,0.4,1.8,0.7,2.5,0.9c6.8,1.7,13.3,4.1,19.6,7.1c6.9,3.3,12.8,7.9,17.3,14.2c7,9.8,7.8,20.2,4.2,31.3
		c-0.4,1.1-0.9,2.2-1.2,3.3c-0.4,1.9-1.3,3.5-2.5,5C559.6,145.5,559.4,146,559.1,146.5l-0.1,0.3L559.1,146.5z M447.1,131.8
		c0.5-0.1,1-0.4,1.4-0.3c2.2,0.5,4.5,0.7,6.4,1.6c4.5,2,9.1,3.1,13.9,3.9c0.7,0.1,1.4,0,2.1,0c0.4-0.7,0.7-1.3,1-2
		c4.5-9.5,9-18.9,13.6-28.4c0.3-0.6,0.5-1.3,0.8-2c0.6-1.3,1.1-2.6,1.8-3.8c2.3-4.1,5.1-8,8.3-11.4c0.4-0.4,0.6-0.9,1.2-1.8
		c-5.7-0.1-11-0.4-16.3,0.3c-5.4,0.7-10.7,1.7-16,2.7c-4.3,0.8-8.6,1.5-12.4,3.9c-0.8,0.5-1.7,0.7-2.6,1c-3.1,1.1-6.4,1.5-9.7,2
		c-4.5,0.7-9.1,1.4-13.6,2.3c-3.6,0.7-7,1.9-10.9,1.9c-0.5,1.5-1,2.9-1.5,4.2c1.7,1.5,1.8,1.5,1.7,2.3c-0.2,2-0.4,4-0.7,6
		c-0.1,0.3-0.5,0.6-0.9,1.1c-1.4-1.9-0.3-4-1.1-6.4c-0.4,1.4-0.8,2.2-0.8,2.9c-0.3,5.8-0.5,11.6-0.6,17.3c-0.1,4.8,0.3,9.7,0.3,14.5
		c-0.1,9.5,1.6,18.8,4.5,27.8c1,3.1,2.1,6.3,3.1,9.4c0.5,1.6,1,3.2,1.1,4.8c0.1,1.9,0.5,3.7,1.1,5.5c2,6.1,5.1,11.6,8,17.3
		c0.1,0.2,0.3,0.2,0.5,0.3c0.2-0.2,0.4-0.3,0.6-0.4c2.9-4.2,5.9-8.3,8.6-12.5c2.2-3.5,4.3-7,4.6-11.3c0-0.5,0.2-0.9,0.3-1.4
		c0.4-1.4,0.3-2.8,0-4.2c-0.6-3.1-1.1-6.3-1.6-9.4c-0.1-0.5,0-1-0.3-1.4c-1-1.3-0.7-2.7-0.3-4.1c0.9-3.7,1.9-7.3,2.8-11
		c0.6-2.4,1.3-4.8,2-7.1c1.3-4.4,0.8-8.9,0.3-13.3c-0.1-0.4-0.4-0.9-0.6-1.3L447.1,131.8z M546.6,67c0.9-2,2.6-2.4,4.4-2.5
		c1.8-0.1,3.5,0,5.3-0.1c1.4-0.1,2.8-0.2,4.2-0.6c8.1-2.5,16.2-5.2,24.2-7.8c0.4-0.1,0.8-0.4,1.3-0.7c-0.5-0.3-0.8-0.6-1-0.7
		c-2.9-0.7-5.7-1.4-8.6-2c-1.4-0.3-2.8-0.3-4.2,0.1c-0.6,0.2-1.4,0.3-2.1,0.2c-2.7-0.7-5.1-0.3-7.4,1.1c-0.2,0.1-0.4,0.2-0.7,0.3
		c-4,0.9-7.9,2.5-11.7,4.1c-0.9,0.4-1.8,0.7-2.7,0.9c-1.1,0.2-2.4,0.3-3.5,0c-1.5-0.5-3-0.5-4.5-0.3c-7.2,0.5-14.3,1.7-21.4,3
		c-2.8,0.5-5.5,1.3-8.1,2.4c-2.7,1.2-5.6,1.8-8.6,1.7c-1.1,0-2.1,0.2-3.2,0.2c-1.4,0-2.8,0.1-4.2,0c-1.6-0.1-3.3-0.2-4.9,0.1
		c-2.1,0.4-4.2,0.4-6.3,0.4c-0.7,0-1.3,0.1-2,0.5c-1.4,0.8-2.9,0.8-4.5-0.4c0.5-0.3,0.9-0.8,1.2-0.8c2.4,0.2,4.6-0.7,6.8-1.3
		c0.8-0.2,1.7-0.3,3.3-0.6c-2.3-0.7-3.9-1.6-5.4-1.5c-2.5,0-4.9-0.5-7.4-0.7c-5.5-0.5-10.8,0.2-15.9,2.5c-4.3,1.9-8.5,4-12.7,6.1
		c-3.4,1.8-6.3,4.2-8.9,6.9c-1.3,1.4-2.5,2.8-3.7,4.3c-3,3.4-5.5,7.1-6.6,11.6c-0.2,0.9-0.7,1.7-1,2.6c-0.2,0.5-0.4,1.1,0.3,1.7
		c0.4,0,0.8,0.1,1.3,0c3.1-0.5,6.3-1,9.4-1.5c2.9-0.4,5.8-0.8,8.8-1.2c1.8-0.3,3.4-0.8,4.7-2.2c0.7-0.8,1.7-1.3,2.7-1.7
		c2.2-0.9,4.4-1.8,6.7-2.3c3.7-0.9,7.4-1.5,11.1-2.1c3.6-0.6,7.2-1.2,10.9-1.6c5.5-0.6,11.1-0.3,16.6,0.3c2.6,0.3,4.3-0.5,5.2-2.9
		c8.4-3.4,17.3-5.2,26.2-8.8c-1.6-0.3-2.6-0.5-4-0.8c1.6-1,2.9-0.8,4.1-0.6c3.1,0.6,5.8-0.2,8.6-1.2c1.1-0.4,2.3-0.7,3.4-1.1
		c0.6-0.2,1.1-0.5,1.8-0.8c-1.5-0.8-3.2,0.2-4.2-1.5c0.6-0.2,1.2-0.5,1.7-0.5C542.9,66.9,544.6,67,546.6,67z M285.9,19
		c1,0.5,1.5,0.9,2.1,1c3.3,0.7,6.1,2.3,9.1,3.8c1.3,0.6,2.6,1.1,4,1.5c4.1,1.2,8.1,2.6,11.8,4.6c0.5,0.3,1.1,0.5,1.6,0.7
		c3.4,1,6.2,2.9,8.7,5.2c1.5,1.4,2.8,2.9,4.2,4.3c0.5,0.5,1,1.1,1.6,1.3c1.4,0.4,2.5,1.3,3.7,2.1c1.8,1.2,3.7,2.1,5.8,2.6
		c2.5,0.5,5.1,1.1,7.6,1.7c2,0.6,3.9,0.5,5.9-0.2c1.7-0.6,3.4-0.8,5.2-1.2c1.2-0.3,2.3-0.1,3.5,0.4c3.4,1.4,7,2.1,10.7,2.3
		c2,0.1,4,0.4,5.9,1.2c0.5,0.2,1.1,0.2,1.5,0.3c1.6-1.4,3.2-2.6,4.8-4c-5.1-2.1-9.5-5-13.6-8.5c-1.3-1.1-2.6-2-4.1-2.7
		c-2-0.9-3.9-2.2-5.7-3.4c-1.6-1-3.1-2.2-4.7-3.2c-2.8-1.8-5.8-3.1-9.2-3.4c-3.5-0.3-7-0.7-10.6-1.1c-3.7-0.4-7.5-0.9-11.3-0.8
		c-5.9,0.3-11.8-0.2-17.6-1.5c-3.9-0.9-7.9-1.4-11.3-3.9c-0.4-0.3-1.1-0.4-1.7-0.6c-1.4-0.3-2.8-0.2-4.1-0.9c-0.4-0.3-1.4,0-1.9,0.4
		C287.1,17.3,286.6,18,285.9,19z M451.2,135.5c0,0.6,0,1.1,0,1.5c0.4,4.2-0.1,8.2-1.3,12.2c-1,3.3-2,6.5-3.1,9.8
		c-0.8,2.6-1.4,5-1.1,7.9c0.3,3.3,0.7,6.5,1.5,9.7c0.2,0.5,0.2,1.2,1.1,1.5c1.5-0.8,3.1-1.7,4.5-2.5c0.6-1.4,1.1-2.6,1.6-3.8
		c4.1-8.7,8.3-17.4,12.5-26.2c0.3-0.7,0.6-1.5,1-2.4c-3.2-1.3-7.1-1.1-8.5-4.7c-1.6-0.6-2.9-1.1-4.2-1.7
		C454,136.3,453.1,134.8,451.2,135.5z M609.2,55.3c-0.8-1-1.1-1.4-1.5-1.7c-3.1-2.8-6.6-5-10.6-6.2c-2.5-0.7-5-1.2-7.5-1.8
		c-5-1.2-9.2,0.9-13.1,3.7c-0.1,0,0,0.2,0,0.5c1.4,0.3,2.9,0.6,4.3,1c3.2,1,6.5,2.2,9.7,3.3c1.5,1.6,3.2,1.3,4.8,0.6
		c3.1-1.4,6.2-1.2,9.3-0.6C605.9,54.4,607.1,54.8,609.2,55.3z M451.6,201.7c5.1,2.1,11.1,3.4,13.8,3.1c-1.6-3.5-3.8-6.5-5.8-9.7
		c-0.4-0.6-0.8-1.1-1.2-1.7c-0.4-0.6-0.8-1.2-1.2-1.7c-0.3-0.5-0.7-0.9-1-1.4c-0.4-0.6-0.6-1.3-0.9-1.9c-0.3-0.5,0.1-1.4-1-1.8
		c-1.2,1.6-2.5,3.1-3.5,4.8c-0.3,0.6-0.6,1.3-0.5,2C450.4,196.1,450.7,198.9,451.6,201.7z M277.7,17.9c0.5-0.6,0.9-1,1.2-1.5
		c0.4-0.7,0.8-1.4,1.2-2.1c0.8-1.3,1.6-2.3,3.4-1.9c0.5,0.1,1.1-0.5,1.6-0.4c1,0,2.2,0.1,3.1,0.5c1.1,0.5,2.1,0.9,3.3,1.1
		c1.1,0.1,2,0.8,3.3,1.2c-0.8-3.4-3.2-5-6.1-5.3c-3.1-0.3-6.3-1-9.4,0.2c-0.3,0.1-0.7,0.1-1-0.1c-1.4-0.8-2.2,0.2-3,1
		c-0.8,0.8-1.4,1.8-2,2.7c0.3,1.2,0.6,2.3,0.8,3.4C275.3,17.1,276.2,17.4,277.7,17.9z M477.5,218.3c0.6,0.6,1,1.2,1.6,1.5
		c0.7,0.4,1.5,0.8,2.3,0.9c1.6,0.2,3.3,0.3,4.9,0.3c0.4,0,0.8-0.2,1.6-0.5c-1.1-0.9-2-1.5-2.7-2.2c-0.8-0.7-1.4-1.6-2.1-2.4
		c-1.6-1.8-2.2-2.1-5.4-1.8C477.6,215.5,477.6,216.9,477.5,218.3z M283.9,18.3c0.5-0.9,1-1.7,1.4-2.5c0.5-0.9,2-0.9,2.1-2.3
		c-0.8,0-1.6-0.1-2.4,0c-0.8,0.1-1.6,0.3-2.3,0.5c-0.7,1-1.6,1.8-1.3,3.2c0.3,0.2,0.5,0.4,0.8,0.6C282.7,17.9,283.3,18.1,283.9,18.3
		z M639.5,99.1c-0.1,3.6,0,3.7,2.9,4.8c0.9-1.6-0.1-2.9-0.9-4.1C641.3,99.3,640.4,99.4,639.5,99.1z M662.7,107
		c0.3-0.1,0.5-0.3,0.8-0.4c-1.3-3.1-2.2-6.4-5.1-8.8c0,0.5-0.1,0.7,0,0.9C659.8,101.5,661.2,104.3,662.7,107z M608.1,99.7
		c-2.8,0.5-4.8,1-6.7,2.1c1.7,0.1,3.5,0,5.2-0.2c0.3,0,0.8-0.1,0.9-0.4C607.7,101,607.8,100.6,608.1,99.7z M635.1,90.2
		c1.6,1.7,3.2,2.1,5.1,2.4c0.1-0.6,0.1-1.1,0.2-1.7C638.7,90.5,637.1,90.3,635.1,90.2z M665.7,145.7c0.7-2.6,1.5-5.1,0.9-8.3
		C665.6,140.5,665.2,143.1,665.7,145.7z M643.8,140.7c0.1-2.8-0.4-4.5-1.7-6.3C641.7,136.8,642.1,138.9,643.8,140.7z M622.2,103.6
		c0.3,1.2,0.5,2.1,0.8,3c0.1,0.5,0.4,0.8,1.1,0.6c0.3-1.3,0.2-2.6-0.1-4.1C623.4,103.2,622.9,103.4,622.2,103.6z M637.9,140.7
		c0.9,2.8,0.8,2.8,2.3,4.1C639.6,142.4,639.6,142.4,637.9,140.7z M623.4,97.3c-0.9-0.5-1.6-0.7-2.5-0.1c-0.2,0.7-0.3,1.3,0.5,1.7
		C622.4,98.8,623.1,98.4,623.4,97.3z M616.1,97.3c-1,1.2-1,1.2,0.2,3c0.2-0.1,0.5-0.1,0.6-0.2c0.1-0.1,0.3-0.5,0.3-0.6
		C616.9,98.8,616.5,98.1,616.1,97.3z M626.5,96.2c1.2-2.1,1.2-2.2-0.7-4.2C626,93.4,626.2,94.5,626.5,96.2z M664.2,161.2
		c0.5-1.5,0.8-3.1,0-4.7C664.2,158,664.2,159.6,664.2,161.2z M633.2,113.6c-1,1.4-0.8,2,0.8,2.9
		C634.3,115.4,633.7,114.6,633.2,113.6z M651.5,110.3c-0.6,1.8-0.6,1.8,0.8,3.3C652.7,112.4,652.1,111.6,651.5,110.3z M632.5,94.2
		c-0.1,0.2-0.3,0.4-0.4,0.5c0.5,0.6,0.9,1.2,1.5,1.9c0.4-0.6,0.7-0.9,1.1-1.4C633.8,94.8,633.1,94.5,632.5,94.2z M617.9,90.7
		c-0.3-0.3-0.6-0.5-0.6-0.5c-0.5,0.2-1,0.5-1.4,0.8c-0.1,0.1,0,0.5,0.1,0.6c0.4,0.1,0.9,0.2,1.2,0.1C617.5,91.4,617.7,91,617.9,90.7
		z M631,109.3c0,1.2,0,1.2,0.7,2.3C632,110.4,632,110.4,631,109.3z M625.9,129.7c-0.1-0.3-0.1-0.7-0.4-0.9c-0.2-0.2-0.5-0.2-0.8-0.2
		c-0.1,0-0.3,0.4-0.2,0.6c0.1,0.3,0.2,0.6,0.4,0.9c0.1,0.1,0.4,0.2,0.6,0.2C625.7,130.1,625.8,129.8,625.9,129.7z M609.3,123.1
		c1,1.5,1.7,1.7,2.7,1C611.3,123.8,610.6,123.6,609.3,123.1z M647.5,98.3c0.4,0.3,0.7,0.5,1,0.8c0.1,0,0.3,0,0.3-0.1
		c0-0.2,0.1-0.5,0-0.5C648.5,98.2,648.1,97.8,647.5,98.3z M638.1,97.1c-0.2,1.2,0.2,1.4,1.4,1C639,97.8,638.6,97.5,638.1,97.1z
		 M660.2,110.8c-0.2-0.1-0.4-0.2-0.6-0.1c-0.1,0.1-0.2,0.3-0.3,0.5c0.2,0.1,0.4,0.2,0.6,0.2C660,111.2,660.1,111,660.2,110.8z
		 M467.8,58.5c0-0.1,0-0.2-0.1-0.2c-0.2,0-0.4,0-0.6-0.1c0,0.1,0,0.3,0.1,0.3C467.4,58.6,467.6,58.5,467.8,58.5z M645.3,93.5
		c0.1-0.1,0.1-0.3,0.2-0.4c-0.3-0.2-0.7-0.3-1-0.5c-0.1,0.2-0.1,0.4-0.2,0.6C644.7,93.3,645,93.4,645.3,93.5z M660.9,165.6
		c0-0.1-0.1-0.2-0.1-0.3c-0.1,0.1-0.2,0.1-0.2,0.1c0.1,0.1,0.1,0.3,0.2,0.4C660.8,165.7,660.9,165.6,660.9,165.6z M638.2,112.4
		l-0.2,0l0.1,0.3L638.2,112.4z M617.6,104c0,0.1-0.1,0.2-0.1,0.2c0,0,0.1,0.1,0.2,0.1c0-0.1,0.1-0.2,0.1-0.2
		C617.7,104.1,617.6,104,617.6,104z M632.5,128.1l-0.1,0l0,0.3L632.5,128.1z M633.1,130.2l0,0.3L633.1,130.2L633.1,130.2z
		 M569.6,62.7c0.1,0,0.2,0,0.3,0.1c-0.1-0.1-0.1-0.1-0.2-0.2C569.6,62.6,569.6,62.6,569.6,62.7z M595.1,112.9
		c-0.1-0.1-0.1-0.2-0.2-0.2c0,0.1,0,0.3,0,0.4C595,113,595.1,113,595.1,112.9z M613.4,105.1l-0.2-0.1l0,0.2L613.4,105.1z"/>
	<path d="M377.4,387.3c0.6-0.8,1.1-1.5,1.6-2.2c0,3.5-1.4,6.7-1.6,10.1c-0.2,3.4-0.3,6.8-0.1,10.2c0.3,3.4,1,6.7,1.6,10.2
		c-0.3,0.5-0.8,0.6-1.3,0c-0.3-0.4-0.4-0.8-0.6-1.3c-0.7-2.6-1.2-5.3-1.3-8c0-5.5-0.1-11.1,1.3-16.5c0.1-0.2-0.1-0.4-0.2-0.9
		c-0.9,0-1.8-0.1-2.7-0.1c-2.1,0-4.2-0.2-6.3-0.5c-4.4-0.6-8.9-0.9-13.3,0.7c-2.9,1-5.8,0.8-8.7,0.2c-0.8-0.2-1.6-0.4-2.4-0.7
		c-2.8-0.9-5.5-1.9-8.5-2c0-0.9,0.5-1.3,1.1-1.2c1.5,0.3,3,0.6,4.5,1c2.2,0.6,4.3,1.2,6.5,1.8c2.2,0.6,4.4,0.7,6.6-0.2
		c4.9-1.9,9.9-1.7,15-0.8C371.6,387.7,374.5,387.7,377.4,387.3z"/>
	<path d="M388,389.8c0.1-1.4,1.2-1.6,2.1-2.1c0.9-0.5,1.8-0.9,3.2-1.6c-2.5-0.1-4.3-0.2-6.2-0.3c0-0.1,0-0.2,0-0.4
		c0.7-0.1,1.3-0.3,2-0.4c1.4-0.1,2.8-0.2,4.2-0.2c2.3,0,4.5-0.2,6.3-1.5c0.8,0.4,1.4,0.7,2,0.9c0.5,0.1,1.1-0.5,1.6,0.1
		c-0.1,0.2-0.1,0.5-0.2,0.6c-0.1,0.2-0.4,0.3-0.6,0.3c-4.1,0.4-7.6,2.4-11.3,3.9C390.2,389.6,389.3,390.3,388,389.8z"/>
	<path d="M369.2,365.9c-1.6,2.1-3.9,3.6-5.7,5.5c-1.9,1.9-3.9,3.8-5.6,5.8c-1.7,2-3.2,4.3-4.9,6.7c-0.1-0.6-0.3-1-0.2-1.2
		c0.7-2.1,1.9-4,3.3-5.8c3.3-4.3,7.4-7.8,11.6-11.3C368,365.2,368.6,365.2,369.2,365.9z"/>
	<path d="M400.4,424.6c0.2-0.4,0.2-0.9,0.5-1c0.6-0.3,1.3-0.6,2-0.8c5.5-1.4,10.6-3.8,15.3-7.1c0.5-0.3,1-0.6,1.5-0.8
		c0.3-0.1,0.6,0.2,1.1,0.3c-0.3,0.5-0.5,1-0.8,1.2c-2.9,2.3-6.1,4.1-9.4,5.5c-2.8,1.2-5.7,2.2-8.7,2.8
		C401.5,424.9,401,424.7,400.4,424.6z"/>
	<path d="M262,417.3c-0.9,0-1.9-0.1-2.8-0.1c-0.8-0.1-1.3-0.6-1.5-1.3c-0.2-0.7,0.4-1.7,1.2-1.9c2.3-0.5,4.6-0.5,6.9,0.3
		c0.4,0.2,0.9,0.9,0.8,1.3c0,0.5-0.5,1-0.9,1.3c-0.3,0.2-0.9,0.3-1.3,0.3C263.7,417.2,262.8,417.2,262,417.3
		C262,417.2,262,417.3,262,417.3z"/>
	<path d="M497.6,332.2c-0.2-0.5-0.5-0.9-0.5-1c0.4-0.6,0.7-1.2,1.3-1.6c2.9-2.3,6.1-3.9,9.7-4.8c0.9-0.2,1.9-0.2,2.8-0.2
		c0.3,0,0.7,0.5,1.4,1.1C506.4,326.1,502,329,497.6,332.2z"/>
	<path d="M496,374.8c0.1-0.4,0.2-1,0.5-1.5c1.7-2.5,3.4-5,5.1-7.5c0.3-0.4,0.6-0.7,1-1c0.2-0.1,0.5-0.2,0.6-0.1
		c0.2,0.2,0.4,0.5,0.5,0.8c0.1,0.2,0,0.5-0.1,0.7c-1.3,3.3-3.4,6.1-5.8,8.7C497.5,375.5,496.7,375.6,496,374.8z"/>
	<path d="M497.7,397.8c-0.1-0.5-0.3-0.9-0.1-1.3c0.2-0.5,0.6-1,1.1-1.3c2.6-1.6,5.1-3.2,7.7-4.8c0.2-0.1,0.4,0,0.9,0
		c0.1,0.4,0.2,0.8,0.1,1.2c0,0.3-0.3,0.6-0.6,0.9C505.1,394.2,500.5,396.9,497.7,397.8z"/>
	<path d="M366.4,413.4c-1.4,0.8-2.6-0.2-3.8-0.5c-1.2-0.3-2.5-0.7-3.7-1.1c-1.3-0.4-2.7-0.8-4.1-1.1c-1.2-0.3-2.5-0.6-3.7-1
		c-1.3-0.4-2.8-0.4-4-1.5c0.9-0.5,1.8-0.2,2.6,0C355.3,409.7,361.2,410.2,366.4,413.4z"/>
	<path d="M533.1,318.1c0.5-0.1,1.1-0.3,1.6-0.2c3.1,0.8,5.7,5.2,4.8,8.3c-0.1,0.3-0.6,0.8-1,0.8c-0.3,0-0.7-0.4-1.1-0.7
		c-0.1-0.1-0.1-0.2-0.1-0.3c-0.1-2.9-1.6-5.1-3.8-6.8c-0.2-0.1-0.3-0.4-0.4-0.6C533.1,318.6,533.2,318.4,533.1,318.1z"/>
	<path d="M521.4,337c0.7-0.3,1.2-0.6,1.5-0.5c0.5,0.1,1.1,0.5,1.5,0.9c1.7,1.8,2.8,4,3.3,6.5c0.2,0.9,0.1,1.8-1.2,2.4
		c-1.1-1.4-1.2-3.2-2.1-4.6C523.5,340.2,522.6,338.8,521.4,337z"/>
	<path d="M414.6,423.9c0.5-0.4,0.7-0.7,1-0.8c4-1.9,8-3.8,12.2-5.8c0,0.4,0.2,0.9,0,1c-3.7,3-7.9,4.9-12.5,6.2
		C415.2,424.6,415,424.3,414.6,423.9z"/>
	<path d="M475.1,439.8c0.6,0.7,1,0.9,1.1,1.2c0.5,3,0.2,6.1-0.1,9.1c0,0.2-0.2,0.4-0.4,0.6c-0.2,0.1-0.4,0.2-0.6,0.2
		c-0.2,0-0.5-0.2-0.6-0.3c-0.2-0.4-0.4-0.9-0.4-1.3c0-2.3,0.1-4.7,0.2-7C474.4,441.5,474.7,440.9,475.1,439.8z"/>
	<path d="M305.6,376.3c1.9-1.7,4.3-1.2,6.3-1.7c1.1-0.2,2.3-0.4,3.3,1c-0.4,0.3-0.8,0.8-1.3,0.9
		C311.3,376.7,308.6,377.8,305.6,376.3z"/>
	<path d="M356,419.8c-0.7,0-1.4,0.1-2.1-0.1c-3.7-0.9-7.5-1.9-11.1-2.9c0-0.8,0.5-1,0.9-0.9c0.7,0.1,1.4,0.2,2.1,0.5
		c3.2,1,6.5,2,9.7,3C355.6,419.5,355.7,419.8,356,419.8L356,419.8z"/>
	<path d="M411.9,359.4c-0.2,0.4-0.3,0.8-0.5,0.9c-1.5,0.9-3.2,1.2-5,1.3c-0.2,0-0.6-0.3-0.7-0.6c-0.1-0.2,0.2-0.7,0.4-0.8
		c1.5-0.8,3.2-1.2,4.9-1.3C411.3,358.7,411.6,359.1,411.9,359.4z"/>
	<path d="M433.8,346.3c-2-1.1-4-2.2-6-3.2c-0.2-1,0.5-1.1,1-1c1.9,0.3,3.4,1.4,4.8,2.7C434.1,345.2,433.9,345.8,433.8,346.3
		L433.8,346.3z"/>
	<path d="M322.6,388.2c-0.4,1-1.2,1-1.8,0.9c-1.7-0.3-3.7,0.1-5.2-1.4c0.2-0.3,0.3-0.6,0.5-0.6c1.9-0.6,3.6,0.5,5.5,0.5
		C321.9,387.5,322.2,388,322.6,388.2z"/>
	<path d="M432.8,422.8c2-1.2,4.1-2.4,6.2-3.7c0.1,0.4,0.4,0.9,0.3,1C437.7,422.3,435.6,423.4,432.8,422.8z"/>
	<path d="M496.2,336.3c-1.3,1.2-2.2,2.8-4.1,3.7c-0.2-0.4-0.4-0.8-0.4-1c0.4-1.7,1.4-2.9,3.1-3.6
		C495.5,335.1,495.9,335.5,496.2,336.3z"/>
	<path d="M400.5,366.8c-0.2,0.4-0.4,0.9-0.7,1c-2,0.9-4.2,1.3-6.9,1.1c0.6-0.6,0.8-1.1,1.1-1.1C396.1,367.4,398.3,367.1,400.5,366.8
		L400.5,366.8z"/>
	<path d="M521.7,400.1c-1.8-0.1-2.7-1-3.4-2.1c-0.2-0.3,0-0.9,0.2-1.2c0.1-0.2,0.7-0.3,0.9-0.2C520.6,397.3,521.8,398.1,521.7,400.1
		z"/>
	<path d="M524.9,323.4c-0.2,0.1-0.5,0.5-0.7,0.5c-0.9-0.2-1.7-0.4-2.6-0.7c-0.5-0.2-0.5-1.2,0-1.5c1.2-0.7,2.9-0.1,3.3,1.2
		C525,323,524.9,323.2,524.9,323.4z"/>
	<path d="M320.8,369.5c2-0.6,3.3-0.3,4.7,0.7C323.6,371.2,323.6,371.2,320.8,369.5z"/>
	<path d="M550.8,392.3c0-0.5-0.3-1-0.1-1.3c0.3-0.5,0.9-0.9,1.5-1.4C552.7,391.4,552.7,391.4,550.8,392.3z"/>
	<path d="M254.3,377.9c-1.5,0.4-2.6,0.7-3.7-0.1c0-0.8,0.5-1,0.9-1C252.4,376.8,253.4,376.8,254.3,377.9z"/>
	<path d="M479.3,426.9c0.2,1.4-0.2,2.2-1,2.7c-0.2,0.2-0.7,0-1.2,0C477.5,428.3,477.6,427.1,479.3,426.9z"/>
	<path d="M260.8,375.7c1.2-1.3,2.2-1.4,3.4-0.9C263.4,376.2,263.4,376.2,260.8,375.7z"/>
	<path d="M299.3,375.5c1.4-1.2,1.4-1.2,2.6,0.1C300.6,376.7,300.6,376.7,299.3,375.5z"/>
	<path d="M505,359.1c0.6,2.1,0.5,2.5-0.4,2.9c-0.2,0.1-0.5,0-0.6-0.1c-0.2-0.1-0.3-0.4-0.3-0.6c0-0.2,0.1-0.4,0.2-0.6
		C504.1,360.4,504.4,360,505,359.1z"/>
	<path d="M488.9,400.7c-0.1-0.2-0.5-0.5-0.6-0.9c-0.1-0.7,0.4-1.1,1-1.1c0.3,0,0.9,0.4,1,0.7C490.6,399.9,489.9,400.6,488.9,400.7z"
		/>
	<path d="M512.2,400.1c-0.1,0.2-0.3,0.5-0.6,0.6c-0.6,0.2-1.3-0.4-1.3-1.2c0-0.3,0.3-0.7,0.5-0.8C511.4,398.5,512,399.1,512.2,400.1
		z"/>
	<path d="M489.2,342.1c0.4,1.4,0.2,2.1-0.8,2.4c-0.1,0-0.5-0.2-0.5-0.3C487.9,343.2,488.1,342.4,489.2,342.1z"/>
	<path d="M516.2,395.1c-0.4-0.3-0.9-0.5-1.2-0.8c-0.2-0.2-0.2-0.7-0.1-0.9c0.1-0.2,0.6-0.2,0.9-0.1
		C516.6,393.7,516.9,394.3,516.2,395.1z"/>
	<path d="M311,385.7c1.1-0.7,1.9,0.1,3.2,0.4C312.3,386.6,312.3,386.6,311,385.7z"/>
	<path d="M530.4,316.9c-1.2,0.5-1.8,0.1-2.3-0.8C529.1,315.6,529.8,315.9,530.4,316.9z"/>
	<path d="M476.6,435.7c0.6,1,0.5,1.7-0.7,2.3C475.4,436.9,475.6,436.2,476.6,435.7z"/>
	<path d="M507.1,353.6c0.1,0.2,0.3,0.4,0.3,0.6c0,0.6-0.5,1.1-1,1c-0.2,0-0.4-0.2-0.5-0.4c-0.2-0.5,0.2-1,0.8-1.2
		C506.8,353.6,506.9,353.6,507.1,353.6z"/>
	<path d="M258.7,375.6c-1,1.2-1,1.2-2.3,0.8C257.3,375.2,257.3,375.2,258.7,375.6z"/>
	<path d="M524.8,314.7c0.2-0.1,0.4-0.4,0.5-0.4c0.4,0.1,0.8,0.3,1.1,0.4c-0.1,0.3-0.3,0.8-0.4,0.8c-0.4-0.1-0.8-0.3-1.1-0.5
		C524.8,315,524.8,314.8,524.8,314.7z"/>
	<path d="M485.7,347.2c-0.3,0.3-0.5,0.4-0.8,0.6c-0.2-0.2-0.6-0.5-0.5-0.7c0-0.2,0.4-0.4,0.6-0.7
		C485.2,346.7,485.4,346.9,485.7,347.2z"/>
	<path d="M295.3,376.1c-0.6,0.5-1,0.4-1.3,0c-0.1-0.1,0.1-0.3,0.1-0.5C294.6,375.8,294.9,375.9,295.3,376.1z"/>
	<path d="M494.3,398.4c-0.4,0.2-0.7,0.3-1.1,0.4c-0.1,0-0.3-0.3-0.4-0.4c0,0,0.1-0.2,0.1-0.3c0.4-0.1,0.8-0.1,1.2-0.2
		C494.2,398.1,494.2,398.2,494.3,398.4z"/>
	<path d="M439.4,338.5c1,0,1.7,0.5,2.1,1.4l0.1-0.1C440.6,339.8,439.8,339.5,439.4,338.5L439.4,338.5z"/>
	<path d="M288.9,375.7c-0.1,0-0.2,0.1-0.3,0.1c-0.1,0-0.2-0.1-0.2-0.1c0.1,0,0.2-0.1,0.3-0.1C288.7,375.5,288.8,375.6,288.9,375.7z"
		/>
	<path d="M439.5,338.4c-0.4,0-0.8-0.1-1.4-0.1C438.9,337.7,439.2,337.9,439.5,338.4L439.5,338.4z"/>
	<path d="M442.2,340.7c0.3,0.1,0.5,0.1,0.8,0.2c-0.1,0-0.2,0.2-0.2,0.1C442.6,340.9,442.4,340.8,442.2,340.7L442.2,340.7z"/>
	<path d="M441.5,339.9c0.5,0,0.8,0.2,0.6,0.8l0.1-0.1C442,340.4,441.8,340.1,441.5,339.9L441.5,339.9z"/>
	<path d="M406.9,380.9c-0.1,0-0.2-0.1-0.3-0.1C406.7,380.9,406.8,380.9,406.9,380.9L406.9,380.9z"/>
	<path d="M400.5,366.8c0.1-0.1,0.2-0.2,0.3-0.3c0,0.1,0,0.2-0.1,0.2C400.7,366.8,400.6,366.8,400.5,366.8L400.5,366.8z"/>
	<path d="M453.8,449.1c0.7,0.2,1,0.8,0.7,1.3c-1.3,2.4-2.5,4.8-4.3,6.8c-0.1,0.1-0.2,0-0.3,0C449.7,454.7,450.9,452.2,453.8,449.1z"
		/>
	<path d="M418.3,403.9c2.4-0.2,4.4-2.1,7-1.7c0,0.4,0,0.7-0.1,0.9c-1.3,1.7-3,2.5-5.1,2.6C419.2,405.7,418.4,405.5,418.3,403.9z"/>
	<path d="M433.5,541.2c-1.7-2.7-0.6-4.5,0-6.4c0.4,0.2,0.7,0.2,0.7,0.3C434.7,536.9,434.3,538.7,433.5,541.2z"/>
	<path d="M461.2,359.6c0.6,1.7,0.3,3.1-0.1,4.4c-0.1,0.2-0.5,0.4-0.8,0.5c-0.2,0-0.5-0.1-0.6-0.3C458.8,362.7,459.3,361,461.2,359.6
		z"/>
	<path d="M461.5,355.2c0.1-1.2,0-1.9,0.2-2.4c0.7-1.7,1.8-2.6,2.3-2c0.8,1.1-0.1,2-0.6,2.8C463,354.1,462.4,354.4,461.5,355.2z"/>
	<path d="M447.5,465.2c-0.4-0.7-0.7-1-0.7-1.2c0-0.4,0.2-0.9,0.4-1.3c0.4-0.7,0.6-1.6,1.6-1.5c0.7,0,0.7,1.1,0,2.4
		C448.5,464,448.1,464.4,447.5,465.2z"/>
	<path d="M438.1,475.2c-1.2-2.2-1.2-2.4,0.2-3.2C438.8,473.4,438.8,473.4,438.1,475.2z"/>
	<path d="M430.9,356.4c-0.8,1.1-0.8,1.1-2.2,1.8c-0.5-0.3-0.5-0.7-0.1-1.1C429.2,356.4,429.9,355.7,430.9,356.4z"/>
	<path d="M434.9,527.1c0.2,1.1,0.5,2.2-0.8,3C433.9,528.2,433.9,528.2,434.9,527.1z"/>
	<path d="M431.2,398.6c1.3-1.6,1.3-1.5,3.2-0.7c0.1,0.6-0.3,0.8-0.8,0.8C432.9,398.8,432.2,398.7,431.2,398.6z"/>
	<path d="M438.4,469.6c-1.4-0.8-1.3-1.6-1.1-2.4c0.1-0.2,0.5-0.5,0.8-0.5c0.2,0,0.7,0.4,0.7,0.6C438.8,468,438.6,468.6,438.4,469.6z
		"/>
	<path d="M424.1,361.5c0.5-0.6,1-1.1,1.4-1.7c0.8,0.2,1.1,0.6,0.7,1.3C425.7,361.8,425.1,362.3,424.1,361.5z"/>
	<path d="M429.3,400.4c-0.8,0.8-1.6,0.7-2.4,0.1C427.9,399.1,428.1,399.1,429.3,400.4z"/>
	<path d="M445.2,472.7c0-0.9,0-1.6,0-2.5C446.6,471,446.6,471.3,445.2,472.7z"/>
	<path d="M442.5,491.5c-0.4-0.4-0.8-0.6-0.8-0.8c0-0.4,0.1-0.9,0.4-1.1c0.2-0.3,0.9,0.2,0.9,0.7
		C442.9,490.5,442.7,490.9,442.5,491.5z"/>
	<path d="M435.5,521.6c-0.4-1.1-0.3-1.8,0.6-2.2C436.7,520.2,436.1,520.8,435.5,521.6z"/>
	<path d="M441.1,498.2c-0.1-0.2-0.3-0.4-0.3-0.6c-0.1-0.5,0-1,0.5-1.1c0.2,0,0.7,0.4,0.7,0.5c-0.1,0.4-0.3,0.7-0.6,1.1
		C441.4,498.2,441.2,498.2,441.1,498.2z"/>
	<path d="M443.2,484.1c-0.3,0.4-0.5,0.6-0.7,0.9c-0.2-0.2-0.5-0.4-0.6-0.7c-0.1-0.1,0.2-0.5,0.3-0.5
		C442.6,483.8,442.8,484,443.2,484.1z"/>
	<path d="M444.7,476.6c-0.1,0.1-0.3,0.3-0.4,0.4c-0.1-0.1-0.2-0.3-0.3-0.4c0.2-0.1,0.4-0.2,0.6-0.3
		C444.6,476.4,444.7,476.5,444.7,476.6z"/>
	<path d="M618.7,366.8c-0.2,0.2-0.5,0.5-0.7,0.7c-0.9-0.3-1.8-0.5-2.6-0.9c-1.2-0.6-2.2-1.3-3.3-1.9c-0.5,0.2-1,0.4-1.4,0.6
		c-1-1-2.1-2.1-3.1-3.1c-0.2-0.2-0.4-0.6-0.4-1c-0.1-0.4-0.1-0.9-0.2-1.4c-1.9-1-3.6-2.2-2.9-4.8c1.4,0.2,0.9,1.6,1.4,2
		c3.8,2.3,7.6,4.2,10,8.1c0.9,0.1,2,0.3,3.2,0.5C618.5,366,618.6,366.4,618.7,366.8z"/>
	<path d="M562.3,369.8c-0.6,0.4-0.9,0.8-1.3,0.9c-2.1,0.4-4,1.3-5.9,2.2c-0.4,0.2-0.9,0.2-1.3,0.2c-0.3,0-0.6-0.4-0.7-0.6
		c-0.1-0.1,0-0.5,0.1-0.6c0.2-0.3,0.4-0.6,0.7-0.8c1.6-1.2,3.5-2,5.4-2.5C560.3,368.3,561.3,368.4,562.3,369.8z"/>
	<path d="M572.5,320.3c-1.2,1.7-3,2.1-4.8,2.4c-0.4,0.1-1-0.6-0.8-0.9c0.6-1.4,3.5-2.7,5-2.4C572.1,319.6,572.2,320,572.5,320.3z"/>
	<path d="M568.2,347.4c-1.9,1.3-3.5,1-5.1,0.4c-0.1-0.3-0.2-0.6-0.1-0.7C564.7,345.9,565.9,346,568.2,347.4z"/>
	<path d="M569.1,367.9c-1,1-1.6,1.1-2.1,0.4c-0.2-0.2-0.2-0.7,0-0.9C567.5,366.7,567.9,366.9,569.1,367.9z"/>
	<path d="M561.7,347.8c-0.2,1.1-0.9,1.3-1.6,1.2c-0.2,0-0.5-0.3-0.6-0.6c0-0.1,0.2-0.5,0.3-0.5C560.4,347.8,561.1,347.8,561.7,347.8
		z"/>
	<path d="M563.2,369.3c0.4-0.9,0.9-1.2,1.6-0.8c0.2,0.1,0.3,0.3,0.3,0.5c0,0.2-0.2,0.4-0.3,0.5c-0.3,0.1-0.7,0.1-1,0.1
		C563.6,369.6,563.4,369.4,563.2,369.3z"/>
	<path d="M579,334.3c0.7,0,1.3,0,2,0C580,335.8,579.8,335.8,579,334.3z"/>
	<path d="M565.4,323.2c-0.6,0.3-1.1,0.6-1.5,0.8c-0.1,0-0.5-0.6-0.5-0.7c0.3-0.3,0.6-0.6,1-0.8C564.6,322.4,564.9,322.8,565.4,323.2
		z"/>
	<path d="M556.4,381c0,0.2,0,0.5-0.2,0.6c-0.2,0.2-0.5,0.3-0.8,0.4c-0.1,0-0.4-0.3-0.4-0.5c0-0.3,0-0.7,0.2-0.9
		c0.2-0.2,0.6-0.2,0.9-0.2C556.2,380.4,556.3,380.8,556.4,381z"/>
	<path d="M558.9,324.5c-0.2-0.4-0.4-0.7-0.4-0.8c0.1-0.2,0.4-0.4,0.6-0.5c0.2,0.2,0.5,0.5,0.5,0.7
		C559.6,324,559.2,324.2,558.9,324.5z"/>
	<path d="M588.2,407.2c0.3-0.6,0.5-1.3,0.8-1.9c1.3-2.2,2.5-4.5,2.7-7.1c0-0.3,0.6-0.5,0.9-0.8c0.3,0.3,0.7,0.7,0.8,1
		c0.1,0.7,0.2,1.4,0,2.1c-0.6,2.7-1.9,5-3.8,6.9C589.4,407.8,589,408,588.2,407.2z"/>
	<path d="M574.4,407.5c1.5,1.4,2.8,2.8,3.5,4.7c-0.4,0.6-0.8,0.5-1.2,0.2c-1.3-1-2.4-2.2-3.1-3.7
		C573.3,408.2,573.5,407.9,574.4,407.5z"/>
	<path d="M585.6,485.7c-1.2-1.4-1-3-1-4.9c1.8,0.9,1.6,2.3,1.9,3.5C586.6,484.8,586.4,485.4,585.6,485.7z"/>
	<path d="M589.2,490.3c1.7-0.3,3,0.6,4.3,0.9c0.3,0.8-0.2,1-0.6,0.9C590.9,492,590.6,491.8,589.2,490.3z"/>
	<path d="M585.7,412.8c-0.3-1.4,0.2-2.1,1-2.6c0.1-0.1,0.4,0,0.6,0.1c0.1,0.1,0.3,0.4,0.2,0.6C587.4,411.8,586.9,412.4,585.7,412.8z
		"/>
	<path d="M574.7,424.5c-0.5,0.3-0.8,0.6-1,0.6c-0.5,0-0.9-0.9-0.7-1.3c0.1-0.2,0.5-0.4,0.5-0.3C573.9,423.7,574.2,424.1,574.7,424.5
		z"/>
	<path d="M584.4,473.6c-0.5-0.8-0.7-1.3,0-1.9C584.4,472.3,584.4,472.8,584.4,473.6z"/>
	<path d="M598.8,505.6c-0.5,0.2-0.9,0.7-1.7,0.1C597.9,505.7,598.4,505.7,598.8,505.6L598.8,505.6z"/>
	<path d="M584.3,414.5c-0.2,0.1-0.3,0.3-0.5,0.3c-0.1,0-0.3-0.2-0.4-0.4c0.1-0.1,0.2-0.2,0.3-0.2
		C583.9,414.3,584.1,414.4,584.3,414.5z"/>
	<path d="M447.4,569.1c-0.3,0-0.8,0.2-1,0.1c-1.2-1.1-2.4-2.2-3.4-3.4c-0.2-0.2,0.1-0.8,0.1-1.3
		C446.7,567.3,446.7,567.3,447.4,569.1z"/>
	<path d="M459.9,568.2c-1.6-0.8-2.6-1.6-3.3-2.6c0.5-0.7,1-0.5,1.5-0.2C459,565.9,459.9,566.4,459.9,568.2z"/>
	<path d="M452.7,563.1c1.8,0.3,2.4,1.1,3,2.2C454.2,565.3,454.2,565.3,452.7,563.1z"/>
	<path d="M449.7,560.9c0.3,0.3,0.7,0.5,1,0.8c0.2,0.2,0.3,0.5,0.6,1.1C450.2,562.5,449.5,562.2,449.7,560.9z"/>
	<path d="M292.6,403.1c-0.7-0.1-1.9-0.1-3-0.3c-0.4-0.1-0.9-0.6-0.9-0.9c0-0.5,0.4-1,0.7-1.5c0.1-0.2,0.4-0.3,0.6-0.3
		c2.4-0.2,4.9-0.4,7.3-0.6c0.1,0,0.2,0,0.3,0c0.9,0.1,1.7,0.7,1.7,1.4c0.1,0.7-0.6,1.4-1.5,1.7c-0.3,0.1-0.7,0.1-1,0.1
		C295.6,402.9,294.3,403,292.6,403.1z"/>
	<path d="M296.7,405c0.9,0.1,1.8,0.1,2.5,0.3c0.4,0.2,0.9,0.8,1,1.3c0.1,0.3-0.3,0.9-0.6,1.1c-2,1.1-4.2,1.1-6.4,0.6
		c-0.4-0.1-0.9-0.8-0.9-1.3c0-0.5,0.4-1.2,0.8-1.4C294.2,405.4,295.5,405.2,296.7,405z"/>
	<path d="M426.7,575.1c2.1-1.1,3.1-0.8,3.8,1c0.5,1.3,0.6,2.7,0.1,4.1c-0.1,0.2-0.4,0.2-0.7,0.4
		C429.3,578.4,428.2,576.6,426.7,575.1L426.7,575.1z"/>
	<path d="M384.2,62.3c1.4-1.3,2.7-2.6,4.1-3.9c-0.4-1.7,0.9-2,2-2.4c2.4-0.8,4.3-2.4,6.1-4.1c2.3-2.2,4.9-4,7.8-5.4
		c1.4-0.7,2.8-1.3,4.4-0.9c0.4,0.1,0.7,0.4,1.4,0.9c-5.7,0.8-9.5,4.3-13.4,7.5c-0.6,0.5-1.2,1.1-1.8,1.7c-1.8,1.7-2.4,2-5.3,2.7
		c-0.3,0.6-0.5,1.3-0.9,1.8c-3.3,4.1-5.7,8.6-7.2,13.7c-0.2,0.6-0.4,1.1-0.8,1.6c-0.2,0.2-0.6,0.2-0.9,0.3c-0.7-1-0.4-1.9,0-2.8
		c1.1-2.6,2.2-5.2,3.3-7.8C383.4,64.2,383.8,63.2,384.2,62.3L384.2,62.3z"/>
	<path d="M401.2,94.3c1.1-0.9,2.2-1.8,3.3-2.6c0.7-0.5,1.5-0.6,2.2,0.6c-0.6,0.7-1.2,1.4-2,2.3c2.6,1.3,5.2,1.1,8.2,1.4
		c0.5-0.7,1.1-1.6,1.9-2.3c0.9-0.7,2-1.3,3-1.7c0.3-0.1,0.7,0.2,1.4,0.5c-1.2,1.2-2.1,2.2-3.2,3.3c0.8,0.4,1.3,0.8,1.9,1.1
		c-0.1,0.2-0.2,0.4-0.3,0.6c-1,0.1-1.9,0.2-2.9,0.2c-1.5,1.8-2.2,3.9-2.8,6.1c-0.3,1-0.4,2.1-1.7,2.4c-0.9-0.3-1-1-0.9-1.7
		c0.3-1.4,0.7-2.7,1.1-4.1c0.3-0.9,0.7-1.7,1.1-2.7c-1.2-0.9-2.6-0.6-3.8-0.9c-1.2-0.3-2.5-0.7-3.9-1c-1,1.6-2,3.1-2.9,4.6
		c-1,0-1.3-0.6-1.1-1.2c0.2-0.9,0.5-1.8,0.8-2.7C400.8,95.8,401,95,401.2,94.3L401.2,94.3z"/>
	<path d="M384.2,62.2c-1.4,1.1-2.8,2.2-4.1,3.3c-1.8,1.5-3.4,3.3-4.7,5.3c-1.8,2.8-2.4,5.8-2.2,9.1c0,0.7,0.4,1.3,0.6,2
		c0.7,0,1.3,0,1.8,0c0.1,1.5-0.1,1.9-0.9,2.3c-1,0.4-1.9,0.3-2.6-0.5c-0.9-0.9-1.2-2-1.3-3.2c-0.2-2.9,0.2-5.6,1.4-8.3
		c2.1-4.8,5.8-8.2,10.1-11c0.3-0.2,0.7-0.2,1-0.3C383.8,60.7,384.1,61.2,384.2,62.2L384.2,62.2z"/>
	<path d="M384.1,123.1c-0.6-4.8-3.4-8.2-6.4-11.6c-4.5-5.1-9.1-10.1-14.2-14.7c-0.7-0.7-1.7-1.2-1.8-2.5c0.4-0.1,0.8-0.2,1-0.1
		c0.8,0.5,1.5,1.1,2.2,1.7c5.4,4.9,10.5,10.2,15,15.8c1.5,1.9,2.9,4,4.1,6.2c0.7,1.2,0.9,2.7,1.2,4c0.1,0.3-0.2,0.8-0.4,1.2
		C384.6,123.1,384.4,123.1,384.1,123.1z"/>
	<path d="M385.9,73.5c-0.1,0.8-0.2,1.7-0.2,2.6c-0.1,0.9,0,1.9-0.1,2.8c-0.2,3.8,0.2,7.5,1,11.2c0.1,0.5,0.3,0.9,0.2,1.4
		c-0.1,0.4-0.4,0.7-0.6,1.1c-0.3-0.3-0.9-0.4-1-0.8c-0.3-0.6-0.4-1.3-0.5-2c-0.9-4.5-0.8-9.1-0.5-13.6c0-0.8,0.2-1.6,0.5-2.4
		C384.8,73.2,385.3,72.9,385.9,73.5z"/>
	<path d="M424.4,64.1c0,0.2,0,0.4,0,0.5c-2.1,3.5-4.3,6.9-6.4,10.4c-0.3,0.5-0.8,0.9-1.7,0.6c0-0.5-0.2-1.1,0-1.5
		c1.4-3.6,3.5-6.9,6.1-9.7c0.3-0.3,0.8-0.5,1.2-0.6C423.9,63.7,424.2,64,424.4,64.1z"/>
	<path d="M360.6,98.1c2.1,6.4,5.3,12.3,10.3,17.8c-0.9-0.2-1.3-0.2-1.5-0.4c-4.7-4.3-7.9-9.5-9.6-15.6
		C359.6,99.2,359.4,98.5,360.6,98.1z"/>
	<path d="M404.5,123.1c-0.4-0.1-0.6-0.1-0.7-0.1c-0.7-1.4-4.1-10-4.5-11.5c0.3,0,0.8-0.1,0.9,0c2.4,3.1,3.9,6.6,4.6,10.5
		C404.9,122.3,404.7,122.6,404.5,123.1z"/>
	<path d="M444.3,60.4c-1.5-2-2.4-3.3-3.5-4.5c-1-1.2-2-2.3-3.1-3.3c-1.2-1.1-2.4-2.2-3.7-3.2c0.7-0.6,1.2-0.2,1.7,0.1
		c3.2,2,5.7,4.8,7.9,8C444,58,444,58,444.3,60.4z"/>
	<path d="M360.8,77.9c-1.2-0.4-2.5-0.6-3.6-1.1c-3-1.4-5.9-2.9-8.7-4.5c-0.8-0.4-1.5-1.1-2.5-1.8c0.6-0.1,1-0.3,1.2-0.2
		c4.2,2.2,8.5,4.5,12.7,6.8C360.2,77.2,360.5,77.6,360.8,77.9L360.8,77.9z"/>
	<path d="M383.4,50.4c3.5-0.6,7-0.4,10.5-0.1c0.3,0,0.5,0.3,1,0.6c-0.3,0.3-0.6,0.7-0.8,0.7c-2.8,0.1-5.6,0.2-8.5,0.2
		c-1.1,0-1.8-0.5-2.2-1.5L383.4,50.4z"/>
	<path d="M470.7,49.2c-3.5-1.1-6.8-2.6-10.2-4.2c0.8-0.8,1.5-0.5,2.1-0.3C465.4,46,468.4,47,470.7,49.2z"/>
	<path d="M393.8,89.9c-0.1-3.2,0.2-4.4,1.6-6.3C395.9,86,395.2,87.9,393.8,89.9z"/>
	<path d="M376.3,87.9c0.8,0.1,1.6,0.1,2.4,0.3c1.3,0.3,2.7,0.8,4.6,1.3C380.3,90,378.3,89.1,376.3,87.9L376.3,87.9z"/>
	<path d="M467.4,51.9c1.8,0.1,3.5-0.2,5.6,0.9C470.6,53.1,468.8,53.7,467.4,51.9z"/>
	<path d="M423.6,46.3c1.2-0.4,2.3-0.4,3.4,0.4C424.9,47.2,424.9,47.2,423.6,46.3z"/>
	<path d="M368,80.6c-1.5,0.3-2.6-0.3-3.5-1.3l-0.1,0.1C365.8,79.3,366.9,80,368,80.6L368,80.6z"/>
	<path d="M364.5,79.2c-1.4,0.2-2.6-0.5-3.6-1.4l-0.1,0.1C362.3,77.7,363.3,78.5,364.5,79.2L364.5,79.2z"/>
	<path d="M432.1,49.6c-0.1,0.1-0.2,0.3-0.3,0.4c-0.1-0.1-0.2-0.2-0.3-0.4c0,0,0.1-0.2,0.2-0.2C431.8,49.5,432,49.6,432.1,49.6z"/>
	<path d="M422.4,91.3c-0.1,0.5-0.1,1-0.2,1.7c-0.4-0.8-0.2-1.3,0.3-1.6L422.4,91.3z"/>
	<path d="M423.2,89.3c-0.3,0.7,0.2,1.6-0.8,2.1l0.1,0.1C422.6,90.7,422.3,89.8,423.2,89.3L423.2,89.3z"/>
	<path d="M423.3,89.4c0-0.3,0.1-0.6,0.1-0.4C423.4,88.7,423.3,89,423.3,89.4L423.3,89.4z"/>
	<path d="M367.9,80.7C368.2,80.8,368,80.6,367.9,80.7L367.9,80.7z"/>
	<polygon points="376.4,87.9 376.3,87.7 376.3,87.9 	"/>
	<polygon points="401.2,94.2 401.1,94.1 401.2,94.3 	"/>
	<path d="M473.9,101.6c1-1.3,1.6-2.3,1.4-3.7c-0.1-1.2,0.8-2.2,1.7-3c1.8-1.6,3.8-2.7,6-3.6c0.5-0.2,1.1-0.1,1.7,0
		c0.5,0.1,0.9,1,0.6,1.4c-0.3,0.5-0.7,1-1.1,1.3c-1.1,0.7-2.2,1.3-3.3,2c-1.8,1.1-3.5,2.3-4,4.6
		C476.6,101.7,475.9,101.9,473.9,101.6z"/>
	<path d="M426.2,127.7c0.4,0.9,0.8,1.4,0.8,1.9c0,0.8-0.3,1.6-0.6,2.4c-0.6,1.8-1.3,3.5-1.8,5.3c-0.5,1.7-1.1,3.3-0.5,5.1
		c0.3,1,0,2.3-0.9,3.2c-1-1.4-1.2-1.7-0.6-2.7c0.7-1.2,0.7-2.4,0.6-3.7C422.8,135.5,423.8,131.6,426.2,127.7z"/>
	<path d="M429.3,125.9c-0.8-1.4-0.7-2.6-0.2-3.8c0.5-1.2,1.2-2.3,2.4-2.9c0.3-0.1,0.7-0.1,1,0.1c0.2,0.2,0.5,0.7,0.5,0.9
		c-0.9,2-1.5,4.1-3.1,5.8C429.9,125.9,429.7,125.9,429.3,125.9z"/>
	<path d="M439.4,176.6c-0.1-0.2-0.3-0.4-0.3-0.6c0.3-2.1,0.9-4.1,0.7-6.2c0-0.2,0.4-0.6,0.7-0.6c0.3-0.1,0.7,0.1,0.9,0.3
		c0.3,0.3,0.5,0.8,0.6,1.2c0.4,1.9,0.1,3.7-1.1,5.3C440.6,176.4,440.1,176.8,439.4,176.6z"/>
	<path d="M430.6,134.1c-0.9-0.1-1.3-0.8-1.1-1.5c0.4-1.3,0.2-2.5,0.1-3.8c-0.1-0.6,0.3-1.1,1.2-1.1c0.1,0.4,0.4,0.8,0.4,1.2
		c0,1.2-0.2,2.3,0.3,3.5C431.7,132.9,431.6,132.9,430.6,134.1z"/>
	<path d="M447.2,131.7c-0.3-0.2-0.7-0.4-0.8-0.7c-0.7-2.2-2.2-3.8-3.7-5.4c-0.4-0.5-0.6-1,0.2-1.7c1.3,1.3,2.2,2.9,3.5,4.3
		c-0.4,1.4,1.3,2.3,0.8,3.6L447.2,131.7z"/>
	<path d="M422.5,153.8c-0.3-0.8-0.6-1.5-0.7-2.1c-0.2-1.4,0.4-2.5,1-2.2c0.9,0.4,0.8,1.3,0.8,2.1C423.6,152.3,423.7,153,422.5,153.8
		z"/>
	<path d="M473.3,103.5c-0.2,0.4-0.3,1-0.7,1.4c-0.2,0.3-0.9,0.5-1.2,0.4c-0.3-0.1-0.5-0.8-0.4-1.1c0.1-0.5,0.5-1,0.9-1.4
		c0.2-0.2,0.6-0.1,0.9,0C473,102.9,473,103.2,473.3,103.5z"/>
	<path d="M431,136c0.2,0.1,0.5,0.1,0.6,0.2c0.3,0.5,0.5,1.1,0.6,1.6c0,0.2-0.3,0.6-0.5,0.8c-0.1,0.1-0.5,0-0.6-0.1
		c-0.8-0.6-1-1.3-0.6-2.1C430.5,136.2,430.8,136.1,431,136z"/>
	<path d="M439.6,179.7c1,1.1,0.9,1.7,0.5,2.3c-0.1,0.1-0.4,0.3-0.5,0.2c-0.2,0-0.5-0.3-0.5-0.4C439.2,181.2,439.4,180.6,439.6,179.7
		z"/>
	<path d="M439.5,185c-0.1,1.1-0.1,1.6-0.3,2.1c0,0.1-0.4,0.3-0.6,0.2c-0.2,0-0.4-0.2-0.5-0.4C437.9,186.2,438.2,185.7,439.5,185z"/>
	<path d="M423.5,161.3c0.4-0.4,0.6-0.6,0.7-0.8c0.3,0.3,0.5,0.6,0.7,1c0,0.1-0.3,0.5-0.3,0.5C424.3,161.8,424,161.6,423.5,161.3z"/>
	<path d="M463.5,106.7c0.5,0.3,0.7,0.5,1,0.7c-0.2,0.3-0.4,0.7-0.7,0.9c-0.1,0.1-0.7-0.3-0.7-0.4C463,107.5,463.3,107.2,463.5,106.7
		z"/>
	<path d="M422.6,157c0.2-0.1,0.3-0.2,0.5-0.4c0.2,0.2,0.3,0.5,0.5,0.7c-0.2,0.1-0.4,0.2-0.6,0.2C422.8,157.5,422.7,157.2,422.6,157z
		"/>
	<path d="M424.7,164.2c0.2-0.3,0.4-0.6,0.4-0.6c0.3,0.1,0.5,0.3,0.7,0.4c-0.1,0.2-0.3,0.5-0.3,0.5
		C425.3,164.5,425,164.4,424.7,164.2z"/>
	<path d="M468.5,106.5c-0.1,0.1-0.3,0.2-0.4,0.3c-0.1-0.2-0.2-0.3-0.2-0.5c0-0.1,0.2-0.2,0.2-0.2
		C468.2,106.2,468.3,106.3,468.5,106.5z"/>
	<path d="M460.6,108.6c-0.1,0.1-0.2,0.2-0.2,0.2c-0.1-0.1-0.2-0.2-0.2-0.3c0-0.1,0.1-0.2,0.2-0.2
		C460.4,108.5,460.5,108.6,460.6,108.6z"/>
	<path d="M511.9,109.2c-0.3-1.2,0.3-1.8,1.1-2.1c0.7-0.3,1.6-0.6,2.4-0.5c3.7,0.1,7.3,0.5,10.8,1.8c1.7,0.7,2.7,1.7,2.2,2.3
		c-0.8,1-1.9,0.4-2.9,0.3c-3.3-0.6-6.5-1.2-9.8-1.7C514.4,109.1,513.1,109.2,511.9,109.2z"/>
	<path d="M546.5,120c-0.1-0.6-0.4-1.3-0.3-1.9c0.4-4.1-1.6-7.2-4.4-9.9c-0.7-0.7-1.9-1.1-2-2.5c0.3-0.2,0.7-0.6,1-0.6
		c0.4,0,1,0.1,1.3,0.4c4,2.8,7.3,7.4,5.8,13.3C547.9,119.4,547.7,120.1,546.5,120z"/>
	<path d="M547.6,146.2c0.4-0.5,0.6-1.1,1-1.4c2.8-2.4,5.1-5.2,6.2-8.8c0.1-0.2,0.2-0.5,0.3-0.6c0.4-0.2,0.9-0.6,1.2-0.5
		c0.4,0.1,0.7,0.6,0.9,1c0.1,0.3,0,0.7-0.1,1c-1,3.5-2.9,6.4-5.8,8.6C550.4,146.2,549.3,147,547.6,146.2z"/>
	<path d="M528.9,144.7c-1.9,2.1-2.7,2.4-4.1,1.7C526.2,144.5,526.9,144.2,528.9,144.7z"/>
	<path d="M492.8,129.5c-2.2-0.4-2.2-0.4-2.7-2.5C491.5,127.3,492.2,128.3,492.8,129.5z"/>
	<path d="M537.4,100.6c0.7,0.4,1.3,0.6,1.6,1c0.2,0.3,0.3,0.8,0.2,1.2c0,0.2-0.5,0.5-0.8,0.5c-0.6,0.1-1.1-0.3-1.2-0.9
		C537.1,102,537.3,101.4,537.4,100.6z"/>
	<path d="M510.4,108.1c-1.4,1.1-2.4,1.1-3.5,0.6C507.7,107.4,507.7,107.4,510.4,108.1z"/>
	<path d="M533.8,98.9c-2.5-1.4-2.5-1.5-1.8-3.2C533,96.5,533.3,97.7,533.8,98.9z"/>
	<path d="M502.4,108.2c0.8,0,1.3-0.1,1.8,0c0.2,0,0.5,0.5,0.5,0.7c-0.1,0.3-0.4,0.5-0.7,0.6C503.3,109.7,502.8,109.4,502.4,108.2z"
		/>
	<path d="M543.7,148.3c0.2-0.3,0.3-0.6,0.5-0.8c0.3-0.2,0.8-0.3,1.2-0.4c0,0,0.3,0.4,0.2,0.6c-0.3,0.7-0.8,1.1-1.6,0.9
		C543.9,148.5,543.8,148.4,543.7,148.3z"/>
	<path d="M498.3,109.4c0.4-0.2,0.6-0.5,0.9-0.5c0.2,0,0.5,0.3,0.7,0.5c-0.2,0.2-0.4,0.6-0.7,0.6
		C498.9,110.1,498.7,109.7,498.3,109.4z"/>
	<path d="M538.5,149.8c0-0.1,0.1-0.2,0.1-0.2c0.1,0,0.2,0,0.3,0.1c0,0.1-0.1,0.2-0.1,0.2C538.7,149.9,538.6,149.9,538.5,149.8z"/>
	<path d="M581.9,100.7c-0.5,3-0.2,6-0.2,8.9c0,4.6-1.2,8.8-3.3,12.8c-0.5,0.9-1.1,1.8-1.8,2.6c-0.8,0.9-1.7,1.5-3.2,1.3
		c0-0.4,0-0.8,0.1-1.1c2.1-2.8,3.4-5.9,4.3-9.2c0.5-1.8,0.8-3.7,0.9-5.5c0.2-2.5,0.1-4.9,0.2-7.4c0-0.8,0.2-1.6,0.6-2.3
		C580.2,99.9,581,99.8,581.9,100.7z"/>
	<path d="M598.7,78.6c-0.3,0.1-0.6,0.3-1,0.4c-0.2-0.1-0.5-0.1-0.6-0.2c-3.2-3.7-7.2-6.4-11.3-8.9c-1.2-0.7-2.6-1.1-3.9-1.6
		c-0.5-0.2-1.1-0.4-1.7-0.6c-0.2-0.1-0.3-0.3-0.4-0.5c0-0.8,0.6-1.2,1.3-1.4c1.3-0.3,2.6-0.1,3.8,0.5c4.6,2.3,8.7,5.1,12.2,8.9
		C598,76.3,598.7,77.3,598.7,78.6L598.7,78.6z"/>
	<path d="M571.9,87.8c0.7,0,1.3-0.2,1.8,0c3.1,1.3,4.7,4.6,3.9,7.8c-0.1,0.3-0.6,0.6-1,0.7c-0.2,0.1-0.6-0.3-0.8-0.6
		c-0.1-0.1-0.1-0.2-0.1-0.3c0.1-2.7-1.3-4.7-3.1-6.5C572.2,88.8,572.2,88.4,571.9,87.8z"/>
	<path d="M631.3,156.4c0.3,0,0.5,0,0.8,0c0.2,0.8,0.2,1.6,0.5,2.3c0.6,1.6,1.4,3.2,2,4.7c-0.5,0.8-1,0.9-1.5,0.4
		c-0.3-0.3-0.5-0.8-0.7-1.2C631.9,160.6,631.2,158.6,631.3,156.4z"/>
	<path d="M606.4,81.1c1.6-0.6,2.7-0.1,3.8,0.6c0.3,0.2,0.4,0.8,0.3,1.2c0,0.2-0.5,0.5-0.8,0.6c-0.9,0.2-1.7,0-2.2-0.7
		C607.1,82.4,606.8,81.7,606.4,81.1z"/>
	<path d="M598.6,78.7c0.8-0.5,1.6-0.9,2.6-0.4c1.3,0.5,2.6,0.8,3.7,1.8c-0.3,0.9-1,0.7-1.4,0.6C601.8,80.3,600.1,79.8,598.6,78.7
		L598.6,78.7z"/>
	<path d="M568.4,85.7c1.7,1,1.7,1,2.5,2.3c-1,0.9-1.7,0.1-2.4-0.5C568.1,87.1,567.5,86.5,568.4,85.7z"/>
	<path d="M579.3,67.5c-1.7,0.8-2.9,1-4.1,0c0-0.8,0.5-1,0.9-1C577.4,66.3,577.4,66.4,579.3,67.5z"/>
	<path d="M272.3,53.1c0.9,0,1.9,0,2.8,0c0.5,0,0.9,0,1.4,0.1c0.8,0.2,1.4,1,1.4,1.8c0,0.8-0.6,1.6-1.5,1.6c-2.4,0-4.7,0-7.1-0.1
		c-0.6,0-1.2-0.2-1.7-0.4c-0.7-0.2-1.3-0.7-1.3-1.5c0-0.8,0.7-1.5,1.7-1.5C269.5,53.1,270.9,53.2,272.3,53.1
		C272.3,53.1,272.3,53.1,272.3,53.1z"/>
	<path d="M272.8,59.3c1.2,0.2,2.6,0.4,3.9,0.7c0.5,0.1,0.9,0.7,1.1,1.2c0.2,0.5-0.5,1.4-1.2,1.5c-2.1,0.4-4.2,0.3-6.1-0.8
		c-0.5-0.3-0.9-0.9-0.6-1.5c0.2-0.4,0.6-0.8,0.9-0.9C271.4,59.4,272,59.4,272.8,59.3z"/>
	<path d="M318.6,45.1c1.4,0.7,2.1,0.9,2.6,1.3c1.8,1.1,3.5,2.2,5.2,3.2c0.1,0.8-0.3,1.2-0.8,1.1c-2.4-0.7-4.5-1.9-6.3-3.6
		C319.1,46.8,319.1,46.3,318.6,45.1z"/>
	<path d="M301.3,58.7c3-0.2,5.6,0.8,8.5,2c-1.3,1.1-2.2,0.8-3.1,0.6c-1.8-0.5-3.8-0.5-5.3-1.8C301.3,59.5,301.4,59.2,301.3,58.7z"/>
	<path d="M266.7,29.6c0.4,0.1,0.8,0,1.1,0.2c1.3,0.8,2.5,1.7,3.7,2.6c0.2,0.1,0.2,0.6,0.1,0.9c0,0.1-0.4,0.4-0.5,0.3
		c-1.9-0.2-3.6-1.1-4.9-2.5c-0.2-0.2-0.2-0.7-0.1-1C266.1,30,266.5,29.8,266.7,29.6z"/>
	<path d="M281.6,38.5c-1.6,0.8-2.7,0.5-3.6-0.6c-0.2-0.2-0.2-0.7-0.1-0.9c0.1-0.3,0.5-0.7,0.7-0.6c0.7,0.1,1.4,0.2,1.9,0.5
		C281,37.1,281.2,37.8,281.6,38.5z"/>
	<path d="M309.8,65.9c2.5,0.2,4.2,1.2,6.3,2.3C312.7,67.8,312.3,67.7,309.8,65.9z"/>
	<path d="M321.7,68.5c2.1,0.5,3,1.4,3.8,2.7C323.8,71.2,323.8,71.1,321.7,68.5z"/>
	<path d="M329.7,74.3c-1.4,0.1-2.3-0.9-3.3-1.8C328.3,72.5,328.3,72.5,329.7,74.3L329.7,74.3z"/>
	<path d="M298.7,57.8c-1-0.1-1.7-0.5-1.9-1.5C298.6,55.9,299.1,56.3,298.7,57.8z"/>
	<path d="M273.9,34.4c0.9-0.7,1.4-0.3,1.7,0.6C274.8,35.6,274.2,35.5,273.9,34.4z"/>
	<path d="M311.1,38.7c0.4,0.4,0.8,0.7,1.2,1.2C311.4,40.2,311.1,39.5,311.1,38.7z"/>
	<path d="M307,36.8c-0.3-0.1-0.6-0.1-0.9-0.2c-0.1,0-0.1-0.3-0.1-0.5c0,0,0.2-0.1,0.3-0.1C306.7,36.1,307.1,36.2,307,36.8L307,36.8z
		"/>
	<path d="M294.6,54.6c-0.2,0.2-0.4,0.3-0.5,0.4c-0.1-0.2-0.3-0.5-0.4-0.7c0,0,0.1-0.2,0.2-0.2C294.2,54.2,294.4,54.4,294.6,54.6z"/>
	<path d="M307,36.9c0.1,0,0.2,0,0.3,0.1C307.2,36.9,307.1,36.8,307,36.9L307,36.9z"/>
	<polygon points="317.7,43.1 317.5,43 317.6,43.2 	"/>
	<path d="M329.6,74.4c0.1,0.1,0.2,0.2,0.3,0.2c-0.1,0-0.2,0-0.2,0C329.7,74.5,329.7,74.4,329.6,74.4L329.6,74.4z"/>
	<path d="M318.4,43.9c-0.5,0-0.8-0.2-0.7-0.7l-0.1,0.1C318.1,43.2,318.4,43.4,318.4,43.9L318.4,43.9z"/>
	<path d="M318.3,43.9c0.2,0.1,0.4,0.1,0.5,0.2C318.4,44.7,318.4,44.1,318.3,43.9L318.3,43.9z"/>
	<path d="M486.1,72.3c0.6-0.3,1.3-0.7,1.9-0.7c2.1-0.1,4.2-0.1,6.3,0c0.5,0,1,0.5,1.8,0.9c-0.8,0.5-1.2,0.9-1.7,1
		c-2.1,0.1-4.2,0.1-6.3,0C487.3,73.5,486.6,73.1,486.1,72.3L486.1,72.3z"/>
	<path d="M457.1,84.6c2.1-0.5,3.5,0.6,5.1,1.4c-0.3,0.3-0.6,0.8-0.8,0.8C459.7,86.7,458.2,86.3,457.1,84.6z"/>
	<path d="M519.4,72.7c1.7-1.5,3.1-0.9,4.4-0.9c0.3,0,0.7,0.4,1.3,0.8C523.2,73.2,521.6,73.3,519.4,72.7z"/>
	<path d="M537.5,66.9c-0.6,0.1-1.1,0.2-1.7,0.3c-0.6,0.1-1.1,0-2.2,0c0.6-0.7,0.8-1.1,1.1-1.2C535.6,65.8,536.7,65.7,537.5,66.9z"/>
	<path d="M486.2,72.2c-1.2-0.4-2.5-0.3-3.5-1.1c0.4-1,1.1-0.8,1.7-0.6C485.4,70.7,486.2,71.1,486.2,72.2L486.2,72.2z"/>
	<path d="M514.4,72.5c-0.1,0.3-0.1,0.4-0.1,0.5c-0.5,0.6-1.2,0.7-1.8,0.3c-0.2-0.1-0.3-0.4-0.2-0.6c0.3-0.7,0.9-0.6,1.4-0.5
		C513.8,72.2,514,72.4,514.4,72.5z"/>
	<path d="M454.7,82.6c-0.3,0.2-0.4,0.3-0.5,0.3c-0.5-0.1-1.1-0.3-1.6-0.5c0,0,0-0.5,0.1-0.6c0.4-0.5,1.2-0.3,1.8,0.3
		C454.6,82.2,454.6,82.4,454.7,82.6z"/>
	<path d="M504.3,73.7c-0.4-0.2-0.7-0.3-0.9-0.5c-0.2-0.2,0.4-0.9,0.8-0.7c0.3,0.1,0.5,0.4,0.7,0.6C504.7,73.2,504.6,73.4,504.3,73.7
		z"/>
	<path d="M480.4,71.2c-1-0.1-1.7-0.1-2-1C479.3,69.8,480,69.9,480.4,71.2z"/>
	<path d="M471.3,66c0.3,0.2,0.5,0.3,0.7,0.4c-0.2,0.2-0.3,0.5-0.5,0.7c-0.1,0.1-0.5-0.2-0.5-0.3C471,66.5,471.2,66.2,471.3,66z"/>
	<path d="M473.3,70.1c-0.2-0.1-0.4-0.2-0.6-0.3c0.2-0.1,0.4-0.3,0.7-0.3c0.1,0,0.3,0.2,0.4,0.3C473.6,69.9,473.5,70,473.3,70.1z"/>
	<path d="M449.8,222.8c-1.7-1.3-3.4-2.5-5.1-3.7c-0.5-0.4-0.6-0.9-0.5-1.6C449.2,219.9,450.2,220.8,449.8,222.8z"/>
	<path d="M457.1,216.7c1.7-0.2,2.9,0.7,3.9,1.9c0.3,0.4,0.7,1,0,1.7C459.7,219.1,457.9,218.4,457.1,216.7L457.1,216.7z"/>
	<path d="M457.2,216.6c-0.7,0.2-1.4,0.1-1.6-0.7c0-0.2,0.3-0.6,0.5-0.6C457.1,215.3,457.2,215.9,457.2,216.6L457.2,216.6z"/>
	<path d="M350.5,32.2c0.9-0.5,1.6,0.2,2.2,0.6c2.4,1.4,6.5,5,7.8,6.9c-0.2,0.8-0.8,0.8-1.3,0.4C357,38.7,352.3,34.5,350.5,32.2z"/>
	<path d="M344.7,45.5c2.7-0.8,4.5-0.2,6.3,0c0.3,0.8,0,1.1-0.5,1.2C348.4,47,347.4,46.8,344.7,45.5z"/>
	<path d="M340,44.4c-0.4,0-0.8,0.1-1.2,0.1c-0.1,0-0.2-0.3-0.3-0.4c0,0,0.2-0.2,0.2-0.2c0.4,0,0.8,0.1,1.2,0.2
		C340,44.2,340,44.3,340,44.4z"/>
	<path d="M347.4,31.1c-0.3,0-0.6-0.1-1.1-0.1C346.9,30.4,347.1,30.6,347.4,31.1L347.4,31.1z"/>
	<path d="M343.4,29.4c-0.8,0.1-1.1,0.1-1.4,0.2c0-0.2,0-0.3,0-0.5C342.3,29.1,342.6,29.2,343.4,29.4z"/>
	<path d="M347.3,31.2c0.1,0,0.2,0.1,0.2,0.1C347.5,31.2,347.4,31.1,347.3,31.2L347.3,31.2z"/>
	<path d="M609.4,65.6c-0.7-0.4-1.3-0.8-2-1.1c0.4-1,1-0.8,1.4-0.5C609.3,64.3,610.2,64.6,609.4,65.6z"/>
</g>
</svg>
