<?xml version="1.0" encoding="utf-8"?>
<!-- Generator: Adobe Illustrator 19.2.0, SVG Export Plug-In . SVG Version: 6.00 Build 0)  -->
<svg version="1.1" id="Layer_2" xmlns="http://www.w3.org/2000/svg" xmlns:xlink="http://www.w3.org/1999/xlink" x="0px" y="0px"
	 viewBox="0 0 900 600" style="enable-background:new 0 0 900 600;" xml:space="preserve">
<g>
	<path d="M598.7,581.2c2,0,4-0.1,6.1-0.1c1.6,0,3.1-0.3,4.5-1.1c0.2-1.7,0.5-3.3-0.8-4.7c-0.4-0.4-0.5-1.1-0.7-1.6
		c-0.5-2.1-1.7-3.6-3.4-4.9c-2.1-1.6-4.1-3.3-5.1-5.8c-3.7-1.2-6.8,0.9-10.1,1.5c-0.9-0.5-0.9-1.2-0.4-1.8c0.3-0.4,0.9-0.9,1.4-1
		c2-0.7,4-1.3,6.2-1.9c0.2-0.7-0.4-0.9-1-0.8c-2.6,0.3-5.1,1-7.4,2.3c-1.2,0.7-2.1,0.6-2.4-0.2c-0.3-0.7,0.1-1.4,1-2.1
		c1.9-1.3,4-2,6.3-2.3c0.8-0.1,1.6-0.3,2.3-0.4c0.3-1.2,0.1-1.9-1-2.1c-2.9-0.4-5.7,0.2-8.2,1.8c-1.1,0.7-1.9,1.8-3.6,1.9
		c-0.2-0.4-0.7-0.8-0.8-1.3c0-0.5,0.3-1.2,0.7-1.5c2.5-2.2,5.3-3.7,8.7-3.6c1,0,2.1,0,3.3,0c-0.2-2.7-1.3-4.9-2.8-6.8
		c0.8-1,1.4-1.1,2-0.7c1,0.7,1.6,1.8,1.9,2.9c0.9,2.8,1.9,5.7,2.5,8.6c0.5,2.3,1.4,4.2,3.2,5.8c0.5,0.4,1.1,1.1,1.1,1.7
		c0.1,1.4,1,2.1,2,2.8c1.2,0.9,2.6,1.7,3.8,2.6c1.6,1.1,3,2.3,4,4c1.2,1.9,1.6,4,0.4,6.1c-0.3,0.5-0.4,1-0.3,1.6
		c0.2,1.7-0.2,2.2-1.7,2.5c-1.9,0.3-3.8,0.5-5.6,0.7c-1.5,0.2-3.1,0.1-4.6,0.5c-3.4,1-6.8,0.8-10.3,0.5c-1.1-0.1-2.1-0.3-3.2-0.3
		c-2.9-0.1-5.7-0.6-8.4-1.7c-0.8-0.3-1.6-0.6-2.4-0.5c-1.4,0.1-1.9-1.3-3.1-1.5c-1.2-0.2-2.3-0.5-3.4-0.9c-0.4-0.1-0.8-0.5-1.1-0.9
		c-0.7-1-1.7-1.2-2.7-1.6c-1.2-0.5-2.5-1-3.6-1.6c-0.5-0.3-0.9-1-1.5-1.8c1.6-0.3,2.5,0.7,3.6,0.9c1.2,0.1,2.3,0.3,3.3,0.4
		c1-0.5,1-1.3,1.1-2c0.5-4.9,1-9.7,1.5-14.6c0.2-1.7,0.3-3.3-0.3-4.9c-0.4-1.1-0.3-2.3-0.5-3.5c-1.4,0.2-2.1,0.8-2.1,2.1
		c-0.2,2.4-0.3,4.8-0.5,7.1c-0.4,4.1-1.4,8-3.2,11.6c-0.2,0.3-0.4,0.6-0.6,0.9c-0.1,0.1-0.2,0.1-0.3,0.2c-0.6,0-0.9-0.3-0.8-0.8
		c0.3-1.3,0.7-2.5,1.2-3.7c1.4-3.8,2.3-7.7,2.4-11.8c0-1.4,0.3-2.8,0.6-4.2c0.4-1.7,1.5-2.6,3.5-2.3c1.4-2.4,1.7-5.1,2-7.8
		c1-7.1,1.4-14.2,1.4-21.4c0-5.6,0-11.2,0.1-16.8c0.1-6.3,0.1-12.6,0.3-18.9c0.1-2.9,0.7-5.7,1.7-8.4c0.7-1.9,1.2-3.7,2.7-5.2
		c1.9-1.8,2.5-4.2,2.7-6.8c0.7-7.8,1.7-15.6,2.5-23.5c0.6-5.2,1.1-10.4,1.7-15.6c0.9-8.2,1.8-16.3,2.6-24.5
		c0.8-7.8,1.6-15.6,2.5-23.5c0.8-7.7,1.7-15.4,2.5-23.1c0.6-5.4,1.1-10.9,1.7-16.3c0.9-7.9,1.7-15.9,2.6-23.8
		c0.6-5.3,1.1-10.7,1.7-16c0.9-8.1,1.7-16.1,2.6-24.2c0.5-5.1,1.1-10.2,1.6-15.3c0.6-6,1.3-12.1,2-18.1c0.1-1.3,0.1-2.6-0.4-3.8
		c-0.5-1.2-0.6-2.5-0.9-3.8c-0.5-2.8-0.9-5.6-1.4-8.5c-0.7-3.5-1.7-6.9-3.6-10.1c-0.5-0.9-1-1.9-1.4-2.9c-1.3-2.8-2.1-5.8-2.4-8.9
		c-0.4-4.2-0.4-8.3,0.1-12.5c0.6-5.7,2.4-10.9,6-15.4c0.1-0.2,0.2-0.4,0.4-0.8c-0.6-6-0.1-12.2,0.2-18.4c0-1.3,0.4-2.6,0.8-3.8
		c1.4-4.3,2.9-8.6,4.2-12.9c1-3.5,1.8-7.1,2.8-10.7c0.2-0.7,0.2-1.5,1.4-1.6c0.1,0.3,0.4,0.7,0.4,1.1c-0.4,3.4-0.7,6.9-1.9,10.2
		c-1.2,3.5-2.2,7.1-3.4,10.5c-1.8,4.9-2.4,9.9-2.4,15.1c0,2.6,0,5.2,0,7.9c0,1.5-0.2,2.8-1,4.1c-0.8,1.5-1.5,3-2.3,4.5
		c-2.3,4.2-3.4,8.7-3.5,13.4c-0.1,3.4-0.4,6.9,0.5,10.3c-0.3,5.4,2.9,9.4,5.6,13.6c0.3,0.5,0.7,1,1,1.5c0.1,0.1,0.1,0.2,0.2,0.6
		c-0.6,1.1-0.4,2.5,0,3.9c1.1,3.9,2.1,7.8,2.2,11.9c0,0.7,0.2,1.4,0.4,2.1c1.2,2.9,2.4,5.7,3.6,8.5c0.4,0.9,1.1,1.4,2.3,1.3
		c1.4-0.1,2.9-0.1,4.2,0.2c3.5,0.6,6.6-0.2,9.6-1.6c0.7-2.5,1.3-4.9,1.9-7.2c0.8,0,1.1,0.3,1,0.8c-0.2,1.2-0.5,2.3-0.8,3.6
		c0.4,0.3,0.8,0.8,1.3,1c0.5,0.1,1.2,0,1.7-0.3c2.1-1.2,3.9-2.7,5.4-4.6c5-6.1,8.3-13.1,10.2-20.7c1.6-6.6,1.1-13.2-0.7-19.8
		c-1-3.8-2.1-7.6-3.2-11.3c-0.2-0.8-0.8-1.5-1.3-2c-2.1-2.2-4.4-4.4-6.5-6.6c-0.6-0.6-1-1.3-1.4-2c-0.2-0.4,0-0.9,0-1.4
		c0.5-0.1,0.9-0.2,1.3-0.2c1.1-2.8,1.1-5.5-0.3-8.5c-0.5,3.4-0.6,6.6-2,9.5c-0.1,0.1-0.4,0.1-0.8,0.2c-0.5,2.1,0.1,4.8-2.1,6.4
		c-0.1,0.1-0.4-0.1-0.6-0.2c0-0.2-0.2-0.5-0.1-0.6c0.7-2.4,1-4.9,1-7.4c0-0.9-0.1-1.9,1.1-2.3c0.9-0.3,0.9-1.4,1-2.2
		c0.3-3,0.6-5.9,0.8-8.9c0.3-3.9,0.6-7.8,0.9-11.7c0-0.2,0-0.5,0.1-0.7c1.5-3.5,1.3-7.2,1.4-10.9c0-4.9,0.1-9.7,1.1-14.6
		c0.5-2.6,0.9-5.4-0.3-8.1c-0.3-0.7,0-1.6,0-2.5c0.1-1.9,0.3-3.8,0.3-5.7c0.1-5.2,0.1-10.5,0.2-15.7c0-3.8,0.4-7.6,1.1-11.4
		c0.2-1,0.2-2.1,0.2-3.2c0-4.3,0.4-8.6,1.4-12.8c0.3-1.1,0.5-2.4,0.4-3.5c-0.5-3.5,0.7-6.6,2-9.7c0.2-0.5,0.5-1.2,1-1.5
		c2.1-1.5,2.3-3.8,2.4-6.1c0-0.5,0-1,0-1.4c-0.1-3.1,0.2-6.2,1.5-9.1c-2.1-3.8-5.2-6.4-8.4-9.3c-1,0.7-1,1.6-0.6,2.5
		c0.9,1.6,2.1,2.9,3.8,3.8c0.1,1.5,0.2,2.9,0.3,4.2c0.5,0.2,1,0.3,1.7,0.6c-1.1,0.2-1.8,0.4-2.5,0.6c-1.4-1.2-1-3-1.6-4.3
		c-0.8-1-1.6-1.9-2.3-2.8c-0.6-0.9-1.1-1.8-1.7-3c-5.9,1.3-11.9-0.4-17.9-0.3c-1.4,2.4-0.5,4,1.2,5.3c-0.3,1-1,1.7-0.6,2.8
		c1.9,5.5,4,11,6.7,16c0.8,0,0.9-0.5,0.8-1c-0.1-0.9-0.1-1.9-0.5-2.7c-0.4-1-1.3-1.7-1.7-2.7c-0.7-1.4-1.2-2.9-1.6-4.3
		c-0.6-1.9-1.1-3.9-1.7-5.7c0.8-1.4,1.9-1.6,3.1-1.7c1.2-0.1,2.4,0.1,3.2,1.2c0.8,1,1.7,1.1,2.8,0.4c0.6-0.3,1.4-0.4,2-0.3
		c2.2,0.3,4.4,0.8,6.7,1.2c0.4,0.1,0.8,0.3,1.7,0.5c-0.8,0.3-1.3,0.4-1.7,0.6c-2,1.1-2.9,2.8-2.3,5c0.3,1.3,0.6,2.5,0,3.7
		c-0.7,0.2-1-0.1-1.1-0.6c-0.4-2.5-1.6-4.7-2.8-6.9l-0.1,0.1c0.9,0.1,1.7,0.3,2.8,0.5c0.2-0.4,0.5-0.9,0.7-1.4
		c-1.3-0.6-2.4-0.7-3.5-0.6l0.1,0.1c-0.5-0.8-1.1-0.7-1.6,0l0.1-0.1c-1.5,0.2-2.8-0.4-4.1-1c-1-0.5-2-0.5-3.1-0.2
		c0.4,2.2,0.3,2.4,1.3,3.1c0.8,0.6,1,1.2,1.2,2.1c0.3,2.2,0.2,4.5,1.6,6.5c0.3,0.4,0.2,1.2,0.2,1.7c0,4.5,0.1,9.1-0.6,13.5
		c-0.3,2.2-1,4.3-1.9,6.4c-2.2,5.1-4,10.5-5.9,15.7c-0.2,3.7-2.1,6.8-3.5,10c-0.6,1.4-1.1,2.9-1.6,4.4c-0.3,0.9-0.7,1.8-0.3,2.8
		c0.1,0.2,0.1,0.5,0.1,0.7c-1.1,5.1-0.1,10.2-0.3,15.3c0,0.8,0.1,1.7-0.1,2.5c-0.1,0.6-0.2,1.3-0.6,1.6c-1.1,0.7-0.9,1.9-1.6,2.6
		c0.4,1.5,0.8,2.8,1.2,4.1c-0.5,0.8-1.1,0.8-1.5,0.2c-1.3-2-1.8-4.2-0.5-6.3c0.5-0.8,0.6-1.5,0.6-2.3c-0.1-5,0.2-10,0.5-15
		c0.3-4.5,1.6-8.6,3.4-12.7c0.3-0.8,0.7-1.5,0.8-2.3c0.6-5.1,2.5-9.9,4.2-14.7c0.4-1.1,0.8-2.2,1.3-3.3c1.3-3.1,2.3-6.2,2.6-9.6
		c0.1-1.4,0.3-2.8,1.2-4.1c0.6-0.8,0.5-1.7-0.1-2.7c-1.2-2.2-2.5-4.3-3.5-6.6c-1.8-4.2-3.4-8.4-4.9-12.6c-1.6-4.4-1.5-4.4-1.2-8.4
		c-0.9-1.9-1.9-3.5-2.6-5.3c-0.5-1.3-0.5-2.8-0.1-4.2c0.4-1.1,1-1.9,2.4-1.7c1.3,2.7,2.5,5.5,3.8,8.4c0.4,0.1,0.9,0.1,1.4,0.1
		c0.3,0,0.7-0.1,1.1-0.2c-0.3-2.1-0.9-4-1.8-5.8c-0.4-0.8-0.7-1.5-1.1-2.2c-1.4-2.6-1.3-5.2-0.1-7.8c2.4-0.4,2.7-0.3,3.5,1.3
		c0.9,1.8,1.8,3.6,2.7,5.4c0.3,0.6,0.7,1.2,1.4,2.5c0.1-1.5,0.2-2.2,0.1-2.8c-0.4-2.1-0.7-4.2-1.2-6.3c-0.3-1.2,0-2.1,0.9-3
		c0.9,0,2,0,3,0c1.9,3.4,3.5,12,3.8,19.2c0.1,0.1,0.1,0.2,0.2,0.3c0.4,0.1,0.9,0.2,1.4,0.3c0.2-0.6,0.4-1,0.4-1.4
		c0.1-1.7,0-3.3,0.1-5c0.2-3.1,0.7-6.2,0.1-9.3c-0.2-1.1,0.4-1.8,1.4-2.2c1.3-0.4,2.2-0.1,2.8,0.9c0.9,1.6,1.3,3.3,1.4,5.1
		c0.1,2.3,0.1,4.5,0.1,6.8c0,1.4,0,2.9,0,4.6c0.6,0.5,1.4,1.1,2.4,1.9c0,0,0.3,0.1,0.7,0c2.7-0.4,4.9,0.7,7,2.2
		c0.9,0.7,1.3,1.6,1.5,2.8c0.3,2.9-0.8,5-3.5,6.4c-0.3,0.2-0.6,0.3-0.9,0.4c-0.7,1.2-0.4,2.4-0.4,3.6c0.3,5.2-0.9,9.9-4,14.1
		c-0.5,2.1-1.8,3.9-1.8,6.1c0,1.1-0.1,2.2-0.4,3.2c-1.1,4.2-1.5,8.4-1.4,12.8c0,2.1,0.1,4.3,0.1,6.4c0,1.5,0.4,3-0.4,4.6
		c-0.3,0.7-0.1,1.6-0.1,2.5c0.1,4.6,0.2,9.3,0.3,13.9c0,1.5-0.1,3.1-0.2,4.6c0,1.3,0.1,2.6,0.1,3.9c0.1,3.3,0.3,6.7,0.4,10.2
		c1.3,0.7,2.7,1.6,3.4,3.1c0,0.4-0.8,0.5-0.2,1.1c0-0.4,0.1-0.8,0.1-1.2c0.5-0.1,0.9-0.3,1.4-0.3c2.7-0.2,5-1.4,6.6-3.4
		c1.6,0,0.8,1.2,1.2,1.9c0.3,0,0.7,0.1,0.9-0.1c0.7-0.6,1.4-1.2,2-1.8c2.8,0.1,5.5,0.2,8.3,0.3c0.4,0,0.8-0.1,1.1,0
		c2.1,1,4.1,0,6.1-0.4c1.3-0.3,2.5-0.5,3.8,0c0.1,0.4,0.1,0.7,0.2,1.1l-0.2,0.2l0.1-0.3c1.1,0.1,1.7-0.7,2.5-1.3
		c0.5-0.3,0.8-0.9,1.6-0.7c0.7,1.4,0,2.9,0.3,4.4c0.9,0.4,2.5-0.8,2.7,1.5c-0.2,0.2-0.5,0.6-0.9,1c1,0.9,1.7-0.5,2-0.4
		c2.4,0.8,1.2,2.4,1.4,3.5c0.2,1-0.7,1.5-1.3,1.9c-0.6,0.4-1.3,0.6-1.9,0.9c-1.3,0.6-2.5,1.4-3.4,2.8c0.6,3.3,0,6.9,1.2,10.3
		c0.2,0.6,0.2,1.4,0,2.1c-0.5,1.8-1.2,3.6-1.7,5.3c-1.9,1-3.7,1.1-5.6,0.9c-0.3,1-0.5,1.7-0.8,2.6c-0.7-4.6-0.1-5.6,3.9-7.3
		c0.9-0.4,1.7-0.7,2.8-1.2c0.2-0.5,0.4-1.2,0.7-1.9c-2-3.1-1.5-6.6-1.9-9.9c-0.3-0.1-0.5-0.4-0.6-0.3c-2.2,0.8-4.4,0.3-6.6-0.1
		c-2.9-0.5-5.8-1.1-8.8-0.2c-0.2,0.4-0.4,0.9-0.8,1.7c-0.7-2.4-2.7-3-4.2-4.1c-1.2,0-1.6,0.7-2,1.4c-0.1,0-0.2,0.1-0.2,0.1
		c0,0,0,0.1,0,0.2c0.1-0.1,0.1-0.3,0.2-0.4c1,0.2,2.1,0.5,3.2,0.7c0.4,0.9,0.7,1.8,1.2,3c-0.8,0.4-1.9,0.5-2.2,1
		c-0.4,0.8-0.8,0.9-1.6,0.9c-0.8-0.1-1.4,0.4-1.7,1.1c-1.1,2.4-2.5,4.6-4.3,6.6c-0.5,0.6-0.7,1.5-1,2.3c-0.8,2-1.6,4-2.5,5.9
		c-0.3,0.6-0.8,1.1-1.4,1.9c-0.8-1-0.3-2-0.7-2.8c-0.4-0.8-0.5-1.8-0.8-2.7c-0.2-0.8-0.3-1.6-0.7-2.4c-0.4-0.7-1-1-1.8-0.2
		c-0.2,1.6,1.3,2.3,2.2,3.5c-0.2,1.5-0.5,3-0.8,4.6c-0.7,0.2-1.3,0.4-2,0.6c-0.4,1.8,1.1,1.7,2.2,2.3c-0.3,0.8-0.8,1.5-1,2.3
		c-0.2,0.9-0.3,1.9-0.4,2.8c-0.7,3.7-1.3,7.5-2,11.4c1.7,1.6,3.4,3.3,5.1,4.9c2.3,2.2,4.6,4.5,6.9,6.8c0.8,0.8,1.6,1.8,2.2,2.8
		c1.4,2.6,3.6,4.2,5.9,6.4c-0.6-2.9-1.1-5.4-2.9-7.6c0.6-0.3,1-0.6,1.1-0.5c0.4,0.2,0.8,0.6,1,1c0.6,1.9,1.4,3.8,1.6,5.8
		c0.2,1.7,0.7,3.2,1.8,4.5c0.2,0.2,0.2,0.6,0.3,0.9c-0.5,0.6-0.9,0.2-1.2-0.1c-2.6-2.6-5.2-5.2-7.8-7.8c-1.4-1.4-3-2.7-4.5-4
		c-0.1-0.1-0.1-0.2-0.2-0.3c0,0-0.1,0-0.2,0c0.2,0,0.3,0.1,0.5,0.1c-0.4,0.9,0,1.6,0.3,2.4c1.9,5,2.8,10.1,2.4,15.4
		c-0.1,0.8-0.1,1.7,0,2.5c0.3,4-0.6,7.8-2.2,11.5c-1.4,3.1-2.9,6.3-4.4,9.4c-0.3,0.8-0.9,1.5-1,2.3c-0.2,1.8-1.2,3.1-2.3,4.3
		c-1.7,1.8-3.5,3.6-5.4,5.2c-1.5,1.2-3.4,2.1-5.5,3.3c-0.9,1.4,0,3.8-1.6,5.2c-0.7,0-1-0.3-1-0.8c0-0.9,0.2-1.9,0.3-3
		c-0.4-0.1-0.9-0.3-1.2-0.2c-3.6,0.8-7.3,1.4-11,1.5c-0.3,0-0.6,0.2-1.1,0.4c0.2,0.6,0.4,1.1,0.6,1.7c0.2,0.7,0.8,1.4,0.7,2
		c-0.2,2.3,1,4.1,1.7,6.2c0.7,2.3,1.3,4.6,2,6.8c1.1,3.5,2.4,7,4.2,10.2c1.8,3.1,2,6.5,2.9,9.8c0.1,0.3,0.1,0.7,0,1.1
		c-0.8,2.3-0.4,4.7-0.4,7.1c0.1,5.4-0.4,10.7-1.2,16c-0.1,0.5-0.1,0.9-0.2,1.4c-0.2,2.4-0.2,2.4,1.1,4.5l0.1-0.1c-0.6,0-1.1,0-1.8,0
		c-0.2,1.1-0.3,2-0.5,3c-0.9,0.4-1.8,0.9-2.8,1.4c0.1-0.5-0.2-0.8-0.7-0.8c0.4-2.3,0.4-4.8,2.4-6.5c0.3-0.3,0.4-0.8,0.5-1.3
		c0.2-1.5,0.5-3.1,0.6-4.6c0.3-2.7,0.7-5.4,0.7-8.2c0.1-3.3-0.2-6.7-0.3-10c0-3.4-0.7-6.6-2-9.7c-1.9-4.5-3.7-9-5-13.7
		c-1.4-5-3-10-5-14.9c-0.6-1.4-1-2.8-2.4-3.9c-0.2,1.3-0.5,2.4-0.6,3.4c-7.1,69-14.3,138.1-21.4,207.1c0,0.1,0,0.2,0.1,0.3
		c0,0.1,0.2,0.1,0.3,0.2c1.2-0.6,1.8-1.8,2.5-2.9c1.9-3.3,3.7-6.7,5.8-9.9c1.3-2.1,2-4.2,2.1-6.7c0.1-3.4,0.3-6.9,1.2-10.3
		c0.3-1.2,1.1-1.5,2.2-1.3c-0.1,0.6,0,1.2-0.2,1.8c-1,4.1-1.2,8.2-1.2,12.4c0,0.8-0.1,1.6-0.1,2.8c-1.7,0.2-2.4,1.7-3.2,3
		c-0.8,1.4-2,2.8-2.3,4.4c-0.3,1.4-0.8,2.4-1.6,3.4c-1.5,2-3.1,3.9-4.6,5.9c-0.5,0.7-1,1.4-1.2,2.2c-0.6,2.4-0.9,4.9-0.6,7.7
		c1.3-1.3,1.7-2.7,2.3-3.9c0.2-0.3,0.5-0.5,0.9-0.9c0.1,0.5,0.3,0.8,0.2,0.9c-0.3,0.9-0.6,1.8-0.9,2.7c-1,2.6-2.2,5-2.9,7.7
		c-0.9,3.7-1.6,7.4-1.8,11.2c-0.1,1-0.1,1.9-0.2,2.8c-0.9,8.5-1.8,17-2.7,25.6c-0.6,5.7-1.2,11.4-1.8,17c-0.5,5.2-1.1,10.4-1.6,15.6
		c-0.1,0.5,0,1.1,0,1.9c1.4-0.8,2-1.8,2.5-2.9c0.8-1.9,2.2-3.1,3.8-4.2c1.9-1.3,4-2.5,5.8-3.6c1.1-5.1,2.2-10.1,3.2-15.1
		c0.9-4.3,2.2-8.5,3.9-12.6c3.1-7.4,6.1-14.7,9.1-22.1c0.9-2.1,1.5-4.2,1.6-6.5c0.2-2.7,0.8-5.4,0.5-8.2c-0.1-0.8,0.2-1.7,0.3-2.5
		c0.4-2.8,1.3-5.5,2.6-8.1c0.5-1,1-1.8,1.9-2.5c2.3-1.9,4.5-3.9,6.7-5.9c1.1-1.1,2.1-2.3,3-3.5c1-1.2,1.5-2.6,1.2-4.3
		c-0.2-0.9-0.3-1.8,0.4-2.6c1.4,0.2,0.7,1.8,1.8,2.2c1.7-1.5,3.6-2.9,4.8-5.2c-2.9-0.6-5.6-1.1-8.2-1.6c-1.2,0.8-2.2,1.5-3.3,2.2
		c-0.9,0.5-1.9,1-2.9,1.4c-0.3,0.1-0.8-0.1-1.4-0.3c1.1-2.1,3.5-2.4,4.8-4.1c-1-2-3.3-2.8-4.5-4.5c-1.3-1.8-2.4-3.8-3.6-5.7
		c-3.3-1.3-6.6-2.7-9.9-4c-0.2-0.1-0.5,0-0.7,0c-0.4-0.5-0.8-1.2-1.4-1.6c-1.5-1.1-1.9-2.5-1.7-4.3c0.4-4.3,0.6-8.5,0.9-12.8
		c0-0.5,0.3-1.3,0.6-1.6c1.2-0.9,1.1-2.1,0.5-3.2c-0.6-1.3-0.7-2.7-0.6-4.2c0-2.3,0.6-4.5,1.8-6.4c0.9-1.4,1.3-2.8,1.2-4.4
		c0-1.1,0.1-2.1,0.1-3.2c0-0.7,0-1.5-0.4-2.1c-1-1.7-0.9-3.5-0.3-5.2c0.7-2.1,0.6-4.5,1.8-6.5c0.3-0.5,0.3-1.4,0.1-2.1
		c-0.6-2.2-1.3-4.3-2-6.5c-1.3-1-1.4-2.4-1.3-3.8c0.5-5,0.6-10,1.8-14.9c0.7-3,1.6-6,2.3-9c0.3-1.5,0.8-3,1.6-4.3
		c1.7-3,3.8-5.7,6.4-8.1c1.5-1.4,2.9-2.7,4.4-4c1,0.2,1.9,0.4,2.8,0.6c0.2,0.3,0.5,0.5,0.7,0.8c1.3,1.3,2.9,2,4.5,2.7
		c2.4,1.1,4.7,2.1,7.8,3.5c-1.3,0-1.8,0.1-2.2,0c-1.4-0.4-2.7-0.8-4-1.5c-1-0.5-1.8-0.1-2.7,0.2l0.1,0.1c0-0.4-0.1-0.7-0.1-1.2
		c-1.1-0.7-2.4-1.4-3.5-2.1c-1.1,0.3-1,1.3-1.5,1.9c-1.1,1.6-2.1,3.2-3.2,4.8c-0.5,0.7-1.1,1.5-2.2,1.5c-0.6-0.5-0.4-1.1-0.2-1.6
		c0.6-1,1.3-2,1.9-3c0.9-1.4,2-2.7,2.2-4.4c0.1,0,0.2-0.1,0.2-0.1c-0.1,0.1-0.1,0.1-0.2,0.2c-1.8,1.7-3.8,3.2-5.5,5.1
		c-2.6,2.8-4.5,6-5.8,9.7c-2.2,6.5-3.5,13.1-3.8,19.9c-0.2,3.3,0.1,6.4,1.7,9.3c1,1.8,1.7,3.7,1.4,5.8c-0.1,0.9-0.4,1.8-0.7,2.7
		c-0.5,1.5-1.2,2.8-1.7,4.3c-0.5,1.7-0.4,3.3,0.9,4.6c1.2-0.1,1.6-1.1,2.1-1.8c4.6-6.1,8.4-12.7,11.7-19.6c0.5-1,0.6-2.3,1.8-2.9
		L618,358c0.4,1.5-0.3,2.8-0.9,4.1c-1.1,2.4-2.3,4.7-3.5,7c-1,1.9-2,3.8-2.9,5.7c-0.1,0.1-0.1,0.2-0.1,0.3c-2.5,3-4.9,6.1-7.8,9.6
		c-0.1,0.9-0.3,2.5-0.3,4c0,1.5-0.3,2.8-1.2,4c-1.3,1.9-2,4-2,6.4c0,1.1,0,2.1,0.6,3.1c1.4,2.8,0.8,5.6-0.3,8.3
		c-0.5,1.1-0.9,2.2-0.9,3.4c-0.1,3.1-0.9,6.1-0.5,9.2c2.8,2.6,6.4,4.2,11.1,5c0.2-0.6,0.6-1.2,0.6-1.9c0.1-3.7,0.2-7.4,0.3-11.1
		c0-1.5,0-3.1,0.1-4.9c0.6,0.4,0.9,0.5,1.1,0.8c0.2,0.3,0.2,0.7,0.2,1c0,5.4,0.5,10.7-0.5,16.2c0.3,0.6,0.8,1.3,1.1,2.1
		c1.4,3.9,4.4,6.4,7.5,8.9c1,0.8,2.1,1.1,3.3,1.3c2.6,0.4,5.2,0.8,7.8,1c3.2,0.3,6.4,0.3,9.6,0.5c0.8,0,1.6,0.3,2.8,0.5
		c-0.5,0.6-0.8,1.1-1.1,1.2c-1.1,0.2-2.1,0.2-3.2,0.2c-2.3,0-4.5,0-6.9,0c-2.4,2.7-4.6,6-8.3,7.7c-1.8,4.9-6.2,7.8-9.8,11.4
		c-0.8,0.7-1.6,1.4-2.2,1.8c-2.4,5.1-3.1,10.3-3.2,15.6c0,1.5-0.1,3.1-0.3,4.6c-0.2,2.2-0.5,4.5-1.9,6.4c-0.5,0.7-0.6,1.5-1,2.3
		c-1.6,3.7-3.1,7.5-4.7,11.2c-0.4,0.9-0.7,1.8-1.2,2.6c-3.3,4.6-4.3,10-5.5,15.3c-1,4.4-1.7,8.9-2.6,13.3c-0.3,1.5-0.9,2.9-1.4,4.6
		c0.4,0.3,1.1,0.8,1.7,1.3c0.1,0.7-0.2,1-0.7,1c-0.9-0.1-1.9-0.3-3-0.5c-3.1,1.7-6.2,3.6-8.1,7c-0.7,1.3-1.7,2.6-2.7,3.7
		c-1.2,1.3-1.6,2.8-1.8,4.5c-0.5,5.7-1.1,11.4-1.8,17.2c0.4,0.5,0.9,1,1.2,1.6c1.2,2.2,3.1,3.1,5.4,3.8c2.3,0.7,4.6,1.3,7,1.3
		c2.6,0.1,5.2,0.2,7.9,0.2c1.4,0,2.9,0,4-1L598.7,581.2z M643.7,151.1c0.1-0.1,0.1-0.1,0.2-0.2C643.9,151,643.9,151.1,643.7,151.1
		c-0.1,0.2-0.7,0-0.2,0.6C643.6,151.5,643.7,151.3,643.7,151.1z M663.9,129.9c-0.2,0-0.7-0.2-0.4,0.4
		C663.6,130.1,663.7,129.9,663.9,129.9l0-0.2L663.9,129.9z M646.6,129.8l-0.2,0.1L646.6,129.8l0.1-0.1L646.6,129.8z M665.9,132.6
		c0.3,0.3,0.5,0.7,1.2,0.1C666.5,132.7,666.2,132.7,665.9,132.6c-0.2-0.1-0.4-0.4-0.6-0.6c0,0-0.2,0-0.3,0.1
		c0.1,0.1,0.1,0.4,0.2,0.4C665.4,132.6,665.7,132.6,665.9,132.6z M662.4,131.1C662.3,131,662.7,131.4,662.4,131.1
		c-0.3-0.1-0.5-0.3-0.7-0.5c0,0-0.1,0.1-0.2,0.2c0.2,0.1,0.4,0.3,0.6,0.4C662.2,131.2,662.3,131.1,662.4,131.1z M660.9,126.1
		c1-0.2,1.9-0.7,2.3-1.7c-0.8-0.4-1.4-0.2-2,0.2C660.8,125,660.8,125.6,660.9,126.1c0,0.1-0.1,0.2-0.2,0.3
		C660.8,126.3,660.9,126.2,660.9,126.1z M571.9,579c0-1.7-0.1-3,0-4.3c0.4-4.3,0.8-8.5,1.2-12.8c0.9-8.7,1.8-17.3,2.7-26
		c0.5-5.2,1.1-10.4,1.6-15.6c0.9-8.5,1.8-17.1,2.7-25.6c0.6-5.3,1.1-10.7,1.6-16c0.9-8.3,1.8-16.6,2.6-24.9
		c0.6-5.5,1.1-10.9,1.6-16.4c0.9-8.7,1.8-17.3,2.7-26c0.5-5.2,1.1-10.4,1.6-15.6c0.9-8.3,1.8-16.6,2.6-24.9
		c0.8-7.8,1.6-15.6,2.4-23.5c0.9-8.7,1.8-17.3,2.7-26c0.5-5.2,1-10.4,1.6-15.6c0.9-8.2,1.7-16.3,2.6-24.5c0.6-5.6,1.1-11.1,1.7-16.7
		c0.7-7.1,1.5-14.2,2.3-21.3c0.1-0.5,0-1.2-0.9-1.2c-0.5,5.2-1.1,10.4-1.6,15.7c-0.5,5-1.1,9.9-1.6,14.9c-0.6,5.9-1.3,11.8-1.9,17.8
		c-0.6,5.2-1.1,10.4-1.7,15.6c-0.9,8.1-1.8,16.1-2.6,24.2c-0.6,5.2-1.1,10.4-1.6,15.6c-0.9,8.3-1.8,16.6-2.7,24.9
		c-0.5,5.1-1.1,10.2-1.6,15.3c-0.9,8.3-1.8,16.6-2.7,24.9c-0.5,5.1-1.1,10.2-1.6,15.3c-0.9,8.1-1.8,16.1-2.6,24.2
		c-0.6,5.4-1.1,10.9-1.7,16.4c-0.8,7.7-1.7,15.4-2.5,23.1c-0.9,8.2-1.8,16.3-2.6,24.5c-0.5,4.7-0.7,9.5-1.1,14.2
		c-0.1,1.2-0.2,2.4-0.3,3.6c-0.6,4.5-1.3,9-1.8,13.5c-0.4,3.1-0.5,6.2-0.9,9.2c-0.8,7-1.6,14-2.4,20.9c-0.1,0.7,0,1.4,0.1,2.1
		C570.4,578.3,571,578.6,571.9,579z M574.6,508.3c0.1,0,0.2,0.1,0.4,0.1c0.2-0.8,0.5-1.5,0.6-2.3c0.1-1.1,0.1-2.1,0.2-3.2
		c0.7-6,1.4-12,2.1-18.1c0.3-2.8,0.6-5.7,0.8-8.5c0-0.5,0.2-1.2-0.7-1.6c-0.4,0.4-1.1,0.8-1.4,1.3c-0.4,0.8-0.8,1.8-0.9,2.7
		c-0.5,3.3-1,6.6-1.2,9.9c-0.2,4.6,0,9.3,0.6,13.9c0.2,1.2,0.2,2.3-0.5,3.4C574.3,506.6,574.6,507.5,574.6,508.3z M618.4,6
		c0,2.7,0.2,5,1.6,7.1c1.5,2.4,2.8,5,2.7,7.9c1.2,0.6,2.3,0.9,3.6,0.3c-0.4-1.1-0.8-2-1.1-3.1c-1.1-4.2-3.4-7.8-5.4-11.6
		C619.6,6.3,619,6.3,618.4,6z M625.9,3.4c-0.2,0.2-0.3,0.4-0.3,0.4c0.6,4,1.2,7.9,1.9,11.9c0.2,1.2,0.4,2.3,0,3.5
		c-0.2,0.5-0.2,1.2-0.2,1.8c0,0.2,0.2,0.4,0.4,0.6c0.9,0,1.8,0,2.8,0c-0.3-1.9-0.5-3.7-0.8-5.4c-0.3-1.6-0.7-3.2-1-4.9
		c-1.7-1.4,0-3.4-0.8-4.9c-0.4-0.7-0.5-1.6-0.9-2.3C626.8,3.7,626.3,3.6,625.9,3.4z M635.2,5.2c0.9,5.3,0.9,10.4,0.1,15.8
		c1.1-0.7,1.9-1.2,2.7-1.7c0.1-1.7,0.2-3.2,0.2-4.7c0-2.2,0-2.2-1.3-4.2c0.3-0.4,0.7-0.9,1.1-1.4C637.4,7.6,637.7,5.9,635.2,5.2z
		 M647.8,31c1.1-2.6,1-3.2-0.7-4.4c-0.7-0.5-1.6-0.8-2.6-1.3C644.6,27.8,646.4,29.1,647.8,31z M637.1,131.9c0.9-0.3,1.7-0.8,2.6-0.8
		c1,0,1.9,0.4,3.2,0.6c0-0.7,0.1-1.2,0.1-1.7c-0.8,0.1-1.4,0.2-1.9,0.3c-0.7-0.6-1.3-1.2-1.9-1.8c-0.4,0.2-0.7,0.2-0.8,0.4
		C637.6,129.7,637.7,131,637.1,131.9z M613.4,15.1c-0.5,2.6,0.2,4.1,1.6,5.4c0.2,0.2,0.8,0.1,1.5,0.1C616,18.5,615.1,17,613.4,15.1z
		 M636.2,155.2c0.4-0.8,0.8-1.6,1.2-2.5c-0.6-0.5-1.1-1-1.6-1.4C634.4,153.2,634.4,153.3,636.2,155.2z M646.6,133.5
		c1.7-0.6,2.4-1.6,3.2-2.4c0.4-0.4,0.4-0.8-0.1-1.1C648.7,130.9,647.3,131.5,646.6,133.5z M681,128c-0.5,0-1-0.2-1.4-0.1
		c-0.5,0.1-0.7,0.6-0.5,1.1c0.1,0.3,0.4,0.7,0.6,0.7c0.3,0,0.6-0.3,0.8-0.5C680.7,128.9,680.8,128.5,681,128z M639.4,141.3
		c-1.8,0.5-1.2,1.8-1.2,3.7C638.8,143.2,639.1,142.2,639.4,141.3z M675.4,150.9c-0.7-0.7-1.5-0.3-2.3-0.1
		C673.9,151.2,674.6,151.5,675.4,150.9z M644.2,144.5c0.4-0.4,0.8-0.7,1.2-1.1c0.1-0.1,0-0.5-0.2-0.6c-0.1-0.1-0.5-0.1-0.6,0
		C644.1,143.2,643.6,143.6,644.2,144.5z M647.1,125.8c1.7,0.1,1.7,0.1,1.8-1.3C648.3,125,647.8,125.4,647.1,125.8z M643.4,142.2
		c-1.5-0.1-1.5-0.1-1.4,1.1C642.4,143,642.8,142.7,643.4,142.2z M649.7,139.7c0.4-0.2,0.7-0.3,0.8-0.5c0.1-0.3,0.2-0.6,0.2-0.9
		c0-0.1-0.5-0.3-0.6-0.3c-0.2,0.2-0.4,0.4-0.5,0.7C649.5,139,649.6,139.2,649.7,139.7z M675.5,122.6c-0.3,0.4-0.6,0.7-0.7,1.1
		c-0.1,0.2,0.1,0.4,0.2,0.6c0.2-0.1,0.4-0.2,0.6-0.3C675.8,123.6,676,123.2,675.5,122.6z M638.2,124.4c0.3,0.1,0.5,0.3,0.8,0.3
		c0.1,0,0.3-0.4,0.3-0.4c-0.2-0.2-0.5-0.4-0.7-0.5C638.4,123.9,638.3,124.1,638.2,124.4z M642.6,153.8c0,0.1-0.1,0.2-0.1,0.3
		c0.1-0.1,0.2-0.1,0.3-0.2C642.8,153.8,642.7,153.8,642.6,153.8z M669,132.3c-0.1,0-0.2-0.1-0.2-0.1c-0.1,0-0.2,0-0.3,0.1
		c0.1,0,0.2,0.1,0.2,0.1C668.8,132.3,668.9,132.3,669,132.3z M672.4,133.9c0.1,0,0.2-0.1,0.3-0.1c-0.1-0.1-0.2-0.2-0.3-0.2
		c-0.1,0-0.2,0.2-0.3,0.2C672.2,133.8,672.3,133.8,672.4,133.9z M645.7,140.7c0-0.1,0-0.2-0.1-0.3c-0.1,0.1-0.1,0.3-0.2,0.4
		C645.5,140.7,645.6,140.7,645.7,140.7z M666.8,128c0-0.1,0-0.2-0.1-0.2c-0.1,0-0.2,0-0.3-0.1c0,0.1,0.1,0.3,0.1,0.4
		C666.6,128.1,666.7,128.1,666.8,128z M638.6,155.8c-0.1-0.1-0.1-0.2-0.2-0.2c-0.1,0.1-0.2,0.1-0.2,0.2c0,0.1,0.1,0.2,0.2,0.2
		C638.4,156,638.5,155.9,638.6,155.8z M635.5,158.9c0.1-0.1,0.2-0.1,0.2-0.2c0-0.1-0.1-0.1-0.2-0.2c-0.1,0.1-0.2,0.1-0.2,0.2
		C635.3,158.8,635.5,158.8,635.5,158.9z M656.3,123l0.1-0.2l-0.2,0L656.3,123z M667,124.9l-0.1,0.2l0.2,0L667,124.9z"/>
	<path d="M234.6,314.2c-0.3,0.1-0.7,0.1-1.2,0.2c-0.3,1.1-0.6,2.3-1,3.6c-1,0.2-2,0.4-3,0.6c-0.1-2.5,0.1-5,2-6.9
		c0.4-0.4,0.5-1.1,0.5-1.7c0.4-3.5,1.1-7.1,1.2-10.6c0.2-4.8,0-9.5-0.2-14.3c-0.2-4.1-1.2-7.9-3.4-11.5c-3.9-6.7-7.9-13.3-10.8-20.5
		c-0.1-0.3-0.4-0.5-0.6-0.7c-0.2,0.1-0.4,0.1-0.4,0.2c-7,67.5-14,135.1-21,202.6c0,0.3,0.1,0.7,0.2,1.1c1.3-0.5,1.8-1.6,2.4-2.6
		c2.2-3.7,4.3-7.4,6.5-11.1c1-1.6,1.5-3.2,1.4-5.1c-0.1-1.4,0-2.9,0.2-4.3c0.3-2.1,0.6-4.2,1-6.3c0.2-1,0.8-1.7,1.9-1.9
		c0,1.2,0.1,2.4-0.2,3.5c-0.6,2.8-0.7,5.7-0.8,8.5c0,1.2,0,2.4,0,3.6c0,0.9-0.3,1.6-1.1,2.1c-2.5,1.6-3.4,4.5-4.7,6.9
		c0.3,1.5-0.7,2.4-1.5,3.5c-1.6,2.1-3.2,4.1-4.8,6.2c-0.5,0.8-1,1.7-1.2,2.6c-0.3,2.3-0.5,4.7-0.7,7.4c1.7-1.5,2-3.6,3-5
		c0.7,0.2,0.7,0.7,0.6,1.2c-0.5,1.2-1,2.4-1.5,3.6c-1.3,2.8-2.4,5.7-2.8,8.8c-0.4,3.1-0.9,6.1-1.2,9.2c-0.9,8.6-1.8,17.3-2.7,25.9
		c-0.6,5.6-1.2,11.1-1.8,16.7c-0.6,5.7-1.2,11.4-1.7,17.1c-0.1,0.8,0,1.5,0.1,2.9c0.9-1.3,1.7-1.9,2-2.7c0.9-2.1,2.5-3.5,4.3-4.7
		c1.8-1.2,3.5-2.5,5.5-3.1c0.2-1.5,0.4-2.9,0.7-4.3c0.9-4.1,1.7-8.2,2.7-12.2c0.8-3.2,1.7-6.5,2.9-9.6c3-7.5,5.9-15.1,9.3-22.5
		c2.1-4.6,2.6-9.4,2.8-14.3c0.2-4.1,0.7-7.9,2.5-11.6c0.8-1.7,1.7-3,3.2-4.2c2.5-2.1,4.8-4.3,7.1-6.5c2-2,3.6-4.2,2.8-7.3
		c-0.1-0.3,0-0.7,0.1-1.1c0.1-0.3,0.4-0.4,0.8-0.8c0.4,0.8,0.7,1.5,1.1,2.4c2-1.5,3.6-3,5.1-5.2c-3.1-0.6-5.8-1.3-8.4-1.5
		c-1.3,0.8-2.3,1.6-3.5,2.2c-1.1,0.6-2.2,1.9-4,1c1-2.2,3.6-2.5,5-4.3c-1.6-1.5-3.3-2.8-4.6-4.4c-1.4-1.7-2.5-3.8-3.6-5.6
		c-3.7-1.5-7.3-3-10.9-4.4c-0.2-0.3-0.4-0.6-0.6-0.8c-1.9-1.3-2.4-3-2.2-5.2c0.4-3.7,0.6-7.4,0.8-11c0.1-0.7,0-1.5,0.3-2.1
		c0.3-0.7,1-1.2,1.6-1.8c-0.2-0.8-0.3-1.5-0.6-2.1c-0.8-1.4-0.8-3-0.7-4.5c0.1-2.2,0.7-4.2,1.9-6.1c1.7-2.7,0.8-5.8,1.3-8.7
		c0.1-0.3-0.2-0.7-0.4-1c-1.1-1.7-0.9-3.4-0.3-5.2c0.7-2,0.6-4.2,1.6-6.2c0.5-0.9,0.3-2.4,0.1-3.5c-0.4-1.7-0.7-3.7-1.7-5
		c-1.3-1.6-1.3-3.2-1.2-5c0.2-8.4,1.9-16.5,4.3-24.5c0.3-1,0.8-2,1.3-2.9c1.5-2.6,3.2-5,5.4-7.1c1.8-1.7,3.6-3.4,5.4-5.1
		c1,0.4,2,0.8,3,1.2c1.3,1.4,3,2.2,4.7,3c1.9,0.8,3.9,1.7,5.8,2.6c0.4,0.2,0.6,0.6,0.9,0.9l0.1-0.1c-1.5,0.3-2.7-0.6-4.1-1
		c-1-0.3-2-0.8-3.1-0.5l0.1,0.1c-1-1.7-2.7-2.2-4.3-3.1c-2,2.8-3.1,6.1-5.8,8c-0.2,0.2-0.6,0.1-1.2,0.2c0-0.6-0.1-1.1,0.1-1.4
		c0.9-1.5,1.9-3,2.8-4.5c0.5-0.9,1.3-1.7,1.1-2.9c0.3-0.3,0.5-0.5,0.8-0.8c0.1,0,0.2,0,0.3-0.1c0.1,0,0.1-0.1,0.1-0.2
		c-0.1,0.1-0.2,0.2-0.3,0.3c-0.3,0.3-0.5,0.5-0.8,0.8c-1.7,1.6-3.6,3.1-5.2,4.9c-2.5,2.8-4.6,5.9-5.8,9.7c-1.1,3.7-2.4,7.3-2.9,11
		c-0.5,3.5-0.7,7.1-1,10.7c-0.2,1.9,0.2,3.8,1.1,5.5c0.5,1.1,0.9,2.2,1.4,3.3c1.2,2.5,1.3,5-0.1,7.5c-0.6,1.1-1.1,2.4-1.5,3.6
		c-0.2,1-0.2,2.1-0.1,3.2c0.1,0.6,0.7,1.2,1,1.8c2.5-2,2.7-2.1,8.5-11.9c2.5-4.2,4.7-8.5,7.1-12.9c0.6,0.6,0.3,1.2,0,1.8
		c-0.8,2-1.5,4-2.5,5.9c-1.6,3.2-3,6.5-5.1,9.4c-2.3,3.3-4.4,6.8-7.8,9.6c-0.1,1.1-0.2,2.4-0.2,3.7c0,1.7-0.4,3.2-1.3,4.7
		c-0.8,1.4-1.4,3-1.9,4.6c-0.4,1.5-0.5,3.1,0.3,4.5c1.4,2.8,1.1,5.6,0,8.3c-0.9,2-1.2,4.1-1.3,6.2c-0.1,2.3-0.2,4.5-0.3,6.9
		c3.2,2.8,7.1,3.8,10.8,5c1-0.5,0.9-1.3,0.9-1.9c0.1-4.1,0.2-8.1,0.3-12.2c0-1.3-0.1-2.6,0.5-3.9c1,0.7,0.8,1.6,0.8,2.3
		c0,4.5-0.1,9.1-0.2,13.6c0,1.4,0.1,2.7,0.7,4.1c1.6,4,4.6,6.6,7.9,9.1c0.8,0.6,1.9,1,2.9,1.1c5.3,0.9,10.6,1.6,16,1.5
		c1.1,0,2.1,0,3.2,0.1c0.2,0,0.6,0.5,0.6,0.7c0,0.3-0.2,0.7-0.5,0.8c-0.5,0.2-1.1,0.3-1.7,0.3c-2.7-0.1-5.5-0.2-8.3-0.3
		c-2.6,2.7-4.7,6.2-8.6,7.9c-1.8,4.9-6.1,7.7-9.6,11.2c-0.8,0.8-1.8,1.5-2.7,2.3c-0.6,1.9-1.2,3.7-1.8,5.5c-0.7,2.3-0.9,4.7-1,7.1
		c-0.1,3-0.4,5.9-0.6,8.9c-0.1,1.1-0.2,2.2-0.7,3.1c-2.4,4.7-3.9,9.7-6.2,14.4c-1.1,2.2-2.3,4.4-3.5,6.6c-0.5,0.9-0.9,1.9-1.2,2.9
		c-1.8,5.9-3.1,12-4.1,18.1c-0.5,3-0.7,6.2-2.4,8.8c0.8,0.6,1.4,1.1,2,1.6c-0.3,1-1,0.9-1.5,0.8c-2.1-0.6-3.7,0.1-5.3,1.3
		c-2,1.5-4,3-5.2,5.3c-0.5,1.1-1.2,2.1-2.1,2.9c-1.5,1.5-2.2,3.3-2.3,5.4c-0.3,3.9-0.8,7.8-1.2,11.7c-0.2,1.8-0.3,3.5-0.9,5.2
		c-0.9,0-1.1-0.6-1-1.2c0.2-2.1,0.4-4.3,0.6-6.4c1.2-11.4,2.3-22.8,3.5-34.1c1.1-10.3,2.2-20.6,3.3-30.9c0.8-8.2,1.6-16.4,2.5-24.5
		c0.8-7.9,1.7-15.9,2.5-23.8c0.8-8.2,1.6-16.4,2.5-24.5c0.8-7.9,1.7-15.9,2.5-23.8c0.6-5.5,1.1-10.9,1.7-16.4
		c0.9-8.5,1.8-17.1,2.7-25.6c0.6-5.8,1.1-11.6,1.7-17.4c0.6-5.7,1.2-11.4,1.8-17.1c0.6-5.7,1.1-11.4,1.7-17.1
		c0.6-5.9,1.2-11.8,1.9-17.8c0.6-5.6,1.1-11.1,1.7-16.7c0.6-6,1.3-12.1,1.9-18.1c0.3-3,0.6-5.9,0.9-8.9c0.1-0.6,0-1.2-0.3-1.8
		c-0.3,1.4-0.6,2.7-0.7,4.1c-0.6,5.6-1.1,11.1-1.7,16.7c-0.6,5.4-1.2,10.9-1.8,16.3c-0.6,5.3-1.1,10.7-1.7,16
		c-0.6,5.8-1.3,11.6-1.9,17.4c-0.6,5.4-1.1,10.9-1.7,16.4c-0.8,7.9-1.7,15.9-2.6,23.8c-0.6,5.5-1.1,10.9-1.7,16.4
		c-0.8,7.9-1.7,15.9-2.6,23.8c-0.6,5.5-1.1,10.9-1.7,16.4c-0.8,7.9-1.7,15.9-2.6,23.8c-0.6,5.3-1.1,10.7-1.7,16
		c-0.9,8.2-1.8,16.3-2.6,24.5c-0.8,7.5-1.6,14.9-2.4,22.4c-0.6,5.9-1.3,11.8-1.9,17.8c-0.3,2.6-0.5,5.2-0.8,7.8
		c-0.6,5.9-1.3,11.8-1.9,17.8c-0.6,5.8-1.2,11.6-1.9,17.4c-0.5,4.4-0.6,8.8-1.7,13.1c-0.3,1.3,0,1.9,1.4,2.4
		c0.3,0.1,0.7,0.1,1.1,0.1c0-0.8,0-1.6,0-2.4c0.1-0.8,1-1.2,1.6-0.7c0.6,0.5,1.2,1.2,1.7,1.8c0.6,0.8,1.2,1.5,2.2,1.8
		c1.9,0.6,3.8,1.6,5.8,1.8c4.1,0.6,8.3,1,12.5,0.8c0.5,0,0.9-0.1,1.2-0.2c0.8-0.5,0.5-1.2,0.6-1.7c0.1-0.6,0.3-1.2,0.7-1.6
		c2.1-2.5,6.8-3.3,9.8-1.8c0.1,0.1,0.1,0.4,0.2,0.9c-3.4,0.4-7.3-0.3-9.5,3.4c6.2,0.2,8.2,0,10.7-1.3c0.2-1.5,0.5-3-0.8-4.3
		c-0.4-0.4-0.7-1-0.8-1.6c-0.4-2.4-1.9-4.1-3.8-5.4c-1.9-1.4-3.7-3-4.6-5.4c-1.9-0.5-3.6-0.5-5.4,0c-1.7,0.5-3.4,1-4.9,1.4
		c-0.8-0.5-1-1.1-0.5-1.6c0.3-0.5,0.8-1,1.3-1.1c2.1-0.7,4.1-1.8,6.4-1.8c0.1-0.9-0.4-1.1-1-1c-2.7,0.4-5.4,1-7.7,2.5
		c-0.3,0.2-0.6,0.3-1.2,0.5c-0.3-0.4-0.9-0.8-1-1.2c0-0.5,0.3-1.2,0.7-1.5c1.4-1.2,3.1-1.8,4.8-2.2c1.4-0.3,2.8-0.6,4.1-0.8
		c0.4-1.1,0.1-1.8-0.9-1.9c-2.9-0.4-5.7,0-8.2,1.7c-0.8,0.5-1.6,1.1-2.4,1.6c-0.7,0.4-1.5,0.3-1.9-0.3c-0.4-0.5-0.4-1.4,0.2-2
		c2.5-2.3,5.4-3.9,8.9-4c1,0,2.1,0,3.3,0c0-2.9-1.3-4.9-2.7-6.8c0.4-1,1.1-1.3,1.8-0.8c0.7,0.5,1.3,1.1,1.6,1.8
		c0.6,1.3,1.2,2.6,1.6,4c0.7,2.2,1.4,4.3,1.8,6.5c0.3,2,1.3,3.6,2.7,4.9c0.8,0.7,1.4,1.5,1.6,2.7c0.1,0.6,0.7,1.3,1.2,1.7
		c1.4,1.1,2.9,2.1,4.4,3.1c1.7,1.1,3.2,2.5,4.2,4.3c1.1,1.9,1.5,3.8,0.2,5.7c-0.3,0.5-0.5,1-0.4,1.6c0.2,1.6-0.3,2.3-1.6,2.6
		c-2,0.3-4,0.6-6,0.8c-1.9,0.1-3.8,0.2-5.7,0.7c-1.2,0.3-2.6,0.4-3.9,0.3c-4-0.2-8.1-0.5-12.1-0.9c-1.2-0.1-2.3-0.5-3.4-0.9
		c-1.2-0.4-2.4-1.1-3.8-1c-0.5,0-1.1-0.4-1.6-0.7c-0.5-0.4-0.9-0.7-1.6-0.6c-2,0.3-3.5-0.4-4.6-2.1c-0.5-0.8-1.2-1-2-1.3
		c-1.4-0.5-2.9-1.2-4.2-1.9c-0.6-0.3-1.2-0.9-0.6-1.8c1.2,0.4,2.3,0.8,3.5,1.1c1.1,0.3,2.3,0.4,3.7,0.6c0.2-0.8,0.5-1.5,0.5-2.1
		c0.6-5.1,1.1-10.2,1.6-15.3c0.1-1.2,0.1-2.3-0.4-3.5c-0.5-1.3-0.7-2.7-1-4.1l-0.1,0.1c1-2.1,1.8-4.4,2.1-6.7c0.3-2,0.5-4,0.8-6
		c0.6-4.1,0.8-8.3,0.8-12.5c0-4.5,0.2-9.1,0.3-13.6c0-1-0.1-1.9-0.1-2.9c0-4.9,0-9.8,0-14.6c0-3,0.2-6,0.2-8.9
		c0-3.3,0.6-6.4,1.6-9.5c0.7-1.9,1.4-3.7,2.8-5.2c2-2.1,2.7-4.6,3-7.5c0.7-7.9,1.7-15.9,2.5-23.8c0.8-7.8,1.6-15.6,2.5-23.5
		c0.8-7.8,1.7-15.6,2.6-23.5c0.6-5.5,1.1-10.9,1.7-16.4c0.8-7.8,1.7-15.6,2.5-23.5c0.6-5.5,1.1-10.9,1.7-16.4
		c0.9-8.1,1.7-16.1,2.6-24.2c0.8-7.8,1.6-15.6,2.5-23.5c0.8-7.8,1.7-15.6,2.5-23.5c0.7-6.4,1.4-12.8,2-19.2c0.1-1-0.1-2.2-0.4-3.1
		c-0.9-2.7-1.5-5.5-1.5-8.4c0-1.3-0.4-2.6-0.7-3.8c-0.6-2.4-1.2-4.9-1.7-7.3c-0.1-0.3,0.1-0.6,0.1-1.2c0.4,0.3,0.8,0.4,0.8,0.7
		c0.6,2.2,1,4.4,1.6,6.6c0.3,1.1,0.6,2.3,1.2,3.4c1.1,2.2,1.6,4.5,1.4,6.9c-0.1,1.5,0.3,2.5,1.7,3.2c0.4,0.2,0.8,0.5,1.2,0.8
		c3.7,2.6,7.9,3.2,12.3,2.6c1-0.1,2.1-0.4,3.1-0.6c0.7-1.9,0.1-3.7-0.3-5.4c-0.2-1-0.4-2.1-0.6-3.1l-0.1,0.1c0.7,0,1,0.6,1.2,1.1
		c0.7,2.1,1.4,4.3,2.1,6.6c0.4-0.1,0.9-0.1,1.4-0.4c2.3-1.1,4-2.9,5.5-5c2.2-3.1,4-6.5,5.2-10.1c1.4-4,2.6-8.2,3.8-12.3
		c0.5-1.7,0.6-3.5,0.8-5.3c0.4-4.7-0.7-9-3-13c-2.1-3.8-4.3-7.5-7.1-10.7c-2.7-3-5.9-5.5-9.6-7.7c-0.2,0.8-0.5,1.4-0.6,2.1
		c-0.1,1.2,0,2.3,0,3.5c0,0.8,0,1.6,0.1,2.5c0.1,0.9,0.3,1.9,0.3,2.8c-0.1,3.1,1,5.8,2.8,8.3c0.5,0.7,0.9,1.4,1.2,2.2
		c0.2,0.7-0.3,1.1-1.2,1.2c-3.3-2.5-4.6-6.1-4.9-10.1c-0.2-2,0-4,0.1-6.1c0.1-1.1,0.4-2.1-0.5-3c-0.2-0.2-0.1-0.9-0.1-1.3
		c0.9-5.6,0.7-11.1-1.4-16.5c-0.4-1.1-0.8-2.3-1-3.4c-0.6-3.2-1.6-6.2-3.4-9c-0.6-0.9-0.7-1.8-0.6-2.7c0.1-1.1,0.3-2.1,0.5-3.8
		c0.5,1.7,0.9,2.8,1.3,4.2c2.6-2.6,2.5-5.8,2.9-8.6c0.7-0.7,1.2-0.4,1.5,0.1c1.1-0.5,0.4-2.1,1.8-2.5c0.5,1.4,0.7,3-0.7,3.8
		c-1.4,0.8-1.2,1.9-1.1,3c2.8-1,4.7-2.1,7.1-4.3c0.1,0,0.3,0,0.3,0.1c1.4,2.5,1.7,5.1,0.2,7.7c-2.1,3.6-4.2,7.2-6.3,10.8
		c-0.3,0.5-0.6,1-0.8,1.6c-0.1,0.4,0,0.9,0.1,1.8c0.7-1,1.1-1.5,1.5-2.1c2.9-4.8,5.8-9.6,8.7-14.4c0.8-1.3,1.3-2.6,1.2-4.3
		c-0.1-1.7,0.7-3.4,1.2-5.4c-0.4-0.2-0.9-0.6-1.5-0.9c-1.6,1.1-0.8,3.6-3.2,4.3c0.3-1.7,0.7-3,0.8-4.4c0-0.9-0.4-1.8-0.7-3
		c0.3-1.1,0.7-2.5,1-3.7c-1.1-0.6-1.5,0.1-1.9,0.6c-0.4,0.4-0.4,1.1-0.8,1.6c-0.5,0.6-1.2,1.4-1.9,1.5c-1.6,0.3-2.7,1.4-4.1,2.3
		c-1.7-0.9-3.2-2-4.8-3.3c0.1-0.4,0.4-0.8,0.4-1.2c0-0.9-0.5-1.2-1.5-0.9c-0.1,1.4-0.1,2.8-0.2,4.2c-1.2-0.4-1.2-1.3-1.4-2.1
		c-0.5-1.7-1.5-3-3-3.8c-2.4-1.3-4.8-2.6-7.6-2.9c-1.7-0.1-3.3-0.6-4.9-0.9c-1.7-0.2-3.3,0.2-4.6,1.3c-1.4,1.2-3.2,2-4.5,3.5
		c-1.1,1.2-1.6,2.4-1.5,4.2c0.2,2.3,0,4.7-0.1,7.1c0,0.3-0.3,0.5-0.7,1.1c-0.2-1.2-0.3-2.1-0.5-3c-0.2,0.1-0.5,0.1-0.6,0.2
		c-0.8,1.5-1.6,2.9-2.3,4.4c-0.2,0.5-0.3,1.1-0.4,1.7c0,3.2,0.6,6.2,2.4,8.8c1.2,1.7,1.9,3.6,2.6,5.4c0.6,1.5,0.9,2.8,0.2,4.5
		c-0.5,1.2-0.2,2.8-0.2,4.2c0,1.1,0.4,2.1,0.4,3.2c-0.2,4.9,1.4,9.4,3.1,13.9c0.5,1.4,1.3,2.7,1,4.4c-0.2,1.5,0.3,3.1,0.4,4.6
		l0.1-0.1c-0.3-0.2-0.7-0.3-0.8-0.5c-0.4-1.5-0.7-3-1-4.7c-0.3,0.4-0.6,0.7-1,1.2c-0.1-1.4,0-2.6-0.3-3.8c-0.3-1.3-0.9-2.5-1.2-3.7
		c-1.7-5.7-2.2-11.4-1.5-17.3c0.3-2.4,0-4.8-1-7c-0.4-0.8-0.9-1.7-1.5-2.4c-2.9-3.4-3.8-7.2-2.9-11.6c0.6-3.3,2-6.3,3.5-9.3
		c0.5-1.1,1-2.1,1-3.4c-0.1-1.3,0.5-2.3,1.5-3.1c1.8-1.5,3.7-3,5.5-4.5c1-0.8,2.1-1.1,3.4-0.9c1.3,0.1,2.6,0.2,3.9,0.5
		c4.2,1.1,8.6,1.8,12.6,4.1c0.3-1.1,0.3-2,0.7-2.8c0.4-0.8,1.3-1.4,1.9-2c2.1,0.4,2.4,1.9,2.4,3.5c-0.6-0.6-1.3-1.2-2-1.8
		c-0.9,1.4-0.9,1.4-1.1,3.1c0.6-0.1,1.2-0.1,1.6-0.3c0.5-0.2,0.9-0.7,1.3-1.1c1-1.1,1.9-0.2,2.8,0c0.7,0.2,0.8,0.7,0.7,1.4
		c-0.9-0.1-1.8-0.2-2.7-0.3c-0.3,0.5-0.6,0.7-0.7,1.1c-0.2,0.6-0.4,1.2-0.3,1.7c0.1,0.5,0.4,1.1,0.8,1.4c0.4,0.3,1,0.1,1.4,0.2
		c0.5-1.6,0.9-2.9,1.3-4.2c0.9-0.2,1.8-0.6,2.8-0.6c0.5,0,1,0.3,1.5,0.5c0,0.9-0.6,0.8-1,0.9c-0.6,0.2-1.1,0.4-1.6,0.7
		c-0.4,0.3-0.7,0.7-0.9,1.1c-0.2,0.4-0.3,0.9-0.4,1.4c1.4,1.2,2.5,0.1,3.6-0.3c1.8-3.6,2.7-4.1,6.6-3.1c-0.3,1-0.6,2-0.9,3
		c-0.3,0.9-0.7,1.8,0,2.8c1,0.2,2,0.3,3.1,0.5c1.4-1.9,2.9-3.7,3.2-6.1l-0.1,0.1c0.6,0,1.1,0,2,0c-0.6,1-1.1,1.7-1.6,2.5
		c3.4-1.1,3.4-1.1,5.9-0.1c0.3-0.4,0.5-0.9,0.9-1.6c-1.5-0.2-3,0.2-3.6-1.3c-0.9-0.2-1.8-0.3-2.9-0.6c1.1-1.2,0.6-3.1,2.3-4
		c-0.5-0.9-1-1.7-1.5-2.6c2.4-1.3,3.3,0.9,4.6,1.7c3.5,0.4,5.9-1.5,8.4-3.6c0.4,0.9,0.6,1.5,0.8,2.1c1.6,0.4,1.6-1.5,2.4-1.7
		c3.4,0,6.5,0,9.6,0c2.2,1.1,4.3,0.2,6.4-0.3c0.9-0.2,1.9-0.3,2.8-0.2c0.5,0.1,0.9,0.6,1.4,0.9c-0.1,0-0.2,0-0.3,0.1
		c0,0,0,0.1,0,0.2c0.1-0.1,0.2-0.2,0.2-0.4c0.8,0.2,1.3-0.4,1.9-0.8c0.5-0.4,0.9-0.8,1.3-1.2c0.8,0.1,1.1,0.5,1,1.2
		c-0.1,1.3-0.2,2.5-0.3,4c0.7-0.3,1.3-0.5,2.3-0.8c0.3,0.4,0.7,0.8,1.2,1.3c-0.7,0.7-1.3,1.2-1.8,1.7c1.2,0.6,1.8-0.4,2.8-0.8
		c0.4,0.4,0.7,0.8,1.1,1.1c0.5,1.2-0.2,3.6-1.1,4.3c-0.6,0.4-1.3,0.6-1.9,0.9c-0.7,0.4-1.5,0.8-2.2,1.3c-0.5,0.3-0.9,0.7-1.4,1.2
		c0.4,4-0.3,8,1.5,11.7c-0.7,2.3-1.5,4.5-2.2,6.9c-1,0.2-1.9,0.4-2.9,0.5c-0.8,0.1-1.6,0-2.7,0c-0.2,0.7-0.5,1.5-0.9,2.6
		c-0.6-1.8-0.5-3.2,0.2-4.5c0.7-1.3,1.9-2.1,3.3-2.6c1.1-0.4,2.2-0.9,3.5-1.4c0.1-0.8,0.5-1.8,0.2-2.3c-1.3-2.6-1.3-5.3-1.4-8
		c0-0.6-0.2-1.1-0.3-1.9c-0.7,0.1-1.3,0.2-1.8,0.3c-0.8,0.1-1.7,0.4-2.4,0.3c-2.2-0.5-4.5-0.6-6.7-1c-1.5-0.3-2.8,0-4.2,0.1
		c-0.9,0.1-1,0.9-1.5,1.6c-1.1-1.9-2.7-3.2-4.9-4c-0.3,0.4-0.7,0.8-1,1.2c-0.1,0.1-0.3,0.2-0.4,0.3c0.1,0,0.2,0.1,0.2,0.1
		c0-0.2,0-0.4,0.1-0.5c0.9,0.4,1.9,0.8,3,1.4c0.3,0.7,0.7,1.7,1.1,2.7c-1,0.7-1.8,1.2-2.6,1.8l0.1-0.1c-1.6,0-2.7,0.6-3.3,2.1
		c-0.7,1.9-1.9,3.5-3.2,5.1c-0.7,0.8-1.1,1.8-1.5,2.7c-0.9,1.9-1.6,3.9-2.5,5.9c-0.3,0.7-0.8,1.3-1.2,2c-1.5-0.3-0.3-1.2-0.7-1.8
		c-0.4-0.6-0.6-1.3-0.8-2c-1.5,1-0.8,2.7-1.4,4c-0.6,0.2-1.2,0.5-1.8,0.7c0-0.1,0-0.2,0-0.3c0,0-0.2,0-0.2-0.1
		c0.1,0.1,0.2,0.2,0.3,0.3c-0.3,1.7,1,1.8,2.1,2.3c-1.4,2.7-1.6,5.6-2,8.5c-0.6,4.4-1.8,8.6-3,12.9c-0.3,1.2-1.3,2.2-2,3.4
		c2.4,2.8,5.6,4.9,7.7,8.5c-0.8,0-1.5,0-2.3,0c0.7,1.3,1.4,2.5,2.1,3.6c3.8,5.7,4.7,11.9,3.2,18.5c-0.7,3.2-1.6,6.5-2.6,9.7
		c-1.5,5-4,10.5-6.5,14c-2.1,3.1-4.6,5.8-8.3,7c-0.9,0.3-1.6,1-2.4,1.5c-1-1.1-2.3-0.9-3.6-0.7c-2.9,0.4-5.7,0.4-8.5-0.5
		c-1.8-0.6-3.4-1.5-5.1-2.3c-0.4,0.6-0.1,1.1,0.1,1.7c1.8,4,3.6,8.1,5.4,12.1c0.1,0.2,0.3,0.4,0.3,0.6c2.3,6.3,5.8,12,9.1,17.8
		c0.5,0.9,1,1.9,1.5,2.8c0.4,0.8,0.6,1.5,0.1,2.4c-0.6,0.9-0.3,1.9-0.1,2.8c1.2,5,1.2,10.1,0.8,15.2c-0.3,4.2-0.8,8.3-1.2,12.4
		C233.5,312.3,233.5,313.4,234.6,314.2L234.6,314.2z M254.6,150.5c-0.1,0.1-0.2,0.1-0.2,0.2c0,0,0,0.1,0,0.2c0-0.1,0.1-0.3,0.1-0.4
		c0.3,0,0.7,0.2,0.4-0.4C254.8,150.2,254.7,150.3,254.6,150.5z M256.8,139.7l0.1-0.1L256.8,139.7
		C256.8,139.8,256.8,139.8,256.8,139.7z M278.3,131.8C278.1,131.7,278.6,132.2,278.3,131.8c-0.6-0.1-1.1-0.4-1.5-0.6
		c-0.2-0.4-0.5-0.7-1.3-0.2c0.6,0,1,0.1,1.3,0.1C276.9,132.1,277.7,131.8,278.3,131.8z M249.4,141.8c1,0,0.9-0.8,1-1.4
		c0-0.1-0.2-0.4-0.4-0.4c-0.2,0-0.5,0.2-0.5,0.3C249.5,140.8,249.6,141.3,249.4,141.8c0,0.3-0.2,0.5-0.2,0.7c0,0.2,0.2,0.3,0.3,0.5
		c0.1-0.2,0.2-0.4,0.2-0.5C249.7,142.2,249.5,142,249.4,141.8z M242.1,182.3c2.3-2.3,2.8-5.4,3.4-8.4c0.7-3.3,0.9-6.5,0.1-9.9
		c-1.2-4.7-2.4-9.4-2.4-14.3c0-0.1-0.1-0.2-0.3-0.5c-0.4,0.3-0.8,0.6-1,0.9c-3,5-6,10-9,15c-0.6,1-0.6,2-0.4,3.1
		c0.3,1.9,0.5,3.8,0.6,5.7c0.1,0.9,0.1,1.9,0.1,2.6C236.4,178.5,239.3,180.4,242.1,182.3z M186.5,508.9c0.5-4,0.9-8,1.4-12
		c0.4-4,1-8,1.3-12c0.3-3.9,1.2-7.8,1-11.9c-1.9,0.7-2.6,2-2.9,3.6c-0.5,2.6-1.1,5.1-1.3,7.7c-0.3,5.9-0.4,11.9,0.5,17.8
		c0.1,0.6,0.2,1.3-0.1,1.7C185.3,505.4,185.8,507.1,186.5,508.9z M227,151.6c1,2.6,1.9,5.2,2.9,8c0.4-0.6,0.8-1,1-1.5
		c1-1.9,1.9-3.8,3-5.6c0.9-1.6,1.8-3,2.7-4.6c0.5-0.8,0.9-1.7,0.2-2.7C232.5,145.6,229.5,148.1,227,151.6z M247,154.4
		c0.5-0.9,1-1.7,1.5-2.5c-0.2-0.3-0.3-0.7-0.5-0.9c-0.4-0.5-1-0.8-1.5-0.4c-0.4,0.3-0.7,1.1-0.6,1.5
		C246,152.9,246.5,153.6,247,154.4z M251.1,151c0.2-0.1,0.4-0.2,0.7-0.3c-0.2-0.8-0.2-1.6-0.5-2.2c-0.2-0.4-0.9-0.6-1.4-0.7
		c-0.4-0.1-0.6,1-0.3,1.5C250,149.9,250.6,150.5,251.1,151z M261.2,129.3c-2.8,1.5-2.8,1.5-3.1,3.2
		C259.5,131.6,260.6,130.6,261.2,129.3z M274.5,123.6c-1.2-0.6-1.8-0.5-2.3,0.1c-0.3,0.4-0.6,1,0.2,1.5
		C273,124.8,273.6,124.3,274.5,123.6z M292.1,127.1c-1.9-0.2-1.9-0.2-1.4,1.7C291.6,128.6,292,127.9,292.1,127.1z M285.4,123.7
		c1.7-1.4,1.7-1.4,0.9-2.4C286.1,121.9,285.9,122.4,285.4,123.7z M256.5,141.5c-0.4,0.2-0.7,0.2-0.8,0.4c-0.2,0.2-0.3,0.6-0.4,0.9
		c0,0.1,0.4,0.4,0.4,0.3c0.3-0.2,0.6-0.4,0.8-0.6C256.6,142.3,256.5,142,256.5,141.5z M286,150.2c0.2-0.1,0.5-0.1,0.5-0.3
		c0.1-0.1-0.1-0.4-0.2-0.6c-0.2,0.1-0.5,0.2-0.7,0.4C285.7,149.9,285.9,150.1,286,150.2z M254.2,141.7c-0.9-0.6-1.5-0.7-1.4,0.6
		C253.3,142.1,253.7,141.9,254.2,141.7z M260.8,138.8c0.1,0,0.2-0.1,0.3-0.1c0.5-0.3,0.9-0.6,0.6-1.3c0-0.1-0.2-0.2-0.2-0.2
		c-0.7,0-0.9,0.6-0.9,1.1C260.6,138.4,260.7,138.6,260.8,138.8z M258.8,124.4c1.3,0.2,1.3,0.2,1.7-1.2
		C259.8,123.7,259.3,124,258.8,124.4z M273.6,130.1c0-0.1-0.1-0.2-0.1-0.3c-0.2-0.1-0.4-0.3-0.6-0.4c-0.1,0.2-0.3,0.5-0.2,0.6
		c0.1,0.2,0.4,0.2,0.6,0.3C273.4,130.3,273.5,130.2,273.6,130.1z M277.9,127c0-0.1-0.1-0.2-0.1-0.3c-0.2,0.1-0.4,0.2-0.5,0.3
		c0,0,0,0.1,0,0.2C277.5,127.2,277.7,127.1,277.9,127z M253.1,123.5c-0.1,0-0.2,0.1-0.3,0.1c0.1,0.1,0.2,0.3,0.4,0.4
		c0.1,0,0.3-0.1,0.4-0.2C253.4,123.7,253.2,123.6,253.1,123.5z M249.6,154.8c0.1-0.1,0.1-0.2,0.2-0.3c-0.2,0-0.3,0-0.5-0.1
		c0,0.2,0.1,0.3,0.1,0.5C249.4,154.9,249.5,154.9,249.6,154.8z M284.1,132.9c-0.2-0.1-0.3-0.1-0.4-0.1c0,0.1,0,0.2,0.1,0.2
		C283.8,133,283.9,133,284.1,132.9z M267.3,121.6c0.1,0,0.2,0.1,0.3,0.1c0,0,0.1-0.1,0.1-0.2c-0.1,0-0.2-0.1-0.3-0.1
		C267.3,121.4,267.3,121.5,267.3,121.6z M232.1,314.1c0,0.1-0.1,0.1-0.1,0.2c0,0.1,0,0.2,0.1,0.3c0-0.1,0.1-0.1,0.1-0.2
		C232.1,314.3,232.1,314.2,232.1,314.1z M247,158c0-0.1,0-0.2-0.1-0.2c-0.1,0-0.2,0-0.3-0.1c0,0.1,0.1,0.2,0.1,0.3
		C246.8,158.1,246.9,158,247,158z M257.9,128.7l-0.2-0.1l0,0.2L257.9,128.7z M253.4,153l0.2,0.1l0-0.2L253.4,153z M275.1,128.7
		l-0.2-0.1l0,0.2L275.1,128.7z"/>
	<path d="M309,242.8c0.1-0.6,0.2-1.1,0.4-1.7c0.7-1.7,1.6-3.4,2.3-5.1c0.4-1,0.9-2,0.9-3c-0.1-3,0.7-5.8,0.7-8.8l-0.1,0.1
		c0.2,0.4,0.6,0.7,0.7,1.1c0.2,3.8,0.6,7.6-0.4,11.4c2.9,4.4,4.8,9.3,6.3,14.3c0.8,2.7,1.7,5.5,2.5,8.2c0.4,1.4,0.8,2.8,0.8,4.2
		c0.1,2.5,1.4,4.2,2.8,6c0.2,0.3,0.6,0.4,0.8,0.7c2.4,2.3,3.9,5.1,3.7,8.6c-0.1,2.6,0.5,4.9,1.9,7.1c1.3,2.1,1.3,4.6,1.5,6.9
		c0.3,3.8,0.2,7.6-0.2,11.4c-0.3,2.6-0.7,5.3-0.2,7.8c1,4.9,1,9.9,2.4,14.7c0.3,1.1,0.4,2.3,0.7,3.5c0.1,0.3,0.3,0.8,0.1,1
		c-0.9,1.9,0,3.7,0.1,5.6c0.2,4.2,0.1,8.3-1.1,12.4c-0.9,3.3-1.6,6.7-1.7,10.2c0,1.7-0.4,3.3-0.6,5c-0.1,0.9-0.2,1.9-0.2,2.8
		c0.1,3.5-0.4,6.9-1,10.3c-0.4,2.3-0.6,4.7-0.2,7.3c1.1,0.7,2,1.8,2.4,3.2c1.1,3.6,2.4,7.2,3.5,10.9c0.8,2.6,1.1,5.4,1,8.1
		c0,1.8,0.1,3.6,0,5.4c-0.3,6.1,1.8,11.4,5.1,16.3c0.9,1.4,1.9,2.7,2.2,4.4c0.2,1.2,0.4,2.3,0.2,3.5c-0.7,3.5-0.7,7.1-0.4,10.7
		c0.2,2.6,0.9,5.1,1.6,7.6c1.3,4.8,2.4,9.7,3,14.7c0.2,1.5,0.1,3.1,0.1,4.6c0,1-0.1,1.9-0.1,2.9c0.1,6.7,0.3,13.3,0.2,20
		c0,3.4-0.5,6.9-0.8,10.3c-0.1,1.8-0.4,3.6-0.4,5.3c0,7,0.1,14.1,0.1,21.1c0,1.7,0.1,3.3-0.4,5c-0.2,0.7-0.1,1.6,0,2.5
		c0.3,2.1,0.6,4.2,0.9,6.4c0.4,0.3,0.9,0.6,1.3,0.9c0,0.4,0.1,0.7,0.1,1.1c-2.2,0.2-4.1,1-6,1.5c-1.6,2.9-3,5.6-4.5,8.2
		c-3.4,0.4-4,0.6-6.7,2.5c-0.9,0.6-1.7,1.3-2.6,1.8c-0.6,0.3-1.3,0.5-1.9,0.7c-1.8-1.7-1.2-4.1-2.5-6.1c-0.3,0.7-0.9,1.3-0.8,1.7
		c0.4,1.7-0.3,3-0.8,4.5c-0.9,2.6-1.6,5.3-1.6,8c0,2.4,0,4.8,0.1,7.1c0.1,1.5-0.3,2.8-1.5,3.8c-0.2,0.1-0.2,0.4-0.2,0.6
		c0.7,0.8,1.3,1.6,2.1,2.6c3,0.4,6,0.8,9.1,1.3c3.1,0.5,6.1-0.4,9.3-0.7c1.5,1.4,3,2.8,4.5,4.2c0.4,0.4,1,0.7,1.5,0.9
		c0.8,0.3,1.6,0.5,2.4,0.7c7.2,1.5,14.2,0.4,21.3-0.8c0.9-0.2,1.8-0.6,2-1.9c-2.9-0.8-5.6,0.4-8.1,1.3c-1-0.9-0.5-1.5,0-2
		c1.4-1.2,3.2-1.6,5-1.7c1.3,0,2.6,0,3.9,0c0.4-1.3,0.4-2.3-0.2-3.5c-3.2-1.9-5.4-5.3-8.7-7.3c-3,1.4-5.9,1.1-8.9,0.7
		c-0.7-0.1-1.2-0.9-1.2-1.6c0-0.7,0.7-1.3,1.5-1.2c1.9,0,3.8,0.1,5.7,0.1c0.7,0,1.3-0.2,2-0.2c0.2-3.5-1.6-5.8-3.5-8.1
		c-0.5-0.6-1.2-0.9-1.9-0.7c-2.2,0.7-4.5,0.4-6.8,0.4c-2.1,0-4,0.4-5.6,1.9c-0.2,0.2-0.6,0.3-0.9,0.4c-1.1-1.1-1.3-1.4-1-2
		c0.4-0.7,0.8-1.5,1.5-2c1-0.8,2.3-1.3,3.6-1.3c1.7,0,3.3,0,5,0c0.8,0,1.6-0.2,2.4-0.3c-0.6-1.6-0.7-1.8-1.5-1.8
		c-1.9,0.1-3.8,0.1-5.7,0.2c-1.9,0.1-3.8,0.6-5.3,1.9c-0.3,0.3-0.8,0.6-1.2,0.7c-0.4,0-0.9-0.2-1.2-0.4c-0.2-0.2-0.3-0.7-0.2-1
		c0.2-0.5,0.5-1.1,0.9-1.5c1.3-1.2,2.9-2.1,4.8-2.2c1.7-0.2,3.3-0.2,5-0.2c0.6,0,1.2,0.2,1.6-0.7c-0.1-0.3-0.1-0.6-0.2-0.9
		c-0.7-2.1-1.9-3.9-3.2-5.5c-0.7-0.8-1.1-1.6-0.7-2.6c2.6,1.6,4.4,4,5.9,6.6c1.6,2.7,3.4,5.2,5.5,7.4c1.3,1.4,2.5,2.9,3.7,4.4
		c1.1,1.4,2,3,2.1,4.8c0,0.2,0.1,0.5,0.1,0.7c0.6,2.6,1.8,4.9,4.2,6.3c1.5,0.9,3,1.9,4.5,2.9c1.4,3.8,1.4,4,1.1,8.5
		c-0.9,0.8-1.8,1.7-2.9,2.4c-1,0.6-2.1,1.2-3.2,1.4c-2.2,0.5-4.5,0.7-6.7,1.1c-4.4,0.7-8.8,0.3-13.2-0.2c-3.5-0.4-6.6-2-9.6-3.8
		c-0.8-0.5-1.6-1-2.3-1.5c-5.9,0.8-11.3-0.3-16.6-2.2c-1.5-0.5-2.8-1.3-3.8-2.6c-0.5-0.7-0.8-1.7-0.2-2.3c2.2-2.2,1.9-5,2-7.7
		c0.1-2.9-0.3-5.7,0.6-8.5c0.4-1.5,0.9-3,1.3-4.4c0.3-1,0.7-2,0.8-3.1c0.4-2.8,1.5-5,4.5-5.7c0.1-0.6,0.2-1.1,0.2-1.6
		c-0.3-4.6-0.5-9.3-1.2-13.8c-0.6-3.9-1.1-7.8-1.5-11.7c-0.5-5.4-2-10.5-3.5-15.7c-0.3-0.9-0.9-1.7-1.3-2.5
		c-1.2-2.4-2.5-4.9-3.7-7.3c-2.3-5.1-3.3-10.4-3.3-16c0-3.1-0.2-6.2-0.4-9.3c-0.2-3.6,0.3-7.2,1-10.6c0.9-4.6,1.4-9.2,0.4-14.2
		c-2.1-1.4-3.4-3.8-4.6-6.3c-1.4-3-3.8-4.9-6.5-6.4c-1.5-0.8-2.8-1.7-3.9-3c-3.1-3.4-6.2-6.9-9.3-10.4c-0.9-1.1-1.9-2.1-2.8-3.2
		c-2.5,0.6-4.3,2.4-6.5,3.2c-0.2-0.1-0.5-0.2-0.6-0.3c-0.4-0.5-0.1-1,0.2-1.2c2.4-1.8,4.9-3.4,7.8-4.4c5.5-2,11.2-3.2,17-3.8
		c8.6-1,17.3-1.7,26-1.5c0.7,0,1.4-0.1,2-0.2c1.5-7.1-0.2-17.8-3.3-24.6c-0.9-0.4-2.1,0.2-3-0.7c-0.9-0.9-1.4-1.9-1.6-3.1
		c-0.3-1.9-0.7-3.7-1-5.6c-1.1,1.8-1.2,1.8-1.2,4c0,1.7-0.2,3.3-1.2,5c-0.6,0.1-1.3,0.2-2,0.2c-1.9-0.1-2.5-0.8-2.4-2.7
		c0.2-4.6,0.6-9.2,0.9-14.1c-0.5,0.3-0.9,0.5-1.1,0.8c-1.2,1.8-2.5,3.5-3.3,5.5c-0.6,1.4-1.7,2.2-2.8,3.3c0-0.4-0.1-0.9,0-1.2
		c1.3-2.3,2.5-4.6,4.1-6.7c1.3-1.8,2.3-3.6,3.1-5.6c0.7-1.8,1.2-3.8,2.4-5.7c0.3,0.5,0.7,0.9,0.7,1c-2,5.2-2,10.7-2.5,16.2
		c-0.2,2.1,0.1,4.3,0.2,6.4c0.1,0.9,0.6,1.1,2.3,1.1c0.3-1.7,0.7-3.4,0.8-5.2c0.1-1.5,0.3-2.8,0.9-4.2c1.1-2.8,1.7-5.7,1.9-8.7
		c0.1-0.7,0.3-1.3,0.6-2c0.5,2.2,0.6,4.5,0.1,6.6c-0.4,1.7-0.3,3.3-0.1,5c0.1,1.5,0.4,3.1,0.4,4.6c0.1,1.7,0.8,2.9,2.5,4
		c0-1,0.1-1.7,0-2.3c-0.3-2.7-0.4-5.4,0-8.2c0.4-2.3,0.2-4.8,0.3-7.1c0-0.7,0-1.7,0.4-2c1.4-1.1,1.1-2.5,1.1-3.9c0-1,0-1.9-0.1-2.9
		c-0.2-2.6,0.1-5.2,0.6-7.8c0.7-4.1,1.4-8.2,1.9-12.3c0.2-1.6,0.3-3.3,0.1-5c-0.3-3.1-0.7-6.1-1.1-9.2c-0.4-3.2-0.7-6.4-1.4-9.5
		c-1.3-5.7-1-11.3-0.7-17.1c0.1-2.9,0-5.7,0.1-8.6c0.1-2.7-0.7-5.2-1.9-7.5c-0.9-1.6-1.3-3.3-1.3-5.1c0-0.8-0.3-1.6-0.3-2.5
		c-0.3-2.6-2.1-4.2-3.7-6c-0.3-0.4-1.1-0.4-1.7-0.7c-1.1-2.2-1.8-4.4-1.9-6.8c-0.1-1.3-0.4-2.6-0.8-3.8c-1-3.2-1.9-6.4-3-9.5
		c-0.8-2.5-1.8-4.9-2.8-7.3c-0.4-1.1-1.1-2.1-1.8-3.4C311.8,240.9,310.8,242.4,309,242.8L309,242.8z M291.9,421.1
		c0.5,0.7,0.8,1.2,1.2,1.6c2.3,2.6,4.7,5.1,6.9,7.7c2.2,2.5,4.7,4.8,7.4,6.8c2.4,1.8,4.7,3.7,7.1,5.6c-0.4,2.3,0.8,3.9,2,5.5
		c0.1,0.2,0.3,0.4,0.5,0.5c1.8,2.3,2.9,4.8,2.8,7.8c-0.1,2.9-0.1,5.7-0.8,8.5c-1.5,5.5-1.8,11-1.6,16.7c0.1,1.7,0,3.3,0,5
		c-0.1,3.5,0.5,6.9,2,10.1c1.6,3.4,3.3,6.9,5,10.3c0.7,1.4,1.4,2.8,1.8,4.3c0.9,3.9,1.8,7.9,3.1,11.7c0.6,1.6,0.9,3.2,1.2,4.9
		c1.2,6.7,1.8,13.5,2.2,20.2c0.1,2.5,0.4,5-0.7,7.5c1.1,0.7,2.1,1.3,3.3,2.1c-0.8,0.4-1.3,0.8-1.8,0.8c-0.8,0-1.6-0.2-2.5-0.2
		c-0.2,0-0.4,0.2-0.6,0.4c0,1-0.3,2.1,1,2.8c2.5-1.7,4.8-3.6,7.8-4.3c0.9-0.2,1.4-0.9,1.7-1.7c0.2-0.6,0.3-1.2,0.4-1.7
		c0.4-2.4,1.7-3.9,4.2-4.2c0.9-0.1,1.9-0.2,2.5-1.2c-0.6-4.2-0.7-8.5-0.6-12.8c0.1-3.6,0.2-7.1,0.3-10.7c0-4.3-0.1-8.6,0-12.9
		c0.1-3.3,0.4-6.7,0.4-10c0.2-8.8,0.3-17.6,0.3-26.5c0-4.9-0.6-9.8-1.6-14.5c-0.7-3.3-0.9-6.9-2.7-9.9c-0.2-0.4-0.2-0.9-0.2-1.4
		c0.1-4.7-0.8-9.5,0.8-14.2c0.1-0.4,0.2-1,0-1.4c-0.2-0.5-0.7-1.3-1-1.3c-1.5,0.1-1.8-0.9-2.3-1.9c-1.7-3.4-2.9-7.1-3.9-10.7
		c-0.3-1.2-0.4-2.6-1.4-3.6c-6.7,0-13.4,0-20,0.6c-5.9,0.5-11.9,1-17.7,2.2C296.3,419.9,294.3,420.5,291.9,421.1z M329,557.5
		c0.2-0.1,0.5-0.1,0.5-0.3c0.1-0.1,0-0.4-0.1-0.6c-0.2,0.1-0.5,0.3-0.7,0.4C328.8,557.1,328.9,557.3,329,557.5z"/>
	<path d="M717.6,559.2c-1.2,0.4-1.8,1.2-1.7,2.4c0.2,1.3-0.2,2.3-0.6,3.5c-1.7,4.5-2.3,9.2-1.9,14.1c0,0.5,0.1,0.9,0.1,1.4
		c0.2,1.8-0.3,3.3-1.8,4.5c0.9,2.2,2.5,3.3,4.8,3.5c3,0.2,5.9,0.8,8.9,0.9c1.6,0.1,3.3-0.3,4.9-0.6c1-0.2,1.9-0.1,2.7,0.6
		c1,0.9,2.2,1.6,2.9,2.6c0.9,1.1,2,1.6,3.3,2c2.7,0.7,5.4,0.8,8.1,1c4.6,0.3,9-0.6,13.5-1.2c1.4-0.2,2.8-0.6,3.3-2.3
		c-3-0.6-5.6,0.5-8.2,1.5c-1-0.6-0.7-1.3-0.2-1.8c1.7-1.6,3.9-1.7,6-1.8c0.9,0,1.9,0.1,2.9,0.2c0.7-1.5,0.6-2.8-0.6-3.9
		c-2.7-2.5-5.5-4.8-8.3-7.2c-2.9,1.6-5.8,1.4-8.7,0.9c-0.2,0-0.4-0.2-0.6-0.3c-0.5-0.3-1-0.9-0.7-1.5c0.2-0.5,0.7-1,1.2-1.2
		c0.5-0.2,1.2,0,1.8,0c2.1,0.1,4.2,0.5,6.3,0.1c-0.1-3.7-1.8-6.5-4.3-8.9c-0.5,0-1-0.2-1.4-0.1c-2,0.6-4,0.5-6,0.5
		c-3.9,0-3.9,0-6.9,2.2c-0.9,0-1.2-0.6-1.3-1.4c-0.1-1.2,0.5-2,1.5-2.7c1.3-0.9,2.8-1.3,4.4-1.4c1.5-0.1,3.1,0.1,4.6,0.1
		c0.8,0,1.7,0.1,2.3-0.8c-0.3-0.4-0.5-0.8-0.9-1.3c-1.3,0.1-2.5,0.2-3.8,0.2c-1.2,0.1-2.4,0.1-3.6,0.1c-1.4,0-2.6,0.5-3.7,1.2
		c-0.7,0.5-1.3,1-1.9,1.4c-0.8,0.1-1.4-0.2-1.5-0.8c-0.1-0.5,0-1.2,0.4-1.6c1.7-2,4.1-2.9,6.6-3c1.7-0.1,3.3,0,5.2,0
		c-0.3-3.7-3-6-4.5-8.7c0.7-0.8,1.3-0.5,1.7-0.1c1.5,1.8,3.2,3.5,4.5,5.5c1.7,2.8,3.5,5.4,5.8,7.7c1.2,1.2,2.2,2.5,3.2,3.8
		c1.2,1.5,2.1,3.2,2.4,5.1c0.6,3.5,2.3,6.2,5.4,7.9c1.1,0.6,2.2,1.4,3.5,2.1c1.1,2.7,1.7,5.6,1.2,8.5c-1.1,0.9-2,1.8-3.1,2.6
		c-0.8,0.5-1.7,1-2.6,1.2c-4.7,0.7-9.4,1.9-14.2,1.5c-1.4-0.1-2.9-0.1-4.3-0.2c-4-0.3-7.7-1.7-11-3.8c-0.9-0.6-1.8-1.1-2.7-1.7
		c-5,0.6-10,0-14.8-1.5c-1.2-0.4-2.5-0.9-3.6-1.5c-1.3-0.7-2.4-1.6-2.6-3.1c0.1-0.2,0-0.4,0.1-0.5c1.9-2.1,2.4-4.6,2.3-7.3
		c0-1.2,0-2.4,0-3.6c-0.1-2.6,0.2-5.2,1-7.8c0.7-2.4,1.4-4.8,2-7.2c0.6-2.3,2.2-3.6,4.4-4.4c0-0.8,0.1-1.5,0-2.2
		c-0.6-3.5-0.4-7.1-0.9-10.6c-0.5-3.5-1.1-7.1-1.6-10.6c-0.1-0.6-0.2-1.2-0.2-1.8c0-5.7-1.7-11-3.2-16.4c-0.3-1.1-0.9-2.2-1.5-3.2
		c-1.2-2.5-2.6-4.8-3.7-7.3c-2.3-4.9-3.3-10.2-3.2-15.6c0-3.3,0.1-6.6-0.5-10c-0.6-3.4,0.4-6.9,1-10.3c0.6-3.3,1.2-6.6,1-9.9
		c-0.1-1.4-0.2-2.8-0.4-4.4c-2-1.2-3.2-3.2-4.2-5.4c-1.7-3.6-4.4-6.1-7.9-7.9c-1.1-0.6-2.1-1.5-3-2.5c-3.2-3.5-6.3-7.1-9.5-10.7
		c-0.9-1-1.5-2.2-2.7-2.7c-2.7,0.1-4.2,2.8-6.8,2.8c-0.1,0-0.2-0.1-0.5-0.4c0.4-0.5,0.7-1.2,1.2-1.5c3.1-2.2,6.6-3.9,10.3-4.9
		c5.3-1.5,10.7-2.5,16.1-3c4.4-0.4,8.8-0.9,13.2-1.1c3-0.2,6-0.1,8.9-0.2c1.2,0,2.3-0.1,3.5-0.1c1.6-5.6,0.3-16.5-3-24.6
		c-0.9-0.5-2,0.5-2.9-0.5c-0.8-0.9-1.5-1.8-1.7-3.1c-0.3-1.5-0.6-3-0.9-4.6c-0.1-0.4-0.4-0.8-0.9-1.6c-0.5,3.4-0.9,6.2-1.3,9
		c-0.8,0.2-1.5,0.6-2.2,0.6c-2.1,0-2.8-0.7-2.7-2.8c0.2-3.6,0.5-7.1,0.7-10.7c0.1-1,0-2,0-3.4c-2.2,1.7-3.1,3.7-4.2,5.7
		c-0.3,0.6-0.5,1.3-0.9,1.9c-0.5,0.7-1.1,1.3-1.6,1.9c-0.4-0.1-0.8-0.1-1.1-0.2l0.1,0.1c1.7-3.2,3.3-6.3,5.6-9.1
		c0.7-0.8,1.1-1.8,1.5-2.8c0.8-2,1.5-4,2.3-6c0.2-0.4,0.5-0.7,1.2-1.4c0,1,0.1,1.5,0,1.9c-1.6,3.4-1.6,7.2-2,10.8
		c-0.2,1.8-0.4,3.5-0.5,5.3c-0.2,2.3-0.1,4.5,0.7,6.6c0.7,0.6,1.4,0.6,2.2,0c0.2-1.4,0.3-2.9,0.5-4.4c0.2-1.4,0.3-2.9,0.8-4.2
		c1.2-3.4,2.1-6.8,2-10.4c0-0.2,0.1-0.4,0.4-1c0.2,0.7,0.4,1.2,0.4,1.6c-0.1,2.1-0.2,4.3-0.3,6.4c0,1.1,0,2.1,0.1,3.2
		c0.2,2,0.4,4,0.6,6c0.1,1.4,0.6,2.5,2.3,3c0-0.7,0.1-1.3,0.1-1.9c0-1.3-0.2-2.6-0.1-3.9c0.2-4.1,0.4-8.3,0.7-12.4
		c0-0.8,0.4-1.4,1.3-1.4c0.1,0.2,0.4,0.4,0.4,0.6c0,2.9,0,5.7-0.6,8.5c-0.5,2.6-0.9,5.2-0.3,8c0.4,0.4,1.1,1,1.5,1.6
		c0.4,0.6,0.6,1.3,0.8,2c1.1,3.3,2.2,6.5,3.2,9.8c0.9,2.9,1.1,5.8,1.1,8.8c0,1.7,0.1,3.3,0,5c-0.4,6.2,1.8,11.7,5.2,16.7
		c2.1,2.9,2.9,5.9,2.2,9.4c-0.6,3.1-0.6,6.2-0.3,9.3c0.2,2.2,0.9,4.4,1.5,6.6c1.3,4.5,2.3,9,3,13.6c0.2,1.5,0.4,3.1,0.5,4.6
		c0.1,7,0.1,14.1,0.1,21.1c0,4.8-0.3,9.5-0.7,14.3c-0.4,4.4-0.4,8.8-0.4,13.2c0,4.2,0.2,8.3,0.2,12.5c0,1.9,0.1,3.8-0.5,5.7
		c-0.3,0.8-0.1,1.9,0,2.8c0.2,1.9,0.5,3.8,0.9,5.9c0.4,0.3,1,0.8,1.6,1.3c-1.8,1.4-3.9,1.6-6,2.2c-1.5,2.7-3,5.5-4.6,8.4
		c-1.3,0.4-2.8-0.1-4,0.8c-1.1,0.8-2.2,1.4-3.3,2.2c-0.8,0.5-1.5,1.1-2.4,1.6c-0.5,0.3-1.1,0.3-1.8,0.4c-1.1-2.2-1.9-4.2-1.3-6.6
		c0.3-0.3,0.7-0.6,1-0.9c0,0,0-0.2-0.1-0.3c-0.2,0-0.6-0.1-0.6-0.1C717.7,558.3,717.7,558.7,717.6,559.2z M723.9,559.7
		c1.9-0.1,3.5-1.2,5.4-1.8c0.3-1,0.7-2,0.9-3.1c0.4-2.3,1.7-3.6,3.9-4c0.9-0.2,1.8-0.5,2.6-0.8c0-0.7,0.1-1.2,0-1.7
		c-0.6-4-0.7-8.1-0.5-12.1c0.2-5.4,0.4-10.7,0.5-16.1c0.1-2.7-0.1-5.5-0.1-8.2c0.2-7.4,0.4-14.8,0.6-22.2c0.2-8.5,0.5-16.9-1.1-25.3
		c-0.8-4.2-1-8.5-3.2-12.3c-0.2-0.3-0.2-0.7-0.2-1c0-0.7-0.1-1.4-0.1-2.1c0.1-4.3-0.5-8.6,1.1-12.7c0.4-1.1-0.3-1.8-1.5-2.4
		c-0.3-0.1-0.7-0.2-1-0.3c-0.2-0.4-0.5-0.8-0.7-1.3c-1.9-3.8-3.2-7.9-4.3-12.1c-0.2-0.9-0.3-1.9-1.1-2.4c-2.6,0-4.9,0-7.3,0
		c-8.5-0.1-16.9,0.8-25.3,1.8c-3.3,0.4-6.5,1.3-9.8,2c-0.5,0.1-1,0.5-1.8,0.8c2,2.3,4,4.4,5.8,6.5c3.7,4.4,7.9,8.2,12.6,11.5
		c1.4,1,2.7,2.3,4.1,3.5c-0.5,1.7,0.2,2.9,1,4.1c0.4,0.6,0.9,1.1,1.3,1.7c1.9,2.5,3.1,5.2,3,8.5c-0.1,3.7-0.9,7.3-1.5,11
		c-0.5,2.9-0.9,5.9-1.1,8.8c-0.2,3.2,0,6.4,0,9.7c0,3.4,0.5,6.7,1.9,9.7c1.7,3.7,3.4,7.3,5.2,11c0.9,1.8,1.7,3.6,2,5.7
		c0.5,2.9,1.3,5.8,2.3,8.6c0.9,2.8,1.7,5.7,2.1,8.7c0.6,5.1,1,10.2,1.6,15.3c0.4,3.4,0.8,6.8-0.4,10.3c0.8,0.5,1.6,0.8,2.2,1.3
		C723.5,558.6,723.6,559.3,723.9,559.7c-1.5,0.2-3.1-0.3-4.9,0.3c0.4,1,0.7,1.8,1,2.9C721.5,561.8,723.1,561.3,723.9,559.7z"/>
	<path d="M630.9,318.6c1.7-0.2,3.2,0.4,4.3,1.4c2.5,2.1,5.4,3,8.3,4c3.4,1.1,6.8,2,10.5,3.1c0.3-1.2-0.2-2.1-0.3-3.1
		c-0.1-1.1-0.4-2.1-0.7-3.1c-0.3-0.9-0.6-1.8-0.9-2.7c-0.3-0.9-0.9-1.9-0.4-3.3c1.8,1.3,2.3,3,2.9,4.6c1.1,3.2,1.3,5,0.8,7.5
		c0.6,0.3,1.2,0.7,1.8,0.8c4.5,0.5,9,1.1,13.5,1.4c2.3,0.1,4.8-0.3,7.1-0.7c2.8-0.5,5.6-1,8.6-0.8c1.3-1.7,1.3-3.8,0.9-5.5
		c-0.5-2.2-0.2-4.3,0.3-6.3c0.5-2.2,0.7-4.5,0.9-6.7c0.4-4.4,1.1-8.7,1.6-13.1c0.1-0.6,0.2-1.2,0.3-1.8c1.4-6,2.8-12.1,4.3-18.1
		c0.4-1.5,0.4-3,0.3-4.6c-0.3-4.4-0.3-8.8-0.5-13.2c0-0.4-0.1-0.7,0.1-1.1c1-2.7,0.6-5.3-0.6-7.9c-0.4-0.8-0.1-1.7,0.6-2.3
		c3.6-3.1,4.9-7.5,6.6-11.7c0.8-2,0.8-9.5,0.3-11.6c-0.2-0.8-0.3-1.6-0.4-2.5l-0.1,0.1c0.2,0.2,0.6,0.4,0.7,0.7
		c1.5,5.1,1.9,10.3,0.7,15.7c0.4,0.6,0.8,1.3,1.2,2c1.9,3.3,3.4,6.8,4.5,10.5c1.1,3.5,2.2,7.1,3.2,10.6c0.3,1.1,0.6,2.3,0.6,3.5
		c0.1,2.4,1.4,4.3,2.8,6c0.2,0.3,0.6,0.4,0.8,0.7c2.2,2.1,3.7,4.6,3.8,7.8c0,1,0.2,1.9,0.2,2.9c0,1.5,0.3,2.9,1.1,4.1
		c1.4,2,1.8,4.2,1.9,6.4c0.2,3.1,0.2,6.2,0.2,9.3c0,2.7-0.2,5.5-0.3,8.2c-0.1,1.9-0.4,3.8,0.7,5.6c0.2,0.3,0.1,0.7,0.1,1.1
		c-0.1,4.5,1.1,8.7,1.9,13.1c0.3,1.4,0.7,2.8,0.1,4.2c-0.2,0.5,0,1.2,0.1,1.7c0.7,4,0.3,8.1,0,12.1c-0.1,1.5-0.8,3-1.2,4.5
		c-0.9,3.7-1.2,7.5-1.5,11.3c-0.1,1.3-0.2,2.6-0.5,3.9c-0.5-4.3-0.9-8.5,0.1-12.8c2.1-9.4,2.6-18.8,0.5-28.3
		c-0.9-4.2-1.3-8.5-2-12.7c-0.5-3-0.3-6.2,0-9.3c0.4-4.2,0.4-8.3,0.2-12.5c-0.1-2.3-1-4.4-2-6.4c-0.8-1.6-1.4-3.3-1.3-5.1
		c0.2-3.3-1.6-5.7-3.6-7.9c-0.5-0.6-1.4-0.8-2.1-1.2c-1-2.1-1.6-4.2-1.7-6.5c-0.1-0.9-0.2-1.9-0.5-2.8c-1.4-4.4-2.8-8.9-4.3-13.3
		c-0.8-2.2-1.8-4.4-2.8-6.6c-0.2-0.4-0.5-0.7-1-1.4c-0.8,1.2-1.3,2.5-2.7,2.8c-1.9,2.8-4.3,5.4-3.4,9.3c0.5,2.3,0.5,4.7,0.6,7.1
		c0.2,3.9,0.4,7.8,0.6,11.8c0.1,2,0.3,3.9-0.9,5.8c-0.9,1.4-1,3.4-1.2,5.2c-0.1,0.6,0.2,1.4,0.6,2c0.8,1.2,1.7,2.3,2.6,3.4
		c0.4,0.5,0.7,1.1,1.1,1.6c-0.5,0.7-1,0.6-1.3,0.3c-1.1-1.1-2.1-2.3-3.1-3.4c-0.8,0.2-0.7,0.9-0.8,1.4c-0.6,2.4-1.2,4.8-1.8,7.3
		c-0.2,1-0.4,2.1-0.5,3.2c-0.4,4.5-0.7,9-1,13.5c-0.1,1.8-0.1,3.5-0.8,5.2c-0.6,1.3-0.2,3-0.2,4.6c0,1.8-0.1,3.5-0.1,5.8
		c0.2,0.4,0.9,1.1,1.2,1.9c0.3,0.9,0.3,1.9,0.3,2.5c1.9,1,3.6,1.8,5.3,2.7c0.8,0.4,1.3,1.1,1.4,2c0.1,1.7,0.6,3.3,1.3,4.8
		c0.6,1.4,1.3,2.8,1.9,4.3c3.7-2.2,7.8-3.2,11.2-5.9c0.1-2.2-0.2-4.3-1.2-6.2c-2-4-4-8.1-6-12.2c-0.2-0.4-0.6-0.9-0.6-1.3
		c0-3.4-2.1-6-3.1-9c-0.3-0.9-0.7-1.8-0.9-2.7c-0.3-1.4-0.6-2.8-0.8-4.2c-0.4-2.5-0.7-4.9-1-7.4c-0.2-1.4-0.3-2.8-0.3-4.3
		c0-0.4,0.2-0.8,0.5-1.2c0.6,3.4,1.8,6.7,2,10.1c0,0.4,0.2,0.7,0.1,1.1c-0.8,2.8,0.4,5.1,1.5,7.5c1.4,3.2,2.9,6.3,4.3,9.4
		c0.5,1.2,1.3,2.3,1.2,3.7c0,0.4,0.2,0.9,0.4,1.3c1.3,2.6,2.6,5.1,3.9,7.7c0.4,0.9,1.1,0.6,1.9,0c0.3,2.5,0.1,4.7,0.1,7.1
		c-0.9,1-1.7,2-2.7,2.9c-0.5,0.5-1.1,1.1-1.8,1.1c-1.7,0.2-3.1,1.2-4.6,1.8c-1.3,0.4-2.1,1.4-3,2.3c-1.9,1.8-3.9,3.8-6.6,4.5
		l0.1,0.1c0.3-0.5,0.5-1.1,0.9-1.4c1.1-0.9,2.4-1.6,3.1-3c-2.3-3.2-3.5-6.9-3.6-11.1c-1.4-0.7-2.9-1.4-4-2
		c-3.8,0.6-7.2,1.7-10.7,1.7l0.1,0.1c0.9-0.6,1.8-1.1,2.7-1.7c0-1.4,0-2.8,0-4.3c-1.3-0.8-2.7-0.4-4,0c-4.8,1.3-9.6,1.2-14.5,0.6
		c-1.6-0.2-3.3-0.3-5.1-0.5c-0.3,1.2-0.6,2.2-1.1,4.1c-0.2-2-0.3-3.1-0.4-4.4c-0.8-0.1-1.5-0.2-2.3-0.4c-0.3,0.6-0.6,1.2-0.8,1.8
		c-1.2-0.4-0.1-1.5-0.7-2.1c-1.8-1-1.3,1.2-2.2,1.5c-0.1-0.7-0.2-1.4-0.3-2.3c-3.9-1.3-8-2.6-11.9-3.9c-1.3,1.2-0.3,2.7-1.2,4
		c-0.8-1.4,0-3-0.7-4.3c-0.5,0.5-1,0.9-1.6,1.5c-0.2-1.1-0.3-1.9-0.4-2.7c-1.5-1.5-3-3-5.1-3.6C631.1,319.1,631,318.8,630.9,318.6
		L630.9,318.6z M685.7,328.9c-1.2,2.8-1.1,4.1-0.1,5.2C686.2,332.6,686,331.1,685.7,328.9z M687.8,333.9c0.4-0.4,1-0.7,1-1
		c0-1.4,0.5-3-1.3-4.2C687.1,330.5,687,332.1,687.8,333.9z"/>
	<path d="M241.1,317.9c-0.9-0.9-2-1.2-3.4-1.5c0,0.5-0.1,0.9,0,1.3c0.1,0.6,0.4,1.1,0.5,1.7c0.1,0.5,0,0.9-0.1,1.4
		c-0.8,0.4-0.5-0.5-1.1-0.6c-0.3,0.2-0.8,0.6-1.4,1.1c0.1-1.3,0.2-2.3,0.3-3.5c-0.4,0.3-0.7,0.5-1,0.7c-0.8-0.7-0.5-1.5-0.1-2.2
		c0.4,0,0.9,0,1.4,0c0-0.4,0-0.9,0-1.3L236,315c3.2,1.2,6.5,2.3,9.7,3.5c0.7,0.3,1.3,1.1,2,1.4c1.8,0.9,3.6,1.8,5.5,2.4
		c3.5,1.2,7.1,2.2,10.6,3.2c0.3,0.1,0.7,0,1.2,0c0.4-4.1-1.9-7.6-2.7-11.8c2.1,0.8,2.5,2.2,3,3.5c1,2.8,2.1,5.6,1.2,8.8
		c3.7,1.1,7.5,1.4,11.2,1.7c4.2,0.3,8.3,0.3,12.4-0.7c2.4-0.6,4.9-0.7,7.6-1c0.9-1.7,0.7-3.8,0.5-5.8c-0.2-2.2,0-4.3,0.5-6.4
		c0.5-2.2,0.9-4.4,0.9-6.7c0-1.5,0.3-3.1,0.5-4.6c0.3-2.5,0.6-5,0.9-7.4c0.1-0.5,0.1-1,0.2-1.4c1.4-6.1,2.8-12.3,4.3-18.4
		c0.4-1.5,0.6-3,0.5-4.6c-0.2-4-0.5-8.1-0.6-12.1c-0.1-1.3,0.1-2.6,0.4-3.9c0.3-1.7,0.2-3.5,0-5.3c0-0.6-0.7-1.2-1-1.7
		c0-1.4,1.1-2.1,2-2.8c0.8-0.7,1-1.9,2.2-2.2l-0.1-0.1c0.3,1.4-0.7,2.2-1.3,3.2c-0.7,1.2-1.1,2.3-0.9,3.7c0.2,1.9,0.3,3.8,0.4,5.7
		c0.1,1.7,0.3,3.3,0.3,5c0.1,3.7,0,7.4,0.6,11c0.2,1.5,0.6,3.1-0.9,4.3c-0.5,2.1-1.1,4.1-1.6,6.1c0.7,1.8,1.9,3.1,3.1,4.5
		c0.9,1,1.2,2.1,1.4,3.5c0.3,2.7,1,5.3,1.5,8c0.2,1.4,0.5,2.9,0.3,4.2c-0.3,1.6,0,3.1,0.6,4.5c1.6,3.6,3.2,7.2,4.8,10.7
		c0.7,1.6,1.8,3,1.7,5c0,0.8,0.5,1.6,0.9,2.3c1.2,2.3,2.4,4.6,3.6,6.8c0.6-0.1,0.9-0.2,1.4-0.4c0.8,2.2,0.3,4.5,0.4,6.8
		c-0.8,0.9-1.6,1.8-2.4,2.7c-0.8,0.9-1.8,1.4-3,1.7c-1.7,0.5-3.3,1.3-4.9,2c-0.4,0.2-0.9,0.5-1.1,0.9c-1.3,2.3-3.8,3.1-5.6,4.7
		c-0.3,0.3-0.9,0.2-1.3,0.3l0.1,0.1c-0.1-0.9,0.6-1.1,1.1-1.5c0.9-0.8,2.1-1.4,2.4-2.8l0.1-0.2l0,0.3c-2.2-2.8-3.2-6-3.6-9.5
		c-0.1-0.5-0.1-0.9-0.1-1.5c-1.1-0.6-2.1-1.1-3.2-1.6c-0.7-0.3-1.2-0.2-2,0c-1.7,0.5-3.5,0.7-5.2,1c-1,0.1-2.1,0-3.8,0
		c1.2-0.5,1.9-0.8,2.5-1c0-1.6,0-3.1,0-4.8c-1.7-0.1-3.4,0.2-5.2,0.4c-0.2,1-0.3,1.9-0.6,3.2c-0.3-1.1-0.5-1.8-0.7-2.6
		c-1.5-0.3-3,0-4.5,0.4c-0.5,1.2-0.4,2.3-0.1,3.3c1.1,1.2,2.5-0.5,3.7,0.9c0.7,0.9,2.6,0,3.7,1.3c-1.3,0-2.3,0-3.3,0
		c-0.8,0.7-0.4,1.5-0.2,2.3c0.5,3.3,0.7,6.6-0.3,9.9c-0.1,0.3-0.3,0.5-0.6,1.1c-0.8-1.6,0-3-0.1-4.3c-0.1-1.5,0.1-3.1,0-4.6
		c-0.1-1.4-0.3-2.8-0.5-4.2c-2.9-0.9-5.8-0.6-8.7-2.2c2-1,3.5,0.2,5,0c0.6-1.4,0.6-1.4,0.3-3.5c-3.7-0.3-7.5-0.6-11.3-0.9
		c-1.1,0.8-0.2,2.2-0.9,3.4c-0.9-1-0.1-2.3-0.9-3.5c-0.6-0.2-1.5-0.5-2.5-0.8c-0.3,0.8-0.5,1.5-0.7,2.2c-0.2-0.1-0.4-0.1-0.4-0.2
		c-0.1-0.5,0-1-0.1-1.4c-0.1-0.4-0.5-0.7-1.1-1.3c-0.3,1-0.5,1.6-0.7,2.3c-0.8,0.1-0.8-0.1-0.6-2.1c-3.9-1.7-8.2-2.7-12.3-4.2
		c-0.8,1.1-0.4,2.2-0.5,3.2c-0.1,0.6-0.1,1.2-0.7,1.5l0.1,0.1c-0.3-1.7-0.1-3.5-0.4-5.1c-1.2-0.2-0.8,0.9-1.4,1.1
		c-0.4,0.1-0.5-0.1-0.8-2.1C245.9,319.8,243.9,318.1,241.1,317.9L241.1,317.9z M323.2,338.2c-0.3-1.6-0.4-3-0.8-4.4
		c-0.3-1-0.9-2-1.3-2.9c-1.8-3.7-3.7-7.5-5.5-11.2c-0.3-0.6-0.7-1.4-0.6-2c0.2-1.1-0.3-1.8-0.7-2.7c-0.9-2.1-1.7-4.2-2.6-6.3
		c-0.9-2.3-1.6-4.7-1.5-7.3c0.1-1.2-0.1-2.4-0.4-3.5c-0.6-2.9-1.2-5.8-1-8.6c-0.7-0.8-1.2-1.5-1.7-2.1c-0.6-0.6-0.9-1.7-2.1-1.9
		c-0.8,3-1.5,6-2.2,8.9c-0.2,0.7-0.3,1.4-0.3,2.1c-0.4,5.2-0.7,10.4-1,15.6c-0.1,0.8,0.1,1.8-0.4,2.4c-0.9,1.4-0.7,3-0.8,4.5
		c-0.1,2.4-0.1,4.7-0.1,7.4c0.2,0.5,1.4,0.8,1.3,1.9c0,0.9,0.2,1.8,0.3,2.5c1.7,0.8,3.1,1.4,4.5,2c1.3,0.6,1.9,1.6,2.1,3.1
		c0.5,3.1,1.8,5.8,3.3,8.4C315.6,342.1,319.7,341.1,323.2,338.2z M298.6,332.8c1.5-0.6,1.6-0.6,1.6-1c-0.2-1.2-0.4-2.3-0.6-3.4
		c0-0.2-0.6-0.3-1.2-0.5C298.3,329.5,298.1,331,298.6,332.8z M296.2,332.7c1.3-2.1,1.3-2.5,0.6-4.1c0-0.1-0.4,0-0.6,0
		C296.2,329.9,296.2,331.3,296.2,332.7z"/>
	<path d="M675.2,390.2c-0.7-1.8-2.4-2.7-3.8-4.1c-1.9,1.9-3.4,3.8-4.9,6c1.9,4,4.8,7,8.2,9.4c3.3,2.3,6.8,4.2,10.7,6.6
		c-4.6-0.7-8-2.8-11.3-5.2c-3.3-2.4-5.8-5.6-8.1-8.9c-2.4,1.5-3,2.2-5.1,5.9c0.1,0.3,0.2,0.8,0.5,1.2c2.6,4.1,4.7,8.6,6.6,13.1
		c1,2.3,2,4.6,3,6.9c0.3,0.6,0.5,1.3,0.6,2c0,0.2-0.3,0.6-0.5,0.8c-0.1,0.1-0.5,0.1-0.7-0.1c-0.6-0.6-1.2-1.2-1.5-1.9
		c-1.1-2.1-2-4.3-3-6.5c-1.4-3-2.8-6.1-4.2-9.1c-0.5-1.1-1.2-2-1.7-3c-0.8-0.1-1,0.3-1.1,0.8c-0.4,1-0.8,2-1.3,2.9
		c-4.1,7.7-7.3,15.8-10.1,24c-1.1,3.1-2.1,6.3-2.4,9.7c-0.1,0.8-0.1,1.7-1.1,2.2c-0.6-3.4,0.1-6.5,1-9.6c2.3-8.2,5.5-16,9.2-23.6
		c1.5-3,2.9-6,3.9-9.2c0.8-2.3,2.3-4.2,3.8-5.9c1.7-2,3.3-4,4.8-6.2c1.4-2.2,3.4-4,5-5.9c0.7-3.5,1.3-7,2-10.5
		c0.1-0.7,0.2-1.5,0.7-2c2.1-2.1,2-4.7,2.2-7.3c0.1-1.4,0.1-2.8,0.2-4.2c0.8,0.1,0.9,0.6,0.9,1c0.2,3.1-0.2,6.2-1,9.2
		c-0.1,0.2-0.1,0.5-0.2,0.7c-2.2,3.1-2,6.8-2.8,10.2c-0.1,0.3,0.1,0.7,0.1,1.2c0.7-0.1,1.3-0.3,2-0.4c0,0.2,0.2,0.5,0.1,0.6
		c-1.2,1.3-2.3,2.7-3.4,3.9c0.1,1,0.8,1.4,1.3,1.8c4.6,4,9.7,7.3,15.2,10c2.4,1.2,4.7,2.3,7,3.5c1.5,0.8,2.9,1.5,4.4,3.1
		c-0.7,0-1,0-1.2-0.1c-2.9-1.4-5.8-2.8-8.7-4.1c-0.9-0.4-1.8-1.1-3-0.7c-0.3,0.1-0.9-0.2-1.3-0.4c-4.7-2.5-9.5-5-14.2-7.6
		c-0.4-0.2-0.9-0.4-0.9-1.1c0.3-0.1,0.6-0.3,0.8-0.2C673.1,389.3,674,390.4,675.2,390.2c0.3,0.8,1,0.6,1.5,0.5
		c-0.1,0,0.2,0.3-0.1,0.1C676.3,390.4,675.9,390,675.2,390.2z"/>
	<path d="M288.1,390.2c-1.7-1.6-3.5-3.2-5.3-5c-2.2,1.5-3.6,3.6-5,5.8c0.3,1.6,1.3,2.7,2.1,3.8c2.9,3.7,6.5,6.6,10.6,8.9
		c2.1,1.1,4.2,2.2,6.7,3.5c-1.9,0.1-3.2-0.5-4.4-1c-5.8-2.3-10.6-5.9-14.2-11c-0.5-0.7-1-1.3-1.5-2c-0.1-0.1-0.2-0.1-0.3-0.1
		c-2.3,1.6-3.1,2.6-4.9,6c0.7,1.2,1.4,2.4,2.1,3.6c3.4,5.8,5.7,12.1,8.5,18.1c0.5,1.2,0.3,2.1-0.3,2.2c-0.9,0.1-1.3-0.6-1.6-1.2
		c-0.6-1.1-1.2-2.3-1.8-3.5c-1.9-4.1-3.7-8.2-5.7-12.3c-0.7-1.4-1.3-2.8-2.5-4c-5.4,10.1-9.8,20.4-13.2,31.2
		c-0.9,2.8-1.3,5.8-1.9,8.7c-0.7,0.1-0.8-0.6-0.8-1.1c0.1-3.4,0.6-6.6,1.6-9.8c2.7-8.4,5.9-16.6,9.9-24.5c0.7-1.4,1.4-2.8,1.8-4.2
		c1.1-4,3.5-7.3,6.3-10.2c1-1,1.8-2.1,2.6-3.4c1.1-1.8,2.6-3.4,4-5c0.6-0.7,1.4-1.3,1.8-1.7c0.6-3.6,1.2-6.7,1.8-9.9
		c0.3-1.5,0.5-3,1.8-4.2c0.6-0.6,0.8-1.7,0.9-2.6c0.3-1.9,0.4-3.8,0.6-5.7c0.1-0.8,0.2-1.6,0.3-2.9c1.2,4.6,0.5,9.4-1.5,13
		c-0.2,0.3-0.3,0.6-0.5,0.9c-0.1,0.2-0.1,0.5-0.1,0.7c-0.5,2.8-1,5.6-1.5,8.7c1-0.3,1.7-0.5,2.4-0.7c0.1,0.2,0.2,0.4,0.2,0.4
		c-1.2,1.4-2.4,2.9-3.7,4.4c0.5,0.5,1,1,1.5,1.5c4.6,4,9.7,7.3,15.2,10c2.2,1.1,4.5,2.1,6.7,3.3c1.6,0.8,3,1.8,4.5,2.8
		c-0.5,0.7-0.9,0.5-1.3,0.3c-3.1-1.5-6.2-3-9.4-4.4c-0.3-0.2-0.7-0.4-1-0.4c-2.5,0.3-4.2-1.4-6.1-2.4c-3-1.5-5.9-3.1-8.9-4.6
		c-0.9-0.5-1.8-1-2.7-1.6c0.4-1,1-0.7,1.5-0.5C285.1,388.8,286.6,389.5,288.1,390.2c0.1,0,0.1,0.1,0.1,0.2
		C288.2,390.3,288.1,390.2,288.1,390.2z"/>
	<path d="M700.4,219c-0.3-0.3-0.7-0.5-0.9-0.9c-0.8-1.3-1.4-2.7-2.2-4.1c-0.9-1.5-2.1-2.6-3.9-3.4c-3-1.3-5.8-3.2-8.3-5.5
		c-2.3-2.1-4.9-3.8-7.4-5.6c-0.7-0.5-1.6-0.9-2.8-0.8c1.6,1.7,3.1,3.2,4.5,4.7c1.4,1.5,2.5,3.2,3.3,5.1c0.6,1.4,0.8,2.6,0.1,4.1
		c-0.7,1.4-1,2.9-1.6,4.3c-0.7,1.5-1.6,1.8-3.2,1.3c-1.4-0.4-2.7-0.9-4.1-1.3c-1.9-0.6-3.3-1.6-4.5-3.3c-2-2.8-4.4-5.3-6.5-8
		c-0.4-0.5-0.7-1.1-1.1-1.6c0.5-0.7,1-0.5,1.4-0.2c0.9,0.7,1.9,1.5,2.7,2.4c2.1,2.4,4.2,4.9,6.3,7.3c1,1.2,1,1.2,2.9,1.8
		c0.1-0.5,0.2-1,0.3-1.6c1.7,1.8,1.7,1.8,4,2.3c0.3-0.5,0.8-1.1,1-1.7c1.2-3.7,0.4-7.1-2.1-10c-3.4-4-7.1-7.7-11.9-9.9
		c-1.3,0.8-0.8,2.9-2.5,3.3l0.1,0.1c-0.4-2.4,0.4-4.7,0.9-7c0.4-1.8,0.4-3.5,0.6-5.5c-0.9-0.1-1.7-0.2-2.5-0.3
		c-1.6-0.2-3.3-0.3-4.9-0.6c-0.5-0.1-1.1-0.4-0.9-1.3c0.3-0.1,0.6-0.2,1-0.2c2.8,0.2,5.7,0.4,8.5,0.6c1.1,0.1,1.8-0.5,2.3-1.4
		c0.1-0.2,0.2-0.4,0.3-0.7c1.1-3.4,2.6-6.6,3.3-10.1c0.7-3.7,1.3-7.5,2.8-11c0.3-0.8,0.2-1.9,0.2-2.8c0-1,0-2.1,1-3.3
		c0.8,2.5,0.7,4.7,0.1,6.9c-1,3.8-1.7,7.6-2.8,11.4c-0.6,2.2-1.6,4.2-2.4,6.3c-0.2,0.5-0.8,1-0.8,1.6c-0.3,2.2-1.6,3.7-3.4,4.6
		c-0.3,2.5-0.6,4.8-0.9,7.2c1.4,1.6,3.2,2.5,5.1,3.3c2.3,0.9,4.7,1.9,7.1,2.5c3.3,0.7,6.1,2.5,9,4.2c2,1.2,4.1,2.5,5.8,4.1
		C696.8,209.7,699,214.2,700.4,219L700.4,219z M690.9,207.8c-0.2-0.3-0.4-0.6-0.7-0.8c-0.5-0.9-1.2-1.3-2.2-1.3l-0.1-0.3l0.1,0.2
		c0.7,0.4,1.1,1.5,2.3,1.3C690.6,207.2,690.8,207.4,690.9,207.8l0.2,0.1L690.9,207.8z"/>
	<path d="M286.1,197.7c1.5,1.7,3.1,3.3,4.6,5c2.1,2.4,2.8,3.7,3.8,7.4c-1.6,2.3-1.3,5.6-3.7,7.7c0.4,1.6,0.9,3.1,1.2,4.6
		c0.6,2.8,0.6,5.7-0.3,8.5c-0.2,0.7-0.6,1.3-1.7,1.1c-0.2-1.1,0.6-2.2,0.7-3.3c0.1-1.1,0.3-2.1,0.2-3.2c-0.1-1.2-0.3-2.4-0.5-3.5
		c-0.2-1-0.6-2-0.9-3c-1.2-0.6-2.8,0.6-3.7-0.9c0.3-0.1,0.7-0.2,1-0.3c5.5-1.8,5.9-7.2,4.6-11.1c-0.4-1.2-1.1-2.4-2-3.4
		c-2.8-3.2-5.6-6.5-9.5-8.6c-0.7-0.4-1.4-0.8-2.1-1.3c-0.1,0-0.2,0-0.4,0c-1.1,0.8-0.8,2.7-2.5,3.3c0.1-4.2,1.8-8.1,1.7-12.5
		c-2.8-0.5-5.6,0.1-8.1-1.3c-0.2-0.1-0.2-0.4-0.3-0.6c0.1-0.1,0.1-0.2,0.2-0.2c0.3-0.1,0.7-0.2,1-0.2c3.1,0.2,6.2,0.4,9.2,0.6
		c1.1-0.6,1.6-1.5,1.9-2.5c0.7-1.9,1.5-3.8,2.2-5.7c0.2-0.4,0.3-0.9,0.4-1.4c0.7-3.5,1.2-7.1,2.3-10.5c0.9-3,1.4-6,1.5-9
		c0-0.1,0.1-0.2,0.2-0.7c0.4,0.8,0.8,1.4,0.8,2c0.1,1.4,0.3,2.9-0.1,4.2c-1.2,4.4-2.1,8.8-3.2,13.2c-0.5,1.9-1.5,3.8-2.3,5.6
		c-0.3,0.8-0.9,1.5-1,2.3c-0.4,1.8-1.5,2.9-3.1,3.7c-0.3,2.5-0.6,5-0.9,7.4c1.6,1.7,3.5,2.7,5.5,3.4c3.1,1.1,6.3,2.1,9.5,3.1
		c0.4,0.1,0.9,0.3,1.3,0.5c2.7,1.7,5.5,3.3,8.2,5.1c4.3,2.9,7,7,8.6,11.9c0,0.1,0,0.2,0,0.4l0.1-0.1c-1.2-0.3-1.3-1.5-1.9-2.4
		c-1.1-1.6-2.3-2.8-4.2-3.6c-3-1.3-5.8-3.2-8.2-5.5c-2.3-2.1-4.9-3.7-7.4-5.5C288,198,287.1,197.6,286.1,197.7l-0.1-0.1L286.1,197.7
		z M301.8,206.2c0,0.1,0,0.2,0.1,0.3c0,0,0.1,0.1,0.2,0.1C302,206.5,301.8,206.4,301.8,206.2c-0.6-0.7-1.1-1.5-2.2-1.5
		C300.2,205.5,300.8,206.2,301.8,206.2z"/>
	<path d="M701.6,382.9c-0.1,0.4-0.1,1-0.4,1.3c-0.5,0.5-1.2,0.2-1.6-0.2c-0.7-0.8-1.4-1.6-1.9-2.3c2.7-6.8,5.4-13.4,8-20
		c0.2-0.5,0.3-1.2,0.2-1.7c-0.4-2-0.8-3.9-1.3-6c-1.8-0.2-3.1,0.2-4.1,1.6c-1.1,1.5-2.3,3-3.5,4.6c-1.7,0-3.5,0.4-5.4-0.9
		c0.7-0.1,1-0.3,1.3-0.2c2.3,0.5,4.1-0.4,5.1-2.3c1.5-2.8,3.8-4.1,6.8-4.5c1.1-1.5,1.1-1.5,2.3-0.5c-0.5,0.5-0.9,1-1.4,1.5
		c0.1,0.3,0.3,0.6,0.4,0.9c1.6,4.7,1.5,5.8-0.4,10.5c-2,5.1-3.9,10.2-5.8,15.3c-0.6,1.6-0.4,2,1.8,3L701.6,382.9z"/>
	<path d="M628.3,189.2c0.6,0.6,1.1,0.8,1.1,1.2c0.1,1.3,0,2.6,0,3.9c0.5,0.4,0.9,0.8,1.4,1.2c0.4,1.8-0.3,3.7-0.3,5.7
		c0.5-0.4,1-0.8,1.4-1.1c0.2,0.2,0.3,0.3,0.4,0.3c1.1,1.2,0.1,2.9,1.1,4.4c0.8,1.2,0.7,2.9,0.9,4.4c0,0.2-0.2,0.5-0.3,0.6
		c-0.2,0.1-0.5,0.1-0.7,0c-0.4-0.3-0.8-0.6-1-1c-1.2-1.9-2.3-3.9-3.4-5.8c-0.5-0.8-0.9-1.7-1.5-2.4c-0.6-0.7-0.8-1.5-0.7-2.3
		C627,195.3,627.6,192.5,628.3,189.2z M629.1,196.4c0,0,0.1-0.1,0.1-0.1c0-0.1,0-0.2,0-0.3c0,0-0.1,0.1-0.1,0.1
		C629,196.2,629.1,196.3,629.1,196.4z"/>
	<path d="M298.3,364.3c0-1.4,0-2,0-2.7c0.2-3.4-0.5-6.6-1.4-9.8c-1.2-4.2-2-8.5-3-12.8c-0.1-0.5,0.1-1.1,0.3-2
		c0.7,0.4,1.3,0.6,1.6,1c0.5,0.8,0.9,1.7,1.1,2.6c0.6,2.5,1.4,5.1,1.7,7.6c0.5,3.6,0.7,7.3,0.9,11
		C299.6,360.7,299.4,362.2,298.3,364.3z"/>
	<path d="M199.8,191.9c0.5,1.4,0.9,2.9,0.8,4.4c-0.1,2.2,0.5,4.3,1.7,6.1c1.8,2.8,3.7,5.6,5.6,8.3c0.9,1.4,2,2.7,3,3.9
		c-0.3,1.7-0.5,3.3-0.9,5.4c-0.5-0.8-0.9-1.2-0.9-1.6c-0.4-2.3-1.6-4.2-2.9-6.1c-1.3-1.8-2.4-3.8-3.6-5.8
		C199.7,202.1,198.4,197.2,199.8,191.9z"/>
	<path d="M687.4,364.4c-0.1-4.5-0.9-8.9-2.2-13.3c-1.1-3.6-1.7-7.4-2.6-11.1c-0.2-0.8,0-1.4,0.9-1.9c0.3,0.2,0.8,0.4,1,0.7
		c0.5,0.8,0.9,1.7,1.2,2.6c2.1,6.9,2.9,13.9,2.5,21.1C688.1,363.2,688.2,364,687.4,364.4L687.4,364.4z"/>
	<path d="M268.8,204.1c0.5,0.6,0.9,1.3,1.6,1.8c3.7,3,7.5,5.9,11.2,8.8c0.5,0.4,0.9,0.7,1.7,1.4c-0.9,0-1.4,0.2-1.7,0
		c-1.2-0.7-2.4-1.5-3.5-2.4c-2.5-2-5-4.1-7.4-6.1c-4-3.4-8.1-6.6-12.5-9.5c-1.9-1.2-3.5-2.7-5.8-4.5c0.9,0.1,1.2,0.1,1.5,0.2
		c3.3,2.1,6.7,4,9.7,6.6c1.2,1,2.6,2,3.8,3c0.4,0.4,1,0.5,1.6,0.7L268.8,204.1z"/>
	<path d="M677.9,316.6c0.3-5.2,0.7-10.4,1-15.6c0.1-1.3,0-2.6-0.2-3.9c-0.3-2.9,0.2-5.7,1.2-8.4c0.1-0.3,0.5-0.5,0.7-0.7
		c0.9,0,1.1,0.6,1,1.2c-0.3,2-0.6,4-1,6c-0.4,2.1-0.6,4.2-0.6,6.4c0,4.6-0.3,9.3-1.2,13.8c-0.1,0.5-0.4,1-0.6,1.6
		C678.1,316.7,678,316.7,677.9,316.6z"/>
	<path d="M654.3,151.7c0.3-0.4,0.5-0.8,0.7-0.9c1.8-0.3,3.7-0.6,5.5-0.8c0.3,0,0.7,0.1,1,0.2c0-0.9-0.6-0.9-1.1-1.1
		c-1.4-0.3-2.7-0.6-4.2-1c-0.8,0.3-1.8,0.6-2.8,0.9c0.7-1.2,1.7-2.1,2.9-2.1c2.4,0,4.9-0.3,7.3,0.6c1.2,0.4,1.6,1.3,1.8,2.6
		c-1.1,0.7-2.9,0.2-3.2,1.9C659.6,152.8,657.1,152,654.3,151.7z"/>
	<path d="M292.4,286.7c0.1,0.7,0.3,1.3,0.2,1.8c-0.1,1.1-0.3,2.1-0.5,3.2c-0.6,3.4-1.1,6.8-1.1,10.2c0,3.6-0.4,7.1-0.8,10.7
		c-0.1,1-0.5,2-0.8,3.2c-0.9-0.7-0.5-1.4-0.5-2c0.3-3.9,0.8-7.8,1.1-11.7c0.2-2.2,0.2-4.5-0.2-6.7c-0.5-2.8,0.3-5.7,1.5-8.3
		C291.5,286.9,291.9,286.9,292.4,286.7z"/>
	<path d="M264.6,148.2c1.5-1.8,3.2-2.8,5.8-2.2c1.4,0.3,3,0,4.5,0.6c1.1,0.4,1.8,1.1,1.8,2.6c-0.8,0.7-2.5,0.3-3,1.7
		c-0.1,0.2-0.4,0.3-0.6,0.3c-2.4,0.2-4.9,0.1-7.3-0.6c0.2-0.4,0.3-0.7,0.4-0.7c2.2-0.4,4.4-0.7,6.7-1.1c-1.3-1.5-3.6-0.4-4.7-2
		C266.7,147.3,265.7,147.7,264.6,148.2z"/>
	<path d="M180.2,549c-1.3,0-2,0.6-2.1,1.9c-0.1,0.8-0.1,1.7-0.1,2.5c-0.2,5.9-1.2,11.5-3.8,16.8c-0.1,0.3-0.4,0.5-0.6,0.8
		c-0.6,0-1-0.4-0.9-0.8c0.4-1.4,0.8-2.7,1.3-4c1.5-3.8,2.2-7.7,2.4-11.8c0.1-1.2,0.2-2.4,0.4-3.5c0.2-1.1,0.7-2,1.6-2.7
		c0.8-0.7,1.4-0.3,1.7,1L180.2,549z"/>
	<path d="M666.2,338.7c1.3,0.5,1.1,1.3,1,1.9c-0.4,2.2-0.8,4.4-1.2,6.7c-0.9,5-1.9,10.1-2.8,15.1c-0.1,0.7-0.1,1.4-1,1.8
		c-0.8-0.5-0.5-1.2-0.4-1.8c0.7-4.2,1.5-8.4,2.3-12.6C664.8,346.1,665.5,342.5,666.2,338.7z"/>
	<path d="M273.1,363.5c0-1.2-0.1-2,0-2.8c1.4-7.6,2.8-15.1,4.3-22.7c0-0.1,0.4-0.2,0.6-0.4c0.7,1.4,0.2,2.8,0,4.2
		C274.8,360.1,274.5,361.2,273.1,363.5z"/>
	<path d="M742.6,574.6c-1.2-2.1-0.9-3.6,0.7-3.9c2.5-0.5,5-0.5,7.4,0.1c0.6,0.1,1.1,0.8,1.6,1.3c0.5,0.5,0.1,1.6-0.6,1.7
		c-0.9,0.1-1.9,0.2-2.8,0C746.8,573.2,744.8,573.4,742.6,574.6z"/>
	<path d="M681,335.7c-0.4,0.2-0.8,0.6-1.2,0.7c-0.9,0.1-1.9,0.1-3,0.2c0,0.7-0.1,1.4-0.1,2c0,2.7,0.1,5.5,0.1,8.2
		c0,1.2-0.1,1.2-1.5,3.1c0.3-4.6,1.1-8.9-0.3-13.3c-2.4-1.2-5.7-0.3-8.2-2.1c0.3-0.3,0.4-0.6,0.5-0.6c1.4,0.2,2.8,0.3,4.3,0.5
		c0.2-0.8,0.4-1.5,0.7-2.6c0.2,0.9,0.2,1.4,0.3,1.8c0.5,1.2,0.9,1.4,2.2,1.3c0.4,0,1-0.2,1.3,0c1.6,1,3.4,1,5.2,1.1L681,335.7z"/>
	<path d="M645.7,334.2c1.3,0.2,1.4,1.1,1.3,1.9c-0.1,2.1-0.3,4.2-0.5,6.4c-0.2,1.5-0.3,3.1-0.6,4.6c-0.2,0.9-0.5,1.8-0.8,3.1
		c-0.5-0.6-0.9-0.9-1-1.3c-0.1-1.3-0.2-2.6-0.1-3.9c0.2-2.7,0.4-5.4,0.7-8.1C644.7,336,644.8,335,645.7,334.2z"/>
	<path d="M275.7,269.6c-0.1-1.3,0.4-2.2,0.8-3.2c1.6-3.4,4.1-6.1,6.7-8.7c1-1,1.7-2.2,3.5-2.7c0,0.6,0.2,1.1,0,1.5
		c-0.4,0.7-0.9,1.4-1.5,1.9c-2.8,2.9-5.4,6-7.6,9.4C277.2,268.5,276.8,269.2,275.7,269.6z"/>
	<path d="M255.6,349c-0.2-1.1-0.5-1.8-0.5-2.4c0.3-4,0.6-8.1,0.9-12.1c0-0.3,0.2-0.7,0.4-0.9c0.2-0.2,0.6-0.3,0.9-0.3
		c0.2,0,0.4,0.2,0.5,0.4c0.2,0.4,0.3,0.9,0.3,1.4c-0.5,4.2-1,8.5-1.5,12.7C256.6,348,256.1,348.3,255.6,349z"/>
	<path d="M664.6,270.2c0.1-0.4,0.1-0.9,0.3-1.3c0.8-1.5,1.4-3.1,2.4-4.4c2.2-2.7,4.5-5.2,6.8-7.8c0.2-0.3,0.3-0.3,1.8-0.2
		c-0.1,0.5-0.2,0.9-0.4,1.3c-0.3,0.5-0.7,0.9-1.1,1.4c-3.1,3-5.7,6.4-8.1,10c-0.3,0.5-0.7,0.9-1.1,1.3
		C664.9,270.4,664.7,270.3,664.6,270.2z"/>
	<path d="M317.6,360.2c0.3,1.3-0.3,2.3-0.7,3.4c-2.1,5.4-4.1,10.9-6.2,16.5c0.7,0.8,1.3,1.6,2,2.4c-0.1,0.5-0.3,0.9-0.9,0.8
		c-1.5-0.5-2.1-1.8-2.7-2.9c2.4-6.1,4.8-12,7.2-18c0.3-0.8,0.3-1.9,1.5-2.1L317.6,360.2z"/>
	<path d="M243,327.1c0.1,0.8,0.2,1.3,0.1,1.7c-0.1,0.6-0.3,1.1-0.6,1.6c-2.6,4.7-5.2,9.3-7.8,14c-0.3,0.5-0.7,0.9-1.1,1.5
		c-0.7-0.5-0.3-1-0.1-1.5c1.5-3.1,3.1-6.2,4.6-9.2c1.2-2.3,2.4-4.6,3.6-6.9C242,327.9,242.4,327.7,243,327.1z"/>
	<path d="M622.3,346.5c0.3-1,0.5-2.1,1-3c2.6-5,5.2-9.9,7.7-14.8c1-0.1,1.2,0.4,1,1.1c-0.1,0.3-0.2,0.7-0.3,1c-2.8,5-5.5,10-8.3,15
		C623.1,346.1,622.6,346.2,622.3,346.5L622.3,346.5z"/>
	<path d="M252,170.7c-0.3-1.9-0.5-3.6-0.7-5.2c-0.1-1-0.2-2.1-0.1-3.2c0-0.3,0.5-0.6,1.1-1.4c-0.3,3.7,0.6,6.6,1.6,9.8
		c2.7,2,5.9,3.9,8.2,6.6c-0.3,0.8-0.8,0.6-1.1,0.4C258,175.4,254.9,172.9,252,170.7z"/>
	<path d="M640.9,162.6c0.5,3,1,6.1,1.5,8.6c3,2.5,5.7,4.7,8.3,6.9c0.1,0.1,0.1,0.4,0.1,0.6c-0.2,0.1-0.5,0.2-0.6,0.2
		c-3.1-2.4-6.2-4.7-9.5-7.2c-0.2-2.7-0.4-5.4-0.5-8.1C640.1,163.1,640.4,162.7,640.9,162.6L640.9,162.6z"/>
	<path d="M288.9,254c-0.4-1.8,0.4-2.7,1.6-3c3.2-0.8,6.1-0.1,8.7,1.8c0.2,0.2,0.3,0.7,0.3,1c-0.1,0.5-0.6,0.7-1.1,0.6
		c-0.9-0.2-1.8-0.5-2.7-0.8C292.7,252.9,292,252.9,288.9,254z"/>
	<path d="M687.8,255.6c-3.2-0.6-6.6-2.6-10.1-0.3c-0.1-1.8,0.2-2.6,1.3-3.1c2.3-1,7.2-0.1,9.1,1.7
		C688.6,254.4,688.5,255,687.8,255.6z"/>
	<path d="M623.6,208.6c-3-3-3.8-6.8-6-9.6c0.3-0.9,0.9-0.9,1.5-0.6c0.3,0.2,0.6,0.4,0.8,0.6c1.8,2.6,3.4,5.4,4.1,8.5
		C624.1,207.6,623.9,207.9,623.6,208.6z"/>
	<path d="M695.4,346.9c-3-1.8-3.9-4.5-5.9-6.1c-0.7,0.5,0.6,1.6-0.5,2c-1.5-1.7-1.5-1.7-1.8-4.2c3.6,0.6,3.6,0.5,5.4,2.9
		c0.9,1.1,1.7,2.3,2.4,3.5C695.2,345.2,695.2,345.7,695.4,346.9z"/>
	<path d="M300.8,339.6c-0.4,0.9,0.2,1.6-0.9,2c-1.2-1-1.5-2.4-1.7-4.1c2.3,0,4.1,0.6,5.3,2.6c1,1.6,2.5,2.8,2.9,4.7
		c-0.6,0.7-1.1,0.5-1.5,0C303.5,343.1,302.2,341.4,300.8,339.6z"/>
	<path d="M598.8,581.1c-0.4,0-0.7,0-1.1,0c-0.6-0.7-0.4-1.3,0-2c1-1.4,2.5-2.3,4.1-2.7c1.9-0.5,3.8-0.5,5.6,0c0.3,0.1,0.5,0.4,1,0.9
		c-0.6,0.2-1,0.4-1.4,0.5c-1.3,0.2-2.6,0.2-3.9,0.4c-2,0.3-3.6,1.2-4.5,3L598.8,581.1z"/>
	<path d="M612.8,384.4c-1.9,3.6-4.7,6.2-8,8.3c-0.4,0.3-1.1,0.2-1.9,0.3c0.8-1.7,2.3-2,3.3-3c1.1-1.1,2.2-2.1,3.4-3.2
		C610.5,385.9,611.3,384.8,612.8,384.4z"/>
	<path d="M223.8,383.1c0.2,0.3,0.3,0.4,0.3,0.5c-2.1,3.7-5.1,6.4-8.8,8.4c-0.5,0.3-0.9,0-1.2-0.7c1.1-0.8,2.2-1.5,3.3-2.4
		c1.2-1,2.2-2.1,3.4-3.1C221.7,384.9,222.4,383.6,223.8,383.1z"/>
	<path d="M250.5,247.1c0.6,0.1,1,0.1,1.2,0.3c2.3,1.9,4.5,3.9,6.7,5.8c0.3,0.2,0.3,0.7,0.4,1.1c-0.8,0.6-1.4,0.2-1.8-0.1
		c-1.4-0.9-2.7-1.9-4-2.9c-1.1-0.8-2.1-1.6-2.6-2.9C250.3,248,250.5,247.6,250.5,247.1z"/>
	<path d="M316,351.5c0,0.3,0,0.5,0,0.8l0.1-0.1c-1.1,0.4-2.2,0.7-3.6,1.2c-1.4,1.8-2.9,3.8-4.4,5.7c-1.8,0.2-3.4,0.2-5.1-0.8
		c0.3-0.2,0.4-0.3,0.5-0.3c3,0.5,4.9-0.7,6.4-3.3C311.2,352.4,313.3,351.1,316,351.5L316,351.5z"/>
	<path d="M258.2,231.3c2.1-0.6,3.1,0.3,4.3,0.7c1.1,0.4,2.3,0.7,3.4,1c1.3,0.3,2.6,0.5,3.8,0.8c1.2,0.2,2.3,0.5,3.4,0.8
		C268.1,235.3,263.3,234.3,258.2,231.3z"/>
	<path d="M648,255.1c-1.1,0.8-1.7,0.4-2.3,0c-1.2-0.9-2.4-1.8-3.7-2.7c-1.2-0.8-2.3-1.7-2.8-3.1c-0.1-0.3,0.1-0.8,0.2-1.2
		c0.5,0,0.7,0,0.9,0.1c0.2,0.1,0.4,0.2,0.6,0.4C643.2,250.7,645.5,252.9,648,255.1z"/>
	<path d="M221,404.7c0.2-1,0.4-2,0.6-3.4c-1.7,0.8-2.4,2.3-3.5,3.2c-1,0.8-1.7,2.3-3.3,2c1.3-1.4,2.6-2.8,3.9-4.2
		c1.1-1.3,2.2-2.7,3.3-4.1c0.4,1.5,0.5,4.1,0.2,5.6c-0.1,0.4-0.4,0.8-0.7,1.2C221.3,404.9,221.2,404.8,221,404.7z"/>
	<path d="M647.4,232.1c2.8-0.1,4.8,1.6,7.3,2c2.3,0.4,4.6,0.9,7.5,1.4C657,236.5,650.8,235,647.4,232.1z"/>
	<path d="M610,405.9c0-1.2,0-2.2,0-3.4c-1.9,1.8-3.7,3.4-5.4,4.9c-0.2,0.2-0.6,0.3-1,0.4c0.5-1.2,0.5-1.2,1.4-2.1
		c0.8-0.7,1.5-1.5,2.3-2.3c0.7-0.7,1.3-1.4,1.9-2.2c0.6-0.7,1.1-1.5,1.8-2.3C611.3,403,611.1,404.5,610,405.9z"/>
	<path d="M242.3,220c-1-0.4-1.4-0.5-1.7-0.8c-2.1-1.6-3-3.9-3.6-6.3c-0.1-0.3,0.3-0.9,0.6-1.1c0.2-0.1,0.9,0.3,1,0.6
		C239.8,214.7,240.9,217.1,242.3,220z"/>
	<path d="M232.3,325.7c0,0.1,0.1,0.3,0,0.3c-1.2,2.2-1.5,4.6-2.1,7c-0.6,2.4-1.4,4.7-3.4,7.1c0-0.9-0.2-1.3,0-1.6
		c1.3-2.8,2.4-5.7,3.1-8.7C230.3,328.4,230.9,326.7,232.3,325.7L232.3,325.7z"/>
	<path d="M629.5,138c1.7,1.3,2.7,2.8,2.7,4.6c0,2.3,0.4,4.7-1.1,7.5c-0.2-1-0.3-1.4-0.3-1.7c0-1.1,0.1-2.1,0.1-3.2
		c0.1-2.1,0-4-1.2-5.8C629.4,138.9,629.6,138.4,629.5,138z"/>
	<path d="M679.4,379.1c1.5-2.9,5.7-6.3,9.3-7.3c-0.5,0.6-0.8,1.1-1.2,1.4c-2.7,1.9-4.8,4.5-7.8,6
		C679.6,379.2,679.5,379.1,679.4,379.1z"/>
	<path d="M280.5,174.4c-2.2,1-4.1,1.2-6.4,0.3c0.3-1.4,0.9-2.4,2.2-2.4c1.1,0,2.3,0.5,3.3,0.9C280,173.3,280.2,173.9,280.5,174.4z"
		/>
	<path d="M670.9,171.3c-3.9,0.7-8.6,0.8-10.3,0.2c-0.1,0-0.2-0.4-0.3-0.7c0.3-0.1,0.6-0.4,0.9-0.4c3.2,0.4,6.4-0.6,9.5,0.2
		C670.8,170.7,670.8,170.9,670.9,171.3z"/>
	<path d="M271,170.3c0.6-0.5,0.9-1,1.2-0.9c2.8,0.4,5.7-0.2,8.5-0.2c0.7,0,1.5,0,1.5,1.2c-3.2,0.3-6.3,0.3-9.5,0.4
		C272.2,170.8,271.8,170.5,271,170.3z"/>
	<path d="M669.4,175.3c-0.5,0.3-0.8,0.8-1.2,0.8c-1.7,0.1-3.5,0.7-5.1-0.4c0.8-2.1,1.2-2.4,2.6-2.3
		C667.1,173.5,668.5,173.7,669.4,175.3z"/>
	<path d="M628.3,115.3c-0.5-2.6-0.4-3.2,3-10.3c0.1,0.2,0.4,0.4,0.3,0.5c-0.5,2.9-0.9,5.8-2.1,8.5
		C629.3,114.5,628.8,114.8,628.3,115.3z"/>
	<path d="M299.5,371.2c-0.7,0.6-1.3,1.4-2,1.9c-2.3,1.5-3.9,3.9-6.5,4.9c-0.1,0-0.2-0.1-0.3-0.2c0-0.2-0.1-0.5,0-0.6
		c2-1.8,4-3.6,6.1-5.4c0.6-0.5,1.5-0.7,2.2-1C299.1,370.9,299.2,371,299.5,371.2z"/>
	<path d="M635.5,53.2c0.4,0.2,0.7,0.3,0.7,0.5c0.6,1.6,0.4,3.2,0,4.8c-0.3,1.2-0.4,2.6-1.5,3.4c-0.9-0.7-0.7-1.6-0.5-2.3
		C634.8,57.5,634.6,55.2,635.5,53.2z"/>
	<path d="M623.2,178.1c0.6,1,0.9,1.3,0.9,1.6c0,2.8-0.7,5.4-2,7.8c-0.3,0.6-0.9,1.1-1.5,1.5c-0.2,0.1-0.6-0.1-1.1-0.2
		C622.2,185.9,622.7,182.4,623.2,178.1z"/>
	<path d="M210,565.3c-0.4,0.4-0.8,1-1.2,1.1c-1,0.2-2.1,0.3-3.1,0.2c-0.6,0-1.1-0.4-1.2-1.1c-0.1-0.7,0.3-1.2,0.9-1.3
		C207,564,208.7,563.5,210,565.3z"/>
	<path d="M226.2,202.5c1.6,0,3.1,0.1,4.4,1c1,0.7,1.9,1.5,2.3,2.7c0.2,0.6,0.1,1.2-0.6,1.4c-1-1-1.9-2-3-2.9
		C228.3,203.9,226.6,204.1,226.2,202.5z"/>
	<path d="M643.5,264.1c-1.9,0.6-3-0.4-3.9-1.4c-1.1-1.2-2.7-2.1-2.8-4.1c0.6,0,0.9,0,1,0.1C639.7,260.4,641.5,262.1,643.5,264.1z"/>
	<path d="M623.6,315.9c1.5-0.3,2.7,0.3,3.7,1.3l0.1-0.1c-0.4,0.2-0.8,0.3-1.3,0.5c0.2,1.5,2,2.6,0.7,4.2c-0.7,0-1.4-0.1-2.2-0.2
		c0-0.8,0-1.6,0-2.4l-0.1,0.1c0.1-0.1,0.2-0.2,0.2-0.3C625.1,316.8,625.6,317.3,623.6,315.9L623.6,315.9z"/>
	<path d="M265,188.9c0.6-0.6,1-0.5,1.4-0.2c0.3,0.2,0.5,0.6,0.6,0.9c0.6,1.9,1.2,3.8,1.7,5.8c0.1,0.5,0,1.1,0,2
		C266.8,194.6,266.7,191.4,265,188.9z"/>
	<path d="M670,407.3c-2.8-2-4.7-4.8-6.1-7.8c0.5-0.7,1-0.5,1.2-0.1C666.8,402.1,668.4,404.7,670,407.3z"/>
	<path d="M254.3,263.6c-3.1-0.9-4.7-2.9-6.2-5.1c-0.1-0.2-0.1-0.5,0-0.7c0.1-0.2,0.3-0.3,0.6-0.7c0.5,0.5,0.9,1.1,1.4,1.6
		c0.5,0.5,1,1,1.5,1.5c0.5,0.5,1.1,0.9,1.7,1.3C253.8,261.9,254.4,262.3,254.3,263.6z"/>
	<path d="M596,567.7c-2,0-2.8-0.5-2.6-1.3c0.1-0.7,0.8-1.3,1.9-1.3c0.9,0,1.9,0.2,2.8,0.4c0.2,0.1,0.6,0.6,0.5,0.8
		c-0.1,0.4-0.4,1-0.7,1.1C597.1,567.6,596.3,567.6,596,567.7z"/>
	<path d="M625.3,193c-0.4-0.8-0.7-1-0.6-1.2c0.8-2.3,0.9-4.8,2.2-7.2c0.3,0.4,0.7,0.7,0.7,0.9C627.4,188.1,626.6,190.3,625.3,193z"
		/>
	<path d="M619.4,330.1c0,4.4-1.3,8.3-4.1,11.3c0.1-0.8,0.1-1.2,0.3-1.6c1.4-2.9,2.5-5.8,3.2-9c0.1-0.3,0.5-0.5,0.7-0.7L619.4,330.1z
		"/>
	<path d="M705.6,281.6c0.7-3.2,1.9-5.3,3.6-7C709.6,276.6,708.4,279.2,705.6,281.6z"/>
	<path d="M213.4,211.6c-0.7-4-0.2-6.2,1.6-8.1c0.5,2.5-0.5,4.8-0.7,7C214.3,210.7,214,211,213.4,211.6z"/>
	<path d="M605.4,218.3c-0.6-1.1-0.9-1.4-1-1.8c-0.5-2.3,0.4-4.3,1.3-6.3c0.1-0.2,0.6-0.2,0.9-0.3c0.1,0,0.3,0.5,0.3,0.5
		c-1.3,1.7-0.5,3.6-0.7,5.4C606.1,216.4,605.8,217,605.4,218.3z"/>
	<path d="M275.6,272.3c-0.8,2.4-2.6,4.1-5.1,5.2c-0.1-0.2-0.2-0.5-0.2-0.6C271.9,275.1,273.7,273.7,275.6,272.3z"/>
	<path d="M321.1,273.5c-1,2.9-1.9,5.1-4.1,7.2c-0.1-0.8-0.3-1.2-0.1-1.5c0.9-1.8,1.8-3.5,2.8-5.2
		C319.8,273.7,320.2,273.7,321.1,273.5z"/>
	<path d="M281,406.6c-0.5-0.3-1.1-0.6-1.4-1c-1.4-2-2.8-4.1-4.1-6.2c-0.2-0.3-0.1-0.8-0.1-1.8c0.8,0.9,1.3,1.3,1.5,1.8
		C278,401.9,280.4,403.8,281,406.6L281,406.6z"/>
	<path d="M658.9,278.3c0.7-0.7,1.3-1.4,2-2c1.2-1,2.1-2.2,3.4-3c0.2,0.2,0.4,0.3,0.4,0.4c-0.2,1.5-1.4,2.1-2.3,2.9
		C661.4,277.6,660.6,278.7,658.9,278.3z"/>
	<path d="M316.1,352.3c0.4,0.2,1,0.4,1.1,0.7c0.5,1.8,1,3.6,1.2,5.4c0.1,0.6-0.5,1.2-0.8,1.8l0.1,0.1
		C316.8,357.6,316,355,316.1,352.3L316.1,352.3z"/>
	<path d="M221.2,152.6c-0.5-1.6-0.5-3-0.1-5.5c0.1-0.4,0.4-0.7,0.7-1.3C222.6,148.8,222.6,149.2,221.2,152.6z"/>
	<path d="M680.8,226.4c0.3,2.4,0.8,4.9-1.2,6.9c-0.3-0.3-0.5-0.5-0.5-0.6C679.7,230.6,679.3,228.3,680.8,226.4z"/>
	<path d="M259.6,255.6c1.8-0.8,2.1-0.7,4.9,1.8c-0.2,0.2-0.4,0.7-0.5,0.7C262.1,258,260.6,257.1,259.6,255.6z"/>
	<path d="M634.8,212.5c1.3-0.1,1.6,0.6,1.9,1.4c0.3,0.9,1,1.9-0.1,3.1C635.1,215.7,634.3,214.4,634.8,212.5z"/>
	<path d="M306.8,350c0.2,2.8-1.2,4.9-3,6.9c-0.6-0.4-0.3-0.8-0.1-1.2c0.6-1.4,1.2-2.8,1.7-4.2C305.7,350.8,306,350.2,306.8,350
		L306.8,350z"/>
	<path d="M665.3,165.7c0.6-1,0.6-1.4,0.9-1.6c1.2-0.9,2.7-0.8,4-0.5c0.2,0,0.4,0.5,0.4,0.8c0,0.2-0.2,0.4-0.4,0.5
		c-0.2,0.1-0.5,0.3-0.6,0.2C668.4,164.9,667.2,165.2,665.3,165.7z"/>
	<path d="M653.3,258.8c-2.1,0.7-3.2-0.6-4.5-1.5c-0.4-0.3-0.4-0.8,0.3-1.3C650.7,256.3,652.3,256.9,653.3,258.8z"/>
	<path d="M694.9,381c0.6,2.1,1.1,3.9,1.7,5.9c-1.6-0.6-1.9-0.9-2.4-2.6C694,383.2,693.6,382,694.9,381z"/>
	<path d="M266.8,390.9c0-0.4-0.1-0.8,0-1.1c1-2.2,2.4-4.1,4-5.9c0.2,0.3,0.5,0.6,0.5,0.6C269.9,386.7,268.8,389.1,266.8,390.9
		L266.8,390.9z"/>
	<path d="M306.1,380.4c0.5,1.7,1.1,3.5,1.6,5.3C305.7,385.4,305.1,383.8,306.1,380.4z"/>
	<path d="M267.3,343.2c-0.4-1.5-0.9-3.1-0.2-4.7c0.1-0.1,0.4-0.2,0.6-0.2C268.4,340.7,268.4,340.7,267.3,343.2z"/>
	<path d="M625.4,276.3c0-2.2,0-4.1,0-6.1c1.3,0.3,1.2,1.2,1.1,2C626.4,273.5,627,275,625.4,276.3z"/>
	<path d="M655.3,391.5c1.1-2.3,2.5-4.5,4.3-6.4c0.2,0.3,0.4,0.6,0.4,0.6c-1.3,2.1-2.7,4.1-4.1,6.2
		C655.7,391.8,655.5,391.7,655.3,391.5z"/>
	<path d="M281.8,163.3c-0.2,0.2-0.4,0.6-0.6,0.7c-1.2,0.2-2.5,0.3-3.8,0.5c-0.1,0-0.4-0.3-0.5-0.4c-0.1-0.2,0-0.4,0.1-0.6
		c0.1-0.2,0.3-0.5,0.5-0.5c1.3-0.1,2.5-0.2,3.8-0.2C281.5,162.7,281.6,163,281.8,163.3z"/>
	<path d="M695.2,351.5c0.5,1.2,0.1,2.3-0.4,3.4c-0.7,1.4-0.9,1.7-2.7,3c0.6-1.3,1-2.2,1.4-3.1c0.4-1,0.8-2,1.2-3
		C694.8,351.7,695.1,351.6,695.2,351.5L695.2,351.5z"/>
	<path d="M654.8,342.4c-1-1.7-1-1.7-0.6-4.3C655.8,339.6,655.1,341,654.8,342.4z"/>
	<path d="M250.2,327.9c0,0.3-0.1,0.6-0.1,0.9l0.1-0.1c-2.4-0.1-4.6-1-6.4-2.8c2.1,0.7,4.3,1.4,6.4,2.2L250.2,327.9z"/>
	<path d="M656.1,339.4c1.4,1.4,1.4,1.9,0,5.3C655.7,342.8,655.7,341.2,656.1,339.4z"/>
	<path d="M236.7,268.8c0.2,0.2,0.6,0.4,0.6,0.6c0.4,2,0.3,3.3-0.4,5.3c-1.1-0.3-0.3-1.2-0.4-1.7c-0.1-0.7-0.1-1.4,0-2.1
		C236.6,270.3,236,269.6,236.7,268.8z"/>
	<path d="M218.7,359.7c-0.9,2.3-0.9,2.3-2.3,3.2C215.8,361.3,215.9,361.1,218.7,359.7z"/>
	<path d="M199.9,163.9c-0.9-2.9-0.8-3.3,1-4.3C200.9,161.1,201.1,162.5,199.9,163.9z"/>
	<path d="M605.6,167c0.8,1.3,0.3,2.3-0.6,3.2c-0.2,0.2-0.6,0.2-0.9,0.1c-0.1,0-0.3-0.4-0.3-0.5C603.9,168.6,604.3,167.6,605.6,167z"
		/>
	<path d="M713.1,396.9c-0.5-1.4-0.8-2.3-1.1-3.1c0.7-0.8,1.1-0.6,1.4,0C713.9,394.6,714.1,395.4,713.1,396.9z"/>
	<path d="M325.5,354.8c0.8,3.2,0.8,3.3-0.7,4.4C324.7,357.9,324.6,356.6,325.5,354.8z"/>
	<path d="M682,283.6c-0.4-1.8-0.5-3,0.2-4.2C683.2,281,683.2,281,682,283.6z"/>
	<path d="M638,329.3c-3-0.3-3.7-0.7-5.4-2.3C635.7,327.7,636.3,328,638,329.3L638,329.3z"/>
	<path d="M625,194.8c1,2,0.8,2.4-0.9,3.6C623.2,196.9,624.3,195.9,625,194.8z"/>
	<path d="M605.5,364.4c-0.4-0.6-0.8-0.9-0.7-1.1c0.2-1.2,1-2,2.4-2.5c0,0.5,0.1,1,0,1.3C606.7,362.8,606.2,363.4,605.5,364.4z"/>
	<path d="M241.4,266.4c0,0.1,0,0.2,0,0.4c-0.2,0.7-0.4,1.4-1.3,1.4c-0.2,0-0.4-0.2-0.5-0.4c-0.3-0.7-0.1-1.4,0.5-1.9
		c0.2-0.2,0.6-0.1,0.9-0.1C241.2,265.9,241.3,266.3,241.4,266.4z"/>
	<path d="M627.7,228.5c1.2,1.3,0.7,2.4,0.1,3.8C626.7,230.9,626.6,229.8,627.7,228.5z"/>
	<path d="M236.5,206.5c-1.2-1.7-0.9-3-1-4.6c0.6,0.5,0.9,0.7,1,0.9C236.6,203.8,236.5,204.8,236.5,206.5z"/>
	<path d="M293.7,278.1c0.5,1.5,0.4,2.6-0.1,3.7c-0.6,0-0.9-0.3-0.9-0.8C292.7,280.1,292.7,279.2,293.7,278.1z"/>
	<path d="M324.7,395.9c-1.2-1.6-1.6-2.6-1.2-4C325.1,392.8,325,393.9,324.7,395.9z"/>
	<path d="M613.3,119c1.2,0.9,1.2,1.8,0.7,2.8c-1.2-0.2-1.5-1-1.4-1.8C612.6,119.7,613,119.4,613.3,119z"/>
	<path d="M247.7,268.7c1.3,0.2,2.1,0.6,2.6,1.6c-1.1,0.6-1.9,0.3-2.5-0.5C247.5,269.6,247.7,269.1,247.7,268.7z"/>
	<path d="M628.3,269c0-1.2,0.3-2,1.5-2.2c0.8,0.9,0.6,1.7-0.3,2.4C629.2,269.3,628.7,269,628.3,269z"/>
	<path d="M629.7,132c1.5,0.9,1.4,1.9,0.7,3.4c-0.4-0.5-0.8-0.8-0.8-1.2C629.5,133.6,629.6,132.9,629.7,132z"/>
	<path d="M269.6,279.5c-0.7,1-1.5,2-2.7,3.6c0.2-1.1,0.1-1.6,0.3-1.8c0.6-0.8,1.3-1.6,1.9-2.3C269.3,279.2,269.4,279.4,269.6,279.5z
		"/>
	<path d="M222.1,191.8c0.3,1.6,0.3,1.6-1.6,2.6C220.3,193,220.3,193,222.1,191.8z"/>
	<path d="M659.6,190c0.7-1.6,1.8-2.2,3-3.8C662.2,188.4,662.2,188.4,659.6,190z"/>
	<path d="M713.4,360.2c0.2-1.2,0.3-2.4,0.5-3.9C715.2,358,715.1,358.9,713.4,360.2z"/>
	<path d="M211.2,128.9c-1-0.9-1.8-1.6-2.8-2.5C210.5,126.2,211,126.6,211.2,128.9z"/>
	<path d="M713.4,328c0,1,0,1.6,0,2.4C712.8,329.4,712.8,329.4,713.4,328z"/>
	<path d="M274,186.1c-0.6,1.3-1.6,1.9-2.7,2.9C272,186.8,272.4,186.4,274,186.1z"/>
	<path d="M233.6,230.4c1.1,0.9,1.1,1.7,0.6,2.6c-0.1,0.2-0.4,0.3-0.6,0.3c-0.2,0-0.4-0.2-0.5-0.4
		C232.8,232.1,232.8,231.3,233.6,230.4z"/>
	<path d="M608.5,204.5c0.9,1.3,0,2.1-0.7,3.1C607,206,607,206,608.5,204.5z"/>
	<path d="M639.2,271.1c-1.7,0.8-2,0.7-3-0.9C637.6,269.5,638.2,270.4,639.2,271.1z"/>
	<path d="M647.9,304.5c1.2,0.7,1,1.7,0.8,2.7C647.6,306.2,647.6,306.2,647.9,304.5z"/>
	<path d="M715.8,286.4c-0.2-1.5-0.2-1.5,0.4-2.3C716.8,284.8,716.8,285.5,715.8,286.4z"/>
	<path d="M259.7,306.2c-1.1-0.6-1-1.4-0.8-2.4C260,304.5,260,304.5,259.7,306.2z"/>
	<path d="M265.6,337.6c0.7,1.3,0.6,2.7,0.2,4.5C265,340.2,265.1,338.9,265.6,337.6z"/>
	<path d="M683.1,273c0.1-0.8,0.1-1.5,0.2-2.3c0-0.2,0.3-0.3,0.6-0.5C684.6,271.2,683.7,272,683.1,273z"/>
	<path d="M295,268.2c0.5,1.9,0.4,3-1,4.4C294.3,271,294.6,269.9,295,268.2z"/>
	<path d="M242.3,262.1c0.4,0.4,0.7,0.7,0.8,0.9c0.2,0.6-0.4,1.1-1,1c-0.3,0-0.7-0.5-0.7-0.6C241.6,263.1,242,262.7,242.3,262.1z"/>
	<path d="M624.5,319.3c-0.4,0.2-0.8,0.4-1.3,0.6c0-0.7-0.1-1.1,0-1.6c0-0.3,0.3-0.6,0.4-0.9C624.6,317.8,624.6,317.8,624.5,319.3
		L624.5,319.3z"/>
	<path d="M241,317.8c-0.3,1.2-0.7,2.5-1.1,4.2C239.5,320.1,239.5,318.7,241,317.8L241,317.8z"/>
	<path d="M233.4,222.6c-0.2-0.2-0.6-0.6-0.5-0.9c0-0.3,0.4-0.7,0.6-1c0.3,0.2,0.6,0.3,0.8,0.5C234.5,221.7,234.2,222.5,233.4,222.6z
		"/>
	<path d="M287.9,216.2c-0.6-1.2-1.1-2.1-1.6-3.1C287.7,213.8,287.7,213.8,287.9,216.2z"/>
	<path d="M231.2,201.1c-1.2-0.5-0.9-1.5-1.2-2.4c0.9-0.2,1.1,0.3,1.2,0.7C231.4,199.9,231.8,200.4,231.2,201.1z"/>
	<path d="M677.6,333.3c0.1-1,0.1-1.6,0.2-2.5C678.4,331.9,678.4,331.9,677.6,333.3z"/>
	<path d="M245.3,223.4c-1.3-0.2-1.5-1.2-1.9-2.3C244.7,221.5,245.1,222.3,245.3,223.4L245.3,223.4z"/>
	<path d="M681.2,330.6c0.6,0.9,0.8,1.8,0.5,2.7c-0.2-0.1-0.5-0.2-0.5-0.3C681.2,332.2,681.2,331.4,681.2,330.6z"/>
	<path d="M629.5,131.6c0-1.4,0-2.1,0-2.9C630.8,129.4,630.8,129.4,629.5,131.6z"/>
	<path d="M311.9,219.1c-1-1-1.6-2.1-1.5-3.5l-0.1,0.1C311.4,216.5,311.8,217.8,311.9,219.1L311.9,219.1z"/>
	<path d="M275.9,201.3c-1.2-1.1-1.2-1.7-0.2-2.7C275.8,199.6,275.9,200.2,275.9,201.3z"/>
	<path d="M628.5,322.5c-0.2-1,0.1-1.9,0.6-2.9C629.5,320.8,629.5,321.7,628.5,322.5z"/>
	<path d="M234.1,136.5c-0.4,0.5-0.5,0.8-0.7,0.9c-0.5,0.2-1.1-0.4-1.1-0.9c0-0.2,0.3-0.6,0.3-0.5C233,136.1,233.4,136.3,234.1,136.5
		z"/>
	<path d="M630.9,318.6c-1.5,0.4-2.6-0.5-3.6-1.4l-0.1,0.1C628.7,317.1,629.9,317.6,630.9,318.6L630.9,318.6z"/>
	<path d="M282.5,360.1c0-1.2-0.1-2.5,0.4-3.7C283.1,357.7,283.5,358.9,282.5,360.1L282.5,360.1z"/>
	<path d="M629.9,127c-0.9-0.6-0.5-1.3-0.4-2.1C630.9,125.7,630.9,125.7,629.9,127z"/>
	<path d="M279.7,368c0-1.4,0.4-2.6,1.5-3.5l-0.1-0.1C281,365.8,280.5,366.9,279.7,368L279.7,368z"/>
	<path d="M632.1,264.2c-0.2,0.7-1,1.1-1.5,0.7c-0.2-0.1-0.4-0.8-0.3-0.9c0.3-0.2,0.8-0.4,1.2-0.5C631.7,263.6,631.9,264,632.1,264.2
		z"/>
	<path d="M233.1,225c1.3,0.8,1.3,1.4,1,2.1c-0.1,0.2-0.3,0.3-0.5,0.3c-0.2,0-0.5-0.2-0.5-0.3C233,226.6,233.1,226,233.1,225z"/>
	<path d="M668.7,367.9c0.1,1.4-0.5,2.5-1.4,3.6l0.1,0.1C667.3,370.2,668,369.1,668.7,367.9L668.7,367.9z"/>
	<path d="M688.7,240.3c-1.4,0.5-1.9-0.3-2.9-0.8C687.2,239,687.2,239,688.7,240.3z"/>
	<path d="M607.3,162.7c0.4,1.5-0.1,2.1-0.9,2.6C605.6,164.3,606.3,163.7,607.3,162.7z"/>
	<path d="M299.7,239.1c-1.1,0.3-2,0.1-2.7-1.2C298.4,237.7,299.2,238,299.7,239.1L299.7,239.1z"/>
	<path d="M325.4,354.1c0.1-1.2,0.1-1.6,0.2-1.9c0.1-0.1,0.4-0.2,0.5-0.3c0.1,0.2,0.3,0.4,0.2,0.6
		C326.3,352.9,326.1,353.1,325.4,354.1z"/>
	<path d="M268.9,204.2c0-0.2,0-0.5,0-0.7c0.1-0.8,0.4-1,1-0.7c0.1,0,0.2,0.1,0.3,0.2c0.1,0.2,0.2,0.4,0.4,0.8
		c-0.7,0.1-1.3,0.2-1.8,0.3L268.9,204.2z"/>
	<path d="M719.3,358.5c0.1,1.4,0.1,2.1,0.2,3.1C718.8,360.4,718.8,360.4,719.3,358.5z"/>
	<path d="M711.7,322.9c1.3,1,1.5,1.6,0.9,2.6C712.4,324.7,712.2,324.2,711.7,322.9z"/>
	<path d="M671,362.2c0.2-1.2-0.2-2.5,0.8-3.4l-0.1-0.1c0,0.8,0,1.6-0.1,2.4C671.5,361.5,671.1,361.8,671,362.2L671,362.2z"/>
	<path d="M324.5,327.1c0,0.8,0,1.6,0,2.4c-0.1,0-0.2,0-0.3,0c0-0.8,0-1.6,0-2.4C324.3,327.1,324.4,327.1,324.5,327.1z"/>
	<path d="M316.1,351.6c0.3-0.6,0.6-1.2,1-2c0.4,0.3,0.9,0.5,0.9,0.8c0,0.3-0.3,0.8-0.7,0.9C317,351.5,316.5,351.4,316.1,351.6
		L316.1,351.6z"/>
	<path d="M293,330c0,0.8,0,1.7,0,2.5c-0.1,0-0.2,0-0.4,0c-0.1-0.8-0.1-1.7-0.2-2.5C292.6,330,292.8,330,293,330z"/>
	<path d="M329.9,357.7c0.9,1,0.4,1.8,0,2.6C329.9,359.5,329.9,358.7,329.9,357.7z"/>
	<path d="M657.3,281.4c-0.5,1.3-0.5,1.3-1.9,2C656,282.3,656.3,281.5,657.3,281.4L657.3,281.4z"/>
	<path d="M634.5,63.4c0,0.6,0,1.2,0,1.9C633.6,64.5,633.6,64.5,634.5,63.4z"/>
	<path d="M313.2,224.2c-0.8-0.8-0.7-1.9-0.7-2.9l-0.1,0.1C313.6,222.1,313.1,223.3,313.2,224.2L313.2,224.2z"/>
	<path d="M222.5,189.1c0.2,0.2,0.3,0.4,0.4,0.5c-0.2,0.2-0.5,0.3-0.7,0.5c0,0-0.2-0.2-0.2-0.2C222.2,189.6,222.3,189.4,222.5,189.1z
		"/>
	<path d="M222.9,186.6c-0.1-0.2-0.2-0.4-0.2-0.6c0.1-0.1,0.4-0.2,0.6-0.3c0.1,0.2,0.2,0.4,0.2,0.6
		C223.4,186.5,223.1,186.5,222.9,186.6z"/>
	<path d="M220.8,142.2c0.2,0.1,0.4,0.1,0.5,0.2c0.1,0.1-0.1,0.3-0.2,0.5c-0.2-0.1-0.5-0.1-0.5-0.2
		C220.5,142.6,220.7,142.4,220.8,142.2z"/>
	<path d="M621.6,326.5c-0.2,0.9-0.4,1.8-1.5,2.1l0.1,0.1C620.2,327.6,620.5,326.8,621.6,326.5L621.6,326.5z"/>
	<path d="M327.4,283.1c0,0.7,0,1.5,0,2.2c-0.1,0-0.3,0-0.4,0c0-0.7,0-1.5,0-2.2C327.1,283.1,327.3,283.1,327.4,283.1z"/>
	<path d="M609,159c-0.1,0.2-0.1,0.5-0.3,0.6c-0.1,0.1-0.4,0.2-0.5,0.2c0,0-0.1-0.2-0.1-0.3c0-0.2,0-0.5,0.1-0.7
		c0.1-0.2,0.4-0.3,0.5-0.3C608.8,158.5,608.9,158.8,609,159z"/>
	<path d="M664,200.1c1,0.7,0.5,1.4,0,2C664,201.5,664,200.8,664,200.1z"/>
	<path d="M212.6,132.1c0.9,0.4,1.2,1,0.9,1.8C212.8,133.4,212.6,132.9,212.6,132.1z"/>
	<path d="M233.8,323.6c-0.2,0.9-0.4,1.8-1.5,2.1l0.1,0.1C232.5,324.8,232.8,324,233.8,323.6L233.8,323.6z"/>
	<path d="M716.3,348.3c0.4,0.5,0.4,0.9-0.1,1.2c-0.1,0.1-0.3,0.1-0.3,0.1c-0.1-0.2-0.3-0.4-0.2-0.5
		C715.8,348.8,716.1,348.5,716.3,348.3z"/>
	<path d="M632.6,98.5c0.7,0.9,0.6,1.6-0.1,2.3C631.8,100.1,632,99.4,632.6,98.5z"/>
	<path d="M669.6,366.6c0-0.8-0.2-1.6,0.7-2.1l-0.1-0.1C670.1,365.2,670.3,366,669.6,366.6L669.6,366.6z"/>
	<path d="M275.3,235c0.4,0,0.8,0.1,1.2,0.1c0,0.1,0,0.2,0,0.4c-0.4,0-0.8,0-1.2-0.1C275.2,235.3,275.3,235.1,275.3,235z"/>
	<path d="M283,234.8c-0.1,0.1-0.2,0.3-0.3,0.4c-0.1-0.2-0.2-0.3-0.3-0.5c0,0,0.2-0.2,0.2-0.2C282.7,234.6,282.8,234.7,283,234.8z"/>
	<path d="M627.5,164.9c0-0.4,0-0.8,0-1.2c0.1,0,0.2,0,0.3,0c0,0.4,0,0.8,0,1.2C627.7,164.9,627.6,164.9,627.5,164.9z"/>
	<path d="M624.2,177.5c-0.2-0.2-0.5-0.3-0.5-0.4c0-0.3,0.2-0.6,0.3-0.9c0.2,0.1,0.4,0.2,0.4,0.3
		C624.4,176.8,624.3,177.1,624.2,177.5z"/>
	<path d="M630.9,33.8c-1,0-0.9-1.1-1.5-1.5l-0.1,0.1c0.5,0,1.1,0,1.6,0l-0.1-0.1C630.8,32.9,630.8,33.4,630.9,33.8L630.9,33.8z"/>
	<path d="M670.9,362.1c0.1,0.8,0.2,1.7-0.6,2.3l0.1,0.1C670.3,363.7,670.2,362.8,670.9,362.1L670.9,362.1z"/>
	<path d="M626.1,169.7c-0.2,0.2-0.4,0.4-0.7,0.6c-0.1-0.1-0.2-0.2-0.2-0.3c0.2-0.2,0.4-0.5,0.6-0.7
		C625.9,169.5,626,169.6,626.1,169.7z"/>
	<path d="M201.8,156.7c-0.4,0.3-0.6,0.6-0.9,0.8c0,0-0.4-0.3-0.3-0.4c0.2-0.3,0.4-0.5,0.6-0.7C201.1,156.3,201.4,156.5,201.8,156.7z
		"/>
	<path d="M281.8,362.2c0.1-0.8-0.2-1.6,0.7-2.1l-0.1-0.1C282.3,360.8,282.7,361.7,281.8,362.2L281.8,362.2z"/>
	<path d="M323.5,323.9c-0.1-0.3-0.2-0.6-0.1-1c0-0.1,0.2-0.3,0.3-0.4c0.1,0.1,0.2,0.2,0.2,0.3c0,0.4-0.1,0.8-0.1,1.1
		C323.7,324,323.6,323.9,323.5,323.9z"/>
	<path d="M222.1,199.8c0.2,0.4,0.4,0.8,0.5,1.1c-0.2,0.1-0.5,0.2-0.6,0.2C221.6,200.8,221.5,200.4,222.1,199.8z"/>
	<path d="M657.4,281.4c0.1-0.3,0.1-0.7,0.3-0.9c0.1-0.1,0.4-0.1,0.6-0.1c0,0.2,0.1,0.5,0,0.6C657.9,281.1,657.6,281.2,657.4,281.4
		L657.4,281.4z"/>
	<path d="M250.2,328.7c0.5,0,0.9,0.1,1.6,0.1C251,329.3,250.6,329,250.2,328.7L250.2,328.7z"/>
	<path d="M203.1,194c0.6,0.7,0.9,1.4,0.6,2.3l0.1-0.1c-1.1-0.5-0.7-1.4-0.6-2.3L203.1,194z"/>
	<path d="M197.1,143c0,0.5,0,1,0,1.5c-0.1,0-0.2,0-0.3,0c0-0.5,0-1,0-1.5C196.8,143,196.9,143,197.1,143z"/>
	<path d="M638,329.4c0.5,0,1,0,1.8,0C638.9,330.2,638.5,329.9,638,329.4L638,329.4z"/>
	<path d="M281.1,364.5c0-0.8-0.2-1.7,0.6-2.3l-0.1-0.1C281.7,363,281.8,363.8,281.1,364.5L281.1,364.5z"/>
	<path d="M286.5,330.7c0,0.2,0.1,0.4,0.1,0.6c0,0-0.2,0-0.3,0.1c0-0.2,0-0.4,0.1-0.6C286.3,330.7,286.4,330.7,286.5,330.7z"/>
	<path d="M312.5,221.3c-0.9-0.6-0.7-1.4-0.6-2.3l-0.1,0.1C312.7,219.7,312.5,220.6,312.5,221.3L312.5,221.3z"/>
	<path d="M701,221.3c-0.8-0.6-0.7-1.4-0.6-2.3l-0.1,0.1C701.1,219.7,701,220.6,701,221.3L701,221.3z"/>
	<path d="M666.7,373c0.1-0.5,0-1.2,0.8-1.4l-0.1-0.1C667.3,372.1,667.3,372.7,666.7,373L666.7,373z"/>
	<path d="M278.1,370.8c0,0.2,0,0.4,0,0.7c0,0.1-0.1,0.2-0.1,0.3c-0.1-0.1-0.3-0.3-0.2-0.4C277.9,371.2,278,371,278.1,370.8
		L278.1,370.8z"/>
	<path d="M278.9,369.4c-0.1,0.6,0.1,1.3-0.8,1.4l0.1,0.1C278.4,370.4,278.7,369.9,278.9,369.4L278.9,369.4z"/>
	<path d="M278.9,369.5c0-0.6-0.1-1.3,0.7-1.5l-0.1-0.1C279.5,368.5,279.6,369.2,278.9,369.5L278.9,369.5z"/>
	<path d="M214.7,135.3c-0.1,0-0.2-0.1-0.3-0.1c0.1-0.1,0.2-0.2,0.3-0.3c0,0,0.2,0.1,0.2,0.2C214.9,135.2,214.8,135.2,214.7,135.3z"
		/>
	<path d="M634.3,69.6c-0.1,0.1-0.1,0.2-0.2,0.2c0-0.1-0.1-0.2-0.1-0.3c0-0.1,0.1-0.2,0.2-0.2C634.2,69.4,634.3,69.5,634.3,69.6z"/>
	<path d="M224.9,144.4c-0.1-0.2-0.2-0.4-0.2-0.6c0-0.1,0.1-0.2,0.2-0.2c0.1,0.1,0.2,0.2,0.2,0.2C225.1,144,225,144.2,224.9,144.4z"
		/>
	<path d="M197.4,147.3c-0.1,0-0.2,0.1-0.3,0.1c0-0.1-0.1-0.3-0.1-0.4c0.1,0,0.2,0,0.3,0.1C197.4,147.1,197.4,147.2,197.4,147.3z"/>
	<path d="M666.6,372.9c-0.1,0.3-0.1,0.5-0.1,0.3C666.4,373.3,666.5,373.2,666.6,372.9L666.6,372.9z"/>
	<path d="M327.5,348.1c-0.2,0.1-0.3,0.1-0.5,0.2c0-0.2,0-0.4,0-0.6c0-0.1,0.2-0.1,0.2-0.2C327.4,347.7,327.4,347.9,327.5,348.1z"/>
	<path d="M622.2,346.4c-0.1,0.3-0.2,0.5-0.2,0.8c0-0.1-0.1-0.2-0.1-0.3C622,346.8,622.2,346.6,622.2,346.4L622.2,346.4z"/>
	<path d="M652.1,185.5c0,0.1-0.1,0.2-0.1,0.3c-0.1-0.1-0.1-0.3-0.2-0.4c0,0,0.1-0.1,0.2-0.2C652.1,185.4,652.1,185.5,652.1,185.5z"
		/>
	<path d="M620.1,328.6c0.2,0.7,0,1.2-0.7,1.5l0.1,0.1C619.4,329.5,619.4,328.9,620.1,328.6L620.1,328.6z"/>
	<path d="M622.2,325c0.1,0.7,0,1.2-0.6,1.5l0.1,0.1C621.5,325.9,621.6,325.3,622.2,325L622.2,325z"/>
	<path d="M240.9,325.1c0.2,0,0.4,0,0.6,0c0.1,0,0.2,0.2,0.3,0.3c-0.2,0-0.4,0.1-0.6,0.1C241.2,325.4,241.1,325.2,240.9,325.1
		L240.9,325.1z"/>
	<path d="M236.1,314.9c-0.6,0-1.3,0.2-1.5-0.7l-0.1,0.1C235,314.6,235.5,314.8,236.1,314.9L236.1,314.9z"/>
	<path d="M262.2,310.9c-0.1,0.1-0.1,0.2-0.2,0.3c0-0.1-0.1-0.2-0.1-0.3c0-0.1,0.1-0.2,0.2-0.3C262.1,310.6,262.2,310.8,262.2,310.9z
		"/>
	<path d="M704.2,284c-0.2,0-0.3,0.1-0.4,0.1c0,0,0-0.1-0.1-0.2C703.9,283.9,704,283.9,704.2,284z"/>
	<path d="M625.7,212.8c-0.1,0.1-0.2,0.2-0.4,0.2c0-0.2-0.1-0.4-0.1-0.6c0-0.1,0.1-0.1,0.2-0.2C625.6,212.4,625.7,212.6,625.7,212.8z
		"/>
	<path d="M626.4,217.3c-0.1-0.1-0.4-0.2-0.4-0.4c0-0.2,0.1-0.4,0.2-0.5c0.1,0.1,0.4,0.2,0.4,0.3
		C626.6,216.9,626.5,217.1,626.4,217.3z"/>
	<path d="M247.4,224.2c0.1,0,0.3-0.1,0.3-0.1c0.2,0.2,0.4,0.4,0.6,0.5c-0.1,0.1-0.2,0.2-0.3,0.1
		C247.8,224.6,247.6,224.4,247.4,224.2L247.4,224.2z"/>
	<path d="M233.1,235.6c-0.2-0.1-0.3-0.2-0.5-0.4c0,0,0.1-0.2,0.1-0.3C232.8,235.2,233,235.4,233.1,235.6L233.1,235.6z"/>
	<path d="M664.2,236c0.1,0,0.2-0.1,0.3-0.1c0,0.1,0.1,0.3,0.1,0.4c-0.1,0-0.2,0-0.3-0.1C664.2,236.1,664.2,236,664.2,236z"/>
	<path d="M671.6,235.7c0.1,0.1,0.3,0.2,0.4,0.3c-0.2,0.1-0.4,0.2-0.6,0.2c-0.1,0-0.2-0.1-0.2-0.2
		C671.3,235.9,671.4,235.8,671.6,235.7z"/>
	<path d="M692.5,241.1c-0.1,0-0.2,0.1-0.3,0.1c0,0-0.1-0.1-0.1-0.2c0.1,0,0.2-0.1,0.3,0C692.4,240.9,692.5,241,692.5,241.1z"/>
	<path d="M669.5,366.5c-0.1,0.6,0.1,1.3-0.8,1.5l0.1,0.1C668.9,367.4,668.8,366.8,669.5,366.5L669.5,366.5z"/>
	<path d="M671.8,358.8c0-0.2-0.1-0.4-0.1-0.6c0-0.1,0.1-0.2,0.1-0.3c0.1,0.1,0.3,0.3,0.3,0.4C672,358.4,671.8,358.5,671.8,358.8
		L671.8,358.8z"/>
	<path d="M715.2,353.8c-0.1,0.1-0.2,0.2-0.4,0.3c-0.1-0.2-0.2-0.4-0.2-0.6c0-0.1,0.2-0.2,0.4-0.3
		C715.1,353.4,715.1,353.6,715.2,353.8z"/>
	<path d="M618.1,358c0.1-0.3,0.2-0.5,0.3-0.8c0,0.1,0.1,0.2,0.1,0.3C618.3,357.7,618.1,357.8,618.1,358L618.1,358z"/>
	<polygon points="315,283 315.1,283.2 314.9,283.2 	"/>
	<polygon points="312.9,284.1 312.8,283.8 313,283.9 	"/>
	<polygon points="265.2,138.3 265.4,138.4 265.3,138.3 	"/>
	<path d="M713.1,367.9c0.1-0.1,0.1-0.1,0.2-0.2C713.2,367.7,713.2,367.8,713.1,367.9L713.1,367.9z"/>
	<path d="M299.6,239.2c0.1,0.1,0.2,0.1,0.3,0.2C299.8,239.3,299.8,239.2,299.6,239.2L299.6,239.2z"/>
	<path d="M247.5,128.3c-0.1,0-0.2-0.1-0.3-0.1C247.2,128.2,247.3,128.3,247.5,128.3L247.5,128.3z"/>
	<path d="M324.6,366.6c0,0.1-0.1,0.2-0.1,0.3C324.6,366.8,324.6,366.7,324.6,366.6L324.6,366.6z"/>
	<polygon points="324.7,366.6 324.8,366.4 324.6,366.6 	"/>
	<polygon points="713.1,367.8 713.1,368.1 713.1,367.9 	"/>
	<polygon points="687.4,364.3 687.3,364.6 687.4,364.4 	"/>
	<path d="M247.4,224.1c-0.2-0.1-0.4-0.2-0.6-0.2C247.4,223.5,247.4,223.8,247.4,224.1L247.4,224.1z"/>
	<path d="M245.2,223.5c0.2,0.1,0.4,0.1,0.6,0.2C245.3,224.2,245.3,223.8,245.2,223.5L245.2,223.5z"/>
	<path d="M640.9,162.7c0-0.1,0-0.2,0.1-0.3C641,162.5,640.9,162.5,640.9,162.7L640.9,162.7z"/>
	<polygon points="280.9,406.6 281.1,406.7 281,406.6 	"/>
	<polygon points="266.7,390.8 266.6,391 266.8,390.9 	"/>
	<path d="M663.8,197.7c0,0.1-0.1,0.2-0.1,0.2C663.7,197.8,663.8,197.8,663.8,197.7L663.8,197.7z"/>
	<path d="M203.7,196.3c0.1,0.1,0.2,0.2,0.3,0.3c-0.1,0-0.2,0-0.2-0.1C203.8,196.4,203.8,196.3,203.7,196.3L203.7,196.3z"/>
	<path d="M598.6,459.4c0.6,0.9,1.1,1.4,1.3,2c0.9,2.9,1.8,5.9,1.6,9.5c-0.6-0.5-1.1-0.7-1.2-1c-0.8-3.1-1.5-6.2-2.3-9.3
		C598,460.4,598.2,460.2,598.6,459.4z"/>
	<path d="M594.4,456.3c1.1-2.2,2-4.1,2.9-6c0-0.1,0.2-0.1,0.3-0.1c0.6,2,0.2,3.6-1.3,5.7C596.1,456.2,596.1,456.2,594.4,456.3z"/>
	<path d="M595.4,507.9c-0.5-3.3-0.5-3.4,0.8-5.5C596.8,504.5,596.7,505.9,595.4,507.9z"/>
	<path d="M605.2,448.1c0.2,1.9-0.6,3.5-1.8,4.9C602.9,451,603.2,449.2,605.2,448.1L605.2,448.1z"/>
	<path d="M606.8,444.4c-0.3-1.8,0.1-2.1,1.8-1.6C608.5,443.9,607.7,444.2,606.8,444.4z"/>
	<path d="M596.8,499.3c-0.6-2.4-0.6-2.4,0.6-3.4C597.5,497.6,597.5,497.6,596.8,499.3z"/>
	<path d="M598.4,448c-0.8-0.8-0.6-1.4-0.2-2c0.1-0.2,0.6-0.2,0.8-0.3c0.1,0,0.3,0.4,0.3,0.6C599,446.9,598.7,447.4,598.4,448z"/>
	<path d="M605.1,448.1c-0.1-1-0.1-2,1.1-2.6C606,447,606,447,605.1,448.1L605.1,448.1z"/>
	<path d="M599.7,441c0.3,0.5,0.6,0.8,0.6,1c0,0.3-0.3,0.6-0.6,0.7c-0.2,0.1-0.7-0.4-0.7-0.5C599.1,441.9,599.3,441.6,599.7,441z"/>
	<path d="M597.6,494.2c-0.1-0.2-0.2-0.4-0.2-0.6c0.1-0.4,0.4-0.7,0.6-1c0,0,0.5,0.1,0.5,0.3c0.1,0.6,0,1.1-0.6,1.4
		C597.8,494.2,597.7,494.2,597.6,494.2z"/>
	<path d="M602.2,435.4c0.3,0.1,0.4,0.2,0.6,0.3c-0.2,0.2-0.4,0.5-0.6,0.7c-0.1,0-0.3-0.2-0.5-0.3
		C601.9,435.9,602.1,435.6,602.2,435.4z"/>
	<path d="M602.3,478.3c-0.2,0.2-0.3,0.4-0.5,0.5c-0.2-0.2-0.4-0.4-0.5-0.7c0-0.1,0.3-0.3,0.4-0.4
		C601.9,477.9,602.1,478.1,602.3,478.3z"/>
	<path d="M601.8,474.1c-0.1,0.2-0.1,0.4-0.3,0.6c-0.1,0.1-0.5-0.1-0.5-0.2c0-0.2,0.1-0.4,0.2-0.6C601.4,474,601.6,474.1,601.8,474.1
		z"/>
	<path d="M210,458.7c0.3,0.4,0.7,0.8,0.9,1.2c0.6,2.5,1.2,5,1.8,7.5c0.1,0.6,0,1.3,0,2c-0.4-0.1-0.8,0-0.8-0.2
		c-1.4-3.1-1.8-6.5-2.6-9.8C209.2,459.3,209.6,459,210,458.7z"/>
	<path d="M205.7,455.1c0.9-2.1,1.8-4,2.7-6.1c0.4,0.3,0.8,0.5,0.8,0.7c0,2.1-0.7,3.9-2.2,5.5c-0.1,0.1-0.4,0.2-0.7,0.2
		C206.4,455.3,206.3,455.2,205.7,455.1z"/>
	<path d="M217.3,444.8c0,0.3,0.1,0.7,0,1c-0.7,2-1.4,4-2.2,5.9c-0.1,0.2-0.4,0.2-0.6,0.3c-0.6-0.1-0.7-0.6-0.6-1
		C214.4,448.7,215.9,446.9,217.3,444.8z"/>
	<path d="M207.2,507c-0.6-0.7-1-1-1-1.4c-0.3-1.5,0.2-3,0.8-4.3c0.7-0.1,1,0.2,0.9,0.7C207.7,503.6,207.4,505,207.2,507z"/>
	<path d="M207.8,498.4c-0.5-1.5-0.6-2.7,0.7-4C208.8,496.9,208.8,496.9,207.8,498.4z"/>
	<path d="M217.6,443.7c-0.1-1.7,0.5-2.3,1.5-2.4c0.2,0,0.5,0.3,0.8,0.6c-0.2,0.3-0.4,0.7-0.6,0.9C218.9,443,218.4,443.2,217.6,443.7
		z"/>
	<path d="M210.9,444.5c-0.7,1.2-1,1.8-1.4,2.4c-0.3-0.1-0.4-0.1-0.5-0.2C208.5,446.1,209.1,445.1,210.9,444.5z"/>
	<path d="M211.6,441c-0.4,0.2-0.7,0.4-1.1,0.6c0,0-0.3-0.3-0.3-0.5c0-0.5,0.5-0.9,0.9-0.7C211.3,440.4,211.3,440.7,211.6,441z"/>
	<path d="M213.5,477c-0.3,0.4-0.4,0.6-0.6,0.8c0,0-0.4-0.2-0.4-0.3c0-0.3,0.1-0.7,0.2-1C212.9,476.7,213.2,476.8,213.5,477z"/>
	<path d="M214,434.9c-0.2,0.1-0.5,0.3-0.7,0.4c-0.1-0.2-0.3-0.4-0.2-0.5c0-0.2,0.3-0.3,0.4-0.5C213.6,434.5,213.8,434.6,214,434.9z"
		/>
	<path d="M209.2,491.3c0.7,0.6,0.5,1.2-0.1,1.7C208.4,492.4,208.6,491.8,209.2,491.3z"/>
	<path d="M213,473.3c-0.1,0.1-0.3,0.2-0.4,0.2c0-0.2-0.1-0.4-0.1-0.6c0-0.1,0.2-0.2,0.2-0.2C212.8,472.9,212.9,473.1,213,473.3z"/>
	<path d="M329.7,440.9c1.5-2.9,3.1-5.9,4.6-8.9c0.5-1.1,0.9-2.2,1.4-3.3c0.2-0.3,0.8-0.5,1.2-0.5c0.2,0,0.6,0.5,0.6,0.7
		c0,0.9,0,1.9-0.4,2.8c-1,2.3-2.2,4.5-3.2,6.8C333.1,440.5,331.7,441.3,329.7,440.9L329.7,440.9z"/>
	<path d="M332,468.8c-2.4-2.1-5.2-6-6.4-8.7c0.3-0.7,0.9-0.9,1.4-0.5c0.7,0.6,1.4,1.2,1.9,2c1,1.5,1.9,3,2.7,4.6
		C331.9,466.7,331.8,467.5,332,468.8z"/>
	<path d="M334.7,544.8c1.5,3.2,0.8,5.7,1,8.1c0.1,1,0,1-0.8,2.6c-0.3-0.2-0.7-0.4-0.7-0.7c0-2.8,0-5.6,0-8.4
		C334.2,546,334.4,545.7,334.7,544.8z"/>
	<path d="M333.8,476.8c-1.2-1-1.3-2.1-1.5-3.1c0-0.2,0.3-0.6,0.5-0.8c0.1-0.1,0.5,0,0.6,0.1c0.8,0.8,1.2,1.7,1.1,2.8
		C334.5,476.2,334.1,476.4,333.8,476.8z"/>
	<path d="M334.7,540.6c-0.2-2,0.1-3.3,0.2-4.5c0.9-0.2,1.1,0.1,1.2,0.6C336.1,537.9,336.3,539.2,334.7,540.6z"/>
	<path d="M335.1,423.1c0,1,0,1.8,0,2.9C334.2,424.5,334.2,424.5,335.1,423.1z"/>
	<path d="M337,491.7c-1-1-1.3-1.7-0.6-2.6C337.5,490.1,337.5,490.1,337,491.7z"/>
	<path d="M335,484.2c0.9,0.8,1.1,1.8,0.9,3.1C334.6,486.4,334.5,485.5,335,484.2z"/>
	<path d="M335.9,529.2c0,1.3,0,1.9,0,2.5c-0.8,0-1.1-0.4-1-0.9C335,530.4,335.3,530.1,335.9,529.2z"/>
	<path d="M334.2,479.5c0.5,1.1,0.7,1.7,1.1,2.5C334.1,481.5,334.1,481.5,334.2,479.5z"/>
	<path d="M335.8,525.7c0,0.4,0,0.8,0,1.1c-0.1,0-0.2,0-0.2,0c0-0.4,0-0.8,0-1.1C335.7,525.7,335.7,525.7,335.8,525.7z"/>
	<polygon points="329.7,440.9 329.6,441 329.7,440.9 	"/>
	<path d="M363.8,572.2c-0.4,0.2-0.8,0.5-1.2,0.5c-0.9,0-1.9,0-2.8-0.1c-2-0.1-4-0.4-6,1c-0.4-0.9-0.9-1.5-1-2.1
		c0-0.9,0.6-1.5,1.4-1.9c0.4-0.2,0.9-0.4,1.4-0.4c2,0.1,4,0.1,6,0.3C362.9,569.8,363.1,570.2,363.8,572.2z"/>
	<path d="M718.9,441.7c0.3-0.7,0.7-1.5,1-2.2c1.3-2.8,2.7-5.6,4-8.3c0.2-0.4,0.4-0.9,0.6-1.3c0.2-0.2,0.7-0.5,0.9-0.4
		c0.4,0.1,0.9,0.5,1,0.8c0.1,0.5,0.1,1.2-0.1,1.7c-1.3,2.9-2.7,5.8-4.2,8.7C721.5,442.1,720.2,442.3,718.9,441.7L718.9,441.7z"/>
	<path d="M720.6,469.5c-0.5-0.2-0.8-0.2-0.9-0.4c-1.7-2.3-3.3-4.6-4.9-6.9c-0.4-0.6-0.5-1.3,0.4-1.7
		C718.2,462.3,720.4,465.8,720.6,469.5z"/>
	<path d="M723.5,556.8c-0.2-0.7-0.5-1.2-0.5-1.7c0-2.8-0.5-5.6,0.5-8.7c0.4,0.5,0.9,0.8,1,1.2c0.1,2.8,0.1,5.6,0,8.5
		C724.4,556.2,723.9,556.5,723.5,556.8z"/>
	<path d="M722.7,478.1c-1.2-1.2-1.6-2.4-1.7-3.6c0.6-0.7,1.1-0.6,1.5-0.1C723.3,475.5,723.6,476.5,722.7,478.1z"/>
	<path d="M723.5,541.1c-0.4-1.5,0.2-2.7,0.4-4.1c1.2,0.1,1,0.9,1,1.6C724.9,540.1,724.7,540.4,723.5,541.1z"/>
	<path d="M724.4,488.4c-0.8-1-1-1.8-0.8-3C724.6,486.5,724.6,486.5,724.4,488.4z"/>
	<path d="M725.1,490.1c1.2,1,1.5,1.6,0.9,2.1c-0.1,0.1-0.2,0.1-0.3,0.1c-0.2-0.1-0.4-0.2-0.6-0.4
		C724.6,491.4,724.5,490.7,725.1,490.1z"/>
	<path d="M723.9,483.3c-1-0.3-1-0.9-1.1-1.4c0-0.2,0.1-0.5,0.3-0.5c0.1-0.1,0.5,0.1,0.5,0.2C723.8,482,723.8,482.6,723.9,483.3z"/>
	<path d="M723.2,424.4c1,0.8,1,1.7,0.2,2.9C723.3,426.1,723.3,425.2,723.2,424.4z"/>
	<path d="M724.1,533.5c-0.1-1.1-0.2-1.6-0.2-2.1c0-0.1,0.3-0.4,0.5-0.4c0.2,0,0.4,0.2,0.5,0.4C725.1,532.1,724.8,532.5,724.1,533.5z
		"/>
	<path d="M724.5,526.7c0,0.4,0,0.8-0.1,1.2c-0.1,0-0.2,0-0.3,0c0-0.4,0-0.8,0-1.2C724.3,526.7,724.4,526.7,724.5,526.7z"/>
	<path d="M718.8,441.6c-0.1,0.2-0.1,0.3-0.2,0.5C718.2,441.6,718.7,441.8,718.8,441.6L718.8,441.6z"/>
</g>
</svg>
