<?xml version="1.0" encoding="utf-8"?>
<!-- Generator: Adobe Illustrator 19.1.0, SVG Export Plug-In . SVG Version: 6.00 Build 0)  -->
<svg version="1.2" baseProfile="tiny" id="Layer_2" xmlns="http://www.w3.org/2000/svg" xmlns:xlink="http://www.w3.org/1999/xlink"
	 x="0px" y="0px" width="900px" height="600px" viewBox="144 97 900 600" xml:space="preserve">
<g>
	<path d="M518.8,501.2c2.1,2.3,2.9,5.3,4.5,7.9c0.8,1.3,1.4,2.7,2.8,4c2.8-3.5,4.9-7.3,5.4-11.8c0.4-3.9,1.5-7.8,0.8-11.8
		c-0.4-2.3,0.8-4.3,1.4-6.4c-4.4-6.9-4.4-6.9-0.8-10.1c-3.1-12.1-10.6-20.8-21-27.3c-4.4-2.7-8.8-5.3-13.3-8
		c-3.2-1.9-5.8-4.5-8.1-7.2c-3.7-4.1-8-5.9-13.2-5.9c-4.7,0.1-7.6-2.5-10.4-6.2c-3.7,2.1-8.1-0.1-12.1,1.5c-2.8,8.4-2.1,7.6-9.5,7.5
		c-1.8,2-2.6,4.1-1.3,6.9c1.5,3.1,0.6,6.2-0.7,9.2c-0.4,1-1,2.1-2.8,2.1c2.5-4.9,3.2-9.7,0-14.4c1.3-0.7,1.8-1.8,2-3.1
		c-2.6-3.2-5.9-5.7-9.5-7.7c-4.7-2.6-9.1-5.9-13.1-9.4c-4.3-3.7-8.9-6.8-13.7-9.8c-4.6-2.9-8.9-6.1-12.7-10
		c-0.6-0.6-1.1-1.3-1.8-1.7c-6.8-4-13.1-8.6-19.5-13.9c-2.1,6.7-3,13.2-4.1,19.7c0.1,0.2,0.1,0.4,0.2,0.6c-0.2-0.1-0.4-0.1-0.6-0.2
		c-3.1,3.1-4.9,7-7.4,10.6c6,4.1,11.8,8,17.6,11.9c-7.1-1.9-12.2-7.4-18.6-10.7c-2.2,2.7-4.1,5.4-6.4,7.6c0.8,5.7-2.4,10.4-2.9,15
		c2.3,8.6,7.1,16,6,24.6c3.5,4.3,8.2,4.7,13.4,1.3l-0.1,0.1c3.2-2,4.9-4.4,5.3-8.6c0.6-7-2-14.2,1-21.1c0.9-2.1,1.5-4.4,2.8-6.1
		c1.1-0.5,1.5,0.2,2.1,0.6l0.1-0.1c-2.2,3.7-4.5,7.2-3.2,12.1c0.6,2.3-0.3,5.1-0.5,7.7c-0.1,1.3-0.6,2.5-0.2,4
		c2.8-0.9,4.4,0.8,5.8,2.8c1,1.5,2.3,2.1,4,2.6c3.1,0.9,5.5,2.9,7.9,4.5c0.4,8.5-2.4,15.2-8.9,20c-8.4,6.3-13.7,14.4-15.5,24.7
		c-0.1,0.3-0.2,0.7-0.4,1c-2.4,5.2-13,11.4-18.6,10.8c-2.2-0.2-4.4-0.2-6.6,0c-3.7,0.5-7.3,0.1-10.2-3.6
		c-4.8,19.3-7.7,38.7-15.1,57.6c0.2-3.9,0.8-7.2,1.9-10.1c2.6-7.1,3.6-14.5,5.3-21.8c3.8-16.8,7.8-33.6,11.3-50.5
		c2.2-11,4.4-22.1,5.3-33.4c0.2-2.8,1.2-5.5,2-8.2c2.2-7.3,3.7-14.8,6.5-21.9c0.4-0.9,0.7-1.8,0.3-2.8c-1-0.4-1.7,0.3-2.3,0.9
		c-8.5,7.4-17,14.9-25.5,22.3c-1.1,1-1.3,2.1-1.6,3.4c-3,14.7-6,29.4-9.1,44.1c-1.2,5.7-2.6,11.5-4.8,16.9
		c-1.9,4.6-1.6,9.6-2.5,14.4c-1.9,9.9-5.4,19.5-7,29.4c-1.2,7.2-3,14.2-3.4,21.6c-0.2,3.5-1.5,6.8-2.8,10.4c-2.2-2-0.6-3.5-0.3-5
		c0.4-1.7,1.3-3.3,1.4-5.1s0-3.5,0-5.5c-2,0.2-3.4,1.5-4.6,2.1c-2.9,9.1-4.4,18-5.8,27.4c-2.5-1.5-0.9-3.6-1.7-5.2
		c-22.1-2.4-43.7-7.9-66.4-10.2c0.7-0.9,0.9-1.4,1.1-1.4c4.5,0.8,9.1,0.5,13.5,2.2c0.6,0.2,1.4,0.2,2.1,0.2c5.5-0.3,10.7,0.8,16,1.8
		c10.6,1.9,21.1,4.5,31.9,5.3c0.8,0.1,1.6,0.4,2.6-0.3c0.8-6.7,3.4-13.1,4.9-19.8c1.9-1.5,3.8-3.1,5.9-4.4c1.5-1,1.7-2.4,2-3.9
		c1.1-6.1,1.9-12.3,3.3-18.4c1.6-6.9,4.3-13.6,5.2-20.7c1.5-12,5.5-23.4,8.3-35.1c3.2-13.6,5.2-27.4,8.5-40.9c0-0.2-0.1-0.4-0.2-0.7
		c-8.1,3.9-15.2,9.1-22.1,15.1c1.6,1.6,2.7,3.2,3.8,4.9c4.8,7.1,4.3,14.4,0.6,21.7c-7.7,14.9-31.3,24.9-47.3,20.2
		c-7-2.1-11.5-6.6-12.9-13.9c-0.4-2-1.1-4-1.9-6.7c-4.4,5.9-9.9,9.7-16,12.6c-9.2,4.4-18.8,6.7-29,3.7c-6.7-1.9-11.2-6.2-12.6-13.3
		c-0.1-0.3-0.1-0.7-0.3-1c-3.6-6.7-0.4-12.5,2.6-18.3c-0.6-1.4-2.7-2.6-1.4-4.8c3.7,2.8,6.1,6.2,5.6,10.6c3.1,1.2,6,1.8,7.1,4.9
		c0.2,0.5,1.1,1,1.7,1.1c6.5,0.8,12.9,1.1,18.6-2.8c2.5-1.7,3.8-5,3.4-9.1c-6.3,5.7-13.2,9.4-22.1,7.3c0.6-1.6,1.7-0.9,2.5-1
		c5.1-0.3,10-1,14.1-4.6c3-2.6,3.4-3.5,2.7-8c-3.9,2.1-6.5,6.3-10.8,7.5c-4.2,1.1-8.5,1.3-12.8,1.1c-0.2-1.6,0.7-1.5,1.5-1.6
		c2.2-0.2,4.4-0.6,6.7-0.6c3.8-0.1,6.8-1.6,9.3-4.2c1.6-1.7,3.6-2.9,5-4.8c0.7-1,1.4-1.8,0.8-3.1c-1.1-0.3-0.8,1.1-1.4,1.2
		c-6.1,0.9-10.9,5.6-17.2,5.7c-1.9,0-3.7,0.5-5.5-0.6c-1-0.6-2.1,0-3.1,0.1c-5.6,0.8-11,0.4-16.3-1.8c-5.9-2.4-9.2-6.9-11.2-13
		c-4.1-12.7,2.3-21.1,11-28.5c5-4.3,10.9-7.2,17.3-9.2c0-3.1,0.1-6.1,0-9c-0.2-6.8,0.9-13.3,3.8-19.5c0.2-0.5,0.4-1.1,0.5-1.7
		c0.1-7.6,3.5-14,7.5-20c2.5-3.7,3.8-7.3,3.4-12c-0.6-8.6,1.5-17.1,5.1-24.9c2.4-5.2,5.2-10.3,8.5-15c1.3-1.8,1.7-3.7,1.4-5.9
		c-1.2-8.7-1.2-17.2,1.7-25.7c2.1-6,5.5-11.1,9.7-15.8c5.1-5.9,10.3-11.5,17.5-15.3c-4.8-8.1-5.8-17.4-9.7-25.5
		c-2.1,0-3.8,1.7-5.9,0.4c0.2-1.1,1.3-2.6-0.4-3.3c0.5-1.8,1.8-2.7,2.7-3.9c-1.1-1.8-2.5-3.4-4.8-3.9c1.1-2.8,4.1-2.5,5.9-4.3
		c-1.2-0.7-2.9,0.1-3.8-1.5c1.1-2.1,3.7-1.5,5.7-3c1-5.7,3.4-11.4,7.8-16c4.9-4.6,11-7.5,18.3-7.6c-0.3-2-1.8-2.7-1.9-4.3
		c1.9-1.6,3.2,0.5,4.8,0.9c0.3-0.9-0.4-2,1.2-2.6c1-0.2,2,1,3.2,1.3c0.9,0.2,0.9-1,1.6-1.1c0.9-0.3,1.2,1.2,2.6,0.6
		c1.3-1.8,3.8-0.6,5.7-1.4c1,0.8,0.1,1.9,1.2,3c5.2,3.2,13,1.7,17.1,8.1c0.2,1.7,1.5,3.3,2.7,4.8c6,7.5,9.5,15.9,9.2,25.6
		c0,0.7-0.1,1.4,0.4,2c0.3,0.5,0.7,1,0.6,1.6c-0.3,0.8-1.1,0.6-1.9,0.6c2.4,3.8,4,7.3,2.7,11.5c-0.3,1.4,0.8,2.1,1.5,2.9
		c2.4,2.7,3.7,5.9,4.1,9.4c0.2,1.3-0.2,2.3-1.6,2.9c-3.4-0.9-1.5-4.6-3-6.1c3.1,9,3.2,9.6,1.5,13c-2.3,0.4-2.9-1.1-3.4-2.9
		c-0.7-2.8-0.6-5.8-2.7-8.9c-2.2,6.4-0.9,12.8-3.9,18.4c-2.9,5.5-6.6,10.5-9.8,15.5c0,1.8,1.2,2.4,2,3.4s1.1,2.1,0.5,3.2
		c-0.7,1.1-1.9,1.8-3,1.2c-4.3-2.2-7.4-0.3-10.9,2.1s-7.9,1.9-12,1.9c-1.2,0-2.3-0.5-3.9-0.1c-0.2,3.8,0.8,7.5,2.5,11
		c0.8,1.6,2.6,2,4.3,1.9c8.1-0.2,16.2,0.2,24.1,1.8c3.2,0.6,6.6-1.9,8.6-5.9c-2.1-2.4-2.6-4.9,0.4-7.3c0.9-0.7,0.9-2.1,1-3.3
		c0.9-7.9,2.8-15.7,4.8-23.4c1.8-6.6,4.2-13.1,5.3-19.8c0.7-4-0.4-5.8-3.9-7.7c-1.2-0.6-2.7-1.1-2.2-3c10,1.1,19.8-1.8,29.8-1.6
		c3.1,0.1,6.1,0.5,9,1.3c2.5,0.7,4.6,2,5.9,4.2c1.3,2.3,3.3,3.2,5.5,4c2.1,0.8,4.3,1.3,6.3,2.2c5.9,2.4,10.5,6.4,13.1,12.2
		c2.3,5,5.4,9.5,8.6,13.9c6,8.3,11.1,17.1,16.1,26c0.8,1.4,1.7,2.8,2.6,4.4c1.7,0.3,3.4,0.8,5.1,0.9c8.8,0.1,15.3,4.6,21.2,10.4
		c2.5,2.5,4.9,5,7.1,7.8c1.7,2.3,3.4,4.7,3.9,7.5c2,10.9,8.2,19.7,14.4,28.3c5.5,7.7,11.4,15.2,17.5,22.5c2.4,2.9,3.5,5.9,3.5,9.5
		c0,2.4,1.1,3.7,3.1,4.6c3.7,1.6,7.4,3,11.3,3.8c8.5,1.7,15.4,5.8,20.8,12.7c4.7,6,9.8,11.9,12.1,19.3c2.6,8.2,7.1,15.5,10,23.5
		c0.2,0.5,0.5,1.1,0.9,1.5c2.5,3.1,5,6.2,7.3,9.1c4.6,0.3,8.7,1.5,13.1,1c2.6-0.3,5.4,5.4,4.7,8.7c-1.3,6.6-2.7,13.3-2.3,20.1
		c0.1,1.2,0.3,2.3,0.6,3.4c1.6,6.4,2.5,12.9,2.9,19.4c0.1,1.6,0,3.1-1,4.4c-4.4,5.4-8.8,10.7-15.3,13.7c-6,2.8-12.3,2.7-18.7,1.9
		c-1-0.1-2.1-0.3-3.1-0.4c-5-0.3-7.8-3.6-7.3-8.7c-2.9,0.9-5.1,2.8-7.5,4.5c-2.2-0.8-4.5-1.1-6.8-1.2c-5.6-0.4-11.2-1.2-16.8-2.1
		c-7-1.1-13.9-1.7-21-1.3c-8.8,0.5-17.5-1.6-26.2-2.4c-11.7-1.1-23.3-2.7-34.9-4.2c-1.5-0.2-3.2,0-3.4-2.2l-0.1,0.1
		c3.9-0.1,7.7,0.5,11.5,1.4c6.1,1.5,12.3,1.4,18.5,1.8c9.5,0.6,18.8,2.8,28.3,3.4c0.8,0,1.6,0.2,2.5,0.2c12.3-0.8,24.3,1.5,36.3,3.4
		c3.7,0.6,7.5,0.5,11.2,1.8c2.9-2.5,6.3-4.5,10.2-6.1c-2.7-3.2-4.4-6.6-6.1-10.1C519,503.6,518.3,502.5,518.8,501.2L518.8,501.2z"/>
	<path d="M857.7,341.1c0.4,2.5-1.2,3.3-3.3,3.5c-1.5,0.2-3.1-0.3-3.8,1.3c-1.9-0.1-3.3-1.9-5.7-0.7c3.3,5.5,8.9,8.5,12.9,12.8
		c6.7-1.2,13.4,1.4,16.9,7.1c-2.6-1.3-4.4-2.6-6.6-3.3c-2.2-0.7-4.4-1.6-7.4-1.9c3.9,1.8,5.3,5.4,8.5,7.3c-1.3,7.1-2.7,14-2.4,21.1
		c-1.1-6.4-0.4-12.7,1.2-19c-4.9-4.9-9.7-9.7-15.8-12.8c-3.9-2-6.4-5.5-9.8-7.9c-5.7-3.9-11.1-8.2-16.7-12.4
		c-4.2-3.2-8.3-6.5-12.4-9.8c-3.2-2.6-7-4.2-10.8-6.3c-1.9,6.1-2.2,12.3-3.5,18.9c-0.8-2.5-0.2-4.5,0.1-6.4c0.3-2.2,0.6-4.4,1-6.6
		c0.4-2.1,0.9-4.1,1.5-6.3c-6.4-3.9-12.9-7.3-18.9-11.6c-5.9-4.2-12.2-6.5-19.4-7.5c-9.6-1.3-19.1-3.6-28.8-4.7
		c-6.9-0.8-14-0.7-20.8,1.3c-1.8,2.7-0.8,5.9-2.4,8.5c-0.7-2.6,0.8-4.9,0.4-7.4c-6.7,0.7-8.4,2.3-9.7,8.9c-0.4,2.1-0.6,4.3-1.9,6.2
		c-0.1-5.6-0.3-11.2,4.6-15.5c2.4,0.4,3.9-1.5,6.1-2.6c-5.1-5.3-4.9-12.4-7.8-18.8c-2.6-1.5-5.8-2.1-8.7-3.7
		c-8.1-4.2-12.3-11.3-14.8-19.7c-0.4-1.4-0.5-3-0.1-4.5c2.1-0.6,2.7,0.9,3.1,2.4c0.7,2.4,1.5,4.7,2.4,7c3.3,8,9.8,11.6,17.8,13.2
		c1.9,0.4,2.9,1.2,3.4,3c1.2,5,3.9,9.4,5.5,14.3c0.9,2.8,3,4.1,6.1,3.3c2.5-0.6,5.1-0.2,8.6-0.6c-6.3-6.1-7.6-14.8-13.7-20.4
		c-2.9,1.7-1.3,6.6-5.7,7.2c-1-3.3-2-6.6-0.9-10c2.6-8-2.3-13.4-6.5-19c-0.6-0.8-1.5-1-2.5-1.2c-0.8-0.1-1.6-0.1-2.5-0.1
		c-2.2-0.2-5.2,0.3-5.5-2.5s2.8-2.5,4.7-3.1c0.6-0.2,1.1-0.5,1.4-1c0.4-0.7,0.4-1.4,0.1-2c-3-5.5-3.6-11.9-6.1-17.6
		c-0.8-1.8-1.6-3.2-3.9-3.5c-3.5-0.4-4.9-2.6-4.3-6.2c0.2-1.1,0.7-2.2,0.2-3.8c-4.7-3-10.1-4.8-15.9-5.4c-4.1-0.4-8.1-1.5-12.3-1.5
		c-1.1,0-2.4-0.4-3.2-1.2c-4.6-4.6-10.2-3.7-15.7-2.7c-0.8,0.1-1.5,0.3-2.4,0.2c-7.1-0.5-14-0.1-20.9,1.7c-7.6,2-15.5,2.3-23.4,2.7
		c-0.8,0-1.6,0-2.5,0.4c0.9,1.9,4.1,0.9,4.4,3.6c-1.8,3.9-6.8,0-9,3.3c0.9,1.8,2.1,2.8,4.1,2.8c6.8,0.1,13.5,1.8,20.2,2.7
		c4.1,0.5,7.9,2,11.8,3.6c9.5,3.8,19.3,6.7,29.6,7.2c3.7,0.2,7.4,1.4,11.1,1.7c2.5,0.2,4.3,0.1,4-3.1c-0.2-1.4,0.3-2.7,1.9-2.9
		c1.5-0.2,2.4,0.9,2.8,2.2c0.6,1.9,1,3.8,1.6,5.7c2.1,6.5,5.9,11.7,10.8,16.2c1,0.9,2.7,1.9,1.2,3.8c-5.9-2-9.3-6.6-11.9-11.8
		c-0.9-1.8-1.6-3.6-2.4-5.7c-4.1-0.4-8.2-0.1-12.2-0.8c-11.6-2-23.7-2.1-34.7-6.9c-2.1-0.9-4.5-1.5-6.5-2.7
		c-3.6-2.1-7.5-2.6-11.6-2.9c-1.9,3.3-3.4,6.7-5.6,9.7c-5.9,8.3-13.7,13.5-24,14.2c-8.9,0.6-16-2.9-21.2-10.1
		c-1.2-1.7-2.5-2.6-4.6-3c-9.3-1.7-17.1-6.6-22.3-14.2c-3.6-5.3-5.1-11.9-4.4-18.5c1.4-12.9,7.3-23.1,18.2-30.3
		c6.8-4.5,14.4-6.3,22.4-4.4c8.2,2,15,6.6,20,13.6c1.1,1.6,1.8,3.5,2.7,5.2c8.6,2.8,15.1,7.7,18.6,16.2c3.1,0.6,6.1-0.3,9-0.9
		c3.6-0.7,7.1-1.5,10.8-1.6c9.5-0.2,19-1.8,28.4,0.4c2.6,0.6,5.3,0.9,7.5,2.7c1.5,1.2,3.6,0.8,5.5,1c6.7,0.7,13.1,2.4,19,5.7
		c2.1-1.1,4.1-2.1,6.2-3.2c-1.1-1-3-0.2-3.5-2c1.3-1.8,3.9-1.3,5.9-3c0.5-5.9,3.7-11.1,5.8-14c6.7-6.7,12.9-9.2,19.9-9.4
		c0.1-2.1-1.7-2.7-1.6-4.4c1.8-1.6,3.1,0.5,4.6,0.8c0.6-0.7-0.2-2,1.1-2.3c1.3-0.2,2,1,2.8,0.9c1.3,0.5,1.4-0.7,2-0.8
		c1.1-0.4,1.3,1,2.4,0.9c1.4-2.3,4.1-0.9,6.4-2.1c-0.4,3.9,2.5,4.5,4.8,5c4.1,0.9,8.3,1.1,11.1,4.9c0.5,0.7,1.6,0.3,2.3,1.2
		c-0.1,1.6,0.8,2.9,1.8,4.2c6.4,7.8,10.2,16.6,9.9,26.8c0,1.3,0.9,2.1,0.9,3.2c-0.3,1.2-1.3,0.4-1.8,1c0.8,1.2,1.7,2.5,2.5,3.7
		c9.6-3.3,19.1-6,29.2-6.2c1.4,0,2.9-0.2,4.2,0.5c4.5,2.2,9.1,2.1,14,1.7c5.3-0.4,10.5,0.1,15.5,2.4c1.8,0.8,4,1.3,6.2,0.9
		c4.5-0.7,8.8,0.1,13.1,1.6c1.6,0.6,3.1,0.4,4.7-0.2c7.9-3,16.1-3.5,24.6-3.4c9.2,0.1,18.2,0.9,27.2,2.8c0.7,0.1,1.5,0.2,2.1,0
		c4.2-1.6,8.7-1.6,13-2.5c1-0.2,2.1-0.5,3.1-0.4c6.5,0.5,13.1-1.1,19.6,0.8c0.5,0.2,1.1,0.1,1.8,0.2c4.8-6.2,10.2-11.7,17-15.7
		c7.6-4.6,15.8-7.4,24.8-6.1c10.8,1.6,19.1,13.2,16.7,25c-0.1,0.7-0.3,1.4-0.5,2.2c0.8,1.4,2.6,2.4,1.7,4.5c2.7,1.1,4.1,2.8,4.2,5.3
		c0.7,0.1,1,0.2,1.3,0.1c10.4-2.4,19.2,8.4,19.7,17c0.3,4.9-0.3,9.6-2.8,14c-7.8,13.9-19.3,22.9-35.4,25
		c-9.1,1.2-15.6-2.4-20.1-10.9c-4-7.6-3.3-14.5,0.2-21.7c0.4-0.9,1.3-1.6,1.3-2.9c-1.7,0.4-3.2,0.8-4.8,1.2
		c-4.9,1.4-9.7,1.4-14.6-0.1c-1.6-0.5-3.1-0.8-4.8-0.2c-8.2,2.6-16.4,1-24.3-1c-6.7-1.7-12.8-1.7-19,1.6c-3.5,1.9-7.3,3.2-10.6,5.4
		c-2.4,1.6-5.2,2.8-8,3.6c-7.4,2.3-15,3.8-22.7,4.6c-5.6,0.6-11-0.2-16.3-2.8c-0.4,2.3,0.7,4.1,2,5.4c3.1,3.2,4.8,7.2,7.1,10.8
		c2.5,4,4.7,8.1,7,12.2c2,0.3,4,0.9,5.9,0.9c8.3,0,14.3,4.6,20,9.9c2.6,2.4,5,5,7.1,7.8c2.2,2.8,4,5.9,4.6,9.4
		c1.2,6.9,4.7,12.7,8.3,18.5c4.8,7.8,10.5,15,16.3,22.1c1.9,2.4,3.5,5,5.6,7.2c3,3.3,5.6,6.6,4.9,11.5c-0.3,1.9,1,3,2.6,3.8
		c3.5,1.7,7.1,3.1,10.9,3.8c9,1.7,16.4,5.9,22,13.3c4.5,5.9,9.4,11.6,11.7,18.7c2.7,8.1,7,15.6,10.1,23.5c0.3,0.8,0.7,1.5,1.2,2.1
		c2.3,2.9,4.7,5.8,7,8.7c4.4,0.2,8.5,1.8,12.9,1c2.7-0.5,5.8,5.5,5.1,8.8c-1.5,6.7-2.8,13.5-2.4,20.4c0.1,1.3,0.6,2.5,0.9,3.8
		c1.6,6.3,2.4,12.7,2.5,19.1c0,1.6,0,3.2-1,4.4c-4.5,5.3-8.8,10.7-15.5,13.6c-6.2,2.7-12.6,2.6-19,1.5c-1.6-0.3-3.3,0.1-4.8-0.5
		c-3.5-1.4-4.9-3.7-5-8.3c-3,0.9-5.1,3.2-7.8,4.7c-0.1-2.7,1.1-3.7,9.4-7.9c-2.9-4.1-5.3-8.4-7.1-13.1l-0.1,0.1
		c1.7-0.4,1.8,1.2,2.3,2.1c1.8,3,3,6.3,5.6,9.3c1.8-2.4,3.3-4.7,4.2-7.3c1.5-4.6,2.3-9.3,2.1-14.1c-0.1-3,0-5.9,1.4-8.5
		c-4.5-7.1-4.5-7.2-0.8-10.1c-3.2-12.1-10.7-21-21.3-27.5c-4.2-2.6-8.4-5.1-12.7-7.6c-3.4-2-6.2-4.8-8.7-7.6
		c-3.5-3.8-7.5-5.4-12.5-5.7c-5.8-0.4-7.5-1.6-11-6.4c-3.6,2.6-8.1-0.1-12,1.7c-2.6,7.8-2.6,7.8-9.5,7.3c-0.3,0.4-0.7,0.8-1,1.3
		c-0.5,0.9-0.8,1.9-1.2,2.8c2.6,6.6,2,11-2.2,14c0.7-2.3,1.7-4.6,1.9-7.1c0.2-2.6-0.7-4.8-2.2-7.2c1.1-0.8,1.8-1.9,2-3.2
		c-3.1-3.9-7.2-6.4-11.3-8.9c-2.5-1.5-4.9-3.2-7.2-5c-4.4-3.6-9.5-6.1-14.4-8.9c-3.2-1.8-6.4-3.5-9.2-5.8
		c-5.5-4.4-11.9-7.6-17.5-11.8c-10.2-7.7-21.5-13.8-31.4-22c-3.5-2.9-7-5.4-11-7.4c-5.8-3-10.8-7.1-15.6-11.4
		c-3.6-3.3-8.1-5.4-12.7-7.6c-0.6,3.1-1.2,5.8-1.7,8.5c-0.8-4.1,0.8-7.9,0.2-12c5.1,4.2,11.9,5.4,16,11c2.2,3,5.5,5.2,8.9,6.8
		c8.9,4.1,16.2,10.8,24.4,15.9c9,5.6,16.8,12.7,25.7,18.4c2.4,1.5,4.7,3.1,7.4,4c1.3,0.4,2.4,1.2,3.1,2.2c3.3,4.4,8.1,6.6,12.6,9.2
		c3.1,1.8,6.3,3.4,9.9,4.4c0.7,0.2,1.4,0.6,1.7,1.1c2.5,4,6.7,6.1,10.5,8.6c4,2.6,8.3,4.8,11.6,8.6c2.5-2.1,5.3-0.2,7.9-1.2
		c1.8-1.7,1.9-4.1,2.3-6c-5.9-3.6-11.4-6.9-13.7-14c-1.7-5.2-5.6-9.4-8.2-14.2c-1-0.4-0.6,0.9-1.6,0.9c1.2-5.1-1.6-9.4-2.6-14.3
		c-3-0.9-3.7-4.1-5.6-6.4c2.5,2.6,5.8,3.5,9.1,4.7c-1,3.4,0.4,5.9,1.7,8.2c0.5,1.6-1,2.1-0.9,3.7c1.5,2.3,3.3,4.9,4.9,7.6
		c0.8,1.3,2.1,1.3,3.2,2.1c6.7,4.8,14.3,7.6,21.9,10.4c0.4,0.2,0.8,0.5,1.1,1c-8.5-2.1-16.4-5.2-23.7-10.3c1.8,3,2.6,6.5,4.4,9.3
		c3.3,5.2,8.2,8.6,14.8,9.2c5.5,0.4,10.4-1.5,15.4-3.1c4-1.3,7.2-8.6,5.7-12.4c-0.1-0.2-0.2-0.4-0.3-0.6c0.2,0.1,0.4,0.2,0.6,0.2
		c1.9,0.1,1.5-1.6,1.7-2.5c1-6.5,1.6-13,1.8-19.6c0.1-2.2-1.5-3.6-2.7-5.2c-6.3-7.8-12.7-15.7-18.5-23.9c-5.2-7.3-8.8-15.5-13-23.3
		c-0.4-0.8-0.7-1.8-0.9-2.7c-1.6-7.5-6-13.1-11.9-17.8c-5.5-4.5-11.2-8.6-18.7-9c-1.1-0.1-1.9-0.8-3.7-1.6c1.8,2.4,3.5,3.7,5.1,5.3
		c3.6,3.4,7.3,6.7,10.2,10.9c2.3,3.4,1.4,6.2,1.1,9.4c-0.9-2.9-1.5-5.9-3.8-8.8c-0.3,4.4-0.1,8.4-1.5,12c-1.8,4.7-4.8,9-6.6,13.7
		c-1.3,3.4-3.9,4.5-6.1,6.5C859.4,341.5,858.5,341.4,857.7,341.1c-0.5-0.4-1-0.5-1.6-0.3C856.7,340.6,857.2,340.8,857.7,341.1z"/>
	<path d="M828.7,417.3c-0.5,1.2-1.2,2.3-1.5,3.5c-0.9,3-2.2,5.7-1.4,9.3c0.7,3.5-0.5,7.4-0.8,11.4c3-0.8,4.7,0.9,6.1,3
		c0.8,1.2,1.9,2,3.4,2.3c3.3,0.7,5.7,3,8.4,4.7c0.2,7.4-1.6,13.7-7.2,18.5c-1.4,1.2-2.7,2.6-4.2,3.7c-7.2,5.3-10.7,12.8-12.7,21.2
		c-0.4,1.7-1,3.1-2.1,4.3c-3.8,3.8-7.8,7-13.1,8.5c-1.2,0.3-2.3,0.5-3.5,0.3c-2.5-0.5-4.9-0.4-7.3,0c-3.8,0.6-7.2-0.2-10-3.6
		c-4.9,19-7.5,38.3-15,56.8c-0.1-3.4,0.6-6.2,1.5-8.7c3.4-9.2,4.3-19,6.7-28.4c3.7-14.9,7-29.9,10.1-45c2.2-11,4.3-22.1,5.4-33.4
		c0.2-2.3,0.9-4.6,1.6-6.8c2.5-7.9,3.9-16.2,7.2-23.9c0.8-1.9,1-4.1,1.3-6.2c1-5.6,2.5-11.2,4.1-16.5c-1.3-1.7-3.3-2.4-4.5-4.8
		c2.6,1.2,4.4,2.3,6,3.8c0,3.2-1.5,6-2,9.1c6.7,5.4,14.4,9.3,21.3,14.6c-5-1.3-8.9-4.7-13.5-7.3c-1.1,4.1,1.4,7.5,1.7,11.2
		c-2.6-3.9-3.1-8.3-3.7-12.8c-2-1.2-4-2.4-6.2-3.8c-2.2,8.6-3.6,17.2-6.1,24.5c2.3,8.8,7.1,16,6,24.6c3.5,4.5,10.3,4.9,14.9,0.6
		c2.3-2.1,4.1-4.6,3.7-8.3c-0.4-3.3,0-6.7-0.4-10.1c-0.7-5.3,1-10.5,3.4-15.3C826.5,417.5,827.1,416.2,828.7,417.3L828.7,417.3z"/>
	<path d="M701.2,322.8c6.5,3.2,12.3,7.2,17.3,12.7c2.7,3,6.4,5.1,10,8c0.8-4.8,1.6-9.2,2.4-14.2c8.5,0.9,17.1,1.1,25.4,3.4
		c0,0.3-0.1,0.5-0.1,0.8c-7.9-0.9-15.7-1.8-24-2.7c-0.9,5-1.7,9.9-2.1,15c3.6,1.7,7.6,0.3,11.3,2.3c-3.9,0.7-7.5-1-11.1-0.2
		c-0.2,1.6,1.2,2,2.1,2.5c6.6,4.1,13,8.4,18.5,14c3.8,3.8,8.4,6.8,13.3,9.2c6.5,3.3,11.4,8.8,17.8,12.6c0.6-0.5,1.4-1.1,2.2-1.7
		c5.3,0.8,11-0.4,16.2,2.1c-5.4-0.1-10.7,0.3-16.3-0.9c-1.7,3.9-2.1,8.1-3.1,12.1c-2.1,8.9-4.3,17.7-7.1,26.5
		c-2.2,6.9-2.7,14.3-4.4,21.3c-4.3,17.4-6.1,35.4-11.9,52.4c-2.1,6.1-2.5,12.4-3.6,18.5c-2,10.3-5.7,20.1-7.2,30.5
		c-0.9,6.2-2.6,12.2-2.8,18.4c-0.1,3.3-1.4,6.4-2.3,9.5c-0.2,0.6-0.5,1-1.7,1.3c0.3-5.4,3.6-10.1,2.3-15.4c-1.7,0.5-3.2,1.6-4.4,2.4
		c-3.1,9-4.6,18-6.2,27c-1.3-1.7-1.3-1.7-1.2-5.1c-11.3-0.3-22.2-2.9-33.2-5c-10.9-2.1-22.1-2.9-32.9-5.7
		c22.3,0.7,43.9,6.3,66.3,9.3c1.1-7.1,3.3-13.8,5.4-21.1c6.6-2.3,8.1-8.1,8.7-14.6c0.5-5,1.1-10.2,2.8-14.8c2.9-8,4.5-16.3,5.9-24.5
		c1.6-9.6,4.9-18.7,7-28.2c3.8-17.6,7.1-35.3,10.8-53c1.5-7.2,4.2-14.2,5.7-21.4c1.3-6.3,3.2-12.5,3.8-18.8
		c-8.6-7.5-19.6-11.1-27.5-18.8c-7.9-7.6-17.3-13.3-25.5-20.4c-0.5-1.2,0.9-1.9,0.7-2.8c-0.1-0.2-0.2-0.5-0.3-0.6
		c-5.5-3.3-10-7.8-14.8-11.8c-2.5-2.1-4.9-4.3-8-5.6C703.5,326.5,702,324.8,701.2,322.8L701.2,322.8z"/>
	<path d="M905.5,489.8c-0.3-1.4-1.5-2.1-2.3-3c-2.7-3.1-3-7.2-4.6-10.8c-0.7-1.6-1.3-3.2-2.1-4.8c-4.8-8.3-9.1-16.9-12.5-26
		c-0.5-1.3-1-2.6-0.8-4.1c-3.2-2.3-6.3-4.8-9.5-7.7c-0.5,2.1-0.2,3.8,0.7,5.4c2,1,4.5,0.9,7.2,2.6c-3.4,1.1-6.2-1.1-9.8,0.9
		c-1.3,1.2-3.2,3.6-4.9,6.1c-5,7.1-11.3,13.2-16.6,20.1c-3.4,4.4-6.3,9.1-9.4,13.6c-5.3,7.8-11.9,14.5-18,21.6
		c-9,10.4-18.2,20.6-26,31.9c-5.4,7.7-11.7,14.3-18.2,20.9c-2.8,2.8-3.8,6.8-7.1,9.3c-2.6-1.7-4.3,1.3-7.2,1.7
		c1.8-2.6,4.1-3.6,6.3-4.7c0.9-0.4,1.8-0.6,2.2-1.5c2.1-4.5,5.8-7.6,9.2-11c3.5-3.5,7.4-6.7,9.9-10.9c5.1-8.5,11.8-15.8,18-23.4
		c7.6-9.3,15.5-18.2,23.3-27.3c3.3-3.8,6.2-7.9,8.9-12.2c3.3-5.4,7.1-10.5,11.4-15.2c5.6-6.2,10.6-12.9,15.6-19.6
		c0,0-0.1-0.2-0.3-0.3c-3.9-3.9-9.2-3.5-14-4.9c-1.4-0.4-2.3-1-3.2-2.4c-1.8-2.9-4.2-5.1-7.4-6.8c-5.4-3-11.1-5.6-15.6-10l-0.1,0.1
		c9.3,4.6,18.3,9.8,26.2,16.7c0.8-0.6-0.1-1.4,0-2c0.1-3.1,2.5-6.1,5.5-5.6c2.4,0.4,5.3,0,7.3,2.1c-0.4,2.2-2,2.3-3.7,2.2
		c-1.3-0.1-2.8-0.7-3.8,0.9c1.3,2.9,3.4,3.4,5,1.1c0.9-1.3,1.9-2.6,3-3.7c1.4,0.6,3,0.9,3.7,2.4c-0.9,0.6-1.3,1.4-1.6,2.4
		c0.3-0.9,0.8-1.8,1.5-2.5c0.6-0.1,1.1,0.2,1.6,0.6c4,3.1,8,6.1,12,9.2c0.9,0.8,2.2,1.4,2.6,2.9c-1.4,0.2-2-1.2-3.5-1.6
		c1,2.6,1.9,4.9,2.9,7.2c3.3,7.5,7.1,14.8,10.9,22c1.3,2.5,2.7,4.9,3.6,7.6c0.5,1.6,1.2,3.1,2,4.5c2.6,4.6,5.8,7.4,11.8,6.7
		c6.3-0.7,12.5,1.4,18.8,2.3c9.5,1.3,19,2.7,28.6,3.5c1.4,0.1,3.9-0.6,3.7,2.3l0.1-0.1c-2.9-1.5-6.2-1.2-9.3-1.3
		c-10-0.4-19.7-2.2-29.5-3.6c-5.2-0.7-10.4-1.7-15.7-1.3c-2.6,0.2-4.9-0.3-6.7-2.3L905.5,489.8z"/>
	<path d="M419.2,432.1c2.5,0.9,4.7,2.2,6.6,4.1c0.1,0.2,0.2,0.4,0.3,0.6c-0.2-0.1-0.4-0.2-0.6-0.2c-1,2-0.5,3.8,0.5,5.5
		c2.1,1.1,4.7,0.6,6.7,2.6c-3.1,0.9-5.8-0.8-8.6,0c-2.3,2.2-4.3,4.8-6.2,7.5c-5.8,8.2-13.6,14.7-18.8,23.2
		c-7.9,12.8-17.8,23.9-27.6,35.1c-7.9,9-15.9,18-22.6,27.8c-5.7,8.2-12.5,15.1-19.4,22.2c-2.4,2.5-3.4,6.2-6.4,8.5
		c-3.1-1.6-4.8,1.6-7.6,2.2c-1,8.1-3,15.9-1.6,24.4c-2.2-1-2.1-2.8-2.3-4.3c-0.5-3.5,0.3-7,0.7-10.5c0.4-3.4,1.1-6.7,1.7-10
		c3.5-1.2,5.8-4.4,9.5-5.2c0.3-0.1,0.5-0.5,0.7-0.8c3.1-6.4,8.8-10.6,13.7-15.5c4.5-4.4,7.3-10,11.2-14.9
		c8.2-10.3,16.4-20.6,25.2-30.4c5.8-6.5,11.5-13,16.6-20.1c3.3-4.7,6.2-9.7,9.8-14.2c6.7-8.3,14-16.1,19.8-24.9
		c-3.3-3.9-8.1-4.2-12.7-5c-1.5-0.2-3.2-0.3-4.1-1.9c0.9-1.6,2.1,0.2,2.9-0.7c-0.2-4.9,1.4-8,5-7.7
		C414,429.9,417.3,429.4,419.2,432.1c-0.7,1.8-2,2.4-3.9,2c-1.3-0.3-2.8-0.6-3.8,0.8c1.1,2.7,3.1,3.3,4.9,1.4
		C417.5,435.1,418.5,433.6,419.2,432.1z"/>
	<path d="M849.4,628.8c-4.4-0.7-8.8-1.3-13.1-2c-18.8-3-37.5-5.9-56.3-9.2c-8.8-1.6-17.7-2.2-26.5-3.4c-18.4-2.5-36.6-5.5-55-8.2
		c-9.5-1.4-18.9-3.5-28.4-5c-3.9-0.6-7.9-0.5-11.9-0.5c-3.6,0-7.2-0.4-10.8-0.6c-1.8-4.5,0.2-8.4,1-12.3c0.8-3.6,3-6.2,6.1-8
		c2.8-1.6,5.4-3.4,8.3-4.9c-2.7,3.6-7.1,5-10.4,8.2c-1.3,4.6-2.7,9.6-4.1,14.7c3.1,0.2,6.1,0.9,9.1,0.7c7.2-0.5,14.2,0.6,21.2,2
		c16.7,3.3,33.5,5.8,50.4,8.2c8.1,1.1,16.2,3.1,24.3,3.7c19.1,1.3,37.8,5.6,56.7,8.3c9.5,1.4,18.9,3.5,28.4,5
		c3.1,0.5,6.3,0.8,9.3,1.8C848.5,627.5,849.2,627.6,849.4,628.8z"/>
	<path d="M214.2,577.9c-2.6,3.7-7,5.1-10.4,8.2c-1.2,4.6-2.3,9.5-4.2,14.6c2.9,1,5.9,0.9,8.7,0.7c9.4-0.5,18.4,1.6,27.5,3.3
		c14.2,2.6,28.5,4.9,42.8,6.8c7,0.9,13.9,2.2,20.9,3.3c8.5,1.4,17.1,1.4,25.5,2.9c12.1,2.3,24.4,3.6,36.5,6s24.3,4,36.3,6.5
		c1.1,0.2,2.2,0.4,2.9,1.8c-4.1-0.6-8.2-1.1-12.2-1.8c-21.9-3.6-43.7-7.4-65.6-10.8c-7.5-1.2-15.2-1.5-22.7-2.6
		c-12.6-1.8-25-3.9-37.6-5.7c-14.4-2-28.7-4.9-43.1-7.1c-5.4-0.8-11-0.4-16.5-0.5c-1.4,0-2.8,0.2-4.2-0.8c-1.8-3.4,0-6.8,0.7-10.1
		c0.9-4.2,2.9-7.7,6.9-9.9C209,581.1,211.6,579.6,214.2,577.9z"/>
	<path d="M407.3,508.9c-10.6,13.6-24.2,24.2-36.5,36c-8.7,8.3-16.4,17.4-24.9,25.8c-3.1,3.1-6.9,5.5-8.9,9.5c-1.3-0.3-1.3-1-0.9-1.6
		c0.7-1.1,1.5-2.1,2.4-3c3.5-3.5,6.9-7.1,10.7-10.2c4.3-3.6,7.1-8.4,11-12.3c11.2-11.4,22.9-22.2,34.7-33c3.4-3.1,6.4-6.5,9.3-10.1
		c4-5.1,8.5-9.7,13.4-14c1.3-1.2,2.6-2.4,3.6-3.9c1.8-2.7,4.2-3.5,7.3-2.6c2,0.6,4,1.3,5.8,2.4c3.2,1.9,5.2,5.3,8.7,6.9
		c-1,1.4-1.8,1-2.4,0.6c-1.2-0.7-2.6-1.3-3.5-2.3c-3.7-4.1-8.6-4.1-13.4-4.3c-4,4.8-9.2,8.3-13.4,12.9
		C409.1,506.8,408.2,507.9,407.3,508.9L407.3,508.9z"/>
	<path d="M856.3,505.3c-3.9,4.2-7.2,8.9-11.5,12.8c-10,9.4-20.1,18.7-30.1,28.2c-7,6.6-12.9,14.2-20,20.8c-2.1,2-4.2,4.1-6.3,6.1
		c-1,1-2.1,1.9-2.2,3.4c-0.2,0.4-0.4,0.4-0.6,0c-0.3,0-0.7,0-1.4,0c0.4-2,1.7-3.3,3-4.5c3.8-3.7,7.5-7.5,11.5-10.9
		s6.6-7.9,10.2-11.6c11.1-11.3,22.8-22,34.5-32.8c3.5-3.2,6.6-6.7,9.5-10.4c3.9-5,8.4-9.5,13.2-13.7c1.4-1.3,2.7-2.6,3.8-4.2
		c1.6-2.2,3.6-3.1,6.4-2.4c2.2,0.6,4.3,1.2,6.2,2.4c3.3,2,5.5,5.3,8.8,7.2c-0.9,1.3-1.8,0.8-2.5,0.5c-0.9-0.4-1.8-0.8-2.4-1.4
		c-3.9-4.1-8.8-5.5-14.7-4.9C867.3,495.4,860.7,499.3,856.3,505.3L856.3,505.3z"/>
	<path d="M335.3,583.7c-0.6,3.5-3.3,6.1-4.5,9.6c2.8,1.4,6,1.1,8.9,1.5c5.9,0.7,11.9,0.9,17.9,1.6c3.3,0.4,6.6,1.4,9.9,2.4
		c8.7,2.6,17.6,3.9,26.6,4.5c4,0.3,7.8,1.4,11.8,1.7c1.7,0.1,2.5,1.7,3.3,2.9c2.2,3.5,3.8,7.3,5.6,11c1,2.1,2,4.2,3.8,6.3
		c-5.1,3-10,5.9-15.5,8c3.1-4.2,8.2-5.4,12.2-8.5c-2.9-6-5.8-12-8.5-17.7c-9.1-1.4-17.9-1.6-26.5-3c-4.3-0.7-8.8-1.4-13-3.1
		c-6.8-2.7-14.2-3-21.4-3.8c-4-0.5-7.9-1-11.9-1.4c-2-0.2-3.9-0.9-5.2-2.6c-1.8,0.5-2.9,2.3-5.2,1.6c-1.2-0.4-2.3,1.3-3.5,2.1
		c-1.9,1.2-3.6,3-6.3,2.3c2.9-1.5,5.6-3.4,8.5-4.9c0.3-0.2,0.6-0.3,1-0.4c4.4-1.1,7.8-3.3,9.7-7.7C333.4,585.1,334,584,335.3,583.7
		L335.3,583.7z"/>
	<path d="M770.7,591.3c5.3-1.5,9.4-4.5,11.8-9.6c0.5-1.1,1.7-1.9,2.5-2.8l-0.1-0.1c-1.2,3.9-3.8,7.3-5.5,11.1
		c1.4,1.3,3.3,1.1,4.9,1.3c7.1,0.7,14.3,1.2,21.4,2c2.9,0.3,5.8,1,8.6,1.9c10.4,3.3,21.1,4.4,31.8,5.4c2.7,0.3,5.3,0.9,8,1.2
		c1.9,0.2,2.8,1.5,3.7,2.9c2.3,3.7,4,7.7,5.9,11.6c0.9,1.9,1.8,3.8,3.5,5.7c-5,3.3-10.1,6-15.6,8.1c3.2-4.1,8.3-5.4,12.3-8.6
		c-3.3-5.8-5.4-12.1-8.7-17.5c-8.7-1.6-17.2-1.6-25.5-3c-4.5-0.7-9-1.3-13.3-3c-8-3.1-16.5-3.2-24.9-4.3c-2.9-0.4-5.8-0.7-8.7-1.1
		c-2.1-0.3-4.2-0.7-5.5-2.9c-1.9,1.9-4,2.1-6.3,2c-0.2,0.1-0.4,0.1-0.6,0.2C770.6,591.7,770.7,591.5,770.7,591.3z"/>
	<path d="M518.8,501.1c-10.3-0.5-20.5-1.5-30.6-2.9c-8.7-1.3-17.2-3.3-26.1-2.6c-1.9,0.1-2.3-0.2-4.7-1.9c-4.1,1.1-7.8,3.1-12.1,3.3
		l0.1,0.1c1.8-2,4.5-1.9,6.7-2.8c1.4-0.6,2.9-1,4.3-1.5c0.2-1.3-0.9-1.7-1.4-2.3c-2.9-3.4-3.4-7.8-5.1-11.7
		c-0.6-1.4-1.1-2.8-1.9-4.1c-4.7-8-8.8-16.3-12.1-24.9c-0.7-1.7-1.5-3.4-1.2-5.3c-3.3-2.6-6.7-4.8-9.3-7.8c0.1-0.1,0.2-0.2,0.4-0.4
		c4.7,3.4,9.5,6.8,14,10.8c-1.9,0.9-2.3-1.3-3.8-1.1c2.6,7.1,5.9,13.8,9.2,20.5c3,6,6.7,11.6,8.8,18c0.5,1.4,1.4,2.7,2.2,4
		c2.3,3.9,5.4,5.7,10.1,5.2c5.6-0.6,11.2,1.1,16.7,1.9c9.7,1.4,19.5,3,29.3,3.6C514.6,499.3,517.1,499,518.8,501.1L518.8,501.1z"/>
	<path d="M856.2,505.4c6.2,1,12.4,2.5,18.7,2.9c4.9,0.4,9.8,0.8,14.6,1c6.6,0.4,13,1.9,19.5,2.6c4.9,0.5,9.8,0.8,14.8,0.6
		c8.5-0.4,16.8,1.8,25.1,2.9c3.4,0.4,6.7,0.9,10.1,1.3c1.4,0.2,2.8,0.2,4.2,1.2c-0.7,0.9-1.5,0.5-2.2,0.4c-5.7-0.5-11.5-0.9-17.1-2
		c-8.3-1.5-16.7-2.1-25.2-1.7c-5.2,0.3-10.3-0.4-15.4-1.2c-11.6-2-23.3-2.2-34.9-4.2c-3.3-0.6-6.7-0.9-10.1-1.3
		C856.8,507.6,855.9,507.1,856.2,505.4L856.2,505.4z"/>
	<path d="M763.2,567.3c0.1,8.3-2.4,16.4-0.9,25.1c-2.7-1.7-1.6-4.4-2.7-6.3c-3.6-1.1-7.3-1-11-1.7c-2.4-0.4-4.6,1.5-6.6,2.9
		c-1.9,1.3-3.8,2.7-5.8,3.9c-0.9,0.5-1.9,1.4-3.4,0.1c3.6-2,6.8-4.1,9.9-6.5c1.9-1.5,4.3-1.3,6.7-1.1c3.5,0.2,7-0.1,10.6,1
		C760.6,578.7,761.3,572.9,763.2,567.3z"/>
	<path d="M893.2,354.5c-2.3,5-4.5,9.4-7.5,13.2c-0.5,0.6-1,1.3-2.3,1.2c3.2-5.1,6.7-9.8,8.8-15.3c-1.6-2.5-4.5-3.8-5.1-7
		c1.7,2,3.4,4,5,5.9c2.2-1.6,1.4-3.7,2.8-5.1c0.1,2.1-0.9,3.8-1.1,5.8c5.2,5.1,8.6,11.3,11,18.1c0.8,2.3,2.5,3.9,4.1,5.6
		s3.4,3.2,4.1,5.6c-3.6-3.9-8.2-7-10-12.4C900.9,364.4,897.9,359.1,893.2,354.5z"/>
	<path d="M881.7,343.2c1.1,0.4,1.4-0.6,2-0.3c1.9,2.6-0.8,17.4-7.3,24.6c0.8-2.7,1.4-4.9,2.1-6.9c1.3-3.7,2.1-7.4,3-11.2
		c0.4-1.7,0.4-3.2-0.6-4.8c-0.5-0.8-1-1.7-1.1-2.6c-0.3-5.1-3.6-7.9-7.3-10.4c-0.3-0.2-0.4-0.5-1-1.2
		C878.1,332.8,880.9,337.5,881.7,343.2z"/>
	<path fill="#FFFFFF" d="M868.1,429.1c0.4,3-1.7,5.1-2.2,7.7c-1.9-0.4-3.5-0.6-5.1-1c-2.6-0.6-4-2.4-3.5-4.8
		c0.5-2.7,2.5-2.7,4.6-2.4c1.9,0.3,3.8,1.5,5.7,0C867.8,428.7,867.9,428.9,868.1,429.1z"/>
	<path d="M764.5,520.5c0,3.2-0.1,6.2-4.4,7.1c1.4,1.4,2.5,2.8,2.1,4.8c-0.3,1.2-0.9,2.2-1.9,2.8c-1.9,1.2-4.4,0.6-5.4-1.4
		c-1.4-2.4-0.2-4.8,3.3-6.7c-1.6-2.1-2.6-4.5-0.5-6.8C759.8,517.8,762.2,519.6,764.5,520.5z"/>
	<path d="M310,527c-2-2.7-2.2-4.8-0.8-6.5c2.3-2.7,4.6-1,7-0.1c0.1,5.1-0.3,5.8-4.1,7.3c2.5,3.2,2.5,5.8,0.2,7.5
		c-1.8,1.3-4.3,0.8-5.5-1.1C305.2,531.7,306.3,529.1,310,527z"/>
	<path d="M848.2,347.7c4.5,0.3,8.1,2.4,12,2.6c3.8,0.2,7.6-0.5,11.6,0.4C866.6,355.5,853.2,354,848.2,347.7z"/>
	<path d="M318.7,533.3c-3.9,14.7-6,29.9-10.9,45C307.2,574.7,316.5,536.7,318.7,533.3z"/>
	<path d="M767.3,529.9c-3.7,14.8-6.1,29.9-10.8,44.9C755.7,571.7,764.6,534.7,767.3,529.9z"/>
	<path d="M746.3,597.8c-19.3-3.7-38.8-5.5-58-8.8C707.6,591.9,727.3,592.9,746.3,597.8z"/>
	<path d="M888.2,428.5c-0.5,1.7-2.2,1.8-2.5,3.4c1.9-0.4,4-0.8,4.2,2c0.1,1.7-1,2.8-2.8,2.4c-1.1-1.3,0.8-1.2,0.6-2.1
		c-0.9-1-1.6,0.6-2.5-0.2c-0.3,3.1,1.1,4.8,3.4,6.1c-2.9,0.6-4.5-0.5-5.3-3.4C882.2,432.6,883.7,429.9,888.2,428.5z"/>
	<path d="M436.4,437.2c0.1,2.8,1.2,4.7,3.6,5.9c-2.9,0.7-4.8-0.7-5.4-3.7c-0.8-4.3,0.9-6.9,4.9-7.5c-0.4,1.4-2.1,1.6-2.6,3.1
		c1.8,0,4.3-0.9,4.3,2.1c0,1.7-0.9,2.6-2.7,2.1c-0.9-0.9,0.4-1.2,0.3-2C438.1,436.8,437.3,437.3,436.4,437.2z"/>
	<path d="M747.3,319.2c8-0.8,23.1,2.1,26.6,5.2C764.7,322,755.9,321.2,747.3,319.2z"/>
	<path d="M254.3,594.3c13.9,1.1,27.7,2.9,41.3,5.9c0.3,0.1,0.5,0.4,0.8,0.6l0.1-0.1c-6.4-0.4-12.6-2.3-19-3
		c-7.3-0.8-14.5-2.4-21.9-2.9C255.2,594.8,254.8,594.4,254.3,594.3L254.3,594.3z"/>
	<path d="M303.5,542.1c0.4-1.5,0.5-2.7,0.9-3.7c0.8-2,2.7-2.8,4.1-1.2c1.2,1.3,2.4,0.9,3.7,0.8c0.3,2.3-2.4,1.6-2.8,3.1
		c-0.3,1.4,2,0.8,1.6,2.5C308.5,544.1,306.2,542.7,303.5,542.1z"/>
	<path d="M368,395.2c7,5.9,14.8,10.6,22.3,15.7c0.7,0.5,1.6,0.9,1.8,2.1c-8.4-5.5-17.6-9.8-24.5-17.4
		C367.7,395.5,367.9,395.4,368,395.2z"/>
	<path d="M760.6,538.1c-0.3,2-2.5,1.5-3,2.8c-0.2,1.5,2.1,1,1.6,2.6c-2.6,0.5-4.8-0.8-7.2-1.4c-0.4-1.3,0.1-2.3,0.4-3.2
		c0.8-2.7,2.7-3.5,4.6-1.5C758.3,538.6,759.4,537.6,760.6,538.1z"/>
	<path d="M791.9,421.9c1.1-10.9,7.5-20.5,7.2-31.7C799.5,401.4,794.6,411.4,791.9,421.9z"/>
	<path d="M817.8,393.4c7.2,6.4,16.1,10.1,23.2,16.5C832.9,404.9,824.3,400.7,817.8,393.4z"/>
	<path d="M827.5,361.8c1-1.1,2.1-1.2,3.2-0.1c4.7,4.7,9,9.8,14.5,13.6c-3.4-0.8-5.8-3.2-8.3-5.3
		C833.8,367.3,831.4,363.7,827.5,361.8L827.5,361.8z"/>
	<path d="M793.8,602.8c-10.6-1.2-21.3-2.2-32-2.9C772.6,599.7,783.2,601,793.8,602.8z"/>
	<path d="M838.3,609.3c-9.6,0.1-18.9-2.2-28.1-4.3C819.5,606.5,828.9,607.9,838.3,609.3z"/>
	<path d="M337.1,447.1c1.2-8,3.2-15.5,5.8-23C342,432.1,339.4,439.6,337.1,447.1z"/>
	<path d="M389.6,612.7c-9.1-0.2-18-2.1-26.8-4C371.8,609.6,380.7,611.5,389.6,612.7z"/>
	<path d="M851.5,380.9c6,5.1,11.9,10.1,18,15.3C865.9,395.2,856.7,387.6,851.5,380.9z"/>
	<path d="M299.1,587.2c-5.1,1.9-8.7,6.8-14.7,8.2C286.8,591.9,296.3,586.6,299.1,587.2z"/>
	<path d="M402.9,435.1c-6.6-4.5-14-7.9-20.4-12.7l0.2-0.3c5.9,2.4,11,6.1,16.3,9.5c1.5,0.9,2.8,2.1,4.2,3.1c0.1,0.2,0.2,0.4,0.2,0.6
		C403.3,435.2,403.1,435.2,402.9,435.1z"/>
	<path d="M344.8,605.9c-10.1-0.9-20.2-2.1-30.3-2.7C324.7,602.9,334.8,604.4,344.8,605.9z"/>
	<path d="M778.9,367.7c6.7,4.5,14.1,7.8,20.8,12.4c-7.2-3.7-14.9-6.6-21.1-12c-0.1-0.2-0.2-0.4-0.3-0.6
		C778.5,367.6,778.7,367.7,778.9,367.7z"/>
	<path d="M910.4,497.4c6.9-0.1,13.1,1.2,20,1.3C927.1,500,913.8,499.1,910.4,497.4z"/>
	<path d="M483.5,502.3c-7.5,0.8-18.3,0-21.6-1.5c3.8-0.8,7.2,0.3,10.5,0.5C475.9,501.4,479.2,501.9,483.5,502.3z"/>
	<path d="M791.1,425.1c-1.6,6-3.2,11.9-4.9,18.5C785.7,440,788.6,428.4,791.1,425.1z"/>
	<path d="M773.1,325.6c5.9,3.3,11.7,6.6,17.6,9.9c-0.1,0.2-0.3,0.5-0.4,0.7c-6.2-2.7-11.8-6.7-17.7-9.9
		C772.7,326,772.9,325.8,773.1,325.6z"/>
	<path d="M719.6,319.1c3.3-2.1,13.1-2.6,19.8-1.3C732.8,317.9,726.2,318.3,719.6,319.1z"/>
	<path d="M937.4,500.5c5.4,0,10.6,1.1,16.6,0.7c-1.3,1.8-2.5,1.4-3.6,1.4C946,502.3,941.5,502.4,937.4,500.5L937.4,500.5z"/>
	<path d="M755,580.7c-4.7-0.3-9.4-0.6-13.9-2.4c0-0.3,0.1-0.6,0.1-0.8c4.6,0.7,9.2,1.4,13.8,2.2C755,580,755,580.4,755,580.7z"/>
	<path d="M306.3,583.9c-4.7-0.2-9.3-0.6-13.7-2.3c0-0.3,0.1-0.6,0.1-0.9c4.6,0.7,9.1,1.4,13.7,2.1
		C306.4,583.2,306.3,583.5,306.3,583.9z"/>
	<path d="M323.2,508.1c0.9-6.1,2.4-12,4.2-17.9C326.7,496.3,325.8,502.4,323.2,508.1L323.2,508.1z"/>
	<path d="M893,371.5c-3.6,1.8-6.1,5.3-10.1,6.5c-0.2-0.4-0.5-0.8-0.7-1.1c3.4-2.1,6.7-4.2,10.1-6.4
		C892.6,370.9,892.8,371.2,893,371.5z"/>
	<path d="M768.6,359.7c-4.6-2.4-8.3-5.8-12.1-9.1c0.2-0.3,0.4-0.6,0.6-0.8c3.9,3.2,7.9,6.3,11.8,9.5c0.1,0.2,0.1,0.4,0.2,0.6
		C769,359.8,768.8,359.8,768.6,359.7z"/>
	<path d="M504.8,505.1c-6.4,0.9-12.6,0.1-18.7-2C492.4,504,498.6,504.5,504.8,505.1z"/>
	<path d="M846.5,414.4c5,3,9.5,6.8,14.5,9.7c-5.6-2.1-10.5-5.2-14.7-9.5L846.5,414.4z"/>
	<path d="M905.7,490c-2.3,1.8-5.1,2.1-7.8,2.9c-1.9,0.6-3.7,1-4.4,3.4c-1.6-2.3,0.2-3,1.3-3.4c3.5-1.3,6.9-2.7,10.7-3.2L905.7,490z"
		/>
	<path d="M840.3,364.1c-1.3-4.5-0.2-8.9,0-13.3C840.3,355.2,840.3,359.6,840.3,364.1z"/>
	<path d="M772.2,503.2c0.6-5.5,2.5-10.7,3.3-16.6c1,1.1,0.7,1.9,0.5,2.6C775,493.9,774.5,498.8,772.2,503.2L772.2,503.2z"/>
	<path d="M803.8,383.1c3.7,2.8,7.2,5.8,11.2,8.3C810.2,390.1,806.7,387,803.8,383.1z"/>
	<path d="M300.9,587.3c3.3-0.8,6.6-0.5,9.7,1C307.3,588.9,304.1,588.4,300.9,587.3z"/>
	<path d="M874.4,494.4c3.5,0.2,7,0.4,11,0.6C882.6,496.7,878.5,496.6,874.4,494.4z"/>
	<path d="M401.2,419.9c3.9,2.5,7.8,4.9,11.7,7.4c-4.6-1.3-8.6-3.8-12.1-6.9c-0.1-0.2-0.1-0.4-0.2-0.6
		C400.7,419.8,401,419.8,401.2,419.9z"/>
	<path d="M397.6,625.1c-2.3-2.7-2.7-6.1-3.8-9.4C396.2,618.4,396.5,621.9,397.6,625.1z"/>
	<path d="M803.2,337.2c0-3.8,0.8-7.4,2.9-10.6C805.1,330.2,804.2,333.7,803.2,337.2z"/>
	<path d="M771.1,591.7c-2.5,2.1-4.9,4.5-8.8,4.8c1-2.2,3-2,4.3-2.8c1.3-0.9,2.5-2,4.2-2.3C770.8,591.4,771,591.5,771.1,591.7z"/>
	<path d="M436.5,498.7c-3.6,0.8-7.2,0.7-10.7-0.7C429.4,497.4,432.9,498.3,436.5,498.7z"/>
	<path d="M846,622.1c-2.3-2.9-2.5-6.3-4.1-9.6C844,614,845.4,617.2,846,622.1z"/>
	<path d="M888.3,321.1c-0.3,2.9-1.1,5.6-2.9,7.8C885.7,326.1,886.6,323.4,888.3,321.1z"/>
	<path d="M800.8,343.2c-3.4-0.7-5.7-2.9-7.9-5.2c0.1-0.2,0.3-0.4,0.4-0.6C795.8,339.4,798.3,341.3,800.8,343.2z"/>
	<path d="M811.1,351.1c-3.4-1.1-5.9-3.3-7.6-6.4C806.1,346.9,808.6,349,811.1,351.1z"/>
	<path d="M877.2,301.4c-2.4-0.7-4.5-0.5-6.2-1.9C873.2,298,874.5,298.4,877.2,301.4z"/>
	<path d="M369.2,456.1c-1.3,0-1.4-1-1.5-1.9c-0.2-1.8-0.3-3.7-0.1-5.6C368.7,451,369.4,453.4,369.2,456.1L369.2,456.1z"/>
	<path d="M742,311.2c0.2-3.3,0.5-6.7,0.7-10c0.3,0,0.5,0,0.8,0.1c0,3.3,0.1,6.7-0.8,10C742.5,311.2,742.3,311.2,742,311.2z"/>
	<path d="M822.3,358.2c-3.4-1-5.9-3.5-8.7-5.6c3.4,1,6,3.4,8.9,5.3C822.5,358,822.4,358.1,822.3,358.2z"/>
	<path d="M670,585.5c-2.8,0.4-5.4-0.6-8.1-0.9C664.2,584.1,667.1,584.4,670,585.5z"/>
	<path d="M745.1,348.2c1.1,0,2.3-0.1,3.4,0c1.4,0.2,2.7,0.5,4,1C750,349.8,747.5,349.7,745.1,348.2z"/>
	<path d="M221.7,588.6c-2.9,0-5.8,0.1-8.9-1.1C216.2,587.1,218.9,588.1,221.7,588.6z"/>
	<path d="M707,308.4c-0.4-2.4,0.7-4.4,1.9-6.3C708.9,304.4,708.1,306.5,707,308.4z"/>
	<path d="M888.2,410c2.1,1.6,4.2,3.2,6.3,4.8c-0.1,0.2-0.3,0.4-0.4,0.6c-2.4-1.2-4.5-2.8-6.3-4.9c-0.1-0.2-0.1-0.4-0.2-0.6
		C887.8,409.9,888,410,888.2,410z"/>
	<path d="M778.7,472.6c0.7-2.5,1.4-5.1,2.2-7.6C781,467.7,780.1,470.2,778.7,472.6z"/>
	<path d="M332.8,467.6c-0.4,2.5-0.8,5-2,7.2C330.9,472.3,331.5,469.9,332.8,467.6z"/>
	<path d="M402.7,609.4c-1.8,1.9-4.3,2.4-6.6,3.1C397.8,610.3,400.4,610.2,402.7,609.4z"/>
	<path d="M844.6,609.5c1.4-2.4,3.9-2.3,6.1-2.9C849,608.4,846.8,608.9,844.6,609.5z"/>
	<path d="M778.5,368.1c-3.1,0-4-2.5-5-4.9c1.8,1.5,3.6,3,5.4,4.5C778.7,367.9,778.6,368,778.5,368.1z"/>
	<path d="M885.7,384.7c2.3-0.6,4.5,0.1,6.7,0.6C890.1,386,887.8,385.9,885.7,384.7z"/>
	<path d="M873.4,343.1c-2.3-0.5-3.2-2.6-5.6-2.2C869.6,339.1,870.2,339.3,873.4,343.1z"/>
	<path d="M821.4,335.6c0.4,2.7,0,5.3-0.9,8.3C820.2,340.7,821.5,338.2,821.4,335.6z"/>
	<path d="M511.3,514.2c-1.8-1.5-2.3-3.5-2.4-5.6C510.6,510,510.8,512.1,511.3,514.2z"/>
	<path d="M959.9,511.7c-1.5-1.8-2.2-4-2.3-6.4C958.8,507.3,960.2,509.2,959.9,511.7L959.9,511.7z"/>
	<path d="M816.1,446.7c1.9,1.6,2.2,3.4,2.2,5.9C816.3,450.8,816.3,449,816.1,446.7z"/>
	<path d="M964.6,499c-1.2,1.7-3.1,2.2-5.3,2.3c1.6-1,3.2-1.9,4.9-2.9C964.3,498.6,964.4,498.8,964.6,499z"/>
	<path d="M825.2,340.5c0.1,2.4-0.7,4.6-1.8,6.7C823.7,344.9,823.9,342.6,825.2,340.5L825.2,340.5z"/>
	<path d="M359.5,413.5c-0.4-1.3-1-2.7,0.5-4C361.6,411.2,360.3,412.3,359.5,413.5z"/>
	<path d="M510.2,504.6c2.1-1.2,3.7-2,5.7-3.1C514.1,504,513.8,504.2,510.2,504.6z"/>
	<path d="M822.6,357.9c1.7,1.3,3.3,2.6,5,4l0,0c-2.7,0.2-3.8-2-5.2-3.6C822.4,358.1,822.5,358,822.6,357.9z"/>
	<path d="M361.5,418.2c-0.8-1.1-1.9-2.1-0.7-3.9C361.8,415.6,362.3,416.7,361.5,418.2z"/>
	<path d="M879.3,404.1c-1.7-0.6-2.7-2-3.3-3.8c1.2,1.2,2.3,2.3,3.5,3.5L879.3,404.1z"/>
	<path d="M725,298.2c-0.4,2.2-0.7,3.8-1.6,5.3C723.5,301.8,723.5,300,725,298.2z"/>
	<path d="M721.1,315.8c0.3-1.6,0.2-3.3,2.1-5.1C722.6,313,722.5,314.7,721.1,315.8z"/>
	<path d="M701,322.9c-1.5-1-2.5-2.1-1.2-4.2c0.5,1.3,1,2.7,1.4,4L701,322.9z"/>
	<path d="M916.6,359.7c-1.1-1.3-1.4-2.4-1.6-3.6C916.2,357.4,916.2,357.4,916.6,359.7z"/>
	<path d="M844.3,356c-0.3,1.7-0.6,3.4-1.1,5.8C842.7,359.2,843.2,357.6,844.3,356L844.3,356z"/>
	<path d="M959.8,511.8c1.4,0.6,2.4,1.6,2.9,3.3C960.5,514.9,960.6,512.9,959.8,511.8L959.8,511.8z"/>
	<path d="M296.4,600.8c1.5,0,2.9,0,4.4,0C299.4,601.1,297.9,601.5,296.4,600.8L296.4,600.8z"/>
	<path d="M854,359.5c1,1,0.7,2,0.4,3.7C854.2,361.6,854.1,360.7,854,359.5z"/>
	<path d="M445.3,496.9c0.4,0.8,0.3,1.5-0.1,2.4C444.3,497.9,444.3,497.9,445.3,496.9L445.3,496.9z"/>
	<path d="M249.4,593.5c1.7,0.1,3.4-0.1,4.9,0.7l0.1-0.1C252.7,594.2,251,594.6,249.4,593.5L249.4,593.5z"/>
	<path d="M249.5,593.5c-1.7,0.1-3.4,0.5-4.9-0.7l-0.1,0.1C246.1,593,247.8,592.8,249.5,593.5L249.5,593.5z"/>
	<path d="M879.6,403.8c1,0.3,1.7,1,2.8,2.1c-1.6-0.2-2.4-0.9-3-1.8L879.6,403.8z"/>
	<path d="M240.3,592.1c1.4,0.2,2.9,0,4.2,0.7l0.1-0.1C243.1,592.8,241.6,593.1,240.3,592.1L240.3,592.1z"/>
	<path d="M366.9,436c-0.1,0.4-0.3,0.6-0.7,0.5c-0.1,0-0.3-0.3-0.3-0.5c0-0.4,0.3-0.6,0.6-0.5C366.7,435.5,366.8,435.8,366.9,436z"/>
	<path d="M511.6,515.5c1.7,0.4,1.9,1.4,2.4,2.7C512.3,517.8,512.1,516.8,511.6,515.5z"/>
	<path d="M400.7,420.4c-1-0.4-1.8-1.1-2.7-2.3c1.6,0.2,2.3,1.1,3.1,1.8C401,420,400.9,420.2,400.7,420.4z"/>
	<path d="M772.1,503.1c0.1,1.2,0.3,2.5-0.7,3.6l0.1,0.1C771.8,505.6,772,504.4,772.1,503.1L772.1,503.1z"/>
	<path d="M927.3,397.7c-0.8-0.4-1.7-0.8-1.7-2c1,0.2,1.6,0.9,2,1.6C927.5,397.5,927.4,397.6,927.3,397.7z"/>
	<path d="M887.7,410.5c-0.8-0.3-1.2-0.9-2.1-1.9c1.4,0.2,2,0.8,2.5,1.4C888,410.2,887.9,410.3,887.7,410.5z"/>
	<path d="M846.2,414.6c-0.8-0.1-1.2-0.7-1.8-1.3c1.2-0.2,1.6,0.4,2,1.1L846.2,414.6z"/>
	<path d="M240.3,592.1c-0.6,0-1.1,0-1.8,0C239.2,591.4,239.7,592,240.3,592.1L240.3,592.1z"/>
	<path d="M785.7,576.7c0.2,0,0.4,0,0.6,0c-0.1,0.9-0.4,1.7-1.3,2.1l0.1,0.1C785.2,578.1,785.5,577.4,785.7,576.7z"/>
	<path d="M844.3,356.1c0-0.6,0.1-1.2,0.1-2.2C845,354.9,844.7,355.5,844.3,356.1L844.3,356.1z"/>
	<path d="M335.4,583.8c0-0.6,0.1-1.3,0.9-1.5C336.3,583,335.9,583.4,335.4,583.8L335.4,583.8z"/>
	<path d="M825.3,340.5c0-0.6,0-1.3,0-2.3C826,339.4,825.7,339.9,825.3,340.5L825.3,340.5z"/>
	<path d="M403.2,434.7c0.6,0.2,1,0.5,1.2,1.1c-0.8,0.2-1.2-0.2-1.6-0.7C403,435,403.1,434.8,403.2,434.7z"/>
	<path d="M380.3,421c1.1-0.2,1.8,0.4,2.4,1.1l-0.2,0.3C381.6,422.2,381,421.5,380.3,421L380.3,421z"/>
	<path d="M363.3,420c-0.1,0.2-0.1,0.4-0.2,0.5c-0.2-0.1-0.5-0.1-0.5-0.3c-0.1-0.1,0.1-0.3,0.2-0.5
		C362.9,419.8,363.1,419.9,363.3,420z"/>
	<path d="M397.4,417.2c-0.9,0-1.2-0.3-1.3-0.8C396.7,416.1,397,416.6,397.4,417.2z"/>
	<path d="M771,509.8c-0.1,0.4-0.2,0.9-0.4,1.3C770.2,510.5,770.8,510.3,771,509.8L771,509.8z"/>
	<path d="M323.2,508.1c0,0.6,0.3,1.3-0.1,1.9C322.5,509.3,323.2,508.7,323.2,508.1L323.2,508.1z"/>
	<path d="M771.5,506.7c0,1.1-0.1,2.1-0.5,3.1l0.1,0.1C771,508.8,771,507.7,771.5,506.7L771.5,506.7z"/>
	<path d="M937.4,500.4c-0.6,0.1-1.2,0.2-1.8-0.3C936.3,499.8,936.9,500,937.4,500.4L937.4,500.4z"/>
	<path d="M769,359.3c0.5,0.2,1,0.4,1.2,1.1c-0.7,0-1.2-0.2-1.6-0.6C768.7,359.6,768.8,359.4,769,359.3z"/>
	<path d="M704.7,321.1c-0.2-0.6,0.1-0.8,0.6-0.6C705.4,320.9,705.2,321.1,704.7,321.1z"/>
	<path d="M711.4,318.9c-0.2,0.8-0.5,0.8-0.9,0.8C710.3,319.1,710.8,319.1,711.4,318.9z"/>
	<path fill="#FFFFFF" d="M250.7,474.5c-0.1-1-0.3-2.1-0.4-3.1c3.8-0.7,7.8-0.7,11.6-2.3c-1-1.5-1.9-1.1-2.8-1
		c-1.9,0.2-3.7,0.5-5.6,0.7c-4,0.5-4.9,0-6.6-3.5c-1.4-1-2.9-0.7-4.4-0.8c-7.4-0.5-13.8-2.7-17.5-9.9c3.7,2.6,7.7,4.4,12.2,5.2
		c8.2,1.4,15.9-0.3,23.4-3.2c9-3.6,16.5-9.2,21.9-17.5c1.8-2.7,2.6-5.7,3.7-8.7c0.1,4.6-0.3,9.1-2.8,13.1
		c-5.2,8.2-12.5,13.9-21.5,17.5c-3.4,1.4-6.9,2.3-10.4,3.2c4.8,0.5,9-1.8,13.5-2.9c1.2,0.9,0.7,2.6,1.6,3.9c1.9-1.7-0.1-3.2,0.1-5
		c5.2-2,9.6-5.8,13.4-9.6c3.7-3.8,7-8.7,7.5-14.6c0.2-2.2,1-4,2.7-5.5c4.5-4.3,6.9-10.2,10.6-15.1c9.6-12.5,19.2-24.9,30.3-36.1
		c2.7-2.7,5.3-5.7,7.2-9.1c0.7-1.2,1.8-2.5,0.5-4.3c-1.1,0.7-0.8,2.3-2.1,2.7c-0.7-1.1-0.5-2.5-0.6-3.7c-0.1-1.4-0.2-2.8-1.2-4
		c-1.7-2.1-2.4-4.5-2.7-7.1c-0.5-4.8-1.2-9.6-0.7-14.4c0.8-7.6,2.3-15,5.2-22.1c1.3-3.2,2.7-6.2,2-9.8c1.5-0.2,2.3,1,3.5,1.1
		l-0.1,0.1c-0.9-2.9-3.4-4.9-5.4-6.6c-2.1-1.7-3-3.6-4.2-5.6c-0.5-1-0.8-2.2-2.8-2.5c0,5.2,2.8,8.9,6,13c-3.2-0.5-4.9-2-5.9-4.6
		c-1.4-3.4-3-6.6-4.4-10c-1.9-4.4-2-8.9-0.5-13.4c3-9.3,7.3-18,12.2-26.4c0.6-1,0.6-1,2.3-1.7c-0.1-4.8,10.4-14.9,18.7-17.9
		c1.8,1.2,3.6,2.4,5.4,3.7c-0.2,1.8,1.5,2.2,2.5,3c1.5,1.2,2.8,2.4,3.6,3.7c-0.7-1.5-2.4-2.6-3.9-3.9c-0.9-0.7-2.5-1.1-2.2-2.8
		c2.6,0.8,5.2,1.5,7.7,2.5c5,2,8.5,5.7,11,10.5c1.6,3,2.9,6.1,5.1,8.6c-0.7,0.6-1.4-0.6-2.1,0.5c1.4,2.1,4,2.8,5.4,5.2
		c1.5,6.3,1.2,12.9,0.4,19.6c-0.4,3.7-1.3,7.2-2.9,10.5c-0.9,1.8-1.9,3.5-4.5,4c-1-6.8,1.1-13.3,0.4-20.1c-1.6,0.6-1.2,2.5-2.3,3.3
		c-0.8-0.6-0.5-2-2.1-2.6c0.1,4.7-0.2,9.3-1.7,13.7c-1.5,4.3-4.8,7.6-6.4,11.8c2.7-4.1,6.3-7.3,8.8-11.6
		c-1.2,12.8,1.4,25.5-0.1,38.2c-0.6,5-0.3,10.1-0.9,15.1c-1.1,9.8-4.3,19-8.7,27.7c-2.2,4.3-3.2,8.8-3.5,13.5
		c-0.3,3.6-1.3,6.8-3.4,9.8c-3.7,5.2-7.8,10-12.5,14.3c-6.6,6.2-13.5,12-20,18.3c-7.6,7.4-16,13.8-25.3,18.9
		c-7.7,4.2-13.5,10.4-18.7,17.4c-3,4-6.2,7.9-8.6,12.4c-1,1.9-2.7,2.8-4.8,3.1c-5.3,0.9-10.5-0.4-15.8,0.1c-2.6,0.2-3.6-2.2-5.6-4.4
		c-0.3,2.6,0.5,4.5,1.8,5c2.1,0.8,4,2.2,6.5,2.3c4.9,0.1,9.7-0.8,14.6-0.4c2.1,0.2,3.5-1.6,4.6-3.4c3.3-5.3,6.5-10.6,10.7-15.3
		c1.9-2.1,3.1-4.7,5.7-6.4c3.3,1.3,4.6,4.2,5.1,7.4c1,5.6-1.1,10.5-4.3,14.8c-6.2,8.1-14.5,13.1-24.4,15.8
		c-6.1,1.6-12.3,2.1-18.5,0.5c-7.7-2-12.1-7.1-11.9-14.4c0.1-4.6,1.7-8.9,5.5-12.4C249,472.1,248.6,474.3,250.7,474.5
		c2.8,2,2.8,2,9.2,1.3C256.3,476,253.2,477.1,250.7,474.5z"/>
	<path fill="#FFFFFF" d="M229.8,377.6c-2.2,10-2,20.3-3.8,30.3c-0.4,2.2-1.4,4.2-2.2,6.6c-8.9-8.8-19.4-8.7-30.9-6.2
		c0.1-6-0.1-11.6,0-17.4c0.2-5.6,3.3-10,4.9-15c1.9-6,4.5-11.8,7.7-17.3c1.9-3.3,2.3-7,2.2-11c-0.1-5.1,1.6-10.2,2.4-15.3
		c1.1-6.9,4.3-12.9,7.7-18.7c1-1.8,3.4-2.1,4.1-4.6c0.7-2.4,1.5-4.7,1-7.2c-2.6-14.5,1.9-27.3,9.7-39.3c4.3-6.6,9.8-11.7,17.2-15.9
		c0.8,0.8,0.8,1.9,1,2.9c-1.8,1.9-3.9,3.7-5.3,6.1c-1.1,1.9-0.9,3.5,1.6,4.8c0.5-3.9,2.9-6.4,5.1-9.2c1.2,2,2.3,3.8,3.5,5.7
		c-3.8,14.6-2.4,28.6,5.6,41.9c-1.9,0.8-3.3,3.1-6.1,2.3c-1.7,3.6-4.6,6-8.6,7.8c1.9,0.9,2.9-0.5,4.3,0.3c0.7,3.1-1.1,6.3-0.2,9.3
		c2.1-3.4,1.9-7.7,3.4-11.5c1.1-2.8,2.6-4.3,5.3-4.9c1-0.2,2-0.5,3.3-0.9c0.3,2.8-1,5.4-0.7,8.8c1.6-3.3,1.2-6.4,2.3-9.2
		c3.7-1.8,7.7-1.5,11.6-1.9c8.8-1,17.2,1.6,25.7,2.8c11.7,1.6,23.3,4.1,34.7,7.5c0.4,1.7-0.1,3.3-0.8,4.7
		c-5.1,10.2-7.9,20.8-6.7,33.3c-6.1-4.7-12.2-7.9-18.7-12c0.9,4.3-0.8,8-0.4,12.6c1.7-3.1,1-6.1,2.5-8.7c5.8,2.6,10.7,6.5,16.5,9
		c1,8.2,5.3,15.6,5.3,24.3c-3.1,3-6.5,6.2-10.1,9.6c-6.3-4.5-14.3-7.6-20.4-13.4c-6.2-6-13.1-11-20.4-15.5c-0.8-0.5-1.7-0.9-1.3-2.3
		c3.4,0.2,6.9,0.4,10.4,0.6c0-0.2,0-0.5,0-0.7c-3.4-0.6-6.8-1.1-10.4-1.1c-0.6-5.4,1.3-10.2,1.4-15.3c8.4,0.1,16.3,1.8,24.4,1.9
		c-8.3-2.4-16.8-3-25.5-3.6c-0.8,4.8-1.5,9.2-2.4,14.4c-3.6-3.8-7.9-5.8-11-9.6c-2.3-2.8-5.7-4.9-8.8-6.9c-2.1-1.3-3.9-3.1-6.5-3.9
		c-1.5-0.4-1.7-2.8-2.6-4.8c-1.4,2.7,0.8,4.2,1.2,6.2c-0.6,1.8-0.7,3.9-0.9,6.1c-0.3,6.9-3.8,12.8-6.9,18.7
		c-3.9,7.7-8.9,14.8-13.6,22.1C230.3,375.6,230.1,376.7,229.8,377.6c-0.8-0.2-1.2,0.3-1.8,0.7C228.5,377.9,229,377.4,229.8,377.6z"
		/>
	<path fill="#FFFFFF" d="M323.4,384c-12.7,13.9-23.9,29-35.3,44.6c-0.9-2.1-1.4-3.5-2-4.8c-4.6-10.2-13.2-13.2-23.4-12.8
		c-12.4,0.4-23.1,5.5-32.5,13.5c-0.4,0.4-0.9,0.7-1.6,1.2c-0.9-2.7-1.4-5.3-2.8-7.6c-0.8-1.2-0.1-2.2,0.2-3.3
		c2.9-8.6,4.4-17.5,4.3-26.6c-0.1-6.7,1.5-12.8,5.6-18.4c2.5-3.4,5-6.7,7.6-10c5.4-6.8,8.6-14.8,10.7-23.2c0.6-2.4,0.3-4.8-0.4-7.4
		c5.6,1.8,9.5,5.6,13.5,9.1c4.1,3.5,8.1,7.1,12.6,10c0.7,1.1-0.7,1.4-0.6,2.5c0.5,1.6,1.8,2.8,3.3,3.7c8.2,5.3,15.8,11.4,22.9,18
		C310.5,377.3,317,380.2,323.4,384z"/>
	<path fill="#FFFFFF" d="M408.8,343.9c0.5,0.2,1.3,0.8,1.5,0.7c2.5-2,5.8-2.9,7.2-6.6c0.8-2.1,1.9-4.4,3.2-6.4
		c3.7-5.8,5.4-12.2,4.9-19.6c2.6,2.6,3.1,5.6,3.9,9.2c1-3.1,0.7-5.5,0.9-6.8c-4-8.4-11.3-12.8-16.6-19.1c1.7,1,3.5,1.4,5.3,1.6
		c3.5,0.5,6.8,1.5,9.8,3.6c5.5,3.9,10.9,7.7,14.7,13.5c1.1,1.8,2.2,3.6,2.9,5.6c5.2,15.1,13.1,28.7,23.4,40.9
		c4,4.7,7.5,9.9,11.5,14.7c0.9,1,1.4,2.2,1.3,3.5c-0.5,5.7-0.7,11.4-1.5,17.1c-0.8,5.3-2.2,10.6-4.9,15.3c-0.8,1.4-2.1,1.8-3.4,2.3
		c-2.7,0.9-5.3,2.1-8.1,2.4c-6.1,0.7-11.8,0.6-17.4-3.7c-5.1-3.9-5.2-10-8.9-14.3c8.1,5.9,17.4,8.6,26.8,11.8
		c-2.5-2.1-5.2-3-7.9-3.9c-7.1-2.5-13.8-5.9-20-10c-2.9-1.9-4.2-5.5-5.9-8.6c-0.7-1.3,1-2.1,0.7-3.6c-1.1-2.3-2.9-4.8-1.7-8.1
		c-6-2.9-11.9-5.7-16-11.8c4.5,0.5,8,2.4,11.4,4.3c-3.3-5.4-10.2-8.2-15.9-6.7c-8-5.7-12.9-10.8-12.7-13.4c1.6-0.1,2.9,0.8,4.6,1.3
		c1-2,3-1.1,4.7-1.5c2.1-0.4,3.4-1,2.3-3.5C408.6,344.1,408.7,344,408.8,343.9z"/>
	<path fill="#FFFFFF" d="M302.9,221.4c1.5,0.1,1.6-1.1,2-2c0.6-1.5,1.1-3,1.9-4.5c0.3,3.2-1.3,6.1-1.2,9.4c2.9,0.9,2.1,4,3.4,6.3
		c2.9-2.5-1-5.9,1.5-7.9c-1-1.5-1.9,0-2.9-0.5c0.4-1.9,0.8-3.8,1.2-5.7c1.1,0.2,2.1,0.4,3.1,0.6c1.6,9.3,0.4,12.5-5.9,15.8
		c1.4,6.6,0.3,13.1-1.6,19.5c-0.3,1-0.7,1.7-1.3,2.4c-2.3,2.8-4.4,5.8-6.2,9c-1.6,2.8-3.6,5.2-6.1,7.2c-1.1,0.9-2.6,1.6-3.2,2.7
		c-3,5.8-8.6,4.3-13.3,4.9c-2.4,0.3-4.2-1.8-5.4-3.9c-2.7-4.8-5.6-9.5-8.2-14.4c-2-3.7-4.3-7.3-6.8-10.7c-1.5-2-2-4.4-2.6-7.7
		c4.2,2.7,8.1-1.2,11.8,1.6c-0.2-2.1-1-3.4-3-3.5c-2.8-0.1-5.2-1.2-7.6-2.4c-1.2-0.6-2.2,0-3.7,0.2c-2.1-5.7-3.1-11.7-3.7-17.7
		c1.7-2.7,4.5-3.1,7-3.6c5.6-1,10.9-3.2,16.5-4.3c1.2-0.2,0.9-1.5,1.8-1.9c1.2,0,2.3,0.3,3.3,0.9c5.1,3.3,10.9,5.6,15.7,9.4
		c2.6,2.1,5.9,2.8,8.6,4.7c0.9,0.6,1.4-0.5,2.3-0.2c1.3,2.6,0.8,5.9,2.9,8.4C305,231.2,304.8,224.2,302.9,221.4L302.9,221.4z"/>
	<path fill="#FFFFFF" d="M484.6,385.9c5.6,2.8,11,4.2,16.4,5.6c7.4,1.9,13.4,5.7,17.2,12.8c1.9,3.6,4.5,6.9,6.9,10.1
		c4.8,6.4,7.4,13.9,10.4,21.1c2.7,6.5,6,12.4,10.7,17.7c1.9,2.1,3,4.6,4.1,7.8c-5-4.2-7.3-9.9-11.5-14c3.4,5.8,6.4,11.7,10.8,16.7
		c0.2,1.9-0.8,3.2-1.6,4.8c-1.9,0.5-3.9,1.1-5.7,1.6c-1.4-0.7-1.3-2.5-2.9-2.8c-0.3,1.3,0.8,2.1,0.8,3.3c-1.4,1.1-2.9,1.6-4.5,2
		c-1-0.4-1.1-1.3-1.3-2c-2.1-7.7-6.7-13.7-12.1-19.5c-4-4.3-8.7-7.4-13.5-10.6c-5-3.3-9.8-6.6-13.8-11.1c-3.3-3.8-7.7-5.6-12.3-7.1
		c-1.5-0.5-2.7,0.4-4.1,0.3c-3.7-0.3-6.7-1.8-9.4-4.8c2-1.5,4.4-1.7,6.4-2.7c2.2-1.2,2.7-3.4,3.7-5.3c1.7-0.3,2.4,2.1,4.2,1.5
		c0.9-1.6-0.2-2.8-0.9-4.1c-0.5-0.9-1.2-1.8-0.8-2.9C484.1,398.4,484.2,392.4,484.6,385.9z"/>
	<path fill="#FFFFFF" d="M373.3,374.3c2-3.1,3.4-6.3,4.7-9.9c7.1,3.9,11.2,11.3,18.7,14.3c-2.8-2.8-6.1-5.1-8.9-7.9s-5-6.4-9.5-7.4
		c2.4-7.1,4.4-14.1,4.3-21.4c1.3-0.4,1.5,0.7,2,1.2c7.3,6.9,14.3,14.2,23.2,19.3c4.4,2.5,7.6,6.6,11.5,10
		c-1.7,6.7-2.7,13.5-0.9,21.1c-0.2-7.8,0-15,2.1-21.9c3,0.9,2.9,4.9,6.2,5.2c0.5,5,4.4,9.4,2.3,14.7c1.2,0.2,0.9-1.2,1.8-1.1
		c2.3,3.8,4.7,7.7,7.1,11.6c0.4,0.6,0.9,1.2,1,1.8c0.9,5.8,5.6,8.6,9.4,12.2c1.3,1.2,2.9,1.3,4.5,1.7c-0.3,2.6-0.8,4.9-2.3,6.8
		c-2.4,1.4-5.4-1.1-7.9,1.2c-3.7-4.2-8.7-6.7-13.4-9.5c-5.8-3.4-9.8-9-15.4-12.6c-4.9-3.1-10.3-5.8-14.6-9.8
		c-6.8-6.4-14.7-11.3-22.3-16.6C375.8,376.4,374.7,375.4,373.3,374.3z"/>
	<path fill="#FFFFFF" d="M204.2,408.2c5,0,9.8,0.9,14.1,3.6c5.3,3.4,7.5,8.7,6.2,14.8c-0.7,3.3-1.7,6.4-3.8,9
		c-11.1,13.8-25.4,20.3-43.2,18.3c-1.4-0.1-2.8-0.5-4.1-1c-9.1-3-12.8-10.8-9.7-19.8c1.3-3.7,3.4-7,6-9.9
		C177.8,414.5,192.2,408.2,204.2,408.2z"/>
	<path fill="#FFFFFF" d="M243.7,458.9c-4.6-0.1-8.8-0.5-12.6-2.4c-9-4.5-9.6-9.9-8-18c0.9-4.5,3.6-8.2,6.8-11.3
		c10.1-10,22.2-15.1,36.5-14.6c4.5,0.2,8.8,1.4,12.5,4.1c4.8,3.6,6.5,8.4,5.4,14.3c-1.2,6-4.5,10.8-8.9,14.8
		C266.2,453.9,255.6,458.3,243.7,458.9z"/>
	<path fill="#FFFFFF" d="M382.3,337.4c2.6-11.9,1.3-24.1,0.8-35.9c11.3-8.7,12.5-20.3,10.8-33.5c4.2,5.4,7.2,10.8,10,16.2
		c2.5,4.7,4.7,9.5,8,13.6c5.5,6.8,6.2,14.2,4.7,22.7c-1,5.7-3.7,10-6.8,14.4c-3.4,4.8-8.2,7.6-14.1,8.3c-1.7,0.2-3.1,0.9-4.6,2
		C388.4,342.7,385.5,340.2,382.3,337.4z"/>
	<path fill="#FFFFFF" d="M315.1,226.3c1.5,2.1,4.3,0.9,6.2,2.6c2.7,6.1,1.6,17.3-2.1,18.4c1.1,1.4,0.5,2.8,0.1,4.3
		c-2.4,8.9-5.3,17.8-6.3,27.1c-0.2,2.1-0.5,4.2-0.4,6.3c-1.2,1.1-3.7,0.4-4,3c1.3,0.1,2.4-0.9,3.6-0.7c1.4,6.5-4.6,8.2-8.1,12.1
		c-10.3-3.1-21.1-2.7-31.9-2.8c-3.4-5.9-4.1-12.3-4.6-19.5c4.9,5.4,10.4,3.5,15.7,2.7c1.3-0.2,2.6-0.9,3.3-1.8
		c1.5-1.8,3.5-2.6,5.5-3.5c2.2,1.2,4.4,2.2,7.1,2.6c-0.4-3.7-3.8-3.7-6.3-5.2c9.7-10.5,17.5-21.6,15-37c1.3-1.8,3.4-1.2,5.3-1.3
		c1.2,4.6,1.4,9.4,3,13.9c0.2,0,0.5-0.1,0.7-0.1c-0.9-5.3-1.8-10.6-2.7-16.3c2.2,2.9,2.6,6.1,4,8.9c0.4-4-1.4-7.2-3.3-10.5
		c-0.6-1.1-1.7-2.1-0.4-3.4C314.9,226.2,315,226.2,315.1,226.3z"/>
	<path fill="#FFFFFF" d="M379.3,447.1c2.3,5.3,8,5.5,11.8,8.5c0.8,9.7-4.5,16-12.1,20.9c-4.1,2.6-6.3,6.7-7.7,11.1
		c-0.9,3-1.8,6.1-2.7,9.1c-1.5,4.9-4.8,7.9-9.5,9.7c-4.3,1.6-8.8,2.5-13.4,2.1c-1.1-0.1-2.1,0.1-3.1,0.3c-4.3,0.8-8.2-3-7.4-7.3
		c0.9-4.6,1.9-9.2,2.9-13.8c0.7-0.9,1.9-1.2,2.8-1.8c0.8,0.2,1.1,0.7,1.2,1.3c-0.2,0.9-1.8,0.8-1.6,2.4c1.4,3.9,5.5,5.6,10.7,4.1
		c0.4-2-2-2.1-2.4-3.5c1.2-1.4,3.3-0.7,5.2-1.7c-1.9-1.5-3.4-2.6-5-3.8c2.4,0.5,4.6,0.5,6.8-1c-2.8-2.9-6.7-2.9-9.7-4.6
		c-0.5-1-0.1-1.7,0.3-2.9c3.5,3.6,7.4,5,12.2,3.1c-0.9-2-2.7-2.3-4.3-2.7c-2.2-0.6-3.8-1.8-5.2-3.4c-0.9-1-1.5-2.1-0.5-3.6
		c4.3,4.1,9.1,6.5,15.1,3.4c-4.9-2-9.9-3.8-14.6-7c-1.7-2.1,1.1-5.5-1.4-7.8c0.8-1.2,1.8-2.2,3.5-2.9c2,4.4,4.1,8.7,7.3,13
		c1.9-3.3,4.2-2.5,6.5-1c2,1.3,3.8,0.9,5.3-0.9c2.1-2.5,4.2-5,6.1-7.7C378.7,455.3,379.1,451.4,379.3,447.1z"/>
	<path fill="#FFFFFF" d="M553.2,456.9c2.7,2,5.7,1.2,8.7,1.3c3.7,4.9,2.2,10.5,1.5,15.8c-0.7,4.7-0.8,9.1,0.8,13.5
		c2.3,6.5,2.5,13.1,2.3,19.8c-0.1,2.1-0.7,3.9-2.3,5.3c-1.2,1.1-2.3,2.4-3.3,3.6c-5.7,7.3-13.6,9-22.3,8.4c-2.2-0.1-4.4-0.1-6.6-0.8
		c-2.1-0.6-3.8-1.7-5.6-3.6c2.1-6.7,6.4-12.5,7.9-19.3c5.9,0.6,11.1,1.4,16.4-1.2c-2.1-2.3-2.1-2.3-15.4-0.6
		c-0.4-1.3-0.1-2.5-0.1-3.8c0.1-1.3,0.2-2.5,0.4-3.7c6-0.9,12.3,0.8,18.7-2.5c-3.6-3.1-7-1.5-10-1.5c-3-0.1-6.1,0.1-9.1,0.4
		c6-1.8,12.3-0.9,18.7-2.5c-2.4-3-4.3-3-17.8-1.3c0.2-0.9,1.4-0.2,1.6-1.5c-0.3-2.3-3-3.7-4-6.1c5.9-1.9,11.7-3.9,17.5-5.7
		c2.5,2.1,3.1,5.2,5.4,7.3c-0.1-4.4,1.7-8.4,2.2-12.5c0.3-2.5-1.7-4.5-3.5-6.3C554.5,458.6,553.4,458.2,553.2,456.9z"/>
	<path fill="#FFFFFF" d="M186.2,469.1c0.4,3.5,2.1,5.7,5,7c0.6,0.3,1.5,0.6,1.7,1.1c1.5,3.8,5.1,3.8,8.2,4.3c5,0.8,9.9,0.5,14.6-2.1
		c4.9-2.8,7.4-8.9,5.1-14.2c-1.3-2.9-2.2-8.1-1.9-11.1c1.1-0.5,2.3-0.1,3.7,0c2,3.3,4.1,6.6,7.8,8.6c3.6,2,7.5,2.7,11.6,3.4
		c-0.4,3.8-2,7-3.9,10c-3.1,4.7-7.4,8.2-12.1,11c-9.4,5.6-19.5,8.4-30.6,6.1c-0.2,0-0.5-0.1-0.7-0.2
		C181.6,489.8,180.3,477.2,186.2,469.1z"/>
	<path fill="#FFFFFF" d="M327.6,303.9c-6.8-1.2-13.1-3.6-19.8-4.4c7.2-3,7.8-9.1,8.1-15.6c0.4-7.6,1.3-15.2,3.8-22.4
		c2.4-6.9,4.6-13.8,5.7-21c0.6-3.7,0.7-7.5-1.6-11.3c11.3-1.8,22.3-3.9,33.9,1.6c-4.3,1.8-7.3,4.3-10.6,6.4c-2.6,1.7-5,3.6-6.8,6
		c-6.9,9.3-12.8,19.1-16.6,30c-3.4,9.7-2.7,18.9,2.7,27.7c0.4,0.7,0.8,1.4,1.2,2.2C327.6,303,327.6,303.2,327.6,303.9z"/>
	<path fill="#FFFFFF" d="M303.3,471.2c0.8,4.9-0.4,8.5-2.2,11.9c-7.4,14.7-30.9,24.4-46.4,19.4c-4.1-1.3-7.4-3.7-9.6-8.2
		c10.1,7.1,20.4,6.5,31,3c3.7-1.2,7.2-2.8,10.5-4.9C294.5,487.6,300.7,481.4,303.3,471.2z"/>
	<path fill="#FFFFFF" d="M185.6,490.2c6.2,4.9,13.2,6,20.6,5.2c10.6-1.2,19.8-5.5,27.8-12.4c4.6-4,7.9-8.8,9.3-15
		c1.3,1.5,0.7,3,0.3,4.2c-1.6,5-3.2,10-7.3,13.8c-10.7,9.9-23,15.1-37.8,13.1C192.9,498.3,188.2,495.6,185.6,490.2z"/>
	<path fill="#FFFFFF" d="M164.9,449.7c9.9,7.8,20.4,7.5,31.3,4.3c9.9-2.9,18.4-8,25-16.6c-0.3,6.3-0.4,6.8-4.6,10.6
		c-6.8,6.1-14.8,9.7-23.7,11.5c-6,1.2-11.9,1.2-17.7-0.8C170.6,457.2,167.2,454.5,164.9,449.7z"/>
	<path fill="#FFFFFF" d="M269.3,296.7c-2,0.5-3.6,0.9-5.3,1.3c-6.4-11.5-9.2-23.6-6.5-36.6c1.4-0.3,1.6,0.7,1.9,1.4
		c2,3.4,3.2,7.2,5.8,10.3c0.7,0.8,0.6,2.2,0.5,3.4C265.2,283.3,265.6,290,269.3,296.7z"/>
	<path fill="#FFFFFF" d="M349,433.8c1.8,6.9,4.8,13.4,4.6,21c-1.6-2.1-3.3-2.3-5-0.8c-1.8,1.6-3.8,2.9-3.3,6
		c1,6.5,0.3,12.9-2.4,19.1c-0.8,1.8-2.1,3.3-3.8,4.7c1.3-7,2.4-13.8,3.7-20.5c0.8-4.4,1.1-8.8,1.7-13.2
		C345.4,444.5,347.6,439.3,349,433.8z"/>
	<path fill="#FFFFFF" d="M362.7,461c9.5-3.3,13.3-7.3,13.2-14.6c1.6,3.1,0.7,7.8-2.4,10.5C370.5,459.6,367.1,461.9,362.7,461z"/>
	<path fill="#FFFFFF" d="M532.9,459.8c3.8,4.7,3.8,4.9,1.9,11.3c-1.2-1-1.8-2.4-3.3-3.2C532.7,465.5,532.9,463,532.9,459.8z"/>
	<path fill="#FFFFFF" d="M204.8,458.1c3.4-2.7,7.5-4.5,10.8-7.4c-0.1,1.9-0.7,3.6-2.4,4.1c-2.9,0.9-5.5,2.5-8.3,3.4L204.8,458.1z"/>
	<path fill="#FFFFFF" d="M221.9,451.7c-1.5,0.1-2.6,0.2-3.7,0.2c-1.4-2.2-0.1-3.5,1.4-4.7C221.5,448.8,221.5,448.8,221.9,451.7z"/>
	<path fill="#FFFFFF" d="M411.1,338c1.8-1.8,3.3-3.7,4.7-5.8c0.7,2.8-2.5,4.9-0.6,8.1C413.3,339.7,412.3,338.8,411.1,338z"/>
	<path fill="#FFFFFF" d="M260.7,202.8c-1.2,1.2-2.4,2.2-4.3,2.3c-1.5-1.9-0.5-3,1.3-3.9C258.9,201.4,259.8,202.1,260.7,202.8
		L260.7,202.8z"/>
	<path fill="#FFFFFF" d="M408.6,344.2c-1.6,1.4-3.2,2.6-5.4,0.7c2.1,0.6,2.9-4.7,5.6-1C408.7,344,408.6,344.1,408.6,344.2z"/>
	<path fill="#FFFFFF" d="M420.1,322.6c2.3,2,0.1,3.9-0.4,5.9c-0.7-0.8-2-1.7-0.4-2.7S418.3,323.6,420.1,322.6z"/>
	<path fill="#FFFFFF" d="M364.1,464.1c-1.3-0.2-2.5-0.4-3.8-0.7c-0.7-0.7-1.1-1.6-0.8-3.1C361.4,461.2,362.6,462.8,364.1,464.1
		L364.1,464.1z"/>
	<path fill="#FFFFFF" d="M270.6,203.5c1.3,1.2,1.3,2.9,1.8,4.6c-1.3,0-2.5,0-3.6,0C270.9,207.2,271,205.4,270.6,203.5L270.6,203.5z"
		/>
	<path fill="#FFFFFF" d="M274,185.3c-1.3-0.5-2.2-0.9-3.1-2.1c2.1,0,4,0.4,6.2-0.2C276.4,184.8,275.1,184.8,274,185.3z"/>
	<path fill="#FFFFFF" d="M263,178.9c2.4-0.3,3.9,1.4,5.6,2.5C266.1,182.1,265.5,178.3,263,178.9z"/>
	<path fill="#FFFFFF" d="M364,464.1c1.7-0.3,2.7-2.2,4.9-2.2c-0.4,1.2-1,1.9-1.8,2.5C366.1,464.8,365.1,464.2,364,464.1L364,464.1z"
		/>
	<path fill="#FFFFFF" d="M205,458.3c-1.7,1.6-3.9,1.8-6.1,1.8c1.9-0.9,3.7-2,5.9-1.9L205,458.3z"/>
	<path fill="#FFFFFF" d="M246.8,194.2c0.8,0.5,1.5,1,2.3,1.6c-1,1-2,0.5-3,0.5C245.6,195.6,246.2,195.1,246.8,194.2z"/>
	<path fill="#FFFFFF" d="M280.2,195.9c-0.5-1-1.1-1.7-0.8-2.7c1.3-0.5,1.7,0.7,2.5,1C281.8,195.3,280.9,195.3,280.2,195.9z"/>
	<path fill="#FFFFFF" d="M285.1,203.3c1.8,0.6,3.2,0.8,3.6,3.1C287,206,285.8,205.3,285.1,203.3z"/>
	<path fill="#FFFFFF" d="M285.4,182.8c-1.5,0.3-2.5,1.6-3.9,0.1C283.2,182,283.2,182,285.4,182.8z"/>
	<path fill="#FFFFFF" d="M263,192c0.3-1.8,1.7-2.6,3.1-4.4C265.7,190.2,264.7,191.4,263,192z"/>
	<path fill="#FFFFFF" d="M356.8,461.4c-1.2-1-1.7-2.2-2.2-3.5C356.4,458.7,356.4,458.7,356.8,461.4z"/>
	<path fill="#FFFFFF" d="M295.8,195.7c-1.1-0.7-2.1-1.5-3.2-2.2C294.8,192.4,295.2,194.3,295.8,195.7z"/>
	<path fill="#FFFFFF" d="M277.6,177.3c-1.7,0.5-3.3,0.6-5,0C274.3,176.5,276,176.9,277.6,177.3z"/>
	<path fill="#FFFFFF" d="M420.9,314c1,1,1.3,2.2,1.9,4.1C421.1,316.6,420.1,315.8,420.9,314z"/>
	<path fill="#FFFFFF" d="M306.1,204.5c-0.7-2.7,0.9-2.2,2.9-2.1C307.4,202.8,306.9,203.5,306.1,204.5z"/>
	<path fill="#FFFFFF" d="M294.4,208.2c-0.4,1-1,1-1.8,0.7C292.8,207.7,293.3,207.4,294.4,208.2z"/>
	<path fill="#FFFFFF" d="M246,469.9c-0.7-0.6-0.6-1.1-0.2-1.6C246.8,468.5,247,469,246,469.9z"/>
	<path fill="#FFFFFF" d="M273.8,194.5c-1.4,0.8-2,0.5-2.6,0.3C271.8,193.6,272.4,194.3,273.8,194.5z"/>
	<path fill="#FFFFFF" d="M285,216.1c-0.5-0.3-1-0.6-1.7-1c1-0.6,1.4,0.2,1.7,0.2C285.4,215.7,285.3,215.9,285,216.1z"/>
	<path fill="#FFFFFF" d="M251.5,205.6c0.7-1.2,1.2-1.3,1.7-0.8C253.2,206,252.4,205.5,251.5,205.6z"/>
	<path fill="#FFFFFF" d="M250.2,239.1c1.1,0.5,1.8,0.8,1.5,2C250.4,241.1,250.3,240.3,250.2,239.1z"/>
	<path fill="#FFFFFF" d="M226.4,428.2c-0.4-1.1-0.2-1.8,0-2.8C226.8,426.4,226.9,427.1,226.4,428.2z"/>
	<path fill="#FFFFFF" d="M260.7,202.9c0.5,0.4,1.4,0.3,1.6,1.2C260.9,204.6,260.6,203.9,260.7,202.9L260.7,202.9z"/>
	<path fill="#FFFFFF" d="M411.2,342.2c-0.7,0.2-0.9-0.1-1.1-0.6C410.8,340.9,410.8,342,411.2,342.2z"/>
	<path fill="#FFFFFF" d="M270.7,203.5c-0.6,0.1-1.3,0.3-1.4-0.9C269.8,202.9,270.2,203.2,270.7,203.5L270.7,203.5z"/>
	<path fill="#FFFFFF" d="M302.9,221.3c-1-0.5-0.5-1.2-0.2-1.9C302.8,220.1,302.8,220.7,302.9,221.3L302.9,221.3z"/>
	<path fill="#FFFFFF" d="M420.2,319.2c0.9,0.2,1.1,0.5,1.1,1.1C420.6,320.5,420.4,320,420.2,319.2z"/>
	<path fill="#FFFFFF" d="M794.4,212.5c1.7,0,2.8,0.6,4,1.1c2.6,1.1,4.9,1.6,8,0.5c3.8-1.5,8.2-0.7,12.2,0.3c5,1.2,10,2.2,15.2,2.5
		c6.3,0.4,12.4,2.4,18.5,3.9c0.5-1.4-1-1.6-1-2.9c14.4-4.3,29-2.8,44.4-2c-1.5,1.6-3.7,0.9-3.8,3c10.2-1.4,20.2-4.8,30.7-2.6
		c-0.1-1.9-1.8-0.9-2.7-2.2c6.8,1.5,13.6-1.3,20.3,1.9c-6.3,11.5-5,22.1,4.6,31.5c-6.3,2.5-12.3,0.7-18.3,0.2c-3-0.3-6-1.2-8.9-2
		c-1.8-0.5-3.7-1.3-5.5-0.7c-6.3,1.9-12.5,3.9-17.9,8c-2.5,1.9-5.4,2.7-8.3,3.7c-9.3,3.2-18.8,5.1-28.7,4.8c-3.5-0.1-7-0.7-10.4-2.2
		c1.4-1.6,2.4-3.4,5.3-2.8c-1.7-1.8,1-2.5,0.6-3.9c-1.1-0.7-1.7,0.1-2.2,0.6c-2.7,2.8-5.9,4.9-8.6,7.8c-5.1,5.5-11.3,9.3-18.4,11.7
		c-0.7,0.2-1.3,0.4-2,0.7c-0.3,0.1-0.5,0.4-1.4,1c5.5-0.9,10-2.4,15.2-4.4c-4.5,10.2-8.5,20-13.8,28.9
		c-13.1-3.5-20.2-12.5-25.3-23.7c-3.3-7.3-3.2-15-3.7-22.7c-0.6-11.3-0.9-22.5,1.6-33.7C794.3,216.7,794.2,214.7,794.4,212.5z"/>
	<path fill="#FFFFFF" d="M813.8,324.1c-10.5-6.2-21.1-12.3-31.6-18.5c-1.5-0.9-3-1.7-4-3.3c-0.7-1.2-1.9-1.7-3.3-1.9
		c-5.1-0.5-9.7-3.1-14.9-3.2c-0.2-1,0.5-1.3,0.9-1.6c11.9-11.2,18.2-25.1,19.8-41.2c0.9-8.7,1.7-17.2,1-26
		c-0.4-4.7,0.6-9.6-1.3-14.7c3.9-0.4,7.3-1.9,11.5-1.6c-0.4,2.3-0.6,4.4-1.2,6.4c-1.6,5.8-2.4,11.7-2.5,17.8
		c-0.1,10.3-0.6,20.7,2.2,30.8c2.3,8.4,5.8,16.4,10.8,23.6c1.9,2.7,4.4,4.9,7.4,6.4c3.9,2,7.6,4.1,11.6,5.9
		c7.5,3.3,14.5,0.3,17.5-7.2c3.1-7.8,5.9-15.6,5.3-24.2c-0.1-1.7,0-3.5-1.5-4.9c-0.5-0.5-0.5-1.3,0.2-2c4,5.6,8.1,11,11.1,17.3
		c2.1,4.4,4.4,8.9,7.6,12.7c4.6,5.6,6.4,11.8,5.5,18.9c-1.4,11.5-6.2,20.7-17.3,25.7c-2.9,1.3-6.3,0.7-8.8,2.9c-2-1.1-3.1-3.2-5.1-4
		c-0.3,0.4-0.5,0.8-0.8,1.3c-5.6-3-10.1-7.4-15.2-10.9c0.3-1.7,2.1-1.7,2.7-3.1c-1.7-0.2-2.6,1.4-4.2,1.7c-1.2-0.6-2.5-1.3-3.4-2.6
		c1.3-1.2,3.2-1.1,4.3-2.1C817.1,323.1,815.3,323.2,813.8,324.1z"/>
	<path fill="#FFFFFF" d="M679.3,248.8c0.2-1.4-0.9-2-1.9-2.7c-4.8-3.7-8.7-7.9-10.5-14c-0.9-3-2.5-5.8-3-8.9
		c-0.1-0.7-0.3-1.4-1.5-1.6c0.3,2.4,0.6,4.8,1,7.2c-3.2,0.6-6.4-0.1-9.6-0.5c-12.2-1.7-24.5-2.8-36-7.7c-4.7-2-9.3-4-14.4-4.5
		c-7.9-0.9-15.6-3.2-23.6-2.7c-0.6-0.6,0.1-1,0-1.5c-0.8-0.9-2-0.1-3.1-0.8c0.2-2.4,2.1-3.9,2.9-6.3c2.7,0.6,5.3,1.5,8.4,0.8
		c-2.3-1.4-4.9-1-7.1-2.6c0.4-1.2,0.2-2.8,1.2-4c4.9,1.3,9.8,0.8,14.7,0.3c5.6-0.6,11.1-1.4,16.6-3c3.2-0.9,6.7-1.1,10.1-1
		c4,0.1,8,0.4,12,0c5.8-0.7,11.3,0.8,17.1,1.9c-0.7,1.3-2,0.3-2.5,1.1c-0.2,0.2-0.1,0.4,0.2,0.5c5.2,0.7,10.4,1.6,15.7,2.2
		c7,0.8,12.8,4.3,18.9,7.5c-0.8,1.5-2.3,2.2-2.6,4.2c1.5,0.7,0.3,2.2,0.5,3.3c2,1.2,3.5-0.2,5.8-0.6c3.8,9.1,5.9,19,10.5,28.4
		c-3.6,0.1-6.6,0.2-10.1,1.1c3.6,1.7,6.9,0.8,10.5,1c2.6,4.3,6.3,8.1,8.2,13.1c0.9,2.2,1.1,4.2,0.6,6.5c-0.8,3.9-2,7.7-1.5,12.3
		c2.5-3.7,2.8-7.6,3.8-11.4c2.6,1.3,3.8,3.6,5.3,5.8c5,6.8,7.1,15.5,14,21.2c-5.9,0.5-11.6-0.5-16.9,1.7c-5.5-6.4-5.5-14.9-9.1-21.8
		c-1.2-0.3-1.3,1.5-2.3,0.8c-3-1.9-6.5-2.7-9.5-4.5c-5.7-3.4-8.6-8.7-10.6-14.8C680.7,252.5,680.9,250.2,679.3,248.8L679.3,248.8z"
		/>
	<path fill="#FFFFFF" d="M699.9,239.5c3.1,0.5,5.8,0.7,8.5-0.4c1.3-0.5,1.8,1.7,3.3,0.9c0.7-2.5-1.8-3-3-3.1
		c-2.9-0.2-5.4-1.3-7.9-2.6c-1.2-0.6-2.2,0.2-3.5,0.3c-2-5.8-3.1-11.8-3.6-17.9c1.8-2.4,4.5-2.9,7.1-3.4c5.5-1,10.7-3.2,16.1-4.2
		c1.2-0.2,1.1-1.3,1.7-1.9c1.4-0.3,2.6,0.2,3.7,0.9c5.2,3.3,11,5.8,16,9.6c2.5,2,5.7,2.7,8.3,4.5c0.9,0.6,1.4-0.6,2.1-0.3
		c1.6,2.7,0.8,6.2,3.7,9.1c0.3-3.3,1.1-6,0.5-8.4c-1.1-4.5,1.3-7.8,2.9-11.5c-0.6,3.3-1.3,6.6-2,10c3.1,0.7,2.6,3.6,3.3,6.2
		c3.4-2.6-0.6-6,1.9-7.9c-1-1.4-1.9-0.2-2.9-0.4c0.4-1.8,0.7-3.7,1.1-5.7c1.1,0.2,2.1,0.4,3.1,0.5c1.9,8.5,0.2,13-6.2,15.8
		c1.8,3.8,0.6,7.8,0.3,11.8c-0.2,4.1-1.1,8-3.9,11.3c-2,2.4-3.8,5.1-5.3,7.9c-1.5,2.7-3.5,5-5.9,6.9c-1.7,1.4-3.5,2.7-4.7,4.7
		c-0.6,1.1-1.6,1.6-2.8,1.9c-2.7,0.7-5.5,1.1-8.3,1.2c-2.9,0.2-4.8-1.6-6.1-4c-2.8-4.9-5.7-9.7-8.4-14.7c-1.9-3.5-4-6.9-6.5-10.1
		C701,244.7,700.4,242.3,699.9,239.5z"/>
	<path fill="#FFFFFF" d="M552.4,162.6c13.4,0,23.4,9.4,25,23.2c1.9,16.4-9.8,33.8-25.6,38.2c-16.4,4.6-31.1-6.2-32.4-23.9
		c-1.2-16.1,10.6-32.6,26.2-36.7C548,162.8,550.3,162.7,552.4,162.6z"/>
	<path fill="#FFFFFF" d="M998.8,457.9c-5.1-4.3-7.4-10-11.6-14.2c3.4,6,6.6,12.1,11,17.1c-0.2,5.2-4.1,5.5-7.6,6.3
		c-1.2-0.7-1.3-2.3-2.6-3c-0.8,1.3,0.9,2.2,0.5,3.5c-1.2,0.9-2.7,1.6-4.3,1.9c-1.3-1.1-1.4-2.7-1.9-4.1c-2.1-6.5-6.3-11.6-10.7-16.7
		c-4.5-5.1-10.1-8.7-15.7-12.3c-4.5-2.9-8.7-6.3-12.3-10.2c-3.4-3.7-7.8-5.6-12.4-7c-0.8-0.2-1.5-0.1-2.4,0
		c-4.4,0.6-7.9-1.1-10.9-4.8c4.4-1.8,9.6-2.2,9.9-8.2c2,0.5,2.6,2.2,4.3,1.9c0.4-2.3,0.4-2.3-1.8-6.2c2.3-5.9,2.4-12.4,3-19.1
		c5.6,3,11.4,4.2,17.2,5.8c7,1.9,12.7,5.7,16.3,12.4c2,3.7,4.6,7.1,7.1,10.4c4.9,6.5,7.4,14.1,10.4,21.4c2.6,6.1,5.8,11.8,10.2,16.8
		C996.4,451.9,997.8,454.4,998.8,457.9z"/>
	<path fill="#FFFFFF" d="M773.8,260.1c1-0.6,2.1-1.1,3.9-1c-3.2,14.6-9.7,27-21.5,36.7c-4.4,0.1-8.8-0.5-13.3-1.6
		c-1-0.2-2.1-0.6-3.1-0.5c-4.9,0.7-8.2-1.8-10.5-5.6c-2-3.5-5.4-6-6.6-10.2c3.7-0.9,7.5-0.7,11.1-1.9c1.1-0.4,2.8,0.8,4.3,1.3
		c2.4,0.8,4.6,2.1,7.4,1.3c-2.9-2.1-6.6-2-9.8-3.4c0.5-2.8,3.1-2.6,4.8-3.9c2.5,0.9,4.8,2.3,7.6,2.6c-0.6-3.7-3.9-3.8-6.2-5
		c0.3-1.7,1.5-2.7,2.8-3.5c1-0.3,1.6,0.9,2.6,0.8c0.9-1.2-0.8-1.5-0.8-2.6c2.7-4.9,6.8-9.2,8.6-14.9c1.7-5.5,2.6-11,1.4-16.8
		c1.3-1.9,3.4-1,5.4-1.5c1.1,4.8,1.5,9.7,3.7,14.2c-0.8-5.2-1.6-10.3-2.5-15.9c2.2,2.5,2.2,5.6,3.7,8.1c0.4-2.5,0.2-3.6-1.2-6.6
		c-1-2.1-2.1-4-3.5-6.7c2.2,1.1,3.8,1.9,5.4,2.7c-1.8-2.9-2.5-6.1-3.5-9.2c4.5-1.4,9.1-1.3,13.9-2.7c0.9,14.6,2,28.8-0.5,43
		C777,258.9,773.1,256.8,773.8,260.1c-1.7,0.6-3.3,1.6-4.6,2.1C770.4,261.6,772.1,260.9,773.8,260.1z"/>
	<path fill="#FFFFFF" d="M978.7,193c1.8,0,3.5,0.1,5.3,0.5c9.7,2.2,13.9,10.6,10.7,21.2c-2.7,8.9-8.6,15.6-15.8,21s-15.3,9.1-24.7,9
		c-12.4-0.2-18.7-8.4-15.7-20.4c2.1-8.4,7.2-14.8,13.5-20.1C959.6,197.6,968.3,193.2,978.7,193z"/>
	<path fill="#FFFFFF" d="M1004.2,249.1c-0.7-1.9-0.9-3.9-2.5-5.5c2.2-3.9,5.7-7.4,3.6-12.5c10.7-2.3,17.7,3.9,16.6,14.2
		c-0.3,3.2-1.1,6.2-2.6,9.1c-6.4,12-16.2,19.8-29.4,23.4c-2.5,0.7-5.1,0.8-7.7,0.8c-10-0.1-15.9-6-15.3-16c0.4-6.7,3.7-12.1,8.9-17
		c2.2,2.5,4.7,4.3,7.4,5.6s5.5,2.4,6.8,5.6c0.6,1.5,2.6,1.4,4.1,0.8C998.5,255.8,1002.1,253.4,1004.2,249.1z"/>
	<path fill="#FFFFFF" d="M975.4,517.5c0.1-1.9,6.9-18.1,8.2-19.7c4.7,1,9.5,0.9,14.2-0.5c0.7-0.2,1.1-0.9,0.7-2.2
		c-4.8-1.2-9.6,0.2-14.6,1c0-2.6,0-5.1,0-7.8c6.2-0.5,12.4,0.5,18.1-1.7c-0.3-2.6-1.7-2.4-3-2.4c-5.1,0-10.2,0.1-15.2,1.2
		c-0.4-1.4,0.1-1.5,1.2-1.6c4.8-0.2,9.6-0.6,14.4-0.9c1.1-0.1,2.1-0.1,2.6-1.3c-2.1-2.1-2.4-2.1-15.6-0.9c0.1-3.2-3-4.6-4.1-7.3
		c5.8-1.9,11.6-3.8,17.3-5.7c2.9,1.7,2.9,5.5,6.2,7.8c-1-4.7,0.6-8.3,1.5-12.1c0.6-2.4-0.8-4.3-2.2-6c-1-1.1-2.1-2.2-3.1-3.4
		c2.8,1.1,5.6,1.3,8.5,0.9c3.7,4.7,2.6,10.1,1.7,15.1c-0.9,5.4-0.8,10.5,1.1,15.5c2.3,6.5,1.9,13.2,1.7,19.9c0,0.6-0.1,1.3-0.4,1.7
		c-3.1,4-6,8.4-10.3,10.9c-7,4-14.7,4.6-22.6,3C979.2,520.4,977.1,519.5,975.4,517.5z"/>
	<path fill="#FFFFFF" d="M574,215.4c6.7,0.4,13.3,0,19.7,1.8c-4.4,14.5-21.7,24.3-35.1,20.2c-4.1-1.3-7.2-3.7-8.5-8.4
		c4.8-1,9.3-2,13.3-4.6C567.4,221.9,570.6,218.7,574,215.4z"/>
	<path fill="#FFFFFF" d="M997.5,206.7c1.5,4.7,1.7,9.3-0.2,13.9c-5.1,12.8-14.2,21.5-27.1,26.3c-5.8,2.1-11.6,4-17.8,2.4
		c-3.3-0.8-6.3-2.2-8.7-5.3c14.5,5.1,26.4-0.1,37.4-8.6c6.7-5.1,11.5-11.6,14.5-19.5C996.8,213,997.3,209.9,997.5,206.7z"/>
	<path fill="#FFFFFF" d="M978.2,245.2c9.3-6.5,12.8-8.8,20.9-23.9c0.1,2.7,0.7,4.7,3.4,5.2c0.7,2.7,0.3,5.4,1.4,7.9
		c0.5,1.3-0.4,3.1-1.5,4.5c-1.3,1.6-2.7,3.4-3.5,5.3c-1.5,3.4-4.1,5.1-7.3,6.5c-2.4,1-4.4,0.9-7.4-0.8c10-1.5,13.3-8.9,17.1-15.9
		c-2.6,1.4-4.6,3.6-5.7,6.2c-2.2,5.3-7.3,5.8-11.5,7.8c-1.4,0.7-3.2,0-4.9-1c1.4-0.4,2.6-0.6,3.8-1.2c3.6-1.8,7.4-3.3,9.4-7.4
		c1.5-3,4.2-5.3,5.4-8.7C992.7,236.9,987.5,243.7,978.2,245.2z"/>
	<path fill="#FFFFFF" d="M973.6,278.8c21.8,7.7,51.7-17.2,50-37.2c1.8,3.9,1.6,7.8,0.8,11.5c-3.4,16.5-24.3,31.8-41,30.3
		C979.5,283.1,976.1,281.8,973.6,278.8z"/>
	<path fill="#FFFFFF" d="M839.4,266.9c1.4,10.1,0.4,19.1-5,27.2c-0.3,0.5-0.8,0.9-0.7,1.5c0.3,3.4-2.2,4.1-4.7,4.4
		c-2,0.2-4.1,1.2-6-0.1c2.8-7.2,8.4-12.7,11.6-19.7c1-2.1,1.7-4.2,1.7-6.7C836.3,271.5,836.8,269,839.4,266.9z"/>
	<path fill="#FFFFFF" d="M595.1,197.3c-4.2,0.1-8.2,0.9-12.6-0.5c0.1-4.8,0.6-9.8-1.4-14.7C587.4,183.2,593.5,189.8,595.1,197.3z"/>
	<path fill="#FFFFFF" d="M578,178.9c4.9,11.1,3.3,21.7-3,31.7c-6.3,10.1-15.4,16.1-27.7,16.3c11.2-1.8,19.7-7.8,25.8-17.3
		C579.2,200,581,189.9,578,178.9z"/>
	<path fill="#FFFFFF" d="M596.8,217.6c-2.1,12.2-17,23.7-29,22.4c3.7-0.5,6.7-1.2,9.6-2.6c3-1.4,5.7-3.2,8.2-5.4
		c2.4-2.1,4.3-4.6,6.2-7.1C593.6,222.5,594.3,219.4,596.8,217.6z"/>
	<path fill="#FFFFFF" d="M990.2,254c3.7-2.5,8.5-3,9.9-8c1.2,1.3,1.1,2.4,1.1,3.5C996.6,255.2,994.3,256.2,990.2,254z"/>
	<path fill="#FFFFFF" d="M1001.6,456.9c3.8,3.6,3.6,7.1,1.7,10.8c-1.3-0.7-1.6-2.3-3.3-2.8C1001.2,462.4,1001.6,460,1001.6,456.9z"
		/>
	<path fill="#FFFFFF" d="M863.6,336.8c-1.6-0.1-2.5-1.2-3.8-1.9c1.7-2,3.2-4,4.6-6.3c0.4,0.7,0.7,1.1,1.2,1.8
		C862.7,331.9,863.2,334.4,863.6,336.8z"/>
	<path fill="#FFFFFF" d="M709.6,200.1c-1.6,0.3-2.7,1.9-4.6,1.9c-1.5-1.9-0.7-3.1,1.5-3.9C707.7,198.4,708.8,199.1,709.6,200.1
		L709.6,200.1z"/>
	<path fill="#FFFFFF" d="M857.7,341.1c-1.9,0.5-3.6,2.7-6.1,0.8c0.8-1.7,3.4-0.7,3.5-2.8C856.4,339.6,857.4,339.9,857.7,341.1
		L857.7,341.1z"/>
	<path fill="#FFFFFF" d="M868.6,319.4c2.1,2.2,0.2,4,0.1,6.6c-0.9-1.3-2.4-2.1-1.1-3.1C869,321.9,867.5,320.7,868.6,319.4z"/>
	<path fill="#FFFFFF" d="M725.4,180.2c-0.6,1.4-1.8,1.5-2.9,1.9c-1-0.4-2.1-0.8-3.2-2.2C721.7,180.3,723.5,180.4,725.4,180.2z"/>
	<path fill="#FFFFFF" d="M726.4,174.4c-1.8,0-3.6,0-5.3,0C722.1,173.6,722.1,173.6,726.4,174.4z"/>
	<path fill="#FFFFFF" d="M714.3,184.9c-1.1,3.3-1.1,3.3-3.7,4.1C712.1,187.3,713.2,186.1,714.3,184.9z"/>
	<path fill="#FFFFFF" d="M719.8,201.5c0.6,1.1,1.1,2.1,0.9,3.2c-1,0.5-2.1,0.3-3.5,0.3C718.3,203.9,719.9,203.3,719.8,201.5z"/>
	<path fill="#FFFFFF" d="M730.6,191.6c-0.7,0.4-1.2,0.7-1.7,0.9c-1-0.7-1.1-1.5-0.9-2.8C729.2,189.9,730,190.4,730.6,191.6z"/>
	<path fill="#FFFFFF" d="M733.6,200.1c1.7,0.5,3,0.8,3.6,2.6C735.1,202.4,735.1,202.4,733.6,200.1z"/>
	<path fill="#FFFFFF" d="M697.8,192.8c-1.4,0.8-2.3,0.5-3.3,0.1c-0.1-0.7,0.3-1.1,0.7-1.7C696.3,191.3,696.8,192.2,697.8,192.8z"/>
	<path fill="#FFFFFF" d="M740.9,190c2.4-1,2.7,1,3.5,2C743,191.8,742.1,190.9,740.9,190z"/>
	<path fill="#FFFFFF" d="M754.8,201.2c-0.8-2.2,0.3-2.4,2.1-2.2C755.9,199.7,755.2,200.3,754.8,201.2z"/>
	<path fill="#FFFFFF" d="M713.8,176.1c1.5,0.1,2.1,1.7,3.6,1.8C715.7,178.6,715.7,178.6,713.8,176.1L713.8,176.1z"/>
	<path fill="#FFFFFF" d="M869.3,310.5c0.5,0.5,0.8,0.8,0.9,1c0.3,0.7,0.5,1.5,0.6,2.4C869.5,313.3,868.7,312.5,869.3,310.5z"/>
	<path fill="#FFFFFF" d="M730.1,179.4c1.2-0.8,2.3-0.7,3.7-0.1C732.4,180.3,731.4,181,730.1,179.4z"/>
	<path fill="#FFFFFF" d="M741.4,204.6c0.9-0.1,1.4,0.2,1.5,0.8c0,0.1-0.5,0.4-0.8,0.5C741.2,206,741.4,205.3,741.4,204.6z"/>
	<path fill="#FFFFFF" d="M869,315.9c0.8,0.7,1.3,1.2,1.5,2.3C869.5,317.6,869,317,869,315.9z"/>
	<path fill="#FFFFFF" d="M698.9,236.3c1.2,0.1,1.7,0.5,1.1,1.7C699,237.9,698.9,237.2,698.9,236.3z"/>
	<path fill="#FFFFFF" d="M721.8,191.3c-0.7,1-1.4,0.4-2.1,0.3C720.3,190.6,721,191,721.8,191.3z"/>
	<path fill="#FFFFFF" d="M700.2,201.9c0.4-0.5,0.7-0.8,1.4-0.6C701.9,203.2,700.9,202.3,700.2,201.9z"/>
	<path fill="#FFFFFF" d="M859.5,339.4c-0.3-0.3-0.6-0.6-0.9-0.9C859.5,337.8,859.5,338.8,859.5,339.4z"/>
	<path fill="#FFFFFF" d="M713.9,176.1c-0.8,0-1.6,0-2.7,0C712.4,175.1,713.1,175.6,713.9,176.1L713.9,176.1z"/>
	<path fill="#FFFFFF" d="M596.9,195.5c0.6,0.3,0.6,0.7,0.5,1.3C596.6,196.6,596.9,196,596.9,195.5z"/>
	<path fill="#FFFFFF" d="M709.5,200.1c0.4-0.1,0.9,0,1.2,0.4C709.9,201.5,709.6,201.2,709.5,200.1L709.5,200.1z"/>
	<path fill="#FFFFFF" d="M731.9,211.1c1.1,0.7,1.4,0.9,1.8,1.2C733,213,732.6,212.6,731.9,211.1z"/>
	<path fill="#FFFFFF" d="M750.9,217.2c-0.2-0.5-0.3-0.8,0.1-1C751.5,216.6,751,216.8,750.9,217.2z"/>
	<path fill="#FFFFFF" d="M799.9,490.2c-0.4-1.8-2.3-2-2.7-3.4c1.4-1,3.3-0.7,5-1.5c-0.9-1.7-2.9-1.9-3.8-3.6c2-0.2,4.1,0.3,5.8-1.4
		c-2.8-2.8-6.8-2.8-9.8-4.6c-0.3-1,0-1.8,0.7-2.5c3.3,3.3,7,4.8,11.9,2.8c-0.7-1.9-2.4-2.2-3.9-2.6c-2.2-0.6-4.1-1.8-5.6-3.5
		c-0.9-1-1.7-2-0.5-3.7c4.3,4.4,9.1,6.6,15.2,3.4c-5.2-1.8-10.2-4-14.7-6.9c-1.6-2.6,1-5.7-1.4-7.9c0.9-1.3,1.9-2.2,3.5-2.9
		c1.8,4.5,4,8.9,6.9,12.6c1.5-0.1,1.5-1.9,2.3-1.8c2-0.2,3.2,0.4,4.4,1.2c2.2,1.4,4,1,5.6-1c2-2.5,4.1-4.9,5.9-7.4
		c2.5-3.4,2.9-7.3,3-11.7c2.6,5,7.9,5.7,12,8.4c0.5,8.3-2.9,14.7-9.9,19.2c-5.6,3.6-9.4,8.5-10.6,15.2c-0.1,0.8-0.6,1.6-0.7,2.4
		c-2.7,12.6-10.6,15.9-23.2,16.4c-1.4,0.1-2.8-0.1-4.2,0.2c-4.6,0.7-8.2-3-7.5-7.6c0.4-2.3,1-4.6,1.5-6.9s1-4.6,1.5-7
		c0.9-0.5,1.9-1,2.9-1.4c2.4,1.8-1,2.1-0.6,3.3C790.4,490.4,795.5,492.4,799.9,490.2z"/>
	<path fill="#FFFFFF" d="M797.6,430.7c2,6.9,4.7,13.5,4.8,20.8c-1-0.2-1.3-1.6-2.5-1.6c-4.4,1.2-6,3.4-5.7,7.8
		c0.4,5.5,0.2,10.9-1.8,16.1c-1,2.5-2.1,4.6-4.6,6.8c0.9-4.8,1.7-9,2.5-13.3c1.3-6.9,2.3-13.9,3.1-20.9
		C793.9,441.1,796.1,436.1,797.6,430.7z"/>
	<path fill="#FFFFFF" d="M824.9,443c1.1,4.7,0,8.4-3.3,11.2c-2.9,2.5-6.1,4.4-10.2,3.6C818.7,455.7,824.2,451.9,824.9,443z"/>
	<path fill="#FFFFFF" d="M811.8,460.3c-0.9,0-1.9,0-2.7,0c-1-0.7-1.2-1.7-1.3-3.1C810,457.3,810.5,459.4,811.8,460.3L811.8,460.3z"
		/>
	<path fill="#FFFFFF" d="M811.7,460.4c2.1,0.9,3.4-1.6,5.4-1.4c-0.1,1.1-0.8,1.7-1.6,2.4C814.3,461.2,813,461,811.7,460.4
		L811.7,460.4z"/>
	<path fill="#FFFFFF" d="M803.2,454c1.8,1.9,1.8,1.9,2.1,4.3C804,457.1,803.5,455.9,803.2,454z"/>
	<path fill="#FFFFFF" d="M871.7,431.4c-0.3,2.2-0.6,4.3-0.8,6.5c-0.9,0.3-1.6,0-2.5-0.6c0.1-2,1-3.9,1.4-5.9
		C870.5,430.9,871.2,431.7,871.7,431.4L871.7,431.4z"/>
	<path fill="#FFFFFF" d="M419.2,432.1c0.9,1,0.6,1.9,0,2.8c-0.9,1.5-0.9,3.4-2,4.8c-1.7,0.3-3.2-0.6-4.8-0.7c-1.7-0.2-3.1-1-3.5-2.9
		s-0.1-3.5,2-4.5C413.6,431.7,416.4,433,419.2,432.1L419.2,432.1z"/>
	<path fill="#FFFFFF" d="M420,440.4c0-2.3,0.8-4.1,1.6-6.5c2.4,2.3,0.4,4.7,1.1,6.6C421.7,441.7,421,441.1,420,440.4z"/>
	<path fill="#FFFFFF" d="M760.8,531.9c-0.3,1.4-1.1,2.2-2.5,2.1c-1.4-0.1-2.5-0.9-2.4-2.4c0.1-1.3,1-2.1,2.4-2
		C759.8,529.5,760.6,530.4,760.8,531.9z"/>
	<path fill="#FFFFFF" d="M761.2,521c-0.1,0.7-0.2,1.3-0.2,1.7c0.3,1,1.4,0.2,1.8,0.9c0,1.1-0.8,1.7-1.7,1.8
		c-1.4,0.2-2.7-0.4-2.9-1.8C757.8,521.7,759,520.9,761.2,521z"/>
	<path fill="#FFFFFF" d="M312.5,531.6c-0.1,1.4-0.8,2.2-2.1,2.3c-1.5,0.1-2.6-0.7-2.7-2.1c-0.1-1.3,0.7-2.2,2.1-2.3
		C311.2,529.3,312.2,530.1,312.5,531.6z"/>
	<path fill="#FFFFFF" d="M314.6,523.9c-0.9,1.7-2.1,2-3.6,1.2c-0.9-0.5-1.4-1.3-1.2-2.3c0.4-1.5,1.4-2.1,2.9-1.7
		c0.6,0.5-0.2,1,0,1.5C312.8,523.8,314.2,522.8,314.6,523.9z"/>
	<path fill="#FFFFFF" d="M307.2,538.1c1,1.2,0.8,2.1,0.1,3C305.2,540.1,305.2,540.1,307.2,538.1z"/>
	<path fill="#FFFFFF" d="M755.4,538.1c1,1.2,0.8,2.1,0.1,3C753.5,540.1,753.5,540.1,755.4,538.1z"/>
	<path d="M362.2,366.3c2.6,2.3,1.6,4.9,1.2,7.3c-0.1,1-0.6,2.1-1.3,2.8c-4.5,4.6-8.8,9.5-15,11.9c-0.2,0.1-0.4-0.1-0.6-0.2
		c0.1-1.1,1.1-1.5,1.9-1.8c5-1.8,7.4-6.7,11.1-9.9c1.7-1.5,1.9-3.9,2-6.2C361.6,369.1,361.1,367.8,362.2,366.3z"/>
	<path d="M359.1,258.9c-1.2,4.8-5.3,8.7-4.6,14.5C351.4,268.9,353.9,261.1,359.1,258.9z"/>
	<path d="M379.6,259.7c3.2,4,3.1,13.4-0.6,17.4C379.3,270.9,381,265.3,379.6,259.7z"/>
	<path d="M250.7,474.5c4.6,1.4,9.3,0.1,14,0c-3.5,2.4-7.5,2.8-11.5,2.8C251.8,477.2,250.5,476.2,250.7,474.5L250.7,474.5z"/>
	<path d="M348.9,259.6c-3-2.6-5.1-5.4-8.3-7.5C344.9,252,349,255.6,348.9,259.6z"/>
	<path d="M363.5,236.8c2.6,2.3,5.7,4.1,7.5,7.2c0.6,1,1.4,1.8,0.9,3.3c-2.8-4-6.2-7.3-10.2-10.1C362.5,236.6,363,236.8,363.5,236.8
		L363.5,236.8z"/>
	<path d="M356.6,291c-2.7-3.7-3.8-11.4-1.9-13.5C353.6,282,356.2,286,356.6,291z"/>
	<path d="M361.9,256.4c1.2-3.7,3.7-3.9,8.1-0.7C367.1,256.1,364.4,254.8,361.9,256.4z"/>
	<path d="M345.9,403.2c1.2-3.5,2.9-6.2,4.4-9.2C351.6,396.5,350,399.9,345.9,403.2z"/>
	<path d="M357.9,328.3c2.5,1.6,2.9,3.9,2.6,7C358.4,333.1,357.4,331,357.9,328.3z"/>
	<path d="M341.5,266.4c2-2.7,4.8-3.6,7.9-3.9C347.6,265.3,344.2,265.2,341.5,266.4z"/>
	<path d="M357.3,382.9c0.9,3.6-0.8,6.4-3.2,9C355.1,388.9,356.6,386.1,357.3,382.9z"/>
	<path d="M343.3,415.5c-3.1,2.7-6.2,5.4-9.4,8.2c-0.2-0.2-0.3-0.4-0.5-0.6c2.9-2.9,6-5.7,9.5-8c0.2,0,0.4-0.1,0.6-0.1
		C343.5,415.1,343.4,415.3,343.3,415.5z"/>
	<path d="M297.5,448.7c-1.3,2.2-2.7,4.3-6.6,4C293,450.4,295.3,449.6,297.5,448.7z"/>
	<path d="M352.6,249.4c-1.1-2.6-2.6-4-4.1-5.7C352.1,243.7,353.5,245.4,352.6,249.4z"/>
	<path d="M353.6,321.3c2.8,0.8,3.3,3.1,3.4,5.6C356.1,324.9,353.7,323.9,353.6,321.3z"/>
	<path d="M339,363.5c-0.3-3,0.4-5.1,1.2-7.5C341.1,358.5,340.8,360.3,339,363.5z"/>
	<path d="M275.9,472.3c-1.7,5.7-2.4,6.4-5.6,5.4C273.4,477.2,274.2,474.3,275.9,472.3z"/>
	<path d="M361.3,343.4c-0.8-2.1-2.3-4-1.3-6.7C362.6,338.7,360.8,341.3,361.3,343.4z"/>
	<path d="M309.5,440.7c-1,1.5-1.8,2.6-3.9,3C306.3,441.7,307.4,440.8,309.5,440.7z"/>
	<path d="M341.7,353.5c-0.2-1.7,0.3-3,1.9-4.3C343.6,351.1,343.1,352.4,341.7,353.5z"/>
	<path d="M375.2,250.4c1.7,0.7,2.3,2,2.7,4.2C376,253.4,375.5,252,375.2,250.4z"/>
	<path d="M339.7,410.3c-0.8,1.8-2.1,3.1-3.6,4.2c-0.2-0.2-0.4-0.3-0.5-0.5c1.2-1.4,2.4-2.8,3.6-4.2
		C339.4,410,339.5,410.1,339.7,410.3z"/>
	<path d="M299.7,446.9c0.9-2,2.2-2.2,3.9-2C302.7,446.3,301.8,447.2,299.7,446.9z"/>
	<path d="M269.2,473.4c-1.2-1.6-0.8-3-1.4-4.1C269.4,469.9,269.8,471.1,269.2,473.4z"/>
	<path d="M274.5,466.6c-0.7,1.9-1.9,2.3-3.1,3.2C271.8,468,271.8,468,274.5,466.6z"/>
	<path d="M357.5,297.9c-1.3-1.8-1.3-2.8-0.5-4C358.2,294.9,357.8,296,357.5,297.9z"/>
	<path d="M349.6,313.4c-1.2-0.6-2.7-0.7-3-2.6C348.5,310.9,349.1,312.1,349.6,313.4z"/>
	<path d="M339.9,394c0.9-1.7,1.7-2.3,3.2-2.7C342.6,392.9,341.5,393.3,339.9,394z"/>
	<path d="M357.8,365.3c0.9-1,1.8-1.4,3.1-0.5C359.8,365.7,358.7,365.2,357.8,365.3z"/>
	<path d="M342.2,308.9c1.2-0.2,2.6-0.6,2.8,1.4C343.3,311.1,343.1,309.4,342.2,308.9L342.2,308.9z"/>
	<path d="M277,462.9c0.3-1.5,1.2-1.5,1.7-2c0.3,0.3,0.6,0.5,0.6,0.5C279,462.4,278.3,462.8,277,462.9z"/>
	<path d="M342.9,415c0.7-1,1.6-1.8,3.2-2.8c-0.8,1.8-1.7,2.6-2.7,3.3C343.2,415.3,343.1,415.2,342.9,415z"/>
	<path d="M367.2,307.7c0.6-1.1,1.4-1.7,2.4-2.1c0.8,1.1-0.2,1.3-0.6,1.7C368.6,307.7,368.2,308.2,367.2,307.7z"/>
	<path d="M335.5,397.3c0.1-1.2,0.7-1.4,1.6-1.2C337,397.2,336,396.8,335.5,397.3z"/>
	<path d="M345,344.2c0.6,1,0.4,1.8-0.7,2.3C343.6,345.5,344.2,344.9,345,344.2z"/>
	<path d="M329.5,419.5c0.4,1.3-0.5,1.3-1,2.2C328.1,420.2,329,420.1,329.5,419.5z"/>
	<path d="M326.8,431.4c0-1.1,0.5-1.4,1.3-1.5C328.4,431,327.9,431.3,326.8,431.4z"/>
	<path d="M276.4,464.2c-0.2,0.9-0.5,1.6-1.7,1.6C274.8,464.7,275,463.9,276.4,464.2z"/>
	<path d="M297.6,422.7c0.6-0.5,0.8-1,1.3-0.7C298.7,422.4,298.5,422.7,297.6,422.7z"/>
	<path d="M279.3,469.5c-0.2,0.9-0.5,1.4-1.4,1.1C277.9,469.9,278.2,469.5,279.3,469.5z"/>
	<path d="M241.5,262.1c0.1,0.6,0,1.2-0.6,1.5c-5.5,2.9-8.6,7.7-10.7,13.4C227.4,272.5,234.1,263.8,241.5,262.1L241.5,262.1z"/>
	<path d="M325.2,327.6c-9-2.6-17.6-3.1-26.3-5.1C304.9,321.2,321.9,324.3,325.2,327.6z"/>
	<path d="M221.5,379.4c-2.1-4.8-4.9-9.4-5.7-15.2C219.1,365.9,222,374,221.5,379.4z"/>
	<path d="M271,322c6.4-2.1,12.9-1.9,19.4-1.1C284,321.3,277.5,321.3,271,322z"/>
	<path d="M236.1,331c2.6-5.6,5.1-11.2,7.7-16.7c0.3,0.1,0.5,0.2,0.8,0.4C242.3,320.3,240,326,236.1,331z"/>
	<path d="M251,263.1c-3,2.9-5.7,5.5-7.9,7.5C243.9,267.3,247.9,263,251,263.1z"/>
	<path d="M308.5,353c4.3,3.4,8.5,6.7,12.8,10.1c-5.2-2.1-9.4-5.6-13.4-9.3C308.1,353.5,308.3,353.2,308.5,353z"/>
	<path d="M220.7,381.4c2.4,2.4,2.5,6.5,0.7,9.6C219.9,387.8,220.8,384.6,220.7,381.4z"/>
	<path d="M229.8,377.6c-1.4,0.8-2,2.2-2.9,3.4c-0.9,1-1.8,1.8-3.1,0.6C224.4,378.6,226.1,377.5,229.8,377.6L229.8,377.6z"/>
	<path d="M293.8,313.8c0.1-3.3-0.4-6.5,0.6-10C295.4,306.9,295.2,310.1,293.8,313.8z"/>
	<path d="M221.1,369.7c-0.5-2.6-0.3-5.1,0.8-8C222.4,363.6,222.1,367.2,221.1,369.7z"/>
	<path d="M239.3,310c2.3-2.1,4.8-0.9,6.9-1.9C244.8,310.4,244.8,310.4,239.3,310z"/>
	<path d="M258.4,311.6c-0.1-2.4,0.7-4.4,1.9-6.2C260.5,307.7,259.3,309.6,258.4,311.6z"/>
	<path d="M216.7,362.4c-1-1.7-0.9-3.4-0.2-5.6C218.1,358.8,217.9,360.5,216.7,362.4z"/>
	<path d="M275,306.8c-0.2-2.5,0.4-4.8,2.3-6.7C276.4,302.3,275.7,304.5,275,306.8z"/>
	<path d="M195.6,397.6c0.7,3.2,0.3,5.8,0.1,9.2C194.7,403.8,194.8,400.5,195.6,397.6z"/>
	<path d="M296.3,351.2c2.2,0.2,4.3,0.4,6.6,0.6C301.4,353,299.5,352.9,296.3,351.2z"/>
	<path d="M194.7,388.6c-0.9-2.1,0.2-3.5,0.4-5.2C196.2,385.4,196.2,385.5,194.7,388.6z"/>
	<path d="M221.4,398c-0.4-1.6-0.9-3.3,0.2-5.4C223.2,394.8,221.8,396.4,221.4,398z"/>
	<path d="M272.6,319.2c0.1-1.6,0-3.3,1.8-4.9C274.1,316.4,273.6,317.9,272.6,319.2z"/>
	<path d="M328.1,370.6c-1.6-0.9-2.9-2.1-3.5-4C326.3,367.4,327.4,368.8,328.1,370.6z"/>
	<path d="M241.6,262.2c1.1-1.3,2.6-1.5,4.1-1.7C244.8,262.3,243.3,262.5,241.6,262.2L241.6,262.2z"/>
	<path d="M252.6,286.5c-0.2,1.7-0.9,2.4-1.8,3.1C250.5,288.2,251.4,287.6,252.6,286.5z"/>
	<path d="M236.2,291c-0.3-1.3,0.1-2,0.8-2.9C237.5,289.2,237,290,236.2,291z"/>
	<path d="M234.8,300.7c0.4,1.1-0.1,1.5-0.7,2C233.6,301.8,233.6,301.2,234.8,300.7z"/>
	<path d="M228.8,278.5c0.9,0.9,0.3,1.3-0.2,1.8C227.8,279.4,228.2,278.9,228.8,278.5z"/>
	<path d="M227.8,285.1c0.4,0.6,0.4,1.1-0.5,1.2C226.7,285.6,227.2,285.3,227.8,285.1z"/>
	<path d="M463.7,385.3c-4.2-4.3-8.2-8-10-13.5c-1.8-5.2-4.5-10-9-13.9c-2.9,5.1-4.7,10.6-9.5,14.2c2.9-5,6.1-9.8,8.4-15.2
		c-1.7-2.4-4.4-4-5.2-7.1c1.9,1.9,3.7,3.7,5.7,5.7c1.4-1.4,1-3.3,2-4.7c0.4,2.1-0.9,3.8-0.8,5.9c5.1,5.1,8.6,11.4,11,18.4
		c0.9,2.5,3.1,4.3,5,6.3C462.2,382.3,463.6,383.1,463.7,385.3z"/>
	<path d="M425.9,335.3c5.2,1.9,6.1,6.6,7.1,10.7c1.1,0.7,1.8-0.3,2.6,0.6c0.5,8.5-2.1,16.3-7.4,23.3c0.7-2.2,1.2-4.4,2-6.5
		c1.4-3.8,2.1-7.7,3-11.6c0.2-0.9,0.3-1.9-0.2-2.7c-1.3-2.5-2.2-5.1-2.7-8c-0.4-2.7-3.4-3.4-4.8-5.4c-0.1-0.2-0.1-0.4-0.2-0.6
		C425.4,335.2,425.6,335.2,425.9,335.3z"/>
	<path d="M423.1,354c-5.4,4.7-18.9,3.1-23.3-3.1c4.4,0.4,7.9,2.2,11.8,2.5C415.4,353.7,419.3,352.7,423.1,354z"/>
	<path d="M434.2,380.7c0.8-1.8,4.7-4.5,9.8-6.8C442.9,376.2,437.1,380.3,434.2,380.7z"/>
	<path d="M439.7,324.4c-0.2,3-1.4,5.5-2.8,8.3C436.7,330.1,437.6,327.4,439.7,324.4z"/>
	<path d="M428.1,304.2c-1.8-0.7-4.1,0.1-5.7-1.7C424.8,301.3,425.6,301.5,428.1,304.2z"/>
	<path d="M443.9,388.9c-2.5,0.3-4.8,0.5-7.1-0.8C439.8,387.3,441.3,387.5,443.9,388.9z"/>
	<path d="M425.3,346.6c-2.5-0.9-3.8-2.5-5.9-2.9C421.1,342.3,421.3,342.4,425.3,346.6z"/>
	<path d="M425.4,335.7c-1.4-0.7-2.7-1.5-3.6-3c1.5,0.5,2.9,1.4,4,2.6C425.7,335.4,425.6,335.6,425.4,335.7z"/>
	<path d="M466.6,358.8c1,1.3,1.5,2.2,1.2,3.7C466.9,361.3,466.4,360.5,466.6,358.8z"/>
	<path d="M288,231.9c-2.8,4-7.8,2.9-11.5,5.2c2.4,1.5,4.7-1.6,7.3,0.3c-1.7,3.4-5.2,2.2-7.6,3.3c-2.8,1.2-4.9-1.1-7.8-1.2
		C273.9,233.8,281.1,233.3,288,231.9z"/>
	<path d="M266.2,266.8c6.5,1.5,12.1-1.8,18.1-3.1c-1.8,2.6-4.6,3.7-7.3,4.5C271.7,269.9,268.2,269.3,266.2,266.8z"/>
	<path d="M274.4,254.1c1.6,2.3,1.6,4-0.7,5.2c-0.9,0.4-1.7,0.9-2.2,1.6c-2.4,3.1-5.2,3.2-8.3,1.3c-0.7-4.9-0.7-4.9,0-5.8
		c1.5,1.2,1.5,3,2.3,5C270.1,261.3,272.5,258.3,274.4,254.1z"/>
	<path d="M279.9,270.1c-2,4-7.2,5.2-11.1,1.8c3.8-1,7.3-2,10.8-2.9C279.7,269.4,279.8,269.7,279.9,270.1z"/>
	<path d="M495.1,396.4c3.6,0.3,15.2,9.3,15.9,11.8c-0.7,0.6-1.5,0.3-1.9,0C504.6,404.4,500.1,400.6,495.1,396.4z"/>
	<path d="M490.7,418.3c2.4,0.5,2.5,2.9,3.8,4.3c1.3,1.5,2.5,3,3.9,4.7c-5.1-1.6-10.8-11.4-8.9-16.3
		C489.9,413.9,490.3,415.9,490.7,418.3z"/>
	<path d="M480.9,417.4c-1.6,4.7-4.3,5.2-7.1,2.1C475.6,417.1,478.3,418.8,480.9,417.4z"/>
	<path d="M514.5,411.4c-1.4-0.1-2.4-0.5-2.9-2.2C513.5,408.9,514,410.2,514.5,411.4z"/>
	<path d="M515.8,412.5c1.9,0.5,2.6,1.4,2.7,2.9C517.4,414.9,516.3,414.2,515.8,412.5z"/>
	<path d="M500.4,428.1c1.5-0.2,2.2,0.2,2.8,1.7C501.8,429.8,501,429.5,500.4,428.1z"/>
	<path d="M529.9,436.5c1.3,0.3,1.7,1.1,1.7,2.4C530.5,438.5,529.9,437.9,529.9,436.5z"/>
	<path d="M522.6,419.6c-0.9,0.1-1.3-0.5-1.6-1.2c0.5-0.7,1-0.4,1.4,0C522.6,418.7,523,419.1,522.6,419.6z"/>
	<path d="M530.4,427.2c-1-0.2-1.4-0.6-1.1-1.3C530.1,425.9,530.2,426.4,530.4,427.2z"/>
	<path d="M534.4,442.7c-0.5-0.2-0.9-0.6-0.9-1.2c0.7-0.5,0.8,0.1,1.1,0.4C534.8,442.2,534.9,442.5,534.4,442.7z"/>
	<path d="M419.2,399.2c-5.7-4.5-11.5-8.8-15.9-14.8c5.4,4.7,10.9,9.4,16.3,14.1C419.7,398.5,419.5,398.7,419.2,399.2z"/>
	<path d="M391.4,367.5c-0.5-4.5-0.3-9,0.5-13.5C391.7,358.5,391.7,363,391.4,367.5z"/>
	<path d="M445.3,418.6c-3-1.7-5.6-4-7.6-7c2.7,2.1,5.4,4.3,8.1,6.4C445.6,418.2,445.5,418.4,445.3,418.6z"/>
	<path d="M396.6,356.5c-0.7,2.9-1.5,5.8-2.2,8.9C394.2,362.6,394.9,359.7,396.6,356.5z"/>
	<path d="M431.2,407.5c-1.9-0.7-3-2.1-3.7-4c1.3,1.3,2.6,2.5,4,3.8L431.2,407.5z"/>
	<path d="M405.5,362.9c0.5,1.6,0.3,2.6,0,3.7C405.5,365.6,405.5,364.6,405.5,362.9z"/>
	<path d="M433.4,408.9c0.6-0.1,1.1,0.1,1.4,0.7C433.9,409.9,433.5,409.7,433.4,408.9L433.4,408.9z"/>
	<path d="M431.4,407.3c0.9,0.3,1.6,0.7,2,1.6l0.1-0.1c-1.1,0.2-1.7-0.4-2.2-1.3L431.4,407.3z"/>
	<path d="M202.9,410.5c2.5-2,5.2-0.8,7.7-0.2c4,0.9,7.9,2.1,10.5,5.7c3.5,4.9,2.7,9.8,0,14.5c-5.7,10.1-14.5,16.3-25.3,20.2
		c-6.7,2.4-13.5,2.8-20.4,1.2c-5.3-1.2-9.3-5-10.2-10.1c1,2.1,2.1,4,3.9,5.5c3.5,3.1,7.7,4.1,12,4.1c15.8,0,28.5-6.5,37.4-19.5
		c7.7-11.4,0.3-19.6-10.5-21.1C206.4,410.7,204.5,411.2,202.9,410.5L202.9,410.5z"/>
	<path d="M186.4,431.5c-2.5-2.8-2.8-5-1.1-7.9c1.9-3.1,8.7-6,12.1-5.1c4.7,1.2,6.3,6.3,2.9,9.8c-3.4,3.5-7.6,4.3-12.2,3.2
		C187.5,431.8,186.9,431.7,186.4,431.5z"/>
	<path d="M202.9,410.4c-2.5,0.9-5,1.6-7.6,0.9C197.8,410.7,200.2,409.6,202.9,410.4L202.9,410.4z"/>
	<path d="M182.8,416.3c-1,1.3-2.4,1.7-3.9,2.2C180.3,416.6,180.3,416.6,182.8,416.3z"/>
	<path d="M186.4,431.5c0.6-0.2,1.1-0.3,1.7,0c0.2,0.5,1,0.4,1,1.1C187.8,433.2,187.1,432.2,186.4,431.5z"/>
	<path d="M164.9,440.7c-0.6-1.3-1-1.9-0.4-2.9C165.6,438.4,165.4,439.2,164.9,440.7z"/>
	<path d="M192.8,412c-0.6,0.8-1.3,1.3-2.3,0.7C191.1,412,191.7,411.4,192.8,412z"/>
	<path d="M263.3,414.4c7.3-2.2,18.1,3.3,19.7,10.3c0.8,3.4-0.4,6.8-2.1,9.8c-5.6,10-14.3,16.3-24.8,20.3c-6.9,2.6-13.9,3.2-21.1,1.4
		c-4.2-1.1-7.5-3.4-9.6-7.3c0.9-0.1,1.2,0.6,1.7,1.2c0.5,0.5,1,1,1.5,1.5c3.6,3.4,8,4.4,12.7,4.3c15-0.1,27-6.4,36-18.1
		c3.4-4.4,5.6-9.5,2.7-15.1c-2.8-5.3-8-6.9-13.6-7.4c-0.9-0.1-1.9-0.1-2.8-0.2C263.5,414.9,263.4,414.5,263.3,414.4z"/>
	<path d="M246.5,435.6c-2.5-1.3-3.3-3.3-2.4-5.9c1.5-4.4,8.5-8.1,13-6.9c4.9,1.3,6.3,6.4,2.6,9.9c-2.9,2.8-6.5,4.1-10.6,3.2
		c-0.5,0.3-0.9,0.3-1.4,0.1c-0.8-0.8-1.4-1.8-2.1-2.7c-0.3-0.9-0.1-1.8-0.1-2.6c0,0.1,0,0,0,0.1c0.1,0.9-0.1,1.7,0.2,2.5
		c0.4,0.6,0.9,1.2,1.1,1.9C246.7,435.3,246.6,435.5,246.5,435.6z"/>
	<path d="M254.3,415.8c2.7-1.4,5-1,7.1-1.4C259.5,415.9,257.3,416,254.3,415.8z"/>
	<path d="M242.2,420.3c-0.8,1.5-2.1,1.9-4,2.6C239.2,420.9,240.8,420.8,242.2,420.3z"/>
	<path d="M247.9,435.6c0.4,0.1,0.8,0.2,1.2,0.3c0,0.6,0,1.2-0.8,1.2c-0.9,0-1.8-0.3-1.8-1.5l-0.1,0.1
		C246.9,435.2,247.4,435.3,247.9,435.6z"/>
	<path d="M250,416.9c0.5-0.7,1.2-1,2.2-0.9c0.2,0.8-0.5,0.9-1,1.1C250.8,417.3,250.4,417.4,250,416.9z"/>
	<path d="M247.8,417.4c-0.8,0.7-1.5,1.1-2.5,1C246.1,417.7,246.6,417.1,247.8,417.4z"/>
	<path d="M224.8,445.4c-0.9-0.9-1.1-1.8-0.6-3.1C225.3,443.3,224.4,444.4,224.8,445.4L224.8,445.4z"/>
	<path d="M224.7,445.4c0.6,0.4,1,0.9,0.5,1.9C224.4,446.8,224.6,446.1,224.7,445.4L224.7,445.4z"/>
	<path d="M302.6,272.8c1.4-2,3.7-2,5.8-2.4C306.7,271.6,305.2,273.4,302.6,272.8z"/>
	<path d="M306,289.8c-1.4,1.7-3.3,2.1-5.3,2.3C301.7,289.3,304.3,290.6,306,289.8z"/>
	<path d="M299.1,279.1c2.8,1.1,2.8,1.1,1.9,4.4C299.7,282.2,299.6,280.8,299.1,279.1z"/>
	<path d="M536.2,495.3c3.8-3.1,13.1-3.6,16-1C550.3,496.9,541.1,497.6,536.2,495.3z"/>
	<path d="M535.2,504.5c4-1.8,8.2-2.3,12.7-1.3C546.5,506.6,539.5,507.3,535.2,504.5z"/>
	<path d="M525.5,507.1c-2.5,3.1-5.9,3.5-9.4,1.2C519.1,507.3,522,506.8,525.5,507.1z"/>
	<path d="M824.5,235.1c-4.6-0.4-8.2,2.1-12,4.2c3,0.4,6.1,0.9,9.1,1.3c-2.3,1.7-4.8,1.3-7.2,1.1c-4.2-0.3-8.5-2.1-12.3,2
		c0.1-2.6,1.7-3.5,3.3-3.9c5.2-1.2,9.9-4.1,15-5.4C822,234.1,823.3,233.6,824.5,235.1z"/>
	<path d="M810.5,228.1c-0.9-3.3,1.4-4.5,3.2-5.7c1.9-1.3,4.1-2.2,5.8-3.8c2.3,2.2,5.1,0.6,7.6,1.6
		C821.1,221.6,816.3,225.5,810.5,228.1z"/>
	<path d="M798.1,242.7c-2.7-2.6-1.6-4.9-0.9-6.6c1.2-2.9,2.2-5.8,2-9c0-0.5,0.2-0.9,1.1-1.2c0.5,2,0,4.5,2.4,5.7
		C801.7,235.6,800,238.9,798.1,242.7z"/>
	<path d="M899.5,227.1c7.5,2.6,12.6,7.9,18,11.9c-1.5,0-3.6-0.1-4.4-1c-3.4-3.7-8.4-4.8-12.2-7.9
		C900.3,229.7,899.5,229.3,899.5,227.1z"/>
	<path d="M813.4,261.4c-4.9,0.2-9.9,0.3-14.5-2.1c-2.3-1.2-3.4-3.6-3.2-6C799.6,260.4,807.3,259,813.4,261.4z"/>
	<path d="M902.3,246.8c2-5,4.3-6.6,7.9-5.9C907.2,242.3,904.5,244.2,902.3,246.8z"/>
	<path d="M813.3,278c-2.1,2.4-4.8,3.8-7.5,5.2c-0.1-0.2-0.3-0.4-0.4-0.6c2.5-1.8,5-3.5,7.4-5.3C812.9,277.6,813.1,277.8,813.3,278z"
		/>
	<path d="M853.3,222.5c3.2-0.2,4.6,1.6,6.2,3.1C857.1,225.6,855.3,224.5,853.3,222.5z"/>
	<path d="M798.4,227c-2.7-0.9-2.9-2.7-3.6-5.3C796.6,223.5,797.4,224.9,798.4,227z"/>
	<path d="M862.9,249c-1.7,1.2-3.6,1.7-6.4,1.4C858.8,248.8,861,249.7,862.9,249z"/>
	<path d="M903.5,237.4c1.5-1.6,2.8-2,4.7-2C906.9,236.9,905.8,237.7,903.5,237.4z"/>
	<path d="M878.6,244c1.7-0.3,3.3-0.6,5.6-0.9C882.2,244.9,880.4,244.5,878.6,244z"/>
	<path d="M840.6,220.6c-1,0-2.1,0.3-3.2-0.4C838.7,219.1,839.7,219.4,840.6,220.6z"/>
	<path d="M933.2,215.5c-1.4,1.7-2.3,1.3-3.5,0.6C930.8,214.5,931.8,215.9,933.2,215.5z"/>
	<path d="M820.8,260.8c-1.1,0.8-1.9,0.8-2.6,0C819.2,259.5,819.8,260.4,820.8,260.8z"/>
	<path d="M833.5,219.4c-1.2,0.9-1.9,1.5-3,0.7C831.1,219,832,218.9,833.5,219.4z"/>
	<path d="M827.4,241c-1.3,0.8-1.9,0.9-2.5,0.2C825.5,239.9,826.1,240.6,827.4,241z"/>
	<path d="M829.5,232.5c-0.9,1-1.3,1.4-2.1,1.2C827.4,232.6,828.1,232.6,829.5,232.5z"/>
	<path d="M860.5,225.8c1.1-0.3,1.3,0.2,1.5,0.7C861.2,227.1,861,226.5,860.5,225.8z"/>
	<path d="M894,237.3c-0.1,0.1,0.2-0.1,0.4-0.3C894.7,237.7,894,237.5,894,237.3z"/>
	<path d="M895.8,249.9c0.5-0.6,0.9-1,1.5-0.9C897.3,249.9,896.9,250.3,895.8,249.9z"/>
	<path d="M854.5,332.5c0.4-4.1,0.3-8.2,1.3-12.3C855.7,324.3,856.9,328.6,854.5,332.5z"/>
	<path d="M813.8,324.1c0-0.6,0-1.2,0.8-1.4c2.7-0.5,4.8-2.3,7.4-3.1c-2.2,2.2-4.4,4.7-8,4.6L813.8,324.1z"/>
	<path d="M826.1,325.1c-1.3,1.5-3,2.4-4.9,3.1c1.3-1.5,2.8-2.7,4.6-3.4C825.9,324.9,826,325,826.1,325.1z"/>
	<path d="M813.9,307c0.6-1.3,1.5-2,2.6-2.7C815.9,305.9,815.9,305.9,813.9,307z"/>
	<path d="M828.7,322.8c0.5-1.2,1.6-1.6,2.6-2.2C830.7,321.6,830.1,322.6,828.7,322.8L828.7,322.8z"/>
	<path d="M825.8,324.8c0.8-0.9,1.6-1.8,2.9-2l0,0c-0.5,1.2-1.6,1.8-2.7,2.3C826,325,825.9,324.9,825.8,324.8z"/>
	<path d="M665.8,204.5c5,0.4,9.7,1.9,14,4.3C674.9,208.3,670.4,206.3,665.8,204.5z"/>
	<path d="M680,246.5c-0.7-4.2-2.1-8.3,0.1-12.5C678.9,238.1,681.8,242.3,680,246.5z"/>
	<path d="M647.5,198c-3.9,1-7.7,0.4-11.4-0.9C639.9,197.9,643.8,196.7,647.5,198z"/>
	<path d="M648.4,219.7c4,0.5,7.3,1.5,10.5-0.1C656.4,222.5,653.1,222.6,648.4,219.7z"/>
	<path d="M684.7,227.2c-3.1-1-3.1-1-4.5-3.2C681.7,225,684.2,224.6,684.7,227.2L684.7,227.2z"/>
	<path d="M641.2,221.3c1.3-0.3,2.5-0.6,3.8-0.9C644.2,222.8,642.7,222.1,641.2,221.3z"/>
	<path d="M624.3,198.7c-1.6,1.1-2.5,1.6-4,1.3C621.2,198.6,622.4,198.5,624.3,198.7z"/>
	<path d="M658.8,203.3c-0.8,0.3-1.5,0.5-2.3-0.3C657.4,202.2,658,202.7,658.8,203.3z"/>
	<path d="M639.3,221c-0.9,1.1-1.5,1.1-2.3,0.2C637.7,220.4,638.4,220.5,639.3,221z"/>
	<path d="M631.7,197c-0.6,1.2-1.5,1-2.9,1C629.9,196.9,630.6,196.5,631.7,197z"/>
	<path d="M685.2,242.5c1.3-0.6,1.9-0.2,2.7,0.6C686.7,243.8,686.2,243.2,685.2,242.5z"/>
	<path d="M684.7,227.3c0.6-0.4,0.7-1.5,1.8-1.4C686.6,227.3,685.8,227.5,684.7,227.3L684.7,227.3z"/>
	<path d="M600.6,207.6c0.6-0.6,1-0.6,1.4-0.2C601.8,208.2,601.4,208.3,600.6,207.6z"/>
	<path d="M661.1,219.6c-1,0.4-1.2,0-1.2-0.9C660.8,218.3,661.1,218.8,661.1,219.6z"/>
	<path d="M732.5,234.4c-3.4,3.5-7.8,2.1-11.6,3.8c0-3-2.9-0.7-3.8-2.3c5.6-5,12.5-6,19.5-7.2c-2.8,4-7.9,3-11.6,5.2
		C727.3,235.3,729.8,232.2,732.5,234.4z"/>
	<path d="M714,257.9c4,1.4,5-3.1,7.9-3.5c0.2-1.2-0.6-2.6,1.1-3c1.7,2.7,1.7,3.2-0.6,4.6c-0.9,0.6-1.8,1-2.5,1.9
		c-2.3,3-5.1,2.9-8.2,1c0-1.5-0.4-3.1-1.3-4.1c0.3-1.2,0.9-1.4,1.8-1.6C712.7,254.7,713.3,256.2,714,257.9z"/>
	<path d="M714.6,263.9c6.4,1,12.1-1.6,17.7-3.9c1,1.5,0.5,2.2-0.5,2.6C726.2,264.7,720.7,267.8,714.6,263.9z"/>
	<path d="M728.6,267.4c-3.7,4-7.8,4.6-10.9,1.3c3.2-1.2,6.4-1.5,9.4-2.8C727.8,265.6,728.5,266.4,728.6,267.4z"/>
	<path d="M521.9,197c0.2,2.7,0.8,5.3,1.6,7.8c4.6,14.5,14.2,18.2,27.2,14.6c16.3-4.6,26-20.4,22.9-36.6c-0.3-1.7-0.9-3.3-1.2-5
		c2.6,3,3.1,6.8,3.2,10.5c0.8,20.4-17.4,34.1-32.7,34.1c-10,0-14.7-3.7-19.3-13.1c-1.2-2.5-1.7-5.4-2.3-8.1
		C521,199.8,520.9,198.3,521.9,197z"/>
	<path d="M551.6,184.6c2.1,4,2,7.8-1,11.4c-2.8,3.3-6.6,3.9-10.3,1.5c-2.2-1.4-4.7-2.3-4.4-5.7c0.2-3.4,1.5-6.1,4-8.3
		c4-3.4,7.4-3.7,11.2-1.3c2.3,1.5,3.8,3.4,3.1,6.9C553.6,187.1,553.2,185.4,551.6,184.6c-0.9-0.5-1.6-1.3-2.5-1.6c0.1,0,0,0,0.1,0
		C550.1,183.4,550.7,184.2,551.6,184.6z"/>
	<path d="M521.6,194c-0.1-1,0.1-1.5,0.8-2.1C522.6,192.8,522.8,193.5,521.6,194z"/>
	<path d="M937.8,408.8c1.4,1.8,0.7,4,1.3,5.9c3.4,2.5,4.6,6.7,8.3,9.4c-2.8-0.4-2.6-0.6-7.4-6.6
		C937.7,414.8,936.6,412.1,937.8,408.8z"/>
	<path d="M954.4,400.3c-4.3-0.8-7-4.1-10-6.9C948.9,394,951.4,397.5,954.4,400.3L954.4,400.3z"/>
	<path d="M922.3,416.3c2-2.2,4.6-0.7,7-1.9c0.1,2.2-0.7,3.3-2.4,3.6C925.2,418.3,923.4,418.4,922.3,416.3z"/>
	<path d="M954.3,400.3c2.5,0.7,4.6,1.9,5.8,4.6C956.7,405,954.9,403.4,954.3,400.3L954.3,400.3z"/>
	<path d="M960.7,406c1.3,0.1,2,1,2.6,2.1C961.2,407.8,961.2,407.8,960.7,406z"/>
	<path d="M964.7,409.8c1.6,0.1,2.4,0.9,2.7,2.7C965.8,411.9,965.2,410.9,964.7,409.8z"/>
	<path d="M951.8,426.3c-1.6,0.5-2.1-0.2-2.8-1C950.4,424.5,951,425.3,951.8,426.3z"/>
	<path d="M971.4,416.6c-1.1-0.2-1.8-0.6-1.8-1.9C970.7,414.9,971.3,415.3,971.4,416.6z"/>
	<path d="M977.6,422.8c0.9,0.1,1.3,0.4,1.3,1.2C978.2,424.1,977.8,423.8,977.6,422.8z"/>
	<path d="M980.1,435.6c-1.1-0.3-1.4-1.1-2-2.3C979.8,433.8,980.3,434.5,980.1,435.6z"/>
	<path d="M981,436.8c1,0.1,1.2,0.8,2.1,1.9C981.6,438.3,981.1,438,981,436.8z"/>
	<path d="M975.5,420.6c-0.7,0.1-0.8-0.3-1-1C975.4,419.4,975.7,419.7,975.5,420.6z"/>
	<path d="M770.7,268.4c-0.1,2.1-1.6,3.3-3.1,4.4c-3.4,2.5-7.2,4.4-11.1,6c-1.4,0.6-2.9,0.9-4-0.5c-0.1-1.3,0.6-1.7,1.5-2
		C760,274.5,765.6,271.8,770.7,268.4L770.7,268.4z"/>
	<path d="M773.8,260.1c-2,1.5-4,3.2-6.1,4.6c-1.7,1.1-3.5,1.3-4.9-1.4C766.4,261.6,770,260.5,773.8,260.1L773.8,260.1z"/>
	<path d="M759.7,266.2c-3,0.7-4.9,4.1-9.1,3.6C753.4,267,756.9,267.4,759.7,266.2z"/>
	<path d="M748.6,288.6c2-2,4.2-1.6,6.5-2.5C753.1,288.5,751.8,288.9,748.6,288.6z"/>
	<path d="M749.1,280.2c-0.2-1.4-1.2-2.4-1.5-3.8C750.5,276.4,750.7,277,749.1,280.2z"/>
	<path d="M757.2,284.8c1-1.8,1-1.8,3.1-1.8C759.2,284.2,759.2,284.2,757.2,284.8z"/>
	<path d="M773.3,232.4c-1.3-0.7-1.3-1.3-1.5-2.2C773.3,230.4,773.1,231.2,773.3,232.4z"/>
	<path d="M770.8,268.4c0.5-0.6,0.7-1.4,1.9-1.2C772.6,268.6,771.8,268.7,770.8,268.4L770.8,268.4z"/>
	<path d="M940.8,234.8c0.3,0.2,0.7,0.3,0.9,0.6c3.7,6.2,9.5,6.9,15.9,6.2c14-1.4,30.3-15.6,34-29.3c3-11-3.6-17-13.9-16.8
		c-3.4,0-6.7,0.8-9.8,2.4c-1.4,0.7-2.9,1.4-4.5,1.2c6.5-3.7,13.3-6.1,21-4.3c7.3,1.7,11.1,7.7,9.2,15.5c-1.7,7.2-5.3,13.5-10.5,18.8
		c-6.9,7-14.7,12.3-24.7,13.7c-3.9,0.6-7.7,0.3-11.3-1.4C943.8,240.1,941.6,238.1,940.8,234.8L940.8,234.8z"/>
	<path d="M959.9,220.6c-3.6-1.6-4.8-5.1-2.7-8.5c1.7-2.8,4.5-4.3,7.1-6.1c1-0.7,2.5,1.5,3.3-0.8c1.3,1.3,3,1.7,4.5,2.4
		c2.1,3,1.4,5.8-0.8,8.3c-2.6,2.9-5.7,5-9.8,4.1c-2.1-0.4-3.5-2-3.1-4.4c0.2-1.1,0.5-2.3,0.8-3.4c0.4-0.3-0.2,0.1,0.2-0.2
		c0.1,0,0,0-0.1,0.2c-2.2,1.9-2.2,4.1-0.6,6.4C959,219.2,959.8,219.7,959.9,220.6L959.9,220.6z"/>
	<path d="M953,206.2c-1.3,1.9-2.3,2.9-4.4,3.8C949.7,208,950.7,207,953,206.2z"/>
	<path d="M957.2,202.1c-0.8,1.2-1.4,1.6-2.4,2.2C955.1,203,955.8,202.6,957.2,202.1z"/>
	<path d="M958.8,201.8c0.5-1.3,1.3-1.5,2.6-1.8C960.7,201.1,960.1,201.6,958.8,201.8z"/>
	<path d="M959.8,220.6c0.8-0.1,1.6-0.3,2.4,0.3C961.3,221.8,960.5,221.4,959.8,220.6L959.8,220.6z"/>
	<path d="M940.9,234.7c-0.9-0.6-1.2-1.5-1.3-2.7C941.3,232.5,940.8,233.7,940.9,234.7L940.9,234.7z"/>
	<path d="M1000.8,491.7c-5.2,1.9-10.4,2.3-16,0.8C987.6,489.1,997.5,488.4,1000.8,491.7z"/>
	<path d="M996.6,500.9c-2.7,2.5-9.2,2.9-12.7,0.9C986.3,499.3,993.5,498.7,996.6,500.9z"/>
	<path d="M984.6,505c3.2-1,6-1.3,8.9-1C992,507,988.2,507.5,984.6,505z"/>
	<path fill="#FFFFFF" d="M192,430.4c-1.4-0.3-3.3-0.2-3.9-2.1c-0.6-1.8,0.4-3.2,1.6-4.3c2-1.9,4.5-2.6,7-2.7
		c1.3-0.1,2.8,0.5,3.5,1.9s0,2.5-0.8,3.6C198.1,428.5,194.4,430.4,192,430.4z"/>
	<path fill="#FFFFFF" d="M186.6,425.1c0,0.9-0.2,1.8-0.9,2.6C185.1,426.4,185.5,425.6,186.6,425.1L186.6,425.1z"/>
	<path fill="#FFFFFF" d="M186.6,425.1c-0.2-1.1,0.5-1.7,1.3-2.2l-0.1-0.1C188.1,424,187.3,424.5,186.6,425.1L186.6,425.1z"/>
	<path fill="#FFFFFF" d="M187.9,422.9c0.4-0.4,0.8-0.7,1.3-1.2C189.1,422.7,188.7,423.1,187.9,422.9L187.9,422.9z"/>
	<path fill="#FFFFFF" d="M255.8,425.7c1.7-0.6,3,0.1,3.8,1.5c0.9,1.5,0.2,3-0.9,4.1c-2.3,2.3-5.1,3.8-8.5,3.1
		c-2.9-0.6-3.8-2.8-1.9-5.1C250.2,426.7,252.8,425.7,255.8,425.7c0,1.6,2.7,3.2,0.2,4.9C258.5,428.8,256,427.3,255.8,425.7z"/>
	<path fill="#FFFFFF" d="M245.9,433.4c-1-1.8-1.3-3.4,0.7-4.8l-0.1-0.1C246.3,430.2,245.2,431.7,245.9,433.4L245.9,433.4z"/>
	<path fill="#FFFFFF" d="M246.5,428.6c0-0.9,0.6-1.4,1.4-1.9C248,427.9,247.3,428.2,246.5,428.6L246.5,428.6z"/>
	<path fill="#FFFFFF" d="M247.9,435.6c-0.5,0-0.9,0-1.4,0c-0.2-0.8-0.4-1.5-0.6-2.3l-0.1,0.1C246.5,434.2,247.2,434.9,247.9,435.6z"
		/>
	<path fill="#FFFFFF" d="M546.2,184.7c2.7,0,4.6,2.1,4.6,5.1c0,3.7-3,6.9-6.5,6.9c-2.7-0.1-4.6-2.3-4.5-5.2
		C539.9,188,543,184.8,546.2,184.7z"/>
	<path fill="#FFFFFF" d="M541.2,184.5c-0.6,0.7-1.2,1.3-2.2,2.5C539.3,185.3,540.1,184.7,541.2,184.5z"/>
	<path fill="#FFFFFF" d="M548.1,182.5c1.7-0.1,2.8,0.7,3.5,2.1l0.1-0.1C550.2,184.3,549.1,183.4,548.1,182.5L548.1,182.5z"/>
	<path fill="#FFFFFF" d="M538,188.2c0.1,1.3,0.1,2-0.8,2.3C536.8,189.6,537.5,189.2,538,188.2z"/>
	<path fill="#FFFFFF" d="M548.1,182.4c-0.9,0-1.8,0-3.5,0C546.3,181.7,547.2,181.6,548.1,182.4L548.1,182.4z"/>
	<path fill="#FFFFFF" d="M967.1,208.5c1.6-0.9,2.9-0.3,3.9,0.9c1,1.1,0.6,2.5,0,3.6c-1.3,2.6-3.5,4.4-6.3,5.2
		c-1.6,0.5-3.4,0.6-4.4-1.1c-0.9-1.4-0.4-2.9,0.4-4.3C962.3,210.5,964.4,208.9,967.1,208.5c-0.1,1.7,2.9,2.9,1.6,4.1
		C969.8,211.4,967.2,210.2,967.1,208.5z"/>
	<path fill="#FFFFFF" d="M959.2,212.2c-0.2-1,0.6-1.4,1.2-2C960.5,211.2,959.9,211.7,959.2,212.2L959.2,212.2z"/>
	<path d="M196.2,423.1c-1.4,0.3-2.5,0.6-3.6,0.9c1-1.7,2.6-1.8,4.1-2c1.3,0.5,1.6,1.5,2,2.4c-0.2,2.7-3,3.9-7.5,3.3
		C191.9,425.4,196.7,427.2,196.2,423.1z"/>
	<path d="M255.8,425.7c1.1,0.9,2.2,1.7,2.4,3.3c-1.9,3.3-2.8,3.7-7.3,3c0.5-2.5,5.6-0.5,4.8-4.4c-1.6-0.4-2.6,1.1-4,0.3
		C252.9,426.4,254.9,426.9,255.8,425.7L255.8,425.7z"/>
	<path d="M544.6,196c-3.2-1.9-3.7-3.3-2.1-6.7c0.6,1.7-0.2,3.9,1.9,4.4c2.1,0.5,2.8-1.4,4-2.6C548.4,193.7,546.6,194.8,544.6,196z"
		/>
	<path d="M967.1,208.5c1,0.8,2.2,1.3,2.7,2.6c-0.9,3.8-2.3,4.8-6.5,4.6c0.4-2.3,5-1.6,4.2-5c-1.9-0.4-2.6,1.2-4.1,1.1
		C964.1,209.9,966.3,209.9,967.1,208.5L967.1,208.5z"/>
</g>
</svg>
