<?xml version="1.0" encoding="utf-8"?>
<!-- Generator: Adobe Illustrator 19.1.0, SVG Export Plug-In . SVG Version: 6.00 Build 0)  -->
<svg version="1.2" baseProfile="tiny" id="Layer_2" xmlns="http://www.w3.org/2000/svg" xmlns:xlink="http://www.w3.org/1999/xlink"
	 x="0px" y="0px" width="900px" height="600px" viewBox="144 97 900 600" xml:space="preserve">
<g>
	<path d="M801.8,341.3c-0.4-2.3-1.5-4.2-2.8-6.1c-8.8-13.5-10.9-28.2-8.3-43.9c0.6-3.5,1.2-7,1.8-10.6c-1.5,0.5-2.2,1.6-3.3,2.7
		c1,4.7-1,8.7-3.5,12.5c-2.8,4.4-5.3,9-9.3,12.6c-4.7,4.2-10,6.8-16,8.3c-5,1.3-10-0.5-13-4.8c-0.6-0.9-1.4-1.6-2.2-2.3
		c-3-2.5-3.6-7.9-1.2-11.6c-0.7,8.3,2.9,13.7,10.8,16.9c0.5-4.4,3.3-7.5,4.7-11.7c-0.8-2.6-6.1-3-4.5-7.6c2.2,1.6,3.1,3.8,4.5,5.5
		c5.3,0.4,7.7-4.9,12.2-5.9c0.1,0.1,0.3,0.2,0.4,0.3c0.6,1.6-0.5,2.3-1.4,3.3c-2.5,2.5-5.4,4.7-8,7.2c-1.8,1.7-3,3.7-2.7,7
		c11.1-3.6,17.7-11.3,22.8-21.5c-1.8,0.7-3,1.7-4.1,2.5c-1.2,0.8-2.4,1.2-3.4-0.3c0-0.2,0-0.3,0.1-0.5c2.8-2.3,4.5-5.9,7.9-7.7
		c-0.9-3.7-1.5-7.4-1.7-11.5c-2.6,2-4.6,4-6.3,6.3c-2.2,3.1-3.2,3.4-6.6,1.9c-1.2-0.5-2.5-1-3.4-0.4c-3.5,2.2-6.7,0.3-9.3-1.1
		s-4.3-4.3-5.7-7.2c-0.6-1.3-0.6-2.8-2.1-4.3c0.7,3.7,0.7,6.8-0.5,10.1c-1,2.8,0.2,6.1,1.4,9c0.4,0.9,1.3,1.7,0.9,3.1
		c-1.8-1-2.2-3-3.7-4.5c-0.8,3.4-0.7,6.6-2.7,9.2c-0.6-4.2,0.9-8.2,0.7-12.7c-1.9,0.9-2.2,2.3-2.6,3.6c-3.2,9.3-7.5,18-11.2,27.1
		c-2,4.8-3.9,9.7-6.8,14.1l0.1-0.1c-2.5,1.8-3.5,4.8-5.4,7.1c-3.2,3.9-6.8,7.3-10.7,10.8c1.4,6.2,2.5,12.4,4.3,18.4
		c1.5,5,3,10.1,3.5,15.3c0.1,0.6,0.3,1.2,0.2,1.8c-1.3,7.7,0.8,15.3,0.4,22.9c-0.3,5.7,0.7,11.3,1.2,17.1c-2.2,0.2-2.4-1.4-2.5-2.5
		c-0.4-4.2-1.1-8.5-0.6-12.8c0.4-3.2-0.6-6.4-0.7-9.6c-0.2-4.4-1-8.8,0.2-13.2c0.5-1.9-0.4-3.8-0.8-5.6
		c-3.4-14.2-7.2-28.4-10.4-42.7c-1.3-5.9-0.4-12.1,1.6-17.7c2.8-8,1.3-15.4-1.4-22.9c-4.3-11.7-8.9-23.4-11.4-35.7
		c-0.8-4-1.2-8-0.6-12.1c1.1-7.8,1.6-15.6,2.9-23.4c0.8-4.6,1.4-9.8-0.2-14.7c-0.7-2.1,0-4,0.7-5.9c2.8-7.2,5.7-14.4,8.6-21.6
		c0.8-1.9,1.3-3.9,2.4-5.6c2.3-3.3,2.6-7.3,4.2-10.9c4.3-10.1,9.9-19.5,15.9-28.7c0.7-1.1,0.9-2.1,1-3.5c0.2-2.9,2.8-4.5,5-6.4
		c-0.1-1.4-0.2-2.8-0.4-4.2c-0.6-4.1,1.5-6.4,4.9-8.1c8.5-4.2,17.7-6.4,27-8.2c9.6-1.9,19.3-3.1,29.2-2.6c4.6,0.3,8,1.6,9.2,6.7
		c0.9,3.6,3.1,6.7,6.2,9c2.6,2,3.4,5.1,2.8,7.7c-1.6,6.9,2.3,12.2,4.6,17.8c3.1,7.5,8.5,13.8,11.2,21.5c1.6,4.4,2.7,8.9,3.5,13.5
		c1.5,8.5,5.3,16.4,5.8,25c0.3,5-1,9.8-0.7,14.8c-1.8-1.3-1.4-3.1-1.4-4.8c0-3.2-0.1-6.4-0.1-9.7c0-6.3-3.6-11.7-4.4-17.8
		c-0.6-4.8-1.5-9.6-2.8-14.4c-2.5-9.5-8.1-17.5-12.6-26c-1.6-3-3-6-3.8-9.2c-0.9-3.8-2.8-7.4-1.4-11.7c0.6-1.8-0.4-4.4-2.5-5.9
		c-1.5-1.1-2.6-2.7-4-4.1c-5.3,5.4-12,7.8-19.1,9.6c-0.2,0.5,0.9,0.9-0.2,1.7c-3.3,0.6-7.2-0.8-10.7,1.3c1,1.8,2.6,1.2,4.1,1
		c1.3-0.1,2.7-0.5,4.5,0.2c-2,0.7-3.5,1.1-5.1,1.7c-1.2,0.4-2.3,0.4-3.4-0.4c-3.3-2.4-6.7-2-10.4,0.2c5.6,1.8,9.6,6,14.9,7.9
		c5.3,1.9,11,1.3,17,3.5c2.9,6.4,6.7,13.3,7.1,21.3c0.6,9.4,2.5,18.6,4.4,27.9c0.7,3.6,2.8,6.9,3.1,10.6c0.2,2.8,0.7,5.5,0.7,8.3
		c-3-4.6-2.4-10.2-4.6-15.1c-2.2-4.9-2.7-10.3-4.2-15.7c-8.1,3-16.3,4.5-24.4,6c-8.2,1.5-16.6,2.4-24.9,1.8
		c-7.4-0.5-10.9-5.3-9-12.5c0.4-1.6,1.3-2.6,2.9-3.4c3.2-1.6,6.4-3.2,9.8-4.3c3.3-1,6.3-2.8,9.9-3.7c-0.6-5.9-1.5-11.5-2.6-17.2
		c-4.6,0.2-8.7-0.4-13-1.7c1.1-1.6,2.5-1.2,3.7-1.1c3.3,0.2,6.7,0.7,10,0.6c5.2-0.2,5.9-0.8,8.2-6c-4-2.9-7.2,0.3-10.7,1.9
		c0.9-2,0.9-2,5.9-4.7c-0.6-0.8-1.4-1.1-2.3-1.1c-0.8,0.2,0.1,1.2-1.2,1.5c-8.4-7.8-18.2-5.5-28.3-2.7c0.2-2.4,2.5-1.2,3.6-2.3
		c-1.8-0.9-3.6-1.2-5-2.4c-2.7,1.1-3,3.4-4.1,5.5c-4,7.7-7.6,15.6-11.7,23.3c-4.3,7.9-8.1,16.2-11.8,24.4
		c-2.3,5.1-4.2,10.4-6.2,15.6c-1.8,4.7-2.8,9.4-2.6,14.6c0.3,5.9,1,12.1-1.7,17.9c1.8,1.6,1.5,3.6,1.2,5.7
		c-2.4,14.8-1.7,29.2,3.7,43.4c1.8,4.6,3.2,9.2,4.8,13.9c1.8,5.4,3.6,10.8,4.5,16.5c0.1,0.9,0,1.6-0.2,2.4c-0.4,1.6-0.7,3.3-1.2,4.9
		c-2.6,8.8-3,17.6,0.3,26.6c7.4-5.5,12.7-12.6,16.4-21v0.1c2.3-3,3.7-6.1,2.3-10.1c-1.1-3-2.1-6.1-1.2-9.4c2,3.1,1.4,6.9,2.7,10.8
		c4.9-10.8,9.6-21,14.3-31.5c-2.6-3.9-5.3-8.1-8.2-12.6c-1,1.4,0.3,3.5-1.9,4.4c-0.4-5.3,0.1-10.3,0.9-15.3c1,2.8,0.4,5.7,0.7,8.8
		c5.9,2.2,7.4,8.5,11.5,13.3c1.4-6.5,1.3-12.4,0.7-18.3c-0.1-0.7-0.4-1.6-1.1-1.7c-2.9-0.3-3.2-2.2-3-4.5c0-0.5-0.5-1.1-0.8-1.6
		c-3.1-5.1-2.7-8.3,1.5-12.7c0.2-0.2,0.2-0.4,0.4-0.9c-1-2.2-0.4-4.6,0-7c0.6-3.6,0.4-7.4,1.9-10.8c1.1-2.6,0.9-6.3,5.1-6.8
		c0.7-0.1,1.2-1.6,1.8-2.4c-0.5-1-1-1.9-1.6-3.1c1.5-0.9,2.7-2.1,3.4-3.9c2.1,0.1,3.4,1.7,5.3,2.2c0.4-1.5-1.6-2.2-0.7-3.9
		c2.8,0.4,3.7,2.7,4.5,5.2c0.5-1.3,0.1-2.7,1.9-3.3c2.6,0.1,3.3,3.2,5.7,4.2c2.8-0.6,5.2-0.1,8.1,1.5c4.2,2.3,5.6,6.6,8.7,9.5
		c0.6,0.5,0.6,1.2,0.7,1.9c0.9,6.7,1.8,13.5,2.8,20.2c0.3,2.2,0.8,4.5-1.2,6.6c4.1,3.6,1.3,7.4,0.7,11.2c-1.8,0.2-2.3-1.8-4-2.1
		c-0.9,7.7-2.8,15.2-0.3,23c4.9-3.9,8.6-8.8,13.3-12.8c1.4-1.2,1.4-3,1.2-4.7c-0.6-7.1-0.1-14.3-0.9-21.4c-1.1-10,1.6-19.4,5.3-28.6
		c0.7-1.7,1.2-3.9,3.5-4.4c0.6,0.4,0.8,0.9,0.6,1.4c-4.8,9.2-6,19.2-7,29.3c-0.9,9.8,0.3,19.5,0.6,29.2c0.1,1.7,0.3,3.4-0.5,5.2
		c-1.7-1.5,0-3-1-4.5c-4,3.8-6.8,7.8-6.6,13.9c0.2,4.9-1,10-1.6,14.9c-1.7,12.2,1.3,23.2,8.5,33.6c0.8-2,0.3-4.2,1.7-5.9
		c0.1,2.8,0.9,5.5-0.9,8c1.8,1.1,3.2,2.1,3.2,4.1c0,0.5,0.6,1,1,1.4c4.3,4.2,9.4,7.3,13.6,11.9c1.8-2.9,2.2-5.7,2.7-8.5
		c1.2-7.4,2.8-14.8,1.6-22.4c-0.2-1.5,0-3.1,0-4.7c0-1.1,0.5-1.5,1.6-1.2l-0.1-0.1c3.8,16.4,0.3,31.8-7,46.6
		c-0.6,1.3-1.3,2.5-1.9,3.9c-1.6,3.7-2.7,7.3-2.3,11.6c0.8,9.5,0.7,19.1,0.7,28.6c0,10.7,1.1,21.4,0.9,32.1c0,1.7,0.3,3.4-1.8,4.8
		c4.4,2.7,5.3,6.5,4.7,10.9c-0.2,1.3,0,2.6,0.5,3.9c1.1,3.1,0.8,6.2-0.1,9.2c-1.1,3.5-2.8,6.8-2.3,11.5c-2.2-2.2-2.4-4-1.9-6
		c0.3-1.4,0.9-2.7,1.4-4.1c1.1-3.3,1.7-6.7,0.6-10.2c-0.7-2.2-0.5-4.5-0.2-6.8c0.2-1.6,0.5-3.3-0.9-4.4c-4.1-3.4-5.5-8.2-6.6-13.1
		c-2.7-0.9-5.3-1.8-7.8-2.1c-1.1-1.1,0.1-2.6-1.3-3.7c-0.1,2.5-1.9,3.3-3.5,4.1c-1.2-0.4-1.3-1.5-2.1-2.4c-0.9,1.3-1.5,3.6-4.2,1
		c0.8,2.6,2.7,1.2,3.7,2.9c-3-0.1-5.7-0.2-8.4-0.4c-1.2-0.1-2.4-0.1-3.6-0.3c-7.5-1.2-14.3,1.2-21.1,4.1c-2.1,0.9-4.3,1.7-6.6,2.6
		c-0.1-1.7,1.4-1.6,1.6-2.6l-0.1,0.1c4.6-2.9,9.8-4.1,15-5.5c2.8-0.7,5.7-0.3,8.5-0.1c3,0.2,5.9,0.5,8.6,0.7
		c1.5-0.4,1.3-1.5,1.7-1.9c-8.6,0-17.1,0-25.7,0c-1.3,0-0.6,1.8-1.8,2.2c-1.4-0.4-0.1-1.7-0.9-2.3c-1.1,0.3-1.1,1.4-1.6,2.3
		c-1.2-0.8,0-2.1-0.9-2.8c-2.1,0-1.6,2.7-3.2,3.3c-0.8-1.1,0.5-2.1-0.2-3.4c-2.9-0.7-2,2.2-2.8,3.5c-0.9,0.3-0.9-0.5-1.4-1.2
		c-0.7,0.4-0.4,1.9-1.6,1.9c-1-0.8,0-2-0.4-2.9l0.1-0.1v0.1c-1.4-0.2-1.4,1.5-2.5,1.7c-1.3-1.2,0.8-2,0.3-3.2
		c-2.1-0.5-4.2-0.2-6.2-0.4c-1.3,0.1-1.1,1.6-2.2,1.8c-0.3-0.6-0.5-1.2-0.9-2.1c-2.7,0.7-5.7-2.3-8.2,0.9c-2-2.3-2.3-2.3-4.5,0.3
		c-0.2-0.2-0.3-0.3-0.4-0.1c-0.1,0.1-0.1,0.3,0.1,0.5c0.7,0.8,1.4,1.5,2.2,2.4c-2.3,1.4-4.4,0.1-6.5,0c-1.5-0.1-3.2-0.5-3.5,1.8
		l0.1-0.1c-1-0.6-0.9-1.5-0.6-2.5c1.7-1.4,3.7-0.4,6.3-0.6c-2.6-1.7-4.6-2.6-7.1-2.8c-1.2-0.1-2.5,0-1.8-2c-2.2,0-4.1-0.1-6,1
		c-0.2,1.7-0.4,3.4-0.6,4.8c1,1.5,2.6-0.5,3.3,1.2c-0.8,1.4-1.9-0.1-3.2,0.5c-0.2,1.6-1.3,3.2-3.1,3.3c-4,0.3-6.6,3-9.7,4.8
		c-3.5,2.1-7.1,4.3-8.8,8.4c8.3,4,17.7,5.6,25.6,10.8c-8.9-3.9-18.4-6.1-27.3-9.7c-6.5,3.8-12.2,8.2-16.1,15.4
		c7.5-3.1,14.2-1.6,20.7,0.9c4.3,1.7,7.7,4.3,10,8.7c2.2,4.3,4.3,8.5,5.5,13.1c1,3.9,4.1,6.3,7.1,8.7c5.5,4.4,6,8.1,3.1,14.6
		c-1.8,4.2-4.3,8-5.3,12.7c-1.1,5.5-6.3,7.3-11,4.3c1.8-1,3.2,0.6,5.2,0.2c2.1-1.5,3.8-3.5,4.5-6.6c0.7-3.4,2.3-6.5,4-9.4
		c3.6-6.2,3.1-9.9-2.4-14.7c-3.9-3.4-7.2-7.3-8.5-12.5c-1-3.7-2.6-7.2-4.5-10.5c-2.9-5.3-8.3-6.4-13.4-8c-1.3-0.4-1.9,1-2.9,1
		c-1.5-2.4-4-2-6.2-1.7c-2.6,0.4-5.1,1.1-7.6,1.9c-3.6,1.1-5,4.5-6.8,7.4c-3.5,5.6-5.1,12.1-7.7,18.1c2,4,2.2,7.9-0.4,11.8
		c-1.3,2-1.3,4.5-1.5,6.8c-0.2,2.2,0,4.5,0,7.2c2.4,1.6,2.1,4.8,3.8,7.9c-2.5-1.7-2.3-4.2-3.8-6.2c-0.9,13.7-1.6,26.9,1.2,40.1
		c3.1,14.9,6.1,29.9,9.2,44.9c1.1,5.2,0.6,10.7,1.5,16c2.1,1.4,5,0.8,7,2.7c0.6,1.9-0.3,3.9-0.2,5.8c3.9-1.8,8.6,0.3,12.4-3.4
		c-0.1-6.4,0.9-13.4-0.7-20.4c-0.2-0.8-0.2-1.7-0.1-2.5c2.5-10,3.3-20.2,4.3-30.4c0.4-3.7,1.8-7.4,2.8-11.1
		c1.3-5.1,2.3-10.2,2.3-15.5c0-3.5-0.2-6.9-1.5-10.2c-1.9-5-1.5-10.4-2.7-15.5c-0.4-1.6-0.5-3.3-1.2-4.9c-0.8-2.1,0.1-4.3,2.6-6.9
		c1.2-0.6,1.2,0.7,1.9,1.1c7.2-3.1,14.6-4.7,22.6-3.2c-8.5,1.3-16.5,4-24.5,7.7c-0.1,2.8,0.9,5.5,1.6,8.2c3,2.5,6.1,4.3,9.5,5.8
		c3.7,1.6,7.2,1.1,10.8,0.1c1.7-0.5,1.7-2.4,3.1-3.2c1.5-0.8,2.6-2.1,4-3c5.3-3.9,7-9.2,6.5-15.6c-0.7-9,3.9-15.4,12.5-17.8
		c0.5-0.1,0.9-0.2,1.5,0.8c-3.3,2.1-7.1,3.4-9.8,6.3c-0.5,4.6-3.3,9.1-0.6,14.2c10.1-1.6,20.6,0,31.4,0.5c-0.2-2.7-1.8-4.9-2.2-7.4
		c-3-1.7-6.6-1.1-10.2-2.9c2-0.7,3.5-0.3,4.9-0.4c1.5,0,3,1,4.5,0.4c0.3-3.5-1.5-5.9-3.9-8.2c-3.8-0.8-7.9-0.6-12.4-2
		c4-1.9,7.5-0.4,11-0.4c0.1-3,1-5.9,0.5-8.8c-0.4-3.1,1.7-5.4,2.5-8.1c-0.6,0-1,0-2,0c3.9-3,4.3-7.3,6.8-11.2
		c-5.1,2.3-7.4,5.7-7.9,10.6c-0.2,1.8-0.8,3.5-1.3,5.2c-0.4,1.4-1.2,2.6-3.2,2.4c2.7-6.1,2.9-13.1,7.8-18.3c0.7-0.3,0,1.2,1.3,0.8
		c3.4-1.8,6.5-4.5,8.7-8.8c0.4,2.2,0.4,2.2-3.1,7.4c-1.5,2.2-2.8,4.6-3.5,7.2c2.7-2.2,5.2-4.6,8.6-5.7c2.7-0.9,5.3-1,8-0.1
		c3.5,1.3,7.3,1.2,10.9,1.7c5.6,0.7,9,3.9,11,9c2.5,6.5,2.8,13.2,2.1,20.1c-0.3,3-0.6,5.9,0,9.1c0.5,2.8-0.7,6-2.6,8.4
		c1.1,5,3.8,9.1,5.8,13.6c2.9,6.6,2.6,13.8,3.1,20.8c0.1,1.7,0.4,3.2,1.2,4.8c4.2,7.8,8.8,15.3,14.5,22.1c0.8,1,1.5,2.1,2.3,3.3
		c5.7,0.4,11.4,0.3,17.1-0.3c7.5-0.7,15-0.4,22.5,0c6.7,0.4,13.4,0.5,20.1,0.5c1.9,0,4.7-1.2,5.7,2c-6.3,1-12.5,1.6-18.9,1.3
		c-11.4-0.7-22.8-1.4-34.3,0.1c-4.1,0.5-8.3-0.1-12.4,0c-1,0-2-0.3-2.5-1.1c-4.5-6.3-9.7-12.1-12.8-19.3c-0.3-0.7-0.4-1.4-0.4-1.3
		c-0.5,7.7-1.3,16.2-2,24.6c-0.5,5.7,0.5,7.5,6.1,7.4c12.7-0.1,25.2,1.3,37.9,1.7c11.3,0.4,22.6,0.5,33.9,1.2c7,0.4,8.1-1.5,5.6-8
		c-0.8-2.1-2.2-4.4-0.3-6.6c3.7,4.1,5.2,9.1,7,14c-3.5,2.8-6.5,4.4-10.9,4.1c-10.8-0.8-21.7-0.5-32.6-1c-15.1-0.6-30.3-1.8-45.4-2.2
		c-1.3,0-2.6-0.3-4.2,0.4c-1.6,12-3.1,24.1-0.2,36.1c1.2,1.3,3.3,0.8,3.9,2.7c-3.1,1.7-5.4,0.7-5.8-2.6c-0.1-0.5-0.2-0.9-0.3-1.4
		c-0.4-1.4-0.8-2.7-1.2-4.2c-3.8,0-7.4-0.6-10.8-1.5c-1.7,0.9-2.6,2.1-2.4,3.8c0.5,3.4,0.9,6.8-2.8,9c-1.1,0-2.1,0-3.4,0
		c0.9,3.4-2.3,6-0.8,9.4c2.4,5.5,1.6,10.9-1.4,16.2c1.3,0.5,2.5-1.5,4.2,0.1c-6.1,2.1-7.7,7.4-9,12.7c-0.7,3,0.2,5.9,2.2,8.8
		c7.4-0.5,15.1,1.6,22.8,0.5c2.4-0.4,4.8-0.1,7.2-0.8s4.4-1.8,6.3-3.3c1.2-1,1.9-2.2,1.6-3.7c-0.8-5.7,0.1-11.6-1.7-17.3
		c-1.1-3.5-2.7-6.9-3.5-10.5c-1-4.4-0.3-8.9-1.6-13.1c1.7-0.7,2.1,0.1,2.4,0.9c0.8,1.9,1.2,3.9,1.1,5.9c-0.3,3.9,0.9,7.5,2.2,11.1
		c1.9,5.7,4.3,11.4,2.5,17.7c-0.3,0.9,0.1,1.6,0.3,2.4c1.3,5.5-0.6,9.2-6,10.7c-3.3,0.9-6.7,1.3-10.1,1.7
		c-6.1,0.6-12.1,0.5-18.1-0.1c-2-0.2-4-0.2-6-0.7c-1.8-0.4-2.8-1.4-3.2-3.6c-1.3-7.5,0.9-14.2,4.5-20.5c2.6-4.6,2.6-9.2,1-14.1
		c-1-2.8-1.6-5.7-0.2-8.7c-2.4-4.3-3.7-8.8-4.4-13.6c-0.8-5.4-3.8-10-4.7-15.3c-0.8-4.6-2.8-8.8-4.3-13.2c-0.9-2.6-2.5-4.2-5.6-4.9
		c-1.9,3.8-6,6-7.7,10.4c-4.5,11.6-8.7,23.2-12.3,35.1c-0.3,1.1-0.9,2.2-2.1,3.3c-4.4,0.1-9.5-0.1-8.6,7.5c-2.4-1.4-2-3-1.6-4.3
		c0.8-3,3.6-4.4,10.1-5c3.5-14.9,8-29.6,16.3-43.4c-2,0-3.7,0-5.4,0c-7.8,0.1-15.5-0.7-23.3-0.2c-1.1,0.1-2.2,0.2-3.1-0.5
		c-1.9-1.5-3.5-0.9-4.7,0.8c-1.1-0.4-0.9-1.2-0.8-1.9c0.8-4.6,1.8-9.3,4-13.3c1.8-3.2,5-6.1,9.7-6.1c9.9,0.1,19.8,1.1,30,0.8
		c2-9.5,4.2-19,3-29.3c-4.1-3.1-8.5-6.5-12.5-10.2c-8.7-7.9-8.8-7.9-8-19.5c-3-0.6-6.1-0.3-9.4-1.2c-3,4.9-7.2,8.6-11.5,12.2
		c0,0.5-0.4,1-0.3,1.5c-9.3,6.6-18.3,5.3-27.2-1.6c-0.5,4.3,0.4,7.9,1.6,11.3c2.4,7,3,14.2,0.5,21.1c-3.3,9-4.8,18.2-5.3,27.8
		c-0.4,7.2-2.5,14.3-2.6,21.6c0,4.9,0,9.8,0,15c3.8,0.2,5.1,2.4,6.4,5.8c2.5,6.5,3,13.5,5,20.1c0.7,2.3,2.7,4,2.8,6.5
		c-0.4,1.5-1.4,2.6-2.6,3.3c-5.3,3.3-10.4,6.7-16.8,7.6c-2.9,0.4-5.1,1.2-6.3,4.6c-1,2.8-4.4,3.9-7.1,5c-7.1,2.9-14.5,4.5-22.3,3.4
		c-3.2-0.4-6.4,0-9.6-0.2c-3.1-0.2-6.2-0.8-8.1-3.9c0.4-1.6,0.6-3.2,0.5-4.8c-0.1-1.4,0.4-2.6,1.5-3.5c4.4-3.9,7.7-8.7,12-12.7
		c3-2.8,5.7-6,7.2-10.1c0.7-1.9,2.2-3.4,3.6-4.9c2-2,3.6-4.4,5.3-6.7c0.6,0.6,1.2,1.5,2,1.3c3.7-0.8,6.5,1.9,9.9,2.4
		c2.1,0.3,3.3,2,2.6,4.3c-0.6,2-3.7,3.9-5.6,3.6c-1-0.2-1.6-1-2.4-1.2c1.2,0.6,2.4,1.5,1.6,3.2c-0.6,1.4-1.8,1.7-3.3,1.3
		c-1.9-0.6-3.8-1.5-5.6-1.4c1.7-0.2,3.3,0.7,5,1.2c1.5,0.5,2,1.6,1.6,3.1c-0.5,1.4-1.6,2-3.1,1.6c-1.8-0.5-3.5-1.5-5.2-1.4
		c0.7,0.2,1.8,0.2,2.8,0.6c1.6,0.6,3.1,1.2,2.4,3.2c-0.6,1.9-2.2,2.3-4.1,1.9c-2-0.4-3.5-2-5.9-2c1.4,0,2.6,0.2,3.2,1.6
		c-0.1,2.8-2.3,3.2-4.3,2.8c-4.3-1-6.8,0.9-8.9,4.2c-1.4,2.1-3.7,3.3-5.6,4.9c-1.5,1.3-3.3,2.4-3,4.9c0.1,0.3,0.2,0.6,0.3,1
		c0.4,1.7,1.5,1.8,3,1.8c7.3-0.1,14.8,1.3,22-0.8c6.5-1.9,12.6-4.5,16.5-10.5c1.9-2.9,4.2-5.5,6.4-8.2c1.2-1.5,2.7-2.1,4.4-1.1
		c1.8,1.1,1.1,2.6,0.2,4c-0.2,0.4-0.4,0.9,0.1,1.7c3.5-1,6.5-3,9.5-5c1.1-0.7,1.4-2.2,0.7-3.2c-2.4-3.9-2.4-8.4-3.3-12.7
		c-0.1-0.6-0.3-1.2-0.9-1.6c-0.9-0.5-1.8,0-2.5,0.6c-2.5,2.2-5.1,1.8-7.5,0c-3.5-2.7-7.1-4-11.7-2.7c-2.7,0.7-3.9-1.4-2.8-4.3
		c1.1-2.8,0.6-3.8-2.1-4.3c-2.1-0.4-3.2,0.3-3.4,2.5c-0.1,1.2,0.5,2.7-0.9,3.8c-1,0.6-1.7-0.3-2.4-0.8c-2.6-3.6-1.6-6.9,0.6-10.2
		c1.1-0.9,2.5-0.1,3.8-0.8c0.2-1.9-0.1-4-0.3-6.1c-0.7-8.2-2.2-16.3-4.1-24.3c-2.5-11.3-4.2-22.8-6.6-34.1
		c-2.5-11.7-2-23.2-0.5-34.9c0.5-3.7,0.9-7.4,0.4-11.1c-0.3-2.5,0.7-4.7,1.9-6.8c1.4-2.5,2-5,1.2-7.9c-1.6-5.8,1.8-10.7,3.6-15.7
		c4-10.9,11.8-19.2,19.3-27.7c0.2-0.3,0.5-0.6,0.8-0.7c7.4-4.1,13.3-10.3,20.6-14.8c3.1-1.9,6.4-2.8,9.9-4c-1.3-3-0.6-5.9,0.7-8.4
		c1.7-3.1,5.2-1.4,7.8-2.2c0.8-1.1-0.2-3,1.8-3.9c0.8,2.2,2.7,2.5,4.7,2.8c1.2,0.2,2.3,0.7,3.3,1.3c3.1,1.6,6.3,1.8,9.7,1.6
		c10-0.6,20-0.2,30,1c1.3,0.1,2.7,0.4,3.9,0.1c11.5-2.6,23.5-2.4,35.2-5.1c0.1-0.3,0.5-0.8,0.4-1.2c-0.9-7.5,0.9-14.6,3-21.6
		c1.1-3.8,0.7-7.8,1.2-11.7c0.8-6.6,2.8-12.8,5.5-18.8c2.2-4.8,4.1-9.6,6.2-14.5c-4.4-3.7-8.6-7.4-12.9-11.1
		c-0.8,1.3,0.5,2.7-0.3,4.1C803.1,347.2,804.4,343.3,801.8,341.3L801.8,341.3z"/>
	<path d="M391.9,522.5c1.1-3.5,1.4-7.1,1.2-10.9c-0.4-8.4,4.8-14.6,13-16.5c0.3-0.1,0.6,0.2,1.7,0.5c-3.7,2.5-7.6,3.8-10.3,6.6
		c-0.8,4.7-3.2,9.2-0.9,14.4c10.2-1.7,20.7,0,31.4,0.5c0-2.9-1.7-5-2-7.5c-3.1-1.5-6.5-1.3-9.4-2.3c0-0.3,0-0.6,0-0.9
		c1.4,0,2.8,0,4.2,0c1.4,0,2.7,0.8,4.3,0.3c0.6-3.5-1.4-5.8-3.7-8.1c-3.8-1-7.9-0.4-12.1-2.1c3.7-1.9,7.1-0.4,10.5-0.4
		c2-5.5-1-11.7,3.4-16.3c-0.7-0.7-1.3,0.1-1.6-0.9c1.6-1.3,2.9-3.2,3.6-5.3c0.6-2.1,2.5-3.8,2-6.5c2.7-1.4,4.2-4.3,6.5-6.5
		c-0.2,3-2.4,4.9-3.8,7.3c-1.4,2.3-2.6,4.7-3.7,7.3c2.6-2.4,5.2-4.8,8.6-6.1c2.9-1.1,5.6-1.1,8.7-0.2c3.4,1,7,1.2,10.6,1.6
		c5.8,0.6,9.3,4,11.2,9.2c2.3,6.3,2.9,12.7,2,19.4c-0.4,3.2-0.5,6.4,0,9.8c0.4,2.6-0.7,5.8-2.6,8.3c1.1,3.9,2.5,7.5,4.5,10.9
		c2.2,3.6,3.2,7.7,3.5,11.9s1,8.3,0.8,12.5c-0.1,1.3,0.6,2.3,1.1,3.3c4.8,9.1,10.5,17.6,17.6,26.2c20.9-1.8,42.5-0.6,64.1,0.2
		c3.4,4.7,5.4,9.9,7.7,15.4c-2.9,2.2-5.3,4.6-9.6,4.4c-10.8-0.6-21.7-0.5-32.6-1c-15.6-0.6-31.2-1.5-46.9-2.3c-1.3-0.1-2.6,0-4.2,0
		c-1.7,12.3-3,24.5-0.4,36.4c1.2,1.6,3.7,0.9,3.9,3.1c-4.1,1-5.2,0.3-5.9-3.6c-0.3-1.5-0.8-3-1.3-4.7c-3.6-0.4-7.3-0.5-10.7-1.6
		c-2.9,1.1-2.5,3.5-2.4,5.8c0.3,4.8-1.3,6.9-6.2,7.4c-0.1,1.6-0.2,3.2-1,4.7c-0.7,1.3-0.7,2.7-0.1,4.2c2.4,5.6,1.6,10.9-1.1,16.2
		c1.2,0.7,2.2-1.1,3.5,0c-7.7,5.4-10.8,12.4-6.7,22c8-0.7,15.7,1.6,23.7,0.3c2.5-0.4,5.1-0.4,7.6-1c5.3-1.4,6.7-4.1,7-9.3
		c0.5-8.9-2.2-16.9-4.9-25.1c-1.5-4.4-0.2-9.1-1.4-13.6c3.2,1.2,3.3,4,3.2,6.2c-0.3,5,1.5,9.3,2.9,13.9c1.6,5.2,3.8,10.4,1.8,16.1
		c-0.3,0.8,0.2,1.6,0.4,2.4c1.2,5.4-0.9,9.1-6.3,10.6c-3.5,1-7.1,1.3-10.8,1.6c-4,0.3-8,0.7-12,0.4c-3.5-0.2-7.1-0.6-10.6-1.1
		c-2.2-0.3-3.4-1.3-3.7-3.9c-1.1-7.5,1.1-14.2,4.7-20.5c2.6-4.5,2.4-9.1,0.9-13.8c-1-3-1.4-6-0.2-8.9c-2.1-3.4-3.2-7-3.9-10.8
		c-0.8-4-1.6-7.9-3.2-11.7c-1.4-3.2-2.2-6.6-2.8-10c-0.8-4.3-3-8-4.7-11.9c-0.6-1.4-2.4-1.8-4.2-2.6c-2.1,4-6.1,6.1-7.8,10.6
		c-4.5,11.6-8.7,23.2-12.3,35.1c-0.3,1.2-0.9,2.2-1.7,3.1c-9,1.8-9.1,1.9-8.7,6.6c8.2,0.9,16.5,1,24.8,1.4c8.2,0.4,16.5-1,24.7,1.5
		c-5.6,1-11.1,0-16.7,0c-5.7,0-11.5-0.3-17.2-0.7s-11.3-1.1-17-1.6c-1.7-5.4,0.7-7.7,9.7-8.7c3.3-14.9,8.1-29.5,16.1-43.3
		c-2,0-3.9,0-5.7,0c-7.6,0.1-15.3-0.7-22.9-0.2c-1.1,0.1-2.2,0.2-3.1-0.5c-1.8-1.3-3.5-1.3-4.8,1.2c-1-1.8-0.6-3.2-0.3-4.6
		c0.5-2,1.4-3.9,1.7-5.8c0.7-4.9,3.9-7.9,7.7-10.6c1.1-0.8,2.2-0.6,3.4-0.6c10,0.3,20,0.6,30.4,0.9c2.2-9.7,4.4-19.2,2.9-29.6
		c-4.3-3.1-8.5-6.9-12.9-10.4c-6.2-5-9.8-10.7-7.1-19.2c-3.4-0.4-6.5-0.7-9.7-1c-3.5,4.7-8,8.6-12.4,12.6c-6.1,5.4-12.1,7-19.4,3.5
		c-2.5-1.2-4.8-2.5-7.5-3.9c0.1,3.9,0.6,7.5,1.8,10.9c2.3,6.5,2.5,13.1,1.1,19.7c-1.1,5.4-4.3,10.3-5,15.6c-0.7,5.2-0.3,10.7-1.1,16
		c-0.9,6.3-2.3,12.5-2.3,18.8c0,5,0,10,0,15.3c4,0.3,5.4,2.7,6.4,6.3c1.2,4.7,3,9.2,3.5,14.2c0.3,3,1.3,6,3,8.7
		c1.7,2.9,1.6,4.3-1.1,6.1c-5.2,3.5-10.6,6.9-17,7.9c-2.9,0.4-5.1,1.1-6.4,4.6c-1,2.9-4.6,4.1-7.4,5.2c-7,2.8-14.3,4.4-22,3.3
		c-3.2-0.4-6.4,0-9.6-0.2c-3.1-0.2-6.2-0.8-8.2-3.9c0.1-1.5,0.6-3.1,0.5-4.8c-0.2-1.5,0.7-2.7,1.7-3.8c5.7-6.3,11.9-12,17-18.8
		c2.2-2.9,3.1-6.6,6-9.2c1.9-1.6,3.3-3.8,4.6-6.1c-2.3-3.5-1.5-6.9,0.8-10.2c1.1-0.9,2.6,0.1,4.1-1c-1.1-7-0.9-14.5-2.7-21.7
		c-2.7-11.1-4.9-22.4-6.7-33.7c-0.8-5.1-2.1-10.1-2.9-15.1c-1.2-8.1-0.9-16.2,0.1-24.3c0.7-5.4,1.5-10.8,0.8-16.4
		c-0.3-2.1,0.9-4,1.9-5.7c1.6-2.7,2-5.6,1.2-8.6c-0.5-2-0.4-4,0.2-6c4-12.3,10.2-23.3,19.2-32.7c2.6-2.8,5.5-5.1,8.5-7.5
		c6-4.9,12.4-9.1,18.7-13.6c1-0.7,2-1.2,3.2-1.3c1.4-0.1,2.8-0.4,4.3-1.3c-1-2.8-0.5-5.6,0.8-8.1c1.7-3.2,5.1-1.5,8-2.4
		c1-0.8-0.3-2.7,1-3.5c5.8,2.8,11.3,5.7,17.9,5.4c10.4-0.6,20.8-0.3,31.1,1.1c4.2,0.6,8-1,12-1.5c8.3-1,16.6-1.4,24.8-2.9
		c-8,3.3-16.7,3-25.1,4.6c8.9,0.3,17.8,0.7,26.2-2.2c2.1-3.9,0.1-8,1.1-12c1.1-4.5,1.3-9.1,2.9-13.6c1.5-4.2,0.9-8.7,1.5-13.1
		c0.8-5.9,2.4-11.5,5-16.7c2.5-5,4.1-10.4,6.6-15.4c-4.5-3.8-8.8-7.5-13.1-11.2c-0.6,1.5,0.6,2.7,0.1,4.3c-2.4-2.4-1.5-6-3.5-8.3
		l0.1,0.1c-1.3-2.8-2.9-5.5-4.4-8.1c-8.7-15-10.3-31-5.5-47.6c0.2-0.6,0.6-1,0.4-1.7c-0.6-0.5-1,0.1-1.5,0.4c-0.5,0.2-1,0.6-1.4,0.9
		c-2.7,13.3-14,28.8-29.9,31.9c-5.5,1-10.7-1.5-13.6-7l0.1-0.1c1.7,0.5,2.8,1.8,3.9,3c1.2,1.2,2.5,1.7,4.3,1.9
		c0.7-3.1,2.1-5.7,3.6-8.4c0.7-1.2,1.4-2.5,0.8-4.1c0.1-0.1,0.2-0.2,0.3-0.3c1.6-1.6,4.1-0.5,5.8-2.3c1.4-1.6,3-3.4,5.5-3.4l0.1,0.1
		c-2.3,2.1-4.4,4.3-6.9,6.2c-4,3.1-6.9,6.8-6.5,12.3c2.5,0.6,4.8,0,7.1-1.2c8.4-4.6,14.9-11.1,19.2-19.7c1.1-2.2,2.2-4.5,3.1-7
		c-3.6,2.3-7.5,4-10.7,6.9c1.8-3.3,4-6.2,7.2-8.2c-1-3.7-1.3-7.4-1.9-11.1c-2.7,1.7-4.7,4-6.4,6.5c-1.5,2.2-3.6,2.8-5.9,1.6
		c-1.7-0.9-3.3-0.9-5.1-0.3c-2.8,1-7.6-0.5-9.6-2.7c-2.4-2.7-4.4-5.6-5.6-9.1c-0.6,2.7,0.2,5.4-1,8.1c-1.1,2.5-0.1,5.4,0.5,8.1
		c0.4,1.6,1.7,2.9,1.7,4.8c-1.9-0.8-2.2-2.7-3.6-4.2c-1.3,3-0.5,6.6-3.2,9.7c-0.2-4.8,1.2-8.8,0.9-13.3c-1.8,0.8-2.1,2.2-2.5,3.5
		c-3.2,9.5-7.6,18.5-11.5,27.7c-1.5,3.6-2.6,7.4-4.8,10.7c-5.1,7.5-10.4,14.8-17.6,20.4c1.6,8.4,3.7,16.4,6,24.4
		c1.6,5.5,2.3,11.1,1.6,17c-0.4,3.6,0.4,7.4,0.7,11c0.2,3.7,0.6,7.3-0.1,11.1c-0.5,3.2,1.3,6.3,1.2,9.5c0,0.9,0.7,1.9-0.6,2.7
		c-1.4-0.5-1.6-1.8-1.7-3.1c-0.5-4.3-0.6-8.5-0.5-12.8c0.1-5.2-0.7-10.5-1.1-15.7c-0.1-1.1-0.3-2.2,0-3.2c1.2-4,0-7.7-0.8-11.5
		c-2.6-12.4-6.5-24.4-8.9-36.8c-1.6-8-1.2-16,1.3-23.7c1.5-4.8,1-8.9-1.8-13c-5.1-7.5-9.6-15.4-14.6-23c-5.8-8.8-8.6-18.8-10-29.2
		c-0.8-5.9-2.5-11.7-3-17.6c-0.1-0.8-0.7-1.5-1.1-2.3c0.8-1.7,1.1-3.5,0.7-5.5c-1-4.7,0.5-9,2.6-13c1.4-2.7,3.9-4,6.9-3.2
		c5.8,1.5,11.8,1.7,17.6,3c6,1.3,11.9,3.2,17.7,5.3c4.5,1.6,8.3,4.3,11.8,7.9c2.9,3,6.8,5.2,10.4,7.8c1.4-3,1.5-6,2.6-8.7
		c1.1-2.6,0.9-6.3,5.1-6.8c0.6-0.1,1.1-1.5,1.7-2.4c-0.4-1-0.9-2.1-1.4-3.4c1.7-0.7,2.8-2,3.2-3.7c2.6,0.3,4.1,2,6.2,2.9
		c-0.2-1.7-2.1-2.5-1.8-4.5c3.1,0,3.7,2.7,5,4.8c0.4-1.1-0.1-2.6,1.9-3.1c2.4,0.2,3.2,3.2,5.5,4.2c2.9-0.8,5.6-0.9,8.1,1.6
		c1.3,1.3,3.2,1.6,5.2,1.5c6.8-0.2,13.5,0.4,19.9,2.8c-5.5-0.6-11-1.8-17.2-0.7c2.1,1.2,5-0.3,5.6,2.8c-1,1.9-3.1,1.1-4.8,1.6
		c0.9,1.3,1.7,2.6,2.6,4.1c6.5,0,12.7-2,19.1-3.5c-5.6,3.8-12.2,4.4-18.6,5c-1,3.4,1.5,5.8,1.7,9c5.2,0.1,10.7-3.6,15.8,1.3
		c-2.9,0.6-5.4-1-7.9-0.5c-2.7,0.6-4.2,3-6.1,4.8c-0.6-0.7-0.9-1.6-1.9-2.1c0.9-1,2.9-0.5,2.7-2.5c-1.2,0-2.5,0-3.7,0
		c0,3.7,0.2,7.3,1.9,10.7c2.4,1.4,5.2,1.8,8.1,1.2c4.1-0.8,8.1-0.1,12.2,0.7c4.5-6.4,9.3-12.5,14.8-18.3c1,1.6-0.1,2.4-0.8,3.3
		c-4.5,5.6-8.4,11.6-11.9,17.8c-2,3.5-3,7.3-3.6,11.4c-1.5,9.2-1.2,18.5-3.7,27.5c-0.3,0.9-0.5,1.9,0.1,2.8c0.7,1,0.5,2.1,0.3,3.1
		c-1.3,7-2.8,13.9-6,20.4c-0.3,0.5-0.7,1-1.3,1.3c5.2-14,4.7-28.7,7.1-44c-4.2,3.3-8,5.7-12.2,7.5c-1.6,0.7-1.5,2.6-1.7,4.1
		c-0.8,6.6-1.7,13.3-2.1,19.9c-0.5,8.2,1.7,15.9,5.8,22.9c1.8,3.1,3.1,6.6,6.3,8.8c2.5,7.7,10.8,9.6,15.4,15.5
		c4.8-12.4,5-25.3,4.8-38.2c1.2,3.3,2.8,6.4,2.7,10c-0.3,12.6-1.8,25-7.8,36.4c-0.7,1.3-1.2,2.6-1.9,3.9c-2.5,4.7-3.6,9.5-3.2,15.1
		c0.7,9,0.7,18.1,0.7,27.2c0,10.9,1.2,21.7,0.8,32.5c-0.1,1.4,0.6,3.3-1.7,3.7c-2.3-6.6-4.3-13.4-3.8-20.5c0.2-3-0.3-6-0.9-8.9
		c-1-5-1.2-10.1-0.1-15c0.7-3.2,0.4-6.4,0.7-10.4c0,10.6-2.6,20.3-1.9,30.1c0.2,3.5,0.3,7,1.1,10.3c0.6,2.7,2.7,5,3,7.9
		c0.2,2.3,1,4.4,2,6.4c0.7,0.8,1.4,1.6,2.2,2.4c2.1,1.9,3,4.3,2.6,7.1c-0.3,2-0.2,4,0.4,6c0.9,2.7,0.8,5.4,0.2,8.1
		c-1,4-3.2,7.6-3,12c-2-2.5-1.9-4.9-0.9-7.5c1.8-4.3,2.6-8.6,1.1-13.2c-0.6-1.9-0.3-4,0.1-6c0.4-1.6,0.2-3.2-1.1-4.3
		c-3.7-3.1-5.2-7.3-6.2-11.8c-0.1-0.4-0.4-0.9-0.6-1.4c-2.6-0.5-4.9-1.7-7.4-1.8c-1.3-1.1,0.1-2.8-1.6-3.9c0.4,2.7-1.8,3.1-3.1,4.2
		c-1.5-0.2-1.3-1.8-2.4-2.3c-0.7,1.5-1.5,2.9-3.9,1.5c0.7,2,2.5,0.6,3.1,2c-2.6,0-5.1,0-7.7,0c-1.3,0-2.6-0.2-3.9-0.4
		c-7.7-1.2-14.5,1.4-21.4,4.2c-2,0.8-4,1.9-6.3,1.8c10.2-8.5,22.1-8.5,34.3-6.6c0.5-0.9,0.8-1.5,1.2-2.1c-8.6,0-17.1,0-25.6,0
		c-1.2,0-0.8,1.7-1.9,2.1c-1.1-0.4,0.1-1.8-0.8-2.3c-1.3,0.3-0.8,2-1.9,2.4c-0.9-0.8,0.1-2-0.4-3c-2.2,0.2-1.8,2.7-3.3,3.5
		c-0.7-1.1,0-2.3,0.1-3.5c-3.2-0.8-2.2,2.3-3.2,3.4c-1,0.2-0.6-0.8-1.2-1.1c-1.1,0-0.5,1.7-1.5,1.9c-1.1-0.7-0.7-2.2,1.1-4.4
		c-2.4-0.3-2.4,2.7-4.2,3.2c-0.8-1.2,0.4-2.1,0.6-3.4c-3.1,0.2-6.2-1.8-8.5,1.6c-1.1-0.2-0.3-1.5-1.3-2c-1.3-0.1-2.9-0.1-4.4-0.2
		l0.1,0.1c-1.6-1.3-2.6-0.2-3.5,1c-1.4-1.1-2.7-3.4-4.2-0.2c-1.4-0.2-0.5-1.5-1.3-2c-2.3,3.2,2.3,3.1,2.3,5.4
		c-2.9,1.8-6.4-1.7-9.3,0.4c-0.1,0.8,0.5,1.1,1,1.5c7.6,5.2,14,11.5,19.9,18.5c1.9,2.3,1.9,2.3,2.2,5.4c-1.8-1-2.5-2.7-3.5-3.9
		c-5.6-6.5-12.2-12.1-18.2-18.2c-1.2-1.2-3-2.2-2.3-4.4c1.8-1.6,3.9-0.5,6-0.6c-2.1-3.4-7-1.4-9.1-4.9c-1.5,0-3.3-0.1-5.2,0.8
		c-0.8,1.6-0.6,3.4-0.8,4.8c1,1.6,2.5-0.3,3.4,1.2c-0.9,1.6-2.4-0.4-3.4,0.6c0,1.9-1.5,3.1-3.2,3.3c-4.2,0.3-6.9,3.5-10.2,5.3
		c-3.3,1.8-6.4,4.1-8.1,7.8c8.3,4.1,17.7,5.6,25.6,10.8c-8.8-3.8-18.2-6-27.1-9.6c-6.6,3.7-12.2,8.3-16.3,15.5
		c7.6-3.3,14.4-1.7,21.1,0.9c4.2,1.7,7.5,4.2,9.7,8.5s4.3,8.4,5.5,13.1c1,4,4.3,6.5,7.3,9c5.3,4.3,5.8,8.3,3,14.4
		c-1.9,4.1-4.4,8-5.3,12.7c-1,5.4-6.4,7.4-11,4.4c1.8-0.9,3.3,0.6,5.1,0.2c2.4-1.5,3.9-3.8,4.6-6.9c0.7-3.2,2.3-6.2,3.9-9.1
		c3.1-5.3,3.3-10.6-2.3-14.7c-4.1-3-7.1-7-8.4-12.1c-1-3.7-2.6-7.1-4.4-10.5c-2.9-5.5-8.4-6.6-13.6-8.3c-1.3-0.4-1.9,0.9-2.9,1
		c-1.6-2.4-4-2-6.2-1.7c-2.6,0.4-5.1,1.2-7.6,1.9c-3.5,1-5,4.1-6.5,6.8c-2.1,3.8-4.1,7.8-5.5,12c-1.2,3.8-3.1,7.4-1.1,11.6
		c0.7,1.6,0.1,3.6-0.9,5.1c-3,4.6-2.2,9.8-2.5,14.9c0,0.5,0,1.2,0.3,1.3c2.3,1.6,1.8,4.5,3.5,7.1c-2.7-1.4-2-4-3.5-5.1
		c-1.9,15.1-1.2,29.9,2,44.8c2.7,12.2,4.8,24.6,7.8,36.8c1.2,5.1,0.8,10.4,1.5,15.6c0.1,1.1-0.1,2.2,0.5,3.2c2,1.6,5.2,0.6,7,2.9
		c0.6,1.9-0.5,3.8-0.3,5.7c3.9-1.9,8.7,0.2,12.6-3.5c-0.4-6.7,1-13.8-1.1-20.9c-0.2-0.7-0.2-1.5,0-2.1c2.9-7.7,3-15.9,3.8-23.8
		c0.6-6.3,2.2-12.2,3.6-18.2c1.2-4.9,2.1-9.8,2.2-14.9c0.1-3-0.1-6-1.2-8.8c-2.5-6.6-1.8-13.7-3.9-20.3c-1.1-3.5-0.1-5.9,1.9-8.1
		c1.5-0.6,1.5,0.7,2,1.2c7.3-3.2,14.7-4.6,22.5-3.5c-3.8,1.8-8.1,1.6-12,2.9c-4.1,1.4-7.7,3.7-12.1,4.5c-0.1,3.2,0.8,6,1.7,8.9
		c2.3,1.1,4.5,2.6,6.6,4c4.3,3,9.5,4,13.8,1.2c3.2-2.1,6.2-4.9,9.1-7.8C390.1,525.4,391.6,524.4,391.9,522.5c0.5,0,1,0,1.4-0.3
		C392.8,522.4,392.4,522.4,391.9,522.5z"/>
	<path d="M498.1,318.3c0.3-2.2,1.3-3.3,2-4.5c3.2-5.6,6.7-11.2,7.7-17.6c0.7-4.6,1.9-9,3.3-13.3c1.7-5.3,4.3-10,7.7-14.4
		c3.8-5,6.9-10.3,9-16.2c1.4-3.7,0.3-7.4,0.4-11.1c0.1-2.3,0.6-4.1,2.7-5.5c-1.6,2.9-2.4,5.9-1.5,9.3c4-3,5-7.4,5-11.7
		c0-3.8-0.1-7.6-0.2-11.4c-0.1-4.3-2.7-7.4-5.4-10.2c-2-2.1-5.3-2.3-8-0.5c-3.4,2.3-7.1,3.1-11,3.8c-4.9,0.8-8.8,3.7-12.1,7.2
		c-2.5,2.7-4.9,5.4-6.3,9c-1.9,4.8-6,7.6-10.5,9.8c0.9-2.3,3.3-3.1,5.1-5c-1.8-0.7-3.7-0.9-4.9-2.3c-3.1,3.2-3.9,3.3-5.6,0.8
		c1.5-1.4,4-0.9,5.6-2.8c-0.2-3-0.4-6.2-0.6-9.3c-1.5-0.8-2.8-1.4-4.3-2.1c5.5-0.4,7,3.1,5.6,12.1c1.4,1.2,3.4,0.8,4.8,1.9
		c2.2-1.9,2.8-4.4,4.1-6.5c5.2-8.5,12.2-14.3,22.4-15.3c2.4-0.2,4.3-1.2,6.3-2.3c5-2.7,8.4-2,12.4,2c3.5,3.5,5.2,7.2,4.4,12.2
		c-0.4,2.5,0,5,0.1,7.5c0.3,4.5-0.2,8.8-3.8,12.2c-1.6,1.4-2,3.5-2.4,5.5c-1.5,7-4.3,13.3-8.7,19c-5,6.5-7.9,14.1-11.5,21.4
		c-1.2,2.3-0.4,5.8-1,8.7C507.5,305.9,504.5,312.6,498.1,318.3z"/>
	<path d="M825.2,317.3c-1.8-3.9-3.7-7.8-6.8-11c2.8,0.6,3.4,1.2,6.6,7.2c1.9-5.7,5-11.1,5.1-16.6c0.2-10.7,4.6-20.4,5.7-30.7
		c1.1-9.9,2.1-20-0.3-29.9c-0.5-2.1-1.9-3.9-1.2-6.3c0.5-1.7-1.6-2.2-2.3-3.5c2.3-1.4-0.5-4.3,1.7-5.9c0.8,1.2,1.1,2.4,1.3,3.7
		c1.3,9.6,4.4,18.9,4.6,28.8c0.1,7.4-1.1,14.4-3,21.4c-1.3,4.6-2.7,9.2-4.1,13.7c-0.4,1.4-0.6,2.8-0.5,4.2c0.1,8.2-3,15.6-5.6,23.2
		C826.2,316.3,825.6,316.7,825.2,317.3L825.2,317.3z"/>
	<path d="M721.7,213.1c-2.1-0.8-1.1-3.1-0.6-3.2c2.1-0.4,2-2.2,2.5-3.3c5.4-11.8,8.6-24.2,10.3-37.1c1.2-9.1,4.6-17.5,11.1-24.2
		c0.8-0.8-0.2-1.6,0.6-2.1c1,0,0.8,1.1,1.4,1.3c-5.6,7.7-9.1,16.1-10.4,25.5c-1.8,12.8-5.1,25.3-10.4,37.1
		C725.2,209.3,723.9,211.6,721.7,213.1L721.7,213.1z"/>
	<path d="M797.4,644.9c-1.6,1.1-3.6,0.5-5.2,0.8c2.2,0.4,4.6-0.1,6.7,1.5c-2.4,2-14.5,2-18.1,0.1c0-1.6,1.6-1,2.4-1.6
		c-0.6-1.1-2.3-0.5-2.9-2.2c4.3-2.3,9-0.5,13.8-1.4c-4.2-0.4-7.9-1-11.7-0.7c-0.3-1.9,0.7-2.7,1.9-2.7c4.9-0.2,9.7,0.2,14.2,1.7
		c0.3,2.2-1.2,1.8-2.1,2.3C796.4,643.4,797.8,643.5,797.4,644.9z"/>
	<path d="M721.6,213.1c6.2,7.3,8.5,16,9.4,25.3c0.5,5.1,2,10,2.2,15.2c0,0.7,0.4,1.4-0.2,2.3c-2-1.3-1.8-3.5-1.9-5.3
		c-0.7-9.3-3.4-18.2-6.5-26.9C723.4,220.2,721.8,216.9,721.6,213.1L721.6,213.1z"/>
	<path d="M466.1,644c0.7,0.7,2.3,0.4,2.3,2.1c-1.4,1.5-3.5,0.6-5,1.1c2,0.4,4.4-0.1,6.4,1.5c-2.3,2-14.5,2.1-18,0.1
		c0.1-1.7,1.6-1,2.5-1.5c-0.6-1.2-2.3-0.5-2.8-1.6c1.8-2.1,1.8-2.1,14.8-1.6L466.1,644z"/>
	<path d="M484.2,469.6c-0.2-5.9-3.4-10.3-6.5-14.9c-3.8-5.7-9.4-8.6-15.6-10.5c-1.7-0.5-3.8-0.1-5.4-0.1c3.7-2.2,10.2-2.1,17.1,0.7
		c-3.2,0.2-5.6-1.3-8.1-0.6c4.6,3.3,11.3,2.7,14.9,8c-2.1-0.9-3.9-2.4-6.5-3C484.9,461.7,487,465.8,484.2,469.6z"/>
	<path d="M747.9,644.5c1.5-15.4,3.4-30.9,7.8-45.8C753.1,614,751.4,629.4,747.9,644.5z"/>
	<path d="M418.5,646.1c1.9-15.4,3.7-30.8,7.6-46.3C427,602.2,420.4,643.7,418.5,646.1z"/>
	<path d="M442.1,343.5c-1.4,0.1-2.7-0.2-4.1,0.1c-2.3,0.5-4.8-1.2-5.7-3.4c-0.9-2.3-0.5-4.5,1.3-6.2c1.6-1.6,4.7-1.9,6.7-0.8
		c2.1,1.1,3.4,3.7,2.6,6.1C442.5,340.6,442.6,342.1,442.1,343.5z"/>
	<path d="M770,339.9c-1.4-0.1-2.4-0.3-3.6-0.1c-2.6,0.5-5.1-0.9-6.1-3.3c-0.9-2.3-0.5-4.5,1.3-6.2c1.7-1.7,5-2,7-0.6
		c2.2,1.5,3.2,3.6,2.3,6.2C770.4,337.1,770.7,338.4,770,339.9z"/>
	<path d="M425.9,331c3.2,2.1,6.4,4.1,4.6,8.5c-1,2.3-3.3,3.7-5.7,3.4c-2.5-0.3-4.5-2.1-4.9-4.5C419,333.7,422.6,332.5,425.9,331z"/>
	<path d="M716.6,436.1c2.1,0.2,3.4,1.6,4.9,2.8c5.9,4.9,11.6,10,16.4,16c1.2,1.5,2.3,3,2.4,5c-0.4,0.1-0.7,0.3-0.7,0.2
		c-6.2-8-13.7-14.6-20.9-21.6C717.9,437.8,717,437.1,716.6,436.1L716.6,436.1z"/>
	<path d="M759,333.7c-0.1,3-2.8,5.7-5.8,5.5c-3-0.1-5.5-2.6-5.5-5.5c0-3.2,2.4-5.6,5.7-5.6C756.5,328.2,759,330.7,759,333.7z"/>
	<path d="M738.2,327.2c3.1,0.7,6.4-0.7,8.2,2.5c1.2,2.2-0.2,3.8-1.8,5.1c0.6,1.3,1.2,2.3,1.7,3.4c-3.5,1.5-3.2-3.6-5.5-3.4
		c-1.8,0.6-0.3,3.8-3.3,2.8C737,334.4,738,331.1,738.2,327.2z"/>
	<path d="M409.5,341.4c-0.4-3.4,0.3-6.7,0.8-10.3c2.9,0.4,6.1-0.7,8,2.2c1.4,2.2-0.1,3.8-1.6,5.4c0.6,1,1.1,2.1,1.7,3.3
		c-3.5,1.5-3.2-3.4-5-3.3C410.9,338.9,412.7,342.6,409.5,341.4z"/>
	<path d="M773.8,653.2c-16.4-0.9-32.3-0.7-48-3.2c15.3,1.5,30.7,0.4,46,1.4C772.3,651.5,772.9,651.6,773.8,653.2z"/>
	<path d="M403.7,431.8c-0.1,0.9-0.2,1.8-0.4,2.8c2.2,0.4,2.2,0.4,3-1.7c1.2,0.5-0.2,1.6,0.4,2.1c6.4,1.6,12.2,4.8,19,4.7
		c-3,1.4-5.8,0.6-8.6,0.3c-3-0.3-5.6-2-8.6-2.3c-2.9-0.2-5.8-1.1-8.8-0.9c0.2-1.5,1.6-1.1,2.2-1.6C403,434.3,401.3,432,403.7,431.8
		L403.7,431.8z"/>
	<path d="M755.5,438.8c-4.3,0.7-8.6,0.1-12.6-1.2c-4.6-1.5-9.2-2.1-14-2.5c0.2-1.6,2-0.9,2.6-1.8c0.5-0.8-0.4-1.9,0.6-2.6
		c1.1,0.6-0.2,1.9,0.7,2.5c1.9,0.9,2.1-0.7,2.5-1.8c1.4,0.4,0,1.6,1.6,2.3c1.4-0.1,3.3,0.8,5.2,1.7c3.2,1.5,6.6,1.9,10,2.2
		C753.3,437.6,754.8,437.3,755.5,438.8L755.5,438.8z"/>
	<path d="M442.6,450c-7.7,2.9-15.4,5.7-20.7,13.2c0.1-3,1.4-4.7,3.2-6.3c4-3.5,8.8-5.5,13.8-7.3c2.6-0.9,4.9-2.8,8.3-2.7
		C446,448.8,444.4,449.4,442.6,450L442.6,450z"/>
	<path d="M751.2,461.3c-0.2-2.6,1.1-4.3,2.8-5.8c3.3-3,7.3-4.9,11.4-6.5c3.4-1.3,6.6-3,10.7-4c-1.8,2.6-1.9,2.5-4.3,3.3
		c-4.9,1.8-9.8,3.8-14.2,6.7C755.2,456.6,752.8,458.5,751.2,461.3z"/>
	<path d="M725.9,470.5c-2.4-0.4-3.5-1.7-4.6-2.9c-2.8-2.9-5.5-5.9-8.2-8.9c-3.3-3.8-6.6-7.4-12-8.9c1.6-1.2,2.6-0.8,3.7-0.3
		c2.5,1.1,4.7,2.7,6.6,4.8C716,459.4,720.8,464.7,725.9,470.5z"/>
	<path d="M790.7,662c-3-0.3-5.7-0.1-8-1.9c2.4-1.7,9.9-1.2,12.9,0.7c-0.3,1.5-2,1.1-2.9,1.8c-0.6,0.8,0.3,1.8-0.4,2.7
		c-2.6,0.7-4.2,0.4-7.2-1.7C786.9,662.9,788.9,663.7,790.7,662z"/>
	<path d="M456.2,665.2c1.6-0.9,3.6,0.3,5.1-1.5c-2.6-0.6-5.5,0.1-7.5-2.3c2.9-1.3,10.1-0.7,12.8,1c-0.4,1.7-2.3,0.9-3.1,1.9
		c0.1,3.2-0.4,3.6-3.3,2.8C458.5,666.7,457.8,666.4,456.2,665.2z"/>
	<path d="M799.3,652.5c-6.3,1.3-12,0.5-17.9-0.7c0.5-2,1.8-2,3.1-2.1C789,649.2,797,650.6,799.3,652.5z"/>
	<path d="M452.1,653.3c2.9-2.8,14.1-2.4,18.3,0.8C463.8,655.3,458.1,654.6,452.1,653.3z"/>
	<path d="M371.6,451.3c2.1-1.4,3.3-0.8,4.5-0.3c2.3,1.1,4.3,2.5,6,4.4c4.8,5.3,9.5,10.6,14.5,16.2c-2,0.1-2.9-1.1-3.9-2.1
		c-3.1-3.3-6.2-6.6-9.2-10C380.4,456,377.3,452.5,371.6,451.3z"/>
	<path d="M466.2,644.1c-3.6-1-7.2-1.1-10.8-1.1c-0.8,0-1.6,0.3-2.2-0.7c0-1.7,1.4-2.3,2.6-2.2c4.7,0.3,9.5-0.1,14,2.3
		c-0.9,2-2.5,1.3-3.6,1.6V644.1z"/>
	<path d="M802.7,443.4c-3-0.2-5.5-1.4-8.2-0.5c3.9,0.5,7,3.5,11.1,3.9c1.9,0.2,3.1,2.3,4.3,3.8c-7.7-3.4-15-7.7-23.5-8.3
		C791.2,440.3,797.2,440.6,802.7,443.4z"/>
	<path d="M379.6,441c6.1,0.9,20.1,11.5,24,18C395.7,452.4,388.5,445.6,379.6,441z"/>
	<path d="M426,468.8c-5.1,2.3-5.6,7.1-6.6,11.6c-0.3,1.4-0.7,2.8-1.2,4.1c-0.5,1.3-1.3,2.2-3.1,1.9c2.4-4.3,2.7-9.1,4.6-13.4
		C421.1,470,423.3,469.4,426,468.8z"/>
	<path d="M453,657.5c5-2.7,9.7,0,14.9-0.8C465.3,660,456.5,660.2,453,657.5z"/>
	<path d="M708.8,439.2c8.9,3.2,15.8,9.2,22.1,16C723.5,449.8,716.8,443.6,708.8,439.2z"/>
	<path d="M781.9,655.8c5.4-2.2,10.1-0.3,15.5-0.2C793.6,658.4,785.5,658.5,781.9,655.8z"/>
	<path d="M712.5,277.6c-1.8-5-3.7-9.9-5.8-14.9C710.8,264.6,714.6,273.9,712.5,277.6z"/>
	<path d="M799.8,319.2c3.6-6.1,3.8-12.5,5.5-19C807.5,304.1,804.2,315.6,799.8,319.2z"/>
	<path d="M774.7,684.8c3.7-3.2,7.9-4.6,12.7-2.8c3.7,1.3,7.4,2.4,11.4,3.2c-0.5,1.2-1.2,0.7-1.8,0.6c-2-0.2-4-0.7-5.9-1.5
		c-5-2-9.9-2.5-14.8,0.3C775.9,684.8,775.2,684.6,774.7,684.8L774.7,684.8z"/>
	<path d="M813.4,468.1c-0.7-7.8-5.2-13.4-10.1-18.9C809.7,451.7,815.8,463.2,813.4,468.1z"/>
	<path d="M446.2,686.5c-0.2-1.7,1.2-1.9,2.2-2.3c3.6-1.3,7-2.3,11-0.5c3.2,1.5,6.8,2.3,10.3,3.3c-2.5,0.5-4.9-0.1-7.1-1.1
		C457,683.5,451.5,683.7,446.2,686.5L446.2,686.5z"/>
	<path d="M741.9,647.6c9.4-0.5,18.7,0.6,28-0.2C760.6,649.1,751.2,648.1,741.9,647.6z"/>
	<path d="M440.8,650.1c-3.9,0-7.8,0-11.7,0c-5.4,0-10.8,0-16.2,0c0-0.5,0-0.9,0-1.4c9.3-0.2,18.6,1.3,27.9-0.4
		C440.9,648.9,440.9,649.5,440.8,650.1z"/>
	<path d="M686,503.5c4.5-3,8.1-6.8,11-11.5C698,496,692.6,501.7,686,503.5z"/>
	<path d="M357.1,504.9c4.6-2.9,8-6.9,11.1-11.6C368.4,498.1,363.2,503.5,357.1,504.9z"/>
	<path d="M390.7,460.7c-5.3-5.2-10.7-10.3-16.7-14.7c6.6,3.6,12.5,8.2,16.9,14.5L390.7,460.7z"/>
	<path d="M799.8,512c0.3-2.7-1-5.1-1.5-7.6c-0.8-3.5-0.1-4.3,3.8-4.9c-0.2,1.5-2.1,1-2.5,2.7c-0.1,1.5,0.8,3.3,1.3,5.1
		C801.4,509,801.5,510.7,799.8,512L799.8,512z"/>
	<path d="M718.6,360.5c-0.7-4.5,1.4-10.7,4.6-13C721.7,351.9,720.1,356.2,718.6,360.5z"/>
	<path d="M723.9,473.3c4.8,2.9,8.9,6.5,11.9,11.4C731.9,480.9,727.1,477.9,723.9,473.3L723.9,473.3z"/>
	<path d="M417.2,311.6c-3.9-1.9-5.2-7.2-2.5-11.8c0.1,4.1,0.7,8,2.6,11.6L417.2,311.6z"/>
	<path d="M470.8,513.3c0.2-2.7-1-4.9-1.6-7.3c-0.8-3.4-0.1-4.4,3.8-4.9c-0.1,0.7-0.6,0.9-1.1,1.2c-0.6,0.2-1,0.5-1.4,1.3
		C470.1,506.7,473.7,509.9,470.8,513.3z"/>
	<path d="M818.3,272.5c0.6-4.9,2-9.5,5-13.6c-1.4,4.7-2.7,9.3-4.1,14C818.9,272.7,818.6,272.6,818.3,272.5z"/>
	<path d="M406.7,486.8c-3.6-4-7.2-8-9.6-10.7c3,2,7.1,5.5,10.3,10C407.1,486.4,406.9,486.6,406.7,486.8z"/>
	<path d="M479.8,374.4c-1.7-0.5-2.3-2-1.9-2.9c1.3-3.1-0.2-6.3,0.3-9.3c0.1-0.3,0.3-0.6,0.7-1.3C480.8,365.6,479,370,479.8,374.4z"
		/>
	<path d="M447.7,451.7c2.5-4.6,7-4.9,11.6-4.9C455.5,448.6,451,448.7,447.7,451.7z"/>
	<path d="M809.1,302.7c3.4,1.5,6.8,3,8.7,6.8c-3.1-1.8-6.3-3.7-9.4-5.5C808.6,303.6,808.9,303.1,809.1,302.7z"/>
	<path d="M442.9,287.7c-2,3.8-4.1,7.5-6.1,11.3c-0.4-0.2-0.7-0.4-1.1-0.6c1.7-4,3.5-7.9,6.4-11.3
		C442.4,287.3,442.6,287.5,442.9,287.7z"/>
	<path d="M808.6,372.8c-1.3-0.6-2-1.7-1.7-2.7c1.1-3.1,0.1-6.1,0.1-9.1c0-0.7,0.4-1.1,1.2-1.2C809.4,364,808.5,368.3,808.6,372.8z"
		/>
	<path d="M788.8,445.3c-4.4,1.8-8.8,1.9-12.2,5.7C777.7,446.7,782,444.8,788.8,445.3z"/>
	<path d="M676.9,519.6c0.9-4.7,2.5-9.1,4.5-13.5C681.2,511,679.1,515.3,676.9,519.6z"/>
	<path d="M772,286.1c-2.1,3.8-4.2,7.6-6.2,11.4c-0.4-0.2-0.7-0.4-1.1-0.6c1.8-4,3.5-8,6.4-11.3C771.4,285.8,771.7,286,772,286.1z"/>
	<path d="M428.7,643.6c4.6,0,9.2,0,13.8,0c0,0.3,0,0.6,0,0.9C437.8,645.4,433.3,644.5,428.7,643.6z"/>
	<path d="M352.8,507.8c-0.7,4.6-2.6,8.8-4.5,13c-0.3-0.1-0.5-0.2-0.8-0.3c1.5-4.3,2.9-8.7,4.4-13
		C352.2,507.6,352.5,507.7,352.8,507.8z"/>
	<path d="M718.5,296.7c-1.7-3.6-3.1-6.6-4.5-9.6C717.8,288.9,719.7,292.3,718.5,296.7z"/>
	<path d="M771.5,642.9c-4.6,0.9-9.1,0.1-13.6-0.9c4.5,0,9.1,0,13.6,0C771.6,642.4,771.5,642.7,771.5,642.9z"/>
	<path d="M499.6,246.2c0.7,3.1-0.3,5.9-3.3,9.5C496.9,252.4,497.7,249.1,499.6,246.2z"/>
	<path d="M820.6,165.7c0.9,4.3,1.7,8.6,2.6,13.2c-2.1-2.1-3.6-8-3.4-13.1C820.1,165.8,820.4,165.8,820.6,165.7z"/>
	<path d="M513.7,217.1c-0.9,2.2-2.4,4.1-4.5,5.9c1.4-5.7,4.7-8.2,10.6-8.9C518.1,216.2,515.7,216.1,513.7,217.1z"/>
	<path d="M475.7,493.3c4.2-2.1,5.5-7.1,9.7-9.2C482.3,487.2,481.2,492.4,475.7,493.3z"/>
	<path d="M702,202.6c0.4,4-2.5,6.9-3.4,10.4C697,208.6,700.9,206.1,702,202.6z"/>
	<path d="M342.5,538.4c1.8,3.9-0.9,7.3-2.1,10.8c0.3-3.6,0.7-7.2,1-10.8C341.7,538.4,342.1,538.4,342.5,538.4z"/>
	<path d="M346.7,613.4c-1.5-5.1-0.8-10,0.9-14.8C346.6,603.5,346.2,608.4,346.7,613.4z"/>
	<path d="M804.6,491.5c4.4-1.9,5.7-6.8,9.4-9.2C813.5,485.6,808.1,491.3,804.6,491.5z"/>
	<path d="M338.1,484.1c1.7-3.4,4.5-5.5,7.1-7.1C343,479.1,340.6,481.6,338.1,484.1z"/>
	<path d="M346.2,633.1c1.4-4,0.3-8.1,0.6-12.1C348.7,625.1,348.3,629.1,346.2,633.1z"/>
	<path d="M811.2,289c1.7-2.6,1.2-6,3-8.7C816.2,282.9,814.8,286.5,811.2,289L811.2,289z"/>
	<path d="M768.1,453.8c3.5-1,7.1-1.4,10.7-1c0,0.3,0.1,0.5,0.1,0.8c-3.5,0.4-6.9,0.8-10.4,1.1C768.1,454.6,768,454.1,768.1,453.8
		L768.1,453.8L768.1,453.8z"/>
	<path d="M677,596.7c-1.3,5-1.7,10-0.9,15.1C674.2,609.2,674.7,600.3,677,596.7z"/>
	<path d="M449.1,387.1c-1.9-4.2-2.6-9-5.9-12.4C447.6,377.6,448.5,381.1,449.1,387.1z"/>
	<path d="M670,545.7c0-2.9,0-5.8,0-9.1C672.9,538.6,672.7,541.6,670,545.7L670,545.7z"/>
	<path d="M438.8,454.8c3.7,0.3,7.4-1.4,11.2,0.2c-3.4,0.4-6.7,0.8-10.1,1.2C438.8,456.3,439,455.3,438.8,454.8L438.8,454.8z"/>
	<path d="M675.9,619.5c1.5,4.1,1.9,8.2-0.8,12C676.6,627.6,675.6,623.5,675.9,619.5z"/>
	<path d="M667.2,482.8c1.2-3.2,4.3-6,6.2-6.6C672,477.6,669.6,480.2,667.2,482.8z"/>
	<path d="M772.5,373c2.2,1.2,3.4,3.3,4.3,5.5c0.9,2.2,1.4,4.6,1.6,7.1C776.6,381.3,775,376.9,772.5,373L772.5,373z"/>
	<path d="M703.5,444.2c4.1,2.3,7.6,5.4,11.1,8.5c-0.2,0.2-0.3,0.4-0.5,0.6c-3.7-2.9-7.4-5.7-11.1-8.6
		C703.2,444.5,703.4,444.4,703.5,444.2z"/>
	<path d="M786.3,129.4c3.5-2,6.9-2.3,10.2,0.4C793.1,130.2,789.7,128.4,786.3,129.4L786.3,129.4z"/>
	<path d="M393.2,356.3c0.9-2.8,1.8-5.5,2.7-8.4C397.8,350.3,397.8,350.3,393.2,356.3z"/>
	<path d="M411.7,481.7c0.1-4-1.9-8.1,0.3-12.1C411,473.7,413.1,477.7,411.7,481.7z"/>
	<path d="M507.1,296.2c-2,2.9-3.9,5.8-6.1,9C501.3,301.8,503.5,298.2,507.1,296.2z"/>
	<path d="M394.2,364.9c-0.3-1.6-1.1-2-3.1-0.7c1.4-2.4-1.5-3.7-0.5-6.2C392.7,360.1,394.3,362.1,394.2,364.9z"/>
	<path d="M811.1,288.9c-0.2,3.1-1.7,6-1.5,9.5C807.4,296.3,808.3,291.7,811.1,288.9L811.1,288.9z"/>
	<path d="M477.4,352.4c1.5,2.3,0.9,4.9,1.4,7.5C476.1,357.7,475.7,355.6,477.4,352.4z"/>
	<path d="M500.4,229.7c-0.2-3,0.7-5.6,3-7.6C502.9,224.8,502.6,227.6,500.4,229.7z"/>
	<path d="M807.6,358.7c-2.6-3.7-2.7-5.1-0.9-7.8C807.7,353.3,807.8,355.7,807.6,358.7z"/>
	<path d="M430,303.8c-1.4-1.4-3.9-1.5-4.4-4c-0.1-0.7-0.4-1.3,0.3-2.2c2.1,1.5,3.5,3.5,4.3,5.9C430.2,303.6,430.1,303.7,430,303.8z"
		/>
	<path d="M716.2,302.7c1.3-2.4,3.4-3.4,3.2-5.6c1.4-0.3,2,0.6,1.9,1.5C721.1,301.1,719.1,301.9,716.2,302.7z"/>
	<path d="M740.9,480.1c-0.3-3.6-1.2-7.1-0.2-10.7C740.3,473,742.1,476.6,740.9,480.1z"/>
	<path d="M668.3,558.9c-1.3-2.5-1.6-5-0.3-8.3C669.3,553.8,669,556.3,668.3,558.9z"/>
	<path d="M724,335.2c1.6,3,1.5,5.8-0.5,8.5C723.7,340.9,723.9,338,724,335.2z"/>
	<path d="M479.8,302.4c2.9-1.4,4.1-0.6,5.8,3.8C483.4,304.9,481.4,304.3,479.8,302.4z"/>
	<path d="M761.6,361.4c-3.1-1.6-4.9-4.4-6.5-7.2c0.2-0.2,0.4-0.3,0.6-0.5C757.7,356.2,759.7,358.8,761.6,361.4z"/>
	<path d="M339,552.9c1,2.5,1.1,5,0.2,7.5C337.9,558,338.2,555.5,339,552.9z"/>
	<path d="M657.7,491.3c3.1-2.9,5-2.8,8.6,0.2C663.6,490.3,660.9,490.5,657.7,491.3z"/>
	<path d="M762.5,465.8c1.2-3.3,3.9-4.5,7.1-5C767,462.2,764.8,464,762.5,465.8z"/>
	<path d="M433.4,467.3c1.3-3.3,4-4.6,7.2-5.1C438.1,463.7,435.8,465.5,433.4,467.3z"/>
	<path d="M336.6,492.7c-2.5-0.7-4.9-0.8-7.7,0.4C331.2,490,333.4,490,336.6,492.7z"/>
	<path d="M818.2,211.7c-2.2-2-2.7-4.8-3.4-8.1C817,206.3,817.6,209,818.2,211.7z"/>
	<path d="M426.7,355.2c2,2.6,3.9,5.3,5.9,7.9c-3.1-1.7-4.9-4.5-6.5-7.4C426.3,355.5,426.5,355.3,426.7,355.2z"/>
	<path d="M503.1,289.3c-0.9-2.8,0-5.5,0.6-8.3C504.4,283.9,504.4,286.6,503.1,289.3z"/>
	<path d="M742.8,455c0.3,3-0.5,5.7-1.6,8.4C740.8,460.4,741.6,457.6,742.8,455z"/>
	<path d="M697,508.5c-2.3,1.5-4.6,2.9-7.4,3C691.7,509.5,694.4,509.2,697,508.5z"/>
	<path d="M413.6,456.5c0.4,3.1-0.4,6-1.7,8.8C411.9,462.2,412.3,459.3,413.6,456.5z"/>
	<path d="M731.9,463.6c2.9,0.6,5.2,2.1,7.4,4C736.4,467.1,734.1,465.5,731.9,463.6z"/>
	<path d="M788.7,356.1c2.8-1.3,5.5-2.7,7.2-5.4C795.2,354.6,791.8,355.2,788.7,356.1z"/>
	<path d="M402.2,465c3.3,0.2,5.5,2.3,7.9,4.2C407.2,468.2,404.4,467.1,402.2,465L402.2,465z"/>
	<path d="M477.1,495.5c-1.3,1.7,0.7,4.6-2.2,6.2C474.9,499.2,474.6,497,477.1,495.5z"/>
	<path d="M492.1,310.2c-1.4-2.7-2.6-5.1-4.1-7.8C490.9,304.3,491.6,305.7,492.1,310.2z"/>
	<path d="M494,303.1c1.7,2,2.8,4.2,2.8,7.7C495.1,308,494.6,305.5,494,303.1z"/>
	<path d="M803.7,500.2c0.6-2.3-0.4-4.9,2.4-6.1C804.8,495.8,807,498.8,803.7,500.2z"/>
	<path d="M394.4,345.2c0.2-2.7,0.5-5.5,0.7-8.4C396.4,339.9,396.4,342.3,394.4,345.2z"/>
	<path d="M817.8,222.9c-1-2.3,0.9-4.5-0.2-6.8C819.5,218.4,818.5,220.6,817.8,222.9z"/>
	<path d="M732.5,357.7c-2.8-0.8-3.6-3.7-5.7-5.3C729.6,353.2,730.4,356.3,732.5,357.7z"/>
	<path d="M666.8,506.3c-0.2,2.5-1.8,4.1-3.2,5.8C663.1,509.4,665.5,508.1,666.8,506.3z"/>
	<path d="M748.6,464.5c-1.1,3.3-2.7,4.7-5.5,5C744.7,468,746.3,466.5,748.6,464.5z"/>
	<path d="M752.2,384.1c0.2,2.7-0.8,5.3-0.8,8C751.3,389.4,750.4,386.6,752.2,384.1z"/>
	<path d="M733.9,477c-2.2-1.3-4.3-2.6-6.5-3.9C730.1,473.3,732.5,474.3,733.9,477z"/>
	<path d="M825.3,305.9c-1-2.5-2.1-5-3-7.7C824.4,300.4,825.5,302.9,825.3,305.9z"/>
	<path d="M414.2,492.3c-0.7-2.4-2.4-4.4-2.5-7.6C413.2,487.6,414.7,489.6,414.2,492.3z"/>
	<path d="M360.6,513.2c1.7-2.2,4.4-2,6.6-3C365.3,511.9,363,512.8,360.6,513.2z"/>
	<path d="M334.5,513.6c-0.3-2.4,1.4-3.7,3-5.2C337.3,510.6,335.7,512,334.5,513.6z"/>
	<path d="M799.6,121.4c0.8,2.5-1.7,3.9-1.7,6.1C795.8,124.8,799.9,123.7,799.6,121.4z"/>
	<path d="M422.1,391.8c-0.5-2.2-0.1-4.3,0.7-6.3C423.3,387.7,423,389.8,422.1,391.8z"/>
	<path d="M413.5,471.4c2.1-1.9,3.7-3.3,5.3-4.8c0.2,0.2,0.3,0.4,0.5,0.5C418.2,469.1,416.9,470.9,413.5,471.4z"/>
	<path d="M434.2,291.8c-1.9-0.5-3-1.7-3.7-4C432.9,288.4,433.6,289.9,434.2,291.8z"/>
	<path d="M760.5,424.3c1.9-1.5,4.1-2.2,6.4-2.4C764.9,423.1,762.8,423.9,760.5,424.3z"/>
	<path d="M438.9,454.7c-1.6,1.4-3.1,2.9-4.7,4.3c0.8-2.7,2.8-4.1,5.5-6.2C439.2,454,439,454.4,438.9,454.7L438.9,454.7z"/>
	<path d="M703,194.8c-0.3,1.8-0.5,3.6-0.9,5.9c-1.8-2.5-0.9-4.2,0-5.9C702.4,194.8,702.7,194.8,703,194.8z"/>
	<path d="M503.4,273.2c-1.6-1.6-3.4-3.1-3.2-5.6C501.2,269.5,502.3,271.4,503.4,273.2z"/>
	<path d="M743.2,491.1c-0.8-2-1.5-4.1-2.3-6.1C742.8,486.6,743.6,488.7,743.2,491.1z"/>
	<path d="M422.6,442.6c-2.1,0.4-4.3-0.9-6.5,0C418.3,441.4,420.4,442.1,422.6,442.6z"/>
	<path d="M759.9,286.2c2,0.6,2.7,2.2,3.9,3.8C761,289.5,760.8,289.3,759.9,286.2z"/>
	<path d="M399.9,475.1c2.1,0.2,3.9,1.1,5.7,3.5C403,477.8,401.6,476.3,399.9,475.1z"/>
	<path d="M679.8,630.6c-1.5-1.5-1.3-3-0.9-4.9C680.6,627.3,680.3,628.7,679.8,630.6z"/>
	<path d="M829.7,219.2c-1.6-1.2-1.1-3.1-1.5-4.8C829.7,215.7,829,217.6,829.7,219.2z"/>
	<path d="M729.5,280.2c0.4-1.8,0.5-3.7,2.5-5.5C732.1,277.5,730.4,278.7,729.5,280.2z"/>
	<path d="M699.9,243c0.6,2,0.1,3.5-0.6,5.8C698.2,246.3,698.8,244.8,699.9,243z"/>
	<path d="M408.1,643.7c2.8-0.5,4.8-1.2,7.6-0.9C413,643.4,411.1,644.5,408.1,643.7z"/>
	<path d="M462.6,356.7c0.8-2.2,3.6-2.5,4.3-4.7C466.5,354.6,465.1,356.2,462.6,356.7L462.6,356.7z"/>
	<path d="M745.4,441.2c2.1-1.6,4.3-0.4,6.4-0.1C749.6,441.4,747.5,440.5,745.4,441.2L745.4,441.2z"/>
	<path d="M349.9,619.8c1,1.3,1.3,2.7,0.5,4.4C349,622.8,349.4,621.3,349.9,619.8z"/>
	<path d="M471.9,359.1c0.6-1.7,1.8-2.7,3.4-4C475.4,357.8,473.2,358.1,471.9,359.1z"/>
	<path d="M768.1,453.8L768.1,453.8c-0.6,0.1-1.1,0.3-1.7,0.4c-0.2,0.1-0.4,0.1-0.6,0.2c0.1-0.2,0.1-0.4,0.2-0.6
		c1.2-1.6,2.9-2.6,4.5-3.8C770.1,451.6,768.2,452.1,768.1,453.8z"/>
	<path d="M324.6,534.9c2.2,1.8,1.1,3.5,1.6,5C324.5,538.6,325.2,536.9,324.6,534.9z"/>
	<path d="M420.5,357.6c-0.5,1.7-2,2.4-3.3,3.3C417.8,359.3,419,358.4,420.5,357.6z"/>
	<path d="M473,342.8c0.5,2-1,2.9-2.5,4.5C470.6,344.8,471.7,343.7,473,342.8L473,342.8z"/>
	<path d="M818.8,243.6c0.6,1.6,0.2,3.1-0.2,4.6C817.9,246.6,818.5,245.1,818.8,243.6z"/>
	<path d="M340.3,569.2c1.7,1.5,0.9,3.1,1.4,4.3C340.3,572.6,339.5,571.4,340.3,569.2z"/>
	<path d="M744.8,641.4c-2.8,0.5-4.6,1.5-7.3,0.9C740.1,641.6,741.9,640.9,744.8,641.4z"/>
	<path d="M655.5,538.4c-1.9-1.2-0.8-3.1-1.4-4.6C655.8,535.1,654.5,537,655.5,538.4z"/>
	<path d="M678.8,618.4c1.5,1.2,1.3,2.6,0.9,4.6C678,621.3,678.9,619.7,678.8,618.4z"/>
	<path d="M804.9,353.4c-0.6,2.4-1.9,3.2-3.6,4.2C801.6,355.4,803,354.7,804.9,353.4z"/>
	<path d="M704.6,274.7c1.6,1,1.9,2.3,2.5,3.5C705.5,277.2,705.5,277.2,704.6,274.7z"/>
	<path d="M399.2,331c1.6,1.6,1.4,2.9,1.3,4.2C399.5,334.2,398.8,333.1,399.2,331z"/>
	<path d="M350.5,631.7c-0.7-1.3-1.2-2.7-0.2-4.4C350.9,629,351.9,630.3,350.5,631.7z"/>
	<path d="M351,475.4c-0.9,1-1.8,2.1-3.6,1.5C348.2,475.2,349.7,475.6,351,475.4z"/>
	<path d="M786.2,129.3c-1.2,1.2-2.4,2.5-4.4,2.8C783.1,130.9,784.1,129.2,786.2,129.3L786.2,129.3z"/>
	<path d="M669.4,568.3c1.3,0.9,1.4,2.1,1.2,3.5C668.9,570.9,669,569.6,669.4,568.3z"/>
	<path d="M709.7,313.3c0.4-2.1,1.2-3.2,3.1-4.1C712.2,311,711.5,312.1,709.7,313.3z"/>
	<path d="M720.1,204.9c0.4,1.4,0.7,2.8-1,4.1C718.4,207.2,719.5,206.1,720.1,204.9z"/>
	<path d="M709.3,299.4c1.3-1.1,2.6-2.4,4.7-2.2C712.7,298.9,710.8,298.8,709.3,299.4z"/>
	<path d="M432.4,425.5c1.3-1.8,3.4-1.7,5.2-2.1C436,424.5,434.4,425.5,432.4,425.5L432.4,425.5z"/>
	<path d="M780.2,392.9c-1.2-1.4-1.2-2.7-1.9-4.3C780.2,390.3,780.2,390.3,780.2,392.9z"/>
	<path d="M711.9,307.7c0.1-1.5,0.7-2.6,2.4-3.5C714.2,306.2,712.8,306.8,711.9,307.7z"/>
	<path d="M801.7,341.2c0.9,2.1-0.7,2.9-2.2,4.6C799.6,343.4,800.7,342.4,801.7,341.2L801.7,341.2z"/>
	<path d="M805.4,131.4c-0.8,1-1.8,1.6-3.4,2.2C802.8,131.6,804,131.3,805.4,131.4z"/>
	<path d="M501.9,237c0.1,1.5-0.6,2.6-1.8,3.4C500.2,239,500.8,237.9,501.9,237z"/>
	<path d="M717.6,456.4c1.5,0.8,2.5,2,3.1,3.6C719.3,459,718.1,458,717.6,456.4z"/>
	<path d="M723.7,322.3c-0.3-1.4-2.2-2.5,0-4.9C723.7,319.5,723.7,320.9,723.7,322.3L723.7,322.3z"/>
	<path d="M746.6,359.1c0.6-1.4,1.5-2.6,3.4-3.4C749.3,357.8,747.8,358.3,746.6,359.1z"/>
	<path d="M738.3,476.5c-1.5-0.1-2.8-0.6-4.4-2.2C736.1,474.6,737.2,475.6,738.3,476.5z"/>
	<path d="M723.3,374.1c-1.5,0.1-2.5-0.8-3.8-2.5C721.6,372,722.4,373.1,723.3,374.1z"/>
	<path d="M465.4,330.6c-0.4,1.9-1.4,2.3-2.9,2.7C463.1,331.9,463.9,331.3,465.4,330.6z"/>
	<path d="M679.8,615.7c-1.1-1.1-1.5-1.9-0.6-3.1C680.3,613.4,680.3,614.3,679.8,615.7z"/>
	<path d="M717.1,366.2c0.3,1,0.2,2-0.2,2.9c-1-0.2-0.8-0.9-0.8-1.6C716.1,366.9,716.4,366.4,717.1,366.2z"/>
	<path d="M394.2,375.7c-1.9-0.6-1.9-0.6-3.1-2.1C392.9,374.3,392.9,374.3,394.2,375.7z"/>
	<path d="M726.4,349.3c-1.8-1.4-1.8-1.4-0.8-2.8C726.5,347.3,725.8,348.4,726.4,349.3z"/>
	<path d="M702.3,254.8c-1.3-0.9-1.4-2-1.4-3.3C702.5,252.2,702.5,253.3,702.3,254.8z"/>
	<path d="M766.4,454.2c-0.8,1.3-1.9,2.3-3.3,3.1c0.4-1.6,1.6-2.6,2.9-3.5C766.1,453.9,766.2,454.1,766.4,454.2z"/>
	<path d="M481.1,471.9c-0.7-1-1.5-2-2.2-2.9C480.5,469.3,481.3,470.2,481.1,471.9z"/>
	<path d="M680.1,473.9c-0.9,1.1-2,1.9-3.7,1.5C677.3,473.7,678.7,473.9,680.1,473.9z"/>
	<path d="M721.3,198.9c-0.5-1.6,0.1-2.4,0.7-3.6C722.6,196.8,722.4,197.8,721.3,198.9z"/>
	<path d="M463.4,367.3c0.2-1.6,1.1-1.5,2.2-1.6C465.3,367,464.3,366.9,463.4,367.3z"/>
	<path d="M729.2,332.9c-1-1.1-1.6-1.9-0.7-3C730,330.6,729.7,331.6,729.2,332.9z"/>
	<path d="M771.7,295.4c1.1-0.9,1.8-2.6,3.7-1.9v-0.1c-0.6,1.7-0.9,3.7-3.5,2.3C771.8,295.6,771.8,295.5,771.7,295.4z"/>
	<path d="M423.8,288.6c-1.1,0-2.1-0.4-2.7-1.8C422.6,286.9,423.1,287.9,423.8,288.6z"/>
	<path d="M730.5,420.1c1.2,0.9,1.4,2,1.2,4C730.9,422.4,730.3,421.5,730.5,420.1z"/>
	<path d="M449.6,390.1c1.6,1,1.6,2.2,1.3,4C450.1,392.7,449.5,391.7,449.6,390.1z"/>
	<path d="M798.6,374.2c1-1.5,2-1.9,3.3-2.4C801.4,373.4,800.4,373.8,798.6,374.2z"/>
	<path d="M729.5,370c-1.8,0.3-2.5-0.7-3.5-1.8C727.8,368,728.5,368.9,729.5,370z"/>
	<path d="M469.5,375.8c1.1-1.5,2-2.1,3.4-2.5C472.4,375,471.4,375.3,469.5,375.8z"/>
	<path d="M461,223.8c0.9-0.6,1.7-1.3,3.2-0.7C463.2,224.4,462.2,224.4,461,223.8z"/>
	<path d="M390.9,460.4c1.1,0.7,1.8,1.8,2.3,3c-1.2-0.6-2-1.5-2.5-2.8L390.9,460.4z"/>
	<path d="M796.9,136.5c-0.1,1.3-0.6,2.2-2,2.7C794.6,137.3,796,137.1,796.9,136.5z"/>
	<path d="M475.2,488.9c-0.8-0.5-1.4-0.9-1.6-2.4C474.9,487.1,475.6,487.5,475.2,488.9z"/>
	<path d="M668.1,560.3c0.8,0.8,0.6,1.5-0.3,2.3c-0.9-0.1-0.7-0.8-0.7-1.3C667.2,560.8,667.4,560.3,668.1,560.3z"/>
	<path d="M804.2,487.4c-0.9-0.4-1.3-1-1.5-1.9c0.7-0.5,1.1,0,1.4,0.4C804.5,486.3,804.8,486.7,804.2,487.4z"/>
	<path d="M338.8,564.5c-1-1-1-1.8,0.1-2.8C339.7,562.7,339.4,563.5,338.8,564.5z"/>
	<path d="M507.5,225.6c0,1.1-0.8,1.7-1.4,2.3c-0.2-0.2-0.4-0.3-0.4-0.4C505.9,226.6,506.1,225.8,507.5,225.6z"/>
	<path fill="#FFFFFF" d="M716,531.3c-0.4,0-0.9,0-1.4,0c0.3-1.1,1-1.3,1.7-1.5C717,530.5,716.6,530.9,716,531.3z"/>
	<path d="M474.1,370.5c0.9-1.6,1.6-2.2,2.8-2.9C476.6,369.3,475.8,369.7,474.1,370.5z"/>
	<path d="M724,362.5c-1.6-0.3-1.5-1.3-2-2C723.3,360.3,723.2,361.5,724,362.5z"/>
	<path d="M397.4,369.8c1.2,0.1,2.1,0.5,2.8,1.9C398.6,371.7,397.9,370.9,397.4,369.8z"/>
	<path d="M462.5,356.7c-0.9,0.7-1.8,1.1-3.6,1.3C460.3,356.4,461.4,356.5,462.5,356.7L462.5,356.7z"/>
	<path d="M403.9,359.7c-1.8-0.4-2.6-1-3.1-2.4C402.2,357.6,403,358.2,403.9,359.7z"/>
	<path d="M400.3,356c-1.6-0.4-2.2-1.1-2.8-2.3C398.9,354,399.5,354.7,400.3,356z"/>
	<path d="M806.1,365.9c-0.3,1.7-1.1,2.2-2.6,2.8C804,367.3,804.8,366.7,806.1,365.9z"/>
	<path d="M497.8,313.8c-0.4-1.2-0.1-1.9,0.9-2.9C498.9,312.2,498.7,312.9,497.8,313.8z"/>
	<path d="M490.3,311.9c-1.3-0.7-2.1-1.1-2.2-2.5C489.2,309.7,489.8,310.4,490.3,311.9z"/>
	<path d="M350.6,617.3c-1-1.2-1-2.1-0.5-3.2C350.9,615.1,351.3,615.9,350.6,617.3z"/>
	<path d="M399.9,648.6c-0.9-0.2-1.8-0.4-2.6-0.6C398.1,647.8,399.1,647.7,399.9,648.6L399.9,648.6z"/>
	<path d="M794.7,364.4c-0.5,1-1.4,0.8-1.9,1.4c-0.6-1,0-1.3,0.5-1.5C793.6,364.2,794,363.9,794.7,364.4z"/>
	<path d="M791.7,331.5c0.9-1.2,1.3-2.2,2.8-2.1C794.2,330.6,793.4,331.1,791.7,331.5z"/>
	<path d="M667.6,499.6c-1.1-0.3-1.1-1-1-1.8C668.2,498.1,667.7,498.8,667.6,499.6z"/>
	<path d="M751.9,405.9c0.5,1.4,0.5,2,0.2,2.7C751.6,408,752,407.3,751.9,405.9z"/>
	<path d="M800.7,288.8c1,1.2,0.3,2,0.4,3.2C800,290.7,800.6,290,800.7,288.8z"/>
	<path d="M441.6,297.8c0.5-1.1,1.5-1.5,2.6-1.8c-0.5,1-1.2,1.8-2.5,1.9L441.6,297.8z"/>
	<path d="M726.4,287.8c-0.6-1.6-0.2-2.2,0.5-2.8C728,286.2,726.8,286.7,726.4,287.8z"/>
	<path d="M401.5,422.2c1.1,0.8,1.2,1.6,1.4,2.6C401.4,424.4,401.7,423.3,401.5,422.2z"/>
	<path d="M729.8,462.1c-1,0.4-1.2-0.6-1.9-0.6C728.8,461,729.1,461.7,729.8,462.1z"/>
	<path d="M827.8,250.2c0-1.5,0.4-2.1,1.6-2.2C829.5,249.2,828.8,249.7,827.8,250.2z"/>
	<path d="M432.4,425.4c-0.2,1-1.1,0.6-1.7,0.9C430.9,425.3,431.7,425.4,432.4,425.4L432.4,425.4z"/>
	<path d="M745.3,441.1c-0.4,0.5-0.8,1-1.3,1.7C743.9,441.5,744.5,441.1,745.3,441.1L745.3,441.1z"/>
	<path d="M422.9,408.7c0,0.5,0,1,0,1.6C422.4,409.7,422.5,409.3,422.9,408.7z"/>
	<path d="M532.7,223.3c0.6,0.5,0.6,0.9,0.3,1.3C532.3,224.5,532.1,224.1,532.7,223.3z"/>
	<path d="M414.5,451.3c0.1-0.6,0.5-1,1.1-1.3c0.5,0.8-0.2,1.1-0.6,1.5C414.8,451.8,414.5,451.7,414.5,451.3z"/>
	<path d="M724.7,296.8c0.6,1.4,0.1,1.8-0.5,2.1C723.4,298.1,723.9,297.6,724.7,296.8z"/>
	<path d="M399.8,648.6c0.8,0,1.6-0.1,2.5-0.1C401.4,649.3,400.6,648.5,399.8,648.6L399.8,648.6z"/>
	<path d="M751.9,286.9c-0.7-0.2-1.3-0.5-1.6-1.4c1-0.2,1.4,0.4,1.9,1C752.4,286.7,752.3,286.8,751.9,286.9z"/>
	<path d="M726.2,646.5c0.6-0.2,1.1-0.3,1.6,0C727.3,646.5,726.8,646.5,726.2,646.5z"/>
	<path d="M710.1,283.3c1.6-0.1,1.6,0.7,1.9,1.4C710.4,285,710.9,283.9,710.1,283.3z"/>
	<path d="M503.3,233.2c-0.2-1.1,0.3-1.5,1.1-2C504.7,232.2,504.2,232.7,503.3,233.2z"/>
	<path d="M774.6,684.7c0.1,1.2-0.4,1.8-1.7,1.5C773,685,774,685.1,774.6,684.7L774.6,684.7z"/>
	<path d="M799.7,511.9c0,0.7-0.3,1.3-1,1.6C798.7,512.8,799.4,512.5,799.7,511.9L799.7,511.9z"/>
	<path d="M505.7,220.3c0.1-0.9,0.6-1.2,1.3-1.2C507.1,220,506.7,220.5,505.7,220.3z"/>
	<path d="M672.7,577.1c-1.1-0.1-1.5-0.5-1-1.4C672.5,575.7,672.8,576.1,672.7,577.1z"/>
	<path d="M674,580.2c0.8,0.3,1.1,0.7,0.8,1.4C674,581.6,673.7,581.2,674,580.2z"/>
	<path d="M442.6,450v-0.1c0.5,1-0.1,1.4-1,1.7C441.6,450.8,442.1,450.4,442.6,450z"/>
	<path d="M338.6,501.8c-1.1-1.1-1.1-1.7-1-2.2C339.2,499.6,338.4,500.5,338.6,501.8z"/>
	<path d="M408.4,477.4c-1.2,0.5-1.7-0.2-2.4-0.8C407.1,476.1,407.6,476.9,408.4,477.4z"/>
	<path d="M724,473.2c-0.6,0.1-1.1,0-1.5-0.7C723.2,472.4,723.5,472.9,724,473.2L724,473.2z"/>
	<path d="M730.5,647.1c0.3-0.2,0.6-0.2,0.9,0.1C731.1,647.3,730.8,647.4,730.5,647.1z"/>
	<path d="M722.7,462.4c0.5,0,0.6,0.4,0.8,0.8C722.9,463.2,722.6,462.9,722.7,462.4z"/>
	<path d="M743.6,142.7c-0.5-0.3-1-0.5-0.7-1.3C743.7,141.5,744,141.9,743.6,142.7z"/>
	<path d="M402.3,464.9c-0.6-0.2-1.1-0.4-1.4-1C401.6,463.9,402.1,464.1,402.3,464.9L402.3,464.9z"/>
	<path d="M493.7,263.1c0.3,0.5,0.1,0.8-0.5,1.1C492.8,263.6,493.2,263.3,493.7,263.1z"/>
	<path d="M501.6,262c-0.6-0.4-0.5-0.9-0.2-1.4C502.4,260.9,501.9,261.4,501.6,262z"/>
	<path d="M745.7,447.8c-0.2,0.3-0.5,0.7-0.8,1C744.4,448,745,447.8,745.7,447.8z"/>
	<path d="M446.1,686.4c-0.7,0.4-0.8,1.8-2.1,1.3C444.2,686.2,445.4,686.6,446.1,686.4L446.1,686.4z"/>
	<path d="M669.9,545.6c0,0.7,0,1.3,0,2C669.4,546.9,669.3,546.2,669.9,545.6L669.9,545.6z"/>
	<path d="M413.1,506.7c-0.7,0.9-1.2,0.6-1.8,0.2C411.7,505.8,412.3,506.1,413.1,506.7z"/>
	<path d="M772.6,373c-0.7-0.1-0.8-0.6-0.9-1.2C772.4,371.9,772.6,372.4,772.6,373L772.6,373z"/>
	<path d="M736.9,370.9c0.3,0.6-0.2,0.7-0.5,1C736,371.3,736.4,371.1,736.9,370.9z"/>
	<path d="M407.1,373.8c-0.2,0.2-0.4,0.5-0.6,0.7C406.1,373.9,406.7,373.7,407.1,373.8z"/>
	<path d="M746.4,499.5c0-0.3,0-0.6,0-0.9h0.1C746.5,498.9,746.5,499.2,746.4,499.5C746.4,499.5,746.4,499.5,746.4,499.5z"/>
	<path d="M723.1,363.8c0.7,0.5,1.1,0.8,1,1.4C723.4,365.3,723.2,364.8,723.1,363.8z"/>
	<path d="M402.9,506.9c-0.5,0.6-1,0.6-1,0.3C401.8,506.4,402.3,506.6,402.9,506.9z"/>
	<path d="M723.8,328.5c0.7,0.5,1,1.1,1.1,2C723.4,330.2,724.1,329.1,723.8,328.5L723.8,328.5z"/>
	<path d="M738.5,499.9c-0.4-0.3-0.7-0.7-0.2-1.2C738.9,499,738.7,499.4,738.5,499.9z"/>
	<path d="M405.9,506.9c0.7-1.4,1.2-1.4,1.8-1.1C407.7,506.9,406.9,506.5,405.9,506.9z"/>
	<path d="M728.9,503.8c-0.1-0.7,0.2-1.1,0.9-1.3C730.5,503.7,730,504,728.9,503.8z"/>
	<path d="M724.1,292.7c0-0.9,0.4-1.3,0.6-1.1C725.3,292.1,724.7,292.3,724.1,292.7z"/>
	<path d="M736.8,504.4c-0.2,0.8-0.7,0.8-1.4,0.6C735.5,503.8,736,503.8,736.8,504.4z"/>
	<path d="M740.4,505.2c0.6-0.8,1.1-0.6,1.7-0.1C741.5,506.1,741,505.8,740.4,505.2z"/>
	<path fill="#FFFFFF" d="M781.4,621.3c-1.8,3,0.4,6.6-2.2,9.8c-0.3,0.2-1.2-0.1-2.1-0.1c-0.1-0.2-0.3-0.4-0.3-0.6
		c1.1-13.2-0.9-26-5.4-38.3c-3-8.3-6-16.6-8.9-24.9c-2.5-7.2-3.1-14.7-1.6-22.2c1.4-7.1,1.6-14.2,1.6-21.3c1.1-0.5,1,1.2,2,0.9
		c0.1-1.3-0.7-2.4-1.4-3.2c-4.3-4.6-5.3-10.5-6.3-16.4c-0.3-1.9-1.1-3.6-2.2-5.2c-5.8-8.4-4-19.3,4.1-25.7c1.4-1.1,2.8-2.2,4.3-3.2
		c2.4-1.7,5-2.3,7.8-1.5c4,1.2,8.2,1.8,12.3,2.1c3.1,0.2,5.6,1.7,7.2,4.1c2.1,3.4,3.9,6.9,4.5,11.1c0.9,6.1-0.7,12.1-0.8,18.1
		c0,1.6-1.1,2.5-2.3,3.6c-1.3-3,0.2-5.5,0.4-8.1c-2,2.1-2.5,4.7-1.9,7.5c0.6,2.5,1.5,5.1-0.2,7.8c5.1,8.5,6,18.2,7.1,27.8
		c0.9,7.6,2.5,15,2.6,22.7c0,11.5-1.8,22.8-3,34.2c-0.7,6.7-1,13.3-0.5,20c0.1,1.7,0.2,3.3,0.3,5.1c-4.7,1.5-9.4-1.9-13.7,0.7
		C781.7,624.5,782.7,622.7,781.4,621.3z"/>
	<path fill="#FFFFFF" d="M654.3,636c0.6,0.2,1.1,0.3,2,0.6c-0.7-3.1-1.1-5.9-0.1-9c3.4,0.5,6.7,1.2,9.7,2.1c2,3.7-1.9,5.5-2.8,9.2
		c2.8-1.8,5-2.3,7.4-2.2c2.2,0.1,4.2,0.5,5.8,2.2c1.5,1.6,3.5,2.5,5.9,3c0.8-1,1.9-1.8,3.2-2.4c1.4-0.6,1.8-2.1,2.8-3.4
		c3.4,7.2,1.2,15.8,7.6,22.1c-6.2,3.6-11.6,7.4-18.6,8.8c0.7-3.3,2.1-5.7,4.4-7.6c-2.6-0.3-2.6-0.4-3.6,0.9c-1.7,2.1-3.8,4.1-5,6.5
		c-3.1,6.4-9.1,9-14.8,11.7c-3.7,1.7-7.9,1.7-11.9,1.9c-5,0.2-10,0-15-0.2c-1.9-0.1-4.5-0.1-4-3.3c0.8,0.3,1.6,0.1,2.4-0.3
		c3.7-1.8,7.4-2.3,10.5-0.4c-4-3.2-8.4,0.4-12.9,0.8c0-1.5,0-3.1,0-5.1c5.8-2.7,9.7-7.9,13.9-12.7c1.7,0.4,3.2,0.9,4.7,1.2
		c1.3,0.2,2.8,0.8,4.1-0.7c-2-2.3-4.7-1.1-7-1.6c0.3-1.7,1.3-2,2.9-1.6c2.4,0.6,4.9,1,7.3,1.5c1.2,0.2,2.4,0.7,3.3-1
		c-2.5-3.2-6.6-2.4-10.4-4.1c4.9-0.6,9.1,2.3,13.6,0.6c-0.5-2.8-2.6-3-4.3-3.6c-1.6-0.6-3.5-0.3-5.4-1.4c4.3-0.5,8.1,2.7,12.5,0.7
		c-1.4-3.2-4.8-2.2-6.7-4.2c3.1,0,6,0.6,8.7,1.2c1.9-0.4,1.2-3.7,3.8-2.2c-0.1-2.3-1.6-2.5-2.7-3.1c-2.6-1.2-5.4-1.9-8.2-2.3
		C655.3,638.4,654.6,637.5,654.3,636L654.3,636z"/>
	<path fill="#FFFFFF" d="M751.5,227.1c0.6,0.5,1.2,1,1.8,1.5c1.2-0.1,0.2-1.7,1.7-1.9c2.8-0.4,5.5-0.6,8.1,1
		c1.5,0.9,2.8,0.8,4.3-0.2c2.1-1.3,4.2-1.7,6.7-1c1.3,0.4,2.3,0.7,2.1,2.1c1.2,0,0.6-1.2,1.4-1.3c0.2,0.1,0.5,0.2,0.5,0.3
		c-0.4,2.1,1.5,3,2.2,4.5c3.4,6.8,5.9,13.7,5.4,21.5c-0.1,0.9-0.3,1.9-0.6,2.8c-1.2,3.9-2.1,7.8-3,11.7c-1.4,5.7-5.6,9.6-10.5,12.6
		c-1.1,0.7-2.6,0.4-3.9,0.1c-1.4-0.4-2.8-0.5-4.3-0.4c-5.7,0.2-9.2-2.2-11-7.7c-0.7-2.3-1.4-4.6-2.2-6.8c-0.3-1-0.6-2.2-1.3-2.9
		c-4.4-4.1-2.7-9.1-2.7-14c0-5.6,3.1-10.5,3.3-16c0-0.8,0.3-1.7,1-2.2C752,229.9,752.1,228.7,751.5,227.1z"/>
	<path fill="#FFFFFF" d="M885.8,582.3c0,3.1,1.8,5.6,2.9,8.3c0.7,1.6,1.5,3.2,2.2,4.9c-1.6,1.6-3.8,2.2-4.7,3.6
		c-29-1.2-57.6-2.1-86.3-4c1.1-13,2.2-25.8,3.3-38.9c4,9.3,9.6,17.5,15.8,25.4c0.8,0.8,1.9,0.6,2.9,0.6c7.4,0,14.8-0.4,22.2-1.1
		c6.1-0.6,12.2,0.6,18.2,0.6c6,0.1,11.9,0.6,17.9,0C882.1,581.6,884.1,581.5,885.8,582.3L885.8,582.3z"/>
	<path fill="#FFFFFF" d="M754.2,578.8c0.4,1.5,0.1,2.4-0.5,3.2c-1.5,0.3-3.1-0.3-4.6,0.5c1.4,0.9,3.1,0,4.4,0.7
		c1,3.7-0.2,7.1-1.5,10.4c-0.8,2-2.4,2.9-4.8,2.9c-8.1,0.1-16.2-0.7-24.3-0.9c-2.9,0-5.9-1.2-9.2-1.3c1.1-3.9,2.1-7.4,3.2-11.2
		c1.8-0.8,3.7-1.9,5.1-3.5c0.7-0.8,1.5-1,2.5-1C734.4,578.8,744.2,579.6,754.2,578.8z"/>
	<path fill="#FFFFFF" d="M734.3,118.4c-1,0.9-0.1,1.4,0,2c-1,0.1-1.5-0.4-1.8-1.5c2.2-2.8,5.5-4,8.6-5.3c9.3-3.6,18.9-5.8,28.7-7.3
		c6.7-1,13.5-1.7,20.3-1.4c2.6,0.1,5.2,0.2,7.5,1.8c0.1,1.7-1.2,2.2-2.3,3.2c-0.1-1.4,1.5-1.6,1-2.7c-0.8-0.5-1.1-0.1-1.7,0.6
		c-1.2,1.7-3.1,2.6-5,3.3c-11,4.1-22.4,6.6-34,8c-5.1,0.6-10.2,1.4-15.3,0.9C738.3,119.9,736.2,119.5,734.3,118.4z"/>
	<path fill="#FFFFFF" d="M742.9,175.6c6.1-6.2,14.4-6.5,21.2-10.2c1.2,0.7,1.2,1.8,1.4,2.9c0.7,3.2,2.1,4.7,5.4,4.5
		c4.9-0.3,9.6-1.4,13.7-4.8c-2.4-1.3-2.1-3.4-2.2-5.5c5-1.1,9.9-1.1,15.1-0.9c0.3,2.8,0.8,5.4,0.7,7.9
		C786.8,176.3,750.2,180.6,742.9,175.6z"/>
	<path fill="#FFFFFF" d="M732.7,122.9c23.1,2,44.9-2.4,65.9-12c1.5,2.3,1.3,4.2-0.9,6c-2.2,1.7-4.7,2.8-7.3,3.8
		c-14.9,5.5-30.3,8.3-46.2,8.6c-2.3,0-4.5-0.1-6.8-0.6C734.1,127.9,732.8,126.3,732.7,122.9z"/>
	<path fill="#FFFFFF" d="M772.6,139.1c2.4,0.8,2.7,2.6,3.2,4.3c1.1,4.2,1,8.5,1.9,12.7c0.7,2.9,1,5.9,2.7,8.5
		c0.7,1.2,0.6,2.5,0.7,4.1c-3.4,1.9-7.1,2.4-10.8,2.6c-1.9,0.1-2.9-1.3-3.3-3.1c-1.1-4.8-1.5-9.6-2.2-14.4c-0.3-2.2-0.7-4.5-1.2-6.9
		C767.6,145.6,771.4,143.7,772.6,139.1z"/>
	<path fill="#FFFFFF" d="M759.6,531.9c0.2,4.9-0.8,9.6-1.4,14.8c-7.1-4.7-13.1-10-18.3-16.3c-0.8-1-0.8-2.2-0.9-3.4
		c-0.2-3.5-0.2-6.9,0.5-10.2c2.2-0.8,3.5,0.4,4.9,1.6C749.2,522.9,754.1,527.5,759.6,531.9z"/>
	<path fill="#FFFFFF" d="M742.9,179c19.1,2.8,37.1-1.7,55.2-6.7c1.1,1.6,1,3.4,1,5.3c-5.5,2.3-11.3,3.6-17.1,4.9
		c-8.6,1.9-17.4,3-26.2,3.2c-2.3,0.1-4.5-0.1-6.8-0.5C744.6,184.6,743.8,183.7,742.9,179z"/>
	<path fill="#FFFFFF" d="M771.9,295.7c1.5-0.2,2.1-1.9,3.5-2.3c0.7,1,1.3,0.6,2-0.1c2.6-2.6,6-4.1,9.2-6.3
		c-3.8,14.5-21.1,30.5-29.3,28c-0.2-9.3,7.7-12.6,13-17.9C770.8,296.6,771.6,296.4,771.9,295.7z"/>
	<path fill="#FFFFFF" d="M792.3,144.9c0.4,5,6,8.3,4.3,14.4c-4.8,0.9-9.9,0.5-15,0.9c-2.2-6-3.1-12.1-3.4-18.4
		C783.1,141.8,787.6,142.4,792.3,144.9z"/>
	<path fill="#FFFFFF" d="M765.7,598.2c1.7-0.2,3.2-0.3,4.9-0.5c1.2,2.9,1.5,6,2.2,8.9c1.6,7.3,2,14.6,2.2,22c0,0.4,0.2,0.8,0.1,1
		c-2.1,2.8-0.9,5.8-0.8,8.9c-1.7-2.5-2.6-5.3-3.2-8.1c-1.2-5.2-2.5-10.4-4.7-15.3C764.1,609.8,763.9,604.2,765.7,598.2z"/>
	<path fill="#FFFFFF" d="M813.1,442.9c-2.2-2.6-1.4-6.2-3.3-9c-1.2-0.3-2.5-0.7-4.2-1.2c1.6-5.8-0.2-11.4-0.1-17.1
		c0-1.9-0.2-3.9,0.3-5.7c2.6-8.1,2.8-16.6,4.2-25c0.1-0.6,0.5-1.1,1-1.6c-0.3,3.5-0.4,7-0.8,10.4c-0.8,6.8-0.7,13.6,0.5,20.3
		c1.1,5.9,1.4,11.8,0.9,17.8c-0.2,3,0.4,5.9,1.3,8.8C813.2,441.5,813.7,442,813.1,442.9z"/>
	<path fill="#FFFFFF" d="M760.3,570.1c1.9,1.3,1.5,3.6,2.4,5.4c3.1,6.1,4.1,12.2,1.2,18.8c-0.8,1.9-0.8,4.1-1.3,6.8
		c-2.2-3.1-2.4-7.3-6.5-8.1c0-0.2,0-0.4,0.1-0.6c1.7-5.7,2.4-11.6,2.6-17.5c0-1.5,0.2-3.1,1.1-4.4
		C760,570.4,760.1,570.3,760.3,570.1z"/>
	<path fill="#FFFFFF" d="M746.8,517.9c3.4,1.1,7.3-0.6,10.7,1.9c-0.1-0.7-0.2-1.2-0.3-1.8c3.4,1.5,4.2,5.1,2.6,12.3
		c-4.6-4-9-7.8-13.4-11.6C746.5,518.4,746.6,518.2,746.8,517.9z"/>
	<path fill="#FFFFFF" d="M756.1,593c-0.7,0.1-1.4,0.1-1.6-0.1c1.3-9.5,2.5-18.6,4.7-28.2c0.6,2.2,1.6,3.6,1.1,5.5l0.1-0.1
		c-1.7,5.5-1,11.2-2.2,16.7C757.8,589,757.3,591.2,756.1,593L756.1,593z"/>
	<path fill="#FFFFFF" d="M801.6,425.2c0.6,1.5,0.2,2.2-1.1,2.6c-8.4,2.4-16.9,2-25.4,1.5c4.5-0.5,8.9-1.1,13.4-1.5
		C792.9,427.4,797.2,426.2,801.6,425.2z"/>
	<path fill="#FFFFFF" d="M682.4,637.4c1.2-0.2,0.9-2.9,3.2-2c0,2.1-1.7,2.7-3.3,3.3c-2.3,0.7-3.8-0.5-5.1-2.2c0.2-1,1-1,1.6-1.3
		s1.2-0.7,2.1-1.2C681.8,635,680.8,636.8,682.4,637.4z"/>
	<path fill="#FFFFFF" d="M766.1,595.6c0-2.5,0.6-4.5,1.6-6.9c1.1,2.3,1.9,4.3,2.5,6.6C768.8,595.5,767.6,595.5,766.1,595.6z"/>
	<path fill="#FFFFFF" d="M776.3,633.3c1.4-0.3,2.3-0.3,3.3,0.1c0,1.3-0.9,2.6-0.5,3.8c-1,0.7-1.8,0.6-2.6,0.3
		C776,636.2,776.5,634.9,776.3,633.3z"/>
	<path fill="#FFFFFF" d="M687.7,633.8c-2.8-0.2-1.2-3.4-3.2-3.9c-1.5,0.7,0,2.3-1.2,3.2c-0.5-1.4-0.2-2.8-0.3-4.1
		C686.3,628.5,686.4,628.6,687.7,633.8z"/>
	<path fill="#FFFFFF" d="M737.6,516.4c-2.4,0.6-4.6-0.3-7.1-0.6c1.2-0.4,2.4-0.8,3.6-1.1C735.3,515.3,736.5,515.9,737.6,516.4z"/>
	<path fill="#FFFFFF" d="M743.6,256.7c-1.2-2.4-3.2-3.7-2.8-6.2C742.2,252.1,744,253.5,743.6,256.7z"/>
	<path fill="#FFFFFF" d="M805,425.5c1,2.2,0.4,4.2-0.6,6.6C804,429.6,804.5,427.6,805,425.5z"/>
	<path fill="#FFFFFF" d="M788.3,259.3c-1.8-2.7,0.1-3.2,1.7-4.4C789.4,256.6,789,257.7,788.3,259.3z"/>
	<path fill="#FFFFFF" d="M793.7,508.1c0.5,1.9-0.1,3.1-0.4,4.9C792.1,511.1,792.8,509.8,793.7,508.1z"/>
	<path fill="#FFFFFF" d="M724.4,432c-2-0.6-0.9-2.1-1.3-3.4c2,0.5,1.1,2.1,1.6,3C724.6,431.7,724.5,431.8,724.4,432z"/>
	<path fill="#FFFFFF" d="M750.3,120.9c1,0,2,0,3,0c0,0.1,0,0.1,0,0.2c-1,0-2,0-3,0C750.3,121,750.3,121,750.3,120.9z"/>
	<path fill="#FFFFFF" d="M720.1,426.9c1,1.2,0.9,2,0.5,2.9C718.9,429.2,719.5,428.3,720.1,426.9z"/>
	<path fill="#FFFFFF" d="M742.5,244.1c0.8,0.6,1.4,1,1.1,2.1C742.5,246,742.1,245.5,742.5,244.1z"/>
	<path fill="#FFFFFF" d="M716.2,425.8c0.7,1.1,0.7,1.9,0.2,2.9C714.8,427.7,715.5,426.9,716.2,425.8z"/>
	<path fill="#FFFFFF" d="M723.6,519.4c0.7-1.6,1-2.6,2.4-2.1C725.9,518.6,724.9,518.6,723.6,519.4z"/>
	<path fill="#FFFFFF" d="M760.8,119.8c-0.7,0.8-1.7,0.7-2.9,0.6C759.1,120.1,760,120,760.8,119.8L760.8,119.8z"/>
	<path fill="#FFFFFF" d="M804.6,417.6c-0.4-0.9-0.3-1.4-0.1-2C805,416.1,804.9,416.7,804.6,417.6z"/>
	<path fill="#FFFFFF" d="M748.9,432.5c-0.3-1.7,0.6-1.7,1.8-1.3C750.3,431.9,749.6,432.3,748.9,432.5L748.9,432.5z"/>
	<path fill="#FFFFFF" d="M760.9,119.8c0.8-0.1,1.5-0.2,2.3-0.3c0,0.1,0,0.2,0,0.3C762.4,119.8,761.6,119.8,760.9,119.8L760.9,119.8z
		"/>
	<path fill="#FFFFFF" d="M766.9,222.1c0.6,1,0.7,1.5,0.5,2.1c-0.7,0.3-0.8-0.3-0.8-0.7C766.6,223.3,766.8,222.9,766.9,222.1z"/>
	<path fill="#FFFFFF" d="M749.5,226.2c-1,0.1-1.5,0.1-1.9-0.8C748.5,225.1,749.1,224.9,749.5,226.2z"/>
	<path fill="#FFFFFF" d="M788.8,248.5c-0.6-1.5-0.4-2.1,0.5-2.3C790.4,247.2,789.1,247.4,788.8,248.5z"/>
	<path fill="#FFFFFF" d="M462.6,510c-1.4-3,0.2-5.4,0.7-8.2c-2.2,2.4-2.8,4.3-2.3,7.3c0.5,2.6,1.4,5.1,0.1,7.7
		c-0.2,0.3,0.1,0.9,0.3,1.3c4.2,7.6,5.4,16,6.3,24.5c1,8.9,2.8,17.6,2.8,26.7c0,11.2-2,22.1-3.1,33.1c-0.7,7.3-1.1,14.5-0.1,21.8
		c0.1,0.9,0,1.9,0,3c-4.6,1.3-9.3-1.8-13.7,0.5c-1-1.5,0.1-3.3-1.3-4.9c-1.8,3.1,0.4,6.7-2.1,9.9c-0.4,0.3-1.3,0.1-2.2-0.1
		c-0.1-0.2-0.4-0.4-0.3-0.6c1.2-8.5-0.3-16.9-1.7-25.2c-1.3-7.4-4-14.5-6.8-21.4c-2.5-6.1-4.7-12.3-6.4-18.6
		c-1.8-6.7-2.5-13.6-0.9-20.5c1.6-7,1.5-14.2,1.6-21.4c1.3-0.1,1,1.8,2.4,1.7c-0.5-2-1.5-3.9-2.9-5.3c-2.8-3-3.7-6.6-4.3-10.4
		c-0.7-3.9-1.4-7.6-4-10.9c-3.1-4-2.9-8.4-1.9-13.2c1.5-7.3,6.5-11.4,12.3-14.9c2.1-1.3,4.3-1.5,6.6-0.9c4.3,1.2,8.6,1.8,13,2.3
		c3.6,0.4,6,2.5,7.6,5.3c3.1,5.5,4.6,11.5,3.7,17.8c-0.4,2.8-0.8,5.7-0.8,8.5C465.2,506.8,464.5,508.5,462.6,510z"/>
	<path fill="#FFFFFF" d="M400.6,273.5c4.6,2.7,9.3,5.3,12.1,10.4c-4.6,10-9.2,20.4-14.2,31.2c-1.4-3.9-1-7.7-2.7-10.8
		c-1.1,3-0.2,5.9,0.9,8.5c1.5,3.4,0.9,6.3-0.7,9.2c-4.6,8.5-9.4,16.8-18,22.9c-0.9-5.6-3-10.8-1.9-16.5c1.5-8.2,3-16.4,4.5-24.6
		c0.2-1.3,0.7-2.6-0.1-4.1c-1.6,1.9-1.4,4.4-2.7,6.8c-2.2-4.8-5.1-8.8-7.5-13c-2.3-4-4.7-8-7.4-11.8c-6.4-9.2-9.7-19.6-11.3-30.6
		c-0.8-5.5-1.9-11-3-16.5c-0.3-1.6-0.2-3.1,0.5-4.5c-1.5-1.2-1.9-2.5-1.5-4.4c0.8-3.8,0.1-7.8,2.7-11.3c1.5-2,3.5-3.3,5.7-2.8
		c11.1,2.6,22.7,3.2,33.3,7.8c5.6,2.5,10.7,5.7,15.3,9.8c2.2,1.9,4.3,3.8,6.7,5.3c1.5,0.9,2.2,2.3,1.9,3.9c-0.3,1.6,0.2,3,0.8,4.6
		c-2.5,2-4.1,4.6-4.1,8.1c-5.3-2.4-10.2-4.9-15.8-5.6c-1.8-0.2-3.4-1.1-4.2-2.4c-3.4-5.4-8.5-9-13.9-12.8c0.4,2.3,1.8,3.6,3.2,4.6
		c9.4,6.2,14,15.8,17.8,25.8c1.8,4.7,1.5,10.1,1.5,15.2c0,1.1-0.3,2.1,0.7,2.9C400.4,277.3,399.1,275.1,400.6,273.5z"/>
	<path fill="#FFFFFF" d="M311.7,660.8c3.2,0.1,5.8,2.2,9.2,0.5c-2.2-2.4-4.9-1.4-7.2-1.8c0.2-1.7,1.1-2.1,2.7-1.7
		c2.4,0.6,4.9,1,7.4,1.5c1.2,0.2,2.3,0.7,3.5-0.9c-2.5-3.2-6.6-2.5-10.4-4.1c4.9-0.8,9.2,2.5,13.8,0.2c-2.5-3.9-6.6-3.1-10.2-4.7
		c4.5-0.4,8.3,2.6,12.7,0.7c-1.7-3.2-5-2.4-7-4.2c3.3,0,6.3,0.7,9,1.2c1.5-0.4,1.2-1.4,1.4-2.2c0.7-0.6,1.9,0.7,2.6-0.9
		c-3.4-4.1-9.6-3.1-13.8-5.6c0.7-1.4,1.5-0.5,1.9-1.4c-0.7-2.6-1.2-5.4,0.1-8.4c3.2,0.6,6.4,1.2,9.5,2.1c1.9,3.6-1.3,5.6-3.2,8.8
		c3.1-0.9,5.2-2.1,7.6-1.8c2.3,0.2,4.4,0.5,6.1,2.3c1.5,1.6,3.5,2.5,5.7,2.9c1.7-2.3,5.6-2.4,5.7-7c3.6,8,1.8,16.8,7.8,23.6
		c-6.2,3.3-11.5,7.2-18.5,8.5c0.8-3.8,2.6-6.4,5.9-8.7c-3.2,0.2-5,1.4-6.4,3.4c-1.4,2.1-3.3,3.9-4.5,6c-1.9,3.3-4.7,5.4-7.8,7.5
		c-6.2,4.2-13,5-20.1,5.1c-4,0.1-8.1-0.2-12.2-0.2c-2,0-3.7-0.5-5.3-2.3c3.4-0.3,6.1-3,9.5-2.1c3,0.7,5.8,2.2,8.8,2.9
		c-5.4-4.8-11.4-5.6-17.8-2c-0.7-1.7-0.4-3-0.4-4.8C303.7,670.7,307.7,665.5,311.7,660.8z"/>
	<path fill="#FFFFFF" d="M422.3,228.8c1.1,0.8,1.6,1.2,2.1,1.6c0.9-2.5,3-2.7,4.9-2.3c1.8,0.3,3.7,0,5.3,1.6
		c0.8,0.8,2.4,0.4,3.6-0.5c1.9-1.3,4-1.6,6.4-1.1c1.5,0.3,2.3,0.9,2.5,2.2c1.3,0.3,0.6-1.3,1.4-1.2c2.7,4.5,4.7,9.2,6.5,14
		c1.8,4.9,1.9,10,0.9,15c-0.8,4.1-2,8.1-3.1,12.1c-1.4,5.5-5.5,9.3-10.3,12.3c-1.2,0.7-2.8,0.4-4.2,0c-1.4-0.4-2.9-0.7-4.3-0.3
		c-4.9,1.3-7.2-1.9-9.5-5.2c-1.8-2.6-1.9-5.9-3.1-8.7c-0.8-2-1.5-4-3.1-5.6c-2.9-3-1.4-6.8-1.4-10.2c-0.1-6.1,3.1-11.7,3.5-17.7
		C420.5,232.7,423.3,231.8,422.3,228.8z"/>
	<path fill="#FFFFFF" d="M474,557.5c4.1,9.6,9.7,17.8,16.7,26.1c10.1,1.1,21.1-1.6,32.1-0.8c11,0.7,22.1,0.9,33.1,0.6
		c1.8,4.9,3.8,9.4,6,13.8c-1.8,1.3-3.8,2.2-4.9,3.5c-29-1.2-57.7-2-86.4-4C472.1,583.6,473.2,570.8,474,557.5z"/>
	<path fill="#FFFFFF" d="M425,580.4c0.4,1.5,0.4,2.4-0.3,3.2c-1.5,0.4-3.2-0.3-4.8,0.6c1.5,0.8,3.2-0.1,4.6,0.6
		c0.7,6-0.4,9.7-4,13.3c-11.6-0.1-23.5-0.2-35.5-2.3c0.4-3.8,2-7.2,2.8-10.9c1.9-1.1,3.8-2,5.2-3.7c0.7-0.8,1.6-1,2.6-1
		C405.3,580.3,415.1,581.2,425,580.4z"/>
	<path fill="#FFFFFF" d="M482.7,253.2c-2.5,7.2-2.1,14.6-4.1,21.7c-1.6,1.4-3.3,1.4-5.5,0.9c-3.9-0.9-8-1-12.5-1.5
		c0.9-6-1-12.1,2.3-17.6c1-1.6,0.5-3.5,0.4-6C469.6,255,476.2,251.3,482.7,253.2z"/>
	<path fill="#FFFFFF" d="M393.7,247.5c5.4,1.1,10.2,3.1,15.4,4.9c0.9,2.6,4.2,4.5,3.4,8.3c-0.1,0.3,0.7,1.2,1.1,1.2
		c3.1,0.2,2.7,2.6,3.1,4.7c0.9,5.1-0.3,10.2-0.4,15.4c-5.9-2.5-9.8-7.7-15.8-10.6C402.4,262.5,396.3,255.7,393.7,247.5z"/>
	<path fill="#FFFFFF" d="M410.5,518.2c1.9-0.5,3.2,0.3,4.5,1.5c5,4.7,10.1,9.4,15.5,13.8c0.1,4.8-0.9,9.5-1.3,14.2
		c-1.3,0.5-1.8-0.6-2.5-1.1c-4.6-3.2-8.6-7.2-12.8-10.9c-3.8-3.4-4.8-7.5-4.1-12.2C410.1,521.6,409.8,519.8,410.5,518.2z"/>
	<path fill="#FFFFFF" d="M445.4,640.2c-1.8-3.4-3.2-6.9-3.9-10.6c-0.8-4.3-2.2-8.5-4-12.5c-2.4-5.5-2.6-11.2-1-17.1
		c1.5-0.6,3.2-0.4,4.8-0.6c1.3,0.8,1,2.2,1.3,3.3c1.9,7.8,3,15.6,3.3,23.6c0.1,2.5,0.3,4.9-0.7,7.3
		C444.3,635.7,445,637.9,445.4,640.2z"/>
	<path fill="#FFFFFF" d="M431.6,571.6c1.7,4.6,3.3,9.2,5.1,13.7c0.5,1.4,0.2,2.6-0.1,3.8c-1.3,4.3-2.4,8.7-3,14
		c-2.2-4.2-2.8-9.1-7.9-8.7c0.7-9.5,2.5-18.5,4.3-28C431.1,568.3,431.3,570,431.6,571.6c-1.4,1.6-1.3,3.7-1.3,5.4
		c0.1,3.8-1.3,7.5-0.9,10.3c0.2-3.5,0.8-7.9,1.2-12.4C430.7,573.8,430.8,572.6,431.6,571.6z"/>
	<path fill="#FFFFFF" d="M484.6,445.7c-2.7-2.7-1.8-6.8-3.8-9.9c-1-0.9-2.7-0.5-4-1.6c1-7-0.7-14-0.2-21.1c0.2-2.4,0.5-4.7,1.4-7
		c1.6-4.1,1.6-8.4,1.8-12.7c0.1-2.7,0.6-5.3,2.1-7.8c-0.3,3.8-0.4,7.6-0.9,11.3c-0.8,6.6-0.4,13.1,0.8,19.5c0.9,4.8,1,9.7,0.8,14.6
		c-0.2,4.2-0.1,8.3,1.7,12.2C484.6,444,484.5,444.9,484.6,445.7L484.6,445.7z"/>
	<path fill="#FFFFFF" d="M456.6,262.1c1.6,0.2,2.1,1.1,2.8,1.9c0.1,4-0.4,8.1,0.3,12.2c4.7-0.7,9.2,0.9,14.5,1.1
		c-5.1,5-12.1,4.7-17.2,8.5c-1.2-1.3-0.8-2.7-1.2-4.1c2.1-0.4,4.5-0.2,5.3-3.3c-2.1,0.1-3.3,2.1-5.6,1.4
		C454.2,273.9,456.3,268.1,456.6,262.1z"/>
	<path fill="#FFFFFF" d="M430.6,531.8c-4.7-4.1-9-7.9-13.4-11.6c0.1-0.2,0.2-0.5,0.3-0.7c3.6,1.3,7.9-1.1,11.1,2.6
		c0.8-1-0.9-1.6-0.3-2.5C431.5,521.5,432.3,525.5,430.6,531.8z"/>
	<path fill="#FFFFFF" d="M351.6,635.5c0.9,1.2,0.2,2.6,1.5,3.4c1.7,0.4,0.6-3.3,3.3-1.8c0.3,1.8-1.4,2.4-2.8,3
		c-2.4,0.9-4.1-0.4-5.4-2.2C349,636.6,350.7,636.8,351.6,635.5z"/>
	<path fill="#FFFFFF" d="M437.2,597.2c-0.5-1.2,0.1-2,0.2-2.8c0.2-1.3,0.6-2.5,1.1-4.2c1.4,2.2,1.9,4.2,2.6,6.4
		C439.8,597.3,438.5,597.1,437.2,597.2z"/>
	<path fill="#FFFFFF" d="M447.3,638.9c0-1.4,0-2.6,0-3.7c1.1-1,2.2-0.4,3.6-0.3c-1,1.4-0.7,2.8-1.1,4.1
		C449,639.5,448.2,639.5,447.3,638.9z"/>
	<path fill="#FFFFFF" d="M355.1,629.9c3.1,0.7,2.8,3,3.3,5.3c-1.2-0.2-1.8-0.6-1.9-1.7c-0.1-0.8-0.1-1.7-1.1-2
		c-1.3,0.8-0.1,2.2-1.1,3.5C354.2,633,353,631.4,355.1,629.9z"/>
	<path fill="#FFFFFF" d="M409,518.6c-2.9-0.3-5.2-0.6-7.6-0.9C404.1,515.8,406.3,516.3,409,518.6z"/>
	<path fill="#FFFFFF" d="M414.3,257.4c-3-3.8-3-3.8-1.8-6.2c0,2.2,1.8,3,1.9,4.7C414.4,256.3,414.4,256.6,414.3,257.4z"/>
	<path fill="#FFFFFF" d="M460.9,256.9c-0.5,1.2-1.1,2.5-1.6,3.8c-0.8-0.6-1.1-1.2-1-2.2C458.7,257.4,460.3,257.7,460.9,256.9z"/>
	<path fill="#FFFFFF" d="M391.9,522.5c2.2-0.4,2.5-3.6,5.8-3.7C395.4,520.3,394.5,522.6,391.9,522.5L391.9,522.5z"/>
	<path fill="#FFFFFF" d="M475.4,433.2c0-2.6,0-4.3,0-6.1C476.8,428.9,476.5,430.6,475.4,433.2z"/>
	<path fill="#FFFFFF" d="M461.6,255.4c-1-1.6-2-2.7-0.2-4.3C461.9,252.5,461.9,253.6,461.6,255.4z"/>
	<path fill="#FFFFFF" d="M387.2,430.4c-1.1-1.1-0.8-2-0.2-3.1C388,428.3,388,429.1,387.2,430.4z"/>
	<path fill="#FFFFFF" d="M464.1,514.1c-1.2-1.4-0.4-2.3,0.4-3.6C464.8,511.9,464.7,512.9,464.1,514.1z"/>
	<path fill="#FFFFFF" d="M420.9,227.6c-1.5,0.6-1.9-0.1-2.7-0.3C419.4,226.1,419.9,226.9,420.9,227.6z"/>
	<path fill="#FFFFFF" d="M390.9,431.4c-1.1-1.2-0.7-1.8,0.4-2.6C392.2,429.9,391.9,430.6,390.9,431.4z"/>
	<path fill="#FFFFFF" d="M459.9,249.7c-0.8-1-0.3-1.4,0.1-2.2C461.1,248.6,460.3,249,459.9,249.7z"/>
	<path fill="#FFFFFF" d="M414.6,247.8c-1.1-0.4-1.6-0.9-1.3-2.1C414.4,246,414.6,246.7,414.6,247.8z"/>
	<path fill="#FFFFFF" d="M475.7,418.7c-0.5-0.5-0.3-1,0-1.6C476.2,417.7,476.2,418.2,475.7,418.7z"/>
	<path fill="#FFFFFF" d="M443.4,224.4c0.4-0.4,0.6-0.9,0.8-0.9c0.4-0.1,0.7,0.3,0.5,0.7C444.6,224.6,444.3,224.7,443.4,224.4z"/>
	<path fill="#FFFFFF" d="M438.1,225.9c-0.9-0.3-0.5-0.9-0.5-1.5C438.5,224.7,438.7,225.2,438.1,225.9z"/>
	<path fill="#FFFFFF" d="M440.6,339.2c-2.7-1.2-3.5-0.4-2.8,2.2c-2.5-0.2-3.5-1.5-3.4-3.7c0.1-1.7,1.2-3,3-2.9
		C439.9,334.8,440.6,336.4,440.6,339.2z"/>
	<path fill="#FFFFFF" d="M768.8,335.4c-2.5-0.8-4-0.8-2.8,2.3c-2.6-0.1-3.7-1.4-3.5-3.7c0.1-1.7,1.1-3,2.9-3
		C767.8,331,768.5,332.7,768.8,335.4z"/>
	<path fill="#FFFFFF" d="M428.5,337.4c-0.3,1.8-1.1,3.2-3.1,3.3c-1.9,0.1-3.3-1.5-3.1-3.5c0.2-1.9,1.2-3.2,3.2-3.1
		C427.5,334.1,428.3,335.6,428.5,337.4z"/>
	<path fill="#FFFFFF" d="M752.7,330.3c2.2,0.5,4,1.2,3.8,3.6c-0.1,1.5-0.9,2.8-2.6,3c-1.6,0.3-2.9-0.4-3.4-2
		C749.8,332.9,750.5,331.3,752.7,330.3z"/>
	<path fill="#FFFFFF" d="M740.6,332.7c-0.7-1.2-0.5-2-0.1-2.9c1.5-0.5,2.9-0.4,3.9,1.2C743.8,333.4,742,332.5,740.6,332.7z"/>
	<path fill="#FFFFFF" d="M412.7,336.4c-0.9-1.2-0.3-2-0.4-2.8c1.8-0.5,3.2-0.4,4.1,1.2C415.8,337.1,414,336.2,412.7,336.4z"/>
	<path d="M777.8,500.8c2.1-3.7,0.6-8,2.1-12C782.5,493.2,781.7,498.3,777.8,500.8z"/>
	<path d="M783.1,488.6c-3-3.4-5.8-6.6-8.8-9.9C777.6,478.8,781.9,483.7,783.1,488.6z"/>
	<path d="M793.2,553.9c-0.3-2.5-1.2-4.9-0.7-7.6C795.1,548.7,795.3,550.9,793.2,553.9z"/>
	<path d="M792.6,542c-1-4-1.6-8.1-0.8-12.2C793,533.8,792.7,537.9,792.6,542z"/>
	<path d="M762.1,494.6c-1.2-3,0.8-6.5,3.8-6.5C765.4,490.8,763,492.3,762.1,494.6L762.1,494.6z"/>
	<path d="M762,494.7c1.4,2.3,2.7,4.6,3.1,7.2C763.2,499.9,760.6,498.1,762,494.7L762,494.7z"/>
	<path d="M793,495.9c-1.4,2-2.6,4.1-4,6C789,499,790.3,497,793,495.9z"/>
	<path d="M769.6,522.6c2.6-0.8,3.7,1.1,5.1,2.6C772.7,524.9,771.1,523.8,769.6,522.6z"/>
	<path d="M784.2,518.9c0-2.3,0-4.3,1.3-6.4C786.5,515.5,786.5,515.7,784.2,518.9z"/>
	<path d="M779.9,508.1c-2.2-2.5-2.2-2.5-1.3-5.4C779.1,504.7,779.4,506.1,779.9,508.1z"/>
	<path d="M766.8,527.7c1.7,0.8,1.7,2.1,2.3,4C767.3,530.4,767,529.3,766.8,527.7z"/>
	<path d="M793.1,560.3c-0.6-1.5-0.9-2.5,0.5-3.1C794.3,558.2,794.1,559,793.1,560.3z"/>
	<path d="M781.2,614.8c0.6,1,0.6,1.4-0.2,1.7C780.1,616,780.7,615.6,781.2,614.8z"/>
	<path d="M773.7,555.2c0.4,0.6,0.3,1.2,0.1,1.7C773,556.4,772.5,555.9,773.7,555.2z"/>
	<path d="M769.2,532.6c1,0.6,1.4,1.1,1.3,2.5C769.4,534.5,768.8,534.1,769.2,532.6z"/>
	<path d="M794.4,563.6c0.2,1.2,0,1.7-0.7,1.8C793.1,564.6,793.5,564.2,794.4,563.6z"/>
	<path d="M779.6,511.9c-0.9-0.4-1.1-1-0.7-1.8C780.2,510.3,779.7,511.2,779.6,511.9z"/>
	<path d="M770.8,511.9c-0.8-0.4-1.3-0.9-0.8-2.1C771,510.3,771.3,510.9,770.8,511.9z"/>
	<path d="M772.1,544.6c0.6,0.5,0.6,0.9,0.2,1.5C771.7,545.8,771.3,545.5,772.1,544.6z"/>
	<path d="M795.7,587.3c-0.6-0.8-0.3-1.2,0-1.7C796.3,586.2,796.3,586.7,795.7,587.3z"/>
	<path d="M627,677c7.7-3.7,11.4-3.6,18.3,1.7c-1.7,0.8-2.8-0.4-3.9-1c-3.8-2-7.5-2.6-11.5-0.6C629.1,677.6,627.9,678.7,627,677
		L627,677z"/>
	<path d="M761.9,244.2c-3.6,4-7.9,2.6-12,2c2.2-1.7,4.9-1.3,7.7-2.2c-3.3-1.1-6.1-1.9-9.1-0.1C752.1,239.7,759.5,239.9,761.9,244.2z
		"/>
	<path d="M768.4,244.2c1.7-4.3,8.8-4.6,13.5-0.5c-1.6,0.8-2.3-0.9-4.2-0.9c-1.2,0.2-3.1,0.6-5,1c1.3,0.6,2.7,0.5,3.8,1.1
		c1.2,0.6,3-0.5,3.7,1.4C776.9,247.2,776.9,247.2,768.4,244.2z"/>
	<path d="M756.5,266.8c2.7-1.6,13-1.8,17-0.2c-2.1,1.3-3.8,0.8-5.6,0.5c-2-0.4-4,0.3-6,0.3C760.1,267.4,758.2,268.3,756.5,266.8z"/>
	<path d="M769.7,271.1c-3,1.1-7.3,1.2-9.9,0.2c0.4-1.7,1.4-2.4,3.2-2.5C768,268.6,768,268.5,769.7,271.1z"/>
	<path d="M767.6,260.5c-1.9-0.5-3.5-0.3-5.3,0.3c-0.1-2.1,1.1-2.5,2.3-2.7C765.9,258,767.2,258.2,767.6,260.5z"/>
	<path d="M877.6,586.7c-9,0.9-17.9,0.6-26.8-0.6C859.7,585.7,868.7,586.8,877.6,586.7z"/>
	<path d="M828.2,585.6c-7.2,0.7-14.3,0.1-21.5,0.1C813.9,585,821.1,585.4,828.2,585.6z"/>
	<path d="M880.7,587.5c1.9,1.6,2,4,2.7,6.2C881.7,591.9,881.2,589.7,880.7,587.5z"/>
	<path d="M814.7,581.4c-2.1,0.5-3.8,0.4-5.5-0.3C810.9,580.5,812.6,579.8,814.7,581.4z"/>
	<path d="M883.8,584.1c-0.3,1.2-1,1.4-2.1,1.8C882,584.5,882.6,584.2,883.8,584.1z"/>
	<path d="M731,582.8c-0.7,0-1.4,0-2.1,0C729.5,582.2,730.2,582.7,731,582.8z"/>
	<path d="M723.6,582.8c-0.3,0.2-0.6,0.3-0.9,0.1C722.9,582.4,723.2,582.5,723.6,582.8z"/>
	<path d="M754.6,114.8c3-3.9,15.1-6,18.7-3.2C771.2,115.9,757.6,118.3,754.6,114.8z"/>
	<path d="M756,593.1c1.8-5.9,2.2-12,2.8-18.1c0.2-1.7,0.1-3.6,1.5-4.9c-0.7,7-0.2,14.2-2.6,21C757.5,591.9,757.6,593.3,756,593.1z"
		/>
	<path d="M451,490.7c2.5,5.3,1.8,9-2.1,11.6C450.6,498.7,449.8,494.6,451,490.7z"/>
	<path d="M454.1,489.9c-2.6-3.3-6-6-8-9.9C450,482.3,452.5,485.7,454.1,489.9z"/>
	<path d="M462.6,531.3c1.3,4.1,1.4,8.3,1,12.6C461.8,539.8,462.7,535.5,462.6,531.3z"/>
	<path d="M464.2,555.5c-0.2-2.4-1.3-4.8-0.8-7.3C465.9,549.7,466.3,552.2,464.2,555.5z"/>
	<path d="M432.7,495.6c-0.1-2.8,0.9-5.1,3.6-6.3C436.6,492.3,434.2,493.7,432.7,495.6z"/>
	<path d="M432.9,496.4c1.6,2.4,2.7,4.8,3.9,7.5C433.5,501.7,432.5,499.7,432.9,496.4z"/>
	<path d="M464,497.3c-1.4,2-2.5,4.2-4.1,6.1C459.8,500.4,461.5,498.6,464,497.3z"/>
	<path d="M455.6,519.4c-0.4-1.8-0.5-3.6,0.9-5.6C457.8,516.4,456.8,517.9,455.6,519.4z"/>
	<path d="M440.6,524.2c2.2-0.8,3.4,0.4,4.9,2.3C443.2,526.4,442.1,525,440.6,524.2z"/>
	<path d="M450.4,509c-1.7-1.1-1.8-2.5-1.4-4.4C450.7,506,450,507.7,450.4,509z"/>
	<path d="M437.6,528.9c1.8,1.2,2,2.4,2,3.8C438.4,532.1,438,531,437.6,528.9z"/>
	<path d="M464.3,558.3c0.9,1.5,0.6,2.3-0.1,3.3C463,560.5,463.4,559.6,464.3,558.3z"/>
	<path d="M466.4,588.9c-0.5-0.7-0.3-1.3,0.4-1.8C467.4,587.8,467.2,588.4,466.4,588.9z"/>
	<path d="M450.9,513.7c-1.4-0.2-1.2-1.1-1.3-1.9C451.2,511.8,450.8,512.8,450.9,513.7z"/>
	<path d="M440.1,534.1c1.1,0.8,1.3,1.4,1.5,2.2C440,536.4,440,535.5,440.1,534.1z"/>
	<path d="M443,547.8c-0.6-0.5-0.7-1-0.3-1.5C443.5,546.5,443.9,546.8,443,547.8z"/>
	<path d="M440.5,511.4c1.6,0.2,1.4,1,1.3,1.8C440.4,513.2,440.7,512.3,440.5,511.4z"/>
	<path d="M452.1,526.2c-0.2,0.1-0.4,0.2-0.6,0.3c0,0-0.1-0.2-0.1-0.3c0.2-0.1,0.4-0.2,0.6-0.3C452,525.9,452.1,526.1,452.1,526.2z"
		/>
	<path d="M452.5,613.5c-0.2-0.1-0.4-0.1-0.5-0.3c0-0.2,0.1-0.4,0.2-0.5c0.2,0.1,0.5,0.1,0.5,0.3
		C452.7,613.1,452.6,613.3,452.5,613.5z"/>
	<path d="M436.1,505.2c0.9,0.3,1.2,0.6,1,1.3C436.3,506.6,436.2,506.1,436.1,505.2z"/>
	<path d="M384.3,285c4.3,3.9,6.2,10.9,3.9,15.7C386.9,295.2,385.6,290.1,384.3,285L384.3,285z"/>
	<path d="M398.7,282.4c-1,3.8-1.9,7.5-2.9,11.2c-1.6-4.4,1.2-7.7,2.1-11.5C398.1,282.2,398.4,282.3,398.7,282.4z"/>
	<path d="M390.2,298.5c1.9,0.2,2.4,1.2,2,2.3c-0.7,2.1-2.5,2.8-4.8,3.3C388.2,301.8,390.8,301.1,390.2,298.5z"/>
	<path d="M384.4,285c-2.5-2.3-3.3-5.6-5-8.3C381.7,279.1,383.5,281.8,384.4,285L384.4,285z"/>
	<path d="M372,265.8c-1.7-1.6-2.8-3.6-3.6-5.8C370.2,261.5,371.9,263.1,372,265.8z"/>
	<path d="M361.8,222.7c-1.4-0.7-2.3-1.8-2.5-3.8C361.5,219.6,361.7,221.2,361.8,222.7z"/>
	<path d="M377.4,288.8c-1.3-1.3-2.4-2.7-2.3-5.2C376.8,285.3,377.3,286.9,377.4,288.8z"/>
	<path d="M362.5,250.4c1.5,0.9,1.8,2.3,2.6,4.4C362.9,253.4,362.6,251.9,362.5,250.4z"/>
	<path d="M384.6,227c0.4,1.8,0.9,3.6-0.4,5.1C384.3,230.4,384.5,228.7,384.6,227z"/>
	<path d="M383.3,311.2c-0.3,1.5-1.2,2.5-2.4,4C380.7,312.6,382,311.8,383.3,311.2z"/>
	<path d="M385.2,305.5c-0.2,2.2-1.2,2.9-2.5,4.1C382.8,307.6,383.6,306.8,385.2,305.5z"/>
	<path d="M349.8,225.7c-0.7-1.1-0.8-2.2,0.1-3.2C351.3,223.8,350.5,224.8,349.8,225.7z"/>
	<path d="M357.2,264.2c-1.5-1.8-1.8-3.3-1.9-4.7C356.6,260.5,356.9,261.9,357.2,264.2z"/>
	<path d="M379.4,296.8c-1.2-1.2-1.6-1.9-1-2.9C379.6,294.4,379.1,295.4,379.4,296.8z"/>
	<path d="M382.9,222.6c-1.4-0.5-2.1-1-2.8-2.1C381.4,220.7,382.1,221.2,382.9,222.6z"/>
	<path d="M394.1,319.5c0.7,0.9,0.5,1.7-0.1,2.5C393.5,321.1,393.2,320.3,394.1,319.5z"/>
	<path d="M395.5,298.5c0.7,1,0.3,1.5-0.3,2C394.2,299.5,395,299.1,395.5,298.5z"/>
	<path d="M376.2,272.5c-0.8-0.2-1.3-0.7-1.4-1.6C375.8,271,376.2,271.4,376.2,272.5z"/>
	<path d="M420.9,247.6c2.2-1.6,4.8-1.3,7.7-1.8c-1.9-1.5-4.2-0.2-5.1-1.7c-1.8,0.1-2.7,1.4-4.2,1.3c3.3-4.2,11.1-4,13.4,0.1
		C428.8,249,428.5,249,420.9,247.6z"/>
	<path d="M453,245.3c-1.9,0.6-2.6-1-4.1-1.1c-0.7,0.2-1.6,0.5-2.5,0.6s-1.9-0.1-2.8,0.7c2.7,0.8,5.4,0.7,7.7,2.3
		c-2.7,0.7-5.4,0.7-8.2,0.4c-0.8-1-1.4-2.8-3.5-1.8C440.4,241.5,447.7,241,453,245.3z"/>
	<path d="M443.7,268c-2.3,1.2-14.7,1.1-16.8-0.2C432.9,267.3,438.3,266.4,443.7,268z"/>
	<path d="M440.7,273.2c-3.5,0.3-6.6,0.5-9.9,0.3c0-2.1,0.8-3.3,2.5-3.1C435.7,270.9,439.1,268.2,440.7,273.2z"/>
	<path d="M438.5,262.6c-2.1-1.3-3.6-0.6-5.3-0.2c-0.1-2.1,1.2-2.5,2.4-2.6C436.9,259.6,438.2,259.8,438.5,262.6z"/>
	<path d="M522,587.9c8.7-0.5,17.4,0.4,26.2,0.1c0,0.3,0,0.6,0,0.9c-2.8,0-5.6,0-8.4,0c-3,0-6,0-9-0.2
		C527.9,588.5,525,588.1,522,587.9z"/>
	<path d="M477.4,587.2c7.2-0.5,14.3-0.3,21.4,0C491.7,587.8,484.5,587.2,477.4,587.2z"/>
	<path d="M551.6,589c1.8,1.5,2.1,3.7,2.4,5.8C552.5,593.1,551.9,591.1,551.6,589z"/>
	<path d="M485.1,582.8c-1.8,0.6-3.5,0.7-5.7,0C481.6,581.8,483.4,581.6,485.1,582.8z"/>
	<path d="M554.7,585.8c-0.4,1-0.9,1.4-1.8,1.4C552.7,586,553.5,585.8,554.7,585.8z"/>
	<path d="M402.3,584.3c-0.8,0-1.6,0-2.3,0c0-0.1,0-0.1,0-0.2c0.7,0,1.5,0,2.2,0C402.2,584.2,402.3,584.3,402.3,584.3z"/>
	<path d="M393.8,584.1c0.3,0,0.6,0.1,0.9,0.1c0,0.1-0.1,0.2-0.1,0.2C394.3,584.5,394,584.6,393.8,584.1z"/>
	<path d="M431.6,571.6c-0.9,4.5-0.8,9-1.3,13.5c-0.3,3.2-1.1,6.2-2.3,9.1c-0.8,0-0.9-0.4-0.8-0.7c1.8-6.3,1.7-12.9,2.8-19.4
		C430.3,573.1,430.3,572,431.6,571.6L431.6,571.6z"/>
	<path fill="#FFFFFF" d="M760.5,113.6c3-2,6.4-1.2,9.5-1.7c0,0.2,0.1,0.5,0.1,0.7C766.9,112.9,763.7,113.2,760.5,113.6L760.5,113.6z
		"/>
	<path fill="#FFFFFF" d="M760.4,113.5c-0.3,0.5-0.5,1.1-1.1,1.3c-0.6,0.1-1.1,0.2-1.8-0.2C758.4,113.7,759.4,113.4,760.4,113.5
		L760.4,113.5z"/>
</g>
</svg>
