<?xml version="1.0" encoding="utf-8"?>
<!-- Generator: Adobe Illustrator 19.1.0, SVG Export Plug-In . SVG Version: 6.00 Build 0)  -->
<svg version="1.2" baseProfile="tiny" id="Layer_2" xmlns="http://www.w3.org/2000/svg" xmlns:xlink="http://www.w3.org/1999/xlink"
	 x="0px" y="0px" width="900px" height="600px" viewBox="144 97 900 600" xml:space="preserve">
<g>
	<path d="M803.3,371.3c0.6-0.3,0.6-0.8,0.7-1.4c1-3,2.4-4,5.4-3c2.2,0.7,4.3,0.9,6.7,0.6c3.6-0.6,7.1,1.1,10.7,1
		c2.2,0,4.3,0.3,6.6,0.5c2.1-4.3,4.2-8.6,7.6-11.9c0.1,3.3-2.5,5.1-4,7.6c0.7,0.6,1.1,0,1.4-0.3c3.1-3.7,6.1-7.4,7.2-12.3
		c1.3-5.8,3.3-11.4,5.3-16.9c2.3-6.3,3.3-12.7,3.2-19.4c0-1.9,0.6-3.7,0.6-5.8c-3-2.9-6.2-5.9-9.7-9.3c-0.5,5.6-3.5,10-4.1,15.2
		c-0.2,1.7-1.5,3-3.3,3.9c3.4-6.8,3.5-14.4,5.1-21.5c-4.2-7.9-9.8-14.8-14.4-22.3c-1.5-0.8-3-1.6-4.7-2.5c6.7-1.1,9,3.8,11.6,8
		c1.1,1.8,2,3.6,3.8,5.2c1-2.9,2.6-5.5,2.3-8.5c-0.7-8.4,0.5-16.6,0.9-25.2c-3-2.2-6.7-2.3-10.2-3.3c-1.9-0.6-3.7-1.3-4.9-3
		l-0.1,0.1c4.6,0.9,8.7-0.3,12.8-2.3c0.7-0.3,1.3-0.1,1.7,0.8c-1.2,2.2-4,1.7-5.9,3.6c2.1,0.3,4.2-1.1,5.7,0.4
		c1.6,1.6,3.6,1.3,5,1.5c9.2-4.1,14.7-11,17.4-20.9c1.1,2.4,0,3.9-0.1,5.6c1.4-0.8,1.4-2.7,2.8-3.2c0.8,4.2-4.3,5.1-4.8,8.5
		c9.4,6.4,9.6,6.6,9.2,9.7c-3.7-2.3-5.7-6.8-10.9-7.2c-3.2,3-6.5,6.2-10,9.5c0.9,12.8,4.7,23.8,9.6,28c1.3,0.1,2.3-0.7,3.3-1.3
		c6.7-4.5,10.5-11,13.3-18.5c4.1-10.7,4.9-22,7.7-32.9c1.5-5.8,2.7-11.8,4.3-17.6c0.8-2.9,2.2-5.5,3.6-8.3
		c-3.4-1.6-7.1-1.2-10.6-1.4c-3-0.1-5.9-0.6-8.5-2.1c-1.5-0.9-2.9-0.8-4.5-0.3c0.7,2.1,1.4,4.1,2,6.1c-2.2-2.7-3-6.9-7.7-7.1
		c1.8,4.7,1.6,8.2-1.1,15.3c-1.7,0.5-1.7,0.5-3.2,0c-0.3-1.5,1.3-0.8,1.9-1.7c-0.5-2.3,0.5-4.7,1-7.1c0.6-3.3,0.2-4.1-2.9-6.1
		l0.1,0.1c-1.2-1.2-2.8-1.7-4.4-2.1c-3.1-0.9-5.9,1.2-6.1,4.4c-0.2,2.6,0.3,4.8,2.7,6.2c0.7,0.4,1.4,1,2,1.7c1.3,1.5,2.5,3,3.7,4.5
		c-0.7,1.7-1.7,1.2-2.7,0.7c-5.9-3-11.9-1.5-17.8-0.3c-6.8,1.4-13.7,2.7-21.1,4.2c-2.6,5-6.7,9.3-11.9,12.6c0.4,1.5,1.5,2.1,2.1,2.8
		c1.9,0.6,3.5-0.9,5.3-0.2c1.5,0.6,3,1,4.8,1.6c-0.9,1.2-2,1.7-2.9,1c-2.6-1.7-5.2-1.3-7.5-0.4c-1.7-0.6-2.3-2.1-3.9-3.2
		c-4,2.7-8.9,1.6-13.8,1.9c-1.2-2.9,1.8-2.2,2.8-3.1c1.2-1,2.7-1.8,4-2.9c-3.6,1.3-7.2,1.8-10.9,1.9c-0.6-1.4,1.3-1.5,0.8-3
		c-2.2,2.1-5.2-0.1-7.5,2.6c-0.2-2.4,1.5-2.9,1.8-4.2c-0.6-0.9-1.8,0.9-2.4-0.5c-0.2-1.2-0.5-2.5-1.1-3.9c1.4-0.4,2.8-0.1,3.7-1.8
		c-2.2-0.3-4.6,0.1-6.5-1.9c2.2-0.8,4.2-0.2,6.3-0.6c-1.8-1.7-4.2-0.6-6-1.7c0.1-1.6,1.7-2,1.9-2.9c2.3-0.8,4.2,1.7,6.1,0
		c-0.4-1.2-1.7-0.6-2.2-1.6c0.4-1.8,2.7-1.1,3.5-3c-0.2-2.4-0.7-5.2-0.5-8c0.1-2.6-1.3-5.8,2.2-7.6c-0.1-2.7,0.1-5.3,0.7-7.9
		c0.2-0.8,0.5-1.9,0.2-2.6c-2-5.4,2-8.4,4.8-11.5c2.1-2.4,4.5-4.8,7.3-6.2c0.2-1-0.8-1.6,0.1-2.8c3.1-0.1,3.2-4.2,6.1-5.6
		c-0.3-1.5-1.1-3.1-0.5-4.7c0.3-0.7,0.6-1.4,1.5-1.6c1.5,0.6,1.5,2.3,2.6,3.6c1.1-0.7,1.9-2.2,3.5-1.7c1.4,0.4,1.8,1.7,2.1,3.2
		c1.2-1.3,1.8-2.4,2.9-3.2c2.2-1.6,3.1-1.5,4.7,0.8c0.7,0.9,1.6,1.4,2.4,0.8c2.5-1.8,5.2-1.1,7.6-0.6c5.7,1.2,11.2,3.3,15.4,7.6
		c0.2,0.2,0.4,0.6,0.7,0.7c6.1,1.4,7.9,7,10.8,11.4c2.2,3.4,4.5,6.7,7.5,9.6c1.6,1.6,3,3.2,3.5,5.5c0.5,1.9,1.7,3.2,3.3,4.3
		c1.1,0.7,2.4,1.2,2.9,1.8c1.1,1.4-0.6,2.2,0,3.2c1.7,2.4,4.1,3.4,7.1,3.3c2.7-0.1,5.2,0.6,7.8,1.2c3,0.6,6.2,0.6,9.4,0.8
		c4.8,0.2,9.7-0.3,14.4,0.7c7.2,1.5,14.9,2.1,20.8,7.4c3.1,2.8,6.2,5.6,9.4,8.3c3.4,2.8,6.9,5.4,10.4,8.1c2.4,1.9,4.1,4.2,5.4,7
		c2.2,4.8,4.5,9.5,6,14.6c0.7,2.4,2.5,4,4,5.9c3.3,4.2,5.5,9,7.6,13.8c3.5,8.3,6.2,16.9,9.2,25.3c4.6,13,8.1,26.4,13.1,39.3
		c0.6,1.5,1.4,3,0.3,4.7c-0.5,0.8,0.2,1.7,0.4,2.5c0.9,3.7,1.8,7.5,2.7,11.2c0.5,2.3-0.7,4.8,0.8,7c0.6,0.9,0.9,1.9,1.9,2.5
		c5.2,3.4,8.4,11.2,6.9,17.3c-0.8,3.2-1.2,6.5-1.5,9.7c-0.4,4.2-1.7,8.1-3.9,11.7c-1.1,1.8-2,3.6-2.2,6c2.9,1.2,5.9-0.8,9.1,0.5
		c-3.1,1.6-6.3,1.4-9.3,2.6c3.9,0.7,7.7,1.4,11.6,2.1c4.4,0.8,8.8,1.7,13.3,2.2c4.3,0.5,6.1,3.1,6.7,6.8c0.4,2.4,0.8,4.8-0.5,7.1
		c-1.6,2.8-4.3,3.8-8,3.1c-9.5-1.8-19-3.7-28.5-5.5c-0.8-0.1-1.5-0.2-2.4-0.4c-3.8,3.4-8.9,4.8-12.7,8.5c-3.1,3-7.4,4.3-11.9,3.4
		c-1-0.2-1.7,0.2-2.4,0.7c-3,2.2-6,4-9.7,4.6c-1.3,0.2-2.4,0.9-3.2,2.3c3.3-0.5,6.5-1,9.7-2.2c3.4-1.3,7-1.5,10.7-1.5
		c8,0,15.8-2,23.8-3.1c4.1-0.6,8.3-0.7,12.3-1.4c3.8-0.7,7.5-0.5,11.3-0.7c0.4,0,0.9-0.1,1.3,0.5c-0.8,1-2,1.4-3.1,1.4
		c-8.6-0.6-16.5,2.8-24.9,3.6c-9.8,0.9-19.4,3-29.2,3.9c-5.6,0.5-11.3,1.5-16.8,2.7c-5,1.1-8,4.7-9.6,9.4c-1,3.2-2.3,6.2-4.4,8.8
		c-3.5,4.4-6.7,8.9-9,14.3c1.5,1.1,3.4,1.5,5.2,2.2c4.1,1.5,7.6,3.8,10.6,6.8c2.9,2.9,4,6.4,2.8,10.5c-2.8,9.8-6.3,19.4-10.7,28.6
		c-9.6,20-20.1,39.5-28.9,59.8c-1.4,3.2-3.3,6.2-5.3,9.1c-1,1.4-2.2,2.2-3.7,2.8c-0.9-1,0.2-1.8,0-2.6c-2.8-0.9-5.7-1.2-8.5-0.1
		c-0.3-1.8,0.6-2.7,2.3-3c0.6-0.1,1.3-0.4,1.9-0.4c5.8,0.4,8.2-3.5,10.1-8.1c4.8-11.8,10.2-23.4,16-34.7
		c5.4-10.5,9.8-21.3,15.2-31.8c3.1-5.9,5.2-12.3,6.6-18.9c1.1-5.2-0.4-8.6-5.4-12c-2.8-1.9-6.1-2.9-9.4-3.9
		c-1.7-0.5-3.3-0.1-4.6,1.1c-1.9,1.7-3.7,3.4-4.9,5.7c-1.1,2.3-2.7,2.9-5.1,1.7c-2.3-1.2-4.7-2.3-6.8-3.9c-2-1.5-3.5-3.6-5.9-5.3
		c0.8,8.4-1.4,16.1-3.3,23.8c-1.5,5.8-0.9,11.8-2,17.6c-1.8,9.8-4,19.6-6,29.4c-0.5,2.4-0.9,4.7-0.8,7.2c0.2,7-1.1,14-1.3,21
		c-0.1,2.8,0.3,5.4,1.8,7.9c1.2,2,1.8,4.2,1.7,6.6c2.1,2.9,5,5.3,5.9,9.1c5,1.1,10,2.2,15,3.3c2.2,0.5,4.5,0.9,6.7,1.4
		c0.9,0.2,2.4,0.2,2.2,1.9l0.1-0.1c-6-0.1-11.8-1.5-17.3-3.7c-2-0.8-4-0.8-6.3-1.5c0.4,4,0.2,7.7,2.5,11.1c2.2,3.3,1.3,4.4-1.3,7.2
		c-5.8,6.2-13.6,7.7-21,10.2c-2.3,0.8-4.5,1.6-6.5,3.1c-4.5,3.3-9.3,5.8-14.9,6.6c-2.6,0.4-5.1,1.4-7.4,2.6c-2.9,1.5-6,2.3-9.2,2.1
		c-7.3-0.4-14.7-0.6-21.8-2.6c-3.1-0.9-6.3-1.1-9.2-2.6c-2.3-1.2-3.7-2.7-3.9-5.5c-0.5-7.3,0.7-10,7.4-13.4
		c4.9-2.5,9.5-5.4,12.9-10.2c-5.5,2.1-10.9,1-16.4,0.6c-5.3-0.4-10.4,0.9-15.3,3c-7.2,3.1-14.6,5.5-22.3,6.9
		c-3.2,0.6-6.3,1.8-9.6,2.1c-9.4,0.9-18-2.6-26.9-4c-2.2-0.3-3.6-1.9-4.2-4.1c-0.7-2.9-2.6-5.6-1.3-8.9c0.5-1.2,1-1.9,2.1-2.6
		c7.6-4.3,16.1-7,23.3-12c4.2-2.9,8.2-5.8,11.3-10c1.8-2.4,4.5-4.1,6.9-6c1.8-1.4,2.9-2.9,3.6-5.2c1.6-5.6,5.3-10,9.7-13.9
		c-1-11.9-2.1-23.8-4.3-35.5c-0.3-1.5-0.5-3-0.6-4.6c-0.2-9.4-3-18.4-4.2-27.6c-1.5-11.1-2.8-22.2-2.1-33.5c0.2-2.9,1.9-5.7,1.1-8.7
		c-1-4.2-0.8-8.5-1-12.7c-0.1-2.1-0.1-4.2,0.1-6.2c0.5-4.4,0.9-8.9,1.4-13.3c0.1-0.5,0.2-1.2,0-1.6c-1.8-4.5,0.2-8.6,1.4-12.8
		c1.1-4,4.7-5.9,7.8-8.1c2.4-1.8,5.1-3,7.9-4.1c1-0.4,2.2-0.4,2.9-1.9c-6.1,1.9-12.1,1.1-18.1,0.8c-3.5-0.2-7,0.2-10.5,0.8
		c-6.5,1-13.1,1.1-19.6,1.8c-2.7,0.3-5.3-0.1-7.8-1c-7.7-2.7-15.2-5.8-21.1-11.7c-1-1-2.2-1.4-3.5-1.8c-5.8-1.8-7.1-4.4-5.1-10.7
		c-8.5-1.7-17-3.3-25.7-5c-1.9,6-6.2,10.3-10,14.9c-2.6,3.1-6.3,4.7-10.1,6c-2,0.7-4,1.3-6,1.9c-10.6,3-20.3,1.5-27.7-7
		c-4.8-5.5-7.7-12.2-8.3-19.7c-0.2-2.5-0.4-5-0.2-7.8c-4.6-1.4-9.2-1.9-13.8-2.9c-0.5-0.1-1.1-0.1-1.6-0.3c-4.4-1.1-5.5-4.8-2.6-8.3
		c0.7-0.8,1.3-1.5,2.4-1.7c5.1,1.8,10.6,2.1,15.9,3.2c3.2-5.3,6.2-10.4,9.3-15.5c2.9-5,8-6.9,13-8.4c6.4-1.8,13.1-1.9,19.5-0.1
		c14.9,4.2,24.1,20.1,21.2,35c9.2,1.6,18.5,3.2,27.6,4.8c1.3-0.9,1.2-2.3,1.9-3.3c1.4-1.9,2.9-2.9,5.3-2c2.5,0.9,5.2-0.1,7.9,0.6
		c1-1.8,2-3.5,4-4.5c2.1,1.1,4.4,1.8,5.7,4.3c0.9,1.8,3.2,2.4,5.2,3.4c-1.6,1.1-3.1-0.2-4.6,0.6c-2.8,4.5-5.7,9-8.6,13.6
		c-1.1-1.5-0.1-2.4,0.6-3.4c2.4-3.4,4.7-6.9,6.5-10.6c-0.7-0.6-1.5-0.6-2.2-0.7c-5-0.6-6.6,0.4-7.9,5.2c-0.6,2.4-1.7,4.5-2.7,6.7
		c-0.5,1-1,2.2-3.1,2.3c2.5-5.3,4.3-10.5,7.6-15.1c-0.9-0.8-2.1-0.3-3.1-0.5c-3.7-0.5-4.6,0.2-5.3,3.8c-0.6,3-1.7,5.9-2.7,8.8
		c-0.5,1.3-1.2,2.5-2.7,3.1c2.7-5.1,2-11.4,6.1-16.1c-3.7-0.6-4.8,0.1-5.4,3c-0.9,4.7-2.1,9.4-4.5,13.6c-1.2,2,0.9,3.7,0.2,5.6
		c0.5,0.3,0.8,0.7,1.2,0.8c6.7,0.9,10.8,6.4,16.4,9.2c6.4,3.2,12.8,7,20.6,4.8c0.3-0.1,0.7-0.1,1-0.1c8.4,0.6,16.6-1.5,24.9-1.9
		c1.4-0.1,2.9-0.2,4.3,0.1c6.9,1.5,13.7,0,20.5-1.1c0.7-2.6-1.5-2.3-2.8-2.5c-9.8-1.9-19.6-3.8-29.4-5.7c-2.3-0.5-4.5-1.1-6.3,0.8
		c-1.1-0.5-0.1-1.2-0.5-1.9c-1.1-0.7-2.4-0.9-3.7-0.8c-0.3,0.9,0.8,1.6,0.1,2.7c-1.8-0.7-1.5-3.8-4.3-3.5c0.3,2.6,1.8,5.5-1.5,8
		c-0.5-3.1,0.3-5.8-0.6-8.4c-1.5-1-3.3-0.7-4.6-1.1c-1.3,0.1-1.6,1.3-2.5,1.4c-0.8-0.5-1-1.4-1.3-2.3c-1.4,0.7-0.4,2.8-2.1,3.1
		c-1-1.3,0.4-2.7-0.1-4c-0.7-0.6-1.3,1-2,0.1c1.1-5.1,2.2-10.2,4.7-14.9c0.7,0.3,1.1,0.9,1.3,1.5c-0.1,0.8-1.3,0.5-1.1,1.6
		c1.4,0.5,2.9,1,4.6,1.6c0.7-3.6-1.4-5.3-4.5-6.6c3.8-0.3,5.3,1.4,6.5,6.9c5.7,1,11.5,2,17.4,2.9c2.2,0.3,4.1-1.2,5.8-2.4
		c1.5-1.1,3-2.2,4.7-3c5.9-2.9,11.6-6.4,16.8-10.4c5.1-3.9,10-8.2,14.3-13c1.6-1.8,2.8-3.9,3.2-6.4c0.1-0.6,0.2-1.3,1-1.5
		c1.7,2.9,1.2,3.9-7.2,14.9c1.8,0.6,3.3-1.1,5.2-0.1c-13.9,5.5-25.1,15.5-38.4,22.1c0.1,0.3,0.2,0.6,0.2,0.9
		c9.8,1.8,19.5,3.5,28.8,5.2c2-0.3,2-2.4,3.6-2.3C803.8,369.8,803.2,370.6,803.3,371.3c-0.6,5.7-1.9,11.4-1.7,17.1
		c0.2,4,0.5,4.1,4.4,5.2c7.4,2.2,14.9,4,22.2,6.6c3.7,1.3,7.6,2.1,11.4,3.2c4.6,1.4,9.1-0.1,13.6-1.1c6.4-1.4,12.5-4.1,18.4-3.1
		c-1.3,0-3.4-0.1-5.5-0.3c-1.9-0.2-3.7-0.4-5.4,0.8c-1.1,0.8-2.3,0.6-3.2-0.5c-3.7-4.2-8.9-4.1-13.7-3.7
		c-6.8,0.5-13.8-4.8-13.8-11.5c0-2.8-0.4-5.5-0.7-8.2c-0.1-1.1-0.2-2.3,1-2.9c1.4-0.6,2.3,0.1,2.9,1.3c0.6,1.1,1.8,1.5,2.8,2.2
		c4.7-1.4,8.6,1.6,12.8,2.6c0.8,0.2,1.5,0.9,2.4,0.8c9.6-0.5,18.6,2.6,28,3.8c4.1,0.6,8.2,1.3,12.3,2.1c2.9,0.6,4.6-0.4,5.6-3.1
		c0.6-1.6,1.3-3.2,2.1-4.9c3.4-7.8,9-13.9,14.9-19.8c2.3-2.3,4.2-5.2,8.1-5.6c1.5-0.1,2.4-1.8,3.1-3.2c2-4.4,3.9-8.8,4.7-13.6
		c0.9-4.9,2.3-9.6,4.6-14.1c1.3-2.6,1.7-5.5,2-8.3c0.9-8.9,2.1-17.9,3-26.8c0.1-0.9,0.4-1.8,0.2-2.6c-1.6-7,0.3-13.7,2-20.3
		c1.3-4.8,3.4-9.4,3.6-14.5c0-1.2,0.8-2.1,2.2-2c1.3,0.1,1.9,1.1,1.9,2.3c0.3,7.4,0.9,14.7-3.4,21.4c-2.3,3.5-2.1,7.1-0.1,11.4
		c4.6-2.6,7.5-6.2,8.7-10.7c1.8-6.8,2.8-13.8,3.6-20.8c0.3-2.6-0.2-5-1.3-7.4c-0.8-1.8-1.5-3.6-2.3-5.5c-2-5.3-2-5.3-6.8-9.5
		c1.4,2.7,2.2,4.9,2.7,7.3c0.3,1.3,0.4,2.6,0.2,3.9c-0.2,1.6-1.1,2.7-2.8,2.6c-1.5-0.1-2.1-1.2-2.4-2.7c-0.8-5.5-2.6-10.6-5-15.6
		c-3.6-7.5-10.5-11.3-17.3-15c-5.1-2.8-11-2.8-16.6-3.1c-1.8-0.1-3.1,1-3.9,2.6c-6.8,13.3-12.2,27.1-13.4,42.1
		c-0.5,5.8-0.2,11.9,1.5,17.6c0.8,2.7,1.4,5.5,1.8,8.4c0.1,1,0.4,2-0.4,2.8c-4,0.6-4.2,0.4-5.6-3.1c-2.4-5.9-2.9-12.1-3-18.4
		c-0.1-10.7,1.5-21.2,4.8-31.3c1.9-5.6,4.6-10.9,7.4-16.1c0.7-1.3,1.8-2.6,0.9-4.5c-1.9-0.7-2.8,0.6-3.3,2.1c-1.5,4-3.2,8-4.2,12.1
		c-2.2,8.8-4.1,17.8-5.2,26.8c-0.5,4.2-1.5,8.1-3,12.1c-2.3,6-4.2,12.2-8.4,17.3c-2.3,2.8-4.6,5.7-7.8,7.5
		c-4.4,2.5-8.1,1.7-11.3-2.3c-4.8-6-7.7-12.7-7.5-20.6c0-1,0.2-2-0.5-3.2c-0.4,2,0,3.7,0.1,5.4c0.3,8,1.5,16-1.8,23.7
		c-1,2.3-0.1,4.3,1.2,6.2c3.4,5,7.6,9.3,12.3,13.2c5.1,4.1,10,8.6,14.7,13.2c3.9,3.8,6.6,8.5,8.3,13.7c0.7,1,1.9,1.1,2.8,1.7
		c-0.9-0.6-2-0.6-2.7-1.5c1.3-3.1,1.5-6.4,2.3-9.6c0.3-1.3,0.9-2.3,0.5-3.7c-1.7-5.3-2.2-10.6-0.7-16.2c0.7-2.7,0.2-5.6,1.1-8.4
		c1.7-5.2,3.8-10.2,5.2-15.3c4.1-0.4,5.3,0.9,4.4,4.8c-0.8,3.9-1.7,7.7-2.6,11.6c-2.1,8.4-2.3,16.8-1.9,25.4c0.3,4.8,2.6,9,2.8,13.7
		c0.1,1.5,1.1,3.3,3.2,4.2c1.8,0.7,2.1,2.7,1.6,4.5c-0.6,2.1-1.5,3.9-2.8,5.7c-3.4,5-7.4,8.8-12.8,11.8c-7.1,3.9-13.9,8.3-20,13.9
		c-1.5,1.3-3.2,2.4-4.8,3.4c-2.8,1.7-10,0.7-12-1.6c-0.5-0.5-0.5-1.2-0.5-1.8c-0.1-3.3-1.8-5-5.4-5.5c-1.2,1.1-0.4,2.4-0.3,3.7
		c0.2,1.5,0.4,3.2-2,3c-0.7-0.5-1.9-0.7-2.1-1.5c-1.8-4.8-5.8-2.6-8.9-2.7c-2-0.1-2.9,1.8-2.7,3.8c0.2,2.9-0.5,5.7-0.4,8.5
		c0,0.8-0.1,1.5-0.4,2.3c-0.5,1.4-1.1,2.8-2.9,2.5c-1.7-0.3-1.8-1.9-1.7-3.2c0.4-3.7,0.5-7.4,0.5-11.2c0-1.2,0.3-2.5-1-3.5
		c-2.6-0.2-3.2,1.8-3.4,3.8c-0.4,3.2-0.9,6.3-1,9.5c-0.1,1.4-0.1,3.1-2,3.3c-2.2,0.1-2.7-1.8-2.8-3.3c-0.2-3.9,0.5-7.8,0.2-11.8
		c0.1,3.6,0,7.2-0.2,10.8c0,0.6,0,1.2,0,1.9c0,1.3-0.3,2.5-1.8,2.6c-1.5,0.1-2.1-0.9-2.3-2.3C802.5,381.1,802.2,376.2,803.3,371.3z"
		/>
	<path d="M387.8,244.8c4.5,0.9,8.7-0.3,12.8-2.3c0.7-0.3,1.3-0.1,1.7,0.8c-1.1,2.3-4.3,1.6-6.1,4.1c3.1-0.9,5.3-0.9,7.5,1
		c0.8,0.7,2.5,0.4,3.2,0.5c9.3-4.1,14.8-11.1,17.5-20.8c1.2,2.3-0.1,3.7,0,5.4c1.4-0.7,1.3-2.6,2.8-3.1c0.8,4.2-4.3,5.1-4.9,8.5
		c9.4,6.3,9.6,6.5,9.2,9.7c-3.7-2.3-5.7-6.8-10.9-7.2c-3.2,3-6.5,6.2-10,9.6c1.1,9.9,2.1,20,9.4,28c1.5,0.1,2.5-0.6,3.5-1.3
		c6.7-4.5,10.5-11,13.3-18.5c4.1-10.7,4.9-22,7.7-32.9c1.5-5.8,2.7-11.8,4.3-17.6c0.8-2.9,2.1-5.5,3.6-8.3
		c-3.5-1.6-7.1-1.3-10.6-1.4c-3-0.1-5.9-0.6-8.5-2.1c-1.5-0.9-2.9-0.8-4.5-0.3c0.7,2.1,1.4,4.1,2,6.1c-2.2-2.7-3-6.9-7.7-7.1
		c2.7,5.5,0.3,10.3-0.8,15.3c-1.3,0.5-2.4,1.2-3.4,0.2c-0.3-1.6,1.2-1,1.9-1.7c-0.5-2.4,0.5-4.8,1-7.2c0.6-3.3,0.2-4.1-2.9-6.1
		l0.1,0.1c-1.2-1.1-2.8-1.7-4.4-2.1c-3.1-0.9-5.9,1.2-6.1,4.4c-0.2,2.6,0.3,4.8,2.7,6.2c0.7,0.4,1.4,1,2,1.7c1.3,1.5,2.5,3,3.7,4.5
		c-0.6,1.5-1.5,1.3-2.4,0.8c-5.9-3.1-11.9-2-17.8-0.5c-6.9,1.8-14.1,2.2-21.6,4.5c-2.5,4.7-6.6,9.1-11.7,12.3c0.1,1.7,1.6,2,2.1,3.4
		c3.5-1.4,6.7-0.6,10,1c-0.8,1.1-1.9,1.5-2.9,0.9c-2.6-1.6-5.1-1.6-7.4-0.3c-1.9-0.7-2.4-2.2-4-3.2c-4.1,2.6-9,1.6-13.9,1.9
		c-1.2-3,1.8-2.2,2.8-3.1c1.2-1,2.7-1.8,4-2.9c-3.5,1.4-7.1,1.7-10.8,1.9c-1.1-1.3,1.4-1.5,0.7-2.9c-2.1,2.1-5.1,0-7.4,2.4
		c-0.3-2.3,1.4-2.7,1.7-4.1c-0.7-0.5-1.7,0.6-2.4-0.4c-0.6-1.2,0.1-2.8-1.6-3.9c1.9-0.4,3.3-0.3,4.4-1.8c-2.3-0.4-4.7,0.1-6.7-2
		c2.3-0.7,4.2-0.2,6.4-0.5c-1.8-1.7-4.2-0.6-6-1.9c0.1-1.6,1.7-1.9,2-2.9c2.2-0.5,4,1.3,6.1,0.4c-0.2-1.6-1.9-0.9-2.2-1.9
		c0.4-1.8,2.7-1.2,3.4-2.6c0.4-5.3-2.1-11,1.7-17.2c-0.1-1.6,0.2-4.3,0.8-7c0.1-0.7,0.4-1.6,0.2-2.3c-2.1-5.4,2.1-8.4,4.8-11.5
		c2.1-2.4,4.5-4.7,7.2-6.2c0.2-1-0.7-1.5,0-2.6c3-0.5,3.7-4,6.3-5.9c-0.6-2.1-1.6-4.4,0.8-6.3c1.8,0.7,1.7,2.4,2.7,3.4
		c3.4-2.4,4.3-2.2,5.8,1.5c0.9-1,1.7-2,2.6-2.8c2.2-1.8,3.1-1.7,4.9,0.6c0.7,0.9,1.5,1.4,2.4,0.7c2.5-1.8,5.2-1.1,7.6-0.5
		c5.7,1.2,11.2,3.3,15.4,7.7c0.2,0.2,0.4,0.6,0.7,0.7c5.8,1.1,7.6,6.4,10.3,10.5c2.4,3.7,4.8,7.3,8,10.4c1.6,1.6,2.9,3.2,3.5,5.5
		c0.5,1.9,1.8,3.2,3.4,4.3c1.1,0.7,2.4,1.2,3.2,2.2c0.3,0.6,0.2,1.1-0.2,1.6c-0.3,0.4-0.2,0.8-0.1,1.3c1.8,2.3,4.2,3.3,7.2,3.2
		c2.6-0.1,5,0.6,7.4,1.1c3.2,0.6,6.4,0.7,9.7,0.8c4.8,0.2,9.7-0.2,14.4,0.7c7.9,1.5,16.1,2.6,22.3,8.8c2.9,2.9,6,5.4,9.1,8
		c2.9,2.4,5.9,4.6,8.8,6.9c2.5,1.9,4.3,4.3,5.6,7.2c2.2,4.8,4.5,9.5,6,14.6c0.7,2.5,2.5,4,4,5.9c3.2,4.2,5.5,9,7.5,13.8
		c3.5,8.3,6.2,16.9,9.2,25.3c4.6,12.9,8.1,26.2,13,39c0.6,1.6,1.5,3.2,0.4,5c-0.5,0.8,0.2,1.7,0.4,2.5c0.9,3.7,1.8,7.5,2.7,11.2
		c0.5,2.3-0.7,4.8,0.8,7c0.6,0.9,1,1.8,2,2.5c5,3.2,8.3,11.1,6.8,17c-0.8,3.4-1.2,6.9-1.6,10.4c-0.4,4-1.7,7.7-3.8,11.1
		c-1.1,1.9-2.1,3.8-2.3,6.2c2.9,1,5.8-0.7,9.2,0.4c-3.3,1.6-6.6,1.5-9.7,2c-1.3,1.8-1.5,4-2.3,6.3c3.3,0.7,6.5,0.1,10.3,0.5
		c-3.5,1.6-6.5,2.1-9.5,2.7c-1.5,0.3-2.5,0.9-3.3,2.3c-2.1,3.8-5,6.9-9.4,8.3c-0.9,0.3-1.8,0.9-2.5,1.6c-3.3,3.6-7.3,5.9-12.1,6.7
		c-0.5,1.2-0.1,2.2,0.3,3.7c4.5-0.2,9-0.3,13.5-1.1c7.9-1.4,15.7-2.8,23.7-3.4c3.7-0.3,7.5-0.7,11.2-0.7c0.5,0,1.1-0.1,1.7,0.4
		c-0.7,1.2-2,1.5-3,1.5c-8.5-0.5-16.3,2.7-24.6,3.6c-12.1,1.3-24,3.7-36,5.1c-1.7,0.2-3,1.5-5,0.8c0,0.3,0.1,0.6,0.1,0.9
		c8,0.9,16,1.9,24,2.8c15.2,1.8,30.3,3.5,45.5,5.2c2.3,0.3,3.8,1.3,4.7,3.5c0.8,2.1,1.5,4,1.5,6.3c0,4.5-2.9,7.5-7.4,7
		c-7.7-0.9-15.5-2-23.2-3c-13.7-1.8-27.4-3.7-41.2-5.5c-0.7-0.1-1.5-0.1-2.5-0.1c-1.4,10.1-5.7,18.9-12.9,26.5c3.4,4,2,8.2,0.7,12.6
		c-2.9,10.1-7.2,19.5-11.7,29c-8.8,18.8-18.9,36.9-27,56c-1.4,3.2-3.3,6.2-5.3,9.1c-1,1.4-2.4,2-3.6,2.9c-1-1.1,0.1-1.9,0-2.7
		c-2.8-0.9-5.7-1.2-8.5-0.1c-0.3-1.8,0.6-2.7,2.3-3c1-0.2,2-0.6,2.9-0.6c4.5,0.3,6.6-2.4,8.2-6.1c4.8-11.1,9.7-22.1,15.2-32.9
		c5.9-11.7,11.1-23.6,16.9-35.3c3-6,5.4-12.2,6.5-18.9c0.2-1.4,0.9-2.8-0.6-4.4c-4.9,1-9,5.3-14.6,4.3c-5.2-0.9-10.3-2.1-15.2-4.2
		c-5-2.1-9-5.3-11.4-9.8c0.4,1,0.2,2.5-0.1,4.1c-0.3,1.5,0,3.1-0.4,4.6c-3.8,12.4-3.6,25.4-6.4,37.9c-1.6,7.5-3,15.1-4.7,22.6
		c-0.3,1.2-0.6,2.4-0.6,3.6c0.1,7-0.7,14-1.3,21c-0.4,3.8-0.3,7.6,2,11.1c1.1,1.7,1.5,3.9,1.4,6c2.1,2.9,5,5.3,5.9,9.1
		c5,1.1,10,2.2,15,3.3c2.2,0.5,4.5,0.9,6.7,1.4c0.9,0.2,2.4,0.2,2.2,1.9l0.1-0.1c-6-0.1-11.8-1.5-17.3-3.7c-2-0.8-4-0.8-6.3-1.6
		c0.5,4,0.2,7.7,2.5,11.1c2.2,3.3,1.3,4.4-1.3,7.2c-5.8,6.2-13.6,7.7-21,10.2c-2.3,0.8-4.5,1.6-6.5,3.1c-4.5,3.3-9.3,5.8-14.9,6.6
		c-2.6,0.4-5.1,1.4-7.4,2.6c-3,1.6-6.2,2.3-9.5,2.1c-7.4-0.4-14.9-0.7-22.2-2.8c-2.8-0.8-5.8-1-8.5-2.4c-2.3-1.2-3.7-2.7-3.9-5.5
		c-0.5-7.4,0.7-10,7.3-13.4c4.9-2.5,9.5-5.4,13.3-10.3c-3.7,0.9-6.9,1.7-10.2,1.4c-2.3-0.2-4.6-0.6-6.9-0.7
		c-5.4-0.3-10.4,1-15.3,3.1c-7,3-14.2,5.4-21.7,6.7c-3.2,0.5-6.2,1.8-9.6,2.2c-9.5,0.9-18.2-2.6-27.2-4c-2.2-0.3-3.6-1.9-4.2-4.1
		c-0.9-3-2.6-5.8-1.3-9.2c0.3-0.8,0.5-1.6,1.4-2.1c5.2-2.5,10.5-4.9,15.6-7.6c7.4-3.7,14.4-7.9,19.6-14.6c1.9-2.5,4.6-4.4,7.2-6.2
		c1.7-1.2,2.8-2.8,3.4-5c1.6-5.6,5.2-10,9.8-14c-1.1-10.4-1.7-21.1-3.8-31.5c-1.1-5.7-1.7-11.5-1.9-17.3c-0.1-3.9-1.4-7.5-2.2-11.3
		c-2.6-13.3-3.8-26.7-3.6-40.2c0.1-3.2,1.8-6.1,1.2-9.4c-0.9-4.2-1.3-8.4-0.4-13c-5.6-0.8-10.9-1.5-16.1-2.2c-8.8,6.9-13.4,8-20,5.4
		c-5.5,1.4-10.6,3-16.1-0.3c-2.1,1.6-3.6,0.2-5-1.8c-1.9-2.6-2-5.5-1.7-8.9c-12.6-1.7-25-3.3-37.7-5c-1.9,5.5-5.3,10-8.7,14.6
		c-2.8,3.9-6.7,5.9-10.8,7.6c-1.6,0.7-3.3,1.2-4.9,1.9c-8.9,3.3-17.4,3.2-25.4-2.5c-5.9-4.2-9-10.4-11.3-16.9
		c-1.4-4.1-1.6-8.4-2-12.7c-4.2-1.1-8.4-1.2-12.5-1.9c-0.5-0.1-1.1-0.1-1.6-0.2c-3.7-0.5-5.2-1.5-5.7-4c-0.5-2.4,0.8-4.5,3.8-6.2
		c5.1,1.7,10.6,1.4,15.8,2.4c2.8-5.5,5.3-10.8,8.2-15.8c3.8-6.6,10.3-9.3,17.4-10.6c2.7-0.5,5.5-0.4,8.2-0.6
		c8.8-0.7,15.9,3.3,21.6,9.4c6.3,6.8,9.5,14.9,8,24.8c11,1.1,21.6,2.9,32.3,3.1c2.5,0.5,3.8,3,6,4.1c2.4-1.2,2.8-2.4,2.3-6.3
		c-1.6-0.4-2.8,1.8-4.6,0.8c2.2-3.1,4.8-3.4,7.3-0.7c0.5-0.7,1-1.5,2-1.6c1.1,0.5,1.2,1.8,2,2.7c0.7,0.5,1.9-0.1,2.7,1.1
		c1.2-2.1,3.9-1.3,4.8-3.3c1.4,0.3,0.2,1.8,1.5,2.1c0-4.1,2.5-6.2,6.4-7.8c0.2,3.6-3.1,4.9-3.4,7.6l0.1-0.1c-2.4,1.5-0.6,3.2-0.3,5
		c7.4,0.8,14.8,1.7,22.4,2.5c0.5-2.3,0.6-4.4,1.7-6.2c-0.7-1.7-1.4-3.2-2.3-5.2c2.3,0.3,2.6,2,3.3,3.2c6-5,11.8-10.4,18.2-14.9
		c8.7-6.2,17.7-12,28.3-15c8.6-2.5,16.2-7.5,23.8-12.6c5.4-3.6,9.1-8.5,12.8-13.5c1.2-1.6,1.6-3.6,2.1-5.5
		c1.6-6.2,3.6-12.2,5.8-18.2c2.2-6.1,3-12.3,3-18.7c0-1.8,0.3-3.7,0.5-5.8c-3-2.9-6.2-5.9-9.7-9.3c-0.5,5.7-3.5,10.1-4.1,15.2
		c-0.2,1.6-1.5,2.9-3,4.1c-0.2-4.1,2.9-7,3-10.8c0.1-3.7,1-7.4,1.9-10.8c-4.2-8-9.9-14.9-15.2-22.8c-0.8-0.4-2.3-1.2-4-2.1
		c6.7-1,9,3.8,11.6,8c1.1,1.8,2,3.6,3.8,5.2c1-2.9,2.6-5.5,2.3-8.5c-0.7-8.4,0.5-16.6,0.8-25.1c-3-2.1-6.7-2.2-10.2-3.3
		C391,247.1,389.1,246.5,387.8,244.8L387.8,244.8z"/>
	<path d="M478.9,608c6.7-3.1,14.3-2.8,21.5-5.7c-1.3-1.2-2.7-1.1-3.8-1.4c-4-1.1-8.1-1.6-11.5-4.3c-1-0.8-2.4-0.9-3.7-1.3
		c4.6-7.9,9.1-15.8,14.1-23.4c8.9-13.6,17.4-27.4,26.1-41.1c3.1-4.9,6.5-9.6,9.6-14.6c0.8-1.3,2.2-1.3,3.2-2.1
		c6.7-5.1,13.6-3.6,20.5-0.5c6.4,2.8,11.6,7.5,17.1,11.6c1.7,1.2,3.4,2.4,5.2,3.3c8.3,4.1,15.8,9.4,22.7,15.6c1.1,1,2.2,2,2.8,3.7
		c-1.6,0.2-2.4-0.8-3.3-1.4c-6.2-4.4-11.7-9.7-18.4-13.3c-7.1-3.7-13.5-8.5-20-13.3c-5.4-4-12-6.4-18.7-6.6
		c-4.1-0.1-8.3,2.3-10.7,6.2c-11.5,18.6-23.6,36.8-35.3,55.2c-3.6,5.6-7.5,11.1-10.5,17.1c-0.5,1-1.3,1.7-2.1,2.6
		c4.5,3,9.7,3,14.6,4.2c3.9,1,4.7,1.2,6.4,3.2c-2.1,2.4-5,3.5-7.9,4.2c-5.9,1.5-12.2,1.4-17.7,3.8
		C478.2,609.2,479.2,608.5,478.9,608L478.9,608z"/>
	<path d="M918.1,610c6.7-3.1,14.5-2.6,21.2-6c-6.6-1.3-12.8-3.4-18.5-7c4.3-7.6,8.9-15.4,13.8-23c8.8-13.6,17.4-27.4,26.1-41.1
		c3.1-4.9,6.5-9.6,9.6-14.6c0.8-1.3,2.2-1.3,3.2-2.1c6.8-5.2,13.8-3.5,20.8-0.4c6.3,2.8,11.4,7.4,16.8,11.5c1.7,1.2,3.4,2.3,5.2,3.4
		c3,1.7,5.9,3.3,8.9,5c1.5,0.9,1.5,1,1.5,3.6c-6.8-4.6-14.3-7.6-20.4-12.8c-6.9-5.8-14.6-9.5-23.5-11.1c-1.2-0.2-2.4-0.2-3.5,0.3
		c-4.3,1.9-7.7,4.5-10.3,8.7c-12.1,19.2-24.5,38.2-36.8,57.4c-2.4,3.7-4.6,7.5-6.7,11.3c-0.7,1.3-1.9,2.2-2.5,3.5
		c4.4,2.9,9.7,2.8,14.5,4.2c2.2,0.6,4.8,0.6,6.5,3.2c-2.5,2.6-5.7,3.8-9,4.5c-3.3,0.7-6.7,1.2-10.1,1.6c-2.4,0.3-4.5,1.6-6.7,1.9
		C917.3,611.1,918.3,610.5,918.1,610L918.1,610z"/>
	<path d="M372.6,326.2c-0.3,6.6-4.1,10.8-8.3,15.1c2,0.7,3.6-1,5.5-0.3c-2.2,2.1-4.8,3.4-7.4,4c-4.8,1.3-8,4.7-10.9,8.1
		c-6,6.9-12.8,13-19.2,19.4c-4.6,4.6-9,9.5-13.3,14.4c-2.1,2.5-5.2,4.1-8.4,5c-4.7,1.5-9.3,3.2-13.7,5.5c-4.4,2.3-9.1,3.7-14,4.6
		c-2.2,0.4-4,1-5,3.5c-1.5,3.8-5.4,4.9-8.1,7.5c-1-1.5-0.1-2.1,0.4-2.8c2.6-3.4,5.5-6.6,8.7-9.4c1-0.9,2.3-1.3,3.6-1.6
		c14.3-3.2,27-9.5,38.6-18.3c3.8-2.9,6.3-7,9.6-10.4c5.7-5.9,12.2-10.9,17.4-17.2c5.2-6.2,11.2-11.6,17.3-17
		c2.6-2.3,4.5-5.1,5.2-8.5C370.8,327.4,370.8,326.7,372.6,326.2z"/>
	<path d="M818.4,333.8c-0.9-0.9-1.8-1.9-2.8-2.7c-4.1-3.2-6.1-7.4-6.3-12.5c-0.2-3.7-0.7-7.4-1.2-11.1c-0.9-7,0.6-13.7,2.8-20.3
		c0.2-0.6,0.4-1.2,0.7-1.8c1.7-3.5,2-6.7,0.4-10.6c-4-9.4-3.2-19.3-2-29.1c0.4-3.5,2.6-6.2,3.9-10c3.2,3.4,4.3,8.1,8.3,11
		c3.4-0.1,5.6-3.3,8.9-4.7c0.6,3.5-3,3.1-4,4.9l0.1-0.1c-6.2,2.8-7.2,2.4-10.6-3.9c-0.6-1-1.1-2.1-1.8-3.5c-1.5,2.9-1.8,5.7-2,8.4
		c-0.3,4.7,0,9.4-0.9,14.1c-0.6,3.1,0.3,6.4,1.7,9.3c2.3,5,2,10,0.9,15.1c-1.4,6.2-2.2,12.5-3.5,18.8c-0.5,2.4,0.6,4.5,0.8,6.7
		c0.3,4.4,0.3,8.8,0.7,13.3c2.8,2.3,4.6,5.4,6.3,8.5L818.4,333.8z"/>
	<path d="M379.3,331.9c-6.7-4.9-8.7-11.6-9.7-19.8c-1.3-11.2-0.3-21.6,4-31.8c0.8-1.8,0.8-3.5,0-5.4c-4.6-10.4-4.1-21.3-2.6-32.3
		c0.4-3.1,2.6-5.5,3.6-9.1c3.3,3.4,4.4,8.2,8.3,11c3.5,0,5.6-3.4,8.9-4.6c0.6,3.4-3.1,3-4,4.8l0.1-0.1c-6.2,2.8-7.2,2.4-10.6-3.9
		c-0.6-1-1.1-2.1-1.8-3.5c-1.5,2.9-1.8,5.7-2,8.4c-0.3,4.7,0,9.4-0.9,14.1c-0.6,3.1,0.3,6.4,1.7,9.3c2.3,5,2,10,0.9,15.1
		c-1.4,6.2-2.2,12.5-3.5,18.8c-0.5,2.4,0.6,4.5,0.8,6.7c0.3,4.4,0.3,8.8,0.7,13.3c2.8,2.3,4.6,5.4,6.3,8.5L379.3,331.9z"/>
	<path d="M592.2,434.7c1.8-0.1,1.9,1.4,2.2,2.6c0.5,2,1,4.1,1.3,6.1c1.6,11.2,7,20.6,13.8,29.4c3.8,5,7.2,10.2,11,15.2
		c1.8,2.3,2.1,4.4,1.4,6.5c-6.6-8.4-13.1-16.9-18.8-26c-5.9-9.2-9.9-19.2-10.7-30.3c-0.1-1.1-1-2-0.5-3.1
		C591.9,434.9,592,434.9,592.2,434.7z"/>
	<path d="M418.9,195.9c0.4,1.5,2.5,2.2,1.8,4.2c-1.4-0.2-2-1.5-3.3-2.3c-0.1,1.1-0.3,2.1-0.9,2.8c-0.1,0.1-0.2,0.1-0.2,0.1
		c-0.1,0,0,0,0.1-0.2c0.9,0,1.7-0.1,3-0.1c-0.9,2.1-0.5,3.9-0.3,6c-2.3,0.2-4.1-0.1-4.6-2.6c-4.1-1.2-4.5-1.6-4.3-5.7
		c0.1-3,2.4-4.6,5.1-3.3C416.5,195.3,417.6,195.9,418.9,195.9L418.9,195.9z"/>
	<path d="M858,197.8c0.4,1.5,2.5,2.2,1.8,4.2c-1.5-0.1-2-1.7-3.3-2.1c-0.1,1-0.2,1.9-0.9,2.6c-0.3,0.3,0.2-0.1-0.2,0.1
		c-0.1,0,0,0,0.1-0.2c0.9,0,1.7-0.1,2.9-0.1c-0.7,2.1-0.7,3.9-0.1,5.8c-3.4,0.2-3.4,0.2-4.9-2.4c-4-1.1-4.3-1.6-4.2-5.7
		c0.1-3,2.4-4.6,5.1-3.3C855.6,197.3,856.8,197.9,858,197.8L858,197.8z"/>
	<path d="M375.9,232.4c5.1-3.3,10.7-5,15.5-7.7c0.8,0.4,1,1,0.8,1.4c-1.2,2.8-7.3,6.5-10.2,5.8c-1.4-0.3-2.3-0.1-3.3,0.4
		C378,232.8,377.2,233.2,375.9,232.4z"/>
	<path d="M815.2,234.3c4.9-3.2,10.5-4.9,15.4-7.6c0.7,0.5,0.9,1,0.7,1.6c-1.1,2.4-7.3,6.4-10,5.8c-1.6-0.4-2.7,0.1-3.9,0.6
		C816.8,234.9,816.1,235.2,815.2,234.3z"/>
	<path d="M413.8,249.1c0.4-1,1.1-1.3,1.7-0.8c2.2,1.7,4.9,1.6,7.3,2.6c1.9,0.8,4.1,1.3,5.2,4.4C422.2,254.8,418.5,250.7,413.8,249.1
		z"/>
	<path d="M867.2,257.1c-3.4,0.3-5.4-1.6-7.7-2.6c-2.3-1-4.2-2.7-6.5-3.4c0.4-1,1-1.3,1.6-0.8c2.3,1.7,5.2,1.7,7.6,2.7
		C864,253.7,866.1,254.3,867.2,257.1z"/>
	<path d="M587.5,402.7c-2.4,0.9-12,0.4-14.1-0.8C574.7,401.1,584.9,401.7,587.5,402.7z"/>
	<path d="M594.4,409.7c-3.8,2.9-8.1-1.1-11.9,0.9C586.2,407,590.4,410.2,594.4,409.7z"/>
	<path d="M879.1,225.1c0,4.5-3.6,7.9-3.9,12.3C875,232.8,877,228.9,879.1,225.1z"/>
	<path d="M440.3,222.9c0.1,2.6-1,4.5-2.2,6.4c-1.2,1.8-0.8,4.2-1.8,6.3C435.3,233,437.6,225.6,440.3,222.9z"/>
	<path d="M402,355.1c-0.4,3.8-3.2,6-5.7,8.5C398,360.6,399.1,357.3,402,355.1z"/>
	<path d="M395,354.3c-0.5,3.9-1.5,7.5-4.4,10.4C391.9,361.2,392.4,357.4,395,354.3z"/>
	<path d="M598.8,427.7c-1.6,1.6-3.2,2.8-5.5,2.9c-2.2,0.1-4.5-0.5-6.7,0.2c1-1.9,2.8-2.1,4.4-1.6c2.3,0.8,4.2,0.4,6-1.2
		C597.3,427.5,597.9,427.1,598.8,427.7z"/>
	<path d="M829.5,366.2c1.3-3.4,2.5-6.7,4-10.7C834.5,358.8,832.7,363.7,829.5,366.2z"/>
	<path d="M1012.6,403.7c3.1-1.4,6,0.4,8.9,0.3C1019,405.5,1015.4,405.4,1012.6,403.7z"/>
	<path d="M352.4,359.4c2-3.5,5.5-3.6,9-3.6C358.8,358,355.4,358.2,352.4,359.4L352.4,359.4z"/>
	<path d="M376.4,346.7c-2.3,3.4-5.6,5.2-9.4,6.3C370,350.7,373.5,349.1,376.4,346.7z"/>
	<path d="M917.9,596c-2.6,2.2-5.8,2-8.7,2.6C911.8,596.6,915,596.6,917.9,596z"/>
	<path d="M479.3,594c-2.5,1.7-5.9,2.6-9.2,2.6C471.8,595.1,475,594.1,479.3,594z"/>
	<path d="M806.6,354.7c2.7-2.4,6.2-3.7,9-6c-2.3,3-5.1,5.2-8.9,6.1L806.6,354.7z"/>
	<path d="M352.3,359.4c-0.1,0.5-0.1,1.1-0.6,1.4c-2.3,1.2-4.9,2-7,3.6C346.2,361,349.5,360.6,352.3,359.4L352.3,359.4z"/>
	<path d="M572.3,411.7c2.4-1.8,4.6-1.6,7.5-1.2C577.2,411.9,575.2,412.4,572.3,411.7z"/>
	<path d="M326.1,383.4c-0.9,2.1-2.5,3.2-5.1,3.1C322.1,384,324,383.7,326.1,383.4z"/>
	<path d="M442.2,218.9c-0.2-2.2,0.7-3.9,2-6.2C445,215.7,443.3,217.2,442.2,218.9z"/>
	<path d="M881.4,220.8c-0.3-2.2,0.8-3.8,1.9-5.5C884,217.6,882.5,219.2,881.4,220.8z"/>
	<path d="M384.8,370.1c0.5-1.8,1.7-2.8,3.8-3.7C388.1,368.9,386.3,369.4,384.8,370.1z"/>
	<path d="M816,334.3c1.3,3.4,1.1,4-1.3,5.4c-0.4-1.1,0.4-1.9,0.7-2.7C815.7,336.1,815,335.2,816,334.3z"/>
	<path d="M375.4,338.1c0.4-2.2,1.6-3.7,1-5.5C378.4,334.7,378.2,336,375.4,338.1z"/>
	<path d="M728.1,381.7c-2.2-0.8-3.6-2.5-5-4.2C725.2,378.3,726.8,379.9,728.1,381.7z"/>
	<path d="M308.9,415.6c2.1-0.4,3.9,0.1,5.8,2.3C312.1,417.5,310.5,416.6,308.9,415.6z"/>
	<path d="M873.7,256.3c-2.8,1.4-2.8,1.4-5-0.3C870.6,255.2,872.2,255.9,873.7,256.3z"/>
	<path d="M435.1,254.3c-2.1,1.4-3.7,1.6-5.8-0.1C431.4,253.3,433,253.9,435.1,254.3z"/>
	<path d="M383,369.9c0.9,3.2-1,3.6-3,4.5C380.5,372.3,381.9,371.6,383,369.9z"/>
	<path d="M718.7,376.7c1.6,0.7,2.9,1.8,4.2,3.9C720.5,379.7,719.5,378.2,718.7,376.7z"/>
	<path d="M395.9,353.5c0.2-1.8,1.2-2.4,3-2.8C398.3,352.3,397.9,353.5,395.9,353.5z"/>
	<path d="M838,352.7c-0.6,1.6-1,2.8-3,2.8C835.3,353.7,836.3,353,838,352.7z"/>
	<path d="M815.9,278c0.4-1.4,1.4-1.8,2.8-2.5C818.3,277.3,818,278.5,815.9,278z"/>
	<path d="M379.6,273.5c-0.4,1.9-0.7,3-2.8,2.5C377.1,274.6,378.1,274.2,379.6,273.5z"/>
	<path d="M378.4,340c-1.4,1.1-2.3,1.7-3.8,1.6C375.3,339.8,376.4,339.5,378.4,340z"/>
	<path d="M395.1,323c0.2-1.1,0-2.6,1.8-3.1C397.3,321.7,396.1,322.3,395.1,323z"/>
	<path d="M836.2,321.8c-0.1,1.9-0.9,2.6-2.1,3.2C834.4,323.9,834.2,322.5,836.2,321.8z"/>
	<path d="M817.4,342c-1.1,1.1-2.1,1.8-3.6,1.4C814.5,341.7,815.6,341.5,817.4,342z"/>
	<path d="M806.7,354.9c-1.4,1-2.8-0.1-4.5,0.2c1.8-1.8,3.1-0.1,4.4-0.4L806.7,354.9z"/>
	<path d="M831.6,328.2c-0.1,1.3-1,1.9-2.3,2.9C829.6,329.1,830.2,328.3,831.6,328.2z"/>
	<path d="M390.1,329c0.4-1.8,0.9-2.7,2.4-3.2C392.8,327.6,391.4,327.9,390.1,329z"/>
	<path d="M1023.3,404.5c1.1-0.4,2.1-0.6,3.2-0.2C1025,405.4,1025,405.4,1023.3,404.5z"/>
	<path d="M327.9,382.7c0.2-1.8,1.3-1.9,2.4-2.5C330.3,382,329.2,382.2,327.9,382.7z"/>
	<path d="M824.8,338.3c-1.5,0.5-2.3,0-3.1-1.1C823.3,336.4,824,337.1,824.8,338.3z"/>
	<path d="M382.5,335.1c1.8-0.6,2.4,0,3.1,1.2C384.2,336.9,383.5,336.3,382.5,335.1z"/>
	<path d="M818.2,340.9c0.3-1,0.7-1.5,1.9-1.3C819.9,340.6,819.5,341.2,818.2,340.9z"/>
	<path d="M372.6,377.8c-0.4,0.7-0.9,1.1-1.8,1.1C371.1,377.9,372,378.1,372.6,377.8z"/>
	<path d="M381,337.5c-0.3,1.1-0.7,1.6-1.9,1.5C379.3,338,379.7,337.5,381,337.5z"/>
	<path d="M872.4,210.1c-1.3-1-1.6-1.6-1.5-2.7C872.1,207.7,872.3,208.5,872.4,210.1z"/>
	<path d="M433.3,208c-1.5-0.7-1.5-1.6-1.8-2.6C433,205.7,433.1,206.6,433.3,208z"/>
	<path d="M883.2,208.8c0.4,1.4,0.3,2.1-0.5,2.8C882.1,210.6,882.5,209.9,883.2,208.8z"/>
	<path d="M444,206.9c0.7,1.2,0.2,1.9-0.2,3C443,208.7,443.3,207.9,444,206.9z"/>
	<path d="M818.6,333.6c1,0.1,1.4,0.8,1.7,1.9c-1.1-0.3-1.9-0.5-1.9-1.7L818.6,333.6z"/>
	<path d="M296.3,412.9c0.6,0.2,1.3-0.2,1.8,0.4C296.9,414.3,296.9,414.3,296.3,412.9L296.3,412.9z"/>
	<path d="M379.5,331.6c1,0.1,1.4,0.8,1.7,1.9c-1.1-0.3-1.9-0.5-1.9-1.7L379.5,331.6z"/>
	<path d="M712.2,373.1c-0.8,0.1-1.1-0.3-1.1-1c0.3-0.4,0.7-0.5,1-0.1C712.4,372.3,712.6,372.7,712.2,373.1z"/>
	<path d="M302.1,405.1c0.3-1,0.9-1,1.8-0.6C303.5,405.1,303,405.5,302.1,405.1z"/>
	<path d="M334.8,378.3c0.1-0.9,0.4-1.1,0.9-1.1C336.1,378.3,335.4,378.1,334.8,378.3z"/>
	<path d="M1025.7,432.9c-0.3-1.1,0.3-1.2,1.1-1.2C1027,432.7,1026.4,432.8,1025.7,432.9z"/>
	<path fill="#FFFFFF" d="M836.3,376.6c0.9-0.6,0.9-1.4,0.6-2.3c-0.4-0.9-0.8-1.8-1.2-2.7c-0.7-1.7-0.3-3.3,1.1-4.4
		c1.5-1.1,2.7-0.2,3.8,0.8c2.4,2.1,4.6,4.4,7.3,6c-0.5,1.3-2,1.1-2.6,2.2c1.2,0.7,2.2-0.5,3.2-0.5c1.3,0.8,0.6,2.2,1.6,3.2
		c1.1,0.8,2.3,0.4,3.5-0.3c1.6-1,3.3-1.8,4.7-3c5.8-5.1,12.2-9.2,18.6-13.5c3.3-2.2,6.9-3.8,10.2-5.8c0.8-0.5,1.9-0.6,2.3-1.7
		c-0.8-0.9-1.6,0.1-2.7-0.2c2-2.4,5-3.5,6.8-6c1.9-2.6,2.7-5.3,0.9-8.4c-1.7,0.6,0,2.3-1,3c-6-14.1-8.2-30.9-4.5-45.6
		c1.1-4.4,2.1-8.7,3-13.1c0.3-1.4,1.1-3.3-1.3-4.1c-1.9,8.3-6.2,15.7-6.8,24.2c-0.5,6.2,0.5,12.2,1.3,18.3c0.1,1,0.2,2,0.4,3
		c-1.2,0.4-1.1-1.3-2.2-1.1c0.2,2.4,3.5,3.4,2.8,6.2c-0.9,0.9-2.3,0.3-3.4,0.7c-0.9,0.3-2.1,0.3-1.8,1.8l0,0
		c-1.7-0.8-2.8-2.2-3.5-3.8c-3.1-7.3-9.1-11.9-14.8-16.9c-7.4-6.5-15.3-12.4-20.3-21.3c-0.8-1.4-1.2-2.6-0.5-3.9
		c4-7.4,3-15.4,2.6-23.2c-0.2-3.5-0.9-7-0.5-10.4c1.1-0.8,2.1-0.7,3.4-0.4c0.6,1.8,0.6,3.8,0.5,5.8c-0.6,8.3,2.3,15.5,7.4,21.9
		c2.3,2.8,5.6,3.4,8.8,1.5c3-1.8,5.1-4.4,7.3-7c0.2-0.3,0.3-0.6,0.5-0.8c4.1-4.4,5.1-10.3,7.5-15.5c3.3-7.1,4.3-14.8,5.2-22.3
		c1.3-11.7,4.9-22.7,8.9-33.8c2.5,0.2,4.9,0.5,7.7,0.7c-3,5.6-5.7,11-8.3,16.5c-1.7,3.7-3.4,7.4-4.5,11.3c-2.4,7.9-3.7,16-3.1,24.3
		c0.3,4.8-0.2,9.7,1.3,14.4c0.7,2.4,1.5,4.8,2.4,7.2c0.4,1.1,1,2.3,2.5,1.7c0.8-0.8,0.3-1.5,0.1-2.2c-1.4-5.6-3.2-11.2-3.7-17
		c-0.8-8.9,0.6-17.6,2.9-26.1c2.8-10.3,7.5-19.9,12.1-29.5c10.1-0.7,19.3,0.9,27.2,7.6c2.3,1.9,5.2,2.7,7.4,4.9
		c4.5,4.7,6.6,10.5,8.5,16.4c0.8,2.7,1.5,5.4,1.3,8.4c2.5-0.2,2.2-1.8,2.1-3.1c-0.4-4.1-1.8-7.9-3.8-11.5c-0.5-0.9-1.3-1.7-1.1-3.3
		c3.4,2.5,6.6,5,9.5,7.8c0.7,0.7,1.1,1.6,1.4,2.6c0.5,1.6,0.8,3.3,1.6,4.7c3.6,6.1,3.3,12.5,2.1,19.1c-0.8,4-1.4,8-2.2,12
		c-1.4,7.4-6.4,11.9-12.9,15.8c-0.4-4.1-1-7.8-1.1-11.5c0-1.4,0.5-2.6,1.3-3.7c3.6-5,4.6-10.6,3.7-16.5c-0.3-2.1,0.9-4.3-0.1-6.2
		c-0.4-0.1-0.7-0.1-0.7,0.2c0.2,4.6-1.7,8.7-2.7,13.1c-1.2,5.2-3.7,10.2-3.3,15.6c1,13.9-2.2,27.5-3.3,41.2
		c-0.1,0.9-0.3,1.7-0.7,2.5c-2.7,5.1-4.2,10.6-5.4,16.2c-0.6,2.9-0.9,5.8-2.4,8.5c-1.4,2.6-2.4,5.4-3.6,8.2c-2.1,0.8-4.2,2-6.7,1.6
		c-0.9,2.2-2.5,3.6-4.1,5c-2.9,2.7-5.1,6.1-7.8,8.9c-5.3,5.6-7.1,12.6-10.1,19.6c-5.6-1-11.3-1.9-17-2.9
		c-10.9-1.9-21.9-3.8-32.8-5.7C843.5,379.1,840,377.8,836.3,376.6L836.3,376.6z"/>
	<path fill="#FFFFFF" d="M815,570.9c-1.5,0.2-3,0.5-4.7,0.8c-0.2-3.1,0.7-6.3-2.1-8.8c-1.5,2.6-1.1,5.3-1.1,8
		c-2.1,0.5-4.1,0.2-6.2-0.4c0.2-2.2,0.4-4.3,0.7-6.7c-1.5,2.1-1.7,4.3-2.5,6.5c-3.1-0.4-6.2-1-9.2-2.1c-1.9-0.7-2.6-2.2-3-4
		c-1.3-5.4-2.1-10.8-2.4-16.3c-0.3-4.9-0.7-9.9-1.4-14.7c-0.4-2.4,0.1-4.8,0.3-7.2c0.2-3-0.8-6.1-1.4-9.1
		c-1.7-8.7-3.8-17.4-5.2-26.1c-1.8-10.8-2.4-21.8-2.2-32.8c0-2.2,0.8-4.5,1.3-7c2.9,2.7,0.9,6.5,2.7,9.4c0.5-2.7,0.6-5.3-0.3-7.9
		c-1.9-5.2-3.7-10.4-3.3-16.2c0.5-6.7,0.3-13.4,0.8-20c0.2-2.8,0.8-5.6,0.9-8.5c0.3-7.2,4.7-11.3,10.7-14c2.3-1,4.7-1.8,7.1-2.6
		c1.2-0.4,2.4-1,3.4-1.8c0.8,0.4,0.6,1.1,0.6,1.7c0.2,4.3,2.9,7.1,7.2,7.3c6.4,0.3,12.3,3.2,17.4,3.8c8.8,9.2,14.1,19.1,13.4,31.7
		c-0.3,0.4-1.5,0.3-2.5,0.7c-4.2,1.3-8.2,2.9-11.9,5.4c-3.4,2.4-4.3,5.3-3.1,9.1c1.2,4,2.6,7.9,3.3,12c0.9,5.4,2.5,10.7,3.3,16.1
		c0.8,5.2,0.1,10.3,0.2,15.5c0,0.9-0.3,1.7-0.8,2.5c-3.1,5-4.5,10.6-5.5,16.4c-2,11.2-2.2,22.5-2,33.8c0,3.6,0.1,7.3,0.8,10.8
		C819.2,561.7,817.7,566.3,815,570.9z"/>
	<path fill="#FFFFFF" d="M847.6,454.6c-1.9,2.9-2.3,6.2-3.8,9.4c-0.1-0.8-0.1-1.6-0.2-2.3c-0.5-3.6,0.1-7.3-1.7-11
		c-1.9-4-0.6-8.9-1.8-13.3c-2.1-7.6-1.1-15,0.2-22.5c0.1-0.6,0.3-1.3,0.5-1.9c0.6-3.3,2.2-5.3,6-5.8c8.6-1.3,16.9-3.9,25.5-5
		c2.6-0.3,5.2-0.4,7.6-0.6c7.2,5.8,10.8,13.5,13.7,22.1c-5,0.4-9.8,0.4-12.5,5.2c4.1-1.6,8.8-0.2,12.9-2.5
		c1.3,5.2,2.4,10.3,4.2,15.6c-3.8,0-6.7,2.2-10.2,2.6c-1.7,0.2-2.7,1.5-2.8,2.8c-0.1,1.5-0.3,3.2,0.7,5.5c0.7-2.3,1.1-3.9,1.6-5.6
		c1.1,0.6,1.3,1.7,1.7,2.6c-0.1,0.9-1,0.3-1.2,0.9c2.3,6.7,3.8,13.7,4.8,20.7c1,6.6,0.3,13.4-0.6,20c-0.3,2.1-0.8,4.1-0.9,6.2
		c-1.2,16.4-4.5,32.6-7.1,48.8c-1.2,7.3-3.7,14.4-3.3,21.9c0.3,4.8,0.3,9.6,0.4,14.5c0,0.5-0.1,1-0.4,1.6c-1.3-2.3-0.9-5.3-2.8-7.6
		c-0.6,3.1,0.5,6,0.5,9.1c-2.5,0.9-5,0.2-7.3-0.1c-3.3-7.7-6.2-8.7-18.7-10.9c0-0.2-0.2-0.5-0.1-0.6c3.6-6.9,4.3-14.2,3.7-21.8
		c-0.4-5.4-0.9-10.7-1.9-16c-0.6-3.3-1.7-6.5-2.1-9.9c-1.5-12.1-3-24.2-4.6-36.2c-0.9-6.6-2.5-13.2-2.7-19.9c-0.1-1.9,0.1-3.7,1-5.6
		C847.2,461.7,847.5,458.2,847.6,454.6z"/>
	<path fill="#FFFFFF" d="M888.3,594.3c-2.7-4.5-5.5-9-5.1-14.7c0.6-8.6,1-17.3,1.9-25.9c0.9-8.7,3.4-17.2,5.2-25.8
		c1.3-6.1,2.1-12.3,2.2-18.6c0-2.7,0.7-5.2,1.5-7.7c2.2-7.2,3.5-14.5,2.5-22.1c-0.1-0.9-0.4-1.9,0.2-3.4c4.8,5.8,9.7,11.2,17.3,13.3
		c1.5-4.8,5.2-8.1,9.8-10.7c2.6,1.6,5.5,2.5,8.3,3.5c4.1,1.5,7.1,4.1,9.4,7.8c1.2,1.8,1.3,3.6,1,5.6c-1,6-2.7,11.8-5.2,17.3
		c-4.1,9.3-8.2,18.7-12.9,27.7c-6.1,11.8-11.4,24-17.2,35.9c-2.5,5.2-4.2,10.9-7.7,15.8c-3-0.6-5.9,0.3-9,0.6
		C889.2,593,888.7,593.6,888.3,594.3L888.3,594.3z"/>
	<path fill="#FFFFFF" d="M915.1,378.5c2.7-2.4,4.5-5.5,6.5-8.5c4.7-7.1,11.1-12,19.3-14.6c1.1-0.3,1.9-0.1,2.8,0.2
		c5.1,2,8.8,5.4,10.6,10.6c2.5,7.2,3.9,14.6,4.4,22.3c-4.3,1.4-8.8,2.1-12.8,4.2c-2.1-0.5-4-1.5-5.7-2.8c-5,1-7.6,4.4-9.6,8.7
		c-1.6,3.4-2,6.6-0.7,10.1c1.4,3.8,5.9,6.6,9.9,6.2c1.8-0.2,2.6-1.9,4.2-2.8c4.4,0.9,9,1.8,13.7,2.7c0.1,2.4-0.9,4.3-1.5,6.3
		c-1.6,5.4-4.7,10.2-8,14.7c-3.8,5.3-9.7,7.1-15.5,9.3c-4.7,1.8-8.2,0.3-12-1.9c-0.7-0.4-1.3-1.2-2.5-1c0,1.5,1.8,1.4,2.2,2.4
		c-7.2-0.9-17.1-9-19.5-17.8c-1.6-5.7-2.7-11.5-3.2-17.5c-0.1-1.9-0.2-3.7-0.8-5.5c-0.6-1.7-0.4-3.6,0.2-5.2
		c1.7-5.3,2.9-10.8,4.9-16c3.3-8.6,8.6-15.7,15-22.3c3.3-3.4,7.2-5.3,11.9-5.7c3.4-0.3,6.7-1.3,10.3-0.6
		C926.2,357.5,919.9,367.2,915.1,378.5z"/>
	<path fill="#FFFFFF" d="M956.3,302c1.9-0.8,1.6-2.9,2.5-4.4c0.9-0.3,1.7-0.1,2.5,0.2c0.5,1.1,0.1,2.2,0.1,3.3
		c0.1,1.1,0.1,2.1,0.8,3.5c1.4-2.5,1.6-4.8,1.4-7.5c-4.2-1.1-8.4-2.2-13.3-3.6c-1.3-1.3-3.2-2.9-4.7-5c0.4-1.2,1.7-1.2,2.5-1.8
		c6.3-4.3,10.8-9.9,11.6-17.8c0.6-5.7,2.4-11.2,2.9-17c1.9,2.9,4.2,5.4,5.5,8.6c4.3,10.3,8.3,20.8,13,30.9c2.1,4.5,2.9,9.6,4.3,14.5
		c1.6,5.7,3.5,11.3,5.7,16.8c2.6,6.6,3.7,13.7,4.1,20.8c-6.6,3.9-13.2,7.5-20.6,9c-1.8,0.4-3.7,0.5-5.6,0.4
		c-5.3-0.1-10.5,0.4-15.7,1.3c-2.5,0.4-5.2,0.2-7.5-0.8c-3.1-1.3-6.2-1.2-9.4-1.2c-2.3,0-4.6,0-7.1,0c0.1-2.2,0.8-3.8,1.8-5.4
		c1.8-2.8,3-5.9,3.9-9c0.4-1.6,1.2-2.4,2.7-3c4.2-1.6,8.4-3.3,12.5-5c0.7-0.3,1.4-0.4,2.1-1.5c-5.5,1.5-10.5,3.3-15.7,5.4
		c0.2-2.7,0-5.2,2.9-6.3c0.2-1.2-0.9-0.4-1.2-1.6c3.2-9.6,5.2-20,5.5-30.4c4.5-0.6,8.4,1.2,12.6,2.3
		C956.6,298.9,956,300.5,956.3,302c-0.8,1.2-0.6,2.8-1.3,4C955.7,304.8,955.5,303.3,956.3,302z"/>
	<path fill="#FFFFFF" d="M820.1,443.8c6-2.2,11.2-5.3,17-7.9c0.5,2.6,1.1,5.1,1.2,7.6c0.1,3.2,0.5,6.4,2.1,9.2
		c0.2,0.4,0.4,0.8,0.4,1.2c-0.3,5.3,1.1,10.5,1.5,15.7c0.3,5,0.6,10.1,1.3,15.1c0.9,7.1,1.8,14.2,3.9,21c1.3,4.4,1.8,9,2,13.6
		c0.1,5.9,1.3,11.8,2.5,17.6c1.6,7.9,1.4,15.8,0.1,23.8c-0.6,3.8-0.6,7.6-0.9,11.5c-0.1,1-0.5,1.9-0.8,3c-2.8,0.4-4,2.1-4.2,4.9
		c-0.1,1.9-0.9,3.5-2.1,5c-3,3.8-5.1,8.2-7.2,12.5c-0.6,1.2-1.2,2.6-2.6,3.7c-0.4-2.4-1.2-4.5-2-6.5c-0.5-1.3-1.1-2.7-0.7-4.2
		c0.7-2.9-0.4-5.1-2-7.3c-1.8-2.5-2.6-5.3-2.8-8.5c-0.2-4.1-1.1-8.2-5.4-10.9c0.2-7.2-1.3-14.6-1.1-22c0.3-8.3-0.1-16.7,0.9-25
		c0.4-3.6,1.2-7.1,2.5-10.5c2-5.2,3.6-10.6,5.3-15.9c1.8-5.9,1.2-11.8-0.4-17.6c-1.8-6.5-3.6-13.1-5.1-19.7
		C822.7,450,821.4,447.1,820.1,443.8z"/>
	<path fill="#FFFFFF" d="M763.6,588.6c0.9-1.1,2.1-1.9,2.9-3.2c4.7,1.4,9.1,3.9,14.5,3.1c-2.2-3.8-4.3-4.5-12.4-4.5
		c0.7-1.6,0.7-1.6,2.2-2.8c4.7-0.3,9.2,2.2,13.9,1.1c-3.3-2.8-7.4-3.1-11.6-3.6c3.7-0.6,3.6-3.7,4.8-6.1c1.4-3,3.4-5.6,5.5-8.6
		c1.4,3.5,2.1,6.9,2.3,10.3c-0.3,1.4-2.4,1.5-2.1,3.4c1.7-0.1,3.2-0.4,4.7-1.2c3.4-1.7,5.6-1.3,8.1,1.5c3.3,3.6,7.5,4.8,12.3,4
		c1-0.2,2-0.1,2.9-0.3c2.3-0.4,3.8-1.2,4.6-3.9c1.1-3.9,3.1-7.6,4.7-11.5c1.5,1.3,1.3,2.8,1.6,4.1c1.4,5.5,2.2,11.2,5.6,16
		c0.6,0.9,0.9,2,0.6,3.2c-0.7,3.2,0.2,6.1,1.5,8.9c0.9,1.8,1.4,3.6,1.2,5.7c-3.3,5.9-9.4,6.2-15,7.1c-3.9,0.6-7.8,0.8-11.8,0.7
		c-5.1-0.2-10,0.7-15,2.9c-6.4,2.8-13.4,4.2-20.2,5.7c-5.6,1.2-11.2,1.9-16.9,2.4c-7.1,0.6-13.6-2-20.4-2.9c-1-0.1-1.9-0.8-2.3-1.7
		c-1.1-3.1-2-6.2-1.6-9.7c7.9-2.5,15.4-5.6,22.3-10.3c1.2,1,2.5,2.2,4.2,0.8c0-1.5-1.7-0.7-2.1-1.9c0.5-0.6,0.9-1.2,1.9-0.6
		c1,0.6,1.5,1.9,3.1,2c0.6-0.8,1.4-1.6,2.2-2.6c-0.5-1.4-2.4-1-3.1-2.2c3.2-0.9,5,4.4,8.5,2.1c0.4-1.2-0.3-2.1,0.2-3
		c-2-1.1-3.9-0.6-5.8-0.8c-0.2-1.2,1-1.5,1.5-2.3c0.3,0,0.6,0,0.9,0.1c2.3,0.7,4.4,1.9,6.8,2.3c1.7,0.3,3.4,0.2,3.5-2.3
		C769.8,588.2,766.9,587.9,763.6,588.6z"/>
	<path fill="#FFFFFF" d="M858.8,604.5c-0.2-2.6-0.2-2.6-4.1-5.3c2.7,0,5.2,2.1,8.2,1.1c-2.1-4.6-10.9-6.7-21.2-5.2
		c0.7-1.2,1.4-2.3,2.1-3.6c7,1.6,14.1,2.3,20.5,6.1c0.9-2.6-0.8-3.4-2.2-4.2c-5.2-2.8-10.6-4.6-16.9-4.1c0.6-3.8,2.8-7,3.9-10.5
		c5.3-1.6,10.1,0.4,14.7,2.2c2.4,0.9,3.2,3.5,3.5,6c0.2,2,0.7,4.1,0.1,6.2c3,2.9,6.8,4.1,10.4,5.6c1.2,0.5,2.1-0.2,2.9-1.1
		c1.3-1.5,2.5-3,3-5.5c0.9,1.7,1.4,3.2,2.3,4.1c4.9,4.8,5.7,11.1,7.1,17.3c0.4,1.9,1.4,3.6,2,5.2c-3.7,5.3-8.9,7.5-14.5,9.3
		c-6.7,2.3-13.4,4.8-19.3,9.1c-2.1,1.6-4.9,1.3-7.3,2.2c-3.8,1.5-7.7,2.5-11.5,4c-4.4,1.8-9.1,1-13.7,0.8c-6-0.3-12-1-17.8-2.7
		c-2.3-0.7-4.7-0.7-6.5-2.4c0.1-3.6-0.6-7.1,0.5-10.8c9.5-2.7,16.8-9.2,23.6-16.1c9.9,5.9,11.7,6.5,15.2,5.2
		c-3.5-4.3-8.4-5.1-13.5-6.1c1.6-2.1,3.1-3.9,4.7-6c6.1,1.7,12.2,3.2,17.9,5.7c1.4-2.4,0-3.4-1.2-4.2c-3.3-2.2-6.8-3.6-10.8-3.6
		c-1.3,0-2.6,0-4.1,0c0.1-1.6,0.8-2.1,2.3-1.7C845.4,602.9,852.1,601.9,858.8,604.5z"/>
	<path fill="#FFFFFF" d="M647,317.7c-1.1,1.5-3.1,1.4-4.2,3.3c1.8-0.1,3.4-0.7,4.5-1.6c3.9-3.4,8.5-2.7,12.7-1.8
		c12,2.6,20.7,13.4,21.2,25.8c0.1,2.3,0,4.6,0,7.2c-6.2-1.1-12.4-2.1-18.5-3.3c-3.1-0.6-6.5,1.1-7.1,4c-0.5,2.4,1.8,5.4,4.8,6.1
		c0.6,0.1,1.3,0.3,2,0.4c-1.7,1.8-4.4,1.6-6.4-0.2c-3.2-3-3.2-6.9,0.2-11.2c1.9-2.4,5.2-2.6,8.6-0.5c0.6,0.4,1.2,0.8,1.9,1.3
		c-0.7-3.4-1.1-3.8-4.4-3.9c-0.3,0-0.7,0-1,0c-6.1-0.5-9.1,1.9-10,7.9c-0.7,4.6,4.8,10.4,9.5,10.1c2-0.2,2.7-1.7,3.8-3.1
		c5,1,10,1.9,15.4,2.9c-3.6,6.1-7.3,11.7-12,16.5c-1.3,1.3-3.2,1.6-4.8,2.1c-7.6,2.8-15.4,4.1-23.5,2.1c-5.5-1.4-9.6-4.5-12.2-9.3
		c-4.7-8.4-6.8-17.4-5.5-27c1.1-8,5.7-14.6,10.3-21C635.8,319.6,641.5,318.9,647,317.7z"/>
	<path fill="#FFFFFF" d="M887.8,350.4c-12.1,8.3-23.8,17.6-35.9,27.4c-2-6.1-7.9-7.9-10.7-12.5c10-16.4,15.2-34.2,15.8-54.2
		c5.7,5.7,12.1,9.8,16.1,16.4c3.7,6.1,7.9,11.8,12.2,17.5C886.3,346.6,887.3,347.9,887.8,350.4z"/>
	<path fill="#FFFFFF" d="M961.8,388.3c0-2.2,0-4.1,0-5.9c0.3-1,1.7-0.5,1.9-1.8c-2.2-0.7-2.7-2.7-3.3-4.7
		c-1.7-5.7-3.7-11.3-7.6-16.3c6.8-1.9,13.3-2.1,19.9-2.2c6.7-0.1,12.4,3.5,18.8,4.7c-1.3-2.4-3.9-2.6-6.1-3.9c1.7-1,3.4-0.8,5.1-1.4
		c2.6,3.4,6.1,5.3,10.1,6.6c3.9,1.3,5.2,4.5,5.5,8.3c0.3,4.4,0.2,8.7-0.9,13.2c-0.4-7.4-6.6-6.9-11.1-8.6c-0.9-0.4-0.4-2-1.9-2.2
		c-1.3,1.2-0.2,2.6-0.3,3.9c2.3,1.9,5.4,2.5,8.1,4.6c-3.6,0.9-6.7,0.6-9.2-1.2c-3.7-2.6-8.1-3.7-12-5.7c-3.4-1.7-6.9-3.3-10.5-4.8
		c-1.1-0.5-2.2-1.6-3.6-0.8c-0.4,1,0.3,1.3,0.9,1.5c3.2,1.5,6.3,3.3,9.6,4.4c8.2,2.7,12.8,8.8,16.1,16.3c0.6,1.5,1.2,3,1.9,4.5
		c0,0.1,0.2,0.1,0.8,0.3c0.7-4.2-2-7.3-3.3-11c2.2,0.5,4.1,1,6.1,0.9c1.8-0.1,3.6-0.8,5.4-0.5c0.7,4.5-2.6,16.6-4.6,19.3
		c-9.2-1.6-18.5-3.2-28.4-4.9c1.7-0.8,2.8-0.6,3.9-0.5c3.6,0.3,6.1-1.5,6.6-4.9c0.4-2.6-1.9-5.9-4.7-6.6
		C970.6,388.1,966.4,387.7,961.8,388.3z"/>
	<path fill="#FFFFFF" d="M882.4,400.5c4.3,0.5,8.3,1.5,12.5,2.3c0.2,3.2,0.3,6.1,0.6,9.1c1,7.9,2.4,15.7,6.7,22.5
		c2.2,3.4,4,6.9,5.6,10.6c3.2,7.7,9,13.3,15.7,16.8c-2.6-2.8-5.6-6-8.5-9.3c-2.9-3.3-5.7-6.7-7.3-11.2c8.1,4.1,16.1,7.5,25.5,7.1
		c-0.5,3.5-2.1,7.2-1,11.8c0.8-3.8,1.4-6.9,2-10c0.4-2.2,1.6-3.5,3.7-4.6c12.2-6.2,19.2-16.2,22-29.5c2.1,0.9,4.1,1.8,6.1,2.7
		c1.7,0.7,3.5,1.1,5.1,0.5c5.1-1.9,9.3-0.8,12.8,3.3c1.4-0.5,0.5-1.5,0.7-2.5c1.9,0.3,3.8,0.7,6.1,1.1c-1.3,1.8-2.1,3.1-4,3.6
		c-1.3,0.4-2.3,1.7-3.4,2.5c-3.7,2.4-7.3,5.3-12.4,3.6c-1.7-0.6-3.4,0.7-4.8,1.7c-2.7,1.9-5.4,3.7-8.8,4.2c-0.5,0.1-1.1,0.3-1.5,0.6
		c-4.6,4.5-10.8,6.7-15.3,11.2c-1.1,1.1-1.7,2.8-2.4,4.3c-1.9,4.4-4.4,8.4-7.4,12c-0.7,0.8-1.3,1.8-2,2.6c-2.4,2.7-2.4,6.9-6,8.8
		c-3.1,1.6-5.5,4.2-8.1,7.2c-2.1-10.3-6.3-19.5-9.4-29.1c-3.1-9.6-7.8-18.6-9.6-28.6c-1-5.3-1.9-10.6-4.4-15.5
		c-1-2.1-2.1-4.1-3.7-5.8c-1-1.1-1.6-3.2-4-2.2C883.1,402.4,882.5,401.6,882.4,400.5z"/>
	<path fill="#FFFFFF" d="M1028.2,425c-0.7-3.8-1.2-7.5,2.4-10.8c0.5,2.6,1.2,4.8,1.4,7c0.4,3.5-2.2,5.8-5.7,5.2
		c-9.9-1.9-19.8-3.8-29.7-5.7c-13.6-2.6-27.1-5.2-40.7-7.8c-5.6-1.1-11.2-2.2-16.6-3.2c-3.2-4.9-3-8,0.8-11.9
		c29.3,5.1,58.9,10.3,88.8,15.5C1026.1,417.2,1024.3,421,1028.2,425z"/>
	<path fill="#FFFFFF" d="M836.4,376.5c-1.3,0-2.6,0-3.5,0c-1.5-0.7-0.6-2.3-1.7-2.9c-1.1,0.3-0.5,1-0.4,1.5c1,3.5,1,7.1,0.9,10.7
		c0,2.1,0.7,3.9,2.8,4.7c2.7,1,5,4.2,7.7,3.3c5.2-1.7,9.5,1.2,14.3,1.4c0.6,0,1.2,0.4,1.6,0.5c1.1,1.1,0.3,2.3,0.8,3.5
		c1.6-0.3,0.6-2.3,2.4-3c4.6,0.5,9.6,1.9,14.8,3.1c-0.8,0.1-1.5,0.3-2.3,0.4c-6.7,0.3-13.1,2.2-19.6,3.9c-6.4,1.7-12.8,2.7-19.3,0
		c-4.4-1.9-9-3.5-13.9-4c-1.6-0.1-2.6-1-3.8-2.3c-3.1,2.7-5.6-2.1-9-0.5c-1.5-3.2-5-0.8-7.6-2.6c-1.4-7.8-1.2-15.6,2.7-23l-0.1,0
		c1.1,5.4,0.6,11,2.2,16.3c0.7-4.3,0.7-8.6,0-12.8c-0.2-1-0.4-1.9-0.5-2.9c-0.1-1.4,0.8-2.2,1.9-3c1.2,0.1,2.5,0.1,3.6,0.2
		c-1.3,6.1-2.3,12.2-0.7,18.4c0.7-5.6,1.5-11.2,2.1-16.8c2.5-2.2,5.4-1.1,8-1.3c-2,6.5-0.2,13-1.3,19.4c2.7-5.2,1.8-10.8,2-16.5
		c0.8-1.6,2.6-1.9,4.2-1.9c2.6,0,5.2,0.5,7.8,0.8c0.9,0.1,1.5,0.8,1.8,1.7C835.1,374,835.8,375.3,836.4,376.5L836.4,376.5z"/>
	<path fill="#FFFFFF" d="M895.1,401.1c-20.7-4-41.1-8-61.5-11.9c0-2.1-0.1-3.6,0-5.1c0.1-1.5-0.3-3.1,0.4-4.9
		c20.8,3.6,41.6,7.3,62.9,11C896.3,393.8,895.8,397.3,895.1,401.1z"/>
	<path fill="#FFFFFF" d="M738.3,370.5c0-3.4,0.6-6,1.9-7.8c19.9,3.5,39.6,7,59.6,10.5c-0.7,3.1-1.2,6-0.9,9.5
		C778.4,378.3,758.3,375.1,738.3,370.5z"/>
	<path fill="#FFFFFF" d="M912.6,486.7c-2.7-0.7-4.6-1.9-6.4-3.2c-3.5-2.5-6.1-6-9-9.1c-1.3-1.4-1.6-3.3-1.7-5.2
		c-0.6-7.8-2.8-15.2-5.5-22.7c2.9-1.3,6-1.5,9.8-1.9C903.5,458.6,910.5,471.7,912.6,486.7z"/>
	<path fill="#FFFFFF" d="M710.3,358c-0.1,2.3-1,4.4-1.8,6.3c-1.1,0.7-2.1,0.3-3,0.2c-14.8-2.8-29.5-5.7-44.3-8.5
		c-2.8-0.5-4-2-3.6-4.1c0.5-2.1,2-3.2,4.4-2.8c15.3,2.7,30.7,5.4,46,8.1C708.9,357.3,709.7,357.3,710.3,358z"/>
	<path fill="#FFFFFF" d="M945.7,395.9c0.7-1.8,2.4-2.2,4.1-2.6c7-1.9,14-3.6,21.4-2.3c1.6,0.3,3,0.8,4.2,1.7c1.1,0.7,1.8,1.6,1.4,3
		c-0.4,1.3-1.2,2.2-2.5,2.3c-6.5,0.6-13,2.8-19.7,0.4c-4.9-1.8-10.4-1.2-15.7-2.8c-2.7,2.6-4.8,5.5-4,9.5c0.7,3.7,2.7,6.4,7.3,6.7
		c-1.3,1.3-2.7,1.1-3.9,1.8c-1.2-0.7-2.3-1.3-3.4-2.1c-2.9-2.1-4.1-5.9-2.8-9.3c0.9-2.2,1.9-4.4,3.2-6.5c2.4-3.7,5.6-4.1,8.8-1.1
		C944.5,395,944.7,395.8,945.7,395.9z"/>
	<path fill="#FFFFFF" d="M619.8,341.8c-0.1,2.1-0.3,3.8-0.4,6c-5.3-0.9-10.4-1.7-15.4-3.1c-1.4-0.4-2.8-1.4-2.1-3.1
		c0.6-1.6,1.8-2.7,3.8-2.4C610.3,340.1,614.9,340.9,619.8,341.8z"/>
	<path fill="#FFFFFF" d="M827.3,403.7c4.1,0.4,7.6,2.1,11.3,3.2c-0.2,2.9-2.6,5-2.8,8C834.1,410.4,828.9,408.6,827.3,403.7z"/>
	<path fill="#FFFFFF" d="M798,573.3c5.2,0.8,10.2,1.5,15.6,0.9c0.3,1.3-0.2,2.5-0.4,3.7C808.1,580.8,804,579.1,798,573.3z"/>
	<path fill="#FFFFFF" d="M878.6,595.7c-3.1-1.1-6-1.5-8.7-3.2c0.4-1.4,0.8-2.7,1.3-4.1c2.8-0.3,5.6,1,8.6,0.1
		C879.7,590.9,880.3,593.3,878.6,595.7z"/>
	<path fill="#FFFFFF" d="M890.2,345.7c-2.2-2.2-4.5-4.2-6.4-7.3c2,0.2,3.5,0.1,5.2-0.2C890.1,340.7,889.6,343.3,890.2,345.7z"/>
	<path fill="#FFFFFF" d="M881.2,333.1c1.9,0,3.7,0,5.7,0c0.9,0.9,1,2.3,1.5,3.7c-1.3,0-2.4,0-3.8,0
		C883.6,335.5,881.8,334.8,881.2,333.1L881.2,333.1z"/>
	<path fill="#FFFFFF" d="M997.3,354.5c0.9,2.3,1.8,4.3,2.8,6.6c-2.1-1.5-4.2-3-6.4-4.6C994.8,355.2,996.1,355,997.3,354.5z"/>
	<path fill="#FFFFFF" d="M727.3,350.9c0.8-1,1.3-1.7,2.3-2c1.6,0.6,3.4,1.2,3.7,3.6C731.2,352.9,729.4,351.7,727.3,350.9z"/>
	<path fill="#FFFFFF" d="M993.3,352.8c-1.3,1.2-3,1.5-4.6,1.9c-0.5-0.9-0.4-1.8-0.4-2.7c1.1-0.3,1,1.3,2.2,1.1
		c1.1-0.9-0.3-2.3,0.5-3.8C991.5,350.9,991.6,352.5,993.3,352.8L993.3,352.8z"/>
	<path fill="#FFFFFF" d="M985.8,352.2c0.4,1.1,0.8,1.9,1.2,2.9c-0.8,0.8-1.7,1.1-2.9,0.8C983.1,354.2,983.4,352.9,985.8,352.2z"/>
	<path fill="#FFFFFF" d="M826.5,192.3c1.4,1.3,2.8,2.6,2,5.2C826.4,196,826.6,194.1,826.5,192.3z"/>
	<path fill="#FFFFFF" d="M993.3,352.8c0.7-1.4,0.5-2.9,0.2-4.5c0.2,1.6,2.9,1.3,2.4,3.2C995.6,352.9,994.4,352.8,993.3,352.8
		L993.3,352.8z"/>
	<path fill="#FFFFFF" d="M998.1,350.1c-0.4-1.7-1.6-3.1-2.1-4.9C998.6,346.4,999.1,347.4,998.1,350.1z"/>
	<path fill="#FFFFFF" d="M793.4,572c-1.8,0.5-2.9,0.7-4,1c-0.7-0.7-0.6-1.4-0.4-2.4C790.3,571,791.6,571.4,793.4,572z"/>
	<path fill="#FFFFFF" d="M836.4,181.5c0.3,2.3-1.4,3.1-2.9,4C834.6,184.4,834.1,182.2,836.4,181.5z"/>
	<path fill="#FFFFFF" d="M814.4,165c1.8,1.4,2.3,3.4,2.7,5.4C815.6,168.9,814.8,167,814.4,165z"/>
	<path fill="#FFFFFF" d="M834.3,154.3c1.7,0.7,3.5,1.5,5.6,2.4c-2.8,1.3-4-1.1-5.8-1.6C834.1,154.8,834.2,154.6,834.3,154.3z"/>
	<path fill="#FFFFFF" d="M814.4,163.3c-2,0.1-2.5-1.7-3.6-2.6C812.4,161,814.7,160.3,814.4,163.3z"/>
	<path fill="#FFFFFF" d="M823.9,174.4c-1.9-0.5-1.2-1.9-1.4-3.3C824.5,172.1,824.5,172.1,823.9,174.4z"/>
	<path fill="#FFFFFF" d="M816.5,198.9c-0.8,0.3-1.3,0.6-2.1,0.9c-0.4-1.1-0.5-2.1-0.1-3C816.2,196.5,815.8,198,816.5,198.9z"/>
	<path fill="#FFFFFF" d="M792.9,223.7c-0.8,2.3-2.8,2.6-4.8,2.6C789.7,225.5,791.3,224.6,792.9,223.7z"/>
	<path fill="#FFFFFF" d="M783.6,204c-0.3-1.8,0.3-3.3,1-5.3C785.5,201.1,784.6,202.6,783.6,204z"/>
	<path fill="#FFFFFF" d="M950.7,357c1.7,0,3.1,0,5,0C953.8,358,952.4,358.5,950.7,357z"/>
	<path fill="#FFFFFF" d="M800.7,216.2c0.4-1-0.5-2.6,1.4-3.2C803,214.8,801.2,215.3,800.7,216.2z"/>
	<path fill="#FFFFFF" d="M822.4,176.4c0,1.6,0.9,2.9,1,4.4C822.7,179.4,821.3,178.3,822.4,176.4z"/>
	<path fill="#FFFFFF" d="M818.1,184.4c1,1.7,1.5,3,1.9,4.7C818.1,187.3,818.1,187.3,818.1,184.4z"/>
	<path fill="#FFFFFF" d="M979.9,355.9c-1.1,0.4-1.8,0.1-2.6-0.3c0.1-0.3,0.2-0.6,0.3-0.6C978.4,355,979.7,353.6,979.9,355.9z"/>
	<path fill="#FFFFFF" d="M786,188.7c-0.4-1.6-0.2-2.6,0.5-3.9C788.1,186.4,786.5,187.2,786,188.7z"/>
	<path fill="#FFFFFF" d="M832.3,210.9c-1.1,0.2-2.2,0.4-3.6,0.6C829.6,208.8,831.1,210.4,832.3,210.9z"/>
	<path fill="#FFFFFF" d="M816.6,210.6c1.2,1.1,1.2,1.1-0.4,2.2C816,212,815.6,211.2,816.6,210.6z"/>
	<path fill="#FFFFFF" d="M799.6,197.5c-0.2-1.6,0.1-2.7,0.9-3.9C800.7,195.1,800.8,196.2,799.6,197.5z"/>
	<path fill="#FFFFFF" d="M864.2,187.6c0.7,0.4,0.9,1.1,1,1.8c-0.2,0.3-0.5,0.3-0.8,0.2C863.1,189.1,862.9,188.4,864.2,187.6z"/>
	<path fill="#FFFFFF" d="M846.5,163.1c1,1,1.3,1.7-0.5,1.9C845.5,164.3,845.7,163.7,846.5,163.1z"/>
	<path fill="#FFFFFF" d="M803,175.5c0.4,0.8,0.2,1.7,0.1,2.5c-0.2-0.1-0.4-0.1-0.5-0.2C801.7,177,801.9,176.2,803,175.5z"/>
	<path fill="#FFFFFF" d="M800,181.3c0.3,1,0.2,1.7-0.9,2.2C798.8,182.5,799.5,181.9,800,181.3z"/>
	<path fill="#FFFFFF" d="M795.7,174.3c0.3,1.3-0.6,1.7-0.9,3.1C794.4,175.8,795,175.2,795.7,174.3z"/>
	<path fill="#FFFFFF" d="M833.4,189.4c-0.9-0.5-1.2-1.3-1.5-2c0.1-0.1,0.2-0.3,0.2-0.3C833.2,187.5,833.6,188.3,833.4,189.4z"/>
	<path fill="#FFFFFF" d="M805.3,224.1c0.8-1.1,1.4-1.7,2.7-2.2C807.2,223.1,806.7,223.8,805.3,224.1z"/>
	<path fill="#FFFFFF" d="M809.5,189.7c0.7,0.9,1.1,1.6,1,2.4C809.5,191.7,809.3,191,809.5,189.7z"/>
	<path fill="#FFFFFF" d="M814.3,204.9c-0.6-0.6-1.3-1.2-1-2.4C814.2,203.2,814.6,203.9,814.3,204.9z"/>
	<path fill="#FFFFFF" d="M794.5,201.1c0.3,1.1-0.2,1.5-0.8,1.8C793.4,202.1,793.6,201.5,794.5,201.1z"/>
	<path fill="#FFFFFF" d="M805.8,197.3c0.2,0.8-0.4,1.1-0.8,1.6c-0.4-0.8-0.3-1.3,0.1-1.9C805.4,197.2,805.6,197.3,805.8,197.3z"/>
	<path fill="#FFFFFF" d="M852.6,183.3c0.1,0.9,0,1.3-0.7,1.2C851.5,183.9,851.9,183.6,852.6,183.3z"/>
	<path fill="#FFFFFF" d="M844.1,171c-0.4,0.7-0.6,1.1-1.5,1.3C842.9,171.5,843,171.1,844.1,171z"/>
	<path fill="#FFFFFF" d="M840.2,201.5c0.6-0.3,1-0.3,1.1,0.2c0.1,0.1-0.1,0.5-0.2,0.5C840.7,202.4,840.3,202.3,840.2,201.5z"/>
	<path fill="#FFFFFF" d="M848.9,208.7c0.8-0.1,1.1,0.4,1.5,0.7C849.7,209.9,849.1,210.1,848.9,208.7z"/>
	<path fill="#FFFFFF" d="M831.1,192.1c-0.9-0.4-1.1-1-1.3-1.6C830.8,190.5,831,191.1,831.1,192.1z"/>
	<path fill="#FFFFFF" d="M967.7,417.1c0.4-0.2,0.8-0.3,1.1,0.1C968.5,417.4,968.1,417.4,967.7,417.1z"/>
	<path fill="#FFFFFF" d="M823.8,165.1c1.1,0,1.4,0.3,1.6,0.8C824.7,166.3,824.5,165.6,823.8,165.1z"/>
	<path fill="#FFFFFF" d="M799,204.3c-0.1-0.5,0-0.8,0.3-0.8c0.1,0,0.4,0.2,0.4,0.3C799.8,204.1,799.6,204.3,799,204.3z"/>
	<path fill="#FFFFFF" d="M788.2,216.3c-0.4,0.3-0.7,0.7-0.8,0.6c-0.6-0.3-0.1-0.4,0.1-0.5C787.6,216.3,787.8,216.3,788.2,216.3z"/>
	<path fill="#FFFFFF" d="M816.2,178.4c0.4,0.7,0.2,1.1,0,1.7C815.8,179.5,815.8,179,816.2,178.4z"/>
	<path fill="#FFFFFF" d="M857.1,177.4c0,0.8-0.2,1.1-0.9,1.1C856,177.8,856,177.3,857.1,177.4z"/>
	<path fill="#FFFFFF" d="M856.7,194.2c0.5-0.2,0.8-0.2,1.1,0.3C857.3,194.7,857,194.6,856.7,194.2z"/>
	<path fill="#FFFFFF" d="M865.8,194.9c-1,0.2-1.4,0-1.6-0.6C865,193.7,865.3,194.3,865.8,194.9z"/>
	<path fill="#FFFFFF" d="M841.3,175.2c-0.1-0.7,0.2-0.9,0.4-1C842.3,174.9,841.7,174.8,841.3,175.2z"/>
	<path fill="#FFFFFF" d="M385.3,399c4-1.6,7.9-3.7,10.8-6.7c4.2-4.4,9.1-7.9,14.4-10.9c2.7-1.5,5.1-3.4,7.2-5.6
		c4-4.3,9.1-7.2,13.4-11.1c2.4-2.2,5.6-3.8,8.5-5.6c5-3.2,8.9-7.7,13.6-11.4c3.1-2.4,4.4-5.8,2.4-9.9c-1.8,0.5,0.1,2.5-1.6,3.3
		c0.3-3.2-2-5.4-2.6-8.2c-1.4-6.3-2.8-12.5-3.2-19c-0.5-8.7,1.4-17,3.3-25.4c0.5-2.2,1.2-4.4,1.6-6.7c0.2-1.4,0.8-3.1-1.2-3.8
		c-0.3,0.2-0.6,0.4-0.6,0.5c-0.6,5.5-3.5,10.3-4.9,15.6c-1.9,7.2-2.2,14.5-0.8,21.8c0.5,2.5,0.7,5.1,1,7.7c-1.2,0-1.1-1.3-2.3-1.3
		c0.2,2.5,3.7,3.6,2.7,6.4c-1.6,1-4.4-0.7-5.1,2.3l0,0c-1.7-0.8-2.8-2.2-3.5-3.8c-3-7.1-8.8-11.6-14.3-16.5
		c-6.1-5.6-13.2-10.3-17.9-17.3c-1.2-1.7-2.3-3.5-3.5-5.2c-0.7-1.1-0.4-2.1,0.1-3.1c4-7.4,3-15.4,2.6-23.2c-0.2-3.5-1-7-0.5-10.5
		c1-0.8,2.1-0.7,3.3-0.4c0.7,1.8,0.6,3.8,0.5,5.7c-0.6,8.3,2.3,15.5,7.4,21.9c2.3,2.8,5.6,3.4,8.8,1.6c3-1.7,5.1-4.4,7.3-7
		c0.3-0.3,0.4-0.8,0.7-1.1c4.2-4.2,4.8-10.2,7.3-15.2c3.4-6.9,4.2-14.3,5.1-21.7c1.2-10.2,3.7-20,7.3-29.6c0.6-1.5,1.1-3.1,1.6-4.8
		c2.5,0.2,5,0.4,7.8,0.7c-3.1,5.9-5.8,11.7-8.7,17.4c-4.9,9.7-7.2,20.1-7.4,30.8c-0.1,8.4-0.2,17,3.6,24.9c0.6,1.2,0.8,2.8,2.7,2.5
		c0.9-0.8,0.4-1.5,0.2-2.2c-1.5-5.7-3.2-11.4-3.8-17.3c-0.8-8.8,0.7-17.4,2.9-25.8c2.8-10.3,7.5-19.9,12.1-29.6
		c9.7-0.6,18.9,0.7,26.6,7.2c2.5,2.1,5.6,2.9,7.9,5.3c4.5,4.7,6.7,10.4,8.6,16.4c0.8,2.7,1.6,5.4,1.3,8.5c2.5,0,2.2-1.6,2.1-2.9
		c-0.4-4.1-1.8-7.9-3.8-11.5c-0.5-0.9-1.3-1.8-1.2-3.6c3.9,3.9,9.2,5.7,11,11.1c1,2.8,1.8,5.7,3.1,8.3c1.4,2.8,1.4,5.7,1.2,8.6
		c-0.2,2.3-0.6,4.6-1,6.8c-0.5,3.4-1.2,6.7-1.7,10.1c-1.2,8-6.2,13-13.1,17.2c-0.6-4.3-1.3-8.2-1.1-12.2c0-1.3,0.8-2.2,1.5-3.2
		c3.4-4.9,4.2-10.2,3.4-16c-0.3-2.1,0.9-4.3-0.1-6.4c-1.2,0-0.9,0.9-0.9,1.4c0.3,3.4-0.7,6.5-1.9,9.6c-1.1,2.9-1.9,5.8-2.2,8.9
		c-0.3,2.9-2.2,5.4-1.9,8.5c1.3,14-2,27.7-3.2,41.5c-0.1,0.9-0.2,1.7-0.7,2.5c-3.3,6.2-4.9,12.9-6.2,19.7c-0.4,1.8-1,3.5-1.8,5.2
		c-2.4,4.9-4.5,10-5.5,15.5c-1.7,8.9-7.7,14.3-14.8,19.8c2-4.2,4.4-7.5,7-11.4c-2.5,0.6-3.4,2.1-4,3.5c-2.8,6.3-7.9,10-13.6,13.7
		c-6.7,4.4-13.6,8-21,10.8c-8,3-14.9,7.8-22,12.3c-3.5,2.2-4.9,6.4-7.5,9.5c-0.9,1.1-0.6,2.5-0.1,3.8c1,3.1,0.7,6.5,2.9,9.9
		c-4.2,0.4-7.6-0.6-11.2-0.8c3.1-4.2,7.6-7.4,6.4-13.3c-1.5-0.1-2,0.8-2.1,1.6c-0.3,2.1-1.8,3.6-2.7,5.4c-3.6,6.4-10.4,8.2-15.8,12
		c-1.2,0.9-2.3,0.2-3.4-0.4c-0.8-0.5-1.6-1.1-2.5-1.6c-0.1-0.1-0.4,0.1-0.8,0.2c0.1,2.2,2,3.1,3.5,4.4c-0.8,3.7,0.3,7,2.5,10.2
		c-3.7,1.1-5.2-1.5-6.6-3.7c-1.5-2.3-2.4-4.9-3.5-7.3c1-2.2,2-4.3,3-6.4l-0.1-0.1c-0.3,0.9,0.2,1.4,0.9,2c2.5-1.5,3.1-4.5,5.2-6.2
		c2-1.7,5.2-1.4,6.9-3.1c0.1-1.8-1.2-1.5-1.7-2.1c0.1-5.4-5.8-7.8-6.1-13.5c-1.7,3.3-0.5,8.8,2,10.2c1.5,0.9,2.5,2,3.3,3.5
		c-3.3,3-6.1,4.1-12,4.6c-0.6-2.4-1.5-4.5,0.5-7.1c1.2-1.6,0.9-4.7,0.5-7c-0.7-3.5,1.2-5.6,3.4-7.6c0.9-0.8,1.9-1.5,2.8-2.2
		C384.8,401.2,385.6,400.4,385.3,399L385.3,399z"/>
	<path fill="#FFFFFF" d="M521.8,417.5c0-1.2,0.1-2.4-0.1-3.6c-0.8-4.9-4.3-6.9-8.9-5.2c-0.5,0.2-1,0.4-1.7,0.8
		c-2.6-3.5-5.1-7.2-8.8-9.6c-2.7-1.8-5.4-3.3-8.9-2.8c-4,0.6-8.1-0.2-12,1.1c-8.8,2.9-14,9.6-19.2,16.7c-4.7,6.3-6.9,13.5-9.3,20.9
		c-13.3-1.5-26.5-3-39.8-4.6c-0.3-4.1-0.4-8-2.6-11.4c-0.8-1.2-0.1-2.4,0.8-3.3c1.5-1.6,3.4-2.9,4.5-4.8c2.8-4.9,7.9-6.1,12.3-8.6
		c3.3-1.9,6.6-3.7,10.2-4.7c9.3,5.2,12.8,14,16.3,23.5c-5.3,0-9.8,0.4-12.6,5c4.4-2.2,10.2,0.9,13.9-4.3
		c-1.7-10.1-4.3-19.8-14.3-25.4c7.5-3.7,15.1-7.5,21.7-12.8c3.8-3.1,8-5.3,12-7.8c4.9-3,8.9-6.8,10.5-12.7
		c1.5-5.5,2.9-11.1,5.2-16.3c1.9-4.3,4.5-8.3,5.5-13c0.2-1.1,1.3-1.4,2.3-1.7c4.2-1.7,8.4-3.3,12.5-5c0.7-0.3,1.4-0.4,2.3-1.6
		c-5.6,1.6-10.6,3.3-15.8,5.4c0.1-2.7,0.1-5.2,2.8-6.4c0.2-1.1-0.8-0.4-1.2-1.5c3.1-9.6,5.2-20,5.5-30.4c4.6-0.9,8.3,1.5,12.6,2
		c0,1.4-0.6,3-0.2,4.6c-0.9,1.2-0.6,2.7-1.4,4c0.7-1.2,0.5-2.8,1.3-4c1.9-0.8,1.7-2.9,2.4-4.3c0.9-0.3,1.8-0.1,2.7,0.2
		c0.3,2-0.5,4.3,0.8,6.6c1.3-2.4,1.6-4.7,1.3-7.5c-4.2-1.1-8.4-2.2-13.3-3.6c-1.3-1.3-3.2-2.9-4.8-5c0.4-1.2,1.7-1.2,2.5-1.8
		c6.3-4.3,10.8-9.9,11.6-17.8c0.6-5.7,2.3-11.2,2.9-17c1.9,2.9,4.2,5.4,5.5,8.6c4.3,10.3,8.4,20.7,13,30.9
		c2.2,4.9,3.2,10.5,4.7,15.7c1.5,5.2,3.2,10.2,5.2,15.2c2.7,6.7,3.7,13.9,4.2,21c-6.7,4-13.2,7.5-20.6,9c-1.7,0.3-3.5,0.5-5.2,0.4
		c-5.4-0.1-10.7,0.3-16,1.3c-0.6,0.1-1.3,0.2-2,0.1c-5.2-1.1-10.2,0.1-15.3,1c-1.8,0.3-3.6,0.3-5.5,0.5c1.5,2.1,1.5,2.1,12.1,1
		c1.4,1.6,3.2,3,5.6,1.6c8.4,2.2,16.6-1.9,25.1-0.8c4.1,0.5,7.9,1.5,11.7,2.9c2,0.7,4,1.6,6.1,2c-0.9-2.8-3.9-2.6-5.9-4.3
		c1.5-0.9,3.3-0.4,4.8-1.4c2.9,3.6,6.5,5.5,10.7,6.9c2.4,0.8,4.3,2.7,4.8,5.6c0.9,5.2,0.7,10.4-0.5,15.7c-0.4-7.4-6.6-6.9-11.6-8.8
		c-0.4-0.2,0-1.5-1.2-1.9c-1.6,1.1-0.3,2.6-0.4,4c2.3,1.9,5.4,2.4,8,4.6c-3.3,0.7-6.2,0.6-8.6-1c-3.7-2.4-7.7-3.9-11.7-5.5
		c-5.3-2.1-10.3-5-15.6-6.9c-5-1.8-10.3-1.8-15.5-2.5c2.6,1.6,5.5,2.2,8.5,2.6c4.6,0.7,8.9,2.4,13,4.4c1.8,0.9,3.5,1.9,5.4,2.5
		c8,2.5,12.5,8.5,15.7,15.7c0.7,1.7,1.4,3.4,2.1,5.2c1.2-1.7,1.2-1.7-2.5-11c2,0.5,3.9,1.1,5.9,0.9c1.8-0.2,3.7-0.4,5.8-0.6
		c-0.3,3.1-0.2,6.1-1,8.9c-1.9,6.2-3.3,12.6-5.9,18.4c-2,4.4-4.2,9.2-9.4,11.3c-1.1,0.4-1.9,1.5-2.8,2.2c-3.3,2.4-6.8,4.4-11.3,4.2
		c-1.5-1.8-2-4-3-6.5c3.7,0.7,6.9,2.4,10.5,2.7c0-1.6-1.3-1.8-2.2-2.1c-3.8-1.5-7.6-2.8-11.4-4.2C525,418.8,523.4,418.1,521.8,417.5
		L521.8,417.5z"/>
	<path fill="#FFFFFF" d="M376.1,568.9c-1.8,0.3-3.2,0.5-4.9,0.8c-0.4-2.9,0.7-6.2-2.2-8.7c-1.6,2.5-1,5.2-1.1,7.9
		c-2.1,0.7-4,0.1-6.2-0.2c0.2-2.4,0.4-4.5,0.7-7.1c-1.4,2.3-1.8,4.6-2.4,6.6c-0.4,0.1-0.7,0.1-0.9,0.1c-12.1-2.7-10.7-1.5-12.7-13.1
		c-1.6-9.1-2.6-18.4-2.6-27.5c0-10.6-2.9-20.5-4.8-30.7c-2.6-13.6-3.6-27.2-3.7-40.9c0-2.3,1.3-4.4,1.2-7.3c3.1,3.1,1.1,7,2.8,9.8
		c0.8-2.4,1-5,0-7c-2-4-1.7-8.8-4.5-12.6c-0.7-0.9-0.4-2.6,0.1-4.2c10.2,1.3,20.5,2.6,30.9,4c0.5,1.6,1,3.1,1.6,4.6
		c1.1,2.8,3.7,4.5,6.7,4.3c3.1-0.2,5.4,1.5,7.9,3.5c0.5,8.5,3.2,16.9,4.3,25.6c0.6,4.7-0.1,9.4,0.1,14.2c0,0.8-0.3,1.5-0.7,2.2
		c-3.2,5.1-4.6,10.8-5.6,16.7c-2,11.4-2.2,22.9-2,34.5c0.1,4.6,0.5,9.2,1.1,13.8C379.9,562.2,377.3,565.3,376.1,568.9z"/>
	<path fill="#FFFFFF" d="M408.5,452.6c-1.8,2.9-2.3,6.3-3.7,10.1c-0.6-5.3-0.4-10-0.6-14.7c1-1.3,2.5-2.1,3.1-3.4
		c1.2-0.3,1.2,0.8,1.9,1c0.8-0.1,1.2-1,2.2-0.9c12.5,1.7,25,3.4,37.6,5c2,4.6,2.2,9.5,3.5,14.1c2.6,10,0.8,20-0.1,30.1
		c-1,10.4-2.7,20.7-4,31c-0.8,6.5-2.6,12.9-3.5,19.4c-0.9,7.2-3.6,14.1-3.3,21.6c0.1,3.8,0.5,7.7,0.4,11.5c0,1.6,0,3.2-0.3,4.9
		c-1.2-2.4-0.9-5.3-2.8-7.6c-0.7,3.2,0.6,6.1,0.4,9.1c-2.5,0.9-4.9,0.1-7.5-0.2c-2.7-9.5-11.1-9.2-18.7-11.1c1.8-3.5,3-7.3,3.6-11.4
		c0.6-4.2,0.6-8.3,0.3-12.5c-0.4-4.4-0.8-8.7-1.5-13.1c-0.6-3.7-2-7.3-2.5-11.1c-1.4-12.1-3-24.2-4.6-36.2c-0.9-7.1-2.7-14-2.8-21.2
		c0-1.3,0.2-2.4,0.8-3.7C408,460.1,408.3,456.3,408.5,452.6z"/>
	<path fill="#FFFFFF" d="M449.1,592.3c-2.3-2.4-2.7-5.9-4.8-8.5c-0.8-1-0.2-3.2-0.2-4.8c0-9.1,0.9-18.2,1.8-27.2
		c0.8-8.7,3.4-17.2,5.2-25.8c1.3-6.1,2.1-12.3,2.2-18.6c0-1.7,0.3-3.3,0.8-4.9c2.4-8.5,4.7-16.9,3.5-26c1,1.6,2.1,3.2,3.1,4.8
		c4,6.5,10.4,9.3,17.4,10.8c1.7,0.4,3.7,0.7,5.3,1.2c6.5,2.2,11.2-1.3,16.1-4.4c0.6-0.4,1.2-0.9,1.9-1.4c2.4,1.8,2.1,4.1,1.7,6.6
		c-1.4,9.3-5.3,17.6-9.3,25.9c-2.8,5.7-5.3,11.6-8,17.3c-2.9,6.1-6.2,12.1-9.1,18.2c-4.2,8.9-8.3,17.9-12.3,26.9
		c-1.2,2.7-2.7,5.3-4.1,8c-3.2-0.7-6.2,0.3-9.2,0.5C450.1,591.1,449.6,591.7,449.1,592.3L449.1,592.3z"/>
	<path fill="#FFFFFF" d="M493.5,399.2c-13.3,4-18.9,14-23.1,25.3c1.4-0.4,1.8-1.6,2.4-2.6c2.8-5,5.9-9.8,9.6-14.1
		c1.5-1.7,3.3-2.9,5.2-3.9c1.6-0.8,3.3-1.3,4.7-2.4c3-2.2,5.8-1.4,8.5,0.2c3.9,2.3,6.8,5.5,9.1,9.5c-3.4,3.5-6.3,7.2-8.7,11.2
		c-2.5,4-5.2,7.9-6.1,12.8c-6.5,1.8-8.3,7.6-9.2,12.9c-1,6.1,3.2,12.2,10.9,11.7c1.9-0.1,2.7-1.8,4.2-3c4.4,0.2,9,1.1,13.9,1.8
		c0.4,3-0.7,5.7-1.6,8.3c-2.4,6.7-5.2,13.3-11,18c-2.8,2.3-6,3.7-9.3,4.9c-6.7,2.5-6.7,2.4-13.2-0.7c-0.8-0.4-1.4-1.1-2.4-0.9
		c-0.3,1.3,1.4,1.2,1.6,2.2c-0.3,0-0.6,0.1-0.9,0c-11.2-3.3-18-10.7-20.8-22.1c-1.5-6.1-2-12.3-3.8-18.3c-0.3-0.9-0.2-2,0-2.9
		c2.5-14.7,6.8-28.6,17.2-39.9c3.4-3.7,7.2-6.3,12.3-6.9C486.2,399.8,489.3,398.4,493.5,399.2z"/>
	<path fill="#FFFFFF" d="M411.1,573.3c-3,0.3-4,2.1-4.1,4.7c-0.1,1.9-0.9,3.5-2.1,5c-3,3.8-5.1,8.2-7.2,12.5
		c-0.6,1.3-1.2,2.6-2.6,3.8c-0.3-2.7-1.3-4.9-2.2-7.2c-0.3-0.8-0.7-1.8-0.5-2.5c1.1-4.1-1-7.2-3.1-10.3c-1.2-1.8-1.7-3.7-1.5-5.9
		c0.2-3.5-1.3-6.6-2.9-9.6c-0.5-1-1.6-1.3-2.6-1.7c0.2-7.4-1.2-14.5-1-21.6c0.3-9.4-0.2-18.9,1.2-28.3c0.6-3.7,1.9-7.2,3.2-10.7
		c1.7-4.4,3-8.9,4.3-13.5c2-6.8,0.8-13.5-1.1-20.1c-1.6-5.5-3.6-10.8-4.4-16.6c0.7-0.7,1.8-0.4,2.8-0.9c4.8,5.6,9.4,1.2,14.5-1
		c-0.5,9.4,1.5,17.9,2.1,26.6c0.6,9.7,2.1,19.4,4.8,28.9c1.1,3.7,1.7,7.5,1.6,11.3c-0.1,4.8,0.8,9.4,1.7,14c1.9,9.3,2.9,18.6,0.9,28
		c-0.6,2.8-0.6,5.7-0.6,8.5C412.3,569,411.8,571,411.1,573.3z"/>
	<path fill="#FFFFFF" d="M333.5,587.7c-3-1.3-5.8-1.9-8.6-0.9c0.8-1,1.7-2.1,2.8-3.3c4.3,1.3,8.4,3.3,13.1,3.3
		c0.4,0,0.8-0.4,1.3-0.8c-3.5-4.7-8.3-3.6-12.7-4.2c0.2-1.4,1.5-1.9,2.1-2.7c4.9-0.4,9.4,2.4,14.6,1.3c-2.6-2.5-4-2.9-12.1-3.9
		c3.7-0.5,3.7-3.7,4.8-6.1c1.4-3,3.4-5.6,5.5-8.6c1.4,3.6,2.1,6.9,2.3,10.3c-0.3,1.4-2.4,1.5-2.1,3.4c1.7,0,3.2-0.4,4.7-1.1
		c3.5-1.7,5.6-1.3,8.1,1.5c3.3,3.6,7.5,4.8,12.3,4c1.1-0.2,2.2-0.1,3.3-0.3c2.2-0.4,3.5-1.4,4.2-3.9c1.1-3.9,3.1-7.6,4.7-11.5
		c1.4,1.3,1.3,2.8,1.6,4.1c1.4,5.5,2.2,11.2,5.6,16c0.6,0.9,0.9,2,0.6,3.2c-0.7,3.2,0.2,6.1,1.5,8.9c0.9,1.8,1.4,3.6,1.2,5.7
		c-3.3,5.9-9.4,6.3-15,7.2c-3.9,0.6-7.8,0.8-11.8,0.7c-5.1-0.2-10,0.7-15,2.9c-6.4,2.8-13.4,4.2-20.2,5.7
		c-5.6,1.2-11.2,1.9-16.9,2.4c-7.1,0.6-13.6-2-20.4-2.9c-1-0.1-1.8-0.8-2.3-1.7c-1-1.7-1.8-7.2-1.3-9.7c7.6-2.4,15.1-5.5,21.8-10.1
		c2.2,1.3,2.2,1.3,4.4,0.7c0.1-1.5-1.7-0.7-2.1-1.9c0.5-0.6,0.9-1.2,1.9-0.6c1,0.6,1.5,1.9,3.1,2c1-0.5,1-2.1,2.4-2.3
		c-0.7-1.6-2.5-1.3-3.3-2.6c2-0.2,3.2,1,4.6,1.8c1.3,0.8,2.6,1.9,4.2,0c0.3-0.8-0.4-1.8,0.1-2.7c-2-0.9-3.9-0.6-5.8-0.7
		c-0.2-1.3,1-1.6,1.5-2.3c0.3,0,0.6,0,0.9,0.1c2.4,0.7,4.6,2,7.2,2.3C332,590.4,333.4,590.1,333.5,587.7z"/>
	<path fill="#FFFFFF" d="M444.9,590.7c0.6,1.1,1,2.5,1.9,3.4c5,4.8,5.9,11.3,7.2,17.6c0.4,1.8,1.3,3.4,1.9,5c-3.4,4.9-8,7.3-13.4,9
		c-7.1,2.3-14.1,4.9-20.2,9.4c-2.1,1.6-4.9,1.3-7.3,2.2c-3.9,1.5-7.9,2.6-11.8,4.1c-4.4,1.7-9.1,0.8-13.7,0.7
		c-6.8,0-13.4-1.9-20.1-3c-1.5-0.2-2.9-1-4.1-2.1c0.1-3.4-0.6-6.9,0.5-10.7c9.5-2.7,16.8-9.4,23.7-16.2c8.5,5.5,11.9,6.7,15,5.1
		c-3.6-3.9-8.2-5.1-13.6-5.8c1.7-2.2,3.2-4.1,4.8-6.1c6.2,1.5,12.2,3.5,18.2,5.6c1-2.4-0.3-3.4-1.5-4.2c-3.3-2.1-6.8-3.5-10.8-3.5
		c-1.3,0-2.6,0-4,0c0.2-2.4,1.7-1.8,3.1-1.6c6.2,1.1,12.7,0.5,18.9,2.6c0.7-3.8-2.8-3.5-4.1-5.1c2.8-0.1,5.4,2.1,8.5,1.1
		c-2.8-4.7-12.2-6.9-21.3-5.1c0.5-1.4,1.2-2.5,2.1-3.7c6.9,1.7,14,2.3,20.6,6.2c0.5-2.7-1.1-3.5-2.6-4.4c-4.3-2.6-10.1-4-16.8-4.2
		c0.5-1.8,0.7-3.8,1.7-5.2c1.2-1.6,1.1-3.6,2.5-5.4c3-0.6,6.2-0.7,9.4,0.6c0.2,0.1,0.4,0.3,0.6,0.3c3.1,0.6,6.1,1.3,7.3,4.7
		c1,2.8,1.2,5.7,0.9,8.9c2.9,2.9,6.8,4.1,10.5,5.6c1.2,0.5,2.1-0.4,2.8-1.2C442.9,594.1,444.1,592.6,444.9,590.7z"/>
	<path fill="#FFFFFF" d="M235.3,410.7c-6.5-0.7-12.6-1.4-18.7-2.2c-3.2-0.4-6.4,1.4-6.9,4.3c-0.4,2.4,2.1,5.4,5.1,5.9
		c0.6,0.1,1.3,0.2,2,0.3c-1.4,1.8-3.8,2.2-5.8,0.5c-3.1-2.5-4.7-5.4-1.7-10.4c2.6-4.2,4.6-4.4,11.2-1.1c-1.1-3.3-1.3-3.5-4.6-3.4
		c-0.3,0-0.7,0-1,0c-6-0.2-9,2.5-9.5,8.5c-0.4,4.5,5.2,10,9.7,9.5c2-0.2,3.2-1.3,3.6-3.4c5.4,0.7,10.4,1.4,15.8,2.1
		c-3.2,6.3-6.5,11.9-10.8,16.9c-1.3,1.5-3.2,1.9-4.9,2.6c-7.5,3.3-15.2,5-23.4,3.5c-5-1-9.1-3.5-12-7.5c-6.4-9.1-9.3-19.4-7.5-30.3
		c1.3-7.8,5.2-15,10.4-21c3.1-3.6,7.9-5.1,12.8-5.6c-1.1,1.4-3,1.6-4.2,3.3c2-0.1,3.5-0.8,4.5-1.8c3.8-3.6,8.4-3.1,12.8-2.5
		c11.9,1.6,21.3,12.7,22.4,24.7C235,406,235.1,408.1,235.3,410.7z"/>
	<path fill="#FFFFFF" d="M386.1,397.8c0.2-2.8-1.3-4.9-3.2-6.5c-3.4-2.9-6-6.7-10.6-8.3c8.2-3,15.3-7.4,22-12.7
		c4.5-3.6,8.5-7.7,11.4-12.6c1.5-2.4,2.3-5.2,3.4-7.8c5.8-13.8,7.9-23.4,8.7-39.6c1-0.5,1.4,0.4,1.9,0.9c3.4,3.1,6.8,6.2,10.2,9.3
		c1.7,1.6,2.9,3.5,4.2,5.5c3.7,5.9,7.7,11.7,12,17.3c1.1,1.4,2.1,2.8,2.5,4.6c-1.9,3-5,4.5-7.7,6.5c-7.4,5.2-14.8,10.5-21.4,16.8
		c-1.6,1.5-3.5,2.6-5.3,3.9c-4.6,3-8.7,6.7-12.7,10.5c-0.9,0.9-1.7,1.8-2.9,0.7C394.7,390.6,390.2,394,386.1,397.8L386.1,397.8z"/>
	<path fill="#FFFFFF" d="M353,391.1c4.6-2.8,9.3-5.3,14.5-6.6c2.8,1.4,5.7,2.1,8.3,3.9c3.2,2.1,5.9,4.5,7.9,7.7c0.6,0.9,1,2,2.5,1.7
		l-0.1-0.1c-0.3,0.4-0.5,0.9-0.8,1.3c0,0,0.1-0.1,0.1-0.1c-6.1,2.2-10.4,5.8-9.9,12.9c0.2,3.1-2.7,5-2.3,8.1
		c-1.8,0.7-3.2,1.9-4.7,3.5c1.9,0.7,3.2-0.4,4.6-0.5c0.9,2.3,0.1,3.4-2.6,3.2c-3.1-0.2-6.1-0.6-9.2-0.9c-8.4-1-16.7-1.9-25.1-2.9
		c0-7.1,1.6-13.8,1-20.9C342.5,397.9,347.1,393.5,353,391.1c0.5,1.7-0.8,3.3-0.7,5C352.2,394.4,353.6,392.9,353,391.1z"/>
	<path fill="#FFFFFF" d="M586.1,452.7c-2.8,4.3-4.1,8.1,0.2,12.5c-1.1-4.3-2.2-8.1,1.5-11.5c0.6,2.2,1.3,4.1,1.7,6
		c0.9,4.2-1.6,6.8-5.9,6.2c-9.6-1.3-19.2-2.6-28.7-3.8c-18.4-2.4-36.8-4.9-55.2-7.3c-1.2-0.2-2.4-0.4-3.5-0.6
		c-3.5-4.9-3.5-7.7,0.3-11.8C526,445.8,555.7,449.3,586.1,452.7z"/>
	<path fill="#FFFFFF" d="M452.7,437.5c0.1,3.8-0.7,7.2-1,11c-19.9-2.6-39.7-5.3-59.5-7.9c-0.9-1.5-1.9-2.7-3.4-4.1
		c3.4-3.1,7-5.5,11.6-5c14.2,1.5,28.3,3.2,42.5,4.9C446.1,436.7,449.2,437.1,452.7,437.5z"/>
	<path fill="#FFFFFF" d="M300.7,428.4c0.8-3.3-1.3-5.5-2.1-8.6c24.1,2.8,48,5.5,71.9,8.2c0.2,0.2,0.4,0.4,0.6,0.6
		c-3.3,1.8-4.8,4.7-4.9,8.6C344.3,434.3,322.7,431.4,300.7,428.4z"/>
	<path fill="#FFFFFF" d="M274.6,420.7c-0.1,1.4-0.1,2.6-0.6,3.9c-2.9,0.5-5.8-0.4-8.7-0.8c-16.2-2.1-32.4-4.3-48.6-6.4
		c-0.8-0.1-1.5-0.2-2.3-0.4c-1.7-0.5-2.9-1.4-2.7-3.5c0.3-2.1,1.6-3.4,3.8-3.2c4.7,0.4,9.4,1,14.1,1.5c12.3,1.4,24.6,3.1,36.9,4.2
		C270.2,416.3,272.2,418.4,274.6,420.7z"/>
	<path fill="#FFFFFF" d="M495.2,440.5c-2.7,2.9-4.5,6-3.4,9.9c1,3.4,3.1,5.8,7.2,6c-0.8,1.5-2.3,1.2-3.2,1.9
		c-1.8-0.6-3.5-1.3-4.7-2.6c-2.2-2.4-3.6-5.2-2.2-8.7c0.8-2,1.5-4.1,2.6-6.1c2.4-4.3,5.7-4.8,9.2-1.4c0.3,0.3,0.5,0.7,1,0.7
		c0.5-1.2,0.6-1.5,0.6-2.1c8.1-5.3,16.1-10.6,24.5-16.2c1.1,5.1,4.4,9.2,4.3,14.3c-1.6,1.2-3.1,1.3-4.5,1.4
		c-6.6,0.8-13.1,2.3-19.6,3.7c-3.2,0.7-6.5-0.3-9.8-0.6C496.7,440.8,496.1,440.7,495.2,440.5z"/>
	<path fill="#FFFFFF" d="M281.3,417c-0.1,0.3-0.1,0.6-0.2,1.3c1.8-0.8,2.6-3.2,4.8-2.6c0.9,0.9-0.8,1.8,0.2,2.9
		c1.4-0.7,1.7-2.9,3.7-3c1.9-0.1,3.2,0.6,4.1,2.3c-0.2,0.9-1.2,0.7-1.8,1c-1.5,0.8-2.6,2.2-2.3,3.7c1,4.9,1.1,10.3,5.9,14.2
		c-1.8,0.4-3.3,0.7-4.6,0.9c-2-0.8-2.8-2.2-3.1-4.1c-0.6-4.3-1.7-8.5-1.8-12.8c-1.3,5.7-1.2,11.4,1.2,16.9c-2.9,0.4-6.3-2.1-5.8-4.9
		c0.8-4.5-0.8-8.6-1.1-13c-1.3,5.5-0.8,11,0.1,16.4c-2.5-0.5-5.2-4.1-5-7.2c0.1-2.2,0.4-4.4,0.7-6.5
		C276.7,419.4,278.3,417.4,281.3,417L281.3,417z"/>
	<path fill="#FFFFFF" d="M497.6,436.1c0.5-2.4,1.2-4.2,2.2-6c2.5-4.5,5.2-8.9,8.2-13.1c0.7-1,1.5-2,1.8-3.1c0.6-2.1,2.1-2.8,4.1-3.3
		c1.9-0.4,3.6-0.5,4.6,1.4c1,1.8,1.4,3.7-0.1,5.5c-1.3,1.5-2.7,2.8-4.3,4c-5.7,4.1-11.4,8.1-15.2,14.2
		C498.8,435.9,498.5,435.9,497.6,436.1z"/>
	<path fill="#FFFFFF" d="M295.8,419.9c2.4,3.9,2.8,8.3,4.7,12.2c4.6-3.1,9,0.1,13.6-0.4c-0.5,1.4-1.3,2-2.1,2.3
		c-4,1.6-7.8,3.8-12.4,2.6c-3.6-1-6.1-3.4-6.5-7.2c-0.2-1.8-1.3-3.1-1.6-4.9C291,421,292,419.8,295.8,419.9z"/>
	<path fill="#FFFFFF" d="M320.3,420.5c1.6-8.2,8.3-11.2,14-16c-1.9,6,1.6,11.8-1.7,17.5C328.8,421.5,324.7,421,320.3,420.5z"/>
	<path fill="#FFFFFF" d="M385,438.5c0.9-0.4,1.7-0.7,2.7-1.1c1.7,1.2,2.3,3.2,3.4,4.8c4.4,0.6,8.7,1.2,13.2,1.8
		c-2.9,4-7.3,4.9-11.2,6.4c-1.6,0.6-3-0.4-4-1.6C386.6,445.9,384.5,442.9,385,438.5z"/>
	<path fill="#FFFFFF" d="M173.4,405.4c0,2.3,0,4,0,6.1c-5.2-0.7-10.3-1.4-15.3-2.2c-1.3-0.2-2.7-1-2.8-2.9c0.8-2.2,2.3-3.1,4.8-2.7
		C164.5,404.4,168.9,404.9,173.4,405.4z"/>
	<path fill="#FFFFFF" d="M374.6,572.1c0,1.4-0.2,2.7-0.6,4c-6.5,3.2-10.7-0.9-15.6-4.8C364.1,572,369.2,572.9,374.6,572.1z"/>
	<path fill="#FFFFFF" d="M430.7,590.4c0.5-1.4,0.9-2.7,1.3-4.1c2.9-0.2,5.6,1.1,8.4,0.1c0.3,4.7,0.3,5-1.4,7.1
		C436.4,592.6,433.3,592.3,430.7,590.4z"/>
	<path fill="#FFFFFF" d="M372.7,428.6c1.3-0.1,2.2-0.2,3.5-0.3c-2,5.9-3.1,11.7,1.6,17.3c-2.5-0.5-2.4-0.6-6-7.3
		C369.8,434.6,373.1,432,372.7,428.6z"/>
	<path fill="#FFFFFF" d="M521.8,417.4c0,1.7,1.8,1.7,2.7,3c-2.1,2.3-4.9,3.4-7.2,5.3c-1-0.7-1.1-1.5-1.1-2.5
		C518.2,421.5,520,419.4,521.8,417.4L521.8,417.4z"/>
	<path fill="#FFFFFF" d="M368.7,443.2c1.2-3.6-1.6-7.4,0.9-11c-1,5.1,2.2,9.1,3.6,13.9C371.4,445.4,370.1,444.7,368.7,443.2z"/>
	<path fill="#FFFFFF" d="M514,424.6c0.8,0.8,1.1,1.4,0.8,2.4c-3.5,2.4-7.2,4.9-10.8,7.4C506.5,430.3,510.4,427.6,514,424.6z"/>
	<path fill="#FFFFFF" d="M451,343.7c-2-2.2-4.4-4.1-6.1-6.9c1.7-0.4,3.3,0.2,4.8-0.6C451.1,338.6,450.3,341.2,451,343.7z"/>
	<path fill="#FFFFFF" d="M442,331.1c1.9,0,3.7,0,5.6,0c0.9,0.9,1,2.3,1.5,3.7c-1.3,0-2.4,0-3.8,0C444.4,333.5,442.7,332.8,442,331.1
		L442,331.1z"/>
	<path fill="#FFFFFF" d="M558.4,352.6c0.6,2.5,1.8,4.2,2.6,6.4c-2.1-1.5-4.2-3-6.6-4.7C555.8,353.4,556.9,352.8,558.4,352.6z"/>
	<path fill="#FFFFFF" d="M554.1,350.9c-1.3,1.2-3,1.5-4.6,1.9c-0.5-0.9-0.4-1.8-0.4-2.7c1.1-0.3,1,1.3,2.2,1.1
		c1.1-0.9-0.4-2.3,0.5-3.7C552.4,348.9,552.5,350.5,554.1,350.9L554.1,350.9z"/>
	<path fill="#FFFFFF" d="M516,355.1c-3.4,2.2-6.4-1-9.7-0.3C509.6,353.4,512.7,355.8,516,355.1z"/>
	<path fill="#FFFFFF" d="M544.9,353.9c-0.9-1.9-0.6-3.2,1.7-3.6c0.4,1,0.8,1.9,1.3,2.9C547,353.8,546,354.2,544.9,353.9z"/>
	<path fill="#FFFFFF" d="M389.2,195.7c-1.8-1.8-1.8-3.6-1.8-5.4C388.6,191.6,390.3,192.8,389.2,195.7z"/>
	<path fill="#FFFFFF" d="M554.1,350.9c0.7-1.4,0.5-2.9-0.1-4.7C557.7,350.1,557.7,350.1,554.1,350.9L554.1,350.9z"/>
	<path fill="#FFFFFF" d="M559,348.1c-0.4-1.7-1.6-3.1-2.1-4.9C559.5,344.4,559.9,345.5,559,348.1z"/>
	<path fill="#FFFFFF" d="M375.2,163c1.6,1.5,2.5,3.3,2.8,6C376.4,166.9,375.7,165,375.2,163z"/>
	<path fill="#FFFFFF" d="M394.3,183.7c1-1.3,0.7-3.5,3-4.1C397.5,182,395.8,182.7,394.3,183.7z"/>
	<path fill="#FFFFFF" d="M395.2,152.3c1.7,0.8,3.5,1.5,5.6,2.4c-2.9,1.1-4.1-0.9-5.9-1.8C395,152.8,395.1,152.5,395.2,152.3z"/>
	<path fill="#FFFFFF" d="M350,568.6c1.2,0.4,2.4,0.9,4,1.5c-1.6,0.4-2.7,0.7-3.7,1C349.5,570.3,349.7,569.5,350,568.6z"/>
	<path fill="#FFFFFF" d="M375.2,161.4c-1.9-0.3-2.4-1.8-4-2.7C374.9,158.9,374.9,158.9,375.2,161.4z"/>
	<path fill="#FFFFFF" d="M383.4,169.1c2,1,2,1,1.3,3.4C383,171.8,383.5,170.5,383.4,169.1z"/>
	<path fill="#FFFFFF" d="M375.1,194.7c1.8-0.1,1.6,1.2,2,2.1c-0.5,0.5-1.1,0.8-1.8,0.7C374.8,196.7,374.8,195.8,375.1,194.7z"/>
	<path fill="#FFFFFF" d="M348.9,224.4c1.6-0.9,3.2-1.7,4.9-2.7C352.7,223.9,352.7,223.9,348.9,224.4z"/>
	<path fill="#FFFFFF" d="M345.5,196.7c0.4,3,0.4,3-1.3,5.6C344.1,200.3,344.8,198.7,345.5,196.7z"/>
	<path fill="#FFFFFF" d="M281.4,417c-0.3-1-1.6-1.4-1.6-2.6c0.9-1,1.7-0.2,2.5,0C282.6,415.5,281.4,416,281.4,417L281.4,417z"/>
	<path fill="#FFFFFF" d="M363.6,211.7c-0.6,1.1-1.2,2-2.2,2.9C361.8,211.7,361.8,211.7,363.6,211.7z"/>
	<path fill="#FFFFFF" d="M380.8,187.5c-1.6-1.5-2.2-2.8-2-4.9C380,184.1,380.5,185.5,380.8,187.5z"/>
	<path fill="#FFFFFF" d="M383.2,174.4c-0.1,1.6,1.2,2.9,1.2,4.4C383.3,177.6,382.4,176.2,383.2,174.4z"/>
	<path fill="#FFFFFF" d="M347.4,182.8c1.4,1.8,0,2.5-0.7,3.8C346.4,185.1,346.6,184,347.4,182.8z"/>
	<path fill="#FFFFFF" d="M540.8,353.9c-1.1,0.3-1.8,0.2-2.5-0.3c-0.2-0.3-0.2-0.6,0-0.6C539.2,353.1,540.4,351.7,540.8,353.9z"/>
	<path fill="#FFFFFF" d="M389.6,209.5c1-2.9,2.4-1.2,3.6-0.7C392.1,209.1,390.9,209.3,389.6,209.5z"/>
	<path fill="#FFFFFF" d="M377.6,208.1c1.4,1.3,1.1,2-0.5,2.8C376.9,210.1,376.6,209.4,377.6,208.1z"/>
	<path fill="#FFFFFF" d="M360.5,195.4c-0.4-1.4,0.2-2.3,0.7-3.3C361.6,193.2,361.8,194.3,360.5,195.4z"/>
	<path fill="#FFFFFF" d="M425,185.6c0.7,0.4,1,1.1,1,1.8c-0.2,0.3-0.5,0.3-0.8,0.2C424,187.1,423.8,186.4,425,185.6z"/>
	<path fill="#FFFFFF" d="M364,176.2c-1.4-1.2-1.3-2,0-2.7C364.3,174.4,364.1,175.2,364,176.2z"/>
	<path fill="#FFFFFF" d="M407.2,161c1.2,1.1,1.3,1.8-0.3,2.1C406.2,162.3,406.8,161.8,407.2,161z"/>
	<path fill="#FFFFFF" d="M359.7,181.1c0.4-0.7,0.7-1.3,1.1-2C361.2,180.3,361,181.1,359.7,181.1z"/>
	<path fill="#FFFFFF" d="M356.8,172.2c-0.1,1.3-0.5,2-1.2,2.7C355.3,173.8,355.8,173.2,356.8,172.2z"/>
	<path fill="#FFFFFF" d="M371.2,190.6c-0.5-0.8-1.1-1.4-0.9-2.4c0.1-0.1,0.2-0.2,0.2-0.3C371,188.7,371.7,189.5,371.2,190.6z"/>
	<path fill="#FFFFFF" d="M392.7,185c1.3,0.6,1.8,1.3,1.6,2.5C393.4,186.9,393,186.1,392.7,185z"/>
	<path fill="#FFFFFF" d="M366.3,222.4c0.5-1.4,1.4-1.7,2.2-2.2C368.2,221.1,367.5,221.7,366.3,222.4z"/>
	<path fill="#FFFFFF" d="M378.2,430.8c0-1-0.7-2.4,1.5-2.8C379.4,429.2,378.8,430,378.2,430.8L378.2,430.8z"/>
	<path fill="#FFFFFF" d="M374.1,200.6c1.1,0.5,1.1,1.3,1.2,2.1C374.5,202.3,374,201.7,374.1,200.6z"/>
	<path fill="#FFFFFF" d="M355.5,199.5c0.1,0.7-0.2,1.2-0.9,1.4c-0.4-0.7-0.1-1.2,0.4-1.6C355.2,199.2,355.4,199.2,355.5,199.5z"/>
	<path fill="#FFFFFF" d="M365.8,197c-0.2-0.8-0.5-1.4,0.4-1.9C367.2,195.7,366.5,196.2,365.8,197z"/>
	<path fill="#FFFFFF" d="M412.8,182.9c-0.4-1.1,0.1-1.3,0.4-1.6C413.8,182,413.4,182.3,412.8,182.9z"/>
	<path fill="#FFFFFF" d="M403.5,170.2c0.3-0.7,0.6-1.2,1.5-1.1C404.6,169.6,404.5,170.1,403.5,170.2z"/>
	<path fill="#FFFFFF" d="M401,199.5c0.7-0.2,1.1-0.1,1.2,0.6C401.7,200.5,401.3,200.5,401,199.5z"/>
	<path fill="#FFFFFF" d="M409.8,206.6c0.8,0.1,1.1,0.4,1.4,0.9C410.5,207.9,409.9,208.1,409.8,206.6z"/>
	<path fill="#FFFFFF" d="M390.9,188.3c0.7,0.4,1.2,0.8,0.9,1.7C391.1,189.7,390.6,189.3,390.9,188.3z"/>
	<path fill="#FFFFFF" d="M385.1,163.2c0.7-0.2,1.3,0.5,1.2,0.7c-0.3,0.6-0.7,0-1-0.2C385.1,163.6,385.1,163.4,385.1,163.2z"/>
	<path fill="#FFFFFF" d="M359.9,202.3c0-0.5,0.1-0.8,0.4-0.8c0.1,0,0.3,0.2,0.3,0.3C360.6,202.2,360.4,202.4,359.9,202.3z"/>
	<path fill="#FFFFFF" d="M402.2,172.9c-0.1-0.4,0.2-0.6,0.5-0.7C403,172.8,402.8,173,402.2,172.9z"/>
	<path fill="#FFFFFF" d="M347.8,214.8c0.3-0.2,0.6-0.5,0.7-0.5c0.5,0.1,0.1,0.4,0,0.5C348.4,214.9,348.1,214.8,347.8,214.8z"/>
	<path fill="#FFFFFF" d="M417.6,192.2c0.4-0.1,0.8-0.2,1,0.3C418.2,192.7,417.9,192.6,417.6,192.2z"/>
	<path fill="#FFFFFF" d="M426.5,192.9c-0.6,0.4-1,0.2-1.3-0.4C425.9,191.7,426.2,192.1,426.5,192.9z"/>
	<path fill="#FFFFFF" d="M376.9,177.9c0-0.4,0-0.8,0-1.3C377.8,177,377.2,177.5,376.9,177.9z"/>
	<path fill="#FFFFFF" d="M417.2,176.6c-0.4-0.6-0.3-1,0.1-1.2c0.2-0.2,0.6-0.1,0.7,0.2C418.1,176.2,417.8,176.4,417.2,176.6z"/>
	<path fill="#FFFFFF" d="M414.7,196.9c-0.5,1-1.8,1-2.2,2.1C412.3,196.3,412.3,196.3,414.7,196.9z"/>
	<path fill="#FFFFFF" d="M416.4,200.5c-1,1.6-2.3,1.3-3.8,0.3C413.9,200.8,415.2,200.7,416.4,200.5L416.4,200.5z"/>
	<path fill="#FFFFFF" d="M854.2,198.7c-1.1,0.9-1.9,1.5-2.9,2.3C851.1,198.9,851.6,198,854.2,198.7z"/>
	<path fill="#FFFFFF" d="M855.5,202.5c-1,1.6-2.3,1.3-3.8,0.3C853,202.7,854.3,202.7,855.5,202.5L855.5,202.5z"/>
	<path d="M915.2,331.2c-0.9-2.1-0.9-3.9-0.4-5.5c1.9-6.3-0.1-12.2-1.2-18.3c-0.4-2.4-1-4.7-1.3-7.1c-0.1-1-0.6-2.2,0.9-2.8
		c0.8,0.1,1.2,0.7,1.2,1.4c0,5.2,2.8,9.8,3.6,14.8C918.6,318.3,917.3,327.5,915.2,331.2z"/>
	<path d="M939.6,264.4c1.2,0.7,0.9,1.5,0.4,2.3c-0.9,1.6-1.9,3.3-3.4,4.4c-4.4,3.3-8.4,7.4-14.2,9.3c1.1-2.6,2.6-4.5,5.2-5.1
		c2.2-0.5,3.6-1.8,4.9-3.5c1.6-2.1,3.3-4,5-6C938.1,265.1,938.7,264.3,939.6,264.4z"/>
	<path d="M909,227.2c2-2.5,4-4.5,7.7-3.5c1.7,0.5,3.7,0.2,5.5,0.3c1.4,0.1,2.8,0.4,3.7,2.1c-3.1,0.8-5.9-1.8-8.5-0.9
		C914.7,226.3,911.9,226.9,909,227.2z"/>
	<path d="M881.7,301.4c0,1.4,1.6,1.1,1.9,2.1c-4.1,1.9-14.7,0.9-16.8-1.7c2.4,1,5,0.8,7.5,0.9C876.8,302.9,879.4,303,881.7,301.4z"
		/>
	<path d="M909.9,257.9c-0.2-3.9-1.7-7.6-0.8-11.6c0.3-1.1-0.2-2.4,0.9-3.4C911.2,244.7,911.3,255.3,909.9,257.9z"/>
	<path d="M942,257.8c0.4-5.7,0.7-11.4,0.3-17.5C944.3,243.2,944.1,253.9,942,257.8z"/>
	<path d="M897.7,238.4c1.6-3.2,2.5-6.8,6-8.9c2.1,1.2,1,2.4,0.1,3.4C901.9,234.9,899.4,236.1,897.7,238.4z"/>
	<path d="M934.2,218.6c-3.5-4.7-8.2-7.5-13.5-10c1.2-1.1,2.1-0.2,2.8,0c3.7,1.5,6.6,4.3,9.6,6.8
		C934.1,216.2,934.2,217.5,934.2,218.6z"/>
	<path d="M872.1,308.7c3.6,4.8,8.3,8.7,11.6,13.9C879.7,318.1,874.8,314.3,872.1,308.7z"/>
	<path d="M893.1,274.3c2.4,2.5,4.2,4.4,6.2,6.5C895.2,279.8,893.4,278,893.1,274.3z"/>
	<path d="M903.3,345.7c-1.8,3.3-5.4,3.6-8.3,4.9C897.3,348.3,900.9,348.1,903.3,345.7z"/>
	<path d="M910.9,235.1c0.6-2.4,0.8-5,2.8-6.9c0.2,0.1,0.5,0.2,0.7,0.3c-1,2.3-1.9,4.6-2.9,6.9C911.3,235.4,911.1,235.3,910.9,235.1z
		"/>
	<path d="M915.6,348.5c1.7,3,1.6,3.9-0.8,7C915.1,353,915.3,351.1,915.6,348.5z"/>
	<path d="M897.2,346.1c0.2-2.5,2.2-3.3,4-4.2C900.4,343.8,899.4,345.5,897.2,346.1z"/>
	<path d="M916.8,341.6c-2.4-1.7-2.4-2-0.8-4.8C916.3,338.6,916.5,340.1,916.8,341.6L916.8,341.6z"/>
	<path d="M916.8,341.6c2,1,0.5,2.2,0.5,3.7C915.6,344,916.9,342.7,916.8,341.6L916.8,341.6z"/>
	<path d="M916,332.9c0.6,1.1,0.2,1.7,0,2.4c-0.3-0.1-0.6-0.1-0.7-0.2C914.7,334.2,914.5,333.3,916,332.9z"/>
	<path d="M919.4,285.7c0,1.8-1.3,2-2.1,3.2C917.7,286.8,917.7,286.8,919.4,285.7z"/>
	<path d="M922.3,281.1c-0.5,1.7-1.4,2-2.5,2.8C919.9,282.1,920.6,281.5,922.3,281.1z"/>
	<path d="M911.8,296.6c-0.8-1.2-0.5-1.9,0.2-2.7C913.1,295.1,912.7,295.8,911.8,296.6z"/>
	<path d="M893.4,334.6c1.1,0.5,1.3,1.2,0.6,2.2C893.8,336.1,893.6,335.3,893.4,334.6z"/>
	<path d="M890.8,328.1c-0.7-1-0.5-1.8,0-2.8C891.4,326.3,891.6,327.1,890.8,328.1z"/>
	<path d="M956.1,246.6c-0.6-0.8-0.8-1.5-0.4-2.4C956.5,245,956.6,245.7,956.1,246.6z"/>
	<path d="M865.4,301.9c0,0.9-0.5,1-1,0.9c-0.1,0-0.3-0.4-0.2-0.5C864.5,301.9,864.9,301.7,865.4,301.9z"/>
	<path d="M910.8,261.8c0.1,0.1,0.4,0.1,0.4,0.3c0.1,0.3-0.1,0.6-0.4,0.5c-0.1,0-0.3-0.2-0.3-0.4
		C910.4,262.1,910.7,261.9,910.8,261.8z"/>
	<path d="M805.8,486.5c-5.4-5.8-9-22.6-6.5-30.1c1.2,0.2,1.1,1.3,1.2,2c0.4,2.8,1,5.7,0.8,8.5c-0.4,6,1.4,11.4,3.9,16.7
		C805.5,484.4,806,485.2,805.8,486.5z"/>
	<path d="M823.2,414.4c-7.4,2.8-14.4,5.8-16.4,15.2c-1.4-9.1,1.9-12.4,8.5-13.5c1.6-0.3,2.9-1.1,4.3-1.5
		C820.7,414.2,821.7,413.5,823.2,414.4z"/>
	<path d="M787.4,408.9c0.8,2,0.4,3.5-0.7,4.6c-2,1.9-3.2,4.4-4.9,6.7C780.7,417.2,781.4,415.9,787.4,408.9z"/>
	<path d="M816.1,439c0.6-2.5,8.9-6.5,12.5-6.1C824.4,434.9,820.1,436.7,816.1,439z"/>
	<path d="M796.5,407c3.1,0.3,5.8,2,8.9,1.3C803.7,411.3,799.8,410.8,796.5,407z"/>
	<path d="M807.4,561.3c-0.7-2.2-1-4.4-0.8-6.6c0.3-2.2-0.8-4.3-0.2-6.5C807.1,552.6,807.9,556.9,807.4,561.3z"/>
	<path d="M809.3,494.6c-1-1.6-2.5-3-2.1-5.5C809.3,490.7,809.3,492.7,809.3,494.6z"/>
	<path d="M814.9,447.9c0.2-3.5,0.3-3.7,3.2-4.3C816.9,445.2,816,446.4,814.9,447.9z"/>
	<path d="M786.5,403.3c1.7,0.9,1,2.4,1.3,3.9C786.3,405.3,786.3,405.3,786.5,403.3z"/>
	<path d="M791.8,402.7c-1.4-1.4-0.9-2.9-0.3-4.4C791.6,399.8,791.5,401.3,791.8,402.7z"/>
	<path d="M797.9,447.9c0.5,1.6,0.5,2.5-0.5,3.5C796.4,450.1,797.2,449.3,797.9,447.9z"/>
	<path d="M804.9,539.6c0.6,1.4,0.9,2.2,0.8,3C804.8,542.8,804.8,542.7,804.9,539.6z"/>
	<path d="M831.7,431.9c0.6-1,1.2-1.5,2.3-1C833.5,432,832.8,432.2,831.7,431.9z"/>
	<path d="M814.4,502.6c0.9,0.2,1.3,0.6,1.2,1.5c-0.7,0.5-1,0-1.2-0.5C814.2,503.3,813.9,502.9,814.4,502.6z"/>
	<path d="M805.3,433.1c0.1-0.6,0.1-0.9,0.5-0.9C806.2,432.6,805.9,432.8,805.3,433.1z"/>
	<path d="M811.6,498.6c-0.6-0.2-0.8-0.6-0.6-1.2C812.2,497.3,812.1,497.8,811.6,498.6z"/>
	<path d="M874.4,478.7c1.4,1.7,1.3,12.9,0,20.9C872.7,497.4,872.6,487.1,874.4,478.7z"/>
	<path d="M852.5,433c-0.7-4.6-0.6-4.8,3.9-8.3c0.9-1.1-0.1-2.7,1-3.7c1.7,1.6,1.6,4.3-0.3,6C855.2,428.5,853.4,430,852.5,433z"/>
	<path d="M872.7,562.8c-0.2,6.5-0.8,13,0,20.1c-1.7-1.5-1.9-3-1.7-4.4c0.6-4-0.2-8,0-11.9C871.1,565.1,870.8,563.6,872.7,562.8z"/>
	<path d="M876.6,529.3c-0.6-7.4-2.6-14.7-2-22.2C875.2,514.5,876.9,521.8,876.6,529.3z"/>
	<path d="M874.7,476.9c-1.2-4.8-0.5-9.6,1-14.3C877.3,467.4,874.9,472.1,874.7,476.9z"/>
	<path d="M885.8,495.7c0,4.4,0.2,8.9-0.3,13.3c-0.2,0-0.5,0-0.7,0c0-4.5,0-8.9,0-13.4C885.1,495.7,885.5,495.7,885.8,495.7z"/>
	<path d="M884.7,479.9c1.8,2,1.8,5.7,0,12.6C884.7,487.8,884.7,484,884.7,479.9z"/>
	<path d="M875.1,549.7c0.1,3.4-2,6-3.2,9.1C871.3,556.3,872.6,552.2,875.1,549.7z"/>
	<path d="M884.6,466.9c0.3,2.2,1.7,4.3,0.7,7.2C883.4,471.4,884.1,469.1,884.6,466.9z"/>
	<path d="M878.1,567c1.1,2.1,0.7,3.6-0.3,5.8C876.7,570.5,877.5,569,878.1,567z"/>
	<path d="M858.4,419.1c0.5-2,1.2-3.2,2-4.4C861.3,416.5,861.2,416.8,858.4,419.1z"/>
	<path d="M878.8,565.1c-0.5-1.5-0.6-2.9,0.2-4.9C879.6,562.3,879.3,563.7,878.8,565.1z"/>
	<path d="M885,514.9c0.9,0.8,0.9,1.8,0.6,3C884.6,516.9,884.8,515.9,885,514.9z"/>
	<path d="M851.4,439.2c-0.8-1.4-0.7-2.3,0.5-3.1C852.5,437.2,852.3,438.1,851.4,439.2z"/>
	<path d="M878.8,430.9c0.9,1.2-0.3,1.4-0.3,2.6C877.5,432,877.7,431.4,878.8,430.9z"/>
	<path d="M891.3,431.7c-0.5-1.2-0.5-1.9,0-2.5C892.2,429.8,891.6,430.5,891.3,431.7z"/>
	<path d="M917.9,392.2c1.1-7.4,3.8-14,8.8-19.5c2.5-2.8,5-5.6,8.1-7.7c6.1-4.1,13.8-4.3,15.7,5.4c-0.6-0.1-0.8-0.7-1-1.2
		c-3.1-6.8-8.4-6.8-13.8-2.9c-6.3,4.5-11,10.6-14.3,17.8C920.2,386.7,919.1,389.4,917.9,392.2z"/>
	<path d="M909.2,412.5c0.5,3,1,6.1,1.5,9.3C908.8,419.6,908,415.8,909.2,412.5z"/>
	<path d="M911.4,389.3c-0.2-2.7,0.2-3.8,2-6.9C914.1,385.5,912.5,387.3,911.4,389.3z"/>
	<path d="M915.4,407.7c0.7,1.8,0.6,2.8-0.1,4.4C914.6,410.6,914.7,409.5,915.4,407.7z"/>
	<path d="M916,397.2c0.4,1.4-0.1,2.6-0.9,4.3C914.8,399.6,915.4,398.4,916,397.2z"/>
	<path d="M912.8,431.1c0.4,1.1,0.8,2.1,1.4,3.5C912.5,433.7,913.1,432.2,912.8,431.1z"/>
	<path d="M951.4,373.4c1.4,0.3,0.8,1.1,1,1.9C951.4,374.7,951.2,374.1,951.4,373.4z"/>
	<path d="M917,420.3c0-0.4,0-0.8,0-1.2c0.1,0,0.1,0,0.2,0c0,0.4,0.1,0.8,0.1,1.2C917.2,420.3,917.1,420.3,917,420.3z"/>
	<path d="M956.8,333.4c-6.6,2.8-13.7,4.1-20.8,4.8C942.7,335.5,949.9,334.9,956.8,333.4z"/>
	<path d="M956.3,302c1.6,4.2-1.8,5.9-4,8.4C951.9,308.2,954.2,303.7,956.3,302L956.3,302z"/>
	<path d="M969,347.5c-2.9-2.9-1.4-5.9-0.5-8.9C968.9,341.5,970.1,344.4,969,347.5z"/>
	<path d="M949.9,341.2c-3.8,2.2-7.8,2.2-11.9,2.4c0-0.3-0.1-0.6-0.1-0.9C941.9,342.3,945.9,341.8,949.9,341.2z"/>
	<path d="M961.7,312.2c0.1-2.3-0.5-4.7,1.3-7.2C964.3,308.1,962.8,310.1,961.7,312.2z"/>
	<path d="M974.7,302.1c1.8,2.2,0.8,3.8,0.4,6.1C974.4,306,974,304.4,974.7,302.1z"/>
	<path d="M948,301.1c-0.4-1.6-1-3.2,1.4-4C950.2,299,948.9,300,948,301.1z"/>
	<path d="M969.1,327.1c-1.3-1.9-1.1-3.3-0.5-5.1C970,323.6,969.6,325,969.1,327.1z"/>
	<path d="M969.1,328.6c0.7,1.6,0.4,2.7-0.4,4.3C967.6,331.1,967.4,330,969.1,328.6z"/>
	<path d="M968.6,333.8c0.3,1.3,0.7,2.4-0.7,3.3C967.1,335.5,967.1,335.5,968.6,333.8z"/>
	<path d="M832.5,609.9c4.6-2.4,13-1.2,16.2,2.1C846.4,614.2,842.5,613.7,832.5,609.9z"/>
	<path d="M881,612.1c-4.7,2.6-7.1,2.5-8.4-0.2c-1.1-2.3,0.1-5.2,2.4-5.9C878.1,605.1,879.6,606.7,881,612.1z"/>
	<path d="M862.1,615.3c0.5,1,1.4,1.2,1.6,2.2c-1.8,1.5-2.6-1.7-4.4-0.8c-1,0.6,0.8,1.8-0.9,2.7c-1.9-1.9-1.7-4.8-3-7.2
		c2.2-0.9,4-2.4,6.1-1C863.2,612.3,862.9,613.9,862.1,615.3z"/>
	<path d="M867.5,608.5c2.3-0.1,4.2,1.8,4.2,4c0,2.3-1.7,4.1-4.1,4.2c-2.4,0.1-4.1-1.6-4.2-4C863.4,610.4,865.2,608.6,867.5,608.5z"
		/>
	<path d="M838.2,621.3c-2.7,1.6-8-0.5-12.2-4.8C829,615.8,835.7,618.4,838.2,621.3z"/>
	<path d="M826,620.3c3.7,0.2,3.7,0.2,5.8,2C829.7,623.4,829.3,623.3,826,620.3z"/>
	<path d="M672.3,335.4c-1.1-1.7-2.1-3.6-3.3-5.2c-3.9-5.4-10.3-7.5-16.8-6c-3.1,0.7-5.7,2.2-7.8,4.6c-8,9.2-10.1,20.1-9,31.9
		c0.2,2.1,1.2,4.1,1.6,6.3c-2-1.5-2.6-3.8-2.9-6c-1.5-12.4,0.7-23.8,9.3-33.4c4.8-5.3,11-5.9,17.5-4.6
		C667.3,324.2,671.3,328.5,672.3,335.4z"/>
	<path d="M639.8,323.2c-6.4,5-8.2,12.7-11.5,19.6C629.1,336.1,633.5,326.5,639.8,323.2z"/>
	<path d="M626.3,359.1c-1.2-3.2-1.2-6.4,0.3-9.5C626.5,352.8,626.7,356,626.3,359.1z"/>
	<path d="M630.7,371.3c-1.6-1.8-2.6-4-2.9-6.5C629.1,366.8,630.2,368.9,630.7,371.3z"/>
	<path d="M632.4,374.6c1.2,1.2,2.4,2.4,4.1,4.1C634.2,377.5,633,376.3,632.4,374.6z"/>
	<path d="M673.2,338.1c0.9,1.1,0.9,1.9,0.7,2.7C673.1,341.1,673.1,340.9,673.2,338.1z"/>
	<path d="M638.2,368.4c0.6,0.1,0.8,0.5,0.8,1.4C638.4,369.4,637.8,369.3,638.2,368.4z"/>
	<path d="M1000.8,374.1c-2.7-0.7-4.5-2.5-6.6-3.7c-2.1-1.2-4.3-2.1-6.6-2.5c-5.6,3.7-10.1,2.8-14.9-3.3c2.7,0.7,5.1,1.2,7.4,1.9
		c1.8,0.5,3.4,0.8,4.9-0.6c0.8-0.7,1.8-0.9,2.8-0.6c4.7,1.3,9,3.4,12.5,6.9C1000.7,372.5,1000.9,373,1000.8,374.1z"/>
	<path d="M960.4,362.1c3.7-2.8,8.3-2.3,11.5,1C968.1,362,964.3,362.1,960.4,362.1z"/>
	<path d="M974,382.2c1.6,2.2,3,3.7,2.9,6.6C974.8,386.9,974,385.2,974,382.2z"/>
	<path d="M979.3,427.3c-6.6-1-12.9-2.8-18.1-7.4C967.2,422.6,973.8,423.6,979.3,427.3z"/>
	<path d="M969.4,430.1c-0.9-0.6-1.3-0.9-2.3-1.6C968.6,428.4,969.2,428.4,969.4,430.1z"/>
	<path d="M1029.3,420.6c0.6,0.3,1,0.7,0.8,1.4c-0.5,0.4-0.8,0-0.9-0.3C1028.9,421.3,1028.9,420.9,1029.3,420.6z"/>
	<path d="M832.7,397.6c-2.3,2.2-4.4,2.5-7.3,1.2C827.8,398.3,829.9,398,832.7,397.6z"/>
	<path d="M840.9,399.7c2,0.1,3.1,0.6,4.2,1.4C843.9,401.1,842.6,401.1,840.9,399.7z"/>
	<path d="M834.7,398.6c1.2-0.4,1.9-0.4,2.5,0.6C836.2,399.6,835.5,399.7,834.7,398.6z"/>
	<path d="M889,341c-0.5,1-1,0.8-1.7,0.5C887.7,340.4,888.3,340.7,889,341z"/>
	<path d="M473.9,295.6c0.9,0.1,1.3,0.7,1.3,1.4c0,5.1,2.7,9.6,3.5,14.5c0.8,4.9-0.5,14-2.7,17.7c-0.8-2-0.8-3.8-0.3-5.6
		c1.8-6.3-0.1-12.2-1.3-18.2c-0.6-2.8-1.3-5.5-1.4-8.4C473,296.5,473.1,295.9,473.9,295.6z"/>
	<path d="M500.2,262.3c1.5,0.9,1.1,1.7,0.7,2.5c-0.9,1.5-1.8,3.1-3.1,4.2c-4.4,3.5-8.5,7.5-14.5,9.5c1.3-2.6,2.7-4.6,5.3-5.2
		c2.2-0.5,3.6-1.8,4.9-3.5C495.5,267.1,497.5,264.4,500.2,262.3z"/>
	<path d="M482.9,354.4c-2.7,5.1-8.2,7.9-11.2,12.9c0.1-1.9-0.4-3.9,2.1-4.7c0.9-0.3,1-1.6,1.2-2.6c0.7-2.7,2.2-4.8,4.3-6.4
		C480.9,352.3,481.1,352.4,482.9,354.4z"/>
	<path d="M469.8,225.2c1.9-2.5,4-4.4,7.6-3.4c1.7,0.5,3.7,0.2,5.5,0.3c1.4,0.1,2.8,0.5,4,2.1c-3.3,0.9-6-1.7-8.6-0.9
		C475.6,224.2,472.9,225.1,469.8,225.2z"/>
	<path d="M409.3,384.7c-1.3,2.8-3.8,4.5-6.1,6.4c-2.8,2.3-6,4-9,6c-0.5,0.3-1.1,0.7-2.4,0.1c3.3-2.2,6.2-4,9.1-6.1
		c2.8-2,5-4.9,8.1-6.6C409,384.5,409.1,384.6,409.3,384.7z"/>
	<path d="M427.3,299.8c5.4,1,10.3,1.8,15.2-0.1c0.1,1.1,1.5,0.9,1.9,1.8C440.5,303.3,429.8,302.5,427.3,299.8z"/>
	<path d="M471.2,241c0.8,5,0.5,10,0,14.9C470.2,250.9,468.8,246,471.2,241z"/>
	<path d="M441,385.3c5.2-2,10.1-3.9,15.1-5.8C454.9,382.1,444.7,386.1,441,385.3z"/>
	<path d="M458.7,236.3c1.5-3.3,2.5-6.9,6-8.8c2.1,1.5,0.7,2.6-0.2,3.6C462.7,233,460.2,234.1,458.7,236.3z"/>
	<path d="M502.9,255.7c0.4-5.7,0.7-11.3,0.2-17.2C505.2,241,505,251.5,502.9,255.7z"/>
	<path d="M481.8,206.5c4.9,0,12.6,6,13.5,10.7C491.6,212.1,486.9,209.1,481.8,206.5z"/>
	<path d="M432.9,306.7c3.7,4.8,8.3,8.7,11.5,13.9C440.5,316.1,435.6,312.3,432.9,306.7z"/>
	<path d="M459.5,279c-2.5-1.2-5.1-2.4-5.8-5.5c0.2-0.2,0.4-0.5,0.7-0.7c1.9,1.9,3.8,3.8,5.6,5.7C459.8,278.6,459.6,278.8,459.5,279z
		"/>
	<path d="M472.4,233.5c0.3-4.7,0.4-5,2.9-6.9C474.3,228.9,473.4,231.2,472.4,233.5z"/>
	<path d="M457.6,344.5c0.7-2.9,2.6-3.7,4.5-4.6C461.2,341.8,460.4,343.6,457.6,344.5z"/>
	<path d="M427.1,393.1c-0.7,1.6-1.8,2.5-3.9,2.7C424.1,393.8,426,394,427.1,393.1z"/>
	<path d="M477.7,339.6c-2.4-1.7-2.4-1.9-0.8-4.8C477.2,336.6,477.4,338.1,477.7,339.6L477.7,339.6z"/>
	<path d="M477.6,339.7c2,1,0.5,2.2,0.5,3.8C476.4,342,477.8,340.7,477.6,339.7L477.6,339.7z"/>
	<path d="M467.6,371.6c0.7-1.7,1.2-2.8,2.7-3.4C470.3,370.2,469.4,370.9,467.6,371.6z"/>
	<path d="M431.1,390.6c-0.2,1.4-1.1,1.6-2.3,1.7C429,390.6,430.3,391,431.1,390.6z"/>
	<path d="M433.5,389.3c1.1-1.7,1.9-2.3,3.5-2C436.3,388.5,435.3,388.8,433.5,389.3z"/>
	<path d="M476.6,333.5c-0.9-1-1.1-1.7-0.4-2.4C477.2,330.8,477.2,331.1,476.6,333.5z"/>
	<path d="M477.8,286.7c0.5-1.7,1-2.7,2.6-3C480.1,285.4,479.2,285.9,477.8,286.7z"/>
	<path d="M472.7,292c1.1,1,0.9,1.7,0,2.6C471.8,293.7,472.2,292.9,472.7,292z"/>
	<path d="M482.9,279.2c-0.1,1.6-1.1,1.8-2.3,2.6C480.8,280.1,481.5,279.5,482.9,279.2z"/>
	<path d="M455.2,334.7c-0.8-0.6-0.9-1.3-0.8-2.2C455.6,333,455.3,333.9,455.2,334.7z"/>
	<path d="M451.6,326.3c-0.5-1.2-0.5-2,0-2.9C452.3,324.3,452.4,325.1,451.6,326.3z"/>
	<path d="M408.9,384.4c0.1-1,0.3-1.8,1.7-2c0,1.1-0.8,1.6-1.4,2.2C409.1,384.6,409,384.5,408.9,384.4z"/>
	<path d="M516.6,242.2c0.9,0.8,0.8,1.5,0.5,2.6C516.4,243.9,516.2,243.3,516.6,242.2z"/>
	<path d="M463.7,374.4c0.1-0.8,0.6-1.2,1.3-1.2C465.2,374.4,464.1,374.1,463.7,374.4z"/>
	<path d="M425.1,300.7c0.1-0.8,0.5-1,1.2-0.7C426.3,301,425.8,301,425.1,300.7z"/>
	<path d="M471.6,259.8c0.2,0.1,0.4,0.1,0.5,0.3c0.1,0.3,0,0.6-0.4,0.5c-0.2,0-0.3-0.2-0.4-0.4C471.3,260.1,471.5,260,471.6,259.8z"
		/>
	<path d="M489.1,368.3c11.1-2.2,46.8,12.2,50.3,23.6C525.2,378.1,508,371.8,489.1,368.3z"/>
	<path d="M561.5,372.3c-4.5-2.2-8.2-5.8-13.1-6.4c-5.4,3.7-10.2,2.7-14.8-3.3c2.8,0.7,5.3,1.3,7.7,2c1.5,0.4,3,0.7,4.3-0.5
		c0.9-0.8,1.9-1,3.1-0.7c4.7,1.3,9,3.5,12.5,6.9C561.6,370.6,561.9,371.1,561.5,372.3z"/>
	<path d="M544.8,420.8c-3.3-4.4-8.3-6.1-12.6-8.7c-2.8-1.7-5.4-3.5-7.5-6.1c3.7,2,7.5,3.8,11.1,5.9c2.9,1.7,6.1,3.1,8.4,5.7
		C544.9,418.4,546.1,419.2,544.8,420.8z"/>
	<path d="M518.3,389c-6.3-6.1-13.2-11-21.5-13.8C505.8,376.9,512.9,381.7,518.3,389z"/>
	<path d="M496.9,336.2c6.7-2.6,13.8-3.3,20.7-4.8C511.1,334.3,504.1,335.5,496.9,336.2z"/>
	<path d="M532.8,361.1c-3.7-1.2-7.6-0.8-11.9-0.7C523.9,357.3,529.2,357.6,532.8,361.1z"/>
	<path d="M517.1,300c1.6,4.2-1.7,5.9-4,8.4C512.7,306.2,515,301.7,517.1,300L517.1,300z"/>
	<path d="M530.3,346.2c-2.7-2.9-2.7-5.5-0.6-9.9C529.7,339.6,531.1,342.5,530.3,346.2z"/>
	<path d="M537.6,386.1c-2.9-2.2-3.9-5.6-5.8-8.4C534.8,379.8,537,382.4,537.6,386.1z"/>
	<path d="M510.8,339.3c-3.7,2.2-7.8,2.1-11.9,2.5c-0.1-0.3-0.1-0.6-0.2-0.9C502.8,340.3,506.8,339.8,510.8,339.3z"/>
	<path d="M522.7,310.3c-0.2-2.3-0.4-4.7,1.1-6.7C525.2,306.1,523.6,308.2,522.7,310.3z"/>
	<path d="M493.3,363.2c-1.9,2-4.2,2.5-6.8,2.3C488.5,364,491,363.8,493.3,363.2L493.3,363.2z"/>
	<path d="M500.8,362.8c2.2,0,4.5,0,6.4,1.3C505.1,364.1,502.7,364.7,500.8,362.8z"/>
	<path d="M535.9,305.5c-0.6-1.6-0.9-3.1-0.2-4.7C537.4,302.2,536.4,303.9,535.9,305.5z"/>
	<path d="M510.4,295c0.5,2-0.5,3.1-1.4,4.4C508.2,296.7,508.2,296.7,510.4,295z"/>
	<path d="M529.9,325.1c-1.1-1.9-1.2-3.3-0.2-5.3C530.6,321.7,530.6,323.1,529.9,325.1z"/>
	<path d="M530,326.3c0.6,1.9,0.7,3.1-0.5,4.2C528.3,329.1,528.4,328,530,326.3z"/>
	<path d="M528.7,335.5c-1.2-1.8-0.5-2.7,0.5-3.7C530.1,333.1,530,334.1,528.7,335.5z"/>
	<path d="M493.3,363.3c1.6-0.9,3.2-0.6,4.8-0.1C496.5,363.5,494.9,363.7,493.3,363.3L493.3,363.3z"/>
	<path d="M452.3,426.9c0.5,1,0.4,1.7-0.2,2.6C451.6,428.6,451.7,427.9,452.3,426.9z"/>
	<path d="M439.8,428.9c0.6,1.3-0.4,1.5-0.7,2.2C438.3,430,438.6,429.3,439.8,428.9z"/>
	<path d="M366.4,484.3c-5.8-9.1-7.7-19.1-6.7-29.8c1.7-0.2,1.5,1,1.6,1.7c0.4,3.4,1.1,6.8,0.9,10.1c-0.3,4.9,1.3,9.3,3.1,13.6
		C365.9,481.4,366.7,482.7,366.4,484.3z"/>
	<path d="M367.3,546.3c0.5,4.3,1.5,8.6,1.4,13c-0.3,0-0.6,0.1-1,0.1c-0.1-2.2-0.4-4.4-0.2-6.5C367.7,550.7,366.7,548.6,367.3,546.3z
		"/>
	<path d="M370.3,492.5c-1.3-1.4-2.4-3-2.5-5.3C370.4,488.5,369.9,490.8,370.3,492.5z"/>
	<path d="M358.9,446.6c0.4,0.9,0.2,1.8-0.3,2.7C357.8,448,357.8,448,358.9,446.6z"/>
	<path d="M365.7,537.6c0.6,1.5,0.9,2.2,0.8,3.1C365.7,540.9,365.7,540.8,365.7,537.6z"/>
	<path d="M375.3,500.6c0.8,0.2,1.3,0.6,1.2,1.5c-0.7,0.5-1,0-1.2-0.5C375.1,501.4,374.8,501,375.3,500.6z"/>
	<path d="M372.6,496.6c-0.7-0.2-0.8-0.7-0.8-1.1c0.6-0.4,0.9-0.2,1,0.3C372.8,496,372.7,496.4,372.6,496.6z"/>
	<path d="M434.9,497.7c-1.3-6.9-0.5-13.8,0-20.6c1.6,0,1.8,0.9,1.7,1.7C436.1,485.1,435.4,491.4,434.9,497.7z"/>
	<path d="M433.6,560.8c-0.2,6.5-0.8,13-0.1,19.8C431.3,577.8,431.3,563,433.6,560.8z"/>
	<path d="M437.5,527.3c-0.7-7.4-2.5-14.7-2-22.2C436.2,512.5,437.7,519.8,437.5,527.3z"/>
	<path d="M437.1,460.2c0.9,5.4-1.3,10-1.2,14.8C434.2,471.7,434.9,463,437.1,460.2z"/>
	<path d="M445.6,507c0-4.4,0-8.9,0-13.3C446.9,496.2,446.9,504.8,445.6,507z"/>
	<path d="M445.5,489.7c0-3.8,0-7.6,0-11.5C447.3,479.4,447.4,483.6,445.5,489.7z"/>
	<path d="M436.2,547.1c-0.1,4-2.3,6.6-3.6,9.8C432.2,554.1,433.7,549.8,436.2,547.1z"/>
	<path d="M446.2,472.2c-1.9-2.7-1.2-5-0.7-7.3C445.8,467.1,447.2,469.1,446.2,472.2z"/>
	<path d="M438.8,570.1c-1.2-1.6-0.3-3,0.1-5.2C440.2,567.1,439.6,568.6,438.8,570.1z"/>
	<path d="M408.9,446.4c1.2,1.8,0.3,2.6-0.1,4.1C407.8,449,408.2,448,408.9,446.4z"/>
	<path d="M440.3,558.8c-0.1,1.4-0.1,2.8-0.2,4.2C439.1,561,439.1,561,440.3,558.8z"/>
	<path d="M445.8,512.4c1,1.3,0.9,2.3,0.4,3.3C445.8,514.8,445.3,513.9,445.8,512.4z"/>
	<path d="M504.3,411.2c-0.4,0.4-0.7,0.4-1,0.2c-4.8-2.5-8.5-2.3-12.2,1.6c-6.8,7.2-12.3,15.1-13.4,25.4c-0.6,5.7-2.1,11.4-2.3,17.2
		c-0.9-1.6-0.7-3.2-0.6-4.9c0.2-4.1,0-8.2,0.9-12.1c2.4-10.9,7-20.8,16.1-27.9c2.9-2.3,6.4-3.4,10.2-1.7
		C503,409.4,504.1,410,504.3,411.2z"/>
	<path d="M468.1,468c-1.5-2.8-2.7-5.7-2.1-8.9C467.4,461.9,467.7,465,468.1,468z"/>
	<path d="M467.3,435.6c-0.4-2.4,0.5-4.4,1.6-6.4C469.7,431.6,468.5,433.6,467.3,435.6z"/>
	<path d="M476.7,463c-1.2-0.9-1-1.9-0.9-2.9C477.1,460.7,476.7,461.7,476.7,463z"/>
	<path d="M409.7,610.3c-3.2,1.8-8,1.1-16-2.2C397.4,605.5,406.3,606.6,409.7,610.3z"/>
	<path d="M441.2,611.6c-2.5,1.2-4.8,3.2-7.5,0.8c-1.5-1.3-1.6-3.2-0.9-4.8c0.8-1.7,2.4-2.6,4.3-2.3
		C440.8,605.9,440.6,608.9,441.2,611.6z"/>
	<path d="M415.9,611.5c2-0.8,3.8-2.3,5.9-0.8c1.5,1,1.4,2.6,0.5,3.8c0.3,1.2,1.5,1.3,1.5,2.4c-1.8,1.4-2.6-1.8-4.3-0.9
		c-0.9,0.6,0.8,1.9-0.9,2.7C416.9,616.7,416.7,614.1,415.9,611.5z"/>
	<path d="M427.8,607.9c2.3-0.1,4.2,1.8,4.2,4c0,2.3-1.7,4.1-4.1,4.2c-2.4,0.1-4.2-1.6-4.2-4C423.6,609.8,425.4,607.9,427.8,607.9z"
		/>
	<path d="M399,619.4c-5,0.9-8.6-1.9-12.1-5C391.5,614.5,395.5,616.3,399,619.4z"/>
	<path d="M393.1,620.5c-3.2,1.3-4.5-0.7-6.6-2.2C389.3,618.1,391.1,618.6,393.1,620.5z"/>
	<path d="M191.7,429.4c-1.8-2.3-2.6-4.9-2.8-7.4c-1-10.9,1.3-21.1,8-30c4.9-6.4,11.5-8,19-6.5c6.5,1.4,10.8,6,12,13.1
		c-1.8-1.8-2.6-4-3.8-5.9c-3.9-5.9-9.6-6.8-15.9-6.1c-4,0.4-7.3,2.5-9.6,5.7c-7.9,10.8-10.8,22.5-6.7,35.6
		C192.1,428.3,192.4,428.7,191.7,429.4z"/>
	<path d="M192.3,385.7c-6.2,5.3-7.4,13.3-10.6,20.2C183.4,398.2,185.4,390.6,192.3,385.7z"/>
	<path d="M181.2,422.9c-1.3-3.3-2-6.7-0.5-10.2C181.2,416.1,180.6,419.6,181.2,422.9z"/>
	<path d="M185.9,434.1c-1.9-1.7-2.8-3.9-3.3-6.4C184,429.6,185.3,431.7,185.9,434.1z"/>
	<path d="M189.3,438.6c1.1,0.8,2.3,1.6,3.4,2.4C191.1,441,189.9,440.2,189.3,438.6z"/>
	<path d="M228.7,403.6c-0.4-0.7-0.6-1.4,0-2.4C229.2,402.1,229.4,402.8,228.7,403.6z"/>
	<path d="M193.2,430.9c0.9,0.3,1.1,0.7,0.9,1.3C193.5,432.3,193.4,431.8,193.2,430.9z"/>
	<path d="M342.5,417.9c-0.5-4.9,3.3-7.3,5.7-11c1,2.2,0.5,3.7-0.7,4.9C345.6,413.6,344.3,415.9,342.5,417.9z"/>
	<path d="M366.2,406.6c-2.2,2.7-5.4,2.1-8.8-1.4C360.5,405.3,363.1,407,366.2,406.6z"/>
	<path d="M353,391.1c1.4,0.7,0.6,1.9,0.4,2.8c-0.5,2.2-1.4,4.4-0.9,6.8C351.5,397.4,351.2,394.2,353,391.1L353,391.1z"/>
	<path d="M348.3,405.7c-0.8-1.8-1.6-2.8-1.2-4.3C348.5,402.6,348.5,402.6,348.3,405.7z"/>
	<path d="M586.8,460.2c0.7,0.2,1.1,0.5,0.7,1.5C586.9,461.3,586.4,461.1,586.8,460.2z"/>
	<path d="M449.8,339.1c-0.3,0.8-0.8,0.9-1.7,0.3C448.6,338.7,449.1,338.4,449.8,339.1z"/>
	<path fill="#FFFFFF" d="M878.4,609.7c-1.9,0.2-2.2,1.1-0.9,2.6c-2.1,0.5-2.9-0.5-3.3-2c-0.3-1.2,0.2-2.2,1.3-2.6
		C877.1,607.3,878,608,878.4,609.7z"/>
	<path fill="#FFFFFF" d="M858.4,614.8c0-2.1,0-2.1,2.3-1.8C861,614.6,859.7,614.6,858.4,614.8z"/>
	<path fill="#FFFFFF" d="M869.9,613c-0.2,1.3-0.9,2.3-2.3,2.1c-1.5-0.2-2.1-1.4-2-2.9c0.1-1.3,0.8-2.1,2.1-2
		C869.1,610.4,869.8,611.5,869.9,613z"/>
	<path fill="#FFFFFF" d="M438.6,608.3c-0.1,1.3-1.7,0.5-1.5,2.2c0,0,0.2,0.4,0.4,0.9c-0.7,0.8-1.4,0.5-2,0c-1.2-1-1.8-2.3-0.7-3.7
		C436.3,606.1,437.5,607,438.6,608.3z"/>
	<path fill="#FFFFFF" d="M418.4,614.2c-0.3-2.5,0.9-2.4,2.4-2C421.2,614,419.9,613.9,418.4,614.2z"/>
	<path fill="#FFFFFF" d="M427.5,609.5c1.6,0.2,2.5,1.1,2.5,2.6c0,1.4-0.7,2.4-2.1,2.3c-1.4-0.1-2.1-1.1-2.2-2.4
		C425.5,610.6,426.3,609.8,427.5,609.5z"/>
</g>
</svg>
