<?xml version="1.0" encoding="utf-8"?>
<!-- Generator: Adobe Illustrator 19.1.0, SVG Export Plug-In . SVG Version: 6.00 Build 0)  -->
<svg version="1.2" baseProfile="tiny" id="Layer_2" xmlns="http://www.w3.org/2000/svg" xmlns:xlink="http://www.w3.org/1999/xlink"
	 x="0px" y="0px" width="900px" height="600px" viewBox="144 97 900 600" xml:space="preserve">
<g>
	<path d="M910.8,357.2c-12.5,1.8-23.9-2.4-35.2-6.7c-5.6-2.1-11.2-4.4-17.1-5.9c-2.1-0.5-3.2-1.5-3.6-3.7c-0.7-3.4-0.3-6.8-1.3-9.9
		c0.4-1.1,1.7-0.6,2-1.5c0-1.3-2-1.8-1.3-3.9c2.3,2,4.3,4.4,7.5,4.1h-0.1c2.8,2,4.6-0.1,6.5-1.7c1.3-1,2-2.7,4-3.3
		c2.4,1.4,4.8,0.1,7.2-1.1c1.5-3.4-0.6-6.6-1.3-9.7c-0.5-2.4-1.1-4.2,0.7-6.4c-3.8-4.3-8.4-7.7-10.9-12.8c-0.8-1.4-2.2-2.2-3.4-3.2
		c1.2,0.9,2.5,1.8,3.5,3.1c0.1,4.2,1,8.2,1.7,12.4c1.7,0.7,2.8,2.3,4.3,3.3c0.3,1.5,0.6,2.9,0.9,4.4c-3.8,4.1-8.6,5.7-14.1,5.5
		l0.1,0.1c-2.2-0.9-4.5-0.9-6.8-1.4c-0.7,1.5-0.3,2.7,0,3.9c5.6,3,11.2,2,16.7-0.2c1.9-0.7,3.2-1.9,2.7-4.3c1.6,0.6,1.6,1.6,1.5,2.7
		c-0.3,0.9-1.1,1.3-1.8,1.7c-5.6,3-11.3,4.6-17.7,2.5c-2.4-0.8-3.9-2.5-3.7-4.6c0.2-2.3-0.5-4-1.2-5.9c-0.8-2.1,0.1-3.2,2-3.9
		c0.8,1.6-1.1,1.9-1,3c3.7,6.4,13.8,6.8,21.5,0.7c0-1,0-2.1,0-3.3c-4.2,0-8.2,0.9-11.9,2.2c-3.2,1.2-5.1-0.1-7-2.3
		c2.7,1,5.1,1.6,7.9,0.2c2.4-1.1,5.3-1.1,8.5-1.6c-2.2-1.6-4.3-2-6.4-2c-1.7,0-3.2-0.6-4.8-0.9c-2-0.4-2.5-1.4-1.5-3.4
		c-2,0.6-3.6,1-4.8,2.5c0.2,1.1,0.5,2.4,0.9,4.2c-2.3-1-2.6-2.7-2.4-4.2c0.3-2.9,2.8-3.5,5.4-4c0.3-3.2-2.6-6.9,1.6-9.2
		c-0.2-2-1.5-3.9,0.5-5.7c2.3-1.3,4.1,2.2,6.8,0.3c3.4,7.3,7.9,13.5,14.2,18.5c0.8-0.3,1.9-0.6,3.2-1c-0.3-1.5-1.3-2.9-1-4.4
		s0.7-3,3-3.2c-1.7-1.8-2.3-3.4-1.6-5.3c0.9-1,2.1-0.9,3.3-0.6c1.3,0.3,2.6,0.4,3.9,0.1c2.3-0.6,4.4-0.6,6.1,1.5
		c0.5,0.7,1.4,0.8,2.2,1c2.5,0.7,4.1,2.4,5.3,4.8c3.4,6.7,8.6,11.3,16.6,12.8c-1.2-5.5-1.1-10.8-1.3-16.1c-0.2-5,0.6-9.8,2.8-14.5
		c1.9-4.2,2.6-8.6,1.6-13.2c-0.5-2.1-0.3-4,0.4-5.9c2-5.1,4.4-10,7.8-14.3c2.9-3.6,6.9-5.5,11.3-6.4c4.3-0.9,8.7-1.1,12.6-3.3
		c1.6-0.9,3.1-1.7,4.5-3.2c-0.6-4.2-2.4-8.3-2.6-12.4c-2-1.6-3.9-1.3-5.8-1.2c-7.3,0.6-9.8-2.1-8.6-9.4c0.1-0.5,0.1-0.9,0.2-1.3
		c-1.6-1.7-3-8-2.3-11c-0.9-1.4-2.9-0.8-4-2.2c-0.6-1.8,0.5-3.4,1.2-4.9c0.8-1.8,1.6-3.7,2.6-5.5c1.2-2.3,2.5-4.5-0.1-6.6
		c2.3-5.1,4.3-9.8,5.6-14.9c-1.5-1.1-3-1.6-4.6-2.2c-0.3,1.1,1,1,1.1,2c-1.8,0.2-2.9-0.7-3.7-1.8c-0.2-1.7,1.9-1.3,1.8-2.6
		c0.3-0.6,0-1-0.4-1.3c-0.9-1.4-3.2-1.7-3.3-3.8c0.9-1.3,1.8,0.4,2.8-0.3c-1.7-1.3-2.7-2.7-0.9-4.8c2.7-1.1,5.2,3.1,8.1,0.6
		c0.8-0.4-0.6-1.5,0.9-2.1c1.8,1.6,3.1,4.6,6.7,3.8c-1.5-1.4-3.7-1.4-4.5-3.3c0.3-0.3,0.6-0.6,0.7-0.6c6.4,3.1,12.7,0.2,18.9-0.5
		c2.6-0.3,5.2-0.4,7.7-1c0.8-0.2,1.6,0,2.3,0.5c2.2,1.7,4.8,2.6,7.4,3.4c1.2,0.4,1.6,1.2,2.2,2c1.2-0.2,1.2-1.9,2.4-1.9
		c1.3,0.4,2.3,2.3,3.9,0c0.1,1.9-1.6,2.1-1.5,3.5c1.3,0,2.7,0,4.6,0c-2.1,1.9,0.7,2.2,0.6,3.5c0.1,1.1-1.4,1.1-1.5,2.1
		c1.7,1.7,4.2,2.7,5.3,5.1c-1,1.2-1.8-0.4-2.7,0.2c0,0.2,0,0.6,0.1,0.9c2.2,6.7,2.8,13.8,0.9,20.3c-1.5,5.3-1.9,11.2-4.9,16.1
		c-0.7,1.2-0.3,2.5-0.5,3.8c-0.2,1.4-0.1,2.7-1.3,3.9c-1.3,1.2-0.9,2.9-0.6,4.4c1.1,4.5,3.3,8.4,7.1,11.5c4.2,3.4,8.7,6.6,10.4,12.2
		c0.6,2,2.2,3.6,4.1,4.8c3.6,2.2,5.5,5.8,7,9.6c0.2,0.5,0.5,1.2,0.3,1.7c-1.5,5.2,1.5,10,0.9,15.2c-0.6,5.1-0.4,10.2-1.8,15.1
		c-3.4,12.3-5,25.2-11.6,36.4c-3.3,5.6-6.7,11.1-8.3,17.5c-0.3,1.3-0.8,2.5-0.8,3.8c0.2,8.2-1.2,16.4-0.2,24.7
		c0.4,3.2,1.5,5.7,2.5,8.5c1.7,4.9,2.3,10.1,1.8,15.4c-0.8,8-2.5,15.9-3.3,23.9c-0.1,1.4-0.9,2.6-1.5,3.9c0.4,0.2,0.6,0.4,0.8,0.4
		c7.8-0.8,15.5,1.8,23.3,1.2c1.3-0.1,2.6,0,3.9,0.4c3.4,1.1,4.2,2.4,4.1,6c-0.1,2.6-0.2,5.2-0.6,7.8c-0.8,4.6-2.3,5.8-6.8,5
		c-5.2-0.9-10.4-0.4-15.7,0.5c-0.8,2.1-0.7,4.4-1.2,6.6c-0.4,1.6,0.2,3.7-2,4.5c-1.5-1.1-1.7-2.7-1.7-4.4c0-2.8-1.6-4-4.1-3.6
		c-8.7,1.2-17.5-0.3-26.2-0.2c-7.8,0.1-15.4,0.9-22.6,3.7c-2.2,0.8-4.5,1.2-6.8,1.3c7.1-0.2,14.2,1.5,21.2,0.8
		c12-1.2,23.9,0.6,35.8,0.8c1.7,0,3.3,0.3,4.5,1.6c-0.1,1.8-1.5,1.5-2.6,1.6c-3.2,0-6.4,0-10,0c-1.7,6.4-3.4,12.8-5.1,19.1
		c-3.4,12.9-6.6,25.9-11.2,38.5c-2,5.6-3.4,11.3-4.9,17c-1.2,4.8,0.1,10,2.5,14.4c2.1,3.9,5,7.4,8.4,10.4c9,7.9,19.5,13.1,30.4,17.7
		c6.6,2.8,12.5,6.8,18.7,10.2c1.2,0.7,1.9,1.6,2.2,3c0.8,3.7,1.8,7.4,2.8,11c0.4,1.4,0.4,2.8-0.4,4.5c-6.3,1-12.9,1.8-19.2,3.2
		c-11-8.7-22.9-15.6-34.4-23.1c-4.1-2.6-8.2-3.3-12.7-1.9c-11.4,3.4-23.3,4.2-35.1,4.7c-8.3,0.4-16.4,1.9-24.6,3.3
		c-10,1.7-20.2,2.4-30.2,3.8c-6.4,0.9-12.7,3-18.6,3.1c-1.4,0.7-1.3,1.5-1.5,2.1c-0.5,2.3-2.1,3-4.2,2.7c-1.8-0.3-3.5-0.6-5.3-0.9
		c-4-0.8-8-0.9-12-0.7c-2.3,0.2-4.5,0.2-6.5-0.8c-4.1,2-8.3,2.4-12.5,3.2c-11.8,2.1-23.5,4.3-35.3,6.3c-15.4,2.5-31,4.2-46.6,5.4
		c-12.9,0.9-25.7,2.4-38.3,5.6c-3.5,0.9-7.2,1.2-10.8,2c-1.9,0.5-3.7-1.3-5.8,0.1c1.9,3.3,4.1,6.4,6.8,9.3
		c-0.1,5.2,1.8,10.4,1.1,15.8c-9,0.8-18.2,1.3-27.8,1.6c0.1,0.1-0.3-0.2-0.6-0.6c-7.7-13-15.8-25.8-21.6-39.8
		c-1.1-2.6-1.8-5-1.1-7.8c0.4-1.8,1.1-3.6,0.6-5.5c5.9-3.3,21.1-4.3,24.9-1.3c-2.6,1.1-5.2-0.2-7.6,0.2c-2.7,0.5-5.5,0.2-8.1,0.8
		c-2.3,0.5-5.3-0.2-6.9,2.6c2.9,3.9,3.5,8.6,5.6,12.7c-2.7-2.6-3.6-6.2-5.5-9.9c-0.6,2.6-1.1,4.5-0.2,6.6c2.9,6.7,5.5,13.6,9,20.1
		c2.5,4.6,4.9,9.2,8.6,13c1.8,1.9,2.3,4.7,4.5,6.4c7.9,0.5,15.8-0.5,24.1-0.8c0.3-4.4-1.2-8.7-0.7-12.8c-4.2-5.8-8.7-11.1-10.8-18.2
		c1.9,1,1.9,1,4.7,5.6c3.3-1.4,6.9-1.1,10.3-1.8c7-1.6,14.1-3.3,21.2-4.5c9.2-1.6,18.6-2.1,27.9-2.8c18.5-1.3,36.8-3.4,55-6.8
		c10.5-1.9,21.1-3.2,31.5-5.4c0.7-0.1,1.5-0.1,2-1.3c-6.6-6.1-13.4-12.2-20.3-18.5c1.9-1.5,2.9-0.3,3.6,0.6
		c4.4,6.3,11,10.4,16.3,15.8c1.9,2,4.3,3.1,7,2.9c7-0.5,13.7,0.5,20.5,2.4c2.3-4.2,1.4-9.2,3.9-13.6c1.8,2.2,0,4.4,0.6,6.3
		c6.6,0.9,13-1,19.5-1.6c9.7-0.9,19.3-2,28.8-3.8c7.2-1.4,14.4-3,21.8-3.2c6.2-0.1,12.3-0.6,18.4-0.9c8.2-0.5,16.1-2.5,24.2-3.9
		c3-0.5,6.2-0.7,9.2-1c0.4,1.8-1.2,1.1-1.5,1.9c10.5,6.6,20.9,13.1,31.2,20.6c-0.3-4.6-0.9-8.8-0.3-12.9c2.2,5.3,0.2,11.6,4,16.9
		c6.1-0.8,12.1-2.4,18.9-2.6c-1.6-5.5-3-10.3-3.4-14.8c-13.8-9-29-14.2-42.4-23.3c-0.5,1.7,1.4,2.6,0.6,3.9c-1.4-0.3-2-1.5-2.3-2.5
		c-0.8-3-3.1-4.5-5.3-6.3c-7.9-6.6-13.7-14.5-12.5-25.5c0.6-4.9,2.1-9.7,3.6-14.4c4.3-13.7,8.2-27.5,11.8-41.3
		c1.8-6.7,3.6-13.5,5.4-20.4c-6-0.9-11.9-1-17.9-0.8c-2.4,2.9-5,5.7-7.2,8.7c-6,8.1-13.4,15.1-19.8,22.8c-1.3,1.5-2.7,3-3.6,4.8
		c-2,4.1-4.8,7.6-8.1,10.7c-7.7,7.1-14.6,14.8-20,23.9c-3.3,5.5-7.3,10.8-12.1,14.8c-3.3,2.8-5.2,6.3-7.9,9.3
		c-4.8,5.3-10.7,9.3-17.6,11.7c-1.8,0.6-3.5,1.3-5.3,2c-3.4,1.3-6.6,2.9-8.8,6.2c-2.4,3.5-6.5,5.3-9.7,8.2l0.1-0.1
		c-6.3,1.9-11.8,0.2-17.6-2.6c-4.8-2.3-9.8-4.2-14.5-6.7c-3.1-1.7-6.1-3.7-6.3-8.4c6.1,6.3,13.2,9.9,20.8,12.5
		c3.2,1.1,5.8,3.1,9.5,3.5c5.5,0.5,10.1-1.6,12.9-5.4c4.5-6.2,10.7-9.1,17.5-11.4c3.7-1.3,7.2-3,10.5-5.1c5.6-3.5,9.7-8.3,12-14.4
		c-0.6-3.4-2.7-5.8-5.9-6.9c-4.8-1.7-6.8-6-8.9-10c-1.5-3-4-3.8-6.9-4.6c1.6,0.9,2.2,2.2,1.9,4c-0.1,0.6,0.2,1.1,0.5,1.7
		c2.3,4.4,0.8,7.8-4,9.1c-1,0.3-2.1,0.5-3.1,0.6c-5.3,0-10.6-0.3-15.8-1.8c-1.2-0.3-2.3-0.7-3-1.8c-2.2-3.7-5.9-4.8-10-6
		c-0.1,4.8-0.6,9.5-1.8,14.3c5.6,1.7,11.6,0.1,17.3,2.3c-1.8,2.7-4.3,0.9-6.4,2c1.6,1.2,4.1,1.1,4.6,3.1c0.5,1.6-0.8,2.2-0.9,3.2
		c0.9,0.6,1.8,1.2,2.6,1.8l-0.1-0.1c0.1,2.2-1.2,3-3.1,3c-1.9,0.1-3.8,0-6,0c1,1.7,1.6,3.6-0.9,4.1c-1.7,0.4-3.5,0.2-5.2,0.3
		c-0.1,0.6,0.9,0.9,0.3,1.6c-4,0.1-6.5-3.9-10.3-4.1c-0.8-2.3-0.8-2.3-2.8-2.5c-0.4,0.5,0.2,0.9,0.1,1.3c-0.2,0.1-0.4,0.2-0.6,0.1
		c-0.8-0.2-1.7-0.2-2.4-0.6c-4.2-2.8-7.9-0.1-11.6,1.2c-1.4,0.5-1.9,1.7-2.2,3c-0.2,1,0,2.1-0.9,2.9c-1.8-1.8-1.7-4.2-0.1-6.5
		c1.5-2.1,4.1-2.1,6.7-3.5c-4.5-1.3-8.5-1.9-12.5-2.2c-4.1-0.4-8.3-0.1-12.4-0.4c1.3-1.2,2.8-1.4,4.4-1.3c6.6,0.7,13.2,1.3,19.7,2.3
		c4,0.6,8.1,1.7,12.2,0.8c1.5-0.3,2.9,1,4.2,0.3c0.2-0.6,0.1-1.1-0.2-1.1c-10.4-1.4-20.6-4.2-31.1-5.4c-2.4-0.3-4.7-0.4-7,0.6
		c-0.2,0.1-0.4,0.3-0.7,0.3c-8.3-0.2-14,5.6-20.8,9.1c-3.7,1.9-7.6,3.5-11,5.8c-9.8,6.8-21.9,8.8-31.8,15.5
		c-6.5,4.5-14.6,6-21.7,9.5c-7.6,3.8-16,5.8-23.8,9.4c-4.8,2.2-9.3,5.3-14.4,7c-0.9,0.3-1.7,0.9-3.1,0.6c-1.9-2.4-3.8-5-4.9-9
		c3.7,1.5,3.8,4.9,5.8,6.9c7.1-2.1,13.1-6.5,20-9.1c1.7-0.7,3.4-1.6,5.2-2.2c11.3-3.7,21.7-9.4,32.8-13.5c1.5-0.6,3-1.4,4.4-2.3
		c5.1-3.3,10.4-6.2,16.3-7.8c5.5-1.5,10-4.7,15-7.1c7.7-3.8,15.4-7.7,22.9-12.5c-2.3-2.6-1.2-4.9,0.6-7.1c3.7-4.5,8.7-7.1,14.3-8
		c5-0.8,7.9-3.4,9.4-7.8c0.7-2.1,2.7-3.7,3.1-5.9c-4.3-8.2-4.5-12.6-0.1-15.6c0.2,3.7-1.8,6.8-0.9,10.6c1,1.4,2.3,3.2,3.6,4.9
		c2.6,0.6,5.6-0.7,7.7,2.1c-1.6,1.9-3.6,0.3-5.6,0.9c1.7,1.1,4.3,0.4,5.2,2.9c-1.3,1.8-3.2,1.4-5.1,1.3c-1.4-0.1-2.8-0.3-4.2-0.7
		c-1.5-0.4-1.9,0.3-1.8,1.8c2.9,0.8,6.5,0.1,8.7,2.9c-0.8,3.4-5.6,0.6-5.9,4.1c-3.4,0.9-6.3-2.1-9.5-0.4c0.3,1.4,2,0.6,2.4,1.8
		c-2.9,2.9-4.2,2.8-6.6-0.3c-9.5,2.5-14.4,6.7-13.1,11.5c0.8-0.1,1.7,0.1,2.4-0.2c7.9-4,15.7-1.2,23.6,0.1
		c6.4,1.1,12.7,2.9,19.2,3.6c0.7,0.1,1.4,0.1,2,0.2c2.9-6.8,4.7-18.5,3.9-26.1c5,0.4,9.7,1.5,13.1,5.2c1.7,1.8,3.5,3.1,6,3.8
		c1.3-1.6,3.4-2.1,5.4-2.7c1.4-0.4,2.8-0.8,4-1.4c3.2-1.6,5.5-3.9,5.6-7.9c0.2-9.2,4-17.4,7.3-25.7c2-5.2,3.8-10.5,5.2-15.9
		c1.3-4.9,2.3-9.8,5.2-14.1c7.1-10.7,5.6-22.6,4-34.4c-0.7-4.7-1.8-9.3-2.7-14c-1.3-1.2-3.3-1.1-5.3-2.7c3.8-0.8,7.1,1.2,10.6-0.3
		c-0.8-12.6-5.9-23.6-14.6-33.3c-2.7,0.2-5.2-1.2-7.8-1.7c-2.4-0.4-4.4-0.2-6.3,1.5c-2.4,2.1-4.9,4-7.1,6.4
		c-4.3,4.7-4.9,9.9-3.4,15.7c0.7,2.7,0.2,5.4-0.2,8.1c-0.9,6.9-0.7,13.7,1.4,20.4c0.5,1.5,0.4,3.3,0.4,4.9c-0.1,7,0.5,14.1-0.7,21.1
		c-1.1,6.3-0.5,12.7,0.4,19.1c0.9,7.1-0.1,14.2-1.6,21.2c-1.9,9.1-5.4,17.9-7.3,27.1c-0.1,0.7-0.2,1.4-1.2,1.7
		c-0.9-0.8-0.6-1.7-0.4-2.5c0.9-3.9,1.8-7.8,2.7-11.7c0.2-0.8,0.5-1.7-0.1-2.4c-2-2.4-4-4.8-6.3-7c0.3,2.5,0.7,4.7-0.2,7
		c-2.4,5.7-7.5,8.3-13.5,6.4c-4.4-1.4-8.6-3.2-12.8-4.9c-2.3-1-3.1-3.4-4.4-5.7c1.8-0.2,2.4,1.2,3.4,1.6c4.7-18.2,4.7-36.5,1.6-55.3
		c-5.8-0.3-11.7-0.4-17.6-0.9c-7.9-0.7-15.9-0.6-23.8,0.4c-0.4,0-0.7,0.1-1.1,0.1c-8.9-2.2-17.9,0.2-26.9-0.3
		c-13.4-0.7-26.7-1.1-40.1-1.6c-8.3-0.3-16.6,0.9-24.9,0.2c-4-0.4-4.8-0.8-6-4.7c-0.4-1.1-0.6-2.3-0.9-3.4c-0.3-1-0.2-2.1-1-3.3
		c-3.3,0.5-6.8,1.3-10.2,1.6c-12.9,1.2-25.7,2.2-38.7,1.8c-5.9-0.2-11.7-0.6-17.5-1.8c-3.2-0.6-4-1.3-3.9-4.6
		c0.3-4.8,0.1-9.7,0-14.5c0-1.9,0-3.8-1.4-5.1c1.8-3.9,5.3-5.5,8.6-7.1c6.9-3.3,13.9-6.6,21-9.7c6.6-2.9,13.9-3.9,20.9-5.5
		c3.8-0.9,7.6-1.8,11.5-2.7c-0.4-5.4-2.4-10.2-3.9-15.2c-3.6-12.4-8.3-24.4-11.2-37c-0.7-3-0.3-6.2-1.7-9.6c6,0.5,11.3-2.2,17.3-1.8
		c1.3,15.6,9.1,29.3,12.1,44.2c0.7,3.5,1.4,7,1.6,10.5c0.1,2.1,0.5,4.2,1.4,6.4c8.7-1.4,17.5-1.1,26.2-0.8c3.3,0.1,6.6,0,9.9-0.6
		c8-1.3,15.8,0.4,23.6,1.9c1.2,0.2,2.2,0.9,3,1.8c0.1,1.3-1,1.5-1.8,2c-15.9,10.8-33.6,16.7-52.3,19.9c-8.9,1.5-17.7,3-26.4,5.6
		c-6.9,2-14,2.4-21.1,2.4c-11.6,0.1-23.2,0.6-35.1-2.4c0,6.4,0,12.5,0,18.8c1.2,1.4,3.2,1.5,5,1.7c7.9,0.8,15.8,1.3,23.7,1.2
		c10.2-0.1,20.4-0.3,30.5-1.6c1.7-0.2,3.2-0.6,4.8-1.7c2.2-1.6,5.2-1.6,7.9-1.6c7.5,0,14.4-2.4,21.6-3.8c8.5-1.8,16.6-4.8,25-6.7
		c7.1-1.6,12.9-5.7,19.1-9.3c1.2-0.7,2.3-1.6,3.6-2.6c-1.1-6.8-3-13.5-2.7-20.5c2.6,6.8,3.2,14,5.2,20.9
		c-11.6,8.5-24.3,13.9-38.3,16.9c1.1,1.2,2.3,1,3.3,1c11-0.2,22,1.1,33,1.6c6.7,0.3,13.5,0.6,20.2-0.7c8-1.5,16.1-0.1,24.1,0.3
		c1.3,0.1,2.6,0.4,3.9,0.4c8.3-0.1,16.5,0.7,24.8,1.3c1.8,0.1,3.5,0.3,5.7-0.1c-0.2-3.1-0.8-6.3,1.5-9.6c0.7,3.4,0.4,6.6,1.4,9.6
		c7.7,1.6,15.4-0.5,23.3,0.2c2.4-6.8-2-13.3,0.7-19.4c-3.3-1.7-3.9,2.2-6.2,1.7c-0.6-1.4,1.3-1.7,1.3-2.9c-0.8-1.1-2.6-0.8-3-2.7
		c2.8-1.6,4.9,1.1,7.5,1.4c0.6-3.5,0.9-6.8,0.3-10.2c-1.1-5.8-0.4-11.4,4-15.8c-3.6-4.3-3.4-6.8,0.8-11.4c-1.7-1.1-3.3-2.2-5-3.1
		c-2-1.1-4-2.3-6,0c-0.4,0.5-1.1,0.4-1.7,0.4c-6.6-0.3-12.1,2.5-17.8,5.3c-6,3-9,8.1-11.7,14c1.1,0.7,2,1.4,2.1,2.9
		c0.4,4.7,1.1,9.4,0,14.1c-0.6,2.9-0.4,5.8,0.2,8.8c0.9,4.7,0.6,9.5-1.2,14.1c-1.3-2.4-0.9-4.9-0.9-7.4c0-2.7,0.2-5.4-0.6-8.1
		c-0.8-2.6-0.4-5.2,0.2-7.7c1.1-4.7,1-9.2-0.7-13.9c-1.3-3.6-0.3-7.3,2.1-10.4c5.6-7.3,12.7-12.2,21.9-13.9c1.6-0.3,3.2-0.6,5-0.9
		c-0.5-3.5,0.1-6.7,0.8-10.1c0.5-2.4-1-5.3-1-8c0-3,1.8-4.5,5-4.3c-0.2,2-2.5,1.1-3.3,2.8c0.1,1.1-0.2,2.7,1.8,3.4
		c-1.1,4.8-1.9,9.6-2.5,14c1.1,1.3,2,1.7,2.9,1.7c4.5,0,7.8,2.7,10.8,5.5c1.3,1.2,2.6,1.9,4.2,2.3c4.6,1.2,9.3,1.5,14,1.9
		c3.4,0.3,6.2,1.5,9,3.1c5.4,3,10.7,6.2,17.3,4.5c0.1,0,0.3,0.3,0.8,0.9c-6.1,2.8-11.3-0.4-16.9-1.8c-0.1,2.2,1,4,2.1,5.4
		c4,4.5,5.6,9.9,6.7,15.4c1.3,6.1,2.1,12.4,3.2,18.8c21.4,4.6,43,8.6,65.1,8.3c-22,1.4-43.5-1.4-65.1-6.9c-3.1,16,1.2,30.3,8.4,44.8
		c3.8-5.1,9.1-8,12.1-13.1c0.3-0.6,0.8-0.8,1.4-1c5.6-2.6,11.1-5.1,17.2-6.6c14.5-3.6,28.7-8.4,42-15.3c5-2.6,9.3-6.4,13.2-10.6
		c1.4-1.5,2-3.3,2.3-5.4c1.1-6.9,2.3-13.8,3.2-20.7c1-7.4,0-14.4-4.1-20.9c-1.8,0.3-3.6,0-4.9,1.8c-0.3,0.4-1.7,0.3-2.4,0.1
		c-1.9-0.7-3.9-0.7-6-0.4c-1.2-2,0.3-2.9,1.8-4.1c-9.5-0.7-18.5-1.2-27.7,0.4c-0.7,0.9,1.8,0.6,0.8,1.9c-2.3,1.7-5,1.2-7.9,0.6
		c0.8-0.9,0.9-1.8,0.4-2.9c-1.9-0.5-3.9-0.3-5.8-0.4c-1,1.2,0.4,2.2-0.1,3.2c-1.9-0.1-1.2-2.8-2.8-3.1c-1.8-0.1-1,1.6-1.7,2.3
		c-1.7,0-0.8-2.1-2-2.5c-1.8,0.1-0.4,1.9-1.1,2.3c-3.1,1.5-5.5-0.6-7.9-1.3c-0.3,0.3-0.6,0.4-0.6,0.5c-1.2,5.4-5.1,7.4-10.1,8.3
		c-3.5,0.6-6.8,1.9-10.5,2c0.5-1.6,2-1.6,2.9-1.8c4.3-0.8,8.1-3.3,12.5-4c2.4-0.4,4.1-3.8,3.4-7.3c-0.7-3.3-0.6-6.6-1.3-9.8
		c-0.6-2.8-1.8-4.7-4.9-4.5c-1.4,0.1-2.4-1.1-3.7-0.9c-0.3,0.9,1,1,0.7,1.9C918,356.4,914.2,355.9,910.8,357.2L910.8,357.2z"/>
	<path d="M226,522.1c-20.5,11.3-42.4,18.4-65.3,21.5c-2.6-0.8-3.6-2.7-4-4.9c-1.1-5.3-2.8-10.5-4.5-15.6c-0.7-2.2-1.3-4.3-3.1-5.7
		c2-8.3,9.2-12.2,14.4-17.8c2.4-2.6,5.1-5,7.6-7.5c3.3-3.4,7.5-5.7,11.5-8.2c5.9-3.7,12-7.2,18.1-10.8c-1.6-5.7-5.1-10.2-8-15
		c-6.2-10.4-12.7-20.6-19-30.9c-2.6-4.3-4.8-8.7-6.5-13.4c-0.5-1.4-1-2.9-2.6-4.5c6.2-1,10.3-5.4,16-6.8c1.4,1.6,1.7,3.5,2.4,5.2
		c3.6,7.8,8.2,15,12.9,22.1c6.4,9.7,12.3,19.7,16.2,30.7c0.3,1,0.9,1.9,1.4,2.9c0.5,0.9,1.1,1.8,1.6,2.7c6.5-3.5,13.5-5.4,20.5-7.1
		c5.3-1.3,10.4-3,15.5-5.2c7-3.2,14.7-3.3,22.3-3.8c1-0.1,2.1,0.4,2.8,1.3c0.3,1.2-0.6,1.7-1.1,2.5c-11.3,15.9-26.2,27.4-43.4,36.4
		c-8.2,4.2-16.4,8.4-24,13.7c-5.7,4-12.2,6.3-18.8,8.4c-11.1,3.5-22.2,7-33.9,7.4c-0.3,0-0.6,0.2-1.3,0.4c2,6.8,3.9,13.5,5.5,20.1
		c1.9,1.1,3.6,1,5.2,0.7c10-1.7,19.9-3.8,29.6-7c7.4-2.5,14.9-4.8,22-8c2-0.9,3.8-1.6,5.1-3.8c1.2-2,4-2.9,6.4-3.6
		c7.4-2.2,13.5-6.6,20-10.5c6.8-4,12.8-9,19.6-12.8c7.5-4.2,12.5-10.8,17.7-17.2c1-1.2,1.8-2.5,2.7-3.9c-3.5-7.1-7.2-14.2-10-22
		c1.8-0.1,2.1,1.1,2.5,1.9c3.1,6.1,5.8,12.5,9.2,18.4c0.9,1.5,0.5,2.7-0.6,3.9c-4.2,4.8-8.3,9.7-12.5,14.5c-1.4,1.6-3.1,2.9-5,4
		c-4.6,2.5-8.3,6.2-12.6,9.2c6-0.8,11.6-2.9,17.5-3.9c5.6-1,11.1-2.2,16.7-3.5c7.4-1.6,14.7-3.6,21.5-7.1c7.4-3.7,15.7-4.5,23.6-6.2
		c6.8-1.5,13.5-3.5,20.4-4.6c3-0.5,6-1.2,9-1.9c1-0.2,2.1-0.4,3-1.2c-1.7-4.2-3.3-8.4-4.2-12.8c-0.6-2.9-1.1-5.6-0.5-8.6
		c0.8-4.1-1-8-3.4-11.2c-4.2-5.9-5.3-12.4-5.1-19.4c0.1-5.2,4.3-7,7.1-10.8c0.6,2.9,0.6,2.9-4,6.3c-2.1,8.8-0.9,17,4.3,24.7
		c1.1,1.6,1.8,3.6,2.5,5.5c1.3,3.4,2.5,6.8,3.6,10.2c-1.3,0.9-1.6-1-2.7-0.4c1.1,5.5,1.8,11.1,3.9,16.5c3.1,0.2,5.7-1.4,8.8-2
		c-0.6-2.1-1.2-3.9-0.6-6.1c1.9,1.3,2.3,3.7,4.2,4.9c3.8-1.8,8-2.5,12.3-3.7c-1.1-3.7-2.4-7.4-2.4-11.1c0-3-0.4-5.8-0.9-8.7
		c-0.4-2.2-0.8-4.4-2.5-6.1c-0.5-0.4-0.9-1.2-0.5-1.9c1.2-1.3,1.8,0.5,3,0.6c-0.7-4.8-3.5-9.1-2.2-14.1c-1.3-0.4-2-1.4-3.8-0.7
		c-3.9,1.7-9.4-3.6-8.5-7.7c0.6-2.7,2.6-3.9,6.7-3.9c-0.4-1.4-2.7-1.1-2.6-2.8l-0.1,0.1c6.3,1.2,12.6,1.5,19,1.9
		c2.8,0.2,5.2,1.5,7.6,2.7c2,1,4,2,6.1,2.9c3,1.3,6,2,9.3,1c0.7-0.2,1.5-0.8,2.6,0.1c-1.7,2-4.1,1.7-6.3,2.3
		c6.3,8,12,16.4,18.9,23.9c1.6,1.7,2,4,3,5.9c2.9,5.5,5.7,11.2,10.3,16c4-5,9.1-8.8,14.1-14.7c5.6-3.1,13.1-5.5,20.8-7.5
		c13.3-3.5,26.3-8,38.5-14.5c5.1-2.7,9.5-6.6,13.3-11c1.5-1.8,2-3.8,2.1-6.2c0.2-6.6,0.1-13.3-0.1-19.9c-0.2-7.4-2.4-14.1-7.1-18.9
		c-3.5-1-4,2.4-6.3,2.5s-4.7-0.6-6.8,0.7c-1.6-1.9-0.2-3,0.5-4.3c-9.1,0.6-18,1.7-26.7,4.8c-0.2,0.7,1.4,0.7,0.9,2
		c-2,1.3-4.5,2-7.3,1.4c0-0.8,0.3-1.6-0.4-2.5c-1.9-0.4-4-0.1-5.9,0.5c-0.5,1.3,0.8,2,0.6,3.2c-1.9,0.1-1.7-2.3-3.1-2.7
		c-2,0.1-1.2,1.7-1.2,2.6c-2,0.3-1.3-2.3-2.9-2.1c-1.3,0.7,0,1.7-0.4,2.5c-4,2.6-7.6-1.3-11.9-0.2c1.3-2.3,0.3-3.6-0.7-5.1
		c-5.2,3.3-2,8.2-3.1,12.5c2.5,0,4.1-1.1,5.7-2.3c1.4-1,2.9-1.6,4.6-0.9c0.4,0.2,1,0.4,1.4,0.3c7.8-2.7,15.9-0.2,23.9-2.1
		c6.2-1.5,12.9-0.9,19.1,1.7l0.1-0.1c-5.2,0.1-10.3-1.2-15.6-0.5c10.2,5.9,21.9,8.9,31.8,15.5c-0.2,0.5-0.6,0.5-0.9,0.4
		c-8.1-4.5-16.6-8-25.1-11.6c-1.5-0.6-3-1.5-4.4-2.2c-5-2.6-5-2.7-11.7-1.3c5.5,2,11,3.4,14.9,7.7c-6.4-3.4-13-5.9-20.2-6.7l0.1,0.1
		c-2.7-1-5.6-0.7-8.4-0.5c0.5,1.5,0.5,1.5,2.5,2.4c-2.1,0.8-3.2,0.9-4.5-1.1c-0.6-0.9-3.3-0.7-4.9-1.4c-2.4,1.7-4.8,3.1-7.5,4.3
		c6.4,2,12.8,2,18.9,3.4c-8-0.3-16,0-23.9-1.2c-3-0.4-5.7,1.3-8.5,2c-1.1,2-0.1,3.6,0.9,5.1c3,4.5,0.7,11.6-4.3,13.2
		c-4.4,1.4-8.6,3.4-13.2,4c-0.4,0.1-0.9,0.3-1.3-0.5c4.4-2.6,9.1-4.2,13.9-5.6c3.3-0.9,5.8-6,4.1-9c-1.6-2.7-2.7-5.3-2.9-8.5
		c-0.2-2.7-1.3-5-4.9-4.6c-0.7,0.1-1.5-0.5-2.4-0.7c-0.7,0.9,0.5,1.2,0.4,1.9c-3,2.1-7.1,1.2-10.3,2.9l0.1-0.1
		c-12.7,2.3-24.5-1.4-36.3-5.3c-5.4-1.8-10.8-3.7-16.3-4.7c-2.5-0.5-3.7-1.6-4.2-4c-0.6-3.1-0.6-6.4-1.8-9.3c0.1-1.3,1.8-0.8,2-1.9
		c-0.3-1.1-1.7-1.6-1.7-3c1.4-0.5,1.9,0.7,2.6,1.3c4.2,3.4,8.9,3,12.3-1.2c1.3-1.6,2.3-3.2,5.1-2.1c1.5,0.6,3.5-1,5.1-1.9
		c1.4-3.6-0.8-6.7-1.8-9.8c-0.7-2.4-1-4.2,0.6-6.5c-6.2-4.5-10.8-10.1-14.1-16.6c-1.9-0.3-3.6-0.1-4.7-1.5c-1.1,0.4-1.1,1.4-1.5,2.1
		c0.8,1.6,2.1,2.3,3.9,2.4c3.7,0.3,4.5,1.2,5.3,4.9c0.6,2.9,1.2,5.8,1.8,8.8c3,1.5,5.4,3.6,5.5,7.2c-1.8,4.3-6.1,4.7-9.5,6.1
		c-3.6,1.4-7.4-0.6-11.2-0.5c-0.5,1.5,0.2,2.7,0.5,3.9c6.9,2.8,13.1,1.1,19-2.7c0.9-0.9-0.7-1.9,0.3-2.9c1.3,0.4,1.4,1.6,1.6,3.1
		c-5.9,4.1-12.1,6.9-19.7,4.5c-2.7-0.8-3.9-2.7-3.6-5c0.2-1.8-0.4-2.8-1.1-4.2c-1.4-2.6-1.1-3.4,1.5-4.9c0.7,1.3-1,1.7-1,2.8
		c3.9,6.4,14.1,6.4,21.6-0.2c0.3-1-0.7-2,0.1-2.8c-0.8-0.5-1.2-0.8-1.9-0.6c-3.3,0.9-6.8,1.3-9.9,2.8c-3.3,1.6-5.2,0.2-8-1.9
		c2.2-0.3,3.3,1.2,5.3,1.2c3.1-1.8,7.4-2,11.4-3.5c-3.8-2.7-8.5-0.7-12.3-2.8c-1.1-0.6-0.1-1.8-0.7-2.7c-1.5,0.5-3,1-4.1,2.2
		c-0.7,1.6,1,2.8,0.3,4.4c-1.9-0.8-2.3-2.4-2.1-4c0.3-2.7,2.6-3.4,4.9-4.1c0.8-3-2.9-6.7,1.3-8.9c0-2.1-1.7-4,0.3-6
		c2.3-1,4.3,1.8,6.6,0.5c2.9,2.9,4.1,6.6,6.5,9.5c2.4,3,6,4.7,8.2,7.9c1.2-0.5,2.3-0.9,3.4-1.3c-0.4-2.8-2.7-5.8,1.5-7.7
		c-1.1-1.6-2.5-3.3-1.1-5.9c3.5,0,7.2-0.2,10.6-0.7c3.8,2.9,8.8,3.7,11.3,7.9l-0.1-0.1c0.5,4,4.2,5.5,6.2,8.1
		c10.5-1.5,20.8-2.7,31.2-5.6c-2.2-2.8-2.6-5.8-3.2-8.7c-1.1-0.6-1.1,1.1-2,0.7c-0.5-1.9,1-2.7,1.8-3.4c0.6-11.3-3.3-21.1-7.8-30.9
		c-3.9,8.1-5.3,16.6-5.2,25.3c-0.9-1.2-1.8-4.2-1.6-5.5c0.8-5.8,1-11.8,3.8-17.2c2.2-4.3,1.8-8.7-0.3-13.2c-1.8-4-1.3-8.4,0.3-12.5
		c0.9-2.2,1.7-4.4,2.3-6.7c1.1-4.1,2.7-7.5,6.5-10.4c3-2.2,5.9-3.8,9.3-4.7c4.5-1.2,8-4,11.9-6.6c0.9,3.6-5.3,3.3-3.6,7
		c-3.8,3.3-7.1,8.9-3.8,15.8c1.5-0.9,1.8-2.7,3.5-4c-0.9,2.3-1.6,4.2-2.3,6.3c2.7,1.2,4.7-0.1,6.1-1.8c4.7-5.8,9.2-11.7,14-17.9
		c-2.2-0.1-4,0.8-5.9,0.1c0.8-1.5,2.2-1.5,3.4-1.4c2.8,0.2,4.5-1.2,6.3-3.3c4.5-5.5,8.4-11.6,14.6-15.4c1.2-0.7,2.2-1.9,3.7-1.9
		c0.7,1.4,0.8,2.7-0.7,3.8c-11,8-17.7,19.6-25.7,30.1c-2.5,3.3-4.9,6.7-7.9,9.6c-3.1,3-6.5,2-9.9,0.6c-3-1.3-3.6-4-3.7-6
		c-1.8,4-3.9,9-8.2,12.5c-1,0.9-1.7,2-2,3.3c-1,4-1.2,8-0.3,12c0.9,4.3,2.2,8.5,4,12.5c1.7,4.1,2.8,8.3,2.7,12.8
		c-0.1,3.8,0.1,7.6,1.2,11.3c1.2,4.3,2.4,4.9,6.3,3c2.9-1.4,5.7-2.8,8.5-4.5c3.1-1.9,6.5-3.3,10.1-4.2c5-1.3,6.7-3.9,6.7-9
		c0-2.7-0.4-5.5-1-8.1c-0.9-3.8-4.1-5.8-7.4-6.9c-2.8-1-3.4-2.2-2.2-4.7c0.7-1.5,0.4-3,0.1-4.5c-2.3-13.2-0.3-25.4,8.4-36.1
		c4.9-6,9.6-12.3,14.7-18.3c1.5-1.8,3.2-3.5,5.1-4.9c1.5-1.1,2.3-2.3,1.1-4.1c-0.3-0.5-0.5-1.2-1-1.5c-3.1-1.5-2.8-4.3-2.8-7
		c-3.3-1.2-3.9-2-3.6-5.2c0.1-1.3-0.8-2.2-0.7-3.4c-0.7-1.1-2.2,0.2-2.9-1.1c-0.4-1.4,1.2-2.1,1.5-3.3c-0.4-1.6-1.1-3.1-2.4-4.1
		c-1.7,0.4-3.3,0.9-4.9,2.2c0.3,6-3.9,9.1-8.5,12c0.3-1.6,1.4-2.8,2.6-3.7c3.9-3.1,5.1-7.1,4.1-11.8c1.5-1.1,1.3,1.1,2.6,0.9
		c3.8-1.5,3.8-1.5,5.9-4.9c-1.7-1.5-1.4-3.1,0.5-4.6c-1.3-1-3-0.6-3.6-2.1c-2.5,2.1,0.4,2.8,0.9,4.4c0.1,1.8-0.8,3.5-2.9,5
		c-2.9-3.9,1.6-8.2-0.8-11.8c-5.2,2.6-4,8-5.6,12.2c-1.2-3.1-1.5-6.2-2.4-9.2c-1.6-5.3-4.7-9.2-8.5-12.9c-1.4-1.4-3.1-2.8-2.1-5.2
		c-4.3-2.8-9-0.3-13.6-1.3c-2.3,5.1-3.4,10.4-5.9,15.4c2.3,2.1,1.3,4.6,0.1,7c-1,2-2,4-2.9,6.1c-0.5,1.1-1.2,2.3-0.9,4
		c2.5-0.9,4.9-0.5,7.4-0.7c-0.2,2.1-1.8,1.7-3.5,1.8c1.4,1.8-0.5,3.3,0,5.1c2.1,1.3,5.1,0.2,7.2,2.4c-1.9,2-4-0.8-5.8,0.6
		c-0.7,2.3,2.4,2.7,2.4,4.7c0,1.8-1.5,3.3-0.9,5.2c0.7,2.2,2.5,3.1,4.6,3.2c2,0.1,4,0,6,0s3.7,1,4,2.9c0.7,5.1,3.2,9.7,3.5,14.8
		c0.1,1.4,0.3,2.8-1.3,4c-1-1.7-0.4-3.6-0.6-5.3c-0.7-4.4-2.6-8.4-3.1-12.8c-0.2-1.5-1.4-2.1-2.9-2.1c-1.7,0.1-3.3,0.2-5,0.3
		c-4.6,0.3-7.1-1.6-7-6.3c0.1-4-1.2-7.5-2.6-11.1c-0.6-1.5,0.5-2.8,0.2-4.1c-1-1.7-3.4-0.7-4.4-2.7c-0.2-2.4,1.4-4.6,2.3-7
		c0.8-2.3,2.4-4.4,2.9-7c-0.5-0.9-1-1.8-1.6-2.8c1.9-4.9,3.9-9.8,5.1-15c-1.7-1-3.2-1.5-4.8-1.9c-0.3,1.3,1.3,0.8,1.3,1.9
		c-1.8,0.4-3-0.5-4.1-2c0.8-1.2,2.3-1.5,2.9-2.8c-1.6-1.5-4.2-2.2-5.2-4.6c1-1.3,1.8,0.3,2.7-0.1c-0.6-2-4.1-2.5-3.4-5.5
		c3.8-0.8,7.1,3.2,11.4,0.7c0.2-0.2-1.1-1.2,0.3-1.8c1.8,1.6,3.2,4.5,6.8,3.8c-1.4-1.6-3.8-1.4-4.6-3.3c0.2-0.3,0.5-0.6,0.5-0.6
		c6,2.9,11.9-0.1,17.8-0.7c1.3-0.1,2.5-0.6,3.8-0.8c3.6-0.5,7.2-1.1,10.4,1.3c2.1,1.6,5.4,0.9,6.9,3.8c1-0.7,1.3-2.1,2.4-2.2
		c1.4-0.1,1,1,1.4,1.5c0.7-0.3,1.4-0.7,2.3-1.1c0.1,1.4-1.4,1.7-1.4,2.9c1.4,0.6,2.9-0.4,4.4,0.3c-1.7,1.6,3.6,3.7-0.8,5
		c1.9,2.1,4.5,2.9,5.6,5.2c-0.7,1.4-1.8-0.2-2.6,0.6c1,3.9,2.1,7.9,2,12.1c-0.1,4.1,1,8.5-1.6,12.3c-0.4,0.5-0.3,1.4-0.4,2.1
		c-0.4,5.7-3.3,10.8-3.4,16.5c0,1.6-1.7,2.8-1.8,4.8c-0.2,4.1,1.9,6.3,5,8.1c2.5,1.5,5.5,2.6,7.5,4.6c4.9,4.8,9.3,10.2,15.3,13.9
		c2.1,1.3,4.2,3.9,4.1,6.4c-0.2,4,2.2,7.1,2.7,10.7c0.6,3.9,1.1,7.7,1.4,11.6c0.6,6.7-0.6,13.2-1.1,19.8c-0.6,8.5-1.3,17-4.3,25.1
		c-1.5,4.1-3,8.2-4.8,12.2s-1.7,8-0.8,12.1c1.2,5.4,0.8,11,2.2,16.5c1.3,5.1,1.7,10.1,5.2,14.7c3.1,4.1,4.2,9.5,4.3,14.8
		c0.1,5.6,0.8,11.1,0.6,16.7c2.5,1.8,5.4,2.2,8,3c4,1.2,8,2.3,11.9,3.6c4.7,1.6,6.1,4,5.3,9c-0.4,2.3-0.3,4.5,0.4,6.8
		c-6.2,5.8-15.3,4.1-22.1,8.5c-0.2,3.1,3.1,6.1,1.1,9.6c-4.2,0.9-8.4,1.9-12.8,2.9c-1.8,6.8-3.7,13.5-5.4,20.2
		c-3.5,13.3-6.8,26.6-11.4,39.6c-2,5.5-3.4,11.1-4.7,16.7c-1.3,5.1-0.1,10.4,2.5,15.2c3.4,6.4,8.6,11.6,14.5,15.2
		c7.5,4.6,15.2,9.2,23.6,12.3c7.5,2.8,13.9,7.5,21,11.3c0.8,5.9,3.7,11.3,3.5,17.5c-6.7,1-12.7,1.6-18.5,3.1
		c-1.5,0.4-2.2-0.4-2.9-1.4c3.5-3.1,7.9-3.1,12.2-3.7c4.4-0.6,4.9-1.4,4-5.8c-0.8-3.9-1.4-7.7-5.6-9.6c-0.3-0.2-0.5-0.4-0.8-0.6
		c-5.9-2.8-11.5-6.2-17.5-8.9c-4-1.8-8-3.6-11.7-6c-1.1-0.7-2.2-1.8-3.5-1.4c-3.6,1.2-5.3-1.1-6.8-3.6c-1.1-1.7-2.4-3.1-4-4.5
		c-8.6-7.3-14.9-15.8-13.3-27.8c0.8-6.2,2.6-12.3,4.6-18.2c5.4-16.1,9.4-32.6,13.7-48.9c0.6-2.1,1.6-4.2,1.4-6.3
		c-0.9-1.1-1.9-0.8-2.8-0.7c-0.5,0-0.9,0.2-1.4,0.3c-9.5,0.7-16.4,4.9-21.7,13.1c-4.2,6.5-10.5,11.5-15.4,17.7
		c-0.4,0.5-0.9,0.8-1.2,1.3c-5.5,11.1-15.9,18.1-23.4,27.5c-4.9,6.2-8.6,13.4-13.9,19.3c-1.6,1.8-3,3.7-4.7,5.3
		c-3,2.9-3.6,6.3-3.1,10.1c0.5,4,0.9,8.1,3.5,11.4c2.2,2.7,2,5.4,0.5,8.2c-1.5,3-2.6,6-2.7,9.5c-0.1,2.7,1,3.6,3.6,3.6
		c3.7-0.1,7.2-1.3,10.8-2.1c8.6-1.9,17.4-1.6,26.2-2c8.2-0.4,16.2-1.6,24.3-3.2c4.6-0.9,9.2-2.2,14-1.8c1.9,0.2,3.4,0.5,4.4,2.5
		s3.2,2.8,4.9,4c5.8,3.9,11.9,7.4,17.5,11.5c0.6,0.4,1.2,0.8,2.2,0.7c1.1-1.7,0.3-3.8,0.6-5.7c0.2-1.4,0.3-3.1,2.2-3.1
		c2,0,2.5,1.6,2.6,3.2c0.3,4.1,0.5,8.3,1.7,12.3c0.4,1.2-0.2,2.1-1.3,2.5c-9.2-6.4-18.6-12.6-28.1-18.6c-0.5-0.3-1-0.7-1.5-1
		c-11.1-6.1-7.1-5.6-19.1-2.9c-9.2,2-18.4,3.1-27.7,3.6c-9.8,0.5-19.6,1.2-29.2,3.7c-3.3,0.9-6.8,0.9-10.3,1.4
		c-1.8,2.7-1.3,5.5-0.5,8.2c-0.5,0.9-1.2,1.2-1.9,1.2c-4.4-0.1-8.8-0.2-13.1-0.5c-3.7-0.3-7.2-1.6-9.9-4.4c-1.8-1.8-3.8-2.2-6.1-1.6
		c-2.4,0.6-4.8,1.1-7.1,1.6c-0.2,0.4-0.4,0.6-0.4,0.8c-1.7,5.7-1.7,5.7-7.5,4.7c-5.3-0.9-10.5-1.8-15.9-1c-1.8,0.3-3.5-0.3-5.1-1
		c-4.8,2.4-10,2.8-15.1,3.7c-12,2.2-24,4.5-36,6.3c-14.5,2.3-29.1,3.9-43.8,4.9c-13.1,0.9-26.1,2.7-39,5.8
		c-4.4,1.1-8.9,2.6-13.6,1.4c-0.5-0.1-1.1,0.3-1.9,0.6c2.2,3.3,4.1,6.5,7,9.4c-0.3,5.2,1.9,10.4,0.7,16c-9,0.5-18.1,1-27.5,1.5
		c0,0-0.4-0.1-0.5-0.4c-8.1-13.5-16.4-26.8-22.4-41.5c-0.7-1.7-1.1-3.3-0.6-5.1c0.5-2.3,1-4.6,0.9-6.9c6.5-3.4,21.4-4.1,24.8-0.9
		c-7.6,0-14.8,0.3-22.6,2c2.1,5,4,9.7,5.9,14.3c-3-2.7-3.9-6.5-5.8-10.2c-1.1,3.4-0.6,6.2,0.8,9c2,3.9,3.3,8.1,5.1,12.1
		c3.8,8.2,8.6,15.7,14.3,22.7l-0.1-0.1c0.2,1.1,1,1.8,1.8,2.6c7.9,0,15.8-0.5,23.9-1.1c0.4-4.4-0.6-8.5-0.9-12.6
		c-0.2-1.8-2.2-3.5-3.4-5.2c-2.7-3.8-5.3-7.5-6.8-12c-0.1-0.5-0.3-0.9,0.2-1.4c2.2,1.4,2.7,4,4.2,6.1c2.3-1.8,5.1-1.1,7.8-1.6
		c7.6-1.3,15-3.4,22.6-4.7c10.7-1.9,21.7-2.5,32.5-3.3c18.1-1.4,36.1-3.6,53.9-6.9c9.2-1.7,18.4-3.1,27.6-4.7c1.1-0.2,2.3-0.6,4-1
		c-7.1-6.5-13.9-12.8-21-19.3c2.5-1,3.5,0.2,4.2,1.3c4.4,6.5,11.3,10.4,16.6,16c1.6,1.7,4.1,2.5,6.5,2.4c6.6-0.5,13,0.3,19.3,2.1
		c0.3,0.1,0.7,0,1.2-0.1c1.9-4.2,1.5-9,3.2-12.6c11.8,4.5,21.9,12.9,35.8,10.5c0-4.7,2-9.8,2-15.1c0-4,0.7-7.7,3.2-11
		c0.6-0.7,0.9-1.7,1.2-2.5c-0.5-1.2-1.1-2.2-2.2-3.3c-1,1.3-1.8,2.6-3.2,3.5c-4.5,2.6-6.2,2.5-10.2-0.9c-1.4-1.2-2.8-2.2-4.2-3.3
		c-3.3-2.7-5.9-5.6-4.3-10.3c0.3-0.8,0.3-1.8-0.3-2.4c-2.1-2.1-2.6-5-3.6-7.6s-2.6-4.4-5.6-5.1c-1.3,0.9-2,2.4-2.9,4
		c0.5,1.7,1.3,3.4,0.8,5.5c-2.5-1.3-1.8-3.7-1.9-5.8c-3.2-2.2-7-1.7-11.1-3.1c1.8,3.2,3.4,5.3,6.1,6.9c4.6,2.7,9.6,4.9,13.1,9.2
		c0.9,1.1,2,2.1,2,4.3c-5.3-1.9-8.5-6.7-14.1-7.4c1.7,1.5,3.4,2.9,5,4.5c1.6,1.5,3,3.3,3.3,6.2c-5.7-1.7-8.2-7.1-12.9-9.4
		c1.3,2.7,4.4,4.6,4,8.2c-2.7,0.5-3.6-2.1-5.5-2.7c-0.6,0.8,0.7,1.9-0.5,2.8c-2.4-1.5-3.9-3.7-4.1-6.9c-4.1,0.6-0.6,3.4-1.6,4.9
		c-2.4,0.1-2.5-2.4-4.2-3.6c-5.2-0.5-10.8-1.5-16.1-3.7c-2.3-0.9-3.8,0.6-5.5,1.5c-1.3,0.7-2.5,1.8-3.4,3.4c2.6,5.2,6.7,9.6,10,14.5
		c0.6,0.9,1.9,0.9,2.8,1.4c1.1,0.6,2.5,0.8,3.2,2c-3.2,1.1-10.9-3.9-16.5-10.5c0.9-0.7,1.3,0.8,2.3,0.4c-1.4-2.7-3.8-4.8-4.5-8.1
		c1.2-1.6,2.5-3.2,4-5.1c-9.3-2-18.4-3-28.3-2.6c5.3-2.2,10-0.9,14.7-0.7c3.2,0.2,6.3,1,9.5,1.5c3,0.4,6,1.5,9-0.3
		c1-0.6,2.2-0.2,3.4,0.3c5.8,2.2,11.7,3.4,18,1.9c-5.9-0.9-11.9-1.7-17.8-2.7c-7.7-1.3-15.4-2.8-23-4.1c-3.6-0.6-7.2,0.1-10.8,0.4
		c-8.1,0.5-13.6,5.7-20.1,9c-10.6,5.4-20.6,12-32.2,15.4c-0.8,0.2-1.6,0.6-2.2,1.1c-11.5,8-24.8,12.3-37.6,17.4
		c-10.2,4.1-20.2,8.6-30.2,13.1c-0.8,0.3-1.5,0.6-2.3,0.8c-0.3,0.1-0.7,0-1.2,0c-2.3-2.3-3.6-5.2-4.7-8.3c3.2,0.8,3.4,4.3,5.5,6.2
		c3.6-1.3,7.1-3,10.6-4.7c6.3-3.1,12.7-6.4,19.5-8.3c3.8-1.1,7.2-3,10.8-4.6c4.6-2.1,9.4-4,14.1-5.9c2.6-1.1,5.3-2.1,7.7-3.7
		c5-3.3,10.2-6.1,15.9-7.6c6.3-1.6,11.4-5.6,17.2-8.3c6.7-3.1,13.1-6.6,19.3-10.5c2.5-1.6,5.4-2.2,8.2-2.9c-0.1-5.1,4.2-9,9.2-8.9
		c7.2,0.2,14.4-0.9,21.5-1.9c1.8-0.2,2.8-1.6,3.9-2.6c7.1-0.5,13-2.6,15.4-10.1c-1.2-8.3-4.5-16.1-9.1-23.8
		c-4.5,0.8-9.4,1.7-14.2,2.9c-7.7,1.9-15.5,3.6-23.2,5.3c-2,0.4-3.8,1.2-5.7,1.9c-4.8,1.8-9.4,4.3-14.9,4.1
		c-2.5-0.1-5.2,1.5-7.7,2.6c-7,3-14.5,4.3-21.9,6.1c-14.7,3.6-29.6,6.7-43.8,11.8c-3.2,1.2-6.6,1.8-10,2.6c-1.9,0.5-3.6,0.2-4.7-1.5
		C229,528.9,226.7,525.8,226,522.1c2.3-0.9,3.3,0.8,4.5,2.4c3.5,4.9,4.2,5.2,10,3.7c7.3-1.9,14.3-5.2,21.7-6.7
		c12-2.4,23.7-5.9,35.7-7.9c3.6-0.6,7.1-1.9,10.6-3.1c9.1-3.3,18.5-5.8,27.6-9.2c6.2-2.3,13-2.7,19.4-4.3c12.6-3,25.4-4.6,37.7-9
		c5.4-2,5.9-2.7,4.5-8.4c-1.8-7.5-2.7-7.9-9.9-5.2c-8.9,3.3-18,5.5-27.3,7.1c-9.4,1.6-18.7,4.5-28.1,6.4c-7,1.4-13.6,3.7-20.2,6.6
		c-9.8,4.3-20.5,5.8-30.9,8.1c-8.5,1.8-16.8,4.3-25.2,6.2c-3.2,0.7-5.8,2.6-8.5,4.3c-3.5,2.2-7.2,4-10.8,6.1
		C233.5,521,229.9,522.1,226,522.1z"/>
	<path d="M186.1,523.4c1.3-1.4,3-1.5,4.5-1.9c5-1.4,10.2-2.4,14.7-5c6.9-3.9,14.4-6.7,20.9-11.2c5.2-3.6,10.9-6.1,16.4-9
		c4.6-2.4,9.2-4.9,14-8.1c-0.2,1.5-0.9,1.8-1.5,2.2c-1.2,0.8-2.3,1.7-3.6,2.3c-11.5,5.8-22.5,12.5-33.9,18.5
		c-2.9,1.5-5.9,2.9-8.6,4.9C204.3,519.4,191.5,523.4,186.1,523.4z"/>
	<path d="M641.1,424.3c1.5-0.1,2.4-0.3,3.4-0.2c10.4,0.7,20.5-1,30.6-3.1c14.1-2.8,28.3-5.5,42.4-8.2c0.5-0.1,1.1-0.6,1.9,0
		c-3.1,1.8-6.5,2.4-9.7,2.8c-13.5,1.8-26.7,5.2-40,7.7c-8.6,1.6-17,2.4-25.7,1.8C643.1,424.9,642.2,425.1,641.1,424.3z"/>
	<path d="M382.8,411.8c-1.8,0.4-2.8-1-4-1.8c-5.5-3.7-7.3-4.1-12-0.1c-0.6,0.5-1.4,0.8-2.6,1.4c0.6-2.3,2.4-3.1,3.4-4.6
		c-1.3-1.8-2-4-1.4-6.2c1.1-3.9,0.4-7.7-0.5-11.4c-0.5-2.1,0.3-3.7,1.6-5.1c0.9-0.9,1.9-1.3,3.2-0.6c-0.3,2-2.6,1.2-3.3,2.9
		c0.5,1-0.2,2.8,1.8,3.3c-0.3,4.9-1.4,9.7-1.5,14.4c1.3,1.2,2.6,1.3,3.9,1.4C376.3,405.7,379.9,408.1,382.8,411.8L382.8,411.8z"/>
	<path d="M442.8,422.1c19,2.9,37.8,7.8,57.7,7.7C492.5,432.4,455,427.2,442.8,422.1z"/>
	<path d="M973.4,423.9c-20.5-3.8-41.3-5.2-61.6-9.9C932.4,416.9,953.1,419.3,973.4,423.9z"/>
	<path d="M453.4,416.6c7-0.3,57.5,7.9,61.1,9.9C494.3,422.5,473.6,420.9,453.4,416.6z"/>
	<path d="M962.6,379.3c-2.8-1.8-5.9-1.3-9.1-1.2c4.1,2.7,8.7,4.7,11.7,8.8c-7.4-5.3-15.8-8.6-24.5-11.2c2.2-0.8,4.1-0.1,6,0.4
		c3.5,0.9,7,1.2,10.6,1c5.9-0.3,11.5,1.1,17.1,2.7c1.1,0.3,2.3,0.7,2.9,1.8l0.1-0.1c-3.8-0.1-7.3-1.9-11-2.6
		C965.2,378.8,963.8,378,962.6,379.3L962.6,379.3z"/>
	<path d="M881.9,443.2c-0.9-2.3-0.4-4.4,0.3-6.3c0.8-2,0.6-3.8,0.2-5.8c-0.9-4.8-1.7-9.6,0.5-14.2c0.5-1.1,0.6-2.6,2.5-2.7
		c1.3,1.4,0.3,2.7-0.4,3.7c-1.2,1.6-1.2,3.2-1.1,5c0.4,6.2,0.1,12.4-0.8,18.6C883,442,882.9,442.6,881.9,443.2z"/>
	<path d="M366.4,421.8c3.9,1.1,8,2.1,11.8,3.5c3.5,1.3,6.9,2.5,10.6,2.1c0.4,1.3-0.4,1.4-1.1,1.5c-3.5,0.5-6.9,0.7-10.2-1.2
		c-1.9-1.1-4.3-1-6.4-1.8C368.9,425.2,366.5,424.7,366.4,421.8L366.4,421.8z"/>
	<path d="M419.9,338.6c-0.1-0.3-0.3-0.8-0.1-1c5.4-6.1,11.7-10.8,20-12.4c1.4,1.4,2.9,2.5,3.4,4.5c-1.3,0.4-1.8-0.7-2.5-1.1
		c-1-0.7-2.1-1.1-3.3-0.7c-4.7,1.8-9.7,3.2-12.9,7.5C423.2,337,421.8,338.2,419.9,338.6L419.9,338.6z"/>
	<path d="M855,575.9c3.7,0.5,6.8,1.9,8.6,5.6c-8.1-2.1-16.4-1.6-24.5-3.2c6.6-0.4,13.1-0.6,20,1.3
		C857.9,577.5,855.7,577.5,855,575.9L855,575.9z"/>
	<path d="M834.9,385.4c5.5,2.9,11.6,4.1,17.9,5.2C848.9,394.8,838.8,391.7,834.9,385.4z"/>
	<path d="M380,580.5c8.4-0.5,16.8-0.6,24.6,3.3C396.6,581.5,388.2,582.2,380,580.5z"/>
	<path d="M875.1,542.4c-0.1-0.9-0.2-1.9-0.1-2.8c0.2-2,1.6-3.2,3.5-3.5c1.8-0.3,3.3,0.3,4.1,2c0.5,0.9,0.8,1.9,1.3,2.8
		C879.9,545,878.7,545.2,875.1,542.4L875.1,542.4z"/>
	<path d="M427.5,580.6c-2.7-0.7-5.6-0.7-5.9-4.2c-0.2-2,0.6-3.5,2.4-4.3s3.5-0.2,4.8,1.3C431.1,576.2,428.8,578.2,427.5,580.6z"/>
	<path d="M962.6,379.4c5.8,2.9,11,6.9,16.6,10.2c3.7,2.2,7,4.8,10.4,7.4c1,0.7,2.2,1.3,2.6,2.6c-0.2,0.1-0.3,0.2-0.3,0.2
		c-9-6.9-19-12.4-28.2-19.1C963.2,380.4,962.7,380,962.6,379.4L962.6,379.4z"/>
	<path d="M875.1,542.3c0.1,0.6,0.3,1.2,0.3,1.7c0.1,2.2-0.9,3.6-3,4.2c-1.9,0.6-3.5,0-4.6-1.8s-0.8-3.4,0.6-4.8
		c1.6-1.6,3.5-1.8,5.5-0.5C874.4,541.5,874.7,542,875.1,542.3L875.1,542.3z"/>
	<path d="M377.9,578.4c0.7,2.5-2.1,13.2-3.6,14.8C373,589.9,374.9,581.4,377.9,578.4z"/>
	<path d="M413.3,570.6c0.6-0.5,1.2-1.1,1.8-1.6c1.7-1.1,3.3-1,4.9,0.3s1.9,3,1.1,4.8c-0.8,1.7-2.3,2.7-4.3,2.4s-3.1-1.5-3.5-3.5
		C413.2,572.2,413.3,571.3,413.3,570.6L413.3,570.6z"/>
	<path d="M833.4,590.8c-0.1-5.1,0.2-10.1,3.6-14.4c1.4,2.7-0.7,4.9-0.9,7.4C835.8,586.2,835.8,588.9,833.4,590.8z"/>
	<path d="M860.2,548.8c0.2-2.1,1.9-3.8,3.9-3.8c2-0.1,2.9,1.1,2.6,2.9c-0.3,1.8,1.5,1.8,2.2,2.7c-1.5,1.7-2.9-0.5-4.1,0
		c-1.2,1,0.8,2.2-0.7,3.1C862,552.6,862,549.9,860.2,548.8L860.2,548.8z"/>
	<path d="M413.4,570.5c-1.8,0.9-1.8,0.9-2.4,3.2c-1.9-0.2-0.8-2.3-1.8-3c-1.4-0.7-1.2,1.7-3.1,1c0.4-2.4,1.6-4.6,2.8-6.8
		C413.8,566.3,414.3,566.9,413.4,570.5L413.4,570.5z"/>
	<path d="M452.2,436.2c-3.7,8.8-4.5,12.8,4.7,25.1C448.2,455.8,445.6,442,452.2,436.2z"/>
	<path d="M911.1,434.4c-3.6,9.2-3.4,13.4,4.8,24.5C907.7,453.9,905,440.1,911.1,434.4z"/>
	<path d="M379.1,575.7c4.7-2,14.6,0.4,17.9,4.1C391.2,577.9,385.3,576.3,379.1,575.7z"/>
	<path d="M979.1,422.1c-7.8-5.4-16.2-9.7-24.7-13.9C963.5,411.3,971.9,415.6,979.1,422.1z"/>
	<path d="M282.6,466.8c-2,4.1-8.5,9.8-17.1,15.2C266.2,480.7,280.4,468.1,282.6,466.8z"/>
	<path d="M519,423.8c-7.4-5-15.2-9.1-23.8-12.9C500.2,411.2,513.8,418.6,519,423.8z"/>
	<path d="M456.6,190.1c4-3.7,10.1-4.4,14.2-0.7C465.9,187.4,461.3,190,456.6,190.1z"/>
	<path d="M729.5,408.8c6.6-3.4,14-4.8,21-9.1C748,403.3,737.8,407.6,729.5,408.8z"/>
	<path d="M879.1,482.1c0.7,5.8-1.1,11.5-0.6,17.3C876.3,493.5,878,487.8,879.1,482.1z"/>
	<path d="M883.9,406.7c0,2.1-1.8,2.1-3.1,2.7c-2.3,1.1-5.5,0.1-7.3,3.5C873.8,409.1,878.7,406.4,883.9,406.7z"/>
	<path d="M1001.3,384.7c-4.3-1.7-8.3-3.9-11.6-7.2C994.8,377.9,997.6,382.1,1001.3,384.7z"/>
	<path d="M500.9,380.8c4.1-2.5,8.8-1.2,12.9-3.3c0.1,0.5,0.2,1,0.3,1.5C509.9,381.1,505.2,380.3,500.9,380.8z"/>
	<path d="M979.3,371.7c-2.4,1.7-9.5,1.7-13.2,0.2C970.5,370.8,974.9,371.9,979.3,371.7z"/>
	<path d="M537.5,387.4c-4.5-0.9-8.7-2.5-12.4-5.3C530,382,533.5,385.3,537.5,387.4z"/>
	<path d="M483.7,389.7c3.5,2.2,7,4.3,10.5,6.6c1.1,0.8,2.6,1.2,3.1,2.7l0.1-0.1c-5.4-2.2-10.1-5.6-15.2-8.5
		C482.9,389.6,483.3,389.8,483.7,389.7L483.7,389.7z"/>
	<path d="M879.5,477.1c-0.2-4.7,0.3-8.9,0.2-13C881.6,467.3,881.4,473.3,879.5,477.1z"/>
	<path d="M461.7,197.3c0.4-2-2.9-3.1-1.1-5.5c1.1,0.9,2.1,1.6,3.3,1.9c1.1,0.3,2.4,0,3.4,1.3C465.8,196.6,463,195.1,461.7,197.3z"/>
	<path d="M958.4,397.8c-5.3-2.2-10-5.5-14.6-8.8C949,391.3,954.1,393.9,958.4,397.8L958.4,397.8z"/>
	<path d="M882.4,463c1.5-3.3,3-6.7,4.5-10.1C888.3,455.2,886.9,458.7,882.4,463z"/>
	<path d="M875,467.7c0.2,3.6-0.8,7-1.8,10.8C872.2,475.4,872.9,471,875,467.7z"/>
	<path d="M925,394.4c2.6-1.4,8.8-1.1,13.6,0.6C934.1,394.8,929.5,394.6,925,394.4z"/>
	<path d="M910.8,357.2c2.4,1.8,3.8,4.2,5.1,7.2C912,362.6,910,359.4,910.8,357.2L910.8,357.2z"/>
	<path d="M875.7,379c2.8-0.9,5.4-1.6,8.8-0.1C881,380.5,878.3,379.7,875.7,379z"/>
	<path d="M652.1,610.2c1.2,3.7,3.4,6.8,4.6,10.4C654,617.5,652.2,614.1,652.1,610.2z"/>
	<path d="M211.2,631.3c4.8,0,9.4-1.4,14.2-1.2C220.8,631.5,216,631.8,211.2,631.3z"/>
	<path d="M427.7,396.1c2.5,1.6,3.9,4,4.9,6.7c-2.4-0.9-3.7-3-5.3-4.6C426.5,397.4,427.4,396.7,427.7,396.1L427.7,396.1z"/>
	<path d="M751.8,566.6c3.4-2.5,7.5-3,11.5-4.1C759.8,564.7,755.5,564.8,751.8,566.6z"/>
	<path d="M197.4,622.7c-2.7-3-4.4-6.6-4.8-10.7C194.1,615.6,195.8,619.1,197.4,622.7z"/>
	<path d="M671,628.8c4.5,0.3,8.9-1.2,13.3-0.9C679.9,629.5,675.4,629.4,671,628.8z"/>
	<path d="M405.2,410.1c-2.6,1.8-5.8,0.5-8.4,1.8C399.3,410,402.2,409.6,405.2,410.1z"/>
	<path d="M1004.1,577c3.6,0.5,6.6,2.4,9.5,4.5C1009.9,581.1,1007.2,578.8,1004.1,577z"/>
	<path d="M828.3,394.9c-2.8-0.7-3.7-2.6-3.4-5.6C827.6,390.3,826.8,393.3,828.3,394.9z"/>
	<path d="M303.7,564.8c-3.3,2.4-7.6,2.2-11.2,4C295.9,566.6,299.7,565.4,303.7,564.8L303.7,564.8z"/>
	<path d="M165.1,528.9c-2.5,1.4-5.1,1.3-8.3,1.1C159.7,527.7,162.5,529,165.1,528.9z"/>
	<path d="M439,339.2c2.1-1.1,4.3-2.4,7.3-1.2C443.9,340.1,441.4,339.4,439,339.2z"/>
	<path d="M887.7,370.7c-2.8,0.3-5.6,0.6-8.4,0.9c2.6-2,5.5-2,8.3-1.9C887.6,370.1,887.6,370.4,887.7,370.7z"/>
	<path d="M356.7,563.2c0.1,3.2-0.7,6.2-1.7,9.2C354.8,569.2,355.6,566.1,356.7,563.2z"/>
	<path d="M612.4,422.6c2.6-0.6,4.9,0.6,7.5,1.2c-0.8,0.9-1.5,0.6-2.2,0.5c-1.8-0.2-3.6-0.6-5.5-0.9
		C612.3,423.1,612.4,422.8,612.4,422.6z"/>
	<path d="M897.3,359c-2.7,0-5.3-0.2-7.5-1.8C892.3,357.4,895,357.2,897.3,359z"/>
	<path d="M814.2,569.8c-0.3-2.8,0.6-5.4,1.5-8C816.1,564.6,815.3,567.2,814.2,569.8z"/>
	<path d="M363.6,432.7c2.3-1.5,3.3,0.3,5.3,1.5C366.3,434.9,364.8,434.7,363.6,432.7z"/>
	<path d="M483,228.6c-0.2,2.6-1.5,3.9-2.7,5.7C480,231.3,480.3,230.8,483,228.6z"/>
	<path d="M199,625.8c2.1,1.8,3,4.1,3.1,6.7C201.1,630.3,200,628,199,625.8z"/>
	<path d="M916.1,440.9c-1.8-1.5-2.2-3.5-2.2-5.6C915.6,436.8,915.7,438.9,916.1,440.9z"/>
	<path d="M515,388.5c3.4,0.2,6.8,0.5,9.9,2.2l0.1-0.1C521.6,390.1,518.2,389.6,515,388.5L515,388.5z"/>
	<path d="M735.8,575.9c2-2.1,5-2.2,7.4-3.4C740.9,574.1,738.3,575.1,735.8,575.9L735.8,575.9z"/>
	<path d="M414.1,398.4c-2.4-0.2-4.9,0.6-7.3-1.5C409.7,397,412,397.3,414.1,398.4z"/>
	<path d="M457.2,443.3c-2.1-1.3-2.6-3.3-2.7-6.1C456.6,439.1,456.2,441.5,457.2,443.3z"/>
	<path d="M872.1,486.7c2.4,1.7,1,3.3,0.4,4.8C872.1,490,871,488.6,872.1,486.7z"/>
	<path d="M664.8,633.5c1,1.6,1.1,3.4,0.7,5.3C664.5,637.2,664.5,635.4,664.8,633.5z"/>
	<path d="M661.1,629.6c-0.9-1.9-1.8-3.9-2.7-5.8C660.4,625.2,661,627.2,661.1,629.6z"/>
	<path d="M485.1,222.1c-0.2,1.9-0.8,3.5-2.1,4.8C482.8,224.9,483,223.1,485.1,222.1z"/>
	<path d="M498.9,225.2c-0.6-2.1-0.3-3.7,0.4-5.2C500.5,221.5,500.1,223.1,498.9,225.2z"/>
	<path d="M503.8,430.6c2.1,0,4.2,0,6.2,0c0,0.1,0,0.1,0,0.2c-2.1,0-4.2,0-6.3,0C503.8,430.7,503.8,430.6,503.8,430.6z"/>
	<path d="M417.1,398c0.7,2.5-1.1,3.2-1.9,4.4C415,400.7,415.1,399.1,417.1,398z"/>
	<path d="M897.9,362.8c0.2-1.5,0.1-3.3,2.1-4.1C900.9,361.1,899,361.8,897.9,362.8z"/>
	<path d="M205.6,641.8c-0.1-2.1-0.2-4.3-0.3-6.4C205.9,637.5,207.5,639.7,205.6,641.8L205.6,641.8z"/>
	<path d="M389.5,392.9c2.4-0.3,4,0.6,5.7,1.3C393.4,394.1,391.5,394,389.5,392.9z"/>
	<path d="M872.5,351.9c1.8,0.3,3.6,0.4,5.1,1.6C875.8,353.6,874,353,872.5,351.9z"/>
	<path d="M984.1,571c-1.3-2.3-1.3-2.3,0.3-4.1C984.8,568.3,984.5,569.6,984.1,571z"/>
	<path d="M890.6,417.6c1.1,1.9,1,4,0.3,6C890.8,421.6,890.7,419.6,890.6,417.6z"/>
	<path d="M496.9,231.8c0.1-2.1,1.6-3.3,1.7-4.9C499.3,229,499.1,229.6,496.9,231.8z"/>
	<path d="M913.9,357.8c2.1,1.4,2.1,1.4,2.5,4.5C915.6,360.8,914.8,359.3,913.9,357.8z"/>
	<path d="M986.7,564.9c1.3-0.4,2.4-1.6,4.4-0.6C989.4,565.7,988,564.9,986.7,564.9z"/>
	<path d="M882.6,451c0.9,1.5-0.1,2.6-0.6,4.1C881.2,452.7,881.2,452.7,882.6,451z"/>
	<path d="M832.3,380.1c1.2,1.2,2,1.9,2,3.2C832.4,382.6,832.4,382.6,832.3,380.1z"/>
	<path d="M303.7,564.9c1.8-1.5,4.2-1.7,6.3-2.2l-0.1-0.1C308.2,564.3,306,564.7,303.7,564.9L303.7,564.9z"/>
	<path d="M855.1,363c-1.5-1.5-1.4-2.7-1.1-4.2C855.3,359.9,855.2,361.2,855.1,363z"/>
	<path d="M371.2,400.7c1,1,1.1,2.1,1.1,4C370.8,403.1,371,401.9,371.2,400.7z"/>
	<path d="M892.6,457.7c0.3,2.1-0.4,3.3-0.9,4.5C890.9,460.6,891.6,459.5,892.6,457.7z"/>
	<path d="M833.2,413.3c0.8,1.3,0.8,2.3,0,3.5C832.2,415.2,832.2,415.2,833.2,413.3z"/>
	<path d="M873.2,480.6c1.6,0.9,0.9,1.9,0.1,3C872.2,482.6,871.9,481.7,873.2,480.6z"/>
	<path d="M429.9,338.4c1-0.9,2.2-1.6,3.5-0.5C432.5,339.6,431.1,338.6,429.9,338.4z"/>
	<path d="M983.2,383.6c-2.1-0.2-3.9-1.1-5.7-2.1l-0.1,0.1C979.6,381.5,981.5,382.4,983.2,383.6L983.2,383.6z"/>
	<path d="M978.9,377.7c-1.5,0-3,0-4.5,0C976,376.8,977.6,377.2,978.9,377.7z"/>
	<path d="M1027.7,581c-1.1,1.1-2.3,1-3.9,0.7C1025.2,580.5,1026.5,580.9,1027.7,581z"/>
	<path d="M471.6,253.5c1-0.6,1.9-0.7,2.7,0.3c-0.2,1-0.8,0.9-1.5,0.8C472.2,254.5,471.7,254.2,471.6,253.5z"/>
	<path d="M378.4,461.5c-1.1-1.1-1.8-1.9-0.7-3.5C378.7,459,379,459.9,378.4,461.5z"/>
	<path d="M433,399.5c-1.1-0.8-1.6-1.9-2.3-3.1C432.6,397.3,432.6,397.3,433,399.5z"/>
	<path d="M899.1,371.9c0.8,1.1,0.3,2.2,1,2.8c-0.2,0.3-0.3,0.3-0.3,0.4C898.7,374.3,898.1,373.5,899.1,371.9z"/>
	<path d="M510.5,384.6c1.2-0.7,2.6-0.7,4.3-0.4C513.2,385,511.8,384.4,510.5,384.6z"/>
	<path d="M870,380.7c0.3-1.5,1.3-1.9,3.1-1.9C872.3,380.5,871.3,380.8,870,380.7L870,380.7z"/>
	<path d="M415.6,408.7c-1-0.9-1-1.6,0-2.4C416.4,407.2,416.3,407.9,415.6,408.7z"/>
	<path d="M373.2,349.1c0.3,1.1,0.5,1.8,0.7,2.6c-1,0.3-1-0.5-1.2-0.9C372.6,350.4,372.4,349.9,373.2,349.1z"/>
	<path d="M377.9,453c0.5,0.6,0.6,1.2-0.1,1.7C376.8,454.1,376.8,453.5,377.9,453z"/>
	<path d="M858.3,308c0.9,0.7,1,1.6,0.9,2.5c-0.1,0.1-0.2,0.3-0.3,0.2C858,310,857.7,309.1,858.3,308z"/>
	<path d="M891.9,451.2c0,1,0,2,0,3h-0.1C891.8,453.2,891.8,452.2,891.9,451.2C891.8,451.2,891.8,451.2,891.9,451.2z"/>
	<path d="M870.7,507.3c0.3-1.2,0-2.6,1.3-4.2C871.6,505,871.8,506.3,870.7,507.3L870.7,507.3z"/>
	<path d="M770.4,560.1c-0.9,1-2,1.3-3.6,1.4C768.1,560.5,769.2,560.2,770.4,560.1L770.4,560.1z"/>
	<path d="M445.3,332.4c1.1,0,1.3,0.7,1.5,1.5c-0.8,0.6-1.2,0.1-1.6-0.3S444.9,332.7,445.3,332.4z"/>
	<path d="M319,559.6c-0.7,0.3-1.4,0.6-2.2,1C317.2,559.4,318,559.4,319,559.6z"/>
	<path d="M416.5,411.4c0.9,0.8,0.8,1.7,0.8,2.8C416.1,413.4,415.9,412.6,416.5,411.4z"/>
	<path d="M169.4,527.8c0.5-0.9,1.1-1.1,2-0.8C171,527.9,170.3,528,169.4,527.8z"/>
	<path d="M478,255.5c-0.7,0.8-1.1,1.7-2.3,1.9c-0.5-0.7,0.1-1.1,0.5-1.4C476.6,255.6,477,255.2,478,255.5z"/>
	<path d="M310.1,562.7c0.8-0.6,1.7-1.1,3.1-1.1C312.1,562.6,311.1,562.8,310.1,562.7L310.1,562.7z"/>
	<path d="M898,366.8c1,0.8,0.8,1.5,0.4,2.2C897.7,368.3,897.7,368.3,898,366.8z"/>
	<path d="M465.3,389.3c-1.7-0.4-2-1.3-2.6-2.3C464.1,387,464.7,387.7,465.3,389.3z"/>
	<path d="M983.2,383.7c1.1-0.1,2,0.2,3.2,1.1C984.9,384.7,984,384.4,983.2,383.7L983.2,383.7z"/>
	<path d="M989.7,386.2c0.9-0.2,1.4,0.2,1.9,0.6C990.7,387.5,990.3,386.3,989.7,386.2z"/>
	<path d="M884.6,403.7c1.5-0.3,2,0.5,2.6,0.8c-0.5,1.1-1,0.5-1.4,0.3C885.4,404.6,885.1,404.2,884.6,403.7z"/>
	<path d="M365.8,435.5c1.4,0,1.4,0.7,1.6,1.5C366.2,437.2,365.9,436.6,365.8,435.5z"/>
	<path d="M770.4,560.1c0.8-0.7,1.6-1.2,2.8-1.1C772.4,560,771.4,560.1,770.4,560.1L770.4,560.1z"/>
	<path d="M776.9,557.4c0.5-0.2,1-0.5,1.6-0.7C778.4,557.8,777.6,557.6,776.9,557.4z"/>
	<path d="M281.7,576c-0.6,0.3-1.2,0.5-1.9,0.8C280.1,575.9,280.7,575.8,281.7,576z"/>
	<path d="M735.7,575.9c-0.7,0.3-1.4,0.7-2.7,1.3C734,575.7,734.9,575.8,735.7,575.9L735.7,575.9z"/>
	<path d="M284.2,574.5c0.9-0.4,1.3-0.6,2-1C285.7,574.4,285.3,574.7,284.2,574.5z"/>
	<path fill="#FFFFFF" d="M941.3,159.4c0.6,0.2,1.3,0.4,1.7,1.1c-0.3,0.5-0.9,0.2-1.3,0.2C941.6,160.3,941.4,159.8,941.3,159.4z"/>
	<path d="M624.6,423.9c0.9-0.4,1.4-0.4,1.9,0C626,424.4,625.5,424.6,624.6,423.9z"/>
	<path d="M447.7,334.5c1.1,0.1,1.4,0.6,1,1.6C447.9,335.9,447.4,335.5,447.7,334.5z"/>
	<path d="M852,418c1,0.6,1.1,1.2,0.3,1.9C851.4,419.4,851.3,418.9,852,418z"/>
	<path d="M851.9,414.6c1.3,1.1,0.9,1.5,0.2,1.9C851.2,416.1,851.8,415.6,851.9,414.6z"/>
	<path d="M860.9,320.2c0,0.5-0.1,1.1-0.2,1.6c-0.6,0.1-1.1-0.2-1-0.6C859.7,320.5,860.4,320.5,860.9,320.2L860.9,320.2z"/>
	<path d="M834.7,404.3c0.6,0.6,0.6,1,0.4,1.4C833.9,405.7,834,405.2,834.7,404.3z"/>
	<path d="M366.4,421.7c-0.8,0.1-1.6,0.3-1.7-1.1C365.9,420.1,366.2,420.8,366.4,421.7L366.4,421.7z"/>
	<path d="M377.9,370.5c-1.8-0.4-1.6-1.1-1.6-1.7C377.6,368.7,377.2,369.5,377.9,370.5z"/>
	<path d="M528.5,391.3c-1.2-0.2-2.4-0.1-3.6-0.7l-0.1,0.1C526.1,390.5,527.4,390.3,528.5,391.3L528.5,391.3z"/>
	<path d="M478.7,240.7c-0.6-1,0.1-1.2,0.4-1.6C480,239.8,479.9,240.3,478.7,240.7z"/>
	<path d="M861.8,329.7c-0.5-0.6-1.6-1.1-0.7-2.2C862.2,328,862.1,328.8,861.8,329.7L861.8,329.7z"/>
	<path d="M848.6,406.1c0.1-0.5,0.3-0.8,0.8-0.6c0.1,0,0.2,0.2,0.1,0.3C849.4,406.4,849,406.3,848.6,406.1z"/>
	<path d="M958.3,397.9c0.5,0,0.9,0.2,1.2,0.6C958.9,398.7,958.6,398.3,958.3,397.9L958.3,397.9z"/>
	<path d="M375,362.2c0.6-0.2,0.9,0,0.9,0.6c0,0.1-0.3,0.4-0.4,0.4C374.9,363.1,374.9,362.7,375,362.2z"/>
	<path d="M479.8,237.9c-0.3-1.1-0.4-1.8,0.7-1.7C480.9,237,480.4,237.3,479.8,237.9z"/>
	<path d="M870,380.6c0,0.7,0.7,1.6-0.9,1.9C868.8,381.6,869.7,381.2,870,380.6L870,380.6z"/>
	<path d="M730.6,578.7c0.3-0.2,0.5-0.4,0.9-0.7C731.6,579,731,578.7,730.6,578.7z"/>
	<path d="M497.3,399.1c0.7-0.1,1.1,0.1,1.5,0.7C498,400.1,497.6,399.7,497.3,399.1L497.3,399.1z"/>
	<path d="M520.1,376.7c0.1,0.7-0.1,1.1-0.9,1.1C518.7,376.8,519,376.4,520.1,376.7z"/>
	<path d="M832.9,377.9c-0.4-0.1-0.5-0.4-0.4-0.8c0.1-0.2,0.3-0.3,0.5-0.3c0.4,0.1,0.6,0.4,0.5,0.8
		C833.5,377.8,833.1,377.8,832.9,377.9z"/>
	<path d="M870.7,507.3c0.1,0.7,0.3,1.3-0.2,2C870,508.6,870.6,508,870.7,507.3L870.7,507.3z"/>
	<path d="M985.6,370.9c0.2,1,0,1.4-0.8,1.4C984,371.4,984.5,371.1,985.6,370.9z"/>
	<path d="M528.5,391.3c0.5,0,1.1,0,1.9,0C529.5,391.9,529,391.5,528.5,391.3L528.5,391.3z"/>
	<path d="M867.9,515.1c0.3,0.4,0.1,0.8-0.2,1.1C867.2,515.7,867.3,515.4,867.9,515.1z"/>
	<path d="M378.7,462.9c0.5,0.4,0.6,0.9,0.4,1C378.4,464,378.6,463.5,378.7,462.9z"/>
	<path d="M471.9,261.3c-0.4-0.9-0.1-1.3,0.8-1.4C473.1,260.7,472.6,261,471.9,261.3z"/>
	<path fill="#FFFFFF" d="M883.7,327.3c1.2,0.2,2.4,0.5,3.7,0.7c0.1-0.2,0.3-0.4,0.4-0.7c-2.7-1.6-6.9-1.9-6.1-6.7
		c1.7-0.2,3.5,0,5.5,0.4c0.3-2.5-3.6-2.3-2.3-5.1c-1.8,0.5-0.6,2.2-1.8,2.8c-2.5-0.4-3.4-1.9-2.7-4.5c1.5-1.4,3.9-1,5.3-2.8
		c0.5-1.2-0.4-2.1-0.7-3.2c-2,0.6-0.4,2.2-1.1,3.1c-1.3,0.2-2.7,0.3-4.3,0.5c-1.6-2.5,0.3-3.7,2-4.7s4-0.6,6-2.3
		c-2.8-0.6-3.5-2.4-2.9-5.1c1.6-0.9,3.3-1.9,5.7-1.5c0.5,0.7,1.2,1.5,1.8,2.3c-0.8,1.6-2.9,1.9-3.3,3.7c4.8-0.8,5.6-2.9,2.6-7.4
		c-2.1-0.8-5.5,0.6-6.2-3.4c2.1,0,4.3,0.5,6.1-0.8c0.2-0.2,0.7,0,1,0.1c4.1,1.7,8.8,2.8,11.1,7.2c3.3,6.2,8.3,10.1,14.9,12.9
		c3.7,1.5,7,1.8,10.6,1.9c4.6,0.1,9.2,0.2,13.7,1.4c4.2,1.1,8.2-0.7,12.1-1.8c5.5-1.5,10.9-3.2,16.4-4.8c5-1.5,10.2-1.7,16.1-2.2
		c-2.6-1.9-5.2-1.5-7.9-1.7c0.5-9.2,2.8-18,2.1-27.3c-1.4-1.7-2.7-3.7-3.8-5.9c-0.2,2.2,0.2,4.3,1.3,6.3c-5.5,2.2-11.1,3.7-15.9,8.1
		c-0.7-5.6,0.1-10.7,1.3-15.6c1.6-6.5,4.1-12.4,9.5-17.2c6.3-5.6,12.1-11.6,18.2-17.4c2.9-2.8,6.5-4.7,10.2-6.8
		c3.4,3.3,7.2,6.2,9.3,10.7c0.9,1.8,2.1,3.4,3.8,4.7c2.7,2,4.5,4.8,5.9,7.9c0.7,1.6,1.4,3.1,0.3,4.9c-0.4,0.6-0.5,1.7-0.2,2.4
		c2.9,7.5,0.8,15,0.3,22.5c-0.3,4.7-1.8,9.3-3.3,13.8c-0.6,1.7-1,3.1-2.8,4.4c-2.1,1.4-4.4,2.8-5.8,5.1c-2.9,1.5-5,3.6-4.8,6.6
		c-0.2-3,2-5,4.7-6.6c2.8,0.5,4.6-1.4,7-3c-1.1,5.6-2.8,10.6-5.3,15.4c-3.3,6.3-7.2,12.2-9.3,19.1c-0.9,3.1-3,4.9-6.5,4.9
		c-3.2,0-6.2,1.2-9.4,1.6c-8.8,1.1-17.2-0.4-25.7-2.1c-7.5-1.5-14.5-4.3-21.5-7.1c-7.9-3.1-16.1-5.1-24.9-4.2c-4.1,0.4-8,0.7-12,2
		c-3.1,1-6.6,0.6-9.8-0.1c-2.2-0.5-4.3-1-6.4-1.1C884.2,330,884.5,328.4,883.7,327.3L883.7,327.3z"/>
	<path fill="#FFFFFF" d="M902.3,538.4c-1.2-6.6-6.1-8.9-11.1-11.1c-1.1-3.5-3.8-5.9-5.3-9.2c-1.2-2.6-4.7-3.4-7.7-4.4
		c-0.1-3,0.8-5.8,1.6-8.6c1.9-7.2,5.6-13.8,8-20.9c2-5.6,3.3-11.3,4.5-17.2c0.3-1.7,0.8-3.2,2.1-4.4c4.8-4.6,6-10.5,6.6-16.7
		c0.1-1.3,0.4-2.5,0.8-3.9c1.1,8.1,5.2,15.1,7.6,22.7c0.5,1.5,1,2.9-0.8,4.5c2.9,0.4,5.1-0.6,6.4-2.2c3.5-4.3,7.6-7.8,11.4-11.7
		c0.8-0.9,1.6-1.7,1.8-2.8c5.6-2.2,11.2-0.3,16.6-0.3c5.1,0,10.1,0.7,16,1.2c-2.9,3.5-4.5,7.1-7.1,10.2
		c-7.6,9.2-15.3,18.4-22.7,27.8c-5.6,7.1-10.9,14.6-16.3,21.9c-2.2,3-5,5.3-7.9,7.6c-2,1.6-3.9,3.4-4,6.4
		c7.3-6.9,14.6-13.3,20.1-21.7c5.3-8.1,11.7-15.4,18-22.9c5.6-6.7,10.9-13.8,16.4-20.5c2.3-2.7,4.2-5.9,6.4-8.8
		c2.6-0.1,5.1-0.2,8.1-0.4c-4.7,7-9.6,13.1-15.2,18.7c-4.1,4.1-7.6,8.8-11.8,12.8c-0.3,0.3-0.7,0.7-0.8,1.1
		c-3.5,9.1-11.6,14.5-17.8,21.4c-2.8,3.2-5.7,6.3-7.9,10C914.1,524.8,908.5,531.3,902.3,538.4z"/>
	<path fill="#FFFFFF" d="M949.7,260.5c0.6-2.3,2.3-4,3.4-6.3c-1.8,0.6-2.4,2.4-3.8,3.1c-2.1-6.9,0.1-9.7,4.6-13.9
		c1.3-1.2,0.5-3,2.2-3.6c1.6-0.6,3.1-1.6,4.6-2.4c0.3,1.3-1.3,2.5-0.2,4.1c1.7-1.3,2.3-2.8,2.2-4.8c-0.2-5-2.5-9.6-3.1-14.6
		c-0.2-1.8-2-2.6-3.7-2.7c-2-0.1-4-0.1-6-0.2c-3.1-0.2-4.8-2-4.5-4.7c0.5-4.8,0.5-4.8-1.6-7.9c1.5-2.8,4.2,1.2,6.1-1.2
		c-1.9-2.1-4.8-1.3-6.9-2.4c-0.8-1.7,1.5-3.3-0.3-5.4c1.9,0.3,3.6,0.7,4-1.6c-2.3,0.8-4.7-1.1-6.9,0.6c-1.3-1.6-0.2-2.7,0.3-3.8
		c1.2-2.4,2.4-4.9,3.7-7.3c1.1-2,1.4-4-0.2-5.9c2-5.2,4-10.2,6.1-15.5c4.7,0.9,9.4-1.2,13.8,1.9c-1.9,0.8-0.7,1.9-0.1,2.7
		c1.2,1.7,2.7,3.3,4.1,4.9c4.7,5,6.6,11.2,7.2,17.9c0,0.6-0.1,1.2,0.8,2.3c1.7-4.6,0.6-10.2,5.8-12.5c0.8,1.7,0.8,1.7,0.2,3.6
		c-0.2,0.8-0.4,1.4,0.7,1.5c0.4,0.1,0.6,0.3,0.7,0.7c0.1-0.4-0.2-0.6-0.3-0.9c0-0.9,0.5-1.6,1.2-2.4c1,0.8,2,1.8,3.7,1.8
		c-1.1,1.7-2.8,3.2-0.6,4.6c-2.6,4.9-4.6,5.8-8.7,3.7c2.4,8.2-4.2,11.5-8.1,16.3c4.3-2.5,9-4.6,9.7-10.5c0.3-3.2,3-3.2,5.2-4
		c1.6,0.9,1.9,2.6,2.4,4c-0.2,1.3-1.8,1.9-1.7,3.3c0.6,1.6,1.9,0.5,2.7,0.8c1.9,2.9-1.5,7.8,4.1,9.2c-0.6,4.9,2.7,8.2,5.3,12.1
		c-8.1,2.5-13.8,8.2-19.7,13.7c-2.3,2.1-4.6,3.7-7.9,2.7c-1-0.3-2.1,0-3.2,0.6c1.5,1.7,3.5,0.6,5.4,1.5c-3.4,3.3-6.7,6.4-10,9.6
		c-1.5,1.5-3.3,2.8-4.7,4.3C955.5,260.1,952.8,260.9,949.7,260.5L949.7,260.5z"/>
	<path fill="#FFFFFF" d="M684.9,442.7c-1.8-3-2.1-6.4-3.4-9.5c0.7-0.8,1.7-1,2.5-1c7.6,0.3,14.7-2.2,22-3.8c8-1.7,16.1-0.4,24.1-0.4
		c10.4,0,20.8,1.3,31.2,1.4c4.8,0,9.4-0.2,14.1-0.9c7.1-0.9,14.2-0.3,21.3,0.2c7.2,0.6,14.5,0,21.6,1.1c8.6,1.3,17.2,0.7,25.8,1.2
		c4,0.2,8.2-0.7,12.3-0.5c1.2,0,2.4-0.2,3.6,0.4c0,4.8,0,9.6,0,14.4c-0.5,0.3-0.8,0.6-1.1,0.6c-8.1-0.1-16.3,0.4-24.4-0.1
		c-8.2-0.4-16.5-1.3-24.7-1.3c-2.5,0-5-0.3-7.4-0.5c-7.3-0.8-14.7,0.3-22,0.2c-13.8-0.1-27.6,0.8-41.5-0.4
		c-13.9-1.2-27.9-2.1-41.9-0.9C692.9,443.3,689,442.6,684.9,442.7z"/>
	<path fill="#FFFFFF" d="M949.6,260.4c3.5,2.9,5,2.9,8.6-0.2c4.9-4.2,9.4-8.7,13.9-13.3c7.8-8.2,16.2-15.5,26.7-20.4
		c0.1,0.1,0.4,0.3,0.7,0.6s0.6,0.7,0.9,1.1c-0.1,0.3-0.1,0.6-0.3,0.7c-5.6,3-10.3,7.2-14.8,11.5c-4.4,4.2-8.9,8.2-13.3,12.3
		c-6.6,6.2-9.2,14.1-10.8,22.6c-0.8,4.1-0.7,8.2,0.1,12c-0.6,1.8-2.8,1.4-3.1,3.1c1,1,2.2,0.3,3.6,0.4c2.6,6.4,7.1,10.4,14.8,9.4
		c0.3,1.9,0.5,3.5,0.7,5.1c-0.8,1.2-2.2,1.4-3.4,1.6c-8.9,1.7-17.5,4.6-26.4,6.6c-0.6,0.1-1.2,0.2-1.8,0.1
		c-5.2-0.4-10.3-0.8-15.8-1.2c2.3-9.1,0.5-17.4-1.5-25.9c-1.6-6.9,0-13.6,2.8-20.1c0.2-0.6,0.6-1.1,1.1-1.3c6.2-2.2,8.7-8,12.3-12.8
		c0.8-1.1,1.5-2.3,2.3-3.6c1,1.7-0.2,2.8-0.3,4c-0.3,1.9-0.5,3.8,0.2,5.6C947.3,259.9,948.1,260.9,949.6,260.4L949.6,260.4z"/>
	<path fill="#FFFFFF" d="M611.2,410.5c1.9-2.6,4.6-3.4,7-4.6c6.8-3.4,13.6-6.6,20.5-9.9c5.6-2.7,12-3.7,18.1-5.2
		c4.4-1.1,8.7-2.3,13.3-3.4c1.9,3.5,1.3,7.8,2.5,11.4c5.2,2.6,13.7,0.2,16.2-4.5c-0.5-2.9-1.7-5.6-2.8-8.5c7-1.1,13.9-1.2,20.7-0.9
		c5.5,0.2,10.9-0.2,16.3-1c7.5-1.1,14.7,0.7,22,2.6c-4.5,3.4-9,6.6-14.2,8.6c-16.6,6.4-33.8,10.9-51.5,13.4
		c-6.5,0.9-12.6,3.3-19.1,3.9c-16,1.6-31.9,1.8-47.8-1.3C612,411,611.8,410.8,611.2,410.5z"/>
	<path fill="#FFFFFF" d="M980.5,354.5c6.1-0.1,12.2-1.2,18.7-0.6c-0.7,2,1.1,4.3-1.2,5.8c3.5,2,0.6,5.2,1.8,7.6
		c-2.4,0.2-4.4,0.4-6.4,0.6c-3.7,0.2-7.3,0.3-10.5-2.1c-1.6-1.2-3.6-1.6-6.3-1.9c2,2.1,4.6,2,6.1,4c-8.7-2.3-17.4,0.2-26.2-0.9
		c-4.5-0.6-9.2-0.6-13.7,0.6c-2.3,0.6-4.7-0.1-7-0.1c-1.2,0-2.7-0.3-2.9-2.4c2.4-1.1,2.2-3.3,2-5.6c-0.2-2.6,0.3-5.6-0.8-7.7
		c-2.4-4.6-1.4-9.4-2-14.1c-0.1-0.6-0.3-1.2-1.2-1.4c-1.9,1.2-0.2,3.5-1.3,5.3c-3.5,0.8-7.3,1.7-11.2,2.6c-0.6-2-1-3.9-3.2-5.5
		c-3.3-0.2-6.9-2.4-11.1-3.4c1.2-2.3,3-2.9,5-2.6c1.3,0.2,2.6,0.3,3.9,0c7.9-1.4,15.3,0.7,22.8,2.7c0.5,0.1,1,0.5,1.5,0.8
		c0.8,2.1-0.3,4.4,1.5,6.4c0.8-2,0.3-3.8,0.1-5.6c10.1,3.2,19.7,7,30.1,8.5c10.5,1.6,20.7-1,30.9-1.9c0.6,1.2,0.3,2.2,0.2,3.3
		c-4.6,1.9-9.8,2.1-14.6,3.6c4.9,0.2,9.6-1.1,14.4-2.2c0.7,1.5,0.1,2.7-0.5,4.1C993,352.2,986.7,352.4,980.5,354.5L980.5,354.5
		L980.5,354.5z"/>
	<path fill="#FFFFFF" d="M847.9,495.1c-6.9,6.4-15.8,7.1-24.4,9.1c-0.8-2.8-0.3-5.3-0.1-7.9c0.1-1.3,0.3-2.6,0.7-3.8
		c3.1-12.3,3-24.6,1.1-37c-0.4-2.6-0.7-5.1-1.1-7.9c2.6-0.9,5.1,0.6,7.7,0.1c2,2.5,2.7,5.8,5.4,8.4c-0.2-3-0.4-5.6-0.6-8.4
		c6.2,0.5,12.1-0.2,18.4,0c-2.2,8-4.4,15.8-5.7,23.7C847.9,479.2,848,487.1,847.9,495.1z"/>
	<path fill="#FFFFFF" d="M656.2,326.4c4.2-0.4,8.1-1.5,12.2-2.4c0.6,3.3,1,6.6,1.8,9.8c1.3,5.8,3.4,11.3,5.3,17
		c3.1,9.3,6.3,18.6,6.8,28.6c0.3,5.6,3,10.6,4.6,16.1c-3.8,1.6-7.7,2.9-12,3c-1.1-4-1.5-7.9-2.3-11.7c-2-10.3-5.9-19.9-8.6-30
		c-2.4-8.7-6.6-16.8-7.7-25.8C656.2,329.5,655.8,328.1,656.2,326.4z"/>
	<path fill="#FFFFFF" d="M966.6,440.6c2.4-0.9,4.8-1.8,7.3-2.7c0.6-0.2,1.2-0.2,1.7,0.1c5,2.2,9.5,0.5,13.9-1.6
		c3.9-1.8,8.1-1.6,12.2-2.3c3.8-0.7,7.7-1,11.6-2.4c-1.2-0.7-2-0.2-2.9-0.1c-4.2,0.8-8.4,1.5-12.6,1.8c-3.4,0.3-6.7,0.8-10,2.2
		c-3.2,1.4-6.8,2-10.9,1.1c6-3.7,12.5-5.9,17.4-11.2c3.5,0.3,7.3-0.5,11.2-1.1c-2.5-1.8-5.4-0.7-8.2-0.6c0.7-1.5,2-1.8,2.8-2.5
		c10.6,0.9,20.9,2.1,31.6,2.6c-0.7,5-0.1,9.2-1.5,13.1c-1.4,1.1-2.8,0.6-4.2,0.5c-4.5-0.4-9.2-0.9-13.4,0.7c-6.3,2.3-12.7,2-19,2.2
		C984.6,440.8,975.6,440.6,966.6,440.6z"/>
	<path fill="#FFFFFF" d="M857.1,342.6c-1.5-3.1-0.8-6.3-1.7-9.3c15.3,3.4,30.4,6.9,45.7,10.3c0.7,4.1-0.3,8.4,1.6,13.1
		c-8-2.1-15.9-3.1-23.1-6.1C872.2,347.6,864.8,344.8,857.1,342.6z"/>
	<path fill="#FFFFFF" d="M1007.6,451.9c-8.4,0.6-16.7-0.7-25.1-0.9c-3.6-0.1-7.1-0.2-10.6,0.1c-8.2,0.7-16.3-0.3-24.5-0.9
		c-2.5-0.2-4.9-0.3-7.4-0.5c-0.2-1.1,0.7-1,1.3-1.2c5.4-1.2,10.7-2.7,16-4.5c3.8-1.2,7.8-1.9,11.9-2c7.4-0.1,14.9-0.5,22.3,0.4
		c5.4,0.6,10.8-0.5,16.4-0.7C1008.7,445.2,1006.8,448.6,1007.6,451.9L1007.6,451.9z"/>
	<path fill="#FFFFFF" d="M855.7,502.7c-4.5-2.9-5.8-6.8-5.8-11.7c0-14.6,3.1-28.7,6.8-42.7c1-0.1,1.9-0.1,3-0.2
		c-1.2,7.3-0.1,14.4,0,21.6c0.2,10.4,0.2,21.1-3.4,31.3C856.2,501.5,856,502,855.7,502.7z"/>
	<path fill="#FFFFFF" d="M949.7,242.7c-5.3,7.1-9.7,14.7-16.4,20.8c-0.1-4.4,2.4-7.3,4.4-10.7c-2-0.6-2.5,0.8-3.2,1.8
		c-2.8,4.2-4,9.1-6.3,13.5c-0.4,0.8-0.2,2-1.3,2.3C925.4,255.4,935,243.7,949.7,242.7z"/>
	<path fill="#FFFFFF" d="M902.3,335.4c-3.5,2.4-7,2.9-10.5-0.1c-1,2.6,0.5,3.7,1.9,3.9c3,0.3,6.1,0.9,9.1,0c1.2-0.4,2-1.1,2.7-2.2
		c2.6,0.8,4.9,2.5,8.2,2.8c-1.8,1.5-3.5,0.8-4.9,1.3c-4.9,1.8-9.8,0.7-14.6-0.5c-4.7-1.1-9.3-2.6-14-3.7c-4.7-1.2-9.4-2.1-14.2-3
		c5.4-0.6,10.5-3.6,16.1-1.4c3.4,1.3,7.1,1.5,10.6,2.3c2.4,0.6,5.5-0.1,8.3-0.1C901.3,334.8,901.8,334.5,902.3,335.4z"/>
	<path fill="#FFFFFF" d="M902.6,344.3c4.5-1.6,8.8-1.5,13.2-2.5c0.9,4.1,1.9,8.2,2.8,12.5c-5.1,0.2-9.8,1.7-14.7,1.7
		C902.3,352,903.1,348.2,902.6,344.3z"/>
	<path fill="#FFFFFF" d="M925.2,281.1c0.9,10.9,5.9,20.5,3.4,31.2c-1.4,0.5-3,0.3-4.8,0.1c-0.9-3.2-1.6-6.3-1.1-9.7
		c0.5-3.6,0.1-7.3,0.2-11C923,288.3,923.5,285,925.2,281.1z"/>
	<path fill="#FFFFFF" d="M963.6,289.9c5.7-0.6,10.7-1,15.4-3.7c-0.7,4.4-1.7,8.2-1.5,12.4C971,298.5,967.5,294.6,963.6,289.9z"/>
	<path fill="#FFFFFF" d="M929.9,343.5c1.7,5.4,2.8,10.6,1.8,16.1c-0.5-1.8-0.1-3.9-1.2-5.7c-3.3-2.1-7.5-0.8-10.6-3.2
		c-0.8-1.1-0.4-2.5-1.3-3.9C922.5,345.5,926.4,345.1,929.9,343.5z"/>
	<path fill="#FFFFFF" d="M842.4,508.8c-4.9,0.5-9.7,1.5-14.4-1.7c5.9-2.6,12.2-3.2,17.4-6.6C846.5,504.2,846,505.6,842.4,508.8z"/>
	<path fill="#FFFFFF" d="M867.8,306.2c-8.5,0.7-9.3-2.2-8.7-11.1c2.6-0.5,5-0.8,7.1,1.8C866.4,299.8,866.6,303,867.8,306.2z"/>
	<path fill="#FFFFFF" d="M878.2,523.5c0.6,0.4,1.1,0.7,1.6,1c-1.5,4.6-5.5,6-13.2,4.3c3.3-1.3,6.4-2.1,8.5-4.5
		c1-0.2,1.1,0.9,1.8,0.9C878,525.2,878.1,524.3,878.2,523.5z"/>
	<path fill="#FFFFFF" d="M883.8,327.2c-1.5,1.1-0.7,2.5-0.4,4.1c-2.9,0.2-5.4-1.7-7.9-1.1c-1.4-0.5-0.8-1.7-2.5-2.4
		c3.4-0.3,5.4-1.8,7.3-3.1C881.5,325.6,882.6,326.4,883.8,327.2L883.8,327.2z"/>
	<path fill="#FFFFFF" d="M868,294.7c-1.9-0.8-3.7-2-5.9-2c-1.4,0-2-1.1-2.6-2.1c0-0.9,0.6-1.5,1.2-2.2c1.5,0.9,3,1.7,4.8,1.6
		C866.3,291.7,867.7,292.9,868,294.7L868,294.7z"/>
	<path fill="#FFFFFF" d="M842,540.7c3.6,1.1,7.1,2.1,10.6,3.1c-3.8,1.1-7.6-1-11.4-0.1C840.9,542.6,841.2,541.6,842,540.7z"/>
	<path fill="#FFFFFF" d="M900.8,426.9c-1.2-2.8-2.2-5.6-2.5-8.7c1.1-0.5,1.8,0.3,2.8,0.5C901.5,421.5,901.3,424.2,900.8,426.9z"/>
	<path fill="#FFFFFF" d="M866.5,331.1c1.7-1.4,3.4-2.7,5.1-4c0.2-0.1,0.6,0.1,1,0.2c0.6,1.2,0.2,2.3-0.4,3.6
		c-1.8,0.3-3.8,0.6-5.7,0.9C866.5,331.4,866.5,331.3,866.5,331.1z"/>
	<path fill="#FFFFFF" d="M864.3,379.9c-0.7-0.2-1.2-0.7-1.6-1.3c0.4-1.2,1.6,0.5,2-0.7c-0.5-1.3-2.9-1.7-2-3.9
		C865.9,375.7,866.5,377.6,864.3,379.9z"/>
	<path fill="#FFFFFF" d="M897.3,412.8c2.5-0.4,2.5-0.4,3.4,1.6C898.2,414.7,898.2,414.7,897.3,412.8z"/>
	<path fill="#FFFFFF" d="M989.4,185.2c-1.4-2.7-1.5-2.7-4.5-4C988.3,181.3,989.4,182.2,989.4,185.2z"/>
	<path fill="#FFFFFF" d="M857,331.3c3-0.2,3-0.2,4.7,1.6C859.9,332.5,858.5,332.3,857,331.3z"/>
	<path fill="#FFFFFF" d="M947.7,158.8c-1.9-0.1-3.8-0.4-5.3-1.8C944.3,157.2,945.8,158.6,947.7,158.8z"/>
	<path fill="#FFFFFF" d="M987.3,161.3c-1.2,0.3-2.3,0.7-3-1.1C985.7,158.9,986.5,159.7,987.3,161.3z"/>
	<path fill="#FFFFFF" d="M975.3,162.9c0.3,0.9-0.5,1.3-0.6,1.9c-1.1,0-1.4-0.9-2-1.3C973.5,162.1,974.4,162,975.3,162.9z"/>
	<path fill="#FFFFFF" d="M989,158.2c0.9,0.6,1.8,1.3,2.9,2C990,160.3,990,160.3,989,158.2z"/>
	<path fill="#FFFFFF" d="M956.4,369.9c1.8-0.3,2.1,0.4,1.7,1.8C956.9,371.8,956.5,371.2,956.4,369.9z"/>
	<path fill="#FFFFFF" d="M994.7,369.4c0,2.6,0,2.6-1.9,2.5C992.6,370.5,993.4,369.9,994.7,369.4z"/>
	<path fill="#FFFFFF" d="M866.6,373.2c1.5,0.2,2.3,0.6,2.8,1.6c-0.3,0.3-0.6,0.6-0.9,1C867.2,375.5,867.3,374.3,866.6,373.2z"/>
	<path fill="#FFFFFF" d="M841,551.9c-1.6,0.4-2.9,0.4-3.8-1.7C838.7,550.9,839.8,551.4,841,551.9z"/>
	<path fill="#FFFFFF" d="M990.1,369.4c1.2,0.7,1.3,1.3,1,2.4C989.4,371.4,989.8,370.6,990.1,369.4z"/>
	<path fill="#FFFFFF" d="M972,154.2c-1.3,0.4-1.6-0.4-2.5-0.9C970.8,153,971.5,153.1,972,154.2z"/>
	<path fill="#FFFFFF" d="M993.7,206.3c-1.2-0.6-0.7-1.4-1.1-2.3C994.1,204.4,994.2,205.2,993.7,206.3z"/>
	<path fill="#FFFFFF" d="M951.5,162.7c-1,0.5-1.8,0.3-2.7,0C949.7,161.6,950.5,162.4,951.5,162.7z"/>
	<path fill="#FFFFFF" d="M959.9,153.6c-0.9,0.7-1.3,0.2-1.8-0.2C958.7,152.7,959.2,152.5,959.9,153.6z"/>
	<path fill="#FFFFFF" d="M985.5,183.2c1,0.2,1.6,0.4,1.7,1.3C986.4,184.6,985.8,184.4,985.5,183.2z"/>
	<path fill="#FFFFFF" d="M978.7,161.5c0.8,0.1,1.1,0.5,0.9,1.2C978.3,162.9,978.2,162.4,978.7,161.5z"/>
	<path fill="#FFFFFF" d="M994.9,171.3c-0.2-1.1-0.5-1.8,0.7-1.8C996.3,170.3,995.7,170.7,994.9,171.3z"/>
	<path fill="#FFFFFF" d="M840.7,545.4c0.9-0.2,1,0.3,1.1,0.9C840.8,546.6,840.4,546.4,840.7,545.4z"/>
	<path fill="#FFFFFF" d="M993.2,159.6c0.7,0.6,1.5,0.8,0.8,1.5C993.1,161.1,993.2,160.5,993.2,159.6z"/>
	<path fill="#FFFFFF" d="M992.3,172.4c-0.6-0.4-0.6-0.8-0.4-1.3C993.1,171.4,993,171.8,992.3,172.4z"/>
	<path fill="#FFFFFF" d="M558.4,603.2c-0.9-3.4-1.6-6.9-1.8-10.5c-0.1-2.2,0-4.4-1.1-6.6c-1.1,4.1,0.1,8.1,0.1,12.7
		c-10.3-7.3-20.7-13.8-31-20.4c-0.2-1,1.7-0.4,1.4-1.7c-4.8-0.3-9.6,0.5-14.3,1.6c-12.2,3-24.6,3.6-37,4c-5.8,0.2-11.6,1-17.2,2.2
		c-4.7,1-9.4,2-14.4,1.9c-1-7.2,1.4-13.5,4.6-19.4c-0.6-1-1-1.9-1.6-2.6c-4.7-5.8-3.8-12.8-4.2-19.5c-0.1-1,0.7-1.7,1.4-2.4
		c6.6-6.6,12.3-14,17.3-22c4-6.5,9.5-11.8,15-17.1c3.6-3.4,7-7,9.4-11.5c2.9-5.6,7.7-9.9,11.9-14.5c4.5-4.8,8.7-9.7,12.5-15
		c2-2.8,4.3-4.6,8-5.1c5.7-0.8,11.3-2.3,17.2-3.5c-5.7,19.3-9.8,38.8-16.2,57.7c-2.1,6.1-3.8,12.3-5,18.4c-1.4,7.2,0,14.5,5.6,20.4
		c3.1,3.2,5.7,6.8,9.7,9.1c0.9,0.5,1,1.6,1.3,2.5c0.7,1.6,1.3,3.3,3,4.4c0.8-1.4-0.7-2.2-0.5-3.4c0.6-0.5,1.1-0.1,1.6,0.2
		c8.4,5.9,17.9,9.6,26.9,14.4c2.9,1.6,5.8,3.2,8.5,5.1c-0.3,0.1-0.6,0.2-0.7,0.2c0,0,0.3-0.2,0.6-0.3c1.7,0.7,3.4,1.5,5.4,2.3
		c0.6,5,1.9,9.9,3.4,15.3C571,600.8,564.7,602.3,558.4,603.2L558.4,603.2z"/>
	<path fill="#FFFFFF" d="M404.2,371.3c-1,0-2.1,0-3,0c-1-1-1.4-2-1.3-3.1c0.9-1,2.1,0.3,3-0.5c0.4-0.8-0.6-0.8-0.8-1.3
		c0.1-0.2,0.1-0.4,0.1-0.5c0,0.2,0,0.4-0.1,0.6c-4.2-0.8-4.6-1.1-5.4-5.4c1.8-0.7,3.6-0.3,5.6,0.1c0-2.5-3.6-2.4-2.7-5.1
		c-1.9,0.6-0.3,2.2-1.5,2.9c-2.4-0.3-3.6-1.7-3-4.3c1.5-1.5,3.9-1.3,5.2-3c0.5-1.2-0.6-2.1-0.7-3.2c-2.1,0.6-0.5,2.1-1.1,3.1
		c-1.2,0.7-2.8,0.2-4,1c-1-2.5-0.5-4.1,1.8-5.2c1.8-0.8,3.9-0.7,5.8-2.7c-3.2-0.3-3.9-2.1-3.4-4.8c1.6-0.9,3.4-1.9,5.5-1.8
		c0.6,0.8,1.3,1.5,2,2.3c-0.8,1.6-2.8,2.1-3.3,3.8c5-0.8,5.7-3.2,2.2-7.5c-2.1-0.8-5.5,1-6.2-3.2c2-0.1,3.9,0.4,5.6-0.8
		c0.5-0.4,1.7-0.3,2.4,0.1c3.8,1.8,8.4,2.5,10.6,6.7c3.4,6.8,8,10.6,16.4,8.4c7.1-1.9,14.3-2.8,21.4-4.9c8.4-2.5,16.5-5.6,24.1-10.1
		c2-1.1,4.1-1.8,6.3-2.2c5.3-1,8-4.6,7.7-10.5c-0.6-9.8-0.1-19.4,2.4-28.9c0.5-2,0.1-4.3,1.4-5.9c-1.4-3.9-3.7-7.1-4.9-10.8
		c-0.6,3.9,0.3,7.4,3,10.5c-0.4,1.3-0.7,2.6-1.1,3.9c-4,1.8-7.3,4.4-10.4,8c-1.3-4.7-1.8-9.3-1.3-13.7c0.6-5.4,0-11.1,3.6-15.9
		c2.9-3.9,5.6-8,8.5-11.9c3.2-4.4,6.6-8.7,9.9-13c2.4-3.1,5.6-5.5,8.7-8.1c4,2.7,8.1,5,10.9,9c1,1.4,2.2,2.8,3.8,3.6
		c4.3,2.2,7.2,5.7,9.3,10c-0.7,2-0.7,3.9,0.5,5.9c2.1,3.5,2.2,7.5,2.3,11.4c0.1,5-0.1,10.2-2.6,14.5c-3.2,5.3-3.6,11-4.1,16.8
		c-0.3,3.3-1.5,6.3-3.5,9.1c-5.7,7.6-9.2,16.2-11.2,25.5c-0.9,4-1.9,8.1-2.8,12.1c-0.4,1.8-1.3,2.8-3.1,3.4
		c-8.3,2.5-16.4,5.6-24.8,7.4c-9.6,2-19.4,2.7-29.3,1.7c-9.3-1-18.7-0.5-28,0.6c-2.6,0.3-4.6,1.9-6.6,3.3
		C417.8,373,411.1,373.3,404.2,371.3L404.2,371.3z"/>
	<path fill="#FFFFFF" d="M429,458.1c0.1-2-1.2-3.5-2-5.3c3,0.6,4,2.6,5,5c2.9,7,6.3,13.8,9.3,20.8c2.6,6.2,4.3,12.5,2,19.2
		c-0.8,2.5-0.6,5.4-1.6,7.6c-3.3,6.7-2.1,13.8-2.8,20.7c-0.6,6.4,0.7,12.7,1.1,19.1c0.2,3.6,0.3,7.2,0.8,10.8
		c-1.7,0.7-2.6-0.6-3.7-0.6c-1.2-1.4-0.6-3.2-1.8-4.4c-1.4,0.8-0.7,2.4-1.1,3.6c-1.6-0.3-3.1-0.6-4.4-0.8c-1.2-0.7-1.2-1.9-1.7-2.7
		c-1.6-0.2-0.2,1.5-1.4,1.7c-3.4-0.8-3.5-4.5-5.2-6.8c-0.5-0.6-0.6-1.5-0.9-2.3c-1.5-4.2-3.6-7.8-8.3-7.8c-4.4-10.8-4-21.8-4.3-33
		c1.5,3.4,3.1,6.8,4.5,10.3c1.5,3.7,2.9,7.4,3.3,11.5c0.4,3.8-0.8,7.7,0.8,11.4c1.3-2.8,1.1-5.8,1.2-8.7c0.2-7.7-2.9-14.5-6.1-21.3
		c-4.7-9.7-8.5-19.8-10.9-30.3c-0.2-0.9-0.4-1.9-0.4-2.8c0-0.8,0.1-1.7,0.1-2.4c-3-3.4-3.2-7.7-3.8-11.8c-0.2-1.2,0-2.6-0.4-3.8
		c-2-6.5-0.3-13.6-2.7-19.9c-1.4-3.8-0.4-7,0.2-10.6c0.7-4,3.3-6.3,6.8-8c1.3-0.6,2.5-0.8,3.8-0.2c1.7,0.7,3.4,1.4,5.2,2.1
		c-0.7,1.5-2.8,0.5-3.2,2.3c2,0.5,3.6-0.2,4.9-0.9c5.9,0.2,8.7,4.8,11.6,8.3c5.7,6.9,10.6,14.5,16.8,21.4
		c-5.1,2.1-10.5-1.1-15.4,2.1C425.4,454.3,426.5,456.7,429,458.1c0.1,0.1,0.2,0.3,0.2,0.5C429.2,458.4,429.1,458.3,429,458.1z"/>
	<path fill="#FFFFFF" d="M226,522.1c2-1.3,4.1-2.3,6.4-3c2.7-0.8,5.4-2,7.6-3.7c9.3-7.1,20.3-10,31.4-12.4
		c8.1-1.8,16.2-3.5,24.3-5.4c6.7-1.6,13.5-3.2,19.8-6.5c6.3-3.4,13.5-4.1,20.4-5.8c7.3-1.8,14.6-4,22.1-5c8.4-1.1,16.1-4.3,24.4-5.5
		c1.4-0.2,2.2-1.3,3.4-1.7c3.7-1.3,7.4-2.4,11.3-3.3c1.4,5.8,2.7,11.4,4.2,17.4c-5.3,1.7-10.3,3.8-15.6,5
		c-15.6,3.6-31.2,6.8-46.9,10.1c-2,0.4-3.8,1.2-5.7,1.8c-12.2,4.1-24.2,8.9-36.8,11.5c-11.8,2.4-23.4,5.8-35.3,7.9
		c-5,0.9-9.7,3-14.5,4.6c-4.3,1.4-8.7,2.4-13.1,3.5c-2.1-2-3.2-4.7-4.8-7C227.9,523.5,227.6,522.1,226,522.1L226,522.1z"/>
	<path fill="#FFFFFF" d="M221.7,477.2c-1.6-3.3-3.5-6-5.5-9c5.9-3,12-4.9,18.3-6.5c6.1-1.5,11.9-3.7,17.7-6.3
		c6.5-3,13.7-2.9,20.6-3.1c0.8,1.3-0.2,1.7-0.6,2.3c-6.4,9.9-16,16.3-25.2,23.2c-8.2,6.2-17.4,10.9-26.5,15.7
		c-4.1,2.2-8.2,4.2-12.1,6.7c-9.7,6.3-20.7,9.3-31.6,12.5c-7.9,2.3-15.9,3.6-24.4,3.9c0.1-1.9,1.1-3,2.1-4.2
		c6.2-6.8,13.3-12.8,19.4-19.8c2.2-2.5,5.4-4.2,8.3-6c6.4-4.1,12.9-8,19.2-12.4c2.7,3.9,3.8,8.5,6.1,12.4
		C213.2,487.6,220.4,482.9,221.7,477.2z"/>
	<path fill="#FFFFFF" d="M508.7,231c0.9,0.7,1.8,1.5,3,2.4c-9.1,7.5-15.4,17.2-22.4,26.1c-3.2,4.1-6.3,8.4-7.4,13.6
		c-1.8,8.4-2.5,16.9,0.6,24.9c-0.4,1.7-2.6,1.7-2.6,3.4c1.2,0.6,2.3,0,3.6-0.2c1.8,2.7,4.3,4.6,7.5,5.6c-0.2,4.2,0.8,8.1,0.9,12.2
		c0.2,4.8-2.4,9.1-7.1,10.1s-8.9,2.9-13,5.4c-3.1,1.9-6.6,3.3-9.9,4.8c-1,0.4-2,0.7-3.1,1.1c-2.2-5.3-3.5-10.6-3.3-16.3
		c0.2-5.3-1-10.3-3-15.2c-3.3-8.1-5.8-16.3-3.5-25.2c0.3-1.1,0.2-2.5,1.4-3.1c4.3-2,5.7-6.2,7.7-9.9c1.5-2.6,2.5-5.3,3.8-8.2
		c1.3,1.2,0.4,2.5,0.4,3.6c-0.1,5.5,1.9,8,7.3,8.4c2.5,0.2,4.1-1.7,5.5-3.4c4.2-4.9,7.9-10.1,11.5-15.3c5.8-8.3,12-16.2,20.2-22.2
		C507.9,233.1,508.9,232.4,508.7,231L508.7,231z"/>
	<path fill="#FFFFFF" d="M519.2,347.3c3.6-0.5,6.9-1,10.3-2.3c1.8,6.1,1.1,12.1,1.1,18.1c-0.2,1.1,1-0.2,1.2,0.4
		c1.2,2.5,0.7,5.1,1.6,7.4c-3.8-0.1-7.1,1.7-10.8,1.9c-1.6,0.1-2.9,0.2-4.4-0.6c-2.5-1.2-5.2-1.5-8.6-1.6c2.3,2,4.9,1.4,6.8,2.6
		c-0.1,0.2-0.2,0.6-0.3,0.6c-10.8-0.1-21.2,3.8-32,4.2c-2.4,0.1-4.6,1.3-6.8,1.9c-2.2,0.6-4.3,1.3-6.1-0.3c-0.9,0.4-0.4,1-0.8,1.4
		c-1.4,0.3-2.7-0.3-4.2-0.8c-1.2-4-0.9-8.7-4.4-13c-1.7,4,0.1,7.1,0.6,10.5c-5.7,4.1-10,9.3-11.2,16.9c-1.3,0.4-2.7,1.1-4.1,2
		c-1.2-3.6-2.1-7.1-0.6-11.1c-2.6,1.2-1.5,3.3-2.4,4.7c-2.6,0.7-5.1,0.3-7.5-1c-0.9-1.2-1-2.6-1.2-4.4c7.6-1.4,14.5-5.8,22.7-4.9
		c-0.2-1.7-1.3-2.1-3.3-1.9c-4.9,0.3-9.4,2.4-14,3.7c-1.9,0.5-3.8,1.3-6,1.3c-0.6-2-1.4-4-3.1-5.6c-4,0.2-7.6-2.1-11.7-3
		c0.9-2.2,2.9-2.2,4.2-3.2c4-3.1,8.6-4.2,13.6-4.2c9.7-0.2,19.4-0.3,29,0.7c5,0.5,9.9-0.9,14.8-1.3c11.9-1.1,22.8-5.9,33.9-10
		c1.6-0.6,2.4-1.9,2.6-3.5C518.2,351,518.3,349.2,519.2,347.3z"/>
	<path fill="#FFFFFF" d="M442.1,476c19.1-5.3,37.7-11.9,57.8-15.9c-10.7,10.4-18.7,22.2-27.9,33.1c-6,7.1-11.2,14.9-16.8,22.4
		c-1.4,1.9-3,3.7-4.9,5.1c-3.6,2.6-6.3,6-9.6,9.2c0.4-4.2,0.2-8.3,1-12.4c1.6-8.1,3.5-16.2,4.2-24.4c0.4-4.9-0.7-10.1-2.9-14.8
		C442.8,477.7,442.6,477,442.1,476z"/>
	<path fill="#FFFFFF" d="M220.3,478.7c-3.4,2.6-6.4,5.3-10.2,6.4c-1.2-0.5-1.4-1.5-1.8-2.3c-5.1-12.2-12-23.3-18.7-34.6
		c-6-10.1-13-19.5-18.2-30c-1.2-2.3-2.4-4.6-2.8-7.4c3.7-1.8,7.3-3.9,11.1-6.3c0.2,0.4,0.4,0.6,0.5,1c3.5,9.4,8.8,17.8,14.3,26.1
		c4.5,6.8,8.6,13.9,12.4,21.1c1.7,3.2,2.5,6.6,3.9,9.9C213.2,468.3,217,473.2,220.3,478.7z"/>
	<path fill="#FFFFFF" d="M544.7,412.4c5.9,2.6,12.3,4.1,18.5,6c3.8,1.2,4.9,2.8,4.9,7.2c0,2.1-0.1,4.3,0.2,6.4
		c-2.5,2.4-5.9,3.2-9,3.8c-8.1,1.5-15.7,4.4-23.6,6.3c-7.3,1.7-14.7,2.5-21.9,4.4c-6.3,1.7-12.8,2.3-18.8,5c-0.3,0.1-0.7,0.2-1,0.2
		c-4.6,0.5-9.1,0-13.8,0.2c3.8-1.6,7.5-3.2,12-3c0.1-1.5,2-1.5,3.5-2c9.7-3.5,19.6-6.4,28.6-11.6c3.8-2.2,7.9-3.8,10.4-7.7
		c0.5-0.8,1.8-1.1,2.7-1.7c4.5-2.8,7.7-6.3,6.8-12.2c0-0.2,0-0.5,0.1-0.7C544.4,412.9,544.5,412.7,544.7,412.4z"/>
	<path fill="#FFFFFF" d="M408.1,539c-1.5-3.9-1.3-7.9-2.7-11.9c-1,2.2,0.1,3.9,0.4,5.5c0.3,1.8,0.6,3.5,0.3,5.3
		c-1.5-0.4-1.7-0.5-2.1-2.1c-1.3-0.1-1.6,1.3-2.7,1.7c-1.5-0.2-3.2-0.5-4.8-0.7c-1.3-1.7-2.7-3.3-4.3-4.7c0.2-1.6,0.4-3,0.4-4.4
		c0.3-5,0.3-5-4.5-6.5c-1.1-8.9-4.7-17.1-8.5-25.7c7.6-1.9,14.6-4.6,21.9-7c1.2,2.3,2.3,4.4,3.3,6.5c0.4,0.8,0.9,1.7,0.2,2.6
		c-0.4,0.6-0.3,1.4-0.2,2.1c0.8,11.5,0.5,23.1,4.6,34.2C409.9,535.6,410,537.4,408.1,539z"/>
	<path fill="#FFFFFF" d="M342.8,536.6c5.4-0.1,10.3,0.2,15.2-0.9c0.9,1.4,1.3,3.8,3.8,2.7c0.6-1.2-1.1-1.7-0.6-3
		c2.8-1.4,1.8,3.4,3.4,2.9c1.7-0.3,0.8-1.5,1.5-2.1c1.7,0.7,2.7,3.2,5.1,1.8c0.5-2.1-1.9-2.6-2.3-4.2c0.5-0.7,1-1.2,1.7-0.3
		c1.2,1.5,2.4,2.9,4,4c1.3,0.9,2.6,1.6,4.3,0.6c0.3-2.9-2.4-3.8-3.8-5.6c1.7-1,1.8-1.1,2.8,0.2c1.5,1.9,3.3,2.8,6,3.5
		c-0.4-3.1-2.7-4.2-4.5-6c3-1.5,5.7-3.4,7.1-6.4c1.4-0.2,2.3,0.2,3.1,1c0.2,1.9-0.1,3.8,0.4,5.7s0.8,3.9,2.6,5.2
		c1,0.7,1.3,1.9,1.6,3.1c1.2,4.7,4.1,7.9,8.8,9.5c-4.9,3.5-10.2,2.6-15.4,1.5c-7.7-1.5-15.4-2.2-23.1-4c-5.5-1.3-11.2-2.1-16.7-3.2
		c-3-0.6-6.1-0.8-9.2-0.2C338,538.5,342.2,539,342.8,536.6z"/>
	<path fill="#FFFFFF" d="M456.1,468.9c3.4-4.4,7.6-7.5,10.9-11.4c1.9-2.2,3.9-3.4,6.6-4.1c2.1-0.6,4.1-0.9,6.2,0.2
		c1.2,0.6,2.6,0.5,3.8,0.4c5.1-0.7,10.2-0.2,15.5-2c5.9-2,12.4-3.1,18.7-4.2c9.1-1.6,18-3.9,27.1-6.3c1.5,2.5,2.2,5,2.9,7.8
		c-15.2,2.8-30,6.5-45.2,8.2c-14.1,1.6-27.8,5.9-41.3,10.2C459.7,468.2,458.2,469,456.1,468.9z"/>
	<path fill="#FFFFFF" d="M371.4,374.8c15.5,2.7,30.7,5.4,45.9,8.1c0.8,4.3,0.4,8.6,1.9,12.7c-16.1-1-30.6-7.9-46-11.6
		C371.7,381.1,371.9,377.8,371.4,374.8z"/>
	<path fill="#FFFFFF" d="M509.7,459.3c-3.8,5.5-7.7,10.2-12.1,14.5c-4.2,4.2-7.8,8.9-12,13.1c-0.3,0.2-0.5,0.5-0.6,0.9
		c-3.4,8.8-11,14.1-17,20.7c-3.8,4.1-7.3,8.4-10.2,13.2c-4,6.8-9.2,12.6-14.3,18.5c-0.4,0.5-0.9,1.1-1.7,1.1
		c-0.1-0.2-0.3-0.3-0.4-0.5c-2.4-7.8,2.8-12.2,7.7-16.3c3.9-3.3,7.7-6.7,10.6-10.9c7.5-11,16-21.1,24.4-31.4
		c4.7-5.7,8.9-11.7,13.8-17.2C502.3,460,502.3,460,509.7,459.3z"/>
	<path fill="#FFFFFF" d="M530.5,338.8c-2.3,0.2-4.3,0.6-6.7,1.6c2.2,1.1,4.1-0.1,5.9,0.4c0,1,0,2,0,3.2c-3.2,0.9-6.5,1.3-10,1.4
		c2.3-10.5,5.2-20.6,12-29c2.4-2.9,3.5-6.5,4.1-10.1c0.5-3.1,1.5-5.9,3.7-8.1C540.6,304.2,537.8,316.9,530.5,338.8z"/>
	<path fill="#FFFFFF" d="M463.4,255.7c-3.9,7.9-6.9,16-12.7,23.5c0.1-2.6,0-4.5,0.6-6.3c0.6-1.7,1.7-3.3,1.6-5.4
		c-2.2,1-2.8,3.1-3.4,5.1c-1.4,5.1-2.6,10.2-3.9,15.5c-3.1-3.1-2.6-6.8-1.8-10.2c0.5-2,1.6-4,2.1-6c1.2-5.8,5.2-9.6,9.3-13.2
		C457.5,256.8,460.6,256.7,463.4,255.7z"/>
	<path fill="#FFFFFF" d="M432,380.5c1.2,4.1,2.3,8.1,3.5,12.2c-4.9,0.9-9.6,1.7-14.5,2.6c-2-3.9-1.8-7.8-2-11.8
		C423.3,381.8,427.6,381.5,432,380.5z"/>
	<path fill="#FFFFFF" d="M417.8,374.1c-3.1,3.1-6.4,3.9-10.1,1c-1.2,2.6,0.7,3.8,1.9,3.7c4.1-0.1,8.6,1.5,11.8-2.7
		c2.8,0.5,5,2.3,7.9,2.6c-4.8,0.6-9.1,3-14.2,2.2c-11.1-1.6-21.9-5.2-33.1-5.8c-0.2,0-0.3-0.3-0.4-0.3c8.4-4.1,17-2.4,25.5-0.6
		c2.3,0.5,4-0.7,6.1-0.3C414.7,374.4,416.3,374.1,417.8,374.1z"/>
	<path fill="#FFFFFF" d="M423.7,554.1c4.9,4.1,12.1,1.6,16.8,6.2c-0.2,2.8-1,5.2-3.8,6.3c-1,0.4-2.3,0.9-3,0c-2.7-3.2-6.6-5-9.4-8.1
		C423.3,557.3,422.8,556.1,423.7,554.1z"/>
	<path fill="#FFFFFF" d="M380.3,338.1c0.2,3,0.6,6,1.8,8.8c-5,1.9-9.5-0.5-8.9-6.1c0.1-1.3-0.7-2.5-0.4-3.8
		C376.1,335.4,377.6,335.6,380.3,338.1z"/>
	<path fill="#FFFFFF" d="M449.7,468.3c-4.5-1.9-8.2-3.3-10.1-7.5c-1-2.3-2.9-4.2-4.7-6.6c2.2-0.4,3.9-1,5.9-0.3
		C443.7,458.3,445.7,463.4,449.7,468.3z"/>
	<path fill="#FFFFFF" d="M441.2,473.8c-2.8-5-4.8-10.1-6.3-15.5c3.4,5.8,7.4,10.6,14.5,12c-0.1,0.3-0.1,0.5-0.2,0.8
		C446.7,471.9,444.2,472.8,441.2,473.8z"/>
	<path fill="#FFFFFF" d="M388.9,368.2c3.1-0.3,4.8-1.9,6.8-3.3c1,0.8,1.9,1.5,3,2.4c-0.4,1.2-0.2,2.6,0.3,4.1
		C395.7,370.3,391.9,372,388.9,368.2z"/>
	<path fill="#FFFFFF" d="M381.8,417.1c3.9,1.3,5.1,3.6,4.3,8C382.4,424.2,380.6,421,381.8,417.1z"/>
	<path fill="#FFFFFF" d="M458.5,384.4c0,3.6,0,6.5,0,9.4c-1.5,0.5-2.9-0.1-4.5-0.2C455.4,390.7,456.2,387.6,458.5,384.4z"/>
	<path fill="#FFFFFF" d="M492.3,296.9c-0.4,2.6-0.8,4.8-1.3,7.6c-2.1-1.6-4.2-2.4-5.8-4.6C487.9,299.6,489.9,298.3,492.3,296.9z"/>
	<path fill="#FFFFFF" d="M382.1,372.4c2.1-1.4,3.1-4.1,5.7-4.8c1,1.4,0.6,2.5,0.2,3.7C386.2,372.3,384.1,371.9,382.1,372.4z"/>
	<path fill="#FFFFFF" d="M536.8,297.8c-1.8-4.5,2.4-6.1,3.5-9.1C541,292.4,538.7,294.9,536.8,297.8z"/>
	<path fill="#FFFFFF" d="M391.4,415.5c2.1,0,4,0,6.7,0c-2,1.7-4,2.2-5.2,4.3C392.4,418.1,391.9,416.8,391.4,415.5z"/>
	<path fill="#FFFFFF" d="M408.9,590.4c-1.6,1-3.1,0.5-4.2,1.3c-1-1-0.6-2-0.3-3.2C405.8,589.1,407.2,589.7,408.9,590.4z"/>
	<path fill="#FFFFFF" d="M496.2,168.7c1.2,0.2,1.4,1.2,2.1,2.1c-1.3,0.2-2.3,0.8-2.9-0.5C495,169.4,495.8,169.1,496.2,168.7z"/>
	<path fill="#FFFFFF" d="M528.8,373.4c0.3,2.5,0.3,2.5-1.3,2.9C526.9,375,527.2,374.1,528.8,373.4z"/>
	<path fill="#FFFFFF" d="M377.5,373.5c-2.1,1-3.2-0.6-4.7-0.3C374.3,371.7,375.6,372.4,377.5,373.5z"/>
	<path fill="#FFFFFF" d="M485.5,174.6c-1-0.3-1.5-0.8-1.6-1.6c0.6-1.3,1.4-1.2,2.4-0.5C486.5,173.4,485.9,173.8,485.5,174.6z"/>
	<path fill="#FFFFFF" d="M389.5,420.1c-1.2-0.6-1.6-1.7-1.8-3.3C389.3,417.7,389.7,418.7,389.5,420.1z"/>
	<path fill="#FFFFFF" d="M498.8,191.1c1.9,0.4,2.3,1.7,1.9,3.5C500.1,193.4,499.5,192.3,498.8,191.1L498.8,191.1z"/>
	<path fill="#FFFFFF" d="M490.8,380.1c2.1-0.5,2.3,0.4,2.2,1.7C491.4,382.1,491.2,381.1,490.8,380.1z"/>
	<path fill="#FFFFFF" d="M390.9,422.1c0.5,2-0.3,2.2-1.5,2C389,422.7,389.9,422.5,390.9,422.1z"/>
	<path fill="#FFFFFF" d="M456,168.7c-1.2,0.2-2.2-0.3-3.1-1.1C454.3,167,454.9,168.4,456,168.7z"/>
	<path fill="#FFFFFF" d="M524.1,374.2c1.4,0.4,1.7,1.1,1.1,2.4C524.2,376,524,375.3,524.1,374.2z"/>
	<path fill="#FFFFFF" d="M459.7,172.9c1-0.6,1.8-0.3,3,0.3C461.4,173.5,460.5,173.4,459.7,172.9z"/>
	<path fill="#FFFFFF" d="M499.3,167.9c1.5-0.3,2.2,0.9,3.5,1.5C500.7,170.4,500.2,168.7,499.3,167.9L499.3,167.9z"/>
	<path fill="#FFFFFF" d="M505,213.1c1.2,0.7,1.3,1.4,0.6,2.4C504.9,214.9,504.6,214.3,505,213.1z"/>
	<path fill="#FFFFFF" d="M482.6,164c-1.2,0.5-1.6-0.3-2.7-0.8C481.2,162.8,481.9,163,482.6,164z"/>
	<path fill="#FFFFFF" d="M489.9,170.9c0.4,0.4,0.8,0.8,0.7,1.4c-0.8,0.6-1.1,0.1-1.3-0.4C489,171.4,489.4,171.1,489.9,170.9z"/>
	<path fill="#FFFFFF" d="M506.2,178.5c1.2,0.8,0.5,1.2,0.2,1.8C505.5,179.6,505.9,179.1,506.2,178.5z"/>
	<path fill="#FFFFFF" d="M498.9,191.1c-0.9,0-1.9,0-3.5,0C497.1,190.1,498,190.6,498.9,191.1L498.9,191.1z"/>
	<path fill="#FFFFFF" d="M466.6,168.7c1.2-0.4,1.6,0.2,2,0.8C467.7,170,467.1,169.5,466.6,168.7z"/>
	<path fill="#FFFFFF" d="M499.5,166.3c1-1.4,1.3-0.2,1.8,0.4C500.5,167.1,500.1,166,499.5,166.3L499.5,166.3z"/>
	<path fill="#FFFFFF" d="M468.8,163.3c0.4-0.6,0.9-0.6,1.4-0.1c0.1,0.6-0.1,0.9-0.7,0.9C469.1,164,468.9,163.7,468.8,163.3z"/>
	<path fill="#FFFFFF" d="M503.9,169c0.8,0.2,1.3,0.4,1,1.2C504.1,170.4,503.9,170,503.9,169z"/>
	<path fill="#FFFFFF" d="M499.4,166.2c0,0.6-0.1,1.1-0.1,1.7l0.1-0.1c-0.3-0.4-0.6-0.7-0.9-1.2C498.8,166.5,499.1,166.4,499.4,166.2
		L499.4,166.2z"/>
	<path fill="#FFFFFF" d="M459.1,165.6c-0.3,0.3-0.6,0.3-0.8-0.1c-0.2-0.5,0.2-0.5,0.5-0.4C459,165.2,459,165.4,459.1,165.6z"/>
	<path fill="#FFFFFF" d="M497,192.9c1.1-0.2,1.2,0.3,1.6,0.8C497.7,194.2,497.5,193.6,497,192.9z"/>
	<path fill="#FFFFFF" d="M499.9,204.3c-0.1-0.2-0.2-0.4-0.2-0.6c0-0.1,0.4-0.2,0.5-0.2c0.1,0.1,0.3,0.4,0.2,0.5
		C500.3,204.2,500,204.2,499.9,204.3z"/>
	<path fill="#FFFFFF" d="M494.9,182.1c-0.2,0.1-0.4,0.4-0.5,0.3c-0.4,0-0.5-0.4-0.3-0.7c0.1-0.1,0.4-0.3,0.6-0.2
		C494.7,181.6,494.8,181.9,494.9,182.1z"/>
	<path fill="#FFFFFF" d="M880.9,538.9c-1.3,0.8-1.8,1.9-0.7,3.1c-1.4,0.6-2.4,0.4-3.1-0.8c-0.5-0.9-0.5-1.8,0.3-2.6
		C878.3,537.6,879.4,537.6,880.9,538.9z"/>
	<path fill="#FFFFFF" d="M425,578.6c-2-1.6-2-2.9-1-4.2c0.5-0.7,1.3-1,2.2-0.8c1.5,0.5,1.9,1.5,1.5,3.3
		C426.5,576.8,424.9,576,425,578.6z"/>
	<path fill="#FFFFFF" d="M873.5,544.6c-0.2,1.3-1,2.1-2.4,2s-2.1-1.1-2.1-2.4c0-1.4,1-2.2,2.3-2
		C872.8,542.3,873.5,543.2,873.5,544.6z"/>
	<path fill="#FFFFFF" d="M419.7,572.2c-0.1,1.6-0.8,2.6-2.4,2.6c-1.4,0-2.2-0.9-2.1-2.2c0.1-1.4,0.8-2.5,2.4-2.5
		C418.9,570.1,419.5,571,419.7,572.2z"/>
	<path fill="#FFFFFF" d="M862.6,549.3c-0.2-2.5,0.9-2.5,2.4-2.5C865.1,548.5,864.1,548.8,862.6,549.3z"/>
	<path fill="#FFFFFF" d="M411.9,568.7c-1.2,0.8-2,0.6-2.7-0.6C410.6,566.5,411.3,567,411.9,568.7z"/>
	<path d="M954,336.2c8.7,2.9,17,1,25.8-2.1c-1.5,2.7-4,2.3-5.5,3.7c4.1,1.4,8.4,1.1,12.5,2c-0.4,1.6-1.4,1.3-2.1,1.3
		c-1.9,0-3.8,0-5.6-0.4c-5.7-1.2-11.3-2-17.2-1.9C959.1,338.9,956.4,338,954,336.2z"/>
	<path d="M1002.6,319.4c-1.5,5.1-10,7.2-15.2,3.9C992.8,323.3,998.1,323.2,1002.6,319.4z"/>
	<path d="M906.3,322.7c-5,2.1-9.3,0.7-13-3C897.5,321.7,901.6,323.4,906.3,322.7z"/>
	<path d="M996.5,314.6c-4.1-0.6-8.3-1.3-12.4-1.9c0-0.3,0.1-0.6,0.1-0.9c4.2,0.2,8.3,0.4,12.4,1.7
		C996.5,313.9,996.5,314.3,996.5,314.6z"/>
	<path d="M994.9,283.9c-5-0.7-7.1-2.1-7.6-5.1C990.3,279.7,992.9,281,994.9,283.9z"/>
	<path d="M910.2,326.4c-2.8,1.6-5.5,3-8.8,2.1C904.2,327.2,907,325.7,910.2,326.4z"/>
	<path d="M1009.5,305.9c-2.5,2.4-4.1,5.4-5.2,8.6c0,0-0.2,0-0.5-0.1C1004.7,310.9,1004.4,306.7,1009.5,305.9L1009.5,305.9z"/>
	<path d="M990.6,296.2c-1.2-4.2-0.8-5.9,1.7-8.9C991.8,290.3,991.2,293.2,990.6,296.2z"/>
	<path d="M890.9,329c2.8,0.4,4.9-2.7,7.9-1.4C897.2,329.2,893.8,329.9,890.9,329z"/>
	<path d="M1003.6,270.3c0.2,2.8-0.5,5.3-1.7,7.7C1001.5,275.1,1002.9,272.8,1003.6,270.3z"/>
	<path d="M982.4,275.5c2.4,0.9,2.6,2.7,3.2,4.3C983.8,279.1,982.3,278.4,982.4,275.5z"/>
	<path d="M1016,276.4c-1.3,1.5-2.2,3.6-5.1,3.6C1012.3,277.8,1014.2,277.1,1016,276.4z"/>
	<path d="M962,316.3c1.5-0.3,3.1-0.6,5,0.7c-2.1,0-3.6,0-5.1,0C961.9,316.8,962,316.6,962,316.3z"/>
	<path d="M945.6,334.5c2.2-0.3,3.9,0.3,5.6,0.9C948.9,336.1,948.9,336.1,945.6,334.5z"/>
	<path d="M992.7,339.5c-1.2,1.3-2.7,1.8-5.2,1.6C989.4,339.5,991,339.3,992.7,339.5z"/>
	<path d="M1004.9,242.3c-1.9,0.5-3.2,0.4-4.5-0.3C1002.4,240.8,1002.4,240.8,1004.9,242.3z"/>
	<path d="M989.2,299.3c1.3,1.1,1.6,2.2,1.6,3.4C989.3,302.1,988.7,301.1,989.2,299.3z"/>
	<path d="M1016.4,252.8c-1.5-0.8-2.6-2.1-3.1-3.8C1015,249.7,1015.8,251.1,1016.4,252.8z"/>
	<path d="M943.3,334.3c-2.1,0.1-3.2-0.3-4.9-1.3C940.4,332.7,941.5,333.2,943.3,334.3z"/>
	<path d="M990.5,332.6c0.8-1.1,1.8-1,2.7-0.9c0.4,0.7-0.1,1-0.4,1.1C992,333.2,991.3,333.2,990.5,332.6z"/>
	<path d="M886.1,322.3c1.2,0.9,1,2,0.8,3.2C885.5,324.7,885.4,323.8,886.1,322.3z"/>
	<path d="M889.3,330.9c-1.3,0.1-1.6-0.7-1.9-1.5c0.3-0.2,0.4-0.5,0.6-0.4C889.2,329.1,889.3,329.9,889.3,330.9z"/>
	<path d="M936.1,331.5c-1.4,0.3-2.3,0.4-2.9-0.8C934.3,329.9,935,330.7,936.1,331.5z"/>
	<path d="M891.9,320c-1.6,0.6-1.9-0.3-2.8-1C890.6,318.7,891.2,319.2,891.9,320z"/>
	<path d="M997.5,337.7c-0.9,1-1.7,1.5-2.6,0.7C995.5,337.2,996.3,337,997.5,337.7z"/>
	<path d="M894.4,323.5c-0.6,1.2-1.3,1.4-2.4,1C892.6,323.4,893.5,323.8,894.4,323.5z"/>
	<path d="M979.9,320.1c-0.9,1.2-1.6,1-2.5,0.6C978,319.8,978.7,319.8,979.9,320.1z"/>
	<path d="M1002.2,248.6c-0.8-0.5-1.3-1.1-0.7-2.2C1002.7,246.9,1002.7,247.6,1002.2,248.6z"/>
	<path d="M976.1,312.8c-0.8,0.5-1.3,0.4-1.9,0C974.8,311.3,975.3,312,976.1,312.8z"/>
	<path d="M898.5,316.3c0.1-0.5,0.4-0.8,0.9-0.6c0.1,0,0.2,0.4,0.2,0.5C899.2,316.7,898.8,316.8,898.5,316.3z"/>
	<path d="M986,332.8c0.7-0.8,1.3-0.5,2.2-0.2C987.4,333.3,986.8,333.5,986,332.8z"/>
	<path d="M984.5,322.1c-0.7,0.3-1.2,0.3-1.3-0.2c-0.1-0.7,0.4-0.7,0.8-0.4C984.2,321.6,984.3,321.8,984.5,322.1z"/>
	<path d="M900,530.1c0-1.6,0.9-1.7,2.2-1.9C901.7,529.2,901.3,529.9,900,530.1z"/>
	<path d="M944.9,179.4c3.6-3.2,10.5-4,14.7-0.3c-2.6,1.1-4.8-1.5-7.3-0.7C950,179.1,947.7,180.8,944.9,179.4z"/>
	<path d="M948.1,183.2c0.3-0.9,0.7-1.3,1.5-1.7c1.4,2.2,4.4,1.4,6.4,3.1c-1.6,1.7-4.3,0.2-5.5,2.6
		C949.6,185.6,949.9,183.7,948.1,183.2z"/>
	<path d="M982.6,186.4c3.1,2,3,3.6-0.7,6.7c-2.8-2.3-0.3-4.4,0.3-6.5C982.4,186.6,982.5,186.5,982.6,186.4z"/>
	<path d="M970.4,218.6c0.1,2.7-1.2,4.1-3.1,5.9C967.3,221.7,968.5,220.3,970.4,218.6z"/>
	<path d="M973.3,212.6c-0.7,1.5-1.4,3-2.2,4.5c-0.3-0.1-0.5-0.2-0.8-0.3c0.1-1.8,0.5-3.5,2.2-4.7
		C972.8,212.3,973.1,212.4,973.3,212.6z"/>
	<path d="M986.5,215.5c-0.3-1.7-0.6-3.4,0.7-5.4C988.1,212.4,987.9,214,986.5,215.5z"/>
	<path d="M986.4,217.5c0.7,2-0.4,3.4-1.7,5.4C984.4,220.3,986.3,219.2,986.4,217.5z"/>
	<path d="M960.5,243c-1.3,0.8-2,0-2.9-0.8C959.2,241.9,959.2,241.9,960.5,243z"/>
	<path d="M960.9,246.8c0.7-2.2,2-2.2,3.7-2.8C963.5,245.6,962.4,245.9,960.9,246.8z"/>
	<path d="M958,248c0.2,1.1-0.4,1.3-1,1.8C956.6,248.7,957.1,248.4,958,248z"/>
	<path d="M967.1,227.8c-0.4-0.7-0.5-1.3,0.6-1.5C968.4,227.1,967.8,227.5,967.1,227.8z"/>
	<path d="M762.6,433.7c-8.2,0.5-16.5,1-24.7,0C746.1,433.7,754.3,433.7,762.6,433.7z"/>
	<path d="M723.3,433.8c-3.9,0-7.8,0-11.7,0v-0.1c3.9,0,7.7,0,11.6,0C723.2,433.8,723.3,433.8,723.3,433.8z"/>
	<path d="M850.7,434.7c-0.6,0.4-1.1,0.7-1.8,0.5C849.5,435,850.1,434.9,850.7,434.7L850.7,434.7z"/>
	<path d="M850.8,434.8c0.8-0.1,1.5-0.2,2.3-0.4c0,0.1,0,0.2,0,0.3C852.3,434.7,851.5,434.7,850.8,434.8L850.8,434.8z"/>
	<path d="M693.8,434.9c0.2-1,0.6-1.4,1.7-1.6C695.4,434.3,695,434.8,693.8,434.9z"/>
	<path d="M948.2,265.3c-1,5.5-4.8,10.1-6.3,15.5c0.1-5.8,3.8-10.5,4.7-16.1C947.1,264.9,947.6,265.1,948.2,265.3z"/>
	<path d="M948,310.5c-2.4-4.7-4.6-9.5-4.3-15C944.8,300.7,946.3,305.6,948,310.5z"/>
	<path d="M941.6,282.8c0.8,1.2,0.6,2,0,3.2C940.2,284.7,940.4,283.8,941.6,282.8z"/>
	<path d="M952.6,290.6c0.7-0.5,1.4-0.6,2.1-0.1c0.2,0.8-0.2,1.1-0.8,1.2C953.1,291.9,952.6,291.5,952.6,290.6z"/>
	<path d="M942.9,288c1.3,0.4,1.5,1,1,1.8C943.1,289.6,942.9,289.1,942.9,288z"/>
	<path d="M949.2,290.2c0.2-0.8,0.6-1.1,1.3-0.8c0.2,0.1,0.4,0.7,0.3,0.8C950.4,290.6,949.9,290.8,949.2,290.2z"/>
	<path d="M940.2,350.4c-0.4,3.1,0.6,5.1,1.7,7.5C938.7,356.3,938.2,354.4,940.2,350.4z"/>
	<path d="M997.1,345.4c0.4-1.3,1.1-1.3,2.1-0.6C998.7,346.2,998,346,997.1,345.4z"/>
	<path d="M980.5,354.5c-0.8,0.5-1.6,0.7-2.6,0.3C978.8,354.4,979.7,354.5,980.5,354.5L980.5,354.5z"/>
	<path d="M839.4,493.8c0-0.2-0.1-0.5,0-0.7c2.6-4.3,1.4-9.1,1.5-13.7c0-0.6,0.1-1.2,1.5-1.5c0,5.1,0.7,10-1.3,14.8
		C840.8,493.5,840.1,493.7,839.4,493.8L839.4,493.8z"/>
	<path d="M839.4,493.8c0,1.8,0.6,3.6-0.7,6C837.4,497.1,837.8,495.4,839.4,493.8L839.4,493.8z"/>
	<path d="M840.6,466.1c-1.1-0.9-1.4-1.6-0.9-2.8C841.1,463.9,841.3,464.7,840.6,466.1z"/>
	<path d="M1023,426c-4.9,1.6-9.6,0.7-14.2-0.8C1013.6,424.9,1018.2,426.2,1023,426z"/>
	<path d="M544.7,579.1c3.7,0.8,6.8,2.5,9.8,4.7C550.7,583.3,547.8,580.9,544.7,579.1z"/>
	<path d="M524.9,568.8c0.4,2,0.6,3.3-0.2,4.9C523.3,572.1,523.4,570.8,524.9,568.8z"/>
	<path d="M527.1,567.3c1.6-1.1,2.8-1.4,4.8-0.8C530.2,567.5,528.9,567.6,527.1,567.3z"/>
	<path d="M569.3,582.7c-0.9,1.8-2.4,1.5-4.7,1.2C566.5,583,567.9,582.9,569.3,582.7L569.3,582.7z"/>
	<path d="M510.3,350.2c0.3,1.5,1.9,0.5,2.5,1.5c-0.1,0.3,0,0.8-0.2,0.9c-5.4,2.6-10.8,5.3-17.1,4.5c-2.2-0.3-4.1,0.2-6.1,1.1
		c-3.9,1.7-8.1,2.3-12.3,2.9c1.9-1.9,4.4-2.6,6.8-3.1c2.3-0.5,4.7-0.8,6.7-2.2c0.8-0.5,1.5-0.2,2.4-0.2c3.4,0.1,6.8-0.2,10.2-0.8
		C506.2,354.3,507.8,351.6,510.3,350.2z"/>
	<path d="M499.1,340.2c5.8-1.5,12.1-1.8,15.2-8.7c1.5,2.1,0.9,3.6,0,4.9C512.2,339.4,503,341.9,499.1,340.2z"/>
	<path d="M538.7,277c-0.9,6.5-2.2,12.9-9.4,16.4c0.2-2.1,0.2-3.8,2.8-3.7c1.1,0,1.3-1.2,1.7-2C535.9,284.3,538,281,538.7,277z"/>
	<path d="M487.4,347.9c4-1,7.8-2.1,11.3-4.2C497.3,347.4,493.2,348.9,487.4,347.9z"/>
	<path d="M485.2,348.6c-3,2.5-6.5,3-10.2,2.5C478,348.8,481.6,348.7,485.2,348.6z"/>
	<path d="M521.6,315.1c1.4-3.6,5.8-3.9,7.6-7.6C530.1,310.4,530.1,310.4,521.6,315.1z"/>
	<path d="M408.6,359.4c4.1,1.9,8.3,3.6,13,2.1C418,364.3,412.9,363.5,408.6,359.4z"/>
	<path d="M425.5,365c-2.7,2.8-6.3,3.7-9,2.5C419.6,366.3,422.3,365,425.5,365z"/>
	<path d="M453.9,362.4c2.9-0.7,5.9-1.1,8.9-0.9c0,0.3,0.1,0.7,0.1,1c-3,0.3-6,0.6-9,0.9C454,363,454,362.7,453.9,362.4z"/>
	<path d="M466.3,361.5c3-0.5,5.3-0.5,7.5-1.1C471.8,363.1,470.4,363.3,466.3,361.5z"/>
	<path d="M498,280c0.2,0,0.5,0,0.6,0.2c1.3,2,2.6,4.1,4,6.3C499.3,285.1,497.9,283.1,498,280z"/>
	<path d="M406.4,368.8c2.8,0.4,4.8-2.9,7.8-1.3C411.7,368.3,409.4,370.4,406.4,368.8z"/>
	<path d="M439,361.2c2-0.4,3.9-1.6,6.5-1C443.3,361.9,441.2,361.7,439,361.2z"/>
	<path d="M471.8,352.5c-2.3,1.3-5.1,0.7-7.5,1.4C466.5,352.3,469.2,352.8,471.8,352.5z"/>
	<path d="M520.4,281.8c0.2-2.4,0.4-4.8,0.6-7.3c0.6,2.4,0.6,4.9,0.3,7.3C521,281.9,520.7,281.8,520.4,281.8z"/>
	<path d="M508.8,289.4c-4,0.3-4.1,0.2-4.3-2.8C506.6,286.6,506.7,288.8,508.8,289.4z"/>
	<path d="M510.1,324c-1.6-1.7-2.2-2.9-2.4-5C509.6,320.3,510.4,321.4,510.1,324z"/>
	<path d="M506.2,313.7c-0.9-1.4-0.1-2.6,0.2-3.9C507.6,311.1,506.8,312.4,506.2,313.7z"/>
	<path d="M497.5,339.4c-1,1.4-2.1,0.9-3.4,0.4C495.7,338.7,495.7,338.7,497.5,339.4z"/>
	<path d="M517.3,246.2c-1.2,0.8-2.4,1-3.9,0.4C514.8,245.1,516,245,517.3,246.2z"/>
	<path d="M528.1,291.3c-0.7,2.7-1.8,3.7-4.6,2.9C525.7,294,526.1,292.3,528.1,291.3z"/>
	<path d="M507.5,318.1c-1.5-0.9-1.9-1.7-1.2-3.1C507.9,315.4,508.3,316.2,507.5,318.1z"/>
	<path d="M402.1,366.5c-0.3-1.3-1.9-2.2-0.7-4.4C402.4,363.8,402.8,365,402.1,366.5L402.1,366.5z"/>
	<path d="M516.8,253.3c-1.4-0.4-1.5-1.2-1.7-2.2C516.7,251.1,516.7,252.1,516.8,253.3z"/>
	<path d="M527.4,251.1c1.3,0.7,2.3,1.3,2.7,3C528.6,253.4,527.6,253,527.4,251.1z"/>
	<path d="M404.2,358.7c1.4,0,2.2,0.2,2.6,1.1C405.6,360.5,405.1,359.8,404.2,358.7z"/>
	<path d="M404.2,371.3c-0.4-0.7-1.5-1.2-1-2.3C404.7,369.8,404.7,369.8,404.2,371.3L404.2,371.3z"/>
	<path d="M409.8,363.3c-0.7,0.9-1.3,1.6-2.7,0.7C408,363.3,408.8,363.3,409.8,363.3z"/>
	<path d="M519.8,315.6c1.3,0.8,0.9,1.4-0.1,2.2C519.3,317,519,316.5,519.8,315.6z"/>
	<path d="M489.4,339.5c0.5-0.6,0.9-0.4,1.3,0C490.3,340.6,489.8,340.1,489.4,339.5z"/>
	<path d="M410.1,442.5c-2.7,1.4-5.2,3.1-8.2,3.8c-2.7,0.6-3.9-0.1-4.8-2.9c1.1-0.3,1.5,0.9,2.6,1.1
		C403,443.6,406.4,442.1,410.1,442.5z"/>
	<path d="M421.1,456.7c1.5,4.4,3.3,8.6,5.2,13.1C423,467.1,420.3,460.6,421.1,456.7z"/>
	<path d="M434.9,495.6c1.8,3.8,1.5,7.9,2.3,11.8C434.7,503.8,435.9,499.5,434.9,495.6z"/>
	<path d="M410.3,450.7c-2.2,2.7-4.9,2.6-7.4,3.7C404.8,451.6,406,451,410.3,450.7z"/>
	<path d="M408,435.5c0.5,2.5-1.1,3.9-2.6,5.3C405.4,438.7,406.2,436.9,408,435.5z"/>
	<path d="M399.4,464.1c-0.8-3.3-0.5-5.5,1.6-7.3C400.5,458.9,400,461.1,399.4,464.1z"/>
	<path d="M428.1,549.8c-1.9-1.8-2.2-3.2-1.9-5.2C428.6,545.8,428.6,547.3,428.1,549.8z"/>
	<path d="M429,458.1c1.7,0.7,1.9,2,2,4C429.3,460.9,428.1,460,429,458.1L429,458.1z"/>
	<path d="M414.5,487.8c-1.2-1.4-1.4-2.9-2-4.6C414.5,484.5,414.5,484.5,414.5,487.8z"/>
	<path d="M427.4,542.8c-1.5-0.7-1.4-1.7-0.6-3.1C427.8,540.6,427.9,541.6,427.4,542.8z"/>
	<path d="M435.7,549.4c-1-1-1.3-1.8-0.5-2.7C436.4,547.4,436.1,548.2,435.7,549.4z"/>
	<path d="M421.5,454.9c-0.4-1.3,0-2.1,1.8-2.7C422.9,453.6,422.7,454.5,421.5,454.9z"/>
	<path d="M430.9,484.7c-0.6-0.9-1.1-1.4-0.8-2.2C430.6,482.9,430.9,483.4,430.9,484.7z"/>
	<path d="M421.8,438.5c1-0.7,1.7-0.3,3.1-0.2C423.6,438.9,422.8,439,421.8,438.5z"/>
	<path d="M414.1,443.2c0.3-1.5,1.3-1.4,2.2-2C415.9,442.6,415.1,442.8,414.1,443.2z"/>
	<path d="M435.5,544.3c-0.8-0.6-0.6-1.1-0.6-1.7C435.6,543,435.7,543.5,435.5,544.3z"/>
	<path d="M436,472.6c-1-0.1-1-0.6-1-1.2C436.4,471.3,435.9,472,436,472.6z"/>
	<path d="M432.7,465.2c1,0.3,1.3,0.7,1,1.6C432.8,466.7,432.3,466.5,432.7,465.2z"/>
	<path d="M403.3,421.1c-0.5,1.2-1,1.5-1.7,0.8C401.7,420.8,402.3,421,403.3,421.1z"/>
	<path d="M428.5,477.6c0.4,0.4,0.5,0.7,0.1,1C428.6,478.2,428.5,477.9,428.5,477.6z"/>
	<path d="M294.4,503.6c-3.2,1.9-6.8,2-10.3,2.7C287.5,505,290.9,503.9,294.4,503.6L294.4,503.6z"/>
	<path d="M301.1,501.7c1.2-1,2.8-0.9,4.7-1.7C304.1,501.5,302.5,501.4,301.1,501.7L301.1,501.7z"/>
	<path d="M239.3,520.5c0-1.2,0.3-1.8,1-2.2C240.4,519.4,240.4,519.4,239.3,520.5z"/>
	<path d="M297.9,502.2c-1,1-2.1,1.6-3.5,1.5v0.1C295.4,502.6,296.6,502.2,297.9,502.2L297.9,502.2z"/>
	<path d="M389.6,477.1c1-0.6,1.5-1.2,2.3-0.8C391.4,476.8,390.9,477.1,389.6,477.1z"/>
	<path d="M254.9,514.8c-0.8,0-1.1,0-1.3,0c0.1-0.1,0.2-0.2,0.4-0.2C254.1,514.5,254.2,514.6,254.9,514.8z"/>
	<path d="M238.1,525.2c-0.1,0.6-0.3,0.8-0.9,0.5c-0.1,0-0.1-0.2-0.1-0.3C237.3,524.9,237.6,524.8,238.1,525.2z"/>
	<path d="M357.6,487.7c-0.3,0-0.5,0-0.7,0.1C357,487.3,357.3,487.6,357.6,487.7z"/>
	<path d="M353.1,488.4C353.6,488.4,353.4,488.4,353.1,488.4C353.4,488.3,353.6,488.3,353.1,488.4z"/>
	<path d="M349.6,489.1C350,489.1,349.8,489.1,349.6,489.1C349.8,489,350,489,349.6,489.1z"/>
	<path d="M345.4,489.8C345.6,489.8,345.8,489.7,345.4,489.8C345.8,489.8,345.6,489.8,345.4,489.8z"/>
	<path d="M328,493.3c0.1,0.6-0.2,0.7-0.7,0.7C327.2,493.5,327.5,493.3,328,493.3z"/>
	<path d="M298,502.2c0.9-0.8,2-0.6,3.1-0.6l-0.1-0.1C300,502.2,299,502.2,298,502.2L298,502.2z"/>
	<path d="M265.4,511.8c-0.6,0.1-0.9,0.1-1.3,0.2C264.5,511.5,264.8,511.7,265.4,511.8z"/>
	<path d="M259.2,513.4c0.2-0.4,0.5-0.2,0.8-0.2c-0.1,0.1-0.3,0.2-0.4,0.3C259.4,513.4,259.3,513.4,259.2,513.4z"/>
	<path d="M462.1,294.2c-0.7-5.7,2.2-10.6,2-16.1c1.9,0.1,2.1,1.1,1.9,2C464.6,284.8,463.3,289.5,462.1,294.2z"/>
	<path d="M471.7,320.7c-3.1-3.5-4.8-7.6-5.3-12.2C467.4,312.9,470.4,316.5,471.7,320.7L471.7,320.7z"/>
	<path d="M473.1,322.9c1.5,0.7,2.1,2.1,3,3.4C474.8,325.4,473.4,324.6,473.1,322.9L473.1,322.9z"/>
	<path d="M476.8,302.4c-0.9,1.4-1.6,1.6-2.6,0.4C474.8,301.8,475.6,301.6,476.8,302.4z"/>
	<path d="M462.6,299.8c-1.2-1.2-1.3-2.1-0.6-3.1C463.4,297.3,463.2,298.2,462.6,299.8z"/>
	<path d="M464.7,301.4c0.8,0.5,1.5,0.8,1,1.7C464.8,303.1,464.5,302.6,464.7,301.4z"/>
	<path d="M471,302.6c-0.1-0.7,0.3-1.1,0.9-1c0.3,0,0.6,0.4,0.4,0.8C472.1,303.1,471.6,303.1,471,302.6z"/>
	<path d="M473.1,322.9c-1-0.3-1.4-1.1-1.4-2.1l0,0C472.7,321.2,473.1,321.9,473.1,322.9L473.1,322.9z"/>
	<path d="M529,348.6c-1.5,1.5-3.3,1.5-5.5,1.1C525.3,347.9,527.1,348.3,529,348.6z"/>
	<path d="M525.3,358.7C524.9,358.8,525.1,358.8,525.3,358.7C525.1,358.8,524.9,358.8,525.3,358.7z"/>
	<path d="M536,435.7c-2.9,3.2-6.8,4.6-11.1,4.8C528.5,438.9,532.2,437.3,536,435.7z"/>
	<path d="M561.8,420.7c-1.2,2.1-3.2,2.1-5.1,2.3C558.1,421.5,559.9,421,561.8,420.7z"/>
	<path d="M544.3,426.2c1.4-1.1,2.9-1.2,4.6-1.6C547.3,426.3,547.3,426.3,544.3,426.2z"/>
	<path d="M515.3,442.2c-1.2,1.3-2.4,1.5-4.6,1.1C512.5,442.3,513.6,441.6,515.3,442.2z"/>
	<path d="M403.6,523c-1.1-1.3-1.3-2.8-0.8-4.8C404.1,519.9,404.2,521.3,403.6,523z"/>
	<path d="M404.5,534.3c-1.3-1.7-1.3-2.9-1-4.6C404.5,531.2,404.9,532.3,404.5,534.3z"/>
</g>
</svg>
