<?xml version="1.0" encoding="utf-8"?>
<!-- Generator: Adobe Illustrator 19.1.0, SVG Export Plug-In . SVG Version: 6.00 Build 0)  -->
<svg version="1.2" baseProfile="tiny" id="Layer_2" xmlns="http://www.w3.org/2000/svg" xmlns:xlink="http://www.w3.org/1999/xlink"
	 x="0px" y="0px" width="900px" height="600px" viewBox="144 97 900 600" xml:space="preserve">
<g>
	<path d="M363.8,425.7c-2.5-0.4-1.4-3.1-3-4.5c-0.9,3.8-3.2,6-7,6.6c-3.3,0.5-6.4,2.4-10,0.8c-2.6-1.1-5.5-1.6-7.7-3.5
		c-1.1-0.9-2.4-1.3-3.8-1.4c-2-0.2-3.7-1.1-5.4-2.2c-3.1-2.1-4.1-4.8-2.7-8.4c1.6-4.1,4.3-7.6,7.3-10.7c2.3-2.4,5-0.6,7.9-0.9
		c-0.2-1.5-0.3-3.5-0.7-5.5c-2.1-10.7-4-21.4-6.2-32.1c-1.8-8.7-2.2-17.6,0.8-26.2c2.4-7,1.8-14.3,2.7-21.4c0.3-2.3,0.3-4.7,1.3-6.7
		c1.3-2.4,3.4-4,6.3-4.7c0.2-2.2,1.8-3.5,3.4-4.5c3.4-2.3,6.8-4.2,11.2-4.6c5.1-0.4,10.2-1.4,15.4-1.2c3.5,0.1,6.2-2.2,9.3-3.3
		c2.5-0.9,4.3-1.1,6.3,0.5c0.4,0.3,0.9,0.7,1.9,0.2c-1.5-2.9-1.5-6.2-2.4-9.4c-1.1-4-1.1-8-0.5-11.9c0.6-4.1,0.5-8.2-0.6-12.3
		c-0.9-3.2-1.5-6.5-2.2-9.7c-0.8-3.9-2.1-7.6-4.3-11.1c-2.7-4.2-4.1-8.9-3.5-14.1c2,0.3,2,1.7,2.3,2.8c1,5.3,3.4,10,6.1,14.8
		c2.6-0.9,4.6-2.5,6.1-4.6c1.9-2.7,3.8-5.5,5.4-8.4c2.4-4.4,4.2-9.1,4.7-14.3c0.7-8.5,2.5-16.8,2.9-25.3c0.2-3.1-0.6-6.3-0.9-9.2
		c-0.8-0.6-1.3-0.3-1.6-0.1c-4.9,3.5-10.6,3.7-16.4,3.6c-3.3-0.1-6.6,0.1-9.4,2.3l0.1,0c-7.3,1.2-13.2,4.9-17.8,10.7
		c-1.2,1.5-2.2,3.2-4.4,4.7c0.5-2.9,1.7-4.9,3-6.7c1.2-1.8,2.8-3.5,4.6-4.6c6.1-3.7,12.1-7.5,19.4-8.4c3.2-0.4,6.4,0.1,9.6,0.1
		c2,0,3.7-0.4,5.5-1.4c4.8-2.6,9.7-5.3,15-7.1c0.4-3.2,1.3-6.3,0.4-9.5c-21.6,0-43.2,0-64.8,0c-0.6,3.5-2.9,5.4-5.5,6
		c-5.8,1.2-7.9,4.6-8,10.2c-0.1,7.1-1.1,14.2,0.8,21.2c0.5,1.8,1,3.5,2,5c-1.7,1.8-3.9,2.9-5,5.2c-0.9-1-0.5-1.6-0.1-1.9
		c2.6-1.8,2.7-4,1.8-6.9c-2.5-8.5-2.4-17.2-1.4-25.9c0.5-4.5,3.5-6.7,7.3-8.2c2.4-0.9,4.6-2,6.4-3.9c0.1-4.7-0.1-9.3-4.5-12.4
		c-1.4,1.5,0.7,2.9-0.6,4.2c-1.9-1.4-1.1-4.8-3.9-5.6c-3.9,0.4-1.6,3.9-2.8,6c-1.9-1.5-1.6-3.9-3.1-5.4c-3.8,0.7-0.6,3.8-1.8,5.7
		c-1.8-1.3-1.4-3.3-2-4.9c-1.4-0.4-1.7,0.5-1.8,1.5c-0.2,2.3-1.4,3.9-3,5.5c-2.4,2.3-3,5.1-1.8,8.4c0.8,2.1,1,4.4,0.3,6.6
		c-0.7,2.1-1.3,4.2-1.3,6.4c0,5.4-1.4,10.5-3.3,15.4c-1.5,3.9-2.4,7.8-2.8,12c-0.7,8.1-0.7,16.1,0.6,24c0.7,4.2,2.2,5.7,6.4,5.4
		c6.1-0.5,12.2,0.5,18.2,1c5.9,0.5,11.2-0.4,16.9-2.1c7.6-2.3,12-8,17.5-13.1c-4.3-3.5-10.3-3.8-13.5-8.5c1.2-1.2,2-0.6,2.8-0.1
		c4,2.5,7.9,5.4,12.3,7.3c0.9,0.4,1.7,0.4,2.6,0.4c2.4,0,4.8,0.1,7.2,0.8c-1.5,1.5-1.5,1.5-9.5,0c-5.2,9.7-12.9,15.6-24.2,17.3
		c-8.5,1.3-16.7,0-25-0.5c-2.6-0.2-5.2-0.5-7.9-0.5c-3,0-4.3-1.8-4.9-4.3c-1.2-5-2.1-10.1-2.1-15.3c0-5.2,0.2-10.3,0.6-15.5
		c0.4-5,3-9.5,4-14.4c1.2-5.8,1.9-11.8,3.8-17.5c1-3-1.8-5.1-1.4-7.7c-19.7,0-39.1,0-58.2,0c-1.2,1.5-0.8,2.8-0.8,4
		c0,9.9-0.1,19.8-0.9,29.6c-0.3,3.9-1.4,5.1-5.3,5.3c-2.6,0.1-5.3,0.2-8-1.5c-1-4.2-1-8.8-1.5-13.6c-2.3-1.2-2.8-3.5-2.7-6
		c-0.9,0.2-1,0.8-1.2,1.3c-1,2.5-3,3.5-5.4,2.6c-3-1.1-4-3.1-3.1-5.8c1.4-4.2,2.4-8.6,5.1-12.3c0.9-1.2,1.4-2.6,3.5-2.4
		c-0.1-0.3-0.2-0.5-0.3-0.8c-27.8,0.3-55.6,0.5-83.5,0.8c-2.2-3.4-1.6-6.7-0.7-10.3c28.3-0.3,56.4-0.6,84.6-0.9
		c1.2-4.3,3.1-8.2,2.9-12.8c-0.3-5.8,0.3-11.7,0.7-17.6c0.2-2.4,1.4-3.5,3.5-4c3.2-0.7,6.4-0.5,9.8,1.2c2.1,10.6,1.3,21.7,2.4,32.7
		c21.4,0,42.6,0,63.5,0c3-4,8-5.4,11.7-3.6c0.6-1.2,1.9-1.7,2.9-1.2c2.3,1.1,5,1,6.9,2.9c1.2,1.2,2.6,1.3,4.1,1.3
		c19.1-0.2,38.1-0.3,57.2-0.4c0.9,0,1.8,0.2,2.7-0.4c0.3-2.7-0.7-5.2-1-7.8c-0.5-4.1-0.1-4.8,3.8-5.9c-2.6-7.5-0.6-14.6,1.7-21.6
		c4.4-2,4.5-7.7,9-9.3c1-0.6,1.5,1,2.6,0.7c0.6-0.4,0.1-1.1,0.6-1.6c1.5-1,3.7,1.2,5-1.1c1.5,0.8,2.7,2.4,4.4,1.3
		c1.6,0.8,1.9,2.3,2.9,3.4c3.8,1.6,8.1,2.2,11.4,4.3c1,1.2,0,1.7-0.5,2.4c2.5,2.2,2.8,5.4,5,7.8c1.9,2,1.4,5.3,0.8,8
		c-0.5,2.2-0.7,4.3-0.7,6.5c2.4,2.3,2.9,4.8,1.5,7.8c-0.7,1.5-1.3,2.9-0.8,5c14.5-0.2,29,0,43.6-0.6c3.9-4.3,8.8-4,13.8-3.1
		c0.5,0.1,1.2,0.3,1.5,0.7c1.7,2.1,4.1,2.3,6.5,2.3c13.1,0,26.2-0.2,39.3-0.3c0.9,0,1.8,0,2.8-0.5c0.8-6.2,1.3-12.5,2.8-18.6
		c0.9-3.8,2-7.5,4-10.9c1.5-2.5,3.5-4.2,6.5-4.5c2.6-0.3,5.3-0.3,7.9-0.1c3.4,0.4,5.1,2.8,6.5,5.5c2.8,5.5,4,11.5,4.9,17.5
		c0.5,3.6,0.9,7.3,1.4,10.8c1.4,0.7,2.7,0.4,3.9,0.4c15.2-0.2,30.3-0.3,45.5-0.5c2.4,0,5-0.6,6.1,2.5c1,3,0.6,5.6-2.6,8.2
		c-17.1,0-34.8,0-52.4,0c-1.7,5.5-0.8,10.4,0.5,15.2c0.7,2.6,0.7,5.2,0.3,7.9c-0.5,3.4-2,4.5-5.8,4.5c-0.3,0.6-0.6,1.1-0.9,1.8
		c-3.7,9.1-10.3,8.8-18.2,6.2c-2.2-0.7-3.2-2.9-4.2-4.9c-2.7-5.4-3.9-11.3-4.7-17.2c-0.6-4.2-1-8.4-1.6-12.8c-13.2,0-26.4,0-39.6,0
		c-0.7,2.6-1.8,4.7-3.4,6.5c-1.7,1.8-0.9,4-0.6,5.9c1.1,6.1,2.7,12.1,3.8,18.2c0.5,2.7,2.3,4.7,3.2,7.1c2.4,6.4,3.6,12.9,2.6,19.8
		c-0.8,5.2-1.7,10.4-1.7,15.5c-1.7,1.8-3.8,2.3-5.9,2.2c-7-0.2-14-0.3-21-0.8c-6.7-0.5-14.5-4.3-20.5-9.5c-2.3,5.2-5.6,9.7-8.4,14.6
		c-1.9,3.3-2.3,7.3-2.5,11c-0.4,5.7-1.2,11.4-2.1,17.1c-0.2,1.4-0.3,2.7-0.3,4.1c0,5.3-0.3,10.5-2.9,15.8c2.6-0.3,4.8,0.5,7,0.9
		c3.2,0.5,5,2.5,6.3,5.1c2.6,5.2,3.4,10.4,2.4,16.3c-0.8,4.9,1.2,9.6,3.8,13.9c3.4,5.6,5.5,11.6,4.4,18.3c-0.4,2.4-0.2,4.8,0,7.4
		c7.2,4.7,13.9,10.3,22,13.7c4.2,1.7,7.4,5,10.9,7.8c2.7,2.1,3.2,5.7,4.2,8.8c-0.6,0.8-1-0.4-1.5,0.1c-0.3,0.7-0.2,1.3,0,2
		c2.2,6.9-0.5,12.8-7.3,15.4c-5.6,2.1-11.5,3.3-17.4,3.6c-3,0.2-5.9,0.3-9.1,0.9c0.4,3.2,0.8,6.4,1.1,9.5c0.9,8.2,1.3,16.4,2.7,24.6
		c1.2,6.7,1.6,13.6,1.3,20.6c-0.4,9.5,0.3,19,0.9,28.5c0.3,4.8,0.9,9.6,2,14.3c0.7,2.9-0.2,5.9,1.3,8.7c0.3,0.5-0.2,1.1-1.1,1.4
		c-0.5-2.1-1-4.2-1.5-6.3c-1.5-7.4-2.4-14.9-3-22.5c-0.7-7.7-1.2-15.3-1-23c0.2-6.7,0-13.3-0.8-19.9c-0.6-5.4-2.3-10.7-2.5-16.3
		c-0.2-6.6-0.5-13.3-1.7-20.1c-6.1-0.4-11.9-2.2-18-1.8c-9.1,0.6-17.8-1.2-26.1-5.1c-0.3-0.1-0.6-0.3-1.1,0.1
		c0.4,1.2,1.4,2.1,2.2,3.1c7.4,8.8,14.7,17.6,22.2,26.3c2.3,2.7,4.9,5.1,7.3,7.8c4,4.4,6.4,9.3,6.1,15.5c-0.2,6.4,0.3,12.9,1.9,19.1
		c0.4,1.6,0.5,3.3,0.1,4.8c-1.1,5.4-0.6,10.7,0,16.1c0.1,0.7,0.4,1.6-0.3,2.3c-1-0.5-1.1-1.4-1.2-2.3c-0.8-4.8-1.1-9.6-0.2-14.4
		c0.4-2.1,0.7-4.3,0-6.5c-2-6.2-2.2-12.7-2-19.1c0.1-3.4-0.6-6.4-2.5-9.1c-2.6-3.7-4.9-7.6-8.4-10.8c-2.4-2.1-4.1-4.9-6.2-7.3
		c-1-1.2-1.7-2.7-3.3-3.4c-0.2,0-0.3-0.1-0.5-0.1c-0.2-0.1-0.4-0.2-0.6-0.4c-4.2-4.2-9.1-6.3-15.2-4.7c-1.3,0.3-2.8,0.1-4.1-0.4
		c-1.1-0.4-2.2-1-2-2.5c0.2-1.2,1.2-1.5,2.3-1.7c1.9-0.3,3.8,0,5.7-0.4c-4.5-0.2-9-1.4-13.5,0.9c-1.9,1-3.6,0.1-4-1.9
		c-0.6-3.1-1.4-6.3-1.6-9.5c-0.1-1.5,0.1-3.2,2-3.6c2.1-0.4,2.3,1.4,2.7,2.8c1.6,6.2,5.5,7.9,12.2,5c-3.3-6.2-8.8-10.6-12.5-16.6
		c-1,2.1,0.3,4.8-2.6,5.9c-3.4-2.3-1.8-6.4-3-8.5c1.6,7.2,1.4,15.4,1.5,23.5c0,2.4,2.4,2.9,3,4.7c-1.3,2.1-5.7,3.3-7.4,2.2
		c-1-0.7-1.2-1.6-1-2.7c1.2-7.9,0-15.7-0.3-23.6c-0.1-3.4-0.4-6.8-0.5-10.1c0-1.3,0-2.6-0.7-3.8c0,0.1,0,0.1,0,0.1
		c1.1,6.3,1.2,12.5,1.2,18.8c0,3.3-0.4,6.6,0,9.9c0.2,1.7,0,3.2-1.9,3.4c-1.8,0.2-2.6-1-3-2.7c-0.9-3.3-0.6-6.6-0.7-9.9
		c-0.1-7.1,0.2-14.2-0.4-21.3c-0.3-3.6-2-6.5-4.5-9c-4.7-4.8-9.8-9.4-14.2-14.5c-1.8-2-4-2.2-6.3-1.1c-6.3,2.9-12.3,1.2-18.3-1.1
		c-1.4-0.5-2.7-1.3-3.7-2.6c1.3,4.3,1.5,8.6,0.5,12.8c-1.7,7.5-3.9,14.7-6.6,22c-3.2,8.6-5,18-0.7,27.1c0.6,1.3,0.8,2.9,1.1,4.3
		c0.3,1.7,0.8,3.3,2.4,4.4c1.6-0.4,1.5-1.9,1.8-3c0.5-2.1,1.6-3.2,3.7-3.4c3.4-0.4,6.8-0.9,10.3-0.8c8.8,0.2,17.6-0.9,26.4-1.6
		c3.6-0.3,7.3-0.8,10.8,0.5c0.3,0.3,0.5,0.6,0.6,1c0,3.2-2.7,3.3-4.6,3.4c-11.7,0.6-23.2,2.6-35,2.3c-7.7-0.2-10.9,3.8-9.8,11.5
		c0.1,0.8,0.1,1.6-0.4,2.3C364.1,425.5,364,425.6,363.8,425.7z"/>
	<path d="M855.9,503.4c4.7-5.4,9.7-10.7,15-15.6c5.9-5.5,9.3-12.4,10.7-20.3c0.5-2.9,1.3-5.8,2.1-8.7c0.9-3.3,2.4-6.2,4.8-8.6
		c1.4-1.4,2.3-2.9,2.1-4.9c-0.1-1.3,0.4-2.5,0.8-3.7c4.6-13.1,8.5-26.4,8.5-40.5c0-3.9,0.5-7.8-0.6-11.6c-0.3-1.1-0.6-2.1,0.6-3.1
		c1-0.9,0.3-2.4,0.3-3.6c0-2.1-0.3-4.2,0.9-6c1,0.2,1.1,0.7,1.1,1.1c-0.9,6.7-0.3,13.5,0.2,20.2c1,14.7-3.8,28-8,41.5
		c-1.7,5.3-3.6,10.3-6.8,14.8c-1,1.3-1.3,3.2-1.7,4.8c-1.4,5.7-2.8,11.3-4.8,16.8c-1.5,4.1-3.2,7.9-6.3,10.7
		c-4.6,4.2-8.3,9.2-13,13.2c-1.9,1.6-2.7,3.5-2.5,6c0.4,6.5-0.5,12.9-3,18.9c-1.6,3.9-3.9,7.6-5.8,11.3c-1.2,2.2-2.1,4.3-2,7.1
		c0.1,3-1.3,6-1.7,9.1c-1.3,10.1-3.2,20.2-3.6,30.4c-0.2,4.4-0.7,8.6-2.8,12.9c2.5-0.2,4.5,0.6,6.7,0.9c3.5,0.6,5.3,2.7,6.8,5.6
		c2.5,5.1,3.2,10.2,2.2,16c-0.8,4.7,1.2,9.4,3.7,13.6c3.5,5.8,5.7,12,4.5,18.9c-0.4,2.3-0.2,4.6,0,7c6.9,4.1,12.9,9.8,20.6,12.8
		c4.7,1.8,8.2,5.4,12.2,8.4c2.6,1.9,3.3,5.1,4.1,8.3c-1.1,0-1.5,1.3-2.7,1.2c-1-0.4-0.9-1.3-0.9-2c0.2-3-1.4-4.9-3.6-6.6
		c-4.5-3.4-9.4-6-14.2-8.9c-9.4-5.6-19-11.2-27.6-18.1c-1.5-1.2-3.4-2-5-3c-3.3-2.2-6.3-4.5-8.9-7.8c-11.7,0.6-23.5,0.3-35.3,1.5
		c-8,0.8-15.7,2.3-23.8,4.6c4.5,4.8,8.9,9.6,13.3,14.4c-4.6-2.2-7.2-6.5-10.8-9.8c-0.8,1.3,0.2,2.6-0.5,4.3c-0.9-2-0.8-3.6-0.7-5.5
		c-0.8-0.9-1.7-2-2.7-3c-1.8,0.2-3.5,0.5-5.7,0.7c1.8,2,3.4,3.8,5,5.5c7,7.4,13.9,15,21.7,21.7c2,1.8,2.7,4.4,4.3,6.5
		c-2.3,1.3-4.4-0.3-6.5,0.2c-0.4-1,0.8-2.2-0.3-3.1c-0.8-0.7-2.1-1.2-1.9-2.6l0.1,0.1c-1.2,1-0.7,2.3-0.8,3.5
		c-0.1,1.1,0.2,2.5-2.1,2.3c0-3.2-0.8-6.4-0.1-9.7c-7-8.4-15.7-15.1-22.4-24.3c-11.4,6.1-21.5,4.7-30.2-5c1.4,2.8,2.2,5.6,2.7,8.6
		c0.7,4.2,0.5,8.3-1.3,12.2c-0.6,1.3-0.6,2.7-0.7,4c-0.3,4.9-2.2,9.3-4.8,13.5c-0.3,0.5-0.8,0.8-1.6,0.7c-0.7-1.2-0.1-2.4,0.4-3.4
		c1.6-3.7,2.3-7.7,3.5-11.6c2-6.7,2.4-13.5,0.5-20.4c-0.6-2.3-1.6-4.6-0.4-6.9c-3.3-2.9-7.6-2.9-11.5-5.1c2.2,0,4,0,6,0
		c-2.4-4.1-5.7-6.8-9.8-8.8c-1.8-0.9-3.6-2-3.4-4.9c2.4,1.1,3.1,3.7,5.5,4.6c-1.5-4-3.5-7.7-1.9-12.7c-3.4,2.6-5,5-4.8,8.8
		c0.3,7.2,0.4,14.4-2.2,21.4c-3.5,9.2-2.9,18.5-0.9,27.8c0.7,3.3,1.4,6.7,1.6,10.1c-2.1,0.3-2.3-1.1-2.6-2.3
		c-1.5-7.6-3.3-15.2-3-23.2c0.1-2.9,0.1-5.8,1-8.5c2.6-7.6,2.9-15.5,3.5-23.4c0.2-2.2,0.6-4.3,0.8-6.5c0.1-1.1,0.5-2.1,1.3-2.7
		c5.4-3.7,8.8-9.7,15.4-11.9c2-0.7,4-0.7,6-1c4-0.6,7.9-1.6,12-1c4.3,0.6,7.7-1.9,11.3-3.3c2.6-1,4.5-1.1,6.6,0.5
		c0.3,0.3,0.8,0.3,2,0.8c-1.6-3.7-1.9-7-2.7-10.3c-0.9-3.4-1.1-6.8-0.6-10.2c0.7-5.1,0.5-10-0.7-15c-1.6-6.7-1.4-13.7-1.9-20.5
		c-0.4-4.7-1.5-9-3.3-13.2c-3.1-7.1-4.2-14.6-5.3-22c-0.7-5.4-2.2-10.1-6-14.1c-1.2-1.2-2.4-2.4-3.9-3.3
		c-12.3-7.1-17.6-18.4-19.6-31.9c-0.1-0.9-0.1-1.8-0.7-2.6c-4.7-5.8-8.6-12.1-11.3-19.1c-0.5-1.2-1.3-2.2-2.2-3
		c-1-0.8-1.9-1.9-2-3.2c0-3.6-2.1-6.5-3-9.8c-2.1-7.3-3.7-14.7-4-22.3c-0.3-6.5-0.4-13.1,0-19.6c0.3-4.5-2-8.4-3.7-12.8
		c-18.8-0.3-37.7-0.6-56.9-0.9c-0.2,5.9-0.4,11.6-0.7,17.3c-0.3,5.3-0.5,10.6-0.9,15.8c-0.4,4.4-1.7,5.6-6.2,5.4
		c-2.5-0.1-5.1,0.2-7.3-1.8c-0.9-4.3-0.9-8.8-1.1-13.5c-2.3-1.3-2.6-3.7-2.7-6.7c-1.2,2.1-1.3,4.4-3.8,4.6c-1.9,0.2-3.4-0.5-4.7-1.6
		c-1.2-1-1.7-2.2-1.2-3.7c1.6-4.5,2.8-9.2,5.8-13.2c0.9-1.2,1.7-2.4,3.3-3c-27.8-0.4-55.6-0.9-83.6-1.3c-2.3-3.3-1.4-6.6-0.5-10.4
		c28.2,0.4,56.3,0.9,84.6,1.3c0.9-4,3.4-7.1,3.4-11.5c-0.1-5.8,0.5-11.7,0.9-17.5c0.3-4,0.9-4.6,4.8-5.4c2.5-0.5,4.8,0.2,7.1,0.9
		c1.7,0.5,1.9,2.1,2,3.6c0.9,8.9,0.6,17.9,0.7,26.9c0,0.9,0,1.8,0,3.3c20.5,0.3,40.9,0.6,61.2,0.9c2.1-3.5,6.5-5.2,10.7-4.5
		c2.7,0.4,5.6,1.2,8-0.6c3.1,0.5,3.2,3.5,5.2,5.5c50.9,1,102.1,1.2,153.4,2.5c1-2.7,2.6-3.7,5.5-4.3c3-0.6,5.6-0.4,8.4,0
		c3.1,0.4,5.6,2.1,8,4.8c13.8,0,27.9,0,42.3,0c0.6-3.9,1.1-8.1,1.7-12.2c0.9-5.3,2.3-10.5,4.6-15.4c2-4.2,5-6.2,9.7-6.3
		c8.1-0.1,10.8,1.5,13.5,9.3c2.5,7.1,3.2,14.5,3.7,22c0.1,1.1,0.2,2.2,0.4,3.2c1.2,0.7,2.2,0.4,3.2,0.4c15.9,0.2,31.7,0.5,47.6,0.7
		c3.8,0.1,5,1.2,5,4.8c0,4-1.5,5.6-5.2,5.6c-15.6-0.2-31.3-0.5-46.9-0.7c-1.3,0-2.5-0.2-3.9,0.3c-1.3,4.6-0.7,9.2,0.4,13.8
		c0.6,2.6,0.7,5.2,0.4,7.9c-0.5,4.1-1.9,5.3-6.1,5.3c-0.2,0.5-0.5,1-0.8,1.5c-3.7,7.6-10.8,10-18.4,6.1c-2.4-1.2-3.6-3.5-4.5-5.9
		c-2.6-6.1-3.6-12.5-4.2-19.1c-0.3-3.3-0.5-6.6-0.7-10.5c-12.6,0-25.2,0-38,0c-0.4,2-1.5,4.1-3.9,5.4c1.4-3,3.1-6,1.5-9.3
		c-1.4-2.9-3.1-5.6-4.5-8.2c-1.2-0.7-1.7,0.2-2.5,0.6c-0.5-2-1.7-2.9-3.8-2.4c-0.6,0.7,0.7,1.5-0.1,2.2c-0.3,0.2-0.6,0-0.8-0.3
		c-0.8-1.8-1.6-3.7-4.1-2.3c-0.8,1.3,0.1,2.8-0.4,4.1c-1.5-0.7-0.4-2.4-1.6-3.2c-1.8-0.8-3.3-0.4-3.7,1.8c-0.7,4-1.3,7.8-3.6,11.3
		c-0.9,1.3,0.4,3.1,2.2,3.6c3.5,0.9,5.6,3.4,7.3,6.5c-1.3,6.3-0.6,13-3.1,19.2c-4.3,10.7-7.2,21.8-9.8,32.9
		c-0.5,2.2-1.9,3.9-3.7,5.3c-4.3,3.2-8,7.1-10.4,11.8c-1.5,3.1-3.8,5.9-4,9.9c-0.1,2.6-3,4.2-5.7,4.8c-2.7,0.6-5.2,1.8-7.8,2.7
		c-4.7,1.6-7.4,5.2-10.2,8.8c-0.5,0.6-0.9,1.3-1.5,2.2c1.9,1.9,4.1,3.9,5.3,6.6c-2.7-1.5-4.9-3.5-6.7-5.9c-0.9,0.2-1,0.7-0.7,1.3
		c3.2,5.8,3.5,12.3,3.9,18.7c0.2,3.7,0.6,7.5,0.9,11.3c4.9-2,4.9-2,6.8-1.3c-0.6,1.7-0.6,1.7-6.2,5.7c-0.6,8,3.9,19.1,10.5,25.9
		c5.8-10.7,9.7-22,11-34.1c0.1-0.7,1.3-2.1-0.7-2.3c-0.2,0-0.4,0.1-0.6,0.1C855.7,503.8,855.8,503.6,855.9,503.4z"/>
	<path d="M562.7,512.3c-1.1-3-2.5-5.4-4-7.9c-3.4,0-6.5,0.9-9.6,1.3c-7.3,1-14.6,1.8-21.7,3.4c-14.2,3.2-28.6,5.5-43,7.5
		c-8.7,1.2-17.6,1.7-26.4,2.1c-4.1,0.2-7.8,1.7-11.7,2.6c-3.1,0.7-5.9-0.2-8.9-0.3c-1.9-0.1-2.5-2.5-4.1-3.5c-1-0.6-1.8-0.9-2.9-0.3
		c-0.6-1.3,0.4-2.3,0.2-3.5c6.8-2,13.3-4.4,20.2-5.1c8.9-1,17.7-2.7,26.2-5.4c0.4-0.1,0.9-0.2,1.3-0.2c0.2,0,0.3,0.2,0.6,0.5
		c-0.6,1.8-2.4,1.9-3.9,2.3c-7.6,2.4-15.4,3.5-23.2,4.6c-6.3,0.9-12.2,2.8-18.3,4.6c3.4,4.5,8.2,4.8,12.5,3.5
		c11.5-3.4,23.4-2.6,35.1-3.9c7.9-0.9,15.7-2.1,23.5-3.3c16.5-2.6,32.8-6.5,49.5-8.3c1-0.1,2.1-0.2,3.1-0.9
		c-2.2-2.9-5.8-4.2-7.8-7.3c-4.5,2-9.2,2.5-13.9,2.8c-9.7,0.6-19,3.3-28.5,4.5c-2,0.3-4.1,0.7-6.1,1c-1.4,0.2-2.7,0.3-3.6-1.6
		c14.5-1.9,28.5-5.3,42.9-6.1c3.4-0.2,6.4-1.5,8.9-2.1c8.8,4.1,13.4,10.8,15.8,19.2c-1.8,2.2-4.3,1.7-6.5,2c-5,0.6-10,1.5-14.9,2.5
		c-17,3.4-34.2,5.1-51.3,7.8c-13.7,2.2-27.6,2.5-41,6.4c-3.8,1.1-7.9,1.5-11.8,1.9c-3.1,0.4-3.9-0.8-3.1-4.1
		c0.9,0.3,0.2,0.8,0.1,1.2c-0.1,0.5-0.2,0.9,0.1,1.5c1.4,0.7,3.1,0,4.1-0.6c4.8-2.9,10.4-2.5,15.5-3.9c9.9-2.7,20.2-2.4,30.3-4
		c13.6-2.2,27.2-3.9,40.9-5.5c9.4-1.1,18.5-3.2,27.8-4.6C557.6,512.6,560.1,512.5,562.7,512.3z"/>
	<path d="M455.5,418.1c-0.4,1.8-1.9,1.3-3.1,1.3c-7.1,0.2-14.3,0.1-21.3,0.6c-10.6,0.8-21.3,0.9-31.9,2.2c-2.5,0.3-5,0.6-7.6,0.5
		c-8.3-0.3-16,2.8-24,3.8c-1.2,0.2-2.8,1.1-3.7-0.7l0,0.1c0.4-0.6,0.7-1.3,1.4-1.5c6.6-1.9,12.9-5.1,20.1-5.2
		c8.2-0.1,16.5-1.2,24.7-1.7c13.7-0.8,27.5-1.3,41.3-0.9C452.9,416.6,454.3,417,455.5,418.1L455.5,418.1z"/>
	<path d="M876,473.3c0.1-3.2,1.3-5.8,0.9-8.6c-0.3-2.3-2.7-4.6-0.3-7.8c0.4,3.1,1.3,5.4,2.3,7.7C880.3,468.1,879.5,470.8,876,473.3z
		"/>
	<path d="M385.7,222.1c3.7-3.9,6.6-8,11.9-10C395.9,216.5,390.4,221.1,385.7,222.1z"/>
	<path d="M352.1,203c-4.9-0.7-9.4,0.6-14.4,2.5c2.2-4,8.6-5.6,14.6-4.3C352.8,201.9,352.1,202.5,352.1,203L352.1,203z"/>
	<path d="M320,226c2,1.8,3.5,2.7,5.7,2c1.7-0.5,3.5-1.6,5.7-1.2c-2,2.7-6.8,4.6-9.2,3.8C320.8,230,320.4,229.4,320,226z"/>
	<path d="M353.4,227.1c-0.2,1.5-1.3,2.4-2.6,2.1c-3.6-0.8-7.8,0.2-10.4-3.5c-0.2-0.3-0.5-0.4-0.8-0.7l0.1,0.1
		c2.5-1.5,3.5,1.1,5.4,1.8C347.8,226.9,350.6,226.5,353.4,227.1L353.4,227.1z"/>
	<path d="M887.8,422.8c1.2,1,0.8,2.4,1.8,3.3c1.6-1.9,1.7-4.7,3.6-6.5c-0.1,3.4-1,6.4-3.6,8.8C886.7,426.8,886.4,426,887.8,422.8z"
		/>
	<path d="M842.3,478.1c0.2,0.8,0.5,1.4,1.6,1.3c1-0.1,2-0.3,3,0.8c-1.9,1.8-5,1.1-6.5,3.5C839.1,481,839.6,479.7,842.3,478.1
		L842.3,478.1z"/>
	<path d="M867.4,482.6c1.2,4.9-0.3,8.1-4.6,9.4C864.4,488.7,865.9,485.8,867.4,482.6z"/>
	<path d="M353.5,227.2c1.2-2.1,1.9-4.4,3.4-6.3c0.8-0.9,1.3-2.2,2.9-1.9C359.3,222.6,356.1,226.6,353.5,227.2L353.5,227.2z"/>
	<path d="M393.8,190.3c-2.6-1.2-5-2.8-6.8-4.6c-0.1-1.3,0.6-2.1,1.4-1.8C391.3,184.9,392.9,187.4,393.8,190.3z"/>
	<path d="M367.6,194.6c2.6-2.3,8.4-2.8,13.1-1.3C376.2,195.3,371.6,192.4,367.6,194.6z"/>
	<path d="M434.8,529.5c-2.9-1.3-4.5-4-6.6-6.3C431.8,523.7,433.4,526.5,434.8,529.5z"/>
	<path d="M890,436c-0.5,3.5-2.5,5.4-3.7,8.1C885.5,441,886.5,438.9,890,436z"/>
	<path d="M892,379c-0.4,2.1,0.1,4.2-1,6.4c-1.2-2.2,0.5-5.1-2.3-6.5C890.2,377.5,891.1,378.4,892,379z"/>
	<path d="M480.6,501.4c-1.6-2.6-0.9-5.6-1.1-8.4C481,495.6,480.8,498.5,480.6,501.4z"/>
	<path d="M880.8,442.2c0.7-1.8,1.3-3.4,2-5.3C884.4,439.9,883.6,441.9,880.8,442.2z"/>
	<path d="M327.6,193.3c-0.2,2.3-1,4.3-3.8,5.7C324.5,196.2,326,194.7,327.6,193.3z"/>
	<path d="M840,485.6c3,0.7,4.2,3.3,5.5,5.7C843,490,842.2,487.1,840,485.6z"/>
	<path d="M329.6,170.5c-3-0.2-5.2-0.5-6.5-2.9C325.4,167.7,327.2,169,329.6,170.5z"/>
	<path d="M727.1,672.5c0.6,3.4-0.1,4.1-4.3,3.9C724.4,675,725.8,673.8,727.1,672.5L727.1,672.5z"/>
	<path d="M842.3,478.2c0-1.1-0.1-2.3,0.1-3.4c0.2-1.5,0.9-2.6,3-2.1C844.4,474.6,843.9,476.7,842.3,478.2L842.3,478.2z"/>
	<path d="M481.9,502.7c2.1,0.5,3.3,2.1,4.3,3.8C484.1,506,482.5,504.9,481.9,502.7z"/>
	<path d="M727.2,672.6c0.1-2.2,1.5-4,1.9-6.4C730.5,668.7,729.8,670.6,727.2,672.6L727.2,672.6z"/>
	<path d="M730.2,658.1c0.6,2.5,1.2,4.9-0.3,7.3C729.3,662.9,729.7,660.5,730.2,658.1z"/>
	<path d="M382.5,195.7c0.4,2.5-0.9,3.2-1.9,4.6C380.2,198.2,380.6,197,382.5,195.7z"/>
	<path d="M897.8,379.2c1.4,1.5,1.1,3.2,0.8,5.4C897.3,382.7,897.4,381,897.8,379.2z"/>
	<path d="M730,670c1.7,1.8,2.2,3.5,3.6,4.4C731,674,730.6,673.6,730,670z"/>
	<path d="M889.1,430.4c1.7,1.1,2.1,2.4,0.6,4.4C889.1,433.1,888.5,431.9,889.1,430.4z"/>
	<path d="M398.5,203.4c1.5,0.2,2.3,1.3,3.3,2.1C399.9,206.5,399.1,206,398.5,203.4z"/>
	<path d="M894.3,415.5c-0.4-1.9-0.3-3.8,0.8-6C896,411.9,894,413.6,894.3,415.5z"/>
	<path d="M808.8,679.6c0.6,1.2,1.5,2.3,0.4,3.9C808.1,682.2,808.1,680.9,808.8,679.6z"/>
	<path d="M867.4,480c-1-1.2-1.1-2.3-0.3-3.5C868.1,477.6,868,478.8,867.4,480z"/>
	<path d="M883.3,365.2c1.2,0.3,2.3,0.5,3.7,0.9c-1.8,1.7-3,1.3-4.1,0.1C883.1,365.9,883.2,365.6,883.3,365.2z"/>
	<path d="M852.6,507c0.3-2,1.7-2.9,3.3-3.6c0.1,0.2,0.3,0.3,0.5,0.5C855.1,505,854.6,506.9,852.6,507L852.6,507z"/>
	<path d="M846.9,487.7c1.6-1.4,3-1.3,4.7-1.3C850.3,488.1,849,488,846.9,487.7z"/>
	<path d="M383.1,193.3c1-1.4,2.2-1.7,3.5-2.1C385.9,192.9,385.9,192.9,383.1,193.3z"/>
	<path d="M335.7,161.5c1.5-0.5,2.4-0.9,3.4-1.2C338.5,162.2,338.5,162.2,335.7,161.5z"/>
	<path d="M430.4,518c-0.1,1.8-0.1,3-1.5,3.5C428.2,519.9,428.9,519.1,430.4,518z"/>
	<path d="M341.6,163.4c0.8-1.1,1.8-1.2,3.1-1.3C343.6,163.6,343.6,163.6,341.6,163.4z"/>
	<path d="M841.9,507.5c0.6-1.7,1.4-2.2,3-2.4C844.4,506.7,844.2,508.1,841.9,507.5z"/>
	<path d="M486.9,507.4c1.9,0.8,2.6,1.6,3.1,3C488.3,510.3,487.8,509.2,486.9,507.4z"/>
	<path d="M356.4,210.9c1.6-0.2,2.2,0.3,2.2,1.6C357.3,212.9,356.9,212.2,356.4,210.9z"/>
	<path d="M895.1,378.8c0.7-1.5,1.8-1.6,3.1-2.1C897.5,378.6,896.4,378.6,895.1,378.8z"/>
	<path d="M888.8,422.2c-1.1-1.8-0.5-2.6,0-3.6C890.4,419.7,889.2,420.6,888.8,422.2z"/>
	<path d="M727.6,644.6c-0.7-0.8-0.4-1.6-0.2-2.5C728.6,642.4,728.6,643.1,727.6,644.6z"/>
	<path d="M857,482.9c-0.9,1-1.4,1.7-2.5,1.3c-0.1-0.2-0.3-0.4-0.2-0.6C854.8,482.6,855.6,482.3,857,482.9z"/>
	<path d="M376.7,185.3c1.5,0.5,2.7-1.8,4.6-0.4C379.8,186,378.3,185.7,376.7,185.3L376.7,185.3z"/>
	<path d="M319.3,223.1c1.2,0.8,1.8,1.4,1.1,2.7C319.4,225.2,319,224.6,319.3,223.1z"/>
	<path d="M331.5,168.2c0.6-2.1,1.7-2.7,3.4-3.7C334.1,166.5,333.1,167.2,331.5,168.2z"/>
	<path d="M855.7,464.6c-0.9,1.3-1.6,1.6-2.7,0.8C853.5,464.1,854.4,464.2,855.7,464.6z"/>
	<path d="M729.7,649.5c-1.4-1.2-1.3-2.1-1.1-3.5C729.6,647.1,729.6,648,729.7,649.5z"/>
	<path d="M852.6,506.9c-0.2,1.2-0.4,2.4-1.6,3.3C850,508.3,851.7,507.8,852.6,506.9L852.6,506.9z"/>
	<path d="M888.7,416.9c-0.9-1.2-0.8-2,0.1-2.7C889.4,415.1,889.2,415.9,888.7,416.9z"/>
	<path d="M800.2,675.6c-1.6-1.4-1.5-2.4-1.3-3.8C800.1,672.8,799.6,673.9,800.2,675.6z"/>
	<path d="M846.1,497c0.2,1.4-0.1,2.1-1.1,2.5C844.8,498.2,844.8,498.2,846.1,497z"/>
	<path d="M891.8,389.7c-1.3-0.8-1.3-1.5-0.4-2.5C892.1,388,892,388.7,891.8,389.7z"/>
	<path d="M336.8,224.9c-0.9,0.8-1.8,0.5-3.1,0.1C335,223.8,335.9,224.5,336.8,224.9L336.8,224.9z"/>
	<path d="M339.6,225.1c-1.1,2.3-1.9-0.1-2.8-0.1l0,0.1C337.8,224,338.7,224.8,339.6,225.1L339.6,225.1z"/>
	<path d="M884.4,368.5c1.6,0.1,1.6,1.1,2,2.3C884.9,370.4,884.5,369.7,884.4,368.5z"/>
	<path d="M437.9,522.5c0.7,1.4,0.1,2.1-0.9,2.7C436.6,524.1,436.5,523.3,437.9,522.5z"/>
	<path d="M874.9,438c0.5,1.1,0,1.7-0.8,2.5C873.7,439.3,873.6,438.5,874.9,438z"/>
	<path d="M878.1,454c0.1,0.9,0,1.8-1.2,2.4C876.6,455,876.4,454.1,878.1,454L878.1,454z"/>
	<path d="M329,165c-0.5-1.1-0.6-1.8,0.6-2.4C330.4,163.5,329.9,164.1,329,165z"/>
	<path d="M891,364.8c0.8-1,1.3-0.6,2-0.2C892.4,365.9,891.8,365.6,891,364.8z"/>
	<path d="M895.7,400.1c0.6,1,0.3,1.7,0.4,2.5C895.1,401.9,895.5,401.2,895.7,400.1z"/>
	<path d="M318.5,215.4c1,0.6,1,1.2,0.8,2.3C318,217,318.2,216.3,318.5,215.4z"/>
	<path d="M860,479.6c0.6,1.4-0.5,1.6-0.9,2.3c-0.4-0.3-0.7-0.4-0.7-0.5C858.4,480.3,859.1,479.9,860,479.6z"/>
	<path d="M329.9,159.9c1-0.4,1.8-0.5,1.6,0.7C330.5,161.5,330.3,160.3,329.9,159.9z"/>
	<path d="M899.3,368.3c-0.5-0.8-0.1-1.2,0.4-1.6C900.5,367.6,899.8,367.9,899.3,368.3z"/>
	<path d="M844.8,501.2c0.5,0.7,0.4,1.2-0.1,1.6C843.6,502.3,844,501.8,844.8,501.2z"/>
	<path d="M324.2,159.9c0.7-0.9,1.2-0.7,1.7-0.2C325.4,160.8,324.9,160.4,324.2,159.9z"/>
	<path d="M866,470.5c0.9,0.2,1,0.7,0.8,1.2c-0.1,0.2-0.7,0.3-0.8,0.2C865.5,471.6,865.5,471.1,866,470.5z"/>
	<path d="M315.8,229.8c-0.7-0.3-1.3-0.6-0.7-1.6C315.9,228.4,316.4,228.8,315.8,229.8z"/>
	<path d="M897,364c0,0.5-0.2,0.8-0.7,0.7c-0.3-0.1-0.5-0.4-0.4-0.7C896.2,363.5,896.6,363.6,897,364z"/>
	<path d="M354.8,211c-0.6,0.5-1,0.3-1.2-0.1c-0.1-0.1,0.2-0.8,0.3-0.8C354.3,210.1,354.7,210.3,354.8,211z"/>
	<path d="M352,203.1c0.5,0.2,1.1-0.4,1.4,0.3C352.5,204.7,352.4,203.4,352,203.1L352,203.1z"/>
	<path d="M878.2,454c0.2-0.5,0-1.4,1-1.1C879.5,453.9,878.6,453.8,878.2,454L878.2,454z"/>
	<path d="M889.5,410.1c0,0.7-0.4,1.1-0.6,0.9C888.4,410.6,888.7,410.3,889.5,410.1z"/>
	<path fill="#FFFFFF" d="M439.4,291.7c-1.4,0-2.4,0-3.6,0c-0.6-4.4,1.2-8.6,0.2-13.2c-1.2,4.5-1,8.8-1.9,13.1
		c-8.2,1.6-16.2,2.1-24.1,1.3c-1.5-1.2-1.1-3.3-3-4c-0.7,1.2,0.4,2.6-0.4,3.7c-6.8,1.3-6.8,1.3-13.1-1c-1.6-6.1-3.8-12.1-2.7-18.7
		c1.4-8.7-0.6-17.1-3-25.4c-0.3-1.2-1-2.3-1-3.2c10.6-8.8,17.1-19.4,18.8-33.1c0.9-7.5,1.7-15,1.8-22.5c0.1-3.7-1.6-7.2-1.3-10.9
		c0.7-0.9,1.5-1.4,2.9-1.5c1.5,2.4,3.1,4.9,4.6,7.5c4.8,8,11.7,12.5,21.1,12.7c1.1,0,2.3,0.3,3.4,0.5c3.8,0.5,6.7-0.9,8.8-4.1
		c2.6-4.2,4.8-8.6,5.7-14c1.5,2.3,1.3,4.4,1.1,6.5c-0.5,7.3-0.8,14.6-0.3,21.9c0.6,9.3,3.5,18,7.3,26.4c0.9,1.9,1.8,3.7,2.6,5.6
		c0.7,1.5,1.4,2.9,2.9,3.5c-0.6,9.2-2.9,18-4.1,26.9c-0.4,2.7-0.2,5.5-0.3,8.2c0,1.3-0.1,2.5-0.5,3.7c-1,2.4-1.9,4.8-1.6,7.5
		c-6.1,2.2-12.2,2.3-18.5,2.3c0.7-2.6,1.7-4.9,2.9-7.1c-0.2-0.1-0.4-0.2-0.6-0.3C442.1,286.6,440.8,289.1,439.4,291.7z"/>
	<path fill="#FFFFFF" d="M402,350.7c1.2-2,0.1-3.4,1-4.8c3.5,3.4,6.2,7.5,10.7,9.8c-4.4-4.7-8.8-9.5-13.4-14.4
		c5.5-1.5,10.6-2.9,15.8-4.2c2.3-0.6,4.5,0.6,6.8,0.1c12-2.4,24.2-1.5,36.4-2c6.3,7,14.8,11.1,22.2,16.6c5,3.8,10.6,6.9,15.9,10.3
		c1.8,1.2,3.7,2.3,5.7,3.2c5.1,2,9.1,5.7,13.5,8.9c0.6,0.5,1.4,1.2,1.5,1.8c0.5,5,3.1,9.8,1.3,14.9c-0.9,2.6-3.2,3.4-5.3,4.2
		c-10.3,4.2-21.1,4.9-32.1,4.5c-1.9-0.1-2.5-1.8-4.5-1.9c-5.2-0.3-10.3,0-15.5,0.2c-6.4,0.3-12.3-1.2-18.1-3.3
		c-2-0.7-3.5-2.2-4.8-3.8c-4-4.6-8.6-8.6-12.7-13.1c-1.7-1.9-3.4-3.7-4.5-6c-0.5-1.1-1.3-1.9-2.1-2.7c-9.5-8.3-17.9-17.8-27.1-27.5
		c2.5,0.7,4.3,0.3,5.8-0.1C402.3,343.3,401.5,346.9,402,350.7z"/>
	<path fill="#FFFFFF" d="M472.3,324c-0.4,2.5-0.5,5-0.4,7.5c0.1,2.4-0.8,3.9-3.2,4.5c-1.2,0.3-2.4,0.8-3.7,1.3c-1.4-1.1-3.3-1.8-4-4
		c-11.9,1-23.7-0.1-35.7,1.1c-11.6,1.2-22.8,3.9-34.2,5.7c-2.1,0.3-3.8,1.8-5.9,2.4c-8.8,2.8-15.4,1.1-22.1-6.2
		c1.9,0.6,3.4,1.1,4.9,1.5c0-0.1,0.1-0.2,0.1-0.3c-1.7-0.9-3.4-1.8-5.1-2.6c-3.1-1.6-5.4-4.1-7.6-6.7c-1.3-1.6-2.5-3.3-3.8-4.9
		c-1.5-1.8-2.9-3.5-4.5-5.2c-1.6-1.7-1.4-4.3-3.3-6.2c2.4-3,0.2-7.8,4.4-10.2c0.3,0.7,0.4,1.1,0.7,1.7c4.3-7.1,11.9-4.3,17.8-6.7
		c0,1.3-1.3,1.5-1.4,2.6c2.4-0.2,4.1-2.6,6.9-2.4c-1.4,2.4-3.5,4.1-4.5,6.5c-0.9,2.3-2,4.6-0.3,7.2c0.3-4.1,1.6-7.6,4.2-10.7
		c1.6-1.9,3.5-3.1,5.9-3.8c2.8-0.8,5.1-3,8.5-3.5c2.5,1.4,5.6,2.4,8.3,4.3c1.2,0.8,2.6,1.9,3.7-0.2l-0.1,0.1
		c0.5,0.4,1.1,0.8,1.8,1.4c1.7-1.7,4.4-0.2,6.1-2.2c0.8,0.8,1.5,1.4,2.4,2.2c4.8-1.5,9.6,0.8,14.6,0.4c-1.4-1.2-3.3-1.1-4.8-2
		c3.6-0.6,7.2-0.3,10.6-1.5c0.3,0.8,0.5,1.3,0.7,2c0.7-0.4,1.2-0.7,1.8-1.1c0.7,0.8,1.6,0.4,2.1,0.5c-0.5,0-1.4,0.1-2.1-0.4
		c0-0.3-0.1-0.8,0.1-1c1.5-1.7,5.9-1.3,7.1,0.7c1.2-0.4,1.6-2.6,3.4-1.4c0,0.4,0,0.8,0,1.2c0.2,0.1,0.4,0.3,0.6,0.3
		c4,0.3,8-0.2,12-0.8c1.5-0.2,2.9-0.6,2.2-2.8c1.5,0.7,0.5,2.6,2.4,2.6c1.7-0.5,0.8-2.9,2.8-3.8c3-0.3,6.6,0.2,8.9,2.4
		c2.4,2.2,4.2,5.5,4.1,9.2c0,1.1,0,2.3-0.1,3.4C474,312.1,473.1,318.1,472.3,324c-2.1,2.7-3.6,5.8-6.1,8.2
		C468.7,329.8,470.1,326.6,472.3,324z"/>
	<path fill="#FFFFFF" d="M455.6,418.2c-11.6-0.2-23.1-0.2-34.7,0.4c-12,0.6-24,1.7-36.1,2.1c-3.5,0.1-7.1,0-10.4,2.6
		c-1.8,1.4-4.8,1.1-7.3,1.5c-1.1,0.2-2.3,0.3-3.3,0.9c0.5-2-0.8-3.5-1.3-5.3c1.1-3.3,2.2-6.7,3.3-10c10.7-0.8,21.4-0.5,32-1.9
		c3.8-0.5,7.5-0.5,11.3-0.8c1.5-0.1,3.9,0.6,4.2-2.2l0.3-0.1l-0.2,0.2c-13.5,0.7-26.9,2.3-40.5,2.3c-2.9,0-5.7,0.2-8.5,1.2
		c-1,3.4-1.9,6.7-2.9,10c-0.6-0.2-0.9-0.2-1-0.3c-1.3-4.1-5-7.1-4.7-11.9c0.1-2-0.8-3.8-3.1-4.5c0.9-2.1,0.7-3.9,0.3-5.9
		c-0.6-2.7,0.1-5.4,0.4-8.2c0.8-6,2.1-11.7,4.9-17.4c3.3-6.5,4.1-14,4.8-21.3c0.4-4.1-0.6-8.4-3.1-12.3c8.8,9.4,18.8,11.3,30.3,5
		c6.6,9.1,15.3,15.9,22.2,24.1c-0.1,7.4,0,14.7,0.6,22c0.1,1.6,0,3.2-0.1,4.8c-0.5,4.8,0.1,8.4,1.7,10.7c0.4,0,0.6-0.4,0.6-0.7
		c-1-9.9,0.9-19.9-0.4-29.9c-0.1-1-0.2-2.1,0.8-2.8l-0.1-0.1c-0.2,1.9,2.1,2,2.4,3.9c-1.3,5,0,10.3,0.5,15.6
		c0.5,6.6,0.7,13.2,0.8,19.8c0,0.7-0.8,0.8-0.9,1.4c2.1,0,4.1,0,6.9,0c-1.8-1.2-3.3-0.4-4.8-1.3c0.7-11.2-0.4-22.5-1.9-34.5
		c5.8,3.5,2.5,9.8,5.6,13.5c0.7-2.8,0-5.7,0.2-9c6.5,8,12.7,15.5,19.1,23.4c-5.5,1.9-11-0.1-16.4,0.8c-1.5-3.3-1.4-6.7-2.4-10
		c-1.8,4.8,1.1,9.1,1,13.6c1.9,0.1,1.1-1.5,2.1-2c5.6-0.6,11.4,0.3,17.6,0.2c0.7,0.5,1.4,1.5,2.3,2.7c-4.4,0.9-8.6,1.1-12.9,1.5
		c4.8,2.2,9.8-0.8,14.9,0.7C451.6,413.2,454.2,415.2,455.6,418.2z"/>
	<path fill="#FFFFFF" d="M460.4,218.9c-0.6,0.3-1.2,0.6-2,1.1c-1.3-4.3-2-8.6-2.3-13.3c4-0.9,7.6-2.5,10.5-5.6
		c-3.4,1.3-6.8,2.8-10.8,1.4c-0.3-6.6-0.3-13.5,0.6-20.4c5.7,2.1,11.5,1.1,17.3,1.5c4,0.3,7.2,1.7,10.1,4.4c3.9,3.6,6.9,8,10.5,11.8
		c1.9,2,3.8,3.5,6.5,4c2.8,0.5,5.4,1.7,7.9,3.1c0.5,1.6,0.2,3.3,1.3,4.6c1.4-4.2-0.6-7.5-6.2-10.1c2.2-10.3,0.4-20.7,0.1-31.4
		c-4.4-0.9-5.5-6.1-10.2-7.6c5.8-1.8,5.8-5.9,4.8-10.3c0.9-0.8,1.7-1.4,2.3-1.9c1.2-0.3,1.5,0.7,2.5,1c0.5-1.5,1.4-2.6,2.6-2
		c1.8,1,1.1,3.1,2.9,3.3c0.2,0.4,0-0.2,0.1,0.2c0,0.1,0,0-0.2-0.2c0.4-1,0.4-2,0.2-3c2.2-0.2,3.1,1.1,3.6,2.7c0.5,1.5,0.8,3,2.6,4
		c0.4-1.7-1.5-2.5-1.2-3.9c1.1-0.6,1.6,0,2.2,0.9c0.8,1.1,0.4,2.7,1,3.5c3.2,4.1,1.6,7.5-0.9,11.1c-1.8,2.6-1.7,5.9-1.3,9
		c1.2,8.8,3.6,17.1,7.6,25.1c2.9,5.7,2.7,12.2,2.2,18.6c-0.1,1.3-0.3,2.5-0.4,3.8c-0.1,1.4-0.7,2.1-2.1,2.1l-0.1-0.2l0.2,0.1
		c-4.4,1.2-5.3,1.1-9.4-1.9c-1.6,1.3-1,2.8,0.1,3.8c3.2,3,6.4,0.7,9.9-0.3c0.2,2,0.3,3.8-0.3,5.5c-0.9,0.8-1.9,0.7-2.8,0.7
		c-7.4-0.3-14.9-0.4-22.3-0.9c-7.1-0.5-13-3.9-18.3-8.5c0.5-0.9,1.7,0,2.1-0.9c-0.2-1.1-1.8-0.5-2.1-1.9c2.2-0.7,5-0.8,7-3.5
		c-3.2,0.8-6,0.4-8.7,0.4c-3.8,7.2-4.4,15.8-11,21.8c-2.5-5.5-5.1-11-7.5-16.6c-0.5-1.1-0.6-2.5,0.8-3.4
		C460.5,220.3,460.5,219.6,460.4,218.9c1.4-1.3,2.6-2.8,3.1-4c0.6-0.9-0.2-0.6,0.2-0.6c0.1,0,0.1,0.1,0,0.3
		C462.7,216.2,461.7,217.7,460.4,218.9z"/>
	<path fill="#FFFFFF" d="M414.1,172.7c0.2-1.8,0.5-3.6,0.7-5.4c0.3-2.8,1.1-5.6,0-8.3c1.2-0.7,1.7,0.1,2.3,0.3c1,2.2-0.5,4-0.6,5.7
		c0.8,1.6,2,0.6,2.8,0.7c0.9,1.3,0.9,3.2,2.4,4c1.2,0.2,1.1-1.1,1.8-1.5c1.2,1.8,2.7,3.2,4.1,4.7c2.4-0.5,1.7-3.4,3.5-4.1
		c2.1,0.1,2.3,1.8,2.8,3.3c0.8,0,1.4,0,2.1,0c0.9-0.9-0.2-2.4,1.2-3.2c0.9,0.7,0.3,1.9,0.9,2.9c0.9-1.2,2.6-1,3.6-2
		c1.2-1.2,1.3-2.9,2-4.3c0.6-1.3,0.9-2.7,1.6-4.1c0.1,3.6-2.1,6.9-1,11.1c3-2.9,2.4-6.7,3.9-9.6c0.8-0.7,1.6-0.5,2.4-0.5
		c12.6-0.2,25.3-0.3,37.9-0.5c4.1-0.1,6.9,2,8.9,5.1c1.3,2,3.3,2.7,4.9,4.3c0.8,9.9,1.2,19.9-0.1,29.8c-1.7,0.4-3-0.3-4.5-0.4
		c-3.9-5.1-7.5-10.6-12.4-15c-3.1-2.9-6.6-4.6-10.8-4.7c-3.4-0.1-6.9-0.2-10.3,0.2c-2.7,0.3-4.9-0.4-7-2c-2.8-2.1-5.6-4.1-8.6-5.7
		c-0.9-0.5-1.9-1.6-3.1,0.1c0.4,1.8,2.4,1.8,3.9,3.4c1.3,5.2-1.2,9.8-4.4,14c-3,4.1-7.7,3.4-12.1,2.7c-7.1-1.2-12.4-5.1-16.4-11
		c-1.7-2.5-3.5-4.8-5.5-7.4C412,174.4,413.4,173.9,414.1,172.7c0.2,0.1,0.3,0.2,0.3,0.2C414.4,173,414.4,173,414.1,172.7z"/>
	<path fill="#FFFFFF" d="M342.9,307.9c-1.3,4.4,0.9,8.1,2.2,12c-2.3-0.8-3-3.4-5.3-4.6c-0.6,2.7,1.2,3.8,2.8,4.6
		c3.6,1.9,6.9,4.1,9.2,7.5c0.3,0.4,0.9,0.8,0.7,1.6c-1.8,0-3.5,0-5.7,0c3.7,2.2,8.1,2.2,11.3,4.9c-0.9,3.4,0.4,6.7,1.2,10
		c1.4,6.5,0.2,12.7-1.6,18.9c-2.8,9.8-6.2,19.5-7,29.8c-0.2,3,1.1,5.8,0.5,9c-1.9,0.4-4.1-2-5.7,0.9c-0.7-2,0.2-4-1.5-5.2
		c-0.7,1.6,0.2,3.6-2,5.2c-0.8-4.2-1.7-8.1-2.1-12.1c-0.4-4-1.2-7.9-2.1-11.9c-1.7-7.8-3.1-15.8-4.2-23.7
		c-0.9-6.4,0.8-12.4,2.8-18.2c2.2-6.5,2.1-13.1,1.9-19.7C338.4,312.8,339.6,310.1,342.9,307.9z"/>
	<path fill="#FFFFFF" d="M562.4,161.7c1.7-0.7,2.9-0.5,4.2-0.3c0.5,1.4,0.8,2.7,1.4,4c0.7,1.7,2,2.3,3.8,2.4c1.8,0.1,2.8-1,3.4-2.4
		c2.4-6.5,2.4-13,0.1-19.5c-0.6-1.6-1.7-2.3-3.5-2.2c-1.8,0-3.2,0.5-3.8,2.2c-0.5,1.5-1,3-1.4,4.5c-1.2,0.6-2.3,0.5-3.6,0.1
		c-0.8-2.3,0.1-4.7,0.3-7c0.4-5.8,1.6-11.6,3.5-17.1c0.8-2.2,1.7-4.3,3.1-6.1c2.2-2.8,4.6-2.8,6.9-0.1c1.8,2.2,2.8,4.7,3.6,7.4
		c3.4,10.7,4.1,21.8,3.8,33c-0.2,8.6-1.1,17.2-3.8,25.4c-0.9,2.6-1.8,5.2-3.5,7.4c-2.3,2.9-4.8,2.9-7.1-0.1
		c-1.1-1.5-1.9-3.1-2.6-4.8C563.8,179.9,563,170.9,562.4,161.7z"/>
	<path fill="#FFFFFF" d="M255.3,200.6c-3,0.3-5.8,1.4-9.1,0.1c-3.2-26.3-2.5-52.6-1.6-79c3.5-1.1,6.5-0.7,9.8-0.5
		C252.9,147.8,253.3,174.1,255.3,200.6z"/>
	<path fill="#FFFFFF" d="M576.6,195.9c5.3-6.7,6.7-14.5,7.7-22.2c1.8-14.4,1.7-28.8-1.7-43.1c-1.1-4.5-2.7-8.7-5.5-12.5
		c5.7-1.2,8.2-0.1,10.6,4.6c2.9,5.7,4.1,11.9,4.8,18.2c1.7,13.9,1.5,27.7-1.8,41.4c-0.6,2.3-1.3,4.6-2.2,6.9
		C585.9,195.2,583.6,196.5,576.6,195.9z"/>
	<path fill="#FFFFFF" d="M348.2,403.3c1.6,0.4,3.2,0.7,5.4,1.3c-1.5,6.5,3,11.2,5.1,16.5c-0.5,2.1-1.8,2.9-3.3,3.6
		c-4.3,1.9-8.7,2.4-13.3,1.7c-1.1-0.2-2.3-0.4-3-1.4c-1.7-2.1-4-3-6.5-3.4c-1.1-0.2-2.2-0.5-3.2-1.1c-3.9-2.3-4.4-4.2-2.4-8.2
		c2.1-4.2,2.6-4.8,5.1-6.1c0.9,0,0.1,1,0.3,1.1c1.4,0.4,2-0.8,3.3-0.4c1.2,1.1,2.5,2.5,3.9,3.7c1.7,1.5,3.6,1.3,4.4-0.8
		C344.8,407,346.7,405.3,348.2,403.3z"/>
	<path fill="#FFFFFF" d="M239.3,156.9c0.4,1.3,0.2,2.9,0,5c-28,0-55.7,0-83.8,0c-0.8-1.2,0.3-2.8,0.3-5
		C183.6,156.9,211.2,156.9,239.3,156.9z"/>
	<path fill="#FFFFFF" d="M347.6,160.3c-0.3-1.3-0.3-2.9-1.2-4.9c22.1,0,43.7,0,65.6,0c1,1.6,1,1.6,0.5,4.9
		C391,160.3,369.4,160.3,347.6,160.3z"/>
	<path fill="#FFFFFF" d="M257.2,161.7c-0.2-2-0.4-3.5,0.1-5.5c21.5,0,43.1,0,64.9,0c0,0-0.3,0.2-0.5,0.5c-2,4.2-5.6,4.5-9.7,4.5
		c-16.8,0-33.7,0.3-50.5,0.5C260.1,161.7,258.8,161.7,257.2,161.7z"/>
	<path fill="#FFFFFF" d="M595,158.2c-0.2-1.6-0.3-3.1,0.1-5.1c17.5,0,35.1,0,53.3,0c1,1.2,0.9,2.9-0.5,5.1
		C630.5,158.2,612.9,158.2,595,158.2z"/>
	<path fill="#FFFFFF" d="M518.6,153.7c17.3,0,34.4,0,51.4,0c0.7,2.3,0.7,2.3,0.1,4.7c-0.8,0.7-1.7,0.4-2.6,0.4
		c-14.9,0.2-29.9,0.3-44.8,0.5C519.5,159.3,518.4,157.9,518.6,153.7z"/>
	<path fill="#FFFFFF" d="M449.3,159.4c-0.1-1.7,0.8-3.1,1.7-5c15.2,0,30.4,0,45.7,0c1.5,3.7,0.7,5-3.2,5.1c-14,0.1-28,0.3-42,0.4
		C450.7,159.9,450,160,449.3,159.4z"/>
	<path fill="#FFFFFF" d="M482.4,349.2c-5.1-3.2-9.6-7.1-15.3-9.9c0.8-0.4,1.2-0.7,1.6-0.8c5.3-1.7,5.8-2.3,5.4-7.8
		c-0.3-4.3,1.4-8.2,1.4-12.5c0.8,3.8,2.9,6.8,4.6,10c2.1,3.9,3.4,8.3,3.1,12.9C483,343.7,482.7,346.3,482.4,349.2z"/>
	<path fill="#FFFFFF" d="M238.9,166.4c1.3,2.3-0.1,12.7-2,17.1c-1.8,1-3.3,0.5-4.6-0.8c-1.3-1.3-0.6-2.8,0.2-4.1
		C235,174.8,235.9,170.3,238.9,166.4z"/>
	<path fill="#FFFFFF" d="M255.9,188.7c-0.5-18.4-1.3-36.8,0.1-55.3c0.2,6.3,1.1,12.6,0.4,18.8c-0.3,3.1-1.8,6.4-0.9,9.3
		c2.6,8.2,0.7,16.6,1.3,24.9c0.1,0.8,0,1.6,0,2.4C256.5,188.7,256.2,188.7,255.9,188.7z"/>
	<path fill="#FFFFFF" d="M568.1,150.2c0.3-1.8,0.7-3.5,1.9-4.9c3.7,3.8,3.9,15.5,0.3,20.4c-1.6-1-1.7-2.5-1.9-3.9c0.8-1,2-0.3,3-1.2
		c1.5-2.7,0.7-5.9,0.6-8.7C570.9,150.3,569.3,151.2,568.1,150.2z"/>
	<path fill="#FFFFFF" d="M572.8,165.6c1.6-6.8,1.8-13.5-0.4-20.7C576.4,149.8,576.5,160.7,572.8,165.6z"/>
	<path fill="#FFFFFF" d="M409.9,151.4c-0.3-3.6-1.8-6.8-1.6-10.2c1-0.7,1.9,0,2.8-0.2c1,2.8,1.6,5.7,1.8,8.5
		C412.3,150.9,410.2,149.6,409.9,151.4z"/>
	<path fill="#FFFFFF" d="M430.9,121.3c1.4-0.3,1.5,0.8,2.3,0.8c0.5-0.3,1.1-0.7,1.8-1.1c0.8,1,1.5,1.9,2.9,3.6
		c-2.4-1.4-3.3,0.3-5,0.6c-1-1.3-3-0.3-4.4-1.7C429.3,122.7,431.7,123.5,430.9,121.3z"/>
	<path fill="#FFFFFF" d="M591.3,185.7c0.8-3.7,1.6-7.4,2.4-11.1c0.2,3.9,1.4,8-1.2,11.4C592,185.9,591.7,185.8,591.3,185.7z"/>
	<path fill="#FFFFFF" d="M344.6,405.4c-1.3,1.1-2.4,2-3.4,3c-1.4-1.2-1.7-2.5-1-4.1C341.6,404.6,342.9,405,344.6,405.4z"/>
	<path fill="#FFFFFF" d="M241.3,166.5c0-4.5,0-9,0-13.5c0.8,4.5,0.9,9,0.8,13.5C241.8,166.5,241.6,166.5,241.3,166.5z"/>
	<path fill="#FFFFFF" d="M439.7,123.1c0.9-0.4,1.8-0.7,2.9-1.2c-0.4,0.7-0.7,1.2-0.9,1.6c0.2,1.1,1.4,1.5,1.8,2.7
		C441,126.8,441.2,123.7,439.7,123.1z"/>
	<path fill="#FFFFFF" d="M451.6,148.1c-0.4-2.5,0.2-4.4,0.9-6.3C453,143.9,453.3,145.9,451.6,148.1z"/>
	<path fill="#FFFFFF" d="M242.5,179.4c0.2,1.5,0.3,3,0.5,5C241.4,182.7,242.3,181,242.5,179.4z"/>
	<path fill="#FFFFFF" d="M426.2,119.4c1.3-0.2,2.3,0.3,3,1.4C427.5,120.8,427.5,120.8,426.2,119.4z"/>
	<path fill="#FFFFFF" d="M422.2,128.7c0.7-1.2,1.5-1.6,2.7-1.4c0.5,0.9-0.2,1-0.6,1.3C423.6,129.1,423,129.4,422.2,128.7z"/>
	<path fill="#FFFFFF" d="M423.5,122.1c1.6,0.9,1.6,0.9,0.8,2.9C423.5,124.2,423.6,123.2,423.5,122.1z"/>
	<path fill="#FFFFFF" d="M438.9,394.2c-1.1-0.4-1.8-1.3-2.8-2.8C437.7,392.2,438.8,392.7,438.9,394.2z"/>
	<path fill="#FFFFFF" d="M451.3,293.5c-1,0.7-1.8,0.7-2.7,0.8c-0.3-0.4-0.3-0.7,0.1-0.8C449.5,293.2,450.2,292.9,451.3,293.5z"/>
	<path fill="#FFFFFF" d="M415.7,150.9c0.9,1.1,1.4,2,1.5,3.2C416.4,153.4,415.5,152.6,415.7,150.9z"/>
	<path fill="#FFFFFF" d="M415.7,370.6c-0.6-0.4-0.9-1-1.1-1.9c1.4,0.3,1.9,1.4,2.9,2C416.6,371.6,416.2,370.6,415.7,370.6
		L415.7,370.6z"/>
	<path fill="#FFFFFF" d="M398.3,296.8c-0.9-0.5-1.5-1.1-1.2-2.4C398.8,294.9,397.9,296.1,398.3,296.8L398.3,296.8z"/>
	<path fill="#FFFFFF" d="M424.8,150.3c0.7,0.9,0.5,1.8,0.4,3C424,152.2,424.9,151.2,424.8,150.3z"/>
	<path fill="#FFFFFF" d="M423.2,131.9c0,1.6-0.7,1.8-2,1.2C421.8,132.4,421.9,131.3,423.2,131.9z"/>
	<path fill="#FFFFFF" d="M433.1,134.5c0.4,1.2,0.9,1.9,0,2.9C432.4,136.6,432.6,135.8,433.1,134.5z"/>
	<path fill="#FFFFFF" d="M242.2,171.1c0,0.5,0,1.1,0,1.6c0,0-0.1,0-0.1,0C242.1,172.2,242.1,171.7,242.2,171.1
		C242.1,171.1,242.2,171.1,242.2,171.1z"/>
	<path fill="#FFFFFF" d="M420.2,117.9c-1,0.3-1.3-0.3-1.8-0.7C419.2,116.7,419.7,116.9,420.2,117.9z"/>
	<path fill="#FFFFFF" d="M451,132.2c0-0.4,0-0.9,0-1.3c0,0,0.1,0,0.1,0c0,0.4,0,0.9,0,1.3C451,132.2,451,132.2,451,132.2z"/>
	<path fill="#FFFFFF" d="M426.9,134.1c-0.2-0.9,0.2-1.2,0.6-1.5C428.1,133.3,428.1,133.8,426.9,134.1z"/>
	<path fill="#FFFFFF" d="M442.6,131.6c-0.4,0.6-0.7,1.2-1.3,0.5C441.3,130.9,442.2,131.7,442.6,131.6z"/>
	<path fill="#FFFFFF" d="M427.9,168.2c-0.7-0.2-0.5-0.8-0.5-1.3c0.7-0.3,0.8,0.2,0.9,0.6C428.4,167.7,428.3,168,427.9,168.2z"/>
	<path fill="#FFFFFF" d="M444.2,294.6c0.4-1.1,1-0.7,1.6-0.5C445.5,295.2,444.7,294.4,444.2,294.6z"/>
	<path fill="#FFFFFF" d="M418.9,372.7c1,0.6,1.4,0.9,1.3,1.5C419.4,374.4,419.5,373.7,418.9,372.7z"/>
	<path fill="#FFFFFF" d="M447.1,121.8c-0.1,0.1-0.3,0.3-0.4,0.3c-0.4-0.1-0.4-0.4-0.2-0.7c0.1-0.1,0.3-0.1,0.5-0.2
		C447,121.4,447,121.6,447.1,121.8z"/>
	<path fill="#FFFFFF" d="M445.3,118.8c-1.1-0.1-1.3-0.3-1.3-0.9C444.6,117.8,444.6,118.3,445.3,118.8z"/>
	<path fill="#FFFFFF" d="M449.1,147.9c0.5,0.5,0.3,1-0.1,1.7C448.6,148.9,448.6,148.4,449.1,147.9z"/>
	<path fill="#FFFFFF" d="M438.3,134.6c-0.9-0.1-1.1-0.4-0.6-1C438.5,133.5,438.2,134.2,438.3,134.6z"/>
	<path fill="#FFFFFF" d="M787.2,480.9c-1.7-5.2-5.5-8.6-9.6-11.7c-3.6-2.7-7.5-4.7-12-5.9c-2.7-0.7-5.1-2.4-7.7-3.7
		c-1.2-4.6-3.8-8.3-6.8-11.8c-2-2.3-3.3-5.4-5.7-7.3c-2.6-2-4.3-4.5-5.3-7.4c-2.2-6.3-5.3-12.2-8-18.2c-1.7-3.7-3.2-7.4-5.1-10.9
		c-4-7.5-6.8-15.5-8.3-23.9c-0.4-2.3,0.2-4.1,2.5-4.4c4.5-0.7,7.7-2.4,6.7-8.3c49.8,0.7,99.1,1.5,147.9,2.2c1.2,0.7,1.3,1.5,1.4,2.1
		c0.1,2.5,1.7,3.6,3.8,4.3c4.8,1.6,5.6,3.3,5.2,8.1c-0.7,7.6-2.6,14.9-5.2,22c-1.1,3-3.1,5.5-4,8.7c-1.4,5.4-3.3,10.6-3.4,16.4
		c-0.1,3.3-3,5.3-5.6,7c-5.4,3.4-8.5,8.6-11,14.2c-1.1,2.6-2.1,5.3-3.1,7.9c-18.5,5.9-19,11-22.9,16.6c-1.5,0.4-3,0.9-4.3,1.3
		c-1.6-1-1.8-2.1-1.5-3.7c0.9-4,1.5-8.4,3.8-11.7c2-3.1,2.5-6.5,4.1-9.6c1.3-2.5,0.5-5.4-1.6-7.2c-0.7-4.1,1.5-7.9,0.8-12
		c-0.7-4.1-4.7-6.3-5.5-10.4c-0.4-0.7,1-1.1,0.1-2.3c-1.5-1.4-3.8-1.9-6-2.6c-3.1-1-6.5-1.5-7.9-5.4c-2,0.7-3.5,0.2-4.7-1.1
		c-1.5,1.7-3.3,0.5-4.9,0.8c-1,0.2-0.3,1.2-0.8,1.7c-1.1,0.5-1.7-1.1-2.8-0.9c-2.4,2.2-4.1,5.3-6.3,7.4c-4.1,3.8-4.2,8.3-5.2,13.1
		c-0.8,3.8-0.2,7.1,0.9,10.4c-4.2,1.6-4.6,2.2-3.9,6.6c0.3,2,0.7,4.1,1.1,6.1c0.4,2.2,1.6,3.5,3.9,3.1c1.2,1.7,1,3.6,1.1,5.6
		c0.1,5.3-1.1,10.5-0.8,15.8c0.6,10.2,7.2,18.6,17.9,20.6c3,0.6,6.1,0.8,9.2,1.1c2.4,0.2,4.3-0.7,5.4-2.9c3.2-6.5,6.2-13.1,4.5-20.8
		c1.8,4.2,3.7,8.4,3.7,13c-0.2,8.6,0.5,17.3,1.8,25.8c1.4,9.7,5.9,18,13,25.1c-1.2,7.7-2.4,15.5-4,23.3c-1.1,5.7-2,11.5-1.8,17.4
		c0.1,1.4-0.1,2.7-0.6,4c-1,2.3-1.8,4.6-1.4,7.3c-8,2.5-15.9,2.2-23.8,2.7c-0.9-4.5,1.1-8.4,0-12.6c-1.3,4.1-1,8.1-1.8,12.2
		c-8.1,1.8-16.2,1.9-23.9,1.4c-1.7-1.2-1.2-3.4-3.1-4.1c-0.7,1.2,0.3,2.5-0.4,3.7c-4.4,1.4-8.7,1.2-13.2-1
		c-1.4-5.9-3.9-11.7-2.7-18.3c1.1-5.9,0.4-11.9-0.9-17.8c-1.6-7.3-2.2-14.7-1.6-21.8c3.3-4.2,7.9-2.5,12.1-3
		c-1.1-2.3-3.3-1.8-4.9-2.5c2-3.9,5.1-7.1,6.2-11.2c3.6-13.2,8.4-26.3,8.5-40.3C788.6,482.4,789.2,480.9,787.2,480.9L787.2,480.9z"
		/>
	<path fill="#FFFFFF" d="M809.9,602.9c0-0.3-0.1-0.8,0.1-1c1.5-1.7,5.9-1.3,7.2,0.6c1.1-0.1,1.1-1.8,2.3-1.6c1.1,0,1.2,0.6,1,1.4
		c3.6,0.8,8.8,0.5,14.2-0.8c1-0.4,0.4-1.6,1.1-2.3c0.8,0.8,0.1,2.3,1.8,2.5c1.7-0.5,1-2.8,2.6-3.8c3.1-0.5,6,0.9,8.7,1.7
		c5.1,5.4,5.5,11.5,3.8,17.9c-1.1,4.3-0.8,8.9-1.9,13.2c-2.1,2.6-3.6,5.8-6.1,8.1c2.5-2.4,4-5.5,6.1-8.2c-0.4,2.5-0.5,5-0.4,7.5
		c0.2,2.4-0.8,3.9-3.2,4.5c-1.2,0.3-2.4,0.8-3.7,1.3c-1.5-1.2-3.5-1.9-4.2-4.1c-9.1,0.8-18.1-0.6-27,0.3c-10.1,1.1-20.4,1.5-30.3,4
		c-3.5,0.9-7.1,1.8-10.8,2.1c-3,0.2-5.3,2-7.9,3c-5.9,2.4-11.3,0.7-16.6-1.4c-2-0.8-3.4-2.9-4.9-4.8c1.5,0.5,3.1,1,4.6,1.4
		c0-0.1,0.1-0.2,0.1-0.3c-1.8-0.9-3.5-1.9-5.4-2.8c-2.9-1.3-4.9-3.7-6.8-6c-2.2-2.6-4.1-5.5-6.6-7.9c-2.5-2.5-3.7-5.7-5.2-9.2
		c2.1-2.7,0-7.5,4-9.8c0.6,0.5,0.2,1.2,1,1.4c4.1-6.8,11.7-4,17.7-6.4c0,1.3-1.3,1.5-1.4,2.6c2.4-0.2,4.1-2.6,7-2.4
		c-2.9,4.2-6.9,7.9-5.3,13.7c1.1-0.3,0.9-0.9,0.9-1.4c0.1-0.4,0-0.9,0.1-1.4c0.6-5.4,4.9-10.1,10-11.9c2.6-0.9,4.9-2.8,8-3.5
		c2.7,1.5,5.8,2.5,8.5,4.4c1.2,0.8,2.6,1.9,3.7-0.2l-0.1,0.1c0.5,0.4,1.1,0.8,1.8,1.4c1.7-1.7,4.4-0.2,6.1-2.2
		c0.8,0.8,1.5,1.4,2.4,2.2c4.8-1.5,9.6,0.8,14.6,0.4c-1.4-1.3-3.4-0.9-5.6-2.4c4.4-0.1,7.9-0.1,11.4-1.1c0.2,0.7,0.4,1.2,0.6,1.9
		C808.8,603.6,809.3,603.2,809.9,602.9c0.7,0.7,1.7,0.3,2.1,0.4C811.5,603.4,810.6,603.5,809.9,602.9z"/>
	<path fill="#FFFFFF" d="M785.8,480.8c0.5,0,1,0,1.4,0.1l-0.1-0.1c-1.3,13.6-5,26.6-9.5,39.4c-1.8,5.1-3.4,10.2-7.5,14.4
		c-0.8,0.5-2-0.7-3,0.2c-1.1,0.8,2,2.7-1.1,3c-5.7-11-7.6-23-9-35.4c2.9,0.5,5.2,2.2,7.9,3.7c0.1-1.5-0.7-2.2-1.6-2.6
		c-5.2-2.4-9.5-5.7-12.8-10.4c-1.1-1.6-2.6-2.8-4.4-3.8c-8.2-4.3-13-11.4-15.7-20c-1.1-3.5-2.2-7-3.1-10.6
		c-1.1-4.2-3.9-7.4-6.3-10.9c-0.3-0.5-0.8-0.8-0.8-1.4c0.4-0.3-0.2,0,0.2-0.1c0.1,0,0,0-0.1,0.2c-1.6-1.4-2.4-3.2-2.9-5.3
		c-0.9-3.7-2-7.4-5.9-9.4c0.2-4.3-1.7-8.2-3.2-12.1c-3-8-3.5-16.3-3.4-24.7c0.1-4.5,0.4-9,0.1-13.4c-0.3-4.4-0.9-8.8-3.7-12.5
		c-0.4-5.7,4.5-9.5,5.1-14.8c2.3,0.3,2.4,2.9,4.3,3c0.9-1.3-0.8-1.8-0.6-2.9c1-0.4,2.1-0.6,3-0.6c1.4,0.7,1.4,2.5,2.9,3.1
		c1.3-0.8-0.5-1.8,0.3-2.7c1-0.4,1.9-0.1,2.7,0c1.5,1.2,1.4,3.2,3.1,4.1c0.9-1.8-1.2-3.1-0.8-4.9c3.1,0.3,3,3.3,4.3,5
		c1.4,1.9,1.7,4.2,1.3,6.6c-0.4,2.3-1.1,4.6-0.7,7c-1.9,1.1-3.8,1.2-5.5,1.7c-2.7,0.8-4.4,2.8-4,5.6c1.2,7.7,3.1,15.2,6.7,22.2
		c5.2,10.1,10.3,20.2,13.6,31.1c1,3.5,2.8,6.5,6.1,8.4c0.9,0.5,1.7,1.2,2.3,2.1c3.5,5,7.3,9.8,10,15.2c1,1.9,2.7,2.8,4.3,3.8
		c2.3,1.5,4.7,2.8,7.3,3.9c6.8,2.8,12.8,6.6,17,12.9C784.4,479.7,785.2,480.2,785.8,480.8c-1,0.8-1.3,2.1-2.4,2.8
		c-1.3,0.9-1.2,1-0.6,3.5C780.7,483.7,785.2,483.2,785.8,480.8z"/>
	<path fill="#FFFFFF" d="M945.9,370.9c1.4-0.3,2.5-0.3,3.6,0c1,1,0.9,2.4,1.3,3.5c0.7,2.1,2.3,2.8,4.2,2.8c1.9,0.1,3-1.2,3.5-2.8
		c1.8-6.1,2.2-12.2,0.4-18.3c-0.5-1.8-1.6-2.9-3.7-2.9c-2.2,0-3.5,0.9-4.1,2.9c-0.4,1.2-0.7,2.4-1.1,3.7c-1.1,0.7-2.4,0.5-4,0.1
		c0.8-9.9,1.9-19.8,6.9-28.7c2.7-4.8,6.3-4.6,9,0.3c3.2,5.9,4.1,12.4,4.8,18.9c1.5,13.8,0.8,27.5-2.6,41c-0.9,3.6-2.1,7-4,10.2
		c-2.9,4.6-6.2,4.6-8.8-0.1c-3-5.4-4-11.4-4.8-17.5C946.1,379.9,945.4,375.5,945.9,370.9z"/>
	<path fill="#FFFFFF" d="M879.7,361.9c0.9,4.5,0.3,5.3-4.1,5.3c-26.2-0.4-52.4-0.9-78.6-1.3c-21.4-0.3-42.7-0.6-64.1-0.8
		c-1.2,0-2.5,0-4,0c-0.3-1.9-0.6-3.5-1-5.5C778.8,360.2,829.3,360.7,879.7,361.9z"/>
	<path fill="#FFFFFF" d="M628.9,323.6c3.5-1.7,6.5-0.8,9.8-0.4c-1.9,26.3-2.5,52.6-1,78.8c-2.5,1.1-4.8,1.2-9,0.4
		C625.9,376.2,627.4,349.8,628.9,323.6z"/>
	<path fill="#FFFFFF" d="M792.6,479.5c0.2-1.8,0.5-3.6,0.7-5.4c0.3-2.8,1-5.6,0-8.3c1.1-0.8,1.7,0,2.3,0.2c1,2.1-0.4,4-0.6,5.7
		c0.8,1.6,1.9,0.7,2.8,0.7c0.9,1.3,0.9,3.2,2.4,4c1.2,0.2,1.1-1,1.7-1.4c1.4,1.6,2.8,3.1,4.1,4.6c2.5-0.5,1.8-3.3,3.6-4.2
		c1.8,0.3,2.5,1.6,2.6,3.4c0.9,0,1.5,0.1,2.1,0.1c1-0.9-0.1-2.4,1.2-3.3c1,0.7,0.2,2.1,0.9,2.9c4.6-3,4.6-3,7.3-11
		c0,4-2,7.1-1.4,10.5c0.2,1,1.1,0.6,1.6,0.9c0.6,0.6-0.5,1.3,0,1.9c3.2,3.7,1.2,7.6,0.4,11.4c-0.1,0.6-0.4,1.1-0.6,1.6
		c-2.5,7-5.5,8.3-12.8,6.6c-7.5-1.7-12.8-5.9-16.8-12.1C792.5,485.8,791.5,482.7,792.6,479.5c0.2,0.1,0.3,0.2,0.4,0.3
		C792.9,479.7,792.7,479.6,792.6,479.5z"/>
	<path fill="#FFFFFF" d="M961,327.9c6.6-0.8,8.7,0.2,11,5.6c2.7,6.2,3.7,12.7,4.2,19.4c1.2,14.3,0.5,28.4-3.7,42.2
		c-0.5,1.6-1.2,3.2-1.9,4.8c-2.6,5.5-5.2,6.8-11.6,5.8c5.9-7.2,7.4-15.9,8.6-24.6c1.7-13.5,1.8-27-1.1-40.4
		C965.5,336.2,964.2,331.8,961,327.9z"/>
	<path fill="#FFFFFF" d="M622.8,357.8c0,1.9,0,3.5,0,5.5c-28-0.4-55.8-0.8-83.5-1.2c-0.8-2-0.2-3.5,0.1-5.4
		C567.2,357,594.9,357.4,622.8,357.8z"/>
	<path fill="#FFFFFF" d="M640.5,363.6c-0.2-2-0.4-3.5,0.2-5.5c20.3,0.3,40.8,0.6,61,1c0.4,0.8,0.2,1.3,0,1.6
		c-0.7,1.2-1.4,2.3-2.3,3.8C679.9,364.2,660.3,363.9,640.5,363.6z"/>
	<path fill="#FFFFFF" d="M978.3,369.1c-0.4-2.3-0.4-3.9,0-5.4c17.7,0,35.3,0,52.6,0c1.9,2.1,1.6,3.8,0.7,5.4
		C1013.8,369.1,996.2,369.1,978.3,369.1z"/>
	<path fill="#FFFFFF" d="M953.7,363.1c0.4,2,0.5,3.5-0.2,4.9c-15.8,0-31.6,0-47.4,0c-1.1-2-2-3.7-3.2-5.8
		C920.1,362.5,936.8,362.3,953.7,363.1z"/>
	<path fill="#FFFFFF" d="M853.9,625c0.8,3.7,2.8,6.6,4.6,9.8c2.2,4.1,3.6,8.7,3.2,13.5c-0.2,2.4-0.7,4.8-0.5,7.8
		c-5.4-3.5-10-7.3-15.5-10.4c7-0.5,7.3-4.9,6.8-10.2C852.2,632.1,853.9,628.7,853.9,625z"/>
	<path fill="#FFFFFF" d="M623,368.5c-1.3,5.4-0.7,11-3,16.2c-1.8,1.3-3.4,0.7-4.7-0.6c-1.2-1.3-0.7-2.7,0.1-4.1
		c1.6-3,3.1-6.1,4.7-9.1C620.7,369.8,620.9,368.5,623,368.5z"/>
	<path fill="#FFFFFF" d="M638.9,356.1c-0.3,3.4-0.6,6.9,0.9,10.1c0.3,0.6,0.2,1.3,0.2,2c-0.2,7.2-0.5,14.4-0.7,21.7
		c-0.9,0-0.7-0.8-0.7-1.1c-0.1-10.2-0.1-20.4-0.1-30.6C638.6,357.5,638.9,356.9,638.9,356.1L638.9,356.1z"/>
	<path fill="#FFFFFF" d="M953.2,375.4c-1.2-1.4-1.5-2.8-1.7-4.2c0.9-0.8,1.9-0.2,3-1c1.5-2.8,1-6.1,0.8-9c-1.1-1.3-2.5-0.6-3.7-1.4
		c0.2-1.8,0.6-3.6,2-5C957.2,359.5,957,371.1,953.2,375.4z"/>
	<path fill="#FFFFFF" d="M639,356.2c-0.2-7.2-0.1-14.3,1.2-21.5c0,6.4,0,12.8,0,19.2C640.2,355,639.8,355.6,639,356.2L639,356.2z"/>
	<path fill="#FFFFFF" d="M955.7,375.5c2-6.8,2.5-13.5,0.5-20.3C960,358.7,959.7,371.7,955.7,375.5z"/>
	<path fill="#FFFFFF" d="M791.4,456.6c-1.1,1-2.9-0.6-2.8,2c-0.6-3.8-1.8-7.1-1.8-10.5c1-0.9,1.8,0,2.8-0.4
		C790.6,450.6,791.1,453.6,791.4,456.6z"/>
	<path fill="#FFFFFF" d="M625.6,352.2c0,5.5,0,10.9,0,16.5C623.8,366.7,623.9,357.4,625.6,352.2z"/>
	<path fill="#FFFFFF" d="M813.5,427.7c1,1.3,1.6,2.1,2.5,3.2c-1.6-0.2-2.9,0-3.8,1.6c-1.5-1.6-3.4-1-4.9-1.9
		c0.9-0.7,1.8-1.5,3.1-2.4C811,428.6,812.3,429.4,813.5,427.7z"/>
	<path fill="#FFFFFF" d="M973.9,396c0.9-3.8,1.7-7.4,2.5-11C977.6,391.3,976.9,394.7,973.9,396z"/>
	<path fill="#FFFFFF" d="M625.6,372.2c0,4.5,0,9,0,13.4C624.2,381.2,625.9,376.8,625.6,372.2z"/>
	<path fill="#FFFFFF" d="M820.1,430.5c0.6,0.8,1.3,1.5,2,2.4c-2.6,0.6-2.6-2.2-4.7-2.7c1.4-0.6,2.3-1,3.2-1.4
		C821.4,429.6,819.8,429.7,820.1,430.5z"/>
	<path fill="#FFFFFF" d="M830,455c-0.2-2.7,0.1-4.6,1.1-6.4C831.4,450.7,831.8,452.8,830,455z"/>
	<path fill="#FFFFFF" d="M802.7,432.3c-0.5-1.4-0.9-2.3-0.7-3.4C803.7,429.8,803.7,429.8,802.7,432.3z"/>
	<path fill="#FFFFFF" d="M804.3,426.2c1.8-0.3,2.7,0.5,3.3,1.8C806.5,427.6,805.1,427.9,804.3,426.2z"/>
	<path fill="#FFFFFF" d="M803.5,434.5c-0.6,0.9-1.3,1.7-2.9,1.2C801.3,434.3,802.3,434.1,803.5,434.5z"/>
	<path fill="#FFFFFF" d="M794.2,457.7c0.9,1.1,1.4,2,1.5,3.2C794.9,460.2,794.1,459.4,794.2,457.7z"/>
	<path fill="#FFFFFF" d="M794.2,677.4c-0.6-0.4-0.9-1-1.1-2c1.3,0.5,2,1.3,2.8,2.1C795.1,678.4,794.7,677.4,794.2,677.4L794.2,677.4
		z"/>
	<path fill="#FFFFFF" d="M826.4,601.1c1.3-1.2,2.1-1.2,3.8-0.9C828.8,600.9,827.9,601.1,826.4,601.1z"/>
	<path fill="#FFFFFF" d="M776.8,603.6c-0.9-0.5-1.5-1.1-1.2-2.4C777.3,601.7,776.4,602.9,776.8,603.6L776.8,603.6z"/>
	<path fill="#FFFFFF" d="M803.4,456.9c0.5,1.2,0.6,2.1,0,3.4C802.9,459,803,458.1,803.4,456.9z"/>
	<path fill="#FFFFFF" d="M801.7,438.2c0.2,2-0.5,2.3-1.8,1.9C800,439,800.7,438.7,801.7,438.2z"/>
	<path fill="#FFFFFF" d="M811.4,444.1c-0.3-0.9-0.3-1.6,0.3-2.6C811.8,442.5,812.7,443.3,811.4,444.1z"/>
	<path fill="#FFFFFF" d="M798.4,424.8c-0.6,0-1-0.4-1.5-0.9C797.8,423.7,798.5,423.5,798.4,424.8z"/>
	<path fill="#FFFFFF" d="M829.5,439c0-0.4,0-0.8,0-1.2c0,0,0.1,0,0.1,0C829.6,438.1,829.6,438.5,829.5,439
		C829.5,439,829.5,439,829.5,439z"/>
	<path fill="#FFFFFF" d="M821.2,438.4c-0.4,0.5-0.7,1.2-1.5,0.5C820,437.8,820.6,438.3,821.2,438.4z"/>
	<path fill="#FFFFFF" d="M806.2,439.3c0.3,1,0.1,1.4-0.7,1.6C805,440,805.6,439.7,806.2,439.3z"/>
	<path fill="#FFFFFF" d="M806.2,473.5c0.7,0.4,1,0.9,0.2,1.5C805.7,474.6,805.7,474.1,806.2,473.5z"/>
	<path fill="#FFFFFF" d="M797.8,680.1c0.6,0.1,1,0.4,0.8,1.1C798,681.1,798,680.5,797.8,680.1z"/>
	<path fill="#FFFFFF" d="M827.4,456.5c-0.3-0.8-0.3-1.3,0.2-1.8C828,455.2,827.8,455.7,827.4,456.5z"/>
	<path fill="#FFFFFF" d="M816.2,440.5c0.6,0.2,0.9,0.5,0.7,1C815.8,441.7,816,441,816.2,440.5z"/>
	<path fill="#FFFFFF" d="M825.4,428c0.3,0.4,0.3,0.7-0.2,0.9c-0.1,0-0.4-0.2-0.4-0.3C824.8,428.2,825,428,825.4,428z"/>
	<path fill="#FFFFFF" d="M823.3,425.5c-0.6-0.1-0.9-0.3-0.8-0.8C823.1,424.6,823.3,424.9,823.3,425.5z"/>
	<path fill="#FFFFFF" d="M822.7,601.2c0.5-0.7,1-0.6,1.6-0.1C823.8,601.7,823.3,601.6,822.7,601.2z"/>
	<path d="M432.8,228.9c-1.1-5.7-1.5-11.6-1.6-17.4c-3.7-2.7-4.5-5.3-2.6-7.6c1.6-1.9,4.6-2.1,6.4-0.4c2.2,2,1.7,4.7-1.5,7.7
		C433.2,217,433.9,222.9,432.8,228.9z"/>
	<path d="M445.2,211.3c-5.9,0.5-8-0.5-8.2-3.7c-0.1-2.4,2.1-4.6,4.6-4.5C445,203.1,446,205.4,445.2,211.3z"/>
	<path d="M422.3,208.3c-1.3,0.4-0.5,2.2-2.5,2.2c-0.1-2.7-0.3-5.4,0.5-8c1.4,0,2.7-0.2,3.9,0c2.3,0.4,3.4,2.2,2.1,4
		c-1.1,1.5-0.5,2.6,0,4C423.9,211.3,424,208.4,422.3,208.3z"/>
	<path d="M442.6,228.5c2.6,2.9,3,6.8,6.1,8.9C443.6,236.5,440.3,232,442.6,228.5z"/>
	<path d="M420.8,229.2c-0.3,3.3-3,5.7-7.5,6.9C415.3,233.1,417.4,230.7,420.8,229.2z"/>
	<path d="M423,226.8c0.5-3.5,1.3-6.6,3.2-9.6C427.5,219.9,426.1,223.7,423,226.8z"/>
	<path d="M405.6,223.1c1.6-2.8,1.1-6.4,3.2-9.1C410.3,216.5,408.9,220.7,405.6,223.1z"/>
	<path d="M432.4,248.6c-0.3-3.7-1-7.4,1-11.3C433.8,239.7,433.3,247.1,432.4,248.6z"/>
	<path d="M408.2,206.4c0.9-1.7,1.8-3.1,4-3.1C411.8,205.8,411.7,205.8,408.2,206.4z"/>
	<path d="M432.4,252.5c0.5,2.2,0.8,4.5,0,6.8C431.4,257.1,431.8,254.8,432.4,252.5z"/>
	<path d="M398.4,242c1-0.8,2.1-0.4,3.3-0.4C400.2,242.7,400.2,242.7,398.4,242z"/>
	<path d="M451.2,237.5c1.6,0,2.3,0.7,2.7,1.8C452.6,239.7,451.6,239.5,451.2,237.5z"/>
	<path d="M407.4,240c-0.6,1.2-1.4,1-2.5,0.9C405.6,239.8,406.3,239.5,407.4,240z"/>
	<path d="M396.3,276.9c1.4,0.2,2,0.6,2,1.7C397.3,278.6,397,277.8,396.3,276.9z"/>
	<path d="M456.6,239.2c0.9-0.7,1.3-0.2,1.7,0.4C457.5,240.4,457.1,240,456.6,239.2z"/>
	<path d="M461.9,241.4c-0.7,0.4-1.3,0.4-1.5-0.6C461.2,240.2,461.6,240.7,461.9,241.4z"/>
	<path d="M402.4,284.5c1.2,0.1,1.7,0.7,1.5,1.9C402.6,286.3,402.4,285.6,402.4,284.5z"/>
	<path d="M400.9,282.2c-0.6-0.3-1.1-0.6-1.1-1.4C401,280.6,401.1,281.2,400.9,282.2z"/>
	<path d="M518.1,382c-3.4,3.1-8.1,2-12.1,3.5c0,2.7,1,5.4-0.1,8.6c-1.5-3.2,0-6.5-2-9.3c-4.8-1.1-9.3,1.5-14,1
		c-0.3,2.4,1.1,4.4-0.2,6.8c-0.6-2.4-1-4.3-1.6-6.6c-5.1-0.2-10.3-1.3-15.6-0.4c2.5-1.3,2.9-1.5,6.6-1.1c7.1,0.8,14.1,0.6,21.2-0.6
		c4-0.7,8.2-0.1,12.3-0.9C514.4,382.6,516.2,382.4,518.1,382z"/>
	<path d="M430.2,372.8c1.3,2.1,1.2,4.3,0.9,7C429.9,377.2,429.6,375.1,430.2,372.8z"/>
	<path d="M479.3,388c0.6,1.6,0.3,2.7,0.1,4.6C478.6,390.7,478,389.7,479.3,388z"/>
	<path d="M441.9,383.4c-0.4,0.8-0.7,1.5-1.1,2.3C440,385.5,440.2,385,441.9,383.4z"/>
	<path d="M421.3,368.6c-1.1-1.3-1.4-2.2-0.8-3.5C421.4,366,421.4,367,421.3,368.6z"/>
	<path d="M444.7,382.8c0.7,0.4,1.3,0.8,2.2,1.4c-1.3,0.2-2-0.3-2.6-1c-0.1-0.2-0.1-0.4-0.2-0.6C444.3,382.6,444.5,382.7,444.7,382.8
		z"/>
	<path d="M438.8,378.3c-0.9-0.2-1.4-0.9-2.1-1.9c1.2,0.3,1.9,0.8,2.3,1.6L438.8,378.3z"/>
	<path d="M444.3,383.2c-0.7-0.3-1.4-0.6-1.5-1.6c1-0.1,1.4,0.6,1.9,1.2C444.6,382.9,444.4,383,444.3,383.2z"/>
	<path d="M439.1,378.1c0.8,0.1,1.3,0.6,1.8,1.3c-1.2,0.2-1.6-0.4-2-1.1L439.1,378.1z"/>
	<path d="M467.1,298.1c0.1,4.5,1.8,8.9,0.4,13.6c-1.7-3.8-0.6-8.2-2.4-12.7c-1.2-1.2-3.7-2.4-4.2-5.7c2.8,0.9,3.4,3.7,5.7,4.3
		C466.9,297.7,467,297.9,467.1,298.1z"/>
	<path d="M472.3,324c-0.6,3.4-3.6,5.6-4.2,9c-3.7,1.7-4.4,1.7-6.5,0.2c4.1-1.8,7.6-4.1,9.2-8.5C471,323.9,471.7,324.2,472.3,324
		L472.3,324z"/>
	<path d="M362.7,319.2c3.2,5.5,7.7,9.8,12.8,13.4C369.2,330.1,364.7,325.8,362.7,319.2z"/>
	<path d="M434.7,332.5c0-4,0.2-7.9,0.5-11.9C437,324.5,435.6,328.5,434.7,332.5z"/>
	<path d="M392.2,327.5c-3.8-1.7-6.2-4.5-6.7-7.8C387.5,322.6,390,324.9,392.2,327.5z"/>
	<path d="M379.7,337.2c-4-0.3-7.5-2.1-11.1-3.7c0.1-0.2,0.1-0.5,0.2-0.7c3.7,1.2,7.4,2.5,11.1,3.7
		C379.9,336.8,379.8,337,379.7,337.2z"/>
	<path d="M376.3,322.6c1.1,3,2.5,5.3,4.5,7.8C376.8,328.9,375.5,326.6,376.3,322.6z"/>
	<path d="M383.9,307.5c-0.1,3.4,0.4,6.7,1.3,10.4C382.9,314.6,382.5,311.5,383.9,307.5z"/>
	<path d="M470.6,306.9c1.2,2.8-0.1,4.9-0.1,7C469.2,311.8,468.9,309.6,470.6,306.9z"/>
	<path d="M431.3,296.1c1.4,0.4,2.3-0.6,3.2-1.4c0.9,0.4,1.1,1.2,1.5,1.8C435.6,297.8,433.3,297.6,431.3,296.1L431.3,296.1z"/>
	<path d="M362.3,302.4c0.7,2.2-0.2,3.9-1.6,5.5C360.7,305.9,361.3,304.1,362.3,302.4z"/>
	<path d="M433.1,307.9c0-2.2-1.3-4.4,0-6.9C434.1,303.6,433,305.8,433.1,307.9z"/>
	<path d="M466.3,296.3c-0.9-0.9-2.1-1.6-2.5-3.3c2.1,0.2,2.3,1.7,3,2.9c0,0.2,0.1,0.4,0.1,0.6C466.7,296.5,466.5,296.4,466.3,296.3z
		"/>
	<path d="M463.2,317.4c0.1-1.3,0.3-2.1,1.3-2.7C464.9,316,464.4,316.8,463.2,317.4z"/>
	<path d="M467.1,298.1c-0.2-0.1-0.3-0.3-0.5-0.5c-0.1-0.4-0.2-0.9-0.3-1.3c0.2-0.1,0.3-0.3,0.5-0.4
		C467.2,296.6,468.8,297.1,467.1,298.1z"/>
	<path d="M412.8,411.3c-2.6,1.6-27.6,4.2-35.5,3.5C389.2,414.2,400.8,411.2,412.8,411.3z"/>
	<path d="M365.2,424.1c-0.2-1-0.1-1.8,1.1-2.5C366.5,422.7,366.1,423.4,365.2,424.1z"/>
	<path d="M367.5,418.1c-0.5-1.2-0.3-1.8,0.6-2.2C369.1,416.8,368.3,417.3,367.5,418.1z"/>
	<path d="M413.3,405.6c1.7-0.9,2,0.4,2.7,1.7C414.6,407,414.2,405.9,413.3,405.6L413.3,405.6z"/>
	<path d="M372.2,415c-0.6,0.5-1.1,0.7-1.5,0.1C371.3,414.6,371.8,414.9,372.2,415z"/>
	<path d="M366.5,414c-0.9-0.2-0.7-0.8-0.6-1.4C366.9,412.8,367.1,413.2,366.5,414z"/>
	<path d="M506.1,223.7c-2.7,5.9-8.2,6.9-13.4-0.1C497.2,225.4,501.6,228.1,506.1,223.7z"/>
	<path d="M460.4,218.9c1.5-3.5,2.7-7,5.3-10.2C467.5,212.7,465,216.9,460.4,218.9L460.4,218.9z"/>
	<path d="M471.6,192.9c2.8-0.8,4.7-1.7,4.9-4.4c0-0.6,1.1-1.4,2.5-1.1c-0.9,1.5-1.9,2.8-2.3,4.5
		C476.2,193.9,474.2,194.3,471.6,192.9z"/>
	<path d="M475.1,218.7c-3.2-0.1-3.8-0.4-5.3-3C471.9,215.6,472.6,216,475.1,218.7z"/>
	<path d="M505.4,172.6c1.9,2.1,1.9,3.9,1.7,6.2C505.5,177,504.7,175.4,505.4,172.6z"/>
	<path d="M522.5,226.4c-0.7,0.2-1.4,0.4-1.7-0.8c0.6-1.1,1.2-2.3,1.9-3.7C524,223.7,523,225,522.5,226.4L522.5,226.4z"/>
	<path d="M493.1,200.9c2.6,0.9,1.5,3.1,2.1,4.5C494.3,204.1,492.2,203.3,493.1,200.9z"/>
	<path d="M505.4,160.1c-1.9,2.4-2,2.4-3.7,0.5C502.9,159.7,504.3,160.6,505.4,160.1z"/>
	<path d="M478.7,192.1c2.3-1.3,3.1,0.4,4.2,1.2C481.4,193.5,480,193.7,478.7,192.1z"/>
	<path d="M503.5,167c1.7-0.6,2.4,0.5,3.5,1.3C505.4,168.7,504.1,169.1,503.5,167z"/>
	<path d="M506.1,162.3c1.2,0.9,1.2,1.7,0.6,2.6C505.6,164.3,505.5,163.5,506.1,162.3z"/>
	<path d="M486.9,217.3c0.5-1.4,1.3-1.3,2.3-0.9C489,217.8,488.1,217.6,486.9,217.3z"/>
	<path d="M521.8,220.4c-1-1.1-0.8-1.8-0.2-2.8C522.6,218.6,522.7,219.3,521.8,220.4z"/>
	<path d="M508.8,152.6c0.5,1,1.3,2,1,3.6C508.6,155,508,153.9,508.8,152.6L508.8,152.6z"/>
	<path d="M504.2,155.3c-1.4-1.1-1.4-2-0.9-3.2C504.6,152.8,504.4,153.8,504.2,155.3z"/>
	<path d="M463.8,188c1.2,0.3,2.1,0.4,2.4,1.5c-0.1,0.2-0.3,0.4-0.4,0.4C464.4,190,464.1,189.2,463.8,188z"/>
	<path d="M496.1,209c1.6,0.7,1.8,1.6,1.6,2.9C496.5,211.3,496.2,210.4,496.1,209z"/>
	<path d="M510.5,221.8c-0.7,0.5-1.2,1.6-2.5,1C508.3,221.4,509.5,221.8,510.5,221.8z"/>
	<path d="M511.9,215.7c-0.6-0.8-1.2-1.3-0.4-1.9C512.3,214.1,512.4,214.7,511.9,215.7z"/>
	<path d="M510.9,163.7c-0.4-1.1-0.5-1.8,0.4-2.4C512.2,162.1,511.6,162.8,510.9,163.7z"/>
	<path d="M485.7,197.3c-0.7-0.2-1.2-0.5-1.3-1.2c0.6-0.7,0.9-0.2,1.2,0.1C485.9,196.5,486.3,196.9,485.7,197.3z"/>
	<path d="M467.7,197c0.6,0.6,0.6,1,0.2,1.4c-0.3,0.3-0.7,0.1-0.8-0.2C466.8,197.6,467.2,197.3,467.7,197z"/>
	<path d="M510.4,189.9c-0.3-0.6-0.5-1.1,0.3-1C511.1,189,511,189.5,510.4,189.9z"/>
	<path d="M521.5,215.5c-0.2-1-0.1-1.6,0.6-1.9C522.6,214.3,522.8,215,521.5,215.5z"/>
	<path d="M521.4,207.8c0.5,0.5,0.4,1,0.1,1.5C520.6,208.9,520.6,208.4,521.4,207.8z"/>
	<path d="M508.6,159.8c-0.1,0.4-0.3,0.5-0.7,0.5c-0.4,0-0.6-0.2-0.7-0.6c-0.1-0.6,0.4-0.8,0.9-0.7
		C508.4,159.1,508.7,159.4,508.6,159.8z"/>
	<path d="M511.7,159.2c0.8-0.3,1,0,0.9,0.7C511.8,160.2,511.6,159.9,511.7,159.2z"/>
	<path d="M508.2,181.5c0.6,0.3,0.8,0.7,0.3,1.3C507.7,182.5,507.8,182,508.2,181.5z"/>
	<path d="M460.3,184.9c-1.1,0.5-1.3-0.2-1.7-0.9C459.7,183.6,459.9,184.3,460.3,184.9z"/>
	<path d="M432.3,179.4c-0.9-3.1-2.2-5.2-1.3-7.9C433.8,173.3,433.9,174,432.3,179.4z"/>
	<path d="M414.1,172.7c1.6-0.3,3.2-0.6,4.9,0.2C415.5,175.6,415.3,175.5,414.1,172.7L414.1,172.7z"/>
	<path d="M432.9,180.7c1.1,2.2,0.6,3.4-0.8,5C431.8,183.8,431.7,182.5,432.9,180.7z"/>
	<path d="M438.3,173c2-0.7,2.9,0.2,4.4,1.4C440.8,174.5,439.7,174.4,438.3,173z"/>
	<path d="M433.1,188c0.4,0.4,0.2,0.8-0.2,1.1c-0.3,0.2-0.7,0-0.7-0.4C432.3,188.2,432.6,188,433.1,188z"/>
	<path d="M421.5,172.8c0.3,0,0.6,0.1,0.6,0.5c0,0.4-0.2,0.6-0.6,0.6c-0.2,0-0.5-0.2-0.5-0.3C420.9,173.3,421,172.9,421.5,172.8z"/>
	<path d="M350.8,359.3c1.3,1.5,0.6,2.5,0.2,3.6c-0.6,1.8-1.9,3.2-2.3,5.2c-0.4,1.9-2.4,2-4.8,1.4
		C348.5,367.3,349.3,363.3,350.8,359.3z"/>
	<path d="M351.8,350.8c0.5,2.9,1.1,5.4-0.6,7.7C351.2,356.1,350.9,353.7,351.8,350.8z"/>
	<path d="M352,363.8c1,1.3,2,2.7,3,4c-2-0.5-3.4-1.6-3.7-3.5C351.6,364.1,351.8,364,352,363.8z"/>
	<path d="M343.5,395.4c-1.1-1.2-1.3-2.3-0.2-3.5C343.7,393,344.7,394,343.5,395.4z"/>
	<path d="M349,335.2c1.2,1,1.1,1.8,0.3,3C348.5,337.1,348.5,336.2,349,335.2z"/>
	<path d="M350.3,339.4c0.8,0.8,0.7,1.8,0.8,2.7c-0.9,0.2-0.9-0.4-1.1-0.9C349.8,340.6,349.7,340,350.3,339.4z"/>
	<path d="M343.6,390.4c-0.8-0.7-1.4-1.4-0.6-2.6C344.2,388.5,344.2,389.3,343.6,390.4z"/>
	<path d="M342.8,385.9c-0.6-0.1-0.9-0.5-0.7-1.2C342.9,384.8,343.2,385.1,342.8,385.9z"/>
	<path d="M411.5,148.8c-1.8-2-2-3.6-0.6-5.4C411.8,144.9,411.9,146.5,411.5,148.8z"/>
	<path d="M811.4,535.8c-1.3-5.7-1.4-11.6-1.7-17.5c-0.8-0.4-1.7-0.7-2.4-1.2c-1.9-1.3-2.4-3.9-1.2-5.8c1.2-2,3.9-2.7,6-1.4
		c2,1.2,3,3.9,1.5,5.6c-2,2.3-1.7,4.8-1.7,7.4C812,527.1,812.2,531.4,811.4,535.8z"/>
	<path d="M822.9,518.6c-1.8-0.1-3.2-0.1-4.6-0.3c-2.2-0.4-3.7-2.6-3.4-4.8c0.4-2.1,2.5-3.8,4.7-3.7c2.4,0.1,4.4,2.2,4.2,4.5
		C823.6,515.6,823.2,516.9,822.9,518.6z"/>
	<path d="M804.2,517.4c-2.5,0.4-2.4-2.2-3.8-2.3c-1.7,0-0.7,2.3-2.8,2.2c-0.2-2.7-0.3-5.4,0.5-8c1.4,0,2.7-0.2,3.9,0
		c2.3,0.4,3.4,2.2,2.1,4C803,514.9,803.6,516,804.2,517.4z"/>
	<path d="M825.7,547.7c-2.8,0.7-5.1-0.8-7.5-1.7c-1.1-0.4-1-0.9-0.5-2.8C821,543.8,823.3,545.9,825.7,547.7L825.7,547.7z"/>
	<path d="M812.2,544.6c-0.9,3.4,0.1,7-0.7,10.4c0,0.2-0.3,0.2-0.9,0.6C810.6,551.7,809.9,548.1,812.2,544.6z"/>
	<path d="M794.3,516.3c-1.9,3.6-5.5,5.4-8.1,8.2c-0.2-0.2-0.4-0.4-0.6-0.6c2.7-2.8,5.3-5.6,8-8.4C793.8,515.8,794.1,516,794.3,516.3
		z"/>
	<path d="M791.4,508.9c1.6-1.9,3.5-2.3,5.1-3.3C797.8,508.1,796.7,508.9,791.4,508.9z"/>
	<path d="M792.1,552c1.1-1.9,2.2-3.8,3.4-5.8C796.7,548.3,796.4,548.8,792.1,552z"/>
	<path d="M810.8,559.2c0.6,2.3,0.7,4.6,0.1,6.9C809.8,563.8,810.4,561.5,810.8,559.2z"/>
	<path d="M792.3,512.1c-1.5,1-2.7,1.1-4,1.2C789.6,511.4,789.6,511.4,792.3,512.1z"/>
	<path d="M836.3,550.2c-1.6,0.7-3,0.6-4.6-1C833.8,548.8,835,549.8,836.3,550.2z"/>
	<path d="M783.5,535.5c-0.9,1.1-1.7,1.6-2.7,0.2C781.7,534.4,782.5,534.5,783.5,535.5z"/>
	<path d="M785.1,534.4c0.9-1.2,1.7-1.4,2.7-0.7C787.2,535.1,786.4,535.1,785.1,534.4z"/>
	<path d="M826.3,520.7c1.6-0.3,1.5,0.9,2.4,1.4C827.2,522.4,826.9,521.6,826.3,520.7z"/>
	<path d="M774.8,583.7c1.4,0.2,2,0.6,2,1.7C775.8,585.4,775.5,584.6,774.8,583.7z"/>
	<path d="M840.2,549.6c0.8-0.5,1.2-0.2,1.6,0.2C841.1,550.6,840.8,550.1,840.2,549.6z"/>
	<path d="M782.6,593.1c-1.5,0-1.7-0.7-1.6-1.6C782.4,591.2,782.4,592.1,782.6,593.1z"/>
	<path d="M793.1,528.5c0.3,1-0.3,1.2-0.8,1.3C791.6,528.9,792.3,528.8,793.1,528.5z"/>
	<path d="M790.4,531.4c-0.2,0.6-0.4,1.1-1.4,0.8C789.1,531.3,789.4,530.9,790.4,531.4z"/>
	<path d="M825.7,547.8c0.6,0,1.3-0.3,1.9,0.2C826.8,548.5,826.3,548.2,825.7,547.8L825.7,547.8z"/>
	<path d="M779.6,588.9c-0.9-0.2-1.4-0.5-1.1-1.4C779.3,587.4,779.6,587.8,779.6,588.9z"/>
	<path d="M845.6,604.9c0.1,4.5,1.8,8.9,0.4,13.5c-1.7-3.8-0.7-8.1-2.4-12.7c-1-1.4-4-2.2-4-5.6c2.5,0.8,3.2,3.6,5.5,4.2
		C845.4,604.5,845.5,604.7,845.6,604.9z"/>
	<path d="M850.8,630.8c-0.6,3.4-3.6,5.6-4.2,9c-3.7,1.7-4.4,1.7-6.5,0.2c4.1-1.8,7.6-4.1,9.2-8.5C849.5,630.7,850.2,631,850.8,630.8
		L850.8,630.8z"/>
	<path d="M754,639.5c-6.2-2.6-10.8-6.8-12.7-13.4C744.5,631.5,748.9,635.8,754,639.5z"/>
	<path d="M813.7,627.4c1.9,4,0.5,7.9-0.2,11.9C812.6,635.4,813.8,631.4,813.7,627.4z"/>
	<path d="M747.4,639.6c3.7,1.3,7.4,2.5,11.1,3.8c-4.3,0.4-7.8-1.5-11.4-3.1C747.2,640,747.3,639.8,747.4,639.6z"/>
	<path d="M763.9,626.7c2.2,2.6,4.6,5,6.8,7.7C767.6,632.6,764.9,630.4,763.9,626.7z"/>
	<path d="M759.3,637.3c-3.9-1.6-5.3-3.9-4.5-7.8C755.8,632.5,757.3,634.8,759.3,637.3z"/>
	<path d="M762.4,614.2c0.1,3.3,0.4,6.7,1.4,10.3C761.5,621.5,761,618.4,762.4,614.2z"/>
	<path d="M849.2,620.7c-1.8-3.5-1.8-3.6,0-6.5C850.6,616.4,848.7,618.6,849.2,620.7z"/>
	<path d="M809.9,602.9c1.4,0.4,2.3-0.6,3.2-1.4c0.9,0.4,1.1,1.2,1.5,1.8C814.1,604.7,811.8,604.4,809.9,602.9L809.9,602.9z"/>
	<path d="M739.2,615.6c0.2-3.7,0.2-3.7,1.8-6.7C741.7,611.5,740.4,613.1,739.2,615.6z"/>
	<path d="M811.6,614.7c-0.1-2.1-1.2-4.3,0-7.4C812.5,610.3,811.5,612.5,811.6,614.7z"/>
	<path d="M844.8,603.1c-0.9-0.9-2.1-1.6-2.5-3.3c2.1,0.2,2.3,1.7,3,2.9c0,0.2,0.1,0.4,0.1,0.6C845.2,603.3,845,603.2,844.8,603.1z"
		/>
	<path d="M841.7,624.2c0.1-1.4,0.3-2.1,1.3-2.7C843.4,622.8,842.9,623.6,841.7,624.2z"/>
	<path d="M845.6,604.9c-0.2-0.2-0.3-0.3-0.5-0.5c-0.1-0.4-0.2-0.9-0.3-1.3c0.2-0.1,0.3-0.3,0.5-0.4
		C845.7,603.4,847.3,603.9,845.6,604.9z"/>
	<path d="M785.8,480.8c-0.5,1.8-1.1,3.4-3,4.1c1.5,5.3,1,6.8-2.8,7.7c2.3-3.1,2.4-6.2,1-9.8C783.3,483.4,784.1,481.2,785.8,480.8
		L785.8,480.8z"/>
	<path d="M777.7,478.6c2.1,3.1,1.1,9-1.6,12.4c-1.9-2.1-1.7-3.4,1.6-7.3C777.8,482.2,777.1,480.6,777.7,478.6z"/>
	<path d="M727.2,443.2c1.4-0.5,2.1,0.8,3.1,0.7c2.3-0.2,2.8-2.4,3.9-4.1c0.5,2.6-1.3,5.2-3.7,5.8C728.9,446,728.1,445.5,727.2,443.2
		z"/>
	<path d="M733.9,452.7c-2.3-1.6-4.9-2.6-7.6-4.1c3.4-1.5,5.7-0.3,7.9,3.8C734.1,452.5,734,452.6,733.9,452.7z"/>
	<path d="M709.7,401.2c1.7,2.5,1.9,3.6,1.9,9C710,408.5,709.5,406.5,709.7,401.2z"/>
	<path d="M751.3,490.5c-1.9-1.8-2.4-3.9-1.6-7C751.2,486,751.8,488.1,751.3,490.5z"/>
	<path d="M715.1,387.9c-0.9-2.7-1.9-5.4-2.8-8.2c0.3-0.1,0.6-0.2,0.9-0.3c2.8,2,0.3,6,3.2,8C716,387.6,715.5,387.8,715.1,387.9z"/>
	<path d="M710.3,358.7c-0.4,2.5-3.6,3.3-3.3,6.1C706.5,361.5,706.6,361.3,710.3,358.7z"/>
	<path d="M772.1,475.5c-1.7-0.9-3.2-2-4-3.9C769.9,472.4,771.9,472.9,772.1,475.5z"/>
	<path d="M713.7,418.8c-1.6-1.5-1.4-3.3-1.6-5.5C714.4,415,713.6,417.1,713.7,418.8z"/>
	<path d="M734.2,452.4c1.7,1,3.5,1.9,2.2,4.5c-1.6-1-1.8-2.8-2.5-4.2C734,452.6,734.1,452.5,734.2,452.4z"/>
	<path d="M725.1,437.8c1.3,1.1,2.5,2.2,2.1,4.3C725.2,441,724.8,439.5,725.1,437.8z"/>
	<path d="M723.9,412.7c1.4,1.3,1.4,2.9,1,5.2C723,416.1,723.9,414.3,723.9,412.7z"/>
	<path d="M720.3,446.5c-0.2-3,1.2-2.2,2.8-1.2C722.5,446.9,721.2,446.3,720.3,446.5L720.3,446.5z"/>
	<path d="M725.1,432.2c0-2.1,0-3.4,0-4.6C726,428.8,726.6,430.1,725.1,432.2z"/>
	<path d="M712.9,361.6c-1.1,1.1,0.3,2.8-1.2,4.3C711.6,364.1,712.2,362.8,712.9,361.6z"/>
	<path d="M722.3,403.1c1.3,1.8,1.6,3,1.6,4.9C722.3,406.6,722.3,405.3,722.3,403.1z"/>
	<path d="M743.8,482.5c1.4-0.5,2.4-0.6,3.2,0.2C745.8,483.4,745.8,483.4,743.8,482.5z"/>
	<path d="M775.3,516.1c-1.4,0-2-0.6-2.4-1.5c0.2-0.2,0.3-0.5,0.4-0.5C774.4,514.2,774.8,515,775.3,516.1z"/>
	<path d="M724.9,432.5c0.5,1.6,0.4,2.6-0.9,3.4C723.2,434.5,723.5,433.6,724.9,432.5z"/>
	<path d="M750.4,476.8c-0.8-1.4-0.4-2.1,0.6-2.6C751.8,475.1,751.4,475.8,750.4,476.8z"/>
	<path d="M750.3,481.2c-0.7-1-0.6-1.6-0.1-2.4C751.5,479.5,751.2,480.2,750.3,481.2z"/>
	<path d="M770.7,513c-1.3-0.8-2-1.4-1.7-2.7C770.3,510.6,770.9,511.3,770.7,513z"/>
	<path d="M716,358c0.2,1.6-0.2,2.3-1.8,2.4C714.4,359.4,714.4,358.4,716,358z"/>
	<path d="M711.9,375.6c1.8,0.2,2.8,0.3,3.5,1.7C714,377.7,713.3,376.8,711.9,375.6z"/>
	<path d="M723.4,362.7c1.1-0.8,1.7-0.2,2.3,0.7C724.6,364,723.9,363.9,723.4,362.7z"/>
	<path d="M736.6,459.2c1.1,0.4,1.2,1,0.7,2.1C736.6,460.7,736,460.2,736.6,459.2z"/>
	<path d="M721.5,368.4c-0.5,0.8-0.5,1.7-1.5,1.4C720,369.1,720.4,368.6,721.5,368.4z"/>
	<path d="M767,507.1c1,0,1.1,0.8,1.4,1.4c-0.8,0.5-1.1,0-1.4-0.4C766.8,507.9,766.5,507.5,767,507.1z"/>
	<path d="M721.5,361c0.7,0.7,0.5,1.1-0.3,1.4C720.4,361.7,720.8,361.3,721.5,361z"/>
	<path d="M774.9,477.1c0.4-0.4,0.8-0.3,1,0.2c0,0.1-0.2,0.4-0.3,0.4C775.1,477.8,774.9,477.5,774.9,477.1z"/>
	<path d="M717.5,392c-0.7-0.2-0.8-0.6-0.5-1.3C717.8,390.9,717.9,391.3,717.5,392z"/>
	<path d="M809.7,477.8c3.2,2.6,2,5.2,1.3,7.7C809.8,483.3,808.7,481.1,809.7,477.8z"/>
	<path d="M792.6,479.5c1.6-0.4,3.1-0.4,4.9,0c-0.8,1.4-2.1,1.5-2.9,2.1C793.1,481.5,792.8,480.5,792.6,479.5L792.6,479.5z"/>
	<path d="M810.5,492.6c-0.1-2.1-0.2-3.4,0.8-5.2C812.5,489.6,811.9,490.9,810.5,492.6z"/>
	<path d="M817,479.6c1.8-0.4,2.7,0.3,3.5,1.4C819.4,480.8,817.9,481.5,817,479.6z"/>
	<path d="M810.8,495.9c0-0.7,0.1-1.1,0.7-1.1c0.1,0,0.3,0.3,0.4,0.4C811.9,495.8,811.6,496,810.8,495.9z"/>
	<path d="M800.5,480.5c0,0.1-0.3,0.4-0.7,0.2c-0.2-0.1-0.3-0.5-0.3-0.8c0-0.1,0.4-0.3,0.5-0.3C800.4,479.7,800.8,479.8,800.5,480.5z
		"/>
	<path d="M789.5,450.2c0.5,1.6,0.9,3.2,0.3,4.9C788.3,453.5,787.8,452,789.5,450.2z"/>
	<path fill="#FFFFFF" d="M431.2,204.6c0.7,1.3,0.3,2.6,0.1,3.9C428.9,207,428.9,206.7,431.2,204.6z"/>
	<path fill="#FFFFFF" d="M433,204.3c1.5,1.4,1.7,2.4,0.9,3.9C433.1,207,433.3,205.8,433,204.3z"/>
	<path fill="#FFFFFF" d="M443.8,207.2c-0.5,1.2-1.5-0.1-1.7,0.5c-0.9,0.7-0.3,1.5-0.5,2.1c-1.5,0.1-2.3-0.6-2.5-1.9
		c-0.2-1.4,0.4-2.6,1.8-2.8C442.7,204.6,443.7,205.6,443.8,207.2z"/>
	<path fill="#FFFFFF" d="M421.6,206.1c1.2-2.1,1.2-2.1,3.2-0.6C424.1,206.8,423.1,206.4,421.6,206.1z"/>
	<path fill="#FFFFFF" d="M809.8,511.1c0.4,1.7,0.2,3.1-0.2,4.6c-1.5,0.1-2.1-0.8-2.3-2.1C807.3,512.3,807.9,511.3,809.8,511.1z"/>
	<path fill="#FFFFFF" d="M821.7,514.6c-2,0-3-0.9-3.4-2.7C820.6,511.5,821.5,512.4,821.7,514.6z"/>
	<path fill="#FFFFFF" d="M817.7,515.8c-0.6-0.3-0.8-0.7-0.7-1.3C817.8,514.6,818.2,515,817.7,515.8z"/>
	<path fill="#FFFFFF" d="M802.9,512.3c-1.2,1.1-2.2,1.1-3.3,0.4C800.6,510.8,800.6,510.8,802.9,512.3z"/>
</g>
</svg>
