<?xml version="1.0" encoding="utf-8"?>
<!-- Generator: Adobe Illustrator 19.1.0, SVG Export Plug-In . SVG Version: 6.00 Build 0)  -->
<svg version="1.2" baseProfile="tiny" id="Layer_2" xmlns="http://www.w3.org/2000/svg" xmlns:xlink="http://www.w3.org/1999/xlink"
	 x="0px" y="0px" width="900px" height="600px" viewBox="144 97 900 600" xml:space="preserve">
<g>
	<path d="M854.9,249.4c-0.6,1-1.8,1.2-2.7,1.9c1.3,10.2,2.2,20.5,9.6,28.5c1.6,0.2,2.6-0.6,3.5-1.3c6.7-4.5,10.5-10.8,13.4-18.4
		c4-10.6,5.1-21.7,7.6-32.6c1.5-6.4,3.1-12.7,4.7-19c0.7-2.9,2.2-5.5,3.7-8.2c-3.6-1.3-7.4-1.2-11.1-1.3c-3-0.1-5.7-0.6-8.3-2.1
		c-1.6-0.9-3-0.9-4.7-0.4c-0.1,1.3,1.4,2.2,0.8,3.8c-2.1-1.9-3.1-5.1-6.8-4.8c3.5,5.1,0.3,10.1-0.5,15.2c-1.3,0.7-2.5,1.5-3.8,0.2
		c0.1-1.5,1.5-0.8,2.1-1.5c-0.7-2.8,0.9-5.3,1.1-8c0.3-3-0.5-4.3-3.4-5.5l0.1,0.1c-2-1.8-4.4-3.2-7.1-2c-4,1.8-4.5,7.3-0.9,10.1
		c2.6,2,4.5,4.4,6.2,6.9c-0.7,1.3-1.6,1.1-2.4,0.6c-5.8-3.1-11.8-2.1-17.6-0.6c-7.2,1.9-14.5,2.4-22.2,4.5
		c-2.4,5.1-6.6,9.4-11.9,12.5c0.4,1.6,1.5,2.1,2.4,3.2c3.5-0.8,7-0.9,10.1,1.5l0.1-0.1c-0.9,0.7-2,1.4-3,0.7
		c-2.6-1.7-5.2-1.5-7.4-0.3c-2.1-0.6-2.5-2.5-4-3.1c-5.5,1.9-12.1,2.4-14.9,0.8c1.9-2.3,5.2-2.4,7.4-5.1c-3.7,1.3-7.2,1.8-10.7,1.9
		c-0.5-0.5-0.1-0.9,0.2-1.4c0.4-0.4,0.9-0.7,0.9-1.6c-1.4,0-2.2,1.5-3.5,1.3c-0.1-0.4-0.3-0.8-0.4-1.1c-1.3,0.4-2.2,1.9-4.1,1.6
		c0-1.5,1.4-2.2,1.9-3.4c-0.6-0.7-1.6,0.5-2.6-0.9c-0.3-0.7,0.2-2.3-1.1-3.5c1.5-0.5,3,0,3.9-1.8c-2.1-0.4-4.5,0.1-6.3-1.9
		c2.1-1,4.3-0.2,6.4-0.7c-1.9-1.7-4.5-0.5-6.4-1.9c0.7-1.3,1.7-2.1,2.5-2.9c2.1-0.5,3.9,1.6,5.8,0.2c-0.2-1.5-1.9-0.5-2.2-1.9
		c0.5-1.5,2.8-1,3.6-2.7c-0.5-3.7-0.7-7.7-0.6-11.7c0.1-1.4-0.2-3,1.5-3.8c0.2-0.1,0.4-0.3,0.4-0.5c-0.3-4.1,2-8,0.7-12
		c-0.3-0.9-0.6-1.7-0.1-2.5c1.7-2.5,2.7-5.5,5-7.4c2.6-2.2,4.9-4.8,7.7-6.5c0.6-1-0.6-1.2-0.3-2.4c2.8-0.9,4.3-3.8,6.5-6.4
		c-0.5-1.8-1.9-4.2,1-6c1.6,0.7,1.7,2.4,2.6,3.6c1.1-0.6,1.9-2.2,3.6-1.7c1.5,0.4,1.8,1.8,2.3,3.1c1-1.1,1.8-2.4,3-3.2
		c2.1-1.4,3.1-1.4,4.6,0.8c0.7,1,1.5,1.5,2.4,0.9c2.4-1.8,5-1.1,7.4-0.6c5.8,1.1,11.3,3.2,15.7,7.5c0.3,0.3,0.5,0.9,0.9,1
		c6,1.4,7.8,6.9,10.8,11.2c1.9,2.7,3.4,5.7,5.8,8c2.5,2.5,5,5,5.9,8.7c0.3,1.5,1.7,2.3,2.9,3.1c1.1,0.7,2.2,1.4,3.3,2.1
		c-0.5,3.5,1,5.9,4.5,6c7.4,0.4,14.5,2.6,22,2.3c7.7-0.3,15.4,0.9,22.9,2.9c4.3,1.1,8.1,3.3,11.3,6.2c5.6,5.1,11.1,10.2,17.4,14.4
		c5.1,3.5,7.1,8.9,9.5,14.1c0.5,1.1,0.9,2.2,1.4,3.4c1.7,4.3,3.3,8.4,6.3,12.2c6.4,8.1,9.8,17.9,12.9,27.5
		c4,12.4,8.7,24.6,12.1,37.2c1.3,4.9,3.4,9.6,5,14.4c0.4,1.2,1,2.4,0.2,3.8c-0.5,1,0,2.2,0.3,3.2c0.9,3.8,2,7.5,2.7,11.3
		c0.4,2.3-0.6,4.8,0.9,7c0.5,0.8,1,1.6,1.9,2.2c5.8,3.9,7.7,9.7,7,16.2c-0.4,4.1-1.4,8.3-1.9,12.5c-0.4,3.8-1.8,7.3-3.8,10.5
		c-1.1,1.8-1.8,3.8-2.4,6.5c8.3-0.7,16.4-1.1,24.4,0.5c0,0.8-1,1.1-1.6,0.9c-4.2-1.4-8.5-0.2-12.8-0.8c-3.1-0.5-7,0.9-10.4,2.2
		c7.7,1.3,15.4,2.7,23.1,4c1.9,0.3,3.9,0.4,5.4,1.3c3.8,2.1,3.9,6,3.8,9.9c-0.1,4-3,6.8-7,6.6c-0.8,0-1.5-0.2-2.3-0.4
		c-9.5-1.8-18.9-3.7-28.4-5.5c-0.8-0.1-1.5-0.2-2.4-0.3c-2,1.9-4.2,3.2-6.8,4.1c-1.2,0.4-2.1,1.2-3,2.1c-4.2,4.1-8.9,6.9-15.1,5.7
		c-1.1-0.2-1.9,0.6-2.7,1.1c-2.7,2-5.6,3.6-8.9,4.2c-1.5,0.3-2.7,1-3.7,2.5c2.8-0.5,5.4-0.7,7.9-1.6c4.1-1.5,8.2-2.2,12.7-2.1
		c8.1,0.1,16-2,24-3.1c4.1-0.6,8.4-0.7,12.4-1.4c3.9-0.7,7.6-0.6,11.4-0.8c0.4,0,0.9-0.1,1.2,0.6c-0.7,1-2,1.4-3.1,1.3
		c-8.7-0.7-16.7,2.9-25.1,3.7c-9.8,0.9-19.4,3-29.2,3.9c-5.7,0.5-11.4,1.5-17,2.7c-5,1.1-8.2,4.7-9.8,9.4c-1.3,4.1-3.2,7.8-6,11
		c-3.2,3.7-5.5,8-7.7,12.4c2.1,1.3,4.6,1.7,6.8,2.8c4.1,1.9,7.9,4.2,10.7,7.9c2.1,2.9,2.3,5.9,1.4,9.2c-2.6,9.4-5.8,18.6-10.2,27.4
		c-9,18.1-17.8,36.4-26.6,54.6c-2.6,5.4-4.8,11-8.2,15.9c-1.1,1.5-2.5,2.4-3.9,3.3c-1.3-1.1,0.3-1.9,0-2.9c-2.6-0.4-5.1-1.2-7.8-0.6
		c3.4-1,6.7-2,10.2-1.3c1.8-2.4,3.2-5,4.2-7.6c5-12,10.3-23.8,16.2-35.3c6-11.6,11.1-23.6,16.8-35.4c2.6-5.3,4.6-10.7,5.6-16.6
		c1.2-7.6-1.3-12.7-8.4-15.8c-1.7-0.8-3.5-1.3-5.3-2c-1.4-0.5-2.9-1.1-4.2-2c-3.9,1.3-6,4.7-9.1,7.3c-0.6,1.1,0.2,2.8-1.1,3.6
		c-7.4-2.4-12.5-7.6-17.3-13.7c-0.7,1.4-0.4,2.4-0.3,3.2c1.1,6.6,0.5,13.1-1.6,19.4c-2.1,6.4-2.1,13.1-2.9,19.7
		c-1.4,11.7-4.4,23.1-6.7,34.6c-0.7,3.6-0.2,7.3-0.6,10.9c-0.6,5.7-1.1,11.5-1.3,17.2c-0.2,6.3,2.7,11.2,6.3,15.8
		c1.8,2.4,3.9,4.6,4.8,7.7c5,1.1,10.1,2.2,15.1,3.3c2.2,0.5,4.3,0.9,6.5,1.4c1.2,0.3,2.4,0.6,2.8,2l0.1-0.1
		c-6.2,0-12.1-1.5-17.8-3.7c-2-0.8-4-0.7-6.3-1.7c0.2,4.1,0.1,7.8,2.3,11.1c2.2,3.5,1.4,4.6-1.4,7.6c-5,5.4-11.5,7.3-18,9.2
		c-4.7,1.3-8.8,3.4-12.7,6.2c-3.1,2.2-6.6,3.6-10.4,4.2c-3.2,0.5-6.2,1.6-9.1,3.1c-2.8,1.5-5.8,2.2-9,2.1
		c-9.9-0.2-19.7-1.4-29.1-4.4c-6.1-2-6.1-2.9-6.4-8.9c-0.3-5.2,2.3-8.6,6.8-10.7c5.5-2.5,10.3-5.9,14.1-10.8
		c-6,2.7-12.1,0.9-18.1,0.7c-4.6-0.2-9,0.9-13.2,2.7c-7.9,3.3-16,6-24.4,7.5c-2.9,0.5-5.7,1.6-8.7,1.9c-7.8,0.8-15.1-1.8-22.6-3.1
		c-1.2-0.2-2.4-0.4-3.6-0.7c-2.9-0.5-4.7-2.1-5.5-5c-0.7-2.8-2.2-5.3-1.2-8.3c0.3-0.9,0.5-1.9,1.5-2.4c5.6-2.5,11.1-5.3,16.7-8.1
		c7-3.5,13.8-7.6,18.7-14.1c1.9-2.5,4.6-4.5,7.2-6.3c1.8-1.3,3-2.9,3.7-5.3c1.6-5.7,5.3-10.1,9.8-14c-1-11.3-1.9-22.8-4.1-34.1
		c-1-5.1-1.3-10.3-1.6-15.5c-0.4-6.2-2.8-12.1-3.5-18.3c-1.2-11.8-3.8-23.6-1.7-35.4c1.2-6.9-0.6-13.3-0.3-20
		c0.3-5.9,0.8-11.7,1.3-17.5c0.2-2,0-3.9-0.1-5.9c-0.4-5.8,0.4-11.3,4.9-15.8c3.6-3.6,8-5.9,12.6-7.9c0.9-0.4,1.9-0.5,2.5-1.7
		c-3.4,1.1-6.8,1.2-10.2,0.9c-11-1-21.8,1.1-32.7,1.9c-4.5,0.3-9,0.9-13.3-1.3c-4.6-2.4-8.2-5.9-10.4-10.3c-1.3-2.6-3.8-4.6-4-7.8
		c-0.1-1.2-1.7-1.2-2.8-1c-2.7,0.6-4.3-0.3-4.8-3.1c-11.1-2.4-22.2-4.6-33.5-6.6c-2.1,5.4-5.8,9.6-9.4,13.9
		c-2.5,3.1-5.6,5.1-9.1,6.4c-6.9,2.4-13.8,5-21.3,3.7c-6.9-1.2-12.4-4.6-16.3-10.4c-4.9-7.3-7.3-15.4-6.8-24.2
		c0-0.4-0.1-0.9-0.2-1.5c-4.6-0.9-9.1-1.8-13.7-2.7c-0.1,0-0.2,0-0.3,0c-3.6-0.6-5.2-1.9-5.6-4.3c-0.4-2.3,1.2-4.5,4.2-6
		c5.1,2,10.6,2.1,15.9,3.3c3-5.1,6-10.2,9-15.1c3.7-6.2,9.9-8.6,16.4-9.6c5.8-0.9,11.9-1.1,17.8,0.8c14.6,4.7,23.5,21.5,20.5,34
		c0,0.2,0,0.4,0,1c9.5,1.7,19,3.4,28.5,5c0.3-0.3,0.6-0.4,0.6-0.6c1.6-6.5,3.2-7,8.3-6.7c3.9,0.2,7.8-0.4,11.7-0.2
		c3.9,0.2,7.6,1.1,11.5,1.2c3.8,0.1,6.6,2.4,8.5,5.7c1.6,2.8,2.8,5.8,5.1,8.5c3.1,0.5,6.5,1.1,9.9,1.7c8-5.3,16.5-9.8,24.6-15
		c3-1.9,5-4.6,7.8-6.7c2.5-1.8,4.7-4,6.9-6.2c2.2-2.1,3.9-4.6,4.5-7.6c0.2-0.8,0.1-1.8,1.3-1.9c1.1,3.2,1.1,3.2-7.9,15.5
		c1.9,0,3.6-1.4,6.2-0.9c-2.3,1.8-4.4,2.8-6.6,3.4c-2.7,0.8-5.3,1.8-7.4,3.6c-7.7,6.4-17.2,10-25.6,16.4c10.1,1.8,20,3.6,29.8,5.4
		c2.4-2.5,3.9-5.5,6.7-7.4c1.7-1.2,3.4-1.7,5.2-0.6c0.8,0.5,1.6,0.8,2.5,0.6c5.3-0.9,10.3,0.6,15.3,2.3c2.3-3.2,2.4-7.3,5-10.3
		c-0.1,4-1.7,7.4-4.2,11.2c8,0.6,14.7,2.9,16.1,12.1c6-1.9,10.9-4.5,15.1-8.6c0.9-0.9,1.8-2.1,2.9-2.8c6.8-4.1,12.2-10.3,19.3-14
		c2-1,3.6-2.6,4.8-4.4c0.1-1.3-0.4-2.4-1.1-3.2c-3.7-4.3-6.4-9.3-9.9-13.7c-1-1.3-2.1-2.6-2.8-4.1c-3.6-7.5-10.8-11.5-16.6-17.8
		c-0.9,4.4-1.2,8.1-1.4,11.7c-0.7,11.2-4.9,21.3-8.8,31.5c-1.4,3.7-3.2,7-5.7,10c-0.9,1-1.7,1.8-3,0.8c-0.2-1,0.6-1.5,1.1-2
		c3.7-3.8,5.5-8.5,6.7-13.5c1.4-5.8,3.6-11.4,5.5-17.1c1.9-5.4,2.4-11,2.5-16.7c0-2,0-4,0.7-5.9c-2.9-3.5-6.4-6.2-9.6-9.5
		c-2.5,6.5-3.4,13.5-7,19.3c-0.3-0.1-0.6-0.2-0.9-0.4c0.3-0.9,0.4-1.9,0.9-2.7c3.1-5.5,2.5-11.8,4.2-17.6c0.3-1.2-0.2-2.1-0.8-3.1
		c-3.5-5.7-7.1-11.2-11.2-16.5c-1-1.3-2-2.6-2.2-4.2c-1.6-0.8-3.1-1.6-4.8-2.4c4.9-0.3,5.9,0.4,8.7,3.7c2.4,2.9,3.5,6.7,6.6,9.6
		c1.1-3.1,2.6-5.8,2.4-9.1c-0.5-8.3,0.3-16.6,0.9-25c-3.3-2-7.1-2.4-10.7-3.3c-1.5-0.4-2.8-1.5-4.3-2.2c0.4-0.5,0.5-0.8,0.6-0.8
		c3.9,1.2,7.3,0.1,10.7-1.8c0.8-0.5,2.1-1.1,3,0.4c-1.3,2.2-4.3,1.8-5.9,3.9c2.9-1.1,5.3-0.2,7.7,1.4c1,0.7,2.6,0.3,3.5,0.4
		c4-2.8,8.1-4.8,11-8.4c2.8-3.6,4.2-7.9,6.3-12.5c1,2-0.6,3.4,0.1,4.8c1.2-0.4,1-2.2,2.5-2.6c-0.2,2.2-0.8,4.3-2.5,5.1
		c-1.8,0.8-1.8,2.3-2.7,3.5c3.8,2.7,9.2,3.6,9.5,9.4c-3.7-2-5.8-6.4-11-7C860,244.1,857.2,246.5,854.9,249.4L854.9,249.4z"/>
	<path d="M373.8,230.8c-0.9,0.7-2,1.4-3,0.6c-2.6-1.8-5.2-1.3-7.6-0.4c-1.8-0.6-2.3-2.2-3.9-3.2c-4.4,2.6-9.4,1.9-14.5,1.3
		c1.7-2.6,5-2.7,7.1-5.3c-3.7,1.2-7.2,1.9-10.7,1.8c-0.4-1.4,1.3-1.5,1.3-2.9c-1.1,0.5-2.1,1-3.1,1.4c-1.1,0.1-0.3-1-0.8-1.2
		c-1.4,0.4-2.2,1.9-4.1,1.6c-0.1-1.5,1.5-2.1,1.8-3.5c-0.5-0.8-1.6,0.9-2.2-0.4c-0.8-1.2,0.3-3-1.8-3.9c1.9-0.6,3.4-0.1,4.3-1.9
		c-2.1-0.4-4.5,0.1-6.3-1.9c2.1-1,4.2-0.2,6.4-0.7c-1.8-1.7-4.5-0.4-6.4-2c0.9-1,1.8-1.9,2.5-2.7c2-0.4,3.6,1.2,5.4,0.6
		c0.2-0.1,0.3-0.3,0.5-0.5c-0.1-1.3-1.9-0.4-2.2-1.7c0.6-1.6,2.8-1.1,3.7-2.7c-0.5-3.7-0.7-7.7-0.6-11.7c0.1-1.4-0.2-3,1.5-3.8
		c0.2-0.1,0.4-0.3,0.4-0.5c-0.3-4.1,1.9-7.9,0.7-12c-0.3-0.9-0.7-1.7-0.1-2.5c1.7-2.5,2.7-5.5,5-7.4c2.6-2.2,4.9-4.8,7.7-6.5
		c0.7-1-0.6-1.2-0.2-2.4c2.5-1.2,4.6-3.5,6.4-6.6c-0.9-3.7-0.9-3.7,1.2-5.9c1.7,0.5,1.6,2.5,2.6,3.5c3.3-2.6,4.3-2.4,5.8,1.3
		c0.9-0.9,1.7-2,2.7-2.8c2.2-1.9,3.2-1.7,5,0.6c0.6,0.8,1.5,1.3,2.2,0.8c2.5-1.9,5.2-1.2,7.7-0.7c5.8,1.2,11.3,3.3,15.6,7.6
		c0.2,0.2,0.4,0.7,0.7,0.7c6.3,1.8,8.4,7.5,11.5,12.3c2.1,3.3,4.4,6.3,7.2,9c1.5,1.5,2.8,3.1,3.3,5.2c0.5,2,1.8,3.5,3.6,4.6
		c1.1,0.7,2.4,1.2,3.2,2.3c-0.7,2.9,0.6,5.5,3.9,5.6c4.9,0.1,9.6,1.4,14.4,1.9c4.2,0.4,8.4-0.1,12.5,0.9c1.5,0.4,2.9-0.5,4.3-0.2
		c9.1,1.5,18.5,2.5,25.8,9.1c2.9,2.7,5.9,5.4,8.9,7.9c3.2,2.6,6.4,5.1,9.7,7.6c2.2,1.7,3.8,3.7,4.9,6.2c1.9,4.4,3.9,8.7,5.7,13.1
		c1.1,2.9,2.2,5.6,4.4,7.9c2.5,2.6,4.3,5.9,5.7,9.3c4.3,9.7,8.4,19.5,11.2,29.8c1.8,6.8,5,13.2,6.8,20.1c1.9,7.3,4.8,14.3,7.2,21.4
		c0.3,1,0.8,2,0.2,3.2c-0.6,1.1,0,2.4,0.3,3.5c0.9,3.8,1.9,7.5,2.7,11.3c0.5,2.2-0.7,4.5,0.7,6.7c0.6,0.9,1,1.8,2,2.5
		c5.7,3.9,7.6,9.7,6.9,16.2c-0.5,4.3-1.4,8.5-1.9,12.8c-0.4,3.6-1.8,6.8-3.6,9.9c-1.2,1.9-1.9,3.9-2.6,6.8c8.5-1.1,16.6-1,24.8,0.2
		c-0.3,0.8-1.3,1.1-1.8,1c-4.2-1.4-8.6,0.8-12.7-1.1c-0.9-0.4-2.3,0.5-3.5,0.7c-2.3,0.5-4.6,0.9-6.9,0.8c-1.4,2.1-1.7,4.4-2.6,6.8
		c3.5,0,6.7,0,9.8,0c-2.5,1.8-5.4,2.3-8.2,2.8c-2,0.3-3.3,1.1-4.4,3c-2,3.6-4.8,6.4-8.8,7.7c-1.1,0.3-2.1,0.9-2.8,1.7
		c-3.4,3.8-7.5,6.1-12.7,6.8c0.2,1.2,0.4,2.3,0.6,3.8c4.6-0.4,9.2-0.4,13.8-1.2c7.9-1.4,15.8-2.9,23.9-3.5c3.8-0.3,7.5-0.7,11.3-0.7
		c0.5,0,1.1-0.2,1.8,1.1c-7.5,1.7-15.1,1-22.3,3.4c-7.2,2.3-14.9,1.7-22.2,3.2c-7.4,1.4-14.9,2.4-22.4,4c1.2,1.5,2.8,1.3,4.2,1.5
		c20.8,2.4,41.6,4.9,62.4,7.1c3.5,0.4,5.5,1.8,6.5,5c0.9,2.8,1.5,5.6,0.4,8.4c-1.1,2.8-4,4.1-7.4,3.7c-11.1-1.4-22.2-2.9-33.3-4.4
		c-10.5-1.4-21.1-2.8-31.6-4.2c-0.6-0.1-1.3,0-2.2,0c-1.4,10.2-5.6,18.9-12.9,26.6c3,3.8,2,8,0.8,12.4c-2.9,10.4-7.4,20.1-12,29.8
		c-8.8,18.8-19,37-27.1,56.3c-1.3,3.2-3.2,6-5.1,8.9c-1,1.5-2.4,2.5-3.9,3.2c-1.3-1,0.4-1.8,0-2.8c-2.6-0.4-5.1-1.2-7.8-0.5
		c3.3-1.1,6.7-2,10.2-1.3c1.9-2.5,3.2-5.1,4.4-7.8c5.1-12.2,10.5-24.2,16.5-35.9c5.8-11.3,10.7-23.1,16.4-34.5
		c3.1-6.2,5.2-12.7,6.2-19.6c0.3-2.3,0.5-4.4-1.8-6.3c-1.7,1.2-3.5,2.5-5.3,3.7c-4.6,3-9.5,3.6-14.5,1.9c-2.4-0.8-4.9-1.1-7.3-1.8
		c-7.7-2.2-12.8-7.1-16.4-14c-0.2-0.5-0.4-1-0.9-1.4c-0.5,0.4-0.3,1-0.2,1.4c0.9,5.6,0.8,11.1-0.8,16.5c-2.2,7.4-2.9,14.9-3.7,22.5
		c-1.2,11.7-4.4,23.1-6.7,34.6c-0.7,3.4-0.2,6.9-0.5,10.3c-0.6,5.1-0.8,10.2-1.3,15.2c-0.7,7.1,1.8,13.1,6.2,18.5
		c1.9,2.3,4,4.5,4.7,7.7c5.2,1.1,10.2,2.3,15.3,3.4c2.2,0.5,4.3,0.9,6.5,1.4c1.2,0.3,2.4,0.6,2.8,2l0.1-0.1
		c-6.2,0-12.1-1.5-17.8-3.7c-2-0.8-4-0.9-6.3-1.5c0.2,3.9,0.1,7.6,2.3,11c2.2,3.5,1.4,4.6-1.4,7.6c-5.6,6.1-13.3,7.6-20.6,10
		c-2.7,0.9-5.2,1.9-7.4,3.5c-4.3,3.2-9,5.5-14.5,6.3c-2.5,0.4-5,1.2-7.2,2.5c-4.3,2.4-8.9,2.4-13.6,2.2c-7.7-0.3-15.2-1.5-22.6-3.5
		c-8-2.1-9.8-3.8-8.6-13c0.6-4.1,3.6-5.9,6.8-7.5c5.3-2.6,10.1-5.8,13.8-10.7c-5.8,2.5-11.6,1.1-17.4,0.7c-5-0.3-9.7,0.8-14.2,2.8
		c-7.7,3.3-15.5,5.9-23.8,7.3c-3,0.5-5.9,1.7-9,2c-7.8,0.8-15.1-1.8-22.6-3.1c-1.2-0.2-2.4-0.4-3.6-0.7c-2.9-0.5-4.7-2.1-5.5-5
		c-0.7-2.8-2.2-5.3-1.2-8.3c0.3-1,0.5-1.9,1.5-2.4c5.3-2.5,10.5-5,15.8-7.6c7.5-3.7,14.5-7.9,19.8-14.8c1.9-2.4,4.5-4.3,7-6.1
		c1.9-1.3,3-2.9,3.7-5.2c1.6-5.7,5.3-10.1,9.8-14c-1-11.3-1.9-22.8-4.1-34.1c-1-5.1-1.3-10.3-1.6-15.5c-0.4-6.2-2.8-12.1-3.5-18.3
		c-1.2-11.8-3.4-23.5-1.9-35.4c0.6-4.3,0.8-8.4,0-12.6c-0.5-2.5-0.2-5,0.3-7.7c-3.3-1.3-6.8-0.8-9.7-1.7c-1.3,0.3-0.7,1.6-1.9,1.9
		c-0.8-2.6-2-4.9-2.2-7.7c-0.2-2.7,2.5-5.1,0.8-7.9c0.3-0.7,0.9-0.9,1.6-0.6c0.8,0.5-0.2,1.2,0.3,1.8c3.6,0.5,7.2,0.9,10.9,1.4
		c0.6-2.2,0.4-4-0.1-6.2c-1.1-4.5-1.2-9.1-0.1-13.7l-0.1,0.1c4.7-4.1,9.5-8,15.1-10.7c1.1-0.5,2.2-1.1,3.1-1.9
		c4.2-3.6,9.4-5.2,14.6-6.9c11.5-3.7,22-9.6,31.1-17.4c5.1-4.4,9.2-9.8,10.7-16.8c1.3-6.2,3.6-12.1,5.7-18c2-5.6,2.6-11.4,2.7-17.3
		c0-2,0-4,0.6-5.5c-3.2-3.5-6.2-6.7-9.3-10.1c-2.9,6.7-3.3,13.8-7.3,19.5c-0.3-0.1-0.6-0.2-0.9-0.3c0.5-1.5,0.8-3,1.5-4.4
		c2.8-5.2,2.2-11.2,3.6-16.8c0.5-2.2-1.8-4.1-3.1-6.1c-2.9-4.5-5.9-9.1-9.4-13.3c-0.9-1.1-1.6-2.4-1.7-3.6c-1.7-0.9-3.2-1.6-5.3-2.7
		c4.4,0,7.2,0.8,9.5,4.3c2,3,3.2,6.6,6.3,9.3c0.9-3,2.5-5.6,2.3-8.8c-0.5-8.4,0.3-16.8,0.9-25.3c-3.4-1.9-7.1-2.4-10.7-3.3
		c-1.5-0.4-3-1.2-4.1-2.4c0.3-0.3,0.4-0.6,0.5-0.6c3.7,1.1,7.1,0.2,10.4-1.6c0.9-0.5,2.2-1.4,3.2,0.3c-1.3,2.2-4.3,1.8-5.9,3.9
		c3-1.1,5.3-0.2,7.7,1.4c1,0.6,2.6,0.3,3.7,0.2c8.7-4.2,14.1-11.1,16.9-21c1.3,2.3-0.3,3.7,0.3,5.1c1.1-0.5,1.2-2,2.7-2.9
		c-0.6,2.6-0.9,4.7-3.2,5.7c-1.5,0.6-1.3,2.2-2.2,3.2c4,2.6,9.1,3.8,9.6,9.4c-3.7-2-5.9-6.3-11.1-6.9c-2.4,2.2-5.3,4.6-7.6,7.5
		l0.1-0.1c-0.6,1-1.8,1.2-2.7,1.9c1.3,10.2,2.1,20.5,9.6,28.5c1.5,0.2,2.5-0.6,3.5-1.3c6.7-4.5,10.5-10.8,13.4-18.4
		c4-10.6,5.1-21.7,7.6-32.6c1.5-6.5,3.1-12.9,4.7-19.3c0.7-2.8,2.1-5.3,3.6-7.9c-3.8-1.3-7.6-1.2-11.4-1.3c-2.7-0.1-5.3-0.6-7.6-1.9
		c-1.6-0.9-3.1-1.1-4.9-0.6c-0.5,1.3,1.4,2.2,0.7,3.8c-2.1-1.9-3.1-5-6.8-4.8c3.6,5.2,0.4,10.2-0.4,15.3c-1.3,0.7-2.5,1.5-3.8,0.2
		c0-1.6,1.5-0.7,2.1-1.6c-0.7-2.7,0.9-5.2,1.2-7.9c0.3-3-0.5-4.3-3.4-5.5l0.1,0.1c-2.1-1.8-4.4-3.2-7.1-2c-4,1.8-4.5,7.3-0.9,10.1
		c2.6,2,4.5,4.4,6.2,6.9c-0.5,1.2-1.3,1.2-2,0.8c-5.7-3.2-11.8-2.3-17.6-0.8c-7.3,1.9-14.8,2.4-22.7,4.7c-2.2,5.1-6.7,9.1-11.7,12.5
		c0.3,1.5,1.6,1.8,2.1,3.1C367.2,228.5,370.7,228.5,373.8,230.8L373.8,230.8z"/>
	<path d="M234.1,411c19.9,2.3,39.9,4.6,59.9,6.9c5.3-10.2,12.5-19,18.6-28.5c6.4-9.8,14.6-18,23.1-25.9c4.5-4.2,8.5-8.8,12.8-13.2
		c4.5-4.7,9.2-9.2,14.1-13.4c3.1-2.6,5.6-5.7,6.3-9.9c0.1-0.5,0.3-1.1,1-1.2c1.8,3,0,6.7-7.9,15.5c2.1,0.1,3.8-1.4,6.1-0.9
		c-2.4,2.1-5,3.3-7.6,4.1c-5.5,1.7-8.8,6-12.7,9.8c-1.8,1.8-3.4,3.8-5,5.7c-2.9,3.6-6.5,6.3-9.9,9.3c-5.9,5.2-10.3,11.8-16.3,17
		c-2.1,1.8-3.5,4.7-5.1,7.2c-3.2,4.8-6.4,9.6-9.8,14.2c-3.8,5.1-5.4,11.4-8.6,16.8c-0.9,1.5-1.3,3.6-0.5,5.9
		c0.7,0.6,1.8,1.5,2.9,2.5c0.9-1.7,0.1-2.7-1.7-3.6c3-1.4,0.8-4.5,2.6-6.8c1.9,4.5,1.8,8.9,1.8,13.2c1.5,1,2.9,0.8,4.6,0.4
		c-0.1-4.4-1.2-8.7-1.5-13.1c2.7,1.6,2.5,4.5,2.9,7c0.4,2.6,0.7,5.3,1.3,7.8c1.9,0.9,3.6,1.2,5.5,0.2c-1.4-4.4-3-8.8-3.2-13.5
		c1.5-0.2,1.8,0.6,2,1.3c1.1,3.2,2.4,6.5,2.4,10c0.1,2.6,1.3,3.6,3.7,3.6c3.6-0.1,6.9-1.3,10-3c0.8-0.4,1.3-1.5,2.7-1.1
		c-0.2,1.6-1.2,2.8-2.5,3.3c-4.3,1.5-8.4,4.4-13.3,2c-0.8-0.4-1.5-0.3-2.3-0.1c-2.7,0.8-5,0-7-2.1c-1.9,0-3.9,0.1-5.9-0.4
		c-1.1-0.5-1.1-1.9-2-2.7c-4.1,0.3-4.7-3.2-6-6c-18.7-2.4-37.3-4.9-56.1-7.3c-1.7,6.5-6,11.2-9.7,16.2c-1.9,2.5-4.7,4.1-7.6,5.2
		c-6.6,2.6-13,5.6-20.5,4.8c-7.2-0.7-12.9-3.7-17.3-9.3c-5.7-7.3-8.5-15.7-8.2-25.4c-5.2-0.7-10.3-1.3-15.3-2
		c-3.7-0.5-5.8-2.9-5-5.7c0.6-1.9,1.7-3.6,3.8-4.4c5.3,1.6,10.8,1.6,16.1,2.3c3-5.7,5.8-11.1,8.7-16.5c2.9-5.3,8.2-7.8,13.4-9.1
		c6.8-1.8,14-2.6,21-0.3c14.3,4.6,23.2,20.3,21,32.5C233.9,410.3,234,410.5,234.1,411z"/>
	<path d="M478.5,609.9c4.9-2.5,10.4-2.8,15.7-4c1.8-0.4,3.6-0.9,5.8-2.2c-3.4-0.8-6.2-1.6-9-2.2c-3.8-0.8-6.6-3.8-10.6-4.5
		c12.2-20.8,25.4-40.7,38.1-60.9c3.8-6,7.8-11.8,11.7-17.8c0.9-1.4,2.1-2.1,3.3-3c8.5-6.2,16.6-3.5,24.5,0.9
		c5.2,2.9,9.8,6.8,14.5,10.5c1.7,1.3,3.5,2.3,5.4,3.2c8.3,4.1,15.7,9.5,22.6,15.6c0.6,0.5,1.1,1.1,1.6,1.7c0.4,0.5,1,0.9,0.9,1.8
		c-1.4,0.5-2.2-0.7-3.1-1.3c-6.4-4.6-12.1-10.1-19.1-13.7c-7-3.7-13.2-8.4-19.6-13c-5.5-4.1-12.1-6.4-18.9-6.7
		c-4.2-0.2-8.4,2.3-10.8,6.2c-12,19.2-24.4,38-36.6,57c-4,6.2-7.8,12.5-11.7,18.8c6.4,4,14.6,2.6,21.5,6.9c-3.9,4-8.6,4.9-13.2,5.7
		c-4.5,0.8-9.1,1.1-13.2,3C477.4,610.7,478.3,610.4,478.5,609.9L478.5,609.9z"/>
	<path d="M921.7,611.9c4.9-2.5,10.4-2.8,15.7-4c1.8-0.4,3.6-0.8,5.8-2.2c-3.4-0.8-6.1-1.6-9-2.2c-3.8-0.8-6.6-3.9-10.4-4.4
		c6.1-11.3,13.2-21.9,20-32.5c6.9-10.7,13.3-21.7,20.4-32.3c3.3-5,6.7-9.9,9.9-15c0.8-1.3,2.2-1.3,3.2-2.1
		c6.5-5.1,13.3-3.6,20.1-0.8c3.9,1.6,7.4,4,10.7,6.6c6.5,5.2,13.5,9.5,20.8,13.5c2.2,1.2,2.1,1.3,2.2,3.4c-1,0.5-1.6-0.4-2.3-0.8
		c-8.5-5-16.9-10-24.7-16.1c-5.3-4.1-11.9-6.3-18.6-6.6c-4.2-0.2-8.4,2.3-10.8,6.2c-12,19.2-24.4,38-36.6,57
		c-4,6.2-7.8,12.5-11.7,18.8c6.4,3.9,14.6,2.5,21.5,6.9c-3.9,4-8.6,4.9-13.2,5.7c-4.5,0.8-9.2,0.9-13.2,3
		C920.6,612.7,921.5,612.4,921.7,611.9L921.7,611.9z"/>
	<path d="M377.3,330.4c-6.4-3.6-9.1-9.3-9.3-16.4c-0.1-2,0-4-0.5-5.9c-1.9-7.8-0.2-15.2,1.8-22.6c0.3-1,0.7-1.9,1.1-2.8
		c1.7-3.7,2.2-7.1,0.4-11.3c-3.9-9.1-3.2-18.8-2.1-28.5c0.4-3.8,2.5-6.9,4.4-10.7c2.8,3.6,4.2,8.1,7.9,11c3.7,0.1,5.7-3.4,9.1-4.6
		c0.8,1.7-0.4,2.5-1.5,3.1c-1.7,0.8-3.2,1.9-4.8,2.8c-2.6,1.4-3.7,1.1-5.7-1.2c-1.8-2.1-3-4.6-4.4-7.4c-1.8,3.5-2,7-2.2,10.3
		c-0.3,4.1,0.1,8.2-0.8,12.2c-0.6,3.1,0.3,6.3,1.5,9.1c2.6,5.6,1.9,11.2,0.8,16.9c-1.2,6.2-2.3,12.4-3.3,18.6
		c-0.4,2.3,0.9,4.4,0.9,6.7c-0.1,4.3,0.5,8.6,0.7,12.9C374.1,324.7,375.9,327.5,377.3,330.4L377.3,330.4z"/>
	<path d="M820.5,332.4c-6.4-3.6-9.1-9.3-9.3-16.4c0-2.7-0.3-5.3-0.8-7.9c-1.5-7.3,0.4-14.3,2.4-21.2c0.2-0.7,0.5-1.5,0.8-2.2
		c1.8-3.7,2.2-7.1,0.4-11.3c-3.9-9.1-3.2-18.8-2.1-28.5c0.4-3.8,2.5-6.9,4.4-10.7c2.8,3.6,4.2,8.1,7.9,11c3.7,0.1,5.7-3.4,9.1-4.6
		c0.7,1.7-0.4,2.5-1.5,3.1c-1.7,0.8-3.2,1.9-4.8,2.8c-2.6,1.4-3.7,1.1-5.7-1.2c-1.8-2.1-2.9-4.7-4.5-7.2c-1.8,3.5-1.9,7-2.1,10.5
		c-0.2,4,0,7.9-0.7,11.9c-0.6,3.1,0.3,6.3,1.5,9.1c2.6,5.6,1.9,11.2,0.8,16.9c-1.2,6.2-2.2,12.4-3.4,18.6c-0.4,2,1,3.4,1,5.4
		c0,4.7,0.5,9.5,0.7,14.2C817.3,326.7,819.1,329.4,820.5,332.4L820.5,332.4z"/>
	<path d="M591.8,434.7c2.5,0.5,2.5,2,2.8,3.2c0.8,3.9,1.5,7.8,2.4,11.7c1.3,6,4.3,11.4,7.6,16.5c4.9,7.4,10.3,14.4,15.5,21.6
		c1.7,2.3,2.9,4.6,2.5,8.2c-3.2-4.1-6.2-7.5-8.7-11.3c-5.1-7.6-10.4-15-14.9-23.1c-3.8-6.9-4.7-14.2-6.4-21.4
		C592.4,438.4,592.2,436.8,591.8,434.7z"/>
	<path d="M417.1,194c0.8,1.3,2.7,2.1,2.1,4.1c-1.4,0-1.8-1.3-3-1.8c-0.2,0.6-0.4,1.3-0.6,1.9c0.5,0.9,1.5-0.1,2.2,0.8
		c-0.7,1.6-0.7,3.4,0,5.3c-2.7,0.8-4.3-0.1-5-2.6c-3.7-0.7-5.5-4.3-4-7.5c0.7-1.5,3.2-2.3,4.9-1.5C414.9,193.4,416,194,417.1,194
		L417.1,194z"/>
	<path d="M860.3,196c1.8,2.1,1.8,2.1,2,4.1c-1.3,0-1.7-1.3-2.9-1.8c-0.2,0.7-0.4,1.3-0.6,1.9c0.5,0.9,1.5-0.1,2.2,0.8
		c-0.7,1.6-0.7,3.4,0,5.3c-2.7,0.8-4.3-0.1-5-2.6c-3.7-0.7-5.5-4.3-4-7.5c0.7-1.5,3.2-2.3,4.9-1.4
		C858.1,195.4,859.1,195.9,860.3,196L860.3,196z"/>
	<path d="M817,232.9c5.3-3,10.9-5.2,16.2-7.7c0.5,0.5,0.8,1,0.6,1.3c-1.7,1.9-3.1,4.5-5.5,5.3c-3.2,1.2-6.8,0.3-10.1,1.6
		C817.9,233.4,817.4,233,817,232.9L817,232.9z"/>
	<path d="M373.8,230.9c5.3-3,10.9-5.1,16.2-7.7c0.5,0.5,0.8,1,0.6,1.3c-1.7,1.9-3.1,4.5-5.5,5.3c-3.2,1.2-6.8,0.3-10.1,1.6
		C374.7,231.4,374.2,231,373.8,230.9L373.8,230.9z"/>
	<path d="M411.7,247.4c0.6-0.2,1.5-0.9,1.8-0.7c3.4,2.2,7.8,1.9,11.1,4.2c0.8,0.6,1.7,1,1.8,2.2c-1,1.5-2.1,0.6-3.1,0.1
		C419.4,251.4,415.6,249.4,411.7,247.4L411.7,247.4z"/>
	<path d="M854.9,249.4c0.6-0.2,1.5-0.9,1.8-0.7c3.4,2.2,7.8,1.9,11.1,4.2c0.8,0.6,1.7,1,1.8,2.2c-1,1.5-2.1,0.6-3.1,0.1
		C862.6,253.4,858.8,251.4,854.9,249.4L854.9,249.4z"/>
	<path d="M330.7,402.3c-0.5,0-1.1,0-1.9,0c0.4-1.8,0-3.5,0-5.2c1.3-0.4,1.2,0.8,1.8,1.3c2.3-0.9,3.2-3.4,5.7-5.1
		c-0.5,2.2-1.5,3.4-2.7,4.4C332.2,399,331.1,400.5,330.7,402.3L330.7,402.3z"/>
	<path d="M582.4,410.6c3.9-3.4,8.1-0.4,12.2-1.2c-1.5,1.7-1.8,2-3.1,1.7C588.4,410.3,585.4,410.1,582.4,410.6z"/>
	<path d="M599.1,427.9c-1.7,1.8-3.6,3.1-6,3c-2.2-0.1-4.3-0.3-6.6,0.2c1.1-1.9,2.8-2.2,4.4-1.6c2.4,0.7,4.3,0.5,6.1-1.2
		C597.5,427.8,598.2,427.4,599.1,427.9z"/>
	<path d="M393.2,353.9c-0.3,3.8-1.4,7.3-4.1,10.2C390.1,360.6,391.1,357,393.2,353.9z"/>
	<path d="M878.1,235.8c-0.1-4.6,1.6-8.6,3.9-12.4C882,228,878.1,231.3,878.1,235.8z"/>
	<path d="M438.7,221.5c-0.1,4.5-3.6,7.9-3.9,12.4C434.6,229.3,436.7,225.4,438.7,221.5z"/>
	<path d="M315,408.6c-1.3,4.2-3.4,7.8-7.8,9.8C309,414.5,313.1,412.4,315,408.6z"/>
	<path d="M400.3,354.7c-0.1,3.9-3.3,5.9-5.4,8.6C396.1,360.1,397.7,357.1,400.3,354.7z"/>
	<path d="M843.5,356.7c-0.3,3.8-3.1,5.9-5.4,8.3C839.5,362,840.8,358.9,843.5,356.7z"/>
	<path d="M360.3,355.4c-3.2,2.2-6.3,2.3-9.4,3.4C353.1,355.9,355.6,354.9,360.3,355.4z"/>
	<path d="M807.2,354.4c3.9-1.3,7.1-3.8,10.3-6.3c0.8,0.9,0.1,1.3-0.4,1.7c-2.2,2.1-4.7,3.6-7.5,4.7
		C808.8,354.8,807.9,355.3,807.2,354.4L807.2,354.4z"/>
	<path d="M912.3,600.2c2.7-1.6,5.7-1.9,9-2.8C919.8,599.4,916.4,600.4,912.3,600.2z"/>
	<path d="M469.2,598.5c2.5-2.2,5.8-2,8.7-2.7C475.4,598.1,472.2,597.7,469.2,598.5z"/>
	<path d="M365.2,352.5c3-2.2,6.4-3.9,9.3-6.2C372.2,349.7,369,351.5,365.2,352.5z"/>
	<path d="M342.7,364.2c1.2-3.4,4.4-3.7,7.3-4.5C347.9,361.8,344.7,362,342.7,364.2z"/>
	<path d="M573.1,411.9c1.7-2,3.9-1.7,6.6-1.4C577.3,412.3,575.1,411.9,573.1,411.9z"/>
	<path d="M440.8,217.3c0-2.1,1.1-3.9,1.9-6.1C443.6,213.6,443.5,214.1,440.8,217.3z"/>
	<path d="M883.9,219.3c0.2-2.1,0.8-4,2-5.8C886.7,215.8,886.6,216.2,883.9,219.3z"/>
	<path d="M381.1,369.7c0.6,3,0.6,3-2.9,4.2C378.8,372.1,380.3,371.3,381.1,369.7z"/>
	<path d="M816.7,338.8c0.9-1.5,1.2-3.1,1.2-5.1c1.7,1.3,1.5,2.6,1,4C818.5,338.5,818.2,339.7,816.7,338.8z"/>
	<path d="M374.8,332.1c1.8,2.7,1.6,3.5-1.2,5.2C373.9,335.4,375,333.9,374.8,332.1z"/>
	<path d="M876.4,255c-1.6,1.3-3.2,1.5-5,0.1C873.3,253.7,874.9,254.7,876.4,255z"/>
	<path d="M428.6,253c1.8-0.6,1.8-0.6,4.6-0.1C431.3,254.5,430.8,254.5,428.6,253z"/>
	<path d="M383.1,369.8c0.5-1.8,1.6-2.8,3.7-3.6C386.4,368.6,384.6,369.1,383.1,369.8z"/>
	<path d="M319.2,386.4c1.4-1.7,3.1-2.2,4.5-3.5C322.8,385.5,322.8,385.5,319.2,386.4z"/>
	<path d="M832.1,330c-0.3-1.5,0.5-2.2,2-2.9C834.3,328.9,832.8,329.1,832.1,330z"/>
	<path d="M388.8,327.9c0-1.5,0.6-2.4,2.2-2.7C391,326.9,389.7,327.3,388.8,327.9z"/>
	<path d="M815.9,343c0.7-1.8,1.9-1.9,3.7-1.7C818.6,342.7,817.6,343.2,815.9,343z"/>
	<path d="M372.5,341c1.2-1.7,2.2-2,3.9-1.7C375.5,340.7,374.4,341.2,372.5,341z"/>
	<path d="M818.2,277.1c0.4-1.9,1.8-2.3,2.8-3C820.7,275.4,820.7,277,818.2,277.1z"/>
	<path d="M378,272.2c-0.8,2.2-0.8,2.2-2.7,3C375.2,273.1,376.9,272.9,378,272.2z"/>
	<path d="M827.2,337.6c-1.4,0.7-2.2,0.3-2.8-0.6C825.6,336.4,825.6,336.4,827.2,337.6z"/>
	<path d="M381.1,334.3c1.6-0.2,2.2,0.3,2.8,1.5C382.5,336.2,381.6,336.1,381.1,334.3z"/>
	<path d="M325.5,382.5c0.7-1.6,1.4-2.2,2.9-2.2C328,381.6,327.2,382.2,325.5,382.5z"/>
	<path d="M395.1,319c0.5,2-0.5,2.7-2.2,3.8C393.5,321.1,393.6,320,395.1,319z"/>
	<path d="M836.3,324.6c0.3-1.5,0.5-2.5,1.6-3.4C838.3,323,838.3,323,836.3,324.6z"/>
	<path d="M397.1,350.2c-0.3,1.8-0.9,2.7-2.4,3.1C394.2,351.3,395.5,351,397.1,350.2z"/>
	<path d="M840.4,352.3c-0.7,1.6-1,2.8-2.7,2.8C837.6,353.3,838.7,352.8,840.4,352.3z"/>
	<path d="M299.3,414.8c0.1-1.1,0.5-1.9,1.9-2.1c0.2,1.4-0.7,1.9-1.6,2.3C299.5,415,299.4,414.9,299.3,414.8z"/>
	<path d="M430.4,203.6c1.4,0.4,1.6,1.2,1.5,2.3C430.5,205.6,430.5,204.7,430.4,203.6z"/>
	<path d="M442.5,208.2c-0.9-1.5,0-2,0.2-3.1C443.4,206.4,443.2,207.1,442.5,208.2z"/>
	<path d="M874.9,208c-1.1-0.5-1.4-1.2-1.3-2.4C874.8,206,875.2,206.7,874.9,208z"/>
	<path d="M377.3,330.5c0.9,0.5,1.9,1,2.2,2.5C378,332.6,377.1,332,377.3,330.5L377.3,330.5z"/>
	<path d="M820.4,332.5c1,0.5,1.8,1.1,2.3,2.6C821.1,334.6,820.3,334,820.4,332.5L820.4,332.5z"/>
	<path d="M1029.7,433.1c-0.1-1,0.4-1.1,1.4-1C1030.9,432.9,1030.7,433.4,1029.7,433.1z"/>
	<path d="M807.2,354.3c-0.9,0.3-1.8,0.7-3-0.3C805.5,353.9,806.4,353.1,807.2,354.3L807.2,354.3z"/>
	<path d="M885.9,207.5c0.5,0.8,0.7,1.6-0.1,2.3C884.2,208.9,885.9,208.3,885.9,207.5z"/>
	<path d="M820.6,340.7c-0.1-1.3,0.6-1.7,1.6-1.8C822.5,340.3,821.7,340.4,820.6,340.7z"/>
	<path d="M379.4,336.9c-0.4,1.2-0.8,1.8-2,1.6C377.4,337.4,378,337,379.4,336.9z"/>
	<path d="M299.6,415.1c-0.1,0.8,0.1,1.8-1.2,2.1c-0.8-1.2,0-1.8,0.9-2.4C299.4,414.9,299.5,415,299.6,415.1z"/>
	<path d="M304.9,405.1c0.3,1.3-0.2,1.8-0.9,2.8C303.7,406.6,304,406,304.9,405.1z"/>
	<path d="M429.6,201.3c-1.2-0.6-1.2-1.1-0.9-1.7C429.6,199.7,429.5,200.3,429.6,201.3z"/>
	<path d="M872.4,203c-0.9-0.2-0.8-0.7-0.6-1.3C872.7,201.8,872.9,202.2,872.4,203z"/>
	<path d="M341.3,388.5c0-1,0.5-1.2,1.3-1.3C342.6,388.2,342.2,388.5,341.3,388.5z"/>
	<path d="M339,391c0,1-0.4,1.4-1.3,1.5C337.6,391.7,337.9,391.3,339,391z"/>
	<path d="M333.9,376.4c0,1.3-0.4,1.6-1,1.6C332.3,377,333.2,377.1,333.9,376.4z"/>
	<path d="M368.9,378.7c0.3-0.7,0.6-0.9,1.1-0.7C370,378.5,369.7,378.7,368.9,378.7z"/>
	<path fill="#FFFFFF" d="M846.6,252c1.3-0.7,2.4-0.5,3.7-0.4c0.2,2.1,0.5,4.1,0.4,6c-0.6,8.4,2.4,15.6,7.6,22c2.4,3,5.9,3.4,9.2,1.2
		c2.9-1.9,5.2-4.5,7.2-7.2c1.2-1.6,2.3-3.3,3.3-5c1.2-2,3.3-3.6,2.5-6.5c-0.2-0.7,0.7-1.8,1.2-2.7c2.6-5.1,4-10.5,5-16.1
		c1.2-7.3,2-14.7,3.6-22c1.6-7.1,4.6-13.6,6.4-20.6c2.8,0.3,5.2,0.5,8,0.8c-3.4,6.2-6.3,12.4-9.2,18.5c-5.1,10.7-7.3,22.1-6.9,33.8
		c0.3,7.2,0.1,14.7,3.6,21.4c0.6,1.3,0.8,2.9,3,2.3c0.6-1.9-0.4-3.5-0.9-5.2c-1.7-6.3-2.9-12.6-3-19.3c-0.2-12.6,3.5-24.1,8-35.4
		c2.1-5.3,4.8-10.5,7.2-15.7c10.1-0.6,19.3,0.9,27.3,7.5c2.8,2.3,6.4,3.4,8.8,6.4c5.4,6.9,7.9,14.8,9.1,23.6c2,0.5,1.9-1.2,1.8-2.5
		c-0.2-3.3-1.2-6.5-2.6-9.6c-0.8-1.9-2.2-3.5-2.9-6c3.8,2.7,7,5.3,10.1,8.2c0.8,0.7,1.1,1.7,1.3,2.6c0.7,2.8,1.7,5.5,3,8.1
		c1.7,3.5,1.8,7.2,1.4,10.9c-0.7,5.9-1.8,11.8-2.9,17.7c-1.1,5.8-7,12.5-12.8,14.8c-0.8-3.6-1-7.2-1.3-10.8
		c-0.1-1.4,0.4-2.7,1.2-3.7c3.9-5.1,4.6-10.9,3.9-17c-0.2-2.1,0.5-4.2-0.3-6.2c-0.8,0.5-0.6,1.2-0.6,1.8c0.1,3.1-0.7,5.9-1.8,8.7
		c-1,2.5-1.3,5.2-2.2,7.6c-3.3,8.7-1,17.7-2.3,26.5c-1.3,8.7-2,17.4-3,26.1c-0.1,0.9-0.4,1.7-0.8,2.5c-3.4,6.3-4.8,13.3-6.3,20.2
		c-0.9,4.4-3.2,8.2-5.1,12.2c-1,2.2-4.2,2.4-6.9,2.6c-0.3,1.6-1.4,2.5-2.6,3.5c-3.6,3-6.2,6.9-9.4,10.3c-5.2,5.7-7.2,12.7-10.2,19.9
		c-15.4-2.7-30.9-5.4-46.4-8.1c13.1-8.8,24.8-19.2,39.1-25.7c-1-1.5-1.9-0.4-2.9-0.9c2.1-2.2,5-3.5,6.9-6c1.9-2.7,2.7-5.4,0.8-8.6
		c-1.3,1.1,0.2,3.1-1.7,3.9c0.6-3.3-1.6-5.6-2.3-8.4c-1.3-5.9-2.8-11.8-3.2-17.9c-0.6-9.1,0.9-17.9,3.1-26.6
		c0.7-2.7,1.3-5.4,1.8-8.1c0.3-1.8,0.2-1.8-1.5-2.9c-2.9,10.3-8,20.1-7,31.3c0.3,3,0.7,5.9,1.2,8.9c0.3,1.7,0.5,3.5,0.3,5.3
		c-0.4,0.1-0.8,0.1-1.4,0.2c0.7,1.9,2.9,3.1,2.4,5.5c-1.6,0.6-3.7-0.1-5.3,1.4c1.8,1.7,3.9,0.1,5.9,1c0.5,1,1,2.2,1.2,3.6
		c-1.2,0-2.4,0-3.6,0c-3.7-3.1-6.7-6.6-8.9-11c-2.9-5.8-8.3-9.3-13-13.6c-7.4-6.6-15.5-12.5-20.5-21.5c-0.9-1.6-1.2-2.9-0.4-4.3
		c3.6-6.8,3-14.2,2.7-21.5C847.2,260.3,846.3,256.3,846.6,252z"/>
	<path fill="#FFFFFF" d="M820.5,444.3c0,3.2,1,6.2,1.8,9.3c2.7,9.8,5.1,19.7,5.9,29.9c0.3,3.5-0.2,7.1-0.4,10.6
		c0,0.6-0.3,1.3-0.6,1.9c-3.3,5.4-4.6,11.3-5.7,17.5c-2.2,12.8-2.1,25.6-1.7,38.4c0.1,2,0.4,4,0.5,6c0.6,7.5,0.6,7.5-3.1,14.5
		c-1.4,0.2-2.9,0.5-4.6,0.8c-0.5-3,0.6-6.4-2.4-8.9c-1.4,2.6-1,5.4-1.2,8.2c-2.2,0.4-4.1,0.2-6.1-0.5c0.2-2.2,0.4-4.2,0.7-6.9
		c-1.3,2.4-2.1,4.5-2.1,6.7c-0.6,0-1,0.1-1.3,0c-12.2-2.7-10.6-1.7-12.7-12.7c-1.5-7.7-1.6-15.7-2.2-23.5c-0.6-7.4-0.8-14.7-2.3-22
		c-2-10-4.6-19.9-5.5-30.1c-0.7-8.4-1.3-16.8-1.1-25.2c0.1-2.3,1.1-4.4,1.1-7.5c2.7,3.5,1.7,7.1,2.9,10.2c0.9-2.7,0.6-5.4-0.3-8
		c-1.9-5.6-3.7-11.2-3.3-17.4c0.4-6.4,0.3-12.8,0.8-19.2c0.3-4.5,0.5-9.1,1.9-13.5c1.3-4.2,4.8-6.5,8.4-8.5c2.1-1.2,4.5-1.8,6.8-2.8
		c4.3,4,9.1,6.8,15.3,5.4c5.5,4.5,11.3,8.2,18,10.5c3.5,1.2,5.5,4.3,7.2,7.5c3.2,5.8,2.7,12.4,4.3,18.8
		C832.4,436.3,825.1,437.9,820.5,444.3c-0.2,0.2-0.5,0.2-0.9,0.3C819.9,444.5,820.2,444.4,820.5,444.3z"/>
	<path fill="#FFFFFF" d="M883.9,429c4.2-1.4,8.8-0.2,13-2.4c1.3,5.2,2.4,10.3,4.1,15.6c-3.5,0.4-6.5,1.9-9.7,2.7
		c-2.7,0.7-3.5,1.4-3.3,4.1c0.1,1,0.1,2,0.2,3c0,0.1,0.1,0.2,0.3,0.5c0.9-1.6,1.3-3.1,1.3-5c1.5,0.7,1.6,1.9,2.1,2.8
		c-0.5,0.3-0.9,0.6-1.3,0.8c2.3,6.9,3.9,13.9,4.8,21c0.8,6.2,0.4,12.6-0.4,18.9c-1.7,12.8-3,25.7-5,38.5c-1.2,7.9-2,15.9-4.2,23.5
		c-2.6,9.4-2.3,18.5-2.1,27.9c0,1.6,0.1,3.1,0.1,4.7c0,0.3,0,0.7-0.7,0.8c-0.7-2.6-0.9-5.5-2.5-7.9c-0.2,3,0,6.1,0.8,9.2
		c-2.8,0.8-5.3,0.2-8-0.3c-2.8-9.4-11.2-9.2-18.5-11.1c0-0.2-0.1-0.6,0-0.8c4-8.1,4.3-16.6,3.2-25.3c-0.4-3.3-0.9-6.6-1.1-9.9
		c-0.2-3.7-2-6.9-2.5-10.6c-1.5-13.4-3.4-26.8-5.1-40.2c-0.3-2.6-0.9-5.2-1.3-7.9c-1-6.7-2.3-13.4,0.8-20c0.9-1.8,0.8-4.1,0.8-6.2
		c-1.7,2.8-2.4,6.1-3.5,9.6c-0.8-3.2-0.7-6.1-0.8-8.9c0-1.3,0.2-2.5-1.1-3.6c-0.8-0.6-0.8-2.2-0.9-3.4c-0.5-6.1-1.7-12.1-2.4-18.1
		c-0.7-6.7,0.5-13.5,2.5-20c12.7-4.6,25.5-8.3,38.7-9.2c7.2,6,11,13.7,13.8,22.4C891.5,424.2,886.7,424.3,883.9,429z"/>
	<path fill="#FFFFFF" d="M918.2,378.3c1.6-0.3,2.1-1.9,2.8-3c3.1-4.7,6.4-9.3,10.4-13.4c1.6-1.6,3.4-2.8,5.5-3.7
		c1.5-0.7,3.2-1.1,4.6-2c3.5-2.2,6.5-1.2,9.5,0.9c3.5,2.5,6,5.7,7.3,10c2.1,6.9,3.6,13.9,4,21.3c-4.4,1.5-8.9,2.2-13,4.3
		c-2-0.8-4.1-1.2-5.4-2.8c-5.1,0.9-7.7,4.1-9.8,8.3c-1.8,3.7-2.5,7.3-0.7,11.1c1.1,2.4,2.8,4.3,5.3,5.1c3.1,1,6.1,1.4,8.1-2.1
		c4.9,0.8,9.7,1.6,14.7,2.9c-2.4,9.6-6.3,18.2-13.6,24.8c-3.2,3-7.6,3.9-11.6,5.5c-4.6,1.8-8.5,0.7-12.4-1.8c-0.7-0.4-1.3-1.2-2.3-1
		c-0.7,1.1,1.2,1.2,0.7,2.4c-8.5-3.1-15-8.3-18.1-17.1c-1.9-5.4-2.8-11-3.3-16.6c-0.2-2.5-0.2-5.1-1.1-7.5c-0.5-1.5-0.3-3.1,0.2-4.6
		c1.8-5.8,3.1-11.8,5.4-17.4c3.4-8.5,8.8-15.6,15.2-22c3.2-3.2,7-5,11.5-5.3c3.4-0.3,6.7-1.4,10.1-0.9c0.2,0.8-0.3,0.8-0.7,0.9
		c-8,1.7-13.5,6.9-17.9,13.4C921.4,371,919,374.3,918.2,378.3c-0.5,1.1-0.7,2.3-1.3,3.4c-0.5,0.6-0.7,1.3-0.7,2.1
		c0-0.7,0.2-1.4,0.6-2C917.5,380.7,917.8,379.4,918.2,378.3z"/>
	<path fill="#FFFFFF" d="M938.9,337.1c-0.4-1.7,0.7-2.3,2.1-2.8c4.8-1.9,9.7-3.9,14.5-5.8c0.6-0.2,1.2-0.4,1.9-1.2
		c-6.1,1.5-11.7,3.6-17.8,6c1-2.7,0.4-5.5,4.1-6.8c-1-0.3-1.4-0.4-2.2-0.6c3.5-10.2,5.4-20.8,5.9-31.3c4.6-0.8,8.3,1.5,12.5,2
		c1.1,4.9-4.1,8.1-4.7,12.9c5.8-2.6,4.5-8.6,7.3-12.8c0.7-0.3,1.6,0.1,2.7,0.3c-0.3,2.2-0.7,4.4,0.6,6.6c1.3-2.3,1.6-4.6,1.4-7.4
		c-4.3-1.2-8.7-2.3-13.6-3.6c-1.4-1.4-3.3-3.1-5-5.5c5-1.9,8.2-5.4,11-9.5c1.9-2.8,3.2-5.8,3.5-9.2c0.5-6,2.6-11.8,2.6-18.3
		c5.6,6.5,7.8,14.1,10.8,21.3c2.5,6,4.9,12.1,7.8,18c2.4,5,3.1,10.6,4.8,15.9c1.7,5.6,3.5,11.1,5.7,16.6c2.7,6.7,3.7,13.8,4.1,21
		c-6.9,4.1-13.9,8.1-21.9,9.2c-5.5,0.7-11.1,0.2-16.6,1c-3.3,0.5-6.7,1.4-9.8,0.2c-5.9-2.3-12-1.1-18.4-1.9
		C934.2,346.4,937.1,341.9,938.9,337.1c4.8,0.3,9.2-1.6,13.8-2.3c1.2-0.2,2.4-0.2,3.1-0.6C950.4,334.9,944.9,337.2,938.9,337.1z"/>
	<path fill="#FFFFFF" d="M822.3,444.3c6-2.2,11.3-5.2,17-7.9c1.2,3.3,1.2,6.6,1.6,10c0.2,2.2,0.6,4.4,1.6,6.4c0.2,0.5,0.6,1,0.6,1.5
		c-0.2,5.7,1.5,11.2,1.7,16.8c0.6,13.1,2.5,26,5.8,38.7c0.6,2.4,1,4.7,1,7.2c0,7.6,1.6,15,2.9,22.4c1.1,6.1,1.7,12.2,0.4,18.4
		c-0.9,4.1-0.9,8.4-1.1,12.6c-0.1,2.1-0.3,4.2-1.1,6.5c-3.1,0.3-4.1,2.6-4.3,5.5c-0.1,1.7-0.9,3.1-1.9,4.4c-3.1,4-5.2,8.5-7.5,12.9
		c-0.6,1.2-1.1,2.4-2.3,3.5c-1.1-4.5-3.8-8.5-2.9-13.4c0.3-1.7-1.1-3.3-2.1-4.8c-1.8-2.5-2.6-5.2-2.7-8.3c-0.2-4.3-1.3-8.5-5.3-11.2
		c-1.3-16.9-2-33.8,0.1-50.7c0.4-3.5,1.8-6.6,3-9.8c1.7-4.6,3-9.3,4.5-13.9c2.1-6.9,0.8-13.7-1.1-20.3c-1.2-4.2-2.6-8.4-3.4-12.8
		C826,453.3,824.4,448.9,822.3,444.3z"/>
	<path fill="#FFFFFF" d="M763.1,591.4c2.6,0.9,5,1.9,7.4,2.5c1.7,0.4,3.7,0.5,3.9-2.3c-2.9-1.6-6-1.9-9.7-0.9
		c1.6-1.4,2.7-2.5,3.8-3.4c4.7,1.2,9,3.9,14,2.6c-2.9-4.8-7.7-3.7-12.2-4.3c0.1-1.4,1.4-1.9,2.2-2.7c4.8-0.4,9.3,2.5,14.1,0.9
		c-3.4-2.7-7.4-3-11.7-3.5c3.6-0.5,3.7-3.5,4.7-5.8c1.4-3.2,3.6-5.8,5.7-9.1c1.4,3.7,2.2,7.2,2.3,10.6c-0.7,1.2-2.3,1.4-2.2,3.2
		c1.7,0.2,3.3-0.4,4.8-1c3.7-1.7,5.6-1.3,8.4,1.7c3.3,3.4,7.4,4.7,12.2,3.8c1-0.2,2-0.1,3-0.3c2.4-0.4,3.8-1.5,4.8-4.2
		c1.4-3.7,2.7-7.7,4.7-11.3c1.4,0.9,1.2,2.3,1.5,3.4c1.4,5.8,2.2,11.7,5.7,16.8c0.7,1.1,0.7,2.3,0.5,3.5c-0.4,2.7,0.2,5.3,1.3,7.8
		c0.8,2,1.9,4,1.7,6.5c-3.1,6-9.3,6.4-15.2,7.3c-3.9,0.6-7.9,0.9-11.9,0.7c-5.2-0.2-10.1,0.6-15.1,2.9c-6.4,2.9-13.5,4.3-20.4,5.7
		c-5.6,1.2-11.3,1.9-17,2.4c-7.2,0.6-13.8-2-20.6-2.9c-0.9-0.1-1.8-0.6-2.2-1.4c-1.4-3.1-2.2-6.4-1.8-10.1
		c7.9-2.5,15.5-5.6,22.5-10.4c1.3,0.7,2.7,2.3,4.4,0.7c-0.4-1.4-1.9-0.7-2.4-1.6c1.2-0.8,1.2-0.8,5.1,1.3c0.7-0.8,1.5-1.7,2.3-2.6
		c-0.4-1.4-2.4-0.9-2.9-2.3c3.1-0.5,4.9,4.1,8,2.5c0.9-1.3,0-2.4,0.7-3.3c-2-1.3-4.2-0.7-6.2-0.9
		C761.4,592.6,762.4,592.2,763.1,591.4z"/>
	<path fill="#FFFFFF" d="M647.7,317.1c-1.1,1.4-3.1,1.5-4.4,3.2c2,0,3.7-0.6,4.7-1.6c3.8-3.5,8.4-2.6,12.4-1.8
		c12.3,2.4,21.5,13.9,21.7,26.4c0,2.2,0,4.4,0,7c-6.4-1.1-12.6-2.1-18.7-3.3c-3-0.6-6.2,1.1-7,3.9c-0.7,2.2,1.5,5.5,4.2,6.3
		c0.8,0.2,1.8,0,2.4,0.8c-1.9,1.4-4.8,1.1-6.6-0.7c-3.1-3.2-2.9-7.2,0.5-11.3c2.2-2.6,5.5-2.3,10.4,1c-0.4-3.1-1.1-3.7-3.9-3.8
		c-0.6,0-1.1,0-1.7,0c-5.2-0.5-6.6,0.2-8.6,4.1c-1.9,3.7-2.1,7.2,1.1,10.3c1.1,1.1,1.7,2.5,3.3,3.1c3.4,1.2,5.3,0.8,7.6-2.5
		c4.9,0.9,9.9,1.9,15.6,2.9c-3.1,4.6-5.7,9-8.9,13c-5.8,7-14,7.8-22.1,8.8c-3.1,0.4-6.4-0.1-9.5-0.9c-6.5-1.6-10.8-5.7-13.7-11.6
		c-3.7-7.5-5-15.5-4.6-23.8c0.2-3.1,1-6,2.5-8.8c2.7-5.1,5.1-10.4,9-14.7C637.3,318.8,642.5,317.8,647.7,317.1z"/>
	<path fill="#FFFFFF" d="M867.2,599.1c-1.2-4.9-10.6-8.6-19.4-8.1c0.5-3.8,2.9-6.9,3.7-10.5c2.5-1.1,5.1-0.8,7.5-0.4
		c2.4,0.4,4.7,1.2,7,2.1c1.8,0.7,2.9,2.3,3.5,4.2c0.9,2.8,0.9,5.7,0.8,8.7c2.9,2.7,6.6,4,10.2,5.4c1.2,0.5,2.2,0,3-0.9
		c1.4-1.5,2.7-3.1,3.2-5.9c1.4,3.5,3.2,5.9,5.2,8.1c1.3,1.4,2,3.2,2.3,5.1c0.8,4.8,1.8,9.5,4.1,13.8c-3.5,4.7-8.2,7.3-13.6,9
		c-7.1,2.3-14.3,4.9-20.4,9.5c-2.2,1.6-5,1.3-7.4,2.3c-3.9,1.6-8,2.6-11.9,4.2c-4.4,1.7-9.2,1-13.8,0.7c-6.1-0.3-12.1-1.1-18-2.8
		c-2.2-0.6-4.5-0.7-6.4-2.3c-0.2-3.5-0.4-7,0.1-10.8c9.8-2.8,17.2-9.4,24.2-16.5c4.7,3,9,6,14.7,6.2c-0.6-3.5-1.3-3.9-13-7.2
		c1.5-1.9,3-3.8,4.6-5.8c6.3,1.5,12.3,3.3,18.1,5.7c1.4-2.5-0.1-3.4-1.3-4.3c-3.4-2.2-7.1-3.7-11.2-3.6c-1.2,0-2.4,0-3.8,0
		c0.2-2.1,1.4-1.9,2.9-1.6c6.2,1.1,12.6,0.6,18.7,2.4c0.2,0.1,0.5-0.3,0.9-0.5c0.2-2.4-2.1-2.6-3.4-4c2.6-0.4,4.9,1.9,7.3,0.6
		c-2.2-4.6-11.6-6.8-21.2-5.1c0.3-1.3,1.2-2.3,2-3.6C853.4,594.9,860.6,595.6,867.2,599.1z"/>
	<path fill="#FFFFFF" d="M996.2,373.8c-1.2,3.6-1,4,1.6,5.4c1.8,1,3.9,1.5,5.9,3.2c-3.7,1.1-7,0.3-9.9-1.5
		c-7.4-4.5-15.8-6.7-23.3-10.8c-0.7-0.4-1.5-0.9-2.3-0.2c-0.2,1,0.4,1.3,1,1.6c3.1,1.5,6.1,3.2,9.4,4.3c8.3,2.7,13,8.7,16.3,16.3
		c0.7,1.7,1,3.5,2.5,4.9c0.8-4.1-1.7-7.3-3.3-11.2c4,1.6,7.8,1.2,11.8,0.4c0.6,7.2-2.2,13.3-4,19.9c-9.8-1.7-19.2-3.3-28.7-5
		c1.2-0.9,2.3-0.7,3.5-0.6c3.6,0.3,6.1-1.6,6.7-5c0.5-2.5-1.9-5.8-4.9-6.6c-4.2-1.1-8.5-1.5-13-0.7c0-2.2,0-4.1,0-5.8
		c0.3-1.1,1.5-0.9,1.9-1.7c-0.2-0.2-0.3-0.5-0.5-0.7c-0.8-0.5-1.7-0.9-2-2c-1.8-6.6-4.1-13.1-8.3-18.9c6.8-1.7,13.3-2,20-2.1
		c6.8-0.1,12.5,3.5,18.9,4.8c-1.2-2.6-4.1-2.6-6.5-4.3c2.1-0.4,3.6-0.7,5.5-1.1c2.6,3.4,6.2,5.3,10.3,6.7c3.6,1.2,5.2,4.2,5.4,7.8
		c0.3,4.6,0.5,9.3-0.9,13.9c0.1-5.4-3.8-6.7-7.9-7.9C999.2,376.4,997.1,376.3,996.2,373.8z"/>
	<path fill="#FFFFFF" d="M935.6,460.5c0.7-3.6,1.4-7.1,2.2-10.7c0.3-1.6,1.1-2.7,2.7-3.5c12.6-6.1,20-16.3,22.9-30.1
		c1.4,0.6,2.8,1.1,4.2,1.8c3.1,1.5,6,1.6,9.6,0.7c3.9-1,8,0,10.2,4c1.9-0.2,0.4-1.8,1.4-2.4c1.7,0.3,3.5,0.7,5.3,1
		c0,1.4-0.8,2.2-1.6,2.6c-4,1.9-6.9,5.5-11.2,7c-2,0.7-4,1.3-6.1,0.5c-2-0.8-3.7,0.3-5.2,1.4c-2.9,2-5.9,4-9.5,4.5
		c-0.3,0-0.7,0.2-0.9,0.4c-4.8,4.6-11.3,6.9-15.9,11.7c-1.1,1.1-1.7,2.9-2.3,4.4c-1.8,4.1-4.1,7.9-6.9,11.3
		c-0.5,0.6-1.1,1.1-1.4,1.8c-3.2,7.4-9.4,12-15.4,17c-0.6-2.3-1.1-4.7-1.8-7.1c-1.6-5.5-3.7-10.9-5.6-16.3
		c-4.4-12.8-10.3-25.2-12.7-38.7c-1.1-6.3-3.2-12.2-7.3-17.2c-0.9-1.1-1.5-3-3.8-2.1c-0.3,0.1-0.9-0.8-1.2-1.8
		c4.6,0.2,8.6,1.5,12.9,2.2c0.3,5.6,0.3,10.9,1.5,16.1c1.8,7.4,3.6,14.6,9.1,20.4c0.4,0.5,0.7,1.1,0.9,1.8
		c2.5,10.2,9.4,16.7,18.1,21.6c-6.2-6.2-13-12-16.8-20.7c8.4,3.8,16.3,7.7,25.8,6.8C936,452.4,934.3,456.4,935.6,460.5z"/>
	<path fill="#FFFFFF" d="M728,372.3c0.7-1.5,2.2-2.2,3.6-1.6c4.8,2.5,10.2,0.7,15.2,2.1c3.9,1.1,7.9,2.2,11.8,3c9,1.8,18,3.5,27,5.3
		c3.9,0.8,7.8,1.5,11.7,2.3c1,0.2,2.1,0.7,3.3-0.5c-0.8-0.9-2-0.8-3-1c-13.7-2.7-27.3-5.4-41-8.1c-3.3-0.6-6.2-2.4-9.7-3
		c-4.5-0.7-9-0.2-13.6-1.4c1.4-3.1,2.3-6.3,2-9.6l-0.1,0.1c6.9,3.6,14.6,3.9,22,5.2c14.4,2.7,28.8,5.1,43.5,7.6
		c-1.2,3.9,0.6,7.7,0.2,11.6c-7,3.4-14.2,3.9-21.7,2.8c-5.1-0.8-10.2,0.1-15.2,1c-5.3,0.9-10.6,0.7-15.9,0.8c-2.2,0-4-1.7-5.6-3.3
		c-1.1-1.1-2.1-2.3-3.1-3.5c0.2-0.4,0.4-0.9,0.6-1.3c-2.7-2.3-5.4-4.1-9.3-3.5c-1.4,0.2-3.1-0.3-3.6-2.2
		C728.1,374.3,728.3,373.4,728,372.3z"/>
	<path fill="#FFFFFF" d="M943.4,397.6c29.7,5.2,59.3,10.4,89.2,15.6c-0.3,2.3-2.4,3.8-2.5,6c-0.2,2.3,0.4,4.3,2.4,6.5
		c-0.5-4.2-1.6-8.2,2.4-11.3c0.5,2.6,1.1,4.8,1.3,7c0.3,3.6-2.2,5.8-5.8,5.1c-9.9-1.9-19.8-3.8-29.7-5.7
		c-14.9-2.9-29.8-5.7-44.6-8.6c-4.5-0.9-8.9-1.7-13.3-2.6C939.3,405.3,939.4,401.6,943.4,397.6z"/>
	<path fill="#FFFFFF" d="M846.7,378.8c-4.7-2.4-10.5-1.3-14.5-5c-1.8,2.8-3.4,5.5-7.1,5.7c2,2.2,3.4,1.8,8.2-2.4
		c0.7,1.3,1.9,1.4,3.2,1.7c19.2,4,38.6,6.8,57.8,10.4c1.7,0.3,3.4,0.6,5.4,1c0,3.8-1.2,7.1-1.6,10.9c-25.4-4.5-50.4-9.8-75.4-14.9
		c-0.1-2.6,0.8-5,0.1-7.5c-0.3-1,0.9-2,1.6-2.7c1.6-1.7,3.4-3.2,4.6-5.2c0.7-1.2,1.9-1.5,3.1-1.6c4.4-0.4,8.2,1.2,11.7,3.7
		C845.7,374.2,845.6,376.8,846.7,378.8z"/>
	<path fill="#FFFFFF" d="M796.5,390.9c2.8-4,2.8-4,9.4-4.9c3.4,4.1,5.1,4.7,8.7,2.9c2.9,2.2,5.3,0.3,7.7-1
		c9.3,1.4,18.3,3.6,27.3,5.7c0,2.4-2.5,4-1.6,6.5c2.1-0.7,1.8-3,3.1-4.3c1,1.3,0.9,3,2.4,4.2c1-2-1-3.6-0.5-5.8
		c8.7,1.6,17.4,3.3,26.1,4.9c0.1,0.6-0.3,0.6-0.5,0.6c-11,0.9-21.6,3.6-31.8,7.4c-5.4,2-9.8,1.7-14.9-0.5c-3.4-1.4-6.8-3.1-10.4-4
		c-3-0.8-4.9-3.4-7.4-4.9c-2.2-1.3-4.3-2-6.8-2C803.1,395.7,799.5,393.9,796.5,390.9z"/>
	<path fill="#FFFFFF" d="M915.5,487.4c-2.5-0.5-4.3-1.8-6.1-3c-3.7-2.5-6.3-6.2-9.3-9.4c-1.6-1.7-1.6-4-1.8-6.2
		c-0.7-7.5-2.9-14.7-5.5-21.9c2.9-1.1,6.1-1.6,9.4-1.7c1.2,1.6,2.1,3.4,2.5,5.1c1.8,8.3,5.8,15.8,8.1,23.8
		C913.9,478.4,915.3,482.7,915.5,487.4z"/>
	<path fill="#FFFFFF" d="M712.3,357.3c-0.6,2.4-0.3,4.3,2.2,5.3c1.1,0.4,0.9,1.6,1.1,2.8c-2,0.3-3.9,0.1-5.8-0.3
		c-15.5-3.6-31.2-6.1-46.7-9.3c-0.5-0.1-1.1-0.1-1.6-0.3c-2.3-0.6-3.4-2.2-3-4c0.5-2.2,2.1-3.3,4.4-2.9c6.2,1,12.4,2.2,18.6,3.2
		C691.6,353.6,701.7,355.4,712.3,357.3z"/>
	<path fill="#FFFFFF" d="M942.2,395.7c-2.9,2.6-4.8,5.7-3.9,9.7c0.8,3.6,2.8,6.2,7.1,6.6c-1,1.4-2.5,0.9-3.4,1.8
		c-2.4-1.2-4.6-2.2-5.9-4.7c-1.3-2.5-1.6-4.8-0.4-7.3c0.9-2,1.7-4.1,3-5.9c2.6-4,5.8-4.4,9.2-0.9c0.3,0.3,0.6,0.6,0.7,0.7
		c7.1-4,14.6-5.1,22.4-5.1c3.5,0,7.4,0.1,9.9,3.7c-0.1,2.6-1.4,3.8-3.9,3.9c-2.9,0.1-5.7,0.7-8.4,1.6c-1.7,0.6-3.4,0.1-4.9-0.3
		C956.6,397.7,949.5,397.2,942.2,395.7z"/>
	<path fill="#FFFFFF" d="M735.3,359.8c-0.8-0.3-1.3-0.1-1.4,0.7c-0.2,1.4-0.4,2.8-0.5,4.3c-0.2,2.2-1.2,3.5-3.2,3.5
		c-4.1-7.7,0.5-12.8,5.1-18.4c3.4,1.3,7.1,1.1,10.5,2c3,0.7,5.7,2.3,6.9,5.6c0.6,1.8,1.3,3.5,3,5.3c-3.2,0-5.8-0.7-8.2-1.4
		c-0.6-0.9,0.6-1.2,0.3-2.1c-1.6-0.2-3,0.6-4.4,1.3c-2.3-1.2-5.4-1.4-5.1-5.7C736.6,356.8,735.9,358.3,735.3,359.8L735.3,359.8z"/>
	<path fill="#FFFFFF" d="M815.1,387.3c0.1-1.9-0.4-3.6-0.7-5.3c-0.4-2.3,0.1-4.2,1.4-6.2c2.1-3.1,4.2-6.2,6.4-9.4
		c2.6-0.4,5.1,0,7.9,1.4c-3.3,2.3-5.8,5-7.9,8.1c-0.8,1.2-1.2,2.2-0.8,3.7c0.5,1.8-0.1,3.7-0.5,5.6
		C820.2,388.5,818.9,389.1,815.1,387.3z"/>
	<path fill="#FFFFFF" d="M813.7,386.8c-3.2,1.2-5.1,0.3-5.9-2.5c-0.2-0.8-0.5-1.7-0.9-2.5c-1.2-2.4-0.5-4.6,0.8-6.6
		c1.6-2.4,3.3-4.6,4.5-7.3c1.3-2.8,3.2-3.2,8.5-2.5c-2.1,3.3-4,6.6-6.4,9.6c-1.9,2.3-2.2,4.6-1.6,7.3
		C813.1,383.8,813.4,385.2,813.7,386.8z"/>
	<path fill="#FFFFFF" d="M620,341.2c0,2.2,0,3.9,0,5.8c-3.3,0.3-6.2-0.9-9.2-1.3c-1.7-0.2-3.5-0.6-5.2-1c-1.7-0.4-3.4-1.1-3.7-3.2
		c1.1-2.5,2.9-3.1,5.6-2.5C611.5,339.9,615.7,340.4,620,341.2z"/>
	<path fill="#FFFFFF" d="M732.1,350.1c-1.1,2.9-3.2,4.8-4.4,7.3c-1,2-1.3,3.9-0.7,6.1c0.6,2.4,1.3,4.8,0.8,7.8
		c-5.4-1.8-4.2-7.2-7-10.1c2-2.7,3.2-5.5,4-8.5C725.4,350.2,727.8,349.5,732.1,350.1z"/>
	<path fill="#FFFFFF" d="M813,364.5c-2.8,3.2-4.1,6.7-6.2,9.8c-2,2.9-3.5,5.9-1.5,9.4c-1,0.5-1.9-0.1-1.9-0.5c0-2.7-1.6-5.2-1.3-7.8
		C802.6,371.2,809.1,364.6,813,364.5z"/>
	<path fill="#FFFFFF" d="M815.7,575.8c0.3,1.2,0,2.4-0.1,3.6c-5.2,3.1-9.1,1.6-15.7-4.5C805.2,575.6,810.4,576.4,815.7,575.8z"/>
	<path fill="#FFFFFF" d="M883,590c-0.8,2.7,0.1,5.1-1.7,7.4c-3-0.9-6.1-1.4-8.8-3.2c0.4-1.5,1.3-2.6,1.2-4.2
		C876.8,589.8,879.6,591.1,883,590z"/>
	<path fill="#FFFFFF" d="M721.9,368.8c-1,0.4-1.7,0.5-2.3,0.4c-4.3-5.3-2.1-10.6,0-15.9c0.8-2.1,1.9-2.7,4.3-3c-1.5,3-2.2,6.2-4,9
		c-0.6,1-0.7,1.9-0.2,3.1C720.5,364.3,721.1,366.5,721.9,368.8z"/>
	<path fill="#FFFFFF" d="M730.1,379.2c3.6-0.4,6.1,0.1,7.7,3.7c1.2,2.5,3.3,4.6,5.9,6.4C739.1,389.3,733,384.8,730.1,379.2z"/>
	<path fill="#FFFFFF" d="M892.1,337.8c-0.2,1.9-0.2,1.9-1.7,2.9c0.5,1.4,1.5-0.1,2.3,0.6c0,1.6,0.6,3.2,0.8,5
		c-1.8-2.8-4.6-4.9-6.6-8.1C888.7,338,890.3,337.9,892.1,337.8z"/>
	<path fill="#FFFFFF" d="M994.5,349.3c1.3,0.4,0.5,2.5,2.2,2.7c1.5-1,0.6-2.4,0.8-4c0.5,1.2,1.6,1.5,2.7,2.5c-1.9,2.9-5.2,2.4-7.5,4
		c-0.8-1.1-0.7-1.9-0.5-2.8c0.9,0.1,1,1.6,2.2,1.1C995.3,351.6,993.6,350.5,994.5,349.3z"/>
	<path fill="#FFFFFF" d="M718.4,350.4c-0.6,3.7-2.9,6.6-3.3,10.3C713.4,357.8,715.1,352.7,718.4,350.4z"/>
	<path fill="#FFFFFF" d="M1003.7,360.1c-0.3-0.1-0.6-0.2-0.8-0.3c-1.7-1.2-3.4-2.4-5.3-3.7c0.9-1.2,2.2-1.4,3.5-1.9
		C1002.2,356,1002.7,358,1003.7,360.1z"/>
	<path fill="#FFFFFF" d="M987.8,355.6c-0.7-1.9-0.6-3.4,1.7-3.8c0.8,0.8,0.8,1.8,1.2,2.7C990.1,355.5,989.1,355.6,987.8,355.6z"/>
	<path fill="#FFFFFF" d="M816.6,162.9c1.7,1.5,2.4,3.4,2.7,5.6C817.9,166.9,817.1,164.9,816.6,162.9z"/>
	<path fill="#FFFFFF" d="M789.9,225.1c1.8-1.6,4.3-2,6-3.8C794.9,224.2,792.4,224.6,789.9,225.1z"/>
	<path fill="#FFFFFF" d="M830.7,195.7c-1.8-1.8-1.8-3.6-2.1-5.7C830.4,191.5,831.6,192.9,830.7,195.7z"/>
	<path fill="#FFFFFF" d="M816.9,161.1c-2.1,0.2-2.7-1.6-3.8-2.6C814.8,158.6,816.8,158.3,816.9,161.1z"/>
	<path fill="#FFFFFF" d="M836.2,152.3c2,0.3,3.8,1.1,5.9,2.2C839.2,155.6,838,153.3,836.2,152.3z"/>
	<path fill="#FFFFFF" d="M791,572c1.4,0.5,2.5,1,4.1,1.6c-1.6,0.4-2.7,0.7-3.7,1C790.5,573.9,790.7,573.1,791,572z"/>
	<path fill="#FFFFFF" d="M1000.1,344.9c2.3,0.9,2.9,2.5,1.9,4.7C1001.4,348,1000.7,346.4,1000.1,344.9z"/>
	<path fill="#FFFFFF" d="M824.7,169c1-0.1,1.5,0.4,2.2,0.9c-0.1,0.8-0.3,1.6-0.5,2.6C824.5,171.7,824.8,170.3,824.7,169z"/>
	<path fill="#FFFFFF" d="M835.9,411.3c1.1-0.4,1.9,0,2.8,0.3c0.2,1-0.9,2,0.1,3c-0.2,0.1-0.5,0.1-0.7,0.2
		C837.4,413.7,836.7,412.6,835.9,411.3z"/>
	<path fill="#FFFFFF" d="M835.7,183.8c1.2-1.1,0.7-3.7,3.1-4.2C839,182,837.2,182.8,835.7,183.8z"/>
	<path fill="#FFFFFF" d="M822.2,187.5c-1.3-1.3-2.3-2.7-2-5.4C821.4,184.2,821.9,185.8,822.2,187.5z"/>
	<path fill="#FFFFFF" d="M786.6,197.1c0.9,2,0,3.6-1.1,5.7C785,200.3,786.1,198.7,786.6,197.1z"/>
	<path fill="#FFFFFF" d="M825.9,178.9c-0.9-1.3-2.3-2.5-1.2-4.5C824.8,176,825.7,177.4,825.9,178.9z"/>
	<path fill="#FFFFFF" d="M958.9,356.7c-1.8,1-3.1,1.3-5.1,0C955.7,356.7,957.1,356.7,958.9,356.7z"/>
	<path fill="#FFFFFF" d="M831.1,209.8c0.9-2.7,2.4-1.2,3.7-0.7C833.7,209.3,832.5,209.5,831.1,209.8z"/>
	<path fill="#FFFFFF" d="M816.7,194.8c1.5,0.3,1.6,1.2,1.7,2.1c-0.4,0.7-1,0.8-1.7,0.9C816.3,196.8,816.2,195.8,816.7,194.8z"/>
	<path fill="#FFFFFF" d="M803.9,211.1c1.1,1.9-0.3,2.5-0.9,3.6C802.3,213.3,802.9,212.4,803.9,211.1z"/>
	<path fill="#FFFFFF" d="M801.5,195.2c0.2-1.1,0.5-2.2,0.7-3.3c0.3,0.1,0.5,0.1,0.8,0.1C802.7,193.2,802.8,194.3,801.5,195.2z"/>
	<path fill="#FFFFFF" d="M808,195.1c0.3,1.1-0.5,1.5-0.9,2.1C806.8,196.2,806.7,195.3,808,195.1z"/>
	<path fill="#FFFFFF" d="M787.9,186.3c-0.4-1.1,0-2.2,0.1-3.3C789.2,184.1,789.2,184.1,787.9,186.3z"/>
	<path fill="#FFFFFF" d="M865.6,186.8c0.5-0.6,0.8-1,1.1-1.4c1,0.5,0.8,1.3,1.2,2C866.9,188.1,866.5,187.4,865.6,186.8z"/>
	<path fill="#FFFFFF" d="M983.4,354c0,0.7,0.1,1,0.1,1.3c-1,0.5-1.8,0.2-2.8-0.3C981.5,354.3,982.4,354.4,983.4,354z"/>
	<path fill="#FFFFFF" d="M818.7,211.2c-0.3-1-0.8-1.7,0.1-2.3C820,209.7,820,209.7,818.7,211.2z"/>
	<path fill="#FFFFFF" d="M798.1,172c-0.1,1.1-0.5,1.9-1.4,3C796.5,173.4,797.4,172.7,798.1,172z"/>
	<path fill="#FFFFFF" d="M834.4,185.1c1.1,0.3,1.4,0.9,1.2,2C834.8,186.7,834.5,186.2,834.4,185.1z"/>
	<path fill="#FFFFFF" d="M848.4,162.8c-0.2-0.8-0.1-1.4,0.4-2.1C849.7,161.6,850.3,162.4,848.4,162.8z"/>
	<path fill="#FFFFFF" d="M832.1,188.2c0.8,0.4,1.4,1,1.4,2C832.3,190.1,832.5,188.9,832.1,188.2z"/>
	<path fill="#FFFFFF" d="M813,190.7c-1.3-0.6-1.2-1.4-1.3-2.4C812.9,188.8,812.4,189.8,813,190.7z"/>
	<path fill="#FFFFFF" d="M809.1,221.3c-0.5,1-1.2,1.7-2.6,2.4C807.2,222.3,807.8,221.4,809.1,221.3L809.1,221.3z"/>
	<path d="M728,372.3c1.4,1.3,1.2,2.2-0.7,2.7C727.3,374.1,727.6,373.2,728,372.3z"/>
	<path fill="#FFFFFF" d="M805,176.1c-0.9-0.6-1.4-1.3,0-2.3C805.3,174.6,805.4,175.3,805,176.1z"/>
	<path fill="#FFFFFF" d="M818.3,176.1c0.9,0.7,0.7,1.2,0.3,1.6C817.6,177.5,818,176.9,818.3,176.1z"/>
	<path fill="#FFFFFF" d="M801.4,181.5c-0.4-1.1,0.1-1.6,0.7-2.3C802.7,180.1,802.3,180.8,801.4,181.5z"/>
	<path fill="#FFFFFF" d="M852.9,207.9c-1.1,0.2-1.5-0.1-1.5-1C852.3,206.5,852.4,207.3,852.9,207.9z"/>
	<path fill="#FFFFFF" d="M795.2,201.5c0.5-1,0.5-1.7,1.1-2.1C796.8,200.3,796.6,200.9,795.2,201.5z"/>
	<path fill="#FFFFFF" d="M866.4,193c0.7-0.9,1.3-1.1,1.8-0.1C867.7,193.5,867.1,192.9,866.4,193z"/>
	<path fill="#FFFFFF" d="M858.6,176.9c-0.1-1.1,0.2-1.3,0.6-1.5C860.1,176.1,859.4,176.3,858.6,176.9z"/>
	<path fill="#FFFFFF" d="M844.1,172.7c0.2,0.6,0.3,1.2,0,2.1C843.8,173.9,843.7,173.3,844.1,172.7z"/>
	<path fill="#FFFFFF" d="M816.2,202.4c-0.4-0.4-1.1-0.7-0.6-1.6C816.4,201.1,816.6,201.7,816.2,202.4z"/>
	<path fill="#FFFFFF" d="M809.2,221.4c-0.1-0.9,0.5-1.3,1.1-1.8C810.7,220.7,809.8,220.9,809.2,221.4L809.2,221.4z"/>
	<path fill="#FFFFFF" d="M827.1,163.5c0.6-0.1,1,0.2,1.4,1C827.8,164.2,827.2,164.2,827.1,163.5L827.1,163.5z"/>
	<path fill="#FFFFFF" d="M827.2,163.4c-0.6,0.1-1-0.2-1.3-0.8C826.6,162.5,827,162.8,827.2,163.4L827.2,163.4z"/>
	<path fill="#FFFFFF" d="M842.4,199.9c0.8-0.6,1.1-0.3,1.3,0.2C843,200.8,842.9,200.1,842.4,199.9z"/>
	<path fill="#FFFFFF" d="M408.7,381.6c7.1-5.2,13.4-11.4,20.4-16.8c3.1-2.4,6.4-4.3,9.7-6.4c4.9-3.2,8.9-7.6,13.5-11.3
		c3.7-3.1,4-5.8,2-9.7c-1.1,0.9,0.3,2.7-1.1,3.5c-2.2-7.1-4.5-14.1-5.4-21.6c-0.9-7.4-0.9-14.8,0.6-22.2c1.1-5.2,2.4-10.4,3.5-15.5
		c0.3-1.6,1.2-3.5-0.8-4.6c-1,0.3-1,0.9-1.1,1.6c-0.5,3.9-2.1,7.4-3.4,11c-3.3,8.6-3.5,17.5-1.9,26.5c0.3,1.7,0.3,3.5,0.7,5.3
		c0.3,1.3-0.7,1.3-1.4,1.6c0.7,1.8,2.8,2.9,2.3,5.3c-1.6,0.6-3.7-0.2-5.3,1.6c1.9,1.4,4-0.1,6.1,0.9c0.3,1,0.7,2.2,1.2,3.6
		c-1.5,0-2.6,0-3.7,0c-3.8-3.2-6.8-6.8-9-11.1c-2.9-5.8-8.4-9.3-13.1-13.5c-7.3-6.5-15.3-12.4-20.2-21.2c-0.9-1.7-1.3-3.1-0.5-4.6
		c3.5-6.7,3-13.9,2.6-21.2c-0.2-4.2-1.2-8.3-0.8-12.5c1.1-0.7,2.2-0.6,3.6-0.3c0.2,1.8,0.6,3.6,0.5,5.4c-0.7,8.6,2.2,15.8,7.4,22.4
		c2.4,3,5.9,3.5,9.2,1.5c3.1-1.9,5.4-4.6,7.5-7.5c1.3-1.8,2.5-3.7,3.7-5.5c1.1-1.7,2.7-3.2,2-5.7c-0.2-0.7,0.6-1.8,1.1-2.7
		c3.2-6,4.5-12.4,5.5-19c0.9-5.8,1.6-11.6,2.7-17.4c1.6-7.6,4.7-14.7,6.9-22.3c2.6,0.2,5.1,0.5,7.9,0.7c-3.2,6.3-6.3,12.5-9.3,18.7
		c-5,10.6-7.2,21.9-6.8,33.5c0.2,7.4,0.1,14.9,3.7,21.8c0.6,1.2,0.9,2.6,2.6,2.3c0.9-0.8,0.5-1.5,0.3-2.2c-0.8-3.2-1.8-6.4-2.6-9.6
		c-2.2-9.3-1.7-18.5,0.2-27.7c2.1-10.1,6-19.4,10.3-28.7c1.2-2.5,2-5.1,3.7-7.4c5-0.2,10-0.1,14.9,1.3c0.2,0.1,0.4,0.1,0.6,0.1
		c7.4,2.2,13.7,6.6,19.1,11.6c6.9,6.4,9.1,15.3,10.2,24.6c2.2,0.2,2-1.5,1.9-2.8c-0.4-4.1-1.7-8-3.8-11.6c-0.6-1-1.3-2-1.6-3.7
		c3.7,2.7,7.1,5.3,10.1,8.3c0.8,0.7,1,1.7,1.2,2.7c0.7,2.9,1.8,5.7,3.1,8.4c1.5,3.1,1.6,6.3,1.3,9.7c-0.7,6.2-1.8,12.3-3,18.4
		c-1.1,5.8-6.7,12.3-12.8,14.9c-0.9-3.7-1-7.4-1.3-11.1c-0.1-1.6,0.8-3,1.7-4.2c3.4-4.7,4-10,3.5-15.5c-0.2-2.3,0.5-4.6-0.3-6.9
		c-1,0.4-0.7,1.3-0.7,2c0,2.8-0.7,5.5-1.7,8.1c-1,2.6-1.4,5.4-2.3,7.9c-3.2,8.7-1.1,17.7-2.3,26.5c-1.2,8.7-2,17.4-3,26.1
		c-0.1,0.9-0.4,1.8-0.8,2.5c-2.6,5.1-4.3,10.4-5.4,16c-0.8,3.9-1.9,7.7-3.7,11.3c-2.5,5-4.1,10.3-5.2,15.7
		c-0.8,4.4-3.6,7.5-6.2,10.8c-1.9,2.5-4.8,4.2-7.4,6.2c1.3-3.8,3.7-7,6.1-10.2c-1.5-0.7-2,0.3-2.4,0.9c-1.4,1.9-2.9,3.7-3.8,5.8
		c-1.5,3.5-4.1,5.8-7.3,7.3c-3.7,1.8-6.7,4.7-10.2,6.8c-6.9,4.1-14.8,6.1-21.8,9.9c-4.7,2.6-9.5,5.1-13.8,8.2c0.4,1.5,1.3,1.5,2.1,1
		c3.6-2.3,7.8-3.7,11.4-6.1c2.1-1.4,4.6-2,6.7-2.8c4.7,2.6,8.3,5.9,10.7,10.4c2.2,4.2,4.8,8.2,5.7,13.2c-4.8,0.3-9.6,0.3-12.3,5.1
		c3.2-1.1,6.6-0.6,9.8-1.3c3.2-0.7,4.3-2.2,3.7-5.4c-1-5.5-2.6-10.8-5.6-15.5c-2.1-3.3-4.7-6.1-8.7-7.6c7.6-3.9,15.1-7.5,21.6-12.8
		c4-3.2,8.4-5.6,12.7-8.2c4.9-3,9-6.8,10.6-12.9c1.5-5.4,2.8-11,5.1-16.1c1.9-4.1,3.8-8.2,5.7-12.3c4.7,0.4,9.1-1.5,13.7-2.2
		c1.2-0.2,2.4-0.1,3.1-0.6c-5.4,0.7-10.9,3-16.9,2.9c-0.4-1.7,0.7-2.3,2.1-2.8c4.8-1.9,9.7-3.9,14.5-5.8c0.6-0.2,1.2-0.4,1.9-1.2
		c-6.1,1.5-11.7,3.5-17.2,5.8c0.2-4.4,0.4-4.7,2.9-6.5c0.1-1.1-0.8-0.2-1.2-0.6c0.7-5.3,3-10.3,3.9-15.6c0.9-5.3,1-10.8,1.9-15.8
		c4.5-0.8,8.2,1.5,12.4,2c0.9,4.9-3.9,8.1-4.9,13.1c6-2.7,4.6-8.8,7.7-13.1c0.5-0.3,1.4,0.4,2.7,0.2c-0.6,2.5-0.7,4.7,0.4,7
		c1.2-2.4,1.7-4.7,1.4-7.5c-4.3-1.2-8.7-2.3-13.5-3.6c-1.4-1.4-3.3-3-4.7-5c0.2-1.1,1.2-1.1,1.9-1.6c6.7-4.2,11.3-9.9,12.2-18
		c0.7-5.8,2.5-11.4,2.9-17.5c1.9,3,4.4,5.7,5.7,9c4.2,10.2,8.3,20.5,12.8,30.6c2.2,4.9,3.2,10.3,4.7,15.5c1.5,5.4,3.2,10.8,5.5,16
		c2.3,5.1,2.9,10.6,3.7,16.1c0.3,1.6,0.3,3.3,0.5,5.2c-8.7,5-17.4,10-28,9.5c-4.7-0.2-9.5,0.3-14.1,1.3c-0.6,0.1-1.4,0.2-2,0.1
		c-5.4-1.1-10.6,0.1-15.8,1c-1.7,0.3-3.4,0.3-5.3,0.4c1.4,2.3,1.4,2.3,5.7,1.9c2.1-0.2,4.2-0.6,6.4-0.9c1.5,1.7,3.3,3,5.7,1.7
		c8.5,2.2,16.8-1.8,25.3-0.8c5.4,0.6,10.3,2.5,15.3,4.3c1,0.3,1.9,1.2,3.3,0.3c-1.6-2.3-4.4-2.4-6.8-4.1c2.1-0.4,3.6-0.7,5.4-1.1
		c2.7,3.4,6.3,5.3,10.4,6.7c3.6,1.2,5.1,4.2,5.3,7.8c0.3,4.6,0.5,9.3-0.9,14.3c-0.2-7.9-6.4-7.5-11.7-9.5c-0.2-0.1,0.1-1.6-1.4-1.9
		c0,0.1-0.3,0.4-0.3,0.7c-0.4,2.3,0.2,4,2.7,4.9c1.8,0.7,3.7,1.4,5.5,3c-3.2,1-6.2,0.6-8.7-0.9c-3.6-2.3-7.6-3.8-11.5-5.5
		c-5.3-2.3-10.5-4.8-15.8-7c-5.1-2.1-10.5-2.1-15.9-2.7c1.2,1.2,2.7,1.3,4.2,1.7c1.5,0.4,3,0.8,4.5,1c4,0.5,7.7,1.9,11.3,3.6
		c3.2,1.5,6.4,3.1,9.7,4.4c6.8,2.7,10.3,8.4,13.2,14.6c0.8,1.8,1.5,3.6,2.6,5.3c1.1-4.1-1.7-7.2-3.1-11.2c4,1.7,7.8,1.1,11.7,0.5
		c0.4,2.9,0.1,5.6-0.6,8.1c-1.9,6.8-3.5,13.8-6.5,20.1c-1.9,4.2-4.1,8.9-9.2,10.8c-1.2,0.4-2.1,1.7-3.1,2.4c-3.3,2.4-6.8,4.2-11.2,4
		c-1.4-1.8-1.9-4.1-2.9-6.6c3.8,0.6,7,2.7,10.7,2.3c-5.5-3.7-12.2-4.6-18.2-7.9c-0.2,2,2,1.8,2.3,3.1c-2.3,2-5,3.5-7.6,5.3
		c-1.2-1.7-1-2.8,0.4-3.8c0.5-0.4,1-0.9,1.5-1.3c3.4-3.2,3.9-6.6,1.6-10.1c-1.9-3-4.5-3.3-9.2-1.3c-2.6-2-3.8-5.3-6.3-7.5
		c-4.4-3.8-9.1-5.9-14.9-4.8c-3.1,0.6-6.3,0-9.5,1.1c-8.4,3-13.5,9.5-18.6,16.3c-4.8,6.4-7.3,13.7-9.5,21.4
		c-14.9-1.7-29.7-3.3-44.8-5c0.6-1.8,1-3.4,1.8-4.8c1.8-3.3,2.4-6.9,2.8-10.5c0.4-3.3,0.7-6.4,4.1-8.2c-1.4-1.2-2.3,1-3.3-0.1
		c0.2-3.2,3.9-3.7,5.4-6.1c-4.6,0-9,5.2-8.6,9.6c0.5,5.2-0.1,10.4-2.5,15.2c-1.3,2.7-2.7,5.2-5.6,6.3c1.2,5.1,1.1,9-0.5,16.2
		c2.9,0.2,2.8-2.2,3.6-3.9c0.8-0.1,1.6,0.3,2.3,0.7c0.1,1-0.4,1.8-0.8,2.5c-0.5,0.9-1.6,1.5-2.5,1.6c-3.2,0.3-5.6,4.9-9.6,1.3
		c-0.1-4.8-0.3-9.9-3.8-14.3c-0.3,5.3,2.1,10.3,1.1,15.8c-1.1,0.6-2.3-0.4-3.9-0.3c-1.8-5.1-1.7-10.6-3.2-15.8
		c-3.2,4.4,0.4,8.8-0.3,13.2c-4.6-0.1-4.7-0.1-5.5-4.8c-0.5-3.1-0.7-6.3-3.1-8.9c-0.7,4.1,2,7.9,0.9,12.1c-1.7-0.1-3-1.2-4.3-1.8
		c-1.3-4.8-0.9-9.6-2.5-14.2c-0.8-2.2,0.8-4.8,1.8-6.9c2.8-5.7,4.7-11.7,7-17.6c0.8-1.9,1.9-3.4,3.4-4.8c5.6-4.6,11.8-8.7,16.9-13.9
		C401.1,385.6,404.9,383.5,408.7,381.6c-1.3,4.6-5.7,6.7-8.9,9.8c-1.3,1.3-3.1,2.1-4,2.7c3.4-1.7,6.6-4.9,9.9-7.9
		C407.1,384.9,408.6,383.6,408.7,381.6z"/>
	<path fill="#FFFFFF" d="M334.6,449.6c2.4,2.8,1.5,6.4,2.6,9.5c1.3-8.4-4-15.6-4.7-24.1c12.1,1.6,23.6,3.1,35.1,4.6
		c1.8,8.6,3.9,9.8,12.2,12.1c1,1.2,0.9,2.7,1,4.1c0.7,7.9,3.4,15.4,4.1,23.2c0.4,4.5-0.5,8.8-0.3,13.3c0,0.6-0.3,1.3-0.6,1.8
		c-3.3,5.4-4.6,11.4-5.6,17.5c-2.3,12.9-2,25.8-1.6,38.8c0,1.5,0.2,3.1,0.5,4.6c0.9,5.4,0.3,10.5-3.2,15.4c-1.2,0.2-2.7,0.5-4.3,0.8
		c-0.7-6.8-0.7-6.8-2.6-8.7c-1.3,2.5-0.9,5.2-1.1,7.8c-1.9,1-3.8,0.2-5.9,0c-0.3-2.3,0.4-4.5,0.5-7.3c-1.2,2.6-2.1,4.5-2.1,7.1
		c-3.6-0.6-6.9-1.2-10-2.5c-1.8-0.7-2.3-2.3-2.7-3.9c-1.2-5.2-2.1-10.4-2.3-15.8c-0.2-5.6-1-11-1.6-16.5c-0.2-1.6-0.9-3.1,0.4-4.7
		c0.6-0.8-0.2-2.1-0.3-3.2c-1.5-10.4-4.1-20.6-6-31c-2.1-11.8-2.8-23.8-2.6-35.8C333.4,454.3,334.4,452,334.6,449.6z"/>
	<path fill="#FFFFFF" d="M406.7,453.2c-1.5,2.9-2.1,6.1-3.3,9.8c-0.7-3.9-0.7-7.2-0.7-10.4c1.4-1.4,3-2,4.7-2.2
		c1-1.5,0.6-3.4,1.6-5.2c12.9,1.7,25.9,3.4,39,5.2c1.9,5,2.4,10.2,3.6,15.2c1.9,7.5,1.2,15.2,0.4,22.7c-1.4,13.2-3,26.4-5,39.5
		c-1.2,7.8-2,15.7-4.1,23.2c-2.7,9.6-2.3,19-2,28.5c0.1,1.6,0,3.2-0.3,4.9c-1.2-2.6-1.2-5.6-3-8.6c-0.2,3.8,0.3,6.8,0.9,10.1
		c-2.8,0.4-5.3,0-8-0.5c-2.4-9.6-11.1-9-18.3-11.2c0,0-0.2-0.4-0.1-0.6c4-8.2,4.3-16.8,3.3-25.6c-0.4-3.4-0.9-6.8-1.1-10.2
		c-0.2-3.6-2-6.7-2.4-10.2c-1.5-13.3-3.3-26.6-5.1-39.9c-0.4-2.7-0.9-5.5-1.3-8.2c-1-6.6-2.3-13.2,0.8-19.7c0.9-1.9,0.8-4.3,1.2-6.4
		C407.1,453.2,406.9,453.2,406.7,453.2z"/>
	<path fill="#FFFFFF" d="M509.5,411.2c-6.6,7.4-12,14.9-15.2,24.4c-6.1,1.6-7.8,7.3-9,12.6c-1.3,5.6,2.7,12.7,10.8,12.3
		c2.1-0.1,2.8-1.9,4.4-3.1c4.6,0.6,9.3,1.2,14.4,1.9c-0.6,4.1-1.5,7.9-3.1,11.5c-1.4,3.2-3.1,6.4-4.9,9.4
		c-3.5,5.7-9.1,8.6-15.1,10.7c-1.4,0.5-3,0.6-4.4,1.5c-1.2,0.7-2.6,0.1-3.8-0.5c-2.3-1-4.6-2-6.9-3c-0.2,1.6,1.4,1.4,1.7,2.7
		c-9.5-2.7-16.7-7.8-20.2-17.2c-2.1-5.5-3.2-11.3-4.1-17.1c-0.3-1.9-0.5-3.7-1.2-5.5c-0.6-1.6-0.5-3.3-0.2-4.9
		c2.4-14.9,7.2-28.8,17.7-40.1c3.3-3.6,7.1-5.9,12-6.5c3.2-0.4,6.2-1.7,9.7-1c-12.7,4.3-18.5,14.4-22.5,26c2-1.7,3.3-4,4.4-6.2
		c2.2-4.3,5.3-7.9,8.3-11.6c1.5-1.8,3.5-3,5.7-4c2.4-1.1,4.8-2.4,7.2-3.6C501.8,401,505.9,405.6,509.5,411.2z"/>
	<path fill="#FFFFFF" d="M380.6,563.3c-1.2-16.8-2-33.7,0.1-50.6c0.4-3.5,1.8-6.6,3-9.8c1.7-4.6,3-9.2,4.5-13.9
		c2.2-7.1,0.7-14.1-1.3-20.9c-1.4-4.8-3.1-9.5-3.9-14.4c-0.1-0.5-0.4-1.1,0.1-1.7c0.2,0,0.7-0.2,0.8,0c1.8,2.8,4.4,2.9,7.2,1.9
		c1.5-0.5,2.8,0.2,4.2,0.5c1.5,0.3,3,1.3,4.3-0.4c2.4,12.2,2.1,24.3,4.3,36.2c0.8,4.4,1.2,8.8,2.6,13c2.1,6.1,1.9,12.4,2.6,18.7
		c0.6,5.5,1.7,10.9,2.6,16.4c1,5.8,1.5,11.6,0.2,17.5c-0.9,4.1-0.9,8.4-1.2,12.6c-0.1,2.1-0.2,4.2-1.2,6.5c-3,0.3-4,2.6-4.2,5.5
		c-0.1,1.7-0.9,3.1-1.9,4.4c-3.1,4-5.2,8.5-7.5,12.9c-0.6,1.2-1.1,2.4-2.3,3.4c-1.1-4.5-3.7-8.5-2.9-13.4c0.3-1.7-1.1-3.3-2.1-4.7
		c-1.8-2.5-2.6-5.2-2.7-8.3C385.7,570.2,384.5,566.1,380.6,563.3z"/>
	<path fill="#FFFFFF" d="M380.9,566c1.1,3.9,1.6,8,3,11.8c0,0.1,0,0.2,0.1,0.3c4.1,6.6,3.2,14.7,6.4,21.6c0.6,1.4,0.1,2.8,0.7,4
		c-3.6,6.3-10,6.5-15.9,7.6c-6.6,1.2-13.2,0.1-19.8,1.1c-3.8,0.6-6.9,2.8-10.5,3.9c-8.2,2.4-16.5,4.6-24.8,5.9
		c-8.2,1.3-16.5,1-24.7-1.1c-7.1-1.9-8.2-2.8-8.9-10c-0.1-0.9,0.2-1.8,0.7-2.6c3.7-1.6,7.8-2.5,11.4-4.3c3.7-1.8,7.3-3.7,10.9-6
		c1.2,1.3,2.6,2,4.2,0.9c-0.3-1.5-1.8-0.8-2.4-1.8c-0.2-0.7,1.3-1.2,2.2-0.6c0.9,0.6,1.4,1.8,3,1.9c0.5,0,0.7-0.8,1-1.3
		c0.4-0.5,1.2-0.7,1.2-1.6c-1-0.6-2-1.1-3.3-1.9c3.5-0.8,5.2,4.1,8.1,2.5c1.4-1.3-0.1-2.5,1.3-3.2c-2.2-1.4-4.4-0.9-6.6-1
		c0.3-1.2,1.2-1.8,2-2.4c2.5,0.8,4.8,1.8,7.3,2.4c1.7,0.4,3.7,0.5,4-2.2c-2.9-1.7-6-2-9.9-0.8c1.7-1.6,2.8-2.6,4-3.7
		c4.3,1.5,8.4,3.3,13,3.5c0.3,0,0.7-0.5,1.4-1.1c-3.3-4.5-8.3-3.3-12.8-4.1c0.6-1.3,1.5-1.9,2.4-2.7c4.8-0.3,9.3,2.2,14.1,1
		c-3.4-2.9-7.5-3-11.7-3.8c3-0.2,3.6-2.3,4.2-4.4c1.2-3.8,3.9-6.6,6.2-10.6c1.4,3.9,2.2,7.3,2.3,10.7c-0.6,1.3-2.6,1.5-2,3.5
		c1.7-0.4,3.3-0.6,4.9-1.4c3.1-1.7,5.6-1,7.9,1.5c3.4,3.7,7.7,5.1,12.7,4.1c1.2-0.2,2.4-0.2,3.6-0.5c2-0.4,3.1-1.5,3.7-3.6
		c1.2-4,3.1-7.7,4.7-11.5C380.4,565.9,380.6,566,380.9,566z"/>
	<path fill="#FFFFFF" d="M387.8,612c4.9,2.9,9,6.3,14.8,6c-1-3.5-3.4-4.7-13.2-6.9c1.6-2,3.2-4,4.7-6c6.2,1.7,12.3,3.2,17.9,5.8
		c1.6-2.4,0.2-3.4-1.1-4.2c-3.4-2.3-7-3.7-11.2-3.7c-1.3,0-2.6,0-4,0c0.2-1.3,0.8-2.1,2.2-1.8c4.7,1.1,9.5,0.8,14.2,1.4
		c2,0.2,3.9,1.4,6.1,0.9c0.5-2.7-2.1-2.8-3.3-4.3c2.6-0.2,4.9,1.9,7.5,0.6c-3-4.8-12.6-7-21.4-5c0.3-1.5,1.3-2.5,2-3.8
		c7,1.7,14.2,2.3,20.7,6.2c0.7-2.7-1-3.6-2.4-4.4c-5.2-2.8-10.7-4.6-16.9-4.1c0.5-3.9,2.9-7,3.8-10.6c5.5-1.6,10.4,0.3,15.1,2.3
		c2.5,1.1,3.2,3.9,3.4,6.5c0.2,1.9,0,3.8,0,5.7c3,3,6.8,4.2,10.5,5.7c1.2,0.5,2.1-0.2,2.9-1.1c1.3-1.5,2.6-3,3-5.6
		c1.5,3.2,3.1,5.7,5.1,7.9c1.5,1.6,2.1,3.6,2.5,5.7c0.9,4.5,1.6,9.1,3.9,13.2c-3.2,4.4-7.3,7.1-12.5,8.8c-7.5,2.4-15,4.9-21.3,9.8
		c-2.1,1.6-4.8,1.2-7.1,2.2c-4.1,1.7-8.4,2.8-12.5,4.4c-4.3,1.7-9,0.8-13.5,0.7c-7-0.1-13.7-1.9-20.6-3.1c-1.4-0.2-2.7-1-4-2
		c-0.3-3.5-0.4-7.1,0.1-10.9C373.5,625.6,380.8,619.1,387.8,612z"/>
	<path fill="#FFFFFF" d="M416.4,308.4c4.7,4.3,8.8,8.1,12.8,11.8c1,0.9,1.8,2,2.5,3.1c4.1,7.1,9,13.6,13.9,20.2
		c0.8,1.1,1.5,2.2,1.7,3.7c-1.7,3.1-4.9,4.5-7.7,6.5c-7.5,5.3-15,10.6-21.6,16.9c-1,1-2.2,1.9-3.4,2.7c-5.1,3.1-9.3,7.6-14.2,10.9
		c-5.6,3.8-10.1,8.7-15.4,12.7c-3.3-6.3-8.5-10.7-14.7-14.4c8.1-2.8,15.2-7,21.8-12.2c4.6-3.6,8.4-7.8,11.8-12.5
		c1.3-1.9,1.7-4,2.6-6.1c3.7-8.5,7-17.2,8.3-26.5C415.6,319.9,416.4,314.5,416.4,308.4z"/>
	<path fill="#FFFFFF" d="M350.5,390.8c-0.7,3.7-1.1,6.8-0.1,10c-0.8-3.6,1.8-6.7,1.2-10.3c4.5-2.3,8.8-5,13.9-6.1
		c7.5,2.5,14,6.4,17.9,14c-7.7,3.2-9.6,10.7-12,17.8c-0.9,2.8-1.8,5.4-4.5,7.1c0.6,1,2.3,1.6,0.4,3c-10.9-1-22-2.3-32.9-3.8
		c-0.7-6.7,1.2-13,0.8-19.5c-0.1-0.9,0.3-1.7,1-2.3C340.7,397.2,345.3,394,350.5,390.8z"/>
	<path fill="#FFFFFF" d="M495.4,454.7c-3.3-5-3.2-7.7,0.3-11.9c29.8,3.4,59.8,6.9,90.5,10.4c-2.7,4.1-4.2,8.1,0.2,12.6
		c-0.9-4.3-2-8.1,1.4-11.5c1,2.7,1.9,5.2,2.1,7.9c0.3,2.7-3.4,4.9-6.4,4.4c-12.6-1.9-25.3-3.5-37.9-5.1c-15.6-2.1-31.2-4.1-46.8-6.2
		C497.7,455.2,496.6,454.9,495.4,454.7z"/>
	<path fill="#FFFFFF" d="M404.1,442.7c0-3.2-1.1-5.7-0.7-8.3c1.5-2.1,3.6-1.7,5.7-1.4c13.5,1.6,27,3.1,40.5,4.7
		c0.6,0.1,1.3,0,2.1,0.7c0.3,3.3-0.8,6.7-0.9,10.7C435.1,446.8,419.7,444.8,404.1,442.7z"/>
	<path fill="#FFFFFF" d="M367.5,428.1c-0.3,3.6-0.5,6.7,0.5,9.8c-16.3-1.8-32.1-4.1-47.8-6.4c-1.3-3-0.9-5.6,0.4-8.7
		C335.9,424.5,351.5,426.3,367.5,428.1z"/>
	<path fill="#FFFFFF" d="M526.6,422.1c0.7,5.6,4.7,9.6,4.1,14.9c-1.9,0.9-3.3,1-4.7,1.2c-6.5,0.8-13,2.3-19.4,3.7
		c-3.2,0.7-6.6-0.3-9.9-0.6c-0.7-0.1-1.3-0.2-2.1-0.4c-2.9,2.6-4.5,5.7-3.6,9.7c0.9,3.6,3.1,6.1,7.2,6.5c-0.7,1.4-2.2,1-3,1.9
		c-2.1-0.9-4.1-1.6-5.4-3.3c-2.1-2.6-2.9-5.4-1.5-8.7c0.8-1.9,1.4-3.9,2.5-5.8c2.3-4.1,5.5-4.6,8.9-1.6c0.5,0.4,0.6,1.2,1.8,1
		c-0.5-2.4,1.5-2.8,3-3.8C511.7,432.1,518.8,427.3,526.6,422.1z"/>
	<path fill="#FFFFFF" d="M497.3,436.1c-0.2-2.1,0.8-3.8,1.7-5.5c2.5-4.7,5.3-9.2,8.4-13.5c0.6-0.9,1.4-1.8,1.7-2.8
		c0.7-2.4,2.3-3.3,4.6-3.7c1.8-0.4,3.4-0.2,4.3,1.5c0.9,1.7,1.6,3.5,0.1,5.3c-1,1.3-2.2,2.6-3.5,3.5c-6.1,4.4-12.3,8.7-16.5,15.1
		C498,436.2,497.7,436.1,497.3,436.1z"/>
	<path fill="#FFFFFF" d="M356.9,572.8c5.2,0.8,10.3,1.5,15.7,0.9c0.4,1.2,0,2.4-0.1,3.6C367.1,580.5,363,578.7,356.9,572.8z"/>
	<path fill="#FFFFFF" d="M429.3,592.1c0.5-1.4,1.2-2.6,1.4-4.2c2.9-0.2,5.7,1.2,8.8,0.1c-0.2,2.6,0.3,5.1-1.3,7.3
		C435.1,594.4,432,593.9,429.3,592.1z"/>
	<path fill="#FFFFFF" d="M513.7,424.7c1,1.8,0.6,2.7-0.6,3.5c-3.5,2.3-6.9,4.7-10.6,6.9C505.6,431.1,509.5,427.9,513.7,424.7z"/>
	<path fill="#FFFFFF" d="M450.4,344c-2-2.7-4.8-4.7-6.7-7.9c1.8-0.1,3.4-0.2,5-0.3c0.2,1.8,0.2,1.8-1.5,2.9c0.5,1.2,1.3,0.1,2.1,0.3
		C449.7,340.7,450.1,342.3,450.4,344z"/>
	<path fill="#FFFFFF" d="M551.3,350.8c0.9-1.2-0.8-2.3,0.1-3.5c1.2,0.5,0.4,2.6,2.3,2.6c1.4-1,0.4-2.5,0.5-4.4c0.8,1.4,1.8,1.9,3,3
		c-2,2.6-5.2,2.4-7.3,3.8c-1.3-0.7-0.6-1.7-1-2.5C550,349.6,550.1,351.2,551.3,350.8z"/>
	<path fill="#FFFFFF" d="M560.4,358.2c-1.9-1.4-3.9-2.8-6.2-4.4c1.4-0.6,2.4-1.1,3.7-1.7c1.3,1.8,1.6,4.1,3.2,5.6
		C560.8,357.9,560.6,358.1,560.4,358.2z"/>
	<path fill="#FFFFFF" d="M506,354.2c3.2-0.9,6.2,0.9,9.4,0.5C512.1,356.9,509.1,353.6,506,354.2z"/>
	<path fill="#FFFFFF" d="M546.3,349.9c0.8,0.8,0.8,1.8,1.2,2.7c-0.7,1.1-1.7,1.2-2.9,1C544.1,351.8,544,350.3,546.3,349.9z"/>
	<path fill="#FFFFFF" d="M373.3,160.9c2,1.3,2.4,3.5,2.9,5.6C374.6,164.9,374,162.9,373.3,160.9z"/>
	<path fill="#FFFFFF" d="M387.4,193.7c-1.7-1.7-1.7-3.5-1.8-5.2C387.1,189.7,388.5,190.9,387.4,193.7z"/>
	<path fill="#FFFFFF" d="M352.9,219.4c-1.3,2.5-3.4,3.5-6.6,3.9C348.7,221.5,351.1,220.9,352.9,219.4z"/>
	<path fill="#FFFFFF" d="M373.7,159.1c-2.1,0.2-2.7-1.6-3.8-2.6C371.6,156.6,373.6,156.3,373.7,159.1z"/>
	<path fill="#FFFFFF" d="M348.1,572.7c-0.6-1-0.6-1.7-0.3-2.5c1.2,0.3,2.5,0.6,3.9,1.5C350.4,572.1,349.3,572.3,348.1,572.7z"/>
	<path fill="#FFFFFF" d="M399.2,152.6c-3.2,0.8-4.5-1.2-6.2-2.3C395,150.5,396.8,151.4,399.2,152.6z"/>
	<path fill="#FFFFFF" d="M559.1,347.5c-0.6-1.6-1.9-3-1.9-5.2C559.2,343.8,559.8,345.4,559.1,347.5z"/>
	<path fill="#FFFFFF" d="M379.1,185.6c-1.6-1.2-2.2-2.8-2.1-4.7C378.3,182.2,378.7,183.9,379.1,185.6z"/>
	<path fill="#FFFFFF" d="M381.5,166.9c2.6,0.5,2.5,1.8,1.6,3.6C381.4,169.7,381.6,168.4,381.5,166.9z"/>
	<path fill="#FFFFFF" d="M392.6,181.8c1.1-1.2,0.7-3.6,3-4.3C395.9,180,394,180.7,392.6,181.8z"/>
	<path fill="#FFFFFF" d="M342.4,200.1c-0.2-1.8,0.3-3.4,1.2-5.5C344.3,197.1,343.5,198.6,342.4,200.1z"/>
	<path fill="#FFFFFF" d="M381.6,172.4c0,1.6,0.9,2.9,1.1,4.5C382,175.5,380.3,174.4,381.6,172.4z"/>
	<path fill="#FFFFFF" d="M373.5,195.9c-0.1-1.2-0.7-2.2,0.3-3C375.6,194.5,375.6,194.5,373.5,195.9z"/>
	<path fill="#FFFFFF" d="M388.1,207.7c1.1-1.8,1.1-1.8,3.5-0.9c-0.3,0.8-1,0.4-1.6,0.5C389.5,207.5,388.9,207.6,388.1,207.7z"/>
	<path fill="#FFFFFF" d="M359.6,212.4c-0.1-1.3,0-2.3,1.1-3.2C361.9,211.1,360.3,211.7,359.6,212.4z"/>
	<path fill="#FFFFFF" d="M358.4,193.3c0.2-1.1,0.4-2.3,0.7-3.4c1,1.4,0.2,2.4,0,3.5C358.8,193.4,358.6,193.3,358.4,193.3z"/>
	<path fill="#FFFFFF" d="M363.7,195.3c0-1-0.3-1.9,1.2-2.1C364.9,194.1,364.7,194.8,363.7,195.3z"/>
	<path fill="#FFFFFF" d="M344.5,184c0.1-1.1,0.2-2.1,0.4-3.4C347.1,182.1,345.2,183.1,344.5,184z"/>
	<path fill="#FFFFFF" d="M424.5,185.6c-0.8,0.4-1.2-0.5-1.7-0.4c-0.4-1,0.6-1.2,0.6-1.9C424.4,184,424.7,184.7,424.5,185.6z"/>
	<path fill="#FFFFFF" d="M537.8,353.2c0.5-1,1.5-0.8,2.2-1.1c0.1,0.2,0.3,0.4,0.3,0.6C539.7,354.9,538.6,353,537.8,353.2z"/>
	<path fill="#FFFFFF" d="M375.4,209.2c-0.2-1-0.6-1.7,0-2.3C377,207.6,377,207.6,375.4,209.2z"/>
	<path fill="#FFFFFF" d="M353.3,173c0.3-1.6,0.8-2.5,2-3.5C354.8,171,354.4,171.9,353.3,173z"/>
	<path fill="#FFFFFF" d="M391.3,183.1c1.2,0.3,1.3,1,1.2,2.1C391.7,184.7,391.3,184.2,391.3,183.1z"/>
	<path fill="#FFFFFF" d="M390.5,188.2c-1.5-0.1-1-1.4-1.6-1.9C389.9,186.6,390.2,187.2,390.5,188.2z"/>
	<path fill="#FFFFFF" d="M369.8,188.8c-1.2-0.8-1.3-1.6-1.2-2.8C369.5,186.9,369.4,187.8,369.8,188.8z"/>
	<path fill="#FFFFFF" d="M405.7,158.6c1,1.1,1.4,1.9-0.2,2.2C404.8,160.1,405.3,159.5,405.7,158.6z"/>
	<path fill="#FFFFFF" d="M366,219.3c-0.5,1-1.2,1.7-2.6,2.4C364,220.3,364.6,219.4,366,219.3L366,219.3z"/>
	<path fill="#FFFFFF" d="M362,171.3c0,1.3,0,1.9,0,2.6C361.1,173,361.1,173,362,171.3z"/>
	<path fill="#FFFFFF" d="M423.4,191c0.8-1,1.3-0.9,1.7-0.1C424.6,191.6,424,191,423.4,191z"/>
	<path fill="#FFFFFF" d="M375,174.2c1,0.7,0.8,1.1,0.2,1.7C374.6,175.4,374.8,174.9,375,174.2z"/>
	<path fill="#FFFFFF" d="M359,177.1c0.4,1.2,0,1.7-0.8,2.5C357.9,178.5,358.3,177.8,359,177.1z"/>
	<path fill="#FFFFFF" d="M409.3,206c-0.7-0.1-1.3-0.3-1-1.2C409.2,204.7,409.6,205.1,409.3,206z"/>
	<path fill="#FFFFFF" d="M515.2,443.3c0.4-0.9,1-0.9,1.8-0.4C516.5,443.8,515.8,443.5,515.2,443.3z"/>
	<path fill="#FFFFFF" d="M352.1,199.5c0.5-1,0.4-1.7,1.1-2.1C353.6,198.2,353.4,198.8,352.1,199.5z"/>
	<path fill="#FFFFFF" d="M415.5,174.7c-0.1-0.8,0.2-1.1,0.6-1.3C416.9,174.1,416.5,174.4,415.5,174.7z"/>
	<path fill="#FFFFFF" d="M366,219.4c-0.1-0.9,0.5-1.3,1.1-1.8C367.5,218.7,366.6,218.9,366,219.4L366,219.4z"/>
	<path fill="#FFFFFF" d="M401.1,170.7c0,0.6,0.1,1.2,0.1,2.2C400.4,171.9,400.9,171.3,401.1,170.7z"/>
	<path fill="#FFFFFF" d="M373,200.4c-0.4-0.4-1.1-0.7-0.6-1.6C373.3,199.1,373.4,199.7,373,200.4z"/>
	<path fill="#FFFFFF" d="M383.9,161.5c0.6-0.1,1,0.2,1.4,1C384.6,162.2,384.1,162.2,383.9,161.5L383.9,161.5z"/>
	<path fill="#FFFFFF" d="M384,161.4c-0.6,0.1-1-0.2-1.3-0.8C383.5,160.5,383.8,160.8,384,161.4L384,161.4z"/>
	<path fill="#FFFFFF" d="M400.5,198c-0.1,0.1-0.2,0.4-0.3,0.4c-0.4,0.1-0.6-0.2-0.6-0.5c0-0.1,0.2-0.3,0.4-0.4
		C400.3,197.4,400.4,197.7,400.5,198z"/>
	<path fill="#FFFFFF" d="M195.8,379.9c-1.3,1.4-3.2,1.5-4.3,3.3c1.9,0,3.5-0.8,4.5-1.8c3.5-3.5,7.9-3.2,12-2.7
		c12.5,1.5,22.7,12.5,23.6,25.1c0.2,2.2,0.7,4.4,0.4,6.9c-4.2,0-8.3-0.9-12.4-1.2c-2.2-0.2-4.4-0.4-6.6-0.8
		c-2.8-0.5-6.1,1.6-6.7,4.4c-0.4,2.1,2,5.3,4.4,5.9c0.9,0.2,2-0.1,2.8,0.5c-1.7,1.6-4.3,1.7-6.3,0.2c-3.2-2.4-3.7-6.2-1.4-10.1
		c2.6-4.4,4.1-4.6,11.8-1.3c-1-2.3-1.9-4.2-4.8-3.4c-0.4,0.1-0.9,0.1-1.3,0c-4-0.9-6.6,0.6-8.2,4.3c-2,4.5-1.7,7,1.6,10.6
		c1,1.1,1.8,2.4,3.5,2.9c3.5,1,5.3,0.5,7.3-2.7c2.6-0.4,5.1,0.5,7.8,0.7c2.5,0.2,5,0.7,8.1,1.1c-2.8,4.6-5,9.1-8,13.2
		c-5.4,7.7-13.8,8.9-22.1,10.3c-3,0.5-6.2,0.2-9.3-0.3c-6.3-1.2-10.8-4.7-14-10.2c-4-6.8-5.9-14.3-6.4-22.1
		c-0.5-8.2,3.9-14.8,7.2-21.8c3-6.3,8.4-9.1,14.6-11C194.3,379.6,194.9,379.4,195.8,379.9z"/>
	<path fill="#FFFFFF" d="M293.5,419.7c-1.3,2.7-2.4,5-2.8,7.8c-4.6-0.1-9-1-13.5-1.5c-21.2-2.8-42.4-5.6-63.6-8.5
		c-0.7-0.1-1.3-0.2-2-0.3c-1.9-0.4-3.3-1.4-3.1-3.6c0.1-2.1,1.8-3.5,4.1-3.3c4.4,0.4,8.8,1,13.2,1.5c21.5,2.4,42.9,4.9,64.4,7.3
		C291.1,419.2,292.1,419.5,293.5,419.7z"/>
	<path fill="#FFFFFF" d="M169.6,405.5c0.2,2.2,0.3,4,0,6.2c-5.2-0.7-10.2-1.3-15.2-2.1c-1.4-0.2-3.2-1.1-2.8-3
		c0.3-1.5,1.5-2.9,3.3-2.8C159.7,404.2,164.6,404.9,169.6,405.5z"/>
	<path fill="#FFFFFF" d="M413.4,195.1c-0.8,0.7-1.6,1.2-2.3,1.9C410.8,194.4,410.8,194.4,413.4,195.1z"/>
	<path fill="#FFFFFF" d="M410.7,199c1.4-0.4,2.4-0.1,3.6,0.1C412.8,199.9,412.8,199.9,410.7,199z"/>
	<path fill="#FFFFFF" d="M857.7,201.7c-1.4,0.4-2.4,0.3-3.6-0.1C855.5,200.9,855.5,200.9,857.7,201.7z"/>
	<path fill="#FFFFFF" d="M853.9,199.1c-0.4-2.4,0.4-3,2.7-2.2C855.6,197.7,854.9,198.4,853.9,199.1z"/>
	<path d="M916.1,296.1c2.2,2.2,1.6,4.5,2,6.6c0.3,1.5,0.5,2.9,1.3,4.3c1.2,2.2,1.7,4.8,1.7,7.4c-0.1,5.5-0.4,10.9-2.5,16.5
		c-1.6-2.3-1.3-4.4-0.6-6.4c0.8-2.2,0.6-4.2,0.4-6.4c-0.4-5.2-1.5-10.2-2.7-15.3C915.4,300.7,914.8,298.6,916.1,296.1z"/>
	<path d="M925.6,279.9c0.6-3,2.5-5,5.3-5.7c2.3-0.7,3.8-2.1,5.2-3.8c1.5-1.9,3.1-3.8,4.7-5.6c0.6-0.7,1.1-1.7,2.4-1.4
		c1,0.7,0.6,1.6,0.2,2.3c-1.4,2.3-3,4.4-5.2,6C934.1,274.5,930.1,277.6,925.6,279.9L925.6,279.9z"/>
	<path d="M929,224.9c-6-1.9-11.5-0.6-17.1,1c1.3-2.3,2.9-4,5.5-4c3,0,6.1,0.4,9.1,0.8C927.6,222.8,928.7,223.2,929,224.9z"/>
	<path d="M869.1,300.8c6,1.5,11.7,1.4,15.5-0.1c0.1,1.1,1.4,1.1,1.8,1.9C885.7,304.6,871.7,303.5,869.1,300.8z"/>
	<path d="M913.5,256.6c-1-5-2.4-10.1-0.1-15.1C914.8,246.5,913.4,251.6,913.5,256.6z"/>
	<path d="M908,228.2c-0.5,4.8-5.8,5.2-6.9,9C901.1,233.4,904.6,228.8,908,228.2z"/>
	<path d="M945.2,258.2c0.3-6.4,1.2-12.7,0.5-19.3C947.8,241.8,947.4,253.2,945.2,258.2z"/>
	<path d="M924.3,206.6c6.1,1.1,12.8,6.6,13.3,10.9C934.1,212.3,929.2,209.4,924.3,206.6z"/>
	<path d="M883.4,318.7c-3.2-3.4-6.8-6.4-8.5-11c2.6,3.8,6.2,6.8,9,10.5C884.1,318.8,884,319,883.4,318.7z"/>
	<path d="M902,279.6c-2.9-0.9-5.4-2.3-6-5.7C898.6,275.2,900.1,277.7,902,279.6z"/>
	<path d="M906.3,345.2c-2.2,3.6-6.2,3.9-9.5,5.6C899.4,347.9,903.7,348,906.3,345.2z"/>
	<path d="M918.7,348.3c1.8,2.2,1.7,3.7-0.8,6.8C918.2,352.6,918.4,350.6,918.7,348.3z"/>
	<path d="M904.2,341.4c-0.9,1.9-1.6,4-4.8,4.6C900.4,343.3,902.4,342.3,904.2,341.4z"/>
	<path d="M914.8,233.5c-0.2-2.7,0.3-5,2.1-6.8c0.3,0.1,0.5,0.2,0.8,0.3C916.7,229.2,915.7,231.3,914.8,233.5z"/>
	<path d="M919.5,335.8c0,2,0,3.3,0,4.6C917.7,338.9,917.7,338.8,919.5,335.8z"/>
	<path d="M920.4,287.3c0.2-1.3,0.6-2.4,2.4-2.7C922.6,286.3,921.4,286.8,920.4,287.3z"/>
	<path d="M920.6,340.9c0.4,1.7,0.3,2.6-0.5,3.8C919.1,343.4,919.5,342.4,920.6,340.9z"/>
	<path d="M883.9,318.2c1.2,1,2.1,2.1,2.6,3.6c-1.4-0.7-2.3-1.9-3.1-3.1C883.6,318.6,883.7,318.4,883.9,318.2z"/>
	<path d="M894.1,328.1c-1.2-1.5-1.1-2.4-0.2-3.5C894.5,325.7,894.3,326.6,894.1,328.1z"/>
	<path d="M925.6,279.8c-0.1,1.4-0.9,2.1-2.4,2.5C923.2,280.5,924.5,280.3,925.6,279.8L925.6,279.8z"/>
	<path d="M915,292.8c1,1.2,0.8,2,0.2,2.7C913.5,294.7,914.5,294,915,292.8z"/>
	<path d="M959.8,245.4c-0.9-0.9-0.9-1.7-0.8-2.7C960.1,243.5,960.3,244.2,959.8,245.4z"/>
	<path d="M918.8,334.9c-0.8-1.1-0.9-1.8-0.1-2.7C920,332.9,919.6,333.7,918.8,334.9z"/>
	<path d="M896.5,333.8c0.9,0.7,1.2,1.4,0.9,2.6C896.3,335.6,896.3,334.8,896.5,333.8z"/>
	<path d="M807.6,487c-1-0.7-1.6-1.8-2.1-2.9c-3.6-8.1-5.5-16.5-4.8-25.4c0.1-0.6,0-1.4,0.7-1.7c1,0.2,1,1,1.1,1.8
		c0.6,4.4,1,8.8,0.9,13.2c-0.1,3.6,1.6,6.8,2.8,10.1c0.6,1.5,1.6,2.9,1.6,4.7C807.8,486.8,807.7,486.9,807.6,487z"/>
	<path d="M809.1,429.4c-1.2-3-0.4-5.7,0.4-8.3c0.6-1.9,2.4-3.2,4.3-3.8c3.5-1.2,7.1-2.3,10.6-3.4c0.3-0.1,0.7-0.1,1,0.7
		c-2.9,2.4-7.3,2.1-10.1,5.1C812.6,422.5,809.3,424.8,809.1,429.4z"/>
	<path d="M789.5,409.4c0.7,5.2-4.6,6.7-5.4,11.1c-1.2-1.2-1.2-2-0.9-2.8C784.5,414.4,787,411.8,789.5,409.4z"/>
	<path d="M831,433.1c-4.4,1.9-8.6,4-12.6,6.6c-1-1.5-0.1-2.1,0.6-2.4C823,435.7,826.7,433.5,831,433.1z"/>
	<path d="M808.2,408.2c-2.8,3.1-6.1,2.6-10-1.3C801.7,407.5,804.5,409.1,808.2,408.2z"/>
	<path d="M809,554.9c1.3,2.6,0.9,5.2,0.4,7.9C809.4,560.1,807.7,557.6,809,554.9L809,554.9z"/>
	<path d="M808.9,489.8c2.8,1.5,2.2,3.8,2.8,5.5C810.1,494,809.5,492.3,808.9,489.8z"/>
	<path d="M820.5,444.3c-1,1.1-2,2.3-3,3.4C817,444.8,817.8,443.9,820.5,444.3L820.5,444.3z"/>
	<path d="M788.2,403.5c1.7,0.7,1.6,2.1,1.6,3.8C788.2,406.2,788.4,404.8,788.2,403.5z"/>
	<path d="M793.7,398.4c0.1,1.4,0.2,2.9,0.3,4.9C792.2,401.5,793.1,400,793.7,398.4z"/>
	<path d="M809.1,554.8c-0.8-1.7-0.2-3.6-0.8-5.3C809.7,551.1,808.8,553.1,809.1,554.8L809.1,554.8z"/>
	<path d="M807.6,544.2c-0.9-1-1.3-1.7-0.9-2.7C807.6,542.4,807.6,542.4,807.6,544.2z"/>
	<path d="M800.2,448.3c0.3,1.8,0.1,2.6-0.7,3.6C798.7,450.6,799,449.8,800.2,448.3z"/>
	<path d="M834.1,432.4c0.6-1.2,1.2-1.5,2-1.4C836.2,432.4,835.3,432.2,834.1,432.4z"/>
	<path d="M816,503.5c1.6,0.2,2,0.6,1.8,1.5C816.6,505.4,816.7,504.4,816,503.5z"/>
	<path d="M807.9,486.7c0.6,0.3,0.7,0.9,1,1.5c-1.2,0.1-1.1-0.7-1.3-1.2C807.7,486.9,807.8,486.8,807.9,486.7z"/>
	<path d="M876.8,479c1.9,2.5,1.6,16.1-0.3,21.5C875.2,493.5,876.5,486.6,876.8,479z"/>
	<path d="M875.7,563.7c-0.1,7.1-1.3,13.7-0.5,20.3c-1.3-1-1.8-2.4-1.6-4c0.7-3.9-0.1-7.7,0-11.6
		C873.7,566.8,873.4,565.2,875.7,563.7z"/>
	<path d="M879.4,530.5c-0.7-7.5-2.5-14.9-1.9-22.4C878.1,515.5,879.9,522.9,879.4,530.5z"/>
	<path d="M859.8,420.8c1.8,2.4,1.6,4.9-0.3,6.5c-1.8,1.5-3.8,2.9-4.5,5.4c-0.8-2.1-0.7-4.1,1-5.4C858.1,425.7,859.8,424,859.8,420.8
		z"/>
	<path d="M878.6,463.2c1.1,4.9-0.5,9.6-1.2,14.4C876.6,472.6,876.8,467.8,878.6,463.2z"/>
	<path d="M887.6,480.9c1.7,2,1.7,3.5,0,11.7C886.7,488.7,888.1,484.8,887.6,480.9z"/>
	<path d="M874.4,559.3c0.1-3.1,1.5-5.8,2.9-8.6C878.4,552.7,877.8,554.5,874.4,559.3z"/>
	<path d="M888.4,496.6c0,4.5,0,8.9,0,13.6C887.1,508.2,886.9,500.4,888.4,496.6z"/>
	<path d="M887.4,467.5c0.6,2.1,1.7,4.3,0.7,7.1C886.1,472.1,887.3,469.8,887.4,467.5z"/>
	<path d="M880.6,574.4c-0.9-2.5-0.4-3.9,0.4-6C882.1,570.7,881.7,572.2,880.6,574.4z"/>
	<path d="M863.3,414.9c0.1,2.5,0.1,2.5-2.3,4.4C861.4,417.4,862.1,416.1,863.3,414.9z"/>
	<path d="M881.4,566.7c-0.3-1.5-0.8-3.1,0.4-4.7C882.4,564.4,882.4,564.4,881.4,566.7z"/>
	<path d="M887.9,515.6c0.7,1.1,0.9,1.8,0.8,2.6c0,0.3-0.2,0.6-0.8,0.6C887.6,517.9,887.5,517,887.9,515.6z"/>
	<path d="M854,439.6c-0.6-1.4-0.7-2.3,0.2-3.1C855.7,437.4,854.6,438.3,854,439.6z"/>
	<path d="M893.8,431.2c0.1-0.6-0.3-1.3,0.5-1.9c0.9,0.8,0.4,1.5,0,2.2C894,431.6,893.8,431.5,893.8,431.2z"/>
	<path d="M881.8,431.3c0.3,1.1-0.1,1.6-0.9,2c-0.8-0.3-0.5-0.8-0.3-1.3C880.8,431.6,881,431.2,881.8,431.3z"/>
	<path d="M954.7,370.4c-1.2,0-1.4-0.6-1.5-1.1c-3.1-7.4-9.3-7.3-15.1-2.7c-7.2,5.8-12.3,13.2-15.5,21.9c-0.5,1.2-0.7,2.5-1.7,3.5
		c1.7-8.5,5-16.1,11.6-22.1c1.1-1,2.3-1.8,3.1-3c2.5-3.7,6.6-4.2,10.4-5.1c2.3-0.6,6.6,2.7,7.6,5.5
		C953.8,368.4,953.9,369.4,954.7,370.4z"/>
	<path d="M913.4,421.4c-1.5-2.7-2.2-5.5-1.5-8.6C913.1,415.6,913.1,418.5,913.4,421.4z"/>
	<path d="M917.1,381.9c0,2.6-1,4.8-2.5,6.9C914.9,386.3,914.6,383.6,917.1,381.9L917.1,381.9z"/>
	<path d="M919.3,396.9c0.4,1.6-0.5,2.5-0.7,3.5C918.3,399.2,918.2,398.1,919.3,396.9z"/>
	<path d="M918.8,412.6c-1.1-1.8-1.1-2.9-0.2-4.4C919.3,409.7,918.9,410.8,918.8,412.6z"/>
	<path d="M917.1,381.9c-0.2-1.4,0.3-2.5,1.2-3.6l-0.1,0C918.3,379.6,917.4,380.6,917.1,381.9L917.1,381.9z"/>
	<path d="M916.5,432.9c0.5,1.2,0.7,1.7,1,2.5C916.5,435,916.3,434.5,916.5,432.9z"/>
	<path d="M955.2,373.2c0.7,0.3,0.7,0.8,0.5,1.3C954.6,374.4,954.6,373.9,955.2,373.2z"/>
	<path d="M920.3,420.2c0.5,0.9,0.5,1.3,0.3,1.7C920.2,421.7,920.4,421.2,920.3,420.2z"/>
	<path d="M938.9,337.1c7.2-1.6,14.4-3.1,21.6-4.7c-2.7,2.2-6,2.6-9.2,3.4c-3.1,0.8-6.2,1.4-9.4,1.9C941,337.9,939.5,339,938.9,337.1
		L938.9,337.1z"/>
	<path d="M972.6,338c0.3,2.9,0.6,5.9,0.9,9.1C970.3,345.7,970.1,343.2,972.6,338z"/>
	<path d="M952,341.4c-3.5,1.4-7.1,1.8-10.8,1.3C944.8,341.5,948.4,341.4,952,341.4z"/>
	<path d="M965.2,311.5c0.2-2.3-0.2-4.8,1.4-7.6C967.7,307.2,966.7,309.4,965.2,311.5z"/>
	<path d="M951.2,300.9c-0.4-2.2-0.5-3.7,1.3-4.8C953.8,298,952.4,299.1,951.2,300.9z"/>
	<path d="M978.5,301.3c1.7,2.3,0.9,3.8,0,5.7C978,305.1,977.8,303.5,978.5,301.3z"/>
	<path d="M971.4,336.9c-1-1.9-0.4-2.8,0.7-3.9C973,334.5,972.7,335.6,971.4,336.9z"/>
	<path d="M972.6,321.2c0.7,1.8,0.6,3.2,0.2,5.1C971.6,324.5,971.2,323.1,972.6,321.2z"/>
	<path d="M972.1,332.3c-0.8-1.9-1.3-3,0.5-4.1C973.3,329.5,973.2,330.6,972.1,332.3z"/>
	<path d="M968.1,312.6c-0.6-0.1-1.1-0.2-1-0.7c0-0.1,0.3-0.3,0.4-0.4C968.1,311.4,968.2,311.9,968.1,312.6z"/>
	<path d="M637.4,366.8c-2.2-2.5-2.8-5.1-3.1-7.5c-1.1-11.3,1.1-21.8,8.2-30.9c4.9-6.3,11.5-7.8,19-6.3c6.6,1.4,10.9,6,12.2,13.2
		c-1.9-1.8-2.6-4-3.9-5.9c-3.9-6-9.7-6.8-16-6.2c-4.3,0.4-7.7,2.7-10.1,6.2c-7.7,10.9-10.5,22.7-6.3,35.7
		C637.5,365.5,637.4,365.8,637.4,366.8z"/>
	<path d="M628.6,342.1c2.1-7.6,4.5-15.1,11.8-19.7C633.9,327.6,632.1,335.3,628.6,342.1z"/>
	<path d="M627,359.7c-1.3-3.6-1.2-7.1,0.1-10.6C627.1,352.6,626.8,356.2,627,359.7z"/>
	<path d="M631.2,371c-1.6-1.8-2.7-3.8-2.8-6.3C629.6,366.6,630.8,368.6,631.2,371z"/>
	<path d="M636.1,377.7c-1.6-0.4-2.5-1.5-3-3C634.3,375.5,635.6,376.2,636.1,377.7L636.1,377.7z"/>
	<path d="M639.5,369.4c-0.6-0.2-0.9-0.6-0.8-1.2C639.6,368.2,639.7,368.7,639.5,369.4z"/>
	<path d="M674.3,338.3c0.7,0.7,0.5,1.4,0.4,2.2C673.7,339.7,674.1,338.9,674.3,338.3z"/>
	<path d="M636.2,377.7c0.6-0.1,1,0.2,1.3,0.8C636.8,378.5,636.3,378.4,636.2,377.7L636.2,377.7z"/>
	<path d="M887.1,615.8c-1.6-0.1-2.5,0.7-3.6,1.2c-2.6,1-5.8-0.4-6.5-2.9c-0.8-2.6,0.9-5.4,3.7-6.1c2.7-0.7,5.4,1,5.8,3.9
		C886.6,613.1,887.1,614.2,887.1,615.8z"/>
	<path d="M851.1,614.4c-5.6,1.9-10.6-0.9-16-2.3C838.9,609.4,847.4,610.5,851.1,614.4z"/>
	<path d="M876.6,615.4c-0.1,2.7-2.3,4.8-5,4.7c-2.6-0.1-4.7-2.1-4.7-4.7c0-2.7,2.5-5,5.3-4.9C874.9,610.6,876.7,612.6,876.6,615.4z"
		/>
	<path d="M865.4,618.7c0.4,1.1,1.7,1.4,1.9,2.5c-2.2,1.8-3.2-2.1-5.2-1c-0.9,0.9,0.5,2.2-1,3.4c-2.2-2.4-2-5.7-3.3-8.6
		c2.5-1,4.7-2.6,7.2-0.9C866.6,615.2,866.1,617,865.4,618.7z"/>
	<path d="M840.5,623.4c-5.1,0.9-8.7-2-12.3-5C832.9,618.4,836.9,620.3,840.5,623.4z"/>
	<path d="M828.7,622.6c2.2-0.4,4,0.2,5.9,1.8C831.6,626.1,830.3,623.8,828.7,622.6z"/>
	<path d="M1004.4,374c-4.4-2.2-8-5.7-13-6.4c-5.9,3.6-10.2,2.7-15-3.3c2.9,0.7,5.4,1.3,7.8,2c1.6,0.4,3,0.6,4.4-0.6
		c0.9-0.8,2-1,3.1-0.7c4.6,1.3,8.9,3.4,12.4,6.8C1004.6,372.2,1005.1,372.7,1004.4,374z"/>
	<path d="M963.3,361.7c4.3-2.7,9.1-2.3,12.5,0.8C971.8,362.3,967.9,362,963.3,361.7z"/>
	<path d="M977.3,382.1c2.2,2,3.2,3.7,3.5,6.3C978.2,387,978,384.9,977.3,382.1z"/>
	<path d="M983.1,427.6c-6.7-1-13-2.9-18.2-7.4C970.9,422.8,977.5,423.9,983.1,427.6z"/>
	<path d="M971.6,428.8c0.8-0.3,1.2,0,1.4,1C972.1,429.9,971.5,429.9,971.6,428.8z"/>
	<path d="M1033.6,420.5c0.5,0.8,1.2,1.2,0.3,1.9C1033.1,422.1,1033.2,421.5,1033.6,420.5z"/>
	<path d="M832.5,402.9c-0.4-0.2-0.8-0.5-0.8-0.9c0.6-3.2,2.9-5.9,2.2-9.5C836.2,396.5,834.3,399.8,832.5,402.9L832.5,402.9z"/>
	<path d="M814.3,392.6c-0.2,1.5-0.5,2.3-1.9,2.3C812.2,393.7,812.9,393.2,814.3,392.6z"/>
	<path d="M827.3,395.6c-0.7-0.3-1.3-0.7-1.3-1.6C826.9,394.2,827.1,394.9,827.3,395.6z"/>
	<path d="M832.4,403c0.9,0.5,1.1,1.4,1.4,2.7C832.2,404.9,832,404.1,832.4,403L832.4,403z"/>
	<path d="M488.1,368c12.8-1.8,47.5,12.7,51,23.9C524.8,377.9,507.5,371.7,488.1,368z"/>
	<path d="M475.5,328.8c-1.5-2.5-1.2-4.6-0.5-6.6c0.7-2.1,0.5-4,0.4-6.1c-0.4-5.2-1.4-10.3-2.7-15.3c-0.5-2-1-4-0.2-6
		c1.1-0.4,1.7,0.2,1.7,0.8c0.1,5.9,3.8,11.1,3.8,16.9C478,317.9,477.7,323.3,475.5,328.8z"/>
	<path d="M561.5,372.1c-4.6-2.3-8.3-5.9-13.3-6.5c-5.4,3.7-11,2.5-14.6-3.2c1.8,0.4,3.5,0.7,5.2,1.2c2.7,0.7,5.3,1.8,7.8-0.5
		c0.4-0.3,1.3-0.3,1.9-0.2c4.9,1.4,9.3,3.5,12.9,7.2C561.6,370.5,561.7,370.9,561.5,372.1z"/>
	<path d="M482.5,277.9c0.6-2.8,2.3-4.9,5-5.6c2.6-0.7,4.2-2.3,5.7-4.2c1.5-1.9,3.1-3.8,4.7-5.6c0.6-0.6,1.1-1.4,2.1-1.2
		c1,0.7,0.7,1.6,0.2,2.4c-1.4,2.3-3,4.4-5.2,6C491,272.5,487,275.6,482.5,277.9L482.5,277.9z"/>
	<path d="M470.6,366.8c0.3-2,0.2-4,2.6-4.9c0.8-0.3,0.8-1.7,1.1-2.7c0.7-2.7,2.4-4.7,4.5-6.3c0.9-0.7,1.8-0.9,2.7,0
		c0.7,0.8,0.4,1.6-0.2,2.4c-0.1,0.2-0.2,0.4-0.4,0.5c-0.7,0.8-1.3,1.8-2.2,2.5C475.7,360.8,473.5,364.1,470.6,366.8z"/>
	<path d="M524.2,405.7c5.6,3.2,10.8,6.2,16,9.1c1.5,0.9,3,1.9,4.1,3.3c0.6,0.8,1.4,1.5,0.3,2.8c-5-5.9-12.8-7.6-18.4-12.5
		C525.4,407.7,524.4,407.4,524.2,405.7z"/>
	<path d="M468.9,223.8c2-2.6,4.1-4.7,8-3.6c1.6,0.5,3.7,0.2,5.5,0.3c1.4,0.1,2.8,0.4,3.7,2.2c-3.2,0.5-6-2-8.7-1
		C474.6,222.8,471.8,223.2,468.9,223.8z"/>
	<path d="M408.7,381.6c0.3,0.6,0.7,1,0.2,1.8c-4.6,6.5-10.9,10.8-17.9,14.1c0,0-0.2-0.1-0.7-0.6
		C397.1,392.4,404.1,388.3,408.7,381.6L408.7,381.6z"/>
	<path d="M518.5,389.6c-6.6-6.2-13.6-11.7-22.4-14.5C505.6,376.7,512.8,381.9,518.5,389.6z"/>
	<path d="M495.7,335.1c7.2-1.6,14.4-3.1,21.6-4.7c-2.6,2.2-5.8,2.5-8.9,3.3c-3.2,0.8-6.5,1.5-9.7,2
		C497.8,335.9,496.3,337,495.7,335.1L495.7,335.1z"/>
	<path d="M426.1,298.9c5.4,1,10.3,1.9,15.3-0.1c0.2,1,1.2,1.2,2,1.8C439,302.5,428.4,301.5,426.1,298.9z"/>
	<path d="M469.9,255.3c-0.6-5.6-1.8-10.6-0.2-15.7c1.6,1.4,1.8,1.4,1.1,7.4C470.5,249.5,471.8,252.2,469.9,255.3z"/>
	<path d="M464.2,225.9c1.3,2.8-0.8,3.8-2.2,4.9c-1.6,1.2-2.8,2.6-4,4.5C457.7,232.3,460.9,227.5,464.2,225.9z"/>
	<path d="M455.4,380.3c-4.7,2.4-9.5,4.7-14.8,5.5c-0.1-0.3-0.2-0.5-0.3-0.8c4.9-1.9,9.8-3.7,14.7-5.6
		C455.1,379.7,455.2,380,455.4,380.3z"/>
	<path d="M481,204.8c4.9-0.2,13.3,6.5,13.2,10.3C490.8,210.3,486.1,207.4,481,204.8z"/>
	<path d="M502,256c0.3-6.4,1.2-12.6,0.5-19.5C504.7,240.1,504.2,251.5,502,256z"/>
	<path d="M532.4,360.8c-3.8-1.3-7.7-0.8-12.1-0.7C523.7,356.9,529.3,357.3,532.4,360.8z"/>
	<path d="M529.4,336c0.3,2.9,0.6,5.9,0.9,9C527.2,343.7,526.9,341.3,529.4,336z"/>
	<path d="M537.4,386.4c-3.1-2.4-3.8-6.2-6.2-8.8C534.5,379,537.2,382.9,537.4,386.4z"/>
	<path d="M440.2,316.7c-2.9-2.9-5.8-5.7-8.1-9.1c-0.3-0.5-0.9-1-0.2-2.5c2.4,4.4,6,7.4,8.8,11.1c0,0.2,0.1,0.4,0.1,0.6
		C440.7,316.8,440.4,316.8,440.2,316.7z"/>
	<path d="M459.1,278.1c-4.6-1.9-5.8-3.1-6.4-6C454.2,272.4,456.7,274.7,459.1,278.1z"/>
	<path d="M497.6,340.5c3.9-1,7.6-1,11.5-1.5C506.5,340.7,501.2,341.4,497.6,340.5z"/>
	<path d="M377.6,420.3c-0.1,2.1-0.1,2.1-3.1,7C373.7,425,374.2,423.8,377.6,420.3z"/>
	<path d="M500,362.5c2.3-0.1,4.6,0,6.6,1.3C504.4,363.8,502,364.3,500,362.5z"/>
	<path d="M522,309.4c0.4-2.3-0.4-4.8,1.5-7.2C524.5,305.2,523.5,307.4,522,309.4z"/>
	<path d="M456.5,343.8c0.8-2.6,2.7-3.5,4.6-4.5C460.2,341.2,459.4,343.4,456.5,343.8z"/>
	<path d="M474.5,225c-1,2.2-1.9,4.3-2.9,6.5c-0.2-2.7,0.3-5,2.1-6.8C474,224.8,474.2,224.9,474.5,225z"/>
	<path d="M509.6,293.9c0.9,2.2-0.5,3.2-1.3,4.3C507.6,296.5,507.6,295.1,509.6,293.9z"/>
	<path d="M485.8,365.1c1.7-1.4,3.8-1.4,5.9-1.8C490,365,488.1,365.6,485.8,365.1z"/>
	<path d="M535.3,299.3c1.7,2.3,0.9,3.9-0.1,5.6C535,303.2,534.6,301.6,535.3,299.3z"/>
	<path d="M528.1,334.6c-0.9-1.5-0.2-2.5,0.9-3.8C529.6,332.6,529.9,333.7,528.1,334.6z"/>
	<path d="M476,333.9c0.6,2,0.4,3.3,0.3,5.1C474.5,337.3,474.7,336,476,333.9z"/>
	<path d="M479.6,282.5c-0.2,1.8-1.3,2.2-2.2,3.1C477.1,283.9,477.9,283.1,479.6,282.5z"/>
	<path d="M466.5,371.4c0.8-1.6,1.2-2.9,3.1-3.3C469.2,369.9,468.4,370.8,466.5,371.4z"/>
	<path d="M529.4,325.9c0.7,1.6,0.6,2.7-0.2,4C527.9,328.6,527.9,327.5,529.4,325.9z"/>
	<path d="M425.6,393.2c-0.6,1.6-1.7,2.5-3.8,2.3C422.8,394,424.4,393.8,425.6,393.2z"/>
	<path d="M529.3,319c0.7,2,0.8,3.3,0.4,4.8C528.4,322,528.4,322,529.3,319z"/>
	<path d="M440.8,316.2c1.2,1,2.1,2.1,2.6,3.6c-1.4-0.7-2.3-1.9-3.1-3.1C440.4,316.6,440.6,316.4,440.8,316.2z"/>
	<path d="M477.5,339.4c0.6,1.1,0.1,2.1-0.3,3.4C476.4,340.9,476.4,340.9,477.5,339.4z"/>
	<path d="M427.3,392.2c0.7-1.3,1.5-1.7,2.8-1.7C429.7,391.8,428.9,392.2,427.3,392.2z"/>
	<path d="M450.7,322.9c0.5,0.9,0.8,1.9,0.1,2.8C449.6,324.7,450.1,323.8,450.7,322.9z"/>
	<path d="M383.6,425.6c-0.4-1.8,0.2-2.6,1.2-3.7C385.2,423.7,384.7,424.4,383.6,425.6z"/>
	<path d="M493.7,363c1.9-0.6,1.9-0.6,4.2,0C496.3,363,495,363,493.7,363z"/>
	<path d="M482.4,277.8c-0.1,1.4-0.8,2.1-2.4,2.5C480,278.5,481.3,278.3,482.4,277.8L482.4,277.8z"/>
	<path d="M472.1,290.9c0.6,1.3,0.7,2-0.4,2.7C470.8,292.6,471.2,291.9,472.1,290.9z"/>
	<path d="M386.2,417.8c0.1-1.7,0.2-2.6,1.5-3.1C388.2,415.9,387.4,416.5,386.2,417.8z"/>
	<path d="M432.6,389.1c0.7-1.7,1.7-1.9,3.2-2.1C435,388.4,434.1,388.7,432.6,389.1z"/>
	<path d="M451.2,427.1c0.8,1.2,0.2,1.8-0.2,2.8C450.5,428.8,450.3,428,451.2,427.1z"/>
	<path d="M515.9,240.8c1,0.5,1.2,1.3,0.9,2.3C515.5,242.7,515.8,241.8,515.9,240.8z"/>
	<path d="M381.5,430.4c-0.3-1.6,0.3-2.2,1.4-2.7C383.1,428.9,382.7,429.6,381.5,430.4z"/>
	<path d="M378.4,416.6c0.5,1.2,0.2,1.9-0.7,2.4C376.9,418,377.3,417.4,378.4,416.6z"/>
	<path d="M438.6,429.1c0.4,1.4,0,2-1.1,2.2C437,430.3,437.5,429.7,438.6,429.1z"/>
	<path d="M475.7,333.1c-0.9-1.2-1-2-0.2-2.8C477,330.9,476.3,331.7,475.7,333.1z"/>
	<path d="M453.4,331.8c0.8,0.8,1.2,1.5,0.8,2.5C453.2,333.7,453.1,332.9,453.4,331.8z"/>
	<path d="M385.7,418.7c0.5,0.8,0.1,1.3-0.6,1.8c-0.8-0.2-0.5-0.7-0.4-1.2C384.8,418.9,385.2,418.7,385.7,418.7z"/>
	<path d="M464.3,373.1c-0.4,0.8-0.9,1.2-1.9,1C462.9,373.4,463.2,372.7,464.3,373.1z"/>
	<path d="M524.7,310.5c-0.4-0.1-0.9-0.2-0.8-0.8c0.1-0.3,0.5-0.5,0.7-0.3C525.1,309.8,525.1,310.2,524.7,310.5z"/>
	<path d="M382.3,410.7c0.2,0.9-0.2,1.3-0.8,1.5C381.1,411.4,381.2,411,382.3,410.7z"/>
	<path d="M364.5,485c-0.9-0.6-1.4-1.5-1.8-2.3c-3.9-8.3-5.9-17.1-5.1-26.3c0-0.3,0.1-0.7,0.2-1c0.1-0.2,0.3-0.3,0.4-0.4
		c1,0.2,1,1,1.1,1.8c0.6,4.4,1,8.8,0.9,13.2c-0.1,3.6,1.6,6.8,2.8,10.1c0.6,1.5,1.6,2.9,1.6,4.7C364.7,484.8,364.6,484.9,364.5,485z
		"/>
	<path d="M365.9,552.9c1.3,2.6,0.8,5.2,0.4,7.9C366.2,558.1,364.5,555.6,365.9,552.9L365.9,552.9z"/>
	<path d="M366.1,487.9c2.3,1.4,2,3.6,2.4,5.4C367.1,492,366.1,490.3,366.1,487.9z"/>
	<path d="M365.9,552.8c-0.8-1.7-0.2-3.6-0.8-5.3C366.5,549.1,365.7,551.1,365.9,552.8L365.9,552.8z"/>
	<path d="M364.6,542.6c-1-1.4-1.5-2.2-1-3.3C365,539.9,364.5,540.9,364.6,542.6z"/>
	<path d="M356.2,450.3c-0.5-1.7-0.5-2.7,0.8-3.5C357.5,448,357.1,448.8,356.2,450.3z"/>
	<path d="M364.8,484.7c0.5,0.4,1,0.8,0.8,1.5c-1,0.1-0.9-0.7-1.1-1.2C364.6,484.9,364.7,484.8,364.8,484.7z"/>
	<path d="M373.2,501.6c1.2,0.1,1.6,0.6,1.4,1.5C373.6,503.3,373.4,502.6,373.2,501.6z"/>
	<path d="M434.3,477.5c1.3,2.3,0.8,15.7-0.5,21C432.2,495.9,432.5,482.9,434.3,477.5z"/>
	<path d="M432.4,562.3c0,6.6-1,13.2,0.2,20.2c-1.9-1.5-2.3-3.1-1.9-4.6c0.8-3.7-0.1-7.3,0-11C430.6,564.2,430.4,564.1,432.4,562.3z"
		/>
	<path d="M434.2,506.1c0.7,7.5,2.4,14.9,2,22.4C435.4,521,433.8,513.6,434.2,506.1z"/>
	<path d="M434,476c-0.8-5.3-0.2-10.1,0.7-15.1C436.5,462.6,436.1,469.6,434,476z"/>
	<path d="M444,478.4c2.2,2.1,2.3,4.7,0.4,12.2C443.6,486.7,444.9,482.8,444,478.4z"/>
	<path d="M435.2,548.3c-0.4,3.9-2.1,6.4-3.6,9.4C431.1,554.9,432.5,551.1,435.2,548.3z"/>
	<path d="M444.4,508c-0.6-4.5,0-8.9,0-13.4c0.3,0,0.5,0,0.8,0c0,4.5,0,9,0,13.5C444.9,508,444.7,508,444.4,508z"/>
	<path d="M444.9,472.1c-2-2-0.8-4.3-0.7-6.6C445,467.6,445.7,469.7,444.9,472.1z"/>
	<path d="M437.5,572.2c-1.2-2.2-0.2-3.6,0.1-5.1C439.1,568.6,438.5,570.1,437.5,572.2z"/>
	<path d="M438.2,565.5c-0.4-2.3-0.6-3.9,0.4-5.6C439.3,562.4,439.3,562.4,438.2,565.5z"/>
	<path d="M445.4,516.9c-0.7-0.1-0.8-0.4-0.8-0.7c0-0.7-0.3-1.5,0.2-2.4C445.5,514.8,445.9,515.8,445.4,516.9z"/>
	<path d="M474.2,456c-0.7-2.3-0.4-4.7-0.2-7c0.1-2.5,0.5-5.1,0.5-7.6c0.1-3.6,1.3-6.9,2.6-10.2c2.9-7.6,6.8-14.7,13.3-19.8
		c3.1-2.5,6.7-3.9,10.8-2.3c1.2,0.5,2.2,1.1,2.6,2.3c-0.7,0.8-1.2,0.1-1.7-0.2c-3.6-2.2-7.4-1.7-10.1,0.9
		c-6.8,6.2-12.3,13.3-14.1,22.6c-1.4,6.8-2.9,13.6-2.8,20.7C474.9,455.6,474.9,455.9,474.2,456z"/>
	<path d="M467.7,469.1c-2-2.9-3-6-2.9-9.4c0.3-0.1,0.5-0.1,0.8-0.2C466.2,462.7,467,465.9,467.7,469.1z"/>
	<path d="M465.7,435.6c0.6-2.1,1.2-4.2,1.8-6.4c0.3,0.1,0.6,0.2,1,0.2c0.2,2.4-0.9,4.5-1.9,6.6C466.2,435.9,466,435.8,465.7,435.6z"
		/>
	<path d="M475.3,460.2c0.7,1.2,0.6,2.1,0.2,3.3C474.9,462.4,474.4,461.6,475.3,460.2z"/>
	<path d="M470.3,478.5c0.5,0.4,0.7,0.8,0.7,1.4C470.2,479.7,469.8,479.3,470.3,478.5z"/>
	<path d="M441.7,614.6c-2-0.3-2.9,0.5-4,1c-2.6,1.1-5.8-0.2-6.6-2.7c-0.8-2.6,0.8-5.4,3.6-6.2c2.7-0.8,5.4,0.9,5.9,3.8
		C440.8,611.7,441,612.8,441.7,614.6z"/>
	<path d="M391.8,610c4.3-2.6,13-1.4,16.2,2C405.7,614.1,403.6,613.9,391.8,610z"/>
	<path d="M426.3,609.2c2.6,0.1,4.5,2,4.5,4.7c0,2.7-2.2,4.8-4.9,4.8c-2.7,0-4.9-2.3-4.8-4.9C421.3,611.3,423.7,609.1,426.3,609.2z"
		/>
	<path d="M411.9,613.5c2.6-0.6,4.8-2.4,7.2-0.8c1.8,1.2,1.1,3.1,0.4,5.3c0.7,0.4,1.5,0.9,2.5,1.5c-2.6,2.3-3.6-1.6-5.7-0.6
		c-0.9,0.7,0.5,2-0.8,3.3C413,619.8,413.1,616.5,411.9,613.5z"/>
	<path d="M384.7,616.2c4.4-0.1,10.5,2.5,12.6,5.1C394.7,622.9,389.5,620.8,384.7,616.2z"/>
	<path d="M385.5,620.7c3.3-0.2,3.5-0.2,5.7,1.8C388.5,624.2,387.2,621.6,385.5,620.7z"/>
	<path d="M346.1,407.4c1.1,5.1-4.3,6.8-5.5,10.7C339.6,413.1,344,410.8,346.1,407.4z"/>
	<path d="M354.9,404.9c3.7,0.6,6.4,2.2,10,1.1C362.3,409.4,359.2,408.9,354.9,404.9z"/>
	<path d="M346.4,405.3c-1.2-1.2-1.4-2.4-1.7-3.6C346.5,402.1,346.5,402.1,346.4,405.3z"/>
	<path d="M587.6,462.1c-0.6-0.6-0.6-0.6-0.6-1.4C587.6,461.3,587.6,461.3,587.6,462.1z"/>
	<path d="M224.9,398.4c-2-1.8-2.6-3.9-3.8-5.6c-4-5.3-10.4-7.6-17-6.2c-3.2,0.7-5.8,2.1-7.9,4.5c-8.1,9.4-10.4,20.5-9.1,32.5
		c0.2,2.1,1.2,4.1,2,6.8c-2.5-2.1-3.1-4.6-3.4-6.9c-1.4-12,0.8-23.1,8.7-32.7c6.4-7.8,16.6-6.7,23.2-4.2
		C220.1,387.6,223.8,393.8,224.9,398.4z"/>
	<path d="M188.9,385.7c-6.3,5.3-7.6,13.2-10.5,20.3C178.4,400,183,388.5,188.9,385.7z"/>
	<path d="M177,412.9c0.2,3.3,0.7,6.5,0.4,9.7C175.8,419.5,176.3,416.2,177,412.9z"/>
	<path d="M179.3,428.3c1.2,1.7,2.4,3.5,2.9,5.6C180.4,432.4,179.4,430.5,179.3,428.3z"/>
	<path d="M184.3,437.5c1.4,1.2,2.8,2.4,4.2,3.5C186.4,440.7,185.1,439.4,184.3,437.5z"/>
	<path d="M225.2,400.8c1,1.1,1.1,1.9,0.6,2.9C224.8,403,224.9,402.1,225.2,400.8z"/>
	<path d="M190.6,432.6c-0.4-0.3-1-0.5-0.6-1.2C190.5,431.6,191,431.8,190.6,432.6z"/>
	<path fill="#FFFFFF" d="M884.2,612.1c-0.3,1.1-1.6-0.2-1.8,0.9c-0.7,1,0.4,1.4,0.5,2.1c-0.7,0.7-1.4,0.6-2.1,0.3
		c-1.4-0.7-1.9-1.8-1.7-3.2c0.2-1.2,0.9-2,2.1-2.1C882.9,609.7,883.9,610.4,884.2,612.1z"/>
	<path fill="#FFFFFF" d="M872,618.2c-1.8-0.3-2.8-1.3-2.8-3.1c0-1.5,0.9-2.5,2.5-2.5c1.9,0,2.9,1.2,2.9,2.9
		C874.7,617.1,873.6,618,872,618.2z"/>
	<path fill="#FFFFFF" d="M861.2,618.3c-0.8-0.8-0.9-1.5-0.6-2.4c1.2-0.5,2.5-1.3,3.5,0.4C863.8,618,862.5,618,861.2,618.3z"/>
	<path fill="#FFFFFF" d="M438.5,611.1c-0.7,0.1-1.2,0.2-1.8,0.3c-0.7,0.9-0.3,1.6,0.4,2.1c-0.5,0.7-1,0.8-1.5,0.7
		c-1.6-0.4-2.5-1.4-2.4-3.1c0-1.2,0.6-2.2,1.8-2.5C436.7,608.3,438,608.9,438.5,611.1z"/>
	<path fill="#FFFFFF" d="M426.2,616.8c-1.8-0.2-2.8-1.2-2.9-3c0-1.5,0.8-2.5,2.4-2.6c1.9-0.1,2.9,1,3,2.7
		C428.9,615.6,427.8,616.6,426.2,616.8z"/>
	<path fill="#FFFFFF" d="M414.5,614.6c1.5-0.6,2.8-1.4,3.8,0.4c-0.4,1.7-1.7,1.5-2.6,1.9C414.6,616.5,414.7,615.6,414.5,614.6z"/>
</g>
</svg>
