<?xml version="1.0" encoding="utf-8"?>
<!-- Generator: Adobe Illustrator 19.1.0, SVG Export Plug-In . SVG Version: 6.00 Build 0)  -->
<svg version="1.2" baseProfile="tiny" id="Layer_2" xmlns="http://www.w3.org/2000/svg" xmlns:xlink="http://www.w3.org/1999/xlink"
	 x="0px" y="0px" width="900px" height="600px" viewBox="144 97 900 600" xml:space="preserve">
<g>
	<path d="M810.9,589.8c0.2-0.7,0.3-1.4,0.6-2.4c-5.1-2.1-8.2-6.7-12.2-10.3c2.3,1,4.6,2.3,6.3,4.2c3,3.3,7.1,5.2,10.2,8.3
		c1.5,1.5,2.5,0.9,4.3-2c-3.5-3.9-8.3-6.7-12-11c1.5-0.3,2,0.5,2.5,1c2.7,2.2,5.1,4.8,8.4,6.2c2.1,0.9,2.7,3.1,2.5,5.3
		c1.7,0.9,3,0,4.3-0.4c1.1-2.1,0.4-3.3-1.4-4.7c-3.7-2.9-8.2-4.8-11-8.9c-0.7-1-1.2-1.9-1.5-2.9c1.1,0,1.7,0.8,2.4,1.5
		c2.3,2.2,5,3.8,7.8,5.3c1.2,0.6,2.5,0.8,3.5-0.4c-0.5-1-1.3-0.9-2-0.8c-4,0.3-7.1-1.5-9.7-4.4c-0.5-0.6-1.2-1.2-2.1-1
		c-2.8-3.1-5.6-6.1-10.2-6.7c-2.9-0.4-5.6-2.3-7.9-4.1c-3.5-2.8-7.7-4.3-11.4-6.7s-7.7-4.4-10.9-7.4c-6.7-6.1-15-8.2-23.5-10
		c-1-0.2-2.1,0-2.8-1c0.9-0.9,2,0.1,3.1-0.7c-1.6-1.8-3-4-4.9-5.4c-4.6-3.4-9.2-7.1-14.7-8.9c-5.1-1.7-9.9-3.6-12.5-8.9
		c-0.5,1.6,1,3,0,5.2c-0.8-4.2-4.1-6.4-4.4-10.3c3.9,1.6,6.9,4.2,8.3,8.3c3.2-1.9,5.7-4.6,8.7-7.1c-4.1-3.1-8.6-4.6-13.3-5.7
		c-6.2-1.4-12.4-2.1-18.7-1.3c-4,0.5-7.9,2.2-11.6,3.7c-6.5,2.5-6.5,2.7-6.5,9.7c0,2.7-0.2,5.3-0.6,8c-0.4,2.5-0.9,4.9-3,6.6
		c0.3,4.4,2.6,8.2,3.1,12.5c0,0.4,0.4,0.8,0.7,1c3.9,2.2,7.3,5.2,11.9,6.3c5.1,1.2,10.3,1.8,15.4,3.2c2.8,0.8,5.3,2.2,7.9,3.5
		c5.1,2.5,10.4,4.3,16.2,4.2c3.2,0,6.3,1,9.7,0.6c-0.6-1.8-1.4-3.6-0.5-5.6c1.5,0.8,0.9,2.2,1.3,3.3c0.7,2.4,1.5,4.6,4.1,5.7
		l-0.1-0.1c1.7,2,4.1,2.2,6.6,2.7c7.8,1.3,15.5,3,23.5,4.5c-1.2-1.9-0.7-3.4,1-4.7c1.3,1.4-0.8,2.5,0,3.8c0.6,1.1,1.7,1.8,2.1,3.2
		c-1.5,0.5-2.7,1-4.1,0.4c-5.5-2.5-11.5-3-17.4-4.2c-5.4-1.1-11-1.7-15.2-6c-0.6-0.6-1.9-0.7-2.9-0.8c-2.3-0.3-4.7-0.7-7.1-0.7
		c-7.2,0-13.9-2-20-5.6c-3.7-2.2-7.5-3.3-11.7-3.5c-5.4-0.3-10.5-2.1-15.4-4.2c-5-2.2-9-5.3-9.4-11.5c-0.1-1.4-1.2-2.3-2.5-2.9
		c-1.3-0.6-2.7-1.1-4-1.7c-3,1.5-6.1,2.9-9.1,4.5c-3.2,1.7-6.7,2.6-10.3,3c-9.3,1.1-18.7,1-28.1,0.7c-1.5-0.1-3.9,0.4-3.8-2.6
		c0-0.5-1.8-0.2-2.1-1.3c-0.1-1,1-0.8,1.5-1.4c-0.3-0.3-0.5-0.6-0.7-0.7c-1.8-1.1-3.3-2.3-4.3-4.3c-1.3-2.8-1.3-6.3-4.5-7.7
		c0.3-1.5,1.4-0.7,2.1-1.6c-1.8-3.3-1.9-7-1.7-10.8c0.1-1.5-1-3.3-2-4.7c-0.7-0.9-1.3-1.8-1.2-2.8c0.8-1.4,1.7-0.3,2.6-0.3
		c-0.8-3.3-1.7-6.4-0.7-9.7c0.4-1,1.5-1.1,2.3-1.9c-1.1-1.1-2.9-0.9-3.6-2.6c0.9-0.9,1.8-2,1.7-3.4c1-0.4,1.5,0.4,2.3,0.5
		c0-1.4-1.3-2.3-1.4-4.1c2.1-3.3,5.8-1.7,8.8-2.2c2.2,2.4,3.1,5.4,4.7,8.1c3.3-0.4,6-2.2,8.7-3.7c2.3-1.3,4.7-2.1,7,0.1
		c2.6-1.7,5.2-3.2,7.5-5c3.8-2.9,4.2-3,7.7,0.1c1-0.3,2-0.7,2.8-0.9c1.3,0,1.4,1.2,2.4,1.3c1.5-1.4,3.3-1.8,5.3-0.9
		c1.2,0.5,2.1,0.2,3.2-0.3c4.2-1.9,8.5,0.4,9.2,5c0.5,3.1,1.5,6,2.7,8.9c1.6,0.4,3.2,0.8,4.7,1.6c2.7,1.3,5.1-0.8,7.3-2.3
		c3.8-2.6,6.8-6.1,9.4-10c2.9-4.4,6.4-8.3,10.1-12.1c2.6-2.6,5.7-4.5,9-5.8c3.2-1.3,6.3-3,9.9-3.4c1.4-0.2,2.7-0.9,4-1.6
		c12.1-6.6,24.5-12.6,37.5-17.2c5.1-1.8,10-4.3,14.9-6.6c8.1-3.7,16.7-5.9,25.2-8.2c1.3-0.4,2.4-0.6,3.1-2.1
		c0.6-1.1,1.8-1.9,3.3-1.9c1.5,0.1,2.8-0.6,3.9-1.3c1-1,0.1-2.3,0.7-3.3c3.3-2.2,3.3-2.2,3.6-6.3c0.5-5.3,1.2-10.6,1.7-16
		c0.3-2.8,2.3-3.7,4.3-4.7c1.9-0.9,4.2-0.9,6.1-2.4c0.9-4.5,2.7-8.8,4.2-13.1c0.9-2.7,2.4-5,4.9-6.6c2-1.3,3.2-3.1,4.2-5.2
		c2.6-5.7,5.8-11.1,8.2-16.9c1.2-3,3.7-6,6.8-7.8c1.7-1,2.6-2.4,3.4-4.2c0.9-2.4,2-4.8,3.4-6.9c1.8-2.8,4.4-4.5,7.6-5.4
		c5.5-1.6,11.2-3,16.2-5.8c3.7-2.1,7.4-4.4,10.5-7.4c0.6-0.6,1.2-1.1,1.9-1.5c7.4-4.1,13.9-9.6,21-14.1c13.4-8.6,25.9-18.3,39.1-27
		c0.3-0.2,0.6-0.5,1-0.8c-1.2-1.6-3.1-2.5-3.7-4.5c0.5-2.6,1.7-5,3.1-7.3c1.4-2.3,3.1-4.4,4.6-6.3c0.5-5.8,0.9-11.4,0.5-17.1
		c-0.2-3.4-1.8-6.1-3.6-8.8c-2.3-3.3-4.1-6.9-6.2-10.3c-1.4-2.4-0.9-5.7,1.2-8c2.5-2.8,5.4-4,8.1-2.6c3.3,1.7,6.6,3.2,8.9,6.6
		c2.1,3,5.3,5.1,8,7.7c5.5,5.4,10.4,11.1,13.6,18.2c1.5,3.3,3.9,5.8,6.9,7.7c2.7,1.7,4.4,4.4,6,7c3.8,6.1,8.2,11.8,12.4,17.7
		c0.4,0.6,1,1.1,1,2.3c-1.9,1.5-3.8,3.3-6.8,3.4c-1.9,0-3.6,0.3-4.6,2.4c-0.7,1.4-2.4,1.9-3.9,2.3c-1.9,0.5-3.5,1.6-5,3
		c-3.3,2.9-7.1,4.2-11.6,3.3c-2.7-0.6-5.4,0-7.7,1.9c-11.1,9-21.3,18.7-30.4,29.8c-1.3,1.6-2.5,3.2-3.5,5.1
		c-5.3,10.6-13.6,18.2-24,23.7c-7.5,3.9-15.1,7.5-23.2,9.9c-4.4,1.3-5.2,3-5.5,7.6c-0.4,6.2-0.6,12.4-1.3,18.5
		c-0.7,5.6,0.1,11.3-1.8,16.8c1,0.4,1.4-0.7,2.2-0.5c0.5,0.3,0,1,0.4,1.5c0.3,0,0.7,0,1.1-0.2c11.6-5,24.1-5.8,36.2-8.6
		c4-0.9,8.2-0.7,12.3-1.1c3-0.3,5.5,0.7,7.8,2.4c3.3,2.5,7.2,3.4,10.8,5.2c4.3,2.2,6.9,5.8,7.2,10.6c0.3,4.8,1.5,9.3,2.5,13.9
		c0.2,1,0.6,2,0.8,3c1.7,9.6,3,19.2,2.6,29.1c-0.3,8.9-0.7,17.7-2,26.4c-0.6,4.1-0.3,8.2,0,12.3c0.4,5.4,0.1,10.9,1,16.4
		c2.7,1.3,5.2,2.9,7.9,4.8c-0.5,4.1,2.3,4.9,5.7,5.7c7.2,1.7,14.5,1.4,21.8,1.8c2,0.1,4.1-0.4,6-1.2c1.2-0.5,2.5-1,3.7-1.5
		c6.6-2.7,12.6,0.7,13.7,7.8c0.2,1,0.1,2.1-0.2,3.1c-0.2,0.7-0.5,1.4-0.8,2c-3.4,6.2-7.7,11.8-13,16.3c-7.5,6.3-16.4,9.3-26.3,8.4
		c-3.4-0.3-6.1,0.4-8.6,2.4c-6.1,4.9-13.1,5.9-20.7,5.2c-5.1-0.5-10-1.6-14.8-3c-1.6-0.5-3.1-1.1-3.8-2.7c0.1-1.3,1.5-0.5,2.3-1.9
		c0.6-7.5,1-15.7-0.1-23.7c3-3.1,4.5-6.4,3.5-10.6c-2.9-11.7-5.8-23.3-8.7-35c-0.2-0.8-0.3-1.6-0.7-2.3c-4.8-8-6.8-16.9-7.7-26.6
		c-2.3,3.3-3.7,6.6-5.2,9.9c-1.7,4-1.7,4.1-6.1,3.9c-1.8-0.1-3.1,0.3-4.2,1.9c-2.7,4-6.7,5.6-11.4,5.5c-2.7,0-5.3,0-8.3,0
		c-0.7,1.9-2.3,3-3.9,4.1c-3.3,2.5-6.6,4.6-10.4,0.5c-1.9,2.7-3.4,5.1-5.2,7.3c-3.9,4.6-8,8.8-14.6,9.4c-3.3,0.3-6.4,1.4-9.3,3.1
		c-5.4,3.2-11.4,4.6-17.5,5.8c-3.6,0.7-6.9,0.2-10-1.9c-3.2-2.2-6.3-4.7-9-7.5c-1.3-1.4-2.5-1.9-4.4-1c-1.3,0.6-2.6,0.7-4.2,0.2
		c-1.4-0.5-2.9,0.5-4.3,1.2c-2.3,1.1-4.6,2.2-7.5,1.1c-3.4,3.2-7.8,4.8-12.1,6.8c-0.3,0.1-0.7,0.2-0.8,0.4c-1.1,2.9-3.5,2.3-6.3,2.2
		c-9.4,11.8-21.1,21.3-35.7,28c2,1,3.3,1.9,5,2.2c6.7,1,12,4.6,17,8.8c2.1,1.8,4.2,3.6,6.7,4.9c3.8,1.9,7.1,4.5,11.2,5.9
		c0.9,0.3,1.6,0.9,2.3,1.5c3.3,2.9,7,5,11.4,5.9c1.9,0.4,3.4,1.3,4.7,2.7c2.2,2.3,5,3.9,7.6,5.7c2.9,2,6.2,1.8,9.6,1.7
		c1.2,0,2.5-0.5,3.6,0.1c1.3,3.4-0.4,6-4.9,7.6c0.3,0.3,0.5,0.7,0.8,1c1.1,1.3,2.2,2.7,1.1,4.4c-1.1,1.7-2.8,2.9-4.9,2.5
		c-1.4-0.3-2.5-0.1-3.7,0.7c-1.3,1-2.5,0.5-3.6-0.5C813.9,589.5,812.5,589.2,810.9,589.8L810.9,589.8z"/>
	<path d="M287.1,565.6c1.7,2,4.1,2.3,6.6,2.7c7.8,1.3,15.5,3,23.5,4.5c-1.2-1.9-0.7-3.4,1.1-4.7c1.3,1.4-0.7,2.4-0.1,3.8
		c0.5,1.1,1.8,1.7,2,3.2c-1.3,0.5-2.6,1-4,0.3c-5.5-2.5-11.5-3-17.3-4.2c-5.4-1.1-11-1.7-15.2-6c-0.6-0.6-1.9-0.7-2.9-0.8
		c-2.3-0.3-4.7-0.7-7.1-0.7c-7.1,0-13.7-1.9-19.7-5.5c-4-2.4-8.3-3.3-12.9-3.8c-6.1-0.6-11.9-2.5-17.2-5.6c-3.7-2.1-6.5-5.1-6.7-9.7
		c-0.1-1.6-1.2-2.6-2.5-3.2c-1.3-0.6-2.7-1.1-4-1.7c-3,1.5-6.1,2.9-9.1,4.5c-3.2,1.7-6.7,2.6-10.3,3c-9.4,1.1-18.9,1-28.4,0.7
		c-1.5,0-3.7,0.1-3.5-2.7c-0.6-0.5-1.8-0.1-2.2-1.2c-0.1-1.1,1.1-0.8,1.4-1.5c-0.2-0.2-0.3-0.5-0.6-0.6c-1.9-1.1-3.5-2.5-4.4-4.6
		c-1.2-2.7-1.2-6.1-4.3-7.4c0.2-1.5,1.4-0.7,1.8-1.4c0.3-1.7-1.4-2.9-1.3-4.6c0.3-4.9-0.7-9.4-3.4-13.5c-0.1-0.1,0.1-0.4,0.1-0.5
		c0.7-1.4,1.6-0.1,2.5-0.3c-0.7-3.2-1.7-6.3-0.6-9.6c0.3-1,1.5-1.2,2.3-1.9c-1-1.1-2.9-0.9-3.6-2.5c0.8-1,1.9-1.9,1.6-3.4
		c1-0.5,1.5,0.4,2.3,0.5c0-1.4-1.3-2.4-1.4-4.1c2.1-3.4,5.8-1.7,8.8-2.3c2.2,2.4,3.1,5.4,4.7,8.1c3.3-0.4,5.9-2.2,8.7-3.7
		c2.3-1.3,4.7-2.1,7.1,0.1c2.6-1.8,5.3-3.4,7.7-5.2c3.5-2.7,4-2.7,7.5,0.2c1-0.3,2-0.7,2.8-0.9c1.3-0.1,1.4,1.2,2.4,1.3
		c1.5-1.4,3.3-1.9,5.3-0.9c1.3,0.6,2.3,0.1,3.5-0.4c4-1.8,8.3,0.7,8.9,5c0.4,3.1,1.5,6,2.7,8.9c1.6,0.7,3.9-0.2,4.7,2.1
		c10.5-7.4,22.2-11.7,33.5-16.8c3.7-1.7,7.9-2.3,12-2.5c5.8-0.4,11.4-2.9,17.4-2.5c8.2,0.5,16.4,0.8,24.6,1.6
		c12,1.1,23.9,2.4,35.8,4.7c1.1,0.2,2.3,0.2,3.4-0.1c2-0.5,3.9-1.3,5.9,0.1c0.4,0.3,0.8,0.1,1.1-0.1c1.2-0.9,2.1-0.1,3.2,0.7
		c0.4-0.7,0.9-1.4,1.4-2.2c-0.6-1.2-2.9-0.9-3.6-3.1c1.8-1.8,2.9-4.5,5.1-6.1c1.5-1.1,1.8-2.5,1.5-4.1c-1-5.6-0.8-11.3-1.7-16.9
		c-0.4-2.5,0.5-4.2,2.4-5.5c2.1-1.3,4.2-2.6,6.5-4c-0.1-4.7,0.9-9.3,1.5-14c0.4-2.7,1.3-5.2,3.3-7.1c1.8-1.7,2.8-3.7,3.2-6.2
		c0.8-4.6,2.9-8.8,4.2-13.2c0.6-2,1.3-4,1.5-6.2c0.3-2.9,1.9-5.4,4-7.5c1.5-1.4,2.2-3.1,2.6-5.1c0.5-2.4,1-4.8,1.9-7.1
		c1.2-3.3,3.7-5.6,6.9-7.2c4.9-2.4,9.8-4.9,14-8.3c3.5-2.8,6.7-6,9.3-9.7c2-2.8,4.7-4.9,7.3-7.1c4.6-3.9,7.9-9,12.3-13
		c11.7-10.7,21.9-22.9,33.2-34.1c0.2-0.2,0.3-0.5,0.5-0.7c-0.1-0.2-0.2-0.4-0.3-0.5c-4.7-2.7-4.9-3.2-3.3-8.4
		c1.1-3.5,2.5-6.7,4.3-9.9c-1.3-4.9-1.3-9.9-2.5-14.8c-1-4-3.1-7-5.8-9.7c-2.9-2.8-5.4-5.9-8.1-8.9c-1.9-2.1-2-5.5-0.3-8.1
		c1.7-2.5,3.6-5.1,7.2-4.1c3.5,1,7.1,1.8,10,4.6c2.7,2.5,6.4,4,9.6,6.2c6.3,4.2,12.2,8.7,16.7,15c2.2,3,5.1,5.1,8.5,6.4
		c3,1.2,5.1,3.4,7.2,5.7c4.9,5.2,10.2,9.9,15.3,14.7c0.6,0.6,1.3,1,1.7,2.3c-1.7,1.9-3.3,4.2-6.5,4.7c-1.6,0.3-3.1,0.9-3.5,3
		c-0.3,1.5-1.8,2.2-3,2.9c-2.1,1.1-3.5,2.6-5,4.5c-2.6,3.2-6,5.2-10.3,5.2c-2.9,0-5.4,1-7.3,3.2c-9.3,11.1-17.5,22.8-24.3,35.6
		c-0.9,1.7-1.7,3.5-2.3,5.4c-3.2,11.3-9.7,20.3-18.7,27.6c-6.6,5.4-13.5,10.4-21.1,14.4c-4,2.1-4.5,4.1-3.9,8.6
		c0.7,5.5,1.3,11,2.2,16.5c0.5,2.8,1.1,5.7,1.9,8.4c1.3-0.1,2-1.1,2.7-1.9c2.2-2.7,5-4.6,8-6.2c4.8-2.7,9.3-5.8,13.6-9
		c5.6-4.1,11.9-6.9,18.1-9.9c3.2-1.6,6.5-1.9,9.8-0.5c2.3,1,4.7,1.3,7.2,1.6c5.9,0.6,9.5,3.5,10.8,9.3c0.9,3.9,2.2,7.4,4.3,10.8
		c1.5,2.3,2.3,5,2.7,7.8c0.3,2.2,0.8,4.4,1.8,6.5c1.4,3.2,1.5,6.6,1.7,10c0.5,5.7,0.7,11.5,1.2,17.2c0.5,5.8-0.4,11.5-0.5,17.3
		c-0.2,10.1,1.7,20,2.9,30c3.1,1.2,5.7,2.7,8.4,4.3c-0.1,3.8,2.3,4.6,5.7,5.2c7.7,1.2,15.4,0.3,23.1,0.2c2.5,0,4.7-1.3,6.9-2.5
		c0.5-0.3,1.1-0.6,1.6-0.9c6.4-3.3,12.1-0.8,14.2,6.3c0.5,1.5,0.4,3.1-0.2,4.5c-3.8,8.3-8.4,16.3-16,21.5c-6.3,4.3-13.3,7.7-21.3,7
		c-4-0.3-7,1.3-9.7,3.7c-4.7,4.2-10.3,5.8-16.4,6.1c-5.9,0.2-11.7-0.6-17.5-1.8c-1.8-0.4-3.6-0.9-4.5-2.5c0.2-1.3,1.3-0.7,2.2-1.9
		c-0.1-7.6-0.1-15.7-1.8-23.5c2.6-3.6,4-7,2.6-11.3c-3.8-11.2-7.4-22.4-11.1-33.7c-0.4-1.3-0.9-2.5-1.8-3.6c-2.5-3.2-3.7-7-5.5-10.6
		c-0.3,5.2-1.7,10.2-1.6,15.3c0,2.7-1.3,4.7-3.6,6c-1.3,0.7-2.8,1.4-4.2,1.9c-2.8,0.8-5.4,1.8-7.8,3.6c-1.5,8.8-7.7,12.8-15.7,14.8
		c-1,1.1-1.6,2.4-2.3,3.7c-4,7.4-9.3,13.6-16.5,18c-1.5,0.9-2.9,2-4.1,3.2c-2.3,2.3-5,3.9-7.8,5.5c-7.8,4.5-16.4,5.4-25.1,6.6
		c-9.4,1.3-18.2-0.5-27-3c-3.2-0.9-6.4-1.4-9.7-1.7c-9.6-0.9-19.1-1.2-28.7-0.1c-3.7,0.4-7.4,0.7-11.4,1c1.4,1.9,2.9,3.3,4.6,4.3
		c4.2,2.4,8.2,5.2,12.6,7c0.9,0.4,1.8,0.6,2.5,1.2c4.3,3.7,9,6.3,14.6,7.6c2.9,0.7,4.5,3.5,6.7,5.2c4.3,3.3,8.7,4.8,14,4.2
		c0.8-0.1,1.6-0.1,2.5,0c0.2,0,0.4,0.1,0.6,0.2c1.3,3.3-0.4,6-4.9,7.6c0.3,0.3,0.5,0.7,0.8,1c1.1,1.3,2.2,2.7,1.1,4.4
		s-2.8,2.9-4.9,2.5c-1.4-0.3-2.5-0.1-3.7,0.7c-1.3,1-2.5,0.5-3.6-0.5c-1.2-1.2-2.7-1.5-4.3-1v0.1c0.2-0.7,0.3-1.4,0.6-2.4
		c-5.1-2.1-8.2-6.7-12.2-10.3c2.3,1.1,4.6,2.3,6.3,4.2c3,3.3,7.1,5.2,10.2,8.3c1.5,1.5,2.5,0.9,4.3-2c-3.5-3.9-8.3-6.7-12-11
		c1.5-0.3,2,0.5,2.5,1c2.7,2.2,5.1,4.8,8.4,6.2c2.2,0.9,2.6,3.2,2.6,5.3c1.6,0.8,2.9-0.1,4.2-0.5c1.1-2.1,0.4-3.3-1.4-4.7
		c-3.7-2.9-8.2-4.8-11-8.9c-0.7-1-1.2-1.9-1.5-2.9c1.1,0,1.7,0.8,2.4,1.5c2.3,2.2,5,3.8,7.8,5.3c1.2,0.6,2.5,0.8,3.5-0.4
		c-0.5-1-1.3-0.9-2-0.8c-4,0.3-7.1-1.5-9.7-4.4c-0.5-0.6-1.2-1.2-2.1-1c-2.8-3.1-5.6-6.1-10.2-6.7c-2.9-0.4-5.6-2.3-7.9-4.1
		c-3.5-2.8-7.7-4.3-11.4-6.7c-3.6-2.4-7.5-4.3-10.7-7.2c-6.7-6.2-15.2-8.4-23.7-10.2c-0.7-0.2-1.4-0.3-2.1-0.5
		c-0.3-0.1-0.4-0.4-0.7-0.6c0.9-0.9,2.1,0.1,3.1-0.7c-1.6-1.8-3-4-4.9-5.4c-4.5-3.4-9-7-14.4-8.8c-5.2-1.8-10.1-3.7-12.9-9.6
		c-0.4,2.2,1.2,3.5,0.1,5.8c-0.5-2.5-1.1-4.4-2.6-5.6c-1.6-1.2,0.1-3.6-2-4.6c3.5,1,6.4,3.1,7.8,6.3c1.1,2.6,2.8,3.8,5.4,4.3
		c0.8,0.2,1.6,0.5,2.5,0.8c2.7-1.4,5.8-1.8,9.1-2.8c-2.2-3.3-4.5-6.1-7.8-8.2c-6.6-4.1-13.9-5.3-21.4-6.5c-3.6-0.6-7.5-0.7-10.7,0.2
		c-5.3,1.5-10.8,2.6-15.6,5.6c-1.9,1.1-2.1,3.2-2.1,5.2c0.1,3.6-0.1,7.2-0.6,10.8c-0.4,2.4-0.9,4.6-3,6.4c0.4,4.4,2.6,8.4,3.2,12.8
		c0,0.3,0.3,0.6,0.6,0.7c3.9,2.2,7.3,5.2,11.9,6.3c5.1,1.2,10.3,1.8,15.4,3.2c2.8,0.8,5.3,2.2,7.9,3.5c5.1,2.6,10.4,4.3,16.2,4.2
		c3.2,0,6.3,1,9.7,0.6c-0.6-1.8-1.4-3.6-0.5-5.7c1.5,0.8,0.9,2.2,1.3,3.3C283.8,562.4,284.6,564.6,287.1,565.6L287.1,565.6z"/>
	<path d="M810.9,589.7c-0.8,1.4-2.2,1.6-3.5,1.1c-2.8-1.1-6.1-1-8.4-3.4c-3.5,3.4-3.5,3.3-7.7,1.2c-3.6-1.8-6.7-4.6-10.7-5.9
		c-2-0.7-3.2-2.8-2.9-5c0.3-2.4,0.1-5.3,3.6-7.2c-1.1,2.4-1.1,4.3-1.4,6.2c-0.5,4.1,1.5,6,5.8,5.2c1.5,3.3,4.8,4.5,7.8,6.1
		c1.8,0.9,3.1,0.6,4-1.6c-2.3-1.7-4-4-6.2-6.7c2,0.3,3.1,1.1,3.8,2.1c3.8,5.4,9.2,7.2,15.4,7.7C810.5,589.6,810.7,589.7,810.9,589.7
		L810.9,589.7z"/>
	<path d="M353.2,591.5c-0.8,1.4-2.2,1.6-3.5,1.1c-2.8-1.1-6.2-0.9-8.3-3.4c-3.6,3.4-3.5,3.4-7.8,1.2c-3.6-1.8-6.7-4.6-10.7-5.9
		c-2-0.7-3-2.7-3-5c0.1-3.5,1.1-5.5,3.5-6.8c-0.9,2.1-1,4-1.2,5.9c-0.5,4.1,1.5,6,5.8,5.2c1.5,3.3,4.8,4.5,7.8,6.1
		c1.8,0.9,3.1,0.6,4-1.6c-2.4-1.6-3.9-4.1-5.7-6.3c1.6-0.1,2.6,0.7,3.3,1.7c3.8,5.4,9.2,7.2,15.4,7.7
		C352.9,591.4,353.1,591.5,353.2,591.5L353.2,591.5z"/>
	<path d="M730,549.4c3,0.8,5.8-0.5,8.7-0.7c2.6-0.2,3.3,0.7,2.5,3.4c-3.6-1.6-7.8,1-11.4-1.4C730,550.2,730,549.8,730,549.4z"/>
	<path d="M283.7,554.1c-3.8-1.9-8,1-11.3-1.6c0-0.8,0.3-1.1,0.5-1.1c2.7,0.4,5.2-0.5,7.8-0.8c1.5-0.2,3.2-0.3,3.6,1.9
		C284.3,552.7,284,553.1,283.7,554.1z"/>
	<path d="M299.3,562.8c-6-1-11.4-3.1-15.8-7.6c3.4-0.3,4.8,3.2,7.6,4C294.1,559.9,296.9,560.9,299.3,562.8z"/>
	<path d="M757.6,561.2c-6.6-1.2-12-3.4-16.4-7.8c3.4-0.3,4.8,3.2,7.7,4C751.7,558.1,754.6,559.1,757.6,561.2z"/>
	<path d="M732.4,547.1c3.9-0.3,7.6-1.6,11-3.5C740.4,547.3,735.5,548.9,732.4,547.1z"/>
	<path d="M274.4,548.8c4.1-0.5,7.9-1.2,11.2-3.6C283.5,548.9,277.6,550.8,274.4,548.8z"/>
	<path d="M684.5,516.1c-1.3,1.5-1.5,3.1-2.3,4.4c-1.4-0.4-1.5-1.3-1.2-2.4C681.3,516.8,682.1,515.8,684.5,516.1z"/>
	<path d="M226.3,518c-0.8,1.4-1,2.9-1.8,4.3c-1.4-0.4-1.5-1.3-1.2-2.4C223.6,518.5,224.5,517.7,226.3,518z"/>
	<path d="M287.1,565.6c-0.2-0.4-0.4-0.8-0.7-1.3c2.7,1.2,5.5,2.1,8.9,2.6c-2.3,0.9-3.9,0-5.5-0.4
		C288.9,566.3,288.2,565.4,287.1,565.6L287.1,565.6z"/>
	<path d="M744.8,563.8c-0.2-0.4-0.5-0.8-0.7-1.3c2.7,1.2,5.5,2.1,8.9,2.6c-2.3,0.9-3.9,0-5.5-0.4
		C746.6,564.5,745.8,563.6,744.8,563.8L744.8,563.8z"/>
	<path d="M252.4,550.8c-1.8,2.6-2.9,2.8-5.3,1.1C248.7,550.7,250.6,551.2,252.4,550.8z"/>
	<path d="M704.8,549.9c1.7-0.8,3.4-0.5,5.1-0.9C708.4,551.6,706.9,551.9,704.8,549.9z"/>
	<path d="M269.6,531.7c2.7,0.4,4.8,0.1,7.2,1C274.1,533.9,272.9,533.7,269.6,531.7z"/>
	<path d="M728,530.1c2,0.5,4.3-0.5,6.5,1.1C731.8,532.1,729.8,531.6,728,530.1z"/>
	<path d="M747.5,548.5c-2.4,0.8-4.6,0.2-6.5-1.2C743.3,547,745.4,547.8,747.5,548.5z"/>
	<path d="M289.9,550.4c-2.4,0.7-4.5,0.2-6.5-1.2C285.7,548.9,287.8,549.4,289.9,550.4z"/>
	<path d="M234.2,530.1c1.8,0.7,3.7,1.1,5.4,2.1C237.5,532.2,235.7,531.6,234.2,530.1z"/>
	<path d="M253.7,550.3c1.4-0.9,1.6-3.1,3.9-3.4C256.9,549.1,256.3,550.9,253.7,550.3z"/>
	<path d="M697.1,530.7c-1.9-0.5-3.8-0.8-5.2-2.7c1.8,0.7,3.6,1.3,5.4,2C697.2,530.3,697.2,530.5,697.1,530.7z"/>
	<path d="M711.3,548.5c1.4-0.9,1.7-2.9,3.6-3.4C714.3,548.3,713.9,548.7,711.3,548.5z"/>
	<path d="M753.9,549.3c-2.1,0.9-3.4,0.5-5.3,0C750.6,547.6,751.9,548.2,753.9,549.3z"/>
	<path d="M226.1,521.9c1.6,0.9,1.5,2.5,2,3.8C226.4,525,225.5,524.1,226.1,521.9z"/>
	<path d="M685.8,523.8c-1.8-0.6-2.7-1.6-2-3.7C685.3,520.9,685.3,522.5,685.8,523.8z"/>
	<path d="M290.9,550.5c2.1-0.8,3.5-0.7,5,0.6C294.2,552,292.8,551.8,290.9,550.5z"/>
	<path d="M800.3,575.4c-1.7,0-1.9-0.8-2.3-2C799.4,573.4,800,573.9,800.3,575.4z"/>
	<path d="M340.4,575.1c1.4,0.2,2.1,0.6,2.2,2.1C341.1,577.2,340.7,576.4,340.4,575.1z"/>
	<path d="M268.2,531.8c-1.5,0.7-2.5,0.7-4.1,0C265.7,531.3,266.7,531,268.2,531.8z"/>
	<path d="M725.4,529.9c-1,0.9-2,0.8-3.3,0.3C723.2,529.2,724.3,529.5,725.4,529.9z"/>
	<path d="M790.3,574.6c1.8,0.3,2.5,0.8,2.6,2.2C791.4,577,791,576,790.3,574.6z"/>
	<path d="M335.5,578.6c-1.7,0.2-2.1-0.6-2.5-1.7C334.4,576.3,334.9,577.3,335.5,578.6z"/>
	<path d="M708.8,506.9c-1.2,0.9-1.9,0.4-2.6,0C707,505.9,707.7,506.4,708.8,506.9z"/>
	<path d="M248.3,508.4c1.1-0.2,1.9-0.6,2.6,0.5C250,509.5,249.3,509.3,248.3,508.4z"/>
	<path d="M243.3,512.6c1.3-0.4,1.9-0.2,2.9,0.2C245.1,513.7,244.5,512.9,243.3,512.6z"/>
	<path d="M703.7,511.2c-1,0.4-1.5-0.1-2.4-0.5C702.2,510.6,703,510.4,703.7,511.2z"/>
	<path d="M800,569.5c1.2,0.4,2.1,0.4,2.3,1.5C801.4,571,800.8,570.7,800,569.5z"/>
	<path d="M713.3,530.8c0.8-0.3,1.4-0.5,1.8,0.2C714.5,531.8,714,531.8,713.3,530.8z"/>
	<path d="M342.7,571.7c0.9-0.1,1.6,0,2,1C343.7,573,343.3,572.3,342.7,571.7z"/>
	<path d="M255.7,532.7c0.8-0.5,1.3-0.3,1.9,0C256.9,533.6,256.4,533.6,255.7,532.7z"/>
	<path d="M764.3,552c-0.5,0.6-0.8,0.3-1.2,0C763.5,551.2,763.9,551.4,764.3,552z"/>
	<path d="M305.4,553.6c0.5-0.4,0.9-0.4,1.3,0.2C306.1,554.4,305.7,554.2,305.4,553.6z"/>
	<path d="M754.7,549.8c0.6-0.2,1.1-0.2,1.1,0.2c0.1,0.6-0.3,0.5-0.7,0.3C755,550.2,754.9,550,754.7,549.8z"/>
	<path d="M717.2,545.6c0,0.4-0.3,0.5-0.6,0.4c-0.1,0-0.3-0.4-0.2-0.5C716.7,545.1,717,545.2,717.2,545.6z"/>
	<path d="M718.8,545.2c0.2-0.9,0.7-0.8,1.3-0.4C719.9,545.5,719.5,545.5,718.8,545.2z"/>
	<path d="M745.9,542.2c0.1,0.7,0.1,1.1-0.5,0.8C745.2,542.9,745.4,542.5,745.9,542.2z"/>
	<path d="M297.2,551.7c0.7-0.4,1-0.2,1.2,0.3C297.6,552.5,297.5,551.9,297.2,551.7z"/>
	<path d="M259.1,547.8c-0.1-0.1-0.3-0.3-0.3-0.4c0-0.4,0.4-0.4,0.6-0.2c0.1,0.1,0.1,0.3,0.2,0.4
		C259.4,547.7,259.2,547.8,259.1,547.8z"/>
	<path d="M261.1,547.2c0.3-1.1,0.9-0.7,1.5-0.8C262.2,547.4,261.7,547.1,261.1,547.2z"/>
	<path d="M288,545c-0.1-0.2-0.3-0.3-0.3-0.4c0-0.1,0.2-0.3,0.4-0.4c0.1,0.1,0.3,0.3,0.3,0.4C288.3,544.7,288.1,544.9,288,545z"/>
	<path fill="#FFFFFF" d="M824.3,489.8c1.4-0.3,1.5-1.3,1.4-2.6c-0.2-2.2-1-4.4-0.5-6.7c0.4-1.6-2-1.7-1.9-3.2
		c-0.8-3.9-0.7-7.8-0.7-10.9c0,3.1-0.2,7.1,0.7,11c-0.8-0.2-1.4,0-1.8,0.7c-0.1,1.1,1,1.4,1.6,2.2c-0.4,0.9-1.2,1.3-2.3,1.6
		c-1.4-9.9,0.1-19.9-0.9-29.7c1.1,0.7,1.2,1.8,1.4,2.8c0.2,1.1,0.6,2.1,0.7,3.2c1.7-2.5-0.1-4.9,0-7.3c0.3-1.1,2-1.3,1.6-2.7
		c-1-1.1-1.4,1-2.5,0.4c-0.3-1.7,0.6-2.9,2.1-3.6c-1-4.9-1.7-9.6-0.8-14.4c-0.5-0.7-1.1-1.5-1.6-2.1c-1.8-0.6-3.3,0.4-5,0.4
		c0.6-1.3,0.6-1.3,3.4-1.4c-0.1-1.1,0.8-1.9,1.4-2.7c-0.4-0.6-0.7-1.1-1.1-1.5c0.4-0.5,0.9-1,1.6-1.1c0.4,0.8-0.1,1.9,1.1,2.7
		c0.9-0.4,1.9-0.9,3.4-0.4c2.2,0.9,4.7,0.7,7.8-0.2c-2.2-1.2-4-1.5-5.8-1.3c-3,0.4-4.8-1.2-6.5-3.8c4.6-1.5,4.9-4.8,4.6-8.9
		c-0.3-5,1.3-10,1.8-15c0.1-1.2,1.1-1.7,2.1-2c1.7-0.6,3.5-1.1,5.3-1.7s3-1.6,3.2-3.7c0.7-5.3,3.3-9.8,5.4-14.6
		c0.3-0.6,0.8-1.3,1.4-1.6c5.4-2.9,7-8.4,9.4-13.4c1.4-3,3-5.8,5-8.9c2.9,6.1,9,8.2,13.5,12.2c6.4,5.6,13,11.2,17.9,18.2
		c3.3,4.8,5.9,10.1,6.2,16.2c0,0.5,0.4,0.9,0.7,1.8c-2.3-1.3-3.2,1.2-5.2,1.3c-4.1,0-8.2,0.8-12.3,1.2c-6.2,0.6-11.1,3.9-15.6,7.7
		c-3.3,2.8-6.5,5.7-9.9,8.4c1.6-0.1,2.9-0.7,4.1-1.6c1.9-1.4,3.7-3,5.3-4.7c2.7-2.8,5.8-4.9,9.4-6.4c2.7-1.2,5.4-1.7,8.4-1.6
		c9.3,0.4,18.1-1.9,26.5-5.8c1.8-0.8,3.7-1.1,5.6-1.6c4.1-0.9,8.3-1.6,12.4-2.7c2.2-0.6,3.3,0.1,4.2,1.9c5.5,11.2,9.2,22.9,8.1,35.6
		c0,0.1,0.1,0.2,0.3,0.5c1.6-1.7,1.8-3.9,1.7-5.9c-0.1-8.5-1.7-16.8-5.6-24.5c-1.3-2.6-2.5-5.4-3.8-8.2c1.6-0.7,3-1.1,4.9-1.2
		c3.5,4,5.7,9,7.4,14.1c3,8.8,3.1,18,3.5,27.1c0,0.3,0,0.6-0.1,0.9c-2.1,6.1-2.9,12.6-6.2,18.4c-2.9,5.1-5.6,10.3-7,16
		c-1.7,0.4-3.2,0.1-5.3,0.1c4.2-7.2,8.7-13.9,11.2-21.6c-4,7.5-8.9,14.4-13.3,21.7c-3.8,6.3-9.6,8.8-17,7.5c-1-0.2-1.8-0.1-2.6,0.5
		c-2.3,1.6-4.9,2.6-7.1,4.4c-1.7,1.4-3.5,1.8-5.6,0.2c-2.1-1.5-4.2-1-5.4,1.4s-2.9,4.5-4.3,6.7c-2.1,3.3-5.1,5.8-9.1,6.4
		c-5.9,0.9-11.3,2.9-16.4,5.9c-3,1.8-6.3,3.1-9.7,2.6c-1.2,0.2-0.3,1.2-1,1.5c-0.6,0-1.2-0.1-1.8,0c-5.9,1.1-10.3-1.7-14.6-5.2
		c-1.6-1.3-3.3-2.5-4.9-3.8C825.6,493.5,824.8,491.7,824.3,489.8L824.3,489.8z"/>
	<path fill="#FFFFFF" d="M682.9,502.5c3.1-2.5,6.5-4.3,9.9-6.2c5.5-3,10.1-6.7,12.6-12.6c0.7-1.7,2-3.1,3-4.7
		c1.1-1.7,1.5-3.4-0.7-4.7c3.2-4.2,7.3-7,12-9c9.3-3.9,18.5-7.8,27.4-12.6c6.8-3.7,14.4-5.6,21.5-8.4c4.4-1.8,9-3.3,12.9-5.9
		c5.7-3.9,12.2-5.3,18.5-7.4c3-1,6.2-1.4,9.2-2.4c1.3-0.4,2.6-0.5,3.4-1.9c1.1,1.4,2.2,2.4,1.2,4c-0.2,0.4,0,1,0,1.5
		c1.2,6.8,2.3,13.6,3.5,20.4c0.2,1.3,0.5,2.6,0.6,4c0.2,2.7,0.5,5.4-2.2,7.2c-0.9,0.6-1.3,1.8-1.3,3.3c1.3-1.1,1.8-2.6,3.7-3
		c-0.5,7.5,0.7,14.9,0.2,22.3c-0.2,0-0.4,0-0.6,0c-0.3-3.2-0.6-6.3-0.9-9.5c-0.2,0-0.5,0-0.7,0c0,4.3,0,8.7,0,13
		c0,0.4,0.2,0.6,0.6,0.9c1.2,0.7,0.8,1.9-0.1,2.3c-2.6,1.1-4.7,3.7-8.3,2.8c0.7-4.7,1.8-9.3,2.2-14.1c0.4-4.8-0.5-9.4-1.2-14
		c0.5,4.8,0.3,9.5-0.5,14.2c-0.7,4.6-1.5,9.2-2.3,13.8c-0.2,0-0.5,0-0.7,0c-0.1-1.8-0.2-3.6-0.3-5.9c-1.4,2.6-0.9,5-1.3,7.4
		c-0.9,0.7-1.8,1.5-2.7,2.3c-1.4-3.3-2.8-6.5-4.2-9.7c-0.5,3.7,1.5,6.6,2.6,9.8c-1.1,1.6-2.8,1.8-4.5,2.7c-0.8-4.2-1-8.2-2.2-12.1
		c0.2,4.2,0.1,8.4,1.2,12.8c-1.8,0.5-3,2.2-5,2.5c-1.7-1.2-2.4-3.3-4-5.1c-0.2,2.2,1.1,3.3,1.8,4.7c-7.7,6.6-14.5,14.3-23.6,19.7
		c-1-6.7-2.9-12.9-5.9-18.7c2.1,6.3,3.6,12.8,4.7,19.6c-3.8,3.2-8.4,5.3-12.2,9c-1.6-1.7-3.1-3.4-4.6-5.1c-1.4-1.7-3.4-2.7-5.4-4.2
		c1.2-7.4-3.9-12.1-7.8-17.4c-0.6-0.9,0.2-2-0.3-2.9c-1.1-0.1-1.2,1.1-1.9,1.3c-15.2-8.3-30.9-10.2-47.3-3.8L682.9,502.5z"/>
	<path fill="#FFFFFF" d="M898.4,392.1c-0.8-2.3-1.5-4.2-2.2-6.1c-2.1-6-5.3-11.2-10.3-15.4c-4.8-3.9-8.9-8.5-13.6-12.5
		c-2.3-1.9-5.5-2.3-7.3-4.9c-0.6-0.9-1.6-1.7-2.1-2.6c-2.1-3.5-1.9-5.4,0.4-7.8c1.3-1.4,2.5-3,4-4.3c2.2-2,3.6-4.5,4.4-7.3
		c1.1-3.9,3.9-5.6,7.4-6.6c5.8-1.6,11.5-3.8,17-6.3c3.8-1.7,6.6-4.9,9.9-7.3c1.7-1.3,3.4-2.6,5.4-3.6c6.7-3.4,12.4-8.4,18.8-12.4
		c14-8.6,26.7-18.9,39.9-28.5c0.9-0.5,1.8,0.5,2.8-0.2c0.9-0.7,0.8-2.1,1.6-3.1c6.3,1.1,9.7,5.6,12.2,10.5c0.4,1.4-1,1.6-0.9,2.6
		c0.8,0.5,2.3-0.4,2.8,1.1c0.3,1,0.8,1.9,1.3,2.8c-2.1,2.1-4.4,3.8-6.7,5.6c-5.9,4.7-11.4,9.8-16.1,15.7c-2.8,3.5-5.9,6.6-8.9,9.9
		c-1.8,2-3.6,4-4.7,6.5c-3,6.4-7.9,11.2-13,15.9c-3.2,2.9-6.7,5-10.6,6.8c-7.8,3.5-15.4,7.3-23.5,10c-4,1.3-5.2,4.6-5.4,8.5
		c-0.4,8.1-0.7,16.2-1.4,24.3C899.5,386.2,899.6,389,898.4,392.1z"/>
	<path fill="#FFFFFF" d="M938.9,389.7c2.1-1,4.3-0.5,6.5-0.7c6.2-0.7,12.1,0.2,17.4,3.7c1.8,1.2,3.9,1.8,5.9,2.6
		c3.6,1.4,5.6,4,6.3,7.7c1.4,8.2,3.1,16.4,4.7,24.5c3.3,16.4,2.1,32.7,0.1,49.1c-0.2,2-0.4,4.1-0.3,6.2c0.1,8.6,0.5,17.3,1.8,25.8
		c0.6,4-0.4,7.2-4.2,9.4c-1-2.1-0.9-4.6-2.1-6.9c-0.6,3,0.2,5.5,1.2,8c-2.5,2.8-5.7,4.4-9.3,5.4c-1.6-5.1-1.1-10.4-2.6-15.3
		c-0.4,0.1-0.8,0.1-1.3,0.2c-1.1,5.1,2.3,10.2,0.5,15.7c-0.3,0.3-1.1,0.1-1.7-0.2c-1.5-12.4-5.9-24-8.2-36c-0.8-4.4-3-8.3-4.5-12.4
		c-2.5-6.9-5-13.7-5.2-21.2c-0.1-2.3-0.1-4.5,1-6.6c1.4-2.8,2.4-5.7,2.8-8.8c1.5-1,3.1-2,5-3.3c-0.7,1.7-1.3,2.9-1.8,4.2
		c3.7-3.4,6.6-7.6,10.1-11.2c-4.4,0.9-8,3.6-11.7,5.7c-0.7-0.5-0.4-1-0.4-1.5c1.6-13.1-0.9-25.5-6.3-37.4
		C941.6,393.9,940.1,391.9,938.9,389.7z"/>
	<path fill="#FFFFFF" d="M955.6,554.7c2.9-2.6,2.6-5.5,2.5-8.6c-0.2-5.3,0.6-10.6-1.5-16.1c3.1,0.3,5.3,1.2,7.4,2.4
		c3.8,2.2,7.6,4,12.2,2.4c4.5-1.6,6.8-5,6.2-9.8c-0.1-0.8,0.2-1.6,0.4-2.4c0.5-2.3,1-4.6,1.5-6.9c0.6-2.3-0.5-4.4-1.2-6.5
		c0.2-0.1,0.3-0.3,0.5-0.4c1.6,1,3.1,2,4.7,2.9c1.2,4.2,3,8.2,4,12.9c1.3-1.8,0.9-3.5,1.6-5c1.4,1.3,1.6,3.6,3.8,4.2
		c1.1-1.5,0.2-3.1,0.5-5.2c1.1,3.1,2.9,4.9,5.3,6c0.6-0.2,0.7-0.5,0.7-1c0-0.4-0.5-0.7,0-1.1c1.1,0.1,2,1,3.1,0.7
		c0.6-0.7-0.3-1.5,0.4-2.3c0.7,0.4,1.3,1.3,2.3,1.4c1-0.6-0.1-1.3,0.1-2.1c2.4-0.6,3.9,1.8,6.4,1.8c0.5-0.1,0.1-0.8,0.3-1.4
		c4.6,0.4,8.7-1.4,12.9-3.2c2.1-0.9,4-1.4,5.9,0.6c2.2,2.4,4.7,4.8,2.8,8.3c-4,7.3-8.6,14.6-15.7,19.1c-6.7,4.3-14.4,7-22.8,5.4
		c-3-0.6-6,0.3-8,2.5c-3.8,4.3-8.8,4.5-13.8,4.8C970.6,558.6,963.4,556.9,955.6,554.7z"/>
	<path fill="#FFFFFF" d="M1026.7,266.9c-2,1.9-3.9,2.9-6.4,2.6c-1.5-0.2-2.9,0.4-3.4,2.1c-0.4,1.6-1.7,2-3,2.3
		c-2.8,0.5-5.1,1.8-7.3,3.7c-2.6,2.2-5.9,2.7-9.4,2.3c0-2.6,0.6-5.1,0.4-7.7c-0.4-6.5-3.9-10.2-10.4-10.7c-2.2-0.2-4.3-0.4-6.4-1.1
		c-3.6-1.2-4.9-3.2-4.3-6.9c-0.2-0.4-0.5-0.6-0.9-0.7c-0.6-0.1-1,0.1-1.5,0.6c0.3,3.6-2.3,6.7-2,10.9c-2.4-1-3.7-2.3-4.9-3.7
		c2.1-5.3,7-8.7,8.8-14.2c2-0.2,3.9-0.9,5.6-2.1c-0.9-1.5-2.3,0-3.1-0.8c0.3-1.2,2.3-0.9,2.5-2.4c-1.5-1.7-3.6-0.5-5.6-0.9
		c0.9-2,3.6-1.3,4.3-3.4c-0.9-1.4-2.7-0.6-4.1-1.3c0.8-1.5,3.3-0.7,3.4-2.8c-0.8-1-2-0.6-3.1-0.7c-0.6-1.2,1.5-1.1,0.9-2.5
		c-1.5-0.5-2.2-2-2.9-3.6c-1.1-2.5-2.3-5-4.1-7.2c-2.5-3.1-3.4-7-4.8-10.6c-1-2.5,3.8-6.3,6.7-5.3c2.1,0.7,3.9,1.9,5.5,3.3
		c6.8,6.3,13.6,12.6,19.3,19.9c2.4,3.1,3.9,6.7,6,10c1.6,2.5,3.2,4.7,5.9,6c1.7,0.8,2.9,2.3,3.8,3.9c2,3.4,3.9,6.8,5.9,10.1
		c0.3,0.5,0.6,1.3,1,1.5C1023,259.3,1023.6,264,1026.7,266.9z"/>
	<path fill="#FFFFFF" d="M619.8,491.6c1.1-0.4,1-1.4,1.1-2.3c3-0.8,5.8-2,8.4-3.7c1.8-1.2,3.4-2,5.6-0.6c1.8,1.1,3.5-0.1,5-1.3
		c1.9-1.5,3.9-3.1,5.8-4.5c0.9-0.7,1.9-1.4,3.3-0.5c0.5,1.8,1.7,3.7,0.3,5.8c2.9,0.4,3.5-0.5,2.6-3.8c0.5-0.2,1.1-0.5,1.7-0.7
		c0.4-0.1,0.8-0.2,0.7-0.2c3.1,0.4,2.3,4.5,5.2,4.8c0.7-1.8-1-2.4-1.3-3.5c0.6-1.8,1.8-1.8,3.2-1.2c1.2,0.6,2.4,0.8,3.5,0.1
		c5.3-3.1,7.1,0,8.1,5.1c0.6,2.7,1.2,5.4,2.5,8c-1.1,1.6-2.3,3.2-3.5,4.9c1.8-0.5,2.9-1.7,3.8-3.1c1.2-1.8,2.6-1.8,4.2-1
		c0.1,0,0.2,0.1,0.3,0.1c3.4,3.1,7,2.7,10.5,0.3c0.1,0.1,0.2,0.2,0.2,0.3c-4,3-8.7,5-12.3,9.2c1.9,0.2,2.7-1.3,4.1-1.4l0.2,0.2
		c-1.7,1.9-4.7,2.1-6.2,4.4c-0.8,1.1-1.4,2.1-1.5,3.6c-0.3,4-0.8,7.9-1.2,12.1c-0.9,0.1-1.8,0.2-2.7,0.3c-0.1,1.7,1.8,0.8,2.2,1.9
		c-0.6,2-1,4.2-0.4,6.6c-2.2-0.3-3.7-1.5-5.6-2c-0.1-1,1.4-0.7,1.4-1.4c0-1.6-0.9-2.4-2-2.8c0.6-1.4,2.3-0.9,2.8-2.2
		c-2.8-1.1-5.7,1.2-8.4-0.2c0.2-1.9,1.7-3.3,1.5-5c1.8-1.4,4.2-1.1,5.6-3c-2.3-0.9-4.2,2.1-6.9,0c4.3-0.9,6.5-3.2,7.1-7.3
		c-1.1-0.1-1.3,0.7-1.6,1.2c-1,1.6-2.1,3-4.1,3.5c-1.7,0.4-2.4,2-3.2,3.5c2.3,1.6,1.2,3.7,0.2,5.3c-1.3,2.1-2.7,4.1-4,6.2
		c-0.4,0.7-1.1,1.3-2,1.2l0,0c0.4-1.3,2.1-1.9,1.9-3.5c-1.3-0.3-2,2.7-3.5,0.5c0.7-1.5,2.3-1.7,3.4-2.5c-0.3-0.8-0.7-0.7-1.1-0.6
		h0.1c-0.1-1.8,1.5-0.3,2.1-1.4c0.4-1.6-0.1-3.2-1.7-4.3c-1.2,0.3-1.9,1-1.8,2c0.1,1.1-0.3,1.9-1.3,2.1c-1.3,0.2-1.8-0.7-2.2-1.9
		c-1.1,1.5-2.2,3.1-3.4,4.8c-0.2-3.3,1.1-5.5,3.9-6.7c1.3-0.6,2.3-1.6,3.1-2.7c-0.3-1.2-1.4-0.3-1.8-0.9c-0.8-1.1,0.9-2.1,0-3.4
		c-3.1,4.4-6.9,2.9-10.6,1.2c-4-1.8-7.5-4.4-10.7-7.3c-1.5-1.3-3-2.5-5.1-2.8c-0.5-2.2,0.1-4.8-2.4-6.2c-0.6,0.1-0.2,1-1,1.1
		C621.1,494.6,620.5,493.1,619.8,491.6L619.8,491.6z"/>
	<path fill="#FFFFFF" d="M982.5,515c0,4.7-2.5,8.6-1.3,12.9c-3.3,5.5-7.3,6.9-13.2,4.4c-1.1-0.5-2.4-0.8-3.4-1.5
		c-1.5-1.2-3.4-1.7-5.5-3.4c5-0.7,9.7,0.1,13.6-2.6C976.4,522.2,979.6,519.1,982.5,515z"/>
	<path fill="#FFFFFF" d="M981.3,263.6c11.8-0.5,16.1,3.9,12.8,15.9c-1.5,0.4-2.6,0-3.4-1.6c-1.1-2.4-2.1-4.8-3.2-7.2
		C986.3,268,984.2,265.8,981.3,263.6z"/>
	<path fill="#FFFFFF" d="M738.7,524.4c-2.6-1.5-4.8-2.6-6.9-3.9c-2-1.2-4.3-1.8-6.9-2.6c3-2.2,4.8-5.1,6-8.5
		C735.7,513.5,738,518.2,738.7,524.4z"/>
	<path fill="#FFFFFF" d="M812,572.2c0.7-0.3,1.3-0.4,2,0.2c4.2,3.5,9.1,4.5,14.4,3.8c0.3,0,0.6,0.1,0.9,0.1c-0.4,4-3.9,6-7.4,4.2
		C817.8,578.5,814.5,575.8,812,572.2L812,572.2z"/>
	<path fill="#FFFFFF" d="M690.9,494.4c0-0.5,0-1.1,0-2.2c5.9-3.2,8.9-10,14.4-14.3c-3.3,6.9-6.3,13.9-14.2,16.7
		C691,494.6,690.9,494.5,690.9,494.4z"/>
	<path fill="#FFFFFF" d="M819,446.3c-0.9-0.4-1-1.3-1.1-2c-0.8-4.4-1.5-8.9-2.3-13.3c0.7-0.7,1.5-0.6,2.3-0.5
		c0.1-0.4,0.4,0.6,0.1,0.3c0,0-0.2,0.1-0.2,0.2c-0.2,0.3-0.3,0.5,0.1,1c0.6,0.6,1.6-0.1,2.5,0.4c-0.8,1.7-2.1,0.3-3.4,0.5
		c0.8,1.7,2.2,2.1,3.9,2c0,2.2,1.1,4.4,0.1,6.6c-1.5-0.7-0.7-1.6-0.5-2.3c-0.9-0.9-1.4,0.2-2.3-0.1
		C819.6,441.6,820.5,443.9,819,446.3L819,446.3z"/>
	<path fill="#FFFFFF" d="M653.9,528.5c-1.1,0.9-2.3,0.6-3.4,0.2c-1.7-0.7-3.4-1.6-5-2.6C648.6,525.9,651.3,527.3,653.9,528.5
		L653.9,528.5z"/>
	<path fill="#FFFFFF" d="M619.8,491.6c-2.1-2.9-3.4-6.4-5.6-9.2C616.9,485,619.6,487.5,619.8,491.6L619.8,491.6z"/>
	<path fill="#FFFFFF" d="M654.7,522.5c-1.2,0.4-2.4,0.6-3.2,1.5c-1,1-1.9,0.9-2.9,0.1c0-1,0.7-1.4,1.2-2.1
		C651.3,522.2,653,522.4,654.7,522.5L654.7,522.5z"/>
	<path fill="#FFFFFF" d="M818.9,446.3c2.5,1.3,0.9,3.1,0.6,4.7C818.8,449.5,818,448,818.9,446.3L818.9,446.3z"/>
	<path fill="#FFFFFF" d="M820.3,487.9c0,1.5,1.5,1.7,2.3,2.6c-0.8,0.9-1.7,1-2.8,0.9c-0.5-1.3-0.5-2.5,0.1-3.8
		c0.2-0.1,0.3-0.1,0.5-0.2C820.4,487.6,820.4,487.7,820.3,487.9z"/>
	<path fill="#FFFFFF" d="M676.2,519.3c-0.9-2.1,0.5-4,0.9-5.9C677.4,515.4,676.6,517.3,676.2,519.3z"/>
	<path fill="#FFFFFF" d="M820,487.6c0.2-0.9,0.2-1.8,0.7-2.7c1-0.2,1.5,0.5,2.5,0.9c-1.1,0.8-2,1.4-2.9,2
		C820.2,487.8,820.1,487.7,820,487.6z"/>
	<path fill="#FFFFFF" d="M623.4,529.7c-0.9-0.3-1.5-0.5-2.1-0.8c0.8-0.8,1.1-1.8,2.4-2.3C623.5,527.7,623.5,528.5,623.4,529.7z"/>
	<path fill="#FFFFFF" d="M625,521.8c-1.3,1.3-1.8,0.4-2.6,0.2c0.1-0.4,0.2-0.7,0.3-0.9C624.1,519.7,624.1,521.4,625,521.8z"/>
	<path fill="#FFFFFF" d="M618.8,496.5c1.1,1.1,1.4,2.5,1.5,3.9C619.3,499.3,618.8,498,618.8,496.5z"/>
	<path fill="#FFFFFF" d="M620.7,513.7c-0.4-1.6,0.7-2.4,1-3.4C622.4,511.6,621.7,512.5,620.7,513.7z"/>
	<path fill="#FFFFFF" d="M610.6,494.5c0.6-0.6-0.2-1.4,0.2-2c1.3-0.5,1.7,0.3,2.1,1.2C612.1,494.2,611.4,494.6,610.6,494.5
		L610.6,494.5z"/>
	<path fill="#FFFFFF" d="M637.8,536.2c1.3-0.3,2,0,2.3,1C639,537.7,638.4,537.3,637.8,536.2z"/>
	<path fill="#FFFFFF" d="M815,425.2c1.1-0.8,1.8-0.6,2.7-0.2C817,425.9,816.2,426.3,815,425.2z"/>
	<path fill="#FFFFFF" d="M629.4,507.3c1.1-0.2,1.5,0.5,2,1.1C630.2,509,629.9,508,629.4,507.3z"/>
	<path fill="#FFFFFF" d="M688.8,494c-0.9,1.1-1.7,1.4-3,1.2C686.8,494.4,687.6,494.1,688.8,494z"/>
	<path fill="#FFFFFF" d="M610.5,494.4c0.3,1-0.7,1.6-0.4,2.8C608.2,495.5,609.7,495.1,610.5,494.4L610.5,494.4z"/>
	<path fill="#FFFFFF" d="M976.2,260.1c0.5,0.2,0.7,0.5,0.8,1C975.8,261.3,975.8,261.3,976.2,260.1z"/>
	<path fill="#FFFFFF" d="M643.9,525c0.4,0.5,0.1,0.9-0.2,1.3c-0.6,0.1-0.9-0.3-0.7-0.8C643.1,525,643.5,524.9,643.9,525z"/>
	<path fill="#FFFFFF" d="M659.8,525.7c-0.2,1-0.7,1.2-1.3,1.3C658.4,526.2,658.7,525.8,659.8,525.7z"/>
	<path fill="#FFFFFF" d="M637,528.6c0.3,1-0.1,1.3-0.7,1.6C636.1,529.5,635.9,528.9,637,528.6z"/>
	<path fill="#FFFFFF" d="M820,493.7c1.1-0.6,1.7-0.6,2.5-0.3C821.8,494.3,821.1,494.1,820,493.7z"/>
	<path fill="#FFFFFF" d="M644.3,538.2c-0.4,0.2-0.9,0.3-1.3,0C643.6,537.5,643.6,537.5,644.3,538.2z"/>
	<path fill="#FFFFFF" d="M824.3,489.7c-0.2-0.6-1.2-0.8-0.9-1.9C824.8,488.1,824.4,489,824.3,489.7L824.3,489.7z"/>
	<path fill="#FFFFFF" d="M625.3,505.2c-0.9-0.2-1.3-0.5-1.4-1.1C624.6,503.8,624.8,504.5,625.3,505.2z"/>
	<path fill="#FFFFFF" d="M622,505.2c-0.1,0.1-0.3,0.3-0.4,0.3c-0.4,0-0.4-0.3-0.3-0.6c0.1-0.1,0.4-0.2,0.4-0.2
		C621.9,504.8,621.9,505,622,505.2z"/>
	<path fill="#FFFFFF" d="M610,505.8c-0.1,0.1-0.3,0.3-0.4,0.3c-0.3,0-0.5-0.2-0.5-0.6c0-0.1,0.3-0.3,0.4-0.3
		C609.9,505.2,610.1,505.4,610,505.8z"/>
	<path fill="#FFFFFF" d="M632.7,515.1c0.8-0.2,0.9,0.2,1,0.6C633.1,516.2,632.9,515.9,632.7,515.1z"/>
	<path fill="#FFFFFF" d="M821.4,442.8c0.4,0.3,0.6,0.5,0.4,0.8c-0.2,0.3-0.5,0.3-0.7,0C820.9,443.4,820.9,443.1,821.4,442.8z"/>
	<path fill="#FFFFFF" d="M614.2,530.9c-0.8-0.2-1-0.5-0.8-1C614.1,529.7,614.2,530.1,614.2,530.9z"/>
	<path fill="#FFFFFF" d="M607.2,488c0.9-0.2,1.1,0.2,1.2,0.7C607.7,489,607.4,488.8,607.2,488z"/>
	<path fill="#FFFFFF" d="M654.8,529.9c-0.3,0.8-0.5,1.1-1,1C653.5,530.2,654.1,530.2,654.8,529.9z"/>
	<path fill="#FFFFFF" d="M620.3,533.8c-0.5,0.4-0.8,0.3-1.1,0c-0.1-0.1,0.1-0.4,0.2-0.5C619.8,533.1,620,533.3,620.3,533.8z"/>
	<path fill="#FFFFFF" d="M824,483.5c-0.2,0.1-0.3,0.1-0.5,0.2c-0.1-0.2-0.1-0.4-0.2-0.5c0.2-0.1,0.4-0.2,0.5-0.2
		C823.9,483,823.9,483.3,824,483.5z"/>
	<path fill="#FFFFFF" d="M371.9,511.3c0,1.6,0,3.3,0,4.9c0.5-1.7,2-0.1,2.9-0.9c-0.6-8.4-0.2-16.9-2-25.3c1.9,0.2,2.4,1.9,4.6,2.1
		c-3.2-3-4.1-7-8.4-8.3c-0.9-0.3-2.9-1.4-2.7-3.5c0.1-1.3-1.9-1.5-2-3.2c3.9,0.4,5.4,4.3,8.6,5.5c-1.8-2.2-3.4-4.6-5.1-6.9
		c-1.1-1.4-3-1.1-5.1-0.4c1.1-2,1.5-3.8,3.1-5.1c2.1-1.6,2.3-4,1.5-6.5c-1.8-5.5-0.9-11.2-1.6-16.8c-0.1-1.2,0.8-1.9,1.7-2.4
		c1.6-1,3.2-1.8,4.8-2.7c1.5-0.9,2.9-2.1,2.4-3.9c-0.6-2.4,0.2-4.5,0.5-6.7c0.3-1.9,0.7-3.8,1-5.8c0.4-2.5,1.3-4.7,3.2-6.5
		c2-1.9,3-4.3,3.7-6.9c1.4-5.3,2.1-10.9,4.9-16.1c4,5.3,10.1,6.8,15.8,9.1c0.7,0.3,1.4,0.9,2.1,1.3c4.4,2.9,8.7,5.9,13.2,8.6
		c3.3,2,6.1,4.5,8.1,7.9c1,1.7,2,3.3,3.5,4.8c-1.8,1.5-3.8,2.5-5.6,3.5c-3.3,1.7-6.5,3.6-9.8,5.2c-2.8,1.4-3.4,4.6-5.8,6.3
		c-0.6,0.5-1.1,1.2-1.6,1.8c-3.3-4-5.9-8.7-9.1-12.8c-1.7-2.1-3.3-4.3-4.2-5.5c3.8,5,8.6,10.7,12.1,17.2c-0.6,2.1-2.5,2.7-3.8,3.6
		c-3.3,2.3-6.4,4.8-9.6,7.2c-1.2,0.9-2.3,1.8-3,3.1c-2.2,3.4-5.5,4.5-9.3,4.7c-2.4,0.1-4.8-0.4-6.3,0.2c1.3-0.5,3.5,0,5.7-0.1
		c4.1-0.1,7.4-1.4,10.2-4.9c3.4-4.3,8.2-7.1,12.7-10.2c1.5-1,2.4-3.1,4.8-2.6c-2.5,4.9-4.6,10-7.7,14.7c1.5-0.7,2.6-1.8,3.4-3.2
		c1.3-2.2,2.5-4.5,3.4-6.9c1.9-4.7,5.2-8.3,9.1-11.5c0.9-0.7,2-1.1,3-1.5c9.3-3,17-8.5,23.7-15.6c0.2-0.2,0.4-0.5,0.6-0.7
		c5.3-4.1,11.3-7.1,16-11c1.3,0,1.9,0.4,2.3,0.8c8.7,7.9,16.4,16.5,20.4,27.8c0.5,1.4,0.7,2.7,0.3,4.2c-2.5,9.5-4,19-3.7,28.9
		c0.1,4.7-1.5,9.5-2.3,14.3c-0.1,0.5-0.4,1-0.3,1.5c0.3,4.1-2.3,5.9-5.5,7.2c-1.9,0.8-3.7,1.6-5.9,2.5c2.8-6.6,5.6-12.9,8.2-19.2
		c1.8-4.2,3.1-8.5,1.8-13.5c-0.7,5.4-2.7,10.1-4.8,14.7c-2.4,5.3-4.3,10.7-6.4,16c-3.1,7.9-7.8,14.8-16,18.3c-1,0.5-1.6,1.2-2.3,1.9
		c-3.1,3.3-5.7,7-8.5,10.6c-2.5,3.2-5.4,5.9-8.5,8.4c-5.7,4.6-11.7,8.6-18.2,11.8c-0.5,0.3-1.1,0.5-1.7,0.6
		c-3.9,0.9-7.8,1.7-11.7,2.6c-4.3,1-8.5,1.1-13.1,0.3c-2.1-6.1-5.8-11.6-8.6-17.5c-0.6-1.2-1.2-2.3-0.3-3.7c-0.6-0.2-1-0.3-1.5-0.5
		c-0.3-1.1,0.4-2.2-0.3-3.3c-1,0.3-0.3,1.6-1.3,1.9c-0.3-4-0.4-8-0.2-12C371.2,512.8,371.2,512,371.9,511.3L371.9,511.3z"/>
	<path fill="#FFFFFF" d="M340.8,482.2c2.7-1.7,5,0.8,8,0.3c-2.5,6.8-4,13.1-0.6,19.5c-0.8-6.3-1.2-12.6,1.5-18.8
		c2.8-1.7,2.8-1.7,5.2-1.2c0.9,3.1,0.5,6.4,1.4,9.6c0.9-2.6,0-5.2,0.6-7.8c4,7.6,3.9,16.1,5,24.4c0.7-8.6,0.2-17-3.1-25
		c0.7-1.5,2-0.9,3.1-1c2.1,5.9,2.8,12,4.3,18c0.3,1.2,0.6,2.4,1.1,3.5c1.2,2.6,1.6,5-0.8,7.5c-2.4,2.5-2,4.3,0.9,6.5
		c-0.5-2.5-0.2-4.6,1.5-6.6c0,11.8,0.9,23.2-0.4,35.1c-4.6-1.5-8.9-2.3-13.5-2.6c0-3.6,0-6.9,0-10.2c-1.5,3.1-1.1,6.4-1.3,9.8
		c-1.6,0.4-3.2,0.2-4.7,0.1c-9.9-0.9-19.7,0.3-29.5,1.6c-1.9,0.3-3.9,0.5-5.8,0.8c-1.1,0.2-2-0.2-2.9-0.8c-3.9-2.5-7.9-4.6-12.7-5.3
		c-2.4-0.4-4.7-1.9-6.5-3.9c-2.6-3-5.2-6.2-9-8c0.3-3-0.2-5.8-1.2-8.7c2.7-1.1,5.4-2.1,7.3-5.2c-3.5-0.4-5.9,1.3-8,2.7
		c-11.4-13.5-26.3-16.3-43-15.2c4.8-3.3,10.1-5.6,14.5-9c-0.8-2.1-2.1-1.8-3.3-1.5c-4.5,0.8-9.2,0.8-13.7,2.1c-1,0.3-2,0.5-3.6,0.2
		c4.6-2.2,8.6-4.1,12.7-6c3.8-1.8,7.7-3.4,11.5-5.2c3.9-1.8,8-2.8,12.2-3.2c3.1-0.3,6.1-1,9.1-1.6c2.2-0.5,4.4-1.1,6.7-1
		c17,0.5,33.9,1.6,50.7,4.4c0.4,0.1,0.8,0,1.1,0.5c-2.4,0.8-4.9-0.6-7.3,0.2C332.5,481.9,336.8,481.3,340.8,482.2
		c0.5,0.4,1.1,0.2,1.5,0.3C341.9,482.4,341.3,482.6,340.8,482.2z"/>
	<path fill="#FFFFFF" d="M434.9,424.4c-0.8,1-1.6,1.5-2.7,2c-1.5-2.2-2.9-4.3-4.4-6.5c-1.4-2.1-3-3.9-5.2-5.2
		c-5.9-3.7-11.8-7.5-17.8-11.1c-2.3-1.4-4.8-2.5-7.5-3.2c-2.8-0.7-5.2-2.8-7-5.3c-1.3-1.9-1.6-3.7-0.3-5.7c1.2-1.9,2.2-4,3.5-5.8
		c1.7-2.3,2.6-5,2.8-7.7c0.3-4.1,2.7-6.3,5.9-7.9c5.1-2.5,9.7-5.8,14.5-8.7c2-1.2,3.7-3,5.1-4.9c4.9-6.8,11.8-11.7,17.6-17.7
		c11.7-12.1,23.8-23.9,34.9-36.7c2-2.3,4-4.4,5.9-6.7c0.8-0.8,2.1,0.3,2.6-0.5c1.1-1.3,0.5-2.7,1.3-3.7c6.4,0.1,10.7,3.6,14.2,8.3
		c0.1,0.6-0.1,1-0.3,1.3c-0.2,0.2-0.3,0.5-0.4,0.8c0.7,1,1.5-0.3,2.3,0.2c1.1,0.8,1.9,1.8,2.5,3c-0.1,0.9-0.7,1.5-1.3,2.1
		c-9.6,10.1-16.2,22.2-23.2,34.1c-1.9,3.3-3.5,6.7-4.5,10.4c-1.7,6-5.4,10.8-8.9,15.7c-2.5,3.6-5.8,6.3-9.3,8.8
		c-6.8,4.9-13.4,9.9-20.6,14.1c-3.4,1.9-4.4,5-3.8,8.7c1.2,8.3,1.8,16.8,4.1,24.9C434.9,422.5,434.8,423.4,434.9,424.4z"/>
	<path fill="#FFFFFF" d="M491.2,432.8c-1.6,3.2-4,5.4-6.4,7.7c-1.8-2.5-1.2-4.9,0.2-7.1c-0.5-0.7-0.9-0.4-1.2-0.2
		c-0.4,0.2-0.7,0.4-1.3,0.7c-3.8-11.1-11.9-18.7-20.4-26.3c2.4-2.2,5-4,7.8-5.3c3.4-1.6,7-3.1,10.4-4.6c2.6-1.1,5.1-1.1,7.8-0.4
		c3,0.9,6.2,1.3,9.3,1.9c4.1,0.9,6.8,3.2,7.7,7.4c0.4,2,0.7,4.1,1.2,6.1c0.7,2.9,1,5.9,4.1,7.6c0.7,0.4,0.9,1.4,1,2.2
		c0.5,3.6,1.5,7,2.6,10.4c2.3,6.7,1.5,13.7,2.1,20.5c0.8,7.8,0.9,15.6,0.1,23.4c-0.6,6.1,0.7,12.1,1.4,18.1
		c0.7,5.1,1.7,10.1,2.4,15.2c0.5,4-0.1,5.2-3.6,8c-0.8-0.8-0.8-1.9-1.1-2.8c-0.4-0.9-0.4-2-1.6-3.3c0,2.9,0.8,5.1,1.9,7.3
		c-2.3,2.9-5.3,4.7-8.7,6.1c-2.2-4.8-1.8-10.3-3.9-15.1c-0.4,0.1-0.8,0.2-1.2,0.3c-0.4,5.2,2.7,10.1,1.9,15.6
		c-0.4,0.4-1.2,0.2-1.9,0.1c-2.4-12.3-7.7-23.5-10.9-35.4c-1.2-4.5-3.5-8.6-5.7-12.6c-4.8-8.8-5.5-17.7-3.3-27.4
		c1.3-5.9,5.3-9.8,8.1-14.6C490.7,435.4,492.2,434.7,491.2,432.8z"/>
	<path fill="#FFFFFF" d="M537.7,522.7c0.9-1.8,0.1-3.3,0-4.8c1.5,2.2,3.1,4.3,5.9,5c1-0.1,0.3-1.3,0.9-1.7c0.9-0.3,1.8,0.4,2.7,0
		c0.5-0.9-0.3-1.6-0.2-2.5c1.2,0,1.7,1.6,3.1,1.2c0.6-0.5-0.6-1.2,0-1.8c2.3-0.7,3.9,1.6,6.1,1.3c0.6-0.3,0-0.9,0.5-1.4
		c4.4,0,8.3-2.1,12.3-4.1c1.9-1,3.8-1.9,5.9,0.1c2.5,2.3,4.9,4.5,3.5,8.3c-0.2,0.6-0.4,1.2-0.7,1.7c-2.8,5.4-6.4,10.3-10,15.1
		c-2.4,3.2-5.9,4.9-9.5,6.6c-4.2,2-8.4,4.1-13.2,3.6c-5.8-0.6-10.1,1.4-13.8,5.8c-1.9,2.3-5,2.1-7.7,2.6c-8.4,1.8-16.7,0.5-25.4-1.2
		c4-4.7,1-9.7,1.3-14.5c0.2-3.4-0.8-6.7-2.1-10.1c2.6-0.3,4.7,0.5,6.7,1.4c1.5,0.7,3.1,1.2,4.5,1.9c3.4,1.7,6.6,0.7,9.8-0.7
		c3.4-1.6,5.3-5.7,4.4-9.5c-0.3-1.3,0-2.5,0.2-3.7c0.9-4.3,1.8-8.5-1.1-12.7c5.2,0.6,6.6,4.3,8.1,8c0.9,2.1,1.7,4.3,2.7,6.9
		c1.2-2,0.6-3.9,0.7-5.8C534.8,519.6,535.3,521.9,537.7,522.7z"/>
	<path fill="#FFFFFF" d="M480.3,266.2c0.3-2.4,3.6-2,3.4-4.4c-1.3-0.7-2.7-0.2-4.3,0.1c0.4-1.9,2.9-1.6,2.9-3.7
		c-1-0.8-2.2-0.3-3.3-0.1c-0.6-1.1,1-1.3,0.7-2.4c-2.2-0.5-3.3-2.4-4.6-4.2c-1.3-1.8-2.7-3.6-4.5-5.1c-3.1-2.6-4.6-6.5-7-9.7
		c-0.9-1.3,0.2-3,1.2-4.2c1.2-1.5,2.6-2.8,4.7-2.3c2,0.5,4,1.1,5.7,2.2c7.9,4.9,15.9,9.8,23,16c2.9,2.5,5,5.7,7.6,8.4
		c2,2.1,4,4.1,7,4.8c1.9,0.4,3.3,1.7,4.5,3.1c2.6,2.9,5.2,5.9,7.7,8.8c0.5,0.5,0.9,1.4,1.5,1.5c4.6,0.8,5.6,5.9,9.4,7.5
		c-1.7,2.3-3.5,3.6-6,3.8c-1.2,0.1-2.6,0.7-2.7,2.2c-0.1,2-1.4,2.8-3,3.5c-2.4,1-4.4,2.4-5.9,4.7c-1.2,1.9-4.2,3.2-8.8,4.2
		c-1-2.6-0.5-5.4-1.3-8c-1.6-5.4-4.9-8-10.6-8.1c-2.4,0-4.7,0.5-7.1,0.3c-4.8-0.5-6.1-1.7-6.8-6.2c-0.2-0.1-0.5-0.3-0.8-0.3
		c-0.5,0-1,0.2-1.4,0.8c0.6,3.5-0.7,7.1,0,10.9c-2.4-0.2-3.8-1.4-5.4-2.4c0.9-5.6,5.1-9.9,5.9-15.7c1.8-0.5,3.5-1.6,5-3.1
		c-1.2-1.3-2.2,0.4-3.3-0.5c0.9-0.6,1.7-1.2,2.7-1.9C484.2,264.4,482.5,266.1,480.3,266.2z"/>
	<path fill="#FFFFFF" d="M196.3,530.4c0.4-1.3,2-2,1.9-3.5c-1.4-0.3-2.1,2.6-3.6,0.6c0.6-1.5,2.4-1.6,3.4-2.6
		c-0.2-0.7-0.6-0.6-1-0.6h0.1c-0.1-1.8,1.5-0.3,2.1-1.4c0.4-1.6-0.1-3.2-1.7-4.3c-1.2,0.4-1.9,1-1.8,2c0.1,1.1-0.3,1.9-1.3,2.1
		c-1.3,0.2-1.8-0.7-2.2-2c-1.1,1.5-2.2,3.1-3.4,4.8c-0.2-3.3,1-5.5,3.9-6.7c1.3-0.6,2.3-1.6,3.1-2.7c-0.3-1.2-1.4-0.3-1.8-0.9
		c-0.8-1.1,0.9-2.1,0-3.4c-3.2,4.5-7.1,2.8-10.9,1.1c-3.8-1.8-7.3-4.3-10.4-7.1c-1.5-1.3-3-2.5-5.1-2.8c-0.4-2.2,0-4.8-2.3-6.2
		c-0.7,0.1-0.3,1-1.1,1.1c-0.6-1.5-1.3-3-1.9-4.5v0.1c1.1-0.4,1-1.4,1.1-2.3c3-0.8,5.8-2,8.4-3.6c1.8-1.2,3.5-1.9,5.7-0.6
		c1.9,1.1,3.5-0.1,5-1.3c1.9-1.5,3.9-3,5.9-4.5c0.9-0.7,1.9-1.3,3.3-0.4c0.4,1.9,1.6,3.7,0.2,5.8c3,0.3,3.5-0.5,2.7-3.9
		c0.8-0.3,1.7-0.7,2.4-0.9c2.9,0.4,2.3,4.3,5,5c0.9-1.9-1-2.4-1.2-3.7c0.7-1.7,1.9-1.7,3.3-1c1.2,0.6,2.4,0.6,3.6,0
		c5.4-2.8,6.7-0.2,7.9,4.7c0.7,2.9,1.4,5.7,2.5,8.6c-1.1,1.6-2.3,3.2-3.4,4.8c2.3-0.9,3.4-2.9,4.9-4.5c2.5-0.9,4.2,0.8,5.9,1.9
		c2,1.2,3.6,1,5.4,0.2c-0.2-1.1-1.2-0.3-1.6-1.2c5.8-2.4,11.9-2.8,18-3.8c0,1-0.8,1.1-1.3,1.4c-3.5,2.4-7.3,4.3-10.6,6.9
		c-0.7,0.5-1.7,0.9-2.5,1.1c-4.2,0.7-7.7,2.9-11.2,4.9c-2,1.2-3.6,2.9-3.7,5.7c-0.2,3.9-0.8,7.7-1.2,11.5c-0.8,0.9-2.1-0.1-2.8,0.9
		c0.2,1.3,1.7,0.6,2.3,1.5c-0.5,2.1-1.1,4.3-0.4,6.7c-2.3-0.2-3.8-1.5-5.7-2c0.1-0.9,1.4-0.7,1.5-1.7c0.1-1.3-0.9-2-2-2.5
		c0.5-1.4,2.2-0.8,2.8-2.4c-1.4-0.4-2.9-0.2-4.1,0.1c-1.4,0.3-2.8,0.5-4.3-0.2c0.1-1.8,1.6-3.3,1.6-5.1c1.7-1.3,4.1-1,5.5-2.8
		c-2.3-0.9-4.2,2-7,0c4.4-0.9,6.6-3.4,7.3-7.5c-1.5,0.5-1.8,1.6-2.4,2.4c-0.6,0.7-1,1.6-1.9,1.9c-2.2,0.6-3.8,1.7-4.5,4.1
		C204.3,520.5,200.7,528.4,196.3,530.4L196.3,530.4z"/>
	<path fill="#FFFFFF" d="M500,529c10.3,0.3,16.6-5.5,21.7-13.9c0.4,3-0.5,5.4-0.5,7.8c0,1.4-0.3,2.8,0.1,4.3
		c0.5,1.6-1.6,4.6-3.8,5.7c-3.1,1.6-6.2,1.6-9.5,0.3C505.3,532.1,502.9,530.5,500,529z"/>
	<path fill="#FFFFFF" d="M506.2,301.3c-1.1,0.6-2.3,0.6-3-0.5c-1.2-2-3-3.5-4.1-5.7c-1.8-3.5-5.1-5.4-8.6-7.2
		C502.5,285.2,508.7,290.5,506.2,301.3z"/>
	<path fill="#FFFFFF" d="M373.2,547.5c0-2.8-2.8-5.3-0.9-8.6c-2.3-1.3-2-3.3-1.1-5.5c1.1-0.2,0.4,1.3,1.3,1.2c0.7-1-0.3-2,0.4-3.3
		c2.8,5.7,5.5,11.2,8.2,16.8C378.2,548.4,375.9,547.9,373.2,547.5z"/>
	<path fill="#FFFFFF" d="M354.3,574c0.7-0.3,1.3-0.4,2,0.2c4.2,3.5,9,4.5,14.4,3.8c0.3,0,0.6,0.1,0.9,0.1c-0.4,4-3.9,6-7.4,4.2
		C360.2,580.3,356.8,577.6,354.3,574L354.3,574z"/>
	<path fill="#FFFFFF" d="M371.9,511.4c-0.6-5-0.3-10.1-2-14.9c-0.5-1.4-1-2.4-2.5-2.7c-0.2-1,1-1.5,0.6-2.4l-0.1,0.1
		c0.4,0,0.7,0,1.2,0c-0.9-2.2-0.5-4.8-2.7-6.9c2.2,0.8,4.9,4,5.2,5.9C372.6,497.4,372.6,504.4,371.9,511.4L371.9,511.4z"/>
	<path fill="#FFFFFF" d="M281.4,526.5c-2.2-1.3-3.7-2.2-5.3-3.2c1.2-1.1,2.4-2,3.3-3.3C280.6,521.9,280.7,523.9,281.4,526.5z"/>
	<path fill="#FFFFFF" d="M196.3,530.4c-1.1,0.9-2.3,0.7-3.4,0.2c-1.7-0.7-3.4-1.6-5-2.6C191,527.7,193.6,529.1,196.3,530.4
		L196.3,530.4z"/>
	<path fill="#FFFFFF" d="M162.2,493.4c-2.2-2.9-3.3-6.5-5.7-9.2C159.2,486.8,162,489.3,162.2,493.4L162.2,493.4z"/>
	<path fill="#FFFFFF" d="M197,524.3c-1.2,0.3-2.4,0.6-3.2,1.5c-1,1-1.9,0.7-2.9,0.2c0-1.1,0.7-1.6,1.2-2.2
		C193.7,524,195.4,524.2,197,524.3L197,524.3z"/>
	<path fill="#FFFFFF" d="M218.6,521.1c-1-2.2,0.5-3.9,0.7-5.9C219.8,517.3,218.8,519.1,218.6,521.1z"/>
	<path fill="#FFFFFF" d="M370.3,505.1c-0.5-1.6-1.4-3.1-1.2-5.5C370.6,501.7,370.5,503.5,370.3,505.1z"/>
	<path fill="#FFFFFF" d="M166,528.7c-0.1,0.9-0.2,1.7-0.3,2.7c-0.7-0.2-1.3-0.4-2.1-0.6c0.7-0.9,1.3-1.6,1.9-2.3
		C165.6,528.6,165.8,528.6,166,528.7z"/>
	<path fill="#FFFFFF" d="M164.1,512.1c0.8,1.4-0.5,2.1-0.7,3.2C162.5,513.9,163.9,513.1,164.1,512.1z"/>
	<path fill="#FFFFFF" d="M166.9,524c-1,0.9-1.5,0.1-2.2-0.5C166.1,522.3,166.1,522.3,166.9,524z"/>
	<path fill="#FFFFFF" d="M162.5,502.2c-0.6-1.2-1.6-2.3-1.3-4.2C162.2,499.4,162.5,500.7,162.5,502.2z"/>
	<path fill="#FFFFFF" d="M152.9,496.3c0.6-0.6-0.2-1.4,0.2-2c1.3-0.5,1.7,0.4,2.1,1.2C154.4,496,153.7,496.4,152.9,496.3
		L152.9,496.3z"/>
	<path fill="#FFFFFF" d="M368.1,491.4c-1.8,0.2-2-0.7-1.8-2.4C367.8,489.3,368,490.3,368.1,491.4L368.1,491.4z"/>
	<path fill="#FFFFFF" d="M182.6,538.9c-1.2,0.7-1.8,0.2-2.4-0.8C181.4,537.6,182,538,182.6,538.9z"/>
	<path fill="#FFFFFF" d="M363.9,483c1.3,0.6,1.7,1.1,1.7,2.1C364,485,364.5,484,363.9,483z"/>
	<path fill="#FFFFFF" d="M369.1,497.4c-1.2-0.4-1.6-0.9-1.4-2.1C368.7,495.6,369.2,496.2,369.1,497.4z"/>
	<path fill="#FFFFFF" d="M152.9,496.2c0.2,1-0.5,1.7-0.7,2.6C150.6,497.3,152,496.9,152.9,496.2L152.9,496.2z"/>
	<path fill="#FFFFFF" d="M173.9,510.5c-1.3-0.1-1.9-0.5-2.3-1.6C172.7,508.9,173.2,509.6,173.9,510.5z"/>
	<path fill="#FFFFFF" d="M178.6,532.1c-0.1-0.7-0.4-1.3,0.6-1.7C179.8,531.1,179.5,531.5,178.6,532.1z"/>
	<path fill="#FFFFFF" d="M201.8,527.5c0.3,1-0.4,1.1-0.9,1.4C200.5,527.9,201.4,527.9,201.8,527.5z"/>
	<path fill="#FFFFFF" d="M186.2,526.6c0.4,0.8,0.2,1.2-0.2,1.7C185.1,527.6,185.1,527.2,186.2,526.6z"/>
	<path fill="#FFFFFF" d="M365.4,486.4c0.6,0.2,1,0.4,0.5,1.1C365,487.5,364.9,487.1,365.4,486.4z"/>
	<path fill="#FFFFFF" d="M185.2,539.6c0.7-0.6,1.1-0.5,1.5,0.3C186.1,540.3,185.6,540.3,185.2,539.6z"/>
	<path fill="#FFFFFF" d="M167.6,506.9c-0.9-0.2-1.2-0.6-1.5-1C167,505.6,167.2,506.3,167.6,506.9z"/>
	<path fill="#FFFFFF" d="M485.9,286.9c-0.9,0.4-1.2,0-1-0.9C485.7,285.8,486,286.1,485.9,286.9z"/>
	<path fill="#FFFFFF" d="M164.4,507c-0.1,0.1-0.3,0.3-0.4,0.3c-0.4,0-0.4-0.3-0.3-0.6c0.1-0.1,0.4-0.2,0.4-0.2
		C164.2,506.6,164.3,506.9,164.4,507z"/>
	<path fill="#FFFFFF" d="M176.1,517.7c-0.7,0.2-0.9-0.1-1-0.6C175.7,516.6,175.9,517,176.1,517.7z"/>
	<path fill="#FFFFFF" d="M152.4,507.5c-0.1,0.1-0.2,0.4-0.3,0.4c-0.4,0.1-0.5-0.2-0.5-0.5c0-0.1,0.2-0.3,0.3-0.4
		C152.2,507,152.3,507.2,152.4,507.5z"/>
	<path fill="#FFFFFF" d="M371.2,546.9c-1-0.2-1-0.5-0.9-1C371.3,545.9,370.9,546.5,371.2,546.9z"/>
	<path fill="#FFFFFF" d="M162.7,535.6c-0.4,0.5-0.8,0.4-1.1,0.1c-0.1-0.1,0-0.4,0.1-0.5C162.1,534.9,162.3,535.1,162.7,535.6z"/>
	<path fill="#FFFFFF" d="M197.1,531.7c-0.3,0.8-0.5,1.1-1.1,1C196,531.8,196.5,532,197.1,531.7z"/>
	<path fill="#FFFFFF" d="M156.4,532.7c-0.5-0.2-0.9-0.4-0.6-1.1C156.5,531.7,156.8,532,156.4,532.7z"/>
	<path fill="#FFFFFF" d="M150.9,490.5c-0.9,0.2-1.1-0.1-1.3-0.6C150.4,489.3,150.5,490,150.9,490.5z"/>
	<path d="M891.9,476.1c-0.7-1.8-0.1-2.9,1.1-4c3.4-3,6.7-6.1,9.8-9.4c3.5-3.8,6.5-7.9,8.8-12.6c1.2-2.5,2.5-5,4.4-7.1
		c2.9-3.4,5-7.2,6.3-11.6c2-6.7,4.7-13.1,6.4-19.9c0.1-0.3,0.4-0.5,0.7-0.9c0.3,1.8-0.3,3.2-0.8,4.6c-1.9,6.1-3.8,12.1-5.7,18.2
		c-1,3.3-2.6,6.3-4.8,8.9c-2.2,2.5-3.8,5.4-5.1,8.4c-3.6,8.4-9.6,15-16.7,20.7C894.6,472.9,892.9,474.1,891.9,476.1z"/>
	<path d="M833.3,473.4c16.3,1.8,30.9,8.4,45,16.3C863.5,483.6,848.9,477.1,833.3,473.4z"/>
	<path d="M827.4,412.3c1.3-1.5,3.4-1.1,4.5-2.6c3,1,5.8,2.3,8.8,2.1c1.3-0.1,2.7,0,3.9-0.8c5.7-3.7,12.5-4,18.8-6
		c0.4,1.4-0.5,1.2-1,1.3c-3.6,1.1-7.3,2-10.9,3.1c-2.1,0.6-4.1,1.3-5.8,2.7c-2,1.6-4.4,1.8-6.8,1.4
		C835.1,413.1,831.3,412.4,827.4,412.3z"/>
	<path d="M835.1,423.8c-0.7-2.4-2.5-3.3-3.7-5.1c2.7,0.8,4.3,2.4,5.4,4.6c4.7-2,9-4.2,13.9-5c-8.5,4.2-17.2,8-25.3,13.1
		C827.8,427.6,832,426.4,835.1,423.8z"/>
	<path d="M835.4,429.6c10.4,0.7,19-3.1,25.9-10.7C861,426.2,842.4,434,835.4,429.6z"/>
	<path d="M866.5,401c0.4-0.4,0.7-0.9,1.2-1.4c-3.2-8.3-7.5-16.1-11.2-24.1c0.8-1,1.2-0.2,1.4,0.2c4.2,6.6,7.5,13.6,10.2,20.9
		C868.7,398.2,869.3,400.3,866.5,401z"/>
	<path d="M831.7,396.9c8.1,2.6,16,5.8,24.5,6.5C852,405.5,835.4,401.2,831.7,396.9z"/>
	<path d="M933.2,444.8c0,3-1.2,5.6-2.8,8c-5.5,7.6-12.7,13.4-20.1,18.9c-0.3,0.2-0.7,0.5-1.4,0c4.9-3.7,9.6-7.6,14-11.8
		C927.3,455.6,931.3,451,933.2,444.8z"/>
	<path d="M829.8,434.2c4.5-0.4,8.9-0.5,13.1,1.4c0.4,0.2,0.8,0.6,1,1.1c2.7,4.9,5.9,9.6,9.1,14.2c0.2,0.3,0.5,0.6,0.3,1.4
		c-1.6-0.9-2.6-2.2-3.5-3.5c-2.3-3.3-4.1-6.9-5.9-10.4c-0.7-1.4-1.7-2.1-3.2-2.5C837.1,434.9,833.4,435.3,829.8,434.2z"/>
	<path d="M850.4,469.6c10.1,5.2,21,8.9,31,14.3C870.8,479.7,860,475.9,850.4,469.6z"/>
	<path d="M879.2,429.6c4.4-4.4,7.5-9.5,9.7-15.3c0.7-1.9,1.3-3.6,0.6-5.7c-0.3-1-0.5-2.2,0.4-3.2c1.6,3.2,1.5,5.5,0.2,9.3
		C888,420.9,884.4,425.9,879.2,429.6z"/>
	<path d="M862,495.3c-6.6,2.7-17.9,0.1-25.1-6.1c2.5,1.3,5,2.6,7.6,3.5c2.8,0.9,5.7,1.6,8.6,2.1C856.1,495.3,859,495.1,862,495.3z"
		/>
	<path d="M857.4,444.7c0.3-1.7,1.2-2.8,2.6-3.3c6.2-2.3,11.7-5.9,17.3-10.2c0,1.2-0.6,1.6-1.1,2c-4.3,3.5-8.9,6.7-14.1,8.7
		C860.4,442.6,858.9,443.6,857.4,444.7z"/>
	<path d="M881.7,392c-3.6-4.9-8.1-9-11.7-13.9C874.7,382.1,879.5,386,881.7,392z"/>
	<path d="M823.3,477.4c0.3-1.6-0.8-2.4-1.9-3.1c1-4.4,0.3-8.7,0.5-13c1.2,0.2,1.3,1.1,1.3,1.8c0.2,4.3-0.1,8.6,0.5,12.9
		C823.9,476.4,823.5,476.9,823.3,477.4L823.3,477.4z"/>
	<path d="M905.8,424.5c1.8-2.9,3.7-5.9,5.5-8.8c1.8-3,3.3-6.1,4.5-10c0,4.5-4.5,13.3-9.6,19.2c-0.2,0.1-0.4,0.1-0.5,0.2
		C905.7,424.9,905.8,424.7,905.8,424.5z"/>
	<path d="M889.8,443.7c2.9-4.8,6.7-8.9,10.5-12.9c0.2,0.2,0.4,0.3,0.6,0.5c-3.6,4.3-7.2,8.5-10.8,12.8c-0.2,0.1-0.4,0.1-0.5,0.2
		C889.7,444,889.7,443.9,889.8,443.7z"/>
	<path d="M832.1,450.3c-3.3-2.5-5.9-5.4-6.1-9.8C827.9,443.8,829.8,447.2,832.1,450.3z"/>
	<path d="M840.2,391c2.3,0.4,3.6,2,5,3.7C843.1,394,841.5,392.7,840.2,391z"/>
	<path d="M868.5,413.9c-1.3,0.6-2.2,1.7-3.7,1.9C866,414.1,866,414.1,868.5,413.9z"/>
	<path d="M888.9,445.9c-0.7,1.5-1.6,2.9-2.8,4.1c0.7-1.6,1.2-3.2,2.5-4.4C888.7,445.7,888.8,445.8,888.9,445.9z"/>
	<path d="M866.8,405.2c-1-1-0.2-1.7-0.1-2.4C867.2,403.6,867.5,404.4,866.8,405.2z"/>
	<path d="M906.2,424.9c-0.3,0.9-0.9,1.5-1.9,2.2c0.1-1.3,0.9-1.9,1.5-2.6C906,424.6,906.1,424.8,906.2,424.9z"/>
	<path d="M902.9,428.9c-0.2-0.4,0.1-0.4,0.3-0.6C903.4,428.7,903.1,428.8,902.9,428.9z"/>
	<path d="M888.6,445.6c0.2-0.8,0.6-1.4,1.2-1.9c0.1,0.1,0.3,0.2,0.4,0.4c-0.2,0.7-0.6,1.4-1.3,1.8
		C888.8,445.8,888.7,445.7,888.6,445.6z"/>
	<path d="M732.6,504.5c2.5-4.9,0.2-9.4,0.1-14c-0.1-2.2-0.6-4.4-0.8-6.7c1.4,3.5,1.6,7.3,2.3,10.9c0.4,2-0.1,4.1,1.8,5.9
		C737.3,501.9,735.4,504.2,732.6,504.5z"/>
	<path d="M816.1,453.6c-2.4-6.4-3-13.2-3.6-20C814.1,440.2,814.7,447,816.1,453.6z"/>
	<path d="M794.8,459.9c1.5-6.2,2.9-12.4,4.4-18.6C798.4,447.6,797.3,453.9,794.8,459.9L794.8,459.9z"/>
	<path d="M732.6,475c1.5,3.5,2.7,7,3.2,10.8C734.1,482.4,733.2,478.8,732.6,475z"/>
	<path d="M758.5,502.5c2.1,2.7,3.2,5.9,4.4,9C760.5,508.9,759.4,505.8,758.5,502.5z"/>
	<path d="M765.8,500c2.3,2.1,2.8,4.8,2.8,7.7c-0.7-2.6-2-5-2.9-7.6L765.8,500z"/>
	<path d="M751.2,517c-0.3-1.3-0.5-2.6-0.8-3.9c0.3-0.1,0.5-0.1,0.8-0.2c1,1.1,0.2,2.6,0.6,3.9C751.6,516.9,751.4,517,751.2,517z"/>
	<path d="M743.1,478.3c0.7,0.8,1.3,1.5,2,2.3c-0.5-1-2.8,0.1-2.4-1.9c0-0.2-0.1-0.4-0.1-0.5C742.7,478.2,742.9,478.2,743.1,478.3z"
		/>
	<path d="M742.5,484.4c-0.3-1-0.5-1.8,0.2-2.8C743.7,482.7,743.5,483.5,742.5,484.4z"/>
	<path d="M778.5,506.2c0.6,0.5,1.5,0.6,1.4,1.6C778.6,508.1,778.4,507.4,778.5,506.2z"/>
	<path d="M745.4,465.9c1.2,0.6,1.4,1.3,1.6,2.1C745.8,467.9,746.1,466.8,745.4,465.9z"/>
	<path d="M739.2,473.5c1,0.5,1.6,1.4,1.9,2.4c-0.1,0.1-0.2,0.2-0.2,0.2C740,475.5,739.3,474.7,739.2,473.5L739.2,473.5z"/>
	<path d="M742.7,478.7c-0.7-0.8-1.5-1.5-1.8-2.5c0.1-0.1,0.2-0.2,0.2-0.2c0.9,0.6,1.5,1.4,2,2.4C743,478.4,742.8,478.5,742.7,478.7z
		"/>
	<path d="M765.7,500.2c-0.5-0.1-0.7-0.6-0.8-1.1c0.6,0,0.8,0.4,0.9,0.9L765.7,500.2z"/>
	<path d="M794.7,459.8c0,0.5,0,1,0,1.5C794.2,460.8,794.4,460.3,794.7,459.8L794.7,459.8z"/>
	<path d="M739.1,473.6c-0.6-0.1-0.8-0.6-1-1.1C739,472.4,739.1,472.9,739.1,473.6L739.1,473.6z"/>
	<path d="M739.2,494.7c-0.5-0.9,0-1.2,0.4-1.6C740.1,493.8,740.1,494.3,739.2,494.7z"/>
	<path d="M784.1,448.5c-0.4-0.6,0.1-0.7,0.3-1C784.8,448,784.2,448.1,784.1,448.5z"/>
	<path d="M948.3,297.6c-5.1,1.8-10.2,3-14.9,5.3s-8.1,6.2-12.4,9.4c-0.1-1.9,0.9-3.1,2-3.9c6.6-5.2,13.3-10.4,21.9-11.9
		C946,296.3,947.1,295.8,948.3,297.6z"/>
	<path d="M886.6,353.9c-0.6-5.3-0.8-10.7-3.5-16C886.6,339.2,888.8,350.4,886.6,353.9z"/>
	<path d="M878.3,331.4c-0.9,0.1-1.5,1.4-2.7,0.7c2.4-3.4,7.2-4,9-1C882.6,333.5,880.4,331.9,878.3,331.4z"/>
	<path d="M900.6,352.8c-0.4-3.5,2.4-4.7,4.7-6.4C904.3,348.9,901.9,350.5,900.6,352.8z"/>
	<path d="M878.5,335.2c-2,0.6-3.9,0.8-5.7,0.4c-1-0.7-0.6-1.5-0.6-2.4C874.1,335,876.5,334.2,878.5,335.2z"/>
	<path d="M913.2,342.1c-2,0.6-3.4,2.1-5.2,3.3C908.6,343.2,909.2,342.8,913.2,342.1z"/>
	<path d="M984.5,277.7c-1.2,1-2.3,1.9-4.3,2C981.3,277.8,982.4,276.7,984.5,277.7z"/>
	<path d="M965.1,276.2c1.3-1.2,2.6-2.4,3.9-3.6c-0.6,2-1.7,3.3-3.5,4.1C965.4,276.5,965.3,276.4,965.1,276.2z"/>
	<path d="M952.8,298.4c-1.4,0.2-2.7,0.4-4,0.5C949.5,296.8,950.1,296.7,952.8,298.4z"/>
	<path d="M917.7,318.8c0.2-2.3,0.2-2.3,2-3.8C919.5,316.8,918.5,317.8,917.7,318.8z"/>
	<path d="M978.6,281.2c-0.6,1.6-1.6,2-3.1,2.6C976.2,282.4,976.9,281.6,978.6,281.2z"/>
	<path d="M913.3,329.4c1.1,1.1,0.7,1.8-0.1,2.7C912.5,330.9,912.5,330.2,913.3,329.4z"/>
	<path d="M914.2,324.3c0.2-1.1,0.5-1.8,1.6-1.5C915.9,323.8,915.3,324.2,914.2,324.3z"/>
	<path d="M886.6,356.1c0.4,1,0,1.4-0.6,1.9c-0.6,0-0.5-0.5-0.5-0.9C885.6,356.6,885.8,356.1,886.6,356.1z"/>
	<path d="M885.3,363.7c-0.5-1,0.2-1.2,0.7-1.8C886.5,363.1,886.1,363.4,885.3,363.7z"/>
	<path d="M960.4,478.9c0.4-1.8,0.4-3.3,1.3-4c1.7-1.4,1.7-3.4,2.4-5.1c2.1-5,2.3-10.4,2.5-15.7c0-1-0.1-2,0.9-2.8
		C968.9,458.3,968.2,472.3,960.4,478.9z"/>
	<path d="M976.5,421.7c-3-0.2-6-0.1-8.2-3.6C972.2,417.8,974.3,420.1,976.5,421.7z"/>
	<path d="M971.3,447.1c1.7,2.6,0.5,5.4,0.7,8.1C970.2,452.6,971.5,449.8,971.3,447.1z"/>
	<path d="M971.6,457.7c1.5,2.7,1.7,5.2,0.6,7.8C972.2,463,971.3,460.7,971.6,457.7z"/>
	<path d="M969.7,431.5c2.7,1.5,1.7,3.9,1.3,6.1C969.9,435.8,970.1,433.6,969.7,431.5L969.7,431.5z"/>
	<path d="M969.7,431.5c-1.4-0.7-2.9-1.2-4-3C968.1,428.6,969.4,429.4,969.7,431.5L969.7,431.5z"/>
	<path d="M961.9,502.4c-1.4-1.3-1.1-2.4-0.6-3.9C962.7,499.7,962.3,500.8,961.9,502.4z"/>
	<path d="M962.7,507.7c-0.6-1.1-1.1-1.8-0.3-2.8C963.1,505.7,963.3,506.4,962.7,507.7z"/>
	<path d="M967.6,447.8c-1-0.7-0.9-1.2-0.8-2C968,446.2,967.8,446.9,967.6,447.8z"/>
	<path d="M948.4,442.5c0.5,1.1,0.4,1.5-0.1,1.8c-0.1,0.1-0.3-0.1-0.5-0.1C947.9,443.7,948.1,443.3,948.4,442.5z"/>
	<path d="M957.4,481.6c0.2-0.9,0.3-1.4,1.1-1.3C958.9,481.2,958.2,481.3,957.4,481.6z"/>
	<path d="M959.8,493.9c1,0.6,0.6,1.3,0.7,2.1C959.6,495.4,959.4,494.9,959.8,493.9z"/>
	<path d="M965.5,440.2c1.2,0.1,1.2,0.6,0.9,1.5C965.6,441.5,965.5,441,965.5,440.2z"/>
	<path d="M993.1,242.1c4.5,2.8,5.5,4.9,3.6,7.3c-1.5,1.9-4.1,2.2-5.9,0.5C988.6,247.8,989,246,993.1,242.1z"/>
	<path d="M1002.4,256.7c0.9-0.2,1.8-0.3,2.5-0.4c0.8-0.7,0.2-1.8,1-2.3c1.1,0.2,1,1.1,1,1.9s-0.4,1.6,0.4,2.3
		c1.1,0.4,1.3-1.3,2.9-0.8c-0.5,2.9-3.2,3.9-4.4,6C1001.7,260.6,1001.3,259.7,1002.4,256.7L1002.4,256.7z"/>
	<path d="M1002.5,256.6c-0.7,0.2-1.4,0.5-2.1,0.6c-2,0.2-3.4-0.7-4.2-2.4c-0.8-1.8-0.3-3.5,1.2-4.7s3.2-1.3,4.8-0.1s2,2.8,1.4,4.6
		C1003.4,255.3,1002.8,256,1002.5,256.6L1002.5,256.6z"/>
	<path d="M632.8,487.9c1.3-0.1,1.9,0.5,1.9,1.8c0.1,1.1,0.2,2.3,0.1,3.4c-0.1,1.9,0.2,3.7,1.6,5.1c0.8,0.8,1,1.8,0.7,2.8
		C632.9,499.3,630.4,491.7,632.8,487.9z"/>
	<path d="M640.3,495.7c-2.5-1.3-3.6-3.5-4.2-6.1c1-0.2,1.8-0.4,2.6-0.5C641,491,640,493.5,640.3,495.7z"/>
	<path d="M655.9,502.8c0.7,1,0.2,1.5-0.6,2C654.4,503.8,655.2,503.3,655.9,502.8z"/>
	<path d="M653.7,508.4c-0.5-1.1-0.1-1.5,0.8-2C654.8,507.2,654.7,507.8,653.7,508.4z"/>
	<path d="M669.2,515c0.5-1.1,1.1-1.3,2-0.9C671,515.3,670.3,515.2,669.2,515z"/>
	<path d="M437.1,446.1c1.1,0.6,0.7,1.3,0.6,2c-2.1,12.3-2.5,24.7-4,37.1c-1.7,14.2-7.9,26.5-15.9,38c-0.3,0.4-0.5,0.9-1.2,0.6
		c-0.5-0.8,0.3-1.3,0.6-1.8c9-13,13.4-27.6,15.1-43.2c1.1-10.4,2.3-20.8,4.3-31.1C436.6,447.1,436.6,446.5,437.1,446.1z"/>
	<path d="M454.8,499.9c1.5-3.2,3.1-6.5,4.6-9.7c3.4-7.1,5.6-14.6,6.1-22.5c0.1-1.3,0.2-2.7,0.7-3.9c3.2-8.2,2.1-16.6,1.6-25
		c-0.2-3.9,0-7.8-0.6-11.7c1.4,2.5,1.2,5.2,1.5,7.8c0.5,5.5,0.8,11.1,1.2,16.6c0.1,1.9,0.1,3.8-0.5,5.5c-2.1,5.9-2.1,12.1-3,18.2
		c-1.1,7.7-4.1,14.8-8.3,21.4C457.3,498,456.3,499.2,454.8,499.9z"/>
	<path d="M398.1,509.7c12.3-16.4,19.1-35.3,25.1-54.5c0.8-2.5,0.7-5.1,1.1-8.1c1.4,1.2,1.1,2.4,1,3.4c-0.2,5.9-1.5,11.6-3.8,17.1
		c-3.5,8.7-7.3,17.2-11.5,25.6c-3.1,6.2-6.9,11.9-11.6,17c-0.2,0-0.4,0.1-0.6,0.1C398,510.1,398.1,509.9,398.1,509.7z"/>
	<path d="M407.6,444.4c-6.4,4.1-12.9,8.1-17.6,14.2c-2.3,2.9-5.4,4-8.9,4.4c-4.1,0.4-8.4,0-12.5,1c1.6-2.4,4-2.6,6.5-2.8
		c2-0.2,4.1,0,6.2-0.2c3.4-0.3,6.4-1.3,8.3-4.5c0.9-1.6,2.6-2.6,4.1-3.7c4-2.9,8-5.8,12.2-8.9c-4.7-7.7-10.8-14.5-16-22.3
		c1.7,0,2.2,1,2.9,1.7c5.5,6.1,10.3,12.8,14.5,19.9C407.5,443.6,407.5,444.1,407.6,444.4L407.6,444.4z"/>
	<path d="M383.1,536.3c3.3-5.1,19.3-5.4,26.3-0.3c-1.8,1.1-3.6,1-5.3,0.4c-6.9-2.5-13.7-2.3-20.5,0.2
		C383.5,536.6,383.3,536.4,383.1,536.3z"/>
	<path d="M384.6,473.2c-1.6-1.9-3.8-2.2-5.7-3.4c2.8-0.2,5.1,0.5,7,2.5c3.6-3.6,6.8-7.2,11-9.8c-6.3,7.1-13,13.7-18.5,21.4
		C379,479.5,382.7,477,384.6,473.2z"/>
	<path d="M376.2,502.2c0.6,0.1,1,0.4,1,0.8c0.1,8.2,0.2,16.3,1.6,24.7c-2.3-0.6-2.3-2.3-2.5-3.5c-0.7-5.3-1-10.6-0.5-16
		C375.9,506.3,376,504.2,376.2,502.2z"/>
	<path d="M395.6,450.5c-8.7,1.8-17.3,0.7-25.9-1.5c0.4-1.5,1.2-1.5,1.9-1.4c7.7,1.9,15.5,2.5,23.5,1.8c0.2,0,0.4,0.2,0.5,0.2
		C395.6,450,395.6,450.2,395.6,450.5z"/>
	<path d="M382.6,474.1c-4.5,4.6-13.1,4-14.6-0.9c0.8-0.3,1,0.5,1.5,0.8c2.6,1.6,5.2,2.7,8.3,0.9
		C379.1,474.2,380.8,473.7,382.6,474.1z"/>
	<path d="M449.8,451.4c0.8-4,1.7-8,2.4-12c0.7-4,1.2-8,1.2-12.1C454.7,435.7,452.6,443.7,449.8,451.4z"/>
	<path d="M441.8,477.9c0.8-8,3-15.5,6.8-22.6C446.1,462.8,443.4,470.2,441.8,477.9z"/>
	<path d="M417.9,434c-4.6-4.6-9.8-8-15.1-12.1C408.1,423.2,417,430.4,417.9,434z"/>
	<path d="M445.2,512.5c1.2-4.7,2.2-8.9,3.3-13.2C449,503,447.5,509.2,445.2,512.5z"/>
	<path d="M377.1,440.5c2.4,0,4,1.4,5.8,2.7C380.6,443.1,378.7,442,377.1,440.5z"/>
	<path d="M385.3,521.6c-1,1.6-1.8,3.4-4.3,4.7C381.9,523.6,383.8,522.7,385.3,521.6z"/>
	<path d="M398.6,510.2c-0.6,1-1.4,1.9-2.7,2.9c0.5-1.7,1.4-2.5,2.3-3.4C398.3,509.9,398.4,510,398.6,510.2z"/>
	<path d="M448.8,483.7c0,0.4,0,0.7,0,1.2C448.3,484.5,448.6,484.1,448.8,483.7z"/>
	<path d="M395,514.1c0.1,0.3-0.1,0.6-0.3,0.6c-0.6,0-0.1-0.3,0-0.4C394.7,514.2,394.9,514.2,395,514.1z"/>
	<path d="M359.9,542.3c0.7-7.1,1-14.3,1.3-21.4C362.3,528.1,362.1,535.3,359.9,542.3z"/>
	<path d="M357.9,510.6c0.6,8.1-0.1,16.1-0.5,24.2C356.3,526.8,357.9,518.7,357.9,510.6z"/>
	<path d="M325.6,480.8c-6.8-1.2-13.7-1.4-20.5-2.5C312,478.7,319,478.2,325.6,480.8z"/>
	<path d="M367.5,534.5c-0.5-4.1-0.9-7.7-1.3-11.7C368.8,524.9,369.4,530.5,367.5,534.5z"/>
	<path d="M301,492.2c-4.3-4.3-9-8-13.8-11.7C292.8,483.4,297.5,487.1,301,492.2z"/>
	<path d="M307.2,525.8c0.8,5.6,2.8,10.9,3.7,16.8C308.9,540.3,306.6,529.8,307.2,525.8z"/>
	<path d="M352.7,517.1c-1-1.3-1.1-2.4-1.1-3.4c-0.5-5.5-1-11-0.5-16.5C351.1,503.6,352.3,510.1,352.7,517.1z"/>
	<path d="M311.4,519c-1.2-2.7-0.5-5.5-0.6-8.3C312.4,513.4,311.6,516.2,311.4,519z"/>
	<path d="M299.8,527.2c1.2,3.6,2.3,7.3,2,11.2C300.5,534.7,300.4,530.9,299.8,527.2z"/>
	<path d="M292.4,506.9c-0.4,2.5-1.5,4.1-3.8,5.1C288.4,509.5,289.4,508.2,292.4,506.9z"/>
	<path d="M301.8,519.9c2.1,3.1,2.4,6.7,3,10.2c-0.2,0.1-0.4,0.1-0.7,0.2C303.4,526.8,302.7,523.4,301.8,519.9L301.8,519.9z"/>
	<path d="M350.5,530.6c-0.3-3.6-0.6-7.1-0.9-10.7C350.7,523.4,350.7,526.9,350.5,530.6z"/>
	<path d="M341.2,514.4c0.1,3.2,0.2,6.3,0.3,9.4C340.7,520.7,341,517.5,341.2,514.4z"/>
	<path d="M296.8,481.5c1.8,0.7,3.5,1.4,5.8,2.4C300,483.8,298.1,483.3,296.8,481.5z"/>
	<path d="M292,504.9c0.8-1.5-0.1-3.5,1.4-4.8C293.1,501.7,294.3,503.7,292,504.9z"/>
	<path d="M295.4,501.2c1.1,0.8,1.4,2,1.8,3.1C296.1,503.5,295.7,502.4,295.4,501.2z"/>
	<path d="M292.7,495.5c0.6,1.1,1.2,2.2,1.8,3.3C293.1,498.1,292.7,496.9,292.7,495.5z"/>
	<path d="M272.9,495.1c-1.3-0.5-1.7-1.9-2.6-2.8C271.6,492.8,272.6,493.6,272.9,495.1L272.9,495.1z"/>
	<path d="M340.8,482.2c1.1-0.1,2.1-0.2,3.3,1.1C342.7,483,341.6,483,340.8,482.2L340.8,482.2z"/>
	<path d="M301.9,519.9c-0.3-0.9-0.6-1.8-1.2-3.4C301.8,517.9,301.9,518.9,301.9,519.9L301.9,519.9z"/>
	<path d="M272.9,495.1c0.6,0.2,1,0.6,0.9,1.3C273,496.3,272.9,495.7,272.9,495.1L272.9,495.1z"/>
	<path d="M440.8,347.4c0.2-2.7,1.6-4.7,3.3-6.4c2.6-2.7,5.2-5.3,7.9-7.8c2.7-2.5,5.9-4.4,9.4-5.8c1-0.4,1.9-0.9,2.9-0.2
		c0.4,1.1-0.4,1.5-1.1,1.9c-1.4,0.7-2.8,1.4-4.1,2c-6.8,3.4-12.1,8.3-16.4,14.5C442.3,346.3,442.1,347.2,440.8,347.4z"/>
	<path d="M409.4,380.2c3.6,1.7,7.3,11.1,6.2,15C413.9,390.1,412.6,384.8,409.4,380.2z"/>
	<path d="M409,373.7c-2,1.8-4,1.2-5.9,0.9c-1.1,0-1.4,2-3.1,1c1.8-1.7,3.6-3.3,5.9-4C407.4,371.2,408.7,371.6,409,373.7z"/>
	<path d="M432.6,384.5c-1.2,2.3-2.4,4.6-3.7,6.9c-0.9-3.4,1.3-5.3,3-7.4C432.2,384.2,432.4,384.3,432.6,384.5z"/>
	<path d="M398,379.7c-0.4-0.8-1.1-1.3-0.3-2.4c1.9,1.7,4.1,0.8,6.3,0.9C402.1,379.1,400.3,379.9,398,379.7z"/>
	<path d="M496.7,301.3c-0.7,1.6-2.2,2-3.5,3.3C493.6,301.6,494.1,301.2,496.7,301.3z"/>
	<path d="M469.5,328c-1.4,0-2.5,1.1-4,1.1C466.4,326.7,466.7,326.6,469.5,328z"/>
	<path d="M440.6,351c-0.4,1.2-0.8,2.4-1.2,3.6c-1-1.6-0.5-2.8,0.5-3.9C440.2,350.8,440.4,350.9,440.6,351z"/>
	<path d="M477.4,303.5c0.9-1.2,1.8-2.4,3.1-4.1c-0.2,2.4-1.3,3.5-2.6,4.5C477.8,303.8,477.6,303.6,477.4,303.5z"/>
	<path d="M489.3,308.7c0.2-1.2,0.6-2.2,2-2.7C491.4,307.7,490.1,308,489.3,308.7z"/>
	<path d="M437.2,379.5c-0.5,1.3-1.4,2.3-3.2,3.4C434.8,380.8,435.5,379.7,437.2,379.5L437.2,379.5z"/>
	<path d="M437.1,368.6c-0.6-0.9-0.9-1.6-0.4-2.4c0.2,0,0.5-0.1,0.6,0C438,366.9,438.1,367.6,437.1,368.6z"/>
	<path d="M415.7,397c0.7,1.2,0.5,1.9-0.4,2.3C414.7,398.6,414.8,398,415.7,397z"/>
	<path d="M437.8,358.7c0.8,1.2,0.1,1.6-0.7,2C436.2,359.6,437.1,359.2,437.8,358.7z"/>
	<path d="M437.2,379.6c0.5-0.6,0.8-1.4,1.8-1.6C439.1,379.3,438.2,379.4,437.2,379.6L437.2,379.6z"/>
	<path d="M415.8,404.8c-0.2-1,0.1-1.3,0.8-1.5C417.1,404.2,416.9,404.6,415.8,404.8z"/>
	<path d="M502.3,452.8c1.3,9.5,2.3,19-4.8,27.7c-0.6-1.7-0.2-3.3,0.6-4c1.8-1.7,1.5-3.9,2.2-5.9c1.8-5.2,1.2-10.5,1.2-15.8
		C501.5,454.1,501.4,453.4,502.3,452.8z"/>
	<path d="M508.8,422.2c-2.9,0.1-5.9,0.4-8.3-2.8C504.3,418.5,506.4,421,508.8,422.2z"/>
	<path d="M494.8,402c1.6-0.8,2.2,0.7,3.2,0.9c0.2-0.5-0.1-1,0.8-1c1.6,1,2.8,2.3,2.5,4.7C499.4,404.7,496.4,404.6,494.8,402z"/>
	<path d="M504.3,438.8c-0.5-3.6-1.2-7.1-5.6-8.3C502.7,429.5,505.6,434,504.3,438.8z"/>
	<path d="M505.6,447.9c1.9,2.5,0.8,5.5,1.4,8.2C505,453.6,506.1,450.6,505.6,447.9z"/>
	<path d="M507.9,466.8c-0.5-3-0.9-5.3-1.4-8C508.6,461.6,508.9,463.1,507.9,466.8z"/>
	<path d="M500.3,504c-1.2-1.5-1.5-2.5-0.8-3.9C500.4,501.7,500.4,501.7,500.3,504z"/>
	<path d="M501.2,447.1c1,0.3,0.9,0.9,0.8,1.8C501,448.5,500.9,447.9,501.2,447.1z"/>
	<path d="M497.6,495.6c1.2,0.5,0.7,1.3,0.8,1.9C497.7,497.1,497.2,496.6,497.6,495.6z"/>
	<path d="M501.9,508.9c-1.4-0.6-1.1-1.5-1.3-2.7C502,507,501.9,507.8,501.9,508.9z"/>
	<path d="M487.1,402.3c-0.5,0.6-0.8,0.5-1.2,0.2C486.1,401.8,486.5,401.8,487.1,402.3z"/>
	<path d="M491.3,402.4c0.7-0.6,1-0.3,1.4,0.3C492.3,403.2,491.8,403.2,491.3,402.4z"/>
	<path d="M499.9,443.1c-0.3-0.5-0.8-0.9-0.2-1.5c0.8,0.1,0.8,0.7,0.7,1.3C500.3,442.9,500.1,443,499.9,443.1z"/>
	<path d="M485.8,431.4c0.3-0.8,0.8-0.8,1.5-0.9C487.2,431.5,486.9,431.9,485.8,431.4z"/>
	<path d="M494.4,483.4c0.2-0.8,0.3-1.2,1-1.3C495.7,482.9,495.3,483.2,494.4,483.4z"/>
	<path d="M504.1,272.6c-0.9,0.3-1.7,0.7-2.6,0.8c-2,0.3-3.4-0.6-4.3-2.3c-0.8-1.6-0.5-3.2,0.8-4.5c0.7-0.7,1.5-1.4,2.2-2
		C505.3,267.2,505.7,268.1,504.1,272.6L504.1,272.6z"/>
	<path d="M504,272.7c2.4-2.1,4.3-2.3,6.2-0.7c1.8,1.6,1.8,3.7,0,6.2l0.1-0.1c-1.9,1.3-3.8,1.3-5.5-0.3
		C503.1,276.3,503,274.5,504,272.7L504,272.7z"/>
	<path d="M510.2,278.2c0.9-0.3,1.8-0.5,2.7-0.9c0.2-0.7,0.3-1.5,0.5-2.4c2.4,0.7,0.4,3.1,2.3,4.4c0.6,0.4,1-1.8,2.5-0.7
		c-1,2.4-3.1,3.9-4.5,6C509.6,282.2,509.1,281.4,510.2,278.2L510.2,278.2z"/>
	<path d="M179.4,503c-4.2-2.2-6.5-9.1-4.4-13.2c1.3-0.3,1.9,0.3,2,1.6c0.1,1.2,0.2,2.5,0.1,3.7c-0.1,1.8,0.2,3.5,1.5,4.8
		C179.6,500.7,179.9,501.8,179.4,503z"/>
	<path d="M182.8,497.5c-2.8-1.6-3.1-2-4.3-6c0.8-0.2,1.7-0.4,2.6-0.6C183.4,492.6,182.3,495.3,182.8,497.5z"/>
	<path d="M197.6,506.7c-0.4-1-0.2-1.6,0.8-2C199,505.7,198.3,506.2,197.6,506.7z"/>
	<path d="M196.9,508.2c0.2,0.9,0.3,1.6-0.9,1.8C195.5,509,195.9,508.6,196.9,508.2z"/>
	<path d="M211.7,516.3c0.5-0.5,1.1-1,1.8-0.2c0.1,0.8-0.5,0.8-1,0.9C212,517.1,211.7,516.8,211.7,516.3z"/>
	<path d="M374.7,542.3c-1.8-1.8-1.6-4.1-1.4-6.4C375.2,537.7,374.9,540,374.7,542.3z"/>
	<path fill="#FFFFFF" d="M993.9,246.2c0.8,0.1,0.3-1.2,1.2-1.1c1.3,1.1,1,2.3,0,3.4c-0.8,0.9-1.8,1-2.8,0.4
		c-1.5-0.9-1.1-2.1-0.8-3.2C992.8,244.9,993,246.7,993.9,246.2z"/>
	<path fill="#FFFFFF" d="M1004,258.1c1.3,0.5,3,0.6,1.5,2.9C1004.3,260.3,1003.2,259.9,1004,258.1z"/>
	<path fill="#FFFFFF" d="M1002.3,252.9c-0.2,1.5-1,2.5-2.5,2.5c-1.3,0-2.1-0.7-2.1-2.1c0-1.6,0.9-2.5,2.4-2.6
		C1001.3,250.8,1002.1,251.6,1002.3,252.9z"/>
	<path fill="#FFFFFF" d="M499.3,267.7c0.6,0.5,0.9,0.8,1.3,1.2c0.9,0.1,1-0.8,1.3-1.4c1.2,0.7,1.5,1.6,1,2.7c-0.6,1.3-1.6,2-2.9,1.4
		C498.4,270.8,498.2,269.5,499.3,267.7z"/>
	<path fill="#FFFFFF" d="M507.5,277.4c-1.2-0.1-2.1-0.7-2.2-2c-0.1-1.4,0.6-2.4,2-2.6c1.5-0.2,2.4,0.7,2.5,2
		C509.9,276.2,509,277.1,507.5,277.4z"/>
	<path fill="#FFFFFF" d="M511.5,279.8c1.5-0.7,2.1,0.2,2.8,0.9c0.2,0.8-0.4,1.1-0.8,1.6C512.3,281.8,511.4,281.2,511.5,279.8z"/>
</g>
</svg>
