<?xml version="1.0" encoding="utf-8"?>
<!-- Generator: Adobe Illustrator 19.1.0, SVG Export Plug-In . SVG Version: 6.00 Build 0)  -->
<svg version="1.2" baseProfile="tiny" id="Layer_2" xmlns="http://www.w3.org/2000/svg" xmlns:xlink="http://www.w3.org/1999/xlink"
	 x="0px" y="0px" width="900px" height="600px" viewBox="144 97 900 600" xml:space="preserve">
<g>
	<path d="M548.8,255.3c-1.1,1.8-2,0.7-2.4-0.4c-0.8-2.5-1.3-5,0.3-7.4c0.3-0.5,0.7-0.9,1-1.2c-0.1-1-0.4-1.6-1.4-2
		c-1.2,1.8-2.8,3.5-5.1,4c-0.6,2.7,1,5.3-0.2,7.8c2.8,5.4,5.7,10.5,12.5,11c0,1.3-1.2,0.8-1.6,1.6c-0.3,1-0.4,2.1,0,3.3
		c3.5,9.2,3.4,18.9,3.4,28.6c0,4.3-0.8,8.6,0.8,13c-1.9-0.3-1.9-1.7-2.1-2.6c-0.3-2-1.5-3.4-2.8-4.7c-1.6-1.6-3.3-3.1-4.7-4.8
		c-2.3-2.9-5.2-4.7-8.6-5.8c-2.5-0.8-4.8-1.9-7-3.1c-2-5.4-5.4-9.5-10.3-12.4c-3.7-2.1-7.9-2-11.7-1.3c-3,0.6-5.8,0.4-8.5,0.4
		c-3.2-3.2-7.5-4-11.8-6.4c1.6,6.8,0.9,13.1,1.6,19.2c0.8,7.3,3.9,13.8,8.9,19.2c1.2,1.2,1.7,2.8,2.5,4.2c1.5,2.9,3.7,5,5.8,7.1
		c1.1-0.3,1.4-0.9,1.8-1.5c2.4-3.9,4.8-7.8,7.2-11.7c0.4-0.7,0.5-1.6,1.5-1.8c0.9-0.3,1.2-1.1,1.4-1.9c0.8-3.3,3.2-5.9,3.7-9.3
		c0.1-0.5,0.3-1.2,1-1.3c1.3,0.3,1.1,1.2,0.9,2.1c-0.6,2.9-1.5,5.7-3,8.3c-1.8,2.9-2.9,6.1-4.5,9.2c2.8,2.3,1.1,5.4,1.7,8.4
		c0.2,0.2,0.7,0.9,1.1,0.9c2.3,0,3.9,1.4,5.7,2.4c5.9,3.4,12.3,5.2,18.9,6.7c5.3,1.3,10.5,2.5,16,1.6c1.7-0.3,3.6-0.4,5.3-0.1
		c5.4,1,8.1-0.6,13.5-3.3c1.1-2.7,0.1-5.4-0.3-8.2c0.4-0.5,1.2-0.7,1.1-1.7c-0.3-4.9-0.6-9.8-1.8-14.7c-2.2-8.9-5.2-17.4-9.9-25.2
		c-2.3-3.8-4-7.6-5-11.9c-0.2-0.9-0.5-1.8,0-2.8c0.3,0.2,0.8,0.3,0.9,0.5c2.7,6.1,6.3,11.8,9.3,17.8c2,4,3.3,8.3,4.8,12.5
		c3.2,8.9,4,18.1,3.9,27.5c0,2.6,0.4,5.4-1.4,7.8c-2,0.9-4,2-5.8,3.3c-1.9,1.4-4.3,1.3-6.5,1.1c-4-0.4-8-0.1-12,0
		c-12.7,0.3-24.5-2.8-34.9-10.3c-1-0.7-2-1.2-3.4-1.6c-0.9,6.9-3.5,13.2-5.9,19.5c-0.8,2.2-0.6,4.8-0.7,7.3
		c-0.2,3.9-0.7,7.7-1.8,11.5c-0.9,3.3-0.5,6.6-0.2,9.8c0.7,7.2,1.1,14.4-0.3,21.5c-0.7,3.7-1.6,7.3-1.8,11.5
		c4.9,8.1,6.8,17.9,10.1,27c0,0.9-0.9,1.2-1,1.6c1.5,5.9,3,11.6,4.4,17.3c2.8,11.2,5.5,22.4,7.8,33.7c1,4.9,1.2,9.7-0.2,14.6
		c-1.3,4.6-1.1,9.3-0.4,14c0.3,2.1,1,4.1,0.7,6c-0.8,1.7-2.6,1.5-3.7,3c-0.3,6.5-1.3,13.4,0.8,20c1.1,3.6,3,7.1,4.4,10.7
		c2.2,5.6,3.4,11.3,3.2,17.5c-0.2,6.6-0.7,13.1-1.8,19.7c-0.9,5.1-1.1,10.3-2.6,15.3c-1.1,3.6-2.2,7.2-2.5,11
		c-0.5,5.4-2.1,10.6-1.6,16.2c2.1,0.9,4.2,1.8,4.5,4.3c0.2,1.6-0.3,3-1.6,4.1c-1.8-1.6-0.2-4.2-1.7-6c-2.3-0.4-4.5,0.6-6.7,0.5
		c-0.8,1.8,0.6,3.2,0.2,5.1c-2.6,1.6-6.4,0.8-8.5,3.2c-1.5-0.1-1.8-1.1-2.5-2.2c-1.4,3,0.2,6.2-1.7,9c-1.7,2.4-1.6,5.8-3.2,8.8
		c4,3,8.1,5.5,13.2,6.3c1.3,3.3,0.5,7.6,4.5,9.8c3.4,1.9,6.3,5.2,10.7,4.4c0.4-0.5-0.2-0.8,0-1.6c2.1-1.1,4.5-1.9,7-2.4
		c0.4-0.1,0.9,0,1.1,0.6l0.1-0.1c-1.7,0.4-3.4,0.7-5.5,2c3.7,0,6.9,0,10.4,0c-1,2-2.7,2.1-4.1,2.1c-4,0-7.9,1-11.9,0.7
		c-0.4,0-0.8,0.1-1,0c-5-2.2-9.7-4.7-12.4-9.8c-0.7-1.3,0.1-2.8-0.4-4.2c-5-1.8-10.7-2.5-13.6-8c1.4-2.2,1.8-4.7,2.2-7.1
		c0.1-0.8,0.4-1.6,0.8-2.3c1.1-1.6,1.6-3.3,1.3-5.3c-0.3-2,0.3-3.8,2.2-4.8c0.4-4.7,0.9-9.3,1.1-14c0.3-6.4,0-12.7-2.6-18.7
		c-1.3-2.9-2.3-5.9-3.4-8.9c-0.1-0.2-0.2-0.4-0.2-0.7c-0.1-4.2-2.4-7.8-3.9-11.5c-1.6-3.9-2.3-7.9-2.3-12.1c0-2.4,0-4.7-0.4-7
		c-0.3-1.8-0.2-3.7,0.1-5.6c0.4-2.2,0.5-4.5,1-6.6c1.1-4.3-0.4-8.2-2.2-11.8c-1.9-3.7-3.9-7.2-3.7-11.5c0-0.3-0.2-0.6-0.4-1.1
		c-2.9,0-5.6-0.8-8.4-1.8c-2.4-0.9-5.3-0.3-8.2,0c-1.3-1.7-2.1-3.7-2.3-5.7c-0.4-3.9-2.3-7.3-2.8-11.2c-0.3-2.7-1-5.3-3.1-7.3
		c0.1-1.9,0.9-3.8-0.8-5.9c-2.1,10.1-0.6,20-1.7,30.1c-8.2,1.2-16.6-0.6-24.8,0c-0.8,0.9-0.8,1.8-0.6,2.8c1.3,5.8-1,10.5-5,15
		c-0.6-2.4,0.9-3.8,1.2-5.6c0.3-2,0.9-3.9,1.3-5.9c0.4-1.8,0.8-3.7,1.3-6c-5.2,0.7-10.2,0.9-15.2-0.2c-5-1-9.6-3.1-14.5-4.3
		c-0.5,0.7,0.4,1,0.3,1.5c-0.4,5.5,1.6,11.2-0.4,16.7c-0.5,1.3-0.6,2.8-1.3,4c-6,10.8-7.1,22.5-6.5,34.5c0.3,5.3,1.1,10.5,2.1,15.7
		c0.4,2.1-0.1,4.1,0.4,6.3c1.3,6,3.5,11.7,4.3,17.8c0.5,3.6,1.1,7.2,1.5,10.8c0.1,1.2,0.6,2.6-1.3,3.4c1.2,1,2.3,0.7,3.3,1
		c1.1,0.3,2.3,0.4,3.2,1.2c1.6,1.5,3.8,1.7,5.6,1.3c1.5-0.4,2.4,0.1,3.4,1c-0.1,0.8-0.2,1.6-0.3,2.6c2.4,1.5,2.8,3.9,2.4,6.7
		c-0.1,0.4-0.1,1.1,0.1,1.4c2.5,3.5,1.9,8,4.2,11.7c-2.7,5.8-8.6,6.3-13.6,8.2c-0.7,1,0.4,2,0,3.1c-1.5,5.4-6.5,7.3-10.6,10
		c-2,1.4-4.6,0.9-6.9,0.7c-2.9-0.2-5.8-0.3-8.7-0.6c-1.1-0.1-2.1-0.2-3.1-1.3c3.3-0.8,6.5-1,10.3-0.3c-2.5-2.3-5-2.1-7.7-2.3
		c4-1.2,7.2,0.4,10.4,1.8c-0.3,0.5-0.5,0.9-0.7,1.3c0.2,0.2,0.4,0.4,0.5,0.4c3,0,5.7-1,8.1-2.9c0.2-0.2,0.4-0.3,0.6-0.4
		c4.1-1.8,5.8-5.2,6-9.5c0-0.2,0.1-0.5,0.2-0.7s0.2-0.4,0.4-0.7c2.3-0.6,4.7-0.9,6.8-2.4c2-1.4,4.7-1.8,6.1-4.2
		c-1.7-3.5-1.9-7.5-4-10.8c-0.5-0.8-0.4-1.8-0.3-2.8c0.2-1.2,0.2-2.3-0.2-3.4c-1.2-0.2-1,1.6-3,1.3c-1.8-1.6-5.1-1.8-7.8-2.5
		c-1.2-2,0.4-3.5,0-5.2c-2.2-0.8-4.6-0.4-6.9-0.9c-1.6,1.8-0.2,4.3-1.7,6c-3.1-3.1-2.2-5.9,2.5-8.2c0.6-1.7,0.6-3.5,0.3-5.2
		c-1.1-5.9-1.1-12-2.9-17.8c-3.1-9.8-3.9-20.1-5.3-30.2c-0.8-6.2-0.5-12.4,0.1-18.7c0.2-1.8,1.3-3.2,1.8-4.9
		c1.3-4.1,2.7-8.2,4.6-12.2c1.8-3.7,2.2-8,1.9-12.1c-0.3-3.5,0.1-7.1-0.6-10.3c-1.2-1.5-3.2-1.3-4.3-2.8c1.1-1.1,2.2-0.7,3.3-0.4
		c4.1,1,8.1,2.4,12.1,3.7c5.8,1.8,11.6,3,17.7,1.8c0.8-0.2,1.7-0.4,2.5-0.2c5.1,1.7,10-0.2,15-0.3c2.4,0,4.7-0.2,7,0.4
		c0.8,0.2,1.6,0.3,2.6-0.4c0.2-2.5,0.5-5.1,0.7-7.8c0.3-6,0.4-12,0.9-18c0.3-3.1,0.9-6.2,2.6-9.6c1.1,3.8,2.2,6.9,3,10.2
		c0.6,2.5,1.7,4.1,4.1,5.3c3.6,1.9,6.8,4.5,9.3,8.1c-1.2,1.1-2.3,0.6-3.2-0.1c-1.5-1.1-3-2.3-4.5-3.5c-0.9-0.7-1.7-1.6-3.2-1.9
		c0.7,6.3,2.6,12.1,4.4,17.8c17.5,3.1,34-0.1,50.2-6.7c0.7-2.9-0.7-5.7-0.7-8.6c0-4.5-0.2-8.9,1.1-13.3c1.1-3.7,0.8-7.5,0-11.2
		c-3.2-14.2-6.4-28.5-9.6-42.7c-1.7-7.3-3.4-14.6-5-22c-1-4.7-3.3-8.8-5.1-13.1c-1.4-3.3-2.4-6.6-1.4-9.9c2.3-7.7,2.1-15.6,1.8-23.5
		c-0.2-6,0.1-12,1.2-17.9c0.1-0.7,0.3-1.4,0.1-2.1c-0.9-0.2-1.1,1.2-2.2,0.7c0.5-1.3,1.5-2.2,2.4-3.2c0.3-2.7,0.9-5.4,0.5-8.1
		c-0.2-1.6,0.5-3,1-4.4c1.3-3.6,2.5-7.3,3.5-10.9c-0.2-0.4-0.3-0.7-0.4-0.7c-5.3-2.5-9.8-6-12.9-11.2c-0.9-1.6-2.5-2.8-3.7-4.3
		c-1-1.2-2.5-2.2-2.2-4.2c0.1-0.5-0.7-1.2-1.1-1.7c-5-6.3-7-13.6-6.5-21.5c0.3-5-0.3-9.9-0.4-14.3c-0.8-1.4-1.8-1.6-2.7-1.8
		c-0.4,0.2-0.5,0.5-0.4,0.9c0.9,4,2.1,8,1.9,12.2c-0.3,6.9-2.2,13.3-6.6,18.6c-3.8,4.7-9.2,6.9-15.3,6.4c-1.3-0.1-2.6-0.3-3.8,0
		c-6.6,1.4-11.4-1.4-15.4-6.2c-1.6-2-2.8-4.4-4.4-5.6c-3.8-8.3-2.4-16.6-3-24.9c-1.3-0.3-2.3,0.5-3.2,0.8c0.9,7.5,0.9,14.9,0.5,22.3
		s-2.9,14.1-5.9,20.8c-1.5,1.7-2.9,3.6-4.1,5.6c-2.3,4.2-5.9,7.2-10,9.7c1,4.3,1.9,8.6,3.5,12.6c1,2.6,1.4,5.4,2,8.1
		c0.9,4.1,1.5,8.5,4.1,12.5c0,0.5-0.6,0.2-1,0.4c0.8,6,1.8,12,2.3,18.1c0.2,2.7,0.3,5.4,0.1,8.1c-0.3,3.7,0.7,7.2,0.7,11.1
		c-1.1,1.8-1.1,1.8-0.7,3.9c2.3,0.7,4.8,0.8,7.3,0.8c4.8-0.1,9.7-0.6,14.5,0c6.8,0.9,13.6,0.6,20.4,0.6c4.2,0,8.4-0.9,12.7-0.6
		c2.1,0.2,4.2,0.5,6.3,0.2c1.5-0.2,3-0.4,4.4-1c3.8-1.7,7.9-2.1,12.5-2c-1.8,2.5,1.1,4.4,0,7c-1.3-1.1-2.7,0.9-3.9-0.6
		c-0.3,0.8-0.6,1.3-0.9,2c-1.2-1-2.3-2.5-4.2-1.5c0,0.4-0.1,0.8-0.1,1.5c-1.4-0.9-2.8-2.7-4,0c-3-1.7-3.4-1.6-4.8,1
		c-0.8,0-0.7-1.1-1.5-1.2c-0.7-0.1-1.1,0.1-1.7,0.8c1.9,3.6,2.1,7.6,1.7,12.1c-1.5-3.4-0.9-6.7-2-9.7c-0.4-0.3-0.6-0.1-0.9,0.2
		c-0.9-0.2-0.1-1.7-1.5-1.6c-1.2,0.5-1.7,2.3-3.5,2.8c-0.6-1-0.5-2.5-2.1-3.2c-1.2-0.1-2,1.6-3.5,1.5c-1.2,0.1-1.4-1.6-2.9-1.5
		c-1.2,0.3-0.2,2.1-1.5,2.8c-0.8-0.7,0.2-2-0.8-2.8c-1.1-0.4-2.3,0.1-3.7,0.4c-1.3,4.4-2.7,8.7-2.3,13.8c-0.7-1.6,0-2.9-0.6-4
		c-0.5,0.1-1,0.2-1.8,0.3c0.7-3.2,2.1-6.1,3-8.9c-0.4-0.5-0.8-0.7-1.3-0.8c-0.5-0.2-0.8,0.2-1.3,0.3c-2.5-0.2-5-0.3-7.5-0.5
		c-1.1-0.1-2.3,0.3-3.4-1c1.5-0.7,2.9,0.5,4.2-0.3c0.4-0.3,0.6-0.8,0.8-1.5c-2.1-0.5-4.1-1.7-6.4-1.1c-1.2,1.1,0.1,2.9-1.4,4.1
		c-0.7-1.3-0.8-2.6-0.6-3.9c-0.8-0.6-1.4-0.4-1.9-0.2c-0.9,0.9-0.1,1.8-0.3,2.6c-0.6,0.2-1.3,0.3-2,0.5c0-1,0.6-2,0.1-3.1
		c-0.9-0.1-1.7-0.4-2.7,0.4c0.1,1.1,0.4,2.2,1.2,3.2c0.6-0.3,1.1-0.4,1.5-0.6c0,0.3,0,0.7,0,1c1.4,0.6,3.1,0.2,4.1,1.7
		c-0.2,0.9-0.8,0.6-1.4,0.5c-3.4-0.4-6.7-0.9-10.1-0.9c-2.6,0-5.3-0.3-8-1.1c-1.9,3.4-4.7,5.9-6.7,8.5c-1.7,10.8-2.3,21.3-2.3,31.8
		c0,5-0.6,10.1-2.4,14.9c-1.5,4-0.9,8.2-1.3,12.2c-0.4,3.6-0.9,7.3-1.8,10.8c-0.9,3.7-1.2,7.4-0.8,11.2c3.3-6.5,7.5-12.7,6.8-20.8
		c1.2,1.5-0.8,3.7,1.5,4.5c-1.7,6.4-4.6,12.3-7.3,18.3l0.1-0.1c-1.5,0.5-1.6,1.9-1.8,3.2c-0.6,2.9-1.2,5.8-1.8,8.6
		c-0.2,1.1-0.6,2.2-1,3.5c-1.7-0.9-1.4-2.1-1.1-3.2c0.5-2.7,1-5.3,1.6-8c0.6-2.9,0.9-5.8,0.7-8.8c-0.3-4.9,1.4-9.5,2.2-14.3
		c0.6-3.6,0.8-7.2,1-10.9c0.1-2.2,0.2-4.5,0.9-6.6c1.7-5.6,2-11.3,2-17.1c0-7.2,0.2-14.4,1.5-21.5c1-5.2,2.1-10.4,6.2-14.3
		c0.9-0.8,1.3-1.9,1.5-3.1c0.1-1.2,0.3-2.4,1.2-3.5c-1-1.4-1.2-3-0.8-4.9c0.3-1.1,0.2-2.4,0-3.5c-0.3-1.7-0.3-3.4,0.4-4.9
		c1.6-3.4,0.9-6.9,0.5-10.4c-0.8-7.6-1.7-15.2-2.6-22.8c-0.2-1.5-0.6-3-1.4-4.3c-1.2-2.2-2.1-4.5-2.7-6.9c-0.1-0.6-0.5-1.2-0.4-1.7
		c1-2.9-0.6-5.2-1.5-7.7c-2.1-5.8-2.9-11.9-4-17.9c-0.2-0.9,0.8-1.8,0-2.8c-4,3.5-9,5.5-13.6,7.9c-9.2,5-19.3,7.5-29.9,6.8
		c-3.8-0.2-7.5-0.4-11.3,0c-3,0.3-5.8,0-8.3-2.2c-1.1-1-2.6-1.5-4.2-2.3c-1.9-2.1-1.5-5-1.5-7.5c-0.3-14.7,3-28.7,9.6-41.9
		c2.8-5.4,6-10.6,8.5-16.2c0.1-0.2,0.4-0.2,0.6-0.4c0.7,0.3,0.5,0.9,0.4,1.4c-1,4.2-2.1,8.2-4.6,12c-3.1,4.8-5.5,10.1-7.4,15.6
		c-1.2,3.7-2.1,7.5-3.2,11.2c-1.6,5-1.5,10.2-1.8,15.3c0.5,0.2,0.8,0.3,1.1,0.4c-0.2,2.7-1.3,5.5-0.3,8.4c4.2,2.1,8.3,4.2,13.3,3.4
		c2.7-0.5,5.7-0.2,8.5,0.2c2.9,0.4,5.6,0,8.4-0.7c3.3-0.9,6.6-1.5,10-2.4c7.5-1.9,14.3-5.4,20.6-9.7c1.3-0.9,2.7-1.8,4.2-2.8
		c-3-4.6-4.7-9.8-7.4-14.5c-1.4-2.4-2.2-5.2-2.8-8c-0.2-0.9-0.2-1.6,1.3-2c4,11.2,10.1,21.1,19.6,28.9c2.7-3,4.5-6.2,6-9.5
		c0.8-1.7,1.7-3.3,2.8-4.8c2-3.1,3.3-6.5,3.3-10.3c0-5.9,0.1-11.8,0-17.7c0-2.3,0.7-4.7,0.1-7.3c-3.7,0.9-6.9,2.8-10.2,4.4
		c-2.1,1-3.8,1-6,0.5c-5.9-1.1-12.8-0.7-17,4.7c-0.9,1.2-2,2.3-3,3.5c-1.2,1.4-2.4,2.9-2.1,4.9c-2.4,1.3-4.5,2.4-6.9,3.2
		c-3.8,1.2-7.1,3-9.5,6.3c-0.8,1-1.7,2-2.6,2.8c-2.4,2.1-4.6,4.4-5,7.8c-0.1,0.6-0.5,1.1-1.1,1.3c-0.7-0.8-0.1-1.5,0-2.2
		c0.8-3.3,0.2-6.5,0.2-9.8c0-7.6-0.2-15.3,1.5-22.9c0.5-2.1,0.9-4.1,1.6-6.1c0.5-1.4,0.7-2.7,0.2-4c-0.4-0.7-1.4-0.3-1.7-1.5
		c6.9-0.5,9.8-5.6,12.6-11c-1.1-2.5,0.2-5.1-0.2-7.8c-2.2-0.7-3.9-2-5-4c-1.2,0.1-1.4,0.9-1.7,1.9c2.6,1.9,2.1,4.7,1.9,7.4
		c-0.1,1.1-0.6,2-1.7,2.5c-0.7,0.3-1.1-0.1-1.2-0.8c0.4-0.2,0.8-0.4,1.4-0.7c-0.3-1.8-0.3-3.6,0.5-5.2c-0.7-0.4-1.1-0.6-1.6,0.1
		c0.5,1.9,0.4,3.9-0.2,5.9c-1-0.1-1.8-0.4-2.3-1.6c0-2,0-4.2,1.3-6.1c0.1-1.1-0.8-2-0.4-3.5c0.1-0.3,0.9-0.5,1.3-1l-0.1,0.1
		c0.8-0.6,1.6-0.9,2.8-0.7c1.6,0.8,2.3,3.2,4.8,3.4c0.3-2.9,0.6-5.8,0.9-8.7c0.3-3.2,0.8-6.3,1.9-9.3c1.2-3.3,2.2-4,5.8-3.8
		c4.4,0.2,5.2,0.8,6.5,5c1.1,3.7,1.6,7.6,1.8,11.5c0.7,10.4,0.7,20.7-1.7,30.9c-0.5,2.3-1.8,3.8-3.7,4.8c-3.6,1.9-7.1,0.4-8.5-3.4
		c-1.1-2.9-1.5-5.9-1.9-8.9c-0.1-0.9-0.2-1.8-0.4-3.3c-3.4,2.6-5.6,6.1-8.9,7.8c-1,4.9-2,9.5-2.9,14.1c-0.4,1.9-0.4,3.7-0.4,5.6
		c0.1,5.1,0.3,10.1-0.6,15.1c-0.1,0.6-0.2,1.2,0.3,1.9c1.3-1.6,2.5-3.1,3.8-4.5c3.2-3.6,7-6.3,11.8-7.2c3.3-0.6,5.8-1.9,6-5.7
		c0.1-1.3,1.2-2.3,2.1-3.2c2.8-2.7,5.9-5.1,8.9-7.5c1.1-0.8,2.3-1.2,3.6-1.3c4.1-0.2,8.3-0.4,12.3,1.2c6.3-3.7,13.3-5.7,20.1-7.3
		c2.9-6.4,3.9-19.3,2.2-25.9c-0.8-1.1-2.3-0.6-3.2-2c0.4-2.5-1-4.6-2.7-6.5c-0.3-5,0.2-6.4,3.5-10c-0.8-3.5-1-6.9,0.1-10.4
		c1-3.4,1.6-6.9,3.1-10.1c0.6-1.3,1.2-2.7,3.2-2.1c0.6-0.9,1.2-1.7,1.8-2.6c-0.4-1-0.9-1.9-1.4-3c1.7-0.6,2.7-1.8,3-3.6
		c2.3,0.4,3.9,2,5.9,2.9c-0.1-1.7-2.2-2.4-1.5-4.4c2.7,0.5,3.5,2.7,4.3,5.1c0.7-1.2,0-2.5,1.6-3.3c2.4-0.1,3.1,2.9,5.5,4
		c1.5-1,3.3-0.2,4.7-0.3c4.8,2.5,8.1,6.1,11.2,9.9c1.1,1.3,2,2.7,2.1,4.4c0.1,2.5,0.7,4.9,2.1,7.1c-1.9,2.2-0.2,4.8-1.2,6.9
		c3.1,6.9,2.4,14.5-1.6,18.4c-1.1,0.2-1.4-1.1-2.4-1.3c-0.2,0.2-0.4,0.3-0.4,0.5c-0.5,3.8-1.1,7.7-1.5,11.5
		c-0.3,3.2,0.4,6.3,1.1,9.4c0.4,1.7,1.7,3,3.5,3.7c6.3,2.1,12.2,5,17.9,8.3c1.8,1,3.5,1.2,5.4,0.5c3.9-1.4,7.9-1,11.9-0.8
		c1.2,0.1,2.2,0.6,3.2,1.4c2.4,1.9,4.8,3.8,7.1,5.8c2,1.7,3.7,3.5,4.1,6.4c0.2,1.8,1.5,2.9,3.2,3.4c0.2,0.1,0.5,0.1,0.7,0.2
		c9.1,1.9,12.6,6.3,17.4,12.5c0.6-2.3-0.4-4.1-0.4-6c0.1-2.1-0.1-4.2-0.1-6.4c0-2,0-4,0.1-6s-0.3-4-0.7-5.9
		c-0.4-2.1-0.8-4.2-1.3-6.2c-0.5-1.9-1.1-3.8-1.2-6.2c-3.3-1.8-5.7-5-9-8.1c-0.4,2.7-0.8,5-1.2,7.2c-0.3,1.6-0.7,3.2-1.2,4.8
		c-1.1,3.1-2.8,4.5-5.6,4.5c-3,0-5.7-2-6.6-4.9c-1.4-4.4-1.9-9-2.1-13.6c-0.5-8.7-0.4-17.4,1.2-26.1c0.4-2,0.9-3.9,1.7-5.7
		c0.7-1.6,1.9-2.5,3.8-2.6c5.6-0.4,6.7,0.3,8.2,5.8c1.2,4.3,1.5,8.8,1.9,13.3c0.1,0.9-0.2,1.9,0.5,2.7c2.1-0.2,2.8-2.3,4.4-3.3
		c1.1-0.4,2.1,0,3,0.6l-0.1-0.1c0.4,0.5,1.2,0.7,1.5,1.3c0.2,1-0.3,1.9-0.6,3c1.2,1.7,1.4,3.9,1.4,6.1
		C550.8,254.8,549.9,255.2,548.8,255.3c-1-2-0.4-4.2-0.4-6.4c-0.6,0.1-0.9,0.2-1.6,0.3c1,1.7,0.8,3.5,0.7,5.4
		C548,254.8,548.4,255,548.8,255.3z M524.4,634.1c-1.6-1.5-1.2-3.1-1-4.6c0.5-4,0.9-8,1.8-11.9c1.9-8.4,3.9-16.7,5-25.4
		c1.2-9.6,2-19.2,1.1-28.8c-0.6-6.5-3.4-12.2-6.3-18c-0.7,4-2,7.7-4.2,11.2c0.7-3.7,1.7-7.2,2.2-10.9c0.1-0.9,1.2-1,1.6-1.7
		c-0.5-2.1-1-4.1-1.4-6.2c-0.4-2.4-0.7-5,0-7.3s0.3-4.2-0.1-6.4c-4.9,1.4-9.2,3.9-13.9,4.9c-4.7,1-9.4,1.6-14.3,2.4
		c1.2,4.7,1.8,9.2,4,13.4c1.2,2.4,2.4,4.9,2,7.7c-0.1,0.7,0.4,1,0.9,1.6c-1,0.1-0.9,0.9-1,1.6c-0.1,1.8,0,3.6-0.3,5.3
		c-1,5.4-0.5,10.8,0,16.2c0.6,7.2,3,14,5.5,20.7c2.3,6.3,4.9,12.4,5.6,19.2c0.6,5.6,0.5,11.2,0,16.9c-0.1,1.1-0.6,2.3,0.7,3.6
		c1.4-0.2,3.4,0.1,4.5-0.8C519,635.1,521.4,634.9,524.4,634.1z M464.6,306.3c3.1,0,6-0.5,8.7-1.7c3.2-1.5,5.9-3.8,6.9-7.5
		c0.9-3.1,1.6-6.1,2.2-9.3c1.1-5.5,1.1-11,0.1-16.5c-0.1-0.7-0.2-1.4-1.3-1.4c-1.2,2.4,0,5.4-2.2,8.3c0.2-3.3,0.2-6,1-8.6
		c-3.8-3.9-3.5-9.2-4.4-13.9c-3.6,2.3-5.3,6.2-8.9,8c-1.6,0.3-3.3-0.6-4.3,0.8c-0.9-0.2-0.7-1.1-1.6-1.2c-1.3,0.2-2.9,0.4-4.6,0.6
		c-1.4-1.2-3.2-1.6-4.8-2.1c-1.1-1.3-2-2.6-3-3.7c-1.1-1.2-1.5-2.6-2.2-4c-0.6-1.2-0.4-2.8-2.1-4.3c1.6,6.8-0.7,12.7-0.8,18.4
		c-1.1,1.9-3,2.5-4,3.9c0,4.1,0,8.3,0,12.4c0,0.7,0,1.4,0.1,2.1c0.1,0.6,0.2,1.2,0.4,1.7c1.8,4.3,3.6,8.7,6.4,12.5
		c4,5.7,9.3,7.4,16.3,5.4c0.6-1.4-0.5-3.3,1.2-4.5C464.3,303.1,463.7,304.6,464.6,306.3z M449.7,213.2c-0.8,0-1-1.1-1.9-0.7
		c-0.3,0.8,0.3,1.8-0.5,2.3c-1.6,1.2-1.7,3-1.8,4.7c-0.2,2-0.5,4-1.6,5.7c-0.3,0.5-0.6,1.1-0.6,1.6c-0.4,4.1-0.7,8.2-1,12.2
		c-0.1,1.3,0.1,2.7,1.1,3.6c2.9,2.8,3.7,6.5,4.7,10.1c1.2,4.3,3.6,7.3,7.8,9.2c2.3-0.9,4.7-0.7,7.1-0.1c1.9,0.4,3.5,0.1,5-1.2
		c1.3-1.1,2.9-2.1,3.9-3.6c1.6-2.3,4-4.1,4.3-7.1c0.4-3.7,1.5-7.1,2.6-10.6c0.4-1.1,0.6-2.2,0.7-3.4c0.3-6.2-1.4-11.8-4-17.3
		c-0.5-1.1-0.8-2.5-1.6-3.1c-1.3-0.9-1.2-2.2-1.5-3.4c-0.1-0.3-0.3-0.4-0.5-0.3c-0.5,0.2-0.2,1.3-1.1,1.2c-0.6-0.4-0.3-1-0.3-1.6
		c-3-0.8-5.9-1.2-8.6,0.9c-0.9,0.7-2.2,0.6-3.3-0.1c-2.1-1.4-4.4-1.6-6.9-1c-0.5,0.1-1.2-0.1-1.5,0.3
		C450,212.4,449.9,212.9,449.7,213.2z M529.5,225.7c-1.7,1.5-2.1,3.8-2.5,5.9c-2,9.7-1.9,19.4-1.2,29.2c0.2,3.6,0.8,7.2,1.9,10.8
		c0.4,1.3,0.8,2.7,2.1,3.4c0.8-0.4,1.3-0.9,1.1-1.7c-0.2-0.7-0.4-1.3-0.1-2c2.1-4.8,1.7-9.9,2.1-14.9c0.3-5.1,0.2-10.1-0.1-15.1
		c-0.2-2.8-0.5-5.6-0.9-8.4c-0.3-1.8-0.8-3.7-2.3-5c-0.2-0.2-0.1-0.4,0.3-0.7c0.3-0.4,0.6,0.4,1.2,0.1
		C530.6,226.6,530.6,225.8,529.5,225.7z M395.3,227.4c-2.3,2-2.6,4.5-2.9,6.9c-1.1,7.7-1.2,15.4-0.7,23.2c0.2,3.3-0.1,6.6,0.7,9.8
		c0.5,2.2,1.7,4.3,1.3,6.7c-0.1,0.3,0.4,0.8,1,0.8c1.9-2,2.1-2.4,2.7-5.8c2.2-11.4,2.1-22.9,0.5-34.4c-0.4-2.9-0.8-5.8-2.6-8.3
		c-0.2-0.3-0.4-0.6-1.1-0.5c0,0.5-1.1,0.6-0.6,1.6c0.2-0.1,0.4-0.2,0.6-0.3C394.5,227,394.7,227.2,395.3,227.4z M532.2,275.5
		c3.3,0,4-0.4,5-3.1c0.4-1.1,0.8-2.2,1-3.4c2.2-12.5,2.2-25,0-37.5c-0.4-1.9-0.9-3.9-2.3-5.6c-1.2-0.4-2.4-1.3-3.6-0.7
		C536.7,242,536.7,258.6,532.2,275.5z M392.2,275.5c-4.5-16.9-4.5-33.5,0-50.1c-1.7-0.2-1.7-0.3-3.7,0.7c-1.3,1.7-1.8,3.8-2.2,5.8
		c-2.1,9.6-1.7,19.4-1.2,29.1c0.2,3.7,0.8,7.5,2,11.1C388.1,275,388.9,275.5,392.2,275.5z M494.1,408c-8.2,1.4-16.5,2.4-24.9,2.9
		c0.4,1.4,1.2,1.6,2,1.5c3.3-0.4,6.5,0.6,9.1,0.3C484.8,409.7,490.1,410.8,494.1,408z M515,327c0.7-3.6,1.2-6.9,1.9-10.4
		c-1.5,1.2-1.8,2.9-3.1,3.8c-0.7,0.6-1.4-0.2-2.3,0.1c-0.6,1-2,1.6-2.3,3.1C510.9,324.9,512.5,325.9,515,327z M420.8,642.1
		c-2.1,0.4-4.2,0-6-0.8c-0.5,1-1.1,1.6-0.4,2.6c2.3-0.2,4.5,0.5,6.4,1.6C422,644.4,421.7,643.5,420.8,642.1z M414.1,329
		c2-1,3.2-2.4,5.2-4c-2.7,0.1-4.3-1-6.4-2.1C413.4,325.2,413.7,326.9,414.1,329z M511.6,643.3c2.2-1.6,4.6-1.7,6.8-2.3
		c0-0.9,0.1-1.6-1-2.1c-1.7,1.1-3.8,0.8-5.9,1c-0.2,0.6-0.5,1.2-0.5,1.7C510.9,642.1,511.2,642.5,511.6,643.3z M430.1,410.3
		c0.2,1.2,0.6,2.2,1.2,3.1c1-0.1,0.5-1.7,1.7-1.4c1,0.4,0.3,2.9,2.6,2c-0.3-1.2-0.6-2.4-0.9-3.6C433.1,410.2,431.7,410,430.1,410.3z
		 M429.7,413.9c-1.3-2.1-0.8-4.6-3.7-4.6c-0.9,1-1.7,1.9-2.5,2.7c0.3,1.4,1,1.6,1.9,1.5c0.8-1.1-0.4-2.7,1.1-3.1
		C428.6,410.7,426.8,413.4,429.7,413.9z M496.2,407.4c0.2,0.9,0.6,1.3,1.3,1.7c1-1.4,2.3,0.1,3.4,0c0.4-0.7,1-1.1,0.4-1.9
		C499.8,406.5,498.1,406.9,496.2,407.4z M462.5,411.9c1.8,0.7,3.7,1.1,5.7-0.7C466,411.1,464.2,410.8,462.5,411.9z M437.9,233.6
		c-0.5,2.3,1.4,3.5,2.4,5.3C441.1,236.3,439,235.2,437.9,233.6z M482,241.6c0.5-1.2,1-2.5,1.8-4.3c-1.3,1-2.1,1.5-2.8,2
		C480.9,240.5,481.2,241.2,482,241.6z M484.1,232.5c-1.3,1.9-1.3,1.9,0.2,4C484.5,235.2,484.6,234.1,484.1,232.5z M482.3,231.3
		c0.8-0.6,1.3-1.1,0.4-2.1C482.2,229.9,481.5,230.3,482.3,231.3z M452.6,412.6c0.7,0.8,1.2,1.2,1.7-0.2
		C453.8,412.1,453.2,412.2,452.6,412.6z M443.9,210.3c0.6,0.6,1.1,1.6,2.1,0.4C445.5,209.9,444.8,209.7,443.9,210.3z M462.5,209.4
		c0.1-0.9,0.3-1.5-0.5-1.8C461.8,208.2,461.5,208.8,462.5,209.4z M477.7,414.1c-0.3-0.3-0.6-0.4-0.8-0.1c-0.3,0.4-0.3,0.8,0.1,1.3
		C477.4,415.1,477.7,414.7,477.7,414.1z M440.4,229.7c0.4-1-0.1-1.5-1.1-1.8C439,228.9,439.4,229.4,440.4,229.7z"/>
	<path d="M755.8,421.4c-2.6-0.4-5.2-0.5-7.9-0.5c-1,0-2.1,0.2-3-1c1.5-0.7,2.9,0.5,4.1-0.2c0.5-0.4,0.7-0.9,0.9-1.5
		c-2.2-0.4-4.1-1.7-6.4-1.1c-1.2,1.1,0,2.9-1.3,4.1c-1.1-1.3-0.6-2.7-0.9-4c-0.7-0.4-1.3-0.4-1.9,0c-0.7,0.8-0.1,1.6-0.1,2.4
		c-0.7,0.2-1.4,0.4-2,0.5c0-1,0.7-2,0.1-3.1c-0.9-0.1-1.7-0.4-2.8,0.5c0.2,1,0.4,2.2,1.3,3.1c0.6-0.2,1-0.4,1.5-0.6
		c0,0.3,0,0.7,0,1.1c1.4,0.4,3.1,0.3,4.7,2.2c-3.9-0.4-7.1-1-10.4-1c-3.3,0-6.4-0.5-9.8-1c-1.9,3.3-4.6,5.8-6.7,8.4
		c-1.7,10.8-2.3,21.3-2.3,31.8c0,5-0.5,10.1-2.4,14.9c-1.5,4-0.9,8.2-1.3,12.2c-0.4,3.6-0.9,7.3-1.8,10.8c-0.9,3.7-1.2,7.4-0.8,11.2
		c3.3-6.5,7.5-12.7,6.8-20.8c1.2,1.5-0.9,3.7,1.5,4.5c-1.7,6.4-4.6,12.3-7.3,18.3l0.1-0.1c-1.5,0.5-1.6,1.9-1.8,3.2
		c-0.6,2.9-1.2,5.8-1.8,8.6c-0.2,1.1-0.3,2.3-1.3,3.3c-1.5-0.9-1-2.2-0.8-3.4c0.6-3,1.2-6,1.7-9c0.2-1.2,0.5-2.3,0.5-3.5
		c-0.5-6.2,1-12.2,2.2-18.2c0.7-3.6,0.9-7.2,1.1-10.9c0.1-2.2,0.2-4.5,0.9-6.6c1.7-5.5,2-11.1,2-16.8c0-7.3,0.2-14.6,1.5-21.8
		c1-5.2,2.1-10.4,6.2-14.3c0.9-0.8,1.3-1.9,1.5-3.1c0.1-0.8,0.3-1.6,0.5-2.4c0.1-0.3,0.3-0.6,0.6-1.1c-0.9-1.4-1.2-3-0.8-4.8
		c0.3-1.1,0.2-2.4,0-3.5c-0.3-1.7-0.3-3.4,0.4-4.9c1.5-3.3,0.8-6.7,0.6-10c-0.2-3.4-0.7-6.8-1.1-10.2c0.1-1,1.2-1.3,1.6-2.3
		c-0.8-8.7-1.8-17.4-2.4-26.2c-0.4-6.2-1.8-12.1-4.1-17.8c-0.9-2.3-2.1-4.6-2.4-7c-1-6.5-3.6-12.6-4.3-19.1
		c-0.4-3.4-0.8-6.8-0.9-10.2c-0.1-2.6-0.3-5.1-2.5-7.1c-1.2-1-1-2.9-1.8-4.2c-3.5-6.2-7.2-12.4-10.7-18.6
		c-4.3-7.5-7.1-15.3-5.7-24.2c0.4-2.6-0.2-5.4-0.4-8.1c-0.1-1.8-0.8-3.6,0.2-5.5c0.3-0.6,0.1-1.7-0.5-2.3c-2.7-2.6-2.8-6.2-3-9.5
		c-0.9-12.3-0.3-24.4,2.6-36.4c0.4-1.6,0.7-3.2,1.1-5c1.2-0.7,1.9-2,2.4-3.5c1.5-4.8,4.2-9.2,6.4-13.7c1.3-2.7,2.5-5.3,3.1-8.2
		c0.2-0.9,0.2-2.2,1.6-2.5c0.1,0.3,0.4,0.6,0.4,0.9c-1.5,5.8-2.2,11.7-4.7,17.3c-2.4,5.2-4.9,10.4-6.8,15.9
		c-0.7,2.1-1.3,4.3-1.4,6.5c-0.1,1-1.3,0.9-1.8,1.7c-0.3,1.5-0.6,3.1-0.9,4.8c-0.1,0.9,1,0.9,1.2,1.9c-2.1,8.9-0.7,18,0.5,27.1
		c0.3,2.3,1.4,4.5,1.8,6.8c0.7,4.2,0.6,8.4,0.7,12.7c0,3.8,0.6,7.5,1.7,11.1c2.3,7.6,5.5,14.7,9.7,21.5c1.7,2.8,3.5,5.5,5.3,8.5
		c1.9-1.8,2.6-4.1,3.7-6.5c0.6,3.8-0.2,5.7-3.3,8c2.8,4.4,3.5,9.5,4.4,14.5c1.7,9,3.6,18,6.9,26.6c0.2,0.4,0.2,0.9,1,1.1
		c1.1-0.7,2.6-1.3,3.5-2.5c3-4.3,7-8,9.1-12.9c1.3-3,2.8-5.9,4.2-8.9c3.2-6.9,4.6-14.3,4.7-21.9c0-4.7,0-9.4,0-14.8
		c-3.3-6.3-10.6-9-16.9-13.9c8.2,0.5,12.5,6.4,18.3,10.1c0.4-1.9,0.2-3.4,0-4.8s-0.5-2.8,0.1-4.2c0.6-1.5-0.4-2.7-0.7-4.1
		c-0.3-1.4,0-2.8-0.6-3.9c-0.9-1.3-2.4-0.8-3.3-2.2c0.3-2.5-0.9-4.7-2.6-6.4c-0.3-5.1,0.2-6.5,3.5-10.1c-0.8-3.5-1-6.9,0.1-10.4
		c1-3.4,1.6-6.9,3.1-10.1c0.6-1.3,1.2-2.7,3.2-2.1c0.6-0.9,1.2-1.7,1.8-2.6c-0.4-1-0.9-1.9-1.4-3.1c1.8-0.4,2.5-1.8,3.1-3.5
		c2.3,0.3,3.7,2,5.8,2.8c-0.1-1.6-2.2-2.3-1.5-4.4c2.7,0.6,3.5,2.7,4.2,5.1c0.7-1.1,0-2.4,1.6-3.2c2.5-0.2,3.1,2.9,5.4,3.9
		c1.6-0.6,3.4-0.4,4.9-0.2c4.9,2.5,8.2,6.2,11.4,10.1c1,1.2,1.9,2.6,1.9,4.1c0,2.5,0.8,4.8,2,7.2c-1.7,2.1-0.1,4.7-1.2,6.9
		c3.4,6.3,2.3,12.3-0.9,18c-1.1,0.7-1.7-0.4-2.8-0.1c0.1,3.5-0.1,7.1,0.5,10.7c0.1,0.9,0.3,1.9,0.3,2.8c0,3,0.5,5.7,3.1,8
		c1.8-1.8,3.9-3.5,5.5-5.7c1.1-1.5,2.5-2.9,4.1-3.9c1.5-1,2.9-2.2,5.1-1.8c1.2,0.2,2.6-0.7,4-0.8c-1.2,1.6-2.8,2.6-4.5,3.4
		c-3.1,1.5-5.8,3.3-7.9,6.2c-1.5,2.1-3.7,3.6-5.6,5.5c1.9,5.3,3.1,10.7,4.3,16c1.1,4.9,2.8,9.4,4.8,13.9c1.8,4,4.4,7.5,7.4,10.6
		c1.3-0.1,0.8-1.6,1.6-2.2c0.9,1.2-0.3,2.2-0.2,3.4c3.1,3.4,7.2,5.8,10.7,8.9c2.2-3.3,2.4-7,3-10.6c1.2-7.1,2.3-14.2,3.3-21.3
		c0.6-4.1,1.8-8.1,3.9-11.7c5.4-9.4,7.1-19.7,7.5-30.2c0.3-8.8,1.3-17.6,2.1-26.4c0.2-2,0.6-4,1-6c1-4.9-0.3-9.6-0.3-14.4
		c0-8.8-2.2-17.2-3.8-25.8c-0.4-2.5-1.3-4.8-2.5-6.9c-3-5.5-5.9-11-9-16.4c-1.9-3.5-3.3-7.2-4.1-11.1c-0.4-2.1,0.3-4.2,0.7-6.2
		c0.1-0.7,0.5-1.3,0.1-2.2c-2.8-1.2-6.5,1.2-9.3-2.1c1.8-1,2.4-2.7,3-4.4c-0.3-2.6-1.1-5-1.9-7.3c-1-0.7-1.8-0.3-2.8,0
		c1.7,3.8,2.8,7.6,1.1,11.8c-1.3,1.1-2.6,2.1-4.7,0.4c1.2-0.7,2.5-0.3,3.3-1.4c1.4-4.2-0.9-8.1-1.4-12.2c-1-0.9-2.3,0-3.4-0.4
		l0.1,0.1c0-1.6,1-2.5,2.2-1.8c3.2,1.8,6.6,1.7,10,1.6c0.2,0,0.4,0.1,0.6,0.2c1,0.5,0.7,1.8,1.5,2.4c0.8-0.1,1.6-0.1,2.4-0.6
		c0.9-3.9,1.1-8.1,2.3-12c0.3-1,0.5-2.1,0.8-3.1c1.1-3.3,2.9-4.6,6.3-4.6c3,0,4.8,1.5,5.8,4.3c1.4,4,2.1,8.3,2.3,12.4
		c0.4,6.7,0.5,13.4-0.2,20.1c-0.4,3.8-0.8,7.5-1.8,11.1c-1.4,4.8-3.1,5.8-8.1,5c-0.3-0.1-0.7-0.1-1.2-0.1c-0.3,1,0.4,1.5,0.7,2.2
		c2.3,4.2,4.8,8.4,7,12.7c2.2,4.2,3.2,8.7,4.2,13.4c1.4,7.3,1.1,14.7,1.8,22.1c0.3,3.3-0.1,6.7,0.5,10.1c0.5,2.6-0.8,5-2,7.3
		c0.4,2.2,0.3,4.3,0.3,6.4c-0.2,4.9-0.1,9.9,0.2,14.8c0.1,2-0.1,4,0,6c0.1,3.7-0.9,7.4-0.6,11.2c0.2,2.4-0.7,4.9-1.5,7.2
		c-1.2,3.4-2.7,6.8-4.6,9.9c-4.7,7.4-6.6,15.5-7.6,24c-0.5,4.1-1.2,8.1-2.1,12c0.1,0.9,1.1,1,1.2,2.1c-1.5,5.5-2.8,11.4-5.6,16.7
		c-0.7,1.3-0.7,2.7-1,4.1c-1,4.6-1.7,9.2-2.3,13.9c-0.1,0.8-0.1,1.6,0.2,2.4c1.8,4.7,1,9.4-0.2,13.9c-1.1,4.4-0.9,8.8-0.6,13.3
		c0.5,8.1,1.3,16.2-1.3,24.1c-0.8,2.4,0,5-1.1,7.3c5,8.6,7.1,18.3,10.3,27.5c0,0.8-0.8,1.1-1.2,1.7c1.2,2.9,1.5,5.9,2.3,8.9
		c3.8,14.1,7,28.3,10.1,42.6c1,4.5,1.1,9-0.2,13.6c-1.4,4.7-1.2,9.5-0.5,14.4c0.3,2.1,1,4.1,0.7,6c-0.8,1.7-2.6,1.5-3.7,3
		c-0.3,6.5-1.3,13.4,0.8,20c1.1,3.6,3,7.1,4.4,10.7c2.2,5.6,3.4,11.3,3.2,17.5c-0.2,6.5-0.6,12.9-1.7,19.3c-0.9,4.7-1,9.6-2.3,14.3
		c-1.1,4.1-2.5,8.1-2.9,12.3c-0.5,4.8-1.6,9.5-1.7,14.3c0,0.6,0.1,1.2,0.1,1.9c2,0.8,4.1,1.8,4.5,4.3c0.2,1.3-0.1,2.1-1.7,4.1
		c-1.8-1.6-0.1-4.2-1.7-6c-2.3-0.4-4.5,0.6-6.7,0.5c-0.9,1.8,0.6,3.2,0.1,5.1c-2.5,1.7-6.4,0.5-8.2,3.2c-1.8,0.1-1.8-1.2-2.8-1.9
		c-1.3,2.8,0.4,6-1.6,8.7c-1.7,2.4-1.6,5.8-3.2,8.8c4,3,8.1,5.5,13.2,6.4c1.3,3.3,0.5,7.6,4.5,9.8c3.4,1.9,6.3,5.2,10.7,4.4
		c0.4-0.5-0.2-0.8,0.1-1.6c2-1.1,4.4-1.8,6.9-2.3c0.4-0.1,0.9,0,1.1,0.6l0.1-0.1c-1.7,0.4-3.4,0.8-4.9,2c3.2,0,6.4,0,9.8,0
		c-1,2-2.7,2.1-4.1,2.1c-4,0-7.9,1-11.9,0.7c-0.3,0-0.7,0-1.1,0c-3-0.5-10.2-6.2-11.9-8.9c-1-1.7-0.5-3.4-0.9-5.1
		c-5-1.8-10.7-2.5-13.6-8c1.4-2.2,1.8-4.7,2.2-7.1c0.1-0.8,0.4-1.6,0.8-2.3c1.1-1.6,1.6-3.3,1.3-5.3s0.3-3.8,2.1-4.7
		c0.7-4.8,1.1-9.4,1.3-14.1c0.3-6.3,0-12.5-2.5-18.4c-1.3-3-2.9-6.1-3.4-9.3c-0.7-5-3.3-9.2-4.8-13.9c-0.5-1.4-1-2.9-1.1-4.4
		c-0.7-8.1-1.9-16.2,0.1-24.2c1.1-4.5,0.1-8.6-2-12.6c-0.6-1.2-1.2-2.6-1.8-3.7c-1.2-2.2-1.9-4.5-1.9-7.1c0-0.7,0-1.4-0.8-2.1
		c-2.6,0-5.3-0.5-8-1.8c-2-0.9-4.4-0.3-6.6-0.2c-0.6,0-1.1,0.5-2.2-0.3c-1-1.3-1.8-3.3-2-5.4c-0.4-3.9-2.3-7.4-2.8-11.2
		c-0.3-2.7-0.9-5.4-3-7c0.4-3.2,0.4-3.2-0.8-6.3c-2,10.2-0.7,20.1-1.6,29.9c-0.8,1-2.1,0.9-3.2,0.8c-4.5-0.3-8.9,0.1-13.4-0.5
		c-2.8-0.4-5.7-0.1-8.9-0.1c-0.2,3.4,0.6,6.5-0.2,9.6c-0.7,3.2-3,5.4-4.9,7.9c1.5-5.5,2.7-11.1,3.9-17.2
		c-10.7,2.4-20.2-1.2-30.1-4.7c0.6,1.4,0.9,2.4,0.7,3.6c-0.5,2.9,1,5.7,0.6,8.7c-0.5,3.8-0.9,7.4-2.6,10.9c-4,8.1-6.2,16.6-6.2,25.8
		c0,8.1,1.5,15.9,2.1,23.9c0.6,8.2,3.8,15.7,4.8,23.7c0.5,3.6,1.1,7.2,1.6,10.8c0.2,1.3,0.6,2.8-1.5,3.9c3.2,0.7,5.9,0.9,8.1,2.6
		c1.2,0.9,3,1,4.4,0.5c1.5-0.6,2.2,0.2,3.1,0.8c0.6,0.9-0.4,1.8,0.1,3.1c2.2,1.3,2.5,3.6,2.2,6.2c-0.1,0.6-0.2,1.3,0.1,1.7
		c2.5,3.5,1.8,8,4.2,11.6c-2.9,5.8-8.7,6.3-13.7,8.1c-0.5,1.2,0.5,2.2,0.1,3.2c-2,5.5-6.9,7.7-11.4,10.3c-2,1.2-4.5,0.9-6.5,0.5
		c-2.8-0.5-5.6-0.4-8.3-0.8c-1-0.2-2.1-0.1-3-1.2c3.2-1,6.3-1,10.1-0.3c-2.5-2.3-5-2.1-7.7-2.3c4-1.3,7.2,0.5,10.5,1.7
		c-0.3,0.5-0.5,0.9-0.7,1.3c0.2,0.2,0.4,0.4,0.5,0.4c2.9,0,5.5-0.9,7.8-2.7c0.3-0.2,0.5-0.5,0.8-0.6c4.1-1.8,5.8-5.2,6-9.5
		c0-0.4,0.3-0.9,0.5-1.4c5-0.8,9-3.4,13.1-6.3c-1.8-3.8-2.1-7.8-4.1-11.1c-0.5-0.8-0.4-1.8-0.3-2.8c0.1-1.2,0.3-2.3-0.3-3.5
		c-1.2-0.1-1,1.6-2.6,1.4c-2.2-1.5-5.2-2.4-8.1-2.5c-1.1-2.2,0.2-3.7,0.1-5.4c-2.4-0.9-4.7-0.4-7-1c-1.7,1.8-0.2,4.4-1.8,6
		c-3.1-3.1-2.2-5.9,2.4-8.2c0.6-1.7,0.6-3.5,0.3-5.2c-1.1-5.9-1.1-12-2.9-17.8c-3.1-9.8-3.9-20.1-5.3-30.2
		c-0.8-6.2-0.7-12.5,0.2-18.7c0.3-2.3,1.3-4.5,2.2-6.6c1.5-3.5,2.5-7.1,4.2-10.5c1.8-3.7,2.2-8,1.9-12.1c-0.3-3.5,0.1-7.1-0.6-10.3
		c-1.2-1.4-3.2-1.3-4.3-2.8c1.1-1.1,2.2-0.7,3.3-0.4c4.5,1.1,8.8,2.7,13.2,4c5.3,1.6,10.7,2.6,16.4,1.5c1.8-0.4,3.7-0.4,5.6,0.3
		c1.4,0.5,3,0.5,4.5,0.1c2.2-0.6,4.4-0.6,6.7-0.7c2.8-0.1,5.6-0.5,8.4,0.4c0.6,0.2,1.4,0.3,2.2-0.5c0.7-5.5,0.8-11.2,1.1-17
		c0.3-5,0.2-10.1,1.7-15c0.3-1,0.6-1.9,1.5-2.9c1,3.4,2.1,6.6,2.9,9.8c0.6,2.5,1.8,4.1,4.1,5.3c3.6,1.9,6.8,4.5,9.2,8.1
		c-1.2,1.2-2.3,0.6-3.2-0.1c-1.5-1.1-3-2.3-4.5-3.5c-0.9-0.7-1.7-1.6-3.2-1.9c0.7,6.3,2.6,12.1,4.5,17.8c17.5,3.1,34-0.1,50.2-6.7
		c0.5-3-0.8-6-0.7-9c0.1-4-0.3-8,0.9-11.9c1.2-4.1,1.1-8.1,0.2-12.2c-3.2-14.2-6.4-28.5-9.6-42.7c-1.7-7.3-3.4-14.6-5-22
		c-1-4.7-3.3-8.8-5.1-13.1c-1.3-3.3-2.4-6.6-1.4-9.9c2.3-7.7,2.1-15.6,1.7-23.5c-0.2-6.1,0.2-12,1.2-17.9c0.1-0.7,0.1-1.4,0.2-2.3
		c-0.8,0.5-1.3,0.8-2.1,1.3c0-1.8,1.5-2.4,2.3-3.9c-0.7-3.6-0.7-7.6-0.1-11.6c0.6-3.7-0.2-7.8,2.7-11.2c-0.4-3.3,0.6-6.6,1.1-10.1
		c-5.6-3.5-10.4-7.8-15-12.4c-3-2.9-4.7-6.7-6.5-10.4c-2.8-5.9-4.3-12.2-6.3-18.3c-0.7-2-0.7-4.2-2.1-5.9c-0.3-0.4-0.4-1.2-0.3-1.7
		c0.6-2.4-0.8-4.3-1.2-6.3c-1.1,0-1.2,0.6-1.1,1.2c0.4,2.2,0.8,4.4,1.3,6.5c0.6,2.4,0.8,4.9,0.8,7.4c-0.1,5.2-0.6,10.3-1.6,15.4
		c-0.8,4.1-3.2,7-7.6,7.8c-1.7,0.3-3.5,0.8-5.2,0.5c-0.9-0.1-1.6,0.1-2.2,0.5c-0.6-0.2-1.1-0.6-1.7-0.6c-7.5-0.4-11.6-5.3-14.2-11.5
		c-1.8-4.3-3.2-8.9-2.8-13.7c0.3-4.1-1.4-7.7-2.5-11.5c0.7,4.5-0.8,8.9,0,13.4c0.6,3.8-0.4,7.8-1.5,11.5c-2.2,7.8-5.4,15.1-9.7,21.9
		c-3.4,5.2-7,10.4-12.7,13.4c-0.2,1.5,1,2.5,1,3.8c0.1,5.5,2.2,10.7,2.1,16c2.7,2.1,5.7,3,8.8,4.8c-3.4,0.4-5.4-1.7-8.1-2.3
		c-0.3,4.8,0.2,9.4,0.8,14.1c0.3,2.6,0.4,5.2,0,7.7c-0.5,3.7-0.1,7.3,0.3,10.9c0.3,2.8,0.4,5.6,0.1,8.5c-0.3,3.7,0.6,7.2,0.7,11.4
		c-0.4,0.8-2.1,1.8-0.6,3.7c2.2,0.6,4.6,0.8,7.1,0.8c4.7-0.1,9.5-0.6,14.1-0.1c6.8,0.9,13.6,0.6,20.4,0.7c4.2,0,8.4-1,12.7-0.6
		c2.2,0.2,4.4,0.6,6.6,0.2c1.5-0.2,3-0.4,4.4-1c3.8-1.6,7.9-2.2,12.4-1.9c-1.8,2.4,1.2,4.4,0.1,6.8c-1.3-0.7-2.7,0.6-4-0.2
		c-0.7,0.3-0.2,1.1-0.9,1.6c-1.2-0.8-2.1-2.7-4.2-1.2c0,0.3-0.1,0.7-0.1,1.1c-0.2,0.2-0.4,0.2-0.6,0c-1.8-1.5-1.8-1.5-3.4,0.2
		c-2.9-1.7-3.4-1.6-4.8,1c-0.8,0-0.7-1.1-1.5-1.2c-0.7-0.1-1.1,0.1-1.7,0.8c2,3.6,2,7.6,1.8,12.3c-1.6-3.6-1-6.9-2.1-9.9
		c-0.4-0.3-0.6-0.1-0.9,0.2c-0.9-0.2-0.1-1.7-1.5-1.6c-1.2,0.5-1.7,2.3-3.5,2.8c-0.4-1.1-0.6-2.4-1.7-3.2c-1.5-0.1-2.4,1.5-3.8,1.5
		c-1.2,0-1.4-1.6-2.7-1.5c-1.4,0.3-0.5,2.2-1.8,2.9c-0.5-0.8,0.1-2-0.6-2.9c-1.2-0.2-2.4,0.1-3.9,0.5c-1.3,4.2-2.7,8.5-2.5,13
		c-0.1-1.1-0.1-2.2-0.2-3.3c-0.7,0.1-1.2,0.2-1.9,0.3c0.7-3.2,2-6.1,3.1-8.9c-0.4-0.6-0.9-0.7-1.3-0.8
		C756.5,420.9,756.2,421.3,755.8,421.4z M822.4,640.4c-1.5-1.5-1-3.1-0.9-4.6c0.5-4,1.2-7.9,1.8-11.9c1.1-7.1,3.7-13.9,4.4-21.2
		c1-10.2,2.7-20.2,1.9-30.6c-0.5-6.9-2.9-13-5.6-19.1c-0.2-0.4-0.1-1.2-0.9-1.2c-0.7,1.3-0.6,2.8-0.9,4.1c-0.3,1.3-0.7,2.5-1.5,3.5
		s0.2,2.8-2.4,3.7c2.4-4.5,1.5-9.4,4.5-13.3c-0.4-1.9-1.1-3.9-1.3-6c-0.3-2.3-0.7-4.8-0.1-7c0.6-2.3,0.4-4.4,0-7
		c-9,4.2-18.2,6.8-28.2,7.4c0.9,4.3,1.4,8.4,3.2,12.1c1.2,2.4,2.6,4.9,2.7,7.6c0.1,3.4,0.2,6.8-0.4,10.2c-0.8,5.4-0.4,10.8,0.1,16.2
		c0.6,7.1,2.9,13.8,5.3,20.4c2.4,6.4,5,12.6,5.7,19.5c0.6,5.5,0.5,11,0,16.5c-0.1,1.2-0.6,2.6,0.5,3.7c1.6,0.1,3.7,0.2,4.7-0.7
		C817.1,641.3,819.6,641.4,822.4,640.4z M754.1,268.5c2.2-0.9,4.5-0.7,6.8-0.2s4.2,0,5.8-1.6c0.7-0.6,1.5-1.1,2.1-1.8
		c2.3-2.8,5.3-5.2,5.6-9.1c0.2-2.4,0.8-4.6,1.6-6.8c1.1-3.1,1.4-6.3,1.5-9.6c0.1-6.2-2.9-11.3-5.2-16.6c-0.6-1.4-1.9-2.5-1.8-4.2
		c-1,0-0.6,1.4-1.5,1.2c-0.7-0.4-0.3-1.1-0.4-1.6c-3-0.7-5.9-1.1-8.6,1c-0.8,0.6-2.1,0.6-3,0c-2.7-1.9-5.6-1.5-8.4-1
		c-0.5,0.5-0.2,1.3-0.8,1.6c-0.5-0.3-1-0.6-1.5-0.9c-0.7,0.8,0.2,1.9-0.7,2.6c-1.6,1.2-1.6,3-1.8,4.7c-0.2,2-0.5,4-1.6,5.7
		c-0.3,0.5-0.5,1.1-0.6,1.6c-0.4,4-0.8,7.9-1,11.9c-0.1,1.4,0,2.9,1.1,4c2.9,2.8,3.7,6.5,4.7,10.1
		C747.5,263.6,750,266.6,754.1,268.5z M776.7,258.6c-3.8,4.1-7.6,8.1-11.5,11.3c-2,0.5-3.6-0.5-4.7,0.9c-0.9-0.2-0.7-1.1-1.6-1.2
		c-1.4,0.2-2.9,0.4-4.4,0.5c-1.6-0.9-3.3-1.7-4.9-2.1c-2-2.4-3.8-4.6-5.7-7.7c-0.4,4.5-0.6,8,0.8,11.5c1.2,3.1,2.2,6.4,2,9.6
		c-0.2,3.5,0.6,6.8,1.2,10.1c0.8,4.5,2.4,8.8,5.1,12.6c1.5,2.1,3.6,3.6,6.1,3.9c4.1,0.4,8.2,1,12.2,0c3-0.8,5-2.5,5.5-5.7
		c1-5.8,1.5-11.7,1.3-17.6c-0.1-2.4-0.8-4.7-1.2-7.2c-1.4,0.8-1.5,2.4-2.9,3.2c0.1-1.4,0.6-2.5,1.2-3.5c1.7-3.2,2.9-6.4,1.9-10.1
		c-0.3-1.1-0.1-2.3-0.1-3.5C777,262.1,777.3,260.4,776.7,258.6z M820.2,154c1.9-1.6,2.3-3.2,2.7-4.8c2.2-9.4,2.5-18.9,1.8-28.4
		c-0.3-4.1-0.6-8.2-1.8-12.2c-0.5-1.5-0.6-3.2-2.6-4.3c-3.6,6.3-3.8,13-3.9,19.9c1.6,0.6,3.2-0.3,4.9,0.3c1.3,2.1,1.1,4.5,1,6.8
		c-0.1,4.1-1.4,5.2-5.6,4.6C816.5,142.1,817.1,148,820.2,154z M822.6,154.1c4,0,4.4-0.2,5.5-3.4c0.5-1.4,0.9-2.9,1.1-4.4
		c1.4-7.8,1.7-15.7,1.2-23.6c-0.3-5.3-0.7-10.6-2.5-15.6c-1.1-2.9-2-3.4-5.3-2.8C827.4,113.3,827.5,144.3,822.6,154.1z M811.4,133.6
		c3.3,0.2,6.2-0.2,8.9,0.7c1.5-3,0.7-5.7,0.2-8.4c-1.2-0.3-2.2-0.2-3.1,0.2c-0.9,0.7-0.6,2.1-1.7,2.7c-0.8,0.7-2.1,0.4-3.3,0.8
		C812.5,131,812,132.2,811.4,133.6z M767.5,418c4,0.6,8,1.2,10.4,1.2c5.4-2.8,10.4-2.2,14.3-4.8C784,415.8,775.7,416.8,767.5,418z
		 M810.5,131.2c1.2-3.4-1.2-6.2-1.1-9.3c-1-0.3-1.6-0.6-2.2,0.4c0.8,2.3,1.2,5,1.6,7.5c-0.3,1.4-1.4,2.4-1.1,3.8
		c0.7,0.6,1.3,0.4,1.9-0.1c-0.1-0.6-0.9-0.9-0.7-1.6C809.4,131.6,809.9,131.4,810.5,131.2z M719,648.7c-2.1,0.1-4.2-0.2-6.2-0.9
		c-0.4,0.9-0.8,1.5-0.5,2.4c2.4-0.1,4.7,0.7,6.8,1.7C720,650.7,719.9,649.8,719,648.7z M809.9,646.1c-1,1.3-1.2,2.4,0.2,3.4
		c1.8-1.5,4.2-1.5,6.4-2.1c0.1-0.9,0.1-1.6-0.9-2.1C813.9,646.1,812,646.4,809.9,646.1z M730.7,418.2c1.6,0.3,0.8,3.3,3.1,2
		c-0.3-1.1-0.6-2.2-1-3.6c-1.5,0-3.1-0.5-5.2,0.3c1.4,0.8,0.8,2.4,2.1,2.9C730.1,419.2,730.4,418.7,730.7,418.2z M723.6,419.9
		c0.8-1.1-0.4-2.7,1.3-3.2c1.3,0.5,0.9,1.7,1.1,2.7c0.2,0.7,0.7,0.9,1.5,0.2c-0.9-1.5-0.4-4-3.3-3.9c-0.9,1-1.7,1.9-2.5,2.7
		C721.8,419.7,722.5,420,723.6,419.9z M800,413.8c-2.1-1-3.9-0.6-5.6,0c0.1,0.7,0.5,1.1,1.2,1.7c1.1-1,2.3-0.2,3.5,0.1
		C799.4,414.9,799.6,414.5,800,413.8z M760.1,418.4c2.4,0.8,4.2,0.8,6.6-0.7C764.1,417.4,762.3,417,760.1,418.4z M738.4,244.9
		c0.5-2.3-1-3.6-2.5-5.7C735.3,242.2,737.5,243.2,738.4,244.9z M814.8,126.3c-0.5-1.1-1.2-1.8-2.8-1.7c0.3,1.3,0.5,2.4,1.2,3.3
		C814.2,127.8,814.6,127.1,814.8,126.3z M780.1,248c0.5-1.1,1.1-2.2,1.5-3.4c0-0.1-0.2-0.3-0.4-0.5c-0.6,0.8-1.9,0.9-2.2,2.2
		C779.2,246.9,779.4,247.5,780.1,248z M782.3,243c0.3-1.5,0.3-2.7-0.2-4.2C780.5,240.4,781.1,241.6,782.3,243z M780.3,237.6
		c1.1-0.3,1.4-0.8,0.7-1.9C780.3,236.1,779.9,236.6,780.3,237.6z M752.6,418.9c-0.8-0.4-1.4-0.5-1.7,0.3
		C751.5,419.9,752,419.9,752.6,418.9z M742,216.7c0.8,0.7,1.4,1.3,2.3,0.4C743.6,216.5,743.1,216,742,216.7z M761.1,215.8
		c-0.5-0.7,0.1-1.5-1.1-1.7C760,214.7,759.6,215.3,761.1,215.8z M738.4,236.1c0.6-1.4-0.3-1.5-0.9-2
		C737.1,235.3,737.6,235.7,738.4,236.1z M775.1,421.7c0.5-0.4,1.2-0.8,0.3-1.5C774.5,420.6,774.5,421.1,775.1,421.7z"/>
	<path d="M797.6,132.1c-0.1,0.4-0.3,0.9-0.4,1.3c-3.5-1.4-3.8-6-0.8-9.9c-0.5-1.2-0.5-1.2-1.3-1.8c-1.1,0.6-1.3,2-2.3,2.6
		c-0.9,0.5-1.8,1-2.8,1.5c-0.6,2.7,1.1,5.4-0.2,7.7c1.2,3.9,4.2,6.2,6.6,8.9c1.5,1.7,3.9,1.4,5.8,2.1c0,1.1-1.3,0.8-1.6,1.8
		c1.4,4.4,3.1,8.8,4.1,13.4c1.3,6.3,1.4,12.6,1.4,19c0,6.6,0.7,13.1,2.5,19.5c1,3.5,1.6,7.1,2.9,10.5c1.1,3,0.6,6.3,1.7,9.5
		c-1.5,4.9-3.1,10-5.2,14.8c-3.4,7.7-5.1,15.6-4.7,24c0.1,2.3,0,2.3-1.2,4.3c-1.1-5.8-0.9-11.6-0.9-17.3c0-3.6,1.3-6.9,2.9-10.1
		c1.2-2.4,2.5-4.8,3.8-7.2c2.3-3.9,3-8.1,2.2-12.5c-0.9-5.2-1.9-10.4-3.5-15.5c-1.6-5-2.5-10.1-2.5-15.3c0-6.9-1-13.6-1.6-20.4
		c-0.6-6.2-2.8-12.1-4.7-18.1c-3.3-1.3-4.8-4.6-7.6-6.6c-0.9,1-0.7,2.3-0.9,3.5c-0.3,3.3-0.8,6.5-2,9.7c-1.2,3.1-2.4,4-5.5,4
		c-3.2,0-5.7-1.6-6.5-4.3c-1.4-4.5-2-9.2-2.2-13.9c-0.5-8.7-0.5-17.4,1.2-26c0.5-2.8,1-5.6,2.9-7.6c1-0.7,2-0.7,2.9-0.8
		c4.8-0.6,6.3,0.3,7.7,5.1c1.3,4.4,1.6,9,2.1,13.6c0.1,0.7-0.2,1.4,0.4,2c2.1-0.5,3-2.5,4.4-3.5c1.2-0.5,2,0.3,2.9,0.3l-0.1-0.1
		c0.5,0.6,1.1,1.2,1.5,1.7c0.3,1.1-0.3,2-0.5,3c1,1.5,1.3,3.4,1.4,5.2c0.1,1.5-0.4,2.5-2.2,2.2c-1.2-1.9-0.3-4-0.4-6
		c-0.7,0-1.1,0.1-1.5,0.7c1,1.5,0.3,3.4,0.8,5.1C796.9,132.1,797.2,132.1,797.6,132.1z M778,105.3c-2,1.1-2,3.3-2.4,5.2
		c-2,9.7-1.9,19.6-1.2,29.4c0.2,3.5,0.7,7,1.8,10.4c0.4,1.3,0.7,2.7,2.1,3.3c0.5-0.1,0.7-0.3,0.8-0.7c0.6-0.4,0.2-0.8,0.1-1.2
		c1.7-5.1,2.2-10.4,2.3-15.8c0.1-5.4,0.2-10.7-0.1-16.1c-0.3-4.3-0.7-8.6-2.3-12.7c0.1-0.4,0.2-0.8,0.4-1.3
		C778.8,105.5,778.4,105.4,778,105.3z M780.9,154.1c3.4,0,4-0.4,5-3.2c0.4-1.2,0.7-2.5,1-3.7c2-9.4,1.6-19,1.1-28.5
		c-0.2-4-0.8-8-2.2-11.7c-1.1-2.8-1.8-3.1-4.8-2.7C785.3,120.8,785.3,137.3,780.9,154.1z"/>
	<path d="M715.4,140c-1.8,0.3-2.3-0.6-2.2-2.2c0.1-1.9,0.3-3.7,1.4-5.2c-0.3-0.9-0.5-1.7-0.6-2.2c0.1-1.3,1.2-1.6,1.6-2.5l-0.1,0.1
		c0.8-0.2,1.6-0.3,2.4-0.5c1.9,0.8,2.5,3.2,5.1,3.6c0.3-3.2,0.4-6.5,0.9-9.7c0.4-2.4,0.9-4.9,1.8-7.2c1-2.7,2.2-3.4,5.1-3.3
		c0.8,0,1.6,0.1,2.5,0.1c1.8,0,2.8,0.9,3.6,2.4c0.7,1.4,1.1,2.8,1.4,4.3c2.7,13,2.7,25.9,0,38.9c-0.3,1.3-0.6,2.5-1,3.8
		c-1.2,1-2.1,2.4-3.8,2.9c-3.9,1.2-6.6,0-8-4c-1.2-3.6-1.6-7.3-2.1-11.1c-0.1-0.6-0.1-1.1-0.2-1.8c-1.4,0.2-2.1,1.2-2.8,2.1
		c-1.2,1.3-2.3,2.7-3.9,3.5c-1.4,0.7-1.8,2.1-2,3.5c-0.9,6.2-1.8,12.3-2.9,18.5c-1.5,8.3-1.1,16.6-0.8,25c0.2,6.8-0.7,13.4-2.4,19.9
		c-0.6,2.4-1.2,4.8,0,7.4c3.1,3.1,5.7,7,8.3,11c3.3,5.1,4.4,10.9,4.7,16.8c0.1,2.2,0.3,4.4,0.8,6.6l0.1-0.1
		c-0.6,0.1-1.1,0.4-1.9-0.1c-0.9-1.3-1-2.9-1.2-4.6c-0.2-2.6-0.4-5.2-0.7-7.7c-0.5-4.5-2.8-8.2-5.3-11.8c-2.3-3.3-4.1-6.9-6-10.4
		c-1-1.9-1.8-4.4-1.1-6.7c2.1-7.7,0.8-15.5,1-23.2c0-0.8,0-1.6-0.1-2.5c-0.5-7.9,0.7-15.7,2.8-23.3c1.2-4.3,1.4-8.8,2.4-13.2
		c0.3-1.1,0.3-2.3,0.5-3.5c-0.3-0.8-1.7-0.5-1.6-1.8c6.6-0.4,9.3-5.5,12.2-10.2c-0.7-2.7-0.5-5.3,0-7.9c-1.8-1.5-4-2.5-5-4.6
		c-1,0.2-1.3,0.9-1.5,1.5c2.8,4.5,2.7,8.1-0.4,10.3C715.4,141.1,715.5,140.4,715.4,140c0.3-0.1,0.8,0.1,1.3-0.6
		c-0.1-1.6-0.3-3.3,0.7-5.1c-0.8-0.1-1.1-0.6-1.7,0.1C715.8,136.2,716.6,138.2,715.4,140z M732.8,159.3c-0.1,0.9,0.5,1.4,1,2
		c2.1-0.2,2.2-1.9,2.6-3.3c1.3-4.5,1.7-9.2,2-13.9c0.6-9,0.2-17.9-1.8-26.7c-0.4-1.8-0.7-3.7-2.4-4.8c-0.6,0.2-0.9,0.5-0.8,1
		c0.3,0.3,1,0.1,1,0.8c-0.9,1.3-1.8,2.6-2.1,4.3c-0.4,3.4-1.3,6.7-1.3,10.1c0,9.7-0.8,19.5,2,29.1
		C733.1,158.4,732.9,158.9,732.8,159.3z M727.8,112.9c-0.4,0.8-0.8,1.6-1,2.3c-1.8,5.6-2.3,11.5-2.4,17.4c-0.1,3.6,0.3,7.2,0.2,10.9
		c-0.2,5.3,0.5,10.6,2.3,15.6c1,3,1.7,3.3,5,3.2c-4.6-16.7-4.5-33.5,0-50.3C730.6,111.5,729.3,112.3,727.8,112.9z"/>
	<path d="M715.5,127.9c-1,0.4-2.1-0.3-3.2,0.3c-0.7,4-2.7,7.9-1.5,12.4c0.2,0.3,0.7,0.6,1.3,0.7c0.5,0.1,1.1,0.2,1.8,0.3
		c-1.9,1.7-4,1.3-4.8-1c-0.9-2.6-0.7-5.3,0.3-8c0.3-0.9,0.7-1.7,1-2.5c-0.5-1.2-1.4-0.6-2.2-1c-1.3,2.4-1.7,4.9-2.3,7.8
		c0.9,1.3,0.6,3.5,2.9,4.2c-2.4,4-6.2,1.7-9.2,2.7c-0.4,2.2,1.3,4.4,0.9,6.6c-1.7,0.8-1.7-0.9-2.5-1.6c-1.6,4.2-1.7,8.7-3.5,12.8
		c-1.5,1.8-3.8,2.1-6,2.1c-2.3,0.1-4-1.2-4.9-3.4c-1.2-3-1.7-6.1-2.1-9.3c-1-6.8-0.7-13.6-0.7-20.5c0-4.6,0.8-9.1,1.8-13.6
		c0.6-2.7,1.3-5.6,4.8-6.3c3.1-0.6,7,0.1,8,4.3c0.9,3.8,1.9,7.5,2.4,11.3c0.2,1.3,0.2,2.6,0.8,3.7c0.8,0.7,1.8-0.4,2.6,0.6
		c0.5-1,0.8-1.8,1-2.4c0.7-0.6,1.5-0.8,2.1-0.7c2.8,0.5,5.4,0.1,8.1-1C713.5,126.2,715.2,125.7,715.5,127.9L715.5,127.9z
		 M692.4,112.2c-2.3,1.8-2.6,4-3,6c-2.2,10.3-2.1,20.8-1.1,31.2c0.3,3,0.7,6.1,1.7,9c0.4,1.3,0.7,2.7,2.4,3.5
		c3.3-5.7,3.4-11.9,3.8-18.4c-1.5,0.6-2.6,1.1-3.8,0.5c-2.7-3-2.9-7.6-0.7-11.7c1.5-0.6,3.1,0.7,4.6,0
		C696.4,125.5,695.7,118.8,692.4,112.2z M690,162.4c-3.4-8.2-3.6-16.7-3.6-25.2s0.3-17,3.6-25.2c-1.8-0.4-3,0.3-4.2,0.9
		c-1.2,1.8-1.7,3.7-2.1,5.7c-2.1,10-1.9,20.1-1.1,30.2c0.3,3.4,0.8,6.8,1.9,10C685.5,161.9,686.1,162.3,690,162.4z M705.8,142
		c-0.6-1.7-1.2-3.2-1.7-4.6c0.5-2.7,1-5.3,1.5-7.8c-0.9-0.3-1.4-0.3-2.1,0.4c0,2.9-2.4,5.7-1.2,8.5c0.6,1,1.8,0.4,1.7,1.7
		c-0.5,0.4-0.9,1.2-1.8,1.1c-1.9-0.7-1.3-2.7-2-3.9c-1.1-0.2-2.2-0.1-3.1-0.7c-2-3-2.1-3-5.3-2.3c-0.3,2.7-1,5.4,0.5,8.1
		C696.8,141.3,701.2,142,705.8,142z M699.7,135.8c0.5-1.2,1.1-2.2,1-3.7c-1.3,0.4-2.1,0.8-2.6,1.9
		C698.3,134.8,698.6,135.3,699.7,135.8z"/>
	<path d="M548.8,243.3c0-0.6-0.1-1.2,0.5-1.8c2.2-1.4,4,1,6.1,1.2s4.1-0.8,6.3,0.3c0.8,0.3,0.6,1.5,1.2,2.2c0.7,0.3,1.4,0,2.1-0.1
		c0.1-0.3,0.3-0.6,0.4-0.9c0.7-4.3,1.1-8.6,2.3-12.8c0.3-1.1,0.5-2.3,0.9-3.4c1.4-3.6,2.2-3.8,6.1-4.2c2.7-0.3,4.7,1.1,5.7,3.8
		c1.5,4.1,2.2,8.4,2.5,12.7c0.4,6.9,0.5,13.8-0.2,20.8c-0.4,3.4-0.8,6.8-1.7,10.1c-1.7,6.3-6.3,7.7-11.7,3.7
		c-1.5-3.5-1.8-7.2-2.9-10.8c-1.2,0.2-1,1.9-2.2,1.6c-0.7-1.8,0.1-6.2,1.6-8.8c-3.2-0.1-6.3-0.3-9.4,0.4c-0.5-0.3-0.9-0.6-1.4-0.9
		c-1.5,0.8-2.9,2.7-5,0.4c1.1-0.6,2.5-0.2,3.3-1.3c1.3-4.2-0.9-8.1-1.5-12.3C551,242.1,549.9,243.2,548.8,243.3L548.8,243.3z
		 M572,275c1.3-1.1,1.7-2.7,2.2-4.3c1.1-3.9,1.5-7.9,1.8-11.8c0.7-9.6,0.5-19.1-1.7-28.4c-0.4-1.7-0.8-3.4-2.2-4.6
		c-3,3-4.7,11-4.4,20.2c0.8-0.1,1.6-0.3,2.4-0.3c0.8-0.1,1.6-0.5,2.4,0.1c1.9,4.5,1.6,8.5-0.8,11.5c-1.2,0.7-2.3-0.1-3.4,0
		C567.4,263.6,569.2,272,572,275z M574.3,225.1c4.4,16.9,4.6,33.6,0,50.4c3.3,0.1,4-0.2,5-3.2c0.5-1.4,0.9-2.9,1.2-4.4
		c1.8-10.4,1.9-20.8,0.6-31.3c-0.5-3.7-0.8-7.5-3.1-10.6C576.6,225.4,575.4,224.5,574.3,225.1z M572,247.1c-1.6-0.4-2.9-0.3-4,0.8
		c0,1,0.3,2.2-0.5,3.3c-1,1-2.4,0.7-3.6,0.9c-0.2,0.9-0.6,1.8,0.2,2.7c2.5,0.2,5-0.1,7.5,0.7C573.2,252.7,572.3,250,572,247.1z
		 M555.5,255.2c2.8,0,2-2.5,3-3.2c-0.5-2.9-0.9-5.5-2.3-7.8c-1,0-1.8,0-2.3,1C555.5,248.2,556.1,251.5,555.5,255.2z M562,253.5
		c1-3.2-1.2-6-1.3-8.9c-0.8-0.6-1.4-0.9-2.2-0.3c0.6,3.4,2.5,6.7,1.1,10.6C559.8,253.4,561.1,254.5,562,253.5z M563.5,247.2
		c0.2,1.5,0.5,2.6,1.1,3.6c0.9-0.3,1.3-0.9,1.6-1.7C565.8,248,565.1,247.3,563.5,247.2z"/>
	<path d="M375.6,243.2c-1,0-2-0.9-3.2-0.1c-0.6,3.9-2.7,7.8-1.5,12.4c0.5,1.1,2.1,0.5,3.2,1.2c-2,2.2-3.4,0.4-4.9-0.4
		c-0.4,0.3-0.9,0.6-1.4,0.9c-3-0.9-6-0.5-9.1-0.6c1.1,2.9,1.5,5.9,2,8.7c-1.1,0.5-1.5,0.1-1.8-0.3c-0.3-0.3-0.2-0.9-1.1-0.9
		c-1,3.5-1.3,7.3-2.9,10.8c-1.5,1.6-3.6,1.9-5.7,2c-2.5,0.2-4.3-1.2-5.3-3.8c-1.3-3.4-1.8-7.1-2.2-10.7c-0.8-7.5-0.8-15-0.3-22.5
		c0.2-3.6,1-7.2,1.8-10.8c1.1-4.7,4.1-6.3,8.7-5.1c2,0.5,3,1.8,3.6,3.5c1.1,3.1,1.8,6.3,2.4,9.6c0.4,2.5,0.7,5.1,1.1,7.4
		c0.6,0.9,1.4,0.6,2.1,0.7c1.1-0.3,0.6-1.8,1.6-2.4c4.2,0.3,8.3-0.6,11.9-1.8C375.7,241.8,375.6,242.6,375.6,243.2L375.6,243.2z
		 M352.7,225.1c-2.2,2.7-2.7,5.4-3.2,8c-1.4,7.8-1.7,15.7-1.3,23.6c0.3,4.7,0.7,9.4,2,14c0.4,1.5,0.7,3.2,2.2,4.2
		c2.8-2.9,4.6-11.4,3.8-17.7c-1.1,0-2.3,0.7-3.4,0c-2.5-3.1-2.7-7.9-0.4-11.8c1.5,0.1,3.1,0.3,4.7,0.4
		C356.6,238.9,356.5,232,352.7,225.1z M346.2,226c-1.5,2.3-2,4.8-2.4,7.4c-1.8,10.2-1.7,20.4-0.5,30.6c0.4,3,0.8,6.1,2,8.9
		c1,2.5,2.2,2.9,4.8,2.4c-4.5-16.7-4.5-33.4,0.1-50.2C348.8,224.7,347.7,225.4,346.2,226z M352.4,247.1c-0.2,2.9-1.3,5.8,0.6,8.6
		c2.5-1.1,5.1-0.4,7.5-0.9c0.4-1,0.3-1.7-0.1-2.7c-1.1-0.2-2.5,0.1-3.2-0.6c-1.2-1.3-0.4-2.8-1-3.8
		C355,246.8,353.9,246.7,352.4,247.1z M368.2,244.3c-1.2,2.4-1.8,5.1-2.2,8.1c1,0.6,0.5,2.1,1.7,2.8c0.3,0,0.6-0.1,1.3-0.1
		c-1-3.7,0.2-7,1.6-10.4C369.7,244.4,369.1,244.1,368.2,244.3z M362.5,253.7c0.9,0.6,1.8,0.2,2.4,0.9c-0.7-1.5-0.7-2.7-0.4-4.2
		c0.4-1.8,0.8-3.6,1.3-5.4c0.1-0.3,0.1-0.7-0.2-0.9c-0.7-0.1-1.4,0-2,0.8C363.6,247.7,361.5,250.4,362.5,253.7z M359.9,250.8
		c0.3-1.2,1.1-2.3,0.7-3.6c-1.4,0.1-2.1,0.7-2.4,1.9C358.5,249.9,359,250.5,359.9,250.8z"/>
	<path d="M732.4,555.3c-1.7,5.1-0.2,9.7,0.3,14.4c0.1,0.6,0.3,1.2,0.3,1.7c0,9.6,0.6,19.3-4,28.3c-1.2,2.3-1.9,4.6-2.3,7.2
		c-0.5,3.2-1.9,6.3-3.2,9.3c-2.8,6.2-3.3,12.7-3.1,19.3c0.1,2.1,0,4.2,0.5,6.3c0.3,1,0.2,2.1-1.1,2.7c-0.9-1.1-0.9-2.5-1-3.7
		c-0.4-8-0.2-16,1.9-23.8c0.8-2.8,2-5.5,3.1-8.2c2.6-6.4,4.3-13,5.8-19.6c1.3-5.9,0.9-11.9,0.7-17.9c-0.1-2.5-0.4-4.9-0.6-7.4
		c-0.3-2.9,0.7-5.5,1.6-8.1C731.4,555.8,731.8,555.7,732.4,555.3z"/>
	<path d="M433.9,549.1c-1.3,5.2,0.4,10.1,0.8,15.2c0.7,7.4,0.2,14.8-1.2,22.1c0,0.1-0.1,0.2-0.1,0.3c-1,4.6-4.1,8.3-4.8,13.1
		c-0.6,4.5-2.8,8.7-4.5,13c-2,5.2-2.1,10.6-2,16c0,2.2,0,4.5,0.5,6.7c0.3,1.1,0.2,2.1-1,2.8c-1.2-1.1-1.1-2.7-1.2-3.9
		c-0.4-8.2-0.2-16.5,2.3-24.4c0.9-2.9,2.1-5.8,3.2-8.6c2.4-5.8,3.9-11.9,5.3-17.9c1.4-6.1,1-12.4,0.8-18.6c-0.1-2.6-0.6-5.2-0.6-7.7
		C431.5,554.3,432,551.5,433.9,549.1z"/>
	<path d="M683.2,681.9c0,1.7,1,2.8,1.8,4.2c-1.7,0.8-2.4-0.2-2.8-1.3c-0.7-2-0.9-4.1-0.3-6.2c0.8-2.9,2.1-5.7,4.4-7.5
		c4.3-3.4,6.6-8.2,9.1-12.8c1.2-2.2,2.4-4.3,4.3-6.2c1.1,0.4,2.3,1,3.5,0.5c3.4-1.5,5.6,1,8.2,2.1c-0.1,0.9-0.7,1-1.1,0.8
		c-2.8-1-5.8-0.5-8.7-1.2c-1.1-0.3-2.2-0.2-2.4,1.5c3.6-0.6,7.1-0.5,11.2,1.1c-4.5,1.8-8.8-1.4-12.5,1.3c3.5,0.2,7.1-0.3,10.7,1.9
		c-2.2,1.1-3.9,0.3-5.6,0.3c-1.7,0-3.5-0.4-5.1-0.6c-0.8,0.2-1.1,0.7-1.1,1.5c2.7-0.1,5.4-0.1,8,0.6c0.3,0.1,0.5,0.3,0.8,0.5
		c-0.2,1.1-0.9,1.1-1.6,1c-2.2-0.1-4.5,0.2-6.6-0.6c-0.9-0.3-1.6-0.3-1.9,1c2.7,0.1,5.3,0.3,7.9,1c0.3,0.1,0.5,0.4,0.9,0.7
		c-0.7,1.3-2.6,1.4-2.2,3.1c-3,0.5-5.5,0-7.9-1.1c2.2-1.1,4.6-0.4,6.9-0.7c-2.2-0.8-4.5-1-6.9-2.3c-2,3.4-4.9,5.9-7.4,8.9
		C684.6,675.7,683.9,678.9,683.2,681.9z"/>
	<path d="M412.4,650.8c-4.6,1.1-8.4-1.2-12.2,0.3c-0.3,0.1-0.5,0.5-0.2,1.1c3.3-0.5,6.7-0.4,10,1c-0.3,1.3-1,1.1-1.7,1.1
		c-2.5-0.3-4.9-0.6-7.4-0.9c-0.9-0.1-0.9-0.1-2.6,1.3c3.2,0.3,6.3-0.1,9.7,1.4c-4,1.8-7.5,0-10.9,0.8c2.9,0.8,5.9,0.5,8.8,2.1
		c-1,1.2-2.3,1.9-2.4,3.3c-2.9,0.1-5.5,0.2-8.4-1.5c2.9-0.7,5.2-0.2,7.5-0.4c-2.1-1.1-4.6-0.9-6.9-2.5c-1.9,3.5-4.6,5.9-7,8.6
		c-2.2,2.4-2.9,5.6-3.7,8.7c-0.4,1.8,0.7,3.1,1.7,4.5c-1.3,1-2.1,0.4-2.6-0.6c-0.9-2.1-1.2-4.3-0.6-6.6c0.8-3,2.1-5.9,4.6-7.8
		c4.2-3.4,6.4-8,8.9-12.5c1.3-2.3,2.5-4.5,4.5-6.5c1.2,1,2.6,0.9,3.9,0.5c3.3-1.2,5.2,1.5,7.7,2.6c-4.1,0.3-8.2-1.1-12.2,0.1
		c1.9,0.4,3.8,0.1,5.6,0.4C408.5,649.4,410.3,649.4,412.4,650.8z"/>
	<path d="M832.4,658.9c-1.9-2.7-4-1.1-5.7-1.2c-1.9-0.1-3.9,0.9-5.9,0.2c1.4-2,1.4-2,10-2.1c-0.2-1.2-1.1-1.3-2-1.3
		c-2.7,0.1-5.4,0.3-8.1,0.4c-0.7,0-1.4,0.3-2.2-0.8c3.7-1.6,7.3-1.2,11-0.9c-0.1-1.4-1.1-1.6-2.2-1.5c-2.9,0.3-5.8,0.7-8.7,1.1
		c-0.5,0.1-0.9,0.2-1.3-0.2c-0.3-0.8,0.3-1.1,0.8-1.3c2.7-1,5.2-2.8,8.3-1.3c1,0.5,1.7-0.7,2.8-0.5c1.5,1.4,2.8,3.1,3.6,5
		c1.2,2.9,3.1,5.5,4.7,8.3c1,1.8,2.5,3.3,4.1,4.8c3.9,3.4,6.1,7.7,5.2,13.1c-0.3,1.4-0.6,3-2.4,3c-0.8-0.9-0.2-1.3,0.2-1.7
		c0.7-1,1-2.2,0.8-3.3c-0.8-3.5-1.8-6.9-4.4-9.5c-2.3-2.2-4.4-4.5-6.1-7.3c-3.4,0.7-6.5,2.4-10,1.6c1-1.9,1-1.9,9.1-2.9
		c-4.1-1.4-7.7,1.4-11.3-0.8c1.4-1.6,3.1-1.1,4.6-1.2C828.9,658.8,830.4,658.9,832.4,658.9z"/>
	<path d="M545.9,677.3c2.2-2.5,1.6-4.9,0.7-7.5c-1-3.1-2.4-5.9-5-8c-2-1.7-3.3-4-5-6.1c-3.2,0.8-6.3,2.4-9.9,1.7
		c1.1-1.8,1.1-1.8,9.1-2.9c-4-1.4-7.6,1.4-11.5-1c3.3-1.6,6.5-0.8,9.7-1.3c-1.8-2.5-3.8-0.9-5.6-1c-1.9-0.1-3.9,0.9-5.9,0.2
		c1.4-1.9,1.4-1.9,10-2.1c-0.2-1.3-1.1-1.3-2-1.3c-2.7,0.1-5.4,0.3-8.1,0.4c-0.7,0-1.4,0.4-2-0.8c3.6-1.5,7.2-1.2,10.9-0.9
		c-0.2-1.4-1.1-1.6-2.2-1.5c-2.9,0.3-5.8,0.7-8.7,1.1c-0.5,0.1-0.9,0.2-1.3-0.2c1.5-2,5-3.4,7.4-3c2.5,0.5,2.5,0.5,4.5,0
		c1.5,1.4,2.8,3.1,3.6,5.1c1.2,3,3.1,5.5,4.7,8.3c1,1.8,2.5,3.3,4.1,4.8c3.9,3.4,6.1,7.7,5.2,13.1
		C548.5,676.1,548.2,677.6,545.9,677.3z"/>
	<path d="M721.9,260.8c1,0.8,1.2,1.9,1.2,3.1c0.2,6.6,0.4,13.1,0.7,19.7c0,1.2,0.1,2.3,0.2,3.9c-1.3-1.6-1.6-3.2-1.9-4.6
		c-1.2-6.2-1.4-12.6-1.1-18.9c0.1-1.2,0.3-2.3,1.1-3.3L721.9,260.8z"/>
	<path d="M473.4,484.9c4.6-0.9,8.3,0.5,12.1,0c3.8-0.5,7.7-0.6,11.7-0.4C491.2,487.6,477.8,488.2,473.4,484.9z"/>
	<path d="M771.6,491.3c4.5-0.9,8.3,0.5,12.1,0s7.7-0.5,11.8-0.4C789.4,494,776,494.5,771.6,491.3z"/>
	<path d="M736.6,523.5c0,1.5-0.8,2.6-0.6,3.9c-1.2,0.2-2.1,0.4-3,0.4c-2.5,0.2-4.4-1.1-4.8-3.1c-0.4-1.7,0.6-3.6,2.2-4.4
		c2-0.9,4.3-0.3,5.5,1.7C736.3,522.4,736.4,523,736.6,523.5z M732.3,526.4c1.1-0.5-0.3-1.4,0.6-1.9c0.6-0.5,1.3,0.7,1.8-0.2
		c-0.3-2.1-0.3-2.1-2.5-3.1c-1.2,0.4-2.4,1-2.3,2.5C729.9,525.4,730.9,526.2,732.3,526.4z"/>
	<path d="M436.1,521.1c-1,0.1-1.9,0.4-2.9,0.4c-2.7,0.1-4.7-1.8-4.6-4.2c0.1-2.3,2.2-4,4.6-3.7c2.7,0.3,4.2,2.3,3.5,5
		C436.5,519.4,436.8,520.4,436.1,521.1z M435.2,518c-0.5-2.1-0.5-2.1-2.6-3c-2.4,1.4-2.9,2.3-1.9,3.9c0.5,0.8,1.2,1.3,2.1,1.1
		c0.8-0.5-0.5-1.4,0.5-1.8C433.9,517.8,434.4,518.7,435.2,518z"/>
	<path d="M711.9,518.4c2.6,0.5,5.4-0.6,6.3,2.2c0.1,1.7-1,2.3-1.5,3.3c0.2,0.7,0.5,1.4,0.7,2c-0.4,0.5-0.7,0.3-1,0.2
		c-1-0.5-1.1-1.8-2.2-2.2c-1.6-0.2-0.8,2.2-2.6,2.1C711,523.6,711.8,521.3,711.9,518.4z M713.5,520.2c0,0.6-0.4,1.2,0.4,2.1
		c1,0.1,2.2,0.6,2.7-1.3C715.6,520.2,714.7,519.9,713.5,520.2z"/>
	<path d="M411.9,519.6c-0.2-2.5,0.3-4.9,0.6-7.5c2.5,0.4,5.2-0.7,6.2,2.2c0.1,1.7-0.9,2.2-1.4,3c-0.3,1,0.8,1.5,0.5,2.3
		c-0.3,0.5-0.7,0.3-0.9,0.1c-0.7-0.7-1.4-1.5-2-2.2C413,517.3,413.8,519.7,411.9,519.6z M414.2,513.6c-0.4,0.9-0.5,1.6,0.2,2.2
		c1,0.1,2.1,0.5,2.6-1C416.3,513.6,415.2,513.7,414.2,513.6z"/>
	<path d="M723.2,527.2c-2.2,0-4.2-1.7-4.3-3.9s1.7-4,3.9-4.1c2.4-0.1,4.5,1.8,4.5,4C727.3,525.3,725.4,527.2,723.2,527.2z
		 M723,520.5c-1.6,0.6-2.7,1.4-2.3,3.1c0.3,1.3,1.2,2.1,2.5,2c1.1,0,2-0.7,2.3-1.8C726,521.9,724.9,521.1,723,520.5z"/>
	<path d="M423.5,512.8c2.3,0,4.2,1.7,4.4,3.8c0.1,2.2-2,4.3-4.3,4.2c-2.2-0.1-4.1-1.9-4.1-4C419.4,514.7,421.2,512.9,423.5,512.8z
		 M423.4,519.4c1.9-0.2,2.8-1.3,2.7-2.9c-0.1-1.5-1.2-2.2-2.6-2.3C420.2,516.1,420.2,517.3,423.4,519.4z"/>
	<path d="M772.1,482.5c-0.1-1.5,1-2.1,1.9-2.2c6.5-1.2,12.6-3.9,19.2-4.3c0.2,0,0.4,0.1,0.9,0.2
		C786.8,478.6,779.7,480.7,772.1,482.5z"/>
	<path d="M496,469.8c-7.4,2.4-14.5,4.5-21.9,6.2c-0.4-0.3-0.3-0.8,0.2-1.2c0.7-0.7,1.5-1.1,2.5-1.3c5.6-0.8,10.8-3.1,16.4-3.8
		C494,469.6,494.8,469.5,496,469.8z"/>
	<path d="M728.5,437.7c-0.7-1.7,0.1-2.9,0.6-4.1c0.6-1.4,1.4-2.7,2-4.1c0.5-1.2,1.5-2.4,0-3.5c1.1-1.1,2-1.4,3.5-0.6
		C734.6,430.3,731.2,433.7,728.5,437.7z"/>
	<path d="M433.2,419.2c1-0.9,2-1.2,3.3-0.1c-0.3,4.8-3.3,8.3-6.1,12.1c-0.7-1.7,0.1-2.9,0.6-4.1c0.5-1.3,1.3-2.5,1.8-3.8
		C433.7,421.4,433.6,421.4,433.2,419.2z"/>
	<path d="M800,268.1c2.3,5.1,1.4,10.3,2.6,15.8c-1.3-2-2-3.5-2.4-5c-0.4-1.8-1-3.6-1.2-5.5C798.8,271.8,797.4,270,800,268.1z"/>
	<path d="M700.7,234.4c2.9,3.8,3.7,8.1,3.4,13.1C702.4,245.2,700,237,700.7,234.4z"/>
	<path d="M534.9,314.7c-7.2-0.2-11.2-2.6-10.3-6.1c2.2,0.2,3.1,2.3,4.8,3.1C531.2,312.6,532.8,313.6,534.9,314.7z"/>
	<path d="M390,314.8c3.3-1.9,6.5-4,9.1-6.5c1.7,1,1.5,1.9,0.7,2.8c-1.7,1.9-3.9,2.9-6.4,3.4C392.3,314.8,391.1,314.7,390,314.8z"/>
	<path d="M770.6,327.9c-3.5,1-5.6-1.2-9-1.4c-1.5,0.5-3.8,0.7-6.7,0.7c3.3-2.2,7-1.1,10-2.8C766.3,326,768.5,326.3,770.6,327.9z"/>
	<path d="M418.7,531c2.4,0.5,3.2,2.3,4.8,3.3c1.6-0.1,3.3-0.4,5.6-0.1c-1.7,2.1-3.8,1.9-5.8,2.5C421.8,535.1,419.1,534.4,418.7,531z
		"/>
	<path d="M720.2,547.8c0.3-1.5-0.3-2.7,0.5-3.9c1.9,1.2,0.8,3.1,1.2,4.5c-0.7,1.3-1.4,2.4-2,3.5c-0.6,1-0.6,2.4-1.9,3.5
		C716.6,551.9,718.3,549.8,720.2,547.8z"/>
	<path d="M721.5,543c-4.1-3.3-4.1-3.3-4.4-5.6c2.1,0.3,2.9,2.2,4.6,3.2c1.6-0.3,3.4-0.3,5.7-0.1C725.5,542.6,723.4,542.4,721.5,543z
		"/>
	<path d="M420.2,548.9c-1.3-3.2-1.1-4,1.9-7.5c0.4-1.2-0.3-2.6,0.6-3.9c1.8,1.1,0.8,2.9,1.3,4.4C422.3,544,421.6,546.5,420.2,548.9z
		"/>
	<path d="M774.7,364.6c5.7,3.5,11.4,7,17,10.5c-0.1,0.2-0.3,0.5-0.4,0.7c-6-3-11.4-7-17.1-10.5C774.4,365.1,774.6,364.8,774.7,364.6
		z"/>
	<path d="M493.3,369.1c-6.1-2.7-11.5-6.7-17.8-10.5C478.8,359.3,488.2,364.8,493.3,369.1z"/>
	<path d="M516.6,456.1c1.5,6.9,5.3,13.1,5.9,20.3C521,469.5,516.9,463.3,516.6,456.1z"/>
	<path d="M820.5,483c-1.5-7.1-5.3-13.3-5.8-20.4c1.9,5.5,3.7,11,5.6,16.5C820.7,480.3,820.6,481.4,820.5,483z"/>
	<path d="M809,271c1.3,2.9,1.5,6,3.1,8.5c-0.9,0.8-1.4,0.2-1.9-0.2c-2-1.9-2.6-4.4-2.7-7C807.5,271.8,808,271.5,809,271z"/>
	<path d="M449,489.4c4.7-1.9,9.8-2.6,15-3.7C462.4,487.7,458,488.8,449,489.4z"/>
	<path d="M747.1,495.8c4.7-1.9,9.8-2.6,15-3.6C760.5,494.1,755.7,495.3,747.1,495.8z"/>
	<path d="M762.9,390.5c0.6-2.3,0.7-4.5,0.4-6.9c-0.2-2.1-2.1-4.2-0.2-7C763.7,381.7,766.6,386.1,762.9,390.5z"/>
	<path d="M464.6,370.9c0.9,4.3,3.6,8.5,0.5,12.9c-0.1-2.2,0.4-4.4,0-6.6C464.8,375.1,463.5,373.2,464.6,370.9z"/>
	<path d="M706.8,553.7c1.7,3.7,1.9,7.6,2.8,11.5C708,561.5,705.8,558,706.8,553.7z"/>
	<path d="M411.4,559.6c-1.4-4.4-3.9-7.9-3.1-12.5C409.6,548.6,411.6,556.7,411.4,559.6z"/>
	<path d="M484.9,360.6c-4.2-1.6-9.4-6.4-11.3-10.6c1.7,1.8,3.4,3.6,5.2,5.2C480.5,356.9,482.5,358.5,484.9,360.6z"/>
	<path d="M782.3,366.7c-4.4-2.6-8.2-5.8-11.3-10.2c0.8,0.4,0.2,0.1,0.6-0.1c0.1,0,0.2,0,0.3,0C775.1,360.1,778.7,363.5,782.3,366.7z
		"/>
	<path d="M477.3,334.1c-3.9-0.5-8.2-0.3-10.4-4.6c1.7,0.7,3.1,2,4.9,2.5C473.7,332.4,475.7,332.6,477.3,334.1z"/>
	<path d="M467.4,391.6c1.6,3.9,2.4,7-0.1,10.5c-1-2,0.3-3.5,0.2-5.1C467.4,395.5,466.4,393.9,467.4,391.6z"/>
	<path d="M764.9,408c1.4-3.2,0.3-6.3,0.1-9.9C767.7,402,767.7,405.6,764.9,408z"/>
	<path d="M785,502.8c-3.2-2.2-6.8-3.1-10.2-5c1.3-1.2,2.3-0.3,3.3,0.1C784,500.7,784,500.7,785,502.8z"/>
	<path d="M476.6,491.4c2.8-0.7,8,1.8,10.7,5C483.6,494.6,480.2,493.1,476.6,491.4z"/>
	<path d="M518.6,504.4c1.1-3.1,3.5-5.7,4.4-8.9c0-0.1,0.4-0.1,0.9-0.2C524.3,499.5,520.6,501.5,518.6,504.4z"/>
	<path d="M821.7,501.7c0.4,4.3-2.9,6.3-4.9,9.4c-0.3-1.4,0.3-2.2,0.9-2.8C819.6,506.4,819.9,503.6,821.7,501.7z"/>
	<path d="M417.6,543.6c-1.7,0.6-4.1,0.4-6.6-0.6C413.7,541.2,415.7,541.4,417.6,543.6z"/>
	<path d="M432,352.3c-3.9,0-6.8-1.5-8.8-4.3C426.1,349.4,429.1,350.8,432,352.3z"/>
	<path d="M708.7,549.3c3.5-1.6,4.9-1.5,7.1,0.5C714.4,550.6,712.7,550.5,708.7,549.3z"/>
	<path d="M447.4,429.2c-0.8-3.4,0.1-6.9-0.8-10.5c2.1,0.5,1.9,2,1.7,3.2C447.8,424.4,447.3,426.7,447.4,429.2z"/>
	<path d="M460.6,355.1c-2.8,3.1-4.6,7-7.7,9.9c-0.1-0.1-0.2-0.2-0.3-0.3c2.3-3.5,4.2-7.3,7.7-10C460.4,354.9,460.5,355,460.6,355.1z
		"/>
	<path d="M745.5,435.6c-0.7-3.4,0.1-6.9-0.8-10.6c2.2,0.6,2,2.2,1.7,3.4C745.9,430.8,745.5,433.2,745.5,435.6z"/>
	<path d="M466.2,356.6c1.7,3.3,1,6.5-2.9,10.8c0.9-2.3,1.4-4,2.1-5.6C466.2,360.2,465.8,358.4,466.2,356.6z"/>
	<path d="M750.7,371.1c2.3-3.5,4.2-7.3,7.7-10c0.1,0.1,0.2,0.2,0.3,0.3c-2.8,3.1-4.6,7-7.7,9.9C750.9,371.3,750.8,371.2,750.7,371.1
		z"/>
	<path d="M764.4,363.1c1.5,3.6,0.9,6.2-2.7,10.6C762.8,369.8,764.7,366.7,764.4,363.1z"/>
	<path d="M826.6,665.1c2.4-0.9,5.5-0.9,8.2-0.2C831.5,666.5,828.7,666.6,826.6,665.1z"/>
	<path d="M536.8,658.4c-3,1.7-5.9,1.8-8.3,0.4C530.5,657.9,533.5,657.8,536.8,658.4z"/>
	<path d="M422.2,575.2c0-3.1,0.4-5.7,1.5-8.6C424.6,569.3,424.2,571.5,422.2,575.2z"/>
	<path d="M501.5,348.5c1.8-2,3.7-4.1,5.6-6.1C507.5,344.3,506.2,346,501.5,348.5z"/>
	<path d="M755.8,421.4c0.4-0.1,0.8-0.5,1.3-0.3c-1,2.6-2.1,5.2-3.1,7.8C753.8,426.2,754,423.5,755.8,421.4z"/>
	<path d="M457.6,415c0.4-0.1,0.8-0.5,1.3-0.3c-1,2.6-2.1,5.2-3.1,7.8C455.7,419.8,455.9,417.2,457.6,415z"/>
	<path d="M799.6,354.9c1.9-2.1,3.7-4.2,5.8-6.5C805.4,351,804.7,351.8,799.6,354.9z"/>
	<path d="M722.1,573.3c0.5,2.4,0.3,4.1-1.3,7.9C720.2,578.4,720.8,575.4,722.1,573.3z"/>
	<path d="M801.4,292.9c-1.5-2.6-1.6-5.3-0.5-8C802.7,287.5,801.2,290.3,801.4,292.9z"/>
	<path d="M468.9,487.5c0.3-3,0.7-6,1.7-8.9C471.1,481.6,470.5,485.4,468.9,487.5z"/>
	<path d="M766.8,493.8c0.6-2.9,1.2-5.8,1.9-9.2C769.2,488,768.6,491.7,766.8,493.8z"/>
	<path d="M723.1,289.9c2,2.5,1.5,4.7,1.6,7.5C722.7,294.8,722.5,292.8,723.1,289.9z"/>
	<path d="M420.8,592.2c-1.2-3-0.6-5.8,0.9-8.5C421.1,586.6,421,589.4,420.8,592.2z"/>
	<path d="M786.7,456.7c-3.5,1.7-7.3,1.6-11,1.4c1.8-0.8,3.7-0.5,5.6-0.8C783.1,457,784.9,456.8,786.7,456.7L786.7,456.7z"/>
	<path d="M488.6,450.3c-3.5,1.7-7.3,1.7-11.1,1.4c1.8-0.8,3.7-0.5,5.6-0.8C485,450.6,486.8,450.4,488.6,450.3L488.6,450.3z"/>
	<path d="M705.9,153.6c0.7,2.3,0,4.3-0.9,6.6C705.1,157.6,703.9,155.3,705.9,153.6z"/>
	<path d="M719,598.6c-1.3-2.7-0.7-5.2,0.5-7.7C719.3,593.5,719.2,596.1,719,598.6z"/>
	<path d="M811.8,269.3c-0.2-2.9,1.4-4.6,2.8-6.8C814.7,265.1,813.9,267,811.8,269.3z"/>
	<path d="M364.2,273.9c0.2-1.8-0.3-3.9,1.8-5.6C366.4,270.8,365.4,272.4,364.2,273.9z"/>
	<path d="M558.4,268.9c2.2,1.1,1.6,3.2,1.9,5C558.8,272.6,558.3,270.9,558.4,268.9z"/>
	<path d="M503.1,327.3c1,0.8,1.2,1.3,1,2.2c-1.6,1.3-3.5,2.1-6.1,2.8C499.6,330,502.8,330.3,503.1,327.3z"/>
	<path d="M459.1,476.9c3.1-0.1,6.1-1.4,9.5-0.9C465,477.2,462.9,477.4,459.1,476.9z"/>
	<path d="M757.2,483.3c3.1-0.1,6.1-1.5,9.9-0.8C763.5,483.4,760.4,483.8,757.2,483.3z"/>
	<path d="M458.3,496c1.7-2.3,4.4-2.9,6.8-4C463.5,494.5,460.6,494.7,458.3,496z"/>
	<path d="M756.1,502.4c2-2.3,4.6-2.9,7-4.3C762.2,500.2,761.8,500.4,756.1,502.4z"/>
	<path d="M449.4,514.7c0.8-2.9,1.4-5.7,3-8.2C452.2,509.5,451,512.3,449.4,514.7z"/>
	<path d="M747.6,521.1c0.6-2.9,1.5-5.7,2.9-8.3C750.3,515.8,749.2,518.5,747.6,521.1z"/>
	<path d="M809.9,152.8c-1.2-1.7-2.2-3.4-2.1-5.5C809.6,148.8,809.8,150.8,809.9,152.8z"/>
	<path d="M501.2,283.7c0.5-2.7,2-2.9,4.1-2.8C504.6,282.8,503.4,283.4,501.2,283.7z"/>
	<path d="M431.8,289c-3.2,0.2-5.3-1.1-7.6-2.1C426.7,287,429.1,287.4,431.8,289z"/>
	<path d="M705.2,253.9c-1.6-1.2-2.1-2.9-2.1-5.3C705.2,250.3,704.9,252.2,705.2,253.9z"/>
	<path d="M537,660.5c-2.1,2.3-2.4,2.3-5.2,0.5C533.6,660.1,535.5,661.5,537,660.5z"/>
	<path d="M827.2,218.3c0.8-1.5,2.6-1.4,4.1-2.6c0,2.2-1.3,2.8-2.4,3.4C828.3,219.5,827.6,219.3,827.2,218.3z"/>
	<path d="M835.1,666.8c-2.1,2.3-2.3,2.3-5.2,0.6C831.8,666.5,833.6,667.9,835.1,666.8z"/>
	<path d="M698.3,670.5c-1.6,1-3.2,0.9-5.1-0.9c2,0,3.6,0,5.2,0C698.4,669.9,698.3,670.2,698.3,670.5z"/>
	<path d="M423.7,422.1c0.2-2.1,2.6-3,2.7-5.3C427.2,419.1,427,419.5,423.7,422.1L423.7,422.1z"/>
	<path d="M401,663.2c-3,2-3.4,1.9-5.5,0C397.1,663.2,398.6,663.2,401,663.2z"/>
	<path d="M721.8,428.5c0.2-2.1,2.6-3,2.7-5.3C725.4,425.4,725.1,425.9,721.8,428.5L721.8,428.5z"/>
	<path d="M815.9,514.9c-0.3,1.9-1,3.6-2.6,5.6C813.1,517.7,814.4,516.3,815.9,514.9z"/>
	<path d="M515.3,513.5c-0.1-2.2,1-3.7,2.5-5C517.4,510.4,516.7,512.2,515.3,513.5z"/>
	<path d="M719.1,556.4c0.7,2.3-0.7,3.3-3,4.4C717,558.8,718.5,557.9,719.1,556.4z"/>
	<path d="M418.3,553.8c0.7-1.4,2.3-2.1,2.3-4C421.5,552.4,421.4,552.5,418.3,553.8z"/>
	<path d="M801.4,424.9c-1.1-2-1.6-3.5-1.9-5.3C801.3,421.1,801.3,421.1,801.4,424.9z"/>
	<path d="M503.3,418.1c-0.2-0.3-0.5-0.5-0.6-0.8c-0.4-1.2-0.8-2.4-1.3-3.6C503.2,414.2,503.2,414.4,503.3,418.1z"/>
	<path d="M697.4,218.4c-0.3,1.4-0.2,3-1.7,4.5C695,220.7,696,219.5,697.4,218.4z"/>
	<path d="M706,145.8c0.2,1.5,1.4,2.4,0.7,3.8C704.9,148.4,704.9,148.4,706,145.8z"/>
	<path d="M806.5,142.1c-1-1.6,0.1-2.6,0.3-4.1C808.3,139.8,808,140.9,806.5,142.1z"/>
	<path d="M366,261.2c0.4,1,1.6,2,0.5,3.5C365,263.6,365,262.5,366,261.2z"/>
	<path d="M557.6,264.6c-0.5-1.7,0.5-2.5,0.8-3.5C559.4,262.5,559.6,263.7,557.6,264.6z"/>
	<path d="M801.8,302.1c0.2,1.4,0,2.5-1.2,3.8C800.1,304.1,800.8,303,801.8,302.1z"/>
	<path d="M714.5,481.9c0,1.9,0,3.9,0,5.8c-0.1,0-0.1,0-0.2,0c0-2,0-4,0-6C714.3,481.8,714.4,481.9,714.5,481.9z"/>
	<path d="M416.3,475.4c0,2,0,4,0,6h-0.1c0-2,0-4,0-6C416.3,475.4,416.3,475.4,416.3,475.4z"/>
	<path d="M489,421.6c-0.3-2.6,0.3-4.3,0.9-6C490.6,417.5,490.2,419.2,489,421.6z"/>
	<path d="M787.1,427.7c-0.4-2.3,0.5-3.9,0.5-6.1C788.6,424.2,788.6,424.4,787.1,427.7z"/>
	<path d="M427.7,329.2c-2,0.5-2.9,0.2-3.5-1.2C425.9,326.7,426.4,328.1,427.7,329.2z"/>
	<path d="M710.7,279.8c0.4-1.5,1.4-2.2,2.8-2.4C713,278.7,712.1,279.5,710.7,279.8z"/>
	<path d="M803.6,453.3c1.4-1.7,2.6-2.6,4.2-3.8C806.1,451.8,806.1,451.8,803.6,453.3z"/>
	<path d="M509.7,443.8c-1.1,1-2.3,2-3.4,3C507.4,444.8,507.4,444.8,509.7,443.8z"/>
	<path d="M409.5,506.2c0.9,1.4,0.2,2.9,0.9,4.7C408.1,509.3,410.1,507.6,409.5,506.2L409.5,506.2z"/>
	<path d="M717.6,434.8c-0.1-1.8,0.1-3.5,1.2-5C719,431.6,718.5,433.2,717.6,434.8L717.6,434.8z"/>
	<path d="M459.7,333c1-1.1,2-2.3,3.1-3.4C462.5,331.5,461.7,332.8,459.7,333L459.7,333z"/>
	<path d="M698,229.7c1,0.6,1.7,1.3,1.7,2.7C697.9,231.9,698.2,230.7,698,229.7z"/>
	<path d="M707.6,512.6c1,1.3,0,3,1.2,4.9C706.3,515.7,708.3,513.9,707.6,512.6L707.6,512.6z"/>
	<path d="M419.4,428.5c0.1-2.9,0.1-2.9,1.4-5.5C420.9,425.2,420.4,426.8,419.4,428.5L419.4,428.5z"/>
	<path d="M713.8,474.3c0.8,0.9,0.6,2,0.8,3.3C713.4,476.3,713.4,476.3,713.8,474.3z"/>
	<path d="M732.8,321.8c0.9,0.7,1.8,1.4,2.8,2.2C733.5,323.9,733.5,323.9,732.8,321.8z"/>
	<path d="M726.8,308.7c-0.8-0.6-1.4-1.3-0.7-2.4C727,307,727.1,307.8,726.8,308.7z"/>
	<path d="M557.8,323.6c-1.2-1.1-1.6-2.1-1.8-3.4C557.1,321.1,557.3,322.2,557.8,323.6z"/>
	<path d="M777.8,469c-0.8,1-1.9,1.4-3.7,2.1C775.5,469.4,776.6,469.2,777.8,469z"/>
	<path d="M704.1,168c0.3,2.2-0.8,3.1-1,4.9C702.5,170.8,703.2,169.7,704.1,168z"/>
	<path d="M802.2,455.2c-0.9,0.7-1.7,1.4-2.8,2.4c0.3-1.8,1.7-2,2.4-2.9C801.9,454.8,802.1,455,802.2,455.2z"/>
	<path d="M501.1,450.8c0.7-1.1,1.5-1.9,2.8-2.3C503.2,449.6,502.3,450.4,501.1,450.8z"/>
	<path d="M396.2,292.5c0.8,0.4,1.7,0.8,1.8,2C396.7,294.3,396.5,293.4,396.2,292.5z"/>
	<path d="M528.7,291.9c-0.8,1.5-1.1,2.4-2.3,2.7C526.6,293.3,527.5,292.9,528.7,291.9z"/>
	<path d="M420.9,282.9c-1.1-0.5-1.7-0.9-1.6-2.1C420.7,280.7,421.4,281,420.9,282.9z"/>
	<path d="M725.7,302.9c-1.1-0.5-1.4-1.3-1.5-2.6C725.8,300.8,725.8,301.8,725.7,302.9z"/>
	<path d="M714.9,644.6c-1.2-0.7-1.1-1.8-0.8-3.2C715,642.6,715.1,643.6,714.9,644.6z"/>
	<path d="M415.6,468c0.7,0.9,0.5,1.9,0.9,3.2C415.3,470,415.3,470,415.6,468z"/>
	<path d="M416.9,638.7c-1.4-1.1-1.1-2.1-0.7-3.7C416.7,636.3,417.3,637.2,416.9,638.7z"/>
	<path d="M812.3,157.4c-0.8-0.7-1.3-1.4-0.8-2.6C812.6,155.6,812.7,156.4,812.3,157.4z"/>
	<path d="M575.3,320.7c0.6,1.2,0.2,2.3-0.5,3.3C574,322.7,575.4,321.9,575.3,320.7z"/>
	<path d="M349.9,324.3c-1-1.1-1.2-2.2-0.9-3.4C349.5,321.8,350,322.7,349.9,324.3z"/>
	<path d="M540.9,678.1c1.2,0,2.3,0,3.5,0C543.3,678.3,542.1,679,540.9,678.1L540.9,678.1z"/>
	<path d="M801.1,264.8c0.5,0.9,0.3,1.5-0.5,2.1C800.4,266.1,800.2,265.3,801.1,264.8z"/>
	<path d="M839.1,684.5c1.2,0,2.3,0,3.5,0C841.4,684.7,840.2,685.3,839.1,684.5L839.1,684.5z"/>
	<path d="M500.2,451.7c-1,1.2-1.5,1.8-2.6,2C498,452.7,498.7,452.3,500.2,451.7z"/>
	<path d="M704.5,165.9c-0.5-1.1-0.1-1.8,0.8-2.5C705.8,164.6,705.6,165.3,704.5,165.9z"/>
	<path d="M700.2,207.5c0.5,0.9,0.5,1.8-0.4,2.4C698.8,208.9,699.8,208.3,700.2,207.5z"/>
	<path d="M796.1,460.1c0-1.1,0.8-1.4,1.8-1.5C797.3,459.1,796.7,459.6,796.1,460.1z"/>
	<path d="M724.5,318.4c1.5,0.1,1.8,0.8,2.2,1.6C725.5,320.2,725.1,319.5,724.5,318.4z"/>
	<path d="M815.9,289.3c-1.2-1.2-1.6-1.8-0.9-2.8C816.2,287,815.6,287.9,815.9,289.3z"/>
	<path d="M801,296c-0.1-0.7-0.2-1.4,0.8-1.7c0.9,0.8,0.2,1.3-0.2,1.9C801.3,296.4,801.1,296.3,801,296z"/>
	<path d="M708.9,570.4c1,0.9,1,1.4,0.7,2C708.7,572.2,708.8,571.6,708.9,570.4z"/>
	<path d="M699.6,213.1c0.5,0.8,0.4,1.4-0.7,1.7C698.2,213.9,698.8,213.5,699.6,213.1z"/>
	<path d="M411.1,564.3c0.6,0.7,0.6,1.2,0.3,1.8C410.7,565.7,410.3,565.3,411.1,564.3z"/>
	<path d="M717.5,434.8c0,1.2,0.3,2.5-0.7,3.5l0.1,0.1C717,437.1,716.6,435.8,717.5,434.8L717.5,434.8z"/>
	<path d="M786.8,456.7c0.8-0.8,1.8-0.4,2.8-0.4C788.7,456.9,787.7,456.7,786.8,456.7L786.8,456.7z"/>
	<path d="M476.5,464.1c0.5-0.7,1-1.1,2.2-0.7C477.9,463.8,477.6,464.5,476.5,464.1z"/>
	<path d="M366.1,317c0.2-0.6,0.3-1.3,1.6-1.2C367.4,316.6,367.5,317.6,366.1,317z"/>
	<path d="M556.6,315.9c1.5-0.2,1.4,0.6,1.8,1.3C556.9,317.5,557.1,316.5,556.6,315.9z"/>
	<path d="M419.4,428.4c0,1.2,0.3,2.5-0.7,3.5l0.1,0.1C418.8,430.8,418.4,429.5,419.4,428.4L419.4,428.4z"/>
	<path d="M488.7,450.4c0.9-0.8,1.8-0.6,3-0.4C490.6,450.5,489.6,450.3,488.7,450.4L488.7,450.4z"/>
	<path d="M366.7,323.1c0.3-0.5,0.5-1,0.8-1.6C368.1,322.4,367.4,322.8,366.7,323.1z"/>
	<path d="M707.3,257.2c-1-0.1-1.2-0.7-1-1.6C707.1,256.1,707.1,256.1,707.3,257.2z"/>
	<path d="M748.6,469.5c-0.7-0.1-1.3-0.1-2.1-0.2C747.4,468.8,748.1,468.7,748.6,469.5L748.6,469.5z"/>
	<path d="M748.6,469.6c0.8,0,1.6,0,2.4,0C750.1,470.2,749.3,470.2,748.6,469.6L748.6,469.6z"/>
	<path d="M444.1,440.4c-0.4,0-0.9-0.1-1.3-0.1c0-0.1,0-0.1,0-0.2c0.4,0,0.8,0,1.3,0C444.1,440.2,444.1,440.3,444.1,440.4z"/>
	<path d="M466.4,324.4c0.6,0.5,0.5,1,0.1,1.6C466.2,325.5,466,324.9,466.4,324.4z"/>
	<path d="M713.6,625.7c0-1.1,0-1.6,0-2.1C714.3,624,714,624.5,713.6,625.7z"/>
	<path d="M415.7,619.1c-0.5-0.9-0.4-1.4-0.2-2.1C416.2,617.7,415.8,618.3,415.7,619.1z"/>
	<path d="M450.6,463.1c0.8,0.1,1.5,0.1,2.7,0.2C452,463.8,451.2,464,450.6,463.1L450.6,463.1z"/>
	<path d="M450.6,463c-0.7,0-1.4-0.1-2.5-0.2C449.2,462.5,450,462.4,450.6,463L450.6,463z"/>
	<path d="M459.7,333c0.1,1-1,0.7-1.2,1.3C458.4,333.3,458.9,333,459.7,333L459.7,333z"/>
	<path d="M438.1,334c1.1-0.2,1.4,0.2,1.7,0.8C438.9,335.3,438.5,334.8,438.1,334z"/>
	<path d="M814,160.6c-0.6,0.2-0.8-0.2-0.8-0.7c0-0.1,0.1-0.3,0.2-0.2C814,159.8,814.2,160.1,814,160.6z"/>
	<path d="M767.5,454.1c0,0.3,0,0.7,0,1h-0.1c0-0.3,0-0.6-0.1-1C767.4,454.1,767.4,454.1,767.5,454.1z"/>
	<path d="M460.2,354.8c0.4-0.6,0.7-1.4,1.9-1.1c-0.3,0.8-0.8,1.2-1.5,1.5C460.5,355,460.4,354.9,460.2,354.8z"/>
	<path d="M745.9,447.3c-0.6,0-1,0-1.6,0C744.8,446.9,745.3,447.1,745.9,447.3z"/>
	<path d="M469.2,448.7c0-0.4,0-0.7-0.1-1.1h0.1C469.3,448,469.3,448.4,469.2,448.7C469.3,448.7,469.3,448.7,469.2,448.7z"/>
	<path d="M742.2,446.7c-0.4,0-0.9-0.1-1.3-0.1c0-0.1,0-0.1,0-0.2c0.4,0,0.8,0,1.3,0C742.2,446.5,742.2,446.6,742.2,446.7z"/>
	<path d="M715.7,445.3c0-0.4,0-0.8,0.1-1.2c0.1,0,0.1,0,0.2,0c0,0.4-0.1,0.8-0.1,1.3C715.8,445.3,715.8,445.3,715.7,445.3z"/>
	<path d="M446.1,440.7c0.6,0,1.1,0.1,1.7,0.1C447.2,441.1,446.7,441,446.1,440.7z"/>
	<path d="M758.4,361.1c0.4-0.6,0.7-1.4,1.9-1.1c-0.3,0.8-0.8,1.2-1.5,1.4C758.6,361.3,758.5,361.2,758.4,361.1z"/>
	<path d="M452.8,365c-0.1,0.8-0.7,1.3-1.4,2c-0.3-1.2,0.3-1.8,1.1-2.3C452.6,364.8,452.7,364.9,452.8,365z"/>
	<path d="M751,371.4c-0.2,0.8-0.7,1.3-1.4,2c-0.2-1.3,0.3-1.8,1.1-2.3C750.8,371.2,750.9,371.3,751,371.4z"/>
	<path d="M816.3,257.9c-0.1-0.8,0.1-1.1,0.5-1.4C817.5,257.1,817.2,257.5,816.3,257.9z"/>
	<path d="M423.6,422.1c0,0.7-0.3,1.2-1,1.5C422.7,422.8,423,422.3,423.6,422.1L423.6,422.1z"/>
	<path d="M721.8,428.4c0,0.7-0.3,1.2-1,1.5C720.9,429.2,721.1,428.7,721.8,428.4L721.8,428.4z"/>
	<path d="M418.6,431.9c-0.1,0.7-0.1,1.5-0.2,2.6C418,433.3,418,432.6,418.6,431.9L418.6,431.9z"/>
	<path d="M426,564.1c0-1.1,0.3-1.5,0.8-1.7C427.2,563.1,426.5,563.3,426,564.1z"/>
	<path d="M813.2,283c1,0.2,1.5,0.7,1,1.7C813.3,284.5,812.8,284,813.2,283z"/>
	<path d="M724.2,570.4c0-1.1,0.3-1.5,0.8-1.7C725.4,569.5,724.7,569.7,724.2,570.4z"/>
	<path d="M365.4,320.5c0.1,1-0.3,1.4-0.9,1.9C364.1,321.4,364.5,320.9,365.4,320.5z"/>
	<path d="M559.1,320.7c0.8,0.1,1,0.6,1,1.3c-0.6,0.5-0.7-0.2-0.9-0.4C558.9,321.4,558.8,321,559.1,320.7z"/>
	<path d="M421.3,595.4c-0.2,0.1-0.3,0.4-0.5,0.3c-0.4-0.1-0.5-0.3-0.3-0.7c0.1-0.1,0.4-0.3,0.5-0.2
		C421.2,595,421.2,595.3,421.3,595.4z"/>
	<path d="M719,601.2c0.1,0.2,0.4,0.3,0.3,0.5c0,0.4-0.3,0.6-0.6,0.4c-0.1-0.1-0.2-0.4-0.2-0.5C718.6,601.4,718.9,601.3,719,601.2z"
		/>
	<path d="M716.8,438.3c-0.1,0.7-0.1,1.5-0.2,2.6C716.2,439.7,716.1,439,716.8,438.3L716.8,438.3z"/>
	<path fill="none" d="M524.4,634.1c-3,0.8-5.4,0.9-7.5,2.6c-1.1,0.9-3.1,0.6-4.5,0.8c-1.3-1.3-0.8-2.5-0.7-3.6
		c0.5-5.6,0.6-11.2,0-16.9c-0.7-6.8-3.3-12.9-5.6-19.2c-2.5-6.7-4.8-13.6-5.5-20.7c-0.5-5.3-1-10.8,0-16.2c0.3-1.7,0.2-3.5,0.3-5.3
		c0-0.7,0-1.4,1-1.6c-0.5-0.5-1-0.9-0.9-1.6c0.4-2.9-0.8-5.4-2-7.7c-2.2-4.2-2.8-8.7-4-13.4c4.9-0.8,9.6-1.5,14.3-2.4
		c4.7-1,9-3.5,13.9-4.9c0.4,2.2,0.8,4.1,0.1,6.4c-0.7,2.3-0.4,4.9,0,7.3c0.3,2.1,0.9,4.1,1.4,6.2c-0.3,0.8-1.4,0.8-1.6,1.7
		c-0.5,3.7-1.5,7.3-2.2,10.9c2.2-3.4,3.5-7.1,4.2-11.2c2.9,5.8,5.6,11.5,6.3,18c0.9,9.7,0.1,19.2-1.1,28.8c-1.1,8.6-3.1,16.9-5,25.4
		c-0.9,3.9-1.3,7.9-1.8,11.9C523.2,631,522.8,632.6,524.4,634.1z M508.5,539.5c1.8,2,2.4,4.6,3.8,7.1c2.2-3.6-0.5-5.7-2.1-8.2
		c0.6-1.5,0.1-3.1-0.6-4.5c1.5-1.6,3.9-2.4,4-5.1c-2.5-0.1-3.1,2.3-5,3c-1.6-0.6-3.2-0.2-5.2,0c1.6,2.3,4.1,1.4,5.7,2.9
		c-0.1,0.7-0.2,1.3-0.3,2C508.8,537.6,508.7,538.4,508.5,539.5z M522,540.6c-3.1-1.9-5.9-1.5-7,1C517.4,541.7,519.6,541.2,522,540.6
		z M508.7,564.1c-0.8,2.5-0.1,6,1.9,8.9C510,569.9,510.2,567,508.7,564.1z M511.4,590.3c1.5-3.3,1.3-5.3-0.7-8.9
		C511.5,584.1,511.3,587,511.4,590.3z M511.7,547.5c-0.2,3-0.1,3.1,2.8,3.7C513.1,550,512.5,548.7,511.7,547.5z M515.7,636.3
		c1.4-1.3,1.3-2.4,1-3.8C515.4,633.6,515.5,634.7,515.7,636.3z M500.5,547.3c1.1,0.7,1.7,1.6,3.5,0.4
		C502.6,547.5,502,546.3,500.5,547.3z M501.3,542.6c-0.9-0.8-1.5-1.6-2.5-0.7C499.2,542.8,499.8,543.1,501.3,542.6z M516.4,614.2
		c0.1,0.9-0.3,1.6,0.6,2.6C516.7,615.8,517.3,615.1,516.4,614.2z M518.8,545.8c-0.7-0.6-1-0.3-1.2,0.4
		C518.2,546.7,518.6,546.6,518.8,545.8z M521.6,562.1c-0.7,0.4-1.2,0.8-0.4,1.6C521.9,563.4,522.1,562.8,521.6,562.1z"/>
	<path fill="none" d="M464.6,306.3c-0.9-1.6-0.2-3.2-0.9-4.5c-1.7,1.2-0.6,3.1-1.2,4.5c-7,2-12.2,0.3-16.2-5.4
		c-2.7-3.9-4.5-8.2-6.4-12.5c-0.2-0.5-0.4-1.1-0.4-1.7c-0.1-0.7-0.1-1.4-0.1-2.1c0-4.1,0-8.2,0-12.4c1-1.5,2.9-2,4-3.9
		c0.1-5.7,2.5-11.6,0.8-18.4c1.7,1.5,1.5,3.1,2.1,4.3c0.7,1.4,1.1,2.8,2.2,4c1,1.1,1.9,2.4,3,3.7c1.6,0.5,3.5,1,4.8,2.1
		c1.7-0.2,3.2-0.4,4.6-0.6c0.9,0,0.7,1,1.6,1.2c1-1.3,2.7-0.4,4.3-0.8c3.5-1.7,5.3-5.7,8.9-8c0.9,4.7,0.5,10,4.4,13.9
		c-0.8,2.6-0.8,5.2-1,8.6c2.2-2.9,1-5.9,2.2-8.3c1.1,0,1.2,0.7,1.3,1.4c1,5.5,1,11-0.1,16.5c-0.6,3.1-1.3,6.2-2.2,9.3
		c-1,3.7-3.7,6-6.9,7.5C470.6,305.8,467.7,306.3,464.6,306.3z M456.3,272.9c3.1,1.3,4.6,0.3,6.6-3.9c-2.7-0.8-2.1,2.2-3.3,2.9
		C458.5,272.4,457.3,271.7,456.3,272.9z M448.2,274.4c-0.5-2.3-0.9-4.7-2.3-6.8C445.4,270.4,446.2,272.6,448.2,274.4z M464,297.5
		c1.4-2.3,3.2-4.2,4.7-6.5C466.3,292.6,464.1,294.3,464,297.5z M460.6,292.3c3.5,0.5,3.5,0.5,4.9-1.5
		C461.9,291.3,461.9,291.3,460.6,292.3z M468.8,266.6c1.8-0.5,3.3-1.4,3.6-3.9C471,264.3,469.9,265.4,468.8,266.6z M474,267.1
		c-0.9,1.1-1.6,1.8-1.2,3.2C474.1,269.6,474.7,268.8,474,267.1z M459.3,294.1c-1.1-0.5-2.1-1.5-3.6-1.1
		C456.8,293.8,458,294.3,459.3,294.1z M443.8,275.4c0.2-1.2,0.5-2.2-0.3-3.1C442.6,273.4,443,274.2,443.8,275.4z M474.7,263.8
		c0.5-1.2,0.5-1.7,0.2-2.5C474.8,262,474.7,262.5,474.7,263.8z M476.9,280c0.9-0.4,0.9-0.4,0.9-1.3C477.3,279,477,279.4,476.9,280z"
		/>
	<path fill="none" d="M449.7,213.2c0.1-0.4,0.3-0.8,0.5-1.4c0.3-0.4,0.9-0.2,1.5-0.3c2.4-0.6,4.7-0.4,6.9,1c1.1,0.7,2.4,0.8,3.3,0.1
		c2.7-2,5.6-1.7,8.6-0.9c0,0.6-0.3,1.2,0.3,1.6c0.9,0.1,0.6-0.9,1.1-1.2c0.2-0.1,0.4,0,0.5,0.3c0.3,1.2,0.2,2.4,1.5,3.4
		c0.8,0.6,1.1,2,1.6,3.1c2.7,5.4,4.3,11.1,4,17.3c-0.1,1.2-0.3,2.3-0.7,3.4c-1.1,3.5-2.3,6.9-2.6,10.6c-0.3,3-2.7,4.9-4.3,7.1
		c-1,1.4-2.5,2.4-3.9,3.6c-1.5,1.2-3.1,1.6-5,1.2c-2.4-0.5-4.9-0.8-7.1,0.1c-4.2-1.9-6.6-4.9-7.8-9.2c-1-3.6-1.8-7.3-4.7-10.1
		c-1-1-1.2-2.3-1.1-3.6c0.3-4.1,0.6-8.2,1-12.2c0.1-0.6,0.3-1.1,0.6-1.6c1.1-1.8,1.4-3.7,1.6-5.7c0.2-1.7,0.2-3.5,1.8-4.7
		c0.8-0.6,0.2-1.6,0.5-2.3C448.7,212.1,448.9,213.3,449.7,213.2z M453.5,227.5c-2.5,1-5.1,0.3-7.4,2.1c7.6,1.1,7.8,1.1,11.3-2
		c-1.4-3.8-4.9-2.1-7.5-2.7c-2-0.4-3.2,0.4-4.8,2.4c1.3,0.2,2.1-1.1,3.6-1C449.8,227.1,451.7,226.5,453.5,227.5z M476.1,227.3
		c-3-3.4-6.6-2.4-9.9-2.3c-1.5,0-2.6,0.9-2.8,3.2c1.8-0.7,2.6,0.7,3.4,1.6c2.7,0.5,5.1,0.4,8.1-0.2c-2.7-1.5-5.2-1.5-8.1-2
		c2.1-1.1,4.1-0.4,5.3-1.3C473.6,226.2,474.3,227.6,476.1,227.3z M464.7,253.2c-1.4-4.4-4.3-2.2-6.4-2.6c-1.6-0.3-2.4,0.8-2.9,2.5
		C458.6,254.2,461.5,252.9,464.7,253.2z M467.5,248.4c-0.9-1.5-2.3-0.5-3.5-0.6c-1.4-0.2-2.8-0.4-4.2-0.4c-1.3,0-2.5,0.4-3.8,0.6
		c-1.2,0.2-2.7-1-3.9,1.2c4.7,0.4,9-1,13.2-0.1c0.6,0.1,1.2,0.2,1.7-0.2C467.3,248.9,467.4,248.6,467.5,248.4z M462.9,242.9
		c-0.8-2.1-1.8-2.4-3-2.2c-1,0.2-2.2,0.5-2,2.5C459.4,242.5,460.8,242.3,462.9,242.9z"/>
	<path fill="none" d="M529.5,225.7c1.1,0.1,1.1,0.9,1.5,1.4c-0.6,0.4-1-0.5-1.2-0.1c-0.4,0.3-0.5,0.6-0.3,0.7c1.5,1.4,2,3.2,2.3,5
		c0.4,2.8,0.8,5.6,0.9,8.4c0.3,5,0.4,10.1,0.1,15.1c-0.3,5,0,10.1-2.1,14.9c-0.3,0.7,0,1.3,0.1,2c0.2,0.7-0.3,1.3-1.1,1.7
		c-1.3-0.7-1.7-2.1-2.1-3.4c-1.1-3.5-1.6-7.1-1.9-10.8c-0.7-9.8-0.8-19.5,1.2-29.2C527.4,229.5,527.8,227.2,529.5,225.7z
		 M529.9,258.6c2-2.9,1.7-5.9,1.6-8.7c-0.1-2,0.4-4.3-1.7-5.7C526.9,247.3,526.8,254.9,529.9,258.6z"/>
	<path fill="none" d="M395.3,227.4c-0.7-0.2-0.9-0.3-1.1-0.3s-0.4,0.2-0.6,0.3c-0.5-1,0.6-1.1,0.6-1.6c0.7-0.1,0.9,0.2,1.1,0.5
		c1.8,2.5,2.2,5.5,2.6,8.3c1.5,11.5,1.6,23-0.5,34.4c-0.7,3.4-0.9,3.8-2.7,5.8c-0.6,0-1-0.5-1-0.8c0.4-2.4-0.8-4.5-1.3-6.7
		c-0.8-3.2-0.5-6.5-0.7-9.8c-0.5-7.8-0.3-15.5,0.7-23.2C392.8,231.8,393.1,229.4,395.3,227.4z M394.4,243.8c-2,4.1-1.6,7.9-1.2,11.7
		c0.1,1.2,0.2,2.4,1.7,2.7C397.6,255,397.5,247.3,394.4,243.8z"/>
	<path fill="none" d="M532.2,275.5c4.5-16.9,4.5-33.5,0-50.3c1.3-0.6,2.4,0.3,3.6,0.7c1.4,1.7,1.9,3.7,2.3,5.6
		c2.3,12.5,2.3,25,0,37.5c-0.2,1.1-0.6,2.3-1,3.4C536.2,275.1,535.5,275.5,532.2,275.5z"/>
	<path fill="none" d="M392.2,275.5c-3.3,0-4.1-0.4-5.1-3.4c-1.2-3.6-1.8-7.3-2-11.1c-0.6-9.7-0.9-19.5,1.2-29.1
		c0.4-2.1,0.9-4.1,2.2-5.8c2-1,2-0.9,3.7-0.7C387.7,242,387.7,258.6,392.2,275.5z"/>
	<path fill="none" d="M494.1,408c-3.9,2.9-9.2,1.7-13.7,4.8c-2.6,0.3-5.8-0.7-9.1-0.3c-0.8,0.1-1.6-0.1-2-1.5
		C477.6,410.4,485.8,409.4,494.1,408z"/>
	<path fill="none" d="M515,327c-2.4-1-4.1-2.1-5.8-3.4c0.2-1.6,1.7-2.2,2.3-3.1c0.9-0.4,1.6,0.5,2.3-0.1c1.3-0.9,1.6-2.6,3.1-3.8
		C516.2,320.1,515.6,323.3,515,327z"/>
	<path fill="none" d="M420.8,642.1c0.9,1.4,1.2,2.3,0,3.5c-1.9-1.1-4.1-1.8-6.4-1.6c-0.7-1,0-1.7,0.4-2.6
		C416.6,642.2,418.7,642.5,420.8,642.1z"/>
	<path fill="none" d="M414.1,329c-0.4-2.1-0.7-3.8-1.1-6.1c2.1,1.1,3.7,2.2,6.4,2.1C417.2,326.6,416.1,328,414.1,329z"/>
	<path fill="none" d="M511.6,643.3c-0.4-0.8-0.7-1.2-0.7-1.6c0-0.6,0.3-1.1,0.5-1.7c2.1-0.2,4.3,0.1,5.9-1c1.1,0.5,1,1.2,1,2.1
		C516.2,641.6,513.8,641.7,511.6,643.3z"/>
	<path fill="none" d="M430.1,410.3c1.6-0.3,3-0.2,4.7,0.1c0.3,1.2,0.6,2.4,0.9,3.6c-2.3,0.9-1.6-1.6-2.6-2c-1.2-0.3-0.7,1.3-1.7,1.4
		C430.7,412.5,430.3,411.5,430.1,410.3z"/>
	<path fill="none" d="M429.7,413.9c-2.9-0.5-1.1-3.2-3.1-3.5c-1.5,0.5-0.3,2.1-1.1,3.1c-0.9,0.1-1.7-0.1-1.9-1.5
		c0.7-0.8,1.6-1.7,2.5-2.7C428.9,409.3,428.4,411.8,429.7,413.9z"/>
	<path fill="none" d="M496.2,407.4c1.9-0.5,3.6-0.9,5.1-0.2c0.6,0.8,0,1.2-0.4,1.9c-1.1,0.1-2.4-1.3-3.4,0
		C496.8,408.6,496.4,408.2,496.2,407.4z"/>
	<path fill="none" d="M439.3,413.6c-0.4,0.2-0.9,0.3-1.5,0.6c-0.8-1-1.1-2.1-1.2-3.2c0.9-0.9,1.8-0.5,2.7-0.4
		C439.8,411.7,439.2,412.7,439.3,413.6L439.3,413.6z"/>
	<path fill="none" d="M462.5,411.9c1.7-1.2,3.4-0.8,5.7-0.7C466.2,413,464.4,412.6,462.5,411.9z"/>
	<path fill="none" d="M437.9,233.6c1.1,1.6,3.2,2.7,2.4,5.3C439.3,237,437.4,235.8,437.9,233.6z"/>
	<path fill="none" d="M548.8,255.3c-0.4-0.2-0.8-0.4-1.3-0.7c0.1-1.8,0.3-3.6-0.7-5.4c0.7-0.1,1-0.2,1.6-0.3
		C548.5,251.1,547.9,253.3,548.8,255.3L548.8,255.3z"/>
	<path fill="none" d="M375.6,255.4c0.6-2,0.7-4,0.2-5.9c0.6-0.6,1-0.5,1.6-0.1c-0.8,1.6-0.8,3.4-0.5,5.2
		C376.4,254.8,376,255.1,375.6,255.4L375.6,255.4z"/>
	<path fill="none" d="M482,241.6c-0.8-0.5-1.1-1.2-0.9-2.3c0.6-0.5,1.4-1,2.8-2C483.1,239.2,482.6,240.4,482,241.6z"/>
	<path fill="none" d="M484.1,232.5c0.4,1.5,0.3,2.7,0.2,4C482.8,234.5,482.8,234.5,484.1,232.5z"/>
	<path fill="none" d="M482.3,231.3c-0.8-0.9-0.1-1.4,0.4-2.1C483.6,230.2,483.2,230.7,482.3,231.3z"/>
	<path fill="none" d="M452.6,412.6c0.7-0.5,1.2-0.6,1.7-0.2C453.8,413.9,453.3,413.4,452.6,412.6z"/>
	<path fill="none" d="M443.9,210.3c0.9-0.6,1.6-0.5,2.1,0.4C445,211.9,444.5,210.9,443.9,210.3z"/>
	<path fill="none" d="M462.5,209.4c-1.1-0.6-0.8-1.2-0.5-1.8C462.8,207.9,462.7,208.5,462.5,209.4z"/>
	<path fill="none" d="M477.7,414.1c0,0.6-0.3,1-0.8,1.2c-0.4-0.5-0.4-0.9-0.1-1.3C477.1,413.8,477.4,413.9,477.7,414.1z"/>
	<path fill="none" d="M440.4,229.7c-1-0.3-1.4-0.8-1.1-1.8C440.3,228.2,440.8,228.6,440.4,229.7z"/>
	<path fill="none" d="M822.4,640.4c-2.8,1-5.3,0.9-7.3,2.6c-1.1,0.9-3.1,0.8-4.7,0.7c-1.1-1.2-0.6-2.5-0.5-3.7
		c0.5-5.5,0.6-11,0-16.5c-0.7-6.9-3.4-13.1-5.7-19.5c-2.4-6.6-4.7-13.4-5.3-20.4c-0.5-5.3-0.9-10.7-0.1-16.2
		c0.5-3.3,0.5-6.8,0.4-10.2c-0.1-2.7-1.5-5.2-2.7-7.6c-1.8-3.7-2.3-7.8-3.2-12.1c10-0.6,19.2-3.1,28.2-7.4c0.4,2.6,0.7,4.7,0,7
		c-0.6,2.2-0.2,4.7,0.1,7c0.2,2.1,0.9,4.1,1.3,6c-2.9,3.9-2,8.8-4.5,13.3c2.5-0.9,1.6-2.8,2.4-3.7c0.9-1,1.2-2.3,1.5-3.5
		c0.3-1.4,0.3-2.8,0.9-4.1c0.8,0,0.8,0.7,0.9,1.2c2.7,6.1,5.1,12.3,5.6,19.1c0.8,10.3-0.9,20.4-1.9,30.6c-0.7,7.3-3.3,14-4.4,21.2
		c-0.6,4-1.3,7.9-1.8,11.9C821.3,637.3,820.9,638.9,822.4,640.4z M810.4,553.2c2.1-3.8-0.2-5.8-1.8-8.1c0-1.6,0.2-3.4-0.8-5
		c1.7-1.4,3.7-2.4,4.2-4.9c-2.5-0.3-3.2,2-4.9,2.8c-1.7-0.4-3.4-0.3-5.3,0.1c1.2,2.4,4.1,1.2,5.5,2.8c0,1.7-0.7,3.3-0.4,5.2
		C808.4,548,809.3,550.3,810.4,553.2z M813.1,547.6c2.5,0.5,4,0.3,6.7-0.9C816.7,545.1,814.6,545.4,813.1,547.6z M806.7,570.8
		c-0.3,3,0.3,5.8,1.8,8.4C808.3,576.3,808.1,573.5,806.7,570.8z M808.9,587.6c0.8,2.8,0.4,5.7,0.7,9.1
		C811.1,593.2,810.9,591.9,808.9,587.6z M812.1,557.6c-1-1.1-1.3-2.7-2.6-4C809.1,556.1,810.2,557.2,812.1,557.6z M813.8,642.6
		c1.5-1.2,1.3-2.3,1-3.7C813.5,639.9,813.6,641,813.8,642.6z M798.8,553.3c0.4,1.3,1.3,1.4,2,1.5c0.3,0,0.7-0.2,0.6-0.7
		C800.8,553.6,800.1,553.1,798.8,553.3z M796.8,548.1c0.6,1.1,1.3,1.4,2.3,0.9C798.6,548,798,547.7,796.8,548.1z M817.4,552
		c-1.1-0.1-1.6-0.2-1.8,0.6C816.1,553,816.5,552.9,817.4,552z M814.8,620.6c-0.4,0.9-0.4,1.6,0,2.3
		C815.2,622.2,815.2,621.5,814.8,620.6z M819.5,568.1c0,0.9-1.2,1.1-0.1,2C819.9,569.7,820.2,569.2,819.5,568.1z"/>
	<path fill="none" d="M754.1,268.5c-4.1-1.9-6.6-4.8-7.8-9.1c-1-3.6-1.8-7.3-4.7-10.1c-1.1-1.1-1.2-2.6-1.1-4c0.3-4,0.7-7.9,1-11.9
		c0.1-0.6,0.3-1.2,0.6-1.6c1.1-1.8,1.4-3.7,1.6-5.7c0.2-1.7,0.2-3.5,1.8-4.7c0.9-0.6,0-1.8,0.7-2.6c0.5,0.3,1,0.6,1.5,0.9
		c0.7-0.3,0.3-1.1,0.8-1.6c2.8-0.5,5.7-0.9,8.4,1c0.9,0.6,2.2,0.7,3,0c2.7-2.1,5.6-1.7,8.6-1c0.1,0.6-0.3,1.2,0.4,1.6
		c1,0.2,0.5-1.3,1.5-1.2c0,1.7,1.3,2.8,1.8,4.2c2.3,5.3,5.3,10.4,5.2,16.6c-0.1,3.4-0.4,6.5-1.5,9.6c-0.8,2.2-1.4,4.5-1.6,6.8
		c-0.3,3.9-3.3,6.4-5.6,9.1c-0.6,0.7-1.5,1.2-2.1,1.8c-1.7,1.6-3.5,2.1-5.8,1.6C758.6,267.8,756.3,267.6,754.1,268.5z M755.4,234.1
		c-0.2-2.2-2-2.6-3.6-2.7c-3-0.1-6.4-1.2-8.8,2.1c1.4,0.4,2.2-0.9,3.6-1c1.3,0.8,3.2,0.4,5,1.5c-2.6,0.7-5.1,0.3-7.7,2
		C748.4,236.4,752.3,237.7,755.4,234.1z M774.3,233.7c-3.2-3.3-6.9-2.4-10.4-2.2c-1.4,0.1-2.3,1.1-2.4,2.8c1.5,0.2,2.7,0.9,3.4,1.9
		c2.7,0.5,5.1,0.4,8.1-0.3c-2.8-1.4-5.3-1.5-8.3-2c2.2-1,4.2-0.5,5.5-1.3C771.8,232.6,772.5,234,774.3,233.7z M753.6,259.2
		c2.1,0.9,6.2,0.8,9-0.2c-0.4-1.6-1.4-2.7-2.9-2.2C757.6,257.4,754.5,255.7,753.6,259.2z M750.6,255.2c1.7,1.1,3.4,0.5,5.1,0.3
		c1.7-0.1,3.5-0.1,5.2-0.2c1.6-0.1,3.3,1.2,4.9-0.5C762.4,253.5,752.8,253.7,750.6,255.2z M755.9,249.1c0.8,0.9,1.5-0.1,2.2-0.3
		c0.8-0.1,1.8,0.9,2.5-0.3C758.5,246.3,757.3,246.5,755.9,249.1z"/>
	<path fill="none" d="M776.7,258.6c0.6,1.7,0.3,3.5,0.3,5.2c0,1.2-0.2,2.4,0.1,3.5c1,3.7-0.2,6.9-1.9,10.1c-0.5,1-1.1,2-1.2,3.5
		c1.4-0.7,1.5-2.4,2.9-3.2c0.4,2.5,1.1,4.8,1.2,7.2c0.2,5.9-0.3,11.7-1.3,17.6c-0.5,3.2-2.5,4.9-5.5,5.7c-4.1,1-8.2,0.4-12.2,0
		c-2.5-0.2-4.5-1.7-6.1-3.9c-2.7-3.8-4.4-8.1-5.1-12.6c-0.6-3.3-1.4-6.6-1.2-10.1c0.2-3.2-0.8-6.5-2-9.6c-1.4-3.5-1.2-7.1-0.8-11.5
		c1.9,3.1,3.7,5.3,5.7,7.7c1.6,0.4,3.3,1.2,4.9,2.1c1.6-0.2,3.1-0.4,4.4-0.6c0.9,0,0.7,1,1.6,1.2c1-1.4,2.7-0.4,4.7-0.9
		C769.1,266.8,772.9,262.7,776.7,258.6z M763.9,305.7c1.3-2,1.5-6.3,0.4-8c-1.2,0.6-0.5,2-1.2,2.8c-0.6-0.8-0.1-2.2-1.7-2.4
		C761.7,300.9,762.1,303.5,763.9,305.7z M754.4,279.3c3.1,1.3,4.6,0.3,6.6-4c-2.7-0.7-2.2,2.2-3.2,2.9
		C756.7,278.8,755.5,278.1,754.4,279.3z M767,273c3-1.4,3-1.4,3.3-3.6C769.1,270.6,768,271.8,767,273z M769.8,288
		c1.5-1.2,2.7-2.1,3.6-3.7C771.4,284.8,770,285.5,769.8,288z M772.1,273.9c-0.9,0.6-1.5,1.3-1.6,2.7
		C772.2,276.1,772.7,275.3,772.1,273.9z M766.7,291c-0.4-0.5-0.9-0.2-1.2,0s-0.9,0.2-0.7,0.9C765.7,292.2,766.3,291.8,766.7,291z
		 M773.3,268c-0.5,0.4-0.5,0.9-0.2,1.7C773.2,269,773.3,268.5,773.3,268z"/>
	<path fill="none" d="M820.2,154c-3.1-6-3.7-11.9-3.6-18.1c4.2,0.6,5.6-0.5,5.6-4.6c0-2.3,0.3-4.7-1-6.8c-1.7-0.6-3.3,0.3-4.9-0.3
		c0.1-6.9,0.4-13.6,3.9-19.9c2,1,2.2,2.8,2.6,4.3c1.2,4,1.5,8.1,1.8,12.2c0.7,9.5,0.4,19-1.8,28.4
		C822.5,150.8,822.1,152.4,820.2,154z"/>
	<path fill="none" d="M822.6,154.1c5-9.8,4.9-40.8,0.1-49.8c3.3-0.6,4.2-0.2,5.3,2.8c1.9,5,2.2,10.3,2.5,15.6
		c0.5,7.9,0.2,15.8-1.2,23.6c-0.3,1.5-0.7,3-1.1,4.4C827,153.9,826.5,154.1,822.6,154.1z"/>
	<path fill="none" d="M811.4,133.6c0.6-1.4,1.1-2.6,0.9-4c1.2-0.4,2.5-0.1,3.3-0.8c1.2-0.6,0.8-2,1.7-2.7c0.9-0.5,1.9-0.5,3.1-0.2
		c0.5,2.7,1.3,5.4-0.2,8.4C817.6,133.4,814.7,133.8,811.4,133.6z"/>
	<path fill="none" d="M767.5,418c8.3-1.2,16.5-2.1,24.8-3.6c-3.9,2.6-8.9,2-14.3,4.8C775.4,419.1,771.5,418.6,767.5,418z"/>
	<path fill="none" d="M810.5,131.2c-0.6,0.2-1.1,0.5-1.6,0.7c-0.2,0.7,0.6,1,0.7,1.6c-0.6,0.4-1.2,0.7-1.9,0.1
		c-0.3-1.4,0.8-2.4,1.1-3.8c-0.4-2.5-0.8-5.1-1.6-7.5c0.6-0.9,1.2-0.6,2.2-0.4C809.3,124.9,811.7,127.8,810.5,131.2z"/>
	<path fill="none" d="M719,648.7c0.9,1.1,1,2,0.1,3.2c-2.2-0.9-4.4-1.7-6.8-1.7c-0.3-0.9,0.2-1.5,0.5-2.4
		C714.8,648.5,716.9,648.8,719,648.7z"/>
	<path fill="none" d="M809.9,646.1c2.1,0.2,4.1,0,5.7-0.8c1,0.5,1,1.2,0.9,2.1c-2.2,0.6-4.6,0.6-6.4,2.1
		C808.6,648.5,808.8,647.5,809.9,646.1z"/>
	<path fill="none" d="M730.7,418.2c-0.3,0.5-0.5,1-0.9,1.6c-1.4-0.5-0.7-2.1-2.1-2.9c2.1-0.7,3.6-0.2,5.2-0.3c0.4,1.3,0.7,2.4,1,3.6
		C731.5,421.5,732.2,418.6,730.7,418.2z"/>
	<path fill="none" d="M723.6,419.9c-1,0-1.7-0.2-1.9-1.5c0.7-0.8,1.6-1.7,2.5-2.7c2.9,0,2.4,2.5,3.3,3.9c-0.8,0.7-1.3,0.5-1.5-0.2
		c-0.2-1,0.2-2.2-1.1-2.7C723.2,417.2,724.4,418.8,723.6,419.9z"/>
	<path fill="none" d="M800,413.8c-0.4,0.7-0.6,1.1-0.9,1.7c-1.2-0.3-2.5-1.1-3.5-0.1c-0.6-0.5-1-0.9-1.2-1.7
		C796.1,413.2,797.9,412.8,800,413.8z"/>
	<path fill="none" d="M737.4,419.9c-0.4,0.2-0.9,0.3-1.5,0.6c-0.9-0.9-1-2.1-1.3-3.1c1-1,1.9-0.6,2.8-0.5
		C738,418,737.3,419,737.4,419.9L737.4,419.9z"/>
	<path fill="none" d="M760.1,418.4c2.2-1.4,4-0.9,6.6-0.7C764.2,419.1,762.5,419.2,760.1,418.4z"/>
	<path fill="none" d="M738.4,244.9c-0.9-1.6-3.1-2.6-2.5-5.7C737.3,241.3,738.9,242.6,738.4,244.9z"/>
	<path fill="none" d="M814.8,126.3c-0.2,0.9-0.6,1.5-1.6,1.7c-0.7-0.9-0.9-2-1.2-3.3C813.6,124.5,814.3,125.2,814.8,126.3z"/>
	<path fill="none" d="M780.1,248c-0.7-0.4-0.9-1.1-1-1.7c0.3-1.3,1.6-1.4,2.2-2.2c0.1,0.2,0.4,0.4,0.4,0.5
		C781.2,245.7,780.6,246.8,780.1,248z"/>
	<path fill="none" d="M782.3,243c-1.3-1.5-1.8-2.6-0.2-4.2C782.7,240.3,782.7,241.5,782.3,243z"/>
	<path fill="none" d="M780.3,237.6c-0.4-1,0-1.4,0.7-1.9C781.7,236.7,781.4,237.2,780.3,237.6z"/>
	<path fill="none" d="M752.6,418.9c-0.6,1-1.1,1-1.7,0.3C751.2,418.4,751.8,418.5,752.6,418.9z"/>
	<path fill="none" d="M742,216.7c1.1-0.8,1.7-0.3,2.3,0.4C743.3,218,742.8,217.5,742,216.7z"/>
	<path fill="none" d="M761.1,215.8c-1.5-0.4-1.1-1.1-1.1-1.7C761.2,214.3,760.5,215.1,761.1,215.8z"/>
	<path fill="none" d="M738.4,236.1c-0.8-0.4-1.4-0.8-0.9-2C738.2,234.6,739,234.7,738.4,236.1z"/>
	<path fill="none" d="M775.1,421.7c-0.6-0.6-0.6-1.1,0.3-1.5C776.3,420.9,775.6,421.3,775.1,421.7z"/>
	<path fill="none" d="M779,106.9c1.6,4.1,2,8.4,2.3,12.7c0.4,5.4,0.2,10.7,0.1,16.1c-0.1,5.4-0.6,10.7-2.3,15.8
		c-0.4-0.2-0.7-0.4-1.1-0.5c-0.4,0.4-0.2,0.7-0.1,1c0.2,0.5,0.6,0.7,1.1,0.7c0,0.4-0.2,0.6-0.8,0.7c-1.4-0.5-1.7-2-2.1-3.3
		c-1.1-3.4-1.6-6.9-1.8-10.4c-0.7-9.8-0.8-19.7,1.2-29.4c0.4-1.8,0.4-4,2.4-5.2C777.9,106.1,777.9,106.8,779,106.9z M778.1,122.5
		c-2.2,3.3-1.9,6.6-1.7,9.8c0.1,1.7-0.1,3.7,2,4.9c2.2-2,1.7-4.6,1.8-6.9C780.2,127.8,780.6,125.1,778.1,122.5z"/>
	<path fill="none" d="M780.9,154.1c4.4-16.7,4.4-33.3,0-49.9c3-0.4,3.8,0,4.8,2.7c1.4,3.8,2,7.8,2.2,11.7c0.5,9.5,0.9,19.1-1.1,28.5
		c-0.3,1.3-0.5,2.5-1,3.7C784.9,153.7,784.3,154.1,780.9,154.1z"/>
	<path fill="none" d="M797.6,132.1c-0.3,0-0.7,0-1.2,0c-0.5-1.7,0.3-3.7-0.8-5.1c0.4-0.6,0.8-0.7,1.5-0.7c0.1,2-0.9,4.1,0.4,6
		L797.6,132.1z"/>
	<path d="M779,106.9c-1.1-0.1-1.2-0.8-1-1.6c0.4,0.1,0.8,0.2,1.3,0.3C779.2,106.1,779.1,106.5,779,106.9z"/>
	<path d="M779.1,152.8c-0.5,0-0.9-0.2-1.1-0.7c-0.1-0.3-0.3-0.6,0.1-1c0.3,0.2,0.7,0.3,1.1,0.5C779.3,151.9,779.7,152.4,779.1,152.8
		z"/>
	<path fill="none" d="M732.8,159.3c0.1-0.5,0.3-1,0.2-1.3c-2.8-9.5-2-19.3-2-29.1c0-3.4,0.8-6.7,1.3-10.1c0.2-1.7,1.2-3,2.1-4.3
		c0-0.7-0.7-0.5-1-0.8c-0.1-0.6,0.2-0.8,0.8-1c1.7,1.1,2,3,2.4,4.8c2,8.8,2.4,17.7,1.8,26.7c-0.3,4.7-0.7,9.4-2,13.9
		c-0.4,1.4-0.5,3.1-2.6,3.3c0.8-0.6,0.8-1.4,1.2-2.2C734.1,159.2,733.4,159.2,732.8,159.3z M734.3,130.9c-1.9,2.4-2.6,6.9-1.8,11.3
		c0.2,1.2,0.3,2.6,2.1,2.9c2.1-2.5,1.3-5.4,1.4-8.1C736.1,135,736.4,132.8,734.3,130.9z"/>
	<path fill="none" d="M727.8,112.9c1.6-0.7,2.8-1.5,4-0.9c-4.5,16.9-4.6,33.6,0,50.3c-3.3,0.1-4-0.2-5-3.2c-1.7-5-2.4-10.3-2.3-15.6
		c0.1-3.6-0.3-7.3-0.2-10.9c0.2-5.9,0.6-11.7,2.4-17.4C727,114.5,727.4,113.8,727.8,112.9z"/>
	<path fill="none" d="M715.4,140c1.2-1.8,0.4-3.8,0.3-5.6c0.5-0.7,0.9-0.2,1.7-0.1c-0.9,1.8-0.7,3.6-0.7,5.1c-0.5,0.7-1,0.5-1.4,0.5
		L715.4,140z"/>
	<path d="M732.8,159.3c0.6-0.1,1.3-0.2,2.3-0.3c-0.4,0.8-0.5,1.7-1.2,2.2C733.3,160.7,732.7,160.2,732.8,159.3z"/>
	<path fill="none" d="M692.4,112.2c3.3,6.6,4.1,13.3,3.9,20.2c-1.5,0.8-3.1-0.6-4.6,0c-2.2,4.1-2,8.6,0.7,11.7
		c1.2,0.5,2.3,0.1,3.8-0.5c-0.4,6.5-0.5,12.6-3.8,18.4c-1.7-0.8-1.9-2.2-2.4-3.5c-1-2.9-1.4-5.9-1.7-9c-1-10.5-1.1-20.9,1.1-31.2
		C689.8,116.2,690.1,114.1,692.4,112.2z"/>
	<path fill="none" d="M690,162.4c-3.9-0.1-4.5-0.5-5.6-3.5c-1.1-3.2-1.7-6.6-1.9-10c-0.8-10.1-1-20.2,1.1-30.2
		c0.4-2,0.9-3.9,2.1-5.7c1.2-0.6,2.4-1.3,4.2-0.9c-3.2,8.1-3.6,16.6-3.6,25.2C686.4,145.7,686.6,154.2,690,162.4z"/>
	<path fill="none" d="M705.8,142c-4.6,0-9.1-0.7-13.6,0.3c-1.5-2.7-0.8-5.4-0.5-8.1c3.3-0.7,3.3-0.7,5.3,2.3c0.9,0.7,2,0.6,3.1,0.7
		c0.7,1.3,0.1,3.2,2,3.9c0.9,0.2,1.3-0.6,1.8-1.1c0.1-1.2-1.1-0.6-1.7-1.7c-1.2-2.8,1.2-5.6,1.2-8.5c0.6-0.6,1.2-0.7,2.1-0.4
		c-0.5,2.5-1,5.1-1.5,7.8C704.6,138.8,705.2,140.3,705.8,142z"/>
	<path fill="none" d="M699.7,135.8c-1.1-0.5-1.4-1.1-1.6-1.8c0.4-1.1,1.3-1.6,2.6-1.9C700.8,133.6,700.2,134.7,699.7,135.8z"/>
	<path fill="none" d="M572,275c-2.9-2.9-4.6-11.4-3.8-17.8c1.1-0.1,2.2,0.7,3.4,0c2.4-3,2.7-6.9,0.8-11.5c-0.8-0.6-1.6-0.2-2.4-0.1
		c-0.8,0.1-1.6,0.2-2.4,0.3c-0.3-9.2,1.5-17.2,4.4-20.2c1.4,1.2,1.8,2.9,2.2,4.6c2.2,9.4,2.4,18.9,1.7,28.4c-0.3,4-0.7,8-1.8,11.8
		C573.8,272.2,573.4,273.8,572,275z"/>
	<path fill="none" d="M574.3,225.1c1.1-0.6,2.3,0.3,3.7,0.9c2.3,3.1,2.6,7,3.1,10.6c1.3,10.4,1.2,20.9-0.6,31.3
		c-0.3,1.5-0.7,3-1.2,4.4c-1.1,3-1.7,3.3-5,3.2C578.9,258.7,578.8,242,574.3,225.1z"/>
	<path fill="none" d="M572,247.1c0.3,2.9,1.2,5.7-0.4,8.5c-2.5-0.8-5-0.5-7.5-0.7c-0.7-1-0.4-1.9-0.2-2.7c1.2-0.3,2.6,0,3.6-0.9
		c0.7-1.1,0.5-2.3,0.5-3.3C569.2,246.7,570.4,246.7,572,247.1z"/>
	<path fill="none" d="M555.5,255.2c0.6-3.8,0.1-7-1.6-10c0.5-1.1,1.3-1,2.3-1c1.3,2.3,1.8,4.9,2.3,7.8
		C557.4,252.8,558.3,255.2,555.5,255.2z"/>
	<path fill="none" d="M562,253.5c-0.9,1-2.1-0.2-2.4,1.4c1.4-3.9-0.5-7.2-1.1-10.6c0.8-0.6,1.4-0.3,2.2,0.3
		C560.8,247.6,562.9,250.4,562,253.5z"/>
	<path fill="none" d="M563.5,247.2c1.6,0.1,2.3,0.7,2.6,1.9c-0.3,0.8-0.7,1.4-1.6,1.7C563.9,249.8,563.7,248.7,563.5,247.2z"/>
	<path fill="none" d="M352.7,225.1c3.8,6.9,3.9,13.7,4.3,20.7c-1.5-0.1-3.1-0.3-4.7-0.4c-2.3,3.9-2.1,8.6,0.4,11.8
		c1.2,0.7,2.3-0.1,3.4,0c0.8,6.3-1,14.8-3.8,17.7c-1.5-1-1.8-2.7-2.2-4.2c-1.3-4.6-1.7-9.3-2-14c-0.5-7.9-0.2-15.8,1.3-23.6
		C350,230.5,350.5,227.9,352.7,225.1z"/>
	<path fill="none" d="M346.2,226c1.5-0.6,2.6-1.3,3.9-0.9c-4.6,16.8-4.7,33.4-0.1,50.2c-2.6,0.5-3.7,0.1-4.8-2.4
		c-1.2-2.8-1.7-5.9-2-8.9c-1.2-10.2-1.2-20.4,0.5-30.6C344.2,230.9,344.8,228.3,346.2,226z"/>
	<path fill="none" d="M352.4,247.1c1.6-0.4,2.7-0.3,3.8,0.5c0.6,1-0.2,2.5,1,3.8c0.7,0.7,2.1,0.4,3.2,0.6c0.4,1,0.5,1.7,0.1,2.7
		c-2.4,0.5-5-0.2-7.5,0.9C351,252.8,352.2,250,352.4,247.1z"/>
	<path fill="none" d="M368.2,244.3c0.9-0.2,1.5,0.1,2.4,0.4c-1.4,3.3-2.5,6.7-1.6,10.4c-0.7,0.1-1,0.1-1.3,0.1
		c-1.2-0.7-0.7-2.3-1.7-2.8C366.4,249.4,366.9,246.7,368.2,244.3z"/>
	<path fill="none" d="M362.5,253.7c-1-3.3,1.1-6,1.1-8.8c0.6-0.8,1.2-0.9,2-0.8c0.4,0.2,0.3,0.6,0.2,0.9c-0.5,1.8-0.9,3.6-1.3,5.4
		c-0.3,1.4-0.3,2.7,0.4,4.2C364.3,253.9,363.4,254.4,362.5,253.7z"/>
	<path fill="none" d="M359.9,250.8c-1-0.3-1.4-0.9-1.7-1.7c0.3-1.1,1-1.8,2.4-1.9C361,248.6,360.3,249.6,359.9,250.8z"/>
	<path fill="none" d="M732.3,526.4c-1.4-0.2-2.4-1-2.4-2.6c0-1.5,1.1-2.1,2.3-2.5c2.1,1,2.1,1,2.5,3.1c-0.5,0.9-1.3-0.3-1.8,0.2
		C731.9,525,733.4,525.9,732.3,526.4z"/>
	<path fill="none" d="M435.2,518c-0.8,0.7-1.3-0.1-1.8,0.2c-1,0.4,0.4,1.3-0.5,1.8c-0.9,0.2-1.6-0.3-2.1-1.1c-1-1.6-0.5-2.5,1.9-3.9
		C434.7,515.8,434.7,515.8,435.2,518z"/>
	<path fill="none" d="M713.5,520.2c1.2-0.3,2.1,0.1,3,0.7c-0.4,1.9-1.7,1.4-2.7,1.3C713.1,521.4,713.5,520.8,713.5,520.2z"/>
	<path fill="none" d="M414.2,513.6c1.1,0.1,2.2,0,2.8,1.2c-0.5,1.5-1.6,1.2-2.6,1C413.6,515.2,413.7,514.6,414.2,513.6z"/>
	<path fill="none" d="M723,520.5c1.9,0.5,2.9,1.4,2.5,3.3c-0.3,1.2-1.1,1.8-2.3,1.9c-1.3,0-2.2-0.8-2.5-2
		C720.3,521.9,721.4,521.2,723,520.5z"/>
	<path fill="none" d="M423.4,519.4c-3.2-2.2-3.1-3.3,0.1-5.2c1.4,0.1,2.5,0.8,2.6,2.3C426.1,518.1,425.3,519.2,423.4,519.4z"/>
	<path d="M508.5,539.5c0.1-1.2,0.2-2,0.3-2.8c0.1-0.7,0.2-1.4,0.3-2c-1.6-1.5-4.1-0.7-5.7-2.9c2-0.2,3.6-0.6,5.2,0
		c1.9-0.7,2.6-3,5-3c-0.1,2.7-2.5,3.4-4,5.1c0.7,1.5,1.2,3,0.6,4.5c1.6,2.5,4.2,4.6,2.1,8.2C510.9,544.1,510.3,541.6,508.5,539.5z"
		/>
	<path d="M522,540.6c-2.4,0.6-4.6,1.1-7,1C516,539,518.9,538.6,522,540.6z"/>
	<path d="M508.7,564.1c1.4,2.9,1.3,5.8,1.9,8.9C508.6,570.1,507.9,566.6,508.7,564.1z"/>
	<path d="M511.4,590.3c-0.1-3.3,0.1-6.2-0.7-8.9C512.8,584.9,513,587,511.4,590.3z"/>
	<path d="M511.7,547.5c0.9,1.2,1.4,2.5,2.8,3.7C511.6,550.6,511.5,550.6,511.7,547.5z"/>
	<path d="M515.7,636.3c-0.2-1.6-0.2-2.7,1-3.8C517,633.9,517.1,635,515.7,636.3z"/>
	<path d="M500.5,547.3c1.6-1,2.1,0.1,3.5,0.4C502.2,548.9,501.5,548,500.5,547.3z"/>
	<path d="M501.3,542.6c-1.4,0.5-2.1,0.2-2.5-0.7C499.8,541,500.3,541.8,501.3,542.6z"/>
	<path d="M516.4,614.2c0.9,0.9,0.3,1.6,0.6,2.6C516.1,615.8,516.5,615.1,516.4,614.2z"/>
	<path d="M518.8,545.8c-0.2,0.8-0.6,0.9-1.2,0.4C517.8,545.5,518.1,545.3,518.8,545.8z"/>
	<path d="M521.6,562.1c0.4,0.7,0.3,1.2-0.4,1.6C520.4,563,520.9,562.5,521.6,562.1z"/>
	<path d="M456.3,272.9c1-1.2,2.2-0.5,3.3-1c1.2-0.7,0.5-3.7,3.3-2.9C460.9,273.2,459.4,274.2,456.3,272.9z"/>
	<path d="M448.2,274.4c-2-1.8-2.8-4.1-2.3-6.8C447.3,269.7,447.7,272.1,448.2,274.4z"/>
	<path d="M464,297.5c0.2-3.2,2.3-4.9,4.7-6.5C467.2,293.2,465.3,295.2,464,297.5z"/>
	<path d="M460.6,292.3c1.4-1.1,1.4-1.1,4.9-1.5C464,292.8,464,292.8,460.6,292.3z"/>
	<path d="M468.8,266.6c1.1-1.2,2.2-2.3,3.6-3.9C472.2,265.2,470.7,266.1,468.8,266.6z"/>
	<path d="M474,267.1c0.7,1.7,0.1,2.5-1.2,3.2C472.4,268.9,473.1,268.1,474,267.1z"/>
	<path d="M459.3,294.1c-1.3,0.2-2.4-0.2-3.6-1.1C457.2,292.6,458.2,293.5,459.3,294.1z"/>
	<path d="M443.8,275.4c-0.8-1.2-1.1-2-0.3-3.1C444.3,273.2,444,274.2,443.8,275.4z"/>
	<path d="M474.7,263.8c0.1-1.3,0.1-1.8,0.2-2.5C475.2,262.1,475.2,262.6,474.7,263.8z"/>
	<path d="M476.9,280c0.1-0.6,0.4-1,0.9-1.3C477.8,279.6,477.8,279.6,476.9,280z"/>
	<path d="M453.5,227.5c-1.8-0.9-3.7-0.4-4.8-1.3c-1.5,0-2.3,1.2-3.6,1c1.6-2,2.8-2.8,4.8-2.4c2.6,0.5,6-1.1,7.5,2.7
		c-3.5,3.1-3.7,3.2-11.3,2C448.4,227.7,451,228.5,453.5,227.5z"/>
	<path d="M476.1,227.3c-1.8,0.3-2.5-1.1-4.1-1.1c-1.2,0.9-3.3,0.2-5.3,1.3c2.9,0.5,5.4,0.5,8.1,2c-2.9,0.6-5.3,0.7-8.1,0.2
		c-0.8-0.9-1.5-2.3-3.4-1.6c0.1-2.3,1.3-3.1,2.8-3.2C469.5,224.9,473.2,224,476.1,227.3z"/>
	<path d="M464.7,253.2c-3.2-0.3-6.1,0.9-9.3-0.1c0.5-1.7,1.3-2.8,2.9-2.5C460.4,251,463.3,248.8,464.7,253.2z"/>
	<path d="M467.5,248.4c-0.2,0.2-0.2,0.5-0.4,0.6c-0.5,0.4-1.1,0.3-1.7,0.2c-4.2-0.9-8.5,0.5-13.2,0.1c1.2-2.3,2.7-1.1,3.9-1.2
		c1.3-0.2,2.5-0.6,3.8-0.6c1.4,0,2.8,0.2,4.2,0.4C465.2,247.9,466.6,246.9,467.5,248.4z"/>
	<path d="M462.9,242.9c-2.1-0.6-3.5-0.4-5.1,0.3c-0.2-2,1-2.3,2-2.5C461,240.5,462.1,240.8,462.9,242.9z"/>
	<path d="M529.9,258.6c-3-3.7-2.9-11.4-0.1-14.5c2.1,1.5,1.7,3.8,1.7,5.7C531.5,252.7,531.9,255.7,529.9,258.6z M529.3,246.6
		c0,2.1,0,3.9,0,5.7c0.3-0.9,0.4-1.8,0.3-2.7C529.4,248.6,530.9,247.7,529.3,246.6z M529.3,255.7c0.4,0,0.7-0.2,0.8-0.5
		c0.1-0.5-0.2-0.8-0.8-1C529,254.7,529,255.2,529.3,255.7z"/>
	<path d="M394.4,243.8c3.1,3.5,3.2,11.2,0.5,14.4c-1.5-0.3-1.6-1.5-1.7-2.7C392.8,251.7,392.4,247.9,394.4,243.8z M395.2,246.8
		c-0.3,0-0.7,0-1,0.1c0.6,1.8,0.6,3.6,1,5.4C395.2,250.4,395.2,248.6,395.2,246.8z M395,255.8c0.3-0.7,0.5-1.2-0.2-1.5
		C394.1,254.8,394,255.2,395,255.8z"/>
	<path d="M810.4,553.2c-1.2-2.9-2.1-5.2-3.5-7c-0.4-1.8,0.3-3.4,0.4-5.2c-1.4-1.6-4.3-0.4-5.5-2.8c1.9-0.5,3.7-0.5,5.3-0.1
		c1.8-0.8,2.4-3.1,4.9-2.8c-0.4,2.5-2.5,3.4-4.2,4.9c0.9,1.6,0.8,3.3,0.8,5C810.2,547.4,812.5,549.5,810.4,553.2z"/>
	<path d="M813.1,547.6c1.5-2.2,3.6-2.4,6.7-0.9C817.2,547.9,815.7,548.1,813.1,547.6z"/>
	<path d="M806.7,570.8c1.5,2.7,1.6,5.5,1.8,8.4C806.9,576.6,806.3,573.8,806.7,570.8z"/>
	<path d="M808.9,587.6c2,4.3,2.2,5.6,0.7,9.1C809.3,593.4,809.7,590.5,808.9,587.6z"/>
	<path d="M812.1,557.6c-2-0.4-3.1-1.5-2.6-4C810.9,554.9,811.1,556.5,812.1,557.6z"/>
	<path d="M813.8,642.6c-0.1-1.6-0.2-2.7,1-3.7C815.1,640.3,815.2,641.4,813.8,642.6z"/>
	<path d="M798.8,553.3c1.3-0.3,2,0.3,2.7,0.8c0.1,0.5-0.3,0.7-0.6,0.7C800.1,554.7,799.2,554.6,798.8,553.3z"/>
	<path d="M796.8,548.1c1.2-0.5,1.9-0.1,2.3,0.9C798.1,549.5,797.4,549.3,796.8,548.1z"/>
	<path d="M817.4,552c-0.9,0.9-1.3,1-1.8,0.6C815.9,551.8,816.3,551.9,817.4,552z"/>
	<path d="M814.8,620.6c0.3,1,0.3,1.6,0,2.3C814.4,622.2,814.4,621.5,814.8,620.6z"/>
	<path d="M819.5,568.1c0.8,1.1,0.5,1.6-0.1,2C818.3,569.3,819.5,569,819.5,568.1z"/>
	<path d="M755.4,234.1c-3.1,3.6-7.1,2.4-11.5,1.9c2.6-1.7,5-1.3,7.7-2c-1.8-1.1-3.7-0.7-5-1.5c-1.4,0.1-2.2,1.4-3.6,1
		c2.4-3.3,5.8-2.2,8.8-2.1C753.5,231.4,755.2,231.9,755.4,234.1z"/>
	<path d="M774.3,233.7c-1.8,0.4-2.5-1-4-1.1c-1.3,0.8-3.3,0.3-5.5,1.3c3,0.5,5.5,0.6,8.3,2c-3,0.7-5.3,0.8-8.1,0.3
		c-0.7-1-1.9-1.7-3.4-1.9c0.1-1.8,0.9-2.7,2.4-2.8C767.4,231.2,771.1,230.3,774.3,233.7z"/>
	<path d="M753.6,259.2c0.9-3.5,4-1.7,6.1-2.4c1.5-0.5,2.6,0.6,2.9,2.2C759.8,260,755.7,260.1,753.6,259.2z"/>
	<path d="M750.6,255.2c2.2-1.5,11.9-1.7,15.2-0.4c-1.5,1.7-3.3,0.4-4.9,0.5c-1.7,0.1-3.5,0.1-5.2,0.2
		C754,255.6,752.3,256.3,750.6,255.2z"/>
	<path d="M755.9,249.1c1.4-2.6,2.5-2.7,4.6-0.6c-0.7,1.2-1.6,0.2-2.5,0.3C757.4,248.9,756.8,250,755.9,249.1z"/>
	<path d="M763.9,305.7c-1.9-2.2-2.3-4.8-2.5-7.6c1.6,0.2,1.1,1.6,1.7,2.4c0.7-0.8,0-2.3,1.2-2.8
		C765.4,299.4,765.2,303.7,763.9,305.7z"/>
	<path d="M754.4,279.3c1-1.2,2.2-0.5,3.4-1.1c1-0.7,0.5-3.6,3.2-2.9C759.1,279.6,757.5,280.6,754.4,279.3z"/>
	<path d="M767,273c1.1-1.2,2.1-2.3,3.3-3.6C770,271.5,770,271.5,767,273z"/>
	<path d="M769.8,288c0.2-2.5,1.5-3.2,3.6-3.7C772.6,285.9,771.4,286.8,769.8,288z"/>
	<path d="M772.1,273.9c0.5,1.4,0,2.2-1.6,2.7C770.7,275.3,771.2,274.5,772.1,273.9z"/>
	<path d="M766.7,291c-0.4,0.8-1,1.2-1.9,0.9c-0.3-0.7,0.4-0.7,0.7-0.9C765.8,290.8,766.3,290.5,766.7,291z"/>
	<path d="M773.3,268c0,0.5-0.1,1-0.2,1.7C772.8,269,772.8,268.5,773.3,268z"/>
	<path d="M778.1,122.5c2.4,2.6,2.1,5.3,2,7.7c-0.1,2.3,0.5,4.9-1.8,6.9c-2-1.2-1.9-3.2-2-4.9C776.2,129.1,775.9,125.8,778.1,122.5z
		 M778.1,128.8c-0.1,0-0.1,0-0.2-0.1c0,0.8,0,1.7,0,2.5c0.1,0,0.1,0,0.2,0C778.1,130.4,778.1,129.6,778.1,128.8z M778,133
		c-0.3,0.7-0.4,1.2,0.3,1.7C778.7,134.1,779.2,133.6,778,133z M778,125.4c-0.3,0.7-0.4,1.2,0.2,1.6C779,126.5,778.9,126.1,778,125.4
		z"/>
	<path d="M734.3,130.9c2.1,1.8,1.8,4.1,1.7,6.1c-0.1,2.7,0.7,5.6-1.4,8.1c-1.8-0.3-1.9-1.8-2.1-2.9
		C731.7,137.9,732.4,133.3,734.3,130.9z M734.4,135.9c0.1-0.8,0.6-1.6-0.4-2.3c-0.2,0.9-0.2,1.6,0.5,2.2c0.1,1.1-0.2,2.3,0.4,3.4
		C734.8,138.1,735.5,136.8,734.4,135.9z M734.1,141.1c-0.2,0.7-0.5,1.2,0.2,1.9C734.6,142.3,734.8,141.8,734.1,141.1z"/>
	<path fill="none" d="M529.3,246.6c1.6,1.2,0.2,2.1,0.3,3s0,1.8-0.3,2.7C529.3,250.5,529.3,248.7,529.3,246.6z"/>
	<path fill="none" d="M529.3,255.7c-0.3-0.5-0.3-1,0-1.5c0.6,0.2,0.9,0.4,0.8,1C530,255.5,529.7,255.7,529.3,255.7z"/>
	<path fill="none" d="M395.2,246.8c0,1.8,0,3.6,0,5.5c-0.4-1.8-0.4-3.6-1-5.4C394.5,246.8,394.9,246.8,395.2,246.8z"/>
	<path fill="none" d="M395,255.8c-1.1-0.6-1-1-0.2-1.5C395.5,254.6,395.4,255.1,395,255.8z"/>
	<path fill="none" d="M778.1,128.8c0,0.8,0,1.6,0,2.4c-0.1,0-0.1,0-0.2,0c0-0.8,0-1.7,0-2.5C778,128.7,778.1,128.7,778.1,128.8z"/>
	<path fill="none" d="M778,133c1.2,0.6,0.7,1.1,0.3,1.7C777.6,134.2,777.7,133.7,778,133z"/>
	<path fill="none" d="M778,125.4c0.9,0.6,1,1.1,0.2,1.6C777.6,126.7,777.7,126.2,778,125.4z"/>
	<path fill="none" d="M734.4,135.9c1.1,1,0.4,2.2,0.5,3.3C734.2,138.1,734.5,137,734.4,135.9L734.4,135.9z"/>
	<path fill="none" d="M734.1,141.1c0.7,0.7,0.5,1.2,0.2,1.9C733.6,142.3,733.9,141.8,734.1,141.1z"/>
	<path fill="none" d="M734.5,135.8c-0.8-0.6-0.8-1.3-0.5-2.2c1,0.7,0.5,1.5,0.4,2.3L734.5,135.8z"/>
</g>
</svg>
