<?xml version="1.0" encoding="utf-8"?>
<!-- Generator: Adobe Illustrator 19.1.0, SVG Export Plug-In . SVG Version: 6.00 Build 0)  -->
<svg version="1.2" baseProfile="tiny" id="Layer_2" xmlns="http://www.w3.org/2000/svg" xmlns:xlink="http://www.w3.org/1999/xlink"
	 x="0px" y="0px" width="900px" height="600px" viewBox="144 97 900 600" xml:space="preserve">
<g>
	<path d="M431.9,362.1c-1.9,0.6-3.4,1.5-4.6,3.4c-0.8,1.4-2,2.9-3.9,3.3c-1.7-1-0.7-2.1,0.5-3.5c-9.4,2-18.4,1.9-27.4,3.2
		c-1.6,1.6-0.9,4-1.4,6.5c-1.2-2.4-0.5-4.4-0.5-6.7c-11.2-1.2-21.7-4.7-29.8-12.5c-0.6-0.9-0.4-1.4-0.2-1.9c0.2-0.5,0.2-1,0.4-1.7
		c-3.1,0.4-1.8,3.5-3.5,5.2c-0.4-2.9-0.9-5.4,1.5-7.2c0.4-0.3,1-0.7,0.9-1.3c-0.3-3.1,1.7-5.9,0.8-9.1c-0.3-1.2-0.5-2.5,0.1-3.6
		c1.2-2,1-4,0.1-5.7c0.2-1.7,1.5-2.4,2.2-3.8c-2.2-3.4-1.3-7.3-1.4-11.1c-0.1-1.8-0.4-3.4-1.3-5.1c-1.6-3.3-2.7-6.7-3.3-10.4
		c-0.3-2.1-1-4.1-1.6-6.1c-0.9-3.6-1.6-7.3-2.5-10.8c-1.9-6.9-4.5-13.9-10-19.5c-0.7,2-2.1,3.2-3.7,4.2c-10,6.2-20.7,10.6-32.4,11.9
		c-6.1,0.7-12.2,2.1-18.3,0.5c-1.6-0.4-3.4,0-4.6,1.3c-7.8,8.4-18,11.2-28.9,12.6c-2.3,0.3-4.6,0.7-7,1c-0.3,0.8-0.5,1.6-0.7,2.2
		c-1.1,1.2-2.6,0.4-3.8,1.7c-0.9,2.6-2,5.7-4,8c-2.1,2.4-6,1.8-8.6,3.5c-1.3,0-2-0.7-2.9-1c-3.7,2-12.7,2.7-17,1.4
		c-1,0.7-2,1.4-2.9,2.5c-2.1,2.9-6.5,3.5-9.4,1.4c-1.8-1.3-2.8-3.1-1.9-5.2c1.9-4.4,2.2-9.2,2.9-13.9c0.5-3.6,1.9-6.2,5.2-7.8
		c1.7-0.8,2.9-2.3,5.1-3.1c-3.8-2.4-7.6-3.9-11.3-5.5c-0.2-0.1-0.5-0.2-0.6-0.1c-4.6,1.6-8.3-1.4-12.3-2.6c-8-2.5-16.1-4.8-24.2-7.2
		c-2.3-0.7-4.7-1.4-7-2.1c0-1.8,0-3.5,0-5.3c11.6,3.4,23.1,6.8,34.7,10.3c0.9,0.3,1.7,0.3,2.6,0.3c2.3-0.2,4.5-0.6,6.7,0.9
		c1.3,0.9,3.1,0.4,4.6,0.2c5-0.6,9.1,1.1,12.3,4.8c1.9,0.1,3.1-1.4,4.7-1.8c2,0.4,2,2.4,3.1,3.8c2.4-0.4,4.6-1.3,6.8-2.3
		c1.8-0.8,3.7-1.6,5.4-1.1c2.2,0.6,3.6-0.4,5.1-1.4c3.5-2.4,6.6-5.2,9.8-8c5.3-4.8,11.1-8.4,18.4-9.1c1.6-0.2,2.9-0.8,4.1-1.9
		c2.7-2.5,5.8-3.5,9.4-2.8c1.2,0.2,2.4,0.2,3.8,0.2c1.5-2.1,3.9-3.1,6.3-3.9c4-1.4,7.9-2.9,11.8-4.4c2.3-0.9,4.7-1.6,7.1-1.6
		c3,0,5.3-1.2,7.2-3.4c3.1-3.6,7.1-6.3,10.4-9.8c1.9-2,4.6-3.1,7.3-3.7c5.4-1.1,10.9-1.9,16.5-1.1c1.5,0.2,2.5-0.2,3.5-1.2
		c2.8-3,6.3-4.8,10-6.4c3.3-1.4,6.5-3.1,10.2-3.5c1.4-0.2,2.6-1.1,3.8-2c1.8-1.5,3.6-2.9,5.7-4.1c-0.6-3.8-0.2-7.6-2-11.1
		c-0.5-1.1-1-2.4-1.8-3.1c-4.1-3.7-4.5-9.2-6.9-13c0.3-2,1.6-2.6,2.1-3.9c-2-5.8-0.6-11.6,0.5-17.5c0.6-2.9,0.7-6,1.7-8.9
		c1-2.9,2.6-5.1,5.9-5.8c2.2-0.5,3.6-2.3,4.4-4.7c2.9,2.3,5,0,7-1c1.3-0.7,2.2-1.2,3.3-0.4c1.4-0.7,2.1-2.5,3.8-1.6
		c0.6,1.2-1.3,1.4-0.9,2.5c9.1-1.9,20.6,7.2,19.6,15.8c2.8,0.9,1.8,4.6,4.4,5.6c-0.2,1.5-0.6,2.8-1.3,4c0.9,0.9,1.2,2.1,1.1,3.6
		c-0.2,1.1-1.5,1.4-2.1,2.6c0.4,1,1.6,0.1,2.4,0.9c0.1,1.4-0.2,2.9,1.5,4.4c1.6,1.4,0.9,3.8,0.2,5.9c-1,2.9-3.7,5-3.5,8.4
		c0,0.8-0.9,1.5-1.5,1.6c-2.6,0.3-2.5,2-2.4,3.9c0.3,3.6,0.5,7.3,0.9,10.9c0.3,2.8,1.6,5,4.3,6.1c4.6-1.6,9.4,0.2,12.6,4
		c2.1,2.5,4.6,4.7,7.2,6.7c1.6,1.2,3.7,1.8,5.9,1.2c6.1-1.7,11.8-0.6,17.1,2.8c5.1,3.3,10.1,6.8,15.4,9.7c5.3,2.9,10.9,5.2,17.2,5.5
		c4.7,0.2,9.2,1.1,13.5,2.9c1.3,0.5,2.4,0.3,3.5-0.1c4.3-1.5,8.1-0.2,11.6,2.2c1.7,1.2,3.5,1.6,5.3,1.2c4.1-1,7.5,0.5,10.6,2.6
		c3.2,2.2,6.5,4.1,10,5.9c2,1,4.2,2,4.3,4.8c0.9,0.3,1.8,0.7,2.9,1.1c1.4-1.6,2.6-3.8,5.3-2.8c0.5-3.8,1.4-4.7,5-4.6
		c1.8,0,3.5,0,5.3,0c0.1,0,0.2,0.1,0.5,0.3c-2,2.2-4.8,0.4-7.1,1.5c2.7,1.1,5.7-0.6,8.6,1.4c-1.8,1.2-3.7,1.6-4.6,3.6
		c3.2-2.3,6.5-3.3,9.6-1.3c1.9-1.5,1.5-3.3,2.5-4.7c1.2-0.1,2.7,0.3,4.4-1c-2.2-0.7-3.9,0.1-5.7,0.2c-0.8,1.2-0.2,3.2-2,3.9
		c-1.1,0.1-0.7-0.9-1.2-1.4c-0.7,0.1-1.4,0.3-2.2,0.4c-0.5-1.2-0.9-2.4,0.2-3.4c0.8-0.7,1.7-1.2,2.7-1.1c4.4,0.1,8.3-1.7,12.4-3.1
		c14.5-5.2,29-10.1,43.6-15.1c13-4.5,25.9-9,38.9-13.4c3.9-1.4,5.4-1.2,6,0.8c0.6,1.8-0.4,2.8-4.5,4.2
		c-26.8,9.3-53.5,18.5-80.3,27.8c-1.7,0.6-3.3,1.1-4.7,2.3c-1.8,1.6-4.3,0.6-6.5,1.2c-0.4,0.9-0.9,1.7-1.3,2.6
		c-0.8,1.7-2.4,2.5-3.8,1.6c-2.5-1.5-4.4-0.7-6.3,0.8c-0.9,0.7-2.5,0.5-3,2.2c2.2,2,4.9,3.1,7.6,4.3c2.5,1.1,4.1,2.5,4.6,5.5
		c0.5,3,1.9,5.9,2.8,8.8c0.9,2.9,1.5,5.8,1.6,8.8c-1.8,0.6-3.2,0.1-3.5-1.8c-0.7-4.8-3-9.1-3.5-13.3c1.5,3,0.4,7.2,2.8,10.6
		c0.7,1.1-0.1,2.3-1.1,3.1c-0.7,0.5-1.8,0.4-2.2,1.7c2.6,2.5,5,0.2,7.4-0.4c1.4,4.3,0.1,6.1-4.2,5.8c-2.4-0.2-4.8-0.5-7.1-1.2
		c-1.5,0.3-2.5,2.5-4.7,0.8c4.4-2,4.8-5.6,4.4-9.6c-0.2-2.5-0.3-5-1-7.5c-0.6-2-1.6-3.3-3.5-3.9l0.1,0.1c-0.1-0.6-0.5-1.2-1-1.2
		c-3.5,0-7.1-2-10.5,0.4c-4.1-1.5-5.3-1.3-11.2,1.7c2.7,1.1,3,3.7,4,5.9c1,2.2,1.7,4.5,0.6,6.8c-1.3,0.7-1.1-1.5-2.3-0.7
		c1.6,2.9,4.6,3.7,8.4,2.1c0.3-3.3-1.3-6.9,0.7-10.4c1.9,2,0.5,4.1,0.9,5.9c0.4,1.8,0.5,3.7,0.7,5.5c-1.3,1.4-2.8,2.3-3.5,4
		c-0.5,1.3-1.6,1.6-3,1.2c-1.3-0.4-2.5-0.7-3.8-1c-5.9-1.4-8.3-4.3-8.8-10.5c-2.1-1.2-4.3-2.5-6.4-3.7c-0.8-2,0.4-3.6,0.5-5.6
		c-6.9,0-14,1.3-19.9-3.6c-2.5-2.1-4.9-4.3-6.2-7.4c4.5,2,7.1,6.9,12,8.1c4.9,1.1,9.9,0.9,15,0.3c0.8-0.5,0.9-1.6,1.2-2.6
		c-1.7-0.6-3.4-0.7-5.6-0.8c2.1-2,4.3-1.2,6.5-1.7c1.3-2.5,2.6-5.2,4-7.8c2-3.6,2.4-3.7,6.2-2.2c0.9,0.3,1.7,1.1,3.5,0.3
		c-6.9-2.8-11.9-8.1-18.9-10.2c-0.2,1.1,1.3,1,0.9,2c-2.4-0.3-5.3,0-7-1.2c-2.2-1.6-4.8-2.1-7-3.4c-1.5-0.8-3.2-1.2-4.8-0.7
		c-3.3,1-6.5,0.5-9.7-0.5c-5.1-1.6-10.5-1.7-15.7-2.7c-1.9-0.4-3.6-1.1-5.3-1.8c-8.9-4-17.1-9.2-25.2-14.5c-3.1-2-6.2-2.7-9.9-1.4
		c2.5,1.6,5.6,2,7.8,4.1c-1,0.9-1.5-0.1-2.2-0.3c-3-0.7-5.6-2.6-8.9-2.3c-1.3,0.1-2.8-0.3-3.7-1.2c-3.2-3.1-7.9-3.3-11-6.5
		c-0.3-0.3-0.7-0.4-1.4-0.8c-0.1,2.6,0,4.9,0.5,7.3c3.1,0,6.1-2.1,9.7,0c-2.7,1.3-5.3,0.9-7.7,1.6c0.8,1.9,3,2.6,4,4.7
		c-2.3-0.4-3.8-1.9-5.7-3.1c-0.3,5.4-0.6,10.4,0.3,15.6c1,5.3,2.5,10.5,3.5,15.8c0.8,4.1,3,7.6,5.8,10.6c2.1,2.4,4.3,4.7,6.4,7.1
		c0.3-0.2,0.6-0.3,0.7-0.4c0.5-4.6,2.6-8.6,5.3-12.3c2.3-3.1,3.4-6.9,5.9-9.9c2.9-3.4,6.9-4.9,10.6-6.9c-1.8,3.9-6.3,4.8-9.2,8.1
		c7.4,1.9,14.3,4.1,21.5,5.1c1.2,0.2,2.8-0.3,3.2,1.6l0.1-0.1c-8.5,0.6-16.6-1.5-24.4-4.6c7.9,5.1,16.2,9.1,25.5,10.3
		c4.6,0.6,9.2-0.5,13.8-1.5c2.6-0.6,5.3-1.4,8.1-0.4c-8,2.9-16.2,4.9-24.8,4.2c-8.9-0.7-16.4-5-24-10.3c-2,4.4-5,8.1-8.3,11.4
		c-0.6,0.6-0.4,1.4-0.4,2.2c0.1,5-0.8,9.9-2.2,14.7c-1.7,5.9-3.7,11.8-5.2,17.8c-0.4,1.6-0.6,3.5-0.4,5.1c0.3,2.5-0.4,4.3-2.7,4.6
		c-4.8,0.6-9.5,1.9-14.2,2.8c-0.4,0.1-0.9,0.3-1.5-0.3c5.5-1.7,11-3.1,16.1-5.9c-4-0.7-7.8,0.9-11.8,0.6c2.5-1.3,5.1-1.7,7.8-2.1
		c2.5-0.3,3.9-1.7,4.8-3.9c0.9-2.5,1.8-5.1,0.8-7.9c-0.3-0.8,0.3-1.5,0.4-2.2c0.9-5.6,3.8-10.6,4.6-16.3c-2.4-2.5-4.8-5.1-7.2-7.7
		c-4.9-5.3-7.6-11.4-8.6-18.6c-0.8-5.8-2.4-11.4-2.9-17.3c-0.5-6.3-0.1-12.6-0.3-18.9c0-1.4-0.1-2.9,1.2-4c-1.4-1.7-3.4-1.5-5.6-2.8
		c1.4,6.3-0.2,11.9-0.6,17.6c-0.2,3.9-0.8,7.7-0.9,11.6c-0.1,4.4-2.2,8.3-4.2,12.1c-0.6,1.2-1.3,2.2-1,3.7c0.3,1.7-1.2,2.8-2.4,3.7
		c-3.4,2.5-7.2,3.6-11.8,3.6c0.9-1.2,2.2-0.8,2.6-1.8c-0.9-0.6-1.7-0.3-2.6-0.3c-11.7,0-20-5.4-25-15.9c-4-8.4-5.9-17.6-8.2-26.5
		c-0.4-1.5,0.7-3.1-0.6-4.6c-1-0.4-2-0.3-3,0.3c0.6,3.7,0.1,7.3,0.5,11c0.6,5.1,1.1,10.1,2.5,15c2.5,8.8,1.9,17.2-0.9,25.7
		c-1.2,3.6-2.8,7-4.4,10.4c-2.4,5.2-5.9,9.3-11.6,10.9c1.4,7.5,3.6,14.7,5.9,21.8c0.5,1.5,0.7,3,0.1,4.5c-1.1,2.8-0.6,5.4,1.6,7.6
		c5.1-1,10.1,0.1,15.2,0.2c0,0.3,0,0.7,0,1c-5.5,0.4-11,0.7-17,1.1c0.9,6.1-0.1,11.7-0.8,18.2c0.4,0.8,1.7,2.1,1.4,4.4
		c-1.9,1-1.4,2.8-1,4.8c9.1,6.5,19.3,10.1,30.5,10.3c3.6,0.1,7.3,0.2,10.9,0c6.6-0.4,13.2-1.4,19.2-4.3c6-2.9,11.7-6.3,16.4-11.1
		c3.4-3.4,3.1-4.1,1-8.4c-1.1-2.2-1.7-5.1-0.1-7.6c1-1.6,1.4-3.1,1.1-5c-0.5-2.8,0.6-5.6,3.5-9.2c-1.3,4.1-1.6,7.5-0.5,11
		c0.7,2.1-1.7,3.4-2.7,5.2c0.5,2.3,1.1,4.6,1.6,6.9c1.3,0.7,1.7-1,2.9-0.7c2.9,2,3.1,5.2,2.5,8.2c-1,4.6,0.5,8,3.9,10.8
		c2.2,1.9,2.5,4.4,2.1,6.9c-0.7,4.3-0.4,8.6-1.4,12.8c-0.5,2.1-0.1,4,1.1,6c2,3.1,2.7,6.5-0.1,9.8c-0.9,1.1-1.9,2.6-0.5,3.9
		c3.4,3.3,3.2,6.5,0.3,9.9c2.8,5.7,1,11.6,1.3,17.4c0.3,5.2-1.9,10.4-0.6,15.7c0.1,0.4-0.2,0.8-0.4,1.4c-2-0.2-3.9,0.5-6.1-0.5
		c-0.1,4.9-2.1,8.7-4,12.7c-1.7,3.6-2.3,7.6-3.1,11.5c-0.8,3.9,0.3,7.4,0.7,11c0.4,4,0.2,7.9-1.3,11.7c-1.5-0.7-1.2-1.9-1-2.9
		c0.9-4,0.8-8,0-11.9c-1.7-7.8,1-14.8,3.1-21.9c3.2-2.4,3.4-6.1,3.8-9.7c-2.1-1.3-4.5-0.9-6.8-1.2c-6.7-0.7-13.5-1.2-20.1-2.1
		c-3.9-0.5-7.4,0.6-11,2c-1,4.2-1,8.6-1.6,13c-0.1,0.5,0.1,1.2-0.1,1.6c-1.8,4.1-0.5,8.2-0.1,12.4c0.3,2.3,0.9,4.5,2.2,6.5
		c1.4,2.2,1.9,4.7,2.1,7.5c0.2,4.4,0.9,8.8,2.8,12.9c1.6,3.3,2.2,6.7,1.7,10.3c-0.9,7.5-2,14.9-1.8,22.4c0.3,10.7,2.4,21.3,4.6,31.8
		c1.1,5.4,2.2,10.7,1.9,16.4c-0.2,4,1,8,1,12.1c0,1.7,0.5,3.5-0.5,5.3c-1.1-0.9-0.2-2.2-0.9-3c-1.5,2.6-0.3,5.8-1.5,8.5
		c-1.2-0.4-1-1.3-1.1-2c0-1-0.2-2.1,0.1-3c2.4-7,1.3-14.1,1.4-21.3c0-2-0.7-3.9-1.1-5.9c-1.3-6.2-3.1-12.3-3.8-18.5
		c-1.2-9.8-3.4-19.6-2.4-29.7c0.3-3.1,0.8-6.1,1.4-9.2c1-5.1,1.2-10.1-0.9-15c-1.5-3.6-2.2-7.4-2.7-11.3c-0.1-0.8-0.3-1.5-0.6-2.2
		c-2.6-4.8-4-10-4.7-15.6c-3.4,1.7-6.6,3.4-10.4,4c-0.4,4-1,7.8-1,11.7c0,4.2-1.4,7.8-3.6,11.2c-0.8,1.3-1.4,2.6-1.5,4.3
		c-0.1,3.3-0.6,6.6-3.4,9c0.8,3.3,1.8,6.5,2.1,9.8c0.4,5.1-1.3,9.8-2.7,14.6c-1.4,4.9-3.2,9.7-4.4,14.6c-2.4,10-5.4,20.2-1.4,30.8
		c-1.8,1-1.2,3.3-2.8,4.7c-1.7-11.2,0-22.5,0-33.7c0-11.5,2-22.8,4-34.3c1.4,1,1.1,2.1,0.9,3.1c-0.4,3.2-0.6,6.4-1.3,9.5
		c-1.3,6.2-1.7,12.5-2.5,18.7c-0.1,0.9-0.5,1.9,0.2,2.9c2.3-5.8,3.1-11.9,5.2-17.7c0.8-2.2,1.5-4.4,2-6.7c0.9-4.2,0.2-8.4-0.8-12.5
		c-0.5-2.2-1.3-4.5,0.8-6.4c0.1-0.1,0.1-0.2,0.1-0.3c0.8-6.1,3.7-11.5,5.7-17.2c0.3-0.7,0.3-1.5,0.3-2.3c0.1-3.4,0-6.9,1.6-10.1
		c0.4-0.8,0.4-1.9-0.1-3.4c-9.9,2.5-20,2-30.1,0.7c-0.8,0.7-0.2,1.5,0.1,2.1c1.5,3.6,1.1,7.3,0.6,11.1c-0.6,5-2,9.8-4.4,14.2
		c-3.2,5.7-3.4,11.9-3.2,18.1c0.2,5.6,0.4,11.3,0.4,16.9c0,10.9,0.8,21.7,4.4,32.2c1.2,3.4,2.1,7,2.7,10.6c0.3,1.7,0.9,4.1-2,4.7
		l0.1,0.1c-0.6-9.2-4.3-17.8-5.7-26.9c-1.1-7.2-2.2-14.4-1.7-21.8c0.2-4-0.2-8-0.5-11.9c-0.7-9.1,1.6-17.6,4.9-25.8
		c2.9-7.2,3.4-14.5,2.2-22c-0.4-2.9-2.3-4.2-6.8-4.4c1.5-4.4-0.8-8.7-0.2-12.9c0.9-7.4,0.2-14.9,1.8-22.1c1.9-8.2,0.7-16.5,1.7-24.7
		c0.5-4.1-0.6-8.1-1.1-12.2s-0.5-8.3-1.6-12.2c-2.4-8-0.5-15.7,0.5-23.5c0.1-1.1,0.1-2.5,1.5-3c1,0.4,0.7,1.2,0.6,1.8
		c-0.2,1.9-0.4,3.8-0.8,5.6c-2.1,8.6,0.2,17,1.6,25.2c2.3,12.9,2.2,25.8,0.4,38.7c-1.1,7.7-0.2,15.5-1.8,23.1
		c-0.9,4.5-0.3,9,0.2,13.4c3.3,2,6.6,3.5,10.3,3.9c4.1,0.5,8.1,0.9,12.2,1.3c3.1,0.3,5.9-0.7,8.8-1.4c4.6-1,9.4-1.7,13.8-3.6
		c2.3-1,3.8-2.5,4.1-5.1c0.4-3.9,1-7.7,1-11.6c0-2.7-2.1-4.8-3.6-7.2c-1.1,4.6-2.3,9.3-3.4,13.9c-0.2,0-0.4-0.1-0.6-0.1
		c1.8-8.9,3.9-17.7,6.7-26.4c-0.7,3-1.4,6.1-2.1,9.1c1.9-3.1,2-6.8,3.7-9.8c2.1,0.4,0.3,3,2.3,3l-0.1-0.1c0,2.7,0.2,5.5-1.1,8.9
		c9.7-5.1,19-1.7,28.2-1.2c5.6,0.3,11.2,0.8,16.4,2.4c1.2-8.6,0.9-17.2,1.7-25.7c0.1-1.5,0.3-3.1-0.4-4.6c-0.5-1-0.3-1.9,0.2-2.8
		c1.5-2.9,1.4-5.5-1.1-7.8c-0.7-0.6-1.1-1.6-1.7-2.5c-2.3,4.5-4.6,8.9-6.9,13.3c-0.3-0.2-0.7-0.4-1-0.6c4.2-6.1,4.3-14.3,11.1-20
		c0.5-1.2-0.3-3.1-1.4-4.5c-2.6-3.2-1.3-6.4-0.4-9.7c0.1-0.2,0.2-0.4,0.4-0.5c1.8-2.8-0.3-5.6,0.1-8.4c0.4-2.9,0.3-5.2-2.3-7.7
		c-3.3-3.2-4.8-7.8-3.7-12.7c0.3-1.4-0.3-2.7-0.5-4.2c-3.2,7.5-9.8,11.1-15.9,15.3C433.8,360.8,432.6,361.1,431.9,362.1L431.9,362.1
		z"/>
	<path d="M857.9,599.2c-1.6-0.1-1.5-1.4-1.5-2.5c-0.1-3.3,0.8-6.4,1.5-9.5c0.4-1.7,0.5-3.4,0.5-5.2c-0.3-10.8-3.2-21.1-4.9-31.6
		c-1.8-11.2-4.1-22.4-2.7-33.9c0.5-4.2,1.9-8.2,1.9-12.4c0.1-2.9-0.1-5.7-1.3-8.4c-0.4-1-0.8-2.1-1-3.1c-1.3-7-3.6-13.6-6.1-20.2
		c-0.8-2-0.8-4.3-1.1-6.8c-3.6,1.7-6.8,3.4-10.5,4c-0.3,3.9-0.9,7.6-0.9,11.3c0,3.9-1.1,7.5-3.1,10.7c-1.3,2-2.1,4.1-2.1,6.5
		c-0.1,3-0.9,5.7-3.3,7.7c0.6,2.3,1.4,4.5,1.7,6.8c0.6,4.5,0.2,9-1,13.5c-2.2,8.4-5.6,16.5-7.2,25.2c-1.4,8.1-3.2,16.1,0.1,24.4
		c-1.7,1.2-1.9,3-1.9,5.1c3,0.7,2.8,2.9,1.9,5.1c-0.6,1.5-0.5,2.8,0.1,4.2c0.8,1.1,2.5,0.9,3.3,2.7c0.3,1.2,0.4,3-0.5,4.6
		c-1.3,2.3-0.6,4.3,0.7,6.2c1.4,2,3.1,3.8,2.5,6.6c0,0.2,0.1,0.5,0.2,0.6c4,3.7,3.2,9,4.8,13.6c0.8,2.3-1.1,4.8-4.6,5.7
		c-9.3,2.6-18.8,2.5-28.3,0.9c-1.3-0.2-2.5-0.8-3.7-1.5c-1.4-0.8-1.4-2.2-1.1-3.5c0.2-1.2,1-1.7,2.1-1.3l-0.1-0.1
		c-1,2.1-0.3,3.5,1.9,3.9c9.1,1.4,18.2,2,27.3-0.4c1.6-0.4,3.1-1.1,4.2-2.3c-0.5-2.7-2.4-5.1-1.4-8c0.1-0.2-0.1-0.7-0.3-0.9
		c-2.8-3.5-3.7-7.9-5.7-11.8c-1.1-2.2-2.4-4.3-1.1-7c-3.2,1.7-4.3,6.1-2.8,10.3c-2.2,2.7-3.9,3-7.4,1.4c0.1-1.7,1.9-0.7,2.6-1.8
		c-1.2-0.9-2.8-0.1-3.9-0.9c-0.2-0.8,0.9-0.9,1-1.6c-2-0.4-4-0.8-5.8-1.2c-0.5-1.1,0.5-1,0.6-1.5c-1-0.7-2.4,0.2-3.6-0.8
		c1.4-2.4,4.4-1.4,6.1-3c-1.7-0.7-3.5,0-5-0.9c-0.8-0.9,2.2-2.1-0.3-2.6c0.6-1.2,1.9-0.6,2.4-1.4c-0.3-1.2-2-0.1-2.3-1.8
		c5.6-2.6,11-0.4,16.5,1.1c0.6,0.4,0,1.2,0.5,1.7c0.6,0,1.3,0.4,1.8-0.9c-1.6-1.8-4.1-2.5-6.3-4.1c-0.3-1.9,1.4-4,0.5-6.5
		c-3.9-0.4-7.9-0.7-11.9-1.1c4.1-3.8,9-0.2,13.1-1.6c0.6-23,0.3-45.9,5-68.7c1.5,1,1,2.5,0.8,3.6c-0.4,3.7-0.8,7.5-1.6,11.2
		c-1.3,5.5-1.2,11.1-2.2,16.7c-0.2,1.1,0,2.2,0.4,3.4c1.8-6.6,3.4-13.2,5.5-19.7c1.4-4.2,2.4-8.3,1.8-12.7c-0.4-3.2-1.3-6.3-1.9-9.5
		c1-1.1,2-2.1,2.2-3.6c0.5-4.7,2.4-8.9,4.4-13.1c1.1-2.3,1.8-4.8,1.4-7.4c-0.4-3.4,1.4-6.4,1.7-9.7c0-0.4,0.4-0.8-0.2-1.4
		c-4.9,0.8-10.1,1.2-13.8,2c-6.2-1.5-11.5-0.1-16.3-1.6c-0.2,0.5-0.4,0.7-0.4,0.9c2,5.2,1.1,10.3,0.4,15.7c-0.5,3.7-1.8,6.9-3.5,10
		c-3,5.6-3.9,11.5-3.6,17.6c0.3,7.2,0.7,14.4,0.6,21.6c-0.1,10.5,1.5,20.7,4.8,30.7c0.9,2.8,1.1,5.8,2.2,8.6
		c0.7,1.7-0.2,3.3-0.9,5.3c-1.7-1.8-1.8-3.7-1.9-5.3c-0.3-4.4-1.8-8.4-2.8-12.6c-2.5-10-4.4-20.1-3.8-30.5c0.2-4.1-0.1-8.2-0.5-12.3
		c-0.9-9.3,1.6-18,5-26.5c2.8-6.9,3.1-13.9,2.2-21.1c-0.5-3.7-2.3-5-6-4.8c-0.1-0.2-0.4-0.3-0.4-0.5c0.9-6-1.5-11.9-0.2-18
		c1.2-5.5-0.2-11.5,1.2-16.8c2.1-7.9,0.9-15.8,1.7-23.7c0.6-6-0.8-11.9-1.6-17.8c-0.5-3.5-0.1-7.3-2.2-10.5
		c-0.2-0.3-0.1-0.9-0.1-1.3c0.5-6.6,0.3-13.3,1.9-19.8c0.2-0.9,0.2-2,1.9-2.6c0.2,5.7-1.6,10.9-2,16.5c0.7,0.9,1.4,1.9,1.4,3.3
		c-0.2,6.5,1.4,12.7,2.4,19.1c1.6,9.8,0.6,19.6,0,29.4c-0.3,5.7-1.6,11.4-1.4,17.2c0.1,2.1,0,4.2-0.4,6.3c-1.2,5.4-1,10.7-0.2,16.2
		c4.5,3.1,9.7,3.8,14.9,4.6c10.3,1.6,19.9-1.1,29.5-4.1c3.5-1.1,4.8-3.5,5-6.9c0.2-3.1,0.5-6.2,0.7-9.3c0.2-3.2-2.1-5.4-3.4-8.8
		c-1.4,5.7-2.6,10.7-3.8,15.6c-0.2-0.1-0.4-0.1-0.6-0.2c1.9-9.3,4-18.6,6.6-27.8c0.3,2.2-1.1,4.2-0.7,6.5c-0.6,0.5-0.2,1.2-0.3,1.6
		c0-0.4-0.2-1.1,0.3-1.7c1.9-1.8,0.9-4.9,3.3-6.8c2,3.7,2,7.3,1,11c0.4,0.2,0.6,0.4,0.7,0.3c6.3-3.2,12.9-2.1,19.5-1.3
		c8.1,0.9,16.3,1.1,24.2,3.2c0.3-10.5,1.8-21,1-32.6c2.8-3.7,0.5-7.3-2.7-10.7c-2.2,4.4-4.5,8.7-7,13.6c-0.1-4.9,7-18.7,10.2-20.7
		c0.4-1.8-0.3-3.6-1.4-4.9c-2.8-3.4-1.3-6.7-0.2-10c0.2-0.7,1.1-1.1,1-2c-0.6-3.6-0.6-7.3-0.5-10.9c0-1.1-0.7-1.8-1.5-2.5
		c-4.1-3.8-5.6-8.4-4.6-14c0.2-1.3,0-2.6-1-4c-1.2,4.4-4,7.5-7.5,9.6c-9.3,5.6-15.6,14.4-24,20.9c-2.9,2.2-5.6,4.6-7.6,7.8
		c-1.4,2.3-3.7,2.3-6,0.4c-1.3-1.1-2.2-2.8-4.3-3.7c0.4,1.9,0.8,3.6,1.3,5.7c-2.2-1.7-2-4-2.8-5.8c-1.9-1.2-5.6-0.1-5.4-4.2
		c0-0.2-0.1-0.4-0.1-0.6c0.2,0.1,0.3,0.2,0.5,0.2c1.5,0.2,2.1,1.9,3.7,2.3c1.9-2.5,3.7-5.1,5.7-7.6c1.1-1.4-0.2-3.4,0.3-5.4
		c1.5,0.6,1.2,2.4,2.2,3.2c0.8-0.1,0.9-1.2,2.1-1.2c0.6,1,1.9,1.4,3.1,2c4.2-2.7,6.5-7.1,9.9-10.4c3.3-3.2,6.8-6.3,11-8.3
		c0.2-3.7-5.1-10.2-11.1-13.6c-4.7,1.7-7.5,5.5-10.4,9c-3.3,3.9-7,5.4-11.9,4c-2.2-0.6-4.3-0.3-6.5,0.5c-3,1.1-6.3,0.5-9.6,1.8
		c0.5-2.4,2.4-2,3.1-3.1c-1-1.7-2-3.5-1.6-5.7c1.6-0.2,1.4,1.4,2.1,1.9c0.9,0.4,1.7-0.5,2.6-0.2c0.3,1.2-1.5,1.3-1.4,1.9
		c0.1,1,0.5,1,0.8,1c2.4-0.6,4.6-1.6,5.3-4.3c0.2-0.8,0.7-1.4,1.4-1.8c5.4-3.2,10.3-7.3,15.8-10.4c2.7-1.5,4.7-1.2,7,0.3
		c6,3.7,11.1,8.4,15.6,13.8c1.3,1.6,1.6,3.7,0.8,5.7c-1.9,4.6-5,8.3-8.6,11.7c-3,2.9-6,5.9-8.9,8.9c-1.5,1.6-3.5,2.3-4.9,3.8
		c-2.3-1-4.7-1.5-4-4.7c-3.5,0.1-4.3,0.9-6.7,6.2c2.4,1.8,4.7,3.9,7.1,6.1c0.3-2,0.3-3.9,2.1-5.4c1.5,0.5,2.7-0.2,4-1.3
		c7.3-6,14.2-12.2,20.6-19.2c4.2-4.6,4.5-9.8,0.6-14.5c-0.4-0.4-0.7-0.8-1.1-1.3c-2.3-3.2-2-4.5,1.3-6.6c0.6-0.4,1.4-0.6,1.6-1.6
		c-1.3-1.5-2-0.3-2.7,0.7c-0.7,1.1-1.9,1.5-2.8,2.4c-2-0.6-3.1-2.1-4-2.9c-0.6-2.1,1.4-2,1.5-3.2c-1.5-0.3-1.5-0.3-4.4,2.8
		c-2.4-0.7-4.4-2.3-6.3-3.9c-2.9-2.5-5.7-2.8-9.1-0.9c-5.8,3.2-11.8,6-17,10.3c-2.3,1.9-4.8,2.9-7.9,2.8c-2.3-0.1-4.6,0.7-6.9,0.9
		c-2.5,0.2-3.7,1.8-4.6,3.8c-0.9,1.9,0.4,3.4,1.6,4.7c1,1.2,2.3,2,3.8,3c-0.5,1.1-0.1,2.1,0.8,3.1c-4.1,0.3-7.9-4.1-9-10.2
		c-0.9-0.3-1.8-0.4-2.8-0.2c-0.2,3.6-0.2,3.6-1.5,5.8c0.2,1,0.5,2.2,0.7,3.4c3.7,2.8,7.6,5,12.1,6.5c1.5-3.1,0.1-7,2.8-9.8
		c0.4,5.2-0.8,10.3-0.8,15.6c-3.2-4.4-8.8-4.8-12.5-8.2c-1.4-1.3-3.1-2.1-4.1-3.5c-0.6-1.2,0.8-2,0.2-3c-0.6-0.5-1.5-0.6-3.1,5
		c-1-2.7-1-5,0.7-6.7c2-1.9,2.4-4,2.1-6.7c-8.3-3-16.6-6-24.9-9c-36.7-13.3-73.5-26.5-110.2-39.8c-1-0.4-2.1-0.7-3-1.3
		c-1.1-0.7-1.4-1.8-0.9-2.9c0.5-1.1,1.4-1.7,2.6-1.6c0.9,0.1,1.7,0.5,2.5,0.8c43.5,15.7,87,31.4,130.5,47c1,0.4,1.9,1,3.3,0.8
		c-0.7-2.8-2.2-5.1-3.6-7.4c-3.6-6.1-7.8-11.8-12.3-17.2c-6.9-8.3-10-17.8-10.1-28.5c0-1.3,0.4-2.6,0.5-3.9
		c0.3-3.8,0.3-7.4-1.1-11.1c-2.2-5.7-3.2-11.7-3.6-17.8c-0.4-6.6,3.1-11.5,8-15.2c3.7-2.8,8.2-4.3,13-4.3c1.5,0,3-0.4,4-1.4
		c2.2-1.9,4.8-3.1,7.4-4.4c2.2-1.1,4.3-2.3,5.7-4.7c2-3.4,5.6-4.2,8.9-2.7c2.9-1,5.4-3.1,8.4-4.5c-0.3-4.1-0.2-8.1-1.9-11.8
		c-0.4-0.8-0.7-1.7-1.2-2.3c-1.6-2.1-3.6-3.7-4.2-6.6c-0.6-2.6-2.6-4.6-3.1-7.9c0-0.8,1.2-1.7,2.2-2.9c-1.8-4.6-1.5-9.5-0.3-14.2
		c1.1-4.3,0.6-8.9,2.5-13c1.2-2.4,2.5-4.6,5.6-5.2c2.3-0.4,3.7-2.3,4.5-4.4c3.6,1.5,5.9-0.8,8.5-2.4c0.7-0.3,1.2,0.5,1.9,0.5
		c1.2-0.5,1.9-2.2,3.6-1.6c1.1,1.3-1.3,1.5-0.4,2.8c2.1-1.2,4.5,0.2,6.7-0.3c2.1,2.2,4.8,3.3,7.3,4.7c1.8,1,3.3,2.1,3.5,4.4
		c0.1,1.3,0.8,2.5,1.4,3.7c0.5,1,1,2,0,3.3c3.2,0.7,2.1,4.6,4.9,5.6c-1.1,2.6-1.3,5-0.2,6.9c-0.4,1.8-2,2.1-2.2,3.4
		c0.6,0.8,1.7-0.1,2.4,0.7c0.3,0.8-0.6,1.6-0.3,2.1c0.3,0.6,0.3,0.8,0.4,1c2.3,2.1,2.7,3.6,1.8,6.4c-1.1,3.2-3.8,5.7-3.9,9.3
		c0,0.5-0.8,1.3-1.3,1.4c-3,0.3-2.5,2.3-2.5,4.3c0.1,3.6,1.2,7.2,0.4,11c1.3,0.9,3,1.1,4.2,2.3c0.4,0.3,1.2,0.7,1.5,0.5
		c2.8-1.7,5.3,0.3,8,0.4c0.6,0,1.4,0.2,1.8,0.6c4,4.2,9.8,5.7,14.1,9.5c2.8,2.5,6.2,3.5,9.8,4.2c2.5,0.4,4.9,1.4,7.2,2.3
		c5.1,2,8.3,6,9.2,11.4c1,6.3,1.1,12.6-1.9,18.5c-1.2,2.3-0.9,4.7-0.4,7.1c1.1,5.7,2,11.5-0.1,17c-2.1,5.4-3.3,11.2-6.4,16.3
		c-1.1,1.8-1.7,3.8-2.8,5.6c-0.8,1.4-0.8,2.7,0,4.3c2.4-0.9,4.9-1.7,7.3-2.6c37.1-13.5,74.2-27,111.3-40.5c1.1-0.4,2.3-0.9,3.5-1.1
		c1.4-0.3,2.4,0.4,2.8,1.7c0.4,1.2-0.1,2.2-1.1,2.9c-0.7,0.5-1.6,0.7-2.4,1c-40.1,14.6-80.2,29.2-120.4,43.8c-2.7,1-4.5,2.5-5.8,5
		c-2.6,5.1-6.7,9-10.8,12.9c-1.4,1.3-2.7,2.6-3.7,4.4c3.1,1.5,2.6,4.6,3.2,7.1c3.9,0.5,5.4,1.5,5.3,3.7c-0.1,2.3-2,3.4-5.5,3.2
		c0.9,2.2,1.7,4.3,3.9,5.6c1.6,1,2.1,2.9,2,4.7c-0.3,4.1-0.6,8.1-1.1,12.2c-0.4,3.2-0.9,6.2,1.1,9.2c2,3,2.2,6.2-0.3,9.2
		c-0.6,0.8-1.2,1.6-1.1,3.1c3.3,3.1,4.7,6.8,0.6,10.9c2.1,2.7,2.1,5.7,1.8,8.5c-0.6,6.4,0.3,12.8-1.4,19.1c-0.6,2.2,1.1,4.3,0.1,6.7
		c-2,0-3.9,0-6.2,0c0.2,6.9-4.7,11.9-5.9,18.2c-0.9,4.6-1.9,9.1-0.8,13.9c1.1,4.7,1.1,9.5-0.9,14.7c-1.2-1.5-1-2.8-0.7-4
		c1-4.3,0.3-8.6-0.4-12.9c-1.3-7.3,1.6-13.8,3.5-20.5c2.7-1.5,2.9-4.4,3.4-7c0.2-0.8,0.3-1.7-0.2-2.9c-6.8-0.7-13.7-1.4-20.6-2.1
		c-0.9-0.1-1.8-0.1-2.6-0.2c-4.9-0.7-9.7-1-14.5,2.1c-0.4,3.6-0.8,7.7-1.2,11.7c-0.1,1,0,2-0.3,3c-1.8,5.1-0.1,10,0.7,15
		c0.2,1.1,0.9,2,1.4,3c1.3,2.4,2.1,4.9,2.3,7.8c0.2,4.6,0.9,9.3,3,13.5c1.4,2.9,2,5.9,1.6,9c-0.9,6.9-1.8,13.8-2,20.7
		c-0.1,3.5,0,7.1,0.5,10.6c1.7,9.8,2.9,19.7,5.3,29.4c0.8,3.2,1.5,6.5,0.6,9.8c-0.2,0.8,0.1,1.8,0.3,2.6c1,4.6,0.7,9.2,0.9,13.8
		c0,0.5,0.1,1.1-0.6,1.5c-1.1-0.8,0.3-2.1-0.8-3.1C857.7,593.1,858.6,596.4,857.9,599.2L857.9,599.2z"/>
	<path d="M444.7,613.1c-1.9,0.9-4,1-5.9,0.9c-1.3,1.1,0.4,2-0.1,2.7c-0.7,1.6-3.9,0.8-2.4,3.9c-5.4-0.6-10.2,1.9-15-0.2
		c0.5-2.2,2.3-1.8,3.2-2.8c-1-1-2.2-1.2-3.7-1.2c-0.6,2-0.6,4,0,6.3c4.1-0.5,8.2-0.9,12.2-1.4c1.4,0.6,0.3,1.8,0.6,2.7
		c1.7,0.6,4.1,0.1,5.1,2.3c-0.9,2.6-3.2,0.7-4.6,1.8c1.4,0.9,3.4,0.4,4.4,2.1c-0.2,1.5-1.1,1.8-2.3,1.2c-2.5-1.3-4.8-1.4-7.5-0.5
		c-2.7,1-5.7,0.7-7.9-1.6c-1-0.2-0.8,1.4-1.8,1.3c-1.9-1-1.5-13.5,0.8-17.6c-0.7-2.4-1.2-5,0.1-7.5c1.5-2.9,3.8-4.1,7-3.5
		c2.3,0.4,4.6,0.9,6.8,1.5c2.2,0.6,4.5,1,6.8,3.1c-0.2-8.2,1-15.6,2-23c0.3-2.6,1.1-5.2,1.2-7.9c0.2-5.3,0.1-10.5,0.1-15.8
		c0-2.4-0.2-4.9,0.5-7.3c0.4,4.6,1.6,9.1,0.5,13.7c9.3-24.5,8.8-49,0.3-73.6c2.4,2.1,4,4.4,4.7,7.3c2.4,9,3.3,18.3,4.6,27.4
		c0.6,4.1-0.1,8.2-0.8,12.2c-1.4,7.8-2.6,15.7-5.2,23.3c-1.2,3.6-1.4,7.6-1.6,11.4c-0.3,7.5-2.8,14.5-3.8,21.8
		c-0.7,5.4-0.4,10.6,1.5,15.7C444.6,612.3,444.6,612.8,444.7,613.1L444.7,613.1z"/>
	<path d="M857.8,599.3c5.8,0.4,11.3,1.7,16.8,4.3c0.1-11.8,2.1-23.3,4-35.4c0-0.3-1.2,0.2-1.1-0.3c0.7-5.6,0-11.2,0.8-16.8
		c0.8,4.3,1.1,8.7,0.9,13.1c2-6.8,4-13.5,5-20.4c0.4-2.8,0.9-5.7,1.4-8.5c1.7-10.3-1.2-20.2-2.9-30.2c-0.6-3.4-1.2-6.7-2.5-10
		c-0.6-1.4-0.7-3-0.8-5.3c2.4,2.9,4,5.4,4.6,8.4c1.2,5.9,3,11.8,3.1,17.9c0,2.2,0.8,4.3,1.1,6.5c0.9,5.8-0.1,11.4-1,17.1
		c-1.2,7.2-2.8,14.3-4.9,21.3c-1.4,4.8-1.6,10-1.9,15.1c-0.4,5.8-2.8,11.1-3.2,16.9c-0.2,3.4-0.9,6.8-0.4,10.2c0.3,2,0.7,4,1.6,5.7
		c0.5,1.1-0.2,1.6-0.2,2.4l0.1-0.1c-1.8,0-3.6,1-5.3,0.1c-1.3,1.2,0,2-0.1,3.1c-0.6,1.3-3.6,0.8-2.6,3.3c-1.3,0.3-2.1,0.4-3.1,0.6
		c0.4,1.1,0.9,2.1,0.1,3.1c2,0.9,4.5,0.3,5.6,2.7c-1.4,2.2-3.6,0.5-5.2,1.3c1.1,1.6,4.5,0,4.8,2.9c-0.8,1.2-1.6,0.9-2.5,0.5
		c-2.3-1.1-4.4-1.3-7-0.4c-3,1-6.1,1-8.2-1.7c-1.3,0-0.8,1.4-1.7,1.5c-0.4-0.1-0.4-0.4-0.5-0.7c-0.4-2.6-0.8-5.2-1.1-7.8
		c-0.2-2.1-0.1-4.3,0.8-6.2c1-2.1,1.1-4,0.7-6.3C852.6,603.6,854.8,601,857.8,599.3L857.8,599.3z"/>
	<path d="M364.7,582.7c-0.6,2.5-0.2,5,0.6,7.5c-1.4,1.3-2.6,2.4-4.1,3.8c0,2.7,0,5.6,0.5,8.4c0.4,2,0.9,4.1,0.1,5.9
		c-2,4.4-1.5,9.1-1.9,13.7c-0.1,1.9,0,3.8-1.6,5.5c-1.2,1.3-0.2,2.7,1.5,3.2c2.4,0.7,4.9,0.4,7.2,0.8c6.6,1.1,13,0.4,19.4-0.8
		c2-0.4,3.8-1.1,5.3-2.5c-0.8-2.8-2.3-5.2-1.5-8.3c0.2-0.9-0.9-2.2-1.6-3.1c-2.7-3.5-3-8.2-5.4-11.9c-0.8-1.2-1.4-3,0.3-4.5
		c-3.6,2.1-4.6,6.2-3.1,10.6c-2.5,2.7-3.8,3-7.4,1.3c0.2-1.5,2-0.6,2.5-1.9c-1.4-0.1-2.7-0.2-3.9-0.4c-0.6-1.2,1.2-1.1,0.8-2.2
		c-1.9,0-3.8-0.5-5.6-0.9c-0.6-0.6,0.2-1.1,0-1.6c-0.8-0.8-2.2,0.7-3-0.9c1.4-1.8,4-1.3,5.8-2.5c-1.5-0.8-3.1-0.5-4.9-1.1
		c-0.3-0.9,0.5-2-0.5-2.9c1.2-0.5,2.2-0.8,3.3-1.3c-1-0.6-2.2,0-3.1-1.1c0.5-1.3,1.7-1.4,2.8-1.5c3.3-0.4,6.6-0.1,9.8,1
		c1.3,0.4,2.5,0.9,3.9,0.7c0.3,0.3,0.7,0.5,0.9,0.8c-0.2-0.4-0.6-0.5-0.9-0.7c-0.8-1.5-2.4-1.8-3.9-2.5c-0.5-2.2,1.3-4.4,0.3-6.9
		c-3.8-0.5-7.9-0.3-12.1-1.4c1.3-1.4,2.5-1.7,4.1-1.6c3.5,0.2,7,0.8,10.6,0.4c2.6-0.3,3.6,1.3,2.9,4.2c-0.7,2.9-0.7,2.9-0.2,5
		c3.9,2.1,4.4,3.2,2.7,7.3c-1.1,2.6-0.3,4.5,1.1,6.4c1.2,1.8,3,3.4,2.2,5.9c-0.1,0.5,0.4,1.3,0.8,1.7c4.2,3.7,2.6,9.2,4.3,13.7
		c0.6,1.7-2.1,4.3-4.6,4.9c-9.3,2.1-18.6,2.5-28,0.7c-0.9-0.2-1.7-0.4-2.5-0.8c-3.5-1.6-3.8-3.6-0.9-6.6c-1.4-2.8-1.3-5.9-0.5-8.7
		c2.1-7.2,1.7-14.6,1.7-22c0-1.7-0.3-3.4,1.9-4c-0.7-1-2-1.3-2.3-2.6C359.8,585.1,361.8,583.1,364.7,582.7L364.7,582.7z"/>
	<path d="M878.2,611.4c2.4-0.2,2.6,1.5,2.1,3c-0.7,2.1-0.3,3.9,0.3,5.8c0.8,2.6,0.2,5-0.5,7.5c-0.6,2-0.7,3.9,0.3,5.7
		c0.8,1.5,1.2,3.1,1.3,4.8c0.3,3.9,0.5,7.9,0.8,11.8c-4,3.3-33.6,5-39.5,2.2c-2.5-4.7,1-8.7,1.5-13.1c0.1-0.9,1-1.5,2-1.2l-0.1-0.1
		c0,2.7,0.1,5.4-1.4,8c-0.7,1.3-1.3,2.9-0.2,4.9c11.3,1.3,22.7-0.1,34.5-1.9c0.3-5,0.9-10.1-1.2-14.9c-0.8-1.7-0.9-3.2-0.5-5.1
		c0.6-2.4,0.8-5.1,0.3-7.5c-0.4-2-0.6-3.7,0.2-5.7C878.6,614.3,878.3,612.7,878.2,611.4L878.2,611.4z"/>
	<path d="M444.6,613.2c1.2,0.8,2.2,1.8,1.6,3.2c-0.8,2.1-0.4,4,0.1,6.1c0.6,2.4,0.4,4.8-0.5,7.2c-0.7,2.1-0.9,4,0.3,6
		c1.2,2,1.3,4.4,1.5,6.7c0.2,3.3,0.4,6.5,0.6,9.8c-3.9,3.2-33.4,4.9-39.4,2.3c-2-2.9-0.9-5.7,0.1-8.6c0.4-1.1,0.8-2.3,0.9-3.5
		c0.1-1.3,0.8-2.3,2.2-2.6c0.5-0.1,0.7,0.1,0.5,0.6c0,4.1-2.4,7.8-2.6,12.3c12.1,1.4,23.6,0.1,35.3-1.9c0.3-5,0.8-10-1.3-14.8
		c-0.7-1.6-1-3-0.5-4.7c0.7-2.6,0.9-5.3,0.3-7.9C442.9,619.8,444.6,616.6,444.6,613.2L444.6,613.2z"/>
	<path d="M812.6,366.7c1.3-1.3,2.4,0.6,3.9,0.1c0.9-0.6,1-1.5,1-2.7c-0.1-4.3,1-8.5,1.7-12.7c0.1-0.7,0.6-1.5,2.2-1.6
		c-1.3,5.8-2.2,11.5-2.8,17.3c1,1,2.1,1.8,3.6,2.2c0.9-3.7,1.4-7.6,4.2-10.5c1.3,4.3-1.6,7.6-2.6,11.3c0.5,1.7,2.3,2.2,3.3,3.4
		c-1.8,1.6-1.8,1.6-4.5-0.8c-2.6,4.5-4.2,9.6-7.7,13.6c1.2-5.4,3.9-10.2,5.9-15.5c-2-0.8-3.7-1.9-5.5-3.8c-1,3.3-0.2,6.7-2.8,9.8
		C812.6,373.1,812.6,369.9,812.6,366.7L812.6,366.7z"/>
	<path d="M792.6,624.6c-1.6-3.3-1.9-6.8-0.8-10.3c2.4-7.9,1.4-16,1.5-24c0.7-0.5,1.3-1,1.9-1.4c-4.9-5,0.3-6.2,2.9-8.5
		c0.5,2.6,0.7,5,1.3,7.5c-1.4,1.3-2.7,2.4-4,3.6c-0.3,3.4,0.2,6.8,0.8,10.2c0.2,1.2,0.4,2.4-0.1,3.6c-2.1,5.1-1.7,10.6-2.1,16
		C793.9,622.5,794.4,624.1,792.6,624.6L792.6,624.6z"/>
	<path d="M422.6,400.2c-2.4,4.1-6,6.9-9.7,9.5c-4.6,3.3-8.8,7-13,10.8c-1.7,1.5-3,3.2-4.1,5.2c-5.8,10-14.6,16.4-25,20.8
		c-2.5,1.1-4.9,2.5-7.9,2.5c2.5-1.3,4.9-2.7,7.4-4c4.8-2.5,9.5-5.2,13.8-8.5c3.2-2.4,6.4-4.9,8.4-8.4c4.5-8,11.6-13.2,18.5-18.7
		c2.2-1.7,4.4-3.4,6.4-5.2c1.2-1.1,2.8-2.1,2.9-4.1C420.6,399.2,421.5,399.2,422.6,400.2z"/>
	<path d="M797.1,446.8c4.6-2.5,9.2-5,13.8-7.6c7.6-4.3,14.1-9.8,18.7-17.5c3.3-5.6,9-9.1,13.9-13.2c3-2.4,6.2-4.6,9-7.3
		c0.4-0.4,0.8-0.8,1.7-0.3c-1.9,2.7-4.4,4.5-7,6.3c-4.6,3.3-8.8,7-13,10.8c-1.6,1.4-2.9,3-4,4.9c-5.9,10.4-15,17-25.8,21.5
		C802.1,445.4,799.9,446.9,797.1,446.8z"/>
	<path d="M407.1,418.9c3-3.8,6.6-7.1,10.2-10.3c5.7-5.2,11.8-10.1,17.7-15c3.2-2.7,6-5.8,9.8-7.9c1-0.6,1.9-1.4,3.6-1.4
		c-14.1,11.6-28,22.8-40.5,35.8C407.7,419.7,407.4,419.3,407.1,418.9z"/>
	<path d="M847.1,420.5c-1.2-0.4-1.7-1.1-0.9-2.2c0.6-0.8,1.1-1.7,1.9-2.3c5.6-5,11.3-9.9,18.5-12.4c2.1-0.7,4.3-1.3,6.5-0.7
		c1.3,0.3,2.6,0.9,3.4,3c-2.7-1.8-5.1-1.7-7.3-0.8c-8.1,3-15,7.8-20.7,14.2C848.7,420.4,847.9,420.5,847.1,420.5z"/>
	<path d="M413.3,422.5c-1.5,0.3-1.9-0.5-1.3-1.7c0.5-1,1.2-1.9,2-2.6c5.6-5,11.3-9.9,18.6-12.4c2.8-0.9,5.6-1.5,8.3,0.2
		c0.5,0.3,1.1,0.7,1.1,1.8c-5.2-3-9.4,0.2-13.4,2.4C422.8,413.3,417.4,417.3,413.3,422.5L413.3,422.5z"/>
	<path d="M812.6,404.7c-3.6-4-7.3-7.7-9.4-12.6c3.4,4.5,7.4,8.4,11.3,12.5c-6.7,6.3-6.8,14.2-6.1,22.2c0.2,2.2-0.2,4.6,1.3,6.8
		C803.7,431.2,805.9,410.6,812.6,404.7z"/>
	<path d="M364.2,358.9c2.5,0.7,2.7,2.6,2.4,4.7c0.9,0.4,0.9-0.9,2.2-0.4c0.5,0.3-0.5,1.4,0.3,2.3c1.1,1.6,3.6,0.6,5.3,2.3
		c1.4,1.4,3.8,1.4,6.1,0.8c0.4,3.9,0.4,7.2-2,10c0-2.9,0.1-5.8-0.1-8.8c-2.3-0.4-4.2,0.5-6.2,1.3c-0.9-3.3-1.8-4.1-4.6-3.4
		c-0.8-0.3-1.1-1.7-2.7-1.8c-2.2-0.1-2.5-3-3.3-4.9c-0.5-1.1-0.2-1.9,1.1-2.2C363.2,359.3,363.7,359.3,364.2,358.9z"/>
	<path d="M370.2,395.9c1.7,1.9,3.3,3.9,5,5.7c1.6,1.8,3.3,3.5,5,5.2c-8.3,8.7-6.5,18.8-5.2,28.9c-5.6-2.6-3.4-22.7,3.4-28.8
		c-2.9-3.5-6.5-6.5-8.5-10.8C370,396.1,370.1,396,370.2,395.9z"/>
	<path d="M858.6,554.4c0-3.6-0.4-7.2,0.1-10.5c0.6-3.7,0.1-7.2-0.5-10.6c-0.8-3.9-2.6-7.6-0.7-11.8c0.5-1.2-0.3-3-0.7-4.5
		c-0.4-2.1-0.8-4.2-0.5-6.8c1.6,1.1,1.5,2.5,1.5,3.7c0.4,6.9,1.9,13.7,2,20.7c0.1,6.5,0.3,13,0.1,19.5
		C859.8,554,859.5,554.1,858.6,554.4z"/>
	<path d="M577.4,298.1c0.5,0.3,1,0.1,1.7-0.1c0.5-3.7,0.5-7.7,2.4-11.2c1.4,2.9-0.6,5.7,0,8.5c0.4,1,1.8-0.2,2.1,1.3
		c-2.7,0-3.5,5-7.1,2.5c-3.3,2.8-4.7,2.7-8.1-0.6c2.4-0.3,4.7,0.1,7-1.2c-0.1-3.8-0.4-7.9,2-11.5
		C577.9,289.8,576.2,293.8,577.4,298.1z"/>
	<path d="M809.1,461.4c6-16.5,18-28,31.9-37.9C828,434.2,816.9,446.3,809.1,461.4z"/>
	<path d="M413.2,433.2c0.4-2.3,0.7-4.5-1-6.6c-1.3-1.6,0.4-2.8,1.1-4.1l-0.1,0.1c7.2-2.2,19.2-4,23.7-0.1c-4.3-1-8.7-1-13-0.6
		c-2.2,0.2-4.4,0.6-6.5,1.3c-1.1,0.4-2.5,0.5-2.7,2.1c-0.2,1.4,0.7,2.5,1.8,3.4c0.5,0.4,1.3,0.4,1.5,1.2c-0.7,0.7-1.2-0.4-1.4-0.3
		C414.8,430.5,416.6,434.2,413.2,433.2L413.2,433.2z"/>
	<path d="M407,425.8c-6,5.7-12.6,10.9-18,17.2c-5.4,6.3-9.6,13.5-13.9,20.9C375.4,455.3,395.4,431.3,407,425.8z"/>
	<path d="M847.1,420.5c0.4-0.4,0.9-0.9,1.3-1.3c1.4,0.6,2.7,0.2,4.1-0.2c5.3-1.3,10.6-1.8,16-0.4c1.3,0.4,2.8,0.7,3.5,2.2l0.1,0
		c-7.7-2.3-15.2-1.7-22.7,0.8c-0.8,3-0.7,3.3,2.5,5.7c-0.5,1.1-1.2-0.4-1.7,0.1c-0.6,2.3-0.6,2.3-2.3,3.9c-0.5-2.7,0.4-5.7-1.8-7.4
		C845.7,422.3,846.8,421.6,847.1,420.5z"/>
	<path d="M841.6,417.1c1.6-4.3,22-22.5,26.3-23.5C867.2,394.7,842.3,416.9,841.6,417.1z"/>
	<path d="M812.6,366.7c-1.8,1.4-4.5,0.2-6.1,2.2c-1.3-3.7-1.9-4.2-4.6-3.6c-1.1,0-0.7-1.6-2-1.8c-2.4-0.2-4.6-3.8-4.1-6
		c0.2-0.9,0.9-0.8,1.6-0.9c0.4,0.2,0.7,0.7,1.2,0.2c2.7,0.4,2.2,2.6,2.2,4.4c0.9,0.5,1-0.7,1.6-0.7c1.4,0.4,0.1,1.5,0.8,2.6
		C806.2,363.9,809.1,365.9,812.6,366.7L812.6,366.7z"/>
	<path d="M418.5,339.8c-13.9,0-27.8,1.6-41.6-2.1c4.6-0.3,9.1,0.8,13.6,1c4.6,0.2,9.3,0.2,13.9,0.3c4.7,0,9.4,0,14.1,0
		C418.5,339.2,418.5,339.5,418.5,339.8z"/>
	<path d="M425.1,544.7c-0.8-4.1-0.5-8.3-1.9-12.3c-1-2.8-1.1-5.7-0.1-8.7c0.8-2.2-0.8-4.5-0.9-6.8c-0.1-1.4-0.6-2.7-0.1-4.1
		c1.4,0.2,1.3,1.2,1.3,2c0.4,7,2.7,13.9,1.9,21c-0.2,1.7,1.1,3.1,0.8,4.8C425.9,542,426.3,543.6,425.1,544.7L425.1,544.7z"/>
	<path d="M867.1,491.4c1.9,6.9,1.9,6.9,0,8.5c0-3-1-5.4-2.2-7.8c-0.3-0.6-0.4-1.5,0.1-1.9c2-1.6,2.3-4.5,4.4-6
		c1.5-1,1.3-2.6,1.1-4.2c-0.2-1.3-0.5-2.5-0.8-4.1c3.3,2.9,3.7,6.2,1.2,9C869.3,486.9,869.3,489.7,867.1,491.4z"/>
	<path d="M432.5,502.3c1-3.7-1.4-6-2.1-9.2c2.3-2,3-5.4,5.7-7.3c1.1-2.4-0.1-4.7-0.4-7.2c3,2,3.8,5.9,1.6,8.1
		c-1.9,1.9-2.1,4.5-3.8,6.5c-1.2,1.4,0.3,3.1,0.7,4.7C434.6,499.4,435.5,501.1,432.5,502.3z"/>
	<path d="M436.8,342.8c-12.8,4.2-26.1,5-39.5,4.7C410.5,346.6,423.7,345.2,436.8,342.8z"/>
	<path d="M380.4,388.6c2.1-7.1,6-13.3,8-20.3c1.7,0.4,1.8,1.5,1.4,2.6c-2.2,6.1-4.9,12-8.4,17.5
		C381.3,388.5,381.1,388.4,380.4,388.6z"/>
	<path d="M405.9,333.6c8.1-0.3,15.5-3.2,22.8-6.3c1.3-0.5,2.5-1.3,3.9-1.2c-11.8,6.9-24.7,9.6-38.3,9c2-0.2,3.9-0.3,5.9-0.7
		C402.1,334.2,404.2,334.7,405.9,333.6L405.9,333.6z"/>
	<path d="M385.7,619.9c-4.8,0.2-9.1-0.1-13.7-0.7C375.6,615.3,383.3,615.5,385.7,619.9z"/>
	<path d="M806.5,616.6c4.7-3.7,11.2-3.3,13.2,0.7C815.1,618.1,810.8,617.1,806.5,616.6z"/>
	<path d="M887.8,366c-1.4,0-1.7-1.2-2.2-2.1c-2-3.3-2.9-7.1-4.5-10.5c-1.9,0.2-3.1,1.8-5.1,1.5c2.2-1.3,3.7-3.6,6.5-4.5
		C883.7,355.9,886.5,360.7,887.8,366L887.8,366z"/>
	<path d="M453.1,368c-3.4-3.5-4.1-8.3-6.2-12.3c-1.9,0.2-3.1,2-5.6,1.6c2.5-1.8,4.5-3.3,6.9-5C449.5,358,452.3,362.7,453.1,368z"/>
	<path d="M444.9,287.1c-2.6,0.6-5.2,1.7-7.2-1.2c-1-1.5-0.8-3,0.3-4.3c1.3-1.5,3-1.8,4.8-1.1C445.8,281.8,445.2,284.4,444.9,287.1z"
		/>
	<path d="M407.2,321.7c-3-3.5-1.3-7.3-0.9-11c0.3-2.5,1.1-4.9,0.2-7.5c-0.5-1.5,0.3-2.7,1.5-3.4C410.3,307.2,406,314.3,407.2,321.7z
		"/>
	<path d="M427.1,288.1c-1.6,0.2-1.8-1.5-3-1.6c-1.3-0.1-0.7,1.9-2.1,1.8c-1-0.2-0.7-1.7-1.7-2.1c1.6-1.4,0.3-3.3,1.1-4.9
		c1-0.6,2.1-0.4,3.2-0.4c2.5,0.1,3.3,1.3,2.6,3.7C426.7,286.2,426.7,286.4,427.1,288.1z"/>
	<path d="M453.3,390.9c-5.6,3.8-11.5,5.5-16.4,9.4C436.9,396.8,446.3,391.4,453.3,390.9z"/>
	<path d="M402.3,371.1c5-1.1,5-1.1,6.1-3.1c2.6,1.2,5.4,1.7,8.7,2.3C413.9,372.7,411.2,372.8,402.3,371.1z"/>
	<path d="M859,500.7c-1.9-1.3-3.2-2.3-3.3-4.7c-0.2-4-1.7-7.7-3.3-11.4c-0.4-0.9-1.4-1.9,0-3.2C855.9,487.4,857.1,493.9,859,500.7z"
		/>
	<path d="M871,397.6c0.8-3.7,10.8-9,16.2-8.8C881.9,392.2,876,394,871,397.6z"/>
	<path d="M432.3,287.8c-2.1,0-3.9-1.7-3.9-3.7c0-2.1,1.8-3.9,4.1-3.9c2.2,0,3.8,1.6,3.9,3.7C436.4,286,434.5,287.8,432.3,287.8z"/>
	<path d="M418.3,483.7c3.5,6,4.6,12.6,6.6,19.3c-1.8-1.4-3.1-2.3-3.2-4.7c-0.2-3.9-1.7-7.5-3.2-11.1
		C418,486.2,417.1,485.2,418.3,483.7z"/>
	<path d="M846.4,637.9c-0.5-2.1-0.2-4,1.7-5.3c1.2-0.8,0.9-2.2,1.4-3.2c0.4-0.9,0-2.2,1.6-2.8c1.6,2.6-1.2,4.3-1.3,6.6
		c-0.1,2.1,0.9,4.6-1.4,6.2C847.4,639.3,847.1,638.2,846.4,637.9L846.4,637.9z"/>
	<path d="M412.6,640.5c-0.2-0.2-0.4-0.4-0.5-0.6c-0.2-2,0.1-3.8,1.9-5c1-0.7,0.9-1.7,1.3-2.6c0.5-1.1,0.1-2.7,2-3.7
		c0.6,4-3.1,7.1-1.3,10.8c-0.5,0.7-1.1,1.5-1.6,2.2C413.3,641.7,413.2,640.8,412.6,640.5z"/>
	<path d="M810.9,508.9c2.6-1.4,4.1-4.2,7.3-4.3c-2,2.7-4.8,4.3-7.7,6c-2.4-2.2-5.3-3.4-7.8-5.2C804.5,504.2,804.5,504.2,810.9,508.9
		z"/>
	<path d="M376.8,511.4c2.4-1.7,4.1-4.1,7.1-4.5c-1.8,3-4.9,4.3-7.5,6.2c-2.3-2.4-5.3-3.4-7.8-5.2
		C370.7,506.5,370.7,506.5,376.8,511.4z"/>
	<path d="M411.4,386.6c2.9-4.1,4.1-8.8,4.5-13.9C419.5,376.2,417.3,382.8,411.4,386.6z"/>
	<path d="M454.4,369.3c-5.1,5.2-10.8,9.6-16.5,14c-0.2-0.2-0.3-0.4-0.5-0.5c5.4-4.8,10.8-9.6,16.2-14.3
		C453.9,368.7,454.2,369,454.4,369.3z"/>
	<path d="M441.7,298.3c-6.8,1.5-13.7,2.1-20.6,0.6C428,299.2,434.8,297.8,441.7,298.3z"/>
	<path d="M852,637.2c3.7-0.6,7.4-1.1,10.8,1.1C859.1,639.6,855.5,638.7,852,637.2z"/>
	<path d="M396.5,384c1.2,6,0.8,12.2,3.5,17.9C396.8,399,395.2,391,396.5,384z"/>
	<path d="M801.7,479.8c3.7,0.6,5.7,4.8,5,10.3C805.2,486.8,803.6,483.5,801.7,479.8z"/>
	<path d="M368.3,482.2c3.3,1.2,5.2,5.6,4.5,10.1C370.9,489.1,369.2,485.8,368.3,482.2z"/>
	<path d="M389.5,495.9c-4.1,0.1-7-3.1-6.8-7.5C386.4,489.6,386.4,494.2,389.5,495.9z"/>
	<path d="M816.4,486c4.2,1.3,4.1,5.9,7.4,7.4C820.2,495,818.2,491.3,816.4,486z"/>
	<path d="M830.7,381.7c1,6,1,12.1,3.7,18.1C831.1,397.1,829.9,391.6,830.7,381.7z"/>
	<path d="M443.4,331.3c-5.2,2.8-10.7,4.7-16.6,5.6c5.4-2.1,10.9-4.2,16.3-6.4C443.2,330.7,443.3,331,443.4,331.3z"/>
	<path d="M417.9,639.6c5.8-1.2,9.3-0.7,10.8,1.6C424.8,641.5,421.3,641.4,417.9,639.6z"/>
	<path d="M828.3,373c-1.3-4,1.7-6.5,3.5-9.5c0.9,3.7-1.7,6.2-3.1,9.1C828.5,372.8,828.4,372.9,828.3,373z"/>
	<path d="M523.8,257.3c0.5,4-1.2,6.6-2.2,9.7C520.2,263.7,520.9,260,523.8,257.3z"/>
	<path d="M832.7,350c3.1-0.3,6-2.2,9.2-0.9C838.9,349.6,836.2,352.9,832.7,350z"/>
	<path d="M434.6,463.1c3.6,1.4,5.9,5.2,5.7,10C438.7,469.5,436.5,466.4,434.6,463.1L434.6,463.1z"/>
	<path d="M494.8,266.1c0.9-0.7,1.9-1,3.1-0.7c2.3,0.5,4.7,0.9,7.2,1.3C502.8,268.5,498.2,268.1,494.8,266.1L494.8,266.1z"/>
	<path d="M456.9,414.8c-1.4,4-3.5,7.6-6.3,10.8C452.2,421.7,453.8,417.8,456.9,414.8z"/>
	<path d="M368.8,341c3.9,0.8,7.8,0.7,11.7,1.3C376.5,342.8,372.5,343.2,368.8,341z"/>
	<path d="M891.7,412.6c-2.1,3.8-4,7.5-7,11.1C885.7,419.1,889.4,413.1,891.7,412.6z"/>
	<path d="M869,461.3c3.9,1.5,6.2,5.8,5.4,9.9C872.7,467.6,871.6,464.1,869,461.3z"/>
	<path d="M801.3,530.2c-0.6,4,0.3,7.9,0.4,11.8C800.6,538.1,798.5,534.3,801.3,530.2z"/>
	<path d="M440.2,363.8c-0.6,0.6,0.6,1.5-0.4,2.2c-1.8-2.1-2-4.3-0.3-6.9c1,2.3,2.4,4.2,3,6.6C441,365.7,441.1,364.2,440.2,363.8z"/>
	<path d="M425,544.7c1.8,3.8,0.7,7.7,0.7,12C424.5,554.8,424.2,547.1,425,544.7L425,544.7z"/>
	<path d="M444.6,547.7c-0.5-3.6-1-7.1,0.8-10.6c0,3.5,0,7.1,0,10.6C445.2,547.8,444.9,547.7,444.6,547.7z"/>
	<path d="M423.1,354.8c-3.1,3.7-7.3,5.8-11.7,7.4C415.2,359.5,418.9,356.8,423.1,354.8L423.1,354.8z"/>
	<path d="M805.6,616.8c-3.9,2.8-6.3,2.6-8-0.7C800,617.2,802.6,616.5,805.6,616.8z"/>
	<path d="M848.6,346c3-1.8,3.9-5.6,7.1-7.2C852.4,344.9,851.5,345.8,848.6,346z"/>
	<path d="M371.7,619.4c-5,2.6-7.3,2.2-8.2-1.4C365.9,619.9,368.7,618.6,371.7,619.4z"/>
	<path d="M800.4,521.3c-0.9-3.3,0.4-6.6,0.1-10.1C802.3,513,802.3,514.6,800.4,521.3z"/>
	<path d="M367.1,532.6c-0.9,4,0.4,7.9,0.3,11.8C366.6,540.5,364.4,536.7,367.1,532.6z"/>
	<path d="M879.7,534.9c0,3.5,0,6.9,0,10.4c-0.3,0-0.5,0-0.8,0C877.9,541.8,878,538.3,879.7,534.9z"/>
	<path d="M445.1,534.1c-2.3-2.7-0.7-5.1,0.6-7.6C446.9,529.1,445.1,531.6,445.1,534.1z"/>
	<path d="M400.4,373.3c0.1,3.9,0.5,7.7,1.6,11.5C399.1,381.3,399.6,377.3,400.4,373.3z"/>
	<path d="M424.9,311.6c-4.3,0.5-8.5,1.2-12.7,0.3C416.4,311.8,420.6,311.4,424.9,311.6z"/>
	<path d="M401.6,297.7c-0.8,2.6-3.5,4-8.4,4.5C395.9,300,399.1,299.6,401.6,297.7z"/>
	<path d="M427.5,460.8c0.5,3.2-1.9,5.3-3.9,7.6c1-2.6,2.1-5.3,3.1-7.9C426.9,460.6,427.2,460.7,427.5,460.8z"/>
	<path d="M366.8,513.6c1.5,3.3,0.1,6.5-0.4,9.7C365.4,520.1,366.5,516.9,366.8,513.6z"/>
	<path d="M880.1,524.1c0.8,1.3,0.3,2.6,0.1,3.8c-0.2,1.3-0.5,2.5-0.7,3.9C877.5,529.3,877.7,527.6,880.1,524.1z"/>
	<path d="M406,333.5c-1.2,0-1.5-0.8-1.5-1.7c0-1.8,0-3.7,0.4-5.5C406.3,328.6,406.6,331,406,333.5L406,333.5z"/>
	<path d="M861,457.7c1.1,3.2,0.7,4.2-3.2,8.3C858.8,463.4,859.8,460.8,861,457.7z"/>
	<path d="M424.3,634.1c-2.1,1.5-4.6,0.8-6.9,1.2C419.5,633.7,421.7,632.9,424.3,634.1z"/>
	<path d="M405.9,283.2c3.1-0.9,4.9,0.3,6.9,1C410.6,285,408.5,285,405.9,283.2z"/>
	<path d="M434.7,463c-2.7-1-3.5-2.6-3.1-6.9C433.4,458.1,432.8,461.1,434.7,463L434.7,463z"/>
	<path d="M418.3,480.9c0.4-2.3,0.7-4.6,2.9-6.6C421.2,477.3,419.8,479.1,418.3,480.9z"/>
	<path d="M865.5,453.1c2,2.6,1.5,5.2,3.1,7.6C865.8,458.7,865.4,457.6,865.5,453.1z"/>
	<path d="M383.3,500.7c-2.2,1.5-4,0.7-5.9-0.4C379.3,500.5,381.3,498.9,383.3,500.7z"/>
	<path d="M804.8,382.6c-1.1-2.5-2.2-5-3.4-7.5c0.2-0.1,0.4-0.2,0.7-0.3c1.8,2.2,2.2,5,3.4,7.5C805.3,382.4,805.1,382.5,804.8,382.6z
		"/>
	<path d="M371.1,384.8c-1.9-2.1-2.2-5-3.6-7.5C369.9,379.3,370.2,382.2,371.1,384.8z"/>
	<path d="M380.9,352.7c1.8,2.3,3.5,4.6,4.4,7.4c-2.3-1.9-3.6-4.5-4.8-7.1c0-0.2-0.1-0.4-0.1-0.6
		C380.5,352.5,380.7,352.6,380.9,352.7z"/>
	<path d="M376.4,514.8c1.8-0.5,2.9-2,4.7-2.7C380.1,515.2,379.5,515.6,376.4,514.8z"/>
	<path d="M855.3,472.5c-0.1,2.3-1.1,4.3-2.6,6C852.6,476.1,853.3,474,855.3,472.5z"/>
	<path d="M858.3,631.7c-2.2,1.3-4.5,0.9-6.8,1.2C853.6,631.4,855.8,630.7,858.3,631.7z"/>
	<path d="M430.4,367.6c0,1.3,0,2.5,0,3.9c-1.8-0.6-2.3-1.9-2.1-3.3C428.4,367.1,429.3,367,430.4,367.6z"/>
	<path d="M438.4,328.9c-2.7,2.1-5.9,2.8-9.1,3.4l0.1,0C432.2,330.7,435.3,329.7,438.4,328.9L438.4,328.9z"/>
	<path d="M460.4,247.5c2.1,0.1,4.1,0.3,6,1.3C464.1,249.6,463,249.4,460.4,247.5z"/>
	<path d="M579.9,279.7c0.8,2.1,0.8,2.1-0.1,3.8c-1.5-0.5-1.7-1.7-1.9-2.8C578.4,279.5,579.3,279.9,579.9,279.7L579.9,279.7z"/>
	<path d="M817.8,498.4c-2.7,1.1-4.5,1.1-6.8-0.6C813.5,497.7,815.3,497.1,817.8,498.4z"/>
	<path d="M571.6,279c1.7,1.7,1.2,3.1,0.7,5.2C570.7,282.3,570.1,281,571.6,279z"/>
	<path d="M456.2,238.8c-2.1-0.7-4.2-1.4-6.6-2.2C452,235.9,453.2,236.3,456.2,238.8z"/>
	<path d="M445,523.6c-0.9-1.8-0.6-3.4,0.8-5.1C446.7,520.5,445.7,522.1,445,523.6z"/>
	<path d="M515.7,267.5c-2.2,0.4-3.7,0.3-5.4-0.2C512.7,265.8,512.7,265.8,515.7,267.5z"/>
	<path d="M810.8,512.6c1.4-0.9,2.9-1.7,4.3-2.5C814.6,512.4,813.3,513.5,810.8,512.6z"/>
	<path d="M433.7,369c-1.2-2.3-1.2-2.3-0.3-4.1C434.6,367,434.6,367,433.7,369z"/>
	<path d="M887.7,366c0.4,0.4,0.9,0.8,0.4,1.3c-1.1,1.1-2,2.4-3.9,3.1C884.5,367.9,886.7,367.3,887.7,366L887.7,366z"/>
	<path d="M427.5,580.5c0-1.6-0.9-3.2,0-4.8C427.5,577.3,428.9,578.8,427.5,580.5z"/>
	<path d="M412.6,275.1c-1.5,0.7-2.8,0.3-4.4-0.8C410.2,273.6,411.3,274.5,412.6,275.1z"/>
	<path d="M399.2,282.9c2-1.4,3.6-1.2,5.3-1.2C403.1,283.3,403.1,283.3,399.2,282.9z"/>
	<path d="M861.3,572.9c0.9,2.2,1.4,3.7,0.4,5.4C861.4,576.7,860.7,575.3,861.3,572.9z"/>
	<path d="M879.9,516.1c1,2.2-0.2,3.6-0.6,5.1C878.1,519.5,878.8,518,879.9,516.1z"/>
	<path d="M364.3,386.6c-1.4-0.9-2.1-2.3-2.3-3.9C363.6,383.4,363.7,385.1,364.3,386.6z"/>
	<path d="M370.2,297.5c1.4-0.1,2.7,0,3.7,1.7C372.2,299.3,371.2,298.4,370.2,297.5z"/>
	<path d="M444.2,510.9c0.9,1.6,0.8,2.6,0.6,4.2C443.3,513.6,443.5,512.6,444.2,510.9z"/>
	<path d="M485.4,241.6c1.1,0.9,2.7,1.2,2.9,3C486.6,244,486.6,244,485.4,241.6z"/>
	<path d="M828.2,354.7c0.2,1.3-0.2,2.1-0.9,2.8C825.8,355.5,825.8,355.3,828.2,354.7z"/>
	<path d="M443.5,507.6c-1.4-0.9-1.3-1.9-0.6-3.2C444.1,505.4,443.9,506.4,443.5,507.6z"/>
	<path d="M382.3,369.8c1.5,0.1,3,0.3,4.4,1.6C384.6,371.6,383.5,370.5,382.3,369.8z"/>
	<path d="M406.9,276.3c-1.2-0.8-0.8-1.6-0.8-2.5C407.4,274.4,407.3,275.2,406.9,276.3z"/>
	<path d="M891.2,388.5c-0.7,1-1.7,1.2-3.2,1.7C889,388.6,889.9,388.2,891.2,388.5z"/>
	<path d="M796.2,380c1.3,0.7,1.5,1.8,1.7,3.1C796.5,381.9,796.5,381.9,796.2,380z"/>
	<path d="M411,296.6c-1.3-0.6-2.1-1.7-2.3-3.3c0.9,0.9,1.8,1.9,2.7,2.8c0.1,0.2,0.1,0.4,0.2,0.6C411.4,296.7,411.2,296.6,411,296.6z
		"/>
	<path d="M428.1,571.9c0.2-1,0.4-2,0.7-3.7C429.3,570,429.4,571.1,428.1,571.9z"/>
	<path d="M878.5,508.9c0.7,1.2,0.6,2.2,0.2,3.7C877.6,511.3,877.3,510.4,878.5,508.9z"/>
	<path d="M837,355.2c0.7-1.4,1.7-1.1,3-1C839,355.4,838.2,355.6,837,355.2z"/>
	<path d="M387.3,347.2c0.9,0,1.7,0,2.6,0c0,0,0,0.1,0,0.1c-0.9,0-1.7,0-2.6,0C387.3,347.2,387.3,347.2,387.3,347.2z"/>
	<path d="M862.5,569.7c-0.1-0.9-0.3-1.7,0.3-2.3c0.9,0.1,0.6,0.7,0.5,1.2C863.3,569,863.2,569.4,862.5,569.7z"/>
	<path d="M877.2,502.2c0.9,0.9,0.9,1.8,0.4,3C876.4,504.2,876.1,503.4,877.2,502.2z"/>
	<path d="M807.9,495.2c-1-1-0.6-1.8-0.3-2.6C808.3,493.3,808.7,494,807.9,495.2z"/>
	<path d="M563,282.2c-1.1-0.6-1.3-1.3-0.9-2.2c0.2,0,0.5-0.2,0.6-0.1C563.7,280.4,563.5,281.2,563,282.2z"/>
	<path d="M457,391c-0.8,0.8-1.7,1.2-2.7,1.3c-0.4-0.9,0.3-1,0.7-1.3C455.6,390.7,456.2,390.4,457,391z"/>
	<path d="M547.7,256.5c-1.3,0.3-2.2,0.2-2.8-1C546.2,254.7,546.9,255.4,547.7,256.5z"/>
	<path fill="#FFFFFF" d="M364.2,358.9c-0.1,0.9-0.2,1.7-0.4,3c-0.4-1.2-0.8-2.1-1.1-3C363.2,358.8,363.7,358.9,364.2,358.9z"/>
	<path fill="#FFFFFF" d="M798.5,356.8c-0.2,0.6-0.1,1.3-1,2c-0.1-0.8-0.1-1.5-0.2-2.2C797.7,356.7,798.1,356.8,798.5,356.8z"/>
	<path d="M825.4,350.4c0.8-1.2,1.5-1,2.4-0.3C827,350.9,826.4,351.1,825.4,350.4z"/>
	<path d="M483.7,248.8c0.1-0.9,0.6-1.3,1.5-1.4c0.7,1.3-0.5,1.2-0.7,1.8C484.1,249,483.9,248.9,483.7,248.8z"/>
	<path d="M400.4,313.3c0.9-0.9,1.5-0.8,2,0C401.8,313.9,401.3,313.7,400.4,313.3z"/>
	<path d="M508.1,266.7c-0.9,0.5-1.4,0.3-1.6-0.5C507.1,265.7,507.6,265.8,508.1,266.7z"/>
	<path d="M438.5,329c0.6-0.8,1.4-1.2,2.6-1.1C440.3,328.7,439.4,329,438.5,329L438.5,329z"/>
	<path d="M831.9,359.4c0.8,0.8,0.8,1.4,0.2,1.9C831,360.9,831.1,360.4,831.9,359.4z"/>
	<path d="M872.1,420.8c0.9-0.1,1.7,0,2.5,0.6C873.5,421.7,873,420.7,872.1,420.8L872.1,420.8z"/>
	<path d="M373.6,497.4c-0.9-0.9-0.5-1.5,0.1-2.4C374.1,495.9,374.4,496.5,373.6,497.4z"/>
	<path d="M535.7,272.8c0.6-0.4,1.1-0.5,1.6,0C536.7,274.3,536.3,273.5,535.7,272.8z"/>
	<path d="M411.4,296.2c0.7,0.2,1.3,0.5,1.9,1.2c-1.1,0.4-1.6-0.3-2.2-0.8C411.2,296.5,411.3,296.3,411.4,296.2z"/>
	<path d="M852.8,471c0.1-1,0.6-1.2,1.6-1.4C854.2,470.6,853.9,471.1,852.8,471z"/>
	<path d="M434.9,363.7c0.8,0.3,1.2,0.8,0.9,1.7c-0.7,0.4-0.9-0.3-1.2-0.6C434.4,364.4,434.5,363.9,434.9,363.7z"/>
	<path d="M420.3,472c-0.2,1-0.6,1.4-1.5,1.4C418.6,472.3,419.1,472,420.3,472z"/>
	<path d="M406.8,269.6c0.6,0.2,0.6,0.6,0.4,1c-0.2,0.4-0.6,0.2-0.8-0.1C406.1,270.1,406.2,269.8,406.8,269.6z"/>
	<path d="M420.8,368.6c0.7-0.3,0.9,0,1,0.5C421.1,369.7,421,368.9,420.8,368.6z"/>
	<path d="M369.9,396.2c-0.3-0.5-0.7-0.9-1.1-1.5c1.1,0,1.3,0.7,1.5,1.2C370.1,396,370,396.1,369.9,396.2z"/>
	<path d="M532.8,272.1c0.5-0.3,1-0.6,1.3,0.2c0,0.1-0.1,0.4-0.2,0.5C533.1,273.2,532.9,272.7,532.8,272.1z"/>
	<path d="M435.4,317.3c-0.1,0-0.3,0.1-0.5,0.1C435,316.9,435.4,317.5,435.4,317.3z"/>
	<path d="M369.4,321.4c0,0-0.2,0-0.4,0C369,320.9,369.4,321.3,369.4,321.4z"/>
	<path d="M431.8,362.2c0.3,0,0.6,0.1,0.9,0.1c0.2,1-0.5,1.1-1.1,1.3C431.1,362.8,431.9,362.6,431.8,362.2L431.8,362.2z"/>
	<path d="M423.2,354.8c0.5-0.7,1.2-1.1,2-1.3l-0.1-0.1C424.8,354.4,424.1,354.8,423.2,354.8L423.2,354.8z"/>
	<path d="M429.3,332.3c-0.9,0.2-1.8,0.4-2.7,0.7l0.1,0.1C427.5,332.3,428.4,332.4,429.3,332.3L429.3,332.3z"/>
	<path d="M426.6,333c-0.5,0.1-1,0.3-1.5,0.4c0-0.1,0-0.3,0-0.4C425.6,333.1,426.2,333.1,426.6,333L426.6,333z"/>
	<path d="M421.4,333.9c0.3,0,0.4,0,0.6,0C421.9,334.2,421.7,333.9,421.4,333.9z"/>
	<path d="M825.6,338.4c-0.3,0.7-0.5,1.1-1.2,1C824.3,338.8,824.7,338.6,825.6,338.4z"/>
	<path d="M380.5,353c-0.6-0.5-1.1-1-1.1-1.8c1.2-0.2,1.2,0.8,1.5,1.5C380.8,352.8,380.6,352.9,380.5,353z"/>
	<path d="M425.2,353.5c0.2-0.6,0.7-0.7,1.2-0.9C426.4,353.6,425.7,353.5,425.2,353.5L425.2,353.5z"/>
	<path fill="#FFFFFF" d="M337.4,232.6c2.4-2.6,5.6-3.5,8.8-3.9c3.4-0.4,6.8-0.2,10.2,0.1c2.7,0.2,5-1.3,7.1-2.9
		c2.9-2.2,5.8-4.4,10-5.4c0.4,4.5,0.8,8.9,1.1,13.2c-1.2,0.8-2.1-0.6-3.2,0.3c0.6,1.6,2.6,1,3.6,2.6c-0.1,5.8,2.7,11.7,2.9,18.1
		c0.2,11.1-3.9,20.7-9.4,29.9c-1.1,1.9-3.2,3-5.4,4c-1.9-2-3-4.1-3.9-6.7c-2.5-7.2-5.3-14.4-10.3-20.3c-2.5-2.9-5.4-5.1-9.8-5.5
		c-3.4-0.3-6.6-2.4-9.8-3.7c-0.6-0.2-1.1-0.8-2.1,0.1c4.6,5.8,12.7,5.2,18,9.7c-3.2,3.5-7.2,6-11.5,7.6c-7.4,2.8-14.6,6.3-22.5,7.5
		c-5.9,0.9-11.9,2.1-17.9,0.5c-2.5-0.7-4.4,0.1-6,1.6c-11.4,10.5-20,11.7-36,13.4c-0.5-2.6-2-4.7-3.7-6.8c-1.6-1.9-3-4.1-4.6-6.3
		c5.1-3,9.4-7.1,13.8-10.9c4.5-3.8,9.3-7.1,15.6-7.4c-1,3.1-6.3,1.7-6.1,6.2c3.5-1.6,7-3.1,9.3-5.9c3.1-3.7,6.3-6,11.2-5.2
		c3.2,0.5,6-0.2,8.6-2.4c2.4-1.9,5.6-2.7,8.5-3.6c5-1.7,10-3.4,15.4-4.1c1.6-0.2,2.8-1.3,3.9-2.3c2.6-2.4,5.4-4.6,7.7-7.3
		C332.8,234.9,334.8,233.1,337.4,232.6c2.2,1.2,4.2-0.2,6-0.9c5.4-2.2,10.6,0.1,15.1-0.2c-5-0.2-10.8-1.8-16.7,0.6
		C340.5,232.8,339,233.7,337.4,232.6z"/>
	<path fill="#FFFFFF" d="M382.3,218.3c3.8-1.3,5.8-5.6,9.9-7.6c1.9,5.3,6.9,7.4,9.3,11.4c2.4,0.6,4.7-0.9,6.8,0.6
		c0.6,1.9-0.8,3.7-0.4,5.9c1.6-2,2.1-4.2,2.8-6.3c3.2-0.9,5.6-2.9,7.9-5.2c1,0.3,0.1,0.9,0.4,1.9c1.6-3.4,2.2-6.9,5.4-8.7
		c1.1,3.3,3.6,5.6,7.4,6.9c0.3,4.8-0.1,9.5-0.8,14.1c-2.6,2-5.7,3.1-8,6.3c2.9-0.6,4.8-2.4,7.1-3c0.9,9.2-2.2,17.4-5.9,25.5
		c-1.3,2.8-4.5,3-6.1,4.1c-15.8-0.9-27.7-6.2-31-23c3.5,0.4,7,3.4,11.8,1.9c-4.3-4.4-10.6-2.9-14.2-6.8c0.6-1.7,2.1-1,2.8-2.1
		c-0.8-0.8-2.1-0.2-3.2-0.9C382.5,229,380.8,224.2,382.3,218.3z"/>
	<path fill="#FFFFFF" d="M392.1,200.2c-0.4-0.8-0.6-1.3-0.9-1.6c-3.6-2.8-3.6-6.8-4-10.7c-0.2-1.7,0.1-3.5-1.1-5.1
		c-0.7-1-0.1-2.1,0.2-3.2c0.4-1.6,1.6-2.6,2.4-3.9c2.3-3.9,4.7-7.8,7.1-11.6c0.3-0.5,0.9-0.6,1.6-0.3c0.1,1-1.7,1-1.2,2.4
		c2.6-1.1,5.7,0.4,8.2-1.9c0.2,2.6,2.6,4.4,5.5,3.9c2.6-0.4,4.2-2.8,6.5-3.9c1.7,0.3,2.5,1.3,2,2.9c3.4,0.9,4.7,3.7,5.9,6.3
		c0.8,1.7,1.1,3.5,2.3,5.1c1.5,2.1,0.2,4.4-0.2,6.4c-0.8,3.7-0.9,7.5-3,11.1c-1.2,1.9-0.7,5.1-0.5,7.7c0.5,4.3-0.8,7.7-4,10.5
		c-0.7,0.6-1.2,1.3-1.7,2c-2.1,2.7-4.5,4.4-8.2,3.7c-2.6-0.5-5.4,1-7.9-1.2c-4.1-3.6-7.6-7.4-8.8-12.9
		C391.7,203.9,390.5,202,392.1,200.2z"/>
	<path fill="#FFFFFF" d="M222.7,292.3c0.8-0.5,1.1-1.3,1.5-2.1c0.7-1.2,1.7-2.2,3.2-1.8c2.8,0.8,5.7-1.5,7.9,0.2
		c1.8-0.2,0.8-1.8,2-2.1c1.8,0.6,2.1,2.5,3.5,4.2c-3.8,3.3-5,7.8-5.7,12.3c-1.8,1.9-4.4,0.8-6.5,3c0.2-3.2,1.7-5.4,1.9-7.9
		c0.2-2.2,2-4.7-1.2-6.3c0.6,5.6-4.4,10.6-1.9,16.4c-1.5-1.5-2.3-3.2-2.2-5.3c0.3-3.8-0.6-7.2-2.9-10.3L222.7,292.3z"/>
	<path fill="#FFFFFF" d="M222.5,292.5c-1,0.2-1.7,0.8-1.2,1.8c1.1,2.4,2.2,5,1.8,7.6c-0.4,2.6,1.5,4.8,0.2,7.5
		c-2.4,0.8-3.5,0.1-3.6-2.9c0-3.9-1.4-7.1-4.8-9.2c-0.3-1.9,1.3-2.8,2.2-4.2c-1.5-0.5-2.3,0.4-3.3,0.8c-1,2.8-1.6,5.7-0.9,8.7
		c-1.2,0.5-2.1,1-3.4,1.6c0.2-4.1,1-7.8,1.6-11.7c8-4.5,16.1-8.6,25.6-8.3c-2.8,1.1-5.6,2.4-8.8,2.2c-4.2-0.3-5.8,1.6-5.2,5.8
		L222.5,292.5z"/>
	<path fill="#FFFFFF" d="M249.1,296.2c-3.8,1.7-7.1,3.9-11.2,4.5c-0.5-3.5,0.3-6.2,3.8-7.6c0.4,0.3,0.2,1.3,1.8,1
		c0.4-5.6-4-8.9-6.3-13.3c-1.9,0.6-3.5,1.6-5.4,1.2c1.3-1.2,2.8-1.7,4.2-2.2c1.5-0.5,3.4-1,4.7,0.5C244.6,285,249,289.3,249.1,296.2
		z"/>
	<path fill="#FFFFFF" d="M559.3,265.2c-2.1,0.2-3,1.7-3.8,3.3c-2.1,4.1-3.9,8.4-5.6,12.8c2.2,2.1,5.3,1.2,7.9,2.6
		c1,1.7,1.8,3.5,2.4,6.2c-4.9-2.2-9.4-4.2-14.2-6.3c3.1-6.9,5.5-14,9.6-20.6C556.9,264,558.4,264,559.3,265.2L559.3,265.2z"/>
	<path fill="#FFFFFF" d="M596.1,295.2c-1.2,0.8-1,2.4-2.1,3.5c-2.6-0.1-5.2-0.3-8.3-1c1.4-1.7,0.7-3.6,1-5.4c1-0.3,1.8,0.3,2.6,0.5
		c0.8,0.2,1.5,0.1,2.2-1c-2.9-1.3-2.4-4.1-2.7-6.7c-0.4-3.5-0.6-7-1.8-10.5c1.4,0.3,2.1,0.9,2.4,2.1c1.4,5.3,3.8,10.4,4.7,15.8
		C594.2,293.8,594.7,294.9,596.1,295.2L596.1,295.2z"/>
	<path fill="#FFFFFF" d="M213.6,309.7c-5.1,3.8-7.9,4.2-11,1.6c2.1-3.6,2.4-7.7,2.7-11.7c0.6-7.9,5.9-10.9,12.8-13.4
		c-1.1,1.6-2.5,1.7-3.4,2.4c-1,0.7-2.1,1.3-3.2,1.8c-1.9,0.8-2.8,2.3-3.1,4.3c-0.5,3.2-1.2,6.3-1.2,9.4c-0.4,1.1-2.1,1-1.9,2.8
		c2.7,0.5,5.2,0.1,7.5-2.1C213.1,306.8,213.4,308.2,213.6,309.7z"/>
	<path fill="#FFFFFF" d="M573,275.6c-6.1,1-11.9,1.9-17.3-2.3c0.6-1.2,1.3-2.7,1.9-4C564.8,269.1,568.9,270.8,573,275.6z"/>
	<path fill="#FFFFFF" d="M586.9,290.1c-1.2-3.3-1.1-7-3.2-9.8c-2-2.8-5.7-3.6-8.2-6.1c3.9-0.2,6.9,2.3,10.4,3.4
		C587,281.7,587.4,285.8,586.9,290.1z"/>
	<path fill="#FFFFFF" d="M559.2,265.3c1-0.4,2-0.3,2.9,0.1c4.9,1.6,9.7,3.7,14.7,4.9c2.3,0.6,4.5,1.2,6.6,2.3c0.7,0.4,1.4,0.7,0.8,2
		c-7.9-2.9-15.6-6.2-23.8-7.1C559.5,266.7,560,265.7,559.2,265.3L559.2,265.3z"/>
	<path fill="#FFFFFF" d="M245.1,300.5c-1.2,5.9-5.6,7.3-10.6,8.3c-0.8-0.7-1.2-2.1,0.1-2.4C238.6,305.4,241.1,301.6,245.1,300.5z"/>
	<path fill="#FFFFFF" d="M560.5,297.2c-1.6,0.8-2.7-0.4-4-0.3c-1.1-2.3-2.1-4.4-3.3-6.9c1.9,0.2,2.9,1.2,4.3,1.7
		C557,294.3,559.2,295.4,560.5,297.2z"/>
	<path fill="#FFFFFF" d="M216.6,282.6c2.6-2.1,5.9-0.4,7.8-3.1C225.2,282.6,223.3,283.3,216.6,282.6z"/>
	<path fill="#FFFFFF" d="M217.9,309.6c-1.4,0-2.1-0.4-2.7-1.3c0.5-2.3-0.3-4.7-0.6-7.2c1.6,1.6,1.6,1.6,2.1,3.8
		C217.1,306.4,217,308,217.9,309.6z"/>
	<path fill="#FFFFFF" d="M558.9,277.2c-1.7,1.1-3,2.8-5.3,0.9c0.1-0.9,0.7-1.8,1.3-2.8C556.6,274.8,557.8,275.6,558.9,277.2z"/>
	<path fill="#FFFFFF" d="M214.5,281.1c0.1,1-0.4,1.1-1.2,0.8c-2.7-1.1-5.3-2.2-7.9-3.5C208.7,278.6,211.4,280.6,214.5,281.1
		L214.5,281.1z"/>
	<path fill="#FFFFFF" d="M410.2,445.6c-0.6-1.3-1-2.1-1.4-3c0.2-1.3,1.6-2,1.3-3.4C410.5,441.3,411.4,443.3,410.2,445.6z"/>
	<path fill="#FFFFFF" d="M570.4,264c2.2,2.2,4.3,2.5,6.4,3C574.4,267.9,570.8,266.7,570.4,264z"/>
	<path fill="#FFFFFF" d="M399.4,151.8c-2.3,2.3-2.5,2.3-4.4-0.3c0.8-0.8,1.3,0.3,1.9,0.3C397.6,151.7,398.3,151.2,399.4,151.8z"/>
	<path fill="#FFFFFF" d="M382,183.6c1.1,1.1,3.2,1.7,1.7,3.8C382.2,186.5,381.8,185.1,382,183.6z"/>
	<path fill="#FFFFFF" d="M403.3,160.3c-1,1.4-2.4,1.9-3.9,2.4C400.5,160,400.5,160,403.3,160.3z"/>
	<path fill="#FFFFFF" d="M416.3,146c-0.9,0.7-1.7,1.3-2.9,1.3c-0.1-0.7-0.3-1.5-0.5-2.5C414.2,145.3,415.5,144.9,416.3,146z"/>
	<path fill="#FFFFFF" d="M580.2,261.9c-1.5,1.8-1.5,1.8-3.5,0.3C577.9,261.6,579,261.9,580.2,261.9z"/>
	<path fill="#FFFFFF" d="M429.4,186.4c-1.2-2,0.5-2.9,1.3-4.1C431.2,183.9,429.8,185,429.4,186.4z"/>
	<path fill="#FFFFFF" d="M383.9,179.9c-0.7-0.7-1.1-1.5-1.2-2.5C384.6,178.4,384.6,178.4,383.9,179.9z"/>
	<path fill="#FFFFFF" d="M196.4,276.1c1.7-0.4,2.3,0.5,3.4,1.4C198.3,277.7,197.3,277.8,196.4,276.1z"/>
	<path fill="#FFFFFF" d="M229.8,306.9c0.7-0.9,1.6-0.7,2.3-1.1c0.1,0.4,0.3,0.6,0.3,0.7C231.7,308.4,230.8,307.7,229.8,306.9z"/>
	<path fill="#FFFFFF" d="M407.7,160c0.5-1.5,1.3-2,2.6-2.5C409.8,158.7,409.2,159.4,407.7,160z"/>
	<path fill="#FFFFFF" d="M413.9,160.2c0.7-1.2,1.9-1.6,3.2-1.8C416.1,159.1,415.3,160.2,413.9,160.2L413.9,160.2z"/>
	<path fill="#FFFFFF" d="M384.7,154.2c-0.1-1.2,0.6-1.6,1.6-1.5C385.8,153.1,385.3,153.6,384.7,154.2z"/>
	<path fill="#FFFFFF" d="M387.5,161.4c-1.3-1.3,0-1.7,0.1-2.8C388.5,159.9,388.2,160.6,387.5,161.4z"/>
	<path fill="#FFFFFF" d="M213.8,279.3c-0.8-0.2-1.6-0.4-2.4-1.1c1.2-0.5,1.9,0.2,2.6,0.8L213.8,279.3z"/>
	<path fill="#FFFFFF" d="M202.7,277.5c-0.9-0.3-1.2-0.7-1.5-1.5C202,276.3,202.6,276.5,202.7,277.5z"/>
	<path fill="#FFFFFF" d="M214,279c0.6,0.1,1.1,0.4,1.6,0.9c0.1,0.8-0.6,0.9-1.1,1.1l0.1,0.1c0.3-0.9-0.3-1.3-0.8-1.9L214,279z"/>
	<path fill="#FFFFFF" d="M388.8,164.7c0-1.2,0.5-1.2,1.3-1.1C390.1,164.5,389.6,164.7,388.8,164.7z"/>
	<path fill="#FFFFFF" d="M385.6,168.7c0.5,0.8,0.4,1.3-0.6,1.5C384.5,169.2,384.8,168.8,385.6,168.7z"/>
	<path fill="#FFFFFF" d="M420.1,160.7c0.9-0.2,1.3,0,1.5,0.6C420.9,161.7,420.5,161.6,420.1,160.7z"/>
	<path fill="#FFFFFF" d="M416.2,156.9c-0.1-0.9,0.1-1.1,0.6-1.1C417.2,156.4,416.7,156.5,416.2,156.9z"/>
	<path fill="#FFFFFF" d="M412.6,154c0.5-0.5,0.7-0.9,1.2-0.6C413.8,154,413.5,154.2,412.6,154z"/>
	<path fill="#FFFFFF" d="M413.9,160.1c0.1,0.8-0.7,0.6-1,1.2C412.7,160.2,413.4,160.3,413.9,160.1L413.9,160.1z"/>
	<path fill="#FFFFFF" d="M813.4,218.3c0.2,3.4,1.3,6.5,2.6,9.5c1.8,4.5,3.5,9.1,5.3,13.6c0.6,1.5,0.2,3,0.6,4.6
		c0.9,3.2,2.6,6.1,3.7,9.2c0.7,1.8,2,3.5,4.4,3.6c0.5,0,1.1,0.3,1.5,0.7c4.6,5.3,10.7,5.4,16.9,4.5c2.6-0.4,5.2-0.6,7.6-2
		c6.4-3.7,9.7-8.9,10.1-16.3c0.2-4,1.6-8,2.1-12.1c0.6-4.7,1.5-9.4-0.3-14c-0.4-1,0.8-2.2,0.1-3.5c2,0.9,4.2,0.1,5.6,1.5
		c-1.9,10-3,19.8-3,29.7c0,6.8,2.1,13,3.7,19.4c0.5,2.2,2.4,3.7,3.6,5.7c-1,2.1-2,4.3-3.1,6.6c-2.2-1.4-4.3-2.3-6.4-0.4
		c-1.2,1.1-1.7,2.6-0.9,4.2c1.5,2.9,4,2.7,6.6,1.7c1.7,3.4,2.4,6.6,2.8,10c-4.2,5.9-9.3,11.2-12.3,17.9c-0.5,1.3-1.5,1.8-2.8,2
		c-4,0.8-8,1.7-12,2.5c-0.8,0.2-1.8,0.2-2.8,1.5c5.4-0.9,10.2-1.7,15.3-2.6c0.2,1.6-0.7,2.7-1.4,4c-3.4,1.1-7.2,0.8-10.6,2.2
		c-1,0.4-1.8-0.5-2.5-1.1c-5.1,3.5-10.8,4.2-16.3,4.7c-2.4-1.9-4-4.1-4.8-7.1c3.6,0.2,7.3,1.1,10.6-0.6c-2.9,0-5.7-0.1-8.6-0.5
		c-1.8-0.2-3.4-0.7-4.5-2.4c-0.7-1.1-1.6-2.2-2.7-2.9c-3.1-1.9-4-4.8-4.4-8.1c-0.6-4.9,0.5-9.9-0.5-14.9c-0.6-3-1.5-5.8-3.6-8
		c-1.8-2-3-4.3-4.6-6.5c1.2-3.1,2.3-6.3,3.6-9.3c1.6-3.7,2.4-7.6,2.4-11.6c0-4.4,0-8.9,0.1-13.3c0-1.8-0.4-3.4-1.4-5
		c-2.5-4.4-4-9.2-6-13.7C809,219.8,810.9,218.5,813.4,218.3z"/>
	<path fill="#FFFFFF" d="M831.7,329.6c-0.9,0.6-1.6,1.1-2.3,1.6c-4.9,3.3-9.9,6.4-16.1,6c-2.5-0.1-4.5,0.7-6,3.4
		c-1-2.4-2.7-3.3-4.8-2.8c-2.1-7.6-6.3-13.4-11.4-18.8c-3.5-3.7-5.4-8.6-8.4-12.6c-2.7-3.6-4.3-7.7-5.8-11.8
		c-1.3-3.5-1.7-7.1-1.4-10.8c0.7-6.7,1.1-13.4-1.6-19.9c-0.2-0.4-0.3-0.8,0.1-1.5c1.5,3.9,4.7,5.8,8.1,7.6c-1.3-2.7-4.5-3.8-6-6.4
		c-1.5-2.8-2.2-5.8-2.7-8.8c-0.9-0.5-0.5,0.8-1,0.8c-3-5.8-1-14.5,4.3-17.8c3.8-2.4,7.7-4.5,12.5-4.6c4.5-0.1,8.2-3.2,11.7-5.8
		c1.3-1,2.6-2,4.3-2.6c1.4,0.9,2.3,2,2.8,3.8c0.5,1.9,1,4,2,5.6c2.1,3.2,2.3,6.5,2.1,10.1c-0.3,5.4,0.6,10.8-0.8,16.1
		c-0.8,3-2.6,5.5-3.4,8.6c-0.5-2.9-0.8-5.9-2.1-8.5c-1.2-2.6-2.6-5-4.4-7.4c4.2,7.9,3.1,16.7,5.3,25.5c0.2,0.4,0.9-1,1.4-0.2
		c2.6,3.6,5.4,7,5.7,11.8c0.2,3.2,0.1,6.4,0.2,9.6c0.2,3.2,0.9,6.3,2.7,9c-2.6-1-4.3-3.2-6.5-4.8c-0.7,1.6,0.5,2.2,1.2,2.9
		c2.7,2.4,5.3,5,8.3,7.1c2.7,1.9,5.7,4.4,6.4,7.4C826.9,325,829.6,326.8,831.7,329.6z"/>
	<path fill="#FFFFFF" d="M875,313c-3.7,1.6-6.4,4.3-8.2,7.8c-1,1.9-2.2,3.2-4.8,3.4c3.6-7.8,7.3-15.3,12.1-22.4
		c2.8-4.1,6.5-7.3,10.4-10.1c3.1-2.3,3.8-5.6,5.4-8.5c-1.2,1.5-3.3,2.4-3.3,4.8c0,0.9-0.9,1.2-1.5,1.6c-1.8,1.2-3.7,2.3-5.7,3.6
		c-5.4-10.5-0.4-18.9,4.8-27.5c2.4,1,4.9-1,7.6,1.2c-2.3-4.3-6.1-4.8-8.6-1.6c-1.3,1.6-2,3.7-3.8,5.2c-3.1-3-3.8-7-4.7-11
		c-2.2-10.2-1-20.3,0.2-30.5c0.3-2.7,0.7-5.5,1.1-8.4c3.1,0.5,5.5,2,7.7,3.7c5.6,4.2,11.7,7.2,19.1,8.1c-5.1,1.8-5.9,2.7-5.1,5.9
		c1.5-0.9,1.5-0.9,2.7-3.1c1.3-0.5,2.9-0.6,4-1.5c3.8,1.6,6,4.5,7.9,7.9c1,1.9-0.5,3.4,0.2,5.3c1.3,3.8,0.5,7.9,0.3,11.9
		c0,0.4-0.1,1-0.3,1.2c-3.1,2.3-1.9,5.5-1.4,8.2c0.9,6,1,11.9-0.1,17.8c-0.6,3.4-2.2,6.5-3.5,9.6c-2.4,5.8-6,11.1-6.6,17.5
		c-2.9,1-5.1,3.2-8.5,2.3c-2.1-0.6-3.5,1.9-5.9,2.2c0.9-1.3,1.7-2.5,3-4.4c-2.8,1.1-4.3,2.8-5.8,4.6c-3.9-1.4-7.8-1.5-11.8,1
		C872.7,316.1,874,314.6,875,313c1.2-1.2,2-2.8,3.2-3.3C877.1,310.3,876.1,311.7,875,313z"/>
	<path fill="#FFFFFF" d="M843.9,221.3c-3.8,2.5-6.5,2.2-9.7-0.4c-4.7-3.8-7.5-8.6-8.5-14.5c-0.1-0.9-0.8-1.7,0.2-2.7
		c0.7-0.6-0.1-1.8-0.7-2.3c-3.8-3-3.5-7.4-4-11.5c-0.2-1.4,0-2.8-1-4.1c-0.7-0.9-0.2-1.9,0-2.8c0.4-1.7,1.6-2.9,2.4-4.2
		c2.4-3.9,4.7-7.8,7.1-11.6c0.3-0.4,0.8-0.7,1.6-0.6c0.6,1.2-1.5,1.1-1.1,2.5c2.8-0.6,6,0.5,8.8-2.1c-1.1,1.9-0.5,3,1.3,3.5
		c2.6,0.8,5.1,1.1,7.2-1.2c0.8-0.9,2-1.4,3.1-2.2c0.7,0.4,1.4,0.9,2,1.2c0.3,0.8-0.6,1.3-0.2,2.1c0.6,0.4,1.4-0.2,2.2,0.6
		c3.4,3.2,4,7.8,6.2,11.5c0.6,1,0,2.4-0.3,3.6c-1.1,4.2-0.4,8.9-3.4,12.6c-0.4,0.5-0.5,1.3-0.4,1.9c0.5,3.1-0.1,6.2,0,9.3
		c0,2,0.2,4.4-2.7,4.8c-0.7,0.1-0.5,0.9-0.7,1.4c-1.2,2.6-3.3,4.4-5.4,6.2C846.5,223.4,845,223.1,843.9,221.3z"/>
	<path fill="#FFFFFF" d="M864.5,237.7c-1.2,4.4-1,9-2.4,13.3c-0.9,2.8-2.6,5.1-5,6.9c-0.4,0.3-0.9,0.9-1.4,0.9
		c-3.7,0-6.9,1.8-10.2,3c-1.3-1.7-0.9-4-2.8-5c-1,1.5,0.1,3.1-0.6,5c-2.9,0.3-5.8,0.6-8.1-2.2c-0.4-0.5-1-0.9-1.6-1.1
		c-2.6-1.1-4.8-2.3-4.3-5.7c0.1-0.7-1.1-1.6-1.7-2.4c-1.8-2.3-2.9-4.9-2.9-7.8c2.4-0.5,4.3,2.3,6.5,0.2c4.1,1.7,8.1,4,13.3,4.6
		c-1.7-3.1-4.7-2.3-6.7-4.2c-1.1-3-3.5-5.6-5.8-8.4c-0.1,2.7,1.5,4.7,2.7,7.2c-2.2-0.3-4.3-1.6-5.9,0.2c-3.3-1.2-5.2-3.1-6.2-6.5
		c-1.5-4.9-3.8-9.7-5.8-14.7c3-2.9,6.6-4.9,10.6-6.7c1.9,4.8,6.7,7.1,9.4,11.2c2,0,3.9,0,5.6,0c0.9,0.7,0,1.6,0.9,2.4
		c0.8-3.1,3.8-2.2,5.6-3.6c1,0.3,0,1.3,1.1,1.7c2.1-4.6,5.8-8,9.1-11.9c2.5,1.4,4.8,2.7,7.5,4.2
		C866.4,224.6,866.2,231.2,864.5,237.7c-3.8,1.5-8.1,2-10.4,6.1c-0.9,1.6-3.1,1-4.2,1.9c2-0.5,3.8-1.7,5.5-3.6
		C857.8,239.6,861.2,238.5,864.5,237.7z"/>
	<path fill="#FFFFFF" d="M827.6,344.5c2.8-2.8,4.4-6,8-7.3c1.3,1,1.5,3.4,3.9,3.8c-0.1-2-1.5-3.5-2-5.3c3.2-2.8,7.2-4.3,10.7-6.5
		c2.1,0.3,3.6,1.6,5.4,3.1c-4.6,3.1-8.2,7.1-11.9,11c-2.5,2.7-5.6,1.2-8.5,1.2C831.5,344.5,829.8,344.2,827.6,344.5z"/>
	<path fill="#FFFFFF" d="M874.5,342.3c-1.3-2.2-3.2-4-4.9-6.3c2.1-1.6,4.3-2.7,6.3-4.2c3.6-2.6,7.4-3.3,11.5-3.6
		c2.4-0.2,3.4-2.5,6.2-3.6c-2.1,2.8-3.8,5.1-5.8,7c-1.8,1.8-3.6,3.5-5.1,5.6C880.8,339.8,878.3,341.7,874.5,342.3z"/>
	<path fill="#FFFFFF" d="M868.1,329.9c-1.9-1.5-2-4.9,0-6.5c3.5-2.6,7.3-4.6,11.9-3.8c2,0.3,3.9,0.8,5.8,1.2
		c1.1,0.2,2.2,0.3,2.6,1.7c-1.4,1.1-2.1-0.7-3.2-0.8c-4.1-0.3-8.1-0.7-12.2,0.3c-3.6,0.9-4,1.4-4.1,5.2c0,0.5-0.1,1.1-0.2,1.6
		C868.7,329.2,868.4,329.4,868.1,329.9z"/>
	<path fill="#FFFFFF" d="M865,349.6c-1.5,4.1-4.5,6.9-7.4,9.8c-2.9,3-6.2,5.6-8.6,9.5c-1.2,0.2-2.5,1.6-4.8,0.4
		c6-2.7,9.2-7.7,12.9-12.2c0.1-0.2,0.3-0.4,0.4-0.5C860.6,354.8,863.5,353,865,349.6z"/>
	<path fill="#FFFFFF" d="M875.3,345.1c1.9-0.9,3.4-1.6,5-2.4c0.7,2.9-3.1,7.4-6.9,7.8C874.4,348.8,875.3,347.1,875.3,345.1z"/>
	<path fill="#FFFFFF" d="M852.2,322.6c2.9-0.9,5.4-1,8-0.9c-0.4,1.8-0.7,3.5-1.1,5.3C856.3,326.2,854.5,324.3,852.2,322.6z"/>
	<path fill="#FFFFFF" d="M870.9,327c0.9-3,5.2-4.2,11.4-3C878,324.8,874.5,325.9,870.9,327z"/>
	<path fill="#FFFFFF" d="M873.4,281.6c-1.9-0.5-2.6,0.2-2.1,1.9c-1.8,0-2.4-0.9-2.5-2.2c0-0.9,0.4-1.7,1.4-2
		C871.8,278.9,872.8,279.3,873.4,281.6z"/>
	<path fill="#FFFFFF" d="M881.5,326.2c-1.6,1.6-3.7,2.2-5.6,3.2c-1.1,0.6-2.1,0.7-2.6-1C875.9,327.2,878.6,326.5,881.5,326.2
		L881.5,326.2z"/>
	<path fill="#FFFFFF" d="M844.4,437.3c0,2,1.4,3.9,0.1,6c-1-0.7-1.1-1.9-1.6-3C843.5,439.2,844,438.3,844.4,437.3L844.4,437.3z"/>
	<path fill="#FFFFFF" d="M837.8,163.1c-1.4,1.5-2.7,2.3-4.8,2.6C834.3,163.9,835.2,162.4,837.8,163.1z"/>
	<path fill="#FFFFFF" d="M817.6,190.4c-1-1.1-1.9-2.1-1.7-3.7C818.4,188.3,818.4,188.3,817.6,190.4z"/>
	<path fill="#FFFFFF" d="M833.2,154.7c-2.2,2.2-2.2,2.2-4.3-0.6C830.6,154.7,831.9,154.7,833.2,154.7z"/>
	<path fill="#FFFFFF" d="M846.9,147.7c1.4,0.4,2.4,0.6,3.4,0.9c-0.4,1.2-1.4,1.2-2.1,1.7C847.3,149.9,847.4,148.9,846.9,147.7z"/>
	<path fill="#FFFFFF" d="M863.3,190.1c-0.7-2.9,0.8-4.1,2.3-5.2C865,186.5,864.3,188,863.3,190.1z"/>
	<path fill="#FFFFFF" d="M832.2,327.4c1.8-0.4,3.3-0.2,4.5-1C833.9,328.6,833.9,328.6,832.2,327.4z"/>
	<path fill="#FFFFFF" d="M815.1,583.9c-0.1,1.2-0.2,2.4-0.4,3.5C814,586.1,813.5,584.8,815.1,583.9z"/>
	<path fill="#FFFFFF" d="M818.1,183.3c-0.6-1.3-1.1-2.1-1.5-3C818.8,181.3,818.8,181.3,818.1,183.3z"/>
	<path fill="#FFFFFF" d="M821,164.5c0-1.4,0.1-2.2,1.1-2.8C822.4,162.7,822.7,163.6,821,164.5z"/>
	<path fill="#FFFFFF" d="M822.8,167.9c0.1-1.2,0.3-1.7,1.4-1.4C824.4,167.5,823.8,167.7,822.8,167.9z"/>
	<path fill="#FFFFFF" d="M828.5,151.3c0.2-0.9,1-1,1.8-1.6C830.3,151.1,829,150.7,828.5,151.3z"/>
	<path fill="#FFFFFF" d="M842.4,434.5c0.1,1.2,0.1,2.3-0.7,3.3C841.4,436.7,841.5,435.5,842.4,434.5L842.4,434.5z"/>
	<path fill="#FFFFFF" d="M841.9,162.7c0.6-1.1,1.3-1.7,2.6-2.2C843.8,161.8,843.3,162.6,841.9,162.7z"/>
	<path fill="#FFFFFF" d="M881.5,326.2c1-0.5,1.9-0.9,3.3-1.6C884,326.5,882.6,326.2,881.5,326.2L881.5,326.2z"/>
	<path fill="#FFFFFF" d="M820.7,155.2c-0.4,1-1,1.4-2.3,1.8C819.1,155.9,819.5,155.3,820.7,155.2z"/>
	<path fill="#FFFFFF" d="M819.7,171.7c0.6,0.9,0.4,1.4-0.7,1.7C818.4,172.4,818.9,172,819.7,171.7z"/>
	<path fill="#FFFFFF" d="M887.1,325.3c0.4-0.8,1-0.9,2-0.9C888.6,325.3,888.2,325.7,887.1,325.3z"/>
	<path fill="#FFFFFF" d="M849.8,162.2c0.2-0.9,1-1,1.7-1.2C851.3,162.1,850.5,162.2,849.8,162.2L849.8,162.2z"/>
	<path fill="#FFFFFF" d="M848.3,156.6c-0.5,0.3-0.8,0.4-1,0.5c-0.1-0.2-0.2-0.4-0.2-0.5C847.2,156.3,847.5,156.3,848.3,156.6z"/>
	<path fill="#FFFFFF" d="M854.5,163.8c0.6-0.3,0.9-0.2,1.1,0.2c0,0.1-0.1,0.4-0.3,0.5C854.8,164.6,854.5,164.5,854.5,163.8z"/>
	<path fill="#FFFFFF" d="M844.5,437.3c0-0.5,0.1-1.1,0.1-1.8C845,436.3,844.9,436.8,844.5,437.3L844.5,437.3z"/>
	<path fill="#FFFFFF" d="M849.7,162.1c-0.2,0.8-0.8,1-1.4,1.2C848.3,162.3,849,162.2,849.7,162.1L849.7,162.1z"/>
	<path fill="#FFFFFF" d="M425.1,603.5c4.1,1.1,8.3,1.6,12.4,3.2c-1.1,2.6-1.3,5.3-1.2,8c-1.2,0.7-2.2,0.5-3.3,0.3
		c-0.3-0.8,0.7-1.4-0.2-2.6c-3.2-1-6.7-0.6-10.2,0.6C420.6,607.9,421,606.3,425.1,603.5z"/>
	<path fill="#FFFFFF" d="M441.5,609.9c-0.9,0.7-1.8,1-2.6-0.1C439.9,608.1,440.7,609.4,441.5,609.9z"/>
	<path fill="#FFFFFF" d="M856.6,610.9c-0.9-3.2-1.9-5.9,0.7-8.4c0.8-0.8,1.7-1.4,2.9-1.1c3.7,1.1,7.5,1.5,11.3,2.9
		c-0.8,2.7-1.1,5.4-1.3,8c-1,0.5-2,0.4-3.1,0.2c0.9-1.9,0.1-2.9-1.8-2.9C862.5,609.7,859.6,609.5,856.6,610.9z"/>
	<path fill="#FFFFFF" d="M854.7,614.1c1.7-0.1,3,0,3.9,1.2c-0.8,0.9-2.4,0.5-3.1,2.5c3,2.8,6.9-0.2,10.3,1.1
		c-1.8,0.7-3.6,0.8-5.3,0.9c-1.8,0.1-3.5,0.4-5.5,0.6C854,618.5,854.5,616.4,854.7,614.1z"/>
	<path fill="#FFFFFF" d="M875.9,607.4c-1.3,0.9-2.1,0.8-3,0C873.9,606.4,874.7,606.7,875.9,607.4z"/>
	<path fill="#FFFFFF" d="M381.3,595.4c1.1,0,2.2,0.1,2.5,1.5c-0.4,0.9-1.1,0.7-1.9,0.7C381.7,596.8,381.5,596.1,381.3,595.4
		L381.3,595.4z"/>
	<path fill="#FFFFFF" d="M380.6,589.4c-0.7-1.2-0.8-2.3,0.2-3.4C380.7,587.1,380.6,588.3,380.6,589.4z"/>
	<path fill="#FFFFFF" d="M441.7,286.3c-2.2-0.4-2.8-1.3-2.7-2.7c0.1-0.9,0.6-1.7,1.6-1.8c1.4-0.2,2.4,0.3,2.8,1.9
		C443.1,284.7,440.1,283.7,441.7,286.3z"/>
	<path fill="#FFFFFF" d="M425.9,283.5c-1,1.1-1.9,0.8-2.9,0.6C423.8,282.4,423.8,282.4,425.9,283.5z"/>
	<path fill="#FFFFFF" d="M434.5,284c-0.1,1.3-0.8,2.1-2.1,2.1c-1.4,0-2.3-0.9-2.3-2.3c0-1.2,0.8-2.1,2.1-2.1
		C433.7,281.8,434.5,282.6,434.5,284z"/>
	<path d="M337.4,232.6c7.4-2.5,14.8-3,22.5-1.5c2.2,0.4,2.3,0.5,3.9,2.3c-9-2.3-17.8-3.5-26.2,1.2
		C336.9,233.7,337.8,233.2,337.4,232.6L337.4,232.6z"/>
	<path d="M290.6,265.6c1.7,1,1.1,2.2,0.4,3.2c-1.6,2.5-4,4.6-3.5,8.1c-1.8-0.2-2.1-1.1-2.1-2.1C285.5,272.4,288.2,267.4,290.6,265.6
		z"/>
	<path d="M299.8,255.9c3.3-1.4,6.2-3.9,10.2-3.6C306.4,253,303.8,256.5,299.8,255.9z"/>
	<path d="M317.7,250.5c-1.7,1.8-3.8,1.9-6.6,1.9C313.4,250.6,315.3,250,317.7,250.5z"/>
	<path d="M289.5,260.1c1.8-0.5,2.5,0.4,2.8,1.5c0.3,1.4-0.1,2.5-1.6,3.4C289.7,263.3,290.7,261.5,289.5,260.1z"/>
	<path d="M340,248.5c2.1-1.4,4.1-1.6,6.4-2C344.3,248.2,343.4,248.4,340,248.5z"/>
	<path d="M355.5,245.4c1.7-2,3.2-1.4,4.7-1.2C359,244.9,357.6,245.5,355.5,245.4z"/>
	<path d="M362.9,244.4c0.8-1.6,1.9-1.9,3.8-0.8C365.1,243.9,364,244.2,362.9,244.4z"/>
	<path d="M367.5,232.7c-0.7,1-1.4,1.1-2.4,0.4C366.2,232.2,366.2,232.2,367.5,232.7z"/>
	<path d="M263.9,269.1c-1,1-1.7,1.7-2.8,1.3C261.6,269.3,262.3,268.7,263.9,269.1z"/>
	<path d="M332.1,239.4c0.8-1.4,1.4-2.2,2.7-2.4C334.7,238.5,333.7,238.9,332.1,239.4z"/>
	<path d="M369.7,243.3c-0.7,0.7-1.2,0.8-1.7,0.2C368.3,242.8,368.8,242.6,369.7,243.3z"/>
	<path d="M412.6,229.9c-0.2,5.4,0.3,11-3.3,15.7c-1-0.4-1.5-0.8-1.3-1.4c1.2-4.9,2.5-9.7,3.8-14.5
		C412.1,229.8,412.4,229.8,412.6,229.9z"/>
	<path d="M394.9,231.1c3.5,2.8,6.4,6.5,6.9,8.9C398.4,239.3,394.4,234.2,394.9,231.1z"/>
	<path d="M394.3,227.5c-2.1-3-3.5-6.3-3.3-10.1C393.8,220.1,393.8,223.9,394.3,227.5z"/>
	<path d="M421.7,241.1c-2.3,1.4-4.2,3.3-6.8,4.1c-0.2-0.3-0.3-0.5-0.5-0.8c2.2-1.3,4.5-2.7,6.7-4
		C421.3,240.6,421.5,240.8,421.7,241.1z"/>
	<path d="M414.5,226.8c0-1.9,0.1-3.7,1.9-5.4C416.2,223.7,415.9,225.4,414.5,226.8z"/>
	<path d="M399.1,208c5-1.9,10.2-0.3,15-1.6c0.7-0.2,1.5,0.4,1.7,1.8c-3.7,1.5-7.8,0.8-11.7,1.4C402.8,209.9,400.5,210.8,399.1,208z"
		/>
	<path d="M423,181.4c-4.6,2.5-10.9,1.5-14.3,6.8c-0.7-4-0.1-5.1,3.4-6.2c3.1-1,6.4-1.1,9.7-1.5C422.3,180.3,422.8,180.6,423,181.4z"
		/>
	<path d="M403.2,183.8c-4.5,0.4-9,0.7-13.7-0.4C392.2,180.9,399.7,181,403.2,183.8z"/>
	<path d="M403.2,186.6c-3.2,2.3-8.1,2.4-11.1,0.3C395.5,186.1,398.9,185.4,403.2,186.6z"/>
	<path d="M421.3,186.2c-3.1,0.5-6,2.7-9.9,0.1c3.5-1.8,6.6-1.4,9.7-1.5C421.2,185.3,421.3,185.7,421.3,186.2z"/>
	<path d="M403.2,202.6c-1-1-0.7-1.7-0.1-2.9c2.8,3.1,5.6-0.6,8.9-0.1c-0.8,2.4-2.1,3.3-4,3.3C406.4,202.8,404.8,202.1,403.2,202.6z"
		/>
	<path d="M403.4,213.4c2.8-3,5.6-1.9,8.5-1.3C410.2,214.5,407.8,214.9,403.4,213.4z"/>
	<path d="M421.1,197.8c0.9,0.9,0.4,1.4-0.3,2C420.3,199.1,420.2,198.5,421.1,197.8z"/>
	<path d="M218.5,294.2c-1.2-3.9-0.4-5,3.6-4.5C220,290.8,219.1,292.3,218.5,294.2z"/>
	<path d="M844.4,287.1c1.2,1.2-0.2,2.5,0.2,4c3.7,1.8,7.6,3.7,11.5,5.7c-0.1,0.2-0.2,0.4-0.2,0.6c-4.9-0.7-10-0.7-13.9-4.9
		C843.3,291,842.2,288.4,844.4,287.1L844.4,287.1z"/>
	<path d="M857.1,285.4c-2,0.4-2-1.7-3.5-1.9c-1.1,0.1,0,2.3-1.9,2.2c-1-2.1-0.6-4.5-0.7-6.8c1.3-0.8,2.7-0.7,3.9-0.5
		c1.9,0.2,3,1.6,2.1,3.2C856.2,283,856.9,284.1,857.1,285.4z"/>
	<path d="M862.2,285.1c-2.1,0-3.9-1.6-4-3.7c-0.1-2.1,1.7-3.9,4-4c2.2,0,3.9,1.5,3.9,3.6C866.3,283.3,864.4,285.1,862.2,285.1z"/>
	<path d="M844.2,266.2c2.9,3.5,0.9,7.4,1.1,11.1c-0.3,0-0.6,0.1-0.9,0.1c-0.5-3.7-0.9-7.4-1.4-11
		C843.4,266.3,843.8,266.2,844.2,266.2z"/>
	<path d="M829.8,321.4c5,0.9,9.8-0.9,14.8-0.8C839.8,321.9,834.9,323.3,829.8,321.4z"/>
	<path d="M858.4,295c3.2,0.5,5.8,1.4,8.8,1.4C863.2,298.7,860.1,298.3,858.4,295z"/>
	<path d="M822.1,302.9c2.6-1.6,5.3-2.4,9-1.6C828.1,304.2,824.9,302.5,822.1,302.9z"/>
	<path d="M844.5,287.2c0-2.8-1.7-5.6,0-9.3C845.8,281.5,845.9,284.3,844.5,287.2L844.5,287.2z"/>
	<path d="M820.7,298.8c2.7,0,5.5,0,8.2,0c-2.8-0.1-5.5,2.7-8.5,0.3C820.5,299,820.6,298.9,820.7,298.8z"/>
	<path d="M864,308.1c-1.4,1.8-3.3,2.1-6.2,2.2C860.2,308.9,862.1,308.4,864,308.1z"/>
	<path d="M854.4,270c-1.5,1-3,1.8-5.3,2.1C850.8,269.6,852.8,270.4,854.4,270z"/>
	<path d="M835.9,272.5c1.3-1,2.5-0.7,4,0.3C838.3,273.5,837.1,273,835.9,272.5z"/>
	<path d="M870,295.4c1.6-0.7,2.6-0.7,4,0C872.7,296.4,871.6,296.6,870,295.4z"/>
	<path d="M836.8,296.6c-0.7,1.7-1.3,1.9-2,1.2C834.8,296.6,835.7,297.2,836.8,296.6z"/>
	<path d="M840.6,296c0.3-1,0.5-1.6,1.5-1.6C842.3,295.4,841.8,295.8,840.6,296z"/>
	<path d="M820.4,299.1c-0.4-0.1-0.9,0-1-0.6c0.6-0.8,1-0.3,1.3,0.3C820.6,298.9,820.5,299,820.4,299.1z"/>
	<path d="M865.1,268.7c0.8-0.6,1.3-0.5,1.3,0.2C866.4,269.1,865.7,269.1,865.1,268.7z"/>
	<path d="M794.2,311c1.3,0.3,1.5,1.3,2.1,1.8c4.9-3,9.1,1.3,13.4,0.9c3.7,3,4.7,7.9,9,10.2c-2.4-0.2-3.8-1.8-5.3-3.3
		c-3.2-3.2-6.7-5.7-11.5-5.5c-1.8,0.1-3.6-0.6-5.5-0.2C794.5,315.2,793.6,313.3,794.2,311z"/>
	<path d="M813.3,336.4c-4.3-3-11.6-15.2-12.8-21.2c3.1,1.9,4.8,4.4,6.7,6.7c-0.8,1-1.2-0.4-2,0.3c1,1.3,1.9,2.6,2.9,3.9
		c0.8,1.1,1.5,2.2,2.1,3.4C811.2,331.8,810.6,334.8,813.3,336.4z"/>
	<path d="M795.4,292.3c0.9,0.9,0.6,1.7,0,2.2c-2.7,2.7-2.4,6-2.2,9.4c0.1,1.6,0.1,3.3,0,5c0,1,0,2-1.7,2.5c-1.4-3.3-1.2-6.6-0.2-9.8
		c0.4-1.2,0.7-2.3,0.6-3.5C791.9,295.3,793.4,293.7,795.4,292.3z"/>
	<path d="M809.3,240.4c0.5,2.3,0.2,4.1-1.6,5.5c-2.3-1.4-0.5-3.1-0.6-4.9c-3-1.7-5.2-5.5-9.8-3.9c2.2-2.5,2.5-2.3,5-1.1
		C804.7,237.3,806.5,239.5,809.3,240.4z"/>
	<path d="M801.6,272.3c0.4,2.6-0.6,3.6-4.5,4.3C798.4,274,799.4,273,801.6,272.3z"/>
	<path d="M798.5,299.7c3.4,0.2,5.6,1.3,8,3.4C803.3,303.3,802.7,303,798.5,299.7z"/>
	<path d="M787.8,254.6c-1.9-2.3-0.8-4.4,0.4-7.2C789.6,250.3,787.7,252.4,787.8,254.6z"/>
	<path d="M788.3,246.3c-0.8-3.6-0.4-4.5,2.1-5.3C790.3,243,788.2,244.2,788.3,246.3z"/>
	<path d="M806.9,249.3c0.2,1.7,0.9,3.6-0.7,5.3C805.8,252.4,805.8,252.4,806.9,249.3z"/>
	<path d="M791.1,279.4c0.7-1.5,1-2.6,2.6-2.6C793.7,278.3,792.8,278.8,791.1,279.4z"/>
	<path d="M819.7,325.2c0.5,0.1,0.8,0.4,0.9,0.9C819.9,326.2,819.6,326,819.7,325.2z"/>
	<path d="M879.8,234.3c0.4,3.9-4.1,7.3,0,11.2c-2.9-1.2-4.1-4.3-3.5-7.3c0.7-3.3,2.9-5.3,5.4-7.2c1.1-0.9,2.4-1.5,3.7-2.3
		c1.8,1.5,0.8,2.5-0.6,3.2C883.1,232.7,881.4,233.5,879.8,234.3z"/>
	<path d="M901.3,290.5c-0.8-0.2-1.4-0.5-1.9-1.5c2.5-3.7,6.5-3.2,10.3-4c0,2.1-1.3,2.7-2.5,2.5c-2.6-0.3-4.1,0.9-5.4,2.7
		C901.8,290.7,901.6,290.7,901.3,290.5z"/>
	<path d="M875,313c-0.3-1.2-0.1-2.3,0.7-3.1c2.2-2,5.3-2.4,7.8-4.2C880.4,307.9,879.3,312.3,875,313L875,313z"/>
	<path d="M891,241.7c-3,3.5-1,8.3-3,11.9c-1.1-0.2-1.2-0.8-1.3-1.3c-0.2-3.1,1.2-6,1.6-9C888.5,242.4,889.5,241.7,891,241.7z"/>
	<path d="M901.7,290.3c1.6,2.7,1.1,4.9-1.8,6.6c-1.1-2.5,0.8-4.3,1.4-6.3C901.4,290.5,901.6,290.4,901.7,290.3z"/>
	<path d="M883.5,255.5c-1.2,3.1-1.4,5.5-0.8,8.2C879.4,262.1,879.6,258.5,883.5,255.5z"/>
	<path d="M896.1,277.2c-1,1.3-2,2.5-3.1,3.8c-0.1,0.1-0.4,0.1-0.6,0.1C892.5,278.8,892.8,278.4,896.1,277.2z"/>
	<path d="M896.8,267.1c-1.4,0.1-2.2-0.4-2.8-1.6C895.4,265.1,896.1,265.7,896.8,267.1z"/>
	<path d="M896.9,256.9c-0.4,1.8-0.8,2.8-2.5,3.1C894.6,258.5,895.4,257.8,896.9,256.9z"/>
	<path d="M888.9,303.3c0-1.1,0.4-1.2,1.1-1.1C890.4,303.2,889.7,303.2,888.9,303.3z"/>
	<path d="M894.7,301.5c0.1-0.6,0.3-1,1-0.8C895.9,301.7,895.5,301.9,894.7,301.5z"/>
	<path d="M886,303.9c-0.1,0.9-0.3,1.3-1,1C884.7,304.2,885.1,304,886,303.9z"/>
	<path d="M891.5,311c0.1,0.9-0.3,1.2-0.9,1.3C890.1,311.4,890.3,311,891.5,311z"/>
	<path d="M847.2,188c-2.5-0.6-2.8,2.1-4.6,3c-0.6-1.9,0.3-3.4,0.8-5c4.4-1.9,8.9-2.5,13.6-2.1c-1.9,2-4.7,1.8-7,2.9
		C849,187.2,847.8,187,847.2,188L847.2,188z"/>
	<path d="M849.7,211.4c-5.4,0.2-10.6,2.1-16,0.9c-0.2-1.6,0.5-2,1.3-1.9c2.6,0.2,5.2-0.7,7.9-0.4c1.3,0.2,2.6,0.2,3.9-0.3
		C848.2,209,849.1,209.5,849.7,211.4z"/>
	<path d="M823.7,186.5c2.5-2.5,10.3-2.4,14.3,0.3C833,187.8,828.5,187.1,823.7,186.5z"/>
	<path d="M836.8,189.9c-3.4,2.5-7,1.3-10.6,0.3C829.8,189.3,833.2,188,836.8,189.9z"/>
	<path d="M837.1,205.5c-0.6-0.9-0.8-1.5-0.1-2.2c1.5-0.6,2.8,1.1,4.6,0.5c1.2-0.5,2.5-2.7,4.3-0.7
		C844,207.8,840.1,204.8,837.1,205.5z"/>
	<path d="M847.1,188.1c2.8,0.4,5.7-0.9,8.5,0.6c-3,0.9-5.9,3.2-9.1,1.3C846.1,188.8,847,188.6,847.1,188.1L847.1,188.1z"/>
	<path d="M837.5,216.1c2.7-2.5,5.6-1.5,8.8-1.1C844,217.7,841,218,837.5,216.1z"/>
	<path d="M854.8,202.9c-0.6-0.9-0.5-1.6,0.6-2C855.9,201.7,856,202.4,854.8,202.9z"/>
	<path d="M842.7,193.5c-0.4-0.4-0.3-0.8,0.2-1c0.1,0,0.2,0,0.3,0.1C843.4,193.1,843.2,193.4,842.7,193.5z"/>
	<path d="M864.5,237.7c-6.5,3.3-11.7,8.8-18.6,11.6c-1.3-2.5,1.2-4.5,7.2-5.8C855.3,239.7,860.5,237.1,864.5,237.7L864.5,237.7z"/>
	<path d="M827.9,227c-2.8-5.4-3.4-8.7-1.8-10.5C827.9,219.7,828.3,223,827.9,227z"/>
	<path d="M844.5,242.5c0.4-2.4,0.9-4.5,2.3-6.7C847.3,240.4,847,241.2,844.5,242.5z"/>
	<path d="M828.9,230.3c1.1,0.5,1.5,1.5,1.6,3.1C829.3,232.4,828.9,231.5,828.9,230.3z"/>
	<path d="M843.4,251.6c-0.6-1-0.6-1.9,0-3C844.9,249.7,845,250.6,843.4,251.6z"/>
	<path d="M843,252.6c0.9,1.4,0.3,1.9-0.8,2.6C841.5,253.9,842.3,253.4,843,252.6z"/>
	<path fill="#FFFFFF" d="M852.5,281.1c1.2-1.8,2.1-1.5,3.2-0.3C854.8,281.9,853.9,281.9,852.5,281.1z"/>
	<path fill="#FFFFFF" d="M864.4,281.2c0,1.4-0.7,2.4-2.2,2.4c-1.3,0-2.1-0.8-2.2-2.1c-0.1-1.4,0.7-2.3,2.2-2.3
		C863.5,279.1,864.3,279.8,864.4,281.2z"/>
</g>
</svg>
