<?xml version="1.0" encoding="utf-8"?>
<!-- Generator: Adobe Illustrator 19.1.0, SVG Export Plug-In . SVG Version: 6.00 Build 0)  -->
<svg version="1.2" baseProfile="tiny" id="Layer_2" xmlns="http://www.w3.org/2000/svg" xmlns:xlink="http://www.w3.org/1999/xlink"
	 x="0px" y="0px" width="900px" height="600px" viewBox="144 97 900 600" xml:space="preserve">
<g>
	<path d="M1011.9,442.8c-0.5,0.4-0.9,0.8-1.3,1.1c-1.7,0-2.1-1.7-3.5-2c-0.3,0.1-0.8,0.2-1.2,0.5c-3.6,2.1-7.2,4.2-10.8,6.3
		c-1.9,1.1-3.8,1.4-6,1.2c-2-0.3-4.1-0.1-6.7-0.1c-5.3,3.8-10.6,8.5-17.4,10.5c-2.2-0.4-2-2.6-3.3-3.6c-2.7-1-4.8,1.4-7.2,1.6
		c-1.8-0.2-2.6-1.8-3.8-2.8c-1.1,0.4-2.2,0.8-3.3,1.2c-1.7-0.5-2.2-2.9-4.3-3.1c-1.8,0.6-3.7,1-5.5,1.7c-3.3,1.3-6.3,0.7-9-1.5
		c-0.6-0.5-1.3-1-1.9-1.5c-2.1-2-3.2-4.3-3-7.3c0.2-3.7,0.1-7.4,0.1-11.1c0-1.4,0-2.9-0.6-4.5c-1.8-1.3-4-2.6-6.4-2.8
		c-4.7-0.4-8.6-2.5-12.6-5.1c-3.5,0.6-7.1-0.5-10.6-1.4c-3.3,0.5-6.4,0.9-9.5,1.9c-1.8,0.5-3.4,1.3-5.5,0.8c-1.4-0.3-3,0.7-4.7,1.2
		c-1.4,2.8-4.5,3.9-6.4,6.2c-0.2,0.3-0.9,0.2-1.4,0.2c0.2-0.8,0.1-1.6-0.3-2.3c-0.6-0.1-1.3,0.2-1.9-0.7c0.3-2.3,0.5-4.7,1.5-7.1
		c1.3-3.2,3.5-6.2,3-9.9c3.8-4.4,8.7-6.7,13.7-8.7c2.1-0.8,4.2-1.6,6.1-2.7c3.3-1.9,6.4-4.2,9.4-6.6c4.8-3.8,8.4-8.3,10.9-13.8
		c1-2.2,2.1-4.3,3.4-6.4c3.1-5,6-10.3,11.5-13.2c0.5-0.3,1-0.8,0.7-1.6c-0.4-0.1-0.9-0.3-1.3-0.4c-3.1-0.7-4.7-2.6-4.6-5.8
		c0.1-2.3-1-4.3-1.4-6.6c-2.5,13.1-4.9,19.8-9.7,26.2c-1.2,7-5.1,12-10.9,15.6c0,0.7,0,1.1,0,1.6c-0.3,0.3-0.7,0.6-1,0.9
		c0,0.3,0,0.6,0,1c-0.4,1.5-1.8,1.8-2.9,2.2c-3.6,1.5-7.2,2.8-10.8,4.2c-0.7,0.3-1.5,0.4-2.3,0.6c-4.7,1-9.4,1.8-14,3.1
		c-8.3,2.3-16.2,1.7-23.8-2.2c-0.9-0.4-1.7-0.9-2.2-1.1c-2.8,0-5.2,0.2-7.6-0.1c-2.5-0.3-5-1-7.9-1.6c-1.2,3.4-3.3,6.4-5.4,9.4
		c-0.4,0.5-0.5,1.2-0.7,1.8c-1.4,6.2-3,12.4-2.4,19c0.2,2.7,0,5.4,0,8.2c0,0.8-0.2,1.6,0.7,2.5c3.4-0.6,7-0.7,10.6-0.7
		c2.1-3.7,5.2-6.2,8.5-8.5c4.6-3.2,9.4-6.1,14.4-8.7c4.4-2.3,8.2-5,9.4-10.1c0.8,0,1.1,0.3,1.5,0.9c-0.3,2.2,0,4.6-1.2,7
		c-0.8,0.4-1.6,1-2.5,1.3c-5,1.8-9.6,4.5-14.1,7.3c-4.2,2.6-8.5,5.2-12.1,8.7c-0.6,0.6-1.6,1.2-1.4,2.3c0.4,0.6,1.1,0.6,1.7,0.6
		c2.6,0,5.1,0,7.7-0.2c4.1-0.4,7.8-1.8,11-4.3c1.6-1.3,3.4-1.7,5.4-1.7c3.8-0.1,7.7-0.2,11.5,0.7c0,0.6,0.1,1.3-0.7,2.2
		c-3.8,1.5-8.2,0.2-12.7,1c-1.9,0.9-3.5,2.8-6,3.4c-7,1.7-13.9,3.8-21.3,2.7c-1.4-0.2-2.9-0.5-4.3-0.4c-1.7,0.1-3.5,0.5-5,0.7
		c-1.1,0.9-0.7,2-0.7,2.9c0,2.7,0.1,5.5,0,8.2c-0.1,2.3,0.4,4.4,1.3,6.5c1.3,2.8,2.3,5.7,2.2,8.8c-0.2,0.8-0.7,1.4-1.5,1.7
		c-1.1,0-1.9-0.6-2.1-1.6c-1.3-6.4-3.8-12.6-3.3-19.4c0.3-4.5,0.2-9-0.8-13.4c-0.3-1.2-0.2-2.5-0.3-3.8c0.4-0.7,0.7-1.4,1.2-2.3
		c-0.3-2.4,0-5-1-7.5c-0.3-0.7-0.4-1.7-0.2-2.3c1.1-3,1.2-6.2,2.9-9c0.2-0.4,0.5-0.9,0.4-1.3c-0.5-2.6,0.9-4.6,2-6.7
		c1.7-3.2,3.9-6.2,4.7-9.9c0.2-0.7,0.8-1.3,1-1.6c0.7-5,1.4-9.4,2-13.7c-0.5-4-2.6-7.6-2.2-11.9c1.9,2.2,3.3,4.8,3.9,7.4
		c1,4.9,1.5,9.8-0.1,14.7c-0.3,1.1-0.6,2.2-0.8,3.3c-0.1,0.7,0.1,1.2,0.7,1.7c1.1,0.7,1.7-0.4,2.7-1c1.8,0.3,3.9,0.2,5.9-0.3
		c0.9-0.2,1.9-0.2,2.9-0.2c6.5,0.1,12.8-1,19.1-2.3c0.9-0.2,1.9-0.4,2.8-0.4c1,0,1.8,0.5,2.1,1.7c0,1.1-0.7,1.8-1.6,2.2
		c-2.6,1.4-5.3,2.2-8.2,2.7c-2.2,0.4-4.4,0.8-6.9,1.2c1.6,1.9,3.5,2.3,5.3,2.6c6.1,1.1,12.1,1,18.1-0.7c4.9-1.4,9.9-2.6,14.8-4.2
		c4.5-1.5,8.3-4.1,12-7c0.5-0.4,1-0.9,1.3-1.4c3.2-4.6,6.5-9.2,9.6-13.9c2.7-4.1,4.5-8.5,4.1-13.5c0.7-0.6,1.3-1.1,2.2-1.8
		c0.5-1.9,1-4.1,1.5-6.3c0.1-0.5,0.3-1,0.2-1.4c-1-3.1-0.7-6.3-0.8-9.5c0-1.2-0.7-2.1-1.5-3c-3.2-3.5-7-6.1-11.7-7.3
		c-4.7-1.2-9.4-2-14.3-1.4c-1.9,0.2-3.9,0.2-5.8,0c-2.1-0.2-4.1-0.4-6.2-0.3c-5.3,0.3-9.9-1-13.1-5.8c-4.6-0.9-9.1-1.8-13.7-2.5
		c-1.1-0.2-2.2-0.1-3.3,0.1c-5.7,0.8-11.4,1.7-17.1,2.5c-5.4,0.7-10.8,1.9-16.2,1.5c-2.4-0.2-4.8,0.2-7.1,1.1
		c-6.6,2.4-13.4,4.5-19.9,7.2c-3.5,1.5-7.1,2.9-11.1,3c-2.1,0.1-4,1.1-5.8,1.9c-2.4,10.6-4,21-2.3,31.7c0.6,3.9,0.4,8,0.7,12
		c0.2,3,0.1,6.1,1.5,8.9c0.4,0.8,0.3,1.9,0.3,2.8c0.2,6,1,11.8,2.7,17.5c2.3,7.7,5.1,15.2,8.2,22.6c3.8,9.1,8.7,17.5,13.1,26.2
		c1.4,2.9,3.3,5.5,5,8.2c1.6,2.6,3.2,5.2,4.7,7.8c2.2,3.9,4.9,7.5,7.4,11.2c1.6,2.4,4,3.5,6.9,3.9c4.3,0.5,8.5,1.2,12.8,1.8
		c1,0.1,1.9,0.2,2.9,0.3c7.1,0.1,14.1,0,21-2c2.8-0.8,5.6-1.2,8.8-1c5.5,3.8,12.1,5.4,19.3,6.5c-1.8,2.4-3.5,2.3-5.2,2
		c-4.9-1-9.6-2.4-13.9-5.1c-0.7-0.4-1.4-0.8-2.2-1.3c-10,3.3-20.2,4.1-31.3,3.2c-1.3,0.3-3.1,0.8-4.8,1.3c-3.3-0.5-6.5-0.9-9.7-1.4
		c-2.8-0.4-5.2-1.8-7.1-3.8c-1.7-1.9-3.2-4-4.6-6.1c-3.4-5.1-5.8-10.7-9.1-15.8c-1.1-1.7-2.3-3.5-3.6-5.1c-1.5-1.8-2.4-4.2-3.4-6.3
		c-2.3-4.6-4.5-9.2-6.9-13.9c-2.9,0.4-5.5,0.9-8.1,1.3c-1.6-0.1-2.7-1.2-4.2-1.7c-0.3,0-0.8,0-1.2,0c-3.2,0.3-6.4,0.7-9.6,0.8
		c-4.5,0.2-8.9,0.3-13.4,0.2c-1.6,0-3.2-0.4-4.7-0.9c-7.9-2.6-16.1-3-24.2-3.4c-3.2-0.2-6.4-0.3-9.5,0.9c-1.5,0.6-3.1,0.6-4.7,0.8
		c-3.3,0.3-6.3-0.2-8.7-2.9c-2.3-2.5-5.4-3.3-8.5-3.2c-0.8-1.2-0.3-1.7,0.6-2.3c2.4,0.1,4.8,1.1,7.2,1.8c2.5,0.8,3.8,3.6,7.1,3.6
		c2.6-1.8,6-1.8,9.4-1.8c3.2,0,6.4,0,9.6,0c7.7,0,15.4,0.5,22.9,2.6c3.3,0.9,6.7,0.6,10.1,0.5c1.8-0.1,3.5-0.3,5.3-0.5
		c3.3-3.9,6.6-7.7,9.6-11.3c1.2-0.3,1.8-0.1,2.1,1c-0.6,1.8-2.3,3.1-3.5,4.8c-1.1,1.6-2.2,3.1-3.1,4.9c1.5,1.1,3,0.4,4.3,0.2
		c2.7-0.3,5.1-0.1,7.2,1.7c2-0.1,3.9,0,5.7-1.3c-0.3-2.1-1.3-3.7-2.5-5.2c-1.1-1.2-1.4-2.7-1.9-4.3c-1-3.5-2.1-7.1-3.8-10.4
		c-2.1-4-3.8-8.1-5.3-12.4c-0.3-0.7-0.6-1.4-0.9-2.1c-0.8-0.1-1.4-0.2-2-0.3l0.1,0.1c0.5-0.6,1-1.2,1.5-1.8c0.5-1.6,0.2-3.2,0.1-4.8
		c-0.3-3.3-0.7-6.7-1.1-10c-0.1-1.1-0.2-2.3,0-3.3c1.1-5.6,0.2-11.1-0.2-16.7c-0.4-5.8-0.7-11.5,0.4-17.2c0.3-1.4,0.2-2.9,0.3-4.3
		l-0.1,0.2c1.6-2.7,1.6-5.7,2.2-8.6c-0.4-1.1-0.9-2.1-1.2-2.9c0-1.7,1.2-2.5,2.2-3.4c-1.3-0.6-2.5-0.5-3.5-0.1
		c-2.8,0.9-5.7,0.7-8.6,0.8c-3.2,0.1-6.4,0.4-9.5,1.3c-2.3,0.7-4.7,1.1-7,1.4c-2.6,0.4-4.9,1.2-6.9,3.1c-1.3,1.2-2.7,2.2-4.6,2.5
		c-2.6-0.1-4-3.1-6.8-3.2c-3.7-0.1-4.9,3.8-7.9,5.1c-0.4,1.4-0.9,2.7-1.3,4.1c-0.3,1.3-0.4,2.8-1.7,4c-0.4-3.2,0.8-5.9,1.2-8.7
		c-1.2-1.5-2.6-0.9-3.9-0.7c-0.2,0.3-0.5,0.5-0.6,0.8c-0.7,5.4-0.8,10.8-1,16.3c-0.3,8.5-1.3,16.9-2.8,25.3
		c-0.6,3.3-1.4,6.6-2.8,9.7c-0.2,0.6-0.4,1.2-1.2,1.4l0.1,0.1c0.4-2,0.8-4.1,1.3-6.1c2.2-7.9,2.8-16.1,3.2-24.3
		c0.4-7.2,0.2-14.4,1.2-21.6c0.1-0.6,0-1.3,0-1.7c-1-1.1-2.3-1.3-3.2-0.7c-1.5,0.9-3.1,0.6-4.8,1.1c-0.4,2.5-0.9,5-1.2,7.5
		c-1.1,9.1-2.1,18.2-3.3,27.2c-0.7,6.1-1.5,12.1-2.4,18.1c-0.3,2.4-0.4,4.8-0.3,7.2c0,6.3-0.3,12.5-2,18.6c-0.2,0.8-0.6,1.5-0.8,2.2
		c-0.8,0.2-1.6,0.5-2.3,0.7c-0.8,1-0.5,2.1-0.6,2.8c0.2,1.4,1.1,1.6,1.6,2.5c-2.1,1.9-2.5,4.6-2.3,7.4c-2.9,2.4-6.3,1-9.6,1.9
		c-1.8,1.9-3.8,4-5.9,6c-4.6,4.4-9.7,7.9-15.7,10.1c-2.5,0.9-4.9,1.6-7.5,0.7c-1.2-0.4-2.2,0.5-3.3,0.3c-1.2-0.1-1.8-1.3-3.2-1.8
		c-2.2-0.1-4.8-0.3-7.3-0.4c-0.9,0-2,0-2.8,0.3c-7.2,2.6-14.6,2.6-21.9,1.5c-8.9-1.4-17.7-2.9-26.4-5.7c-1-0.2-1,1.2-0.7,1.1
		c-1.6,0.2-2,0.4-2.5,0.4c-6.6-0.6-13.2-0.4-19.7-0.2c-8.3,0.3-15.9-1.5-22.9-5.8c-2.3-1.4-4.8-1.8-7.4-1.4c-3.5,0.5-7,0.2-10.5,1.3
		c-2.1,0.7-4.5,0.3-6.5-0.9c-2.2-1.2-4.5-2.4-6.7-3.6c-4.7,0.7-9.3,1.1-13.4,3c-1,0.9-0.8,2.4-2.1,2.8c-0.7,0.4-1.2-0.1-1.8-0.4
		c-1.3-1.8-0.6-4.4-2.3-6.3c-4.6-0.9-9.4-0.9-13.7-1.1c-4.8-2.9-9.2-5.6-13.8-8.4c-7.9,2.3-16,0.8-24-0.7c-6-1.1-12.8-5.4-17-10.4
		c-1.6-0.9-3.3-1.8-5-2.7c-6.8-3.7-14.2-5.8-21.8-7.4c-3-0.6-6-0.9-9.1-1c-5-0.1-9.9-1.1-14.7-2.2c-4.9-1.1-9.9-1-14.8-1.9
		c-6.6-1.1-13.4-1.8-20-3c-5.5-1-10.9-2.5-16.4-3.9c-1.4-0.4-2.7-1.1-3.8-1.9c-2.8-2.2-6-3.6-9.9-4.5c-1.5,0.5-3.3,0.6-5.3,0.2
		c-6.6-1.3-13.3-2.2-19.9-3.6c-3.8-0.8-7.4-0.6-10.9,0.5c-5.3,1.6-10.7,2.1-16.1,1.6c-2-0.2-3.8,0.3-5.6,1.2
		c-0.1,0.1-0.2,0.2-0.3,0.4c-0.2,0.8-0.3,1.5-0.4,2c0.4,1.5,2,1.6,2,3.1c-0.2,0.2-0.4,0.7-0.7,0.9c-1.5,0.8-3.2,0-4.7,0.5
		c-1.9,3.1-4.5,5.3-7.8,6.8c-3.8,1.8-7.5,3.7-11.2,5.5c-2.7,1.3-4.7,3.3-6.5,5.6c-1.2,1.5-2.3,3.1-3.4,4.7c-1.3,1.8-2.3,3.8-4.4,5
		c-0.9,0.5-1.5,1.7-1.7,2.9c0.2,1.6,1,3,1.8,4.4c1.5,2.8,2,5.7,0.4,8.8c0.7,1.1,1.5,2.1,2.1,3.2c1.5,3.2,1.6,6.2-0.7,9.4
		c-3.7,5.2-8.8,7.8-14.8,8.9c-0.8,0.1-1.6,0.2-2.4,0c-3.2-0.6-6.3-1.1-9.5,0c-0.7,0.2-1.6-0.1-2.3-0.3c-2.4-0.8-4.9-1.6-7.3-2.5
		c-0.3-0.1-0.7-0.2-0.9-0.4c-3.2-3.3-7.6-5.3-9.9-9.6c-1.9-3.8-3.2-7.6-3.3-11.9c-0.1-5-0.6-9.9-1.1-14.9c-0.1-1.4-0.3-2.9-0.1-4.3
		c0.5-3.3,1-6.7,1.4-10c0.5-3.7,1.5-7.2,3.1-10.6c1.4-2.9,2.7-5.8,4.1-8.7c1.2-2.4,2.3-5,5-6.3c0.7-1.3,1.3-2.6,2-3.9
		c1.2-2.1,2-4.3,2-6.8c0-2.3,0.7-4.4,1.6-6.5c0.9-1.9,1.7-3.8,2.6-5.7c0.8-1.8,1-3.7,0.3-5.6c-0.5-1.3-0.8-2.8-1.1-4.2
		c-0.4-2-0.1-3.9,1.4-5.4c2.5-2.4,3.8-5.5,5-8.6c0.4-1.2,1.1-2.3,1.7-3.4c2.1-3.8,4.5-7.4,6.1-11.5c0.2-0.6,0.6-1.1,0.9-1.7
		c3-4.7,6.9-5.8,12-3.4c0.4,0.2,0.9,0.4,1.4,0.6c4.7,0,9.5-0.2,14.3,0.9c4.6,1,9,2.4,12.8,5.2c2.6,1.9,5.8,2.7,8.7,4.2
		c3.6,1.8,7.3,3.4,10.1,6.4c0.5,0.6,1.6,0.3,2,1c0.8,1.2-0.5,2.2,0.1,3.3c0.3,0.1,0.6,0.4,0.9,0.3c1.4-0.2,2.9-0.4,4.3-0.6
		c1.1-0.1,2.2-0.1,3.3,0.5c0.6,0.4,0.9,0.9,0.7,1.6c-1.1,1.8-3.3,0.7-4.8,1.7c1,1.1,2.5,0.7,3.7,0.9c6.5,0.9,13,1.7,19.6,1.9
		c2.9,0.1,5.7,0.6,8.6,1c2.9,0.4,5.7,0.9,8.5,1.4c2.7,0.4,5.4,0.4,8.2,0.3c3.4-0.2,6.7,0.1,10,0.8c5,1.1,10.1,1.9,15.1,2.9
		c1.9,0.3,3.8,0.5,5.7,0.2c5.6-0.7,11.1-1.5,16.7-2.1c7.7-0.9,15.4-1.1,23.1-0.6c8.8,0.6,17.5,1.9,25.5,6.2c2.5,1.4,5.3,2.3,8.2,2.5
		c6.8,0.5,13.2,2.3,19.3,5.4c3.3,1.7,6.7,3.2,10,4.8c0.8,0.4,1.6,1,2.4,1.6c0,0.7,0,1.4,0,2c0.3,0.2,0.6,0.5,0.8,0.5
		c3,0.1,6.1,0.3,8.9-1.2c1.4-0.8,3.1-0.7,4.7-0.7c9.2,0,18.3,0.5,27.4,1.1c1.4,0.1,2.9-0.1,3.7,1.4c0.3,1.4-1.2,1.6-1.2,2.8
		c-1.9-1.1-3.6-1.1-5.4-1.2c-4.7-0.2-9.3-0.3-14-0.5c-3.2-0.1-6.4-0.2-9.6-0.4c-1.8-0.1-3.5-0.1-5.2,0.5c-4.9,1.9-9.7,1.8-14.4-0.8
		c-0.7-0.4-1.6-0.2-1.9-1.1c0.5-1.2,1.7-0.4,2.4-0.9c0.3-0.2,0.3-0.5-0.1-0.7c-4.8-2.2-9.6-4.5-14.4-6.6c-2.8-1.2-5.7-2.1-8.8-2.3
		c-6.2-0.4-12-2.2-17.5-4.8c-3.4-1.6-7-2.3-10.6-2.9c-13-2-25.9-1-38.9,0.7c-3.3,0.4-6.7,0.9-10,1.3c-1,0.1-2,0.3-2.9,0
		c-5.1-1.6-10.5-1.4-15.6-2.4c-5.5-1.1-11-1.7-16.7-1.5c-5.1,0.1-10.2-0.7-15.3-1.2c-6.7-0.7-13.4-1.5-20.1-2.2
		c-3-0.3-6.1-0.4-9.1-1c-1.9-0.4-3.8-0.6-5.7-0.3c-1.4,1.1-1.5,2.8-2.2,4.1c0.4,0.7,0.6,1.3,0.9,1.9c-0.4,0.9-1.4,0.5-2.5,1.6
		c-0.5,0.9-1.4,2.4-2.3,3.9c-0.9,1.4-1.7,2.7-2.7,4c-3.7,4.4-5.6,9.2-4.3,15.1c0.6,3,0.6,6.1,0.9,9.1c0.1,1.1,0,2.3,0.9,3.2
		c4-2.7,8.6-3.4,13.2-4.2c4.7-0.8,9.5-1.4,14.3-2.1c3.2-0.5,6.4,0.1,9.4,0.8c4.7-1.6,9.3-0.7,13.8,0.5c7.4,2,14.7,4.6,21.8,7.5
		c8.5,3.4,17.5,5.2,26.6,6.4c11,1.5,21.9,2.9,32.8,5.2c3.8,0.8,7.6,1.3,11.4,1.6c6.3,0.6,12.3,2.2,18,4.8c2,0.9,4.1,1.9,6.3,2.2
		c1.2,0.2,2.4,0.9,3.5,1.5c1.8,1,3.6,2,5.5,3.1c5,5.9,11.5,9.3,19.3,10.6c4.8,0.8,9.5,1.5,14.3,0.9c1.3-0.2,2.6-0.1,3.6-1.3
		c-2.9-2.2-6-4.2-8.3-7.2c-1.3-1.8-2.8-3.5-4.2-5.2c-1.7-2-3.7-3.6-6.5-3.5c-0.5,0-1,0-1.4-0.2c-1-0.5-2.2-0.7-2.6-2.3
		c1.1-0.8,2.5-0.8,3.4-0.2c3.2,2.1,7.1,2.9,10.1,5.5c1,0.9,0.2,2.2,0.9,3.2c3.6,3.2,9,3.4,12,7.1c0.5,1.4-0.1,2.2-0.2,3.2
		c0.3,0.3,0.5,0.7,0.9,1c3.4,2.5,7.1,4.3,10,7.2c2.5,0.8,5,0.5,7.3,0.7c2.2,0.2,4.4,0.4,6.4,0.6c1-0.8,0.9-1.8,0.5-2.3
		c-1-1.4-0.8-3-1-4.6c-1.5-10.3-0.5-20.5,0.7-30.7c0.3-2.7,0.7-5.4,1.1-8.1c-0.3-0.2-0.6-0.5-0.7-0.5c-5.7,2-11.3,1.9-16.9-0.4
		c-0.2-0.3-0.4-0.5-0.5-0.8c-0.1-0.3,0-0.6,0-1.2c4.5-2.1,9.4-2.4,14.2-3.2c2.1-1.3,4.1-2.6,6.3-4.1c1.3-5,3.4-9.9,3-15.1
		c1.1-2.2,3-2.7,5-2.8c1.3-0.1,2.6,0,3.9,0c5.9-0.1,11.7-0.8,17.5-2.5c9.5-2.8,19.2-5.3,29.1-6.4c9.2-1,17.7-4.2,26-8.2
		c1.5-0.7,2.7-1.7,3.7-3c2.3-2.9,5-5.4,7.7-7.9c3.1-2.8,6.4-5.3,10.3-7c8.2-3.6,16.8-6.4,25.4-8.7c4.5-1.2,9.2-1.5,13.9-0.9
		c5.6,0.7,11.2,0.6,16.7,1.8c4.3,0.9,8.4,2.2,12.2,4.3c3.5,1.9,7.1,3.8,10.6,5.7c2.8,1.5,5.6,3.1,8,5.5c2.9,0,5.6-1.5,8.8-0.8
		c0.7,0.5,1.6,1.2,2.6,2c0.9-0.2,1.8-0.5,2.8-0.8c2.2,1.1,4.5,2.2,6.9,3.3c3.3-0.9,6.6,0.2,10,1.2c1.2-0.2,2.6-0.5,4.2-0.8
		c0.3-0.2,0.7-0.4,1.1-0.7c0.8-0.6,1.5-1.3,2.3-1.8c2.2-1.4,4.5-1.7,6.8-0.4c1.1,0.6,2.2,1.3,3.2,1.8c1.5,0.1,2.3-0.7,3.1-1.5
		c2.5-2.5,5.6-3.6,9-4.1c2.1-0.3,4.1-0.6,6.1-1.2c4.1-1.2,8.2-1.4,12.4-1.6c1.3,0,2.6,0.2,4-0.6c0.5-2,0.2-4.2-0.2-6.4
		c-0.4-2.5-0.6-5.1-0.7-7.6c-0.1-1.8,0.1-3.5,1.3-5.3c2.8-1.6,5.9-3.3,9.4-4c11.4-2.4,22.9-3,34.5-2c1.4,0.1,2.9,0.3,4.3,0.7
		c4.4,1.5,9.1,2,13.6,3c3.3,0.7,6.5,1.6,9.8,2.4c1.6,0.4,3.1,0.6,4.8,0.5c3.4-0.1,6.7-0.2,10.1-0.1c2.9,0,5.7,0.1,8.6-0.5
		c3.7-0.8,7.4,0.2,10.9,1.3c4.7,1.5,9.4,3.1,13.7,5.8c2.2,1.4,4.4,2.6,5.9,4.8c4.8,0.8,9.6,1.5,14.3,2.2c1.7,0.3,3.5,0.6,5.2,1.1
		c3.7,1,6.6,3,8.9,6.2c4.7,6.5,8.8,13.4,11.1,21.2c0.7,2.3,0.7,2.3,0.4,5.4c2.2,1,4.8,1.4,6.7,3.3c0.8,2-1.5,3-1.7,4.9
		c0.5,0.7,1.2,1.4,1.7,2.1c7.7-0.4,14.9-2.7,21.9-5.3c1.5-0.6,2.9-1.2,4.1-2.4c0.8-0.8,1.7-1.4,2.7-1.9c1.2-0.6,2.1-1.3,2.8-2.4
		c1.2-1.9,3.2-2.6,5.2-3.2c5-1.4,10-2.1,15.2-2c2.7,0,5.5,0.3,8-0.7c5,1.9,9.9,3.1,15.1,3.2c2.5,1.3,4.9,2.5,7.3,3.8
		c1.1-0.5,2.1-1,3.2-1.5c1.7,0.9,3,2.9,6.3,2.5c0.5-0.1,1.4-2.3,3.4-1c0,2-2.3,3-2.3,5c0.3,0.9,1,1.2,1.9,1.2
		c1.4,0.1,2.9,0.1,4.3,0.2c0.8,0.1,1.5,0.6,1.7,1.6c-0.7,2.3-3.3,1.3-4.8,2.5c1.4,3.7,5.3,6.2,4.6,10.7c3,3.2,5.1,6.7,6.5,10.7
		c0.3,0.9,0.6,1.8,0.8,2.8c0.6,3.3,0.9,6.7-1.8,9.3c1.5,1.7,4.3,1.5,4.5,4c-0.2,1.4-1.6,1.6-2.3,2.6c0,0.4-0.2,0.9-0.1,1.3
		c0.2,1.6,0.6,3.1,0.8,4.7c0.2,1.5,0.1,2.9-1.1,4c-1.1,1-2.4,0.6-3.7,0.6c-0.1-0.6-0.4-0.9-1.1-0.9c0.1-1.1,0-2.1-0.5-3.1
		c-0.4-0.8-1-1-1.8-0.3c0.5,1.3,1.4,2.3,2.4,3.3c0.2,0.5,0.5,0.9,1.1,1c0.1,1.6,1.4,2.1,2.5,2.5c1.8,0.8,2.8,2,3.3,3.8
		c-0.1,1.7-1.8,2-2.5,3c-2.7-0.4-3.6-2.9-5.7-3.7c-0.7,1.4,0.6,1.7,1,2.4c0.4,0.8,1.1,1.6,1.6,2.4c0.5,0.8,1.2,1.5,1,2.5
		c-0.5,0.7-1.1,0.5-1.7,0.2c-1.2-0.8-2.4-1.6-3.5-2.4c-0.2-0.5-0.5-0.8-1-0.9c-0.2-0.5-0.5-0.9-1.1-1c0-0.6-0.3-1-1-0.9
		c0.1-1.4-0.5-2.3-1.7-2.9c-0.2-0.1-0.5,0.2-0.8,0.3c0.6,1.1,1.5,1.9,2.6,2.5c0.2,0.5,0.5,0.8,1,0.9c0.2,0.5,0.5,0.9,1.1,1
		c0,0.6,0.3,1,1,0.9c0.2,2.8,1.9,4.6,3.9,6.2c1.5,1.2,3.2,2.1,3.7,3.7c0.3,1.8-0.8,2.4-1.6,3.4c0,1.9,1.1,3.9,0,6.3
		c-1.2,1.3-3.7,2.2-3.2,5c-3.8,1.5-7.4,2.1-11.3,0.7c-2.3-0.8-4.4-2-6.1-3.6c-1-1-1.9-2.1-2.9-3.2c-0.4-0.3-0.8-0.6-1.1-1
		c-0.2-1.5-0.5-2.9-1.9-3.7c-0.1-0.4-0.1-0.8-0.2-1.3c-0.4,0.6,0.1,0.9,0.3,1.2c0,1.6,0.6,2.9,1.9,3.7
		C1011.1,442.2,1011.5,442.5,1011.9,442.8z M977.1,407.3c-0.7,0-1,0.3-0.9,1c-0.7-0.2-1.7,0.1-2-0.9c-0.1-2.1,2.6-3.2,2.1-5.9
		c-3.7,3.8-8.4,2-12.2,3.2c-1.4,1.5-1.6,3.5-3.6,4.8c-1-2.5-3.5-2.6-5.7-3.3c-0.4-0.6-0.7-1.2-1-1.7c0.4-0.3,0.7-0.6,1.1-1
		c1.3,1.1,2.8,2,4.5,2.6c0.2,0.1,0.6-0.1,0.9-0.1c1.1-0.9,1.2-2.6,3.2-3.6c0.9-0.2,2.4-0.5,4-0.8c0.3,0.2,0.6,0.3,0.4,0.2
		c0.2,0-0.2,0-0.5-0.1c-1.1-1.1-2-2.4-3.6-2.9c-1,0.6-1.4,1.9-2.7,2.1c-0.7,0-1.5,0.1-1.9-0.9c3.6-3.8,4-3.9,8.5-4.4
		c2.3-0.2,4.5-0.2,6.2,1.7c0.3,0.3,0.9,0.2,1.4,0.3c0.1,0.3,0.3,0.6,0.3,0.8c-0.1-0.1-0.3-0.4-0.4-0.6c-1.3-1.4-2.6-2.8-3.8-4.1
		c-3-0.7-5.9,0.1-8.7,0.5c-0.8,0.1-1.6,0.4-2.2,0.9c-2.7,2.3-4.9,4.9-5.4,8.6c-0.6,0.1-0.8,0.5-1,1c-1.3,0.4-1.9,1.7-2.8,2.6
		c-0.8,0.8-2,1.4-2.2,2.7c1.1,0.7,2.4,0,3.4,1.2c-0.6,0.7-1,1.6-1.8,2.1c-2.3,1.3-4.7,2.6-7.2,3.6c-1,0.4-2.1,0.3-3.1,0.4
		c-1.9,1.4-3.3,3.4-5.7,3.6l0.1,0.1c1.6-2.2,2.7-4.7,5.2-6.3c2.5,0.4,4.2-1,5.9-2.7c0.2-1,0.3-2.1,0.5-3.3c1-1,2.2-1.9,2.9-3.1
		c2.5-3.9,5.1-7.8,8-11.4c0.1-0.1,0.1-0.3,0.1-0.5c0-0.1-0.2-0.2-0.3-0.3c-4,0.7-3.9,0.6-7.7-1.2c-3-1.5-6-3.1-8.6-5
		c-1.7-0.4-3.3-0.7-4.7-1c-1.1,0.1-1.9,1.1-3.9,0c-1-0.9-2.4-2.8-3.3-4.4c-0.7-1.8,0.4-3.1-0.9-4.7c-1.1-0.5-2.7-1.2-4.4-2
		c1.3-0.8,2.5-0.2,3.8-0.7c-0.1-1.6,1.9-1.7,2.4-3.2c-0.1-0.4-0.3-0.8-0.4-1.2c-1.2-0.5-1.9,1.3-3.2,0.6c-0.1-1.4-0.2-2.8-0.3-4.4
		c-0.8-0.6-1.7-1.2-2.7-1.8c-0.2-0.2-0.6-0.1-1.1-0.1c-0.8,0.3-1.5,0.9-2.1,1.7c-0.8,1.2-1.5,2.5-2.5,3.5c-2.6,2.7-4.4,6-5.8,9.4
		c-2.3,5.8-5.8,10.7-10.5,15.2c-1.6,0.7-3.7,1.3-5,3c-3,3.8-7.4,6.1-11,9.3c-0.6-0.4-1.1-0.7-1.7-1.2c-1.3,0.8-2.7,1.5-4.1,2.3
		c-7,4.1-7,4.1-9,12c-0.2,0.9-0.8,1.8,0.2,2.7c4.8-2.7,10.1-4.1,15.5-5c3.6-0.6,7.3-1,10.9,0.6c1.4,0.7,3.1,0.7,4.7,0.6
		c1.9-0.1,4,0,5.6,1c4.1,2.5,8.6,3.5,13.1,4.4c0.3,0.1,0.6,0.3,1.1,0.6c0.4,2.2,3.3,2.6,4.2,4.7c1.8,6.3,0.6,12.8,1.5,19
		c2.7,3.5,2.8,3.6,6.8,5.7c0.6-0.1,1.4-0.1,2.2-0.2c0.8-0.2,1.6-0.3,2.3-0.7c3-1.8,5.8-1.5,8.5,0.5c0.3,0.3,0.9,0.3,1.1,0.4
		c1.1-0.2,1.6-0.8,1.7-1.7c-0.1-1.1-1.2-1.9-0.9-3.1c0.3-0.4,0.5-0.8,1.3-0.7c3,1.6,2.6,5.5,4.6,8c2-0.8,3.9-1.6,5.8-2.4
		c0.3-0.1,0.4-0.5,0.6-0.7c-0.2-0.9-0.4-1.8-0.6-2.6c1.1-2.5,3.1-3.3,5.2-3.5c0.8,0.4,1.3,0.7,1.1,1.5c-0.9,0.7-2.3-0.3-3.2,0.8
		c0.7,2.8,0.2,5.9,1.6,8.5c1.5,0,2.4-0.9,3.2-1.6c2.4-2.1,5.2-3.8,7.9-5.5c1.6-1,3.1-2.2,4.8-3.3c1.8-1.2,4.1-0.3,6.1-0.9
		c-0.4-4.8-0.7-5.6-2.3-8.8c-0.7-1.5-2.1-2.4-3-3.8c-0.4-0.6-0.3-1.2,0.5-1.7c4.4,1.9,6.2,6,8.7,10c0,0.7-0.1,1.7,0,2.6
		c0.1,0.9-0.8,1.8-0.3,2.6c0.7,0.7,1.3,0.4,1.9,0.2c2.6-1,10.2-6,12.5-8.1c-0.3-1.2-0.6-2.4-0.9-3.6c-0.3-1.2-0.3-2.6-1.5-3.9
		c-0.8,0.2-1.8,0.2-2.7-0.5c-1.1-0.9-0.8-2.4-1.6-3.4c-1.5,0.2-2.1-1.3-3.4-1.6c-0.7,0.2-1.5,0.5-2.4,0.8c-2.1-0.7-4.6-0.4-6.4-1.5
		c-0.8-0.8-0.6-1.9-1.9-2.1c-1.7,0.2-3.6,1.7-6.4,0.7c-0.1-0.2-0.6-0.8-1-1.4c-1.1-0.2-2.1-0.3-3-0.7c-3.2-1.4-6.5-1.6-9.9-1.1
		c-1.4,0.2-2.9,0.6-4.3-0.4c-0.1-0.4-0.3-0.8-0.4-1.3c1.4-1.9,3.7-2.5,5.5-3.8c3.7-2.5,7.7-4.5,11-7.6
		C976.6,408.1,977,407.9,977.1,407.3c0.6,0,0.9-0.4,0.9-1.1c0.8-0.1,1-0.4,0.4-1.1c-0.4,0.3-0.6,0.7-0.4,1.2
		C977.3,406.2,977.1,406.6,977.1,407.3z M966.5,384c-0.1,0,0.4,0.5-0.1,0.1l-0.1-0.2L966.5,384z M999.2,413.1
		c-0.1-0.1-0.2-0.2-0.3-0.2c0.1,0,0.3,0.1,0.4,0.1c0.1,0.5,0.2,0.6,0.3,0.3C999.5,413.2,999.3,413.2,999.2,413.1z M1020.4,365.9
		c-0.1-0.6-0.4-0.9-1-1c0-0.6-0.3-0.9-0.9-0.9c-0.1-0.2-0.2-0.3-0.2-0.4c0,0,0.2,0.1,0.3,0.3c0.1,0.6,0.4,0.9,0.9,0.9
		c0.1,0.6,0.5,0.9,1,1c0.1,0.5,0.4,0.8,0.9,0.9l0.1,0.3l-0.2-0.2C1021,366.5,1020.7,366.2,1020.4,365.9z M994.5,423.8
		c-0.7,0.4-0.9,1.1-0.9,1.8l-0.3,0.1l0.2-0.2c0.3-0.6,0.6-1.3,0.9-1.9c0.3-0.3,1.1-0.6,0.3-1.3C994.6,422.9,994.5,423.3,994.5,423.8
		z M979.9,409.2c1,0,1.8-0.1,1.9-1.4c-0.9,0.1-1.8,0.2-1.8,1.5c-0.1,0-0.3,0-0.4,0c-0.1,0-0.1,0.2-0.2,0.3
		C979.6,409.4,979.8,409.3,979.9,409.2z M935.7,368.6c0.1,0.4,0.1,0.8,0.2,1.3c0.4-0.6-0.1-0.8-0.3-1.2c0.3-0.8,0.7-1.4,1.5-1.7
		c0.6-0.2,1.2-0.5,1.2-1.2c2.1-0.4,2.6,1.7,3.9,2.8c0.6-1.4,0.6-2.5,0.4-3.6c-1.8-0.3-3.1,0-4.3,0.9c-1.7-0.1-3.4,0-5,0.8
		c-0.7,0.3-1.3,0.8-0.9,1.7C933.6,368.9,934.7,368.8,935.7,368.6z M680.2,408.1c0.2-0.4,0.7-0.8,0.7-1.1c0.1-4,0-8,0-12
		c-0.9,4.4-0.5,8.8-0.6,13.2c-1.3,2.1-0.8,4.3-0.5,7.5C680.2,412.5,680.5,410.3,680.2,408.1z M1024.3,384.2
		c-0.1-0.1-0.2-0.1-0.3-0.2c0.1,0,0.2,0,0.4,0.1c0.4,1.8,2.2,1.9,3.4,2.7c0.9-0.5,1.7-0.9,2.4-1.2c0.7,0.2,1.3,0.4,1.9,0.5
		c0.1,0.3,0.3,0.7,0.4,1.1c0.2-0.7-0.1-0.9-0.6-1c0.5-1.8-0.4-3-1.5-4.4C1028.6,383.2,1026.5,384,1024.3,384.2z M221.7,388
		c-0.1-0.2-0.3-0.5-0.4-0.7c-0.1,0.1-0.2,0.3-0.2,0.4c0.1,0.4,0.4,0.4,0.7,0.2c-0.4,1,0.3,1.8,0.5,2.8c0,0.3-0.2,0.6-0.3,0.9
		c-0.3,0.1-0.6,0.2-1.1,0.3c-1.7-2.6-4.2-4.6-6.7-6.6c-1-0.8-1.8-1.8-1.8-3.2c0-1.7,2.3-1.8,2.6-3.7c-0.1-0.9-0.2-2.2-0.3-3.4
		c-0.2-2.4-0.2-4.8,0.2-7.2c0.7-4.7,2.3-9,6.2-12.1c2.5-2,4.1-4.5,4.9-7.5c0.5-1.7,1.1-3.4,2.5-4.6c2.8-2.3,5.4-5,8.9-6.5
		c2.6-1.1,2.6-1.3,4.5-4.7c-2.8-1.2-5.6-2.5-8.3-3.7c-4.4-1.9-9-3.4-12.9-6.4c-1.8-1.4-4-2-6.2-2.6c-4.9-1.2-9.8-1.8-14.8-1.7
		c-2.8,0.1-5.4-0.3-7.9-1.6c-0.4-0.2-0.9-0.1-1.3-0.2c-1.9,1.2-2.5,3.1-3.1,4.9c-0.9,2.8-2.2,5.4-3.6,7.9c-2.3,3.8-5.4,7.1-6.7,11.5
		c-0.2,0.7-0.9,1.3-1.4,1.9c-0.6,0.7-1.3,1.4-1.5,2.6c0.1,1.4,0.5,2.9,1.2,4.4c1.4,3,1.2,5.9-0.2,8.8c-0.8,1.7-1.7,3.5-2.5,5.2
		c-0.6,1.3-1.2,2.6-1.5,4c-1.5,6.6-4.8,12.2-9.7,16.8c-0.9,2.6-1.5,5.3-2.7,7.7c-3.3,6.5-4.8,13.6-6.9,20.2c1.3,6.1,2.6,11.9,3,17.8
		c0.1,1.8,0.1,3.5,0.3,5.3c0.3,4.5,1.8,8.6,5.3,11.4c1.9,1.5,3.7,3,5.3,4.5c3.3,1.1,6.3,2.1,9.2,3c1.7-0.5,3.3-1,4.8-1.5
		c7.3,1.8,12.6-2.3,18-5.6c0.8-2.7,0.5-5,0-7c-0.7-1.3-2-1.8-1.9-3.4c-0.4-1.1,1.1-2.1,0.6-3.6c-4.8-1-9.9-1.8-12.8-6.6
		c0.6-1.5,1.7-1.8,2.9-1.9c1.6-0.1,3.2,0.3,4.7,0.7c0.2,0.1,0.5-0.2,0.9-0.4c0-0.5-0.1-0.9-0.1-1.5c-1.6-1-3.4-1.8-4.9-3
		c-3.1-2.3-4.7-5.2-3.5-8.8c1.7-3,4.7-2.2,7.1-2.8c-1.1-2.8-3.3-4.8-3.4-7.7c1.6-3.2,1.6-3.2,7.3-3.6c-0.5-1.2-1.2-2.3-1.6-3.5
		c-0.8-2.9,1.3-5.2,4.2-4.7c1.1,0.2,2.1,0.7,3.2,1.1c0.8,0.3,1.5,0.6,2.3,0.3c0,0.1-0.1,0.3,0,0.4c0,0.1,0.2,0.1,0.3,0.2
		c-0.1-0.2-0.2-0.3-0.4-0.5c-1.1-2.6-3.3-4.2-5.1-6.2c-1-1.2-2.5-2.1-2.5-3.9c0.3-1.4,1.2-1.8,2.6-1.5c1.9,0.7,2.8,2.9,4.7,3.8
		c1,0.1,1.8-0.9,3.4-0.2c4.8,3.8,9,9.3,14,13.9c3.2-1,6-2.1,8.7-4.7C225.3,391.5,223.7,389.4,221.7,388z M669.7,335.9
		c0.4,1.1,1,1.1,1.9,0.3c-0.8-0.1-1.4-0.1-2-0.2c-0.1-1.9-1.6-3.1-2-4.4c-4.5-2.9-9.2-4.7-13.5-7.2c-6.7-3.9-13.9-5.6-21.6-5.8
		c-2.1-0.1-4.2-0.3-6.2-0.5c-6.8-0.8-13.5,0.1-20,1.8c-5.1,1.3-10,3.5-14.8,5.8c-4.9,2.4-9.6,5.1-13.5,9
		c-4.8,4.7-10.2,8.8-16.6,11.1c-0.9,0.3-1.8,0.8-2.6,1.2c-6,2.9-12.2,4.9-18.7,6c-7.1,1.2-14.3,2.3-21.4,3.4
		c-4.3,0.7-8.5,1.5-12.5,3.4c-2.8,1.3-5.8,2-8.8,2.1c-2.9,0.1-5.8,0.2-8.7,0.2c-1,0-1.9,0-2.7,1.2c0,3.3-0.7,6.7-1.5,10.2
		c-2.8,12.7-4.3,25.6-6.1,38.5c-1.1,8.4,1.1,16.1,3.5,23.7c1.4,0.6,2.4,0.4,3-0.3c1.9-2,4.5-2.3,7-3c1.9-0.5,3.8-0.3,5.6,0.7
		c1.8,1,3.6,2,5.4,3.1c2.4,1.4,4.9,2.5,7.6,2.6c1.3-0.5,2.5-1,3.7-1.3c6.1-1.7,12.4-1.6,18.6-1.3c1.4,0.1,2.9,0.2,3.8,1.5
		c0.4,0.6,0,1-0.3,1.3c-0.3,0.4-0.4,0.8-0.1,1.3c3.5,1.9,7.7,2.1,11.1,4.4c6.6-0.1,12.9-2.5,19.4-1.4c1-0.5,1.1-1.5,2.5-1.6
		c1.2,0.2,2.7,0.6,4.3,0.7c2.9,0.2,5.7,0.5,8.6,1.1c5,1.1,10,2.1,15.1,3.1c6,1.2,12,2.1,17.9,1.6c1.4-0.5,2.2-1.6,3.7-1.7
		c2.1-0.2,4.1-0.6,6.2-1c3-0.5,6-0.8,9.1-0.2c0.9,0.2,1.9,0.4,2.8-0.3c1.2-2.7,2.5-5.5,3.7-8.3c1.5-3.3,3.6-6.1,6.3-8.4
		c4.4-3.8,9.4-5.9,15.5-5.7c1.3-1.7,3.5-2.4,5.8-3.8c0.7,0-0.6-2,1.1-1.9c1.2,0.6,2,1.5,1.9,2.8c-0.5,2.1-2.5,2.2-3.6,3.3
		c1.3,1.5,3.4,0.9,4.8,1.9c0.2,0.2,0.3,0.5,0.6,0.9c-0.2,0.4-0.4,0.8-0.6,1.3c-4,0.5-7.5-0.4-10.5-2.6c-2.4,1-4.4,2-6.5,2.8
		c-5.2,1.9-8.9,5.7-11.5,10.4c-1.3,2.2-2.3,4.6-3.4,6.9c-0.3,0.6-0.5,1.2-0.2,1.8c2.5,0.5,2.5,0.5,4.1-0.1
		c7.5-2.7,13.9-7.2,19.6-12.4c0.1-1.1,0.2-1.8,0.2-2.5c1.8-1.2,3.5-2,5.5-2c1.9,0,3.8,0.5,5.4-0.2c0.8-1.3,0.5-2.4,0.3-3.5
		c-0.1-0.9-0.6-1.8-0.2-2.8c0.7-2.2,0.5-4.5,0.4-6.7c-0.2-11.4,1.3-22.7,0.4-34.1c0-0.3,0-0.6,0.1-1c0.8-6.4,0.2-12.8,1.4-18.9
		c-0.4-1.2-1.7-1.4-1.8-3.3c0.5-1.8,1.4-4.4,2-7.1c0.6-2.8,1.4-5.6,1.5-8.5c0.1-2.6,1.9-5.1,0.9-7.8c-1.3-0.5-2.3-0.2-3.7,0.1
		c0.6,0.4,1.1,0.8,1.7,1.2c-1,1.3-2.4,1.2-3.6,1.4c-1.1,0.2-2.2,0.4-3.5,1.8c2.7-0.2,4.7-0.3,6.9-0.5c-0.7,1.9-2.6,1.6-3.5,2.8
		c0.1,0.8,1.6,0.4,1.3,1.5c-2.6,2.3-5.3,0.3-8.3,0.1c0.3-2.5,0.6-5,0.8-7.4C668.8,336.1,669.3,336,669.7,335.9z M758.2,309.8
		c2.2,4.8,0.9,10,1.6,15c1.1,0.6,2.1,0.4,3,0.2c5.2-0.7,10.4-1.5,15.7-2.1c2.3-0.3,4.4-1,6.3-2c4.2-2.1,8.5-3.6,13.1-4.5
		c1.2-0.2,2.5-0.7,3.6-1.3c3.2-1.7,6.5-2.6,10-3.4c3.1-0.7,6.2-1.6,9.3-2.4c0.2-0.1,0.4-0.5,0.6-0.7c-0.2-0.2-0.4-0.5-0.6-0.5
		c-5.9-1.4-12-2.1-17.8-4c-0.3-0.1-0.6-0.1-0.9-0.2c-7.5-0.8-15-1.2-22.5-0.2c-4.8,0.7-9.5,1.6-14.2,2.1
		C762.3,306.3,760.1,307.5,758.2,309.8z M229,385.3c0-1.7,0.1-3.3,0-4.9c-0.2-2.7-0.3-5.5-0.8-8.1c-1.3-6.5,1-12.1,4.9-17
		c3.2-4.1,5.6-8.5,7.9-13.1c0.4-0.8,0.3-1.5-0.9-1.8c-1.8,1.2-3.7,2.4-5.5,3.7c-0.9,1.6-1.9,3-3.3,4.2c-1.1,0.9-2.3,2-2.7,3.3
		c-1.3,3.6-3.7,6.4-6,9.2c-0.7,0.9-1.4,1.7-1.7,2.9c-0.7,3-1.6,6-0.9,9c0.6,3,0.6,6,0.7,9c1.4,1.5,2.7,2.8,3.8,4
		C226.2,386.3,227.4,386.2,229,385.3z M684.6,335c-0.4,0.5-0.7,0.7-0.8,1c-1.9,5.4-2.2,11.3-3.7,16.8c-0.1,0.3,0,0.6,0,1
		c-0.1,8.9,1,17.7,3,26.5c1.8-7.1,1.8-14.4,3-21.6c1.2-7.2,2.4-14.4,3.6-21.5C688.2,335.6,686.6,335.1,684.6,335z M814.5,315.6
		c1.1,0.1,1.5,0.3,2,0.2c6.7-0.8,13.3-1.7,20-2.6c6.1-0.8,12.1-0.9,18,1.1c3.5,1.1,7,2.2,10.5,3.5c2.8,1.1,7.3,1.1,11,0.1
		c-0.4-0.3-0.7-0.7-1.1-0.9c-4.1-2.7-8.7-4.2-13.2-5.6c-3.2-1-6.5-1.9-9.9-1.2c-4.3,1-8.6,0.7-12.9,0.9c-1.6,0.1-3.2-0.1-4.8,0.3
		c-3.5,0.7-7,0.7-10.7,0.8C821.1,314,817.6,313.4,814.5,315.6z M1000.7,352.2c1.4,1.2,3.1,1.8,4.2,3.8c0.5,2.2,1.3,4.7,3.7,6.1
		c2.1,0.2,3.5-0.7,4.7-1.6c0.2-0.8-0.1-1.2-0.5-1.5c-3.2-2.1-6.6-3.9-9.3-6.6C1003,351.9,1001.9,351.5,1000.7,352.2z M1014.2,427.8
		c2.6,1,4.6,3.1,6.9,4.9c1.5,1.2,3.2,2.1,5,2.9c0.9,0.4,1.5,0.1,1.7-1.2c-6-2.4-10.9-6.4-14.7-11.4c-0.3-1.2,1.1-1.9,0.4-3
		c-0.8-1.1-1.8-1.7-3.4-1.6C1011.4,421.7,1012,425,1014.2,427.8z M984.2,379.6c-0.7,0.6-1,1.3-0.9,2.2c1.7,0.1,2.5,1.8,3.9,2.4
		c1.4-0.2,2.7,0.1,3.8-0.7c0-1.3-0.1-2.5-0.9-3.7c-0.9,0.1-1.9,0.3-2.8,0.3C986.3,380,985.2,379.8,984.2,379.6z M1027.1,448.7
		c-4.8-4.7-8.6-7.6-9.5-7.6c-0.5,0.2-0.7,0.6-0.6,1.3C1019.3,445.3,1022.1,447.7,1027.1,448.7z M1004.4,407.1
		c1.7,0.1,3.1,0.8,4.3-0.3c0-1-0.3-1.7-1.5-2.4c-1.3-0.2-3-0.5-4.7-0.7c-0.2,0-0.4,0.2-0.8,0.5
		C1002.6,405.1,1003.5,406,1004.4,407.1z M1029.8,401.7c-1.5-2-2.5-4.4-4.9-5.5c-0.2-0.1-0.5,0.2-0.8,0.3
		C1026.9,400.7,1026.9,400.7,1029.8,401.7z M997.5,369.3c2.6,0.2,5.3,0.9,8.1,0.2c-0.3-0.6-0.5-1-0.7-1.4
		C1002.3,367.7,999.8,367.9,997.5,369.3z M979.9,402.1c-0.2,1.8,0.3,3,1.5,4c1.1-0.7,2.7-0.6,3.7-2c-1.2-0.4-2.5,0.7-3.7-0.2
		C980.9,403.3,980.4,402.7,979.9,402.1z M976,362.7c4,0.1,4,0.1,6-1.4C978.7,361,978.7,361,976,362.7z M977.2,367
		c3.4,0.5,3.4,0.5,5.2-1.5C980.4,365.9,978.6,365.2,977.2,367z M1002.3,401.8c1.7,0.7,3,1,4.6,0.1
		C1005.3,400.2,1005.3,400.2,1002.3,401.8z M1021.6,411.3c0.8-0.3,1.5,0,1.9-0.8c-1.2-1-2.5-1.9-3.7-2.8c-0.1-0.1-0.5,0.2-0.8,0.4
		C1019.8,409,1020.5,410,1021.6,411.3z M1010,391.4c-0.8,0.1-1.1,0.6-1.2,1.3c1.8,2.1,2.3,2.4,3.3,1.6
		C1011.6,393.1,1011.2,392,1010,391.4z M971.6,398.4c-2.3-1.5-2.3-1.5-4.7,0.1C968.5,399,970,398.8,971.6,398.4z M934.9,378.9
		c0.2,1.7,0,3,1.4,4.1C936.9,381.4,936.4,380.3,934.9,378.9z M972.4,351.9c-1.5-0.6-2.3,0.3-3.3,1
		C970.6,353.6,971.3,352.4,972.4,351.9z M192.1,417.5c0,0.7,0.4,1.1,1,1.3c0.7-0.2,1.4-0.5,1-1.5
		C193.5,416.8,192.8,416.9,192.1,417.5z M986.8,397.1c-0.2,1-0.1,1.8,1.3,2.3c0.1-0.1,0.3-0.3,0.4-0.4
		C988.3,397.8,987.6,397.5,986.8,397.1z M986.2,418.2c-1.6,0.1-1.6,0.1-2.6,1.3C984.9,419.9,985.6,419.2,986.2,418.2z M996,412.7
		c-0.8-0.5-1.4-0.5-1.9-0.1c0,0.7,0.4,1.1,1,1.3C995.6,413.8,995.9,413.5,996,412.7z M966.4,417.6c3.5,0.2,3.5,0.2,2.8-1.5
		C968.5,416.5,967.8,416.9,966.4,417.6z M979.4,418.4c-1.3-0.7-2.3-0.7-3.4-0.1C977,419,978,419.1,979.4,418.4z M1028.7,439.6
		c0.3,1.3,0.8,1.9,2.2,1.9C1030.5,440.5,1030.6,439.4,1028.7,439.6z M1006.2,409.6c-0.5-0.5-1-0.5-1.6,0c0,0.6,0.3,1,0.9,1.1
		C1006.1,410.5,1006.2,410.1,1006.2,409.6z M1011.7,412c-0.5-1.4-0.6-2.2-1.6-2C1010.2,410.7,1010.6,411.1,1011.7,412z M970.8,400.9
		c0.8,0.3,1.7,0.9,2-0.9C972,400.4,971.4,400.6,970.8,400.9z M987.7,413.5c0,0,0.1,0.1,0.1,0.1c0.5,0,1.1,0,1.6,0c0,0,0-0.1,0-0.1
		C988.9,413.5,988.3,413.5,987.7,413.5z M1001.5,366.4c1,0.1,1.7,0.4,2.6-0.2C1003.3,366,1002.6,365.7,1001.5,366.4z M946.6,372.7
		c0.4-0.5,0.4-1,0-1.5C946.1,371.7,946.3,372.2,946.6,372.7z M968.5,385.6c0.3,0.3,0.6,0.6,1,0.7c0.3,0.1,0.5-0.3,0.2-0.6
		C969.4,385.3,969,385.2,968.5,385.6z M983.2,375.8c0-0.1-0.1-0.3-0.1-0.4c-0.3-0.3-0.6-0.3-0.7,0c-0.1,0.3,0.1,0.6,0.5,0.6
		C982.9,376,983,375.9,983.2,375.8z M991.1,419.5c1.1,0.5,1.4,0.2,1.1-0.9C991.5,418.5,991.1,418.8,991.1,419.5z M987.9,423.1
		c-0.4-0.3-0.8-0.4-1.1,0.1c-0.1,0.1,0.1,0.7,0.3,0.7C987.5,423.9,987.8,423.6,987.9,423.1z M979.2,396.1c-0.1-0.1-0.2-0.2-0.3-0.3
		c-0.3-0.2-0.6-0.1-0.7,0.3c0,0.1,0.2,0.3,0.2,0.3C978.8,396.4,979,396.2,979.2,396.1z M977.7,357.6c0.7,0.3,1,0.2,0.7,0
		C978.2,357.5,977.9,357.6,977.7,357.6z M200.5,409.5c-0.1,0.1-0.2,0.1-0.3,0.2c0.1,0.1,0.2,0.3,0.2,0.3c0.2-0.1,0.3-0.2,0.5-0.3
		C200.7,409.6,200.6,409.6,200.5,409.5z M965.3,389.6c-0.1-0.1-0.2-0.4-0.3-0.4c-0.3,0.1-0.6,0.2-0.8,0.3c0.1,0.1,0.2,0.3,0.3,0.4
		C964.9,390,965.1,389.9,965.3,389.6z M670.3,342.1l-0.2,0.3l0.3,0.1L670.3,342.1z M959.2,388.1c-0.1,0.1-0.2,0.2-0.3,0.2
		c0.1,0.1,0.2,0.3,0.3,0.3c0.1,0,0.2-0.1,0.3-0.2C959.4,388.3,959.3,388.2,959.2,388.1z M206.8,402.2l0.1-0.2l-0.3,0L206.8,402.2z
		 M986,405.8l0.3,0.2l0-0.2L986,405.8z"/>
	<path d="M887.6,479.9c5,2.4,10.7,3.2,15.6,6.2c0.2,1.4-0.1,2.1-1.1,2.3c-1.3,0.2-2.5-0.1-3.8-0.5c-0.9-0.6-0.8-2-2.1-2.3
		c-1.2-0.3-2.5-0.7-3.7-1.1c-2.9-1-5.7-2-7.8-4.5c-0.8-0.9-2-1.6-3-2.4c-1-0.9-2.1-1.5-3.4-1.7c-4.6-0.7-9.2-1.3-13.8-1.9
		c-0.2,0-0.4,0.3-0.6,0.5c3.1,2,5.8,2.9,13,4.3c1.3,1.2,2.6,2.7,4.2,3.8c2.4,1.7,4.9,3,7.8,3.7c2.1,0.6,4.3,1.2,5.9,2.3
		c0.5,1.1,0.3,1.6-0.1,2.3c-3.1,1.8-6.4,2.4-10.1,1.5c-1.7-0.4-3.5-0.5-4.6-0.6c-6-3.3-11.4-6.4-16.6-9.3
		c-6.2-0.7-12.4,0.7-18.2-1.4c-0.2-0.8,0-1.4,0.6-1.7c0.4-0.2,0.9-0.5,1.4-0.4c5.4,0.8,10.9,0.2,16.4,0.5c4.9,3.2,10.5,5.3,15.2,9
		c0.8,0.7,2,1,3.1,1.2c2.8,0.5,5.7,0.7,8.9,0.3c-9.4-3.7-11.7-5.6-14.9-9.4c-2.9,0.3-5.8-0.7-8.6-1.6c-3.2-1.1-6.4-2.1-9.1-2.4
		c-1.6-0.7-1.3-1.9-1.9-2.7c-1.2-0.9-2.6-1-4.1-1c-3.4,0-6.7-0.5-10-1.2c-2.8-0.6-5.7-1-8.6-0.8c-4.9,0.4-9.1-1.5-13.2-3.7
		c-0.1-0.1-0.1-0.3-0.2-0.4c0.2-0.8,1-0.9,1.4-0.6c4.2,2.4,9.1,1.5,13.6,2.6c6.3-1.1,12.3,1.8,18.5,1.3c0.8-0.1,1.6,0.2,2.4,0.4
		c3.7,1.2,7.5,1.5,11.4,1.3c3.9-0.2,7.6,0.7,11.5,1.2c2.1,0.2,4,1.2,5.4,2.9C885.3,477,886.2,478.3,887.6,479.9z"/>
	<path d="M778.9,369.5c-2.9-4.6-4-8.5-2.8-13c0.7-2.6,1-5.4,1.6-8c1.1-4.8,4.2-7.8,8.8-9.3c2.2-0.7,3.4,0.2,4.4,2.9
		c-0.3,1.2-1,2-2.1,2.4c-0.9,0.3-1.8,0.6-2.7,1c-2.2,1-3.5,2.6-3.8,5.1C781.6,356.8,780.5,362.7,778.9,369.5z"/>
	<path d="M685.7,420.2c1.5-6.6,1.6-13.1,1.9-19.7c0.4-8.2,0.3-16.4,1.4-24.5c0.5-3.5,0.9-6.9,2.4-10.7c0.8,1.8,0.5,3.2,0.4,4.5
		c-0.5,7.4-1,14.7-1.4,22.1c-0.2,3.7-0.3,7.4-0.4,11c-0.2,4.2-0.7,8.3-1.6,12.4C687.9,417.1,687.4,419,685.7,420.2z"/>
	<path d="M791.9,365.9c0.9,1.6,0.4,2.8,0.1,4c-1.9,6.6-0.9,13.1,0.4,19.5c0.7,3.4,1,6.7,0.7,10c-0.4,3.9-0.1,7.7,0.6,11.5
		c0.6,3.2,0.6,6.2-1.2,9.2c-0.4-0.4-0.9-0.6-0.8-0.8c0.9-4.8-0.3-9.6-0.7-14.3c-0.2-2.1-0.3-4.1,0-6.2c0.4-2.6,0.1-5.1-0.5-7.6
		c-1.3-4.7-1.4-9.5-1.6-14.3C788.6,373.1,789.3,369.3,791.9,365.9z"/>
	<path d="M712.1,367.8c0.6-1.8,2.2-2.7,3.6-3.8c8.6-6.8,17.6-12.9,27.8-17c4.7-1.9,9.5-3.7,14.6-4.8c0.4,0.5,0.8,1,1.2,1.5l0.1-0.2
		c-1.3,1.3-3,1.8-4.7,2.3c-5.7,1.7-11.2,3.8-16.7,6.2c-8,3.5-15.1,8.4-22,13.6C714.9,366.5,713.9,368,712.1,367.8L712.1,367.8z"/>
	<path d="M857.5,372.7c0.9,0,1.3-0.1,1.5,0c2.5,2.3,5.5,3.8,8.3,5.6c3,1.9,5.7,4,8,6.8c0.7,0.9,1.4,1.8,1.5,2.9
		c0.2,1.2-0.1,2.2-1.4,2.7c-0.3,0-0.7,0-0.9-0.1C872.3,388.6,859.2,375,857.5,372.7z"/>
	<path d="M807.9,366.1c-2.9-1.8-5.7-3.5-7.1-6.7c-1.4-3.3-1.6-6.8-1.2-10.3c0.1-1.1,0.3-2.2,1.6-2.7c0.7,0,1.3,0.2,1.5,0.9
		c0.3,0.9,0.6,1.8,0.7,2.8c0.8,5.2,2.1,10.3,4.4,15.1C808,365.4,807.9,365.7,807.9,366.1z"/>
	<path d="M352.7,376.6c-3.2-0.2-6.1,0.2-8.9-0.6c0-0.9,0.5-1.2,1.2-1.3c2.7-0.4,5.4-0.6,8,0.6c1,0.4,2.1,0.7,3.2,0.9
		c8.6,1.1,17.1,2.4,25.8,2.2c0.6,0,1.2,0.1,1.9,0.2c-0.2,1.6-1.4,1.7-2.5,1.9c-2.9,0.3-5.8,0.1-8.6-0.3c-4.6-0.7-9.1-1.5-13.8-1.2
		C356.5,378.9,354.3,378,352.7,376.6z"/>
	<path d="M862.4,339.9c1.4-0.1,2.1-1.4,3.1-2.1c1.3-0.8,2.5-1.9,4.5-2.3c-0.5,1.9-1.9,2.9-2.6,4.2c-0.7,1.4-1.5,2.8-2.2,4.3
		c-0.6,1.3-1.1,2.7-1.6,4c-0.5,1.5-0.6,3.2-2.1,4c-1.6-0.1-2-1.1-2.1-2.3c-0.1-2.3,0.7-4.4,1.6-6.5c0.5-1.2,1.6-2.1,1.5-3.5
		L862.4,339.9z"/>
	<path d="M862.5,339.7c-1.1,0-1.5,1-2.2,1.6c-1.4,1.3-2.4,3-4,3.9c-1-0.2-1.3-0.9-0.8-1.4c1.9-1.9,2.6-4.3,3.3-6.8
		c0.5-1.7,1.1-3.3,1.7-5c0.3-0.9,0.9-1.7,1.9-2c1.4-0.2,2.1,0.5,2.4,1.8c-0.1,2-0.8,3.9-1.8,5.8c-0.4,0.7-0.8,1.4-0.6,2.2
		L862.5,339.7z"/>
	<path d="M821.8,335.5c-0.5-1.1-0.7-1.5-0.9-2.1c1.9-2.7,2.3-6.7,6.4-7.6c1.9,2.3,1.7,4.5-0.5,6.1
		C825.3,333,823.5,333.6,821.8,335.5z"/>
	<path d="M723.7,412.1c0.7-3.2,2.8-5.7,4.5-8.4c2.8-4.5,6.3-8.4,10.1-12.1c0.4-0.4,1.1-0.6,1.6-0.9l0.2,0.2
		c-0.2,1.2-1.2,1.9-1.9,2.6c-4.2,4.3-7.9,9.1-11.1,14.2c-1,1.5-1.5,3.5-3.6,4.1L723.7,412.1z"/>
	<path d="M784.6,382.3c0.1-5.2-1-10-1.5-14.9c-0.1-0.9-0.1-1.9-0.1-2.9c0-0.7,0.4-1.2,1.3-1.3c0.6,1.8,1,3.6,0.9,5.5
		c-0.1,4.1,1.3,8.2,0.6,12.4C785.7,381.6,785.5,382.1,784.6,382.3z"/>
	<path d="M704.8,396.6c-0.4,8.1-3.2,15.3-6.6,22.4c-0.1-4.1,2.1-7.6,3.3-11.4C702.5,403.9,703.6,400.3,704.8,396.6z"/>
	<path d="M269.4,349c-2.1,0.1-4.2,0.2-6.2,0.3c-4.7,0.4-4.7,0.4-9.4-2c-0.9,0.1-2,0.2-3.1,0.2c-0.9,0.1-1.9,0.4-2.8-0.3
		c-0.4-1,0.1-1.4,1-1.6c0.2,0,0.3-0.1,0.5-0.1c3,0.5,6.1,0.6,8.8,1.6C261.9,348.5,265.6,349.1,269.4,349z"/>
	<path d="M749.6,408.2c-0.1,0.3-0.1,0.7-0.3,0.8c-5.7,4.7-11.7,8.9-18.3,12.2c-0.1,0.1-0.3,0.1-0.5,0.1c-0.3-0.8,0.5-1,0.9-1.2
		c5.5-3.8,11.1-7.6,16.6-11.4C748.5,408.3,749,408.1,749.6,408.2L749.6,408.2z"/>
	<path d="M816.6,348c-1.1-3.5-0.2-6.8,3.3-11.4c0.5,3.7,0.4,7.1-1.3,10.4C818.2,347.8,817.5,348.2,816.6,348z"/>
	<path d="M805.4,461.4c0.1,0.1,0.3,0.1,0.4,0.2c2.6,2.8,5.1,5.6,7,8.5c-0.1,1.6-0.8,2.1-2.2,2c-0.3-0.3-0.9-0.6-1.2-1.2
		c-1.3-2.4-2.5-4.8-3.6-7.3c-0.3-0.7-0.2-1.6-0.2-2.3L805.4,461.4z"/>
	<path d="M411.6,375.4c-1.3,1.5-2.9,1.4-4.2,1.5c-4.7,0.7-9.3,0.6-14-0.1c5.8,0.1,11.2-2.1,17-2.1
		C410.6,374.7,410.9,375,411.6,375.4z"/>
	<path d="M808.4,367.9c4.4,2.2,4.9,5.5,2.5,13.4c-1-0.1-1.3-0.8-1.3-1.6c0-0.8,0.3-1.6,0.4-2.3c0.5-2.4,0.5-4.7-0.8-7
		C809,369.9,808.9,369.3,808.4,367.9z"/>
	<path d="M794,358.6c0.8-5,1.4-9.3,2-13.6c1.1-0.1,1.5,0.3,1.6,1C798.5,350.4,797.5,354.5,794,358.6z"/>
	<path d="M787.4,402.3c0.1-3.5,0.1-6-0.3-8.5c-0.4-2.5-1.7-4.7-1.9-7.2c1.1-0.3,1.4,0.3,1.7,0.8c1.5,2.9,2.3,6,2.2,9.2
		C789.1,398.3,789.3,400.1,787.4,402.3z"/>
	<path d="M417.5,408c-3.3-0.7-4.9-3.3-7.6-5.6c4.3,0.8,6,1.4,7.5,2.9C418.2,405.9,418.6,406.7,417.5,408z"/>
	<path d="M449.3,384.9c2.8-1.1,5.5-2.5,8.1-0.2c0.1,1.1-0.6,1.6-1.4,1.7C453.7,386.7,451.4,386.1,449.3,384.9z"/>
	<path d="M437.4,385.6c-2.9,1.3-5.1,0.2-7.4-1.7c3.9-1,4.7-1.1,6.5-0.3C437,383.8,437.5,384.3,437.4,385.6z"/>
	<path d="M724.7,346.6c2-3.5,5.1-6,8.1-8.5c0.1-0.1,0.6,0.1,0.9,0.2c0,0.3,0,0.6-0.1,0.8c-2.2,2.6-4.6,4.9-7.2,6.9
		C725.8,346.4,725.2,346.7,724.7,346.6L724.7,346.6z"/>
	<path d="M875.7,328.8c-1.5,1.7-2.9,3.1-4.2,4.6c-0.7,0-1.3-0.5-1.1-1.1C871.4,329.9,872.3,329.4,875.7,328.8z"/>
	<path d="M335.9,373c4.4-1,4.5-1,6.1,1C339.8,374.6,337.8,375.2,335.9,373z"/>
	<path d="M439.5,385.5c3-1.6,3-1.6,5.4-0.7c0.4,1.3-0.4,1.8-1.4,1.9C442.2,386.8,441,386.3,439.5,385.5z"/>
	<path d="M713.7,348.6c0,3.2-1.2,6.2-1.2,9.4C711.9,354.8,711.8,351.6,713.7,348.6z"/>
	<path d="M821.3,360.1c-0.8,0.5-1.2,0.8-1.7,1.1c-1.3-2.8-1.3-2.8-1.3-5.8C819.7,356.8,820.1,358.3,821.3,360.1z"/>
	<path d="M333.6,372.4c-2.5,0.6-4.2,0.7-5.9-0.7C330.6,370.1,330.6,370.1,333.6,372.4z"/>
	<path d="M849.9,347.8c0.7-1.1,1-2.6,3.2-2.2c0,1.6-0.3,2.8-2,3.3C850.4,348.9,850,348.6,849.9,347.8z"/>
	<path d="M844.2,352c-0.3-2.1,0.4-3,2.2-3.4c0.2,0.5,0.4,0.9,0.6,1.2C846.6,351.1,845.8,351.9,844.2,352z"/>
	<path d="M796,434.1c-1.7-1.3-2.6-2.9-1.7-5.4c1.9,1.7,1.8,3.6,1.6,5.5L796,434.1z"/>
	<path d="M840.3,476c2.3-0.6,3.9-0.9,5.4,0.1c0.2,0.7-0.1,1.1-0.5,1.5C843.6,477.7,842.3,476.8,840.3,476z"/>
	<path d="M833.1,474.6c-2.2,0.5-3.3-0.1-4.4-1.1C830.3,472.4,830.3,472.4,833.1,474.6z"/>
	<path d="M423.3,365.5c-1.3-0.4-2.8-0.4-3.6-2c1.5-0.4,2.8,0.2,4,0.8C423.9,364.8,423.8,365.2,423.3,365.5z"/>
	<path d="M805.5,461.3c-1.2-1.4-1-3.2-1.6-4.7c1.1-0.7,1.4,0,1.5,0.6c0.1,1.4,0,2.8,0,4.2L805.5,461.3z"/>
	<path d="M743,388c0.7-1.8,2.1-2.6,3.8-2.9l-0.1-0.1C745.9,386.6,744.7,387.7,743,388L743,388z"/>
	<path d="M753.4,405.2c-0.5,1.9-2,2.6-3.8,3l0.1,0.1c0.6-1.9,2.2-2.4,3.8-2.9L753.4,405.2z"/>
	<path d="M253.2,389.4c-0.1,0.7-0.4,1.2-1.1,1.4c-1.3-0.7-1.5-1.5-0.4-2.5C252.6,388.3,253,388.7,253.2,389.4z"/>
	<path d="M892.2,328.2c-0.3,0.7-0.7,0.9-1.1,0.8c-0.4-0.1-1-0.2-1.1-0.5c-0.1-0.5,0.4-0.7,0.8-0.9
		C891.3,327.6,891.7,327.6,892.2,328.2z"/>
	<path d="M881.5,327.6c0.9,0,1.8,0,2.7,0C883.4,328.3,882.5,328.2,881.5,327.6z"/>
	<path d="M756.4,403.4c-0.7,1.1-1.5,2-3,1.8l0.1,0.1c0.7-1.2,1.6-1.9,3-1.8L756.4,403.4z"/>
	<path d="M746.8,385.2c0.2-1.1,1.2-1.2,2-1.6c-0.2,1.2-1.1,1.4-2.1,1.5L746.8,385.2z"/>
	<path d="M795.9,434.2c0.8,0.8,1.1,1.8,0.5,2.9c-0.6-1-0.4-2-0.4-3L795.9,434.2z"/>
	<path d="M409.6,359c-0.7,0.1-1.5,0.1-2.2-0.3c0.1-0.8,0.8-0.6,1.2-0.5c0.4,0.1,0.6,0.5,0.9,0.8L409.6,359z"/>
	<path d="M835.6,475.1c0.6-0.7,1.3-0.8,1.9,0C836.9,476.2,836.2,476.1,835.6,475.1z"/>
	<path d="M693.2,359.7c0.1,0,0.2,0.1,0.2,0.1c0,0.1-0.1,0.2-0.1,0.3c-0.1,0-0.2-0.1-0.2-0.1C693.2,360,693.2,359.9,693.2,359.7z"/>
	<path d="M719.8,418.9c-0.2,0.7-0.2,1.4-1,1.8l0.1,0.1c0.1-0.7,0.2-1.5,1-1.8L719.8,418.9z"/>
	<path d="M719.9,419c0.1-0.8,0.2-1.5,0.9-2l-0.1-0.1c-0.1,0.8-0.2,1.5-0.9,2L719.9,419z"/>
	<path d="M721.5,414.9c-0.1,0.8,0,1.6-0.9,2l0.1,0.1c0.3-0.7,0.6-1.3,0.9-2L721.5,414.9z"/>
	<path d="M723.5,412c0.1,0.8-0.1,1.5-0.9,2l0.1,0.1c-0.1-0.8,0-1.6,0.8-2L723.5,412z"/>
	<path d="M693.7,391.7c-0.1,0.4-0.1,0.7-0.2,1.2c-0.4-0.6,0.1-0.8,0.3-1.1L693.7,391.7z"/>
	<path d="M710.2,369.7c-0.6,0.6-1.2,0.8-2,0.8l0.1,0.1c0.5-0.8,1.2-0.8,2-0.8L710.2,369.7z"/>
	<path d="M692.4,363.2c-0.1,0-0.2-0.1-0.2-0.1c0-0.1,0-0.2,0.1-0.3c0.1,0,0.2,0.1,0.2,0.1C692.5,363,692.4,363.1,692.4,363.2z"/>
	<path d="M718.8,420.7c-0.2,0.3-0.1,0.2,0.1,0.1L718.8,420.7z"/>
	<path d="M840.8,352.5c0.1,0.1,0.2,0.2,0.3,0.3c-0.1,0.1-0.2,0.3-0.3,0.3c-0.1,0-0.2-0.2-0.3-0.3
		C840.5,352.7,840.6,352.6,840.8,352.5z"/>
	<path d="M724.6,346.5c0.1,0.7-0.3,0.9-0.9,0.9l0.1,0.1C723.7,346.9,724,346.6,724.6,346.5L724.6,346.5z"/>
	<path d="M711.2,368.8c-0.1-0.7,0.3-0.9,0.9-1l-0.1-0.1c0.1,0.7-0.3,0.9-0.9,1L711.2,368.8z"/>
	<path d="M723.6,347.4c-0.1,0.1-0.1,0.2-0.2,0.3c0.1-0.1,0.2-0.1,0.3-0.2L723.6,347.4z"/>
	<path d="M710.3,369.9c0-0.6,0.3-1,1-1.1l-0.1-0.1c-0.3,0.3-0.7,0.7-1,1.1L710.3,369.9z"/>
	<path d="M708.1,370.5c-0.1,0.2-0.2,0.4-0.2,0.4c0,0,0.2-0.2,0.3-0.3L708.1,370.5z"/>
	<path d="M741.9,388.9c0.1,0.7-0.2,1-0.9,1l-0.2-0.2C741,389.2,741.3,388.9,741.9,388.9L741.9,388.9z"/>
	<path d="M756.5,403.5c-0.1-0.7,0.3-0.9,0.9-1l-0.1-0.1c0,0.6-0.4,0.9-0.9,1L756.5,403.5z"/>
	<path d="M757.4,402.5c0.3-0.4,0.7-0.7,1-1l-0.1-0.1c0,0.7-0.4,0.9-1,1.1L757.4,402.5z"/>
	<path d="M741.1,390c0,0.6-0.3,1-1,1l-0.2-0.2c0-0.6,0.3-1,1-1L741.1,390z"/>
	<path d="M409.5,359.1c0.1,0,0.4,0.1,0.4,0.1c0,0.3-0.1,0.2-0.3-0.2L409.5,359.1z"/>
	<path d="M722.7,414c-0.2,0.5-0.6,0.9-1.1,0.9l0.1,0.1c0.4-0.3,0.8-0.6,1.1-0.9L722.7,414z"/>
	<path d="M742.9,387.9c0.1,0.7-0.2,1-0.9,1c0,0,0,0,0,0C741.9,388.3,742.3,388,742.9,387.9C743,388,742.9,387.9,742.9,387.9z"/>
	<path fill="none" d="M669.7,335.9c-0.5,0.1-0.9,0.2-1.7,0.4c-0.3,2.4-0.5,4.9-0.8,7.4c3,0.2,5.7,2.2,8.3-0.1
		c0.3-1.1-1.2-0.7-1.3-1.5c0.9-1.2,2.8-0.9,3.5-2.8c-2.2,0.2-4.2,0.3-6.9,0.5c1.3-1.4,2.4-1.6,3.5-1.8c1.2-0.3,2.6-0.1,3.6-1.4
		c-0.5-0.4-1-0.7-1.7-1.2c1.3-0.3,2.4-0.5,3.7-0.1c1,2.7-0.8,5.2-0.9,7.8c-0.2,2.9-0.9,5.7-1.5,8.5c-0.6,2.6-1.5,5.2-2,7.1
		c0,2,1.4,2.1,1.8,3.3c-1.1,6.1-0.6,12.5-1.4,18.9c0,0.3-0.1,0.6-0.1,1c1,11.4-0.6,22.8-0.4,34.1c0,2.2,0.3,4.5-0.4,6.7
		c-0.3,1,0.1,1.9,0.2,2.8c0.2,1.1,0.5,2.2-0.3,3.5c-1.6,0.7-3.6,0.2-5.4,0.2c-2,0-3.7,0.8-5.5,2c-0.1,0.7-0.1,1.5-0.2,2.5
		c-5.7,5.2-12.1,9.7-19.6,12.4c-1.6,0.6-1.6,0.6-4.1,0.1c-0.3-0.6-0.1-1.2,0.2-1.8c1.1-2.3,2.1-4.7,3.4-6.9
		c2.7-4.7,6.3-8.5,11.5-10.4c2.1-0.8,4.1-1.7,6.5-2.8c3,2.2,6.6,3.2,10.5,2.6c0.3-0.5,0.5-0.9,0.6-1.3c-0.2-0.4-0.3-0.7-0.6-0.9
		c-1.4-1-3.5-0.3-4.8-1.9c1.1-1.1,3.1-1.2,3.6-3.3c0.2-1.3-0.7-2.2-1.9-2.8c-1.7-0.2-0.4,1.8-1.1,1.9c-2.3,1.4-4.5,2.1-5.8,3.8
		c-6.1-0.1-11.1,2-15.5,5.7c-2.7,2.3-4.8,5.1-6.3,8.4c-1.2,2.8-2.5,5.6-3.7,8.3c-0.9,0.8-1.9,0.5-2.8,0.3c-3.1-0.6-6.1-0.3-9.1,0.2
		c-2.1,0.3-4.1,0.8-6.2,1c-1.4,0.1-2.2,1.2-3.7,1.7c-5.9,0.6-11.9-0.4-17.9-1.6c-5-1-10.1-2-15.1-3.1c-2.8-0.6-5.7-0.9-8.6-1.1
		c-1.6-0.1-3.1-0.5-4.3-0.7c-1.4,0-1.5,1.1-2.5,1.6c-6.4-1.1-12.8,1.3-19.4,1.4c-3.5-2.2-7.7-2.4-11.1-4.4c-0.3-0.5-0.2-0.9,0.1-1.3
		c0.3-0.4,0.7-0.8,0.3-1.3c-0.9-1.3-2.4-1.5-3.8-1.5c-6.3-0.3-12.5-0.4-18.6,1.3c-1.2,0.3-2.4,0.9-3.7,1.3c-2.7-0.1-5.2-1.1-7.6-2.6
		c-1.8-1.1-3.6-2.1-5.4-3.1c-1.8-1-3.7-1.2-5.6-0.7c-2.5,0.6-5,1-7,3c-0.6,0.7-1.7,0.9-3,0.3c-2.3-7.6-4.6-15.3-3.5-23.7
		c1.8-12.9,3.2-25.8,6.1-38.5c0.8-3.4,1.5-6.9,1.5-10.2c0.8-1.2,1.7-1.2,2.7-1.2c2.9-0.1,5.8-0.1,8.7-0.2c3.1-0.1,6.1-0.8,8.8-2.1
		c4-1.9,8.2-2.7,12.5-3.4c7.1-1.2,14.3-2.2,21.4-3.4c6.5-1.1,12.8-3.1,18.7-6c0.9-0.4,1.7-0.9,2.6-1.2c6.5-2.3,11.8-6.4,16.6-11.1
		c4-3.9,8.6-6.7,13.5-9c4.8-2.3,9.7-4.4,14.8-5.8c6.5-1.7,13.2-2.6,20-1.8c2.1,0.2,4.1,0.5,6.2,0.5c7.7,0.2,14.9,1.9,21.6,5.8
		c4.3,2.5,9,4.3,13.5,7.2c0.4,1.4,1.9,2.5,2,4.4L669.7,335.9z M567.6,361.2c-0.3,0.3-0.6,0.7-1,1c-0.8,0-1.5,0.1-2,0.8
		c-0.3,0.3-0.7,0.7-1,1c-0.5,0.1-0.8,0.4-0.8,1c-0.5,0.1-0.9,0.5-1,1c-0.6,0.1-0.9,0.4-0.9,1c-1.4-0.1-2.3,0.7-3,1.8
		c-0.5,0.1-0.9,0.4-0.9,1c-0.5,0.1-0.9,0.4-0.9,1c-0.6,0.1-1,0.3-1,1c-0.7,0-1,0.3-1,1c-0.6,0-1,0.3-0.9,1c-0.7-0.1-1.1,0.2-1,0.9
		c-0.7-0.1-1,0.3-1,0.9c-0.6,0-0.9,0.3-1.1,0.9c-0.8,0.4-1,1.1-0.9,2c-0.4,0.2-0.9,0.3-1.2,0.5c-3.8,3.4-8,6.4-12.3,9.1
		c-2.7,1.7-5.6,3.1-8.7,3.9c-4.6,1.3-9.2,2.7-13.8,4c-8.3,2.4-14.4,7.4-18.3,15.1c-0.4,0.7-0.8,1.4-1.1,2.1c-1.5,3.2-3,6.4-5.2,9.2
		c-0.9,1.1-1.5,2.4-1.6,3.9c0.5,0.1,1,0.3,1.4,0.2c2.9-0.6,4.9-2.4,6-5c1.2-2.8,2.4-5.6,3.5-8.4c2.7-6.8,7.4-11.5,14.5-13.6
		c3.1-0.9,6.1-2,9.2-2.8c9.9-2.4,18.1-7.8,25.5-14.7c1-1,2.2-1.9,2.2-3.5c1.1-0.3,1.1-1.1,0.9-2c0.7,0.1,1-0.3,1.1-0.9
		c0.6,0,0.9-0.4,1-0.9c0.5-0.1,0.8-0.4,1-0.9c0.5-0.1,0.8-0.4,0.9-1c0.6-0.1,1-0.4,1-1c0.6,0,0.9-0.4,1-1c0.6,0,0.9-0.4,0.9-1
		c0.7,0,1-0.3,0.9-1c1.4,0.1,2.2-0.9,3-1.8c0.3-0.3,0.6-0.7,0.9-1c0.3-0.3,0.7-0.7,1-1c0.5-0.1,0.9-0.4,0.8-1c0.6-0.1,0.9-0.5,1-1
		c0.8,0.1,1.4-0.2,2-0.8c0.3-0.3,0.6-0.7,1-1c0.3-0.4,0.7-0.7,1-1.1c0.3-0.3,0.6-0.7,0.9-1c0.7,0,1.5-0.1,2-0.7
		c0.3-0.4,0.7-0.7,1-1.1c0.1-0.1,0.2-0.2,0.3-0.2c-0.1,0.1-0.1,0.2-0.2,0.4c-0.3,0.4-0.7,0.7-1,1.1c-0.7,0.2-1.3,0.5-2,0.7
		c-0.3,0.3-0.6,0.7-0.9,1C568.1,360.3,567.7,360.6,567.6,361.2z M669.7,363.9l0.1,0.2L669.7,363.9c-0.1-0.6,0-1.2,0-1.8
		c0.1-0.1,0.1-0.2,0.2-0.3c0,0.1,0,0.3-0.1,0.4C668.7,362.8,668.7,362.8,669.7,363.9z M579.2,353.5c-0.7,0.1-1.5,0.2-2,0.8
		c-0.6,0.3-1.2,0.6-1.8,0.9c-0.1,0.1-0.2,0.2-0.3,0.3c0.1-0.1,0.1-0.3,0.2-0.4c0.7-0.1,1.5-0.2,1.8-0.9c0.7-0.3,1.4-0.5,2-0.8
		l0.2-0.2L579.2,353.5z M643.7,414c3.7,0.2,7.2-1,10.7-2.1c0.9-0.3,1.8-0.8,1.4-2.1c-0.6-0.7-1.4-0.7-2.2-0.4
		c-3.3,1.5-6.5,3.1-9.8,4.6c-0.5,0-0.9,0.1-1.5,0.1C643,415,643.3,414.5,643.7,414z M654.3,345.6c-0.1-0.1-0.3-0.3-0.2-0.3
		c0,0,0.2,0.1,0.4,0.2c0.3,1.2,1.4,1.7,2.2,2.4c2.8,2.2,5.3,4.6,7.8,7.4c0.1,0.7,0.1,1.5,0.2,2.3c0.1,0.9,0.1,1.9,0.8,2.7
		c1.8-1.6,1.9-3.2,0.8-10.1c-1.3-0.1-0.9,1.6-1.9,1.8C659.8,347.9,658.8,347.2,654.3,345.6z M579.5,338.5c2.1,0.5,4,0.1,5.8-0.4
		c4.8-1.4,9.6-2.7,14.2-4.3c3.3-1.1,6.5-2.8,8.8-5.6c0.9-1,1.9-1.7,3.2-2c1.6-0.3,3.1-0.8,4.7-1c6.5-0.9,13.1-1,19.6-0.8
		c1.2,0,2.6,0.5,3.7-0.4c0.1-0.8-0.3-1.3-0.9-1.5c-0.7-0.2-1.5-0.4-2.3-0.5c-7.4-0.4-14.7,0.1-21.9,1.6c-2.9,0.6-5.8,1.6-8,4
		c-1.9,2-4.4,3.2-7,4c-6.1,1.8-12.1,4.3-18.5,5.1C580.2,337.1,579.6,337.3,579.5,338.5z M660.5,360.9c-3.4-1.9-6.6-1.4-9.6-2
		c-3.3-0.7-6.6-1.5-9.8-2.6c-3-1-6-2.2-8.9-3.6c-3-1.4-5.8-3.2-9.1-5.5c0.3,1.9,1.1,2.6,1.9,3.3c3.3,2.8,7.2,4.8,11.1,6.6
		c5.8,2.8,12,4.4,18.5,4.8C656.4,362.1,658.2,362.5,660.5,360.9z M670.9,404.5c-0.7,1.6-2.7,1.8-3.6,3.3c-0.2,0.4-0.3,0.9-0.3,1.1
		c0.2,1.7,2,1.7,2.5,2.9c0.2,1.6,0.2,1.6,1,2.2c1.3-0.2,2.7-0.4,3-2c-0.3-1.5-1.8-2-2.4-3.2c0.5-0.9,1-1.9,1.4-2.7
		C672.2,405.3,671.9,404.8,670.9,404.5z M542.1,420.1c-4,3.3-8.7,5-13.3,7.2c3.7,0.3,6.8-1.4,9.8-3
		C540.3,423.5,541.8,422.4,542.1,420.1z M673.8,347.9c-2.7-1.9-3.1-1.9-5.1-0.3c0,1.1,1.4,1.2,1.7,2.1c0,0.7-1,1.2-0.5,2.1
		c0.3,0.1,0.5,0.3,0.9,0.5c1-0.3,0.7-1.6,1.4-2.2C673,349.6,673.9,349.1,673.8,347.9z M664.2,369.9c-0.9,2-1.6,3.6-2.2,5.2
		c-0.3,1,0,1.9,1.2,2.1c2.1-0.5,1.5-2.6,2-3.9c0.5-0.1,0.9-0.2,1.5-0.4C665.9,371.9,665.1,371,664.2,369.9z M668.8,388.3
		c-0.4-1.8,0.2-3.5-1.7-4.3c-0.8,1.2-0.7,2.4-0.1,3.6c0.3,0.2,0.5,0.4,0.8,0.5C667.8,388.2,668,388.2,668.8,388.3z M661.7,414.4
		c-0.6,2.2-0.6,2.2,0,4.3C662.9,415.6,662.8,415.6,661.7,414.4z M673.6,357.2c-1.4-1.1-2.4-1.8-3.3-2.4c-0.6,0.6-0.6,1.1-0.2,1.9
		C670.9,357.1,671.8,357.6,673.6,357.2z M669.9,391.4c-1.4-0.6-2.3,0-3.2,0.6c-0.5,0.4-0.8,0.9,0.1,1.5
		C667.8,392.9,668.8,392.2,669.9,391.4z M668.5,397.6c0.4,0.3,0.6,0.5,0.8,0.7c0.8-0.1,1.4-0.5,1.7-1.3
		C670.1,396.4,669.4,396.2,668.5,397.6z"/>
	<path fill="none" d="M221.7,388c2.1,1.4,3.6,3.5,6.5,4c-2.7,2.6-5.5,3.7-8.7,4.7c-4.9-4.6-9.2-10.1-14-13.9
		c-1.7-0.6-2.5,0.3-3.4,0.2c-1.9-0.9-2.8-3.1-4.7-3.8c-1.4-0.3-2.3,0.2-2.6,1.5c0.1,1.8,1.5,2.7,2.5,3.9c1.8,2,4,3.6,5.1,6.2
		l0.1-0.1c-0.8,0.3-1.5,0-2.3-0.3c-1-0.4-2.1-0.9-3.2-1.1c-3-0.5-5.1,1.8-4.2,4.7c0.3,1.2,1,2.3,1.6,3.5c-5.6,0.4-5.6,0.4-7.3,3.6
		c0.1,2.9,2.2,4.9,3.4,7.7c-2.5,0.6-5.4-0.2-7.1,2.8c-1.2,3.6,0.4,6.5,3.5,8.8c1.5,1.1,3.3,2,4.9,3c0.1,0.6,0.1,1,0.1,1.5
		c-0.3,0.1-0.6,0.4-0.9,0.4c-1.6-0.3-3.1-0.8-4.7-0.7c-1.2,0.1-2.2,0.4-2.9,1.9c2.8,4.8,8,5.6,12.8,6.6c0.4,1.5-1,2.5-0.6,3.6
		c0,1.6,1.3,2,1.9,3.4c0.5,2,0.8,4.4,0,7c-5.4,3.3-10.7,7.4-18,5.6c-1.5,0.5-3,0.9-4.8,1.5c-2.9-1-5.9-2-9.2-3
		c-1.6-1.5-3.4-3-5.3-4.5c-3.6-2.8-5-6.9-5.3-11.4c-0.1-1.8-0.2-3.5-0.3-5.3c-0.3-5.9-1.7-11.7-3-17.8c2.2-6.6,3.6-13.7,6.9-20.2
		c1.2-2.4,1.8-5.1,2.7-7.7c5-4.6,8.2-10.2,9.7-16.8c0.3-1.4,1-2.7,1.5-4c0.8-1.8,1.7-3.5,2.5-5.2c1.4-2.9,1.7-5.8,0.2-8.8
		c-0.7-1.5-1.1-3-1.2-4.4c0.2-1.2,0.9-1.9,1.5-2.6c0.5-0.6,1.2-1.2,1.4-1.9c1.3-4.4,4.5-7.7,6.7-11.5c1.5-2.5,2.7-5.1,3.6-7.9
		c0.6-1.8,1.2-3.7,3.1-4.9c0.4,0,0.9,0,1.3,0.2c2.5,1.3,5.2,1.6,7.9,1.6c5-0.1,9.9,0.5,14.8,1.7c2.2,0.6,4.4,1.2,6.2,2.6
		c3.9,3,8.5,4.5,12.9,6.4c2.8,1.2,5.5,2.5,8.3,3.7c-1.9,3.4-1.9,3.6-4.5,4.7c-3.5,1.5-6.1,4.1-8.9,6.5c-1.4,1.2-2,2.9-2.5,4.6
		c-0.8,3-2.4,5.6-4.9,7.5c-3.9,3.1-5.5,7.4-6.2,12.1c-0.3,2.4-0.4,4.8-0.2,7.2c0.1,1.3,0.2,2.5,0.3,3.4c-0.3,1.9-2.5,2-2.6,3.7
		c0,1.4,0.8,2.4,1.8,3.2c2.5,2,5,4,6.7,6.6c0.5-0.2,0.8-0.2,1.1-0.3c0.1-0.3,0.3-0.6,0.3-0.9c-0.2-0.9-0.9-1.7-0.5-2.8L221.7,388z"
		/>
	<path fill="none" d="M976,408.2c-3.3,3.1-7.3,5.2-11,7.6c-1.8,1.2-4,1.9-5.5,3.8c0.2,0.5,0.3,1,0.4,1.3c1.4,1,2.9,0.6,4.3,0.4
		c3.4-0.5,6.7-0.4,9.9,1.1c0.9,0.4,1.9,0.4,3,0.7c0.4,0.6,0.9,1.2,1,1.4c2.8,0.9,4.6-0.5,6.4-0.7c1.3,0.2,1.1,1.3,1.9,2.1
		c1.8,1.1,4.3,0.8,6.4,1.5c0.9-0.3,1.7-0.5,2.4-0.8c1.2,0.4,1.9,1.8,3.4,1.6c0.8,1,0.5,2.5,1.6,3.4c0.9,0.8,1.9,0.7,2.7,0.5
		c1.2,1.3,1.2,2.6,1.5,3.9c0.3,1.2,0.6,2.5,0.9,3.6c-2.3,2.1-9.8,7.1-12.5,8.1c-0.6,0.2-1.2,0.5-1.9-0.2c-0.5-0.8,0.3-1.7,0.3-2.6
		c-0.1-1,0-1.9,0-2.6c-2.5-4-4.4-8.2-8.7-10c-0.8,0.5-0.9,1-0.5,1.7c0.9,1.4,2.2,2.3,3,3.8c1.6,3.2,1.9,4,2.3,8.8
		c-2,0.6-4.2-0.3-6.1,0.9c-1.6,1-3.1,2.2-4.8,3.3c-2.7,1.7-5.4,3.4-7.9,5.5c-0.8,0.7-1.7,1.5-3.2,1.6c-1.4-2.7-0.9-5.8-1.6-8.5
		c0.9-1.1,2.3-0.1,3.2-0.8c0.2-0.8-0.3-1.1-1.1-1.5c-2.2,0.2-4.1,1-5.2,3.5c0.2,0.8,0.4,1.7,0.6,2.6c-0.2,0.2-0.3,0.6-0.6,0.7
		c-1.9,0.8-3.8,1.5-5.8,2.4c-2.1-2.5-1.6-6.4-4.6-8c-0.7-0.1-1,0.3-1.3,0.7c-0.4,1.2,0.8,2,0.9,3.1c-0.2,0.9-0.7,1.4-1.7,1.7
		c-0.3-0.1-0.8-0.1-1.1-0.4c-2.7-2.1-5.5-2.3-8.5-0.5c-0.7,0.4-1.5,0.6-2.3,0.7c-0.8,0.2-1.6,0.2-2.2,0.2c-4-2.1-4.2-2.2-6.8-5.7
		c-0.8-6.2,0.4-12.7-1.5-19c-0.9-2.1-3.7-2.5-4.2-4.7c-0.5-0.3-0.8-0.5-1.1-0.6c-4.6-0.9-9.1-1.9-13.1-4.4c-1.6-1-3.7-1.1-5.6-1
		c-1.6,0.1-3.3,0.1-4.7-0.6c-3.6-1.6-7.3-1.2-10.9-0.6c-5.4,0.9-10.7,2.3-15.5,5c-0.9-0.9-0.4-1.8-0.2-2.7c2.1-7.9,2.1-7.9,9-12
		c1.4-0.8,2.8-1.6,4.1-2.3c0.6,0.4,1.1,0.7,1.7,1.2c3.6-3.2,7.9-5.5,11-9.3c1.4-1.7,3.5-2.3,5-3c4.7-4.5,8.2-9.4,10.5-15.2
		c1.4-3.4,3.2-6.6,5.8-9.4c1-1,1.7-2.3,2.5-3.5c0.5-0.9,1.3-1.4,2.1-1.7c0.5,0.1,0.8,0,1.1,0.1c0.9,0.6,1.8,1.2,2.7,1.8
		c0.1,1.6,0.2,3,0.3,4.4c1.3,0.7,2-1.1,3.2-0.6c0.1,0.4,0.3,0.8,0.4,1.2c-0.5,1.5-2.5,1.6-2.4,3.2c-1.3,0.5-2.5-0.1-3.8,0.7
		c1.7,0.8,3.3,1.5,4.4,2c1.3,1.5,0.2,2.9,0.9,4.7c0.9,1.6,2.3,3.5,3.3,4.4c2,1.2,2.8,0.1,3.9,0c1.4,0.3,2.9,0.6,4.7,1
		c2.6,1.9,5.5,3.5,8.6,5c3.8,1.8,3.7,1.9,7.7,1.2c0.1,0.1,0.3,0.2,0.3,0.3c0,0.1,0,0.3-0.1,0.5c-2.9,3.6-5.5,7.5-8,11.4
		c-0.8,1.2-2,2.1-2.9,3.1c-0.2,1.2-0.4,2.3-0.5,3.3c-1.7,1.7-3.4,3-5.9,2.7c-2.4,1.5-3.5,4.1-5.2,6.3c-0.3,0.3-0.7,0.7-1,1
		c-0.1,0.1-0.1,0.2-0.2,0.3c0-0.1,0-0.3,0.1-0.4c0.6-0.1,0.9-0.5,1-1c2.5-0.2,3.8-2.1,5.7-3.6c0.9-0.1,2.1,0,3.1-0.4
		c2.5-1.1,4.9-2.3,7.2-3.6c0.8-0.4,1.2-1.4,1.8-2.1c-1-1.2-2.3-0.4-3.4-1.2c0.1-1.3,1.4-1.9,2.2-2.7c0.9-0.9,1.4-2.1,2.8-2.6
		l-0.1-0.1c0.3,0.5,0.6,1.1,1,1.7c2.2,0.7,4.7,0.8,5.7,3.3c2-1.3,2.2-3.3,3.6-4.8c3.8-1.1,8.5,0.6,12.2-3.2c0.5,2.8-2.2,3.9-2.1,5.9
		c0.3,1,1.3,0.7,2,0.9L976,408.2z M944.2,407.9c-0.5-0.6-1.1-0.7-1.8-0.4c-1.7,0.6-3.2,1.5-4.6,2.6c-5.5,3.9-10.9,8-17.7,9.3
		c-0.6,0.1-1.2,0.4-1.2,1.2c0.5,0.5,1.2,0.5,1.8,0.4c3.1-0.3,5.9-1.3,8.6-3c4.8-3,9.5-5.9,14.3-8.9
		C943.8,408.8,944,408.3,944.2,407.9z M981.3,445.9c0.7-0.5,1.4-1.1,2.2-1.7c0.1-0.1,0-0.3,0-0.7c-1.7-0.6-2.6-2-3.1-3.7
		c-0.3-0.9-0.5-1.9-1.2-2.5c-0.4-0.4-0.8-1-1.8-0.3c0.8,2.3,0.9,4.8-0.2,7.1C978.4,444.9,979.3,445.7,981.3,445.9z M910.2,400.7
		c3.8-0.8,7.7-2.2,10.6-4.1c-4.2-0.4-7.5,0.6-10.5,2.9C909.8,399.8,909.8,400.3,910.2,400.7z M931.3,392.3c2.6,0,3.2-0.2,5.4-2.2
		C933.2,390.4,933.2,390.4,931.3,392.3z M928.5,395.1c-1.7-0.2-1.7-0.2-1.8,1.1C927.6,396.3,928.1,395.8,928.5,395.1z"/>
	<path fill="none" d="M896.2,388c0-0.5,0-0.9,0-1.6c5.8-3.6,9.7-8.5,10.9-15.6c4.8-6.4,7.2-13.1,9.7-26.2c0.4,2.3,1.5,4.3,1.4,6.6
		c-0.2,3.2,1.5,5.1,4.6,5.8c0.5,0.1,0.9,0.3,1.3,0.4c0.3,0.8-0.2,1.3-0.7,1.6c-5.5,3-8.4,8.2-11.5,13.2c-1.3,2-2.4,4.2-3.4,6.4
		c-2.5,5.5-6.2,10-10.9,13.8c-3,2.4-6.1,4.7-9.4,6.6c-1.9,1.1-4,1.9-6.1,2.7c-5,2-10,4.3-13.7,8.7c0.6,3.7-1.7,6.7-3,9.9
		c-1,2.5-1.2,4.9-1.5,7.1c0.7,0.9,1.3,0.5,1.9,0.7c0.4,0.7,0.5,1.5,0.3,2.3l0.1-0.1c-3.8-0.8-7.7-0.7-11.5-0.7
		c-1.9,0-3.7,0.4-5.4,1.7c-3.2,2.5-6.9,4-11,4.3c-2.6,0.2-5.1,0.2-7.7,0.2c-0.6,0-1.3,0.1-1.7-0.6c-0.2-1.1,0.8-1.7,1.4-2.3
		c3.5-3.6,7.8-6.1,12.1-8.7c4.5-2.8,9.1-5.4,14.1-7.3c0.9-0.3,1.7-0.9,2.5-1.3c1.2-2.3,0.9-4.8,1.2-7c-0.3-0.6-0.7-0.9-1.5-0.9
		c-1.1,5.1-5,7.8-9.4,10.1c-5,2.6-9.8,5.5-14.4,8.7c-3.3,2.3-6.4,4.8-8.5,8.5c-3.7,0-7.3,0-10.6,0.7c-0.9-0.9-0.7-1.7-0.7-2.5
		c0-2.7,0.3-5.5,0-8.2c-0.6-6.5,1-12.7,2.4-19c0.1-0.6,0.3-1.3,0.7-1.8c2.1-3,4.2-6,5.4-9.4c3,0.6,5.4,1.4,7.9,1.6
		c2.4,0.3,4.8,0.1,7.6,0.1c0.5,0.3,1.4,0.7,2.2,1.1c7.7,3.9,15.6,4.4,23.8,2.2c4.6-1.3,9.4-2.1,14-3.1c0.8-0.2,1.6-0.3,2.3-0.6
		c3.6-1.4,7.2-2.7,10.8-4.2c1.1-0.5,2.5-0.7,2.9-2.2l-0.1,0.1c1.6-0.1,2.2-1.1,3-2.8c-1,0.4-1.5,0.6-2,0.8L896.2,388z M839,401.5
		c-1-1.1-1.7-1-2.2-0.7c-4.4,2.2-7.4,6.2-8.3,12C830.7,408,834,404.1,839,401.5z"/>
	<path fill="none" d="M758.2,309.8c1.9-2.3,4.1-3.5,7.1-3.8c4.8-0.5,9.5-1.4,14.2-2.1c7.5-1.1,15-0.6,22.5,0.2
		c0.3,0,0.6,0.1,0.9,0.2c5.8,1.9,11.9,2.6,17.8,4c0.2,0.1,0.4,0.4,0.6,0.5c-0.2,0.3-0.3,0.7-0.6,0.7c-3.1,0.8-6.2,1.7-9.3,2.4
		c-3.4,0.8-6.8,1.7-10,3.4c-1.1,0.6-2.4,1-3.6,1.3c-4.6,0.9-8.9,2.4-13.1,4.5c-2,1-4.1,1.7-6.3,2c-5.2,0.6-10.5,1.4-15.7,2.1
		c-0.9,0.1-1.9,0.3-3-0.2C759.1,319.8,760.4,314.6,758.2,309.8z"/>
	<path fill="none" d="M229,385.3c-1.7,0.9-2.9,0.9-4.5,0.4c-1.1-1.2-2.4-2.6-3.8-4c-0.1-3-0.1-6-0.7-9c-0.6-3,0.3-6,0.9-9
		c0.2-1.1,1-2,1.7-2.9c2.3-2.8,4.7-5.6,6-9.2c0.5-1.3,1.7-2.3,2.7-3.3c1.3-1.2,2.4-2.6,3.3-4.2c1.8-1.2,3.7-2.5,5.5-3.7
		c1.2,0.3,1.3,1,0.9,1.8c-2.2,4.6-4.6,9.1-7.9,13.1c-3.9,4.9-6.2,10.4-4.9,17c0.5,2.7,0.6,5.4,0.8,8.1
		C229.1,382,229,383.6,229,385.3z"/>
	<path fill="none" d="M684.6,335c2,0,3.6,0.5,5,2.1c-1.2,7.1-2.4,14.3-3.6,21.5c-1.2,7.2-1.2,14.5-3,21.6c-2-8.8-3.1-17.6-3-26.5
		c0-0.3-0.1-0.7,0-1c1.5-5.5,1.8-11.4,3.7-16.8C683.9,335.8,684.1,335.6,684.6,335z"/>
	<path fill="none" d="M814.5,315.6c3.1-2.2,6.5-1.5,8.8-3.4c3.7-0.1,7.2-0.1,10.7-0.8c1.5-0.3,3.2-0.2,4.8-0.3
		c4.3-0.2,8.6,0.1,12.9-0.9c3.4-0.8,6.7,0.2,9.9,1.2c4.6,1.4,9.2,2.9,13.2,5.6c0.4,0.3,0.7,0.6,1.1,0.9c-3.7,1-8.2,1-11-0.1
		c-3.4-1.3-7-2.4-10.5-3.5c-6-1.9-12-1.9-18-1.1c-6.7,0.9-13.3,1.7-20,2.6C816.1,315.8,815.6,315.7,814.5,315.6z"/>
	<path fill="none" d="M975.2,397.5c-0.5-0.1-1.1,0-1.4-0.3c-1.8-1.8-3.9-1.9-6.2-1.7c-4.5,0.5-4.9,0.6-8.5,4.4
		c0.3,1,1.1,0.9,1.9,0.9c1.2-0.2,1.6-1.5,2.7-2.1c1.6,0.5,2.5,1.9,3.6,2.9l0.1-0.1c-1.5,0.3-3.1,0.6-4,0.8c-2,1-2.1,2.7-3.2,3.6
		c-0.3,0-0.6,0.2-0.9,0.1c-1.6-0.6-3.1-1.5-4.5-2.6l0.1,0.1c0.5-3.7,2.8-6.3,5.4-8.6c0.6-0.5,1.4-0.8,2.2-0.9
		c2.8-0.3,5.7-1.2,8.7-0.5c1.2,1.3,2.5,2.7,3.8,4.1L975.2,397.5z"/>
	<path fill="none" d="M1000.7,352.2c1.2-0.7,2.2-0.3,2.8,0.2c2.7,2.7,6.1,4.5,9.3,6.6c0.4,0.2,0.7,0.6,0.5,1.5
		c-1.2,0.9-2.6,1.8-4.7,1.6c-2.4-1.4-3.2-3.9-3.7-6.1C1003.9,354,1002.1,353.4,1000.7,352.2z"/>
	<path fill="none" d="M1014.2,427.8c-2.2-2.8-2.8-6.1-4.2-9.3c1.7-0.1,2.7,0.5,3.4,1.6c0.7,1-0.7,1.7-0.4,3c3.8,5,8.6,9,14.7,11.4
		c-0.2,1.3-0.8,1.5-1.7,1.2c-1.8-0.7-3.4-1.6-5-2.9C1018.8,430.9,1016.8,428.7,1014.2,427.8z"/>
	<path fill="none" d="M984.2,379.6c1,0.2,2.1,0.5,3.1,0.5c0.9,0,1.9-0.2,2.8-0.3c0.8,1.2,0.9,2.4,0.9,3.7c-1.1,0.8-2.5,0.5-3.8,0.7
		c-1.4-0.6-2.2-2.3-3.9-2.4C983.2,380.9,983.6,380.2,984.2,379.6z"/>
	<path fill="none" d="M1027.1,448.7c-5-1-7.8-3.4-10.2-6.2c-0.1-0.7,0.2-1.1,0.6-1.3C1018.5,441,1022.3,443.9,1027.1,448.7z"/>
	<path fill="none" d="M1032,386c-0.6-0.2-1.2-0.3-1.9-0.5c-0.7,0.4-1.5,0.8-2.4,1.2c-1.2-0.8-3-0.8-3.4-2.7l-0.1,0.1
		c2.3-0.1,4.3-0.9,6.1-2.5c1.1,1.4,2,2.7,1.5,4.4L1032,386z"/>
	<path fill="none" d="M1004.4,407.1c-0.9-1.1-1.8-2-2.7-3c0.4-0.2,0.6-0.5,0.8-0.5c1.7,0.2,3.4,0.5,4.7,0.7c1.2,0.7,1.5,1.4,1.5,2.4
		C1007.6,407.8,1006.2,407.2,1004.4,407.1z"/>
	<path fill="none" d="M1029.8,401.7c-2.9-1-2.9-1-5.7-5.2c0.3-0.1,0.6-0.4,0.8-0.3C1027.3,397.3,1028.3,399.7,1029.8,401.7z"/>
	<path fill="none" d="M997.5,369.3c2.3-1.4,4.8-1.6,7.4-1.2c0.2,0.5,0.4,0.9,0.7,1.4C1002.8,370.3,1000.1,369.5,997.5,369.3z"/>
	<path fill="none" d="M680.3,408.2c0.1-4.4-0.3-8.8,0.6-13.2c0,4,0,8,0,12c0,0.4-0.4,0.8-0.7,1.1L680.3,408.2z"/>
	<path fill="none" d="M938.3,365.7c0,0.8-0.6,1-1.2,1.2c-0.8,0.3-1.2,0.9-1.5,1.7l0.1-0.1c-1.1,0.3-2.1,0.3-3.1-0.2
		c-0.4-0.9,0.2-1.4,0.9-1.7c1.6-0.8,3.2-0.9,5-0.8L938.3,365.7z"/>
	<path fill="none" d="M979.9,402.1c0.5,0.6,1,1.2,1.4,1.7c1.2,1,2.5-0.2,3.7,0.2c-1,1.4-2.5,1.3-3.7,2
		C980.2,405.1,979.7,403.9,979.9,402.1z"/>
	<path fill="none" d="M976,362.7c2.7-1.7,2.7-1.7,6-1.4C980,362.8,980,362.8,976,362.7z"/>
	<path fill="none" d="M977.2,367c1.4-1.8,3.2-1.1,5.2-1.5C980.6,367.6,980.6,367.6,977.2,367z"/>
	<path fill="none" d="M1002.3,401.8c3-1.6,3-1.6,4.6,0.1C1005.3,402.8,1004,402.4,1002.3,401.8z"/>
	<path fill="none" d="M938.5,365.8c1.2-0.9,2.5-1.2,4.3-0.9c0.2,1.1,0.2,2.2-0.4,3.6c-1.3-1.1-1.8-3.2-3.9-2.8L938.5,365.8z"/>
	<path fill="none" d="M1021.6,411.3c-1-1.3-1.8-2.3-2.6-3.3c0.3-0.2,0.7-0.4,0.8-0.4c1.3,0.9,2.5,1.9,3.7,2.8
		C1023.1,411.3,1022.4,410.9,1021.6,411.3z"/>
	<path fill="none" d="M1010,391.4c1.2,0.6,1.6,1.8,2.1,2.9c-1,0.7-1.5,0.5-3.3-1.6C1008.9,391.9,1009.2,391.5,1010,391.4z"/>
	<path fill="none" d="M680.2,408.1c0.4,2.2,0,4.4-0.4,7.6c-0.3-3.2-0.8-5.4,0.5-7.5L680.2,408.1z"/>
	<path fill="none" d="M971.6,398.4c-1.6,0.5-3.1,0.7-4.7,0.1C969.3,396.8,969.3,396.8,971.6,398.4z"/>
	<path fill="none" d="M934.9,378.9c1.4,1.4,2,2.5,1.4,4.1C934.9,381.9,935.1,380.6,934.9,378.9z"/>
	<path fill="none" d="M1032,413c-1-1-2-1.9-2.4-3.3c0.7-0.7,1.3-0.5,1.8,0.3c0.5,1,0.7,2,0.5,3.1L1032,413z"/>
	<path fill="none" d="M972.4,351.9c-1.1,0.5-1.8,1.7-3.3,1C970.1,352.1,970.9,351.3,972.4,351.9z"/>
	<path fill="none" d="M192.1,417.5c0.6-0.5,1.3-0.7,2-0.1c0.4,1-0.3,1.3-1,1.5C192.5,418.6,192.2,418.2,192.1,417.5z"/>
	<path fill="none" d="M986.8,397.1c0.7,0.4,1.5,0.7,1.6,1.9c-0.1,0.1-0.3,0.2-0.4,0.4C986.8,398.9,986.7,398.1,986.8,397.1z"/>
	<path fill="none" d="M986.2,418.2c-0.6,1-1.3,1.7-2.6,1.3C984.6,418.3,984.6,418.3,986.2,418.2z"/>
	<path fill="none" d="M996,412.7c-0.1,0.8-0.3,1.1-0.9,1.2c-0.7-0.2-1-0.6-1-1.3C994.6,412.2,995.2,412.2,996,412.7z"/>
	<path fill="none" d="M966.4,417.6c1.5-0.8,2.1-1.1,2.8-1.5C969.8,417.9,969.8,417.9,966.4,417.6z"/>
	<path fill="none" d="M979.4,418.4c-1.4,0.7-2.4,0.6-3.4-0.1C977.1,417.7,978.1,417.7,979.4,418.4z"/>
	<path fill="none" d="M1026.2,421.7c-1.1-0.6-2-1.4-2.6-2.5c0.3-0.1,0.6-0.4,0.8-0.3c1.2,0.6,1.8,1.5,1.7,2.9L1026.2,421.7z"/>
	<path fill="none" d="M1010.7,441.9c-1.3-0.9-1.9-2.2-1.9-3.7l-0.1,0.1c1.4,0.9,1.7,2.3,1.9,3.7L1010.7,441.9z"/>
	<path fill="none" d="M1028.7,439.6c1.9-0.3,1.8,0.8,2.2,1.9C1029.5,441.5,1028.9,440.9,1028.7,439.6z"/>
	<path fill="none" d="M980,409.3c-0.1-1.3,0.9-1.3,1.8-1.5c-0.1,1.3-0.9,1.4-1.9,1.4L980,409.3z"/>
	<path fill="none" d="M1006.2,409.6c0,0.5-0.1,0.9-0.7,1c-0.6-0.1-0.9-0.5-0.9-1.1C1005.2,409.1,1005.7,409.1,1006.2,409.6z"/>
	<path fill="none" d="M1011.7,412c-1.1-0.9-1.6-1.3-1.6-2C1011.1,409.8,1011.2,410.5,1011.7,412z"/>
	<path fill="none" d="M970.8,400.9c0.6-0.3,1.2-0.5,2-0.9C972.6,401.8,971.6,401.2,970.8,400.9z"/>
	<path fill="none" d="M987.7,413.5c0.6,0,1.2,0,1.7,0c0,0,0,0.1,0,0.1c-0.5,0-1.1,0-1.6,0C987.8,413.6,987.7,413.5,987.7,413.5z"/>
	<path fill="none" d="M1001.5,366.4c1.1-0.7,1.8-0.4,2.6-0.2C1003.3,366.8,1002.6,366.5,1001.5,366.4z"/>
	<path fill="none" d="M946.6,372.7c-0.3-0.5-0.6-1,0-1.5C947,371.7,947,372.2,946.6,372.7z"/>
	<path fill="none" d="M669.6,336c0.6,0.1,1.2,0.1,2,0.2c-1,0.8-1.6,0.8-1.9-0.3L669.6,336z"/>
	<path fill="none" d="M968.5,385.6c0.5-0.4,0.9-0.3,1.2,0.1c0.2,0.3,0.1,0.7-0.2,0.6C969.2,386.2,968.9,385.9,968.5,385.6z"/>
	<path fill="none" d="M983.2,375.8c-0.1,0.1-0.3,0.2-0.4,0.2c-0.4,0-0.6-0.2-0.5-0.6c0.1-0.3,0.5-0.3,0.7,0
		C983.1,375.5,983.1,375.7,983.2,375.8z"/>
	<path fill="none" d="M991.1,419.5c0-0.7,0.4-1,1.1-0.9C992.5,419.7,992.2,420,991.1,419.5z"/>
	<path fill="none" d="M987.9,423.1c-0.1,0.5-0.4,0.8-0.9,0.8c-0.1,0-0.3-0.6-0.3-0.7C987.1,422.7,987.5,422.7,987.9,423.1z"/>
	<path fill="none" d="M975.1,397.6c0.2,0.3,0.3,0.5,0.4,0.6c-0.1-0.2-0.2-0.5-0.3-0.8L975.1,397.6z"/>
	<path fill="none" d="M1008.8,438.1c-0.2-0.3-0.7-0.6-0.3-1.2c0.1,0.5,0.1,0.9,0.2,1.3L1008.8,438.1z"/>
	<path fill="none" d="M979.2,396.1c-0.2,0.1-0.5,0.2-0.7,0.3c-0.1,0-0.2-0.2-0.2-0.3c0.1-0.3,0.3-0.4,0.7-0.3
		C979.1,395.9,979.2,396,979.2,396.1z"/>
	<path fill="none" d="M977.7,357.6c0.2,0,0.5-0.1,0.7,0C978.7,357.8,978.3,357.9,977.7,357.6z"/>
	<path fill="none" d="M967.3,401.6c0.4,0.1,0.8,0.1,0.5,0.1c0.2,0.1-0.1-0.1-0.4-0.2L967.3,401.6z"/>
	<path fill="none" d="M978.1,406.3c-0.2-0.5-0.1-0.9,0.4-1.2C979,405.8,978.8,406.2,978.1,406.3C978,406.3,978.1,406.3,978.1,406.3z
		"/>
	<path fill="none" d="M994.4,423.7c-0.3,0.6-0.6,1.3-0.9,1.9l0.1,0.1c0-0.7,0.2-1.4,0.9-1.8L994.4,423.7z"/>
	<path fill="none" d="M994.5,423.8c0.1-0.4,0.1-0.9,0.2-1.5c0.8,0.8,0,1-0.3,1.3L994.5,423.8z"/>
	<path fill="none" d="M200.5,409.5c0.1,0,0.2,0.1,0.3,0.1c-0.2,0.1-0.3,0.2-0.5,0.3c0,0-0.1-0.2-0.2-0.3
		C200.3,409.7,200.4,409.6,200.5,409.5z"/>
	<path fill="none" d="M1031.9,386.1c0.5,0.1,0.8,0.3,0.6,1c-0.2-0.5-0.3-0.8-0.4-1.1L1031.9,386.1z"/>
	<path fill="none" d="M965.3,389.6c-0.2,0.4-0.5,0.5-0.8,0.3c-0.1-0.1-0.2-0.2-0.3-0.4c0.3-0.1,0.6-0.2,0.8-0.3
		C965.1,389.2,965.2,389.4,965.3,389.6z"/>
	<path fill="none" d="M935.6,368.7c0.1,0.4,0.6,0.6,0.3,1.2c-0.1-0.5-0.1-0.9-0.2-1.3L935.6,368.7z"/>
	<path fill="none" d="M1027.2,422.6c-0.5-0.1-0.8-0.4-1-0.9l-0.1,0.1c0.7-0.1,1,0.3,1,0.9L1027.2,422.6z"/>
	<path fill="none" d="M1018.4,364c0.6,0,0.9,0.3,0.9,0.9l0.1-0.1c-0.6-0.1-0.9-0.4-0.9-0.9L1018.4,364z"/>
	<polygon fill="none" points="670.3,342.1 670.3,342.4 670.1,342.4 	"/>
	<path fill="none" d="M1021.4,366.7c-0.5,0-0.8-0.3-0.9-0.9l-0.1,0.1c0.3,0.3,0.6,0.6,0.9,0.8L1021.4,366.7z"/>
	<polygon fill="none" points="1021.3,366.8 1021.5,367 1021.4,366.7 	"/>
	<path fill="none" d="M1019.3,364.9c0.6,0.1,0.9,0.4,1,1l0.1-0.1c-0.6-0.1-0.9-0.4-1-1L1019.3,364.9z"/>
	<path fill="none" d="M1010.6,442c0.4,0.3,0.8,0.6,1.1,1l0.1-0.1c-0.4-0.3-0.8-0.6-1.2-1L1010.6,442z"/>
	<polygon fill="none" points="993.5,425.6 993.3,425.7 993.6,425.6 	"/>
	<path fill="none" d="M1029.2,424.5c-0.7,0.1-1-0.3-1-0.9l-0.1,0.1c0.5,0.1,0.8,0.4,1,0.9L1029.2,424.5z"/>
	<path fill="none" d="M1028.2,423.6c-0.6-0.1-0.9-0.5-1.1-1l-0.1,0.1c0.5,0.1,0.9,0.5,1.1,1L1028.2,423.6z"/>
	<path fill="none" d="M895.2,389c0.3-0.3,0.7-0.6,1-0.9l-0.1-0.1c-0.3,0.3-0.7,0.6-1,1L895.2,389z"/>
	<path fill="none" d="M959.2,388.1c0.1,0.1,0.2,0.2,0.3,0.3c-0.1,0.1-0.2,0.2-0.3,0.2c-0.1,0-0.2-0.2-0.3-0.3
		C959,388.3,959.1,388.2,959.2,388.1z"/>
	<path fill="none" d="M953.9,404.4c0.2-0.5,0.4-0.9,1-1l-0.1-0.1c-0.4,0.3-0.7,0.6-1.1,1L953.9,404.4z"/>
	<path fill="none" d="M895.2,389.9c0-0.3,0-0.6,0-1l-0.1-0.1c0,0.4,0,0.7,0,1.1L895.2,389.9z"/>
	<polygon fill="none" points="206.8,402.2 206.7,401.9 206.9,402 	"/>
	<path fill="none" d="M202.4,390.9c0.1,0.2,0.2,0.3,0.4,0.5c-0.1-0.1-0.2-0.1-0.3-0.2c0-0.1,0-0.3,0-0.4L202.4,390.9z"/>
	<path fill="none" d="M1033,414c-0.6-0.1-0.9-0.5-1.1-1l-0.1,0.1c0.6,0,0.9,0.4,1.1,0.9L1033,414z"/>
	<path fill="none" d="M999.2,413.1c0.1,0.1,0.3,0.1,0.4,0.2c-0.1,0.3-0.2,0.2-0.3-0.3L999.2,413.1z"/>
	<path fill="none" d="M1018.5,363.9c-0.1-0.1-0.3-0.2-0.3-0.3c0,0,0.1,0.2,0.2,0.4L1018.5,363.9z"/>
	<path fill="none" d="M999.3,413c-0.1,0-0.3-0.1-0.4-0.1c0.1,0.1,0.2,0.2,0.3,0.2L999.3,413z"/>
	<polygon fill="none" points="966.5,384 966.3,383.9 966.4,384.1 	"/>
	<path fill="none" d="M1024.4,384.1c-0.1,0-0.2,0-0.4-0.1c0.1,0.1,0.2,0.1,0.3,0.2L1024.4,384.1z"/>
	<path fill="none" d="M979.9,409.2c-0.2,0.1-0.3,0.2-0.5,0.4c0-0.1,0.1-0.2,0.2-0.3c0.1,0,0.3,0,0.4,0L979.9,409.2z"/>
	<path fill="none" d="M966.4,384.1c0.5,0.4,0-0.1,0.1-0.1L966.4,384.1z"/>
	<path fill="none" d="M221.8,387.9c-0.3,0.2-0.6,0.1-0.7-0.2c0-0.1,0.1-0.2,0.2-0.4c0.1,0.2,0.3,0.5,0.4,0.7L221.8,387.9z"/>
	<path fill="none" d="M977,407.2c0,0.7-0.4,0.9-1,1l0.1,0.1C976.1,407.6,976.4,407.3,977,407.2L977,407.2z"/>
	<path fill="none" d="M977.1,407.3c0-0.7,0.2-1.1,1-1c0,0-0.1-0.1-0.1-0.1C978,406.9,977.7,407.3,977.1,407.3L977.1,407.3z"/>
	<polygon fill="none" points="986,405.8 986.3,405.8 986.3,406 	"/>
	<path d="M549.2,378.3c0,1.7-1.2,2.6-2.2,3.5c-7.3,6.9-15.5,12.3-25.5,14.7c-3.1,0.8-6.1,1.9-9.2,2.8c-7.1,2.1-11.8,6.8-14.5,13.6
		c-1.1,2.8-2.3,5.6-3.5,8.4c-1.2,2.7-3.1,4.4-6,5c-0.4,0.1-0.9-0.1-1.4-0.2c0.1-1.6,0.7-2.8,1.6-3.9c2.2-2.8,3.7-6,5.2-9.2
		c0.3-0.7,0.7-1.4,1.1-2.1c3.9-7.7,10-12.7,18.3-15.1c4.6-1.3,9.2-2.7,13.8-4c3.1-0.8,6-2.2,8.7-3.9c4.3-2.8,8.5-5.7,12.3-9.1
		C548.4,378.7,548.9,378.6,549.2,378.3L549.2,378.3z"/>
	<path d="M579.5,338.5c0.1-1.2,0.8-1.5,1.4-1.5c6.4-0.8,12.3-3.3,18.5-5.1c2.6-0.8,5.2-2,7-4c2.2-2.4,5.1-3.4,8-4
		c7.2-1.6,14.6-2,21.9-1.6c0.8,0,1.6,0.2,2.3,0.5c0.6,0.2,1,0.7,0.9,1.5c-1.1,0.9-2.4,0.5-3.7,0.4c-6.6-0.2-13.1-0.1-19.6,0.8
		c-1.6,0.2-3.1,0.6-4.7,1c-1.3,0.3-2.3,1-3.2,2c-2.4,2.7-5.5,4.4-8.8,5.6c-4.7,1.6-9.5,2.9-14.2,4.3
		C583.5,338.7,581.6,339.1,579.5,338.5z"/>
	<path d="M660.5,360.9c-2.3,1.6-4.1,1.3-5.8,1.1c-6.5-0.5-12.7-2-18.5-4.8c-3.9-1.9-7.8-3.8-11.1-6.6c-0.8-0.7-1.6-1.4-1.9-3.3
		c3.3,2.3,6.1,4,9.1,5.5c2.9,1.4,5.9,2.6,8.9,3.6c3.2,1.1,6.5,1.9,9.8,2.6C653.9,359.5,657.1,359,660.5,360.9z"/>
	<path d="M654.3,345.6c4.5,1.6,5.5,2.2,10.1,6.3c1.1-0.2,0.7-1.8,1.9-1.8c1.1,6.9,1,8.5-0.8,10.1c-0.8-0.7-0.7-1.8-0.8-2.7
		c-0.1-0.8-0.2-1.6-0.2-2.3c-2.5-2.7-5-5.1-7.8-7.4c-0.8-0.7-1.9-1.2-2.2-2.4L654.3,345.6z"/>
	<path d="M670.9,404.5c1,0.3,1.3,0.8,1.6,1.6c-0.4,0.8-0.9,1.7-1.4,2.7c0.6,1.2,2,1.7,2.4,3.2c-0.3,1.6-1.7,1.8-3,2
		c-0.8-0.6-0.8-0.6-1-2.2c-0.5-1.1-2.3-1.2-2.5-2.9c0.1-0.2,0.1-0.7,0.3-1.1C668.2,406.3,670.2,406.1,670.9,404.5z"/>
	<path d="M643.8,414.1c3.3-1.5,6.5-3.1,9.8-4.6c0.8-0.4,1.5-0.3,2.2,0.4c0.4,1.2-0.5,1.8-1.4,2.1c-3.5,1.1-7,2.2-10.7,2.1
		L643.8,414.1z"/>
	<path d="M542.1,420.1c-0.3,2.3-1.8,3.4-3.5,4.2c-3,1.6-6.1,3.3-9.8,3C533.4,425.1,538.2,423.4,542.1,420.1z"/>
	<path d="M673.8,347.9c0.1,1.1-0.8,1.7-1.5,2.2c-0.7,0.6-0.4,1.9-1.4,2.2c-0.4-0.2-0.7-0.4-0.9-0.5c-0.5-0.9,0.5-1.4,0.5-2.1
		c-0.3-0.9-1.7-1-1.7-2.1C670.7,346,671.1,346,673.8,347.9z"/>
	<path d="M664.2,369.9c0.9,1.1,1.7,2,2.6,3.1c-0.6,0.2-1,0.3-1.5,0.4c-0.6,1.3,0.1,3.3-2,3.9c-1.3-0.2-1.6-1.2-1.2-2.1
		C662.6,373.5,663.3,371.9,664.2,369.9z"/>
	<path d="M668.8,388.3c-0.8-0.1-1-0.1-1.1-0.2c-0.3-0.1-0.5-0.3-0.8-0.5c-0.5-1.2-0.6-2.4,0.1-3.6
		C668.9,384.8,668.4,386.5,668.8,388.3z"/>
	<path d="M661.7,414.4c1.1,1.3,1.1,1.3,0,4.3C661.1,416.6,661.1,416.6,661.7,414.4z"/>
	<path d="M673.6,357.2c-1.8,0.4-2.7-0.1-3.5-0.5c-0.4-0.8-0.4-1.3,0.2-1.9C671.2,355.5,672.2,356.2,673.6,357.2z"/>
	<path d="M669.9,391.4c-1.1,0.8-2.1,1.4-3,2.1c-0.9-0.6-0.7-1.1-0.1-1.5C667.6,391.4,668.5,390.8,669.9,391.4z"/>
	<path d="M668.5,397.6c0.9-1.3,1.6-1.2,2.5-0.6c-0.3,0.8-0.9,1.2-1.7,1.3C669.1,398.1,668.8,397.9,668.5,397.6z"/>
	<path d="M560.8,366.8c-0.8,0.9-1.6,1.9-3,1.8l0.1,0.1c0.7-1.1,1.6-1.8,3-1.8L560.8,366.8z"/>
	<path d="M571.4,358.2c-0.5,0.6-1.2,0.7-2,0.7l0.1,0.1c0.7-0.2,1.3-0.5,2-0.7L571.4,358.2z"/>
	<path d="M577,354.2c-0.4,0.8-1.1,0.8-1.8,0.9l0.1,0.1c0.6-0.3,1.2-0.6,1.8-0.9L577,354.2z"/>
	<path d="M577.2,354.3c0.5-0.6,1.3-0.7,2-0.8l-0.1-0.1c-0.7,0.3-1.4,0.5-2,0.8L577.2,354.3z"/>
	<path d="M643.7,414c-0.3,0.5-0.7,1-1.4,0.2c0.6,0,1-0.1,1.5-0.1L643.7,414z"/>
	<path d="M549.3,378.4c-0.1-0.9,0.1-1.5,0.9-2l-0.1-0.1C550.3,377.2,550.3,378,549.3,378.4L549.3,378.4z"/>
	<path d="M564.7,362.9c0.5-0.7,1.2-0.8,2-0.8l-0.1-0.1c-0.5,0.5-1.2,0.8-2,0.8L564.7,362.9z"/>
	<path d="M669.7,362c0,0.6-0.1,1.3-0.1,1.9l0.1-0.1c-1-1-1-1.1,0.1-1.7L669.7,362z"/>
	<path d="M554,372.5c0,0.5-0.4,0.9-0.9,1l0.1,0.1c-0.1-0.7,0.3-1,0.9-1L554,372.5z"/>
	<polygon points="579.2,353.5 579.3,353.2 579.1,353.4 	"/>
	<path d="M552.3,374.6c-0.1-0.7,0.3-1,1-0.9l-0.1-0.1c-0.1,0.5-0.4,0.9-1,0.9L552.3,374.6z"/>
	<polygon points="669.6,363.9 669.8,364 669.7,363.9 	"/>
	<path d="M563.6,363.8c0,0.6-0.3,0.9-0.8,1l0.1,0.1c0-0.5,0.3-0.8,0.8-1L563.6,363.8z"/>
	<path d="M552.1,374.5c-0.1,0.5-0.4,0.9-1,0.9l0.1,0.1c0-0.7,0.3-1,1-0.9L552.1,374.5z"/>
	<path d="M551.2,375.4c-0.1,0.6-0.4,1-1.1,0.9l0.1,0.1c0.1-0.6,0.4-0.9,1.1-0.9L551.2,375.4z"/>
	<path d="M560.9,366.9c0-0.6,0.3-0.9,0.9-1l-0.1-0.1c-0.3,0.3-0.6,0.7-0.9,1L560.9,366.9z"/>
	<path d="M557.8,368.6c0.1,0.7-0.3,1-0.9,1l0.1,0.1c0.1-0.5,0.4-0.8,0.9-1L557.8,368.6z"/>
	<path d="M556.9,369.6c0,0.6-0.3,1-0.9,1l0.1,0.1c0-0.6,0.4-0.9,0.9-1L556.9,369.6z"/>
	<path d="M654.4,345.5c-0.2-0.1-0.4-0.2-0.4-0.2c0,0,0.1,0.1,0.2,0.3L654.4,345.5z"/>
	<path d="M555.1,371.7c0-0.7,0.4-0.9,1-1l-0.1-0.1c0,0.6-0.3,1-1,1L555.1,371.7z"/>
	<path d="M555,371.6c0,0.6-0.4,0.9-1,1l0.1,0.1c0-0.7,0.3-1,1-1L555,371.6z"/>
	<path d="M561.8,365.9c0.1-0.6,0.5-0.9,1-1l-0.1-0.1c-0.3,0.3-0.7,0.7-1,1L561.8,365.9z"/>
	<path d="M575.2,355.1c-0.1,0.1-0.1,0.3-0.2,0.4c0.1-0.1,0.2-0.2,0.3-0.3L575.2,355.1z"/>
	<path d="M572.5,357.2c0.1-0.1,0.1-0.2,0.2-0.4c-0.1,0.1-0.2,0.2-0.3,0.2L572.5,357.2z"/>
	<path d="M571.5,358.3c0.3-0.4,0.7-0.7,1-1.1l-0.1-0.1c-0.3,0.4-0.7,0.7-1,1.1L571.5,358.3z"/>
	<path d="M669.8,362.1c0-0.1,0-0.3,0.1-0.4c-0.1,0.1-0.1,0.2-0.2,0.3L669.8,362.1z"/>
	<path d="M569.4,358.9c-0.3,0.3-0.6,0.7-0.9,1l0.1,0.1c0.3-0.3,0.6-0.7,0.9-1L569.4,358.9z"/>
	<path d="M567.5,361c-0.3,0.3-0.6,0.7-1,1l0.1,0.1c0.3-0.3,0.6-0.7,1-1L567.5,361z"/>
	<path d="M567.6,361.2c0.1-0.6,0.5-0.9,1-1.1l-0.1-0.1c-0.3,0.4-0.7,0.7-1,1.1L567.6,361.2z"/>
	<path d="M563.7,363.9c0.3-0.3,0.7-0.7,1-1l-0.1-0.1c-0.1,0.6-0.4,0.9-1,1L563.7,363.9z"/>
	<path d="M944.2,407.9c-0.2,0.4-0.4,0.9-0.7,1.1c-4.7,3-9.5,5.9-14.3,8.9c-2.6,1.6-5.5,2.7-8.6,3c-0.6,0.1-1.3,0.1-1.8-0.4
		c0.1-0.8,0.7-1.1,1.2-1.2c6.9-1.3,12.3-5.4,17.7-9.3c1.4-1,2.9-2,4.6-2.6C943.1,407.3,943.7,407.3,944.2,407.9z"/>
	<path d="M981.3,445.9c-2-0.2-2.9-1-4.1-1.9c1.1-2.3,1-4.8,0.2-7.1c1-0.7,1.4-0.1,1.8,0.3c0.8,0.7,1,1.6,1.2,2.5
		c0.5,1.7,1.4,3.2,3.1,3.7c0,0.4,0,0.6,0,0.7C982.7,444.8,982,445.4,981.3,445.9z"/>
	<path d="M910.2,400.7c-0.4-0.4-0.4-0.9,0-1.2c3-2.3,6.4-3.2,10.5-2.9C917.9,398.5,913.9,400,910.2,400.7z"/>
	<path d="M931.3,392.3c2-2,2-2,5.4-2.2C934.5,392.1,933.8,392.4,931.3,392.3z"/>
	<path d="M928.5,395.1c-0.4,0.7-0.9,1.2-1.8,1.1C926.8,394.9,926.8,394.9,928.5,395.1z"/>
	<path d="M933.5,421.6c0,0.1,0,0.3-0.1,0.4c0.1-0.1,0.1-0.2,0.2-0.3L933.5,421.6z"/>
	<path d="M934.6,420.6c-0.1,0.6-0.4,0.9-1,1l0.1,0.1c0.3-0.3,0.7-0.7,1-1L934.6,420.6z"/>
	<path d="M839,401.5c-4.9,2.6-8.3,6.5-10.6,11.3c1-5.8,3.9-9.8,8.3-12C837.3,400.5,837.9,400.4,839,401.5z"/>
	<path d="M895.1,390c0-0.4,0-0.7,0-1.1c0.3-0.3,0.7-0.6,1-1c0.5-0.2,1-0.4,2-0.8C897.3,388.8,896.7,389.9,895.1,390z"/>
</g>
</svg>
