<?xml version="1.0" encoding="utf-8"?>
<!-- Generator: Adobe Illustrator 19.1.0, SVG Export Plug-In . SVG Version: 6.00 Build 0)  -->
<svg version="1.2" baseProfile="tiny" id="Layer_2" xmlns="http://www.w3.org/2000/svg" xmlns:xlink="http://www.w3.org/1999/xlink"
	 x="0px" y="0px" width="900px" height="600px" viewBox="144 97 900 600" xml:space="preserve">
<g>
	<path d="M807.9,347.4c-0.3-1-1-1.5-1.9-2c-3.7-2.2-6.8-5.2-9.8-8.3c-3.9-4.1-6.2-9-7.5-14.4c-0.4-1.9-0.5-3.8,0.1-5.7
		c0.8-2.7,0.4-5.4,0.3-8.4c-1.7,5.6-2.5,13.7-1.9,17.6c-0.3,0.6-0.8,0.2-1.2,0.4c0.3,3.8,0.7,7.5,0.9,11.3
		c0.3,7.1-0.2,14.2-1.5,21.3c-0.7,3.6-1.6,7.2-2.4,10.8c-0.1,0.6-0.3,1.2-0.2,1.8c0.3,3.2-0.4,6.3-0.7,9.7c-0.8,1.2-1.8,2.5-2.6,3.6
		c-0.4,1.1,0.7,1.5,0.2,2.8c-2.8,4.2-5.7,9.1-8.4,14.1c6.9,8.3,14.4,15.7,24.2,20.4c3.2,1.6,6.3,3.4,9.3,5.2
		c1.4,0.9,2.8,1.7,4.6,1.3c0.4,0.9,0.7,1.7,1.1,2.5c3,0.5,4.8,2.9,7.2,3.9c0.2,1.8-2.3,1.6-1.5,3.5c2-0.8,3-2.4,3.8-4.2
		c2.4-5,4.2-10.4,6.9-15.3c1.2-2.2,2.3-4.4,4-6.3c2.4-2.7,4.1-5.8,5.5-9.1c2.9-7.3,7.2-13.7,11.6-20c1.9-2.7,3-5.6,3.6-8.8
		c1.7-8.6,2.8-17.4,5-26.2c1.7-1.1,2.8-3.1,3.9-5.1c1.5-3.1,3.1-6.1,4.6-9.3c2-4.5,2.3-9.2,1.8-14c-0.1-1.2,0-2.2,0.4-3.4
		c1.1-2.7,0.3-5.6-0.5-8.4c-1.1-3.5-2.1-7-2-10.9c2.2,1.7,2.5,4.1,3.1,7c2-2.2,3.8-4,5.5-5.9c2.2-2.5,4.4-5,7-7.1
		c5.8-4.7,10-10.8,14-17c2.5-3.9,5.2-7.7,7.1-12c0.4-1,1.2-1.9-0.2-3c1.7-1.4,3.3-2.8,5-4.1c3.1-2.5,5.5-5.6,7.7-8.8
		c3.1-4.5,6.2-9,9.4-13.5c0.8-1.2,1.4-2.5,1.9-3.8c4.1-12.4,8.8-24.7,14.5-36.5c0.8-1.6,1.4-3.3,1.8-5c0.3-1.1,0.6-2.2,1.4-3.1
		c1.1,0.6,0.8,1.3,0.7,2c-0.2,1.2-0.3,2.4-0.7,3.5c-2.6,6.4-4.3,13.1-7.6,19.2c-1.1,2.1-2,4.3-2.9,6.5c-2.6,7-5.9,13.8-8.7,20.7
		c-0.7,1.6-2.2,2.4-3.1,3.8c-4.2,6.4-8.9,12.3-13.8,18.2c-1.9,2.3-3.1,5.3-4.5,8.1c-5.5,10.3-12.4,19.4-20.8,27.5
		c-4.3,4.2-9,8.1-13,12.8c0.6,4,1.7,8,2,12.1s-0.6,7.9-1.8,11.8c-2.1,7-7.4,12.1-9.7,18.8c-0.6,1.7-1.2,3.3-1.4,5.1
		c-1.2,8.6-3.3,17-4.9,25.6c-0.3,1.4-1.1,2.6-1.8,3.8c-3.3,5.4-6.6,10.8-9.8,16.2c-0.7,1.3-1.9,2.4-1.3,4.2c0.2,0.5-0.4,1.4-0.8,1.9
		c-2.7,3.6-4.7,7.7-7.7,11.1c-1.7,2-2.8,4.7-3.9,7.2c-2.1,4.8-4.3,9.5-7.2,13.9c-0.5,0.8-0.7,1.4-0.1,2.2c-0.6,0.2-1.1,0.3-1.6,0.4
		c-0.1,0.3-0.2,0.5-0.2,0.7c0.3,4.7,0.6,9.5,0.9,14.2c0.1,0.9,0,2-0.3,2.8c-3.2,7.5-4.5,15.5-6,23.4c-0.6,3-1.2,6.1-1.9,9.1
		c-1.6,6.9-5,13.1-7.7,19.5c-0.7,1.7-2.2,3.1-3.1,4.7c-3,5.5-6.7,10.7-8.8,16.6c-0.8-0.3-0.2-1.1-0.9-1.6
		c-2.5,5.4-4.8,10.7-6.7,16.3c-1.5,4.3-3.1,8.5-5.5,12.3c-0.7,1.2-1.6,1.9-2.9,2.4c-3.4,1.3-6.8,2.2-10.3,1.5
		c-1.8,2.2-3.5,4.3-5.1,6.2c-1,1.1-1.2,2.6-1.7,3.9c-1.3,3.1-1.4,6.8-4.4,9.1c0.9-3.5,2.5-6.8,2.9-10.3c-1.2-0.4-1.6,1.3-2.7,0.5
		c2.3-3.9,4.4-7.7,5.1-12.2c-5-1.2-9.8-2.5-14.1-5c-1.3,1.9-1.9,4-4.2,5.6c0.7-3.2,1.8-5.6,3.1-8c-1.4-1.8-2.4-3.6-3.3-5.6
		c-0.8-2-1-4.1-1.4-6.4c-1.5-0.5-2.6-2-4.4-2.3c-1.8,2.3-2.7,5-3,7.6c-0.4,3.3-1.8,5.8-3.6,8.3c-2.3,3.1-4.6,6.1-6.8,9.2
		c-5.8,7.9-9.8,16.6-10.9,26.4c-0.4,3.8-0.7,7.7,1.5,11.2c-0.4,7-1,14-1,21c0,3.1,0.3,6.2-1,9.2c-0.3,0.6-0.2,1.4-0.1,2.1
		c0.2,3,0.5,5.9,0.7,8.9c0.2,2.2,1.4,3.4,3.4,4.1c1.6,0.6,3.3,0.8,4.9,2c-7,2.1-9.9,0.4-11.4-6.3c-0.2,3.3-0.4,6.2,0.5,9.4
		c3.3,0.4,6.6,0.1,10.2,0c0.9-4.2,3.9-7,7.1-9.7c-0.3-2.1,0.3-4,0.7-6c1.3-7.8,4.7-14.7,9.4-20.9c1.2-1.5,2.3-3,3-4.8
		c0.8-2,1.7-3.9,2.6-5.9c3.9-8.2,6.4-16.9,7.9-25.6c0.5-0.9,1.2-0.3,1.7-0.5c0.9-1,1.4-2.6,3.2-3c-2.8,5.1-5.9,10-5.4,16.6
		c1.8-3.5,3.1-6.8,5.5-9.5c-1.1,4.8-2.9,9.3-4.8,13.8c-1.6,3.7-3,7.5-5.1,10.9c-0.7,1.1-1,2.4-1.3,3.7c-0.8,3-1.8,5.9-4.1,8.1
		c-0.4,0.4-0.7,1-0.9,1.5c-2.2,5.2-4.4,10.5-6.5,15.7c0.7,0.5,1.3,0.1,1.8,0.1c3.8,0,6,1.4,7.3,4.9c1,2.6,2.1,5,3.5,7.4
		c1.9,3.1,4.7,5.3,7.5,7.5c8.7,2,17.2,1.3,25.4-1.5c0.4-3.4,1.9-6.6,1.8-10.9c-0.1-0.4-0.6-1.5-2-1.8c-4.2-1-8-2.9-12.1-4.1
		c-0.4-0.1-0.9-0.1-1.4-0.2l0.1,0.1c-0.7-1.3-1.9-1.7-3.2-2c-0.8,1.8-0.4,4-2.4,5.3c-2.6-1.9,0.2-4.5-0.7-7c-1.2,1.4-0.7,3.3-2,4.3
		c-2.2-1.7-2.4-2.3-1.6-5.6c-1.1,1.9-1.6,4.3-3.8,5.3c-2.5-2.1-2-4.4,1.7-7.4c0-1-1-1.2-1.2-2.3c-2,2.6-2.4,6.5-7,6.5
		c0.7-3.8,1.5-7.1,4.7-9.1c0.2-1.3-0.1-2.2-1.2-3c-1.9,3.9-2.5,9.1-9.4,9.2c3.1-4,4-8.6,7.2-12.2c-0.4-1.1-2.2-2-1.8-3.9
		c1.1-0.4,1.5,0.3,1.9,0.8c3.3,3.7,6.7,7.4,8.1,12.4c0.4,1.6,1.9,2.1,3.2,2.7c6.3,2.5,12.3,5.6,18.9,7.3c4.7,1.2,7.1,2.8,6.7,9.1
		c0,0.6-0.1,1.2-0.1,1.8c-0.9,0.4-1.7,0.9-1.5,2.2c0.9-0.5,1.6-1.1,1.5-2.2c0.8-0.2,0.6-1.6,2-1.5c0.5,1.6-0.3,2.9-1.3,4
		c-2.5,3-5.4,5.3-9.4,6.1c-4.1,0.9-8.2,1.7-12.4,1.5c-1-0.1-2,0-3.9,0c5.3,4.5,9.8,8.7,16.2,9.8c1.8,0.3,2.6,1.2,3.2,2.9
		c1.2,3.5,0.3,6.6-1.7,9.5c-0.9,1.3-1.6,2.5-2.1,3.9c-2.7,0.9-5.5,1.2-7.9,2.6c-1.2,0.7-2.5,0.1-3.8,0.3c-4.8,0.7-9.7,1.5-14.6,1
		c-1.2-0.1-2.3-0.2-3.5-0.5c-2.9-0.7-5.8-1.4-8.7-1.8c-3.4-0.5-6.5-1.7-9.1-3.9c-1-0.8-2-1.2-3.2-1.4c-4.4-0.8-8.9-1.6-13.3-2.6
		c-5.3-1.2-9.6-4-13.2-8c-0.7-1.8,0.4-3.8-0.5-5.4c0.9-1.5,1.7-2.8,2.5-4.1c1-1.7,1.4-3.5,1.2-5.4c-0.3-2.3-0.1-4.5,0.2-6.7
		c1-5.9,3.9-10.4,9.1-12.9c2.5-9.4,2.4-18.8,2.8-28.2c0.2-3.1-0.5-6.2-1.1-9.2c-1.7-9.4,0.2-17.9,4.9-26.1
		c3.3-5.8,6.2-11.8,10.6-16.9c0.8-1,1.6-2.1,2.5-3.1c1.7-2,3-4,3.3-6.9c0.3-3.1,1.4-6.2,3.3-9.2c-2.2-1.8-4.4-3.6-6.6-5.5
		c-0.3-3.1,0.1-6.3,1-9.4c1-4,2.2-8,3.7-11.9c2.6-6.5,4.8-13.2,6.5-20c0.4-1.8,1.5-3.5,0.4-5.5c-0.2-0.4,0.1-1.1,0.3-1.7
		c1.7-4.4,2.2-9,2.6-13.6c0.3-3.6,0.5-7.1,1.4-10.6c0.1-0.5,0.2-0.9,0-1.4c-1.8-5-0.2-10.1-0.4-15.2c-0.1-2.9,0.4-5.9,0.4-8.9
		c0-2.5,0.7-5,1.9-7.5c2.1-4.2,4.5-8.1,6.8-12.1c0.8-1.3,1.6-2.3,2.7-3.1c2.9-2.2,6-4.3,9.2-6.1c2.7-1.6,4.9-3.6,6.2-6.6
		c1.4-3.1,3.2-5.9,5.2-8.5s3.3-5.5,4.9-8.3c1.4-2.4,1-5.4,1.1-8c0.1-2.5,0.1-5,0.6-7.4c1.6-8.1,3.4-16.1,3.9-24.5
		c-1.6-7.6-3.3-15.6-1.2-23.4c2.3-8.4,2.8-17.5,8.2-24.8c1.9-2.6,3-5.6,4.2-8.5c1.8-4.3,4.9-7.5,8.4-10.5c4.3-3.7,9.1-6.5,14.2-9.4
		c0.7-7.5-1.1-15.1-1.6-23.9c-2-4.1,0-9.2,1.5-14.3c0.3-1.1,1-2,0.9-3.3c-0.2-2.2,1.9-3,3.3-4c0.2-1.7-1.8-1.4-1.7-2.8
		c1.1-1.7,3.7-1.2,4.6-3.2c0.6,0.4,0.9,0.6,1.3,0.9c1-0.4,0.7-1.8,2.4-2.4c0.5-0.1,0.7,1.3,1.7,1.5c3-3.7,7.3-3.2,11.4-3.4
		c1.2-0.4,1.7-1.8,2.9-1.9c1.5,0.4,0.1,1.4,0.7,2.2c2.9,0.2,6.2-0.8,9.3,0.8c1.8-3.5,3.9-6.5,6-9.5c1.1-1.6,1.5-3.7,2.3-5.6
		c2.6-6,5.9-11.7,8.8-17.5c2.3-4.7,4.5-9.4,6.8-14.4c-2.9-0.7-5.6-0.8-8.2-0.9c-6.8-0.1-13.6,0-20.4,0c-3,0-5.9-0.6-8.1-3.2
		c-14.2,0.2-28.4,0.4-42.5-2.1c14.3-0.1,28.6,1,43.1,0.7c0-1.7,0.3-3.5,0.7-5.4c-1.6-1.2-3.3-0.9-4.9-0.7
		c-6.2,0.7-12.4,0.6-18.5,1.5c-2.6,0.4-5.2,0.3-7.7,1.5c-0.6,0.3-1.4,0.2-2.1,0.2c-5.4-0.1-10.7,0.1-16-0.6
		c-4.2-0.6-8.5-0.7-12.8-0.6c-8,0.2-15.9-0.7-23.9-1.1c-9-0.5-18.1-1.2-27.1-1.8c-9.3-0.7-18.4-2.4-27.5-4.4
		c-6.1-1.3-12.3-1.5-18.4-2.7c-11.4-2.4-23.1-3.4-34.4-6.2c-1-0.3-2.1-0.4-3.2-0.3c-4.9,0.1-9.8-0.4-14.7-0.9c0.3-1.1,1.1-1.1,2-1.2
		c6.1-0.7,12.2-1.5,18.5-0.9c6.6,0.6,13.3,0.3,20,0.9c6.7,0.7,13.3-0.2,20-0.1c0.5,0,1.2,0.1,1.8-0.6c-1.9-1-3.8-1.3-5.8-1.3
		c-11.2,0.2-22.3-1.5-33.3-3.5c-3.3-0.6-6.6-1-9.9-1.3c-4.5-0.4-8.7-2-13.2-2.6c-7.6-1.1-15.4-1.8-22.8-4.1
		c-1.2-0.4-2.5-0.6-3.4-1.5c0.3-1,1-0.8,1.5-0.7c10.2,2.7,20.6,3.7,30.9,5.5c10.1,1.7,20,4.2,30.2,5.5c7.9,1,15.9,1.7,23.9,1.1
		c3.9-0.3,7.7-1,11.5-2.6c3.8-1.5,8.1-1.7,12.2-2.5c0.7-0.1,1.4,0.1,2-0.6c-0.3-1-1.3-0.9-2-1.1c-8.4-2.6-16.9-5.1-25.5-6.6
		c-4.5-0.8-9-0.4-13.5,0.2c-4.4,0.5-8.7,1.1-13.1,1.6c-1.2,0.1-2.4,0.2-3.6,0.1c-12.4-0.7-24.7-1.4-37.1-2.2c-0.4,0-0.9,0-1.2-0.6
		c0.3-0.9,1.1-0.6,1.8-0.6c8.7-1,17.3-0.3,26,0.4c9.1,0.8,18.3,0.7,27.4-0.9c6.5-1.1,12.8-0.5,19.1,1.1c8.6,2.2,17.4,4.1,25.5,8
		c1,0.5,2.1,0.4,3.1,0.3c9.2-0.6,18.3-0.6,27.5,0.1c7,0.5,14-0.1,20.9-1.8c14.7-3.5,29.6-6.1,44.9-5.8c3.4,0.1,6.9-0.3,10.5-0.4
		c1.1-0.4,1.3-1.9,3.2-2.5c2.2-0.1,5.1-0.7,7.8,1.1c0.8,0.6,1.8,0.4,2.8,0.4c3,0,6-0.3,8.9,0.1c3.8,0.5,7.4,0.5,11-0.8
		c0.6-0.2,1.5-0.4,2.1-0.2c1.3,0.4,2.4-0.1,3.4-0.8c1.1,1.5,0.3,2.6-0.2,3.5c0.1,1.8,1.2,2.8,1.9,4.2c1.4-0.1,2.5,0.2,3.7,1
		c5.1,3.3,10.7,5,16.8,5.2c0.3-1-0.1-1.8-0.4-2.7c-6.3-1.8-12.3-4.6-19-5.8c0.4-2.2,2.1-2.3,3.5-2.5c3.1-0.4,6.2-0.6,9.2-0.9
		c4-0.4,8.1-0.8,12.1-1.1c0.8-0.1,1.7-0.3,2.4,0.2c0.1,1.2-0.9,1.2-1.6,1.4c-5.2,1-10.4,1.2-15.6,1.6c-1.3,0.1-2.6,0.1-4,0.7
		c4,2,8.4,1.8,12,4c1-1.2-0.5-2.2,0.3-3.5c2.4,3.7,3.3,7.7,3.6,11.9c0.4,5.7-0.6,11.1-3.3,16.2c-2,3.8-3.8,7.7-5.9,11.4
		c-6.3,11-11,22.7-17,33.8c-0.7,4.2-3.6,7.3-5.6,10.8c-2.7,4.7-4.8,9.6-5.4,15c-0.2,1.4-0.6,2.8-0.9,4.3c-2.3,0.6-2.8,3-4.4,4.3
		c-3.8,3.4-6.6,7.5-9.9,11.3c-2.4,2.7-4.8,5.3-7.4,7.7c-5.1,4.7-9.1,10.4-12.3,16.6c-1.8,3.5-6.2,7.2-9.9,8.5
		c-2.2,0.7-4.1,2-5.8,3.4c-5.1,4.3-8.6,9.5-11,15.9c-3,8.2-5,16.4-3.5,25.1c0.1,0.4,0,0.7,0.1,1.1c0.2,1.6-1.2,3.1-0.2,4.7
		c2.6,4.2,3.7,9.1,7.7,12.7c5.2,4.6,11,8.3,17.1,11.6c2.3,1.2,4.9,1,7.3,1.2c1.4,0.1,2.8,0,4.2,0c-0.3,0.9-0.9,1.3-1.6,1.3
		c-5.5,0.1-11,0.7-15.9-2.6C809.3,347.2,808.5,347.3,807.9,347.4L807.9,347.4z M793.3,426.8c0.5-0.5,1.2-0.8,1.2-1.8
		c-1.1-0.7-2.1-0.9-3.2,0.1c0.3,0.7,0.6,1.2,0.8,1.6c-1.6-0.2-2.7-0.9-3.1-2.5c0.8,0.1,1.3-0.1,1.4-1.1c-0.8-0.4-1.4-1.3-2.5-1.2
		c-0.2,0.5-0.3,0.8-0.4,1.1c-1.1,0.3-1.6-0.2-1.8-1.3c0.5-0.2,0.7-0.6,0.6-1.2c-0.5-0.4-1-0.8-1.6-1.2c-0.2-0.1-0.6,0.1-0.9,0.1
		c-0.4,0.8,0.2,1.1,0.5,1.6c-2.5-0.6-4.7-2-6.7-3.7c0.9-0.5,1-1.5,1.3-2.6c-0.7-0.6-1-1.8-2.3-1.8c-0.6,0.4-1.1,1-1.1,1.8
		c0.4,1.2,1.6,1.7,2.3,2.7c-4.3-1.8-8-4.5-11.3-7.3c-0.4-1.6,1.4-2.8-0.2-4c-4.6,2.2-8.6,5.4-12.9,8.1c-0.4,0.2-0.6,0.7-0.8,1.1
		c-2.1,3.5-4.2,6.9-6.2,10.4c-0.6,1-0.9,2.1-0.8,3.4c0.1,4,0.2,8-0.8,11.9c-0.7,2.6-0.6,5.2-0.7,7.8c0,2.8,0,5.5,0.7,8.5
		c-0.7-0.3-1.1-0.5-1.9-0.8c2,2.9,0,5.4,0,8c0,2.8,0,5.7-0.6,8.6c0.9,1.1,1.4,2.3,1.1,3.9c-1.9,10.3-3.7,20.6-7.5,30.4
		c-2.9,7.6-6,15.2-7.3,23.4c1.4,2.8,4.2,3.9,6.4,5.5c2.3,1.6,5.1,2.6,6.8,4.7c0.1,8.9,5.3,16.9,16.6,17.1c0.9-0.1,0.7-1.2,1.5-1.4
		l-0.1-0.1c0.1,0.6-0.2,1.2,0.4,1.9c2.3,1,5.1,1.3,7.7,1.7c2.8,0.4,5.4-1.4,8-1.7c1.8-1.7,2.4-3.8,3.2-5.8
		c4.4-11.8,8.9-23.5,15.3-34.4c1.1-1.8,1.9-3.8,3.3-5.4c0,0.4,0,0.8,0.5,1c0.6-0.3,1-0.9,1.1-1.6c2.1-1.7,2.4-4.3,3.4-6.5
		c3.3-7.3,5.9-14.8,7.2-22.7c1.3-7.9,3.2-15.6,6.4-23c0.8-1.9,1-3.7,0.6-5.6c-0.9-4.8-0.6-9.7-0.6-14.7c-1.9,0.5-2.3-1.9-3.9-2
		c-3.9-0.3-7.1-2.2-10.4-4.7c0.7,3.2,1.4,6.1,2,8.9c-2.4-2.9-2.6-6.5-3.8-9.9c-1.5-0.9-3-1.9-4.5-2.8c-1.4-0.9-2.9-1.5-3.8-3
		c0.5,0,0.9,0,1.4,0c1.2,1.1,2.4,2.1,4.2,2.4c-0.3-1-0.5-1.9-1.2-2.7C795.4,426.6,794.4,426.7,793.3,426.8z M734.1,653.2
		c-3,1-5.6,3-9,3.5c3.7-5,9.6-7,13.2-11.5c-1-2.3-1-5-3.9-5.7c-0.9,0.5-0.7,1.8-1.8,2.1c-3.5,1.1-6,3.8-8.8,5.9
		c-1.4,1-2.7,2.2-3.3,3.7c-0.6,1.6-1.9,2.4-3.1,3.2c-3.5,2.3-8.8,2.3-11.7,0c-0.6-4.1-1.1-8.3-0.3-12.6c-1.1,0.2-1.5,1-2,1.6
		c-2.4,3.3-3.1,7.2-3.2,11.1c-0.1,4-0.8,7.8-3.1,11.2c-1.1,1.7-1.6,3.4-1,5.3c1.1,0.7,2.1,1.3,3,2c2.7,2.1,5.9,3.2,9.1,3.9
		c3.6,0.8,7.1,1.8,10.5,3.3c0.7,0.3,1.3,0.6,2,0.6c3.1,0,5.7,1.6,8.3,2.9c1.2,0.6,2.4,0.9,3.7,1.2c2.5,0.4,4.9,1,7.3,1.5
		c0.7,0.1,1.4,0.5,2,0.4c3-0.8,5.9,0,8.8,0.1c5.6,0.3,11.2,0,16.4-2.2c5.1-2.2,6.8-6.2,4.8-11.6c-6.6-0.9-11.4-5.2-16.4-9.1
		c-1.5,1.7-2,4.4-5,3.7c-0.5-2.5,0.8-4.2,1.9-5.9c-0.7-0.5-1.1-1.2-2.2-1c-1.3,3.1-3.7,5.1-7.7,5.2c0.9-3.3,3.2-5.6,4-8.7
		c-3,2.3-5.2,5.9-10.1,5.5c1.6-3.7,5.2-5.5,6.7-8.8c-0.3-0.5-0.4-0.8-0.6-1.1c-0.1-0.2-0.4-0.3-0.7-0.5c-3.2,3.1-6.4,6.1-11.4,7
		c0.2-2.8,2.7-3.7,3.8-5.5c0.7-0.2,1.4-0.4,1.4-1.4C735.1,652.3,734.4,652.5,734.1,653.2z M815,152.4c-0.4,0.5-0.7,0.5-1,0.3
		c-7.2-3.6-14.9-5.6-22.7-7.3c-8-1.8-16-3.6-24.3-3.1c-4.2,0.2-8.3,0.1-12.5,0c-8.6-0.2-17.1-0.6-25.4-3.1c-3.4-1-7-1.4-10.6-1.3
		c-4,0.1-8.1,0.1-12.1-0.4c-4.4-0.6-8.7-0.4-13.1,0.1c-4.7,0.6-9.5,0.8-14.3,0.7c-6.2-0.1-12.4-0.6-18.6-0.8c-1.8-0.1-3.6,0-5.7,0
		c1.4,0.9,2.5,1,3.7,1.2c14.3,2.2,28.6,5.2,43,7.1c5.2,0.7,10.2,2.1,15.4,3c7.4,1.3,14.9,1.7,22.3,2.4c16.2,1.4,32.5,1.9,48.7,3.5
		c7.6,0.8,15.2,0.3,22.8,0.3c0.5,0,1,0.1,1.4-0.1c4.2-1.8,8.6-1.7,13-2.1c8.2-0.8,16.4-1.6,24.7-0.6c2.9,0.4,5.8,1.3,8.8,0.8
		c4.7-0.9,9.5-0.7,14.2-0.8c4.5-0.1,8.8-1.6,13.3-0.5c4.4-6.1,7-12.3,4.9-19.9c-5.2,0.9-9.7-1.2-14.2-3.1c-0.9,2.5,1.4,4.8,0,7.2
		c-1.7,0.1-3.4,0-5,0.3c-4.8,0.9-9.7,1.3-14.5,1.6c-3.6,0.2-7.1-0.1-10.9-1.5c2.5-0.6,4.5,0.1,6.5-0.1c2-0.2,4.1-0.1,6.1-0.9
		c-4.8-1.4-8.6-5.1-13.8-5.4c3.2-1.7,6.3-3.3,10.1-3.5c1,2.2,3,2.7,4.9,3.2c4.9,1.5,7.3-0.5,6.7-5.6c-1-1.1-2.1-0.8-3.3-0.5
		c-3.7,0.8-7.4,1.6-11.2,2.4c-1.6,0.3-3.1,0.4-3.7-1.6c1.1-2.1,3.2-3,5-4.5c-4.3-0.1-8.4,0.9-12.9,0.7c0.3,5.5,0.8,10.5,2,15.4
		c-1.2,2.1-3.2,2-5.1,2c-5.1,0.1-10.2,0.1-15.3,0.8c-3.5,0.5-7.1,0.8-10.7,0.7c-15.7-0.2-31.4,0.6-47.1,0.7c-1.1,0-2.2-0.2-3.9,0.8
		c2.8,0,5,0,7.1,0c4.5-0.1,9,0,13.5,0.9c7,1.4,14,3,20.8,4.9c3.6,1,7,2.3,10.3,3.9C813.5,150.9,814.7,151.2,815,152.4z M828.7,122
		c-1.2-0.9-2.3-0.6-3.3-0.4c-4.3,0.6-8.6,0.4-12.8,0.7c-3.4,0.2-6.9,0.5-10.3,0.9c-9.5,1.1-18.8,3.3-28,5.7
		c-9.1,2.3-18.3,2.3-27.5,2c-5.6-0.2-11.1-0.9-16.7-0.8c-2.3,0-4.5-0.1-6.8-0.3c-6.2-0.6-12.3,0-18.6,1c-0.3,1.5-1.4,2-2.8,2.1
		c-0.8,0.1-1.6,0.2-2.4,0.4c-0.7,0.2-1.4,0.4-2.1,0.6c5.2,1.6,10.2,0.1,15.2-0.1c5.1-0.2,10-2.3,15.2-2c-2.7,1.5-5.9,1.3-9.1,2.2
		c8.3,1.3,16.1,2.5,24,3.8c7.1,1.2,14.2,0.4,21.3,0c0.8-0.1,1.1-1,2.2-0.7c3.9,1.2,8,0.8,11.9,0.5c7-0.6,14-0.5,21.1-0.4
		c8.6,0.1,17.1-0.1,25.7-0.9c1.3-0.1,2.6-0.1,4.1-0.9C827.3,131,828.3,126.4,828.7,122z M885.8,152.5c-1.4-0.7-2.2,0.1-2.9,0.6
		c-0.8,0.5-1.7,0.8-2.7,0.8c-5.2,0.1-10.4,0.7-15.7,0.5c-3.1-0.2-6.1,0-9.5,0c1.1,2.7,0.7,4.9-0.7,7.2c8.9,0.4,17.4-0.4,26.1,1.1
		C882.1,159.3,883.9,156,885.8,152.5z M872,125.6c-1,4.2-3.4,7-7.7,9c4.2-0.5,7.4-0.8,10.6-1.2C874.9,127.7,874.8,127.2,872,125.6z
		 M832.6,134c-1.6,0.3-1.1-1.1-1.7-1.8c0.1,1.1-0.6,2.2,0.3,3.2c1.3,0.2,2.5-0.1,3.7-0.5c-0.3-2.4-0.8-4.6-1-6.9
		c-0.2-2.1-0.2-4.3-0.3-6.5c-2.3,1.7-1.3,3.8-1.2,5.8C832.8,129.6,833.2,131.8,832.6,134z M853.2,123.1c4.8-0.6,9.2-2.6,13.8-2.7
		c0.1-0.8,0-1.3-0.3-1.7c-4.2,0.6-8.2,1.9-12.2,3.2C854,122.1,853.3,122.1,853.2,123.1z M772.3,408.2c0.4,0.5,0.8,0.7,0.9,1
		c0.2,0.6-0.3,1.1-0.6,1.6c-0.2,0.3-0.2,0.6,0.4,0.8c0.5-0.6,1.7-0.3,2.1-1.7c-1.6-2.1-3.3-4.3-5-6.5c-0.2,0.1-0.5,0.2-0.7,0.3
		c0.6,1.9-0.1,3.7-0.7,5.9C770.2,409.1,771.1,408.7,772.3,408.2z M800.6,430.6c3,2.7,7.9,4.9,10.1,4.6
		C807.3,433.7,804.5,431,800.6,430.6z M848.9,158.3c-0.8,0.3-0.5,1.5-1.6,1.7c-1.6-1.8,0.6-4-0.7-6.3c-0.9,2.4-1.2,4.3-0.4,6.3
		c3.5,1.5,3.5,1.5,5.1,0.4C850.5,159.7,849.7,159,848.9,158.3z M838.8,125.8c-0.2,3-1.4,6-1.2,9c0.9,0.4,1.7,0.6,2.4-0.4
		C839.3,131.7,839.5,128.7,838.8,125.8z M859.1,132.1c-4.4-4.5-5-4.7-7.4-3.3C854.1,129.9,856.6,131,859.1,132.1z M837.5,224.1
		c-0.8-1.2-1.4-2.2-2-3.1c-0.8,0.6-1.2,1.3-1.4,2.4C835.1,223.2,835.7,224.3,837.5,224.1z M760.8,561.9c0.4,1.3-0.4,2.5-0.5,4
		c1.5-1.1,2.2-2.3,2.4-3.7C762.2,561.9,761.7,561.7,760.8,561.9z M850.9,154.5c-0.2,1.2-0.5,2.3,0.8,3c0.8-0.8,0.9-1.7,0.8-2.7
		C852.2,154.5,851.8,154.3,850.9,154.5z M842.1,223.9c-0.5,0.7-1.5,1-1.2,2.4c0.9,0.6,1.7,0.4,2.3-0.5
		C843.2,225,842.9,224.4,842.1,223.9z M831.3,236.8c-1-0.8-1.7-1.9-2.9-2.3C829.3,235.5,829.5,237.1,831.3,236.8z M714.3,136.1
		c-1.3-0.3-2.5-0.3-3.9,0C711.8,136.3,713,136.4,714.3,136.1z M800.7,429.9c-0.6-1.4-0.8-2.4-2.1-2.9
		C798.4,428.4,798.9,429.2,800.7,429.9z M826.5,252.9c1-1.4,1.9-2.1,2-3.6C827.3,250.2,826.5,250.9,826.5,252.9z M821.5,238
		c1.3-0.4,2.2-0.8,1.6-2.2C821.9,235.9,821.4,236.5,821.5,238z M833.9,119.8c0.5-0.9,0.1-1.4-0.7-1.8c-0.3,0.4-0.5,0.6-0.7,0.9
		C832.9,119.4,833.2,119.8,833.9,119.8z M828.3,222c-0.4,0.8-1.3,1.2-0.6,2.5C828.3,223.7,829,223.3,828.3,222z M824.8,252.9
		c-0.7,0.8-0.7,0.8,0.1,1.6C825.1,254,825.1,253.5,824.8,252.9z M780.7,417.2c0.4,0.4,0.3,1.6,1.6,0.4
		C782,417.1,781.6,416.7,780.7,417.2z M827.9,241.6c0.7-0.7,0.9-1.1,0.1-1.5C827.2,240.4,827.2,240.9,827.9,241.6z M820.5,240.2
		c-0.9,0.6-1.6,0.8-0.9,2C820.2,241.9,820.7,241.5,820.5,240.2z M830.4,218.6c0.7,0.5,1,0.2,1.1-0.4c0-0.2-0.2-0.6-0.2-0.5
		C830.6,217.6,830.3,217.9,830.4,218.6z M821,251.4c0.5-0.7,1.2-1.1,0.2-2C820.8,249.9,820.5,250.4,821,251.4z"/>
	<path d="M492.5,647.4c0.6-0.1,0.7-1.1,1.6-0.7c0.3,1.4-0.2,2.7-1.1,3.8c-2.4,3-5.4,5.4-9.3,6.2c-4.1,0.9-8.1,1.8-12.4,1.5
		c-1.1-0.1-2.3,0-4.2,0c5.5,4.4,10,8.9,16.5,9.9c1.7,0.2,2.5,1.3,2.9,2.8c0.7,2.7,0.7,5.3-0.7,8c-0.9,1.8-2.8,3-2.8,5.2
		c-9.1,3.6-18.5,4.8-28,4.1c-4.8-0.4-9.5-1.9-14.3-3c-1.2-0.3-2.6-0.8-3.5-1.7c-3.7-3.3-8.5-3.7-13-4.3c-7.4-1-13.7-3.6-19-9.3
		c0-1.7,0-3.6,0-5.8c0.4-0.8,1-1.8,1.6-2.8c1.5-2.1,2.1-4.4,1.7-7.1c-0.3-2.3-0.1-4.5,0.4-6.8c1.3-6,3.5-8.9,9.4-12.5
		c0.5-6.5,1.8-12.9,2.1-19.6c0.3-7.3-0.3-14.4-1.2-21.6c-0.8-6.4,0.6-12.7,3.6-18.3c3.7-7.2,7.4-14.4,12.6-20.7
		c0.8-0.9,1.5-1.9,2.2-2.8c1.8-2.1,3.2-4.2,3.4-7.2c0.2-3,1.3-6,3.1-8.8c-2-2.3-4.3-3.8-6.6-5.6c-0.4-3.1,0.3-6.2,1-9.1
		c1-4.2,2.2-8.3,3.8-12.3c2.7-7.1,5.2-14.3,6.9-21.7c0.2-1.1,0.8-2.3,0-3.4c-0.4-0.6,0-1.1,0.2-1.7c2-4.7,2.3-9.7,2.8-14.7
		c0.3-3.4,0.4-6.9,1.4-10.2c0.1-0.2,0.1-0.5,0.1-0.7c-1.8-7.2-0.5-14.4,0.1-21.6c0.1-1.9-0.3-3.7,0.1-5.6c0.9-3.9,2.9-7.2,4.7-10.6
		c1.3-2.5,3.2-4.7,4.3-7.4c0.3-0.8,1.1-1.2,1.8-1.7c3.1-2.3,6.2-4.5,9.5-6.3c2.8-1.6,5.1-3.8,6.5-6.8c1.3-2.9,3-5.7,5-8.2
		s3.3-5.5,4.9-8.3c1.4-2.4,1.2-5.4,1.2-8c-0.1-3.9,0.5-7.6,1.3-11.3c1.3-6,2.5-12.1,2.9-18.3c0.1-0.8,0.3-1.6,0.4-2.2
		c-2.2-8.8-3.3-17.4-1-26c1.1-3.9,1.9-7.8,2.9-11.7c1.1-4.5,3.4-8.4,5.7-12.2c1.1-1.8,2.7-3.4,4.4-4.6c2.7-1.8,4.9-4.1,6.9-6.6
		c4.5-6,10.8-9.5,17.5-12.3c0.9-1.4,1.3-3,1-4.5c-0.8-4.7-0.6-9.5-0.6-14.6c-3.5,2.3-6.7,1.4-10,0.2c-2.1-0.7-4.4-1.1-6.6-1.6
		c-2.8-0.6-5.6-1.3-8-2.9c-0.8-0.5-1.5-0.7-2.3-0.6c-1.8,0.1-3.6-0.2-5-1.4c-0.9-0.7-2-0.6-3.1-0.6c-2.5-0.2-5-0.3-7.4-1
		c-3-0.9-4.9-2.7-5.5-5.9c-0.6-3.1-1.7-6.1-0.6-9.3c0.2-0.5-0.2-1.2-1.1-1.5c-1.5,0.4-2.6,2.2-4.8,2.1c-2.1-1.4-4.5-2.7-7.2-3.6
		c-0.5,1.1,0.5,1.9,0.7,2.8c0.7,2.2,1.6,4.2,1.1,6.8c-0.6,3,1.5,5.2,4,6.6c2.4,1.4,4.1,3.4,6,5.2c-0.5,1.2-1.2,1-1.9,0.8
		c-3-0.8-5.1-2.9-7.3-4.9c-0.4-1.2-0.8-2.4-1.6-3.5c-0.9-1.3-1.4-3-1-4.4c1.1-3.8-1.4-6.6-2.1-9.9c-0.1-0.5-0.6-1.1-1.1-1.3
		c-3.1-1.7-6.3-3.3-9.4-4.9c-0.1,0.2-0.3,0.4-0.4,0.6c2.2,2.2,4.4,4.3,6.6,6.5c3.1,3,5.1,6.4,5.4,10.9c0.2,2.5,0.9,4.9,3.4,6.2
		c-0.1,0.2-0.1,0.5-0.2,0.8c-2.9-0.9-4.4-3-4.5-5.7c-0.2-5.3-2.8-9.2-6.5-12.6c-1.6-1.4-3.4-2.9-4.3-4.7c-1.2-2.4-3.1-4.2-4.5-6.5
		c3.3,0,6.6,0.4,9.9-0.1c0.9-0.8,1.9-1.6,3-2.5c-2.2-1.3-4.1-2.1-6.3-2.5c-2.2,1.1-4.4,2.2-6.3,3.2c-0.4,0.9-0.4,1.5-0.3,2
		c-2.8,1.6-5.9,1.2-8.7,0.3c-3.2-1.1-6.4-1.5-9.7-1.9c-11.1-1.2-22.3-2-33.4-3.4c-11.8-1.5-23.6-3.1-35-6.9
		c-7.8-2.6-16-3.6-23.9-5.9c-5-1.5-10.3-1.9-15.1-4c-1.1-0.5-2.3-0.6-3.7-2c22.3,5.4,43.8,11.5,66.1,14.2c-6.1-1.3-12.3-2.3-18.3-4
		c-10.7-3.1-21.7-5.1-32.5-7.8c-3.3-0.8-6.6-1.9-9.9-3c-3-1.1-6.2-1.4-9.3-2c-5.6-1.1-11.2-2.2-16.7-3.5c-4.9-1.1-9.8-1.8-14.7-2.9
		c-5.9-1.3-11.7-2.9-17.6-4.4c-0.4-0.1-0.6-0.3-0.7-0.7l-0.1,0.1c3.1,0.6,6.4,0.8,9.4,1.8c6.9,2.3,14.1,3.2,21.2,4.6
		c10.3,2.1,20.7,4.3,31,6.4c1.3,0.3,2.5,0.7,3.6,1.4c2.2,1.4,4.7,1.6,7.2,2c8,1.3,16,2.8,23.6,5.2c14.2,4.5,28.8,6.1,43.3,8.3
		c6.1,0.9,12.3,1.2,18.3,3.1c4.3,1.4,8.8,2.2,13.4,3.2c1.5-2.3,3.8-3.9,6-5.7c-0.6-0.9-1.6-0.8-2.5-1.1c-10.5-2.8-20.8-6.2-31.1-9.4
		c-13.8-4.3-27.7-8-42-9.7c-7.5-0.9-14.7-2.9-22.1-4c-6-0.9-11.9-2.4-17.8-3.7c-0.8-0.2-1.7-0.3-2.4-0.6c-9.7-4-20.1-4.9-30.2-6.8
		c-5.1-1-9.9-2.7-14.8-4.1c-10.3-3-20.4-6.4-30.6-9.6c-0.7-0.2-1.4-0.3-1.9-0.9c0-0.5,0.4-0.5,0.7-0.4c7.7,1.9,15.5,3.6,23.1,5.9
		c3.8,1.2,7.7,2.5,11.4,3.9c6.7,2.6,13.7,3.8,20.8,5c5.3,0.9,10.6,1.6,15.7,3.3c1.9,0.6,4,0.1,6,0.6c3.2,0.9,6.5,1.6,9.7,2.3
		c1.6,0.3,3,0.8,3.7,2.4c7.4-0.2,14.2,2.1,21.2,3.5c3.6,0.7,7.3,0.8,11,1.4c13.5,2.2,26.8,5.6,39.8,9.8c8.2,2.7,16.4,5.4,24.7,8
		c-3.3-2.5-7.1-4.2-10.7-6.2c-7.6-4.3-15.2-8.5-23.4-11.5c-7.6-2.8-15.2-5.4-23.3-6.3c-11-1.2-21.8-3.9-32.3-7.3
		c-9-2.9-17.9-5.8-26.7-9.2c-4.6-1.7-9.3-2.7-14-3.9c-8.3-2-16.6-4.4-24.9-6.3c-5.5-1.3-10.9-3.2-16.7-3.8c-4.1-0.4-8-2.2-12.7-3.6
		c3.5-0.4,6.1,0.2,8.7,1c2.5,0.8,5,1.5,7.7,1.6c0.9,0,1.9,0.2,2.8,0.5c13.8,3.6,27.7,6.9,41.4,10.7c9.5,2.6,19,5.1,28.3,8.5
		c13.1,4.7,26.5,8.4,40.5,9.9c7.5,0.8,14.6,3.5,21.6,6.1c11.8,4.4,22.5,10.9,33.3,17.2c1,0.6,2,1.2,3.1,1.8c1,0.5,1.4,1.6,2.2,2.2
		c2.8,1,5.6,2,8.7,1.6c1.4-0.2,3.1-0.2,4.3,1.4c-1.8,0.6-3.5,0.3-5.1,0.6c2.1,0.2,4.2,0.5,6.5,0.2c2.4-0.3,5.3,0.3,7.5,1.9
		c2.4,1.7,5.1,2.2,7.9,2.7c1.2,0.2,2.6,0.3,3.6,1.9c-3.8,1-7.3-2-11-0.1c3.7,1.2,7.5,1.5,10.9,3.3c1.3-0.5,1.6-1.6,2.1-2.7
		c0.6-1.4,1.2-2.8,2-4.2c0.9-1.6,2.3-2.3,4.4-1.4c0.6-2.7,1.2-5.2,1.9-7.7c1-3.3,3.1-5.8,6.1-7.5c0.8-0.5,1.8-0.9,2.7-0.6
		c4.3,1.3,8.7,0.7,13,1.6c3.4,0.7,6.7,1.5,9.6,2.1c1.6,1.3,1.7,2.8,2,4c1.5,0.6,3.1-0.1,4.3,0.9c0.8,1.1,0.1,2.1-0.2,3.3
		c1.5,0,1.8,1.8,3.5,1.8c2.8-0.1,4.9,1.2,6.8,3.2c4,4.1,4.1,4.1,9.9,5.5c3.8,0.9,7.5,1.5,11.6,0.9c4.6-0.6,9.5-0.9,14.1,0.6
		c1,0.3,2.1,0.6,2.8,1.5c1.5,2,3.7,2.5,5.9,2.8c1.3,0.2,2.6,0.3,4.1,0.4c1.5-1.1,3.2-2.3,4.9-3.5c0.1,0.1,0.3,0.3,0.4,0.4
		c-0.9,1.2-1.7,2.3-2.6,3.6c4.3-0.3,4.3-0.3,6.3,0.6c0.5,1.5-0.4,2.9-0.4,4.4c2.9,0.9,5.6-0.4,8.4-0.8c0.4,1.7-1.2,2-1.2,3.1
		c0.5,0.3,1.2-0.2,1.6,0.5c0.5,1.1-0.9,1.5-0.9,2.3c0.7,0.7,1.6-0.1,2.1,0.6c-0.5,1.5-2.3,1-3.1,2.1c3.8,4.9,10.1,4.2,15.2,6.9
		c1.9,4.3,2.8,9.2,4.3,14.2c1.7,1.3,4.2,1.3,6.5,2.1c1.5,1.8,2.1,3.8,1.9,6.3c-0.2,2.7,0.1,5.5,0.2,8.2c0.1,3.2-0.3,6.4-2.4,9.1
		c-1.5,1.9-3,3.9-3.9,6.3c-0.9,2.5-2.9,4.4-4.9,6.1c-5.8,4.9-11.5,10-18,14c-0.9,0.5-2,0.9-2.4,2c-0.9,2.3-2.9,3.1-4.9,3.8
		c-3.3,1.3-6.7,2.6-9.8,3.8c-0.7,0.9-0.4,1.7-0.3,2.5c0.3,4.4-0.4,8.5-2.1,12.8c-1.9,4.9-4.8,9.1-7.3,13.5
		c-2.6,4.6-3.5,9.7-4.4,14.9c-1.2,7-2.7,14-4.2,21c-0.3,1.2-1.1,2.4-1.8,3.5c-3,4.9-6,9.7-8.9,14.6c-1.1,1.8-2.5,3.5-2.1,5.9
		c0.1,0.4-0.2,0.9-0.5,1.3c-2.1,3.2-3.9,6.6-6.3,9.5c-2.8,3.3-4.6,7.2-6.4,11c-1.7,3.6-3.3,7.4-5.6,10.7c-0.6,0.9-1.7,2-1,3.4
		c-0.5,0.3-1.2,0.1-1.5,0.7c0.3,4.8,0.5,9.5,0.8,14.3c0.1,1.7-0.3,3.3-0.9,4.9c-2,5.4-3.5,10.8-4.4,16.5c-0.9,5.5-1.7,11.1-3.5,16.4
		c-2.6,7.6-5.4,15.2-10,22c-3.4,5.1-6.4,10.5-9,16.1c-0.2-0.4-0.4-0.9-0.6-1.4c-5.7,9.8-7.4,21.4-13.6,30.7
		c-4.9,2.3-6.4,2.6-12.3,2.7c-3.9,3.8-6.8,8.1-8.2,13.4c-0.5,2-1.2,4.1-3,5.5c0.6-3.5,2.6-6.7,2.7-10.2c-1.2-0.4-1.4,1.2-2.6,0.5
		c2.1-3.8,4.3-7.6,5.1-12.1c-4.9-1.4-9.7-2.5-14-5.1c-1.4,1.5-1.7,3.8-3.9,5c0.3-3,1.7-5.2,2.8-7.5c-2.9-3.4-4.5-7.3-4.5-11.8
		c-1.7-0.7-2.8-2-4.6-2.4c-1.1,1.6-1.6,3.3-2.3,4.9c-0.8,1.9-0.6,3.9-1.3,5.8c-1.1,2.8-3,5.1-4.8,7.5c-4.7,6.4-9.6,12.6-12.6,20.2
		c-2.6,6.7-4,13.4-3.4,20.6c0.1,1.4,0.5,2.5,1.5,3.2c-0.2,2.6-0.3,5.1-0.5,7.6c-0.5,6-0.3,12.1-0.4,18.2c0,0.9-0.1,2-0.5,2.8
		c-1.1,2-0.8,4.2-0.7,6.3c0.1,2.4,0.4,4.7,0.7,7.1c0.2,1.6,1.1,2.9,2.7,3.5c2,0.7,3.9,1.6,6.1,1.9c1.4-2.8,4-4.3,5.7-6.4
		c0.8-6.4,1.8-12.3,4.7-17.8c2-3.6,3.6-7.5,6.7-10.5c0.5-0.5,0.8-1.2,1.1-1.8c4.9-10.7,9.7-21.5,11.2-33.5c1.8,0.4,2.3-0.9,3-1.9
		c0.4-0.5,0.8-1.6,1.9-0.8c-5.3,9.3-5.6,10.1-5.2,15.9c1.4-3.2,2.7-6.3,5-8.7c-0.2,2-0.9,3.9-1.6,5.8c-2.2,6.1-4.7,12.2-7.8,17.9
		c-0.7,1.4-1.2,2.8-1.6,4.3c-0.7,2.9-1.7,5.6-3.9,7.9c-0.5,0.5-0.8,1.2-1.1,1.8c-2.2,5.1-4.3,10.3-6.4,15.3c0.5,0.7,0.9,0.4,1.4,0.4
		c4.3-0.1,6.4,1.2,7.8,5.2c1.5,4,3.4,7.8,6.4,11c3.1,3.2,6.7,4.6,11.1,4.7c6.5,0.2,12.8-0.4,18.4-2.5c1-3.6,2-6.9,2.3-10.5
		c-0.3-1-0.9-1.9-2.2-2.3c-5.6-1.6-11-3.6-16.2-6.1c-1.1,1.6-0.6,4-2.7,5.4c-2.6-2,0.2-4.5-0.6-7.3c-0.7,1.9-1.2,3.2-1.8,4.6
		c-2-0.2-2-2.1-2.7-3.4c-1,1.1-1.7,2.5-3.1,3.1c-2.4-2.2-2-4.2,1.7-7.6c-0.2-0.7-0.6-1.2-1.1-1.6c-0.3-0.2-0.5-0.1-0.7,0.1
		c-0.9,1.8-1.6,3.7-3.3,5c-1,0.7-1.9,1.5-3.1,0.3c0.6-4,2-6.6,4.6-8.7c0.2-1.2-0.2-2.1-1.4-3c-0.5,1.5-0.9,2.9-1.6,4.2
		c-0.7,1.4-1.4,2.8-2.6,3.8s-2.6,1.6-4.8,1.1c2.9-3.6,3.5-8.4,7.1-11.7c-0.2-1.3-2.4-2.1-1.9-4c0.9-0.4,1.3,0.1,1.7,0.5
		c3.3,3.7,6.8,7.3,8.2,12.4c0.3,1,0.9,1.7,1.7,2.2c0.6,0.4,1.2,0.7,1.9,1c6.3,2.4,12.4,5.4,19,7.3c5.3,1.5,6.2,2.6,6.5,8.2
		C492.5,646.3,492.5,646.9,492.5,647.4c-0.8,0.5-1.2,1.1-1.3,2.2C492.3,649,492.4,648.2,492.5,647.4z M505.3,424.5
		c0.1-0.7,1.1-1.1,0.5-1.9c-1.4-0.7-2.7-0.7-3.2,1.2c-2-0.1-2.4-2-3.7-3c1.1,0,1.6,1.3,3.2,1.1c-0.1-1.7-1.4-1.8-2.4-2.5
		c-0.3,0.6-0.5,1-0.7,1.4c-0.4-0.2-0.9,0.4-1.5-0.6c-0.4-0.5,0.8-1.1,0.6-1.9c-0.6-0.6-1.2-1.4-2.2-1.2c-0.7,0.3-0.3,1.2-1.2,1.4
		c-1.9-1.5-4.5-2.3-6.4-4.2c0.6,0.1,1.1,0.3,1.7,0.1c0.5-2-0.1-3.6-1.5-3.8c-0.2,0.2-0.5,0.4-0.7,0.6c-0.3,0.4-0.5,0.8-0.7,1.2
		c0.5,0.7,0.9,1.4,1.3,2c-4-1.4-7.1-4-9.8-6.2c-1-1.8,1-3-0.6-4.3c-4.6,2.2-8.5,5.4-12.8,8.1c-0.4,0.2-0.6,0.7-0.9,1.1
		c-2.5,4.1-5.2,8-7,12c-0.4,4.4,0.2,8.5-0.7,12.6c-1.1,5.1-1.5,10.4-0.5,15.6c0.1,0.7-0.1,1.3-0.2,2c-1.2,5.9-2.7,11.7-0.9,17.7
		c0.2,0.5,0.1,1.2,0,1.8c-1.4,7.4-2.2,14.9-4.6,22c-2.6,7.8-5.4,15.5-8,23.3c-1,2.9-1.8,5.9-1.9,9.2c3.5,3.7,7.8,6,12.3,8.3
		l-0.1-0.1c0.6,1.1,1,2.1,1.1,3.6c0.2,5.2,3,9.4,6.7,12.4c2.6,2.1,6.5,2.4,9.7,2.7c1.1-0.9,1.1-1.8,1.3-2.6c0.8-3,1.1-6.2,2.7-9
		l-0.1-0.1c0.2,2.3-0.6,4.4-1.2,6.6c-0.5,1.7-1.4,3.3-0.9,5.2c2.4,1.3,5,1.2,7.5,1.8c2.8,0.6,5.4-1.4,8.5-1.6
		c4.3-7.1,6.3-15.3,9.6-22.9c3.3-7.8,7.7-14.9,11.5-22.5c0.6,0.3,0.9,0.5,1.1,0.6c2.3-2.1,3.2-5,4.3-7.7c2.5-6.3,5.3-12.4,6.5-19.2
		c1.8-9.6,3.6-19.2,7.7-28.1c0.4-0.9,0.4-1.9,0.2-2.8c-0.9-5.2-1.1-10.4-0.6-15.5c-2.3-1.3-4.3-2.7-6.9-3.1
		c-2.6-0.4-4.7-2.1-7.2-3.6c0,3,1.6,5.4,1.2,8.4c-2.1-3.1-2.1-6.6-3.5-9.9c-1.4-0.8-2.9-1.8-4.4-2.7c-1.8-1.1-3.8-2-4.9-3.9
		c1.1-0.1,1.9,1,3,0.8c0.6,1.7,2.2,1.9,3.9,3c-0.3-1.5-0.8-2.4-1.5-3.2C506.9,424.3,506.1,424.4,505.3,424.5z M509,232.1
		c-0.4-0.4-0.6-1-1.2-1.2c-1.2,2.7-1.5,5.5-0.5,6.6c0.6-1.7-0.5-3.5,0.5-5.3C508.2,232.2,508.6,232.1,509,232.1
		c-0.4,1.7-0.6,3.6-0.2,5.5c0.8,0.2,1.5,0.4,2.1,0c0.8-0.8,0.6-2.5,2.4-2.5c0.6,1.3,1,3.1,3,3.3c0.9-0.5,1.6-1.2,1.7-2.6
		C515.1,234.3,511.8,233.8,509,232.1z M446.8,650.3c-3.5,0.9-6.3,3.4-10,3.8c2-2.1,4.1-4,6.3-5.8c2.3-1.8,5.1-3,6.6-5.7
		c-1.4-4.3-1.4-4.3-3.9-5.5c-1.2,1.7-1.3,1.6-2.4,2.4c-4.5,2.8-9.4,5.1-11.8,10.3c-0.2,0.4-0.7,0.6-1,0.9c-3,2.7-6.6,3.1-10.4,2.8
		c-1.4-0.1-2.5-0.6-3.1-2c-0.3-4-1.1-8-0.1-12c-1-0.1-1.2,0.4-1.6,0.9c-2.7,3.3-3.4,7.3-3.6,11.4c-0.1,4.1-0.8,8-3.2,11.5
		c-1.1,1.7-1.4,3.5-1,5.1c3.3,2.8,6.8,4.5,10.5,5.7c1.6,0.6,3.6,0,4.8,0.8c2.5,1.6,5.7,1.3,8.1,3.1c0.7,0.5,1.8,0.7,2.7,0.6
		c1.5-0.1,2.8,0.5,4,1.3c4.7,3,10.3,2.6,15.4,4.4c0.2,0.1,0.5,0,0.7-0.1c2.6-0.8,5.2-0.2,7.7,0c6,0.5,11.9,0.1,17.5-2.2
		c5-2.1,6.8-6.6,4.5-11.5c-6.5-1-11.3-5.2-16.1-9c-1.8,1.3-2,4.7-5.3,3.3c0-2.2,0.9-3.9,2-5.5c-0.5-0.7-1-1.2-2-1.2
		c-1.5,3-3.6,5.3-7.8,5.1c1-3.3,3.3-5.6,4-8.6c-1.8,1.1-2.7,3-4.5,3.9c-1.6,0.9-3.2,2.3-5.5,1.4c1.6-3.6,5.2-5.3,6.5-8.5
		c-0.1-1-0.5-1.4-1.2-1.7c-3.3,2.9-6.5,6.3-11.5,6.8c0.2-2,1.5-2.7,2.4-3.8C445.1,651.9,446.4,651.6,446.8,650.3
		c0.7,0,1.1-0.3,1.4-1.3C447.6,649.6,446.9,649.6,446.8,650.3z M512.5,202.1c-0.6-2.2,2.3-1.2,2.6-2.9c-4.3-0.4-8.4-1.5-12.8-1
		c-2.1,0.3-4.3,0-6.1-1.3c-1.6,1.3-2.2,2.9-2.7,4.6c-1.7,6.8-2.1,13.9-2.7,20.9c-0.3,3.3-0.4,6.6-0.6,9.9c4.1,4.2,9.6,3.8,14.4,5.4
		c1-1.6,0.7-3.1,0.7-4.5c0-2.3,0.3-4.5,2.2-6.1c1.7,3.7,4.9,5.3,8.6,6.2c1.7,0.4,3.1,1.1,3.7,2.8c-0.4,1.8-1.8,2.7-2.5,4
		c-2.4-0.7-4.5-1-6.8-0.9c-5.4,0.3-10.7-0.4-15.8-2c-2.3-0.7-4.4-1.9-5-3.7c0.4-6.6-0.3-12.5,0.2-18.4c0.5-6,1.5-12,2.4-18.1
		c2.3-0.4,3.7-2.8,6.7-2.1c0.6,1.4,2.3,1.6,4,1.3c2.2-0.3,4.3,0,6.4,0.4c3.9,0.7,7.9,0.5,11.9,0.6c-0.3-2.8-2.5-2.5-4.1-2.9
		c-6.3-1.4-12.7-1.6-18.8-3c-2.3,0.5-4.1,1.6-5.8,2.9c-2.8,6.1-6.6,24.4-5.9,28c-1.3,1.5-1.5,3.3-1.1,5.3c0.3,1.7,0.7,3.5,0.8,5.3
		c0.2,2.5,1.7,3.9,3.8,4.7c1.2,0.5,2.5,0.7,3.8,0.9c2.2,0.4,4.6,0.3,6.6,1.1c3.2,1.2,6.5,1.3,9.8,1.1c0.9,0,1.8-0.3,2.6,0
		c-0.2,1.5-2,1.1-2.2,2.4c1.7,0.5,3.3,1.4,4.8,1.1c0.7-0.5-0.3-1.3,1-1.6c3.5,1.1,6.3-1.1,9.2-3.2c0.2-2.5,2.4-3.9,3.5-5.9
		c1.1-2.1,2.3-4.2,2.9-6.5c1-0.4,1.7-1.3,3.2-1.4c4.5,4.7,10.8,6.8,16.8,9.3c6.2,2.5,11.4,6.4,15.1,12.1c0.6,0.9,1.4,1.6,2.3,2.2
		c1.1,0.9,2.5,1.6,3.3,2.7c1.7,2.5,4.2,3.7,7,4.8c-2.6,0.6-4.4-0.7-6.3-1.8c-6.3,2.6-11.3,6.7-15.6,11.8c-0.5,0.2-0.4-0.7-0.9-0.8
		c-1.3,0.4-1.3,2.2-2.7,2.5c-4.8,1.1-9.6,0.4-14.5,0.8c-1.6,0.1-3.1,0.6-4.4,1.3c-4,2.3-8.4,3.7-12.8,5c-1.8,0.6-3.1,1.5-4.4,2.8
		c-3.2,3.3-5.6,7.4-10,9.4c-1.2,0.6-1.8,1.8-2.4,3c-3,7-4.6,14.2-3.7,21.9c0.2,2.1,0.4,4.3,0.5,6.4c-0.2,0-0.6-0.1-0.6-0.1
		c0-0.5-0.7,0.3-0.2,0.2c2.8,10.4,9.6,17.4,18.7,22.3c1.3-0.4,1.7-1.7,2.9-1.8c0.5,0,0.9,0.3,0.9,0.9c-0.2,1.1-1.7,0.8-1.9,1.9
		c12.3,7.7,22.1,3.9,27.8-10.9c-2.1-2.9-0.3-6.7-1.6-10.7c-5.7,6.7-12.5,11-19.3,15.7c-0.5-0.4-1.5,0.5-2.9-0.2
		c5.5-2.9,9.1-7.1,12.6-11.5c0.7-0.9,1.6-1.7,2.5-2.6c3.4-3.5,6.9-6.8,10.6-10c2.4-2.1,4.9-4.2,7.4-6.1c1.1-0.8,2.2-1.5,3.6-1.3
		c-0.2,1.3-1.2,2-2.1,2.7c-1.7,1.3-3.4,2.6-4.8,4.2c1.2,6.3,0.1,12.2-2,18c-0.7,1.8-1.2,3.6-1,5.5c0,0.2-0.1,0.4-0.2,0.7
		c-0.4,0.2-0.9-0.4-1.4,0.1c-0.5,0.7-0.9,1.5-1.5,2.3c-4.5,5.7-10,9.7-17.6,9.8c-3.3,0-6.4-0.3-9.4-1.8c-6.4-3.1-12.1-7.3-16.6-12.7
		c-4.6-5.6-7.7-11.9-6.3-19.4c0.5-2.8,0.4-5.6,0.2-8.5c-0.9,6-3,11.9-1.9,18.1c-0.2,0.5-0.9,0-1.2,1c0.5,5.8,1.3,12,0.8,18.4
		c-0.4,5.1-0.7,10.2-1.9,15.2c-0.7,3-1.1,6.1-2.1,9c-1,3,1,6.1-1,8.9c1,2.2-0.7,3.5-1.7,5.1c-0.4,0.6-0.8,1.1-1.1,1.7
		c0.4,0.7,0.6,1.2,1,1.7c-3.2,4.7-6.1,9.7-8.8,14.7c9,11.3,16.5,16.9,34.9,26.6c1.1,0.6,2.1,0.2,3.1,0.5c0.9,0.6,0.4,1.9,1.5,2.4
		c2.1,0.6,5.8,3.1,6.9,4.6c-0.1,1.1-2.5,0.9-1.4,2.6c0.6,0.1,0.9-0.3,1.2-0.6c2.4-2.3,3.5-5.4,4.6-8.3c2.8-7.1,6.1-14,11.2-19.7
		c0.7-0.8,1.2-1.8,1.6-2.8c3.2-8.4,7.9-16,13-23.3c1.8-2.6,3-5.4,3.6-8.5c1.7-8.7,2.8-17.6,5-26.6c1.9-1.3,3-3.5,4.2-5.7
		c1-2.1,1.9-4.3,3.1-6.4c2.1-3.8,3.1-7.9,3.2-12.3c0.1-5.5-1.6-10.5-3.1-15.6c-0.5-1.8-0.7-3.5,0.5-5.3c1.3,3.8,3.7,7.1,5.1,10.7
		c4.5-1.1,8.4-2.7,11.6-5.8c1.5-1.5,3.3-2.8,5.1-3.9c7.2-4.6,13.2-10.5,18.9-16.7c1.6-1.7,3.1-3.5,5.1-4.9c2.7-1.9,5-4.5,5-8.2
		c0.1-4.2,0.1-8.3,0.1-12.5c0-1.2-0.5-2.3-1.5-3.4c-1.8-0.5-3.8-1.1-6.1-1.7c-1.3,4.5-4.5,7.9-6.6,11.8c-1.5,2.9-3.5,5.8-5.9,8
		c-3.3,2.9-6.2,6.2-9.1,9.5c-6.2,7-13.2,12.6-22.1,15.8c-1.3,0.5-2.7,0.7-3.7,1.9c3,4.8,3.2,10.1,3.6,15.9c-1.3-1.7-1.3-3.2-1.7-4.5
		c-0.4-1.2-0.4-2.6-1.4-3.6c-2-2-4.1-3.9-6.1-5.9c-1.1,0.5-2.1,0.9-3.1,1.3c0.1-0.3,0.2-0.7,0.4-0.9c3.1-2.9,7.1-4.5,10.5-7.1
		c1.9-1.4,4.2-2.7,6.2-4c11.2-7.6,21.1-16.6,29.9-26.9c3.2-3.7,6-7.7,7.2-12.5c0.3-1.3,0.8-2.6,0.4-3.9c-1.1-3.4-1.4-7-3.4-10.3
		c-1.4,0.1-2.7-0.6-4.1-0.9c-2.1-0.4-4-1.9-6.1-2c-2.5-0.1-4.2-1.3-6-2.6c-3.7-2.7-7.5-5-11.9-6.4c-1.7-0.5-3.5-1.2-4.8-2.2
		s-2.6-1.6-4-2.2c-10.6-3.7-21.2-6.9-32.2-8.9c-2.8-0.5-5.7-1-7.8-3.1c-0.2-3.1-2.5-4.4-4.9-5.4c-1.5-0.6-3.2-0.9-4.8-1.4
		C522.9,202.4,517.8,201.5,512.5,202.1z M552.8,252.9c-1.3-0.3-0.8-1.4-1.5-1.7c-0.9,0.4-1.4,1.2-1.7,2.4c1.4,3.6,3.8,6.7,5.8,10.4
		c1.6-1.3,3-2.4,4.7-2.5c0.9-1.1,1.9-2,2.4-3.2c-1.3-1.5-1.1-3.6-2.6-4.8c0.4-1.4,0.6-2.5,0.3-4.1c-1.8-0.6-2.6-2.5-3.9-3.9
		c-0.8,0.2-1.1,0.6-1.2,1.4c2.1,1.1,2.6,3.4,3.6,5c-0.2,1.8-1.2,2.8-1.9,3.9c-0.1,1.7,0.3,3.4-1.1,5c-1.4-1.8-3-3.4-2.7-5.6
		c0.8-1.8,2.5-1.1,3.5-1.8c0.5-1.6,0-2.7-1.1-3.6C554,250.4,553.8,252,552.8,252.9z M478,215.8c-6.5-3.2-13.6-2.8-20.5-3.5
		c7,3.5,14.1,6.8,21.2,10.2c0.8,0.4,1.4,0,1.7-0.8C479,219.9,478.5,217.8,478,215.8z M544.1,264.1c-1.1-0.1-0.7-1.6-1.9-1.2
		c-1,0.7-0.8,1.5,0.1,2.4c4,0.2,8,2.1,13.2,1.2c-3.8-2.9-4.4-7.1-6.9-10.5C547.7,259.4,545.8,261.6,544.1,264.1z M430,647.8
		c-8.8,0-8.8,0-11.6-6.3c-0.3,3,0,5.8,0.8,8.8c3.4,0.2,6.6,0.1,9.8-0.2C429.6,649.3,430,648.7,430,647.8z M483.5,216.1
		c-1.4,0.7-2.1-0.7-3.2,0.1c0.4,1.2,0.7,2.5,1.6,3.6c0.8,0.5,1.9,0.4,2.6,1.6c0.6-4.9,1-9.4,2.1-13.9c-2.8-0.6-3.2-0.3-4.6,3.3
		C485.3,212.5,485.5,213.6,483.5,216.1z M564.6,249.5c-1.5,2.4-1.5,4.8-1.1,7.9c2.1-2.1,4.3-3.2,7-4.4
		C568.3,251.7,567.1,249.6,564.6,249.5z M533.6,239.9c1.6-3.4,1.7-6.8,2.6-9.8c-0.4-0.8-0.9-1-1.8-0.8c-0.8,1.6-1.6,3.2-2.3,4.6
		c0,1.4,1.4,2,1,3.2c-0.6,1.6-2.5,0.7-3.6,1.6C530.7,240.4,532.1,239.7,533.6,239.9z M532.4,245.9c-0.4-1.6,1.1-3,0.8-4.6
		c-0.6-0.3-1-0.1-1.5,0.2c0.2,1.5,0.2,3-1.5,4.3c-2.9-0.2-6.1-0.4-9.7-0.7c3,1.4,5.8,2,8.5,2.5C530.1,247.3,531.1,246.9,532.4,245.9
		z M481.6,401.3c-0.3,2.1-0.7,3.9-1.2,5.6c1.5,0.3,2.5-1.4,3.9-0.5c1.2,0.9-0.8,1.9,0.1,2.8c0.9-0.3,1.8-0.4,2.4-1.4
		C485,405.6,483.3,403.5,481.6,401.3z M527.9,239.5c-0.9,2.3-3.5,2.6-5,4.5c1.3,0,2.4,0.1,3.4,0c1.1-0.1,2.3,0.5,3.4-0.1
		c0.6-0.6,0.6-1.3,0.6-2.1C529.7,241.1,528.4,240.8,527.9,239.5z M512.1,428.4c3.2,2.8,7.8,4.8,10,4.6
		C518.8,431.4,516,428.8,512.1,428.4z M553.8,320.3c0.1-2.2,1.2-4.3,0.7-6.8c-1,0.7-1.9,1.3-2.5,2.3c0.5,1.1-0.3,2.2-0.2,3.4
		c0.3,0.2,0.5,0.5,0.8,0.7C552.9,320.1,553.3,320.2,553.8,320.3z M517.8,199.5c4.2,2,5.7,2.1,7.6,0.6
		C522.8,199.6,520.3,200,517.8,199.5z M452.3,208.7c-2.6-0.5-5,0.4-7.3-1.6C446.4,210,449.5,210.6,452.3,208.7z M567.8,302.9
		c1.5,1.7,2.6,2.9,3.9,4.4C571.1,303.9,570.9,303.6,567.8,302.9z M471.8,563.7c1.3-1.3,2.3-2.3,2.3-3.8c-0.6-0.4-1.1-0.6-1.8,0
		C472.8,560.9,471.9,561.9,471.8,563.7z M423.7,206.3c0-0.2,0.1-0.3,0.1-0.5c-1.4,0-2.8,0-4.2,0c0,0.1,0,0.2,0,0.3
		C421,206.2,422.4,206.2,423.7,206.3z M512,427.6c-0.6-1.6-0.8-2.6-2.1-2.9C509.6,426,510.4,426.6,512,427.6z M548.5,239
		c-0.3-0.3-0.4-0.5-0.6-0.6c-0.4-0.2-1-0.5-0.8,0.4C547.1,239.3,547.7,239.3,548.5,239z M531.8,236c-0.6-0.3-0.9-0.1-1.1,0.1
		c-0.2,0.4,0,0.7,0.4,0.7C531.5,236.8,531.7,236.5,531.8,236z M536.2,259.4c0,1-0.3,1.6,0.3,2.2C536.8,260.9,537,260.4,536.2,259.4z
		 M464.2,632c0.8-0.4,1.2-0.8,0.1-1.3C463.8,631.2,463.8,631.6,464.2,632z M492.1,414.8c0.4,1,0.8,1.4,2,0.5
		C493.3,415.2,493.3,414,492.1,414.8z"/>
	<path fill="none" d="M464.8,581.3c-2.3,2.5-3.5,5.6-5,8.7c-0.4-5.8-0.1-6.7,5.2-15.9c-1.1-0.9-1.5,0.2-1.9,0.8
		c-0.8,1-1.3,2.3-3,1.9c-1.5,12.1-6.3,22.8-11.2,33.5c-0.3,0.6-0.6,1.3-1.1,1.8c-3,3-4.7,6.8-6.7,10.5c-3,5.4-4,11.4-4.7,17.8
		c-1.7,2.1-4.3,3.7-5.7,6.4c-2.2-0.4-4.1-1.2-6.1-1.9c-1.6-0.6-2.5-1.8-2.7-3.5c-0.3-2.4-0.5-4.7-0.7-7.1c-0.1-2.1-0.4-4.2,0.7-6.3
		c0.4-0.8,0.5-1.9,0.5-2.8c0.1-6-0.1-12.1,0.4-18.2c0.2-2.5,0.3-5,0.5-7.6c-1-0.8-1.4-1.8-1.5-3.2c-0.6-7.2,0.8-13.9,3.4-20.6
		c2.9-7.6,7.9-13.8,12.6-20.2c1.8-2.4,3.6-4.7,4.8-7.5c0.8-1.9,0.5-3.9,1.3-5.8c0.7-1.6,1.2-3.3,2.3-4.9c1.8,0.4,2.9,1.7,4.6,2.4
		c0,4.4,1.6,8.3,4.5,11.8c-1.2,2.3-2.5,4.5-2.8,7.5c2.2-1.2,2.5-3.4,3.9-5c4.3,2.6,9.2,3.7,14,5.1c-0.8,4.5-3,8.3-5.1,12.1
		c1.2,0.7,1.4-0.9,2.6-0.5c-0.1,3.5-2.1,6.7-2.7,10.2C465,581,464.9,581.1,464.8,581.3z M443.4,579.1c-1.8,3-1.7,6-1.5,9
		C443.3,585.3,443.9,581.8,443.4,579.1z M449.6,564.8c-1.1,2.6-2.4,5.1-2.2,8.1C447.9,570.1,449.8,567.7,449.6,564.8z M438.4,597.2
		c1.2-1.1,1.6-2,0.9-3.3C438.1,594.6,438.1,595.6,438.4,597.2z M438,601c-1.7,0.6-1.7,0.6-1.7,2.6C437.2,602.9,437.8,602.1,438,601z
		 M434.4,609.6c1-0.6,2-0.9,1.2-2.1C434.7,607.7,434.5,608.3,434.4,609.6z M433,614.6c1.1-1,0.8-1.6-0.1-2.1
		C432.2,613.5,432.2,613.5,433,614.6z"/>
	<path d="M857.8,292.9c0.8,0.1,1.2,0.5,1.5,1.3c2.5,8.2,4.2,16.5,4.6,25.1c0,0.1-0.1,0.1-0.2,0.2c-0.1,0-0.3-0.1-0.3-0.1
		c-1.1-5.1-4.8-8.6-8.3-12.1c-1.9-1.9-3.4-3.9-4.3-6.4c-0.7-1.9-1.7-3.7-3.4-5.2c-1.4,1.6-2.8,3.2-4.3,4.8c0.6,3.4,1.1,6.8,1.2,10.3
		c0.1,3.2-1,6.5,1,10.2c0,3.1-0.8,6.8-2.2,10.4c-0.8,2.1-1.3,4.3-1.1,6.6c-3,0.4-3.1,3.5-5,5s-3.5,3.5-6.7,4.8
		c1.9-3.6,4.4-5.7,6.1-8.4c1.9-3,2.3-6.5,4.1-9.5c1.6-2.9,2.9-6,3.2-9.5c-1.6-2.2-2.4-4.6-2-7.6s-0.4-6.1-0.6-9.3
		c-1.7-0.3-1.7,2.8-3.7,1.8c-1.4,1.4-2.3,3.1-3.3,4.6c0.1,6.5,1.4,12.8,3.6,18.9c-3.5-0.8-3.5-0.8-6.2-7.5
		c-3.2,6-7.5,10.8-12.3,15.2l0.1,0.1c2-3.9,3.9-7.8,5.9-11.7c1.6-3.1,3.1-6.1,4-9.5c1.2-4.7,3.8-8.7,7.5-11.9
		c0.7,0.3,1.2,0.5,1.6,0.7c1.6-1.2,2.4-2.9,3.5-4.5c4.9-7.6,10.1-15,15.1-22.6c4.5-6.8,7.3-14.1,10.1-21.4c2-5.2,4.3-10.3,7.9-14.3
		c4.7-5.3,7.3-11.9,11.5-17.4c1.6-2.1,2-5,3.4-7c1.5-2,2.4-4.2,2.8-6.4c1.6-8,3.7-15.9,5.1-23.9c2.3-13.9,5.9-27.4,10.7-40.7
		c0.4-1,0.2-2.1,0.7-3.1c0.7,0.2,1.3,0.4,1.9,0.5c6.5-3.3,10.5-7.9,13.4-15.1c0.1-1.8-1.4-3-1.4-4.8c0-1.6,1.2-2.9,0.6-4.9
		c-0.7-1.4-2.5-2.6-2.8-5.2c2.4,1.3,3.3,3.4,4.5,4.8c0.4,1.9-0.2,3.5-0.7,5.4c3.1,3.7,1.1,7.3-0.9,10.6c-2.2,3.5-5.2,6.4-8.3,9.3
		c-1.5,1.4-3.3,2.2-5.4,2.3c-0.5,2.4-1,4.6-1.5,6.8s-1.1,4.4-1.7,6.9c1.8,0.2,2.5,2.1,4.8,2.7c-2,1.2-3.7,1.1-5.4,1.5
		c-1,1.6-1.2,3.6-1.7,5.6c-2.1,8.4-3.8,17-6.2,25.3c-0.6,2-0.5,4.2-0.7,6.4c-0.9,10.6-4.8,20.1-10.6,28.8c-0.9,1.3-1.7,2.6-2.6,4
		c-2.6,1.3-4.2,3.8-6.1,6.1c0.7,2.3,1.4,4.6,0.6,6.7c-0.2,1.4-1.3,1.7-2,2.5c0.3,0.9,0.6,1.9,0.9,3.2c2.6-2.8,5.3-5,8.1-6.8
		c2.5-8.7,7.3-15.7,13.2-22c2.4-2.6,5-5.1,7.8-7.4c3-2.5,5-5.8,7.1-8.9c3.1-4.4,6.1-8.8,8.8-13.4c1.6-2.7,3.5-5.1,5.3-7.6
		c2.9-3.8,3.4-7.7,1.3-12c-1.1-2.2-2.2-4.5-2.7-7l-0.1,0.1c3.8,4.4,7,9,5,15.3c-0.5,1.7-0.4,3.6-1.6,5c-4.4,5.3-7.8,11.4-11.6,17.1
		c-5.8,8.7-13.6,15.4-20.6,23.1c-3.7,4.1-6.5,8.6-8,14c-0.8,3-2.1,5.9-5,7.7c-2.2,1.3-3.7,3.6-5.9,4.8c-0.4,1.6,0.3,2.8,0.8,3.9
		c1.8,4.5,1.8,4.7-2.3,7.6c0.1,1,0.1,2,0.1,2.8c-0.2,1.5-1.6,1.4-2.1,2.3c1.9,2.7,0.3,4.8-1.1,6.7c-0.5,1.2,0.2,1.9,0.3,2.7
		c0.4,4.3-2.5,7.1-6.8,6.8c-2.4-0.1-4.7-0.3-6.9-1.1c-0.4-0.2-0.9,0-1.5,0.6C860,288.8,857.4,290.6,857.8,292.9
		c-1.4,1.6-0.5,3.9-1.4,5.7c-3.1-1.9-0.7-5.3-2.5-7.2c0.6-3.6,1.9-6.5,5.5-7.7c3.5,0.9,6.9,1.9,10.5,0.9c2.2-0.6,3.1-1.8,2.6-3.9
		c-0.6-2.4-0.3-4.4,1.3-6.3c0.9-1.1,0.4-2.2-1-2.9c-1.1,0.1-2.2,1.7-3.6,0.3c1.4-2.4,5-0.7,6.3-3.6c0-0.8-0.1-1.8-0.2-2.8
		c-3.8,0-4.5-0.7-3.1-3.8c0.5,2.1,2,1.4,3.2,1.6c1.5,0.3,2.8,0.6,3.6-1.5c-0.7-2.9-2-5.9-3.3-8.8c-1.1-2.3-1.5-4.5,0.7-6.5
		c1.1-1,1.1-2.5,0.5-3.8c-0.7,0.1-0.9,0.6-1,1c-2.8,6.8-5.5,13.7-8.2,20.5c-1.6,4-3.5,7.9-6.2,11.2c-4.7,5.8-7.3,13.1-12.7,18.5
		c0.6,0.7,1,1.2,1.4,1.6c1.9,2.1,3.8,4.2,4.9,6.9c0.9,2.2,2.3,4.3,4.8,5.7c0.2-1.5,0.4-2.8,0.6-4.3
		C858.7,300.5,858.2,296.7,857.8,292.9z"/>
	<path d="M926.5,167.2c-0.5-0.5-1-1-1.6-1.6c-1.6,0.1-3.2,0.2-4.8,0.4c-4,0.6-7-0.8-8.8-4.5c-0.8-1.7-1.9-3.3-2-5.2
		c0.8-1.7,2.2-2,3.9-2c4.5,0.1,9,0,13.8,0c3-1.7,5.1-5.1,8.9-5.9c-1.8,2.3-4.6,3.6-6,6.5c1.6,0.1,3.1,0.3,4.6,0.4
		c2.7-2.2,5.6-2.9,8.8-1.1c0.3-0.7,0.4-1.2,0-2c-2-1.2-4.7-1.2-6.8-3.3c3.6-0.1,6,2.4,9.2,2.2c1,1.2,2,2.2,2.7,3.4
		c1.1,1.8,1.6,3.6,0.6,5.7c-0.8,1.6-1.1,3.4-1.6,5c2.7,8.2,0.8,16.1-4.5,17.6c0.3-2.4,1.6-4.3,2.7-6.1c0.8-1.3,1.1-2.6,1.1-4
		c-0.1-1.7,0.1-3.4-0.1-5c-0.3-2.6,0.2-5,1.1-7.3c0.5-1.4,0.8-2.7,0.3-4.1c-1-0.7-2-0.9-3.1-1c-1.2,1.1-0.5,2.7-1.2,3.9
		c-0.8,1.2-1.6,2.4-2.3,3.4c-4.3,0.9-4.9,0.6-7.4-3.2c-2.6-0.6-5.3-0.7-8.2-0.7C924.7,161.7,927.2,164.4,926.5,167.2L926.5,167.2z
		 M921.7,156c5.2,1.4,10,1.2,14.8,2.1c0.5,0.9,0.4,2.2,1.7,2.5c2.8-1.2,3.1-1.6,3-5.3c-3,1.6-6.1,1.3-9.2,1.3
		C928.7,156.5,925.5,155.5,921.7,156z M916,160.9c2.6-0.2,5.1,0.3,7.6-0.3c0-0.5,0-0.9,0-1.2c0-0.5-0.2-0.9-0.8-1.3
		c-2.6,0-5.5-0.4-8.3,0.2C914.6,159.4,915.1,160.1,916,160.9z M912.1,160c0.7-1.6,0.9-3,2.3-4c-1.5-0.3-2.7-0.6-3.5,0.6
		C910.6,157.7,911.2,158.6,912.1,160z M917.8,163.1c2.1,0.9,4.1,0.5,6.2,0C921.9,163.1,919.8,163.1,917.8,163.1z M945,153.8
		c0.6,0.4,1.1,0.8,1.5,0c-0.2-0.6-0.6-1-1.2-0.6C945.2,153.3,945.1,153.4,945,153.8z"/>
	<path d="M913.6,123.5c1.5-2.1,1.8-4.6,2.5-6.9c0.3-1.2-0.3-2.3-0.8-3.4c-1.1-2.5-2.4-4.9-2.9-7.3c-0.8-1.3-2.3-0.4-2.9-1.5
		c0.1-0.2,0.2-0.6,0.3-0.6c1.2,0,2.3,0.2,3.6,0.8c1.2,3.1,2.4,6.2,3.7,9.4c0.6,1.5,0.6,3,0.2,4.5c-0.8,3.1-2.1,6.1-2.3,9.3
		c0,0.6-0.4,1.1-1.2,1.5c-1.8,0.5-2.8-0.9-3.9-2.2c-1.8,1.6,1.1,3.2-0.1,4.8c-2-1.2-0.4-3.8-2.2-5.2c-2.7-0.5-5.7-0.6-8.7-1.9
		c0.5-1.6-1.8-2.8-0.8-4.9c2.1,0.2,3.1,3.5,5.8,1.9c1-1.9,1.7-4.2,2.1-6.6c-1.1-1.8-2.7-2.7-4.5-2c-4.9,1.7-9.9,2.4-15,2.9
		c-4.4,0.4-8.8,0.8-13.1,1.2c-1,0.1-2.1,0.4-3-1.1c3-1.7,6.3-0.9,9.3-1.4s6.2-0.2,9.2-1.1c0.1-1.2-0.6-2.4,0.4-4.1
		c5.5-1.9,11.5-3.9,17.4-6c-4.7,4.4-10.7,5.8-16.5,7.2c-0.2,0.5-0.3,0.7-0.3,0.9c0.1,0.6,0.3,1.1,0.5,2c3.1-0.6,6.3-0.5,9.1-2.6
		c2.2-1.6,5-1.6,7.4-0.3c2.4,1.3,2.9,3.6,2.7,6.1c-0.2,1.7,0.6,3.2,0.2,4.6c0.6,1,1.2,1.5,2.4,1.6c0.6-3.4,0.3-6.9,1.8-10.2
		C915.1,116.6,913.8,120.1,913.6,123.5c-1,0.8-2.1,1.4-3.4,0.8c-1-0.7-1.5-2-2.7-2.5c-0.7,0.4-1.3,0.8-1.3,1.6
		c1.4,0.3,2.7,0.9,4.1,0.8c1,1.2,1.1,3.4,3.5,3.4C914,126.2,913.9,124.8,913.6,123.5z"/>
	<path d="M289.6,155.7c-0.8-1-2.1-1-3.3-1.2c-4.5-1.2-9-2.2-14.1-3.5c2.9-0.5,5,0.3,7.1,0.7c12,2.4,24.2,4.4,35.9,7.7
		c11.9,3.4,24.4,5.6,35.2,12.3c0.9,0.6,2,0.9,3.1,0.9c8.3,0.3,16.2,2.7,24.3,3.9c7.2,1.1,14.3,2.3,21.5,3.4c1.8,0.3,3.7,0.5,5.7,1.9
		c-1.9,0.6-3.3-0.3-4.7-0.5c-9.2-1.3-18.4-2.6-27.5-4.2c-6.8-1.2-13.5-2.8-20.5-3c-1,0-1.8-0.6-2.6-1c-7.4-3.8-15.1-6.9-23.3-8.9
		c-4.8-1.2-9.3-3.5-14.2-4.5c-5.6-1-11-2.1-16.5,0c-0.5,0.2-1.2,0.3-1.8-0.1c2.1-0.6,4.1-1.2,6.7-2.1
		C296.4,156.4,293,155.7,289.6,155.7L289.6,155.7z"/>
	<path d="M323.3,187c-24.6-2.3-48.1-9.6-71.7-16.6c4.5,0,8.7,1.4,12.9,2.8c14.3,4.5,28.9,7.7,43.6,10.6c3.8,0.8,7.8,1.2,11.6,1.8
		C321,185.7,322.2,186.2,323.3,187z"/>
	<path d="M918.5,129.9c-1.7-4.2,0.1-7.1,1.5-10.4c-2.5-4.4-1.6-10.2-5.5-14.2c2.2-0.7,2.2-0.7,5.4,6.1c-1.2,1.9-0.2,3.8,0.8,5.5
		c1.1,1.8,1.1,3.5,0.4,5.4C920.3,124.6,919.6,126.9,918.5,129.9z"/>
	<path d="M891.5,270.5c2.2-3.5,3-7.6,5.4-10.9c0.1-0.1,0.4-0.1,0.7-0.1c0.4,4.5-6.4,14.9-13.1,19.5
		C886,275.6,888.1,272.7,891.5,270.5z"/>
	<path d="M828.1,269.9c1.3-5.6,3.7-9.7,9.6-11.4c0.3-1.6,0-3.5,2.2-4.6c0.4,2.5-0.8,4.8-2.4,5.8c-3.6,2.4-6.2,5.4-7.6,9.5
		C829.7,269.7,829.3,270.1,828.1,269.9z"/>
	<path d="M823.2,385c2.8-3.4,12.4-9.4,15-9.7C837,378,835.6,378.9,823.2,385z"/>
	<path d="M898.2,136.7c1.7,0.1,1.7,0.1,4.8,2.6c3.5-0.6,5.1-3.2,6.5-6.2c0.4,4.7-2.4,6.6-6.1,7.7
		C900.6,139.7,900.3,139.4,898.2,136.7z"/>
	<path d="M839.6,374.5c3.5-4.5,8-8.3,9.9-14.6C849.8,364.5,846.7,369,839.6,374.5z"/>
	<path d="M802.8,359.1c0.5-0.5,0.9-0.6,1.2-0.3c2.6,2.5,4.8,5.4,7.8,7.4C808,365.5,804.8,362.9,802.8,359.1z"/>
	<path d="M901,155.2c0.1,0.3,0.4,0.8,0.3,1c-2.5,3.7-1.1,8.7-4.1,12.2c-0.3,0.3-0.5,0.2-0.4-0.2c1.1-3.6,1.8-7.3,2.6-11
		C899.5,156.4,899.8,155.4,901,155.2z"/>
	<path d="M831.5,302.9c1.7-3.5,2.4-7.5,3.9-11.2c0.8-0.1,1.2,0.3,1.1,0.8c-0.8,3.8-2,7.5-4.4,10.7c0,0.1-0.2,0.1-0.3,0.1
		C831.7,303.2,831.7,303.1,831.5,302.9z"/>
	<path d="M866.1,218.5c0.4-4.2,1.3-8.2,2.9-12.1C868.6,210.5,868.3,214.7,866.1,218.5z"/>
	<path d="M892,246.4c2.7-3.1,6.1-3.4,9.5-5.2C897.9,245.2,896.2,246.2,892,246.4z"/>
	<path d="M861.4,241.9c3,1.8,5.3,0.3,7.6-1c0.4,1.9,0.3,2.2-1.6,2.9C864.5,244.9,862.8,244.4,861.4,241.9z"/>
	<path d="M901.7,150.7c-0.7-4.1-0.2-6.6,1.7-9.1C904.1,143.5,903.4,146.9,901.7,150.7z"/>
	<path d="M940.6,186.2c-0.3,2.8-2.8,4.5-4.1,7c0.3-2.1,1.7-5.8,2.7-7.1C939.4,185.7,939.8,185.5,940.6,186.2z"/>
	<path d="M819.3,336.6c-0.5,3.2-3,4.7-5.5,6.2C815.4,340.6,816.2,337.6,819.3,336.6L819.3,336.6z"/>
	<path d="M400.8,193.2c-4.5-0.1-8.9,0.6-13.3,0.8C391.8,192.7,396.3,192.9,400.8,193.2z"/>
	<path d="M800.4,423.6c-0.5-2.6-0.5-2.9,1.3-9.1C802.4,417.4,801.9,420.6,800.4,423.6z"/>
	<path d="M907.5,105.8c0.5,0.1,0.8,0.5,1,0.9c1.3,1.9,2.6,3.8,4.1,6.1C909.5,111.4,907.7,108.6,907.5,105.8z"/>
	<path d="M803.3,351.2c-2.1,2.4-4.9,3.7-7.8,5.8C796.8,354.6,797.7,353.9,803.3,351.2z"/>
	<path d="M829.3,306.8c-0.1,3.5-3.2,3.3-5.2,4.9C825.2,309.5,825.2,309.5,829.3,306.8z"/>
	<path d="M819.1,368.7c-2.1,0-3.6,0-5-0.9C816.3,366.3,816.4,366.4,819.1,368.7z"/>
	<path d="M289.5,155.6c-2.6,1.6-5.6,1.2-8.4,1.9C283.8,156.2,286.7,156,289.5,155.6L289.5,155.6z"/>
	<path d="M798.5,372c1.8,1.2,3.2,2.1,4.6,3C799.3,375,799.3,375,798.5,372z"/>
	<path d="M263,170.7c2.7,0.4,5.4,0.8,7.9,2.1l0.1-0.1C268.1,172.9,265.5,172,263,170.7L263,170.7z"/>
	<path d="M873.9,195.9c-0.4-1.9,0.4-3.3,1.7-5C876.1,193.2,875.1,194.6,873.9,195.9z"/>
	<path d="M936.2,179.5c2-0.8,3.1-0.2,4.4,1C938.9,180.9,937.7,181,936.2,179.5z"/>
	<path d="M874.7,290.7c0.3-1.6,1.4-2.4,3.5-3.4C877.3,289.4,875.9,289.9,874.7,290.7z"/>
	<path d="M762.8,638.3c0.1,1,1.1,1.8,0.5,3c-1.4-0.5-1.5-1.6-1.8-2.5c0.5-0.7,0.9-0.6,1.4-0.4L762.8,638.3z"/>
	<path d="M824.5,358.1c-1.7,1.1-2.8,0.6-4-0.5C821.9,356.7,823,357,824.5,358.1z"/>
	<path d="M380.9,192c-2.2,1.2-4.7,0.4-7,0.8l0.1,0.1C376.2,191.7,378.6,192.4,380.9,192L380.9,192z"/>
	<path d="M808.3,349.9c1.9,0.4,2.8,1.2,3.9,2.5C810.3,352.3,809.2,351.9,808.3,349.9z"/>
	<path d="M809.5,277c0.6-1.2,1.5-2.1,3-2.6C811.9,276.1,811.9,276.1,809.5,277z"/>
	<path d="M882.7,210.6c-0.1-1.1,0.5-1.9,1.3-2.8C884.3,209.1,883.6,209.9,882.7,210.6z"/>
	<path d="M880.7,283.9c-0.1-1.6,0.2-2.8,2.5-3.3C882.1,282.1,881.4,283,880.7,283.9z"/>
	<path d="M845.2,242.5c0.1,1.2,0,2.3-1.4,3.1C843.8,244.2,844.4,243.3,845.2,242.5z"/>
	<path d="M381,192.1c1.5-1,3.2-0.3,4.8-0.1C384.1,192,382.5,192,381,192.1L381,192.1z"/>
	<path d="M802.1,403.2c1.4,1.7,2,3,1.1,4.9C802.8,406.5,802.5,405.2,802.1,403.2z"/>
	<path d="M474.9,638.9c-1.4-0.5-2.1-1.3-1.6-2.9C474.9,636.5,474.7,637.8,474.9,638.9z"/>
	<path d="M876.7,223.4c-0.2-1.4,0.5-2.4,1.2-3.6C878.2,221.8,878.2,221.8,876.7,223.4z"/>
	<path d="M241.3,149.5c1.3-0.4,2.4-0.5,3.6,0C243.8,149.5,242.7,149.5,241.3,149.5z"/>
	<path d="M896.5,172.2c0.3,1.5-0.4,2.3-1.2,3.2C894.7,173.9,895.6,173.3,896.5,172.2z"/>
	<path d="M242.1,170.6c-1.3,0.1-2.4-0.7-3.6-1.1C239.9,169.2,241,169.7,242.1,170.6L242.1,170.6z"/>
	<path d="M935.3,196.2c0,1.5-0.4,2.2-1.4,2.6C933.5,197.7,933.8,196.9,935.3,196.2z"/>
	<path d="M801.4,349.5c0.8-1.5,1.6-2.2,2.7-3C804.4,348.5,803.4,349,801.4,349.5z"/>
	<path d="M823,311.6c-0.4,1.8-1.1,2.2-2.5,2C820.8,312.4,821.7,312.3,823,311.6z"/>
	<path d="M932.3,172.1c-0.8-0.3-1.3-0.8-1.4-1.8c0.8-0.4,1,0.2,1.3,0.6C932.4,171.2,932.9,171.6,932.3,172.1z"/>
	<path d="M843.7,340.7c-0.8-0.6-0.9-1-0.2-1.5C844.3,339.5,844.3,339.9,843.7,340.7z"/>
	<path d="M841.1,251.3c-0.5-1.1-0.1-1.7,0.6-2.5C842.3,250,842,250.7,841.1,251.3z"/>
	<path d="M939.7,168.3c1.1-0.5,1.4-0.1,1.7,0.5c0,0.7-0.6,0.6-0.9,0.4C940.2,169,940,168.6,939.7,168.3z"/>
	<path d="M876.9,187.6c-0.4-1.2,0.1-1.8,0.7-2.4C878,186.2,878,186.9,876.9,187.6z"/>
	<path d="M816.9,356.5c0.6-0.6,1,0,1.4,0.4c-0.1,0.7-0.6,0.5-0.9,0.4C817,357.2,816.8,356.9,816.9,356.5z"/>
	<path d="M798.2,383.1c1.1,0.8,0.5,1.2,0.3,1.9C797.8,384.4,797.9,383.8,798.2,383.1z"/>
	<path d="M373.9,192.8c-0.6,0.4-1.2,0.5-2.5,0.2C372.6,193,373.3,192.9,373.9,192.8L373.9,192.8z"/>
	<path d="M861.7,327.7c-0.5-0.9-0.1-1.4,0.7-1.8C862.8,326.9,862.2,327.3,861.7,327.7z"/>
	<path d="M926.4,212.2c0.9-0.7,1.2-0.9,1.5-1.2C928.1,211.7,927.7,211.9,926.4,212.2z"/>
	<path d="M935.4,163.8c0.9,0,1.3,0.3,1.6,0.7c0.2,0.2,0.1,0.4-0.2,0.5C936,165.1,935.7,164.6,935.4,163.8z"/>
	<path d="M807.8,347.3c-0.3,0.9-0.9,1.2-1.9,1.2C806.4,347.6,807,347.1,807.8,347.3L807.8,347.3z"/>
	<path fill="none" d="M777.8,417.4c2,1.6,4.1,3,6.7,3.7c0.5,0.2,0.9,0.5,1.4,0.7c0.2,1,0.7,1.6,1.8,1.3c0.6,0.3,1.2,0.6,1.5,1.3
		c0.4,1.6,1.5,2.3,3.1,2.5l-0.1-0.1c0.8,1.5,2.4,2.2,3.8,3c1.5,0.9,3,1.9,4.5,2.8c1.2,3.3,1.5,7,3.8,9.9c-0.6-2.8-1.3-5.7-2-8.9
		c3.3,2.5,6.5,4.4,10.4,4.7c1.6,0.1,2,2.5,3.9,2c-0.1,5-0.3,9.9,0.6,14.7c0.4,1.9,0.2,3.7-0.6,5.6c-3.2,7.3-5.1,15.1-6.4,23
		c-1.3,7.9-3.9,15.4-7.2,22.7c-1,2.2-1.3,4.8-3.4,6.5c-0.1-0.1-0.2-0.2-0.3-0.3c0-0.4,0-0.9-0.1-1.7c-0.5,1.1-0.9,1.9-1.2,2.6
		l0.1-0.1c-1.4,1.6-2.3,3.6-3.3,5.4c-6.3,10.9-10.9,22.6-15.3,34.4c-0.7,2-1.3,4.1-3.2,5.8c-2.6,0.3-5.2,2.1-8,1.7
		c-2.6-0.4-5.4-0.7-7.7-1.7c-0.6-0.7-0.4-1.3-0.4-1.9c0.5-0.3,0.5-0.8,0.6-1.2c1.4-3.9,1.5-8.3,3.6-11.9c2.6-4.7,4.3-9.8,6.2-14.8
		c3.8-9.9,7-19.9,9.2-30.3c0.5-2.5,1.2-5,0.9-8.2c-1.8,9.3-3.6,18-6.9,26.3c-0.7-0.3-1.1-0.5-1.5-0.6c-0.4-2.8-1.6-5.4-2.8-7.9
		c-0.1-1-0.1-2-0.2-3.7c-0.3,1.8-0.4,2.7,0.3,3.6c0.4,2.8,1.1,5.5,2.8,7.9c0.9,1.8,0.9,3.5,0.1,5.4c-2.8,7.2-5.2,14.4-8.6,21.4
		c-2.1,4.3-3.4,9.1-3.5,14c-0.8,0.2-0.6,1.3-1.5,1.4c-11.2-0.2-16.4-8.3-16.6-17.1c-1.8-2.2-4.5-3.1-6.8-4.7
		c-2.3-1.6-5.1-2.7-6.4-5.5c1.2-8.2,4.3-15.8,7.3-23.4c3.8-9.8,5.5-20.1,7.5-30.4c0.3-1.5-0.2-2.8-1.1-3.9c0.6-2.9,0.7-5.8,0.6-8.6
		c0-2.6,2-5.2,0-8c0.8,0.3,1.2,0.5,1.9,0.8c-0.7-2.9-0.7-5.7-0.7-8.5c0-2.6,0-5.2,0.7-7.8c1-3.9,0.9-7.9,0.8-11.9
		c0-1.3,0.2-2.4,0.8-3.4c2.1-3.5,4.1-6.9,6.2-10.4c0.2-0.4,0.5-0.9,0.8-1.1c4.3-2.7,8.3-5.9,12.9-8.1c1.6,1.3-0.2,2.5,0.2,4
		c3.3,2.8,6.9,5.5,11.3,7.3L777.8,417.4z M789.2,455.2c0.9-0.8,0.7-1.7,0.4-2.7C789.4,453.4,789.4,454.3,789.2,455.2
		c-0.5,0.7-0.6,1.5-0.2,2.5C789.1,456.7,789.1,455.9,789.2,455.2z M790.6,447.3c1.1-1,0.6-2.3,0.7-3.6c1.5-3.3,2.7-6.7,3-10.3
		c-0.9,3.5-2.9,6.7-2.9,10.4C790.5,444.9,790.9,446.2,790.6,447.3c-0.6,1-0.6,2,0,3C790.6,449.3,790.6,448.3,790.6,447.3z
		 M750.6,537.6c0-2.2,0-4.4,0-6.6C750.3,533.2,749.4,535.4,750.6,537.6c0.4,2.5-0.3,5.2,0.9,7.6c0,0.7,0.1,1.5,0.1,2.2
		c0.3-0.8,0.4-1.5-0.2-2.2C751,542.8,751.8,540.1,750.6,537.6z M776,429c4.2-3.6,5-4.7,5.2-7.7C779.6,424.3,777.5,426.4,776,429z
		 M805.9,462.8c1.2-2.3,3-4.5,2.4-7.5C807.8,457.9,806.1,460.1,805.9,462.8z M768.2,503.1c0.2-2.7-0.1-5.5,0-8.2
		C768.2,497.6,768.2,500.4,768.2,503.1z M747.4,461.5c1.1,0.9,2.3,1.1,3.8,0.7C750,461,748.7,460.9,747.4,461.5z M742.4,537.9
		c0.6-1,1.9-1.9,1.6-3.6C743.1,535.4,742.5,536.5,742.4,537.9z M788.1,461.6L788.1,461.6c0.1-0.6,0.2-1.3,0.2-1.9
		c-0.1,0-0.1,0-0.2,0C788.1,460.3,788.1,460.9,788.1,461.6z"/>
	<path fill="none" d="M815,152.4c-0.3-1.3-1.5-1.6-2.5-2.1c-3.3-1.7-6.7-2.9-10.3-3.9c-6.9-1.9-13.8-3.5-20.8-4.9
		c-4.5-0.9-9-1-13.5-0.9c-2.1,0-4.3,0-7.1,0c1.7-1,2.8-0.8,3.9-0.8c15.7-0.1,31.4-0.9,47.1-0.7c3.6,0,7.2-0.2,10.7-0.7
		c5.1-0.7,10.2-0.8,15.3-0.8c1.9,0,3.9,0,5.1-2c-1.2-4.9-1.7-9.9-2-15.4c4.5,0.2,8.6-0.7,12.9-0.7c-1.8,1.5-3.9,2.4-5,4.5
		c0.5,2.1,2.1,2,3.7,1.6c3.7-0.8,7.5-1.5,11.2-2.4c1.2-0.3,2.3-0.6,3.3,0.5c0.6,5.1-1.8,7.1-6.7,5.6c-1.9-0.6-3.9-1-4.9-3.3
		c-3.8,0.2-7,1.8-10.1,3.5c5.3,0.3,9,4,13.8,5.4c-2,0.8-4.1,0.7-6.1,0.9s-4-0.5-6.5,0.1c3.8,1.4,7.4,1.7,10.9,1.5
		c4.9-0.3,9.7-0.7,14.5-1.6c1.6-0.3,3.3-0.2,5-0.3c1.4-2.4-0.9-4.6,0-7.2c4.5,1.9,9,4,14.2,3.1c2.1,7.6-0.5,13.8-4.9,19.9
		c-4.4-1.1-8.8,0.4-13.3,0.5c-4.8,0.1-9.5-0.1-14.2,0.8c-3,0.6-5.9-0.4-8.8-0.8c-8.3-1-16.5-0.2-24.7,0.6c-4.4,0.4-8.8,0.3-13,2.1
		c-0.4,0.2-0.9,0.1-1.4,0.1c-7.6,0-15.3,0.5-22.8-0.3c-16.2-1.6-32.5-2.1-48.7-3.5c-7.5-0.7-14.9-1-22.3-2.4
		c-5.1-0.9-10.2-2.3-15.4-3c-14.4-1.9-28.6-4.9-43-7.1c-1.2-0.2-2.3-0.3-3.7-1.2c2.1,0,3.9-0.1,5.7,0c6.2,0.3,12.4,0.8,18.5,0.8
		c4.8,0.1,9.5-0.1,14.3-0.7c4.4-0.6,8.8-0.8,13.1-0.1c4,0.6,8.1,0.6,12.1,0.4c3.6-0.1,7.1,0.3,10.6,1.3c8.3,2.5,16.9,2.9,25.4,3.1
		c4.2,0.1,8.3,0.2,12.5,0c8.3-0.4,16.3,1.3,24.3,3.1c7.8,1.8,15.5,3.7,22.7,7.3C814.3,152.9,814.6,152.9,815,152.4z M764.6,146
		c0.7,0.5,0.9-0.2,1.6-0.9C765.3,145.5,765,145.7,764.6,146z M751.6,146.8c-0.2,0.4-0.5,0.7-0.9,1.4c0.5-0.3,0.6-0.4,0.8-0.5
		C751.7,147.5,752,147.2,751.6,146.8z"/>
	<path fill="none" d="M753.6,583.1c-2.4,2.6-3.7,6-5.5,9.5c-0.5-6.6,2.6-11.5,5.4-16.6c-1.8,0.3-2.2,1.9-3.2,3
		c-0.5,0.2-1.2-0.3-1.7,0.5c-1.5,8.7-3.9,17.4-7.9,25.6c-0.9,1.9-1.8,3.9-2.6,5.9c-0.8,1.8-1.9,3.3-3,4.8
		c-4.7,6.3-8.1,13.2-9.4,20.9c-0.3,2-1,3.9-0.7,6c-3.2,2.7-6.2,5.5-7.1,9.7c-3.6,0.1-6.9,0.4-10.2,0c-0.9-3.1-0.8-6.1-0.5-9.4
		c1.5,6.7,4.5,8.3,11.4,6.3c-1.6-1.2-3.4-1.4-4.9-2c-2-0.7-3.2-2-3.4-4.1c-0.2-3-0.5-5.9-0.7-8.9c0-0.7-0.1-1.5,0.1-2.1
		c1.3-3,1.1-6.1,1-9.2c0-7,0.6-14,1-21c-2.2-3.5-1.9-7.4-1.5-11.2c1.1-9.8,5.1-18.5,10.9-26.4c2.3-3.1,4.6-6.1,6.8-9.2
		c1.8-2.5,3.2-5,3.6-8.3c0.3-2.6,1.2-5.3,3-7.6c1.8,0.3,2.8,1.8,4.4,2.3c0.3,2.3,0.5,4.4,1.4,6.4c0.8,2,1.9,3.8,3.3,5.6
		c-1.3,2.4-2.4,4.9-3.1,8c2.3-1.6,2.8-3.7,4.2-5.6c4.3,2.5,9.1,3.8,14.1,5c-0.7,4.6-2.8,8.4-5.1,12.2c1.2,0.8,1.5-1,2.7-0.5
		c-0.4,3.6-2,6.9-2.9,10.4L753.6,583.1z M729.8,591.3c1.9-2.9,2.7-6.5,2.2-10C729.9,584.5,730.5,587.6,729.8,591.3z M735.9,575.1
		c0.8-2.6,2.2-5.1,2.3-8C736.9,569.6,735.8,572.2,735.9,575.1z M726.4,602.7c-1.8,1.8-1.8,1.8-1.6,3.6c0.5-0.7,1-1.3,1.5-2
		C726.4,604,726.3,603.6,726.4,602.7z M727.8,595.9c-1,1.1-1.2,2.1-0.5,3.8C727.8,598.2,728.9,597.4,727.8,595.9z M724.5,609.7
		c-1.3,0.4-1.7,0.9-1.4,2.2C723.8,611.3,724.6,611.1,724.5,609.7z M721.6,616.9c0.7-1,0.7-1.7-0.4-2.1
		C720.4,615.6,720.4,616.2,721.6,616.9z"/>
	<path fill="none" d="M734.4,653.5c-1.1,1.8-3.6,2.7-3.8,5.5c4.9-0.9,8.2-3.9,11.4-7c0.4,0.3,0.6,0.3,0.7,0.5
		c0.2,0.3,0.4,0.6,0.6,1.1c-1.5,3.2-5.1,5.1-6.7,8.8c4.9,0.4,7.1-3.2,10.1-5.5c-0.8,3.1-3.2,5.4-4,8.7c4,0,6.4-2,7.7-5.2
		c1.1-0.1,1.5,0.5,2.2,1c-1.1,1.7-2.4,3.5-1.9,5.9c3,0.7,3.4-1.9,5-3.7c4.9,3.9,9.8,8.2,16.4,9.1c2,5.4,0.3,9.4-4.8,11.6
		c-5.3,2.3-10.8,2.5-16.4,2.2c-2.9-0.1-5.8-0.9-8.8-0.1c-0.6,0.2-1.4-0.2-2-0.4c-2.4-0.5-4.9-1.1-7.3-1.5c-1.3-0.2-2.5-0.6-3.7-1.2
		c-2.6-1.3-5.2-2.8-8.3-2.9c-0.7,0-1.4-0.4-2-0.6c-3.4-1.5-6.9-2.5-10.5-3.3c-3.2-0.7-6.4-1.8-9.1-3.9c-0.9-0.7-2-1.3-3-2
		c-0.6-1.9-0.2-3.6,1-5.3c2.3-3.4,3-7.1,3.1-11.2c0.1-3.9,0.7-7.8,3.2-11.1c0.5-0.7,0.9-1.4,2-1.6c-0.8,4.3-0.3,8.5,0.3,12.6
		c3,2.3,8.2,2.3,11.7,0c1.2-0.8,2.4-1.6,3.1-3.2c0.6-1.5,1.9-2.7,3.3-3.7c2.9-2.1,5.3-4.8,8.8-5.9c1.1-0.3,0.9-1.6,1.8-2.1
		c2.9,0.7,3,3.4,3.9,5.7c-3.6,4.5-9.5,6.5-13.2,11.5c3.4-0.6,6-2.6,9-3.5C734.2,653.3,734.3,653.4,734.4,653.5z M757.2,666.6
		c-1.1,0.9-2,1.6-1.1,3.3C757.3,669.1,758.3,668.4,757.2,666.6z"/>
	<path fill="none" d="M828.7,122c-0.4,4.4-1.4,9,0.3,13.5c-1.5,0.8-2.8,0.8-4.1,0.9c-8.5,0.7-17.1,1-25.7,0.9
		c-7-0.1-14-0.2-21.1,0.4c-3.9,0.3-8,0.7-11.9-0.5c-1.1-0.3-1.4,0.6-2.2,0.7c-7.1,0.5-14.2,1.2-21.3,0c-7.8-1.3-15.7-2.5-24-3.8
		c3.2-1,6.4-0.7,9.1-2.2c-5.2-0.2-10.1,1.8-15.2,2c-5,0.2-10.1,1.8-15.2,0.1c0.7-0.2,1.4-0.5,2.1-0.6c0.8-0.2,1.6-0.4,2.4-0.4
		c1.4-0.1,2.5-0.6,2.8-2.1c6.3-1,12.4-1.6,18.6-1c2.2,0.2,4.5,0.3,6.8,0.3c5.6,0,11.1,0.6,16.7,0.8c9.2,0.3,18.4,0.3,27.5-2
		c9.2-2.3,18.5-4.5,28-5.7c3.4-0.4,6.9-0.7,10.3-0.9c4.3-0.3,8.6-0.1,12.8-0.7C826.3,121.4,827.5,121.1,828.7,122z"/>
	<path fill="none" d="M885.8,152.5c-1.9,3.5-3.6,6.9-5.4,10.2c-8.7-1.5-17.2-0.7-26.1-1.1c1.4-2.3,1.8-4.6,0.7-7.2
		c3.4,0,6.5-0.1,9.5,0c5.2,0.3,10.4-0.4,15.7-0.5c1,0,1.8-0.4,2.7-0.8C883.6,152.6,884.4,151.8,885.8,152.5z"/>
	<path fill="none" d="M872,125.6c2.8,1.6,3,2.1,2.9,7.8c-3.2,0.4-6.5,0.7-10.6,1.2C868.6,132.6,871,129.8,872,125.6z"/>
	<path fill="none" d="M832.6,134c0.6-2.2,0.2-4.4,0-6.7c-0.2-2-1.2-4.1,1.2-5.8c0.1,2.2,0.1,4.3,0.3,6.5s0.6,4.4,1,6.9
		c-1.2,0.4-2.4,0.7-3.7,0.5c-0.9-1-0.2-2.1-0.3-3.2C831.5,132.9,831,134.4,832.6,134z"/>
	<path fill="none" d="M853.2,123.1c0.1-1.1,0.8-1.1,1.3-1.2c4-1.3,8.1-2.6,12.2-3.2c0.4,0.4,0.5,0.9,0.3,1.7
		C862.4,120.5,858,122.5,853.2,123.1z"/>
	<path fill="none" d="M772.3,408.2c-1.2,0.5-2.1,0.9-3.6,1.4c0.6-2.2,1.3-3.9,0.7-5.9c0.2-0.1,0.5-0.2,0.7-0.3
		c1.7,2.2,3.3,4.4,5,6.5c-0.4,1.3-1.6,1.1-2.1,1.7c-0.7-0.2-0.6-0.5-0.4-0.8c0.3-0.5,0.8-1,0.6-1.6
		C773.1,408.9,772.7,408.7,772.3,408.2z"/>
	<path fill="none" d="M800.6,430.6c3.9,0.4,6.7,3,10.1,4.6C808.5,435.5,803.5,433.3,800.6,430.6z"/>
	<path fill="none" d="M848.9,158.3c0.8,0.7,1.6,1.4,2.4,2.1c-1.6,1.1-1.6,1.1-5.1-0.4c-0.8-2-0.5-3.9,0.4-6.3
		c1.3,2.3-0.9,4.5,0.7,6.3C848.4,159.9,848.1,158.6,848.9,158.3z"/>
	<path fill="none" d="M838.8,125.8c0.7,2.9,0.5,5.9,1.2,8.6c-0.7,0.9-1.5,0.8-2.4,0.4C837.4,131.8,838.6,128.9,838.8,125.8z"/>
	<path fill="none" d="M859.1,132.1c-2.5-1.1-4.9-2.2-7.4-3.3C854,127.4,854.7,127.6,859.1,132.1z"/>
	<path fill="none" d="M777.9,417.5c-0.7-0.9-1.8-1.5-2.3-2.7c0.1-0.8,0.5-1.3,1.1-1.7c1.3-0.1,1.6,1.2,2.3,1.8
		C778.8,415.9,778.7,416.9,777.9,417.5L777.9,417.5z"/>
	<path fill="none" d="M793.3,426.8c1-0.1,2.1-0.2,3.1-0.3c0.7,0.8,0.9,1.7,1.2,2.7C795.8,428.9,794.6,427.9,793.3,426.8L793.3,426.8
		z"/>
	<path fill="none" d="M837.5,224.1c-1.7,0.1-2.4-1-3.5-0.7c0.2-1.1,0.6-1.8,1.4-2.4C836,222,836.7,222.9,837.5,224.1z"/>
	<path fill="none" d="M760.8,561.9c1-0.2,1.4,0,1.9,0.3c-0.2,1.4-0.9,2.6-2.4,3.7C760.4,564.4,761.2,563.2,760.8,561.9z"/>
	<path fill="none" d="M792.2,426.8c-0.2-0.5-0.5-1-0.8-1.6c1.1-1.1,2.1-0.8,3.2-0.1c-0.1,1-0.8,1.3-1.2,1.8l0.1-0.1
		c-0.5,0-0.9,0-1.4,0L792.2,426.8z"/>
	<path fill="none" d="M850.9,154.5c0.9-0.3,1.3-0.1,1.6,0.3c0.1,0.9,0,1.8-0.8,2.7C850.4,156.8,850.7,155.7,850.9,154.5z"/>
	<path fill="none" d="M842.1,223.9c0.8,0.5,1.1,1.1,1.1,1.8c-0.7,0.9-1.4,1.1-2.3,0.5C840.6,224.9,841.6,224.6,842.1,223.9z"/>
	<path fill="none" d="M831.3,236.8c-1.8,0.2-2.1-1.3-2.9-2.3C829.7,235,830.4,236.1,831.3,236.8z"/>
	<path fill="none" d="M785.9,421.8c-0.5-0.2-0.9-0.5-1.4-0.7c-0.3-0.4-0.9-0.8-0.5-1.6c0.3,0,0.7-0.2,0.9-0.1
		c0.6,0.3,1.1,0.8,1.6,1.2C786.6,421.2,786.3,421.5,785.9,421.8z"/>
	<path fill="none" d="M789.1,424.3c-0.3-0.6-0.9-1-1.5-1.3c0.1-0.3,0.2-0.6,0.4-1.1c1.1-0.1,1.7,0.8,2.5,1.2
		C790.5,424.2,789.9,424.4,789.1,424.3z"/>
	<path fill="none" d="M714.3,136.1c-1.3,0.3-2.5,0.2-3.9,0C711.8,135.8,713,135.8,714.3,136.1z"/>
	<path fill="none" d="M800.7,429.9c-1.8-0.7-2.3-1.5-2.1-2.9C799.9,427.5,800.1,428.4,800.7,429.9z"/>
	<path fill="none" d="M826.5,252.9c0-2,0.7-2.8,2-3.6C828.4,250.8,827.5,251.5,826.5,252.9z"/>
	<path fill="none" d="M821.5,238c-0.1-1.5,0.4-2.1,1.6-2.2C823.8,237.2,822.8,237.6,821.5,238z"/>
	<path fill="none" d="M833.9,119.8c-0.7,0-1-0.4-1.4-0.9c0.2-0.3,0.4-0.5,0.7-0.9C833.9,118.5,834.3,118.9,833.9,119.8z"/>
	<path fill="none" d="M828.3,222c0.7,1.3,0,1.7-0.6,2.5C827,223.2,828,222.9,828.3,222z"/>
	<path fill="none" d="M780.6,650.4c0.1,1.1-0.6,1.7-1.5,2.2C779,651.4,779.8,650.9,780.6,650.4L780.6,650.4z"/>
	<path fill="none" d="M824.8,252.9c0.3,0.5,0.4,1.1,0.1,1.6C824.1,253.7,824.1,253.7,824.8,252.9z"/>
	<path fill="none" d="M780.7,417.2c0.9-0.5,1.2-0.1,1.6,0.4C781,418.8,781.1,417.6,780.7,417.2z"/>
	<path fill="none" d="M827.9,241.6c-0.6-0.8-0.7-1.2,0.1-1.5C828.8,240.5,828.6,241,827.9,241.6z"/>
	<path fill="none" d="M820.5,240.2c0.2,1.3-0.3,1.6-0.9,2C819,241,819.6,240.8,820.5,240.2z"/>
	<path fill="none" d="M734.1,653.2c0.4-0.6,1-0.9,1.7-1.1c0,1-0.7,1.2-1.4,1.4C734.3,653.4,734.2,653.3,734.1,653.2z"/>
	<path fill="none" d="M830.4,218.6c-0.1-0.7,0.3-1,0.9-1c0.1,0,0.3,0.4,0.2,0.5C831.4,218.8,831,219.1,830.4,218.6z"/>
	<path fill="none" d="M799.4,512.6c-0.1,0.7-0.4,1.2-1.1,1.6c-0.5-0.2-0.4-0.6-0.5-1l-0.1,0.1c0.4-0.3,0.9-0.6,1.3-0.9
		C799.2,512.4,799.3,512.5,799.4,512.6z"/>
	<path fill="none" d="M821,251.4c-0.5-0.9-0.2-1.4,0.2-2C822.2,250.2,821.5,250.7,821,251.4z"/>
	<path fill="none" d="M474,544.5c-1.6,2.8-2,6-2.7,9c-0.2,0.8-0.2,1.7-1.3,2.6c-3.2-0.4-7.1-0.6-9.7-2.7c-3.7-3-6.6-7.2-6.7-12.4
		c0-1.4-0.5-2.5-1.1-3.6c0.8-0.6,1.8-1,1.4-2.2c1.6-0.8,1.7-2.2,2.2-4.4c-1.1,1.9-2,3-2.1,4.4c-1.1,0.4-1.1,1.4-1.4,2.2
		c-4.4-2.3-8.8-4.6-12.3-8.3c0.2-3.3,0.9-6.2,1.9-9.2c2.7-7.8,5.5-15.5,8-23.3c2.4-7.1,3.2-14.6,4.6-22c0.1-0.6,0.2-1.2,0-1.8
		c-1.7-6-0.2-11.9,0.9-17.7c0.1-0.7,0.4-1.3,0.2-2c-1-5.2-0.6-10.5,0.5-15.6c0.9-4.1,0.3-8.2,0.7-12.6c1.8-4,4.5-8,7-12
		c0.2-0.4,0.5-0.9,0.9-1.1c4.3-2.7,8.3-5.9,12.8-8.1c1.6,1.3-0.4,2.5,0.6,4.3c2.6,2.2,5.8,4.8,9.8,6.2l-0.1-0.1
		c1.9,1.9,4.5,2.8,6.4,4.2c1-0.2,0.6-1.1,1.2-1.4c1-0.2,1.6,0.6,2.2,1.2c0.2,0.8-1.1,1.4-0.6,1.9c0.6,1,1.1,0.4,1.5,0.6l-0.1-0.1
		c1.2,1,1.7,2.9,3.7,3l-0.1-0.1c1.2,1.9,3.2,2.7,4.9,3.9c1.5,1,3,1.9,4.4,2.7c1.3,3.2,1.3,6.7,3.5,9.9c0.4-3-1.3-5.4-1.2-8.4
		c2.4,1.5,4.6,3.2,7.2,3.6c2.6,0.4,4.7,1.9,6.9,3.1c-0.4,5.2-0.2,10.4,0.6,15.5c0.2,0.9,0.2,1.9-0.2,2.8c-4.1,8.9-6,18.5-7.7,28.1
		c-1.2,6.7-4,12.9-6.5,19.2c-1.1,2.7-1.9,5.6-4.3,7.7c-0.2-0.1-0.5-0.3-1.1-0.6c-3.8,7.5-8.2,14.7-11.5,22.5
		c-3.2,7.6-5.2,15.8-9.6,22.9c-3.1,0.2-5.7,2.2-8.5,1.6c-2.5-0.6-5.1-0.5-7.5-1.8c-0.5-1.9,0.4-3.5,0.9-5.2
		C473.3,548.9,474.1,546.8,474,544.5c1.6-1.9,2.3-4.4,3.3-6.5c1.6-3.4,3.3-6.8,3.8-10.7c1.6-2.4,2.6-5,2.8-7.9
		c2.1-2.5,2.2-5.6,2.9-8.5c1.1-1.5,1.5-3.2,1.4-5.1c0.4-0.1,0.6-0.4,0.7-0.7c1.2-4.9,2.7-9.8,3-14.9c0.5-0.9,0.6-1.8,0.1-2.7
		c0,0.9,0,1.9,0,2.8c-1.7,5.1-2.7,10.3-3.7,15.6c-1.2,1.5-1.5,3.2-1.4,5.1c-2,2.5-2.8,5.4-2.9,8.5c-1.5,2.4-2.4,5.1-2.8,7.9
		c-0.4,0.1-0.6,0.4-0.7,0.7c-1.8,4.3-3.1,8.7-5.6,12.7C474.1,541.8,473.7,543.2,474,544.5z M500.5,454.5c-0.9,0.8-0.6,1.7-0.4,2.6
		C500.2,456.3,500.3,455.4,500.5,454.5c0.4-0.7,0.7-1.4,0.2-2.5C500.5,453,500.5,453.8,500.5,454.5z M479.7,499.3
		c0.1,1.2-0.1,2.4,0.4,3.7C480.2,501.7,480.3,500.5,479.7,499.3c-0.2-1.8-0.3-3.6-0.3-5.5C479.4,495.7,478.7,497.6,479.7,499.3z
		 M501.3,450c0.9-6.4,3.1-12.5,4.6-18.8C503.3,437.2,502,443.4,501.3,450z M462.2,527.9c-1.8,5.5,0.6,10.8,0.7,16.3
		C463.1,538.7,461.6,533.4,462.2,527.9z M520,453c-0.9,2.7-2.6,5.2-2.8,8.1C518.6,458.6,520.2,456.1,520,453z M489.1,424.8
		c1.8-1.4,3.6-2.8,3.5-5.4C491.6,421.3,489.9,422.8,489.1,424.8z M464.4,461c-2.1-1.8-3.7-2.8-6-2C460.2,460.5,462.1,460,464.4,461z
		 M482.1,510c-0.3,0.5-0.2,1,0,1.4s0.2,1,0.9,1.1C483.2,511.4,482.5,510.8,482.1,510z M486.7,427.9c-0.5,0.1-1.4,0.3-0.9,1.1
		C486.1,428.6,486.4,428.3,486.7,427.9z M480.8,506.7c0.4-0.6,0.2-1.1-0.1-1.7C480.3,505.6,480.4,506.2,480.8,506.7z"/>
	<path fill="none" d="M563.3,305c-1.4-0.2-2.5,0.5-3.6,1.3c-2.6,1.9-5,4-7.4,6.1c-3.7,3.2-7.2,6.5-10.6,10c-0.8,0.9-1.7,1.7-2.5,2.6
		c-3.5,4.4-7.1,8.6-12.6,11.5c1.4,0.8,2.4-0.2,2.9,0.2c6.8-4.7,13.5-9,19.3-15.7c1.3,4.1-0.5,7.8,1.6,10.7
		c-5.7,14.9-15.5,18.6-27.8,10.9c0.3-1,1.7-0.8,1.9-1.9c0-0.6-0.4-0.9-0.9-0.9c-1.2,0-1.6,1.3-2.9,1.8c-9.1-4.9-15.9-11.9-18.7-22.3
		c-0.5,0.1,0.2-0.7,0.2-0.2c0,0,0.4,0.1,0.6,0.1c-0.2-2.1-0.3-4.3-0.5-6.4c-0.9-7.7,0.7-14.9,3.7-21.9c0.5-1.2,1.1-2.5,2.4-3
		c4.4-2,6.8-6.1,10-9.4c1.3-1.3,2.6-2.3,4.4-2.8c4.4-1.4,8.8-2.8,12.8-5.1c1.4-0.8,2.9-1.2,4.4-1.3c4.8-0.4,9.7,0.3,14.5-0.8
		c1.4-0.3,1.4-2.1,2.7-2.5c0.5,0.1,0.3,0.9,0.9,0.8c4.3-5.2,9.3-9.2,15.6-11.8c1.9,1.2,3.7,2.4,6.3,1.8c-2.8-1.1-5.3-2.3-7-4.8
		c-0.8-1.1-2.2-1.8-3.3-2.7c-0.9-0.6-1.7-1.3-2.3-2.2c-3.7-5.7-8.9-9.5-15.1-12.1c-6.1-2.5-12.3-4.6-16.8-9.3
		c-1.5,0.1-2.2,1-3.2,1.4c-0.7,2.3-1.8,4.4-2.9,6.5c-1.1,2.1-3.4,3.4-3.5,5.9c-2.9,2.1-5.7,4.3-9.2,3.2c-1.3,0.3-0.3,1.1-1,1.6
		c-1.6,0.3-3.1-0.6-4.8-1.1c0.1-1.4,2-0.9,2.2-2.4c-0.8-0.3-1.7-0.1-2.6,0c-3.3,0.2-6.6,0.1-9.8-1.1c-2.1-0.8-4.4-0.7-6.6-1.1
		c-1.3-0.2-2.6-0.5-3.8-0.9c-2.1-0.8-3.6-2.2-3.8-4.7c-0.2-1.8-0.5-3.5-0.8-5.3c-0.4-2-0.2-3.8,1.1-5.3c-0.7-3.7,3.1-22,5.9-28
		c1.7-1.3,3.5-2.4,5.8-2.9c6.1,1.4,12.6,1.6,18.8,3c1.6,0.3,3.8,0,4.1,2.9c-4-0.1-8,0.1-11.9-0.6c-2.1-0.4-4.2-0.7-6.4-0.4
		c-1.7,0.3-3.4,0.1-4-1.3c-3-0.7-4.4,1.7-6.7,2.1c-1,6.1-1.9,12-2.4,18.1c-0.5,5.9,0.2,11.8-0.2,18.4c0.6,1.9,2.7,3,5,3.7
		c5.2,1.6,10.5,2.3,15.8,2c2.3-0.1,4.4,0.3,6.8,0.9c0.7-1.2,2.1-2.2,2.5-4c-0.6-1.8-2-2.4-3.7-2.8c-3.7-0.9-6.9-2.5-8.6-6.2l0.1-0.2
		c3.4-3.1-0.5-5-1.2-7.2c0.1-2.5,2.7-3.1,3.4-5.1c-0.4-0.9-0.8-1.7-1.2-2.5c0.3-2.5,1.5-4.3,3.4-5.6c-0.2-2.4-0.2-2.4,0.6-4.6
		l-0.1,0.1c5.3-0.6,10.4,0.3,15.3,2.1c1.6,0.6,3.2,0.8,4.8,1.4c2.4,1,4.6,2.3,4.9,5.4c2.1,2.2,5,2.6,7.8,3.1c11,2,21.7,5.2,32.2,8.9
		c1.5,0.5,2.8,1.2,4,2.2c1.4,1.1,3.1,1.7,4.8,2.2c4.4,1.4,8.2,3.8,11.9,6.4c1.8,1.3,3.5,2.5,6,2.6c2,0.1,3.9,1.6,6.1,2
		c1.4,0.3,2.7,0.9,4.1,0.9c2,3.3,2.3,6.9,3.4,10.3c0.4,1.3-0.1,2.6-0.4,3.9c-1.2,4.8-4,8.8-7.2,12.5c-8.7,10.3-18.6,19.4-29.9,26.9
		c-2.1,1.4-4.3,2.6-6.2,4c-3.4,2.6-7.4,4.2-10.5,7.1C563.5,304.3,563.4,304.7,563.3,305L563.3,305z M596.3,256.7
		c-2.4,1.2-4.7,2.1-6.8,3.4c-2,1.2-4.7,1.4-6.3,3.3c0.8,1.5,1.9,1.3,2.9,1c4.5-1.4,8.5-3.5,11.7-7c0-1.1,0.2-2.2-0.8-3.1
		C596.8,255.2,596.6,255.8,596.3,256.7z M547.2,280.5c-1.3,3.3-3.6,5.5-5,8.4s-4.4,4.5-6.3,7.7c6.1-3,8.3-8.5,11.4-13.4
		C547.7,282.6,548.2,281.8,547.2,280.5z M609.8,259.5c3.3-2.6,4.1-4.1,3.8-6.8C612.2,255.1,611,257.3,609.8,259.5z M527.2,227.6
		c1.5-0.2,3.2,0,4.3-1.7C529.2,225.8,529.2,225.8,527.2,227.6z M534.4,222.7c1.3,1.1,2.7,1.8,4.9,1.3
		C537.6,223.4,536.3,222.4,534.4,222.7z M578.2,241.5c2,1.1,3.3,2.1,4.9,1.9C582,242.3,580.7,241.6,578.2,241.5z M525.2,220.7
		c-0.8-0.8-1.6-1.7-3.2-1C522.9,220.8,524,220.8,525.2,220.7z M537.9,217.5c0.9,0.4,1.7,1.3,3,0.7
		C539.9,217.4,539.1,216.7,537.9,217.5z M549,309.3c1.6-0.4,2.7-0.7,3.3-2C551.3,307.6,550.2,307.9,549,309.3z M592.4,238.4
		c-0.5-1-1.2-1.8-2.5-1.8C590.6,237.5,591.1,238.4,592.4,238.4z M600.2,269.7c0.9-0.1,1.8-0.1,1.9-1.3
		C601.3,268.6,600.6,268.9,600.2,269.7z M605.7,263.7c-0.6-0.4-0.9,0-1.2,0.4s-0.9,0.8-0.1,1.5C604.7,264.8,605.7,264.7,605.7,263.7
		z M579.8,230c-0.1,1,0.6,1.1,1.4,1.1C581,230.2,580.5,230,579.8,230z M517.5,305.3c0.8,0.6,1.5,0.5,2.3,0.1
		C519,304.7,518.3,304.8,517.5,305.3z M597.6,272.3c-0.8,0-1.2-0.1-1.5,0c-0.4,0.1-0.8,0.3-0.5,0.9
		C596.1,273,596.6,272.7,597.6,272.3z M519.6,227.4c-0.9,0.1-1.4,0.1-1.9,1C518.5,228.4,519.2,228.8,519.6,227.4z M522.1,227.9
		c0.8,0.7,1.2,0.1,1.6-0.5C522.9,227,522.4,227,522.1,227.9z M565.9,235.3c-0.1,0.2-0.2,0.4-0.3,0.6c0.2,0.1,0.4,0.3,0.6,0.2
		c0.1-0.1,0.2-0.3,0.3-0.5C566.3,235.4,566.1,235.4,565.9,235.3z M513.6,228.2c0.6-0.1,1.6,0.1,1.4-1.1
		C514.2,226.9,513.8,227.3,513.6,228.2z"/>
	<path fill="none" d="M563.2,305.1c1-0.4,2-0.8,3.1-1.3c2,1.9,4.1,3.9,6.1,5.9c1,1,1,2.4,1.4,3.6c0.4,1.3,0.4,2.8,1.7,4.5
		c-0.4-5.8-0.6-11.1-3.6-15.9c0.9-1.2,2.4-1.4,3.7-1.9c8.9-3.2,15.9-8.8,22.1-15.8c2.9-3.2,5.8-6.5,9.1-9.5c2.4-2.2,4.4-5.1,5.9-8
		c2.1-4,5.3-7.3,6.6-11.8c2.2,0.6,4.2,1.2,6.1,1.7c1,1.1,1.5,2.2,1.5,3.4c0,4.2,0,8.3-0.1,12.5c-0.1,3.7-2.3,6.2-5,8.2
		c-2,1.4-3.5,3.2-5.1,4.9c-5.7,6.2-11.7,12.2-18.9,16.7c-1.8,1.1-3.5,2.4-5.1,3.9c-3.2,3-7.1,4.7-11.6,5.8
		c-1.4-3.6-3.7-6.9-5.1-10.7c-1.3,1.8-1.1,3.5-0.5,5.3c1.5,5.1,3.2,10.1,3.1,15.6c-0.1,4.4-1,8.4-3.2,12.3c-1.2,2.1-2,4.3-3.1,6.4
		c-1.1,2.2-2.3,4.4-4.2,5.7c-2.2,9-3.3,17.8-5,26.6c-0.6,3.1-1.8,5.9-3.6,8.5c-5.1,7.3-9.8,14.9-13,23.3c-0.4,1-0.9,2-1.6,2.8
		c-5.1,5.8-8.4,12.6-11.2,19.7c-1.2,3-2.2,6-4.6,8.3c-0.3,0.3-0.7,0.7-1.2,0.6c-1.2-1.7,1.3-1.6,1.4-2.6c-1.1-1.5-4.8-4-6.9-4.6
		c-1.1-0.5-0.6-1.8-1.5-2.4c-1-0.3-2,0.1-3.1-0.5c-18.4-9.6-25.8-15.2-34.9-26.6c2.8-5,5.6-9.9,8.8-14.7c-0.3-0.6-0.6-1.1-1-1.7
		c0.3-0.5,0.7-1.1,1.1-1.7c1-1.5,2.7-2.9,1.7-5.1c1.9-2.8-0.1-6,1-8.9c1-2.9,1.4-6,2.1-9c1.1-5,1.5-10.1,1.9-15.2
		c0.5-6.3-0.4-12.5-0.8-18.4c0.3-1.1,1-0.5,1.2-1c-1-6.2,1.1-12.1,1.9-18.1c0.2,2.8,0.4,5.6-0.2,8.5c-1.4,7.5,1.7,13.8,6.3,19.4
		c4.5,5.5,10.1,9.7,16.6,12.7c3,1.4,6.1,1.8,9.4,1.8c7.7-0.1,13.1-4,17.6-9.8c0.6-0.7,1.1-1.6,1.5-2.3c0.5-0.5,1,0,1.4-0.1
		c0.1-0.2,0.2-0.4,0.2-0.7c-0.2-1.9,0.3-3.7,1-5.5c2.1-5.8,3.2-11.7,2-18c1.4-1.6,3.1-2.8,4.8-4.2c0.9-0.7,2-1.4,2.1-2.7
		L563.2,305.1z M520.3,362.3c0.6,1.1,1.2,2.2,2.9,1.9c-0.7-1.2-1.5-2-2.8-2c-4.2-5.2-4.2-5.2-6.5-5.5
		C515.7,359.2,516.9,362,520.3,362.3z M549.8,372.8c-2.8,0.7-5,2.8-7.5,4c-2.6,1.2-5.1,2.6-7.1,5.4
		C542.2,379.5,548.2,375.8,549.8,372.8z M560.8,358.2c-0.9,4.5-4.4,7.3-7.2,11.3C558.3,366.6,561.1,362.1,560.8,358.2z M513.8,411.2
		c-1.6,1.9-1.3,3.8-1.7,5.5c-0.3,1.5-1.5,3.2,0.1,5.1C513,418.3,513.9,415.1,513.8,411.2z M525,365c2.7,1.3,2.7,1.3,5.3,0.9
		C528.9,364.3,527.4,364.3,525,365z M509.6,370c1.6,2.8,1.9,2.9,5.4,2.4C512.8,372,511.8,370.4,509.6,370z M514.4,405.4
		c1.6-1.8,0.2-2.8-0.8-4C514,402.7,514.3,404.1,514.4,405.4z M519.7,347.9c1.2,2,2.8,2.2,4.4,2.4
		C522.8,349.5,522.1,347.8,519.7,347.9z M515.5,344.4c-0.7,0.8-2,1.1-2.2,2.6C515,346.8,515.6,345.9,515.5,344.4z M531.4,355.2
		c1.8,0.9,2.8,2,4.2,0.4C534.4,354.6,533.4,354.5,531.4,355.2z M573.7,323.1c-0.5,1.3-1.3,1.8-0.8,2.9
		C573.5,325.4,574.1,324.9,573.7,323.1z M624,265.4c-0.1-1.9-0.1-1.9-1.2-2.4C622.8,263.9,623.2,264.5,624,265.4z M528,354
		c0.8,1,1.1,1.5,1.8,0.5C529.4,354.1,529.1,354,528,354z"/>
	<path fill="none" d="M446.7,650.3c-0.3,1.3-1.6,1.6-2.3,2.5c-0.9,1.1-2.2,1.9-2.4,3.8c5-0.5,8.2-3.8,11.5-6.8
		c0.7,0.3,1.1,0.7,1.2,1.7c-1.3,3.1-4.9,4.9-6.5,8.5c2.3,0.9,3.9-0.5,5.5-1.4c1.8-0.9,2.7-2.9,4.5-3.9c-0.7,3.1-3,5.4-4,8.6
		c4.2,0.1,6.3-2.1,7.8-5.1c0.9,0.1,1.5,0.5,2,1.2c-1.1,1.6-2,3.3-2,5.5c3.3,1.4,3.5-2,5.3-3.3c4.9,3.8,9.7,8,16.1,9
		c2.3,4.9,0.5,9.4-4.5,11.5c-5.6,2.3-11.5,2.7-17.5,2.2c-2.6-0.2-5.2-0.8-7.7,0c-0.2,0.1-0.5,0.1-0.7,0.1c-5-1.8-10.7-1.4-15.4-4.4
		c-1.2-0.8-2.4-1.4-4-1.3c-0.9,0.1-2-0.1-2.7-0.6c-2.4-1.7-5.6-1.5-8.1-3.1c-1.3-0.8-3.2-0.3-4.8-0.8c-3.8-1.3-7.3-2.9-10.5-5.7
		c-0.5-1.6-0.2-3.4,1-5.1c2.4-3.5,3.1-7.4,3.2-11.5s0.8-8.1,3.6-11.4c0.4-0.4,0.6-1,1.6-0.9c-1,4-0.1,8,0.1,12
		c0.6,1.4,1.8,1.9,3.1,2c3.8,0.4,7.4-0.1,10.4-2.8c0.3-0.3,0.9-0.5,1-0.9c2.4-5.2,7.3-7.5,11.8-10.3c1.2-0.7,1.3-0.6,2.4-2.4
		c2.5,1.2,2.5,1.2,3.9,5.5c-1.4,2.7-4.2,3.9-6.6,5.7c-2.2,1.7-4.3,3.7-6.3,5.8C440.4,653.7,443.3,651.2,446.7,650.3L446.7,650.3z
		 M467,667.5c2.6-1.6,2.6-1.6,1.2-3C467.5,665.3,466.9,666,467,667.5z"/>
	<path fill="none" d="M507.5,227.2c-1.8,1.6-2.2,3.8-2.2,6.1c0,1.4,0.3,2.9-0.7,4.5c-4.7-1.6-10.3-1.2-14.4-5.4
		c0.2-3.3,0.3-6.6,0.6-9.9c0.6-7,0.9-14,2.7-20.9c0.4-1.8,1.1-3.4,2.7-4.6c1.8,1.3,3.9,1.6,6.1,1.3c4.3-0.5,8.5,0.6,12.8,1
		c-0.3,1.7-3.2,0.7-2.6,2.9l0.1-0.1c-2.6,0.9-2.6,0.9-2.2,4.5c-3,2.3-3.5,5.3-2.1,8.8c-1.6,0.6-2.5,1.9-3.3,3.1
		c-1-0.3-2-0.5-2.4-1.3c0.6-2.1,2.8-2.1,4.4-3.9c-4-0.5-5.4,2.1-6.8,3.9c-2.9,0.5-5.3-1.8-8.5-0.2c2.8,1.9,5.7,2,8.4,2.8
		c0.6,1,1.2,2,1.7,3.1c1,2.1,2.2,3.6,4.9,3c0.7-0.2,0.9,0.5,1,1.2L507.5,227.2z"/>
	<path fill="none" d="M552.8,252.9c1-0.9,1.2-2.6,2.7-3.4c1.1,0.9,1.6,2.1,1.1,3.6c-1.1,0.7-2.7,0.1-3.5,1.8
		c-0.3,2.2,1.3,3.8,2.7,5.6c1.4-1.6,0.9-3.3,1.1-5c0.7-1.1,1.8-2.1,1.9-3.9c-1-1.6-1.5-3.9-3.6-5c0.1-0.8,0.4-1.2,1.2-1.4
		c1.3,1.4,2.1,3.3,3.9,3.9c0.3,1.6,0.1,2.7-0.3,4.1c1.4,1.2,1.3,3.3,2.6,4.8c-0.5,1.2-1.5,2.1-2.4,3.2c-1.7,0.2-3.1,1.2-4.7,2.5
		c-2-3.6-4.5-6.8-5.9-10.4c0.3-1.2,0.8-1.9,1.7-2.4C552,251.5,551.5,252.6,552.8,252.9z"/>
	<path fill="none" d="M478,215.8c0.5,2.1,1,4.1,2.4,5.8c-0.4,0.8-1,1.2-1.7,0.8c-7.1-3.3-14.1-6.7-21.2-10.2
		C464.4,212.9,471.4,212.5,478,215.8z"/>
	<path fill="none" d="M544.1,264.1c1.7-2.5,3.7-4.8,4.5-8.1c2.5,3.4,3.1,7.6,6.9,10.5c-5.2,0.9-9.1-1-13.2-1.2
		c-0.9-0.9-1.1-1.7-0.1-2.4C543.4,262.6,543,264,544.1,264.1z"/>
	<path fill="none" d="M473.9,239.3c-2.6-1.3-3.3-3.7-3.4-6.2c-0.3-4.4-2.3-7.9-5.4-10.9c-2.2-2.1-4.4-4.3-6.6-6.5
		c0.1-0.2,0.3-0.4,0.4-0.6c3.1,1.6,6.3,3.2,9.4,4.9c0.5,0.3,1,0.8,1.1,1.3c0.7,3.3,3.1,6.1,2.1,9.9c-0.4,1.4,0.1,3.1,1,4.4
		c0.7,1.1,1.2,2.3,1.6,3.5L473.9,239.3z"/>
	<path fill="none" d="M453.9,210.7c-0.1-0.6-0.2-1.2,0.3-2c1.9-1,4.1-2.1,6.3-3.2c2.2,0.4,4.1,1.2,6.3,2.5c-1.1,0.9-2,1.8-3,2.5
		C460.5,211,457.2,210.6,453.9,210.7L453.9,210.7z"/>
	<path fill="none" d="M430,647.8c-0.1,1-0.4,1.6-1,2.3c-3.2,0.4-6.4,0.4-9.8,0.2c-0.8-3-1.1-5.7-0.8-8.8
		C421.2,647.7,421.2,647.7,430,647.8z"/>
	<path fill="none" d="M483.5,216.1c2-2.5,1.7-3.5-1.5-5.4c1.4-3.6,1.8-3.9,4.6-3.3c-1.1,4.4-1.5,9-2.1,13.9
		c-0.7-1.2-1.8-1.1-2.6-1.6c-0.8-1.1-1.2-2.3-1.6-3.6C481.4,215.4,482.1,216.8,483.5,216.1z"/>
	<path fill="none" d="M564.6,249.5c2.6,0,3.8,2.2,5.9,3.5c-2.7,1.2-4.9,2.2-7,4.4C563,254.3,563.1,251.9,564.6,249.5z"/>
	<path fill="none" d="M509,232.1c2.8,1.7,6.1,2.2,9.1,3.7c-0.1,1.3-0.7,2.1-1.7,2.6c-2-0.2-2.3-2-3-3.3c-1.9,0-1.6,1.7-2.4,2.5
		c-0.6,0.4-1.3,0.2-2.1,0C508.4,235.6,508.6,233.8,509,232.1L509,232.1z"/>
	<path fill="none" d="M533.6,239.9c-1.4-0.2-2.9,0.5-4.1-1.1c1.1-0.9,3-0.1,3.6-1.6c0.5-1.2-0.9-1.8-1-3.2c0.7-1.4,1.5-3.1,2.3-4.6
		c0.8-0.2,1.3,0,1.8,0.8C535.2,233.2,535.1,236.5,533.6,239.9z"/>
	<path fill="none" d="M532.4,245.9c-1.3,1.1-2.3,1.4-3.4,1.8c-2.7-0.5-5.5-1.2-8.5-2.5c3.6,0.2,6.8,0.5,9.7,0.7
		c1.7-1.3,1.6-2.8,1.5-4.3c0.5-0.3,0.9-0.5,1.5-0.2C533.5,242.9,532,244.3,532.4,245.9z"/>
	<path fill="none" d="M481.6,401.3c1.7,2.2,3.4,4.4,5.1,6.6c-0.5,1-1.5,1.1-2.4,1.4c-0.8-0.9,1.2-1.9-0.1-2.8
		c-1.4-0.9-2.3,0.8-3.9,0.5C480.9,405.2,481.3,403.3,481.6,401.3z"/>
	<path fill="none" d="M527.9,239.5c0.4,1.3,1.7,1.6,2.5,2.3c0,0.8,0,1.5-0.6,2.1c-1.1,0.6-2.2,0-3.4,0.1c-1,0.1-2.1,0-3.4,0
		C524.4,242.1,527,241.8,527.9,239.5z"/>
	<path fill="none" d="M512.1,428.4c3.8,0.4,6.7,3,10,4.6C520,433.2,515.3,431.2,512.1,428.4z"/>
	<path fill="none" d="M553.8,320.3c-0.5-0.2-0.9-0.3-1.2-0.4c-0.3-0.2-0.5-0.4-0.8-0.7c-0.1-1.2,0.7-2.3,0.2-3.4
		c0.6-0.9,1.4-1.5,2.5-2.3C555,316.1,553.9,318.1,553.8,320.3z"/>
	<path fill="none" d="M488.3,414.4c-0.4-0.7-0.9-1.3-1.3-2c0.2-0.4,0.4-0.8,0.7-1.2c0.2-0.3,0.5-0.4,0.7-0.6c1.4,0.2,2,1.7,1.5,3.8
		c-0.6,0.3-1.1,0.1-1.7-0.1L488.3,414.4z"/>
	<path fill="none" d="M517.8,199.5c2.5,0.4,5,0,7.6,0.6C523.5,201.7,522,201.6,517.8,199.5z"/>
	<path fill="none" d="M452.3,208.7c-2.8,1.9-5.9,1.3-7.3-1.6C447.3,209.1,449.7,208.2,452.3,208.7z"/>
	<path fill="none" d="M509.1,232c-0.4,0.1-0.9,0.2-1.3,0.2c-1,1.7,0.1,3.6-0.5,5.3c-1-1.1-0.8-3.9,0.5-6.6
		C508.4,231,508.6,231.7,509.1,232L509.1,232z"/>
	<path fill="none" d="M567.8,302.9c3.1,0.7,3.3,0.9,3.9,4.4C570.3,305.9,569.3,304.6,567.8,302.9z"/>
	<path fill="none" d="M505.3,424.5c0.8-0.1,1.6-0.2,2.5-0.3c0.7,0.8,1.1,1.7,1.5,3.2c-1.6-1.1-3.3-1.3-3.9-3L505.3,424.5z"/>
	<path fill="none" d="M502.5,423.7c0.6-1.9,1.8-1.9,3.2-1.2c0.6,0.9-0.4,1.3-0.5,1.9l0.1-0.1c-1.1,0.2-1.9-0.8-3-0.8L502.5,423.7z"
		/>
	<path fill="none" d="M471.8,563.7c0.1-1.8,1-2.8,0.5-3.9c0.7-0.5,1.2-0.4,1.8,0C474.1,561.4,473.1,562.3,471.8,563.7z"/>
	<path fill="none" d="M498.9,420.8c0.2-0.4,0.4-0.8,0.7-1.4c1,0.7,2.3,0.8,2.4,2.5C500.5,422,499.9,420.7,498.9,420.8L498.9,420.8z"
		/>
	<path fill="none" d="M423.7,206.3c-1.3-0.1-2.7-0.1-4-0.2c0-0.1,0-0.2,0-0.3c1.4,0,2.8,0,4.2,0C423.8,206,423.8,206.2,423.7,206.3z
		"/>
	<path fill="none" d="M512,427.6c-1.7-1-2.4-1.6-2.1-2.9C511.2,425,511.5,426,512,427.6z"/>
	<path fill="none" d="M492.5,647.4c0,0.8-0.2,1.6-1.3,2.2C491.3,648.5,491.7,647.8,492.5,647.4L492.5,647.4z"/>
	<path fill="none" d="M446.8,650.3c0.1-0.7,0.8-0.8,1.4-1.3C447.9,650,447.5,650.3,446.8,650.3L446.8,650.3z"/>
	<path fill="none" d="M548.5,239c-0.8,0.3-1.4,0.2-1.5-0.2c-0.2-0.8,0.4-0.6,0.8-0.4C548.1,238.5,548.2,238.7,548.5,239z"/>
	<path fill="none" d="M531.8,236c-0.1,0.5-0.3,0.8-0.6,0.8c-0.4,0-0.6-0.3-0.4-0.7C530.9,235.8,531.2,235.6,531.8,236z"/>
	<path fill="none" d="M536.2,259.4c0.8,1,0.6,1.5,0.3,2.2C535.9,261,536.2,260.4,536.2,259.4z"/>
	<path fill="none" d="M464.2,632c-0.4-0.4-0.3-0.8,0.1-1.3C465.4,631.3,465,631.7,464.2,632z"/>
	<path fill="none" d="M492.1,414.8c1.2-0.7,1.2,0.4,2,0.5C492.9,416.2,492.4,415.8,492.1,414.8z"/>
	<path d="M443.4,579.1c0.5,2.7,0,6.1-1.5,9C441.7,585.1,441.5,582.2,443.4,579.1z"/>
	<path d="M449.6,564.8c0.3,3-1.7,5.3-2.2,8.1C447.2,569.9,448.5,567.4,449.6,564.8z"/>
	<path d="M438.4,597.2c-0.3-1.5-0.4-2.5,0.9-3.3C440.1,595.2,439.6,596.1,438.4,597.2z"/>
	<path d="M438,601c-0.2,1.1-0.8,1.9-1.7,2.6C436.4,601.6,436.4,601.6,438,601z"/>
	<path d="M434.4,609.6c0-1.3,0.2-1.9,1.2-2.1C436.4,608.7,435.5,609,434.4,609.6z"/>
	<path d="M433,614.6c-0.7-1.1-0.7-1.1-0.1-2.1C433.7,613,434.1,613.6,433,614.6z"/>
	<path fill="none" d="M857.8,292.9c0.4,3.8,0.8,7.5,2.7,10.8c-0.2,1.4-0.4,2.7-0.6,4.3c-2.5-1.4-3.9-3.5-4.8-5.7
		c-1.1-2.8-2.9-4.8-4.9-6.9c-0.4-0.4-0.8-0.9-1.4-1.6c5.4-5.4,7.9-12.7,12.7-18.5c2.7-3.3,4.6-7.2,6.2-11.2
		c2.7-6.9,5.5-13.7,8.2-20.5c0.2-0.4,0.3-0.9,1-1c0.5,1.4,0.6,2.8-0.5,3.8c-2.2,2-1.7,4.2-0.7,6.5c1.3,2.9,2.6,5.8,3.3,8.8
		c-0.7,2.1-2.1,1.9-3.6,1.5c-1.2-0.3-2.7,0.5-3.2-1.6c-1.4,3.1-0.7,3.8,3.1,3.8c0.1,1,0.1,2.1,0.2,2.8c-1.3,2.9-4.9,1.2-6.3,3.6
		c1.4,1.5,2.5-0.1,3.6-0.3c1.4,0.6,1.9,1.7,1,2.9c-1.6,1.9-1.9,3.9-1.3,6.3c0.5,2.1-0.4,3.3-2.6,3.9c-3.6,1-7.1,0-10.5-0.9
		c-3.6,1.2-5,4-5.5,7.7c1.7,1.9-0.6,5.3,2.5,7.2C857.4,296.8,856.4,294.5,857.8,292.9L857.8,292.9z"/>
	<path fill="none" d="M921.7,156c3.8-0.6,7,0.5,10.3,0.5c3.1,0,6.2,0.3,9.2-1.3c0.1,3.7-0.2,4.1-3,5.3c-1.3-0.3-1.2-1.6-1.7-2.5
		C931.7,157.2,926.8,157.4,921.7,156z"/>
	<path fill="none" d="M916,160.9c-0.9-0.8-1.4-1.5-1.5-2.6c2.8-0.6,5.7-0.2,8.3-0.2c0.6,0.4,0.7,0.9,0.8,1.3c0,0.3,0,0.7,0,1.2
		C921.1,161.2,918.6,160.7,916,160.9z"/>
	<path fill="none" d="M912.1,160c-0.9-1.3-1.5-2.2-1.3-3.4c0.8-1.2,2-0.8,3.5-0.6C913,156.9,912.9,158.4,912.1,160z"/>
	<path fill="none" d="M917.8,163.1c2.1,0,4.2,0,6.2,0C921.9,163.5,919.8,164,917.8,163.1z"/>
	<path fill="none" d="M945,153.8c0.2-0.4,0.2-0.5,0.3-0.6c0.7-0.4,1,0,1.2,0.6C946,154.6,945.6,154.2,945,153.8z"/>
	<path fill="none" d="M910.1,124.3c1.3,0.6,2.4,0,3.5-0.7l-0.1-0.1c0.3,1.4,0.5,2.7,0.2,4.1C911.3,127.6,911.2,125.4,910.1,124.3
		L910.1,124.3z"/>
	<path fill="none" d="M910.2,124.2c-1.4,0.1-2.7-0.5-4.1-0.8c0-0.8,0.6-1.2,1.3-1.6C908.6,122.3,909.1,123.6,910.2,124.2
		L910.2,124.2z"/>
	<path d="M760,556.9c0.2-4.9,1.4-9.7,3.5-14c3.5-6.9,5.9-14.2,8.6-21.4c0.7-1.9,0.8-3.6-0.1-5.4l-0.1,0.1c0.4,0.2,0.8,0.3,1.5,0.6
		c3.2-8.3,5-17,6.9-26.3c0.3,3.2-0.4,5.7-0.9,8.2c-2.2,10.3-5.4,20.4-9.2,30.3c-1.9,5-3.6,10-6.2,14.8c-2,3.6-2.2,8-3.6,11.9
		C760.4,556.1,760.4,556.5,760,556.9L760,556.9z"/>
	<path d="M791.4,443.8c0-3.7,2-6.9,2.9-10.4C794,437,792.8,440.4,791.4,443.8L791.4,443.8z"/>
	<path d="M776,429c1.5-2.6,3.6-4.6,5.2-7.7C781,424.3,780.2,425.4,776,429z"/>
	<path d="M805.9,462.8c0.1-2.7,1.8-4.9,2.4-7.5C808.9,458.3,807.2,460.5,805.9,462.8z"/>
	<path d="M772.1,516.1c-1.7-2.3-2.5-5-2.8-7.9l-0.1,0.1C770.4,510.8,771.6,513.3,772.1,516.1L772.1,516.1z"/>
	<path d="M768.2,503.1c0-2.7,0-5.5,0-8.2C768.1,497.6,768.4,500.4,768.2,503.1z"/>
	<path d="M750.6,537.6c1.2,2.5,0.5,5.2,0.8,7.7l0.1-0.1C750.3,542.8,751,540.1,750.6,537.6L750.6,537.6z"/>
	<path d="M750.7,537.5c-1.2-2.1-0.4-4.3-0.1-6.5C750.6,533.2,750.6,535.4,750.7,537.5L750.7,537.5z"/>
	<path d="M747.4,461.5c1.4-0.6,2.6-0.5,3.8,0.7C749.6,462.6,748.5,462.3,747.4,461.5z"/>
	<path d="M742.4,537.9c0.1-1.4,0.7-2.5,1.6-3.6C744.3,536,743.1,536.8,742.4,537.9z"/>
	<path d="M788.1,461.6c0-0.6,0-1.3,0-1.9c0.1,0,0.1,0,0.2,0c0,0.6-0.1,1.3-0.1,1.9C788.2,461.6,788.2,461.6,788.1,461.6z"/>
	<path d="M791.3,443.7c-0.1,1.2,0.4,2.6-0.7,3.6l0.1,0.1C790.9,446.2,790.5,444.9,791.3,443.7L791.3,443.7z"/>
	<path d="M769.2,508.2c-0.7-0.9-0.6-1.9-0.3-3.6C769,506.3,769.1,507.3,769.2,508.2L769.2,508.2z"/>
	<path d="M799.1,512.3c-0.4,0.3-0.9,0.6-1.3,0.9c0.3-0.7,0.7-1.5,1.2-2.6C799,511.5,799.1,511.9,799.1,512.3z"/>
	<path d="M789.3,455.2c0.1-0.9,0.2-1.9,0.3-2.8C789.8,453.4,790,454.4,789.3,455.2L789.3,455.2z"/>
	<path d="M790.6,447.3c0,1,0,2,0,3C790,449.3,790,448.3,790.6,447.3L790.6,447.3z"/>
	<path d="M751.4,545.3c0.6,0.7,0.5,1.4,0.2,2.2C751.5,546.7,751.5,546,751.4,545.3L751.4,545.3z"/>
	<path d="M789.2,455.2c0,0.8-0.1,1.5-0.2,2.5C788.5,456.6,788.7,455.9,789.2,455.2L789.2,455.2z"/>
	<path d="M764.6,146c0.4-0.2,0.8-0.5,1.6-0.9C765.5,145.8,765.3,146.4,764.6,146z"/>
	<path d="M751.6,146.8c0.3,0.4,0.1,0.7-0.2,0.9c-0.1,0.1-0.3,0.2-0.8,0.5C751.1,147.5,751.4,147.2,751.6,146.8z"/>
	<path d="M729.8,591.3c0.7-3.7,0.1-6.9,2.2-10C732.5,584.9,731.7,588.4,729.8,591.3z"/>
	<path d="M735.9,575.1c-0.1-2.9,1-5.5,2.3-8C738.1,570,736.7,572.5,735.9,575.1z"/>
	<path d="M726.4,602.7c-0.1,1,0,1.3-0.2,1.6c-0.4,0.7-0.9,1.3-1.5,2C724.6,604.5,724.6,604.5,726.4,602.7z"/>
	<path d="M727.8,595.9c1.1,1.5,0,2.3-0.5,3.8C726.6,598,726.8,597.1,727.8,595.9z"/>
	<path d="M724.5,609.7c0,1.4-0.7,1.7-1.4,2.2C722.8,610.6,723.2,610,724.5,609.7z"/>
	<path d="M721.6,616.9c-1.2-0.7-1.2-1.3-0.4-2.1C722.3,615.2,722.3,615.9,721.6,616.9z"/>
	<path d="M757.2,666.6c1.2,1.8,0.1,2.5-1.1,3.3C755.2,668.2,756,667.5,757.2,666.6z"/>
	<path d="M501.3,450c0.6-6.5,2-12.8,4.6-18.8C504.4,437.5,502.3,443.6,501.3,450z"/>
	<path d="M474,544.5c-0.2-1.4,0.2-2.7,0.9-3.8c2.5-3.9,3.8-8.4,5.6-12.7c0.1-0.3,0.3-0.6,0.7-0.7l-0.1-0.1
		c-0.5,3.8-2.1,7.3-3.8,10.7C476.2,540.2,475.5,542.6,474,544.5L474,544.5z"/>
	<path d="M462.2,527.9c-0.6,5.5,0.9,10.8,0.7,16.3C462.8,538.7,460.4,533.4,462.2,527.9z"/>
	<path d="M488.2,505.9c0.9-5.3,2-10.5,3.7-15.6l-0.1-0.1c-0.2,5.1-1.8,10-3,14.9C488.8,505.5,488.6,505.8,488.2,505.9L488.2,505.9z"
		/>
	<path d="M486.8,510.9c-0.7,2.9-0.8,6.1-2.9,8.5l0.1,0.1C484.1,516.4,484.8,513.4,486.8,510.9L486.8,510.9z"/>
	<path d="M520,453c0.2,3-1.4,5.5-2.8,8.1C517.4,458.2,519.1,455.8,520,453z"/>
	<path d="M481.1,527.4c0.4-2.8,1.3-5.5,2.8-7.9l-0.1-0.1C483.7,522.3,482.7,524.9,481.1,527.4L481.1,527.4z"/>
	<path d="M489.1,424.8c0.8-2.1,2.5-3.5,3.5-5.4C492.7,422,490.9,423.5,489.1,424.8z"/>
	<path d="M464.4,461c-2.3-1.1-4.3-0.6-6-2C460.8,458.3,462.3,459.2,464.4,461z"/>
	<path d="M479.7,499.3c-1-1.8-0.3-3.6-0.3-5.5C479.5,495.7,479.6,497.6,479.7,499.3L479.7,499.3z"/>
	<path d="M453.9,535.2c0.1-1.5,1-2.6,2.1-4.4C455.6,532.9,455.4,534.4,453.9,535.2L453.9,535.2z"/>
	<path d="M488.2,505.8c0.1,1.9-0.3,3.5-1.4,5.1l0.1,0.1C486.8,509.1,487,507.4,488.2,505.8L488.2,505.8z"/>
	<path d="M482.1,510c0.4,0.8,1.1,1.4,0.9,2.5c-0.7-0.1-0.7-0.7-0.9-1.1C481.9,511,481.8,510.5,482.1,510z"/>
	<path d="M479.6,499.4c0.6,1.1,0.6,2.3,0.5,3.7C479.6,501.7,479.8,500.5,479.6,499.4L479.6,499.4z"/>
	<path d="M491.9,490.3c0-0.9,0-1.9,0-2.8C492.4,488.4,492.4,489.4,491.9,490.3L491.9,490.3z"/>
	<path d="M500.4,454.5c-0.1,0.9-0.2,1.8-0.3,2.7C499.9,456.3,499.6,455.3,500.4,454.5L500.4,454.5z"/>
	<path d="M500.5,454.5c0-0.7,0.1-1.5,0.2-2.5C501.1,453.1,500.9,453.8,500.5,454.5L500.5,454.5z"/>
	<path d="M486.7,427.9c-0.3,0.3-0.6,0.7-0.9,1.1C485.2,428.2,486.2,428.1,486.7,427.9z"/>
	<path d="M452.5,537.4c0.3-0.8,0.3-1.9,1.4-2.2l-0.1-0.1C454.2,536.4,453.2,536.8,452.5,537.4L452.5,537.4z"/>
	<path d="M480.8,506.7c-0.3-0.5-0.4-1.1-0.1-1.7C480.9,505.6,481.2,506.1,480.8,506.7z"/>
	<path d="M507.6,227c0-0.6-0.3-1.3-1-1.2c-2.7,0.6-3.9-0.9-4.9-3c-0.5-1.1-1.1-2.1-1.7-3.1c-2.7-0.8-5.6-0.8-8.4-2.8
		c3.2-1.6,5.6,0.7,8.5,0.2c1.4-1.8,2.8-4.4,6.8-3.9c-1.6,1.8-3.9,1.8-4.4,3.9c0.5,0.8,1.4,1,2.4,1.3c0.8-1.2,1.7-2.5,3.3-3.1
		c-1.3-3.6-0.9-6.6,2.1-8.8c-0.4-3.6-0.4-3.6,2.2-4.5c-0.8,2.1-0.8,2.1-0.6,4.6c-1.8,1.3-3.1,3.1-3.4,5.6c0.3,0.7,0.7,1.6,1.2,2.5
		c-0.6,2-3.3,2.6-3.4,5.1C507.1,222,510.9,223.9,507.6,227z M506.7,224.9c0.4-2-0.9-3-1.6-4.3c-0.6,0.5-1.4,0.5-1.9,1.4
		C503.7,223.4,504.7,224.5,506.7,224.9z"/>
	<path d="M596.3,256.7c0.3-0.9,0.5-1.5,0.7-2.4c1,1,0.8,2,0.8,3.1c-3.2,3.4-7.2,5.6-11.7,7c-1,0.3-2.1,0.5-2.9-1
		c1.6-2,4.3-2.1,6.3-3.3C591.6,258.8,593.9,257.9,596.3,256.7z"/>
	<path d="M547.2,280.5c1,1.3,0.5,2.1,0.1,2.8c-3,4.9-5.3,10.3-11.4,13.4c1.9-3.2,4.9-4.8,6.3-7.7C543.6,286,545.9,283.8,547.2,280.5
		z"/>
	<path d="M609.8,259.5c1.2-2.2,2.4-4.4,3.8-6.8C613.9,255.3,613.1,256.9,609.8,259.5z"/>
	<path d="M527.2,227.6c2-1.8,2-1.8,4.3-1.7C530.4,227.6,528.7,227.4,527.2,227.6z"/>
	<path d="M534.4,222.7c1.8-0.3,3.1,0.6,4.9,1.3C537.2,224.5,535.7,223.8,534.4,222.7z"/>
	<path d="M578.2,241.5c2.6,0.1,3.8,0.9,4.9,1.9C581.4,243.5,580.2,242.6,578.2,241.5z"/>
	<path d="M525.2,220.7c-1.1,0.1-2.3,0.1-3.2-1C523.5,218.9,524.4,219.9,525.2,220.7z"/>
	<path d="M537.9,217.5c1.2-0.7,2-0.1,3,0.7C539.6,218.8,538.8,217.8,537.9,217.5z"/>
	<path d="M549,309.3c1.2-1.4,2.2-1.7,3.3-2C551.7,308.6,550.7,308.9,549,309.3z"/>
	<path d="M592.4,238.4c-1.3,0-1.8-1-2.5-1.8C591.2,236.6,591.9,237.4,592.4,238.4z"/>
	<path d="M600.2,269.7c0.4-0.8,1.1-1.1,1.9-1.3C601.9,269.6,601.1,269.6,600.2,269.7z"/>
	<path d="M605.7,263.7c0,1-1,1.1-1.3,1.9c-0.8-0.7-0.2-1.1,0.1-1.5S605.1,263.4,605.7,263.7z"/>
	<path d="M579.8,230c0.7,0,1.3,0.3,1.4,1.1C580.4,231.1,579.7,231,579.8,230z"/>
	<path d="M517.5,305.3c0.8-0.4,1.5-0.5,2.3,0.1C519,305.8,518.3,305.9,517.5,305.3z"/>
	<path d="M597.6,272.3c-0.9,0.4-1.4,0.7-2,1c-0.3-0.6,0.1-0.8,0.5-0.9C596.4,272.2,596.8,272.3,597.6,272.3z"/>
	<path d="M519.6,227.4c-0.4,1.5-1.1,1.1-1.9,1C518.1,227.5,518.7,227.4,519.6,227.4z"/>
	<path d="M522.1,227.9c0.3-1,0.9-0.9,1.6-0.5C523.3,228.1,522.9,228.6,522.1,227.9z"/>
	<path d="M565.9,235.3c0.2,0.1,0.4,0.2,0.6,0.2c-0.1,0.2-0.2,0.5-0.3,0.5c-0.1,0.1-0.4-0.1-0.6-0.2
		C565.8,235.7,565.8,235.5,565.9,235.3z"/>
	<path d="M513.6,228.2c0.2-0.9,0.6-1.3,1.4-1.1C515.2,228.4,514.2,228.1,513.6,228.2z"/>
	<path d="M549.8,372.8c-1.6,3-7.6,6.7-14.6,9.4c2-2.8,4.5-4.2,7.1-5.4C544.8,375.5,547,373.5,549.8,372.8z"/>
	<path d="M560.8,358.2c0.3,3.9-2.5,8.4-7.2,11.3C556.4,365.5,559.9,362.7,560.8,358.2z"/>
	<path d="M513.8,411.2c0.2,3.9-0.7,7.1-1.5,10.7c-1.7-1.9-0.4-3.6-0.1-5.1C512.4,415,512.2,413.1,513.8,411.2z"/>
	<path d="M520.3,362.3c-3.5-0.3-4.7-3-6.3-5.6c2.2,0.2,2.2,0.2,6.5,5.5L520.3,362.3z"/>
	<path d="M525,365c2.4-0.8,3.9-0.7,5.3,0.9C527.7,366.4,527.7,366.4,525,365z"/>
	<path d="M509.6,370c2.3,0.5,3.2,2,5.4,2.4C511.5,372.9,511.2,372.8,509.6,370z"/>
	<path d="M514.4,405.4c-0.1-1.4-0.4-2.7-0.8-4C514.6,402.6,516,403.7,514.4,405.4z"/>
	<path d="M519.7,347.9c2.4-0.1,3.1,1.6,4.4,2.4C522.4,350.1,520.8,349.8,519.7,347.9z"/>
	<path d="M515.5,344.4c0.1,1.5-0.5,2.4-2.2,2.6C513.6,345.5,514.9,345.2,515.5,344.4z"/>
	<path d="M531.4,355.2c1.9-0.6,3-0.6,4.2,0.4C534.2,357.1,533.2,356.1,531.4,355.2z"/>
	<path d="M520.5,362.1c1.3,0.1,2.1,0.8,2.8,2c-1.7,0.3-2.3-0.8-2.9-1.9L520.5,362.1z"/>
	<path d="M573.7,323.1c0.4,1.8-0.2,2.3-0.8,2.9C572.4,324.9,573.3,324.4,573.7,323.1z"/>
	<path d="M624,265.4c-0.8-0.9-1.3-1.5-1.2-2.4C624,263.5,624,263.5,624,265.4z"/>
	<path d="M528,354c1.1,0,1.5,0.1,1.8,0.5C529.1,355.5,528.7,355,528,354z"/>
	<path d="M467,667.5c-0.1-1.5,0.5-2.3,1.2-3C469.6,666,469.6,666,467,667.5z"/>
	<path fill="none" d="M506.7,224.9c-2-0.3-3-1.4-3.5-3c0.4-0.8,1.2-0.8,1.9-1.4C505.7,221.9,507.1,222.9,506.7,224.9z"/>
</g>
</svg>
