<?xml version="1.0" encoding="utf-8"?>
<!-- Generator: Adobe Illustrator 19.1.0, SVG Export Plug-In . SVG Version: 6.00 Build 0)  -->
<svg version="1.2" baseProfile="tiny" id="Layer_2" xmlns="http://www.w3.org/2000/svg" xmlns:xlink="http://www.w3.org/1999/xlink"
	 x="0px" y="0px" width="900px" height="600px" viewBox="144 97 900 600" xml:space="preserve">
<g>
	<path d="M899.9,203.2c1.9-0.7,1.3-2.4,1.5-3.8c1.4-0.1,2.7-0.4,3.1-1.3c1.1-8.2,2.8-15.7,7.8-22.6c-0.6-2.2-0.6-4.8,2-6.8
		c2.1-1.7,2.6-4.8,5.3-5.9c2.6-1.1,4.7-3.1,7.5-4.1c0.1-2.3,0.5-3.6,1.7-4.8c1.9,0,2.2,2.1,3.8,2.9c0.2-1.2,0.3-2.4,0.6-3.6
		c0.3-1.2,0.7-2.4,2.3-2.8c1.2,0.9,0.7,2.2,0.9,3.4c0.2,1.2,0.2,2.4,0.3,3.6c1.3,0.5,2.3-0.3,3.3-0.6c1.8-0.7,3.7-0.8,5.5-1.1
		c5.4-1,9.9,1.1,14.3,3.4c7,3.5,13.4,8.3,20.6,11.5c3.3,1.5,5.3,4.4,7.7,6.7c0.4,0.9-0.6,1.3-0.6,2.1c2,0.4,4.4-0.2,5.5,1.9
		c2.8,0,5.5-1.4,8.1,0.3c-0.7,2-2.7,2.2-2.9,3.7c-1.5,0.6-2.6-0.6-4.1,0c1,1.6,3.3,0.4,4.5,2.4c-3.5,0.2-6,2.7-9.7,3.4
		c3.3,1.1,5.6-1.8,8.7-1.2c-1.7,3.3-4.9,2.7-7.1,3.9c2.3,2.4,5.5,0.6,8.1,1.8c-1.8,2.4-1.8,2.4-16.9,2.7c-1.4,4-1.5,8.3-2.2,12.5
		c-0.7,3.8-2.7,6.4-6.7,7.7c-0.6,4.2-1.2,8.6-1.7,12.9c-0.5,4.2-0.6,4.3-4.9,3.7c-0.5,2-1.1,4-1.6,6.1c-0.2,0.8-0.4,1.5-0.9,2.1
		c-1,1.2-2.9,1.4-3.2,3.2c-0.2,1.5-0.8,2.8-1.7,4.1c2.2,3.5,4.4,7,5.1,11.3c0.9,5.6,0.8,10.9-1.8,16.2c-1.5,3-0.2,6.8-2.3,9.7
		c0.9,1.9,1.6,3.7,2.6,5.4c3.3,5.4,4.2,11.2,2.4,17.2c-2.1,7.2-2.6,14.7-2.5,22.1c0,3.5,1.3,7,2.4,10.4c2.7,8.1,3.7,16.2,3.5,24.9
		c-0.3,12.5-2.8,24.9-3.1,37.4c-0.1,3.8,1.6,7,2.2,10.5c1,5.5,3,10.9,3.2,16.6c0,1.3,0.8,2,2,2.3c3.1,0.6,5.9,2.2,8.9,3
		c2.2,0.5,4.2,2,6.2,3.3c1.5,0.9,0.8,2.7,1.3,4.2c3.9,0.9,5.6,4,6.7,7.6c0.5,1.6,1,3.2,1.5,4.8c3.4,9.7-4,14.6-12.9,14
		c3.7-1.4,7.8-2.2,11-5.6c1-7.2-1.3-14.9-6-18c0.2,2.3,0.3,4.4,0.7,6.4c0.6,2.7,0.2,5.4-0.1,8c-0.2,2.3-1.2,4.4-3.2,5.3
		c-3.2,1.4-4.8,4.3-6.6,6.9c-0.7,1-1.2,2.4-3.5,2.3c0.9-1.4,1.6-2.5,2.3-3.6c2.1-3.2,3.4-6.8,4.9-10.4c0.4-1.1,0.4-2.2,0.1-3.3
		c-0.7-3.2-1.4-6.4-1.6-9.7c-0.1-1.2-0.4-2.4,0.9-4.2c1.8,3.9,1.4,7.6,2.2,11.1c0.9,3.7,0.6,7.1-1.2,10.6c2.4-1.3,4.1-3.2,4-5.8
		c-0.1-4.5,0.1-9.1-1.9-13.3c-0.9-2,0.7-4-0.4-5.9c-7.8-3.4-7.8-3.4-13.4-2.9c-0.9-0.5,0-1.2-0.2-1.9c-2.5-1.8-6.2-1.2-8.9-3.6
		c2-1,3.3,0.9,5.2,0.4c0.1-2.4-0.5-4.8-1.3-7.1c-3.6-11-5.2-22.1-3.9-33.6c0.6-5.2,1.2-10.3,1.6-15.5c0.2-3,0-6,0-9.1
		c-1.4,0.4-1.4,2-2.4,2.7l0.1,0.1c0.4-3.6,0.8-7.1,0.7-10.6c0.2-1,1.4-0.4,1.5-0.9c-0.2-10.2-4.7-19.3-5.1-29.7
		c-1,3.2-0.3,6.6-3.6,7.9c-1.7-0.9-1-2-0.4-2.9c3-4.7,4.1-9.8,4.5-15.3c0.2-3.7,1.3-7.3,2-11c0.5-2.5,0.7-4.9,0.3-6.4
		c-4.2-4.7-4.2-9.8-5.3-14.6c-1.2,1.4-2.5,2.8-3.8,4.3c0.4-3.4,1.6-6.5,3.5-8.9c3.6-4.7,4.5-9.9,4.2-15.4c-0.3-4.6-1.5-9.1-3.9-13.7
		c-1,3-3,4.6-5.6,5.2c-2.4,0.6-4.8,1.3-7.7,0.7c-1.5,10.5-6.1,19.5-12.7,27.9c5.6-1.2,10.5-2.9,15.4-5c-6.3,4.2-13.2,7.3-19.7,11.6
		c-0.2,6.1,1.1,12.4,1.4,18.6c0.6,10.7,1.7,21.3,4.1,31.7c0.6,2.4-0.4,5.6-0.2,8.5c0.1,1.9,0.1,3.7,1.8,5.2c1,0.9,0.7,2.5,0.7,3.8
		c-1.3,0.5-1.1-1-1.9-1.1c-0.1,0.3-0.2,0.6-0.2,0.9c-2,12,0.7,23.5,4.1,35c0.2,0.5,0.4,1,0.7,1.5c3.7,6.2,5.9,12.9,7.2,19.9
		c0.3,1.6,0.7,3.2,1.4,4.8c1,2.2,1.6,4.8-1.2,6.6c1,2.8,0.3,5.2-1,7.6c-1.3,2.3-1.5,4.9-2,7.5c-0.1,0.4-0.2,1,0,1.3
		c2.9,3.8,2.5,9.1,5.8,12.7c3.6,0,5.5-1.6,5.2-5c-0.2-2.6-0.4-5.2-1.3-7.6c-0.4-1.2-1.1-2.6,0.5-3.7c0.5,1.2,0.9,2.3,1.4,3.6
		c2.4,0.2,4.9,0.5,7.4,0.7c-0.5,3.1,0.4,5.9,1.7,8.5c1.7,3.5,1.7,6.9,0.8,10.5c-0.4,1.7-1.3,2.1-2.8,2.5c0.5-2.2,0.5-4.2,0-6
		c0.2-1,1.4-0.4,1.7-1.6c-0.5-4-4.2-7.4-3.2-12.2c-1.7,0.1-3,0.2-4.6,0.3c0.8,3.9,1.3,7.7-1.3,11.1l0.1-0.1
		c-0.7,0.1-1.2,0.4-1.9,0.7c-3,1.6-4.7,1-6.4-1.9c-2-3.4-2.8-7.3-4.7-10.8c-0.8-1.5-0.1-3.9,0.1-5.9c0.1-1,0.3-2,0.5-3
		c-28-4.9-56.4-5.2-84.5-9.3c-0.5,1-1,1.9-1.6,3c2.3,0.3,4.6,0.1,6.8,1.6c-9.4,0.8-18.4,0.2-27.6,0.4c0-1.2-1.3-1.5-2.7-1.3
		c-5.2,0.7-10.1-0.9-14.9-2.5c-2.3-0.8-4.4,0.9-6.6,0c0.4-1.5,2.1-0.9,2.9-1.9c-2.6-2.3-24-4-41.4-3.4c-0.5,5.6-2.9,10.5-6.5,14.8
		c-1.4,1.6-2.5,3.5-3.1,5.6c-1,3.5-4.4,5.2-6.4,7.9c-1.8,2.4-3.4,4.6-3.9,7.7c-1,5.9-2.8,11.6-5.5,17c-0.8,1.7-0.8,3.5-1.3,5.2
		c-1.1,3.6-2.6,7-4.4,10.4c1.2,1,2.5,0.7,3.8,0.7c5,0.2,10.1-0.4,14.8,0.6c9.1,1.9,18.3,2.6,27.3,4.3c10.3,2,20.3,4.8,30.8,6.2
		c9.3,1.2,18.7,2.9,28,4.3c8.7,1.3,17.3,2.7,25.9,4.5c5.5,1.2,11,0,16.5,0.7c15.2,2.2,30.8,2.1,45.8,6.5c3.2,1,6.4,2,9.7,2.8
		c1.9,0.5,3.1,1.6,4,3.3c2.8,5,3.8,10.6,4.8,16.1c1.4,7.9,2.7,15.7,4,23.6c1.3,8.1,2.1,16.3,3.7,24.4c0.6,3-0.5,4.7-3.3,5.7
		c-4.5,1.5-8.8,3.4-13.4,4.4c-7.1,1.5-13.3,5.5-20.2,7.7c-4.7,1.5-9.3,3.2-14.3,5c-2.3,5.1-3.5,10.6-4.4,16.8
		c3.6,0.7,7.3,1.4,10.8,2.2c3.5,0.8,7.3-0.2,10.6,1.8c-0.6,1.4-1.4,1.2-2.2,1.1c-5.4-0.3-10.8-1.1-16-2.6c-1.7-0.5-3.4-0.9-5.4,0.2
		c0.3-7,1.5-13.4,4.3-19.4c0.7-1.6,2.5-2.5,4.3-3.1c5.1-1.8,10.4-3.2,15.2-5.5c9.5-4.4,19.8-6.8,29.6-10.4c1.8-0.6,2.5-1.8,2.2-3.6
		c-3.1-18.9-5.4-37.9-9.7-56.6c-0.2-0.8-0.4-1.5-0.6-2.3c-1.2-4.5-3.6-7-8.4-8.4c-10.5-3.1-21-4.8-31.9-5.4
		c-11.6-0.6-23.1-1.9-34.7-3.1c-5.4-0.6-10.6-2.3-16-2.8c-13.5-1.2-26.8-3.3-40.2-5.4c-6.4-1-12.6-3.2-19-4.5
		c-9.9-2.1-19.9-3.9-30-4.7c-3.7-0.3-7.2-1.6-11-1.8c-5.7-0.3-11.5-0.2-17.4-0.2c-7.3,13-18.1,24.5-21,40.6c4.5-1.3,8.8-1.3,13-2.2
		c4.4-1,8.3,0.3,12.2,2.2c-4.3,0.8-8.3-1.9-12.6-0.7c-4.1,1.2-8.5,0.9-12.8,2.6c-0.9,6.3-1.8,12.6-1.3,19.7
		c11.3-3.1,22.3-4.9,33-8.3c-1-4.5-3.9-8-5.7-12.2c3.3,0.9,6.3,6.2,7.8,13.1c-0.6,1.2-1.9,1.4-3.1,1.8c-6.3,2.1-12.9,3.1-19.3,4.7
		c-4,1-8.1,2-12.2,2.8c-1.7,0.3-2.8,1.1-3,3.2c-2.8-2.1-2.3-5.1-3.7-7.4c-4.1-0.9-8.3-1.2-12.6-1.3c-1.9,0-3.9,0.9-4.6,3.2
		c-0.3,0.9-0.6,1.7-0.9,2.5c-1,3.4-0.7,4.3,2.6,5.8c2.2,1,4.5,1.5,7.1,0.9c2.8-0.7,5.7-1.5,8.7-0.7c1.8,0.5,3.4,1.1,2.5,3.5
		c0.6,0,1.1,0,1.5,0c1.1-2-1.2-4.2,0.4-6.3c2.1,0.4,2.2,2.1,2.5,3.5c1.3,5.8,2.5,11.7,3.5,17.6c0.6,3.5,2,6.4,4.2,9.1
		c2.2,2.7,4.4,5.4,6.9,7.9c4.6,4.6,4.2,9.7-0.7,13.5c-7.9-0.3-15.6,0-23.4-0.9c-2.8-0.3-5.6-0.5-8.4-1.2c-2.5-0.6-5-1.2-6.4-3.8
		c-0.2-0.4-0.8-0.8-1.4-0.9c-4.6-1-6.5-4.7-8-8.5c-1.4-3.2-3-5.5-6.7-6.2c-3.7-0.7-5.6-3.9-7.7-6.9c2.3-3.3,3.5-7.1,4.3-10.9
		c0.4-1.9,1.7-3.4,3.2-4.8c-5.7,0.3-37.3,8.9-38.9,10.6c-3.4-0.3-6.9-0.7-10.3-1.6c-3.4-0.9-6.7-1.8-10.1-3.1
		c2.5-6.4,2.2-13.3,4.2-19.4c1.2-0.8,1.5,0.5,2.4,0.3c7-2,14.2-3.4,21.2-5.4c7.1-2,14.2-4.5,21.6-5.2c4.8-0.4,9.4-1.9,14.1-3.3
		c1-6.7,1.2-13.3,0.5-19.9c-0.8-7.4-0.9-14.8-0.3-22.2c0.5-5.4-0.6-10.8-0.5-16.2c0.3-10.9-0.4-21.9,0.9-33c-2.3-1-4.9-0.9-7.2-1.3
		c-4.5-0.8-9.1-1.7-13.6-2.5c-3.1-0.5-4.5-2.5-5.2-5c-1.6-5.4-1.8-10.9-1-16.4c0.4-3,2.4-4.4,5.4-5.9c5.9-2.8,12.1-4.1,18.3-5.8
		c2.3-0.6,4.6-0.9,7.1,0c0-3.4-1-6.2-1.4-9.2c-0.7-5.6,1-10.8,3.7-15.5c3.2-5.6,7-10.8,13-13.9c3-1.5,4-4.2,3.1-7.1
		c-0.8-2.6,0.1-4.7,1-6.7c1.8-4.3,4.2-8.3,7.5-11.6c0.8-0.8,1.6-1.5,1.7-2.8c1.1-8.7,2.9-17.3,2.7-26.2c-0.2-9.9-1.7-19.7-3-29.5
		c-0.8-6.3-1-12.6,1.2-18.7c0.8-2.2,1.4-4.6,4-5.1c3.2-8.7,8.4-15.6,16.4-20.1c1.9-1.1,3.6-2.4,5.2-3.7c5.1-4.1,10.5-7.8,16.4-10.7
		c3.3-1.6,6.6-3.4,8.9-6.9c-5.1-4.3-9-10.3-16.4-11.9c-2.6-0.5-5.1-1-7.7-0.7c-6.6,0.7-12.9-0.6-19.3-2.6c-6.4-2-12.3-4.8-18.5-7.2
		c-7.7-3-16-3.5-24.2-4.4c-4.5-0.5-8.1,4-8.5,8.7c-0.3,3.3-2,6.4-4.7,9c5-0.2,9.6-1.2,14.5-0.8c-0.1,1.5,0.3,2.7,0.6,3.9
		c1.4,5.9-1.2,8.6-5.9,8.5c-4.3-0.1-8.5,0.4-12.9,1.3c0.2,1.8,0.6,3.5,0.5,5.3c0,3-0.9,3.9-3.9,4.5c-1.9,0.4-3.8,0.4-5.6,1.2
		c-1.9,0.8-3.3-1.1-5.1-0.7c-1.5-2.9-1.6-5.6-1-8.8c-4.6,0.3-9.3,0.7-14,1.1c-1,0.1-2,0.4-3,0.4c-5.2,0.4-7.5-1.6-8.1-6.8
		c-0.3-2.7,1.1-4.6,3.8-4.4c5.9,0.5,11.4-1.3,17-2.1c1.4-0.2,2-1.3,3-2c3.4,2.8,6.9,0.2,10.4,0.6c-1.9-1.6-4-2-6.3-1.6
		c-3.3,0.6-6.7,0.8-10.1,0.6c-2.4-0.1-4.8-0.2-6.2-2.7c-1.4-2.5,0.2-4.5,1.5-6.5c0.3-0.5,0.7-0.9,1.2-1.6c-2-3.4-5.8-6.5-2.2-11
		c-1.7-2.3-2.3-4.4-0.3-6.8c0.7-0.8,0.3-2.2,0.1-3.3c-0.3-1.4-0.1-2.6,0.2-4c0.7-2.9,1.9-5.3,5-5.7c0.7-1.4,0.6-2.6-0.1-3.7
		c-6.9,1.7-13.8,2.5-20.8,2.8c-3.7,0.2-3.6-1.3-4.8-5.6c-0.7-2.5,1-3.5,2.9-4.1c4.7-1.5,9.4-2.3,14.3-2.2c2.1,0,4.3-0.1,6.4-1.1
		c0.3-2.3-0.5-4.7,0.6-7.2c3.8-0.8,7.5-2.4,11.7-1.6c1.8,2,1.1,4.8,2.2,7.2c6.3-1.3,12.7-1.2,19.1-1.8c4.7-0.5,6.1,1.2,5.3,5.8
		c-0.1,0.8-0.4,1.5-0.7,2.5c-7.2,1.2-14.3,2.6-21.8,2.9c0,1.5,0,2.8,0,4.2c1.5,0,3,0,4.4,0c3.3-0.1,6.5,0.1,9.6,1.5
		c2.7,1.3,5.5,1.1,8.5,0.7c9.7-1.4,19.4-2.7,29.1-4.2c2.8-0.4,5.3,0.6,8,0.8c9.2,0.6,18.5,0.8,27.3,4c2.8,1,5.6,0.9,8.3,0.2
		c3.2-0.7,6-0.2,8.8,1.1c3.5,1.6,7.2,2.4,11.2,1.6c4.4-0.8,8.9-1.6,13.3-2.1c12-1.5,24.1-2.1,35.3,4.2c3.2,1.8,6.9,2.7,10.1,4.7
		c1.5,0.9,3.7,0.7,5.8,1c0.7-2.5,2.7-2.7,4.8-2.6c12.6,0.4,25.2,0.8,37.3,4.9c1.8,0.6,3.3,1.8,5.1,2.5c4.8,1.8,9.7,2.9,14.6,4.2
		C897.4,200.4,899.9,200.5,899.9,203.2c-0.8,0.9-1.6,1.4-2.9,1.1c-7.2-1.3-14.5-2.3-20.9-6.3c-2.1-1.4-4.7-1.4-7.1-2.2
		c1.3,1.1,2.7,2.3,3,3.8c1.4,6.3,5.5,11.3,7.6,17.3c0.9,2.6,1.8,5.1,1.6,7.9c-0.5,7.7,1.3,15.5-1.2,23.2
		c-2.3,7.1-5.7,13.6-10.2,19.3c-4.3,5.3-10.7,6.7-17.3,7.5c-5.1,0.6-10.1,0.5-15-0.2c-7.3-1.1-14.1-3.9-20-8.5
		c-3.5-2.8-6.7-6.1-9.7-9.4c-3.2-3.4-3.4-8.2-4-12.7c-0.1-1,0.4-2.2-0.8-3.2c-1.1,1.4-0.6,2.7-0.4,4c0.9,5.7,2.9,11.1,5.2,16.4
		c0.3,0.6,0.6,1.2,0.8,1.9c0.5,1.2,0.8,2.5-0.7,3.2c-1.4,0.7-2.3-0.3-3.1-1.4c-0.5-0.6-0.8-1.3-1.2-2c-3.1-6.2-5.5-12.6-6.4-19.5
		c-0.4-3.2-2-4.9-5.2-5.1c-2.3-0.2-4.2-1.8-6.6-1.4c-1.4,1.1-1.1,2.5-1,4c0.5,7.2,1.9,14.3,2.5,21.5c0.1,1.8,0.7,3.6-1.4,4.7
		c-2.1-0.2-2.4-1.9-2.7-3.4c-1.2-6.8-2.4-13.5-2.9-20.4c-0.1-1.7-0.3-3.4-0.7-5c-0.7-2.7-2.7-3.3-4.7-1.4c-0.2,0.2-0.3,0.3-0.5,0.5
		c-1.1,1.2-1.6,3.4-3.8,2.5c-2-0.9-0.5-2.8-0.7-4.2c0-0.2-0.1-0.4-0.3-0.7c-1.4-0.9-2.5,0-3.6,0.7c-6,4.2-12.1,8.3-18.1,12.5
		c-3.6,2.5-3.5,3.1-2.4,7.4c1.1,4.3,2.3,8.5,3.9,12.6c1.6,3.8,3.3,7.6,6.1,10.5c-0.3-1.2-0.2-2.8-0.5-4.3c-0.2-1.1-0.2-2.1,1-2.6
		c1.2-0.5,2.2,0,2.9,1c2,2.9,2.9,6.2,2.3,9.7c-0.6,3.7,1,5.9,3.9,7.8c3.7,2.5,7.8,4,11.9,5.6c3.6,1.4,7.1,2.8,10,4.3
		c-2.8-1.8-7.3-2.5-8.2-7.3c0.1-0.3,0.3-0.6,0.6-0.8c1.6-1,2.8,0.1,4,1c3.6,2.6,7.2,5,11.1,7.1c5.3,2.9,11,3.9,17.1,3.6
		c-7.9-3.9-14.9-9.1-20.8-15.5c-0.6-0.7-1.3-1.3-1.8-2c-0.8-1-1.2-2.1-0.2-3.1c1-1,2.1-0.6,3,0.2c2.3,2,4.5,4.1,6.8,6.1
		c3.7,3.1,7.7,5.9,12,8.2c11.3,6.2,23.2,8.2,35.9,5.6c3.9-0.8,7.8-1.3,11.7-1.2c2.3,0.1,4.1-1.1,6.1-1.8c6.6-2.4,13.2-4.4,20.4-2.7
		c11.3,2.6,22,0.2,32.7-3.7c7.1-2.6,11.9-6.7,14.5-13.8c2-5.5,5.1-10.5,6.7-16.2c0.4-1.4,1-2.8-0.1-4.1c-1.8-0.5-2.2,0.9-2.8,1.9
		c-5.8,10.1-13.5,17.7-24.3,23c-8.3,4.1-17,5.7-25.8,7.4c-3.2,0.6-6.3-0.5-9.4-0.9c-1.4-0.2-2.1-1.1-2.3-2.6
		c-0.3-2.4-0.6-4.9,0.1-7.3c2.6-8.8,4.2-18,5.9-26.9c2.3-12.3,8-23.1,12.1-34.6c1.1-3,3.5-5.2,5.5-7.7c0.8-1,1.6-1.9,1.1-3.3
		C897,206.4,898.1,204.7,899.9,203.2z"/>
	<path d="M369.5,441.6c-0.3-1.6-1.2-2.3-2.8-2.1c-5.2,0.7-10-0.9-14.9-2.4c-2.3-0.7-4.4,0.4-6.6,0.3c0.2-1.9,2.3-0.9,3-2.8
		c-13.7-3-27.6-2.1-41.6-2.9c-0.4,6-3.1,11-6.8,15.5c-1.2,1.5-2.2,3.1-2.7,5c-1,3.6-4.5,5.4-6.5,8.2c-1.7,2.3-3.2,4.5-3.8,7.4
		c-1,5.9-2.7,11.6-5.5,17c-1,1.9-0.9,4.2-1.6,6.2c-1.1,3.3-2.5,6.5-4.3,10c1.6,0.1,2.9,0.2,4.1,0.2c13.9-0.1,27.5,2.7,41.1,4.9
		c8.9,1.4,17.5,4.2,26.4,5.5c11.6,1.7,23.1,3.9,34.7,5.3c9.4,1.1,18.6,3.4,27.9,4.9c2.1,0.3,4-0.3,6-0.2c8.7,0.2,17.2,1.9,25.9,2.5
		c8.8,0.6,17.4,1.9,25.9,4.2c3.4,0.9,6.7,2.1,10.1,2.9c2.5,0.6,3.8,2.1,4.9,4.2c3.1,6.3,3.9,13.1,5.2,19.9c2.8,14.2,4.3,28.7,6.8,43
		c0.3,1.8-0.1,3.3-1,5.6c-16.7,4.9-33.1,11.9-50.2,17.8c-2.2,5.1-3.4,10.6-4.3,16.7c3.7,0.7,7.4,1.4,11.1,2.3
		c3.4,0.8,7.2-0.3,10.5,1.9c-1,1.5-1.9,1-2.8,0.9c-5.6-0.4-11.2-1.4-16.6-2.8c-1.2-0.3-2.6-1.2-3.9,0.8c-0.7-3.6,0.3-6.4,0.6-9.2
		c0.3-2.7,1.4-5.2,2.1-7.8c0.8-3,2.8-4.6,5.6-5.8c3.9-1.7,8.1-2.6,12.1-4.3c10.4-4.5,21.3-7.7,32.1-11.3c2-0.7,3-1.8,2.6-4
		c-2.8-16.7-4.9-33.4-8.3-50c-0.8-4.1-1.7-8.1-3.3-12c-1-2.3-2.5-3.5-4.8-4.3c-11.7-4-23.8-5.9-36.1-6.3c-5.2-0.2-10.3-1.4-15.5-1.4
		c-11.4-0.1-22.3-3.1-33.4-4.3c-13.1-1.4-26.2-3.3-39.2-5.3c-7-1.1-13.7-3.4-20.6-4.8c-9.7-2.1-19.5-3.7-29.4-4.5
		c-3.8-0.3-7.4-1.7-11.3-1.8c-5.5-0.2-11,0-16.8-0.2c-7.4,13.1-18.1,24.6-21.1,40.6c5.2-1.3,10-1.6,14.8-2.4
		c3.7-0.6,7.1,0.8,10.4,2.5c-4.2,0.6-8.1-1.9-12.4-0.8c-4.1,1.1-8.5,0.9-12.7,2.4c-1.7,4.7-2.4,17-0.9,19.8
		c10.6-3.2,21.7-4.6,32.2-8.3c-1.2-4.4-3.8-7.9-5.7-12c3.2,0.7,6.2,5.8,7.8,13.4c-11.7,4.3-24.3,5.8-36.3,9.2
		c-1.1,0.2-0.7,1.8-2,2.2c-2.1-1.8-1.7-4.7-3-6.9c-4-1.1-8.2-1-12.3-1.4c-1.9-0.2-3.9,0.7-4.8,2.8c-0.1,0.2-0.2,0.4-0.2,0.6
		c-0.5,2.1-2.6,4.4-0.8,6.3c2,2.2,4.9,3.4,8.1,3c3.3-0.4,6.6-1.7,10-0.9c1.9,0.4,3.5,0.9,2.7,3.5c0.6,0,1-0.1,1.4-0.1
		c1-2-1-4,0.3-6.1c2.2,0.2,2.3,2,2.6,3.4c1.2,5.7,2.5,11.4,3.5,17.2c0.7,4.2,2.6,7.7,5.3,10.7c2,2.3,3.9,4.7,6,6.8
		c4,4,3.8,8,0.6,12.1c-0.6,0.8-1.4,1.4-2.6,1.3c-9.6-0.5-19.3-0.2-28.9-1.9c-3.2-0.6-6.5-1.1-8.3-4.3c-0.2-0.3-0.7-0.6-1.1-0.7
		c-4.7-1.1-6.6-4.9-8.2-8.7c-1.3-2.9-2.7-5.2-6.2-5.8c-3.8-0.7-5.9-3.8-8.1-7.1c2.3-3.3,3.4-7.2,4.4-11.1c0.4-1.8,1.5-3.2,3.2-4.6
		c-5.8,0.3-37.3,8.8-39.2,10.5c-6.9-0.3-13.4-2.3-20.1-4.6c2.5-6.4,2.2-13.2,4-19c20.3-3.9,39.4-11,59.4-13.5
		c0.9-7.1,1.3-13.6,0.6-20.1c-0.9-7.6-0.7-15.2-0.4-22.9c0.3-6.7-0.7-13.5-0.4-20.3c0.4-9.5-0.6-19.1,1-28.9c-7-1-13.7-2.2-20.5-3.4
		c-3.4-0.6-5.1-2.6-5.9-5.6c-1.4-5.2-1.6-10.5-0.9-15.8c0.5-3.1,2.4-4.6,5.6-6.1c5.7-2.7,11.7-4,17.6-5.6c2.4-0.6,4.8-1.4,7.4,0
		c0.7-2.3,0-4.2-0.5-5.9c-1.9-6.4-0.4-12.4,2.5-17.9c3.1-5.9,7-11.2,13.1-14.7c3.9-2.2,4.4-3.9,3.3-8.2c-0.6-2.1,0.4-3.8,1.1-5.4
		c1.9-4.4,4.1-8.5,7.6-11.9c1.2-1.2,1.7-2.5,1.9-4.1c1-7.5,2.5-14.9,2.5-22.5c0.1-10.8-1.6-21.5-3-32.2c-0.8-6.7-0.9-13.3,1.7-19.6
		c0.7-1.8,1.4-3.6,3.7-3.7c3.4-11.9,12.7-18.5,21.6-24.5c0.8-1.6,0.5-2.6,0.4-3.6c-0.4-3.5-0.5-6.9,0.2-10.4c0.8-4.6-0.5-9.2-1-13.8
		c-0.3-2.9-0.1-5.8,1.4-8.2c2.8-4.5,6.8-7.5,12.1-8.6c1.9-0.4,3.8-0.7,5.7-1c2.2-0.4,4.4-0.8,6.4-2c2.3-1.4,4.9-1.6,7.5-2
		c5.7-0.9,11.4-1.6,17-2.5c2.6-0.4,5.1-0.4,7.7,0.4c3.1,0.9,6.4,1.3,9.5,2.4c7.2,2.5,14.4,5.2,21.5,8c2.8,1.1,5.6,1.8,8.5,1.9
		c2.2,0.1,3.7-1.6,5.3-2.6c5-3.2,10.3-5.2,16.2-6.1c8.8-1.3,17.5-1.1,25.9,2.2c0.4,0.2,0.9,0.4,1.3,0.3c6.2-0.4,12.3,1.8,18.5,1.6
		c2.7-0.1,5.3,0.7,7.6,2.4c1.6-0.5,2.2-1.5,2.6-3.3c1.2-5.8,3.5-11.2,6.8-16.1c0.7-1.1,1.5-2.2,2.8-2.5c-0.3-2.8-0.3-5.5,2.2-7
		c2.4-1.4,3.1-4.3,5.8-5.5c1.2-0.5,2.3-1.5,3.7-1.4c1.5,0.2,1.3-1.2,2-1.9c0.8,0.1,1.7,0.1,2.4,0.2c0.8-1.7,0.2-3.8,1.9-5
		c2.3-0.2,2.2,2.4,4,3.1c0.7-2.1,0.5-4.8,3.3-6c1.5,2.3,0,4.9,0.8,7.1c0.6,0.4,1.2,0.4,1.7,0.2c3-1.2,6.1-0.7,9.2-0.9
		c4.6-0.3,7.8,2.4,11.3,4.5c7,4.3,13.1,9.9,20.1,14.2c3,1.8,4.6,4.9,6.7,7.3c0.1,0.9-0.8,1.2-1,2c2.5,0.1,4.4,1.8,6.7,2.4
		c2.1,0.5,4.7-0.9,6.5,1.3c-0.6,1.9-2.8,1.7-3.1,3.2c-1.6,0.5-2.8-0.7-4.3-0.4c1.1,1.6,3.1,1.1,4.5,2.8c-3.6,0.2-6.4,2.1-9.9,2.6
		c3,1.4,5.4-1.1,8.6-0.6c-2.1,3.3-5.2,2.5-7.7,3.3c2,2.7,5.5,1.3,8,2.8c-2.2,2.2-2.2,2.2-17.2,0.8c-1.8,4.1-2.5,8.6-3.7,12.9
		c-0.9,3.2-3.8,5.7-7.2,6.1c-1.3,5.4-2.7,10.8-3.9,15.9c-1.7,1.3-2.9,0.3-4.4,0.1c-0.7,1.6-1.4,3.2-2,4.9c-0.6,1.9-1.4,3.4-3.5,4.2
		c-2.2,0.9-1.6,3.9-3.5,5.2c3.1,5,2.4,10,0.1,14.9c-1.7,3.5-1,7.5-2.3,11.1c-0.4,1.2,1,3.1,1.9,4.6c3.8,6,4.4,12.4,2.4,19.1
		c-2.1,6.9-2.2,14-2.2,21.1c0,3.4,1.3,6.8,2.5,10.1c2.7,8,3.7,16,3.5,24.5c-0.3,12.5-2.8,24.9-3.1,37.4c-0.1,2.7,0.8,5,1.4,7.5
		c1.6,7,4.1,13.8,4.1,21.2c2.8,1.1,5.4,2.5,8.1,3c3,0.6,5.3,2.4,8,3.4c2.3,0.9,2,3,2.2,4.9c3.9,1,5.6,4,6.8,7.4
		c0.7,2.2,1.5,4.5,2,6.8c1.2,5.2-0.2,8.4-4.9,10.8c-2.6,1.4-5.3,2.6-8.5,1.6c3.8-1.5,7.8-2.3,11-5.5c1.1-7.3-1.2-15-5.7-18.2
		c-0.4,1.3,0,2.4,0.2,3.6c0.5,3.6,1,7.1,0.3,10.7c-0.4,2.2-1.2,4.4-3.2,5.3c-3.4,1.5-4.9,4.4-6.8,7.1c-0.7,1-1.1,2.3-2.9,2.1
		c0-1.2,0.9-2,1.5-2.9c2.3-3.4,3.8-7.2,5.3-10.9c0.5-1.2,0.4-2.4,0.1-3.6c-0.7-3.2-1.4-6.4-1.5-9.7c-0.1-1-0.5-2.2,0.7-3.3
		c2.3,1.8,1.4,4.5,2,6.7c0.6,2.3,0.7,4.7,1.1,7c0.4,2.7-1.3,4.7-2,7.9c2.7-2,4.5-3.9,4.4-6.8c-0.2-4.5,0-9.1-1.9-13.3
		c-0.9-1.9,0.7-3.8-0.4-5.8c-4.3-1.1-8.1-5.2-12.9-2.5c-1.4-0.6-0.5-1.3-0.5-2c-2.6-1.9-6.3-1.2-9-3.6c1.9-1.1,3.3,0.9,5.1,0.3
		c0.1-2.4-0.6-4.7-1.2-7c-2-7.6-4.5-15.1-4.3-23.2c0.1-6.1,0.4-12.2,1.3-18.2c0.8-5.6,1-11.2,1-16.8c-0.8-0.2-1,0.5-1.8,0.7
		c-0.9-3,0.5-6-0.2-8.9c0.7-0.3,1.2-0.5,1.7-0.7c-0.1-10-4.8-19.2-5.2-29.2c-0.8,2.7-0.1,6.3-3.9,7.5c-1.4-1.6-0.3-2.7,0.3-3.6
		c2.7-4.2,3.8-8.8,4-13.7c0.2-4.1,1.3-8,2.2-12c0.4-1.8,0.7-3.6,0.4-5.4c-0.2-1,0.3-2.4-1.6-2.4c-0.2,0-0.5-0.4-0.6-0.7
		c-1.6-3.9-2.4-8-3.2-12.2c-1.5,0.9-2.3,2.8-3.6,4.2c-0.3-0.1-0.5-0.3-0.8-0.4c1.4-3,2.5-6.3,4.4-8.9c3.9-5.2,4.3-10.9,3.6-17.2
		c-2.5,4.9-6.9,5.1-11.3,5c-4.8-0.2-7.5-4.2-11.1-7c-2.8,9.5-7.4,18.1-11.9,26.9c0.8,0.4,1.4-0.5,2.1-0.9c3.1-1.5,6.2-3.2,9.7-3.5
		c2-0.2,3.4-1.7,5.1-2.4c1.1-0.4,2.2-0.8,3.5-0.9c-6.5,4.2-13.7,7.3-20.1,11.7c-0.1,6.4,1.2,12.6,1.5,18.9
		c0.5,10.6,1.6,21.1,4.2,31.4c0.5,1.9-0.6,4.5-0.3,6.9c0.3,2.5-0.2,5.1,2.1,7.1c0.9,0.8,0.6,2.3,0.5,3.5c-1.2,0.2-1.2-0.9-1.6-1.4
		c-0.2,0.2-0.4,0.3-0.4,0.5c-2.1,12.3,0.5,24,4,35.6c0.3,1.2,1.1,2.2,1.7,3.3c2.6,4.8,4.4,9.9,5.6,15.2c0.7,2.8,1,5.7,2.2,8.4
		c0.9,2.1,1.3,4.5-1.4,5.8c1,2.9,0.3,5.4-1,7.7c-1.3,2.3-1.5,4.9-2,7.5c-0.1,0.4-0.2,1,0,1.3c2.8,3.8,2.5,8.9,5.6,12.5
		c3.7,0.4,5.7-1.3,5.4-4.8c-0.2-2.6-0.4-5.2-1.3-7.6c-0.4-1.1-0.9-2.3,0.5-3.6c0.5,1.2,1,2.2,1.5,3.4c2.4,1.1,5,0.3,7.6,0.9
		c-0.9,2.7,0,5.2,1,7.4c2,4.2,2.5,8.4,0.6,13.2c-0.2,0.2-1,0.6-2.1,0.6c0.2-2,0.7-3.9,0-5.3c-0.1-1.5,1-1.2,1.6-1.8
		c-0.2-4.2-4.2-7.5-3.1-12.3c-1.6,0-2.9,0-4.3,0c-0.4,1.5,0.3,2.9,0.3,4.3c0.1,2.2,0,4.5-1.7,6c-3.8,3.2-6.7,3.4-9-1.6
		c-1.4-3.2-2.2-6.6-4.1-9.6c-0.7-1.1-0.2-3-0.1-4.6c0.1-1.4,0.4-2.9,0.6-4.5c-28-4.9-56.4-5.2-84.2-9.3c-0.9,0.8-1.1,1.7-1.4,2.6
		c1.8,1,4.2,0.3,6.4,2.1c-8,0.3-15.3,0.4-22.7,0.1C372.7,440.7,371,440.8,369.5,441.6L369.5,441.6z"/>
	<path d="M966.7,480c-6.7,2.7-12.9,5.6-20.1,3.8c5.7-1.1,11.3-2.8,17.1-4.1c-0.6-3.6-3.9-6.8-0.6-10.8c1,2,0.1,3.6,0.2,5.2
		c0,1.8,0.7,3,2.3,4c2.2-2.7,3.7-5.4,4.8-8.7c1.9-5.7,0.8-10.8-1-16.2c-1.4-4.2-1-5.6,0.7-8.6c0.4,2.8,0.4,5.4,1.1,7.8
		c0.1,0.4,0.2,0.9,0.3,1.3c3.7,9,1.6,17.3-3.5,25.1c3.6-0.2,5.8-2.1,7-5c2.7-6.8,4.3-13.6,1.6-20.9c-0.6-1.6-0.8-3.7,0-5.4
		c1-0.1,1.2,0.4,1.3,1c0.8,4.4,1.6,8.9,2.3,13.3c0.2,1.3-0.2,2.5-0.5,3.6c-1,3.3-2.1,6.6-3.3,9.9c-0.8,2.2-1.9,4.1-4.6,4.4
		c-0.9,0.1-1.6,0.7-2.5,1.5c0.7,5.8,2,11.6,2.1,17.6c0.2,8.8,2.8,17.3,2.7,26.1c-0.1,7.9,1.1,15.9,1.8,23.8
		c0.8,8.1,1.7,16.1,2.5,24.2c0.5,5.1,2.4,9.8,3.3,15c5.2-1.5,10.1-2.9,15.1-4.2c4.8-1.2,9.1-4.1,14.4-3.5c-2.4,2.7-6.1,2.5-9.1,3.9
		c-3.1,1.4-6.4,2.1-9.7,3c-3.3,0.9-6.7,1.8-10.1,2.7c0.2,3.1,1.6,5.8,1.5,8.7c-1.4,0.9-2,0.2-2.3-0.9c-0.5-1.6-0.8-3.3-1.2-4.9
		c-2.5-10-4.8-20.1-5.5-30.5c-0.6-8.8-1.6-17.5-2.4-26.2c-0.3-3-0.2-6-0.3-9c-0.6-14.3-3.8-28.4-4.5-42.7
		C967.8,482.4,967.3,481,966.7,480z"/>
	<path d="M500.8,483.5c2.3-2.7,4.4-5.5,4.5-9.2c0-0.7,0.2-1.4,0.4-2c1.3-3.2,1.5-6.2-0.2-9.6c-1.5-3-2.3-6.6-1.6-10.2
		c0.1-0.7,0-1.6,1.3-2c0.3,5.5,2.4,10.5,3.2,15.7c0.7,4.6-0.6,9.6-2.9,14c-0.7,1.5-1.7,2.8-2.3,4.4c3-1,5.6-1.9,7-5.6
		c2.3-6.7,4-13.2,1.5-20.3c-0.6-1.7-0.9-3.8,0-5.7c1.1,0,1.2,0.6,1.3,1.2c0.7,3.7,1.2,7.3,2,11c0.6,2.8,0.1,5.3-0.9,7.9
		c-0.8,2.1-1.5,4.3-2.1,6.4c-0.9,2.9-2.1,5.5-5.6,6c-0.6,0.1-1.2,0.6-2,1.1c0.7,5.6,1.7,11.3,1.9,17c0.3,9.1,2.9,17.9,2.9,27.1
		c0,7.9,1.1,15.9,1.8,23.8c0.8,8.1,1.7,16.1,2.5,24.2c0.5,5,2.4,9.6,3.3,14.8c5.1-1.5,10-3,14.9-4.2c4.9-1.2,9.3-4.2,14.6-3.4
		c-9.3,4.3-19.2,6.7-28.9,9.6c0.1,3.2,1.9,6,1.2,9c-2.1,0.3-2.1-1.2-2.4-2.3c-3.5-13.7-6.4-27.6-6.9-41.8
		c-0.2-5.8-0.9-11.7-1.7-17.5c-0.4-3.5-0.3-6.9-0.4-10.4c-0.6-14.1-3.8-27.9-4.4-42c-0.1-1.8-0.6-3.5-1.2-4.9
		c-6.4,3.1-12.8,5.6-20.2,4c5.7-1.1,11.2-2.7,17.1-4.1c-0.7-3.6-3.7-6.9-0.6-10.3c1.1,2.3-0.6,4.9,0.9,7.1
		C499.3,482.7,499.7,483.3,500.8,483.5z"/>
	<path d="M287.3,469.2c2-1.2,3.9-0.9,5.7-0.6c14.3,1.9,28.7,2.2,42.8,5.2c3.8,0.8,7.9,0.3,11.8,0.5c9.8,0.6,19.4,2.9,29.1,3.8
		c9.1,0.9,18.2,0.9,27.3,2.4c5,0.8,10.1,0.8,15.1,1.4c5.1,0.6,10,2,15.2,2.4c12.9,0.9,25.7,2.8,38.7,2.6c2.4,0,4.8,0.3,7.5,1
		c-1.1,1.2-2.1,0.9-3.1,0.8c-6.2-0.6-12.4-0.4-18.6-0.7c-9.7-0.4-19.5-0.2-28.9-2.2c-12.8-2.7-25.7-2.9-38.5-4.6
		c-5.8-0.8-11.7-0.1-17.5-0.9c-3.7-0.5-7.4-1-11-1.6c-13.8-2-27.7-3.2-41.6-5c-10.3-1.4-20.7-2.7-31.2-3.1
		C289.2,470.6,288.1,470.8,287.3,469.2z"/>
	<path d="M752.3,463.6c1.5-1.3,3.3-1,5-0.8c6.8,0.7,13.6,1.9,20.4,2.3c7.7,0.4,15.2,1.7,22.7,3c4.9,0.8,9.9,0.4,14.8,0.8
		c10,0.8,19.8,3.2,29.8,4.1c0.8,0.1,1.6,0.3,2.3,0.3c9.6-0.4,19,1.8,28.6,2.4c11.5,0.8,22.9,2.9,34.4,4c9.9,1,19.8,0.5,29.6,1.7
		c1.7,0.2,3.5,0,5.7,1.4c-3.7,0.6-6.8,0.2-9.9,0c-2.4-0.2-4.7-0.4-7.1-0.3c-11.3,0.4-22.4-1.5-33.7-2c-2.1-0.1-4.2-1-6.2-1.4
		c-8.5-1.8-17.3-1.5-25.8-2.7c-8.7-1.3-17.5-0.4-26.3-1.8c-10.2-1.7-20.5-3-30.8-3.7c-4.2-0.3-8.3-1-12.4-1.8
		c-9.1-1.7-18.4-1.4-27.5-2.9c-4-0.7-8-0.7-12.1-1.1C753.3,464.8,752.6,464.6,752.3,463.6z"/>
	<path d="M461.4,641.7c1.2-1.8,3.2-2,4.8-2.3c5-0.7,9.6-2.3,14.3-3.8c6.3-2,12.7-3.6,19-5.8c11.8-4.1,23.5-8.5,35.7-11.5
		c6.9-1.7,13.3-4.8,19.7-7.9c4.6-2.2,9.3-4.5,14.3-6.1c-1.5-4.7-2.6-9-3.1-13.7c-5.9-2.2-12.7-0.6-18.5-3.7c6.6-0.5,13,1.2,20,0.9
		c0.7,5.2,2.6,10.2,3.1,15.6c0.1,1.7-1,2.5-2.2,3c-15,6.5-29.4,14.1-45.6,17.6c-3.8,0.8-7.5,2.4-11.1,4c-4.9,2.2-10.3,3.1-15.4,4.8
		c-10.6,3.6-21.4,6.9-32.3,9.4C463.2,642.5,462.3,642.9,461.4,641.7z"/>
	<path d="M1034.2,598.7c-1.7-4.9-2.6-9.3-3.3-13.9c-6-2.1-12.6-0.5-18.4-3.6c6.5-0.7,12.9,1,19.8,0.8c1.2,1.6,0.8,4,1.4,6.1
		c0.7,2.8,1.6,5.6,1.9,8.6c0.2,2-0.5,3.2-2.3,4c-15,6.6-29.6,14.2-45.9,17.7c-3.6,0.8-7,2.3-10.4,3.8c-5.4,2.4-11.3,3.6-17,5.4
		c-10.3,3.4-20.7,6.8-31.3,9c-0.8,0.2-1.5,0.5-2.2-0.6c0.6-1.9,2.6-1.9,4-2.1c4.8-0.7,9.4-2.3,14-3.6c10.6-3.1,21.2-6,31.4-10.1
		c6.7-2.7,13.7-4.4,20.6-6.4c8.2-2.2,15.9-5.5,23.6-9.1C1024.6,602.5,1029,600.2,1034.2,598.7z"/>
	<path d="M390.3,462.8c16.7,2.1,33.7,0.1,50.7,2.8C435.1,466.3,393.7,464.2,390.3,462.8z"/>
	<path d="M905.7,460.2c-16.5-2.2-33.3,0.1-49.8-2.8C872.5,459.4,889.3,457.2,905.7,460.2z"/>
	<path d="M950.4,479.8c-0.8-5.4,0.8-11.2-3.7-16.3c2.6,0.4,2.7,2.3,3.7,3.4c1.1-0.9-0.5-2.1,0.6-3.8c1,6.2,2.7,11.7,2,17.5
		c-1.3-2.1-0.3-4.6-1.7-7.3C950.8,475.8,951.2,477.9,950.4,479.8z"/>
	<path d="M481.8,469.3c2.5,0.3,2.5,2.4,3.7,3.3c0.8-1-0.6-2.1,0.4-3.8c1.2,6.3,2.7,11.9,2.1,17.8c-1.4-2.2-0.2-4.9-1.8-7.8
		c-0.1,2.8,0.1,4.9-1.1,6.9c0-1.8,0-3.5,0-5.3c0-1.9,0-3.8-0.4-5.7C484.2,472.8,483.2,471.2,481.8,469.3z"/>
	<path d="M368.9,458c-6,1.1-11.9,0-17.9,0.3c-1,0.4-0.6,1.3-0.9,2.1c-0.4-0.8,0.1-1.8-1-2.5c-4.3-0.3-8.8-0.7-13.4-1.1
		c0-0.1,0-0.2,0-0.4C346.8,457,357.9,457.5,368.9,458z"/>
	<path d="M803.9,451.2c10-0.5,19.9,1,29.9,1.2c-6,1.1-12-0.1-17.8-0.1c-0.8,0.6-0.7,1.4-0.9,2C811.9,451.9,811.9,451.9,803.9,451.2z
		"/>
	<path d="M471.9,468.7c-3.1-0.1-6.2-0.3-9.3-0.1c-2,3.8-0.1,7.8-0.7,12c-1.6-4.4-1-8.6-0.9-12.9
		C464.7,466.8,468.3,467.2,471.9,468.7z"/>
	<path d="M927.2,462.9c-1.5,4.6,0,9-0.1,13.6c-1.7-3.8-1.6-7.9-1.5-11.9c0-1,0.7-2.5-1.5-2.2c6.1-1.1,9.1-0.9,12.5,0.7
		C933.6,463.2,930.5,462,927.2,462.9z"/>
	<path d="M486.8,349.6c-1.9,2.8-3.7,5.9-7.4,6.6C480.7,352.7,484.4,351.9,486.8,349.6z"/>
	<path d="M951.8,343.8c-1.9,3-3.7,5.9-7.4,6.7C945.6,346.9,949.4,346.1,951.8,343.8z"/>
	<path d="M474.3,376.8c1.1,4.9,2,9.9,1.9,15c-0.9-5-1.9-10-2.8-14.9C473.7,376.8,474,376.8,474.3,376.8z"/>
	<path d="M471.2,370.4c-0.6,4.6-0.7,8.7-0.9,13c-1.2-0.4-1.8-1.3-1.4-2.2c1-2.6,0.3-5.4,0.6-8C469.6,372.2,469.5,371.1,471.2,370.4z
		"/>
	<path d="M934.1,377.5c0.2-4.2,0.1-8.4,0.9-12.6c0.3,0,0.6,0,0.9,0c-0.2,4.2-0.5,8.4-0.7,12.7C934.8,377.5,934.4,377.5,934.1,377.5z
		"/>
	<path d="M941,385.5c-0.9-4.8-1.7-9.6-2.6-14.4c0.2,0,0.5-0.1,0.7-0.1c1.3,4.8,2,9.7,2.6,14.7C941.5,385.6,941.3,385.6,941,385.5z"
		/>
	<path d="M1014.1,591.8c-4,1.2-8,2.4-12,3.7c-0.1-0.3-0.2-0.5-0.2-0.8c3.8-1.8,8-2.5,12-3.6C1014,591.4,1014,591.6,1014.1,591.8z"/>
	<path d="M483.9,315.3c0.6,3.3,1.7,6.6,0.9,10C483.8,322.1,482.6,318.8,483.9,315.3z"/>
	<path d="M948.9,309.8c0.7,3.3,1.7,6.5,0.9,9.9C948.8,316.4,947.5,313.3,948.9,309.8z"/>
	<path d="M549.2,597.5c-4,1.2-8,2.5-12.3,3.8C538.5,599.5,543.3,597.8,549.2,597.5z"/>
	<path d="M951.7,325.9c0.7,2.9,0.8,5.8-0.9,8.8c0-2.9,0-5.9,0-8.8C951.1,325.8,951.4,325.8,951.7,325.9z"/>
	<path d="M486.6,331.4c1,3,0.8,6,0,9c-0.2,0-0.5,0-0.7,0c0-3,0-6,0-8.9C486.1,331.5,486.4,331.5,486.6,331.4z"/>
	<path d="M964.8,605.5c-2.7,1.9-6,2.5-9,3.5C958.3,606.5,961.5,606.1,964.8,605.5z"/>
	<path d="M500,611.7c-3,1.1-6.1,2.2-9.1,3.3c2.5-2.7,5.7-3.2,8.9-4C499.9,611.2,499.9,611.5,500,611.7z"/>
	<path d="M474.7,358.4c-2.5-0.6-4.9-1.4-6.2-4.8C471.6,354.5,472.8,356.9,474.7,358.4z"/>
	<path d="M491.9,441.7c2.7,0,5.1,0,7.6,0C497.9,443.3,495.1,443.4,491.9,441.7z"/>
	<path d="M965.7,430c-1.6-1.9-2.1-4.2-3-6.7C965.3,425.5,965.9,426.8,965.7,430z"/>
	<path d="M454.8,622.5c2.6-0.2,5.2-0.9,7.7,0.6C459.9,624.1,457.4,623.1,454.8,622.5z"/>
	<path d="M500.8,435.8c-1.5-2-2.4-4.2-2.6-6.6C499.9,431.1,501.4,433.1,500.8,435.8z"/>
	<path d="M919.3,616.6c2.9-0.3,5.6-0.4,8.4,0.3C926.2,618.2,923.4,618.1,919.3,616.6z"/>
	<path d="M510.6,608.7c2.3-2,5.2-1.8,8-2.4C516.2,608,513.2,607.7,510.6,608.7z"/>
	<path d="M274.9,545.8c-2.6,2-5.1,1.9-7.4,2.3C269.5,546.7,271.7,545.8,274.9,545.8z"/>
	<path d="M939.7,352.6c-2.7-0.4-4.8-1.5-5.8-4.2C936.6,348.8,937.8,351.1,939.7,352.6z"/>
	<path d="M482.3,417.6c0.9,2.7,0.5,4.8,0,7.3C481.3,422.3,481.3,420.7,482.3,417.6z"/>
	<path d="M302.6,460.5c-0.1-3.5-0.3-6.2,0.9-8.8C303.9,454.5,303.3,457.1,302.6,460.5z"/>
	<path d="M948,287.5c-2.1,1-4.2,1.4-6.4,1.8C942.4,287.6,944,287.1,948,287.5z"/>
	<path d="M732.9,542.1c1.9-1.1,3.9-2.1,6.3-1.6C737.3,541.7,735.2,542.3,732.9,542.1z"/>
	<path d="M328.6,455.8c-3.3,0-6.7,0-10,0C321.9,455.1,325.3,454.2,328.6,455.8L328.6,455.8z"/>
	<path d="M483.1,293c-2.1,1.2-4.2,1.9-7.3,1.8C478.3,292.7,480.8,293.4,483.1,293z"/>
	<path d="M767.7,453.6c-0.2-2.5-0.3-5.1,0.8-7.5C768.8,448.7,768.4,451.1,767.7,453.6z"/>
	<path d="M921.5,463.2c0,2.8,0,5.6,0,8.8C920.9,468.8,920.3,466,921.5,463.2z"/>
	<path d="M504.9,444.5c-1.5,1.6-3.1,1-5.1,0.8C501.4,443.2,502.9,443.1,504.9,444.5z"/>
	<path d="M947.1,418.8c-0.6-2.1-0.7-4.3-0.4-7.2C948.6,414.5,947.5,416.7,947.1,418.8z"/>
	<path d="M953.5,460.4c1.9-0.2,3.9-0.4,5.8-0.6c-1.6,2-3.8,1.4-5.7,1.9C953.1,461.1,953.4,460.7,953.5,460.4L953.5,460.4z"/>
	<path d="M964.4,436.1c-2.5,1.8-4.9,0.6-7.3,0C959.5,436.1,962,436.1,964.4,436.1z"/>
	<path d="M494.4,466.1c-1.8,1.1-3.8,1.4-6.2,1C490.3,465.6,492.3,465.7,494.4,466.1z"/>
	<path d="M456.6,468.8c0,2.4,0,4.8,0,7.3c-0.7-2.4-1.2-4.8-0.8-7.3C456.1,468.8,456.4,468.8,456.6,468.8z"/>
	<path d="M983,600.8c-2.3,1.4-5,1.4-7.4,2.2C977.7,600.9,980.4,601.1,983,600.8z"/>
	<path d="M933.4,617.3c1.7-1.7,3.9-1.7,6-2.2C937.6,616.3,935.6,617.1,933.4,617.3z"/>
	<path d="M494.5,416.3c1.2,1.9,1.7,3.2,1.3,4.9C494,419.6,494,419.6,494.5,416.3z"/>
	<path d="M959.5,410.8c1.3,1.7,1.6,3.1,1.2,4.8C958.9,413.8,958.9,413.8,959.5,410.8z"/>
	<path d="M468.3,623.1c1.7-1.4,3.6-1.8,5.7-2C472.3,622.3,470.3,622.9,468.3,623.1z"/>
	<path d="M483.7,307.8c-0.6-1.6-0.7-3,0.8-4.4C484.8,305.3,484.8,305.3,483.7,307.8z"/>
	<path d="M949.8,297.9c0.2,1.7-0.6,3-0.9,4.9C948,299.6,948,299.6,949.8,297.9z"/>
	<path d="M977.9,599.1c-1.6,0.1-3.3,0.3-5.4-1C974.9,597.8,976.4,598.6,977.9,599.1z"/>
	<path d="M964.9,439.4c1.5-1.9,3-1.7,5-0.7C968.2,440.1,966.7,439.7,964.9,439.4z"/>
	<path d="M513.6,605.2c-2.4,0.2-3.8-0.2-5.8-1.1C510,603.8,511.6,603.7,513.6,605.2z"/>
	<path d="M962.9,371.8c0,1.4,0.5,2.9-1.5,4.2C961.8,374.2,960.2,372.3,962.9,371.8L962.9,371.8z"/>
	<path d="M789.8,449.3c-1.4,1.3-2.6,0.2-3.8,0C787.3,449.1,788.5,448.6,789.8,449.3z"/>
	<path d="M488.2,299.6c-0.2,1.6-1.2,2.3-2.7,3.5C486.2,301,486.4,299.6,488.2,299.6z"/>
	<path d="M953.3,293.3c0.2,2-1.3,2.5-2.6,3.9C951,295.1,951.3,293.9,953.3,293.3z"/>
	<path d="M492.3,408.1c-1.5-1.3-1.3-2.4-0.8-4C492.5,405.3,492.5,406.3,492.3,408.1z"/>
	<path d="M956.4,398.2c1.1,1.4,1.2,2.4,0.8,3.7C955.5,401.1,956.1,399.8,956.4,398.2z"/>
	<path d="M497.2,377.2c1.2,1.9,0.9,3-0.4,4.3C496.3,380,496.4,378.9,497.2,377.2z"/>
	<path d="M795.8,450.2c1.6,0.1,3.2,0.2,4.8,0.4C799,450.7,797.4,451.2,795.8,450.2L795.8,450.2z"/>
	<path d="M718.2,545.3c1.2-0.3,2.4-0.7,3.6-1c0.1,0.2,0.1,0.4,0.2,0.6c-1.2,0.3-2.4,0.6-3.6,1C718.3,545.7,718.3,545.5,718.2,545.3z
		"/>
	<path d="M257,550.1c-0.8,1.3-2.4,0.5-3.4,1.4C254.4,550.3,255.9,550.8,257,550.1z"/>
	<path d="M488,347.9c-0.3-1.2,0.3-2,1.2-3.1C490,346.6,488.8,347.2,488,347.9z"/>
	<path d="M498.4,603.1c-1.3,0.1-2.1-0.1-2.8-1.2C496.9,601.6,497.7,601.9,498.4,603.1z"/>
	<path d="M952.8,342.5c-0.3-1.7,0.5-2.4,1.1-3.4C955.1,340.7,953.9,341.3,952.8,342.5z"/>
	<path d="M493.5,387.2c-0.5-1.6-0.1-2.4,0.8-3.3C495,385.3,493.9,385.9,493.5,387.2z"/>
	<path d="M960.3,596.1c1.6-0.4,2.2,0.4,3.4,1C962.2,597.4,961.3,597.4,960.3,596.1z"/>
	<path d="M328.6,455.9c1.2,0,2.4,0,4.2,0C331,456.5,329.8,456.2,328.6,455.9L328.6,455.9z"/>
	<path d="M306.3,453.1c0.7,0.1,1.5,0.1,2.5,0.2C307.9,453.9,307.1,453.5,306.3,453.1z"/>
	<path d="M775.7,448.2c-0.8-0.1-1.6-0.1-2.5-0.2C774.2,447.4,775,447.8,775.7,448.2z"/>
	<path d="M958.3,380.7c-0.2-1.4,0.1-2.1,1-2.6C959.9,379.3,959.3,380,958.3,380.7z"/>
	<path d="M795.9,450.2c-1,0-1.9,0-2.9,0C794,449.7,794.9,449.8,795.9,450.2L795.9,450.2z"/>
	<path d="M463.2,637.2c0.3,0.6,0.5,1.2-0.3,1.7C462.5,638.2,462.6,637.7,463.2,637.2z"/>
	<path d="M479.4,451.5c0.2-1.4,0.9-1.2,1.7-1.2C480.9,451.5,480.2,451.3,479.4,451.5z"/>
	<path d="M946.1,444.6c-0.2,1.2-0.8,1.1-1.5,0.9C944.6,444.5,945.1,444.3,946.1,444.6z"/>
	<path d="M492.1,390.7c0.5,0.6,0.6,1.1,0,1.4C491.4,391.8,491.4,391.4,492.1,390.7z"/>
	<path d="M957.2,386.3c-0.8-0.3-0.8-0.7-0.3-1.1C957.9,385.3,957.2,385.9,957.2,386.3z"/>
	<path d="M464.8,629.2c-0.1,0.3-0.2,0.4-0.4,0.2c-0.1,0,0-0.2,0-0.3c0-0.1,0.1-0.2,0.1-0.3C464.8,628.8,464.9,628.9,464.8,629.2z"/>
	<path d="M927.7,630.8c0.8,1,0.5,1.4,0.4,2.1C927.4,632.2,928,631.8,927.7,630.8z"/>
	<path d="M958.8,407.9c-0.8-0.4-1-0.8-1-1.4C959.1,406.5,958.7,407.2,958.8,407.9z"/>
	<path d="M946.9,409.1c0.6,0.6,0.7,1,0.1,1.4C946,410.1,946.8,409.6,946.9,409.1z"/>
	<path d="M369.5,441.6c-0.4,0.4-0.8,0.7-1.3,1.1C368.1,441.4,368.8,441.6,369.5,441.6L369.5,441.6z"/>
	<path d="M493,412.3c0.9-0.1,0.9,0.4,0.8,1C492.9,413.5,492.7,413.1,493,412.3z"/>
	<path d="M518.1,450.3c-0.7-0.4-0.8-0.7-0.7-0.9c0.2-0.3,0.5-0.4,0.7-0.1C518.3,449.5,518.1,449.8,518.1,450.3z"/>
	<path fill="#FFFFFF" d="M782.9,371.7c-0.2-0.4-0.5-0.9-0.4-1.3c0.8-3.5,1.7-6.9,2.8-11.1c3.9,4,6.5,8.1,9.7,11.8
		c3.2,3.8,5.9,8,10,11c-6.4-7.9-10.7-17.3-17.8-24.9c0.8-1.4,1.4-2.9,2.4-4.1c1.2-1.5,2.3-2.8,4.8-2.8c4-0.1,8-1.2,12-1.9
		c0.7-0.1,1.6-0.1,2-1.6c-4.8,0.5-9.3,1-14.7,1.6c4-4.6,6.4-9.7,12.2-11.7c4.3-1.5,8.5-3.3,12.6-5.3c-5,0.2-9.4,2.4-14.4,3.7
		c0.6-3.2,2.3-5.9,2.5-9.1c-3,1.6-5.6,5.5-4.9,8.4c0.5,2-0.2,3-1.5,4c-2.6,2.1-5.1,4.5-7.2,7.1c-0.3,0.3-0.6,0.9-1,0.9
		c-4.2,0.5-5.4,4-7.2,7c-4.6,7.9-6,16.8-7.5,25.7c-1.6,9.7-2.3,19.4-4.4,29c-0.7,3-0.4,6.3-1.7,9.1c-10.9,4.2-21.6,2.9-32.1-0.8
		c-4.5-1.6-8.8-3.3-13.3-4.9c-1.9-0.7-2.9-1.8-3.5-3.7c-2.9-8.3-4.8-16.8-5.9-25.6c-1.7-14.2,0-28.1,1.9-42c1.1-8,2.1-16.1,1.5-24.2
		c-0.4-5.6-2-11.1-2.8-16.6c-0.9-5.6-0.7-11.2-0.1-16.8c0.3-2.4,1.2-4.5,2.5-6.6c4-6.5,7.9-13.1,13.1-18.8c1-1.1,2-2.4,3.8-3
		c1.5,3.8,3.1,7.5,4.7,11.4c-1.6,2.4-3.3,4.9-4.9,7.4c2.8,1.7,4.2,4.8,7,6.5c-0.5-3.2-3.6-4.4-5.3-6.9c1.2-1.7,2.4-3.5,3.8-5.6
		c1.2,1.3,1.8,2.7,2.4,4.2c3.4,9.1,9.7,15.6,17.4,21.4c11.3,8.5,24.1,12.5,37.6,14.6c5.5,0.9,11,2.2,16.7,0.7c3-0.8,6.6-0.3,9.7,0.6
		c3.9,1.1,7.8,0.9,11.6,0.5c4.9-0.6,7.9,2.5,11.6,4.5c-0.7,2.9-3.2,4.4-3.7,6.7c-6,1.7-11.5,4-16.5,7.4c5-1.7,10.4-1.6,15.3-3.5
		c1,0.4,0.9,1.4,1.2,2.2c-1.2,2-2.8,3.5-4.3,5.2c-0.6,0.8-1.6,1.6-0.1,2.5c0.1,0.1,0.1,0.2,0.1,0.2c0,0.1,0,0-0.2-0.1
		c1.1-2.3,3-3.8,4.9-5.8c2.5,3.7,5.2,6.9,7.9,10.1c2.5,3,3,6.8,2.3,10.6c-0.5,2.6-1.3,5.2-0.1,8.3c-4.8-2.6-9.3-4.5-13.9-6.1
		c4.4,4,11.1,4.8,14.5,10.5c-8.3,1.2-16.6,0.9-24.7,0.8c-0.3,1.1,0.3,1.3,0.8,1.3c8,0.3,15.9,1.6,23.9,0.6c1.5-0.2,2.3,0.6,3.2,1.8
		c-0.9,2.7-2.3,5.5-0.6,8.2c-0.9,1.2-1.9,0.7-2.5,1.3c0.4,1,1.6,0.6,2.2,1.2c1,4.1,1.8,8.3,1.5,12.8c-6.4,1-12.7,2.3-19.1,3
		c-9.4,1.1-18.8,1.8-28.3,1.6c-8.1-0.2-15.9-2.7-23.9-4.1c-2.7-0.5-5.3-0.9-7.9-0.2c-3.2-4.4-1.8-8.8-0.3-13.1c0.6-1.6,0-4,2.2-4.8
		c1.5,1.6,2.5,3.6,3.8,5.3C785.3,375.4,784.1,373.6,782.9,371.7z"/>
	<path fill="#FFFFFF" d="M676,201.4c-3.9-1.1-6.3,0.4-6.9,4.1c-0.5,3.1-2.2,5.9-1.9,9.2c0.1,1-0.8,2.1-1.6,2.9c-1,1-2.1,2-1.7,3.6
		c-1.3,0.2-2.4,0.6-3.5-0.2c-6.8-5.1-14.1-4.1-21.7-1.8c-1.7-0.9-2.4-2.5-2.5-4.6c0.8-0.9,1.7-1.8,2.5-2.6c0.2-1.5-0.1-3-0.9-3.9
		c-2.2-2.3-2.1-4.7-0.8-7.4c0.3-0.5,0.4-1.1,0.1-1.6c-1.3-2.7-0.8-5.4,0.1-8.2c0.3-0.9,0.2-2,0-3c-0.5-1.9-0.1-3.6,1.2-4.9
		c7.8-2.8,15.8-2.8,23.9-2.5c0.8,0,1.7,0,2.3,0.4c4.8,2.8,9.9,1.8,15,1.3c7.7-0.8,15.4-2.6,23.1-3.4c4.3-0.5,8.9,0.1,13.4,0.5
		c2.7,0.2,5.4,0.5,8.1,0.4c4.3-0.1,8.5,0.5,12.7,1.8c0.6,0.5-0.3,0.9-0.2,1.4c0.2,0.4,0.6,0.7,1.1,0.7c4.6-0.8,9.2,0.4,13.8-0.9
		c1.4-0.4,2.8,0,3.9,0.6c7.9,4.1,16.2,3.3,24.4,1.5c6.9-1.5,13.9-1.1,20.8-1.6c1.7-0.1,3.8-0.4,4.1,2.4c2.8-1.8,5.1-0.8,7.4,0.2
		c3.8,1.7,7.7,3.1,11.8,4.2c1.1,0.3,2.3,0.6,3.1,1.2c3.3,2.6,6.9,2.5,10.6,1.8c6.1-1.2,12.2-0.7,18.2-0.1c5,0.5,9.5,3.6,11.2,8.6
		c2,5.7,5.1,10.7,7.6,16.1c1,2.2,1.9,4.4,2,6.8c0.1,6.6-0.1,13.3-1,19.9c-1,7.5-5,13.7-9.1,19.8c-1.8,2.7-5.1,4.1-8.2,5.1
		c-11.3,3.6-22.2,2.3-32.8-2.7c-1.2-0.6-2.5-1.1-3.6-1.8c-1.2-0.7-2.7-1-2.8-3c0-0.6-1.1-1.4-1.8-1.9c-4.1-3.1-6.4-7.5-8.4-12.1
		c-0.7-1.6-0.4-3.3-0.3-5.7c5.4,5.5,10.7,10.1,17.9,11.7c7.1,1.6,13.6-1.5,20.4-2.3c-1-1-2.1-0.6-3.1-0.5
		c-10.5,1.4-20.4-0.2-29.3-6.4c-0.7-0.5-1.2-0.9-1.6-1.6c-2.3-4.1-5.8-7.1-9.5-9.8c-1.5,0.2-0.2,1.4-1.3,2c-1.7,0.3-3.6-0.2-5.6-0.6
		c-7.1-1.3-14.2-2.8-21.2-4.1c-3.4-0.6-6.4-2.1-9.5-3.5c-1.2-0.5-1.9-1.5-2.6-2.5c-5-7.3-12.2-10.9-20.8-10.3
		c-11.6,0.8-22-2.5-32.3-7.2c-5.2-2.4-10.4-4.7-16.3-5.2c-4.2-0.3-8.4-1.8-12.7-1.9C679.2,199.6,677.4,199.5,676,201.4z"/>
	<path fill="#FFFFFF" d="M859.2,392.5c1.2-0.8,2.6-0.8,3.5-2c-0.7-5.7-1.3-11.4-2.2-17.2c-0.3-2-0.4-3.7,0.5-5.6
		c0.8-1.6,0.3-2.9-0.9-4.3c-1.6-1.8-3.7-3.7-1.6-6.5c-1.5-4.4,0.6-8.7,0.2-13.1c-0.3-3.6-1.9-6.6-4.4-9.3c-1.7-1.8-3.4-3.7-4.8-5.6
		c-0.9-1.2-2.5-2.3-1-4.3c0.5-0.6-1.3-1.4-1.3-2.6c0.4-1.6,1.7-2.8,2.6-4.2c2.6-4,2.1-6.1-2.2-8.4c-0.4-0.2-0.8-0.4-1.5-0.9
		c3.2-1.1,6.1-1.2,9.1-1.5c4.5-0.4,8.7-1.6,12.9-3.6c3.5-1.7,7.3-2.9,11.4-2.1c1.1,0.2,2.1,0.4,3.1,1.2c2.6,2,5.8,2.4,9,2.1
		c10-0.9,19.9-2.5,29.1-6.9c1-0.5,1.9-0.5,3.3,0.1c0.2,8.1,2.8,16.2,2.5,24.6c-0.2,5.8,0.4,11.5,1,17.2c0.2,2.2,2.6,3,2.8,5.6
		c-1,2.7-0.8,5.9-0.1,9.1c0.6,2.9,0.5,5.8,0.3,8.7c-1.1,15.1,1.4,29.6,7.7,43.4c3.5,7.7,4.8,15.9,5.4,24.2c0.2,2.2-0.7,4.6-2.1,7.1
		c-27.6-5.2-55.8-5.3-83.3-9.4C861,416.5,861.4,404.7,859.2,392.5z"/>
	<path fill="#FFFFFF" d="M899.9,203.2c0.3,1.7-1.2,3.1-1,4.7c1,1.4,2-0.2,3.3-0.2c-1.5,3.5-4.4,5.4-6.4,8c-1.6,2.1-3,4.2-3.8,6.7
		c-0.7,2-1.3,4.1-2.4,5.9c-3.1,5.3-3.6,11.6-6.9,16.7c-0.4,0.6-0.6,1.5-0.6,2.3c0.4,5.8-2.2,11-3.6,16.4c-0.8,3.3-1.6,6.5-1.6,10
		c0,3.5-1.9,6.7-2.4,10.2c-0.2,1.9-0.9,3.8,0.3,5.4c9.8,2.6,19.2,0.2,27.9-3c8-2.9,16.5-6.4,22.1-13.1c4.4-5.3,9.3-10.7,11.2-18
		c1.9,1.3,3.4,2.4,5,3.5c-1.2,7.8-4.9,14.6-7.9,21.6c-0.6,1.4-1.1,2.9-1.9,4.3c-2.4,4.2-5.1,7.6-10.3,9.5c-7.9,2.9-15.7,5.6-24,6.4
		c-4.8,0.5-9.6-0.6-14.4-1.5c-5.7-1-11,0.2-16.1,2c-3.3,1.2-6.5,2.2-10,2.5c-8.1,0.6-16,3.1-24.1,2.3c-5.3-0.5-10.6-1.2-15.5-3.2
		c-9.6-3.9-18-9.7-25.2-17.2c-0.7-0.8-1.3-1.9-3.3-2.2c7.8,9.7,17.1,16.2,27.8,20.9c-6.9,2-14,1.3-20.4-1.5
		c-5.2-2.4-9.8-5.5-14.4-8.8c-0.7-0.5-1.3-1.3-2.3-1.4c-0.2-0.1-0.2-0.1-0.2-0.1c0,0-0.1,0,0,0c0.1,0.2,0.1,0.2,0.2,0.2
		c3.8,3.9,8.2,6.9,12.7,9.9c-11.8-4.1-24.4-6.3-33.7-15.9c2.9-5.4,1.4-10-1.8-14.4c0.8,3.6,0.8,7.2-0.4,11.2
		c-2.9-5.6-6.6-10.1-8.6-15.7c-2-5.6-3.1-11.5-5.5-17.4c9.1-6.6,18.2-12.9,27.6-18.9c1.5,0.5,2.8,1,4.2,1.5
		c-0.9,2.1-2.5,3.7-2.5,6.1c1.3-1.9,2.5-3.8,3.8-5.8c2.2,0.2,4.2,0.6,6.2,1.2c0.5,10.6,2.2,21,4.4,31.4c-0.1-10.3-2.8-20.4-2.9-31.1
		c5.4,0.3,10.2,2.1,15.5,2.6c1.3,10,3.9,19.5,9.5,27.9c-3.6-8.8-6.8-17.6-7.4-27c0.6-0.6,1.2-0.5,1.7-0.5c4,0.1,4.6,0.8,4,4.9
		c-0.7,4.5,0.3,9.4,3,12.5c6.8,8,14.9,15,25.8,17.1c6.3,1.2,12.7,2.7,19.3,0.9c4.4-1.2,9.1-1.5,12.8-4.8c0.7-0.6,1.6-1,2-1.7
		c5.2-7.8,10.4-15.8,11.2-25.4c0.5-6.1,0.7-12.4-0.2-18.5c-1-6.3-4.3-11.8-7.3-17.3c-0.7-1.3-1.6-2.4-1.4-4.3
		c0.2-1.8-1.6-3.2-2.9-4.3c-1.3-1.2-2.8-2.2-4.7-3.7c6.2,1.3,11.7,1.9,16.7,4.9C886,201.7,893.2,201.7,899.9,203.2L899.9,203.2z"/>
	<path fill="#FFFFFF" d="M979.1,197.6c0.1,2.1,0,3.6-0.7,5c-1.2,1.2-3,0.9-4.4,1.9c1.6,0.7,1.6,0.7,4.1,0.2
		c-0.8,2.9-0.1,5.8-1.5,8.4c-4.4-0.2-6.1,1.5-6.4,6.3c-0.2,4.3-0.8,8.5-1.4,12.8c0,0.3-0.2,0.6-0.3,0.9c-3.5,1.7-5-3.1-7.9-2.2
		c-0.9-0.7,0.2-1.7-0.7-2.2c-1.5-0.3-2.5,1.9-1.5,3.5c0.6,1,1.5,1.8,2.8,1.4c0.6-0.2,1.2-0.6,2.2,0.1c0,2.6-0.3,5.4-1.4,8.6
		c-3.6-2.2-7.7-1.3-11.2-3c-1.2-0.6-2.4-0.1-2.9,1.5c0.4,1.9,1.8,2,3.3,1.9c2.9-0.1,5.8,0.2,8.6,1.4c-0.4,1.3-1.3,2.1-2.1,3
		c-2.6,0-5.1-1.7-8-0.6c1.2,3.1,4.2,2.7,6.3,3.9c-0.9,3.1-1.2,7-5.3,7.1c-3.5,0.1-7.3,0-10.4-2.7c-3.8-3.2-7.8-6-11.8-9
		c-0.4-0.3-0.8-0.5-1.3-0.2c-0.9,0.9,0.6,1.5,0.2,2.7c-2.8,2.9-6.5,5-9.6,7.9c-1.2-0.5-2.1-1.3-3.5-0.9c-3.3,0.9-6.7,0.7-10.1,0.8
		c-2.6,0-4.8,0.9-6.4,3.2c4.4-2.3,9.1-1.3,14-1.8c-1.4,1.9-3.9,1.9-5.4,4.4c4.1-1.8,7.7-2.8,11.5-3.3c1.3-0.1,2.1-1.3,3-2
		c2.8-2.2,4.4-6.6,9.2-5.8c1.1,0.9,2.2,1.9,3.4,2.9c-0.9,5.6-4.8,9.6-7.8,13.9c-4.9,7-12.7,9.3-19.6,13.3
		c-8.1,4.7-17.3,4.6-25.9,6.9c-1,0.3-2,0.3-3.3,0.6c0.8-6.3,0.8-12.5,2.9-18.5c1.1-3.2,1.9-6.5,3-9.7c1.3-3.8,2.7-7.7,2.1-11.8
		c4.7-4.5,9.1-9.1,15.2-11.6c-4.8,1.8-9.7,3.4-14.2,6.2c5.6-10.8,9-22.8,17-32.5c-0.5,4-0.6,7.9,0.6,11.7c0.5-4.3,0-8.9,3.1-12.7
		c1.9,0.4,3.6-0.9,5.4-1.4c2.3,1.1,0.9,4,2.8,5.2c-2.7,7.7-2.3,12.8,1.5,15.2c-2-7.6,1.7-14.1,2.3-21.5c-0.7,1.1-1.3,2.1-2.2,3.6
		c-2.2-4.1-2.1-8.1-4.6-11.1c0.2-0.1,0.4-0.2,0.6-0.4c1,1.5,1.9,3,2.9,4.4c0.9,1.4,1.5,3.5,3.7,2.4c2.4-1.1,1.7-3,0.5-4.7
		c0.6-1.1,2.1-0.7,2.6-1.7c0.1-1.3-0.9-2.3-1-3.5c2.7,0.1,3.4,0.8,2.4,3.3c-1.3,3.2-1.5,6.5-2.2,9.8c-0.2,1.2-0.3,2.4,0.9,4
		c1.4-4,4.2-6.6,6.2-9.7c1.3-1.9,3-3.2,5.2-4.1c5.3-2.1,10.5-4.7,15.4-7.6c1.1-0.7,2.4-1,3.5-0.9c3.4,0.3,6.9-0.1,10.3,1.2
		c2.3,0.9,4.8,1.3,7.2,1.8C973.5,194.2,975.7,197.1,979.1,197.6z"/>
	<path fill="#FFFFFF" d="M743.2,476.9c-1.1,10-5.7,18.6-11.1,26.9c-2.1,3.2-3.5,6.9-6.8,9.4c-1.2,0.9-1.5,2.9-2.2,4.5
		c-4.1,8.9-7.2,18-8.2,27.7c-0.5,4.5-0.6,8.9-0.9,13.9c-1.2-1.8-0.6-4.3-3.1-4.5c0.6-5.2,0.2-10.2,1-15.1c0.9-1.2,0.6-2.8,1.1-3.6
		c-0.3,0.8-0.3,2.3-1,3.6c-2.4,4.6-2.2,9.7-2.9,14.8c-3.6,0.3-7.1-1.3-10.9,0.1c-0.2-2.4,0.2-4.7-1-7.5c-1.3,3-0.7,5.9-1.9,8.3
		c-1.1,0.7-1.9,0.3-2.5-0.5c1-5.7,2.6-11.2,3-16.9c0.6-7.4,2-14.7,2.9-22.1c1.3-10.7,2.6-21.4,2.5-32.3c-0.1-13.3,3.5-25.5,12.1-36
		c3.8-4.6,7.3-9.4,11.1-14.4c0.6,1.6,0.1,3.1,1.6,4.5c0.5-7.7,1.1-14.9,1.6-22.5c6.7,2.6,13.1,5.5,20,6.7c6.9,1.1,13.8,0.6,20.8,0.1
		c1.1,10.5-3.1,17.8-13.3,22c1.7,0.8,3.2,0,4.5,0.6c0,1.8-0.6,3.2-2,4.6c-1.6,1.6-2.2,4.5-4,5.7c-3.2,2.1-3.7,5.4-5,8.4
		c-0.7,1.5-1.1,3.2-1.5,4.8c-0.7,2.7-1.4,5.4-3.4,7.5c-0.7-0.4-0.8-1.1-0.6-1.8c1.2-4.3,0.7-8.9,2-12.1
		C744.3,465.9,743,471.3,743.2,476.9z"/>
	<path fill="#FFFFFF" d="M619.8,577.6c1.5-5.3,1.9-10.6,2.9-15.8c8.2-1.2,16.1-3.7,24.1-5.9c6.9-1.9,13.6-4.7,20.9-5.2
		c1.1-0.1,2.2-0.4,3.3-0.6c4.1-0.7,8-3.3,12.3-1.3c-0.9-31.5-1.5-62.7,0.4-94.1c6,0.8,12.5,1.5,19.6,1.2c-1.3,3.6-2.4,6.9-3.2,10.4
		c-1.5,7-1.6,14-2,21.1c-0.5,9.3-0.9,18.6-2.2,27.9c-1.3,8.9-2.7,17.8-3.1,26.8c-0.1,3-1.1,6-1.7,9.1c-1,0.5-2,1.2-2.6,1.9
		c-1.3,0-0.6-1.7-1.8-1.6c-0.3,0.1-0.8,0.1-0.9,0.3c-3.3,4.6-8.5,4.3-13.2,5.3c-1.3,0.3-2.7,0.2-4.3,1.5c4.6,0.5,8.4-1.1,12.5-1.8
		c-2,4.5-2.6,9.1-3.3,13.9c-8.8-0.4-16.5,3.4-24.5,5.7c-5.6,1.7-11.4,2.7-16.9,4.6c-0.5,0.2-1.1,0-1.6,0
		C629.5,580.4,624.8,578.9,619.8,577.6z"/>
	<path fill="#FFFFFF" d="M807.5,396.5c10.4-1.8,20.6,1.5,30.7-0.2c6-1,11.9-2.2,17.6-3.6c1.2,0.6,1.3,1.6,1.4,2.4
		c0.6,4.6,1.3,9.1,1.1,13.8c-0.5,8,0.2,16.3-6.3,23.5c-5.2,1.4-29.3-0.8-37.1-3.9c1.1-0.9,2.6,0.8,3.7-0.8c-1.8-1.3-4-1.7-6.1-2.9
		c1.5-0.4,2.8-0.7,4.7-1.3c-14.1-4.7-27.8-8.8-40.9-14.7c0.6-5.7,1.9-11,2.1-17c8.8,1,17.5,1.7,24.8,7.5c-0.4-3.2-3.8-2.3-5.3-4.4
		c2,0.3,3.7,0.6,5.4,0.9c1.1,1.7,1.7,3.7,3.7,4.9C808.1,399.5,807.1,398,807.5,396.5z"/>
	<path fill="#FFFFFF" d="M658.2,447.8c-3.3-8.7-3.2-17.2-0.2-21.8c4.8-1,8.9-3.4,13.5-4.4c4.6-1,9.4-0.9,14.2-2.7
		c0.9,2.4,1.9,4.9,4.8,5.5c2.6,0.6,5.3,1.5,7.8-0.1c2.1-1.4,4.4-2.8,5.1-5.8c7.4,0.5,14.6,0.1,21.6,1.3c0.2,6-1.7,10.9-5.7,15.1
		c-5.6,5.9-9.8,12.9-14.6,19C688.8,452.4,673.1,452.3,658.2,447.8z"/>
	<path fill="#FFFFFF" d="M705.6,575.1c-3.2,0.8-6,1.5-8.9,2.1c6.3,1.7,12.5,1.6,18.9,1.9c1,1.9,1.2,4,1.8,6.5
		c-6-0.6-11.6-0.3-16.9,2.4c5.8,1.4,11.6,2.8,17.7,0.3c2.1,7.1,6.8,12.6,12.2,17.6c1.7,1.6,2,3.4,1.5,5.5c-0.4,1.8-1.5,2.6-3.4,2.6
		c-8.8,0.1-17.5-0.3-26.3-1.4c-1.5-0.2-3.1-0.4-4.7-1.1c1.1-0.6,2.2,0.5,3.2-0.5c-0.2-0.8-1-0.9-1.7-1.1c-1.9-0.5-3.7-0.9-5.5-1.5
		c-2.4-0.9-4.5-1.7-5.4-4.7c-0.7-2.3-2.6-4.4-3.4-6.9c-0.4-1.3-1.6-2-2.8-2.2c-2.8-0.6-5.1-2.1-7-4.2c-0.6-0.6-1.5-0.9-2.5-1.5
		c1.4-5.2,2.6-10.5,6.4-14.7c1.7-1.9,2-4.5,2-7c-0.1-5.1,1.8-9.3,6.2-13.3c-1.1,2.8-1.2,5.1-3.5,6.8c-2.1,1.5-2.2,4.2-1.4,6.6
		c0.8,2.7,3.4,3.8,5.9,4.4c1.4,0.4,3,0.3,4.4-0.2c5.4-2.1,10.8,0.2,16.2,0.1c-4.6,0.3-9.2,0.7-13.7,2.1
		C698.3,574.8,701.9,574.1,705.6,575.1z"/>
	<path fill="#FFFFFF" d="M712.8,356.4c-1.4,12.8,0.5,25,1.2,37.3c-0.7,0.5-1.4,1.4-1.8,2.8c-0.8-0.2-1.3-1.2-2.5-0.8
		c-1.5,2.6,0.5,4.9,1.3,7.4c-0.4,0.3-0.9,0.6-1.3,0.9c-1.1-0.3-1-1.9-2.3-1.7c-1.2,2.3-1.2,2.3,1.1,6.2c-1.8,1.9-3.5,3.8-5.3,5.6
		c-1.3,1.4-2.5,2.8-2.5,4.8c0,0.2-0.1,0.4-0.2,0.6c-1.8,4-5.5,2-8.4,2.5c-2,0.4-3.3-1.1-3.6-3.2c-0.7-4.2-1.8-8.4-2.2-12.6
		c-0.5-4.3,1.7-8.1,3.7-11.7c2.9-5.4,6.2-10.4,12-13.4c3.4-1.7,5.4-4.8,4.5-9C705,365.7,708.4,361.2,712.8,356.4z"/>
	<path fill="#FFFFFF" d="M626.2,233.3c-1.4-1.9-2.1-3.6-0.4-5.5c17.5-0.8,34.8-4.4,52-6.2c0.5,0.4,0.6,0.4,0.7,0.5
		c2.9,5.9,1.7,7.8-4.8,7.5c-4.6-0.2-8.9,1.2-13.4,1.6c-11,0.9-21.9,2.4-33,2.4C626.9,233.5,626.6,233.4,626.2,233.3z"/>
	<path fill="#FFFFFF" d="M674.8,168.8c-9.6,1.5-19,2.4-28.5,3.3c-9.5,0.9-18.7,3.9-28.2,4.1c-0.9-1.6-1.8-2.9-1.6-4.6
		c3.9-1.8,50.9-7.9,56.8-7.4C674.2,165.7,674.5,167.3,674.8,168.8z"/>
	<path fill="#FFFFFF" d="M804.5,422.7c0.4,0.7,1.2,1.8,2.6,2.6c-11.8-1.9-23.6-0.9-35.2-1.7c-0.9-1-0.4-2.1-0.6-3.2
		c2.7-2.1,3.5-5.2,4.3-8.6C784.7,416.5,794.4,419,804.5,422.7z"/>
	<path fill="#FFFFFF" d="M718.2,407.3c0.8,4,4.2,5,6.9,6.6c0.4,1.2,0.3,2.4-0.2,3.8c-6.5-1.2-13.1-0.4-19.9-1.5
		C708.9,412.6,712.7,409.1,718.2,407.3z"/>
	<path fill="#FFFFFF" d="M650,234.7c3.3-0.5,6.6,0.1,9.8-0.8c0.7,2.2,1.4,4.1,0.8,6.2c-2.4,1.6-5.3,1.8-8,2.3
		c-1,0.2-2.2-0.4-2.3-1.5C650.2,239,649,237.1,650,234.7z"/>
	<path fill="#FFFFFF" d="M640.2,159.7c2.6-0.8,5.3-0.3,8.1-0.6c0.6,1.6,1.2,3.1,1.8,4.9c-3.2,1-6.4,0.9-9.7,1.2
		C640,163.3,639.6,161.6,640.2,159.7z"/>
	<path fill="#FFFFFF" d="M643.1,178.4c-0.7-1.2-1-2.1-0.8-3.3c2.7-1.1,5.6-1.1,8.4-1.5c0.9,1,0.9,2.1,1,3.3
		C648.8,177.4,646,177.9,643.1,178.4z"/>
	<path d="M743.2,476.9c-1.6-0.5-1.1-1.9-0.9-2.8c1.4-6,2-12.2,2.9-18.3c0.1-0.5,0.2-1.1,1-1.3c1,0.2,1,1,0.9,1.8
		c-0.1,0.9-0.2,1.8-0.6,2.6c-2.3,5.2-2.3,10.9-3,16.5C743.5,475.9,743.3,476.4,743.2,476.9z"/>
	<path fill="#FFFFFF" d="M688.2,560.4c0.1,3.3-0.6,6,1.1,8.4c-4,0-4.7-1-4.4-5.8C686,562.7,686.7,561.8,688.2,560.4z"/>
	<path fill="#FFFFFF" d="M915.2,200.5c-1.1-1.2-1.6-2-1.7-2.9c0.5-1,1.5-1.6,2.4-2.3c0.6,0.3,1.2,0.6,1.7,0.9
		c1.1-0.7-0.6-1.4,0.3-2.2c1.1,0.6,1.1,1.8,1.5,2.9C917.8,197.8,915.4,197.5,915.2,200.5z"/>
	<path fill="#FFFFFF" d="M934.7,165.9c1.2,3-0.7,2.8-2.2,3c-1.5,0.3-2.6-1.6-4.2-0.4C929.8,166.1,932.5,167.3,934.7,165.9z"/>
	<path fill="#FFFFFF" d="M953.8,176.3c-1.3,1.7-2.4,2.6-2.8,3.9c-1.7,0.4-2.4-0.4-2.9-1.8C949.7,177.2,951.5,176.9,953.8,176.3z"/>
	<path fill="#FFFFFF" d="M927.6,166.9c-1-0.8-1.8-1.4-2.9-2.3c1.9-0.5,3.4-1,5.1-0.1C929.6,165.7,928.6,166,927.6,166.9z"/>
	<path fill="#FFFFFF" d="M950.4,172.3c0.6,4-2.7,2.6-3.9,3.8C947.3,174.5,948.3,173.2,950.4,172.3z"/>
	<path fill="#FFFFFF" d="M970.5,169.4c2-0.2,3.4,1.1,5.1,1.8c-1.3,1.7-2,0.5-2.6-0.3C972.3,170,971.2,170.2,970.5,169.4z"/>
	<path fill="#FFFFFF" d="M939.4,191c1.7-1.1,2.9-1.7,4.7-1.2C942.9,191.5,941.8,192.1,939.4,191z"/>
	<path fill="#FFFFFF" d="M989.2,187.9c-1.8,1.2-3.7,2-6.4,1.6C985.1,188.4,987.1,188,989.2,187.9z"/>
	<path fill="#FFFFFF" d="M982.4,175c0.8,1.5,0.8,1.5-0.1,3.1c-0.9,0.3-1.4-0.4-2.3-0.8C981,176.6,981.2,175.3,982.4,175z"/>
	<path fill="#FFFFFF" d="M689.3,555.6c2.4,1.5,1.3,2.5,0.2,3.7C688,558.1,689,557,689.3,555.6z"/>
	<path fill="#FFFFFF" d="M960.9,163.1c-1.4,0.3-2.7,0.3-4,0.2c0.3-0.8,0.5-1.5,1.2-1.9C959.1,161.7,960.1,162,960.9,163.1z"/>
	<path fill="#FFFFFF" d="M957.9,183.8c1.2,0.1,1.5,1,2.2,1.7c-1,0.2-2,0.4-3,0.5C956.6,185.1,956.8,184.4,957.9,183.8z"/>
	<path fill="#FFFFFF" d="M964,189.4c1.3-0.3,2.7-0.5,3.9,0.6C966.3,191,965.2,189.9,964,189.4z"/>
	<path fill="#FFFFFF" d="M945.3,159.3c1.4-1.6,2.8-1.4,4.3-0.9C948.3,158.7,947,158.9,945.3,159.3z"/>
	<path fill="#FFFFFF" d="M986.2,195.5c-1.7,0.3-2.8-0.1-4.6-0.8C983.6,194.2,984.8,194.5,986.2,195.5z"/>
	<path fill="#FFFFFF" d="M953.6,180.1c1-1.4,1.7-2.1,3.2-1.9C956.2,179.8,955.2,179.8,953.6,180.1z"/>
	<path fill="#FFFFFF" d="M931.7,185.6c-0.9-1.6-1-2.6,1-3C932.5,183.7,932.6,184.7,931.7,185.6z"/>
	<path fill="#FFFFFF" d="M985.3,185.3c-1.3,0.6-2.2,1.4-3.8,0.2C983,184.9,984,185,985.3,185.3z"/>
	<path fill="#FFFFFF" d="M917.5,191c-0.6,1.2-1.2,1.6-1.9,1.9C915.4,191.8,916.3,191.6,917.5,191z"/>
	<path fill="#FFFFFF" d="M944.6,172.6c-0.3,1.1-0.9,1.2-1.7,0.4C943.3,172.1,943.8,171.9,944.6,172.6z"/>
	<path fill="#FFFFFF" d="M958.3,180c-0.3,0.9-0.8,1-1.4,0.9C957,180,957.6,180,958.3,180z"/>
	<path fill="#FFFFFF" d="M963.2,164.3c0.7-0.2,1.2,0.2,1.1,0.7c-0.1,0.4-0.8,0.3-1.1-0.1C963.1,164.8,963.2,164.5,963.2,164.3z"/>
	<path fill="#FFFFFF" d="M938.1,189.9c-0.2,0.1-0.4,0.3-0.5,0.3c-0.3,0-0.4-0.2-0.2-0.4c0.1-0.2,0.3-0.2,0.5-0.3
		C938,189.5,938,189.7,938.1,189.9z"/>
	<path fill="#FFFFFF" d="M914.5,179.8c0.4,0,0.7,0.1,0.7,0.5c0,0.2-0.1,0.4-0.3,0.5c-0.3,0.2-0.6,0.1-0.7-0.2
		C914.2,180.3,914.4,180,914.5,179.8z"/>
	<path fill="#FFFFFF" d="M933.5,189.6c-0.2-0.8,0.2-1,0.6-1.1C934.6,189.1,934.3,189.4,933.5,189.6z"/>
	<path fill="#FFFFFF" d="M713.5,575.1c0.4-0.4,0.8-0.5,1.3-0.2C714.4,576,713.8,574.9,713.5,575.1z"/>
	<path fill="#FFFFFF" d="M927.3,200.5c0,0.5-0.2,0.7-0.6,0.7C926.5,200.5,927.2,200.8,927.3,200.5z"/>
	<path fill="#FFFFFF" d="M476.6,443.5c-27.7-5.2-55.8-5.5-83.5-9.4c2.5-12.5,3.5-18.3,1.2-35.8c0.9-1,2.7-0.6,3.4-2.2
		c-0.8-6.1-1.6-12.3-2.5-18.5c-0.2-1.3,0.2-2.5,0.6-3.6c0.8-1.9,0.6-3.3-0.9-4.9c-1.6-1.7-3.2-3.6-1.5-6.2c-1.5-4.8,1-9.6,0.1-14.4
		c-0.5-3.1-2-5.7-4.1-8c-1.6-1.9-3.4-3.6-4.8-5.6c-0.8-1.1-2.5-2-1.1-4c0.7-1-1.3-1.7-1.3-3c0.4-1.6,1.6-2.8,2.5-4.2
		c2.6-4.1,2.1-6.1-2.1-8.5c-0.4-0.2-1.1-0.2-1.3-1.3c4.1-0.5,8.1-1.1,12.2-1.5c2.3-0.2,4.5-0.6,6.5-1.8c3-1.8,6.2-2.6,9.5-3.3
		c2.9-0.7,5.8-0.6,8.4,1.2c2.8,2,6.1,2,9.4,1.8c5.4-0.4,10.7-1.2,16-2.5c5.3-1.2,10.2-3.4,15.1-5.5c3,14.7,2.7,29.4,4,44.2
		c1.5,0.9,2.1,2.4,2.9,4.1c-1.2,3.1-0.9,6.4-0.2,9.8c0.6,2.7,0.5,5.3,0.2,8c-1.2,15.1,1.2,29.7,7.5,43.5c3.6,7.8,4.9,16.1,5.6,24.6
		C478.9,438.6,478,441,476.6,443.5z"/>
	<path fill="#FFFFFF" d="M320.6,315.4c-0.6,12.9,1.1,25.1,7.9,36.2c-0.3,0.2-0.7,0.3-1,0.5c-2.9-3.4-5.8-6.8-8.7-10.3
		c-0.2,0.2-0.4,0.3-0.6,0.5c1.7,4.3,4.7,8,7.3,11.8c-1,1.7-2.5,2-4.6,1.9c-2.2-5-7.6-7.1-10.8-11.4c1.1,4.6,3.7,8.5,7.1,12
		c-3.9,1.3-8.6-1-10.6-4.8c-1-1.9-2-3.9-4.2-4.8c2.2,3.6,4,7.4,6.7,10.6c-2.1,1.1-4.6,0.7-6.1-1.4c-2.3-3.1-5.2-5.6-8.1-8.1
		c-0.4-0.4-0.9-0.8-0.9-1.3c-0.1-5.6-1.6-10.9-1.6-16.6c0-6.8,0.4-13.7-2.6-20.4c-2.1-4.6-1.8-10-2.2-15c-0.4-5.4-1.8-10.4-3.1-15.5
		c-1.6-6.4-4.2-12.7-4.7-19.3c-0.6-7.6-2.5-15.1-1-22.9c0.7-3.5-0.1-7-1-10.4c-0.4-1.5-0.5-2.8-0.2-4.3c1.3-6.6,7.1-11.5,13.9-11.9
		c1-0.1,1.2,0.9,1.9,0.9c3.4-2.3,7-3.8,10.7-4.6c16.1-3.7,32-2.5,47.5,3.1c4.6,1.7,9.2,3.6,14,4.8c1.8,0.4,3.5,0.5,5.4,0.3
		c-1.5,2.4-4.4,3.1-5.7,6.2c3.3-1.7,6.3-2.7,8.9-4.6c6.4-4.8,13.2-5.3,21.1-4.3c5.2,0.7,8.4,3,11.3,6.5c3.5,4.3,5.6,9.2,5.1,14.9
		c-0.4,5.5-0.3,11-1.1,16.5c-1.1,7.5-4.9,13.8-9.2,19.7c-3.1,4.2-8.4,5.6-13.4,6.4c-6.7,1.1-13.4,0.7-20-1.2c-3-0.9-5.5-2.9-8.5-3.9
		c0.1-0.2,0.2-0.4,0.3-0.7c2.2,0.8,4.6,1.2,6.4,2.5c3.7,2.6,7.5,2.6,11.6,1.7c1.7-0.4,3.3-0.8,4.9-1.8c-1.4-0.1-2.8-0.4-4.2-0.3
		c-8.7,0.5-16-3-22.7-8c-2.2-1.6-4.2-2.6-7.1-2.4c-3.8,0.4-7.4-0.1-11.1-1.7c-4-1.7-8.4-2.3-12.5-3.9c-3.9-1.5-6.7-4.6-10.3-6.3
		c-1.4-0.7-1.5-2.5-1.9-3.8c-1.2-4.1-2.8-8.1-4.8-11.9c-0.4-0.7-0.6-1.4-1.3-1.7c-0.5,0.3-0.4,0.7-0.3,1c4.8,11,5.7,22.4,5,34.3
		c-0.6,8.6-1,17.3-0.2,25.9c0.4,4.1,2.1,8.1,2.6,12.2C314.3,310.7,316.5,313.6,320.6,315.4z"/>
	<path fill="#FFFFFF" d="M265.8,291.8c2.3,1.6,4.2,3.6,6.6,5.1c4.3,2.7,8.6,5.4,14,5.6c0.5,4.2,1,8.2,2.8,12.1
		c-6.7-2.5-10.6-1.1-15,4.1c-4.3,5.1-4.8,10.9-4.7,17c0,2.2,0.1,4.2-1.3,6.3c-2.1,3.2-1.1,7.3,2,10.1c1.1,1,1.7,1.9,2,3.3
		c0.6,2.4,1.6,4.7,3.3,6.6c4.5,5,9.2,9.5,16,11.3c6.1,1.6,10.6-0.2,13.5-5.7c1.1-2,1.5-4.2,2.3-6.5c1.8-0.1,3.4-0.4,4-2.4
		c3.6,1.5,3.6,1.5,7.5-0.6c-1.4,4-1.8,7.9-3,11.5c-3.2,9.6-3.8,19.6-5.3,29.5c-1.1,7-2.2,14-3.3,21c-0.2,1-0.3,2-0.9,2.8
		c-10.3,4.3-20.6,3-30.8-0.2c-5-1.6-10-3.4-14.9-5.5c-1.6-0.7-2.5-1.5-3.1-3.2c-3-8.5-5.3-17.1-6-26.2c-0.8-9.9-1.4-19.8,0.2-29.6
		c1.5-8.8,2.3-17.6,3.2-26.5c0.6-6.9-0.1-13.7-1.7-20.5c-1.9-8.1-2.4-16.2-0.9-24.5c0.2-1.1,0.5-2.2,1.1-3.2
		c3.5-6.2,7.3-12.2,11.6-17.8c3.1-4,7.2-6.8,11.1-10.2c0.8,1.2,0.7,2.6,0.9,3.8c1.5,10.4,5.6,20.1,8,30.2c0.8,3.4,1.4,6.8,1,10.6
		c-8.2-2.2-14.8-6.6-21.2-11.7C264.2,290.1,266.1,290.7,265.8,291.8c-1.8,2.7-1.8,5.6-1.4,8C263.8,297.4,264.2,294.5,265.8,291.8z"
		/>
	<path fill="#FFFFFF" d="M458,214.8c1.1,0.6,1.3,1.8,1.7,2.8c0.7,1.5,1.6,2.7,3.3,1.8c1.5-0.8,2-2.1,1-3.7c-0.2-0.3-0.2-0.6-0.3-0.8
		c0.6-1.2,2.1-0.3,2.8-1.7c-0.2-1-0.6-2.3-0.9-3.6c2.9,0.9,3.3,1.6,2.1,3.9c-1.6,3.1-2.3,6.6-3.2,9.9c-0.3,1.1-0.7,2.2,0.7,3.2
		c1.3-2.2,3.1-4.1,4.7-6c3-3.8,6.7-6.1,11.4-7.3c4.4-1.2,8.6-3.2,12.9-4.9c3.4-1.4,7-0.3,10.3,0.6c3.8,1,7.4,2.7,11.1,3.9
		c2.8,1,4.7,3.8,7.8,4.6c-0.3,1.8-0.6,3.4-1.3,4.8c-1.3,1-3.1,0.8-4.8,1.5c1.3,1.6,2.8,0.1,4.2,0.7c-0.9,2.7-0.7,5.5-2.2,7.9
		c-4.6-0.4-6.4,1.1-7.2,6c-0.7,4.4-1.8,8.8-2.9,13.1c-3.8,1.4-4.8-3.8-8-3.1c-0.8-0.8,0.7-1.6-0.5-2.2c-1.5,0.1-2.1,1.1-2,2.5
		c0.4,3,2.9,2.4,5.2,2.6c-0.5,3-0.8,5.9-2.5,8.7c-3-2.7-7.2-2-10.4-4.1c-0.9-0.6-1.9-0.7-2.8,0.1c-0.4,0.4-0.7,1-0.5,1.5
		c0.4,1.1,1.3,1.6,2.3,1.6c1.8,0,3.6,0.4,5.3,0.8c1.3,0.3,2.6,0.6,3.7,1.6c-0.4,1.2-1.5,1.9-2.4,2.8c-2.6-0.3-4.8-2.4-7.8-1.3
		c0.9,3,3.8,3,6,4.3c-0.7,1.6-1.3,3.1-2.1,4.6c-0.8,1.5-2.6,2.4-4,2.1c-3.6-0.8-7.5-0.9-10.4-4.1c-3.2-3.6-7-6.7-10.5-10
		c-0.3-0.3-0.7-0.6-1.2-0.4c-1,0.8,0.4,1.7-0.3,3c-3.1,2-6.7,4.3-9.7,6.2c-5.5-1.5-10.7-0.5-15.7-1.2c-1.8-0.2-3.7,0.7-4.9,2.5
		c4.6-1.6,9.2-0.5,14.2-0.2c-1.9,1.5-4.2,1.5-6,3.7c4.4-1.6,8.2-1.9,12.1-2.2c2.1-0.2,3.7-2.1,5.3-3.4c1.2-1,2.2-2.3,4.7-2.6
		c-1.8,3.1-3.8,5.3-5.5,7.8c-4.3,6.3-11.3,8.6-17.5,12.2c-9.6,5.7-20.6,5.7-31.1,8.6c0.1-8.1,1.5-15.5,3.9-22.8
		c0.8-2.4,1.5-4.7,2.4-7c1.4-3.4,1.8-6.9,1.6-10.4c4.7-4.5,9-9.2,15.2-11.5c-4.8,1.7-9.4,3.5-13.9,6.1c-0.1-1.8,0.6-3,1.3-4.3
		c2.7-5.5,5.7-11,7.8-16.9c1-3,3.1-5.5,5.2-7.8c2.1-2.3,3.6-2.2,6-0.1c1,0.9,2.2,0.7,3.9-0.5c-1.4,3-3.1,4.7-4.1,7.5
		c2.3-1.3,2.9-3.4,5.1-4.7c-1.2,4.2-2,8.1-1.1,12.2c1.2-4.2,0.8-8.9,4.7-12.3c1.8,1,3.5-0.8,5.4-0.8c2,1.5,0.4,4.2,2.1,5.7
		c-3.5,6.6-3.6,12-0.2,15.3c-1-7.6,2.8-13.8,5-20.7c-1.4,0.2-1.9,1.7-3.5,1.8C458.7,220.2,457.8,217.6,458,214.8L458,214.8z"/>
	<path fill="#FFFFFF" d="M326,260.1c2.3,0.1,4.1,1.7,6.5,1.7c-0.4,3.6-1.7,6.7-0.6,10.4c0.8-3.5,1-6.8,2.3-9.9
		c1.4-0.4,2.1,0.7,3.1,1.1c-0.9,6.7-0.2,13.2,1.9,19.5c-0.4-6.2,1-12.3,0.7-18.4c0.3,0,0.5-0.1,0.8-0.1c0.8,2.7,1.6,5.3,2.3,8
		c0.8,2.8,2.3,5.4,3.6,8c1.3,2.6,2.6,5.1,4.9,7c-3.5-7-6.7-14.1-8.2-22.2c3.5,0.6,6.7,0.1,9.9-0.2c0.6,1.3-1.1,1.5-0.7,2.5
		c-0.2,6.1,3,10.9,6.6,15.4c0.5,0.6,1.1,1.1,1.6,1.7c-4.5-4.9-8.3-10.1-8.3-17.1c1.4,1,2.5,2.2,3.6,3.5c0.5,0.7,1.2,1.6,1.9,1.8
		c6.1,2,11.2,7.1,18.3,5.9c5.9,2.3,11.5,0.3,17.2-0.8c5-1,9.2-3.4,11.8-7.7c3.9-6.4,7.9-12.9,9.3-20.5c0.5-2.6,0.3-5.1,0.3-7.7
		c0.1-3.8,0.3-7.7,0-11.5c-1-9.5-5.9-16.3-14.7-20.2c-1.9-0.8-3.9-1.5-6.4-2.5c8.1-1.8,15.7-1.7,22.9,0.4c7.6,2.2,15.2,2.7,23,3
		c2,0.1,4,0.3,5.9,1.3c0.1,1.3-0.8,2-1.6,2.7c-1,0.1-1.8,0.1-2.7-0.2c-3-1-5,0.7-6.8,2.6c-6.9,6.7-9.2,15.8-12.8,24.2
		c-1.2,2.8-1.9,5.9-3.5,8.6c-0.5,0.9-0.9,1.9-0.8,2.9c0.4,5.6-2.1,10.6-3.4,15.7c-0.9,3.5-1.8,6.9-1.8,10.6c0,3.4-1.9,6.5-2.3,9.8
		c-0.3,1.9-0.8,3.7,0.1,5.5c20.8,4.4,50.9-9.2,59.4-29.8c0.9,0.6,1.7,1.4,2.3,2.5c-2.8,8.5-6.7,16.4-10.8,24.3c-0.5,1-1,1.9-1.3,3
		c-0.7,2.1-1.9,3.9-4.2,5c-7.9,3.7-16.2,5.8-24.7,6.4c-4.2,0.3-8.5-0.8-12.7-1.6c-5.9-1.1-11.5,0.1-16.8,2.2
		c-3.3,1.3-6.6,2.1-10.1,2.4c-3.1,0.3-6.3,0.5-9.4,1.3c-5.2,1.3-10.6,1.4-15.8,1.1c-5-0.3-10.1-1.7-15.2-2.7c-2.6-0.5-4-3.4-6.3-4.9
		c-3.7-2.4-7.2-4.2-11.9-3.1c-2.6,0.6-4.5,2-6.5,3.5c-1.2-0.6-2.5-1.5-3.8-1.9c-7.1-2.3-8.6-8-8.8-14.4c-0.2-7.4-0.1-14.9,1.5-22.2
		c1-4.4,0.8-9,0.1-13.9C318.9,254.8,323.1,256.7,326,260.1c-1.3,1.1-1,2.9-1.6,4C325,262.9,324.8,261.2,326,260.1z"/>
	<path fill="#FFFFFF" d="M279.5,470.7c-0.7,3.1-1.2,6.4-2.2,9.4c-0.5,1.6,1.2,2,1,3.6c-1.1,8.6-5.3,16-9.4,23.3
		c-1.8,3.2-3.5,6.8-6,9.4c-6.1,6.4-7.9,14.6-10.5,22.5c-2.7,8.2-3.1,16.8-3.3,26.1c-1.3-2-1.2-4.2-2.9-4.6c-0.4-7.7,0.4-15,3.4-22
		c-2.4,1.5-5.4,14.8-5.4,22c-3.7-0.3-7.3-0.9-11.2-0.5c0.1-2.3,0.1-4.5-0.7-7c-1.6,2.8-0.7,5.7-2,8.1c-0.9,0.6-1.7,0.4-2.4-0.2
		c-0.1-0.2-0.3-0.4-0.2-0.6c1.3-5.1,2.7-10.2,3-15.5c0.4-7.8,2.2-15.4,3.1-23.1c1.1-10.8,2.6-21.5,2.5-32.3
		c-0.1-13.2,3.5-25.3,12-35.8c3.8-4.6,7.3-9.5,11.2-14.5c0.7,1.4,0.1,3,1.6,4.1c1.1-7.3,0.7-14.6,1.9-22c6.6,2.2,12.9,5.3,19.8,6.4
		c6.8,1.2,13.6,0.2,20.7,0.2c1.4,4.7,0,9.6-2.3,13.5c-2.2,3.8-6,6.9-10.7,8.3c1.5,0.8,2.9-0.1,4.4,0.5c-0.2,1.6-0.1,3.1-1.8,4.3
		c-1,0.6-1.4,2-2.2,3c-1.2,1.5-1.6,3.7-3.9,4.4c-0.6,0.2-1,1.4-1.3,2.3c-1.8,4-3,8.2-4.2,12.5c-0.4,1.5-0.9,2.8-2.7,3.6
		C279.8,476.9,279,473.7,279.5,470.7c0.7-3.5,1.8-6.8,1.8-10.4c0,0.1,0,0.2,0,0.3C281.2,464.1,280,467.4,279.5,470.7z"/>
	<path fill="#FFFFFF" d="M375.4,339.3c1.5-1.9,3-3.6,5-5.4c2.3,3.5,4.9,6.7,7.6,9.8c2.9,3.3,3.4,7.4,2.4,11.5
		c-0.6,2.4-1,4.7,0.2,7.9c-5-2.9-9.6-4.6-14.1-6.4c2.2,2.4,5.2,3.2,7.8,4.9c2.5,1.5,5.7,2.2,6.8,6c-8.5,1.2-16.7,0.7-24.9,1.1
		c3.8,1.1,7.7,1.4,11.6,1.5c4.5,0.2,9,0.9,13.5-0.1c1.5-0.3,2.3,0.7,3.1,2c-1.2,2.6-1.8,5.4-0.7,8.2c-1.9,1.4-4,1.2-6,1.5
		c2,0.1,4.1-0.1,6,0.7c0.9,4.2,1.9,8.4,1.4,12.9c-6.9,1.1-13.8,2.5-20.7,3.1c-9.5,1-19.1,2-28.6,1.3c-7.4-0.5-14.6-2.7-21.9-4
		c-2.7-0.5-5.3-0.7-8-0.2c-3.9-6.2-0.2-11.7,1-17.8c2,1.2,2.6,3.2,4.3,4.4c-0.8-2.1-1.4-4.4-3.8-5.8c1.4-3.6,2.1-7.3,2.9-11.7
		c6.5,7.4,11.8,15.1,18.1,22c0.2-0.1,0.4-0.3,0.6-0.4c-2-2.9-4-5.9-6-8.8c-2.1-3.2-4.4-6.3-6.4-9.5c-1.9-3-5.5-4.7-6.9-8.4
		c2.3-0.8,3.4-0.2,4.7,1c4.8,4.8,10.2,8.9,16,12.4c5,3,10,6.1,14.5,9.9c1.4,1.2,2.9,2.2,4.6,3c-10.5-9.7-21.5-18.7-33.2-27.5
		c2-1.4,2-3.4,3-5.7c2.4,3.3,5,5.9,8.1,8.1c2.8,1.9,5.8,2.6,9.2,2.9c2.8,0.2,5.3,0.1,7.4-1.9c2.7-2.6,5.2-5.3,6.2-9.1
		c2.4-9.1,1.5-18.1-0.9-27.2c2.7-1.6,5.6-2.4,8.8-2.9c-3.2-1.9-6.4-0.6-9.9-0.1c-1.8-3.7-3-7.6-6-10.9c3.2,0.1,5.6,1.5,8.2,2.4
		c4.1,1.4,8.2,1.2,12.3,0.8c4.7-0.5,7.7,2.5,11.2,4.4c-0.8,2.9-3.3,4.4-3.8,7c-4,0.3-14.1,4.7-16.9,7.6c5.5-2.2,10.8-2.2,15.7-3.9
		c1.2,0.3,0.8,1.5,1.4,2c-1.4,2.3-3.3,4-4.8,5.9C374.7,338.3,374,339,375.4,339.3c0.3,0.3,0-0.3,0.2,0.2
		C375.6,339.6,375.6,339.5,375.4,339.3z"/>
	<path fill="#FFFFFF" d="M223.5,559.9c-0.7-1.4-1-2-1.3-2.5c-0.6-0.2-1.1-0.2-1.4,0.2c-3,4.1-7.6,4.2-11.9,5.1
		c-1.7,0.4-3.6,0-5.7,1.9c4.6,0.2,8.2-1.2,12.4-2c-1.6,4.7-2.5,9.3-3.1,14c-4.7-0.4-9.1,0.6-13.2,2c-9.2,3.2-18.5,5.5-27.9,8.1
		c-0.8,0.2-1.5,0.2-2.3,0.1c-4.8-0.8-9.4-2.1-14.2-3.5c1.5-5.2,1.9-10.5,2.9-15.7c8.1-1.3,15.9-3.6,23.7-5.8
		c6.9-1.9,13.6-4.8,20.9-5.2c1.2-0.1,2.5-0.4,3.7-0.7c2.2-0.6,4.4-1,6.5-1.9c2.2-1,4.1,0.8,6.4,0.3c-1.4-2.4-1.3-4.8-0.9-7.3
		c0.8-4.6,0.7-9.2,0.1-13.8c-1.2-8.9-1.1-17.7-0.3-26.6c0.2-1.9,0.1-3.8,0-5.7c-0.9-11.9,0.5-23.7,0.8-35.5c0-1.6,0-3.1-0.4-5
		c6.8,0.8,13.2,1.5,20.3,1.4c-1.8,4-2.7,7.9-3.5,11.8c-1.3,6.1-1.4,12.3-1.7,18.5c-0.5,9.6-0.9,19.3-2.2,28.9
		c-1.2,8.9-2.8,17.8-3,26.9c-0.1,2.8-1.2,5.5-1.7,8.3C226.1,557.7,224,557.6,223.5,559.9z"/>
	<path fill="#FFFFFF" d="M347.3,430.3c1.6-0.4,3.1,0.1,4.2-1.3c-13.7-4.4-27.3-8.6-40.4-14.5c0.8-5.8,1.9-11.1,2.3-17
		c8.7,1.3,17.4,1.5,24.5,7.7c-0.4-1.8-0.4-1.8-5-4.2c2.3-0.3,3.9,0.5,5.5,0.7c0.8,1.8,1.6,3.5,3.2,4.7c1.6-1.1,0.4-2.6,0.9-3.8
		c4.1-1.5,8.3-1.2,12.5-0.7c10.3,1.2,20.5,0.1,30.5-2.3c1.9-0.4,3.7-0.9,5.5-1.3c1,0.7,1.1,1.8,1.2,2.8c0.6,4.7,1.2,9.3,1,14.1
		c-0.3,7.8-0.3,15.7-6.1,22.7c-5.2,1.5-27.6-0.5-36.7-3.5c0.8-0.9,2.1,0.1,3-0.9C352,432,349.6,432,347.3,430.3z"/>
	<path fill="#FFFFFF" d="M192.5,432.3c5.5-1.8,9.6-3.9,14.1-4.9c4.6-1.1,9.4-0.9,14.3-2.7c0.5,5.2,4.6,6.2,8.5,6.3
		c4.1,0.2,7-2.4,8.9-6.5c7.2-0.2,14.4,0.1,21.6,1.1c0.2,5.9-1.7,10.9-5.7,15.1c-5.7,6-10,13-14.8,19.1c-15.6-1.7-31.2-1.7-46.6-6.2
		C191.3,446.2,189,438.9,192.5,432.3z"/>
	<path fill="#FFFFFF" d="M358.6,340.1c0.5,5.1-0.3,9.4-1.6,13.8c-1.6,5.3-6.7,8.9-12.9,7.2c-5.6-1.5-9.3-4.8-12.4-9.2
		c-7.5-10.8-9.1-23.1-7.8-35.8c0.4-3.6,2.2-6.9,4.4-9.7c3-3.8,7.5-5.1,11.3-2.3c6.5,4.8,12.9,10,15.6,18.1
		C357.5,328,359.1,334.2,358.6,340.1z"/>
	<path fill="#FFFFFF" d="M243.6,577.2c-4.7,0.1-9.2,1.2-13.7,2.3c3.5,1.1,7.1,0.5,11.1,1.1c-3.1,1.5-6.4,1.2-9.8,3
		c6.8,1.1,13.1,0.9,19.6,1.6c0.9,1.9,1.3,3.9,1.5,6.2c-3-0.2-5.9-0.6-8.8-0.1c-2.7,0.5-5.3,1.4-7.9,2.5c5.8,1.6,11.6,2.6,17.7,0.4
		c2.2,7,6.8,12.6,12.3,17.5c2.2,2,2.3,3.8,0.5,7.7c-10.8,0.9-21.7,0.2-32.7-1.6c0.7-1.5,1.9,0.4,2.7-1.3c-3.9-1.7-8.5-1.7-12-4.7
		c-0.5-3.4-3.6-5.9-4.4-9.4c-0.2-1-1.3-1.6-2.3-1.8c-3-0.8-5.5-2.3-7.6-4.6c-0.5-0.5-1.3-0.8-2.2-1.3c1.4-5.3,2.6-10.5,6.5-14.7
		c1.7-1.9,2-4.5,2-7c-0.1-5,1.7-9.1,5.5-12.6c-0.1,2.9-0.7,4-2.7,6.1c-1.9,2-2.2,4.5-1.4,6.9c0.9,2.7,3.5,3.6,6.1,4.3
		c0.9,0.2,2.2,0.3,3,0C232.1,574.8,237.9,577.7,243.6,577.2z"/>
	<path fill="#FFFFFF" d="M289.4,316.9c2,6.5-0.1,12.8,0.4,19.1c-3.5,3.6-3.9,9.8-0.9,13c3.7,3.8,4.7,4.2,6.5,2.6
		c4.1,2.3,5.3,7.7,10.4,9c-1.4,4.5-3.6,8.1-7.7,10.4c-0.5,0.3-1,0.5-1.6,0.5c-7.5,0-14-2.3-18.4-8.7c-1.6-2.4-2.9-5.1-3.4-8
		c-0.9-5.6-2.1-11.1-2.7-16.7c-0.7-6.3,0.5-12.2,4.5-17.4c1.2-1.6,1.7-3.7,3.8-4.6C283.5,314.7,286.4,315.7,289.4,316.9z"/>
	<path fill="#FFFFFF" d="M241.5,415.8c-0.4,1.7-1.9,2.5-2.9,3.6c-1.4,1.6-2.9,3-2.9,5.3c0,0.4-0.3,0.9-0.5,1.2
		c-2.2,3.2-5.6,1.6-8.5,1.9c-2,0.2-3-1.6-3.3-3.6c-0.7-4-1.6-8-2.1-12c-0.6-4.5,1.7-8.3,3.7-12.1c2.9-5.4,6.2-10.4,12-13.4
		c3.3-1.7,5.2-4.6,4.5-8.6c-0.1-0.3,0-0.7,0-1c-1.4-6.2,2.3-10.3,6.4-15c-1.3,12.9,0.5,25.1,1.3,37.6c-1.1,0.3-2.1,1.1-1.7,2.8
		c-1-0.6-1.6-1.5-2.8-0.7c-1,2.5,0.4,4.6,1.4,6.8c-0.1,0.7-0.7,0.8-1.3,1.3c-1-0.2-0.8-1.8-2-1.8c-1.7-0.1-1.5,2.1,0.7,6.3
		C243.1,415.3,242.4,415.7,241.5,415.8c-0.2-0.1-0.2-0.1-0.2-0.1C241.2,415.6,241.3,415.6,241.5,415.8z"/>
	<path fill="#FFFFFF" d="M306.3,429.2c-0.1-4.7,4.7-7.3,4.1-11.9c8.9,4.8,18.1,7.5,27.3,10.3c1,0.3,1.7,0.8,2.4,1.7
		c0.5,0.7,1.3,1.2,2.5,2.2C330.3,429.3,318.4,430,306.3,429.2z"/>
	<path fill="#FFFFFF" d="M260.4,419.8c0,1.4,0.1,2.4-0.5,3.6c-6.5-1.3-13.1-0.6-19.6-1.2c2.2-3.3,7.2-6.9,12.7-9.1
		C254,416.8,257.3,418.2,260.4,419.8z"/>
	<path fill="#FFFFFF" d="M224.7,574.5c-4.1,0.2-4.9-0.9-4.7-5.5c0.2-0.8,1.1-0.7,1.5-1.2c0.3-0.4,0.4-1.1,1.7-0.8
		C223.6,569.4,222.3,572.3,224.7,574.5z"/>
	<path fill="#FFFFFF" d="M316.1,308.3c-0.6-1.9-0.8-3.6-0.5-5.6c1.4,3.6,4.6,5.1,7.7,6.3c0,1.3-1,1.3-1.5,1.8
		C319.9,309.9,318.5,308,316.1,308.3z"/>
	<path fill="#FFFFFF" d="M290.6,339.8c0.6,1.5,2.7,2.4,1.3,4.8c-0.6,0.9,1.4,2.6,1.4,4.3C289.4,346.7,289,345.4,290.6,339.8z"/>
	<path fill="#FFFFFF" d="M464,210.8c-1.8,0.3-3.9,0.2-4.7,2.5c-0.9-0.8-1.1-1.6-1.3-2.5c0.5-1.2,1.6-1.5,2.6-2.2
		c0.6,0.3,1.1,0.6,1.7,1c1.1-0.6-0.7-1.6,0.6-2.3C463.6,208.3,464,209.4,464,210.8z"/>
	<path fill="#FFFFFF" d="M482.9,183.1c-2.7,2.8-5-0.7-7.4,0.1C479,181.3,481.3,181.3,482.9,183.1z"/>
	<path fill="#FFFFFF" d="M497,197.5c-1.1-0.2-1.7-0.3-2-0.8c-0.3-0.5-0.7-0.9-0.4-1.7c1.5-0.5,3.1-1.1,5.3-1
		C498.8,195.3,497.5,196.1,497,197.5z"/>
	<path fill="#FFFFFF" d="M472.8,179c1.7-0.1,3.3-0.7,4.9,0.5c-0.4,1.2-1.6,1.4-2.5,2.1C474.5,180.7,473.8,180,472.8,179z"/>
	<path fill="#FFFFFF" d="M508.5,181.5c-1.2-0.1-2.4-0.1-3.7-0.2c-0.4-1,0.9-1.2,0.9-2.1C507.1,179.4,507.8,180.4,508.5,181.5z"/>
	<path fill="#FFFFFF" d="M497.3,191.5c-1.6,0.6-2.8,1.1-4.6,0.9c1.4-1.2,2.4-2.5,4-2.9C497.6,190.1,497.3,190.8,497.3,191.5z"/>
	<path fill="#FFFFFF" d="M528.7,199c-0.8-0.5-1.6-0.9-2.7-1.4c0.9-0.7,1.7-1.2,2.9-2.1c-0.5,0-0.2-0.1-0.1,0
		C530.6,196.6,528.9,197.7,528.7,199z"/>
	<path fill="#FFFFFF" d="M485,206.4c1.3-0.1,2.6-1.2,4.4,0C487.6,207.1,486.4,208.9,485,206.4z"/>
	<path fill="#FFFFFF" d="M503.7,201.5c1.1,0.2,1.3,1,2.1,2.2c-1.5-0.4-2.6-0.2-3.8,0.8C502.2,203,502.4,202,503.7,201.5z"/>
	<path fill="#FFFFFF" d="M224.5,565c-1.3-1.2-0.4-2.2-0.3-3.2C225.9,562.9,225.9,562.9,224.5,565z"/>
	<path fill="#FFFFFF" d="M535,208.7c-2.5,1.6-4.5,1.3-6.4,1.2C530.4,209.1,532.3,208.6,535,208.7z"/>
	<path fill="#FFFFFF" d="M478.6,197.9c-0.2,1-0.4,1.9-0.7,2.8C476.3,198.7,476.3,198.7,478.6,197.9z"/>
	<path fill="#FFFFFF" d="M519.8,189.1c1,0.6,1.9,1.2,3.1,1.9C520.6,192.4,520.4,190.2,519.8,189.1z"/>
	<path fill="#FFFFFF" d="M530.6,205.7c-1.3,1-2.2,1.1-3.9,0.3C528.2,205.2,529.2,205.5,530.6,205.7z"/>
	<path fill="#FFFFFF" d="M512.5,208.9c-1.3-0.2-2.7-0.2-3.9-1.4C510.3,207.5,511.6,207.8,512.5,208.9z"/>
	<path fill="#FFFFFF" d="M388.8,209.2c1-0.8,2.1-1.2,3.5-0.9C391.6,210.4,390.1,209.5,388.8,209.2z"/>
	<path fill="#FFFFFF" d="M503.2,195.9c-0.7,1.4-1.7,1.2-3,1.3C501,196,501.7,195.6,503.2,195.9z"/>
	<path fill="#FFFFFF" d="M530.1,215.8c-1.4,0.4-2.4,0.1-3.5-0.8C527.9,214.4,528.8,215,530.1,215.8z"/>
	<path fill="#FFFFFF" d="M458.1,214.8c-1.3-0.6-1.3-1.9-1.7-3C457.5,212.5,457.9,213.5,458.1,214.8L458.1,214.8z"/>
	<path fill="#FFFFFF" d="M250.3,580.7c-1.3,0.7-2,0.1-2.9,0C248.3,580.2,249.1,580.3,250.3,580.7z"/>
	<path fill="#FFFFFF" d="M494.9,175.4c0.9-0.7,1.8-0.7,3-0.2C496.8,175.8,495.8,175.4,494.9,175.4z"/>
	<path fill="#FFFFFF" d="M489.7,189.5c0.5-1.1,1.1-1.1,1.8-0.8C491,189.5,491,189.5,489.7,189.5z"/>
	<path fill="#FFFFFF" d="M461.4,193c0.1,1.1-0.4,1.3-1.1,1.3C460.1,193.5,460.4,193.1,461.4,193z"/>
	<path fill="#FFFFFF" d="M504.3,197.8c-0.6,0.9-1.1,1-1.8,0.8C503,197.6,503.6,198,504.3,197.8z"/>
	<path fill="#FFFFFF" d="M461.4,205.3c0.4-0.8,1-1.3,2.2-1.1C462.9,204.9,462.3,205.4,461.4,205.3L461.4,205.3z"/>
	<path fill="#FFFFFF" d="M321.3,313.1c-1-0.1-1.4-0.6-1.8-1.2C320.4,311.7,320.9,312,321.3,313.1z"/>
	<path fill="#FFFFFF" d="M512.1,183.5c-1.1,0.2-1.3-0.3-1.5-0.8C511.4,182.4,511.6,183,512.1,183.5z"/>
	<path fill="#FFFFFF" d="M461.4,205.3c0,0.9-0.8,0.7-1.4,1.8C460.2,205.5,460.8,205.3,461.4,205.3L461.4,205.3z"/>
	<path fill="#FFFFFF" d="M482.4,205.6c0.2-0.5,0.5-0.7,0.9-0.2C483.1,205.9,482.8,205.9,482.4,205.6z"/>
	<path fill="#FFFFFF" d="M478.7,204.7c0.1-0.9,0.5-1.2,1.1-1.3C480.1,204.3,479.7,204.6,478.7,204.7z"/>
	<path fill="#FFFFFF" d="M470.9,197.7c0.6-0.5,0.8-0.7,1.1-0.9C472.5,197.6,472,197.7,470.9,197.7z"/>
	<path d="M823.9,380.6c-10.2-9.6-23.5-14.7-33.6-24.6c2-0.9,3.4-1.1,5.2,0.1c9.9,7.2,19,15.5,28.6,23.1
		C824.3,379.4,824.4,379.7,823.9,380.6z"/>
	<path d="M785.5,348.8c-6.8,1-26.8-9.5-33-17C763.5,337.5,774.2,343,785.5,348.8z"/>
	<path d="M756.7,314.1c6.9,5.4,14.9,9.2,21.5,15.1c3.5,3.2,6.9,6.4,9.7,10.3c0.9,1.3,1.9,2.5,2.4,4.3c-1.3,0.1-1.7-0.8-2.2-1.5
		c-7-9.4-15.8-17-26-22.8c-2.3-1.3-3.9-3.3-5.9-5c-0.1-0.2-0.1-0.4-0.2-0.6C756.3,314,756.5,314,756.7,314.1z"/>
	<path d="M726.9,364.4c-2.6-13.3-1-36.5,2.7-43.4c-0.5,7.3-2.9,14.4-2.8,21.8C726.9,349.9,726.5,357.2,726.9,364.4z"/>
	<path d="M745.6,295.3c-6.3-2.8-12.5-5.7-16-12.1c3,1.9,5.7,4,8.7,5.8C741,290.7,744.9,291.1,745.6,295.3z"/>
	<path d="M723,381.5c5.8,12,15.4,21.1,24.7,30.7C742.2,410.6,726.2,390.9,723,381.5z"/>
	<path d="M831.7,332c-6.3,5.5-12.8,10.8-21.1,13.1C818.5,342.1,824.2,335.7,831.7,332z"/>
	<path d="M824.6,319.3c-0.7-1-0.9-1.6-0.4-2.6c2.7-1.1,5.6-1.5,8.6,0.2C830,317.2,827.3,318.2,824.6,319.3z"/>
	<path d="M746.8,323.7c-1.2-5.2-3.3-10-5.3-14.9C744.8,313.2,747.3,317.9,746.8,323.7z"/>
	<path d="M758.3,383c4.6-2.3,9.9-2.2,15.1-3.9C772.3,380.9,763.9,383,758.3,383z"/>
	<path d="M756.3,314.5c-2.9-1.7-4.6-4.5-5.9-7.5c-0.6-1.4-0.8-2.8,1.4-3.4c-0.3,4.5,2.3,7.5,4.9,10.5
		C756.5,314.2,756.4,314.4,756.3,314.5z"/>
	<path d="M724.1,399c2,3.8,4.4,7.4,6.8,11.3C727.8,408.7,724.6,403.5,724.1,399z"/>
	<path d="M730,287.1c-0.6,3.6-0.3,7-0.2,10.5C728.4,294.1,728.2,290.5,730,287.1z"/>
	<path d="M796.4,325.3c-1-2.5-2-4.9-3-7.4C796.2,320.1,797,321.7,796.4,325.3z"/>
	<path d="M766.3,392.3c2.3-2.4,5.4-4,8-6.8C773.2,388.3,770.9,390.2,766.3,392.3z"/>
	<path d="M765.5,401.4c-1.9,2.9-5.1,3.1-8.1,3.9C759.8,403.4,763.1,403.3,765.5,401.4z"/>
	<path d="M782.9,371.7c2.7,1.2,2.7,4.1,4,6.2c-1.5-2-3.6-3.5-4.1-6L782.9,371.7z"/>
	<path d="M773.2,371c-2-1.4-4.4-1.4-6.9-1.4C769.2,368.2,771.4,368.7,773.2,371z"/>
	<path d="M721.7,379.5c-1-1-1.8-2.1-2.3-4.2C720.9,376.8,721.5,378,721.7,379.5z"/>
	<path d="M747.5,304.1c-0.9,0.7-1.4,0.1-2-0.3C746.2,303.7,746.9,303.2,747.5,304.1z"/>
	<path d="M840.3,334c1.8-0.2,1.6,0.5,0.8,1.6C840.1,335.2,840.6,334.4,840.3,334L840.3,334z"/>
	<path d="M853,376.2c-0.4,0-0.6,0.1-1,0.1C852.4,375.8,852.7,375.9,853,376.2z"/>
	<path d="M803.3,184.3c-0.4,1.8-1.8,1.8-2.9,2.1c-2.5,0.8-4.9,1.6-7,3.2c-1.4,1-2.2,2.1-1,3.8c-0.3,0.2-0.5,0.4-0.7,0.4
		c-3.7-0.4-6.8,0.5-9.7,3.2c-1.6,1.4-4,1.9-6.3,2.8c-1-1.7-3.1-0.2-4.5-1.2c0.3-1.4,1.3-1.8,2.2-1.5c3.9,1.1,6.2-1.8,9.1-3.3
		c0.2-0.1,0.3-0.3,0.5-0.4c3.7-1.7,7.2-3.4,9.9-6.9C795.1,183.8,800.6,183.3,803.3,184.3z"/>
	<path d="M823.7,210.9c5.5,0.3,10.8-0.4,15.8,1.6c2.3-1.4,5.8-0.3,8.5,2.9c2.1,2.4,1.6,4.7-1.7,8.4c-0.4-0.1-0.4-0.5-0.4-0.8
		c0.9-5.4-0.9-7.6-6.4-9.1c-3.9-1-7.9-1.7-11.9-2C826.4,211.9,825.2,211.6,823.7,210.9z"/>
	<path d="M765.8,209.7c8.1,1,16.7-0.9,24,4.6c-4.3,1-8-1.4-12-1.9C773.7,212,769.7,211.3,765.8,209.7z"/>
	<path d="M734.1,198.5c-8.1,2.6-16.2,2.5-24.5,1C711.3,198.5,732.2,197.3,734.1,198.5z"/>
	<path d="M853.6,201.9c-4.2-5.5-10.8-4.7-16.2-7.3c5.3-1,10.1-0.1,14.6,2.4C854.1,198.2,854.4,199.3,853.6,201.9z"/>
	<path d="M722.4,192.9c-1.3,0.7-13.4,0.2-15.3-0.7C711.5,191,718.1,191,722.4,192.9z"/>
	<path d="M725.5,193.5c3.9-1.2,7.6,0.2,11.5-0.5C735.5,195.7,729.3,195.9,725.5,193.5z"/>
	<path d="M797.6,223.9c1,2.9,3.9,4.5,4.7,7.6C799.1,231.6,797.6,229.3,797.6,223.9z"/>
	<path d="M706.8,199.4c-4.2-0.1-8.2-1.4-12.4-0.8C698.6,197.1,702.8,197.7,706.8,199.4z"/>
	<path d="M641.6,209.1c1.2-3.4,3.1-4.4,6.8-4C646.2,206.9,643.3,207,641.6,209.1z"/>
	<path d="M639.9,210.4c2.2,1.5,2,3.6,2.7,5.5C639.4,214.9,639,214,639.9,210.4z"/>
	<path d="M744,192.2c2.3-0.6,2.5-3.4,4.6-4.5C749.3,190.7,748.3,191.8,744,192.2z"/>
	<path d="M766.7,200.6c-0.8-0.7-0.1-1.3-0.5-1.8c-1.4-0.9-2,1.3-3.3,0.9c1-2,2.2-2.5,5.5-2.4C767.8,198.4,767.3,199.4,766.7,200.6z"
		/>
	<path d="M711.3,181c-2.6,0.8-5.2,0-7.8-0.3C706.1,179.7,708.7,180,711.3,181z"/>
	<path d="M835.4,203c-2.7-0.4-5.4-0.8-8.3-1.2C830.3,200.7,832.4,200.9,835.4,203z"/>
	<path d="M792.2,217.5c2.3,1,3.5,2.1,4,4C794.2,221.5,794.2,221.5,792.2,217.5z"/>
	<path d="M816.9,203.5c-2,0.3-4.1,0.7-6.1,1c1.9-1.8,4.2-1.3,6.2-1.9C817,202.9,817,203.2,816.9,203.5z"/>
	<path d="M837.1,238.3c2.2-1.1,4.1-1.6,6.7-1.9C841.6,238.3,839.5,238,837.1,238.3z"/>
	<path d="M645.2,201.4c-1.5,1.3-2.7,2.1-4.7,1.7C641.7,201.3,643.2,201.3,645.2,201.4z"/>
	<path d="M833.8,194.2c-1.7,1.4-3.1,0.4-4.5,0.7C830.7,194.9,831.8,193.4,833.8,194.2z"/>
	<path d="M642.5,193.7c1.3-1.1,1.3-1.1,3.3-1C644.4,193.8,644.4,193.8,642.5,193.7z"/>
	<path d="M731.6,182.7c1.3-0.6,2.3-0.7,3.3-0.3C733.7,183.5,733.7,183.5,731.6,182.7z"/>
	<path d="M725.2,183.2c1.2-0.9,2.2-0.2,3.7,0C727.4,184.8,726.3,183.7,725.2,183.2z"/>
	<path d="M843.4,206c-1.8-0.2-3-0.4-4.2-2C841,204.3,842.2,204.6,843.4,206z"/>
	<path d="M656.4,199.1c-0.9,0.9-1.6,1.3-2.6,1.1C654.1,198.8,655,198.9,656.4,199.1z"/>
	<path d="M819.4,198.1c-0.7,1.5-2,1.2-3,1.5C817.1,198.6,817.8,197.5,819.4,198.1z"/>
	<path d="M846,229.9c0.1-1.2,0.5-2.2,1.7-2.9C848.2,228.9,847.1,229.4,846,229.9z"/>
	<path d="M755.6,193.5c0.4,1.6-0.3,2.3-1.2,3.2C753.6,195,754.2,194.3,755.6,193.5z"/>
	<path d="M720.4,205.7c-1.3,0.9-2.2,0-3.1,0.1C718.2,205.5,719.1,205.3,720.4,205.7z"/>
	<path d="M811.2,210.5c1-0.7,1.7-0.6,2.7-0.1C813.1,211,812.4,211.6,811.2,210.5z"/>
	<path d="M692.9,182.2c-0.9,0-1.7,0-2.6,0c-0.1-0.1-0.1-0.2-0.2-0.3C691.1,181.4,692.1,181.8,692.9,182.2z"/>
	<path d="M764.2,208.6c-1.4,0-1.7-0.7-2.1-1.6C763.4,207,763.9,207.5,764.2,208.6z"/>
	<path d="M651.1,203.6c-0.5,0.6-0.9,1.4-1.9,0.8C649.5,203.3,650.1,203,651.1,203.6z"/>
	<path d="M645.6,211.2c0.2-1.1,0.8-1.1,1.5-0.9C646.9,211,646.5,211.3,645.6,211.2z"/>
	<path d="M843.3,227.2c0.8-0.1,1.2,0.2,1.2,0.9C843.6,228.5,843.3,228.2,843.3,227.2z"/>
	<path d="M823.1,238.8c0.5-0.2,0.9-0.3,1.4,0C824,239.1,823.6,239.2,823.1,238.8z"/>
	<path d="M742.7,197.4c-0.2,0.6-0.5,1-1,0.7c-0.1-0.1-0.3-0.4-0.3-0.5C741.6,197.1,742,197.1,742.7,197.4z"/>
	<path d="M796.2,275.5c-5-12.4-10-24.8-9.7-38.6c1,6.6,2,13.2,4.2,19.6c2.1,6.2,4.3,12.5,6.4,18.7
		C796.8,275.3,796.5,275.4,796.2,275.5z"/>
	<path d="M829.5,280.8c10.2,1.8,27.7,14.9,28.7,21.9c-6-10.1-16-14.5-25.4-19.5c-1.1-0.6-2.2-1.2-3.2-1.8
		C829.5,281.3,829.5,281,829.5,280.8z"/>
	<path d="M853.9,299.3c-10.8-6.6-21.4-13.4-32.6-19.3C825.8,280.7,847.5,293.6,853.9,299.3z"/>
	<path d="M847.4,275.8c5.1,0.6,10.2-0.2,15.5-0.2C859.6,278.2,850.7,278.4,847.4,275.8z"/>
	<path d="M874.2,268.2c-2.5,2.6-6,3.6-9,5.4C867.5,270.7,870.7,269.1,874.2,268.2L874.2,268.2z"/>
	<path d="M864.2,287.5c2.9-0.1,5.3-1.1,7.8,0.2C869.9,289,868.2,288.9,864.2,287.5z"/>
	<path d="M820.3,282.3c2.5,1.6,5,3.3,7.5,4.9c-3.1-0.8-5.6-2.5-7.9-4.5c-0.1-0.2-0.1-0.4-0.2-0.6
		C819.9,282.1,820.1,282.2,820.3,282.3z"/>
	<path d="M751,266.4c-1.2-1.9-0.6-3.4,1.1-5.1C752.4,263.3,751.9,264.9,751,266.4z"/>
	<path d="M764,267.6c0.4,1.4,0.7,2.9,1.1,4.3c-1.4-1.1-1.4-2.6-1.7-4.1C763.6,267.7,763.8,267.7,764,267.6z"/>
	<path d="M814.6,270.4c-1.4-0.6-2.7-1.3-4.1-1.9c1.8-0.2,3.2,0.4,4.3,1.7L814.6,270.4z"/>
	<path d="M817.2,280.6c-1.5-0.8-2.7-1.9-4.2-3.8c2.3,0.9,3.4,2.2,4.6,3.4c0.1,0.2,0.1,0.4,0.2,0.6
		C817.6,280.7,817.4,280.7,817.2,280.6z"/>
	<path d="M820.2,294.6c0.9,0.1,1.8,0.3,2.6,1.2C821.6,295.7,820.7,295.5,820.2,294.6L820.2,294.6z"/>
	<path d="M820.2,294.6c-1,0.2-1.9-0.3-3-1C818.6,293.5,819.4,294,820.2,294.6L820.2,294.6z"/>
	<path d="M817.6,280.2c1.1,0.5,2,1.2,2.7,2c-0.1,0.1-0.3,0.3-0.4,0.4c-1.1-0.4-2-1.1-2.7-2C817.3,280.5,817.5,280.4,817.6,280.2z"/>
	<path d="M874.3,268.3c0.4-0.9,1.1-1.3,2.2-1.3C875.8,267.9,875.2,268.3,874.3,268.3L874.3,268.3z"/>
	<path d="M830.4,298.2c0.4,0,0.7,0,1.1,0C831.1,298.7,830.8,298.7,830.4,298.2z"/>
	<path d="M770,241.7c-0.1,1-0.3,1.4-1,1.5C768.8,242.5,769.3,242.3,770,241.7z"/>
	<path d="M816.7,271.6c-1,0-1.6-0.5-2.1-1.3c0,0,0.2-0.3,0.2-0.3C815.7,270.3,816.5,270.7,816.7,271.6L816.7,271.6z"/>
	<path d="M816.7,271.6c0.8-0.1,1.2,0.3,1.9,1.2C817.6,272.6,816.9,272.5,816.7,271.6L816.7,271.6z"/>
	<path d="M820,273.9c0.4-0.1,0.8,0.2,0.8,0.4c-0.1,0.6-0.4,0.1-0.5,0C820.1,274.3,820.1,274.1,820,273.9z"/>
	<path d="M812.4,276.3c-0.5-0.3-0.9-0.6-0.9-1.4C812.2,275.2,812.6,275.4,812.4,276.3z"/>
	<path d="M778.7,292.7c-0.7-0.1-1.3-0.4-1.7-1.2c1-0.1,1.4,0.4,1.8,1.1L778.7,292.7z"/>
	<path d="M949.6,210.2c3.1-0.3,6.4-0.1,9.6,0c1,0.9,2,1.8,3,2.7c-0.3,0.8-1.4,1.1-0.9,2.2c-4.3-0.4-8.4-0.6-11.8-3.2
		C949.2,211.6,949.1,211.1,949.6,210.2z"/>
	<path d="M965.5,210.4c-3.7-0.4-6.3-2.1-8.8-3.9c-2.6-1.9-6.2,1-8.8-1.9C953.6,202.2,962.7,205.1,965.5,210.4z"/>
	<path d="M885.6,280.8c-0.8,3.4-3.3,5.2-6.4,6.4c-1.5-1.1-1.1-2.1,0.1-2.8C881.4,283.2,883.4,282,885.6,280.8z"/>
	<path d="M886.8,279.9c0.4-2.6,1.9-3.2,4.3-3.7C889.8,278,889.5,279.8,886.8,279.9z"/>
	<path d="M899.7,217.5c0.5,2-0.6,3.7-0.6,5.5C898,220.9,898.1,219.7,899.7,217.5z"/>
	<path d="M913.2,250.4c1.1-1.1,1.9-1.6,3.1-1.2C915.4,250.2,915.4,250.2,913.2,250.4z"/>
	<path d="M896.4,271c-0.1,0.9-0.6,1.4-1.5,1.5c-0.6-0.7,0-1,0.3-1.4C895.5,270.8,895.9,270.5,896.4,271z"/>
	<path d="M892.5,267.1c0.6-1.4,1.4-0.7,2.2-0.9C894.1,267.3,893.5,267.5,892.5,267.1z"/>
	<path d="M719.5,473.6c1.3,2.8,1,5-1.3,6.8c-0.8,0.6-0.8,1.5-1.1,2.3c-0.3,1.1-0.2,2.5-1.7,3C714.8,483,716.9,476.2,719.5,473.6z"/>
	<path d="M729.1,446.7c2.6,3.1,2.5,7.2,3.5,10.9c-2-3.3-4.4-6.4-4.9-10.3C728.2,447,728.6,446.8,729.1,446.7z"/>
	<path d="M697.9,534c0.5,3.7,0.1,7.4,0.1,11.1c-0.3,0-0.6,0-0.9,0c0-3.7,0-7.4,0-11.1C697.4,534,697.7,534,697.9,534z"/>
	<path d="M708.9,496.5c0.5-3,2.5-5,3.7-7.5C712.5,492.1,711.8,495,708.9,496.5z"/>
	<path d="M728,437.6c1.8,2,2.3,4.3,1.7,6.9C728.2,442.5,728.2,440,728,437.6z"/>
	<path d="M745.7,436.9c2,0.8,2,2.7,3.6,3.9C745.5,440.7,744.6,439.6,745.7,436.9z"/>
	<path d="M711.9,539.7c0-2.6,0.3-5.1,2.1-7.2C713.9,535.1,713.9,537.7,711.9,539.7L711.9,539.7z"/>
	<path d="M751.9,453.4c-1.9,1.7-3.5,1.1-5.8-0.3C748.4,453,750,451.6,751.9,453.4z"/>
	<path d="M733.5,458.1c3.1,1.1,2.3,3.1,1.9,5.4C733.7,461.9,733.2,460.4,733.5,458.1z"/>
	<path d="M765.4,430.6c-0.6,1.1-1.2,2.2-1.9,3.3C762.2,431.7,764,431.2,765.4,430.6z"/>
	<path d="M721.3,468c0.6,1.4,0.9,2.8-0.3,4.4C719.9,470.6,721.3,469.3,721.3,468z"/>
	<path d="M736.6,470c-1.1-1.2-1.2-2.4,0.1-3.7C737.9,467.7,737,468.9,736.6,470z"/>
	<path d="M737.2,472c0.7,1.6-0.2,2.3-1.3,3.3C735.2,473.6,735.9,472.8,737.2,472z"/>
	<path d="M721.7,462.2c0.8,1.1,0.4,1.7-0.1,2.7C720.5,463.7,721,463,721.7,462.2z"/>
	<path d="M699.3,527.1c0.3,0.7,0.1,1.3-0.5,1.8C698.3,528.1,698.7,527.6,699.3,527.1z"/>
	<path d="M640.6,564.5c5.7-0.9,11.1-2.8,17-4.6C653.9,562.8,644.8,565.3,640.6,564.5z"/>
	<path d="M633.4,564.8c-1.2,0.7-2.3,0.4-3.7,0C631.2,563.6,632.3,564,633.4,564.8z"/>
	<path d="M638.3,570.9c-0.3-1.3-0.5-2.4,0.8-3.2C640,569.2,638.8,570,638.3,570.9z"/>
	<path d="M637.1,576c0.5,0.4,0.3,0.8,0.2,1.2C636.4,576.9,637.1,576.4,637.1,576z"/>
	<path d="M830.2,424.6c-4.7-3-8.5-10.2-6.8-14.4C825.7,415,827.9,419.8,830.2,424.6L830.2,424.6z"/>
	<path d="M851.3,424.2c-1.7,2.2-3.4,4.6-5.7,6.5C845.7,428.2,846.6,427.1,851.3,424.2z"/>
	<path d="M807.5,402.5c3.1,0.3,2.4,3.1,3.5,4.8C808.9,406.5,808,404.7,807.5,402.5z"/>
	<path d="M853.5,413.5c-1.8-2.2-0.5-4.4-0.2-6.6C855.2,409.2,852.9,411.4,853.5,413.5L853.5,413.5z"/>
	<path d="M817.7,423.6c2.1-0.7,3.6-0.9,5.3,0.8C821,424.7,819.5,425,817.7,423.6z"/>
	<path d="M822.3,406.8c-1.2-0.5-1.6-1.5-2.1-3.2C821.8,404.5,822.3,405.5,822.3,406.8z"/>
	<path d="M853.4,413.6c0.7,1.8,0.5,3.5-0.5,5.6C852.4,416.9,853.4,415.3,853.4,413.6L853.4,413.6z"/>
	<path d="M812.5,410.4c1.3,0.4,1.6,1.1,1.6,2.3C813,412.4,812.5,411.8,812.5,410.4z"/>
	<path d="M830.2,424.6c1.5,0,2,1.3,2.9,2.6C831.2,426.9,830.6,425.8,830.2,424.6L830.2,424.6z"/>
	<path d="M834.5,429.4c-0.2-0.4-0.6-1-0.5-1.1c0.6-0.5,0.9,0,1.1,0.5C834.9,429,834.7,429.2,834.5,429.4z"/>
	<path d="M713.7,435.9c-5.5,0-11,0.9-16.4-0.7C702.8,435.3,708.3,434.8,713.7,435.9z"/>
	<path d="M668.6,444.4c-1.7-3.6-0.1-7.3-0.8-11c0-0.2-0.6-0.2-0.9-0.3c0.7-0.5,1.3-0.1,2.3,0.1C669.3,436.9,667.7,440.6,668.6,444.4
		z"/>
	<path d="M689.2,445.7c-0.6-3.7,0.8-7.3,0.8-11.1C690.6,438.3,689.5,442,689.2,445.7z"/>
	<path d="M715.9,582.6c-0.5,1.9-2,1.8-3.5,1.7c-4.8-0.2-9.5-1.4-14-2.9C701.8,578.5,713.5,579.4,715.9,582.6z"/>
	<path d="M706.1,591.8c4.3-1.4,8-0.2,12-1.2c-0.2,3.9-3.9,2.5-5.1,4.4C711.2,593.1,708.6,593.4,706.1,591.8z"/>
	<path d="M690.8,587c0.7-0.5,1.4-1.2,2.2-1.5c1.1-0.4,2.2-0.3,3.1,0.6c1,1,1.2,2.1,0.8,3.4c-0.5,1.5-1.8,2.5-2.7,3.7
		C690,591.5,689.7,591,690.8,587L690.8,587z"/>
	<path d="M679.2,582.5c1.1-2,2.4-3.9,4-5.6c4.1,2.2,4.2,2.9,0.8,6.1c-0.7,0.7-0.1,1.8-1.2,2.2c-1.6-0.5-0.2-2.1-1.1-3
		C680.8,581.5,680.5,583.5,679.2,582.5z"/>
	<path d="M690.8,587c-0.4,0.2-0.8,0.5-1.1,0.7c-1.4,1-2.9,1.3-4.2-0.1c-1.3-1.4-1-2.9-0.2-4.4c0.9-1.5,2.2-2.2,4-1.8
		C691.3,581.9,691.7,583.5,690.8,587L690.8,587z"/>
	<path d="M705.1,407.1c1,0.8,1.4,1.5,1.2,2.4c-0.2,0.1-0.5,0.3-0.6,0.2C704.5,409.2,703.9,408.5,705.1,407.1z"/>
	<path d="M282.9,256.4c-1.3-4.7-2.4-8.9-0.2-13.2c0.4-0.9,0.5-2,0.4-3c-0.2-5.2,1-10.3,3.2-14.7c1.5-2.9,2-6,3.7-8.7
		c0.6-0.9,1-1.8,2.6-1.2c1.1,1.6,0.6,3.4-0.5,4.8c-3.5,4.5-2.6,9.5-2,14.5c0,0.3,0.1,0.7-0.4,1c-1.5-1.8-1.6-4.2-2.5-6.8
		C284.2,238.1,283.9,246.9,282.9,256.4z"/>
	<path d="M397.1,244.8c-4-2.9-6.2-7.7-11.2-9.4c-4.6-1.6-9.5-0.7-14.5-1.9c1.1-2,2.6-1.8,4-1.6c3.8,0.5,7.4,2.1,11.1,2.9
		c3.3,0.7,5.8,2.3,8.1,4.4C396.1,240.6,397.3,242.4,397.1,244.8z"/>
	<path d="M361.1,264c-7.5,0.6-18.5-13.2-17-18.8c1.8,1.4,3.1,2.9,2.1,5.2C349.7,256.6,355.3,260.4,361.1,264z"/>
	<path d="M303.7,223.1c4-1.6,6.2,0.6,9.3,2.4C309.2,226.7,306.9,224.7,303.7,223.1z"/>
	<path d="M334.8,239.1c-2,2.6-4.9,2.6-7.9,2.5C329.3,239.9,331.7,238.3,334.8,239.1z"/>
	<path d="M297,340.7c-1.4-3-1.3-6.2-0.8-9.4c0.3,0,0.7-0.1,1-0.1c0.3,3.1,0.6,6.2,0.9,9.4C297.7,340.6,297.4,340.7,297,340.7z"/>
	<path d="M291.5,290.9c0.5,2.5,2,4.7,1.6,7.4C291.4,296.1,290.3,293.8,291.5,290.9z"/>
	<path d="M309.9,301.3c-2.6-4.1-2.6-5.2-0.1-8C308.8,295.8,309.9,298.3,309.9,301.3z"/>
	<path d="M340.5,235.3c-2.5-0.4-4.3-2.2-6.3-3.5c0.1-0.2,0.2-0.4,0.3-0.6c2.2,1,4.3,2,6.5,3C340.8,234.5,340.6,234.9,340.5,235.3z"
		/>
	<path d="M283.1,258c1.4,1.8,2.1,3.9,2.3,6.8C283.5,262.6,282.5,260.6,283.1,258z"/>
	<path d="M296.3,247.8c-2.3-1-2.7-2.6-3.3-4.2C294.7,243.8,294.7,243.8,296.3,247.8z"/>
	<path d="M392,250.8c1-1.2,2-2.5,3.2-3.9C395.4,249.5,395.4,249.5,392,250.8z"/>
	<path d="M364.8,220.1c-1.2,2-2.7,1.5-3.9,1.8C361.5,220.2,362.6,219.8,364.8,220.1z"/>
	<path d="M304.5,339c-0.3-1.8-0.6-3-0.3-4.7C305.3,335.9,306.6,337,304.5,339z"/>
	<path d="M316.7,318.1c-2.4-1.1-2.7-2.9-3.4-4.3C315,314.5,316.1,315.6,316.7,318.1z"/>
	<path d="M310,302.5c1.8,1.7,1.8,1.7,0.6,4C309.5,305.1,310.4,303.8,310,302.5z"/>
	<path d="M302.9,332.8c-1.1-1.7-0.6-3.1-1.1-4.4C303.5,329.9,303.5,329.9,302.9,332.8z"/>
	<path d="M302.1,345.8c-2.1,0.5-3-0.5-4-1.2C299.7,343.7,300.7,344.2,302.1,345.8z"/>
	<path d="M301,220.6c-1.3-0.7-2.8-1.2-3.7-2.9C299.6,217.6,300,219.6,301,220.6z"/>
	<path d="M371.1,255.5c1.9-0.3,3.1-0.4,4.4,0.6C373.9,257.2,372.8,256.9,371.1,255.5z"/>
	<path d="M311.9,328.2c1.4,1.2,1.5,2.4,1.7,4.4C312,331.1,311.8,329.9,311.9,328.2z"/>
	<path d="M321.1,226.1c-1.6,0.5-2.7,0.3-4-0.3C318.9,224.8,318.9,224.8,321.1,226.1z"/>
	<path d="M290.6,237c1.4,0.9,1.1,1.9,0.7,2.9C290.9,239.1,289.7,238.5,290.6,237z"/>
	<path d="M350.3,233.8c-0.2,1.4-0.4,2.3-1.8,2.5C348.4,235,349,234.4,350.3,233.8z"/>
	<path d="M301.7,225.4c1.5,0.8,2.2,1.5,2,2.9C302.4,227.9,302.3,226.8,301.7,225.4z"/>
	<path d="M343.2,240.1c-1.1-1.1-1-1.9-0.3-3.2C343.8,238,343.9,238.8,343.2,240.1z"/>
	<path d="M384.2,254.6c1.4-0.8,2.5-0.6,3.5-0.6C386.8,255,385.7,254.8,384.2,254.6z"/>
	<path d="M312.1,311c-1.2-1.3-1.5-2.1-0.8-3.3C312.1,308.6,312.3,309.4,312.1,311z"/>
	<path d="M367.2,233.7c0.7-1.4,1.3-1.7,2.2-1C369.1,233.8,368.3,233.6,367.2,233.7z"/>
	<path d="M317.6,241.7c-0.1,0.5-0.5,0.8-0.9,0.6c-0.3-0.1-0.6-0.4-0.6-0.7c-0.1-0.5,0.3-0.8,0.8-0.8
		C317.2,240.9,317.6,241.2,317.6,241.7z"/>
	<path d="M323.6,226c0.6-0.4,1.1-0.6,1.6,0.2C324.3,226.7,324.3,226.7,323.6,226z"/>
	<path d="M307.3,343.9c-0.8,0-1.1-0.5-1.4-1.1c0.9-0.5,1.4-0.1,1.7,0.5C307.4,343.5,307.3,343.7,307.3,343.9z"/>
	<path d="M287.3,274.2c-0.5-0.6-0.6-1.1-0.2-1.7C288,272.8,288.2,273.2,287.3,274.2z"/>
	<path d="M285.3,266.1c1.4,0.4,1,1.3,0.8,2.2C284.9,267.8,284.9,267.1,285.3,266.1z"/>
	<path d="M312.8,335.2c0.8,0.2,1,0.5,0.9,1.2C312.6,336.5,312.6,336,312.8,335.2z"/>
	<path d="M313.7,340.7c1.2,0,1.5,0.6,1.7,1.4C314.3,342.2,313.9,341.6,313.7,340.7z"/>
	<path d="M295.1,322.4c-0.1-0.6-0.1-0.9,0.3-1c0.4-0.1,0.6,0.2,0.6,0.5C295.9,322.3,295.6,322.4,295.1,322.4z"/>
	<path d="M359.3,224.3c0.1,0.9-0.4,1-1,1.2C358.1,224.4,358.6,224.2,359.3,224.3z"/>
	<path d="M326.8,225.9c0.7-0.1,1,0,1.1,0.5c0,0.1-0.2,0.4-0.3,0.4C327.1,226.9,326.8,226.6,326.8,225.9z"/>
	<path d="M343.1,241.9c1,0.6,0.8,1,0.4,1.5C342.7,243,342.9,242.6,343.1,241.9z"/>
	<path d="M289.2,284c0.6,0.7,0.6,1.3,0.1,1.8C288.6,285.3,288.6,284.8,289.2,284z"/>
	<path d="M264.7,326.8c-3.3,14.4-3.4,28.9-2.8,43.6C260.3,355.7,259.7,341.1,264.7,326.8z"/>
	<path d="M255.5,382.2c6.3,14.2,16.7,25.4,28.3,36.5C276.2,415.6,259.6,394.3,255.5,382.2z"/>
	<path d="M271.2,278.4c1.4-2.1,2.9-4.3,4.4-6.5c0.1,2.6-1.6,4.2-2.9,6.2c4,4.8,9.7,8.4,11.9,14.8C280.3,288,275.7,283.4,271.2,278.4
		z"/>
	<path d="M293.2,388.7c4.7-2.1,9.9-2.3,15.2-3.7C307.1,386.8,297.3,389.1,293.2,388.7z"/>
	<path d="M265.5,416c-3.2-3.2-5.7-6.7-6.4-11.3C261.1,408.5,263.6,412.1,265.5,416z"/>
	<path d="M265.8,291.8c-1.2,4-1,8.1-0.7,12.2c-1.5-2.9-1.6-6-1.1-9.1C264.2,293.7,264.5,292.4,265.8,291.8L265.8,291.8z"/>
	<path d="M291.9,411.3c2.6-2,6-2.2,8.8-4.7C299.3,409.2,298.2,409.9,291.9,411.3z"/>
	<path d="M302.3,397.4c0.4-0.4,0.7-0.8,1.2-1.2c1.7-1.3,3.5-2.6,5.4-3.8c-1.6,2.4-3.9,3.9-6.4,5.2L302.3,397.4z"/>
	<path d="M308.6,376.9c-2.1-1.3-4.5-1.6-6.9-2.1C304.3,374.6,307,373.9,308.6,376.9z"/>
	<path d="M286.3,309.9c-1.5,1.8-3,0.2-4.5,0C283.2,309,284.8,309.6,286.3,309.9z"/>
	<path d="M273.5,310.4c0.5,0,1,0.1,1.6,0.1C274.6,311.8,274.1,311.2,273.5,310.4z"/>
	<path d="M302.5,397.6c-0.3,0.6-0.8,1-1.5,1.1c0-1,0.6-1.1,1.3-1.3L302.5,397.6z"/>
	<path d="M492.2,227.3c4.5,0.3,9.5-1.1,12.8,3.7c-0.6,0.6-1.1,1.3-1.7,2C499.1,232,494.7,231.6,492.2,227.3z"/>
	<path d="M491.2,221.5c5.6-2.5,15.4,2.1,16.8,7.4c-3.3-0.8-5.7-2.7-8-4.8C497.5,221.9,493.7,224.2,491.2,221.5z"/>
	<path d="M412.8,292.1c1.9-3.4,5.7-3.3,7.5-5.9C420.1,290,416.7,292.8,412.8,292.1z"/>
	<path d="M440.2,225.9c-0.2-2.4-1.3-4.6-0.4-7C440.5,221.2,441.9,223.4,440.2,225.9z"/>
	<path d="M422.1,286c-0.1-3,1.7-3.4,4.1-4.3C425.1,283.7,424.4,285.3,422.1,286z"/>
	<path d="M442.4,228.7c-0.2,2.2-0.8,3.9-1.5,5.9C440.1,231.6,440.3,231,442.4,228.7z"/>
	<path d="M456,262.3c-1.4,1.5-2.4,0.9-3.6,1C453.3,261.9,454.3,262,456,262.3z"/>
	<path d="M430.1,272.2c-1.1,0.9-1.8,1-2.6,0.5C428,271.7,428.8,271.7,430.1,272.2z"/>
	<path d="M429.8,278.1c-0.2-1,0.4-1.3,1.2-1.6c0.9,0.5,0.2,0.9-0.1,1.2C430.6,278,430.3,278.4,429.8,278.1z"/>
	<path d="M427.4,279.4c0.2,1-0.2,1.3-0.7,1.5C426,280.1,426.6,279.8,427.4,279.4z"/>
	<path d="M352.3,267.4c1.7,7.2,5.1,13.5,10.8,18.6c-1.5,0.7-2.2-0.1-2.7-0.7c-4.6-4.1-7.4-9.2-8.6-15.2
		C351.5,269.2,351.2,268.1,352.3,267.4L352.3,267.4z"/>
	<path d="M397.8,281.8c-5.2,1.2-10.3,2.7-15.4,0C387.5,281.6,392.7,281.9,397.8,281.8z"/>
	<path d="M335.7,284.9c1.5,4.2,1.5,8.4,1.5,12.7C335.5,293.4,335.6,289.1,335.7,284.9z"/>
	<path d="M326,260.1c0,3.5-2,6.3-3.3,9.4c0-3.1,0.7-6,1.9-8.8C324.9,260.1,325.5,260.1,326,260.1L326,260.1z"/>
	<path d="M409.9,273.6c-2.8,2.7-6.5,3.9-9.9,5.7C402.8,276.5,406.1,274.6,409.9,273.6L409.9,273.6z"/>
	<path d="M399.9,293.7c2.4-0.3,4.8-1.9,7.5-0.2C404.7,295.6,402.3,293.3,399.9,293.7z"/>
	<path d="M327.9,266c0,0.4-0.1,0.7-0.1,1.2C327.5,266.7,327.4,266.4,327.9,266z"/>
	<path d="M327.3,270.1c0,0.4-0.1,0.7-0.1,1.2C326.9,270.8,326.8,270.5,327.3,270.1z"/>
	<path d="M410,273.7c0.1-0.7,0.6-1,1.3-1C411.2,273.6,410.6,273.7,410,273.7L410,273.7z"/>
	<path d="M335.2,279.3C335.2,279.8,335.2,279.6,335.2,279.3C335.2,279.6,335.3,279.8,335.2,279.3z"/>
	<path d="M250.4,491.5c0.6-4.3,1-8.6,3.9-12.6c0.9,1.5,1.4,2.6,1,3.6C254.3,485.8,251.7,488.3,250.4,491.5z"/>
	<path d="M264.1,452.4c2.7,3.1,2.5,7.2,3.6,10.9c-2.1-3.3-4.3-6.5-5-10.3C263.1,452.8,263.6,452.6,264.1,452.4z"/>
	<path d="M232.2,550.8c0-3.7,0-7.5,0-11.2c0.3,0,0.5,0,0.8,0c0.5,3.7,0.3,7.5,0,11.2C232.7,550.8,232.4,550.8,232.2,550.8z"/>
	<path d="M279.5,470.7c-0.1-3.8,0.1-7.5,1.9-10.9l-0.1-0.1c0.9,0.8,1.2,1.9,0.9,3.1C281.4,465.4,281,468.2,279.5,470.7L279.5,470.7z
		"/>
	<path d="M243.3,502.5c0.9-2.8,2.6-4.6,3.7-6.8C247.7,498.7,246.4,501.3,243.3,502.5z"/>
	<path d="M263.1,443.3c1.7,2.1,2.2,4.5,1.6,7.1C263.5,448.2,263,445.9,263.1,443.3z"/>
	<path d="M268.7,463.8c3,1.2,2,3.2,1.9,5.2C268.7,467.4,268.5,467,268.7,463.8z"/>
	<path d="M284,446.6c-3.9-0.6-4.5-1.4-3.1-3.8C282.9,443.4,282.7,445.5,284,446.6z"/>
	<path d="M281.4,459.8c1.4-2.6,3.4-1.2,5.3-0.8C285.1,461.1,283.1,459.6,281.4,459.8L281.4,459.8z"/>
	<path d="M271.7,476.1c-1.3-1.5-1.2-2.7-0.1-4.1C273.1,473.4,272.1,474.6,271.7,476.1z"/>
	<path d="M256.6,473.7c0.4,1.5,0.5,2.8-0.2,4.3C255.6,476.3,255.6,476.3,256.6,473.7z"/>
	<path d="M272.5,477.7c0.2,1.8-0.3,2.6-1.6,3.1C270.4,479.3,271,478.5,272.5,477.7z"/>
	<path d="M298.1,439.7c-0.9-1.7,0.1-2.3,1.3-3.2C299.8,438.1,299.2,438.8,298.1,439.7z"/>
	<path d="M233.6,534.5c-0.1-0.7,0.4-1.2,0.7-2.2c0.2,1.1,0.2,1.7-0.3,2.2C233.8,534.8,233.7,534.8,233.6,534.5z"/>
	<path d="M256.7,470.8c-1-1.4-0.8-2.1,0.1-2.7C257.4,468.9,257,469.6,256.7,470.8z"/>
	<path d="M256.8,463.9c0.6,0.5,0.5,0.9,0,1.3C256.3,464.8,256.3,464.3,256.8,463.9z"/>
	<path d="M375.4,339.3c1,0.3,1.9,0.6,0.7,1.9C375.1,340.8,375.8,339.8,375.4,339.3L375.4,339.3z"/>
	<path d="M175.8,570.4c5.8-1.1,11.5-3.1,17.2-4.6C187.6,568.6,182,570.6,175.8,570.4z"/>
	<path d="M174.2,573.3c0.2,0.6,0.4,0.9,0.3,1.1c-0.2,0.7-0.6,1.4-1.1,2C173.1,575.4,173,574.3,174.2,573.3z"/>
	<path d="M165.2,570.5c1.1-0.8,2.1-0.6,3.6-0.2C167.3,571.2,166.2,570.7,165.2,570.5z"/>
	<path d="M172,582.9c0-0.3,0-0.6,0-1C172.6,582.1,172.4,582.4,172,582.9z"/>
	<path d="M365.4,429.8c-2.1,0.3-2.8-1.6-3.8-2.8c-2.7-3.1-3.6-6.8-4-10.8C361.2,420.3,362.4,425.6,365.4,429.8L365.4,429.8z"/>
	<path d="M380.1,435.6c1.4-2.6,3.9-4.1,5.9-6c0.2,0.2,0.4,0.4,0.6,0.5c-1.9,2.1-3.8,4.2-5.7,6.3
		C380.7,436.1,380.4,435.8,380.1,435.6z"/>
	<path d="M346.1,413.2c-2.1-1.1-3.4-2.7-3.7-5.6C345.5,408.7,345.1,411.4,346.1,413.2z"/>
	<path d="M388.5,419.7c-1.7-2.3-0.3-4.6-0.4-6.9c1.2,1.7,1.3,2.2,0.8,3.7C388.5,417.6,388.1,418.6,388.5,419.7L388.5,419.7z"/>
	<path d="M357.6,430.1c-1.5,0.4-3.1,0.6-4.6-0.6C354.8,428.3,356.3,428.5,357.6,430.1z"/>
	<path d="M365.4,429.9c1.3,1.1,2.5,2.3,3.3,3.8C367.1,432.9,365.4,432.1,365.4,429.9L365.4,429.9z"/>
	<path d="M388.4,419.8c0.9,1.6,0.3,3.2-0.4,4.7C387.5,422.8,388.4,421.3,388.4,419.8L388.4,419.8z"/>
	<path d="M357.4,412.5c-1.5-0.3-1.6-1.5-1.8-2.6C356.8,410.3,357.3,411.2,357.4,412.5z"/>
	<path d="M349,418.3c-1-0.3-1.4-0.8-1.5-1.9C348.7,416.5,349.2,417,349,418.3z"/>
	<path d="M248.7,442.1c-3.8,0-7.6,0.1-11.4,0c-1.6,0-3.3-0.5-4.9-1c5.4,0,10.9-0.7,16.3,0.2C248.7,441.5,248.7,441.8,248.7,442.1z"
		/>
	<path d="M199.8,438.4c1.6-0.3,2.8,0.4,4.4,0.7c0.1,3.3-1.2,6.6-0.8,9.9c-0.8-3-0.6-6-0.1-9.1C202.5,438.8,201.1,439.1,199.8,438.4z
		"/>
	<path d="M224.3,451.8c-0.6-3.9,0.8-7.7,0.8-11.5C225.7,444.2,224.5,448,224.3,451.8z"/>
	<path d="M354.7,335.5c-1.2-0.3-2.3-0.4-3.4,0.8c-1.3,1.5-2.7,1-4.4-0.3c-4.7-3.7-3-8.3-2.6-12.8c1.3-0.7,2.5-0.6,3.6-1.3
		c1.8-1.2,4.9,0.3,6.4,2.9C356.2,328.2,356.8,331.7,354.7,335.5z"/>
	<path d="M332.8,338.4c-1.9-4.4-4.2-8.7-4.6-13.7c0.3-0.1,0.6-0.2,0.9-0.3c1.5,4.5,2.9,9.1,4.4,13.6
		C333.2,338.2,333,338.3,332.8,338.4z"/>
	<path d="M340.5,353.7c-2.6-2.3-4.8-4.8-5.2-8.4C337.5,347.8,338.6,351,340.5,353.7z"/>
	<path d="M327.6,319c-0.4-2-0.9-4.1,0.8-6.4C328.9,315.2,327.8,317,327.6,319z"/>
	<path d="M344.8,356.9c1.6-0.7,2.8,0.1,4.7,0.9C347.2,358.6,346,357.8,344.8,356.9z"/>
	<path d="M251,588.1c-0.3,2.3-2.1,2.2-3.8,2.1c-4.7-0.3-9.2-1.4-13.7-2.9C236.3,584.5,247.7,585.1,251,588.1z"/>
	<path d="M241.7,597.7c2.7-1.2,4.7-1.4,11.1-0.9c-0.2,0.9-0.6,1.2-4.9,3.8c-1.1-0.4-2.1-1.2-3.3-1.5
		C243.7,598.7,242.4,598.9,241.7,597.7z"/>
	<path d="M225.8,592.5c0.7-0.5,1.4-1.2,2.2-1.5c1.1-0.4,2.2-0.3,3.1,0.6c1,1,1.2,2.1,0.8,3.4c-0.5,1.5-1.7,2.6-2.8,3.6
		C225,597,224.7,596.4,225.8,592.5L225.8,592.5z"/>
	<path d="M218.3,582.2c4.1,2.6,4.3,3.3,1,6.1c-0.8,0.7-0.3,2-1.3,2.4c-1.6-0.7-0.2-2.2-1.1-3c-0.9-0.6-1.3,1.3-2.5,0.4
		C215.3,585.9,216.8,584.2,218.3,582.2z"/>
	<path d="M225.9,592.4c-0.4,0.2-0.8,0.5-1.1,0.7c-1.4,1-2.9,1.3-4.3-0.1c-1.3-1.4-1-2.9-0.2-4.4c0.9-1.5,2.2-2.2,4-1.8
		C226.4,587.3,226.8,588.9,225.9,592.4L225.9,592.4z"/>
	<path d="M291.5,368.4c-3.3-1.8-6.4-3.7-8.4-7C285.6,364.1,289.6,365.1,291.5,368.4L291.5,368.4z"/>
	<path d="M276.2,341c1.6,2.7,1,5.5,1.8,8.3C276.1,346.9,275.5,344.1,276.2,341z"/>
	<path d="M276.8,326.4c-0.3,2.5-0.6,5-0.9,7.5c-0.5-2.7-1.6-5.4,0-7.8C276.2,326.2,276.5,326.3,276.8,326.4z"/>
	<path d="M291.5,368.5c0.9-0.2,1.7,0,2.3,1C292.8,369.5,292.1,369.1,291.5,368.5L291.5,368.5z"/>
	<path d="M241.5,415.8c-1.7-0.9-1.7-0.9-1.6-2.8C241.4,413.5,241.5,414.6,241.5,415.8L241.5,415.8z"/>
	<path fill="#FFFFFF" d="M692.4,591.1c-1.2-1.9-0.7-3,0.4-3.8c0.6-0.5,1.4-0.7,2.2-0.1c1,0.8,0.8,1.8,0.2,2.9
		C694.1,589.6,692.9,589.3,692.4,591.1z"/>
	<path fill="#FFFFFF" d="M683.8,578.9c1.2,0.8,1.4,1.5,0.5,2.3C682.7,580.4,682.7,580.4,683.8,578.9z"/>
	<path fill="#FFFFFF" d="M688.1,582.7c1.1,0.1,1.8,0.6,1.8,1.6c0,1.4-0.7,2.4-2.1,2.6c-1.1,0.2-1.7-0.6-1.7-1.6
		C686.1,584,686.9,583.1,688.1,582.7z"/>
	<path fill="#FFFFFF" d="M353.9,333.7c-3.7-2.4-4.9-5.2-4-9.3C352.4,327.1,353,330.2,353.9,333.7z"/>
	<path fill="#FFFFFF" d="M350.7,335.1c-4.1-1.6-5.2-4.1-4-9.7C346.5,329.2,349.5,331.7,350.7,335.1z"/>
	<path fill="#FFFFFF" d="M230.3,595.7c-1.3-0.9-2.3-0.9-2.8,0.6c-1.2-1.5-0.7-2.6,0.2-3.5c0.6-0.6,1.3-0.8,2.1-0.3
		C230.9,593.1,230.6,594.1,230.3,595.7z"/>
	<path fill="#FFFFFF" d="M218.7,584.3c1.2,0.6,1.6,1.3,0.6,2.4C217.6,586.3,217.1,585.6,218.7,584.3z"/>
	<path fill="#FFFFFF" d="M221.8,592.2c-1.1-1.3-0.7-2.5,0.4-3.5c0.6-0.6,1.4-0.7,2.2-0.2c0.7,0.5,0.9,1.3,0.6,2.1
		C224.4,591.9,223.5,592.8,221.8,592.2z"/>
</g>
</svg>
