<?xml version="1.0" encoding="utf-8"?>
<!-- Generator: Adobe Illustrator 19.1.0, SVG Export Plug-In . SVG Version: 6.00 Build 0)  -->
<svg version="1.2" baseProfile="tiny" id="Layer_2" xmlns="http://www.w3.org/2000/svg" xmlns:xlink="http://www.w3.org/1999/xlink"
	 x="0px" y="0px" width="900px" height="600px" viewBox="144 97 900 600" xml:space="preserve">
<g>
	<path d="M424.2,359.7c1.3,2.3,2.9,4.4,1.2,7.3c-0.5,0.8,0.7,2.4,0.2,3.8c-1.1,2.9-2.4,4-5.5,4.1c-0.9,0-1.7,0.2-2.9,0.6
		c2.9,1.1,5.4,2.3,5.6,5.9c0.2,3.2-0.6,5.8-2.7,8.1c-6.4,1.5-12.8,2.3-19.1-1.1c1.6,8.8,3.8,17.1,4.9,25.7c0.5,3.7,0.7,7.5,0.4,11.2
		c-0.3,3.7,0.3,7.3,1,10.9c0.8,4.2,0.9,8.3,1,12.5c0.2,9.7,1.1,19.4,2,29.1c0.5,5.1,0.2,10.2-0.4,15.2c-0.2,1.7-0.4,3.4,0.1,5.2
		c0.7,2.5-2.6,8.3-5.2,9.4c-2,0.8-3.6,2-5,3.6c-2.4,2.6-5.8,3.1-9.1,3.3c-1.3,0.1-2.7-0.5-3.9,0.4c-0.9,1.3-0.4,2.8-0.4,4.2
		c0.6,12.8-0.2,25.4-2.7,38c-1.4,7.1-4.3,13.9-5.5,21.2c-0.3,1.6-0.6,3.3-0.7,4.9c-0.1,7.8-2,15.5-1.3,23.4c0.1,1.3,0,2.7-0.5,3.9
		c-0.9,2.2-0.6,4.3-0.5,6.6c2.6,0,1.4-3.5,4.3-3.7c4.3,2.2,4.2,7,5.2,11.4c1,1.2,2.5,1.9,3.9,2.7c5.1,2.8,9.4,6.5,13.1,11
		c2.7,3.3,6.4,5.2,10.5,6.5c3.1,1,6.1,2.1,8.4,4.4c2.7,2.7,2,10.5-1.4,11.8c-4.5,1.7-8,5.4-13.1,6.1c-5.1,0.8-9.8,0-14.9-0.8
		c0.3,1.4,1.5,1.2,2.3,1.4c2.2,0.7,4.4,1.6,6.4,2.7c5,2.6,8.8,8.6,4.3,14.6c-0.7,0.8-1.3-0.7-1.9-0.3c-0.2,0.3-0.4,0.5-0.4,0.7
		c0.5,2.1-0.3,3.4-2.7,4.1c-5.7,1.5-11.4,2.8-17.3,2.8c-5.3,0-10.6,1.2-15.8-0.8c-5.6-2.1-11-4.4-16.2-7.3c-3.8-2.1-8-3.1-12.3-3.8
		c-9.3-1.4-11-1.9-17.6-10.1c0.2-0.3,0.3-0.8,0.6-1.1c3.3-2.5,4-6.2,4.6-9.9c0.3-2,0.2-4.2,2.3-5.6c0.8-0.5,0.7-1.8,0.7-2.8
		c0.2-3.9,2.2-6.9,4.6-9.9c-0.3-4.4-1.4-8.5-2.9-12.8c-3.1-9.1-5.5-18.4-8.1-27.7c-0.7-2.7-1.9-5.2-3.1-7.6
		c-2.6-5.2-5.1-10.5-4.8-16.4c0.4-7.2,0.3-14.6,2.8-21.5c1-2.8,1.7-5.7,1.8-8.7c0.1-3,0.8-5.9,1.5-8.8c0.6-2.2,1.1-4.5,1.4-6.8
		c0.3-2.2-0.6-4.4-0.5-6.4c-0.9-1.4-2.3-2-3.4-2.9c-4.1-3.3-6.5-7.4-6.4-12.8c0.1-7.9,1-15.7,0.6-23.5c-0.5-10.4-1.7-20.7-2.3-31.1
		c-0.9-14.5-2.4-28.9-1.6-43.4c0.1-2,0.6-4,0.6-5.9c0-2.7,2.5-3.6,3.7-5.5c1.7-2.6,3.5-5.1,4.3-8.1c0.2-0.9,1-1.7,1.5-2.6
		c-1.2-5.5-0.2-11.2-1.9-17.3c-8.4-3-15.5-9.2-24.7-12.1c0.9-1.8,0.8-3.1,0.1-4.4c-0.5-0.8-0.7-1.9-0.6-2.9
		c0.9-12.2-1.4-24-4.5-35.7c-1.4-5.4-1.7-10.8-1.2-16.4c0.4-4.6,1.4-9.1,2-13.7s0.8-9.2-0.6-13.7c-1.9-5.9-0.2-11.6,1.2-17.2
		c1.5-6,4.4-11.6,8.2-16.7c1.8-2.4,4.4-4,6.5-6.1c5.9-5.8,11.5-11.7,18.8-16.1c6.9-4.1,13.1-9.4,19.1-14.8c3.5-3.2,5.4-7.9,5-12.9
		c-0.5-5.8-1.6-11.6-2.3-17.4c-0.7-6.1-0.4-12.1,1.2-18.1c0.2-0.9,0.7-1.6,1.4-2.2c-3.3-4.7,3.9-14.4,8.9-17.3
		c0.3-1.4-0.5-2.8,0-4.2c1.9-1.3,2.7,0.9,4.4,1.2c0.1-2-1.1-4.2,1.2-5.7c1.9,1.4,1.2,4,2.7,5.7c2.5-0.7,4.4-2.4,6.9-3.4
		c4.4-1.6,8.4-0.8,12.5,0.2c6.7,1.6,12.9,4.5,19.7,5.8c3,0.6,5.3,2.7,7.9,4.3c0,0.6,0,1.2,0,1.5c3.9,1.2,7.6-0.2,11.3-0.6
		c0.5,2.1-1.8,2.4-1.3,3.8c-1.1,0.8-2.4,0.1-3.6,1.3c1.4,0.1,2.6,0.2,4.2,0.4c-2.4,1.8-4.5,3.3-6.7,5c2.5,0.4,3.6-2.3,6.3-2.4
		c-0.7,3-3.3,3.2-5,4.5c2.2,1.9,4.6-0.5,7.7,0.4c-4.4,4-9.7,3.8-14.6,5.3c0.2,3.6,0.4,7.3,0.7,10.9c0.3,3.4-1,5.9-4.1,7.6
		c0.4,4.7,0.8,9.5,1.2,13.9c-1.1,1.7-2.5,1-3.8,1.7c0,1.6,0,3.4,0,5.1c0,0.8,0.1,1.6-0.5,2.2c-2.7,2.8-2.5,6.4-2.8,9.8
		c-0.5,5.1-6.8,9.4-11.5,7.5c-1.1-0.4-2.1-0.7-3.3-0.5c-0.8,0.6-1.1,1.5-1.7,2.6c2.1,1,3.3,3,5.7,3.7c3.7,1,6.9,2.9,9.6,5.7
		c4.8,5.1,7.5,11.1,7.4,18.3c0,2.5-0.2,5.1,1.1,7.4c4.1,7.4,5.4,15.5,4.6,23.8c-0.3,3.6-0.8,7.3-1.4,10.9c-0.6,3.5-1.8,6.8-3.3,10.3
		c3.2,6.5,11.2,10.4,10,19.6c2.5-1.8,3.2-3.4,3.4-5.6c0.2-2.8,0.6-5.5,1-8.2c0.6-4.1,0.2-8-1.7-11.9c-2.3-4.8-2-9.5,2.8-12.9
		c1.3-1,1.2-2.6,1.3-3.9c0.3-5.5,0.6-11,0.8-16.6c1-22.9,2-45.8,3-68.6c1.1-24.8,2.2-49.5,3.4-74.3c0.1-1.3,0.2-2.6,0.4-4
		c0.1-0.8,0.7-1.4,1.6-1.4s1.5,0.6,1.6,1.4c0.2,1.2,0.1,2.4,0.1,3.6c-1.5,32.5-3,65-4.5,97.5c-1,21.7-1.9,43.3-2.9,65
		c-0.1,1.7,0.3,2.9,1.4,4.2c4.2,4.8,3.2,10.8-2.3,14.3c0.9,6,1.8,12,1.9,18.1c0,0.9,0,1.8,0.5,2.6c1.4,2.3,1.7,4.7,0.6,7.4
		c3.7,0.7,5.2,3.9,7.6,5.4c4.1,1,8.1-3.4,11.7,0.8c4.1-0.3,5.1,0.5,5.6,4.1c4.1,1.9,4.6,2.8,4.4,8.5c3.7,2,1.9,5.2,1.4,8.2
		c2.7,2.3,2.7,3.3,1.7,6.5c-2.4,7.6-7.7,10.9-15.4,11c-0.4,0-0.8,0.2-1.2,0.3c-5.5-4.7-6-7.4-2.2-12.9c-7.6-1-12.8-6.6-19.5-9.4
		c-0.8,0.6-0.9,1.2,0.1,2c1.2,0.9,3,1.6,3.4,3.1C426.5,354.5,425.2,357.2,424.2,359.7c-0.6-0.8-1.1-1.6-2-2.5
		c-3.1,0.9-4.8-0.7-5.7-3.7c-0.5-1.4-1.1-2.8,0.3-3.9c1.7-1.4,2.8,0.1,3.9,1.2c-3.4-3.3-6-3.8-10.8-2.4c-1.8,0.5-3.6,1-5.4,1.6
		c-2.3,0.7-4.1,2.1-5.5,4c-1.1,1.5-2.2,3-3.6,4.3c-3.3,3.1-7.3,2.6-11.3,2.3c-7-0.5-13.9-2.5-20.8-3.6c-6.3-1.1-12-4.2-17.2-7.9
		c-5.8-4-12-7.5-17.8-11.4c-1.9-1.3-4.1-1.6-6.3-1.7c-1.6-0.1-2.9-0.6-3-2.4c-0.1-1.6,1-2.4,2.5-2.6c2.2-0.3,3.3-1.7,3.9-3.6
		c3.6-10.7,5.9-21.5,4.7-32.9c-0.1-0.5-0.3-1.1-0.3-1.6c0-3.1,0-6.1-3.6-7.2c0.2-2.4,1.3-3.9,2.4-5.4c1.1-1.4,2.2-2.8,2.6-4.6
		c0.3-1,0.8-1.9,1.8-2.2c1.7-0.6,2.7-1.8,3.4-3.4c0.5-1.2,1.4-2.1,2.8-1.7c1.6,0.5,1.7,1.8,1.6,3.2c-0.2,1.3-0.7,2.6-1,3.9
		c-0.4,1.6-0.9,3.2-0.4,4.9c1.3,4.4,4.5,7.7,6.6,11.6c5.5-3.4,8.9-26.4,6-39.1c-0.1-0.3-0.3-0.6-0.4-0.9
		c-2.7-6.2-6.5-11.8-10.1-17.5c-1-1.5-2.3-2.3-4.2-2.2c-2.2,0.2-4.4-0.4-6.6-0.9c-1.4-0.3-2.9-1-2.7-2.8c0.2-1.7,1.6-1.9,3-2
		c1-0.1,2,0,3.3-0.8c-2.3-3.1-5-5.6-8.4-7c-1.3-0.5-2.7,0.2-3.7,1.1c-3.8,3.2-8,5.9-10.9,10c-0.9,1.4-2.1,2.9-3.6,3.4
		c-7,2.1-9.6,8.1-12.5,13.8c-4.3,8.5-6.3,17.8-3.5,26.9c1.7,5.7,0.9,10.3-0.6,15.5c-2.2,7.8,0.7,14.6,7.3,19.3
		c3.6,2.6,2.6,6.5,2.9,10c0.1,1.7-0.9,3.4-1.4,5.1c-0.4,1.3-1.3,2.1-2.7,1.9c-1.6-0.3-1.9-1.6-1.9-3c0-0.6,0.2-1.1,0.3-1.6
		c1.7-6.2,0.2-9.2-6.3-11.9c-0.5,2,0.3,3.7,0.8,5.5c3.3,10.5,4.4,21.2,4.5,32.2c0,2,0.3,4,0.4,6c0.1,1.7,1,3.2,2.5,4.1
		c7.4,4.2,14.7,8.6,22.5,12c8.4,3.6,17.5,4.7,26.4,5.9c10.4,1.4,20.8,0.6,31.2,0.6c5,0,10.1-1.3,15,0.8c2,0.8,4.2,0.2,6-1.1
		c4.1-3,8.6-3.7,13.5-3.4c2.2,0.2,4.4-0.2,6.6-0.7c1.1-0.2,2.2-0.5,2.6-2c-0.5-1.4-2.2-2.8-0.9-4.8c-2.4-0.5-3.4-1.9-3-4.1
		c0.5-2.4,2.3-2.7,4.3-2.6C423.1,357.8,423.5,358.9,424.2,359.7z"/>
	<path d="M691,348.3c-3.3-4.1-4.2-8.6-4.7-13.3c-0.5-4.8-2.4-8.9-5.5-12.6c-1.3-1.5-2.6-3-3.9-4.6c-1.9-2.4-3-5-3.4-8.1
		c-0.5-4.4-1.7-8.7-2-13.1c-0.4-4.8,0.3-9.5,0.9-14.5c-5.4-3.7-5.9-9.8-6.1-15.3c-0.1-3.8,0.7-8,2-11.9c1.9-5.7,4.5-11.2,8-16.1
		c1.7-2.4,4.2-3.9,6.2-5.9c6.1-6,12-12.2,19.6-16.7c6.8-4,12.9-9.2,18.8-14.6c3.5-3.2,5.3-7.9,5-12.9c-0.3-5.5-1.6-10.9-2.1-16.4
		c-0.7-7.1-1.1-14.1,1.8-20.8c0.1-0.2,0.3-0.5,0.3-0.6c-1.8-3.6,0.3-6.5,1.7-9.5c0.2-0.4,0.1-0.9,0.3-1.2c2-2.6,4.6-4.6,7.1-6.9
		c-0.1-0.9-0.2-2.2-0.3-3.4c1.8-1.8,2.8,0.3,4.4,0.8c0.6-1.8-0.8-4.3,1.6-5.7c1.5,1.7,1.3,4,2.4,5.8c2.5-0.6,4.5-2.5,7-3.4
		c4.4-1.6,8.4-0.8,12.5,0.1c6.8,1.6,13.2,4.5,20,5.9c2.9,0.6,5,2.7,7.5,4.1c0.7,0.6-0.3,1.2-0.1,1.7c4,0.9,7.8-0.2,11.6-0.7
		c0.4,2.1-1.9,2.4-1.4,3.7c-1.1,0.8-2.3,0.2-3.1,1.1c1,0.9,2.3,0,3.4,0.9c-1.7,1.3-3.6,2.3-5,4.1c1.9,0.8,2.5-2.4,4.7-1.5
		c-0.4,2.7-3,2.8-4.7,4.2c1,0.9,2.1,0.8,3.2,0.6c1.2-0.2,2.3-1,4,0c-4.1,3.7-9.3,3.5-14,5c-0.4,3.7,0.3,7.3,0.5,11
		c0.2,3.2-1,5.7-3.9,7.6c-0.4,4.7,0.9,9.4,0.9,14c-0.9,1.6-2.3,1-3.7,1.5c0,1.7,0,3.3,0,5c0,0.9,0,1.9-0.6,2.5
		c-2.6,2.6-2.4,6-2.7,9.2c-0.6,5.9-6.4,9.9-12,7.9c-1-0.3-1.9-0.5-2.8-0.3c-0.9,0.7-1.2,1.6-1.5,2.4c2.8,3.6,7.3,4.1,10.8,6.3
		c7.4,4.6,11.1,11.5,11.5,19.8c0.3,4.9,1.5,9.1,3.3,13.6c1.7,4.5,3.1,9.4,2.9,14.4c-0.4,9.5-1.3,19-5.7,27.7c-1,1.9-0.4,3.7-0.2,5.5
		c1.4,10.5,1.2,21.1,1.3,31.7c0,0.6-0.2,1.3,0.4,1.9c1.8-0.1,1.5-1.6,1.7-2.7c1.3-9.4,2.5-18.9,3.8-28.3c3.3-24.9,6.5-49.8,9.8-74.7
		c2.9-22.6,5.9-45.2,8.8-67.8c2.2-17,4.4-34,6.6-51c0.2-1.2,0.2-2.5,1.8-3c2,0.4,1.7,1.9,1.5,3.3c-1.6,12.3-3.2,24.6-4.8,36.8
		c-3.2,24.7-6.4,49.3-9.6,74c-3.4,26.2-6.8,52.4-10.3,78.6c-1.4,10.6-2.8,21.3-4.2,31.9c-0.2,1.3-0.2,2.5,0.8,3.7
		c2.1,2.7,1.9,5.8-0.1,8.3c-2.2,2.8-2.5,5.7-2.7,9.1c-0.3,5.9-0.8,11.8-2.3,17.7c1.8,1.1,1.8,3.2,2.7,4.7c2.1,3.6,4.8,6.6,9.3,7.2
		c2.7,0.3,5.4,1,7.7,2.7c1,1.1-0.3,1.9-0.3,2.8c0.7,0.9,1.9,1.2,2.4,2.6c-1.1,2.4,0,5.5-1.8,7.8c0.1,0.4,0.2,0.7,0.3,0.8
		c4.3,3,4.3,6-0.2,8.9c-3.1,2-6.4,3.5-10.3,2.6c-1-0.2-2.3-0.6-2.3-1.6c-0.1-2.4-2-3.5-3.4-5.3c6.3,1,5.9,0.3,8.5-1.1
		c-5.2,1.1-9.6-0.8-14.5-0.8c1.1,4.8,0.8,10,1.1,15.2c0.3,5.1,0,10.2,0.8,15.2c1.7,10.1,0.8,20.3,2,30.4c0.3,2.7,0.5,5.5,0.8,8.2
		c0.9,6.5,0.4,13-0.3,19.5c-0.1,1.4-0.2,2.7,0.2,4.2c0.7,2.6-2.6,8.1-5.3,9.3c-2,0.9-3.5,2.1-5,3.6c-2.5,2.6-6,3.1-9.5,3.2
		c-1.3,0-2.7-0.4-3.8,0.8c-0.4,1.6-0.1,3.2,0,4.9c0.9,12.9-0.4,25.6-3,38.2c-1.3,6.3-3.8,12.2-4.9,18.6c-0.5,2.5-1,5-1,7.5
		c-0.2,7.7-1.9,15.3-1.2,23.1c0.2,2.6-1.5,4.9-1.1,7.5c0.1,0.7-0.3,1.6,0.8,2.1c1.8-0.6,0.9-3.5,3.2-3.8c1.9,0.2,2.7,1.8,3.5,3.4
		c0.6,1.4,1.5,2.9,1.4,4.4c-0.1,3.7,2.2,5.1,5,6.6c5,2.6,9,6.2,12.6,10.5c2.5,3,5.8,5,9.5,6.3c2.5,0.9,5.1,1.6,7.3,3.1
		c4.3,2.8,5.2,5.8,3,10.4c-0.5,1.1-1.2,2.1-1.4,2.5c-1.1,1.6-1.9,0.2-2.9,1.2c-6.8,6.5-15,7.3-23.8,5.1c-0.6-0.2-1.2-0.6-2,0
		c0.3,1.3,1.6,1.1,2.3,1.3c2.2,0.7,4.4,1.6,6.4,2.7c5.3,2.8,8.7,8.9,4.3,14.5c-0.8,0.9-1.2-1-2-0.2c-1.1,0.8,0.4,1.3,0.2,2
		c-0.9,1.7-2.5,2.5-4.4,3.1c-7.9,2.5-16.2,2.4-24.3,2.8c-3.8,0.2-7.7-0.7-11.3-2.4c-2.7-1.3-5.4-2.5-8.1-3.7
		c-4.2-1.9-8.1-4.3-12.7-5.3c-3-0.7-6.1-1.3-9.1-1.7c-4.2-0.5-6.7-3.1-9.5-5.5c-1.1-1-1.9-2.4-2.9-3.2c0.1-0.5,0-0.8,0.1-1
		c3.6-3.1,4.7-7.3,5.2-11.8c0.2-1.6,0.3-3.3,2.1-4.3c0.9-0.5,0.7-1.6,0.7-2.4c0-4.1,2.2-7.2,4.7-10.5c-0.6-3.6-0.6-7.4-2.3-11
		c-1.8-3.7-2.4-7.8-3.5-11.7c-2.9-10-5.2-20.1-10.2-29.3c-2.4-4.4-3.6-9.4-2.9-14.1c0.9-6.7,0.2-13.7,3-20.1c1-2.3,1.3-4.6,1.5-7.1
		c0.3-3.9,1-7.7,2-11.4c1.5-5.2,1.4-6.6,0.2-12.6c-3.4-2.3-6.7-4.8-8.3-9c-0.5-1.5-0.9-2.9-1-4.5c-0.1-5,0.5-9.9,0.6-14.9
		c0.2-6.6-0.1-13.3-0.7-19.9c-0.9-9.8-1.4-19.6-2.3-29.4c-0.8-7.6-0.7-15.2-1.3-22.8c-0.4-5.6,0.1-11.3,0.6-16.9
		c0.4-4.2,3.4-7,6.1-9.6c2.5-2.5,4.3-5.3,6.1-8.2c1.1-1.8,0.2-3.6-0.8-5.3c-3.1-4.8-6-9.7-6.3-15.5c-0.3-5.4-2.6-10.2-3.6-15.4
		C690.4,351.1,690,349.7,691,348.3z"/>
	<path d="M497.6,101c2.3,0.5,1.7,2.3,1.7,3.8c0.3,17.7,0.5,35.4,0.7,53.1c0.9,70.4,1.8,140.7,2.7,211.1c0.9,69,1.8,138.1,2.6,207.1
		c0.4,29.6,0.8,59.3,1.1,88.9c0,1.5,1.1,4.2-1.7,4.2c-2.3,0-1.5-2.5-1.6-4.1c-0.8-63.7-1.6-127.4-2.4-191.2
		c-0.9-68-1.7-136.1-2.6-204.1c-0.7-54.8-1.4-109.5-2.1-164.3C496.1,104,495.3,101.9,497.6,101z"/>
	<path d="M480.8,102.7c1.4,0.3,2,1.1,1.8,2.2c-0.8,4.7-0.2,9.5-0.2,14.2c0.6,56.8,1.2,113.5,1.8,170.3c0.9,81.6,1.8,163.3,2.7,244.9
		c0.5,43.1,1,86.3,1.5,129.4c0,1.1,0,2.2-0.1,3.3c-0.1,0.8-0.6,1.4-1.5,1.4s-1.4-0.6-1.5-1.5c-0.1-1-0.1-2-0.1-3
		c-0.7-62.6-1.4-125.2-2.1-187.8c-0.7-60.1-1.3-120.1-2-180.2c-0.7-62.7-1.4-125.5-2.1-188.2C478.9,105.8,478.8,103.8,480.8,102.7z"
		/>
	<path d="M861.4,102.8c1.6,0.3,1.9,1.1,1.9,2.2c-0.7,15.7,0,31.4,0.2,47.1c0.6,56.6,1.2,113.3,1.8,169.9
		c0.9,81.6,1.8,163.3,2.7,244.9c0.4,32.5,0.7,65.1,1,97.6c0,1.5,0.7,3.5-1.6,4.1c-2.1-0.7-1.7-2.4-1.7-3.9
		c-0.1-9.1-0.1-18.1-0.2-27.2c-0.9-83.6-1.8-167.3-2.7-250.9c-0.9-80.8-1.8-161.5-2.6-242.3c-0.1-12.3-0.3-24.6-0.4-36.8
		C859.6,105.7,859.7,104,861.4,102.8z"/>
	<path d="M878.6,101c2.1,0.9,1.6,2.6,1.6,4.1c0.3,20.8,0.5,41.6,0.8,62.4c1.1,83.7,2.2,167.5,3.2,251.2
		c1.1,81.8,2.1,163.5,3.1,245.3c0,1.2,0.1,2.4,0,3.6c-0.1,0.9-0.6,1.7-1.7,1.7c-1.1-0.1-1.5-0.9-1.5-1.8c0-0.4,0-0.9,0-1.3
		c-1.1-81.7-2.2-163.5-3.2-245.2c-1.1-84.7-2.2-169.5-3.3-254.2c-0.3-20.6-0.5-41.2-0.7-61.7C876.9,103.5,876.3,101.7,878.6,101z"/>
	<path d="M501.4,667c-1.5-0.6-1.1-2-1.1-3.1c-0.4-27.7-0.9-55.3-1.3-83c-0.7-48.1-1.4-96.2-2.1-144.3c-0.4-29.4-0.9-58.8-1.3-88.3
		c-0.7-45.5-1.3-90.9-2-136.4c-0.4-29.4-0.9-58.8-1.3-88.3c-0.1-6.1-0.3-12.2-0.4-18.2c0-1.5-0.1-3.2,2.4-3.1
		c2.7,188,5.3,375.9,8,563.8C502.4,666.6,501.9,666.9,501.4,667z"/>
	<path d="M901.9,660.5c-1.8-0.9-1.2-2.5-1.2-3.8c-0.1-28.7-0.1-57.3-0.2-86c-0.2-102.6-0.5-205.1-0.7-307.7
		c-0.1-52.2-0.3-104.4-0.4-156.7c0-1.1-0.2-2.2,0.3-3.3c0.6-1.3,1.5-2.2,3.2-0.8c-1.6,1.8-1.2,4-1.2,6
		c0.2,104.2,0.5,208.4,0.7,312.6c0.2,78.3,0.4,156.7,0.5,235C903,657.5,903.7,659.4,901.9,660.5z"/>
	<path d="M875,102.6c2.7,188.3,5.6,376.3,8.2,564.3c-2.2,0.2-2.3-0.9-2.3-1.9c-0.1-2.3,0-4.6-0.1-7c-0.5-35.9-1-71.9-1.5-107.8
		c-0.7-45.4-1.3-90.7-2-136.1c-0.4-29.4-0.9-58.8-1.3-88.3c-0.7-45.5-1.3-90.9-2-136.4c-0.4-27.4-0.8-54.9-1.3-82.3c0-1-0.1-2,0-3
		C872.9,103,873.4,102.1,875,102.6z"/>
	<path d="M521.9,102.1c-1.4,3.5-0.8,7.1-0.8,10.7c0.3,153.4,0.6,306.9,1,460.3c0.1,27.7,0.2,55.3,0.3,83c0,1.5,0.5,3.1-0.8,4.3
		c-1.2,0.1-1.6-0.6-1.6-1.4c-0.1-1.2-0.1-2.4-0.1-3.6c-0.1-80.4-0.2-160.9-0.4-241.3c-0.2-98.1-0.4-196.3-0.7-294.4
		c0-4.9-0.1-9.7-0.1-14.6C518.8,102.3,519.4,101.7,521.9,102.1z"/>
	<path d="M870.3,182c1.3,1.9,1,3.2,0.1,4.5c-1.6,0.1-3-0.2-4-1.7C867.3,183.2,869.6,184,870.3,182z"/>
	<path d="M490,182.3c0.7,1.9,0.6,3.1-0.5,4.2c-1.6,0-2.9-0.2-3.9-1.8C487,183.4,488.7,183.4,490,182.3z"/>
	<path d="M493.8,653.2c1.4-1.1,2.7-0.2,3.9-0.7c0.8,1.7,0.1,2.6-1.3,2.8C494.9,655.6,494.1,654.6,493.8,653.2z"/>
	<path d="M488.9,287.1c0.4-1.6,1.9-1.7,2.7-2.6c1.5,0.7,2,1.6,1,2.7C491.5,288.3,490.2,288.5,488.9,287.1z"/>
	<path d="M491.3,473.5c0.7-1.4,2.1-2,3.2-3c1.5,1.5,0.7,2.5-0.2,3.3C493.4,474.6,492.2,475.2,491.3,473.5z"/>
	<path d="M872.1,473.6c0.8-1.4,1.9-2.2,3.2-3c1.7,1.2,0.6,2.3-0.2,3C874.3,474.5,873.2,475.1,872.1,473.6z"/>
	<path d="M878.3,561.2c-0.7,1.5-1.6,1.9-2.6,1.1c-1-0.8-2-1.7-1.3-3.3C876.3,558.8,877,560.5,878.3,561.2z"/>
	<path d="M869.4,287c1-1.3,2.1-1.8,3.1-2.4c1.4,0.7,1.7,1.6,0.9,2.5C872.3,288.3,871,288.4,869.4,287z"/>
	<path d="M874.6,652.8c1.5-0.3,2.8-0.3,4-0.1c0.7,1.6-0.2,2.3-1.3,2.5C875.9,655.5,874.8,654.9,874.6,652.8z"/>
	<path d="M494.1,558.8c1.4,0.7,2.4,1.5,3.2,2.5c-0.3,1.5-1.1,1.8-2.4,1.1C493.8,561.7,493.5,560.6,494.1,558.8z"/>
	<path d="M491.3,381.7c0.5-1.1,1.1-1.9,2.3-2.2c1.5,0.8,1,1.8,0.2,2.6C493,383,492.2,383,491.3,381.7z"/>
	<path d="M874.5,379.4c1.3,1.3,0.7,2.2-0.1,2.9c-0.8,0.7-1.6,0.5-2.2-0.5C872.4,380.5,873.2,379.9,874.5,379.4z"/>
	<path fill="#FFFFFF" d="M314.8,459.6c-1.2-1.7-1.5-3.4-1.6-5.2c-0.6-8.1-0.8-16.2-2.9-24c-2.2-8.6-0.4-16.9,0.7-25.3
		c0.5-3.7,4.1-5.8,6.1-8.7c1.2,0.3,0,1.3,1.1,1.7c1.6-0.2,1.5-2.7,3.1-3.2c1.2,0.2,1.8,1.1,2.3,2.5c-1.6,3.5-2.9,7.5-5.1,10.9
		c-2.6,4.1-2.1,8.5-2.2,12.9c-0.1,3.4,1,6.4,3.4,8.9c-2.1-5.7-0.5-11.8-2-17.8c2.9-5,6.7-9.8,8-15.8c2.1-0.5,4.2,0.2,6.3,0.4
		c0.2-1.2-1.7-1.9-0.3-3.1c1-0.6,2-0.3,3.2,0.3c0.5,3.8-1,7.6-0.6,11.6c2.9-2.5,3.8-6.6,2.1-11c2.3,1.6,4.7-2.6,6.2,0.3
		c7.8-0.3,15.1,0.2,22.3-0.8c7.3-1,14.5-2.6,21.8-3.8c-1.5,2.7-4.6,2-6.8,3.4c-2.3,1.4-5.2,0.4-7.6,1.9c1.7,0.7,3.4-0.7,5.4,1
		c0.1,7.6-0.8,15.8,0.2,23.9c1.6-8.2,0.9-16.7,2-25.1c2.4-1.6,5.2-1.8,8.3-1.9c1.3,2.9,1.9,6,2.8,9.1c0.7-3.1-0.8-6.1-0.9-9.2
		c1.7,0.1,1.7,0.1,5.4,4.9c-0.1-2.1-1.3-3.4-1.7-5.4c2.2,0.6,2.9-1.2,4.3-2.4c1.1,1,1.1,2.3,1.3,3.5c1.5,7.9,3,15.9,4.5,23.8
		c0.8,4-0.6,8-0.1,12.1c1.7,13.5,0.3,27.2,2.3,40.7c1.3,8.6,0.9,17.2,1.8,25.8c0.1,0.9-0.2,1.7-0.6,2.5c-1.2,2.2-2.7,4.1-4.7,5.5
		c-5,3.2-9.6,7.2-15.9,7.8c-1.6,0.1-2.8,2-4.9,0.9c-0.4-6.7,2.7-13.1,3-20c0.3-6.8,1-13.6,1.5-20.3c2.1-0.6,3.5,0.5,5.2,0.8
		c-0.7-2.1-3-2.4-4.4-3.8c-0.3-2,0.7-3.8,1.3-5.5c1.4-0.8,2.7,0,4.1,0.3c-0.6-1.8-2.5-1.2-3.3-2.6c0.2-1.3,0.8-2.6,1.7-3.7
		c2.2,0.5,3.6,1.9,5,3.4c-0.3-2.6-2.5-3.7-4-5.6c0.9-3,3.4-5.6,3-9.1c-5.7,7.2-9,15.3-10.1,24.6c-1.5,12.8-3.3,25.7-5.5,38.4
		c-0.7,3.8-1,7.7-1.2,11.5c-0.1,2.8-1.4,4.6-3.8,5.7c-4.7,2.1-9.5,4.1-13.9,6.9c-0.9,0.6-1.9,0.5-2.9,0.3c-12.8-2.7-24.8-7.1-36-14
		c-2.3-1.5-3.8-3.9-6.3-5.2c-1.3-0.7-2-2.6-1.9-4.7c0.5-7.9,0.7-15.9,1.1-23.9c0.3-8-0.4-15.9-0.7-23.9
		C313.8,461.6,313.3,460.3,314.8,459.6z"/>
	<path fill="#FFFFFF" d="M353.1,252.1c2,4.1,1.7,8.6,1.8,12.9c0.3,10.8-3.7,20.7-6.7,30.8c-6-1.8-6.3-7.9-9.4-11.8
		c-3.6-4.5,0-10,0.4-15.1c-2.4,1.5-1.8,4.6-3.9,6.4c-0.8,0.1-1.5-1.4-2.7-0.3c0.3,4.4-3.9,6.6-6.1,9.9c1.4,0.6,2-0.8,3.4-0.9
		c4.2,16.3,1.1,32-4.4,48.1c-1.3,0.9-4.1-0.7-6,1.2c0.7,1.4,1.8,0.8,2.7,0.8c2.9,0.1,5.6,0.8,8,2.8c1.8,1.6,3.8,3,6.2,3.7
		c3.1,0.9,5.2,3.5,7.7,5.3c3.4,2.3,7.5,3.7,10.5,6.8c0.6,0.6,1.6,0.7,2.5,0.7c1.1,0,2.2,0.3,3.2,0.6c7.7,2.3,15.6,3.7,23.4,5.3
		c6.1,1.2,10.7-1.1,13.6-6.2c2.4-4.2,6.6-4.9,10.5-6.1c2.2-0.6,4.4-1.4,6.9-1.7c2.8,3.2,8.6,3.6,9.5,9.5c-3.1-1.1-4.4-4.1-7.2-4.7
		c0.8,2.1,1.7,3.9,1.9,5.9c1.3,0,0.9-1.2,1.7-1.6c1.9,1.2,3.1,2.9,3.3,5.2l0.1-0.1c-1.4-1.3-3.1-0.9-4.7-1.2c-1,1.4,0.4,2.6-0.7,4.2
		c1.8-0.7,1.4-2.3,2.7-2.8c-0.1,2.4,4.3,2.8,2.6,6c-1.2,0.2-1.8-1.5-3.3-0.7c-0.2,1.9,1.9,2.3,2.9,3.8c0,1.3-0.1,2.8-1.3,4.3
		c-2-1.1-4-0.6-6-0.2c-3.4,0.7-6.8-0.6-10.2,0.4c-2.4,0.6-4.5,1.3-6.3,3.2c-1.5,1.6-4.2,2.1-6.1,1.3c-8.2-3.4-16.7-1.3-24.9-1
		c-14.3,0.6-28.2-1.1-42.1-4.1c-1.5-0.3-3-0.8-4.4-1.5c-7.2-3.3-14.6-6.3-21.1-11c-0.9-0.6-1.9-1.1-3-1.5c-3.4-1-5.1-3.2-5-6.7
		c0.6-13.2-1.5-26-5.1-38.6c-0.3-1.2-0.7-2.4-0.8-3.6c-0.1-1.7,0-3.5,0-6.1c2.1,3.5,5,4.8,7.6,6.4c2,1.3,3.2,3.1,3,5.1
		c-0.1,2.2,0.5,4.6-1,6.7c-0.7,0.9-0.6,2,0.5,3.2c2.4-4.5,2.8-9,1.6-13.3c-0.8-2.8-4.3-3.7-6.6-5.5c-0.7-3.3-2.7-6.3-4.2-9.6
		c0.1-4.8,1.3-9.5,3.1-14.1c0.7-1.8,0.7-3.4,0.1-5.1c-4-11.1-2.5-21.7,2.5-32.1c1.9-3.9,4.8-7.1,7.4-10.6c0.3-0.3,0.6-0.7,1-0.8
		c4.5-1.2,6.9-4.9,9.9-7.9c4-3.9,7.8-8.2,13.7-10.3c4.8,3.4,9.2,7.4,13.5,12.5c-3.9,0.3-7.2-1.1-10.6-0.3c1.8,2.4,7.1,3,11.4,1.3
		C344.7,237,350.1,243.9,353.1,252.1c-0.4,0.6-1,0.9-1.6,1C352.1,252.9,352.7,252.6,353.1,252.1z"/>
	<path fill="#FFFFFF" d="M336.1,338.1c2.3-1.2,4.3-0.8,6.3-1.7c-1.9,0-3.9-0.1-5.8,0c-1.9,0.2-3.4-0.2-4.7-1.7
		c-1.1-1.3-2.7-1.9-4.4-2.8c0.2-1.7,0.9-3.3,1.6-4.9c1.7-4.1,3.6-8.1,4.8-12.4c0.6-2.1,1.8-3.2,4-3.5c1.9,2.3,4.3,4,7.6,4.1
		c-1.6-1.9-3.2-3.7-5-5.8c4.6-3.2,7.8-7.9,11.2-12.4c0.2,0.1,0.3,0.3,0.5,0.4c0-0.2-0.2-0.4-0.1-0.6c1.4-3.7,0.8-7.7,2.1-11.5
		c2.7-8,3.6-16.4,3.8-24.8c0.1-4.2-1.1-7.8-2.8-11.4c-4.2-8.6-8.5-17.1-15.1-24.1c-3.5-3.8-7.7-6.9-11.5-10.4
		c0.4-1.1,1.4-1.3,2.2-1.8c1.2,0.5,1.8,1.6,2.5,2.5c3.1,3.6,6.1,7.3,10.4,9.6c0.8,0.4,1.5,1.3,2.1,2.1c3.7,4.7,7.4,9.3,11.1,14.1
		c2.3,3,4.8,5.7,8,7.9c0.5,0.4,1.2,0.7,1.6,1.2c3.1,5.2,7.9,7.9,13.9,9.3c0.6-0.4,1-1.6,2.5-1.7c5.7-0.6,9.1-5,8-10.9
		c-0.6-3.2-0.9-6.5-1.6-9.8c-1-4.3-2.5-8.2-6-11.2c-1.8-1.5-2.7-3.6-2.8-6.4c1.9,1,2.8,2.5,3.6,4c3.3,5.7,7.7,10.5,11.3,15.9
		c6.8,10.1,12.2,21,11.8,33.5c-0.3,8.5-1.1,17.3-5.4,25.1c-0.7,1.3-1.1,2.6-0.8,4.1c2.9,14.5,2.6,29.2,1.4,44.2
		c-3.6,0.3-4.8,3.7-6.9,6.5c-1-2.6,0.6-5.4-1.5-7.4c-1.7,1.3-1.7,1.3-0.2,9.1c-2.4,2.1-5.2,2.8-8.4,2.5c-4.8-0.5-9.3-1.9-13.9-3.2
		c-3.9-1.1-8.2-0.6-11.9-2.5c-0.7-0.3-1.4-0.6-2.3-0.9c1.1-1.6,2.9-0.7,4.5-1.6c-4.2-0.3-8.6,1.5-11.7-2.9c1.4,0,2.5,0,3.7,0
		C347,345.7,342.3,340.7,336.1,338.1z"/>
	<path fill="#FFFFFF" d="M356.6,165.9c2.5-0.5,3,0.6,2.6,2.6c-0.5,2.8-0.1,5.5,0,8.3c0.1,1.1-0.1,2.5,1.5,3.1
		c0.6-1.5,0.9-3.2,1.4-4.7c1.8-5.1,5-8.9,9.6-11.8c1.9-1.1,3.6-2.7,5.1-4.2c3.8-3.9,8.5-4.6,13.6-4.5c5.2,0.1,10.4,0,15.4,2.4
		c0.3,4,0.6,8.3,0.9,12.5c-4.3,1.6-5,2.9-4.3,7.3c0.6,3.7,1.1,7.4,1.1,11.1c-1.6,1.8-3.1,0.7-4.5-0.1c-1.2-0.6-3.2,0.7-3.4-1.8
		c-2,2.3-2,2.3,0.7,4.2c1,0.3,1.7-1,3-0.6c0.5,2.3,1,4.6,0.6,7.1c-4.2,0.1-8.4-0.3-12.3,1.3c3.3,3.1,7.3-0.5,10.6,1.4
		c0,1.1-0.7,1.8-1.1,2.7c-2.1,0.7-4.6-0.7-6.7,1.2c1.4,2.2,3.6,1.4,5.4,1.8c0.7,4.1,0.1,6.5-2.7,7.1c-3,0.6-6.1,1.4-9.2-0.3
		c-4-2.2-8.2-4.1-13.2-5.9c2,4.9,5.8,6.4,9.4,8.3c-2.5,3.8-4.9,7.6-4.6,12.6c2.4,0.1,1.7-2.4,3.4-3.2c2.2,3.2,4.2,6.7,5.6,10.5
		c1.4,3.5,2.7,7.1,3.4,10.7c0.8,4.1-0.3,8.1-3.1,11.6c-2.5-1-5-0.2-7.6,0.2c-6.9-4.6-12.7-10.5-17.8-17.1
		c-4.6-5.9-9.4-11.7-14.6-17.2c-1.9-2.1-3.9-4-6.7-5.2c-2.3-1-3.3-3.7-5.3-5.5c1.3-1.8,3.4-2.7,4.1-4.8c0.4-1,1.2-0.2,1.7,0.6
		c5.4-4.9,9-10.8,10.7-17.9c0.7-3.2,2.8-5.6,4.8-8.1c-0.3,5-0.2,9.8,4.3,13.2c-3-6-1-12.3-1.6-18.7c-0.6,0.9-1.2,1.6-2.1,2.8
		c-1.2-2.1-2.2-3.9-3.4-6.2c2,0.5,2.4,2.3,3.9,2.6c2.8-1.4,2.8-1.6,1-4.6c0.1-1,1.4-0.7,1.6-1.6C358.2,167.8,357,167.1,356.6,165.9z
		"/>
	<path fill="#FFFFFF" d="M324.5,537.1c0.2-1.7,0.4-3.3,0.4-5c0.1-1.6,0-3.3,0-5c1.6,0,2,0.9,1.8,2.1c1.8,0.3,3.6,0.3,5.3,1
		c7.6,3.2,15.2,5.8,23.4,6.3c0.7,1,0.4,1.9,0.4,2.8c-0.4,18.3-1.9,36.4-4.4,54.5c-0.9,6.2,0.1,12.4,0,18.5
		c-0.2,8.7,1.6,17.1,3.8,25.5c-1.9,3.3-6.3,2.5-8.7,5.5c-0.6,1.2,0.4,2.5,0.5,3.8c-4.1,3.4-7.4,3.3-10.1-0.2c0.4-3.3,1-6.7-0.4-10
		c-1,0.2-0.5,1.3-1.6,1.8c-0.3-6.2-2.9-11.6-4.3-17.5c-2.3-10-4.9-20-9.8-29.2c-4-7.6-3.8-15.4-3.2-23.4c0.4-5.2,1.6-10.3,3.2-15.2
		c0.9-2.7,1.3-5.5,1.3-8.4C322.1,542.4,323.3,539.6,324.5,537.1c0.5,0.1,0.8,0.1,1.3-0.3C325.3,537.2,324.9,537.3,324.5,537.1z"/>
	<path fill="#FFFFFF" d="M381.2,517.3c0.7-0.6,1.4-0.7,2.1-0.6c0.1,0.2,0.3,0.4,0.2,0.6c-0.5,9.9-0.2,20-1.8,29.7
		c-1.6,9.5-2.9,19.1-5.7,28.4c-1.1,3.6-1.1,7.4-1.4,11.2c-0.4,5.4-0.9,10.8-0.5,16.2c0.4,4.9-1,9.6-0.9,14.6c-2.2,0.8-4.3,1.5-5,4.2
		c-1.6-3.3-2.2-6.8-4.3-9.6c0.4,3.5,0.5,7.1,2.2,10.5c-3.8,2-7.7,1.5-11.7,1.4c-0.7-3.7-0.4-7.1-0.5-11.3c0.9,3.9,0.8,7.2,1.1,10.4
		c1.7-0.5,1.4-1.6,1.4-2.5c0.1-3.1-0.2-6.2-1-9.2c-0.7-2.7-1.5-5.3-0.7-8.1c0.1-0.4,0.2-1,0-1.3c-2.4-3.7,0-7.2,0.2-10.8
		c0.1-1.1,0.6-2.2,0.6-3.3c0-8.4,0.9-16.8,2.3-25.1c0.7-4.3,0.8-8.6,0.4-12.9c-0.4-4,0.3-7.9,0.2-12.3c6.5-0.6,10.7-6,16.8-7.8
		c3.1-0.9,4.9-3.6,5.2-7.1C380.7,520.9,380.9,519.1,381.2,517.3z"/>
	<path fill="#FFFFFF" d="M368.9,662.4c-2,1.8-5.1,2.5-6,6c4.9-1.1,9.7-1.4,13.6-5.2c1.2,1.2,2.7,2.2,4.2,2.8c0,1.4-0.5,1.9-1.7,2.4
		c-0.3-3.1-2.3-3-4.5-2.3c-2,0.6-3.7,1.7-5.1,3.6c3.7-0.3,6.7,1.2,9.9,1.8c2.2,0.4,4.2,0,5.5-2.1c2.7,1.5,5.5,2.5,8.8,2.6
		c3.4,0.2,6.3,2.1,8.3,4.9c1.7,2.3-0.4,7.4-3.4,8.6c-9.9,4-20.1,4.3-30.5,2.7c-4.9-0.8-9.4-3.3-13.5-6c-1.6-1.1-3.3-1.1-4.9-1.6
		c-4.2-1.3-8.4-2.6-12.9-2.9c-4.1-0.3-8.2-3.3-11.9-8.6c3.3-5.3,5.4-11.2,7-17.8c1.2,1.9,1.6,3.7,2.1,5.4c1.7,6,9.8,8.4,14.4,4
		c1.3-1.2,2.2-2.7,3.5-4.3c1.4-0.1,3-0.3,4.8-0.5c-0.6,1.8-3,1.7-3.3,3.7c2.6,0.4,5.1-0.5,7.7-0.5c-0.5,1.6-2.2,2.2-2.8,3.9
		C361.9,662.9,365.4,661.8,368.9,662.4L368.9,662.4z"/>
	<path fill="#FFFFFF" d="M355.8,630.7c5.3,3.6,9.2,0.9,13.5-1c0.9-2,0.3-4.5,1-6.9c0.9-2.8,2.3-4.2,5.3-3.8c0.7,0.1,1.2,0.3,1.9,0
		c1.7-0.9,3.2-1,4.1,1.1c0.9,1.9,0.1,4.8-1.8,5.8c-2.9,1.5-5.8,3.1-8.5,5.1c-0.5,0.4-1.2,0.5-1.2,1.4c1.2,0.5,2.3-0.7,3.6-0.3
		c0.1,1.4-1.9,2-1.5,3.8c2.5-1.1,4.8-2.5,7.6-2.6c-0.5,1.6-2.7,1.7-2.8,3.7c2.2,0.4,4-1.3,6.1-0.9c-0.1,1.4-2,1.3-2,2.7
		c4.8,1,9.8-1,11.6-4.5c0.9,0.3,1.5,0.9,2.1,1.8c-0.9,1.2-2.5,1.1-3.7,1.6c-1.3,0.5-2.7,0.8-3.3,2.3c1.8,1.4,4.7-0.9,5.8,2.1
		c1.9-0.5,3.6-1,4.7-1.3c5.6,3.3,9.9,7.8,16.4,8.4c1.7,0.1,3.2,1.4,4.3,2.9c0.7,1,0.5,1.9-0.1,3c-2.2,3.9-5.6,6.1-9.8,7.4
		c-5.6,1.8-11.3,1.9-17.1,1.7c-0.5,0-1.2-0.1-1.6-0.4c-4.3-3.4-10.2-4.4-13.8-8.8c-0.8-1-1.8-0.4-2.8-0.2c-2.1-2.2-4-4.6-6.5-6.7
		c1.6-5.1,0.2-9.1-4.3-12.1c-1.9-1.3-3.5-0.7-4.8,0.9C356.3,635.4,356.5,633.3,355.8,630.7z"/>
	<path fill="#FFFFFF" d="M334.5,377.1c4.3,1.5,8.7,0.4,12.4,2.7c0.6,0.4,1.5,0.3,2.3,0.2c8.9-0.4,17.9-0.6,26.8-0.5
		c3.8,0,7.7-0.9,11.6-0.4c3.4,0.4,6.7,1.5,10.3,1.4c-0.3,2.8-3.5,2.1-3.3,4.6c-1.6-0.7-2.5-1.2-3.4-1.5c-1.4,0.3-1.6,1.7-2.8,2.4
		c-7,1.6-14.5,2.7-21.8,3.4c-0.9-0.7-0.6-1.8-1.1-2.5c-1.1,0.6-0.1,1.8-1,2.4c-9,1.6-18.4,1.2-21.1-0.9c-2.1,1.6-4.7,1.1-5.7-1.4
		C336.6,384,335.7,380.7,334.5,377.1z"/>
	<path fill="#FFFFFF" d="M439.4,343.7c-6.8-3.5-7.1-3.7-11.1-9.5c0.9-0.7,2.4-0.3,3-1.5c-2.7-2.1-5.8-1.6-7.4,1.4
		c-2,3.8-3.7,7.7-4.4,12.2c-1.5-1.2-2.8-2.2-4.1-3.1c-0.2-1.1-0.3-2.1-0.5-3.6c-1.2,1.3-2.1,2.3-1.8,3.9c-0.8,0.8-1.7,0.9-2.8,0.7
		c-0.1-8.4,5.3-13.9,10.4-19.5c-0.2-1.8-1.8-2.8-1.7-4.5c0.7,0,0.8,0.6,1,1c1,1.5,2.3,2.7,4.1,1.5c1.7-1.1,2-3.1,0.9-4.7
		c-1.5-2.2-0.9-4.6-1-7c1.1,0.7,0.6,1.9,0.8,2.8c0.2,1,0.1,2.2,0.6,2.9c1.9,2.6,1.4,4.9-0.2,7.3c-0.2,0.2-0.1,0.6-0.1,1.2
		c5,0.2,7.1,4.1,9.8,7.3C437.7,335.6,440.4,339,439.4,343.7L439.4,343.7z"/>
	<path fill="#FFFFFF" d="M408.3,321.1c-0.8-2.3-1.9-4.5-2.3-6.9c-0.8-4.3-1.2-8.7-1.8-13.8c4.2,4.4,8.5,8,9.1,14
		c0.4,4.1,3.7,6.7,5.4,10.7c-4.7,3.6-8.6,8.1-10.3,14c-1.3-0.3-2.1-0.6-2.1-1.3c-0.1-5.8,0-11.7,0-17.5
		C407.2,320.1,407.5,321.2,408.3,321.1c0.2,0.1,0.2,0.1,0.2,0.1C408.5,321.3,408.4,321.3,408.3,321.1z"/>
	<path fill="#FFFFFF" d="M399.2,380.5c6.7-4.7,13.4-3.8,20.1-1.4c0.9,0.9,1,2,1.2,2.9c0.7,4.3-1.2,6.5-5.6,7
		c-3.3,0.4-6.3-0.2-9.3-1.4C402,386.2,400.4,384.3,399.2,380.5z"/>
	<path fill="#FFFFFF" d="M321.3,384.8c0.8-3.6,0.4-7.1,0.3-10.8c3.6,1.3,7.3,1.9,11.1,2.7c1.4,3.8,2.4,7.7,3.3,11.9
		c-2.7,0.1-5.1,0.4-6.8-2c-0.4,0.3-0.8,0.6-1.3,1c-1.2-1.7-1.5-3.9-3.1-5.7c-0.6,1.9,1.1,3.2,0.8,5
		C323.9,387.1,322.6,386.4,321.3,384.8z"/>
	<path fill="#FFFFFF" d="M364.1,649.9c-3.6,1.3-7.4,1.8-10.8,4c-1.4-1.9-3.4-3.1-3.1-6.1c0.3-2.6,1.2-4.2,3.4-5
		c2.7-1,5.1-2.5,7.4-4.3C365.2,641.3,363,645.9,364.1,649.9z"/>
	<path fill="#FFFFFF" d="M439.4,343.8c2.7-2.9,2.7-4.9,0-9.5c-0.5-0.8-1.4-1.4-1.4-2.7c2.2-0.4,4.4-1.3,7.1-1
		c1.3,4.1,1,8.6,2.8,12.6c-2,2.2-3.6,4.7-6.9,4.9C440.2,346.7,439.7,345.3,439.4,343.8L439.4,343.8z"/>
	<path fill="#FFFFFF" d="M442.3,364.7c-2-3.5,0.4-5.6,1.7-7.9c3.9,1.2,7.7,1.7,11.7,0.8c-0.1,1.4-1.4,2.3-1.7,3.9
		c3.5-2.4,4.1-3.5,4.1-8.1c1.5,2,1,4.9-1.4,8C453.5,365.4,447.2,366.8,442.3,364.7z"/>
	<path fill="#FFFFFF" d="M428.3,338.1c2.2,1.4,1.9,4.7,4.7,5.2c0.5,0.1,0.9,0.7,1.5,0.7c3.4,0.4,4.5,2.8,5,5.7
		c-2.3,2.6-4.2,2.9-6.7,0.4c-1.9-2-4.2-3.2-6.6-4.4c-1.3-0.6-2.1-1.5-2.3-3.1C424.8,340.9,426.8,339.9,428.3,338.1z"/>
	<path fill="#FFFFFF" d="M333.8,646.6c3.8,7.4,4.8,7.7,12.1,3.3c3.2,2.3,3.5,3.8,1.4,6.7c-0.9,1.3-1.8,2.5-2.7,3.6
		c-4.7,0.4-6.2-0.4-7.8-4.4c-1-2.6-1.8-5.2-3.3-7.5C333.2,647.8,333.2,647.3,333.8,646.6z"/>
	<path fill="#FFFFFF" d="M346.8,298.1c-3.2,4.1-6.8,8.4-11.3,12.4c-0.4-1.7,0.3-2.8,0.3-3.9c0.9-1.1,2.3,0,3.3-1.1
		c-4.5-3.3-2.9-8.6-4.6-13.6C338.5,294.9,342.2,297.3,346.8,298.1z"/>
	<path fill="#FFFFFF" d="M441.5,351.7c0.3-1.2,0.4-2,2-2.4c4.3-1.1,6.4-5.5,5.3-9.8c-0.6-2.4-1.4-4.9-0.7-7.6
		c1.7-0.5,2.9-0.2,3.1,1.7c0.4,3,1.3,6-0.5,9c-1,1.8-1.1,4-1.7,6c-1,3.5-1.7,4-5.5,3.6C443,352.2,442.3,352.4,441.5,351.7z"/>
	<path fill="#FFFFFF" d="M387.7,224.1c8.2,2.9,14.1,11.6,14,20.7C398.1,237.4,392.7,231.2,387.7,224.1z"/>
	<path fill="#FFFFFF" d="M445.2,354.4c3.6-0.8,5.4-3.3,6.5-6.3c1.2-3.4,2.3-6.9,1.9-11.1c1.8,1.1,2.1,2.2,1.8,3.8
		c-0.5,3.4-2.1,6.5-2.3,10c-0.1,0.8-0.7,1.3-1.3,1.9C449.9,354.4,447.5,354.2,445.2,354.4z"/>
	<path fill="#FFFFFF" d="M355,625.6c2.8,1.3,5,1.7,7.4,0.1c1.6-1.1,4.3-0.1,5,1.3C359.2,630,356.6,629.8,355,625.6z"/>
	<path fill="#FFFFFF" d="M425,286c0.2,2.9-1.3,4.5-2.3,6.6c2.2,0.2,2.6-1.8,4.1-2.4c-0.1,2.9-3.3,3.1-3.8,5.8
		c-2.1-2.3-1.5-4.9-2.7-7c1.4-0.2,2,0.9,3,0.9c0.6-1-0.9-1.6-0.6-2.6C423.4,287.2,424.2,287,425,286z"/>
	<path fill="#FFFFFF" d="M451.3,355.5c4.7-1.7,3.2-6.7,5.6-9.7c0.2,3.6-0.7,6.9-2.7,9.9C453.6,356.6,452.5,356.3,451.3,355.5z"/>
	<path fill="#FFFFFF" d="M421.8,310.6c0.8,3.5-0.7,7.1,1.7,10.5C419.5,318.8,419.9,318.3,421.8,310.6z"/>
	<path fill="#FFFFFF" d="M353.6,164.7c0.9,0.6,1.3,1.4,1.7,2.2c-0.2,1.1-1.3,1-2,1.5c-0.8,0.5-0.6,1.6-1.3,2.1
		c-0.9-0.3-1.1-1.1-1.6-1.7c0.8-1.2,1.2-2.8,3.2-1.9C354.6,166.1,352.7,165.6,353.6,164.7z"/>
	<path fill="#FFFFFF" d="M356.9,141.8c2.3-2.4,2.9-2.7,6-3c0.3,1.9-1.1,2.2-2.3,2.3C359.3,141.3,358,140.8,356.9,141.8z"/>
	<path fill="#FFFFFF" d="M379.5,143.7c0,1.6-0.6,2.5-0.9,3.4c-1.2,0.5-1.9,0-2.6-1C376.8,145,378,144.5,379.5,143.7z"/>
	<path fill="#FFFFFF" d="M369,662.4c1.9-0.6,2.7-1.9,2.3-3.9c1.4,0.3,1.6,1.4,2.7,2.1C372.2,661.7,370.7,662.3,369,662.4L369,662.4z
		"/>
	<path fill="#FFFFFF" d="M353.8,138.9c1.4-0.6,2.5-1.6,4.2-0.8c-0.2,1-0.9,1.5-1.7,2.2C355.6,139.8,354.7,139.4,353.8,138.9z"/>
	<path fill="#FFFFFF" d="M404.5,345.2c1-1.5,1.6-2.4,2.3-3.3c1.2,0.9,0.8,1.9,0.5,2.8C406.7,345.2,406,345.2,404.5,345.2z"/>
	<path fill="#FFFFFF" d="M426.7,335.8c-0.8,1.6-2,2.9-2.9,4.5C424.3,338.5,424.7,336.6,426.7,335.8z"/>
	<path fill="#FFFFFF" d="M371.4,157.9c0.9-0.7,1.7-1.6,3.1-1.6C373.5,158.5,373.5,158.5,371.4,157.9z"/>
	<path fill="#FFFFFF" d="M403.9,136.5c1.2,1.3,1.2,1.3,0.8,3.1c-0.6-0.2-1.2-0.3-2-0.6C403.1,138.3,403.5,137.5,403.9,136.5z"/>
	<path fill="#FFFFFF" d="M374.4,143.8c0.3-1.4,0.9-2.3,1.8-3c1.1,0.1,1,0.8,1.2,1.4C376.6,142.9,375.9,143.8,374.4,143.8z"/>
	<path fill="#FFFFFF" d="M387.1,149.6c-0.9,0.6-1.6,1-2.4,1.5c-0.4-0.5-0.3-1.1-0.1-1.5C385.3,148.1,386.1,148.7,387.1,149.6z"/>
	<path fill="#FFFFFF" d="M398.1,134.8c-2.2,1.8-2.9-1.2-4.4-0.4C395.1,133.7,396.4,134.5,398.1,134.8z"/>
	<path fill="#FFFFFF" d="M408,148.8c1.6-1.7,3-2.1,4.4-2.5C411.4,147.6,410.1,148.3,408,148.8z"/>
	<path fill="#FFFFFF" d="M383.9,130.9c-1.4,0.4-2.4,0.7-3.3,0.9C381.3,129.9,381.3,129.9,383.9,130.9z"/>
	<path fill="#FFFFFF" d="M394.2,391.1c-0.6,0.5-1,0.4-1.5,0.3c-0.6-1,0.3-1.8,0.2-3.1C394.3,389.2,394.1,390.2,394.2,391.1z"/>
	<path fill="#FFFFFF" d="M389.4,631.4c0.7,0.3,1.2,0.5,1.7,1.3c-0.7,0.1-1.4,0.2-2,0.3C388.7,632.5,389.1,632,389.4,631.4z"/>
	<path fill="#FFFFFF" d="M407.6,153.5c1-1,1.8-0.8,2.9-0.4C409.6,154,408.7,153.9,407.6,153.5z"/>
	<path fill="#FFFFFF" d="M422.6,302.7c0.1-1.5,0.2-2.9,0.3-4.4c0.6,1.5,0.7,3,0.4,4.5C423.1,302.8,422.8,302.7,422.6,302.7z"/>
	<path fill="#FFFFFF" d="M327.2,392.6c1.2,1.1,1.9,1.6,2.8,2.3C328,394.9,328,394.9,327.2,392.6z"/>
	<path fill="#FFFFFF" d="M364,155.5c-1.6-1.1-1.9-1.8-0.7-2.8C364,153.4,363.9,154.3,364,155.5z"/>
	<path fill="#FFFFFF" d="M374.7,655.9c1.4,0.7,2,1.3,2.6,2.5C376.2,657.8,375.5,657.3,374.7,655.9z"/>
	<path fill="#FFFFFF" d="M380.9,146.2c0.8-1.1,1.1-1.9,2.6-1.9C383,145.6,382.3,145.9,380.9,146.2z"/>
	<path fill="#FFFFFF" d="M387.8,665.5c-1.6,0.1-2.3-0.5-3.2-1.2C385.9,663.9,386.5,664.8,387.8,665.5z"/>
	<path fill="#FFFFFF" d="M354,161.9c-1.1,1.1-1.6,1.7-2.2,2.3C351.8,163.1,352.2,162.2,354,161.9z"/>
	<path fill="#FFFFFF" d="M408.4,144.8c-0.8,1-1.5,1.3-2.9,1.3C406.5,145,407.3,144.8,408.4,144.8z"/>
	<path fill="#FFFFFF" d="M370.5,142.5c0.3-0.8,0.6-1.2,1.5-0.9C371.9,142.3,371.9,143.1,370.5,142.5z"/>
	<path fill="#FFFFFF" d="M367.8,653.2c-0.5,0.9-1.1,1-1.7,1C366.1,653.3,366.7,653.2,367.8,653.2z"/>
	<path fill="#FFFFFF" d="M396.3,637.3c0.9,1,0.1,1.2-0.4,1.5C395.4,638.1,395.6,637.7,396.3,637.3z"/>
	<path fill="#FFFFFF" d="M394.5,152.2c-1,0.5-1.9,0.5-2.9,0C392.7,151.9,393.6,151.6,394.5,152.2z"/>
	<path fill="#FFFFFF" d="M370.7,129.8c0.7-1,1.4-1.3,2.5-1C372.4,129.6,371.7,129.9,370.7,129.8z"/>
	<path fill="#FFFFFF" d="M348.2,153.3c0.7,0.9,0.2,1.2-0.1,1.7C347.4,154.3,347.8,153.9,348.2,153.3z"/>
	<path fill="#FFFFFF" d="M441,353.4c-0.3,0.4-0.7,0.3-1.1,0.2C440.1,352.5,440.5,352.4,441,353.4z"/>
	<path fill="#FFFFFF" d="M366.4,158.6c-1-1-0.5-1.3-0.3-1.8C366.9,157.6,366.1,157.8,366.4,158.6z"/>
	<path fill="#FFFFFF" d="M774.2,493c-2-4.2-5.3-7.6-6.7-12.1c-0.9-2.8-0.7-5.3-0.3-8c2-0.8,3.4,0.7,5.5,1c-1-2.5-3.4-2.7-4.9-4.2
		c0-1.9,0.6-3.7,1.4-5.4c1.4-0.8,2.7,0.1,4.1,0.1c-0.6-1.6-2.4-1.1-3.1-2.4c-0.1-1.3,0.8-2.4,1.5-3.6c2.3,0.3,3.6,2,5.2,3.3
		c-0.4-2.6-2.7-3.7-4-5.6c1-3.1,3.5-5.6,2.9-9.1c-4.4,6.2-8.3,12.5-9.4,20.3c-2.1,15.2-4.4,30.4-6.6,45.6c-0.4,3-0.8,5.9-0.8,8.9
		c0,2.7-1.4,4.3-3.7,5.4c-4.7,2.2-9.5,4.1-13.9,6.9c-1,0.7-2.1,0.5-3.2,0.2c-12.6-2.7-24.6-7.1-35.6-13.9c-2.3-1.5-3.8-3.9-6.3-5.2
		c-1.4-0.8-1.9-2.7-1.8-4.7c0.4-6.8,0.5-13.7,0.8-20.5c0.4-8.5,0.2-17-0.5-25.5c-0.1-1.6-1.3-3.5,1-4.8c-1.6-1.8-1.7-3.9-1.9-6
		c-0.5-7.5-0.7-15.1-2.7-22.4c-2.6-9.5-0.1-18.6,0.6-27.7c3.7-3.9,6.9-7.9,10-11.8c3-0.5,5,0.7,7.1,2.6c7,6.4,12.5,14,17.2,22.2
		c1.1,1.8,2.5,3.2,4.3,4.5c2.6,1.9,3.3,5.2,5,7.7c-0.3,1.3-1.8,1.3-1.8,2.6c0.1,0.2,0.2,0.5,0.5,0.7c3.3,2.6,7.5,3.2,11.2,4.9
		c2.2,1,4.5,1.8,6.8,2.5c2.9,0.9,5.2-0.6,5.6-3.7c2.8-1,4.3-3.1,4.5-6.3c3.2-0.5,3.3-3,3.2-5.1c1.2-1.5,2.7-1.1,4-1.6
		c0.5-0.9,1-1.9,1.5-2.9c0.9,0.8,0,1.9,0.9,3c0.1-1.7,0.2-3.1,0.3-4.4c0.6-0.9,1.4-0.8,2.2-1c2.3,8.9-2.2,17.3-1.1,26
		c1.3-0.1,1.2-1.2,1.1-1.9c-0.6-4.8,1.2-9.3,1.5-14c0.2-3.8,0.3-7.5-0.7-11.2c-1.9-0.4-3.6-0.2-4.3,1.7c-4.3-2.2-2.2-6.1-3.1-9.2
		c3.3-2.9,4.5-7.9,9.3-9.4c1.5,2.8,1.7,6,4.1,8.4c-1.5-3.3-1.1-6.9-1.7-10.2c1-0.9,2.1-1.1,3.3-1.6c0.8,2.3,1.5,4.3,1.1,6.7
		c-0.7,4.1,0.1,8.2,0.6,12.2c0.6,4.6-0.2,9.2,0.2,13.8c1.7,16.5,0.6,33.1,3,49.6c0.9,6.1,0.7,12.4,1,18.5c0.1,2.2-1.1,3.9-2.5,5.2
		c-5.2,4.9-10.8,9.1-18.1,10.3c-1.8,0.3-3.4,2.5-5.5,1c0-5.7,1.8-13.9,3.4-15.4c-1.3-4.4,0.3-8.9,0.1-14.1c3,3.5,4.7,7.1,7.7,9.7
		c0.2,0,0.4,0.2,0.5,0.4l0.1-0.1C774.2,493.4,774.2,493.2,774.2,493z"/>
	<path fill="#FFFFFF" d="M689.9,309c-1.5-2.7-4.1-3.7-6.8-4.3c-1.7-0.4-2.8-1.1-3.6-2.5c-0.6-1-1.3-2-2.3-2.7
		c-1.3-1.1-0.5-1.8,0.8-2.5c-1.9-2.4-1.6-5.3-1.6-8.2c-0.1-3-0.4-6-3.4-7.7c-0.5-3.9-2.5-7.4-2.8-11.5c-0.9-11.9,2.2-22.3,9.7-31.5
		c1.7-2.1,3.4-4.2,6.3-5.1c2.1-0.6,3.3-2.5,4.7-4.1c3.2-3.7,6.9-6.9,10.6-10c1.5-1.2,3.2-1.9,5.3-2.7c4.9,3.3,9.2,7.5,13.6,12.5
		c-4,0.1-7.4-1.1-10.8,0c3.6,1.6,7.3,2.9,11.4,0.9c4.7,7.1,9.4,14,12.9,21.7c2.1,4.5,1.6,9.5,1.8,14.4c0.3,10.4-3.6,19.9-6.5,29.6
		c-0.1,0.2-0.3,0.3-0.5,0.6c-2.3-1.2-3.4-3.3-5-5.2c2-5.4,3.8-10.7,3.7-16.5c-1.8,4.8-4.3,9.3-6.3,13.9c-5.6-0.7-3.8,5.9-7.5,7.1
		c2.2,0.9,3.8,0.6,5.3-1.2c0.6,5.9,1.5,11.3,2.1,16.7c0.6,5.2,0.3,10.6-1.2,15.8c-0.9,3.3-0.9,6.4-0.2,9.8
		c1.2,5.6,2.8,10.8,5.7,15.8c2.1,3.5,2.1,7.6,2.3,11.6c0.3,5.1,1.2,10.1,1.6,15.1c0.4,5.7,3.3,10.7,6.1,15.6
		c2.4,4.2,5.2,8.2,7.8,12.3c0.4,0.6,0.8,1.1,1.5,1.2c0.7-0.1,0.8-0.7,1.1-1.1h-0.1c0.8-0.2,1.6-0.2,2.2-0.5
		c6.2-3.2,11.1,1.1,16.4,2.7c0.6,0.2,1.2,0.7,1.6,1.6c-0.8,2.6-0.3,5.1,2,7.2c1.4,1.3,1.3,2.7-0.9,3.5c-2.1,0.8-3.7,2.1-3.6,4.6
		c0,0.8-0.4,1.2-1,1.6c-1.3,0.8-1.8,2.2-2.3,3.5c-1.4,3.5-4.5,4.7-7.6,2.8c-3.3-2-6.7-3.6-10.7-4.1c-1.5-0.2-3.2-0.8-4-2.2
		c-2.7-4.9-7.3-8.2-10.3-12.9c-1.9-3-3-6.4-5.3-9.2c-2.1-2.6-4-5.4-6.5-7.5c-7.3-6.4-11.9-14.8-16.6-23c-1.9-3.3-2.2-7.4-2.8-11.2
		c-0.3-2.1-0.5-4.2-2.2-6.1c-1-1.2-1.2-3.3-1.2-5c0-2.1-0.2-4.3-0.9-6.2c-2.2-6.4-3.3-13.1-5.1-19.5c-0.6-2.3-1.9-4.2-3.5-5.9
		c-1.6-1.7-2.9-3.6-4.1-5.6c-2-3.3-2.7-6.7-1.9-10.6c4.4,0.5,7.3,5,12,4.7c4,1.8,4.7,5.2,4.5,9c0-0.1,0,0,0-0.1
		C694.5,314.4,692.7,311.5,689.9,309z"/>
	<path fill="#FFFFFF" d="M761.7,220c7.2,11.3,16.8,20.9,22,33.4c3.6,8.5,5.1,17.3,3.6,26.5c-1.1,6.8-1.7,13.6-5.4,19.6
		c-0.4,0.6-0.6,1.2-0.4,1.9c1.1,4.6,0.7,9.5,2.1,14.1c1,3.3,0.4,6.8,0.4,10.2c0,3.8-0.1,7.5-0.2,11.3c-0.1,2.1,0,4.2-1.5,6
		c-0.7,0.8-0.8,1.9-0.4,2.8c1.6,4.8-0.3,9.1-1.6,13.5c-1.2,4.3-3.1,8.5-1.7,13.2c0.6,2,0,2.6-2.5,4.6c-0.5,2-0.8,4-0.2,6
		c-3.5,3.9-3.4,2.4-18.6,5c-3.5-5.7-5.2-12.2-7.5-18.4c1.1,6.4,3.1,12.4,5.8,18.5c-2.9,0.9-5.6,0.9-8.1,1.2c-1.2-0.6-0.4-1.8-1-2.4
		c-0.7-0.3-0.7,0.8-1.4,0.6c-2.3-3.4-4.7-6.8-7-10.3c1.1,4.5,4.1,7.9,6.5,11.9c-3.3,1-6.4,0.5-9.8,0.9c-1-4.2-3.2-7.7-3.6-12.3
		c-0.5-6.5-0.8-13-1-19.5c-0.1-2.3-0.9-4.5-1.9-6.7c-0.3-0.7-1.2-1.5-0.1-2.4c-2.3-0.8-2.8-3-4-5.3c9.2,4.3,18.6,4.4,28,3.9
		c-8-0.1-15.9-1.5-23.7-3.4c-3.8-0.9-6.7-3.7-6.8-7.7c-0.2-5.5-1-11.1,2.3-16.5c0.7,0,1.9,1.5,2.8,0c-0.2-1.6-1.9-0.8-2.6-2
		c0.8-2.1-0.1-4.8,1.9-7.1c-0.9-1-1.6-2.5-1.4-4.5c2.9-2.8,5.1-6.5,7.6-9.1c2.3-4.1,1.4-8.3,2.7-12.2c2.9-8.7,4-17.6,3.7-26.8
		c-0.1-2.5-0.7-4.7-1.6-6.9c-3.5-8.1-7.9-15.6-12.9-22.7c-4-5.7-9.9-9.4-15-14.3c0.9-0.6,1.7-1.2,2.6-1.8c2.4,2.7,4.3,5.7,7,7.7
		c8.3,6.1,14.1,14.5,20.3,22.5c0.6,0.8,1.3,1.5,2,2.2c3.1,3.1,6.8,5.5,9.5,9.2c2.4,3.2,6.4,4.2,10.5,5.3c0.6-0.6,1-1.8,2.5-1.7
		c5.2,0.7,8.5-4.5,8.1-9.2c-0.6-5.9-0.9-11.9-3.6-17.4c-0.9-1.9-2.1-3.6-3.8-5C762,224.8,761.2,222.8,761.7,220z"/>
	<path fill="#FFFFFF" d="M713.8,211.6c1.5-1.8,3.5-2.5,4-4.5c0.1-0.4,0.8-0.9,1.3-0.9c4.5-0.3,5.9-4.3,7.5-7.2
		c1.7-3.1,3.3-6.4,4-10.1c0.4-2.7,2.6-5,4.5-7.3c0,4.9-0.2,9.8,4.4,13.2c-2.9-5.9-1-12.2-1.6-18.4c-1.1,0.1-1,1.8-2.2,1.9
		c-1.9-2.4-2.7-5.7-5.2-7.8c2.5,1.1,3.6,3.9,6.1,4.8c2.5-1.8,2.5-1.9,0.7-4.7c0.1-0.5,0.5-0.7,0.9-0.9c0.3-0.2,0.5-0.4,0.7-0.6
		c0.4-1.3-1.3-1.9-0.9-3.2c2.5-0.6,2.4,1.1,2.2,2.6c-0.4,2.9,0,5.7,0.1,8.6c0,1,0,2,1.4,2.7c0.6-3.3,2.3-6.1,3.5-9.1
		c0.7-1.8,1.8-3.2,3.5-4.3c4.1-2.8,7.9-6,11.6-9.4c2.3-2.1,5.4-2.4,8.1-2.4c6.1-0.1,12.4-0.7,18.5,2.3c0.8,3.9,0.3,8.2,1.2,12.2
		c-4.6,2-5.1,3-4.5,7.7c0.5,3.7,0.9,7.4,1.3,11.1c-2.4,0.8-7.2-0.3-8.5-1.9c-1.4,2.1-1.4,2.1,0.9,3.9c1.1,0.4,1.8-0.8,2.8-0.6
		c1,0.6,1.3,4.2,0.6,7.5c-3.1-1-6.3,0.4-9.5-0.2c-1.2-0.2-2.4,0.2-2.2,1.7c0.2,1.4,1.5,1.5,2.6,1.2c2.5-0.7,5-0.8,7.7-0.6
		c0.2,1.2-0.5,2.1-1.1,3c-2.1,0.6-4.6-0.5-6.7,1.1c1.5,2.3,3.7,1.6,5.5,2c0.9,5.1-0.5,6.4-5.2,7.4c-5,1.1-8.4-2-12.4-3.5
		c-2.2-0.8-4.3-2.1-6.7-2.8c0.1,3,2.8,5.5,8.6,7.8c-1.2,2.1-2.7,4-3.5,6.3c-0.7,2.1-2,4.1-0.8,6.4c2-0.2,1.4-2.5,3.1-3.2
		c2.1,3.2,4.1,6.6,5.5,10.2c1.4,3.6,2.9,7.2,3.6,11c0.8,4.1-0.3,8.1-3.2,11.5c-2.6-0.9-5-0.1-7.6,0.3c-6.8-4.6-12.6-10.4-17.6-16.8
		c-4.6-5.9-9.4-11.7-14.6-17.2c-2-2.1-4-4.2-7-5.4C716.8,216.2,715.8,213.5,713.8,211.6z"/>
	<path fill="#FFFFFF" d="M706,527.1c1.7,3.2,5,2.3,7.4,3.3c7.3,3.2,14.8,5.6,22.8,6.1c0.9,0.8,0.5,1.8,0.5,2.6
		c-0.3,13.5-1.4,26.9-2.6,40.3c-0.4,4.2-1.2,8.3-1.6,12.5c-1.4,15.5-0.6,30.8,3.5,46c-1.8,3.4-6.5,2.3-9,5.9c-0.5,0.9,1,2.2,0.5,3.9
		c-1.7,1.7-4.2,1.6-6.5,2.1c-1.7,0.4-3.4-2-3.2-4.1c0.3-2.9,0.5-5.7-0.4-8.5c-1.6,0.2-0.6,1.7-1.4,2.3c-0.1-0.3-0.2-0.6-0.3-0.9
		c-3.8-16.8-7.6-33.6-15.2-49.2c-2.2-4.4-2.2-8.9-2.2-13.4c-0.1-7.6,1.2-14.9,3.5-22.2c0.9-2.8,2.1-5.6,1.2-8.7
		c-0.1-0.4,0.1-0.9,0.3-1.3C704.7,538.5,706.3,533.1,706,527.1z"/>
	<path fill="#FFFFFF" d="M754.2,617.6c-2.9,0.2-4.2,2-5.6,4.4c-0.9-3.9-2-7.2-3.9-10.1c0.3,3.5,0.5,7.1,2.2,10.5
		c-3.7,2.1-7.6,1.5-11.7,1.5c-0.8-3.4-0.2-6.7-0.3-10c0.8,2.9-0.1,6.1,1,9.2c1.6-0.9,1.4-2.2,1.3-3.3c-0.1-2.5-0.4-5.1-0.9-7.6
		c-0.6-3.1-2-6.1-1-9.4c0.2-0.7,0.2-1.6-0.5-2.2c-0.9-0.9-0.8-2.1-0.6-3.1c2-7.3,1.3-14.9,2.5-22.2c1.9-11.7,2.2-23.5,2.2-35.3
		c0-0.8,0.1-1.5,0.2-2.6c4.6-0.3,8-3.4,11.8-5.5c1-0.5,1.9-1.1,3-1.4c5-1.6,6.9-4,7.3-9c0.1-1,0.1-2,0.3-3c0.2-1.2,0.3-1.2,2.4-1.9
		c-0.2,5.6-0.7,11-0.8,16.5c-0.1,5.1-0.6,10.2-0.7,15.2c-0.1,2.4-1.7,4.2-2,6.6c-0.8,7.1-2.5,14.1-4,21.1c-1.9,9.5-2.3,19.3-1.8,29
		C755.2,609.2,753.4,613.1,754.2,617.6z"/>
	<path fill="#FFFFFF" d="M732.6,656.4c1.5-0.1,3.2-0.3,5-0.4c-0.9,1.6-2.8,1.7-3.5,3.5c2.6,1.1,5.1-0.6,7.7,0
		c-0.5,1.4-2.1,2-2.7,3.6c3.5,0.4,6.9-1.7,10.4-0.2c-2.4,1.3-4.7,2.6-5.9,5.7c5-1.2,9.9-1.4,13.7-5.2c1.1,1.2,2.7,1.9,4,2.6
		c0.5,1.3-0.1,1.8-1,2.3c-0.2-0.1-0.5-0.1-0.5-0.2c-0.3-2.3-1.8-2.6-3.6-2.2c-2.3,0.5-4.3,1.6-5.7,3.5c0.6,1.1,1.5,0.6,2.1,0.4
		c2.7-0.8,4.7,1.6,7.2,1.7c3,0.2,3.8,0.1,5.9-2.1c2.8,1.6,5.7,2.4,9,2.6c3.1,0.2,5.8,2.1,7.8,4.6c1.9,2.4-0.1,7.5-3.3,8.8
		c-9.9,4-20.1,4.4-30.4,2.7c-4.9-0.8-9.4-3.3-13.5-6c-1.6-1.1-3.3-1.1-4.9-1.6c-4.2-1.3-8.4-2.5-12.9-2.9c-5.5-0.4-8.6-4.5-12-8.5
		c3.4-5.4,5.3-11.3,7.1-17.6c1.3,1.6,1.6,3.5,2.1,5.3c1.6,5.5,9.2,7.9,13.7,4.4C730.1,659.9,730.9,658,732.6,656.4z"/>
	<path fill="#FFFFFF" d="M775.5,636.3c-2.3,1.7-5.5,1.1-7.2,3.9c2,1.1,4.9-0.7,6,2.1c1.9-0.5,3.6-1,5.3-1.5
		c3.2,4.1,8.2,5.6,12.5,8.1c1.9,1.1,4.3,0.1,6.2,1.9c2,1.9,2,2.4,0.7,5c-1.7,3.3-4.5,5.1-7.8,6.3c-6,2.3-12.3,2.5-18.6,2.2
		c-0.4,0-1,0-1.3-0.3c-4.3-3.4-10.1-4.4-13.9-8.8c-0.7-0.8-0.8-0.7-3.1-0.5c-1.9-2.2-3.9-4.5-6.3-6.6c1.4-5.2,0.2-9.6-4.8-12.4
		c-1.7-1-3.2-0.5-4.3,1.3c-1.6-1.7-1.9-3.6-2.1-6.1c5,3,9.1,0.6,13.3-1.5c0.5-2.2,0.3-4.6,0.9-7c0.5-1.9,1.3-2.9,3-3.4
		c2.1-0.6,4.2,0.1,6.4-0.6c1-0.4,2,0.9,2.2,2.1c0.3,2,0.3,4.1-1.8,5.2c-2.9,1.5-5.9,3.1-8.5,5.1c-0.5,0.4-1.2,0.6-1.3,1.4
		c1.2,0.6,2.3-0.7,3.5-0.1c0.1,1.4-1.6,2-1.7,4.1c2.5-1.6,4.9-2.6,7.6-2.9c-0.2,1.7-2.7,1.6-2.5,3.9c2-0.5,3.8-0.9,5.7-1.3
		c0.2,1.6-1.9,1.5-1.8,3c4.7,1,9.6-0.9,11.7-4.5C774.3,634.8,775,635.4,775.5,636.3z"/>
	<path fill="#FFFFFF" d="M784.7,348.2c1.6-0.3,1.8,0.6,2.4,1.2c-4,8.2-6.9,16.5-4.2,25.7c6.5,2.1,6.5,2.2,3.6,10.3
		c2.2,1,4.5,2.1,6.8,3.1c4,1.8,4.5,5.3,1,8.3c-1.1-0.8-2.2-1.7-3.3-2.4c-1.2-0.7-2.5-0.6-3.8-0.8c-0.5-0.6-0.1-1.5-1.4-1.9
		c-4,0.7-7,4-10.5,6.3c-3.7,2.5-6,6.1-8.9,9.6c-2.9-0.6-5.7-1.4-7.8-3.8c5.3-7.3,11.6-12.9,17.5-19.1c0.8-0.6,1.6,0.9,2.6-0.2
		c-0.4-2.1-2.2-4.3-0.3-6.9c2,1.5-0.8,4.4,1.5,5.8c1.3,0.6,3,0.3,4.1,1.4c3.7-2.1,3.9-5.2,0.6-7.3c-0.9,0.1-0.5,1-0.6,1.6
		c-2.3-0.7-2.3-0.7-3.7-2.6c-0.4-0.9,0.6-1.4,0.4-2.2c-1.9-7.5,1.7-14,3.5-20.9C784.6,351.6,785.5,350.1,784.7,348.2z"/>
	<path fill="#FFFFFF" d="M741.9,638.1c2.1,2.6,3.5,5,2.5,8.1c-0.4,1.2,0.2,2.3,0.7,3.6c-3.9,1.2-7.7,2-11.2,4
		c-1-1.9-3.1-2.8-2.9-5.4c0.3-3.7,0.6-4.5,4.1-5.9C737.4,641.5,739.7,640.3,741.9,638.1z"/>
	<path fill="#FFFFFF" d="M745.5,406.8c-3.3-3.2-4.5-7.7-7.3-11.7c10.2-0.6,19.7-2.6,29.5-4.9c-0.5,1.8-1.7,2.3-2.9,2.6
		c-3.2,0.8-6.1,2.5-9.5,2.5c-1,0-2.2,0.2-3.1,1l0.1-0.1c-1.4,0.3-2.8,0.6-4,0.9c2.1,1.7,1.2,4.2,1.7,6.2
		C748.7,405,745.4,403.7,745.5,406.8L745.5,406.8z"/>
	<path fill="#FFFFFF" d="M792.5,404c1-1.9,1.7-3.6,0.9-5.5c5.5-2,6.9-6,3.3-11c3.2,0.3,6,1,8.7,2.4c-1.5,3.3-2.9,6.4-4.4,9.6
		c-1.2,2.7-3,4.3-6.2,3.5c-0.4-0.1-0.9,0.1-1.2,0.8c1.6,1.8,3.7,0.8,5.6,0.8C797.1,405.8,794.9,406,792.5,404z"/>
	<path fill="#FFFFFF" d="M726.6,649.6c3.4,3.2,3.6,4.1,1.2,7.5c-0.8,1.1-1.6,2.1-2.4,3.1c-4.6,0.5-6.3-0.4-7.9-4.6
		c-1.1-2.9-2.4-5.7-3.3-8.7c1.9,1.9,2,5.3,5.2,5.7C722.3,653,724.5,651.4,726.6,649.6z"/>
	<path fill="#FFFFFF" d="M782.3,244.3c-3.7-7.1-8.9-13.1-13.4-19.7C776,226.1,783,236.2,782.3,244.3z"/>
	<path fill="#FFFFFF" d="M788.3,351.9c0.5,3.3,0.8,6.6,0.5,9.9c-0.5,4-0.9,8.1-2.4,11.9c-0.7,0.2-1.3,0.1-1.6-0.7
		c-1.2-3.2-0.7-11.2,1.1-14.8c0.1,3.9-1.3,7.4-0.3,11.7C787.3,363.6,786.9,357.6,788.3,351.9z"/>
	<path fill="#FFFFFF" d="M752.2,396.2c1.9,0.2,3.9-0.8,5.9,0.2c-0.1,2.1,0.2,4.1-0.4,6.2c-1.9,0.1-3.6,0.2-5.6,0.3
		c-0.4-1.9-0.8-3.8-1.2-5.7C751.4,396.8,751.8,396.5,752.2,396.2L752.2,396.2z"/>
	<path fill="#FFFFFF" d="M755.8,436.3c-1.4,1.9-2.4,2-3.3,1.6c-5.5-2.1-10.9-4.4-16.5-6.6c2.4-1.5,4.2,1,6.4,0.8
		c2.3-0.2,4.4,1.2,6.6,1.8C751.1,434.6,752.7,436.7,755.8,436.3z"/>
	<path fill="#FFFFFF" d="M735.7,625.6c2.8,1.4,5.3,1.6,7.9,0c1-0.6,2.8-0.1,4.1-0.1c0.4,0.7,0.5,1.2,0.3,1.8
		C738.2,629.8,737.1,629.7,735.7,625.6z"/>
	<path fill="#FFFFFF" d="M791.1,403.7c-0.8,0.5-1.4,0.5-2.3,0.3c-0.6-1.6-0.9-3.4-1.9-4.9c0.5-1.1,1.2-1.8,1.9-2.5
		C791.9,397.4,792.3,398.7,791.1,403.7z"/>
	<path fill="#FFFFFF" d="M799.6,412.1c2.9-2.5,6.1-3.9,8.2-6.6c1.5,1.1,0.9,2.1,0.2,3.2C806.1,411.4,803.4,412.5,799.6,412.1z"/>
	<path fill="#FFFFFF" d="M723.9,302.2c-1.1-2.6-2.1-4.9-3.1-7.2c0.2-0.1,0.4-0.3,0.7-0.4c1.4,2.1,3,3.6,5.8,3.5
		C726.4,299.6,725.5,300.9,723.9,302.2z"/>
	<path fill="#FFFFFF" d="M805.9,393.3c2.5,2.6,1.8,4-3.7,8.5C803.6,399.1,806,396.9,805.9,393.3z"/>
	<path fill="#FFFFFF" d="M736,167.3c-1.3,0.9-3.2,1.1-2.8,3.3c-1.2-0.3-1.6-1.1-2-1.9c0.7-1.4,1.4-2.7,3.3-2c0.4-0.8-0.9-1.2-0.2-2
		C735.2,165.5,735.9,166.2,736,167.3z"/>
	<path fill="#FFFFFF" d="M738.1,141c2.2-1.4,3.7-2.6,6.2-2C742.8,141.6,740.8,141.1,738.1,141z"/>
	<path fill="#FFFFFF" d="M787.9,348.6c-2-2.1-1-3.3,0.5-4.7C790.6,345.8,789.3,347.1,787.9,348.6z"/>
	<path fill="#FFFFFF" d="M756.7,146.1c1.2-1.2,2.5-1.9,4.3-2.7c-0.7,1.6-1.2,2.7-1.7,3.7C758.1,147.6,757.5,147,756.7,146.1z"/>
	<path fill="#FFFFFF" d="M785.6,379.8c-1.7,3.3-2.8,3.4-4.9,1C782.4,380.4,784.3,381.6,785.6,379.8z"/>
	<path fill="#FFFFFF" d="M734.4,138.9c1.6-0.7,2.7-1.7,4.2-1c0.2,1-0.6,1.4-1.2,2.1C736.4,140.1,735.7,139.3,734.4,138.9z"/>
	<path fill="#FFFFFF" d="M757.2,140.4c0.7,2.4,0.7,2.4-2.4,3.7C755.4,142.7,756.1,141.7,757.2,140.4z"/>
	<path fill="#FFFFFF" d="M755.3,156.8c-0.7,1.1-1.5,2-3.4,1.9C752.8,157,753.8,156.5,755.3,156.8z"/>
	<path fill="#FFFFFF" d="M764.4,130.9c-1.1,0.3-2.1,0.6-3.4,1c0.3-0.8,0.4-1.3,0.6-1.9C762.6,129.8,763.5,129.8,764.4,130.9z"/>
	<path fill="#FFFFFF" d="M791.4,342.2c0.5,1.9,0.7,3.8-0.9,5.3C791.1,345.8,791.7,344,791.4,342.2z"/>
	<path fill="#FFFFFF" d="M788.6,148.8c1.3-1.3,2.9-2,4.6-2.5C792,147.7,790.4,148.5,788.6,148.8z"/>
	<path fill="#FFFFFF" d="M784.9,136.8c1.5,0.7,1,1.6,0.8,2.5c-0.8,0.6-1.4-0.3-2.2,0C783.9,138.2,784.1,137.4,784.9,136.8z"/>
	<path fill="#FFFFFF" d="M751.6,661.4c0.8-0.9,0.1-1.9,0.7-2.7c1.2,0.1,1.5,1.1,2.3,2C753.6,661.2,752.9,661.9,751.6,661.4z"/>
	<path fill="#FFFFFF" d="M778.9,135c-2.3,1.4-3.1-1.3-4.7-0.8C775.7,133.9,777.2,134.3,778.9,135z"/>
	<path fill="#FFFFFF" d="M763.7,394.7c-1.2,1-2.1,1.8-3.1,2.6C760.7,395.4,760.7,395.4,763.7,394.7z"/>
	<path fill="#FFFFFF" d="M769.2,666.2c-1.5-0.2-2.7-0.9-3.8-2C766.9,664.4,768.2,665.1,769.2,666.2z"/>
	<path fill="#FFFFFF" d="M790.3,384.9c-2.5-0.8-1.1-1.9-0.7-2.9C790.9,382.7,790.4,383.7,790.3,384.9z"/>
	<path fill="#FFFFFF" d="M768,149.6c-1,0.6-1.7,0.9-2.5,1.4C765.3,149,765.7,148.1,768,149.6z"/>
	<path fill="#FFFFFF" d="M791.5,153.1c-1.1,0.8-1.9,0.9-2.8,0.3C789.4,152.5,790.3,152.7,791.5,153.1z"/>
	<path fill="#FFFFFF" d="M754,128.8c-0.9,1-2,1-2.9,1.4C751.7,129.2,752.5,128.6,754,128.8z"/>
	<path fill="#FFFFFF" d="M802.3,404.5c0.6-1.2,1.5-1.9,2.5-2.6C804.1,403.5,804.1,403.5,802.3,404.5z"/>
	<path fill="#FFFFFF" d="M786.8,145.8c0.6-0.7,1.3-1,2.4-1.1C788.6,145.8,787.7,146,786.8,145.8z"/>
	<path fill="#FFFFFF" d="M744.4,152.4c0.3,1.1,0.6,1.8-0.1,2.6C743.3,154.3,743.1,153.6,744.4,152.4z"/>
	<path fill="#FFFFFF" d="M802.6,407.5c0.5-1.3,1.6-1.9,2.8-2.4C804.7,406.2,803.9,407.2,802.6,407.5L802.6,407.5z"/>
	<path fill="#FFFFFF" d="M769.5,632.8c0.2-0.4,0.4-0.8,0.5-1.2c0.8-0.2,1.2,0.3,1.5,0.9C771,633.1,770.3,633.1,769.5,632.8z"/>
	<path fill="#FFFFFF" d="M772.5,152.4c0.8-0.8,1.8-0.5,3-0.6C774.4,153.1,773.4,152.3,772.5,152.4z"/>
	<path fill="#FFFFFF" d="M752.7,141.4c0,1.4-0.4,1.6-1.3,1.1C751.3,141.7,751.8,141.6,752.7,141.4z"/>
	<path fill="#FFFFFF" d="M800.4,408.8c-0.5,0.9-1.1,1.6-2.5,1.2C798.7,409.2,799.6,409,800.4,408.8L800.4,408.8z"/>
	<path fill="#FFFFFF" d="M729.2,153.3c0.4,1.1-0.2,1.3-0.6,1.6C728.1,154.2,728.5,153.8,729.2,153.3z"/>
	<path fill="#FFFFFF" d="M746.5,158.2c-0.4-0.9,0.1-1.1,0.6-1.3C747.5,157.5,747.4,157.9,746.5,158.2z"/>
	<path fill="#FFFFFF" d="M748.6,653.5c-0.6,0.5-1.1,0.7-2,0.7C747.2,653.4,747.5,652.9,748.6,653.5z"/>
	<path fill="#FFFFFF" d="M777.2,637.4c0.5,1-0.2,1.1-0.6,1.4c-0.2,0.2-0.5,0.1-0.4-0.2C776.3,638.1,776.4,637.5,777.2,637.4z"/>
	<path fill="#FFFFFF" d="M763.9,144.3c-0.1,1.2-0.6,1.5-1.7,1.4C762.6,145,762.8,144.4,763.9,144.3z"/>
	<path fill="#FFFFFF" d="M765.4,145.6c0,0.6-0.3,0.9-0.9,0.8C764.4,145.8,765,145.8,765.4,145.6z"/>
	<path fill="#FFFFFF" d="M763.3,628.4c0-0.4,0.2-0.8,0.7-0.7c0.2,0,0.5,0.6,0.4,0.6C764.1,628.6,763.7,628.7,763.3,628.4z"/>
	<path fill="#FFFFFF" d="M786.9,395.5c0.2,0.9-0.2,1.2-0.6,1.5C786,396.4,785.6,395.8,786.9,395.5z"/>
	<path fill="#FFFFFF" d="M802.6,407.5c-0.4,1-1.3,1-2.1,1.3l0.1,0.1C801.2,408.4,801.6,407.5,802.6,407.5L802.6,407.5z"/>
	<path d="M386.6,396.2c2,5.8,3.9,11.5,5.9,17.3c0.5,0.3,0.9-0.6,1.3-0.3c3.1,10.2-0.1,20-1,29.9c-0.5-3.2-0.6-6.3,0-9.5
		c1.2-5.8,2.5-11.7,0.6-17.2c-2.8,1-1.5,3.9-2.5,6c-0.5-2.3-1.1-4.6,1.2-6.3c-2.2-6.6-4.4-13.1-6.5-19.5
		C385.9,396.5,386.3,396.3,386.6,396.2z"/>
	<path d="M318,487.6c6-0.7,25.9,11.4,27.5,16.5C338.1,495.6,327.4,492.7,318,487.6z"/>
	<path d="M368.3,522.8c-2.1-10.4-1.9-20.9-1.5-31.5C367.8,501.8,367.5,512.3,368.3,522.8z"/>
	<path d="M352.8,422.5c-2.1-7.1-2.7-14.3-0.2-21.5c1.2,3.6-0.3,7.1-0.3,10.6C352.4,415.2,352.3,418.8,352.8,422.5z"/>
	<path d="M367.1,397.1c0.8-0.1,1.6-0.2,2.3-0.3c2.5,4.4,2.4,11.8-0.2,16.2c0.6-5.7,0.4-10.9-1.1-15.9
		C367.7,397.1,367.4,397.1,367.1,397.1z"/>
	<path d="M338.1,506.9c1.5,1.7,1.8,3.2,1.8,5.5C338.8,510.5,338.3,509.1,338.1,506.9z"/>
	<path d="M364.1,454.1c0,0.8,0,1.7,0,2.5H364C364,455.7,364,454.9,364.1,454.1L364.1,454.1z"/>
	<path d="M340.3,397.2c-0.5,0.3-0.9,0.5-1.3-0.1c-0.1-0.1,0-0.5,0.2-0.5C339.9,396.2,340.1,396.7,340.3,397.2z"/>
	<path d="M335,368.5c-1.3,0.9-2.8,0.8-4.1,0.5c-4.4-1-8.8-2.1-13.1-3.3c-2.7-0.8-5.2-2.1-6.7-4.6c0.6-0.8,1.1-0.6,1.4-0.3
		c1.9,2.3,4.6,2.9,7.3,3.6c5.2,1.3,10.4,2.6,15.6,3.9C335.2,368.3,335.1,368.4,335,368.5z"/>
	<path d="M299.2,343.3c2.9,0.8,6,0.9,9.2,1.4c-3.1,2.3-7.2,2.4-10.2,0.3c-2.8-2-3.2-2.9-2.2-6.2
		C298.7,339.2,297.7,342.2,299.2,343.3z"/>
	<path d="M303.5,235.3c2.1,0.8,4.1-1.1,6.5-0.2c-0.6,3.1-3.1,1.4-4.7,2.3c-1,1.5-2.1,3.3-3.4,5.3
		C300.3,239.6,301.2,237.5,303.5,235.3z"/>
	<path d="M309.1,344.9c3.7,0.1,6.9-1.4,10.6-0.3C315.3,347.5,311.5,347.8,309.1,344.9z"/>
	<path d="M324.9,233.6c-3.8,1-7.6,1.7-11.7,2C314.5,232.8,319.4,231.9,324.9,233.6z"/>
	<path d="M304.4,242.7c1.1,1.2,1,1.2-0.7,6.4c-0.7,2.2-2.4,4-2,6.5C300.5,250.9,302.9,247,304.4,242.7z"/>
	<path d="M304.8,357.2c-4.4,0.2-6.9-2-7.2-6.6C300,353.4,301.9,355.9,304.8,357.2z"/>
	<path d="M293,269.8c2,3,1.1,6.7,2.8,9.8C293.4,276.7,292.4,273.5,293,269.8z"/>
	<path d="M332.1,236.2c4.7,1.6,7.2,4.3,6.9,7.5C336.4,241.3,335.3,237.7,332.1,236.2z"/>
	<path d="M312.5,305.6c-0.7-2.5-1.3-5-2-7.5c0.3-0.1,0.7-0.2,1-0.3c3.2,1.8,1.1,5.2,1.8,7.7C313,305.5,312.8,305.6,312.5,305.6z"/>
	<path d="M335.3,368.1c3,0.6,6.2,0.2,8.9,2.1c-3.2-0.1-6.6,1.2-9.2-1.8C335.1,368.4,335.2,368.3,335.3,368.1z"/>
	<path d="M345.3,370.4c3.2,0.4,6,1.1,9.1,2.2C351.1,373.8,347.5,372.9,345.3,370.4z"/>
	<path d="M323.4,229.1c-3.2,0.9-6.4,1.7-9.7,0.5C316.9,228.6,320.1,228.9,323.4,229.1z"/>
	<path d="M387.6,371.8c-2.2,3.4-4.4,3.8-6.1,0.9C383.6,372.4,385.5,372.1,387.6,371.8z"/>
	<path d="M325.8,282.7c-0.3,3.9-3.2,4.2-5.1,5.4C321.9,286.2,323,284.2,325.8,282.7z"/>
	<path d="M388.2,361.4c-2.9,0.5-5.6-0.4-9.1-0.6C382.7,360.2,385.5,359.8,388.2,361.4z"/>
	<path d="M409.2,352.8c1.8-3.8,3.2-4.6,5.8-3.6C413.4,350.9,411.1,350.8,409.2,352.8z"/>
	<path d="M299.8,349.5c-3.6-0.8-3.7-1-3.5-3.8C298.4,346.1,298.5,348.4,299.8,349.5z"/>
	<path d="M313.8,311.5c-1.3-2.5-1.3-2.5,0.1-4.4C315.5,308.7,313.5,310.1,313.8,311.5z"/>
	<path d="M342.1,261.2c-0.4,1.7-1,3.4-2.7,4.2c0.3-1.7,1.2-3.1,2.2-4.4C341.8,260.8,342,260.9,342.1,261.2z"/>
	<path d="M314.2,332.8c1.1-1.5,2.5-1.3,4.5-1.2C317.1,333.9,315.6,332.7,314.2,332.8z"/>
	<path d="M345.5,350.9c-2.3,0.4-3.8,0.3-5.7-1C342,349.1,343.4,350,345.5,350.9z"/>
	<path d="M312.1,297.6c-2.1-1.9-1.3-2.9-0.1-4.1C313,294.8,312.5,295.8,312.1,297.6z"/>
	<path d="M353.1,252.1c-0.6,2.8-3.1,0.8-4.4,1.7C349.9,252.5,351.6,252.6,353.1,252.1L353.1,252.1z"/>
	<path d="M410.8,356.6c1.5-1.1,2.6-1.2,4-1.5C413.5,356.7,413.5,356.7,410.8,356.6z"/>
	<path d="M363.5,374.2c-1.9,0.2-3,0.5-4.2-0.7C360.8,372.6,361.8,372.8,363.5,374.2z"/>
	<path d="M316.8,289.8c0.1-1.6,0.5-2.4,1.8-2.9C319,288.5,318,288.9,316.8,289.8z"/>
	<path d="M371.7,360.6c-1.3,0.2-2-0.1-3-0.5C370,359.4,370.9,359.3,371.7,360.6z"/>
	<path d="M310.5,359.3c-1.6,0.7-2.3,0.5-3.4,0C308.3,358.2,309,359,310.5,359.3z"/>
	<path d="M419.9,366.4c1.5,1.3,0.2,1.8-0.1,3.1C418.8,368.1,419.2,367.3,419.9,366.4z"/>
	<path d="M314.1,316.8c-0.9-0.3-0.9-0.8-0.4-1.5C314.7,315.6,314.6,316.1,314.1,316.8z"/>
	<path d="M407.5,351.7c-0.3,1-0.9,0.9-1.6,1C406,351.6,406.5,351.4,407.5,351.7z"/>
	<path d="M291.4,264.9c0.8,0.6,0.8,1,0.4,1.7C291,266.2,290.8,265.8,291.4,264.9z"/>
	<path d="M412.7,369.6c1-0.9,1.7-0.9,2.6-0.4C414.5,370.1,413.8,369.8,412.7,369.6z"/>
	<path d="M297.5,325.5c1.4,1,1.3,1.5,0.4,2C296.9,327.1,297.5,326.5,297.5,325.5z"/>
	<path d="M402.2,354.6c-0.1-1,0.5-1.3,1.3-1.2C403.6,354.5,403,354.7,402.2,354.6z"/>
	<path d="M366.3,373.5c-0.1,0.2-0.2,0.4-0.3,0.5c-0.3,0.1-0.6,0-0.7-0.4c0-0.1,0.2-0.4,0.3-0.5C365.9,373,366.2,373.1,366.3,373.5z"
		/>
	<path d="M372.2,300.6c3.1-2.5,6.9-1.7,10.7-2.2c1.9-3.1,5.6-4.9,7.4-8.5c0.6,2.9-0.3,5.3-2.5,7.1C383.3,301,378,301.8,372.2,300.6z
		"/>
	<path d="M395.7,318.8c-0.1,7.9-1.6,15.8-2.9,23.6c-0.8-8,0.8-15.8,1.4-23.7C394.8,318.8,395.2,318.8,395.7,318.8z"/>
	<path d="M395.2,317.1c-1.7-4.2-2.6-8.6-4.7-12.8C393.5,305.1,395.7,311.3,395.2,317.1z"/>
	<path d="M334.1,318.5c1.5,0.4,1.7,1.9,2.7,2.7c1,0.9,2.4,1,3.5,1.9c-3.2,0.5-4.9,0.1-6.1-1.6C333.5,320.7,332.6,319.6,334.1,318.5z
		"/>
	<path d="M389.6,286.3c-0.1-2.3,0.3-4.4,1.3-7.1C392.1,282.3,391.7,284.5,389.6,286.3z"/>
	<path d="M393.7,293.8c2.5,0.3,4.7,1.2,6.4,3.1C397.9,295.9,394.9,296.8,393.7,293.8z"/>
	<path d="M350.1,313.4c1.7-0.4,3,1.4,4.6,1C351.6,316.3,350.9,316.2,350.1,313.4z"/>
	<path d="M389.9,276.4c-1.4-2.1-1.4-3.8-1.3-5.9C390.5,272.3,390.1,274,389.9,276.4z"/>
	<path d="M347.6,325.6c-2.1,0.2-3.5,0.4-4.4-1.3C345,323.3,346,324.1,347.6,325.6z"/>
	<path d="M360.7,316.5c-1.6,0.3-2.7,0.1-3.6-1.3C358.7,314.7,359.7,315.1,360.7,316.5z"/>
	<path d="M350.2,325.2c0.6,0.1,1.2,0.3,1.3,1.1c-0.8,0.4-1.2-0.1-1.6-0.6C350,325.5,350.1,325.4,350.2,325.2z"/>
	<path d="M384,171.9c2.8-1.4,5.5-1.9,8.5-2.3c0.2,1.9,1.8,2.7,2.6,4.1c-1.1,0.9-1.8-0.6-2.8-0.3c-0.9,0.3-0.4,1.5-1.5,1.9
		C387.4,176.8,386.5,172.7,384,171.9z"/>
	<path d="M398.9,169.2c-5.8-1.2-11.5-1.6-17.3,0.2C385.1,165.1,394.7,164.9,398.9,169.2z"/>
	<path d="M353.8,229.6c5.4,0.2,10.5,3.4,16.5,1.9C366.5,234.8,358,233.8,353.8,229.6z"/>
	<path d="M367.6,212.1c-5.1-2.4-5.8-7.9-8.9-12c2.1-1.3,3,0,3.7,1.4C364.3,204.9,365.5,208.7,367.6,212.1z"/>
	<path d="M370.3,233.2c3.7-1,6.8,1.8,10.4,0.6c-0.9,2.3-3.9,0.9-4.5,3.3C374.2,235.7,372.7,233.8,370.3,233.2z"/>
	<path d="M383.4,250.5c-2-2.3-2.7-4.1-4-10.2C381.3,242.8,382.7,246.5,383.4,250.5z"/>
	<path d="M344,216.1c-2-0.9-2.7-2.2-1.5-4.3C344.4,212.9,342.8,215,344,216.1z"/>
	<path d="M352.9,208.8c0.4,1.7,0.2,2.7-0.1,4C351.2,211.3,351.4,210.2,352.9,208.8z"/>
	<path d="M370,215.7c1.3,1.4,1,2.5,0.9,3.9C369.5,218.5,369.3,217.5,370,215.7z"/>
	<path d="M373,226.2c-1.6-0.5-1.6-1.8-1.5-3C372.9,223.7,372.7,225.1,373,226.2z"/>
	<path d="M376,231.9c-0.6-0.3-1-0.5-0.7-1c0.2-0.3,0.5-0.5,0.8-0.2C376.4,231,376.5,231.4,376,231.9z"/>
	<path d="M367.7,228.9c1,0.2,1.2,0.6,1.5,1.4C368,230.5,367.7,230.1,367.7,228.9z"/>
	<path d="M337.5,578.9c0.3,5.5,0.4,11-0.3,17.1C334.7,588.7,334.8,581.2,337.5,578.9z"/>
	<path d="M336.2,555.1c-0.3-3.4-3.9-6.9,0.1-10.3c2.1,0.5,2.4,1.7,1.8,3.3C337.3,550.4,336.5,552.7,336.2,555.1z"/>
	<path d="M337.1,534.9c2.4,2.8,0,5.3-0.5,8C335.8,540.1,335.5,537.5,337.1,534.9z"/>
	<path d="M324.5,537.1c1.1-1.2,1.2-3,3-4.7c0.2,2.7-0.3,4.5-1.8,6.1C324.6,538.4,324.7,537.7,324.5,537.1L324.5,537.1z"/>
	<path d="M336.5,634.4c-1.8-1.4-1.3-2.7-1.4-4.6C336.6,631.4,336.6,632.6,336.5,634.4z"/>
	<path d="M348.8,627.2c1.2,1.6,1.1,2.6,0.5,3.9C348.1,629.8,348.5,628.8,348.8,627.2z"/>
	<path d="M335.4,610.4c-0.6-1.3-0.6-2.1,0.3-2.7C336.9,608.6,335.9,609.3,335.4,610.4z"/>
	<path d="M337,600.3c0.3,0.8,0.4,1.5-0.6,2C335.9,601.4,336.4,600.9,337,600.3z"/>
	<path d="M334.9,613.6c0.6,0.8,0.3,1.4-0.5,1.9C333.3,614.5,334.2,614.1,334.9,613.6z"/>
	<path d="M336.1,556.2c0.9,0.8,0.4,1.2,0.3,1.8C335.7,557.4,335.8,556.9,336.1,556.2z"/>
	<path d="M363.9,606.8c-1.2-3.2-1.5-6.5-1.4-9.9C363.5,600.2,364.2,603.4,363.9,606.8z"/>
	<path d="M361.2,587c0.8,1.7,1.4,3.4,1.1,5.5C360.5,590.8,361,588.8,361.2,587z"/>
	<path d="M346.5,668.3c3.8-2.8,5.5-2.5,8.1,1.5c1.1-1.1,2.2-2.1,3.8-2c0.9,0,1.8,0.3,2.5,0.9c2.6,2,1.1,4.3,0.4,6.8
		c-2.8-0.1-5.8,0.3-7-3.5c-1.9,1.9-3.9,2.7-6.1,1.5C346.2,672.3,346.2,670.3,346.5,668.3L346.5,668.3z"/>
	<path d="M346.6,668.2c-1.1,1.3-2.5,2.4-1.4,4.5c-2.2,0.2-1.8-2.3-3.5-2.6c-0.9-0.1-0.5,1.9-2.1,1.7c-0.3-2.3,0.4-4.4,1-6.5
		C344.6,665,345.2,665.3,346.6,668.2L346.6,668.2z"/>
	<path d="M418.1,333.4c0.1,1.8-0.2,3-1.8,3.9C415.5,335.3,416.6,334.4,418.1,333.4z"/>
	<path d="M408.3,321.1c0.8,0.5,1.7,1,1.6,2.4C408.3,323.3,408,322.4,408.3,321.1L408.3,321.1z"/>
	<path d="M411.1,324.7c0.7,0.2,1.2,0.5,1.1,1.2C411.3,326.2,410.8,326,411.1,324.7z"/>
	<path d="M400.5,380.7c3.6-1.6,7.3-1.9,11.2-0.5c-0.1,0.4-0.1,0.7-0.2,0.7c-3.6,0.9-7.3-1-10.9,1.2
		C400.5,381.7,400.5,381.2,400.5,380.7z"/>
	<path d="M416.9,382.2c-1.5,0.5-2.9,0.3-4.3-1.2C414.7,380.3,415.9,380.9,416.9,382.2L416.9,382.2z"/>
	<path d="M416.8,382.2c1.2,0.4,2.1,0.9,2,2.7C417.5,384.2,416.9,383.4,416.8,382.2L416.8,382.2z"/>
	<path d="M443.4,341.5c1,0.4,1.3,1,1.1,2C443.3,343.3,443,342.7,443.4,341.5z"/>
	<path d="M451.9,362.5c-0.7,1.7-1.9,1.6-3.7,1.5C449.4,362.7,450.4,362.1,451.9,362.5z"/>
	<path d="M445.5,363.5c-0.4,1-0.9,1-1.6,0.3C444.4,363,444.9,363.1,445.5,363.5z"/>
	<path d="M703.9,401.1c1.1,2.4-1.2,4-2.1,5.8c-0.9,2-2.3,3.7-3.4,5.5c1.4,5.9,0,12,2.4,17.9c-2-1.5-3.3-3.9-3.7-6.6
		c-0.5-3.4,0.3-6.7-0.2-10.1c-0.1-1,1-2.1,1.5-3.2c1.5-3.2,3-6.3,4.5-9.5C703.3,400.9,703.6,401,703.9,401.1z"/>
	<path d="M724.7,502c-7.7-6.5-17-9.9-26-13.9c0.6-1.5,1.5-1.2,2.1-0.9c7.8,3.8,16,7,22.8,12.8c0.6,0.5,1,1.2,1.5,1.7
		c0.1,0.2,0.1,0.4,0.1,0.6C725,502.1,724.8,502,724.7,502z"/>
	<path d="M747.8,491.4c0.2,10.5,0.7,21,1.3,31.5C746.9,512.5,747.2,502,747.8,491.4z"/>
	<path d="M718.9,507.1c1.6,1.4,1.5,3,1.6,4.4C719.5,510.5,719.1,509.1,718.9,507.1z"/>
	<path d="M776.1,495.8c-1.2-0.4-1.6-1.5-2.2-2.5c0.1-0.1,0.2-0.2,0.4-0.3C775,493.8,775.9,494.6,776.1,495.8L776.1,495.8z"/>
	<path d="M699.4,396.5c0.5,1.2,0.3,1.7-0.7,1.7C697.9,397.3,698.5,396.9,699.4,396.5z"/>
	<path d="M725.1,501.6c0.6,0.5,1.3,0.9,1,1.9c-0.8-0.3-1.1-0.9-1.4-1.6C724.8,501.9,724.9,501.7,725.1,501.6z"/>
	<path d="M776,495.8c0.7,0.2,1,0.7,1.2,1.4C776.2,497.2,776,496.5,776,495.8L776,495.8z"/>
	<path d="M701.1,347.6c5.6,2.3,9.2,6.3,13.8,8.9c-2.5-0.1-4.9-0.5-7.2-3c1.9,4.5,2.2,8.5,3.3,12.5c-3-3.6-3.9-8-5-12.8
		c-1.6-0.4-3.1-2-4.8-3.2c-1.1-0.8-2.2-2.3-2-3.2c0.7-3.1-0.5-5.9-1-9c3.4-0.3,4.1-3.1,5.7-5c1.1-0.4,1.8-0.1,2.3,1.1
		c-0.6,2.6-3.5,3.1-5.1,5.2C702,341.8,701.8,344.8,701.1,347.6z"/>
	<path d="M707.3,316.8c-1.8-4.9,0.4-10.3-2.6-14.6c1.2-1.1,1.8-0.7,2.3,0c0.3,0.4,0.6,0.9,0.8,1.4
		C709.6,308.1,707.5,312.4,707.3,316.8z"/>
	<path d="M681.7,262c-1.6-6.9,1-13,3.3-19.1c1.3,0,1.6,0.7,1.3,1.5c-0.3,1-0.9,2-1.3,3C683,252.1,681.8,256.9,681.7,262z"/>
	<path d="M682.8,242.4c-2.1-3.4-0.6-6.8,2.9-6.8c1.5,0,2.9-1.3,4.4-0.5c0.2,0.1,0.2,0.3,0.5,0.7c-0.8,2.2-3,1-4.6,1.6
		C685,238.9,684,240.6,682.8,242.4z"/>
	<path d="M693.9,235.1c3.4-3.6,7.6-1.7,11.5-1.9C701.7,234.7,697.9,235.3,693.9,235.1z"/>
	<path d="M716.2,376.4c-3.3-1.3-5.2-5.2-4.2-9.6c1.9,3.3,4.1,5.8,4.5,9.4C716.3,376.2,716.2,376.3,716.2,376.4z"/>
	<path d="M704.6,244.1c4.7-1,7.4,1.5,8.8,7.9C710.2,249.5,709.3,244.7,704.6,244.1z"/>
	<path d="M694.4,319.1c-0.9-0.3-1.1-1.2-1.1-1.8c0-3.3-2-5.5-3.8-7.9c0.1-0.1,0.3-0.3,0.4-0.4c3.9,1.4,5.1,3.4,4.7,7.6
		C694.5,317.4,694.4,318.3,694.4,319.1L694.4,319.1z"/>
	<path d="M676.3,278.9c-2.3-2.8-3.3-5.9-2.8-9.4C676.3,272.1,674.4,276.1,676.3,278.9z"/>
	<path d="M712.9,236c3.3,1.6,6.5,3.2,7,7.3C717.2,241.3,716,237.7,712.9,236z"/>
	<path d="M704.3,229.1c-3.2,1-6.4,1.6-9.8,0.6C697.7,228.5,701,228.9,704.3,229.1z"/>
	<path d="M697.1,331.5c-0.7-2.2-2.6-4.1-1.5-7.1C698.2,326.6,696.3,329.3,697.1,331.5z"/>
	<path d="M692.4,288.4c1.9,0.9,3.7,1.8,5.2,4.3C694.9,291.8,693.5,290.3,692.4,288.4z"/>
	<path d="M723.4,362.8c-2.1-0.3-3.2-1.9-4.8-3.7C721.3,359.4,722.6,360.8,723.4,362.8z"/>
	<path d="M694.3,319.2c2.4,0.4,2.5,1.7,1.9,3.8C693.9,322.1,694.3,320.6,694.3,319.2L694.3,319.2z"/>
	<path d="M708.9,299.9c0.6-1.5,1.3-2.6,2.7-3.4C711.5,298.8,711.5,298.8,708.9,299.9z"/>
	<path d="M736.3,418.3c1.5-1.6,2.6-2.8,3.7-3.9C740,416.4,739.1,417.7,736.3,418.3z"/>
	<path d="M762.8,421c-2,0.9-3.2,0.3-4.6-0.8C759.9,419.7,761,420.4,762.8,421z"/>
	<path d="M706.6,321.5c-1-1.4-1.5-2.4,0-3.5C707.7,319.1,707.2,320.1,706.6,321.5z"/>
	<path d="M729.4,253.7c1-1.1,2.5-0.9,3.8-1.1C732.3,254.4,730.6,253.1,729.4,253.7z"/>
	<path d="M716.4,376.1c1.6,0.2,1.6,1.5,1.7,2.7c-1-0.6-1.8-1.2-1.9-2.5C716.2,376.3,716.3,376.2,716.4,376.1z"/>
	<path d="M720.3,382.8c1.3,0.5,1.5,1.3,1.2,2.4c-0.8,0.2-0.8-0.5-1.1-0.8C720.1,383.9,720.1,383.4,720.3,382.8z"/>
	<path d="M684.4,275.7c-0.8-0.7-0.3-1.1,0.2-1.6C685.4,274.7,685,275.2,684.4,275.7z"/>
	<path d="M701.9,297.8c0.8,0.7,0.8,0.7,1.1,1.8c-0.7,0.3-0.9-0.3-1.1-0.7C701.6,298.6,701.5,298.1,701.9,297.8z"/>
	<path d="M717.2,261.4c-0.8,0-0.8-0.4-0.8-1C717.5,260.2,717.4,260.7,717.2,261.4z"/>
	<path d="M762.2,414.2c-0.7,0-1.2-0.1-1.4-0.9c0.7-0.4,1.1,0.1,1.6,0.4C762.3,413.8,762.3,414,762.2,414.2z"/>
	<path d="M672,265c0.9,0.2,1,0.7,0.7,1.6C671.6,266.3,671.7,265.7,672,265z"/>
	<path d="M752.9,417.2c0.2-0.7,0.5-1.1,0.9-0.5C754,417,753.6,417.2,752.9,417.2z"/>
	<path d="M715.1,255.1c0.5,0.5,0.6,0.8,0.4,1.1C714.9,256.2,715,255.7,715.1,255.1z"/>
	<path d="M773.2,342.7c-0.3-8.6,1.2-16.7,2.2-26.6c-0.8-2.8-1.9-7.4-4.1-11.8c2.1-0.4,2.5,1,2.9,2.1c1.7,4.4,2.8,8.9,2.5,13.6
		c-0.5,7-1.5,14-2.4,21C774.2,341.5,774.2,342.1,773.2,342.7z"/>
	<path d="M752.1,300.5c3.9-2.4,7.8-1.6,11.6-2.1c1.9-3.1,5.6-4.9,7.1-9.3c0.9,3.9,0.1,5.8-3,8.7
		C764.7,300.6,757.2,302.1,752.1,300.5z"/>
	<path d="M748.6,352.3c-6.3,1.5-12.6,2-18.9,0.1C736.1,352.6,742.4,352.4,748.6,352.3L748.6,352.3z"/>
	<path d="M774.3,293.8c2.7,0.2,4.9,1.2,6.6,3.1C775.3,295.9,775.2,295.8,774.3,293.8z"/>
	<path d="M774.2,351.1c-0.2-1.9-2-3.5-0.1-5.4C776.4,347.9,776.4,348.9,774.2,351.1z"/>
	<path d="M769.9,286c0.4-2,0.9-4.1,1.5-6.7C772.8,283.2,772.5,284.4,769.9,286z"/>
	<path d="M754,342.1c3.5-0.3,6.9-0.6,10.4-1C761,342.6,757.5,342.6,754,342.1z"/>
	<path d="M735.5,314.6c-3.6,1.5-4,1.4-4.6-1.2C732.6,313.2,733.9,314.7,735.5,314.6z"/>
	<path d="M770.6,276c-1.6-1.7-1.3-3.3-1-5.3C771.3,272.4,770.8,274,770.6,276z"/>
	<path d="M738.1,315.1c1.5-0.3,2.4,0,3.3,1.4C739.3,316.5,739.3,316.5,738.1,315.1z"/>
	<path d="M748.7,352.3c1.8-0.1,3.5-0.3,5.3-0.4c0,0.1,0,0.2,0,0.3C752.2,352.3,750.4,352.3,748.7,352.3L748.7,352.3z"/>
	<path d="M735.8,357.9c-0.9,0.5-1.7,0.3-2.5,0.2C734.1,357.3,734.9,357.7,735.8,357.9z"/>
	<path d="M732.5,326.3c-1,0.2-1.6-0.1-1.9-0.9C731.7,324.8,732,325.8,732.5,326.3z"/>
	<path d="M764.8,171.2c2.7-0.6,5.3-1.1,8.1-1.7c1.2,1.4,1.6,3.1,3.3,4c-1.6,1-2.2-0.6-3.4-0.1c-0.6,0.2-0.2,1.3-0.9,1.7
		c-3.7,1.5-4.7-2.4-7.4-2.9C764.7,172,764.7,171.6,764.8,171.2z"/>
	<path d="M779.7,169.2c-5.8-1.4-11.5-1.5-17.7,0.4C765.6,165,775.7,164.9,779.7,169.2z"/>
	<path d="M750.7,233c-1.4-0.2-2.8,0.2-4.2,0.4c-4.5,0.5-8.6-0.5-12.2-3.7c5.5-0.4,10.5,3.5,15.9,1.8
		C750.9,232,750.6,232.6,750.7,233L750.7,233z"/>
	<path d="M748.7,212.6c-5.2-2.5-6.1-8-9.1-12.2c1.1-1.5,2.1-0.9,2.9,0.1c0.7,0.9,1.2,1.9,1.6,2.9C745.5,206.5,747,209.6,748.7,212.6
		z"/>
	<path d="M750.7,233.1c2.5-1.8,4.3,0.1,6.3,1.1c1.4-0.7,2.9-0.9,4.6-0.1c-1.3,1.8-3.9,0.9-4.8,3.2
		C755.2,234.8,752.5,234.6,750.7,233.1L750.7,233.1z"/>
	<path d="M763.8,250.1c-2.1-3-2.9-6.6-3.6-10.1C761.5,243.3,763.9,246.2,763.8,250.1z"/>
	<path d="M724.6,216.1c-2-0.9-2.3-2.4-1.4-4.3C725.1,213,723.8,214.9,724.6,216.1z"/>
	<path d="M733.4,212.5c-1.5-1.1-1-2.3-0.1-3.7C734.6,210.2,733.4,211.3,733.4,212.5z"/>
	<path d="M751.6,219.7c-0.8-1.1-2-2.1-0.7-3.9C752,217.2,751.8,218.4,751.6,219.7z"/>
	<path d="M752,222.5c1.7,1.3,1.5,2.7,1.8,3.8C752.3,225.7,752,224.5,752,222.5z"/>
	<path d="M749.8,230.4c-1.1,0.1-1.4-0.4-1.5-1.2C749.3,228.8,749.6,229.4,749.8,230.4z"/>
	<path d="M732.6,200.8c0,0.5,0,1,0,1.5h-0.1c-0.1-0.5-0.1-1-0.2-1.5C732.4,200.8,732.5,200.8,732.6,200.8z"/>
	<path d="M757,232.1c-1.1-0.6-1.1-1-0.7-1.5C757.3,230.7,757.1,231.2,757,232.1z"/>
	<path d="M717.6,595.3c-1.1-5.5-2.5-11.1-0.1-17.2C718.9,580.2,718.8,591.3,717.6,595.3z"/>
	<path d="M717.2,555.1c-2.8-7.9-2.8-8.2,0.6-10.5C720.7,548.4,716.3,551.7,717.2,555.1z"/>
	<path d="M717.1,542.7c-0.2-2.7-1-5.3,0.3-8C719.6,536.2,719.5,538.1,717.1,542.7z"/>
	<path d="M708.1,532.7c0.2,3.3,0.1,3.7-1.9,5.7C705.4,536.3,705.6,535.9,708.1,532.7z"/>
	<path d="M716.2,630.4c1,1.1,1,2.2,0.8,3.5C715.7,632.9,715.4,631.7,716.2,630.4z"/>
	<path d="M716.6,607.8c0.8,0.9,0.2,1.6-0.4,2.3c-0.9-0.4-0.6-1.1-0.6-1.6C715.7,608,716,607.8,716.6,607.8z"/>
	<path d="M729.9,631.3c-0.7-1.6-0.7-2.5-0.2-3.7C730.7,628.7,730.7,629.6,729.9,631.3z"/>
	<path d="M716,613.9c-0.1,0.6-0.1,1.3-0.9,1.6c-0.7-0.8-0.3-1.3,0.3-1.9C715.6,613.7,715.8,613.8,716,613.9z"/>
	<path d="M717.5,600.2c0.9,0.9,0.3,1.4-0.1,2C716.4,601.4,717.2,600.9,717.5,600.2z"/>
	<path d="M717.1,556.2c0.6,0.7,0.6,1.2,0,1.7C716.2,557.3,716.5,556.8,717.1,556.2z"/>
	<path d="M743.7,596.7c0.5,3.3,1,6.6,1.4,9.9c-0.3,0-0.6,0.1-0.9,0.1c-1.2-3.2-0.9-6.6-1.7-9.8C743,596.8,743.3,596.8,743.7,596.7z"
		/>
	<path d="M743.1,592.6c-1.4-1.6-1.9-3.5-1.2-5.6C743.3,588.6,742.8,590.7,743.1,592.6z"/>
	<path d="M726.3,668.3c3.8-2.8,5.5-2.5,8.1,1.5c1.1-1.1,2.2-2.1,3.8-2c0.9,0,1.7,0.4,2.5,0.9c1.7,1.2,1.8,2.3,0.4,6.8
		c-2.8-0.1-5.7,0.4-7-3.5c-1.9,1.9-3.9,2.7-6.1,1.5C725.9,672.3,726,670.3,726.3,668.3L726.3,668.3z"/>
	<path d="M726.3,668.2c-1.1,1.3-2.5,2.4-1.4,4.5c-2.2,0.2-1.8-2.3-3.8-2.6c-0.8-0.1-0.3,2-1.9,1.6c-0.2-2.2,0.5-4.3,1-6.4
		C724.4,665,725,665.3,726.3,668.2L726.3,668.2z"/>
	<path fill="#FFFFFF" d="M352.5,670.5c-0.2,1.4-1,2-2.2,1.9c-1.4-0.1-2.2-1-2.1-2.4c0.1-1.2,0.9-2,2.2-1.9
		C351.8,668.2,352.5,669.1,352.5,670.5z"/>
	<path fill="#FFFFFF" d="M358,673.8c-1.7-0.7-1.8-1.8-1.4-3.1c0.3-0.8,1-1.2,1.8-1.2c1.4,0,2.2,0.8,2.3,2.2
		C360,671.9,358.3,673.1,358,673.8z"/>
	<path fill="#FFFFFF" d="M341.2,667.9c1.7-1.1,1.7-1.1,3.3,0.2C343.5,669.1,342.5,668.5,341.2,667.9z"/>
	<path fill="#FFFFFF" d="M730.1,668.1c1.5,0.3,2.3,1.1,2.1,2.5c-0.1,1.3-1,1.9-2.2,1.8c-1.4-0.1-2.2-1-2-2.4
		C728.1,668.8,729,668.2,730.1,668.1z"/>
	<path fill="#FFFFFF" d="M740.5,672.3c-1.6-0.7-2.7-0.5-2.4,1.4c-1.8-0.4-2.1-1.4-1.9-2.7c0.2-1,0.9-1.5,1.9-1.5
		C739.5,669.5,740.3,670.2,740.5,672.3z"/>
	<path fill="#FFFFFF" d="M721.1,668c1.2-2.1,2.1-1,3.3-0.3C723.2,669.3,722.3,668.3,721.1,668z"/>
</g>
</svg>
