<?xml version="1.0" encoding="utf-8"?>
<!-- Generator: Adobe Illustrator 19.2.0, SVG Export Plug-In . SVG Version: 6.00 Build 0)  -->
<svg version="1.1" id="Layer_2" xmlns="http://www.w3.org/2000/svg" xmlns:xlink="http://www.w3.org/1999/xlink" x="0px" y="0px"
	 viewBox="0 0 900 600" style="enable-background:new 0 0 900 600;" xml:space="preserve">
<g>
	<path d="M669.4,428.7c-0.9-1-1.8-1.9-2.7-2.9c-0.9-1.1-1.8-2.2-2.7-3.4c-0.8-1-1.6-2.1-2.3-3.2c-0.8-1.2-1.6-2.4-2.4-3.6
		c-0.7-1-1-2.3-2.5-3.6c-0.1,2.6-0.2,4.7-0.4,6.8c-0.2,3.6-0.5,7.1-0.9,10.7c-0.1,0.6-0.5,1.2-0.8,2c-1.2-1.6-1.1-3.2-1-4.7
		c0.2-5.7,0.4-11.5,0.9-17.2c0.3-4.3,1-8.5,1.6-12.8c1-6.6,2.8-13,5.3-19.3c0.3-0.7,0.6-1.7,0.4-2.4c-0.5-2.1,0-4,0.5-6
		c1.9-6.8,4.8-12.9,9.7-18.1c1-1.1,1.8-2.2,2.1-3.7c0.3-1.5,0.9-3,1.3-4.4c0.4-1.1,0.8-2.2,1.1-3.1c1.2-0.6,2.4-0.8,3.1-1.5
		c1.7-1.7,3.7-2,5.9-2.1c2.9-0.1,5.7-0.2,8.6-0.3c0.8,0,1.7,0,2.5,0.2c0.4,0.1,0.6,0.5,1.1,1c-1,0.3-1.7,0.5-2.4,0.6
		c-3.5,0.7-7.1,0.5-10.7,0.5c-3,0-5.4,1-6.9,4.1c-0.7,1.6-1.2,3.1-1.4,4.8c-0.3,2.1-1.2,3.8-2.6,5.3c-3.5,3.8-6,8.3-7.9,13.1
		c-0.5,1.2-1.2,2.3-0.4,3.7c0.2,0.4-0.2,1.1-0.4,1.7c-0.8,2.2-1.6,4.5-2.4,6.7c1.3,2.9,2.6,5.6,4.9,8.1c0.5-1.1,0.9-1.9,1.3-2.9
		c0.8,1.3,0.1,2.5,0.2,3.6c0.1,0.8,0,1.8,0.5,2.4c1.6,2.2,3.1,4.7,6.4,4.5c0.5,0,0.9,0.2,1.4,0.3c5.2,1.4,10.3,2.9,15.5,4.2
		c2.5,0.7,5.1,1.5,7.6,1.8c3.3,0.4,6.7,0.3,10,0.3c0.5,0,1-0.3,1.6-0.5c-0.9-5.4-2.8-10.3-2.9-15.2c-1-1.4-1.7-2.4-2.5-3.4
		c-0.3-0.4-0.8-0.6-1.4-0.9c-0.1,0.5-0.2,0.7-0.2,0.9c1,4.8,2,9.6,3,14.4c0.1,0.7,0.1,1.2-0.7,1.3c-0.2-0.3-0.4-0.5-0.6-0.8
		c-2.2-5.3-3.8-10.8-4.5-16.5c-0.2-1.8-0.7-3.5-1.8-4.9c-0.1-0.1,0-0.4,0-0.6c1.4,0,2.7,0.5,3.5,1.5c2.4,2.8,6,4.4,7.9,7.7
		c0.2,0.4,0.7,0.7,1.1,0.9c3.6,2.5,7.4,4.1,11.9,4.3c4.8,0.1,9.5,0.6,14.3,0.5c4.8-0.1,9.5,0.6,14.3-0.2c0.2,0,0.5,0,0.7,0
		c4.4,0.7,8.8,0.4,13.1,1.5c0.9,0.2,1.9,0.4,2.8,0.5c6.6,1,13.2,2.2,19.6,3.9c2.3,0.6,4.6,0.8,6.9,1.1c0.2-0.7-1.2-0.9-0.3-1.6
		c0.9,0.2,1.8,0.4,2.8,0.5c0.9,0.1,1.8,0.2,3,0.4c-0.4-1.5,0.5-2.8-0.3-4c-3,1.8-3.5,1.8-6.5-0.1c-0.6-0.4-1.2-0.8-1.9-1.3
		c1.6-0.4,2.9,0.1,4.3,0.4c1.6,0.4,3.1,0.1,4.5-1.4c0.9-5.4,2.1-10.9,1.4-16.7c-1.1-0.5-2.1-0.9-3.2-0.8c-4.7,0.4-9.3-0.2-13.9-0.9
		c-3.7-0.5-7.3-1.3-10.9-1.7c-4-0.5-8-1.4-11.7-3.1c-4.1-1.9-8.2-3.9-11.9-6.5c-6.3-4.5-13.4-7.3-20.7-9.5c-3-0.9-5.9-1.8-8.7-3.3
		c-0.8-0.4-1.8-0.5-2.7-0.6c-2.1-0.3-4.3-0.5-6.4-0.9c-1.2-0.2-2.3-0.6-2.9-1.8l-0.1,0.1c0.5,0,1-0.2,1.4-0.1
		c4.8,0.7,9.6,1.5,14.5,2.3c0.3,0.1,0.7,0.1,1,0.3c1.6,1.1,3.5,1.4,5.3,2c4.6,1.5,9.2,3.1,13.5,5.6c2.8,1.6,5.6,3.1,8.4,4.8
		c5.5,3.4,11.6,4.9,17.9,5.8c6.6,0.9,13.3,1.1,20,1c1.5,0,3.1-0.2,4.5-0.2c1.1-0.9,2.1-1.8,2.9-2.4c0.3-1,0.5-1.7,0.7-2.4
		c1-0.2,1.7-0.4,2.4-0.5c0.4-1.6-0.6-3.1,0.6-4.2c1.4-0.8,2.6,0.3,3.9,0.3c-0.4,1.4-1.8,1.4-2.8,2c-0.5,1.7-1.5,3.3-0.1,5
		c0.8,0.4,1.3-0.3,2-0.4c0.6-0.1,1.2-0.3,1.6-0.6c1-0.7,2-1.1,3.4-0.1c-0.2-2.3-1.1-3.9-1.9-5.6c-0.8,0-1.6-0.1-2.4-0.1
		c0.2-0.5,0.3-1.2,0.7-1.6c0.8-0.7,1.8-1.2,2.7-1.7c0.9-0.5,1.9-0.9,2.8-1.4c0.9-3.2,2.5-5.8,4.1-8.5c2.9-4.9,5.5-10.1,7.4-15.5
		c0.9-2.6,2.3-4.9,4.3-6.9c1.7-1.6,3.5-2,5.5-1.7c1,0.1,1.7,0.7,2.2,1.7c0.3,0.6,0.3,1.1-0.5,1.6c-1.7-0.3-3.6-0.6-5.5-0.1
		c-1.5,1.5-2.2,3.4-2.9,5.3c-0.9,2.4-1.9,4.9-2.9,7.3c-0.2,0.5-0.4,1.1-0.5,1.3c0.9,1,1.6,1.7,2.3,2.6c0.6,0.7,0.7,1.5,0.5,2.4
		c-0.1,0.4-0.4,0.7-0.6,1.1c-1.3-0.9-2.5-1.7-3.7-2.6c-0.5,0.9-0.9,1.6-1.3,2.4c2,1.2,2.8,3.2,3.4,5.1c0.3,1,0.2,2.1,0.2,3.2
		c0,0.8-1.2,1.1-1.7,0.6c-0.7-0.8-1.3-1.7-1.8-2.6c-0.6-1-1-2.1-1.7-3.5c-0.8,1.2-1.3,2-1.9,2.8c0.4,0.7,0.8,1.2,1.1,1.7
		c1.2,2.1,2,4.3,1.2,6.8c-0.2,0.8-0.2,1.7-0.3,2.5c-0.7-0.2-1.4-0.4-1.7-1.2c-0.3-0.8-0.5-1.6-0.8-2.4c-0.4-1.2-0.9-2.4-1.5-4
		c-1.4,1.5-2.5,2.6-3.7,4c0.5,1.2,1.2,2.5,1.7,3.8c0.5,1.2,0.8,2.5,1.2,3.9c2-1,4.7-1,4.8-4.1c0.1,0,0.3,0,0.4,0
		c3.2-2.5,6.3-5.1,9.5-7.6c0.5-0.4,0.9-0.8,1.2-1.3c1.5-2.6,3-5.2,4.3-7.9c1.6-3.3,2.9-6.8,4.5-10.4c-0.5-1.7-1.1-3.6-1.6-5.6
		c-0.3-1.1-0.3-2.3-0.3-3.5c0-0.2,0.4-0.6,0.6-0.7c0.3-0.1,0.7,0.1,0.9,0.4c0.3,0.4,0.4,0.8,0.5,1.3c0.4,1.4,0.6,2.8,1,4.2
		c0.1,0.4,0.5,0.7,0.7,1.1c1.1-0.9,1.1-1.9,0.9-3c-0.4-2.1-0.3-4.2-0.1-6.3c0.3,1.1,0.3,2.1,0.5,3.2c0.2,1.1,0.5,2.3,0.7,3.4
		c0.4-1.3,0.5-2.6,0.5-3.8c0.1-2,0.2-4.1,0.5-6.1c1.1-6.5,2.3-12.9,3.5-19.4c1.1-6.1,2.5-12.1,2.8-18.4c1.8-0.9,3.7,0.2,5.7-0.3
		c-1-1.3-2.8-0.7-3.9-2.1c0-0.3,0-0.9,0.1-1.5c0.5-4.1,1-8.3,1.7-12.4c1.6-10.4,3.2-20.8,3.8-31.2c0.1-1.7,0-3.4,0-5.4
		c-0.2,0.4-0.4,0.6-0.4,0.8c-1.7,6.1-2.7,12.4-3.6,18.6c-1,6.3-2.1,12.5-4.5,18.4c-1.4,3.3-1.8,6.9-2.3,10.1
		c0.6,1.3,2.4,0.6,2.6,2.3c-1.1,0-2.1,0-3,0c-0.3,0.5-0.5,0.8-0.6,1.2c-1,4.7-2,9.3-2.9,14c-0.1,0.7,0,1.4,0,2
		c1.2,0.7,2.2,1.2,3.2,1.8c0,0.1-0.1,0.2-0.1,0.3c-1.2-0.1-2.4-0.2-3.8-0.3c-0.5,2.8-1,5.3-1.5,8c0.7,0.5,1.4,1,2.1,1.6
		c-0.9,0.2-1.7,0.4-2.5,0.6c-0.2,0.8-0.3,1.5-0.5,2.2c-1,3.4-1.9,6.9-2.9,10.3c-0.1,0.5-0.6,0.8-1.1,1.4c-0.5-1.5-0.1-2.6,0.2-3.8
		c1.4-6.9,2.8-13.8,4.1-20.7c1.7-8.8,3.3-17.6,6.2-26.1c0.2-0.6,0.5-1.3,0.3-1.7c-0.6-1.4,0.1-2.6,0.5-3.8c1.7-4.7,2.9-9.6,3.7-14.5
		c1.1-6.5,2.2-12.9,3.5-19.4c0.8-4,1.9-7.9,3-11.8c0.3-1.2,0.5-2.6,1.8-3.6c0.3,0.3,0.7,0.6,0.9,1c0.4,1.1,0.8,2.3,1.1,3.4
		c2.6,8.1,4.5,16.3,5.5,24.7c0.3,2.6-0.3,5.3,1.1,7.7c0.1,0.2-0.3,0.5-0.3,0.8c-0.3,1.6-0.5,3.2,1,4.3c-0.4,0.4-1,0.8-1,1.3
		c-0.1,1.5-0.3,3.2,0,4.6c0.4,1.9,0.4,3.7-0.1,5.6c1.5,0.4,2.7,0.7,4,1.1c0.5,0.2,1,0.5,1.5,0.8l0.1-0.1c-1.9-0.1-3.8-0.3-5.8-0.4
		c-0.4,0.8-0.8,1.7-1.3,2.4c-0.4,0.6-0.9,1.1-1.4,1.5c-0.5,0.3-1.1,0.4-1.5-0.5c0.7-1.2,1.5-2.3,2.1-3.6c0.6-1.3,0.9-2.7,1.2-3.9
		c-1.1-2.3-1.4-4.5-1.3-6.8c0.2-9.6-0.9-19-2.9-28.4c-0.1-0.6-0.2-1.2-0.5-1.7c-0.2-0.6,0.1-1.4-0.9-1.8c-1.1,4-0.7,8.1-1,12.1
		c-0.7,7.1-0.5,11.2,0,13.9c1,0.5,2.5-0.2,3.3,1.2c-1.2,0-2.3-0.6-3.6,0.1c-0.2,2.6-0.1,5.2-0.1,7.8c0,3,0.4,6,1.1,8.9
		c0.4,1.6,0.7,3.3,2.6,4c0.3,0.1,0.6,0.5,0.7,0.8c0.3,1.4,1.6,1.5,2.6,2.1c1.3,0.8,2.5,0.6,3.8,0.2c1.3-0.4,2.5-0.9,3.7-1.4
		c0.5-0.2,1.1-0.6,1.4-1c1.2-1.5,1.6-3.4,1.9-5.3c0.2-1.3,0.4-2.6-0.7-3.7c-0.4-0.4-0.4-1.4-0.3-2c0.3-9.4-1.4-18.5-3.9-27.5
		c-1.6-5.5-3.3-11-5.7-16.2c-1.1-2.4-2.3-4.7-4.5-6.3c-1.6-1.2-2.3-3-1.8-5.1c0.4-2.1,1.1-4.1,2.3-6c0.6-0.9,1.2-1.9,1.3-2.9
		c0.5-2.9,0.8-5.9,1.2-8.9c0.8-7.5,1.6-14.9,2.4-22.4c0.1-1.2,0.4-2.3,0.5-3.5c0.1-1.2-0.3-2.4,0.1-3.5c0.3-1.1,0.9-2.1,1-3.3
		c0.2-1.8,0.6-3.5,0.9-5.3c1.9-10.8,4.5-21.5,7.1-32.1c1.9-7.8,3.4-15.6,3.9-23.6c0.3-4.6,1.3-9,2.4-13.3c0.3-1.2,0.5-2.5,1.9-3.5
		c-0.1,1.2-0.2,2.1-0.3,3.1c-0.5,3.2-1.1,6.3-1.6,9.5c-0.1,0.7,0,1.4,0,2c2.2,0.9,4.3,1.7,6.2,3c-0.8,0.7-1.4,0.1-2.1-0.1
		c-0.8-0.3-1.6-0.6-2.4-0.8c-0.6-0.2-1.1-1-2.2-0.5c-0.3,3.5-0.6,7.2-0.8,10.8c0.4,0.5,0.8,0.9,1.3,1.5c-0.6,0.2-1.1,0.3-1.7,0.6
		c-0.4,2.3-0.8,4.6-1.2,7.1c1.3,0.5,2.4,0.9,3.4,1.4c0.3,0.1,0.4,0.5,0.6,0.7l0.1-0.1c-1.4-0.2-2.8-0.3-4.3-0.5
		c-0.7,2.3-1.4,4.5-1.2,7c2.1,0.6,4.2,1.2,7,2.1c-3-0.2-5.2-0.4-7.6-0.6c-0.2,0.7-0.4,1.2-0.5,1.8c-1.6,7.7-3.3,15.4-4.8,23.1
		c-0.7,3.6-1.6,7.2-1.6,10.9c-1.3,3.6-1.4,7.5-2,11.2c-1.1,6.3-2.1,12.7-3.2,19c-0.1,0.8-0.3,1.6-0.4,2.5c-0.6,4.7-1,9.5-3.7,13.6
		c-0.2,0.3-0.2,0.7-0.3,1c-0.3,1.4,0.2,2.2,1.6,2.8c1.2,0.5,2.5,0.8,3.8,0.6c0.8,1.1,1.9,0.6,2.9,0.7c0.2,0.9,0.9,0.7,1.4,0.8
		c0.7,0.7,1.5,0.9,2.7,0.5c-1-0.8-1.9-0.6-2.8-0.4c-0.1-1-0.9-0.7-1.4-0.8c-0.8-0.8-1.9-0.7-2.9-0.7c-0.5-1-1.6-0.9-2.4-1.4
		c-1.7-1-2-1.9-0.9-3.4c0.6-0.8,1.4-1.7,2.3-2.2c1.5-0.9,3.1-1.8,4.8-2.3c2-0.6,4.2-0.8,6.4-1.1c0.1-0.3,0.3-0.7,0.4-1.1
		c0.6-4,1.1-8,1.6-12c0.3-2.4,0.4-4.8,1.1-7c0.5-1.6,0.9-3.2,0.9-4.9c0-4.1,0.5-8.1,1.1-12.1c1.8-11.2,3.7-22.4,5.8-33.5
		c2.2-11.5,4.6-22.9,5.4-34.6c0.1-1.5,0.4-3.1,0.8-4.6c0.1-0.5,0.6-0.9,1.2-1.8c0.1,1,0.2,1.4,0.1,1.9c-0.3,3.3-0.7,6.6-0.9,10
		c-0.9,10.5-2.7,20.8-4.5,31.1c-1.6,9.2-3.1,18.3-4.7,27.5c-1.1,6.6-2.2,13.2-3.2,19.8c-0.4,2.7-0.7,5.4-1,8.2
		c-0.2,2.4-0.3,4.8-0.6,7.1c-0.3,2.7-0.8,5.4-1.3,8.2c0.7,0.4,1.4,0.8,2,1.4c0.6,0.5,1.2,1.2,1.7,1.8c0.8,1.2-0.1,2.8-1.5,2.9
		c-0.4,0-0.9-0.2-1.4-0.3c-0.5-0.1-1-0.3-1.4-0.2c-1.6,0.5-3.2,0.9-4.5,2.1c0.6,1,1.1,1.9,1.5,2.6c-0.4,1-0.9,1.7-1.1,2.4
		c-0.3,1.6-0.5,3.3-0.7,5c-0.3,2.5-0.3,5.1-0.9,7.4c-0.5,1.9-0.4,3.4,0.1,5.2c1.9,6.7,3.3,13.4,4,20.3c0.3,3.3,0.4,6.6,0.9,9.9
		c0.6,3.9,0.3,7.9-2.1,11.1c-3.8,2-7.6,3.2-11.7,3.3c-0.2,0.5-0.4,0.9-0.3,1.2c0.3,3.7-0.3,7.4-0.6,11c-0.5,6.4-1.1,12.8-2.2,19.2
		c-1.1,6.1-1.9,12.3-4.1,18.1c-0.2,0.4-0.2,0.9-0.2,1.4c0.2,2.8-0.2,7.2-1,9.1c-0.2,0.7-0.6,1.3-1.1,1.8c-1,1-1.3,2.2-1.7,3.5
		c-1.2,4-2.5,8-3.6,12c-0.4,1.2-0.5,2.6-0.6,3.9c-0.3,3.9-0.3,7.9-0.7,11.8c-0.2,1.9-0.7,3.7-1.1,5.6c-0.3,1.3-1.5,1.3-2.5,1.6
		c-1.4,3.3-3.1,6.4-5.2,9.3c-1.2,1.6-1.8,3.6-1.9,5.7c-0.3,4.6-0.8,9.2-1.9,13.8c-0.7,2.7-1.9,5-3.9,7.1c-2.9,3-6.1,5.7-8.8,8.9
		c-0.4,0.5-1.2,0.7-1.9,1.1c-2.4-2.6-5.4-4.1-8.3-5.7c-1.5-0.8-2.9-1.7-4.3-2.6c-1-0.7-2-1.4-2.6-2.4c-0.6-0.9-0.8-2.1-1.1-3.1
		c-1.6-1-3.1-1.9-4.6-2.9c-0.4-0.3-0.5-0.8,0.2-1.2c2.2,1.5,4.7,2.6,7.5,3.1c1.9-1.5,3.1-3.5,4.3-5.6c4.5-7.3,8.4-15,11.6-23
		c2.2-5.5,3.9-11.3,5.4-17.1c-0.8-1-1.4-2-2.2-2.9c-0.9-0.9-1.4-2.2-2.6-2.8c-0.8,0.5-1.5,1-2.2,1.5c-0.8,0.5-1.1,1.2-0.8,2.4
		c0.6,0.6,1.4,1.3,2.1,2.1c0.8,1,1.6,2.1,2.2,3.2c0.3,0.6,0.4,1.4,0.5,2c0.1,0.9-1.1,1.5-1.8,1c-1-0.8-1.9-1.8-2.8-2.7
		c-1.3-1.5-2.6-3.1-4.3-4.2c-0.6,0.3-1.2,0.5-1.7,0.8c-0.2,0.1-0.2,0.3-0.3,0.4c1.3,1.8,2.7,3.4,3.8,5.2c1.1,1.9,2,3.9,1.1,6.4
		c-1.8-1.6-2.9-3.4-4.2-5.2c-2.2-3.1-4.7-6-8.3-7.7c-1.3,0.3-2.7,0.6-3.6,1.9c0.1,1.6,1.1,2.9,1.9,4.2c0.1,0.2,0,0.4,0,0.7
		c-0.4,0.2-0.8,0.5-1.3,0.8c0.4,1.6,0,3.4,1.9,4.3c0.8,2,1.4,4,1.3,6.2c-0.7-1.7-1.4-3.4-2.3-5.7c-0.3,7-1.5,13.1-3,19.2
		c-0.1,0.2-0.3,0.5-0.1,0.2c0,0.3,0,0,0-0.3c0.8,0.1,1-0.5,1.3-1c1.3-2.5,2.9-4.9,3.5-7.7c1.2,0.1,1.4,0.7,1.3,1.5
		c-0.2,3.7-1.6,7-3.8,9.8c-0.8,1-1.2,2.7-3,2.5c-0.8,0.9-2.1,1.2-2.5,2.5c0.4,0.8,0.8,1.7,1.2,2.5l0.1-0.1c-0.8,0.4-1.4-0.1-1.9-0.6
		c-0.6-0.6-0.9-1.4-0.7-2.3c0.2-0.8,0.3-1.6,0.4-2.6c-1.6-0.3-3-0.9-4.3-0.8c-2.6,0.2-4.9-0.6-7.4-1.1c-6.5-1.3-13.1-2.8-19.6-3.9
		c-5.4-0.9-10.9-1.5-16.3-2.1c-1-0.1-2.1,0.1-3.2,0.2c-0.9,0.1-1.9,0.4-2.8,0.4c-6.1,0.2-12.1,0.6-18.2,0.3
		c-4.6-0.2-8.9-1.4-13.1-3.3c-0.5-0.2-1-0.3-1.7-0.6c-0.2,2.3,0.1,4.3,0.2,6.3c0.1,1.2,0.3,2.4,0.2,3.6c0,1.2-0.3,2.3-0.5,3.4
		c0.5,1.6,1.3,2.9,2.6,3.9c3.2,2.5,5.7,5.7,7.7,9.3c0.1,0.3,0.1,0.6,0.1,1c-0.3-0.1-0.4-0.1-0.5-0.2c-3.4-3.8-6.9-7.5-10.9-10.7
		c-1.2-0.9-2.3-1.6-3.8-1.6c-2.9,0-5.7-0.3-8.6-0.5c-0.6,0-1.4-0.1-1.7-0.4c-1.3-1.8-3.4-1.5-5.2-1.8c-2.9-0.5-5.9-0.8-8.8-1.4
		c-3-0.6-6-1.6-9-2.3c-2.1-0.4-3.7-1.5-5-3.1c-2.5-3.1-4.5-6.4-6.5-9.8c-0.3-0.5-0.4-1.4-1.3-1.5c-0.2,0.3-0.4,0.6-0.5,0.9
		c-2.1,8-3.5,16.1-4.4,24.2c-0.1,0.8,0.1,1.6,0.3,2.4c0.6,2.7,1.9,5.1,3.5,7.4c2.2,3.1,4.4,6.2,6.6,9.4
		C668.5,426.6,669.5,427.4,669.4,428.7L669.4,428.7z M857.2,329.7c-1.7-0.9-3.1-0.5-4.5-0.4c-1.3-1.1-2.8-0.7-4.3-0.3
		c1.5,0.1,2.9,0.1,4.4,0.2C854,329.9,855.4,330.2,857.2,329.7z M872,217.3c-0.7,0.1-1.3-0.1-2.3-0.2c1.2,3.2,2.3,6.1,3.7,9.7
		c0.7-3.7,1.2-6.9,0.9-10.1c1-0.7,0.6-1.7,0.8-2.6c-2.4-1.5-5.1-0.8-7.6-1.7c0.4,1.8,0.4,1.8,1.6,3.1c1.2,0,2.5,0,3.8,0
		c0.8,0,1.2,0.6,1.5,1.3C873.6,216.9,872.8,217.2,872,217.3z M844.2,376.8c0.6-1.2,1-2.5,1.7-3.5c1.9-2.7,2.4-5.6,2.3-9.2
		c-0.4,0.6-0.8,0.9-1,1.4c-1.8,4.8-3.7,9.6-5.4,14.4c-0.3,0.7-0.2,1.6-0.3,2.4c-0.1,0-0.2,0-0.4,0c0.1,0,0.2-0.1,0.3-0.1
		C842.4,380.4,843.3,378.6,844.2,376.8z M836.3,394.8c-2.6,6.6-5.1,13.3-8.2,19.7c-0.1,0.2,0,0.4,0,1c0.6-0.6,1.2-1,1.5-1.5
		c1.8-3.3,3.6-6.7,5.4-10c0.3-0.6,0.4-1.4,0.6-2c0.4-1.6,0.7-3.2,1.2-4.8c0.4-1.2,0.7-2.3,0.3-3.5c0.1,0,0.2,0,0.3-0.1
		c-0.1,0-0.1,0.1-0.2,0.1C836.8,394,836.5,394.4,836.3,394.8z M837.4,350.1c-1.1,2.2-1.7,4.6-2.5,7c-1.5,4.9-2.9,9.8-4.3,14.7
		c-2.3,7.7-5.4,15-9.3,22c-0.8,1.5-1.7,2.9-2.6,4.2c-2.9,4.2-5.8,8.5-8.7,12.7c-0.1,0.2-0.1,0.4-0.1,0.7c2.2,2.2,7.2,5.1,12.7,7.3
		c0.4-0.6,0.9-1.3,1.3-2c4.4-8.5,7.8-17.4,11.1-26.3c1.7-4.6,3.4-9.2,5.1-13.7c0.8-2.2,1.6-4.4,2.1-6.8c0.5-2.1,1.5-4,2.3-6
		c0.8-1.7,1.8-3.4,2.4-5.2c2-5.9,3.8-11.8,5.7-17.7c0.1-0.3,0.1-0.7,0.1-1.1c-2.7-0.9-5.3-1.8-8-2.6c-0.2-1.2-0.3-2.2-0.5-3.7
		c-0.6,0.6-1.1,0.9-1.3,1.3c-1.7,4.3-3.3,8.7-5,13.2c0.7,0.4,1.2,0.8,1.8,1.1c1,0.5,2.4,0.4,3.1,1.5l0.1-0.1
		C841.1,350.4,839.3,350.3,837.4,350.1z M863.9,278.5c-3.2-0.5-6.4,0.4-9.7-0.3c-0.2,0.7-0.4,1.2-0.6,1.8c1.3,1,2.7,1,4.1,1.1
		c1.3,0.1,2.6,0.3,4.1,1.2c-3,0.8-5.7,0.1-8.2,0.4c-0.2,0.5-0.4,0.8-0.4,1.1c-0.6,8.5-2.7,16.7-4,25c0,0.2,0.1,0.4,0.3,0.8
		c1.2-0.1,2.5-0.4,3.7-0.3c1.1,0.1,2.3,0.5,4,0.9c-3.2,0.1-5.9-0.4-8.4,1.4c-0.1,0.3-0.3,0.7-0.3,1.2c-0.1,0.5,0,0.9,0,1.5
		c2.2,1.3,4.6,1.2,7.5,1.6c-1.3,0.1-2,0.2-2.6,0.3c-0.8,0-1.7,0.1-2.5,0c-0.8-0.1-1.6-0.3-2.6-0.5c-1.2,2.8-1.4,5.9-2.5,8.9
		c3.7,1.2,7.5,0.7,11.3,2.5C860.7,310.8,863.3,294.9,863.9,278.5z M798.8,369.2c1.9,0.1,3.8,0.5,5.7-0.8c-0.1-0.5-0.2-1.2-0.3-1.8
		c-0.1-0.5-0.1-1.1-0.2-2c-0.5,0.8-0.9,1.2-1.2,1.7c-0.5-0.4-0.9-0.8-1.4-1.3c-5,1.1-10,1-15.1,0.8c-2.4-0.1-4.7,0-7.1,0
		C785.5,368.6,792.2,369,798.8,369.2z M879.6,204.9c-1.5-1.2-3.4-1.7-5.3-2.3c-3,0.8-5.9,1.8-8.1,5c2.2,0.6,4,1,5.6,1.3
		C874.7,207.4,877.1,206.1,879.6,204.9z M854.3,333.2c-1-1-1.5,0.3-2.3,0.2c-0.7-0.1-1.4,0-2.1,0c-0.8,0-1.6,0-2.5,0
		c-0.9,0.8-1,1.8-1,3.1c2,1.1,4.2,1.5,6.9,1.2C853.7,336.1,854.3,334.7,854.3,333.2z M859.8,270.2c-0.6-3.1-1.1-6-1.7-9.5
		c-1.1,3.4-1.3,6.3-1.5,9.3C857.8,270.6,858.8,270.4,859.8,270.2z M828.4,354.6c1.2,1.2,2.2,2.2,3.4,3.4c0.4-0.9,0.7-1.7,1.1-2.5
		c-0.7-0.9-1.3-1.7-2.3-3C829.7,353.4,829.1,353.9,828.4,354.6z M860.5,273c-2.6-1-2.6-1-5-0.4C857.6,273.7,859,273.8,860.5,273z
		 M853.5,332c-1.4-1.3-3.1-1-4.7-1C850.3,331.3,851.9,331.6,853.5,332z M835.4,347.7c-1.8,1.4-1.9,1.6-2.1,2.9
		c0,0.1,0.3,0.3,0.5,0.4C835.1,350.2,834.8,348.8,835.4,347.7z"/>
	<path d="M130.1,466c-0.5,1.2-0.9,2.4-1.5,3.6c-0.9,1.6-1.9,3.1-3,4.9c2.5,1,4.5,2.9,7.4,3.4c4.2,0.8,8.3,2,12.5,3.1
		c0.2,0.1,0.5,0,0.8-0.1c1.1-0.9,1.9-2,2.6-3.5c1.7-3.7,2.5-7.7,3.4-11.6c0.4-1.7,0.5-3.5,0.7-5.1c-0.6-0.7-1-1.1-1.3-1.6
		c-0.1-0.1,0-0.2,0-0.7c1.1-2.4-0.2-5.4,1.3-8c-0.1-0.3-0.1-0.5-0.2-0.7c-3.6-5.8-8.4-10-14.9-12.1c-2.3-0.7-4.7-1-6.9-1.8
		c-3.3-1.2-6.5-0.5-9.5,0.4c-4.3,1.3-8.3,3.6-12.1,6c-1.4,0.9-2.4,2.2-3.6,3.5c-0.9,1-1.6,2.1-2.6,3c-4.2,3.9-7.6,8.5-11,13.2
		c-5.2,7.1-5.2,7.1-7.5,15.6c-0.1,0.3-0.2,0.7-0.4,1c-0.1,0.2-0.4,0.2-0.8,0.5c0.1-1.5,0.2-2.9,0.2-4.4c-1.1,1.2-0.8,2.6-1.3,3.8
		c-1.6,4.2-0.5,8.2,0.8,12.2c0.3,0.9,0.8,1.7,1.2,2.6c0.6,1.3,1.3,2.5,1.9,3.8c0.7,1.5,1.3,3.1,2,4.6c0.9,1.8,2,3.5,3.5,4.9
		c4,3.8,8.8,4.7,13.9,3.7c4.8-0.8,9.4-0.4,13.7,1.2c4.3,1.6,8.6,1.9,13,1.7c5.3-0.3,10.7-1,16-1.5c1.4-0.1,2.9-0.3,4.2,0.6
		c2.1,1.5,4.5,2.1,6.9,2.8c6.4,1.8,13.1,2.7,19.7,3.2c8,0.6,16,0.4,23.9,0c0.8,0,1.6-0.4,2.4-0.5c0.8-0.1,1.7-0.1,2.5-0.2
		c0,0,0-0.2,0.1-0.5c-1.4,0.1-2.7,0.2-4,0.2c-1.3-0.1-2.9,0.4-3.9-1.5c6.3,0.1,12.4-0.8,17.6,1.8c1.5,2.5,2.7,4.6,3.9,6.6
		c1.5,2.4,3.7,4,6.5,4.8c4.2,1.2,8.5,2.4,12.9,2.7c4.3,0.3,8.5,1,12.8,1.4c1.3,0.1,2.6-0.1,3.9-0.3c0.3-0.1,0.6-0.5,1-0.9
		c-4.5-1.2-8.7-2.3-12.9-3.4c-2-0.5-3.9-1-5.9-1.5c-0.1,0-0.2-0.2-0.2-0.3c0-0.1,0-0.2,0-0.3c0.1-0.1,0.2-0.2,0.3-0.2
		c3,0.6,6,1.2,9,1.9c2.4,0.6,4.8,1.6,7.2,2c1.8,0.3,3.5,0.7,5.2,1.2c3.3,0.9,6.6,1.1,9.6-1.1c0.1-0.1,0.4,0.1,0.8,0.3
		c-0.6,1.7-1.7,2.9-3.5,3c-2,0.1-4-0.1-6.1-0.2c-1.2-0.1-2.3-0.1-3.4,0.7c-1.6,1.1-3.5,1.4-5.5,1.1c-2.6-0.4-5.2-0.8-7.8-1
		c-5.5-0.5-10.9-1-16.2-2.4c-2.6-0.7-5-1.6-6.9-3.5c-2.1-2-3.9-4.2-5.2-6.8c-0.4-0.7-0.8-1.4-1.2-2.2c-1.5,0.2-2.9,0.5-4.3,0.6
		c-1.9,0.2-3.8,0.1-5.7,0.4c-5.2,0.9-10.5,0.9-15.7,1c-4.9,0.1-9.8-0.3-14.6-0.7c-4.3-0.4-8.5-1.2-12.7-2.1c-4.1-0.9-8-2.3-12-3.4
		c-0.8-0.2-1.6-0.4-2.4-0.3c-4.6,0.4-9.2,1-13.9,1.2c-7.7,0.4-15.3-0.1-22.4-3.3c-1.7-0.8-3.5-0.8-5.2-0.2c-0.5,0.2-1.1,0.5-1.7,0.4
		c-2.1-0.1-4.3-0.3-6.4-0.6c-2.2-0.3-4.2-1-5.9-2.4c-1.5-1.2-2.9-2.4-4.3-3.8c-1.7-1.6-2.7-3.5-3.1-5.9c-0.5-2.6-1.6-5-3.2-7.1
		c-1.1-1.4-2.6-2.5-4.3-2.9c-2.3-0.6-4.7-0.9-7-1.3c-1.8-0.3-3.2-0.2-4.8,0.6c0.3,0.8,0.6,1.5,0.8,2.3c0.2,0.9-0.4,1.8-1.3,1.7
		c-2-0.1-3.7,0.6-5.5,1.3c-2.7,1-5.3,2.1-8,3.1c-1.2,0.4-2.5,0.7-3.8,1c-2.4,0.6-5,0.4-7.4,1.2c-4,1.3-8.2,1.5-12.4,1
		c-1.3-0.1-2.6-0.1-3.9-0.1c-1,0-1.9-0.3-2.6-0.9c-0.4-0.4-0.9-0.8-1.2-1.1c-1.3,0.1-0.9,1.8-2.4,1.8c-0.9-1.1-2-2.3-3-3.6
		c-0.1-0.2,0.1-0.6,0.1-1c-0.7-0.4-1.5-0.8-2.2-1.1c0.3-0.8,0.5-1.4,0.8-2.2c-2.7-1.6-3.8-4.2-4.6-7c0-0.1-0.1-0.2-0.1-0.3
		c-0.2-1.3-0.8-2.5-2-3.2c-0.3-0.2-0.4-0.6-0.7-1c0.6-0.3,1.2-0.6,1.8-0.9c-0.1-0.4,0-0.8-0.2-1.1c-1-2.2-1.3-4.5-0.9-7
		c0.4-2.3-0.5-4.4-1.6-6.4c-0.4-0.7-0.7-1.5-1-2.3c-0.2-0.5,0.4-1,1.1-1c0.4,0,0.8,0.6,1.2,0.1c-0.3-1.6-0.4-3.3-0.9-4.9
		c-0.4-1.3,1.3-2.1,0.6-3.3c-0.1-0.1,0-0.5,0.2-0.6c0.2-0.3,0.5-0.5,0.8-0.7c0.4-0.4,1.2-0.1,1.2-1c-0.8-0.9-2.6-0.8-2.9-2.2
		c0.6-1.1,1.2-2.1,1.8-3.1c0.6,0.2,1.2,0.4,2.1,0.8c-0.3-0.8-0.5-1.2-0.7-1.6c-0.2-0.6-0.5-1.1-0.7-1.7c-0.2-0.9,0.5-2.2,1.4-2.2
		c2.4,0.1,4.9-1.1,7.4,0.8c1,2.1,2.1,4.4,3.2,6.6c2.4-0.2,4.3-1.1,6.3-2c0.9-0.4,1.7-0.9,2.5-1.3c2.1-1,4.1-1,6,0.5
		c3.9-1.5,7-4.6,11-6.2c1.1,0.8,2.1,1.5,3.3,2.4c0.9-0.2,1.9-0.4,2.8-0.6c0.6,0.5,1.1,0.8,1.4,1.1c1.3-0.3,2.4-0.8,3.5-0.8
		c1.1,0,2.3,0.5,3.4,0.8c4.7-2,6.3-1.5,9.5,2.8c0.1,2,0.3,4.2,1.2,6.1c1.5,0.2,3,0.2,4.2,0.8c2.1,1,4.3,1.1,6.4,1.7
		c0.7-1.2,0.4-2.4,0.5-3.6c0.1-1.2,0.7-2,1.8-2.3c0.3-0.1,0.6-0.3,0.9-0.5c2.2-6,5.1-11.7,8.3-17.1c2.1-3.6,4.2-7.2,5.8-11.1
		c1.6-3.9,4.5-6.7,7.9-8.9c1.8-1.1,3.8-2,5.8-3.1c0.3-1.5,0.5-3,1-4.5c0.8-2.9,1.8-5.7,4.1-7.8c1.4-1.3,2.9-2.5,4.3-3.7
		c1.8-1.6,4-2.7,6.4-2.9c2.1-0.2,3.5-1.2,5.1-2.3c1.7-1.3,3.5-2.5,5.3-3.7c1.4-0.9,2.8-1.8,4.2-2.8c1.9-1.4,3.9-2.7,6.2-3.4
		c2.9-0.9,5.4-2.5,7.5-4.6c0.3,1.3,0.3,1.3,1.4,1.8c0-1-0.9-1.2-1.5-1.7c0.3-0.6,0.5-1.5,1-1.8c2.1-1.5,3.4-3.6,5.1-5.5
		c2.1-2.3,3.4-4.8,4-7.8c0.1-0.8,0.5-1.7,1-2.2c3-3.2,6.2-5.9,11-5.6c1.8,0.1,3.5-0.4,5.1-1.4l-0.1-0.1c0.3,1.2-0.6,1.8-1.5,2.1
		c-1.5,0.4-3,0.5-4.6,0.7c-0.9,0.2-1.9,0.2-2.7,0.7c-2.5,1.5-4.7,3.2-6.7,5.3c-0.6,0.7-0.9,1.4-0.6,2.3c3.3,3.2,4.4,7.2,4.6,11.6
		c0,0.5,0,1.2-0.9,1c-0.6-3.7-1.1-7.4-3.9-10.8c-1.1,2.4-2.1,4.3-3.8,5.9c-1.7,1.6-2.9,3.7-4.5,5.7c0.3,0.3,0.7,0.8,1.1,1.4
		c0.8-0.5,1.4-1,2.2-1.5c1.9,1.6,2.6,4.5,5.4,5c1.9,4.1,5,7.3,8.2,10.5c0.7,0.8,1.4,1.6,2,2.4l0.1-0.1c-1.4-0.3-2.7-0.3-3.8,0.8
		c-0.1,0.1-0.4,0-0.7,0c0.5-0.6,0.9-1.3,1.6-2.2c-0.3-0.3-0.7-0.7-1-1c-0.9,0.5-1.6,0.8-2.8,1.4c0.6-1,0.9-1.5,1.3-2.2
		c-1.2-0.7-1.5-2.6-3.4-2.4c0.2-0.7,0.3-1.4-0.7-2c-0.5,0.5-1,1-1.6,1.6c0.1,0.4,0.3,0.8,0.5,1.3c0.7-0.4,1.3-0.7,1.9-1
		c-0.4,0.9-0.9,1.8-1.3,2.7c0.6,1.5,1.4,0.2,2,0.2l-0.1-0.1c-0.2,1-0.2,1.9,0.8,2.5c0.9,0.5,1.6,1.5,2.9,1c0.2,1.4,1.9,1.4,2.7,2.9
		c-3.3-0.5-5.8-1.8-8-3.7c-2.1-1.9-4.2-3.9-6.2-5.9c-0.3-0.3-0.7-0.6-0.3-1.3c1.5,0.5,2.2,2.4,3.7,2.9c0.1-0.2,0.3-0.3,0.3-0.4
		c-1.8-3.9-3.4-7.9-7.9-9.6c-0.7-0.2-1.2-0.7-1.9-1.2c-0.9,0.6-1.7,1.3-2.6,1.8c-0.9,0.6-1.8,1.1-2.7,1.7c-0.8,0.6-2,0.5-2.7,1.4
		c1.9,1.5,3.7,2.9,5.5,4.3l0.1-0.1c-0.6-0.1-1.2,0-1.7-0.2c-1.4-0.7-2.7-1.5-4.1-2.2c-0.9-0.5-1.9-0.9-2.8-1.3
		c-0.4,0.4-0.8,0.5-1,0.8c-0.7,1.4-1.6,2.2-3.3,2.4c-1.1,0.2-2.2,1-3.1,1.6c-1.6,1.1-3,2.4-4.5,3.5c-1.1,0.8-2.1,2-3.8,1.8
		c-0.4,0-0.9,0.3-1.2,0.6c-2.1,2.2-4.8,3.5-7.2,5.3c-2.6,1.9-4.4,4.3-5.5,7.3c-0.3,0.9-0.5,1.8-0.7,2.8c-0.4,1.4-1,2.5-2.2,3.5
		c-1.8,1.6-3.7,2.9-5.7,4.2c-2.9,1.9-5.4,4.1-6.8,7.5c-1.2,2.8-2.1,5.9-4.6,8c-0.3,0.3-0.5,0.8-0.7,1.2c-0.3,0.7,0.2,1.1,0.7,1.4
		l-0.1-0.1c-0.1,0.9-0.4,1.9-0.2,2.7c0.3,1.2,0.2,2.3-0.2,3.5c-1.9,5-3.7,10-5.7,14.9c-0.5,1.3-1.3,2.5-1.9,3.8
		c-1.8,3.7-3.3,7.6-4.1,11.7c-0.4,0.2-0.7,0.5-0.2,1.3c0-0.6,0.1-1,0.1-1.3c1.4-1.3,2.6-2.7,2.5-4.8c0-0.4,0.2-0.9,0.4-1.3
		c0.5-0.8,1.1-1.5,1.8-2.2c2.9-3.2,6-6.2,8.7-9.5c2.8-3.3,5.9-6.2,9.5-8.6c4.5-3,9-5.8,14.2-7.4c2.8-0.8,5.6-1.1,8.5-0.9
		c2.8,0.2,5.3,1.2,8,1.8c4.6,1.2,8.6,3.5,11.8,7.1c1.4,1.6,2.6,3.4,4,5.1c1.8,2.2,2.6,4.8,2.6,7.6c0,4.2,0,8.3-0.8,12.5
		c-0.2,1-0.5,2-0.8,3.4c0.6-0.3,0.9-0.4,1.1-0.7c0.4-0.4,0.7-0.9,1-1.3c-0.2-0.6-0.4-1-0.6-1.4c0.8-1.7,2.4-2.7,3.6-3.9
		c0.5-0.5,1.2-1.2,1.2-1.6c-0.2-1.2,0.5-1.7,1-2.5c0.7-1,1.3-2,2-3c0.9-1.4,1.6-3.1,2.9-4c1.8-1.4,2.1-3,1.8-5
		c0-0.3,0.1-0.6,0.2-1.3c0.5,1,0.9,1.6,1.3,2.4c0.8-0.9,1.4-1.6,2-2.3c2.2-2.3,4.4-4.7,5.8-7.6c1.5-3,3.8-5.5,4.4-8.9
		c0.2-0.9,0.5-1.9,1.4-2.4c1.6-0.8,2.3-2.3,3.1-3.8c0.9-1.9,1.9-3.8,3.2-5.5c1,0,1.8-0.1,2.6,0c0.2,0,0.4,0.5,0.5,0.8l0.1-0.1
		c-0.3,0.2-0.6,0.4-0.8,0.7c-2.5,3.8-5.1,7.5-7.6,11.3c-0.5,0.7-0.9,1.5-1.1,2.2c-0.5,1.7-1.1,3.4-2.2,4.8c-0.8,1-0.5,2.2-0.8,3.2
		c-1.4,0.8-2.4,1.6-2.8,3.1c3.2-0.1,6.4-0.3,9.6-0.4c3.9-0.2,7.9-0.2,11.8-0.8c1.2-0.2,2.4-0.4,3.4-0.9c3.8-1.9,7.8-2.8,11.9-3.7
		c1.5-0.3,3-0.3,4.6,0.1c1.9,0.4,3.7,0.4,5.6-0.1c3.2-1,6.6-1.2,9.9-0.4c1.8,0.4,3.7,1,5.5,1.3c2,0.4,3.9,1,5.8,1.7
		c2.8,1,5.7,1.7,8.6,2.5c0.6,0.2,1.2,0.1,1.8,0c1.7-0.2,3.3-0.1,5,0.3c1.8,0.4,3.7,0.6,5.6,1c0.6,1.1,1.1,2.1,1.7,3.1
		c-1,1.3-2.2,2-3.7,2.3c-1.6,0.3-3.3,0.5-4.9,0.7c-0.9,0.1-1.9,0.2-2.2,0.2c-1.6,1.4-2.6,2.6-3.9,3.5c-2.9,1.9-6.1,1.7-9-0.3
		c-1-0.7-2-1.3-2.8-1.8c-0.6,0.1-1,0-1.3,0.2c-1.5,0.6-3,0.5-4.5-0.2c-1.4-0.6-3-1.2-4.5-1.2c-2.8,0.1-5.4-0.5-7.9-1.4
		c-0.7,0.4-1.3,0.6-1.7,1c-0.8,0.7-1.7,1.4-2.4,2.1c-5.3,5.4-12.1,8.4-18.8,11.5c-8.1,2-16,4.7-24.5,4.4c-0.9,0-1.9,0.2-2.9,0.1
		c-2.8-0.3-5.2,0.7-7.3,2.4c-1.8,1.3-3.8,2-5.9,2.5c-1.5,0.4-3,0.6-4.5,0.9c-1.6,1.7-3.1,3.4-4.7,5c-0.8,0.8-0.9,1.8-0.9,3.1
		c0.9,0.4,1.9,1.2,2.9,1.1c1.7,0,3.6,0.4,5.1-0.9c0.2-0.2,0.7-0.2,1.6-0.4c-1.6,1.4-2.6,2.3-3.9,3.4c1.2,0.8,2.2,1.5,3.1,2.2
		c1,0.8,1.9,1.8,2.9,2.8c1.3,0.2,2.7,0.5,4.1,0.6c2.6,0.3,5.2,0.5,7.8,1c3.6,0.6,7.3,1.4,10.9,2.1c3.6,0.7,7.3,1.3,10.8,2.3
		c4.7,1.3,9.5,2.1,14.4,2.7c3.7,0.5,7.3,0.9,11,1.4c4,0.6,7.8,2,11.6,3.5c1.5,0.6,3,1.4,4.6,1.9c2.4,0.8,4.8,1.5,7.2,2.2
		c2.5,0.7,4.9,1.7,7.2,3.1c2.6,1.6,5.6,2.7,8.4,4c0.1,0,0.2,0.1,0.3,0.1c3,0.1,5.7,1.5,8.6,2.2c2.9,0.8,5.6,2,8.3,3.5
		c-0.1,0.6-0.2,1.3-0.4,2c-0.1,0.2-0.6,0.2-0.9,0.3l0.1,0.1c-0.1-0.3-0.2-0.7-0.3-1.2c-1.7-0.8-3.4-1.9-5.3-2.5
		c-3.3-1-6.5-2.2-9.9-3c-3-0.7-6.4-1-8.6-3.9c-0.3-0.4-1-0.6-1.6-0.8c-1-0.4-2-0.7-3.1-1c-6-1.9-12.1-3.6-17.9-6.2
		c-3-1.3-6.4-2-9.6-2.5c-6.1-0.9-12.3-1.5-18.3-3c-2.8-0.7-5.6-1.3-8.4-1.8c-4.3-0.9-8.6-1.8-13-2.6c-4-0.7-8-1.5-12-1.9
		c-3.7-0.3-7.3-0.8-11-1c-0.5,0-0.9-0.3-1.3-0.5c-0.1-0.1-0.1-0.3-0.2-0.5c0.7-0.4,1.4-0.7,2.3-1.2c-0.7-0.6-1.1-1-1.5-1.3
		c-1.4-1-2.8-1.9-4.1-2.8c-2-1.3-4.1-2.4-6.5-1.9c-0.7-1.1-1.5-1.8-2.6-2c-1.3-0.3-2.5-0.6-3.8-1c-3.5-1-7.1-2-10.6-3
		c-1.7-0.5-2.9-1.6-3.3-3c-3.5-1.2-6.6-2.7-10.2-3.4c0.8-0.8,1.4-1.2,1.8-1.9c0.5-0.8,0.6-1.8,1-2.7c0.3-0.8,0.8-1.5,1.1-2.2
		c0.3-0.8,0.5-1.7,0.8-2.5c0.3,0.1,0.6,0.2,0.7,0.4c0.3,0.8,0.7,1.6,0.8,2.3c0.1,1.8-0.1,3.5-0.2,5.5c0.3,0.2,0.8,0.6,1.3,0.9
		c0.6,0.3,1,1.1,2.1,0.8c0.9-2.3,2.4-4.4,4.4-6.2C129.3,466.3,129.8,466.3,130.1,466L130.1,466z M12.8,488.7
		c0.1-0.1,0.2-0.2,0.3-0.3c-0.2-0.1-0.3-0.1-0.5-0.2c0-0.1,0-0.2-0.1-0.3c0,0.1,0.1,0.1,0.1,0.2C12.7,488.3,12.7,488.5,12.8,488.7z
		 M32.4,490.5c0.1-0.1,0.1-0.1,0.2-0.2c0.3-0.2,0.5-0.5,0.8-0.7c0.4-0.4,0.7-0.8,1-1.3c0-0.1-0.1-0.4-0.3-0.5
		c-0.1-0.1-0.5,0.1-0.5,0.2c-0.1,0.6-0.1,1.1-0.1,1.7c-0.3,0.2-0.5,0.5-0.8,0.7C32.6,490.4,32.5,490.5,32.4,490.5z M49.6,490.4
		c0.1,0,0.1-0.1,0.2-0.1c0.2-0.1,0.4-0.1,0.5-0.2c-0.5-0.4-0.4,0-0.4,0.3C49.8,490.4,49.7,490.4,49.6,490.4z M20.8,465.9
		c0.2-0.1,0.3-0.2,0.5-0.4c0,0-0.1-0.2-0.1-0.2c-0.2,0.1-0.4,0.2-0.6,0.4c0,0,0,0.2,0.1,0.3c-0.1,0-0.3,0.1-0.4,0.1
		c0.1,0,0.1,0,0.2,0c0.1-0.1,0.1-0.1,0.2-0.2C20.6,466,20.8,466,20.8,465.9z M82.9,471.8c0.2-0.3,0.3-0.6,0.1-0.2
		C82.9,471.1,82.9,471.5,82.9,471.8c-0.9,0.1-0.7,0.8-0.7,1.4c-0.2,0.2-0.4,0.4-0.6,0.6c0,0,0.1,0.2,0.1,0.3
		c0.1-0.1,0.3-0.2,0.3-0.3c0.1-0.2,0.1-0.4,0.1-0.7C82.3,472.7,82.6,472.2,82.9,471.8z M24.3,465.6c0,0,0-0.1,0-0.1
		c0-0.1-0.1-0.1-0.2-0.2c-0.5-0.5-1.1-1-1.6-1.5c0.5,1.2,0.5,1.2,1.7,1.4C24.2,465.3,24.2,465.4,24.3,465.6z M11.7,455.2
		c0.7-0.1,1.6-0.1,1.4-1.1c-0.1-0.8-0.8-1.1-1.6-0.9c-0.1,0-0.2,0.1-0.4,0.2c0,0.6,0,1.2,0,1.9c-0.1,0-0.2,0.1-0.3,0.1
		c-1,0.3-1.3,0.8-0.7,1.7c1-0.4,1.1-1.1,0.9-1.9C11.3,455.1,11.5,455.2,11.7,455.2z M43.3,481.4c0,0.8-0.2,1.6-0.5,3
		c1.4-1.8,2.4-3.2,3.7-4.7c0.4,0.6,0.6,1.1,0.9,1.4c0.7,0.6,1.8,0.5,2.1-0.3c0.3-0.6,0.3-1.4,0.6-2c0.2-0.3,0.8-0.6,1.1-0.6
		c0.4,0,0.9,0.3,1.1,0.7c0.5,1,0.6,2,0.1,3.3c-2,0.1-4.1,0.3-6.5,0.4c-0.2,0.3-0.7,0.8-1.1,1.3c0.2,0.3,0.3,0.6,0.5,0.7
		c0.9,0.5,1.8,0.3,2.6-0.3c1-0.7,2-1.3,3.4-0.8c-1.1,0.7-2,1.4-3,2.2c1.1,1,1.1,1,3.1,0.2c0,0.2,0.1,0.5,0,0.6
		c-0.5,0.6-1,1.3-1.5,1.8c-1.2,0.1-1.8-0.8-2.7-1.1c-0.8-0.3-1.5-0.6-2.3-0.8c-0.9-0.2-1.8-0.3-2.9-0.5c0.4,0.5,0.5,0.9,0.8,1.1
		c1,0.6,2.1,1.1,3.2,1.6c2.8,1.4,5,0.8,6.8-1.8c0.8-1.2,1.6-2.3,2.5-3.4c1-1.3,1.4-2.7,1.8-4.2c-0.3-0.6-0.6-1.2-1.1-2.1
		c0.8,0.1,1.4,0,1.8,0.3c0.3,0.2,0.7,0.8,0.6,1.2c0,0.9-0.2,1.9-0.5,2.8c-0.3,0.9-0.7,1.7-1.1,2.7c1.4,0.6,2.7,0.8,3.8,2
		c1.2,1.3,3.1,1.6,5,1.5c3.7-0.1,7.4-0.2,11-0.2c0.7,0,1.4,0.2,2.1,0.3c0.1-0.2,0.4-0.4,0.4-0.6c-0.4-3.7,0.3-7.3,0.5-11
		c0-1.3,0.4-2.6,0.8-3.8c1.9-5.9,3.9-11.8,6.3-17.5c0.9-2,1.4-4.3,3.6-5.5c0.5-0.3,0.7-1.2,0.9-1.9c0.8-2.3,1.5-4.5,2.3-6.8
		c0.6-1.9,1.6-3.7,0.9-5.8c-0.1-0.4,0.2-0.9,0.4-1.7c-0.5,0.5-0.9,0.6-1,0.9c-2.2,4.6-4.5,9.2-6.5,13.9c-0.6,1.5-2,2-3,3.1
		c0.4,2.1,1.4,4.5-1.8,5.6c-0.7-0.4-1.3-1.1-2.4-1c-1,0.1-2.1-0.4-3.1-0.7c-0.9-0.3-1.8-0.7-2.7-1.1c-1.2,0.5-2.6,0.2-3.6,1.2
		l0.1,0.1c-0.5-1.7-1-3.4-1.4-5.1c-0.4-1.4-0.6-2.8-1.1-4.1c-0.7-1.7-2.3-2.4-4.1-1.9c-0.2,0.1-0.4,0.2-0.7,0.3
		c-1.7,0.9-3.3,1.1-5.1,0.2c-1.1-0.5-2.1-0.2-2.6,0.9c-0.2,1.2,2,1.7,0.8,3.2c-1.5-0.1-1.3-1.5-1.8-2.3c-0.2-0.3-0.4-0.6-0.6-0.9
		c-0.7-1-1.6-1.4-2.8-1c-0.4,0.2-0.9,0.3-1.3,0.5c0.2,3.2,0.1,3.3-1.9,3.7c-0.9-0.8,0.4-1.4,0.1-2.2c-0.3-0.7-0.3-1.4-0.4-2.1
		c-0.1-0.9-0.5-1.6-1.6-1.9c-1.5,0.3-2.8,1.3-4.2,2.3c-1.4,1-2.7,2-4,3c-1.4,0.9-2.8,1.3-4.3,0.3c-1.5-1-2.9-0.7-4.3,0.1
		c-1.8,0.9-3.6,1.7-5.5,2.5c-0.9,0.4-1.8,0.5-2.7,0.7c-0.5,0.6-1,1.2-1.5,1.9c0.2-1.2,0.2-2.3-0.6-3.3c-0.8-1.1-1.4-2.4-2.2-3.6
		c-0.7-1.1-1.5-2.1-3.3-2.1c2.1,1.8,3.5,3.9,4.5,6.3c0.4,1,1.1,1.8,1.7,2.6c0.5,1.5,1.1,3.1,1.6,4.7c0.4-0.3,0.7-0.5,1.1-0.7
		c2.1,1.2,1.5,3.5,1.8,5.4c1.1,0.6,2.2,1,3.1,1.6c1,0.7,1.7,1.7,2.6,2.4c2.5,2,5.1,3.9,7.7,5.8c1.1,0.7,2.3,1.2,3.5,1.7
		c2.5,0.9,4.9,1,7.1-1.8c-0.1,1.3-0.2,2.1-0.3,2.9c0.5,0.2,1,0.5,1.5,0.7c-0.1,0.2-0.1,0.5-0.2,0.7c-1.8,1.8-4.2,2.6-6.2,4.1
		c-0.2,0.1-0.3,0.3-0.5,0.5l-0.1,0.1l0.1-0.2C42.9,480.6,43.3,481,43.3,481.4z M223.7,444.8c1,0,1.1,1.5,2.2,1.3
		c1.2-0.2,1.4,1.2,2.2,1.6c2,1,4.1,2,6.2,2.7c2.1,0.7,4.3,1.5,6.6,0.6c1-0.4,2.1-0.1,3,0.6c0.7,0.5,1.5,0.8,2.1,1.3
		c2.8,2,7.7,1,9.5-1.8c0.2-0.4,0.3-0.8,0.6-1.4c-4.2-0.6-8.4-1-12.1-3.5c0.6-0.1,1-0.3,1.3-0.3c0.7,0.2,1.4,0.4,2,0.7
		c2.4,0.9,2.4,0.9,4.7,0.1c0.3,0.5,0.6,0.9,1,1.5c1.6,0.3,3.5-0.4,5,1.1c0.1,0.1,0.4,0.2,0.7,0.2c2.8,0,5.4-0.4,8.3-1.6
		c-0.6-0.4-0.9-0.8-1.2-0.9c-2.1-0.3-4.2-0.9-6.2-1.4c-2.3-0.6-4.7-0.7-7.1-1c-1-0.1-1.8-0.4-2.6-0.9c-1.9-0.9-3.9-1.7-6-2
		c-2.7-0.4-5.3-1.2-8-1.7c-3.8-0.8-7.6-1.2-11.2,0.6c-1.7,0.8-3.3,1-5.2,0.5c-3.5-0.9-6.9-0.1-10.1,1.2c-2.1,0.9-4.3,1.5-6.5,1.9
		c-4,0.7-8,1-12.1,1.2c-4.5,0.3-9,0.2-13.5,1.1c-1.8,0.4-3.3,1.1-4.5,2.6c-0.8,1-1.7,2-2.6,3c-1.4,1.5-2.4,3.2-3.4,5
		c-2.2,4.2-4.6,8.3-7,12.5c-0.4,0.7-0.9,1.4-1.5,2.4c2.3-0.3,4.1-1,5.8-2.1c0.9-0.6,1.8-1.2,2.7-1.8c2.5-1.6,5.2-2.3,8.2-2.3
		c1.8,0,3.6,0.2,5.3,0.2c1.5,0,3.1,0,4.6-0.4c6.5-1.6,13-3.2,19.4-4.9c1-0.3,2-0.8,2.9-1.3c4.2-2.6,8.3-5.2,12.4-7.8
		c0.3-0.2,0.6-0.4,0.8-0.7c1.5-1.6,3.4-2.4,5.4-3.4C225.4,446.2,223.1,446.8,223.7,444.8z M29.7,469.3c-0.6-1.7-0.6-1.7-2.6-2.5
		C28.2,468.4,28.2,468.4,29.7,469.3z M18.5,456.8c0.1,1.8,0.5,3.1,1.5,4.7C19.8,458.9,19.8,458.9,18.5,456.8z M19.6,487.4
		c0.8,0.3,1.3,0.5,1.8,0.8c0.5-1,0.8-1.9,0.3-3.1C20.9,486,20.3,486.6,19.6,487.4z M20.9,480.5c0.2,0.3,0.3,0.7,0.6,0.8
		c0.5,0.3,1.2,0.6,1.5,0c0.2-0.4-0.2-1-0.4-2C21.7,480,21.3,480.2,20.9,480.5z M19.7,472.6c0.3,0.2,0.4,0.3,0.4,0.3
		c0.8-0.3,1.4-1.9,0.7-3.3C20.3,471,20,471.8,19.7,472.6z M168.1,381.2c-0.5-1.1-0.5-1.1-1.4-1.8
		C166.9,380.8,166.9,380.8,168.1,381.2z M35.5,494.8c-0.1-0.1-0.5,0.2-0.5,0.3c-0.1,0.2,0,0.5,0.1,0.6c0.5,0.5,1,0.5,1.7,0
		C36.4,495.3,35.9,495,35.5,494.8z M55.6,486.6c-1.2-0.3-1.2-0.3-1.9,1.4C54.4,487.4,54.9,487,55.6,486.6z M22.3,493
		c0.3,0.4,0.6,1,1.3,0.5C23.3,492.9,23,492.5,22.3,493z M40.5,484.8c-0.5,0-0.8,0.5-0.5,0.9c0.1,0.1,0.4,0.2,0.5,0.2
		c0.2-0.2,0.4-0.4,0.6-0.7C40.9,485,40.7,484.8,40.5,484.8z M33.1,478.5c0.1,0.2,0.2,0.4,0.3,0.5c0.1,0.1,0.3-0.1,0.5-0.2
		c-0.1-0.2-0.2-0.3-0.3-0.5C33.5,478.4,33.3,478.5,33.1,478.5z M163.8,375.6c-0.1-0.2-0.3-0.3-0.5-0.4c0,0.2-0.2,0.4-0.1,0.6
		c0.1,0.2,0.3,0.2,0.5,0.3C163.8,375.9,163.9,375.7,163.8,375.6z M80.2,485.4c0.1-0.1,0.2-0.2,0.2-0.4c0-0.1,0-0.2-0.1-0.3
		c-0.1,0.1-0.2,0.2-0.2,0.4C80.2,485.2,80.2,485.3,80.2,485.4z M40.3,497c0.1-0.2,0.1-0.4,0.2-0.6c-0.2-0.1-0.4-0.2-0.6-0.2
		c-0.1,0-0.3,0.2-0.5,0.4C39.7,496.8,40,496.9,40.3,497z M165.3,378.3c0.1-0.1,0.3-0.2,0.4-0.4c-0.2-0.2-0.5-0.4-0.7-0.6
		c0,0-0.2,0.1-0.3,0.3C164.9,377.9,165.1,378.1,165.3,378.3z M9.3,449.8c0-0.2,0.2-0.4,0.1-0.6C9.3,449.1,9,449,8.8,449
		c-0.1,0-0.2,0.3-0.3,0.5C8.8,449.6,9,449.7,9.3,449.8z M10.3,465.5c-0.3-0.2-0.5-0.3-0.8-0.4c0,0-0.2,0.2-0.2,0.3
		c0.1,0.3,0.3,0.5,0.5,0.8C10.1,465.7,10.2,465.6,10.3,465.5z M37.5,489.9c0.2,0.1,0.4,0.3,0.6,0.3c0.2,0,0.4-0.2,0.6-0.3
		c-0.2-0.1-0.4-0.2-0.6-0.4C37.9,489.7,37.7,489.8,37.5,489.9z M31.5,475.8c0.1,0,0.2-0.2,0.2-0.2c-0.2-0.1-0.4-0.2-0.6-0.2
		c-0.1,0-0.2,0.2-0.2,0.2C31.1,475.7,31.3,475.8,31.5,475.8z M24.6,496.5c0.1,0,0.2,0.1,0.3,0.1c0.1,0,0.2-0.1,0.3-0.2
		c-0.2,0-0.4,0-0.6-0.1C24.6,496.4,24.6,496.5,24.6,496.5z M47.9,493.9c0.1,0,0.2-0.1,0.2-0.2c-0.2-0.1-0.4-0.2-0.6-0.2
		c-0.1,0-0.2,0.1-0.3,0.2C47.5,493.7,47.7,493.8,47.9,493.9z M18.1,492c0-0.2,0.1-0.4,0.1-0.5c0-0.1-0.2-0.1-0.2-0.2
		c-0.1,0.2-0.2,0.3-0.3,0.5C17.9,491.8,18,491.9,18.1,492z M21.5,459.7l0.2,0l-0.1-0.3L21.5,459.7z M37.4,477.7l-0.2,0l0.1,0.2
		L37.4,477.7z M11.4,459.9l0.2,0l-0.1-0.2L11.4,459.9z M33.8,471.6c0-0.1,0-0.3,0-0.4c-0.1,0.1-0.2,0.1-0.2,0.2
		C33.6,471.4,33.7,471.5,33.8,471.6z"/>
	<path d="M425.2,212.4c0.5,1,1.4,0.7,2.2,0.7c0.7,1.1,2,0.9,3,1.4c0.3-0.9-0.3-1-0.6-1.1c-0.8-0.1-1.6-0.1-2.4-0.2
		c-0.5-1-1.4-0.6-2.2-0.7c-0.8-0.9-1.8-0.8-2.8-0.7c0-0.8-0.8-0.8-1.2-1.1c-1.5-1-1.7-1.8-0.7-3.2c0.9-1.3,2.1-2.3,3.5-3
		c3.1-1.7,6.3-2.7,10-2.2c0.2-0.5,0.5-1,0.5-1.4c0.6-4,1.1-8,1.7-12c0.3-2.4,0.3-4.8,1-7.1c0.7-2,0.9-3.9,1-5.9
		c0.3-3.8,0.5-7.6,1-11.4c1.8-12.4,4.1-24.7,6.5-37c1.3-6.4,2.8-12.8,3.5-19.4c0.4-3.6,0.8-7.1,1.2-10.7c0.2-1.9,0.5-3.8,0.9-5.6
		c0.1-0.5,0.6-0.8,1.1-1.6c0.1,0.8,0.2,1.1,0.2,1.5c-0.3,3.3-0.7,6.6-0.9,10c-0.8,10.5-2.7,20.8-4.5,31.2
		c-1.6,9.3-3.2,18.6-4.7,27.9c-1.1,6.6-2.2,13.2-3.2,19.8c-0.4,2.6-0.7,5.2-1,7.8c-0.3,2.6-0.4,5.2-0.7,7.8
		c-0.3,2.6-0.8,5.1-1.2,7.8c0.6,0.4,1.3,0.7,1.8,1.2c0.6,0.5,1.3,1.1,1.8,1.8c0.9,1.1,0.6,2.3-0.8,2.9c-0.5,0.2-1.2,0.3-1.6,0.1
		c-1.1-0.5-2.1-0.3-3.1,0.1c-0.9,0.4-1.8,0.8-2.6,1.2c-0.2,0.1-0.2,0.3-0.3,0.5c0.5,0.8,0.9,1.6,1.4,2.5c-0.4,0.6-0.8,1.2-1,1.9
		c-0.2,0.7-0.3,1.4-0.4,2.1c-0.2,1.3-0.3,2.6-0.5,3.9c-0.3,2.4-0.3,4.8-0.9,7.1c-0.5,1.7-0.4,3.2,0.1,4.8c2.5,8.6,4.2,17.4,4.4,26.4
		c0,0.7,0.1,1.4,0.3,2.1c0.7,2.2,0.6,4.5,0.4,6.8c-0.2,1.8-0.4,3.6-1.4,5.1c-0.4,0.7-1,1.4-1.7,1.7c-3.1,1.3-6.1,2.7-9.6,2.6
		c-0.4,0-0.9,0.2-1.2,0.3c-0.3,4.3-0.6,8.5-0.9,12.6c-0.5,6.2-1.1,12.4-2.1,18.5c-1.1,6.2-1.9,12.5-4.2,18.5
		c-0.2,0.4-0.1,0.9-0.1,1.4c0.3,4.2-0.4,7.5-2.3,11.3c-0.3,0.5-0.5,1.1-0.5,1.7c-0.2,2.7-1.2,5.1-2.1,7.5c-0.7,1.7-1,3.4-0.7,5.2
		c0.6,4,0.3,8.1-0.1,12.1c-0.1,0.8-0.2,1.7-0.5,2.5c-0.6,2.1-1.2,4.1-1.8,6.2c-0.6,2.1-1.2,4.3-2.8,5.7c-1.6,1.4-2.4,3.2-3.4,5
		c-1.4,2.5-2.8,5-4.5,7.3c-1.1,1.6-1.7,3.2-1.4,5c0.2,1.4,0.1,2.9-0.2,4.3c-0.4,1.6-0.9,3.2-1.3,4.8c-0.6,2.3-1.6,4.2-3.2,5.9
		c-1.8,1.8-3.5,3.6-5.3,5.3c-1.4,1.3-2.6,2.8-3.1,4.7c-0.3,1.4-1.3,1.9-2.2,2c-2.1-1.4-3.8-2.7-5.6-3.8c-1.9-1.2-4-2.2-5.9-3.4
		c-1.5-1-2.8-2.2-4.1-3.4c-0.6-0.6-1-1.4-0.4-2.3c0.4-0.5,1.5,0.1,1.6-1c-0.5-1-1.7-1.2-2.6-1.7c-1.6-0.8-3.1-1.8-4.6-2.7
		c-0.4-0.3-0.6-0.7,0-1.3c2.6,2,5.9,2.7,8.8,4c7.3-7.8,19.2-34.6,20.6-46.1c-1.7-2-3.3-4-5.1-6.1c-1,0.7-1.9,1.2-2.7,1.8
		c-0.9,0.7-0.9,1.6-0.1,2.5c0.9,1,1.9,1.8,2.7,2.9c0.7,0.9,1.2,2,1.7,3.1c0.3,0.8,0,1.7-0.6,1.8c-0.5,0.1-1.2,0-1.6-0.3
		c-0.8-0.7-1.5-1.5-2.2-2.3c-1.3-1.5-2.7-3-4.3-4.4c-0.7,0.4-1.3,0.7-1.9,1.1c-0.1,0,0,0.2-0.1,0.5c0.7,0.8,1.5,1.7,2.1,2.7
		c0.9,1.5,1.9,3.1,2.6,4.7c0.7,1.6,0.5,2.1-0.2,4c-1.1-1.4-2.2-2.6-3.1-4c-2.5-3.5-5.1-6.9-9.1-8.9c-1.4,0.5-3.1,0.5-3.9,2.4
		c0.5,1,1.1,2,1.7,3.1c0.3,0.5,0.6,1,0.7,1.6c0.5,3.1,0.9,6.1,1.4,9.2l0.1-0.1c-1.2-0.5-1.2-1.7-1.5-2.6c-0.7-2.2-1.3-4.5-1.8-6.6
		c-1.8-1.4-3.4-2.7-5-4c-0.6-0.5-1.2-0.9-1.5-1.5c-1-1.8-2.6-3.1-4-4.5c-2.9-2.8-5.9-5.6-8.8-8.4c-1.8-1.7-3.5-3.6-5.2-5.4
		c-0.5-0.6-1.3-1.4-1.2-2.1c0.1-1.3-0.5-2-1.3-2.8c-3.5-3.9-7.1-7.8-9.3-12.6c-0.1-0.3-0.4-0.6-0.6-0.9c-1.9-2.5-3.7-5-5.6-7.4
		c-3.5-4.4-7.3-8.5-11.6-12.1c-2.2-1.8-4.4-3.7-6.5-5.6c-1.6-1.4-3.4-2.6-4.3-4.7c-0.4-0.8-1.2-1.4-1.9-2.1c-1.4-1.3-2.9-2.5-4.1-4
		c-1.9-2.2-4.3-3.8-6.8-5.1c-1.7-0.9-2.9-1.9-4-3.4c-0.6-0.9-1.5-1.5-2.2-2.3c-0.7-0.8-1.6-1-2.6-1c-2.8,0.1-5.4,0.5-8.1,1.2
		c-2.7,0.7-5,2.2-7.4,3.4l0.1,0.1c0.2-1.4,1.1-2.3,2.3-3c2.2-1.3,4.5-2.1,7-2.8c2.4-0.7,4.9-0.2,7.4-0.3c1,0,1.8,0.5,2.5,1.3
		c2,2.3,4.5,3.8,7.1,5.3c1.6,1,3.2,2,4.8,3.2c0.9,0.7,1.8,1.6,2.5,2.5c1.9,2.4,3.8,4.9,5.7,7.3c0.4,0.5,1.1,0.9,1.7,1.2
		c4.9,3.3,9.5,6.9,13.4,11.2c4,4.4,7.7,9.1,11,14.1c1.5,2.3,3.1,4.5,4.7,6.7c0.3,0.5,0.7,1.2,1.2,1.3c1.5,0.3,2,1.6,2.8,2.6
		c2.1,2.6,4.5,4.9,7.1,7c0.6,0.4,1.2,1.2,1.8,1.1c1.5-0.1,2.1,0.9,3,1.6c4.2,3.5,8.4,7,12.5,10.5c1.4-0.1,2.7-0.2,4-0.1
		c0.5,0,1.1,0.3,1,1.3c-0.8,0.4-1.6,0.8-2.4,1.2c-0.3,1.3-0.5,2.4-0.8,3.6c-0.1,0.3-0.8,0.8-1,0.7c-0.4-0.1-0.8-0.7-0.8-1
		c0-0.9,0.2-1.9,0.3-2.6c-2.8-2.3-5.4-4.6-8-6.8c-1.7-1.4-3.5-2.9-5.3-4.3c-0.4-0.3-1.1-0.4-1.6-0.6c0-0.5-0.2-0.7-0.7-0.7L342,347
		l0.2,0.1c0.2,0.2,0.5,0.5,0.7,0.7c2.1,3.3,4.7,6.2,7.4,9.1c2.4,2.7,4.8,5.3,7.2,8c0.5,0.5,0.8,1.1,1.4,1.9c0.7-1.1,1-1.9,1.6-2.5
		c0.6-0.6,1.4-0.9,2.1-1.3c0.7-0.4,1.5-0.8,2.3-1c0.7-0.2,1.5-0.1,2.4-0.2c-0.5-1.9-1-3.6-1.9-4.9c-0.9-0.6-2,0-2.2-1.2
		c1.4-2.3,4.4-2.1,5.9-3.9c0.4-1,0.6-1.8,0.9-2.5c1-1.9,2-3.8,3.1-5.7c2.9-4.9,5.5-10.1,7.4-15.5c0.9-2.6,2.3-4.9,4.3-6.9
		c1.8-1.8,3.7-2,5.9-1.6c1.4,0.3,1.7,0.9,1.9,3c-2,0-4,0-5.9,0c-2,2.1-2.7,4.7-3.6,7.1c-0.9,2.4-2,4.8-2.9,7.2
		c3.2,2.7,3.3,3.1,2.2,5.7c-1.2-0.8-2.5-1.7-3.8-2.6c-0.5,0.9-0.8,1.6-1.2,2.3c0.4,0.4,0.7,0.6,0.9,0.8c1.6,1.8,2.6,3.9,2.7,6.4
		c0,0.9-0.4,1.6-0.9,1.7c-0.8,0.1-1.4-0.3-1.8-0.9c-0.5-0.8-0.9-1.7-1.3-2.5c-0.4-0.8-0.8-1.7-1.4-2.8c-0.7,1.2-1.3,2-1.8,2.8
		c3.2,5.2,3,6,1.6,10.7c-0.4-0.3-0.9-0.4-1.1-0.7c-0.4-0.6-0.5-1.3-0.8-2c-0.5-1.4-0.7-3-1.9-4.4c-0.6,0.7-1.1,1.3-1.6,1.9
		c-0.6,0.7-1.3,1.4-1.8,1.9c1,2.6,2,5,3.1,7.7c1.3-1,3.2-0.9,4-2.3c1.2-2.2,3.2-3.5,5-5c1.7-1.3,3.3-2.8,5-4.1
		c0.9-0.8,1.7-1.7,2.2-2.7c1.6-3.2,3.6-6.2,4.7-9.6c0.9-2.6,2.3-5,3.5-7.3c-0.6-2.2-1.3-4.2-1.8-6.3c-0.2-1-0.2-2.1-0.1-3.2
		c0-0.2,0.5-0.4,0.8-0.5c0.2,0,0.5,0.1,0.6,0.3c0.3,0.8,0.5,1.6,0.8,2.4c0.6,1.4,0.3,3.1,1.6,4.3c1.1-1,1.1-2.1,0.9-3.4
		c-0.4-2.1-0.3-4.3,0-6.4c0.3,1.2,0.3,2.3,0.5,3.5c0.1,1.2,0.3,2.4,1.2,4.1c-0.1-6,0.4-11.2,1.5-16.4c1.4-7.1,2.8-14.3,4.1-21.4
		c0.6-3.5,1.5-6.9,1.2-10.7c1,0,1.9,0,2.9-0.1c0.9-0.1,1.9,0.5,2.9-0.5c-1.3-0.5-2.5-0.9-3.8-1.3c0-0.7-0.1-1.3,0-1.9
		c0.6-4.3,1.1-8.5,1.7-12.8c1.6-10.4,3.2-20.7,3.8-31.2c0.1-1.7,0-3.4,0-5.1c-2,6.4-3,13-4.1,19.6c-0.8,5.1-1.4,10.2-3.3,15
		c-1.7,4.2-2.6,8.6-3.4,13.1c0,0.2,0.1,0.4,0.2,0.6c0.7,0.6,1.9,0.4,2.4,1.7c-1.1,0.1-2.1,0.1-3.3,0.2c-0.6,2.8-1.3,5.6-1.8,8.4
		c-0.5,2.9-1.5,5.7-1.4,8.7c1.1,0.6,2,1.2,3.4,2c-1.6,0-2.7,0-3.8,0c-0.8,2.6-1.3,5.3-1.5,7.9c0.6,0.5,1,0.9,1.4,1.3
		c-0.7,0.3-1.3,0.6-1.9,0.9c-0.6,2.4-1.1,4.7-1.8,7c-0.7,2.3-0.9,4.8-2.8,7c-0.4-1.6,0-2.7,0.2-3.9c1.3-6.7,2.7-13.3,4-20
		c1.7-9,3.3-18.1,6.3-26.8c0.2-0.6,0.6-1.3,0.4-1.7c-0.8-1.5,0-2.8,0.5-4.1c1.7-4.6,2.8-9.4,3.6-14.2c1.1-6.5,2.2-12.9,3.5-19.4
		c0.9-4.4,2.2-8.8,3.4-13.1c0.2-0.9,0.4-1.9,1.6-2.4c0.3,0.5,0.6,0.9,0.8,1.4c0.6,1.6,1.1,3.2,1.5,4.8c0.4,1.4,0.8,2.7,1.2,4.1
		c0.4,1.4,0.8,2.8,1.1,4.1c0.3,1.4,0.6,2.8,0.9,4.2c0.3,1.4,0.5,2.8,0.8,4.2c0.3,1.5,0.5,3.1,0.7,4.6c0.2,1.4,0.4,2.8,0.5,4.3
		c0.1,1.4-0.2,3.1,0.5,4.2c0.9,1.5-0.8,2.6-0.1,4c0.2,0.4,0.2,0.9,0.3,1.3c0.6,0.2,1.1,0.4,1.6,0.6c-1.1,0.3-1.9,0.8-1.9,2
		c0,1.4,0,2.9,0.1,4.3c0.1,0.8,0.5,1.6,0.5,2.4c0,0.9-0.3,1.8-0.4,2.8c1.9,1.1,4.2,0.8,6.4,2.5c-1.5-0.3-2.6-0.5-3.6-0.6
		c-1-0.1-2.1-0.2-2.8-0.3c-1.1,1.5-2,2.7-3,3.9c-0.4,0.5-0.9,0.3-1.6-0.5c2.4-3.6,2.4-3.6,3.2-7.4c-0.4-1.3-0.9-2.5-1.1-3.8
		c-0.2-1.3-0.1-2.6-0.1-3.9c0.1-8.3-0.8-16.4-2.3-24.5c-0.4-2.2-0.7-4.5-1.9-7.2c-0.3,1.3-0.5,2-0.6,2.6c-0.3,7.5-0.7,15-1,22.5
		c-0.1,1.3,0,2.6,0,3.9c0,4.8-0.2,9.6,0.9,14.3c0.5,2,0.6,4.3,3,5.3c0.3,0.1,0.5,0.5,0.6,0.8c0.2,0.9,0.9,1.3,1.7,1.6
		c0.8,0.3,1.5,0.7,2.4,1.2c1.5-0.5,3.1-1.1,4.7-1.6c2.2-0.7,3.3-2.2,3.9-4.3c0.3-1.3,0.6-2.6,0.7-3.9c0.1-0.6,0-1.4-0.3-1.7
		c-1-1-0.8-2.2-0.8-3.3c-0.1-3.3-0.1-6.7-0.4-10c-0.8-6.6-2.2-13.2-4.2-19.6c-1.5-4.7-2.9-9.3-5-13.8c-1.1-2.4-2.3-4.7-4.6-6.3
		c-1.5-1.1-2.1-2.8-1.7-4.8c0.4-2.2,1.1-4.4,2.5-6.3c0.7-1,1.2-2,1.3-3.3c0.6-6.3,1.3-12.6,2-18.9c0.5-4.6,1.1-9.2,1.7-13.9
		c0.2-1.4,0.6-2.9,0.4-4.2c-0.2-1.6,1-2.8,1-4.3c0-1.6,0.5-3.3,0.8-4.9c1.9-10.8,4.5-21.5,7.1-32.1c1.8-7.3,3.3-14.7,3.8-22.2
		c0.3-3.9,0.9-7.8,1.7-11.7c0.5-2.3,1-4.7,2.7-7.1c-0.2,5.3-1.6,10-2,14.8c1.2,0.6,2.3,1,3.4,1.6c1,0.5,2.2,0.6,3.2,2.1
		c-1.5-0.2-2.5-0.6-3.4-1c-1.1-0.4-2.1-0.9-3.4-1.4c-0.3,4.1-0.6,7.8-0.9,11.5c0.5,0.4,0.9,0.6,1.4,1c-0.7,0.3-1.2,0.5-1.7,0.8
		c-0.3,1.3-0.5,2.5-0.7,3.6c-0.2,1.1-0.3,2.3-0.5,3.5c1.7,0.7,3.2,1.4,4.8,2c0,0.1-0.1,0.3-0.1,0.4c-1.6-0.3-3.1-0.7-4.8-1
		c-0.7,2.4-1.4,4.6-1.3,7c1.5,0.5,2.8,1,5,1.7c-2.3,0-3.8,0-5.5,0c-0.3,1-0.6,1.9-0.8,2.8c-1.3,6.1-2.6,12.1-3.8,18.2
		c-0.8,3.7-1.4,7.5-2,11.3c-0.1,0.6-0.2,1.2-0.2,1.8c0.1,0.6,0.4,1.1,0.6,1.6c-0.4,0.2-0.7,0.4-1,0.6c-0.1,0.4-0.2,0.9-0.3,1.4
		c-1.2,7.7-2.4,15.3-3.6,23c-0.4,2.7-1,5.4-1.4,8.1c-0.4,2.2-0.5,4.5-1.1,6.7c-0.5,2.2-1,4.4-2.4,6.2c-0.7,1-0.8,2.2-0.2,3.4
		c1.7,1,1.7,1,3.7,1C423.1,212.8,424.2,212.3,425.2,212.4z M395.1,339.5c-1.8,0.7-1.4,2.1-1.5,3.2c-0.2,0.8-0.4,1.6-0.5,2.3
		c-0.3,0.1-0.7,0.2-0.8,0.4c-1.3,2.2-2.6,4.5-4,6.9c0.5,0.5,1,0.9,1.7,1.5c1.2-3.1,2.5-5.8,3-8.8c0.9-0.6,0.6-1.5,0.5-2.4
		C394.9,342,394.9,340.8,395.1,339.5z M403.4,330.6c0.8-0.1,1.3-0.1,1.9-0.1c0.3,0.2,0.5,0.5,0.8,0.6c1.7,0.3,3.4,0.6,5.2,0.8
		c0.2,0,0.5-0.3,1.1-0.6c-2.5-1-4.9-0.3-7.1-0.7C404.7,330.4,404.3,329.8,403.4,330.6z M401.1,381.6c1.5-2.1,2.5-4.3,3.1-6.8
		c1.1-4.4,2-8.8,1.8-13.4c-0.8,0-0.8,0.7-1,1.2c-0.9,2.3-1.7,4.7-2.6,7.1c-1,2.4-2.1,4.8-3.1,7.2c-0.9,2.1-2,4.1-2.3,6.4
		c-0.2,1.2-0.8,2.3-1.1,3.4c-0.3,1.1-0.5,2.3-0.8,3.5c0,0-0.2,0.1-0.2,0.1l0.2-0.1C397.2,387.2,399.1,384.4,401.1,381.6z
		 M403.9,313.6c-0.1,0.7-0.2,1.5-0.3,2.2c1.1,1.2,2.5,1,3.7,1.3c1.2,0.3,2.5,0.6,3.8,0.9c-2.6,0.5-5,0-7.6-0.5
		c-1.2,2.9-1.5,6-2.4,9.1c3.7,0.6,7.2,1.2,10.9,1.8c0.2-0.5,0.7-1.1,0.8-1.7c1.5-8,3-15.9,4.2-23.9c0.7-4.6,1.2-9.2,1.6-13.9
		c0.2-2.7,0.2-5.5,0.6-8.2c0-0.2-0.2-0.4-0.3-0.8c-1.6,0.1-3.2,0.3-4.8,0.3c-1.5,0.1-3.1,0-4.8,0c-0.1,0.6-0.2,1.1-0.3,1.8
		c2.5,0.9,5.1,0.4,7.7,1.7c-0.6,0.3-1,0.6-1.3,0.6c-2,0.1-4,0-6.4,0c-0.1,0.3-0.5,1-0.6,1.6c-0.5,7.6-2.3,15.1-3.6,22.6
		c-0.2,0.9-0.2,1.8-0.3,3.1c2.1-0.7,4-0.6,5.9-0.4c0.4,0.1,0.8,0.4,1.2,0.6l0.1-0.1C409,311.9,406.3,311.8,403.9,313.6z
		 M386.3,375.1c0.4,0.5,0.8,0.9,1.3,1.5c-0.6,0.1-1.1,0.1-1.8,0.2c-0.3,0.7-0.6,1.5-0.9,2.2c-1.8,5.2-3.9,10.3-6.4,15.1
		c-1.5,2.8-3.2,5.6-4.9,8.3c-1.5,2.4-3.2,4.8-4.8,7.1c-1.2,1.8-2.3,3.5-3.5,5.4c0.1,0.2,0.3,0.5,0.5,0.7c2.9,1.8,5.9,3.6,8.8,5.4
		c0.8,0.5,1.7,0.8,2.4,1.1c1.7-0.4,2.2-1.7,2.7-2.9c2.5-5.7,5.1-11.3,7.4-17.1c3.4-8.5,6.4-17.2,9.6-25.8c2.3-6.2,4.9-12.4,7.1-18.7
		c1.7-4.7,3-9.6,4.4-14.4c0.2-0.5,0.2-1.1,0.3-1.7c-3-0.7-5.9-1.4-8.8-2.2c-0.2-1.2-0.4-2.4-0.7-4.1c-0.5,1.3-0.8,2.1-1.1,2.9
		c-3,9-6,18.1-9,27.1c-0.4,1.2-1,2.5-0.4,3.8l0.1-0.1C386.9,370.8,387.1,373.1,386.3,375.1z M434.3,206.8c-2.3-2.2-4.6-2.7-7.2-1.7
		c-2.1,0.8-4.1,1.8-5.5,4c1.8,1.3,3.8,1,5.4,1.6C429.8,209.2,432,208,434.3,206.8z M430.2,215.8c-0.6-0.3-1.3-0.6-1.9-0.7
		c-1.9-0.3-3.7-0.5-5.8-0.8c0.2,1.3,0.8,2.1,1.8,3.1c1.4,0,3,0,4.6,0c0.4,1-0.1,1.3-0.7,1.4c-0.9,0.2-1.9,0.2-3,0.3
		c0.8,3,2.1,5.8,3.6,8.5C429.3,223.7,429.8,219.8,430.2,215.8z M401.4,338.4c2.5,1.1,4.8,1.7,7.5,1.4c0.8-1.8,1.6-3.5,2.4-5.5
		c-0.9,0-1.9-0.3-2.4,0.1c-1.7,1.3-3.5,1-5.4,0.8c-0.3,0-0.7,0-1.3,0C401.9,336.2,401.7,337.2,401.4,338.4z M390.7,403
		c-0.2-0.1-0.3-0.2-0.3-0.2c-0.1,0-0.2,0.1-0.3,0.2c-1.5,3.5-2.9,7-4.4,10.4C390,411.1,390.5,407.1,390.7,403z M414.9,271.9
		c-0.5-3-1.1-5.8-1.6-8.8c-0.2,0.3-0.6,0.5-0.6,0.8c-0.4,2.5-0.9,5.1-1,7.6C412.9,272.2,413.9,272.3,414.9,271.9z M384,356.3
		c0.1,0.3,0,0.6,0.2,0.7c1.1,1.2,2.3,2.3,3.6,3.6c0.4-1.1,0.7-1.9,1-2.8c-0.9-1-1.8-2-2.9-3.3C385.1,355.3,384.5,355.8,384,356.3z
		 M415.4,274.7c-0.2-0.2-0.3-0.5-0.5-0.5c-1.1-0.1-2.3-0.2-3.4-0.2C412.7,275.5,413.9,275.9,415.4,274.7z M410.2,333.1
		c-2.3-0.4-4-0.3-5.6,0C406.3,333.3,408,333.7,410.2,333.1z M400.6,330.5l-0.1,0l0.1,0.2L400.6,330.5z"/>
	<path d="M530.4,461.7c-1,0.2-1.2,1-1.5,1.8c-0.8,2-1.3,4.1-2.4,5.9c-1.5,2.4-1.4,4.4,0.6,6.4c0.1,0.2,0.2,0.4,0.2,0.7
		c-1,4.5-0.7,8.2,1,12.6c0.2,0.5,0.5,1.1,0.8,1.6c0.9,1.8,1.9,3.6,2.7,5.4c1,2.3,1.8,4.7,3.4,6.6c2.5,3.1,5.5,5.3,9.6,5.5
		c2.5,0.2,5,0.3,7.5-0.2c1-0.2,2.2-0.5,3.2-0.3c3.5,0.5,7.1,0.7,10.4,2.3c1,0.5,2,0.8,3.1,0.9c3.6,0.1,7.2,0.2,10.7,0
		c4.2-0.2,8.3-0.8,12.5-1.1c1.1-0.1,2.2-0.2,3.2-0.1c0.8,0.1,1.7,0.2,2.4,0.7c3.2,2.1,6.8,2.8,10.4,3.6c6.9,1.5,13.9,2.3,20.9,2.6
		c6.9,0.3,13.8,0.2,20.7-0.6c0.1,0,0.2-0.2,0.3-0.4c-1.6-0.7-3.6,0.1-4.8-1.7c0.4-0.2,0.6-0.4,0.8-0.4c3.8-0.2,7.6,0.1,11.4,0.4
		c2,0.2,4,0.6,5.8,1.9c0.6,2.5,2.3,4.6,3.8,6.7c1.4,2,3.4,3.4,5.7,4.1c4.9,1.5,9.9,2.7,15,3.1c3.7,0.3,7.4,0.4,11,1.3
		c1.4,0.3,2.8-0.1,4.2-0.6c0.4-0.1,0.8-0.5,0.5-1c-3.2-0.8-6.4-1.3-9.4-2.3c-3.1-1.1-6.5-1-10-3c1.1,0,1.5-0.2,2-0.1
		c4.5,0.9,9.1,1.9,13.5,3.5c0.8,0.3,1.6,0.6,2.4,0.6c1.6,0,3,0.5,4.5,1c3.3,1,6.6,1.1,9.5-1.2c0.1-0.1,0.4,0.1,0.5,0.1
		c-0.5,2.1-1.4,3.1-3.1,3.1c-2.1,0.1-4.3,0-6.4-0.1c-1.1,0-2.1-0.1-3.1,0.6c-1.8,1.2-3.8,1.2-5.9,1c-1.1-0.2-2.1-0.5-3.2-0.6
		c-4.6-0.3-9.3-0.9-13.9-1.4c-3.2-0.4-6.3-1.4-9.4-2.2c-2.1-0.5-3.5-1.9-5-3.3c-0.9-0.9-1.8-1.9-2.5-3c-1.1-1.7-2.2-3.4-3.2-5
		c-0.3-0.1-0.6-0.2-0.8-0.1c-1.9,0.7-4,0.6-6,0.6c-1,0-1.9,0-2.9,0.2c-4.8,1-9.7,1-14.6,1.2c-5.3,0.2-10.5-0.3-15.7-0.7
		c-5.4-0.4-10.6-1.4-15.8-2.9c-3.2-0.9-6.4-1.9-9.6-2.7c-0.7-0.2-1.4-0.2-2.1-0.2c-1.8,0.1-3.6,0.4-5.3,0.5
		c-3.8,0.3-7.6,0.7-11.4,0.9c-3.8,0.2-7.6-0.5-11.4-1c-2.7-0.4-5.4-1.1-7.9-2.3c-1.9-0.9-3.9-1.1-5.9-0.3c-0.5,0.2-1.2,0.3-1.7,0.3
		c-1.9-0.1-3.8-0.3-5.7-0.5c-2.7-0.2-5.1-1.3-7.1-3c-1.3-1.1-2.5-2.2-3.7-3.4c-1.5-1.6-2.5-3.4-2.9-5.6c-0.4-2.5-1.6-4.7-2.9-6.9
		c-0.8-1.3-2.3-1.6-3.2-2.7c-0.5-0.6-1.5-0.5-2.3-0.6c-1.9-0.2-3.7-0.7-5.6-1c-1.7-0.3-3.5-0.5-5.2,0.2c0,1.4,1.4,2.5,0.1,4
		c-3-0.1-5.8,1.2-8.7,2.2c-1.8,0.6-3.6,1.4-5.3,2.2c-2,0.9-4.1,1.4-6.2,1.4c-2,0.1-4,0.5-5.9,1.1c-3.8,1.2-7.8,1.2-11.7,0.9
		c-1.3-0.1-2.5-0.6-3.9-0.2c-0.7,0.2-1.6-0.3-2.3-0.7c-0.6-0.3-1.1-0.8-1.7-1.4c-0.6,0.7-1.1,1.3-1.8,2c-0.6-0.4-1.3-0.7-1.4-1.2
		c-0.3-1.4-2.5-1.6-2.1-3.4c-0.7-0.4-1.4-0.8-2.1-1.3c0.3-0.7,0.5-1.4,0.8-2.2c-2.1-1-3.2-2.8-3.9-4.9c-0.2-0.7-0.5-1.4-0.6-2.1
		c-0.3-1.6-0.9-2.9-2.4-3.8c-0.2-0.1-0.2-0.6-0.3-0.9c0.6-0.2,1.1-0.4,1.8-0.6c-0.2-0.7-0.3-1.5-0.6-2.1c-0.8-1.7-1-3.5-0.7-5.2
		c0.5-2.7-0.3-5.1-1.6-7.5c-0.4-0.8-0.8-1.7-1.1-2.5c0.3-0.1,2.3-0.5,2.4-0.5c-0.2-1.3,0-2.7-0.5-3.8c-0.7-1.5,0.5-2.6,0.4-4
		c0-0.3,0-0.7,0-1.1c0.8-0.6,1.6-1.1,2.4-1.7c-1.1-0.9-2.6-0.9-3.2-2.4c0.4-0.4,0.8-0.8,1.1-1.2c0.4-0.5,0-1.5,1.1-1.7
		c0.5-0.1,0.9,1.1,1.7,0.5c-0.4-0.9-0.9-1.7-1.2-2.6c-0.4-1.2,0.5-2.7,1.6-2.6c2.2,0.2,4.4-0.7,6.8,0.6c1.1,2.2,2.3,4.6,3.5,7.1
		c1.1-0.3,2-0.4,2.9-0.8c1.7-0.7,3.3-1.4,4.9-2.2c2.3-1.2,4.7-1.8,7,0.1c2.7-1.5,5.3-2.8,7.7-4.7c1-0.8,2-1.3,3.3-1.3
		c1.2,0.1,1.9,1,2.6,1.7c0.1,0.2,0.4,0.2,0.6,0.3c2.8-0.6,2.8-0.6,4.4,0.5c1.2-0.3,2.3-0.9,3.4-0.9c1.1,0,2.3,0.5,3.5,0.9
		c0.5-0.2,1-0.5,1.5-0.7c1.8-0.6,3.6-0.6,5.1,0.5c1.6,1.1,2.9,2.4,2.8,4.6c0,1.5,0.4,3,0.9,4.4c1.3,0.2,2.5,0.2,3.6,0.6
		c1.8,0.5,3.6,1.1,5.4,1.8c0.2,0.1,0.4,0.5,0.6,0.8l0.1-0.1c-1,0.3-2,0.5-3.1,0c-0.7-0.4-1.6-0.4-2.3-0.9c-1.1-0.7-2.2-0.7-3.4-0.4
		c-0.7,0.2-1.3,0.3-2,0.5l0.1,0.1c-0.9-1.4-1.3-3.1-1.4-4.7c0-1.6-0.8-3-1.3-4.4c-0.4-1.1-1.4-1.7-2.5-1.6c-0.7,0-1.5,0-2.1,0.3
		c-2,1.1-3.9,0.8-5.8-0.1c-0.2-0.1-0.5,0-0.9,0c-0.3,0.4-0.7,0.9-1.1,1.4c0.5,0.9,0.9,1.6,1.3,2.4c0.1,0.1-0.1,0.5-0.3,0.6
		c-0.1,0.1-0.5,0.1-0.6,0c-0.4-0.6-0.8-1.1-1.1-1.8c-0.6-1.1-1-2.2-2.5-2.7c-0.7,0.2-1.6,0.6-2.4,0.8c0,0.9,0.2,1.7,0.1,2.5
		c-0.2,1-0.8,1.2-2.2,0.9c0.2-0.5,0.4-1.1,0.4-1.6c0-0.6-0.2-1.2-0.3-1.7c-0.5-2.8-1.2-3.2-3.8-1.7c-2,1.2-3.9,2.7-5.9,4.1
		c-1.5,1-3,1.5-4.7,0.4c-1.4-0.9-2.7-0.6-4,0.1c-0.4,0.2-0.8,0.4-1.3,0.7c-2.3,1.3-4.8,2.1-7.4,2.8c-0.3,0.8-0.7,1.6-1,2.4
		c0.4,1.5,0.9,2.8,1.5,4c0.5-0.3,0.8-0.5,1.1-0.7c2,1.3,1.4,3.4,1.6,5.4c2.4,0.6,4,2.4,5.8,3.9c2.5,2,5.1,3.9,7.7,5.8
		c1,0.7,2.1,1.3,3.2,1.6c2.4,0.6,4.9,1.4,6.9-1c0.1-0.1,0.4,0,0.6,0c-0.1,0.8-0.2,1.6-0.4,2.4c0.6,0.3,1.1,0.6,1.7,0.8
		c-0.8,1.2-1.9,1.9-3.1,2.5c-1.5,0.7-2.9,1.6-3.9,3l-0.3,0.1l0.2-0.1c0.2,0.3,0.5,0.5,0.5,0.8c0.1,0.4,0.1,0.9,0.1,1.4
		c-0.2,0.2-0.4,0.3-0.5,0.5c0,0.1,0.2,0.3,0.3,0.5c0-0.1,0.1-0.2,0.1-0.3c0-0.2,0-0.5,0-0.7c0.4-0.2,0.9-0.3,1.1-0.6
		c0.7-0.7,1.2-1.4,1.8-2.1c0.3,0.2,0.5,0.4,0.6,0.5c1.2,1.3,2.3,1.1,2.9-0.4c0.2-0.4,0.1-1,0.3-1.4c0.2-0.3,0.7-0.7,1.1-0.7
		c0.4,0,1,0.3,1.1,0.7c0.5,1,0.7,2,0.3,3c-0.6,0.6-1.8,0-2.1,1.1c0,0,0.1-0.1,0.1-0.1c-1.4-0.2-2.8-0.3-4.4-0.5
		c-0.4,0.5-0.9,1.1-1.3,1.6c0.2,0.3,0.3,0.6,0.5,0.7c0.8,0.4,1.6,0.4,2.3-0.2c0.9-0.7,1.8-1.2,2.9-0.8l-0.1-0.1
		c-0.7,0.7-1.4,1.4-2,2.1c0.3,0.9,0.7,0.9,1.4,0.8c0.6-0.1,0.9-1.1,1.7-0.6c-0.1,1.3-1.6,1.6-1.6,2.9c-2.2-1.9-4.9-2.7-7.7-3.2
		c0,0.2-0.2,0.6-0.1,0.6c1.8,1.3,3.8,2.5,6,2.9c0.5,0.1,1.1-0.3,1.7-0.4c0.4-0.1,1.1-0.2,1.3-0.5c1.8-2.3,3.6-4.7,5.1-7.2
		c0.2-0.3,0.2-0.7,0.4-1c0.6-1.2-0.2-2-0.7-2.9c0.9-0.9,1-2.4,2.4-2.7c2.1-0.5,3.6-1.8,4.7-3.6c0.1-0.2,0.5-0.2,1.1-0.5
		c-1,3.5-3.1,5.3-6.5,6c0.7,1.4,0.8,2.6,0.5,3.9c-0.3,1.2-1.5,2.2-1.2,3.6c0.9,0.7,2.1,0.3,2.9,1.3c1.3,1.8,3.3,2.2,5.4,2.1
		c3.6-0.1,7.1-0.3,10.7-0.1c0.9,0.1,1.9,0,3,0c-0.1-1.4-0.2-2.7-0.2-3.9c0.1-1.5,0.3-3.1,0.4-4.6c0.2-1.8,0.4-3.6,0.8-5.3
		c0.5-2.1,1.3-4.1,1.8-6.2c0.3-1,0.5-2,0.9-3c2.5-5.3,2.5-5.3,7.6-7.8c4-1.9,7.9-4,11.5-6.6c0.7-0.5,1.4-1,1.8-1.7
		c0.8-1.3,1.5-2.7,2.3-4c0.3-0.5,0.6-1,0-1.6c-4,2.8-7.5,6.3-10.8,9.7c-0.8,0-1.5,0-2.3,0c-0.6,0.5-1.2,1-1.8,1.7
		c-1.2,1.4-2.8,2.2-4.4,3c-0.2,0.1-0.6-0.1-1.1-0.2c0.9-1,1.8-1.8,2.5-2.7c3.7-5.1,8.5-9,13.5-12.7c0.3-0.2,0.7-0.4,1-0.4
		c1.2,0.2,2-0.7,2.8-1.3c1.7-1.2,3.5-2.6,5.2-3.7c0.8-0.5,1.7-1.1,2.6-1.2c2.6-0.2,4.8-1.4,7-2.6c3.1-1.7,6.4-2.5,10-2.1
		c1.1,0.1,2.1,0.3,3.2,0.5c3.3,0.7,6.3,2,8.9,3.5c7.6-1.3,14.9-2.6,22.1-3.8c1.4,0.7,2.8,1.4,4.2,2.1c3.5,1.7,7.3,2.9,10.1,5.8
		c0.3,0.3,0.8,0.4,1.3,0.6c2.2,0.9,4.4,1.9,6.6,2.8c0.7,0.3,1.3,0.6,2,0.6c3.6,0.1,7,1.1,10.6,1.9c2-1.2,3.6-3,5.2-4.6
		c0.3-3.2,0.7-3.9,2.7-4.4c1.9-0.5,2.7-0.3,3.6,1c-0.6,1.2-2,1.1-3,1.7c-0.8,0.4-1.5,0.9-1.5,1.8c0,1.5-1,2.4-1.9,3.3
		c-1,1-2.1,1.9-3.1,2.9c-0.1,0.5-0.1,1-0.1,1.5c-0.6,5.6,0.8,10.6,4.2,15.1c0.9,1.2,1.7,2.3,1.9,3.8c0.1,0.5,0.4,1.1,0.7,1.9
		c1-2.4,1.9-4.5,2.7-6.6l-0.1,0.1c0.6,0.1,1.3,0.2,1.9,0.3c0.1,0.4,0.1,0.5,0.1,0.6c-1.5,3.3-3,6.6-4.5,10c-0.2-0.7-0.4-1.4-0.7-2.3
		c-0.7,2.8-1.1,5.4-0.5,8l0.1,0c-0.4-0.2-0.6-0.7-1.3-0.3c-0.3,1.2,0,2.6,0,3.9l0.1-0.1c-0.2-0.5-0.6-1-0.7-1.5
		c-0.3-1.3-0.5-2.6-0.7-3.8c-0.3-1.7-1.6-3.3-0.4-5.1c-0.7-3-0.4-6.2-1.6-9.1c-0.2-0.4-0.5-0.9-0.4-1.3c0.3-1.3-0.2-2.3-0.9-3.3
		c-1.7-2.3-2.2-5-2-7.8c0-0.8,0-1.6,0-2.5c-1.5-0.4-2.9-0.8-4.3-1.1c-4.6-0.9-9-2.1-13.2-4.2c-1.2-0.6-2.4-1-3.6-1.6
		c-1.1-0.5-2.2-0.9-3.2-1.6c-3.3-2.6-7.4-3.8-10.6-6c-7.4,1.3-14.6,2.5-21.9,3.7c-1-1.4-2.7-1.9-4.5-2.1c-2-0.3-4.1-0.4-6-1
		c-3.2-0.9-6.1,0-8.9,1.4c-1.6,0.8-3.2,1.6-4.8,2.3c-0.9,0.4-1.8,0.9-2.7,0.9c-2.6,0.1-4.4,1.5-6,2.8c-0.6,1.8-1.5,3.3-1.5,4.7
		c0,1.8-0.9,2.9-1.9,3.9c-2.3,2.4-5,4.4-7.9,6.1c-2.3,1.3-4.7,2.4-7,3.6c-0.6,0.3-1.6,0.6-1.7,1.1c-0.6,1.8-2.5,2.5-3.3,4.2
		L530.4,461.7z M467.2,461.9c-0.4,0.5,0.1,0.4,0.3,0.4c0.2,0.3,0.5,0.5,0.7,0.8c0.2,0.2,0.5,0.5,0.7,0.7c0.3,0.4-0.1,0-0.1,0.1
		c0.1-0.5-0.1-0.8-0.7-0.7c0.2-0.6-0.2-0.7-0.7-0.8C467.4,462.3,467.3,462.1,467.2,461.9z M465.8,464.1c0.1-0.1,0.2-0.4,0.2-0.6
		c-0.2,0-0.5-0.2-0.6-0.1c-0.3,0.3-0.6,0.7-0.9,1.1c-0.1,0.1-0.1,0.2-0.2,0.3c0-0.1,0.1-0.1,0.1-0.2c0-0.1,0-0.2,0-0.3
		C465,464.3,465.4,464.2,465.8,464.1z M472.2,464.8c-0.4,0.5,0,0.5,0.4,0.5c-0.1,1.3,0.7,1.8,1.9,2.2c-0.8-1.4-0.8-1.4-2-2.2
		C472.4,465.1,472.3,464.9,472.2,464.8z M458.1,452.8c-0.3-1.1-0.7-1.7-1.9-1.2c0,0.8-0.1,1.5-0.1,2.3c-1.4,0-1.4,0-1.1,1.5
		c1-0.1,0.9-0.9,1-1.6C456.7,453.4,457.4,453.1,458.1,452.8z M464.5,448.5c-1-1.8-2-3.5-3.1-5.2c-0.5-0.8-1.2-1.5-2.3-1.5
		c-0.1,0.9,0.8,1.1,1.2,1.7c0.5,0.8,1.1,1.6,1.6,2.4c0.4,0.7,0.6,1.5,1.1,2.3c0.4,0.7,0.9,1.3,1.7,2.4
		C464.5,449.3,464.7,448.8,464.5,448.5z M466.3,486.3c0.5-0.9,0.8-1.8,0.2-2.9c-0.7,0.7-1.3,1.4-2,2.3
		C465.2,485.9,465.7,486.1,466.3,486.3z M465.7,478.8c0.2,1,0.9,1.1,1.6,1.1c0.3,0,0.5-0.4,0.9-0.7c-0.4-0.5-0.7-0.9-1.1-1.5
		C466.6,478.2,466.1,478.5,465.7,478.8z M463.6,455.5c0,1.8,0,1.8,1.1,3.7C464.6,457,464.6,457,463.6,455.5z M465.5,468.2
		c-0.3,1.2-1.3,1.9-0.8,3.2C466.4,469.2,466.4,469.2,465.5,468.2z M649,463.4c0.3,1.4,0.4,2.4,0.6,3.4
		C650,465.7,650.4,464.6,649,463.4z M481.3,494.2c0.1-0.1,0.3-0.5,0.2-0.6c-0.5-0.3-1-0.5-1.5-0.8c0,0-0.2,0.4-0.3,0.5
		C479.9,494.2,480.7,494.6,481.3,494.2z M500.1,485.1c0.1-0.1,0.1-0.4,0-0.5c-0.1-0.1-0.5-0.2-0.6-0.1c-0.4,0.3-0.7,0.7-1.1,1.1
		C499.3,486,499.6,485.4,500.1,485.1z M484.8,483.5c0,0.2,0.3,0.5,0.4,0.7c0.2-0.2,0.6-0.4,0.7-0.6c0.1-0.2-0.2-0.5-0.4-0.9
		C485.1,483,484.8,483.2,484.8,483.5z M454.6,464.1c0.2-0.2,0.4-0.4,0.6-0.7c-0.2-0.1-0.4-0.2-0.6-0.2c-0.1,0-0.3,0.3-0.4,0.4
		C454.3,463.8,454.5,464,454.6,464.1z M457.6,486.1c-0.1-0.1-0.4,0-0.5,0c0,0,0,0.2,0,0.3c0.2,0.3,0.4,0.5,0.6,0.7
		C458.1,486.7,458.1,486.4,457.6,486.1z M653.3,515.1c-0.2-0.1-0.5-0.3-0.7-0.4c-0.1,0-0.3,0.2-0.5,0.4c0.2,0.1,0.4,0.2,0.6,0.3
		C652.9,515.3,653.1,515.2,653.3,515.1z M476.4,473.6c-0.1-0.1-0.3-0.2-0.5-0.2c0,0.2-0.2,0.4-0.1,0.5c0.1,0.1,0.3,0.2,0.5,0.3
		C476.3,473.9,476.5,473.7,476.4,473.6z M484.2,495.1c0.6,0.1,1,0.1,1.7,0.2C485.3,494.5,484.9,494.4,484.2,495.1z M467.6,491.1
		c-0.1,0-0.2,0.2-0.4,0.3c0.1,0.1,0.2,0.2,0.3,0.2c0.3,0,0.6-0.1,1.5-0.1C468.2,491.3,467.9,491.2,467.6,491.1z M478.4,486.7
		c0,0.1,0.2,0.3,0.2,0.5c0.2-0.2,0.5-0.4,0.6-0.7c0,0-0.2-0.3-0.5-0.5C478.6,486.3,478.4,486.5,478.4,486.7z M483.2,488.3
		c0-0.2,0-0.4,0-0.5c0,0-0.3-0.1-0.3-0.1c-0.1,0.2-0.2,0.4-0.3,0.5C482.8,488.2,483,488.2,483.2,488.3z M454.2,447.8
		c0-0.2,0-0.4-0.1-0.5c-0.1-0.1-0.4-0.2-0.6-0.3c-0.1,0.2-0.1,0.4-0.2,0.8C453.6,447.8,453.9,447.8,454.2,447.8z M478.8,470.1
		c0.1-0.1,0.2-0.2,0.3-0.4c-0.2-0.1-0.3-0.2-0.5-0.3c0,0.1-0.1,0.2-0.2,0.3C478.5,469.8,478.7,469.9,478.8,470.1z M482,475.8
		l-0.1-0.2l-0.2,0.1L482,475.8z M478.7,477c-0.2-0.1-0.4-0.2-0.6-0.2c0,0-0.1,0.2-0.2,0.3c0.2,0.1,0.4,0.2,0.6,0.2
		C478.6,477.2,478.7,477.1,478.7,477z M525.2,483.5c0-0.1,0.1-0.2,0.1-0.3c0-0.1-0.1-0.2-0.2-0.3c0,0.1-0.1,0.2-0.1,0.3
		C525,483.4,525.1,483.5,525.2,483.5z M494.5,488.7c0.2,0,0.4-0.2,0.6-0.2c-0.1-0.1-0.2-0.2-0.3-0.2c-0.2,0-0.4,0.2-0.6,0.3
		C494.3,488.6,494.4,488.8,494.5,488.7z M477.4,488.7c0.1,0,0.2-0.1,0.3-0.1c0-0.1-0.1-0.2-0.1-0.2c-0.1,0-0.2,0.1-0.3,0.1
		C477.3,488.5,477.4,488.7,477.4,488.7z M462.8,490.2c0.2,0,0.3-0.2,0.5-0.3c-0.1-0.1-0.2-0.2-0.2-0.2c-0.2,0-0.3,0.1-0.5,0.2
		C462.6,490,462.8,490.2,462.8,490.2z M492.5,492.3c0.2,0,0.3-0.2,0.5-0.3c-0.1-0.1-0.2-0.2-0.3-0.2c-0.2,0-0.4,0.1-0.6,0.2
		C492.2,492.1,492.4,492.3,492.5,492.3z M466.3,458.1l0.2,0l-0.1-0.3L466.3,458.1z M469.4,494.4l0-0.2l-0.2,0.1L469.4,494.4z"/>
	<path d="M650.2,479.5c0.1,0.7,0.3,1.4,0.3,2.1c0.1,1.9,0.5,3.7,1.2,5.3c1.1,0.8,2.5,0,3.5,1.4c-1.3,0.5-2.3,0.9-3.4,1.3
		c0,0.7,0,1.2,0,2c0.5-0.4,0.8-0.7,1.3-1.1c1,0.2,2.1,0.4,3.2,0.7c-0.3,0.9-0.5,1.6-0.7,2.5c-0.6,0.2-1.3,0.4-1.9,0.5
		c0.3,1.3,0.6,2.5,0.9,3.9c2.9,0.3,6,0.7,9,1c4.9,0.5,9.6,1.8,14,3.9c4,1.9,8.2,3.1,12.5,4.3c0.5,0.1,1.2,0.1,1.7,0
		c3.4-0.8,6.7-1.8,9.8-3.5c1.6-0.9,2.9-1.9,3.8-3.6c1.8-3.2,3.7-6.4,5.5-9.6c1.5-2.8,2.5-5.9,3.1-9.1c0.8-4.8,0.6-9.5,0.4-14.3
		c0-0.7-0.3-1.5,0-2.1c0.4-1.1,0.3-2.1,0-3.1c-0.7-2.4-0.4-4.7-0.3-7.1c0.2-5.2,0.4-10.5,0.6-15.7c0-0.7,0-1.4,0-2.1
		c0.1-1,0.6-1.1,1.6-0.4c-0.1,1.7-0.2,3.4-0.3,5c-0.1,5.2,0.1,10.5-0.5,15.7c-0.1,0.9-0.1,1.9,0.1,2.9c0.7,3.9,0.5,7.9,1.6,11.7
		c0.1,0.5,0.1,0.9,0.1,1.4c0.5,8.3-1.5,15.8-6.2,22.7c-0.8,1.2-1.6,2.4-2.3,3.6c-1.7,3-4.1,5.3-7.2,6.7c-1.7,0.8-3.5,1.4-5.3,2.1
		c-0.4,0.2-0.7,0.4-1.2,0.7c1,1.3,2.2,1.7,3.4,2.3c1.7,0.8,3.5,1.6,5.2,2.4c0.4,0.2,0.9,0.4,1.3,0.4c3.7,0.3,7.1,2,10.7,2.9
		c2.3,0.6,4.3,1.8,6.5,3c-0.2,0.8-0.3,1.5-0.5,2.2c-0.2,0.6-0.4,1.2-0.7,1.9c-2.5-0.2-4.9-0.2-7.1-1.4c-0.7-0.4-1.6-0.5-2.4-0.7
		c-2.2-0.5-4.4-1.1-6.4-2.3c-0.7-0.4-1.6-0.5-2.4-0.7c-2.7-0.6-5.4-1.1-8-1.7c-0.6-0.1-1.4-0.2-1.6-1.2c0.3-0.4,0.6-0.9,0.9-1.5
		c0.7,1.2,1.6,1.9,2.9,2.1c0.9,0.2,1.9,0.5,2.8,0.6c2.8,0.4,5.7,0.8,8.2,2.4c0.6,0.4,1.4,0.5,2,0.6c2.1,0.6,4.1,1.2,6.2,1.6
		c1,0.2,2.1,0.3,3.2,0.3c0.5,0,1.2,0,1.3-1.1c-2-0.9-3.9-2-6-2.7c-3.4-1.1-6.7-2.4-10.3-3c-1.4-0.2-2.8-0.8-4.1-1.3
		c-0.8-0.3-1.7-0.6-2.2-1.2c-1.1-1.5-2.7-1.9-4.3-2.4c-2.4-0.8-4.8-1.4-7.2-2.2c-3.7-1.3-7.4-2.6-11.1-4c-3.9-1.4-7.9-2.6-12.1-3.1
		c-4-0.6-8.1-0.9-12-1.7c-6.9-1.3-13.8-2.9-20.6-4.3c-5.5-1.1-11-2.1-16.5-3.1c-1.1-0.2-2.1-0.2-3.2-0.3c-3.2-0.3-6.4-0.5-9.6-0.9
		c-0.3,0-0.7-0.3-0.9-0.5c-0.2-0.1-0.2-0.3-0.4-0.5c0.7-0.6,2.1,0.1,2.2-1.6c-2.7-1.7-5.4-3.6-8.3-5.4c-1.4-0.8-3.2,0.9-4.2-0.9
		c-0.9-1.6-2.7-1.4-4.1-1.8c-2.8-0.8-5.8-1.5-8.6-2.3c-1.4-0.4-2.7-0.8-4.1-1.3c-1.7-0.7-1.7-0.7-3-2.8c-1.1-0.5-2.2-0.9-3.2-1.4
		l-0.1,0.1c2.1-0.4,4.2,0.3,5.8,1.4c2.4,1.6,5,2,7.7,2.7c3.8,1,7.7,1.4,11.1,3.6c0.3,0.2,0.7,0.3,1,0.3c2.3,0.4,4.2,1.3,6.2,2.5
		c2.6,1.5,6.1,3.9,8.3,6.3c1.3,0.2,2.9,0.4,4.4,0.5c2.1,0.3,4.3,0.5,6.4,0.8c4.2,0.8,8.4,1.6,12.6,2.5c3.7,0.8,7.4,1.6,11.2,2.3
		c3.3,0.7,6.5,1.3,9.8,2c0.3,0.1,0.6-0.1,1.1-0.2c-1.1-1.1-2-2.1-3-3.1c0.1-2.2,0.4-4.4,0.3-6.5c-0.1-2.2-0.7-4.4-1-6.6
		c0.6-0.6,1-1.1,1.5-1.7L650.2,479.5z M651.1,493.6c0.2,0.1,0.4,0.1,0.6,0.2c0.1,0,0.2-0.1,0.2-0.2c-0.2-0.1-0.4-0.1-0.6-0.2
		C651.3,493.4,651.2,493.5,651.1,493.6z"/>
	<path d="M269,349.9c0.9,0.2,1.8,0.5,2.7,0.7c0.4,0.1,0.8-0.2,1.4-0.3c-0.7-2.3-3.2-2.7-4.3-4.6c3.7-5.5,7.5-11.1,11.3-16.9
		c0.3,0.5,0.7,0.9,1,1.4c1.5,2.7,2.5,5.7,4.4,8.2c0.2,0.3,0.4,0.6,0.4,1c0,2.2,1.5,3.4,2.8,4.8c1.1,1.1,2.3,2,3.1,3.4
		c0.4,0.7,1.1,1.2,1.8,1.7c2.5,2,5.1,4,7.6,6c0.5,0.4,1.1,0.6,1.5,1c2.7,2.9,6.2,4.4,9.5,6.2c3.6,1.9,7.2,3.8,10.7,5.7
		c0.7,0.4,1.4,0.9,2,1.5c1.9,1.7,3.7,3.4,5.6,5c4,3.5,7.8,7,11.2,11c1.3,1.5,2.8,3,4.3,4.3c3.4,3,6.3,6.5,9,10.2
		c0.2,1.3-1.3,2.6-0.2,4c0.6,0.8,1.1,1.5,2.4,1.3c-0.1-1.2-1.5-1.6-1.4-2.9c0.3-1.1,1.7-1.4,2.4-2.3c1.8,0,2.3-1.5,3.1-2.6
		c2.2-2.8,3.5-6,3.7-9.5c0.1-0.7,0.1-1.4-1.1-1.7c-0.7,1.5-1.3,3.1-2,4.8c-2.5-0.9-4.8-2.5-7.8-1.7c0.3,0.6,0.4,1.2,0.8,1.5
		c0.8,0.7,1.8,1.2,2.7,1.7c0.8,0.4,1.8,0.6,2.8,0.9c-0.8,1.7-1.6,3.3-2.3,4.9c-0.7,0.4-1.3,0.2-1.8-0.4c-2.8-3.9-5.9-7.5-9.6-10.6
		c-0.8-0.7-1.5-1.6-2.2-2.4c-3.9-4.5-8.2-8.6-12.6-12.6c-5.8-5.3-12.3-9.4-19.2-12.9c-4.8-2.5-9.1-5.7-13.2-9.1
		c-3.1-2.6-6.1-5.3-9.2-8c-1.1-0.9-2-2-2.6-3.4c-1.7-3.7-3.5-7.3-5.3-11c-0.8-1.6-1.7-3.1-2.7-4.9c0.8-1.5,2.7-2.3,3.8-4
		c-0.3-0.1-0.7-0.3-0.9-0.2c-2.2,1.5-4.1,3.2-5.7,5.3c-0.2,0.2-0.2,0.7-0.2,1l-0.1-0.1c0.6-0.2,1.3-0.4,2-0.6
		c0.3,0.6,0.5,1.1,0.6,1.5c-0.8,1-1.5,1.8-2.1,2.7c-2.6,4-5.1,8-7.7,12c-0.8,1.2-1.5,2.3-3,3.1c-0.5-0.6-1-1.1-1.3-1.5
		c2.5-3.4,4.9-6.7,7.1-10c1.2-1.7,2.3-3.5,2.8-5.7l0.1,0.1c-0.8-0.1-1.4,0.3-1.8,0.9c-1.3,1.6-2.5,3.1-3.7,4.8
		c-1.9,2.7-3.8,5.4-5.7,8.1c-0.9-0.3-1.7-0.5-2.5-0.8l0.1-0.1c1.3,3,3.3,5.5,5.4,7.8C267.9,348.5,268.5,349.2,269,349.9
		C269.1,350,269,349.9,269,349.9z"/>
	<path d="M185.2,344.8c1.1-0.4,2.2-0.8,3.3-1.3c1.3-0.6,2.6-1.2,4.4-2.1c0.7-1.2,1.8-2.8,2.8-4.6c2-3.7,4.6-6.9,7.8-9.7
		c6.1-5.3,12.2-10.6,18.5-15.8c3.4-2.8,7.1-5.2,10.7-7.7c5.8-4,11.6-7.8,17.4-11.8c2.2-1.5,4.3-2.9,6.4-4.5c0.4-0.3,0.7-0.9,1-1.3
		l0.1,0.1c-0.6,0.1-1.2,0.1-1.7,0.4c-1.8,0.9-3.6,1.8-5.3,2.9c-3.7,2.4-7.4,4.8-11,7.3c-2.2,1.5-4.3,3-5.9,5.1
		c-0.5,0.6-1,0.9-1.7,1.2c-4.4,1.6-8.3,4.1-11.9,7.1c-3.9,3.3-7.8,6.7-11.6,10c-4,3.5-7.6,7.6-10.9,11.7c-0.9,1.1-1.9,2.2-2.8,3.3
		c-0.5,0.6-1.1,1.3-1.5,2c-0.8,1.8-1.9,3.2-4,3.6c-0.8,0.2-1.5,1.1-2.2,1.7C186.4,343.4,185.9,344.1,185.2,344.8L185.2,344.8z"/>
	<path d="M672.2,482.5c0.3,0.1,0.7,0.2,1,0.3c1.9,0.5,3.1-0.1,3.4-2c0.1-1,0.1-2.2-0.2-3.2c-1-4.4-2.9-8.3-5.6-11.9
		c-0.1-0.2-0.3-0.4-0.5-0.6c-1.1-1.3-2.1-1.6-2.7-1c-0.9,1,0,1.8,0.3,2.6c0.6,1.3,1.4,2.5,2,3.8c0.6,1.2,1.1,2.4,1.7,3.5
		c-1.6,1.5-3.4,1.2-5.2,1.3c-3-2.7-5.4-6.1-8.6-8.7c-0.3,0.5-0.6,0.9-0.5,1c0.3,0.6,0.8,1.2,1.3,1.7c1.4,1.6,2.9,3.1,4.4,4.7
		c0.4,0.4,0.7,0.9,1.2,1.6c-3.2,0.4-6.1,0.8-9.8,1.3c4.1,0.6,7.4,0.2,10.7-0.2c1.9,1.4,3.1,3.4,4.6,5.1c1,1.1,2.2,2.2,3.2,3.3
		l-0.1,0C672.8,484.4,672.6,483.4,672.2,482.5c-1.6-1.7-3-3.5-4.3-5.6c1.5-0.8,2.9-1.3,4.6-0.8c0.4,1.4,0.7,2.9,1.1,4.2
		C673.1,481.2,672.2,481.6,672.2,482.5z"/>
	<path d="M530.4,461.7c0.6,0.8,1.5,0.8,2.3,0.7c2.2-0.3,4.5-0.6,6.7-1.1c2.7-0.6,5.3-1.5,8-1.9c2.7-0.4,5.4,0.3,8.1,0.3
		c2.7,0,5.5,0,8.2,0.5c6.1,1.2,11.1,4.2,14.6,9.4c0.7,1,1.2,2,1.9,3c0.8-0.4,0.6-1,0.5-1.5c-0.5-2.9-2.2-5.2-4.3-7.3
		c-2-1.9-4.3-3.4-6.9-4.4c-3.2-1.2-6.5-2.3-10.1-2.2c-1.4,0-2.9-0.1-4.3-0.1c-3.5,0-6.8,0.4-10.2,1.3c-3.9,1.1-7.9,1.8-11.8,2.6
		c-0.9,0.2-1.8,0.5-2.8,0.7L530.4,461.7z"/>
	<path d="M685.4,446.5c0.1,1.7,0.2,3.5,0.3,5.5c-2.9-1.2-5.2-3.2-7.7-4.6c-0.7,0.4-0.4,0.9,0,1.1c1.6,1.1,3.2,2.1,4.8,3.1
		c1,0.6,2,1.2,3.1,1.8c0.9,3.5-0.4,6.3-2.3,9.3c-0.6-0.5-1.2-0.8-1.7-1.3c-2.5-2.4-4.9-4.8-7.3-7c-1.1,0.3-0.7,1-0.9,1.5
		c0.5,0,0.7,0.2,0.8,0.7c0.5,0,0.7,0.2,0.7,0.7c2.3,1.3,5.2,4,7.2,6.6c-0.1,0.9-0.5,1.5-1.5,1.8c-2-2.5-3.8-5.1-5.6-7.8
		c-0.1-0.2,0-0.5-0.1-0.7c-0.5,0-0.7-0.2-0.7-0.7c-0.3-0.2-0.5-0.5-0.8-0.7c-0.8-0.4-1.6-0.9-2.5-1.5c0,0.6-0.2,1,0,1.2
		c1.8,3.6,4.2,6.8,6.8,9.9c1.5,1.7,2.5,3.9,4.7,4.9c0.4-1.3-0.9-2.1-0.9-3.7c0.4-0.4,0.9-0.9,1.5-1.5c1,0.5,1.8,1,2.6,1.4l0,0
		c-0.4-0.8-0.8-1.7-1.2-2.7c1.7-2.8,3.1-6,2.7-9.6C687.1,451.8,686.8,449,685.4,446.5L685.4,446.5z"/>
	<path d="M269.1,350c-1.8,0.1-2.7,1.8-4.4,2.6c-0.1-0.7-0.1-1.3-0.2-2.1c-0.3,0.2-0.7,0.3-0.8,0.5c-0.6,0.9-1.1,1.9-1.6,2.8
		c-3.2,6.3-7.4,12-12.2,17.1c-1.6,1.7-3.3,3.4-5,5.1c-1.1,1.1-1.7,2.3-1.6,3.8c0.1,1.3-0.5,2.3-1.3,3.2c-1.3,1.7-2.6,3.4-3.8,5.2
		c-0.3,0.5-0.7,0.9-0.6,1.7c0.4-0.1,0.8-0.1,1-0.3c1.8-2.1,3.6-4.2,5.3-6.3c0.8-1,1.2-2.1,0.9-3.3c-0.4-1.5,0.4-2.3,1.3-3.4
		c1.5-1.7,3.3-2.9,4.9-4.5c3.5-3.5,6.6-7.2,9.2-11.4c1-1.6,2.2-3,3.6-4.4c1.7-1.5,3.1-3.3,4.6-5C268.8,351.1,268.8,350.4,269.1,350
		L269.1,350z"/>
	<path d="M258.9,336.4c-0.1-0.6,0-1.4-0.3-1.6c-1.5-0.9-2.4-2.3-3.5-3.5c-6.2-6.9-11.7-14.5-16.6-22.3c-0.8-1.2-1.7-2.3-2.6-3.4
		c-0.3-0.3-0.7-0.5-1.3-0.8c-0.3,1.4,0.1,2.3,0.7,3.2c3.4,5.3,6.7,10.7,10.7,15.6c2.8,3.5,5.9,6.8,8.9,10.3
		C255.9,335.1,257.2,336,258.9,336.4L258.9,336.4z"/>
	<path d="M223.2,412.3c-0.6,0.3-1.4,0.4-1.9,0.8c-3.9,3.1-8.4,4.8-13.4,5.3c-1.8-1.7-1.8-1.7-3.9-1.5c-2.8,0.3-5.6,0.6-8.5,1.1
		c-0.9,0.1-1.8,0.6-2.7,0.9c0,0,0.1-0.1,0.1-0.1c2.2,1.3,4.5,2.4,7.2,2.2c3.3-0.2,6.7-0.5,9.9-1.2c1.6-0.4,3.3-0.6,4.9-1.1
		C218.7,417.7,221.5,415.7,223.2,412.3C223.2,412.2,223.2,412.3,223.2,412.3z"/>
	<path d="M193.7,411c0.5,0.1,1.1,0.2,1.8,0.3c-0.1-0.3-0.1-0.7-0.3-0.9c-2-2.8-4-5.6-6.9-7.6c-0.7-0.4-1.3-1.1-1.6-1.8
		c-1.3-2.7-3.5-4.4-6.1-5.7c-0.6-0.3-1.2-0.7-2-1.1c-0.1,0.6-0.2,1-0.3,1.5c1,0.6,1.9,1.2,2.8,1.7c2.1,1.3,3.6,3,4.3,5.4
		c0.5,1.7,1.2,3.3,2.7,4.5c0.5,0.3,0.7,0.9,1,1.5c0.7,1.2,1.4,2.5,2.2,3.7c0.5,0.8,1.2,1.5,1.6,2.4c0.3,0.7,0.5,1.5,0.8,2.6
		C194.9,414.8,194.3,412.9,193.7,411c-0.1-0.6-0.3-1.1-0.5-1.6c-0.3-0.2-0.5-0.5-0.8-0.7c-0.2-0.2-0.5-0.5-0.7-0.7
		c-1.5-0.4-2.1-1.4-2.1-2.9c-0.6,0.2-0.8-0.1-0.8-0.6c-0.1,0-0.2,0-0.3-0.1c0,0,0-0.1-0.1-0.2c0.1,0.1,0.2,0.2,0.3,0.4
		c0.3,0.2,0.5,0.4,0.8,0.6c1.1,0.7,1.8,1.6,2.1,2.9c0.2,0.2,0.5,0.5,0.7,0.7c0.3,0.2,0.5,0.5,0.8,0.7
		C193.3,409.9,193.5,410.4,193.7,411z"/>
	<path d="M209.7,336.4c-1,0.3-1,1.3-1.2,2c-1.4,4.2-2.3,8.5-2.5,12.9c-0.3,6.5-0.5,13.1-0.7,19.6c0,2.1-0.2,4-1.6,5.6
		c-0.3,0.3-0.2,0.8-0.4,1.5c0.6-0.5,1-0.8,1.3-1.1c0.2,0.2,0.4,0.3,0.5,0.4c0.1,1.1,0.2,2.1,0.3,3.2c0,0.2,0.4,0.4,0.7,0.8
		c0.3-9.7,0.4-19.1,0.8-28.6c0.2-4.8,1-9.5,2.2-14.1C209.4,338,209.5,337.1,209.7,336.4L209.7,336.4z"/>
	<path d="M655.2,459.4c-0.9-0.9-2.1-1.7-2.7-2.8c-1.7-3.5-1.4-6.9,0.8-10.1c0.7-1.1,1.7-1.9,3.5-1.5c-1.6-1.8-2-1.9-3.4-1.5
		c-1.3,0.5-2.3,1.4-2.9,2.5c-1.9,3.4-2.3,7-0.8,10.7c0.4,1,1.1,1.9,1.8,2.6c1.2,1.2,1.9,1.2,3.7,0L655.2,459.4z"/>
	<path d="M276.2,524c-5.3,0-10.3-1.5-15.1-3.6c-0.9-0.4-1.8-0.6-2.7-0.8c-2.6-0.5-5.1-1-7.6-1.5c-0.6-0.7-1-1.3-1.5-2
		c-0.4,0.7-0.7,1.3-1,2.1c0.5,0.3,0.9,0.6,1.3,0.7c2.3,0.5,4.6,1.1,7,1.6c1.9,0.4,3.7,0.6,5.4,1.7c0.8,0.5,1.8,0.7,2.7,1
		c2,0.6,4.1,1.4,6.2,1.9c1.8,0.4,3.7,0.6,5.5,0.8C277.2,525.1,276.5,524.5,276.2,524L276.2,524z"/>
	<path d="M716.5,526.2c-0.4-0.2-0.7-0.6-1.1-0.7c-0.8-0.2-1.6-0.3-2.5-0.2c-3,0.1-5.9-0.6-8.6-1.9c-3.7-1.7-7.7-2.5-11.6-3.3
		c-0.3-0.1-0.6,0.2-0.8,0.3c-0.1,0.7,0.4,1,0.8,1.1c1,0.3,2,0.6,3.1,0.9c3,0.6,5.9,1.6,8.8,2.9c2.3,1,4.7,1.7,7.2,1.6
		c1.5,0,3,0,4.5,0C716.4,526.6,716.5,526.4,716.5,526.2z"/>
	<path d="M246.6,522.4c0.7,0.5,1.1,0.8,1.5,0.9c1.4,0.4,2.8,0.7,4.1,1.1c2.4,0.8,4.7,1.5,7.1,2.4c2.4,1,4.9,1.7,7.6,1.7
		c1.5,0,3,0.2,4.5,0.3c0.6-0.6,0.4-1.2-0.2-1.3c-1-0.3-2.1-0.6-3.1-0.5c-3.2,0.1-6.1-0.7-8.9-2c-3.6-1.6-7.4-2.4-11.3-3.1
		C247.5,521.9,247.3,522.1,246.6,522.4z"/>
	<path d="M605.8,500.4c-1.3-0.4-2.7-0.3-3.8,0.3c-2.4,1.3-5,1.4-7.5,2c-1.3,0.3-2.7-0.1-4.1-0.3c-0.2,0.6,0.3,1.3,0.8,1.6
		c0.5,0.4,1.3,0.6,2,0.6c1.9,0.2,3.5-0.5,5-1.5c3.2,2,6.6,2.6,10.2,2.6c-2.6-1.3-5.3-2.3-8.8-3c1.7-0.4,2.7-0.7,3.8-1
		C604,501.6,605.1,501.4,605.8,500.4L605.8,500.4z"/>
	<path d="M227.1,408.8c4.9-2.8,7.4-7.3,8.9-12.4c0.5-1.6,0.4-3.3-0.1-5c-0.9,0.9-1.1,1.9-1.5,2.9c-0.6,1.8-1.2,3.6-2,5.3
		c-1.2,2.7-2.7,5.3-5,7.3C226.9,407.4,227,407.5,227.1,408.8z"/>
	<path d="M741,373.4c1.7,0.9,3.3,1.8,5,2.7c1.9,1,3.8,2,5.7,3c0.5,0.3,1.1,0.5,1.7,0.6c0.3,0,0.7-0.2,0.9-0.4c0.2-0.2,0.2-0.7,0.1-1
		c-0.5-1.2-1.5-1.8-2.6-2.4C748.5,373.9,745,373.1,741,373.4z"/>
	<path d="M558.6,504.6c1.3,1.2,2.7,0.5,4,0.4c1.5-0.2,3.1-0.1,4.4-1.1c1.1-0.8,2.2-1.8,3.3-2.6c1,0.4,2,0.9,3,1.2
		c0.6,0.2,1.4,0.2,2.2,0.2c-1-1.1-2.8-2.3-4-2.3c-1.9-0.1-3.8-0.3-5.4,1.1c-1.5,1.4-3.4,1.7-5.3,1.7
		C559.7,503.2,559.7,503.2,558.6,504.6z"/>
	<path d="M125.4,502.9c1.7,1.1,3.4,1.5,5.7,1.6c-2.4-1.8-4.5-2.9-7.1-2.6c-0.8,0.1-1.7,0.4-2.3,0.9c-1.7,1.4-3.7,2-5.9,2
		c-0.5,0-1.1,0.3-1.6,0.6c-0.2,0.1-0.3,0.6-0.6,1c2.2,0.9,4.3,0.3,6.3,0C122.3,506.1,123.7,504.5,125.4,502.9z"/>
	<path d="M725.8,414.8c-1.7,1.2-4.4,4.8-6.6,8.7c-1.9,3.3-3.4,6.8-3.8,11.5c2.7-6.5,5.7-12,9.5-17c0.5-0.7,0.9-1.4,1.2-2.2
		C726.1,415.6,725.9,415.2,725.8,414.8z"/>
	<path d="M698.8,370.2c-1.1,1.1-1.6,1.9-1.5,2.9c0.4,3.5,1.2,6.8,3.3,9.7c0.1,0.2,0.4,0.2,0.9,0.5c-0.3-2.3-0.8-4.4-1.2-6.5
		C699.8,374.7,699.4,372.7,698.8,370.2z"/>
	<path d="M480.1,460.3c0.4-0.8,0.3-1.6-0.3-2.3c-1.4-1.5-1.6-3.3-1.4-5.3c0.1-1.1,0-2.1,0-3.2c0-0.6-0.5-1.1-1.2-1.1
		c-0.7,0-1.1,0.5-1.1,1.1c-0.2,2.7,0.1,5.4,1.2,8C477.9,459.1,477.9,459.1,480.1,460.3z"/>
	<path d="M241.2,380.8c-2.4-2.4-4.1-5-5.5-7.7c-1.5-2.7-2.7-5.5-4.3-8.8c0,1-0.1,1.5,0,1.9c1.1,4.4,3.2,8.4,6,12
		c0.7,0.9,1.7,1.7,2.6,2.4C240.2,380.8,240.8,380.7,241.2,380.8z"/>
	<path d="M705.9,458c1.5-2,2.1-4.4,3.1-6.7c1-2.5,2.1-5,3.2-7.7c-0.2-0.7-0.9-0.7-1.3-0.2c-0.8,0.9-1.5,1.9-1.9,3
		C707.4,450.1,706.4,454,705.9,458L705.9,458z"/>
	<path d="M268.5,321.4c3.8-1.3,6.6-3.1,8.7-5.9c0.2-0.3,0.2-1,0-1.3c-0.2-0.3-0.8-0.2-1.3-0.3c-0.1,0-0.2,0-0.3,0.1
		C272.9,315.9,270.5,318,268.5,321.4z"/>
	<path d="M711,342.8c-0.1-1-0.9-1.3-1.5-1.8c-2.8-2.1-5.9-3.4-9.2-4.5c-0.3-0.1-0.7,0-1,0.1c-0.1,0-0.2,0.1-0.2,0.2
		c0,0.2,0,0.6,0.1,0.6C703,339.5,706.8,341.7,711,342.8L711,342.8z"/>
	<path d="M582.1,436.5c-1.7-3.2-4.7-4.4-8.2-4.8c-0.2,0-0.5,0.1-0.7,0.2c-0.2,0.1-0.4,0.3-0.5,0.5c-0.1,0.2,0,0.4,0,0.9
		c3.2,0.6,5.9,2.7,9.2,3.3L582.1,436.5z"/>
	<path d="M667,458.3c-0.8-2.6-2.3-4.6-5.3-6.6c-0.8,0.1-0.9,0.6-0.8,1.2c0.1,0.6,0.3,1.2,0.6,1.6c1,1.6,2.3,2.9,4,3.9
		C666,458.8,666.5,458.9,667,458.3z"/>
	<path d="M218.8,369.3c0-0.4,0.1-0.7,0-1.1c-1.3-4.8-1.2-9.6,0-14.4c0.1-0.6,0.1-1.2,0.1-1.8l0.1,0.1c-0.2,0.2-0.6,0.4-0.7,0.7
		c-1.3,4.5-1.7,9-0.7,13.7C217.8,367.5,218,368.6,218.8,369.3L218.8,369.3z"/>
	<path d="M145.9,504.6c-0.3,1,0.2,1.5,1.1,1.8c1.5,0.5,3,0.3,4.4-0.3c1-0.5,2.1-1,3.1-1.5l-0.1,0.1c0-0.3,0-0.5,0-0.8l0.1,0.1
		c-0.7,0-1.5-0.2-2.1,0C150.2,504.8,148,504.7,145.9,504.6L145.9,504.6z"/>
	<path d="M613.6,443c-0.4-1.1-0.7-2.3-1.1-3.4c-0.4-1-0.9-2-1.2-3c-0.3-1-0.4-2.1-0.6-3.1c-0.8-0.3-1.2,0.3-1.2,0.8
		c0,1,0,2.1,0.3,3.1C610.5,439.7,611.7,441.6,613.6,443L613.6,443z"/>
	<path d="M482.2,449.8c-0.6,0.1-1.3,0.3-1.8,0.4c-0.7,1.1,1,4,3,5.5C483.7,452.5,483.5,451.6,482.2,449.8z"/>
	<path d="M297,320.6c-0.4-0.5-0.7-1.2-1.3-1.6c-1.5-1.2-3.3-2-5.2-2.4c-0.6-0.1-1.1,0.2-1.4,1C291.7,318.9,294.1,320.3,297,320.6
		C297,320.5,297,320.6,297,320.6z"/>
	<path d="M154.5,504.6c-0.1,0.3-0.1,0.7-0.2,1.3c3.1,1.1,6.1,2.3,10.1,1.4C160.7,506.4,157.6,505.5,154.5,504.6
		C154.4,504.7,154.5,504.6,154.5,504.6z"/>
	<path d="M709.5,430.1c-3,2.6-6.5,7.2-7.7,10.1c0,0-0.1-0.1-0.1-0.1c0.3-0.2,0.7-0.3,0.9-0.5c2.3-2.8,4.6-5.6,6.8-8.4
		c0.2-0.3,0.3-0.6,0.4-1L709.5,430.1z"/>
	<path d="M448.8,75.2c-2.2-1.5-4.3-3.3-7.5-3.1c0.2,0.5,0.2,0.9,0.4,1.1C444,74.3,446.3,75.2,448.8,75.2z"/>
	<path d="M886.3,70.8c2.7,1.9,4.2,2.4,7.3,2.4c-2.1-1.7-4.2-2.7-6.6-3.1c-0.1,0-0.2,0-0.3,0.1C886.5,70.4,886.4,70.6,886.3,70.8z"/>
	<path d="M536.2,483.9c-0.7-1.6-2.3-2.2-3.3-3.4c-3.4,1.2-3.6,1.4-2.7,3.6c1.2-0.3,0.6-2,2-2.4c0.8,0.5,1.6,1.2,2.5,1.7
		C535.1,483.7,535.7,483.7,536.2,483.9L536.2,483.9z"/>
	<path d="M150.2,392.2c2.1,2.6,4.7,4.6,7.2,6.8c0.2,0.2,0.6,0.2,1.2,0.4c-0.2-0.5-0.2-0.9-0.3-1c-2.3-1.9-4.6-3.8-6.9-5.6
		C151.1,392.4,150.5,392.4,150.2,392.2L150.2,392.2z"/>
	<path d="M142.9,445.9c-1.4,0.5-2.3,1.9-3.9,2.3c-1.3,0.4-1.3,1.8-1.6,2.8c0.4,0.5,0.9,0.7,1.2,0.2c0.9-1.4,1.9-2.6,3.4-3.4
		C142.7,447.5,143.3,446.8,142.9,445.9L142.9,445.9z"/>
	<path d="M887.8,79.8c-0.8,0.7-0.6,1.3-0.3,1.5c0.8,0.5,1.6,1,2.5,1.3c1.2,0.4,2.5,0.5,4.5,0.8C891.8,82,889.8,80.9,887.8,79.8z"/>
	<path d="M276.1,287c-0.2-0.2-0.3-0.5-0.5-0.5c-1.9-0.1-3.8-0.2-5.7-0.3c-0.6,0-1.1,0.3-1,1.2C271.4,288.3,273.8,287.4,276.1,287
		C276.2,286.9,276.1,287,276.1,287z"/>
	<path d="M131.4,464.8c2.6-1.1,4.1-2.2,5.1-4c-0.9-0.7-1.5,0-2,0.3C133.4,461.8,132.1,462.6,131.4,464.8z"/>
	<path d="M448.8,84.9c-2-1.2-4-2.3-6-3.4c-0.6,0.6-0.7,1.2-0.2,1.6c0.5,0.4,1.1,0.9,1.8,1C445.9,84.4,447.4,84.6,448.8,84.9
		L448.8,84.9z"/>
	<path d="M121.8,457.5c-1.4,1.2-1.7,2.5-1.3,4c0.1,0.2,0.5,0.5,0.8,0.5c0.3,0,0.7-0.3,0.8-0.5C123,460.2,122.6,459,121.8,457.5z"/>
	<path d="M715.2,422.9c-2.3,2.1-4.2,4.5-5.7,7.1l0.2,0.2c2.3-2,4.5-4.7,5.7-7.2L715.2,422.9z"/>
	<path d="M154.4,503.9c2.4,0.3,4.6-0.1,6.7-1.6C158.6,501.8,158.2,501.9,154.4,503.9L154.4,503.9z"/>
	<path d="M236.1,520.4c1.4,1.5,3.2,2.3,4.9,3.3c0.7-0.3,1-0.7,0.5-1.2C240,521.2,238.2,520.3,236.1,520.4L236.1,520.4z"/>
	<path d="M656.8,439.1c0.8,0.7,1.5,1.4,2.2,2.1c0.7,0.6,1.4,1.2,2.2,1.9c0.2-0.5,0.4-0.9,0.3-1.1c-1-1.7-2.3-2.9-4.3-3.2
		C657.2,438.8,657.1,438.9,656.8,439.1z"/>
	<path d="M681.1,518.6c1.4,1.5,3,2.4,4.7,3.1c0.2,0.1,0.5-0.2,0.9-0.4C685,519.5,684.6,519.2,681.1,518.6z"/>
	<path d="M427.7,171.2c2.3,1.3,4.6,1.2,7,0.5c-1.9-0.2-3.7-0.5-5.6-0.7C428.6,171,428.1,171.1,427.7,171.2z"/>
	<path d="M114.8,477.1c0.6-0.9,0.3-1.6-0.4-2.2c-1.1-0.9-2.1-2.1-4.1-1.6C112,474.7,113.4,475.9,114.8,477.1z"/>
	<path d="M193.6,516.4c1.9,0.6,3.7,0.4,5.6-0.7C196.6,515.1,194.8,515.3,193.6,516.4z"/>
	<path d="M168.3,440.6c1.6-2,1.6-2,2.1-7c-1.2,0.9-0.8,2.2-1,3.3C169.1,438,168.8,439.1,168.3,440.6z"/>
	<path d="M721.4,524.7c-1,1-1.8,2-2.7,3c1.6,0.5,2.1,0.4,3.1-1.2C722.1,526.1,722.8,525.3,721.4,524.7z"/>
	<path d="M584.2,438.8c0.1,1.2,0.1,2.4,0.2,4.4c0.8-1.2,1.3-1.9,1.6-2.6c0.3-0.5,0.3-1.3-0.3-1.6c-0.4-0.2-1.1-0.1-1.6-0.1
		C584.1,438.9,584.2,438.8,584.2,438.8z"/>
	<path d="M878.6,170.1c-2-0.6-4-0.9-6.8-0.4C874.5,170.5,876.5,170.7,878.6,170.1z"/>
	<path d="M136.7,443.9c-1.3,0.6-1.7,1.4-2,2.3c-0.1,0.5,0.1,1,0.6,1.1c0.3,0.1,0.7,0,0.9-0.3C136.9,446.2,137.1,445.2,136.7,443.9z"
		/>
	<path d="M86.4,483.1c0.6,0.3,1.3,0.5,1.8,0.9c1.5,1.1,2.9,2.3,4.7,2.7l-0.1,0.1c-1-2-3-2.9-4.6-4.2
		C87.7,482.2,86.8,482.4,86.4,483.1L86.4,483.1z"/>
	<path d="M596,467.4c1.7-2.2,2-2.8,2-5.4C596.9,462.9,596.8,463.2,596,467.4z"/>
	<path d="M105.7,418.6c1.8-0.1,3.4-0.7,4.8-1.4c0.2-0.7-0.1-1.2-0.5-1.1C108.3,416.4,106.5,416.8,105.7,418.6L105.7,418.6z"/>
	<path d="M684.5,488.9c-0.2-2.1-1.3-3.7-2.3-5.4c-0.1-0.1-0.4,0-0.6,0c0.7,2.7,1.2,3.7,2.7,5.3C684.3,488.9,684.5,488.8,684.5,488.9
		L684.5,488.9z"/>
	<path d="M570.1,483.7c-2.1-0.6-3.9-0.2-5.5,1.3c0.4,0.2,0.7,0.4,0.8,0.3C567,484.8,568.5,484.2,570.1,483.7z"/>
	<path d="M183.2,383c-0.3,0.1-0.7,0.2-0.9,0.4c-1.3,1.4-2,3.1-3.3,5.3C181.3,386.8,181.6,386.3,183.2,383L183.2,383z"/>
	<path d="M682.8,440.8c0-2.6,0-5.1,0-7.7c-0.1,0-0.1,0-0.2,0c0,2.6,0,5.1,0,7.7C682.7,440.8,682.8,440.8,682.8,440.8z"/>
	<path d="M120.2,487.3c1.5-0.5,3.1-1,4.6-1.6c0.1-0.7-0.4-0.8-0.9-0.7C122.4,485.3,120.9,485.5,120.2,487.3z"/>
	<path d="M242.4,365c0.1,2.3,0.4,4.3,1.9,6.1c0.1-0.6,0.3-0.8,0.2-1C243.9,368.4,243.2,366.7,242.4,365z"/>
	<path d="M295.6,304.1c0-1.8-0.5-3.4-2-5.1C293.2,301.4,293.9,302.9,295.6,304.1L295.6,304.1z"/>
	<path d="M735,370.5c-1.6-0.9-3-2.2-5.2-1.8C732.4,370.5,732.5,370.5,735,370.5z"/>
	<path d="M517.7,477.5c-2.1,0.1-3.5,1.7-6.2,2.1C514.2,480.4,515.7,479.7,517.7,477.5L517.7,477.5z"/>
	<path d="M516.2,463.2c-0.6,0.1-1.2,0.1-1.7,0.3c-1.3,0.7-2.6,1.5-3.7,2.6c0.4,0.7,0.8,0.5,1.1,0.2
		C513.4,465.3,514.8,464.2,516.2,463.2L516.2,463.2z"/>
	<path d="M653.6,484.9c0.4-2,0.1-3.2-0.8-4.2c-0.2-0.2-0.6-0.2-0.9-0.2c-0.1,0-0.3,0.4-0.3,0.6C651.8,482.3,652.4,483.4,653.6,484.9
		z"/>
	<path d="M643.5,514.1c0-0.1,0-0.3,0-0.3c-0.2-0.1-0.4-0.4-0.6-0.3c-1.5,0.2-3,0.4-5,0.7C640.9,515.1,640.9,515.1,643.5,514.1z"/>
	<path d="M276.9,526.2c-1.1,1.5-1.9,2.5-2.6,3.6c0.4,0.4,1.2,0.1,1.8-0.4C276.8,528.7,277.7,528.1,276.9,526.2z"/>
	<path d="M702.1,341.6c2.5,1.7,2.8,1.7,4.1,0.8C705,341.4,703.7,341.4,702.1,341.6z"/>
	<path d="M519,474.7c1.7,0.1,2.5-0.7,3.2-1.8c-0.4-0.6-0.9-0.5-1.3-0.1C520.2,473.4,519.6,474,519,474.7z"/>
	<path d="M892.6,61c1.8,0.4,3,0.7,4.6,1C895,60,894.3,59.8,892.6,61z"/>
	<path d="M129.4,484.4c1.4,0.1,2.7,0.4,4.2-0.8C131.8,483.2,130.6,482.8,129.4,484.4z"/>
	<path d="M661.6,486.7c0.1-1.7,0.1-3.4-1.3-5.5C660.1,483.7,660.3,485.3,661.6,486.7L661.6,486.7z"/>
	<path d="M726.8,367.6c-0.2-0.3-0.4-0.6-0.7-0.8c-0.8-0.6-1.8-0.5-2.7-0.3C724.9,367.9,724.9,367.9,726.8,367.6z"/>
	<path d="M121.8,453.2c-1.1,1.1-0.9,2.1-0.6,3.1c0,0.2,0.4,0.3,0.5,0.3c0.2,0,0.5-0.2,0.6-0.3C122.9,455.3,122.4,454.4,121.8,453.2z
		"/>
	<path d="M664.8,486.4c-0.9,1.8-0.2,3.5-0.3,5.2C665.3,489.1,665.3,489.1,664.8,486.4z"/>
	<path d="M791.9,388.5c-1.6-1.9-1.9-1.9-3.4-0.2c0.6,0.1,1.1,0.3,1.7,0.4C790.6,388.7,791,388.6,791.9,388.5z"/>
	<path d="M351.4,385.4c0.8,0.9,1.6,1.8,2.3,2.7c1-1,0.4-1.6-0.1-2.2C353,385.1,353,385.1,351.4,385.4z"/>
	<path d="M135.7,505.9c1.6,0.2,2.5,0.2,3.4,0.3c-0.1-0.4,0-0.8-0.1-0.8C137.3,504.6,137.3,504.7,135.7,505.9z"/>
	<path d="M231,516.9c-0.3-0.3-0.5-0.8-0.9-0.9c-1.1-0.3-2.3-0.4-3.4-0.3C228.2,516.2,229.6,516.7,231,516.9L231,516.9z"/>
	<path d="M169.6,428.2c0.1,1.2,0.2,2.1,0.2,3c0.8,0.1,1-0.2,1-0.7C170.9,429.6,170.9,428.8,169.6,428.2z"/>
	<path d="M448.3,62.3c1,1,1,1,3.7,1.2c0-0.2,0-0.5-0.1-0.5c-1-0.4-2-0.7-3-1C448.7,61.9,448.5,62.2,448.3,62.3z"/>
	<path d="M276.2,286.9c1.1,0.9,2.4,1.1,4.3,1.4C278.9,286.5,277.7,286.2,276.2,286.9L276.2,286.9z"/>
	<path d="M711,348.5c-1.6,0.1-2.8,1.1-3.9,2.4C709.3,350.3,709.3,350.3,711,348.5L711,348.5z"/>
	<path d="M346.4,380.8c-0.9-2.5-0.9-2.5-2.9-3.3C344.2,379.1,344.2,379.1,346.4,380.8z"/>
	<path d="M188.5,515.9c-0.4-0.1-0.8-0.2-1.2-0.2c-0.3,0-0.6,0.2-0.8,0.3c0.1,0.7,0.7,0.6,1.1,0.6c0.3,0,0.6-0.1,1-0.2
		C188.5,516.2,188.5,516,188.5,515.9z"/>
	<path d="M584.2,504.1c-0.8-1.2-1.9-1.1-3.1-0.9C582.1,504.6,582.1,504.6,584.2,504.1z"/>
	<path d="M576.8,502.3c0.7,1.5,1.7,1.7,2.7,1.9C578.9,502.9,578.9,502.9,576.8,502.3z"/>
	<path d="M689.5,471c-0.3-1.7-1.3-2.8-2.8-3.6c0,0,0.1-0.1,0.1-0.1C687.3,469.1,687.6,469.5,689.5,471L689.5,471z"/>
	<path d="M190.6,350.1c0,1.3,0,2.5,0,3.8c0,0,0.1,0,0.1,0c0-1.2,0-2.5,0-3.7C190.6,350.2,190.6,350.2,190.6,350.1z"/>
	<path d="M695.8,359.7c-0.6,1.3,0,2.3,0.3,3.7C696.7,361.1,696.7,361.1,695.8,359.7z"/>
	<path d="M683.3,426.2c0,0.9,0,1.9,0,2.9c0,0,0.1,0.1,0.2,0.2c0-1.1,0-2.1,0-3.2C683.4,426.1,683.4,426.2,683.3,426.2z"/>
	<path d="M677.2,352c0.6-0.8,1.2-1.5,2-2.5C677.8,350,677.8,350,677.2,352z"/>
	<path d="M644.8,490.6c-0.9,0-1.7-0.1-3.3-0.2C643,491.1,643.8,491.7,644.8,490.6z"/>
	<path d="M135.2,506c-0.9-1.2-1.6-2-3-1.7C132.7,505.5,133.6,505.9,135.2,506z"/>
	<path d="M707.1,410.9c0.7-0.8,1.2-1.5,0.7-2.6C706.7,409,706.8,409.9,707.1,410.9z"/>
	<path d="M117.2,481c0.1-1.7-1.1-2.3-2.7-3.1C115.4,479.9,115.4,479.8,117.2,481L117.2,481z"/>
	<path d="M783.6,387.7c0.9,0.1,1.7,0.2,2.2,0.2c0.6-0.7,0.2-1.1-0.1-1.3C784.9,386.3,784.2,386.4,783.6,387.7z"/>
	<path d="M86.4,483.2c-1.7,0.7-1.8,0.8-1,2.8C86.3,485.1,86.5,484.2,86.4,483.2L86.4,483.2z"/>
	<path d="M672.5,513.8c0,0.1,0,0.3,0.1,0.3c1.4,0.5,2.7,1.2,4.2,1.1l-0.1,0.1c-0.6-1-1.4-1.4-2.5-1.4C673.5,514,673,514,672.5,513.8
		L672.5,513.8z"/>
	<path d="M779,385.3c-0.2,0.1-0.5,0.2-0.5,0.3c-0.1,0.2,0,0.5,0.1,0.6c0.5,0.4,1,1,1.8,0.5c0.1,0,0.1-0.2,0.1-0.3
		C780.4,385.9,779.8,385.4,779,385.3z"/>
	<path d="M634.5,514.1c-1.6,0-2.6,0-3.6,0C631.9,514.8,632.9,514.9,634.5,514.1z"/>
	<path d="M714.1,363c-0.6-0.4-0.9-0.7-1.2-0.8c-0.2,0-0.5,0.3-0.7,0.5c0.2,0.2,0.4,0.5,0.7,0.6C713.1,363.4,713.4,363.2,714.1,363z"
		/>
	<path d="M96.4,431.6c1.4-0.4,1.7-1.7,2.2-2.8l0.1,0.1C97.4,429.3,96.7,430.3,96.4,431.6L96.4,431.6z"/>
	<path d="M250.3,305.8c0.5,0.1,0.9,0.3,1.1,0.2c0.3-0.1,0.5-0.5,0.6-0.8c0.1-0.2-0.1-0.6-0.3-0.8c0,0-0.5,0-0.6,0.2
		C250.9,304.8,250.7,305.2,250.3,305.8z"/>
	<path d="M301.9,325.1c-0.5-0.5-1.1-1.1-1.8-1.8C299.9,324.7,299.9,324.7,301.9,325.1z"/>
	<path d="M574.2,482.2c1.5,0.4,2.7,0.4,4.2-0.2C576.8,481.5,575.7,481.3,574.2,482.2z"/>
	<path d="M188.9,395.8c-1-0.3-1.8,0.1-2.6,1.1C187.6,397.3,188.3,396.8,188.9,395.8L188.9,395.8z"/>
	<path d="M688.1,516.2c1.2,1.1,1.2,1.1,2.1,0.8C689.7,516,688.9,516.2,688.1,516.2L688.1,516.2z"/>
	<path d="M149.5,434.3c-0.2,0.4-0.4,0.8-0.5,1.3c0,0.1,0.2,0.4,0.3,0.6c0.2-0.1,0.5-0.2,0.6-0.4c0.1-0.4,0.1-0.9,0.2-1.3
		C149.8,434.3,149.7,434.3,149.5,434.3z"/>
	<path d="M582,436.7c0.4,1,1.2,1.6,2.2,2.1l-0.1,0.1c0.2-1.5-0.9-1.9-2-2.3L582,436.7z"/>
	<path d="M137.9,440.7c-0.6,0.6-0.9,0.9-1,1.1c-0.1,0.3-0.1,0.6,0,0.9c0,0.1,0.5,0.2,0.6,0.2c0.3-0.2,0.5-0.4,0.6-0.7
		C138.1,441.9,138,441.6,137.9,440.7z"/>
	<path d="M593.5,473.3c0.4-0.4,0.8-0.8,1.3-1.2C593.8,471.9,593.8,471.9,593.5,473.3z"/>
	<path d="M716.5,347.4c-0.1-0.1-0.1-0.2-0.2-0.2c-0.4,0-0.9,0.1-1.3,0.2c0,0.2,0.1,0.4,0.1,0.6c0.4-0.1,0.8-0.1,1.3-0.2
		C716.4,347.7,716.5,347.5,716.5,347.4z"/>
	<path d="M636.2,488.7c-0.2-0.8-0.6-0.9-1.1-0.8c-0.1,0-0.1,0.4-0.2,0.5C635.3,488.5,635.7,488.6,636.2,488.7z"/>
	<path d="M306.2,330.6c0.1-1.6,0.1-1.6-1.1-2C304.9,329.7,305.7,330.1,306.2,330.6L306.2,330.6z"/>
	<path d="M147,453.9c-0.6,0.3-1.2,0.5-1.9,0.8C146.3,455.5,146.8,454.9,147,453.9z"/>
	<path d="M696.9,342.6c0.4,0.1,0.7,0.3,1,0.2c0.3,0,0.5-0.3,0.7-0.5c0.1-0.1-0.1-0.5-0.2-0.5c-0.3-0.1-0.7-0.1-0.9,0
		C697.3,341.9,697.2,342.2,696.9,342.6z"/>
	<path d="M141.6,457.4c-0.5,0.2-0.9,0.4-1.4,0.7c-0.1,0.1-0.2,0.3-0.3,0.5c0.2,0.1,0.5,0.2,0.6,0.2c0.5-0.2,1-0.5,1.4-0.8
		C141.8,457.8,141.7,457.6,141.6,457.4z"/>
	<path d="M264.5,326.4c-0.9,0.6-1.5,1.1-1,2.3C264.2,328.1,264.7,327.7,264.5,326.4z"/>
	<path d="M701.1,392.9c0,1.3,0,2.1,0,3.4C702.3,394.9,701.8,394.1,701.1,392.9z"/>
	<path d="M417.1,252.3c0.8,0,1.5,0,2.3,0c0-0.1,0-0.2,0.1-0.2c-0.3-0.1-0.6-0.2-0.9-0.2c-0.4,0-0.9,0-1.3,0
		C417.2,252,417.2,252.1,417.1,252.3z"/>
	<path d="M230.4,360.7c0.1,0.7,0.2,1.5,0.3,2.5C231.1,362.1,231.1,361.3,230.4,360.7L230.4,360.7z"/>
	<path d="M233.3,518.2c0.4,0.9,1,1.6,2.1,1.3l-0.1,0.1C234.9,518.8,234.2,518.4,233.3,518.2L233.3,518.2z"/>
	<path d="M717.8,364.5c0.2,0.1,0.4,0.2,0.6,0.2c0.1,0,0.2-0.3,0.2-0.5c-0.2-0.1-0.4-0.2-0.5-0.2C717.9,364,717.8,364.3,717.8,364.5z
		"/>
	<path d="M690.3,471.6c-0.1,1.1,0.5,1.7,1.3,2.2l-0.1,0.1C691.6,472.9,691.1,472.2,690.3,471.6L690.3,471.6z"/>
	<path d="M233.2,518.3c-0.6-0.7-1.1-1.5-2.2-1.4l0.1-0.1C231.5,517.8,232.5,517.9,233.2,518.3L233.2,518.3z"/>
	<path d="M682.4,346.5c-0.8-0.3-1.3,0.1-1.7,0.8C681.5,347.5,681.5,347.5,682.4,346.5L682.4,346.5z"/>
	<path d="M580.8,451.1c0.5-1,0.7-1.4,0.9-1.8c0-0.1-0.2-0.4-0.3-0.5c-0.2,0-0.5,0.2-0.5,0.3C580.7,449.6,580.8,450,580.8,451.1z"/>
	<path d="M98.6,488.1c0.5,0.3,1,0.5,1.8,0.9C99.9,487.9,99.6,487.4,98.6,488.1z"/>
	<path d="M284.7,291.2c0.2,0.2,0.5,0.4,0.8,0.5c0.1,0.1,0.4-0.1,0.6-0.2c-0.4-0.2-0.7-0.4-1.1-0.6
		C284.9,290.9,284.8,291.1,284.7,291.2z"/>
	<path d="M614.3,512.8c-0.5,0-1.1,0-1.6,0c0,0.1,0,0.2,0,0.2c0.5,0,1.1,0,1.6,0C614.3,512.9,614.3,512.9,614.3,512.8z"/>
	<path d="M92.8,486.7c0.5,0.4,0.9,0.8,1.6,1.5C94.1,487.1,93.5,486.8,92.8,486.7L92.8,486.7z"/>
	<path d="M364.4,379.9c-0.1,1-0.2,2,0.7,2.8l-0.1,0.1C364.8,381.9,365.3,380.8,364.4,379.9L364.4,379.9z"/>
	<path d="M160.7,430.5c0-0.6,0.1-0.9,0-1.2c0-0.1-0.3-0.2-0.5-0.3c-0.1,0.2-0.2,0.4-0.2,0.6C160.2,429.8,160.4,430,160.7,430.5z"/>
	<path d="M150.8,385c-0.8-0.8-1.8-0.7-2.8-0.7l0.1-0.1c0.8,1,1.8,0.7,2.9,0.7L150.8,385z"/>
	<path d="M165.3,501.3c-0.5,0-1,0-1.5,0c0,0.1,0,0.1,0,0.2c0.5,0,1,0.1,1.5,0.1C165.3,501.5,165.3,501.4,165.3,501.3z"/>
	<path d="M148.2,460.6c0,0.2,0,0.3,0.1,0.4c0,0.1,0.2,0.1,0.2,0.1c0.2-0.2,0.4-0.5,0.6-0.8c0,0-0.1-0.2-0.1-0.3
		C148.7,460.2,148.5,460.4,148.2,460.6z"/>
	<path d="M605.7,472.4c-0.3,0.2-0.6,0.4-0.8,0.6c-0.1,0.1,0,0.4,0,0.6c0.3-0.2,0.6-0.3,0.8-0.5C605.9,473,605.7,472.7,605.7,472.4z"
		/>
	<path d="M715.4,423.1c0.7-0.2,1.1-0.7,1.2-1.5c-0.9,0.2-0.9,0.2-1.4,1.3L715.4,423.1z"/>
	<path d="M706,458.1c-0.8,0.6-0.6,1.4-0.2,2.2C705.8,459.5,705.9,458.7,706,458.1L706,458.1z"/>
	<path d="M607.9,470.2c1-0.2,1.3-0.8,1.1-1.9C608,468.8,607.7,469.4,607.9,470.2L607.9,470.2z"/>
	<path d="M135.9,483.1c0.6,0.2,1.1,0.4,1.7,0.7c0-0.1,0.1-0.3,0.1-0.4C137,483.3,136.4,483.3,135.9,483.1L135.9,483.1z"/>
	<path d="M701.7,440.2c-0.9,0.4-1.3,1.2-1.4,2.2l-0.1-0.1C701,441.8,701.6,441.1,701.7,440.2L701.7,440.2z"/>
	<path d="M680.8,513.4c0.6,0.5,0.9,0.7,1.1,0.9c0.1-0.2,0.1-0.4,0.2-0.6C681.8,513.6,681.5,513.5,680.8,513.4z"/>
	<path d="M526.2,453.1c0.3,0.4,0.7,0.9,1.1,1.5C527.5,453.3,527.5,453.3,526.2,453.1L526.2,453.1z"/>
	<path d="M168.4,514.3c-0.1,0.1-0.2,0.1-0.3,0.2c0.1,0,0.2,0.1,0.3,0.1c0.1,0,0.2,0,0.3-0.1C168.6,514.4,168.5,514.3,168.4,514.3z"
		/>
	<path d="M622.9,452.5c-0.2,0.2-0.3,0.3-0.5,0.4c0.2,0.2,0.5,0.4,0.7,0.7c0.1-0.1,0.2-0.2,0.2-0.3
		C623.3,453,623.1,452.8,622.9,452.5z"/>
	<path d="M620.9,514.2c-0.3,0-0.6,0-0.9,0c0,0.1,0,0.1,0,0.2c0.3,0,0.6,0,0.9,0C620.9,514.3,620.9,514.3,620.9,514.2z"/>
	<path d="M245.8,515.7c0-0.1,0.2-0.2,0.1-0.3c-0.1-0.2-0.3-0.3-0.4-0.5c-0.1,0.1-0.2,0.3-0.2,0.3
		C245.4,515.5,245.6,515.6,245.8,515.7z"/>
	<path d="M579.9,481.4c0.6,0.1,0.8,0.2,1,0.2c0.2,0,0.3-0.2,0.5-0.3c-0.2-0.1-0.4-0.2-0.6-0.2C580.7,481.1,580.5,481.2,579.9,481.4z
		"/>
	<path d="M514.3,454.3c0,0.4,0,0.7,0,1c0.1-0.2,0.2-0.4,0.2-0.7C514.6,454.5,514.4,454.4,514.3,454.3z"/>
	<path d="M672.4,513.9c-0.4-0.4-0.9-0.6-1.4-0.1C671.5,513.8,672,513.8,672.4,513.9L672.4,513.9z"/>
	<path d="M349.2,382.1c-0.2,0.2-0.4,0.3-0.5,0.4c0.2,0.2,0.5,0.3,0.8,0.5c0,0,0.2-0.2,0.2-0.2C349.5,382.6,349.4,382.4,349.2,382.1z
		"/>
	<path d="M626.4,514.4c0.3,0,0.6,0,0.9,0c0-0.1,0-0.1,0-0.2c-0.3,0-0.6,0-0.9,0C626.4,514.3,626.4,514.4,626.4,514.4z"/>
	<path d="M265.6,324.2c0.2,0.1,0.5,0.4,0.5,0.3c0.3-0.2,0.5-0.4,0.7-0.7c-0.2-0.1-0.4-0.3-0.5-0.3
		C266.1,323.8,265.9,324,265.6,324.2z"/>
	<path d="M885.8,115.7c0.3,0.6,0.8,0.6,1.7,0.2C886.7,115.8,886.2,115.8,885.8,115.7C885.7,115.8,885.8,115.7,885.8,115.7z"/>
	<path d="M244,518.2c0.2,1.3,0.8,0.8,1.5,0.1C245,518.3,244.5,518.3,244,518.2L244,518.2z"/>
	<path d="M230.3,360.8c0-0.5,0-1,0-1.8C229.7,359.9,230,360.3,230.3,360.8L230.3,360.8z"/>
	<path d="M616.2,498.7c0.4,0,0.8,0,1.2,0c0-0.1,0-0.2,0-0.2c-0.4,0-0.8,0-1.2,0C616.2,498.5,616.2,498.6,616.2,498.7z"/>
	<path d="M218.9,352.1c0.9-0.5,0.7-1.4,0.7-2.2l0.1,0.1C218.7,350.5,218.8,351.3,218.9,352.1L218.9,352.1z"/>
	<path d="M810.1,382c0,0.3,0.1,0.6,0.1,0.9c0,0,0.1,0,0.1,0c0-0.3-0.1-0.6-0.1-0.9C810.2,382,810.2,382,810.1,382z"/>
	<path d="M365.1,382.8c0.1,0.5,0.1,1,0.2,1.6C365.7,383.7,365.3,383.3,365.1,382.8L365.1,382.8z"/>
	<path d="M683.7,444.5c0-0.5-0.1-1-0.1-1.7C683.1,443.6,683.4,444,683.7,444.5L683.7,444.5z"/>
	<path d="M678.9,516.7c-0.3,0.6,0.1,0.8,0.5,1.1c0.1,0,0.3,0,0.3,0c0-0.2,0.1-0.5,0-0.5C679.5,517,679.2,516.9,678.9,516.7
		L678.9,516.7z"/>
	<path d="M685.6,410c0-0.3,0-0.5,0-0.8c0,0-0.1,0-0.1,0c0,0.3,0,0.5,0,0.8C685.6,410,685.6,410,685.6,410z"/>
	<path d="M604.1,478.8c0.2-0.1,0.4-0.2,0.6-0.3c-0.2-0.1-0.5-0.3-0.7-0.3c-0.2,0-0.3,0.2-0.5,0.4
		C603.7,478.7,603.9,478.8,604.1,478.8z"/>
	<path d="M177.5,509.9c-0.3,0-0.6,0-0.9,0.1c0,0.1,0,0.1,0,0.2c0.3,0,0.6,0,0.9-0.1C177.5,510,177.5,510,177.5,509.9z"/>
	<path d="M617.8,448.3c-0.2-0.2-0.3-0.5-0.5-0.7c-0.1-0.1-0.3-0.1-0.3-0.1c-0.1,0.2-0.2,0.4-0.2,0.5c0.1,0.3,0.3,0.6,0.5,0.8
		C617.5,448.7,617.7,448.5,617.8,448.3z"/>
	<path d="M236.8,515.2c-0.2,0.1-0.3,0.2-0.3,0.2c0.2,0.2,0.4,0.4,0.7,0.6c0,0,0.2-0.1,0.3-0.2C237.2,515.6,237,515.4,236.8,515.2z"
		/>
	<path d="M670.5,378.7c0.1,0,0.1,0.1,0.2,0.1c0-0.1,0.1-0.2,0-0.3c0,0-0.1-0.1-0.2-0.1C670.5,378.5,670.5,378.6,670.5,378.7z"/>
	<path d="M683.7,474.6c0-0.7-0.5-0.5-0.9-0.3C683.1,474.4,683.5,474.5,683.7,474.6L683.7,474.6z"/>
	<polygon points="113.5,471.3 113.5,471.4 113.8,471.4 	"/>
	<path d="M441.6,125.9c0,0.1-0.1,0.1-0.1,0.2c0.1,0,0.2,0.1,0.3,0c0,0,0.1-0.1,0.1-0.2C441.8,126,441.7,126,441.6,125.9z"/>
	<path d="M174.3,516.5c0.1,0,0.2,0.1,0.3,0.1c0.1,0,0.2-0.1,0.3-0.1c-0.1,0-0.2-0.1-0.3-0.1C174.4,516.4,174.4,516.5,174.3,516.5z"
		/>
	<polygon points="874.1,159.8 874.4,159.8 874.4,159.7 	"/>
	<path d="M677.4,516.1c0.5,0.2,1,0.4,1.6,0.6c0,0-0.1,0.1-0.1,0.1c-0.5-0.2-1.1-0.4-1.6-0.6C677.3,516.2,677.4,516.1,677.4,516.1z"
		/>
	<path d="M218.9,504.2c-0.1,0-0.2,0.1-0.3,0.1c0.1,0.1,0.3,0.2,0.4,0.2c0,0,0.1-0.1,0.2-0.2C219.1,504.3,219,504.2,218.9,504.2z"/>
	<path d="M664.1,502.9c0.1,0,0.2,0.1,0.3,0.1c0-0.1,0-0.2,0.1-0.3c-0.1,0-0.2,0-0.3,0C664.1,502.7,664.1,502.9,664.1,502.9z"/>
	<path d="M874.3,266.8c0.1,0.2,0.2,0.4,0.4,0.5c0.1,0,0.3-0.1,0.5-0.2c-0.1-0.1-0.2-0.1-0.3-0.1
		C874.7,266.9,874.5,266.9,874.3,266.8L874.3,266.8z"/>
	<path d="M259.2,285.6c-0.6,0.1-1.3-0.1-1.6,0.6c0,0-0.1-0.1-0.1-0.1C258,285.9,258.6,285.7,259.2,285.6L259.2,285.6z"/>
	<polygon points="198.4,500.7 198.1,500.6 198.1,500.8 	"/>
	<path d="M624,498.6c0.1,0,0.2,0.2,0.3,0.1c0.1-0.1,0.2-0.2,0.2-0.3c-0.1,0-0.2-0.1-0.3,0C624.1,498.4,624.1,498.5,624,498.6z"/>
	<path d="M495.4,481.7c0.3,0,0.6-0.1,1.3-0.2c-0.6-0.2-1-0.3-1.3-0.4c0,0,0.1-0.1,0.1-0.1C495.5,481.2,495.5,481.5,495.4,481.7
		L495.4,481.7z"/>
	<path d="M519.6,482.9c0.1,0,0.2,0.1,0.3,0.1c0.1,0,0.1-0.2,0.1-0.3c-0.1,0-0.2,0-0.3,0C519.6,482.7,519.6,482.8,519.6,482.9z"/>
	<path d="M536.9,484.6c0.5,0.2,1,0.4,1.5,0.6l-0.1,0.1c-0.4-0.6-0.9-0.7-1.5-0.6L536.9,484.6z"/>
	<path d="M245.6,312c0,0.1,0.1,0.2,0.1,0.3c0.1-0.1,0.2-0.3,0.2-0.4c0,0-0.1-0.1-0.2-0.2C245.7,311.8,245.7,311.9,245.6,312z"/>
	<path d="M295.7,304c0,0.2,0,0.4,0,0.7c0,0.1,0.2,0.2,0.3,0.2c0-0.1,0-0.2,0-0.3C295.9,304.4,295.7,304.2,295.7,304
		C295.6,304.1,295.7,304,295.7,304z"/>
	<path d="M544.3,486.7c0.1-0.1,0.2-0.3,0.3-0.4c-0.2-0.1-0.4-0.2-0.6-0.2c-0.1,0-0.2,0.2-0.3,0.4C544,486.5,544.2,486.6,544.3,486.7
		z"/>
	<path d="M661.7,486.6c0,0.3,0.1,0.5,0,0.3C661.8,487.2,661.7,486.9,661.7,486.6C661.6,486.7,661.7,486.6,661.7,486.6z"/>
	<path d="M685.2,490.3c-0.2-0.5-0.5-0.9-0.7-1.4l0.1-0.1C684.5,489.4,684.7,489.9,685.2,490.3L685.2,490.3z"/>
	<path d="M685.3,490.2c0.2,0.5,0.4,1,0.6,1.5c0,0-0.1,0.1-0.1,0.1C685.7,491.3,685.5,490.8,685.3,490.2L685.3,490.2z"/>
	<path d="M496.9,464.1c0.1,0,0.3,0.1,0.4,0.1c0-0.2,0-0.4,0-0.5c0-0.1-0.1-0.1-0.2-0.1C497.1,463.8,497,463.9,496.9,464.1z"/>
	<path d="M519.8,461.7c0.3-0.1,0.6-0.1,0.9-0.2c-0.1-0.1-0.1-0.2-0.1-0.2C520.1,461.1,519.7,461.1,519.8,461.7L519.8,461.7z"/>
	<path d="M261.8,340c-0.2-0.5-0.3-1.1-0.5-1.6c0,0,0.1-0.1,0.1-0.1C261.5,338.9,261.7,339.4,261.8,340
		C261.9,340,261.8,340,261.8,340z"/>
	<path d="M99.3,427.3c-0.2,0.5-0.4,1-0.6,1.5l-0.1-0.1C99.3,428.5,99.2,427.8,99.3,427.3L99.3,427.3z"/>
	<path d="M150.5,431.3c0.1-0.2,0.2-0.4,0.2-0.6c0-0.1-0.1-0.2-0.2-0.2c-0.1,0.2-0.2,0.4-0.2,0.6
		C150.2,431.2,150.4,431.3,150.5,431.3z"/>
	<path d="M235.3,385.1c-0.2-0.5-0.4-1-0.6-1.4c0,0,0.1,0,0.1,0C235,384.1,235.2,384.5,235.3,385.1L235.3,385.1z"/>
	<path d="M137,438.4c0.2,0.1,0.4,0.2,0.6,0.3c0,0,0.1-0.2,0.2-0.3c-0.2-0.1-0.4-0.2-0.6-0.3C137.2,438.1,137.1,438.3,137,438.4z"/>
	<path d="M219.6,349.9c0.8-0.2,0.7-0.8,0.7-1.4l0.1,0.1C219.6,348.8,219.7,349.4,219.6,349.9L219.6,349.9z"/>
	<path d="M577.9,451.7c0.1,0.1,0.3,0.2,0.4,0.2c0-0.2,0.1-0.4,0.1-0.6c0-0.1-0.2-0.1-0.3-0.2C578.1,451.3,578,451.5,577.9,451.7z"/>
	<path d="M220.3,348.5c0.7-0.3,0.6-0.9,0.6-1.5l0.1,0.1C220.8,347.6,220.6,348.1,220.3,348.5L220.3,348.5z"/>
	<path d="M145.8,443.1c-0.2,0.1-0.3,0.2-0.5,0.3c0.1,0.1,0.2,0.3,0.2,0.3c0.2-0.1,0.4-0.2,0.6-0.3
		C145.9,443.3,145.9,443.2,145.8,443.1z"/>
	<path d="M583.2,445.4c-0.1,0.1-0.3,0.3-0.3,0.4c0,0.2,0.2,0.3,0.3,0.5c0.1-0.1,0.2-0.2,0.2-0.3
		C583.3,445.8,583.3,445.7,583.2,445.4z"/>
	<path d="M684.4,446c-0.1-0.6,0.1-1.3-0.7-1.5l0.1-0.1C684,444.9,684.3,445.4,684.4,446C684.5,445.9,684.4,446,684.4,446z"/>
	<path d="M209.6,336.3c0.5-0.2,0.5-0.5,0.2-1C209.7,335.7,209.7,336.1,209.6,336.3L209.6,336.3z"/>
	<path d="M495.4,467.3c0.1,0.1,0.3,0.2,0.4,0.2c0-0.2,0.1-0.4,0.1-0.6c0-0.1-0.2-0.1-0.2-0.2C495.6,467,495.5,467.2,495.4,467.3z"/>
	<path d="M140,388.7c-0.2-0.5-0.4-0.7-1.2-0.3C139.4,388.5,139.8,388.5,140,388.7L140,388.7z"/>
	<path d="M140.1,388.6c0.3,0.8,0.9,0.7,1.5,0.6l-0.1,0.1C141,389.1,140.5,388.9,140.1,388.6L140.1,388.6z"/>
	<path d="M150.9,384.9c0.1,0.2,0.2,0.4,0.3,0.5c0,0,0.2,0,0.3,0c-0.2-0.1-0.5-0.3-0.7-0.4C150.8,385,150.9,384.9,150.9,384.9z"/>
	<path d="M148,384.4c-0.1-0.2-0.3-0.4-0.4-0.5c-0.1,0-0.3,0.1-0.5,0.2c0.1,0,0.2,0.1,0.3,0.1C147.6,384.3,147.8,384.3,148,384.4
		L148,384.4z"/>
	<path d="M309.7,334.1c0.5,0.8,0.6,0.9,0.6,1c0-0.1,0.1-0.2,0.1-0.3C310.4,334.7,310.3,334.7,309.7,334.1z"/>
	<polygon points="235.4,385 235.5,385.2 235.3,385.1 	"/>
	<path d="M605.7,500.4c0.1,0,0.2-0.1,0.2-0.1C605.9,500.3,605.8,500.4,605.7,500.4L605.7,500.4z"/>
	<path d="M235.5,519.5c0.2,0.3,0.5,0.6,0.7,0.9c0,0-0.1,0.1-0.1,0.1C235.8,520.2,235.6,519.9,235.5,519.5
		C235.4,519.6,235.5,519.5,235.5,519.5z"/>
	<path d="M669.4,428.7C669.8,429.1,669.3,428.7,669.4,428.7L669.4,428.7z"/>
	<polygon points="710.9,348.4 711.2,348.4 711,348.5 	"/>
	<path d="M613.6,443c0.1,0,0.1,0.1,0.2,0.1C613.7,443.1,613.7,443,613.6,443C613.6,443,613.6,443,613.6,443z"/>
	<polygon points="686,491.7 686,491.9 685.9,491.8 	"/>
	<path d="M700.4,442.4c-0.1,0-0.2,0.1-0.3,0.1C700.2,442.4,700.2,442.3,700.4,442.4L700.4,442.4z"/>
	<path d="M448.9,84.8c0.1,0.1,0.1,0.3,0.2,0.4c0-0.1,0-0.1,0-0.2C449,85,448.9,84.9,448.9,84.8L448.9,84.8z"/>
	<path d="M184.4,347.7c0.1,0,0.2,0,0.2,0C184.6,347.7,184.6,347.8,184.4,347.7L184.4,347.7z"/>
	<path d="M802,403.6c0,0.1,0,0.2,0,0.3C802,403.8,802,403.7,802,403.6L802,403.6z"/>
	<path d="M141.6,389.2c0.1,0.1,0.1,0.3,0.2,0.4c0-0.1,0-0.1,0-0.2C141.7,389.4,141.6,389.4,141.6,389.2L141.6,389.2z"/>
	<path d="M188.8,395.7c0.1,0,0.2-0.1,0.3-0.1C189,395.7,188.9,395.8,188.8,395.7L188.8,395.7z"/>
	<path d="M178.8,390.7c0.1-0.1,0.2-0.3,0.3-0.4c0-0.1-0.1-0.2-0.2-0.3l0.1-0.1C178.9,390.2,178.9,390.5,178.8,390.7L178.8,390.7z"/>
	<path d="M178,391.4c0.3-0.2,0.5-0.5,0.8-0.7l0.1,0.1c-0.3,0.2-0.5,0.5-0.8,0.7L178,391.4z"/>
	<polygon points="688.1,516.3 688,516 688.1,516.2 	"/>
	<path d="M677.3,516.2c-0.2-0.3-0.4-0.6-0.7-0.8c0,0,0.1-0.1,0.1-0.1c0.2,0.3,0.4,0.6,0.7,0.8L677.3,516.2z"/>
	<path d="M218.9,369.3c0.1,0.2,0.2,0.3,0.3,0.5C219.5,369.2,219.1,369.4,218.9,369.3C218.8,369.3,218.9,369.3,218.9,369.3z"/>
	<path d="M150.1,392.3c-0.1-0.1-0.1-0.3-0.2-0.4c0,0.1,0,0.1,0,0.2C150,392.1,150.1,392.2,150.1,392.3
		C150.2,392.2,150.1,392.3,150.1,392.3z"/>
	<path d="M178.1,391.5c-0.2,0.1-0.3,0.2-0.5,0.4c0.6,0.3,0.4-0.2,0.4-0.4L178.1,391.5z"/>
	<path d="M99.2,427.2c0.2-0.1,0.4-0.1,0.5-0.2c-0.1-0.1-0.1-0.2-0.2-0.3C99.5,427,99.4,427.1,99.2,427.2L99.2,427.2z"/>
	<path d="M105.8,418.7c-0.1,0.1-0.2,0.2-0.3,0.3c0.1,0,0.1-0.1,0.2-0.1C105.7,418.8,105.7,418.7,105.8,418.7L105.8,418.7z"/>
	<path d="M116.6,417.9c0,0.1,0,0.2,0.1,0.3C116.6,418.1,116.5,418.1,116.6,417.9L116.6,417.9z"/>
	<path d="M116.5,418c-0.1-0.1-0.2-0.2-0.3-0.3c0,0.1,0.1,0.1,0.1,0.2C116.4,417.9,116.5,417.9,116.5,418L116.5,418z"/>
	<path d="M154.6,383.5c0.1,0.2,0.1,0.3,0.2,0.5c0-0.1,0-0.2,0-0.2c-0.1-0.1-0.2-0.1-0.3-0.2L154.6,383.5z"/>
	<polygon points="145.1,504 145,503.8 145.2,503.9 	"/>
	<path d="M209.3,416c-0.1,0.1-0.2,0.2-0.2,0.3c0,0.1,0.1,0.1,0.2,0.2C209.3,416.3,209.3,416.2,209.3,416z"/>
	<path d="M223.9,411.6c-0.4,0-0.7,0.2-0.7,0.7c0,0-0.1-0.1-0.1-0.1C223.4,412,223.6,411.8,223.9,411.6L223.9,411.6z"/>
	<path d="M145.2,503.9c0,0.5,0.2,0.7,0.7,0.7l-0.1,0.1C145.8,504.2,145.6,503.9,145.2,503.9L145.2,503.9z"/>
	<path d="M223.8,411.5c0.2-0.2,0.5-0.5,0.7-0.7l0.1,0.1C224.4,411.1,224.2,411.4,223.8,411.5L223.8,411.5z"/>
	<path d="M224.5,410.8c0.2-0.2,0.4-0.5,0.7-0.7l0.1,0C225.1,410.3,224.8,410.6,224.5,410.8L224.5,410.8z"/>
	<path d="M244,518.3c-0.1-0.1-0.2-0.2-0.3-0.3c0,0.1,0,0.2,0.1,0.2C243.8,518.2,243.9,518.2,244,518.3
		C244,518.2,244,518.3,244,518.3z"/>
	<path d="M225.2,410.1c0.1,0,0.1-0.1,0.2-0.1C225.4,410,225.3,410,225.2,410.1L225.2,410.1z"/>
	<path d="M690.4,513.7c0.1,0.1,0.2,0.2,0.2,0.2c0.1,0,0.1-0.1,0.2-0.2c-0.1-0.1-0.2-0.2-0.2-0.2
		C690.5,513.4,690.4,513.6,690.4,513.7z"/>
	<path d="M259.8,337.1c0.2,0.2,0.5,0.4,0.7,0.6l-0.1,0.1C260.2,337.5,259.9,337.4,259.8,337.1L259.8,337.1z"/>
	<path d="M276.3,326.3c-0.2,0.2-0.5,0.5-0.7,0.7l-0.1-0.1C276,327,276.2,326.7,276.3,326.3L276.3,326.3z"/>
	<path d="M516.2,463.1C516.2,463.2,516.2,463.2,516.2,463.1L516.2,463.1z"/>
	<path d="M519.9,461.8c-0.2,0-0.3,0.1-0.5,0.1c0.1,0,0.2,0,0.2,0C519.7,461.9,519.7,461.8,519.9,461.8L519.9,461.8z"/>
	<path d="M117.3,480.9c0,0.1,0,0.2,0,0.2C117.3,481.1,117.2,481.1,117.3,480.9L117.3,480.9z"/>
	<path d="M277,325.6c-0.6-0.1-0.7,0.3-0.7,0.7c0,0-0.1-0.1-0.1-0.1C276.7,326.3,276.9,326.1,277,325.6L277,325.6z"/>
	<path d="M260.5,337.6c0.3,0.2,0.5,0.5,0.8,0.7l-0.1,0.1C261,338.2,260.7,338,260.5,337.6L260.5,337.6z"/>
	<path d="M314.1,339.2c-0.1-0.2-0.1-0.3-0.2-0.5c-0.1,0.1-0.2,0.2-0.3,0.3C313.9,339,314,339.1,314.1,339.2L314.1,339.2z"/>
	<path d="M135.8,483.2c-0.1-0.1-0.2-0.2-0.3-0.3c0,0.1,0,0.2,0.1,0.2C135.7,483.1,135.8,483.1,135.8,483.2L135.8,483.2z"/>
	<path d="M689.5,471c0.1,0.5,0.2,0.8,0.8,0.7l-0.1,0.1C690.2,471.3,690,470.9,689.5,471L689.5,471z"/>
	<path d="M607.9,470.3c-0.1,0-0.2,0-0.2,0.1C607.8,470.3,607.8,470.3,607.9,470.3L607.9,470.3z"/>
	<polygon points="567,472.6 566.9,472.3 567.1,472.5 	"/>
	<polygon points="306.2,330.6 306.4,330.7 306.2,330.6 	"/>
	<path d="M686,466.7c0,0.5,0.2,0.8,0.7,0.7c0,0-0.1,0.1-0.1,0.1C686.7,466.9,686.5,466.6,686,466.7C685.9,466.7,686,466.7,686,466.7
		z"/>
	<path d="M691.7,473.8c0.1,0.1,0.2,0.2,0.3,0.3c0-0.1,0-0.2-0.1-0.2C691.8,473.9,691.7,473.9,691.7,473.8
		C691.6,473.9,691.7,473.8,691.7,473.8z"/>
	<path d="M683.8,474.5c0.1,0.1,0.1,0.2,0.2,0.3C683.9,474.7,683.8,474.7,683.8,474.5L683.8,474.5z"/>
	<path d="M259.7,337.2c-0.3-0.2-0.5-0.5-0.8-0.7l0.1-0.1C259.2,336.6,259.5,336.8,259.7,337.2L259.7,337.2z"/>
	<polygon points="651.5,476 651.7,476.1 651.5,476 	"/>
	<polygon points="517.6,477.5 517.7,477.3 517.7,477.5 	"/>
	<path d="M130.1,466C130.4,465.7,130,466.2,130.1,466L130.1,466z"/>
	<path d="M183.1,382.9C183.4,382.6,183,383.1,183.1,382.9L183.1,382.9z"/>
	<path d="M539.2,486c0.3,0.3-0.1,0.1-0.1,0.1L539.2,486z"/>
	<polygon points="236.1,342.8 235.9,342.9 236,342.8 	"/>
	<polygon points="117.2,486.1 117.3,486.2 117.2,486.1 	"/>
	<path d="M185.3,344.9C184.9,345.2,185.3,344.7,185.3,344.9L185.3,344.9z"/>
	<path d="M682.4,346.4c0.1-0.1,0.2-0.1,0.3-0.2C682.6,346.3,682.5,346.4,682.4,346.4L682.4,346.4z"/>
	<path d="M684.5,445.9c0.3,0.2,0.6,0.4,0.9,0.6l-0.1,0.1C685,446.4,684.7,446.2,684.5,445.9L684.5,445.9z"/>
	<polygon points="142.8,445.8 143.1,445.8 142.9,445.9 	"/>
	<path d="M221,347c0.1,0,0.2-0.1,0.3-0.1C221.2,347,221.1,347,221,347L221,347z"/>
	<polygon points="297.8,321.3 297.9,321.4 297.7,321.4 	"/>
	<path d="M297,320.5c0.3,0.3,0.5,0.5,0.8,0.8c0,0-0.1,0.1-0.1,0.1C297.5,321.1,297.2,320.8,297,320.5C297,320.6,297,320.5,297,320.5
		z"/>
	<path d="M536.8,484.7c0.2-0.6-0.1-0.8-0.6-0.8l0.1-0.1c-0.1,0.5,0.3,0.7,0.7,0.8L536.8,484.7z"/>
	<path d="M314.2,339.2c0.1,0.2,0.1,0.3,0.2,0.5c0.1-0.1,0.2-0.2,0.3-0.3C314.5,339.3,314.3,339.3,314.2,339.2L314.2,339.2z"/>
	<polygon points="237.5,341.2 237.7,341.2 237.6,341.3 	"/>
	<polygon points="234.7,383.6 234.6,383.5 234.8,383.6 	"/>
	<polygon points="673,485.3 673.1,485.4 673,485.3 	"/>
	<path d="M538.5,485.2c0.2,0.3,0.5,0.5,0.7,0.8l-0.1,0.1C538.8,485.8,538.6,485.6,538.5,485.2L538.5,485.2z"/>
	<polygon points="117.2,486.1 117.1,485.9 117.2,486.1 	"/>
	<path d="M237.6,341.3c-0.2,0.2-0.5,0.5-0.7,0.7l-0.1-0.1C237.1,341.7,237.3,341.5,237.6,341.3L237.6,341.3z"/>
	<path d="M236,342.8c0.3-0.3,0.5-0.5,0.8-0.8l0.1,0.1C236.6,342.3,236.3,342.6,236,342.8L236,342.8z"/>
	<path d="M515.6,452.4c-0.1,0-0.2,0.1-0.3,0.1C515.4,452.4,515.4,452.4,515.6,452.4L515.6,452.4z"/>
	<path d="M841.7,359c-2.6-1.3-3-1.5-5.1-1.4C837.8,359.1,838.8,359.4,841.7,359z"/>
	<path d="M843.3,345.4c0.5,0,1.1,0.1,1.6,0.1c0-0.1,0-0.2,0-0.3c-0.5,0-1.1-0.1-1.6-0.1C843.3,345.1,843.3,345.3,843.3,345.4z"/>
	<path d="M821.4,405c0.4,0.5,0.8,0.8,1.7,0.3C822.4,405.2,821.8,405.2,821.4,405C821.3,405.1,821.4,405,821.4,405z"/>
	<path d="M821.3,405.1c-0.4-1-1.3-0.7-2.1-0.8l0.1-0.1C819.7,405.3,820.6,405,821.3,405.1L821.3,405.1z"/>
	<path d="M819.2,404.4c-0.4-0.7-0.9-0.9-1.9-0.2C818.1,404.2,818.7,404.3,819.2,404.4L819.2,404.4z"/>
	<path d="M844.3,359.6C844.7,359.6,844.5,359.6,844.3,359.6C844.5,359.6,844.7,359.6,844.3,359.6z"/>
	<path d="M842.8,350.6c0.5,1,1.4,0.7,2.1,0.7l-0.1,0.1C844.5,350.4,843.5,350.8,842.8,350.6L842.8,350.6z"/>
	<path d="M821.4,399.4c0.2,0.1,0.4,0.2,0.6,0.3c-0.1-0.1-0.2-0.1-0.3-0.2C821.5,399.5,821.4,399.5,821.4,399.4L821.4,399.4z"/>
	<polygon points="824.2,400.4 823.9,400.5 824.2,400.5 	"/>
	<path d="M844.9,351.3C845.2,351.7,844.8,351.3,844.9,351.3L844.9,351.3z"/>
	<polygon points="821.3,399.5 821.2,399.3 821.4,399.4 	"/>
	<path d="M35.2,462.2c0.6-0.8,0.4-1.6-0.2-2.3c-1.4-1.6-1.6-3.4-1.4-5.3c0.1-1.2,0-2.4-0.2-3.5c0-0.3-0.7-0.7-1-0.7
		c-0.4,0-0.9,0.5-1,0.8c-0.4,2.8,0.1,5.4,1,8C32.9,460.6,33.7,461.6,35.2,462.2z"/>
	<path d="M38.6,457.8c-0.1-4.3-0.1-4.3-1-6.1c-0.7,0-1.5,0.1-2.3,0.1C35.5,454.3,36.5,456,38.6,457.8z"/>
	<path d="M63.5,470.4c-1,1-1.8,2.1-2.9,3c-1.1,0.8-2.8,0.6-3.5,2.3c1.3,0.7,2.5,0.1,3.5-0.4C62.4,474.3,63.5,472.7,63.5,470.4z"/>
	<path d="M67.3,482c3-0.2,3.7-0.5,5.3-2.8c-1.7,0.7-3.2,1.4-4.7,2c-0.2,0.1-0.4,0.3-0.5,0.5C67.4,481.7,67.4,481.8,67.3,482z"/>
	<path d="M70.7,465.3c-2,0.1-3.3,1.4-4.8,2.9C67.8,468,68.9,467.3,70.7,465.3L70.7,465.3z"/>
	<path d="M74.3,477.2c1.6-0.7,2.4-1.4,3.1-2.9C75.1,475.1,75.1,475.1,74.3,477.2z"/>
	<path d="M70,455.3c-0.2,0.3-0.4,0.5-0.5,0.8c-0.1,0.2,0.1,0.4,0.2,0.9C69.8,456.2,69.8,455.7,70,455.3L70,455.3z"/>
	<path d="M75,484.6c0.2,0.1,0.3,0.3,0.5,0.4c0,0,0.1,0,0.3-0.1C75.4,484.8,75.2,484.8,75,484.6L75,484.6z"/>
	<path d="M74.5,463.4c0,0.1,0,0.2,0,0.2c0.2,0,0.4,0,0.6,0.1c0-0.1,0-0.3,0-0.4C74.9,463.3,74.7,463.3,74.5,463.4z"/>
	<path d="M50.8,469.3c0.1-0.1,0.3-0.3,0.3-0.4c0-0.1-0.2-0.2-0.3-0.4c-0.1,0.2-0.2,0.4-0.2,0.6C50.6,469.2,50.8,469.3,50.8,469.3z"
		/>
	<path d="M52.1,466c0.1,0.1,0.1,0.2,0.2,0.2c0.1-0.2,0.2-0.4,0.2-0.7c0,0-0.1-0.1-0.2-0.1C52.3,465.7,52.2,465.8,52.1,466z"/>
	<path d="M70.6,465.2c0.2-0.1,0.4-0.1,0.6-0.2C70.7,464.6,70.7,465,70.6,465.2L70.6,465.2z"/>
	<polygon points="74.9,484.7 74.8,484.5 75,484.6 	"/>
	<path d="M70.8,454.6c-0.3,0.2-0.5,0.5-0.8,0.7l-0.1-0.1C70.1,455,70.4,454.7,70.8,454.6L70.8,454.6z"/>
	<path d="M179.2,453.7c2.2,0.2,4.2,0.4,6.4,0.6c-1.1-1.9-2.5-2.3-4.1-2.2C180.7,452.1,179.6,452.1,179.2,453.7z"/>
	<path d="M213.7,451.9c-1.9,0.3-3.1,1.5-5,3C211.4,454.7,212.8,453.6,213.7,451.9z"/>
	<path d="M176.9,451.6c-0.3,0.2-0.5,0.5-0.7,0.7c0.2,0.2,0.4,0.5,0.7,0.6c0.6,0.1,1.2-0.3,0.9-0.7
		C177.6,452,177.2,451.9,176.9,451.6z"/>
	<path d="M187.9,455.1c0.6,0,1.3-0.1,2.1-0.1C189.1,454.2,189.1,454.2,187.9,455.1z"/>
	<path d="M228,445.2c0-0.8,0.1-1.2,0-1.5c-0.1-0.3-0.5-0.4-0.7-0.6c-0.1,0.3-0.2,0.6-0.2,0.9C227.2,444.3,227.5,444.5,228,445.2z"/>
	<path d="M219.7,448.4c0.9,0.4,1.4,0.3,1.8-0.3c0.1-0.1,0.1-0.2,0-0.3c0-0.1-0.2-0.2-0.2-0.2C220.8,447.9,220.3,448.1,219.7,448.4z"
		/>
	<path d="M206.1,454.5c-0.5,0.2-0.9,0.4-1.4,0.7c-0.1,0-0.2,0.2-0.2,0.2c0.2,0,0.4,0.2,0.6,0.1c0.4-0.2,0.8-0.4,1.2-0.6
		C206.2,454.8,206.1,454.7,206.1,454.5z"/>
	<path d="M169.5,463.6c-1-0.6-1.6-0.1-2.2,0.3c-0.1,0.1-0.1,0.2-0.2,0.3c0.1,0.1,0.2,0.2,0.3,0.1
		C168.1,464.2,168.7,463.9,169.5,463.6z"/>
	<path d="M218.5,442.6c0,0.1,0,0.1,0,0.2c0.3-0.1,0.5-0.1,0.8-0.2c-0.1-0.1-0.2-0.2-0.2-0.2C218.9,442.4,218.7,442.5,218.5,442.6z"
		/>
	<path d="M247.1,445.7c0.1,0,0.2,0.1,0.3,0.1c0-0.1,0.1-0.3,0.1-0.4c-0.1,0-0.2,0-0.3,0C247.1,445.4,247.1,445.6,247.1,445.7z"/>
	<path d="M170.9,387.2c0.2-0.1,0.3-0.2,0.5-0.3C170.8,386.4,171,387,170.9,387.2L170.9,387.2z"/>
	<path d="M388.7,369.2c0.2,0.8,0.8,0.7,1.8,0.3C389.6,369.4,389.1,369.4,388.7,369.2L388.7,369.2z"/>
	<path d="M391.7,363.2c0,0-0.1-0.1-0.1-0.1c-0.1,0-0.2,0-0.3,0.1c0,0,0.1,0.1,0.1,0.1C391.5,363.3,391.6,363.3,391.7,363.2z"/>
	<polygon points="411.6,311.9 411.7,312.1 411.5,312 	"/>
</g>
</svg>
