<?xml version="1.0" encoding="utf-8"?>
<!-- Generator: Adobe Illustrator 19.1.0, SVG Export Plug-In . SVG Version: 6.00 Build 0)  -->
<svg version="1.2" baseProfile="tiny" id="Layer_2" xmlns="http://www.w3.org/2000/svg" xmlns:xlink="http://www.w3.org/1999/xlink"
	 x="0px" y="0px" width="900px" height="600px" viewBox="144 97 900 600" xml:space="preserve">
<g>
	<path d="M820.6,207.5c-0.6,1.9-2.1,1.7-3.6,1.8c-3.8,0.1-7.6,0-11.7,0.6c0.9,6.9,0.4,13.7-0.1,20.5c-1,13.8-0.2,27.6-0.1,41.4
		c0,7.3,2.1,14.5,2.5,21.8c0.1,1.8,2.2,3.2,1.6,5.4c-0.4,0.7-1.1,0.1-1.7,0.5c-0.2,2-0.2,3.8,0.8,5.9c1,2,0.1,4.4-0.3,6.5
		c-0.5,2.6-0.3,5.1,0.2,7.7c15.1,75.1,30.2,150.2,45.2,225.3c5.9,29.3,11.8,58.6,17.6,88c0.3,1.6,1.3,3.8-1.1,4.4
		c-2.5,0.6-2.4-1.9-2.8-3.4c-2.4-11.8-4.7-23.6-7.1-35.3c-11.2-55.6-22.3-111.3-33.5-166.9c-1.4-6.8-2.7-13.7-4.3-20.5
		c-0.1,4.2,1.3,8.3,1.6,12.5c0.4,5.3,1,10.7,2,15.9c1,4.9,0,9.7,0.5,14.6c0.5,4.7,1.2,9.4,2.1,14.1c0.9,4.6,0.2,9.5,0.7,14.3
		c0.2,1.5,0.1,2.9,0.1,4.4c0,1.9-0.1,3.7,1.8,4.7c0.1,2-2.1,2.6-1.8,4.4c-4.7,0.9-8.5,3-12.5,4.1c-3.4,10.7-2.6,21.2-1.7,31.9
		c0.8,10.2-1,20.3-2.2,30.4c-1.6,13.1-2.5,26.4-4.7,39.4c-0.7,4.3-0.1,8.8,0.1,13.2c0.1,2.9,2.3,4.1,4.7,4.9
		c1.7,4.1-0.3,10.4,6.6,11.2c5.1,11.2,16,15.4,26.1,22.1c1.7,3.8,1.2,8-2.2,11.9c-0.6,0.7-1.4,1.6-2.2,1.9
		c-7.7,2.5-15.3,5.1-23.6,4.7c-2.7-0.1-5.2-1-7.1-3.1c-0.4,0.8-0.4,1.4,0.1,1.9c2.5,3.1,2.4,4.9-0.7,7.6c-3,2.6-6.6,4.3-10.3,5.5
		c-7.4,2.4-14.9,4-22.7,1.8c-4.2-1.2-8.1-2.9-10.6-6.7c-3.2-4.9-8.4-6.5-13.5-7.9c-2.8-0.8-5.3-1.8-6.8-4c-1.1-5.1,2.1-9.1,2.3-13.7
		c0.3-5.9,1-11.8,0.7-17.7c-0.8-15.4-4-30.3-8.1-45.1c-0.9-3.4-2.2-6.8-3-10.2c-1.4-5.9-0.7-11.9-1.2-17.8
		c-0.8-10.7,2.6-20.3,5.5-30.1c1.4-4.7,2.1-9.5,2.5-14.4c0.2-2.6-0.5-4.3-3.5-5c-4.2-1-7.8-4.3-12.2-3c-1.8-1.8-2-3.6-2.2-5.5
		c-0.9-6.5-0.7-13-0.7-19.5c0-9-0.4-17.9-2.1-26.7c-0.6-3.1-2.2-5.7-2.9-8.7c-1-3.8-1.1-7.8-1.6-11.6c-1.4-10.3-2.8-20.6-3.9-30.9
		c-0.6-5.8-0.8-11.7,0.2-17.5c0.1-0.8,0.5-1.6,0.8-2.4c3-7.6,6-15.2,11.2-21.8c2.1-2.8,4.1-5.8,4.3-9.2c1.8-1.2,1.8,1.7,3.7,0.8
		c-5.8-4.4-5.7-10.8-5.9-16.9c-0.5-15.6-6.6-29.5-12.9-43.3c-2-4.4-5.5-8.1-7.2-12.7c-1.4-4-3.6-7.9-2.3-12.4
		c0.3-1.2-0.6-2.1-1.3-2.9c-5-6.5-8-13.9-10-21.9c-1.6-6.4-4-12.6-5.7-19c-0.9-3.4-3.6-5-6.4-6.6c-1.1-0.6-2.2-1-3.4-1.5
		c-20.7,9.6-37.5,25.6-57.3,36.2c-0.9-0.3-0.7-0.7-0.6-1c0.2-0.3,0.4-0.6,0.8-1.3c-6-0.6-9.1-3.9-9-10.9c14.5-8.6,29.6-17.6,45.5-27
		c-5.8-0.9-10.5-2.3-14.9-4.8c-10.4-6-14.6-15.3-14.9-26.9c-0.1-3.1-1-6.3-1.6-9.4c-0.8-4.4,2.1-9.6,6.4-10.6
		c5.8-1.3,10.9-4.3,16.2-6.6c6.8-3,14.1-3.1,21.3-2.2c5.5,0.7,11.1,1.2,16.2,3.1c8.7,3.3,17.9,4.8,26.5,8.6c4,1.8,8.3,2.9,12.5,4.1
		c2.7,0.8,5.4,1.4,8.2,3c1.2-3.4-0.5-6.3-1-9.2c-0.9-5.7-2.6-11.2-3.8-16.8c-1.3-6-1.8-12.1-0.7-18.2c0.2-0.9,0.5-1.6,1.1-2.3
		c-3.6-5,2.6-14.6,7.2-18.1c-0.2-1.3-0.4-2.5-0.6-3.7c1.8-2,2.9,0.4,4.4,0.4c0.3-1.9-1.3-3.9,0.8-5.7c2,1.1,1.8,3.6,3.1,5.2
		c2.3-0.3,3.5-2.4,5.4-3.4c5.8-3,11.6-1.9,17.4-0.8c5,0.9,10,2.5,15.1,2.9c3,0.2,5.5,1.8,8.2,3.1c1.2,0.6,0.9,1.5,1,1.9
		c4.1,1.1,7.5-0.8,11.6-1.7c-0.9,2.7-1.2,4.9-4.2,5c1,1.1,2.4-0.2,3.4,1.1c-1.6,1.2-3.4,2.2-4.3,4.1c1.8,0.6,2-2.5,4.1-1.6
		c0.1,2.7-2.9,2.9-4,4.6c2.3,1.6,4.3-1.2,6.6-0.2c-1.7,2.7-1.7,2.7-12.9,6.4c-0.3,3.3,0.6,6.5,1.3,9.7c0.7,3.6-0.1,6.7-3,9.2
		c0.4,4.6,1.7,9.1,2.3,13.4c-0.6,1.9-2.4,1.3-3,1.9c0,2.4,0.1,4.5,0,6.6c-0.1,1.9-2.8,3-1.6,5.6c3.9-3,8.4-4.7,12.8-6.6
		c1.6-0.7,2.6-2.6,4.1-3.6c3.7-2.6,7.9-4.5,12.1-6.2c3-1.2,5.7-1,8.4,0.8c3.3,2.3,6.9,4.2,9.9,7c1.1,1,2.4,1.6,3.7,2.3
		c6.8,3.6,8.5,9.5,4.5,16.2c-0.6,0-1.3-0.1-2.1-0.1c0.1-0.4,0-0.8,0.2-1.1c2.6-5.5,0.8-10.4-4.4-13.5c-4.3-2.6-9-4.5-13-7.6
		c-1.9-1.5-4.1-2-6.2-1c-5.7,2.6-12.2,3.9-16.4,9.3c-0.6,0.7-1.6,1.2-2.5,1.5c-3.9,1.6-8,2.9-11.5,5.7c-0.5,8.1-3.3,10.8-12.3,11.3
		c1,2.9,4.5,3.4,5.8,5.8c1.2,2.4,2,5,4.4,7.3c4.3,0.4,9.1-0.4,13.7-0.2c2.3-4.7,3.7-9.7,3.6-13c2,1.9,2.1,2.8,1.2,9.9
		c1.4-0.1,2.6-0.5,3.9-1.3c0.3-1.9,1.1-3.7,3-4.9c1.4-0.9,1.7-2.9,2.2-4.5c0.4-1.3,0.9-2.3,2.5-2.1l-0.1-0.1c0.5,4.6-3.7,6.6-5.7,10
		c1.3,3.1,2.4,6,6.2,7c2,0.5,3.1,2.5,4.4,4.1c1-0.6,1.2-1.7,1.6-2.5c1.6-3.6,0.8-5.9-2.7-7.9c-1.2-0.7-2.9-1-2.2-3.4
		c3.2,2.1,7.1,2.9,7.6,7.6c0.3,2.7-0.5,5-2.1,6.8c-1.3,1.4-2,2.8-1.8,4.7C821.2,210.3,821.5,208.4,820.6,207.5
		c-2-2.3-4.7-3.2-7.5-3.2c-14.4-0.1-28.8,0.6-43.2,1.8c-0.6,0-1.2,0-1.8,0.7c1.9,0.7,3.7,0.5,5.5,0.3c13.3-1.2,26.6-1.6,39.9-1.4
		c1.5,0,2.9,0,4.4,0.2C819,206.1,820,206.5,820.6,207.5z"/>
	<path d="M353.2,203.1c2.7-3.1,5.9-5.4,9.8-6.9c3.7-1.4,6.9-3.6,10.1-5.9c3.1-2.2,3.9-5.1,3.4-8.7c-1-7.5-2.7-14.9-4.5-22.2
		c-1.7-6.7-3-13.4-2.3-20.3c0.3-3.1,1-6,0.5-9.3c-0.4-2.9,1.4-6.1,3.1-8.7c1.4-2.1,3.3-3.8,5.1-5.8c-0.2-1-0.4-2.2-0.6-3.3
		c1.6-2.3,2.8,0.2,4.3,0.3c0.4-1.8-1.3-4,0.9-5.7c2,1.2,1.6,3.8,3.2,5.2c2.2-0.6,3.5-2.5,5.5-3.5c5.7-3,11.4-1.8,17.1-0.8
		c5.2,1,10.2,2.6,15.5,3c3,0.2,5.5,1.8,8.2,3.2c0.9,0.5,1.1,1.1,0.9,2c3.9,0.4,7.6-0.4,11.2-1.8c-0.4,2.6-0.7,4.8-3.6,4.9
		c1,1.1,2.3-0.2,3.3,1.1c-1.6,1.2-3.4,2.1-4.2,4.1c1.8,0.5,2-2.5,4.1-1.6c0,2.7-2.9,2.9-4.1,4.5c2.3,1.6,4.4-1.2,7.3,0.1
		c-4.1,3.6-8.9,4.5-13.5,6c-0.3,3.3,0.5,6.4,1.2,9.4c0.8,3.7,0.1,6.9-3.1,9.7c0.8,4.4,1.7,9,2.5,13.4c-0.7,1.5-2.1,1.5-3.4,1.9
		c0,3.3,1,6.6-1.3,9.8c-1.1,1.5-0.5,4.3-0.5,6.4c0,6.1-4.1,10.2-10.4,10.1c-0.5,0-1-0.1-1.6-0.1c-0.3,1.4-0.4,2.6,0.6,3.9
		c3.9-0.1,6.4,2.4,8.9,4.8c2.7,2.6,5.7,4.2,9.3,5.6c5.2,2,10.9,3.9,14.3,8.6c3.6,4.9,6.5,10.4,7.6,16.6c0.9,4.7,0.9,9.3-0.3,13.9
		c-1.2,5-0.9,9.4,2.2,13.9c4.5,6.6,5.5,14.6,6.7,22.4c0.7,4.2,2,7.9,4.6,11.4c5.3,6.8,9,14.3,9.8,23.2c1.5,15.8,6.3,31,9.5,46.4
		c0.6,2.9,1.4,5.7,0.9,8.7c-0.3,2.4,1.7,3.7,2.8,5.4c1.9,2.7,3.3,5.4,0.1,8.4c2.1,3.1,4.4,5.9,5.8,9.3c1.3,3.2,4,5.9,3.5,10.4
		c-2.1-1.6-3-3.1-3.9-4.7c-1.9-3.4-3.7-6.9-5.4-10.4c-1-2-1.9-3.9-0.9-6.5c0.8-2.1-0.7-4.5-2.5-6.1c-0.8-0.7-1.3-1.5-1.4-2.4
		c-1.3-12.1-5-23.7-7.6-35.6c-2-9.4-3.8-18.7-5-28.2c-0.3-2.4-1-4.5-2.2-6.6c-2.8-5-5.4-10.1-9-14.6c-1.6-2-1.7-4.5-2.1-7
		c-0.6-3.5-1.2-7-1.6-10.5c-0.8-7.1-5.4-12.5-8-18.8c0.7-5.5,1.6-11.3,0.6-16.8c-1.2-6.8-3-13.8-7.1-19.5c-3-4.3-7.5-7.4-13.5-6.4
		c-0.4,0.6-0.1,1,0.2,1.4c4.2,5.3,7.1,11.4,10.5,17.3c8.9,15.2,7.7,30.9,2,46.5c-1.4,3.8-1.7,7.2-1.1,11c0.6,3.6,1.3,7.3,1.3,10.9
		c0,2.8,2.2,4.2,3.7,6.1c0.6,0.8,1.6,1.4,2.8,2.4c-2.7,0.7-4.4-0.7-6.4-2c-0.2,2.5-0.4,4.4,0.8,6.4c1.1,1.9,1.2,4.5,1.9,6.7
		c3.4,11,7.3,21.8,13.6,31.5c4.7,7.2,9.3,14.4,12.8,22.2c0.7,1.4,1.2,2.9,1.9,4.4c1.3-0.4-0.1-2,1.1-2.3c0.2,0.1,0.5,0.2,0.5,0.4
		c1.4,8.2,0.9,16-4.2,23c-1.3,1.8-1.7,3.8-1.2,5.9c0.5,2.3,1.1,4.5,1.5,6.8c0.7,4.8,3.6,7.8,8.2,9.6c0.9-3.8,0.5-6.9-2.3-9.6
		c-1.2-1.1-2.5-2.4-1.8-4.6c1.4,1.6,2.4,3.3,3.8,4.4c4.4,3.5,3.6,6,1.7,9.9c-0.5,1-1.2,1.8-1.9,2.7c1,2.8,1.2,6,5.6,6.1
		c2.5-4.1-0.4-10.1,3.5-13.9c0.3,0.1,0.6,0.1,0.9,0.2c-0.6,4.3-0.9,8.6-1.8,12.9c-0.7,3.2-2.9,4-5.9,2.6c-2.8-1.3-5.4-2.9-7.3-5.4
		c-5.3,1.3-10.3,2.8-15.4,4.6c-0.5,4,0.1,7.9,0.9,11.7c1.5,7.6,1.9,15.2,2,22.8c0,4.2,0,8.5,3.5,11.8c1.8,1.7,1.4,4.1,0,6.1
		c-1,1.4-1.3,2.9-1.1,4.5c0.5,4.5,0.9,8.9,2.3,13.3c16.1,49.5,32.1,99.1,48.1,148.7c0.6,1.7,2.2,3.8-0.5,5.3
		c-2.4-0.5-2.4-2.5-2.9-4.1c-12.1-37.4-24.2-74.9-36.3-112.3c-3.3-10.2-6.6-20.5-10-30.9c-4.8-0.4-8.5,2.9-12.6,3.4
		c-2.9,8-3.2,15.9-2.4,23.8c1.3,12.6-0.1,24.9-1.7,37.4c-1.7,12.9-2.5,25.9-4.8,38.7c-0.8,4.2,0,8.6,0.1,12.9c0,2.9,2.1,4.2,4.6,4.9
		c0.8,1.6,1.3,3.1,1.2,4.7c-0.3,3.6,1.9,5.3,4.8,6.2c0.9,0.3,1.3,0.7,1.5,1.3c2,5.8,7.1,8.5,11.4,11.9c4.1,3.3,8.8,5.6,13.7,8
		c2.1,4.4,1.4,8.7-2,12.5c-0.9,1-1.9,1.9-3.3,2.2c-6,1.5-11.9,3.7-18.3,4c-4.1,0.2-8.1,0.3-11.2-3c-0.3,0.8-0.4,1.3,0,1.9
		c2.5,3,2.5,4.6-0.4,7.2c-3.2,2.9-7,4.5-11,5.8c-6.8,2.2-13.8,3.3-21,1.8c-4.7-0.9-9-2.7-11.8-6.8c-3.3-4.8-8.4-6.5-13.6-7.9
		c-3.4-0.9-4.7-1.5-6.9-4.2c-0.9-4.9,2.2-8.9,2.4-13.5c0.2-6,1-12,0.6-18c-1.2-17.1-5-33.6-10.1-49.9c-2-6.4-3.4-13.1-1.9-19.9
		c0.2-0.8,0.3-1.7,0.1-2.6c-1.4-7.8,0.9-15.1,3.5-22.3c2.3-6.3,3.5-12.7,4.2-19.3c0.4-3.9,0-4.2-3.7-5.4c-4-1.4-7.7-4.1-11.9-3
		c-1.9-1.6-2.1-3.5-2.3-5.3c-0.9-6.5-0.7-13-0.7-19.5c0-8.5-0.4-16.9-2-25.3c-0.6-3.1-1.7-6.1-2.8-9.1c-1.2-0.4-2.1,0-3,0.8
		c-13.8,12.7-27.1,26-38.7,40.8c-4.6,5.8-9.9,10.7-15.3,15.6c-1.1-0.7,0.1-1.3-0.2-2.3c-2.4-0.1-4.9,0.1-7.2-1.2
		c-2.5-1.4-2-4.7-4.2-5.9c0.2-1.3,0.8-2,1.4-2.6c14.4-13.8,27.7-28.8,42.9-41.9c4.4-3.9,9.1-7.5,13.8-11c2.4-1.8,5.4-2.7,8.2-3.5
		c0.7-0.7,0.6-1.4,0.5-2.1c-1.7-9.2-2.6-18.6-3.7-27.9c-0.7-5.8-0.9-11.7,0.1-17.4c0.5-2.7,1.7-5.1,3-7.5c1.3-2.3,2.3-4.6,2.8-7.4
		c-2-3.6-4.6-7-7.5-10.2c-9.8-11-13.9-24.3-15.2-38.6c-0.3-3.8-0.2-7.6-3-10.6c-1-1.1-0.5-2.4-0.2-4c1.4-7.7,2.6-15.4-1.2-22.8
		c-4.4-8.4-5.6-17.2-5-26.7c0.5-8.9,0.8-18.1-2.5-26.9c1.5-1.3,1.4-3.2,1.7-5c1.3-9.3,4.8-17.7,11.4-24.5c3.8-3.9,8-7.5,11.8-11.5
		c0.5-0.5,0.9-1.1,1.3-1.7C352.7,204,353.1,203.6,353.2,203.1z"/>
	<path d="M842,209.7c-1.6,0-1.1-1-0.8-1.8c1-2.8,2.3-5.4,3.6-8c-3,2.7-4.4,6.2-5.2,9.8c-2.3,1.7-5.2,2.1-7.2,3.4
		c-2.8,1.8-5.4,2-8.3,1.8c-2-0.2-4-0.9-4.7-4.1c3.7,1.7,7,2.9,10.8,1.4c0.5-4.5-0.6-9.1,1.5-13.5c1.7,4-0.1,8.5,1.8,12.8
		c3.2-3.9,3.8-8.1,3.2-12.5c1.2-1.8,3-2.4,5-4.3c0.2,3.6-3.4,4.3-3.4,7c0,2.4-0.6,4.8-0.7,7.2c2.4-4.2,3.2-9.5,7.9-12.1
		c0.1-5-1.4-9.1-6.1-11.3c-0.2-3.1,1.2-5.4,1.8-7.9c1.1,2.4,0.4,4.6-0.2,7.4c6.3,1.3,6.4,6.8,7,11.8c2.5,0.7,4.7,0.6,6.9,0.4
		c5.8-0.5,10.8,1.5,15.6,4.2c8.4,4.8,16.1,10.7,23.6,16.8c2.6,2.1,2.5,5.6-0.3,7.5c-1.2,0.8-1.7,1.9-2.2,3.2
		c-2.3,0.1-3.5-1.7-4.9-2.9c-6.4-4.9-12.4-10.4-19.2-14.8c-3.4-2.2-6.7-3.6-11-3.1c-3.7,0.4-7.6-0.1-11.4-0.3
		C843.6,207.6,842.2,207.9,842,209.7L842,209.7z"/>
	<path d="M557.3,425.5c-2.4,0.3-3.8-1-5.5-1.7c-7.5-3.2-14.8-7.1-22.6-9.7c-3.6-1.2-7-1.5-10.7-0.3c-4.5,1.5-9.2,2.3-13.9,3.4
		c-1,1.8-2.2,3.3-2,5.3c-6.5,2.4-6.5,2.4-9.4,6.9c0-4.9,1.3-8.6,2.5-12.1c1.3-0.6,1.7,0.1,2.1,0.6c1.4-1,1.5-3,2.9-3.7
		c1.9,0,0,1.8,1.3,2.2c1.7-2.9,1.1-6.1,1.6-9.4c5.5-1.9,11.1-3.9,16.9-4.2c4.5-0.2,9.2,0.9,13.6,2.5c7.6,2.7,15.1,5.6,22.5,9
		c3.5,1.6,4.5,5,1.9,7.6C557.6,423,557.8,424.2,557.3,425.5z"/>
	<path d="M817.8,184.2c-0.5-4.7-2-8.9-5.3-12.5c-1.1-1.3-2.3-3.1-1.8-5.4c1.4,3.3,4.6,4.5,6.7,7
		C820.2,176.7,819.6,180.4,817.8,184.2L817.8,184.2z"/>
	<path d="M459.4,321.1c-1.2-4.1,0.3-6.6,4.7-8.5C463,315.5,462.6,318.7,459.4,321.1z"/>
	<path d="M824.2,160.9c3.7,0.7,4.2,4,5.5,6.7C826.9,166.2,826.5,162.7,824.2,160.9z"/>
	<path d="M476.8,361.7c1.7,1.4,2,3.1,1.1,5.9C476.6,365.4,476.2,363.7,476.8,361.7z"/>
	<path d="M464.4,311.4c-0.6-2.6,0-3.9,1.9-5.2C466.8,308.4,466.2,309.7,464.4,311.4z"/>
	<path d="M832.1,197.9c-1.4-1.8,1.4-2.9,0.4-4.6C834.7,195.2,834.6,196.1,832.1,197.9z"/>
	<path d="M500.7,408.9c-1.6-1.3-2.6-2.6-3.2-4.6C499.7,405.4,499.7,405.5,500.7,408.9z"/>
	<path d="M841.9,209.8c1.2,0.1,1.2,0.8,0.5,1.4c-1.3,1.1-2.8,1.9-4.8,1.4C839,211.2,841,211.3,841.9,209.8L841.9,209.8z"/>
	<path d="M826.1,189.4c1.9,0.1,3.3,0.8,4.3,2.3C828.4,192,827.1,190.9,826.1,189.4z"/>
	<path d="M803.3,182.5c0.8,1.4,1.5,2.3,0.3,3.4C802.5,185,802.9,183.9,803.3,182.5z"/>
	<path d="M803.9,179.9c-1.1-1.2-1.1-2-0.2-3.2C804.9,177.6,804.7,178.5,803.9,179.9z"/>
	<path d="M463.3,296.9c-0.3-1.1-0.1-1.7,0.2-2.5C464.7,295.4,464,296.1,463.3,296.9z"/>
	<path d="M832.7,170.5c-1.2-0.3-1.7-0.8-1.7-2C832,168.7,832.6,169.1,832.7,170.5z"/>
	<path d="M466.6,305c-0.3-1.3-0.1-1.9,0.8-2.3C468.1,303.6,467.7,304.2,466.6,305z"/>
	<path d="M353.2,203.1c0.5,0.7,0.1,1.1-0.4,1.5c-0.3-0.1-0.7-0.1-1-0.2C351.8,203.4,352.5,203.2,353.2,203.1z"/>
	<path d="M502.4,410.2c0.4,1.3,0.1,1.6-0.6,1.7C501,411.1,501.6,410.8,502.4,410.2z"/>
	<path d="M496.2,410.4c-1.1-0.1-0.9-0.8-1.2-1.4C496.5,409,496.2,409.7,496.2,410.4z"/>
	<path d="M474.5,350.9c-0.8-0.3-0.9-0.7-0.4-1.4C475,349.8,474.9,350.3,474.5,350.9z"/>
	<path fill="#FFFFFF" d="M761.6,364.3c-1.4,1-3.2,1-5.1,2c2.5,1,4.7,0.2,7,0.5c1.2,3,0.1,6.2,0.5,9.2c2-2.9,1.7-6.3,2.3-9.8
		c1.9-0.9,3.4-2.4,1.8-5.1c1.8-0.3,1.6,1.8,2.8,1.6c0.6-0.6,0-1.7,1.3-2.4c6.2-0.7,12.7-2.2,19.2-4c0.5,0.8-0.5,1.6,0.5,2.3
		c1.7-0.5,0.9-3.9,3.6-3.3c0.3,0.1,0.6,0.3,0.8,0.6c0.5,1.2,0.4,2.3,0.1,3.5c-0.1,0.2-0.1,0.3-0.1,0.5c1.4,1.2,3.1,0.5,4.8,1
		c1.9,3,3.6,6.3,7.8,7.4c-1.9-3.3-4.8-5.9-6.3-9.5c1.2-1.1,1.7,0.4,1.9,0.7c2.9,3.5,6.5,6.3,8.1,10.9c3,8.4,3.8,17.1,5,25.8
		c1.2,8.4,1,17,3.3,25.3c1.3,4.8-0.1,10,1,15c0.3,1.6,0.4,3.2,0.9,4.7c1.3,4,1.4,8.1,1,12.3c-0.7,6,1.2,11.9,2.4,17.8
		c0.4,2.2,0.7,4.2,0.6,6.5c-0.2,4.6-0.1,9.3-0.1,13.9c-6.4,3.7-12.9,5.6-19.8,6.6c-1.5,0.2-2.9,0.3-4.4,0.6
		c-1.6,0.2-3.1,0.8-2.6,2.8c0.4,1.7,1.8,2.3,3.5,1.9c1.5-0.4,3-1,4.5-1.5c1.8-0.5,3.5-1.1,5.5-0.7c0.7,2.6-1.5,4.5-1.8,6.8
		c-3.5,0.4-6.7,1.4-10.2,1.4c-0.7,2,0,3.3,1.5,4.2c1.6,0.9,3,0.5,4.2-0.9c-1-1.3-2.5,0.2-3.5-1.1c2.8-0.1,5.3-1.7,8.4-1.5
		c-0.1,3.2-1.7,5.8-3,8.8c1.4,0.1,1.4-1.2,2.4-1.3c0.9,5.9-4.1,10.3-3.9,16.1c1.7-2,2.6-4.4,3.7-6.8c1,0.6,0.7,1.5,0.8,2.2
		c0.5,8.9,0.9,17.8-0.9,26.7c-2.3,10.9-2.9,22.1-3.7,33.2c-0.2,3-1.6,5.6-1.9,8.5c-0.9,7-0.3,13.9,0.3,20.9c-3.6,1.5-9-0.7-11,5.1
		c-2.7-0.4-5.4-0.2-8-1.3c-0.5-3.2-0.8-6.4-2-9.3c-0.9-2.1,0.6-4.2,0.4-6.5c-0.7-6.9-1.2-13.9-1.8-20.9c-0.3-3.5-0.6-7.1-0.4-10.6
		c0.1-1.5,0-2.9-1.1-4.1c-2.4-2.6-3.5-5.9-5.1-8.9c-0.5-0.9-0.5-1.9-0.5-2.8c0.3-6.1,0.5-12.2,0.8-18.4c0.1-3.3,2.5-5.6,4-8.1
		c3.5-6,5.4-12.3,5.7-19.2c0.1-3.1,1-5.3,4.3-6.3c2.3-0.7,4.4-2.1,6.9-2.4c2.4-13,0.1-25.9-0.6-39.5c6,6.9,8.8,14.8,13.5,21.8
		c0.9-1.4,0-2.2-0.4-3c-3.3-6.7-6.6-13.4-11.3-19.4c-1.6-2-1.9-4.1-1.5-6.5c0.8-4.3,1.6-8.7,2.3-13.2c3,0.9,5.2,3.7,8.5,3.8
		c0.1,0.1,0.2,0.2,0.2,0.2c0,0.1,0,0-0.2-0.1c-2.5-3.1-6.2-4.1-9.1-6.2c-1.4,0.5-1.2,1.4-1.4,2.3c-0.6,4-1.5,7.9-2.5,11.8
		c-1.6,6.1-1.1,12.4-0.8,18.7c0.2,4.3,0.6,8.6,1.1,12.8c0.5,4.6-0.7,9-0.7,13.7c-11,3.7-21.4,8.5-32.5,11.6
		c-6.3,1.8-11.5-0.8-17.1-2.7c0.1-5.5,0.1-10.9-0.9-16.3c2,0.5,1.1,2.5,2.8,3.7c-0.9-5.4-4.1-9.7-3.4-15.1c-1.1,0.9-0.4,2-1.3,3
		c-2.1-3.3-4.1-6.6-6.3-10.1c-0.7,1.2,0.1,1.8,0.4,2.4c1,1.9,2.1,3.9,3.3,5.7c2.7,3.8,4,8,3.7,12.8c-0.3,4.3,1.1,8.7,0.3,13.3
		c-4.7-1.3-9.6-1.7-13.9-4.6c-0.9-4.7-1-9.7-1-14.7c0-9.4-0.1-18.9-1.3-28.3c-0.7-5.5-3-10.3-5-15.3c-0.6-1.5-1.1-3-1-4.5
		c0.2-5.8-0.4-11.5-1.4-17.2c-0.5-2.8-0.6-5.6-0.3-8.4c0.5-4.6-1.2-9-1.9-13.4c-1.5-9.6-0.2-18.5,5.7-26.4
		c4.1-5.5,6.7-11.9,10.8-17.6c1.7,2.8,4.6,3.2,7.6,3.4c0.3-1.7-2-1.1-1.9-2.1c0-1.6,1-0.3,1.2-0.8c1-0.6-0.1-1.5,0.7-2.2
		c1.3-0.5,2.7,0.3,4.4,0.2c0.3,3,4.1,3.1,4.3,5.9c1.5-0.1,0.7-1.7,2.1-1.9c1,2,3.2,1.2,5,1.6c1-0.5-0.5-2,1.1-2.5
		C760.4,362.1,760.2,364.1,761.6,364.3L761.6,364.3z"/>
	<path fill="#FFFFFF" d="M802.9,329.1c-2.8,7-3.7,14.4-5.4,21.8c-13.4,5.9-27.3,9.1-42.2,8c-1.8-5.3-5-10.1-8-15
		c1.1,4.8,4.3,8.6,6.2,13.8c-3.9-1.1-7.5-2-10.9-3c-1.3-2-1.4-4.3-2-6.4c-0.5-1.9-0.4-4.1-3-4.9c-1-0.3-0.8-1.9-1.2-2.9
		c-4.8-12.8-6.7-26.6-12.8-39c-2.9-5.9-5.4-12.1-8.5-17.9c-1.5-2.9-3.8-5.3-4-9.1c3.4,0.3,6.7-0.3,10-0.7c5.2-0.7,9.7-2.7,13.5-6.1
		c3.2-2.9,6.6-5.4,10.2-7.8c8.2-5.7,13-13.1,14.2-23.4c0.5-4.4,0.1-8.1-1.9-11.9c-0.8-1.6-1.7-3.3-2-5.9c4.2,2.1,4.5,6.8,7.5,9.1
		c-1.2-3.4-3.1-6.5-3.7-10.2c3.2,4.1,8.2,6.2,11.2,10.5c2,2.8,5.1,4.5,8.6,5.7c0.9,5.2,5.2,8.4,7.4,12.9c1.3,2.6,1.5,4.8,0.2,7.3
		c-0.6,1.2-1.1,2.5-1.4,3.8c-1.1,3.9,0.3,6.6,4.2,7.4c1.3,0.3,2.3,2.6,4,0.5c3.9,16.2,6.5,32.4,10.1,48.4
		C804.4,319.2,803.7,324.1,802.9,329.1L802.9,329.1z"/>
	<path fill="#FFFFFF" d="M704.7,218.5c7.4,6.2,15,12.2,21.9,19c0.9,0.8,1.5,2,2.7,2.4l-0.1,0.1c-1.7-4.8-5.3-8.1-8.8-11.5
		c-4.3-4.4-7.9-9.4-13-13.2c0.2-0.2,0.3-0.5,0.5-0.7c6.9-0.4,13.8-0.7,20.8-1.1c1.3-0.1,1.9,0.7,2.8,1.4c3.7,3.2,7.7,2.5,10-1.8
		c1.7-3.2,4.3-5.7,6.1-8.7c1.1-1.8,1.1-1.8,0.4-4c-4.3,4.6-7.3,10.2-11.2,14.7c-2.2-0.4-3.7-0.8-4.4-2.5c3.9-2.2,6.8-5.7,7.5-8.8
		c-1.5-0.9-1.5,1.2-2.4,1.3c-0.4,0.1-0.6,0-0.6-0.3c-0.9-3.2-2.3-6-4.8-8.4c-1.5-1.5-2.8-3.5-3.7-5.5c-0.8-2,0.8-4.3,0.1-6.5
		c-1.5-0.4-0.9,1.5-2,1.6c-0.9-0.3-0.7-1.9-2.2-2.4c-0.8,0.9-2.1,1.1-3.5,1.1c-6.4,0.3-12.7,0.6-19.1,1.1
		c-7.8,0.6-15.5,2.4-23.2,3.7c-8.6,1.5-17.1,2.9-25.9,2.6c12,6.2,23.8,0.2,35.9-0.9c1.7,3.9,5.3,6.6,6.9,11.4
		c-10.7-0.7-19.1,5.4-28.3,8.9c-0.9,0-1.1-1.4-2.1-1.2c-1.1,0.6,0.5,2-1,2.7c-3.8-0.7-7.9-1.4-11.8-2.6c-7.4-2.4-12.9-6.8-16-14.1
		c-2.5-5.8-4.8-11.5-3.6-18.1c0.4-2.5-0.6-5.1-1.4-7.4c0.7-2.3,2.2-3.6,4.4-4.2c3.5-0.9,6.7-2.2,10.6-1.3c4.1,1,8.5,0.3,12.8-0.5
		c-3.2-1.4-6.8-1.5-10.9-2.3c7.7-4.6,15.2-6.2,23.3-5c4.1,0.6,8.2,1.5,12.3,2.1c4.2,0.6,8.2,1.4,12,3.4c1.6,0.8,3.4,1.4,5.2,1.8
		c11.8,3.2,23.1,8.2,35.1,10.7c1.4,0.3,2.7,1.1,3.9,2c6,4.4,11.8,9.2,16.9,14.7c1,1.1,2.1,2,3.4,2.8c2.8,1.7,2.9,3.2,0.7,6.1
		l0.1,0.1c0-0.5-0.2-0.9-1.3-1.4c-1.9,3.5-4.1,6.9-5.5,10.6c-1.6,4.2-4.1,6.7-8.5,7.2c-0.7-1-0.2-1.9,0.4-2.6
		c2.8-3.7,4.9-7.8,8-11.3c-3.4,3.7-5.5,8.4-8.8,12.2c-0.8,0.9,0.1,1.1,0.5,1.6c0.1,1.9,1.5,1.5,2.7,1.5c1.5,0.1,2.7-1.1,4.6-1.2
		c-0.9,2.5,0.5,4.3,1,6.3c1.4,5.3,0,10.4-0.5,15.7c-1,10.1-8.4,15.4-15.7,20.7c-3.2,2.3-6.4,4.6-9.6,6.8c-4.6,3.2-9.8,4.2-15.5,4.1
		c-0.4-1.5-1.2-2.8-2.3-4.1c-7.8-9.4-12.1-20.3-13.9-32.3c-0.3-1.7-0.6-3.4-0.9-5.1c-1.1-5.5-4.1-9.6-9.4-11.7
		c-0.6-0.2-1.1-0.5-1.6-0.8c-0.1,0-0.1-0.2-0.1-0.2c4.3-3.6,9.3-4.5,14.8-3.7c2.9,0.4,4.7,1.7,5.5,4.5c-1.9,1.1-3.8,0.5-5.4,0.3
		C700.8,219,702.8,219.3,704.7,218.5z"/>
	<path fill="#FFFFFF" d="M771.1,633.2c-4.3,0.5-8.3,1.8-12.6,0.7c-0.7-2.4-0.3-5-1.8-7.3c-1.6,2.4-0.5,5-1.1,7.3
		c-1,0.7-2,0.8-3.3,0.3c-0.9-10.8-3-21.5-5.4-32.1c-2-8.6-4.1-17.1-5.9-25.8c-2.7-13.2-0.8-26.1,2.6-38.9c0.2-0.8,0.5-1.6,1-2.4
		c3.2-5.5,4.8-11.5,5.4-18.1c11.4-1,23.1-0.2,33.8-6.4c0.2,8.1-0.3,15.9-5.6,21.4c-3.3,3.5-2.8,7-3.4,10.6
		c-0.9,5.1,0.2,10.6-2.2,15.5c-0.2,0.3-0.1,0.7-0.1,1.1c0.4,12.5-2.3,24.9-3,37.3c-0.7,11.7-0.5,23.2,1.7,34.7
		C771.2,631.7,771.1,632.2,771.1,633.2z"/>
	<path fill="#FFFFFF" d="M742.7,176.1c-1.8-0.6-2.6-1.8-2.8-3.8c-0.9-8.7-0.9-8.7,3.6-16.2c0.7,2.6,0.3,5,1.1,7.2
		c0.9,2.3,1.9,4.4,4.5,5.6c-3.1-5.6-2.4-11.8-3.1-17.9c-1.3-0.1-1,1.5-2.3,2c-1.1-1.6-2.3-3.3-3.7-5.3c2.1,0.2,2.7,2.3,4.7,2.2
		c2.6-1.3,1.5-3.1-0.3-5c0.8-0.4,1.4-0.8,1.8-1c0-1.6-1.5-2.1-1.5-3.4c2.1-0.8,2.6,0.5,2.5,2.1c-0.2,2.6,0.5,5.1,0.8,7.7
		c0.1,1.2,0,2.8,1.8,3.6c0.3-1.5,0.6-2.8,1-4.2c1.3-5.3,3.8-9.7,8.3-12.9c1.9-1.3,3.5-3.1,4.9-4.9c3.2-4,7.5-5.2,12.3-5.5
		c5.2-0.4,10.5-1.2,16,0.9c0.6,3.7,1.3,7.9,2,12c-4.1,2.2-4.6,3.4-3.5,7.8c0.8,3.6,1.6,7.2,2.4,10.7c-2.1,1.4-6.2,1-8.6-0.7
		c-1.1,0.8-1,1.8-0.3,2.8c0.9,1.1,1.4,1.1,4.5,0.2c1.1,2.1,1.3,4.3,1.5,6.8c-4,0.9-8.3,0.6-12,2.6c3.5,3.2,7-1.5,10.5,0.5
		c0.3,0.9-0.6,1.6-0.7,2.5c-2.1,1-4.6,0.1-6.4,1.6c1.6,1.6,1.6,1.6,5.7,1.6c0.4,2.8,1,6.1-2.3,7.3c-3,1.1-6.2,1.8-9.6,0.4
		c-4-1.7-8.1-3.3-12.6-4.1c1.6,3.8,5.5,6.2,12.5,7.6c0.3,4.6-0.2,9.3,0.7,14.3c-3.8,0-7.4,0-11,0c-0.2-1.9-0.2-1.9,1.5-2.2
		c-0.6-1.3-0.4-3.2-2.7-3.1c-0.2,0-0.4-0.2-0.6-0.4C757.1,188,749.2,182.8,742.7,176.1c0.1-0.3,0.1-0.6,0-0.9
		C742.8,175.5,742.8,175.8,742.7,176.1z"/>
	<path fill="#FFFFFF" d="M788.9,654.4c3.7,4.1,8.8,6.5,12.9,10.1c0.6,0.6,1.4,1.3,2.1,1.4c2.5,0.2,4.2,0.9,4.2,3.8
		c0.1,3.2-0.1,6.2-3.2,8c-0.7,0.4-1.5,0.8-2.2,1.1c0.4,1.4,1.5-0.1,2.1,0.8c-1.6,1.6-3.8,2.4-5.9,2.5c-3.8,0.1-7.5,1-11.2,1.5
		c-7.5,1.2-14.3-0.7-19.9-6.2c-1.9-1.9-4.3-3.3-4.9-6.2c-0.1-0.6-0.8-1.6-1.3-1.7c-4.2-0.7-7.6-3.9-12.2-3.8c-0.4-4,1.8-7.4,2.7-11
		c1-3.7,1.1-7.5,1.3-11.5c0.6,3.3,2,5.8,5,7.7c3.4,2.2,6.4-1.8,9.4,0.5c-0.4,0.5-0.8,1.1-1.2,1.8c1.2,1.2,3.4,1.5,3.2,3.5
		c1.2,0.8,2.4,0.3,3.5,0.7c-0.3,3.5-0.3,3.5,6.3,3.6c0.6,1.1-0.9,1.9-0.4,2.9c0.4,1.1,1.3,1.6,2.2,1.8c1,0.3,0.8,1.5,2.1,1.9
		c3.8-0.3,8.4,0.9,11.5-3.4c-1.1-3.1-3.5-2-5.8-2.2c2.1-2.2,1.9-3.8-1.1-4.6C789.1,656.7,789.3,655.6,788.9,654.4L788.9,654.4z"/>
	<path fill="#FFFFFF" d="M826.7,646c1.3,0.8,2.1,1.4,2.7,1.8c1-0.3,0.1-1.2,0.9-1.6c3.1,2.7,6.7,4.8,10.4,6.8
		c4.2,2.4,4.9,5.1,1.5,8.5c-3.1,3.2-6.7,6-11.7,6.2c-2.4,0.1-4.9,0.5-7.3,0.8c-4.2,0.5-8.4,0.9-11.2-3.3c-0.4-0.6-1.2-1-1.9-1
		c-4.1-0.3-7.3-2.6-10.4-5c-0.9-0.7-2.2-0.6-3.2-2c3.7,0.3,6.5,2.2,9.2,3.4c0.7-0.4,0.7-0.9,0.4-1.1c-3.1-2-6.2-3.8-8.9-6.3
		c-1.2-1.1-3-0.4-4.6,0.4c-3-4.2-6.3-7.8-10.1-11.3c3.2-2.2,2.6-5.6,2.9-8.9c2.9,5,4.1,5.5,9.4,3.6c1.7-0.6,3.2,0.9,5.3,0
		c-0.2,1.5-1.5,2.5-0.5,3.6c0.9,1.1,2.1,1.3,3.3,1.2c1.4-0.1,2.5,0.1,3.6,1.2c1.5,1.6,3.5,0.5,5.3,0.5
		C816.2,648.2,821,650.1,826.7,646z"/>
	<path fill="#FFFFFF" d="M626.8,250.4c-1.6-3.8-4.5-6.4-8.8-8c2.9-1.6,5.4-3.1,7.9-4.4c7.7-4.1,15.3-8.3,22.6-12.9
		c11.4-7.2,23.7-12.7,35.8-18.7c1.6-0.8,3.6-0.5,5.3-0.6c8.8-0.3,17.5-1.7,26.3-1.9c1.8,0,4.1-1.1,5.6,1.2c0.2,0.3,1.8,0.2,2.4-0.2
		c3.1-1.9,6.6-1.2,10-1.7c0.7,1.1,1.4,2.2,2.2,3.6c-3.4,3.2-7.6,4.1-12.1,4.2c-7.6,0.1-15.2,0.1-22.8,0.3c-8.6,0.1-16.5,2.6-24,6.9
		c-15,8.6-29.5,18-43.3,28.4C631.8,248.3,629.8,250.1,626.8,250.4z"/>
	<path fill="#FFFFFF" d="M781.7,638.3c-3.7-5.7-3.7-5.7-7-6.2c-2.5-9.4-3.1-18.9-1.8-28.6c0.8-5.6,1.1-11.2,1.2-16.9
		c0.1-6.3,1.6-12.3,1.9-19.3c2.4,3.5,4.4,6,4.3,10.2c-0.1,12,1.6,23.9,3,35.8c0.4,3.3,0.8,6.4-1.1,9.6c-1.1,1.8-1.6,4.3-0.7,6.4
		C782.7,632.1,781.9,634.7,781.7,638.3z"/>
	<path fill="#FFFFFF" d="M730.6,199.5c-10,2.7-20.1,1.5-30.2,2.7c-2.2-4.1-3.8-8.6-8.6-11.1c3.3-1.5,6.2-1.5,9.1-1.8
		c5-0.5,10-1,15-1.1c3.4,0,6.7,1.2,9.9,2.3c1.3,0.4,1.7,1.7,1.9,2.9C728.1,195.7,729,197.6,730.6,199.5z"/>
	<path fill="#FFFFFF" d="M820.6,207.5c-9.4-0.5-18.8-0.1-28.2,0.2c-9.5,0.3-19,1-28.6,1.9c-2.2-2.1-0.4-3.7,0.5-5.4
		c7.7-0.3,15.4-0.4,23.1-1.1c9.2-0.8,18.3-0.2,27.5-0.7C818.4,202.2,820.6,204.4,820.6,207.5L820.6,207.5z"/>
	<path fill="#FFFFFF" d="M791,210.7c3.4,5,6.9,10,10.3,15c0.3,0.5,0.6,1.2,0.5,1.7c-0.9,8.5,1.5,17.1-0.9,25.8
		c-1.4-1.2-2.7-2.6-4.4-3.5c-1.6-0.8-1.4-2.5-1.6-3.9c-0.8-5.9-0.5-11.7,0.1-17.6c0.3-2.9,0.2-5.5-2.3-8
		C790.4,217.8,791.1,214,791,210.7z"/>
	<path fill="#FFFFFF" d="M760.3,213.4c5.8-2.2,11.1-1.6,16.3-2.3c1.1,3.1,1.8,6.1,3.6,8.7c-2.2,2.9-3.2,6-2.5,10.5
		C770.8,225.5,765.8,219.9,760.3,213.4z"/>
	<path fill="#FFFFFF" d="M766.7,649.2c-2.8-3.9,0.1-7.4-0.5-11.3c4.2-0.6,8.2-0.3,11.8-1.9c3,2.4,0,7.2,4.6,8.9
		C777,646.9,771.6,646.9,766.7,649.2z"/>
	<path fill="#FFFFFF" d="M791.5,263.9c-3.7-1.8-4.2-4.5-3-7.6c1.5-4,1.6-7.8-0.9-11.5c-1-1.5-1.4-3.3-1.5-5.2c2.5,1,1.6,3.6,2.9,5.3
		c2.2-6.1,0-13,3.3-19c0.5,2.3-0.3,4.1-0.6,6c-0.9,5.9-0.7,11.7,0.1,17.5c0.3,1.9,1.5,3.7,3.5,4c2.1,0.2,2.7,1.6,3.1,3
		c0.5,1.7-0.9,2.6-2.1,3.5C794.8,261.2,792.3,261.5,791.5,263.9z"/>
	<path fill="#FFFFFF" d="M798.2,622.8c3.7-0.3,7-0.5,10.3-0.7c1.7,2.5,3.3,4.9,5.1,7.5c-4.1,0.8-8,1.5-12,2.3
		C800.5,628.9,799.4,626.1,798.2,622.8z"/>
	<path fill="#FFFFFF" d="M801.6,260.1c0.2,12.8,1.4,24.8,3.4,36.8c-0.4,0-0.8,0.1-1.1,0.1c-2.3-11.2-4.5-22.4-6.7-33.4
		C798.6,262.5,799.7,261.6,801.6,260.1z"/>
	<path fill="#FFFFFF" d="M753,637.3c3.7,0.8,6.9,0.6,10.5,0c0.4,3.6-0.5,7,0.2,10.2c-2.6,2-5.2,1.4-6.3-1.5c-0.9-2.3-1.2-4.7-4-5.7
		C752.5,639.9,753.1,638.8,753,637.3z"/>
	<path fill="#FFFFFF" d="M791.5,635.4c-4.3-1.8-3.6-7.1-7-9.7c3.7-1.1,6.9,2.3,10.4,0.6c1.2,1.9,2.3,3.5,3.4,5.3
		C796,632.8,793.8,634.1,791.5,635.4z"/>
	<path fill="#FFFFFF" d="M807.9,337.7c1.8,8.9,3.6,17.8,5.3,26.7c-5.3-4.4-6.7-10.2-6.3-16.4C807.1,344.5,807.4,341.1,807.9,337.7z"
		/>
	<path fill="#FFFFFF" d="M802.8,329.2c0.3-0.4,0.6-0.8,1.2-1.8c0.7,7.8-0.1,15.1-0.1,22.7c-1.5-0.7-2.9,0.1-4.6-0.2
		c1-5.2,2-10.3,3.1-15.4C802.9,332.7,803.1,330.9,802.8,329.2L802.8,329.2z"/>
	<path fill="#FFFFFF" d="M794.4,210.9c2.6-0.9,4.9-1,7.7-0.9c0.5,3.5,0.2,7.1,0.2,11.5C798.5,218.3,798.5,213.1,794.4,210.9z"/>
	<path fill="#FFFFFF" d="M789.7,219.8c-1.7,1.5-2.7,3.2-4.6,4.1c-1-2.2,1.9-2,1.4-3.6c-0.5-1.2-1.7-0.5-2.6-1c0-2.8,0-5.7,0-8.7
		c1.6,1.5,1.6,1.5,3,7.5c0.8,0.4,0.9-0.5,1.7-0.9C788.9,218,789.3,218.8,789.7,219.8z"/>
	<path d="M704.7,218.5c0,0.3,0,1-0.1,1c-3,0.6-6,1.5-8.7-0.5c-1.1-0.8-2.5-1.8-1.1-4.1c3,1.9,6.3,2.9,9.7,3.5L704.7,218.5z"/>
	<path fill="#FFFFFF" d="M760.7,201.4c0.4,1.2,0.1,2.4-0.4,3.6c-0.8,2-1.5,4.1-1.6,6.4c-0.3,3.4-1.9,4.9-5.8,5.6
		C757.5,212.4,758.2,206.5,760.7,201.4L760.7,201.4z"/>
	<path fill="#FFFFFF" d="M781.8,200.5c-1.8,0.4-3,0.6-4.3,0.1c-0.6-2.2,0-4.6,0.2-7C778.9,195.8,780.2,198,781.8,200.5z"/>
	<path fill="#FFFFFF" d="M735.2,344.5c1.1,3.3,2.4,6.6,5,9.2c-2.4,0.1-3.9-0.7-4.2-3.1C735.7,348.5,735.1,346.5,735.2,344.5
		L735.2,344.5z"/>
	<path fill="#FFFFFF" d="M785.6,231.2c-0.7-3.1,0.9-4.8,2.5-6.9C788.9,227.8,788.6,228.6,785.6,231.2z"/>
	<path fill="#FFFFFF" d="M761.7,364.4c-0.1-0.9,0-1.7,0.3-2.5c1.1-0.7,2.3-0.4,3.5-0.6c0.9,0.5,1.2,1.2,1.1,2.2
		C765,364.2,763.4,364.5,761.7,364.4L761.7,364.4z"/>
	<path fill="#FFFFFF" d="M735.2,344.4c-0.6,0.1-1.3,0-1.5-0.7c-0.8-3.2-1.7-6.3-1.4-9.6C733.5,337.5,734.7,340.9,735.2,344.4
		L735.2,344.4z"/>
	<path fill="#FFFFFF" d="M782.8,223.4c2.4,2.6-0.4,4.4-0.6,6.6C781.8,227.7,779.6,225.4,782.8,223.4z"/>
	<path fill="#FFFFFF" d="M743.3,142c-1.4,0.9-2.9,1.6-3,3.7c-3.7-3,0.9-3.7,1.1-5.5C742.3,140.4,742.6,141.2,743.3,142z"/>
	<path fill="#FFFFFF" d="M787.8,238.2c-1.3-1.7-1.8-3.2-2.2-4.6c0.6-1.1,1.4-1,2.5-1.1C788.4,234.4,788.4,236.1,787.8,238.2z"/>
	<path fill="#FFFFFF" d="M781.6,210.7c-0.3,1.4,0,2.7-0.8,3.8c-1.4-0.6-1.2-2.2-2.1-3C779.2,210.2,780.3,210.8,781.6,210.7z"/>
	<path fill="#FFFFFF" d="M795.4,355.3c0.6-0.6,1.3-0.5,2-0.6c1.2,1.1,1.1,2.7,1.6,4c-0.6,1.3-1.7,1.2-2.8,1.2l0.1,0.1
		c-0.9-1.3-0.1-2.9-0.6-4.3C795.6,355.6,795.5,355.5,795.4,355.3z"/>
	<path fill="#FFFFFF" d="M811.9,197.9c0.5,0.8,0.7,1.2,0.5,2c-2.3,0.4-4.8,0.5-7.2-0.1C807.5,199.7,809.8,199.1,811.9,197.9z"/>
	<path fill="#FFFFFF" d="M743,115.3c1.8-1,3-1.7,4.3-2.4C748.1,115.4,747.3,115.9,743,115.3z"/>
	<path fill="#FFFFFF" d="M761.3,119c1.3-1,2.3-1.7,3.8-2.9c-0.4,1.6-0.6,2.7-0.8,3.6C763,120.7,762.4,120,761.3,119z"/>
	<path fill="#FFFFFF" d="M781.1,195c2.2,1,3,3.3,4.4,5C783,199.2,782.6,196.6,781.1,195z"/>
	<path fill="#FFFFFF" d="M618.4,245.6c1.7,0.7,3.1,1.4,2.3,3.7C618.6,248,618.6,248,618.4,245.6z"/>
	<path fill="#FFFFFF" d="M743,112.8c-0.3,1.1-0.8,1.8-1.5,2.3c-0.7-0.2-1.5-0.5-2.6-0.8C740.1,113.3,741.2,112.5,743,112.8z"/>
	<path fill="#FFFFFF" d="M788.9,654.3c-1-0.1-1.9-0.1-3-0.2c0.4-0.9,0.8-1.7,1.2-2.6C788.1,652.3,788.8,653.1,788.9,654.3
		L788.9,654.3z"/>
	<path fill="#FFFFFF" d="M761,129.9c-0.5,1.1-1,2.2-2.8,2C758.5,130.2,759.7,130,761,129.9z"/>
	<path fill="#FFFFFF" d="M761.8,113.5c0.9,2.7-1.1,2.9-2.1,4.4C759.6,115.8,760.4,114.9,761.8,113.5z"/>
	<path fill="#FFFFFF" d="M767.6,103.3c-1.2,0.5-2,1.2-3,1.1C765.2,102.7,765.2,102.7,767.6,103.3z"/>
	<path fill="#FFFFFF" d="M789.2,107.1c0.3,1.7,0.9,3.1-1.5,2.5C787.4,108.5,787.8,107.9,789.2,107.1z"/>
	<path fill="#FFFFFF" d="M796.9,115.7c-0.5,1.6-1.6,2.3-3.2,2.3C794.8,117.3,795.8,116.5,796.9,115.7z"/>
	<path fill="#FFFFFF" d="M772.7,121.7c-0.6,0.4-1.2,0.8-1.7,1.2c-0.5-0.1-0.6-0.6-0.5-0.8C771,121,771,121,772.7,121.7z"/>
	<path fill="#FFFFFF" d="M781.8,106.3c-1.5,1.1-2.3-0.7-3.4-0.7C779.5,105.5,780.7,105.3,781.8,106.3z"/>
	<path fill="#FFFFFF" d="M796.4,122.8c-1.1,0.8-1.9,0.9-2.8,0.5C794.3,122.4,795.1,122.3,796.4,122.8z"/>
	<path fill="#FFFFFF" d="M777.9,123.9c0.6-1.1,1.5-0.9,2.5-0.7C779.7,124,778.9,124.2,777.9,123.9z"/>
	<path fill="#FFFFFF" d="M800.2,356c0.5,0.8,1.5,1.4,1.1,2.5C800,358.1,800.5,356.9,800.2,356z"/>
	<path fill="#FFFFFF" d="M768.5,116.8c-0.1,1.1-0.5,1.5-1.4,1.4C767,117.1,767.5,116.9,768.5,116.8z"/>
	<path fill="#FFFFFF" d="M749.6,126.9c1.1,0.6,0.6,1.5,1,2.6C749,128.6,748.8,127.9,749.6,126.9z"/>
	<path fill="#FFFFFF" d="M722.7,187.2c1.3-0.6,1.2,0.2,1.7,0.8C723.1,188.5,723.3,187.4,722.7,187.2z"/>
	<path fill="#FFFFFF" d="M792.9,115.1c-0.3,0.7-0.8,1.1-1.6,1C791.4,115.1,791.9,114.8,792.9,115.1z"/>
	<path fill="#FFFFFF" d="M755.2,103.8c0-1,0.5-1.5,1.6-1.1C756.2,103.1,755.7,103.4,755.2,103.8z"/>
	<path fill="#FFFFFF" d="M753.3,131.1c0,0.6-0.1,1-0.8,0.8C752.2,131,752.6,130.9,753.3,131.1z"/>
	<path fill="#FFFFFF" d="M738.6,139.5c0.2-0.2,0.4-0.5,0.6-0.8C739.4,139.4,739,139.5,738.6,139.5z"/>
	<path fill="#FFFFFF" d="M755.9,116c0.2-0.6,0.4-0.9,0.9-0.8c0.1,0,0.2,0.4,0.2,0.6C756.9,116.1,756.6,116.3,755.9,116z"/>
	<path fill="#FFFFFF" d="M395.5,409.5c1.5,1.2,2.9,2.6,4,4.2c4.9,7.1,11.6,13,15.5,20.9c0.3,0.5,0.7,1,1.6,1
		c0.9-1.8-1.1-3.3-0.8-5.6c2.1,2.7,3.9,5.1,5.7,7.5c-2.2,1.1-4.1-1.7-6-0.1c-3.1,6.5-7.7,12.2-9.7,19.2c1.7,0.5,2.9-0.7,3.8-2.4
		c5.2,0.2,5.4,0,6.9-9.1c7.5-0.4,13.8-5.3,21.3-6.7c0.1,0.8,0.3,1.5,0.4,2.6c1.5-1.6,1-4.6,4.2-4.2c1.5,2,2,4.8,4,7
		c-3.4,4.3-2.6,8.9-0.7,14.3c-2.6-1.4-4.6-2.5-6.4-3.5c-1.2,0.4-1.1,1.4-1.2,2.2c-0.6,4-1.6,7.9-2.6,11.8c-1.6,6.1-1,12.4-0.7,18.7
		c0.2,4.2,0.6,8.3,1,12.5c0.4,4.3-0.8,8.5-0.7,13c-10.9,3.6-21.3,8.6-32.6,11.3c-5.9,1.4-9.2,0.9-17.1-2.7
		c0.1-5.1,0.1-10.4-0.9-15.6c2,0.3,1,2.3,2.7,3.1c-0.8-5-4.1-9.2-3.8-14.2c-0.1,0.8-0.2,1.6-0.4,2.7c-1.8-1.1-2-3.2-3.3-4.3
		c-0.5,0-0.6-0.4-0.8-0.7c0,0,0,0,0,0.1c0.2,0.3,0.4,0.7,0.3,1c3.9,5.4,4.9,11.5,4.8,18c-0.1,3,0.6,6.1,0.3,9.4
		c-4.9-1.1-9.7-1.8-14-4.3c-1-5.4-1-10.8-1-16.3c0-8.8-0.1-17.6-1.4-26.4c-0.5-3.7-1.7-7.1-3.1-10.5c-0.5-1.1-1.3-2.1-1.1-3.7
		c3.8-1.2,7.9-1,11.3-2.3c1.5,0.3,1.6,1.6,2.6,1.9c1-0.6-0.2-1.6,0.9-2.6c2.6-1.1,5.6-2.5,9.1-0.3c2.6,1.6,5.7-0.5,8.2,0.4
		c1.5-0.6,1.3-2,2.3-2.6c2.5,1.7,4,0.3,5.3-1.7c1.1-1.8,1.3-4,2.4-5.7c-1.1,1.7-1.2,3.8-2.2,5.5c-1.3,2.2-2.8,3.6-5.5,2
		c1.4-3.6,2.8-7.2,4.3-10.9c-2,0.2-2,0.2-6.9,11.1c-2.5,0.6-5.1-0.2-8.3,0.2c1.3-2.1,3.4-2.4,4.2-4c1.9-3.7,1.5-6.9-1.1-10.1
		c-3.7-4.5-5.1-10.1-5.1-15.7c0-5.5-1.5-10-4.2-14.7c-5.4-9.2-12.4-17.3-18.3-26.1c-3.9-5.8-8.8-10.8-12.2-16.8
		c-4.8-8.4-8.1-17.4-8.6-27c-0.3-5.8-1.3-11.2-4.5-15.4c2.7-10.1,4.7-19.7-0.5-29s-5-18.9-2.9-28.9c0.6-2.8,0.8-5.6-0.2-8.3
		c-3.1-7.9-2.5-15.9-0.4-23.8c1.8-6.9,5.7-12.7,10.3-18c0.3-0.4,0.7-0.8,1.1-0.9c4.5-1.2,6.8-5,9.9-7.9c4-3.9,7.8-8.2,13.5-10.1
		c4.9,3.5,9.2,7.5,13.5,12.4c-4,0.1-7.3-1.3-10.7,0.1c3.5,1.7,7.1,2.5,11.4,0.9c4.9,8.7,12,16.2,13.9,26.6c1,5.6,0.6,11.2-0.1,16.8
		c-0.9,7.6-3.9,14.6-6,22.1c-6.1-1.8-6.3-8-9.4-11.8c-3.5-4.4,0.1-9.6,0.8-15.2c-2.7,2-2.1,4.9-3.8,6.5c-0.9,0.7-1.6-1.1-2.9,0
		c0.2,4.3-3.9,6.4-6,9.9c1.4,0.5,2.1-1.1,3.5-0.6c1.4,9.1,2.6,18.2,0.6,27.5c-0.8,3.5-1.6,6.9-2.1,10.4c-0.6,3.5-2.6,6.3-4,9.4
		c-2.6,5.4-2.3,10.5,0.1,15.9c2.5,5.7,5.1,11.3,8,16.9c2.4,4.6,3.5,9.7,3.2,14.9c-0.1,2.3,1.7,3.5,2,5.6c1.7,10.6,4.5,20.8,9.9,30.2
		C391.7,400.5,393.7,405,395.5,409.5l-0.2,0.2L395.5,409.5z"/>
	<path fill="#FFFFFF" d="M420.1,364.8c-0.5,0.5-1.2,1-1.5,1.6c-2.9,5.3-7.9,5.8-13.2,5.8c-3.8,0-7.6,0.1-11.4,0.3
		c-1.4,0.1-2.7-0.1-3.9-0.6c-2.1-0.8-4.2-1.2-6.3-0.5c-0.8-1-0.9-2.1-0.7-3.1c2-0.6,3.7,1.1,5.7,0.2c-1.9-1.6-4.5-1.4-6.4-2.9
		c-2.1-7.2-2.8-14.9-5.5-22.7c5.2,1.2,10.1,1.5,14.9,1.9c-4.6-1.1-9.2-2.4-13.8-3.3c-2-0.4-3-1.3-3.7-3.1c-1.5-3.6-3.5-7-5.3-10.5
		c-2.3-4.6-2.9-9.2-0.7-14.2c2.7-5.9,4.8-12.1,7-18.1c0.5-1.3,0.9-2.6,2.3-3.1c5.6-2,9-6.5,12.7-10.8c2.9-3.5,4.6-7.2,4.3-11.8
		c-0.1-1.1,0.5-2.4,0.9-3.5c3.1-9.3,3.8-18.9,3.7-28.7c0-0.8-0.4-1.7-0.7-2.4c-3.7-9.3-8.6-17.9-14.6-25.9
		c-3.5-4.7-8.4-7.9-12.6-11.8c-0.4-0.4-0.9-0.7-1.4-1.1c0.6-1.1,1.5-1.4,2.6-1.9c2.2,2.4,4,5.3,6.6,7.2c8.4,6.2,14.3,14.7,20.6,22.8
		c0.7,0.9,1.4,1.7,2.2,2.4c3,2.8,6.3,5.3,8.9,8.6c2.5,3.2,6.5,4.2,10.4,5.4c0.7-0.8,1.5-1.6,2.9-1.7c5.6-0.7,8.9-5.4,7.6-11
		c-0.6-2.6-0.9-5.3-1.3-7.9c-0.7-5.4-3.5-9.9-6.7-14.1c-1.2-1.5-2.2-3.1-3.1-4.8c1.2,0.4,1.9,1.4,2.6,2.3
		c3.9,5.2,7.7,10.5,11.7,15.6c5.1,6.7,8.7,14.2,11.3,22.1c1.6,5,2.2,10.4,1.6,15.6c-1,8-1.5,16.2-5.8,23.3c-0.4,0.7-0.4,1.4-0.3,2.1
		c1,4.5,0.6,9.3,2,13.8c0.8,2.6,0.4,5.4,0.3,8.1c-0.2,7,0.4,14,0.1,20.9c-0.4,9.6,0.3,19.1-0.3,28.7c-0.2,3.1,0,6.1,0,9.4
		c-2.5-0.4-4.7,0-6.9,0.9c-5.2,2.2-10.6,4-16,5.3c-1,0.3-2,0.8-3.3,0.2c1-1.6,2-3.1,2.9-4.6c-0.1-0.3,0-0.5,0.2-0.7
		C420.5,364.7,420.3,364.8,420.1,364.8z"/>
	<path fill="#FFFFFF" d="M465.8,502.5c-4,2.5-8.5,3.8-12.9,5.2c-4.4,1.4-9.2,0.7-13.4,2.8c0.5,3.5,1.6,4.3,4.6,3.2
		c2.9-1,5.7-2,8.9-2c0.5,2.8-1.6,4.6-1.9,6.8c-3.6,0.7-6.9,1.4-10.3,1.5c-0.4,2.3,0.4,3.5,2,4.3c1.5,0.7,2.8,0.3,3.9-1
		c-1-1-2.3,0-3.4-0.9c2.8-0.7,5.3-1.3,8.1-1.9c0.5,3.5-2,6-2.5,9.1c1.1,0,1-1.2,1.9-1.4c1.1,2.9-0.4,5.3-1.5,7.8s-1.8,5.2-2.5,8.7
		c2-2.6,3.1-4.9,4.1-7.5c1,1.6,0.8,3,0.9,4.5c1,10.4-0.3,20.5-2.2,30.7c-1.6,8.6-2,17.3-2.7,26c-0.2,3.1-1.7,5.9-2.1,8.9
		c-0.8,6.6-0.1,13.2,0.4,20.1c-3.4,1.5-8.9-0.6-11,4.9c-2.6-0.1-5.3-0.2-7.9-1.2c-0.6-3.1-0.9-6.3-2.1-9.3c-0.8-2,0.6-4.2,0.4-6.5
		c-0.7-6.7-1.2-13.4-1.7-20.1c0-0.2-0.1-0.5-0.1-0.7c-0.4-4,0.5-8.3-0.6-12s-4.3-6.7-5.8-10.5c-0.5-1.1-0.5-2.1-0.5-3.2
		c0.2-5.9,0.5-11.8,0.8-17.6c0.2-3.4,2.6-5.8,4.2-8.4c3.4-5.6,5.1-11.6,5.4-18.1c0.1-3.3,1-5.6,4.5-6.6c2.2-0.6,4.2-2,6.7-2.2
		c2.5-12.7,0.2-25.3-0.5-38.8c6.1,6.7,8.8,14.5,13.7,21.6c0.4-1.9-0.4-2.8-0.9-3.7c-3.1-6.2-6.3-12.5-10.6-18
		c-2-2.5-2.3-4.9-1.7-7.9c0.9-3.9,1.4-7.9,2.2-12.2c3.4,1.9,7,3.2,9.1,6.9c1.3,2.4,3.8,4,5.2,6.6c1.3,2.4,1.6,4.5,0.6,7
		c-0.6,1.6-1.2,3.2-1.3,4.9c-0.2,3.4,1.3,5.6,4.5,6c2.7,0.3,3.3,3.7,6.3,3.2C464.1,495.3,466.6,498.6,465.8,502.5z"/>
	<path fill="#FFFFFF" d="M374.3,193.1c6.7-4.3,5.6-10.8,4.8-16.5c-0.6-4,0.1-7.2,2-10.4c0.6-1,0.8-2.3,2.3-3.3
		c0,5.1,0.7,9.7,5.1,12.7c-2.8-5.7-2.5-11.9-3-17.9c-1.2,0.1-1,1.7-2.3,2c-1.1-1.7-2.6-3.2-3.5-5.4c1.8,0.3,2.4,2.1,4.2,2.3
		c2.4-1.2,2.2-2.8,0.3-4.5c0-1.1,1.1-1.1,1.4-1.8c0.1-1.2-1.3-1.6-1.6-2.7c0-0.4,0.4-0.5,0.8-0.6c1.9-0.2,1.9,1.2,1.8,2.4
		c-0.2,2.6,0.5,5.1,0.8,7.7c0.1,1.2,0,2.8,2.2,3.5c-0.2-11.1,8.2-16.7,15.1-23.1c7.8-7.2,17.4-5,26.9-4.2c0.7,4.2,1.4,8.3,2.1,12.3
		c-4.4,2.9-4.6,3.3-3.2,8.8c0.3,1.1,0.5,2.2,0.7,3.2c0.4,2.3,0.9,4.6,1.4,7.1c-3.2,1.8-5.8-0.4-9-0.7c-0.7,0.6-0.5,1.5,0.2,2.5
		c1.4,1.7,2.9,0.3,4.5,0c0.9,2.3,1.3,4.5,1.4,6.8c-4,1.2-8.4,0.2-12.7,2.8c4.3,3,7.8-1.7,11.3,0.4c0.2,0.9-0.5,1.7-0.8,2.5
		c-2,1-4.5-0.1-6.4,1.8c1.5,2.3,3.8,1,5.6,1.5c1.1,6.8-3.9,10.4-10.8,7.9c-3.2-1.2-6.4-2.4-9.7-3.5c-1.2-0.4-2.4-1.1-4.4-0.7
		c3.4,4.6,7.9,6.3,13,7.2c0.6,4.6-0.6,9.5,1.3,14.8c0.9-3.1,0.6-5.4,0.4-8.4c5.3,7.9,9.5,15.4,11.9,24c0.9,3.2,1,6.2,0.1,9.3
		c-0.5,1.7-1.2,3.2-2.4,4.5c-1.1-0.1-2.3-0.5-3.2-0.2c-3.7,1.3-6.3-0.3-8.9-2.6c-4.7-4-9-8.3-12.8-13.1c-4.4-5.6-8.9-11.1-13.7-16.3
		c-2.3-2.5-4.6-5-7.9-6.5C377.4,197.7,376.3,195.2,374.3,193.1z"/>
	<path fill="#FFFFFF" d="M423.4,521c-0.3,8.9-0.8,17.1-8.2,23.3c-1.1,4.8-0.6,10.1-1.6,15.3c-2.2,11.6-2.3,23.5-3.7,35.2
		c-1.8,14.8-2.5,29.7,0.8,44.5c0.1,0.5,0,0.9,0,1.8c-4.2,0.6-8.2,1.9-12.6,0.7c-0.6-2.3-0.3-4.8-1.7-6.9c-1.7,2.2-0.5,4.8-1.2,7
		c-1,0.8-2,0.8-3.3,0.5c-0.9-10.8-3.1-21.3-5.5-31.8c-1.9-8.6-4.5-17.1-6.1-25.7c-2.3-12.8-0.8-25.4,3-37.7
		c1.4-4.5,4.5-8.4,5.2-13.2c0.3-2.2,0.8-4.3,1.2-6.7C401.1,526.3,412.7,526.9,423.4,521z"/>
	<path fill="#FFFFFF" d="M435.8,373.2c1.4,1,3.1,0.4,4.8,0.9c1.8,2.9,3.7,6.1,7.6,7.2c-1.7-3.3-4.8-5.8-6.5-9.9
		c2,0.8,3.5,1.6,4.2,3.3c0.1,0.1,0.1,0.3,0.2,0.3c5.2,3.7,6.1,9.8,8.2,15.1c1.1,3,1.2,6.5,1.6,9.7c1,6.9,1.8,13.8,2.8,20.8
		c-5.2,2.4-10.6,3.3-16.2,5.2c0.3-5.5,0.6-10.3,0.9-15.2c-2.2,4.8-1.5,10-2.2,15.5c-6.7,2-13.5,4-20.4,6c-2-2.8-4.9-4.2-7.7-5.9
		c-2.7-1.6-4.4-4.8-6.6-7.3c-2.3-2.7-4-5.9-7-8c-0.4-0.3-0.6-0.8-0.7-1.2c-2.6-7-7-13.3-9.3-20.3c-1.5-4.8-4.4-9.2-5.1-14.3
		c2.3,0.4,5.6-2.1,6.1,2.3c1.6,0.1,0.7-1.5,1.9-1.8c1.3,1.5,3.3,1.6,5.3,1.5c0.8-0.6-0.5-1.7,0.6-2.2c1.5-0.3,1.1,1.4,2.2,1.8
		c1-0.5,0.8-2.6,2.9-2.4c1.5,0.2,2.7,0.1,2.6,2.2c-3,1.1-6.4,1-9.6,2.7c2.2,1.2,4.4,0.1,6.6,0.6c1,3,0.2,6,0.4,9
		c1.9-2.9,1.7-6.3,2.3-9.7c2-0.9,3.2-2.5,2-5c1.6-0.2,1.3,1.6,2.5,1.6c0.9-0.4-0.1-1.7,1-2.1c6.6-0.9,13.2-2.3,19.6-4
		c0.5,0.8-0.5,1.6,0.4,2.2c1.1-0.5,1.8-1.4,1.4-2.8c1.5-0.4,2.8-0.8,4-1.1c1.5,1.1,1.2,2.7,1.9,4
		C437.9,373.3,436.8,373.2,435.8,373.2l-0.1-0.1L435.8,373.2z"/>
	<path fill="#FFFFFF" d="M447.4,323c1.1,5.5,2.7,10.9,5.1,16c2,4.4,4.8,8.2,7.7,12c6.5,8.9,13.3,17.6,15.2,29
		c0.3,1.9,0.9,3.8,1.7,5.6c1.3,2.9-0.7,5.5-1.4,8.1c-0.6,2.3-1.4,4.6-3,6.6c-1.3,1.6-0.9,3.5-0.3,5.3c0.4,1.4,1.3,2.7-0.4,3.8
		c1.9,2.2,2.5,4.5,2.8,6.9c-3.3,2.1-7.8,3.3-12.7,3.4c-0.4-2.9-0.9-5.7-1.1-8.6c-0.9-10.6-3.8-20.7-7.2-30.7
		c-0.5-1.4-1.5-2.5-2.4-3.6c-2.6-3.3-4.7-6.9-4.6-11.3c0-14.1,0-28.3,0-42.4C446.9,323,447.1,323,447.4,323z"/>
	<path fill="#FFFFFF" d="M392.7,651.3c0.5,4.2,2.8,6.7,6.6,7.9c1.2,0.4,2.5,0.7,3.5-0.1c1.7-1.1,3.2-0.6,5.1,0.1
		c-0.7,0.6-1.2,1-1.8,1.5c0.4,1.7,3.7,1.1,2.7,3.4c1.5,1.1,2.8,0.4,3.9,0.8c-0.7,3.2-0.7,3.2,6.2,3.8c0.4,1-1.1,1.7-0.6,2.5
		c0.4,1.3,1.3,1.8,2.3,2s0.8,1.5,2.2,1.8c3.8-0.3,8.4,0.9,11.5-3.3c-1.1-3.2-3.6-1.9-5.7-2.3c2.2-2.1,1.9-3.6-1-4.3
		c0.3-0.9,1.4-1.4,0.9-2.3c-0.6-1.5-2.1-1.2-3.2-1.5c0.5-0.9,0.9-1.6,1.4-2.5c3,4.5,6.7,7.9,11.4,10.4c2.6,1.3,4.2,4.5,7.8,4.3
		c0.9,0,1.3,1.3,1.4,2.3c0.4,3.6,0.3,7-3.4,8.9c-1.4,0.7,0.1,1,0.2,1.6c-2.3,2-5.2,2.8-8.1,2.7c-2.5-0.1-4.8,0.5-7.2,1
		c-8,1.8-15.3,0.2-21.5-5.5c-2.1-1.9-4.5-3.4-5.2-6.4c-0.2-0.6-0.8-1.6-1.3-1.7c-4.1-0.7-7.5-3.4-12.3-3.8
		C389.5,665.9,393.9,659.1,392.7,651.3z"/>
	<path fill="#FFFFFF" d="M436.2,664.9c3.2,0.4,6.1,2.1,9.1,3.5c0.7-1.3,0-1.7-0.6-1.9c-2.7-1.3-5.1-2.8-7.2-4.9
		c-1.5-1.5-3.4-0.8-5.4-0.3c-2.9-3.9-6.2-7.5-10-10.9c3.2-2.2,2.5-5.5,2.9-8.7c2.9,4.8,3.9,5.1,9.5,3.5c1.7-0.5,3.2,0.8,5,0.3
		c-0.9,3.2-0.5,4.2,2,4.3c2,0.1,3.7,0.3,5.3,1.7c1.1,0.9,2.9,0,4.6,0.1c4.2,4.8,9.3,5.9,15,2.2c1,0.7,1.8,1.3,2.5,1.7
		c0.9,0.2,0.7-1.1,1.9-0.8c3.5,3.7,9.5,4.6,12.9,9c-0.4,3.9-2.4,6.1-5.3,8.1c-6.5,4.5-13.9,3.9-21.2,4.3c-0.9,0.1-2.2-0.1-2.8-0.7
		C449.3,670.2,441.1,670.4,436.2,664.9z"/>
	<path fill="#FFFFFF" d="M362.6,388.8c4.2,5.3,7.9,10.1,11.7,15c1.6,2.1,2,4.3,0.9,6.8c-0.9,2.1-1.3,4.3-1.4,6.7
		c1-2.5,1.9-4.9,2.9-7.4c5.1,4.4,5.2,10.5,5.8,16.3c0.6,4.9,1.7,9.6,3.8,14.5c-3.9,1.1-7.8,2.1-11.8,3.2c-2.1-7.7-5.8-14.8-5.6-23.2
		c-1.6,1-1.3,2.1-1.2,3.1c0.8,5.1,2.2,10,4,14.9c0.6,1.7,1.1,3.5,1.7,5.6c-3.7,1.7-7.8,2.1-11.8,4.5c-0.7-5.9-2.1-11.2-1.9-16.4
		c0.3-5.5-1.1-10.7-1.9-16c-0.9-6.5-0.9-12.9,1.7-19C360.8,394.8,361.9,392.2,362.6,388.8z"/>
	<path fill="#FFFFFF" d="M306.2,512.3c-2.3-3.9-6-5.1-10.3-6c5.4-5.1,10.7-9.8,15.7-14.9c12.4-12.5,25.1-24.8,38.8-35.9
		c1.6-1.3,3.6-1.5,5.3-2.2c8.6-3.1,17.4-5.9,26.1-8.7c2.3-0.8,4.7-1.4,7.3,0.2c1.1,3.2,0.2,5.1-3.7,6.4c-4.9,1.7-9.9,2.8-14.9,4
		c-9.1,2.2-16.9,6.7-23.7,13.2c-12.3,11.9-23.8,24.4-34.4,37.8C310.8,508.4,309.1,510.7,306.2,512.3z"/>
	<path fill="#FFFFFF" d="M415.6,577c3.2,3.3,4.1,7,4.2,11.3c0.2,11.5,1.6,22.9,3.2,34.3c0.4,2.8,0.5,5.5-1.1,8.1
		c-1.3,2.2-1.7,4.8-0.6,7.4c1,2.5,0.5,4.9-0.3,7.5c-3.6-5.1-3.6-5.1-6.8-5.6c-2.4-9.2-3.2-18.6-1.7-28.1c0.4-2.6,0.4-5.4,0.6-8.1
		C413.5,595,414.2,586.1,415.6,577z"/>
	<path fill="#FFFFFF" d="M477.5,418.8c1.2,1.1,2.9,1.6,4.3,3.7c-22.2,5.7-43.6,12.4-64.6,20.4c-1-2,0.1-2.7,1-3.5
		c3.5,0.7,3.5,0.7,5.9-1.3c0.4-1.3-1-1.9-1.2-3.5C440.8,429.4,458.6,423.3,477.5,418.8z"/>
	<path fill="#FFFFFF" d="M405.7,645.7c4.4,0,8.2-0.2,11.8-1.7c2.9,2.4,0.3,6.9,4.4,8.8c-5.4,2-11,1.9-15.7,4.2
		C403.4,653.2,406.3,649.7,405.7,645.7z"/>
	<path fill="#FFFFFF" d="M457.3,445.6c1.7,0.7,1.9,2.5,1.7,3.9c-0.9,8-0.9,15.9,1.4,24c1.2,0.5,1.6,3,3.9,2.6c0.5,2.1,0.9,4,0.9,5.9
		c-1.1,2.1-4.2,2-4.5,4.7c-4-2.2-4.6-3-3.6-7c1-4.3,1.1-8.1-1.7-11.8c-1.1-1.5-1.6-3.5-2.4-5.4c3.2,0.6,1.9,4.2,4.4,5.9
		c0-4.1,0-7.8,0-11.5C457.3,453.2,457.3,449.5,457.3,445.6z"/>
	<path fill="#FFFFFF" d="M437.8,631c3.7-0.2,7-0.4,10.5-0.7c1.5,2.5,3,4.8,5.1,7.2c-4.2,0.8-8,1.5-12,2.3
		C439.8,637.2,439,634.2,437.8,631z"/>
	<path fill="#FFFFFF" d="M392.7,645.5c3.4,0.2,6.7,0.5,10.3-0.2c0,3.8,0,7.2,0,10.6c-3.5,1.1-5.1,0.4-6.2-2.4
		c-0.8-2.2-1.3-4.5-3.9-5.3C392.2,647.9,392.4,646.9,392.7,645.5z"/>
	<path fill="#FFFFFF" d="M380.6,287.1c-3.9-3.7-3.8-8.6-4.3-13.7c3.8,2.5,7.3,5,11.8,5.6C385.6,281.6,383.9,285.1,380.6,287.1
		L380.6,287.1z"/>
	<path fill="#FFFFFF" d="M438.3,639.5c-2.8,1.4-5.1,2.5-7.1,3.9c-4.4-1.8-3.9-7-7.1-9.6c3.7-0.9,7,2.2,10.5,0.6
		C435.7,636.2,436.4,637.9,438.3,639.5z"/>
	<path fill="#FFFFFF" d="M455.1,432.6c1.7-0.5,3.1-1.3,4.9-1.1c1.3,4.2,0.7,8.5,0.8,13.2C456,441.7,455.6,437.2,455.1,432.6z"/>
	<path fill="#FFFFFF" d="M448.9,453.7c-1.2-1.8-1.6-3.6-1.4-5.4c1.1-2.1,3.9-2.2,4.9-4.3c-0.4-1.7-2-0.6-3-1.4
		c-0.3-2.6-0.6-5.4-0.3-8.6c2.9,2,2,5.4,3.6,7.5c0.9,0,0.6-1,1.2-1.4c1,0.5,1,1.6,1.4,2.6C453.1,446.3,448.9,448.7,448.9,453.7z"/>
	<path fill="#FFFFFF" d="M455.1,448.1c0,4.4,0,8.9,0,13.2C451,456.7,450.7,452.4,455.1,448.1z"/>
	<path fill="#FFFFFF" d="M462.7,467.6c-1.3-5-1.4-10.1-1.1-15.6C464.7,457.4,463.5,462.5,462.7,467.6z"/>
	<path fill="#FFFFFF" d="M382.5,148.2c-0.8,1.6-2.8,1.9-2.6,3.9c-1.3-0.5-2.2-1.1-1.4-2.5C379.4,148,380.9,148.1,382.5,148.2z"/>
	<path fill="#FFFFFF" d="M466.1,486.3c-0.2,2.6-2,2.8-4.4,2.7C462.6,486.7,464.8,487.1,466.1,486.3z"/>
	<path fill="#FFFFFF" d="M380.6,287c-0.4,1.8-1.9,2.5-3.2,3.7c-0.7-1.2-0.3-2.2-0.1-3.2C378.3,286.7,379.5,287.2,380.6,287
		L380.6,287z"/>
	<path fill="#FFFFFF" d="M401.1,125.7c0.9-1.2,1.9-2,3.3-2.6c0.3,1.3-0.8,2.2-0.5,3.2C402.7,127.2,401.9,126.8,401.1,125.7z"/>
	<path fill="#FFFFFF" d="M387.2,119.1c-0.2,3.2-0.7,3.4-4.3,2.8C384.1,120.6,385.6,120.4,387.2,119.1z"/>
	<path fill="#FFFFFF" d="M296.7,509.4c1.8,0.4,3.6,0.3,3.4,3C298.2,512.3,297.1,511.6,296.7,509.4z"/>
	<path fill="#FFFFFF" d="M446.5,439.5c-0.7-1.3-2.7-2.4-0.6-4.4C447.1,436.5,446.7,438,446.5,439.5z"/>
	<path fill="#FFFFFF" d="M382.4,119.5c0.1,1-0.7,1.5-1.2,2.3c-0.9-0.3-1.7-0.5-3.1-0.9C379.8,120,380.8,118.9,382.4,119.5z"/>
	<path fill="#FFFFFF" d="M409.9,452.5c0.8-1.5,1.3-2.6,1.9-3.7C413.5,451.4,413.5,451.4,409.9,452.5z"/>
	<path fill="#FFFFFF" d="M403.9,111.4c0.2-2.7,1.4-2.4,2.9-1.6C406.1,110.7,405.1,110.8,403.9,111.4z"/>
	<path fill="#FFFFFF" d="M397.5,138.2c0.8-1.3,1.6-1.9,3-2.1C399.6,138,399.6,138,397.5,138.2z"/>
	<path fill="#FFFFFF" d="M401.7,120.6c0.2,2.2-1.3,2.6-2.7,3.8C399.5,122.5,399.6,121.2,401.7,120.6z"/>
	<path fill="#FFFFFF" d="M428.9,116.5c-1.7-0.8-1.7-0.8-0.7-2.4C429.6,114.6,428.9,115.5,428.9,116.5z"/>
	<path fill="#FFFFFF" d="M433.2,124.6c1.1-0.7,2.2-1.5,3.5-2.3C435.5,124.1,435.5,124.1,433.2,124.6z"/>
	<path fill="#FFFFFF" d="M421.3,113c-1.4,1.1-2.2-0.7-3.4-0.7C419.1,112.1,420.2,111.9,421.3,113z"/>
	<path fill="#FFFFFF" d="M412.1,128.1c-0.5,0.8-1.1,1.2-2.1,1.4C410,127.8,410.2,126.8,412.1,128.1z"/>
	<path fill="#FFFFFF" d="M433,129.9c1-0.9,1.8-0.9,2.8-0.8C435,130.4,434.1,130.3,433,129.9z"/>
	<path fill="#FFFFFF" d="M420.1,129.8c-0.9,0.9-1.6,1-2.5,0.8C417.9,129.2,418.9,129.7,420.1,129.8z"/>
	<path fill="#FFFFFF" d="M439.7,369.4c0.9,0.8,1.3,1.4,1.2,2.7C440,371.3,439.8,370.7,439.7,369.4z"/>
	<path fill="#FFFFFF" d="M389.7,136c-1.2-0.8-1.5-1.5-0.4-2.5C389.9,134.3,390.1,135,389.7,136z"/>
	<path fill="#FFFFFF" d="M407.9,123.4c0,1.2-0.5,1.5-1.3,1.5C406.4,124,406.9,123.6,407.9,123.4z"/>
	<path fill="#FFFFFF" d="M430.6,122.6c0.3-0.7,0.9-1,2-0.8C431.9,122.3,431.6,123.2,430.6,122.6z"/>
	<path fill="#FFFFFF" d="M396.3,109.4c-0.6,0.4-1.1,0.7-1.7,1C394.8,109.3,395.2,108.7,396.3,109.4z"/>
	<path fill="#FFFFFF" d="M480.8,424.9c0.9,0.3,1.3,0.7,1,1.8C480.9,426.4,480.5,426,480.8,424.9z"/>
	<path fill="#FFFFFF" d="M396.5,121.7c0.2,0.9-0.1,1.1-0.7,1.2C395.3,122.1,395.7,121.9,396.5,121.7z"/>
	<path fill="#FFFFFF" d="M447.1,441.5c0.7,0.5,0.9,0.9,0.6,1.3c-0.1,0.1-0.5,0.2-0.6,0.1C446.5,442.5,446.8,442.1,447.1,441.5z"/>
	<path fill="#FFFFFF" d="M392.7,137.6c0.3,0.6,0,0.9-0.5,1c-0.1,0-0.2-0.1-0.3-0.2C391.8,137.7,392.2,137.6,392.7,137.6z"/>
	<path fill="#FFFFFF" d="M844.4,205.6c1.5-2.3,2.6-4.2,3.9-6.1c7-0.9,13.8-0.9,20.3,3.4c7.3,4.9,14.3,10.3,22,14.6
		c3.3,1.9,3.2,5.1,0.1,8c-4-3.1-8-6.1-12-9.3c-4.4-3.6-8.9-6.9-14.1-9.1c-1.4-0.6-2.7-0.9-4.2-0.9
		C855.2,206.2,850,206.2,844.4,205.6z"/>
	<path fill="#FFFFFF" d="M555.5,422.3c-5.1-2.2-10.3-4.3-15.3-6.8c-4.9-2.4-10-3.9-15.3-4.9c-1-0.2-1.9,0-2.9,0.3
		c-5.5,1.8-11.2,2.6-17,3.9c-0.4-2.3,0-4.3,0.5-6.5c4.7-1.8,9.6-3.1,14.5-4c2.9-0.5,6,0.9,8.9,1.7c8.3,2.4,16.2,6.2,24.6,8.5
		C557.3,415.6,558,419,555.5,422.3z"/>
	<path fill="#FFFFFF" d="M500.9,418.3c-0.4,1.8-0.4,1.8-1.4,3.1c-0.9-0.6-0.3-1.2,0-1.7C499.8,419.2,499.9,418.5,500.9,418.3z"/>
	<path d="M776.3,494.6c3.1,1.7,3.4,4.4,2.9,7.5c-5.1,1.6-7.2,1.2-8.3-1.8c-0.9-2.3,0.3-4,4.1-5.8c1.2-2.3,1.5-5,3.6-7.1
		C777.8,489.7,777.1,492.1,776.3,494.6z"/>
	<path d="M729.3,408.3c-0.1,6.8,2.3,12.4,3.9,18.2c2.2,8,4.8,15.9,5.4,24.2c-1.1-1.9-1.6-4.1-3.4-5.5c1.6-1.7,0.8-3.5,0.2-5
		c-1.9-4.5-1.6-9.5-3.3-14c-1.8-4.6-3.1-9.3-3.8-14.2C728.1,410.9,727.5,409.7,729.3,408.3z"/>
	<path d="M788.9,554.3c0.8,3.7-0.8,6.6-2.6,10.4c0,1.2,1.2,3.6-1.3,5.3c-2.7-3.3-2.4-6.2-0.2-9.1C786.4,559,788.3,557,788.9,554.3z"
		/>
	<path d="M765.7,504c-2.3-0.1-4.2-1.9-4.2-4.2c0-2.4,2-4.1,4.7-4c2.6,0.1,4,1.7,3.9,4.3C769.9,502.4,768.1,504.1,765.7,504z"/>
	<path d="M761.4,504.1c-2.6,0.5-2.9-1.7-4.3-1.9c-1.6,0.1-0.5,2.1-2.1,2.4c-1.3-2.3-0.8-4.9-0.9-7.4c1.6-0.7,3-0.6,4.4-0.4
		c1.9,0.3,3,1.7,2.1,3.3C759.7,501.7,760.2,502.7,761.4,504.1z"/>
	<path d="M795.4,567.7c1.2,3.7,0.4,8.7-1.7,11.5C792.1,575.8,792.8,570.5,795.4,567.7z"/>
	<path d="M789.6,544c-1-4.1,0.9-8.1,0.5-12.1C791.9,536,791,540.1,789.6,544z"/>
	<path d="M795.1,562.5c-0.6-5.1,0.2-9.6,1.2-14.3C797.5,550,796.8,557.8,795.1,562.5z"/>
	<path d="M803.6,398.4c-0.4,5.2,0,10.5-1.3,15.6C801.9,408.7,802.1,403.5,803.6,398.4z"/>
	<path d="M729.9,392.6c1.2,4.8-0.2,9.4-0.3,14.1C728.9,401.9,729.4,397.2,729.9,392.6z"/>
	<path d="M788.3,373.1c-2-3.8-1.6-8.1-2.4-12.2C788.2,364.7,788.4,368.8,788.3,373.1L788.3,373.1z"/>
	<path d="M794.6,615.7c-0.4,2.4,0.4,4.6-1.8,6.2C791.6,619.6,791.7,619.1,794.6,615.7z"/>
	<path d="M798.7,428.6c-0.1-3.1,0.4-6,1.7-8.7C800.3,422.9,800.1,425.9,798.7,428.6z"/>
	<path d="M733.6,407c0.4-3.3,0.9-6.4,2.3-9.2c0.3,0.1,0.5,0.2,0.8,0.3C735.6,401,734.6,404,733.6,407z"/>
	<path d="M808.7,514c0.5,4-0.2,4.7-3.4,4.7C806.3,517.3,807.3,515.9,808.7,514z"/>
	<path d="M792.4,362.2c0.8,2.7,1.6,5.4,2.3,8C792.9,367.8,791.2,365.4,792.4,362.2z"/>
	<path d="M798.4,440.5c-1.1-2.4-1-4.9-0.6-7.3C798.9,435.6,798.9,438.1,798.4,440.5z"/>
	<path d="M754.3,366.1c0.5,2.2,0.3,3.5-1.1,5C752.5,369.2,752.6,367.9,754.3,366.1z"/>
	<path d="M795.7,355.7c0.6,0,1.5,0.2,1.2,0.8c-0.6,1.1,0.1,2.4-0.6,3.5C794.7,358.8,795,357.3,795.7,355.7z"/>
	<path d="M793.3,581c0.5,2.4,0.2,3.9-1.1,5.4C791.5,584.4,791.7,583,793.3,581z"/>
	<path d="M799.6,535.5c0.8,1.6,0.6,3.2,0,4.8C799.2,538.8,799.2,537.2,799.6,535.5z"/>
	<path d="M791.9,590.3c-0.1,1.9-0.6,2.8-1.3,4.1C789.7,592.4,790.6,591.6,791.9,590.3z"/>
	<path d="M805.3,540.7c-0.4-2.1,0.7-3,1.5-4.1C807.1,538.1,806.7,539.3,805.3,540.7z"/>
	<path d="M795.9,611.5c0.9,1.1,0.5,1.8-0.4,2.7C794.5,612.8,794.9,612.1,795.9,611.5z"/>
	<path d="M790,552.9c-0.6-1.2-0.5-2,0.1-2.8C791.4,551,790.8,551.8,790,552.9z"/>
	<path d="M795.8,603.9c0.6,1.1,0.4,1.9-0.8,2.6C794.5,605.3,794.5,604.5,795.8,603.9z"/>
	<path d="M783.5,477.4c0.2,0.8,0.2,1.4-0.2,2.2C783.1,478.8,783,478.1,783.5,477.4z"/>
	<path d="M788.2,373.1c0.5,0.8,0.8,1.6,0.4,2.6C788.1,374.8,788.3,373.9,788.2,373.1L788.2,373.1z"/>
	<path d="M779.7,484.7c-0.4-0.6,0-0.9,0.4-1.2C780.8,484.2,780,484.3,779.7,484.7z"/>
	<path d="M808.7,449c0.6-0.1,1.2-0.1,1.6,0.8C809.5,449.9,809,449.7,808.7,449L808.7,449z"/>
	<path d="M794.2,316.3c-1-3.8-0.4-7.5,0.1-11.2c0.6-4.3,1.1-8.7,1.7-13c0.5-3.6-1.7-7.5-3.1-11.2c-0.3-0.7-1.2-1.3-0.5-2.5
		c1.8,0.1,2.1,1.7,2.5,2.9c1.6,4.2,2.5,8.5,2.2,12.9C796.7,301.6,795.9,309,794.2,316.3z"/>
	<path d="M735.3,274.5c4.3,0,7.8,2.7,11.9,3.4C743.5,279.4,739,278.3,735.3,274.5z"/>
	<path d="M734.2,282.5c3.2-0.9,5.3,0.7,7.9,1.2C739.5,285.6,737.4,285.3,734.2,282.5z"/>
	<path d="M795.6,331.3c-0.7,2.1-0.6,4.2-0.1,6.4c0.4,1.6,1.4,3.4-0.5,5.3c-0.5-2.5-0.8-4.7-1.4-6.8
		C793,333.9,793.6,332.4,795.6,331.3L795.6,331.3z"/>
	<path d="M788.4,343.7c0.8,3.4,0.8,6.1,0,8.9C787.2,350.2,787.2,346.7,788.4,343.7z"/>
	<path d="M768,346.6c1.8,3.4,2.5,7,2.7,10.7C768.9,353.9,768.6,350.2,768,346.6z"/>
	<path d="M755.8,278c2.7-1.2,4.3-0.1,6.2,1.7C759.3,280.9,757.5,280.3,755.8,278z"/>
	<path d="M795.6,331.3c-1.4-3.1-2.1-6.4-1.2-9.8C795,324.7,796.7,327.8,795.6,331.3L795.6,331.3z"/>
	<path d="M750.5,286.1c-1.9,1.5-3.5,0.9-5.6-0.5C747.1,284.2,748.8,285.5,750.5,286.1z"/>
	<path d="M761.9,257c-2,0.9-3.9,1-5.9-1.1C758.5,254.6,760.1,256.6,761.9,257z"/>
	<path d="M776.7,252.9c1.8-2.5,3.3-1.5,5-0.8C780.3,253.4,778.8,253,776.7,252.9z"/>
	<path d="M736,292.1c2.5-0.1,3.7,0.9,5.7,1.9C739,294.8,737.7,294.1,736,292.1z"/>
	<path d="M754.8,278.6c-2.7,1.6-2.7,1.6-4.3,0.3C751.6,277.6,752.9,278.4,754.8,278.6z"/>
	<path d="M773.7,255.1c-1,1.3-1.8,1.4-2.9,0.5C771.4,254.1,772.4,254.4,773.7,255.1z"/>
	<path d="M755.1,296.1c-1.4,1.6-2.3,1.5-3.5,0.2C752.7,295.6,753.7,295.9,755.1,296.1z"/>
	<path d="M753.3,285.3c0.7-1.4,1.4-1.5,2.3-0.6C755.2,285.9,754.4,285.8,753.3,285.3z"/>
	<path d="M745.2,347.4c0.9,0.4,1.4,1.1,1.5,2.1C745.3,349.4,745.5,348.3,745.2,347.4z"/>
	<path d="M768.2,352.5c-1.4-0.6-1.1-1.3-0.8-2C767.6,351.1,767.8,351.6,768.2,352.5z"/>
	<path d="M743.1,343.7c-0.7-0.7-1.2-0.9-0.9-1.5C742.7,342.3,742.9,342.6,743.1,343.7z"/>
	<path d="M745.5,217.8c-2,0.8-4,1.1-6-0.3c1-1.6,2.7-0.7,4-1.4c4.1-5.7,8.2-11.6,12.6-17.7c0.8,3.1,0.1,4.7-4.2,10.3
		C749.5,211.7,748.1,215.3,745.5,217.8L745.5,217.8z"/>
	<path d="M724.9,249.9c1,2,1.4,4.1-0.8,5.9c-2.7-2.6,0.4-5.1,0-7.5c-0.4-2.6-0.5-5.3-0.7-7.9c3.7-1.3,5,1.8,2.9,6.5
		C725.9,247.9,725.4,248.9,724.9,249.9z"/>
	<path d="M737.5,248.1c-4.1-0.5-5.6-2.6-5-6.4C735.6,242.7,736.1,245.4,737.5,248.1z"/>
	<path d="M745.4,253.4c-4.7-0.8-6.8-2.8-7.1-6.2C741.2,248.5,743.2,250.5,745.4,253.4z"/>
	<path d="M655.7,206.2c2.2-0.4,2.7,1.3,3.8,2.1c1.1,0.9,2.3,1.8,3.4,2.7C659.4,211.4,657.3,210.1,655.7,206.2z"/>
	<path d="M667.8,164.8c-2.4,0.8-4.8,1.8-7.1-0.8C663.5,162.2,665.6,163.8,667.8,164.8z"/>
	<path d="M639.6,193.7c0.4-2.9,2.6-4.6,4.7-6.3C643,189.6,642.3,192.4,639.6,193.7z"/>
	<path d="M681.7,165.2c-2,0.4-3.3,0.5-4.7-0.6C678.6,163.1,679.9,163.5,681.7,165.2z"/>
	<path d="M723.2,257.3c1.3,1.7,0.8,2.7-0.1,3.8C721.5,259.9,721.8,258.8,723.2,257.3z"/>
	<path d="M656.2,200c-1.2,0.6-2.5,1.5-4.2,0.3c1.4-1.1,2.8-0.6,4-0.8C656.4,199.4,656.5,199.7,656.2,200z"/>
	<path d="M671.1,165.3c1.5-1.9,2.7-1.3,4.3-0.3C673.9,165.9,672.8,166.5,671.1,165.3z"/>
	<path d="M720.9,264c0.5,1.5,0.1,2.1-0.8,2.6C719.4,265.5,719.9,264.9,720.9,264z"/>
	<path d="M729.3,239.9c0.7,0.5,1.3,1,1.2,2C729.6,241.4,729.3,240.8,729.3,239.9L729.3,239.9z"/>
	<path d="M751,538.5c-0.2-4.2-0.4-8.4,2.9-11.6C754.4,531.2,751.7,534.6,751,538.5z"/>
	<path d="M750.7,540.6c0.7,3.6-0.1,6.4-1,9.5C747.8,546.5,748,543.7,750.7,540.6z"/>
	<path d="M772.5,525.5c1.9-1.6,3.8-3.2,6.6-3C778,525.4,776.5,526.1,772.5,525.5z"/>
	<path d="M766.6,522.8c2,0.8,2.8,2.4,4.6,2.1c-0.5,1.1-0.9,2-1.3,3C767.8,527.1,767.2,525.3,766.6,522.8z"/>
	<path d="M755.9,613.2c0.7,1.1,0.9,1.8-0.1,2.7C755.1,615.1,755,614.4,755.9,613.2z"/>
	<path d="M748.7,554.8c1.1,1.2-0.1,1.9-0.4,3.2C747.7,556.1,747.7,556.1,748.7,554.8z"/>
	<path d="M772,143.5c0.3-0.2,0.5-0.6,0.8-0.6c2.3-0.7,4.6-1.4,7-2.1c1.3,1.2,1.8,2.9,3.5,3.5c-1.3,1.3-2,0-2.7,0.2
		C777.5,148.9,776.2,146.9,772,143.5z"/>
	<path d="M768.7,141.5c5.4-4.9,13.7-5.7,17.5-1.7C780.2,138.9,774.4,139.5,768.7,141.5z"/>
	<path d="M749.4,174c3.6-0.5,3.6-0.4,10.6,11.8C754.5,183.6,753.2,178.1,749.4,174z"/>
	<path d="M742.7,176.1c-0.8-1.8-2-3.6-0.7-6.5C742.7,172.2,743.1,174,742.7,176.1L742.7,176.1z"/>
	<path d="M763.5,191.9c-1.3-0.6-1.7-1.6-1.2-3.2C763.8,189.5,763.4,190.8,763.5,191.9z"/>
	<path d="M792.1,260.5c0.5-2.8-1.3-5.3-0.9-8.4c3.1,1.1,3.1,3.7,3.5,5.9C794.9,259.5,794.1,260.6,792.1,260.5z"/>
	<path d="M362.2,351.1c-2.1-1.2-2.5-3.5-3.5-5.4c-0.7-1.2-0.9-2.8-2.4-3.9c-2.7,0.8-4.7-0.6-6.8-2.5c-4.1-3.6-7.7-7.5-9.7-12.7
		c-0.5-1.4-1.6-2.8-0.8-4.4c1.8,0,1.9,1.5,2.5,2.5c1.3,2.5,2.7,4.9,3.9,7.5c1.8,3.9,5.7,5.5,8.6,8.2c0.8,0.7,1.3-0.2,1.9-0.3
		c0.7-1.3-1.1-2.4,0.4-4C358.9,341,360.3,346.1,362.2,351.1L362.2,351.1z"/>
	<path d="M414.6,504.9c1.5-2.6,1.8-5.8,3.9-8.6c0,2-0.8,3.2-1.3,4.6c-0.8,2.4-2,4.7,0,7.2c0.9,1.2-0.2,2.8,0.2,4.2
		c-5.2,1.8-7.6,1.2-8.6-2C408,507.7,409.8,505.9,414.6,504.9z"/>
	<path d="M365.9,374.4c-2.9-4.9-8.1-8.1-9.9-13.8C361.5,363.5,365.1,367.9,365.9,374.4z"/>
	<path d="M397.4,454.2c3.1,0.2,4.6-1.3,5.2-4.3c0.7-3.4,2.6-6.1,5.1-8.4c1.5,0.6,1.4,1.5,0.8,2.2c-2.2,2.7-3.4,5.9-4.7,9
		c-0.6,1.5-1.8,2.3-3.2,2.8C399.2,456,398,455.9,397.4,454.2L397.4,454.2z"/>
	<path d="M355.3,358.7c-5-5-8.3-10.9-8.1-18.3C349.6,346.6,352.2,352.8,355.3,358.7z"/>
	<path d="M408.1,510c0.1,2.4-1.6,4.2-4,4.3c-2.5,0.2-4.6-1.7-4.6-4.1c0-2.3,1.8-4,4.3-4C406.5,506,408.1,507.4,408.1,510z"/>
	<path d="M399,514.4c-1.3,0.5-1.7-0.2-2.3-0.6c-0.5-0.5-0.9-1.2-1.6-1.2c-1.6,0.1-0.4,2.2-2.1,2.4c-1.5-2.2-0.6-4.8-1-7.3
		c1.5-0.9,3.1-0.8,4.6-0.6c1.8,0.3,3.1,1.9,2.1,3.3C397.4,512.1,398.8,513,399,514.4z"/>
	<path d="M344.2,276.2c3.6,1.6,6.3,3.8,6.7,8c0.1,1.5,1.5,2.8,2,4.3c0.5,1.4,1.5,2.8,0.2,5C349.8,287.5,349.5,280.6,344.2,276.2z"/>
	<path d="M351.4,216.8c-0.6,2.7-3,1.4-4.4,2.1c-1.4,1.3-2,3.2-3.1,4.8c-1.5-2.3-1.6-3.2-0.3-5.1C344.7,216.6,347.4,216,351.4,216.8z
		"/>
	<path d="M376.7,393.6c-4.9-4.3-5.7-10.7-8.4-16.2C372.1,382.2,373.7,388.3,376.7,393.6z"/>
	<path d="M343.2,234.5c-0.7-4.1,2-6.9,2.6-10.8C347.4,225.8,346.3,229.7,343.2,234.5z"/>
	<path d="M362.1,351.2c1.7-0.3,2.2,1.3,3,2.2c1.9,2.4,3.8,4.7,4.8,7.6C367.2,357.9,364.4,354.7,362.1,351.2L362.1,351.2z"/>
	<path d="M354.2,294.6c1,3.1,0,6.1-0.4,9.1C352.8,300.5,352.9,299.1,354.2,294.6z"/>
	<path d="M364,210.8c-2.9,0.4-5.7,1.8-8.7,0.3C358.1,210.1,361.1,210.3,364,210.8z"/>
	<path d="M375.7,218.4c2.4,1.4,4.6,3,5.1,6.8c-2.7-2-3.7-4.5-5.5-6.3c-0.1-0.2-0.2-0.4-0.3-0.7C375.2,218.2,375.4,218.3,375.7,218.4
		z"/>
	<path d="M367,264c0.1,3.8-2.9,3.9-4.8,5.2C363.3,267.2,364.5,265.3,367,264z"/>
	<path d="M360.1,316.2c2.1,1.4,2.1,3.8,2.5,6.1c-1.1-1.9-2.1-3.8-3.2-5.7C359.6,316.6,359.8,316.4,360.1,316.2z"/>
	<path d="M437.5,444.9c0.5,2.4,1.2,4.8,0.5,8.2C436.7,449.9,436.9,447.4,437.5,444.9z"/>
	<path d="M337.5,260.6c-1.7-1.6-2.7-3.5-2.8-6.6C336.7,256.3,336.9,258.6,337.5,260.6z"/>
	<path d="M411.7,437.4c-1.8-1.6-2.1-3.3-2.6-5.5C411.2,433.4,411.8,434.9,411.7,437.4z"/>
	<path d="M395.5,409.5c-1.3,1.3-2.6,2-4.6,0.9C392.3,408.6,393.6,407.4,395.5,409.5L395.5,409.5z"/>
	<path d="M380.8,246.4c0.3-1.6,1-3,2.6-4.5C383,244.1,382.5,245.6,380.8,246.4z"/>
	<path d="M406.6,438.2c-2.1-0.7-2.5-1.7-2.9-3.4C405.2,435.4,405.8,436.4,406.6,438.2z"/>
	<path d="M397.1,414c0.8,1.5,0.6,2.7-0.6,4.2C396,416.5,396.8,415.2,397.1,414z"/>
	<path d="M378.9,493.4c-1-1.1-1.8-2.3-2.1-3.7c0.1-0.1,0.2-0.2,0.3-0.3c1.2,0.9,1.8,2.2,2.4,3.6C379.2,493.1,379,493.2,378.9,493.4z
		"/>
	<path d="M345.2,272.9c-1.5-0.5-1.7-1.4-1.8-2.8C345.2,270.5,345.2,271.5,345.2,272.9z"/>
	<path d="M401.9,423.4c1.2,0.4,1.8,1.1,2.1,2.5C402.4,425.5,401.9,424.6,401.9,423.4z"/>
	<path d="M358.7,270.2c-0.4-1.3,0.1-1.8,1.2-2.1C360.5,269.2,359.8,269.7,358.7,270.2z"/>
	<path d="M390.6,422.4c0.1,1-0.3,1.5-0.8,1.8C389.3,423.4,389.6,422.8,390.6,422.4z"/>
	<path d="M422.8,490.4c0-0.6,0-1.2,0-1.8C423.5,489.1,422.9,489.8,422.8,490.4z"/>
	<path d="M376.7,489.7c-0.6-0.5-1.3-1-1-2.1c0.9,0.3,1.2,1,1.3,1.8C376.9,489.5,376.8,489.6,376.7,489.7z"/>
	<path d="M373,482.9c0.6,0.1,0.7,0.4,0.7,0.9C373.1,483.7,373,483.3,373,482.9z"/>
	<path d="M372.4,363.7c-1-0.2-1.4-0.6-1.2-1.3C371.9,362.3,372.1,362.9,372.4,363.7z"/>
	<path d="M375.3,218.8c-0.7-0.2-1.3-0.4-1.8-1.3c1.1-0.6,1.6,0.3,2.2,0.8C375.5,218.5,375.4,218.7,375.3,218.8z"/>
	<path d="M354.4,311.1c0.9,1.1,0.5,1.5,0.2,2.2C353.7,312.6,354.2,312.1,354.4,311.1z"/>
	<path d="M431.9,285.2c2.1,0.4,2.4,2,2.9,3.5c1.6,4.9,2.4,10,1.7,15.2c-0.8,6.4-1.2,12.8-2.4,19.3c-1.4-0.8-1.1-2-1-3.1
		c0.7-7,0.6-14.1,2.6-21c0.3-0.9-0.2-1.7-0.4-2.5C434.4,292.7,433.1,289,431.9,285.2z"/>
	<path d="M431.1,270.8c0.6,7.9-9.7,13.7-18.4,10.5c3.5-2.6,7.5-1.3,11.3-2.1C425.9,276.2,429.4,274.4,431.1,270.8z"/>
	<path d="M435.1,337.9c-0.7,2.1-0.6,4.2-0.1,6.4c0.4,1.6,1.4,3.4-0.5,5.3c-0.5-2.4-0.7-4.5-1.3-6.5
		C432.5,340.8,433,339.1,435.1,337.9L435.1,337.9z"/>
	<path d="M382.7,350.3c3.4,1.1,6.9,2.1,10.3,3.2c-3.9,0.2-7.3-1.3-10.8-2.5C382.4,350.8,382.5,350.5,382.7,350.3z"/>
	<path d="M435.2,337.9c-1.3-3.2-2.2-6.4-1.2-9.8C434.5,331.4,436.2,334.4,435.2,337.9L435.2,337.9z"/>
	<path d="M432.1,261.2c0.7,2.3,0.5,4.5-1.1,6.2c-0.3-0.1-0.7-0.1-1-0.2c0.4-2,0.9-4.1,1.3-6.1C431.6,261.1,431.8,261.1,432.1,261.2z
		"/>
	<path d="M430.5,256.6c-0.9-1.4-1.3-2.8-0.9-4.8C431.4,253.4,430.9,255,430.5,256.6z"/>
	<path d="M420.1,364.8c0.7-1.4,1.7-2.5,3.1-3.3c-0.3,1.6-1.5,2.7-2.6,3.8C420.4,365.2,420.2,365,420.1,364.8z"/>
	<path d="M435.2,275.7c0.4,0,0.6,0.2,0.5,0.6c0,0.1-0.2,0.2-0.3,0.1C435.1,276.3,435,276,435.2,275.7z"/>
	<path d="M428.3,563.6c1.1,2.6-0.4,7.7-2.5,9.3c0,2.2,1.5,4.6-1.2,6.2c-2.7-3-2.5-5.9-0.1-8.8C426.1,568.5,427,566,428.3,563.6z"/>
	<path d="M433.2,588.2c-1-3.9-1.1-7.7,1.8-10.9C435.8,581.2,435.5,584.9,433.2,588.2z"/>
	<path d="M429.1,553.8c-1.1-4,1-7.9,0.5-11.8C431.5,545.9,430.4,549.8,429.1,553.8z"/>
	<path d="M434.6,572.2c-0.6-5.4,0.3-9.7,1.1-14.5C436.9,559.9,436.3,567.1,434.6,572.2z"/>
	<path d="M434.2,624.1c-0.4,2.3,0.1,4.4-1.7,6C431,628.1,431.2,627.2,434.2,624.1z"/>
	<path d="M444.9,528.8c1.4-1.1,1.5-3.1,3.2-3.9C448.8,528,448.2,528.8,444.9,528.8z"/>
	<path d="M432.8,590.3c0.3,2.2,0.3,3.7-1.4,4.9C431.1,593.4,431.1,591.8,432.8,590.3z"/>
	<path d="M439.2,550c-0.4-1.6-0.6-3.2-0.1-5.4C440,546.7,439.5,548.3,439.2,550z"/>
	<path d="M444.7,550.4c-0.3-2,0.7-2.9,1.6-3.8C446.5,547.9,446.3,549.2,444.7,550.4z"/>
	<path d="M435.5,612.1c0.3,1.6,0.2,2.5-0.9,2.9C433.9,613.9,434.3,613,435.5,612.1z"/>
	<path d="M430.1,603.1c-0.8-1.8-0.1-2.6,1.1-3.5C431.4,601,430.9,601.8,430.1,603.1z"/>
	<path d="M434.9,622.2c-0.9-0.8-0.6-1.5,0.3-2.2c0.9,0.1,0.8,0.7,0.7,1.3C435.8,621.8,435.7,622.3,434.9,622.2z"/>
	<path d="M430,560c0.1,0.1,0.2,0.2,0.3,0.2c0.5,1-0.1,1.5-0.7,2.1c-0.6-0.8-0.5-1.5-0.2-2.2C429.6,560.1,429.8,560,430,560z"/>
	<path d="M419.7,147.4c0.4,1.9,2,2.6,2.8,3.8c-1,1.1-1.9-0.5-2.8,0c-1.9,3.4-3.6,3.3-8.4-1.1C413.9,148.9,416.6,148.2,419.7,147.4z"
		/>
	<path d="M425.7,146.5c-5.7-0.9-11.3-0.5-16.7,1.6C412.1,143.5,421.8,142.5,425.7,146.5z"/>
	<path d="M411.5,214.2c-5.4,1-10.7,1.4-15.7-1.6c-0.4-0.2-0.7-0.6-1.1-0.9c0.6-1.7,1.8-1.1,2.8-0.8c4.2,1.5,8.3,3,12.8,2.1
		C411.1,212.9,411.2,213.8,411.5,214.2L411.5,214.2z"/>
	<path d="M399.6,192.1c-5.5-1.9-6.9-7.3-10.4-11.4c2.4-1.4,3.3,0.2,4.1,1.5C395.4,185.5,397,189.1,399.6,192.1z"/>
	<path d="M411.5,214.3c0.3-0.1,0.7-0.4,1-0.3c3.1,0.3,5.8,2.2,9.2,1.5c-1.3,1.8-3.7,1-4.7,3.5C415.8,216.1,412.6,216.6,411.5,214.3
		L411.5,214.3z"/>
	<path d="M424,231.3c-2.2-2.8-2.9-6.1-3.5-9.5C422.1,224.8,424,227.7,424,231.3z"/>
	<path d="M385,197.8c-2.8-2.1-1.5-4.8-1-7.4C385.4,192.7,384.6,195.4,385,197.8z"/>
	<path d="M381.9,176.9c0.2,1.8,0.5,3.6,0.7,5.7C380.9,180.3,380.8,179.8,381.9,176.9z"/>
	<path d="M403.9,201.6c1.4,1.3,1.8,2.3,1.9,3.6C404.4,204.2,404.4,204.2,403.9,201.6z"/>
	<path d="M401.9,195c1.2,1.4,1.4,2.4,1.2,3.8C401.6,198,401.4,196.9,401.9,195z"/>
	<path d="M408.7,209.2c1.2,0.6,1.3,1.4,1.3,2.2c-0.2,0.1-0.4,0.3-0.5,0.3C408.4,211.3,408.4,210.5,408.7,209.2z"/>
	<path d="M390.5,548.2c-0.3-4.1-0.4-8.2,2.9-11.4C394.2,541.1,391.1,544.3,390.5,548.2z"/>
	<path d="M388.9,560.2c-1.1-3.7-1.7-6.6,1-9.2C391,553.9,390.2,556.7,388.9,560.2z"/>
	<path d="M419.4,532.7c-2.3,3-4.4,3.8-7.8,3C414,534,415.9,532.5,419.4,532.7z"/>
	<path d="M406.5,533.4c1.6,0.4,2.4,2,4.8,1.6c-1.7,1-1.3,2.2-1.9,3.1C407.3,537.1,406.8,535.4,406.5,533.4z"/>
	<path d="M395.6,624.2c-1.3-0.8-0.7-1.5-0.6-2.6C396.3,622.4,396.2,623.1,395.6,624.2z"/>
	<path d="M387.4,567.3c-0.4-1.4-0.7-2.4,0.7-3.1C389.3,565.4,388.4,566.1,387.4,567.3z"/>
	<path d="M428.7,390.5c-1.6-5.3-2.8-10.8-3.2-16.4C428.6,379.1,427.2,385.1,428.7,390.5z"/>
	<path d="M394,380c0.4,3-1.4,5.4-3,7.9c0.7-2.7,1.3-5.4,2-8.2C393.3,379.9,393.6,379.9,394,380z"/>
	<path d="M434.8,385.1c-1.6-3-3.9-5.8-3.1-9.7C432.7,378.6,433.9,381.8,434.8,385.1z"/>
	<path d="M435.8,373.2c-1.3-1.4-1.7-2.8,0.4-4C435.9,370.6,436.5,372,435.8,373.2L435.8,373.2z"/>
	<path d="M369.4,419.2c-0.7-5.9-1-11.8,0.3-17.5c0.3,0,0.6,0,0.9,0C370.2,407.5,369.8,413.3,369.4,419.2z"/>
	<path d="M460.7,483.9c0.7-3.4-1.9-5.8-1.2-8.9C463.5,477.3,464.4,481.4,460.7,483.9z"/>
	<path fill="#FFFFFF" d="M774.2,496.8c0.5,1.6,0,2.8-0.4,4.3C772.2,499.5,772.3,498.2,774.2,496.8z"/>
	<path fill="#FFFFFF" d="M776,497.1c1.1,0.6,1.4,1.1,1.3,2.1C775.7,499.3,775.5,498.5,776,497.1z"/>
	<path fill="#FFFFFF" d="M765.6,497.5c1.5,0,2.4,0.7,2.6,2.1c0.1,1.5-0.6,2.4-2,2.5c-1.5,0.1-2.6-0.7-2.7-2.3
		C763.4,498.5,764.3,497.7,765.6,497.5z"/>
	<path fill="#FFFFFF" d="M759,499.4c-1.2,1.1-2.1,1.2-3.1,0.5C756.9,498.2,756.9,498.2,759,499.4z"/>
	<path fill="#FFFFFF" d="M413.4,511.6c-2.2-0.1-2.8-1.1-2.6-2.7c0.3-1.7,1.5-2.1,3.2-1.6C414.6,509,412.7,510,413.4,511.6z"/>
	<path fill="#FFFFFF" d="M406.2,510.1c-0.1,1.7-1,2.4-2.3,2.4s-2.4-0.9-2.4-2.3c0-1.6,1-2.5,2.6-2.4
		C405.5,507.9,406.2,508.9,406.2,510.1z"/>
	<path fill="#FFFFFF" d="M397.3,509.2c-1.3,1.6-2.3,2-3.6,0.4C394.7,508.4,395.7,508.6,397.3,509.2z"/>
</g>
</svg>
