<?xml version="1.0" encoding="utf-8"?>
<!-- Generator: Adobe Illustrator 19.1.0, SVG Export Plug-In . SVG Version: 6.00 Build 0)  -->
<svg version="1.2" baseProfile="tiny" id="Layer_2" xmlns="http://www.w3.org/2000/svg" xmlns:xlink="http://www.w3.org/1999/xlink"
	 x="0px" y="0px" width="900px" height="600px" viewBox="144 97 900 600" xml:space="preserve">
<g>
	<path d="M433.4,571.7c-0.1,3.2,1.4,6.1,1.7,9.3c0.4,4.3,0.5,8.5,0.1,12.8c-0.1,1.3-0.3,2.7-0.1,4c0.7,6.6-0.4,13.1-0.1,19.9
		c4.8,1.1,9.3,2.6,8.6,9.1c3.7-1.8,5.7-4.3,5.8-8.3c1.6,1.3,0.1,3.1,1.2,4.1c0.5,0.1,1-0.2,0.9-0.4c-2.1-9.7-0.2-19.1,2.5-28.4
		c1.7-5.9,2.1-12,2.5-18.1c0.4-6.1,1.4-12.1,2-18.2c1.3-13.9,2.1-27.7-3.3-41.1c-2.8-7-7.1-13.3-11.5-19.4c-0.8-1.1-1.5-2.3-1.6-3.6
		c-0.8-7.7-4.4-14.7-5.1-22.6c-14.2,1.3-27.7,6.8-42.3,6.5c0.5,3.1,1.9,5.4,4.1,7.1c1.5,1.2,3.2,2.3,4.8,3.4c1.9,1.3,2.8,3,3.4,5.3
		c1.5,5.4,2,11.2,6.4,15.6c1.5,1.5,1.9,4.1,3,6.4c-1.8,0.5-2.4-0.7-2.9-1.7c-1-2.5-2.7-4.6-4.1-6.8c-1.3-2.2-2.3-4.6-2.3-7.2
		c-0.1-3.7-1.7-6.8-4.6-8.7c-4.8-3.2-8.7-7.1-10.1-13c-3.9,0.3-7.5,0.5-11.6,0.8c-3.4-4.6-4.1-10.6-6.6-16c-1.3,2.5,1.4,5.6-1.5,7.8
		c-7.4-1.7-14.5,1.8-21.8,1.5c-0.8,2-1.5,3.6-2.1,5.3c-0.5,1.3-0.8,2.6-0.4,3.9c3.8,10.4,1.7,20.2-3,29.9
		c-2.7,5.5-6.4,10.3-10.5,14.8c-1.8,2-2.1,4.4-2.9,6.6c-2.6,6.9-6.2,13.5-7.5,20.9c-0.5,2.5-0.5,5.1-2,7.6c1.5,1.2,1.7,2.7,1,4.5
		c-0.8,2.4-0.4,4.8,0.9,7c1.9,3.5,2.3,7.7,4.1,11.3c1,2.1-0.9,6.2-2.9,7.2c-10.3,4.9-20.5,5.8-30.4-0.8c-6.3,2.6-12.5,5-19.2,6
		c-8,1.1-15.8,0.4-23.1-3.3c-4.7-2.4-7.2-8.7-5.4-13.7c0.5-1.4,1.1-2.7,1.7-4.1c3.6-1.8,7.6-1.3,11.4-2.4
		c8.7-2.5,16.9-5.8,23.2-12.8c2.9-3.2,6.6-5.7,9.9-8.6c0.7-0.6,1.4-1,2.4-0.6c0.9,1.3,0.4,3.1,1.6,4.6c1.9-8.1,4.9-15.7,7-23.5
		c2.1-7.7,4.2-15.5,4.5-23.6c0.3-9,2.8-17.5,4.7-26.2c0.5-2.3,0.7-4.4-0.5-6.7c-1.4-2.7-1.6-5.6,0.4-8.1c-1.3-1.8-4-1.2-4.8-3.2
		c0.3-1.2,1.6-0.5,2.4-1.5c1.7-8.8,4.1-17.8,3.7-27.4c-0.2-5.1,0.7-10.2,1.4-15.3c0.3-2.3,0.7-4.6,0.3-6.9c-1.2-7.7,1.5-15,3-22.3
		c0.7-3.4,1.1-6.8,0.9-10.1c-0.3-3.8,0.2-7.5-0.1-11.3c-0.3-4.1,1-7.3,5.1-9.2c3.7-1.7,3.7-2,2.3-6.1c-2.7-7.8-5.5-15.5-6.5-23.7
		c-0.3-2.6-1.7-4.8-2.6-7.2c-2.5-6.3-5-12.7-7.3-19.1c-3.2-8.8-4.5-17.9-5.4-27.1c-0.2-2.3-1.2-3.9-2.8-5.6
		c-5.7-6.1-9.7-13.3-9.8-21.8c0-3.1,1.1-6.4,0.9-9.7c0-0.5-0.1-1-0.1-1.6c-6.9-5.3-13.8-10.6-19-17.7c-1.3-1.8-3.6-2.4-5.8-3.6
		c-1.1,2.5-2,4.9-3.2,7.3c-5.7,11.9-13.9,21.4-26.3,26.8c-4.8,2.1-9.8,3-15,2.9c-4.4-0.1-8.7,0.2-13.1-0.1
		c-9.2-0.8-16.9-4.5-23.3-10.9c-10.9-10.9-15.8-24.3-17.2-39.4c-0.1-1.6-0.2-3.1-0.3-4.9c-6.3-0.8-12.4-0.6-18.7-1.1
		c-0.6-1-1.3-2-1.9-3c-1.1-2-1.8-4.1-0.2-6.2c1.5-1.9,3.2-3.4,6.1-3c5.1,0.6,10.2,0.7,15.5,0.6c1.2-6.1,2.5-12,5-17.6
		c5.3-12.1,12.9-22.2,24.9-28.1c9.4-4.6,19.4-5.8,29.8-4c23.9,4.2,34.7,20.5,39.9,42.2c0.8,3.5,1.1,7.2,1.7,11.2c6,0,12.1,0,18.5,0
		c0.6-0.4,0.8-1.8,0.3-2.3c-2.1-2.3-1.8-5.6-3.5-8.1c0.1-1.8,1.5-3.3,1.3-5.2c-4.5-3.5-4.5-3.5-1.9-8.6c0.9-1.8,1.7-3.8,2.4-5.2
		c-6-7.2-0.8-14,0.2-20.9c-2.8-1.1-6.8-1.9-6.5-5.4c0.2-2.1-2.2-5.7,2.2-7c1.2-0.1,2.3,1.1,4,1.3c0.3-1.1-1.3-1.4-1-2.6
		c1.2-0.4,2.6-1.1,3.2-2.5c1.8,0.6,2.1,2.2,3,3.4c1.4-0.2,0.7-1.9,1.7-2.4c3.4-1.8,7-1.3,10.6-1c0-1-1.2-1.5-0.3-2.7
		c2.2-1.1,3.8,1.3,5.9,1.6c2.2,0.3,4.2,0.7,6.3,0c2.3-0.7,4.6-0.6,6.8,0.4c3.2,1.6,6.7,2.3,9.4,4.3c2.1-0.1,2-2.5,3.9-2.9
		c0.7,1.3,0.4,2.7,0.3,4.1c2.3,0.1,4.4-3.8,6.8-0.7c0.4,1.6-0.8,2.4-1.1,3.4c2.4,4.5,4.1,9.1,4.1,14.2c0,0.6,0.3,1.4,0,1.8
		c-2.4,3.5-1.7,7.6-1.9,11.4c-1.4,0.4-0.9-0.8-1.9-1.2c0.7,9.9,2,19.4,3.4,29.2c4.1,0.9,8.2,1.7,12.1,2.7c3.7,1,7.7,1.3,10.9,4
		c0.7,0.6,1.6,0.5,2.4,0.6c9.5,0.6,18.9,1.6,28.4,1.8c15.7,0.3,31.3,2.6,47,1.3c2.9-0.2,5.8-0.5,9-0.1c0.8-5,1.4-9.8,2.5-14.5
		c3.3-13.5,8.9-25.7,18.7-35.8c10.3-10.6,23.2-14.3,37.6-13.6c4.5,0.2,9,0.8,13.4,2c10.8,2.9,18.7,9.8,24.9,18.7
		c8.5,12.2,12.5,26,13.8,40.7c0.2,1.8,0.3,3.6,0.4,5.5c0,0.2,0.2,0.4,0.3,0.6c0.5,0.5,1.1,0.5,1.7,0.5c11.3,0.4,22.7,0.8,34,1.1
		c2.1,0.1,4.2-0.7,6.2,1c3.8,3.3,4.3,6,1.2,10c-0.4,0.6-0.9,1.1-1.4,1.7c-14.1,0.7-28-0.8-42.2-0.9c-0.9,4.7-1.6,9.3-2.7,13.9
		c-2.4,10-6.3,19.4-12.3,27.9c-8.3,11.6-19.2,18.6-33.5,20.6c-11,1.6-21.6,1.1-31.6-4c-4.5-2.3-8.2-5.7-11.8-9
		c-0.4,0-0.6-0.1-0.8-0.1c-6.4,3.6-13.2,3.8-20.1,1.9c-1.8-0.5-3.6-0.2-5.5-0.1c-13.5,0.8-26.4-1.6-38.9-6.7c-2.9-1.2-5.3-3.3-8.2-5
		c2.9,9.5-0.8,17.9-3.7,26.3c-0.5,1.4-0.6,2.8-0.6,4.3c0.4,6.6,0.6,13.1,0.8,19.7c0.1,2.2,0.5,4.4,1.2,6.5
		c1.8,5.5,1.8,11.2,2.2,16.9c0.6,7.4,2.2,14.8,9,19.7c7.4,5.3,10.1,13,11.3,21.6c0.6,4.2,1.1,8.2-0.4,12.3c-0.8,2.3,0.4,4.3,0.7,6.4
		c0.5,3,1.4,5.8,1.8,8.9c0.9,6.8,0.9,13.8,3.8,20.3c1.2,2.6,1.2,5.7,1.6,8.6c0.9,5.8,3.6,11.4,3.3,17.2c-0.5,8.7,3.8,16.6,3.2,25.2
		c-0.1,0.8,0.3,1.7,0.6,2.5c0.7,1.6,0.7,3-0.6,4c1.8,5.3,3.5,10.4,4.3,15.7c1,6.5,4.8,11.7,8.1,17c4.2,6.7,7.1,13.6,9,21.4
		c1.7,6.7,1.1,13.2,0.9,19.9c-0.5,15-2.8,29.8-4.4,44.6c-0.6,5.5-2.9,10.6-3.7,16c-0.6,4-0.7,8-0.4,12c0.2,2.5,2.3,3.8,3.6,5.5
		c1.3,1.8,2.2,3.6,1.9,5.7c-0.4,2.4,0.2,4.6,0.8,6.8c1.3,4.6-0.2,9.9-3.9,12.9c-0.9,0.8-1.9,1.5-2.8,2.2c0.6,5.8-1.8,10-5.4,14.2
		c-5.1,6-11,7.6-18.5,6c-3.5-0.8-7.2-0.4-10.6-1.9c0-1.6,1-1.6,2.2-1.6c4.9,0.1,9.7-0.2,14.5-0.4c6.4-0.1,12.3-7.1,11.9-13.4
		c-0.1-1.7-0.2-3.4,0.2-5.1c0.5-1.7,1.3-3.1,3.2-3.6c3.8-1,5.3-3,4.9-6.7c-0.3-2.9-0.6-5.8-1.7-8.8c-3.3,0.6-6.3-1.1-9.6-1.4
		c-2.1-0.2-3.1-1.4-3.8-3.3c-1.3-3.4-4.9-4.9-8.3-3.8c-1.7,0.6-2.5,1.9-2.4,3.7c0.1,1.8,1.2,2.7,2.8,2.8c2.1,0.2,4.1,0.4,6.1,1
		c2.1,0.7,3.6,2,2.9,4.3c-0.7,2.4-2.6,1.4-4.2,0.9c-1.9-0.7-3.9-0.6-5.9-0.8c2,0.2,4,0.1,5.8,0.7c1.6,0.5,3.5,1.2,2.8,3.5
		c-0.6,2-2.2,1.9-4,1.4c-2.6-0.7-5.4-1-6.8-1.3c1.4,0.2,4.1,0.7,6.7,1.3c1.8,0.5,2.6,1.8,1.9,3.6c-0.6,1.7-2,1.9-3.6,1.3
		c-3-1.2-6.2-1.1-9.2-1.9c3.1,0.8,6.5,0.7,9.4,2.1c0.5,3.4,0,4-2.8,3.8c-2.8-0.2-5.6-0.3-8.3-1.1c-2.2-0.6-3.5-0.1-4.8,1.9
		c-1.6,2.5-3.1,5.1-6.3,6.4c-1.5,0.6-2.5,2.3-3.4,3.8c-1.9,3.1-0.3,6.6,3.4,7.3c2.4,0.5,5.2,0.1,6.2,3.2c0.1,0.5,0.1,1-0.5,1.2
		c-4,1.3-11.7-1.7-13.8-5.4c-1.3-2.3-0.7-4.5,0.6-6.6c2.2-3.4,4.7-6.5,7.7-9.2c3.7-3.5,6.5-7.5,7.1-12.7c0.3-2.4,1.8-4.3,3.3-6
		c1.4-1.5,2.4-3,2.2-5.1c-0.5-4.7,1.2-7.8,6.1-8.7c0.3-0.1,0.6-0.4,1.3-0.8c-0.4-5.1,1.1-10.4,0.3-15.7c-0.3-2-0.4-4.1-0.2-6.2
		c1.2-14.9-2.3-28.9-8.2-42.5c-3.4-8-5.9-16.4-5.9-25.4c0-3.7-0.6-7.4-2-11.3c2.5,0.4,2.6,2.1,2.9,3.3c0.5,2.1,0.7,4.3,0.9,6.5
		c0.8,10.2,4,19.7,7.8,29.1c1.5,3.7,2.8,7.5,3.7,11.4c0.4,1.6,0.6,3.4,1.8,4.7L433.4,571.7z"/>
	<path d="M881.9,454.6c0.6-0.2,1.1-0.4,1.6-0.5c2.6,3.3,6.3,5.5,9,8.7c1.7,1.9,2.7,4.5,5.3,5.7c0.9,0.4,1.1,1.7,0.8,2.6
		c-0.9,2.7-0.2,5.2,0.2,7.9c0.7,6.3-0.5,12.3-2.8,18.1c-0.5,1.2-1.1,2.4-1.4,3.7c-2.6,12.2-10.6,19.7-21.2,25.1
		c-1.5,0.8-2.9,1.7-4.3,2.7c-1,0.8-2,1.4-3.2,1.4c-0.9-1.6-0.6-3,0.8-4.3c1.7-1.7,3.6-3,5.7-3.9c5.1-2.3,9.2-5.8,12.8-10
		c2-2.3,2.8-5.3,3.9-8c2.7-6.8,6-13.3,6.3-20.8c0.2-6.4-1.1-12.5-4.8-17.8c-1.2-1.8-3.5-2.5-5.9-2.3c-2.3,0.3-4.5,1.1-6.6,2
		c-2,0.9-2.9,0.1-2.6-1.9c-2.6,4-6.4,5.2-11.1,3.5c-1.8-0.7-3.3-0.2-5,1.3c3.3-0.5,6.2-0.4,9.2-0.8c5.3-0.7,10.4,0.7,15.4,2.2
		c1.6,0.5,3.5,1.3,2.7,3.6c-0.7,1.9-2.5,1.6-4.1,1.2c-4.5-1.2-9.3-1.5-13.4-2.5c2.1,1.6,6.2,1.1,6.8,5.4c-0.1,0.4-0.3,0.7-0.5,0.9
		c-2.2,1.4-4-0.3-5.8-1.1c-5.2-2.4-10.3-4.9-16.3-5c-6.9-0.2-12.4,3.7-19.2,5.9c7.9,0.5,13.9,2.8,18.6,8.9c3.3,4.3,7.2,8.2,9.8,13.1
		c2.1,3.9,3.5,7.7,1.9,12.2c-1.3,3.3-1.1,7-2.3,10.3c-0.5,1.4-0.2,2.8,1,3.7c1.5,1.1,2,2.7,2.6,4.2c6.7,5.9,6.5,14.1,7.1,21.9
		c0.5,7.1,1.8,14,3.1,21c2,11,4.8,21.9,6.4,32.9c0.5,3.7-0.7,7.6,1.5,11.1c3.9,0.9,4.5,1.6,4.9,5.5c0.6,5,1.3,9.9,3.3,14.6
		c0.8,1.9,0.7,4.2,1.8,5.9c-0.2,1.8-1.4,2.5-2.5,3.1c-2.8,1.5-5,3.9-7.3,6c-1.1,1-1.8,2.2-2.2,3.7c-2.4,7.7-7.2,13.4-14.8,15.8
		c-7.3,2.3-15,3.5-22.4,0.2c-6.5-2.9-10.3-10-4-17.4c2.3-2.7,4.6-5.6,6.8-8.5c0.2-0.3,0.6-0.5,0.7-0.9c1.1-5.6,4.6-10.1,7-15.1
		c0.7-1.5,0.8-3.3,0.7-5c-0.3-5.9-0.3-5.9,4.8-8.2c-2.3-18.3-9.8-33.9-23.7-46.2c-3.4-3-6-6.6-8.3-10.5c-3.7-6.2-6.8-12.6-6.8-20.1
		c0-2.6-1.2-4.8-3.1-6.8c-2.2-2.3-4.5-4.7-4.8-8.3c-0.1-1.3-1.5-2.2-2.6-2.9c-1.4-1-2.6-2.1-3.2-3.7c-10,3.4-18.8,9.5-29.4,10.5
		c-3.2-3.9-5.2-8.2-7.8-12.2c-1.4-2.1-2.8-4.2-4.7-6c-2.5-2.4-4.5-5.2-5.5-8.7c-5.2-1.6-10.4-3.2-16.1-5c1.7,4.4,2.1,8.5,2,12.8
		c0,3.2-0.3,6.2-1.2,9.3c-1.6,5.4-0.2,10.9,0.1,16.3c0.2,2.9,1,5.8,1.2,8.7c0.6,6.8,2.5,13.2,6,19.1c0.8,1.4,1.5,2.8,1.7,4.4
		c0.7,5.9,2.7,11.3,5.8,16.3c1,1.6,0.4,3.1-1.2,4c-3.4,1.9-6.8,3.4-10.9,3.9c-7.9,1-15.5,0.7-23.2-1.1c-3.2-0.8-6.3-0.4-9.4,0.5
		c-10.5,2.9-20.8,1.8-30.7-2.3c-2.3-0.9-4.5-2.3-5.6-4.7c0.3-0.6,0.7-0.6,1-0.4c9.9,7.3,21.1,8.7,32.6,5.7c6.8-1.7,13.1-1.1,19.8,0
		c8.8,1.6,17.3-0.1,25.9-3.4c-1.9-2.9-3.1-5.8-4.3-8.7c-1-2.5-1.8-5-2-7.7c-0.2-3.1-1.9-5.4-4.2-8.5c-1.7,7.6-6.6,9.7-12.6,9.9
		c-3.7,0.1-7-0.9-8.7-4.8c-1-2.2-3-3.8-4.7-5.8c1.4-1.8,0.4-3.5-0.1-5.3c-1.5,0.3-2.6,1.1-3.5,1.8c-1.7,2.4-0.6,5-0.5,7.3
		c-1.8,1.4-2.7-0.8-4.2-0.7c-0.8,1.6,0.1,3.2,0.4,4.9c-2.1,0.9-2.5-1.4-3.9-2c-0.5,0.4-1.1,0.8-1.5,1.1c-0.8,1.1,0.7,1.9,0.1,2.9
		c-1.5,1.4-2.2-0.7-3.3-0.6c-7.5,3.2-15.3,4.6-23.5,5.2c-1.2,2.2,0.2,5.1-1.8,7.2c-2.8-4-2.2-6.9,2-10.3c3.5,1.4,7.2,0.6,10.6-0.3
		c7.4-2,14.5-5,20.2-10.5c1-0.9,2.2-1.8,2.5-3.1c1-3.9,3.7-6.1,7.4-7.3c0.2-5-0.7-9.8-2.6-14.3c-3.5-8.3-6.8-16.7-11.1-24.6
		c-2.3-4.2-3.8-8.7-4.6-13.4c-0.7-4.2-2-8.2-3.7-12.2c-2.3-5.3-4.8-10.7-5-16.6c-0.1-2.3-0.4-4.8,2.3-6c1.9,1,1.7,2.8,1.7,4.5
		c-0.1,4.5,1,8.8,3.1,12.7c3.8,7,5.5,14.5,7.1,22.2c0.6,2.9,1.6,5.6,3.1,8.1c5.3,9.2,9.3,19,12.8,29c1.5,4.2,1.9,8.8,1.7,13.3
		c-0.2,4.5,2.9,6.9,7,5c1.9-0.9,3.5-1.5,5.4,0c1,0.8,2.2,1.1,3.4,0.2c1.1-0.9,1.1-2.1,0.8-3.4c-1.6-7.4-2.2-14.9-3.4-22.4
		c-0.9-5.9-0.9-11.9,0.3-17.8c1-4.5,0.9-9-0.3-13.4c-1.1-4-2.5-5.5-6.6-5.5c-4.1,0-7.9-1-11.7-2.4c-1.3-0.5-2.4-1.1-3.2-2.2
		c-0.7-1-0.9-2.1-0.2-3.1c0.7-1.1,1.8-1.1,2.9-0.6c5.3,2.4,11,2.9,16.7,3.4c6.5,0.7,12.6,3.6,19.1,4.9c2.4,0.5,4.8,1.5,7.3,0.9
		c0.8-1.9-0.4-2.8-1.2-3.8c-9.6-12-18.6-24.4-25-38.5c-1.3-2.9-3.6-3.8-6.6-2.9c-5.5,1.7-11.1,2.7-16.7,4c-5.1,1.1-9.6,3.3-13.7,6.6
		c-1.1,0.9-2.2,2.1-3.9,1c0.1-2.6,1.8-4.2,3.5-5.8c2.7-2.5,6-4.2,9.6-5c7.3-1.6,14.4-3.5,21.6-5.5c5.4-1.5,10.8-2.8,16.5-3
		c0-0.4,0.1-0.8,0-0.8c-8.9-4.2-12.3-12.2-14.5-21c-0.8-3.1-1.8-6.1-2.4-9.2c-0.9-4.2-4.6-6.5-6-10.4c-13.6-2.5-25.1-9.5-36.3-17.3
		c-2.3,3-4.1,5.6-6.2,7.9c-11.1,12.4-24.4,19.1-41.6,16.3c-3.3-0.5-6.7-0.8-10.1-1.5c-9.8-1.8-17.2-7.1-23-14.9
		c-9.2-12.6-12.1-26.9-11.1-42.2c0-0.8,0.1-1.7,0.2-2.9c-6.2-1.1-12.3-2.1-18.4-3.2c-0.6-1.2-1.2-2.4-1.7-3.6c-0.8-2-1-4.1,0.7-5.8
		c1.8-1.7,3.5-2.9,6.5-2.2c4.9,1.2,10,1.8,15.2,2.6c0.9-2.5,1.6-4.8,2.5-7c6.2-15.2,15.5-27.7,31.2-34.1c10.5-4.2,21.2-4.2,32.1-0.9
		c22.2,6.8,31,23.5,33.9,44.8c0.3,2.2,0.3,4.4,0.4,6.6c0.1,2.1,0,4.1,0,6.4c4,1.3,8.3,1,12.4,2c1-1.7,1.8-3,2.6-4.4
		c-1.8-2-2.5-4-2.1-6.8c0.6-3.7,2.1-6.9,3.6-10.2c0.5-1.1,1.2-2.1,1.3-3.5c-2.5-1.4-6.3-2.6-5.6-6.1c0.5-2.1-1.3-5.8,2.8-6.6
		c1.6,0,2.6,1.7,4.2,1.8c0.5-1.2-1.3-1.4-0.9-2.7c1.1-0.6,3-0.4,3.4-2.1c2.1,0.8,1.8,2.9,3,4.1c0.5-0.9,1-1.7,1.4-2.5
		c3.6-1,7.2-0.7,10.9,0.6c0.3-1-1.1-1.8,0.2-2.9c2.2-0.6,3.5,1.8,5.5,2.5c2.1,0.6,4,1.3,6.3,0.9c2.3-0.4,4.6,0,6.6,1.4
		c2.9,2,6.3,3.2,8.8,5.5c2,0.1,2.4-2.2,4.3-2.5c0.3,1.6-0.1,3-0.6,4.6c1-0.4,1.8-0.7,2.6-0.9c1.4-0.5,2.9-1.3,4.1,0.1
		c1.3,1.6-0.3,2.6-1.1,3.9c1.9,6,2.6,11.8,1.4,18.3c-0.8,4.4-0.6,9.1-1.3,13.6c-0.2,1,0.5,2.1,0.8,3.4
		c36.3,6.2,72.6,12.3,108.7,18.5c1.4-1.1,1.3-2.5,1.6-3.8c3.8-14.4,10.1-27.4,20.5-38.2c13.1-13.6,29-17.6,47.2-13.5
		c6.6,1.5,13,3.3,18.5,7.4c8.5,6.3,14,14.8,17.7,24.5c4.4,11.6,6,23.6,5.3,35.9c-0.1,1.7-0.2,3.4-0.2,5.5c5.7,0.9,11.3,2,17,2.8
		c7.2,1,14.3,2.7,21.7,3.1c4.4,0.3,6.9,6.8,4.2,10.3c-0.8,1.1-1.8,2-2.6,2.9c-14.3-1.1-28.1-4.4-42.2-6.2c-1.6,5-2.8,9.8-4.6,14.4
		c-3.8,9.5-8.8,18.1-15.8,25.7c-9.5,10.3-21.2,15.5-35.3,15.8c-11.2,0.2-21.9-1.5-31.2-8.1c-7.3-5.2-12.4-12.3-16.3-20.6
		c-4.7,0.7-9.3-0.5-14.7-1.3C878.5,443.7,880.3,449.1,881.9,454.6c-1.4,1-2.9,0.9-3.8-0.6c-1.4-2.4-3.4-4.4-4-7.3
		c-1.2-5.5-3.7-7.1-9.4-7.2c-2,0-3.9,0.1-5.8-0.1c-1.9-0.2-3.5,0.1-5,1.5c-1.7,1.6-3.2,1.1-4.3-1.1c-2.8-5.7-7.2-7.3-12.9-4.5
		c-4,2-8.2,3.2-12.6,3.5c-1.4,0.1-2.7,0.4-3.8,1.2c-4.7,3.9-10.5,3.4-16,4.3c-1.4,0.2-2.7-0.1-3.3-2.2c3.1-4.1,9.3-3.2,12.8-6.5
		c-0.1-2.2-1.5-2.8-2.7-3.6c-4-2.6-7.7-5.6-11.3-8.6c-2.5-2.1-4.3-4.6-5.2-7.8c-1.4-4.4-3.8-8.4-4.5-13.1
		c-1.4-8.5,0.8-16.1,4.2-22.2c-2.7,5.6-5.4,12.6-8.2,19.6c-1.6,3.9-0.8,8.4-3,12.3c-3.3,5.8-7.4,10.1-14,12
		c-4.6,1.3-8.9,3.1-13.9,2.8c-11.5-0.8-14.9-4.2-18.7-14.1c-1.5-4-1.7-8.3-1.7-12.6c0.2,11.4,3.8,21.8,9,31.8
		c2.8,5.2,8.2,7.5,13,10.3c4.8,2.7,8.9,5.9,12.2,10.2c3.3,4.2,8.4,5.8,12.6,8.5c1.8,1.1,3.6,2.1,4.9,3.7c1.1,1.4,2.8,1.9,4.4,2.4
		c6.7,2.4,13.6,3.5,20.8,3.6c2.7,0,5.3,0.8,8,0.8c1.2,0,2.3,0.4,3,1.7c1.5,2.4,4.1,2.9,6.2,1.1c5.7-4.9,12.8-6.3,19.7-8.1
		c5.2-1.4,10.1-3.6,14.9-5.9c1.7-0.8,3.8-2.4,5.4,0.3c0,0,0.1,0.2,0.1,0.2s0.2,0,0.2-0.1C873.1,457.8,877.3,456,881.9,454.6z"/>
	<path d="M736.6,581.2c-5.7,0.7-7.7-0.2-7.9-3.4c-0.2-2.7,1.8-4.6,4.5-4.4C736.6,573.7,737.4,575.5,736.6,581.2z"/>
	<path d="M728.4,576.7c-1.7,3.7-3.1,4.6-5.6,4c-2.2-0.5-3.3-1.9-3.3-4.1c0-2.1,1.3-3.3,3.2-3.8C725.1,572.1,726.8,573.3,728.4,576.7
		z"/>
	<path d="M712.3,579.7c-0.5-2.5-0.3-5,0.3-7.3c1.6-0.9,3-0.3,4.4-0.1c2.1,0.3,2.7,2.2,1.7,3.5c-1.2,1.5-0.8,2.7-0.4,4.1
		c-2.2,0.4-1.9-2.2-3.5-2.3C713.1,577.4,714.2,579.7,712.3,579.7z"/>
	<path d="M430.2,502.1c-2.6-3.5-3.9-9.5-2.7-12.6C429.2,493.5,429.4,497.5,430.2,502.1z"/>
	<path d="M444,504.5c2.3,3.1,1.7,6.7,2.4,10.1C444.2,511.5,444,508,444,504.5z"/>
	<path d="M423.5,487.2c2.2-2,4.2-3.9,6.5-6C428.7,485.7,426.8,487.4,423.5,487.2z"/>
	<path d="M433.5,571.9c0-2.9,0-5.8,0-9.4c1.2,3,1.5,5.5,1.4,8.1c0,1-0.8,1-1.5,1.2L433.5,571.9z"/>
	<path d="M415.5,507.8c-3-1.1-3.5-3.6-3.9-6.2C413.7,503.2,414,505.9,415.5,507.8z"/>
	<path d="M432.2,549.2c1.2,1.8,1.5,3.7,0.9,6.4C431.7,553.2,431.9,551.2,432.2,549.2z"/>
	<path d="M424,507.1c-2.7,0.9-4.5,1.7-6.9-0.3C419.5,506.7,421.3,506.1,424,507.1z"/>
	<path d="M424.7,513.5c-2.6,1-2.6,1-5-0.5C421.6,512.4,421.6,512.4,424.7,513.5z"/>
	<path d="M435,489.7c-1.5-1.4-2-3-1.6-5.2C435.4,486.1,434.7,488,435,489.7z"/>
	<path d="M448.3,518.8c1.5,1.2,1.9,2.7,1.8,4.7C448.2,522.2,448.6,520.4,448.3,518.8z"/>
	<path d="M407.3,487.7c1.9-0.6,2.8-0.3,3.5,1C409.5,489.1,408.7,488.4,407.3,487.7z"/>
	<path d="M435.1,504.3c0.6,1.2,0.6,2.2-0.6,3C433.6,506,434.6,505.1,435.1,504.3z"/>
	<path d="M450.1,530.3c0.8,0.7,1,1.5,0.6,2.4C449.6,532.1,449.7,531.2,450.1,530.3z"/>
	<path d="M430.1,540.6c0.7,0.8,0.5,1.4,0.1,2.4C429.5,542.1,429.3,541.5,430.1,540.6z"/>
	<path d="M452.6,541.7c-1.2-0.2-1.1-0.8-1.4-1.3C452.8,540.2,452.1,541.1,452.6,541.7z"/>
	<path d="M452.7,552.3c-0.2-0.4-0.5-0.8,0.1-1.2C453,551.6,453.1,552,452.7,552.3z"/>
	<path fill="#FFFFFF" d="M425.9,409.8c1.9,0.2,1.8,1.9,2.1,3c2.7,9.5,5.5,19.1,5.9,28.9c0.4,8.2,3.5,15.9,3.2,24.1
		c0,0.9,0.2,1.9-0.4,3c-18,2.4-35.7,7.1-54.3,6.5c-1.7-6.2-4.8-11.9-5.8-18.4c-1.2-8-6.4-13.8-11-19.9c-3.1-4-5.5-8.3-7.6-12.9
		c-0.3-0.6-0.4-1.4-1.5-1.6c-0.7,1.6,0.8,2.9,0.6,4.8c-5.9,3.2-12.4,5.4-18.5,8.7c6.6-1.4,12.6-4.6,18.9-7.3c2.4,2.6,2.7,5.5,1,8.6
		c-2.6,5-5.7,9.6-10,13.4c-1.1,1-2.3,2-3.1,3.3c7.3-4.5,12.1-10.9,15.3-19.4c3.3,4.8,6.5,9.3,9.4,14c0.9,1.5,1.9,3,2.5,4.7
		c1.8,4.7-0.9,8.8-1.3,13.1c-7.9,0.1-15.3,2.1-22.9,3c-3.5,0.4-6.7,0.6-10-0.3c-6.1-1.6-12.4-2.5-18.6-3.7c-2-0.4-4.1-0.8-6.1-1.7
		c-0.2-3,0.9-5.7,1.6-8.5c1.9-8.6,2.3-17.3,2.8-26.1c0.3-5.7,0.7-11.4,0.5-17.2c-0.2-4.5,0.5-9,1.9-13.3c1.2-3.7,1-7.7,1.7-11.5
		c4.3-0.4,8.4-0.4,12.6,0.3c-3.6-2.2-7.4-2.9-11.6-2.2c-0.3-1.7-0.8-3.4-0.5-5.1c3.2-1,6.6,0.9,10.4-1.1c-4,0-7.3,0-10.5,0
		c-1.5-8.5,1.6-14.9,8.4-20.4c1,0.1,2.9-1.1,5.2-0.6c-1.1,3.7-4.1,6-6.1,9c4.6-1.6,7.3-4.7,8.1-9.7c1.6-0.3,3.4-0.7,5.3-1
		c-0.1-1-1.3-1.5-1-2.7c1.8-0.9,2.7,0.3,3.6,1.6c1.6,2.3,3.6,2.5,5.9,0.9c-1.2-1.4-3.7,0.6-4.3-2.1c1.6,0,3.1,0,3.8,0
		c1.9,0.6,1.6,2.2,3.1,2.9c2.5-0.2,5.4-0.4,8.2-0.6c1-1-0.4-2.2,0.3-2.8c1.1-1.6,2.4-1.2,3.4-1.5c1.5,1.1,0.2,3.4,2.3,4.2
		c1.4-0.5,3.1-0.5,4.5-1.7c-0.2-1.3-2.7-2.7-0.1-3.9c1.7,0.3,0.8,2.4,2.3,2.7c1.3-0.8,0.3-2,0.6-3c0.5-0.7,1.4-0.8,2.2-1
		c0.3,0.5,0.7,1,1.2,1.7c0.6-3.3,3.2-3.7,5.5-4.2c1.1,0.8,1.1,2,1.5,2.8c0.9,0.2,1.4,0,1.8-0.5l-0.1,0.1c1.3-0.2,2.6-0.4,3.9-0.6
		c0.2-4.4,1-5.3,5.6-6.5c1.2,1.1,0.6,3.5,2.8,3.9c1.1-1.4-0.7-2.5-0.1-4.1c0.7,0.4,1,1.5,2.1,1.4c1.1-1.2-1-3.6,1.6-4.2
		c1,0.5,0.1,1.6,0.9,2.5c2.9,0.5,4.5,3.2,6.3,5.5c-0.4,0.3,0.2,0-0.2,0.2c-0.1,0,0,0,0.1-0.3c4,2.9,6.7,7,9.3,11
		c1.4,2.1,0.5,4.5,1,6.8c1.2,5.1,1.8,10.2,0.2,15.4c-0.7,2.2,0.4,4.3,1.1,6.4c1.8,5.9,2.4,12.1,3.5,18.2
		C426.9,406.5,426.2,408.2,425.9,409.8c-0.3,0.4,0.3,0-0.1,0.2C425.7,410.1,425.8,410,425.9,409.8z"/>
	<path fill="#FFFFFF" d="M305.7,218.1c-0.5,4.3,0.3,8.5,1.2,12.6c0.5,2.2,1.5,4,3.3,5c4.8,2.6,9.5,5.3,15.2,5.8
		c1.2,0.1,2.4,0.2,3.6-0.2c4.8-1.6,9.3-3.8,13-7.3c3.3-3.2,5.6-7.3,7.8-11.4c4.3-7.9,8.3-16,13.9-23.1c1.4-1.9,0.2-4.7,3.4-6.3
		c1,0,2.6,0.6,3.8,2.2c-6.1,6.9-8.4,15.3-9.2,24.1c-0.6,6.1-0.7,12.1-0.3,18.2c0.3,5.7,2,11,4.7,16c1.1,2,1.8,4.2,2.6,6.3
		c-1.3,2.2-4.1,2-5.4,3.9c2.9,0.3,3.4,0.2,6.4-2.3c3.4,5.4,8,9.7,12.7,14c-0.5,1.3-1,2.3-1.4,3.4c0.1,0.1,0.2,0.1,0.3,0.2
		c0.8-0.8,1.6-1.7,2.5-2.7c4.8,2.3,9.8,4.3,15.5,2.4c-1.8,19.4,1.9,38,5.8,56.7c-7.1,3.9-14.7,6.1-22.1,9.5c-0.5-2.1-0.4-4-1.5-5.7
		c-1.9,1.8-0.1,3.9-0.5,6c-5.3,3.2-11.4,3.7-17.4,4.5c-3.1,0.4-6.3,1.3-9.4,1.2c-7.6-0.2-15.3-0.1-22.6-2.8c-4.4-1.6-5.5-6-5.9-10.1
		c-1-10.2-3.6-20-8.3-29c-3.6-6.9-4.9-14.2-6.4-21.6c-1.1-5.2-2.4-10.4-3.7-15.6c-0.3-1.3-1.2-2.1-2.1-2.9c-1.6-1.5-2.6-3.5-3.9-5.3
		c-4.8-7-4.7-14.9-4-22.8c0.1-1.6,0.6-3.4,1.5-4.8c3.1-5.2,4.2-11.1,6.1-16.8C304.6,218.9,304.6,218.4,305.7,218.1z"/>
	<path fill="#FFFFFF" d="M510.6,144.2c11.5-4.4,21.8-2.8,30.9,5.9c10.8,10.4,16.5,23.3,19.2,37.8c0.7,3.8,1.1,7.7,1.2,12.2
		c-12.1-0.4-24.1-0.8-36.4-1.2c-1.2-3.6-4.2-4.8-7.4-6c-1.8-0.7-3.4-0.5-4.9,0.5c-4.2,2.8-7.8,6.2-7.6,11.7c0.2,5.3,3.3,8.7,7.8,11
		c0.3,0.2,0.6,0.4,1,0.6c-3.8,5.5-5.8,11.4-5.9,18c0,1.3,0.1,2.7,0.4,4c0.9,4.3,3.6,6.4,7,5.7c4.2-0.9,6.6-4.4,5.7-8.6
		c-0.2-0.8-0.4-1.6-0.2-2.5c0.9-5.6,0.7-11.1-0.1-17.1c1.9,1.9,2.2,4.1,2.7,6.1c1.5,5.8,2.7,11.6,4,17.5c0.7,3.1,1.7,3.6,4.6,2.3
		c6-2.7,8.7-7.5,8.7-13.8c-4.5-5.2-6.9-11.8-13.1-15.6c0.2-0.3,0.4-0.6,0.5-0.9c10.7,0.4,21.5,0.8,32.5,1.2
		c-0.5,7-2.3,13.4-4.5,19.7c-3.8,10.9-10.3,20.2-18.7,28c-4.2,3.9-9.3,6.6-15.5,6c-1.6-0.2-3.1,0-4.7,0.3c3.9,1.3,7.8,1.3,11.8,0.2
		c11.2-3.3,17.3-12.1,23.1-21.2c5.6-8.8,8.6-18.5,10.2-28.7c0.2-1.2,0.4-2.4,0.6-3.6c1.5-0.7,2.9-0.4,4.6-0.1
		c-0.3,5.9-1.5,11.4-3.1,16.9c-3.7,12.6-9.2,24.2-19.2,33c-16,14.2-36.4,13-50.7-2.9c-9.6-10.6-14.7-23.4-17.2-37.4
		c-3.7-20.8-1.4-40.8,8-59.8c4-8.1,9.2-15.2,16.6-20.6c15.5-11.2,33.9-9.3,46.8,4.7c11.5,12.4,16.7,27.5,18.9,43.9
		c0.4,2.8,0.8,5.5,0.6,8.5c-1.4,0.8-2.8,0.4-4.6,0.1c-0.4-3.5-0.4-7.2-1-10.7c-2.4-14.5-7.7-27.7-18.1-38.4
		c-2.8-2.9-6.1-5.2-9.5-7.4c-7-4.7-14.2-4.3-21.7-1.8C512.3,141.9,510.9,142.4,510.6,144.2c-0.2-0.3-0.6-0.2-1-0.2
		C509.9,144,510.3,143.8,510.6,144.2z"/>
	<path fill="#FFFFFF" d="M249.7,203.6c0.8,1.9,2.7,1.8,4.3,2.2c1.2,0.3,2.3,0.7,2.5,1.8c0.9,4.4,4.6,5.6,8,7.3
		c0.9,0.4,1.9,0.5,2.6,1.3c0.5,1-0.1,1.9-0.4,2.8c-3.2,8.5-7.8,16.2-14.5,22.5c-17.2,16.1-41.3,14.3-55.8-4.2
		c-8.8-11.3-12.7-24.3-13-38.4c-0.3-17.3,4.5-33,15.9-46.3c6.1-7.2,13.8-12,23.1-13.8c12.8-2.4,23.6,1.8,32.5,10.9
		c10.5,10.6,15,24,16.2,38.6c0,0.4-0.2,0.9-0.3,1.7c-3.7-1.1-2.8-5.8-6.7-7.1c-1.3,0.3-3.3,0.8-5.5,1.8c-2.6,1.3-6.1,0.9-9.2,0.9
		c-1.7,0-3.1,0-3.9,1.6c-1.3-0.7-1.3-1.9-1.8-2.9c-4.9-9.4-17.8-10.9-24.5-2.7c-5.3,6.4-6.1,17.4-1.7,24.4c4.8,7.8,16.2,9,22.8,2.5
		c2-2,3.3-4.5,4.5-6.9c1.3-0.7,2.5,0.1,3.7,0c0.1,0.1,0.3,0.1,0.4,0.2c0.4,0.4,0.7,0.9,0.9,1.5C249.6,203.3,249.7,203.5,249.7,203.6
		z"/>
	<path fill="#FFFFFF" d="M369.4,202c5-0.9,9.7-0.7,14.5-0.5c-4.1-2.5-8.5-1.9-13-1.4c-0.1-1.4,1.5-2,1.3-3.6
		c10.6-0.5,20.4,1.5,29.4,6.8c6.3,3.7,13,7.1,18.2,12.5c1.3,1.4,2.5,2.8,2.9,4.5c0.6,2.4,2.1,3.4,4.4,3.7c7.3,1.1,13.7,4.8,20.7,6.9
		c4.7,1.4,9.6,3.5,14.6,0.4c1,3.1,1.9,6,2.9,9.2c-0.5,0.4-1.1,0.8-1.7,1.2c0.8,1,1.3-0.6,2,0c2.9,6.5,6.4,12.7,11,18.4
		c-4.7,2.9-9.3,4.3-14.6,2.4c-3.1-1.1-6.4-1.1-9.7-0.7c-6.1,0.8-12.1,0.3-18.1-1.4c-5.6-1.5-11.5-2.1-17-4.2c-3.3-1.3-6.4-2.7-9.2-5
		c-2.9-2.4-6.2-4.3-9.8-5.6c-1.1-0.4-2.2-1-3.7,0.3c2.5,2.3,6,2.8,8.2,5c0,8.4-0.8,16.6-3.5,24.7c-8.3,0.6-8.3,0.6-14-1.9
		c-0.8-0.9,0.7-2.1-0.3-3c-1.4-0.1-0.9,1.6-2.1,2c-4.5-3.2-7.3-8.1-11.2-12.6c6.1-1.9,9.4-6.3,12.3-11c3-4.7,5.8-9.6,4.8-15.8
		c3-0.7,5.8-2.2,8.3-4.3c-4.1,0.7-8,2.3-12,2.9c-0.2,1.9,1.2,1.5,1.9,1.8c-2.4,6.3-5.9,11.8-8.5,17.9c-1.2,2.8-4.4,4.8-7.3,6.7
		c-6.9-11.2-9.5-23-7.2-36C365.2,215.6,366.7,208.7,369.4,202z"/>
	<path fill="#FFFFFF" d="M310.4,205.1c1.5,0.8,1.2,3.2,3.2,3.6c1-0.8,0.6-1.6,0.2-2.3c-1.4-2.3-2.6-4.7-3.3-7.3
		c-0.7-2.8-2.6-4.3-5.3-4.6c-3.2-0.4-6.4-1.1-9.7-0.3c-0.3-0.3-0.7-0.6-1-1c-1.7-1.8-0.7-4-0.7-5.9c0.1-2.1-3.5-2.4-2.1-5
		c1-0.9,2.3-0.5,3.5-0.6c1,0,2.1,0.6,3.1-0.4c-0.4-2.4-2.3-1.2-3.5-1.5c-1.4-0.3-2.8-0.2-4.4-0.3c-0.2-2.5,1.2-4.7,0.5-6.9
		c1.2-0.6,2.7,1,3.3-1c-1.5-2.8-4.3,0.6-6.1-1.1c-0.7-1.8,0.6-3,1.2-4.4c0.7-1.7,1.6-3.3,2.2-5c1.1-2.9,0.6-3.8-2.3-5.4
		c0.1-5.4,1.4-10.5,3.1-15.8c2.4,0.6,4.7,0.8,6.5-1.2c1.7,0.5,3.2,0.9,4.6,1.3c0.1,1-1.1,0.5-1.2,1.4c2,1.6,4.3,1.9,6.8,0.9
		c1.2,3.5,4,5.3,6.4,7.6c3.2,3,6.3,6.1,8.3,10.1c1.7,3.3,2.9,6.6-0.9,9.4c1.6,1.1,2.3-0.9,3.1-0.7c1.4,0.3,0.6,1.7,2,2.1
		c2.3-3.8,3.6-9.1,9.5-9.5c0.5,2.3-2.6,2-2.8,3.8c-0.3,1.3,0.8,2.5,0.5,3.9c0.2-1.3-0.6-2.5-0.7-3.7c0.9-1.4,1.8-2.4,3.4-2.2
		c1.6,1,0.7,3,1.8,4.1c-1.1-1.8-0.6-4.3-2.4-5.8c0.6-0.5,1.1-1,2.1-0.8c1.6,1.4,1.7,4.3,4.4,5c-0.8,7.8-7.3,10.4-12.9,14
		c3.5,0.8,6.1-0.5,10.7-5.4c0.6,3.9,3.2,6.7,4.6,10.2c1.2,3,4.5,4.8,8,5.6c3.2,0.7,6.3,1.6,9.9,2.4c-3.9,4.6-6.1,9.8-9.6,14.2
		c-4.9,6.4-8.1,13.8-11.6,21c-3.3,6.7-9.3,9-15.6,11.1c-0.9,0.3-2.8,0.4-2.9-1.8c-3,1.3-5.8,0.5-8.8-0.7c-0.6-2.9,0.2-5.7-0.6-8.8
		c-2.2,2.4-0.5,5.3-1.5,7.7c-2.5,0.2-3-1.5-3.6-3.3c-2.1-6.7-2.3-13.4-0.6-20.2C310,209.4,310.2,207.2,310.4,205.1L310.4,205.1z"/>
	<path fill="#FFFFFF" d="M319.1,563.7c-5.4-0.2-10.4-2.3-15.6-3.7c-1.6-0.4-3.2-1.1-4.7-0.9c2.9-9.3,5.6-18.5,8.6-27.6
		c3.3-10.4,4.4-21.1,5.4-31.9c0.7-7,2.3-13.9,3.8-20.7c0.4-1.6-0.1-2.8-0.3-4.4c1.3-0.1,1.8,1.6,3.1,1.2c-0.1-3.1-0.6-3.5-3.8-3.4
		c-0.3-1.7-0.3-3.3,0.3-5.1c9.5,2.1,18.9,4.2,28.4,6.2c-0.1,1.4-0.3,2.8-0.4,4.2c0.1,0,0.2,0.1,0.3,0.1c0.5-1.5,0.9-3,1.4-4.6
		c0.7-0.4,1.4-0.7,2.3-0.3c0.1,1.3-0.6,2.4-1.1,3.4c-1.2,2.4-1.4,4.9-0.6,7.4c2.3,7,0.4,13.8-1,20.5c-0.8,3.6-3.8,6.4-5.8,9.6
		c-6.1,10.1-11.8,20.3-15.6,31.6c-0.4,1.3-0.9,2.5-1.2,3.8c-1.1,4.7-1.5,9.6-3.4,14.1C319.3,563.5,319.2,563.6,319.1,563.7z"/>
	<path fill="#FFFFFF" d="M516.4,133.9c-8.4,2-15.3,6.4-21.2,12.5c-8.3,8.5-13.7,18.7-16.8,30c-6.8,24-5.9,47.5,4.9,70.2
		c5,10.6,12.3,19.3,22.9,24.8c3.3,1.7,6.8,2.6,10.2,3.6c-13.7,0.6-25.9-2.8-35.6-13c-9.8-10.3-15-23-17.6-36.7
		c-4.4-23.5-1.6-45.9,10.5-66.7c5.9-10.3,14.4-17.7,25.5-22.1C504.6,134.2,510.5,134,516.4,133.9z"/>
	<path fill="#FFFFFF" d="M319.4,563.4c0.8,0.3,1.6,0.4,2.7-0.7c-0.5,2.3-0.9,4-1.3,5.8c-0.3,1.5-0.4,3.2,0.6,4.2
		c2.5,2.4,2.8,5.6,3.8,8.5c0.5,1.5,1.2,2.9,1.8,4.5c-1.4,2.4-3.3,3.8-6.3,4.2c-2.9,0.4-5.6,1.5-8.5,2.1c-2.5,0.5-5,1.2-6.7-1.8
		c-0.6-1-1.9-1.1-2.9-1.3c-1.5-0.3-3.1-0.6-4.6-1.1c-2-0.6-3.7-0.5-5.6,0.5c-3.9,2-8.1,2.9-12.6,3.1c-4.6,0.2-9.1,1.7-13.8,1.3
		c-3.8-0.3-7.8-0.3-11.3-2.2c-5.1-2.8-7.1-6.4-5.2-10.8c1-2.2,2.4-3.4,5-3.6c5.8-0.4,11.3-2.5,16.9-3.8c1.4-0.4,2.4-2.2,4.1-2.7
		c1.1,0,1.1,1.6,2.4,1.5c1-0.8,0.4-2,0.7-3c1.1-1.5,2.7-1.2,4.3-0.6c0.6-1.8-0.1-4,2-5c1,0.9,1,2.8,2.9,2.9c1.2-2.1-0.6-3.7-0.9-5.7
		c2.4-2,4.9-4.1,7.7-6.4c0.9,2.1,0.3,4,0.2,5.9c2.5,1.4,3.9,3.6,5.1,6c2,3.9,8.2,7.4,12.6,7c1.2-0.1,2.1-0.4,2.7-1.5
		c1.3-2.3,2.5-4.7,3.8-7C319.2,563.6,319.3,563.5,319.4,563.4z"/>
	<path fill="#FFFFFF" d="M418.5,671.2c-2-0.6-3.8-1.5-5.9-1.7c-3.6-0.3-5.1-3.3-7.5-6.2c2.2-3.3,3.4-7.7,8.1-9c1.1-0.3,1.4-1.3,2-2
		c1.5-2,3.1-4,4.7-6.1c4.7,1.7,9.3,2.8,14.3,2.2c-1.3-3.2-1.9-3.3-13.5-3.8c-0.1-1,0.2-1.9,1.1-2.8c4.7,2,9.8,2.8,15.1,3
		c-0.8-3.5-0.8-3.5-14.5-4c-0.7-1,0.1-1.8,0.4-2.7c2.8-0.3,5.5,0,8.3,0.4c2.7,0.4,5.3,1.9,8.2,1c-1.2-2.9-6.2-4.4-14.4-4.8
		c2.5-1.7,5.2-0.1,7.7-0.3c2.6-0.2,5.2,0.7,8.2,1.2c-0.8-3.6-3.5-3.3-5.6-3.8c-2.3-0.6-4.8,0-7.4-0.7c0-4-1.3-8.4,3.7-10.8
		c2.4,1.3,5.2,0.5,7.8,1.5c3.1,1.2,2.1,4.7,3.9,6.8c2.7-0.1,5.5,0,7.7,1.9c2.3-0.5,2.1-3.2,4.5-3.8c2.3,4.4-0.2,9.8,2.8,14
		c-1.5,4-2.2,8.4-6.7,10.4c-0.6-0.8,0.9-1.8-0.3-2.6c-2.9,1.7-3.3,5.9-0.8,9.7c-1.7,5.3-5.9,8.7-10,12c-2.2,1.8-5.6,1.2-8.5,1.1
		c-3.9-0.1-7.8,0.1-11.7-0.5c-0.5-0.1-1.1,0.3-1.7,0.5L418.5,671.2z"/>
	<path fill="#FFFFFF" d="M214.2,252.4c-13.9-1-23.8-7.7-30.9-19.1c-8.6-13.9-11.4-29.1-9.5-45.2c1.6-12.7,6-24.3,14.1-34.3
		c8-10,18.5-15.5,31.1-16.6c0.5,0.2,0.4,0.4,0.1,0.5c-19.1,6.2-29.5,20.5-34.7,38.8c-5.7,20.2-3.9,39.9,7.7,57.9
		c5,7.8,11.8,13.9,20.8,17.1C213.2,251.7,213.6,252,214.2,252.4z"/>
	<path fill="#FFFFFF" d="M517,207.6c-0.2-1.1-0.5-2.1-0.6-3c-0.1-0.5,0-1,0-1.4c1.2-1.7,2.7-2.3,4.8-2.2c28.6,1.1,57.2,2.1,86,3.1
		c-0.5,2.8-2.5,5.5,0.5,8.4c-12.5-0.5-24.4-0.9-36.3-1.3c-15.9-0.6-31.9-1.2-47.8-1.7C521.2,209.3,519.3,208.5,517,207.6z"/>
	<path fill="#FFFFFF" d="M415.6,207.6c14.4,0.5,28.8,1.1,43.5,1.6c0.6,6.2,1,12.2,2.3,18c0.4,1.8-0.6,2.7-2.4,2.8
		c-5,0.1-9.8-0.2-14.5-2.3c-5-2.3-10.1-4.3-15.6-4.9c-2.2-0.2-3.9-1.2-4.4-3.3c-1-4.5-4.4-7.1-7.6-9.9c-0.5-0.5-1.1-0.9-1.6-1.3
		C415.3,208,415.4,207.8,415.6,207.6z"/>
	<path fill="#FFFFFF" d="M248.3,201.5c0.5-1.6,1.5-2.3,3.3-2.2c1.9,0.1,4-0.2,5.7,0.8c4.6,2.5,9.4,2.5,14.4,2.1
		c1.2-0.1,2.4-0.2,3.4,0.8c5.2,4.5,11.2,7.2,18.1,7.6c0.3,0,0.7,0.2,1.4,0.5c-2.3,6.1-0.4,12,1.4,17.8c0.7,2.4,0.3,4.2-1,6.4
		c-4.6-3.3-8.5-7.3-12.5-11.1c-5.6-5.3-11.1-10.7-19.4-11.8c-1.6-0.2-4.4-0.6-3.4-3.8c0.1-0.3-1.6-0.5-1.6-1.6
		c-0.5-1.2,1.2-1.1,1.2-2c-2.5-0.1-4.9-0.1-7.2-1.2l0.2-0.1l-0.1,0.2c-0.8-0.1-1.6-0.1-2.4-0.2l0.1,0.1
		C249,203.1,248.6,202.3,248.3,201.5L248.3,201.5z"/>
	<path fill="#FFFFFF" d="M243.3,188.3c-3.7,0-7,0-10.3,0c-3.2,0-6.4,2.3-6.7,4.9c-0.4,3,1.9,5.8,5.3,6.9c3.4,1.1,7,0.6,11.1,1.1
		c-1.5,4.2-4,7.2-7.9,9c-3.8,1.7-7.2,0.7-10.2-1.8c-8.3-6.8-7.1-23.1,2-28.8c3.7-2.3,7.4-2.2,11,0.2
		C240.5,181.8,242.3,184.6,243.3,188.3z"/>
	<path fill="#FFFFFF" d="M396.1,197.2c21,2.1,42,0.7,62.9,1.5c0,2.8,0,5.2,0,7.4c-1.3,1-2.6,0.6-3.8,0.5
		c-14.5-0.5-28.9-1.1-43.4-1.6c-1.8-0.1-3.5-0.4-4.9-1.3C403.5,201.6,399.9,199.5,396.1,197.2z"/>
	<path fill="#FFFFFF" d="M292.1,192.6c1,1.9,2.7,3,4.4,4.2c3.5,0.4,7.5-3.7,10.5,1.5c-2.5,1.8-5,2.7-8.2,2.7
		c-11.3-0.1-22.6-1.3-33.9-1.4c-3.4,0-6.3-1.6-9.6-2.2c-0.8-1.2,0-2.4-0.2-3.4c2.8-1.8,5.9-2.1,8.9-2.1c8.5,0.1,17,0.2,25.6,0.4
		C290.3,192.3,291.1,192.5,292.1,192.6z"/>
	<path fill="#FFFFFF" d="M521.8,212c1.9-0.8,3.3-0.6,4.5,0.8c3.5,4.4,7.2,8.5,9.8,13.6c3.1,6.2,2,9.5-4.7,13
		C528.9,230,527.4,220.3,521.8,212z"/>
	<path fill="#FFFFFF" d="M171.3,195.5c-5.5,0-10.7,0.1-15.9-0.1c-2-0.1-3.9-2.6-3.6-4.4c0.4-2,1.9-3.2,3.9-3.2
		c5.2,0.1,10.4,0.4,15.7,0.6C171.8,191.1,171.3,193.3,171.3,195.5z"/>
	<path fill="#FFFFFF" d="M307.2,201.5c-3,10.2-5.5,19.7-8.9,29.5c-0.8-5.4-1.8-10.2-1.8-15.3c0-5.4,2.6-8.9,6.6-11.8
		C304.1,203.2,305.3,202.6,307.2,201.5z"/>
	<path fill="#FFFFFF" d="M519,211.6c1.3,0.1,1.5,0.9,1.4,1.6c-1.8,8.1-1.3,16.4-2.9,24.5c-0.3,1.8-1,2.6-2.9,2.6
		c-1.7-1.2-1.9-3.3-2-5.1c-0.4-5.9,0.4-11.7,3.7-16.8C517.6,216.2,517.7,213.6,519,211.6z"/>
	<path fill="#FFFFFF" d="M523,198.5c-3.8,0-7.4-0.2-8.6,3.8c-1.1,3.5,0,6.4,3.1,8.5c0,1.6-1,2.5-1.4,3.7c-3.7-0.5-6.4-3.5-7.2-8
		c-0.8-4,1.7-8.8,5.5-10.6C517.1,194.5,519.8,195.3,523,198.5z"/>
	<path fill="#FFFFFF" d="M240.1,191c-1,3.5,3,4.4,3.6,7.4c-3.9,0-7.8,0.1-11.7-0.1c-1.8-0.1-2.7-1.4-3-3.2c-0.3-1.8,0.7-2.7,2-3.5
		C233.8,189.9,236.8,190.9,240.1,191z"/>
	<path fill="#FFFFFF" d="M253.4,192.8c0.2,1.5,0.6,3-0.6,4.4c-0.9,0.4-1.8,0.5-3.1,0.2c1.4-3-0.2-6.4,1.3-9.3c2.1-1.9,4.4-1,6.5-1.2
		c2.1-0.2,4.2-0.3,5.6-2.1c1.8,0.9,2.4,2.5,3.3,4.6C261.6,189.1,257.6,190.9,253.4,192.8z"/>
	<path fill="#FFFFFF" d="M278.4,203c6.9,0,13.2,0,20,0c-1.1,2.1-2,3.7-3,5.6C289.3,208.6,284,206.3,278.4,203z"/>
	<path fill="#FFFFFF" d="M315.1,565.8c-0.4,1.5-1.4,2.4-2.4,3.7c-5.2-0.6-9.9-1.9-11.9-8C305.7,562.8,310.2,565,315.1,565.8z"/>
	<path fill="#FFFFFF" d="M222.6,208.9c-9.4-6.1-8.2-23.2,0.3-28.6c-3.5,4.1-5.4,8.7-5.4,14.1C217.4,199.9,218.8,204.8,222.6,208.9z"
		/>
	<path fill="#FFFFFF" d="M612.5,211.5c-1.4-0.1-2.6-0.4-3.6-1c-0.9-3.2-0.8-3.4,2-6.1C614.7,206.7,615.1,208.2,612.5,211.5z"/>
	<path fill="#FFFFFF" d="M248.9,187.4c-0.7,3,0.6,6.2-0.8,9.1C247.8,193.4,245.4,190.1,248.9,187.4z"/>
	<path fill="#FFFFFF" d="M388.6,349.3c-0.8-0.6-1.4-1.3-1.3-2.7c0.9-0.6,1.9-1.2,3-1.8c0.8,1.2,0.4,2.3,0.3,3.4
		C389.9,348.6,389.2,349,388.6,349.3L388.6,349.3z"/>
	<path fill="#FFFFFF" d="M244.9,189.8c-0.2,2.4,1.6,4.6,0.7,7.4C242.9,194.7,244.1,192.2,244.9,189.8z"/>
	<path fill="#FFFFFF" d="M288,134c2.8,1.7,6,2.7,8.9,4.4c-3.5-0.5-6.8-1.2-9.3-4c-0.1-0.2-0.1-0.4-0.2-0.6
		C287.6,133.8,287.8,133.9,288,134z"/>
	<path fill="#FFFFFF" d="M338.2,356c-1.3,0.6-2.2,0.6-3.2,0.3c-0.8-0.8-1-1.9-1.1-3c1-0.7,2-0.3,3.1,0c-0.2,1.1-1.4-0.1-1.6,0.8
		C335.1,356.3,337.4,354.8,338.2,356z"/>
	<path fill="#FFFFFF" d="M303.1,136.6c1.7-0.6,3.1,0.7,4.7,0.6c0,0.3-0.1,0.5-0.1,0.8c-1.6-0.2-3.1-0.4-4.7-0.5
		C303.1,137.2,303.1,136.9,303.1,136.6z"/>
	<path fill="#FFFFFF" d="M337.8,134.3c1.1,0.7,1.3,1.5,1.4,2.5c-1,0.2-2,0.4-3,0.6C336.1,135.7,337.6,135.4,337.8,134.3z"/>
	<path fill="#FFFFFF" d="M300.2,128.3c0,1-0.1,1.9-0.9,2.7c-0.9-0.2-1.7-0.4-1.7-1.7C298,128,299.7,129.4,300.2,128.3L300.2,128.3z"
		/>
	<path fill="#FFFFFF" d="M321.8,136.3c-1,0.8-1.7,2.4-4.2,1.7C319.3,137.1,320.2,136,321.8,136.3z"/>
	<path fill="#FFFFFF" d="M318,148.5c-1.2-1-2.4-2-3.6-3c0.1-0.2,0.3-0.4,0.4-0.6C316.2,145.8,317.8,146.2,318,148.5z"/>
	<path fill="#FFFFFF" d="M333.1,356.8c-2.3-1.7-2.3-1.7-2.7-5.3C331.2,353.1,332,354.7,333.1,356.8z"/>
	<path fill="#FFFFFF" d="M344.9,128.9c-0.7,2.2-1.9,2.4-3.7,2.2C342,129.5,343.3,129.4,344.9,128.9z"/>
	<path fill="#FFFFFF" d="M331.8,138.9c-1.2,0.6-1.7-0.2-2.3-0.6c0.2-0.9,0.6-1.4,1.1-1.8C331.6,137,332.3,137.6,331.8,138.9z"/>
	<path fill="#FFFFFF" d="M355.8,353.7c1.2,0.2,1.7,0.8,1.9,1.8c-0.7,0.2-1.3,0.4-2,0.6C354.8,355.3,355.2,354.6,355.8,353.7z"/>
	<path fill="#FFFFFF" d="M371.2,355c-2-1-2.1-1.9-2.1-3.3C370.7,352.3,370.6,353.4,371.2,355z"/>
	<path fill="#FFFFFF" d="M341,355.9c-1.3-0.4-1.9-1.2-1.8-3C340.7,353.6,340.6,354.9,341,355.9z"/>
	<path fill="#FFFFFF" d="M361.6,355.7c-1.7,0-1.9-0.8-2-1.8C361.3,353.4,361.5,354.3,361.6,355.7z"/>
	<path fill="#FFFFFF" d="M310.5,205.1c-1.8,0.1-1.5-0.9-1.2-2.1C310.7,203.2,310.5,204.3,310.5,205.1L310.5,205.1z"/>
	<path fill="#FFFFFF" d="M311.5,126.6c-0.3-0.4-0.6-0.7-0.8-1c0.4-0.9,1.1-0.7,1.4-0.3C312.7,125.9,312.1,126.3,311.5,126.6z"/>
	<path fill="#FFFFFF" d="M292.4,125.8c1.1-0.1,1.4,0.5,1.2,1.5C292.7,127.2,292.1,127,292.4,125.8z"/>
	<path fill="#FFFFFF" d="M300.3,128.3c-0.2-2,0.9-1.8,2.3-1.3C301.9,127.9,301.2,128.3,300.3,128.3L300.3,128.3z"/>
	<path fill="#FFFFFF" d="M340,151.2c0.4-1.5,1.6-0.8,2.1-1.6C342,150.9,341.5,151.6,340,151.2z"/>
	<path fill="#FFFFFF" d="M337.4,159.3c-0.2-1.2,0.3-1.5,1.4-1.3C339,159.2,338.5,159.4,337.4,159.3z"/>
	<path fill="#FFFFFF" d="M450.7,626.8c-0.8,0.7-1.4,0.4-2.2,0C449.6,625.7,450.1,626.3,450.7,626.8z"/>
	<path fill="#FFFFFF" d="M287.6,134.3c-0.6-0.5-1.3-1-1-2.2c0.8,0.4,1.1,1.1,1.4,1.8C287.9,134.1,287.7,134.2,287.6,134.3z"/>
	<path fill="#FFFFFF" d="M450.6,656.1c-0.2,0.3-0.5,0.5-0.8,0.3c-0.1-0.1-0.2-0.4-0.2-0.6c0.1-0.4,0.4-0.5,0.7-0.3
		C450.5,655.6,450.6,655.9,450.6,656.1z"/>
	<path fill="#FFFFFF" d="M312.9,141.4c0.6,0.2,1.2,0.4,1.1,1.2C313.3,142.5,312.7,142.4,312.9,141.4z"/>
	<path fill="#FFFFFF" d="M326.6,150.3c-1-0.8-1.7-0.9-1.3-1.8C326.4,148.3,326.4,149,326.6,150.3z"/>
	<path fill="#FFFFFF" d="M329,151.4c0.2-0.2,0.3-0.5,0.5-0.6c0.4-0.1,0.7,0.2,0.7,0.6c0,0.2-0.3,0.6-0.4,0.6
		C329.6,151.8,329.4,151.6,329,151.4z"/>
	<path fill="#FFFFFF" d="M992.5,399.1c-1.7,0.2-2.9-0.1-4.1-0.4c-0.9-1.6-0.3-3.3-0.2-5c0.5-14.2-1.9-27.7-9-40.1
		c-4.2-7.5-9.9-13.5-17.4-17.9c-6.4-3.7-12.8-2.1-19.2-0.8c0,0.3,0,0.7-0.1,1c1.2,0,2.4,0,3.6,0c1.3,0,2.7,0,4-0.2
		c5.5-1.1,10,1,14.3,4c7.7,5.3,12.5,12.9,16,21.3c5,11.8,6.4,24.1,5.2,37.4c-12.1-1.9-23.9-3.8-36-5.8c-0.7-3.8-3.6-5.3-6.6-6.8
		c-1.6-0.8-3.1-0.9-4.5-0.2c-4.5,2.2-8.6,5-9.2,10.5c-0.6,5.2,2,9.1,6.1,12c0.4,0.3,0.7,0.6,1.1,0.8c-5.2,6.3-8.6,13.1-8.1,21.3
		c0.2,3.4,1.8,5.6,4.2,6.3c2.8,0.7,6.6-0.9,8.2-3.6c0.3-0.5,0.8-1.1,0.7-1.7c-0.6-7.2,3.1-14,1.7-21.3c1.6,0,1.3,1.1,1.5,1.8
		c1.5,7.1,1.8,14.3,2.5,21.4c0.3,3.6,1.3,4.2,4.7,3c6-2.1,9.2-6.4,9.8-12.4c-3.7-6.1-5.7-12.7-10.9-17.4c0.2-0.2,0.3-0.4,0.5-0.6
		c10.6,1.7,21.2,3.5,32,5.2c-0.2,3-1.3,5.6-2.2,8.2c-4.9,15-14,27-26.6,36.2c-4.7,3.5-10.4,5.4-16.5,4c-1.6-0.4-3.2-0.6-4.9-0.5
		c3.9,1.8,7.8,2.5,12.1,1.8c10.9-1.6,17.8-9.1,24.4-16.7c7.5-8.7,12.2-19,15.3-30.1c0.2-0.8,0.2-1.7,1-2.4c1.3-0.2,2.5,0.2,3.8,0.6
		c0.1,0.3,0.3,0.5,0.3,0.7c-4,17-11.5,32.1-24.9,43.6c-5.3,4.5-11.3,7.7-18.2,8.9c-15.3,2.7-26.5-3.9-35.2-15.8
		c-6.2-8.5-9.6-18.3-11.2-28.7c-3.8-24.6,0.5-47.6,14.1-68.6c4.9-7.5,11-14,18.9-18.4c16.8-9.3,34.9-5.1,46.2,10.5
		c7.5,10.5,11.2,22.4,12.6,35C993.1,386,993.3,392.5,992.5,399.1z"/>
	<path fill="#FFFFFF" d="M681.1,356.9c1.6-0.5,1.3,1.5,2.8,1.9c-0.6-3.4-3.5-5.4-4-8.4c0.1-1.2,0.9-1.8,1.7-2.3
		c2.4,0.6,0.2,1.8,0.7,2.5c0.9,0.4,1.6-0.2,2.3-0.5c4.1,4.4,4.8,11.7,12.1,13.4c-0.5,2.7-0.7,5.4-3.7,6.8c6,4.5,13.2,4.6,20.7,5.5
		c-0.8,4.3-2.1,8.7,3.4,11.2c2.4-0.3,5,0.7,8.1,1.2c-1.2,3.9-0.2,7.8,0.1,12.1c-9.6-3.5-19.4-5.6-27.1-12.4c-2.3-2.1-5.5-3-8.5-4.2
		c-4.4-1.8-8.3-4.3-11.4-8c0.7,5.1,6,6.3,9,9.9c-7,11-16.2,19.2-29.3,22.2c-15.4,3.6-30.5-3.1-39.3-17.5
		c-8.7-14.3-10.6-29.9-7.6-46.2c2.8-15.1,9.4-28.2,21-38.4c9.8-8.5,21.2-12.6,34.2-9.6c11.2,2.6,19.2,9.7,24.8,19.6
		c6,10.6,7.9,22.1,7.6,34.5c-3.5-1.3-4.6-4.8-7.6-6.6c-1.8,0.9-3.6,0.1-5.7-0.5c-3,2.7-8.6,0.3-10.6,5.2c-2.1,0.1-2.1-1.2-2.4-2.6
		c-1.8-8.7-8.9-13.6-17.6-11.9c-7.4,1.4-10.8,7-12.7,13.6c-0.7,2.6-0.9,5.3-0.6,8c0.7,7.1,4.4,12,10,13.4c7.9,2,13.5,0,17.9-6.4
		c0.5-0.7,0.9-1.4,1.4-2.1c2.8,0,5.4,0.5,8.3,1.1c-1.4,3-0.1,6.3-2,9.1c-0.6,0.8-0.2,2.4,1.1,3.1c0.9-1-0.2-2.4,0.7-3.4
		c2.8,2.2,2.9,6.3,6.1,8.1c-1.7-2.1-1.9-4.9-3.9-7c-2.2-2.3-1.6-7.6,0.7-12c-2.8,0.5-5.4-0.6-8.1-1.1c-4.6-0.7-9.2-1.3-13.7-2.1
		c-3-0.5-4.3-2-4.1-4.2c0.2-2,2.6-3.9,5.2-3.5c4.6,0.7,9.1,1.5,13.6,2.6c1.5,0.4,2.8,1.7,3,3.5c0.2,1.6,0.8,2.8,2.3,3.4
		C680.7,357.9,681.4,357.7,681.1,356.9L681.1,356.9z"/>
	<path fill="#FFFFFF" d="M868.8,462c-0.1-0.3-0.2-0.7-0.3-1c-0.5-0.5-0.9-0.1-1.3,0.1c-7.3,3.8-14.8,6.7-22.8,8.5
		c-6.2,1.4-11.8,4.4-17.5,7.7c-2.7-0.9-5.5-1.4-8.5-1.7c0.4-1.8,2.3-0.4,3.1-1.9c-5.3,0.3-10.3-1.3-15.5-0.8
		c-2.2,0.2-4.5-0.7-6.8-1.2c-3.1-0.8-6.2-1.5-9.1-2.6c-2.5-0.9-4.6-2.1-6.4-4.3c-1.7-2.1-4.8-3.2-7.4-4.5c-4.2-2.1-7.9-4.6-10.5-8.8
		c-1.6-2.7-4.5-4.4-7.3-6c-1.9-1.1-3.8-2.3-5.7-3.2c-11-5.1-14.1-15.4-17.2-25.8c-1.7-5.8-2.5-11.7-1.7-17.7
		c0.2-1.6,0.3-3.2,1.1-4.7c1.1,0.4,1.4,1.2,1.2,2.2c-0.9,4.1,0.2,8.2,0.6,12.3c0.5,4.6,2.9,8.2,5.5,11.8c2.4,3.3,6.2,4.1,9.9,4.7
		c7.6,1.1,14.7-1,21-4.7c5.9-3.4,9.9-8.9,9.9-16.4c0-1.7,0.6-3.4,1.2-5c2-5.5,4.4-10.8,6.9-16.1c1.4-3,3.6-5.8,3.5-9.3
		c1.6-0.6,2.6,0.1,3.7,1c-0.9,3.1-2.8,5.9-4.1,8.8c-3.9,9-4.2,18.1,0,26.9c1.6,3.3,1.8,7.2,4.8,10c4.2,3.9,8.8,7.4,13.5,10.6
		c1.9,1.3,3.8,2.5,6.4,4.1c-5.3,4.5-11.8,4.9-17.1,7.7c6.6-1.5,14.3,0.4,19-6.3c6.3,1.2,13-0.9,18.1-5c2.1,0.6,4.3,1.2,6.5,2
		c2,0.8,4,1.8,5.9,2.7c0.5,1.7-0.9,3.2-0.1,4.8c1.8-0.7,1.1-2.9,2.5-4.2c5,0.8,10.3,1.1,15.7,1.1c2.6,0,5.5,5,6.5,8.4
		c1,3.2,2.1,6.7,5.8,8.2l-0.1-0.1C878.2,458.4,873.6,460.4,868.8,462L868.8,462z"/>
	<path fill="#FFFFFF" d="M857.7,524.5c-2.3-0.4-3.3-2.7-5.9-1.6c2,2,4,3.5,6.2,4.5c5.9,2.9,9.1,7.7,10.6,14
		c2.2,9.7,2.4,19.8,4.6,29.6c-1.6,0-1.2-1.8-2.7-2c6.9,12.5,6.3,26.7,9.7,39.8c0.7,2.8,1.1,5.7,1.9,8.5c0.5,1.7,0.6,3.3-0.5,5.3
		c-0.9-2.5-1.1-5.1-3.1-7.3c0.1,3.1,1.4,5.6,1.7,8.5c-2.4,0.5-4.3,2.8-7.2,0.9c0-2.1,0-4.3,0-6.1c-1-1.7-2.6-1.4-3.9-2.1
		c-0.4-0.8-0.9-1.8-1.5-2.8c-0.8,0.7,0.2,1.6-0.4,2.3c-1.3,0-2.6,0-4.5,0c-1.1-15.9-9.8-28.8-16.3-43.3c-1,1.9,0,2.7,0.3,3.6
		c0.4,1,1.5,1.6,1.2,3.3c-3.3-4.7-7.4-8.2-11.3-11.9c-6.7-6.7-9.4-15.2-11.1-24.2c-0.8-4.2-2-8.1-4.8-11.2c-1-1.1-0.9-2.4-1.6-3.6
		c-2-3.6-4.8-6.5-7.5-9.5c-5.8-6.6-7.5-11.2-3.1-19.1c3.2-5.8,6.9-11,12.1-15.3c4.2-3.4,8.9-3.8,13.8-3c2.6,0.4,5.2,1.4,7.7,2.2
		c0.9,0.3,2,0.6,2.6,1.3c4.1,4.3,8.8,8,12.4,12.8c3.4,4.5,5.1,9.4,3.5,15C859.6,517,859.5,520.9,857.7,524.5z"/>
	<path fill="#FFFFFF" d="M698.2,463.4c0.3-0.1,0.8-0.1,1-0.4c5.6-6.7,13.4-8.9,21.6-10.2c5.8-1,11.3-3,17.3-4.2
		c1.4,2.7,2.7,5.3,4.1,8c4,8.1,8.5,15.8,14,23c3.7,4.8,7.4,9.6,11.1,14.5c1.2,1.6,2.4,3.4,2.9,5.7c-3.9,0.5-7.3-0.8-10.8-1.5
		c-4.3-0.9-8.5-2.1-12.7-3.4c-4.7-1.4-9.3-2.6-14.3-2.6c-4.2,0-8.3-1.4-12.3-3.9c0,1.8,1.2,2.9,2.4,3.3c3.9,1.1,7.7,3.1,12,2.6
		c2.4-0.3,4.6,0.3,6.7,1.5c2.8,5.9,3.2,12.4,1.9,18.5c-1.5,7.2-1.1,14,0,21c1.2,7.6,1.7,15.3,3.8,22.7c0.3,0.9,0.1,1.7-0.6,2.6
		c-2.1,0.9-4.5,0.8-6.7,0.7c-1.2-0.9-1.1-2.4-2.3-3.2c-0.9,0.9,0.3,2.1-0.7,3c-3.7,0.2-7.2-0.9-10.9-2.2c-0.8-0.9-0.8-1.9-0.5-3
		c1.4-5.4,0.6-10.8-1-15.9c-1.8-5.9-4.4-11.5-7-17.1c-2.1-4.5-4.4-8.9-6.8-13.3c-2.2-3.9-2.6-8.3-3.5-12.6c-0.9-4.3-1.9-8.6-4-12.5
		c-3.6-6.7-5.6-13.7-4.7-21.3L698.2,463.4z"/>
	<path fill="#FFFFFF" d="M765.6,366.8c-3.4,3.6-7.3,6.3-13.1,7.2c4.4,2,7.2,0.6,16.7-7.2c0.5,0.2,1,0.4,1.5,0.7c0.5,0.3,1,0.7,1.4,1
		c-0.3,1.6-2.2,2-2.4,3.6c1.8,0.1,2.8-2.7,4.8-1.4c0.8,1.1-0.8,1.7-0.3,2.8c1.3,0,1.3-1.6,2.5-2.1c5.3-0.4,10.9-0.4,16.4,1.9
		c-0.8,2.2-1.8,4.1-3,5.9c-2.1,3.2-3.9,6.5-5.1,10.1c-0.7,2.1-2,3.2-4,3.8c-3.1,1-6.4,1.4-9.5,4.4c4.1-1.2,7.6-2.2,11.5-3.3
		c-1.6,5.7-2.5,11.1-4.5,16.1c-2.2,5.5-7.1,8.3-12.5,10.5c-6,2.5-12.2,1.9-18.3,1.4c-1.4-0.1-2.1-1-2.9-2c-3.1-4.3-5.4-8.9-6.1-14.3
		c-0.3-2.6-0.3-5.3-1.3-8.9c4.1,2.6,7.6,4.2,11.8,4.6c-0.4-1.2-1.3-2.5-2.6-2.6c-4.9-0.4-7.9-3.7-10.1-7.3c-2.1-3.5-4.1-5.4-8.5-5.6
		c-3.3-0.1-6.6-1.2-10-1.6c-3.3-0.4-4.3-2.1-3.3-5.4c0.8-2.4,0.1-4.3-1.6-6c1.8-4.2,5.4,0.5,7.7-1.8c-2.1-2.5-5.6-1-8-2.8
		c0.8-2,1.6-4.2,1.6-6.5c1.2-0.6,2.3,1.3,3.4-0.4c-1.2-2.8-4-0.8-5.7-1.6c-0.6-1.6,0-2.5,0.8-3.6c1.3-1.8,2.4-3.6,3.5-5.6
		c1.6-2.9,1.3-3.9-1.5-5.9c0.9-5.3,2.9-10.3,5.4-15.3c2.1,0.7,4.5,2.3,6.1-0.6l-0.1,0c1.5,1.3,3.6,1.4,5.3,2.7
		c-0.7,0.3-1.2,0.4-1.9,0.7c1.8,2.2,4.1,2.3,6.7,2.1c0.7,3.3,3.1,5.5,5,7.9c2.8,3.4,5.4,6.9,7,11.1c1.3,3.6,2.1,7.1-2,9.6
		c1.4,1.2,2.4-0.8,3.3-0.2c1.2,0.5,0,1.8,1.3,2.2c3-1.6,3.1-6,6.6-7.3l-0.1,0.1c1.3-0.2,2.6-0.5,4.6-0.8c-2.4,1.7-4.2,2.9-6.1,4.2
		c1.5,0.8,3.2,1.4,1.4,3.5c-0.9,0.7-2.9-0.2-3.6,1.9c0.6,2.4,2.7,2,4.3,2.3c1.2-0.9,0-2.5,1.5-2.9l-0.1-0.1c0.1,0.4,0.2,0.9,0.3,1.7
		c1.7-1,1.5-3.2,3.1-3.8c0.9,1.5,0.9,1.5-0.6,3.7c1.3,0.4,1.8-1,2.8-1L765.6,366.8z"/>
	<path fill="#FFFFFF" d="M882.4,408.5c0.3,9.9,2.3,19.2,5.7,28.5c-3.6,1.1-6.8,0-9.9-0.6c-4.3-0.8-8.6-1.4-13-1.5
		c-5.9-0.1-11.5-0.9-17-3.3c-6.3-2.8-13.1-4.5-19.7-6.7c-0.3-0.1-0.7,0.2-1.5,0.4c2.1,3.6,6.3,3.6,9.2,5.7c-4,2.4-8.4,1.8-12.8,3.3
		c1.3-3.5,2.8-6.6,1.1-9.9c0.7-1.3,2.4-1.4,3-3c-2-0.2-3.3,1-5.1,1.5c0.1,3.5,0.1,7-2.2,9.8c-27.6-12.8-30.3-36.3-19.7-56.7
		c5,4.2,11.1,5.8,17.3,5.6c5.9-0.1,11,1.7,16,4.2c2.3,1.1,4.4,2,6.8,2.1c1.9,0.1,3.2,0.8,4.3,2.3c0.7,1,1.6,1.9,2.4,2.8
		c3,3.5,6.6,5.8,11.5,6.3c6.7,0.8,13,3,18.5,7.1C878.6,407.6,880.3,408.4,882.4,408.5z"/>
	<path fill="#FFFFFF" d="M780.7,492.2c5.4,3.4,11.8,4.5,17.6,7c2.1,0.9,4.3,1.6,6.9,2.5c-2.4,5.1-1.1,9.9,1.7,14.8
		c-9.5,2.8-17.9,7.6-27.5,9.7c-0.1-7.5-1.9-14.1-4.3-20.6c-3-8.3-7.7-15.3-12.9-22.3c-8.2-11-15.4-22.7-21.7-35.3
		c4.1-1.5,8.3-1.6,12.5-2.2c1-0.1,1.8,0.7,2.6,1.1c4.2,2.3,7.7,5.5,11.1,8.9c2.4,2.5,5.1,4.5,8.2,6.1c2.9,1.5,5.7,3.3,8.2,5.4
		c5.7,4.7,12.7,5.9,19.7,7c3.4,0.5,7,1.3,10.3,0c0.8,3.1,3.3,2.1,5,2.6c2,0.6,4.2,1,6.9,1.6c-8.7,5.9-14.9,13.2-19,22.4
		c-8.2-3.9-16.7-6-24.8-9.2c-0.6,0-1-0.3-1.4-0.7c0,0,0,0.1,0.1,0.1C780.2,491.5,780.6,491.7,780.7,492.2z"/>
	<path fill="#FFFFFF" d="M865.8,530c-2.3-1.5-4.6-3.1-7-4.6c2.8-5.4,2.7-11.5,4.5-17.1c0.6-1.7-0.2-3.7-1.1-5.3
		c-2.5-4.4-4.5-9.2-8.5-12.6c-0.7-0.6-1.5-1.3-2-2.1c-4.5-7.1-11.3-9.1-19.2-8.7c-1.1,0-2.2,0-3.8,0c1.9-2.3,4.1-3.2,6.2-4
		c5.5-2.2,10.6-5.4,16.8-5.6c4-0.1,7.7,0.5,11.3,1.9c4.2,1.6,8,4.1,12.3,5.4c0.1,0.1,0.2,0.2,0.2,0.2c0,0.1,0,0-0.2-0.1
		c-2.4-2.8-6.1-3.3-9-5.2c-0.9-0.6-2-0.7-3-2c7.9-0.6,15.1,1.3,22.4,2.4c-4.4-2.5-9.3-3.4-14.2-3.8c-3.3-0.3-6.5-0.6-9.8,0.4
		c-2.4,0.7-4.8,0.2-7.5-0.8c4.5-1.8,8.4-4.1,13.2-3.5c0.1,0.5-1.3,0.6-1.1,1.7c5.4-0.7,8.9-4.9,13.6-6.9c-0.9,2.1-4,1.9-4.5,5.5
		c4.2-2.4,8.1-3.7,12-4.9c3.3,3,4.9,7.5,9.3,9.8c-0.9,3-0.2,5.9,0.4,8.8c0.9,5.5-0.5,11-2.5,16c-1.5,3.7-2.8,7.5-4.5,11.1
		c-3.8,8.3-9.7,14.3-18.1,18.1C869.3,525.3,866.2,526.4,865.8,530L865.8,530z"/>
	<path fill="#FFFFFF" d="M930.5,466.8c-13.1-1.1-24.4-5.9-32.6-16.7c-7.6-10.1-11.4-21.8-12.8-34.2c-2.6-22.9,1.7-44.4,14.1-64
		c8-12.8,18.9-21.9,34.1-24.9c5.1-1,10.2-0.6,15.6-0.2c-2.4,1.1-4.9,1-7.2,1.7c-10.6,3.2-18.7,9.8-25.4,18.3
		c-10.7,13.6-16.2,29.3-18.3,46.3c-1.8,14-0.9,27.8,3.7,41.2c3.4,10.1,8.7,19,17.1,25.9C922.4,463,926.3,465.2,930.5,466.8z"/>
	<path fill="#FFFFFF" d="M852.5,639.9c6-0.1,11.6,1.8,17.4,1.2c-4.7-3.4-10.2-3-15.5-3.8c5.5-0.7,11.1-0.6,16.8-0.7
		c-4.3-3.7-9.5-2.3-14.4-2.4c0.7-1.8,0.7-1.9,2-1.8c4.3,0.1,8.5-0.2,12.8,0.4c1,0.1,2.2,0.5,3.3-1c-5.5-2.7-11.2-1.8-17-2.2
		c0.6-2.9-0.2-5.6,0.1-8.9c4-1.5,8.1-2.5,12.7-1.2c0.9,2.4-0.2,5.2,1.6,7.7c4.1,0.2,7.5,3,10.9,4.2c2,0.2,2.6-1.2,4.2-1.5
		c1,2.9,2.2,5.8,2.8,8.8c0.5,2.7-0.3,5.3-2.8,7c-1.2,0.8-2.3,1.9-3.4,2.8c-2.8,2.4-4.4,5.4-5.7,9c-3.2,8.9-11.6,14.2-21.6,12.3
		c-4-0.8-7.3-3.2-11.3-3.6c-1.1-0.1-2.2-0.5-3.3-0.3c-2.7,0.4-3.3-0.9-3-3.1c0.5-3.6,1.2-7.1,4.2-9.8
		C847.3,649.4,850.7,645.2,852.5,639.9z"/>
	<path fill="#FFFFFF" d="M653.8,293.6c-2.5,0.6-5,1.1-7.4,1.9c-10.4,3.5-18.6,10.1-24.8,19.1c-14.3,20.9-17.7,43.5-9,67.4
		c3.9,10.8,10.9,19.2,21.4,24.6c-6.8-0.3-16.2-5.5-21.3-11.7c-8.6-10.5-12.4-22.8-12.7-36.2c-0.4-18.2,4.7-34.6,16.6-48.7
		C626.3,298.4,638.7,292.7,653.8,293.6z"/>
	<path fill="#FFFFFF" d="M1030.2,408c-0.7,2.6-3.4,4.8-0.2,8.3c-15.7-2.5-30.5-4.8-45.3-7.4c-14.7-2.6-29.6-4.2-43.7-7.5
		c-1.9-6.2-0.4-7.9,5-7c27.5,4.5,55.1,8.9,82.6,13.4C1029.2,407.7,1029.7,407.9,1030.2,408z"/>
	<path fill="#FFFFFF" d="M774.7,367.2c0.2-0.3,0.2-0.4,0.3-0.5c0.1-0.1,0.2-0.2,0.3-0.2c0.2-0.1,0.5-0.2,0.7-0.2
		c7.6,1.2,15.2,2,22.7,3.7c28.1,6.5,56.6,10.5,85,14c0.7,1.9,0,3.2-0.1,4.4c-0.1,1.2,0,2.4-0.8,3.7c-7.5-1.1-15.1-2.4-22.6-3.4
		c-8.7-1.1-17.1-3.4-25.7-5.1c-1.9-0.4-3.7-1-5.5-2c-4.3-2.5-9.1-2.5-13.8-2.5c-4.8,0-9.1-1.2-12.6-4.6c-1.9-1.9-4.4-2.9-7.1-3.5
		c-5.9-1.3-11.8-3-17.8-1.2C776.4,368.7,775.5,367.9,774.7,367.2z"/>
	<path fill="#FFFFFF" d="M668.7,359.6c-0.1,1.3-0.8,2-1.4,2.7c-2.9,3.5-6.3,6.2-11.2,5.4c-5.2-0.8-7.9-4.5-9.2-9.2
		c-1.9-6.8-0.5-13.1,4-18.5c6.3-7.6,15.6-6.1,19.4,3c0.5,1.1,0.9,2.2,0.9,4.2c-3.1-0.5-6.1-1-9.2-1.5c-1.4-0.2-3-0.8-4.3,0
		c-1.9,1.2-4,2.3-4,5.1c0,2.9,1.5,4.8,4,5.9c2.2,1,4.5,1.6,7,1.9C665.9,359,667.3,359.4,668.7,359.6z"/>
	<path fill="#FFFFFF" d="M882.3,394.7c0,3.7,0,7.2,0,10.4c-1.1,0.8-1.9,0.7-2.7,0.1c-6.1-4.8-13.3-7-20.9-7.8
		c-5.5-0.6-8.9-3.3-11.1-8.5C859.3,391,871,392.3,882.3,394.7z"/>
	<path fill="#FFFFFF" d="M950.5,433.5c-1.2-9.8-1.5-19.5-6.1-28.4c1.8-0.4,3.3-0.3,4.3,1.3c3,4.9,6.3,9.6,8.2,15
		C959.1,427.8,957.6,431,950.5,433.5z"/>
	<path fill="#FFFFFF" d="M713.5,363.4c-1.1,1.4-2,1.1-2.8,1c-5.7-0.8-11.2-2.3-16.5-4.1c-3-1-4.2-4.1-5.7-7.5
		c7.9,0.8,15.1,2.6,23,2.9C708.8,359.4,710.9,361.6,713.5,363.4z"/>
	<path fill="#FFFFFF" d="M600.1,338.3c-0.5,2.7-1,4.8-1.5,7.5c-5.4-0.9-10.8-1.7-16.1-2.9c-1.9-0.4-2.9-2.5-2.6-4.4
		c0.3-2.1,2.1-3.2,4-2.9C589.3,336.4,594.6,337.4,600.1,338.3z"/>
	<path fill="#FFFFFF" d="M941.6,404.2c1.6,0.4,1.7,1.4,1.4,2.1c-3,7.6-3.2,15.8-5.9,23.5c-0.6,1.7-1,3-3.1,2.6
		c-1.5-1.2-1.6-2.9-1.5-4.6c0.2-6.2,1.6-12,5.6-16.9C939.6,409,940.5,406.6,941.6,404.2z"/>
	<path fill="#FFFFFF" d="M947.6,391.9c-3.9-0.2-7.7-1.2-9.4,3c-1.3,3.2-0.9,6.2,2.2,8.6c-0.6,1.4-1.3,2.6-2.2,3.6
		c-3.5-1.2-5.8-4.8-6-9.1c-0.2-4,2.4-7.8,6.2-9.5C941.5,387.2,944.1,388.1,947.6,391.9z"/>
	<path fill="#FFFFFF" d="M777.4,523.4c-3.5-7.8-9.5-13.9-15.4-20.8c3.6-0.5,6.2,1.4,8.9,0.1C774.5,509.2,777,515.8,777.4,523.4z"/>
	<path fill="#FFFFFF" d="M698.8,364.5c4.4,0.8,8.3,1.6,12.5,2.4c-0.5,2.1,2.1,3.9,0.2,6.4c-4.7-1.6-10.3-0.1-14.7-3.9
		C697.4,367.6,698.1,366.1,698.8,364.5z"/>
	<path fill="#FFFFFF" d="M728.5,388.4c2.6-0.2,3.7,1.3,4.8,3.1c-2,4.2-2.3,8.9-2.4,13.7C726.7,401.2,725.8,394.5,728.5,388.4z"/>
	<path fill="#FFFFFF" d="M726.6,561.7c6.2,2.4,12.1,2.6,18.4,1.8c-2.5,4-6.1,4.4-9.9,4.8C730.2,568.8,728.7,565.4,726.6,561.7z"/>
	<path fill="#FFFFFF" d="M651.1,337.2c-7.1,8.1-8.2,15.2-4.2,26.3C640.6,358.6,642,342.2,651.1,337.2z"/>
	<path fill="#FFFFFF" d="M696.1,350.9c-2.4,0-5,0.6-5.9-2.6c-1,0.7-1.9,1.3-2.8,2c-1.1-0.6-1.9-1.4-2.6-2.5c1.6-1.9,3.8-2.1,6.1-2.5
		C692.7,347.1,694.4,349,696.1,350.9z"/>
	<path fill="#FFFFFF" d="M1035,415.9c-1.6,0.1-2.8-0.6-3.9-1.3c-0.4-3.3-0.2-3.6,2.9-5.8C1037.4,411.7,1037.5,412.5,1035,415.9z"/>
	<path fill="#FFFFFF" d="M842.1,667.7c2.6-0.5,4.7,0.1,6.5,0.9c1.9,0.8,3.8,1.4,5.7,2.3C850.1,671.2,845.9,671.2,842.1,667.7z"/>
	<path fill="#FFFFFF" d="M765.4,366.7c0-0.8,1.3-1.3,0.4-2.3c-1.9-2.2-1.8-5-3.1-8.3c3,1.8,2.3,5.4,5.2,6.3
		c-1.4,1.4-0.3,3.7-2.4,4.4L765.4,366.7z"/>
	<path fill="#FFFFFF" d="M726.5,329.2c-4.4,0.5-10-3.4-11.2-8.3C717.9,325.7,722.5,326.9,726.5,329.2L726.5,329.2z"/>
	<path fill="#FFFFFF" d="M759.8,366.2c-0.2-1.5,0.1-3.1-0.6-4.5c0.6-1.1,1.4-1.7,2.5-2c0.6,0.7,0.6,1.5,0.8,2.5
		C761.1,363.2,760.7,364.8,759.8,366.2L759.8,366.2z"/>
	<path fill="#FFFFFF" d="M883.8,628.8c-1.5-0.2-2.7-0.6-3.6-1.8c1.1-0.8,2.1-1.5,3.4-1.8C884.1,626.4,884.1,627.4,883.8,628.8z"/>
	<path fill="#FFFFFF" d="M728.5,322.1c-1.4-0.4-2-1-1.6-2.4c0.6-0.6,2,0.9,2.6-0.7c0.5-1.5,1.5-1.2,3.1,0
		C730.1,319.1,729.2,320.6,728.5,322.1z"/>
	<path fill="#FFFFFF" d="M766.6,330.7c0.2,0.8,0.3,1.4,0.5,2.2c-1.1,0.4-2.1,0.6-3.8,0.4C764.5,332.1,765.3,331.2,766.6,330.7z"/>
	<path fill="#FFFFFF" d="M731.5,327.9c1.5,0.5,3,1.1,5.1,1.8C733.6,330,733.6,330,731.5,327.9z"/>
	<path fill="#FFFFFF" d="M744.5,341.9c-1.1-1.2-2.2-2.4-3.4-3.6c0.2-0.2,0.3-0.3,0.5-0.5C742.9,338.9,744.4,339.7,744.5,341.9z"/>
	<path fill="#FFFFFF" d="M769.6,345.7c-1,0.9-1.7,2.3-3.9,2.2C766.9,346.3,768.5,346.3,769.6,345.7z"/>
	<path fill="#FFFFFF" d="M758.8,334.7c-0.7-0.5-1.2-0.9-1.7-1.2c0.2-1,0.7-1.5,1.6-1.7C759.6,332.7,760.3,333.5,758.8,334.7z"/>
	<path fill="#FFFFFF" d="M745.4,331.3c1.9-0.2,2.9-1.5,5.2-0.9C748.7,331.1,747.9,332.8,745.4,331.3z"/>
	<path fill="#FFFFFF" d="M773.8,326.1c-0.9,2.4-2.2,2.2-3.8,1.9C770.9,326.4,772.2,326.6,773.8,326.1z"/>
	<path fill="#FFFFFF" d="M868.8,462c-0.9,1.1-2.2,1.5-3.6,1.5C866.3,462.7,867.2,461.6,868.8,462L868.8,462z"/>
	<path fill="#FFFFFF" d="M881,459.9c1.3-2,2.6-1.8,4.5-1.5C884,459.5,882.8,459.6,881,459.9z"/>
	<path fill="#FFFFFF" d="M681.2,356.8c-0.6-0.8-1.7-1.3-1.3-2.7C680.8,354.8,681.6,355.4,681.2,356.8L681.2,356.8z"/>
	<path fill="#FFFFFF" d="M739.3,333c1,0.9,2,1.5,2.1,3C740.3,335.1,739.5,334.6,739.3,333z"/>
	<path fill="#FFFFFF" d="M740.3,331.5c0.3-1,1.3-1.4,2.3-1.8c-0.5,0.8-1.1,1.5-1.6,2.3C740.7,331.9,740.5,331.7,740.3,331.5z"/>
	<path fill="#FFFFFF" d="M764.1,354.6c-0.6,0.8-1.1,1-2.4,0.6C762.5,354.1,763,353.7,764.1,354.6z"/>
	<path fill="#FFFFFF" d="M678.1,351.2c-0.6-1.6-0.1-2.4,1.2-3.5C678.8,349.1,678.5,350,678.1,351.2z"/>
	<path fill="#FFFFFF" d="M723.4,317.5c-1.2,0.2-1.3-0.5-1.5-1.4C723.3,316,723.3,316.7,723.4,317.5z"/>
	<path fill="#FFFFFF" d="M740.3,318c0.9-0.2,1.4-0.2,1.6,0.2c0.1,0.2-0.2,0.8-0.4,0.8C740.7,319.4,740.6,318.7,740.3,318z"/>
	<path fill="#FFFFFF" d="M885.3,620.6c-1.2-0.1-1.3-0.7-0.9-1.7C885.4,619.1,885.8,619.5,885.3,620.6z"/>
	<path fill="#FFFFFF" d="M757.6,358c-0.6-0.3-1.5-0.5-0.4-1.3C758.2,357,756.9,357.7,757.6,358L757.6,358z"/>
	<path fill="#FFFFFF" d="M754.5,351.2c-0.7-0.3-0.7-0.7-0.4-1.3C754.8,350.2,755,350.6,754.5,351.2z"/>
	<path fill="#FFFFFF" d="M755.8,347c-0.6,0-0.7-0.5-0.6-0.9c0.1-0.4,0.5-0.5,0.8-0.2C756.4,346.3,756.4,346.7,755.8,347z"/>
	<path fill="#FFFFFF" d="M747.9,347.2c-0.9-0.3-1.3-0.5-1.1-1.3C747.5,345.8,747.8,346.3,747.9,347.2z"/>
	<path fill="#FFFFFF" d="M679.8,347.4c0.4-1.2,0.8-1.4,1.3-1.6C681.4,346.8,680.7,346.8,679.8,347.4z"/>
	<path fill="#FFFFFF" d="M733.7,331.5c0.5-0.3,0.7,0.1,1.1,0.4C734.1,332.3,733.8,332.3,733.7,331.5z"/>
	<path fill="#FFFFFF" d="M752.7,344.3c-1.3,0.1-1.1-0.6-1.1-1.2C752.7,343,752.8,343.6,752.7,344.3z"/>
	<path fill="#FFFFFF" d="M735.4,578.3c-0.7-0.1-1.3-0.2-1.7-0.3c-1.4,0.3,0.2,1.6-0.9,2c-2-0.2-2.5-1.6-2.2-3.3
		c0.2-1.2,1.3-1.9,2.4-1.7C734.6,575.1,735.6,576.1,735.4,578.3z"/>
	<path fill="#FFFFFF" d="M726.3,576.6c-0.1,1.6-0.9,2.7-2.4,2.7c-1.7,0.1-2.7-1-2.7-2.7c0-1.6,1.1-2.5,2.5-2.5
		C725.2,574.2,726.1,575.1,726.3,576.6z"/>
	<path fill="#FFFFFF" d="M714.2,573.8c1.1-0.6,2-0.2,2.9,0.5c0.2,1.5-0.7,1.7-1.8,1.5C714.1,575.7,713.6,575.1,714.2,573.8z"/>
	<path d="M373.4,404.9c0.6-0.7,1.2-1.5,1.9-2.3c-1.3-3.9,0.3-6.9,3.3-9.2c5.9-4.6,12.7-7.3,20.2-9.6c-0.9,1.8-2.4,1.9-3.5,2.4
		c-4.9,2.1-10,3.9-14.4,7c-3,2-5.1,4.5-4.6,8.4C376.5,403.6,375.4,404.7,373.4,404.9L373.4,404.9z"/>
	<path d="M410.5,373.5c1.2,1.7,3.4,2.4,2.9,5.6c-1.2-2.4-3.1-3.3-4.8-5.2c2-5.3,6.7-8.8,9.5-14.5c0.5,3,0.4,3.1-2.8,7.5
		C413.6,369.1,411.7,370.9,410.5,373.5z"/>
	<path d="M351.6,397.9c7.7-7.3,17.2-9.8,28.2-9.9c-1.5,1.4-2.9,1.5-4.2,1.5C366.6,389.5,358.8,392.8,351.6,397.9z"/>
	<path d="M380.1,450.7c-0.4-8.6,0.2-17.1,1.1-25.6c0.2,0,0.5,0,0.7,0c-0.3,8.5-0.7,17-1,25.6C380.6,450.7,380.4,450.7,380.1,450.7z"
		/>
	<path d="M397.9,442c-2.6,8.2-7.2,15.1-13.7,20.7C389.5,456.3,394.2,449.5,397.9,442z"/>
	<path d="M348.9,415c-7.3-1.2-14.4-2.9-21.5-4.9C331.5,409.7,346.1,413,348.9,415z"/>
	<path d="M346.7,362.7c2.7,6.7,0.5,13.8,1.5,20.7C346.2,376.6,347.6,369.6,346.7,362.7z"/>
	<path d="M336.5,401c-4.9,2.1-14.5-2.3-14-7.5C328.7,399.2,328.7,399.2,336.5,401z"/>
	<path d="M377.5,353.5c4.4,2.7,2.6,8.6-3.6,13.5C376.1,362.5,379.1,358.9,377.5,353.5z"/>
	<path d="M395.8,361.4c-3.2-4.3-4-8.7-2.4-11.8C395.2,350.8,395.2,350.8,395.8,361.4z"/>
	<path d="M414.2,407.1c1.1-5.7,4.5-10.4,6.5-15.7C419.9,397.2,416.1,401.7,414.2,407.1z"/>
	<path d="M346.2,398c0.8,3.7,2.8,7,4.5,11.1C347.5,406.2,346.1,402.5,346.2,398z"/>
	<path d="M365,365.1c-1.3-4.6-0.8-5.5,2.4-5.2C367.9,362.1,365.8,362.8,365,365.1z"/>
	<path d="M342.3,363.5c0.2,1,0.4,1.4,0.3,1.7c-0.7,1.9-0.7,3.9-1.4,5.8C340.5,368.5,339.7,366.1,342.3,363.5z"/>
	<path d="M366.2,410.8c-2,2.1-4.1,4.3-6.1,6.4c1.3-2.9,3.2-5.1,5.9-6.6L366.2,410.8z"/>
	<path d="M414.7,386.7c-1.7,1.8-3.3,3.5-5,5.3C411,389.8,412.6,388,414.7,386.7z"/>
	<path d="M411.5,347.1c-0.3,0.8,0.2,1.6-0.3,2.4c-1-0.4-1.5-1-1.5-2.1C410.3,346.7,410.9,347.1,411.5,347.1L411.5,347.1z"/>
	<path d="M366,410.6c0.8-1.2,1.9-2,3.3-2.5c-0.8,1.1-1.7,2.2-3.1,2.7L366,410.6z"/>
	<path d="M358.3,383c-0.8,1.6-1.8,1.8-2.8,2C355.8,383.5,356.9,383.6,358.3,383z"/>
	<path d="M373.4,404.8c-0.3,1.3-1.4,1.5-2.4,1.9C371.5,405.8,372.2,405,373.4,404.8L373.4,404.8z"/>
	<path d="M409.8,458.3c-0.9,1.1-1.6,1.6-2.6,1.4C407.7,458.6,408.6,458.5,409.8,458.3z"/>
	<path d="M425.9,409.8c0,0.9,0.1,1.9-1,2.6C425,411.3,425.4,410.6,425.9,409.8L425.9,409.8z"/>
	<path d="M368.9,452.2c-0.1-0.4,0.1-0.5,0.5-0.4C369.2,452,369.1,452.1,368.9,452.2z"/>
	<path d="M331.2,293.8c4.6,0.2,20.8,7.1,23.6,10C347.4,299.5,338.7,298.1,331.2,293.8z"/>
	<path d="M331.3,269.2c4.9,0.6,9.9-1.7,14.8,0.2C341.1,270.3,336.2,272.1,331.3,269.2z"/>
	<path d="M332,326.2c-3-7.9-5.3-16-6-24.5C327.7,309.9,330.9,317.8,332,326.2z"/>
	<path d="M324.8,269c-2.8-0.4-5.3-1.3-6.9-4C320.1,266.6,323.1,266.5,324.8,269L324.8,269z"/>
	<path d="M388.3,291.2c0.4-2.3,1.9-3.9,3.1-6.2C391.7,287.6,391.3,288.3,388.3,291.2z"/>
	<path d="M320.6,288.1c-1.1-1.9-2.2-3.8-1.9-6.8C319.5,284.1,320.1,286.1,320.6,288.1z"/>
	<path d="M318.2,251.5c1.4-0.5,2.8-0.8,5.1,0.1c-2.2,0.3-3.6,0.5-5,0.7C318.2,252,318.2,251.7,318.2,251.5z"/>
	<path d="M374.9,286c0.8-1.2,1.5-2,2.8-2.3C377.5,285.3,376.5,285.8,374.9,286z"/>
	<path d="M381,330.5c0.4,1.3-0.1,2.3-0.6,3.2C380.2,332.7,379.8,331.6,381,330.5z"/>
	<path d="M356.5,266.8c0.2-1.2,0.7-1.5,1.5-1.6C358.4,266.4,357.9,266.9,356.5,266.8z"/>
	<path d="M377.7,300.6c0.2-0.6,0.5-0.9,1.3-0.8C378.9,300.8,378.6,301.1,377.7,300.6z"/>
	<path d="M313.7,241.4c0.6,0.6,0.6,1.3-0.1,2.1C313.1,242.7,313,242.1,313.7,241.4z"/>
	<path d="M324.7,269c0.6,0,1.2-0.1,1.9-0.1C326,269.6,325.4,268.8,324.7,269L324.7,269z"/>
	<path d="M510.6,144.2c-1.2,0.2-2.5,0.5-4.3,0.8C507.9,143.2,509.1,142.7,510.6,144.2L510.6,144.2z"/>
	<path d="M248.2,201.4c0.6,0.7,1.7,1.1,1.5,2.3C248,203.8,248.1,202.6,248.2,201.4z"/>
	<path d="M406.7,246.1c6.9,2.3,12.7,7.9,20.3,8.2c7.2,0.3,14.5,0.2,22-0.7c-2.9,2.4-16.6,3.9-22.3,2.7
		C419.1,254.8,413.1,250.2,406.7,246.1z"/>
	<path d="M456.4,255.9c1.9,0.7,2.8,2.5,4.7,3.2C458.1,258.8,458.1,258.8,456.4,255.9z"/>
	<path d="M404.1,228.1c-1.3,1.6-3,1.6-5.4,1.9C400.6,227.9,402.4,228,404.1,228.1z"/>
	<path d="M454.7,234.6c0,1.8-1,2.8-2.1,4.1C452.2,236,452.2,236,454.7,234.6z"/>
	<path d="M452.1,239.2c2,1.3,2.3,2.8,3.1,4.1C453.4,242.9,452.9,241.5,452.1,239.2z"/>
	<path d="M384.9,262.9c2.1,0.6,2.5,1.8,3.3,3.6C386.4,265.6,385.6,264.8,384.9,262.9z"/>
	<path d="M382.6,231.2c-1.6-0.6-2.7-1-3.7-2.4C380.5,229.1,381.7,229.2,382.6,231.2z"/>
	<path d="M466.2,260.8c1.4,0.3,2.1,0.5,2.9,0.7C468.2,262.1,467.4,262.4,466.2,260.8z"/>
	<path d="M453.1,251.7c0.3-1.4,1.1-1.6,2.4-1.3C454.8,251.4,454.1,251.7,453.1,251.7z"/>
	<path d="M388.1,202.5c1.1-1.3,1.7-0.9,2.5-0.4C389.9,203.5,389.1,203,388.1,202.5z"/>
	<path d="M461.1,244.1c0.2,1.2-0.3,1.5-1.1,1.7C459.3,244.7,460.3,244.6,461.1,244.1z"/>
	<path d="M473.7,260.4c-0.4,0.4-0.8,0.3-1.3,0.2C472.7,259.7,473.2,259.9,473.7,260.4z"/>
	<path d="M337.4,161.3c1.3-0.3,1.9,0.5,2.1,1.5c0.4,2.3,1.8,3.9,3.2,5.6c-0.6,1.5-1.5,2.5-3,3.4c-0.9-1.4,2.4-2.6,0.1-4
		c-1.9,0.5-1.3,2.9-2.6,4c-1.8-2.9,2.7-5.1,0.4-8c-1.1,0.2-1.7,1-2.3,2.1c1.7,2.2,0.4,4.7,0.5,7.3c-1.9,0.4-3.8,0.9-4.9-1.3
		c0.1-2.2,2.2-1.6,3.4-2.6c0.7-1.7,0.7-3-2.5-2.7c2.3-2.2,4.1-3.8,5.8-5.4L337.4,161.3z"/>
	<path d="M300.8,149.4c3,2.5,7.3,1.1,11,4.3c-6.1,0.2-11.7-2.4-17.2,1.5C295.9,152,295.9,152,300.8,149.4z"/>
	<path d="M323,219.5c-2.6,1.5-5,3-7.9,1.7c-1.4-0.6-2.4-1.5-1.9-3.6C316.3,219.1,319.6,218,323,219.5z"/>
	<path d="M298,155.9c2.9-0.2,5.3-0.7,7,1.9c-2,2.1-4.7,0.8-6.7,2C297.4,158.4,298.8,157.3,298,155.9z"/>
	<path d="M323.7,185.4c0.1-4.1,4-5.9,5.9-8.8C330.4,181.3,325.3,182.3,323.7,185.4z"/>
	<path d="M322.9,221.3c2.5-2.3,5.3-3.8,8.6-4.1C328.7,218.5,326.1,220.6,322.9,221.3L322.9,221.3z"/>
	<path d="M325.4,187.3c-0.7,2.4-1.3,4.8-3,7.2C322.7,191.5,322.8,188.8,325.4,187.3z"/>
	<path d="M313.4,190.6c1.8-0.8,3.6-1.6,5.3-2.4c-1.3,1.8-3,2.9-5,3.2C313.7,191.1,313.6,190.9,313.4,190.6z"/>
	<path d="M337.8,185c-1-1.3-1.8-2.7-1.4-4.7C338.1,181.7,337.8,183.4,337.8,185z"/>
	<path d="M321.7,200.6c-1.3-1.3-0.9-2.1-0.3-3C323.1,198.4,322.1,199.4,321.7,200.6z"/>
	<path d="M340.6,214.3c-0.7,0.5-1.3,1-2.2,0.8C338.9,214.4,339.6,214,340.6,214.3z"/>
	<path d="M321.4,171.6c0.1,1.5-0.7,1.6-1.7,1.6C319.6,172.1,320.3,171.9,321.4,171.6z"/>
	<path d="M345.3,214c-0.9,0.6-1.3,0.8-1.7,1.1C343.5,214.3,344,214.2,345.3,214z"/>
	<path d="M317.9,173.8c0.1,1.5-0.7,1.6-1.5,1.6C316.3,174.2,316.9,174,317.9,173.8z"/>
	<path d="M322.9,221.2c-0.2,1-1.2,1-1.8,1.8C321.1,221.3,322,221.2,322.9,221.2L322.9,221.2z"/>
	<path d="M321.1,472.8c3.3,0.9,5.6,2,7.4,2.2c2,0,2-1.8,3.4-1.8c0.4,1.6,0.1,2.7-1.7,3.3C327.6,477.3,323.2,475.8,321.1,472.8z"/>
	<path d="M325.4,497.3c0.4-2.8,1.3-5.4,4.1-6.9C329,493.2,327.1,495.2,325.4,497.3z"/>
	<path d="M325,508.3c-1.9-3.7-1.9-4.6-0.2-7c0.8,1.1,0.2,2.3,0.2,3.4C324.9,505.9,325,507.1,325,508.3z"/>
	<path d="M314.2,556.8c0.5,1.9,0.3,3.7-1.4,5.5C311.6,559.7,313.3,558.3,314.2,556.8z"/>
	<path d="M315.1,553.3c-0.4-1.1-0.5-2,0.8-2.6C316.5,551.8,316.1,552.6,315.1,553.3z"/>
	<path d="M324.7,513.1c-0.7-0.5-0.9-1.2-0.6-2c1-0.4,1.1,0.2,1.1,0.8C325.2,512.4,325.2,512.9,324.7,513.1z"/>
	<path d="M316.6,546.9c-0.4-1.1-0.3-1.8,0.6-2.4C317.7,545.5,317.3,546.1,316.6,546.9z"/>
	<path d="M305,581.2c-6,0.5-7.9-0.4-8-3.6c-0.1-2.5,1.8-4.3,4.3-4.2C304.7,573.5,305.6,575.4,305,581.2z"/>
	<path d="M296.7,576.8c-1.7,3.7-3.1,4.6-5.7,4c-2.2-0.5-3.3-1.9-3.3-4.1c0-2.1,1.3-3.3,3.2-3.8C293.5,572.2,295.1,573.3,296.7,576.8
		z"/>
	<path d="M286.4,580c-1.2,0.1-1.6-0.5-2-1.1c-0.4-0.6-0.7-1.4-1.1-1.3c-1.9,0.1-0.8,2.3-2.8,2.1c-0.7-2.5-0.2-5,0.2-7.3
		c1.5-0.7,2.7-0.3,3.9-0.1c2.5,0.5,3.5,2.1,1.9,4C285.4,577.7,286.6,578.6,286.4,580z"/>
	<path d="M419.9,650.3c4.4-1.2,8-1.1,11.7,1.2C429,653.4,424.6,653,419.9,650.3z"/>
	<path d="M422.8,669.6c-4.3-0.9-8-3.6-12.7-3C414.4,665.1,419,666.2,422.8,669.6z"/>
	<path d="M252.1,203.8c-0.4-1.2-2.4-2.2-0.4-4.1c0.7,1.4,1.6,2.6,0.3,4L252.1,203.8z"/>
	<path d="M271.3,210.2c-0.2,1.4-0.8,2.4-2.5,3C269.1,211.4,270.1,210.7,271.3,210.2z"/>
	<path d="M941.4,335.5c-1.2,1.4-2.2,1.4-3.4,1C938.7,335.2,939.8,335.3,941.4,335.5z"/>
	<path d="M926.8,456.4c1.2-0.2,1.8,0.1,2.3,0.9C928.1,457.9,927.5,457.5,926.8,456.4z"/>
	<path d="M690.1,381.2c-1.1,0.4-1.4-0.2-1.8-0.7C689.2,379.8,689.5,380.6,690.1,381.2z"/>
	<path d="M798.6,455.2c4-2,12.6-0.9,17.3,2.3C810,458.1,804.6,454.4,798.6,455.2z"/>
	<path d="M842.3,442c0.7-2.9,0.5-5.4,1.8-7.7C845.9,436.6,845.6,437.8,842.3,442z"/>
	<path d="M835.3,449.7c1-2.3,3.1-3.8,4.5-5.9C839.7,446.9,837.1,448,835.3,449.7z"/>
	<path d="M833.4,468.4c-1.7,0.5-3.3,1-5,1.4C829.9,469,831.4,468,833.4,468.4z"/>
	<path d="M792,444.1c1.4-0.6,2.9-1.6,5-0.5C795.3,444.8,793.6,444.4,792,444.1z"/>
	<path d="M822,457.9c-1.5,0.5-2.9,0.5-4.3-0.8C819.4,456.7,820.6,457.8,822,457.9z"/>
	<path d="M764.6,438.3c-1.2,0.1-1.7-0.6-2.1-1.7C763.6,436.8,764.3,437.3,764.6,438.3z"/>
	<path d="M858.8,444.8c0.6,1.1-0.1,1.5-0.9,2.4C857.7,446,857.6,445.3,858.8,444.8z"/>
	<path d="M828.3,474.1c-1,0.6-1.9,0.5-3-0.1C826.4,473.4,827.3,473.7,828.3,474.1z"/>
	<path d="M849.3,445.3c0.8,1.1-0.1,1.6-0.6,2.4C848,446.5,848.5,445.9,849.3,445.3z"/>
	<path d="M843.5,464.5c0.8-0.1,1.1-0.1,1.6-0.1C844.7,464.9,844.4,464.6,843.5,464.5z"/>
	<path d="M841.6,519.3c3.3-3.3,3-7.5,2.7-11.7C847.7,511.9,846.8,515.9,841.6,519.3z"/>
	<path d="M834.5,507.7c0.4-2.9-0.3-5.8-1.2-9.2C837.2,501.4,837.5,504.5,834.5,507.7z"/>
	<path d="M844.3,524.8c-0.7,2.1-2.1,3.7-3.7,5.1C841.2,527.8,842.1,525.9,844.3,524.8z"/>
	<path d="M822.3,530.7c2.5-0.1,4,0.8,5.7,1.8C825.2,533,825.2,533,822.3,530.7z"/>
	<path d="M830.6,513.5c0.1-2,0.4-3,1.8-3.9C832.8,511.4,831.9,512.1,830.6,513.5z"/>
	<path d="M818.9,522.7c1-1.7,1.9-1.5,3.2-1.1C821.4,523.1,820.4,523.1,818.9,522.7z"/>
	<path d="M851.5,517.8c1.3,1.3,1.5,2.1,1,3.3C851.1,520.3,851.2,519.4,851.5,517.8z"/>
	<path d="M838.7,524.1c0.1,0.9,0,1.8-0.7,2.9C836.8,525.4,837.9,524.8,838.7,524.1L838.7,524.1z"/>
	<path d="M827.9,518.6c1,0.5,1.4,1.2,0.9,2.2C827.4,520.4,827.9,519.4,827.9,518.6z"/>
	<path d="M838.7,524.1c-0.1-1.3,0.6-2.1,2.1-2.9C840.4,522.7,840.3,523.9,838.7,524.1L838.7,524.1z"/>
	<path d="M865.5,558.6c1.1,0.7,1.3,1.5,1.8,2.7C866.1,560.5,865.7,559.8,865.5,558.6z"/>
	<path d="M876.9,610.4c-1.1-0.5-0.9-1.1-0.6-1.8C877.3,608.9,877.5,609.5,876.9,610.4z"/>
	<path d="M837,539.3c1.1,0.9,0.9,1.5,0.1,2C836.3,540.7,836.5,540.1,837,539.3z"/>
	<path d="M853.1,514.3c0.2,0.9,0.2,1.5-0.6,1.5C851.9,515,852.4,514.7,853.1,514.3z"/>
	<path d="M812.2,518.1c1.2,0.1,1.7,0.6,2,1.2C813.2,519.2,813.2,519.2,812.2,518.1z"/>
	<path d="M710.7,477.8c-5.7-0.8-8.8-5.7-6.6-11.1C705,471.5,706.3,475.7,710.7,477.8z"/>
	<path d="M723.1,518.7c-3.5-1.8-6.3-4.2-7.4-8.8c2.5,1.2,3.2,3.1,4.4,4.4C721.2,515.7,722,517.3,723.1,518.7z"/>
	<path d="M714.3,495.9c0.7,3.9,0.9,7.8,1.3,11.7C713.3,503.9,713.1,500,714.3,495.9z"/>
	<path d="M721.5,480.7c-2.2,0.4-4.3,0.5-6.4-1.1C717.6,479.2,719.4,480.4,721.5,480.7z"/>
	<path d="M724.3,522.2c1-0.4,1.5-0.2,1.4,0.8C725,523.4,724.7,523,724.3,522.2z"/>
	<path d="M734.1,527.4c1.2-0.5,1.8,0.1,2.2,0.8C735.4,528.7,734.8,528.3,734.1,527.4z"/>
	<path d="M730.2,525.1c0.9,0,1,0.4,0.9,0.8C730.4,526.2,730.4,525.8,730.2,525.1z"/>
	<path d="M737.4,346.2c-5.8-0.6-10.9-4.1-16.6-1.3c1.1-3.4,4.4-3.1,6.4-4.7C729.8,343.4,734.6,342.5,737.4,346.2z"/>
	<path d="M724.1,346.5c2.4,0.3,4.7,0.2,6.2,2.7c-2.2,2.1-4.8,0.2-7.6,1.5C723.4,348.8,723.7,347.7,724.1,346.5z"/>
	<path d="M752.5,370.7c-0.2,5.6-5.4,5.6-7.4,8.6C745.7,375.2,749.8,374,752.5,370.7z"/>
	<path d="M744.9,384.6c-0.4-1.9-0.1-3.5,1.7-5.1C747.5,382,746,383.3,744.9,384.6z"/>
	<path d="M768.3,398.8c-0.9,2.9-2.4,3.4-4.8,3.1C764.8,400.5,765.9,399.5,768.3,398.8z"/>
	<path d="M740.8,381.4c-2.3,1.7-4.3,2.5-6.5,2.2C736,382.2,738.1,381.8,740.8,381.4z"/>
	<path d="M758.4,376.5c1.3,1.2,0.9,2.6,0.7,4C758,379.3,758,377.9,758.4,376.5z"/>
	<path d="M742.6,366.8c0.4-1.1,0.9-1.6,1.9-1.2C744.5,367,743.6,366.8,742.6,366.8z"/>
	<path d="M752,413.6c-1.1-0.7-1.2-1.4-0.8-2.5C751.9,411.8,752.1,412.5,752,413.6z"/>
	<path d="M745.4,389.7c-0.7-0.8-0.6-1.4,0-2.2C746,388.2,746.1,388.8,745.4,389.7z"/>
	<path d="M740.8,367.3c-0.3,1-0.7,1.3-1.7,0.7C739.4,367.4,739.7,366.8,740.8,367.3z"/>
	<path d="M824.6,386.9c-6.1-1.6-12.3-2.8-18.7-3C812.6,381.5,818.7,383.6,824.6,386.9z"/>
	<path d="M878.1,421.1c-0.5-2.3,0.7-4,1.8-5.7C880.4,417.7,878.9,419.3,878.1,421.1z"/>
	<path d="M879.1,424.5c0.8,1.6,1.2,2.5,2,4.1C879.2,427.6,878.8,426.7,879.1,424.5z"/>
	<path d="M833.5,424.9c-1.4-0.5-2.3-0.8-2.2-2.1C832.4,422.9,832.9,423.6,833.5,424.9z"/>
	<path d="M830.1,389.5c-1,0.1-1.8-0.1-2.3-1.2C829.3,387.9,829.7,388.7,830.1,389.5z"/>
	<path d="M803,406.4c1.4,0.7,1.8,1.5,1.9,2.5C803.6,408.7,803.6,407.7,803,406.4z"/>
	<path d="M832.3,418.6c-0.2-1.5,0.9-1.3,1.9-1.8C833.9,418,833.3,418.3,832.3,418.6z"/>
	<path d="M809,411.8c0.8,0.2,1.3,0.4,1.2,1.1C809.3,413.2,808.9,412.8,809,411.8z"/>
	<path d="M879.3,409.6c-0.2,0.6-0.1,1.4-1.2,1.3c-0.6-0.9,0.3-1.1,0.4-1.7C878.9,409.4,879.1,409.5,879.3,409.6z"/>
	<path d="M813.3,414.7c1.1-0.2,1.3,0.4,1.6,0.8C814,415.8,813.8,415.2,813.3,414.7z"/>
	<path d="M776.9,502.5c5.4,4.6,11.7,7.2,18.9,8.8C790,512.3,779.8,507.6,776.9,502.5z"/>
	<path d="M803.6,486.8c-1.8-0.2-3.1-1.4-4.4-2.5C800.7,485,802.6,485.2,803.6,486.8L803.6,486.8z"/>
	<path d="M814,482c1.1-0.7,2.3-0.7,3.6-0.9C816.2,482.3,816.2,482.3,814,482z"/>
	<path d="M805.8,488.3c1.2-0.1,1.9,0.7,2.9,1.6C807.3,489.7,806.4,489.3,805.8,488.3L805.8,488.3z"/>
	<path d="M778.2,489.6c1.2,0.5,2.1,1.3,2.9,2.2c-0.1,0.1-0.3,0.3-0.4,0.4c-1.2-0.4-2.1-1.2-3-2.2c-0.1-0.2-0.1-0.4-0.2-0.6
		C777.8,489.4,778,489.5,778.2,489.6z"/>
	<path d="M770.6,478.1c-0.9-1-1.6-1.4-1.6-2.3C769.8,476.1,770.3,476.7,770.6,478.1z"/>
	<path d="M756,463.2c1.4,0.5,2,1,2.5,2.2C757.4,464.9,756.7,464.5,756,463.2z"/>
	<path d="M772.8,481c1,0.4,1.4,1.1,1.2,2.4C773.4,482.6,772.8,481.9,772.8,481L772.8,481z"/>
	<path d="M777.8,490c-0.9-0.4-1.6-1-2.1-2.4c1.2,0.5,1.8,1.2,2.5,2C778,489.7,777.9,489.8,777.8,490z"/>
	<path d="M805.8,488.2c-1,0-1.8-0.4-2.2-1.4l-0.1,0.1C804.6,486.8,805.4,487.3,805.8,488.2L805.8,488.2z"/>
	<path d="M772.9,480.9c-0.9-0.2-1.3-0.7-1.2-1.8C772.5,479.6,772.9,480.1,772.9,480.9L772.9,480.9z"/>
	<path d="M877.9,465.3c2.1-1.2,8.9-0.4,13.6,1.8c-1.4-0.1-2.8-0.1-4.2-0.2c-1.6-0.2-3.1-0.6-4.7-0.9
		C881.1,465.8,879.6,465.5,877.9,465.3z"/>
	<path d="M878.7,502.1c0,0.8,0,1.6,0,2.4c-0.1,0-0.1,0-0.2,0c0-0.8,0-1.6,0-2.4C878.5,502.1,878.6,502.1,878.7,502.1z"/>
	<path d="M884.4,507.7c0.6,0.8,0.4,1.6,0.2,2.4C883.7,509.3,884.1,508.5,884.4,507.7z"/>
	<path d="M863.7,467.5c-0.3,0-0.7,0-1,0c0.1,0,0.3-0.1,0.4-0.1C863.3,467.4,863.5,467.4,863.7,467.5z"/>
	<path d="M875.3,477.3c0.8-0.1,1.3,0.2,2,1.5C876.2,478.2,875.4,478.4,875.3,477.3L875.3,477.3z"/>
	<path d="M852,643.6c5.9-2.2,13.2-1.5,16,1.5C862.7,645.5,857.3,645.1,852,643.6z"/>
	<path d="M853.6,647.3c4.1-0.6,7.5-0.4,11.2,1.4C861.9,650.1,855.7,649.4,853.6,647.3z"/>
	<path d="M706.2,367.6c0.4,0.7,0.2,1-0.3,1.2c-0.1,0.1-0.5-0.1-0.5-0.2C705.2,368.1,705.5,367.8,706.2,367.6z"/>
	<path fill="#FFFFFF" d="M301.5,578.3c-0.5,0.6,0.4,1.2-0.4,1.8c-1.1,0-2-0.5-2.2-1.7c-0.3-1.4,0-2.8,1.6-3.2
		c2.1-0.6,3.1,0.6,3.4,2.5C303.3,579.1,302.3,577.4,301.5,578.3z"/>
	<path fill="#FFFFFF" d="M294.6,576.6c-0.1,1.7-1,2.8-2.5,2.8c-1.5,0-2.5-1-2.6-2.6c-0.1-1.6,1-2.5,2.5-2.6
		C293.6,574.2,294.5,575.2,294.6,576.6z"/>
	<path fill="#FFFFFF" d="M282.4,573.6c1.4-0.1,2.5-0.2,3.1,1C283.4,576.5,283.1,576.4,282.4,573.6z"/>
</g>
</svg>
